<svg xmlns="http://www.w3.org/2000/svg" version="1.1" width="1024" height="680">
<rect x="0" y="0" width="1024" height="680" fill="#bec0c1" />
<g transform="scale(4.000000) translate(0.5 0.5)">
<polygon fill="#fff4d0" fill-opacity="0.501961" points="259,185 94,76 -16,165" />
<polygon fill="#d56781" fill-opacity="0.501961" points="271,89 154,113 271,182" />
<polygon fill="#84b3d1" fill-opacity="0.501961" points="-16,97 3,-16 271,5" />
<polygon fill="#8aaec1" fill-opacity="0.501961" points="271,79 258,10 37,81" />
<polygon fill="#e9dabf" fill-opacity="0.501961" points="-2,161 -16,87 271,80" />
<polygon fill="#9a7445" fill-opacity="0.501961" points="199,80 228,72 256,80" />
<polygon fill="#cbbc9c" fill-opacity="0.501961" points="-16,79 144,80 -16,122" />
<polygon fill="#93b1cd" fill-opacity="0.501961" points="150,-15 231,78 271,2" />
<polygon fill="#abc0ca" fill-opacity="0.501961" points="105,-16 26,81 239,76" />
<polygon fill="#c8a2ac" fill-opacity="0.501961" points="155,102 271,91 168,133" />
<polygon fill="#e4decf" fill-opacity="0.501961" points="156,86 -16,90 159,185" />
<polygon fill="#b1986c" fill-opacity="0.501961" points="155,83 223,80 189,72" />
<polygon fill="#bea988" fill-opacity="0.501961" points="74,96 5,114 35,95" />
<polygon fill="#d9c1b2" fill-opacity="0.501961" points="208,169 149,111 271,180" />
<polygon fill="#7ea6ca" fill-opacity="0.501961" points="119,-11 -12,22 8,-16" />
<polygon fill="#bf9a74" fill-opacity="0.501961" points="143,74 164,81 134,84" />
<polygon fill="#a3bac6" fill-opacity="0.501961" points="145,80 245,74 199,10" />
<polygon fill="#b29663" fill-opacity="0.501961" points="29,85 -9,80 -16,91" />
<polygon fill="#c88497" fill-opacity="0.501961" points="271,102 187,111 271,183" />
<polygon fill="#af9967" fill-opacity="0.501961" points="75,86 102,83 78,79" />
<polygon fill="#97b0c0" fill-opacity="0.501961" points="49,81 -16,83 4,6" />
<polygon fill="#8baecc" fill-opacity="0.501961" points="241,-16 112,1 271,22" />
<polygon fill="#ddd7c7" fill-opacity="0.501961" points="125,84 4,185 -16,123" />
<polygon fill="#b89f7e" fill-opacity="0.501961" points="226,86 255,84 271,67" />
<polygon fill="#acc1ce" fill-opacity="0.501961" points="125,63 28,13 243,15" />
<polygon fill="#dbd8ce" fill-opacity="0.501961" points="73,90 6,108 -16,88" />
<polygon fill="#5a4e48" fill-opacity="0.501961" points="187,90 192,88 195,91" />
<polygon fill="#ddd4bb" fill-opacity="0.501961" points="178,82 271,89 223,102" />
<polygon fill="#b8a577" fill-opacity="0.501961" points="53,79 31,85 66,86" />
<polygon fill="#e7e1d0" fill-opacity="0.501961" points="112,96 202,185 28,156" />
<polygon fill="#e7dfc9" fill-opacity="0.501961" points="188,99 126,95 188,82" />
<polygon fill="#ca98a7" fill-opacity="0.501961" points="239,95 191,140 155,108" />
<polygon fill="#976e3d" fill-opacity="0.501961" points="196,82 208,78 189,78" />
<polygon fill="#b6a07e" fill-opacity="0.501961" points="-6,111 20,113 28,104" />
<polygon fill="#896e53" fill-opacity="0.501961" points="255,74 237,79 271,79" />
<polygon fill="#99b0c2" fill-opacity="0.501961" points="191,75 271,76 259,-8" />
<polygon fill="#94b7d1" fill-opacity="0.501961" points="32,9 184,12 119,-16" />
<polygon fill="#a4855d" fill-opacity="0.501961" points="71,97 61,95 68,93" />
<polygon fill="#a4b9c0" fill-opacity="0.501961" points="-16,85 54,43 87,79" />
<polygon fill="#d3c8b2" fill-opacity="0.501961" points="75,104 123,91 74,91" />
<polygon fill="#dad2bd" fill-opacity="0.501961" points="244,168 142,113 190,161" />
<polygon fill="#c7ad7c" fill-opacity="0.501961" points="118,78 138,84 103,83" />
<polygon fill="#dcd5c3" fill-opacity="0.501961" points="199,79 215,89 186,87" />
<polygon fill="#d9d3c0" fill-opacity="0.501961" points="258,79 234,81 244,85" />
<polygon fill="#dcd5c4" fill-opacity="0.501961" points="5,109 -8,178 54,159" />
<polygon fill="#b8a8b1" fill-opacity="0.501961" points="211,101 271,92 261,107" />
<polygon fill="#ded7c6" fill-opacity="0.501961" points="101,85 191,82 148,108" />
<polygon fill="#c09e53" fill-opacity="0.501961" points="75,83 65,84 73,86" />
<polygon fill="#ad8f64" fill-opacity="0.501961" points="239,76 215,77 231,81" />
<polygon fill="#c6b0b8" fill-opacity="0.501961" points="173,100 152,107 168,132" />
<polygon fill="#d7cfce" fill-opacity="0.501961" points="204,152 184,137 218,148" />
<polygon fill="#cd94a0" fill-opacity="0.501961" points="223,107 251,174 167,108" />
<polygon fill="#d3959b" fill-opacity="0.501961" points="203,142 164,124 207,131" />
<polygon fill="#816445" fill-opacity="0.501961" points="211,76 203,80 220,80" />
<polygon fill="#c78293" fill-opacity="0.501961" points="271,122 235,117 256,181" />
<polygon fill="#d3b98c" fill-opacity="0.501961" points="187,78 151,79 170,84" />
<polygon fill="#a5b9c2" fill-opacity="0.501961" points="150,78 217,76 218,48" />
<polygon fill="#bfa265" fill-opacity="0.501961" points="33,83 20,87 45,87" />
<polygon fill="#845a1e" fill-opacity="0.501961" points="5,86 -15,86 -16,80" />
<polygon fill="#d2c8ad" fill-opacity="0.501961" points="191,143 233,170 227,185" />
<polygon fill="#d9d3c3" fill-opacity="0.501961" points="74,91 -16,114 -16,88" />
<polygon fill="#83a1c5" fill-opacity="0.501961" points="222,-16 259,16 266,5" />
<polygon fill="#846642" fill-opacity="0.501961" points="197,78 203,79 207,77" />
<polygon fill="#abbdc3" fill-opacity="0.501961" points="127,39 21,80 140,79" />
<polygon fill="#b7a07d" fill-opacity="0.501961" points="53,97 46,103 59,100" />
<polygon fill="#d2cbb9" fill-opacity="0.501961" points="142,81 130,77 121,80" />
<polygon fill="#dfd9c7" fill-opacity="0.501961" points="73,115 31,106 -16,138" />
<polygon fill="#b8a17f" fill-opacity="0.501961" points="15,111 30,101 37,104" />
<polygon fill="#603b1c" fill-opacity="0.501961" points="242,79 237,77 248,77" />
<polygon fill="#a78d89" fill-opacity="0.501961" points="148,73 141,82 149,84" />
<polygon fill="#dcd8cb" fill-opacity="0.501961" points="39,87 80,88 16,105" />
<polygon fill="#baa789" fill-opacity="0.501961" points="13,112 -2,114 4,107" />
<polygon fill="#cbadad" fill-opacity="0.501961" points="229,150 205,144 248,170" />
<polygon fill="#76654e" fill-opacity="0.501961" points="189,90 191,92 195,90" />
<polygon fill="#d1c1b3" fill-opacity="0.501961" points="188,97 213,103 229,95" />
<polygon fill="#c1ad8d" fill-opacity="0.501961" points="42,101 47,106 57,98" />
<polygon fill="#92b0c7" fill-opacity="0.501961" points="38,33 4,53 -16,23" />
<polygon fill="#85613a" fill-opacity="0.501961" points="230,168 216,185 239,185" />
<polygon fill="#dbd1be" fill-opacity="0.501961" points="171,102 252,90 205,82" />
<polygon fill="#e2d9c0" fill-opacity="0.501961" points="197,181 139,112 219,167" />
<polygon fill="#d8ceb7" fill-opacity="0.501961" points="141,109 151,100 151,122" />
<polygon fill="#bb987a" fill-opacity="0.501961" points="231,98 235,94 241,96" />
<polygon fill="#d8d1c1" fill-opacity="0.501961" points="1,185 0,112 22,166" />
<polygon fill="#ccc4b3" fill-opacity="0.501961" points="-13,98 -16,87 24,90" />
<polygon fill="#a0baca" fill-opacity="0.501961" points="133,29 236,23 206,64" />
<polygon fill="#d8d3c3" fill-opacity="0.501961" points="109,102 78,86 171,83" />
<polygon fill="#e1daca" fill-opacity="0.501961" points="88,128 28,185 43,103" />
<polygon fill="#c1af96" fill-opacity="0.501961" points="91,96 83,92 76,93" />
<polygon fill="#9baebd" fill-opacity="0.501961" points="264,74 271,19 218,77" />
<polygon fill="#c58aa1" fill-opacity="0.501961" points="191,113 271,119 252,101" />
<polygon fill="#a4b8c0" fill-opacity="0.501961" points="89,79 30,84 21,56" />
<polygon fill="#641300" fill-opacity="0.501961" points="13,47 14,49 12,47" />
<polygon fill="#acbfc6" fill-opacity="0.501961" points="151,44 125,71 173,79" />
<polygon fill="#adc1ce" fill-opacity="0.501961" points="67,6 28,26 136,25" />
<polygon fill="#e6e1d1" fill-opacity="0.501961" points="71,114 148,97 99,147" />
<polygon fill="#789ebf" fill-opacity="0.501961" points="-16,2 13,4 -5,-16" />
<polygon fill="#dfd8c8" fill-opacity="0.501961" points="84,102 24,109 20,177" />
<polygon fill="#a7987d" fill-opacity="0.501961" points="95,80 79,80 88,85" />
<polygon fill="#8b7461" fill-opacity="0.501961" points="129,49 127,50 126,52" />
<polygon fill="#a8bfcc" fill-opacity="0.501961" points="191,10 162,60 72,32" />
<polygon fill="#ddd4c0" fill-opacity="0.501961" points="226,93 257,94 271,81" />
<polygon fill="#d4c5a5" fill-opacity="0.501961" points="232,84 230,79 241,79" />
<polygon fill="#99b2c9" fill-opacity="0.501961" points="271,43 227,39 220,-16" />
<polygon fill="#cba5af" fill-opacity="0.501961" points="172,128 197,124 160,120" />
<polygon fill="#d1c7c3" fill-opacity="0.501961" points="206,142 217,162 237,170" />
<polygon fill="#95b4ca" fill-opacity="0.501961" points="55,1 19,10 46,18" />
<polygon fill="#896a49" fill-opacity="0.501961" points="215,79 220,77 226,79" />
<polygon fill="#a1bac9" fill-opacity="0.501961" points="96,27 30,69 13,49" />
<polygon fill="#d4bc89" fill-opacity="0.501961" points="81,82 93,86 70,86" />
<polygon fill="#b79972" fill-opacity="0.501961" points="33,102 36,105 40,104" />
<polygon fill="#b79e76" fill-opacity="0.501961" points="164,79 182,79 169,83" />
<polygon fill="#dfd9c7" fill-opacity="0.501961" points="121,96 172,82 196,96" />
<polygon fill="#ded6c5" fill-opacity="0.501961" points="53,109 40,120 29,105" />
<polygon fill="#6a3c19" fill-opacity="0.501961" points="255,85 271,84 264,75" />
<polygon fill="#aebec3" fill-opacity="0.501961" points="141,79 86,78 124,63" />
<polygon fill="#b0bcbd" fill-opacity="0.501961" points="188,79 180,70 150,78" />
<polygon fill="#c9bcb8" fill-opacity="0.501961" points="204,102 154,105 184,95" />
<polygon fill="#c2b09a" fill-opacity="0.501961" points="197,145 196,149 190,143" />
<polygon fill="#cbbdac" fill-opacity="0.501961" points="147,89 147,85 140,92" />
<polygon fill="#d7d0c9" fill-opacity="0.501961" points="194,144 208,144 222,164" />
<polygon fill="#8cb2cd" fill-opacity="0.501961" points="116,-2 210,12 226,-16" />
<polygon fill="#ba9476" fill-opacity="0.501961" points="262,97 250,96 271,92" />
<polygon fill="#cf8d9b" fill-opacity="0.501961" points="168,122 199,112 209,121" />
<polygon fill="#acb2ad" fill-opacity="0.501961" points="104,80 86,82 96,77" />
<polygon fill="#ba9c6f" fill-opacity="0.501961" points="242,80 271,71 262,80" />
<polygon fill="#9bb2bd" fill-opacity="0.501961" points="-16,54 30,80 -2,82" />
<polygon fill="#c4ad7a" fill-opacity="0.501961" points="151,80 150,84 164,81" />
<polygon fill="#cec3b0" fill-opacity="0.501961" points="206,89 224,88 218,84" />
<polygon fill="#dcd5c5" fill-opacity="0.501961" points="38,163 11,113 -16,121" />
<polygon fill="#cb909f" fill-opacity="0.501961" points="214,116 254,141 194,139" />
<polygon fill="#cfacac" fill-opacity="0.501961" points="209,139 208,148 230,159" />
<polygon fill="#e1d2b9" fill-opacity="0.501961" points="158,101 183,99 170,96" />
<polygon fill="#c49db1" fill-opacity="0.501961" points="194,110 218,102 169,104" />
<polygon fill="#a98952" fill-opacity="0.501961" points="17,86 14,84 20,85" />
<polygon fill="#dfd7c4" fill-opacity="0.501961" points="62,98 49,112 100,98" />
<polygon fill="#a2b7c1" fill-opacity="0.501961" points="234,51 237,74 152,78" />
<polygon fill="#ddd7c4" fill-opacity="0.501961" points="14,95 17,104 41,100" />
<polygon fill="#ae936d" fill-opacity="0.501961" points="21,108 16,110 22,112" />
<polygon fill="#aec1ce" fill-opacity="0.501961" points="120,13 178,19 86,35" />
<polygon fill="#ceb580" fill-opacity="0.501961" points="59,82 51,85 71,86" />
<polygon fill="#cdb37d" fill-opacity="0.501961" points="54,87 39,86 51,83" />
<polygon fill="#d7d3c7" fill-opacity="0.501961" points="74,96 85,87 59,88" />
<polygon fill="#d4d0c9" fill-opacity="0.501961" points="158,115 156,126 150,105" />
<polygon fill="#ccbd9f" fill-opacity="0.501961" points="74,93 73,100 70,94" />
<polygon fill="#b69462" fill-opacity="0.501961" points="179,80 188,79 192,82" />
<polygon fill="#d5be8d" fill-opacity="0.501961" points="135,80 142,84 124,84" />
<polygon fill="#c4b6a0" fill-opacity="0.501961" points="26,83 43,84 35,81" />
<polygon fill="#c68f98" fill-opacity="0.501961" points="241,165 261,173 233,136" />
<polygon fill="#daceb7" fill-opacity="0.501961" points="123,96 109,89 87,94" />
<polygon fill="#beabb4" fill-opacity="0.501961" points="227,97 261,98 240,103" />
<polygon fill="#e2dbc9" fill-opacity="0.501961" points="136,87 156,99 92,106" />
<polygon fill="#ded4bc" fill-opacity="0.501961" points="195,149 183,155 160,122" />
<polygon fill="#a09486" fill-opacity="0.501961" points="111,79 109,82 117,80" />
<polygon fill="#9e846e" fill-opacity="0.501961" points="255,85 258,83 249,83" />
<polygon fill="#d5cbb9" fill-opacity="0.501961" points="243,85 256,84 267,92" />
<polygon fill="#e1dac9" fill-opacity="0.501961" points="180,152 108,174 232,175" />
<polygon fill="#c8ab7f" fill-opacity="0.501961" points="220,80 225,79 229,81" />
<polygon fill="#a3afb2" fill-opacity="0.501961" points="207,76 221,70 219,78" />
<polygon fill="#bfbbb3" fill-opacity="0.501961" points="61,83 55,82 61,81" />
<polygon fill="#97b2c9" fill-opacity="0.501961" points="231,39 270,27 189,28" />
<polygon fill="#cbbda5" fill-opacity="0.501961" points="-1,109 23,104 14,111" />
<polygon fill="#cf8893" fill-opacity="0.501961" points="207,136 217,132 232,139" />
<polygon fill="#e3ddcc" fill-opacity="0.501961" points="114,184 35,185 67,110" />
<polygon fill="#9bb8ce" fill-opacity="0.501961" points="136,12 53,-16 70,12" />
<polygon fill="#dedacb" fill-opacity="0.501961" points="222,88 213,94 236,92" />
<polygon fill="#d6bba2" fill-opacity="0.501961" points="210,96 219,98 226,95" />
<polygon fill="#dfd9c8" fill-opacity="0.501961" points="193,95 220,93 206,88" />
<polygon fill="#b09878" fill-opacity="0.501961" points="16,113 12,110 20,112" />
<polygon fill="#dcd6c6" fill-opacity="0.501961" points="182,84 148,83 155,93" />
<polygon fill="#c1b1ba" fill-opacity="0.501961" points="230,103 230,97 208,101" />
<polygon fill="#d8d1be" fill-opacity="0.501961" points="192,81 180,83 181,88" />
<polygon fill="#d1ccbd" fill-opacity="0.501961" points="26,93 46,89 30,87" />
<polygon fill="#c3bcae" fill-opacity="0.501961" points="21,83 11,84 16,82" />
<polygon fill="#a5becc" fill-opacity="0.501961" points="113,24 127,50 177,27" />
<polygon fill="#bcbfc8" fill-opacity="0.501961" points="143,78 140,81 142,77" />
<polygon fill="#a09e91" fill-opacity="0.501961" points="243,77 248,75 243,75" />
<polygon fill="#7b5c39" fill-opacity="0.501961" points="199,79 206,80 204,78" />
<polygon fill="#bfa19c" fill-opacity="0.501961" points="191,100 192,96 188,102" />
<polygon fill="#d5d0c4" fill-opacity="0.501961" points="228,81 224,86 239,81" />
<polygon fill="#a78f70" fill-opacity="0.501961" points="231,85 238,84 237,86" />
<polygon fill="#d7d2c3" fill-opacity="0.501961" points="233,85 219,85 240,92" />
<polygon fill="#bb9d67" fill-opacity="0.501961" points="4,86 14,87 13,84" />
<polygon fill="#d3bf92" fill-opacity="0.501961" points="182,83 179,80 187,80" />
<polygon fill="#c4c8c7" fill-opacity="0.501961" points="109,85 102,88 94,86" />
<polygon fill="#d4cab8" fill-opacity="0.501961" points="10,176 -12,157 2,157" />
<polygon fill="#a9bdc5" fill-opacity="0.501961" points="129,74 128,40 197,76" />
<polygon fill="#b09772" fill-opacity="0.501961" points="72,97 68,98 63,94" />
<polygon fill="#ded6c4" fill-opacity="0.501961" points="80,102 56,107 66,97" />
<polygon fill="#bfa788" fill-opacity="0.501961" points="212,161 214,158 210,158" />
<polygon fill="#b2c4d0" fill-opacity="0.501961" points="131,3 117,3 122,7" />
<polygon fill="#8c525d" fill-opacity="0.501961" points="145,76 146,75 142,75" />
<polygon fill="#8aacc8" fill-opacity="0.501961" points="27,-16 -4,14 23,11" />
<polygon fill="#b8a283" fill-opacity="0.501961" points="43,106 35,103 28,105" />
<polygon fill="#d3be91" fill-opacity="0.501961" points="108,80 96,84 112,84" />
<polygon fill="#dcd9cd" fill-opacity="0.501961" points="79,89 88,93 103,87" />
<polygon fill="#d9d6c9" fill-opacity="0.501961" points="0,94 35,92 -8,112" />
<polygon fill="#a3b8c9" fill-opacity="0.501961" points="213,31 194,12 250,16" />
<polygon fill="#d9c8b2" fill-opacity="0.501961" points="212,95 186,96 201,100" />
<polygon fill="#9db6c9" fill-opacity="0.501961" points="39,50 -4,18 23,13" />
<polygon fill="#ce9a9f" fill-opacity="0.501961" points="198,137 224,140 247,162" />
<polygon fill="#af9160" fill-opacity="0.501961" points="32,84 38,86 44,84" />
<polygon fill="#d4cab7" fill-opacity="0.501961" points="192,88 206,92 222,87" />
<polygon fill="#c192a9" fill-opacity="0.501961" points="270,113 271,98 222,104" />
<polygon fill="#d1c7b1" fill-opacity="0.501961" points="158,78 168,78 163,80" />
<polygon fill="#d3c192" fill-opacity="0.501961" points="46,85 37,85 44,87" />
<polygon fill="#bec1c0" fill-opacity="0.501961" points="90,86 76,86 83,88" />
<polygon fill="#d07e8c" fill-opacity="0.501961" points="246,124 238,126 234,118" />
<polygon fill="#95aec7" fill-opacity="0.501961" points="271,90 271,25 231,-11" />
<polygon fill="#d4ccba" fill-opacity="0.501961" points="239,87 224,83 216,89" />
<polygon fill="#b1c2cd" fill-opacity="0.501961" points="56,15 30,21 70,23" />
<polygon fill="#a4bdca" fill-opacity="0.501961" points="61,49 119,49 50,20" />
<polygon fill="#ded6c4" fill-opacity="0.501961" points="47,107 30,105 29,118" />
<polygon fill="#d9cfb6" fill-opacity="0.501961" points="145,104 144,114 158,126" />
<polygon fill="#adbdc3" fill-opacity="0.501961" points="111,69 90,79 136,79" />
<polygon fill="#dbd5c5" fill-opacity="0.501961" points="175,82 187,96 190,82" />
<polygon fill="#d2c6c3" fill-opacity="0.501961" points="223,165 246,169 222,156" />
<polygon fill="#9eb6c5" fill-opacity="0.501961" points="248,56 211,76 209,25" />
<polygon fill="#a99070" fill-opacity="0.501961" points="241,83 235,85 232,83" />
<polygon fill="#cec4ae" fill-opacity="0.501961" points="217,161 228,168 233,166" />
<polygon fill="#baa284" fill-opacity="0.501961" points="191,145 196,147 195,145" />
<polygon fill="#b99f76" fill-opacity="0.501961" points="47,104 47,102 51,104" />
<polygon fill="#b6afa2" fill-opacity="0.501961" points="0,84 15,85 13,81" />
<polygon fill="#c48298" fill-opacity="0.501961" points="244,111 271,98 271,121" />
<polygon fill="#9eafbc" fill-opacity="0.501961" points="264,76 226,73 255,65" />
<polygon fill="#9fb6c2" fill-opacity="0.501961" points="18,37 37,81 6,82" />
<polygon fill="#d1cbbd" fill-opacity="0.501961" points="242,90 238,82 249,81" />
<polygon fill="#d4c6af" fill-opacity="0.501961" points="237,92 242,96 254,92" />
<polygon fill="#a5875d" fill-opacity="0.501961" points="71,99 70,95 67,95" />
<polygon fill="#cb8a9c" fill-opacity="0.501961" points="228,128 243,116 213,106" />
<polygon fill="#dcd3c0" fill-opacity="0.501961" points="85,101 64,97 61,103" />
<polygon fill="#d1cbba" fill-opacity="0.501961" points="151,78 148,80 151,80" />
<polygon fill="#997176" fill-opacity="0.501961" points="144,78 144,82 146,81" />
<polygon fill="#a58c60" fill-opacity="0.501961" points="64,83 61,83 61,84" />
<polygon fill="#dfdac8" fill-opacity="0.501961" points="78,89 72,97 73,90" />
<polygon fill="#9ab9d0" fill-opacity="0.501961" points="138,2 124,14 163,12" />
<polygon fill="#dad0b6" fill-opacity="0.501961" points="236,174 213,159 196,185" />
<polygon fill="#cabaa0" fill-opacity="0.501961" points="62,94 65,97 59,100" />
<polygon fill="#ded7cd" fill-opacity="0.501961" points="172,131 182,142 191,140" />
<polygon fill="#e5ddca" fill-opacity="0.501961" points="185,165 156,157 135,107" />
<polygon fill="#dad2cb" fill-opacity="0.501961" points="208,150 216,161 229,160" />
<polygon fill="#baa075" fill-opacity="0.501961" points="234,78 240,79 233,81" />
<polygon fill="#c68190" fill-opacity="0.501961" points="269,129 257,179 250,149" />
<polygon fill="#7f9dbf" fill-opacity="0.501961" points="271,32 243,-16 268,4" />
<polygon fill="#d9d1bd" fill-opacity="0.501961" points="7,106 11,110 16,105" />
<polygon fill="#91afc8" fill-opacity="0.501961" points="20,31 -16,25 -5,44" />
<polygon fill="#cec5b4" fill-opacity="0.501961" points="145,76 144,94 148,86" />
<polygon fill="#e3dcc9" fill-opacity="0.501961" points="143,122 146,90 118,103" />
<polygon fill="#e2dcc9" fill-opacity="0.501961" points="173,92 200,93 186,97" />
<polygon fill="#c9a4b1" fill-opacity="0.501961" points="158,112 175,104 169,126" />
<polygon fill="#abc0c9" fill-opacity="0.501961" points="145,63 99,38 98,70" />
<polygon fill="#c8b4b5" fill-opacity="0.501961" points="156,115 165,122 157,107" />
<polygon fill="#95b7ce" fill-opacity="0.501961" points="83,9 108,10 133,-7" />
<polygon fill="#c8c6c3" fill-opacity="0.501961" points="159,101 150,107 161,105" />
<polygon fill="#bdab8e" fill-opacity="0.501961" points="16,107 4,107 16,114" />
<polygon fill="#ddd3b9" fill-opacity="0.501961" points="191,143 175,136 197,154" />
<polygon fill="#9b828b" fill-opacity="0.501961" points="140,76 140,74 142,78" />
<polygon fill="#ded8c7" fill-opacity="0.501961" points="6,103 15,103 10,109" />
<polygon fill="#cc93a2" fill-opacity="0.501961" points="196,107 213,118 162,121" />
<polygon fill="#a7bdc7" fill-opacity="0.501961" points="140,75 193,39 148,48" />
<polygon fill="#e2dbc9" fill-opacity="0.501961" points="35,112 30,107 24,109" />
<polygon fill="#dad3c2" fill-opacity="0.501961" points="22,117 -13,163 0,115" />
<polygon fill="#a6bcc6" fill-opacity="0.501961" points="67,80 104,47 54,47" />
<polygon fill="#91755b" fill-opacity="0.501961" points="266,58 253,78 263,73" />
<polygon fill="#e0dacb" fill-opacity="0.501961" points="112,87 135,85 143,93" />
<polygon fill="#ddd6c5" fill-opacity="0.501961" points="110,96 146,86 139,98" />
<polygon fill="#ddd6c6" fill-opacity="0.501961" points="24,160 5,110 37,150" />
<polygon fill="#c7ae7a" fill-opacity="0.501961" points="98,83 90,85 87,82" />
<polygon fill="#b4a07e" fill-opacity="0.501961" points="197,79 199,77 198,80" />
<polygon fill="#baa481" fill-opacity="0.501961" points="4,110 5,114 1,112" />
<polygon fill="#c493a3" fill-opacity="0.501961" points="232,136 251,135 245,141" />
<polygon fill="#daaba6" fill-opacity="0.501961" points="183,136 176,128 186,134" />
<polygon fill="#dac7ae" fill-opacity="0.501961" points="223,97 219,94 230,96" />
<polygon fill="#e0d9c8" fill-opacity="0.501961" points="52,102 105,101 56,119" />
<polygon fill="#ccbda2" fill-opacity="0.501961" points="21,104 33,102 30,105" />
<polygon fill="#d8d0c0" fill-opacity="0.501961" points="137,80 132,81 136,79" />
<polygon fill="#d5cdbd" fill-opacity="0.501961" points="181,167 218,172 200,185" />
<polygon fill="#ddd4cc" fill-opacity="0.501961" points="191,140 204,143 197,147" />
<polygon fill="#a98e6b" fill-opacity="0.501961" points="36,103 30,103 34,105" />
<polygon fill="#c892a3" fill-opacity="0.501961" points="215,134 233,134 210,110" />
<polygon fill="#d0c9c0" fill-opacity="0.501961" points="205,151 210,145 195,145" />
<polygon fill="#cfc6b2" fill-opacity="0.501961" points="179,77 185,79 190,77" />
<polygon fill="#9ab6c9" fill-opacity="0.501961" points="16,51 15,30 51,29" />
<polygon fill="#7e542c" fill-opacity="0.501961" points="212,178 241,185 230,169" />
<polygon fill="#b19170" fill-opacity="0.501961" points="140,81 136,83 146,82" />
<polygon fill="#dfd9c8" fill-opacity="0.501961" points="76,155 93,163 83,185" />
<polygon fill="#bcaca4" fill-opacity="0.501961" points="232,165 234,185 230,177" />
<polygon fill="#d2c6b1" fill-opacity="0.501961" points="-8,116 -16,121 8,119" />
<polygon fill="#c0b0b9" fill-opacity="0.501961" points="211,103 225,98 198,100" />
<polygon fill="#a78a61" fill-opacity="0.501961" points="165,80 165,82 168,80" />
<polygon fill="#abbabe" fill-opacity="0.501961" points="138,78 143,72 124,79" />
<polygon fill="#cb8b98" fill-opacity="0.501961" points="247,139 215,137 244,148" />
<polygon fill="#d0c1ac" fill-opacity="0.501961" points="36,160 35,163 38,160" />
<polygon fill="#c3b6bd" fill-opacity="0.501961" points="159,102 182,101 174,106" />
<polygon fill="#9aafb9" fill-opacity="0.501961" points="-16,63 -16,83 15,82" />
<polygon fill="#9bb0c2" fill-opacity="0.501961" points="258,77 259,35 225,50" />
<polygon fill="#dad7c8" fill-opacity="0.501961" points="221,82 198,84 209,87" />
<polygon fill="#cbb481" fill-opacity="0.501961" points="15,88 26,84 26,88" />
<polygon fill="#e3d5be" fill-opacity="0.501961" points="168,80 175,78 168,78" />
<polygon fill="#dcd5c4" fill-opacity="0.501961" points="166,82 175,91 181,90" />
<polygon fill="#a8bcc3" fill-opacity="0.501961" points="149,78 150,62 185,66" />
</g>
</svg>