<svg height="680" width="1024" xmlns="http://www.w3.org/2000/svg"><path d="m0 0h1024v680h-1024z" fill="#b1b5b0"/><g fill-opacity=".501961" stroke-width="4"><ellipse cx="758" cy="530" fill="#3f1800" rx="196" ry="196"/><ellipse cx="742" cy="290" fill="#200600" rx="80" ry="80"/><ellipse cx="262" cy="438" fill="#edf2f0" rx="340" ry="340"/><ellipse cx="874" cy="634" fill="#2f1200" rx="76" ry="76"/><ellipse cx="654" cy="630" fill="#3f2a0a" rx="80" ry="80"/><ellipse cx="1022" cy="510" fill="#d4e4e5" rx="100" ry="100"/><ellipse cx="514" cy="242" fill="#d1dad7" rx="168" ry="168"/><ellipse cx="730" cy="202" fill="#261d09" rx="32" ry="32"/><ellipse cx="974" cy="2" fill="#75a7bc" rx="184" ry="184"/><ellipse cx="118" cy="2" fill="#b3c2c4" rx="344" ry="344"/><ellipse cx="658" cy="478" fill="#c4cbc1" rx="40" ry="40"/><ellipse cx="926" cy="258" fill="#b3c9cf" rx="128" ry="128"/><ellipse cx="742" cy="338" fill="#5a4a2a" rx="84" ry="84"/><ellipse cx="846" cy="482" fill="#bec5ba" rx="36" ry="36"/><ellipse cx="458" cy="602" fill="#e1e1de" rx="128" ry="128"/><ellipse cx="998" cy="382" fill="#bcc9ca" rx="108" ry="108"/><ellipse cx="758" cy="526" fill="#654b25" rx="76" ry="76"/><ellipse cx="758" cy="610" fill="#d7b380" rx="32" ry="32"/><ellipse cx="818" cy="446" fill="#cbccc2" rx="28" ry="28"/><ellipse cx="1022" cy="594" fill="#cbd4cf" rx="88" ry="88"/><ellipse cx="866" cy="610" fill="#553e1d" rx="80" ry="80"/><ellipse cx="598" cy="130" fill="#b6c7cc" rx="128" ry="128"/><ellipse cx="218" cy="678" fill="#e0e0db" rx="220" ry="220"/><ellipse cx="726" cy="382" fill="#846c4c" rx="80" ry="80"/><ellipse cx="770" cy="674" fill="#a9895e" rx="56" ry="56"/><ellipse cx="734" cy="166" fill="#23221c" rx="16" ry="16"/><ellipse cx="74" cy="98" fill="#a0b2b7" rx="120" ry="120"/><ellipse cx="606" cy="470" fill="#6e593a" rx="28" ry="28"/><ellipse cx="846" cy="154" fill="#abbec3" rx="100" ry="100"/><ellipse cx="734" cy="262" fill="#4f432c" rx="60" ry="60"/><ellipse cx="1002" cy="498" fill="#bec7c4" rx="80" ry="80"/><ellipse cx="614" cy="674" fill="#4b3822" rx="40" ry="40"/><ellipse cx="682" cy="442" fill="#c3c8c7" rx="20" ry="20"/><ellipse cx="286" cy="190" fill="#c9cec9" rx="156" ry="156"/><ellipse cx="634" cy="518" fill="#a4a9a2" rx="32" ry="32"/><ellipse cx="814" cy="374" fill="#745833" rx="44" ry="44"/><ellipse cx="550" cy="282" fill="#d1d4ce" rx="124" ry="124"/><ellipse cx="826" cy="274" fill="#ced3cc" rx="28" ry="28"/><ellipse cx="870" cy="514" fill="#b0b3ad" rx="24" ry="24"/><ellipse cx="650" cy="370" fill="#41311c" rx="16" ry="16"/><ellipse cx="910" cy="666" fill="#38250f" rx="36" ry="36"/><ellipse cx="454" cy="546" fill="#d6d8d6" rx="128" ry="128"/><ellipse cx="1002" cy="2" fill="#719daa" rx="96" ry="96"/><ellipse cx="610" cy="170" fill="#bcc6c5" rx="100" ry="100"/><ellipse cx="910" cy="538" fill="#403723" rx="24" ry="24"/><ellipse cx="1022" cy="546" fill="#c0c9c7" rx="92" ry="92"/><ellipse cx="694" cy="2" fill="#9db9c1" rx="120" ry="120"/><ellipse cx="890" cy="454" fill="#4e4025" rx="28" ry="28"/><ellipse cx="690" cy="578" fill="#433623" rx="44" ry="44"/><ellipse cx="750" cy="558" fill="#070701" rx="16" ry="16"/><ellipse cx="742" cy="418" fill="#a4835c" rx="36" ry="36"/><ellipse cx="738" cy="322" fill="#4a4336" rx="68" ry="68"/><ellipse cx="738" cy="230" fill="#d1a36c" rx="12" ry="12"/><ellipse cx="618" cy="610" fill="#6f5a3f" rx="44" ry="44"/><ellipse cx="998" cy="410" fill="#bbc6c6" rx="88" ry="88"/><ellipse cx="618" cy="438" fill="#947d5b" rx="36" ry="36"/><ellipse cx="178" cy="142" fill="#b5bfbf" rx="92" ry="92"/><ellipse cx="842" cy="478" fill="#090907" rx="8" ry="8"/><ellipse cx="726" cy="146" fill="#56544a" rx="12" ry="12"/><ellipse cx="738" cy="502" fill="#8d7352" rx="40" ry="40"/><ellipse cx="746" cy="326" fill="#af875a" rx="20" ry="20"/><ellipse cx="1002" cy="174" fill="#97aeb5" rx="92" ry="92"/><ellipse cx="34" cy="2" fill="#8fa8ae" rx="84" ry="84"/><ellipse cx="614" cy="538" fill="#81755e" rx="36" ry="36"/><ellipse cx="822" cy="530" fill="#533e26" rx="32" ry="32"/><ellipse cx="454" cy="2" fill="#acbfc4" rx="124" ry="124"/><ellipse cx="986" cy="678" fill="#d4dbd4" rx="44" ry="44"/><ellipse cx="906" cy="506" fill="#473d29" rx="20" ry="20"/><ellipse cx="474" cy="678" fill="#dbddd8" rx="104" ry="104"/><ellipse cx="734" cy="202" fill="#464237" rx="24" ry="24"/><ellipse cx="802" cy="606" fill="#130d04" rx="16" ry="16"/><ellipse cx="922" cy="318" fill="#bac4c3" rx="80" ry="80"/><ellipse cx="726" cy="126" fill="#746654" rx="12" ry="12"/><ellipse cx="830" cy="666" fill="#81613f" rx="28" ry="28"/><ellipse cx="802" cy="362" fill="#a47c52" rx="20" ry="20"/><ellipse cx="654" cy="134" fill="#b8c3c3" rx="72" ry="72"/><ellipse cx="778" cy="534" fill="#caa06e" rx="12" ry="12"/><ellipse cx="798" cy="134" fill="#acbfc3" rx="64" ry="64"/><ellipse cx="2" cy="286" fill="#c1c7c3" rx="140" ry="140"/><ellipse cx="810" cy="330" fill="#1b2327" rx="12" ry="12"/><ellipse cx="502" cy="514" fill="#d3d5d4" rx="80" ry="80"/><ellipse cx="666" cy="626" fill="#312618" rx="24" ry="24"/><ellipse cx="682" cy="354" fill="#756147" rx="32" ry="32"/><ellipse cx="602" cy="510" fill="#77664d" rx="20" ry="20"/><ellipse cx="1010" cy="494" fill="#bec7c4" rx="88" ry="88"/><ellipse cx="714" cy="514" fill="#4a3d27" rx="20" ry="20"/><ellipse cx="666" cy="294" fill="#d5d6cc" rx="12" ry="12"/><ellipse cx="962" cy="622" fill="#d9ded6" rx="20" ry="20"/><ellipse cx="926" cy="462" fill="#302222" rx="8" ry="8"/><ellipse cx="854" cy="402" fill="#77592f" rx="32" ry="32"/><ellipse cx="818" cy="198" fill="#b9c4c4" rx="48" ry="48"/><ellipse cx="534" cy="418" fill="#cdd3d0" rx="68" ry="68"/><ellipse cx="830" cy="634" fill="#3b2a17" rx="28" ry="28"/><ellipse cx="654" cy="486" fill="#333433" rx="8" ry="8"/><ellipse cx="802" cy="306" fill="#0d171c" rx="12" ry="12"/><ellipse cx="830" cy="486" fill="#ccc8bb" rx="12" ry="12"/><ellipse cx="742" cy="394" fill="#ba9b75" rx="16" ry="16"/><ellipse cx="846" cy="314" fill="#c5cdca" rx="28" ry="28"/><ellipse cx="194" cy="410" fill="#cfd4d2" rx="148" ry="148"/><ellipse cx="726" cy="366" fill="#251f14" rx="16" ry="16"/><ellipse cx="822" cy="350" fill="#533d28" rx="16" ry="16"/><ellipse cx="634" cy="450" fill="#4a4134" rx="12" ry="12"/><ellipse cx="778" cy="562" fill="#2c1b08" rx="12" ry="12"/><ellipse cx="726" cy="534" fill="#a78760" rx="16" ry="16"/><ellipse cx="750" cy="230" fill="#7c5f3d" rx="28" ry="28"/><ellipse cx="926" cy="678" fill="#b98d59" rx="12" ry="12"/><ellipse cx="666" cy="566" fill="#6f593d" rx="28" ry="28"/><ellipse cx="602" cy="478" fill="#75634c" rx="24" ry="24"/><ellipse cx="630" cy="506" fill="#c6c1b7" rx="16" ry="16"/><ellipse cx="638" cy="478" fill="#bcbab0" rx="16" ry="16"/><ellipse cx="798" cy="254" fill="#432400" rx="8" ry="8"/><ellipse cx="718" cy="274" fill="#252a29" rx="20" ry="20"/><ellipse cx="674" cy="258" fill="#342715" rx="8" ry="8"/><ellipse cx="866" cy="638" fill="#080704" rx="12" ry="12"/><ellipse cx="822" cy="282" fill="#bcc1bb" rx="24" ry="24"/><ellipse cx="654" cy="458" fill="#bbb6ac" rx="16" ry="16"/><ellipse cx="746" cy="498" fill="#0e0e0a" rx="8" ry="8"/><ellipse cx="582" cy="662" fill="#13110c" rx="8" ry="8"/><ellipse cx="602" cy="354" fill="#dfe0d6" rx="36" ry="36"/><ellipse cx="766" cy="282" fill="#2a3030" rx="24" ry="24"/><ellipse cx="994" cy="566" fill="#c1c9c6" rx="60" ry="60"/><ellipse cx="730" cy="338" fill="#d2ad7f" rx="8" ry="8"/><ellipse cx="590" cy="634" fill="#a7845f" rx="16" ry="16"/><ellipse cx="222" cy="2" fill="#c6cec7" rx="52" ry="52"/><ellipse cx="686" cy="326" fill="#3f413b" rx="24" ry="24"/><ellipse cx="378" cy="150" fill="#d8dad1" rx="44" ry="44"/><ellipse cx="790" cy="342" fill="#9b7242" rx="16" ry="16"/><ellipse cx="670" cy="498" fill="#c3c0b3" rx="16" ry="16"/><ellipse cx="754" cy="478" fill="#aa8c68" rx="16" ry="16"/><ellipse cx="770" cy="586" fill="#b28f67" rx="20" ry="20"/><ellipse cx="710" cy="606" fill="#0c0c08" rx="12" ry="12"/><ellipse cx="774" cy="370" fill="#3a2d1c" rx="16" ry="16"/><ellipse cx="682" cy="398" fill="#89765b" rx="32" ry="32"/><ellipse cx="582" cy="586" fill="#cbb494" rx="12" ry="12"/><ellipse cx="934" cy="654" fill="#2f2517" rx="16" ry="16"/><ellipse cx="886" cy="582" fill="#644c30" rx="48" ry="48"/><ellipse cx="786" cy="510" fill="#362510" rx="12" ry="12"/><ellipse cx="790" cy="454" fill="#5e5541" rx="12" ry="12"/><ellipse cx="1022" cy="278" fill="#a7b9bd" rx="80" ry="80"/><ellipse cx="902" cy="470" fill="#493e2a" rx="20" ry="20"/><ellipse cx="866" cy="470" fill="#b4aca3" rx="12" ry="12"/><ellipse cx="702" cy="534" rx="8" ry="8"/><ellipse cx="730" cy="514" fill="#483824" rx="16" ry="16"/><ellipse cx="942" cy="430" fill="#c2cdc9" rx="32" ry="32"/><ellipse cx="830" cy="450" fill="#b8b3a4" rx="24" ry="24"/><ellipse cx="682" cy="514" fill="#554d3a" rx="12" ry="12"/><ellipse cx="730" cy="170" fill="#433e33" rx="12" ry="12"/><ellipse cx="874" cy="526" fill="#979591" rx="16" ry="16"/><ellipse cx="730" cy="562" fill="#020605" rx="8" ry="8"/><ellipse cx="618" cy="422" fill="#c6a476" rx="12" ry="12"/><ellipse cx="894" cy="438" fill="#6c563b" rx="20" ry="20"/><ellipse cx="758" cy="518" fill="#ab885e" rx="16" ry="16"/><ellipse cx="850" cy="430" fill="#5e503a" rx="16" ry="16"/><ellipse cx="754" cy="378" fill="#99744c" rx="16" ry="16"/><ellipse cx="830" cy="662" fill="#7b5c3b" rx="28" ry="28"/><ellipse cx="694" cy="662" fill="#65533c" rx="32" ry="32"/><ellipse cx="846" cy="334" fill="#c2cbc9" rx="16" ry="16"/><ellipse cx="866" cy="482" fill="#5b534b" rx="8" ry="8"/><ellipse cx="598" cy="678" fill="#cfaa7c" rx="8" ry="8"/><ellipse cx="510" cy="674" fill="#d7d9d5" rx="68" ry="68"/><ellipse cx="706" cy="338" fill="#ffc87d" rx="4" ry="4"/><ellipse cx="630" cy="206" fill="#c2cac6" rx="64" ry="64"/><ellipse cx="662" cy="478" fill="#46443e" rx="8" ry="8"/><ellipse cx="642" cy="614" fill="#4d3e2a" rx="40" ry="40"/><ellipse cx="842" cy="354" fill="#1c2329" rx="8" ry="8"/><ellipse cx="858" cy="498" fill="#e1dbc7" rx="12" ry="12"/><ellipse cx="838" cy="398" fill="#8e7452" rx="20" ry="20"/><ellipse cx="1022" cy="514" fill="#bfc8c5" rx="96" ry="96"/><ellipse cx="834" cy="502" fill="#6f726f" rx="12" ry="12"/><ellipse cx="894" cy="578" fill="#443622" rx="28" ry="28"/><ellipse cx="754" cy="206" fill="#464c4c" rx="12" ry="12"/><ellipse cx="894" cy="654" fill="#0c0c0b" rx="12" ry="12"/><ellipse cx="806" cy="542" fill="#362c1e" rx="16" ry="16"/><ellipse cx="314" cy="98" fill="#d0d5ce" rx="36" ry="36"/><ellipse cx="702" cy="354" fill="#a0805a" rx="12" ry="12"/><ellipse cx="818" cy="478" fill="#10171a" rx="4" ry="4"/><ellipse cx="718" cy="430" fill="#614d33" rx="12" ry="12"/><ellipse cx="922" cy="658" fill="#7e5f3b" rx="12" ry="12"/><ellipse cx="642" cy="322" fill="#c2ccc9" rx="24" ry="24"/><ellipse cx="822" cy="566" fill="#9d7449" rx="12" ry="12"/><ellipse cx="642" cy="434" fill="#5d5037" rx="12" ry="12"/><ellipse cx="586" cy="614" fill="#755a3f" rx="12" ry="12"/><ellipse cx="842" cy="554" fill="#141008" rx="8" ry="8"/><ellipse cx="914" cy="522" fill="#53442f" rx="16" ry="16"/><ellipse cx="674" cy="350" fill="#55422c" rx="16" ry="16"/><ellipse cx="642" cy="406" fill="#caa874" rx="8" ry="8"/><ellipse cx="702" cy="294" fill="#000e1b" rx="8" ry="8"/><ellipse cx="618" cy="666" fill="#030704" rx="8" ry="8"/><ellipse cx="638" cy="386" fill="#564628" rx="12" ry="12"/><ellipse cx="818" cy="10" fill="#95b0b8" rx="88" ry="88"/><ellipse cx="742" cy="286" fill="#4e5b5b" rx="16" ry="16"/><ellipse cx="794" cy="594" fill="#000104" rx="8" ry="8"/><ellipse cx="718" cy="378" fill="#392a17" rx="12" ry="12"/><ellipse cx="602" cy="570" fill="#7c674a" rx="24" ry="24"/><ellipse cx="630" cy="530" fill="#929494" rx="16" ry="16"/><ellipse cx="874" cy="490" fill="#a49d91" rx="12" ry="12"/><ellipse cx="850" cy="446" fill="#b5b2a9" rx="8" ry="8"/><ellipse cx="758" cy="414" fill="#4b3926" rx="8" ry="8"/><ellipse cx="606" cy="462" fill="#7c6850" rx="24" ry="24"/><ellipse cx="786" cy="534" fill="#9f7d56" rx="12" ry="12"/><ellipse cx="374" cy="326" fill="#cbd3cf" rx="112" ry="112"/><ellipse cx="698" cy="550" fill="#312a1d" rx="16" ry="16"/><ellipse cx="642" cy="650" fill="#211b10" rx="12" ry="12"/><ellipse cx="682" cy="446" fill="#a5a198" rx="24" ry="24"/><ellipse cx="838" cy="626" fill="#211a0f" rx="16" ry="16"/><ellipse cx="718" cy="598" fill="#000002" rx="8" ry="8"/><ellipse cx="690" cy="618" fill="#18170f" rx="12" ry="12"/><ellipse cx="730" cy="150" fill="#37342c" rx="8" ry="8"/><ellipse cx="810" cy="374" fill="#a1815b" rx="16" ry="16"/><ellipse cx="790" cy="258" fill="#926b3c" rx="12" ry="12"/><ellipse cx="938" cy="482" fill="#c4cac5" rx="20" ry="20"/><ellipse cx="246" cy="678" fill="#dfe0d9" rx="108" ry="108"/><ellipse cx="462" cy="102" fill="#bbc4c4" rx="64" ry="64"/><ellipse cx="866" cy="442" fill="#534229" rx="12" ry="12"/><ellipse cx="494" cy="558" fill="#d5d6d5" rx="88" ry="88"/><ellipse cx="698" cy="258" fill="#aa7f4c" rx="8" ry="8"/><ellipse cx="842" cy="198" fill="#b1bfc0" rx="64" ry="64"/><ellipse cx="922" cy="606" fill="#4f3b24" rx="20" ry="20"/><ellipse cx="558" cy="310" fill="#e1e2da" rx="32" ry="32"/><ellipse cx="30" cy="186" fill="#b3bdbe" rx="68" ry="68"/><ellipse cx="866" cy="406" fill="#b5956a" rx="8" ry="8"/><ellipse cx="878" cy="510" fill="#8e8982" rx="16" ry="16"/><ellipse cx="302" cy="502" fill="#d6d8d7" rx="116" ry="116"/><ellipse cx="610" cy="406" fill="#543618" rx="8" ry="8"/><ellipse cx="910" cy="38" fill="#8aaab3" rx="60" ry="60"/><ellipse cx="762" cy="634" fill="#9f8463" rx="36" ry="36"/><ellipse cx="418" cy="182" fill="#dcdcd3" rx="36" ry="36"/><ellipse cx="754" cy="254" fill="#1d211f" rx="8" ry="8"/><ellipse cx="742" cy="346" fill="#201c14" rx="8" ry="8"/><ellipse cx="726" cy="118" fill="#82644a" rx="8" ry="8"/><ellipse cx="662" cy="134" fill="#b4c0c2" rx="64" ry="64"/><ellipse cx="810" cy="546" fill="#8d704c" rx="8" ry="8"/><ellipse cx="566" cy="454" fill="#d2d8d4" rx="20" ry="20"/><ellipse cx="670" cy="518" fill="#b5b1a5" rx="8" ry="8"/><ellipse cx="906" cy="626" fill="#64482a" rx="24" ry="24"/><ellipse cx="674" cy="418" fill="#ead8b6" rx="4" ry="4"/><ellipse cx="890" cy="558" fill="#735530" rx="16" ry="16"/><ellipse cx="738" cy="230" fill="#c5a67a" rx="8" ry="8"/><ellipse cx="730" cy="154" fill="#2a373b" rx="8" ry="8"/><ellipse cx="810" cy="338" fill="#493f2f" rx="16" ry="16"/><ellipse cx="782" cy="438" fill="#4e3716" rx="8" ry="8"/><ellipse cx="862" cy="466" fill="#bbb3a6" rx="12" ry="12"/><ellipse cx="686" cy="270" fill="#a77f51" rx="8" ry="8"/><ellipse cx="842" cy="578" fill="#9a754c" rx="8" ry="8"/><ellipse cx="738" cy="254" fill="#a28a6b" rx="8" ry="8"/><ellipse cx="754" cy="334" fill="#c8a77b" rx="8" ry="8"/><ellipse cx="38" cy="594" fill="#d6d8d1" rx="92" ry="92"/><ellipse cx="106" cy="346" fill="#c7cfca" rx="88" ry="88"/><ellipse cx="674" cy="486" fill="#c1bfb1" rx="12" ry="12"/><ellipse cx="738" cy="482" fill="#a18460" rx="12" ry="12"/><ellipse cx="878" cy="646" fill="#161109" rx="12" ry="12"/><ellipse cx="674" cy="610" fill="#8a6641" rx="8" ry="8"/><ellipse cx="658" cy="586" fill="#775d3f" rx="16" ry="16"/><ellipse cx="686" cy="482" fill="#68655e" rx="8" ry="8"/><ellipse cx="906" cy="394" fill="#c5d2cf" rx="12" ry="12"/><ellipse cx="790" cy="566" fill="#452d15" rx="12" ry="12"/><ellipse cx="686" cy="370" fill="#a1835c" rx="12" ry="12"/><ellipse cx="858" cy="382" fill="#573b1b" rx="12" ry="12"/><ellipse cx="886" cy="398" fill="#4d3215" rx="8" ry="8"/><ellipse cx="678" cy="410" fill="#493e2b" rx="8" ry="8"/><ellipse cx="690" cy="470" fill="#a6a195" rx="12" ry="12"/><ellipse cx="778" cy="334" fill="#b88a51" rx="8" ry="8"/><ellipse cx="786" cy="298" fill="#1a2223" rx="12" ry="12"/><ellipse cx="654" cy="394" fill="#c4a173" rx="8" ry="8"/><ellipse cx="798" cy="362" fill="#91724d" rx="20" ry="20"/><ellipse cx="754" cy="274" fill="#010a0c" rx="8" ry="8"/><ellipse cx="778" cy="254" fill="#a47f51" rx="8" ry="8"/><ellipse cx="578" cy="478" fill="#705944" rx="8" ry="8"/><ellipse cx="802" cy="130" fill="#abbbbe" rx="68" ry="68"/><ellipse cx="658" cy="678" fill="#6f573b" rx="28" ry="28"/><ellipse cx="670" cy="630" fill="#010606" rx="8" ry="8"/><ellipse cx="842" cy="474" fill="#312f2b" rx="8" ry="8"/><ellipse cx="854" cy="310" fill="#bdc6c4" rx="36" ry="36"/><ellipse cx="830" cy="462" fill="#dbd7c4" rx="12" ry="12"/><ellipse cx="746" cy="554" fill="#000205" rx="8" ry="8"/><ellipse cx="674" cy="450" fill="#cac6b7" rx="12" ry="12"/><ellipse cx="302" cy="186" fill="#c0c8c5" rx="56" ry="56"/><ellipse cx="590" cy="670" fill="#403625" rx="8" ry="8"/><ellipse cx="766" cy="554" fill="#1b1207" rx="8" ry="8"/><ellipse cx="682" cy="526" fill="#5d4d30" rx="12" ry="12"/><ellipse cx="842" cy="514" fill="#797873" rx="12" ry="12"/><ellipse cx="850" cy="606" fill="#7d512a" rx="12" ry="12"/><ellipse cx="854" cy="482" fill="#241a12" rx="4" ry="4"/><ellipse cx="818" cy="490" fill="#a79a8a" rx="12" ry="12"/><ellipse cx="902" cy="666" fill="#20180d" rx="12" ry="12"/><ellipse cx="822" cy="642" fill="#63472a" rx="20" ry="20"/><ellipse cx="642" cy="482" fill="#d3cdbc" rx="8" ry="8"/><ellipse cx="650" cy="542" fill="#786e5b" rx="16" ry="16"/><ellipse cx="898" cy="406" fill="#c9c2b5" rx="8" ry="8"/><ellipse cx="666" cy="462" fill="#dcddcf" rx="8" ry="8"/><ellipse cx="670" cy="558" fill="#141613" rx="8" ry="8"/><ellipse cx="902" cy="534" fill="#2d302b" rx="12" ry="12"/><ellipse cx="606" cy="542" fill="#56554a" rx="12" ry="12"/><ellipse cx="570" cy="490" fill="#d8dcd7" rx="12" ry="12"/><ellipse cx="906" cy="610" fill="#1b1c14" rx="8" ry="8"/><ellipse cx="814" cy="402" fill="#43341b" rx="8" ry="8"/><ellipse cx="750" cy="594" fill="#b69b78" rx="16" ry="16"/><ellipse cx="890" cy="622" fill="#78522c" rx="16" ry="16"/><ellipse cx="686" cy="562" fill="#826341" rx="12" ry="12"/><ellipse cx="750" cy="494" fill="#29241b" rx="8" ry="8"/></g></svg>