<svg xmlns="http://www.w3.org/2000/svg" version="1.1" width="1024" height="680">
<rect x="0" y="0" width="1024" height="680" fill="#9d9fa2" />
<g transform="scale(4.000000) translate(0.5 0.5)">
<polygon fill="#000000" fill-opacity="0.501961" points="270.200351,182.229679,107.675131,185.000000,83.922695,96.387831,211.322251,80.968720" />
<polygon fill="#ffffff" fill-opacity="0.501961" points="267.161842,-11.146198,-16.000000,1.335837,6.724294,185.000000,101.886680,98.010213" />
<polygon fill="#000000" fill-opacity="0.501961" points="244.870810,38.844005,176.026551,22.083967,271.000000,117.464477,252.698962,-16.000000" />
<polygon fill="#000000" fill-opacity="0.501961" points="261.797022,185.000000,230.329562,101.450168,88.188322,119.785717,112.200465,185.000000" />
<polygon fill="#f0ffff" fill-opacity="0.501961" points="72.469405,-16.000000,-16.000000,17.574116,14.830584,185.000000,95.504922,159.975105" />
<polygon fill="#f3ffff" fill-opacity="0.501961" points="-15.975768,74.246169,162.693504,69.959075,246.642363,101.540497,140.491411,-16.000000" />
<polygon fill="#000000" fill-opacity="0.501961" points="241.276332,30.108184,263.432626,-15.369612,271.000000,78.808261,202.125637,65.499728" />
<polygon fill="#d7a776" fill-opacity="0.501961" points="144.170550,126.658075,105.999189,121.173729,203.062451,93.016410,116.856891,88.737087" />
<polygon fill="#250d00" fill-opacity="0.501961" points="115.169875,185.000000,86.591148,121.092761,100.925719,87.580547,271.000000,169.842982" />
<polygon fill="#000400" fill-opacity="0.501961" points="271.000000,73.910134,233.310378,103.473593,270.521705,136.859479,219.422230,27.764864" />
<polygon fill="#e5eeff" fill-opacity="0.501961" points="240.458294,75.385777,37.168204,-16.000000,90.069195,44.596882,245.712450,96.521930" />
<polygon fill="#d9e4fb" fill-opacity="0.501961" points="122.973514,185.000000,95.930653,163.354999,1.427320,185.000000,-16.000000,5.066379" />
<polygon fill="#482000" fill-opacity="0.501961" points="134.149306,92.301398,215.580801,90.565383,175.577889,77.285822,168.410379,67.441329" />
<polygon fill="#dcecff" fill-opacity="0.501961" points="32.488454,3.397631,240.542033,32.916443,253.635197,8.183649,190.389365,-12.261896" />
<polygon fill="#ab8866" fill-opacity="0.501961" points="111.456507,127.867020,131.846895,140.390167,164.492052,67.368469,134.569944,71.703177" />
<polygon fill="#160400" fill-opacity="0.501961" points="220.208173,92.942920,152.442896,103.203446,264.811885,185.000000,227.869209,108.271466" />
<polygon fill="#ccdaf1" fill-opacity="0.501961" points="248.747141,103.241036,271.000000,105.140301,231.256172,110.622272,254.171234,157.704690" />
<polygon fill="#0a0800" fill-opacity="0.501961" points="245.627741,92.122180,177.707533,166.996405,271.000000,81.789636,253.480172,-16.000000" />
<polygon fill="#dde3f4" fill-opacity="0.501961" points="19.186261,79.076083,4.597444,-16.000000,149.422886,114.504172,148.529957,96.674883" />
<polygon fill="#e8eef8" fill-opacity="0.501961" points="164.272734,83.395537,189.752948,47.659441,203.374722,40.362559,203.666668,71.777278" />
<polygon fill="#191c0c" fill-opacity="0.501961" points="183.480697,17.453545,225.614869,76.164657,261.085560,12.308677,262.613521,71.203762" />
<polygon fill="#d9eaff" fill-opacity="0.501961" points="240.608347,92.421649,237.630861,71.645666,191.530854,75.436254,230.358396,99.833114" />
<polygon fill="#e5effc" fill-opacity="0.501961" points="42.030690,94.194993,101.019814,171.419043,86.050279,108.324523,134.146644,37.014413" />
<polygon fill="#1e1a11" fill-opacity="0.501961" points="116.651658,91.381808,136.851281,128.090478,94.905826,99.192375,93.957597,94.046602" />
<polygon fill="#1d0d00" fill-opacity="0.501961" points="190.555530,80.950750,241.257492,120.445614,210.736730,86.941147,160.895236,85.535211" />
<polygon fill="#e1e8f4" fill-opacity="0.501961" points="37.883520,97.788550,118.822772,87.772140,205.311629,5.580531,23.234773,-16.000000" />
<polygon fill="#111207" fill-opacity="0.501961" points="263.483602,69.687091,203.456456,63.832362,214.247250,48.100873,263.329900,41.371443" />
<polygon fill="#000007" fill-opacity="0.501961" points="248.400046,4.804024,271.000000,4.667605,258.134781,-6.707415,224.398757,-10.613579" />
<polygon fill="#c2cddd" fill-opacity="0.501961" points="236.569419,113.565354,255.286183,99.018550,248.088494,121.693927,184.179744,50.668143" />
<polygon fill="#c69d78" fill-opacity="0.501961" points="200.783017,91.778458,149.030403,93.489993,186.909273,96.494097,206.228755,104.223505" />
<polygon fill="#151c1e" fill-opacity="0.501961" points="243.774029,124.521421,271.000000,119.928877,237.595304,80.906006,271.000000,82.135460" />
<polygon fill="#120a02" fill-opacity="0.501961" points="88.306014,112.408242,146.089508,156.019813,116.905650,183.629748,92.586217,139.026427" />
<polygon fill="#c7d8ef" fill-opacity="0.501961" points="253.294011,164.246009,250.127623,154.861642,271.000000,164.978358,235.163410,110.361548" />
<polygon fill="#e2eaf4" fill-opacity="0.501961" points="92.216008,63.182549,171.355195,69.474315,206.244481,44.090306,207.492902,40.530859" />
<polygon fill="#e7eef7" fill-opacity="0.501961" points="100.833414,157.416382,81.432193,112.233690,60.259483,144.041961,110.804491,174.531589" />
<polygon fill="#040501" fill-opacity="0.501961" points="227.293904,127.599333,271.000000,181.352345,218.220427,185.000000,178.143269,115.622272" />
<polygon fill="#634d3b" fill-opacity="0.501961" points="86.062364,110.601657,96.515408,101.330088,126.408392,140.943825,161.351582,110.816516" />
<polygon fill="#876a55" fill-opacity="0.501961" points="145.653141,160.435215,136.018084,163.994411,132.007263,185.000000,160.447692,185.000000" />
<polygon fill="#c1d4f2" fill-opacity="0.501961" points="208.684916,34.033294,192.725439,-1.550294,244.851159,-16.000000,241.439230,23.897814" />
<polygon fill="#cba67c" fill-opacity="0.501961" points="155.857415,108.645492,131.582829,72.595565,118.159277,89.890181,144.448213,109.991941" />
<polygon fill="#654525" fill-opacity="0.501961" points="238.336270,110.297260,194.444471,95.488779,168.940723,95.835534,171.877433,106.537518" />
<polygon fill="#d6deec" fill-opacity="0.501961" points="-16.000000,163.271636,1.193860,-16.000000,87.705565,185.000000,94.982320,185.000000" />
<polygon fill="#1c0f05" fill-opacity="0.501961" points="133.486477,110.384920,149.982806,117.789743,238.410963,115.297797,183.142089,185.000000" />
<polygon fill="#4c3422" fill-opacity="0.501961" points="146.924038,101.174597,174.683057,68.735096,151.692226,80.104755,179.595805,85.222702" />
<polygon fill="#2d3323" fill-opacity="0.501961" points="229.732107,32.961913,219.455466,28.799195,202.066640,52.051989,205.177002,53.235265" />
<polygon fill="#0a0601" fill-opacity="0.501961" points="198.536703,85.393000,190.952400,91.917761,155.761426,87.611879,177.768096,83.888557" />
<polygon fill="#d0dceb" fill-opacity="0.501961" points="235.556703,96.682139,229.093049,106.522174,222.785748,99.208193,248.766344,87.484221" />
<polygon fill="#e9edf4" fill-opacity="0.501961" points="171.353307,79.046903,207.403225,74.180941,177.281316,72.422044,163.872782,76.096076" />
<polygon fill="#95a0a7" fill-opacity="0.501961" points="194.106665,39.159264,195.088118,51.229334,174.512543,23.460189,195.517374,20.268508" />
<polygon fill="#805f44" fill-opacity="0.501961" points="132.494314,128.845839,171.335997,78.794647,127.537228,87.011756,151.256203,99.146254" />
<polygon fill="#576877" fill-opacity="0.501961" points="264.223042,1.868009,240.119666,42.377413,244.420133,12.266569,271.000000,24.793872" />
<polygon fill="#61695b" fill-opacity="0.501961" points="82.887450,165.603845,82.598120,164.367379,102.136675,165.583972,78.317959,173.904366" />
<polygon fill="#1a1d1d" fill-opacity="0.501961" points="271.000000,92.034014,229.301302,111.626769,234.516643,99.493583,270.181447,85.027829" />
<polygon fill="#1d1809" fill-opacity="0.501961" points="105.951406,92.542158,113.249771,110.130649,93.661011,99.617410,95.234432,90.546513" />
<polygon fill="#dfe7f2" fill-opacity="0.501961" points="62.393126,175.726122,-8.663673,27.044040,190.005451,42.557628,94.294337,95.159663" />
<polygon fill="#d4e1f2" fill-opacity="0.501961" points="243.431624,27.262914,170.224551,-16.000000,168.126963,6.201401,240.101051,35.945572" />
<polygon fill="#676f6c" fill-opacity="0.501961" points="226.756492,47.756545,221.420739,24.019640,234.267659,39.294181,208.636642,40.822012" />
<polygon fill="#cfbb9b" fill-opacity="0.501961" points="127.856077,99.244665,129.949884,106.472931,149.156514,96.044681,114.200968,87.318620" />
<polygon fill="#212418" fill-opacity="0.501961" points="197.921873,27.296186,198.302976,45.242474,207.992543,31.856889,199.959315,26.720761" />
<polygon fill="#654e3d" fill-opacity="0.501961" points="147.304724,136.006189,134.788059,140.170542,108.151377,121.405180,108.280750,106.729488" />
<polygon fill="#cfa586" fill-opacity="0.501961" points="157.006279,81.780404,123.850906,85.466476,121.562254,80.868202,158.094729,64.566200" />
<polygon fill="#342012" fill-opacity="0.501961" points="166.255328,69.367825,153.594179,83.848226,175.050909,71.262314,165.108740,71.118141" />
<polygon fill="#090a09" fill-opacity="0.501961" points="249.387666,103.389584,248.244998,70.000483,237.063972,86.041465,268.378203,80.073460" />
<polygon fill="#c2a890" fill-opacity="0.501961" points="177.120773,90.419495,199.953276,96.560980,162.587089,91.938874,149.812268,107.414802" />
<polygon fill="#2f1707" fill-opacity="0.501961" points="129.646091,141.323838,230.089021,105.996517,155.422877,105.762210,167.416217,181.942568" />
<polygon fill="#bfcee2" fill-opacity="0.501961" points="267.659941,185.000000,258.122908,167.638689,271.000000,131.683112,235.904549,118.897879" />
<polygon fill="#c9d9ed" fill-opacity="0.501961" points="236.688405,69.614520,209.210217,83.690449,213.671552,88.462951,242.398957,79.124111" />
<polygon fill="#d5e0ed" fill-opacity="0.501961" points="247.303092,87.834686,167.534566,75.908758,211.662225,68.048526,245.736605,98.641975" />
<polygon fill="#363d39" fill-opacity="0.501961" points="223.716168,65.695574,220.588384,56.997211,208.169848,66.768047,202.509002,60.368434" />
<polygon fill="#e4eef4" fill-opacity="0.501961" points="133.365989,96.119732,118.351407,91.616520,143.867233,46.652928,84.875175,85.747538" />
<polygon fill="#bdcadf" fill-opacity="0.501961" points="26.915284,165.315614,33.743410,185.000000,-16.000000,159.505179,5.059577,131.337066" />
<polygon fill="#eff3f5" fill-opacity="0.501961" points="115.796426,185.000000,111.536971,172.213147,95.450867,151.616267,87.300760,149.649025" />
<polygon fill="#6a6452" fill-opacity="0.501961" points="96.052342,91.643808,138.751315,105.924792,115.490527,102.054326,100.664042,88.709061" />
<polygon fill="#21241b" fill-opacity="0.501961" points="210.347089,38.392873,214.591493,29.457538,232.329877,73.296867,201.784834,50.838882" />
<polygon fill="#1f1409" fill-opacity="0.501961" points="219.382890,107.272277,189.235968,80.396886,202.877414,85.021259,217.136607,92.008233" />
<polygon fill="#3e2818" fill-opacity="0.501961" points="87.577927,113.956473,99.476819,153.045597,105.798761,136.433345,89.751618,105.283501" />
<polygon fill="#876b54" fill-opacity="0.501961" points="103.392668,110.811784,89.011420,109.169356,95.079098,97.012175,96.344018,98.209212" />
<polygon fill="#dee6f2" fill-opacity="0.501961" points="142.585005,-16.000000,236.907472,106.638462,217.473410,90.149308,178.466738,75.021687" />
<polygon fill="#020303" fill-opacity="0.501961" points="131.273153,136.923880,133.934190,185.000000,104.112629,151.200482,104.786048,145.087638" />
<polygon fill="#131408" fill-opacity="0.501961" points="214.642587,52.537673,222.654322,71.815254,234.474652,69.677450,243.489927,42.477378" />
<polygon fill="#d6e0ef" fill-opacity="0.501961" points="244.799857,19.888153,108.517773,18.204230,225.409079,24.845570,230.907189,38.705506" />
<polygon fill="#96735a" fill-opacity="0.501961" points="170.032939,64.424784,145.767965,91.087070,112.911099,93.186637,143.853969,82.580998" />
<polygon fill="#d4dfec" fill-opacity="0.501961" points="193.591772,71.632547,206.925026,35.687727,182.059373,65.267248,229.463249,75.821732" />
<polygon fill="#272b25" fill-opacity="0.501961" points="206.727566,38.204841,201.712199,26.244763,199.032814,36.502288,189.477229,44.003762" />
<polygon fill="#060c10" fill-opacity="0.501961" points="243.043108,35.247781,271.000000,-6.320526,233.158942,-16.000000,271.000000,30.458601" />
<polygon fill="#25170e" fill-opacity="0.501961" points="100.203238,156.554057,113.352840,151.554989,103.070491,99.056583,91.553799,133.398351" />
<polygon fill="#7f6c5b" fill-opacity="0.501961" points="109.575112,115.982732,126.168253,137.008079,121.723095,122.891017,89.737233,95.559415" />
<polygon fill="#030304" fill-opacity="0.501961" points="241.347327,151.331643,230.518897,108.689900,257.513081,172.988890,179.052701,185.000000" />
<polygon fill="#e5eaf2" fill-opacity="0.501961" points="68.829962,-16.000000,85.310374,69.060732,193.660023,29.427470,182.200364,43.602783" />
<polygon fill="#dae5f2" fill-opacity="0.501961" points="204.132185,75.105308,214.357315,63.371722,234.161216,96.957208,143.582045,57.756006" />
<polygon fill="#1f1911" fill-opacity="0.501961" points="161.710147,71.452285,162.638988,78.656694,156.532347,84.302122,155.954614,83.218890" />
<polygon fill="#666d65" fill-opacity="0.501961" points="223.637893,49.719685,210.735522,26.255238,271.000000,51.203325,219.935435,29.196066" />
<polygon fill="#5f635e" fill-opacity="0.501961" points="180.644839,30.723719,185.627330,24.508119,190.599379,23.391498,203.418643,27.697292" />
<polygon fill="#aac0dc" fill-opacity="0.501961" points="168.623042,-15.421534,243.951019,-4.087130,243.308850,34.421261,237.027619,10.898150" />
<polygon fill="#818b92" fill-opacity="0.501961" points="246.702271,123.342940,239.311898,118.597912,252.963030,111.893240,251.385655,116.586072" />
<polygon fill="#060603" fill-opacity="0.501961" points="244.117180,69.830198,268.082006,95.320990,240.310526,102.589830,251.411535,86.749769" />
<polygon fill="#3f372e" fill-opacity="0.501961" points="125.872921,97.120140,128.708670,131.955686,120.233556,98.094103,113.928573,91.400470" />
<polygon fill="#c3a890" fill-opacity="0.501961" points="167.879426,96.871321,157.533722,97.202156,186.303834,92.186396,165.980401,90.453934" />
<polygon fill="#b28a69" fill-opacity="0.501961" points="179.155092,78.041360,129.606065,87.672004,120.744123,86.918925,199.928574,80.950543" />
<polygon fill="#7a8992" fill-opacity="0.501961" points="236.514627,109.994039,227.124594,96.246308,237.992986,99.983511,236.562072,107.303673" />
<polygon fill="#d6e1ee" fill-opacity="0.501961" points="71.691644,185.000000,-8.033377,135.098643,85.752470,108.823507,91.546175,136.383564" />
<polygon fill="#8a867e" fill-opacity="0.501961" points="140.691112,122.846208,130.569441,121.376266,134.324165,109.545470,121.841452,90.583049" />
<polygon fill="#787e77" fill-opacity="0.501961" points="56.776739,185.000000,96.593468,167.903148,74.175548,160.137475,99.160638,185.000000" />
<polygon fill="#dee6f1" fill-opacity="0.501961" points="71.943374,-4.050439,22.667052,-16.000000,11.358532,125.505720,94.434541,101.788075" />
<polygon fill="#cbd9eb" fill-opacity="0.501961" points="232.732946,106.632002,222.195399,100.187052,242.523297,75.706149,224.750774,78.685830" />
<polygon fill="#dfe7f2" fill-opacity="0.501961" points="167.649194,27.341315,186.470180,75.250964,163.059432,78.348401,206.558399,57.837962" />
<polygon fill="#46260e" fill-opacity="0.501961" points="233.556786,120.605398,236.547335,114.827367,228.488243,104.534252,216.026320,111.129658" />
<polygon fill="#c6cfdb" fill-opacity="0.501961" points="235.062932,122.806287,237.722878,112.088776,236.003956,110.141429,251.017061,110.257298" />
<polygon fill="#0c0d0b" fill-opacity="0.501961" points="256.997254,116.734638,252.230889,126.376016,253.602462,110.818634,271.000000,76.804611" />
<polygon fill="#d1dcec" fill-opacity="0.501961" points="189.608662,11.277236,218.727430,31.294828,252.054381,4.496678,147.486534,34.374997" />
<polygon fill="#a58567" fill-opacity="0.501961" points="195.957077,89.390615,188.247123,98.314692,208.789315,97.182101,207.178493,97.660634" />
<polygon fill="#5c422b" fill-opacity="0.501961" points="161.145832,97.908303,207.290409,104.774226,184.918814,96.060486,190.807339,116.804096" />
<polygon fill="#593717" fill-opacity="0.501961" points="139.057851,110.734755,133.683790,108.430511,142.873214,119.861180,164.254015,109.029638" />
<polygon fill="#120e0a" fill-opacity="0.501961" points="103.171448,89.371441,117.083716,111.747358,95.565263,100.737385,102.453418,94.221483" />
<polygon fill="#342416" fill-opacity="0.501961" points="186.049707,135.800917,193.719277,157.625876,223.637041,148.822649,206.786044,162.424048" />
<polygon fill="#140f0c" fill-opacity="0.501961" points="209.974991,87.257241,215.595032,93.417580,224.543517,108.617768,191.615986,82.715521" />
<polygon fill="#8493a7" fill-opacity="0.501961" points="242.464568,21.964969,251.297485,18.894129,239.588203,12.293525,249.289183,29.392387" />
<polygon fill="#2d1f13" fill-opacity="0.501961" points="172.996551,89.607089,154.781250,93.938588,185.892981,78.991036,180.426187,88.675290" />
<polygon fill="#6d746f" fill-opacity="0.501961" points="95.816297,163.825211,83.384882,185.000000,86.862319,162.724672,115.991077,185.000000" />
<polygon fill="#1b140e" fill-opacity="0.501961" points="163.245442,79.057465,166.944106,78.428861,160.940258,73.731947,156.857536,83.562483" />
<polygon fill="#ced5e8" fill-opacity="0.501961" points="63.004795,-16.000000,6.721941,25.127156,-13.502260,185.000000,-6.841573,-9.319470" />
<polygon fill="#e1e7f1" fill-opacity="0.501961" points="202.961075,63.227132,103.185475,-16.000000,196.152850,83.874124,211.745609,86.255582" />
<polygon fill="#c5a87c" fill-opacity="0.501961" points="133.175702,97.825185,127.480636,96.953238,138.720277,108.674820,156.200654,110.946087" />
<polygon fill="#130a04" fill-opacity="0.501961" points="184.027772,178.961705,203.530057,185.000000,178.957334,137.026957,147.937619,117.587614" />
<polygon fill="#6d5239" fill-opacity="0.501961" points="221.933723,98.778056,146.675854,99.588481,151.466861,82.435311,156.628244,104.743947" />
<polygon fill="#cad5e5" fill-opacity="0.501961" points="212.793028,68.111686,227.988671,100.272782,216.832572,95.777488,225.201362,100.667234" />
<polygon fill="#33362a" fill-opacity="0.501961" points="223.427533,30.364209,200.014276,53.541196,229.479367,31.583289,228.488760,49.359910" />
<polygon fill="#586064" fill-opacity="0.501961" points="207.073950,51.043720,209.096770,47.098396,212.001228,66.600912,210.475695,69.443830" />
<polygon fill="#454c2e" fill-opacity="0.501961" points="224.542838,44.414595,234.467981,34.314736,267.151252,48.689977,265.107373,32.100447" />
<polygon fill="#141305" fill-opacity="0.501961" points="214.112394,46.163348,203.660638,51.578484,210.945460,35.668342,215.105608,48.411616" />
<polygon fill="#2e1d0f" fill-opacity="0.501961" points="150.456320,110.263484,189.921784,102.479297,176.631614,117.441042,198.862579,153.939542" />
<polygon fill="#060404" fill-opacity="0.501961" points="248.382833,20.589608,271.000000,25.207623,240.794805,70.073293,271.000000,69.022154" />
<polygon fill="#e2eaf2" fill-opacity="0.501961" points="207.683171,54.712521,165.201781,69.737492,205.881868,71.372000,126.778296,64.505349" />
<polygon fill="#14100b" fill-opacity="0.501961" points="234.795025,117.714069,197.967692,117.300695,161.084568,101.435539,246.343442,176.856002" />
<polygon fill="#151f24" fill-opacity="0.501961" points="264.934296,-12.993662,248.286803,15.873569,270.549933,25.154642,229.202336,-16.000000" />
<polygon fill="#816651" fill-opacity="0.501961" points="101.524657,105.256148,90.982832,103.215564,89.587859,112.510269,93.984021,112.627186" />
<polygon fill="#d0ba98" fill-opacity="0.501961" points="121.267258,94.973324,145.613808,92.970922,145.540251,102.042040,154.344967,109.919175" />
<polygon fill="#c1cad8" fill-opacity="0.501961" points="237.583458,121.081700,255.231423,127.306837,248.612780,140.612843,237.387757,125.876841" />
<polygon fill="#e1e3e7" fill-opacity="0.501961" points="178.217417,73.568410,165.847329,74.669439,170.029955,79.637523,204.195069,68.493687" />
<polygon fill="#806e60" fill-opacity="0.501961" points="139.703531,165.324465,144.942054,163.996929,139.641276,185.000000,137.934884,166.982383" />
<polygon fill="#6b5342" fill-opacity="0.501961" points="110.726118,126.780265,106.649598,118.260591,124.254755,134.615058,138.934086,139.347400" />
<polygon fill="#6c7577" fill-opacity="0.501961" points="191.056898,41.940677,192.292436,45.646536,198.406158,34.142576,188.280910,33.692494" />
<polygon fill="#e1eaf3" fill-opacity="0.501961" points="196.956935,36.472569,98.499970,56.458898,62.743393,108.899465,170.628447,53.986885" />
<polygon fill="#391b0d" fill-opacity="0.501961" points="139.318150,127.642822,128.666578,129.803656,158.451794,151.243589,129.729975,168.641598" />
<polygon fill="#e4ecf4" fill-opacity="0.501961" points="86.717756,102.865684,91.647938,155.574726,103.020804,162.917549,79.493797,111.518803" />
<polygon fill="#242518" fill-opacity="0.501961" points="200.923488,44.248553,204.214424,29.912045,196.178475,29.013684,196.856774,36.251442" />
<polygon fill="#12130a" fill-opacity="0.501961" points="237.310053,74.630445,259.110186,67.669337,246.232283,110.867933,254.505387,41.016237" />
<polygon fill="#d2dfef" fill-opacity="0.501961" points="224.706609,101.186111,215.051254,62.865522,196.055841,79.762290,241.029522,93.842504" />
<polygon fill="#987f65" fill-opacity="0.501961" points="172.528730,93.635189,155.803349,106.597227,151.879118,95.972469,144.050551,107.696290" />
<polygon fill="#0d0c08" fill-opacity="0.501961" points="108.401875,93.268950,121.472892,96.673931,119.304716,93.779758,116.200799,92.819586" />
<polygon fill="#98a5ba" fill-opacity="0.501961" points="241.784847,107.746307,237.340939,110.668432,248.281921,112.086861,258.535106,99.500275" />
<polygon fill="#11110b" fill-opacity="0.501961" points="209.773763,60.465940,237.011452,36.242360,246.951302,93.039286,249.057600,54.795070" />
<polygon fill="#030203" fill-opacity="0.501961" points="256.518278,159.501218,220.290919,157.458614,199.992148,162.875018,271.000000,180.912291" />
<polygon fill="#e0e7f1" fill-opacity="0.501961" points="187.201207,65.402920,156.579107,-16.000000,158.384077,70.156766,207.566137,38.918478" />
<polygon fill="#a8886c" fill-opacity="0.501961" points="150.113347,87.924172,160.034559,66.104862,147.908668,70.618298,154.583347,69.339560" />
<polygon fill="#b7cbe7" fill-opacity="0.501961" points="220.068393,14.242845,213.119685,0.521419,251.159972,4.460983,247.735459,14.827507" />
<polygon fill="#a1a8ac" fill-opacity="0.501961" points="193.575004,22.205608,226.051828,38.181954,168.025826,14.308622,190.695183,26.205599" />
<polygon fill="#e8ebf2" fill-opacity="0.501961" points="185.297736,23.409766,185.715319,19.404828,60.358666,-16.000000,67.126236,17.430886" />
<polygon fill="#412a1b" fill-opacity="0.501961" points="156.812092,79.203464,175.127538,71.065809,165.391526,69.931813,163.432818,79.058175" />
<polygon fill="#616d72" fill-opacity="0.501961" points="239.996979,85.684957,253.207212,92.615607,237.658949,82.071471,235.576322,87.709301" />
<polygon fill="#34352b" fill-opacity="0.501961" points="207.237308,38.271079,202.663495,35.599361,192.383933,27.128572,193.104028,23.092689" />
<polygon fill="#e1e9f2" fill-opacity="0.501961" points="86.310258,113.183404,91.150042,166.201208,96.008628,165.297537,73.336991,152.771242" />
<polygon fill="#dbe5f0" fill-opacity="0.501961" points="73.756709,185.000000,78.940627,100.283205,99.939395,98.738628,37.342393,92.876835" />
<polygon fill="#0c0d0b" fill-opacity="0.501961" points="247.235008,104.088088,232.247405,99.965275,252.742857,97.694477,259.761625,59.189759" />
<polygon fill="#d0b097" fill-opacity="0.501961" points="141.287369,69.195018,138.394257,75.660617,153.356553,79.369642,120.459344,85.173073" />
<polygon fill="#e0e9f2" fill-opacity="0.501961" points="108.651906,56.352819,53.028930,21.792386,124.278957,94.805490,39.165713,57.432244" />
<polygon fill="#593e24" fill-opacity="0.501961" points="213.644318,99.034307,177.820621,79.899252,203.071717,94.360107,201.615059,110.695337" />
<polygon fill="#20230e" fill-opacity="0.501961" points="216.717323,65.028644,230.643175,72.846730,237.146342,40.082464,260.790107,43.861923" />
<polygon fill="#110b06" fill-opacity="0.501961" points="192.663236,92.221261,195.819764,89.071502,177.123849,83.649354,172.327522,89.125076" />
<polygon fill="#0f0b08" fill-opacity="0.501961" points="101.075189,158.332316,108.043352,112.436266,103.971744,113.927580,135.556739,171.109191" />
<polygon fill="#14100c" fill-opacity="0.501961" points="243.947958,136.038849,212.374788,88.561159,241.743765,149.354178,250.529571,160.636414" />
<polygon fill="#503d2d" fill-opacity="0.501961" points="121.464056,117.702907,143.283744,146.566055,129.686076,108.852783,99.537990,107.228187" />
<polygon fill="#c0a48c" fill-opacity="0.501961" points="197.611332,91.220602,163.461573,96.614922,173.651160,90.378923,194.853791,94.801808" />
<polygon fill="#7d5c42" fill-opacity="0.501961" points="175.255411,84.515805,183.229149,79.255271,145.954004,90.467061,116.546030,90.594271" />
<polygon fill="#987d5d" fill-opacity="0.501961" points="147.923722,117.133517,155.273917,118.716121,119.339822,92.106138,149.828979,116.099542" />
<polygon fill="#34291d" fill-opacity="0.501961" points="120.167216,168.392296,123.278279,185.000000,98.397256,141.424159,104.309458,158.605398" />
<polygon fill="#cbd9ec" fill-opacity="0.501961" points="238.608655,-16.000000,176.094033,-16.000000,213.243446,33.712105,207.246598,33.016981" />
<polygon fill="#33351e" fill-opacity="0.501961" points="243.781492,79.546699,238.211688,88.567656,262.012192,59.388129,259.468978,73.862586" />
<polygon fill="#a7b1ba" fill-opacity="0.501961" points="181.878367,-2.359967,224.365634,41.473658,221.151716,47.451349,219.851597,36.610621" />
<polygon fill="#462d19" fill-opacity="0.501961" points="199.806731,177.788500,200.066549,185.000000,194.200116,142.384866,191.634413,148.984516" />
<polygon fill="#a7b8cb" fill-opacity="0.501961" points="249.588375,132.973177,248.144693,150.268427,271.000000,165.412369,250.764523,156.468590" />
<polygon fill="#6e5c33" fill-opacity="0.501961" points="97.160514,91.855319,98.409772,89.033569,95.080315,93.570687,110.999829,95.749209" />
<polygon fill="#404535" fill-opacity="0.501961" points="214.665846,50.737248,214.617550,29.973251,217.688280,36.628553,225.836706,31.163616" />
<polygon fill="#e5ecf3" fill-opacity="0.501961" points="106.063078,90.237411,110.384681,59.101326,85.836530,112.713477,74.482215,87.031214" />
<polygon fill="#d3deec" fill-opacity="0.501961" points="26.959463,169.862131,9.763282,148.696114,-6.291915,104.503641,72.977719,142.405519" />
<polygon fill="#412d1e" fill-opacity="0.501961" points="101.590519,149.897510,90.786634,109.483290,88.959833,120.538957,89.987937,128.173114" />
<polygon fill="#b7c3d9" fill-opacity="0.501961" points="9.364447,162.661988,35.923875,178.203319,1.246680,185.000000,-13.457448,139.570342" />
<polygon fill="#74604f" fill-opacity="0.501961" points="132.616755,95.872118,135.102290,110.307898,130.894930,136.795845,129.112328,136.543217" />
<polygon fill="#090a09" fill-opacity="0.501961" points="113.942858,103.044050,104.879652,95.510596,98.807474,96.230240,95.077930,102.319727" />
<polygon fill="#d4e0f0" fill-opacity="0.501961" points="217.216688,92.545722,242.551115,76.682942,189.220170,70.168810,192.442776,44.947737" />
<polygon fill="#42352e" fill-opacity="0.501961" points="103.066524,111.118909,117.286168,128.742521,134.368746,127.084942,124.040950,130.564464" />
<polygon fill="#ab8c72" fill-opacity="0.501961" points="161.818801,74.128960,150.106448,72.168921,171.595426,68.699851,171.068023,67.276007" />
<polygon fill="#c0ccdb" fill-opacity="0.501961" points="271.000000,89.403755,237.312064,120.332438,251.403907,103.709458,271.000000,100.204489" />
<polygon fill="#452713" fill-opacity="0.501961" points="223.419941,105.371392,226.572896,103.824818,237.121627,114.412538,229.249864,120.361877" />
<polygon fill="#dce5f1" fill-opacity="0.501961" points="225.044135,28.911689,217.210033,16.013195,158.093441,24.902307,155.704024,7.899017" />
<polygon fill="#818d95" fill-opacity="0.501961" points="220.007799,68.604593,208.910315,63.496193,220.434919,65.043404,201.058615,57.415091" />
<polygon fill="#221209" fill-opacity="0.501961" points="113.346918,136.486920,176.224503,142.904803,135.706333,144.855664,179.486859,185.000000" />
<polygon fill="#36251c" fill-opacity="0.501961" points="222.819995,97.892948,218.167911,91.932346,200.996676,93.354780,206.148311,88.199359" />
<polygon fill="#577387" fill-opacity="0.501961" points="252.878709,7.843287,226.954582,-6.110155,247.677638,2.121662,244.273241,-0.723708" />
<polygon fill="#6f553d" fill-opacity="0.501961" points="204.358430,109.956006,199.339653,97.823335,180.151051,98.333782,195.584328,102.525859" />
<polygon fill="#3e2818" fill-opacity="0.501961" points="150.925021,115.436441,136.232607,146.395224,143.656783,119.714641,131.972554,112.607191" />
<polygon fill="#060503" fill-opacity="0.501961" points="227.689092,106.042553,213.709082,93.390928,190.601163,84.045812,214.330175,96.813400" />
<polygon fill="#161810" fill-opacity="0.501961" points="208.268041,58.371413,244.829562,61.442471,224.476035,72.870554,219.226145,52.006939" />
<polygon fill="#5b6369" fill-opacity="0.501961" points="246.008277,95.876651,236.582272,97.710689,242.244142,99.574150,238.920954,96.142903" />
<polygon fill="#5e5f54" fill-opacity="0.501961" points="86.956801,161.459277,104.986798,185.000000,120.048421,167.378357,91.020991,185.000000" />
<polygon fill="#9e896b" fill-opacity="0.501961" points="153.633723,94.020521,146.529142,107.522150,145.729966,90.247850,153.537983,112.706367" />
<polygon fill="#433125" fill-opacity="0.501961" points="142.813807,185.000000,147.381964,160.941102,163.387463,185.000000,171.698327,161.986749" />
<polygon fill="#dcc7a8" fill-opacity="0.501961" points="137.267887,97.883966,134.406272,89.642614,129.094538,98.763803,125.023736,93.464970" />
<polygon fill="#7b868a" fill-opacity="0.501961" points="207.102221,55.108120,199.693391,49.812477,202.616357,55.609956,214.952980,50.321941" />
<polygon fill="#c4d2e7" fill-opacity="0.501961" points="254.057878,148.392134,245.154892,135.519918,249.325034,151.558598,267.007915,112.570836" />
<polygon fill="#323633" fill-opacity="0.501961" points="271.000000,91.295164,192.413663,38.309074,201.863141,30.024740,188.586452,35.175618" />
<polygon fill="#e1e8f2" fill-opacity="0.501961" points="124.132462,72.169777,132.568827,-16.000000,189.195074,44.917861,209.533954,58.032530" />
<polygon fill="#15110d" fill-opacity="0.501961" points="211.468117,108.326785,189.434322,116.619842,197.061052,158.797910,206.162491,152.406676" />
<polygon fill="#5d5a55" fill-opacity="0.501961" points="120.092794,101.749566,125.351093,101.234412,108.336251,96.194262,132.476964,110.324144" />
<polygon fill="#c1ccd9" fill-opacity="0.501961" points="254.742654,111.817593,242.427166,116.376350,237.288496,119.135639,240.064479,112.015550" />
<polygon fill="#303328" fill-opacity="0.501961" points="231.555686,45.834499,218.389020,36.337546,225.604913,30.454801,238.669160,64.282107" />
<polygon fill="#596061" fill-opacity="0.501961" points="209.905906,35.743446,190.506134,45.011050,197.170807,29.164015,189.943399,44.127287" />
<polygon fill="#372515" fill-opacity="0.501961" points="197.514758,105.250444,156.800225,103.239321,160.705195,109.845904,196.170271,108.609448" />
<polygon fill="#0e0d0b" fill-opacity="0.501961" points="243.450694,54.493388,258.163142,106.121981,251.604074,110.621502,271.000000,155.080922" />
<polygon fill="#3d4654" fill-opacity="0.501961" points="254.776975,96.000951,246.093755,110.094577,244.470049,102.297933,239.733813,109.516608" />
<polygon fill="#322019" fill-opacity="0.501961" points="220.732891,95.159169,200.610925,85.324470,222.146324,95.038433,222.012019,99.043801" />
<polygon fill="#919ba1" fill-opacity="0.501961" points="191.010099,29.813373,199.812883,37.888900,193.043849,34.813035,175.712455,31.562214" />
<polygon fill="#bdb0a5" fill-opacity="0.501961" points="190.897682,83.477238,200.193313,81.059650,189.662556,81.383492,207.573561,83.019396" />
<polygon fill="#050809" fill-opacity="0.501961" points="245.360966,2.956741,243.717837,-10.786362,271.000000,26.068545,268.381641,-16.000000" />
<polygon fill="#18120c" fill-opacity="0.501961" points="157.469387,78.443554,158.383322,76.452026,166.917389,71.105686,165.397133,75.119809" />
<polygon fill="#23282b" fill-opacity="0.501961" points="226.234181,53.411727,208.420094,66.905942,206.435978,65.472276,230.138945,51.454541" />
<polygon fill="#879195" fill-opacity="0.501961" points="231.141764,41.011732,224.400648,23.847176,229.551768,35.822782,236.522171,33.015491" />
<polygon fill="#e6ebf2" fill-opacity="0.501961" points="90.243958,161.221648,77.698185,158.173951,91.921608,142.209595,107.396127,170.080997" />
<polygon fill="#2d160a" fill-opacity="0.501961" points="207.786648,153.326935,186.004623,173.242985,219.391961,181.824179,200.633048,151.117573" />
<polygon fill="#2a2d24" fill-opacity="0.501961" points="214.991165,56.381798,207.809130,30.806151,216.415608,49.355776,202.507736,63.678891" />
<polygon fill="#17170d" fill-opacity="0.501961" points="198.150634,39.208090,199.901528,29.199859,209.246437,35.154016,207.570897,32.484789" />
<polygon fill="#cbb79c" fill-opacity="0.501961" points="131.762124,108.798484,125.375356,92.812010,142.707018,96.506447,130.645583,95.047966" />
<polygon fill="#637382" fill-opacity="0.501961" points="236.683575,67.817227,240.835036,68.586746,219.153245,73.963632,229.016442,72.801202" />
<polygon fill="#93a0b4" fill-opacity="0.501961" points="231.053350,21.409003,247.413511,20.305353,238.250118,11.648794,253.842238,20.149787" />
<polygon fill="#1a120b" fill-opacity="0.501961" points="113.306542,122.126993,113.515276,150.739219,98.555690,145.220365,117.403838,120.848392" />
<polygon fill="#837163" fill-opacity="0.501961" points="122.647886,127.824151,121.969950,135.548939,116.800541,117.380332,113.979970,118.852537" />
<polygon fill="#543823" fill-opacity="0.501961" points="168.963572,86.212818,184.453500,82.060273,149.938848,94.410917,165.113313,82.675640" />
<polygon fill="#73543a" fill-opacity="0.501961" points="100.450765,106.947581,116.387215,114.362966,138.740856,142.762035,134.752752,135.078121" />
<polygon fill="#525e56" fill-opacity="0.501961" points="240.202122,32.230102,238.158014,39.437550,243.932089,41.587987,246.827386,37.536632" />
<polygon fill="#372d23" fill-opacity="0.501961" points="114.206520,110.598661,122.072877,114.116140,123.376600,97.924895,127.039713,101.822376" />
<polygon fill="#adbece" fill-opacity="0.501961" points="242.301609,73.765030,236.582821,91.692107,230.368076,71.988077,234.409338,84.055798" />
<polygon fill="#160f0a" fill-opacity="0.501961" points="187.003922,85.468381,163.386218,91.160694,174.839059,90.119707,188.843083,91.776911" />
<polygon fill="#dce6f1" fill-opacity="0.501961" points="199.386347,82.263886,208.064570,84.499820,196.130347,40.680487,183.231805,76.726267" />
<polygon fill="#e4edf3" fill-opacity="0.501961" points="107.759233,92.010441,94.540343,83.388191,118.759247,91.280759,134.203163,56.513323" />
<polygon fill="#251006" fill-opacity="0.501961" points="157.724529,158.267379,140.369459,129.312346,181.932751,154.862273,145.419177,177.423697" />
<polygon fill="#c4ced5" fill-opacity="0.501961" points="87.208966,165.940019,66.301896,159.003180,82.253765,170.696003,72.701128,154.294408" />
<polygon fill="#484d4f" fill-opacity="0.501961" points="226.601221,46.650751,222.220561,49.368663,212.936107,41.670654,216.955404,40.212637" />
<polygon fill="#99a6b2" fill-opacity="0.501961" points="207.031510,51.887236,208.951458,58.773493,217.366865,71.267328,204.787565,56.117809" />
<polygon fill="#111109" fill-opacity="0.501961" points="208.040556,57.464892,247.387241,67.928903,235.606213,51.767674,259.213228,38.171587" />
<polygon fill="#ba9e84" fill-opacity="0.501961" points="150.772091,111.740992,158.288433,93.902899,178.112237,94.575443,161.481849,93.796259" />
<polygon fill="#424538" fill-opacity="0.501961" points="180.344818,27.751025,193.605492,25.911901,258.638254,54.292890,199.966792,28.713124" />
<polygon fill="#86919f" fill-opacity="0.501961" points="245.505354,105.985500,241.887224,110.699897,245.201126,102.855697,246.088616,117.761694" />
<polygon fill="#626c80" fill-opacity="0.501961" points="251.630562,126.947761,269.607706,115.643037,269.928242,112.745562,271.000000,94.678284" />
<polygon fill="#1a0c04" fill-opacity="0.501961" points="166.970237,79.349613,161.269845,79.770217,170.165473,70.368041,161.520951,76.279353" />
<polygon fill="#7a634a" fill-opacity="0.501961" points="147.299331,111.514076,154.918552,114.764693,145.650928,115.545016,154.798929,86.652651" />
<polygon fill="#ba9c80" fill-opacity="0.501961" points="195.688605,95.276292,200.654402,96.857032,196.609035,90.724193,192.746490,91.146210" />
<polygon fill="#3b2618" fill-opacity="0.501961" points="109.437682,128.622872,124.159105,135.406260,125.418088,140.736461,120.679207,138.446701" />
<polygon fill="#bdcad9" fill-opacity="0.501961" points="248.889316,-16.000000,191.382656,20.234187,192.598955,29.092508,188.252928,22.222051" />
<polygon fill="#8f8a84" fill-opacity="0.501961" points="135.712454,116.442517,138.881430,125.764955,138.265077,116.561926,138.604774,117.747642" />
<polygon fill="#7d726f" fill-opacity="0.501961" points="216.119788,95.954909,223.811292,100.852887,211.414718,84.936023,217.966590,92.703457" />
<polygon fill="#4a3523" fill-opacity="0.501961" points="184.429459,94.922792,176.920014,106.763739,181.236319,112.785999,189.344135,113.953985" />
<polygon fill="#a98568" fill-opacity="0.501961" points="118.587798,89.173629,156.726070,84.716796,157.709791,71.593894,132.126665,88.767538" />
<polygon fill="#dfe7f1" fill-opacity="0.501961" points="174.351345,29.441805,191.575701,38.824526,159.515669,70.662725,152.742964,19.476696" />
<polygon fill="#313426" fill-opacity="0.501961" points="226.921845,61.965531,225.598235,72.264875,212.410289,60.289058,222.953344,61.536045" />
<polygon fill="#080807" fill-opacity="0.501961" points="246.214804,104.988966,244.865397,102.059980,267.950792,43.863767,262.555352,89.800396" />
<polygon fill="#565e60" fill-opacity="0.501961" points="231.581774,100.531535,251.809297,91.460527,234.403695,103.159108,234.531518,104.243575" />
<polygon fill="#cbd6e3" fill-opacity="0.501961" points="236.751000,122.036185,245.375907,135.154912,242.863825,123.973981,238.149187,108.740172" />
<polygon fill="#221309" fill-opacity="0.501961" points="100.801238,110.767768,100.092803,122.477366,102.549294,141.973067,109.501788,116.277619" />
<polygon fill="#cddaec" fill-opacity="0.501961" points="160.675923,46.901122,213.506518,-10.089414,218.683094,34.569154,200.916286,0.702388" />
<polygon fill="#d1dded" fill-opacity="0.501961" points="234.649628,75.997991,225.009080,101.704454,231.372556,106.929239,209.317633,78.239593" />
<polygon fill="#a6876e" fill-opacity="0.501961" points="161.901682,74.162453,145.191688,71.857782,168.504431,68.356972,150.558884,78.735468" />
<polygon fill="#c4cdde" fill-opacity="0.501961" points="20.187533,-16.000000,11.310811,-1.873028,0.257645,25.985683,-16.000000,-11.282345" />
<polygon fill="#2c2e17" fill-opacity="0.501961" points="235.319957,33.627089,221.456088,54.944670,238.148160,36.900520,244.082715,53.413992" />
<polygon fill="#c6d6ed" fill-opacity="0.501961" points="243.027565,18.689958,180.782954,-16.000000,229.971877,25.137909,244.615472,23.566681" />
<polygon fill="#b3bdc4" fill-opacity="0.501961" points="97.050004,167.876426,56.427867,185.000000,101.725296,167.950666,97.395854,162.321110" />
<polygon fill="#281d12" fill-opacity="0.501961" points="228.623373,111.642869,220.228867,122.961391,200.314986,103.389200,212.836192,105.990858" />
<polygon fill="#a07d5b" fill-opacity="0.501961" points="164.891900,80.283090,166.347359,78.524043,186.961197,78.982783,186.567852,83.315614" />
<polygon fill="#e3e9ef" fill-opacity="0.501961" points="185.054333,75.925992,140.301504,49.534114,177.335275,65.470393,172.684077,80.537189" />
<polygon fill="#b08c6b" fill-opacity="0.501961" points="160.976252,80.315220,178.308146,77.883920,184.892403,78.408924,168.426065,83.279782" />
<polygon fill="#1b160f" fill-opacity="0.501961" points="176.675260,81.843690,199.391534,85.614985,173.429049,88.741552,183.280285,90.645524" />
<polygon fill="#e4ecf4" fill-opacity="0.501961" points="82.319098,115.012732,85.267703,91.185434,89.247875,75.874066,93.450227,100.201151" />
<polygon fill="#919da4" fill-opacity="0.501961" points="213.450724,71.030095,198.914295,59.113726,208.125328,60.069595,203.731766,61.500200" />
<polygon fill="#8e735e" fill-opacity="0.501961" points="101.162073,104.666818,92.949542,101.543838,88.044929,109.676625,98.406512,107.829087" />
<polygon fill="#38190a" fill-opacity="0.501961" points="136.892792,137.013851,133.130071,185.000000,139.724156,154.492358,170.323639,162.816588" />
<polygon fill="#85654c" fill-opacity="0.501961" points="122.611227,92.572878,144.619476,84.020833,159.913317,94.122570,124.276570,88.354320" />
<polygon fill="#565c52" fill-opacity="0.501961" points="86.808714,167.139741,113.171143,185.000000,55.259283,185.000000,97.226039,166.571452" />
<polygon fill="#dfe7f1" fill-opacity="0.501961" points="197.503293,51.679538,203.199811,60.780666,132.950469,70.428076,199.697920,42.777315" />
<polygon fill="#5a493e" fill-opacity="0.501961" points="143.955538,122.980308,129.804801,137.242296,141.181675,138.959776,121.282253,122.674219" />
<polygon fill="#3e2d1e" fill-opacity="0.501961" points="192.170426,105.561023,201.220742,117.790289,207.421597,122.370772,168.300774,96.787333" />
<polygon fill="#38281a" fill-opacity="0.501961" points="177.363280,85.450889,158.352047,95.453953,167.426417,84.145263,203.913921,89.058993" />
<polygon fill="#6c5037" fill-opacity="0.501961" points="207.730994,86.232928,184.366734,79.357077,149.971100,93.125318,184.566550,80.493322" />
<polygon fill="#58412c" fill-opacity="0.501961" points="150.612757,100.866510,158.199621,91.963468,153.661787,102.916046,179.058570,114.985427" />
<polygon fill="#73808d" fill-opacity="0.501961" points="239.282132,6.827579,249.306890,27.001595,234.489482,37.467035,248.108669,26.429093" />
<polygon fill="#475355" fill-opacity="0.501961" points="239.140148,69.249645,237.299042,74.587748,235.865236,67.501896,237.234579,64.490188" />
<polygon fill="#0e0b07" fill-opacity="0.501961" points="200.161092,86.838789,217.472556,95.608784,222.238142,103.352808,214.548656,100.479670" />
<polygon fill="#130f09" fill-opacity="0.501961" points="210.142763,117.192160,234.673477,116.534231,238.290603,155.053903,185.868087,97.481435" />
<polygon fill="#121310" fill-opacity="0.501961" points="92.481888,95.656659,110.132234,95.057757,109.961766,96.546554,112.352402,105.015735" />
<polygon fill="#553c25" fill-opacity="0.501961" points="113.004953,111.066433,129.735410,113.839601,98.865740,107.370093,88.443324,112.792412" />
<polygon fill="#191a13" fill-opacity="0.501961" points="229.213889,69.495729,211.828435,41.414446,201.019269,54.483230,212.269105,46.212873" />
<polygon fill="#d6e1ef" fill-opacity="0.501961" points="243.156287,90.386505,233.223060,100.254537,217.990434,91.728026,185.448193,67.379403" />
</g>
</svg>