<svg xmlns="http://www.w3.org/2000/svg" version="1.1" width="1024" height="680">
<rect x="0" y="0" width="1024" height="680" fill="#85c3fc" />
<g transform="scale(4.000000) translate(0.5 0.5)">
<polygon fill="#ad4200" fill-opacity="0.501961" points="253,185 148,-16 85,175" />
<polygon fill="#864b01" fill-opacity="0.501961" points="104,45 183,24 202,151" />
<polygon fill="#2894d6" fill-opacity="0.501961" points="271,-1 253,185 147,-16" />
<polygon fill="#ffff8e" fill-opacity="0.501961" points="251,184 176,132 96,164" />
<polygon fill="#000000" fill-opacity="0.501961" points="166,136 89,162 126,137" />
<polygon fill="#63ace4" fill-opacity="0.501961" points="136,84 74,-16 72,184" />
<polygon fill="#000000" fill-opacity="0.501961" points="182,134 244,167 217,140" />
<polygon fill="#62b3f2" fill-opacity="0.501961" points="161,0 -1,-16 -16,185" />
<polygon fill="#78bbf6" fill-opacity="0.501961" points="182,90 228,26 232,142" />
<polygon fill="#886667" fill-opacity="0.501961" points="75,144 98,105 21,168" />
<polygon fill="#9a611f" fill-opacity="0.501961" points="138,142 193,45 123,31" />
<polygon fill="#ffffb4" fill-opacity="0.501961" points="96,150 128,129 157,130" />
<polygon fill="#ffff31" fill-opacity="0.501961" points="180,50 165,38 128,52" />
<polygon fill="#7b674c" fill-opacity="0.501961" points="260,150 228,120 146,122" />
<polygon fill="#dbbe8f" fill-opacity="0.501961" points="160,74 137,86 179,121" />
<polygon fill="#370000" fill-opacity="0.501961" points="126,45 115,68 132,80" />
<polygon fill="#000000" fill-opacity="0.501961" points="147,31 126,43 176,37" />
<polygon fill="#3db6ff" fill-opacity="0.501961" points="271,3 189,37 105,-16" />
<polygon fill="#901c00" fill-opacity="0.501961" points="188,168 179,155 161,172" />
<polygon fill="#725325" fill-opacity="0.501961" points="160,126 107,131 157,77" />
<polygon fill="#fffffe" fill-opacity="0.501961" points="91,178 115,152 155,144" />
<polygon fill="#000000" fill-opacity="0.501961" points="129,160 74,185 106,185" />
<polygon fill="#020000" fill-opacity="0.501961" points="51,185 79,184 113,151" />
<polygon fill="#442414" fill-opacity="0.501961" points="184,49 142,56 172,87" />
<polygon fill="#0289d9" fill-opacity="0.501961" points="271,-16 255,58 209,-15" />
<polygon fill="#ff0003" fill-opacity="0.501961" points="42,102 31,96 42,94" />
<polygon fill="#6fccff" fill-opacity="0.501961" points="130,87 99,143 57,154" />
<polygon fill="#ffa22f" fill-opacity="0.501961" points="70,142 91,161 96,154" />
<polygon fill="#000000" fill-opacity="0.501961" points="98,157 125,139 150,140" />
<polygon fill="#ffce81" fill-opacity="0.501961" points="222,157 167,133 118,173" />
<polygon fill="#fff89b" fill-opacity="0.501961" points="179,132 185,125 205,135" />
<polygon fill="#3191e2" fill-opacity="0.501961" points="-10,53 60,-16 -16,-1" />
<polygon fill="#71a9e6" fill-opacity="0.501961" points="191,93 236,152 194,30" />
<polygon fill="#da4600" fill-opacity="0.501961" points="195,69 175,94 183,53" />
<polygon fill="#000000" fill-opacity="0.501961" points="142,110 124,121 160,112" />
<polygon fill="#000000" fill-opacity="0.501961" points="212,140 234,160 180,135" />
<polygon fill="#f6ba72" fill-opacity="0.501961" points="135,121 166,110 193,120" />
<polygon fill="#8dc8fc" fill-opacity="0.501961" points="91,6 86,130 1,68" />
<polygon fill="#ffcf8a" fill-opacity="0.501961" points="144,104 164,107 126,114" />
<polygon fill="#6d5f6a" fill-opacity="0.501961" points="115,103 80,120 122,82" />
<polygon fill="#000000" fill-opacity="0.501961" points="160,101 138,101 119,114" />
<polygon fill="#502d14" fill-opacity="0.501961" points="189,56 156,25 176,28" />
<polygon fill="#bf9778" fill-opacity="0.501961" points="132,59 103,70 159,66" />
<polygon fill="#0059c2" fill-opacity="0.501961" points="252,140 271,157 231,185" />
<polygon fill="#ffe482" fill-opacity="0.501961" points="162,124 174,135 130,131" />
<polygon fill="#0c0d07" fill-opacity="0.501961" points="175,113 214,126 193,111" />
<polygon fill="#000088" fill-opacity="0.501961" points="218,110 208,106 211,116" />
<polygon fill="#ffcc74" fill-opacity="0.501961" points="202,130 222,143 175,130" />
<polygon fill="#000000" fill-opacity="0.501961" points="191,125 164,130 175,123" />
<polygon fill="#000000" fill-opacity="0.501961" points="157,120 140,124 169,125" />
<polygon fill="#aa7b22" fill-opacity="0.501961" points="139,29 170,34 148,9" />
<polygon fill="#000000" fill-opacity="0.501961" points="163,133 134,139 152,144" />
<polygon fill="#663136" fill-opacity="0.501961" points="66,87 89,82 76,80" />
<polygon fill="#ffc223" fill-opacity="0.501961" points="183,54 164,38 133,48" />
<polygon fill="#637797" fill-opacity="0.501961" points="182,46 220,43 253,18" />
<polygon fill="#040000" fill-opacity="0.501961" points="144,121 118,132 134,130" />
<polygon fill="#63bdff" fill-opacity="0.501961" points="128,-16 245,17 190,44" />
<polygon fill="#c59759" fill-opacity="0.501961" points="151,98 118,111 173,54" />
<polygon fill="#001fab" fill-opacity="0.501961" points="16,112 -1,108 -16,90" />
<polygon fill="#000009" fill-opacity="0.501961" points="187,78 174,76 173,61" />
<polygon fill="#00556f" fill-opacity="0.501961" points="35,103 26,106 20,98" />
<polygon fill="#273a89" fill-opacity="0.501961" points="43,166 24,174 39,157" />
<polygon fill="#fac887" fill-opacity="0.501961" points="187,106 172,106 203,118" />
<polygon fill="#d7a750" fill-opacity="0.501961" points="155,18 118,50 125,30" />
<polygon fill="#181105" fill-opacity="0.501961" points="229,142 246,175 225,153" />
<polygon fill="#040000" fill-opacity="0.501961" points="183,166 183,185 168,166" />
<polygon fill="#ff3000" fill-opacity="0.501961" points="123,52 169,38 144,38" />
<polygon fill="#ffe89b" fill-opacity="0.501961" points="129,120 117,129 147,120" />
<polygon fill="#f7630d" fill-opacity="0.501961" points="61,137 70,143 50,145" />
<polygon fill="#4fb7fd" fill-opacity="0.501961" points="105,-9 154,0 105,54" />
<polygon fill="#fff6d1" fill-opacity="0.501961" points="175,147 141,165 153,184" />
<polygon fill="#ffdf64" fill-opacity="0.501961" points="13,99 10,103 27,109" />
<polygon fill="#c3862c" fill-opacity="0.501961" points="239,185 204,146 232,160" />
<polygon fill="#ddaf28" fill-opacity="0.501961" points="240,148 248,141 239,133" />
<polygon fill="#da0000" fill-opacity="0.501961" points="227,131 231,124 225,122" />
<polygon fill="#53c3ff" fill-opacity="0.501961" points="240,149 214,126 235,131" />
<polygon fill="#ffd897" fill-opacity="0.501961" points="124,134 86,163 100,142" />
<polygon fill="#fff7a1" fill-opacity="0.501961" points="123,114 115,123 132,114" />
<polygon fill="#4bb4ff" fill-opacity="0.501961" points="132,92 126,79 104,124" />
<polygon fill="#c30000" fill-opacity="0.501961" points="194,86 189,84 190,93" />
<polygon fill="#004462" fill-opacity="0.501961" points="239,128 243,138 225,129" />
<polygon fill="#0045ad" fill-opacity="0.501961" points="89,109 85,119 100,116" />
<polygon fill="#53cfff" fill-opacity="0.501961" points="196,94 208,116 183,91" />
<polygon fill="#00003e" fill-opacity="0.501961" points="121,72 131,76 122,57" />
<polygon fill="#001f8f" fill-opacity="0.501961" points="106,94 103,104 112,103" />
<polygon fill="#000013" fill-opacity="0.501961" points="146,51 161,64 163,54" />
<polygon fill="#6ac5ff" fill-opacity="0.501961" points="191,82 244,66 249,140" />
<polygon fill="#ffffd0" fill-opacity="0.501961" points="117,155 103,179 85,173" />
<polygon fill="#4ca3f0" fill-opacity="0.501961" points="-16,111 28,162 2,185" />
<polygon fill="#6bc1ff" fill-opacity="0.501961" points="128,93 82,128 90,156" />
<polygon fill="#fff8bf" fill-opacity="0.501961" points="130,130 154,130 125,139" />
<polygon fill="#000891" fill-opacity="0.501961" points="61,88 48,88 62,92" />
<polygon fill="#000000" fill-opacity="0.501961" points="157,91 156,88 147,90" />
<polygon fill="#ffae18" fill-opacity="0.501961" points="247,24 242,25 240,19" />
<polygon fill="#88a0d6" fill-opacity="0.501961" points="216,50 196,75 183,44" />
<polygon fill="#672740" fill-opacity="0.501961" points="241,98 271,105 267,112" />
<polygon fill="#d98934" fill-opacity="0.501961" points="167,58 176,46 169,83" />
<polygon fill="#e0b37d" fill-opacity="0.501961" points="174,100 156,83 165,130" />
<polygon fill="#f0deb4" fill-opacity="0.501961" points="102,100 108,112 94,107" />
<polygon fill="#85c8ff" fill-opacity="0.501961" points="125,76 51,143 1,114" />
<polygon fill="#6abfff" fill-opacity="0.501961" points="23,-16 126,27 108,68" />
<polygon fill="#50bcff" fill-opacity="0.501961" points="250,25 262,47 190,50" />
<polygon fill="#ecac5e" fill-opacity="0.501961" points="127,148 158,150 162,140" />
<polygon fill="#110000" fill-opacity="0.501961" points="149,73 167,76 167,71" />
<polygon fill="#ffb34a" fill-opacity="0.501961" points="112,99 120,99 110,88" />
<polygon fill="#110d05" fill-opacity="0.501961" points="189,104 178,104 201,113" />
<polygon fill="#ffd792" fill-opacity="0.501961" points="169,134 232,172 200,185" />
<polygon fill="#005769" fill-opacity="0.501961" points="192,95 207,98 197,91" />
<polygon fill="#0081dd" fill-opacity="0.501961" points="244,-16 271,25 240,20" />
<polygon fill="#fed3de" fill-opacity="0.501961" points="218,112 209,120 227,119" />
<polygon fill="#efb23d" fill-opacity="0.501961" points="210,96 202,95 211,104" />
<polygon fill="#ffe29c" fill-opacity="0.501961" points="73,92 56,86 71,86" />
<polygon fill="#83c8ff" fill-opacity="0.501961" points="83,151 61,142 88,185" />
<polygon fill="#000000" fill-opacity="0.501961" points="209,131 199,131 192,124" />
<polygon fill="#020000" fill-opacity="0.501961" points="90,164 134,144 111,146" />
<polygon fill="#a76c6d" fill-opacity="0.501961" points="97,72 119,72 130,62" />
<polygon fill="#910049" fill-opacity="0.501961" points="77,125 77,136 70,125" />
<polygon fill="#ffdfd4" fill-opacity="0.501961" points="85,76 100,79 82,83" />
<polygon fill="#000000" fill-opacity="0.501961" points="159,114 147,115 158,111" />
<polygon fill="#ff0000" fill-opacity="0.501961" points="130,57 131,43 122,59" />
<polygon fill="#000000" fill-opacity="0.501961" points="114,118 127,107 127,112" />
<polygon fill="#790f21" fill-opacity="0.501961" points="264,53 271,46 246,49" />
<polygon fill="#030000" fill-opacity="0.501961" points="121,119 112,128 133,118" />
<polygon fill="#ffb320" fill-opacity="0.501961" points="220,82 211,78 215,83" />
<polygon fill="#612e13" fill-opacity="0.501961" points="151,69 132,93 130,78" />
<polygon fill="#00455d" fill-opacity="0.501961" points="213,71 200,72 214,75" />
<polygon fill="#de0002" fill-opacity="0.501961" points="196,57 200,60 206,59" />
<polygon fill="#1e000d" fill-opacity="0.501961" points="183,58 174,51 172,75" />
<polygon fill="#e7af5d" fill-opacity="0.501961" points="187,139 130,163 172,129" />
<polygon fill="#60b9fc" fill-opacity="0.501961" points="155,20 154,-9 217,29" />
<polygon fill="#aa0000" fill-opacity="0.501961" points="199,44 192,44 198,48" />
<polygon fill="#ffcf85" fill-opacity="0.501961" points="120,127 104,135 100,145" />
<polygon fill="#2c1000" fill-opacity="0.501961" points="129,124 114,135 147,124" />
<polygon fill="#0660a5" fill-opacity="0.501961" points="45,145 59,147 53,154" />
<polygon fill="#00777e" fill-opacity="0.501961" points="80,87 68,84 73,79" />
<polygon fill="#064db2" fill-opacity="0.501961" points="233,84 232,92 221,84" />
<polygon fill="#edb7c5" fill-opacity="0.501961" points="180,68 177,66 187,62" />
<polygon fill="#000014" fill-opacity="0.501961" points="151,32 167,36 136,37" />
<polygon fill="#000009" fill-opacity="0.501961" points="173,35 187,51 172,41" />
<polygon fill="#040000" fill-opacity="0.501961" points="143,94 148,90 137,93" />
<polygon fill="#bc9162" fill-opacity="0.501961" points="224,140 205,135 235,154" />
<polygon fill="#c3894b" fill-opacity="0.501961" points="162,29 182,41 176,32" />
<polygon fill="#00001b" fill-opacity="0.501961" points="271,24 268,17 249,18" />
<polygon fill="#fffff4" fill-opacity="0.501961" points="119,154 148,147 126,161" />
<polygon fill="#eebf80" fill-opacity="0.501961" points="146,101 145,93 120,106" />
<polygon fill="#eddcef" fill-opacity="0.501961" points="54,100 36,92 53,93" />
<polygon fill="#120000" fill-opacity="0.501961" points="166,129 172,124 181,130" />
<polygon fill="#dc8588" fill-opacity="0.501961" points="56,185 30,161 21,185" />
<polygon fill="#280000" fill-opacity="0.501961" points="111,168 129,161 102,185" />
<polygon fill="#ff0006" fill-opacity="0.501961" points="86,84 82,80 77,81" />
<polygon fill="#000032" fill-opacity="0.501961" points="247,142 266,161 263,147" />
<polygon fill="#ffd48a" fill-opacity="0.501961" points="84,117 79,121 90,126" />
<polygon fill="#3cb6ff" fill-opacity="0.501961" points="271,158 271,88 228,120" />
<polygon fill="#f2bf88" fill-opacity="0.501961" points="180,119 215,131 199,120" />
<polygon fill="#ff3f00" fill-opacity="0.501961" points="183,66 198,69 177,72" />
<polygon fill="#ff7700" fill-opacity="0.501961" points="86,155 79,146 89,153" />
<polygon fill="#53371b" fill-opacity="0.501961" points="147,7 155,17 145,12" />
<polygon fill="#281609" fill-opacity="0.501961" points="203,128 182,120 175,126" />
<polygon fill="#0023a4" fill-opacity="0.501961" points="125,82 133,92 131,81" />
<polygon fill="#ff9500" fill-opacity="0.501961" points="184,87 180,91 177,79" />
<polygon fill="#c0d9e9" fill-opacity="0.501961" points="44,160 32,150 55,156" />
<polygon fill="#006a81" fill-opacity="0.501961" points="61,133 72,140 69,144" />
<polygon fill="#5b462a" fill-opacity="0.501961" points="188,101 171,78 168,96" />
<polygon fill="#ffdea1" fill-opacity="0.501961" points="153,131 102,147 125,131" />
<polygon fill="#cca167" fill-opacity="0.501961" points="147,84 153,74 184,91" />
<polygon fill="#d1995c" fill-opacity="0.501961" points="187,128 162,111 156,119" />
<polygon fill="#65cdff" fill-opacity="0.501961" points="209,76 191,85 192,69" />
<polygon fill="#ffde44" fill-opacity="0.501961" points="177,47 141,52 155,40" />
<polygon fill="#ffd928" fill-opacity="0.501961" points="149,50 131,44 131,52" />
<polygon fill="#4f362b" fill-opacity="0.501961" points="207,131 216,129 229,143" />
<polygon fill="#170000" fill-opacity="0.501961" points="132,42 122,49 119,62" />
<polygon fill="#1f3e9c" fill-opacity="0.501961" points="237,71 238,67 223,64" />
<polygon fill="#d9d89e" fill-opacity="0.501961" points="227,66 215,63 230,62" />
<polygon fill="#170700" fill-opacity="0.501961" points="126,139 150,143 166,133" />
<polygon fill="#eaa869" fill-opacity="0.501961" points="89,155 91,161 84,170" />
<polygon fill="#daaf68" fill-opacity="0.501961" points="153,67 171,58 172,65" />
<polygon fill="#001c9d" fill-opacity="0.501961" points="43,165 38,156 34,161" />
<polygon fill="#ffefac" fill-opacity="0.501961" points="141,134 160,126 166,132" />
<polygon fill="#80c5fe" fill-opacity="0.501961" points="94,28 -16,109 103,72" />
<polygon fill="#007d9d" fill-opacity="0.501961" points="25,98 18,103 34,102" />
<polygon fill="#56beff" fill-opacity="0.501961" points="117,70 101,99 123,78" />
<polygon fill="#000079" fill-opacity="0.501961" points="208,35 212,38 218,37" />
<polygon fill="#002c34" fill-opacity="0.501961" points="231,25 242,27 230,28" />
<polygon fill="#6fc2ff" fill-opacity="0.501961" points="110,107 79,98 87,81" />
<polygon fill="#fcc17c" fill-opacity="0.501961" points="129,110 142,111 120,119" />
<polygon fill="#7f511e" fill-opacity="0.501961" points="167,23 143,27 177,31" />
<polygon fill="#270200" fill-opacity="0.501961" points="93,160 106,150 97,164" />
<polygon fill="#ffd18c" fill-opacity="0.501961" points="134,122 118,131 120,125" />
<polygon fill="#b97d3a" fill-opacity="0.501961" points="153,72 153,54 161,79" />
<polygon fill="#c79c72" fill-opacity="0.501961" points="192,102 198,110 176,99" />
<polygon fill="#fbe9b7" fill-opacity="0.501961" points="200,164 172,134 188,167" />
<polygon fill="#000000" fill-opacity="0.501961" points="219,144 233,156 206,145" />
<polygon fill="#f4c969" fill-opacity="0.501961" points="149,65 128,61 128,67" />
<polygon fill="#00179e" fill-opacity="0.501961" points="212,114 217,109 208,104" />
<polygon fill="#000000" fill-opacity="0.501961" points="195,118 202,118 208,124" />
<polygon fill="#000000" fill-opacity="0.501961" points="155,105 159,100 139,103" />
<polygon fill="#dfab62" fill-opacity="0.501961" points="119,170 136,176 150,146" />
<polygon fill="#f4e6ab" fill-opacity="0.501961" points="97,72 105,66 104,74" />
<polygon fill="#111115" fill-opacity="0.501961" points="147,55 145,63 164,64" />
<polygon fill="#aa1a3f" fill-opacity="0.501961" points="222,30 229,28 234,32" />
<polygon fill="#de0024" fill-opacity="0.501961" points="42,97 33,96 46,103" />
<polygon fill="#5ac0ff" fill-opacity="0.501961" points="194,61 253,75 271,112" />
<polygon fill="#c40003" fill-opacity="0.501961" points="99,113 93,110 94,107" />
<polygon fill="#60b8f8" fill-opacity="0.501961" points="20,6 140,23 155,-16" />
<polygon fill="#91c9fd" fill-opacity="0.501961" points="18,116 49,100 77,138" />
<polygon fill="#88cbfc" fill-opacity="0.501961" points="56,139 71,175 88,158" />
<polygon fill="#fecb91" fill-opacity="0.501961" points="132,124 156,117 136,117" />
<polygon fill="#b80828" fill-opacity="0.501961" points="271,67 252,72 271,81" />
<polygon fill="#977d7a" fill-opacity="0.501961" points="131,54 136,63 150,52" />
<polygon fill="#000001" fill-opacity="0.501961" points="188,114 175,115 176,110" />
<polygon fill="#834410" fill-opacity="0.501961" points="172,67 131,66 140,76" />
<polygon fill="#5cb2d8" fill-opacity="0.501961" points="249,158 249,144 232,149" />
<polygon fill="#00636c" fill-opacity="0.501961" points="216,61 207,62 214,64" />
<polygon fill="#56c0ff" fill-opacity="0.501961" points="271,54 194,53 271,76" />
<polygon fill="#efd294" fill-opacity="0.501961" points="145,85 130,97 135,89" />
<polygon fill="#3aa8f8" fill-opacity="0.501961" points="231,30 234,4 187,-13" />
<polygon fill="#342318" fill-opacity="0.501961" points="161,94 147,98 148,94" />
<polygon fill="#005d77" fill-opacity="0.501961" points="111,73 108,69 115,69" />
<polygon fill="#6fbdff" fill-opacity="0.501961" points="115,105 80,129 93,154" />
<polygon fill="#ffbf3c" fill-opacity="0.501961" points="244,137 242,145 249,141" />
<polygon fill="#65b1f5" fill-opacity="0.501961" points="59,-16 -16,108 -16,47" />
<polygon fill="#120000" fill-opacity="0.501961" points="86,168 94,160 89,185" />
<polygon fill="#c39a52" fill-opacity="0.501961" points="120,39 152,30 129,28" />
<polygon fill="#5bc8ff" fill-opacity="0.501961" points="234,143 220,130 236,134" />
<polygon fill="#1a0020" fill-opacity="0.501961" points="139,35 123,46 145,39" />
<polygon fill="#ccc9ec" fill-opacity="0.501961" points="215,34 222,30 226,36" />
<polygon fill="#000017" fill-opacity="0.501961" points="147,36 159,32 176,39" />
<polygon fill="#ffe764" fill-opacity="0.501961" points="202,38 205,41 210,39" />
<polygon fill="#4eb8ff" fill-opacity="0.501961" points="116,34 107,64 117,66" />
<polygon fill="#d2a86a" fill-opacity="0.501961" points="165,28 149,28 177,37" />
<polygon fill="#e1a147" fill-opacity="0.501961" points="173,128 181,134 152,143" />
<polygon fill="#5ebafe" fill-opacity="0.501961" points="217,32 169,-4 186,45" />
<polygon fill="#000000" fill-opacity="0.501961" points="206,146 187,137 203,137" />
<polygon fill="#18479f" fill-opacity="0.501961" points="239,52 233,48 227,50" />
<polygon fill="#74c6ff" fill-opacity="0.501961" points="184,78 228,109 217,84" />
<polygon fill="#c5883b" fill-opacity="0.501961" points="119,121 115,116 109,126" />
<polygon fill="#010000" fill-opacity="0.501961" points="167,124 160,120 148,123" />
<polygon fill="#001f9b" fill-opacity="0.501961" points="250,165 271,163 248,159" />
<polygon fill="#ffe093" fill-opacity="0.501961" points="137,23 126,32 144,24" />
<polygon fill="#cf872b" fill-opacity="0.501961" points="123,47 118,52 117,60" />
<polygon fill="#fff450" fill-opacity="0.501961" points="56,143 57,140 62,147" />
<polygon fill="#d70000" fill-opacity="0.501961" points="138,40 152,40 125,48" />
<polygon fill="#ff1f39" fill-opacity="0.501961" points="120,66 114,67 121,71" />
<polygon fill="#80d6ff" fill-opacity="0.501961" points="56,155 50,147 61,153" />
<polygon fill="#d8b385" fill-opacity="0.501961" points="161,93 159,111 179,110" />
<polygon fill="#000002" fill-opacity="0.501961" points="158,109 157,115 138,114" />
<polygon fill="#100412" fill-opacity="0.501961" points="170,68 187,75 183,79" />
<polygon fill="#78c1fe" fill-opacity="0.501961" points="40,24 123,67 78,67" />
<polygon fill="#97794b" fill-opacity="0.501961" points="145,23 120,40 138,36" />
<polygon fill="#0d0100" fill-opacity="0.501961" points="124,120 139,118 136,114" />
<polygon fill="#fcc988" fill-opacity="0.501961" points="156,110 145,109 166,104" />
<polygon fill="#08314d" fill-opacity="0.501961" points="184,38 186,46 174,32" />
<polygon fill="#624322" fill-opacity="0.501961" points="207,117 191,109 202,110" />
<polygon fill="#f55500" fill-opacity="0.501961" points="193,74 185,54 184,72" />
<polygon fill="#0041b9" fill-opacity="0.501961" points="10,112 7,103 -3,104" />
<polygon fill="#d00002" fill-opacity="0.501961" points="56,139 66,139 66,143" />
<polygon fill="#eba96b" fill-opacity="0.501961" points="196,135 204,130 178,125" />
<polygon fill="#fce5af" fill-opacity="0.501961" points="175,140 155,176 127,177" />
<polygon fill="#298cd7" fill-opacity="0.501961" points="-8,-15 -16,35 32,-16" />
<polygon fill="#0cb2ff" fill-opacity="0.501961" points="236,149 257,174 250,184" />
<polygon fill="#492c19" fill-opacity="0.501961" points="192,101 183,100 198,106" />
<polygon fill="#ffcf91" fill-opacity="0.501961" points="123,119 117,118 107,129" />
<polygon fill="#456b88" fill-opacity="0.501961" points="221,54 206,51 221,50" />
<polygon fill="#ecb96c" fill-opacity="0.501961" points="180,134 228,169 209,177" />
<polygon fill="#c61d45" fill-opacity="0.501961" points="228,121 232,127 226,132" />
<polygon fill="#432000" fill-opacity="0.501961" points="115,115 112,122 125,111" />
<polygon fill="#9fbbf4" fill-opacity="0.501961" points="233,121 210,118 218,123" />
<polygon fill="#6bc5ff" fill-opacity="0.501961" points="131,91 116,92 123,103" />
<polygon fill="#1fbaff" fill-opacity="0.501961" points="249,158 262,162 247,144" />
<polygon fill="#c57f32" fill-opacity="0.501961" points="179,154 170,167 175,147" />
<polygon fill="#005065" fill-opacity="0.501961" points="200,44 194,40 204,42" />
<polygon fill="#81c3fd" fill-opacity="0.501961" points="9,112 101,101 30,160" />
<polygon fill="#004c4b" fill-opacity="0.501961" points="59,151 57,146 49,146" />
<polygon fill="#84d3f0" fill-opacity="0.501961" points="197,95 209,106 207,116" />
<polygon fill="#d7ba6a" fill-opacity="0.501961" points="202,105 211,100 202,99" />
<polygon fill="#885826" fill-opacity="0.501961" points="111,141 99,143 114,136" />
<polygon fill="#e0b986" fill-opacity="0.501961" points="157,93 182,102 169,102" />
<polygon fill="#dabd77" fill-opacity="0.501961" points="241,147 244,135 236,144" />
<polygon fill="#ae7833" fill-opacity="0.501961" points="146,17 139,13 158,13" />
<polygon fill="#86bef4" fill-opacity="0.501961" points="187,59 196,67 212,39" />
<polygon fill="#0023b5" fill-opacity="0.501961" points="94,75 100,76 94,77" />
<polygon fill="#51b6fb" fill-opacity="0.501961" points="161,7 188,46 172,-16" />
<polygon fill="#eebc72" fill-opacity="0.501961" points="124,103 117,114 134,101" />
<polygon fill="#fce6b5" fill-opacity="0.501961" points="95,156 108,139 117,141" />
<polygon fill="#6f9096" fill-opacity="0.501961" points="237,153 234,147 252,155" />
<polygon fill="#f17835" fill-opacity="0.501961" points="84,149 69,144 75,142" />
<polygon fill="#82c8ff" fill-opacity="0.501961" points="70,142 78,134 94,150" />
<polygon fill="#00667f" fill-opacity="0.501961" points="123,89 113,86 119,91" />
<polygon fill="#492304" fill-opacity="0.501961" points="106,132 108,134 114,127" />
<polygon fill="#34271d" fill-opacity="0.501961" points="236,155 249,177 232,162" />
<polygon fill="#6eb8fa" fill-opacity="0.501961" points="25,185 -16,92 27,130" />
<polygon fill="#f2ce97" fill-opacity="0.501961" points="131,128 124,140 147,128" />
<polygon fill="#002285" fill-opacity="0.501961" points="92,111 84,116 96,116" />
<polygon fill="#903659" fill-opacity="0.501961" points="246,96 241,96 249,104" />
<polygon fill="#70d1ff" fill-opacity="0.501961" points="32,160 49,185 62,185" />
<polygon fill="#003380" fill-opacity="0.501961" points="114,105 107,96 102,100" />
<polygon fill="#d2a77b" fill-opacity="0.501961" points="167,95 160,90 178,94" />
<polygon fill="#003f41" fill-opacity="0.501961" points="243,134 240,137 234,128" />
<polygon fill="#142821" fill-opacity="0.501961" points="184,105 173,105 170,100" />
<polygon fill="#ffd17a" fill-opacity="0.501961" points="14,104 20,103 21,109" />
</g>
</svg>