<svg height="680" width="1024" xmlns="http://www.w3.org/2000/svg"><path d="m0 0h1024v680h-1024z" fill="#85c3fc"/><g fill-opacity=".501961" transform="matrix(4 0 0 4 2 2)"><path d="m253 185-105-201-63 191z" fill="#ad4200"/><path d="m104 45 79-21 19 127z" fill="#864b01"/><path d="m271-1-18 186-106-201z" fill="#2894d6"/><path d="m251 184-75-52-80 32z" fill="#ffff8e"/><path d="m166 136-77 26 37-25z"/><path d="m136 84-62-100-2 200z" fill="#63ace4"/><path d="m182 134 62 33-27-27z"/><path d="m161 0-162-16-15 201z" fill="#62b3f2"/><path d="m182 90 46-64 4 116z" fill="#78bbf6"/><path d="m75 144 23-39-77 63z" fill="#886667"/><path d="m138 142 55-97-70-14z" fill="#9a611f"/><path d="m96 150 32-21 29 1z" fill="#ffffb4"/><path d="m180 50-15-12-37 14z" fill="#ffff31"/><path d="m260 150-32-30-82 2z" fill="#7b674c"/><path d="m160 74-23 12 42 35z" fill="#dbbe8f"/><path d="m126 45-11 23 17 12z" fill="#370000"/><path d="m147 31-21 12 50-6z"/><path d="m271 3-82 34-84-53z" fill="#3db6ff"/><path d="m188 168-9-13-18 17z" fill="#901c00"/><path d="m160 126-53 5 50-54z" fill="#725325"/><path d="m91 178 24-26 40-8z" fill="#fffffe"/><path d="m129 160-55 25h32z"/><path d="m51 185 28-1 34-33z" fill="#020000"/><path d="m184 49-42 7 30 31z" fill="#442414"/><path d="m271-16-16 74-46-73z" fill="#0289d9"/><path d="m42 102-11-6 11-2z" fill="#ff0003"/><path d="m130 87-31 56-42 11z" fill="#6fccff"/><path d="m70 142 21 19 5-7z" fill="#ffa22f"/><path d="m98 157 27-18 25 1z"/><path d="m222 157-55-24-49 40z" fill="#ffce81"/><path d="m179 132 6-7 20 10z" fill="#fff89b"/><path d="m-10 53 70-69-76 15z" fill="#3191e2"/><path d="m191 93 45 59-42-122z" fill="#71a9e6"/><path d="m195 69-20 25 8-41z" fill="#da4600"/><path d="m142 110-18 11 36-9z"/><path d="m212 140 22 20-54-25z"/><path d="m135 121 31-11 27 10z" fill="#f6ba72"/><path d="m91 6-5 124-85-62z" fill="#8dc8fc"/><path d="m144 104 20 3-38 7z" fill="#ffcf8a"/><path d="m115 103-35 17 42-38z" fill="#6d5f6a"/><path d="m160 101h-22l-19 13z"/><path d="m189 56-33-31 20 3z" fill="#502d14"/><path d="m132 59-29 11 56-4z" fill="#bf9778"/><path d="m252 140 19 17-40 28z" fill="#0059c2"/><path d="m162 124 12 11-44-4z" fill="#ffe482"/><path d="m175 113 39 13-21-15z" fill="#0c0d07"/><path d="m218 110-10-4 3 10z" fill="#008"/><path d="m202 130 20 13-47-13z" fill="#ffcc74"/><path d="m191 125-27 5 11-7z"/><path d="m157 120-17 4 29 1z"/><path d="m139 29 31 5-22-25z" fill="#aa7b22"/><path d="m163 133-29 6 18 5z"/><path d="m66 87 23-5-13-2z" fill="#663136"/><path d="m183 54-19-16-31 10z" fill="#ffc223"/><path d="m182 46 38-3 33-25z" fill="#637797"/><path d="m144 121-26 11 16-2z" fill="#040000"/><path d="m128-16 117 33-55 27z" fill="#63bdff"/><path d="m151 98-33 13 55-57z" fill="#c59759"/><path d="m16 112-17-4-15-18z" fill="#001fab"/><path d="m187 78-13-2-1-15z" fill="#000009"/><path d="m35 103-9 3-6-8z" fill="#00556f"/><path d="m43 166-19 8 15-17z" fill="#273a89"/><path d="m187 106h-15l31 12z" fill="#fac887"/><path d="m155 18-37 32 7-20z" fill="#d7a750"/><path d="m229 142 17 33-21-22z" fill="#181105"/><path d="m183 166v19l-15-19z" fill="#040000"/><path d="m123 52 46-14h-25z" fill="#ff3000"/><path d="m129 120-12 9 30-9z" fill="#ffe89b"/><path d="m61 137 9 6-20 2z" fill="#f7630d"/><path d="m105-9 49 9-49 54z" fill="#4fb7fd"/><path d="m175 147-34 18 12 19z" fill="#fff6d1"/><path d="m13 99-3 4 17 6z" fill="#ffdf64"/><path d="m239 185-35-39 28 14z" fill="#c3862c"/><path d="m240 148 8-7-9-8z" fill="#ddaf28"/><path d="m227 131 4-7-6-2z" fill="#da0000"/><path d="m240 149-26-23 21 5z" fill="#53c3ff"/><path d="m124 134-38 29 14-21z" fill="#ffd897"/><path d="m123 114-8 9 17-9z" fill="#fff7a1"/><path d="m132 92-6-13-22 45z" fill="#4bb4ff"/><path d="m194 86-5-2 1 9z" fill="#c30000"/><path d="m239 128 4 10-18-9z" fill="#004462"/><path d="m89 109-4 10 15-3z" fill="#0045ad"/><path d="m196 94 12 22-25-25z" fill="#53cfff"/><path d="m121 72 10 4-9-19z" fill="#00003e"/><path d="m106 94-3 10 9-1z" fill="#001f8f"/><path d="m146 51 15 13 2-10z" fill="#000013"/><path d="m191 82 53-16 5 74z" fill="#6ac5ff"/><path d="m117 155-14 24-18-6z" fill="#ffffd0"/><path d="m-16 111 44 51-26 23z" fill="#4ca3f0"/><path d="m128 93-46 35 8 28z" fill="#6bc1ff"/><path d="m130 130h24l-29 9z" fill="#fff8bf"/><path d="m61 88h-13l14 4z" fill="#000891"/><path d="m157 91-1-3-9 2z"/><path d="m247 24-5 1-2-6z" fill="#ffae18"/><path d="m216 50-20 25-13-31z" fill="#88a0d6"/><path d="m241 98 30 7-4 7z" fill="#672740"/><path d="m167 58 9-12-7 37z" fill="#d98934"/><path d="m174 100-18-17 9 47z" fill="#e0b37d"/><path d="m102 100 6 12-14-5z" fill="#f0deb4"/><path d="m125 76-74 67-50-29z" fill="#85c8ff"/><path d="m23-16 103 43-18 41z" fill="#6abfff"/><path d="m250 25 12 22-72 3z" fill="#50bcff"/><path d="m127 148 31 2 4-10z" fill="#ecac5e"/><path d="m149 73 18 3v-5z" fill="#100"/><path d="m112 99h8l-10-11z" fill="#ffb34a"/><path d="m189 104h-11l23 9z" fill="#110d05"/><path d="m169 134 63 38-32 13z" fill="#ffd792"/><path d="m192 95 15 3-10-7z" fill="#005769"/><path d="m244-16 27 41-31-5z" fill="#0081dd"/><path d="m218 112-9 8 18-1z" fill="#fed3de"/><path d="m210 96-8-1 9 9z" fill="#efb23d"/><path d="m73 92-17-6h15z" fill="#ffe29c"/><path d="m83 151-22-9 27 43z" fill="#83c8ff"/><path d="m209 131h-10l-7-7z"/><path d="m90 164 44-20-23 2z" fill="#020000"/><path d="m97 72h22l11-10z" fill="#a76c6d"/><path d="m77 125v11l-7-11z" fill="#910049"/><path d="m85 76 15 3-18 4z" fill="#ffdfd4"/><path d="m159 114-12 1 11-4z"/><path d="m130 57 1-14-9 16z" fill="#f00"/><path d="m114 118 13-11v5z"/><path d="m264 53 7-7-25 3z" fill="#790f21"/><path d="m121 119-9 9 21-10z" fill="#030000"/><path d="m220 82-9-4 4 5z" fill="#ffb320"/><path d="m151 69-19 24-2-15z" fill="#612e13"/><path d="m213 71-13 1 14 3z" fill="#00455d"/><path d="m196 57 4 3 6-1z" fill="#de0002"/><path d="m183 58-9-7-2 24z" fill="#1e000d"/><path d="m187 139-57 24 42-34z" fill="#e7af5d"/><path d="m155 20-1-29 63 38z" fill="#60b9fc"/><path d="m199 44h-7l6 4z" fill="#a00"/><path d="m120 127-16 8-4 10z" fill="#ffcf85"/><path d="m129 124-15 11 33-11z" fill="#2c1000"/><path d="m45 145 14 2-6 7z" fill="#0660a5"/><path d="m80 87-12-3 5-5z" fill="#00777e"/><path d="m233 84-1 8-11-8z" fill="#064db2"/><path d="m180 68-3-2 10-4z" fill="#edb7c5"/><path d="m151 32 16 4-31 1z" fill="#000014"/><path d="m173 35 14 16-15-10z" fill="#000009"/><path d="m143 94 5-4-11 3z" fill="#040000"/><path d="m224 140-19-5 30 19z" fill="#bc9162"/><path d="m162 29 20 12-6-9z" fill="#c3894b"/><path d="m271 24-3-7-19 1z" fill="#00001b"/><path d="m119 154 29-7-22 14z" fill="#fffff4"/><path d="m146 101-1-8-25 13z" fill="#eebf80"/><path d="m54 100-18-8 17 1z" fill="#eddcef"/><path d="m166 129 6-5 9 6z" fill="#120000"/><path d="m56 185-26-24-9 24z" fill="#dc8588"/><path d="m111 168 18-7-27 24z" fill="#280000"/><path d="m86 84-4-4-5 1z" fill="#ff0006"/><path d="m247 142 19 19-3-14z" fill="#000032"/><path d="m84 117-5 4 11 5z" fill="#ffd48a"/><path d="m271 158v-70l-43 32z" fill="#3cb6ff"/><path d="m180 119 35 12-16-11z" fill="#f2bf88"/><path d="m183 66 15 3-21 3z" fill="#ff3f00"/><path d="m86 155-7-9 10 7z" fill="#f70"/><path d="m147 7 8 10-10-5z" fill="#53371b"/><path d="m203 128-21-8-7 6z" fill="#281609"/><path d="m125 82 8 10-2-11z" fill="#0023a4"/><path d="m184 87-4 4-3-12z" fill="#ff9500"/><path d="m44 160-12-10 23 6z" fill="#c0d9e9"/><path d="m61 133 11 7-3 4z" fill="#006a81"/><path d="m188 101-17-23-3 18z" fill="#5b462a"/><path d="m153 131-51 16 23-16z" fill="#ffdea1"/><path d="m147 84 6-10 31 17z" fill="#cca167"/><path d="m187 128-25-17-6 8z" fill="#d1995c"/><path d="m209 76-18 9 1-16z" fill="#65cdff"/><path d="m177 47-36 5 14-12z" fill="#ffde44"/><path d="m149 50-18-6v8z" fill="#ffd928"/><path d="m207 131 9-2 13 14z" fill="#4f362b"/><path d="m132 42-10 7-3 13z" fill="#170000"/><path d="m237 71 1-4-15-3z" fill="#1f3e9c"/><path d="m227 66-12-3 15-1z" fill="#d9d89e"/><path d="m126 139 24 4 16-10z" fill="#170700"/><path d="m89 155 2 6-7 9z" fill="#eaa869"/><path d="m153 67 18-9 1 7z" fill="#daaf68"/><path d="m43 165-5-9-4 5z" fill="#001c9d"/><path d="m141 134 19-8 6 6z" fill="#ffefac"/><path d="m94 28-110 81 119-37z" fill="#80c5fe"/><path d="m25 98-7 5 16-1z" fill="#007d9d"/><path d="m117 70-16 29 22-21z" fill="#56beff"/><path d="m208 35 4 3 6-1z" fill="#000079"/><path d="m231 25 11 2-12 1z" fill="#002c34"/><path d="m110 107-31-9 8-17z" fill="#6fc2ff"/><path d="m129 110 13 1-22 8z" fill="#fcc17c"/><path d="m167 23-24 4 34 4z" fill="#7f511e"/><path d="m93 160 13-10-9 14z" fill="#270200"/><path d="m134 122-16 9 2-6z" fill="#ffd18c"/><path d="m153 72v-18l8 25z" fill="#b97d3a"/><path d="m192 102 6 8-22-11z" fill="#c79c72"/><path d="m200 164-28-30 16 33z" fill="#fbe9b7"/><path d="m219 144 14 12-27-11z"/><path d="m149 65-21-4v6z" fill="#f4c969"/><path d="m212 114 5-5-9-5z" fill="#00179e"/><path d="m195 118h7l6 6z"/><path d="m155 105 4-5-20 3z"/><path d="m119 170 17 6 14-30z" fill="#dfab62"/><path d="m97 72 8-6-1 8z" fill="#f4e6ab"/><path d="m147 55-2 8 19 1z" fill="#111115"/><path d="m222 30 7-2 5 4z" fill="#aa1a3f"/><path d="m42 97-9-1 13 7z" fill="#de0024"/><path d="m194 61 59 14 18 37z" fill="#5ac0ff"/><path d="m99 113-6-3 1-3z" fill="#c40003"/><path d="m20 6 120 17 15-39z" fill="#60b8f8"/><path d="m18 116 31-16 28 38z" fill="#91c9fd"/><path d="m56 139 15 36 17-17z" fill="#88cbfc"/><path d="m132 124 24-7h-20z" fill="#fecb91"/><path d="m271 67-19 5 19 9z" fill="#b80828"/><path d="m131 54 5 9 14-11z" fill="#977d7a"/><path d="m188 114-13 1 1-5z" fill="#000001"/><path d="m172 67-41-1 9 10z" fill="#834410"/><path d="m249 158v-14l-17 5z" fill="#5cb2d8"/><path d="m216 61-9 1 7 2z" fill="#00636c"/><path d="m271 54-77-1 77 23z" fill="#56c0ff"/><path d="m145 85-15 12 5-8z" fill="#efd294"/><path d="m231 30 3-26-47-17z" fill="#3aa8f8"/><path d="m161 94-14 4 1-4z" fill="#342318"/><path d="m111 73-3-4h7z" fill="#005d77"/><path d="m115 105-35 24 13 25z" fill="#6fbdff"/><path d="m244 137-2 8 7-4z" fill="#ffbf3c"/><path d="m59-16-75 124v-61z" fill="#65b1f5"/><path d="m86 168 8-8-5 25z" fill="#120000"/><path d="m120 39 32-9-23-2z" fill="#c39a52"/><path d="m234 143-14-13 16 4z" fill="#5bc8ff"/><path d="m139 35-16 11 22-7z" fill="#1a0020"/><path d="m215 34 7-4 4 6z" fill="#ccc9ec"/><path d="m147 36 12-4 17 7z" fill="#000017"/><path d="m202 38 3 3 5-2z" fill="#ffe764"/><path d="m116 34-9 30 10 2z" fill="#4eb8ff"/><path d="m165 28h-16l28 9z" fill="#d2a86a"/><path d="m173 128 8 6-29 9z" fill="#e1a147"/><path d="m217 32-48-36 17 49z" fill="#5ebafe"/><path d="m206 146-19-9h16z"/><path d="m239 52-6-4-6 2z" fill="#18479f"/><path d="m184 78 44 31-11-25z" fill="#74c6ff"/><path d="m119 121-4-5-6 10z" fill="#c5883b"/><path d="m167 124-7-4-12 3z" fill="#010000"/><path d="m250 165 21-2-23-4z" fill="#001f9b"/><path d="m137 23-11 9 18-8z" fill="#ffe093"/><path d="m123 47-5 5-1 8z" fill="#cf872b"/><path d="m56 143 1-3 5 7z" fill="#fff450"/><path d="m138 40h14l-27 8z" fill="#d70000"/><path d="m120 66-6 1 7 4z" fill="#ff1f39"/><path d="m56 155-6-8 11 6z" fill="#80d6ff"/><path d="m161 93-2 18 20-1z" fill="#d8b385"/><path d="m158 109-1 6-19-1z" fill="#000002"/><path d="m170 68 17 7-4 4z" fill="#100412"/><path d="m40 24 83 43h-45z" fill="#78c1fe"/><path d="m145 23-25 17 18-4z" fill="#97794b"/><path d="m124 120 15-2-3-4z" fill="#0d0100"/><path d="m156 110-11-1 21-5z" fill="#fcc988"/><path d="m184 38 2 8-12-14z" fill="#08314d"/><path d="m207 117-16-8 11 1z" fill="#624322"/><path d="m193 74-8-20-1 18z" fill="#f55500"/><path d="m10 112-3-9-10 1z" fill="#0041b9"/><path d="m56 139h10v4z" fill="#d00002"/><path d="m196 135 8-5-26-5z" fill="#eba96b"/><path d="m175 140-20 36-28 1z" fill="#fce5af"/><path d="m-8-15-8 50 48-51z" fill="#298cd7"/><path d="m236 149 21 25-7 10z" fill="#0cb2ff"/><path d="m192 101-9-1 15 6z" fill="#492c19"/><path d="m123 119-6-1-10 11z" fill="#ffcf91"/><path d="m221 54-15-3 15-1z" fill="#456b88"/><path d="m180 134 48 35-19 8z" fill="#ecb96c"/><path d="m228 121 4 6-6 5z" fill="#c61d45"/><path d="m115 115-3 7 13-11z" fill="#432000"/><path d="m233 121-23-3 8 5z" fill="#9fbbf4"/><path d="m131 91-15 1 7 11z" fill="#6bc5ff"/><path d="m249 158 13 4-15-18z" fill="#1fbaff"/><path d="m179 154-9 13 5-20z" fill="#c57f32"/><path d="m200 44-6-4 10 2z" fill="#005065"/><path d="m9 112 92-11-71 59z" fill="#81c3fd"/><path d="m59 151-2-5h-8z" fill="#004c4b"/><path d="m197 95 12 11-2 10z" fill="#84d3f0"/><path d="m202 105 9-5-9-1z" fill="#d7ba6a"/><path d="m111 141-12 2 15-7z" fill="#885826"/><path d="m157 93 25 9h-13z" fill="#e0b986"/><path d="m241 147 3-12-8 9z" fill="#dabd77"/><path d="m146 17-7-4h19z" fill="#ae7833"/><path d="m187 59 9 8 16-28z" fill="#86bef4"/><path d="m94 75 6 1-6 1z" fill="#0023b5"/><path d="m161 7 27 39-16-62z" fill="#51b6fb"/><path d="m124 103-7 11 17-13z" fill="#eebc72"/><path d="m95 156 13-17 9 2z" fill="#fce6b5"/><path d="m237 153-3-6 18 8z" fill="#6f9096"/><path d="m84 149-15-5 6-2z" fill="#f17835"/><path d="m70 142 8-8 16 16z" fill="#82c8ff"/><path d="m123 89-10-3 6 5z" fill="#00667f"/><path d="m106 132 2 2 6-7z" fill="#492304"/><path d="m236 155 13 22-17-15z" fill="#34271d"/><path d="m25 185-41-93 43 38z" fill="#6eb8fa"/><path d="m131 128-7 12 23-12z" fill="#f2ce97"/><path d="m92 111-8 5h12z" fill="#002285"/><path d="m246 96h-5l8 8z" fill="#903659"/><path d="m32 160 17 25h13z" fill="#70d1ff"/><path d="m114 105-7-9-5 4z" fill="#003380"/><path d="m167 95-7-5 18 4z" fill="#d2a77b"/><path d="m243 134-3 3-6-9z" fill="#003f41"/><path d="m184 105h-11l-3-5z" fill="#142821"/><path d="m14 104 6-1 1 6z" fill="#ffd17a"/></g></svg>