<svg xmlns="http://www.w3.org/2000/svg" version="1.1" width="728" height="1024">
<rect x="0" y="0" width="728" height="1024" fill="#a4afa2" />
<g transform="scale(4.000000) translate(0.5 0.5)">
<ellipse fill="#13413d" fill-opacity="0.501961" cx="97" cy="75" rx="62" ry="62" />
<ellipse fill="#ffffff" fill-opacity="0.501961" cx="167" cy="255" rx="74" ry="74" />
<ellipse fill="#4a6645" fill-opacity="0.501961" cx="67" cy="171" rx="59" ry="59" />
<ellipse fill="#000000" fill-opacity="0.501961" cx="36" cy="32" rx="19" ry="19" />
<ellipse fill="#ffffff" fill-opacity="0.501961" cx="154" cy="137" rx="30" ry="30" />
<ellipse fill="#ffffff" fill-opacity="0.501961" cx="0" cy="79" rx="38" ry="38" />
<ellipse fill="#ffffff" fill-opacity="0.501961" cx="84" cy="255" rx="37" ry="37" />
<ellipse fill="#fffff6" fill-opacity="0.501961" cx="91" cy="0" rx="36" ry="36" />
<ellipse fill="#ffffff" fill-opacity="0.501961" cx="0" cy="255" rx="48" ry="48" />
<ellipse fill="#000000" fill-opacity="0.501961" cx="156" cy="100" rx="15" ry="15" />
<ellipse fill="#ffffff" fill-opacity="0.501961" cx="172" cy="0" rx="33" ry="33" />
<ellipse fill="#ffffff" fill-opacity="0.501961" cx="181" cy="68" rx="26" ry="26" />
<ellipse fill="#8d5f32" fill-opacity="0.501961" cx="133" cy="47" rx="30" ry="30" />
<ellipse fill="#ffffff" fill-opacity="0.501961" cx="0" cy="104" rx="39" ry="39" />
<ellipse fill="#ffffff" fill-opacity="0.501961" cx="176" cy="220" rx="45" ry="45" />
<ellipse fill="#48b2c0" fill-opacity="0.501961" cx="84" cy="151" rx="33" ry="33" />
<ellipse fill="#464d24" fill-opacity="0.501961" cx="47" cy="204" rx="27" ry="27" />
<ellipse fill="#ffffff" fill-opacity="0.501961" cx="156" cy="134" rx="24" ry="24" />
<ellipse fill="#000000" fill-opacity="0.501961" cx="18" cy="22" rx="9" ry="9" />
<ellipse fill="#94816f" fill-opacity="0.501961" cx="112" cy="182" rx="29" ry="29" />
<ellipse fill="#ffffff" fill-opacity="0.501961" cx="49" cy="255" rx="29" ry="29" />
<ellipse fill="#ffffff" fill-opacity="0.501961" cx="48" cy="0" rx="18" ry="18" />
<ellipse fill="#0a0601" fill-opacity="0.501961" cx="42" cy="53" rx="14" ry="14" />
<ellipse fill="#0d0100" fill-opacity="0.501961" cx="131" cy="97" rx="15" ry="15" />
<ellipse fill="#ffffff" fill-opacity="0.501961" cx="0" cy="55" rx="26" ry="26" />
<ellipse fill="#22b2ca" fill-opacity="0.501961" cx="82" cy="83" rx="22" ry="22" />
<ellipse fill="#ffffff" fill-opacity="0.501961" cx="0" cy="221" rx="26" ry="26" />
<ellipse fill="#ffffff" fill-opacity="0.501961" cx="12" cy="0" rx="16" ry="16" />
<ellipse fill="#ffffff" fill-opacity="0.501961" cx="136" cy="0" rx="19" ry="19" />
<ellipse fill="#b88e58" fill-opacity="0.501961" cx="107" cy="35" rx="22" ry="22" />
<ellipse fill="#6cffff" fill-opacity="0.501961" cx="64" cy="57" rx="10" ry="10" />
<ellipse fill="#fffff5" fill-opacity="0.501961" cx="105" cy="247" rx="35" ry="35" />
<ellipse fill="#ffffff" fill-opacity="0.501961" cx="160" cy="67" rx="12" ry="12" />
<ellipse fill="#fffffc" fill-opacity="0.501961" cx="181" cy="139" rx="31" ry="31" />
<ellipse fill="#001433" fill-opacity="0.501961" cx="86" cy="114" rx="15" ry="15" />
<ellipse fill="#011532" fill-opacity="0.501961" cx="52" cy="94" rx="15" ry="15" />
<ellipse fill="#21a8ae" fill-opacity="0.501961" cx="111" cy="133" rx="20" ry="20" />
<ellipse fill="#fab475" fill-opacity="0.501961" cx="50" cy="122" rx="15" ry="15" />
<ellipse fill="#44483b" fill-opacity="0.501961" cx="147" cy="44" rx="19" ry="19" />
<ellipse fill="#79ffff" fill-opacity="0.501961" cx="104" cy="85" rx="10" ry="10" />
<ellipse fill="#727861" fill-opacity="0.501961" cx="139" cy="171" rx="18" ry="18" />
<ellipse fill="#b47814" fill-opacity="0.501961" cx="31" cy="146" rx="17" ry="17" />
<ellipse fill="#2d3015" fill-opacity="0.501961" cx="22" cy="175" rx="14" ry="14" />
<ellipse fill="#243f38" fill-opacity="0.501961" cx="91" cy="62" rx="19" ry="19" />
<ellipse fill="#ffffff" fill-opacity="0.501961" cx="180" cy="7" rx="31" ry="31" />
<ellipse fill="#ffffff" fill-opacity="0.501961" cx="68" cy="0" rx="23" ry="23" />
<ellipse fill="#ffffff" fill-opacity="0.501961" cx="0" cy="188" rx="12" ry="12" />
<ellipse fill="#dcdacf" fill-opacity="0.501961" cx="46" cy="170" rx="12" ry="12" />
<ellipse fill="#061820" fill-opacity="0.501961" cx="109" cy="106" rx="13" ry="13" />
<ellipse fill="#081623" fill-opacity="0.501961" cx="46" cy="74" rx="12" ry="12" />
<ellipse fill="#ffffff" fill-opacity="0.501961" cx="0" cy="154" rx="11" ry="11" />
<ellipse fill="#241e12" fill-opacity="0.501961" cx="152" cy="95" rx="16" ry="16" />
<ellipse fill="#181d17" fill-opacity="0.501961" cx="32" cy="29" rx="17" ry="17" />
<ellipse fill="#fffff8" fill-opacity="0.501961" cx="135" cy="121" rx="11" ry="11" />
<ellipse fill="#1fe7f7" fill-opacity="0.501961" cx="59" cy="40" rx="9" ry="9" />
<ellipse fill="#f8daaf" fill-opacity="0.501961" cx="86" cy="187" rx="11" ry="11" />
<ellipse fill="#89ffff" fill-opacity="0.501961" cx="65" cy="72" rx="9" ry="9" />
<ellipse fill="#fffff5" fill-opacity="0.501961" cx="145" cy="230" rx="32" ry="32" />
<ellipse fill="#00237e" fill-opacity="0.501961" cx="27" cy="111" rx="5" ry="5" />
<ellipse fill="#6e4f2d" fill-opacity="0.501961" cx="103" cy="207" rx="13" ry="13" />
<ellipse fill="#ffffff" fill-opacity="0.501961" cx="0" cy="124" rx="22" ry="22" />
<ellipse fill="#ffffff" fill-opacity="0.501961" cx="180" cy="70" rx="23" ry="23" />
<ellipse fill="#ffffff" fill-opacity="0.501961" cx="34" cy="0" rx="14" ry="14" />
<ellipse fill="#2e9a9d" fill-opacity="0.501961" cx="68" cy="151" rx="23" ry="23" />
<ellipse fill="#ffffff" fill-opacity="0.501961" cx="118" cy="0" rx="18" ry="18" />
<ellipse fill="#72633a" fill-opacity="0.501961" cx="94" cy="23" rx="11" ry="11" />
<ellipse fill="#ffffff" fill-opacity="0.501961" cx="0" cy="22" rx="9" ry="9" />
<ellipse fill="#d2a46d" fill-opacity="0.501961" cx="119" cy="50" rx="14" ry="14" />
<ellipse fill="#ffffff" fill-opacity="0.501961" cx="48" cy="113" rx="6" ry="6" />
<ellipse fill="#120802" fill-opacity="0.501961" cx="77" cy="45" rx="9" ry="9" />
<ellipse fill="#ffffff" fill-opacity="0.501961" cx="114" cy="182" rx="5" ry="5" />
<ellipse fill="#ffffff" fill-opacity="0.501961" cx="180" cy="101" rx="8" ry="8" />
<ellipse fill="#fffff2" fill-opacity="0.501961" cx="5" cy="74" rx="31" ry="31" />
<ellipse fill="#fffff8" fill-opacity="0.501961" cx="28" cy="255" rx="28" ry="28" />
<ellipse fill="#ffffff" fill-opacity="0.501961" cx="0" cy="171" rx="9" ry="9" />
<ellipse fill="#464428" fill-opacity="0.501961" cx="68" cy="209" rx="14" ry="14" />
<ellipse fill="#3c2f11" fill-opacity="0.501961" cx="165" cy="40" rx="7" ry="7" />
<ellipse fill="#232117" fill-opacity="0.501961" cx="162" cy="102" rx="11" ry="11" />
<ellipse fill="#0094ab" fill-opacity="0.501961" cx="56" cy="27" rx="7" ry="7" />
<ellipse fill="#bcb696" fill-opacity="0.501961" cx="97" cy="34" rx="16" ry="16" />
<ellipse fill="#8e7753" fill-opacity="0.501961" cx="159" cy="169" rx="10" ry="10" />
<ellipse fill="#fffff3" fill-opacity="0.501961" cx="180" cy="200" rx="29" ry="29" />
<ellipse fill="#a04f0d" fill-opacity="0.501961" cx="47" cy="129" rx="10" ry="10" />
<ellipse fill="#fffff4" fill-opacity="0.501961" cx="82" cy="250" rx="29" ry="29" />
<ellipse fill="#33322a" fill-opacity="0.501961" cx="139" cy="29" rx="11" ry="11" />
<ellipse fill="#372429" fill-opacity="0.501961" cx="33" cy="220" rx="8" ry="8" />
<ellipse fill="#001b5b" fill-opacity="0.501961" cx="34" cy="107" rx="4" ry="4" />
<ellipse fill="#89f7f6" fill-opacity="0.501961" cx="65" cy="84" rx="7" ry="7" />
<ellipse fill="#fffff8" fill-opacity="0.501961" cx="0" cy="47" rx="21" ry="21" />
<ellipse fill="#ffffff" fill-opacity="0.501961" cx="39" cy="114" rx="7" ry="7" />
<ellipse fill="#ffffff" fill-opacity="0.501961" cx="3" cy="0" rx="18" ry="18" />
<ellipse fill="#29e6f6" fill-opacity="0.501961" cx="120" cy="83" rx="6" ry="6" />
<ellipse fill="#72eaf0" fill-opacity="0.501961" cx="88" cy="95" rx="8" ry="8" />
<ellipse fill="#ffffff" fill-opacity="0.501961" cx="0" cy="196" rx="14" ry="14" />
<ellipse fill="#ffffff" fill-opacity="0.501961" cx="107" cy="186" rx="4" ry="4" />
<ellipse fill="#fffff7" fill-opacity="0.501961" cx="76" cy="22" rx="9" ry="9" />
<ellipse fill="#1e1623" fill-opacity="0.501961" cx="71" cy="99" rx="7" ry="7" />
<ellipse fill="#0092ae" fill-opacity="0.501961" cx="143" cy="75" rx="7" ry="7" />
<ellipse fill="#ffffed" fill-opacity="0.501961" cx="155" cy="135" rx="24" ry="24" />
<ellipse fill="#43a1a2" fill-opacity="0.501961" cx="114" cy="128" rx="18" ry="18" />
<ellipse fill="#616d5c" fill-opacity="0.501961" cx="128" cy="190" rx="11" ry="11" />
<ellipse fill="#18362c" fill-opacity="0.501961" cx="151" cy="162" rx="5" ry="5" />
<ellipse fill="#ffffff" fill-opacity="0.501961" cx="151" cy="68" rx="5" ry="5" />
<ellipse fill="#fffffc" fill-opacity="0.501961" cx="117" cy="197" rx="4" ry="4" />
<ellipse fill="#fdd5a7" fill-opacity="0.501961" cx="53" cy="184" rx="5" ry="5" />
<ellipse fill="#ffffff" fill-opacity="0.501961" cx="119" cy="163" rx="4" ry="4" />
<ellipse fill="#fffff2" fill-opacity="0.501961" cx="63" cy="113" rx="4" ry="4" />
<ellipse fill="#00337c" fill-opacity="0.501961" cx="23" cy="113" rx="4" ry="4" />
<ellipse fill="#bcb3a5" fill-opacity="0.501961" cx="100" cy="161" rx="12" ry="12" />
<ellipse fill="#613c1e" fill-opacity="0.501961" cx="121" cy="26" rx="9" ry="9" />
<ellipse fill="#ffffff" fill-opacity="0.501961" cx="181" cy="43" rx="9" ry="9" />
<ellipse fill="#00285c" fill-opacity="0.501961" cx="38" cy="104" rx="4" ry="4" />
<ellipse fill="#3d5238" fill-opacity="0.501961" cx="26" cy="185" rx="15" ry="15" />
<ellipse fill="#6dd875" fill-opacity="0.501961" cx="40" cy="205" rx="8" ry="8" />
<ellipse fill="#181411" fill-opacity="0.501961" cx="70" cy="34" rx="6" ry="6" />
<ellipse fill="#262722" fill-opacity="0.501961" cx="22" cy="23" rx="11" ry="11" />
<ellipse fill="#343830" fill-opacity="0.501961" cx="145" cy="94" rx="17" ry="17" />
<ellipse fill="#ffffff" fill-opacity="0.501961" cx="37" cy="168" rx="5" ry="5" />
<ellipse fill="#fffff1" fill-opacity="0.501961" cx="181" cy="138" rx="29" ry="29" />
<ellipse fill="#ffffff" fill-opacity="0.501961" cx="136" cy="163" rx="4" ry="4" />
<ellipse fill="#6ff383" fill-opacity="0.501961" cx="53" cy="215" rx="6" ry="6" />
<ellipse fill="#ffffff" fill-opacity="0.501961" cx="103" cy="191" rx="4" ry="4" />
<ellipse fill="#00626c" fill-opacity="0.501961" cx="79" cy="84" rx="9" ry="9" />
<ellipse fill="#09d4e4" fill-opacity="0.501961" cx="131" cy="79" rx="5" ry="5" />
<ellipse fill="#2d312a" fill-opacity="0.501961" cx="39" cy="44" rx="15" ry="15" />
<ellipse fill="#383d30" fill-opacity="0.501961" cx="118" cy="172" rx="7" ry="7" />
<ellipse fill="#ffffff" fill-opacity="0.501961" cx="84" cy="35" rx="4" ry="4" />
<ellipse fill="#fffff5" fill-opacity="0.501961" cx="140" cy="0" rx="19" ry="19" />
<ellipse fill="#d9b989" fill-opacity="0.501961" cx="69" cy="124" rx="6" ry="6" />
<ellipse fill="#fffffb" fill-opacity="0.501961" cx="181" cy="89" rx="13" ry="13" />
<ellipse fill="#ffda91" fill-opacity="0.501961" cx="66" cy="106" rx="4" ry="4" />
<ellipse fill="#fbffff" fill-opacity="0.501961" cx="154" cy="170" rx="4" ry="4" />
<ellipse fill="#7a5429" fill-opacity="0.501961" cx="166" cy="171" rx="6" ry="6" />
<ellipse fill="#402c19" fill-opacity="0.501961" cx="103" cy="67" rx="9" ry="9" />
<ellipse fill="#ffffff" fill-opacity="0.501961" cx="97" cy="0" rx="13" ry="13" />
<ellipse fill="#fffffb" fill-opacity="0.501961" cx="181" cy="178" rx="12" ry="12" />
<ellipse fill="#93a044" fill-opacity="0.501961" cx="20" cy="152" rx="12" ry="12" />
<ellipse fill="#ffffff" fill-opacity="0.501961" cx="120" cy="178" rx="3" ry="3" />
<ellipse fill="#ffffea" fill-opacity="0.501961" cx="1" cy="224" rx="26" ry="26" />
<ellipse fill="#ffffff" fill-opacity="0.501961" cx="0" cy="157" rx="10" ry="10" />
<ellipse fill="#ffffee" fill-opacity="0.501961" cx="171" cy="14" rx="21" ry="21" />
<ellipse fill="#392d1d" fill-opacity="0.501961" cx="81" cy="52" rx="10" ry="10" />
<ellipse fill="#ae6e34" fill-opacity="0.501961" cx="37" cy="136" rx="13" ry="13" />
<ellipse fill="#928b6f" fill-opacity="0.501961" cx="149" cy="54" rx="9" ry="9" />
<ellipse fill="#ffffe9" fill-opacity="0.501961" cx="147" cy="173" rx="4" ry="4" />
<ellipse fill="#fffff1" fill-opacity="0.501961" cx="30" cy="96" rx="9" ry="9" />
<ellipse fill="#000113" fill-opacity="0.501961" cx="57" cy="108" rx="4" ry="4" />
<ellipse fill="#ffffff" fill-opacity="0.501961" cx="128" cy="175" rx="3" ry="3" />
<ellipse fill="#0d7e8a" fill-opacity="0.501961" cx="84" cy="74" rx="12" ry="12" />
<ellipse fill="#eee6b3" fill-opacity="0.501961" cx="127" cy="47" rx="5" ry="5" />
<ellipse fill="#fffffd" fill-opacity="0.501961" cx="0" cy="181" rx="10" ry="10" />
<ellipse fill="#2a372d" fill-opacity="0.501961" cx="132" cy="169" rx="5" ry="5" />
<ellipse fill="#203a44" fill-opacity="0.501961" cx="97" cy="111" rx="14" ry="14" />
<ellipse fill="#fffffe" fill-opacity="0.501961" cx="135" cy="118" rx="7" ry="7" />
<ellipse fill="#ffffff" fill-opacity="0.501961" cx="56" cy="114" rx="3" ry="3" />
<ellipse fill="#ffffff" fill-opacity="0.501961" cx="43" cy="176" rx="4" ry="4" />
<ellipse fill="#3fccd4" fill-opacity="0.501961" cx="61" cy="44" rx="9" ry="9" />
<ellipse fill="#243031" fill-opacity="0.501961" cx="29" cy="208" rx="7" ry="7" />
<ellipse fill="#fffff5" fill-opacity="0.501961" cx="41" cy="0" rx="15" ry="15" />
<ellipse fill="#6c4e24" fill-opacity="0.501961" cx="139" cy="186" rx="5" ry="5" />
<ellipse fill="#50a099" fill-opacity="0.501961" cx="67" cy="143" rx="17" ry="17" />
<ellipse fill="#796b49" fill-opacity="0.501961" cx="94" cy="22" rx="10" ry="10" />
<ellipse fill="#c5d6ba" fill-opacity="0.501961" cx="135" cy="181" rx="5" ry="5" />
<ellipse fill="#2e291f" fill-opacity="0.501961" cx="115" cy="100" rx="10" ry="10" />
<ellipse fill="#ffffff" fill-opacity="0.501961" cx="125" cy="153" rx="3" ry="3" />
<ellipse fill="#2d1c15" fill-opacity="0.501961" cx="13" cy="163" rx="5" ry="5" />
<ellipse fill="#ffffff" fill-opacity="0.501961" cx="92" cy="44" rx="3" ry="3" />
<ellipse fill="#422c27" fill-opacity="0.501961" cx="63" cy="220" rx="7" ry="7" />
<ellipse fill="#303028" fill-opacity="0.501961" cx="46" cy="60" rx="11" ry="11" />
<ellipse fill="#fffff3" fill-opacity="0.501961" cx="0" cy="135" rx="15" ry="15" />
<ellipse fill="#75765d" fill-opacity="0.501961" cx="103" cy="44" rx="10" ry="10" />
<ellipse fill="#417e7f" fill-opacity="0.501961" cx="105" cy="222" rx="3" ry="3" />
<ellipse fill="#ffffff" fill-opacity="0.501961" cx="81" cy="29" rx="5" ry="5" />
<ellipse fill="#61b7ad" fill-opacity="0.501961" cx="101" cy="137" rx="15" ry="15" />
<ellipse fill="#fffdec" fill-opacity="0.501961" cx="168" cy="211" rx="33" ry="33" />
<ellipse fill="#6ddeed" fill-opacity="0.501961" cx="98" cy="89" rx="9" ry="9" />
<ellipse fill="#353126" fill-opacity="0.501961" cx="165" cy="104" rx="9" ry="9" />
<ellipse fill="#008592" fill-opacity="0.501961" cx="52" cy="23" rx="5" ry="5" />
<ellipse fill="#0d1f2a" fill-opacity="0.501961" cx="126" cy="162" rx="4" ry="4" />
<ellipse fill="#ffffed" fill-opacity="0.501961" cx="41" cy="255" rx="27" ry="27" />
<ellipse fill="#fffff3" fill-opacity="0.501961" cx="135" cy="147" rx="9" ry="9" />
<ellipse fill="#fffff5" fill-opacity="0.501961" cx="33" cy="119" rx="6" ry="6" />
<ellipse fill="#ffffef" fill-opacity="0.501961" cx="68" cy="0" rx="23" ry="23" />
<ellipse fill="#f3fee9" fill-opacity="0.501961" cx="161" cy="166" rx="4" ry="4" />
<ellipse fill="#fffbfa" fill-opacity="0.501961" cx="70" cy="181" rx="3" ry="3" />
<ellipse fill="#707669" fill-opacity="0.501961" cx="47" cy="168" rx="6" ry="6" />
<ellipse fill="#2e280f" fill-opacity="0.501961" cx="107" cy="176" rx="4" ry="4" />
<ellipse fill="#fffcec" fill-opacity="0.501961" cx="1" cy="64" rx="29" ry="29" />
<ellipse fill="#fffff0" fill-opacity="0.501961" cx="163" cy="69" rx="11" ry="11" />
<ellipse fill="#175f69" fill-opacity="0.501961" cx="39" cy="77" rx="5" ry="5" />
<ellipse fill="#7e6647" fill-opacity="0.501961" cx="90" cy="212" rx="9" ry="9" />
<ellipse fill="#39322e" fill-opacity="0.501961" cx="122" cy="189" rx="5" ry="5" />
<ellipse fill="#fddda6" fill-opacity="0.501961" cx="85" cy="199" rx="4" ry="4" />
<ellipse fill="#793d0a" fill-opacity="0.501961" cx="148" cy="181" rx="4" ry="4" />
<ellipse fill="#5de9f6" fill-opacity="0.501961" cx="110" cy="84" rx="7" ry="7" />
<ellipse fill="#79deed" fill-opacity="0.501961" cx="65" cy="65" rx="9" ry="9" />
<ellipse fill="#4b3f31" fill-opacity="0.501961" cx="27" cy="223" rx="3" ry="3" />
<ellipse fill="#c5e0d7" fill-opacity="0.501961" cx="130" cy="189" rx="4" ry="4" />
<ellipse fill="#b0b95d" fill-opacity="0.501961" cx="22" cy="140" rx="8" ry="8" />
<ellipse fill="#ffffff" fill-opacity="0.501961" cx="88" cy="40" rx="3" ry="3" />
<ellipse fill="#008e98" fill-opacity="0.501961" cx="119" cy="136" rx="7" ry="7" />
<ellipse fill="#fffffd" fill-opacity="0.501961" cx="98" cy="224" rx="6" ry="6" />
<ellipse fill="#fffff8" fill-opacity="0.501961" cx="1" cy="32" rx="11" ry="11" />
<ellipse fill="#8c6035" fill-opacity="0.501961" cx="121" cy="69" rx="10" ry="10" />
<ellipse fill="#cd7823" fill-opacity="0.501961" cx="60" cy="121" rx="6" ry="6" />
<ellipse fill="#5a5846" fill-opacity="0.501961" cx="143" cy="35" rx="15" ry="15" />
<ellipse fill="#ffffff" fill-opacity="0.501961" cx="181" cy="107" rx="8" ry="8" />
<ellipse fill="#fffff4" fill-opacity="0.501961" cx="22" cy="0" rx="13" ry="13" />
<ellipse fill="#71b971" fill-opacity="0.501961" cx="70" cy="211" rx="5" ry="5" />
<ellipse fill="#23251e" fill-opacity="0.501961" cx="15" cy="21" rx="7" ry="7" />
<ellipse fill="#fffff2" fill-opacity="0.501961" cx="110" cy="1" rx="15" ry="15" />
<ellipse fill="#4c888b" fill-opacity="0.501961" cx="88" cy="169" rx="10" ry="10" />
<ellipse fill="#687e7a" fill-opacity="0.501961" cx="109" cy="227" rx="3" ry="3" />
<ellipse fill="#ffffff" fill-opacity="0.501961" cx="112" cy="182" rx="4" ry="4" />
<ellipse fill="#273930" fill-opacity="0.501961" cx="101" cy="183" rx="4" ry="4" />
<ellipse fill="#825834" fill-opacity="0.501961" cx="75" cy="185" rx="5" ry="5" />
<ellipse fill="#d5d8c3" fill-opacity="0.501961" cx="87" cy="221" rx="8" ry="8" />
<ellipse fill="#ddd8ca" fill-opacity="0.501961" cx="91" cy="182" rx="7" ry="7" />
<ellipse fill="#fffbee" fill-opacity="0.501961" cx="149" cy="127" rx="17" ry="17" />
<ellipse fill="#faefd6" fill-opacity="0.501961" cx="102" cy="171" rx="4" ry="4" />
<ellipse fill="#abab88" fill-opacity="0.501961" cx="126" cy="40" rx="6" ry="6" />
<ellipse fill="#34372e" fill-opacity="0.501961" cx="151" cy="92" rx="14" ry="14" />
<ellipse fill="#76d77a" fill-opacity="0.501961" cx="21" cy="176" rx="4" ry="4" />
<ellipse fill="#203338" fill-opacity="0.501961" cx="47" cy="88" rx="11" ry="11" />
<ellipse fill="#5b4430" fill-opacity="0.501961" cx="54" cy="199" rx="10" ry="10" />
<ellipse fill="#31818f" fill-opacity="0.501961" cx="114" cy="152" rx="8" ry="8" />
<ellipse fill="#ccd7ce" fill-opacity="0.501961" cx="125" cy="114" rx="4" ry="4" />
<ellipse fill="#393931" fill-opacity="0.501961" cx="128" cy="23" rx="6" ry="6" />
<ellipse fill="#160817" fill-opacity="0.501961" cx="34" cy="153" rx="3" ry="3" />
<ellipse fill="#fefbed" fill-opacity="0.501961" cx="144" cy="232" rx="33" ry="33" />
<ellipse fill="#fcfaeb" fill-opacity="0.501961" cx="0" cy="206" rx="18" ry="18" />
<ellipse fill="#001028" fill-opacity="0.501961" cx="43" cy="138" rx="3" ry="3" />
<ellipse fill="#623c14" fill-opacity="0.501961" cx="158" cy="175" rx="4" ry="4" />
<ellipse fill="#524230" fill-opacity="0.501961" cx="94" cy="204" rx="7" ry="7" />
<ellipse fill="#b6995e" fill-opacity="0.501961" cx="115" cy="208" rx="6" ry="6" />
<ellipse fill="#b0c6cf" fill-opacity="0.501961" cx="58" cy="173" rx="5" ry="5" />
<ellipse fill="#fcc570" fill-opacity="0.501961" cx="77" cy="128" rx="3" ry="3" />
<ellipse fill="#fffff5" fill-opacity="0.501961" cx="32" cy="69" rx="5" ry="5" />
<ellipse fill="#fffcee" fill-opacity="0.501961" cx="77" cy="249" rx="26" ry="26" />
<ellipse fill="#432b24" fill-opacity="0.501961" cx="51" cy="224" rx="5" ry="5" />
<ellipse fill="#fffff5" fill-opacity="0.501961" cx="114" cy="195" rx="3" ry="3" />
<ellipse fill="#00000b" fill-opacity="0.501961" cx="122" cy="43" rx="2" ry="2" />
<ellipse fill="#ffffff" fill-opacity="0.501961" cx="50" cy="113" rx="5" ry="5" />
<ellipse fill="#3b514a" fill-opacity="0.501961" cx="116" cy="188" rx="4" ry="4" />
<ellipse fill="#5c563e" fill-opacity="0.501961" cx="167" cy="39" rx="6" ry="6" />
<ellipse fill="#fffffd" fill-opacity="0.501961" cx="24" cy="123" rx="6" ry="6" />
<ellipse fill="#6fde7a" fill-opacity="0.501961" cx="46" cy="212" rx="5" ry="5" />
<ellipse fill="#f2e7bc" fill-opacity="0.501961" cx="143" cy="176" rx="4" ry="4" />
<ellipse fill="#a58f61" fill-opacity="0.501961" cx="103" cy="31" rx="16" ry="16" />
<ellipse fill="#e3eae7" fill-opacity="0.501961" cx="133" cy="162" rx="4" ry="4" />
<ellipse fill="#43443a" fill-opacity="0.501961" cx="108" cy="200" rx="6" ry="6" />
<ellipse fill="#00a3ad" fill-opacity="0.501961" cx="80" cy="152" rx="7" ry="7" />
<ellipse fill="#e9efe4" fill-opacity="0.501961" cx="100" cy="195" rx="3" ry="3" />
<ellipse fill="#fffff3" fill-opacity="0.501961" cx="181" cy="52" rx="13" ry="13" />
<ellipse fill="#472914" fill-opacity="0.501961" cx="95" cy="194" rx="3" ry="3" />
<ellipse fill="#61441e" fill-opacity="0.501961" cx="134" cy="194" rx="4" ry="4" />
<ellipse fill="#80f888" fill-opacity="0.501961" cx="30" cy="184" rx="3" ry="3" />
<ellipse fill="#895f01" fill-opacity="0.501961" cx="42" cy="162" rx="3" ry="3" />
<ellipse fill="#463b2b" fill-opacity="0.501961" cx="29" cy="168" rx="5" ry="5" />
<ellipse fill="#dfce9c" fill-opacity="0.501961" cx="106" cy="25" rx="6" ry="6" />
<ellipse fill="#091b2d" fill-opacity="0.501961" cx="32" cy="134" rx="3" ry="3" />
<ellipse fill="#281c22" fill-opacity="0.501961" cx="71" cy="115" rx="5" ry="5" />
<ellipse fill="#ffffcc" fill-opacity="0.501961" cx="148" cy="61" rx="2" ry="2" />
<ellipse fill="#ecede5" fill-opacity="0.501961" cx="127" cy="197" rx="3" ry="3" />
<ellipse fill="#fbfff3" fill-opacity="0.501961" cx="41" cy="113" rx="7" ry="7" />
<ellipse fill="#826949" fill-opacity="0.501961" cx="98" cy="165" rx="5" ry="5" />
<ellipse fill="#2e3631" fill-opacity="0.501961" cx="38" cy="39" rx="16" ry="16" />
<ellipse fill="#449b97" fill-opacity="0.501961" cx="67" cy="133" rx="9" ry="9" />
<ellipse fill="#22302c" fill-opacity="0.501961" cx="68" cy="30" rx="4" ry="4" />
<ellipse fill="#4a3320" fill-opacity="0.501961" cx="50" cy="123" rx="4" ry="4" />
<ellipse fill="#14b1be" fill-opacity="0.501961" cx="92" cy="119" rx="3" ry="3" />
<ellipse fill="#ffffff" fill-opacity="0.501961" cx="69" cy="185" rx="2" ry="2" />
<ellipse fill="#1b5fa0" fill-opacity="0.501961" cx="83" cy="144" rx="6" ry="6" />
<ellipse fill="#fefbed" fill-opacity="0.501961" cx="11" cy="87" rx="25" ry="25" />
<ellipse fill="#000004" fill-opacity="0.501961" cx="122" cy="52" rx="2" ry="2" />
<ellipse fill="#283638" fill-opacity="0.501961" cx="107" cy="51" rx="4" ry="4" />
<ellipse fill="#554231" fill-opacity="0.501961" cx="79" cy="208" rx="8" ry="8" />
<ellipse fill="#292a27" fill-opacity="0.501961" cx="74" cy="39" rx="7" ry="7" />
<ellipse fill="#ffb757" fill-opacity="0.501961" cx="124" cy="63" rx="3" ry="3" />
<ellipse fill="#1b90a2" fill-opacity="0.501961" cx="42" cy="90" rx="4" ry="4" />
<ellipse fill="#32352c" fill-opacity="0.501961" cx="136" cy="97" rx="15" ry="15" />
<ellipse fill="#fffffd" fill-opacity="0.501961" cx="37" cy="166" rx="4" ry="4" />
<ellipse fill="#131c23" fill-opacity="0.501961" cx="33" cy="141" rx="3" ry="3" />
<ellipse fill="#ffffff" fill-opacity="0.501961" cx="117" cy="164" rx="3" ry="3" />
<ellipse fill="#bd4d0d" fill-opacity="0.501961" cx="59" cy="227" rx="3" ry="3" />
<ellipse fill="#00a5ac" fill-opacity="0.501961" cx="118" cy="120" rx="6" ry="6" />
<ellipse fill="#4c2c28" fill-opacity="0.501961" cx="42" cy="222" rx="6" ry="6" />
<ellipse fill="#fffff8" fill-opacity="0.501961" cx="0" cy="168" rx="8" ry="8" />
<ellipse fill="#ffffff" fill-opacity="0.501961" cx="93" cy="47" rx="2" ry="2" />
<ellipse fill="#ffe1c3" fill-opacity="0.501961" cx="94" cy="151" rx="3" ry="3" />
<ellipse fill="#fffff0" fill-opacity="0.501961" cx="0" cy="10" rx="12" ry="12" />
<ellipse fill="#96974d" fill-opacity="0.501961" cx="21" cy="150" rx="12" ry="12" />
<ellipse fill="#01b5b2" fill-opacity="0.501961" cx="102" cy="139" rx="6" ry="6" />
<ellipse fill="#7efc86" fill-opacity="0.501961" cx="33" cy="192" rx="3" ry="3" />
<ellipse fill="#70db7d" fill-opacity="0.501961" cx="60" cy="198" rx="3" ry="3" />
<ellipse fill="#303a33" fill-opacity="0.501961" cx="79" cy="47" rx="9" ry="9" />
<ellipse fill="#fcf9ed" fill-opacity="0.501961" cx="180" cy="138" rx="29" ry="29" />
<ellipse fill="#30342d" fill-opacity="0.501961" cx="124" cy="99" rx="13" ry="13" />
<ellipse fill="#696446" fill-opacity="0.501961" cx="158" cy="47" rx="9" ry="9" />
<ellipse fill="#04a8b1" fill-opacity="0.501961" cx="61" cy="30" rx="5" ry="5" />
</g>
</svg>