<svg height="680" width="1024" xmlns="http://www.w3.org/2000/svg"><path d="m0 0h1024v680h-1024z" fill="#3d5a66"/><g fill-opacity=".501961" transform="matrix(4 0 0 4 2 2)"><path d="m152.348565-10.928775-39.013055 21.521403-56.744109 15.928602-72.591401-34.487432z" fill="#c4e1ff"/><path d="m44.357343 68.055753-45.917552-84.055753-13.141461 194.545558 50.242158 4.832747z" fill="#0b1700"/><path d="m141.988177 60.541175 129.011823-5.717689-22.534809-70.823486-214.454269 39.849241z" fill="#0065bb"/><path d="m193.284535 91.831599-154.175992 93.168401 10.042299-121.994154 23.557768 62.998388z" fill="#8d9faa"/><path d="m106.250832 42.360331 4.21138 71.98783-42.981791 9.472416-8.635133-81.49472z" fill="#261f00"/><path d="m144.294227 75.604328 126.705773 49.334761v-61.020599l-99.633393-7.132767z" fill="#3e2b09"/><path d="m118.42608 80.199548-11.129045-58.502735 68.117301 89.584146-72.58009 20.520696z" fill="#5193bf"/><path d="m118.13731 139.278128 15.73296-21.898148 78.962029 11.436858-90.325427 21.798089z" fill="#201100"/><path d="m200.649211 88.848785 37.18196 49.958004-20.291555 5.943627-43.266698-37.071167z" fill="#7e9eae"/><path d="m130.210172 78.666479-22.495089-26.351038 109.668382-28.404822-11.263236 16.317138z" fill="#6197b6"/><path d="m90.869735 147.381006 157.156506-12.946381-21.061414 42.032013-137.680356-10.875722z" fill="#796c61"/><path d="m270.899516 17.493179-10.965953-18.457637-114.335678-7.203581-83.920211 52.57417z" fill="#003e82"/><path d="m143.687901 15.248923 118.580993 17.292181-1.399938-17.875983-50.046952 54.956928z" fill="#4383a9"/><path d="m-16 48.660494 126.609048 49.552812 8.703311-21.930032 17.404555-7.129329z" fill="#3e382c"/><path d="m63.80796 81.319222-24.651228 66.591912-4.563023-19.551552 31.190823 26.613336z" fill="#92a6b1"/><path d="m28.57867-7.57835 29.573037 9.749838-1.499444 22.229763-4.741343.806882z" fill="#e3e5e4"/><path d="m36.981034 99.990238 10.89564 24.56459-47.09876 60.445172-15.611743-58.975816z" fill="#003519"/><path d="m212.6483 24.855257-6.888816 17.732186-15.848048 1.796351.864151-13.290852z" fill="#c4c2cb"/><path d="m155.440876 38.443491-18.183759-4.369056 27.552114-16.194291 20.666715.455034z" fill="#6e91ac"/><path d="m31.727779 138.718841 77.703825-16.752373 18.514656 40.388203-59.59067 2.635315z" fill="#79858c"/><path d="m271 95.010247v89.989753l-55.622648-101.583933 18.086949-37.274918z" fill="#4e4427"/><path d="m145.945276 173.503377-26.39415 9.297785 19.798615-56.941429-24.411474 11.903029z" fill="#1a190a"/><path d="m153.068459 81.112093 31.918028 18.657988 19.544767-32.982839-27.525084-18.507631z" fill="#252b21"/><path d="m177.202017 129.393166-7.75933-14.333194 32.163725 8.595243-11.529256 18.370577z" fill="#11150a"/><path d="m25.009251 4.883627 9.643901 3.950328 31.562731 29.606356-46.502937-25.821903z" fill="#0772b5"/><path d="m173.920994 120.749732 4.799709-13.155263-9.25704-18.823826-48.591335-8.478432z" fill="#7492a6"/><path d="m32.401918 52.025672 7.759595 4.231341 23.710985 1.680206 1.249531-17.240268z" fill="#86848d"/><path d="m155.866298-16 8.1749 84.035463 30.785831-43.707091-119.544075 15.369444z" fill="#004a89"/><path d="m123.678613 122.366791-15.289562-18.845002 31.455184-13.702721 11.921068 32.732672z" fill="#266c94"/><path d="m195.154792 58.773412 48.210982-11.847984-26.142644 17.504008-10.01972 2.754318z" fill="#1584b8"/><path d="m100.363428 59.921727-6.080237 55.976263 3.86407-.850395 25.58839-41.559486z" fill="#0f2518"/><path d="m63.564304 76.24313-9.926184 11.245723-12.586693-11.878026 12.039525 1.494587z" fill="#98b4bf"/><path d="m-16 69.810146 72.363307-10.02771 18.954179-25.373074 32.652024 46.945874z" fill="#484035"/><path d="m50.139493 160.202351-22.251008-2.040949 22.18396 26.838598 56.222763-17.912775z" fill="#2c3b41"/><path d="m188.039424 90.464244 15.028584 48.401911 4.686923-14.368468-3.235087-36.963389z" fill="#7192aa"/><path d="m76.53075 34.992518 33.435101 28.841077-8.427613-23.029157-36.716148 1.919033z" fill="#1b0d02"/><path d="m103.17696 37.334746 2.313582 7.88794 8.189339 25.627554 10.822128-11.27262z" fill="#629bc3"/><path d="m237.786707 42.902068 3.132289-10.737701 4.686496-13.544374-21.619405 23.033911z" fill="#7f9cb6"/><path d="m126.312983 7.949519-48.825002 14.776385-11.347114 16.817804-4.413465-32.692883z" fill="#6b8ba3"/><path d="m226.62511 101.576079-37.312206-24.490379 62.261619 28.885524-12.920207 18.313537z" fill="#13261e"/><path d="m69.836124 21.908566 138.563992-3.06217 12.577427 29.814936 35.876541-52.831816z" fill="#004481"/><path d="m202.439278 78.563698 44.77677 24.450009 23.783952 67.930231v-101.408751z" fill="#665741"/><path d="m156.031836 115.584228-95.066777 7.805037-27.918293 9.882349 115.357768-10.961401z" fill="#7f8b8c"/><path d="m-16 9.907069 18.378968 102.247042 30.431227.240366 1.901067-78.90799z" fill="#3d3c2f"/><path d="m-4.369634-16 52.261254 21.742834-62.01964-15.919691 42.113555 26.930448z" fill="#a9b8cc"/><path d="m68.470068 92.750524 39.072427-11.571428-3.182625 42.444842-33.972607-3.461167z" fill="#14402f"/><path d="m114.423344 15.421039-13.281085-8.350931-55.781689-7.064074 71.485906-16.006034z" fill="#b0b7c3"/><path d="m197.04917 71.432925 21.054897-7.407016 17.423368-11.077419 17.42444 10.951195z" fill="#272116"/><path d="m46.891319 153.819649-14.736195-19.934553 46.431011 1.090679-25.115852-41.769516z" fill="#859ba8"/><path d="m176.196868 51.860888-12.311966 14.122076-44.402487-3.527684 74.393873-31.067336z" fill="#25739e"/><path d="m271 55.111886-40.610812-3.802715 16.613458 8.367641 23.148448 3.772868z" fill="#0089ba"/><path d="m260.53776 185-31.228783-15.673325-21.573852-19.850937 47.592127-6.895966z" fill="#4f4b45"/><path d="m14.747493 104.773219 18.296372 19.504738 5.516046 43.640529-22.331194 9.599893z" fill="#022f19"/><path d="m248.194578 135.517909-28.134091-32.070836-6.191315 10.418503-25.720819 34.444632z" fill="#61797a"/><path d="m139.729893 87.369656 12.994181-21.672366-10.824386-1.684056 12.958844 32.576173z" fill="#78a3c1"/><path d="m172.334505 43.041452-33.234022-13.431265 28.23978 4.991183-32.135547 18.206383z" fill="#6892af"/><path d="m136.089256 160.464289-96.84594 7.249797 34.12141-44.663373 27.454264 12.687328z" fill="#65767f"/><path d="m156.862104 61.598597 17.282299 17.285968-16.593043 10.118306-7.714092-8.573577z" fill="#1e1f16"/><path d="m12.315516 9.248701 26.19614 81.782955-5.509158-55.291153-5.626652-1.512391z" fill="#1e1c1a"/><path d="m88.748849 25.487896-54.918533 3.570666 110.283444 17.582386 17.864704-5.45001z" fill="#01639b"/><path d="m68.963231 100.38735-28.613859-3.528996-8.172358-2.673167-26.477657 11.833858z" fill="#444a42"/><path d="m45.549889 130.675136-.521308-12.271791-7.143092-15.432227-22.082868 13.119461z" fill="#041d17"/><path d="m146.01442 160.095336-4.807094 24.904664-22.880793-64.656644 8.823948 47.861072z" fill="#282b25"/><path d="m174.709101 120.813349-7.766416-.286443-49.405649 8.072961 64.14424-18.112387z" fill="#6c573e"/><path d="m46.383197 73.08296-60.132356-3.920625 10.101558-13.557893 68.055277 1.221387z" fill="#414e4b"/><path d="m11.725626 98.168754-4.104439-21.468888 16.410636 2.185731 2.416841 17.899757z" fill="#082111"/><path d="m116.958811 160.557585 44.022139.720968-12.407537 23.721447 34.317646-47.950396z" fill="#787169"/><path d="m271 149.697517-27.691389-5.243317 16.985151-24.088896-11.662119 1.05237z" fill="#263508"/><path d="m250.031779-16 20.968221 26.108485-77.290369 19.185828-24.61899 2.583163z" fill="#004585"/><path d="m41.040075 71.324434 24.673782 20.64935-24.799443 12.581066 21.728637 46.195234z" fill="#7291a1"/><path d="m271 122.730738-41.334735 2.237032-1.443929-3.747092-24.392285-6.017318z" fill="#2a3e3d"/><path d="m139.417609 101.367403 19.76333 12.503698-36.6516 1.944139-14.108841-21.874995z" fill="#1f6790"/><path d="m190.003845 115.325432-65.403896 32.0635-6.164986-11.470915 5.456544-6.849267z" fill="#2b2a18"/><path d="m49.98284 51.311297 12.226663 5.020271-26.665118-1.090116-1.177091-15.812771z" fill="#878583"/><path d="m106.972914 54.060126 5.613676 12.70062 6.652636 1.441124 8.700681-34.451429z" fill="#5e8eb0"/><path d="m38.988038 112.571973-1.198146-24.92287-6.051112-10.190839 11.428622-6.931957z" fill="#04100a"/><path d="m99.237752 41.625362-7.315253 36.616355-47.537276 8.701722 8.14073 1.39162z" fill="#4f493b"/><path d="m100.766439 171.348961-3.378439-32.467789-3.94159-23.782335 33.559894 3.723362z" fill="#73858d"/><path d="m108.041263 104.574895 43.264066-16.474949-31.849121-11.292752-8.511722 30.77753z" fill="#4988b4"/><path d="m100.557387 42.759502-.612822 43.850256 26.454279-11.962738-66.742578-33.392627z" fill="#30261f"/><path d="m91.878358 5.494901-35.313305 52.154797 26.925981-55.076911 9.27015 4.868307z" fill="#497796"/><path d="m18.73346 13.836821 30.405787 8.456465-8.982777 1.786381-5.128354-15.144445z" fill="#04619e"/><path d="m152.23759 101.915732-16.149681-42.274839 34.017085 53.290006-1.790906-29.44608z" fill="#6f93ab"/><path d="m118.513763 1.14614 13.260127 43.341513 23.290472-25.094505 70.567424-11.625447z" fill="#00437f"/><path d="m163.429036 68.602082-8.351705-1.470955 33.925589-8.281776-6.855856-7.737571z" fill="#2e1e0d"/><path d="m168.646696 42.059906 4.095385-5.731336-4.922823 28.236503-53.079722-3.310345z" fill="#2f77a1"/><path d="m251.314393 115.738148 17.239534 14.509815-18.320167-38.792997-2.143794 21.44173z" fill="#7b7158"/><path d="m44.143388 175.351952 21.695723-66.507465 3.917962 1.954629-22.154172 10.267815z" fill="#899ca5"/><path d="m247.299146 96.257406 1.192473 15.56305-36.788876-27.240572 14.166354 20.018238z" fill="#14231e"/><path d="m181.063906 70.195555 6.580259 2.410828-5.778155-7.476388-16.450505 3.366522z" fill="#706151"/><path d="m-16 1.490478 26.937723 1.891757 3.862587 9.860117 16.358881 27.496673z" fill="#2b2128"/><path d="m155.627184 35.0367 4.059645-17.401975 28.396785 2.572759-49.620351 14.842881z" fill="#728fad"/><path d="m17.67128 150.054536-33.67128 11.503603 13.920159-39.147887 40.121355-6.135374z" fill="#003d2f"/><path d="m147.318314 150.488113-9.705349-3.407211 53.571558-10.832565-45.462812-15.973277z" fill="#283025"/><path d="m246.370954 121.097589-38.341113 22.587337 52.368057 4.325867-16.943343 8.357469z" fill="#61766c"/><path d="m241.297612 32.398427 2.667013-11.724748-4.848312 1.671316-3.788906 13.980005z" fill="#8daac1"/><path d="m66.064319 77.70638-15.575403 3.651551-8.001643-3.958511 17.683692.399234z" fill="#b6c8d2"/><path d="m128.200599 158.800417-44.168304 20.927341 47.238673 2.150246-26.217345-58.213906z" fill="#6b8190"/><path d="m149.330054 98.417657-23.641834 29.135279 63.533614-31.776329 9.332478 27.466423z" fill="#547c95"/><path d="m94.689953 119.674037-22.938341 11.231257 37.059126-41.485566-45.702693 1.789805z" fill="#274c3c"/><path d="m234.937906 37.550252 36.062094-32.288775-67.133805-15.571841 62.18548 49.440532z" fill="#004e88"/><path d="m40.798346 109.871726-28.532457-57.73421 8.37717-23.309004.950396 19.513505z" fill="#4c4c41"/><path d="m142.167471 51.450374 6.948466-8.524833 7.905695 4.086668-5.738682.227776z" fill="#97adc0"/><path d="m24.20296.552211-5.153731 8.416201 30.668227 18.272809-58.207507-43.241221z" fill="#176dab"/><path d="m27.673423 9.393349 9.507597-24.116622 25.263377 28.140607-28.65267-3.790967z" fill="#bec9d2"/><path d="m8.328496 9.611228 36.797519 24.480855 26.785648 4.838862-12.617758-4.234152z" fill="#333d48"/><path d="m107.142118 113.150996-29.47155 5.597635 40.995613-33.246004-15.691602-41.167898z" fill="#192920"/><path d="m142.730163 124.940455 53.511824 12.215793 3.838535-8.611563-13.139164.13148z" fill="#081815"/><path d="m159.349468-16 83.468879 6.666572-38.00508 13.923722-38.358405-15.830844z" fill="#547f9f"/><path d="m13.647523 8.519387 7.748828-.531044-29.890823-12.980131 13.398911-11.008212z" fill="#d9e2e8"/><path d="m136.599195 45.173736-4.509901 7.700408-22.961284-1.198785 3.177058 3.829427z" fill="#8ba8c1"/><path d="m154.402547 128.096893 13.81696 7.944979-39.450468-1.086571 13.173552-3.745919z" fill="#4c4d3e"/><path d="m201.002926 36.932323 30.885905-15.079682-39.833211 32.557505 75.939597-.886336z" fill="#2a6d99"/><path d="m110.473888 38.14151-33.762365-14.089052 26.796408-12.380853 30.655456 26.874066z" fill="#004c8f"/><path d="m131.941985 163.995747 33.075176-25.518288 3.947978 6.264741-38.076108-3.261659z" fill="#666154"/><path d="m46.090852 82.512772-5.921045 16.317822 20.426597-14.778073-2.64986-4.69912z" fill="#527b84"/><path d="m-9.487967 90.791064 69.144523-22.206275-4.533053 8.047143-38.403503.135833z" fill="#192920"/><path d="m81.890472 140.615509-38.652014 19.132767-9.553804-30.762429 17.819521 4.438408z" fill="#808a8e"/><path d="m196.349032-16-12.066704 57.131966-56.233691-1.954631 62.336554-1.9346z" fill="#005388"/><path d="m219.546646 124.345701-29.076482 16.786932 43.557022 4.321252-7.723262-4.343726z" fill="#6b858c"/><path d="m-6.548799 151.088949-9.451201 24.977364 60.406377-28.763179-7.016034-.167131z" fill="#254b27"/><path d="m-14.177576 110.088351 53.367156-12.22159-10.800914-28.775345 1.595621 41.832538z" fill="#474f40"/><path d="m155.500992 152.177623-4.305304 3.973139 1.590955 4.569745-12.137681-8.340345z" fill="#989189"/><path d="m169.371721 45.008332 34.584454 17.953469-11.947701-13.197978-37.523222 9.121731z" fill="#3d7fa7"/><path d="m160.046179 32.359047-18.107723 6.846258-1.208721-2.075181 3.568777-7.24015z" fill="#7497b4"/><path d="m168.182429 96.383769 56.047046-18.343878-12.219587 28.164145-20.104373-42.142898z" fill="#27372e"/><path d="m74.883031 14.025438-16.079644-30.025438 40.003522 21.555041-9.023604-21.555041z" fill="#b3bdc7"/><path d="m90.391104 79.193331 39.995337-11.853769 4.709326.625919-38.044116 15.257143z" fill="#282a25"/><path d="m202.024934 30.109358 1.061921 8.725068-5.246024 5.78761-14.32182-4.00291z" fill="#9fb1c2"/><path d="m166.925881 60.059763 41.20301 23.908102 42.526338-24.755699 20.344771 15.174408z" fill="#453b2a"/><path d="m148.779814 74.321837-19.41038-10.285621 23.928175 1.620539-30.151201 9.807634z" fill="#74a1b8"/><path d="m178.720341 150.970327 67.24401 11.47781-52.283062-19.372124 5.421252 31.829917z" fill="#4a5053"/><path d="m41.590901 104.131246 4.076284 27.279024-7.249966 2.204884 7.887203 1.279651z" fill="#2a2f2e"/><path d="m206.258876 116.499371-3.369399-29.275893-9.369328 13.890057 17.0304 13.272454z" fill="#819db0"/><path d="m94.772397 164.470462-49.890419 6.925344 6.185522-2.657988 89.148966 16.262182z" fill="#213540"/><path d="m15.293879 37.033852-13.610385 2.530244 1.779286 19.219983 4.919125 7.166821z" fill="#22231f"/><path d="m246.31036 119.295856 16.189467 22.849387-26.222839-16.169348 34.723012 11.267237z" fill="#29391d"/><path d="m134.290376 163.39247-7.522821 2.193639-2.022673 12.836737 30.279301-18.805738z" fill="#2d2b21"/><path d="m109.735727 125.799804-65.738517-6.84239 41.236484 6.3841 29.047562 10.501203z" fill="#7f939c"/><path d="m210.144949 122.465611-2.126872-28.424606 6.707052 13.836847 20.377555 1.162423z" fill="#456879"/><path d="m123.372006 128.732907-3.166296 7.332551 11.680634 16.281216-8.221532.854916z" fill="#0e1711"/><path d="m46.865887 185-9.754064-28.477173-13.214195 22.292666 7.333324-53.478016z" fill="#162919"/><path d="m126.948077 4.768406 55.656654-20.768406-68.649573 15.32456 1.022579 11.086167z" fill="#5c81a5"/><path d="m78.674551 39.272589-2.980968-13.845778 27.246487 13.074283-8.88714 2.355782z" fill="#0070a8"/><path d="m45.164613 49.718448-31.267277-33.572455 52.296418 26.074921-2.60858 7.239043z" fill="#4a5d69"/><path d="m57.201453 136.87054-20.859265 2.66437 5.432689 7.796082 11.204878-5.062893z" fill="#9aa9af"/><path d="m150.209365 79.23599 55.633963 3.739466-54.644463-15.115902-2.804381 4.695548z" fill="#23271d"/><path d="m66.191578 14.071256 6.567407 10.12996-34.240817-12.027917 15.042765 14.458917z" fill="#85a1b6"/><path d="m150.110113 139.593045 12.756474 3.195131-40.597121-2.495719 1.495259-8.081673z" fill="#121a11"/><path d="m42.346079 165.655523-7.166059-16.950717 29.842894 28.647346 5.921912-23.132491z" fill="#4c5d6b"/><path d="m97.837694 122.478038 7.97241-.762431-24.49187-18.526156 28.576857 2.682549z" fill="#103427"/><path d="m197.671374 59.094536 28.008341 1.200487-18.39834 4.276754 3.089368 3.108764z" fill="#1b8cbd"/><path d="m112.216143 116.840018 12.0148-22.941614-8.411392-4.658854-3.062226-3.162867z" fill="#2e7eac"/><path d="m62.159525 48.061405-25.304815 8.332017-.984352-8.772818 26.0834 8.992917z" fill="#7f888e"/><path d="m61.923956 53.297826 20.55056-13.050218-23.367014 43.506307 15.712843 7.805139z" fill="#3c3222"/><path d="m71.121667 122.201061 35.909134-13.155589-44.436591-1.195339 6.690611-17.238647z" fill="#122e26"/><path d="m225.59275 26.975766-15.129136 1.247832 22.670612 13.789112-11.211982-11.175545z" fill="#4e83a7"/><path d="m36.024266 120.99776 7.97276 9.831772.691615-10.559304-3.923833-13.561955z" fill="#00100c"/><path d="m78.003369 137.745828 14.276239-3.309291-22.429809 1.026283 20.453076 6.041242z" fill="#435253"/><path d="m266.732778 139.752754-76.485901-64.758602 67.335852 60.298691-37.472034-2.216095z" fill="#324334"/><path d="m77.391504 83.811664-3.063286-30.825051-5.264697 1.80587-1.942108 24.352667z" fill="#5e5039"/><path d="m245.434928 116.302248-5.940621-.352051-14.70002-3.928209-39.27751.465021z" fill="#6a8695"/><path d="m165.94884 12.949955 10.630144-22.584867 56.868826 44.367364 9.815094-34.589607z" fill="#004483"/><path d="m227.875308 85.139003 22.857597 12.908976 20.267095-14.356831-40.629071 15.400295z" fill="#70644c"/><path d="m32.125755 114.560952 10.558644-17.747548 7.395605 1.768009-17.263918 5.263222z" fill="#18201d"/><path d="m108.516073 58.221275-12.004061 29.562925 8.110553-49.713635-7.29361 4.417158z" fill="#1e1c16"/><path d="m201.876022 23.843823-42.985207 3.559475 19.408622 16.732281-2.709142-15.569092z" fill="#005185"/><path d="m95.941279 16.621613-18.567882-5.215617 7.682594 3.722915 21.563261-20.92677z" fill="#97a4b6"/><path d="m145.862547 121.962671 1.268343-1.142895 34.369965-13.247908-51.6008 13.227405z" fill="#6d8898"/><path d="m136.285784 57.161589 15.554001-20.582447-33.249347 15.179504 23.773184-22.709932z" fill="#0a6093"/><path d="m-3.096508 90.002599 7.612032 3.62969 9.919638 19.551336-8.070097-4.764098z" fill="#4c5a4d"/><path d="m7.086699 80.722492-23.086699-77.251264 41.579299 41.379174-27.839471-16.730926z" fill="#4b4644"/><path d="m178.905529 53.780509-4.994593 11.624859-3.501803-11.366028 38.58538 13.029111z" fill="#252219"/><path d="m98.934126 60.302804.201376-9.248196-2.306304 27.696307 31.36195-1.92728z" fill="#2f2d24"/><path d="m62.30075 104.966683-15.517085 22.987882-.696066-8.883821-6.814372-18.926726z" fill="#66859e"/><path d="m44.933382 146.531208 10.980849-39.984721 5.935782 27.739792 30.637355-8.316716z" fill="#8c9fa7"/><path d="m193.988409 135.899349 1.473735-1.638734-11.945736-4.428109 8.80592-11.54915z" fill="#04100f"/><path d="m77.151061 26.156086-15.120135 9.809536 6.769881.376983-4.888192-40.175453z" fill="#5985a5"/><path d="m62.412638 87.219737 3.360558 2.14515-11.202914 10.570491-12.986116-6.204848z" fill="#7695a1"/><path d="m270.26247 59.370763-24.15775.624156-6.705406-7.458164 31.600686 10.263114z" fill="#0086ba"/><path d="m168.746189 99.876421 31.066465-13.786988-16.669846 14.362476-48.881479 6.339702z" fill="#3a6373"/><path d="m146.303975 64.452785-17.41254 1.50085 39.713876-26.086134 29.380502 6.058466z" fill="#2d719c"/><path d="m36.48074-16 .187143 31.323157 26.867536-5.980433-11.898873 18.41927z" fill="#a3b7c7"/><path d="m25.735235 37.123456 6.922212 36.636627 2.179433-28.440574-.985541-7.232747z" fill="#23221a"/><path d="m64.708595 77.152356-9.861456 1.19686-9.236173 3.241636-1.05373-4.038052z" fill="#b4cad7"/><path d="m271 46.149694-92.895972.965684 78.522711-5.516964-18.907565-15.920864z" fill="#0b5e8d"/><path d="m191.27556 106.16499 16.893059 28.093915 47.928557-.260851-34.083097-5.158315z" fill="#6c848c"/><path d="m65.207247 49.988916 6.5886-13.136204 8.388133 3.141265 23.714646 4.457811z" fill="#26221a"/><path d="m271 74.046686-39.925202-20.754917-10.889116 12.721593 16.289041-5.40737z" fill="#28251a"/><path d="m36.655787 137.071545-52.655787-38.270951 47.629943 39.843601 18.240657-.956221z" fill="#0c2f23"/><path d="m257.726699 89.235146-48.452227-4.232845-9.985944-9.065135 42.392057-13.841447z" fill="#514632"/><path d="m118.641364 133.950142 56.308876-20.642946-5.434297-.719299-31.400926 12.190841z" fill="#544836"/><path d="m138.16831 90.791763-26.347124 5.653103 8.549084-2.975017-3.386434-17.212424z" fill="#588baf"/><path d="m152.811154 142.058575-18.951875 11.540347 19.024292 6.301952-17.054386-.28146z" fill="#4d4d45"/><path d="m157.549144 21.803059 5.748146-4.732068 18.755236-.273204 12.902328 2.875892z" fill="#2f6b96"/><path d="m122.272364 112.11484 19.218717 5.66471.863702-17.530089-16.474049.89664z" fill="#1b6289"/><path d="m158.538985 121.15028-37.319142 13.561583 46.345292-10.329278-11.171057 1.224548z" fill="#0f140c"/><path d="m42.205598 71.618 23.993445-11.925602-29.599359-4.353309-2.102327 13.562417z" fill="#394a57"/><path d="m161.596157 115.835853-21.333462-31.114987 23.106335 8.770517 8.0306.88557z" fill="#6f90a6"/><path d="m129.619493 33.88031-21.919861 29.953037 26.408948 15.227827-26.929557-24.936517z" fill="#5784a4"/><path d="m192.08061 41.032283 19.131303-17.863803 1.051182 10.276875-17.722271-5.729421z" fill="#94abc1"/><path d="m28.942943 69.00908 1.787837 6.234038 9.641437 24.578107 4.321116-17.333593z" fill="#111f19"/><path d="m65.031266 102.617423-15.556148-3.150889 37.293865-3.473239-15.195181-1.815794z" fill="#285455"/><path d="m133.199853 136.717986 29.588551 2.420434-28.425148-6.35145-15.621094 12.424504z" fill="#454739"/><path d="m132.982533 115.686054-33.877235 4.754811 14.471035-9.448799-.527916 31.380046z" fill="#6d8795"/><path d="m105.657334 142.294736-77.773179 42.705264 54.181785-34.686617 1.074702-12.753237z" fill="#5c6e78"/><path d="m117.004196 71.644261 17.042191-.431921.281938-.760742-5.66783-4.034756z" fill="#2e333c"/><path d="m91.576512 43.035754-10.176291 49.169454 8.610364-8.36787 9.702846-21.267751z" fill="#4d483c"/><path d="m40.499337-16 8.451219 3.454979 4.819508 18.690581-4.786348 3.069038z" fill="#e2e5e4"/><path d="m113.860425 160.947454-15.884896 10.552097 25.321184-9.103485 26.256828-4.038048z" fill="#485963"/><path d="m138.582387 68.761855 12.298579-.490149 2.280966-1.200662-19.708214-1.020715z" fill="#a0b6ce"/><path d="m168.514396 65.162458-2.795894-17.311269-10.698583 15.647528 6.698888.795873z" fill="#4083a5"/><path d="m45.208423 185-14.505442-39.168186 17.730317 19.065782-25.331697-21.524072z" fill="#213423"/><path d="m161.058943 8.994685-8.916558 22.159348-72.275097-7.628871 56.334033-14.370238z" fill="#004084"/><path d="m129.54425 47.680953-19.420376 8.954423 22.540177-7.591979 1.617994-2.810104z" fill="#8cabc3"/><path d="m209.62621 183.027222 15.848569-70.154632 5.484198-4.859471-.755997 11.166317z" fill="#62757c"/><path d="m187.74503 21.922099-31.730396 4.739489 1.358326-4.56922 25.906122-.90933z" fill="#7992ad"/><path d="m90.867904 127.185631 5.281708-5.930449-10.349142 1.34834-9.765538 11.960183z" fill="#84979f"/><path d="m42.55363 88.813092 16.663785 6.547626-8.144721.264683 13.856427-12.793911z" fill="#456c75"/><path d="m249.86001 106.906208-19.435406 16.334368 22.235968.666401-16.659552-4.277962z" fill="#212d1c"/><path d="m203.414516 13.009913-20.492972 31.830589 8.868414-46.10552-60.329819 2.439286z" fill="#025689"/><path d="m192.687714 125.595765 17.596887 12.858395-14.990093-18.511263-.8667 2.96521z" fill="#3d5160"/><path d="m78.671383 130.758717-11.085303-3.169879 39.340426-10.803963-25.96499 2.649046z" fill="#46524d"/><path d="m28.546238 92.520963-4.098536-24.230543-8.898501 49.165485-1.060208-20.218532z" fill="#132a20"/><path d="m196.376503 142.718223 19.250211 7.239627-21.106494-12.364114-6.473562 9.912581z" fill="#768287"/><path d="m3.663359 54.025447 17.964744 9.965398-9.014888-36.147131 1.94916 28.484252z" fill="#565045"/><path d="m154.272959 157.928999-11.921481-2.634374 3.95099-5.744945 4.903084 3.64534z" fill="#9a968d"/><path d="m84.472945 11.793811 3.530633-5.234003-4.905105-.694981-5.137352.173915z" fill="#39648d"/><path d="m158.359848 104.341819 52.451761 24.243531-11.261597-7.408933-25.240648-24.147447z" fill="#5c7f94"/><path d="m4.364151 60.839759-20.364151-12.281959 24.629196 17.684032-4.143794 10.923282z" fill="#5d6754"/><path d="m179.821011 113.570295 21.460507 16.402871-8.903328-11.140112-25.695679 21.442017z" fill="#2e3733"/><path d="m113.904425 164.2845-10.449344-37.932286 23.890826 29.289163-51.666218-5.504795z" fill="#71828c"/><path d="m124.25836 158.566304-28.750715-42.584749-15.157588 3.31925 16.460429-1.291713z" fill="#66777b"/><path d="m84.733863 124.630371-45.063424 5.004022 12.711384 2.115063 14.589707-7.704279z" fill="#8d9b9f"/><path d="m192.260374 53.040918-5.553119 4.083787 11.446747 2.366926 72.845998-10.867579z" fill="#3279a0"/><path d="m44.580588 90.006027 15.143103 3.404177-15.802636 1.041602-4.318358 2.427051z" fill="#7b949d"/><path d="m51.350276 19.872199-14.945867 1.696568-1.684147 5.236245 3.296086-12.691737z" fill="#4980aa"/><path d="m64.823254 26.223407-22.618853.20603 19.951354 8.587779 1.797868.054797z" fill="#0172a4"/><path d="m155.705752 64.640547 24.545963-1.183993-24.508431 13.135656 47.838251.391339z" fill="#413d32"/><path d="m227.445791 139.798835 43.554209 29.94263-59.825507-25.198439 44.675228.163297z" fill="#4a5553"/><path d="m211.416203 67.772052-29.127671 11.57272 26.242468 12.519073-20.761242-34.710436z" fill="#242c26"/><path d="m237.729899 113.521025.94659-17.926637 9.990431 11.301593.635558 9.455284z" fill="#182718"/><path d="m111.430051 71.357975-7.625657-29.534694-6.455097 5.800675 18.75624 28.130153z" fill="#1b1613"/><path d="m61.169535 127.364318.174943 30.116245-26.549562-9.056846 50.51918 1.277013z" fill="#74828a"/><path d="m13.971968 19.381146-2.627547-15.661198-27.344421 3.084091 8.775199-19.873142z" fill="#232026"/><path d="m233.468363 135.863057-3.76927 4.694349 17.580728 1.560629-22.19855-6.351638z" fill="#7a8e84"/><path d="m1.083611 93.799162 3.476679-8.174211 24.509192-4.31815-6.115354 8.273999z" fill="#334432"/><path d="m32.095215 169.430928 5.14318-14.797366-24.90087 1.337818 3.499067 29.02862z" fill="#062d15"/><path d="m103.772011 2.908891-5.452797 12.825652-38.96292 15.646053 45.829897-20.991085z" fill="#40789b"/><path d="m271 142.076525-41.534984-9.324789 20.795625 2.625475 12.823515-28.862886z" fill="#354025"/><path d="m163.724787 32.026349-25.347896 1.780952 26.114779 3.233489-2.686477 15.893674z" fill="#6e91ae"/><path d="m117.517398 10.777276-22.75675-26.777276h-1.074825l15.649133 30.392939z" fill="#a1b0be"/><path d="m-1.378363-16 9.761762 20.843963-17.829646-14.27176 30.635615 18.386675z" fill="#abbdcd"/><path d="m29.712727 94.313493 2.633365-3.746731.150409 8.311543-2.208845 9.911643z" fill="#676556"/><path d="m244.531483-16-8.652635 37.227328 3.698362 5.568038-17.885628 9.36227z" fill="#00518c"/><path d="m266.901637 44.780432-28.85125-7.420694-12.203441-1.724818 1.811088 2.431051z" fill="#5484a7"/><path d="m11.083621 74.413057 6.179243 31.581142 2.951641-29.819235-36.214505 23.657357z" fill="#0f2416"/><path d="m47.509062 158.78115-13.545796-7.920756 37.712029 13.45081-17.72813-10.927365z" fill="#717e88"/><path d="m45.841966 159.566536 5.824742 17.113736-12.558698-17.900072 28.90718 19.823027z" fill="#697a8a"/><path d="m205.265801 58.051279-7.700434 3.787257 36.77492-10.555654-13.397505 11.67172z" fill="#1779a4"/><path d="m111.345681 67.722118 15.998482 8.077756-6.79323.800519-7.913744-2.08713z" fill="#171f1e"/><path d="m57.767632 58.198016-2.958255-9.100911 11.141619-14.006927.087536 12.607744z" fill="#526a7c"/><path d="m231.115218 36.752218 10.210039-2.565877-5.398479-15.377292 8.397996 5.527197z" fill="#7499b6"/><path d="m139.25063 32.218322.164987.640879 11.417877-1.309891-1.749304 5.305952z" fill="#8aa2bc"/><path d="m135.958264 101.741098 14.268427 15.212431-42.557774 2.659681 49.282527-15.058915z" fill="#3c6d8a"/><path d="m210.94131 103.745322-7.35231-13.116415 17.241422 1.465977 9.44127 13.522472z" fill="#274240"/><path d="m127.789464 125.971181 4.618533-6.525876 21.613724-1.472218-44.80229 9.167336z" fill="#7a92a1"/><path d="m92.407925 40.53111-20.53952-21.637299 73.617962 18.772035-60.118175 3.422388z" fill="#005794"/><path d="m36.8575 8.312384-8.003123 3.18478-2.940823 5.529265 4.678564 1.863369z" fill="#025d9a"/><path d="m126.527885 164.029352-1.683129 16.41429-.362067 4.556358 11.520748-21.278073z" fill="#121810"/><path d="m14.237419 63.333017 21.920707-8.410433-14.027714-20.617976-3.594319 40.353569z" fill="#2f2f28"/><path d="m70.445249 116.137274-26.409069 6.533457 14.139342 2.424874-10.14488-12.660694z" fill="#7997ac"/><path d="m120.743746 39.658654 12.865402 3.628236-20.779816 5.038408 19.114213-10.394815z" fill="#5086aa"/><path d="m235.188423-7.333812-26.763658 31.402697 35.39257 2.556913-42.177915-14.085767z" fill="#003c84"/><path d="m240.435408 36.692276 3.826323-15.140651 23.505942 54.079247 3.232327-54.935093z" fill="#00578a"/><path d="m62.267071 61.638549-.517739 15.590726-3.899303-10.641573 2.478883-6.055584z" fill="#222f31"/><path d="m232.535185 41.559811 9.723071-15.742092-6.74084 4.840616-1.724464 12.368231z" fill="#94a9be"/><path d="m178.755122 136.875272 15.937787 4.783291-.737529 7.585229-40.072177 4.140869z" fill="#696963"/><path d="m208.388101 105.611183 5.336806 17.526436 6.706697 1.790945-3.27454-21.711954z" fill="#406374"/><path d="m206.861213 36.670245 6.510152-4.241445 2.532856-2.055216 4.449341 6.562489z" fill="#02588b"/><path d="m174.223667 117.662609 1.08375-2.560638-7.318617 6.881729-6.168017-11.314808z" fill="#7b7162"/><path d="m183.780345 35.274773-5.464484.278754-1.779832-7.886475 4.313486 4.358783z" fill="#4e7fa0"/><path d="m164.367171 83.428881-6.829019 1.562574-9.814287-8.961844 3.074561-3.684451z" fill="#1b2017"/><path d="m114.86825 80.069868-22.702582-.290323 15.263872-.736556-7.861794-19.376356z" fill="#403b2e"/><path d="m144.199649 50.474045-2.481962-2.879583 8.952127-2.834798 1.580863 2.872322z" fill="#94adc2"/><path d="m120.684721 102.137424 21.14137-4.350055-11.78245-21.571846 17.465569-2.472664z" fill="#3477a0"/><path d="m-3.668378 44.218373 10.361115 7.21899 6.832889 3.074983-1.598404-5.135311z" fill="#0f1815"/><path d="m167.782367 62.285286-31.615855 4.721714 1.083436-7.826366 30.818537-1.495352z" fill="#277fa9"/><path d="m131.877115 45.831018-17.457607 4.059599-15.788195-31.882735 16.958511 34.972525z" fill="#14669c"/><path d="m70.725153 163.167459 11.097036 6.690992-63.657352-.678932 16.531523 14.157781z" fill="#29434e"/><path d="m251.173734 145.921848-3.222855-23.986205 9.385004 22.078183-35.689899-3.746207z" fill="#3c512d"/><path d="m110.791533 120.009921-24.526964 1.401106-10.370066-5.561718-7.022457 4.896802z" fill="#1a2621"/><path d="m130.131657 124.997761-3.53196 2.570523-5.00023 3.766015 9.590248 10.535014z" fill="#262316"/><path d="m235.104111 166.562269-25.950307 18.437731-2.714522-24.229457 39.118962 24.229457z" fill="#6d6c71"/><path d="m47.73805 123.73073-63.73805-2.079425 50.315892-12.978488 11.349835 19.470082z" fill="#0d3122"/><path d="m66.776287 25.970973-18.531727-36.996075 22.866566 31.394904 22.054838-34.49149z" fill="#88a0b4"/><path d="m111.297151 64.916027 4.460856.121405 3.177641 1.960183-13.985359-25.157357z" fill="#6596b6"/><path d="m54.446103 185 4.786301-20.871525-15.198014-1.994966 16.605818-3.564088z" fill="#3a5062"/><path d="m163.832878 33.022551 107.167122-19.738819-91.171451 11.265293-12.583935 22.17792z" fill="#004a87"/><path d="m65.248916 110.365974-5.132175 2.079808-13.023461 1.534369-.241491 3.690501z" fill="#90adbf"/></g></svg>