<svg xmlns="http://www.w3.org/2000/svg" version="1.1" width="1024" height="680">
<rect x="0" y="0" width="1024" height="680" fill="#3d5a66" />
<g transform="scale(4.000000) translate(0.5 0.5)">
<polygon fill="#c4e1ff" fill-opacity="0.501961" points="152.348565,-10.928775,113.335510,10.592628,56.591401,26.521230,-16.000000,-7.966202" />
<polygon fill="#0b1700" fill-opacity="0.501961" points="44.357343,68.055753,-1.560209,-16.000000,-14.701670,178.545558,35.540488,183.378305" />
<polygon fill="#0065bb" fill-opacity="0.501961" points="141.988177,60.541175,271.000000,54.823486,248.465191,-16.000000,34.010922,23.849241" />
<polygon fill="#8d9faa" fill-opacity="0.501961" points="193.284535,91.831599,39.108543,185.000000,49.150842,63.005846,72.708610,126.004234" />
<polygon fill="#261f00" fill-opacity="0.501961" points="106.250832,42.360331,110.462212,114.348161,67.480421,123.820577,58.845288,42.325857" />
<polygon fill="#3e2b09" fill-opacity="0.501961" points="144.294227,75.604328,271.000000,124.939089,271.000000,63.918490,171.366607,56.785723" />
<polygon fill="#5193bf" fill-opacity="0.501961" points="118.426080,80.199548,107.297035,21.696813,175.414336,111.280959,102.834246,131.801655" />
<polygon fill="#201100" fill-opacity="0.501961" points="118.137310,139.278128,133.870270,117.379980,212.832299,128.816838,122.506872,150.614927" />
<polygon fill="#7e9eae" fill-opacity="0.501961" points="200.649211,88.848785,237.831171,138.806789,217.539616,144.750416,174.272918,107.679249" />
<polygon fill="#6197b6" fill-opacity="0.501961" points="130.210172,78.666479,107.715083,52.315441,217.383465,23.910619,206.120229,40.227757" />
<polygon fill="#796c61" fill-opacity="0.501961" points="90.869735,147.381006,248.026241,134.434625,226.964827,176.466638,89.284471,165.590916" />
<polygon fill="#003e82" fill-opacity="0.501961" points="270.899516,17.493179,259.933563,-0.964458,145.597885,-8.168039,61.677674,44.406131" />
<polygon fill="#4383a9" fill-opacity="0.501961" points="143.687901,15.248923,262.268894,32.541104,260.868956,14.665121,210.822004,69.622049" />
<polygon fill="#3e382c" fill-opacity="0.501961" points="-16.000000,48.660494,110.609048,98.213306,119.312359,76.283274,136.716914,69.153945" />
<polygon fill="#92a6b1" fill-opacity="0.501961" points="63.807960,81.319222,39.156732,147.911134,34.593709,128.359582,65.784532,154.972918" />
<polygon fill="#e3e5e4" fill-opacity="0.501961" points="28.578670,-7.578350,58.151707,2.171488,56.652263,24.401251,51.910920,25.208133" />
<polygon fill="#003519" fill-opacity="0.501961" points="36.981034,99.990238,47.876674,124.554828,0.777914,185.000000,-14.833829,126.024184" />
<polygon fill="#c4c2cb" fill-opacity="0.501961" points="212.648300,24.855257,205.759484,42.587443,189.911436,44.383794,190.775587,31.092942" />
<polygon fill="#6e91ac" fill-opacity="0.501961" points="155.440876,38.443491,137.257117,34.074435,164.809231,17.880144,185.475946,18.335178" />
<polygon fill="#79858c" fill-opacity="0.501961" points="31.727779,138.718841,109.431604,121.966468,127.946260,162.354671,68.355590,164.989986" />
<polygon fill="#4e4427" fill-opacity="0.501961" points="271.000000,95.010247,271.000000,185.000000,215.377352,83.416067,233.464301,46.141149" />
<polygon fill="#1a190a" fill-opacity="0.501961" points="145.945276,173.503377,119.551126,182.801162,139.349741,125.859733,114.938267,137.762762" />
<polygon fill="#252b21" fill-opacity="0.501961" points="153.068459,81.112093,184.986487,99.770081,204.531254,66.787242,177.006170,48.279611" />
<polygon fill="#11150a" fill-opacity="0.501961" points="177.202017,129.393166,169.442687,115.059972,201.606412,123.655215,190.077156,142.025792" />
<polygon fill="#0772b5" fill-opacity="0.501961" points="25.009251,4.883627,34.653152,8.833955,66.215883,38.440311,19.712946,12.618408" />
<polygon fill="#7492a6" fill-opacity="0.501961" points="173.920994,120.749732,178.720703,107.594469,169.463663,88.770643,120.872328,80.292211" />
<polygon fill="#86848d" fill-opacity="0.501961" points="32.401918,52.025672,40.161513,56.257013,63.872498,57.937219,65.122029,40.696951" />
<polygon fill="#004a89" fill-opacity="0.501961" points="155.866298,-16.000000,164.041198,68.035463,194.827029,24.328372,75.282954,39.697816" />
<polygon fill="#266c94" fill-opacity="0.501961" points="123.678613,122.366791,108.389051,103.521789,139.844235,89.819068,151.765303,122.551740" />
<polygon fill="#1584b8" fill-opacity="0.501961" points="195.154792,58.773412,243.365774,46.925428,217.223130,64.429436,207.203410,67.183754" />
<polygon fill="#0f2518" fill-opacity="0.501961" points="100.363428,59.921727,94.283191,115.897990,98.147261,115.047595,123.735651,73.488109" />
<polygon fill="#98b4bf" fill-opacity="0.501961" points="63.564304,76.243130,53.638120,87.488853,41.051427,75.610827,53.090952,77.105414" />
<polygon fill="#484035" fill-opacity="0.501961" points="-16.000000,69.810146,56.363307,59.782436,75.317486,34.409362,107.969510,81.355236" />
<polygon fill="#2c3b41" fill-opacity="0.501961" points="50.139493,160.202351,27.888485,158.161402,50.072445,185.000000,106.295208,167.087225" />
<polygon fill="#7192aa" fill-opacity="0.501961" points="188.039424,90.464244,203.068008,138.866155,207.754931,124.497687,204.519844,87.534298" />
<polygon fill="#1b0d02" fill-opacity="0.501961" points="76.530750,34.992518,109.965851,63.833595,101.538238,40.804438,64.822090,42.723471" />
<polygon fill="#629bc3" fill-opacity="0.501961" points="103.176960,37.334746,105.490542,45.222686,113.679881,70.850240,124.502009,59.577620" />
<polygon fill="#7f9cb6" fill-opacity="0.501961" points="237.786707,42.902068,240.918996,32.164367,245.605492,18.619993,223.986087,41.653904" />
<polygon fill="#6b8ba3" fill-opacity="0.501961" points="126.312983,7.949519,77.487981,22.725904,66.140867,39.543708,61.727402,6.850825" />
<polygon fill="#13261e" fill-opacity="0.501961" points="226.625110,101.576079,189.312904,77.085700,251.574523,105.971224,238.654316,124.284761" />
<polygon fill="#004481" fill-opacity="0.501961" points="69.836124,21.908566,208.400116,18.846396,220.977543,48.661332,256.854084,-4.170484" />
<polygon fill="#665741" fill-opacity="0.501961" points="202.439278,78.563698,247.216048,103.013707,271.000000,170.943938,271.000000,69.535187" />
<polygon fill="#7f8b8c" fill-opacity="0.501961" points="156.031836,115.584228,60.965059,123.389265,33.046766,133.271614,148.404534,122.310213" />
<polygon fill="#3d3c2f" fill-opacity="0.501961" points="-16.000000,9.907069,2.378968,112.154111,32.810195,112.394477,34.711262,33.486487" />
<polygon fill="#a9b8cc" fill-opacity="0.501961" points="-4.369634,-16.000000,47.891620,5.742834,-14.128020,-10.176857,27.985535,16.753591" />
<polygon fill="#14402f" fill-opacity="0.501961" points="68.470068,92.750524,107.542495,81.179096,104.359870,123.623938,70.387263,120.162771" />
<polygon fill="#b0b7c3" fill-opacity="0.501961" points="114.423344,15.421039,101.142259,7.070108,45.360570,0.006034,116.846476,-16.000000" />
<polygon fill="#272116" fill-opacity="0.501961" points="197.049170,71.432925,218.104067,64.025909,235.527435,52.948490,252.951875,63.899685" />
<polygon fill="#859ba8" fill-opacity="0.501961" points="46.891319,153.819649,32.155124,133.885096,78.586135,134.975775,53.470283,93.206259" />
<polygon fill="#25739e" fill-opacity="0.501961" points="176.196868,51.860888,163.884902,65.982964,119.482415,62.455280,193.876288,31.387944" />
<polygon fill="#0089ba" fill-opacity="0.501961" points="271.000000,55.111886,230.389188,51.309171,247.002646,59.676812,270.151094,63.449680" />
<polygon fill="#4f4b45" fill-opacity="0.501961" points="260.537760,185.000000,229.308977,169.326675,207.735125,149.475738,255.327252,142.579772" />
<polygon fill="#022f19" fill-opacity="0.501961" points="14.747493,104.773219,33.043865,124.277957,38.559911,167.918486,16.228717,177.518379" />
<polygon fill="#61797a" fill-opacity="0.501961" points="248.194578,135.517909,220.060487,103.447073,213.869172,113.865576,188.148353,148.310208" />
<polygon fill="#78a3c1" fill-opacity="0.501961" points="139.729893,87.369656,152.724074,65.697290,141.899688,64.013234,154.858532,96.589407" />
<polygon fill="#6892af" fill-opacity="0.501961" points="172.334505,43.041452,139.100483,29.610187,167.340263,34.601370,135.204716,52.807753" />
<polygon fill="#65767f" fill-opacity="0.501961" points="136.089256,160.464289,39.243316,167.714086,73.364726,123.050713,100.818990,135.738041" />
<polygon fill="#1e1f16" fill-opacity="0.501961" points="156.862104,61.598597,174.144403,78.884565,157.551360,89.002871,149.837268,80.429294" />
<polygon fill="#1e1c1a" fill-opacity="0.501961" points="12.315516,9.248701,38.511656,91.031656,33.002498,35.740503,27.375846,34.228112" />
<polygon fill="#01639b" fill-opacity="0.501961" points="88.748849,25.487896,33.830316,29.058562,144.113760,46.640948,161.978464,41.190938" />
<polygon fill="#444a42" fill-opacity="0.501961" points="68.963231,100.387350,40.349372,96.858354,32.177014,94.185187,5.699357,106.019045" />
<polygon fill="#041d17" fill-opacity="0.501961" points="45.549889,130.675136,45.028581,118.403345,37.885489,102.971118,15.802621,116.090579" />
<polygon fill="#282b25" fill-opacity="0.501961" points="146.014420,160.095336,141.207326,185.000000,118.326533,120.343356,127.150481,168.204428" />
<polygon fill="#6c573e" fill-opacity="0.501961" points="174.709101,120.813349,166.942685,120.526906,117.537036,128.599867,181.681276,110.487480" />
<polygon fill="#414e4b" fill-opacity="0.501961" points="46.383197,73.082960,-13.749159,69.162335,-3.647601,55.604442,64.407676,56.825829" />
<polygon fill="#082111" fill-opacity="0.501961" points="11.725626,98.168754,7.621187,76.699866,24.031823,78.885597,26.448664,96.785354" />
<polygon fill="#787169" fill-opacity="0.501961" points="116.958811,160.557585,160.980950,161.278553,148.573413,185.000000,182.891059,137.049604" />
<polygon fill="#263508" fill-opacity="0.501961" points="271.000000,149.697517,243.308611,144.454200,260.293762,120.365304,248.631643,121.417674" />
<polygon fill="#004585" fill-opacity="0.501961" points="250.031779,-16.000000,271.000000,10.108485,193.709631,29.294313,169.090641,31.877476" />
<polygon fill="#7291a1" fill-opacity="0.501961" points="41.040075,71.324434,65.713857,91.973784,40.914414,104.554850,62.643051,150.750084" />
<polygon fill="#2a3e3d" fill-opacity="0.501961" points="271.000000,122.730738,229.665265,124.967770,228.221336,121.220678,203.829051,115.203360" />
<polygon fill="#1f6790" fill-opacity="0.501961" points="139.417609,101.367403,159.180939,113.871101,122.529339,115.815240,108.420498,93.940245" />
<polygon fill="#2b2a18" fill-opacity="0.501961" points="190.003845,115.325432,124.599949,147.388932,118.434963,135.918017,123.891507,129.068750" />
<polygon fill="#878583" fill-opacity="0.501961" points="49.982840,51.311297,62.209503,56.331568,35.544385,55.241452,34.367294,39.428681" />
<polygon fill="#5e8eb0" fill-opacity="0.501961" points="106.972914,54.060126,112.586590,66.760746,119.239226,68.201870,127.939907,33.750441" />
<polygon fill="#04100a" fill-opacity="0.501961" points="38.988038,112.571973,37.789892,87.649103,31.738780,77.458264,43.167402,70.526307" />
<polygon fill="#4f493b" fill-opacity="0.501961" points="99.237752,41.625362,91.922499,78.241717,44.385223,86.943439,52.525953,88.335059" />
<polygon fill="#73858d" fill-opacity="0.501961" points="100.766439,171.348961,97.388000,138.881172,93.446410,115.098837,127.006304,118.822199" />
<polygon fill="#4988b4" fill-opacity="0.501961" points="108.041263,104.574895,151.305329,88.099946,119.456208,76.807194,110.944486,107.584724" />
<polygon fill="#30261f" fill-opacity="0.501961" points="100.557387,42.759502,99.944565,86.609758,126.398844,74.647020,59.656266,41.254393" />
<polygon fill="#497796" fill-opacity="0.501961" points="91.878358,5.494901,56.565053,57.649698,83.491034,2.572787,92.761184,7.441094" />
<polygon fill="#04619e" fill-opacity="0.501961" points="18.733460,13.836821,49.139247,22.293286,40.156470,24.079667,35.028116,8.935222" />
<polygon fill="#6f93ab" fill-opacity="0.501961" points="152.237590,101.915732,136.087909,59.640893,170.104994,112.930899,168.314088,83.484819" />
<polygon fill="#00437f" fill-opacity="0.501961" points="118.513763,1.146140,131.773890,44.487653,155.064362,19.393148,225.631786,7.767701" />
<polygon fill="#2e1e0d" fill-opacity="0.501961" points="163.429036,68.602082,155.077331,67.131127,189.002920,58.849351,182.147064,51.111780" />
<polygon fill="#2f77a1" fill-opacity="0.501961" points="168.646696,42.059906,172.742081,36.328570,167.819258,64.565073,114.739536,61.254728" />
<polygon fill="#7b7158" fill-opacity="0.501961" points="251.314393,115.738148,268.553927,130.247963,250.233760,91.454966,248.089966,112.896696" />
<polygon fill="#899ca5" fill-opacity="0.501961" points="44.143388,175.351952,65.839111,108.844487,69.757073,110.799116,47.602901,121.066931" />
<polygon fill="#14231e" fill-opacity="0.501961" points="247.299146,96.257406,248.491619,111.820456,211.702743,84.579884,225.869097,104.598122" />
<polygon fill="#706151" fill-opacity="0.501961" points="181.063906,70.195555,187.644165,72.606383,181.866010,65.129995,165.415505,68.496517" />
<polygon fill="#2b2128" fill-opacity="0.501961" points="-16.000000,1.490478,10.937723,3.382235,14.800310,13.242352,31.159191,40.739025" />
<polygon fill="#728fad" fill-opacity="0.501961" points="155.627184,35.036700,159.686829,17.634725,188.083614,20.207484,138.463263,35.050365" />
<polygon fill="#003d2f" fill-opacity="0.501961" points="17.671280,150.054536,-16.000000,161.558139,-2.079841,122.410252,38.041514,116.274878" />
<polygon fill="#283025" fill-opacity="0.501961" points="147.318314,150.488113,137.612965,147.080902,191.184523,136.248337,145.721711,120.275060" />
<polygon fill="#61766c" fill-opacity="0.501961" points="246.370954,121.097589,208.029841,143.684926,260.397898,148.010793,243.454555,156.368262" />
<polygon fill="#8daac1" fill-opacity="0.501961" points="241.297612,32.398427,243.964625,20.673679,239.116313,22.344995,235.327407,36.325000" />
<polygon fill="#b6c8d2" fill-opacity="0.501961" points="66.064319,77.706380,50.488916,81.357931,42.487273,77.399420,60.170965,77.798654" />
<polygon fill="#6b8190" fill-opacity="0.501961" points="128.200599,158.800417,84.032295,179.727758,131.270968,181.878004,105.053623,123.664098" />
<polygon fill="#547c95" fill-opacity="0.501961" points="149.330054,98.417657,125.688220,127.552936,189.221834,95.776607,198.554312,123.243030" />
<polygon fill="#274c3c" fill-opacity="0.501961" points="94.689953,119.674037,71.751612,130.905294,108.810738,89.419728,63.108045,91.209533" />
<polygon fill="#004e88" fill-opacity="0.501961" points="234.937906,37.550252,271.000000,5.261477,203.866195,-10.310364,266.051675,39.130168" />
<polygon fill="#4c4c41" fill-opacity="0.501961" points="40.798346,109.871726,12.265889,52.137516,20.643059,28.828512,21.593455,48.342017" />
<polygon fill="#97adc0" fill-opacity="0.501961" points="142.167471,51.450374,149.115937,42.925541,157.021632,47.012209,151.282950,47.239985" />
<polygon fill="#176dab" fill-opacity="0.501961" points="24.202960,0.552211,19.049229,8.968412,49.717456,27.241221,-8.490051,-16.000000" />
<polygon fill="#bec9d2" fill-opacity="0.501961" points="27.673423,9.393349,37.181020,-14.723273,62.444397,13.417334,33.791727,9.626367" />
<polygon fill="#333d48" fill-opacity="0.501961" points="8.328496,9.611228,45.126015,34.092083,71.911663,38.930945,59.293905,34.696793" />
<polygon fill="#192920" fill-opacity="0.501961" points="107.142118,113.150996,77.670568,118.748631,118.666181,85.502627,102.974579,44.334729" />
<polygon fill="#081815" fill-opacity="0.501961" points="142.730163,124.940455,196.241987,137.156248,200.080522,128.544685,186.941358,128.676165" />
<polygon fill="#547f9f" fill-opacity="0.501961" points="159.349468,-16.000000,242.818347,-9.333428,204.813267,4.590294,166.454862,-11.240550" />
<polygon fill="#d9e2e8" fill-opacity="0.501961" points="13.647523,8.519387,21.396351,7.988343,-8.494472,-4.991788,4.904439,-16.000000" />
<polygon fill="#8ba8c1" fill-opacity="0.501961" points="136.599195,45.173736,132.089294,52.874144,109.128010,51.675359,112.305068,55.504786" />
<polygon fill="#4c4d3e" fill-opacity="0.501961" points="154.402547,128.096893,168.219507,136.041872,128.769039,134.955301,141.942591,131.209382" />
<polygon fill="#2a6d99" fill-opacity="0.501961" points="201.002926,36.932323,231.888831,21.852641,192.055620,54.410146,267.995217,53.523810" />
<polygon fill="#004c8f" fill-opacity="0.501961" points="110.473888,38.141510,76.711523,24.052458,103.507931,11.671605,134.163387,38.545671" />
<polygon fill="#666154" fill-opacity="0.501961" points="131.941985,163.995747,165.017161,138.477459,168.965139,144.742200,130.889031,141.480541" />
<polygon fill="#527b84" fill-opacity="0.501961" points="46.090852,82.512772,40.169807,98.830594,60.596404,84.052521,57.946544,79.353401" />
<polygon fill="#192920" fill-opacity="0.501961" points="-9.487967,90.791064,59.656556,68.584789,55.123503,76.631932,16.720000,76.767765" />
<polygon fill="#808a8e" fill-opacity="0.501961" points="81.890472,140.615509,43.238458,159.748276,33.684654,128.985847,51.504175,133.424255" />
<polygon fill="#005388" fill-opacity="0.501961" points="196.349032,-16.000000,184.282328,41.131966,128.048637,39.177335,190.385191,37.242735" />
<polygon fill="#6b858c" fill-opacity="0.501961" points="219.546646,124.345701,190.470164,141.132633,234.027186,145.453885,226.303924,141.110159" />
<polygon fill="#254b27" fill-opacity="0.501961" points="-6.548799,151.088949,-16.000000,176.066313,44.406377,147.303134,37.390343,147.136003" />
<polygon fill="#474f40" fill-opacity="0.501961" points="-14.177576,110.088351,39.189580,97.866761,28.388666,69.091416,29.984287,110.923954" />
<polygon fill="#989189" fill-opacity="0.501961" points="155.500992,152.177623,151.195688,156.150762,152.786643,160.720507,140.648962,152.380162" />
<polygon fill="#3d7fa7" fill-opacity="0.501961" points="169.371721,45.008332,203.956175,62.961801,192.008474,49.763823,154.485252,58.885554" />
<polygon fill="#7497b4" fill-opacity="0.501961" points="160.046179,32.359047,141.938456,39.205305,140.729735,37.130124,144.298512,29.889974" />
<polygon fill="#27372e" fill-opacity="0.501961" points="168.182429,96.383769,224.229475,78.039891,212.009888,106.204036,191.905515,64.061138" />
<polygon fill="#b3bdc7" fill-opacity="0.501961" points="74.883031,14.025438,58.803387,-16.000000,98.806909,5.555041,89.783305,-16.000000" />
<polygon fill="#282a25" fill-opacity="0.501961" points="90.391104,79.193331,130.386441,67.339562,135.095767,67.965481,97.051651,83.222624" />
<polygon fill="#9fb1c2" fill-opacity="0.501961" points="202.024934,30.109358,203.086855,38.834426,197.840831,44.622036,183.519011,40.619126" />
<polygon fill="#453b2a" fill-opacity="0.501961" points="166.925881,60.059763,208.128891,83.967865,250.655229,59.212166,271.000000,74.386574" />
<polygon fill="#74a1b8" fill-opacity="0.501961" points="148.779814,74.321837,129.369434,64.036216,153.297609,65.656755,123.146408,75.464389" />
<polygon fill="#4a5053" fill-opacity="0.501961" points="178.720341,150.970327,245.964351,162.448137,193.681289,143.076013,199.102541,174.905930" />
<polygon fill="#2a2f2e" fill-opacity="0.501961" points="41.590901,104.131246,45.667185,131.410270,38.417219,133.615154,46.304422,134.894805" />
<polygon fill="#819db0" fill-opacity="0.501961" points="206.258876,116.499371,202.889477,87.223478,193.520149,101.113535,210.550549,114.385989" />
<polygon fill="#213540" fill-opacity="0.501961" points="94.772397,164.470462,44.881978,171.395806,51.067500,168.737818,140.216466,185.000000" />
<polygon fill="#22231f" fill-opacity="0.501961" points="15.293879,37.033852,1.683494,39.564096,3.462780,58.784079,8.381905,65.950900" />
<polygon fill="#29391d" fill-opacity="0.501961" points="246.310360,119.295856,262.499827,142.145243,236.276988,125.975895,271.000000,137.243132" />
<polygon fill="#2d2b21" fill-opacity="0.501961" points="134.290376,163.392470,126.767555,165.586109,124.744882,178.422846,155.024183,159.617108" />
<polygon fill="#7f939c" fill-opacity="0.501961" points="109.735727,125.799804,43.997210,118.957414,85.233694,125.341514,114.281256,135.842717" />
<polygon fill="#456879" fill-opacity="0.501961" points="210.144949,122.465611,208.018077,94.041005,214.725129,107.877852,235.102684,109.040275" />
<polygon fill="#0e1711" fill-opacity="0.501961" points="123.372006,128.732907,120.205710,136.065458,131.886344,152.346674,123.664812,153.201590" />
<polygon fill="#162919" fill-opacity="0.501961" points="46.865887,185.000000,37.111823,156.522827,23.897628,178.815493,31.230952,125.337477" />
<polygon fill="#5c81a5" fill-opacity="0.501961" points="126.948077,4.768406,182.604731,-16.000000,113.955158,-0.675440,114.977737,10.410727" />
<polygon fill="#0070a8" fill-opacity="0.501961" points="78.674551,39.272589,75.693583,25.426811,102.940070,38.501094,94.052930,40.856876" />
<polygon fill="#4a5d69" fill-opacity="0.501961" points="45.164613,49.718448,13.897336,16.145993,66.193754,42.220914,63.585174,49.459957" />
<polygon fill="#9aa9af" fill-opacity="0.501961" points="57.201453,136.870540,36.342188,139.534910,41.774877,147.330992,52.979755,142.268099" />
<polygon fill="#23271d" fill-opacity="0.501961" points="150.209365,79.235990,205.843328,82.975456,151.198865,67.859554,148.394484,72.555102" />
<polygon fill="#85a1b6" fill-opacity="0.501961" points="66.191578,14.071256,72.758985,24.201216,38.518168,12.173299,53.560933,26.632216" />
<polygon fill="#121a11" fill-opacity="0.501961" points="150.110113,139.593045,162.866587,142.788176,122.269466,140.292457,123.764725,132.210784" />
<polygon fill="#4c5d6b" fill-opacity="0.501961" points="42.346079,165.655523,35.180020,148.704806,65.022914,177.352152,70.944826,154.219661" />
<polygon fill="#103427" fill-opacity="0.501961" points="97.837694,122.478038,105.810104,121.715607,81.318234,103.189451,109.895091,105.872000" />
<polygon fill="#1b8cbd" fill-opacity="0.501961" points="197.671374,59.094536,225.679715,60.295023,207.281375,64.571777,210.370743,67.680541" />
<polygon fill="#2e7eac" fill-opacity="0.501961" points="112.216143,116.840018,124.230943,93.898404,115.819551,89.239550,112.757325,86.076683" />
<polygon fill="#7f888e" fill-opacity="0.501961" points="62.159525,48.061405,36.854710,56.393422,35.870358,47.620604,61.953758,56.613521" />
<polygon fill="#3c3222" fill-opacity="0.501961" points="61.923956,53.297826,82.474516,40.247608,59.107502,83.753915,74.820345,91.559054" />
<polygon fill="#122e26" fill-opacity="0.501961" points="71.121667,122.201061,107.030801,109.045472,62.594210,107.850133,69.284821,90.611486" />
<polygon fill="#4e83a7" fill-opacity="0.501961" points="225.592750,26.975766,210.463614,28.223598,233.134226,42.012710,221.922244,30.837165" />
<polygon fill="#00100c" fill-opacity="0.501961" points="36.024266,120.997760,43.997026,130.829532,44.688641,120.270228,40.764808,106.708273" />
<polygon fill="#435253" fill-opacity="0.501961" points="78.003369,137.745828,92.279608,134.436537,69.849799,135.462820,90.302875,141.504062" />
<polygon fill="#324334" fill-opacity="0.501961" points="266.732778,139.752754,190.246877,74.994152,257.582729,135.292843,220.110695,133.076748" />
<polygon fill="#5e5039" fill-opacity="0.501961" points="77.391504,83.811664,74.328218,52.986613,69.063521,54.792483,67.121413,79.145150" />
<polygon fill="#6a8695" fill-opacity="0.501961" points="245.434928,116.302248,239.494307,115.950197,224.794287,112.021988,185.516777,112.487009" />
<polygon fill="#004483" fill-opacity="0.501961" points="165.948840,12.949955,176.578984,-9.634912,233.447810,34.732452,243.262904,0.142845" />
<polygon fill="#70644c" fill-opacity="0.501961" points="227.875308,85.139003,250.732905,98.047979,271.000000,83.691148,230.370929,99.091443" />
<polygon fill="#18201d" fill-opacity="0.501961" points="32.125755,114.560952,42.684399,96.813404,50.080004,98.581413,32.816086,103.844635" />
<polygon fill="#1e1c16" fill-opacity="0.501961" points="108.516073,58.221275,96.512012,87.784200,104.622565,38.070565,97.328955,42.487723" />
<polygon fill="#005185" fill-opacity="0.501961" points="201.876022,23.843823,158.890815,27.403298,178.299437,44.135579,175.590295,28.566487" />
<polygon fill="#97a4b6" fill-opacity="0.501961" points="95.941279,16.621613,77.373397,11.405996,85.055991,15.128911,106.619252,-5.797859" />
<polygon fill="#6d8898" fill-opacity="0.501961" points="145.862547,121.962671,147.130890,120.819776,181.500855,107.571868,129.900055,120.799273" />
<polygon fill="#0a6093" fill-opacity="0.501961" points="136.285784,57.161589,151.839785,36.579142,118.590438,51.758646,142.363622,29.048714" />
<polygon fill="#4c5a4d" fill-opacity="0.501961" points="-3.096508,90.002599,4.515524,93.632289,14.435162,113.183625,6.365065,108.419527" />
<polygon fill="#4b4644" fill-opacity="0.501961" points="7.086699,80.722492,-16.000000,3.471228,25.579299,44.850402,-2.260172,28.119476" />
<polygon fill="#252219" fill-opacity="0.501961" points="178.905529,53.780509,173.910936,65.405368,170.409133,54.039340,208.994513,67.068451" />
<polygon fill="#2f2d24" fill-opacity="0.501961" points="98.934126,60.302804,99.135502,51.054608,96.829198,78.750915,128.191148,76.823635" />
<polygon fill="#66859e" fill-opacity="0.501961" points="62.300750,104.966683,46.783665,127.954565,46.087599,119.070744,39.273227,100.144018" />
<polygon fill="#8c9fa7" fill-opacity="0.501961" points="44.933382,146.531208,55.914231,106.546487,61.850013,134.286279,92.487368,125.969563" />
<polygon fill="#04100f" fill-opacity="0.501961" points="193.988409,135.899349,195.462144,134.260615,183.516408,129.832506,192.322328,118.283356" />
<polygon fill="#5985a5" fill-opacity="0.501961" points="77.151061,26.156086,62.030926,35.965622,68.800807,36.342605,63.912615,-3.832848" />
<polygon fill="#7695a1" fill-opacity="0.501961" points="62.412638,87.219737,65.773196,89.364887,54.570282,99.935378,41.584166,93.730530" />
<polygon fill="#0086ba" fill-opacity="0.501961" points="270.262470,59.370763,246.104720,59.994919,239.399314,52.536755,271.000000,62.799869" />
<polygon fill="#3a6373" fill-opacity="0.501961" points="168.746189,99.876421,199.812654,86.089433,183.142808,100.451909,134.261329,106.791611" />
<polygon fill="#2d719c" fill-opacity="0.501961" points="146.303975,64.452785,128.891435,65.953635,168.605311,39.867501,197.985813,45.925967" />
<polygon fill="#a3b7c7" fill-opacity="0.501961" points="36.480740,-16.000000,36.667883,15.323157,63.535419,9.342724,51.636546,27.761994" />
<polygon fill="#23221a" fill-opacity="0.501961" points="25.735235,37.123456,32.657447,73.760083,34.836880,45.319509,33.851339,38.086762" />
<polygon fill="#b4cad7" fill-opacity="0.501961" points="64.708595,77.152356,54.847139,78.349216,45.610966,81.590852,44.557236,77.552800" />
<polygon fill="#0b5e8d" fill-opacity="0.501961" points="271.000000,46.149694,178.104028,47.115378,256.626739,41.598414,237.719174,25.677550" />
<polygon fill="#6c848c" fill-opacity="0.501961" points="191.275560,106.164990,208.168619,134.258905,256.097176,133.998054,222.014079,128.839739" />
<polygon fill="#26221a" fill-opacity="0.501961" points="65.207247,49.988916,71.795847,36.852712,80.183980,39.993977,103.898626,44.451788" />
<polygon fill="#28251a" fill-opacity="0.501961" points="271.000000,74.046686,231.074798,53.291769,220.185682,66.013362,236.474723,60.605992" />
<polygon fill="#0c2f23" fill-opacity="0.501961" points="36.655787,137.071545,-16.000000,98.800594,31.629943,138.644195,49.870600,137.687974" />
<polygon fill="#514632" fill-opacity="0.501961" points="257.726699,89.235146,209.274472,85.002301,199.288528,75.937166,241.680585,62.095719" />
<polygon fill="#544836" fill-opacity="0.501961" points="118.641364,133.950142,174.950240,113.307196,169.515943,112.587897,138.115017,124.778738" />
<polygon fill="#588baf" fill-opacity="0.501961" points="138.168310,90.791763,111.821186,96.444866,120.370270,93.469849,116.983836,76.257425" />
<polygon fill="#4d4d45" fill-opacity="0.501961" points="152.811154,142.058575,133.859279,153.598922,152.883571,159.900874,135.829185,159.619414" />
<polygon fill="#2f6b96" fill-opacity="0.501961" points="157.549144,21.803059,163.297290,17.070991,182.052526,16.797787,194.954854,19.673679" />
<polygon fill="#1b6289" fill-opacity="0.501961" points="122.272364,112.114840,141.491081,117.779550,142.354783,100.249461,125.880734,101.146101" />
<polygon fill="#0f140c" fill-opacity="0.501961" points="158.538985,121.150280,121.219843,134.711863,167.565135,124.382585,156.394078,125.607133" />
<polygon fill="#394a57" fill-opacity="0.501961" points="42.205598,71.618000,66.199043,59.692398,36.599684,55.339089,34.497357,68.901506" />
<polygon fill="#6f90a6" fill-opacity="0.501961" points="161.596157,115.835853,140.262695,84.720866,163.369030,93.491383,171.399630,94.376953" />
<polygon fill="#5784a4" fill-opacity="0.501961" points="129.619493,33.880310,107.699632,63.833347,134.108580,79.061174,107.179023,54.124657" />
<polygon fill="#94abc1" fill-opacity="0.501961" points="192.080610,41.032283,211.211913,23.168480,212.263095,33.445355,194.540824,27.715934" />
<polygon fill="#111f19" fill-opacity="0.501961" points="28.942943,69.009080,30.730780,75.243118,40.372217,99.821225,44.693333,82.487632" />
<polygon fill="#285455" fill-opacity="0.501961" points="65.031266,102.617423,49.475118,99.466534,86.768983,95.993295,71.573802,94.177501" />
<polygon fill="#454739" fill-opacity="0.501961" points="133.199853,136.717986,162.788404,139.138420,134.363256,132.786970,118.742162,145.211474" />
<polygon fill="#6d8795" fill-opacity="0.501961" points="132.982533,115.686054,99.105298,120.440865,113.576333,110.992066,113.048417,142.372112" />
<polygon fill="#5c6e78" fill-opacity="0.501961" points="105.657334,142.294736,27.884155,185.000000,82.065940,150.313383,83.140642,137.560146" />
<polygon fill="#2e333c" fill-opacity="0.501961" points="117.004196,71.644261,134.046387,71.212340,134.328325,70.451598,128.660495,66.416842" />
<polygon fill="#4d483c" fill-opacity="0.501961" points="91.576512,43.035754,81.400221,92.205208,90.010585,83.837338,99.713431,62.569587" />
<polygon fill="#e2e5e4" fill-opacity="0.501961" points="40.499337,-16.000000,48.950556,-12.545021,53.770064,6.145560,48.983716,9.214598" />
<polygon fill="#485963" fill-opacity="0.501961" points="113.860425,160.947454,97.975529,171.499551,123.296713,162.396066,149.553541,158.358018" />
<polygon fill="#a0b6ce" fill-opacity="0.501961" points="138.582387,68.761855,150.880966,68.271706,153.161932,67.071044,133.453718,66.050329" />
<polygon fill="#4083a5" fill-opacity="0.501961" points="168.514396,65.162458,165.718502,47.851189,155.019919,63.498717,161.718807,64.294590" />
<polygon fill="#213423" fill-opacity="0.501961" points="45.208423,185.000000,30.702981,145.831814,48.433298,164.897596,23.101601,143.373524" />
<polygon fill="#004084" fill-opacity="0.501961" points="161.058943,8.994685,152.142385,31.154033,79.867288,23.525162,136.201321,9.154924" />
<polygon fill="#8cabc3" fill-opacity="0.501961" points="129.544250,47.680953,110.123874,56.635376,132.664051,49.043397,134.282045,46.233293" />
<polygon fill="#62757c" fill-opacity="0.501961" points="209.626210,183.027222,225.474779,112.872590,230.958977,108.013119,230.202980,119.179436" />
<polygon fill="#7992ad" fill-opacity="0.501961" points="187.745030,21.922099,156.014634,26.661588,157.372960,22.092368,183.279082,21.183038" />
<polygon fill="#84979f" fill-opacity="0.501961" points="90.867904,127.185631,96.149612,121.255182,85.800470,122.603522,76.034932,134.563705" />
<polygon fill="#456c75" fill-opacity="0.501961" points="42.553630,88.813092,59.217415,95.360718,51.072694,95.625401,64.929121,82.831490" />
<polygon fill="#212d1c" fill-opacity="0.501961" points="249.860010,106.906208,230.424604,123.240576,252.660572,123.906977,236.001020,119.629015" />
<polygon fill="#025689" fill-opacity="0.501961" points="203.414516,13.009913,182.921544,44.840502,191.789958,-1.265018,131.460139,1.174268" />
<polygon fill="#3d5160" fill-opacity="0.501961" points="192.687714,125.595765,210.284601,138.454160,195.294508,119.942897,194.427808,122.908107" />
<polygon fill="#46524d" fill-opacity="0.501961" points="78.671383,130.758717,67.586080,127.588838,106.926506,116.784875,80.961516,119.433921" />
<polygon fill="#132a20" fill-opacity="0.501961" points="28.546238,92.520963,24.447702,68.290420,15.549201,117.455905,14.488993,97.237373" />
<polygon fill="#768287" fill-opacity="0.501961" points="196.376503,142.718223,215.626714,149.957850,194.520220,137.593736,188.046658,147.506317" />
<polygon fill="#565045" fill-opacity="0.501961" points="3.663359,54.025447,21.628103,63.990845,12.613215,27.843714,14.562375,56.327966" />
<polygon fill="#9a968d" fill-opacity="0.501961" points="154.272959,157.928999,142.351478,155.294625,146.302468,149.549680,151.205552,153.195020" />
<polygon fill="#39648d" fill-opacity="0.501961" points="84.472945,11.793811,88.003578,6.559808,83.098473,5.864827,77.961121,6.038742" />
<polygon fill="#5c7f94" fill-opacity="0.501961" points="158.359848,104.341819,210.811609,128.585350,199.550012,121.176417,174.309364,97.028970" />
<polygon fill="#5d6754" fill-opacity="0.501961" points="4.364151,60.839759,-16.000000,48.557800,8.629196,66.241832,4.485402,77.165114" />
<polygon fill="#2e3733" fill-opacity="0.501961" points="179.821011,113.570295,201.281518,129.973166,192.378190,118.833054,166.682511,140.275071" />
<polygon fill="#71828c" fill-opacity="0.501961" points="113.904425,164.284500,103.455081,126.352214,127.345907,155.641377,75.679689,150.136582" />
<polygon fill="#66777b" fill-opacity="0.501961" points="124.258360,158.566304,95.507645,115.981555,80.350057,119.300805,96.810486,118.009092" />
<polygon fill="#8d9b9f" fill-opacity="0.501961" points="84.733863,124.630371,39.670439,129.634393,52.381823,131.749456,66.971530,124.045177" />
<polygon fill="#3279a0" fill-opacity="0.501961" points="192.260374,53.040918,186.707255,57.124705,198.154002,59.491631,271.000000,48.624052" />
<polygon fill="#7b949d" fill-opacity="0.501961" points="44.580588,90.006027,59.723691,93.410204,43.921055,94.451806,39.602697,96.878857" />
<polygon fill="#4980aa" fill-opacity="0.501961" points="51.350276,19.872199,36.404409,21.568767,34.720262,26.805012,38.016348,14.113275" />
<polygon fill="#0172a4" fill-opacity="0.501961" points="64.823254,26.223407,42.204401,26.429437,62.155755,35.017216,63.953623,35.072013" />
<polygon fill="#413d32" fill-opacity="0.501961" points="155.705752,64.640547,180.251715,63.456554,155.743284,76.592210,203.581535,76.983549" />
<polygon fill="#4a5553" fill-opacity="0.501961" points="227.445791,139.798835,271.000000,169.741465,211.174493,144.543026,255.849721,144.706323" />
<polygon fill="#242c26" fill-opacity="0.501961" points="211.416203,67.772052,182.288532,79.344772,208.531000,91.863845,187.769758,57.153409" />
<polygon fill="#182718" fill-opacity="0.501961" points="237.729899,113.521025,238.676489,95.594388,248.666920,106.895981,249.302478,116.351265" />
<polygon fill="#1b1613" fill-opacity="0.501961" points="111.430051,71.357975,103.804394,41.823281,97.349297,47.623956,116.105537,75.754109" />
<polygon fill="#74828a" fill-opacity="0.501961" points="61.169535,127.364318,61.344478,157.480563,34.794916,148.423717,85.314096,149.700730" />
<polygon fill="#232026" fill-opacity="0.501961" points="13.971968,19.381146,11.344421,3.719948,-16.000000,6.804039,-7.224801,-13.069103" />
<polygon fill="#7a8e84" fill-opacity="0.501961" points="233.468363,135.863057,229.699093,140.557406,247.279821,142.118035,225.081271,135.766397" />
<polygon fill="#334432" fill-opacity="0.501961" points="1.083611,93.799162,4.560290,85.624951,29.069482,81.306801,22.954128,89.580800" />
<polygon fill="#062d15" fill-opacity="0.501961" points="32.095215,169.430928,37.238395,154.633562,12.337525,155.971380,15.836592,185.000000" />
<polygon fill="#40789b" fill-opacity="0.501961" points="103.772011,2.908891,98.319214,15.734543,59.356294,31.380596,105.186191,10.389511" />
<polygon fill="#354025" fill-opacity="0.501961" points="271.000000,142.076525,229.465016,132.751736,250.260641,135.377211,263.084156,106.514325" />
<polygon fill="#6e91ae" fill-opacity="0.501961" points="163.724787,32.026349,138.376891,33.807301,164.491670,37.040790,161.805193,52.934464" />
<polygon fill="#a1b0be" fill-opacity="0.501961" points="117.517398,10.777276,94.760648,-16.000000,93.685823,-16.000000,109.334956,14.392939" />
<polygon fill="#abbdcd" fill-opacity="0.501961" points="-1.378363,-16.000000,8.383399,4.843963,-9.446247,-9.427797,21.189368,8.958878" />
<polygon fill="#676556" fill-opacity="0.501961" points="29.712727,94.313493,32.346092,90.566762,32.496501,98.878305,30.287656,108.789948" />
<polygon fill="#00518c" fill-opacity="0.501961" points="244.531483,-16.000000,235.878848,21.227328,239.577210,26.795366,221.691582,36.157636" />
<polygon fill="#5484a7" fill-opacity="0.501961" points="266.901637,44.780432,238.050387,37.359738,225.846946,35.634920,227.658034,38.065971" />
<polygon fill="#0f2416" fill-opacity="0.501961" points="11.083621,74.413057,17.262864,105.994199,20.214505,76.174964,-16.000000,99.832321" />
<polygon fill="#717e88" fill-opacity="0.501961" points="47.509062,158.781150,33.963266,150.860394,71.675295,164.311204,53.947165,153.383839" />
<polygon fill="#697a8a" fill-opacity="0.501961" points="45.841966,159.566536,51.666708,176.680272,39.108010,158.780200,68.015190,178.603227" />
<polygon fill="#1779a4" fill-opacity="0.501961" points="205.265801,58.051279,197.565367,61.838536,234.340287,51.282882,220.942782,62.954602" />
<polygon fill="#171f1e" fill-opacity="0.501961" points="111.345681,67.722118,127.344163,75.799874,120.550933,76.600393,112.637189,74.513263" />
<polygon fill="#526a7c" fill-opacity="0.501961" points="57.767632,58.198016,54.809377,49.097105,65.950996,35.090178,66.038532,47.697922" />
<polygon fill="#7499b6" fill-opacity="0.501961" points="231.115218,36.752218,241.325257,34.186341,235.926778,18.809049,244.324774,24.336246" />
<polygon fill="#8aa2bc" fill-opacity="0.501961" points="139.250630,32.218322,139.415617,32.859201,150.833494,31.549310,149.084190,36.855262" />
<polygon fill="#3c6d8a" fill-opacity="0.501961" points="135.958264,101.741098,150.226691,116.953529,107.668917,119.613210,156.951444,104.554295" />
<polygon fill="#274240" fill-opacity="0.501961" points="210.941310,103.745322,203.589000,90.628907,220.830422,92.094884,230.271692,105.617356" />
<polygon fill="#7a92a1" fill-opacity="0.501961" points="127.789464,125.971181,132.407997,119.445305,154.021721,117.973087,109.219431,127.140423" />
<polygon fill="#005794" fill-opacity="0.501961" points="92.407925,40.531110,71.868405,18.893811,145.486367,37.665846,85.368192,41.088234" />
<polygon fill="#025d9a" fill-opacity="0.501961" points="36.857500,8.312384,28.854377,11.497164,25.913554,17.026429,30.592118,18.889798" />
<polygon fill="#121810" fill-opacity="0.501961" points="126.527885,164.029352,124.844756,180.443642,124.482689,185.000000,136.003437,163.721927" />
<polygon fill="#2f2f28" fill-opacity="0.501961" points="14.237419,63.333017,36.158126,54.922584,22.130412,34.304608,18.536093,74.658177" />
<polygon fill="#7997ac" fill-opacity="0.501961" points="70.445249,116.137274,44.036180,122.670731,58.175522,125.095605,48.030642,112.434911" />
<polygon fill="#5086aa" fill-opacity="0.501961" points="120.743746,39.658654,133.609148,43.286890,112.829332,48.325298,131.943545,37.930483" />
<polygon fill="#003c84" fill-opacity="0.501961" points="235.188423,-7.333812,208.424765,24.068885,243.817335,26.625798,201.639420,12.540031" />
<polygon fill="#00578a" fill-opacity="0.501961" points="240.435408,36.692276,244.261731,21.551625,267.767673,75.630872,271.000000,20.695779" />
<polygon fill="#222f31" fill-opacity="0.501961" points="62.267071,61.638549,61.749332,77.229275,57.850029,66.587702,60.328912,60.532118" />
<polygon fill="#94a9be" fill-opacity="0.501961" points="232.535185,41.559811,242.258256,25.817719,235.517416,30.658335,233.792952,43.026566" />
<polygon fill="#696963" fill-opacity="0.501961" points="178.755122,136.875272,194.692909,141.658563,193.955380,149.243792,153.883203,153.384661" />
<polygon fill="#406374" fill-opacity="0.501961" points="208.388101,105.611183,213.724907,123.137619,220.431604,124.928564,217.157064,103.216610" />
<polygon fill="#02588b" fill-opacity="0.501961" points="206.861213,36.670245,213.371365,32.428800,215.904221,30.373584,220.353562,36.936073" />
<polygon fill="#7b7162" fill-opacity="0.501961" points="174.223667,117.662609,175.307417,115.101971,167.988800,121.983700,161.820783,110.668892" />
<polygon fill="#4e7fa0" fill-opacity="0.501961" points="183.780345,35.274773,178.315861,35.553527,176.536029,27.667052,180.849515,32.025835" />
<polygon fill="#1b2017" fill-opacity="0.501961" points="164.367171,83.428881,157.538152,84.991455,147.723865,76.029611,150.798426,72.345160" />
<polygon fill="#403b2e" fill-opacity="0.501961" points="114.868250,80.069868,92.165668,79.779545,107.429540,79.042989,99.567746,59.666633" />
<polygon fill="#94adc2" fill-opacity="0.501961" points="144.199649,50.474045,141.717687,47.594462,150.669814,44.759664,152.250677,47.631986" />
<polygon fill="#3477a0" fill-opacity="0.501961" points="120.684721,102.137424,141.826091,97.787369,130.043641,76.215523,147.509210,73.742859" />
<polygon fill="#0f1815" fill-opacity="0.501961" points="-3.668378,44.218373,6.692737,51.437363,13.525626,54.512346,11.927222,49.377035" />
<polygon fill="#277fa9" fill-opacity="0.501961" points="167.782367,62.285286,136.166512,67.007000,137.249948,59.180634,168.068485,57.685282" />
<polygon fill="#14669c" fill-opacity="0.501961" points="131.877115,45.831018,114.419508,49.890617,98.631313,18.007882,115.589824,52.980407" />
<polygon fill="#29434e" fill-opacity="0.501961" points="70.725153,163.167459,81.822189,169.858451,18.164837,169.179519,34.696360,183.337300" />
<polygon fill="#3c512d" fill-opacity="0.501961" points="251.173734,145.921848,247.950879,121.935643,257.335883,144.013826,221.645984,140.267619" />
<polygon fill="#1a2621" fill-opacity="0.501961" points="110.791533,120.009921,86.264569,121.411027,75.894503,115.849309,68.872046,120.746111" />
<polygon fill="#262316" fill-opacity="0.501961" points="130.131657,124.997761,126.599697,127.568284,121.599467,131.334299,131.189715,141.869313" />
<polygon fill="#6d6c71" fill-opacity="0.501961" points="235.104111,166.562269,209.153804,185.000000,206.439282,160.770543,245.558244,185.000000" />
<polygon fill="#0d3122" fill-opacity="0.501961" points="47.738050,123.730730,-16.000000,121.651305,34.315892,108.672817,45.665727,128.142899" />
<polygon fill="#88a0b4" fill-opacity="0.501961" points="66.776287,25.970973,48.244560,-11.025102,71.111126,20.369802,93.165964,-14.121688" />
<polygon fill="#6596b6" fill-opacity="0.501961" points="111.297151,64.916027,115.758007,65.037432,118.935648,66.997615,104.950289,41.840258" />
<polygon fill="#3a5062" fill-opacity="0.501961" points="54.446103,185.000000,59.232404,164.128475,44.034390,162.133509,60.640208,158.569421" />
<polygon fill="#004a87" fill-opacity="0.501961" points="163.832878,33.022551,271.000000,13.283732,179.828549,24.549025,167.244614,46.726945" />
<polygon fill="#90adbf" fill-opacity="0.501961" points="65.248916,110.365974,60.116741,112.445782,47.093280,113.980151,46.851789,117.670652" />
</g>
</svg>