<svg xmlns="http://www.w3.org/2000/svg" version="1.1" width="1024" height="680">
<rect x="0" y="0" width="1024" height="680" fill="#f2bfc8" />
<g transform="scale(4.000000) translate(0.5 0.5)">
<ellipse fill="#ef5284" fill-opacity="0.501961" cx="85" cy="82" rx="57" ry="57" />
<ellipse fill="#ca8330" fill-opacity="0.501961" cx="75" cy="145" rx="25" ry="25" />
<ellipse fill="#fffffa" fill-opacity="0.501961" cx="156" cy="169" rx="62" ry="62" />
<ellipse fill="#f676ab" fill-opacity="0.501961" cx="184" cy="65" rx="42" ry="42" />
<ellipse fill="#ecfff7" fill-opacity="0.501961" cx="255" cy="139" rx="48" ry="48" />
<ellipse fill="#f5fff2" fill-opacity="0.501961" cx="17" cy="158" rx="38" ry="38" />
<ellipse fill="#effffc" fill-opacity="0.501961" cx="255" cy="34" rx="40" ry="40" />
<ellipse fill="#f8ffff" fill-opacity="0.501961" cx="86" cy="0" rx="36" ry="36" />
<ellipse fill="#f8ffff" fill-opacity="0.501961" cx="167" cy="0" rx="33" ry="33" />
<ellipse fill="#692400" fill-opacity="0.501961" cx="85" cy="121" rx="10" ry="10" />
<ellipse fill="#effff7" fill-opacity="0.501961" cx="0" cy="0" rx="52" ry="52" />
<ellipse fill="#f2fff6" fill-opacity="0.501961" cx="0" cy="83" rx="32" ry="32" />
<ellipse fill="#e874ad" fill-opacity="0.501961" cx="136" cy="108" rx="25" ry="25" />
<ellipse fill="#f675a7" fill-opacity="0.501961" cx="199" cy="97" rx="27" ry="27" />
<ellipse fill="#fff1eb" fill-opacity="0.501961" cx="166" cy="90" rx="16" ry="16" />
<ellipse fill="#ee5594" fill-opacity="0.501961" cx="42" cy="40" rx="14" ry="14" />
<ellipse fill="#f2ffff" fill-opacity="0.501961" cx="203" cy="0" rx="26" ry="26" />
<ellipse fill="#fd9fc5" fill-opacity="0.501961" cx="140" cy="53" rx="31" ry="31" />
<ellipse fill="#f5fffd" fill-opacity="0.501961" cx="132" cy="0" rx="28" ry="28" />
<ellipse fill="#eeffef" fill-opacity="0.501961" cx="254" cy="80" rx="32" ry="32" />
<ellipse fill="#e46295" fill-opacity="0.501961" cx="209" cy="39" rx="15" ry="15" />
<ellipse fill="#a46227" fill-opacity="0.501961" cx="63" cy="163" rx="9" ry="9" />
<ellipse fill="#e84f8c" fill-opacity="0.501961" cx="52" cy="91" rx="20" ry="20" />
<ellipse fill="#fd97c4" fill-opacity="0.501961" cx="86" cy="50" rx="25" ry="25" />
<ellipse fill="#ab5725" fill-opacity="0.501961" cx="106" cy="128" rx="7" ry="7" />
<ellipse fill="#e7709d" fill-opacity="0.501961" cx="148" cy="40" rx="14" ry="14" />
<ellipse fill="#f4fdee" fill-opacity="0.501961" cx="195" cy="159" rx="38" ry="38" />
<ellipse fill="#ffafa2" fill-opacity="0.501961" cx="63" cy="120" rx="16" ry="16" />
<ellipse fill="#661d10" fill-opacity="0.501961" cx="81" cy="130" rx="7" ry="7" />
<ellipse fill="#f2fae6" fill-opacity="0.501961" cx="0" cy="44" rx="32" ry="32" />
<ellipse fill="#9b5c33" fill-opacity="0.501961" cx="60" cy="146" rx="8" ry="8" />
<ellipse fill="#fcffe9" fill-opacity="0.501961" cx="127" cy="169" rx="35" ry="35" />
<ellipse fill="#f5669f" fill-opacity="0.501961" cx="43" cy="111" rx="14" ry="14" />
<ellipse fill="#933601" fill-opacity="0.501961" cx="93" cy="113" rx="5" ry="5" />
<ellipse fill="#feb38e" fill-opacity="0.501961" cx="80" cy="154" rx="17" ry="17" />
<ellipse fill="#f981b2" fill-opacity="0.501961" cx="153" cy="100" rx="14" ry="14" />
<ellipse fill="#ecf3db" fill-opacity="0.501961" cx="0" cy="108" rx="30" ry="30" />
<ellipse fill="#e6709b" fill-opacity="0.501961" cx="100" cy="40" rx="14" ry="14" />
<ellipse fill="#f0ffee" fill-opacity="0.501961" cx="58" cy="0" rx="27" ry="27" />
<ellipse fill="#f774a3" fill-opacity="0.501961" cx="218" cy="115" rx="8" ry="8" />
<ellipse fill="#f9fce6" fill-opacity="0.501961" cx="34" cy="148" rx="20" ry="20" />
<ellipse fill="#ffc386" fill-opacity="0.501961" cx="97" cy="127" rx="7" ry="7" />
<ellipse fill="#f391b7" fill-opacity="0.501961" cx="174" cy="46" rx="22" ry="22" />
<ellipse fill="#3d2929" fill-opacity="0.501961" cx="129" cy="100" rx="3" ry="3" />
<ellipse fill="#f888b8" fill-opacity="0.501961" cx="53" cy="50" rx="24" ry="24" />
<ellipse fill="#ffc2e5" fill-opacity="0.501961" cx="114" cy="117" rx="8" ry="8" />
<ellipse fill="#f3feef" fill-opacity="0.501961" cx="109" cy="0" rx="27" ry="27" />
<ellipse fill="#ffc5a5" fill-opacity="0.501961" cx="92" cy="140" rx="9" ry="9" />
<ellipse fill="#febfcd" fill-opacity="0.501961" cx="146" cy="67" rx="16" ry="16" />
<ellipse fill="#933222" fill-opacity="0.501961" cx="105" cy="133" rx="4" ry="4" />
<ellipse fill="#f8fff0" fill-opacity="0.501961" cx="167" cy="83" rx="9" ry="9" />
<ellipse fill="#ff8dc3" fill-opacity="0.501961" cx="144" cy="132" rx="8" ry="8" />
<ellipse fill="#fe9cc0" fill-opacity="0.501961" cx="185" cy="112" rx="12" ry="12" />
<ellipse fill="#fa528d" fill-opacity="0.501961" cx="94" cy="82" rx="10" ry="10" />
<ellipse fill="#ffb0d8" fill-opacity="0.501961" cx="106" cy="63" rx="11" ry="11" />
<ellipse fill="#f3fbed" fill-opacity="0.501961" cx="182" cy="0" rx="27" ry="27" />
<ellipse fill="#eef7ea" fill-opacity="0.501961" cx="255" cy="15" rx="35" ry="35" />
<ellipse fill="#ca6688" fill-opacity="0.501961" cx="196" cy="92" rx="9" ry="9" />
<ellipse fill="#faffeb" fill-opacity="0.501961" cx="48" cy="129" rx="6" ry="6" />
<ellipse fill="#fdfff3" fill-opacity="0.501961" cx="170" cy="107" rx="7" ry="7" />
<ellipse fill="#7e4052" fill-opacity="0.501961" cx="125" cy="88" rx="4" ry="4" />
<ellipse fill="#682410" fill-opacity="0.501961" cx="86" cy="121" rx="6" ry="6" />
<ellipse fill="#ff93af" fill-opacity="0.501961" cx="84" cy="96" rx="18" ry="18" />
<ellipse fill="#9f6a41" fill-opacity="0.501961" cx="60" cy="154" rx="7" ry="7" />
<ellipse fill="#eeede3" fill-opacity="0.501961" cx="255" cy="94" rx="32" ry="32" />
<ellipse fill="#80535f" fill-opacity="0.501961" cx="119" cy="107" rx="4" ry="4" />
<ellipse fill="#d67699" fill-opacity="0.501961" cx="189" cy="44" rx="10" ry="10" />
<ellipse fill="#ef709e" fill-opacity="0.501961" cx="64" cy="36" rx="10" ry="10" />
<ellipse fill="#fa95bd" fill-opacity="0.501961" cx="122" cy="44" rx="18" ry="18" />
<ellipse fill="#fafff0" fill-opacity="0.501961" cx="153" cy="80" rx="5" ry="5" />
<ellipse fill="#ff7aac" fill-opacity="0.501961" cx="218" cy="31" rx="7" ry="7" />
<ellipse fill="#f6a57b" fill-opacity="0.501961" cx="71" cy="122" rx="11" ry="11" />
<ellipse fill="#d56f91" fill-opacity="0.501961" cx="48" cy="45" rx="10" ry="10" />
<ellipse fill="#ffa0c4" fill-opacity="0.501961" cx="74" cy="56" rx="18" ry="18" />
<ellipse fill="#fffff9" fill-opacity="0.501961" cx="114" cy="131" rx="4" ry="4" />
<ellipse fill="#ff75c0" fill-opacity="0.501961" cx="57" cy="113" rx="9" ry="9" />
<ellipse fill="#ff6899" fill-opacity="0.501961" cx="184" cy="80" rx="8" ry="8" />
<ellipse fill="#fc528a" fill-opacity="0.501961" cx="69" cy="79" rx="8" ry="8" />
<ellipse fill="#995732" fill-opacity="0.501961" cx="55" cy="138" rx="4" ry="4" />
<ellipse fill="#edeee3" fill-opacity="0.501961" cx="241" cy="154" rx="37" ry="37" />
<ellipse fill="#ffa1cb" fill-opacity="0.501961" cx="42" cy="64" rx="11" ry="11" />
<ellipse fill="#fdfaef" fill-opacity="0.501961" cx="167" cy="139" rx="17" ry="17" />
<ellipse fill="#955a6b" fill-opacity="0.501961" cx="122" cy="98" rx="4" ry="4" />
<ellipse fill="#4c1921" fill-opacity="0.501961" cx="141" cy="93" rx="2" ry="2" />
<ellipse fill="#800300" fill-opacity="0.501961" cx="112" cy="126" rx="2" ry="2" />
<ellipse fill="#f8748e" fill-opacity="0.501961" cx="35" cy="120" rx="6" ry="6" />
<ellipse fill="#f4f6ec" fill-opacity="0.501961" cx="144" cy="0" rx="27" ry="27" />
<ellipse fill="#f65f93" fill-opacity="0.501961" cx="101" cy="82" rx="10" ry="10" />
<ellipse fill="#ede7d5" fill-opacity="0.501961" cx="0" cy="136" rx="34" ry="34" />
<ellipse fill="#ff6f9a" fill-opacity="0.501961" cx="216" cy="77" rx="8" ry="8" />
<ellipse fill="#ff6da2" fill-opacity="0.501961" cx="36" cy="32" rx="6" ry="6" />
<ellipse fill="#855965" fill-opacity="0.501961" cx="145" cy="107" rx="3" ry="3" />
<ellipse fill="#ffab7e" fill-opacity="0.501961" cx="68" cy="137" rx="9" ry="9" />
<ellipse fill="#f85588" fill-opacity="0.501961" cx="39" cy="80" rx="9" ry="9" />
<ellipse fill="#ffa3cc" fill-opacity="0.501961" cx="140" cy="122" rx="15" ry="15" />
<ellipse fill="#a14662" fill-opacity="0.501961" cx="38" cy="102" rx="4" ry="4" />
<ellipse fill="#f3f2ea" fill-opacity="0.501961" cx="208" cy="0" rx="26" ry="26" />
<ellipse fill="#ff689f" fill-opacity="0.501961" cx="85" cy="32" rx="5" ry="5" />
<ellipse fill="#ff3264" fill-opacity="0.501961" cx="84" cy="77" rx="4" ry="4" />
<ellipse fill="#ff90ba" fill-opacity="0.501961" cx="162" cy="35" rx="10" ry="10" />
<ellipse fill="#7c4654" fill-opacity="0.501961" cx="131" cy="91" rx="3" ry="3" />
<ellipse fill="#d27595" fill-opacity="0.501961" cx="149" cy="44" rx="8" ry="8" />
<ellipse fill="#ffaccf" fill-opacity="0.501961" cx="128" cy="61" rx="13" ry="13" />
<ellipse fill="#ffa8d1" fill-opacity="0.501961" cx="80" cy="93" rx="8" ry="8" />
<ellipse fill="#f0ece4" fill-opacity="0.501961" cx="252" cy="61" rx="29" ry="29" />
<ellipse fill="#ffaace" fill-opacity="0.501961" cx="94" cy="63" rx="11" ry="11" />
<ellipse fill="#fdb05f" fill-opacity="0.501961" cx="84" cy="110" rx="5" ry="5" />
<ellipse fill="#f183ac" fill-opacity="0.501961" cx="111" cy="40" rx="14" ry="14" />
<ellipse fill="#da4d8a" fill-opacity="0.501961" cx="70" cy="103" rx="5" ry="5" />
<ellipse fill="#fcf4e9" fill-opacity="0.501961" cx="36" cy="162" rx="19" ry="19" />
<ellipse fill="#a16b30" fill-opacity="0.501961" cx="58" cy="166" rx="4" ry="4" />
<ellipse fill="#efefe5" fill-opacity="0.501961" cx="40" cy="0" rx="28" ry="28" />
<ellipse fill="#8f3451" fill-opacity="0.501961" cx="57" cy="94" rx="3" ry="3" />
<ellipse fill="#f7a4c2" fill-opacity="0.501961" cx="168" cy="57" rx="20" ry="20" />
<ellipse fill="#f3f3ea" fill-opacity="0.501961" cx="85" cy="1" rx="26" ry="26" />
<ellipse fill="#fbf3e7" fill-opacity="0.501961" cx="123" cy="159" rx="28" ry="28" />
<ellipse fill="#cd678b" fill-opacity="0.501961" cx="160" cy="48" rx="4" ry="4" />
<ellipse fill="#8a2b2a" fill-opacity="0.501961" cx="107" cy="125" rx="3" ry="3" />
<ellipse fill="#ff96cd" fill-opacity="0.501961" cx="115" cy="87" rx="7" ry="7" />
<ellipse fill="#580d0c" fill-opacity="0.501961" cx="92" cy="115" rx="3" ry="3" />
<ellipse fill="#752c20" fill-opacity="0.501961" cx="82" cy="129" rx="6" ry="6" />
<ellipse fill="#fcb187" fill-opacity="0.501961" cx="98" cy="121" rx="6" ry="6" />
<ellipse fill="#ff5189" fill-opacity="0.501961" cx="115" cy="78" rx="5" ry="5" />
<ellipse fill="#f7ffed" fill-opacity="0.501961" cx="54" cy="127" rx="3" ry="3" />
<ellipse fill="#f3efe3" fill-opacity="0.501961" cx="0" cy="61" rx="29" ry="29" />
<ellipse fill="#ff8dbd" fill-opacity="0.501961" cx="159" cy="97" rx="9" ry="9" />
<ellipse fill="#f693b9" fill-opacity="0.501961" cx="184" cy="92" rx="9" ry="9" />
<ellipse fill="#aa274f" fill-opacity="0.501961" cx="46" cy="86" rx="3" ry="3" />
<ellipse fill="#ec884e" fill-opacity="0.501961" cx="100" cy="111" rx="4" ry="4" />
<ellipse fill="#ce7997" fill-opacity="0.501961" cx="209" cy="43" rx="9" ry="9" />
<ellipse fill="#ed92b8" fill-opacity="0.501961" cx="211" cy="52" rx="13" ry="13" />
<ellipse fill="#fb7ca9" fill-opacity="0.501961" cx="185" cy="34" rx="9" ry="9" />
<ellipse fill="#b04265" fill-opacity="0.501961" cx="58" cy="39" rx="3" ry="3" />
<ellipse fill="#ff81b1" fill-opacity="0.501961" cx="42" cy="114" rx="10" ry="10" />
<ellipse fill="#af6f84" fill-opacity="0.501961" cx="138" cy="103" rx="4" ry="4" />
<ellipse fill="#ffb1db" fill-opacity="0.501961" cx="120" cy="102" rx="3" ry="3" />
<ellipse fill="#9f3e5e" fill-opacity="0.501961" cx="51" cy="50" rx="3" ry="3" />
<ellipse fill="#f8fff2" fill-opacity="0.501961" cx="172" cy="97" rx="4" ry="4" />
<ellipse fill="#fccdc0" fill-opacity="0.501961" cx="109" cy="130" rx="3" ry="3" />
<ellipse fill="#6b4c54" fill-opacity="0.501961" cx="128" cy="111" rx="2" ry="2" />
<ellipse fill="#764553" fill-opacity="0.501961" cx="130" cy="101" rx="3" ry="3" />
<ellipse fill="#ca5242" fill-opacity="0.501961" cx="108" cy="133" rx="3" ry="3" />
<ellipse fill="#ce9168" fill-opacity="0.501961" cx="67" cy="154" rx="8" ry="8" />
<ellipse fill="#be4d71" fill-opacity="0.501961" cx="66" cy="40" rx="3" ry="3" />
<ellipse fill="#ff82b1" fill-opacity="0.501961" cx="71" cy="32" rx="6" ry="6" />
<ellipse fill="#ffb9db" fill-opacity="0.501961" cx="130" cy="107" rx="4" ry="4" />
<ellipse fill="#7a2741" fill-opacity="0.501961" cx="51" cy="94" rx="2" ry="2" />
<ellipse fill="#ff8ec2" fill-opacity="0.501961" cx="67" cy="94" rx="6" ry="6" />
<ellipse fill="#c24e71" fill-opacity="0.501961" cx="200" cy="86" rx="4" ry="4" />
<ellipse fill="#d87b9c" fill-opacity="0.501961" cx="95" cy="46" rx="9" ry="9" />
<ellipse fill="#ff88b3" fill-opacity="0.501961" cx="133" cy="82" rx="8" ry="8" />
<ellipse fill="#a66d80" fill-opacity="0.501961" cx="122" cy="110" rx="4" ry="4" />
<ellipse fill="#fffff6" fill-opacity="0.501961" cx="103" cy="138" rx="3" ry="3" />
<ellipse fill="#ff9dc6" fill-opacity="0.501961" cx="129" cy="98" rx="2" ry="2" />
<ellipse fill="#ff87b8" fill-opacity="0.501961" cx="148" cy="89" rx="7" ry="7" />
<ellipse fill="#261111" fill-opacity="0.501961" cx="148" cy="108" rx="1" ry="1" />
<ellipse fill="#ff87b5" fill-opacity="0.501961" cx="136" cy="33" rx="7" ry="7" />
<ellipse fill="#ee74a8" fill-opacity="0.501961" cx="96" cy="90" rx="12" ry="12" />
<ellipse fill="#feacc9" fill-opacity="0.501961" cx="127" cy="45" rx="10" ry="10" />
<ellipse fill="#aa4a6a" fill-opacity="0.501961" cx="192" cy="49" rx="3" ry="3" />
<ellipse fill="#b24e6e" fill-opacity="0.501961" cx="39" cy="50" rx="3" ry="3" />
<ellipse fill="#fb9dbf" fill-opacity="0.501961" cx="184" cy="113" rx="10" ry="10" />
<ellipse fill="#ff96c8" fill-opacity="0.501961" cx="108" cy="104" rx="7" ry="7" />
<ellipse fill="#a84563" fill-opacity="0.501961" cx="66" cy="102" rx="3" ry="3" />
<ellipse fill="#ba5679" fill-opacity="0.501961" cx="142" cy="50" rx="3" ry="3" />
<ellipse fill="#ff739e" fill-opacity="0.501961" cx="198" cy="78" rx="8" ry="8" />
<ellipse fill="#f48db7" fill-opacity="0.501961" cx="212" cy="110" rx="13" ry="13" />
<ellipse fill="#fdf8ec" fill-opacity="0.501961" cx="167" cy="122" rx="10" ry="10" />
<ellipse fill="#edb48e" fill-opacity="0.501961" cx="83" cy="161" rx="11" ry="11" />
<ellipse fill="#ffb4d7" fill-opacity="0.501961" cx="122" cy="121" rx="8" ry="8" />
<ellipse fill="#ffa8cf" fill-opacity="0.501961" cx="141" cy="100" rx="4" ry="4" />
<ellipse fill="#f6eede" fill-opacity="0.501961" cx="38" cy="138" rx="14" ry="14" />
<ellipse fill="#f0ebe6" fill-opacity="0.501961" cx="250" cy="38" rx="28" ry="28" />
<ellipse fill="#ff95bf" fill-opacity="0.501961" cx="203" cy="30" rx="6" ry="6" />
<ellipse fill="#a16741" fill-opacity="0.501961" cx="57" cy="145" rx="5" ry="5" />
<ellipse fill="#c44c71" fill-opacity="0.501961" cx="109" cy="40" rx="3" ry="3" />
<ellipse fill="#c96a55" fill-opacity="0.501961" cx="78" cy="124" rx="5" ry="5" />
<ellipse fill="#f97fab" fill-opacity="0.501961" cx="46" cy="38" rx="11" ry="11" />
<ellipse fill="#f9ffe7" fill-opacity="0.501961" cx="147" cy="79" rx="3" ry="3" />
<ellipse fill="#ffc198" fill-opacity="0.501961" cx="72" cy="119" rx="6" ry="6" />
<ellipse fill="#feb5cd" fill-opacity="0.501961" cx="81" cy="44" rx="7" ry="7" />
<ellipse fill="#f7a6cb" fill-opacity="0.501961" cx="192" cy="62" rx="11" ry="11" />
<ellipse fill="#b94c6f" fill-opacity="0.501961" cx="146" cy="39" rx="3" ry="3" />
<ellipse fill="#6a3845" fill-opacity="0.501961" cx="140" cy="94" rx="2" ry="2" />
<ellipse fill="#c9678a" fill-opacity="0.501961" cx="206" cy="98" rx="4" ry="4" />
<ellipse fill="#b95576" fill-opacity="0.501961" cx="203" cy="48" rx="3" ry="3" />
<ellipse fill="#ffb6d4" fill-opacity="0.501961" cx="157" cy="108" rx="6" ry="6" />
<ellipse fill="#ffadd4" fill-opacity="0.501961" cx="199" cy="92" rx="3" ry="3" />
<ellipse fill="#eee8e0" fill-opacity="0.501961" cx="255" cy="109" rx="32" ry="32" />
<ellipse fill="#be4c6e" fill-opacity="0.501961" cx="214" cy="37" rx="3" ry="3" />
<ellipse fill="#f4f0eb" fill-opacity="0.501961" cx="124" cy="0" rx="27" ry="27" />
<ellipse fill="#804656" fill-opacity="0.501961" cx="115" cy="105" rx="2" ry="2" />
<ellipse fill="#fbb279" fill-opacity="0.501961" cx="75" cy="112" rx="5" ry="5" />
<ellipse fill="#a94767" fill-opacity="0.501961" cx="43" cy="103" rx="3" ry="3" />
<ellipse fill="#fa8eb9" fill-opacity="0.501961" cx="214" cy="85" rx="10" ry="10" />
<ellipse fill="#ad4266" fill-opacity="0.501961" cx="153" cy="48" rx="2" ry="2" />
<ellipse fill="#ffb5d7" fill-opacity="0.501961" cx="148" cy="44" rx="3" ry="3" />
<ellipse fill="#c15a7f" fill-opacity="0.501961" cx="183" cy="49" rx="3" ry="3" />
<ellipse fill="#d1688c" fill-opacity="0.501961" cx="187" cy="98" rx="4" ry="4" />
<ellipse fill="#ffb1d4" fill-opacity="0.501961" cx="93" cy="45" rx="3" ry="3" />
<ellipse fill="#ffa7cc" fill-opacity="0.501961" cx="127" cy="104" rx="3" ry="3" />
<ellipse fill="#ab4569" fill-opacity="0.501961" cx="47" cy="94" rx="3" ry="3" />
<ellipse fill="#fe96c2" fill-opacity="0.501961" cx="54" cy="63" rx="10" ry="10" />
<ellipse fill="#966337" fill-opacity="0.501961" cx="58" cy="156" rx="4" ry="4" />
<ellipse fill="#c43764" fill-opacity="0.501961" cx="69" cy="85" rx="3" ry="3" />
<ellipse fill="#83371c" fill-opacity="0.501961" cx="82" cy="119" rx="3" ry="3" />
<ellipse fill="#fd4972" fill-opacity="0.501961" cx="182" cy="75" rx="3" ry="3" />
<ellipse fill="#ffacd1" fill-opacity="0.501961" cx="129" cy="95" rx="3" ry="3" />
<ellipse fill="#ff90be" fill-opacity="0.501961" cx="116" cy="85" rx="7" ry="7" />
<ellipse fill="#ff3b66" fill-opacity="0.501961" cx="107" cy="76" rx="3" ry="3" />
<ellipse fill="#ae4667" fill-opacity="0.501961" cx="53" cy="102" rx="3" ry="3" />
<ellipse fill="#d06f90" fill-opacity="0.501961" cx="114" cy="49" rx="4" ry="4" />
<ellipse fill="#efeae1" fill-opacity="0.501961" cx="0" cy="34" rx="31" ry="31" />
<ellipse fill="#ffa080" fill-opacity="0.501961" cx="96" cy="130" rx="7" ry="7" />
<ellipse fill="#bf4a6d" fill-opacity="0.501961" cx="208" cy="38" rx="3" ry="3" />
<ellipse fill="#f83758" fill-opacity="0.501961" cx="91" cy="76" rx="3" ry="3" />
<ellipse fill="#feb4d3" fill-opacity="0.501961" cx="199" cy="44" rx="3" ry="3" />
<ellipse fill="#ffd0d9" fill-opacity="0.501961" cx="79" cy="84" rx="3" ry="3" />
<ellipse fill="#fd8ab6" fill-opacity="0.501961" cx="68" cy="63" rx="11" ry="11" />
<ellipse fill="#faa2c1" fill-opacity="0.501961" cx="35" cy="66" rx="8" ry="8" />
<ellipse fill="#fcfce9" fill-opacity="0.501961" cx="155" cy="81" rx="5" ry="5" />
<ellipse fill="#f2e9e0" fill-opacity="0.501961" cx="2" cy="89" rx="29" ry="29" />
<ellipse fill="#fff7ec" fill-opacity="0.501961" cx="107" cy="148" rx="10" ry="10" />
<ellipse fill="#b23f3e" fill-opacity="0.501961" cx="112" cy="125" rx="2" ry="2" />
<ellipse fill="#f4f0eb" fill-opacity="0.501961" cx="168" cy="1" rx="26" ry="26" />
<ellipse fill="#9f3b5a" fill-opacity="0.501961" cx="209" cy="47" rx="2" ry="2" />
<ellipse fill="#fe97c0" fill-opacity="0.501961" cx="151" cy="96" rx="10" ry="10" />
<ellipse fill="#fc9ec1" fill-opacity="0.501961" cx="168" cy="38" rx="12" ry="12" />
<ellipse fill="#ffa0c7" fill-opacity="0.501961" cx="191" cy="93" rx="4" ry="4" />
<ellipse fill="#f8ffef" fill-opacity="0.501961" cx="172" cy="90" rx="4" ry="4" />
<ellipse fill="#f4eade" fill-opacity="0.501961" cx="142" cy="169" rx="21" ry="21" />
<ellipse fill="#c6547a" fill-opacity="0.501961" cx="44" cy="40" rx="3" ry="3" />
<ellipse fill="#f49ec4" fill-opacity="0.501961" cx="213" cy="61" rx="11" ry="11" />
<ellipse fill="#d48e62" fill-opacity="0.501961" cx="67" cy="169" rx="8" ry="8" />
<ellipse fill="#ff7aba" fill-opacity="0.501961" cx="66" cy="109" rx="5" ry="5" />
<ellipse fill="#ca4f77" fill-opacity="0.501961" cx="190" cy="88" rx="3" ry="3" />
<ellipse fill="#ffb6d7" fill-opacity="0.501961" cx="187" cy="44" rx="3" ry="3" />
<ellipse fill="#b14e6f" fill-opacity="0.501961" cx="200" cy="98" rx="3" ry="3" />
<ellipse fill="#ffffff" fill-opacity="0.501961" cx="111" cy="130" rx="2" ry="2" />
<ellipse fill="#ec8954" fill-opacity="0.501961" cx="91" cy="110" rx="4" ry="4" />
<ellipse fill="#d45b83" fill-opacity="0.501961" cx="91" cy="40" rx="4" ry="4" />
<ellipse fill="#cd7d4d" fill-opacity="0.501961" cx="57" cy="135" rx="4" ry="4" />
<ellipse fill="#b8204d" fill-opacity="0.501961" cx="60" cy="85" rx="2" ry="2" />
<ellipse fill="#ff85b4" fill-opacity="0.501961" cx="92" cy="33" rx="6" ry="6" />
<ellipse fill="#c45175" fill-opacity="0.501961" cx="96" cy="89" rx="3" ry="3" />
<ellipse fill="#f4ece5" fill-opacity="0.501961" cx="208" cy="132" rx="11" ry="11" />
<ellipse fill="#ef85ad" fill-opacity="0.501961" cx="36" cy="94" rx="7" ry="7" />
<ellipse fill="#ffadd0" fill-opacity="0.501961" cx="143" cy="44" rx="3" ry="3" />
<ellipse fill="#97653a" fill-opacity="0.501961" cx="58" cy="162" rx="3" ry="3" />
<ellipse fill="#f2a384" fill-opacity="0.501961" cx="143" cy="75" rx="3" ry="3" />
<ellipse fill="#a83a60" fill-opacity="0.501961" cx="40" cy="95" rx="2" ry="2" />
<ellipse fill="#ffa0c5" fill-opacity="0.501961" cx="122" cy="93" rx="3" ry="3" />
<ellipse fill="#c56182" fill-opacity="0.501961" cx="104" cy="51" rx="3" ry="3" />
<ellipse fill="#f6b98c" fill-opacity="0.501961" cx="63" cy="128" rx="7" ry="7" />
<ellipse fill="#ffaacc" fill-opacity="0.501961" cx="98" cy="45" rx="3" ry="3" />
<ellipse fill="#b45273" fill-opacity="0.501961" cx="193" cy="98" rx="3" ry="3" />
<ellipse fill="#f29bbf" fill-opacity="0.501961" cx="206" cy="91" rx="5" ry="5" />
<ellipse fill="#f99ec4" fill-opacity="0.501961" cx="42" cy="45" rx="4" ry="4" />
<ellipse fill="#fc3e62" fill-opacity="0.501961" cx="206" cy="74" rx="2" ry="2" />
<ellipse fill="#fff9ec" fill-opacity="0.501961" cx="46" cy="167" rx="9" ry="9" />
<ellipse fill="#f93a58" fill-opacity="0.501961" cx="189" cy="74" rx="2" ry="2" />
<ellipse fill="#d56e94" fill-opacity="0.501961" cx="139" cy="50" rx="3" ry="3" />
<ellipse fill="#ff9ecb" fill-opacity="0.501961" cx="114" cy="97" rx="4" ry="4" />
<ellipse fill="#ffa1c6" fill-opacity="0.501961" cx="101" cy="63" rx="11" ry="11" />
<ellipse fill="#f2a58c" fill-opacity="0.501961" cx="151" cy="75" rx="3" ry="3" />
<ellipse fill="#f0ac87" fill-opacity="0.501961" cx="137" cy="76" rx="3" ry="3" />
<ellipse fill="#ffa6cd" fill-opacity="0.501961" cx="54" cy="45" rx="3" ry="3" />
<ellipse fill="#4d0f0a" fill-opacity="0.501961" cx="87" cy="125" rx="3" ry="3" />
<ellipse fill="#fef8ef" fill-opacity="0.501961" cx="47" cy="148" rx="6" ry="6" />
<ellipse fill="#f8214b" fill-opacity="0.501961" cx="97" cy="76" rx="2" ry="2" />
<ellipse fill="#c02b59" fill-opacity="0.501961" cx="52" cy="86" rx="2" ry="2" />
<ellipse fill="#ff99c2" fill-opacity="0.501961" cx="147" cy="32" rx="6" ry="6" />
<ellipse fill="#852e24" fill-opacity="0.501961" cx="92" cy="115" rx="4" ry="4" />
<ellipse fill="#c95c80" fill-opacity="0.501961" cx="101" cy="41" rx="3" ry="3" />
<ellipse fill="#fea0c4" fill-opacity="0.501961" cx="110" cy="63" rx="12" ry="12" />
<ellipse fill="#ffe2db" fill-opacity="0.501961" cx="78" cy="80" rx="2" ry="2" />
<ellipse fill="#bd5679" fill-opacity="0.501961" cx="44" cy="50" rx="3" ry="3" />
<ellipse fill="#fbf9eb" fill-opacity="0.501961" cx="170" cy="103" rx="5" ry="5" />
<ellipse fill="#c66183" fill-opacity="0.501961" cx="189" cy="39" rx="3" ry="3" />
<ellipse fill="#ff89b9" fill-opacity="0.501961" cx="106" cy="33" rx="6" ry="6" />
<ellipse fill="#ff7fb0" fill-opacity="0.501961" cx="54" cy="33" rx="6" ry="6" />
<ellipse fill="#f7567d" fill-opacity="0.501961" cx="217" cy="74" rx="3" ry="3" />
<ellipse fill="#ff82b6" fill-opacity="0.501961" cx="106" cy="82" rx="5" ry="5" />
<ellipse fill="#351318" fill-opacity="0.501961" cx="145" cy="105" rx="1" ry="1" />
<ellipse fill="#ff82b2" fill-opacity="0.501961" cx="46" cy="113" rx="9" ry="9" />
<ellipse fill="#fea5c8" fill-opacity="0.501961" cx="136" cy="97" rx="4" ry="4" />
<ellipse fill="#fd7dae" fill-opacity="0.501961" cx="69" cy="94" rx="8" ry="8" />
<ellipse fill="#b4486c" fill-opacity="0.501961" cx="60" cy="94" rx="3" ry="3" />
<ellipse fill="#feb893" fill-opacity="0.501961" cx="102" cy="116" rx="4" ry="4" />
<ellipse fill="#ff8ebb" fill-opacity="0.501961" cx="182" cy="82" rx="6" ry="6" />
<ellipse fill="#653645" fill-opacity="0.501961" cx="126" cy="100" rx="2" ry="2" />
<ellipse fill="#f3eeea" fill-opacity="0.501961" cx="195" cy="10" rx="16" ry="16" />
<ellipse fill="#401922" fill-opacity="0.501961" cx="122" cy="97" rx="1" ry="1" />
<ellipse fill="#552732" fill-opacity="0.501961" cx="137" cy="105" rx="1" ry="1" />
<ellipse fill="#ffbc9e" fill-opacity="0.501961" cx="93" cy="140" rx="6" ry="6" />
<ellipse fill="#d14e75" fill-opacity="0.501961" cx="105" cy="88" rx="3" ry="3" />
<ellipse fill="#ff83b3" fill-opacity="0.501961" cx="120" cy="33" rx="6" ry="6" />
<ellipse fill="#79231b" fill-opacity="0.501961" cx="105" cy="134" rx="2" ry="2" />
<ellipse fill="#ff295f" fill-opacity="0.501961" cx="115" cy="76" rx="2" ry="2" />
<ellipse fill="#da8d56" fill-opacity="0.501961" cx="44" cy="123" rx="2" ry="2" />
</g>
</svg>