<svg xmlns="http://www.w3.org/2000/svg" version="1.1" width="1024" height="680">
<rect x="0" y="0" width="1024" height="680" fill="#949593" />
<g transform="scale(4.000000) translate(0.5 0.5)">
<g transform="translate(160 95) rotate(357) scale(66 59)"><rect fill="#3a0000" fill-opacity="0.501961" x="-0.5" y="-0.5" width="1" height="1" /></g>
<g transform="translate(80 71) rotate(84) scale(70 119)"><rect fill="#ecffff" fill-opacity="0.501961" x="-0.5" y="-0.5" width="1" height="1" /></g>
<g transform="translate(232 169) rotate(52) scale(73 102)"><rect fill="#232103" fill-opacity="0.501961" x="-0.5" y="-0.5" width="1" height="1" /></g>
<g transform="translate(226 77) rotate(96) scale(73 59)"><rect fill="#fcf3da" fill-opacity="0.501961" x="-0.5" y="-0.5" width="1" height="1" /></g>
<g transform="translate(17 163) rotate(314) scale(74 103)"><rect fill="#3a3312" fill-opacity="0.501961" x="-0.5" y="-0.5" width="1" height="1" /></g>
<g transform="translate(117 15) rotate(178) scale(209 76)"><rect fill="#70a7d2" fill-opacity="0.501961" x="-0.5" y="-0.5" width="1" height="1" /></g>
<g transform="translate(164 108) rotate(-4) scale(57 29)"><rect fill="#170000" fill-opacity="0.501961" x="-0.5" y="-0.5" width="1" height="1" /></g>
<g transform="translate(46 0) rotate(71) scale(40 166)"><rect fill="#205e71" fill-opacity="0.501961" x="-0.5" y="-0.5" width="1" height="1" /></g>
<g transform="translate(89 92) rotate(276) scale(47 65)"><rect fill="#fff6e9" fill-opacity="0.501961" x="-0.5" y="-0.5" width="1" height="1" /></g>
<g transform="translate(175 85) rotate(264) scale(45 35)"><rect fill="#7e0000" fill-opacity="0.501961" x="-0.5" y="-0.5" width="1" height="1" /></g>
<g transform="translate(163 42) rotate(133) scale(75 43)"><rect fill="#bac2ce" fill-opacity="0.501961" x="-0.5" y="-0.5" width="1" height="1" /></g>
<g transform="translate(121 136) rotate(270) scale(25 111)"><rect fill="#ceb49f" fill-opacity="0.501961" x="-0.5" y="-0.5" width="1" height="1" /></g>
<g transform="translate(129 116) rotate(339) scale(51 10)"><rect fill="#610000" fill-opacity="0.501961" x="-0.5" y="-0.5" width="1" height="1" /></g>
<g transform="translate(50 142) rotate(142) scale(30 100)"><rect fill="#918068" fill-opacity="0.501961" x="-0.5" y="-0.5" width="1" height="1" /></g>
<g transform="translate(200 149) rotate(316) scale(101 28)"><rect fill="#83745b" fill-opacity="0.501961" x="-0.5" y="-0.5" width="1" height="1" /></g>
<g transform="translate(152 70) rotate(66) scale(17 32)"><rect fill="#9d572f" fill-opacity="0.501961" x="-0.5" y="-0.5" width="1" height="1" /></g>
<g transform="translate(227 99) rotate(168) scale(65 22)"><rect fill="#ffde9c" fill-opacity="0.501961" x="-0.5" y="-0.5" width="1" height="1" /></g>
<g transform="translate(0 160) rotate(313) scale(30 61)"><rect fill="#172517" fill-opacity="0.501961" x="-0.5" y="-0.5" width="1" height="1" /></g>
<g transform="translate(235 50) rotate(305) scale(42 102)"><rect fill="#a7b4bb" fill-opacity="0.501961" x="-0.5" y="-0.5" width="1" height="1" /></g>
<g transform="translate(186 60) rotate(145) scale(34 5)"><rect fill="#580d00" fill-opacity="0.501961" x="-0.5" y="-0.5" width="1" height="1" /></g>
<g transform="translate(247 153) rotate(-2) scale(36 77)"><rect fill="#353d2e" fill-opacity="0.501961" x="-0.5" y="-0.5" width="1" height="1" /></g>
<g transform="translate(19 79) rotate(449) scale(58 28)"><rect fill="#b8c1ae" fill-opacity="0.501961" x="-0.5" y="-0.5" width="1" height="1" /></g>
<g transform="translate(158 100) rotate(150) scale(71 16)"><rect fill="#690000" fill-opacity="0.501961" x="-0.5" y="-0.5" width="1" height="1" /></g>
<g transform="translate(173 116) rotate(176) scale(41 14)"><rect fill="#001b21" fill-opacity="0.501961" x="-0.5" y="-0.5" width="1" height="1" /></g>
<g transform="translate(211 78) rotate(177) scale(37 41)"><rect fill="#d5dfe4" fill-opacity="0.501961" x="-0.5" y="-0.5" width="1" height="1" /></g>
<g transform="translate(111 61) rotate(-26) scale(117 34)"><rect fill="#c2d5e6" fill-opacity="0.501961" x="-0.5" y="-0.5" width="1" height="1" /></g>
<g transform="translate(140 95) rotate(234) scale(16 48)"><rect fill="#a9614b" fill-opacity="0.501961" x="-0.5" y="-0.5" width="1" height="1" /></g>
<g transform="translate(255 10) rotate(166) scale(27 27)"><rect fill="#436665" fill-opacity="0.501961" x="-0.5" y="-0.5" width="1" height="1" /></g>
<g transform="translate(27 117) rotate(362) scale(64 5)"><rect fill="#2c4435" fill-opacity="0.501961" x="-0.5" y="-0.5" width="1" height="1" /></g>
<g transform="translate(87 123) rotate(359) scale(41 2)"><rect fill="#271600" fill-opacity="0.501961" x="-0.5" y="-0.5" width="1" height="1" /></g>
<g transform="translate(83 109) rotate(191) scale(71 14)"><rect fill="#e5cdb1" fill-opacity="0.501961" x="-0.5" y="-0.5" width="1" height="1" /></g>
<g transform="translate(251 107) rotate(91) scale(16 44)"><rect fill="#db9d62" fill-opacity="0.501961" x="-0.5" y="-0.5" width="1" height="1" /></g>
<g transform="translate(79 13) rotate(165) scale(167 20)"><rect fill="#6490a8" fill-opacity="0.501961" x="-0.5" y="-0.5" width="1" height="1" /></g>
<g transform="translate(126 29) rotate(85) scale(28 105)"><rect fill="#88abc9" fill-opacity="0.501961" x="-0.5" y="-0.5" width="1" height="1" /></g>
<g transform="translate(0 7) rotate(167) scale(135 14)"><rect fill="#2c5962" fill-opacity="0.501961" x="-0.5" y="-0.5" width="1" height="1" /></g>
<g transform="translate(200 2) rotate(349) scale(80 19)"><rect fill="#758891" fill-opacity="0.501961" x="-0.5" y="-0.5" width="1" height="1" /></g>
<g transform="translate(226 133) rotate(364) scale(35 35)"><rect fill="#6c6857" fill-opacity="0.501961" x="-0.5" y="-0.5" width="1" height="1" /></g>
<g transform="translate(137 165) rotate(174) scale(169 13)"><rect fill="#857b67" fill-opacity="0.501961" x="-0.5" y="-0.5" width="1" height="1" /></g>
<g transform="translate(98 94) rotate(121) scale(18 48)"><rect fill="#f2f3e8" fill-opacity="0.501961" x="-0.5" y="-0.5" width="1" height="1" /></g>
<g transform="translate(182 77) rotate(286) scale(38 7)"><rect fill="#570000" fill-opacity="0.501961" x="-0.5" y="-0.5" width="1" height="1" /></g>
<g transform="translate(141 103) rotate(46) scale(11 53)"><rect fill="#6e0f0e" fill-opacity="0.501961" x="-0.5" y="-0.5" width="1" height="1" /></g>
<g transform="translate(151 83) rotate(356) scale(10 8)"><rect fill="#dbc6aa" fill-opacity="0.501961" x="-0.5" y="-0.5" width="1" height="1" /></g>
<g transform="translate(38 101) rotate(28) scale(55 13)"><rect fill="#d5c0a2" fill-opacity="0.501961" x="-0.5" y="-0.5" width="1" height="1" /></g>
<g transform="translate(113 140) rotate(183) scale(56 28)"><rect fill="#bdaea4" fill-opacity="0.501961" x="-0.5" y="-0.5" width="1" height="1" /></g>
<g transform="translate(255 53) rotate(326) scale(25 87)"><rect fill="#899ea0" fill-opacity="0.501961" x="-0.5" y="-0.5" width="1" height="1" /></g>
<g transform="translate(131 90) rotate(200) scale(5 26)"><rect fill="#8f664e" fill-opacity="0.501961" x="-0.5" y="-0.5" width="1" height="1" /></g>
<g transform="translate(255 163) rotate(132) scale(103 22)"><rect fill="#1d281e" fill-opacity="0.501961" x="-0.5" y="-0.5" width="1" height="1" /></g>
<g transform="translate(143 82) rotate(154) scale(2 13)"><rect fill="#000000" fill-opacity="0.501961" x="-0.5" y="-0.5" width="1" height="1" /></g>
<g transform="translate(214 42) rotate(58) scale(57 34)"><rect fill="#aeb9c3" fill-opacity="0.501961" x="-0.5" y="-0.5" width="1" height="1" /></g>
<g transform="translate(28 48) rotate(228) scale(25 73)"><rect fill="#8cacb8" fill-opacity="0.501961" x="-0.5" y="-0.5" width="1" height="1" /></g>
<g transform="translate(168 100) rotate(152) scale(38 18)"><rect fill="#5c0000" fill-opacity="0.501961" x="-0.5" y="-0.5" width="1" height="1" /></g>
<g transform="translate(62 133) rotate(190) scale(38 23)"><rect fill="#ad9b8c" fill-opacity="0.501961" x="-0.5" y="-0.5" width="1" height="1" /></g>
<g transform="translate(126 83) rotate(311) scale(12 36)"><rect fill="#c5b6a7" fill-opacity="0.501961" x="-0.5" y="-0.5" width="1" height="1" /></g>
<g transform="translate(192 80) rotate(172) scale(1 33)"><rect fill="#ff7536" fill-opacity="0.501961" x="-0.5" y="-0.5" width="1" height="1" /></g>
<g transform="translate(169 54) rotate(122) scale(12 25)"><rect fill="#a7c8e1" fill-opacity="0.501961" x="-0.5" y="-0.5" width="1" height="1" /></g>
<g transform="translate(122 154) rotate(182) scale(103 19)"><rect fill="#a7988a" fill-opacity="0.501961" x="-0.5" y="-0.5" width="1" height="1" /></g>
<g transform="translate(202 132) rotate(-47) scale(30 26)"><rect fill="#978873" fill-opacity="0.501961" x="-0.5" y="-0.5" width="1" height="1" /></g>
<g transform="translate(58 92) rotate(84) scale(18 39)"><rect fill="#e9e4d2" fill-opacity="0.501961" x="-0.5" y="-0.5" width="1" height="1" /></g>
<g transform="translate(146 120) rotate(360) scale(27 7)"><rect fill="#002222" fill-opacity="0.501961" x="-0.5" y="-0.5" width="1" height="1" /></g>
<g transform="translate(217 95) rotate(-6) scale(47 18)"><rect fill="#f9e5c0" fill-opacity="0.501961" x="-0.5" y="-0.5" width="1" height="1" /></g>
<g transform="translate(157 80) rotate(139) scale(91 1)"><rect fill="#c7b790" fill-opacity="0.501961" x="-0.5" y="-0.5" width="1" height="1" /></g>
<g transform="translate(193 55) rotate(-9) scale(13 8)"><rect fill="#6a4c1b" fill-opacity="0.501961" x="-0.5" y="-0.5" width="1" height="1" /></g>
<g transform="translate(216 108) rotate(176) scale(46 12)"><rect fill="#efbe92" fill-opacity="0.501961" x="-0.5" y="-0.5" width="1" height="1" /></g>
<g transform="translate(174 117) rotate(87) scale(12 37)"><rect fill="#002224" fill-opacity="0.501961" x="-0.5" y="-0.5" width="1" height="1" /></g>
<g transform="translate(9 103) rotate(11) scale(46 12)"><rect fill="#ac926e" fill-opacity="0.501961" x="-0.5" y="-0.5" width="1" height="1" /></g>
<g transform="translate(149 63) rotate(246) scale(1 18)"><rect fill="#820007" fill-opacity="0.501961" x="-0.5" y="-0.5" width="1" height="1" /></g>
<g transform="translate(128 60) rotate(319) scale(42 26)"><rect fill="#becfdd" fill-opacity="0.501961" x="-0.5" y="-0.5" width="1" height="1" /></g>
<g transform="translate(130 74) rotate(250) scale(17 1)"><rect fill="#875a3b" fill-opacity="0.501961" x="-0.5" y="-0.5" width="1" height="1" /></g>
<g transform="translate(160 109) rotate(72) scale(9 62)"><rect fill="#520000" fill-opacity="0.501961" x="-0.5" y="-0.5" width="1" height="1" /></g>
<g transform="translate(51 148) rotate(80) scale(1 16)"><rect fill="#120000" fill-opacity="0.501961" x="-0.5" y="-0.5" width="1" height="1" /></g>
<g transform="translate(155 66) rotate(67) scale(4 28)"><rect fill="#d2a37c" fill-opacity="0.501961" x="-0.5" y="-0.5" width="1" height="1" /></g>
<g transform="translate(67 61) rotate(169) scale(56 27)"><rect fill="#b8cfe0" fill-opacity="0.501961" x="-0.5" y="-0.5" width="1" height="1" /></g>
<g transform="translate(100 76) rotate(247) scale(33 21)"><rect fill="#e4ecf0" fill-opacity="0.501961" x="-0.5" y="-0.5" width="1" height="1" /></g>
<g transform="translate(81 121) rotate(183) scale(171 1)"><rect fill="#555a4a" fill-opacity="0.501961" x="-0.5" y="-0.5" width="1" height="1" /></g>
<g transform="translate(153 87) rotate(37) scale(1 62)"><rect fill="#89493d" fill-opacity="0.501961" x="-0.5" y="-0.5" width="1" height="1" /></g>
<g transform="translate(16 152) rotate(226) scale(134 12)"><rect fill="#535442" fill-opacity="0.501961" x="-0.5" y="-0.5" width="1" height="1" /></g>
<g transform="translate(182 86) rotate(94) scale(31 16)"><rect fill="#600000" fill-opacity="0.501961" x="-0.5" y="-0.5" width="1" height="1" /></g>
<g transform="translate(155 73) rotate(287) scale(7 7)"><rect fill="#4d291e" fill-opacity="0.501961" x="-0.5" y="-0.5" width="1" height="1" /></g>
<g transform="translate(160 29) rotate(-16) scale(35 41)"><rect fill="#98afc6" fill-opacity="0.501961" x="-0.5" y="-0.5" width="1" height="1" /></g>
<g transform="translate(184 47) rotate(172) scale(7 3)"><rect fill="#372c20" fill-opacity="0.501961" x="-0.5" y="-0.5" width="1" height="1" /></g>
<g transform="translate(32 134) rotate(174) scale(31 28)"><rect fill="#897f6b" fill-opacity="0.501961" x="-0.5" y="-0.5" width="1" height="1" /></g>
<g transform="translate(177 137) rotate(366) scale(32 26)"><rect fill="#a99a89" fill-opacity="0.501961" x="-0.5" y="-0.5" width="1" height="1" /></g>
<g transform="translate(145 101) rotate(51) scale(1 71)"><rect fill="#a77267" fill-opacity="0.501961" x="-0.5" y="-0.5" width="1" height="1" /></g>
<g transform="translate(131 90) rotate(25) scale(5 36)"><rect fill="#8d6e5d" fill-opacity="0.501961" x="-0.5" y="-0.5" width="1" height="1" /></g>
<g transform="translate(112 124) rotate(0) scale(8 3)"><rect fill="#000b00" fill-opacity="0.501961" x="-0.5" y="-0.5" width="1" height="1" /></g>
<g transform="translate(210 17) rotate(73) scale(14 34)"><rect fill="#b9aea6" fill-opacity="0.501961" x="-0.5" y="-0.5" width="1" height="1" /></g>
<g transform="translate(125 118) rotate(338) scale(13 1)"><rect fill="#250000" fill-opacity="0.501961" x="-0.5" y="-0.5" width="1" height="1" /></g>
<g transform="translate(209 67) rotate(80) scale(22 30)"><rect fill="#b8c7d3" fill-opacity="0.501961" x="-0.5" y="-0.5" width="1" height="1" /></g>
<g transform="translate(180 110) rotate(341) scale(23 2)"><rect fill="#003b58" fill-opacity="0.501961" x="-0.5" y="-0.5" width="1" height="1" /></g>
<g transform="translate(167 77) rotate(47) scale(7 15)"><rect fill="#620000" fill-opacity="0.501961" x="-0.5" y="-0.5" width="1" height="1" /></g>
<g transform="translate(215 124) rotate(282) scale(9 41)"><rect fill="#796c5b" fill-opacity="0.501961" x="-0.5" y="-0.5" width="1" height="1" /></g>
<g transform="translate(144 94) rotate(318) scale(47 1)"><rect fill="#6b0000" fill-opacity="0.501961" x="-0.5" y="-0.5" width="1" height="1" /></g>
<g transform="translate(0 19) rotate(34) scale(25 31)"><rect fill="#507172" fill-opacity="0.501961" x="-0.5" y="-0.5" width="1" height="1" /></g>
<g transform="translate(147 76) rotate(252) scale(7 2)"><rect fill="#46190d" fill-opacity="0.501961" x="-0.5" y="-0.5" width="1" height="1" /></g>
<g transform="translate(137 122) rotate(96) scale(1 35)"><rect fill="#001115" fill-opacity="0.501961" x="-0.5" y="-0.5" width="1" height="1" /></g>
<g transform="translate(21 32) rotate(331) scale(65 12)"><rect fill="#7094a1" fill-opacity="0.501961" x="-0.5" y="-0.5" width="1" height="1" /></g>
<g transform="translate(152 0) rotate(255) scale(17 43)"><rect fill="#60849f" fill-opacity="0.501961" x="-0.5" y="-0.5" width="1" height="1" /></g>
<g transform="translate(120 107) rotate(326) scale(1 15)"><rect fill="#6f613f" fill-opacity="0.501961" x="-0.5" y="-0.5" width="1" height="1" /></g>
<g transform="translate(73 114) rotate(187) scale(85 4)"><rect fill="#aba3a2" fill-opacity="0.501961" x="-0.5" y="-0.5" width="1" height="1" /></g>
<g transform="translate(119 105) rotate(187) scale(1 35)"><rect fill="#beb59f" fill-opacity="0.501961" x="-0.5" y="-0.5" width="1" height="1" /></g>
<g transform="translate(80 164) rotate(110) scale(10 60)"><rect fill="#878071" fill-opacity="0.501961" x="-0.5" y="-0.5" width="1" height="1" /></g>
<g transform="translate(183 36) rotate(45) scale(7 35)"><rect fill="#c1c7d1" fill-opacity="0.501961" x="-0.5" y="-0.5" width="1" height="1" /></g>
<g transform="translate(154 88) rotate(318) scale(19 3)"><rect fill="#a16b6a" fill-opacity="0.501961" x="-0.5" y="-0.5" width="1" height="1" /></g>
<g transform="translate(153 80) rotate(323) scale(10 3)"><rect fill="#edcfb1" fill-opacity="0.501961" x="-0.5" y="-0.5" width="1" height="1" /></g>
<g transform="translate(0 164) rotate(121) scale(11 28)"><rect fill="#1a2316" fill-opacity="0.501961" x="-0.5" y="-0.5" width="1" height="1" /></g>
<g transform="translate(26 71) rotate(196) scale(20 32)"><rect fill="#b3c1c5" fill-opacity="0.501961" x="-0.5" y="-0.5" width="1" height="1" /></g>
<g transform="translate(99 44) rotate(156) scale(1 6)"><rect fill="#5f391a" fill-opacity="0.501961" x="-0.5" y="-0.5" width="1" height="1" /></g>
<g transform="translate(189 53) rotate(214) scale(11 10)"><rect fill="#97795d" fill-opacity="0.501961" x="-0.5" y="-0.5" width="1" height="1" /></g>
<g transform="translate(247 136) rotate(186) scale(27 2)"><rect fill="#232719" fill-opacity="0.501961" x="-0.5" y="-0.5" width="1" height="1" /></g>
<g transform="translate(37 114) rotate(189) scale(75 3)"><rect fill="#757c76" fill-opacity="0.501961" x="-0.5" y="-0.5" width="1" height="1" /></g>
<g transform="translate(94 18) rotate(77) scale(13 84)"><rect fill="#719ab8" fill-opacity="0.501961" x="-0.5" y="-0.5" width="1" height="1" /></g>
<g transform="translate(138 102) rotate(234) scale(3 20)"><rect fill="#640000" fill-opacity="0.501961" x="-0.5" y="-0.5" width="1" height="1" /></g>
<g transform="translate(120 137) rotate(97) scale(20 44)"><rect fill="#bcafa6" fill-opacity="0.501961" x="-0.5" y="-0.5" width="1" height="1" /></g>
<g transform="translate(177 50) rotate(153) scale(20 1)"><rect fill="#566167" fill-opacity="0.501961" x="-0.5" y="-0.5" width="1" height="1" /></g>
<g transform="translate(192 41) rotate(17) scale(4 23)"><rect fill="#a0b9d0" fill-opacity="0.501961" x="-0.5" y="-0.5" width="1" height="1" /></g>
<g transform="translate(97 108) rotate(184) scale(37 7)"><rect fill="#f8e2c7" fill-opacity="0.501961" x="-0.5" y="-0.5" width="1" height="1" /></g>
<g transform="translate(153 99) rotate(234) scale(3 49)"><rect fill="#550000" fill-opacity="0.501961" x="-0.5" y="-0.5" width="1" height="1" /></g>
<g transform="translate(220 114) rotate(270) scale(2 27)"><rect fill="#e0b19f" fill-opacity="0.501961" x="-0.5" y="-0.5" width="1" height="1" /></g>
<g transform="translate(161 86) rotate(229) scale(1 31)"><rect fill="#680000" fill-opacity="0.501961" x="-0.5" y="-0.5" width="1" height="1" /></g>
<g transform="translate(190 72) rotate(-8) scale(1 30)"><rect fill="#b80000" fill-opacity="0.501961" x="-0.5" y="-0.5" width="1" height="1" /></g>
<g transform="translate(111 70) rotate(65) scale(58 1)"><rect fill="#d0a98a" fill-opacity="0.501961" x="-0.5" y="-0.5" width="1" height="1" /></g>
<g transform="translate(215 169) rotate(277) scale(20 39)"><rect fill="#505344" fill-opacity="0.501961" x="-0.5" y="-0.5" width="1" height="1" /></g>
<g transform="translate(59 169) rotate(99) scale(7 49)"><rect fill="#5b5d4f" fill-opacity="0.501961" x="-0.5" y="-0.5" width="1" height="1" /></g>
<g transform="translate(78 33) rotate(353) scale(88 11)"><rect fill="#86adcb" fill-opacity="0.501961" x="-0.5" y="-0.5" width="1" height="1" /></g>
<g transform="translate(175 14) rotate(269) scale(15 51)"><rect fill="#8fa2b4" fill-opacity="0.501961" x="-0.5" y="-0.5" width="1" height="1" /></g>
<g transform="translate(130 100) rotate(77) scale(5 1)"><rect fill="#210403" fill-opacity="0.501961" x="-0.5" y="-0.5" width="1" height="1" /></g>
<g transform="translate(13 95) rotate(126) scale(9 36)"><rect fill="#b8b18d" fill-opacity="0.501961" x="-0.5" y="-0.5" width="1" height="1" /></g>
<g transform="translate(133 89) rotate(100) scale(1 6)"><rect fill="#801812" fill-opacity="0.501961" x="-0.5" y="-0.5" width="1" height="1" /></g>
<g transform="translate(200 156) rotate(83) scale(17 54)"><rect fill="#767565" fill-opacity="0.501961" x="-0.5" y="-0.5" width="1" height="1" /></g>
<g transform="translate(57 132) rotate(273) scale(26 23)"><rect fill="#a49789" fill-opacity="0.501961" x="-0.5" y="-0.5" width="1" height="1" /></g>
<g transform="translate(140 74) rotate(51) scale(4 21)"><rect fill="#a79280" fill-opacity="0.501961" x="-0.5" y="-0.5" width="1" height="1" /></g>
<g transform="translate(130 87) rotate(-9) scale(21 1)"><rect fill="#e7d7c5" fill-opacity="0.501961" x="-0.5" y="-0.5" width="1" height="1" /></g>
<g transform="translate(175 124) rotate(266) scale(1 67)"><rect fill="#88816f" fill-opacity="0.501961" x="-0.5" y="-0.5" width="1" height="1" /></g>
<g transform="translate(121 79) rotate(65) scale(6 17)"><rect fill="#d9dfdf" fill-opacity="0.501961" x="-0.5" y="-0.5" width="1" height="1" /></g>
<g transform="translate(191 65) rotate(248) scale(12 1)"><rect fill="#dd6c39" fill-opacity="0.501961" x="-0.5" y="-0.5" width="1" height="1" /></g>
<g transform="translate(129 51) rotate(130) scale(25 38)"><rect fill="#b5c9db" fill-opacity="0.501961" x="-0.5" y="-0.5" width="1" height="1" /></g>
<g transform="translate(222 138) rotate(233) scale(6 10)"><rect fill="#424434" fill-opacity="0.501961" x="-0.5" y="-0.5" width="1" height="1" /></g>
<g transform="translate(74 13) rotate(345) scale(48 7)"><rect fill="#5c8ba9" fill-opacity="0.501961" x="-0.5" y="-0.5" width="1" height="1" /></g>
<g transform="translate(224 36) rotate(215) scale(31 18)"><rect fill="#9babb5" fill-opacity="0.501961" x="-0.5" y="-0.5" width="1" height="1" /></g>
<g transform="translate(128 102) rotate(242) scale(6 1)"><rect fill="#eceae0" fill-opacity="0.501961" x="-0.5" y="-0.5" width="1" height="1" /></g>
<g transform="translate(178 113) rotate(159) scale(33 5)"><rect fill="#002d34" fill-opacity="0.501961" x="-0.5" y="-0.5" width="1" height="1" /></g>
<g transform="translate(198 55) rotate(-1) scale(4 4)"><rect fill="#160c03" fill-opacity="0.501961" x="-0.5" y="-0.5" width="1" height="1" /></g>
<g transform="translate(139 124) rotate(268) scale(1 45)"><rect fill="#647d7f" fill-opacity="0.501961" x="-0.5" y="-0.5" width="1" height="1" /></g>
<g transform="translate(219 62) rotate(98) scale(20 40)"><rect fill="#bac5cb" fill-opacity="0.501961" x="-0.5" y="-0.5" width="1" height="1" /></g>
<g transform="translate(105 122) rotate(269) scale(1 48)"><rect fill="#302b20" fill-opacity="0.501961" x="-0.5" y="-0.5" width="1" height="1" /></g>
<g transform="translate(66 74) rotate(266) scale(24 36)"><rect fill="#cfd6d8" fill-opacity="0.501961" x="-0.5" y="-0.5" width="1" height="1" /></g>
<g transform="translate(183 70) rotate(74) scale(14 11)"><rect fill="#5a0000" fill-opacity="0.501961" x="-0.5" y="-0.5" width="1" height="1" /></g>
<g transform="translate(124 105) rotate(131) scale(12 1)"><rect fill="#423e2c" fill-opacity="0.501961" x="-0.5" y="-0.5" width="1" height="1" /></g>
<g transform="translate(255 2) rotate(199) scale(10 19)"><rect fill="#44615f" fill-opacity="0.501961" x="-0.5" y="-0.5" width="1" height="1" /></g>
<g transform="translate(253 90) rotate(262) scale(22 30)"><rect fill="#d7c79c" fill-opacity="0.501961" x="-0.5" y="-0.5" width="1" height="1" /></g>
<g transform="translate(219 0) rotate(148) scale(24 17)"><rect fill="#758487" fill-opacity="0.501961" x="-0.5" y="-0.5" width="1" height="1" /></g>
<g transform="translate(144 86) rotate(162) scale(2 11)"><rect fill="#141404" fill-opacity="0.501961" x="-0.5" y="-0.5" width="1" height="1" /></g>
<g transform="translate(162 169) rotate(0) scale(28 21)"><rect fill="#857e6e" fill-opacity="0.501961" x="-0.5" y="-0.5" width="1" height="1" /></g>
<g transform="translate(194 86) rotate(266) scale(35 1)"><rect fill="#d3d4cd" fill-opacity="0.501961" x="-0.5" y="-0.5" width="1" height="1" /></g>
<g transform="translate(252 29) rotate(53) scale(63 12)"><rect fill="#7b8b8b" fill-opacity="0.501961" x="-0.5" y="-0.5" width="1" height="1" /></g>
<g transform="translate(231 78) rotate(122) scale(12 35)"><rect fill="#cbcfc6" fill-opacity="0.501961" x="-0.5" y="-0.5" width="1" height="1" /></g>
<g transform="translate(59 0) rotate(164) scale(41 19)"><rect fill="#3e7694" fill-opacity="0.501961" x="-0.5" y="-0.5" width="1" height="1" /></g>
<g transform="translate(11 119) rotate(177) scale(77 1)"><rect fill="#413c26" fill-opacity="0.501961" x="-0.5" y="-0.5" width="1" height="1" /></g>
<g transform="translate(248 113) rotate(184) scale(25 4)"><rect fill="#a48070" fill-opacity="0.501961" x="-0.5" y="-0.5" width="1" height="1" /></g>
<g transform="translate(198 53) rotate(75) scale(7 3)"><rect fill="#1c0e00" fill-opacity="0.501961" x="-0.5" y="-0.5" width="1" height="1" /></g>
<g transform="translate(101 118) rotate(268) scale(1 34)"><rect fill="#7f8f8e" fill-opacity="0.501961" x="-0.5" y="-0.5" width="1" height="1" /></g>
<g transform="translate(157 67) rotate(89) scale(1 20)"><rect fill="#f3b584" fill-opacity="0.501961" x="-0.5" y="-0.5" width="1" height="1" /></g>
<g transform="translate(249 69) rotate(251) scale(36 18)"><rect fill="#b5b9ab" fill-opacity="0.501961" x="-0.5" y="-0.5" width="1" height="1" /></g>
<g transform="translate(153 120) rotate(2) scale(14 7)"><rect fill="#002625" fill-opacity="0.501961" x="-0.5" y="-0.5" width="1" height="1" /></g>
<g transform="translate(183 158) rotate(124) scale(6 9)"><rect fill="#a19382" fill-opacity="0.501961" x="-0.5" y="-0.5" width="1" height="1" /></g>
<g transform="translate(118 101) rotate(318) scale(1 10)"><rect fill="#e1e0d0" fill-opacity="0.501961" x="-0.5" y="-0.5" width="1" height="1" /></g>
<g transform="translate(255 116) rotate(268) scale(1 59)"><rect fill="#3e4c3a" fill-opacity="0.501961" x="-0.5" y="-0.5" width="1" height="1" /></g>
<g transform="translate(162 60) rotate(259) scale(2 8)"><rect fill="#991b1c" fill-opacity="0.501961" x="-0.5" y="-0.5" width="1" height="1" /></g>
<g transform="translate(187 64) rotate(262) scale(28 1)"><rect fill="#640400" fill-opacity="0.501961" x="-0.5" y="-0.5" width="1" height="1" /></g>
<g transform="translate(42 135) rotate(21) scale(23 5)"><rect fill="#9a9082" fill-opacity="0.501961" x="-0.5" y="-0.5" width="1" height="1" /></g>
<g transform="translate(224 168) rotate(5) scale(30 3)"><rect fill="#383a29" fill-opacity="0.501961" x="-0.5" y="-0.5" width="1" height="1" /></g>
<g transform="translate(22 43) rotate(262) scale(10 33)"><rect fill="#85a2ac" fill-opacity="0.501961" x="-0.5" y="-0.5" width="1" height="1" /></g>
<g transform="translate(48 98) rotate(15) scale(37 13)"><rect fill="#dad0ba" fill-opacity="0.501961" x="-0.5" y="-0.5" width="1" height="1" /></g>
<g transform="translate(160 72) rotate(260) scale(5 10)"><rect fill="#663e33" fill-opacity="0.501961" x="-0.5" y="-0.5" width="1" height="1" /></g>
<g transform="translate(51 108) rotate(13) scale(53 6)"><rect fill="#d1b7a3" fill-opacity="0.501961" x="-0.5" y="-0.5" width="1" height="1" /></g>
<g transform="translate(139 88) rotate(337) scale(3 10)"><rect fill="#d6c9b4" fill-opacity="0.501961" x="-0.5" y="-0.5" width="1" height="1" /></g>
<g transform="translate(133 96) rotate(180) scale(5 5)"><rect fill="#d5ccb4" fill-opacity="0.501961" x="-0.5" y="-0.5" width="1" height="1" /></g>
<g transform="translate(0 65) rotate(170) scale(18 35)"><rect fill="#8aa599" fill-opacity="0.501961" x="-0.5" y="-0.5" width="1" height="1" /></g>
<g transform="translate(107 55) rotate(326) scale(34 8)"><rect fill="#cfd3d9" fill-opacity="0.501961" x="-0.5" y="-0.5" width="1" height="1" /></g>
<g transform="translate(138 138) rotate(183) scale(39 26)"><rect fill="#b7a99e" fill-opacity="0.501961" x="-0.5" y="-0.5" width="1" height="1" /></g>
<g transform="translate(125 83) rotate(6) scale(11 1)"><rect fill="#957762" fill-opacity="0.501961" x="-0.5" y="-0.5" width="1" height="1" /></g>
<g transform="translate(199 151) rotate(101) scale(1 16)"><rect fill="#414337" fill-opacity="0.501961" x="-0.5" y="-0.5" width="1" height="1" /></g>
<g transform="translate(221 160) rotate(365) scale(50 1)"><rect fill="#4b4b3c" fill-opacity="0.501961" x="-0.5" y="-0.5" width="1" height="1" /></g>
<g transform="translate(49 53) rotate(79) scale(14 31)"><rect fill="#a3bbcc" fill-opacity="0.501961" x="-0.5" y="-0.5" width="1" height="1" /></g>
<g transform="translate(140 26) rotate(356) scale(48 17)"><rect fill="#8facc5" fill-opacity="0.501961" x="-0.5" y="-0.5" width="1" height="1" /></g>
<g transform="translate(150 76) rotate(336) scale(1 16)"><rect fill="#dab8a7" fill-opacity="0.501961" x="-0.5" y="-0.5" width="1" height="1" /></g>
<g transform="translate(121 117) rotate(259) scale(8 1)"><rect fill="#000e01" fill-opacity="0.501961" x="-0.5" y="-0.5" width="1" height="1" /></g>
<g transform="translate(146 94) rotate(314) scale(6 1)"><rect fill="#a6736e" fill-opacity="0.501961" x="-0.5" y="-0.5" width="1" height="1" /></g>
<g transform="translate(176 71) rotate(133) scale(10 2)"><rect fill="#33313d" fill-opacity="0.501961" x="-0.5" y="-0.5" width="1" height="1" /></g>
<g transform="translate(165 73) rotate(143) scale(19 1)"><rect fill="#b59976" fill-opacity="0.501961" x="-0.5" y="-0.5" width="1" height="1" /></g>
<g transform="translate(140 69) rotate(130) scale(12 1)"><rect fill="#81171e" fill-opacity="0.501961" x="-0.5" y="-0.5" width="1" height="1" /></g>
<g transform="translate(185 141) rotate(164) scale(40 10)"><rect fill="#a0988c" fill-opacity="0.501961" x="-0.5" y="-0.5" width="1" height="1" /></g>
<g transform="translate(171 119) rotate(180) scale(45 7)"><rect fill="#002320" fill-opacity="0.501961" x="-0.5" y="-0.5" width="1" height="1" /></g>
<g transform="translate(163 97) rotate(143) scale(52 13)"><rect fill="#610000" fill-opacity="0.501961" x="-0.5" y="-0.5" width="1" height="1" /></g>
<g transform="translate(156 70) rotate(360) scale(2 10)"><rect fill="#c45542" fill-opacity="0.501961" x="-0.5" y="-0.5" width="1" height="1" /></g>
<g transform="translate(188 76) rotate(171) scale(3 34)"><rect fill="#6a0000" fill-opacity="0.501961" x="-0.5" y="-0.5" width="1" height="1" /></g>
<g transform="translate(152 72) rotate(114) scale(1 6)"><rect fill="#212211" fill-opacity="0.501961" x="-0.5" y="-0.5" width="1" height="1" /></g>
<g transform="translate(145 78) rotate(138) scale(2 1)"><rect fill="#c2c1b3" fill-opacity="0.501961" x="-0.5" y="-0.5" width="1" height="1" /></g>
<g transform="translate(100 169) rotate(182) scale(33 1)"><rect fill="#746c59" fill-opacity="0.501961" x="-0.5" y="-0.5" width="1" height="1" /></g>
<g transform="translate(72 121) rotate(308) scale(1 5)"><rect fill="#3d1b00" fill-opacity="0.501961" x="-0.5" y="-0.5" width="1" height="1" /></g>
<g transform="translate(203 59) rotate(123) scale(28 7)"><rect fill="#afc0d0" fill-opacity="0.501961" x="-0.5" y="-0.5" width="1" height="1" /></g>
<g transform="translate(121 97) rotate(41) scale(3 19)"><rect fill="#e2cfb7" fill-opacity="0.501961" x="-0.5" y="-0.5" width="1" height="1" /></g>
<g transform="translate(109 124) rotate(279) scale(1 14)"><rect fill="#2e260e" fill-opacity="0.501961" x="-0.5" y="-0.5" width="1" height="1" /></g>
<g transform="translate(177 56) rotate(360) scale(12 5)"><rect fill="#b4cbde" fill-opacity="0.501961" x="-0.5" y="-0.5" width="1" height="1" /></g>
<g transform="translate(15 0) rotate(167) scale(21 7)"><rect fill="#24525e" fill-opacity="0.501961" x="-0.5" y="-0.5" width="1" height="1" /></g>
<g transform="translate(33 121) rotate(180) scale(49 4)"><rect fill="#85735b" fill-opacity="0.501961" x="-0.5" y="-0.5" width="1" height="1" /></g>
<g transform="translate(229 111) rotate(355) scale(50 5)"><rect fill="#d0a287" fill-opacity="0.501961" x="-0.5" y="-0.5" width="1" height="1" /></g>
<g transform="translate(18 66) rotate(265) scale(30 14)"><rect fill="#a2b5b5" fill-opacity="0.501961" x="-0.5" y="-0.5" width="1" height="1" /></g>
<g transform="translate(0 40) rotate(48) scale(9 75)"><rect fill="#64878f" fill-opacity="0.501961" x="-0.5" y="-0.5" width="1" height="1" /></g>
<g transform="translate(129 102) rotate(82) scale(3 2)"><rect fill="#dec5bc" fill-opacity="0.501961" x="-0.5" y="-0.5" width="1" height="1" /></g>
<g transform="translate(19 113) rotate(268) scale(3 27)"><rect fill="#637475" fill-opacity="0.501961" x="-0.5" y="-0.5" width="1" height="1" /></g>
<g transform="translate(28 146) rotate(173) scale(16 18)"><rect fill="#6f6a58" fill-opacity="0.501961" x="-0.5" y="-0.5" width="1" height="1" /></g>
<g transform="translate(153 86) rotate(42) scale(5 1)"><rect fill="#660000" fill-opacity="0.501961" x="-0.5" y="-0.5" width="1" height="1" /></g>
<g transform="translate(121 110) rotate(158) scale(1 14)"><rect fill="#886145" fill-opacity="0.501961" x="-0.5" y="-0.5" width="1" height="1" /></g>
<g transform="translate(86 118) rotate(182) scale(24 5)"><rect fill="#999a92" fill-opacity="0.501961" x="-0.5" y="-0.5" width="1" height="1" /></g>
<g transform="translate(84 48) rotate(344) scale(27 14)"><rect fill="#9cbfd9" fill-opacity="0.501961" x="-0.5" y="-0.5" width="1" height="1" /></g>
<g transform="translate(171 65) rotate(-33) scale(8 2)"><rect fill="#6e6539" fill-opacity="0.501961" x="-0.5" y="-0.5" width="1" height="1" /></g>
<g transform="translate(227 25) rotate(347) scale(23 10)"><rect fill="#8a9aa4" fill-opacity="0.501961" x="-0.5" y="-0.5" width="1" height="1" /></g>
<g transform="translate(211 117) rotate(177) scale(35 1)"><rect fill="#626c61" fill-opacity="0.501961" x="-0.5" y="-0.5" width="1" height="1" /></g>
<g transform="translate(184 61) rotate(142) scale(11 1)"><rect fill="#3a0000" fill-opacity="0.501961" x="-0.5" y="-0.5" width="1" height="1" /></g>
<g transform="translate(179 44) rotate(58) scale(5 30)"><rect fill="#a1bbd1" fill-opacity="0.501961" x="-0.5" y="-0.5" width="1" height="1" /></g>
<g transform="translate(151 143) rotate(66) scale(10 70)"><rect fill="#ada196" fill-opacity="0.501961" x="-0.5" y="-0.5" width="1" height="1" /></g>
<g transform="translate(209 99) rotate(348) scale(29 12)"><rect fill="#f9e5c1" fill-opacity="0.501961" x="-0.5" y="-0.5" width="1" height="1" /></g>
<g transform="translate(184 54) rotate(315) scale(1 8)"><rect fill="#866c37" fill-opacity="0.501961" x="-0.5" y="-0.5" width="1" height="1" /></g>
<g transform="translate(130 117) rotate(52) scale(5 13)"><rect fill="#660103" fill-opacity="0.501961" x="-0.5" y="-0.5" width="1" height="1" /></g>
<g transform="translate(136 57) rotate(257) scale(9 47)"><rect fill="#adcbe1" fill-opacity="0.501961" x="-0.5" y="-0.5" width="1" height="1" /></g>
<g transform="translate(223 11) rotate(258) scale(12 23)"><rect fill="#a4a39d" fill-opacity="0.501961" x="-0.5" y="-0.5" width="1" height="1" /></g>
<g transform="translate(71 96) rotate(107) scale(8 61)"><rect fill="#e2e3d7" fill-opacity="0.501961" x="-0.5" y="-0.5" width="1" height="1" /></g>
<g transform="translate(163 107) rotate(253) scale(9 56)"><rect fill="#540000" fill-opacity="0.501961" x="-0.5" y="-0.5" width="1" height="1" /></g>
<g transform="translate(88 122) rotate(163) scale(8 1)"><rect fill="#2a1f0f" fill-opacity="0.501961" x="-0.5" y="-0.5" width="1" height="1" /></g>
<g transform="translate(238 3) rotate(218) scale(12 14)"><rect fill="#928b7b" fill-opacity="0.501961" x="-0.5" y="-0.5" width="1" height="1" /></g>
<g transform="translate(117 160) rotate(192) scale(9 1)"><rect fill="#6d6754" fill-opacity="0.501961" x="-0.5" y="-0.5" width="1" height="1" /></g>
<g transform="translate(232 100) rotate(162) scale(61 6)"><rect fill="#f0d09a" fill-opacity="0.501961" x="-0.5" y="-0.5" width="1" height="1" /></g>
<g transform="translate(168 83) rotate(47) scale(1 13)"><rect fill="#b78071" fill-opacity="0.501961" x="-0.5" y="-0.5" width="1" height="1" /></g>
<g transform="translate(114 80) rotate(109) scale(6 2)"><rect fill="#a29a93" fill-opacity="0.501961" x="-0.5" y="-0.5" width="1" height="1" /></g>
<g transform="translate(149 83) rotate(299) scale(7 1)"><rect fill="#d5d0be" fill-opacity="0.501961" x="-0.5" y="-0.5" width="1" height="1" /></g>
<g transform="translate(201 78) rotate(258) scale(31 1)"><rect fill="#b0b1ab" fill-opacity="0.501961" x="-0.5" y="-0.5" width="1" height="1" /></g>
<g transform="translate(67 137) rotate(167) scale(16 27)"><rect fill="#a89d93" fill-opacity="0.501961" x="-0.5" y="-0.5" width="1" height="1" /></g>
<g transform="translate(135 87) rotate(250) scale(17 2)"><rect fill="#9c8572" fill-opacity="0.501961" x="-0.5" y="-0.5" width="1" height="1" /></g>
<g transform="translate(19 153) rotate(323) scale(11 78)"><rect fill="#575845" fill-opacity="0.501961" x="-0.5" y="-0.5" width="1" height="1" /></g>
<g transform="translate(115 64) rotate(28) scale(12 5)"><rect fill="#d6e3ee" fill-opacity="0.501961" x="-0.5" y="-0.5" width="1" height="1" /></g>
<g transform="translate(137 74) rotate(36) scale(1 21)"><rect fill="#894540" fill-opacity="0.501961" x="-0.5" y="-0.5" width="1" height="1" /></g>
<g transform="translate(192 62) rotate(199) scale(1 9)"><rect fill="#cdb3b5" fill-opacity="0.501961" x="-0.5" y="-0.5" width="1" height="1" /></g>
<g transform="translate(193 101) rotate(3) scale(1 18)"><rect fill="#c1906c" fill-opacity="0.501961" x="-0.5" y="-0.5" width="1" height="1" /></g>
<g transform="translate(114 111) rotate(114) scale(9 11)"><rect fill="#e5cfb8" fill-opacity="0.501961" x="-0.5" y="-0.5" width="1" height="1" /></g>
<g transform="translate(159 90) rotate(320) scale(14 1)"><rect fill="#bb9387" fill-opacity="0.501961" x="-0.5" y="-0.5" width="1" height="1" /></g>
<g transform="translate(160 66) rotate(107) scale(3 22)"><rect fill="#ae8765" fill-opacity="0.501961" x="-0.5" y="-0.5" width="1" height="1" /></g>
<g transform="translate(155 72) rotate(155) scale(1 7)"><rect fill="#ce9585" fill-opacity="0.501961" x="-0.5" y="-0.5" width="1" height="1" /></g>
<g transform="translate(192 153) rotate(285) scale(1 29)"><rect fill="#9b9383" fill-opacity="0.501961" x="-0.5" y="-0.5" width="1" height="1" /></g>
<g transform="translate(4 105) rotate(290) scale(5 22)"><rect fill="#938165" fill-opacity="0.501961" x="-0.5" y="-0.5" width="1" height="1" /></g>
<g transform="translate(171 112) rotate(72) scale(1 44)"><rect fill="#002d40" fill-opacity="0.501961" x="-0.5" y="-0.5" width="1" height="1" /></g>
<g transform="translate(231 143) rotate(270) scale(9 29)"><rect fill="#636355" fill-opacity="0.501961" x="-0.5" y="-0.5" width="1" height="1" /></g>
<g transform="translate(217 129) rotate(15) scale(31 1)"><rect fill="#8e8875" fill-opacity="0.501961" x="-0.5" y="-0.5" width="1" height="1" /></g>
<g transform="translate(39 117) rotate(361) scale(33 1)"><rect fill="#73826c" fill-opacity="0.501961" x="-0.5" y="-0.5" width="1" height="1" /></g>
<g transform="translate(176 67) rotate(320) scale(31 1)"><rect fill="#5d0000" fill-opacity="0.501961" x="-0.5" y="-0.5" width="1" height="1" /></g>
<g transform="translate(141 83) rotate(271) scale(1 6)"><rect fill="#b3997f" fill-opacity="0.501961" x="-0.5" y="-0.5" width="1" height="1" /></g>
<g transform="translate(204 22) rotate(252) scale(6 31)"><rect fill="#bbb9ba" fill-opacity="0.501961" x="-0.5" y="-0.5" width="1" height="1" /></g>
<g transform="translate(200 38) rotate(45) scale(23 19)"><rect fill="#9db2c7" fill-opacity="0.501961" x="-0.5" y="-0.5" width="1" height="1" /></g>
<g transform="translate(114 69) rotate(206) scale(7 1)"><rect fill="#938e8c" fill-opacity="0.501961" x="-0.5" y="-0.5" width="1" height="1" /></g>
<g transform="translate(177 151) rotate(287) scale(1 11)"><rect fill="#625f4f" fill-opacity="0.501961" x="-0.5" y="-0.5" width="1" height="1" /></g>
<g transform="translate(251 126) rotate(189) scale(26 11)"><rect fill="#454637" fill-opacity="0.501961" x="-0.5" y="-0.5" width="1" height="1" /></g>
<g transform="translate(255 50) rotate(341) scale(10 45)"><rect fill="#96a29d" fill-opacity="0.501961" x="-0.5" y="-0.5" width="1" height="1" /></g>
<g transform="translate(185 57) rotate(136) scale(8 1)"><rect fill="#9e7e4b" fill-opacity="0.501961" x="-0.5" y="-0.5" width="1" height="1" /></g>
<g transform="translate(103 158) rotate(306) scale(18 15)"><rect fill="#a29587" fill-opacity="0.501961" x="-0.5" y="-0.5" width="1" height="1" /></g>
<g transform="translate(255 169) rotate(42) scale(11 62)"><rect fill="#162219" fill-opacity="0.501961" x="-0.5" y="-0.5" width="1" height="1" /></g>
<g transform="translate(5 25) rotate(-50) scale(5 18)"><rect fill="#3a6f80" fill-opacity="0.501961" x="-0.5" y="-0.5" width="1" height="1" /></g>
<g transform="translate(55 149) rotate(-1) scale(4 1)"><rect fill="#1e0b00" fill-opacity="0.501961" x="-0.5" y="-0.5" width="1" height="1" /></g>
<g transform="translate(121 41) rotate(358) scale(43 6)"><rect fill="#9fbcd3" fill-opacity="0.501961" x="-0.5" y="-0.5" width="1" height="1" /></g>
<g transform="translate(124 124) rotate(270) scale(4 7)"><rect fill="#7a8182" fill-opacity="0.501961" x="-0.5" y="-0.5" width="1" height="1" /></g>
<g transform="translate(227 105) rotate(347) scale(68 3)"><rect fill="#e8c290" fill-opacity="0.501961" x="-0.5" y="-0.5" width="1" height="1" /></g>
<g transform="translate(164 70) rotate(341) scale(1 4)"><rect fill="#162e24" fill-opacity="0.501961" x="-0.5" y="-0.5" width="1" height="1" /></g>
<g transform="translate(219 148) rotate(263) scale(5 28)"><rect fill="#7c7764" fill-opacity="0.501961" x="-0.5" y="-0.5" width="1" height="1" /></g>
<g transform="translate(252 139) rotate(9) scale(6 49)"><rect fill="#3b4233" fill-opacity="0.501961" x="-0.5" y="-0.5" width="1" height="1" /></g>
<g transform="translate(142 79) rotate(346) scale(5 4)"><rect fill="#411400" fill-opacity="0.501961" x="-0.5" y="-0.5" width="1" height="1" /></g>
<g transform="translate(160 87) rotate(54) scale(1 51)"><rect fill="#6a0201" fill-opacity="0.501961" x="-0.5" y="-0.5" width="1" height="1" /></g>
<g transform="translate(146 88) rotate(176) scale(1 7)"><rect fill="#602d24" fill-opacity="0.501961" x="-0.5" y="-0.5" width="1" height="1" /></g>
<g transform="translate(65 155) rotate(45) scale(21 10)"><rect fill="#968b7c" fill-opacity="0.501961" x="-0.5" y="-0.5" width="1" height="1" /></g>
<g transform="translate(2 7) rotate(257) scale(14 7)"><rect fill="#686d61" fill-opacity="0.501961" x="-0.5" y="-0.5" width="1" height="1" /></g>
<g transform="translate(207 0) rotate(278) scale(11 39)"><rect fill="#6f8691" fill-opacity="0.501961" x="-0.5" y="-0.5" width="1" height="1" /></g>
<g transform="translate(237 120) rotate(79) scale(4 33)"><rect fill="#615b49" fill-opacity="0.501961" x="-0.5" y="-0.5" width="1" height="1" /></g>
<g transform="translate(255 102) rotate(141) scale(22 8)"><rect fill="#d0aa71" fill-opacity="0.501961" x="-0.5" y="-0.5" width="1" height="1" /></g>
<g transform="translate(192 71) rotate(305) scale(4 2)"><rect fill="#c6785c" fill-opacity="0.501961" x="-0.5" y="-0.5" width="1" height="1" /></g>
<g transform="translate(123 89) rotate(191) scale(1 32)"><rect fill="#e2d8ca" fill-opacity="0.501961" x="-0.5" y="-0.5" width="1" height="1" /></g>
<g transform="translate(87 77) rotate(143) scale(39 5)"><rect fill="#e9e7e5" fill-opacity="0.501961" x="-0.5" y="-0.5" width="1" height="1" /></g>
<g transform="translate(24 118) rotate(88) scale(1 28)"><rect fill="#272113" fill-opacity="0.501961" x="-0.5" y="-0.5" width="1" height="1" /></g>
<g transform="translate(151 166) rotate(149) scale(5 1)"><rect fill="#5f452a" fill-opacity="0.501961" x="-0.5" y="-0.5" width="1" height="1" /></g>
<g transform="translate(150 92) rotate(231) scale(1 12)"><rect fill="#a7807a" fill-opacity="0.501961" x="-0.5" y="-0.5" width="1" height="1" /></g>
<g transform="translate(132 70) rotate(187) scale(1 16)"><rect fill="#ced6d9" fill-opacity="0.501961" x="-0.5" y="-0.5" width="1" height="1" /></g>
<g transform="translate(125 107) rotate(41) scale(1 6)"><rect fill="#d4cfbb" fill-opacity="0.501961" x="-0.5" y="-0.5" width="1" height="1" /></g>
<g transform="translate(43 144) rotate(167) scale(29 5)"><rect fill="#8a8576" fill-opacity="0.501961" x="-0.5" y="-0.5" width="1" height="1" /></g>
<g transform="translate(33 154) rotate(302) scale(9 42)"><rect fill="#6d6b5b" fill-opacity="0.501961" x="-0.5" y="-0.5" width="1" height="1" /></g>
<g transform="translate(98 45) rotate(47) scale(2 2)"><rect fill="#353b3c" fill-opacity="0.501961" x="-0.5" y="-0.5" width="1" height="1" /></g>
<g transform="translate(142 121) rotate(179) scale(16 3)"><rect fill="#001915" fill-opacity="0.501961" x="-0.5" y="-0.5" width="1" height="1" /></g>
<g transform="translate(137 77) rotate(38) scale(1 28)"><rect fill="#a08672" fill-opacity="0.501961" x="-0.5" y="-0.5" width="1" height="1" /></g>
<g transform="translate(197 127) rotate(98) scale(2 52)"><rect fill="#938673" fill-opacity="0.501961" x="-0.5" y="-0.5" width="1" height="1" /></g>
<g transform="translate(122 78) rotate(100) scale(13 1)"><rect fill="#bbab98" fill-opacity="0.501961" x="-0.5" y="-0.5" width="1" height="1" /></g>
<g transform="translate(50 114) rotate(189) scale(29 1)"><rect fill="#989c9f" fill-opacity="0.501961" x="-0.5" y="-0.5" width="1" height="1" /></g>
<g transform="translate(125 105) rotate(4) scale(1 7)"><rect fill="#c7b8aa" fill-opacity="0.501961" x="-0.5" y="-0.5" width="1" height="1" /></g>
<g transform="translate(125 99) rotate(129) scale(10 1)"><rect fill="#795c4a" fill-opacity="0.501961" x="-0.5" y="-0.5" width="1" height="1" /></g>
<g transform="translate(124 87) rotate(171) scale(1 8)"><rect fill="#d3a981" fill-opacity="0.501961" x="-0.5" y="-0.5" width="1" height="1" /></g>
</g>
</svg>