<svg height="768" width="1024" xmlns="http://www.w3.org/2000/svg"><path d="m0 0h1024v768h-1024z" fill="#26657a"/><g fill-opacity=".501961" stroke-width="4"><ellipse cx="658" cy="206" fill="#b3ffff" rx="232" ry="232"/><ellipse cx="2" cy="418" fill="#001b36" rx="428" ry="428"/><ellipse cx="450" cy="374" fill="#279bbf" rx="224" ry="224"/><ellipse cx="894" cy="766" fill="#00020b" rx="192" ry="192"/><ellipse cx="658" cy="158" fill="#ddece7" rx="132" ry="132"/><ellipse cx="286" cy="766" fill="#002235" rx="308" ry="308"/><ellipse cx="18" cy="2" fill="#000e20" rx="268" ry="268"/><ellipse cx="770" cy="382" fill="#2fa5c8" rx="148" ry="148"/><ellipse cx="606" cy="766" fill="#001321" rx="120" ry="120"/><ellipse cx="386" cy="474" fill="#1f7694" rx="176" ry="176"/><ellipse cx="2" cy="710" fill="#00070e" rx="200" ry="200"/><ellipse cx="586" cy="510" fill="#318ca7" rx="148" ry="148"/><ellipse cx="906" cy="562" fill="#085469" rx="132" ry="132"/><ellipse cx="818" cy="2" fill="#567d81" rx="112" ry="112"/><ellipse cx="674" cy="254" fill="#7be2ee" rx="88" ry="88"/><ellipse cx="1022" cy="62" fill="#03202c" rx="76" ry="76"/><ellipse cx="194" cy="478" fill="#074e6c" rx="160" ry="160"/><ellipse cx="230" cy="202" fill="#0a5475" rx="128" ry="128"/><ellipse cx="450" cy="86" fill="#2c8eb1" rx="72" ry="72"/><ellipse cx="902" cy="262" fill="#338eaa" rx="88" ry="88"/><ellipse cx="646" cy="106" fill="#e1c9c4" rx="84" ry="84"/><ellipse cx="530" cy="482" fill="#fff" rx="16" ry="16"/><ellipse cx="342" cy="766" fill="#00263a" rx="160" ry="160"/><ellipse cx="566" cy="246" fill="#4bc5df" rx="72" ry="72"/><ellipse cx="86" cy="406" fill="#cdebe2" rx="16" ry="16"/><ellipse cx="250" cy="2" fill="#002e48" rx="120" ry="120"/><ellipse cx="898" cy="766" fill="#001b25" rx="128" ry="128"/><ellipse cx="846" cy="102" fill="#6ba3a9" rx="76" ry="76"/><ellipse cx="742" cy="566" fill="#1d728e" rx="104" ry="104"/><ellipse cx="6" cy="2" fill="#000c16" rx="152" ry="152"/><ellipse cx="390" cy="234" fill="#2b89aa" rx="100" ry="100"/><ellipse cx="798" cy="38" fill="#0e425a" rx="28" ry="28"/><ellipse cx="782" cy="174" fill="#bdd4cf" rx="52" ry="52"/><ellipse cx="842" cy="2" fill="#001a33" rx="32" ry="32"/><ellipse cx="442" cy="582" fill="#145d77" rx="96" ry="96"/><ellipse cx="38" cy="358" fill="#58afb9" rx="20" ry="20"/><ellipse cx="582" cy="2" fill="#7fa8ad" rx="96" ry="96"/><ellipse cx="698" cy="650" fill="#fff4e4" rx="12" ry="12"/><ellipse cx="54" cy="206" fill="#00283e" rx="136" ry="136"/><ellipse cx="734" cy="750" fill="#00202f" rx="88" ry="88"/><ellipse cx="586" cy="634" fill="#b3dde6" rx="16" ry="16"/><ellipse cx="26" cy="530" fill="#000d14" rx="52" ry="52"/><ellipse cx="550" cy="478" fill="#b1edf3" rx="20" ry="20"/><ellipse cx="898" cy="606" fill="#0e4e61" rx="100" ry="100"/><ellipse cx="826" cy="450" fill="#277e9a" rx="108" ry="108"/><ellipse cx="394" cy="426" fill="#217a97" rx="100" ry="100"/><ellipse cx="718" cy="74" fill="#b4b7b5" rx="52" ry="52"/><ellipse cx="1022" cy="610" fill="#073543" rx="96" ry="96"/><ellipse cx="614" cy="726" fill="#37879d" rx="24" ry="24"/><ellipse cx="750" cy="622" fill="#cdedef" rx="12" ry="12"/><ellipse cx="62" cy="434" fill="#2b7a92" rx="32" ry="32"/><ellipse cx="578" cy="402" fill="#3497b3" rx="80" ry="80"/><ellipse cx="898" cy="162" fill="#33889f" rx="52" ry="52"/><ellipse cx="230" cy="766" fill="#001824" rx="104" ry="104"/><ellipse cx="642" cy="2" fill="#206b86" rx="28" ry="28"/><ellipse cx="794" cy="246" fill="#6bcbd8" rx="52" ry="52"/><ellipse cx="50" cy="766" fill="#000509" rx="88" ry="88"/><ellipse cx="614" cy="62" fill="#c4c6c3" rx="48" ry="48"/><ellipse cx="1022" cy="182" fill="#16546e" rx="92" ry="92"/><ellipse cx="314" cy="114" fill="#115876" rx="84" ry="84"/><ellipse cx="838" cy="66" fill="#88afa7" rx="36" ry="36"/><ellipse cx="510" cy="174" fill="#5fc8dc" rx="52" ry="52"/><ellipse cx="786" cy="58" fill="#0c5b7c" rx="24" ry="24"/><ellipse cx="630" cy="142" fill="#d8e4e3" rx="52" ry="52"/><ellipse cx="506" cy="6" fill="#3f98ac" rx="56" ry="56"/><ellipse cx="1022" cy="766" fill="#000c14" rx="76" ry="76"/><ellipse cx="590" cy="686" fill="#002a3a" rx="44" ry="44"/><ellipse cx="214" cy="614" fill="#013850" rx="76" ry="76"/><ellipse cx="942" cy="62" fill="#a19488" rx="12" ry="12"/><ellipse cx="714" cy="190" fill="#3197b2" rx="16" ry="16"/><ellipse cx="726" cy="230" fill="#b5e7e0" rx="36" ry="36"/><ellipse cx="150" cy="302" fill="#073f5d" rx="112" ry="112"/><ellipse cx="262" cy="334" fill="#10597a" rx="80" ry="80"/><ellipse cx="770" cy="134" fill="#40869c" rx="12" ry="12"/><ellipse cx="822" cy="114" fill="#b6c7bd" rx="20" ry="20"/><ellipse cx="702" cy="390" fill="#3fabc9" rx="64" ry="64"/><ellipse cx="534" cy="94" fill="#7dd0d3" rx="36" ry="36"/><ellipse cx="90" cy="382" fill="#7adfe3" rx="8" ry="8"/><ellipse cx="966" cy="470" fill="#165b74" rx="104" ry="104"/><ellipse cx="890" cy="342" fill="#3286a0" rx="68" ry="68"/><ellipse cx="30" cy="398" fill="#000107" rx="16" ry="16"/><ellipse cx="326" cy="670" fill="#023b54" rx="76" ry="76"/><ellipse cx="634" cy="286" fill="#65c8dd" rx="48" ry="48"/><ellipse cx="526" cy="722" fill="#00212f" rx="56" ry="56"/><ellipse cx="726" cy="2" fill="#78999e" rx="60" ry="60"/><ellipse cx="438" cy="142" fill="#338fad" rx="56" ry="56"/><ellipse cx="730" cy="6" fill="#32879b" rx="28" ry="28"/><ellipse cx="662" cy="574" fill="#1a6f8b" rx="80" ry="80"/><ellipse cx="542" cy="482" fill="#fff" rx="12" ry="12"/><ellipse cx="386" cy="46" fill="#175875" rx="44" ry="44"/><ellipse cx="498" cy="558" fill="#256c83" rx="72" ry="72"/><ellipse cx="818" cy="630" fill="#0d4e62" rx="60" ry="60"/><ellipse cx="1010" cy="22" fill="#123644" rx="68" ry="68"/><ellipse cx="118" cy="562" fill="#023147" rx="76" ry="76"/><ellipse cx="274" cy="202" fill="#105676" rx="48" ry="48"/><ellipse cx="622" cy="722" fill="#32788c" rx="24" ry="24"/><ellipse cx="790" cy="94" fill="#297f9b" rx="20" ry="20"/><ellipse cx="542" cy="650" fill="#28859f" rx="16" ry="16"/><ellipse cx="694" cy="654" fill="#bbd4d7" rx="12" ry="12"/><ellipse cx="854" cy="230" fill="#4ba3b8" rx="48" ry="48"/><ellipse cx="438" cy="278" fill="#3294b5" rx="56" ry="56"/><ellipse cx="618" cy="2" fill="#0a5f80" rx="16" ry="16"/><ellipse cx="758" cy="174" fill="#e0d4d2" rx="28" ry="28"/><ellipse cx="430" cy="690" fill="#08445d" rx="52" ry="52"/><ellipse cx="2" cy="138" fill="#001521" rx="68" ry="68"/><ellipse cx="778" cy="398" fill="#399bb7" rx="52" ry="52"/><ellipse cx="582" cy="626" fill="#ffe" rx="8" ry="8"/><ellipse cx="622" cy="78" fill="#7dc4c5" rx="20" ry="20"/><ellipse cx="850" cy="558" fill="#176177" rx="52" ry="52"/><ellipse cx="450" cy="382" fill="#105e78" rx="28" ry="28"/><ellipse cx="686" cy="710" fill="#074054" rx="44" ry="44"/><ellipse cx="670" cy="206" fill="#c2ece4" rx="24" ry="24"/><ellipse cx="746" cy="610" fill="#b0d8ca" rx="8" ry="8"/><ellipse cx="170" cy="2" fill="#011c2e" rx="60" ry="60"/><ellipse cx="94" cy="326" fill="#022d47" rx="48" ry="48"/><ellipse cx="238" cy="766" fill="#001e2d" rx="112" ry="112"/><ellipse cx="506" cy="474" fill="#57a9bc" rx="20" ry="20"/><ellipse cx="30" cy="542" fill="#00070c" rx="32" ry="32"/><ellipse cx="558" cy="174" fill="#93e5e6" rx="36" ry="36"/><ellipse cx="78" cy="398" fill="#89bac4" rx="12" ry="12"/><ellipse cx="394" cy="402" fill="#2785a5" rx="44" ry="44"/><ellipse cx="754" cy="38" fill="#c2b4ae" rx="16" ry="16"/><ellipse cx="810" cy="726" fill="#000810" rx="28" ry="28"/><ellipse cx="590" cy="102" fill="#d6d5d3" rx="32" ry="32"/><ellipse cx="518" cy="354" fill="#7ac3cf" rx="16" ry="16"/><ellipse cx="714" cy="634" fill="#09485e" rx="16" ry="16"/><ellipse cx="870" cy="50" fill="#468d94" rx="32" ry="32"/><ellipse cx="814" cy="662" fill="#00010b" rx="12" ry="12"/><ellipse cx="594" cy="358" fill="#25839e" rx="28" ry="28"/><ellipse cx="2" cy="466" fill="#023850" rx="52" ry="52"/><ellipse cx="606" cy="650" fill="#1e7e9b" rx="16" ry="16"/><ellipse cx="926" cy="398" fill="#21708c" rx="64" ry="64"/><ellipse cx="698" cy="138" fill="#d6d5d5" rx="36" ry="36"/><ellipse cx="802" cy="150" fill="#bdc8c4" rx="28" ry="28"/><ellipse cx="834" cy="178" fill="#67bdc4" rx="32" ry="32"/><ellipse cx="690" cy="54" fill="#bdb6b5" rx="32" ry="32"/><ellipse cx="614" cy="314" fill="#c9edf0" rx="12" ry="12"/><ellipse cx="674" cy="666" fill="#1e708b" rx="16" ry="16"/><ellipse cx="454" cy="330" fill="#1c6e8a" rx="28" ry="28"/><ellipse cx="938" cy="106" fill="#1b586d" rx="36" ry="36"/><ellipse cx="570" cy="638" fill="#43a6be" rx="12" ry="12"/><ellipse cx="746" cy="334" fill="#50b8d1" rx="48" ry="48"/><ellipse cx="914" cy="22" fill="#29616e" rx="44" ry="44"/><ellipse cx="2" cy="2" fill="#000d16" rx="88" ry="88"/><ellipse cx="590" cy="26" fill="#b3b1ad" rx="24" ry="24"/><ellipse cx="802" cy="22" fill="#023a50" rx="16" ry="16"/><ellipse cx="746" cy="102" fill="#b3c0bd" rx="32" ry="32"/><ellipse cx="14" cy="366" fill="#2c839d" rx="12" ry="12"/><ellipse cx="558" cy="238" fill="#52bed7" rx="36" ry="36"/><ellipse cx="742" cy="142" fill="#5dafbc" rx="12" ry="12"/><ellipse cx="706" cy="658" fill="#e5e4e1" rx="8" ry="8"/><ellipse cx="146" cy="94" fill="#03293f" rx="56" ry="56"/><ellipse cx="622" cy="766" fill="#002133" rx="28" ry="28"/><ellipse cx="262" cy="486" fill="#0e5777" rx="72" ry="72"/><ellipse cx="54" cy="418" fill="#1d6786" rx="24" ry="24"/><ellipse cx="782" cy="662" fill="#17637d" rx="20" ry="20"/><ellipse cx="786" cy="110" fill="#2e87a2" rx="16" ry="16"/><ellipse cx="690" cy="186" fill="#4babc0" rx="12" ry="12"/><ellipse cx="818" cy="50" fill="#94aca3" rx="16" ry="16"/><ellipse cx="478" cy="70" fill="#4295ad" rx="32" ry="32"/><ellipse cx="738" cy="766" fill="#00111a" rx="36" ry="36"/><ellipse cx="690" cy="326" fill="#d2f8f6" rx="8" ry="8"/><ellipse cx="378" cy="146" fill="#227593" rx="40" ry="40"/><ellipse cx="130" cy="398" fill="#03324f" rx="32" ry="32"/><ellipse cx="2" cy="262" fill="#032639" rx="76" ry="76"/><ellipse cx="750" cy="638" fill="#27809e" rx="16" ry="16"/><ellipse cx="462" cy="222" fill="#41a8c4" rx="44" ry="44"/><ellipse cx="906" cy="142" fill="#358096" rx="44" ry="44"/><ellipse cx="834" cy="98" fill="#8db1af" rx="32" ry="32"/><ellipse cx="1022" cy="510" fill="#124c5e" rx="68" ry="68"/><ellipse cx="662" cy="18" fill="#559ca4" rx="20" ry="20"/><ellipse cx="910" cy="766" fill="#001822" rx="48" ry="48"/><ellipse cx="514" cy="290" fill="#3aa1c1" rx="36" ry="36"/><ellipse cx="658" cy="462" fill="#3291b0" rx="48" ry="48"/><ellipse cx="706" cy="270" fill="#86e0e8" rx="32" ry="32"/><ellipse cx="894" cy="254" fill="#3488a2" rx="32" ry="32"/><ellipse cx="502" cy="326" fill="#afeaed" rx="8" ry="8"/><ellipse cx="674" cy="758" fill="#216375" rx="12" ry="12"/><ellipse cx="578" cy="326" fill="#3796b0" rx="32" ry="32"/><ellipse cx="638" cy="670" fill="#001427" rx="16" ry="16"/><ellipse cx="250" cy="22" fill="#07334b" rx="56" ry="56"/><ellipse cx="594" cy="630" fill="#d7ebe9" rx="8" ry="8"/><ellipse cx="806" cy="646" fill="#00172a" rx="12" ry="12"/><ellipse cx="762" cy="250" fill="#73d0db" rx="28" ry="28"/><ellipse cx="974" cy="46" fill="#001427" rx="16" ry="16"/><ellipse cx="578" cy="538" fill="#4b8fa5" rx="24" ry="24"/><ellipse cx="2" cy="638" fill="#00131c" rx="56" ry="56"/><ellipse cx="774" cy="706" fill="#2f8192" rx="8" ry="8"/><ellipse cx="434" cy="522" fill="#1c6c86" rx="60" ry="60"/><ellipse cx="638" cy="350" fill="#3c9cb5" rx="32" ry="32"/><ellipse cx="878" cy="58" fill="#4c8e97" rx="40" ry="40"/><ellipse cx="682" cy="362" fill="#4db5d1" rx="36" ry="36"/><ellipse cx="582" cy="642" fill="#016990" rx="8" ry="8"/><ellipse cx="530" cy="426" fill="#3895b0" rx="44" ry="44"/><ellipse cx="58" cy="86" fill="#4e6c7b" rx="8" ry="8"/><ellipse cx="402" cy="342" fill="#2b87a8" rx="32" ry="32"/><ellipse cx="598" cy="170" fill="#85e2e3" rx="12" ry="12"/><ellipse cx="474" cy="610" fill="#10556e" rx="32" ry="32"/><ellipse cx="294" cy="246" fill="#51b3c7" rx="8" ry="8"/><ellipse cx="230" cy="638" fill="#084760" rx="28" ry="28"/><ellipse cx="570" cy="30" fill="#287b95" rx="8" ry="8"/><ellipse cx="754" cy="622" fill="#d0dddd" rx="8" ry="8"/><ellipse cx="162" cy="494" fill="#07425d" rx="72" ry="72"/><ellipse cx="202" cy="170" fill="#083e5a" rx="52" ry="52"/><ellipse cx="990" cy="270" fill="#1f657f" rx="52" ry="52"/><ellipse cx="554" cy="354" fill="#5bcde3" rx="12" ry="12"/><ellipse cx="30" cy="294" fill="#446e7c" rx="8" ry="8"/><ellipse cx="1022" cy="126" fill="#174d61" rx="52" ry="52"/><ellipse cx="630" cy="646" fill="#145d78" rx="16" ry="16"/><ellipse cx="42" cy="354" fill="#5ba4ac" rx="12" ry="12"/><ellipse cx="526" cy="362" fill="#fff" rx="4" ry="4"/><ellipse cx="222" cy="426" fill="#0a4c6e" rx="48" ry="48"/><ellipse cx="342" cy="550" fill="#0e5a77" rx="60" ry="60"/><ellipse cx="590" cy="142" fill="#d9e0de" rx="28" ry="28"/><ellipse cx="518" cy="690" fill="#00354b" rx="32" ry="32"/><ellipse cx="682" cy="166" fill="#66c7d5" rx="8" ry="8"/><ellipse cx="106" cy="202" fill="#567b93" rx="8" ry="8"/><ellipse cx="766" cy="2" fill="#ba9a8f" rx="12" ry="12"/><ellipse cx="390" cy="622" fill="#0b4e6b" rx="48" ry="48"/><ellipse cx="874" cy="2" fill="#002a41" rx="12" ry="12"/><ellipse cx="86" cy="402" fill="#f4d5c1" rx="8" ry="8"/><ellipse cx="18" cy="394" fill="#000d0c" rx="12" ry="12"/><ellipse cx="598" cy="678" fill="#001e2c" rx="20" ry="20"/><ellipse cx="626" cy="94" fill="#78c3c4" rx="12" ry="12"/><ellipse cx="642" cy="254" fill="#66d3e2" rx="36" ry="36"/><ellipse cx="586" cy="738" fill="#12566a" rx="12" ry="12"/><ellipse cx="54" cy="370" fill="#398590" rx="12" ry="12"/><ellipse cx="2" cy="338" fill="#022e46" rx="28" ry="28"/><ellipse cx="826" cy="350" fill="#3898b4" rx="32" ry="32"/><ellipse cx="746" cy="530" fill="#1c738f" rx="44" ry="44"/><ellipse cx="570" cy="498" fill="#73bacd" rx="8" ry="8"/><ellipse cx="414" cy="766" fill="#001424" rx="20" ry="20"/><ellipse cx="782" cy="342" fill="#b0e8e6" rx="8" ry="8"/><ellipse cx="794" cy="74" fill="#165b78" rx="12" ry="12"/><ellipse cx="946" cy="66" fill="#7d8e90" rx="12" ry="12"/><ellipse cx="90" cy="410" fill="#b9dcd5" rx="8" ry="8"/><ellipse cx="870" cy="450" fill="#257792" rx="40" ry="40"/><ellipse cx="514" cy="510" fill="#529eb1" rx="12" ry="12"/><ellipse cx="754" cy="122" fill="#d9c7c4" rx="16" ry="16"/><ellipse cx="42" cy="494" fill="#0a4355" rx="24" ry="24"/><ellipse cx="78" cy="514" fill="#002636" rx="24" ry="24"/><ellipse cx="606" cy="638" fill="#61bece" rx="8" ry="8"/><ellipse cx="858" cy="114" fill="#deb4aa" rx="8" ry="8"/><ellipse cx="814" cy="690" fill="#00111f" rx="16" ry="16"/><ellipse cx="294" cy="634" fill="#0c526d" rx="16" ry="16"/><ellipse cx="442" cy="630" fill="#73d9e5" rx="4" ry="4"/><ellipse cx="638" cy="202" fill="#97e5e4" rx="24" ry="24"/><ellipse cx="666" cy="78" fill="#c6c1c2" rx="36" ry="36"/><ellipse cx="722" cy="182" fill="#4daec4" rx="12" ry="12"/><ellipse cx="842" cy="2" fill="#003447" rx="24" ry="24"/><ellipse cx="634" cy="714" fill="#d8c6a0" rx="4" ry="4"/><ellipse cx="330" cy="486" fill="#196c88" rx="44" ry="44"/><ellipse cx="726" cy="446" fill="#2a8aa9" rx="32" ry="32"/><ellipse cx="954" cy="710" fill="#002835" rx="36" ry="36"/><ellipse cx="482" cy="146" fill="#4aaac5" rx="36" ry="36"/><ellipse cx="722" cy="702" fill="#033040" rx="36" ry="36"/><ellipse cx="818" cy="294" fill="#4cabc3" rx="36" ry="36"/><ellipse cx="942" cy="174" fill="#2a7188" rx="36" ry="36"/><ellipse cx="954" cy="2" fill="#22525f" rx="32" ry="32"/><ellipse cx="334" cy="306" fill="#1b7090" rx="40" ry="40"/><ellipse cx="538" cy="46" fill="#73bec0" rx="20" ry="20"/><ellipse cx="506" cy="378" fill="#1a6c82" rx="12" ry="12"/><ellipse cx="770" cy="26" fill="#c5b1a5" rx="8" ry="8"/><ellipse cx="618" cy="66" fill="#64b7bc" rx="12" ry="12"/><ellipse cx="314" cy="698" fill="#033147" rx="48" ry="48"/><ellipse cx="522" cy="182" fill="#6acada" rx="28" ry="28"/><ellipse cx="542" cy="654" fill="#44a0b5" rx="8" ry="8"/><ellipse cx="386" cy="434" fill="#237e9b" rx="52" ry="52"/><ellipse cx="246" cy="242" fill="#0f5575" rx="36" ry="36"/><ellipse cx="522" cy="358" fill="#e7fffc" rx="4" ry="4"/><ellipse cx="782" cy="126" fill="#5ca3ac" rx="12" ry="12"/><ellipse cx="38" cy="582" fill="#00283b" rx="24" ry="24"/><ellipse cx="726" cy="662" fill="#0f4960" rx="16" ry="16"/><ellipse cx="502" cy="350" fill="#48a1b3" rx="20" ry="20"/><ellipse cx="666" cy="194" fill="#c4e6e2" rx="20" ry="20"/><ellipse cx="734" cy="58" fill="#5fb5b7" rx="12" ry="12"/><ellipse cx="442" cy="6" fill="#256882" rx="32" ry="32"/><ellipse cx="934" cy="38" fill="#6b928b" rx="8" ry="8"/><ellipse cx="462" cy="510" fill="#589db4" rx="8" ry="8"/><ellipse cx="598" cy="446" fill="#3591ad" rx="52" ry="52"/><ellipse cx="22" cy="366" fill="#256d85" rx="16" ry="16"/><ellipse cx="94" cy="394" fill="#254950" rx="8" ry="8"/><ellipse cx="90" cy="418" fill="#2d91af" rx="8" ry="8"/><ellipse cx="130" cy="766" fill="#00121d" rx="48" ry="48"/><ellipse cx="494" cy="306" fill="#3295b2" rx="20" ry="20"/><ellipse cx="754" cy="142" fill="#55a3b6" rx="8" ry="8"/><ellipse cx="1022" cy="654" fill="#032e3b" rx="44" ry="44"/><ellipse cx="942" cy="226" fill="#58abb7" rx="8" ry="8"/><ellipse cx="402" cy="86" fill="#226c89" rx="32" ry="32"/><ellipse cx="782" cy="190" fill="#a0d5d1" rx="20" ry="20"/><ellipse cx="418" cy="302" fill="#2a86a6" rx="40" ry="40"/><ellipse cx="658" cy="698" fill="#0d4c63" rx="24" ry="24"/><ellipse cx="778" cy="598" fill="#105566" rx="24" ry="24"/><ellipse cx="746" cy="166" fill="#d8d4d2" rx="20" ry="20"/><ellipse cx="554" cy="78" fill="#a5cec8" rx="16" ry="16"/><ellipse cx="574" cy="18" fill="#b6b4ad" rx="12" ry="12"/><ellipse cx="818" cy="90" fill="#b3b6b2" rx="12" ry="12"/><ellipse cx="838" cy="62" fill="#7ea5a2" rx="24" ry="24"/><ellipse cx="714" cy="602" fill="#1f6e83" rx="32" ry="32"/><ellipse cx="806" cy="606" fill="#206a7f" rx="16" ry="16"/></g></svg>