<svg xmlns="http://www.w3.org/2000/svg" version="1.1" width="1024" height="680">
<rect x="0" y="0" width="1024" height="680" fill="#627e6a" />
<g transform="scale(4.000000) translate(0.5 0.5)">
<g transform="translate(127.621988 67.368255) rotate(269.275088) scale(34.241003 125.102965)"><ellipse fill="#b8d3d6" fill-opacity="0.501961" cx="0" cy="0" rx="1" ry="1" /></g>
<g transform="translate(211.407089 157.999605) rotate(329.449282) scale(100.351001 57.915939)"><ellipse fill="#000b00" fill-opacity="0.501961" cx="0" cy="0" rx="1" ry="1" /></g>
<g transform="translate(59.670640 149.282815) rotate(-52.175783) scale(55.887806 77.620565)"><ellipse fill="#606c0b" fill-opacity="0.501961" cx="0" cy="0" rx="1" ry="1" /></g>
<g transform="translate(108.257868 82.759351) rotate(278.668092) scale(23.641257 53.656829)"><ellipse fill="#c3d3c7" fill-opacity="0.501961" cx="0" cy="0" rx="1" ry="1" /></g>
<g transform="translate(242.755777 144.741411) rotate(53.150199) scale(32.805939 106.902497)"><ellipse fill="#002114" fill-opacity="0.501961" cx="0" cy="0" rx="1" ry="1" /></g>
<g transform="translate(228.594234 53.786128) rotate(10.002279) scale(147.302511 25.991276)"><ellipse fill="#70989c" fill-opacity="0.501961" cx="0" cy="0" rx="1" ry="1" /></g>
<g transform="translate(14.020786 144.337528) rotate(12.826124) scale(24.932143 48.480715)"><ellipse fill="#365319" fill-opacity="0.501961" cx="0" cy="0" rx="1" ry="1" /></g>
<g transform="translate(108.481738 140.062800) rotate(126.532725) scale(18.264211 101.198342)"><ellipse fill="#707a48" fill-opacity="0.501961" cx="0" cy="0" rx="1" ry="1" /></g>
<g transform="translate(8.285149 66.776464) rotate(239.978177) scale(26.683623 43.740701)"><ellipse fill="#94a9a7" fill-opacity="0.501961" cx="0" cy="0" rx="1" ry="1" /></g>
<g transform="translate(203.261481 112.944138) rotate(264.828712) scale(20.664075 49.753708)"><ellipse fill="#186351" fill-opacity="0.501961" cx="0" cy="0" rx="1" ry="1" /></g>
<g transform="translate(169.860327 1.426696) rotate(89.015335) scale(21.923270 201.007199)"><ellipse fill="#496172" fill-opacity="0.501961" cx="0" cy="0" rx="1" ry="1" /></g>
<g transform="translate(75.502075 162.264709) rotate(109.324715) scale(17.611529 64.803893)"><ellipse fill="#829836" fill-opacity="0.501961" cx="0" cy="0" rx="1" ry="1" /></g>
<g transform="translate(53.177452 107.083070) rotate(118.519493) scale(7.241886 21.177813)"><ellipse fill="#aab96b" fill-opacity="0.501961" cx="0" cy="0" rx="1" ry="1" /></g>
<g transform="translate(71.841374 45.126995) rotate(383.324229) scale(31.384506 23.091242)"><ellipse fill="#718588" fill-opacity="0.501961" cx="0" cy="0" rx="1" ry="1" /></g>
<g transform="translate(239.666351 60.613395) rotate(198.221375) scale(22.082185 34.492365)"><ellipse fill="#509aa7" fill-opacity="0.501961" cx="0" cy="0" rx="1" ry="1" /></g>
<g transform="translate(127.402755 141.655625) rotate(202.503929) scale(19.073907 24.946923)"><ellipse fill="#4b602f" fill-opacity="0.501961" cx="0" cy="0" rx="1" ry="1" /></g>
<g transform="translate(38.471706 81.054318) rotate(270.408450) scale(8.052480 3.206778)"><ellipse fill="#261c22" fill-opacity="0.501961" cx="0" cy="0" rx="1" ry="1" /></g>
<g transform="translate(255.000000 160.242737) rotate(324.704741) scale(89.498691 22.548685)"><ellipse fill="#001203" fill-opacity="0.501961" cx="0" cy="0" rx="1" ry="1" /></g>
<g transform="translate(198.108202 82.769241) rotate(82.398784) scale(10.315536 54.758306)"><ellipse fill="#80bac0" fill-opacity="0.501961" cx="0" cy="0" rx="1" ry="1" /></g>
<g transform="translate(153.508589 117.949929) rotate(113.488831) scale(11.319209 19.042838)"><ellipse fill="#7a9e60" fill-opacity="0.501961" cx="0" cy="0" rx="1" ry="1" /></g>
<g transform="translate(169.589163 147.908086) rotate(286.430398) scale(13.820624 28.003298)"><ellipse fill="#032c1f" fill-opacity="0.501961" cx="0" cy="0" rx="1" ry="1" /></g>
<g transform="translate(10.338982 157.425121) rotate(294.676846) scale(3.977478 31.028221)"><ellipse fill="#0e2900" fill-opacity="0.501961" cx="0" cy="0" rx="1" ry="1" /></g>
<g transform="translate(114.589281 133.527953) rotate(216.837510) scale(61.826713 6.497712)"><ellipse fill="#7d8753" fill-opacity="0.501961" cx="0" cy="0" rx="1" ry="1" /></g>
<g transform="translate(142.997409 28.185337) rotate(177.961709) scale(57.472154 18.484234)"><ellipse fill="#7c8b7f" fill-opacity="0.501961" cx="0" cy="0" rx="1" ry="1" /></g>
<g transform="translate(106.898106 88.387675) rotate(103.828738) scale(16.755846 30.701718)"><ellipse fill="#bed0c1" fill-opacity="0.501961" cx="0" cy="0" rx="1" ry="1" /></g>
<g transform="translate(108.295695 141.528926) rotate(122.084649) scale(3.809187 38.173703)"><ellipse fill="#364b23" fill-opacity="0.501961" cx="0" cy="0" rx="1" ry="1" /></g>
<g transform="translate(109.263523 59.188926) rotate(55.076182) scale(17.388041 30.790026)"><ellipse fill="#a9b49e" fill-opacity="0.501961" cx="0" cy="0" rx="1" ry="1" /></g>
<g transform="translate(231.377206 120.438193) rotate(222.373168) scale(17.785794 50.431067)"><ellipse fill="#0a4339" fill-opacity="0.501961" cx="0" cy="0" rx="1" ry="1" /></g>
<g transform="translate(5.018367 83.806705) rotate(184.703085) scale(23.458825 9.433375)"><ellipse fill="#85aeb6" fill-opacity="0.501961" cx="0" cy="0" rx="1" ry="1" /></g>
<g transform="translate(243.839231 9.624931) rotate(192.714769) scale(57.909553 16.043186)"><ellipse fill="#36656d" fill-opacity="0.501961" cx="0" cy="0" rx="1" ry="1" /></g>
<g transform="translate(50.617055 85.372130) rotate(175.949814) scale(5.027426 7.202595)"><ellipse fill="#504c58" fill-opacity="0.501961" cx="0" cy="0" rx="1" ry="1" /></g>
<g transform="translate(222.692177 99.225342) rotate(72.430790) scale(8.222683 37.296698)"><ellipse fill="#256054" fill-opacity="0.501961" cx="0" cy="0" rx="1" ry="1" /></g>
<g transform="translate(41.066375 61.150330) rotate(129.684385) scale(12.802106 22.956238)"><ellipse fill="#aeb29c" fill-opacity="0.501961" cx="0" cy="0" rx="1" ry="1" /></g>
<g transform="translate(11.060243 32.429152) rotate(25.197847) scale(16.173745 41.038380)"><ellipse fill="#637a79" fill-opacity="0.501961" cx="0" cy="0" rx="1" ry="1" /></g>
<g transform="translate(186.174781 118.235837) rotate(135.977276) scale(14.632739 29.885825)"><ellipse fill="#316047" fill-opacity="0.501961" cx="0" cy="0" rx="1" ry="1" /></g>
<g transform="translate(27.872964 124.550879) rotate(95.189997) scale(7.882014 30.003596)"><ellipse fill="#365529" fill-opacity="0.501961" cx="0" cy="0" rx="1" ry="1" /></g>
<g transform="translate(198.360021 69.567216) rotate(351.424007) scale(6.263724 21.699311)"><ellipse fill="#a5c6b7" fill-opacity="0.501961" cx="0" cy="0" rx="1" ry="1" /></g>
<g transform="translate(0.000000 169.000000) rotate(192.601846) scale(31.975279 5.477360)"><ellipse fill="#a99736" fill-opacity="0.501961" cx="0" cy="0" rx="1" ry="1" /></g>
<g transform="translate(153.258349 58.905037) rotate(231.725591) scale(16.037755 23.553079)"><ellipse fill="#95aa9a" fill-opacity="0.501961" cx="0" cy="0" rx="1" ry="1" /></g>
<g transform="translate(162.911833 84.801397) rotate(323.073603) scale(36.324736 7.426163)"><ellipse fill="#82abb2" fill-opacity="0.501961" cx="0" cy="0" rx="1" ry="1" /></g>
<g transform="translate(83.664799 152.197087) rotate(25.170284) scale(22.722634 3.410014)"><ellipse fill="#9fad4c" fill-opacity="0.501961" cx="0" cy="0" rx="1" ry="1" /></g>
<g transform="translate(74.859787 30.000834) rotate(79.830532) scale(12.705735 44.680794)"><ellipse fill="#627b7f" fill-opacity="0.501961" cx="0" cy="0" rx="1" ry="1" /></g>
<g transform="translate(255.000000 59.587244) rotate(193.848347) scale(11.131179 26.334567)"><ellipse fill="#448898" fill-opacity="0.501961" cx="0" cy="0" rx="1" ry="1" /></g>
<g transform="translate(224.136407 35.340107) rotate(180.077040) scale(27.829991 17.986324)"><ellipse fill="#678c8b" fill-opacity="0.501961" cx="0" cy="0" rx="1" ry="1" /></g>
<g transform="translate(90.650842 118.187549) rotate(242.122376) scale(5.412459 17.253073)"><ellipse fill="#44563f" fill-opacity="0.501961" cx="0" cy="0" rx="1" ry="1" /></g>
<g transform="translate(58.379935 90.435588) rotate(271.884575) scale(1.498067 6.009378)"><ellipse fill="#281e39" fill-opacity="0.501961" cx="0" cy="0" rx="1" ry="1" /></g>
<g transform="translate(95.250691 94.198669) rotate(131.075162) scale(5.790784 27.635519)"><ellipse fill="#bdceb6" fill-opacity="0.501961" cx="0" cy="0" rx="1" ry="1" /></g>
<g transform="translate(255.000000 131.527603) rotate(-68.372404) scale(25.549121 23.398325)"><ellipse fill="#002b24" fill-opacity="0.501961" cx="0" cy="0" rx="1" ry="1" /></g>
<g transform="translate(74.266990 4.800878) rotate(150.008358) scale(45.012529 14.860595)"><ellipse fill="#4e6267" fill-opacity="0.501961" cx="0" cy="0" rx="1" ry="1" /></g>
<g transform="translate(130.222716 130.728775) rotate(340.537471) scale(4.927769 11.093657)"><ellipse fill="#2d4c3b" fill-opacity="0.501961" cx="0" cy="0" rx="1" ry="1" /></g>
<g transform="translate(57.522482 104.323388) rotate(195.966611) scale(28.470214 6.134793)"><ellipse fill="#909b61" fill-opacity="0.501961" cx="0" cy="0" rx="1" ry="1" /></g>
<g transform="translate(18.962745 156.892007) rotate(2.608345) scale(17.764532 3.380905)"><ellipse fill="#223910" fill-opacity="0.501961" cx="0" cy="0" rx="1" ry="1" /></g>
<g transform="translate(158.188239 1.829357) rotate(-93.356323) scale(24.999532 17.358655)"><ellipse fill="#4d686d" fill-opacity="0.501961" cx="0" cy="0" rx="1" ry="1" /></g>
<g transform="translate(14.793486 105.068611) rotate(343.071982) scale(16.711468 12.183162)"><ellipse fill="#456548" fill-opacity="0.501961" cx="0" cy="0" rx="1" ry="1" /></g>
<g transform="translate(183.546472 34.507874) rotate(176.327109) scale(12.558592 25.494291)"><ellipse fill="#809488" fill-opacity="0.501961" cx="0" cy="0" rx="1" ry="1" /></g>
<g transform="translate(105.489192 131.003445) rotate(52.490035) scale(16.736586 2.538398)"><ellipse fill="#909d59" fill-opacity="0.501961" cx="0" cy="0" rx="1" ry="1" /></g>
<g transform="translate(146.432729 127.689872) rotate(120.458562) scale(3.652349 11.993713)"><ellipse fill="#3d6444" fill-opacity="0.501961" cx="0" cy="0" rx="1" ry="1" /></g>
<g transform="translate(51.855855 84.609708) rotate(-5.271313) scale(1.570813 9.377093)"><ellipse fill="#453f31" fill-opacity="0.501961" cx="0" cy="0" rx="1" ry="1" /></g>
<g transform="translate(81.931756 85.685155) rotate(117.489141) scale(11.944962 9.992440)"><ellipse fill="#c5d0c6" fill-opacity="0.501961" cx="0" cy="0" rx="1" ry="1" /></g>
<g transform="translate(140.389091 116.420084) rotate(27.943897) scale(8.247458 5.742228)"><ellipse fill="#92a576" fill-opacity="0.501961" cx="0" cy="0" rx="1" ry="1" /></g>
<g transform="translate(87.400359 126.464769) rotate(117.601674) scale(5.536993 14.686779)"><ellipse fill="#3c4e2f" fill-opacity="0.501961" cx="0" cy="0" rx="1" ry="1" /></g>
<g transform="translate(3.689574 91.885964) rotate(98.477032) scale(19.239398 2.521174)"><ellipse fill="#7c9aa6" fill-opacity="0.501961" cx="0" cy="0" rx="1" ry="1" /></g>
<g transform="translate(244.787538 169.000000) rotate(331.905850) scale(15.793487 6.846468)"><ellipse fill="#000000" fill-opacity="0.501961" cx="0" cy="0" rx="1" ry="1" /></g>
<g transform="translate(153.814748 157.645505) rotate(302.342620) scale(1.000000 130.739142)"><ellipse fill="#858d58" fill-opacity="0.501961" cx="0" cy="0" rx="1" ry="1" /></g>
<g transform="translate(116.829145 120.418531) rotate(117.994721) scale(1.494953 5.281053)"><ellipse fill="#1e3435" fill-opacity="0.501961" cx="0" cy="0" rx="1" ry="1" /></g>
<g transform="translate(66.076034 118.537789) rotate(74.977556) scale(9.182335 2.823802)"><ellipse fill="#a0ac5b" fill-opacity="0.501961" cx="0" cy="0" rx="1" ry="1" /></g>
<g transform="translate(174.021478 99.744946) rotate(352.040190) scale(20.502847 4.359609)"><ellipse fill="#588160" fill-opacity="0.501961" cx="0" cy="0" rx="1" ry="1" /></g>
<g transform="translate(202.926838 79.636277) rotate(135.800114) scale(20.656777 5.808350)"><ellipse fill="#9dc4bc" fill-opacity="0.501961" cx="0" cy="0" rx="1" ry="1" /></g>
<g transform="translate(28.137658 126.565799) rotate(225.351797) scale(13.835857 19.619156)"><ellipse fill="#4b672f" fill-opacity="0.501961" cx="0" cy="0" rx="1" ry="1" /></g>
<g transform="translate(29.359029 149.098393) rotate(189.596150) scale(26.509424 3.920738)"><ellipse fill="#7a8b34" fill-opacity="0.501961" cx="0" cy="0" rx="1" ry="1" /></g>
<g transform="translate(57.098816 129.195852) rotate(124.625644) scale(2.461165 31.002398)"><ellipse fill="#425b23" fill-opacity="0.501961" cx="0" cy="0" rx="1" ry="1" /></g>
<g transform="translate(17.128125 81.230539) rotate(251.344654) scale(9.269168 21.300354)"><ellipse fill="#89a9a7" fill-opacity="0.501961" cx="0" cy="0" rx="1" ry="1" /></g>
<g transform="translate(83.929062 101.253146) rotate(18.807140) scale(27.828626 1.897271)"><ellipse fill="#657452" fill-opacity="0.501961" cx="0" cy="0" rx="1" ry="1" /></g>
<g transform="translate(119.708823 156.217626) rotate(205.367247) scale(32.601449 3.919884)"><ellipse fill="#485b26" fill-opacity="0.501961" cx="0" cy="0" rx="1" ry="1" /></g>
<g transform="translate(87.530093 37.974600) rotate(81.082836) scale(8.132306 56.822809)"><ellipse fill="#7a9189" fill-opacity="0.501961" cx="0" cy="0" rx="1" ry="1" /></g>
<g transform="translate(39.719135 83.764062) rotate(424.274191) scale(4.287586 3.423684)"><ellipse fill="#221d24" fill-opacity="0.501961" cx="0" cy="0" rx="1" ry="1" /></g>
<g transform="translate(45.960856 79.261029) rotate(76.425163) scale(5.402911 3.330358)"><ellipse fill="#acc2b4" fill-opacity="0.501961" cx="0" cy="0" rx="1" ry="1" /></g>
<g transform="translate(0.000000 119.728904) rotate(302.681699) scale(10.278312 11.700492)"><ellipse fill="#26491d" fill-opacity="0.501961" cx="0" cy="0" rx="1" ry="1" /></g>
<g transform="translate(119.592158 95.757762) rotate(113.004020) scale(9.966307 18.977921)"><ellipse fill="#a8c4bf" fill-opacity="0.501961" cx="0" cy="0" rx="1" ry="1" /></g>
<g transform="translate(255.000000 3.121028) rotate(306.736287) scale(11.987851 54.344291)"><ellipse fill="#295760" fill-opacity="0.501961" cx="0" cy="0" rx="1" ry="1" /></g>
<g transform="translate(25.517959 57.669135) rotate(97.094900) scale(4.042136 10.704453)"><ellipse fill="#7c968a" fill-opacity="0.501961" cx="0" cy="0" rx="1" ry="1" /></g>
<g transform="translate(67.161537 102.544063) rotate(247.680913) scale(10.681094 1.988341)"><ellipse fill="#53573e" fill-opacity="0.501961" cx="0" cy="0" rx="1" ry="1" /></g>
<g transform="translate(226.108587 126.521085) rotate(357.390938) scale(41.384736 4.830550)"><ellipse fill="#0f3d30" fill-opacity="0.501961" cx="0" cy="0" rx="1" ry="1" /></g>
<g transform="translate(42.768651 92.133261) rotate(57.059171) scale(1.000000 7.834818)"><ellipse fill="#a39ea5" fill-opacity="0.501961" cx="0" cy="0" rx="1" ry="1" /></g>
<g transform="translate(159.060100 139.269741) rotate(340.728701) scale(18.896640 3.745119)"><ellipse fill="#002524" fill-opacity="0.501961" cx="0" cy="0" rx="1" ry="1" /></g>
<g transform="translate(187.160071 134.729221) rotate(320.401398) scale(2.022508 24.635412)"><ellipse fill="#3e6645" fill-opacity="0.501961" cx="0" cy="0" rx="1" ry="1" /></g>
<g transform="translate(52.652283 69.534138) rotate(1.875282) scale(30.776315 6.986713)"><ellipse fill="#a8b7a9" fill-opacity="0.501961" cx="0" cy="0" rx="1" ry="1" /></g>
<g transform="translate(145.519044 146.555603) rotate(300.552065) scale(2.337100 18.184883)"><ellipse fill="#243c22" fill-opacity="0.501961" cx="0" cy="0" rx="1" ry="1" /></g>
<g transform="translate(13.571662 98.636297) rotate(79.696146) scale(1.000000 23.892322)"><ellipse fill="#384138" fill-opacity="0.501961" cx="0" cy="0" rx="1" ry="1" /></g>
<g transform="translate(232.524067 60.190967) rotate(251.406606) scale(27.149572 12.600781)"><ellipse fill="#6ea2a6" fill-opacity="0.501961" cx="0" cy="0" rx="1" ry="1" /></g>
<g transform="translate(182.927090 162.654352) rotate(180.866323) scale(16.523897 5.538670)"><ellipse fill="#062611" fill-opacity="0.501961" cx="0" cy="0" rx="1" ry="1" /></g>
<g transform="translate(226.694398 23.790295) rotate(8.228172) scale(40.042495 8.259540)"><ellipse fill="#537979" fill-opacity="0.501961" cx="0" cy="0" rx="1" ry="1" /></g>
<g transform="translate(140.460752 130.278650) rotate(217.654565) scale(6.716859 1.929896)"><ellipse fill="#839e66" fill-opacity="0.501961" cx="0" cy="0" rx="1" ry="1" /></g>
<g transform="translate(129.283803 34.140744) rotate(261.482464) scale(18.945344 6.658648)"><ellipse fill="#8c9f8d" fill-opacity="0.501961" cx="0" cy="0" rx="1" ry="1" /></g>
<g transform="translate(82.583385 62.911144) rotate(1.908635) scale(23.665859 8.230760)"><ellipse fill="#91a9a2" fill-opacity="0.501961" cx="0" cy="0" rx="1" ry="1" /></g>
<g transform="translate(65.491087 160.223646) rotate(5.071842) scale(32.200471 2.231533)"><ellipse fill="#586e31" fill-opacity="0.501961" cx="0" cy="0" rx="1" ry="1" /></g>
<g transform="translate(58.733394 92.499342) rotate(118.775270) scale(1.231778 8.719496)"><ellipse fill="#333432" fill-opacity="0.501961" cx="0" cy="0" rx="1" ry="1" /></g>
<g transform="translate(163.866231 112.481456) rotate(24.957824) scale(1.910894 29.975364)"><ellipse fill="#69936c" fill-opacity="0.501961" cx="0" cy="0" rx="1" ry="1" /></g>
<g transform="translate(159.068770 80.372554) rotate(121.031834) scale(14.381561 22.591126)"><ellipse fill="#90b3b1" fill-opacity="0.501961" cx="0" cy="0" rx="1" ry="1" /></g>
<g transform="translate(114.915277 109.828648) rotate(231.640523) scale(5.842653 2.823295)"><ellipse fill="#83a561" fill-opacity="0.501961" cx="0" cy="0" rx="1" ry="1" /></g>
<g transform="translate(221.892085 153.497327) rotate(262.225340) scale(8.009364 23.458717)"><ellipse fill="#0c3920" fill-opacity="0.501961" cx="0" cy="0" rx="1" ry="1" /></g>
<g transform="translate(9.326243 96.427995) rotate(317.674850) scale(4.645092 1.000000)"><ellipse fill="#001917" fill-opacity="0.501961" cx="0" cy="0" rx="1" ry="1" /></g>
<g transform="translate(115.964648 69.285498) rotate(60.881288) scale(10.039057 20.518606)"><ellipse fill="#b6c2ae" fill-opacity="0.501961" cx="0" cy="0" rx="1" ry="1" /></g>
<g transform="translate(57.983259 165.544735) rotate(275.795397) scale(2.247066 13.287800)"><ellipse fill="#90a944" fill-opacity="0.501961" cx="0" cy="0" rx="1" ry="1" /></g>
<g transform="translate(192.703071 109.423806) rotate(354.774841) scale(23.797502 11.256470)"><ellipse fill="#20554a" fill-opacity="0.501961" cx="0" cy="0" rx="1" ry="1" /></g>
<g transform="translate(231.113329 108.554912) rotate(187.232319) scale(26.351214 5.389701)"><ellipse fill="#093f3f" fill-opacity="0.501961" cx="0" cy="0" rx="1" ry="1" /></g>
<g transform="translate(235.140171 93.946548) rotate(79.227930) scale(6.574740 31.776211)"><ellipse fill="#2c6251" fill-opacity="0.501961" cx="0" cy="0" rx="1" ry="1" /></g>
<g transform="translate(151.786137 137.324501) rotate(-5.402943) scale(7.462568 6.451933)"><ellipse fill="#113d2d" fill-opacity="0.501961" cx="0" cy="0" rx="1" ry="1" /></g>
<g transform="translate(76.074214 118.665453) rotate(215.428413) scale(14.831184 2.007479)"><ellipse fill="#76824d" fill-opacity="0.501961" cx="0" cy="0" rx="1" ry="1" /></g>
<g transform="translate(171.447882 148.862562) rotate(243.434959) scale(8.725199 17.304327)"><ellipse fill="#294531" fill-opacity="0.501961" cx="0" cy="0" rx="1" ry="1" /></g>
<g transform="translate(255.000000 43.632181) rotate(56.852225) scale(5.135831 16.103197)"><ellipse fill="#417885" fill-opacity="0.501961" cx="0" cy="0" rx="1" ry="1" /></g>
<g transform="translate(104.364395 112.721807) rotate(113.298758) scale(1.917249 21.866871)"><ellipse fill="#455e4e" fill-opacity="0.501961" cx="0" cy="0" rx="1" ry="1" /></g>
<g transform="translate(100.694553 114.884131) rotate(141.450463) scale(1.000000 7.298598)"><ellipse fill="#21342b" fill-opacity="0.501961" cx="0" cy="0" rx="1" ry="1" /></g>
<g transform="translate(220.282642 79.616400) rotate(50.752766) scale(5.812732 19.887480)"><ellipse fill="#6ea8af" fill-opacity="0.501961" cx="0" cy="0" rx="1" ry="1" /></g>
<g transform="translate(55.473054 116.509849) rotate(30.445459) scale(5.703094 1.000000)"><ellipse fill="#31452c" fill-opacity="0.501961" cx="0" cy="0" rx="1" ry="1" /></g>
<g transform="translate(45.150445 102.504010) rotate(20.651999) scale(18.051987 1.000000)"><ellipse fill="#aeb775" fill-opacity="0.501961" cx="0" cy="0" rx="1" ry="1" /></g>
<g transform="translate(190.203390 65.653990) rotate(74.118340) scale(16.650881 5.191616)"><ellipse fill="#74a1a3" fill-opacity="0.501961" cx="0" cy="0" rx="1" ry="1" /></g>
<g transform="translate(109.499135 120.851177) rotate(308.099128) scale(1.424819 5.459027)"><ellipse fill="#a1b268" fill-opacity="0.501961" cx="0" cy="0" rx="1" ry="1" /></g>
<g transform="translate(138.835403 113.570027) rotate(219.454274) scale(1.000000 17.049044)"><ellipse fill="#8da482" fill-opacity="0.501961" cx="0" cy="0" rx="1" ry="1" /></g>
<g transform="translate(5.464212 22.223470) rotate(243.039000) scale(13.000208 49.075030)"><ellipse fill="#5f726e" fill-opacity="0.501961" cx="0" cy="0" rx="1" ry="1" /></g>
<g transform="translate(208.633840 42.803214) rotate(259.147549) scale(6.725344 35.322128)"><ellipse fill="#7c9b92" fill-opacity="0.501961" cx="0" cy="0" rx="1" ry="1" /></g>
<g transform="translate(210.368973 118.906634) rotate(300.927330) scale(3.340948 8.312360)"><ellipse fill="#003232" fill-opacity="0.501961" cx="0" cy="0" rx="1" ry="1" /></g>
<g transform="translate(145.166189 35.358175) rotate(297.073302) scale(17.406307 8.790094)"><ellipse fill="#6c8784" fill-opacity="0.501961" cx="0" cy="0" rx="1" ry="1" /></g>
<g transform="translate(177.582141 132.057642) rotate(-24.540709) scale(2.766328 5.285896)"><ellipse fill="#4f704f" fill-opacity="0.501961" cx="0" cy="0" rx="1" ry="1" /></g>
<g transform="translate(133.943617 153.480896) rotate(37.003631) scale(47.502111 1.000000)"><ellipse fill="#848c4c" fill-opacity="0.501961" cx="0" cy="0" rx="1" ry="1" /></g>
<g transform="translate(39.854441 80.223809) rotate(79.195895) scale(7.969808 1.000000)"><ellipse fill="#36362d" fill-opacity="0.501961" cx="0" cy="0" rx="1" ry="1" /></g>
<g transform="translate(83.122930 141.847923) rotate(310.166068) scale(3.133991 33.879682)"><ellipse fill="#798a3d" fill-opacity="0.501961" cx="0" cy="0" rx="1" ry="1" /></g>
<g transform="translate(104.459449 105.698339) rotate(5.511702) scale(14.569465 1.301466)"><ellipse fill="#87a36c" fill-opacity="0.501961" cx="0" cy="0" rx="1" ry="1" /></g>
<g transform="translate(86.361095 19.947097) rotate(345.580581) scale(65.353807 7.174420)"><ellipse fill="#607777" fill-opacity="0.501961" cx="0" cy="0" rx="1" ry="1" /></g>
<g transform="translate(177.041802 114.251299) rotate(310.318032) scale(23.645793 5.398043)"><ellipse fill="#346750" fill-opacity="0.501961" cx="0" cy="0" rx="1" ry="1" /></g>
<g transform="translate(140.199300 135.092688) rotate(179.090982) scale(2.636343 5.050773)"><ellipse fill="#809364" fill-opacity="0.501961" cx="0" cy="0" rx="1" ry="1" /></g>
<g transform="translate(200.684675 59.430581) rotate(174.976257) scale(4.487766 10.635774)"><ellipse fill="#a0bdab" fill-opacity="0.501961" cx="0" cy="0" rx="1" ry="1" /></g>
<g transform="translate(53.565034 139.005785) rotate(286.683268) scale(4.211885 10.625672)"><ellipse fill="#7d943e" fill-opacity="0.501961" cx="0" cy="0" rx="1" ry="1" /></g>
<g transform="translate(46.549518 86.725307) rotate(171.709752) scale(5.474486 1.000000)"><ellipse fill="#242937" fill-opacity="0.501961" cx="0" cy="0" rx="1" ry="1" /></g>
<g transform="translate(124.928489 159.238453) rotate(45.116672) scale(14.683752 7.167453)"><ellipse fill="#425526" fill-opacity="0.501961" cx="0" cy="0" rx="1" ry="1" /></g>
<g transform="translate(150.945195 94.976992) rotate(245.801811) scale(6.503694 23.046398)"><ellipse fill="#88b1b6" fill-opacity="0.501961" cx="0" cy="0" rx="1" ry="1" /></g>
<g transform="translate(26.163231 117.854264) rotate(228.498612) scale(25.663798 5.342371)"><ellipse fill="#4f6f36" fill-opacity="0.501961" cx="0" cy="0" rx="1" ry="1" /></g>
<g transform="translate(170.037540 36.091600) rotate(243.650402) scale(10.135883 18.837682)"><ellipse fill="#879a8a" fill-opacity="0.501961" cx="0" cy="0" rx="1" ry="1" /></g>
<g transform="translate(50.893360 101.218493) rotate(253.777373) scale(7.007674 11.918309)"><ellipse fill="#90a355" fill-opacity="0.501961" cx="0" cy="0" rx="1" ry="1" /></g>
<g transform="translate(21.119548 80.620652) rotate(28.752298) scale(5.137193 15.606873)"><ellipse fill="#83a5a1" fill-opacity="0.501961" cx="0" cy="0" rx="1" ry="1" /></g>
<g transform="translate(195.499368 31.811785) rotate(172.865764) scale(11.940239 7.901767)"><ellipse fill="#668083" fill-opacity="0.501961" cx="0" cy="0" rx="1" ry="1" /></g>
<g transform="translate(213.266632 156.192716) rotate(239.209697) scale(1.000000 30.181775)"><ellipse fill="#2b4b2e" fill-opacity="0.501961" cx="0" cy="0" rx="1" ry="1" /></g>
<g transform="translate(69.030869 124.937867) rotate(196.744388) scale(10.484343 1.000000)"><ellipse fill="#93a157" fill-opacity="0.501961" cx="0" cy="0" rx="1" ry="1" /></g>
<g transform="translate(140.194105 153.896875) rotate(35.099577) scale(42.972819 1.000000)"><ellipse fill="#566937" fill-opacity="0.501961" cx="0" cy="0" rx="1" ry="1" /></g>
<g transform="translate(215.053019 113.449642) rotate(199.394278) scale(18.418483 1.341704)"><ellipse fill="#376a51" fill-opacity="0.501961" cx="0" cy="0" rx="1" ry="1" /></g>
<g transform="translate(196.127784 127.172056) rotate(307.586425) scale(4.600606 31.866699)"><ellipse fill="#204e3a" fill-opacity="0.501961" cx="0" cy="0" rx="1" ry="1" /></g>
<g transform="translate(33.184547 36.365433) rotate(281.714609) scale(5.279235 17.373710)"><ellipse fill="#748b81" fill-opacity="0.501961" cx="0" cy="0" rx="1" ry="1" /></g>
<g transform="translate(157.503716 140.969152) rotate(29.737123) scale(3.831008 14.952181)"><ellipse fill="#042d25" fill-opacity="0.501961" cx="0" cy="0" rx="1" ry="1" /></g>
<g transform="translate(46.095586 90.323833) rotate(233.231679) scale(1.000000 4.961605)"><ellipse fill="#a5a09d" fill-opacity="0.501961" cx="0" cy="0" rx="1" ry="1" /></g>
<g transform="translate(63.341765 76.895236) rotate(306.145978) scale(12.731617 6.787101)"><ellipse fill="#9fb3ab" fill-opacity="0.501961" cx="0" cy="0" rx="1" ry="1" /></g>
<g transform="translate(67.943523 100.228148) rotate(149.805667) scale(8.083069 5.168939)"><ellipse fill="#686d4c" fill-opacity="0.501961" cx="0" cy="0" rx="1" ry="1" /></g>
<g transform="translate(179.481540 56.057533) rotate(159.347204) scale(3.923593 15.968856)"><ellipse fill="#93ab9f" fill-opacity="0.501961" cx="0" cy="0" rx="1" ry="1" /></g>
<g transform="translate(143.871004 85.105913) rotate(60.425695) scale(4.201293 20.490395)"><ellipse fill="#aec5b9" fill-opacity="0.501961" cx="0" cy="0" rx="1" ry="1" /></g>
<g transform="translate(79.670163 81.561189) rotate(148.861600) scale(19.207755 6.805006)"><ellipse fill="#b3c4ba" fill-opacity="0.501961" cx="0" cy="0" rx="1" ry="1" /></g>
<g transform="translate(24.691987 16.072207) rotate(28.848629) scale(20.724123 5.943744)"><ellipse fill="#697d71" fill-opacity="0.501961" cx="0" cy="0" rx="1" ry="1" /></g>
<g transform="translate(115.496089 153.418637) rotate(305.914383) scale(1.000000 12.377490)"><ellipse fill="#717840" fill-opacity="0.501961" cx="0" cy="0" rx="1" ry="1" /></g>
<g transform="translate(26.076346 94.191974) rotate(188.779581) scale(6.094308 2.590338)"><ellipse fill="#3e432f" fill-opacity="0.501961" cx="0" cy="0" rx="1" ry="1" /></g>
<g transform="translate(94.120107 131.256767) rotate(74.809122) scale(2.415675 5.637434)"><ellipse fill="#253825" fill-opacity="0.501961" cx="0" cy="0" rx="1" ry="1" /></g>
<g transform="translate(234.761843 65.940131) rotate(194.298279) scale(4.582252 5.779220)"><ellipse fill="#87b4b6" fill-opacity="0.501961" cx="0" cy="0" rx="1" ry="1" /></g>
<g transform="translate(8.032882 91.937652) rotate(304.531199) scale(7.924561 1.848707)"><ellipse fill="#82abb0" fill-opacity="0.501961" cx="0" cy="0" rx="1" ry="1" /></g>
<g transform="translate(144.347728 126.957066) rotate(121.165318) scale(1.972653 15.893899)"><ellipse fill="#3d5f47" fill-opacity="0.501961" cx="0" cy="0" rx="1" ry="1" /></g>
<g transform="translate(243.647411 78.544583) rotate(25.916831) scale(9.653994 6.051388)"><ellipse fill="#5da0ac" fill-opacity="0.501961" cx="0" cy="0" rx="1" ry="1" /></g>
<g transform="translate(155.490529 104.676539) rotate(57.142125) scale(1.000000 14.551224)"><ellipse fill="#89a07c" fill-opacity="0.501961" cx="0" cy="0" rx="1" ry="1" /></g>
<g transform="translate(81.053588 87.373859) rotate(327.831499) scale(10.279036 10.948354)"><ellipse fill="#c0cec1" fill-opacity="0.501961" cx="0" cy="0" rx="1" ry="1" /></g>
<g transform="translate(36.020633 83.325859) rotate(329.973704) scale(4.574977 1.620429)"><ellipse fill="#323236" fill-opacity="0.501961" cx="0" cy="0" rx="1" ry="1" /></g>
<g transform="translate(146.285443 152.988263) rotate(131.966425) scale(1.000000 16.476627)"><ellipse fill="#8b934f" fill-opacity="0.501961" cx="0" cy="0" rx="1" ry="1" /></g>
<g transform="translate(76.915538 106.490348) rotate(48.338952) scale(21.083927 2.944295)"><ellipse fill="#7d8557" fill-opacity="0.501961" cx="0" cy="0" rx="1" ry="1" /></g>
<g transform="translate(157.221787 153.315531) rotate(28.649935) scale(3.107146 4.508006)"><ellipse fill="#445e37" fill-opacity="0.501961" cx="0" cy="0" rx="1" ry="1" /></g>
<g transform="translate(39.613027 69.217466) rotate(161.846930) scale(15.299415 4.623285)"><ellipse fill="#aebaa8" fill-opacity="0.501961" cx="0" cy="0" rx="1" ry="1" /></g>
<g transform="translate(194.246112 157.638512) rotate(-22.553269) scale(4.511235 8.864641)"><ellipse fill="#051916" fill-opacity="0.501961" cx="0" cy="0" rx="1" ry="1" /></g>
<g transform="translate(48.687150 50.730004) rotate(69.025502) scale(10.150950 5.350623)"><ellipse fill="#849a90" fill-opacity="0.501961" cx="0" cy="0" rx="1" ry="1" /></g>
<g transform="translate(20.737828 104.847612) rotate(161.252653) scale(12.937387 2.395004)"><ellipse fill="#597d37" fill-opacity="0.501961" cx="0" cy="0" rx="1" ry="1" /></g>
<g transform="translate(102.224419 86.735503) rotate(29.025918) scale(19.411325 6.898310)"><ellipse fill="#aabfb7" fill-opacity="0.501961" cx="0" cy="0" rx="1" ry="1" /></g>
<g transform="translate(173.638756 104.395265) rotate(91.242385) scale(4.673376 17.000595)"><ellipse fill="#44725a" fill-opacity="0.501961" cx="0" cy="0" rx="1" ry="1" /></g>
<g transform="translate(138.804467 117.255190) rotate(233.551584) scale(1.000000 17.590550)"><ellipse fill="#81976e" fill-opacity="0.501961" cx="0" cy="0" rx="1" ry="1" /></g>
<g transform="translate(132.725798 125.982296) rotate(155.403459) scale(2.145355 1.836650)"><ellipse fill="#104539" fill-opacity="0.501961" cx="0" cy="0" rx="1" ry="1" /></g>
<g transform="translate(68.559985 2.375165) rotate(356.862703) scale(21.230957 9.511071)"><ellipse fill="#495f62" fill-opacity="0.501961" cx="0" cy="0" rx="1" ry="1" /></g>
<g transform="translate(87.518819 130.428847) rotate(211.472992) scale(11.516923 2.570528)"><ellipse fill="#334a27" fill-opacity="0.501961" cx="0" cy="0" rx="1" ry="1" /></g>
<g transform="translate(100.624542 117.718353) rotate(314.504266) scale(1.000000 22.127832)"><ellipse fill="#4d6142" fill-opacity="0.501961" cx="0" cy="0" rx="1" ry="1" /></g>
<g transform="translate(89.573164 109.869293) rotate(84.102975) scale(9.818148 4.225323)"><ellipse fill="#67754a" fill-opacity="0.501961" cx="0" cy="0" rx="1" ry="1" /></g>
<g transform="translate(119.042281 149.936566) rotate(288.528414) scale(1.394365 6.804919)"><ellipse fill="#24321e" fill-opacity="0.501961" cx="0" cy="0" rx="1" ry="1" /></g>
<g transform="translate(166.037358 50.671770) rotate(138.662576) scale(8.492647 4.207763)"><ellipse fill="#a2b198" fill-opacity="0.501961" cx="0" cy="0" rx="1" ry="1" /></g>
<g transform="translate(37.886035 111.430551) rotate(12.303410) scale(19.210320 1.000000)"><ellipse fill="#3a5626" fill-opacity="0.501961" cx="0" cy="0" rx="1" ry="1" /></g>
<g transform="translate(118.657979 126.767647) rotate(249.210370) scale(4.619066 1.260934)"><ellipse fill="#869657" fill-opacity="0.501961" cx="0" cy="0" rx="1" ry="1" /></g>
<g transform="translate(215.628580 168.321592) rotate(251.719881) scale(4.450791 14.166834)"><ellipse fill="#001b0d" fill-opacity="0.501961" cx="0" cy="0" rx="1" ry="1" /></g>
<g transform="translate(175.545293 0.000000) rotate(10.383431) scale(33.601299 5.995745)"><ellipse fill="#4a6164" fill-opacity="0.501961" cx="0" cy="0" rx="1" ry="1" /></g>
<g transform="translate(0.000000 152.967604) rotate(103.333964) scale(4.162204 24.744123)"><ellipse fill="#223a0b" fill-opacity="0.501961" cx="0" cy="0" rx="1" ry="1" /></g>
<g transform="translate(101.795790 111.637146) rotate(140.429584) scale(1.000000 16.708837)"><ellipse fill="#7a9666" fill-opacity="0.501961" cx="0" cy="0" rx="1" ry="1" /></g>
<g transform="translate(125.485723 113.264836) rotate(238.975620) scale(7.449755 3.786232)"><ellipse fill="#57885b" fill-opacity="0.501961" cx="0" cy="0" rx="1" ry="1" /></g>
<g transform="translate(130.127385 48.217726) rotate(6.186554) scale(36.793711 5.880939)"><ellipse fill="#8ea293" fill-opacity="0.501961" cx="0" cy="0" rx="1" ry="1" /></g>
<g transform="translate(217.246527 11.855564) rotate(264.202503) scale(7.150531 18.560664)"><ellipse fill="#517070" fill-opacity="0.501961" cx="0" cy="0" rx="1" ry="1" /></g>
<g transform="translate(57.395779 92.091117) rotate(181.420597) scale(4.129386 1.504482)"><ellipse fill="#2f302f" fill-opacity="0.501961" cx="0" cy="0" rx="1" ry="1" /></g>
<g transform="translate(104.267873 99.227037) rotate(286.025249) scale(3.198132 21.510330)"><ellipse fill="#bbd0c8" fill-opacity="0.501961" cx="0" cy="0" rx="1" ry="1" /></g>
<g transform="translate(0.000000 74.971040) rotate(191.712875) scale(4.487147 22.094495)"><ellipse fill="#6d979a" fill-opacity="0.501961" cx="0" cy="0" rx="1" ry="1" /></g>
<g transform="translate(135.970228 129.171781) rotate(207.490753) scale(2.961945 1.872817)"><ellipse fill="#82976c" fill-opacity="0.501961" cx="0" cy="0" rx="1" ry="1" /></g>
<g transform="translate(78.691102 112.385131) rotate(226.348956) scale(4.038951 8.803617)"><ellipse fill="#869358" fill-opacity="0.501961" cx="0" cy="0" rx="1" ry="1" /></g>
<g transform="translate(255.000000 93.707655) rotate(113.851634) scale(14.727641 5.178069)"><ellipse fill="#114843" fill-opacity="0.501961" cx="0" cy="0" rx="1" ry="1" /></g>
<g transform="translate(10.477617 39.851442) rotate(66.596057) scale(2.134270 15.322585)"><ellipse fill="#849881" fill-opacity="0.501961" cx="0" cy="0" rx="1" ry="1" /></g>
<g transform="translate(214.131239 63.335270) rotate(264.505293) scale(6.420194 2.529845)"><ellipse fill="#8fbab5" fill-opacity="0.501961" cx="0" cy="0" rx="1" ry="1" /></g>
<g transform="translate(153.365297 126.006956) rotate(331.350719) scale(2.867053 8.505038)"><ellipse fill="#639254" fill-opacity="0.501961" cx="0" cy="0" rx="1" ry="1" /></g>
<g transform="translate(139.945902 134.067471) rotate(333.715532) scale(2.497095 9.754327)"><ellipse fill="#70865b" fill-opacity="0.501961" cx="0" cy="0" rx="1" ry="1" /></g>
<g transform="translate(48.040853 105.772189) rotate(311.922482) scale(3.264605 8.412978)"><ellipse fill="#a1b75d" fill-opacity="0.501961" cx="0" cy="0" rx="1" ry="1" /></g>
<g transform="translate(148.806547 70.767023) rotate(54.699932) scale(4.763132 8.397364)"><ellipse fill="#84a69f" fill-opacity="0.501961" cx="0" cy="0" rx="1" ry="1" /></g>
<g transform="translate(38.200274 79.326185) rotate(93.638793) scale(4.364409 1.522069)"><ellipse fill="#2d3027" fill-opacity="0.501961" cx="0" cy="0" rx="1" ry="1" /></g>
<g transform="translate(222.160378 160.388681) rotate(346.627475) scale(30.818757 1.000000)"><ellipse fill="#1c3d24" fill-opacity="0.501961" cx="0" cy="0" rx="1" ry="1" /></g>
<g transform="translate(20.925336 82.030326) rotate(45.959665) scale(5.756924 5.139147)"><ellipse fill="#729ca2" fill-opacity="0.501961" cx="0" cy="0" rx="1" ry="1" /></g>
<g transform="translate(176.875288 91.911943) rotate(268.253710) scale(2.145663 24.337895)"><ellipse fill="#97bfbc" fill-opacity="0.501961" cx="0" cy="0" rx="1" ry="1" /></g>
<g transform="translate(34.517660 98.186843) rotate(17.324946) scale(3.600324 2.183268)"><ellipse fill="#98998d" fill-opacity="0.501961" cx="0" cy="0" rx="1" ry="1" /></g>
<g transform="translate(35.383930 133.930603) rotate(229.635481) scale(23.083570 1.353282)"><ellipse fill="#606f3c" fill-opacity="0.501961" cx="0" cy="0" rx="1" ry="1" /></g>
<g transform="translate(113.761668 80.859855) rotate(-24.799737) scale(6.819693 11.263625)"><ellipse fill="#beccba" fill-opacity="0.501961" cx="0" cy="0" rx="1" ry="1" /></g>
<g transform="translate(1.527850 30.694998) rotate(330.308157) scale(22.643148 9.470254)"><ellipse fill="#576f76" fill-opacity="0.501961" cx="0" cy="0" rx="1" ry="1" /></g>
<g transform="translate(48.489296 116.788558) rotate(192.183325) scale(6.701391 1.000000)"><ellipse fill="#88a154" fill-opacity="0.501961" cx="0" cy="0" rx="1" ry="1" /></g>
<g transform="translate(153.579762 169.000000) rotate(264.257705) scale(2.516111 22.833999)"><ellipse fill="#576643" fill-opacity="0.501961" cx="0" cy="0" rx="1" ry="1" /></g>
<g transform="translate(186.910891 154.247747) rotate(352.232973) scale(3.196076 19.024040)"><ellipse fill="#092f21" fill-opacity="0.501961" cx="0" cy="0" rx="1" ry="1" /></g>
<g transform="translate(67.108905 122.592598) rotate(120.996945) scale(1.000000 9.378870)"><ellipse fill="#97a15f" fill-opacity="0.501961" cx="0" cy="0" rx="1" ry="1" /></g>
<g transform="translate(151.777300 103.292354) rotate(339.818109) scale(2.792892 1.000000)"><ellipse fill="#245a4f" fill-opacity="0.501961" cx="0" cy="0" rx="1" ry="1" /></g>
<g transform="translate(190.918535 137.484670) rotate(319.689976) scale(2.325139 9.490737)"><ellipse fill="#436c44" fill-opacity="0.501961" cx="0" cy="0" rx="1" ry="1" /></g>
<g transform="translate(105.615684 58.357089) rotate(352.452732) scale(3.427250 8.438262)"><ellipse fill="#b6bca4" fill-opacity="0.501961" cx="0" cy="0" rx="1" ry="1" /></g>
<g transform="translate(86.366350 166.072012) rotate(192.823075) scale(18.605660 5.411206)"><ellipse fill="#627d2d" fill-opacity="0.501961" cx="0" cy="0" rx="1" ry="1" /></g>
<g transform="translate(68.559240 136.410358) rotate(9.449591) scale(8.708315 5.057001)"><ellipse fill="#526a29" fill-opacity="0.501961" cx="0" cy="0" rx="1" ry="1" /></g>
<g transform="translate(43.649028 76.680224) rotate(61.094202) scale(9.674456 2.353311)"><ellipse fill="#9fb2a6" fill-opacity="0.501961" cx="0" cy="0" rx="1" ry="1" /></g>
<g transform="translate(48.855326 125.940252) rotate(248.316596) scale(7.922436 1.414997)"><ellipse fill="#2f4423" fill-opacity="0.501961" cx="0" cy="0" rx="1" ry="1" /></g>
<g transform="translate(234.807798 109.576453) rotate(299.605639) scale(2.637691 7.581509)"><ellipse fill="#205747" fill-opacity="0.501961" cx="0" cy="0" rx="1" ry="1" /></g>
<g transform="translate(252.835489 141.751896) rotate(278.691442) scale(5.804129 14.075200)"><ellipse fill="#001b12" fill-opacity="0.501961" cx="0" cy="0" rx="1" ry="1" /></g>
<g transform="translate(51.092530 84.062576) rotate(-4.395638) scale(1.994601 4.231344)"><ellipse fill="#3b3731" fill-opacity="0.501961" cx="0" cy="0" rx="1" ry="1" /></g>
<g transform="translate(195.686749 55.490236) rotate(136.760672) scale(2.585241 14.564318)"><ellipse fill="#9bb3a5" fill-opacity="0.501961" cx="0" cy="0" rx="1" ry="1" /></g>
<g transform="translate(165.055843 109.315066) rotate(208.494143) scale(2.754872 15.694241)"><ellipse fill="#5b835b" fill-opacity="0.501961" cx="0" cy="0" rx="1" ry="1" /></g>
<g transform="translate(225.838122 40.888268) rotate(2.401254) scale(3.731369 20.018090)"><ellipse fill="#679190" fill-opacity="0.501961" cx="0" cy="0" rx="1" ry="1" /></g>
<g transform="translate(131.642100 139.479386) rotate(34.117469) scale(1.000000 4.363804)"><ellipse fill="#223021" fill-opacity="0.501961" cx="0" cy="0" rx="1" ry="1" /></g>
<g transform="translate(168.721908 80.379754) rotate(329.575110) scale(4.577680 11.792979)"><ellipse fill="#7aa7ad" fill-opacity="0.501961" cx="0" cy="0" rx="1" ry="1" /></g>
<g transform="translate(11.632240 100.350404) rotate(266.519853) scale(1.000000 19.221473)"><ellipse fill="#384639" fill-opacity="0.501961" cx="0" cy="0" rx="1" ry="1" /></g>
<g transform="translate(21.661275 168.204592) rotate(210.600410) scale(15.017588 1.846371)"><ellipse fill="#515f17" fill-opacity="0.501961" cx="0" cy="0" rx="1" ry="1" /></g>
<g transform="translate(11.581861 87.825874) rotate(272.626548) scale(2.670487 14.070953)"><ellipse fill="#94b1aa" fill-opacity="0.501961" cx="0" cy="0" rx="1" ry="1" /></g>
<g transform="translate(202.468468 103.253145) rotate(12.929662) scale(1.000000 12.690516)"><ellipse fill="#45755d" fill-opacity="0.501961" cx="0" cy="0" rx="1" ry="1" /></g>
<g transform="translate(103.359748 110.949014) rotate(163.105656) scale(4.767106 1.000000)"><ellipse fill="#234e46" fill-opacity="0.501961" cx="0" cy="0" rx="1" ry="1" /></g>
<g transform="translate(23.899146 47.424603) rotate(330.950865) scale(10.990104 2.388211)"><ellipse fill="#8fa28f" fill-opacity="0.501961" cx="0" cy="0" rx="1" ry="1" /></g>
<g transform="translate(153.767302 113.017213) rotate(360.199856) scale(4.199208 3.698044)"><ellipse fill="#517655" fill-opacity="0.501961" cx="0" cy="0" rx="1" ry="1" /></g>
<g transform="translate(36.570279 160.132383) rotate(131.810806) scale(8.316750 5.680932)"><ellipse fill="#597526" fill-opacity="0.501961" cx="0" cy="0" rx="1" ry="1" /></g>
<g transform="translate(73.124119 111.872162) rotate(126.105612) scale(1.000000 19.105048)"><ellipse fill="#536238" fill-opacity="0.501961" cx="0" cy="0" rx="1" ry="1" /></g>
<g transform="translate(239.327744 120.963525) rotate(352.578366) scale(23.319271 1.702583)"><ellipse fill="#00292c" fill-opacity="0.501961" cx="0" cy="0" rx="1" ry="1" /></g>
<g transform="translate(84.989111 109.533591) rotate(31.018284) scale(17.650231 1.958686)"><ellipse fill="#78844e" fill-opacity="0.501961" cx="0" cy="0" rx="1" ry="1" /></g>
<g transform="translate(218.358417 73.268161) rotate(280.704687) scale(12.733860 4.229770)"><ellipse fill="#71a6ac" fill-opacity="0.501961" cx="0" cy="0" rx="1" ry="1" /></g>
<g transform="translate(7.351050 122.917679) rotate(101.563297) scale(4.937557 13.908884)"><ellipse fill="#2f4e1e" fill-opacity="0.501961" cx="0" cy="0" rx="1" ry="1" /></g>
<g transform="translate(109.561098 136.983093) rotate(35.795754) scale(12.514070 3.072288)"><ellipse fill="#7c8a4c" fill-opacity="0.501961" cx="0" cy="0" rx="1" ry="1" /></g>
<g transform="translate(158.396977 146.030244) rotate(232.939703) scale(1.000000 11.134172)"><ellipse fill="#001816" fill-opacity="0.501961" cx="0" cy="0" rx="1" ry="1" /></g>
<g transform="translate(36.047169 93.143921) rotate(74.717249) scale(1.000000 7.697975)"><ellipse fill="#495042" fill-opacity="0.501961" cx="0" cy="0" rx="1" ry="1" /></g>
<g transform="translate(145.558143 147.191312) rotate(41.558625) scale(8.449129 1.000000)"><ellipse fill="#0f211a" fill-opacity="0.501961" cx="0" cy="0" rx="1" ry="1" /></g>
<g transform="translate(173.265909 145.021751) rotate(343.712556) scale(1.000000 11.165770)"><ellipse fill="#002421" fill-opacity="0.501961" cx="0" cy="0" rx="1" ry="1" /></g>
<g transform="translate(203.639994 83.629736) rotate(40.041642) scale(3.033472 10.908570)"><ellipse fill="#a5c9be" fill-opacity="0.501961" cx="0" cy="0" rx="1" ry="1" /></g>
<g transform="translate(165.264180 20.292003) rotate(54.897696) scale(2.897515 29.871178)"><ellipse fill="#617b77" fill-opacity="0.501961" cx="0" cy="0" rx="1" ry="1" /></g>
<g transform="translate(157.517595 160.849696) rotate(203.756849) scale(11.198353 2.029702)"><ellipse fill="#738244" fill-opacity="0.501961" cx="0" cy="0" rx="1" ry="1" /></g>
<g transform="translate(215.515499 115.114480) rotate(27.722182) scale(16.775290 1.000000)"><ellipse fill="#32654e" fill-opacity="0.501961" cx="0" cy="0" rx="1" ry="1" /></g>
<g transform="translate(255.000000 43.180380) rotate(174.767275) scale(3.734851 22.960633)"><ellipse fill="#467c80" fill-opacity="0.501961" cx="0" cy="0" rx="1" ry="1" /></g>
<g transform="translate(208.340573 57.295755) rotate(277.053079) scale(17.378530 2.594235)"><ellipse fill="#6c9e9f" fill-opacity="0.501961" cx="0" cy="0" rx="1" ry="1" /></g>
<g transform="translate(68.071002 35.533316) rotate(170.352077) scale(21.856809 6.316352)"><ellipse fill="#688383" fill-opacity="0.501961" cx="0" cy="0" rx="1" ry="1" /></g>
<g transform="translate(99.994705 119.000198) rotate(141.037382) scale(1.802299 4.896560)"><ellipse fill="#4e6345" fill-opacity="0.501961" cx="0" cy="0" rx="1" ry="1" /></g>
<g transform="translate(46.639001 90.060024) rotate(49.441093) scale(1.000000 2.553675)"><ellipse fill="#c2bbb0" fill-opacity="0.501961" cx="0" cy="0" rx="1" ry="1" /></g>
<g transform="translate(102.095455 107.005039) rotate(157.883458) scale(1.661567 2.920409)"><ellipse fill="#93b083" fill-opacity="0.501961" cx="0" cy="0" rx="1" ry="1" /></g>
<g transform="translate(81.435454 117.044465) rotate(304.465322) scale(1.000000 3.234194)"><ellipse fill="#3a462e" fill-opacity="0.501961" cx="0" cy="0" rx="1" ry="1" /></g>
<g transform="translate(10.035567 1.548538) rotate(180.474898) scale(30.518367 3.761782)"><ellipse fill="#4e686a" fill-opacity="0.501961" cx="0" cy="0" rx="1" ry="1" /></g>
<g transform="translate(119.556598 121.458271) rotate(303.121571) scale(2.027112 3.249378)"><ellipse fill="#263e46" fill-opacity="0.501961" cx="0" cy="0" rx="1" ry="1" /></g>
<g transform="translate(131.928697 114.930779) rotate(228.842722) scale(1.000000 8.577955)"><ellipse fill="#7fa175" fill-opacity="0.501961" cx="0" cy="0" rx="1" ry="1" /></g>
<g transform="translate(65.141537 162.779311) rotate(-4.867638) scale(4.361514 20.098055)"><ellipse fill="#7f9343" fill-opacity="0.501961" cx="0" cy="0" rx="1" ry="1" /></g>
<g transform="translate(144.179050 117.723382) rotate(278.262516) scale(2.933202 8.686672)"><ellipse fill="#8ea76f" fill-opacity="0.501961" cx="0" cy="0" rx="1" ry="1" /></g>
<g transform="translate(182.604861 96.583364) rotate(263.158843) scale(1.681060 28.085746)"><ellipse fill="#5e8566" fill-opacity="0.501961" cx="0" cy="0" rx="1" ry="1" /></g>
<g transform="translate(107.403216 125.787552) rotate(89.351514) scale(1.000000 16.905225)"><ellipse fill="#7e8f55" fill-opacity="0.501961" cx="0" cy="0" rx="1" ry="1" /></g>
<g transform="translate(63.815877 19.880586) rotate(349.084899) scale(35.573928 6.056920)"><ellipse fill="#566e70" fill-opacity="0.501961" cx="0" cy="0" rx="1" ry="1" /></g>
<g transform="translate(232.031923 50.622385) rotate(259.814167) scale(21.301868 1.000000)"><ellipse fill="#86aaa3" fill-opacity="0.501961" cx="0" cy="0" rx="1" ry="1" /></g>
<g transform="translate(200.659528 98.749159) rotate(179.512368) scale(30.705986 1.470522)"><ellipse fill="#346655" fill-opacity="0.501961" cx="0" cy="0" rx="1" ry="1" /></g>
<g transform="translate(88.669139 128.190597) rotate(90.967649) scale(13.427032 1.499037)"><ellipse fill="#495c33" fill-opacity="0.501961" cx="0" cy="0" rx="1" ry="1" /></g>
<g transform="translate(1.913862 105.397093) rotate(204.331313) scale(2.549238 4.309354)"><ellipse fill="#836f75" fill-opacity="0.501961" cx="0" cy="0" rx="1" ry="1" /></g>
<g transform="translate(21.187235 33.299690) rotate(213.976217) scale(1.911213 20.159450)"><ellipse fill="#768b7b" fill-opacity="0.501961" cx="0" cy="0" rx="1" ry="1" /></g>
<g transform="translate(152.011056 90.817486) rotate(308.835809) scale(7.211857 10.358637)"><ellipse fill="#87adb2" fill-opacity="0.501961" cx="0" cy="0" rx="1" ry="1" /></g>
<g transform="translate(0.000000 153.320727) rotate(206.082894) scale(27.189655 1.574151)"><ellipse fill="#17360a" fill-opacity="0.501961" cx="0" cy="0" rx="1" ry="1" /></g>
<g transform="translate(131.162561 109.911401) rotate(160.321609) scale(12.953796 1.401450)"><ellipse fill="#53805a" fill-opacity="0.501961" cx="0" cy="0" rx="1" ry="1" /></g>
<g transform="translate(142.677964 109.348526) rotate(168.946736) scale(3.430413 2.496163)"><ellipse fill="#91a680" fill-opacity="0.501961" cx="0" cy="0" rx="1" ry="1" /></g>
<g transform="translate(98.660426 113.655660) rotate(325.314052) scale(1.000000 2.400690)"><ellipse fill="#182725" fill-opacity="0.501961" cx="0" cy="0" rx="1" ry="1" /></g>
<g transform="translate(143.219979 127.200198) rotate(331.266440) scale(1.257421 2.743838)"><ellipse fill="#23373e" fill-opacity="0.501961" cx="0" cy="0" rx="1" ry="1" /></g>
<g transform="translate(80.068715 148.163952) rotate(202.558081) scale(26.218584 1.201164)"><ellipse fill="#8f9e46" fill-opacity="0.501961" cx="0" cy="0" rx="1" ry="1" /></g>
<g transform="translate(23.298730 138.612550) rotate(164.105544) scale(32.148408 3.837937)"><ellipse fill="#5b6d2d" fill-opacity="0.501961" cx="0" cy="0" rx="1" ry="1" /></g>
<g transform="translate(173.127692 109.411907) rotate(310.970957) scale(3.406235 2.536716)"><ellipse fill="#104342" fill-opacity="0.501961" cx="0" cy="0" rx="1" ry="1" /></g>
<g transform="translate(83.392645 140.628136) rotate(211.095291) scale(10.021188 3.467767)"><ellipse fill="#7a8a40" fill-opacity="0.501961" cx="0" cy="0" rx="1" ry="1" /></g>
<g transform="translate(12.569016 97.123347) rotate(150.667299) scale(10.591465 1.000000)"><ellipse fill="#6a7844" fill-opacity="0.501961" cx="0" cy="0" rx="1" ry="1" /></g>
<g transform="translate(13.924754 62.602310) rotate(231.086132) scale(1.439731 27.381047)"><ellipse fill="#9cae98" fill-opacity="0.501961" cx="0" cy="0" rx="1" ry="1" /></g>
<g transform="translate(195.795786 132.292744) rotate(207.403906) scale(22.773036 3.790663)"><ellipse fill="#285339" fill-opacity="0.501961" cx="0" cy="0" rx="1" ry="1" /></g>
<g transform="translate(44.477775 62.060437) rotate(218.556801) scale(20.845031 1.825760)"><ellipse fill="#b3b9a5" fill-opacity="0.501961" cx="0" cy="0" rx="1" ry="1" /></g>
<g transform="translate(138.290173 169.932847) rotate(175.880874) scale(6.580414 1.891376)"><ellipse fill="#6d7256" fill-opacity="0.501961" cx="0" cy="0" rx="1" ry="1" /></g>
<g transform="translate(96.487450 65.506460) rotate(103.168180) scale(7.770526 6.472144)"><ellipse fill="#94ada0" fill-opacity="0.501961" cx="0" cy="0" rx="1" ry="1" /></g>
<g transform="translate(181.748306 123.252864) rotate(92.492503) scale(1.000000 25.786624)"><ellipse fill="#3d6d4e" fill-opacity="0.501961" cx="0" cy="0" rx="1" ry="1" /></g>
<g transform="translate(141.985217 164.758556) rotate(109.992307) scale(1.000000 5.067735)"><ellipse fill="#2a4120" fill-opacity="0.501961" cx="0" cy="0" rx="1" ry="1" /></g>
<g transform="translate(75.686165 99.503889) rotate(319.140679) scale(1.000000 8.416543)"><ellipse fill="#59614d" fill-opacity="0.501961" cx="0" cy="0" rx="1" ry="1" /></g>
<g transform="translate(123.761572 62.048163) rotate(284.443333) scale(2.084460 27.655193)"><ellipse fill="#a5b6a4" fill-opacity="0.501961" cx="0" cy="0" rx="1" ry="1" /></g>
<g transform="translate(10.252400 95.574776) rotate(314.309451) scale(2.892041 1.292760)"><ellipse fill="#0d2116" fill-opacity="0.501961" cx="0" cy="0" rx="1" ry="1" /></g>
<g transform="translate(75.314407 129.654575) rotate(-59.201060) scale(1.000000 2.728036)"><ellipse fill="#434536" fill-opacity="0.501961" cx="0" cy="0" rx="1" ry="1" /></g>
<g transform="translate(80.087702 112.591206) rotate(303.122113) scale(1.274901 10.489821)"><ellipse fill="#999d6c" fill-opacity="0.501961" cx="0" cy="0" rx="1" ry="1" /></g>
<g transform="translate(197.538214 1.250515) rotate(344.841754) scale(3.338677 31.894466)"><ellipse fill="#48656a" fill-opacity="0.501961" cx="0" cy="0" rx="1" ry="1" /></g>
<g transform="translate(242.220371 33.146819) rotate(188.342129) scale(30.515504 3.696657)"><ellipse fill="#648b85" fill-opacity="0.501961" cx="0" cy="0" rx="1" ry="1" /></g>
<g transform="translate(184.843428 40.702871) rotate(230.440455) scale(4.208108 9.922588)"><ellipse fill="#748d8c" fill-opacity="0.501961" cx="0" cy="0" rx="1" ry="1" /></g>
<g transform="translate(67.280226 87.075099) rotate(112.204078) scale(5.190398 3.100343)"><ellipse fill="#92b6b3" fill-opacity="0.501961" cx="0" cy="0" rx="1" ry="1" /></g>
<g transform="translate(192.851072 112.334978) rotate(288.955513) scale(12.135579 4.980213)"><ellipse fill="#184e45" fill-opacity="0.501961" cx="0" cy="0" rx="1" ry="1" /></g>
</g>
</svg>