<svg height="680" width="1024" xmlns="http://www.w3.org/2000/svg"><path d="m0 0h1024v680h-1024z" fill="#627e6a"/><g fill-opacity=".501961"><ellipse fill="#b8d3d6" rx="1" ry="1" transform="matrix(-1.73283632 -136.95304984 500.37180864 -6.33109256 512.487952 271.47302)"/><ellipse fill="#000b00" rx="1" ry="1" transform="matrix(345.68092032 -204.03400636 117.75488984 199.5040896 847.628356 633.99842)"/><ellipse fill="#606c0b" rx="1" ry="1" transform="matrix(137.09076964 -176.58219228 245.24866004 190.40044256 240.68256 599.13126)"/><ellipse fill="#c3d3c7" rx="1" ry="1" transform="matrix(14.2519242 -93.48490348 212.17583648 32.34654824 435.031472 333.037404)"/><ellipse fill="#002114" rx="1" ry="1" transform="matrix(78.69742708 105.0066146 -342.17796056 256.44598876 973.023108 580.965644)"/><ellipse fill="#70989c" rx="1" ry="1" transform="matrix(580.25454932 102.33833072 -18.05742332 102.38492228 916.376936 217.144512)"/><ellipse fill="#365319" rx="1" ry="1" transform="matrix(97.2401684 22.13905424 -43.04953564 189.08414296 58.083144 579.350112)"/><ellipse fill="#707a48" rx="1" ry="1" transform="matrix(-43.48941104 58.70241548 -325.25834908 -240.96613272 435.926952 562.2512)"/><ellipse fill="#94a9a7" rx="1" ry="1" transform="matrix(-53.402449 -92.41444816 151.4889018 -87.53910792 35.140596 269.105856)"/><ellipse fill="#186351" rx="1" ry="1" transform="matrix(-7.45010264 -82.31986336 198.2047802 -17.9379058 815.045924 453.776552)"/><ellipse fill="#496172" rx="1" ry="1" transform="matrix(1.50698808 87.6801304 -803.9100654 13.81707432 681.441308 7.706784)"/><ellipse fill="#829836" rx="1" ry="1" transform="matrix(-23.31213284 66.47706164 -244.61092436 -85.78000024 304.0083 651.058836)"/><ellipse fill="#aab96b" rx="1" ry="1" transform="matrix(-13.83077756 25.4524694 -74.43194176 -40.44604132 214.709808 430.33228)"/><ellipse fill="#718588" rx="1" ry="1" transform="matrix(115.27893524 49.70475392 -36.57041792 84.81681348 289.365496 182.50798)"/><ellipse fill="#509aa7" rx="1" ry="1" transform="matrix(-83.89953636 -27.61945164 43.14157348 -131.05104552 960.665404 244.45358)"/><ellipse fill="#4b602f" rx="1" ry="1" transform="matrix(-70.4859668 -29.20190636 38.19341836 -92.18918736 511.61102 568.6225)"/><ellipse fill="#261c22" rx="1" ry="1" transform="matrix(.22961604 -32.20910156 12.82678608 .09144112 155.886824 326.217272)"/><ellipse fill="#001203" rx="1" ry="1" transform="matrix(292.19010064 -206.845827 52.11362696 73.6156302 1022 642.970948)"/><ellipse fill="#80bac0" rx="1" ry="1" transform="matrix(5.45805024 40.89956252 -217.1085206 28.97315128 794.432808 333.076964)"/><ellipse fill="#7a9e60" rx="1" ry="1" transform="matrix(-18.0460018 41.5250972 -69.85962524 -30.35963812 616.034356 473.799716)"/><ellipse fill="#032c1f" rx="1" ry="1" transform="matrix(15.6366748 -53.02498248 107.43902628 31.68297352 680.356652 593.632344)"/><ellipse fill="#0e2900" rx="1" ry="1" transform="matrix(6.64238664 -14.4569706 112.77851924 51.81711656 43.355928 631.700484)"/><ellipse fill="#7d8753" rx="1" ry="1" transform="matrix(-197.92932724 -148.27225116 15.5827528 -20.8014902 460.357124 536.111812)"/><ellipse fill="#7c8b7f" rx="1" ry="1" transform="matrix(-229.74316096 8.17653708 -2.62974352 -73.89015464 573.989636 114.741348)"/><ellipse fill="#bed0c1" rx="1" ry="1" transform="matrix(-16.01996424 65.08067876 -119.24725536 -29.35336264 429.592424 355.5507)"/><ellipse fill="#364b23" rx="1" ry="1" transform="matrix(-8.09332772 12.90955212 -129.37285784 -81.10714684 435.18278 568.115704)"/><ellipse fill="#a9b49e" rx="1" ry="1" transform="matrix(39.81769324 57.0267904 -100.98068888 70.50752928 439.054092 238.755704)"/><ellipse fill="#0a4339" rx="1" ry="1" transform="matrix(-52.55851812 -47.9474052 135.9533796 -149.02804728 927.508824 483.752772)"/><ellipse fill="#85aeb6" rx="1" ry="1" transform="matrix(-93.51935408 -7.69375996 3.09385156 -37.60645032 22.073468 337.22682)"/><ellipse fill="#36656d" rx="1" ry="1" transform="matrix(-225.95794324 -50.98302804 14.12427068 -62.59908984 977.356924 40.499724)"/><ellipse fill="#504c58" rx="1" ry="1" transform="matrix(-20.05948136 1.42035292 -2.0348836 -28.738428 204.46822 343.48852)"/><ellipse fill="#256054" rx="1" ry="1" transform="matrix(9.92831792 31.35647868 -142.22767868 45.0331692 892.768708 398.901368)"/><ellipse fill="#aeb29c" rx="1" ry="1" transform="matrix(-32.69955428 39.4086518 -70.66605996 -58.63556752 166.2655 246.60132)"/><ellipse fill="#637a79" rx="1" ry="1" transform="matrix(58.53880312 27.54358308 -69.88758808 148.53317192 46.240972 131.716608)"/><ellipse fill="#316047" rx="1" ry="1" transform="matrix(-42.08751716 40.675714 -83.07585272 -85.95931172 746.699124 474.943348)"/><ellipse fill="#365529" rx="1" ry="1" transform="matrix(-2.85198732 31.39879748 -119.5223498 -10.8563466 113.491856 500.203516)"/><ellipse fill="#a5c6b7" rx="1" ry="1" transform="matrix(24.77475596 -3.73621216 12.94329532 85.82675964 795.440084 280.268864)"/><ellipse fill="#a99736" rx="1" ry="1" transform="matrix(-124.819944 -27.9047856 4.78008516 -21.38163576 2 678)"/><ellipse fill="#95aa9a" rx="1" ry="1" transform="matrix(-39.736967 -50.36195808 73.96167212 -58.35778904 615.033396 237.620148)"/><ellipse fill="#82abb2" rx="1" ry="1" transform="matrix(116.15313116 -87.2939474 17.84621592 23.746135 653.647332 341.205588)"/><ellipse fill="#9fad4c" rx="1" ry="1" transform="matrix(82.2602758 38.6566496 -5.80125156 12.34490208 336.659196 610.788348)"/><ellipse fill="#627b7f" rx="1" ry="1" transform="matrix(8.97331116 50.02450316 -175.9154052 31.5554092 301.439148 122.003336)"/><ellipse fill="#448898" rx="1" ry="1" transform="matrix(-43.23050076 -10.65711676 25.21301252 -102.27636436 1022 240.348976)"/><ellipse fill="#678c8b" rx="1" ry="1" transform="matrix(-111.31986336 -.14968096 .09673772 -71.94523096 898.545628 143.360428)"/><ellipse fill="#44563f" rx="1" ry="1" transform="matrix(-10.12313072 -19.13733584 61.00329856 -32.26908752 364.603368 474.750196)"/><ellipse fill="#281e39" rx="1" ry="1" transform="matrix(.19706236 -5.9890268 24.02451024 .7905002 235.51974 363.742352)"/><ellipse fill="#bdceb6" rx="1" ry="1" transform="matrix(-15.219304 17.46149064 -83.33195572 -72.6315064 383.002764 378.794676)"/><ellipse fill="#002b24" rx="1" ry="1" transform="matrix(37.66679608 -95.00175692 87.00424504 34.49590052 1022 528.110412)"/><ellipse fill="#4e6267" rx="1" ry="1" transform="matrix(-155.94110512 90.00231112 -29.71368028 -51.48294616 299.06796 21.203512)"/><ellipse fill="#2d4c3b" rx="1" ry="1" transform="matrix(18.58477716 -6.56753948 14.78519596 41.83904384 522.890864 524.9151)"/><ellipse fill="#909b61" rx="1" ry="1" transform="matrix(-109.48757852 -31.32601968 6.75016516 -23.59250376 232.089928 419.293552)"/><ellipse fill="#223910" rx="1" ry="1" transform="matrix(70.9845084 3.2337478 -.61543948 13.50960888 77.85098 629.568028)"/><ellipse fill="#4d686d" rx="1" ry="1" transform="matrix(-5.85442948 -99.82660596 69.31552208 -4.06507696 634.752956 9.317428)"/><ellipse fill="#456548" rx="1" ry="1" transform="matrix(63.94952824 -19.46351568 14.1894874 46.6211264 61.173944 422.274444)"/><ellipse fill="#809488" rx="1" ry="1" transform="matrix(-50.1311886 3.21802096 -6.532672 -101.76770692 736.185888 140.031496)"/><ellipse fill="#909d59" rx="1" ry="1" transform="matrix(40.7635888 53.10501676 -8.05431096 6.18251608 423.956768 526.01378)"/><ellipse fill="#3d6444" rx="1" ry="1" transform="matrix(-7.40572308 12.59324096 -41.3541306 -24.31917568 587.730916 512.759488)"/><ellipse fill="#453f31" rx="1" ry="1" transform="matrix(6.256679 -.57725516 3.44597044 37.3497424 209.42342 340.438832)"/><ellipse fill="#c5d0c6" rx="1" ry="1" transform="matrix(-22.05424584 42.3854234 -35.45710736 -18.44926156 329.727024 344.74062)"/><ellipse fill="#92a576" rx="1" ry="1" transform="matrix(29.14344416 15.45925868 -10.76338768 20.2908946 563.556364 467.680336)"/><ellipse fill="#3c4e2f" rx="1" ry="1" transform="matrix(-10.26164108 19.62731224 -52.06110924 -27.218827 351.601436 507.859076)"/><ellipse fill="#7c9aa6" rx="1" ry="1" transform="matrix(-11.34454452 76.11683308 -9.97452104 -1.48661464 16.758296 369.543856)"/><ellipse rx="1" ry="1" transform="matrix(55.7304746 -29.74999008 12.89660448 24.15913032 981.150152 678)"/><ellipse fill="#858d58" rx="1" ry="1" transform="matrix(2.13992384 -3.37945648 441.82723876 279.77180544 617.258992 632.58202)"/><ellipse fill="#1e3435" rx="1" ry="1" transform="matrix(-2.8068652 5.28011924 -18.6524858 -9.91549828 469.31658 483.674124)"/><ellipse fill="#a0ac5b" rx="1" ry="1" transform="matrix(9.5201494 35.47409156 -10.90918712 2.92768852 266.304136 476.151156)"/><ellipse fill="#588160" rx="1" ry="1" transform="matrix(81.221245 -11.35680952 2.41484752 17.27042448 698.085912 400.979784)"/><ellipse fill="#9dc4bc" rx="1" ry="1" transform="matrix(-59.2363648 57.6046184 -16.19748256 -16.65630312 813.707352 320.545108)"/><ellipse fill="#4b672f" rx="1" ry="1" transform="matrix(-38.89269544 -39.37325568 55.83102264 -55.14959136 114.550632 508.263196)"/><ellipse fill="#7a8b34" rx="1" ry="1" transform="matrix(-104.55393608 -17.6767482 2.6143872 -15.46350424 119.436116 598.393572)"/><ellipse fill="#425b23" rx="1" ry="1" transform="matrix(-5.59385496 8.10099484 -102.04527784 -70.46375084 230.395264 518.783408)"/><ellipse fill="#89a9a7" rx="1" ry="1" transform="matrix(-11.85988844 -35.12865856 80.72492192 -27.25377536 70.5125 326.922156)"/><ellipse fill="#657452" rx="1" ry="1" transform="matrix(105.37132168 35.88597732 -2.44659668 7.18389592 337.716248 407.012584)"/><ellipse fill="#485b26" rx="1" ry="1" transform="matrix(-117.83211416 -55.86827816 6.717406 -14.16772056 480.835292 626.870504)"/><ellipse fill="#7a9189" rx="1" ry="1" transform="matrix(5.042236 32.13605872 -224.5440748 35.2315828 352.120372 153.8984)"/><ellipse fill="#221d24" rx="1" ry="1" transform="matrix(7.44436292 15.45042912 -12.33733552 5.94440464 160.87654 337.056248)"/><ellipse fill="#acc2b4" rx="1" ry="1" transform="matrix(5.07258192 21.00790492 -12.9492868 3.12674296 185.843424 319.044116)"/><ellipse fill="#26491d" rx="1" ry="1" transform="matrix(22.19998236 -34.6043342 39.3924348 25.27172904 2 480.915616)"/><ellipse fill="#a8c4bf" rx="1" ry="1" transform="matrix(-15.57916016 36.69504288 -69.87499228 -29.6659606 480.368632 385.031048)"/><ellipse fill="#295760" rx="1" ry="1" transform="matrix(28.6813082 -38.42811088 174.20540512 130.02041476 1022 14.484112)"/><ellipse fill="#7c968a" rx="1" ry="1" transform="matrix(-1.99702776 16.04474044 -42.48995328 -5.28856272 104.071836 232.67654)"/><ellipse fill="#53573e" rx="1" ry="1" transform="matrix(-16.22519508 -39.52360496 7.35752388 -3.02040416 270.646148 412.176252)"/><ellipse fill="#0f3d30" rx="1" ry="1" transform="matrix(165.36734344 -7.53549604 .8795656 19.30217028 906.434348 508.08434)"/><ellipse fill="#a39ea5" rx="1" ry="1" transform="matrix(2.17509052 3.35693036 -26.30093824 17.0414382 173.074604 370.533044)"/><ellipse fill="#002524" rx="1" ry="1" transform="matrix(71.35117268 -24.9467074 4.94417992 14.14106596 638.2404 559.078964)"/><ellipse fill="#3e6645" rx="1" ry="1" transform="matrix(6.2336026 -5.15662836 62.8109578 75.92917736 750.640284 540.916884)"/><ellipse fill="#a8b7a9" rx="1" ry="1" transform="matrix(123.03932808 4.02849676 -.91453284 27.9318844 212.609132 280.136552)"/><ellipse fill="#243c22" rx="1" ry="1" transform="matrix(4.75198916 -8.0505392 62.64092832 36.9750404 584.076176 588.222412)"/><ellipse fill="#384138" rx="1" ry="1" transform="matrix(.7154736 3.93549204 -94.02804292 17.09432524 56.286648 396.545188)"/><ellipse fill="#6ea2a6" rx="1" ry="1" transform="matrix(-34.62656768 -102.93001976 47.77234196 -16.07103776 932.096268 242.763868)"/><ellipse fill="#062611" rx="1" ry="1" transform="matrix(-66.08803276 -.99933968 .33497016 -22.15214756 733.70836 652.617408)"/><ellipse fill="#537979" rx="1" ry="1" transform="matrix(158.52118724 22.92282016 -4.72827556 32.69806456 908.777592 97.16118)"/><ellipse fill="#839e66" rx="1" ry="1" transform="matrix(-21.27116992 -16.41330096 4.71588936 -6.11165812 563.843008 523.1146)"/><ellipse fill="#8c9f8d" rx="1" ry="1" transform="matrix(-11.224139 -74.94555124 26.34082784 -3.94490544 519.135212 138.562976)"/><ellipse fill="#91a9a2" rx="1" ry="1" transform="matrix(94.61091748 3.15284188 -1.09652832 32.90477456 332.33354 253.644576)"/><ellipse fill="#586e31" rx="1" ry="1" transform="matrix(128.29757724 11.38670248 -.78911276 8.89118292 263.964348 642.894584)"/><ellipse fill="#333432" rx="1" ry="1" transform="matrix(-2.37179048 4.31868528 -30.57105984 -16.78940344 236.933576 371.997368)"/><ellipse fill="#69936c" rx="1" ry="1" transform="matrix(6.92980844 3.22521456 -50.59253988 108.70489436 657.464924 451.925824)"/><ellipse fill="#90b3b1" rx="1" ry="1" transform="matrix(-29.6555982 49.293146 -77.43162736 -46.584189 638.27508 323.490216)"/><ellipse fill="#83a561" rx="1" ry="1" transform="matrix(-14.5036464 -18.32565816 8.85535032 -7.0084724 461.661108 441.314592)"/><ellipse fill="#0c3920" rx="1" ry="1" transform="matrix(-4.33394324 -31.7429602 92.97231592 -12.69373552 889.56834 615.989308)"/><ellipse fill="#001917" rx="1" ry="1" transform="matrix(13.7371276 -12.51085128 2.69334844 2.9573424 39.304972 387.71198)"/><ellipse fill="#b6c2ae" rx="1" ry="1" transform="matrix(19.54085244 35.08101672 -71.7013122 39.939115 465.858592 279.141992)"/><ellipse fill="#90a944" rx="1" ry="1" transform="matrix(.90760228 -8.9423234 52.87953488 5.36701528 233.933036 664.17894)"/><ellipse fill="#20554a" rx="1" ry="1" transform="matrix(94.7944464 -8.6689418 4.10050112 44.8387752 772.812284 439.695224)"/><ellipse fill="#093f3f" rx="1" ry="1" transform="matrix(-104.56623876 -13.26971652 2.71409904 -21.38727884 926.453316 436.219648)"/><ellipse fill="#2c6251" rx="1" ry="1" transform="matrix(4.91534024 25.83553228 -124.86506304 23.75620756 942.560684 377.786192)"/><ellipse fill="#113d2d" rx="1" ry="1" transform="matrix(29.71765112 -2.8106852 2.43004184 25.6930716 609.144548 551.298004)"/><ellipse fill="#76824d" rx="1" ry="1" transform="matrix(-48.34019336 -34.38967876 4.65482444 -6.5431002 306.296856 476.661812)"/><ellipse fill="#294531" rx="1" ry="1" transform="matrix(-15.60810492 -31.21622372 61.90984788 -30.9549102 687.791528 597.450248)"/><ellipse fill="#417885" rx="1" ry="1" transform="matrix(11.23309544 17.20016648 -53.93044856 35.22093096 1022 176.528724)"/><ellipse fill="#455e4e" rx="1" ry="1" transform="matrix(-3.0332842 7.04362736 -80.33494412 -34.59562852 419.45758 452.887228)"/><ellipse fill="#21342b" rx="1" ry="1" transform="matrix(-3.1282786 2.49276412 -18.19368336 -22.83204788 404.778212 461.536524)"/><ellipse fill="#6ea8af" rx="1" ry="1" transform="matrix(14.7101168 18.00605776 -61.6053026 50.32868428 883.130568 320.4656)"/><ellipse fill="#31452c" rx="1" ry="1" transform="matrix(19.66682096 11.55943996 -2.02687172 3.44844764 223.892216 468.039396)"/><ellipse fill="#aeb775" rx="1" ry="1" transform="matrix(67.56785336 25.4670954 -1.41076412 3.74295936 182.60178 412.01604)"/><ellipse fill="#74a1a3" rx="1" ry="1" transform="matrix(18.22614476 64.06119776 -19.97378632 5.68277108 762.81356 264.61596)"/><ellipse fill="#a1b268" rx="1" ry="1" transform="matrix(3.51658948 -4.4850134 17.1838032 13.47340048 439.99654 485.404708)"/><ellipse fill="#8da482" rx="1" ry="1" transform="matrix(-3.08852788 -2.54184884 43.33609256 -52.65644788 557.341612 456.280108)"/><ellipse fill="#5f726e" rx="1" ry="1" transform="matrix(-23.57634032 -46.3491392 174.96530804 -88.99931508 23.856848 90.89388)"/><ellipse fill="#7c9b92" rx="1" ry="1" transform="matrix(-5.06500356 -26.42025304 138.76160968 -26.60186652 836.53536 173.212856)"/><ellipse fill="#003232" rx="1" ry="1" transform="matrix(6.86832744 -11.46372604 28.52202964 17.08856596 843.475892 477.626536)"/><ellipse fill="#6c8784" rx="1" ry="1" transform="matrix(31.68853328 -61.99604208 31.307677 16.0025436 582.664756 143.4327)"/><ellipse fill="#4f704f" rx="1" ry="1" transform="matrix(10.06574252 -4.59586304 8.78176924 19.23360792 712.328564 530.230568)"/><ellipse fill="#848c4c" rx="1" ry="1" transform="matrix(151.7402436 114.35955256 -2.40746252 3.19438948 537.774468 615.923584)"/><ellipse fill="#36362d" rx="1" ry="1" transform="matrix(5.97581596 31.31413508 -3.92909528 .74980676 161.417764 322.895236)"/><ellipse fill="#798a3d" rx="1" ry="1" transform="matrix(8.0857624 -9.5797098 103.56045096 87.41028904 334.49172 569.391692)"/><ellipse fill="#87a36c" rx="1" ry="1" transform="matrix(58.00841828 5.597533 -.50001828 5.1817952 419.837796 424.793356)"/><ellipse fill="#607777" rx="1" ry="1" transform="matrix(253.18033936 -65.09713656 7.1462432 27.79366916 347.44438 81.788388)"/><ellipse fill="#346750" rx="1" ry="1" transform="matrix(61.19812828 -72.11633324 16.46326972 13.97077816 710.167208 459.005196)"/><ellipse fill="#809364" rx="1" ry="1" transform="matrix(-10.54404484 .16729908 -.32051584 -20.2005494 562.7972 542.370752)"/><ellipse fill="#a0bdab" rx="1" ry="1" transform="matrix(-17.88210492 1.57194868 -3.72543732 -42.37966652 804.7387 239.722324)"/><ellipse fill="#7d943e" rx="1" ry="1" transform="matrix(4.8366052 -16.13836592 40.71359564 12.20170552 216.260136 558.02314)"/><ellipse fill="#242937" rx="1" ry="1" transform="matrix(-21.66911804 3.15741588 -.57675112 -3.95820136 188.198072 348.901228)"/><ellipse fill="#425526" rx="1" ry="1" transform="matrix(41.44726452 41.61640816 -20.31385776 20.23129512 501.713956 638.953812)"/><ellipse fill="#88b1b6" rx="1" ry="1" transform="matrix(-10.66330588 -23.72893756 84.08552728 -37.7863398 605.78078 381.907968)"/><ellipse fill="#4f6f36" rx="1" ry="1" transform="matrix(-68.0232508 -76.88254548 16.00445428 -14.16023624 106.652924 473.417056)"/><ellipse fill="#879a8a" rx="1" ry="1" transform="matrix(-17.99512776 -36.33116244 67.52197956 -33.4441996 682.15016 146.3664)"/><ellipse fill="#90a355" rx="1" ry="1" transform="matrix(-7.83094448 -26.91460992 45.7750514 -13.31848716 205.57344 406.873972)"/><ellipse fill="#83a5a1" rx="1" ry="1" transform="matrix(18.0152618 9.88445112 -30.02911768 54.73064816 86.478192 324.482608)"/><ellipse fill="#668083" rx="1" ry="1" transform="matrix(-47.39118616 5.93164344 -3.92542096 -31.36236308 783.997472 129.24714)"/><ellipse fill="#2b4b2e" rx="1" ry="1" transform="matrix(-2.04758992 -3.4361862 103.71019816 -61.79989864 855.066528 626.770864)"/><ellipse fill="#93a157" rx="1" ry="1" transform="matrix(-40.15921 -12.08226064 1.15240988 -3.83039832 278.123476 501.751468)"/><ellipse fill="#566937" rx="1" ry="1" transform="matrix(140.6335286 98.83734824 -2.29999684 3.27261584 562.77642 617.5875)"/><ellipse fill="#376a51" rx="1" ry="1" transform="matrix(-69.49336556 -24.46467664 1.78214212 -5.06228044 862.212076 455.798568)"/><ellipse fill="#204e3a" rx="1" ry="1" transform="matrix(11.22469528 -14.5827098 101.0090462 77.7493194 786.511136 510.688224)"/><ellipse fill="#748b81" rx="1" ry="1" transform="matrix(4.28751944 -20.6770968 68.04733704 14.11002148 134.738188 147.461732)"/><ellipse fill="#042d25" rx="1" ry="1" transform="matrix(13.30601504 7.60104728 -29.66640504 51.932532 632.014864 565.876608)"/><ellipse fill="#a5a09d" rx="1" ry="1" transform="matrix(-2.39432312 -3.2042498 15.89822184 -11.87968556 186.382344 363.295332)"/><ellipse fill="#9fb3ab" rx="1" ry="1" transform="matrix(30.03869976 -41.12397912 21.92279268 16.01333824 255.36706 309.580944)"/><ellipse fill="#686d4c" rx="1" ry="1" transform="matrix(-27.94557992 16.2610158 -10.3985502 -17.87056352 273.774092 402.912592)"/><ellipse fill="#93ab9f" rx="1" ry="1" transform="matrix(-14.68577208 5.53546848 -22.52912036 -59.77046532 719.92616 226.230132)"/><ellipse fill="#aec5b9" rx="1" ry="1" transform="matrix(8.29422424 14.61573296 -71.28332672 40.452292 577.484016 342.423652)"/><ellipse fill="#b3c4ba" rx="1" ry="1" transform="matrix(-65.76126108 39.72986508 -14.07566736 -23.29818224 320.680652 328.244756)"/><ellipse fill="#697d71" rx="1" ry="1" transform="matrix(72.60882868 39.99732972 -11.47136064 20.82444164 100.767948 66.288828)"/><ellipse fill="#717840" rx="1" ry="1" transform="matrix(2.34630272 -3.23957768 40.0978402 29.04133864 463.984356 615.674548)"/><ellipse fill="#3e432f" rx="1" ry="1" transform="matrix(-24.09160008 -3.72078572 1.58149092 -10.23994636 106.305384 378.767896)"/><ellipse fill="#253825" rx="1" ry="1" transform="matrix(2.53197076 9.32506812 -21.7618082 5.90883216 378.480428 527.027068)"/><ellipse fill="#87b4b6" rx="1" ry="1" transform="matrix(-17.76123308 -4.5267134 5.70917368 -22.40079188 941.047372 265.760524)"/><ellipse fill="#82abb0" rx="1" ry="1" transform="matrix(17.96830528 -26.11357268 6.0919898 4.19179456 34.131528 369.750608)"/><ellipse fill="#3d5f47" rx="1" ry="1" transform="matrix(-4.08346392 6.75182052 -54.40021804 -32.90095264 579.390912 509.828264)"/><ellipse fill="#5da0ac" rx="1" ry="1" transform="matrix(34.73234516 16.87773096 -10.57942428 21.77118576 976.589644 316.178332)"/><ellipse fill="#89a07c" rx="1" ry="1" transform="matrix(2.170228 3.36007596 -48.89321796 31.57947364 623.962116 420.706156)"/><ellipse fill="#c0cec1" rx="1" ry="1" transform="matrix(34.80424 -21.890687 23.31609604 37.07051324 326.214352 351.495436)"/><ellipse fill="#323236" rx="1" ry="1" transform="matrix(15.84398416 -9.1572266 3.24343392 5.61184272 146.082532 335.303436)"/><ellipse fill="#8b934f" rx="1" ry="1" transform="matrix(-2.67478004 2.9741472 -49.00391436 -44.0713532 587.141772 613.953052)"/><ellipse fill="#7d8557" rx="1" ry="1" transform="matrix(56.0598516 63.00638604 -8.79861648 7.8285578 309.662152 427.961392)"/><ellipse fill="#445e37" rx="1" ry="1" transform="matrix(10.90689588 5.95896992 -8.64557768 15.8242812 630.887148 615.262124)"/><ellipse fill="#aebaa8" rx="1" ry="1" transform="matrix(-58.1517032 19.06654148 -5.7616618 -17.57269132 160.452108 278.869864)"/><ellipse fill="#051916" rx="1" ry="1" transform="matrix(16.66492336 -6.92099628 13.5998562 32.74681164 778.984448 632.554048)"/><ellipse fill="#849a90" rx="1" ry="1" transform="matrix(14.53422696 37.91338576 -19.98435948 7.661073 196.7486 204.920016)"/><ellipse fill="#597d37" rx="1" ry="1" transform="matrix(-49.00397636 16.632078 -3.07897516 -9.07174836 84.951312 421.390448)"/><ellipse fill="#aabfb7" rx="1" ry="1" transform="matrix(67.89307452 37.673904 -13.38838376 24.12753768 410.897676 348.942012)"/><ellipse fill="#44725a" rx="1" ry="1" transform="matrix(-.40531272 18.68910948 -67.98639384 -1.47442824 696.555024 419.58106)"/><ellipse fill="#81976e" rx="1" ry="1" transform="matrix(-2.37639528 -3.21756824 56.598795 -41.80210032 557.217868 471.02076)"/><ellipse fill="#104539" rx="1" ry="1" transform="matrix(-7.80275256 3.57180928 -3.0578452 -6.6799786 532.903192 505.929184)"/><ellipse fill="#495f62" rx="1" ry="1" transform="matrix(84.79654892 -4.64777956 2.08211816 37.98726536 276.23994 11.50066)"/><ellipse fill="#334a27" rx="1" ry="1" transform="matrix(-39.29050632 -24.05178492 5.3682556 -8.76947312 352.075276 523.715388)"/><ellipse fill="#4d6142" rx="1" ry="1" transform="matrix(2.80384948 -2.85279304 63.12612516 62.04311008 404.498168 472.873412)"/><ellipse fill="#67754a" rx="1" ry="1" transform="matrix(4.034901 39.06476744 -16.81185296 1.73645376 360.292656 441.477172)"/><ellipse fill="#24321e" rx="1" ry="1" transform="matrix(1.77237684 -5.28835896 25.80877624 8.64973004 478.169124 601.746264)"/><ellipse fill="#a2b198" rx="1" ry="1" transform="matrix(-25.50623436 22.43730948 -11.11677908 -12.63730724 666.149432 204.68708)"/><ellipse fill="#3a5626" rx="1" ry="1" transform="matrix(75.0764582 16.3739958 -.85235416 3.90813156 153.54414 447.722204)"/><ellipse fill="#869657" rx="1" ry="1" transform="matrix(-6.5579238 -17.2732732 4.715338 -1.79021236 476.631916 509.070588)"/><ellipse fill="#001b0d" rx="1" ry="1" transform="matrix(-5.58419376 -16.90471616 53.80758332 -17.77444644 864.51432 675.286368)"/><ellipse fill="#4a6164" rx="1" ry="1" transform="matrix(132.20412716 24.22448084 -4.32256532 23.59022592 704.181172 2)"/><ellipse fill="#223a0b" rx="1" ry="1" transform="matrix(-3.83965952 16.20000276 -96.3083166 -22.82660996 2 613.870416)"/><ellipse fill="#7a9666" rx="1" ry="1" transform="matrix(-3.08336908 2.54810424 -42.57585836 -51.51951112 409.18316 448.548584)"/><ellipse fill="#57885b" rx="1" ry="1" transform="matrix(-15.35849724 -25.53621264 12.9784168 -7.80573772 503.942892 455.059344)"/><ellipse fill="#8ea293" rx="1" ry="1" transform="matrix(146.31773916 15.86045136 -2.53506224 23.38676028 522.50954 194.870904)"/><ellipse fill="#517070" rx="1" ry="1" transform="matrix(-2.88918164 -28.45582764 73.86291392 -7.49946116 870.986108 49.422256)"/><ellipse fill="#2f302f" rx="1" ry="1" transform="matrix(-16.5124672 -.4094956 .1491938 -6.01607836 231.583116 370.364468)"/><ellipse fill="#bbd0c8" rx="1" ry="1" transform="matrix(3.53151724 -12.29541208 82.69776596 23.75264736 419.071492 398.908148)"/><ellipse fill="#6d979a" rx="1" ry="1" transform="matrix(-17.57484844 -3.64369496 17.94137796 -86.53770452 2 301.88416)"/><ellipse fill="#82976c" rx="1" ry="1" transform="matrix(-10.509992 -5.46899984 3.45801016 -6.64539404 545.880912 518.687124)"/><ellipse fill="#869358" rx="1" ry="1" transform="matrix(-11.15177676 -11.68964832 25.47968192 -24.30729448 316.764408 451.540524)"/><ellipse fill="#114843" rx="1" ry="1" transform="matrix(-23.82164584 53.87934428 -18.94335708 -8.3754164 1022 376.83062)"/><ellipse fill="#849881" rx="1" ry="1" transform="matrix(3.39102248 7.83471132 -56.2478178 24.3452002 43.910468 161.405768)"/><ellipse fill="#8fbab5" rx="1" ry="1" transform="matrix(-2.4590318 -25.56277408 10.07288192 -.96896904 858.524956 255.34108)"/><ellipse fill="#639254" rx="1" ry="1" transform="matrix(10.06416936 -5.49839808 16.31085464 29.85509612 615.461188 506.027824)"/><ellipse fill="#70865b" rx="1" ry="1" transform="matrix(8.95564652 -4.42313584 17.27796236 34.98317224 561.783608 538.269884)"/><ellipse fill="#a1b75d" rx="1" ry="1" transform="matrix(8.72465112 -9.71611012 25.03868632 22.48366892 194.163412 425.088756)"/><ellipse fill="#84a69f" rx="1" ry="1" transform="matrix(11.00966704 15.54947124 -27.41359464 19.4099558 597.226188 285.068092)"/><ellipse fill="#2d3027" rx="1" ry="1" transform="matrix(-1.10797044 17.42244116 -6.07600196 -.38639996 154.801096 319.30474)"/><ellipse fill="#1c3d24" rx="1" ry="1" transform="matrix(119.93265936 -28.51122136 .9251256 3.8915476 890.641512 643.554724)"/><ellipse fill="#729ca2" rx="1" ry="1" transform="matrix(16.00803904 16.55347304 -14.77711556 14.29021224 85.701344 330.121304)"/><ellipse fill="#97bfbc" rx="1" ry="1" transform="matrix(-.26154596 -8.57866592 97.30636664 -2.96667176 709.501152 369.647772)"/><ellipse fill="#98998d" rx="1" ry="1" transform="matrix(13.747927 4.28856968 -2.6006262 8.33686332 140.07064 394.747372)"/><ellipse fill="#606f3c" rx="1" ry="1" transform="matrix(-59.800129 -70.35313664 4.12447612 -3.50580252 143.53572 537.722412)"/><ellipse fill="#beccba" rx="1" ry="1" transform="matrix(24.7631074 -11.44202404 18.89801612 40.89954716 457.046672 325.43942)"/><ellipse fill="#576f76" rx="1" ry="1" transform="matrix(78.68059564 -44.8637748 18.76379304 32.90731596 8.1114 124.779992)"/><ellipse fill="#88a154" rx="1" ry="1" transform="matrix(-26.2018318 -5.657055 .84416132 -3.90990944 195.957184 469.154232)"/><ellipse fill="#576643" rx="1" ry="1" transform="matrix(-1.00699048 -10.01394044 90.87767036 -9.13855548 616.319048 678)"/><ellipse fill="#092f21" rx="1" ry="1" transform="matrix(12.66701796 -1.72773972 10.284045 75.398037 749.643564 618.990988)"/><ellipse fill="#97a15f" rx="1" ry="1" transform="matrix(-2.05996948 3.42877904 -32.15807292 -19.32018596 270.43562 492.370392)"/><ellipse fill="#245a4f" rx="1" ry="1" transform="matrix(10.48565732 -3.8542084 1.38000624 3.75440844 609.1092 415.169416)"/><ellipse fill="#436c44" rx="1" ry="1" transform="matrix(7.09218696 -6.01674544 24.5591118 28.94884192 765.67414 551.93868)"/><ellipse fill="#b6bca4" rx="1" ry="1" transform="matrix(13.59023676 -1.80059588 4.43326276 33.46064 424.462736 235.428356)"/><ellipse fill="#627d2d" rx="1" ry="1" transform="matrix(-72.56654308 -16.51745048 4.80387836 -21.10500316 347.4654 666.288048)"/><ellipse fill="#526a29" rx="1" ry="1" transform="matrix(34.3605876 5.71891784 -3.32102976 19.95351868 276.23696 547.641432)"/><ellipse fill="#9fb2a6" rx="1" ry="1" transform="matrix(18.70540484 33.87667948 -8.2405008 4.55008892 176.596112 308.720896)"/><ellipse fill="#2f4423" rx="1" ry="1" transform="matrix(-11.708651 -29.44736604 5.25948516 -2.09123888 197.421304 505.761008)"/><ellipse fill="#205747" rx="1" ry="1" transform="matrix(5.21236692 -9.17332284 26.36686016 14.98189392 941.231192 440.305812)"/><ellipse fill="#001b12" rx="1" ry="1" transform="matrix(3.50832136 -22.9499084 55.654268 8.50779248 1013.341956 569.007584)"/><ellipse fill="#3b3731" rx="1" ry="1" transform="matrix(7.95493624 -.6114898 1.29721364 16.87559152 206.37012 338.250304)"/><ellipse fill="#9bb3a5" rx="1" ry="1" transform="matrix(-7.5333776 7.0840496 -39.90898752 -42.44033996 784.746996 223.960944)"/><ellipse fill="#5b835b" rx="1" ry="1" transform="matrix(-9.68465208 -5.25705524 29.94893852 -55.17253204 662.223372 439.260264)"/><ellipse fill="#679190" rx="1" ry="1" transform="matrix(14.91237012 .62534044 -3.3548334 80.00204952 905.352488 165.553072)"/><ellipse fill="#223021" rx="1" ry="1" transform="matrix(3.31155744 2.24356576 -9.7904812 14.45098764 528.5684 559.917544)"/><ellipse fill="#7aa7ad" rx="1" ry="1" transform="matrix(15.7892196 -9.27270248 23.88825464 40.67604884 676.887632 323.519016)"/><ellipse fill="#384639" rx="1" ry="1" transform="matrix(-.24281072 -3.99262356 76.74410608 -4.66717984 48.52896 403.401616)"/><ellipse fill="#515f17" rx="1" ry="1" transform="matrix(-51.70485772 -30.578667 3.75956272 -6.35696956 88.6451 674.818368)"/><ellipse fill="#94b1aa" rx="1" ry="1" transform="matrix(.4895094 -10.670726 56.22468268 2.57925388 48.327444 353.303496)"/><ellipse fill="#45755d" rx="1" ry="1" transform="matrix(3.89858196 .89501888 -11.3582514 49.4750166 811.873872 415.01258)"/><ellipse fill="#234e46" rx="1" ry="1" transform="matrix(-18.24547424 5.5414316 -1.16243096 -3.82736912 415.438992 445.796056)"/><ellipse fill="#8fa28f" rx="1" ry="1" transform="matrix(38.4303552 -21.34539704 4.63847404 8.35113088 97.596584 191.698412)"/><ellipse fill="#517655" rx="1" ry="1" transform="matrix(16.7967298 .05858968 -.05159716 14.792086 617.069208 454.068852)"/><ellipse fill="#597526" rx="1" ry="1" transform="matrix(-22.17821252 24.79556772 -16.937137 -15.14929716 148.281116 642.529532)"/><ellipse fill="#536238" rx="1" ry="1" transform="matrix(-2.357102 3.23172868 -61.74233152 -45.03254652 294.496476 449.488648)"/><ellipse fill="#00292c" rx="1" ry="1" transform="matrix(92.49565156 -12.04860348 .87969076 6.75327816 959.310976 485.8541)"/><ellipse fill="#78844e" rx="1" ry="1" transform="matrix(60.50519664 36.381474 -4.03733436 6.71439832 341.956444 440.134364)"/><ellipse fill="#71a6ac" rx="1" ry="1" transform="matrix(9.46110496 -50.04904136 16.62464748 3.14266828 875.433668 295.072644)"/><ellipse fill="#2f4e1e" rx="1" ry="1" transform="matrix(-3.95894064 19.34937456 -54.5063492 -11.15216408 31.4042 493.670716)"/><ellipse fill="#7c8a4c" rx="1" ry="1" transform="matrix(40.6010074 29.27779644 -7.18789512 9.96781924 440.244392 549.932372)"/><ellipse fill="#001816" rx="1" ry="1" transform="matrix(-2.41062064 -3.19200692 35.54035404 -26.84026476 635.587908 586.120976)"/><ellipse fill="#495042" rx="1" ry="1" transform="matrix(1.05433064 3.85854724 -29.70300032 8.1162108 146.188676 374.575684)"/><ellipse fill="#0f211a" rx="1" ry="1" transform="matrix(25.28916696 22.42013664 -2.65354412 2.99310936 584.232572 590.765248)"/><ellipse fill="#002421" rx="1" ry="1" transform="matrix(3.83946712 -1.12182548 12.52604516 42.87060656 695.063636 582.087004)"/><ellipse fill="#a5c9be" rx="1" ry="1" transform="matrix(9.2894264 7.8062664 -28.07186068 33.4054042 816.559976 336.518944)"/><ellipse fill="#617b77" rx="1" ry="1" transform="matrix(6.66472668 9.48213632 -97.75362052 68.70826792 663.05672 83.168012)"/><ellipse fill="#738244" rx="1" ry="1" transform="matrix(-40.9977674 -18.04529932 3.27071132 -7.43084724 632.07038 645.398784)"/><ellipse fill="#32654e" rx="1" ry="1" transform="matrix(59.39885916 31.21443904 -1.86073916 3.5408544 864.061996 462.45792)"/><ellipse fill="#467c80" rx="1" ry="1" transform="matrix(-14.8771436 1.36249416 -8.37616508 -91.45977556 1022 174.72152)"/><ellipse fill="#6c9e9f" rx="1" ry="1" transform="matrix(8.5355546 -68.98809452 10.29841588 1.27417188 835.362292 231.18302)"/><ellipse fill="#688383" rx="1" ry="1" transform="matrix(-86.19068304 14.6522268 -4.23431536 -24.90805924 274.284008 144.133264)"/><ellipse fill="#4e6345" rx="1" ry="1" transform="matrix(-5.6055564 4.53323772 -12.31608656 -15.22940604 401.97882 478.000792)"/><ellipse fill="#c2bbb0" rx="1" ry="1" transform="matrix(2.60091796 3.0389514 -7.76049424 6.6418992 188.556004 362.240096)"/><ellipse fill="#93b083" rx="1" ry="1" transform="matrix(-6.1572354 2.50226504 -4.39803956 -10.82210088 410.38182 430.020156)"/><ellipse fill="#3a462e" rx="1" ry="1" transform="matrix(2.26362932 -3.2978754 10.66596888 7.32101644 327.741816 470.17786)"/><ellipse fill="#4e686a" rx="1" ry="1" transform="matrix(-122.0692748 -1.01179848 .1247172 -15.04661112 42.142268 8.194152)"/><ellipse fill="#263e46" rx="1" ry="1" transform="matrix(4.43059636 -6.79093108 10.88558604 7.10206556 480.226392 487.833084)"/><ellipse fill="#7fa175" rx="1" ry="1" transform="matrix(-2.632513 -3.01162336 25.8335698 -22.58157792 529.714788 461.723116)"/><ellipse fill="#7f9343" rx="1" ry="1" transform="matrix(17.38313476 -1.48037024 6.82161352 80.10227604 262.566148 653.117244)"/><ellipse fill="#8ea76f" rx="1" ry="1" transform="matrix(1.6861078 -11.61102168 34.386018 4.99340496 578.7162 472.893528)"/><ellipse fill="#5e8566" rx="1" ry="1" transform="matrix(-.80097272 -6.67636476 111.54312436 -13.3819828 732.419444 388.333456)"/><ellipse fill="#7e8f55" rx="1" ry="1" transform="matrix(.04527188 3.9997438 -67.61656884 .7653316 431.612864 505.150208)"/><ellipse fill="#566e70" rx="1" ry="1" transform="matrix(139.72141752 -26.94429692 4.58761404 23.78937316 257.263508 81.522344)"/><ellipse fill="#86aaa3" rx="1" ry="1" transform="matrix(-15.06820708 -83.86454804 3.93695744 -.70736552 930.127692 204.48954)"/><ellipse fill="#346655" rx="1" ry="1" transform="matrix(-122.81949576 1.04531544 -.05006056 -5.88187496 804.638112 396.996636)"/><ellipse fill="#495c33" rx="1" ry="1" transform="matrix(-.90701524 53.70046868 -5.99529288 -.10126208 356.676556 514.762388)"/><ellipse fill="#836f75" rx="1" ry="1" transform="matrix(-9.2912408 -4.2012706 7.102029 -15.7063584 9.655448 423.588372)"/><ellipse fill="#768b7b" rx="1" ry="1" transform="matrix(-6.33964348 -4.27231584 45.064332 -66.87047756 86.74894 135.19876)"/><ellipse fill="#87adb2" rx="1" ry="1" transform="matrix(18.08995564 -22.47059428 32.27528348 25.98322232 610.044224 365.269944)"/><ellipse fill="#17360a" rx="1" ry="1" transform="matrix(-97.68252056 -47.81801544 2.76843444 -5.6553508 2 615.282908)"/><ellipse fill="#53805a" rx="1" ry="1" transform="matrix(-48.78905356 17.44825336 -1.887698 -5.27840788 526.650244 441.645604)"/><ellipse fill="#91a680" rx="1" ry="1" transform="matrix(-13.4671068 2.63073524 -1.91427212 -9.79943048 572.711856 439.394104)"/><ellipse fill="#182725" rx="1" ry="1" transform="matrix(3.28913452 -2.27631148 5.46471824 7.8961924 396.641704 456.62264)"/><ellipse fill="#23373e" rx="1" ry="1" transform="matrix(4.41035252 -2.41795616 5.27625984 9.62389908 574.879916 510.800792)"/><ellipse fill="#8f9e46" rx="1" ry="1" transform="matrix(-96.85051904 -40.23186936 1.84316108 -4.4370572 322.27486 594.655808)"/><ellipse fill="#5b6d2d" rx="1" ry="1" transform="matrix(-123.67721628 35.21744396 -4.20432424 -14.76481712 95.19492 556.4502)"/><ellipse fill="#104342" rx="1" ry="1" transform="matrix(8.9335514 -10.28740244 7.66130888 6.65305912 694.510768 439.647628)"/><ellipse fill="#7a8a40" rx="1" ry="1" transform="matrix(-34.32495532 -20.70228936 7.16389272 -11.87792776 335.57058 564.512544)"/><ellipse fill="#6a7844" rx="1" ry="1" transform="matrix(-36.93412548 20.7541916 -1.9595204 -3.48715928 52.276064 390.493388)"/><ellipse fill="#9cae98" rx="1" ry="1" transform="matrix(-3.6174762 -4.48096768 85.21979944 -68.7977728 57.699016 252.40924)"/><ellipse fill="#285339" rx="1" ry="1" transform="matrix(-80.87014888 -41.92609828 6.97876688 -13.46116 785.183144 531.170976)"/><ellipse fill="#b3b9a5" rx="1" ry="1" transform="matrix(-65.202476 -51.97001256 4.55191312 -5.71090888 179.9111 250.241748)"/><ellipse fill="#6d7256" rx="1" ry="1" transform="matrix(-26.25366348 1.890695 -.54343316 -7.54596124 555.160692 681.731388)"/><ellipse fill="#94ada0" rx="1" ry="1" transform="matrix(-7.0808186 30.2648178 -25.20785068 -5.89768024 387.9498 264.02584)"/><ellipse fill="#3d6d4e" rx="1" ry="1" transform="matrix(-.17395464 3.99621568 -103.0489112 -4.48570332 728.993224 495.011456)"/><ellipse fill="#2a4120" rx="1" ry="1" transform="matrix(-1.36757588 3.75895412 -19.04938344 -6.93051216 569.940868 661.034224)"/><ellipse fill="#59614d" rx="1" ry="1" transform="matrix(3.02527252 -2.61681604 22.0245446 25.46233636 304.74466 400.015556)"/><ellipse fill="#a5b6a4" rx="1" ry="1" transform="matrix(2.07964372 -8.07432088 107.12458028 27.59129388 497.046288 250.192652)"/><ellipse fill="#0d2116" rx="1" ry="1" transform="matrix(8.08074812 -8.27791812 3.70027996 3.6121438 43.0096 384.299104)"/><ellipse fill="#434536" rx="1" ry="1" transform="matrix(2.04810788 -3.43587748 9.37319744 5.58731208 303.257628 520.6183)"/><ellipse fill="#999d6c" rx="1" ry="1" transform="matrix(2.78655232 -4.2709586 35.14123136 22.92761156 322.350808 452.364824)"/><ellipse fill="#48656a" rx="1" ry="1" transform="matrix(12.89006176 -3.49206728 33.35980728 123.13908656 792.152856 7.00206)"/><ellipse fill="#648b85" rx="1" ry="1" transform="matrix(-120.77052396 -17.70921504 2.14529944 -14.63017628 970.881484 134.587276)"/><ellipse fill="#748d8c" rx="1" ry="1" transform="matrix(-10.7202358 -12.97718428 30.59979756 -25.27798312 741.373712 164.811484)"/><ellipse fill="#92b6b3" rx="1" ry="1" transform="matrix(-7.8459444 19.22198896 -11.481732 -4.68656136 271.120904 350.300396)"/><ellipse fill="#184e45" rx="1" ry="1" transform="matrix(15.76819048 -45.90991844 18.84056564 6.47096832 773.404288 451.339912)"/></g></svg>