<svg xmlns="http://www.w3.org/2000/svg" version="1.1" width="1024" height="680">
<rect x="0" y="0" width="1024" height="680" fill="#855d41" />
<g transform="scale(4.000000) translate(0.5 0.5)">
<g transform="translate(123.471764 1.650637) rotate(180.239863) scale(199.723365 45.221810)"><ellipse fill="#ffff42" fill-opacity="0.501961" cx="0" cy="0" rx="1" ry="1" /></g>
<g transform="translate(123.496737 138.166693) rotate(169.748209) scale(255.000000 65.466458)"><ellipse fill="#1e1939" fill-opacity="0.501961" cx="0" cy="0" rx="1" ry="1" /></g>
<g transform="translate(163.248418 10.223794) rotate(267.732685) scale(28.419289 218.481131)"><ellipse fill="#ffc336" fill-opacity="0.501961" cx="0" cy="0" rx="1" ry="1" /></g>
<ellipse fill="#e46e83" fill-opacity="0.501961" cx="145" cy="40" rx="195" ry="10" />
<g transform="translate(114.947558 0.000000) rotate(175.227755) scale(48.058092 37.848131)"><ellipse fill="#fffd00" fill-opacity="0.501961" cx="0" cy="0" rx="1" ry="1" /></g>
<g transform="translate(166.519193 76.811151) rotate(84.149454) scale(33.356137 165.957176)"><ellipse fill="#794f56" fill-opacity="0.501961" cx="0" cy="0" rx="1" ry="1" /></g>
<ellipse fill="#15161d" fill-opacity="0.501961" cx="238" cy="158" rx="57" ry="24" />
<g transform="translate(119.136881 49.559940) rotate(83.496594) scale(12.331836 36.963775)"><ellipse fill="#f86257" fill-opacity="0.501961" cx="0" cy="0" rx="1" ry="1" /></g>
<g transform="translate(117.091403 166.881204) rotate(111.170577) scale(70.482410 11.603703)"><ellipse fill="#201008" fill-opacity="0.501961" cx="0" cy="0" rx="1" ry="1" /></g>
<g transform="translate(222.837069 9.652680) rotate(81.825784) scale(27.164416 65.281069)"><ellipse fill="#ffb058" fill-opacity="0.501961" cx="0" cy="0" rx="1" ry="1" /></g>
<g transform="translate(10.192576 14.759363) rotate(12.458061) scale(79.860766 18.416831)"><ellipse fill="#ff9851" fill-opacity="0.501961" cx="0" cy="0" rx="1" ry="1" /></g>
<g transform="translate(114 30) rotate(1) scale(16 11)"><rect fill="#fffffe" fill-opacity="0.501961" x="-0.5" y="-0.5" width="1" height="1" /></g>
<g transform="translate(12.407408 122.005230) rotate(237.484556) scale(158.332005 38.712008)"><ellipse fill="#3e2d31" fill-opacity="0.501961" cx="0" cy="0" rx="1" ry="1" /></g>
<g transform="translate(121.796237 6.846613) rotate(86.418284) scale(22.672288 62.441461)"><ellipse fill="#ffd803" fill-opacity="0.501961" cx="0" cy="0" rx="1" ry="1" /></g>
<polygon fill="#0c0700" fill-opacity="0.501961" points="234.946009,110.423795,219.107416,81.771525,271.000000,134.526220,249.957401,127.702034" />
<g transform="translate(36.834809 61.554059) rotate(101.441435) scale(18.520884 87.665168)"><ellipse fill="#7f525b" fill-opacity="0.501961" cx="0" cy="0" rx="1" ry="1" /></g>
<ellipse fill="#9d868c" fill-opacity="0.501961" cx="177" cy="96" rx="32" ry="4" />
<g transform="translate(75.598777 99.409177) rotate(242.334561) scale(4.463007 26.030252)"><ellipse fill="#362012" fill-opacity="0.501961" cx="0" cy="0" rx="1" ry="1" /></g>
<polygon fill="#221009" fill-opacity="0.501961" points="44,112 -3,151 22,151" />
<g transform="translate(226.964029 28.112242) rotate(88.607856) scale(8.221635 90.586262)"><ellipse fill="#ff995e" fill-opacity="0.501961" cx="0" cy="0" rx="1" ry="1" /></g>
<rect fill="#62362c" fill-opacity="0.501961" x="128" y="58" width="64" height="33" />
<rect fill="#624b4f" fill-opacity="0.501961" x="129" y="135" width="101" height="15" />
<polygon fill="#0b0400" fill-opacity="0.501961" points="198.507679,151.363519,256.401216,183.898326,184.204669,158.666321,205.126003,133.132705" />
<rect fill="#977878" fill-opacity="0.501961" x="148" y="37" width="108" height="13" />
<g transform="translate(124.850361 169.000000) rotate(153.857555) scale(25.948877 23.765258)"><ellipse fill="#241717" fill-opacity="0.501961" cx="0" cy="0" rx="1" ry="1" /></g>
<g transform="translate(84.710012 115.309076) rotate(175.517368) scale(31.802630 14.012220)"><ellipse fill="#624b59" fill-opacity="0.501961" cx="0" cy="0" rx="1" ry="1" /></g>
<g transform="translate(232 158) rotate(18) scale(23 7)"><rect fill="#686078" fill-opacity="0.501961" x="-0.5" y="-0.5" width="1" height="1" /></g>
<rect fill="#ffffba" fill-opacity="0.501961" x="18" y="131" width="4" height="3" />
<polygon fill="#836061" fill-opacity="0.501961" points="186.713455,38.421175,156.489212,83.046138,174.821151,131.447665,136.971754,90.484120" />
<polygon fill="#201207" fill-opacity="0.501961" points="136.563527,138.117628,96.041194,131.157769,124.424092,123.595015,111.193696,165.617608" />
<g transform="translate(20.205488 15.321225) rotate(274.650553) scale(20.273324 57.481638)"><ellipse fill="#ffa848" fill-opacity="0.501961" cx="0" cy="0" rx="1" ry="1" /></g>
<g transform="translate(20.175681 73.828531) rotate(129.271169) scale(23.437604 47.653063)"><ellipse fill="#6d4d4f" fill-opacity="0.501961" cx="0" cy="0" rx="1" ry="1" /></g>
<rect fill="#ffffc5" fill-opacity="0.501961" x="108" y="20" width="11" height="15" />
<polygon fill="#ff7050" fill-opacity="0.501961" points="66,38 163,34 115,53" />
<ellipse fill="#ffbf43" fill-opacity="0.501961" cx="206" cy="5" rx="51" ry="21" />
<g transform="translate(128.691603 18.575806) rotate(328.185077) scale(16.442213 18.128054)"><ellipse fill="#ffe000" fill-opacity="0.501961" cx="0" cy="0" rx="1" ry="1" /></g>
<rect fill="#6d5257" fill-opacity="0.501961" x="131" y="134" width="27" height="20" />
<polygon fill="#65545f" fill-opacity="0.501961" points="215.063262,144.033647,186.119466,144.397982,200.918812,129.001907,205.692776,164.041953" />
<g transform="translate(214 87) rotate(187) scale(20 6)"><rect fill="#1d1508" fill-opacity="0.501961" x="-0.5" y="-0.5" width="1" height="1" /></g>
<g transform="translate(19 127) rotate(266) scale(19 3)"><rect fill="#d98053" fill-opacity="0.501961" x="-0.5" y="-0.5" width="1" height="1" /></g>
<rect fill="#991e1f" fill-opacity="0.501961" x="158" y="24" width="3" height="18" />
<polygon fill="#ffdf39" fill-opacity="0.501961" points="67.663613,5.774978,53.369108,13.736679,-5.579243,-2.553556,215.643445,1.114251" />
<ellipse fill="#574a51" fill-opacity="0.501961" cx="255" cy="73" rx="31" ry="31" />
<polygon fill="#5c4a4d" fill-opacity="0.501961" points="73.793757,162.748183,135.394944,134.491393,79.598193,137.682342,54.030594,153.234855" />
<ellipse fill="#1b1005" fill-opacity="0.501961" cx="46" cy="143" rx="25" ry="3" />
<g transform="translate(95.472146 19.604830) rotate(256.851808) scale(16.675086 15.355984)"><ellipse fill="#ffda00" fill-opacity="0.501961" cx="0" cy="0" rx="1" ry="1" /></g>
<rect fill="#604e55" fill-opacity="0.501961" x="146" y="98" width="72" height="23" />
<polygon fill="#a15c5a" fill-opacity="0.501961" points="34.961202,39.998895,107.721737,83.951030,130.056944,66.093224,88.454918,45.094048" />
<polygon fill="#3a2824" fill-opacity="0.501961" points="185,98 164,125 190,125" />
<polygon fill="#664e56" fill-opacity="0.501961" points="-16,80 6,135 15,76" />
<g transform="translate(46.507378 114.720157) rotate(147.433750) scale(26.846127 3.115323)"><ellipse fill="#29190b" fill-opacity="0.501961" cx="0" cy="0" rx="1" ry="1" /></g>
<polygon fill="#231c1c" fill-opacity="0.501961" points="16.823846,144.594538,-16.000000,177.880888,97.671281,185.000000,15.780150,163.538276" />
<g transform="translate(15 25) rotate(179) scale(68 24)"><rect fill="#ff9556" fill-opacity="0.501961" x="-0.5" y="-0.5" width="1" height="1" /></g>
<rect fill="#482213" fill-opacity="0.501961" x="14" y="88" width="10" height="40" />
<rect fill="#1d0c04" fill-opacity="0.501961" x="104" y="127" width="56" height="4" />
<polygon fill="#0c0200" fill-opacity="0.501961" points="157,155 169,161 160,147" />
<ellipse fill="#dc9f8c" fill-opacity="0.501961" cx="221" cy="37" rx="39" ry="3" />
<g transform="translate(77.070187 79.003851) rotate(225.619362) scale(11.806372 24.670451)"><ellipse fill="#815a5b" fill-opacity="0.501961" cx="0" cy="0" rx="1" ry="1" /></g>
<polygon fill="#140e08" fill-opacity="0.501961" points="246,142 261,110 250,110" />
<polygon fill="#140c09" fill-opacity="0.501961" points="264,156 236,146 232,130" />
<rect fill="#130a09" fill-opacity="0.501961" x="175" y="158" width="45" height="7" />
<rect fill="#855b5f" fill-opacity="0.501961" x="137" y="49" width="110" height="11" />
<polygon fill="#715559" fill-opacity="0.501961" points="100.258350,96.641255,124.945107,126.945045,136.002018,106.843995,127.987587,108.238941" />
<polygon fill="#72575b" fill-opacity="0.501961" points="147.089880,117.863351,201.034857,96.288910,150.084606,100.409677,117.373602,185.000000" />
<ellipse fill="#ffffff" fill-opacity="0.501961" cx="114" cy="32" rx="5" ry="5" />
<polygon fill="#ffb11a" fill-opacity="0.501961" points="163.186517,8.853777,151.725014,6.844146,127.485289,38.207130,192.749382,14.574718" />
<rect fill="#442d28" fill-opacity="0.501961" x="172" y="59" width="12" height="29" />
<polygon fill="#614b57" fill-opacity="0.501961" points="67,105 62,126 27,133" />
<rect fill="#aa634c" fill-opacity="0.501961" x="17" y="91" width="2" height="44" />
<ellipse fill="#3d2821" fill-opacity="0.501961" cx="243" cy="66" rx="25" ry="3" />
<polygon fill="#ffb518" fill-opacity="0.501961" points="62.157670,23.225911,47.207046,5.467467,78.532448,5.167562,97.951057,39.394242" />
<polygon fill="#512c23" fill-opacity="0.501961" points="114.170302,100.724558,142.013856,101.093368,120.811691,82.093709,150.864016,73.627361" />
<polygon fill="#8a6d65" fill-opacity="0.501961" points="92,135 95,162 87,150" />
<g transform="translate(249.757251 156.063039) rotate(94.131476) scale(3.393100 28.713708)"><ellipse fill="#4b4860" fill-opacity="0.501961" cx="0" cy="0" rx="1" ry="1" /></g>
<ellipse fill="#8c7e9b" fill-opacity="0.501961" cx="192" cy="108" rx="4" ry="4" />
<polygon fill="#7b7384" fill-opacity="0.501961" points="165,154 178,152 167,146" />
<polygon fill="#201f24" fill-opacity="0.501961" points="43.744115,178.301095,13.096912,185.000000,89.951988,161.842350,56.658656,161.316801" />
<polygon fill="#5a5267" fill-opacity="0.501961" points="10,160 36,147 28,159" />
<ellipse fill="#93828f" fill-opacity="0.501961" cx="46" cy="149" rx="3" ry="3" />
<rect fill="#735a5e" fill-opacity="0.501961" x="206" y="67" width="30" height="12" />
<g transform="translate(211 136) rotate(262) scale(6 17)"><rect fill="#251315" fill-opacity="0.501961" x="-0.5" y="-0.5" width="1" height="1" /></g>
<polygon fill="#29140e" fill-opacity="0.501961" points="23.073531,114.579190,38.110759,130.158551,10.704402,122.870234,10.148107,144.877039" />
<polygon fill="#af5f58" fill-opacity="0.501961" points="107.165545,60.229862,126.235649,65.208302,171.259299,46.373749,153.361137,38.922893" />
<rect fill="#fdf54c" fill-opacity="0.501961" x="101" y="20" width="21" height="10" />
<polygon fill="#1f0f06" fill-opacity="0.501961" points="140.662531,128.434857,110.683024,154.138788,121.902383,170.198536,131.478203,140.868637" />
<g transform="translate(140 111) rotate(196) scale(10 26)"><rect fill="#351f12" fill-opacity="0.501961" x="-0.5" y="-0.5" width="1" height="1" /></g>
<ellipse fill="#ffad59" fill-opacity="0.501961" cx="245" cy="14" rx="28" ry="21" />
<rect fill="#411e12" fill-opacity="0.501961" x="88" y="84" width="22" height="3" />
<polygon fill="#44373e" fill-opacity="0.501961" points="209.670856,164.249586,209.140066,180.395504,174.067329,150.855845,136.043718,182.561958" />
<polygon fill="#795555" fill-opacity="0.501961" points="92.646131,145.743935,121.346693,80.810148,98.679318,89.347288,103.026422,104.294516" />
<rect fill="#171010" fill-opacity="0.501961" x="33" y="150" width="11" height="9" />
<polygon fill="#020100" fill-opacity="0.501961" points="247.378478,159.687127,271.000000,176.993173,215.166502,165.013509,261.912224,185.000000" />
<polygon fill="#6b4443" fill-opacity="0.501961" points="61.922642,64.500716,100.274292,64.173888,66.096234,72.730814,39.214593,122.705515" />
<polygon fill="#997072" fill-opacity="0.501961" points="156,80 165,63 146,82" />
<polygon fill="#6b5863" fill-opacity="0.501961" points="105,162 110,169 112,162" />
<g transform="translate(52.807450 39.443768) rotate(273.545791) scale(2.707225 30.959387)"><ellipse fill="#de8784" fill-opacity="0.501961" cx="0" cy="0" rx="1" ry="1" /></g>
<rect fill="#090002" fill-opacity="0.501961" x="135" y="168" width="28" height="2" />
<polygon fill="#130b0b" fill-opacity="0.501961" points="222.235273,148.539056,238.303038,144.345922,204.787828,162.811474,205.619755,161.867055" />
<g transform="translate(10 97) rotate(134) scale(21 5)"><rect fill="#412624" fill-opacity="0.501961" x="-0.5" y="-0.5" width="1" height="1" /></g>
<polygon fill="#773631" fill-opacity="0.501961" points="158.114558,42.231749,152.328709,78.238614,120.545672,59.296815,166.733175,67.345924" />
<g transform="translate(35 166) rotate(103) scale(8 1)"><rect fill="#000000" fill-opacity="0.501961" x="-0.5" y="-0.5" width="1" height="1" /></g>
<polygon fill="#4f424b" fill-opacity="0.501961" points="265.251275,135.315767,187.451198,132.595484,229.194302,101.694633,251.168982,144.201981" />
<polygon fill="#ffea00" fill-opacity="0.501961" points="96.268587,25.161116,150.919301,5.233309,85.141182,5.132414,108.390189,30.144422" />
<polygon fill="#ffcd00" fill-opacity="0.501961" points="163.798765,5.770493,146.099779,2.412068,116.083551,41.122259,148.371877,23.230372" />
<g transform="translate(255 106) rotate(296) scale(7 18)"><rect fill="#6a5d72" fill-opacity="0.501961" x="-0.5" y="-0.5" width="1" height="1" /></g>
<g transform="translate(20 130) rotate(40) scale(5 3)"><rect fill="#ffd194" fill-opacity="0.501961" x="-0.5" y="-0.5" width="1" height="1" /></g>
<ellipse fill="#110700" fill-opacity="0.501961" cx="193" cy="156" rx="9" ry="9" />
<rect fill="#937075" fill-opacity="0.501961" x="69" y="73" width="29" height="6" />
<polygon fill="#050100" fill-opacity="0.501961" points="226.214193,164.875501,223.244678,185.000000,216.990700,145.545104,212.874751,158.801798" />
<polygon fill="#5c4850" fill-opacity="0.501961" points="211.674468,155.422280,144.715087,116.576533,196.860063,131.551414,204.217601,159.322464" />
<polygon fill="#ff9c58" fill-opacity="0.501961" points="134.529506,39.498606,129.531082,37.000676,271.000000,30.762823,136.579744,26.965789" />
<polygon fill="#261c22" fill-opacity="0.501961" points="271.000000,152.438195,269.837774,172.005097,229.932246,136.477304,230.735970,126.868160" />
<g transform="translate(159.230340 48.508974) rotate(269.743383) scale(28.978700 1.000000)"><ellipse fill="#974d41" fill-opacity="0.501961" cx="0" cy="0" rx="1" ry="1" /></g>
<polygon fill="#3d2824" fill-opacity="0.501961" points="193.060742,87.841165,199.346278,93.046034,181.733305,58.283860,179.138574,51.537640" />
<polygon fill="#4b342b" fill-opacity="0.501961" points="195.701565,58.341952,193.391436,60.093479,196.904278,69.395266,215.957554,94.265766" />
<polygon fill="#957f85" fill-opacity="0.501961" points="197,93 172,90 191,100" />
<g transform="translate(133 162) rotate(308) scale(33 10)"><rect fill="#402e2f" fill-opacity="0.501961" x="-0.5" y="-0.5" width="1" height="1" /></g>
<g transform="translate(150 81) rotate(19) scale(7 1)"><rect fill="#bdbde6" fill-opacity="0.501961" x="-0.5" y="-0.5" width="1" height="1" /></g>
<polygon fill="#a29198" fill-opacity="0.501961" points="30,99 24,94 30,96" />
<rect fill="#5e535e" fill-opacity="0.501961" x="145" y="163" width="29" height="4" />
<polygon fill="#442b2d" fill-opacity="0.501961" points="88,114 60,109 79,107" />
<rect fill="#ff975d" fill-opacity="0.501961" x="0" y="30" width="91" height="7" />
<g transform="translate(25.510380 139.899287) rotate(171.300416) scale(28.927428 5.754207)"><ellipse fill="#3f2b2b" fill-opacity="0.501961" cx="0" cy="0" rx="1" ry="1" /></g>
<g transform="translate(30.158812 6.408268) rotate(24.392309) scale(43.363842 11.097783)"><ellipse fill="#ffb344" fill-opacity="0.501961" cx="0" cy="0" rx="1" ry="1" /></g>
<polygon fill="#ffdcae" fill-opacity="0.501961" points="255,131 261,122 269,144" />
<g transform="translate(176.413564 114.592931) rotate(91.255624) scale(2.744661 3.961783)"><ellipse fill="#1c0e09" fill-opacity="0.501961" cx="0" cy="0" rx="1" ry="1" /></g>
<g transform="translate(206.423437 153.367283) rotate(0.291960) scale(2.542986 3.944978)"><ellipse fill="#776b7b" fill-opacity="0.501961" cx="0" cy="0" rx="1" ry="1" /></g>
<polygon fill="#62352d" fill-opacity="0.501961" points="99.749081,97.345936,141.270703,68.409442,148.783641,55.126300,148.055268,86.465222" />
<polygon fill="#7f605f" fill-opacity="0.501961" points="187.006677,99.375807,223.365805,91.993638,231.728677,114.042208,221.598916,97.673251" />
<polygon fill="#5d4f51" fill-opacity="0.501961" points="59.149419,148.470397,34.903110,171.631323,36.852953,176.217184,59.623427,152.441578" />
<rect fill="#a28285" fill-opacity="0.501961" x="37" y="64" width="7" height="6" />
<ellipse fill="#9e7266" fill-opacity="0.501961" cx="5" cy="45" rx="73" ry="3" />
<polygon fill="#cd685e" fill-opacity="0.501961" points="127.437352,62.249653,90.012161,51.524076,64.362865,45.032877,88.052825,43.144832" />
<g transform="translate(220.268224 54.957061) rotate(75.689629) scale(6.568810 27.245839)"><ellipse fill="#735b5b" fill-opacity="0.501961" cx="0" cy="0" rx="1" ry="1" /></g>
<polygon fill="#4c3e41" fill-opacity="0.501961" points="44.022746,185.000000,6.020243,185.000000,35.507214,158.236051,-1.703339,155.355251" />
<g transform="translate(122 73) rotate(139) scale(21 12)"><rect fill="#8a4a44" fill-opacity="0.501961" x="-0.5" y="-0.5" width="1" height="1" /></g>
<polygon fill="#6f5153" fill-opacity="0.501961" points="91,77 36,118 62,77" />
<polygon fill="#ffca0a" fill-opacity="0.501961" points="71.500172,19.419823,111.706094,37.051748,118.762278,36.040356,111.288082,41.430058" />
<ellipse fill="#7d5351" fill-opacity="0.501961" cx="124" cy="93" rx="28" ry="3" />
<polygon fill="#0c0600" fill-opacity="0.501961" points="59.038389,145.844698,68.580530,143.179369,71.700175,139.435680,43.216596,144.462943" />
<rect fill="#130908" fill-opacity="0.501961" x="14" y="101" width="2" height="37" />
<ellipse fill="#b2897d" fill-opacity="0.501961" cx="217" cy="40" rx="35" ry="2" />
<ellipse fill="#fff636" fill-opacity="0.501961" cx="113" cy="0" rx="19" ry="6" />
<g transform="translate(173 52) rotate(299) scale(30 4)"><rect fill="#946160" fill-opacity="0.501961" x="-0.5" y="-0.5" width="1" height="1" /></g>
<polygon fill="#75606a" fill-opacity="0.501961" points="217,128 223,139 222,122" />
<g transform="translate(135 142) rotate(100) scale(6 7)"><rect fill="#877280" fill-opacity="0.501961" x="-0.5" y="-0.5" width="1" height="1" /></g>
<rect fill="#2a1c1e" fill-opacity="0.501961" x="100" y="149" width="6" height="19" />
<g transform="translate(135.733945 47.325486) rotate(336.266577) scale(23.301232 4.862051)"><ellipse fill="#d57166" fill-opacity="0.501961" cx="0" cy="0" rx="1" ry="1" /></g>
<polygon fill="#442c31" fill-opacity="0.501961" points="135.569521,95.883825,115.494867,94.988644,115.312734,112.187100,123.639038,100.382476" />
<polygon fill="#463336" fill-opacity="0.501961" points="85.593077,122.620729,14.225371,146.140993,65.999566,140.340251,55.523940,117.531126" />
<g transform="translate(110 43) rotate(281) scale(9 32)"><rect fill="#ff6b4a" fill-opacity="0.501961" x="-0.5" y="-0.5" width="1" height="1" /></g>
<polygon fill="#fb9c6b" fill-opacity="0.501961" points="199.914761,35.882696,132.154673,39.643713,270.716206,22.265413,257.129028,34.997284" />
<polygon fill="#53383b" fill-opacity="0.501961" points="175.791182,154.067602,166.817926,129.796670,118.660164,133.825646,187.581402,148.560768" />
<polygon fill="#5f3c3c" fill-opacity="0.501961" points="17.095025,77.230084,62.936896,92.690989,34.243687,98.027495,14.554719,91.774206" />
<g transform="translate(185.168958 13.618521) rotate(-20.834403) scale(24.930289 9.367408)"><ellipse fill="#ffbe3a" fill-opacity="0.501961" cx="0" cy="0" rx="1" ry="1" /></g>
<rect fill="#865953" fill-opacity="0.501961" x="0" y="39" width="37" height="6" />
<polygon fill="#31211d" fill-opacity="0.501961" points="230,118 222,114 219,99" />
<rect fill="#776063" fill-opacity="0.501961" x="35" y="147" width="36" height="2" />
<rect fill="#715c65" fill-opacity="0.501961" x="156" y="109" width="29" height="3" />
<polygon fill="#fed100" fill-opacity="0.501961" points="87.408018,1.553641,63.124291,10.428110,108.462533,14.045935,79.799008,27.714608" />
<polygon fill="#634c59" fill-opacity="0.501961" points="75,116 97,132 131,110" />
<rect fill="#7e6868" fill-opacity="0.501961" x="184" y="76" width="5" height="9" />
<rect fill="#61505d" fill-opacity="0.501961" x="242" y="145" width="10" height="2" />
<polygon fill="#614d58" fill-opacity="0.501961" points="174,122 219,113 195,109" />
<polygon fill="#4c3836" fill-opacity="0.501961" points="72.682467,145.430733,65.031758,151.982033,71.036161,157.294586,95.948352,154.855174" />
<rect fill="#7e6f90" fill-opacity="0.501961" x="109" y="143" width="3" height="7" />
<polygon fill="#54342f" fill-opacity="0.501961" points="192.402384,59.324041,201.682237,57.244000,156.675785,90.048539,171.084996,67.278491" />
<polygon fill="#ffffe7" fill-opacity="0.501961" points="108.204504,36.501360,104.385923,33.464256,111.786948,32.320619,124.686354,32.027243" />
<rect fill="#7f6377" fill-opacity="0.501961" x="68" y="102" width="10" height="3" />
<polygon fill="#1f120d" fill-opacity="0.501961" points="25.655296,147.496667,22.935070,136.709288,47.956303,115.465980,26.083143,121.907196" />
<g transform="translate(247 150) rotate(96) scale(4 27)"><rect fill="#0d0700" fill-opacity="0.501961" x="-0.5" y="-0.5" width="1" height="1" /></g>
<ellipse fill="#d89381" fill-opacity="0.501961" cx="0" cy="37" rx="31" ry="2" />
<polygon fill="#99726d" fill-opacity="0.501961" points="72,83 89,85 79,88" />
<rect fill="#8e767a" fill-opacity="0.501961" x="122" y="107" width="8" height="6" />
<polygon fill="#7d6162" fill-opacity="0.501961" points="202,77 191,64 198,84" />
<polygon fill="#7f423d" fill-opacity="0.501961" points="144.619156,55.734684,161.715662,65.782556,159.597183,23.613679,155.922880,82.894311" />
<ellipse fill="#9b6361" fill-opacity="0.501961" cx="68" cy="56" rx="28" ry="4" />
<rect fill="#90767e" fill-opacity="0.501961" x="44" y="123" width="11" height="2" />
<g transform="translate(60 113) rotate(-3) scale(7 5)"><rect fill="#90757a" fill-opacity="0.501961" x="-0.5" y="-0.5" width="1" height="1" /></g>
<polygon fill="#4c3028" fill-opacity="0.501961" points="101,102 103,93 92,94" />
<g transform="translate(140.981532 165.218992) rotate(214.698523) scale(3.431600 15.101614)"><ellipse fill="#261819" fill-opacity="0.501961" cx="0" cy="0" rx="1" ry="1" /></g>
<ellipse fill="#130a0f" fill-opacity="0.501961" cx="14" cy="149" rx="17" ry="2" />
<g transform="translate(20 131) rotate(267) scale(7 4)"><rect fill="#e6a07a" fill-opacity="0.501961" x="-0.5" y="-0.5" width="1" height="1" /></g>
<rect fill="#1d0d10" fill-opacity="0.501961" x="223" y="131" width="4" height="10" />
<polygon fill="#2c1814" fill-opacity="0.501961" points="127.148170,122.535925,154.209727,131.893551,98.922627,133.869145,137.908118,119.538389" />
<polygon fill="#78656a" fill-opacity="0.501961" points="193,146 195,136 185,136" />
<rect fill="#5a4d59" fill-opacity="0.501961" x="225" y="139" width="9" height="6" />
<rect fill="#040000" fill-opacity="0.501961" x="25" y="167" width="11" height="3" />
<rect fill="#6f606a" fill-opacity="0.501961" x="228" y="117" width="13" height="3" />
<ellipse fill="#301811" fill-opacity="0.501961" cx="186" cy="124" rx="10" ry="3" />
<polygon fill="#835c56" fill-opacity="0.501961" points="170,160 176,163 167,170" />
<ellipse fill="#7a6564" fill-opacity="0.501961" cx="6" cy="130" rx="4" ry="4" />
<g transform="translate(217.320911 162.229802) rotate(76.680649) scale(1.000000 39.039683)"><ellipse fill="#453944" fill-opacity="0.501961" cx="0" cy="0" rx="1" ry="1" /></g>
<g transform="translate(162 155) rotate(353) scale(8 9)"><rect fill="#180c06" fill-opacity="0.501961" x="-0.5" y="-0.5" width="1" height="1" /></g>
<g transform="translate(199 161) rotate(123) scale(10 9)"><rect fill="#070100" fill-opacity="0.501961" x="-0.5" y="-0.5" width="1" height="1" /></g>
<polygon fill="#7d5f5b" fill-opacity="0.501961" points="150,133 148,144 160,145" />
<rect fill="#291916" fill-opacity="0.501961" x="171" y="167" width="14" height="3" />
<g transform="translate(8 112) rotate(118) scale(21 3)"><rect fill="#71585f" fill-opacity="0.501961" x="-0.5" y="-0.5" width="1" height="1" /></g>
<polygon fill="#806563" fill-opacity="0.501961" points="221.036730,90.628282,228.679638,102.408652,224.228572,107.985884,233.055189,107.904185" />
<polygon fill="#7f615f" fill-opacity="0.501961" points="152,100 141,118 150,117" />
<polygon fill="#342521" fill-opacity="0.501961" points="201,85 224,88 224,81" />
<g transform="translate(217 69) rotate(191) scale(12 3)"><rect fill="#8c757a" fill-opacity="0.501961" x="-0.5" y="-0.5" width="1" height="1" /></g>
<g transform="translate(37 107) rotate(84) scale(8 23)"><rect fill="#6a5053" fill-opacity="0.501961" x="-0.5" y="-0.5" width="1" height="1" /></g>
<polygon fill="#1d0e09" fill-opacity="0.501961" points="107.728366,159.496476,130.198093,168.647421,123.106888,141.376561,135.551125,138.843754" />
<polygon fill="#443337" fill-opacity="0.501961" points="46,157 34,140 40,119" />
<rect fill="#775758" fill-opacity="0.501961" x="25" y="67" width="30" height="19" />
<rect fill="#322223" fill-opacity="0.501961" x="194" y="141" width="12" height="5" />
<polygon fill="#45373e" fill-opacity="0.501961" points="183.430867,129.919547,165.204824,171.358181,157.046449,168.399609,185.024083,143.322481" />
<polygon fill="#4b3639" fill-opacity="0.501961" points="138.572848,160.432919,131.051521,141.308108,120.541050,185.000000,73.421714,185.000000" />
<rect fill="#150a0d" fill-opacity="0.501961" x="15" y="136" width="14" height="4" />
<polygon fill="#120f15" fill-opacity="0.501961" points="-16.000000,154.159927,32.377918,185.000000,30.809154,178.185621,-9.204254,155.756336" />
<polygon fill="#7b5a5b" fill-opacity="0.501961" points="15,80 13,89 -7,70" />
<polygon fill="#54393f" fill-opacity="0.501961" points="97.531025,111.597167,75.335099,104.464243,126.699682,112.795905,109.642522,106.404485" />
<g transform="translate(20 80) rotate(119) scale(32 2)"><rect fill="#5d352f" fill-opacity="0.501961" x="-0.5" y="-0.5" width="1" height="1" /></g>
<polygon fill="#4f271f" fill-opacity="0.501961" points="159,140 160,149 173,140" />
<polygon fill="#3b2419" fill-opacity="0.501961" points="78.180812,97.972818,20.991360,128.580023,77.277655,95.710088,110.760313,74.221006" />
<polygon fill="#5f3f3e" fill-opacity="0.501961" points="14.591479,66.735131,3.348714,85.366233,-1.235083,42.249078,1.839892,57.981246" />
<g transform="translate(78 138) rotate(257) scale(1 29)"><rect fill="#2d231d" fill-opacity="0.501961" x="-0.5" y="-0.5" width="1" height="1" /></g>
<polygon fill="#5d494e" fill-opacity="0.501961" points="85,138 67,147 91,115" />
<rect fill="#65322f" fill-opacity="0.501961" x="196" y="92" width="24" height="3" />
<g transform="translate(184 109) rotate(347) scale(6 9)"><rect fill="#271816" fill-opacity="0.501961" x="-0.5" y="-0.5" width="1" height="1" /></g>
<rect fill="#ffe800" fill-opacity="0.501961" x="96" y="5" width="9" height="31" />
<g transform="translate(44.053309 50.740002) rotate(357.751990) scale(45.294219 1.000000)"><ellipse fill="#824741" fill-opacity="0.501961" cx="0" cy="0" rx="1" ry="1" /></g>
<polygon fill="#3a2224" fill-opacity="0.501961" points="15.095188,98.822219,24.251566,103.483936,21.893125,86.434471,26.352233,116.519178" />
<polygon fill="#402f35" fill-opacity="0.501961" points="251,97 247,89 236,101" />
<rect fill="#48302b" fill-opacity="0.501961" x="192" y="64" width="34" height="2" />
<rect fill="#a1686a" fill-opacity="0.501961" x="169" y="36" width="17" height="10" />
<ellipse fill="#a88f98" fill-opacity="0.501961" cx="104" cy="98" rx="2" ry="2" />
<g transform="translate(208.133823 0.470505) rotate(271.796427) scale(5.551127 36.919794)"><ellipse fill="#ffca4e" fill-opacity="0.501961" cx="0" cy="0" rx="1" ry="1" /></g>
<ellipse fill="#796366" fill-opacity="0.501961" cx="23" cy="153" rx="3" ry="3" />
<polygon fill="#fee601" fill-opacity="0.501961" points="123.218515,37.098017,142.974888,19.684210,131.350878,14.358345,119.043576,26.663125" />
<polygon fill="#64534e" fill-opacity="0.501961" points="99.993990,150.634076,77.294755,185.000000,68.689483,169.839304,93.659103,166.621208" />
<rect fill="#fdee56" fill-opacity="0.501961" x="104" y="20" width="20" height="6" />
<ellipse fill="#a4695f" fill-opacity="0.501961" cx="158" cy="69" rx="4" ry="4" />
<g transform="translate(100.205042 91.547331) rotate(36.013616) scale(1.797094 2.729722)"><ellipse fill="#b0786a" fill-opacity="0.501961" cx="0" cy="0" rx="1" ry="1" /></g>
<polygon fill="#83747c" fill-opacity="0.501961" points="165,147 171,148 170,156" />
<polygon fill="#725c65" fill-opacity="0.501961" points="112.252590,113.178923,107.476673,109.631647,94.124419,120.420424,69.009339,118.588393" />
<rect fill="#715a4b" fill-opacity="0.501961" x="37" y="165" width="8" height="5" />
<g transform="translate(166 103) rotate(39) scale(22 4)"><rect fill="#7e6770" fill-opacity="0.501961" x="-0.5" y="-0.5" width="1" height="1" /></g>
<polygon fill="#bb7870" fill-opacity="0.501961" points="62,40 46,47 87,47" />
<ellipse fill="#575472" fill-opacity="0.501961" cx="237" cy="155" rx="11" ry="2" />
<ellipse fill="#b87f72" fill-opacity="0.501961" cx="17" cy="98" rx="2" ry="2" />
<g transform="translate(126 136) rotate(76) scale(1 17)"><rect fill="#70595c" fill-opacity="0.501961" x="-0.5" y="-0.5" width="1" height="1" /></g>
<rect fill="#795e61" fill-opacity="0.501961" x="187" y="166" width="8" height="2" />
<polygon fill="#584040" fill-opacity="0.501961" points="180.502586,123.032603,153.057902,121.150784,195.430606,114.549525,232.374519,125.314063" />
<polygon fill="#5a3736" fill-opacity="0.501961" points="47,78 56,81 64,74" />
<polygon fill="#241611" fill-opacity="0.501961" points="264,116 229,114 244,109" />
<g transform="translate(228 133) rotate(375) scale(1 10)"><rect fill="#87777b" fill-opacity="0.501961" x="-0.5" y="-0.5" width="1" height="1" /></g>
<g transform="translate(170 83) rotate(252) scale(4 6)"><rect fill="#8a6f69" fill-opacity="0.501961" x="-0.5" y="-0.5" width="1" height="1" /></g>
<polygon fill="#483438" fill-opacity="0.501961" points="82.293178,143.472296,67.608057,150.172492,114.097413,146.957993,105.715525,159.028279" />
<polygon fill="#6d5b67" fill-opacity="0.501961" points="214,110 217,95 208,100" />
<polygon fill="#97504c" fill-opacity="0.501961" points="74.948547,69.278177,82.176011,63.357894,139.727187,55.972920,124.502639,64.745818" />
<polygon fill="#50342b" fill-opacity="0.501961" points="166.450621,68.956267,187.840964,73.806227,167.961389,83.832257,154.743664,88.759484" />
<polygon fill="#642d2b" fill-opacity="0.501961" points="90,64 86,69 88,72" />
<polygon fill="#231411" fill-opacity="0.501961" points="20,108 20,123 29,133" />
<g transform="translate(242.779715 43.425774) rotate(81.242396) scale(4.008189 39.296879)"><ellipse fill="#8a6f68" fill-opacity="0.501961" cx="0" cy="0" rx="1" ry="1" /></g>
<ellipse fill="#4b373d" fill-opacity="0.501961" cx="197" cy="105" rx="19" ry="2" />
<polygon fill="#362211" fill-opacity="0.501961" points="80,100 95,88 64,101" />
<polygon fill="#6d585a" fill-opacity="0.501961" points="154,158 142,141 159,140" />
<ellipse fill="#462f32" fill-opacity="0.501961" cx="169" cy="89" rx="8" ry="3" />
<polygon fill="#ffa143" fill-opacity="0.501961" points="32.181426,11.282754,99.941342,37.012078,86.914817,38.593908,-16.000000,11.253931" />
<polygon fill="#4f4351" fill-opacity="0.501961" points="229.602990,116.411672,254.718790,142.207664,241.674312,118.960668,240.644037,114.169568" />
<rect fill="#997570" fill-opacity="0.501961" x="40" y="74" width="17" height="2" />
<polygon fill="#3d3e59" fill-opacity="0.501961" points="247,141 251,131 270,136" />
<ellipse fill="#605f73" fill-opacity="0.501961" cx="40" cy="160" rx="11" ry="1" />
<rect fill="#917167" fill-opacity="0.501961" x="88" y="139" width="4" height="13" />
<g transform="translate(173 136) rotate(326) scale(9 1)"><rect fill="#816e7c" fill-opacity="0.501961" x="-0.5" y="-0.5" width="1" height="1" /></g>
<ellipse fill="#ab8b8f" fill-opacity="0.501961" cx="61" cy="97" rx="2" ry="2" />
<rect fill="#3c2c32" fill-opacity="0.501961" x="85" y="126" width="34" height="2" />
<polygon fill="#5b362c" fill-opacity="0.501961" points="135,76 147,93 148,69" />
<polygon fill="#120907" fill-opacity="0.501961" points="199.279182,161.306940,220.747092,156.146560,201.312598,165.597151,174.955915,162.821336" />
<ellipse fill="#665054" fill-opacity="0.501961" cx="255" cy="58" rx="28" ry="7" />
<ellipse fill="#926b69" fill-opacity="0.501961" cx="186" cy="53" rx="24" ry="2" />
<ellipse fill="#545370" fill-opacity="0.501961" cx="178" cy="154" rx="4" ry="4" />
<polygon fill="#8b403c" fill-opacity="0.501961" points="104.344317,66.497663,114.189355,67.039704,113.309199,70.878491,155.323547,57.116574" />
<ellipse fill="#000000" fill-opacity="0.501961" cx="223" cy="169" rx="6" ry="6" />
<rect fill="#60383a" fill-opacity="0.501961" x="19" y="61" width="26" height="2" />
<rect fill="#b47a77" fill-opacity="0.501961" x="21" y="131" width="2" height="2" />
<g transform="translate(50 84) rotate(82) scale(5 7)"><rect fill="#9f7b7a" fill-opacity="0.501961" x="-0.5" y="-0.5" width="1" height="1" /></g>
<polygon fill="#fdc100" fill-opacity="0.501961" points="101.803759,35.488109,70.380663,23.721457,95.484427,15.892404,70.098951,8.518150" />
<polygon fill="#281b14" fill-opacity="0.501961" points="263.750723,134.620982,233.960643,96.137829,227.024940,98.552492,257.058608,131.292065" />
<polygon fill="#ff8769" fill-opacity="0.501961" points="37.565493,36.513777,95.394280,43.043647,102.928136,46.585812,93.513313,36.567415" />
<g transform="translate(185 135) rotate(346) scale(18 1)"><rect fill="#392226" fill-opacity="0.501961" x="-0.5" y="-0.5" width="1" height="1" /></g>
<g transform="translate(220 137) rotate(94) scale(14 3)"><rect fill="#6d5d68" fill-opacity="0.501961" x="-0.5" y="-0.5" width="1" height="1" /></g>
<rect fill="#975540" fill-opacity="0.501961" x="16" y="105" width="2" height="9" />
<polygon fill="#48363a" fill-opacity="0.501961" points="95.706437,155.874745,125.125941,185.000000,89.747576,149.409420,95.555936,139.722928" />
<g transform="translate(167 38) rotate(22) scale(4 11)"><rect fill="#f99f7c" fill-opacity="0.501961" x="-0.5" y="-0.5" width="1" height="1" /></g>
<polygon fill="#3e2a29" fill-opacity="0.501961" points="39.014532,152.493423,-1.433801,131.768305,17.607056,119.536324,-7.743618,126.896737" />
<ellipse fill="#907a8c" fill-opacity="0.501961" cx="150" cy="134" rx="2" ry="2" />
<ellipse fill="#fdffff" fill-opacity="0.501961" cx="111" cy="33" rx="3" ry="3" />
<rect fill="#3d2618" fill-opacity="0.501961" x="110" y="138" width="18" height="3" />
<polygon fill="#5c464c" fill-opacity="0.501961" points="180.310810,134.884307,236.488448,123.500281,157.796623,132.976110,164.656818,106.627334" />
<g transform="translate(83 166) rotate(331) scale(20 1)"><rect fill="#221d29" fill-opacity="0.501961" x="-0.5" y="-0.5" width="1" height="1" /></g>
<polygon fill="#fdc900" fill-opacity="0.501961" points="148.913496,10.041113,157.787102,20.383807,126.806900,35.843979,136.119250,7.924523" />
<rect fill="#988084" fill-opacity="0.501961" x="190" y="94" width="4" height="8" />
<polygon fill="#774838" fill-opacity="0.501961" points="16.364092,114.907293,16.958250,103.438293,23.634813,136.387241,17.169384,120.805335" />
<rect fill="#6c545a" fill-opacity="0.501961" x="70" y="141" width="19" height="4" />
<ellipse fill="#806a74" fill-opacity="0.501961" cx="182" cy="109" rx="2" ry="2" />
<rect fill="#d04f43" fill-opacity="0.501961" x="90" y="49" width="50" height="3" />
<g transform="translate(144 156) rotate(48) scale(1 24)"><rect fill="#372220" fill-opacity="0.501961" x="-0.5" y="-0.5" width="1" height="1" /></g>
</g>
</svg>