<svg height="680" width="1024" xmlns="http://www.w3.org/2000/svg"><path d="m0 0h1024v680h-1024z" fill="#855d41"/><g fill-opacity=".501961" transform="matrix(4 0 0 4 2 2)"><ellipse fill="#ffff42" rx="1" ry="1" transform="matrix(-199.72161483 -.83611927 .18931599 -45.22141372 123.471764 1.650637)"/><ellipse fill="#1e1939" rx="1" ry="1" transform="matrix(-250.92895939 45.38344787 -11.65134739 -64.42129483 123.496737 138.166693)"/><ellipse fill="#ffc336" rx="1" ry="1" transform="matrix(-1.12431779 -28.39704028 218.31008784 -8.64350347 163.248418 10.223794)"/><ellipse cx="145" cy="40" fill="#e46e83" rx="195" ry="10"/><ellipse fill="#fffd00" rx="1" ry="1" transform="matrix(-47.89148792 3.99819855 -3.14877966 -37.71692202 114.947558 0)"/><ellipse fill="#794f56" rx="1" ry="1" transform="matrix(3.40012232 33.18239057 -165.09273335 16.9166681 166.519193 76.811151)"/><ellipse cx="238" cy="158" fill="#15161d" rx="57" ry="24"/><ellipse fill="#f86257" rx="1" ry="1" transform="matrix(1.39673183 12.25248217 -36.72591771 4.18660134 119.136881 49.55994)"/><ellipse fill="#201008" rx="1" ry="1" transform="matrix(-25.45442267 65.72550864 -10.82056192 -4.190628 117.091403 166.881204)"/><ellipse fill="#ffb058" rx="1" ry="1" transform="matrix(3.86233186 26.88843412 -64.61783396 9.28189116 222.837069 9.65268)"/><ellipse fill="#ff9851" rx="1" ry="1" transform="matrix(77.98037827 17.2279584 -3.97296964 17.9831915 10.192576 14.759363)"/><path d="m-.5-.5h1v1h-1z" fill="#fffffe" transform="matrix(15.99756312 .2792385 -.19197647 10.99832465 114 30)"/><ellipse fill="#3e2d31" rx="1" ry="1" transform="matrix(-85.10771559 -133.5129228 32.64376861 -20.80874658 12.407408 122.00523)"/><ellipse fill="#ffd803" rx="1" ry="1" transform="matrix(1.41638386 22.62800256 -62.31949504 3.90084483 121.796237 6.846613)"/><path d="m234.946009 110.423795-15.838593-28.65227 51.892584 52.754695-21.042599-6.824186z" fill="#0c0700"/><ellipse fill="#7f525b" rx="1" ry="1" transform="matrix(-3.67391735 18.15283657 -85.92308377 -17.38980611 36.834809 61.554059)"/><ellipse cx="177" cy="96" fill="#9d868c" rx="32" ry="4"/><ellipse fill="#362012" rx="1" ry="1" transform="matrix(-2.07220936 -3.95276863 23.05431374 -12.08605135 75.598777 99.409177)"/><path d="m44 112-47 39h25z" fill="#221009"/><ellipse fill="#ff995e" rx="1" ry="1" transform="matrix(.19974549 8.21920822 -90.55952369 2.20080282 226.964029 28.112242)"/><path d="m128 58h64v33h-64z" fill="#62362c"/><path d="m129 135h101v15h-101z" fill="#624b4f"/><path d="m198.507679 151.363519 57.893537 32.534807-72.196547-25.232005 20.921334-25.533616z" fill="#0b0400"/><path d="m148 37h108v13h-108z" fill="#977878"/><ellipse fill="#241717" rx="1" ry="1" transform="matrix(-23.29434374 11.43318711 -10.47107516 -21.33410586 124.850361 169)"/><ellipse fill="#624b59" rx="1" ry="1" transform="matrix(-31.70534802 2.4855949 -1.09515165 -13.96935762 84.710012 115.309076)"/><path d="m-.5-.5h1v1h-1z" fill="#686078" transform="matrix(21.87429987 7.10739087 -2.16311896 6.65739561 232 158)"/><path d="m18 131h4v3h-4z" fill="#ffffba"/><path d="m186.713455 38.421175-30.224243 44.624963 18.331939 48.401527-37.849397-40.963545z" fill="#836061"/><path d="m136.563527 138.117628-40.522333-6.959859 28.382898-7.562754-13.230396 42.022593z" fill="#201207"/><ellipse fill="#ffa848" rx="1" ry="1" transform="matrix(1.64372801 -20.20657874 57.29239291 4.66051736 20.205488 15.321225)"/><ellipse fill="#6d4d4f" rx="1" ry="1" transform="matrix(-14.83580175 18.14442801 -36.89103933 -30.16397903 20.175681 73.828531)"/><path d="m108 20h11v15h-11z" fill="#ffffc5"/><path d="m66 38 97-4-48 19z" fill="#ff7050"/><ellipse cx="206" cy="5" fill="#ffbf43" rx="51" ry="21"/><ellipse fill="#ffe000" rx="1" ry="1" transform="matrix(13.97185954 -8.66795877 9.5566956 15.40441206 128.691603 18.575806)"/><path d="m131 134h27v20h-27z" fill="#6d5257"/><path d="m215.063262 144.033647-28.943796.364335 14.799346-15.396075 4.773964 35.040046z" fill="#65545f"/><path d="m-.5-.5h1v1h-1z" fill="#1d1508" transform="matrix(-19.85092303 -2.43738687 .73121606 -5.95527691 214 87)"/><path d="m-.5-.5h1v1h-1z" fill="#d98053" transform="matrix(-1.325373 -18.95371695 2.99269215 -.20926942 19 127)"/><path d="m158 24h3v18h-3z" fill="#991e1f"/><path d="m67.663613 5.774978-14.294505 7.961701-58.948351-16.290235 221.222688 3.667807z" fill="#ffdf39"/><ellipse cx="255" cy="73" fill="#574a51" rx="31" ry="31"/><path d="m73.793757 162.748183 61.601187-28.25679-55.796751 3.190949-25.567599 15.552513z" fill="#5c4a4d"/><ellipse cx="46" cy="143" fill="#1b1005" rx="25" ry="3"/><ellipse fill="#ffda00" rx="1" ry="1" transform="matrix(-3.79308927 -16.23794836 14.95342664 -3.49303255 95.472146 19.60483)"/><path d="m146 98h72v23h-72z" fill="#604e55"/><path d="m34.961202 39.998895 72.760535 43.952135 22.335207-17.857806-41.602026-20.999176z" fill="#a15c5a"/><path d="m185 98-21 27h26z" fill="#3a2824"/><path d="m-16 80 22 55 9-59z" fill="#664e56"/><ellipse fill="#29190b" rx="1" ry="1" transform="matrix(-22.62510006 14.45058414 -1.67689876 -2.62549956 46.507378 114.720157)"/><path d="m16.823846 144.594538-32.823846 33.28635 113.671281 7.119112-81.891131-21.461724z" fill="#231c1c"/><path d="m-.5-.5h1v1h-1z" fill="#ff9556" transform="matrix(-67.98964327 1.18676364 -.41885775 -23.99634468 15 25)"/><path d="m14 88h10v40h-10z" fill="#482213"/><path d="m104 127h56v4h-56z" fill="#1d0c04"/><path d="m157 155 12 6-9-14z" fill="#0c0200"/><ellipse cx="221" cy="37" fill="#dc9f8c" rx="39" ry="3"/><ellipse fill="#815a5b" rx="1" ry="1" transform="matrix(-8.25763464 -8.43812123 17.63219525 -17.25505268 77.070187 79.003851)"/><path d="m246 142 15-32h-11z" fill="#140e08"/><path d="m264 156-28-10-4-16z" fill="#140c09"/><path d="m175 158h45v7h-45z" fill="#130a09"/><path d="m137 49h110v11h-110z" fill="#855b5f"/><path d="m100.25835 96.641255 24.686757 30.30379 11.056911-20.10105-8.014431 1.394946z" fill="#715559"/><path d="m147.08988 117.863351 53.944977-21.574441-50.950251 4.120767-32.711004 84.590323z" fill="#72575b"/><ellipse cx="114" cy="32" fill="#fff" rx="5" ry="5"/><path d="m163.186517 8.853777-11.461503-2.009631-24.239725 31.362984 65.264093-23.632412z" fill="#ffb11a"/><path d="m172 59h12v29h-12z" fill="#442d28"/><path d="m67 105-5 21-35 7z" fill="#614b57"/><path d="m17 91h2v44h-2z" fill="#aa634c"/><ellipse cx="243" cy="66" fill="#3d2821" rx="25" ry="3"/><path d="m62.15767 23.225911-14.950624-17.758444 31.325402-.299905 19.418609 34.22668z" fill="#ffb518"/><path d="m114.170302 100.724558 27.843554.36881-21.202165-18.999659 30.052325-8.466348z" fill="#512c23"/><path d="m92 135 3 27-8-12z" fill="#8a6d65"/><ellipse fill="#4b4860" rx="1" ry="1" transform="matrix(-.2444572 3.38428254 -28.63909125 -2.06869022 249.757251 156.063039)"/><ellipse cx="192" cy="108" fill="#8c7e9b" rx="4" ry="4"/><path d="m165 154 13-2-11-6z" fill="#7b7384"/><path d="m43.744115 178.301095-30.647203 6.698905 76.855076-23.15765-33.293332-.525549z" fill="#201f24"/><path d="m10 160 26-13-8 12z" fill="#5a5267"/><ellipse cx="46" cy="149" fill="#93828f" rx="3" ry="3"/><path d="m206 67h30v12h-30z" fill="#735a5e"/><path d="m-.5-.5h1v1h-1z" fill="#251315" transform="matrix(-.83503861 -5.94160841 16.83455717 -2.36594272 211 136)"/><path d="m23.073531 114.57919 15.037228 15.579361-27.406357-7.288317-.556295 22.006805z" fill="#29140e"/><path d="m107.165545 60.229862 19.070104 4.97844 45.02365-18.834553-17.898162-7.450856z" fill="#af5f58"/><path d="m101 20h21v10h-21z" fill="#fdf54c"/><path d="m140.662531 128.434857-29.979507 25.703931 11.219359 16.059748 9.57582-29.329899z" fill="#1f0f06"/><path d="m-.5-.5h1v1h-1z" fill="#351f12" transform="matrix(-9.61261696 -2.75637356 7.16657125 -24.99280409 140 111)"/><ellipse cx="245" cy="14" fill="#ffad59" rx="28" ry="21"/><path d="m88 84h22v3h-22z" fill="#411e12"/><path d="m209.670856 164.249586-.53079 16.145918-35.072737-29.539659-38.023611 31.706113z" fill="#44373e"/><path d="m92.646131 145.743935 28.700562-64.933787-22.667375 8.53714 4.347104 14.947228z" fill="#795555"/><path d="m33 150h11v9h-11z" fill="#171010"/><path d="m247.378478 159.687127 23.621522 17.306046-55.833498-11.979664 46.745722 19.986491z" fill="#020100"/><path d="m61.922642 64.500716 38.35165-.326828-34.178058 8.556926-26.881641 49.974701z" fill="#6b4443"/><path d="m156 80 9-17-19 19z" fill="#997072"/><path d="m105 162 5 7 2-7z" fill="#6b5863"/><ellipse fill="#de8784" rx="1" ry="1" transform="matrix(.16743167 -2.70204253 30.90012112 1.91472146 52.80745 39.443768)"/><path d="m135 168h28v2h-28z" fill="#090002"/><path d="m222.235273 148.539056 16.067765-4.193134-33.51521 18.465552.831927-.944419z" fill="#130b0b"/><path d="m-.5-.5h1v1h-1z" fill="#412624" transform="matrix(-14.58782578 15.10613581 -3.596699 -3.47329185 10 97)"/><path d="m158.114558 42.231749-5.785849 36.006865-31.783037-18.941799 46.187503 8.049109z" fill="#773631"/><path d="m-.5-.5h1v1h-1z" transform="matrix(-1.79960843 7.79496052 -.97437006 -.22495105 35 166)"/><path d="m265.251275 135.315767-77.800077-2.720283 41.743104-30.900851 21.97468 42.507348z" fill="#4f424b"/><path d="m96.268587 25.161116 54.650714-19.927807-65.778119-.100895 23.249007 25.012008z" fill="#ffea00"/><path d="m163.798765 5.770493-17.698986-3.358425-30.016228 38.710191 32.288326-17.891887z" fill="#ffcd00"/><path d="m-.5-.5h1v1h-1z" fill="#6a5d72" transform="matrix(3.06859803 -6.29155832 16.17829283 7.89068064 255 106)"/><path d="m-.5-.5h1v1h-1z" fill="#ffd194" transform="matrix(3.83022222 3.21393805 -1.92836283 2.29813333 20 130)"/><ellipse cx="193" cy="156" fill="#110700" rx="9" ry="9"/><path d="m69 73h29v6h-29z" fill="#937075"/><path d="m226.214193 164.875501-2.969515 20.124499-6.253978-39.454896-4.115949 13.256694z" fill="#050100"/><path d="m211.674468 155.42228-66.959381-38.845747 52.144976 14.974881 7.357538 27.77105z" fill="#5c4850"/><path d="m134.529506 39.498606-4.998424-2.49793 141.468918-6.237853-134.420256-3.797034z" fill="#ff9c58"/><path d="m271 152.438195-1.162226 19.566902-39.905528-35.527793.803724-9.609144z" fill="#261c22"/><ellipse fill="#974d41" rx="1" ry="1" transform="matrix(-.1297897 -28.97840935 .99998997 -.0044788 159.23034 48.508974)"/><path d="m193.060742 87.841165 6.285536 5.204869-17.612973-34.762174-2.594731-6.74622z" fill="#3d2824"/><path d="m195.701565 58.341952-2.310129 1.751527 3.512842 9.301787 19.053276 24.8705z" fill="#4b342b"/><path d="m197 93-25-3 19 10z" fill="#957f85"/><path d="m-.5-.5h1v1h-1z" fill="#402e2f" transform="matrix(20.31682869 -26.00435487 7.88010754 6.15661475 133 162)"/><path d="m-.5-.5h1v1h-1z" fill="#bdbde6" transform="matrix(6.61863003 2.27897708 -.32556815 .94551858 150 81)"/><path d="m30 99-6-5 6 2z" fill="#a29198"/><path d="m145 163h29v4h-29z" fill="#5e535e"/><path d="m88 114-28-5 19-2z" fill="#442b2d"/><path d="m0 30h91v7h-91z" fill="#ff975d"/><ellipse fill="#3f2b2b" rx="1" ry="1" transform="matrix(-28.59461751 4.37537887 -.87034477 -5.68800476 25.51038 139.899287)"/><ellipse fill="#ffb344" rx="1" ry="1" transform="matrix(39.49314665 17.90849409 -4.58318664 10.10718496 30.158812 6.408268)"/><path d="m255 131 6-9 8 22z" fill="#ffdcae"/><ellipse fill="#1c0e09" rx="1" ry="1" transform="matrix(-.06014381 2.74400195 -3.9608317 -.08681463 176.413564 114.592931)"/><ellipse fill="#776b7b" rx="1" ry="1" transform="matrix(2.54295298 .01295814 -.02010219 3.94492678 206.423437 153.367283)"/><path d="m99.749081 97.345936 41.521622-28.936494 7.512938-13.283142-.728373 31.338922z" fill="#62352d"/><path d="m187.006677 99.375807 36.359128-7.382169 8.362872 22.04857-10.129761-16.368957z" fill="#7f605f"/><path d="m59.149419 148.470397-24.246309 23.160926 1.949843 4.585861 22.770474-23.775606z" fill="#5d4f51"/><path d="m37 64h7v6h-7z" fill="#a28285"/><ellipse cx="5" cy="45" fill="#9e7266" rx="73" ry="3"/><path d="m127.437352 62.249653-37.425191-10.725577-25.649296-6.491199 23.68996-1.888045z" fill="#cd685e"/><ellipse fill="#735b5b" rx="1" ry="1" transform="matrix(1.62364173 6.36498644 -26.40042804 6.73447414 220.268224 54.957061)"/><path d="m44.022746 185h-38.002503l29.486971-26.763949-37.210553-2.8808z" fill="#4c3e41"/><path d="m-.5-.5h1v1h-1z" fill="#8a4a44" transform="matrix(-15.84890118 13.77723961 -7.87270835 -9.05651496 122 73)"/><path d="m91 77-55 41 26-41z" fill="#6f5153"/><path d="m71.500172 19.419823 40.205922 17.631925 7.056184-1.011392-7.474196 5.389702z" fill="#ffca0a"/><ellipse cx="124" cy="93" fill="#7d5351" rx="28" ry="3"/><path d="m59.038389 145.844698 9.542141-2.665329 3.119645-3.743689-28.483579 5.027263z" fill="#0c0600"/><path d="m14 101h2v37h-2z" fill="#130908"/><ellipse cx="217" cy="40" fill="#b2897d" rx="35" ry="2"/><ellipse cx="113" fill="#fff636" rx="19" ry="6"/><path d="m-.5-.5h1v1h-1z" fill="#946160" transform="matrix(14.54428861 -26.23859121 3.49847883 1.93923848 173 52)"/><path d="m217 128 6 11-1-17z" fill="#75606a"/><path d="m-.5-.5h1v1h-1z" fill="#877280" transform="matrix(-1.04188907 5.90884652 -6.89365427 -1.21553724 135 142)"/><path d="m100 149h6v19h-6z" fill="#2a1c1e"/><ellipse fill="#d57166" rx="1" ry="1" transform="matrix(21.33059939 -9.37832301 1.95688729 4.45085745 135.733945 47.325486)"/><path d="m135.569521 95.883825-20.074654-.895181-.182133 17.198456 8.326304-11.804624z" fill="#442c31"/><path d="m85.593077 122.620729-71.367706 23.520264 51.774195-5.800742-10.475626-22.809125z" fill="#463336"/><path d="m-.5-.5h1v1h-1z" fill="#ff6b4a" transform="matrix(1.71728096 -8.83464465 31.41206987 6.10588785 110 43)"/><path d="m199.914761 35.882696-67.760088 3.761017 138.561533-17.3783-13.587178 12.731871z" fill="#fb9c6b"/><path d="m175.791182 154.067602-8.973256-24.270932-48.157762 4.028976 68.921238 14.735122z" fill="#53383b"/><path d="m17.095025 77.230084 45.841871 15.460905-28.693209 5.336506-19.688968-6.253289z" fill="#5f3c3c"/><ellipse fill="#ffbe3a" rx="1" ry="1" transform="matrix(23.30015438 -8.86691127 3.33168924 8.7548946 185.168958 13.618521)"/><path d="m0 39h37v6h-37z" fill="#865953"/><path d="m230 118-8-4-3-15z" fill="#31211d"/><path d="m35 147h36v2h-36z" fill="#776063"/><path d="m156 109h29v3h-29z" fill="#715c65"/><path d="m87.408018 1.553641-24.283727 8.874469 45.338242 3.617825-28.663525 13.668673z" fill="#fed100"/><path d="m75 116 22 16 34-22z" fill="#634c59"/><path d="m184 76h5v9h-5z" fill="#7e6868"/><path d="m242 145h10v2h-10z" fill="#61505d"/><path d="m174 122 45-9-24-4z" fill="#614d58"/><path d="m72.682467 145.430733-7.650709 6.5513 6.004403 5.312553 24.912191-2.439412z" fill="#4c3836"/><path d="m109 143h3v7h-3z" fill="#7e6f90"/><path d="m192.402384 59.324041 9.279853-2.080041-45.006452 32.804539 14.409211-22.770048z" fill="#54342f"/><path d="m108.204504 36.50136-3.818581-3.037104 7.401025-1.143637 12.899406-.293376z" fill="#ffffe7"/><path d="m68 102h10v3h-10z" fill="#7f6377"/><path d="m25.655296 147.496667-2.720226-10.787379 25.021233-21.243308-21.87316 6.441216z" fill="#1f120d"/><path d="m-.5-.5h1v1h-1z" fill="#0d0700" transform="matrix(-.41811385 3.97808758 -26.85209117 -2.82226851 247 150)"/><ellipse cy="37" fill="#d89381" rx="31" ry="2"/><path d="m72 83 17 2-10 3z" fill="#99726d"/><path d="m122 107h8v6h-8z" fill="#8e767a"/><path d="m202 77-11-13 7 20z" fill="#7d6162"/><path d="m144.619156 55.734684 17.096506 10.047872-2.118479-42.168877-3.674303 59.280632z" fill="#7f423d"/><ellipse cx="68" cy="56" fill="#9b6361" rx="28" ry="4"/><path d="m44 123h11v2h-11z" fill="#90767e"/><path d="m-.5-.5h1v1h-1z" fill="#90757a" transform="matrix(6.99040674 -.36635169 .26167978 4.99314767 60 113)"/><path d="m101 102 2-9-11 1z" fill="#4c3028"/><ellipse fill="#261819" rx="1" ry="1" transform="matrix(-2.82131985 -1.95346688 8.59671956 -12.41592357 140.981532 165.218992)"/><ellipse cx="14" cy="149" fill="#130a0f" rx="17" ry="2"/><path d="m-.5-.5h1v1h-1z" fill="#e6a07a" transform="matrix(-.36635169 -6.99040674 3.99451814 -.20934382 20 131)"/><path d="m223 131h4v10h-4z" fill="#1d0d10"/><path d="m127.14817 122.535925 27.061557 9.357626-55.2871 1.975594 38.985491-14.330756z" fill="#2c1814"/><path d="m193 146 2-10h-10z" fill="#78656a"/><path d="m225 139h9v6h-9z" fill="#5a4d59"/><path d="m25 167h11v3h-11z" fill="#040000"/><path d="m228 117h13v3h-13z" fill="#6f606a"/><ellipse cx="186" cy="124" fill="#301811" rx="10" ry="3"/><path d="m170 160 6 3-9 7z" fill="#835c56"/><ellipse cx="6" cy="130" fill="#7a6564" rx="4" ry="4"/><ellipse fill="#453944" rx="1" ry="1" transform="matrix(.2303784 .97310112 -37.98955927 8.99389987 217.320911 162.229802)"/><path d="m-.5-.5h1v1h-1z" fill="#180c06" transform="matrix(7.94036921 -.97495475 1.09682409 8.93291536 162 155)"/><path d="m-.5-.5h1v1h-1z" fill="#070100" transform="matrix(-5.44639035 8.38670568 -7.54803511 -4.90175132 199 161)"/><path d="m150 133-2 11 12 1z" fill="#7d5f5b"/><path d="m171 167h14v3h-14z" fill="#291916"/><path d="m-.5-.5h1v1h-1z" fill="#71585f" transform="matrix(-9.85890282 18.54189945 -2.64884278 -1.40841469 8 112)"/><path d="m221.03673 90.628282 7.642908 11.78037-4.451066 5.577232 8.826617-.081699z" fill="#806563"/><path d="m152 100-11 18 9-1z" fill="#7f615f"/><path d="m201 85 23 3v-7z" fill="#342521"/><path d="m-.5-.5h1v1h-1z" fill="#8c757a" transform="matrix(-11.7795262 -2.28970794 .57242699 -2.94488155 217 69)"/><path d="m-.5-.5h1v1h-1z" fill="#6a5053" transform="matrix(.83622771 7.95617516 -22.87400359 2.40415466 37 107)"/><path d="m107.728366 159.496476 22.469727 9.150945-7.091205-27.27086 12.444237-2.532807z" fill="#1d0e09"/><path d="m46 157-12-17 6-21z" fill="#443337"/><path d="m25 67h30v19h-30z" fill="#775758"/><path d="m194 141h12v5h-12z" fill="#322223"/><path d="m183.430867 129.919547-18.226043 41.438634-8.158375-2.958572 27.977634-25.077128z" fill="#45373e"/><path d="m138.572848 160.432919-7.521327-19.124811-10.510471 43.691892h-47.119336z" fill="#4b3639"/><path d="m15 136h14v4h-14z" fill="#150a0d"/><path d="m-16 154.159927 48.377918 30.840073-1.568764-6.814379-40.013408-22.429285z" fill="#120f15"/><path d="m15 80-2 9-20-19z" fill="#7b5a5b"/><path d="m97.531025 111.597167-22.195926-7.132924 51.364583 8.331662-17.05716-6.39142z" fill="#54393f"/><path d="m-.5-.5h1v1h-1z" fill="#5d352f" transform="matrix(-15.51390785 27.98783063 -1.74923941 -.96961924 20 80)"/><path d="m159 140 1 9 13-9z" fill="#4f271f"/><path d="m78.180812 97.972818-57.189452 30.607205 56.286295-32.869935 33.482658-21.489082z" fill="#3b2419"/><path d="m14.591479 66.735131-11.242765 18.631102-4.583797-43.117155 3.074975 15.732168z" fill="#5f3f3e"/><path d="m-.5-.5h1v1h-1z" fill="#2d231d" transform="matrix(-.22495105 -.97437006 28.25673188 -6.52358058 78 138)"/><path d="m85 138-18 9 24-32z" fill="#5d494e"/><path d="m196 92h24v3h-24z" fill="#65322f"/><path d="m-.5-.5h1v1h-1z" fill="#271816" transform="matrix(5.84622039 -1.34970633 2.02455949 8.76933058 184 109)"/><path d="m96 5h9v31h-9z" fill="#ffe800"/><ellipse fill="#824741" rx="1" ry="1" transform="matrix(45.25936053 -1.77667074 .03922511 .9992304 44.053309 50.740002)"/><path d="m15.095188 98.822219 9.156378 4.661717-2.358441-17.049465 4.459108 30.084707z" fill="#3a2224"/><path d="m251 97-4-8-11 12z" fill="#402f35"/><path d="m192 64h34v2h-34z" fill="#48302b"/><path d="m169 36h17v10h-17z" fill="#a1686a"/><ellipse cx="104" cy="98" fill="#a88f98" rx="2" ry="2"/><ellipse fill="#ffca4e" rx="1" ry="1" transform="matrix(.17401911 -5.54839872 36.90164856 1.15737755 208.133823 .470505)"/><ellipse cx="23" cy="153" fill="#796366" rx="3" ry="3"/><path d="m123.218515 37.098017 19.756373-17.413807-11.62401-5.325865-12.307302 12.30478z" fill="#fee601"/><path d="m99.99399 150.634076-22.699235 34.365924-8.605272-15.160696 24.96962-3.218096z" fill="#64534e"/><path d="m104 20h20v6h-20z" fill="#fdee56"/><ellipse cx="158" cy="69" fill="#a4695f" rx="4" ry="4"/><ellipse fill="#b0786a" rx="1" ry="1" transform="matrix(1.45362852 1.05665083 -1.6050151 2.20801013 100.205042 91.547331)"/><path d="m165 147 6 1-1 8z" fill="#83747c"/><path d="m112.25259 113.178923-4.775917-3.547276-13.352254 10.788777-25.11508-1.832031z" fill="#725c65"/><path d="m37 165h8v5h-8z" fill="#715a4b"/><path d="m-.5-.5h1v1h-1z" fill="#7e6770" transform="matrix(17.09721115 13.8450486 -2.51728156 3.10858385 166 103)"/><path d="m62 40-16 7h41z" fill="#bb7870"/><ellipse cx="237" cy="155" fill="#575472" rx="11" ry="2"/><ellipse cx="17" cy="98" fill="#b87f72" rx="2" ry="2"/><path d="m-.5-.5h1v1h-1z" fill="#70595c" transform="matrix(.2419219 .97029573 -16.49502735 4.11267223 126 136)"/><path d="m187 166h8v2h-8z" fill="#795e61"/><path d="m180.502586 123.032603-27.444684-1.881819 42.372704-6.601259 36.943913 10.764538z" fill="#584040"/><path d="m47 78 9 3 8-7z" fill="#5a3736"/><path d="m264 116-35-2 15-5z" fill="#241611"/><path d="m-.5-.5h1v1h-1z" fill="#87777b" transform="matrix(.96592583 .25881905 -2.58819045 9.65925826 228 133)"/><path d="m-.5-.5h1v1h-1z" fill="#8a6f69" transform="matrix(-1.23606798 -3.80422607 5.7063391 -1.85410197 170 83)"/><path d="m82.293178 143.472296-14.685121 6.700196 46.489356-3.214499-8.381888 12.070286z" fill="#483438"/><path d="m214 110 3-15-9 5z" fill="#6d5b67"/><path d="m74.948547 69.278177 7.227464-5.920283 57.551176-7.384974-15.224548 8.772898z" fill="#97504c"/><path d="m166.450621 68.956267 21.390343 4.84996-19.879575 10.02603-13.217725 4.927227z" fill="#50342b"/><path d="m90 64-4 5 2 3z" fill="#642d2b"/><path d="m20 108v15l9 10z" fill="#231411"/><ellipse fill="#8a6f68" rx="1" ry="1" transform="matrix(.61026503 3.96145878 -38.83872898 5.98312883 242.779715 43.425774)"/><ellipse cx="197" cy="105" fill="#4b373d" rx="19" ry="2"/><path d="m80 100 15-12-31 13z" fill="#362211"/><path d="m154 158-12-17 17-1z" fill="#6d585a"/><ellipse cx="169" cy="89" fill="#462f32" rx="8" ry="3"/><path d="m32.181426 11.282754 67.759916 25.729324-13.026525 1.58183-102.914817-27.339977z" fill="#ffa143"/><path d="m229.60299 116.411672 25.1158 25.795992-13.044478-23.246996-1.030275-4.7911z" fill="#4f4351"/><path d="m40 74h17v2h-17z" fill="#997570"/><path d="m247 141 4-10 19 5z" fill="#3d3e59"/><ellipse cx="40" cy="160" fill="#605f73" rx="11" ry="1"/><path d="m88 139h4v13h-4z" fill="#917167"/><path d="m-.5-.5h1v1h-1z" fill="#816e7c" transform="matrix(7.46133815 -5.03273613 .5591929 .82903757 173 136)"/><ellipse cx="61" cy="97" fill="#ab8b8f" rx="2" ry="2"/><path d="m85 126h34v2h-34z" fill="#3c2c32"/><path d="m135 76 12 17 1-24z" fill="#5b362c"/><path d="m199.279182 161.30694 21.46791-5.16038-19.434494 9.450591-26.356683-2.775815z" fill="#120907"/><ellipse cx="255" cy="58" fill="#665054" rx="28" ry="7"/><ellipse cx="186" cy="53" fill="#926b69" rx="24" ry="2"/><ellipse cx="178" cy="154" fill="#545370" rx="4" ry="4"/><path d="m104.344317 66.497663 9.845038.542041-.880156 3.838787 42.014348-13.761917z" fill="#8b403c"/><ellipse cx="223" cy="169" rx="6" ry="6"/><path d="m19 61h26v2h-26z" fill="#60383a"/><path d="m21 131h2v2h-2z" fill="#b47a77"/><path d="m-.5-.5h1v1h-1z" fill="#9f7b7a" transform="matrix(.6958655 4.95134034 -6.93187648 .97421171 50 84)"/><path d="m101.803759 35.488109-31.423096-11.766652 25.103764-7.829053-25.385476-7.374254z" fill="#fdc100"/><path d="m263.750723 134.620982-29.79008-38.483153-6.935703 2.414663 30.033668 32.739573z" fill="#281b14"/><path d="m37.565493 36.513777 57.828787 6.52987 7.533856 3.542165-9.414823-10.018397z" fill="#ff8769"/><path d="m-.5-.5h1v1h-1z" fill="#392226" transform="matrix(17.46532307 -4.35459412 .2419219 .97029573 185 135)"/><path d="m-.5-.5h1v1h-1z" fill="#6d5d68" transform="matrix(-.97659063 13.9658967 -2.99269215 -.20926942 220 137)"/><path d="m16 105h2v9h-2z" fill="#975540"/><path d="m95.706437 155.874745 29.419504 29.125255-35.378365-35.59058 5.80836-9.686492z" fill="#48363a"/><path d="m-.5-.5h1v1h-1z" fill="#f99f7c" transform="matrix(3.70873542 1.49842637 -4.12067253 10.1990224 167 38)"/><path d="m39.014532 152.493423-40.448333-20.725118 19.040857-12.231981-25.350674 7.360413z" fill="#3e2a29"/><ellipse cx="150" cy="134" fill="#907a8c" rx="2" ry="2"/><ellipse cx="111" cy="33" fill="#fdffff" rx="3" ry="3"/><path d="m110 138h18v3h-18z" fill="#3d2618"/><path d="m180.31081 134.884307 56.177638-11.384026-78.691825 9.475829 6.860195-26.348776z" fill="#5c464c"/><path d="m-.5-.5h1v1h-1z" fill="#221d29" transform="matrix(17.49239414 -9.6961924 .48480962 .87461971 83 166)"/><path d="m148.913496 10.041113 8.873606 10.342694-30.980202 15.460172 9.31235-27.919456z" fill="#fdc900"/><path d="m190 94h4v8h-4z" fill="#988084"/><path d="m16.364092 114.907293.594158-11.469 6.676563 32.948948-6.465429-15.581906z" fill="#774838"/><path d="m70 141h19v4h-19z" fill="#6c545a"/><ellipse cx="182" cy="109" fill="#806a74" rx="2" ry="2"/><path d="m90 49h50v3h-50z" fill="#d04f43"/><path d="m-.5-.5h1v1h-1z" fill="#372220" transform="matrix(.66913061 .74314483 -17.83547581 16.05913455 144 156)"/></g></svg>