<svg height="776" width="1024" xmlns="http://www.w3.org/2000/svg"><path d="m0 0h1024v776h-1024z" fill="#474a48"/><g fill-opacity=".501961" transform="matrix(4 0 0 4 2 2)"><path d="m199.679773 105.257465-12.786177 103.742535-171.378032-15.844312 112.42297-139.57807z" fill="#c7c0b9"/><path d="m271 189.649289-147.491627-19.757472 65.712152-27.856805 53.930434-158.035012z" fill="#000005"/><path d="m-16 75.749071 6.601723 125.488255 44.728661-44.450878 35.496925-123.228816z"/><path d="m32.883442 88.362437 17.624662 47.692199 124.125392 10.620363-98.015142-67.864216z" fill="#f2a696"/><path d="m167.609706 1.159009-109.831832-17.159009-73.777874 20.049675 100.222374 58.408075z" fill="#000004"/><path d="m158.057458 95.053034-8.690175-27.763475-54.665791 72.741709 44.453877 19.156506z" fill="#d2e7ed"/><path d="m201.436649 48.191318-76.987979 24.36824 120.154117-88.559558 26.397213 65.554874z"/><path d="m125.974021 158.632701-126.322059-14.195934-15.651962-97.212579 74.779254 86.063745z" fill="#000300"/><path d="m137.864311 121.315995 25.465483-1.100438 107.670206-65.993664-126.160156 57.64559z" fill="#111004"/><path d="m96.607161 47.487746 50.469751 4.774535-42.153736 7.428442-6.494873-75.690723z" fill="#ffb086"/><path d="m207.2013 180.865702-133.827331 12.85633 44.322687 2.073728 75.379874-49.876625z" fill="#8cadac"/><path d="m73.583926 40.66406 13.5063 50.608128 71.792651-24.118476-116.141023 67.970911z" fill="#b74834"/><path d="m214.108379 50.074391 14.543076 14.482773-41.743477.815609-.180856-16.911728z" fill="#c7c2bb"/><path d="m246.761366 72.626315 9.840509 126.833368-46.609326 9.540317-9.450887-147.456422z" fill="#000f17"/><path d="m202.383682 131.461287-70.335427 44.339379 68.749473-74.712328 9.143472-2.094762z" fill="#af553b"/><path d="m192.850963 121.295312-29.21658 19.18468-47.998952 13.229876 40.786153-35.10519z" fill="#d3e1e5"/><path d="m195.098301 20.108691-41.130211 3.885619 12.044708-19.947645-4.216349-20.046665z" fill="#e29180"/><path d="m115.397253 86.033137-16.907494 16.810506-7.243198-8.606858-13.025907-22.280153z" fill="#001210"/><path d="m177.952129 130.571091-9.494706 31.826128 73.421464-42.083889-97.312876 35.179967z" fill="#191208"/><path d="m-16 201.308003 47.046837-36.396152 93.042237-12.498411-77.013902 56.58656z" fill="#486a62"/><path d="m169.023938-16-66.738531 6.907377 5.320296 55.751835 31.855612-3.416078z" fill="#000f12"/><path d="m67.341264-.677848-2.190856 91.792638-39.720287-21.235199-20.75227-74.765207z" fill="#00191b"/><path d="m49.901949 47.071763 1.777678-3.610089-20.659973-.533243-46.246069 19.052869z" fill="#d7ca9c"/><path d="m259.048501-16h-105.79317l48.650404 32.435865 44.173776 85.362075z" fill="#000d0e"/><path d="m134.779055 47.233993 11.392777 29.31765-34.1333-27.007828-36.712376 19.932469z" fill="#ee9974"/><path d="m85.924738 107.747498 96.971734-30.031337-.93574 23.16152-26.848718-27.249483z" fill="#d1b7a9"/><path d="m88.897553 97.830216-42.399444 3.980916 47.997563-35.380897-27.758768-16.815232z" fill="#f3735f"/><path d="m92.852155 127.782808-23.849969-2.971107-4.981023-4.603591 45.965278.037257z" fill="#1e2006"/><path d="m105.975671 75.539945 34.429449 22.564133-38.363208-40.33107-1.140651 29.718872z" fill="#97c1eb"/><path d="m23.986503 169.258935-21.89717 8.237723-3.953369-29.461889 19.351412 18.109495z" fill="#004fb8"/><path d="m139.371425 74.867269 54.629612-2.543625-19.631268 11.519061-29.65014-53.625087z" fill="#171208"/><path d="m62.908035 86.878962 15.201118 17.961984 24.071775 8.780662-38.767457-1.002724z" fill="#8f0015"/><path d="m179.312642 96.439664-12.39712-1.029294-74.459162 8.593932 23.065479 16.006417z" fill="#d9d9d5"/><path d="m186.331042 79.369386 38.432294-17.892224 6.998306 29.912147-33.209585-44.000728z" fill="#3d7b93"/><path d="m51.775684 128.222946-13.285295 20.175104 76.918726-1.232594-3.06316 19.269729z" fill="#4e1e0c"/><path d="m184.496844 113.465171-3.892781-38.738351 46.086411-.765315-36.720839 29.283939z" fill="#001e2c"/><path d="m157.11123 68.35437 29.823693 31.360425-24.509851 6.709467 14.86776-44.394506z" fill="#d56e40"/><path d="m68.599281 191.855 3.340447-26.025813 44.944867-2.572108 40.784466 21.743113z" fill="#89a6b4"/><path d="m184.960721 47.744094 1.896856 61.859395-12.096279-81.889446-37.416174-7.820735z" fill="#00090c"/><path d="m-16 74.999346 40.561985 101.080168 13.80767-94.173641 48.601984-47.694727z" fill="#001118"/><path d="m145.715617 196.926592 75.997191-46.522204 1.221088 8.305122-32.563386 50.29049z" fill="#487072"/><path d="m105.091597 92.724301 58.820814-11.652762-39.507499-11.262844 43.081835 29.694545z" fill="#e3d9d9"/><path d="m63.221312 21.465696 20.781382 6.042182 73.029787 48.79103-31.064352-5.664167z" fill="#9c7162"/><path d="m201.618307 205.371269 66.941352-13.938165-76.410057-111.644906 62.475737 16.384752z" fill="#000e10"/><path d="m57.992911 113.246889 37.131429 1.859195-22.685237 16.700852 63.100747 17.5563z" fill="#cfd0cf"/><path d="m49.16153 143.181107 28.965806 14.512766-18.333962-2.423284-41.382207 53.729411z" fill="#90a28c"/><path d="m155.412163 41.114821-12.980251-8.492578 9.356839-4.193859 1.474144-1.344361z" fill="#ffa784"/><path d="m190.170565 135.584811-3.025618-33.140089 25.799356.500907-59.08586 58.481907z" fill="#d6775a"/><path d="m271 87.135159-18.638885-10.578991 3.499908 55.663715-9.375472 3.86879z" fill="#678795"/><path d="m166.420599 66.673692-19.348291-.025909-13.557468-17.489348 49.008718-8.096954z" fill="#000e16"/><path d="m142.682115 83.112762-37.424447-18.216553-22.712522-26.824212 57.094731 50.630627z" fill="#092839"/><path d="m205.637763 47.219364 21.980571 29.864458-37.610415-33.385805-6.955687 23.33639z" fill="#d1a085"/><path d="m43.243225 122.985426-9.850379-33.587741 18.346334 2.809217 10.852929 47.880794z" fill="#a25c1b"/><path d="m98.150039 46.73451 6.57333-36.965464-4.280387-25.769046-2.595753 17.112492z" fill="#e28c6c"/><path d="m127.826183 50.772718-3.051566 2.286641 14.976706 8.926841-5.698729-13.525493z" fill="#e8edfc"/><path d="m9.869694 59.46116-11.863818 13.778481 14.675306-62.040663-25.10789-5.99483z" fill="#637c8f"/><path d="m204.833033 38.761392.013018-36.30394-30.882074 38.98647 15.675455-32.294721z" fill="#8e5f51"/><path d="m-3.566757-3.604228 99.356893-12.395772-.513803 57.310869-8.935927-13.494649z" fill="#000d0f"/><path d="m84.581018 91.163386-.759544 13.679995 5.237705 9.746815 5.733755-2.496357z" fill="#291e17"/><path d="m103.26534-9.406003 19.297378 77.966784-19.947976 5.407733 47.822886-57.102785z" fill="#01202b"/><path d="m163.739843 93.662347 14.180449-3.141198-22.673512-.49893 3.890369 4.015643z"/><path d="m35.051515-10.639976-1.388203 43.822683.524881 17.988276 3.210317-37.647127z" fill="#b2705a"/><path d="m82.063982 66.053683-14.896082 5.264387-3.0969-2.893841 9.167385-16.028397z" fill="#e7b480"/><path d="m148.26965-16h16.62832l16.43222 19.568519-11.052042 1.366873z" fill="#d7fcff"/><path d="m114.109472 53.023228 3.083394-5.966414-18.790212-1.964902 18.583126 23.041037z" fill="#fa8e62"/><path d="m91.800299 85.317392 42.434197 14.946853-44.380344-7.350627 1.226321-55.909112z" fill="#111a11"/><path d="m119.228464 159.846718-70.526675 2.562347-18.44752-3.935022 24.370521 11.822422z" fill="#2b4547"/><path d="m125.367695 161.766309 58.399075 10.849705-52.984397-1.98249-7.246431-2.145522z" fill="#202a21"/><path d="m67.859337 99.89532-4.987857-21.301656 17.876094-2.177506 3.013918 31.262426z" fill="#ff5668"/><path d="m186.673347 121.417935-6.114295-11.120728 3.399361-21.135827 6.663848-25.870651z" fill="#07313a"/><path d="m232.202614-11.445528-.043134 77.449872-26.814361-11.604924 21.436446 20.083788z" fill="#43575f"/><path d="m180.181986 183.51649-14.815538 25.48351h-72.320195l62.632674-23.160587z" fill="#2c5055"/><path d="m138.579236 186.589525.844891-9.253291 42.457813-.878564-20.067126 10.127467z" fill="#c8cdd6"/><path d="m-3.559118 53.479073 36.266971-41.466439 1.269825 18.513934-5.400029 15.194437z" fill="#001b26"/><path d="m147.40573 122.871471-9.218262-6.021276 1.796732-3.809238 48.267432-13.829458z" fill="#603016"/><path d="m101.518548 85.846073.208111-14.301721 21.558405 9.970152 3.316162-18.197351z" fill="#9bb6d9"/><path d="m54.561533 128.574051 106.272273-.636123 13.590749.270165-18.38899 16.451025z" fill="#c6d3d8"/><path d="m147.063538 157.594307 12.466609-15.986129 26.605877-12.613042-19.16124 17.502622z" fill="#2b2626"/><path d="m109.621571 109.916532 2.574952-22.873736-11.278582 26.533231-16.365354-23.516364z" fill="#e5ddd2"/><path d="m200.250767 209 7.506826-9.75442-32.141225-5.3359 18.905001-43.751541z" fill="#8c9c8e"/><path d="m83.741719 78.651357 10.805252-15.2715 2.812142 39.107743-10.008808-15.526894z" fill="#00080b"/><path d="m249.510885 145.544779 3.03731 16.26487-6.410407 12.248055 1.795203-29.758275z" fill="#005697"/><path d="m95.035507 209 45.329788-113.397578-63.883427 47.857184 59.591496 3.564765z" fill="#aab5b6"/><path d="m250.808581 46.81689-1.924858 114.887955-58.072329-10.475947 10.915599-16.349138z" fill="#001213"/><path d="m223.628473 168.859491-8.63441 16.724622-14.706612-28.713383 24.053749-9.811749z" fill="#003062"/><path d="m87.735872 148.155378 25.643723 10.579677-40.18462-8.022065-45.917115-11.872858z" fill="#040e0a"/><path d="m44.185844 48.269301-29.734915 3.50919-11.809087 12.750946 52.102459-27.103801z" fill="#a8a98b"/><path d="m169.67434 57.188441 9.172108-1.773973-1.138275 21.68317-18.752474 5.455817z" fill="#96411f"/><path d="m36.395768 56.139111-52.395768 73.932539 37.286377 40.95096 17.257626-16.875162z" fill="#001216"/><path d="m188.580676 116.532207-14.256782-3.973665-6.918073 2.51827 22.666151 8.220711z" fill="#c4bfb9"/><path d="m167.69014 85.859642 14.353746-4.169067-.499973 13.671593-52.720653-22.025068z" fill="#e0c2b9"/><path d="m112.912813 25.182661 17.726297 24.577953 5.617531-2.850625-23.706269-24.86416z" fill="#765958"/><path d="m208.041939 48.520601 10.554272 3.784868-4.715363-12.422458-6.517018 3.201537z" fill="#0e3cb7"/><path d="m65.472438 120.814707-1.794116 3.054189 29.785537 1.077639-20.961563-7.23461z" fill="#48270c"/><path d="m147.668484-7.490267 10.244653 45.048085 27.109545-14.187573-31.896011 1.557484z" fill="#000c0e"/><path d="m60.082343 88.965859-13.167821-2.949525 15.348747 41.013286 6.097361 15.317919z" fill="#c79f66"/><path d="m43.139127 151.918842 7.653093-10.926876-10.283398 1.855569-3.917547 11.474635z" fill="#b40023"/><path d="m139.769414 166.456344-11.947298-25.274596 1.809026 16.523998 32.561335-2.728459z" fill="#b89a9b"/><path d="m66.949853 85.311657-82.949853-5.204047 90.423337-47.686853-12.664268 45.868167z" fill="#00161c"/><path d="m138.993988 48.93984 2.885203-10.746057 27.646912 4.334745-16.289955-8.966343z" fill="#4f91be"/><path d="m77.238249 57.873938 1.527167-12.093886 15.186643-7.953439 1.135661 23.491017z" fill="#000f0f"/><path d="m205.690477 63.261067-15.892004 14.615003 4.580321-15.494661 14.814297-7.504082z" fill="#63a2c3"/><path d="m199.15976 71.602867 22.54815 77.946223 4.013909-73.06978-13.713211-15.366906z" fill="#001d22"/><path d="m233.111139 35.282033-77.288152-2.303855 36.513553 21.89301-57.898483-2.040984z" fill="#00181e"/><path d="m64.552006 111.872881 3.198535-6.811448-5.322955-4.935541-1.130633 2.171403z" fill="#000207"/><path d="m115.42177.191864 62.737299 4.76531 19.324405-20.957174 70.609517 33.485683z" fill="#051412"/><path d="m102.135167 201.697827-90.544834 7.302173 58.010042-39.881007-7.006182 18.697959z" fill="#3a5862"/><path d="m125.980916 67.579153-1.003625-5.058762 13.634198 10.826365 21.824484-.660763z" fill="#4c2406"/><path d="m90.530181 34.108674-20.72062-4.472244-2.725587-5.258649 25.53822 6.391472z" fill="#6288a6"/><path d="m119.812724 73.851422-14.117168-12.592177-4.469231-3.439219 4.046215 17.842961z" fill="#0a73c0"/><path d="m186.733105 104.498353 10.364528 36.716315 12.986504-38.590297-11.115516-2.266573z" fill="#b86548"/><path d="m204.774072 140.104349-10.134166-11.043654-25.421422 23.671965-27.196435 21.522421z" fill="#442414"/><path d="m65.233286 100.866407 6.745803 13.052068 8.727285-1.679614-16.498982-31.64225z" fill="#e6002c"/><path d="m100.340478 97.52144 6.930378-4.46327 3.120982-13.846926-4.141721-.964929z" fill="#00161b"/><path d="m75.619001 143.252477-8.576761-8.358229 7.723569-3.308501 38.728445 18.364329z" fill="#b27658"/><path d="m83.704936 185.119686 33.369422-5.770122 25.295636-3.465461-30.607492 10.157837z" fill="#b7c5d0"/><path d="m173.271431 36.058411 16.65411-12.517256-2.628908-2.104726-9.706215 4.981559z" fill="#768aa1"/><path d="m14.419019 176.111747-19.893734 32.888253 36.824396-27.458439 19.731584-30.244824z" fill="#6f6e4a"/><path d="m54.026673 164.205595 13.351222-10.635907-10.624992-5.856863-11.642895-3.55723z" fill="#a8aea9"/><path d="m112.529857 118.650815 57.230756-19.012162 11.737888-9.281896-57.717556 18.81395z" fill="#e1d3cf"/><path d="m271 107.181742-2.302669-25.017171-12.952197 52.040113-8.824847-1.610997z" fill="#ad9f83"/><path d="m140.127919 174.127793 35.084286 1.829684 10.097416-1.464689-.805858-16.351151z" fill="#476363"/><path d="m221.400179 171.936688 49.599821 12.491193-58.298779 24.572119-7.388824-45.888938z" fill="#001016"/><path d="m96.451452 103.428707 1.240256-44.542451-26.156052 7.892321 29.293683.139508z" fill="#985b3b"/><path d="m188.495689 58.490833 17.82993-12.574262 23.569301 22.813692-16.115017-17.683873z" fill="#d8a37e"/><path d="m177.167285 83.696016 12.833658-14.713321 4.804519-9.754133-19.121587 17.839441z" fill="#08110b"/><path d="m162.195452 106.693704 29.061985-10.958191-38.019097 8.701864-11.276665 11.096295z" fill="#be7249"/><path d="m152.481933 30.391959 7.943017-10.205856 10.973712-18.807626-16.082949 4.434266z" fill="#864c3e"/><path d="m101.25844 56.830423-7.45368 9.862776-19.745234-10.186675-8.453281 14.750527z" fill="#d3946e"/><path d="m210.138407-16-8.322105 44.609755-25.728204-23.186301 22.933651 1.447653z" fill="#663b2a"/><path d="m84.679256 112.487651-24.524899 2.020623 20.572979 4.26156 17.02865 3.03837z" fill="#efc7cc"/><path d="m127.151045 79.871356-21.187368-3.477189 48.856669 18.862472-30.619328-3.021285z" fill="#ecd3ce"/><path d="m188.097897 40.679669 11.095266 12.348326-9.912044 12.247194-1.316869.696398z" fill="#dd9e83"/><path d="m98.895681 75.170438-20.155759-11.828081 14.770746 2.086259 10.018162-6.089632z" fill="#332419"/><path d="m92.803197 136.928791-26.721891-6.352587-5.741475-4.511349 18.809852-.67314z" fill="#e7d5ca"/><path d="m204.766377-16 66.233623 13.142098-79.917104 56.607432 14.852757-6.877503z" fill="#001013"/><path d="m79.590502 77.882693-95.590502-8.760205 83.290147 18.827291-17.131688-22.877403z" fill="#00171a"/><path d="m23.779787 169.687998-26.517044-20.937124 8.501526 20.823202.866308 15.020734z" fill="#004382"/><path d="m168.19316 135.777363 13.75696-9.254637-96.59371 15.794841 57.262388 4.174803z" fill="#dbd3d9"/><path d="m105.774538 162.766933-14.393091-.36567 24.365652-9.165156 2.164338-10.50856z" fill="#182927"/><path d="m163.038911 50.445515-19.997321-12.303403 20.489274.814776 26.669447-14.093988z" fill="#214d6c"/><path d="m101.173213 96.485432.476683 32.040158-2.431881-18.123975 14.945847-13.151202z" fill="#d1d6d5"/><path d="m182.740223 22.616907-46.100615 8.054607 5.708517 27.554766-22.185212-31.08279z" fill="#0b110c"/><path d="m65.928056 179.908857 67.081267-27.109187-18.172175 26.832963-18.406665 1.995867z" fill="#728483"/><path d="m45.471182-5.770879 16.752326 35.219666-53.541687 34.396295 15.237115 35.535184z" fill="#001213"/><path d="m65.376048 79.370023 10.624079 29.430767 11.626902-18.737236-5.641196-12.525757z" fill="#ee7b6a"/><path d="m182.771521 178.480681 13.383845 1.50048 3.196793-24.716893 14.648617 53.735732z" fill="#596644"/><path d="m158.087259 63.369232 39.09478-26.010421 4.674656-39.394261-4.372052 18.877939z" fill="#001515"/><path d="m133.244982 173.791091 6.017076 21.915223-24.234797-8.561674 42.961327-19.213592z" fill="#597777"/><path d="m165.820611 93.040583 7.890002-.91641 2.312777-3.373429-21.393768 1.680607z" fill="#271100"/><path d="m124.639685 100.892218 5.88647-5.945828-11.919968 2.095869-6.136892 4.061812z" fill="#3a3f2b"/><path d="m148.565255 40.524633-.057834-3.144083-14.03822-7.318556 23.166914.406559z" fill="#d07750"/><path d="m-8.099628 127.924152-7.900372 15.294143 44.304745 24.277404 20.805427-38.17593z" fill="#001215"/><path d="m167.486682 50.779651-22.131473-8.82213.981426 25.440541 22.065938.568232z" fill="#001113"/><path d="m271 54.292543-18.115447-28.115194-2.551435 27.375546 2.882769 76.053778z" fill="#1f4259"/><path d="m177.386623 78.516685-27.001683-11.27136 10.364609 11.502203 10.842083 3.91524z" fill="#53220d"/><path d="m153.721436 154.268973-7.016326-6.39649-1.718745 5.38008 18.922352-6.149768z" fill="#201814"/><path d="m96.704015 35.432032-6.591365 9.151604-18.19033 3.939694 4.001823-17.425601z" fill="#0d3543"/><path d="m201.997302 72.648225-17.272844 27.909951 70.070309 2.823077-22.014533 95.353019z" fill="#001515"/><path d="m103.733974 49.403115-8.89202 51.490113 4.139022-45.326261 2.980962-71.566967z" fill="#90462a"/><path d="m112.488032 93.46507 44.857162-7.862219-16.469031 11.321304-31.461379-8.912209z" fill="#eadfe3"/><path d="m124.586187 51.29796-4.055887 10.263702 32.600911 11.109365-8.947329-6.23075z" fill="#d28967"/><path d="m205.206374 54.483484 23.790278 24.196603-14.091698-20.654932-9.250328 6.079298z" fill="#709aae"/><path d="m142.904633 122.590995 44.965772-14.704776-33.782786.855584-13.680097 12.416322z" fill="#382b1d"/><path d="m195.10726 58.737106-6.562358 17.914248-16.361854-52.4268 8.259522 51.577542z" fill="#0b1a18"/><path d="m70.547781 139.037311-26.166214-6.331853-9.459295-43.21928 28.878094 41.613604z" fill="#8e502a"/><path d="m169.40282 55.164813 3.222515 20.664537 4.311951-7.495745-1.167668-12.499508z" fill="#b97350"/><path d="m211.870092 54.830832 29.696007 25.56495-33.042255-23.441709 61.896901-38.268468z" fill="#1e3331"/><path d="m182.051523 105.401232-2.862761.902151 5.690776-11.103781 1.172215 5.194003z" fill="#6d8c9e"/><path d="m182.509706 139.817614 6.324395-38.426579 23.246807 1.484872-15.226508.74226z" fill="#d07f64"/><path d="m89.788492 129.584467 18.922632-10.708856-18.059017 5.331997-7.688119-.054656z" fill="#343629"/><path d="m111.228802 84.751318 43.614941.814282-40.428903-5.662612 14.214088 12.720245z" fill="#7e6751"/><path d="m216.555861 54.446533-5.758539.578653 10.230045 6.151726 5.191539 5.291977z" fill="#d2cab6"/><path d="m8.012054 172.874402 14.046178-4.02576-34.462567 34.851903 3.485797-49.937863z" fill="#001f3d"/><path d="m166.025589 116.58768 9.35069-3.062219 6.837112-1.822379-2.086301 4.675494z" fill="#d3e1ed"/><path d="m170.663837 123.569619-27.522544-6.744039 13.563909 11.076948 37.932416-5.862216z" fill="#798a80"/><path d="m122.448709 45.694756-16.463941-44.39768-3.572242 41.278899 18.472616 7.723271z" fill="#071a1a"/><path d="m115.457966 61.340116-8.572084-18.542179 4.898171-2.146261-10.564351 9.356047z" fill="#f19469"/><path d="m173.178175 160.569304-23.625079 19.107152 7.57301 19.122887 2.08209-34.002138z" fill="#718787"/><path d="m142.192165 171.713377-7.109066-13.368914-13.671844 8.989725 42.220305-4.892768z" fill="#3e271c"/><path d="m92.473794 148.744753 21.346346 14.201868-36.65209-15.557874-13.193273 9.455314z" fill="#0e221c"/><path d="m117.208688 38.424017 3.593226 29.231182-34.151278 6.300398 29.571069-9.584217z" fill="#11222d"/><path d="m122.146696 25.212485-12.119372-3.725397 15.822781 15.176085-12.55109-.497626z" fill="#3e566f"/><path d="m179.844173 179.884433-6.228531-4.300864-14.951309.280141 7.004351 9.361963z" fill="#cacbcd"/><path d="m102.298047 80.959514 1.379804 1.885475 2.093054-3.90397-2.631413-8.28122z" fill="#fceff2"/><path d="m28.041143 52.531054 35.000305 37.761684 3.423823-4.220835-11.471567-24.294664z" fill="#002638"/><path d="m87.134417 111.061551-3.41125-4.734048-2.431781 14.222714 6.096626-9.823832z" fill="#8cace1"/><path d="m183.645502 154.492302 16.279153 1.58681-18.164505 23.348539 11.468985-33.231732z" fill="#829196"/><path d="m62.09556 92.327163.676888 9.001974-11.101787-16.095491 9.568062 2.765928z" fill="#d4b788"/><path d="m158.30962 78.216411-2.174531-3.446486-38.132292-3.839493 42.118563 12.919154z" fill="#c5cac7"/><path d="m226.754722 74.412807-11.706757-17.173633 33.232618 31.546431 9.026129-104.785605z" fill="#001312"/><path d="m184.68287 117.755172-3.318905-6.026051 24.037179-45.96955-13.829997 29.189044z" fill="#002026"/><path d="m176.699497 161.035665 14.519429 5.680391 4.686569 2.23199-22.181236 8.057932z" fill="#3a5051"/><path d="m96.005123 201.041141-14.064845-49.676632 9.569653 2.315816-31.568696 34.698293z" fill="#6a8390"/><path d="m155.792289 154.879287 24.235683-19.13915 14.158993-6.792466-37.689474 26.912038z" fill="#bc8984"/><path d="m100.740315-16-7.941581 47.743236-67.025136-35.739188 146.542119 8.174133z" fill="#001415"/><path d="m139.113965 40.068208 6.53651.311521-1.919062-.097276-.935221 9.201282z" fill="#40b0e1"/><path d="m209.783671-16-7.577739 67.728771-17.613121-13.589166 44.960549 3.404846z" fill="#001011"/><path d="m221.832176 153.017914-3.627501 19.557867 1.704737-.199449-17.70933-14.654092z" fill="#0d4c88"/><path d="m82.80666 90.371565 17.322389 27.521137-.103939 4.628031-39.653838-66.358661z" fill="#92482f"/><path d="m93.32648 138.581983 2.307254 12.741238 9.780646-1.945585-34.088148-16.61655z" fill="#775c4a"/><path d="m60.317535 161.591385-4.776158 2.842907-.579578 2.781599 19.757413-3.817267z" fill="#142d2e"/><path d="m180.055216 117.78688-37.221723 1.664202-.225929-1.217064 19.056518-2.218206z" fill="#163430"/><path d="m124.002758 70.601102-13.283447 6.778196-5.815373-16.914648-1.977307 7.322488z" fill="#479de1"/><path d="m234.00673 34.897846-4.06928 28.29817 1.259399-12.545195-.365285-29.674173z" fill="#4f5562"/><path d="m93.844409 148.468415-24.154671-9.833587 45.034449 10.337387-3.841555-6.914945z" fill="#a96545"/><path d="m201.196185 36.187256-2.315512-18.47494 4.904098 22.040357 2.822432-55.752673z" fill="#8d5f4d"/><path d="m63.124647 124.256116 31.627441 9.290005-31.358893-2.861868 16.999958 10.860499z" fill="#dccbc9"/><path d="m135.304807 73.808675 5.14357.210128 2.550617-2.642622-9.0722-2.20428z" fill="#2f1a02"/><path d="m34.326991 50.735734 2.16249-12.280073-13.593861 11.272513-32.031577 7.110295z" fill="#a99c7d"/><path d="m111.147665 104.680948 59.202427-7.409124-43.734889.487775-21.078664 34.71865z" fill="#9cb1b0"/><path d="m130.171287 43.204982 14.425084 4.441147-3.772316 1.744901-16.765089-4.324717z" fill="#9d4e2f"/><path d="m46.979232 49.563977 3.528367-7.086577 3.429652-3.537428-7.89724-1.042287z" fill="#a37e54"/><path d="m115.433337 94.014577-9.122518 19.895349-9.971704-8.702243 14.451311-6.429845z" fill="#e3e0df"/><path d="m36.26386-16-2.361082 36.163724.172978 5.183194 3.052737 28.98985z" fill="#8a5d4e"/><path d="m199.206365 49.262168 19.584334 16.028521 9.599702 17.713949 1.81312-4.565372z" fill="#96a2a6"/><path d="m205.702912 209h-16.932994l-14.360486-17.79826 8.338697-.366085z" fill="#bac3cd"/><path d="m187.079885 22.633645.974944-8.669034-18.979063-6.377158-8.570512 13.851892z" fill="#b47868"/><path d="m173.50195 62.138907-69.75313-59.324052 40.781016 37.294646-4.128497 23.110138z" fill="#001819"/><path d="m65.952759 81.02474.597222 31.188644 21.203841-6.130359-25.093479-2.941997z" fill="#a80018"/><path d="m243.354137 117.671623 3.962766 42.407645-48.818637-14.031515 12.379918-51.783635z" fill="#001313"/><path d="m113.314815 136.205111 37.563733-3.085002-17.611306-21.56204-48.940442 20.801832z" fill="#b1c3c0"/><path d="m163.442484 85.845213 34.376555-5.446602-31.451888 3.80725-14.205693-23.757715z" fill="#593e2b"/><path d="m148.943502 158.726613 35.176307-28.500457-31.071604 21.107443.680313-4.9219z" fill="#181e1b"/><path d="m137.72637 57.7513-5.249443-9.716335-5.328567-.129327 4.351117 13.399302z" fill="#dfcccc"/><path d="m206.535073 112.792604-7.718295 31.896507-6.346253-24.669314 10.60749-11.782408z" fill="#854c3b"/><path d="m99.365134 2.870907-.470196 44.19298-1.476024-20.035552 2.11285-43.028335z" fill="#ddab99"/><path d="m120.960627 53.939981-8.293664 11.758206 6.684098-8.086517 4.840795 18.155116z" fill="#6392c6"/><path d="m87.813831 68.856377-24.151353 4.34669 9.241436-16.094809 16.301311 18.041792z" fill="#d0885d"/><path d="m69.413254 123.485457 25.182799 4.030846 4.886543-3.198231-22.922436-1.413128z" fill="#262d1e"/><path d="m84.621267 144.816049 26.778192-6.968356-9.104105 7.572125-28.813366-8.328434z" fill="#dcbbb0"/><path d="m24.067393 31.960799-26.641309-47.960799 14.823597 46.519461-28.249681 35.633094z" fill="#1e3a50"/><path d="m136.767826 82.874826-4.577395-6.59689-8.607288 10.542075-29.169464 5.423611z" fill="#383124"/><path d="m79.381374 83.599976 4.696557 18.250712-14.785372-10.734124 9.906083 16.463217z" fill="#ff8898"/><path d="m196.54846 53.954225-7.561045 11.46595-.120795-7.071258 3.826655-8.967174z" fill="#f4c7b4"/><path d="m107.420571 84.200144 21.164314 2.99614-9.997606-10.324922-14.345037 9.416052z" fill="#d0977f"/><path d="m217.143665 55.732348 7.493474 2.51917 16.94038 42.142024-28.121688-92.411015z" fill="#001519"/><path d="m154.629034 87.304688 5.813987 6.782348 13.687079-1.485565-16.352963-4.953217z" fill="#322a1a"/><path d="m127.410315 40.526748-28.048459-49.267852 35.992104-7.258896 4.844403 59.12431z" fill="#001618"/><path d="m112.436513 186.967422-43.642063-7.320447 53.472468 29.353025h-12.398861z" fill="#8aa3b7"/><path d="m-16 146.994056 49.893219 12.142329 12.498488-26.914133-24.468819-75.05391z" fill="#001316"/><path d="m74.820016 147.698127-7.910436-2.915589-17.289265-12.916672 51.02685 16.952025z" fill="#5d3315"/><path d="m186.666416 91.123188 6.808054 9.228816-1.070729-13.211742 11.126789-28.78069z" fill="#0b536d"/><path d="m35.011289-16 19.269583 65.666441 29.848517-14.729604-20.002243-7.926364z" fill="#00181b"/><path d="m76.227441 152.769237 17.229247-1.017185-50.128189-11.542368 22.701795 11.039961z" fill="#0e1610"/><path d="m202.491853 114.921475-81.502847 49.689406 41.102613-25.105752-32.592532 27.569274z" fill="#996762"/><path d="m152.604122 96.89169.051708-16.150682 13.335237.880032-36.156156 13.389606z" fill="#e4e1e8"/><path d="m169.733026 3.470248-20.828837-19.470248 31.70193 13.542009-3.881904 4.990123z" fill="#f3edf6"/><path d="m158.169013 181.870859-12.307432 5.194682-3.249619 21.934459-2.929176-35.907436z" fill="#a3b4c0"/><path d="m186.016334 156.531609 15.974304 3.139532-3.594551-5.395265-17.271892 9.470873z" fill="#7e929b"/><path d="m266.402784 138.919566 4.597216 8.434855-22.43339-4.000982 22.43339-8.603969z" fill="#a2000e"/><path d="m106.240569 62.485784-5.644908-15.24209 14.779552 19.274531 4.210087-20.299517z" fill="#b16046"/><path d="m150.615117 27.925851 22.195639 10.377175 21.8331 11.637298-27.897113-25.940992z" fill="#0a1d1d"/><path d="m16.487198 47.304497-19.592401 9.851771 23.442169-3.036458-36.336966 29.946091z" fill="#6b897b"/><path d="m96.947634 124.249143 9.693155-9.048118 2.229603 5.456861-20.884918 5.145163z" fill="#5c4639"/><path d="m88.13004 77.865507 8.799775-15.723003-2.985067 19.36509-34.275873-11.303396z" fill="#081310"/><path d="m249.77888 176.18556 1.139363-30.317536-5.014526-.921087 4.058877 27.607953z" fill="#054c82"/><path d="m133.751929 146.554581-26.513768 12.034292 21.620357.170202 15.468749-5.06283z" fill="#8d9fa1"/><path d="m114.495385 161.961339-27.994143 20.877666-29.441742-12.63479 20.1433-6.235101z" fill="#758583"/><path d="m192.261598 152.052843 18.755934 7.346393 7.362363-20.396608-13.65876-7.247757z" fill="#001216"/><path d="m224.911341 59.842612 5.332347 14.627821-16.013844-23.26407-26.690898-1.627891z" fill="#bc9572"/><path d="m93.911176 120.289857-37.285478-3.384347 27.593851-2.592077-1.973726 9.761177z" fill="#dbb5a4"/><path d="m162.045738 92.037205-46.823315 2.336581-15.227542-11.149173 19.453805 10.956543z" fill="#c4a8a0"/><path d="m107.916285 41.302067 6.487358 25.350131 1.837754-20.145215-15.090648 8.444519z" fill="#e39373"/><path d="m142.842756 167.517364 86.946806-39.097795-81.396869 41.778536-15.885482.925796z" fill="#141b15"/><path d="m65.705371 137.102563-3.490467-18.233844-5.730139-33.082322-15.470499-2.472361z" fill="#b87d4f"/><path d="m142.951412 189.189722 47.915819-10.027085-4.323111-1.330721-22.562441 28.200109z" fill="#496062"/><path d="m151.689938 73.987645 24.616003-5.773324.859024 3.828528-19.465508-5.026019z" fill="#b4552e"/><path d="m-16 5.654715 21.164614 32.32792.570438 9.376531 6.244892-21.805993z" fill="#5b6a89"/><path d="m27.227527 25.161953 7.656549 16.190771-29.301255 6.992065 4.740373-3.513893z" fill="#00171b"/><path d="m119.404214 73.261963-15.844924-14.147296-10.107144-3.93483 28.32533 12.932848z" fill="#04283d"/><path d="m139.508553 37.222368 2.334475-31.949202-.598872-21.273166-4.364387 43.998109z" fill="#44291a"/><path d="m219.548161 66.75692-7.741635 32.773657-23.226582.021286 8.093619-24.283583z" fill="#00232c"/><path d="m196.020956 128.968391-29.096112 17.64376 1.41676 6.854298 14.066353-9.581934z" fill="#a35f4c"/><path d="m77.652126 48.799708-13.249265 17.997455.29478 7.941014 5.427878-26.473253z" fill="#8f6b4c"/><path d="m122.698725 53.11122 3.396715 15.678686 7.202485-.543004-26.244359-33.877606z" fill="#6a371d"/><path d="m-3.150331 209 58.687437-32.837975-9.094352-19.11978-10.023538 22.024162z" fill="#81917d"/><path d="m111.649469 78.215929 13.938903-10.522107 1.876128.405809-10.046735 11.568534z" fill="#b0c9ed"/><path d="m177.48825 122.868035-73.361845 4.22985-4.600588-11.534412.758014 21.396572z" fill="#b3bdbb"/><path d="m11.087179 57.416537 19.545053-8.073019-28.839502 5.050838-1.284214 1.464522z" fill="#9eb3a2"/><path d="m196.794606 157.079961.59609 5.298017-.073645 9.942829 13.504486-3.610027z" fill="#333625"/><path d="m75.191944 60.791005.923579-13.478068 1.855886 2.085508-10.245628 12.684705z" fill="#c9a490"/><path d="m90.581383 37.194459 10.990393 19.914747-33.334327-2.936725 13.85443-6.446682z" fill="#071c1a"/><path d="m-16 90.184541 52.519442 39.276333-.663838-81.0301-24.797131 13.051248z" fill="#001417"/><path d="m141.017779 15.566305 5.583654-20.00815 8.521746 11.816257-.419542 14.235397z" fill="#00100e"/><path d="m178.68683 67.646386 2.197534-.374356-7.428762 3.778923-7.851991-10.826375z" fill="#c8764e"/><path d="m181.407068 91.546335-.352949-10.403683-2.238557 6.133394-13.81188 14.334099z" fill="#ffb894"/><path d="m144.437291 129.095783 6.928984-2.537202-21.235851 28.804495 38.26225-23.576426z" fill="#d7d7db"/><path d="m97.002863 65.399525-7.200975 3.304418-4.308161 15.393626 10.096901-2.681576z" fill="#001015"/><path d="m255.103226 178.757748-4.873683-30.589542 20.770457-17.561763-14.038386 11.775791z" fill="#000a07"/><path d="m18.529796 165.464909-5.716242 5.760369-28.813554-34.781771 26.809128 24.61412z" fill="#00519f"/><path d="m142.257259 84.998017-21.309485 5.81913 38.39845-5.439206-25.464383-6.29574z" fill="#a2aaab"/><path d="m191.647564 147.159359-8.222364 7.553209 14.656528 26.114421.487292-3.654487z" fill="#869392"/><path d="m37.989821 144.825425.526886 3.867167 11.536299-14.474894-10.772141 23.221315z" fill="#9d0520"/><path d="m187.278862 45.198062-20.845175 9.516103 24.936873 1.932729-32.363068-31.300669z" fill="#051818"/><path d="m137.170147 112.595584 32.348196-19.186975-51.968748 14.110597 23.593841 16.97716z" fill="#c3cad1"/><path d="m49.626922 156.419206 5.569587.02118.641737 6.138621 11.693709-11.41337z" fill="#bccbc5"/><path d="m129.73929 173.119928-7.290647 7.925921-25.244247 10.12117 3.5484-2.489652z" fill="#bdc4ca"/><path d="m207.12066 53.168385 19.884411 19.809832-22.023639-14.929863 18.242819 1.341942z" fill="#96abb1"/><path d="m88.278727 105.755808 6.807561 7.422858-8.327238-.913265-1.184362-2.978932z" fill="#15222d"/></g></svg>