<svg xmlns="http://www.w3.org/2000/svg" version="1.1" width="1024" height="776">
<rect x="0" y="0" width="1024" height="776" fill="#474a48" />
<g transform="scale(4.000000) translate(0.5 0.5)">
<polygon fill="#c7c0b9" fill-opacity="0.501961" points="199.679773,105.257465,186.893596,209.000000,15.515564,193.155688,127.938534,53.577618" />
<polygon fill="#000005" fill-opacity="0.501961" points="271.000000,189.649289,123.508373,169.891817,189.220525,142.035012,243.150959,-16.000000" />
<polygon fill="#000000" fill-opacity="0.501961" points="-16.000000,75.749071,-9.398277,201.237326,35.330384,156.786448,70.827309,33.557632" />
<polygon fill="#f2a696" fill-opacity="0.501961" points="32.883442,88.362437,50.508104,136.054636,174.633496,146.674999,76.618354,78.810783" />
<polygon fill="#000004" fill-opacity="0.501961" points="167.609706,1.159009,57.777874,-16.000000,-16.000000,4.049675,84.222374,62.457750" />
<polygon fill="#d2e7ed" fill-opacity="0.501961" points="158.057458,95.053034,149.367283,67.289559,94.701492,140.031268,139.155369,159.187774" />
<polygon fill="#000000" fill-opacity="0.501961" points="201.436649,48.191318,124.448670,72.559558,244.602787,-16.000000,271.000000,49.554874" />
<polygon fill="#000300" fill-opacity="0.501961" points="125.974021,158.632701,-0.348038,144.436767,-16.000000,47.224188,58.779254,133.287933" />
<polygon fill="#111004" fill-opacity="0.501961" points="137.864311,121.315995,163.329794,120.215557,271.000000,54.221893,144.839844,111.867483" />
<polygon fill="#ffb086" fill-opacity="0.501961" points="96.607161,47.487746,147.076912,52.262281,104.923176,59.690723,98.428303,-16.000000" />
<polygon fill="#8cadac" fill-opacity="0.501961" points="207.201300,180.865702,73.373969,193.722032,117.696656,195.795760,193.076530,145.919135" />
<polygon fill="#b74834" fill-opacity="0.501961" points="73.583926,40.664060,87.090226,91.272188,158.882877,67.153712,42.741854,135.124623" />
<polygon fill="#c7c2bb" fill-opacity="0.501961" points="214.108379,50.074391,228.651455,64.557164,186.907978,65.372773,186.727122,48.461045" />
<polygon fill="#000f17" fill-opacity="0.501961" points="246.761366,72.626315,256.601875,199.459683,209.992549,209.000000,200.541662,61.543578" />
<polygon fill="#af553b" fill-opacity="0.501961" points="202.383682,131.461287,132.048255,175.800666,200.797728,101.088338,209.941200,98.993576" />
<polygon fill="#d3e1e5" fill-opacity="0.501961" points="192.850963,121.295312,163.634383,140.479992,115.635431,153.709868,156.421584,118.604678" />
<polygon fill="#e29180" fill-opacity="0.501961" points="195.098301,20.108691,153.968090,23.994310,166.012798,4.046665,161.796449,-16.000000" />
<polygon fill="#001210" fill-opacity="0.501961" points="115.397253,86.033137,98.489759,102.843643,91.246561,94.236785,78.220654,71.956632" />
<polygon fill="#191208" fill-opacity="0.501961" points="177.952129,130.571091,168.457423,162.397219,241.878887,120.313330,144.566011,155.493297" />
<polygon fill="#486a62" fill-opacity="0.501961" points="-16.000000,201.308003,31.046837,164.911851,124.089074,152.413440,47.075172,209.000000" />
<polygon fill="#000f12" fill-opacity="0.501961" points="169.023938,-16.000000,102.285407,-9.092623,107.605703,46.659212,139.461315,43.243134" />
<polygon fill="#00191b" fill-opacity="0.501961" points="67.341264,-0.677848,65.150408,91.114790,25.430121,69.879591,4.677851,-4.885616" />
<polygon fill="#d7ca9c" fill-opacity="0.501961" points="49.901949,47.071763,51.679627,43.461674,31.019654,42.928431,-15.226415,61.981300" />
<polygon fill="#000d0e" fill-opacity="0.501961" points="259.048501,-16.000000,153.255331,-16.000000,201.905735,16.435865,246.079511,101.797940" />
<polygon fill="#ee9974" fill-opacity="0.501961" points="134.779055,47.233993,146.171832,76.551643,112.038532,49.543815,75.326156,69.476284" />
<polygon fill="#d1b7a9" fill-opacity="0.501961" points="85.924738,107.747498,182.896472,77.716161,181.960732,100.877681,155.112014,73.628198" />
<polygon fill="#f3735f" fill-opacity="0.501961" points="88.897553,97.830216,46.498109,101.811132,94.495672,66.430235,66.736904,49.615003" />
<polygon fill="#1e2006" fill-opacity="0.501961" points="92.852155,127.782808,69.002186,124.811701,64.021163,120.208110,109.986441,120.245367" />
<polygon fill="#97c1eb" fill-opacity="0.501961" points="105.975671,75.539945,140.405120,98.104078,102.041912,57.773008,100.901261,87.491880" />
<polygon fill="#004fb8" fill-opacity="0.501961" points="23.986503,169.258935,2.089333,177.496658,-1.864036,148.034769,17.487376,166.144264" />
<polygon fill="#171208" fill-opacity="0.501961" points="139.371425,74.867269,194.001037,72.323644,174.369769,83.842705,144.719629,30.217618" />
<polygon fill="#8f0015" fill-opacity="0.501961" points="62.908035,86.878962,78.109153,104.840946,102.180928,113.621608,63.413471,112.618884" />
<polygon fill="#d9d9d5" fill-opacity="0.501961" points="179.312642,96.439664,166.915522,95.410370,92.456360,104.004302,115.521839,120.010719" />
<polygon fill="#3d7b93" fill-opacity="0.501961" points="186.331042,79.369386,224.763336,61.477162,231.761642,91.389309,198.552057,47.388581" />
<polygon fill="#4e1e0c" fill-opacity="0.501961" points="51.775684,128.222946,38.490389,148.398050,115.409115,147.165456,112.345955,166.435185" />
<polygon fill="#001e2c" fill-opacity="0.501961" points="184.496844,113.465171,180.604063,74.726820,226.690474,73.961505,189.969635,103.245444" />
<polygon fill="#d56e40" fill-opacity="0.501961" points="157.111230,68.354370,186.934923,99.714795,162.425072,106.424262,177.292832,62.029756" />
<polygon fill="#89a6b4" fill-opacity="0.501961" points="68.599281,191.855000,71.939728,165.829187,116.884595,163.257079,157.669061,185.000192" />
<polygon fill="#00090c" fill-opacity="0.501961" points="184.960721,47.744094,186.857577,109.603489,174.761298,27.714043,137.345124,19.893308" />
<polygon fill="#001118" fill-opacity="0.501961" points="-16.000000,74.999346,24.561985,176.079514,38.369655,81.905873,86.971639,34.211146" />
<polygon fill="#487072" fill-opacity="0.501961" points="145.715617,196.926592,221.712808,150.404388,222.933896,158.709510,190.370510,209.000000" />
<polygon fill="#e3d9d9" fill-opacity="0.501961" points="105.091597,92.724301,163.912411,81.071539,124.404912,69.808695,167.486747,99.503240" />
<polygon fill="#9c7162" fill-opacity="0.501961" points="63.221312,21.465696,84.002694,27.507878,157.032481,76.298908,125.968129,70.634741" />
<polygon fill="#000e10" fill-opacity="0.501961" points="201.618307,205.371269,268.559659,191.433104,192.149602,79.788198,254.625339,96.172950" />
<polygon fill="#cfd0cf" fill-opacity="0.501961" points="57.992911,113.246889,95.124340,115.106084,72.439103,131.806936,135.539850,149.363236" />
<polygon fill="#90a28c" fill-opacity="0.501961" points="49.161530,143.181107,78.127336,157.693873,59.793374,155.270589,18.411167,209.000000" />
<polygon fill="#ffa784" fill-opacity="0.501961" points="155.412163,41.114821,142.431912,32.622243,151.788751,28.428384,153.262895,27.084023" />
<polygon fill="#d6775a" fill-opacity="0.501961" points="190.170565,135.584811,187.144947,102.444722,212.944303,102.945629,153.858443,161.427536" />
<polygon fill="#678795" fill-opacity="0.501961" points="271.000000,87.135159,252.361115,76.556168,255.861023,132.219883,246.485551,136.088673" />
<polygon fill="#000e16" fill-opacity="0.501961" points="166.420599,66.673692,147.072308,66.647783,133.514840,49.158435,182.523558,41.061481" />
<polygon fill="#092839" fill-opacity="0.501961" points="142.682115,83.112762,105.257668,64.896209,82.545146,38.071997,139.639877,88.702624" />
<polygon fill="#d1a085" fill-opacity="0.501961" points="205.637763,47.219364,227.618334,77.083822,190.007919,43.698017,183.052232,67.034407" />
<polygon fill="#a25c1b" fill-opacity="0.501961" points="43.243225,122.985426,33.392846,89.397685,51.739180,92.206902,62.592109,140.087696" />
<polygon fill="#e28c6c" fill-opacity="0.501961" points="98.150039,46.734510,104.723369,9.769046,100.442982,-16.000000,97.847229,1.112492" />
<polygon fill="#e8edfc" fill-opacity="0.501961" points="127.826183,50.772718,124.774617,53.059359,139.751323,61.986200,134.052594,48.460707" />
<polygon fill="#637c8f" fill-opacity="0.501961" points="9.869694,59.461160,-1.994124,73.239641,12.681182,11.198978,-12.426708,5.204148" />
<polygon fill="#8e5f51" fill-opacity="0.501961" points="204.833033,38.761392,204.846051,2.457452,173.963977,41.443922,189.639432,9.149201" />
<polygon fill="#000d0f" fill-opacity="0.501961" points="-3.566757,-3.604228,95.790136,-16.000000,95.276333,41.310869,86.340406,27.816220" />
<polygon fill="#291e17" fill-opacity="0.501961" points="84.581018,91.163386,83.821474,104.843381,89.059179,114.590196,94.792934,112.093839" />
<polygon fill="#01202b" fill-opacity="0.501961" points="103.265340,-9.406003,122.562718,68.560781,102.614742,73.968514,150.437628,16.865729" />
<polygon fill="#000000" fill-opacity="0.501961" points="163.739843,93.662347,177.920292,90.521149,155.246780,90.022219,159.137149,94.037862" />
<polygon fill="#b2705a" fill-opacity="0.501961" points="35.051515,-10.639976,33.663312,33.182707,34.188193,51.170983,37.398510,13.523856" />
<polygon fill="#e7b480" fill-opacity="0.501961" points="82.063982,66.053683,67.167900,71.318070,64.071000,68.424229,73.238385,52.395832" />
<polygon fill="#d7fcff" fill-opacity="0.501961" points="148.269650,-16.000000,164.897970,-16.000000,181.330190,3.568519,170.278148,4.935392" />
<polygon fill="#fa8e62" fill-opacity="0.501961" points="114.109472,53.023228,117.192866,47.056814,98.402654,45.091912,116.985780,68.132949" />
<polygon fill="#111a11" fill-opacity="0.501961" points="91.800299,85.317392,134.234496,100.264245,89.854152,92.913618,91.080473,37.004506" />
<polygon fill="#2b4547" fill-opacity="0.501961" points="119.228464,159.846718,48.701789,162.409065,30.254269,158.474043,54.624790,170.296465" />
<polygon fill="#202a21" fill-opacity="0.501961" points="125.367695,161.766309,183.766770,172.616014,130.782373,170.633524,123.535942,168.488002" />
<polygon fill="#ff5668" fill-opacity="0.501961" points="67.859337,99.895320,62.871480,78.593664,80.747574,76.416158,83.761492,107.678584" />
<polygon fill="#07313a" fill-opacity="0.501961" points="186.673347,121.417935,180.559052,110.297207,183.958413,89.161380,190.622261,63.290729" />
<polygon fill="#43575f" fill-opacity="0.501961" points="232.202614,-11.445528,232.159480,66.004344,205.345119,54.399420,226.781565,74.483208" />
<polygon fill="#2c5055" fill-opacity="0.501961" points="180.181986,183.516490,165.366448,209.000000,93.046253,209.000000,155.678927,185.839413" />
<polygon fill="#c8cdd6" fill-opacity="0.501961" points="138.579236,186.589525,139.424127,177.336234,181.881940,176.457670,161.814814,186.585137" />
<polygon fill="#001b26" fill-opacity="0.501961" points="-3.559118,53.479073,32.707853,12.012634,33.977678,30.526568,28.577649,45.721005" />
<polygon fill="#603016" fill-opacity="0.501961" points="147.405730,122.871471,138.187468,116.850195,139.984200,113.040957,188.251632,99.211499" />
<polygon fill="#9bb6d9" fill-opacity="0.501961" points="101.518548,85.846073,101.726659,71.544352,123.285064,81.514504,126.601226,63.317153" />
<polygon fill="#c6d3d8" fill-opacity="0.501961" points="54.561533,128.574051,160.833806,127.937928,174.424555,128.208093,156.035565,144.659118" />
<polygon fill="#2b2626" fill-opacity="0.501961" points="147.063538,157.594307,159.530147,141.608178,186.136024,128.995136,166.974784,146.497758" />
<polygon fill="#e5ddd2" fill-opacity="0.501961" points="109.621571,109.916532,112.196523,87.042796,100.917941,113.576027,84.552587,90.059663" />
<polygon fill="#8c9c8e" fill-opacity="0.501961" points="200.250767,209.000000,207.757593,199.245580,175.616368,193.909680,194.521369,150.158139" />
<polygon fill="#00080b" fill-opacity="0.501961" points="83.741719,78.651357,94.546971,63.379857,97.359113,102.487600,87.350305,86.960706" />
<polygon fill="#005697" fill-opacity="0.501961" points="249.510885,145.544779,252.548195,161.809649,246.137788,174.057704,247.932991,144.299429" />
<polygon fill="#aab5b6" fill-opacity="0.501961" points="95.035507,209.000000,140.365295,95.602422,76.481868,143.459606,136.073364,147.024371" />
<polygon fill="#001213" fill-opacity="0.501961" points="250.808581,46.816890,248.883723,161.704845,190.811394,151.228898,201.726993,134.879760" />
<polygon fill="#003062" fill-opacity="0.501961" points="223.628473,168.859491,214.994063,185.584113,200.287451,156.870730,224.341200,147.058981" />
<polygon fill="#040e0a" fill-opacity="0.501961" points="87.735872,148.155378,113.379595,158.735055,73.194975,150.712990,27.277860,138.840132" />
<polygon fill="#a8a98b" fill-opacity="0.501961" points="44.185844,48.269301,14.450929,51.778491,2.641842,64.529437,54.744301,37.425636" />
<polygon fill="#96411f" fill-opacity="0.501961" points="169.674340,57.188441,178.846448,55.414468,177.708173,77.097638,158.955699,82.553455" />
<polygon fill="#001216" fill-opacity="0.501961" points="36.395768,56.139111,-16.000000,130.071650,21.286377,171.022610,38.544003,154.147448" />
<polygon fill="#c4bfb9" fill-opacity="0.501961" points="188.580676,116.532207,174.323894,112.558542,167.405821,115.076812,190.071972,123.297523" />
<polygon fill="#e0c2b9" fill-opacity="0.501961" points="167.690140,85.859642,182.043886,81.690575,181.543913,95.362168,128.823260,73.337100" />
<polygon fill="#765958" fill-opacity="0.501961" points="112.912813,25.182661,130.639110,49.760614,136.256641,46.909989,112.550372,22.045829" />
<polygon fill="#0e3cb7" fill-opacity="0.501961" points="208.041939,48.520601,218.596211,52.305469,213.880848,39.883011,207.363830,43.084548" />
<polygon fill="#48270c" fill-opacity="0.501961" points="65.472438,120.814707,63.678322,123.868896,93.463859,124.946535,72.502296,117.711925" />
<polygon fill="#000c0e" fill-opacity="0.501961" points="147.668484,-7.490267,157.913137,37.557818,185.022682,23.370245,153.126671,24.927729" />
<polygon fill="#c79f66" fill-opacity="0.501961" points="60.082343,88.965859,46.914522,86.016334,62.263269,127.029620,68.360630,142.347539" />
<polygon fill="#b40023" fill-opacity="0.501961" points="43.139127,151.918842,50.792220,140.991966,40.508822,142.847535,36.591275,154.322170" />
<polygon fill="#b89a9b" fill-opacity="0.501961" points="139.769414,166.456344,127.822116,141.181748,129.631142,157.705746,162.192477,154.977287" />
<polygon fill="#00161c" fill-opacity="0.501961" points="66.949853,85.311657,-16.000000,80.107610,74.423337,32.420757,61.759069,78.288924" />
<polygon fill="#4f91be" fill-opacity="0.501961" points="138.993988,48.939840,141.879191,38.193783,169.526103,42.528528,153.236148,33.562185" />
<polygon fill="#000f0f" fill-opacity="0.501961" points="77.238249,57.873938,78.765416,45.780052,93.952059,37.826613,95.087720,61.317630" />
<polygon fill="#63a2c3" fill-opacity="0.501961" points="205.690477,63.261067,189.798473,77.876070,194.378794,62.381409,209.193091,54.877327" />
<polygon fill="#001d22" fill-opacity="0.501961" points="199.159760,71.602867,221.707910,149.549090,225.721819,76.479310,212.008608,61.112404" />
<polygon fill="#00181e" fill-opacity="0.501961" points="233.111139,35.282033,155.822987,32.978178,192.336540,54.871188,134.438057,52.830204" />
<polygon fill="#000207" fill-opacity="0.501961" points="64.552006,111.872881,67.750541,105.061433,62.427586,100.125892,61.296953,102.297295" />
<polygon fill="#051412" fill-opacity="0.501961" points="115.421770,0.191864,178.159069,4.957174,197.483474,-16.000000,268.092991,17.485683" />
<polygon fill="#3a5862" fill-opacity="0.501961" points="102.135167,201.697827,11.590333,209.000000,69.600375,169.118993,62.594193,187.816952" />
<polygon fill="#4c2406" fill-opacity="0.501961" points="125.980916,67.579153,124.977291,62.520391,138.611489,73.346756,160.435973,72.685993" />
<polygon fill="#6288a6" fill-opacity="0.501961" points="90.530181,34.108674,69.809561,29.636430,67.083974,24.377781,92.622194,30.769253" />
<polygon fill="#0a73c0" fill-opacity="0.501961" points="119.812724,73.851422,105.695556,61.259245,101.226325,57.820026,105.272540,75.662987" />
<polygon fill="#b86548" fill-opacity="0.501961" points="186.733105,104.498353,197.097633,141.214668,210.084137,102.624371,198.968621,100.357798" />
<polygon fill="#442414" fill-opacity="0.501961" points="204.774072,140.104349,194.639906,129.060695,169.218484,152.732660,142.022049,174.255081" />
<polygon fill="#e6002c" fill-opacity="0.501961" points="65.233286,100.866407,71.979089,113.918475,80.706374,112.238861,64.207392,80.596611" />
<polygon fill="#00161b" fill-opacity="0.501961" points="100.340478,97.521440,107.270856,93.058170,110.391838,79.211244,106.250117,78.246315" />
<polygon fill="#b27658" fill-opacity="0.501961" points="75.619001,143.252477,67.042240,134.894248,74.765809,131.585747,113.494254,149.950076" />
<polygon fill="#b7c5d0" fill-opacity="0.501961" points="83.704936,185.119686,117.074358,179.349564,142.369994,175.884103,111.762502,186.041940" />
<polygon fill="#768aa1" fill-opacity="0.501961" points="173.271431,36.058411,189.925541,23.541155,187.296633,21.436429,177.590418,26.417988" />
<polygon fill="#6f6e4a" fill-opacity="0.501961" points="14.419019,176.111747,-5.474715,209.000000,31.349681,181.541561,51.081265,151.296737" />
<polygon fill="#a8aea9" fill-opacity="0.501961" points="54.026673,164.205595,67.377895,153.569688,56.752903,147.712825,45.110008,144.155595" />
<polygon fill="#e1d3cf" fill-opacity="0.501961" points="112.529857,118.650815,169.760613,99.638653,181.498501,90.356757,123.780945,109.170707" />
<polygon fill="#ad9f83" fill-opacity="0.501961" points="271.000000,107.181742,268.697331,82.164571,255.745134,134.204684,246.920287,132.593687" />
<polygon fill="#476363" fill-opacity="0.501961" points="140.127919,174.127793,175.212205,175.957477,185.309621,174.492788,184.503763,158.141637" />
<polygon fill="#001016" fill-opacity="0.501961" points="221.400179,171.936688,271.000000,184.427881,212.701221,209.000000,205.312397,163.111062" />
<polygon fill="#985b3b" fill-opacity="0.501961" points="96.451452,103.428707,97.691708,58.886256,71.535656,66.778577,100.829339,66.918085" />
<polygon fill="#d8a37e" fill-opacity="0.501961" points="188.495689,58.490833,206.325619,45.916571,229.894920,68.730263,213.779903,51.046390" />
<polygon fill="#08110b" fill-opacity="0.501961" points="177.167285,83.696016,190.000943,68.982695,194.805462,59.228562,175.683875,77.068003" />
<polygon fill="#be7249" fill-opacity="0.501961" points="162.195452,106.693704,191.257437,95.735513,153.238340,104.437377,141.961675,115.533672" />
<polygon fill="#864c3e" fill-opacity="0.501961" points="152.481933,30.391959,160.424950,20.186103,171.398662,1.378477,155.315713,5.812743" />
<polygon fill="#d3946e" fill-opacity="0.501961" points="101.258440,56.830423,93.804760,66.693199,74.059526,56.506524,65.606245,71.257051" />
<polygon fill="#663b2a" fill-opacity="0.501961" points="210.138407,-16.000000,201.816302,28.609755,176.088098,5.423454,199.021749,6.871107" />
<polygon fill="#efc7cc" fill-opacity="0.501961" points="84.679256,112.487651,60.154357,114.508274,80.727336,118.769834,97.755986,121.808204" />
<polygon fill="#ecd3ce" fill-opacity="0.501961" points="127.151045,79.871356,105.963677,76.394167,154.820346,95.256639,124.201018,92.235354" />
<polygon fill="#dd9e83" fill-opacity="0.501961" points="188.097897,40.679669,199.193163,53.027995,189.281119,65.275189,187.964250,65.971587" />
<polygon fill="#332419" fill-opacity="0.501961" points="98.895681,75.170438,78.739922,63.342357,93.510668,65.428616,103.528830,59.338984" />
<polygon fill="#e7d5ca" fill-opacity="0.501961" points="92.803197,136.928791,66.081306,130.576204,60.339831,126.064855,79.149683,125.391715" />
<polygon fill="#001013" fill-opacity="0.501961" points="204.766377,-16.000000,271.000000,-2.857902,191.082896,53.749530,205.935653,46.872027" />
<polygon fill="#00171a" fill-opacity="0.501961" points="79.590502,77.882693,-16.000000,69.122488,67.290147,87.949779,50.158459,65.072376" />
<polygon fill="#004382" fill-opacity="0.501961" points="23.779787,169.687998,-2.737257,148.750874,5.764269,169.574076,6.630577,184.594810" />
<polygon fill="#dbd3d9" fill-opacity="0.501961" points="168.193160,135.777363,181.950120,126.522726,85.356410,142.317567,142.618798,146.492370" />
<polygon fill="#182927" fill-opacity="0.501961" points="105.774538,162.766933,91.381447,162.401263,115.747099,153.236107,117.911437,142.727547" />
<polygon fill="#214d6c" fill-opacity="0.501961" points="163.038911,50.445515,143.041590,38.142112,163.530864,38.956888,190.200311,24.862900" />
<polygon fill="#d1d6d5" fill-opacity="0.501961" points="101.173213,96.485432,101.649896,128.525590,99.218015,110.401615,114.163862,97.250413" />
<polygon fill="#0b110c" fill-opacity="0.501961" points="182.740223,22.616907,136.639608,30.671514,142.348125,58.226280,120.162913,27.143490" />
<polygon fill="#728483" fill-opacity="0.501961" points="65.928056,179.908857,133.009323,152.799670,114.837148,179.632633,96.430483,181.628500" />
<polygon fill="#001213" fill-opacity="0.501961" points="45.471182,-5.770879,62.223508,29.448787,8.681821,63.845082,23.918936,99.380266" />
<polygon fill="#ee7b6a" fill-opacity="0.501961" points="65.376048,79.370023,76.000127,108.800790,87.627029,90.063554,81.985833,77.537797" />
<polygon fill="#596644" fill-opacity="0.501961" points="182.771521,178.480681,196.155366,179.981161,199.352159,155.264268,214.000776,209.000000" />
<polygon fill="#001515" fill-opacity="0.501961" points="158.087259,63.369232,197.182039,37.358811,201.856695,-2.035450,197.484643,16.842489" />
<polygon fill="#597777" fill-opacity="0.501961" points="133.244982,173.791091,139.262058,195.706314,115.027261,187.144640,157.988588,167.931048" />
<polygon fill="#271100" fill-opacity="0.501961" points="165.820611,93.040583,173.710613,92.124173,176.023390,88.750744,154.629622,90.431351" />
<polygon fill="#3a3f2b" fill-opacity="0.501961" points="124.639685,100.892218,130.526155,94.946390,118.606187,97.042259,112.469295,101.104071" />
<polygon fill="#d07750" fill-opacity="0.501961" points="148.565255,40.524633,148.507421,37.380550,134.469201,30.061994,157.636115,30.468553" />
<polygon fill="#001215" fill-opacity="0.501961" points="-8.099628,127.924152,-16.000000,143.218295,28.304745,167.495699,49.110172,129.319769" />
<polygon fill="#001113" fill-opacity="0.501961" points="167.486682,50.779651,145.355209,41.957521,146.336635,67.398062,168.402573,67.966294" />
<polygon fill="#1f4259" fill-opacity="0.501961" points="271.000000,54.292543,252.884553,26.177349,250.333118,53.552895,253.215887,129.606673" />
<polygon fill="#53220d" fill-opacity="0.501961" points="177.386623,78.516685,150.384940,67.245325,160.749549,78.747528,171.591632,82.662768" />
<polygon fill="#201814" fill-opacity="0.501961" points="153.721436,154.268973,146.705110,147.872483,144.986365,153.252563,163.908717,147.102795" />
<polygon fill="#0d3543" fill-opacity="0.501961" points="96.704015,35.432032,90.112650,44.583636,71.922320,48.523330,75.924143,31.097729" />
<polygon fill="#001515" fill-opacity="0.501961" points="201.997302,72.648225,184.724458,100.558176,254.794767,103.381253,232.780234,198.734272" />
<polygon fill="#90462a" fill-opacity="0.501961" points="103.733974,49.403115,94.841954,100.893228,98.980976,55.566967,101.961938,-16.000000" />
<polygon fill="#eadfe3" fill-opacity="0.501961" points="112.488032,93.465070,157.345194,85.602851,140.876163,96.924155,109.414784,88.011946" />
<polygon fill="#d28967" fill-opacity="0.501961" points="124.586187,51.297960,120.530300,61.561662,153.131211,72.671027,144.183882,66.440277" />
<polygon fill="#709aae" fill-opacity="0.501961" points="205.206374,54.483484,228.996652,78.680087,214.904954,58.025155,205.654626,64.104453" />
<polygon fill="#382b1d" fill-opacity="0.501961" points="142.904633,122.590995,187.870405,107.886219,154.087619,108.741803,140.407522,121.158125" />
<polygon fill="#0b1a18" fill-opacity="0.501961" points="195.107260,58.737106,188.544902,76.651354,172.183048,24.224554,180.442570,75.802096" />
<polygon fill="#8e502a" fill-opacity="0.501961" points="70.547781,139.037311,44.381567,132.705458,34.922272,89.486178,63.800366,131.099782" />
<polygon fill="#b97350" fill-opacity="0.501961" points="169.402820,55.164813,172.625335,75.829350,176.937286,68.333605,175.769618,55.834097" />
<polygon fill="#1e3331" fill-opacity="0.501961" points="211.870092,54.830832,241.566099,80.395782,208.523844,56.954073,270.420745,18.685605" />
<polygon fill="#6d8c9e" fill-opacity="0.501961" points="182.051523,105.401232,179.188762,106.303383,184.879538,95.199602,186.051753,100.393605" />
<polygon fill="#d07f64" fill-opacity="0.501961" points="182.509706,139.817614,188.834101,101.391035,212.080908,102.875907,196.854400,103.618167" />
<polygon fill="#343629" fill-opacity="0.501961" points="89.788492,129.584467,108.711124,118.875611,90.652107,124.207608,82.963988,124.152952" />
<polygon fill="#7e6751" fill-opacity="0.501961" points="111.228802,84.751318,154.843743,85.565600,114.414840,79.902988,128.628928,92.623233" />
<polygon fill="#d2cab6" fill-opacity="0.501961" points="216.555861,54.446533,210.797322,55.025186,221.027367,61.176912,226.218906,66.468889" />
<polygon fill="#001f3d" fill-opacity="0.501961" points="8.012054,172.874402,22.058232,168.848642,-12.404335,203.700545,-8.918538,153.762682" />
<polygon fill="#d3e1ed" fill-opacity="0.501961" points="166.025589,116.587680,175.376279,113.525461,182.213391,111.703082,180.127090,116.378576" />
<polygon fill="#798a80" fill-opacity="0.501961" points="170.663837,123.569619,143.141293,116.825580,156.705202,127.902528,194.637618,122.040312" />
<polygon fill="#071a1a" fill-opacity="0.501961" points="122.448709,45.694756,105.984768,1.297076,102.412526,42.575975,120.885142,50.299246" />
<polygon fill="#f19469" fill-opacity="0.501961" points="115.457966,61.340116,106.885882,42.797937,111.784053,40.651676,101.219702,50.007723" />
<polygon fill="#718787" fill-opacity="0.501961" points="173.178175,160.569304,149.553096,179.676456,157.126106,198.799343,159.208196,164.797205" />
<polygon fill="#3e271c" fill-opacity="0.501961" points="142.192165,171.713377,135.083099,158.344463,121.411255,167.334188,163.631560,162.441420" />
<polygon fill="#0e221c" fill-opacity="0.501961" points="92.473794,148.744753,113.820140,162.946621,77.168050,147.388747,63.974777,156.844061" />
<polygon fill="#11222d" fill-opacity="0.501961" points="117.208688,38.424017,120.801914,67.655199,86.650636,73.955597,116.221705,64.371380" />
<polygon fill="#3e566f" fill-opacity="0.501961" points="122.146696,25.212485,110.027324,21.487088,125.850105,36.663173,113.299015,36.165547" />
<polygon fill="#cacbcd" fill-opacity="0.501961" points="179.844173,179.884433,173.615642,175.583569,158.664333,175.863710,165.668684,185.225673" />
<polygon fill="#fceff2" fill-opacity="0.501961" points="102.298047,80.959514,103.677851,82.844989,105.770905,78.941019,103.139492,70.659799" />
<polygon fill="#002638" fill-opacity="0.501961" points="28.041143,52.531054,63.041448,90.292738,66.465271,86.071903,54.993704,61.777239" />
<polygon fill="#8cace1" fill-opacity="0.501961" points="87.134417,111.061551,83.723167,106.327503,81.291386,120.550217,87.388012,110.726385" />
<polygon fill="#829196" fill-opacity="0.501961" points="183.645502,154.492302,199.924655,156.079112,181.760150,179.427651,193.229135,146.195919" />
<polygon fill="#d4b788" fill-opacity="0.501961" points="62.095560,92.327163,62.772448,101.329137,51.670661,85.233646,61.238723,87.999574" />
<polygon fill="#c5cac7" fill-opacity="0.501961" points="158.309620,78.216411,156.135089,74.769925,118.002797,70.930432,160.121360,83.849586" />
<polygon fill="#001312" fill-opacity="0.501961" points="226.754722,74.412807,215.047965,57.239174,248.280583,88.785605,257.306712,-16.000000" />
<polygon fill="#002026" fill-opacity="0.501961" points="184.682870,117.755172,181.363965,111.729121,205.401144,65.759571,191.571147,94.948615" />
<polygon fill="#3a5051" fill-opacity="0.501961" points="176.699497,161.035665,191.218926,166.716056,195.905495,168.948046,173.724259,177.005978" />
<polygon fill="#6a8390" fill-opacity="0.501961" points="96.005123,201.041141,81.940278,151.364509,91.509931,153.680325,59.941235,188.378618" />
<polygon fill="#bc8984" fill-opacity="0.501961" points="155.792289,154.879287,180.027972,135.740137,194.186965,128.947671,156.497491,155.859709" />
<polygon fill="#001415" fill-opacity="0.501961" points="100.740315,-16.000000,92.798734,31.743236,25.773598,-3.995952,172.315717,4.178181" />
<polygon fill="#40b0e1" fill-opacity="0.501961" points="139.113965,40.068208,145.650475,40.379729,143.731413,40.282453,142.796192,49.483735" />
<polygon fill="#001011" fill-opacity="0.501961" points="209.783671,-16.000000,202.205932,51.728771,184.592811,38.139605,229.553360,41.544451" />
<polygon fill="#0d4c88" fill-opacity="0.501961" points="221.832176,153.017914,218.204675,172.575781,219.909412,172.376332,202.200082,157.722240" />
<polygon fill="#92482f" fill-opacity="0.501961" points="82.806660,90.371565,100.129049,117.892702,100.025110,122.520733,60.371272,56.162072" />
<polygon fill="#775c4a" fill-opacity="0.501961" points="93.326480,138.581983,95.633734,151.323221,105.414380,149.377636,71.326232,132.761086" />
<polygon fill="#142d2e" fill-opacity="0.501961" points="60.317535,161.591385,55.541377,164.434292,54.961799,167.215891,74.719212,163.398624" />
<polygon fill="#163430" fill-opacity="0.501961" points="180.055216,117.786880,142.833493,119.451082,142.607564,118.234018,161.664082,116.015812" />
<polygon fill="#479de1" fill-opacity="0.501961" points="124.002758,70.601102,110.719311,77.379298,104.903938,60.464650,102.926631,67.787138" />
<polygon fill="#4f5562" fill-opacity="0.501961" points="234.006730,34.897846,229.937450,63.196016,231.196849,50.650821,230.831564,20.976648" />
<polygon fill="#a96545" fill-opacity="0.501961" points="93.844409,148.468415,69.689738,138.634828,114.724187,148.972215,110.882632,142.057270" />
<polygon fill="#8d5f4d" fill-opacity="0.501961" points="201.196185,36.187256,198.880673,17.712316,203.784771,39.752673,206.607203,-16.000000" />
<polygon fill="#dccbc9" fill-opacity="0.501961" points="63.124647,124.256116,94.752088,133.546121,63.393195,130.684253,80.393153,141.544752" />
<polygon fill="#2f1a02" fill-opacity="0.501961" points="135.304807,73.808675,140.448377,74.018803,142.998994,71.376181,133.926794,69.171901" />
<polygon fill="#a99c7d" fill-opacity="0.501961" points="34.326991,50.735734,36.489481,38.455661,22.895620,49.728174,-9.135957,56.838469" />
<polygon fill="#9cb1b0" fill-opacity="0.501961" points="111.147665,104.680948,170.350092,97.271824,126.615203,97.759599,105.536539,132.478249" />
<polygon fill="#9d4e2f" fill-opacity="0.501961" points="130.171287,43.204982,144.596371,47.646129,140.824055,49.391030,124.058966,45.066313" />
<polygon fill="#a37e54" fill-opacity="0.501961" points="46.979232,49.563977,50.507599,42.477400,53.937251,38.939972,46.040011,37.897685" />
<polygon fill="#e3e0df" fill-opacity="0.501961" points="115.433337,94.014577,106.310819,113.909926,96.339115,105.207683,110.790426,98.777838" />
<polygon fill="#8a5d4e" fill-opacity="0.501961" points="36.263860,-16.000000,33.902778,20.163724,34.075756,25.346918,37.128493,54.336768" />
<polygon fill="#96a2a6" fill-opacity="0.501961" points="199.206365,49.262168,218.790699,65.290689,228.390401,83.004638,230.203521,78.439266" />
<polygon fill="#bac3cd" fill-opacity="0.501961" points="205.702912,209.000000,188.769918,209.000000,174.409432,191.201740,182.748129,190.835655" />
<polygon fill="#b47868" fill-opacity="0.501961" points="187.079885,22.633645,188.054829,13.964611,169.075766,7.587453,160.505254,21.439345" />
<polygon fill="#001819" fill-opacity="0.501961" points="173.501950,62.138907,103.748820,2.814855,144.529836,40.109501,140.401339,63.219639" />
<polygon fill="#a80018" fill-opacity="0.501961" points="65.952759,81.024740,66.549981,112.213384,87.753822,106.083025,62.660343,103.141028" />
<polygon fill="#001313" fill-opacity="0.501961" points="243.354137,117.671623,247.316903,160.079268,198.498266,146.047753,210.878184,94.264118" />
<polygon fill="#b1c3c0" fill-opacity="0.501961" points="113.314815,136.205111,150.878548,133.120109,133.267242,111.558069,84.326800,132.359901" />
<polygon fill="#593e2b" fill-opacity="0.501961" points="163.442484,85.845213,197.819039,80.398611,166.367151,84.205861,152.161458,60.448146" />
<polygon fill="#181e1b" fill-opacity="0.501961" points="148.943502,158.726613,184.119809,130.226156,153.048205,151.333599,153.728518,146.411699" />
<polygon fill="#dfcccc" fill-opacity="0.501961" points="137.726370,57.751300,132.476927,48.034965,127.148360,47.905638,131.499477,61.304940" />
<polygon fill="#854c3b" fill-opacity="0.501961" points="206.535073,112.792604,198.816778,144.689111,192.470525,120.019797,203.078015,108.237389" />
<polygon fill="#ddab99" fill-opacity="0.501961" points="99.365134,2.870907,98.894938,47.063887,97.418914,27.028335,99.531764,-16.000000" />
<polygon fill="#6392c6" fill-opacity="0.501961" points="120.960627,53.939981,112.666963,65.698187,119.351061,57.611670,124.191856,75.766786" />
<polygon fill="#d0885d" fill-opacity="0.501961" points="87.813831,68.856377,63.662478,73.203067,72.903914,57.108258,89.205225,75.150050" />
<polygon fill="#262d1e" fill-opacity="0.501961" points="69.413254,123.485457,94.596053,127.516303,99.482596,124.318072,76.560160,122.904944" />
<polygon fill="#dcbbb0" fill-opacity="0.501961" points="84.621267,144.816049,111.399459,137.847693,102.295354,145.419818,73.481988,137.091384" />
<polygon fill="#1e3a50" fill-opacity="0.501961" points="24.067393,31.960799,-2.573916,-16.000000,12.249681,30.519461,-16.000000,66.152555" />
<polygon fill="#383124" fill-opacity="0.501961" points="136.767826,82.874826,132.190431,76.277936,123.583143,86.820011,94.413679,92.243622" />
<polygon fill="#ff8898" fill-opacity="0.501961" points="79.381374,83.599976,84.077931,101.850688,69.292559,91.116564,79.198642,107.579781" />
<polygon fill="#f4c7b4" fill-opacity="0.501961" points="196.548460,53.954225,188.987415,65.420175,188.866620,58.348917,192.693275,49.381743" />
<polygon fill="#d0977f" fill-opacity="0.501961" points="107.420571,84.200144,128.584885,87.196284,118.587279,76.871362,104.242242,86.287414" />
<polygon fill="#001519" fill-opacity="0.501961" points="217.143665,55.732348,224.637139,58.251518,241.577519,100.393542,213.455831,7.982527" />
<polygon fill="#322a1a" fill-opacity="0.501961" points="154.629034,87.304688,160.443021,94.087036,174.130100,92.601471,157.777137,87.648254" />
<polygon fill="#001618" fill-opacity="0.501961" points="127.410315,40.526748,99.361856,-8.741104,135.353960,-16.000000,140.198363,43.124310" />
<polygon fill="#8aa3b7" fill-opacity="0.501961" points="112.436513,186.967422,68.794450,179.646975,122.266918,209.000000,109.868057,209.000000" />
<polygon fill="#001316" fill-opacity="0.501961" points="-16.000000,146.994056,33.893219,159.136385,46.391707,132.222252,21.922888,57.168342" />
<polygon fill="#5d3315" fill-opacity="0.501961" points="74.820016,147.698127,66.909580,144.782538,49.620315,131.865866,100.647165,148.817891" />
<polygon fill="#0b536d" fill-opacity="0.501961" points="186.666416,91.123188,193.474470,100.352004,192.403741,87.140262,203.530530,58.359572" />
<polygon fill="#00181b" fill-opacity="0.501961" points="35.011289,-16.000000,54.280872,49.666441,84.129389,34.936837,64.127146,27.010473" />
<polygon fill="#0e1610" fill-opacity="0.501961" points="76.227441,152.769237,93.456688,151.752052,43.328499,140.209684,66.030294,151.249645" />
<polygon fill="#996762" fill-opacity="0.501961" points="202.491853,114.921475,120.989006,164.610881,162.091619,139.505129,129.499087,167.074403" />
<polygon fill="#e4e1e8" fill-opacity="0.501961" points="152.604122,96.891690,152.655830,80.741008,165.991067,81.621040,129.834911,95.010646" />
<polygon fill="#f3edf6" fill-opacity="0.501961" points="169.733026,3.470248,148.904189,-16.000000,180.606119,-2.457991,176.724215,2.532132" />
<polygon fill="#a3b4c0" fill-opacity="0.501961" points="158.169013,181.870859,145.861581,187.065541,142.611962,209.000000,139.682786,173.092564" />
<polygon fill="#7e929b" fill-opacity="0.501961" points="186.016334,156.531609,201.990638,159.671141,198.396087,154.275876,181.124195,163.746749" />
<polygon fill="#a2000e" fill-opacity="0.501961" points="266.402784,138.919566,271.000000,147.354421,248.566610,143.353439,271.000000,134.749470" />
<polygon fill="#b16046" fill-opacity="0.501961" points="106.240569,62.485784,100.595661,47.243694,115.375213,66.518225,119.585300,46.218708" />
<polygon fill="#0a1d1d" fill-opacity="0.501961" points="150.615117,27.925851,172.810756,38.303026,194.643856,49.940324,166.746743,23.999332" />
<polygon fill="#6b897b" fill-opacity="0.501961" points="16.487198,47.304497,-3.105203,57.156268,20.336966,54.119810,-16.000000,84.065901" />
<polygon fill="#5c4639" fill-opacity="0.501961" points="96.947634,124.249143,106.640789,115.201025,108.870392,120.657886,87.985474,125.803049" />
<polygon fill="#081310" fill-opacity="0.501961" points="88.130040,77.865507,96.929815,62.142504,93.944748,81.507594,59.668875,70.204198" />
<polygon fill="#054c82" fill-opacity="0.501961" points="249.778880,176.185560,250.918243,145.868024,245.903717,144.946937,249.962594,172.554890" />
<polygon fill="#8d9fa1" fill-opacity="0.501961" points="133.751929,146.554581,107.238161,158.588873,128.858518,158.759075,144.327267,153.696245" />
<polygon fill="#758583" fill-opacity="0.501961" points="114.495385,161.961339,86.501242,182.839005,57.059500,170.204215,77.202800,163.969114" />
<polygon fill="#001216" fill-opacity="0.501961" points="192.261598,152.052843,211.017532,159.399236,218.379895,139.002628,204.721135,131.754871" />
<polygon fill="#bc9572" fill-opacity="0.501961" points="224.911341,59.842612,230.243688,74.470433,214.229844,51.206363,187.538946,49.578472" />
<polygon fill="#dbb5a4" fill-opacity="0.501961" points="93.911176,120.289857,56.625698,116.905510,84.219549,114.313433,82.245823,124.074610" />
<polygon fill="#c4a8a0" fill-opacity="0.501961" points="162.045738,92.037205,115.222423,94.373786,99.994881,83.224613,119.448686,94.181156" />
<polygon fill="#e39373" fill-opacity="0.501961" points="107.916285,41.302067,114.403643,66.652198,116.241397,46.506983,101.150749,54.951502" />
<polygon fill="#141b15" fill-opacity="0.501961" points="142.842756,167.517364,229.789562,128.419569,148.392693,170.198105,132.507211,171.123901" />
<polygon fill="#b87d4f" fill-opacity="0.501961" points="65.705371,137.102563,62.214904,118.868719,56.484765,85.786397,41.014266,83.314036" />
<polygon fill="#496062" fill-opacity="0.501961" points="142.951412,189.189722,190.867231,179.162637,186.544120,177.831916,163.981679,206.032025" />
<polygon fill="#b4552e" fill-opacity="0.501961" points="151.689938,73.987645,176.305941,68.214321,177.164965,72.042849,157.699457,67.016830" />
<polygon fill="#5b6a89" fill-opacity="0.501961" points="-16.000000,5.654715,5.164614,37.982635,5.735052,47.359166,11.979944,25.553173" />
<polygon fill="#00171b" fill-opacity="0.501961" points="27.227527,25.161953,34.884076,41.352724,5.582821,48.344789,10.323194,44.830896" />
<polygon fill="#04283d" fill-opacity="0.501961" points="119.404214,73.261963,103.559290,59.114667,93.452146,55.179837,121.777476,68.112685" />
<polygon fill="#44291a" fill-opacity="0.501961" points="139.508553,37.222368,141.843028,5.273166,141.244156,-16.000000,136.879769,27.998109" />
<polygon fill="#00232c" fill-opacity="0.501961" points="219.548161,66.756920,211.806526,99.530577,188.579944,99.551863,196.673563,75.268280" />
<polygon fill="#a35f4c" fill-opacity="0.501961" points="196.020956,128.968391,166.924844,146.612151,168.341604,153.466449,182.407957,143.884515" />
<polygon fill="#8f6b4c" fill-opacity="0.501961" points="77.652126,48.799708,64.402861,66.797163,64.697641,74.738177,70.125519,48.264924" />
<polygon fill="#6a371d" fill-opacity="0.501961" points="122.698725,53.111220,126.095440,68.789906,133.297925,68.246902,107.053566,34.369296" />
<polygon fill="#81917d" fill-opacity="0.501961" points="-3.150331,209.000000,55.537106,176.162025,46.442754,157.042245,36.419216,179.066407" />
<polygon fill="#b0c9ed" fill-opacity="0.501961" points="111.649469,78.215929,125.588372,67.693822,127.464500,68.099631,117.417765,79.668165" />
<polygon fill="#b3bdbb" fill-opacity="0.501961" points="177.488250,122.868035,104.126405,127.097885,99.525817,115.563473,100.283831,136.960045" />
<polygon fill="#9eb3a2" fill-opacity="0.501961" points="11.087179,57.416537,30.632232,49.343518,1.792730,54.394356,0.508516,55.858878" />
<polygon fill="#333625" fill-opacity="0.501961" points="196.794606,157.079961,197.390696,162.377978,197.317051,172.320807,210.821537,168.710780" />
<polygon fill="#c9a490" fill-opacity="0.501961" points="75.191944,60.791005,76.115523,47.312937,77.971409,49.398445,67.725781,62.083150" />
<polygon fill="#071c1a" fill-opacity="0.501961" points="90.581383,37.194459,101.571776,57.109206,68.237449,54.172481,82.091879,47.725799" />
<polygon fill="#001417" fill-opacity="0.501961" points="-16.000000,90.184541,36.519442,129.460874,35.855604,48.430774,11.058473,61.482022" />
<polygon fill="#00100e" fill-opacity="0.501961" points="141.017779,15.566305,146.601433,-4.441845,155.123179,7.374412,154.703637,21.609809" />
<polygon fill="#c8764e" fill-opacity="0.501961" points="178.686830,67.646386,180.884364,67.272030,173.455602,71.050953,165.603611,60.224578" />
<polygon fill="#ffb894" fill-opacity="0.501961" points="181.407068,91.546335,181.054119,81.142652,178.815562,87.276046,165.003682,101.610145" />
<polygon fill="#d7d7db" fill-opacity="0.501961" points="144.437291,129.095783,151.366275,126.558581,130.130424,155.363076,168.392674,131.786650" />
<polygon fill="#001015" fill-opacity="0.501961" points="97.002863,65.399525,89.801888,68.703943,85.493727,84.097569,95.590628,81.415993" />
<polygon fill="#000a07" fill-opacity="0.501961" points="255.103226,178.757748,250.229543,148.168206,271.000000,130.606443,256.961614,142.382234" />
<polygon fill="#00519f" fill-opacity="0.501961" points="18.529796,165.464909,12.813554,171.225278,-16.000000,136.443507,10.809128,161.057627" />
<polygon fill="#a2aaab" fill-opacity="0.501961" points="142.257259,84.998017,120.947774,90.817147,159.346224,85.377941,133.881841,79.082201" />
<polygon fill="#869392" fill-opacity="0.501961" points="191.647564,147.159359,183.425200,154.712568,198.081728,180.826989,198.569020,177.172502" />
<polygon fill="#9d0520" fill-opacity="0.501961" points="37.989821,144.825425,38.516707,148.692592,50.053006,134.217698,39.280865,157.439013" />
<polygon fill="#051818" fill-opacity="0.501961" points="187.278862,45.198062,166.433687,54.714165,191.370560,56.646894,159.007492,25.346225" />
<polygon fill="#c3cad1" fill-opacity="0.501961" points="137.170147,112.595584,169.518343,93.408609,117.549595,107.519206,141.143436,124.496366" />
<polygon fill="#bccbc5" fill-opacity="0.501961" points="49.626922,156.419206,55.196509,156.440386,55.838246,162.579007,67.531955,151.165637" />
<polygon fill="#bdc4ca" fill-opacity="0.501961" points="129.739290,173.119928,122.448643,181.045849,97.204396,191.167019,100.752796,188.677367" />
<polygon fill="#96abb1" fill-opacity="0.501961" points="207.120660,53.168385,227.005071,72.978217,204.981432,58.048354,223.224251,59.390296" />
<polygon fill="#15222d" fill-opacity="0.501961" points="88.278727,105.755808,95.086288,113.178666,86.759050,112.265401,85.574688,109.286469" />
</g>
</svg>