<svg xmlns="http://www.w3.org/2000/svg" version="1.1" width="1024" height="680">
<rect x="0" y="0" width="1024" height="680" fill="#5e4431" />
<g transform="scale(4.000000) translate(0.5 0.5)">
<polygon fill="#b5a790" fill-opacity="0.501961" points="36,19 39,123 222,93" />
<polygon fill="#100001" fill-opacity="0.501961" points="-11,87 203,173 -9,180" />
<polygon fill="#2c0700" fill-opacity="0.501961" points="-16,45 11,-16 224,3" />
<polygon fill="#97cbda" fill-opacity="0.501961" points="195,120 109,79 187,81" />
<polygon fill="#000000" fill-opacity="0.501961" points="189,176 253,116 271,185" />
<polygon fill="#fffaf0" fill-opacity="0.501961" points="30,137 51,107 55,123" />
<polygon fill="#feffff" fill-opacity="0.501961" points="231,50 248,49 241,74" />
<polygon fill="#a6acac" fill-opacity="0.501961" points="82,24 -16,56 43,82" />
<polygon fill="#251606" fill-opacity="0.501961" points="80,81 33,125 61,45" />
<polygon fill="#3a1500" fill-opacity="0.501961" points="257,-13 254,51 72,-1" />
<polygon fill="#c63047" fill-opacity="0.501961" points="115,129 178,153 102,159" />
<polygon fill="#ffffff" fill-opacity="0.501961" points="189,61 183,50 190,41" />
<polygon fill="#75c2f1" fill-opacity="0.501961" points="77,109 146,79 82,83" />
<polygon fill="#9b6c2c" fill-opacity="0.501961" points="61,65 158,3 162,86" />
<polygon fill="#e2d2bf" fill-opacity="0.501961" points="75,17 47,42 83,47" />
<polygon fill="#19120f" fill-opacity="0.501961" points="217,185 196,73 179,180" />
<polygon fill="#d3e9d6" fill-opacity="0.501961" points="209,88 211,130 201,99" />
<polygon fill="#ffd7df" fill-opacity="0.501961" points="213,143 209,125 227,146" />
<polygon fill="#fc8d00" fill-opacity="0.501961" points="194,67 209,84 164,74" />
<polygon fill="#673000" fill-opacity="0.501961" points="42,106 16,46 2,99" />
<polygon fill="#ffb960" fill-opacity="0.501961" points="200,113 194,124 166,101" />
<polygon fill="#2a0200" fill-opacity="0.501961" points="248,108 219,59 210,105" />
<polygon fill="#c16811" fill-opacity="0.501961" points="113,104 182,116 131,83" />
<polygon fill="#4c130d" fill-opacity="0.501961" points="213,141 144,154 106,99" />
<polygon fill="#000000" fill-opacity="0.501961" points="142,-16 144,34 87,15" />
<polygon fill="#0a0906" fill-opacity="0.501961" points="-16,185 127,168 -16,115" />
<polygon fill="#c1daf1" fill-opacity="0.501961" points="35,84 36,43 53,83" />
<polygon fill="#4e2100" fill-opacity="0.501961" points="-16,1 145,-16 30,45" />
<polygon fill="#dee1a5" fill-opacity="0.501961" points="149,28 144,4 151,-3" />
<polygon fill="#fa6a00" fill-opacity="0.501961" points="84,31 98,81 109,61" />
<polygon fill="#3f2b26" fill-opacity="0.501961" points="65,110 116,117 9,161" />
<polygon fill="#bed5ff" fill-opacity="0.501961" points="222,67 246,65 246,50" />
<polygon fill="#87a8a3" fill-opacity="0.501961" points="4,78 15,44 -16,32" />
<polygon fill="#432d21" fill-opacity="0.501961" points="78,50 66,101 48,49" />
<polygon fill="#ebb8b8" fill-opacity="0.501961" points="221,114 241,133 230,131" />
<polygon fill="#c9c5df" fill-opacity="0.501961" points="67,102 51,102 38,129" />
<polygon fill="#bd7646" fill-opacity="0.501961" points="222,54 239,91 271,112" />
<polygon fill="#a58c5c" fill-opacity="0.501961" points="37,35 3,23 -4,32" />
<polygon fill="#60a3f9" fill-opacity="0.501961" points="190,104 190,82 157,103" />
<polygon fill="#ff1927" fill-opacity="0.501961" points="150,155 150,120 158,142" />
<polygon fill="#7b8a8c" fill-opacity="0.501961" points="171,157 186,148 214,154" />
<polygon fill="#eea98a" fill-opacity="0.501961" points="98,63 126,54 120,40" />
<polygon fill="#7e718b" fill-opacity="0.501961" points="149,127 112,129 112,146" />
<polygon fill="#020000" fill-opacity="0.501961" points="271,163 271,104 216,162" />
<polygon fill="#007b66" fill-opacity="0.501961" points="115,63 136,73 103,72" />
<polygon fill="#8d4200" fill-opacity="0.501961" points="188,-16 213,37 248,41" />
<polygon fill="#d6ebff" fill-opacity="0.501961" points="49,85 50,54 41,52" />
<polygon fill="#e1ae10" fill-opacity="0.501961" points="168,76 157,90 140,72" />
<polygon fill="#000000" fill-opacity="0.501961" points="179,22 161,0 159,29" />
<polygon fill="#43a8ff" fill-opacity="0.501961" points="134,77 156,85 142,94" />
<polygon fill="#ff898f" fill-opacity="0.501961" points="113,94 78,113 109,109" />
<polygon fill="#ffffff" fill-opacity="0.501961" points="183,60 188,42 192,59" />
<polygon fill="#6f715f" fill-opacity="0.501961" points="145,25 153,79 183,63" />
<polygon fill="#150703" fill-opacity="0.501961" points="232,11 232,54 214,64" />
<polygon fill="#432604" fill-opacity="0.501961" points="30,91 77,101 73,82" />
<polygon fill="#ffd6c1" fill-opacity="0.501961" points="37,127 40,142 47,115" />
<polygon fill="#3f1000" fill-opacity="0.501961" points="140,67 150,61 124,40" />
<polygon fill="#dc5900" fill-opacity="0.501961" points="158,72 122,80 151,61" />
<polygon fill="#000000" fill-opacity="0.501961" points="203,121 192,97 209,113" />
<polygon fill="#170400" fill-opacity="0.501961" points="48,97 31,136 -16,122" />
<polygon fill="#5e312a" fill-opacity="0.501961" points="81,108 87,153 49,110" />
<polygon fill="#000000" fill-opacity="0.501961" points="208,122 192,78 193,107" />
<polygon fill="#ede7f0" fill-opacity="0.501961" points="77,25 80,45 68,18" />
<polygon fill="#d37600" fill-opacity="0.501961" points="116,92 106,80 115,104" />
<polygon fill="#532c00" fill-opacity="0.501961" points="31,37 33,62 43,15" />
<polygon fill="#ec8530" fill-opacity="0.501961" points="76,84 107,72 82,66" />
<polygon fill="#5f4534" fill-opacity="0.501961" points="117,17 103,56 149,17" />
<polygon fill="#bab090" fill-opacity="0.501961" points="155,55 147,21 144,45" />
<polygon fill="#6e2200" fill-opacity="0.501961" points="262,103 250,69 237,68" />
<polygon fill="#030000" fill-opacity="0.501961" points="188,124 207,129 178,155" />
<polygon fill="#d4c9b0" fill-opacity="0.501961" points="202,84 217,116 203,105" />
<polygon fill="#bdc8db" fill-opacity="0.501961" points="139,44 126,40 136,37" />
<polygon fill="#000000" fill-opacity="0.501961" points="102,-8 103,29 154,-10" />
<polygon fill="#31b9ff" fill-opacity="0.501961" points="90,42 85,53 81,45" />
<polygon fill="#ecffff" fill-opacity="0.501961" points="25,47 21,54 19,43" />
<polygon fill="#5f4b34" fill-opacity="0.501961" points="54,43 78,63 47,111" />
<polygon fill="#ff060e" fill-opacity="0.501961" points="150,153 136,158 121,155" />
<polygon fill="#0e0a03" fill-opacity="0.501961" points="172,178 99,159 213,158" />
<polygon fill="#4a2615" fill-opacity="0.501961" points="240,111 232,62 206,96" />
<polygon fill="#844500" fill-opacity="0.501961" points="32,100 27,63 -5,96" />
<polygon fill="#895f2f" fill-opacity="0.501961" points="192,21 190,83 216,86" />
<polygon fill="#322d23" fill-opacity="0.501961" points="27,141 109,155 115,106" />
<polygon fill="#95b8ec" fill-opacity="0.501961" points="97,81 76,95 107,100" />
<polygon fill="#fc81a2" fill-opacity="0.501961" points="59,101 64,115 72,100" />
<polygon fill="#09aaf7" fill-opacity="0.501961" points="56,102 63,108 51,112" />
<polygon fill="#4d9edb" fill-opacity="0.501961" points="99,75 128,97 114,78" />
<polygon fill="#c37705" fill-opacity="0.501961" points="171,115 187,101 192,122" />
<polygon fill="#312b18" fill-opacity="0.501961" points="12,76 15,34 28,81" />
<polygon fill="#ffb9ad" fill-opacity="0.501961" points="59,33 40,38 43,45" />
<polygon fill="#0c020a" fill-opacity="0.501961" points="211,119 218,134 225,113" />
<polygon fill="#250500" fill-opacity="0.501961" points="194,-16 271,31 226,21" />
<polygon fill="#eea511" fill-opacity="0.501961" points="151,100 144,100 157,78" />
<polygon fill="#ff1011" fill-opacity="0.501961" points="146,152 163,157 180,152" />
<polygon fill="#5e2801" fill-opacity="0.501961" points="34,18 76,-4 61,36" />
<polygon fill="#00aa7c" fill-opacity="0.501961" points="154,81 154,73 166,67" />
<polygon fill="#5fedff" fill-opacity="0.501961" points="67,49 60,46 69,40" />
<polygon fill="#d8ccd2" fill-opacity="0.501961" points="197,122 183,108 197,114" />
<polygon fill="#d75500" fill-opacity="0.501961" points="82,42 79,28 93,39" />
<polygon fill="#4d8fb9" fill-opacity="0.501961" points="151,94 163,108 178,80" />
<polygon fill="#856b77" fill-opacity="0.501961" points="222,82 233,63 223,56" />
<polygon fill="#d6dbff" fill-opacity="0.501961" points="137,101 134,98 125,103" />
<polygon fill="#99b8ab" fill-opacity="0.501961" points="23,67 26,42 16,65" />
<polygon fill="#ac7a61" fill-opacity="0.501961" points="101,114 104,129 99,142" />
<polygon fill="#e2a900" fill-opacity="0.501961" points="125,79 104,73 139,73" />
<polygon fill="#190a00" fill-opacity="0.501961" points="8,-8 33,21 58,0" />
<polygon fill="#737170" fill-opacity="0.501961" points="231,131 227,145 232,154" />
<polygon fill="#1eb1eb" fill-opacity="0.501961" points="82,93 89,86 86,77" />
<polygon fill="#4b362d" fill-opacity="0.501961" points="89,25 99,48 121,52" />
<polygon fill="#ffe4de" fill-opacity="0.501961" points="213,138 211,123 215,132" />
<polygon fill="#b4ccdd" fill-opacity="0.501961" points="27,85 31,83 29,69" />
<polygon fill="#a94000" fill-opacity="0.501961" points="128,96 130,104 100,102" />
<polygon fill="#492b16" fill-opacity="0.501961" points="14,36 51,46 28,46" />
<polygon fill="#c20000" fill-opacity="0.501961" points="91,110 84,106 93,103" />
<polygon fill="#a94900" fill-opacity="0.501961" points="71,33 60,23 70,24" />
<polygon fill="#000000" fill-opacity="0.501961" points="72,141 61,143 63,120" />
<polygon fill="#b4cbd7" fill-opacity="0.501961" points="254,48 260,104 271,38" />
<polygon fill="#c7a4a6" fill-opacity="0.501961" points="133,56 134,68 120,70" />
<polygon fill="#661f04" fill-opacity="0.501961" points="173,117 155,122 151,100" />
<polygon fill="#ab4500" fill-opacity="0.501961" points="180,6 169,-7 167,11" />
<polygon fill="#000000" fill-opacity="0.501961" points="211,87 212,106 222,116" />
<polygon fill="#a34100" fill-opacity="0.501961" points="243,15 224,-2 241,-15" />
<polygon fill="#f86d00" fill-opacity="0.501961" points="106,84 99,74 101,84" />
<polygon fill="#b3837a" fill-opacity="0.501961" points="222,107 236,132 222,128" />
<polygon fill="#008960" fill-opacity="0.501961" points="120,74 137,70 105,69" />
<polygon fill="#091100" fill-opacity="0.501961" points="162,136 181,149 168,124" />
<polygon fill="#170300" fill-opacity="0.501961" points="79,26 83,4 68,5" />
<polygon fill="#200600" fill-opacity="0.501961" points="186,18 168,-16 214,25" />
<polygon fill="#d15354" fill-opacity="0.501961" points="51,129 39,130 60,112" />
<polygon fill="#f3910e" fill-opacity="0.501961" points="125,87 138,87 143,104" />
<polygon fill="#070000" fill-opacity="0.501961" points="158,-16 153,21 148,-16" />
<polygon fill="#853b2e" fill-opacity="0.501961" points="197,130 197,141 219,145" />
<polygon fill="#3f2200" fill-opacity="0.501961" points="37,105 34,63 26,103" />
<polygon fill="#000000" fill-opacity="0.501961" points="-16,37 5,-16 -4,71" />
<polygon fill="#daa7bc" fill-opacity="0.501961" points="218,117 207,117 215,112" />
<polygon fill="#7e8570" fill-opacity="0.501961" points="62,101 56,87 50,102" />
<polygon fill="#b96d13" fill-opacity="0.501961" points="17,77 32,95 24,101" />
<polygon fill="#3c2000" fill-opacity="0.501961" points="247,53 260,-3 242,-16" />
<polygon fill="#5fabe3" fill-opacity="0.501961" points="132,80 147,97 143,76" />
<polygon fill="#281b00" fill-opacity="0.501961" points="149,123 146,112 116,130" />
<polygon fill="#0a0000" fill-opacity="0.501961" points="252,171 271,165 226,126" />
<polygon fill="#2882d6" fill-opacity="0.501961" points="117,79 118,95 130,79" />
<polygon fill="#604534" fill-opacity="0.501961" points="158,27 217,31 146,57" />
<polygon fill="#994c3f" fill-opacity="0.501961" points="193,122 178,114 173,132" />
<polygon fill="#da8407" fill-opacity="0.501961" points="201,94 192,73 204,78" />
<polygon fill="#2d1800" fill-opacity="0.501961" points="63,101 73,90 54,76" />
<polygon fill="#4f3121" fill-opacity="0.501961" points="144,30 145,42 107,29" />
<polygon fill="#ffedcd" fill-opacity="0.501961" points="98,112 82,111 96,108" />
<polygon fill="#99b8ce" fill-opacity="0.501961" points="191,78 173,80 174,109" />
<polygon fill="#897f78" fill-opacity="0.501961" points="269,185 208,162 238,185" />
<polygon fill="#c9e3ff" fill-opacity="0.501961" points="232,51 242,50 242,66" />
<polygon fill="#f0241f" fill-opacity="0.501961" points="110,160 124,154 98,155" />
<polygon fill="#b38c5b" fill-opacity="0.501961" points="232,39 243,41 245,35" />
<polygon fill="#5c4e3f" fill-opacity="0.501961" points="61,169 70,159 88,158" />
<polygon fill="#d8f3ff" fill-opacity="0.501961" points="97,72 91,74 94,76" />
<polygon fill="#eaa87a" fill-opacity="0.501961" points="124,46 117,38 119,60" />
<polygon fill="#8a857e" fill-opacity="0.501961" points="192,41 192,70 198,50" />
<polygon fill="#29bdf7" fill-opacity="0.501961" points="104,94 98,100 111,99" />
<polygon fill="#17100c" fill-opacity="0.501961" points="107,159 172,155 135,168" />
<polygon fill="#c96f5c" fill-opacity="0.501961" points="242,116 253,108 238,128" />
<polygon fill="#f1731a" fill-opacity="0.501961" points="164,85 154,88 164,72" />
<polygon fill="#6b5e55" fill-opacity="0.501961" points="215,88 215,36 207,65" />
<polygon fill="#713c33" fill-opacity="0.501961" points="66,123 106,114 57,108" />
<polygon fill="#171108" fill-opacity="0.501961" points="103,185 87,162 97,113" />
<polygon fill="#2d3e49" fill-opacity="0.501961" points="133,139 107,146 144,146" />
<polygon fill="#1c0500" fill-opacity="0.501961" points="21,1 19,36 12,19" />
<polygon fill="#3d0001" fill-opacity="0.501961" points="89,50 92,61 86,54" />
<polygon fill="#924431" fill-opacity="0.501961" points="106,131 131,124 113,115" />
<polygon fill="#080000" fill-opacity="0.501961" points="111,132 104,110 104,150" />
<polygon fill="#000000" fill-opacity="0.501961" points="195,127 187,131 193,156" />
<polygon fill="#d05f00" fill-opacity="0.501961" points="107,63 92,35 97,78" />
<polygon fill="#ffba2c" fill-opacity="0.501961" points="196,67 169,75 183,75" />
<polygon fill="#6f615e" fill-opacity="0.501961" points="232,109 233,85 227,101" />
<polygon fill="#424743" fill-opacity="0.501961" points="39,77 42,105 35,99" />
<polygon fill="#feffff" fill-opacity="0.501961" points="189,42 188,61 184,46" />
<polygon fill="#ffe1ba" fill-opacity="0.501961" points="49,112 54,118 39,129" />
<polygon fill="#321100" fill-opacity="0.501961" points="21,70 29,87 27,64" />
<polygon fill="#c7801c" fill-opacity="0.501961" points="71,103 75,108 85,99" />
<polygon fill="#6c2e35" fill-opacity="0.501961" points="110,67 116,59 126,70" />
<polygon fill="#000000" fill-opacity="0.501961" points="163,29 160,8 175,23" />
<polygon fill="#040000" fill-opacity="0.501961" points="84,154 56,168 48,143" />
<polygon fill="#ffd00e" fill-opacity="0.501961" points="140,73 150,82 158,82" />
<polygon fill="#bf8265" fill-opacity="0.501961" points="243,75 231,73 252,97" />
<polygon fill="#007be3" fill-opacity="0.501961" points="144,106 150,101 147,100" />
<polygon fill="#6ebcd7" fill-opacity="0.501961" points="72,31 72,52 80,33" />
<polygon fill="#888fa6" fill-opacity="0.501961" points="94,66 84,67 83,55" />
<polygon fill="#e2bac0" fill-opacity="0.501961" points="210,133 223,147 207,116" />
<polygon fill="#7b513d" fill-opacity="0.501961" points="101,154 97,129 106,127" />
<polygon fill="#ae6857" fill-opacity="0.501961" points="145,129 145,135 167,131" />
<polygon fill="#572900" fill-opacity="0.501961" points="240,90 235,125 253,102" />
<polygon fill="#e5c298" fill-opacity="0.501961" points="4,28 14,31 13,27" />
<polygon fill="#793500" fill-opacity="0.501961" points="13,29 13,-8 2,23" />
<polygon fill="#460000" fill-opacity="0.501961" points="236,66 229,101 224,86" />
<polygon fill="#972327" fill-opacity="0.501961" points="58,49 46,53 40,48" />
<polygon fill="#a6907f" fill-opacity="0.501961" points="166,38 159,27 166,30" />
<polygon fill="#8c490b" fill-opacity="0.501961" points="222,21 202,19 245,5" />
<polygon fill="#9c2d00" fill-opacity="0.501961" points="165,78 172,73 186,78" />
<polygon fill="#010603" fill-opacity="0.501961" points="198,87 199,104 189,80" />
<polygon fill="#5e3d12" fill-opacity="0.501961" points="98,-4 76,23 95,39" />
<polygon fill="#211905" fill-opacity="0.501961" points="162,120 152,140 159,139" />
<polygon fill="#69493d" fill-opacity="0.501961" points="148,62 182,38 185,59" />
<polygon fill="#896325" fill-opacity="0.501961" points="191,8 193,20 196,0" />
<polygon fill="#f9a1ea" fill-opacity="0.501961" points="164,98 169,96 160,92" />
<polygon fill="#120600" fill-opacity="0.501961" points="85,114 69,119 66,114" />
<polygon fill="#26a9ec" fill-opacity="0.501961" points="189,107 192,96 185,80" />
<polygon fill="#7d6258" fill-opacity="0.501961" points="70,77 76,63 84,93" />
<polygon fill="#000000" fill-opacity="0.501961" points="-9,77 8,79 -16,67" />
<polygon fill="#415363" fill-opacity="0.501961" points="82,141 84,151 64,147" />
<polygon fill="#ffd421" fill-opacity="0.501961" points="107,82 111,82 112,89" />
<polygon fill="#170a03" fill-opacity="0.501961" points="4,93 -16,150 32,148" />
<polygon fill="#000000" fill-opacity="0.501961" points="208,151 217,146 200,145" />
<polygon fill="#802706" fill-opacity="0.501961" points="78,45 83,49 64,59" />
<polygon fill="#acb4b8" fill-opacity="0.501961" points="49,62 35,88 37,65" />
<polygon fill="#e98524" fill-opacity="0.501961" points="3,136 -16,138 -16,156" />
<polygon fill="#849ea1" fill-opacity="0.501961" points="190,150 177,154 189,157" />
<polygon fill="#653403" fill-opacity="0.501961" points="259,27 199,43 209,22" />
<polygon fill="#b14f00" fill-opacity="0.501961" points="211,2 213,11 192,8" />
<polygon fill="#db8a23" fill-opacity="0.501961" points="63,40 69,36 79,42" />
<polygon fill="#f09e0a" fill-opacity="0.501961" points="150,104 149,90 154,88" />
<polygon fill="#f80007" fill-opacity="0.501961" points="152,122 147,142 153,141" />
<polygon fill="#565343" fill-opacity="0.501961" points="41,63 38,66 40,54" />
<polygon fill="#bab8c9" fill-opacity="0.501961" points="129,106 125,109 140,109" />
<polygon fill="#ccaddb" fill-opacity="0.501961" points="96,104 89,87 103,86" />
<polygon fill="#505e56" fill-opacity="0.501961" points="27,69 -16,54 29,57" />
<polygon fill="#d5c666" fill-opacity="0.501961" points="180,102 191,117 194,110" />
<polygon fill="#39302d" fill-opacity="0.501961" points="144,145 155,151 120,153" />
<polygon fill="#987739" fill-opacity="0.501961" points="158,-16 167,-9 155,13" />
<polygon fill="#cc6700" fill-opacity="0.501961" points="121,56 126,60 126,40" />
<polygon fill="#0c774e" fill-opacity="0.501961" points="159,67 158,73 176,69" />
<polygon fill="#7b3900" fill-opacity="0.501961" points="44,8 60,13 43,38" />
<polygon fill="#44c1a6" fill-opacity="0.501961" points="103,94 96,79 112,92" />
<polygon fill="#150a06" fill-opacity="0.501961" points="231,170 221,162 226,137" />
<polygon fill="#f13733" fill-opacity="0.501961" points="123,146 135,150 112,150" />
<polygon fill="#7b2a05" fill-opacity="0.501961" points="98,114 120,101 130,106" />
<polygon fill="#802b00" fill-opacity="0.501961" points="187,74 210,79 198,65" />
<polygon fill="#f2a805" fill-opacity="0.501961" points="127,106 119,96 126,95" />
<polygon fill="#507827" fill-opacity="0.501961" points="203,109 212,108 209,117" />
<polygon fill="#d1bbc8" fill-opacity="0.501961" points="105,58 111,48 114,58" />
<polygon fill="#c2ba82" fill-opacity="0.501961" points="150,11 138,-12 147,-8" />
<polygon fill="#f91118" fill-opacity="0.501961" points="147,157 161,154 144,152" />
<polygon fill="#000000" fill-opacity="0.501961" points="232,7 215,10 218,-4" />
<polygon fill="#a695d8" fill-opacity="0.501961" points="191,94 178,107 174,94" />
<polygon fill="#829b9c" fill-opacity="0.501961" points="6,41 5,74 -16,75" />
<polygon fill="#f4f0f2" fill-opacity="0.501961" points="52,35 57,39 68,36" />
<polygon fill="#eb9d55" fill-opacity="0.501961" points="71,32 74,21 67,17" />
<polygon fill="#250605" fill-opacity="0.501961" points="46,114 20,140 31,100" />
<polygon fill="#2f6495" fill-opacity="0.501961" points="90,98 101,95 84,95" />
<polygon fill="#c0d6ef" fill-opacity="0.501961" points="30,45 31,53 28,55" />
<polygon fill="#667179" fill-opacity="0.501961" points="50,135 43,134 33,143" />
<polygon fill="#885c70" fill-opacity="0.501961" points="116,136 111,145 141,142" />
<polygon fill="#5e3a0c" fill-opacity="0.501961" points="150,63 144,41 135,69" />
<polygon fill="#000000" fill-opacity="0.501961" points="101,28 127,11 97,19" />
<polygon fill="#aaa76f" fill-opacity="0.501961" points="211,84 197,85 204,98" />
<polygon fill="#88afc0" fill-opacity="0.501961" points="202,156 213,156 207,154" />
<polygon fill="#8b6b4a" fill-opacity="0.501961" points="209,32 229,47 213,41" />
<polygon fill="#594d3e" fill-opacity="0.501961" points="230,51 250,47 250,31" />
<polygon fill="#c5d6e6" fill-opacity="0.501961" points="49,67 43,66 50,53" />
<polygon fill="#5c2f00" fill-opacity="0.501961" points="16,10 51,34 67,26" />
<polygon fill="#000311" fill-opacity="0.501961" points="199,125 208,131 205,111" />
<polygon fill="#502f14" fill-opacity="0.501961" points="50,96 52,61 60,84" />
<polygon fill="#55998d" fill-opacity="0.501961" points="174,93 172,82 151,92" />
<polygon fill="#0d0200" fill-opacity="0.501961" points="243,110 235,90 234,108" />
<polygon fill="#cc816d" fill-opacity="0.501961" points="62,116 64,112 71,124" />
<polygon fill="#27a3f7" fill-opacity="0.501961" points="152,86 141,92 142,96" />
<polygon fill="#6b695c" fill-opacity="0.501961" points="41,79 36,85 40,65" />
<polygon fill="#c78f26" fill-opacity="0.501961" points="180,80 184,89 184,84" />
<polygon fill="#7b8289" fill-opacity="0.501961" points="245,130 246,135 239,130" />
<polygon fill="#000000" fill-opacity="0.501961" points="111,146 100,137 110,132" />
<polygon fill="#000000" fill-opacity="0.501961" points="215,33 208,29 223,30" />
<polygon fill="#887570" fill-opacity="0.501961" points="101,29 102,47 107,27" />
<polygon fill="#4cbdff" fill-opacity="0.501961" points="172,80 172,93 179,93" />
<polygon fill="#de6507" fill-opacity="0.501961" points="77,56 88,74 74,62" />
<polygon fill="#2cd4ff" fill-opacity="0.501961" points="160,92 166,93 161,88" />
<polygon fill="#79373c" fill-opacity="0.501961" points="132,113 162,114 159,102" />
<polygon fill="#af6800" fill-opacity="0.501961" points="145,59 130,41 142,47" />
<polygon fill="#6a2400" fill-opacity="0.501961" points="94,67 107,67 90,62" />
<polygon fill="#3e3731" fill-opacity="0.501961" points="41,161 42,151 9,154" />
<polygon fill="#afa3ab" fill-opacity="0.501961" points="179,52 175,52 179,46" />
<polygon fill="#fa970c" fill-opacity="0.501961" points="155,73 147,79 139,69" />
<polygon fill="#de2d2f" fill-opacity="0.501961" points="164,148 154,145 171,145" />
<polygon fill="#020000" fill-opacity="0.501961" points="19,13 3,14 13,19" />
<polygon fill="#566b71" fill-opacity="0.501961" points="36,95 46,91 40,106" />
<polygon fill="#287ec9" fill-opacity="0.501961" points="175,103 187,98 170,98" />
<polygon fill="#4d9af2" fill-opacity="0.501961" points="143,82 148,86 155,85" />
<polygon fill="#ecbeff" fill-opacity="0.501961" points="87,79 88,76 84,78" />
<polygon fill="#000000" fill-opacity="0.501961" points="162,146 154,143 169,143" />
<polygon fill="#fdc9eb" fill-opacity="0.501961" points="204,98 204,110 209,105" />
<polygon fill="#95d8fa" fill-opacity="0.501961" points="62,41 48,42 73,33" />
<polygon fill="#ff9ac1" fill-opacity="0.501961" points="72,99 63,105 70,108" />
<polygon fill="#827f96" fill-opacity="0.501961" points="118,44 130,34 115,40" />
<polygon fill="#9f9a91" fill-opacity="0.501961" points="223,104 222,100 227,103" />
<polygon fill="#371000" fill-opacity="0.501961" points="242,76 243,68 253,78" />
<polygon fill="#ffffe2" fill-opacity="0.501961" points="62,30 66,31 66,35" />
<polygon fill="#413720" fill-opacity="0.501961" points="185,134 166,151 189,148" />
<polygon fill="#000000" fill-opacity="0.501961" points="229,50 223,48 232,62" />
<polygon fill="#ddeeff" fill-opacity="0.501961" points="26,44 25,53 21,46" />
<polygon fill="#000000" fill-opacity="0.501961" points="56,20 70,17 59,15" />
<polygon fill="#000000" fill-opacity="0.501961" points="51,5 83,-16 8,-9" />
<polygon fill="#9d141c" fill-opacity="0.501961" points="71,116 68,108 85,108" />
<polygon fill="#2e1f09" fill-opacity="0.501961" points="-10,25 -14,44 16,36" />
<polygon fill="#ffb0ab" fill-opacity="0.501961" points="39,129 45,134 33,133" />
</g>
</svg>