<svg height="680" width="1024" xmlns="http://www.w3.org/2000/svg"><path d="m0 0h1024v680h-1024z" fill="#5e4431"/><g fill-opacity=".501961" transform="matrix(4 0 0 4 2 2)"><path d="m36 19 3 104 183-30z" fill="#b5a790"/><path d="m-11 87 214 86-212 7z" fill="#100001"/><path d="m-16 45 27-61 213 19z" fill="#2c0700"/><path d="m195 120-86-41 78 2z" fill="#97cbda"/><path d="m189 176 64-60 18 69z"/><path d="m30 137 21-30 4 16z" fill="#fffaf0"/><path d="m231 50 17-1-7 25z" fill="#feffff"/><path d="m82 24-98 32 59 26z" fill="#a6acac"/><path d="m80 81-47 44 28-80z" fill="#251606"/><path d="m257-13-3 64-182-52z" fill="#3a1500"/><path d="m115 129 63 24-76 6z" fill="#c63047"/><path d="m189 61-6-11 7-9z" fill="#fff"/><path d="m77 109 69-30-64 4z" fill="#75c2f1"/><path d="m61 65 97-62 4 83z" fill="#9b6c2c"/><path d="m75 17-28 25 36 5z" fill="#e2d2bf"/><path d="m217 185-21-112-17 107z" fill="#19120f"/><path d="m209 88 2 42-10-31z" fill="#d3e9d6"/><path d="m213 143-4-18 18 21z" fill="#ffd7df"/><path d="m194 67 15 17-45-10z" fill="#fc8d00"/><path d="m42 106-26-60-14 53z" fill="#673000"/><path d="m200 113-6 11-28-23z" fill="#ffb960"/><path d="m248 108-29-49-9 46z" fill="#2a0200"/><path d="m113 104 69 12-51-33z" fill="#c16811"/><path d="m213 141-69 13-38-55z" fill="#4c130d"/><path d="m142-16 2 50-57-19z"/><path d="m-16 185 143-17-143-53z" fill="#0a0906"/><path d="m35 84 1-41 17 40z" fill="#c1daf1"/><path d="m-16 1 161-17-115 61z" fill="#4e2100"/><path d="m149 28-5-24 7-7z" fill="#dee1a5"/><path d="m84 31 14 50 11-20z" fill="#fa6a00"/><path d="m65 110 51 7-107 44z" fill="#3f2b26"/><path d="m222 67 24-2v-15z" fill="#bed5ff"/><path d="m4 78 11-34-31-12z" fill="#87a8a3"/><path d="m78 50-12 51-18-52z" fill="#432d21"/><path d="m221 114 20 19-11-2z" fill="#ebb8b8"/><path d="m67 102h-16l-13 27z" fill="#c9c5df"/><path d="m222 54 17 37 32 21z" fill="#bd7646"/><path d="m37 35-34-12-7 9z" fill="#a58c5c"/><path d="m190 104v-22l-33 21z" fill="#60a3f9"/><path d="m150 155v-35l8 22z" fill="#ff1927"/><path d="m171 157 15-9 28 6z" fill="#7b8a8c"/><path d="m98 63 28-9-6-14z" fill="#eea98a"/><path d="m149 127-37 2v17z" fill="#7e718b"/><path d="m271 163v-59l-55 58z" fill="#020000"/><path d="m115 63 21 10-33-1z" fill="#007b66"/><path d="m188-16 25 53 35 4z" fill="#8d4200"/><path d="m49 85 1-31-9-2z" fill="#d6ebff"/><path d="m168 76-11 14-17-18z" fill="#e1ae10"/><path d="m179 22-18-22-2 29z"/><path d="m134 77 22 8-14 9z" fill="#43a8ff"/><path d="m113 94-35 19 31-4z" fill="#ff898f"/><path d="m183 60 5-18 4 17z" fill="#fff"/><path d="m145 25 8 54 30-16z" fill="#6f715f"/><path d="m232 11v43l-18 10z" fill="#150703"/><path d="m30 91 47 10-4-19z" fill="#432604"/><path d="m37 127 3 15 7-27z" fill="#ffd6c1"/><path d="m140 67 10-6-26-21z" fill="#3f1000"/><path d="m158 72-36 8 29-19z" fill="#dc5900"/><path d="m203 121-11-24 17 16z"/><path d="m48 97-17 39-47-14z" fill="#170400"/><path d="m81 108 6 45-38-43z" fill="#5e312a"/><path d="m208 122-16-44 1 29z"/><path d="m77 25 3 20-12-27z" fill="#ede7f0"/><path d="m116 92-10-12 9 24z" fill="#d37600"/><path d="m31 37 2 25 10-47z" fill="#532c00"/><path d="m76 84 31-12-25-6z" fill="#ec8530"/><path d="m117 17-14 39 46-39z" fill="#5f4534"/><path d="m155 55-8-34-3 24z" fill="#bab090"/><path d="m262 103-12-34-13-1z" fill="#6e2200"/><path d="m188 124 19 5-29 26z" fill="#030000"/><path d="m202 84 15 32-14-11z" fill="#d4c9b0"/><path d="m139 44-13-4 10-3z" fill="#bdc8db"/><path d="m102-8 1 37 51-39z"/><path d="m90 42-5 11-4-8z" fill="#31b9ff"/><path d="m25 47-4 7-2-11z" fill="#ecffff"/><path d="m54 43 24 20-31 48z" fill="#5f4b34"/><path d="m150 153-14 5-15-3z" fill="#ff060e"/><path d="m172 178-73-19 114-1z" fill="#0e0a03"/><path d="m240 111-8-49-26 34z" fill="#4a2615"/><path d="m32 100-5-37-32 33z" fill="#844500"/><path d="m192 21-2 62 26 3z" fill="#895f2f"/><path d="m27 141 82 14 6-49z" fill="#322d23"/><path d="m97 81-21 14 31 5z" fill="#95b8ec"/><path d="m59 101 5 14 8-15z" fill="#fc81a2"/><path d="m56 102 7 6-12 4z" fill="#09aaf7"/><path d="m99 75 29 22-14-19z" fill="#4d9edb"/><path d="m171 115 16-14 5 21z" fill="#c37705"/><path d="m12 76 3-42 13 47z" fill="#312b18"/><path d="m59 33-19 5 3 7z" fill="#ffb9ad"/><path d="m211 119 7 15 7-21z" fill="#0c020a"/><path d="m194-16 77 47-45-10z" fill="#250500"/><path d="m151 100h-7l13-22z" fill="#eea511"/><path d="m146 152 17 5 17-5z" fill="#ff1011"/><path d="m34 18 42-22-15 40z" fill="#5e2801"/><path d="m154 81v-8l12-6z" fill="#00aa7c"/><path d="m67 49-7-3 9-6z" fill="#5fedff"/><path d="m197 122-14-14 14 6z" fill="#d8ccd2"/><path d="m82 42-3-14 14 11z" fill="#d75500"/><path d="m151 94 12 14 15-28z" fill="#4d8fb9"/><path d="m222 82 11-19-10-7z" fill="#856b77"/><path d="m137 101-3-3-9 5z" fill="#d6dbff"/><path d="m23 67 3-25-10 23z" fill="#99b8ab"/><path d="m101 114 3 15-5 13z" fill="#ac7a61"/><path d="m125 79-21-6h35z" fill="#e2a900"/><path d="m8-8 25 29 25-21z" fill="#190a00"/><path d="m231 131-4 14 5 9z" fill="#737170"/><path d="m82 93 7-7-3-9z" fill="#1eb1eb"/><path d="m89 25 10 23 22 4z" fill="#4b362d"/><path d="m213 138-2-15 4 9z" fill="#ffe4de"/><path d="m27 85 4-2-2-14z" fill="#b4ccdd"/><path d="m128 96 2 8-30-2z" fill="#a94000"/><path d="m14 36 37 10h-23z" fill="#492b16"/><path d="m91 110-7-4 9-3z" fill="#c20000"/><path d="m71 33-11-10 10 1z" fill="#a94900"/><path d="m72 141-11 2 2-23z"/><path d="m254 48 6 56 11-66z" fill="#b4cbd7"/><path d="m133 56 1 12-14 2z" fill="#c7a4a6"/><path d="m173 117-18 5-4-22z" fill="#661f04"/><path d="m180 6-11-13-2 18z" fill="#ab4500"/><path d="m211 87 1 19 10 10z"/><path d="m243 15-19-17 17-13z" fill="#a34100"/><path d="m106 84-7-10 2 10z" fill="#f86d00"/><path d="m222 107 14 25-14-4z" fill="#b3837a"/><path d="m120 74 17-4-32-1z" fill="#008960"/><path d="m162 136 19 13-13-25z" fill="#091100"/><path d="m79 26 4-22-15 1z" fill="#170300"/><path d="m186 18-18-34 46 41z" fill="#200600"/><path d="m51 129-12 1 21-18z" fill="#d15354"/><path d="m125 87h13l5 17z" fill="#f3910e"/><path d="m158-16-5 37-5-37z" fill="#070000"/><path d="m197 130v11l22 4z" fill="#853b2e"/><path d="m37 105-3-42-8 40z" fill="#3f2200"/><path d="m-16 37 21-53-9 87z"/><path d="m218 117h-11l8-5z" fill="#daa7bc"/><path d="m62 101-6-14-6 15z" fill="#7e8570"/><path d="m17 77 15 18-8 6z" fill="#b96d13"/><path d="m247 53 13-56-18-13z" fill="#3c2000"/><path d="m132 80 15 17-4-21z" fill="#5fabe3"/><path d="m149 123-3-11-30 18z" fill="#281b00"/><path d="m252 171 19-6-45-39z" fill="#0a0000"/><path d="m117 79 1 16 12-16z" fill="#2882d6"/><path d="m158 27 59 4-71 26z" fill="#604534"/><path d="m193 122-15-8-5 18z" fill="#994c3f"/><path d="m201 94-9-21 12 5z" fill="#da8407"/><path d="m63 101 10-11-19-14z" fill="#2d1800"/><path d="m144 30 1 12-38-13z" fill="#4f3121"/><path d="m98 112-16-1 14-3z" fill="#ffedcd"/><path d="m191 78-18 2 1 29z" fill="#99b8ce"/><path d="m269 185-61-23 30 23z" fill="#897f78"/><path d="m232 51 10-1v16z" fill="#c9e3ff"/><path d="m110 160 14-6-26 1z" fill="#f0241f"/><path d="m232 39 11 2 2-6z" fill="#b38c5b"/><path d="m61 169 9-10 18-1z" fill="#5c4e3f"/><path d="m97 72-6 2 3 2z" fill="#d8f3ff"/><path d="m124 46-7-8 2 22z" fill="#eaa87a"/><path d="m192 41v29l6-20z" fill="#8a857e"/><path d="m104 94-6 6 13-1z" fill="#29bdf7"/><path d="m107 159 65-4-37 13z" fill="#17100c"/><path d="m242 116 11-8-15 20z" fill="#c96f5c"/><path d="m164 85-10 3 10-16z" fill="#f1731a"/><path d="m215 88v-52l-8 29z" fill="#6b5e55"/><path d="m66 123 40-9-49-6z" fill="#713c33"/><path d="m103 185-16-23 10-49z" fill="#171108"/><path d="m133 139-26 7h37z" fill="#2d3e49"/><path d="m21 1-2 35-7-17z" fill="#1c0500"/><path d="m89 50 3 11-6-7z" fill="#3d0001"/><path d="m106 131 25-7-18-9z" fill="#924431"/><path d="m111 132-7-22v40z" fill="#080000"/><path d="m195 127-8 4 6 25z"/><path d="m107 63-15-28 5 43z" fill="#d05f00"/><path d="m196 67-27 8h14z" fill="#ffba2c"/><path d="m232 109 1-24-6 16z" fill="#6f615e"/><path d="m39 77 3 28-7-6z" fill="#424743"/><path d="m189 42-1 19-4-15z" fill="#feffff"/><path d="m49 112 5 6-15 11z" fill="#ffe1ba"/><path d="m21 70 8 17-2-23z" fill="#321100"/><path d="m71 103 4 5 10-9z" fill="#c7801c"/><path d="m110 67 6-8 10 11z" fill="#6c2e35"/><path d="m163 29-3-21 15 15z"/><path d="m84 154-28 14-8-25z" fill="#040000"/><path d="m140 73 10 9h8z" fill="#ffd00e"/><path d="m243 75-12-2 21 24z" fill="#bf8265"/><path d="m144 106 6-5-3-1z" fill="#007be3"/><path d="m72 31v21l8-19z" fill="#6ebcd7"/><path d="m94 66-10 1-1-12z" fill="#888fa6"/><path d="m210 133 13 14-16-31z" fill="#e2bac0"/><path d="m101 154-4-25 9-2z" fill="#7b513d"/><path d="m145 129v6l22-4z" fill="#ae6857"/><path d="m240 90-5 35 18-23z" fill="#572900"/><path d="m4 28 10 3-1-4z" fill="#e5c298"/><path d="m13 29v-37l-11 31z" fill="#793500"/><path d="m236 66-7 35-5-15z" fill="#460000"/><path d="m58 49-12 4-6-5z" fill="#972327"/><path d="m166 38-7-11 7 3z" fill="#a6907f"/><path d="m222 21-20-2 43-14z" fill="#8c490b"/><path d="m165 78 7-5 14 5z" fill="#9c2d00"/><path d="m198 87 1 17-10-24z" fill="#010603"/><path d="m98-4-22 27 19 16z" fill="#5e3d12"/><path d="m162 120-10 20 7-1z" fill="#211905"/><path d="m148 62 34-24 3 21z" fill="#69493d"/><path d="m191 8 2 12 3-20z" fill="#896325"/><path d="m164 98 5-2-9-4z" fill="#f9a1ea"/><path d="m85 114-16 5-3-5z" fill="#120600"/><path d="m189 107 3-11-7-16z" fill="#26a9ec"/><path d="m70 77 6-14 8 30z" fill="#7d6258"/><path d="m-9 77 17 2-24-12z"/><path d="m82 141 2 10-20-4z" fill="#415363"/><path d="m107 82h4l1 7z" fill="#ffd421"/><path d="m4 93-20 57 48-2z" fill="#170a03"/><path d="m208 151 9-5-17-1z"/><path d="m78 45 5 4-19 10z" fill="#802706"/><path d="m49 62-14 26 2-23z" fill="#acb4b8"/><path d="m3 136-19 2v18z" fill="#e98524"/><path d="m190 150-13 4 12 3z" fill="#849ea1"/><path d="m259 27-60 16 10-21z" fill="#653403"/><path d="m211 2 2 9-21-3z" fill="#b14f00"/><path d="m63 40 6-4 10 6z" fill="#db8a23"/><path d="m150 104-1-14 5-2z" fill="#f09e0a"/><path d="m152 122-5 20 6-1z" fill="#f80007"/><path d="m41 63-3 3 2-12z" fill="#565343"/><path d="m129 106-4 3h15z" fill="#bab8c9"/><path d="m96 104-7-17 14-1z" fill="#ccaddb"/><path d="m27 69-43-15 45 3z" fill="#505e56"/><path d="m180 102 11 15 3-7z" fill="#d5c666"/><path d="m144 145 11 6-35 2z" fill="#39302d"/><path d="m158-16 9 7-12 22z" fill="#987739"/><path d="m121 56 5 4v-20z" fill="#cc6700"/><path d="m159 67-1 6 18-4z" fill="#0c774e"/><path d="m44 8 16 5-17 25z" fill="#7b3900"/><path d="m103 94-7-15 16 13z" fill="#44c1a6"/><path d="m231 170-10-8 5-25z" fill="#150a06"/><path d="m123 146 12 4h-23z" fill="#f13733"/><path d="m98 114 22-13 10 5z" fill="#7b2a05"/><path d="m187 74 23 5-12-14z" fill="#802b00"/><path d="m127 106-8-10 7-1z" fill="#f2a805"/><path d="m203 109 9-1-3 9z" fill="#507827"/><path d="m105 58 6-10 3 10z" fill="#d1bbc8"/><path d="m150 11-12-23 9 4z" fill="#c2ba82"/><path d="m147 157 14-3-17-2z" fill="#f91118"/><path d="m232 7-17 3 3-14z"/><path d="m191 94-13 13-4-13z" fill="#a695d8"/><path d="m6 41-1 33-21 1z" fill="#829b9c"/><path d="m52 35 5 4 11-3z" fill="#f4f0f2"/><path d="m71 32 3-11-7-4z" fill="#eb9d55"/><path d="m46 114-26 26 11-40z" fill="#250605"/><path d="m90 98 11-3h-17z" fill="#2f6495"/><path d="m30 45 1 8-3 2z" fill="#c0d6ef"/><path d="m50 135-7-1-10 9z" fill="#667179"/><path d="m116 136-5 9 30-3z" fill="#885c70"/><path d="m150 63-6-22-9 28z" fill="#5e3a0c"/><path d="m101 28 26-17-30 8z"/><path d="m211 84-14 1 7 13z" fill="#aaa76f"/><path d="m202 156h11l-6-2z" fill="#88afc0"/><path d="m209 32 20 15-16-6z" fill="#8b6b4a"/><path d="m230 51 20-4v-16z" fill="#594d3e"/><path d="m49 67-6-1 7-13z" fill="#c5d6e6"/><path d="m16 10 35 24 16-8z" fill="#5c2f00"/><path d="m199 125 9 6-3-20z" fill="#000311"/><path d="m50 96 2-35 8 23z" fill="#502f14"/><path d="m174 93-2-11-21 10z" fill="#55998d"/><path d="m243 110-8-20-1 18z" fill="#0d0200"/><path d="m62 116 2-4 7 12z" fill="#cc816d"/><path d="m152 86-11 6 1 4z" fill="#27a3f7"/><path d="m41 79-5 6 4-20z" fill="#6b695c"/><path d="m180 80 4 9v-5z" fill="#c78f26"/><path d="m245 130 1 5-7-5z" fill="#7b8289"/><path d="m111 146-11-9 10-5z"/><path d="m215 33-7-4 15 1z"/><path d="m101 29 1 18 5-20z" fill="#887570"/><path d="m172 80v13h7z" fill="#4cbdff"/><path d="m77 56 11 18-14-12z" fill="#de6507"/><path d="m160 92 6 1-5-5z" fill="#2cd4ff"/><path d="m132 113 30 1-3-12z" fill="#79373c"/><path d="m145 59-15-18 12 6z" fill="#af6800"/><path d="m94 67h13l-17-5z" fill="#6a2400"/><path d="m41 161 1-10-33 3z" fill="#3e3731"/><path d="m179 52h-4l4-6z" fill="#afa3ab"/><path d="m155 73-8 6-8-10z" fill="#fa970c"/><path d="m164 148-10-3h17z" fill="#de2d2f"/><path d="m19 13-16 1 10 5z" fill="#020000"/><path d="m36 95 10-4-6 15z" fill="#566b71"/><path d="m175 103 12-5h-17z" fill="#287ec9"/><path d="m143 82 5 4 7-1z" fill="#4d9af2"/><path d="m87 79 1-3-4 2z" fill="#ecbeff"/><path d="m162 146-8-3h15z"/><path d="m204 98v12l5-5z" fill="#fdc9eb"/><path d="m62 41-14 1 25-9z" fill="#95d8fa"/><path d="m72 99-9 6 7 3z" fill="#ff9ac1"/><path d="m118 44 12-10-15 6z" fill="#827f96"/><path d="m223 104-1-4 5 3z" fill="#9f9a91"/><path d="m242 76 1-8 10 10z" fill="#371000"/><path d="m62 30 4 1v4z" fill="#ffffe2"/><path d="m185 134-19 17 23-3z" fill="#413720"/><path d="m229 50-6-2 9 14z"/><path d="m26 44-1 9-4-7z" fill="#def"/><path d="m56 20 14-3-11-2z"/><path d="m51 5 32-21-75 7z"/><path d="m71 116-3-8h17z" fill="#9d141c"/><path d="m-10 25-4 19 30-8z" fill="#2e1f09"/><path d="m39 129 6 5-12-1z" fill="#ffb0ab"/></g></svg>