<svg xmlns="http://www.w3.org/2000/svg" version="1.1" width="1024" height="680">
<rect x="0" y="0" width="1024" height="680" fill="#553d17" />
<g transform="scale(4.000000) translate(0.5 0.5)">
<ellipse fill="#eca639" fill-opacity="0.501961" cx="154" cy="114" rx="44" ry="44" />
<ellipse fill="#ffb737" fill-opacity="0.501961" cx="145" cy="38" rx="35" ry="35" />
<ellipse fill="#000004" fill-opacity="0.501961" cx="243" cy="61" rx="71" ry="71" />
<ellipse fill="#e2fbff" fill-opacity="0.501961" cx="247" cy="145" rx="21" ry="21" />
<ellipse fill="#000000" fill-opacity="0.501961" cx="52" cy="90" rx="75" ry="75" />
<ellipse fill="#ffb737" fill-opacity="0.501961" cx="129" cy="169" rx="39" ry="39" />
<ellipse fill="#eaad41" fill-opacity="0.501961" cx="165" cy="80" rx="28" ry="28" />
<ellipse fill="#000000" fill-opacity="0.501961" cx="217" cy="104" rx="34" ry="34" />
<ellipse fill="#f08a0e" fill-opacity="0.501961" cx="108" cy="0" rx="32" ry="32" />
<ellipse fill="#d9e3ec" fill-opacity="0.501961" cx="194" cy="142" rx="11" ry="11" />
<ellipse fill="#000000" fill-opacity="0.501961" cx="226" cy="63" rx="42" ry="42" />
<ellipse fill="#f5850d" fill-opacity="0.501961" cx="20" cy="0" rx="22" ry="22" />
<ellipse fill="#f78a0f" fill-opacity="0.501961" cx="59" cy="0" rx="18" ry="18" />
<ellipse fill="#ffcd39" fill-opacity="0.501961" cx="8" cy="169" rx="13" ry="13" />
<ellipse fill="#271300" fill-opacity="0.501961" cx="51" cy="89" rx="78" ry="78" />
<ellipse fill="#ffca54" fill-opacity="0.501961" cx="91" cy="169" rx="15" ry="15" />
<ellipse fill="#a5aeae" fill-opacity="0.501961" cx="226" cy="145" rx="12" ry="12" />
<ellipse fill="#000603" fill-opacity="0.501961" cx="198" cy="116" rx="19" ry="19" />
<ellipse fill="#e6ab44" fill-opacity="0.501961" cx="142" cy="28" rx="21" ry="21" />
<ellipse fill="#000012" fill-opacity="0.501961" cx="169" cy="16" rx="8" ry="8" />
<ellipse fill="#000809" fill-opacity="0.501961" cx="48" cy="90" rx="29" ry="29" />
<ellipse fill="#ffc553" fill-opacity="0.501961" cx="179" cy="62" rx="8" ry="8" />
<ellipse fill="#ffa11e" fill-opacity="0.501961" cx="64" cy="169" rx="9" ry="9" />
<ellipse fill="#e4b561" fill-opacity="0.501961" cx="137" cy="136" rx="15" ry="15" />
<ellipse fill="#3f4447" fill-opacity="0.501961" cx="213" cy="169" rx="25" ry="25" />
<ellipse fill="#ffb62e" fill-opacity="0.501961" cx="189" cy="88" rx="6" ry="6" />
<ellipse fill="#00000d" fill-opacity="0.501961" cx="171" cy="153" rx="7" ry="7" />
<ellipse fill="#9c4f00" fill-opacity="0.501961" cx="134" cy="53" rx="17" ry="17" />
<ellipse fill="#000009" fill-opacity="0.501961" cx="185" cy="74" rx="7" ry="7" />
<ellipse fill="#000103" fill-opacity="0.501961" cx="239" cy="52" rx="41" ry="41" />
<ellipse fill="#5d2c05" fill-opacity="0.501961" cx="80" cy="34" rx="24" ry="24" />
<ellipse fill="#d29232" fill-opacity="0.501961" cx="150" cy="92" rx="25" ry="25" />
<ellipse fill="#bfc4ce" fill-opacity="0.501961" cx="178" cy="144" rx="6" ry="6" />
<ellipse fill="#afb1a7" fill-opacity="0.501961" cx="202" cy="141" rx="9" ry="9" />
<ellipse fill="#f8ce82" fill-opacity="0.501961" cx="165" cy="30" rx="8" ry="8" />
<ellipse fill="#212c2e" fill-opacity="0.501961" cx="196" cy="0" rx="31" ry="31" />
<ellipse fill="#9e5200" fill-opacity="0.501961" cx="138" cy="163" rx="15" ry="15" />
<ellipse fill="#13100d" fill-opacity="0.501961" cx="172" cy="46" rx="7" ry="7" />
<ellipse fill="#a8a796" fill-opacity="0.501961" cx="175" cy="169" rx="8" ry="8" />
<ellipse fill="#9e5a00" fill-opacity="0.501961" cx="168" cy="125" rx="17" ry="17" />
<ellipse fill="#a2a4a0" fill-opacity="0.501961" cx="255" cy="146" rx="25" ry="25" />
<ellipse fill="#f4b041" fill-opacity="0.501961" cx="111" cy="161" rx="11" ry="11" />
<ellipse fill="#c86f0e" fill-opacity="0.501961" cx="0" cy="9" rx="17" ry="17" />
<ellipse fill="#492606" fill-opacity="0.501961" cx="29" cy="39" rx="27" ry="27" />
<ellipse fill="#e29527" fill-opacity="0.501961" cx="40" cy="0" rx="13" ry="13" />
<ellipse fill="#1a0e00" fill-opacity="0.501961" cx="85" cy="137" rx="22" ry="22" />
<ellipse fill="#5b1700" fill-opacity="0.501961" cx="131" cy="99" rx="6" ry="6" />
<ellipse fill="#e3a331" fill-opacity="0.501961" cx="158" cy="9" rx="7" ry="7" />
<ellipse fill="#ffb429" fill-opacity="0.501961" cx="52" cy="169" rx="5" ry="5" />
<ellipse fill="#c27310" fill-opacity="0.501961" cx="117" cy="33" rx="14" ry="14" />
<ellipse fill="#696451" fill-opacity="0.501961" cx="245" cy="169" rx="13" ry="13" />
<ellipse fill="#a45d00" fill-opacity="0.501961" cx="146" cy="95" rx="11" ry="11" />
<ellipse fill="#201e18" fill-opacity="0.501961" cx="191" cy="159" rx="10" ry="10" />
<ellipse fill="#ff9b1a" fill-opacity="0.501961" cx="24" cy="169" rx="6" ry="6" />
<ellipse fill="#00000d" fill-opacity="0.501961" cx="145" cy="2" rx="5" ry="5" />
<ellipse fill="#ffb43e" fill-opacity="0.501961" cx="82" cy="169" rx="9" ry="9" />
<ellipse fill="#000011" fill-opacity="0.501961" cx="181" cy="112" rx="5" ry="5" />
<ellipse fill="#c1c4c5" fill-opacity="0.501961" cx="244" cy="148" rx="11" ry="11" />
<ellipse fill="#ecc46d" fill-opacity="0.501961" cx="156" cy="108" rx="7" ry="7" />
<ellipse fill="#0a0800" fill-opacity="0.501961" cx="23" cy="147" rx="16" ry="16" />
<ellipse fill="#f8a53c" fill-opacity="0.501961" cx="0" cy="168" rx="13" ry="13" />
<ellipse fill="#e8af42" fill-opacity="0.501961" cx="163" cy="164" rx="7" ry="7" />
<ellipse fill="#f4c975" fill-opacity="0.501961" cx="144" cy="109" rx="6" ry="6" />
<ellipse fill="#5e1f00" fill-opacity="0.501961" cx="130" cy="68" rx="7" ry="7" />
<ellipse fill="#be8319" fill-opacity="0.501961" cx="179" cy="128" rx="10" ry="10" />
<ellipse fill="#baa792" fill-opacity="0.501961" cx="170" cy="145" rx="5" ry="5" />
<ellipse fill="#d9ad5b" fill-opacity="0.501961" cx="160" cy="71" rx="12" ry="12" />
<ellipse fill="#292e1f" fill-opacity="0.501961" cx="236" cy="127" rx="8" ry="8" />
<ellipse fill="#dca139" fill-opacity="0.501961" cx="184" cy="62" rx="5" ry="5" />
<ellipse fill="#c26f10" fill-opacity="0.501961" cx="72" cy="1" rx="15" ry="15" />
<ellipse fill="#100c02" fill-opacity="0.501961" cx="103" cy="106" rx="19" ry="19" />
<ellipse fill="#222119" fill-opacity="0.501961" cx="176" cy="156" rx="9" ry="9" />
<ellipse fill="#cf8c21" fill-opacity="0.501961" cx="137" cy="84" rx="13" ry="13" />
<ellipse fill="#0e0b01" fill-opacity="0.501961" cx="59" cy="149" rx="16" ry="16" />
<ellipse fill="#d5992e" fill-opacity="0.501961" cx="178" cy="88" rx="10" ry="10" />
<ellipse fill="#e5cca2" fill-opacity="0.501961" cx="147" cy="137" rx="6" ry="6" />
<ellipse fill="#d89a33" fill-opacity="0.501961" cx="128" cy="132" rx="14" ry="14" />
<ellipse fill="#e0770b" fill-opacity="0.501961" cx="37" cy="169" rx="5" ry="5" />
<ellipse fill="#acb8bf" fill-opacity="0.501961" cx="189" cy="139" rx="7" ry="7" />
<ellipse fill="#633602" fill-opacity="0.501961" cx="160" cy="139" rx="6" ry="6" />
<ellipse fill="#e5be6c" fill-opacity="0.501961" cx="167" cy="105" rx="7" ry="7" />
<ellipse fill="#debc7d" fill-opacity="0.501961" cx="136" cy="15" rx="7" ry="7" />
<ellipse fill="#d7a033" fill-opacity="0.501961" cx="142" cy="47" rx="9" ry="9" />
<ellipse fill="#040905" fill-opacity="0.501961" cx="208" cy="108" rx="23" ry="23" />
<ellipse fill="#a25d00" fill-opacity="0.501961" cx="148" cy="55" rx="10" ry="10" />
<ellipse fill="#00060f" fill-opacity="0.501961" cx="178" cy="74" rx="4" ry="4" />
<ellipse fill="#d89e29" fill-opacity="0.501961" cx="132" cy="0" rx="9" ry="9" />
<ellipse fill="#fcc45b" fill-opacity="0.501961" cx="133" cy="108" rx="5" ry="5" />
<ellipse fill="#50350d" fill-opacity="0.501961" cx="65" cy="122" rx="10" ry="10" />
<ellipse fill="#984e00" fill-opacity="0.501961" cx="153" cy="122" rx="9" ry="9" />
<ellipse fill="#a9ab9f" fill-opacity="0.501961" cx="227" cy="143" rx="8" ry="8" />
<ellipse fill="#b97c12" fill-opacity="0.501961" cx="164" cy="89" rx="11" ry="11" />
<ellipse fill="#000000" fill-opacity="0.501961" cx="161" cy="20" rx="2" ry="2" />
<ellipse fill="#0e1511" fill-opacity="0.501961" cx="193" cy="42" rx="18" ry="18" />
<ellipse fill="#fddb9f" fill-opacity="0.501961" cx="147" cy="8" rx="3" ry="3" />
<ellipse fill="#651e00" fill-opacity="0.501961" cx="109" cy="140" rx="6" ry="6" />
<ellipse fill="#e6c88c" fill-opacity="0.501961" cx="176" cy="97" rx="5" ry="5" />
<ellipse fill="#5a4127" fill-opacity="0.501961" cx="164" cy="148" rx="5" ry="5" />
<ellipse fill="#c58111" fill-opacity="0.501961" cx="165" cy="39" rx="8" ry="8" />
<ellipse fill="#010600" fill-opacity="0.501961" cx="0" cy="130" rx="16" ry="16" />
<ellipse fill="#8b4200" fill-opacity="0.501961" cx="142" cy="101" rx="6" ry="6" />
<ellipse fill="#070e0d" fill-opacity="0.501961" cx="169" cy="17" rx="6" ry="6" />
<ellipse fill="#deb875" fill-opacity="0.501961" cx="170" cy="58" rx="6" ry="6" />
<ellipse fill="#4b2203" fill-opacity="0.501961" cx="119" cy="82" rx="9" ry="9" />
<ellipse fill="#842f00" fill-opacity="0.501961" cx="127" cy="114" rx="5" ry="5" />
<ellipse fill="#f5c15f" fill-opacity="0.501961" cx="175" cy="27" rx="4" ry="4" />
<ellipse fill="#7a7b75" fill-opacity="0.501961" cx="181" cy="169" rx="8" ry="8" />
<ellipse fill="#944d00" fill-opacity="0.501961" cx="160" cy="49" rx="6" ry="6" />
<ellipse fill="#3d0f00" fill-opacity="0.501961" cx="118" cy="51" rx="5" ry="5" />
<ellipse fill="#ecd09b" fill-opacity="0.501961" cx="147" cy="74" rx="4" ry="4" />
<ellipse fill="#232012" fill-opacity="0.501961" cx="205" cy="154" rx="7" ry="7" />
<ellipse fill="#442d0a" fill-opacity="0.501961" cx="44" cy="127" rx="12" ry="12" />
<ellipse fill="#c3770f" fill-opacity="0.501961" cx="113" cy="9" rx="12" ry="12" />
<ellipse fill="#daac57" fill-opacity="0.501961" cx="155" cy="37" rx="8" ry="8" />
<ellipse fill="#c38212" fill-opacity="0.501961" cx="170" cy="68" rx="7" ry="7" />
<ellipse fill="#00000b" fill-opacity="0.501961" cx="157" cy="0" rx="4" ry="4" />
<ellipse fill="#727060" fill-opacity="0.501961" cx="215" cy="143" rx="8" ry="8" />
<ellipse fill="#46514a" fill-opacity="0.501961" cx="255" cy="6" rx="7" ry="7" />
<ellipse fill="#964800" fill-opacity="0.501961" cx="144" cy="119" rx="6" ry="6" />
<ellipse fill="#3d3a2f" fill-opacity="0.501961" cx="201" cy="0" rx="20" ry="20" />
<ellipse fill="#2b2b25" fill-opacity="0.501961" cx="182" cy="45" rx="10" ry="10" />
<ellipse fill="#3d1f06" fill-opacity="0.501961" cx="92" cy="47" rx="19" ry="19" />
<ellipse fill="#5a5a48" fill-opacity="0.501961" cx="245" cy="123" rx="4" ry="4" />
<ellipse fill="#e2bb7a" fill-opacity="0.501961" cx="102" cy="169" rx="8" ry="8" />
<ellipse fill="#000005" fill-opacity="0.501961" cx="140" cy="6" rx="2" ry="2" />
<ellipse fill="#0d140c" fill-opacity="0.501961" cx="197" cy="73" rx="13" ry="13" />
<ellipse fill="#a45906" fill-opacity="0.501961" cx="87" cy="0" rx="19" ry="19" />
<ellipse fill="#171a0c" fill-opacity="0.501961" cx="177" cy="113" rx="4" ry="4" />
<ellipse fill="#060802" fill-opacity="0.501961" cx="203" cy="36" rx="16" ry="16" />
<ellipse fill="#030903" fill-opacity="0.501961" cx="48" cy="102" rx="19" ry="19" />
<ellipse fill="#e2b86d" fill-opacity="0.501961" cx="123" cy="140" rx="6" ry="6" />
<ellipse fill="#f1cd8a" fill-opacity="0.501961" cx="144" cy="129" rx="4" ry="4" />
<ellipse fill="#d89129" fill-opacity="0.501961" cx="59" cy="0" rx="9" ry="9" />
<ellipse fill="#e7cb9d" fill-opacity="0.501961" cx="155" cy="74" rx="4" ry="4" />
<ellipse fill="#000307" fill-opacity="0.501961" cx="148" cy="0" rx="5" ry="5" />
<ellipse fill="#c68c2a" fill-opacity="0.501961" cx="156" cy="11" rx="8" ry="8" />
<ellipse fill="#52340a" fill-opacity="0.501961" cx="22" cy="117" rx="8" ry="8" />
<ellipse fill="#313c41" fill-opacity="0.501961" cx="189" cy="132" rx="4" ry="4" />
<ellipse fill="#0c1b19" fill-opacity="0.501961" cx="237" cy="6" rx="14" ry="14" />
<ellipse fill="#d9881a" fill-opacity="0.501961" cx="127" cy="106" rx="4" ry="4" />
<ellipse fill="#cd9127" fill-opacity="0.501961" cx="161" cy="8" rx="5" ry="5" />
<ellipse fill="#000514" fill-opacity="0.501961" cx="173" cy="75" rx="2" ry="2" />
<ellipse fill="#d29d3f" fill-opacity="0.501961" cx="178" cy="102" rx="7" ry="7" />
<ellipse fill="#6d2a00" fill-opacity="0.501961" cx="83" cy="157" rx="5" ry="5" />
<ellipse fill="#aa6800" fill-opacity="0.501961" cx="137" cy="169" rx="19" ry="19" />
<ellipse fill="#d99022" fill-opacity="0.501961" cx="67" cy="169" rx="7" ry="7" />
<ellipse fill="#af5700" fill-opacity="0.501961" cx="102" cy="153" rx="5" ry="5" />
<ellipse fill="#452e0c" fill-opacity="0.501961" cx="76" cy="110" rx="9" ry="9" />
<ellipse fill="#b76e02" fill-opacity="0.501961" cx="137" cy="35" rx="6" ry="6" />
<ellipse fill="#3d1600" fill-opacity="0.501961" cx="124" cy="96" rx="6" ry="6" />
<ellipse fill="#4f1500" fill-opacity="0.501961" cx="117" cy="125" rx="4" ry="4" />
<ellipse fill="#a95c0c" fill-opacity="0.501961" cx="0" cy="15" rx="13" ry="13" />
<ellipse fill="#1e1a0a" fill-opacity="0.501961" cx="66" cy="67" rx="27" ry="27" />
<ellipse fill="#4e2606" fill-opacity="0.501961" cx="56" cy="21" rx="9" ry="9" />
<ellipse fill="#873a00" fill-opacity="0.501961" cx="73" cy="163" rx="4" ry="4" />
<ellipse fill="#d17409" fill-opacity="0.501961" cx="93" cy="157" rx="4" ry="4" />
<ellipse fill="#595142" fill-opacity="0.501961" cx="225" cy="169" rx="16" ry="16" />
<ellipse fill="#c57907" fill-opacity="0.501961" cx="186" cy="125" rx="4" ry="4" />
<ellipse fill="#bba079" fill-opacity="0.501961" cx="166" cy="144" rx="4" ry="4" />
<ellipse fill="#ad7b3f" fill-opacity="0.501961" cx="185" cy="148" rx="4" ry="4" />
<ellipse fill="#251e0f" fill-opacity="0.501961" cx="169" cy="49" rx="4" ry="4" />
<ellipse fill="#7f4100" fill-opacity="0.501961" cx="140" cy="64" rx="6" ry="6" />
<ellipse fill="#e6d0ab" fill-opacity="0.501961" cx="166" cy="76" rx="3" ry="3" />
<ellipse fill="#ab6706" fill-opacity="0.501961" cx="153" cy="98" rx="7" ry="7" />
<ellipse fill="#0e1208" fill-opacity="0.501961" cx="165" cy="152" rx="3" ry="3" />
<ellipse fill="#b76410" fill-opacity="0.501961" cx="49" cy="169" rx="7" ry="7" />
<ellipse fill="#a16201" fill-opacity="0.501961" cx="165" cy="126" rx="16" ry="16" />
<ellipse fill="#cd952c" fill-opacity="0.501961" cx="153" cy="86" rx="10" ry="10" />
<ellipse fill="#db9826" fill-opacity="0.501961" cx="190" cy="88" rx="4" ry="4" />
<ellipse fill="#020603" fill-opacity="0.501961" cx="245" cy="58" rx="42" ry="42" />
<ellipse fill="#b8730f" fill-opacity="0.501961" cx="130" cy="55" rx="9" ry="9" />
<ellipse fill="#d0780e" fill-opacity="0.501961" cx="114" cy="132" rx="3" ry="3" />
<ellipse fill="#c8c2b6" fill-opacity="0.501961" cx="195" cy="142" rx="6" ry="6" />
<ellipse fill="#3e2d1b" fill-opacity="0.501961" cx="158" cy="143" rx="3" ry="3" />
<ellipse fill="#e8c382" fill-opacity="0.501961" cx="150" cy="7" rx="3" ry="3" />
<ellipse fill="#a26820" fill-opacity="0.501961" cx="195" cy="150" rx="4" ry="4" />
<ellipse fill="#f5e8d0" fill-opacity="0.501961" cx="172" cy="78" rx="2" ry="2" />
<ellipse fill="#50320a" fill-opacity="0.501961" cx="12" cy="104" rx="7" ry="7" />
<ellipse fill="#bcbdb8" fill-opacity="0.501961" cx="185" cy="142" rx="5" ry="5" />
<ellipse fill="#c68c25" fill-opacity="0.501961" cx="176" cy="128" rx="6" ry="6" />
<ellipse fill="#9e5500" fill-opacity="0.501961" cx="132" cy="83" rx="5" ry="5" />
<ellipse fill="#d7a649" fill-opacity="0.501961" cx="159" cy="157" rx="6" ry="6" />
<ellipse fill="#b7bab8" fill-opacity="0.501961" cx="251" cy="133" rx="6" ry="6" />
<ellipse fill="#6e2a00" fill-opacity="0.501961" cx="17" cy="159" rx="5" ry="5" />
<ellipse fill="#dcaf57" fill-opacity="0.501961" cx="143" cy="42" rx="5" ry="5" />
<ellipse fill="#a34c00" fill-opacity="0.501961" cx="116" cy="145" rx="4" ry="4" />
<ellipse fill="#e7cda3" fill-opacity="0.501961" cx="141" cy="10" rx="3" ry="3" />
<ellipse fill="#ae640e" fill-opacity="0.501961" cx="110" cy="27" rx="10" ry="10" />
<ellipse fill="#d79c37" fill-opacity="0.501961" cx="186" cy="63" rx="3" ry="3" />
<ellipse fill="#0b0d07" fill-opacity="0.501961" cx="211" cy="109" rx="26" ry="26" />
<ellipse fill="#121a14" fill-opacity="0.501961" cx="184" cy="112" rx="6" ry="6" />
<ellipse fill="#edca85" fill-opacity="0.501961" cx="141" cy="75" rx="3" ry="3" />
<ellipse fill="#00070d" fill-opacity="0.501961" cx="163" cy="0" rx="4" ry="4" />
<ellipse fill="#e7d0ab" fill-opacity="0.501961" cx="161" cy="75" rx="3" ry="3" />
<ellipse fill="#9a5600" fill-opacity="0.501961" cx="165" cy="45" rx="4" ry="4" />
<ellipse fill="#984500" fill-opacity="0.501961" cx="2" cy="156" rx="5" ry="5" />
<ellipse fill="#10160a" fill-opacity="0.501961" cx="245" cy="107" rx="14" ry="14" />
<ellipse fill="#d9b16a" fill-opacity="0.501961" cx="163" cy="28" rx="7" ry="7" />
<ellipse fill="#474431" fill-opacity="0.501961" cx="200" cy="133" rx="3" ry="3" />
<ellipse fill="#d9b16a" fill-opacity="0.501961" cx="175" cy="58" rx="5" ry="5" />
<ellipse fill="#0d0c02" fill-opacity="0.501961" cx="43" cy="148" rx="13" ry="13" />
<ellipse fill="#e8bb69" fill-opacity="0.501961" cx="140" cy="109" rx="5" ry="5" />
<ellipse fill="#b57711" fill-opacity="0.501961" cx="153" cy="13" rx="6" ry="6" />
<ellipse fill="#a46f2e" fill-opacity="0.501961" cx="176" cy="148" rx="4" ry="4" />
<ellipse fill="#d8b26f" fill-opacity="0.501961" cx="149" cy="142" rx="6" ry="6" />
<ellipse fill="#0d0e04" fill-opacity="0.501961" cx="81" cy="138" rx="14" ry="14" />
<ellipse fill="#d78f1e" fill-opacity="0.501961" cx="111" cy="151" rx="7" ry="7" />
<ellipse fill="#1f0e00" fill-opacity="0.501961" cx="124" cy="67" rx="4" ry="4" />
<ellipse fill="#151a14" fill-opacity="0.501961" cx="186" cy="74" rx="7" ry="7" />
<ellipse fill="#a05508" fill-opacity="0.501961" cx="18" cy="13" rx="7" ry="7" />
<ellipse fill="#ca8e25" fill-opacity="0.501961" cx="185" cy="88" rx="7" ry="7" />
<ellipse fill="#10140b" fill-opacity="0.501961" cx="190" cy="99" rx="6" ry="6" />
<ellipse fill="#9c4700" fill-opacity="0.501961" cx="135" cy="117" rx="4" ry="4" />
<ellipse fill="#d38016" fill-opacity="0.501961" cx="128" cy="77" rx="3" ry="3" />
<ellipse fill="#f7c149" fill-opacity="0.501961" cx="53" cy="169" rx="3" ry="3" />
<ellipse fill="#686551" fill-opacity="0.501961" cx="231" cy="135" rx="3" ry="3" />
<ellipse fill="#bdbbb3" fill-opacity="0.501961" cx="176" cy="143" rx="4" ry="4" />
<ellipse fill="#813901" fill-opacity="0.501961" cx="23" cy="163" rx="4" ry="4" />
<ellipse fill="#532908" fill-opacity="0.501961" cx="22" cy="33" rx="9" ry="9" />
<ellipse fill="#dc8e21" fill-opacity="0.501961" cx="17" cy="169" rx="7" ry="7" />
<ellipse fill="#692900" fill-opacity="0.501961" cx="124" cy="49" rx="3" ry="3" />
<ellipse fill="#a95b0a" fill-opacity="0.501961" cx="46" cy="9" rx="5" ry="5" />
<ellipse fill="#432c0b" fill-opacity="0.501961" cx="83" cy="95" rx="7" ry="7" />
<ellipse fill="#bb7707" fill-opacity="0.501961" cx="143" cy="31" rx="5" ry="5" />
<ellipse fill="#d28b21" fill-opacity="0.501961" cx="118" cy="41" rx="6" ry="6" />
<ellipse fill="#d49d39" fill-opacity="0.501961" cx="135" cy="24" rx="8" ry="8" />
<ellipse fill="#29261e" fill-opacity="0.501961" cx="183" cy="158" rx="8" ry="8" />
<ellipse fill="#b17004" fill-opacity="0.501961" cx="174" cy="89" rx="5" ry="5" />
<ellipse fill="#984b08" fill-opacity="0.501961" cx="34" cy="14" rx="4" ry="4" />
<ellipse fill="#b07208" fill-opacity="0.501961" cx="179" cy="66" rx="4" ry="4" />
<ellipse fill="#7c3802" fill-opacity="0.501961" cx="56" cy="164" rx="3" ry="3" />
<ellipse fill="#e3b557" fill-opacity="0.501961" cx="4" cy="169" rx="7" ry="7" />
<ellipse fill="#6e370b" fill-opacity="0.501961" cx="67" cy="33" rx="5" ry="5" />
<ellipse fill="#b1b2ac" fill-opacity="0.501961" cx="202" cy="142" rx="5" ry="5" />
<ellipse fill="#d9a02f" fill-opacity="0.501961" cx="133" cy="49" rx="4" ry="4" />
<ellipse fill="#cf972b" fill-opacity="0.501961" cx="152" cy="66" rx="6" ry="6" />
<ellipse fill="#c59330" fill-opacity="0.501961" cx="139" cy="146" rx="6" ry="6" />
<ellipse fill="#282217" fill-opacity="0.501961" cx="172" cy="13" rx="8" ry="8" />
<ellipse fill="#975801" fill-opacity="0.501961" cx="137" cy="159" rx="9" ry="9" />
<ellipse fill="#636757" fill-opacity="0.501961" cx="252" cy="122" rx="4" ry="4" />
<ellipse fill="#000000" fill-opacity="0.501961" cx="142" cy="5" rx="2" ry="2" />
<ellipse fill="#bd6b00" fill-opacity="0.501961" cx="122" cy="152" rx="5" ry="5" />
<ellipse fill="#fce0b1" fill-opacity="0.501961" cx="176" cy="79" rx="2" ry="2" />
<ellipse fill="#5a5a49" fill-opacity="0.501961" cx="221" cy="135" rx="4" ry="4" />
<ellipse fill="#d49b2e" fill-opacity="0.501961" cx="119" cy="159" rx="7" ry="7" />
<ellipse fill="#be821b" fill-opacity="0.501961" cx="164" cy="69" rx="5" ry="5" />
<ellipse fill="#492d09" fill-opacity="0.501961" cx="36" cy="125" rx="8" ry="8" />
<ellipse fill="#daa744" fill-opacity="0.501961" cx="137" cy="1" rx="4" ry="4" />
<ellipse fill="#d79b27" fill-opacity="0.501961" cx="170" cy="122" rx="3" ry="3" />
<ellipse fill="#000b06" fill-opacity="0.501961" cx="170" cy="155" rx="4" ry="4" />
<ellipse fill="#bd7b11" fill-opacity="0.501961" cx="127" cy="2" rx="10" ry="10" />
<ellipse fill="#625a4d" fill-opacity="0.501961" cx="208" cy="164" rx="5" ry="5" />
<ellipse fill="#582000" fill-opacity="0.501961" cx="133" cy="98" rx="3" ry="3" />
<ellipse fill="#c3811e" fill-opacity="0.501961" cx="8" cy="0" rx="9" ry="9" />
<ellipse fill="#5c2903" fill-opacity="0.501961" cx="92" cy="151" rx="5" ry="5" />
<ellipse fill="#0b1007" fill-opacity="0.501961" cx="46" cy="92" rx="29" ry="29" />
<ellipse fill="#24271d" fill-opacity="0.501961" cx="49" cy="82" rx="7" ry="7" />
<ellipse fill="#e1be7d" fill-opacity="0.501961" cx="168" cy="62" rx="3" ry="3" />
<ellipse fill="#e18b1b" fill-opacity="0.501961" cx="121" cy="60" rx="2" ry="2" />
<ellipse fill="#381800" fill-opacity="0.501961" cx="46" cy="162" rx="5" ry="5" />
<ellipse fill="#020a08" fill-opacity="0.501961" cx="192" cy="129" rx="3" ry="3" />
<ellipse fill="#dba03a" fill-opacity="0.501961" cx="177" cy="24" rx="2" ry="2" />
<ellipse fill="#753700" fill-opacity="0.501961" cx="134" cy="67" rx="6" ry="6" />
<ellipse fill="#3d2b0b" fill-opacity="0.501961" cx="14" cy="81" rx="7" ry="7" />
<ellipse fill="#bec1c1" fill-opacity="0.501961" cx="238" cy="145" rx="7" ry="7" />
<ellipse fill="#c88e28" fill-opacity="0.501961" cx="160" cy="169" rx="11" ry="11" />
<ellipse fill="#201d11" fill-opacity="0.501961" cx="193" cy="157" rx="6" ry="6" />
<ellipse fill="#997a4f" fill-opacity="0.501961" cx="202" cy="148" rx="3" ry="3" />
<ellipse fill="#1f1101" fill-opacity="0.501961" cx="88" cy="22" rx="3" ry="3" />
<ellipse fill="#b5aea5" fill-opacity="0.501961" cx="170" cy="143" rx="3" ry="3" />
<ellipse fill="#e6bc73" fill-opacity="0.501961" cx="150" cy="110" rx="4" ry="4" />
<ellipse fill="#3e1f05" fill-opacity="0.501961" cx="107" cy="58" rx="12" ry="12" />
<ellipse fill="#49330c" fill-opacity="0.501961" cx="19" cy="68" rx="5" ry="5" />
<ellipse fill="#e4c68a" fill-opacity="0.501961" cx="155" cy="5" rx="2" ry="2" />
<ellipse fill="#cc8724" fill-opacity="0.501961" cx="36" cy="0" rx="11" ry="11" />
<ellipse fill="#e2c699" fill-opacity="0.501961" cx="136" cy="12" rx="3" ry="3" />
<ellipse fill="#251102" fill-opacity="0.501961" cx="28" cy="22" rx="5" ry="5" />
<ellipse fill="#d18f1f" fill-opacity="0.501961" cx="131" cy="125" rx="8" ry="8" />
<ellipse fill="#ab6900" fill-opacity="0.501961" cx="171" cy="38" rx="4" ry="4" />
<ellipse fill="#d7ac60" fill-opacity="0.501961" cx="180" cy="59" rx="4" ry="4" />
<ellipse fill="#8b4b00" fill-opacity="0.501961" cx="152" cy="124" rx="6" ry="6" />
<ellipse fill="#e0a94a" fill-opacity="0.501961" cx="87" cy="169" rx="9" ry="9" />
<ellipse fill="#5f3208" fill-opacity="0.501961" cx="83" cy="37" rx="6" ry="6" />
<ellipse fill="#a86a07" fill-opacity="0.501961" cx="188" cy="125" rx="3" ry="3" />
<ellipse fill="#b06905" fill-opacity="0.501961" cx="161" cy="95" rx="5" ry="5" />
<ellipse fill="#5e3b0b" fill-opacity="0.501961" cx="58" cy="125" rx="5" ry="5" />
<ellipse fill="#c08520" fill-opacity="0.501961" cx="121" cy="23" rx="8" ry="8" />
<ellipse fill="#2e3028" fill-opacity="0.501961" cx="182" cy="32" rx="4" ry="4" />
<ellipse fill="#c88a1e" fill-opacity="0.501961" cx="159" cy="115" rx="5" ry="5" />
<ellipse fill="#231405" fill-opacity="0.501961" cx="14" cy="54" rx="9" ry="9" />
<ellipse fill="#905716" fill-opacity="0.501961" cx="189" cy="150" rx="3" ry="3" />
<ellipse fill="#e2c38f" fill-opacity="0.501961" cx="176" cy="95" rx="3" ry="3" />
<ellipse fill="#726a57" fill-opacity="0.501961" cx="248" cy="169" rx="9" ry="9" />
<ellipse fill="#9f4d00" fill-opacity="0.501961" cx="106" cy="145" rx="3" ry="3" />
<ellipse fill="#935200" fill-opacity="0.501961" cx="149" cy="57" rx="5" ry="5" />
<ellipse fill="#a16000" fill-opacity="0.501961" cx="133" cy="138" rx="2" ry="2" />
<ellipse fill="#d09422" fill-opacity="0.501961" cx="153" cy="45" rx="4" ry="4" />
<ellipse fill="#0f0d03" fill-opacity="0.501961" cx="2" cy="112" rx="10" ry="10" />
<ellipse fill="#20251b" fill-opacity="0.501961" cx="216" cy="22" rx="7" ry="7" />
<ellipse fill="#4c1c00" fill-opacity="0.501961" cx="33" cy="163" rx="4" ry="4" />
</g>
</svg>