<svg xmlns="http://www.w3.org/2000/svg" version="1.1" width="750" height="498">
<rect x="0" y="0" width="750" height="498" fill="#9eb7cc" />
<g transform="scale(2.929688) translate(0.5 0.5)">
<path stroke="#000000" stroke-opacity="0.501961" fill="none" d="M 181.618625 116.319827 Q 98.206850 59.169480, 78.248975 42.385596" stroke-width="0.500000" />
<path stroke="#000000" stroke-opacity="0.501961" fill="none" d="M 192.292532 48.763213 Q 102.575872 47.739272, 113.721799 135.119939" stroke-width="0.500000" />
<path stroke="#000000" stroke-opacity="0.501961" fill="none" d="M 189.009436 117.207858 Q 97.390304 56.857607, 80.955033 41.020023" stroke-width="0.500000" />
<path stroke="#000000" stroke-opacity="0.501961" fill="none" d="M 81.899692 41.718527 Q 171.915891 130.337641, 196.361895 103.156482" stroke-width="0.500000" />
<path stroke="#000000" stroke-opacity="0.501961" fill="none" d="M 116.220259 143.205788 Q 100.391691 47.863754, 199.957922 49.861494" stroke-width="0.500000" />
<path stroke="#000000" stroke-opacity="0.501961" fill="none" d="M 189.766667 52.110218 Q 118.526598 49.050139, 117.783426 138.071220" stroke-width="0.500000" />
<path stroke="#000000" stroke-opacity="0.501961" fill="none" d="M 73.427310 39.067559 Q 192.135693 104.681595, 171.281021 138.125949" stroke-width="0.500000" />
<path stroke="#000000" stroke-opacity="0.501961" fill="none" d="M 186.298953 47.216718 Q 89.587066 55.885149, 118.008519 140.163359" stroke-width="0.500000" />
<path stroke="#000000" stroke-opacity="0.501961" fill="none" d="M 191.319200 49.084121 Q 101.607167 73.475048, 118.889901 138.300641" stroke-width="0.500000" />
<path stroke="#000000" stroke-opacity="0.501961" fill="none" d="M 195.852649 104.920660 Q 161.544146 122.143303, 90.442431 45.193092" stroke-width="0.500000" />
<path stroke="#000000" stroke-opacity="0.501961" fill="none" d="M 117.104910 138.971574 Q 105.082379 54.111344, 193.416226 47.010055" stroke-width="0.500000" />
<path stroke="#000000" stroke-opacity="0.501961" fill="none" d="M 196.380090 125.486511 Q 117.526429 70.226557, 82.930602 45.247397" stroke-width="0.500000" />
<path stroke="#000000" stroke-opacity="0.501961" fill="none" d="M 84.484761 43.415409 Q 158.948027 84.328845, 181.891126 126.913513" stroke-width="0.500000" />
<path stroke="#000000" stroke-opacity="0.501961" fill="none" d="M 114.175941 135.505974 Q 93.849836 44.545103, 175.603105 54.609629" stroke-width="0.500000" />
<path stroke="#000000" stroke-opacity="0.501961" fill="none" d="M 125.824027 148.346406 Q 92.719794 81.087099, 188.760284 50.611598" stroke-width="0.500000" />
<path stroke="#000000" stroke-opacity="0.501961" fill="none" d="M 188.354536 118.894829 Q 126.264448 91.623219, 82.237674 43.643431" stroke-width="0.500000" />
<path stroke="#000000" stroke-opacity="0.501961" fill="none" d="M 195.602712 47.862662 Q 99.367654 69.028382, 115.995370 141.458167" stroke-width="0.500000" />
<path stroke="#000000" stroke-opacity="0.501961" fill="none" d="M 83.375317 42.643545 Q 173.079375 104.699141, 181.006243 120.129052" stroke-width="0.500000" />
<path stroke="#000000" stroke-opacity="0.501961" fill="none" d="M 183.781382 119.322203 Q 104.361958 63.695046, 88.312884 51.525985" stroke-width="0.500000" />
<path stroke="#000000" stroke-opacity="0.501961" fill="none" d="M 194.238137 45.079596 Q 117.281134 55.754291, 117.944328 145.700306" stroke-width="0.500000" />
<path stroke="#000000" stroke-opacity="0.501961" fill="none" d="M 119.716565 128.778060 Q 87.386044 52.682535, 188.318792 49.777186" stroke-width="0.500000" />
<path stroke="#000000" stroke-opacity="0.501961" fill="none" d="M 114.560721 139.910701 Q 95.390097 62.459074, 184.138549 46.488307" stroke-width="0.500000" />
<path stroke="#000000" stroke-opacity="0.501961" fill="none" d="M 118.307294 135.634629 Q 112.992739 50.650192, 187.775906 53.141573" stroke-width="0.500000" />
<path stroke="#000000" stroke-opacity="0.501961" fill="none" d="M 88.854842 50.071253 Q 159.994574 118.330486, 195.826019 102.890141" stroke-width="0.500000" />
<path stroke="#000000" stroke-opacity="0.501961" fill="none" d="M 86.791700 43.558442 Q 175.058041 103.117920, 179.269872 132.635902" stroke-width="0.500000" />
<path stroke="#000000" stroke-opacity="0.501961" fill="none" d="M 111.877642 136.013641 Q 114.904356 73.961184, 193.196509 49.211827" stroke-width="0.500000" />
<path stroke="#000000" stroke-opacity="0.501961" fill="none" d="M 75.829502 42.170564 Q 174.455005 124.926654, 197.596376 102.082177" stroke-width="0.500000" />
<path stroke="#000000" stroke-opacity="0.501961" fill="none" d="M 117.741626 135.655280 Q 84.157307 82.989761, 191.271987 45.122385" stroke-width="0.500000" />
<path stroke="#000000" stroke-opacity="0.501961" fill="none" d="M 173.640504 131.752553 Q 186.688870 114.508308, 81.545914 42.671716" stroke-width="0.500000" />
<path stroke="#000000" stroke-opacity="0.501961" fill="none" d="M 171.475649 54.743596 Q 88.137079 48.187047, 117.191610 121.127568" stroke-width="0.500000" />
<path stroke="#000000" stroke-opacity="0.501961" fill="none" d="M 81.198314 44.228499 Q 158.447670 125.553042, 205.191000 96.905877" stroke-width="0.500000" />
<path stroke="#000000" stroke-opacity="0.501961" fill="none" d="M 190.591122 47.940228 Q 120.291921 62.891722, 118.941851 139.800276" stroke-width="0.500000" />
<path stroke="#000000" stroke-opacity="0.501961" fill="none" d="M 199.642130 51.310836 Q 92.271236 47.096828, 118.263914 136.737955" stroke-width="0.500000" />
<path stroke="#000000" stroke-opacity="0.501961" fill="none" d="M 118.645396 137.452037 Q 83.598383 48.652597, 180.763399 55.594706" stroke-width="0.500000" />
<path stroke="#000000" stroke-opacity="0.501961" fill="none" d="M 83.470161 43.640716 Q 173.847719 95.808506, 177.780405 125.417791" stroke-width="0.500000" />
<path stroke="#000000" stroke-opacity="0.501961" fill="none" d="M 118.431076 120.172759 Q 99.578431 65.253455, 183.519687 53.868348" stroke-width="0.500000" />
<path stroke="#000000" stroke-opacity="0.501961" fill="none" d="M 186.612372 114.294175 Q 89.090243 46.307102, 84.940490 47.975321" stroke-width="0.500000" />
<path stroke="#000000" stroke-opacity="0.501961" fill="none" d="M 190.368022 46.946793 Q 122.560110 84.057009, 105.128235 115.653855" stroke-width="0.500000" />
<path stroke="#000000" stroke-opacity="0.501961" fill="none" d="M 87.306546 42.029133 Q 120.201585 89.510911, 195.079674 112.585119" stroke-width="0.500000" />
<path stroke="#000000" stroke-opacity="0.501961" fill="none" d="M 117.676818 142.287477 Q 110.156755 71.689303, 179.922281 54.520285" stroke-width="0.500000" />
<path stroke="#000000" stroke-opacity="0.501961" fill="none" d="M 171.196195 132.175843 Q 182.114734 107.765907, 97.111896 49.170663" stroke-width="0.500000" />
<path stroke="#000000" stroke-opacity="0.501961" fill="none" d="M 177.286430 121.722065 Q 171.093196 107.519604, 88.642890 49.434731" stroke-width="0.500000" />
<path stroke="#000000" stroke-opacity="0.501961" fill="none" d="M 178.993280 56.404537 Q 104.404058 63.036950, 114.076290 137.568140" stroke-width="0.500000" />
<path stroke="#000000" stroke-opacity="0.501961" fill="none" d="M 85.780079 46.681139 Q 180.703992 123.468396, 198.047424 101.233066" stroke-width="0.500000" />
<path stroke="#000000" stroke-opacity="0.501961" fill="none" d="M 118.196731 131.974713 Q 86.747713 53.995084, 173.722187 56.999179" stroke-width="0.500000" />
<path stroke="#000000" stroke-opacity="0.501961" fill="none" d="M 117.441889 118.711645 Q 95.530781 54.241686, 191.392858 46.437296" stroke-width="0.500000" />
<path stroke="#000000" stroke-opacity="0.501961" fill="none" d="M 163.273288 54.964612 Q 93.099371 50.617965, 112.233401 111.612852" stroke-width="0.500000" />
<path stroke="#000000" stroke-opacity="0.501961" fill="none" d="M 176.233092 54.331376 Q 137.049133 62.637893, 111.419848 129.970570" stroke-width="0.500000" />
<path stroke="#000000" stroke-opacity="0.501961" fill="none" d="M 195.612824 100.036471 Q 139.163240 126.205557, 134.611008 51.313826" stroke-width="0.500000" />
<path stroke="#000000" stroke-opacity="0.501961" fill="none" d="M 118.854321 130.320007 Q 121.456744 56.463977, 188.047441 45.626669" stroke-width="0.500000" />
<path stroke="#000000" stroke-opacity="0.501961" fill="none" d="M 116.044650 138.140906 Q 111.429342 57.183004, 172.324001 60.228131" stroke-width="0.500000" />
<path stroke="#000000" stroke-opacity="0.501961" fill="none" d="M 165.308134 62.115103 Q 93.715867 55.567851, 121.856250 120.537616" stroke-width="0.500000" />
<path stroke="#000000" stroke-opacity="0.501961" fill="none" d="M 91.134833 43.738590 Q 169.532383 126.972021, 191.960333 107.616123" stroke-width="0.500000" />
<path stroke="#000000" stroke-opacity="0.501961" fill="none" d="M 93.105098 93.120866 Q 167.341886 70.586991, 175.279577 126.350752" stroke-width="0.500000" />
<path stroke="#000000" stroke-opacity="0.501961" fill="none" d="M 115.583761 140.252041 Q 132.980680 54.034479, 187.046290 46.612075" stroke-width="0.500000" />
<path stroke="#000000" stroke-opacity="0.501961" fill="none" d="M 114.716647 114.692987 Q 95.616218 44.910265, 174.080676 58.498940" stroke-width="0.500000" />
<path stroke="#000000" stroke-opacity="0.501961" fill="none" d="M 186.181066 112.843319 Q 116.762406 78.844027, 80.485139 44.955073" stroke-width="0.500000" />
<path stroke="#000100" stroke-opacity="0.501961" fill="none" d="M 186.910065 47.774659 Q 84.499303 87.659475, 117.832699 140.364705" stroke-width="0.500000" />
<path stroke="#000000" stroke-opacity="0.501961" fill="none" d="M 101.668990 94.146139 Q 171.932795 68.749822, 173.862067 146.128243" stroke-width="0.500000" />
<path stroke="#000000" stroke-opacity="0.501961" fill="none" d="M 179.255912 125.948240 Q 161.676285 93.821104, 92.226493 51.983808" stroke-width="0.500000" />
<path stroke="#000000" stroke-opacity="0.501961" fill="none" d="M 87.679974 49.814788 Q 153.024914 82.913736, 183.064742 48.632450" stroke-width="0.500000" />
<path stroke="#000000" stroke-opacity="0.501961" fill="none" d="M 188.394929 52.664175 Q 97.119291 59.365016, 123.505631 124.535115" stroke-width="0.500000" />
<path stroke="#000000" stroke-opacity="0.501961" fill="none" d="M 93.865310 58.309431 Q 173.860569 122.375719, 195.209713 105.192670" stroke-width="0.500000" />
<path stroke="#000000" stroke-opacity="0.501961" fill="none" d="M 180.925360 51.964733 Q 119.581293 79.365623, 112.228369 134.226986" stroke-width="0.500000" />
<path stroke="#000000" stroke-opacity="0.501961" fill="none" d="M 137.890773 55.445767 Q 89.658433 64.414782, 122.287793 114.828403" stroke-width="0.500000" />
<path stroke="#000403" stroke-opacity="0.501961" fill="none" d="M 173.198453 125.628520 Q 167.750412 89.230188, 84.533577 42.393323" stroke-width="0.500000" />
<path stroke="#000000" stroke-opacity="0.501961" fill="none" d="M 114.464072 139.889049 Q 136.238827 58.022938, 81.360965 43.171933" stroke-width="0.500000" />
<path stroke="#000000" stroke-opacity="0.501961" fill="none" d="M 184.354065 48.547069 Q 92.832954 57.806525, 117.985716 141.210005" stroke-width="0.500000" />
<path stroke="#000000" stroke-opacity="0.501961" fill="none" d="M 186.929490 45.401296 Q 113.995313 61.849228, 122.963467 120.062567" stroke-width="0.500000" />
<path stroke="#000000" stroke-opacity="0.501961" fill="none" d="M 179.494408 53.127759 Q 84.682232 49.286821, 118.512440 129.591335" stroke-width="0.500000" />
<path stroke="#000000" stroke-opacity="0.501961" fill="none" d="M 114.686623 137.216998 Q 99.898817 83.856779, 161.814967 47.885958" stroke-width="0.500000" />
<path stroke="#000200" stroke-opacity="0.501961" fill="none" d="M 192.637785 113.103857 Q 134.901689 111.816591, 133.099745 51.736725" stroke-width="0.500000" />
<path stroke="#fffefe" stroke-opacity="0.501961" fill="none" d="M 177.655175 19.662531 Q 65.905878 -16.000000, -16.000000 114.207101" stroke-width="0.500000" />
<path stroke="#000200" stroke-opacity="0.501961" fill="none" d="M 173.784616 130.173476 Q 189.292282 98.503136, 80.303649 48.981970" stroke-width="0.500000" />
<path stroke="#000a04" stroke-opacity="0.501961" fill="none" d="M 82.076942 45.642284 Q 111.948427 85.911392, 177.066631 58.114299" stroke-width="0.500000" />
<path stroke="#000000" stroke-opacity="0.501961" fill="none" d="M 183.185044 117.224066 Q 142.340788 78.425869, 85.969384 53.722792" stroke-width="0.500000" />
<path stroke="#000000" stroke-opacity="0.501961" fill="none" d="M 111.211342 121.638852 Q 104.122699 50.613616, 167.766372 61.620925" stroke-width="0.500000" />
<path stroke="#000d06" stroke-opacity="0.501961" fill="none" d="M 195.565890 101.565421 Q 179.646155 126.982184, 107.241543 70.940856" stroke-width="0.500000" />
<path stroke="#000200" stroke-opacity="0.501961" fill="none" d="M 158.613111 45.459626 Q 165.317129 78.474124, 103.478168 91.951008" stroke-width="0.500000" />
<path stroke="#000000" stroke-opacity="0.501961" fill="none" d="M 119.690665 125.530164 Q 97.667016 82.203242, 182.909745 53.572024" stroke-width="0.500000" />
<path stroke="#fffefe" stroke-opacity="0.501961" fill="none" d="M -9.105149 111.087001 Q 65.629157 -10.702650, 170.036100 19.516729" stroke-width="0.500000" />
<path stroke="#000000" stroke-opacity="0.501961" fill="none" d="M 197.038295 102.034028 Q 186.477138 100.739107, 169.479408 130.196749" stroke-width="0.500000" />
<path stroke="#fff9fb" stroke-opacity="0.501961" fill="none" d="M 183.965494 7.066623 Q 31.927108 27.763201, -16.000000 116.806371" stroke-width="0.500000" />
<path stroke="#fff9fb" stroke-opacity="0.501961" fill="none" d="M 3.711394 88.671877 Q 70.876566 33.651966, 183.911883 8.439244" stroke-width="0.500000" />
<path stroke="#000000" stroke-opacity="0.501961" fill="none" d="M 121.008127 116.085011 Q 119.879491 60.952451, 80.998928 44.748529" stroke-width="0.500000" />
<path stroke="#000000" stroke-opacity="0.501961" fill="none" d="M 107.045855 94.642462 Q 109.913560 46.606802, 166.499151 60.318434" stroke-width="0.500000" />
<path stroke="#000000" stroke-opacity="0.501961" fill="none" d="M 202.164910 96.479924 Q 166.977230 126.478163, 173.339103 134.750606" stroke-width="0.500000" />
<path stroke="#000100" stroke-opacity="0.501961" fill="none" d="M 80.845648 46.832588 Q 140.170382 54.957463, 112.598209 137.325589" stroke-width="0.500000" />
<path stroke="#000000" stroke-opacity="0.501961" fill="none" d="M 170.328444 130.286160 Q 163.607216 104.249982, 193.806043 101.171672" stroke-width="0.500000" />
<path stroke="#000000" stroke-opacity="0.501961" fill="none" d="M 105.772268 116.812223 Q 118.239306 108.011616, 159.556157 46.995474" stroke-width="0.500000" />
<path stroke="#000700" stroke-opacity="0.501961" fill="none" d="M 180.351973 121.206370 Q 138.909967 59.216213, 105.311194 117.256072" stroke-width="0.500000" />
<path stroke="#fff5fa" stroke-opacity="0.501961" fill="none" d="M 194.091318 6.902982 Q 82.318757 19.404159, -16.000000 100.736942" stroke-width="0.500000" />
<path stroke="#000404" stroke-opacity="0.501961" fill="none" d="M 169.182555 138.692375 Q 183.619142 103.461082, 82.276135 44.425785" stroke-width="0.500000" />
<path stroke="#fffafb" stroke-opacity="0.501961" fill="none" d="M 175.882287 18.162091 Q 76.174785 -16.000000, -3.734455 93.822547" stroke-width="0.500000" />
<path stroke="#fff6fa" stroke-opacity="0.501961" fill="none" d="M -16.000000 130.220342 Q 58.741970 -16.000000, 179.513649 23.895814" stroke-width="0.500000" />
<path stroke="#000a00" stroke-opacity="0.501961" fill="none" d="M 170.392873 61.615477 Q 115.080635 72.329189, 87.364182 43.627875" stroke-width="0.500000" />
<path stroke="#000501" stroke-opacity="0.501961" fill="none" d="M 101.938165 91.495023 Q 147.136988 63.931439, 180.350821 123.332202" stroke-width="0.500000" />
<path stroke="#fff6f8" stroke-opacity="0.501961" fill="none" d="M -16.000000 118.308299 Q 27.666883 27.111696, 180.654636 6.407076" stroke-width="0.500000" />
<path stroke="#000000" stroke-opacity="0.501961" fill="none" d="M 123.916118 113.840788 Q 109.234151 72.057013, 170.677283 59.924929" stroke-width="0.500000" />
<path stroke="#000500" stroke-opacity="0.501961" fill="none" d="M 189.086462 50.330703 Q 94.172965 49.351974, 114.464866 117.840581" stroke-width="0.500000" />
<path stroke="#000400" stroke-opacity="0.501961" fill="none" d="M 113.705576 122.951092 Q 99.265867 62.523193, 179.409650 51.565202" stroke-width="0.500000" />
<path stroke="#fff5f8" stroke-opacity="0.501961" fill="none" d="M -5.160750 119.036498 Q -12.317109 36.140687, 178.179011 5.086420" stroke-width="0.500000" />
<path stroke="#000d07" stroke-opacity="0.501961" fill="none" d="M 112.930294 138.216882 Q 144.717124 91.501511, 81.337068 43.837620" stroke-width="0.500000" />
<path stroke="#fff4f8" stroke-opacity="0.501961" fill="none" d="M 187.809878 9.536385 Q 30.836259 53.565655, -7.248166 79.580716" stroke-width="0.500000" />
<path stroke="#fff6fa" stroke-opacity="0.501961" fill="none" d="M 170.503503 26.532257 Q 128.217996 -9.442019, 9.935803 92.747295" stroke-width="0.500000" />
<path stroke="#fff7fa" stroke-opacity="0.501961" fill="none" d="M 167.706734 13.367788 Q 39.073720 -13.091278, 43.153065 90.898453" stroke-width="0.500000" />
<path stroke="#fff4f7" stroke-opacity="0.501961" fill="none" d="M 175.196350 20.254648 Q 65.590861 -16.000000, -7.244808 98.937606" stroke-width="0.500000" />
<path stroke="#000000" stroke-opacity="0.501961" fill="none" d="M 199.278522 103.387878 Q 170.207764 102.662376, 170.189058 131.444073" stroke-width="0.500000" />
<path stroke="#000000" stroke-opacity="0.501961" fill="none" d="M 137.553070 53.581208 Q 88.175526 71.029280, 122.073272 103.749426" stroke-width="0.500000" />
<path stroke="#ffffff" stroke-opacity="0.501961" fill="none" d="M 65.800768 -15.959478 Q 79.169167 87.569593, -16.000000 91.508818" stroke-width="0.500000" />
<path stroke="#fffffd" stroke-opacity="0.501961" fill="none" d="M 97.107095 -14.560779 Q 78.557225 107.194403, -16.000000 51.672762" stroke-width="0.500000" />
<path stroke="#000b00" stroke-opacity="0.501961" fill="none" d="M 118.040365 133.642535 Q 123.710992 64.638212, 176.857378 50.152847" stroke-width="0.500000" />
<path stroke="#000000" stroke-opacity="0.501961" fill="none" d="M 84.338272 46.953070 Q 146.310339 97.122320, 180.391924 114.395406" stroke-width="0.500000" />
<path stroke="#fffdfc" stroke-opacity="0.501961" fill="none" d="M 3.039627 86.413773 Q 111.952037 71.380723, 52.143271 -16.000000" stroke-width="0.500000" />
<path stroke="#000000" stroke-opacity="0.501961" fill="none" d="M 198.694087 102.305264 Q 138.965262 121.151553, 135.961166 52.800068" stroke-width="0.500000" />
<path stroke="#ffeef4" stroke-opacity="0.501961" fill="none" d="M 192.040622 4.382279 Q 15.223092 83.766981, -2.239375 8.681111" stroke-width="0.500000" />
<path stroke="#000700" stroke-opacity="0.501961" fill="none" d="M 100.399182 88.334473 Q 131.232040 101.594235, 162.954494 51.133145" stroke-width="0.500000" />
<path stroke="#ffeef5" stroke-opacity="0.501961" fill="none" d="M 8.823417 111.902533 Q -0.489153 53.993595, 175.351237 1.528495" stroke-width="0.500000" />
<path stroke="#000d00" stroke-opacity="0.501961" fill="none" d="M 186.521814 52.339799 Q 103.029157 62.482555, 120.092930 125.470166" stroke-width="0.500000" />
<path stroke="#fff2f6" stroke-opacity="0.501961" fill="none" d="M 166.687704 -4.128146 Q 137.198122 69.220411, -13.490451 23.554103" stroke-width="0.500000" />
<path stroke="#ffeff5" stroke-opacity="0.501961" fill="none" d="M 180.133729 34.630912 Q 120.928723 -16.000000, -15.368239 90.144432" stroke-width="0.500000" />
<path stroke="#000500" stroke-opacity="0.501961" fill="none" d="M 152.361237 60.897041 Q 111.833794 47.151973, 107.735541 97.548313" stroke-width="0.500000" />
<path stroke="#000100" stroke-opacity="0.501961" fill="none" d="M 86.685545 51.032783 Q 162.919629 104.745003, 185.239305 115.121412" stroke-width="0.500000" />
<path stroke="#000000" stroke-opacity="0.501961" fill="none" d="M 172.235133 131.414727 Q 161.863892 99.871270, 198.646171 101.849774" stroke-width="0.500000" />
<path stroke="#fffefc" stroke-opacity="0.501961" fill="none" d="M 61.862994 -0.343074 Q 91.451131 87.906442, 0.248684 70.103244" stroke-width="0.500000" />
<path stroke="#000800" stroke-opacity="0.501961" fill="none" d="M 166.626699 63.679968 Q 101.525084 53.054439, 120.399565 123.210041" stroke-width="0.500000" />
<path stroke="#fff6f8" stroke-opacity="0.501961" fill="none" d="M 173.918698 20.730282 Q 41.490289 -16.000000, 46.424562 86.032166" stroke-width="0.500000" />
<path stroke="#000000" stroke-opacity="0.501961" fill="none" d="M 169.135223 131.445895 Q 175.452632 121.866766, 190.023724 104.714988" stroke-width="0.500000" />
<path stroke="#fffdfc" stroke-opacity="0.501961" fill="none" d="M 68.910538 -5.291945 Q 79.473512 83.894972, -3.503147 84.430529" stroke-width="0.500000" />
<path stroke="#fffefa" stroke-opacity="0.501961" fill="none" d="M -16.000000 68.859846 Q 93.229286 70.333758, 93.238595 6.887957" stroke-width="0.500000" />
<path stroke="#000f02" stroke-opacity="0.501961" fill="none" d="M 116.059427 122.063327 Q 148.003147 58.227882, 131.736529 50.406732" stroke-width="0.500000" />
<path stroke="#000908" stroke-opacity="0.501961" fill="none" d="M 80.272804 41.693999 Q 122.147396 65.211133, 186.538968 120.408710" stroke-width="0.500000" />
<path stroke="#041409" stroke-opacity="0.501961" fill="none" d="M 162.937790 44.937841 Q 122.347257 108.720498, 107.504064 116.064923" stroke-width="0.500000" />
<path stroke="#fff7f9" stroke-opacity="0.501961" fill="none" d="M 8.643014 85.241632 Q 108.196465 86.169747, 60.874827 -6.748091" stroke-width="0.500000" />
<path stroke="#fffbfa" stroke-opacity="0.501961" fill="none" d="M 69.630694 -2.880392 Q 106.975741 49.971575, 4.739673 85.296291" stroke-width="0.500000" />
<path stroke="#000a0a" stroke-opacity="0.501961" fill="none" d="M 172.890687 134.050451 Q 180.391006 97.139178, 91.194038 50.848883" stroke-width="0.500000" />
<path stroke="#fff9fb" stroke-opacity="0.501961" fill="none" d="M 95.332600 65.752871 Q -4.695260 51.034655, -0.218478 -3.804224" stroke-width="0.500000" />
<path stroke="#fffffe" stroke-opacity="0.501961" fill="none" d="M 66.718491 -7.666619 Q 81.844690 94.340213, -16.000000 57.610410" stroke-width="0.500000" />
<path stroke="#fff1f5" stroke-opacity="0.501961" fill="none" d="M 161.258329 24.314079 Q 117.794441 -12.737816, -3.194599 84.534660" stroke-width="0.500000" />
<path stroke="#000c01" stroke-opacity="0.501961" fill="none" d="M 162.223288 48.910935 Q 103.490539 101.363237, 113.302991 137.097881" stroke-width="0.500000" />
<path stroke="#001002" stroke-opacity="0.501961" fill="none" d="M 197.865795 100.009899 Q 166.848866 111.518950, 172.011998 136.098101" stroke-width="0.500000" />
<path stroke="#fffaf9" stroke-opacity="0.501961" fill="none" d="M 1.469483 69.800110 Q 104.400171 75.953826, 74.650673 -16.000000" stroke-width="0.500000" />
<path stroke="#000000" stroke-opacity="0.501961" fill="none" d="M 171.262795 133.495674 Q 181.433580 119.715797, 186.483061 100.650183" stroke-width="0.500000" />
<path stroke="#fff6f7" stroke-opacity="0.501961" fill="none" d="M 78.243204 -13.683902 Q 101.503909 97.226603, -4.663531 63.420861" stroke-width="0.500000" />
<path stroke="#000000" stroke-opacity="0.501961" fill="none" d="M 126.700448 101.256918 Q 134.096982 85.722361, 81.690217 45.378990" stroke-width="0.500000" />
<path stroke="#000500" stroke-opacity="0.501961" fill="none" d="M 121.831002 120.172629 Q 95.922214 87.872437, 138.112856 54.482371" stroke-width="0.500000" />
<path stroke="#feebf2" stroke-opacity="0.501961" fill="none" d="M -5.159152 92.269133 Q 66.429755 -13.661699, 179.672101 13.922077" stroke-width="0.500000" />
<path stroke="#ffeef4" stroke-opacity="0.501961" fill="none" d="M 157.343428 39.934443 Q 38.589528 21.755073, 3.597456 103.139614" stroke-width="0.500000" />
<path stroke="#000c00" stroke-opacity="0.501961" fill="none" d="M 104.345473 92.218937 Q 113.912359 85.801793, 162.224911 47.807787" stroke-width="0.500000" />
<path stroke="#fff0f6" stroke-opacity="0.501961" fill="none" d="M 2.680657 -16.000000 Q -9.957670 52.273369, 107.726414 75.620145" stroke-width="0.500000" />
<path stroke="#f8ebf4" stroke-opacity="0.501961" fill="none" d="M 41.317278 98.725884 Q 33.458213 -16.000000, 174.545887 9.746147" stroke-width="0.500000" />
<path stroke="#faebf3" stroke-opacity="0.501961" fill="none" d="M -16.000000 84.885602 Q 44.639255 21.126712, 176.013193 39.178601" stroke-width="0.500000" />
<path stroke="#000401" stroke-opacity="0.501961" fill="none" d="M 192.499675 107.164252 Q 177.898788 122.463011, 89.186651 45.737024" stroke-width="0.500000" />
<path stroke="#000500" stroke-opacity="0.501961" fill="none" d="M 131.766201 52.389581 Q 142.230792 65.006081, 107.958257 114.651153" stroke-width="0.500000" />
<path stroke="#fff0f4" stroke-opacity="0.501961" fill="none" d="M 54.605208 -15.082238 Q 118.881781 66.303508, 25.547596 90.600977" stroke-width="0.500000" />
<path stroke="#fffcfa" stroke-opacity="0.501961" fill="none" d="M 76.719439 -10.129023 Q 49.257513 98.393255, 1.561414 77.401354" stroke-width="0.500000" />
<path stroke="#011407" stroke-opacity="0.501961" fill="none" d="M 102.277869 88.763387 Q 111.020568 100.975990, 170.578604 56.121102" stroke-width="0.500000" />
<path stroke="#000600" stroke-opacity="0.501961" fill="none" d="M 198.290895 101.620176 Q 169.661490 100.476776, 169.304795 130.157351" stroke-width="0.500000" />
<path stroke="#000901" stroke-opacity="0.501961" fill="none" d="M 107.822148 78.776593 Q 180.706122 102.057749, 175.985009 128.844723" stroke-width="0.500000" />
<path stroke="#fff0f4" stroke-opacity="0.501961" fill="none" d="M 108.398946 73.568692 Q -16.000000 46.271508, 1.177740 0.113935" stroke-width="0.500000" />
<path stroke="#000e01" stroke-opacity="0.501961" fill="none" d="M 183.928476 46.945195 Q 129.324215 87.928102, 80.697773 42.150474" stroke-width="0.500000" />
<path stroke="#fff3f6" stroke-opacity="0.501961" fill="none" d="M 62.173019 -2.625767 Q 97.828847 94.190059, 6.062112 85.516034" stroke-width="0.500000" />
<path stroke="#fff5f7" stroke-opacity="0.501961" fill="none" d="M -5.400337 52.829635 Q 65.489494 97.640997, 93.603096 1.144963" stroke-width="0.500000" />
<path stroke="#ffedf0" stroke-opacity="0.501961" fill="none" d="M 84.467707 -1.091147 Q 93.056617 98.953072, -7.333539 65.067857" stroke-width="0.500000" />
<path stroke="#031101" stroke-opacity="0.501961" fill="none" d="M 154.121364 59.194879 Q 86.841866 57.703680, 119.657715 120.459698" stroke-width="0.500000" />
<path stroke="#fff4f5" stroke-opacity="0.501961" fill="none" d="M 102.093147 5.759766 Q 70.033633 92.022432, -0.700391 19.443665" stroke-width="0.500000" />
<path stroke="#000c01" stroke-opacity="0.501961" fill="none" d="M 133.364940 51.641079 Q 125.515761 96.657301, 102.843823 87.825807" stroke-width="0.500000" />
<path stroke="#000000" stroke-opacity="0.501961" fill="none" d="M 170.229966 132.343338 Q 169.669812 114.512274, 197.891865 101.453091" stroke-width="0.500000" />
<path stroke="#ffecf3" stroke-opacity="0.501961" fill="none" d="M 181.207617 17.966263 Q 31.697034 -16.000000, 38.867291 88.186084" stroke-width="0.500000" />
<path stroke="#fff1f2" stroke-opacity="0.501961" fill="none" d="M -16.000000 54.680760 Q 85.984307 106.550646, 94.579140 -14.802574" stroke-width="0.500000" />
<path stroke="#ffecf2" stroke-opacity="0.501961" fill="none" d="M -5.163453 79.740644 Q 71.209536 8.977357, 172.542435 15.910188" stroke-width="0.500000" />
<path stroke="#000d04" stroke-opacity="0.501961" fill="none" d="M 138.742291 55.276960 Q 106.496509 61.383464, 117.064539 130.322665" stroke-width="0.500000" />
<path stroke="#14241b" stroke-opacity="0.501961" fill="none" d="M 158.549531 67.392985 Q 107.084907 39.614454, 105.789330 96.146590" stroke-width="0.500000" />
<path stroke="#000606" stroke-opacity="0.501961" fill="none" d="M 178.160040 121.171417 Q 180.262215 112.966776, 84.317208 43.027769" stroke-width="0.500000" />
<path stroke="#ffecf2" stroke-opacity="0.501961" fill="none" d="M 157.722386 41.650171 Q 26.120631 27.996833, 6.266705 85.135649" stroke-width="0.500000" />
<path stroke="#001612" stroke-opacity="0.501961" fill="none" d="M 166.612052 126.101740 Q 182.688013 114.932439, 198.602154 102.440556" stroke-width="0.500000" />
<path stroke="#ffeff0" stroke-opacity="0.501961" fill="none" d="M -9.814382 80.863186 Q 53.083482 12.680111, 105.918725 53.011032" stroke-width="0.500000" />
<path stroke="#faeaf1" stroke-opacity="0.501961" fill="none" d="M 16.886132 98.680740 Q 2.030714 57.138114, 173.209691 12.884918" stroke-width="0.500000" />
<path stroke="#ffeef2" stroke-opacity="0.501961" fill="none" d="M 1.795694 92.318082 Q 77.351556 -16.000000, 165.086566 24.084281" stroke-width="0.500000" />
<path stroke="#ffedf2" stroke-opacity="0.501961" fill="none" d="M 75.150169 -3.463027 Q 91.660847 106.896431, -16.000000 75.188283" stroke-width="0.500000" />
<path stroke="#011306" stroke-opacity="0.501961" fill="none" d="M 165.263504 55.784088 Q 105.657188 96.447000, 115.908665 133.791740" stroke-width="0.500000" />
<path stroke="#ffedf0" stroke-opacity="0.501961" fill="none" d="M -1.764941 23.323196 Q 67.585074 99.426909, 107.377707 -3.032619" stroke-width="0.500000" />
<path stroke="#fff4f6" stroke-opacity="0.501961" fill="none" d="M 75.414715 -14.150204 Q 76.831958 51.286224, 13.720425 92.693782" stroke-width="0.500000" />
<path stroke="#000e0c" stroke-opacity="0.501961" fill="none" d="M 88.451545 46.676541 Q 137.942911 84.086122, 104.381139 113.127387" stroke-width="0.500000" />
<path stroke="#031408" stroke-opacity="0.501961" fill="none" d="M 160.867477 50.756695 Q 126.584831 107.836996, 101.047047 89.753307" stroke-width="0.500000" />
<path stroke="#001107" stroke-opacity="0.501961" fill="none" d="M 190.466935 46.021225 Q 113.633763 90.231011, 96.981703 49.168843" stroke-width="0.500000" />
<path stroke="#000400" stroke-opacity="0.501961" fill="none" d="M 171.974170 132.180106 Q 170.921865 127.128463, 196.534042 98.902715" stroke-width="0.500000" />
<path stroke="#fff6f7" stroke-opacity="0.501961" fill="none" d="M 67.025234 -3.626854 Q 65.937351 95.924354, -6.843112 74.026676" stroke-width="0.500000" />
<path stroke="#fff1f5" stroke-opacity="0.501961" fill="none" d="M 48.199528 93.424432 Q 75.374544 1.446587, 117.990671 1.666150" stroke-width="0.500000" />
<path stroke="#fbe9f1" stroke-opacity="0.501961" fill="none" d="M 64.979961 -0.052757 Q 111.185151 90.516963, 4.094391 89.035010" stroke-width="0.500000" />
<path stroke="#00191c" stroke-opacity="0.501961" fill="none" d="M 90.542699 44.635445 Q 152.336397 83.064040, 107.522573 116.908457" stroke-width="0.500000" />
<path stroke="#fff4f7" stroke-opacity="0.501961" fill="none" d="M 78.383589 80.452227 Q 92.190856 45.492320, -4.666425 28.776770" stroke-width="0.500000" />
<path stroke="#001309" stroke-opacity="0.501961" fill="none" d="M 117.252869 115.796498 Q 97.801823 50.632923, 162.189685 55.752559" stroke-width="0.500000" />
<path stroke="#faebf2" stroke-opacity="0.501961" fill="none" d="M 176.722839 -5.008250 Q 128.239492 60.066818, 12.744390 29.672726" stroke-width="0.500000" />
<path stroke="#000205" stroke-opacity="0.501961" fill="none" d="M 90.678342 47.914304 Q 132.734619 83.034254, 159.831977 105.194647" stroke-width="0.500000" />
<path stroke="#000f05" stroke-opacity="0.501961" fill="none" d="M 132.807829 51.994146 Q 155.411628 73.526638, 106.447782 115.512493" stroke-width="0.500000" />
<path stroke="#fff4f7" stroke-opacity="0.501961" fill="none" d="M 83.371072 61.641640 Q -16.000000 36.273172, 5.310600 -6.520906" stroke-width="0.500000" />
<path stroke="#fff4f5" stroke-opacity="0.501961" fill="none" d="M 82.925954 -9.239057 Q 86.218096 84.467599, -11.203859 58.725022" stroke-width="0.500000" />
<path stroke="#f5e8ef" stroke-opacity="0.501961" fill="none" d="M -16.000000 19.443777 Q 150.822423 77.197805, 172.156563 -16.000000" stroke-width="0.500000" />
<path stroke="#ffeaf0" stroke-opacity="0.501961" fill="none" d="M -16.000000 87.011088 Q 99.838921 90.603086, 69.718754 -0.819004" stroke-width="0.500000" />
<path stroke="#ffecf1" stroke-opacity="0.501961" fill="none" d="M 47.422317 94.743636 Q 41.239306 -16.000000, 164.662331 21.153492" stroke-width="0.500000" />
<path stroke="#000e06" stroke-opacity="0.501961" fill="none" d="M 135.246410 51.708499 Q 128.340619 97.239759, 106.625214 114.647562" stroke-width="0.500000" />
<path stroke="#001d1a" stroke-opacity="0.501961" fill="none" d="M 86.470520 50.160393 Q 126.051280 90.540558, 181.167270 53.169091" stroke-width="0.500000" />
<path stroke="#ffeff2" stroke-opacity="0.501961" fill="none" d="M -3.446583 71.277515 Q 91.128784 90.927689, 68.926242 1.157468" stroke-width="0.500000" />
<path stroke="#00150e" stroke-opacity="0.501961" fill="none" d="M 86.016046 50.279566 Q 109.256655 55.144438, 121.279646 111.248800" stroke-width="0.500000" />
<path stroke="#fff3f4" stroke-opacity="0.501961" fill="none" d="M 2.501582 88.630918 Q 97.619494 44.536562, 49.894019 -15.472688" stroke-width="0.500000" />
<path stroke="#fdeaf0" stroke-opacity="0.501961" fill="none" d="M 55.658416 87.733523 Q 37.678441 -16.000000, 169.363990 13.999156" stroke-width="0.500000" />
<path stroke="#fff1f5" stroke-opacity="0.501961" fill="none" d="M 92.908410 77.666432 Q 37.243718 16.490765, 4.978335 76.128151" stroke-width="0.500000" />
<path stroke="#f6e7f0" stroke-opacity="0.501961" fill="none" d="M 4.899388 1.569352 Q -16.000000 50.473594, 102.926543 75.996711" stroke-width="0.500000" />
<path stroke="#000000" stroke-opacity="0.501961" fill="none" d="M 186.075465 102.981171 Q 181.049023 102.538650, 172.366732 132.743269" stroke-width="0.500000" />
<path stroke="#ffebf2" stroke-opacity="0.501961" fill="none" d="M 86.690424 54.338443 Q 40.094726 89.570653, -5.755850 -16.000000" stroke-width="0.500000" />
<path stroke="#ffecf1" stroke-opacity="0.501961" fill="none" d="M 91.630737 -0.980254 Q 75.077114 92.081569, -1.724780 54.166082" stroke-width="0.500000" />
<path stroke="#101a09" stroke-opacity="0.501961" fill="none" d="M 172.476002 57.002773 Q 107.412047 57.402761, 122.011926 116.991650" stroke-width="0.500000" />
<path stroke="#000200" stroke-opacity="0.501961" fill="none" d="M 199.769247 102.038162 Q 175.782070 113.291633, 171.282228 126.613696" stroke-width="0.500000" />
<path stroke="#001217" stroke-opacity="0.501961" fill="none" d="M 163.068402 107.058512 Q 137.535566 90.775469, 88.322284 53.556397" stroke-width="0.500000" />
<path stroke="#001111" stroke-opacity="0.501961" fill="none" d="M 80.773949 40.823854 Q 119.530117 66.915060, 143.519792 75.494648" stroke-width="0.500000" />
<path stroke="#ece4ef" stroke-opacity="0.501961" fill="none" d="M 171.663804 6.429793 Q 48.960981 -16.000000, 27.803638 83.853369" stroke-width="0.500000" />
<path stroke="#0c1a0d" stroke-opacity="0.501961" fill="none" d="M 116.557162 122.445682 Q 90.640207 47.887579, 170.770031 59.019218" stroke-width="0.500000" />
<path stroke="#010c00" stroke-opacity="0.501961" fill="none" d="M 172.701458 126.711355 Q 175.167471 108.388302, 195.550582 100.141261" stroke-width="0.500000" />
<path stroke="#f6e7ee" stroke-opacity="0.501961" fill="none" d="M -3.518225 76.312598 Q 108.671854 -2.960277, 180.034188 23.386555" stroke-width="0.500000" />
<path stroke="#ffeff2" stroke-opacity="0.501961" fill="none" d="M 61.976459 -14.090199 Q 84.597032 96.891856, -6.443399 76.044718" stroke-width="0.500000" />
<path stroke="#00110f" stroke-opacity="0.501961" fill="none" d="M 103.736110 62.791059 Q 164.239437 117.109029, 194.791324 101.356854" stroke-width="0.500000" />
<path stroke="#fff4f4" stroke-opacity="0.501961" fill="none" d="M -16.000000 52.535749 Q 62.435308 91.792837, 73.370733 -16.000000" stroke-width="0.500000" />
<path stroke="#14241c" stroke-opacity="0.501961" fill="none" d="M 104.917210 114.484334 Q 137.088278 90.578548, 159.329865 45.679911" stroke-width="0.500000" />
<path stroke="#ffebf0" stroke-opacity="0.501961" fill="none" d="M 43.822698 89.740090 Q 105.720230 55.815143, 56.213018 -0.271039" stroke-width="0.500000" />
<path stroke="#000609" stroke-opacity="0.501961" fill="none" d="M 85.054178 47.277831 Q 122.676013 77.880508, 164.147239 98.390153" stroke-width="0.500000" />
<path stroke="#f2e6ed" stroke-opacity="0.501961" fill="none" d="M 175.435507 -6.049354 Q 176.915517 28.332097, -2.778014 58.700634" stroke-width="0.500000" />
<path stroke="#f5e7ee" stroke-opacity="0.501961" fill="none" d="M 180.164941 9.700852 Q 11.868569 47.063519, 7.719607 88.198211" stroke-width="0.500000" />
<path stroke="#fce8f0" stroke-opacity="0.501961" fill="none" d="M 85.466970 65.588229 Q 35.628127 84.959578, -7.187449 -16.000000" stroke-width="0.500000" />
<path stroke="#fee7ec" stroke-opacity="0.501961" fill="none" d="M -16.000000 59.534407 Q 44.659708 116.508469, 93.416093 20.890313" stroke-width="0.500000" />
<path stroke="#001918" stroke-opacity="0.501961" fill="none" d="M 173.304820 116.841544 Q 151.966708 67.403799, 104.127724 91.974569" stroke-width="0.500000" />
<path stroke="#ffeff2" stroke-opacity="0.501961" fill="none" d="M 4.720914 56.510805 Q 100.561753 77.154442, 72.692970 -16.000000" stroke-width="0.500000" />
<path stroke="#00150d" stroke-opacity="0.501961" fill="none" d="M 102.546989 87.856968 Q 113.891384 102.617724, 152.141564 69.628202" stroke-width="0.500000" />
<path stroke="#001117" stroke-opacity="0.501961" fill="none" d="M 161.050907 107.534295 Q 97.048197 43.623241, 81.193141 42.351322" stroke-width="0.500000" />
<path stroke="#f3e6ee" stroke-opacity="0.501961" fill="none" d="M 168.208198 41.804094 Q 21.386454 23.556075, 6.884234 79.741414" stroke-width="0.500000" />
<path stroke="#ece3ec" stroke-opacity="0.501961" fill="none" d="M 19.552382 102.475248 Q 45.636694 -16.000000, 158.228630 52.660022" stroke-width="0.500000" />
<path stroke="#00140b" stroke-opacity="0.501961" fill="none" d="M 118.587875 102.670720 Q 90.273483 65.308144, 138.652954 55.930847" stroke-width="0.500000" />
<path stroke="#fae6ed" stroke-opacity="0.501961" fill="none" d="M -5.691972 83.964087 Q 112.209343 91.174954, 65.252344 -14.711043" stroke-width="0.500000" />
<path stroke="#ffeff1" stroke-opacity="0.501961" fill="none" d="M -16.000000 85.138040 Q 59.518469 83.402132, 77.517389 -11.682999" stroke-width="0.500000" />
<path stroke="#fbe7eb" stroke-opacity="0.501961" fill="none" d="M 6.288352 75.710322 Q 42.190311 6.223751, 114.313092 58.208911" stroke-width="0.500000" />
<path stroke="#feedf2" stroke-opacity="0.501961" fill="none" d="M 10.379431 28.665354 Q 93.694584 37.773577, 78.502060 77.799531" stroke-width="0.500000" />
<path stroke="#041b14" stroke-opacity="0.501961" fill="none" d="M 161.834864 65.991036 Q 127.032716 57.351315, 111.939790 125.109233" stroke-width="0.500000" />
<path stroke="#0a1d17" stroke-opacity="0.501961" fill="none" d="M 137.835324 54.567759 Q 139.446888 102.581033, 105.396307 112.978798" stroke-width="0.500000" />
<path stroke="#ffedf1" stroke-opacity="0.501961" fill="none" d="M 89.044535 62.727505 Q -10.649301 47.363620, 3.058963 -0.414001" stroke-width="0.500000" />
<path stroke="#282b19" stroke-opacity="0.501961" fill="none" d="M 170.143879 130.773430 Q 161.765570 96.026034, 195.829395 105.595772" stroke-width="0.500000" />
<path stroke="#041b13" stroke-opacity="0.501961" fill="none" d="M 112.115937 128.910993 Q 106.013061 52.241365, 165.133924 53.830287" stroke-width="0.500000" />
<path stroke="#e8e3ee" stroke-opacity="0.501961" fill="none" d="M 110.162817 109.914000 Q 89.264021 52.416057, -16.000000 23.216451" stroke-width="0.500000" />
<path stroke="#101e11" stroke-opacity="0.501961" fill="none" d="M 116.861589 130.202905 Q 126.064445 60.399501, 183.504399 51.177423" stroke-width="0.500000" />
<path stroke="#ffedf1" stroke-opacity="0.501961" fill="none" d="M 69.714129 -6.696659 Q 79.878968 78.752174, 32.803656 92.646431" stroke-width="0.500000" />
<path stroke="#fbe8ee" stroke-opacity="0.501961" fill="none" d="M 171.515513 22.498485 Q 65.926453 -16.000000, 20.313263 93.398419" stroke-width="0.500000" />
<path stroke="#000a00" stroke-opacity="0.501961" fill="none" d="M 171.644597 134.647693 Q 182.269698 107.711308, 186.723967 102.500072" stroke-width="0.500000" />
<path stroke="#eee3ed" stroke-opacity="0.501961" fill="none" d="M 32.512995 78.166528 Q 53.435151 -16.000000, 188.389855 13.956114" stroke-width="0.500000" />
<path stroke="#04170b" stroke-opacity="0.501961" fill="none" d="M 197.597456 104.752097 Q 164.269404 109.181208, 171.114442 132.775575" stroke-width="0.500000" />
<path stroke="#ffe8ec" stroke-opacity="0.501961" fill="none" d="M 82.141371 44.890831 Q 52.370062 110.813625, 9.268216 53.938148" stroke-width="0.500000" />
<path stroke="#172720" stroke-opacity="0.501961" fill="none" d="M 119.790560 115.408859 Q 135.390620 90.355988, 136.002712 52.902369" stroke-width="0.500000" />
<path stroke="#fff0f1" stroke-opacity="0.501961" fill="none" d="M -1.197902 65.737682 Q 81.336211 89.494549, 68.492442 0.990331" stroke-width="0.500000" />
<path stroke="#001d20" stroke-opacity="0.501961" fill="none" d="M 79.025156 41.719815 Q 117.250816 82.746420, 174.164737 111.568621" stroke-width="0.500000" />
<path stroke="#00110b" stroke-opacity="0.501961" fill="none" d="M 186.888373 109.716765 Q 172.918138 119.135835, 125.404344 65.776858" stroke-width="0.500000" />
<path stroke="#0b1d14" stroke-opacity="0.501961" fill="none" d="M 120.473439 119.976792 Q 100.231299 70.903254, 163.618958 49.887399" stroke-width="0.500000" />
<path stroke="#000f0b" stroke-opacity="0.501961" fill="none" d="M 141.258379 80.988615 Q 113.437031 105.320086, 102.576680 88.660873" stroke-width="0.500000" />
<path stroke="#f0ccba" stroke-opacity="0.501961" fill="none" d="M 174.630856 110.020398 Q 173.095031 102.443884, 145.890561 82.504225" stroke-width="0.500000" />
<path stroke="#fee7ed" stroke-opacity="0.501961" fill="none" d="M 95.518026 3.122247 Q 63.844077 114.999304, -15.685301 36.001916" stroke-width="0.500000" />
<path stroke="#00100b" stroke-opacity="0.501961" fill="none" d="M 194.803590 106.006149 Q 173.310013 115.368797, 171.043208 133.661262" stroke-width="0.500000" />
<path stroke="#001312" stroke-opacity="0.501961" fill="none" d="M 152.695636 70.008151 Q 142.026589 83.742028, 105.024981 55.771164" stroke-width="0.500000" />
<path stroke="#ffeaee" stroke-opacity="0.501961" fill="none" d="M 91.305317 4.416401 Q 75.029921 95.108674, -8.384616 55.760021" stroke-width="0.500000" />
<path stroke="#ede5ef" stroke-opacity="0.501961" fill="none" d="M -10.896336 22.327378 Q 107.577743 59.833500, 95.536129 105.977226" stroke-width="0.500000" />
<path stroke="#001006" stroke-opacity="0.501961" fill="none" d="M 156.317574 48.337313 Q 180.542072 55.253298, 185.927101 51.019316" stroke-width="0.500000" />
<path stroke="#ffecf1" stroke-opacity="0.501961" fill="none" d="M 96.545471 -16.000000 Q 21.110962 57.824981, 48.965616 88.167846" stroke-width="0.500000" />
<path stroke="#0f221d" stroke-opacity="0.501961" fill="none" d="M 103.141309 92.216824 Q 112.008320 99.428472, 160.823523 47.175057" stroke-width="0.500000" />
<path stroke="#fde7ec" stroke-opacity="0.501961" fill="none" d="M 64.809900 16.038998 Q 104.857521 66.534580, 46.736416 82.646787" stroke-width="0.500000" />
<path stroke="#ebe2ea" stroke-opacity="0.501961" fill="none" d="M 8.323775 32.064542 Q 156.160459 62.830560, 165.544335 -0.882097" stroke-width="0.500000" />
<path stroke="#091b12" stroke-opacity="0.501961" fill="none" d="M 185.489268 45.996414 Q 112.468706 74.698224, 116.640643 131.057243" stroke-width="0.500000" />
<path stroke="#eee1ea" stroke-opacity="0.501961" fill="none" d="M 6.762935 84.580550 Q 47.827588 5.784724, 189.751119 6.302178" stroke-width="0.500000" />
<path stroke="#000d0e" stroke-opacity="0.501961" fill="none" d="M 179.340177 115.587322 Q 163.571703 100.187632, 86.124258 48.819848" stroke-width="0.500000" />
<path stroke="#ffeaef" stroke-opacity="0.501961" fill="none" d="M -16.000000 83.357995 Q 69.483753 109.322067, 69.831812 -12.653118" stroke-width="0.500000" />
<path stroke="#ede3ec" stroke-opacity="0.501961" fill="none" d="M 170.557666 33.541860 Q 129.928756 -16.000000, -13.059285 75.952863" stroke-width="0.500000" />
<path stroke="#b2bdc9" stroke-opacity="0.501961" fill="none" d="M 193.370979 122.346409 Q 135.048282 86.009450, 188.217581 51.093558" stroke-width="0.500000" />
<path stroke="#f7eaf2" stroke-opacity="0.501961" fill="none" d="M 54.038666 89.025459 Q 71.875895 13.157211, -16.000000 26.578018" stroke-width="0.500000" />
<path stroke="#1e2516" stroke-opacity="0.501961" fill="none" d="M 93.707126 58.335716 Q 129.991930 62.529231, 164.330938 64.547177" stroke-width="0.500000" />
<path stroke="#001617" stroke-opacity="0.501961" fill="none" d="M 83.800370 49.409588 Q 145.242953 78.865268, 109.591472 116.863589" stroke-width="0.500000" />
<path stroke="#ced8eb" stroke-opacity="0.501961" fill="none" d="M 123.222649 148.221947 Q -16.000000 4.510552, 4.491510 -16.000000" stroke-width="0.500000" />
<path stroke="#ffeaef" stroke-opacity="0.501961" fill="none" d="M 82.885950 5.359237 Q 91.934550 69.919877, -16.000000 64.825014" stroke-width="0.500000" />
<path stroke="#ffebef" stroke-opacity="0.501961" fill="none" d="M 13.333362 84.660682 Q 81.452444 64.791924, 60.540242 -2.328828" stroke-width="0.500000" />
<path stroke="#f1e4ee" stroke-opacity="0.501961" fill="none" d="M -0.431451 0.544476 Q 16.996756 59.075097, 104.000548 68.384199" stroke-width="0.500000" />
<path stroke="#0d211d" stroke-opacity="0.501961" fill="none" d="M 123.238845 117.944940 Q 96.897086 68.338821, 138.172382 54.060434" stroke-width="0.500000" />
<path stroke="#00160f" stroke-opacity="0.501961" fill="none" d="M 196.723042 100.414877 Q 175.509349 115.361411, 175.083899 131.023792" stroke-width="0.500000" />
<path stroke="#fee8ed" stroke-opacity="0.501961" fill="none" d="M 122.139616 -11.914338 Q 8.390849 85.535667, 12.290211 92.821092" stroke-width="0.500000" />
<path stroke="#c9d5e9" stroke-opacity="0.501961" fill="none" d="M -13.065582 53.695384 Q 154.921528 -16.000000, 219.416490 74.805758" stroke-width="0.500000" />
<path stroke="#fff0f1" stroke-opacity="0.501961" fill="none" d="M 43.522650 91.390086 Q 74.442550 62.847257, 65.704702 0.241751" stroke-width="0.500000" />
<path stroke="#f8e7ee" stroke-opacity="0.501961" fill="none" d="M 60.699690 85.168234 Q 0.308244 73.633444, 26.613748 18.622890" stroke-width="0.500000" />
<path stroke="#b2d0ea" stroke-opacity="0.501961" fill="none" d="M 139.240005 -4.119091 Q 271.000000 84.763672, 135.042134 160.718411" stroke-width="0.500000" />
<path stroke="#eae3ec" stroke-opacity="0.501961" fill="none" d="M 39.586632 32.141808 Q 154.606975 63.307613, 165.242630 4.489835" stroke-width="0.500000" />
<path stroke="#0b1503" stroke-opacity="0.501961" fill="none" d="M 191.580181 101.990475 Q 162.914581 110.184231, 171.244291 127.706315" stroke-width="0.500000" />
<path stroke="#ebe3ec" stroke-opacity="0.501961" fill="none" d="M 222.840157 -16.000000 Q 22.739758 64.267302, -16.000000 75.299283" stroke-width="0.500000" />
<path stroke="#07170c" stroke-opacity="0.501961" fill="none" d="M 108.290882 94.210806 Q 110.435814 54.075561, 149.383011 73.670091" stroke-width="0.500000" />
<path stroke="#d3d8e8" stroke-opacity="0.501961" fill="none" d="M -16.000000 25.366113 Q 91.407465 25.774762, 108.271884 89.413748" stroke-width="0.500000" />
<path stroke="#001015" stroke-opacity="0.501961" fill="none" d="M 165.725608 99.987847 Q 121.166398 83.307955, 82.017869 44.839726" stroke-width="0.500000" />
<path stroke="#e4dfeb" stroke-opacity="0.501961" fill="none" d="M 109.628859 111.229709 Q 63.423602 18.555171, -6.205878 93.368439" stroke-width="0.500000" />
<path stroke="#19261d" stroke-opacity="0.501961" fill="none" d="M 101.869904 89.586543 Q 162.380641 76.260148, 156.301831 46.553023" stroke-width="0.500000" />
<path stroke="#001510" stroke-opacity="0.501961" fill="none" d="M 197.566400 102.739910 Q 165.290331 118.541705, 134.134513 82.686886" stroke-width="0.500000" />
</g>
</svg>
