<svg xmlns="http://www.w3.org/2000/svg" version="1.1" width="1024" height="632">
<rect x="0" y="0" width="1024" height="632" fill="#a7c1db" />
<g transform="scale(4.000000) translate(0.5 0.5)">
<path stroke="#000000" stroke-opacity="0.501961" fill="none" d="M 198.192164 43.678790 Q 86.067987 43.079894, 118.149441 139.833232" stroke-width="0.500000" />
<path stroke="#000000" stroke-opacity="0.501961" fill="none" d="M 80.119706 33.016460 Q 165.501617 119.538328, 194.457561 101.672902" stroke-width="0.500000" />
<path stroke="#000000" stroke-opacity="0.501961" fill="none" d="M 78.800472 37.658347 Q 81.191540 35.230833, 186.899046 114.746251" stroke-width="0.500000" />
<path stroke="#000000" stroke-opacity="0.501961" fill="none" d="M 117.918759 138.236148 Q 96.255398 70.037985, 191.413678 43.820586" stroke-width="0.500000" />
<path stroke="#000000" stroke-opacity="0.501961" fill="none" d="M 80.845617 39.041223 Q 171.287870 103.857215, 181.975292 114.879629" stroke-width="0.500000" />
<path stroke="#000000" stroke-opacity="0.501961" fill="none" d="M 198.790709 97.170009 Q 167.031391 119.737689, 81.168858 38.494520" stroke-width="0.500000" />
<path stroke="#000000" stroke-opacity="0.501961" fill="none" d="M 119.682300 145.764976 Q 105.518422 36.327765, 210.862893 45.647807" stroke-width="0.500000" />
<path stroke="#000000" stroke-opacity="0.501961" fill="none" d="M 191.197031 41.531108 Q 92.824676 53.420197, 117.768126 133.089463" stroke-width="0.500000" />
<path stroke="#000000" stroke-opacity="0.501961" fill="none" d="M 83.523996 38.174346 Q 167.499537 92.956144, 186.555399 120.235744" stroke-width="0.500000" />
<path stroke="#000000" stroke-opacity="0.501961" fill="none" d="M 197.280965 44.138572 Q 102.656331 44.231118, 119.394912 145.754093" stroke-width="0.500000" />
<path stroke="#000000" stroke-opacity="0.501961" fill="none" d="M 80.945265 37.459500 Q 156.597922 74.586785, 188.663048 138.706597" stroke-width="0.500000" />
<path stroke="#000000" stroke-opacity="0.501961" fill="none" d="M 210.959821 98.784307 Q 182.551539 133.427673, 80.282468 39.247868" stroke-width="0.500000" />
<path stroke="#000000" stroke-opacity="0.501961" fill="none" d="M 117.480656 137.097935 Q 86.737006 37.626002, 187.319347 49.137267" stroke-width="0.500000" />
<path stroke="#000000" stroke-opacity="0.501961" fill="none" d="M 198.562322 44.054709 Q 116.611591 58.639136, 119.252523 126.934304" stroke-width="0.500000" />
<path stroke="#000000" stroke-opacity="0.501961" fill="none" d="M 115.935803 136.334677 Q 91.302799 71.241801, 195.124505 41.182325" stroke-width="0.500000" />
<path stroke="#000000" stroke-opacity="0.501961" fill="none" d="M 199.137983 95.486532 Q 160.363328 117.098722, 90.218814 39.041336" stroke-width="0.500000" />
<path stroke="#000000" stroke-opacity="0.501961" fill="none" d="M 184.020383 41.087492 Q 92.947278 60.424220, 120.172377 136.753222" stroke-width="0.500000" />
<path stroke="#000000" stroke-opacity="0.501961" fill="none" d="M 118.668871 125.801608 Q 90.307431 43.503283, 196.071335 43.250407" stroke-width="0.500000" />
<path stroke="#000000" stroke-opacity="0.501961" fill="none" d="M 179.696214 115.670469 Q 97.329649 37.328506, 76.863886 36.506042" stroke-width="0.500000" />
<path stroke="#000000" stroke-opacity="0.501961" fill="none" d="M 85.101437 45.681338 Q 185.404636 108.584554, 177.670409 131.997585" stroke-width="0.500000" />
<path stroke="#000000" stroke-opacity="0.501961" fill="none" d="M 121.935341 132.987852 Q 92.619244 68.489161, 188.353157 42.375123" stroke-width="0.500000" />
<path stroke="#000000" stroke-opacity="0.501961" fill="none" d="M 71.060220 39.181319 Q 181.800146 85.534025, 173.559044 127.721203" stroke-width="0.500000" />
<path stroke="#000000" stroke-opacity="0.501961" fill="none" d="M 190.653677 41.017289 Q 100.189455 87.963062, 114.564938 133.079820" stroke-width="0.500000" />
<path stroke="#000000" stroke-opacity="0.501961" fill="none" d="M 197.319633 96.265887 Q 177.077291 121.425848, 93.229772 41.023479" stroke-width="0.500000" />
<path stroke="#000000" stroke-opacity="0.501961" fill="none" d="M 112.188273 123.848760 Q 93.071500 31.101877, 187.809896 54.648578" stroke-width="0.500000" />
<path stroke="#000000" stroke-opacity="0.501961" fill="none" d="M 83.020966 36.713109 Q 177.758899 91.662518, 172.407134 126.974889" stroke-width="0.500000" />
<path stroke="#000000" stroke-opacity="0.501961" fill="none" d="M 192.239319 45.528447 Q 117.562579 50.078677, 116.389838 136.285941" stroke-width="0.500000" />
<path stroke="#000000" stroke-opacity="0.501961" fill="none" d="M 185.834574 108.944282 Q 106.115182 69.179188, 85.903861 37.299961" stroke-width="0.500000" />
<path stroke="#000000" stroke-opacity="0.501961" fill="none" d="M 186.980552 46.632767 Q 103.576406 74.513210, 112.627158 134.271813" stroke-width="0.500000" />
<path stroke="#000000" stroke-opacity="0.501961" fill="none" d="M 121.142972 125.406883 Q 91.683350 60.209746, 178.872122 41.579817" stroke-width="0.500000" />
<path stroke="#000000" stroke-opacity="0.501961" fill="none" d="M 198.040800 94.482642 Q 173.777867 127.658308, 81.745511 41.307409" stroke-width="0.500000" />
<path stroke="#000000" stroke-opacity="0.501961" fill="none" d="M 122.431870 136.555547 Q 82.187069 49.307901, 186.849868 46.928007" stroke-width="0.500000" />
<path stroke="#000000" stroke-opacity="0.501961" fill="none" d="M 118.515570 122.109530 Q 132.630927 51.484491, 185.379527 41.741674" stroke-width="0.500000" />
<path stroke="#000000" stroke-opacity="0.501961" fill="none" d="M 81.561306 38.738276 Q 187.565185 103.691689, 173.506306 125.704941" stroke-width="0.500000" />
<path stroke="#000000" stroke-opacity="0.501961" fill="none" d="M 113.807335 135.288123 Q 99.397968 42.635428, 219.704711 37.521050" stroke-width="0.500000" />
<path stroke="#000000" stroke-opacity="0.501961" fill="none" d="M 171.967727 127.083076 Q 178.958381 99.797060, 79.302976 39.143666" stroke-width="0.500000" />
<path stroke="#000000" stroke-opacity="0.501961" fill="none" d="M 116.066971 125.586019 Q 90.415763 44.465383, 172.106893 56.290052" stroke-width="0.500000" />
<path stroke="#000000" stroke-opacity="0.501961" fill="none" d="M 196.429116 47.894535 Q 99.660499 51.231063, 120.318036 129.583220" stroke-width="0.500000" />
<path stroke="#000000" stroke-opacity="0.501961" fill="none" d="M 193.402952 116.542518 Q 88.874812 37.705833, 84.408644 38.597609" stroke-width="0.500000" />
<path stroke="#000000" stroke-opacity="0.501961" fill="none" d="M 108.489570 114.962558 Q 101.715767 29.582729, 173.338942 57.814634" stroke-width="0.500000" />
<path stroke="#000000" stroke-opacity="0.501961" fill="none" d="M 123.476513 129.735282 Q 102.600602 74.673601, 189.567158 40.708542" stroke-width="0.500000" />
<path stroke="#000000" stroke-opacity="0.501961" fill="none" d="M 83.949781 43.044679 Q 139.079217 76.985270, 115.380542 132.928806" stroke-width="0.500000" />
<path stroke="#000000" stroke-opacity="0.501961" fill="none" d="M 81.813646 37.318553 Q 102.370298 61.913225, 194.147355 111.446698" stroke-width="0.500000" />
<path stroke="#000000" stroke-opacity="0.501961" fill="none" d="M 114.078586 151.685675 Q 111.350703 48.245176, 189.999358 45.715551" stroke-width="0.500000" />
<path stroke="#000000" stroke-opacity="0.501961" fill="none" d="M 169.618015 57.065651 Q 98.685518 36.336256, 109.752471 100.740638" stroke-width="0.500000" />
<path stroke="#000000" stroke-opacity="0.501961" fill="none" d="M 175.508675 120.700886 Q 180.659693 91.699515, 87.918005 43.405356" stroke-width="0.500000" />
<path stroke="#000000" stroke-opacity="0.501961" fill="none" d="M 187.204203 45.923723 Q 94.451471 42.198975, 122.608280 117.635792" stroke-width="0.500000" />
<path stroke="#000000" stroke-opacity="0.501961" fill="none" d="M 188.103313 45.212103 Q 118.552335 75.674600, 114.541036 127.669684" stroke-width="0.500000" />
<path stroke="#000000" stroke-opacity="0.501961" fill="none" d="M 117.316406 136.944131 Q 95.540943 88.963311, 187.905757 40.164705" stroke-width="0.500000" />
<path stroke="#000000" stroke-opacity="0.501961" fill="none" d="M 116.075479 129.897907 Q 94.126808 48.409088, 185.417441 49.499715" stroke-width="0.500000" />
<path stroke="#000000" stroke-opacity="0.501961" fill="none" d="M 80.773499 38.577550 Q 171.228738 103.844293, 184.790304 123.522493" stroke-width="0.500000" />
<path stroke="#000000" stroke-opacity="0.501961" fill="none" d="M 197.314198 94.602400 Q 152.616700 116.793795, 89.773947 38.424644" stroke-width="0.500000" />
<path stroke="#000000" stroke-opacity="0.501961" fill="none" d="M 120.217811 114.687827 Q 122.410977 68.830997, 188.059592 45.746707" stroke-width="0.500000" />
<path stroke="#000000" stroke-opacity="0.501961" fill="none" d="M 173.128529 54.392545 Q 101.844318 51.723944, 118.548621 118.386749" stroke-width="0.500000" />
<path stroke="#000300" stroke-opacity="0.501961" fill="none" d="M 188.943835 119.333325 Q 112.402281 43.156636, 86.510309 44.166600" stroke-width="0.500000" />
<path stroke="#000000" stroke-opacity="0.501961" fill="none" d="M 196.254607 99.287116 Q 164.881772 123.415379, 83.480206 39.603971" stroke-width="0.500000" />
<path stroke="#000b00" stroke-opacity="0.501961" fill="none" d="M 114.804910 135.378208 Q 91.686805 32.363385, 188.963591 45.839615" stroke-width="0.500000" />
<path stroke="#000000" stroke-opacity="0.501961" fill="none" d="M 117.311089 123.756195 Q 102.976506 75.905834, 183.296004 45.183497" stroke-width="0.500000" />
<path stroke="#000000" stroke-opacity="0.501961" fill="none" d="M 199.005852 96.762845 Q 168.373973 114.987185, 82.894587 43.462587" stroke-width="0.500000" />
<path stroke="#000000" stroke-opacity="0.501961" fill="none" d="M 191.643298 101.602927 Q 175.502789 122.397492, 85.292337 42.316634" stroke-width="0.500000" />
<path stroke="#000000" stroke-opacity="0.501961" fill="none" d="M 175.094895 51.110077 Q 83.553211 40.855807, 118.833173 126.219970" stroke-width="0.500000" />
<path stroke="#000000" stroke-opacity="0.501961" fill="none" d="M 173.990374 135.261085 Q 160.888521 57.389500, 102.493276 88.685462" stroke-width="0.500000" />
<path stroke="#000000" stroke-opacity="0.501961" fill="none" d="M 86.664560 43.972246 Q 194.146877 102.833123, 165.649502 141.499377" stroke-width="0.500000" />
<path stroke="#000600" stroke-opacity="0.501961" fill="none" d="M 190.989392 39.990266 Q 133.983225 47.887450, 117.579787 129.469443" stroke-width="0.500000" />
<path stroke="#000000" stroke-opacity="0.501961" fill="none" d="M 180.495646 50.143725 Q 108.721585 61.912751, 122.875368 115.827115" stroke-width="0.500000" />
<path stroke="#000000" stroke-opacity="0.501961" fill="none" d="M 184.646958 122.499486 Q 125.686430 71.898682, 88.515392 40.388254" stroke-width="0.500000" />
<path stroke="#000000" stroke-opacity="0.501961" fill="none" d="M 188.739157 41.199267 Q 95.173070 60.257769, 115.881974 133.810988" stroke-width="0.500000" />
<path stroke="#000000" stroke-opacity="0.501961" fill="none" d="M 183.143213 113.898847 Q 128.460721 69.762179, 83.505444 36.283811" stroke-width="0.500000" />
<path stroke="#000000" stroke-opacity="0.501961" fill="none" d="M 124.214644 114.208761 Q 98.780159 60.254442, 168.323699 55.952842" stroke-width="0.500000" />
<path stroke="#000100" stroke-opacity="0.501961" fill="none" d="M 104.872963 88.084177 Q 120.789599 30.978428, 164.224365 60.584442" stroke-width="0.500000" />
<path stroke="#000000" stroke-opacity="0.501961" fill="none" d="M 170.228447 55.660524 Q 129.118733 75.598958, 78.819495 34.714964" stroke-width="0.500000" />
<path stroke="#000000" stroke-opacity="0.501961" fill="none" d="M 187.594732 113.621446 Q 88.110733 49.599054, 81.952596 40.096174" stroke-width="0.500000" />
<path stroke="#000000" stroke-opacity="0.501961" fill="none" d="M 175.562344 124.839265 Q 171.296571 71.187005, 100.911050 87.201835" stroke-width="0.500000" />
<path stroke="#000000" stroke-opacity="0.501961" fill="none" d="M 177.688762 46.302538 Q 99.149101 48.626559, 114.327819 110.776385" stroke-width="0.500000" />
<path stroke="#000600" stroke-opacity="0.501961" fill="none" d="M 118.315669 121.238066 Q 116.304043 35.760107, 178.741534 46.441030" stroke-width="0.500000" />
<path stroke="#000000" stroke-opacity="0.501961" fill="none" d="M 182.400897 119.880875 Q 157.334656 72.601516, 101.756998 84.545867" stroke-width="0.500000" />
<path stroke="#000000" stroke-opacity="0.501961" fill="none" d="M 103.848855 112.633770 Q 157.708386 60.824165, 160.442100 40.332589" stroke-width="0.500000" />
<path stroke="#000000" stroke-opacity="0.501961" fill="none" d="M 186.368423 47.611772 Q 91.435517 51.319127, 121.051468 115.967778" stroke-width="0.500000" />
<path stroke="#000000" stroke-opacity="0.501961" fill="none" d="M 198.756682 96.105682 Q 162.227517 97.097989, 171.562255 130.385702" stroke-width="0.500000" />
<path stroke="#000000" stroke-opacity="0.501961" fill="none" d="M 79.378036 39.045741 Q 177.072119 121.542791, 197.692258 98.887496" stroke-width="0.500000" />
<path stroke="#000000" stroke-opacity="0.501961" fill="none" d="M 168.437303 52.106132 Q 91.745299 45.266584, 118.661323 117.748795" stroke-width="0.500000" />
<path stroke="#000400" stroke-opacity="0.501961" fill="none" d="M 115.229933 135.487757 Q 130.163083 40.385462, 189.600419 42.349016" stroke-width="0.500000" />
<path stroke="#000000" stroke-opacity="0.501961" fill="none" d="M 84.756446 37.201941 Q 174.131080 95.139697, 178.622009 119.700730" stroke-width="0.500000" />
<path stroke="#000000" stroke-opacity="0.501961" fill="none" d="M 138.514328 48.645872 Q 96.370330 54.669350, 115.701979 112.286765" stroke-width="0.500000" />
<path stroke="#000000" stroke-opacity="0.501961" fill="none" d="M 131.312250 47.868270 Q 146.525481 123.301762, 195.442777 95.824766" stroke-width="0.500000" />
<path stroke="#000000" stroke-opacity="0.501961" fill="none" d="M 116.586477 127.499558 Q 110.988041 55.047446, 168.137821 57.608086" stroke-width="0.500000" />
<path stroke="#000100" stroke-opacity="0.501961" fill="none" d="M 174.017248 53.078262 Q 98.722757 72.578232, 117.495420 131.469187" stroke-width="0.500000" />
<path stroke="#000000" stroke-opacity="0.501961" fill="none" d="M 117.242809 133.977938 Q 122.975827 47.191884, 170.145072 53.456210" stroke-width="0.500000" />
<path stroke="#000000" stroke-opacity="0.501961" fill="none" d="M 168.352659 126.441320 Q 196.565462 93.815775, 198.356694 92.183529" stroke-width="0.500000" />
<path stroke="#000400" stroke-opacity="0.501961" fill="none" d="M 109.470698 111.798545 Q 114.758642 47.614842, 172.365222 57.938074" stroke-width="0.500000" />
<path stroke="#000300" stroke-opacity="0.501961" fill="none" d="M 109.536580 84.988660 Q 100.200587 48.696633, 162.929334 48.549786" stroke-width="0.500000" />
<path stroke="#000700" stroke-opacity="0.501961" fill="none" d="M 101.975849 85.686118 Q 152.081014 84.720260, 159.336408 39.231781" stroke-width="0.500000" />
<path stroke="#000909" stroke-opacity="0.501961" fill="none" d="M 169.866385 125.287161 Q 185.399183 99.904027, 92.976048 41.666453" stroke-width="0.500000" />
<path stroke="#000000" stroke-opacity="0.501961" fill="none" d="M 134.337635 44.505805 Q 134.434193 54.397979, 111.967960 130.308925" stroke-width="0.500000" />
<path stroke="#000b02" stroke-opacity="0.501961" fill="none" d="M 174.514343 129.498643 Q 171.085580 61.982187, 100.652794 90.397968" stroke-width="0.500000" />
<path stroke="#000d00" stroke-opacity="0.501961" fill="none" d="M 111.262104 123.109823 Q 150.622454 58.619037, 132.077697 45.040677" stroke-width="0.500000" />
<path stroke="#000000" stroke-opacity="0.501961" fill="none" d="M 198.399176 98.351960 Q 163.945204 110.348606, 170.670944 127.349931" stroke-width="0.500000" />
<path stroke="#000000" stroke-opacity="0.501961" fill="none" d="M 193.253846 104.380849 Q 146.870412 106.674600, 83.800663 37.337676" stroke-width="0.500000" />
<path stroke="#000800" stroke-opacity="0.501961" fill="none" d="M 103.937580 111.652739 Q 133.893405 74.685159, 162.707427 42.008631" stroke-width="0.500000" />
<path stroke="#0d1200" stroke-opacity="0.501961" fill="none" d="M 169.774324 55.632705 Q 101.614241 43.474031, 107.556383 90.372730" stroke-width="0.500000" />
<path stroke="#000d00" stroke-opacity="0.501961" fill="none" d="M 103.238697 85.723012 Q 132.077091 104.103341, 160.594757 37.087390" stroke-width="0.500000" />
<path stroke="#000000" stroke-opacity="0.501961" fill="none" d="M 171.972885 127.725177 Q 182.619145 94.333334, 196.540122 96.391665" stroke-width="0.500000" />
<path stroke="#000200" stroke-opacity="0.501961" fill="none" d="M 188.138364 105.399976 Q 132.794253 79.453746, 90.230790 43.072619" stroke-width="0.500000" />
<path stroke="#000803" stroke-opacity="0.501961" fill="none" d="M 96.071857 41.865771 Q 153.055663 117.644109, 194.705579 95.184918" stroke-width="0.500000" />
<path stroke="#000000" stroke-opacity="0.501961" fill="none" d="M 157.680339 60.016953 Q 106.392743 41.763881, 110.548599 97.408710" stroke-width="0.500000" />
<path stroke="#000000" stroke-opacity="0.501961" fill="none" d="M 191.076930 96.667885 Q 177.843397 111.816805, 171.591577 132.132421" stroke-width="0.500000" />
<path stroke="#000000" stroke-opacity="0.501961" fill="none" d="M 190.775670 103.602561 Q 174.187588 119.773625, 84.645337 39.826759" stroke-width="0.500000" />
<path stroke="#020c00" stroke-opacity="0.501961" fill="none" d="M 123.642990 117.319791 Q 96.535114 72.189699, 172.605930 45.718220" stroke-width="0.500000" />
<path stroke="#000d04" stroke-opacity="0.501961" fill="none" d="M 136.464796 47.439603 Q 100.576200 74.890711, 114.553453 133.827246" stroke-width="0.500000" />
<path stroke="#000d00" stroke-opacity="0.501961" fill="none" d="M 160.453913 60.229549 Q 115.856332 43.208602, 109.199615 114.948277" stroke-width="0.500000" />
<path stroke="#fff3ef" stroke-opacity="0.501961" fill="none" d="M -16.000000 112.313993 Q 60.194527 -16.000000, 175.229645 13.214153" stroke-width="0.500000" />
<path stroke="#ffeeec" stroke-opacity="0.501961" fill="none" d="M -9.510283 114.708976 Q 14.621183 28.099848, 177.768886 1.134777" stroke-width="0.500000" />
<path stroke="#fff1ee" stroke-opacity="0.501961" fill="none" d="M -16.000000 115.293980 Q 49.566770 -16.000000, 171.608451 10.332721" stroke-width="0.500000" />
<path stroke="#ffeceb" stroke-opacity="0.501961" fill="none" d="M -11.616434 106.834731 Q -9.715461 57.558165, 190.192175 1.237627" stroke-width="0.500000" />
<path stroke="#000100" stroke-opacity="0.501961" fill="none" d="M 106.916597 111.689555 Q 153.275733 67.226183, 132.045781 47.023940" stroke-width="0.500000" />
<path stroke="#000000" stroke-opacity="0.501961" fill="none" d="M 170.510971 124.956592 Q 169.610327 109.666459, 200.828735 97.454626" stroke-width="0.500000" />
<path stroke="#000a00" stroke-opacity="0.501961" fill="none" d="M 193.114879 43.110904 Q 141.749466 60.632783, 102.251818 85.666671" stroke-width="0.500000" />
<path stroke="#000f06" stroke-opacity="0.501961" fill="none" d="M 116.517150 126.279086 Q 135.938374 82.023074, 82.471043 40.228168" stroke-width="0.500000" />
<path stroke="#060900" stroke-opacity="0.501961" fill="none" d="M 173.029060 129.250534 Q 159.819933 99.161412, 191.545785 96.629059" stroke-width="0.500000" />
<path stroke="#000402" stroke-opacity="0.501961" fill="none" d="M 188.315421 106.828096 Q 160.161204 103.322616, 89.103922 39.305532" stroke-width="0.500000" />
<path stroke="#ffefee" stroke-opacity="0.501961" fill="none" d="M 11.894133 87.388579 Q 84.596450 14.242101, 178.239480 3.140605" stroke-width="0.500000" />
<path stroke="#041306" stroke-opacity="0.501961" fill="none" d="M 188.488068 40.351656 Q 161.062793 41.074986, 106.168488 110.065255" stroke-width="0.500000" />
<path stroke="#000000" stroke-opacity="0.501961" fill="none" d="M 101.439970 51.653308 Q 133.080741 65.697777, 178.544623 113.903569" stroke-width="0.500000" />
<path stroke="#ffeeed" stroke-opacity="0.501961" fill="none" d="M 2.539757 74.817151 Q 113.893610 -16.000000, 183.656905 19.272841" stroke-width="0.500000" />
<path stroke="#000500" stroke-opacity="0.501961" fill="none" d="M 82.004690 36.742225 Q 130.705075 73.015427, 122.293597 113.021067" stroke-width="0.500000" />
<path stroke="#fff6ef" stroke-opacity="0.501961" fill="none" d="M -16.000000 89.239014 Q 110.455680 50.181768, 89.886709 -9.162871" stroke-width="0.500000" />
<path stroke="#000100" stroke-opacity="0.501961" fill="none" d="M 173.692681 127.051943 Q 166.620860 103.172677, 200.726598 96.819287" stroke-width="0.500000" />
<path stroke="#001206" stroke-opacity="0.501961" fill="none" d="M 191.150034 42.478641 Q 129.220691 72.854026, 99.419830 88.132937" stroke-width="0.500000" />
<path stroke="#011004" stroke-opacity="0.501961" fill="none" d="M 81.583777 37.055390 Q 117.767170 66.726794, 165.802164 58.258086" stroke-width="0.500000" />
<path stroke="#000201" stroke-opacity="0.501961" fill="none" d="M 182.849767 112.118033 Q 101.330005 59.464584, 90.091028 39.178759" stroke-width="0.500000" />
<path stroke="#fffaf3" stroke-opacity="0.501961" fill="none" d="M -11.572230 52.310894 Q 67.968816 86.931081, 94.582061 0.946894" stroke-width="0.500000" />
<path stroke="#ffedec" stroke-opacity="0.501961" fill="none" d="M 6.256899 84.731480 Q 47.275707 25.064228, 174.441924 2.147207" stroke-width="0.500000" />
<path stroke="#fffcf3" stroke-opacity="0.501961" fill="none" d="M 0.447406 64.706693 Q 87.461485 76.868542, 64.033060 -6.804108" stroke-width="0.500000" />
<path stroke="#000400" stroke-opacity="0.501961" fill="none" d="M 110.916632 78.499677 Q 178.277077 80.735509, 169.324221 127.394877" stroke-width="0.500000" />
<path stroke="#000c00" stroke-opacity="0.501961" fill="none" d="M 171.428609 49.324182 Q 91.659458 47.112635, 120.070552 116.701158" stroke-width="0.500000" />
<path stroke="#fff2ef" stroke-opacity="0.501961" fill="none" d="M 36.101012 76.322289 Q 44.878973 -16.000000, 172.078744 15.920880" stroke-width="0.500000" />
<path stroke="#ffe8e9" stroke-opacity="0.501961" fill="none" d="M 169.045145 12.837080 Q 14.662424 67.392479, -0.003640 9.790887" stroke-width="0.500000" />
<path stroke="#000500" stroke-opacity="0.501961" fill="none" d="M 135.593867 46.370263 Q 127.336638 110.546807, 105.711609 107.264352" stroke-width="0.500000" />
<path stroke="#0c1707" stroke-opacity="0.501961" fill="none" d="M 119.379520 120.482057 Q 109.863265 46.355860, 175.071257 53.026422" stroke-width="0.500000" />
<path stroke="#ffedec" stroke-opacity="0.501961" fill="none" d="M 175.222038 12.970310 Q 62.140918 -16.000000, -6.718001 98.659815" stroke-width="0.500000" />
<path stroke="#000a00" stroke-opacity="0.501961" fill="none" d="M 173.017017 129.429468 Q 171.687918 125.140883, 192.842949 95.086996" stroke-width="0.500000" />
<path stroke="#ffefed" stroke-opacity="0.501961" fill="none" d="M 173.834420 6.440639 Q 33.667935 -8.159864, 44.615562 84.008630" stroke-width="0.500000" />
<path stroke="#fffdf5" stroke-opacity="0.501961" fill="none" d="M 0.629517 61.371089 Q 88.196535 72.634620, 60.929254 -14.300484" stroke-width="0.500000" />
<path stroke="#000f09" stroke-opacity="0.501961" fill="none" d="M 99.450927 44.480337 Q 111.472559 58.659999, 113.905635 131.534285" stroke-width="0.500000" />
<path stroke="#011106" stroke-opacity="0.501961" fill="none" d="M 105.962530 87.385244 Q 115.780134 53.266449, 180.455558 43.148245" stroke-width="0.500000" />
<path stroke="#ffe8ea" stroke-opacity="0.501961" fill="none" d="M 2.615504 91.859231 Q 9.063228 9.163032, 256.466410 -7.962592" stroke-width="0.500000" />
<path stroke="#00110f" stroke-opacity="0.501961" fill="none" d="M 125.910169 97.642654 Q 134.900823 80.619120, 88.271309 49.036403" stroke-width="0.500000" />
<path stroke="#09170b" stroke-opacity="0.501961" fill="none" d="M 177.422996 49.233224 Q 93.486998 65.057868, 82.812639 40.963484" stroke-width="0.500000" />
<path stroke="#000000" stroke-opacity="0.501961" fill="none" d="M 197.389964 98.526382 Q 178.532231 91.748955, 174.602637 127.222251" stroke-width="0.500000" />
<path stroke="#ffecec" stroke-opacity="0.501961" fill="none" d="M 11.195202 83.448953 Q 16.129748 49.552238, 176.153852 3.454873" stroke-width="0.500000" />
<path stroke="#ffefeb" stroke-opacity="0.501961" fill="none" d="M -16.000000 88.792599 Q 95.283254 62.998634, 89.253271 3.658733" stroke-width="0.500000" />
<path stroke="#fff6f1" stroke-opacity="0.501961" fill="none" d="M 92.769515 -1.171440 Q 71.726819 78.782111, -0.604767 54.785553" stroke-width="0.500000" />
<path stroke="#ffe9ea" stroke-opacity="0.501961" fill="none" d="M -12.861717 104.834043 Q -0.300179 29.545658, 204.793212 -5.934312" stroke-width="0.500000" />
<path stroke="#001207" stroke-opacity="0.501961" fill="none" d="M 117.957029 115.211634 Q 99.977392 64.253651, 171.216744 55.930988" stroke-width="0.500000" />
<path stroke="#000d01" stroke-opacity="0.501961" fill="none" d="M 192.967472 98.305893 Q 160.205786 117.312944, 126.199516 53.240884" stroke-width="0.500000" />
<path stroke="#fff9f2" stroke-opacity="0.501961" fill="none" d="M 64.721808 -10.344920 Q 90.952938 81.379498, -1.651309 58.979881" stroke-width="0.500000" />
<path stroke="#fff2ee" stroke-opacity="0.501961" fill="none" d="M 81.930497 -16.000000 Q 88.903051 93.903864, -16.000000 57.198290" stroke-width="0.500000" />
<path stroke="#ffeeed" stroke-opacity="0.501961" fill="none" d="M -1.442342 -2.904743 Q 0.365290 44.958534, 100.453632 66.679906" stroke-width="0.500000" />
<path stroke="#000000" stroke-opacity="0.501961" fill="none" d="M 151.434201 64.484347 Q 139.587998 82.238454, 87.864883 46.304033" stroke-width="0.500000" />
<path stroke="#ffe8e9" stroke-opacity="0.501961" fill="none" d="M -8.571223 56.676592 Q 20.896418 58.319186, 175.912514 7.441823" stroke-width="0.500000" />
<path stroke="#071509" stroke-opacity="0.501961" fill="none" d="M 160.811285 62.434711 Q 121.267666 32.596595, 106.865072 90.530906" stroke-width="0.500000" />
<path stroke="#ffe9eb" stroke-opacity="0.501961" fill="none" d="M -3.288163 80.986949 Q 65.414605 28.654123, 171.156946 5.125213" stroke-width="0.500000" />
<path stroke="#ffebe9" stroke-opacity="0.501961" fill="none" d="M -16.000000 60.020584 Q 93.119003 92.748362, 83.363746 0.118865" stroke-width="0.500000" />
<path stroke="#0d1605" stroke-opacity="0.501961" fill="none" d="M 168.169566 55.939781 Q 102.033968 48.683733, 123.709102 109.919173" stroke-width="0.500000" />
<path stroke="#fff8f2" stroke-opacity="0.501961" fill="none" d="M 7.370526 80.423253 Q 91.267387 37.018387, 56.504626 -8.689344" stroke-width="0.500000" />
<path stroke="#000000" stroke-opacity="0.501961" fill="none" d="M 171.571355 126.120811 Q 169.392842 118.426648, 198.921201 96.444502" stroke-width="0.500000" />
<path stroke="#fff0ed" stroke-opacity="0.501961" fill="none" d="M 103.225777 0.784635 Q 11.629613 34.078634, 53.047124 85.879740" stroke-width="0.500000" />
<path stroke="#05160c" stroke-opacity="0.501961" fill="none" d="M 134.896753 48.637165 Q 156.156964 63.255144, 112.365983 110.304453" stroke-width="0.500000" />
<path stroke="#071910" stroke-opacity="0.501961" fill="none" d="M 103.097760 108.284196 Q 144.222024 69.256893, 134.092648 46.560504" stroke-width="0.500000" />
<path stroke="#ffebeb" stroke-opacity="0.501961" fill="none" d="M 74.563274 0.974713 Q 106.405715 63.235259, -16.000000 89.352625" stroke-width="0.500000" />
<path stroke="#000400" stroke-opacity="0.501961" fill="none" d="M 167.897276 123.915352 Q 183.343751 108.458199, 188.498471 96.886217" stroke-width="0.500000" />
<path stroke="#fff4f0" stroke-opacity="0.501961" fill="none" d="M 77.474760 -16.000000 Q 49.424414 85.834269, -16.000000 83.561026" stroke-width="0.500000" />
<path stroke="#000907" stroke-opacity="0.501961" fill="none" d="M 95.547638 48.589944 Q 170.297444 114.534330, 184.508821 107.339906" stroke-width="0.500000" />
<path stroke="#ffefee" stroke-opacity="0.501961" fill="none" d="M 63.069860 -4.363081 Q 103.258717 57.693911, -1.166506 83.827220" stroke-width="0.500000" />
<path stroke="#fff9f2" stroke-opacity="0.501961" fill="none" d="M 7.437528 54.109215 Q 67.608850 78.245068, 75.094080 -14.534502" stroke-width="0.500000" />
<path stroke="#000f0b" stroke-opacity="0.501961" fill="none" d="M 153.957291 97.516902 Q 120.784661 65.036027, 134.532086 45.634104" stroke-width="0.500000" />
<path stroke="#001214" stroke-opacity="0.501961" fill="none" d="M 127.062845 96.221528 Q 118.387902 54.880888, 95.641775 42.827828" stroke-width="0.500000" />
<path stroke="#000d06" stroke-opacity="0.501961" fill="none" d="M 160.066465 42.544002 Q 166.117363 55.986892, 104.213532 86.513897" stroke-width="0.500000" />
<path stroke="#000d0a" stroke-opacity="0.501961" fill="none" d="M 105.217658 50.410455 Q 113.924119 93.048541, 152.936027 65.232745" stroke-width="0.500000" />
<path stroke="#fff4f0" stroke-opacity="0.501961" fill="none" d="M 96.525856 -14.915702 Q 54.643251 89.938475, 7.109334 58.498632" stroke-width="0.500000" />
<path stroke="#001314" stroke-opacity="0.501961" fill="none" d="M 87.376006 37.803721 Q 113.340593 55.713859, 178.628620 114.788989" stroke-width="0.500000" />
<path stroke="#041106" stroke-opacity="0.501961" fill="none" d="M 111.001946 93.147570 Q 98.869106 47.351788, 141.675529 53.969325" stroke-width="0.500000" />
<path stroke="#ffebeb" stroke-opacity="0.501961" fill="none" d="M 163.420562 16.836024 Q 63.771096 -7.725112, 15.867973 83.734111" stroke-width="0.500000" />
<path stroke="#ffebe7" stroke-opacity="0.501961" fill="none" d="M 109.189460 50.634925 Q 43.748084 -2.816764, -16.000000 111.107885" stroke-width="0.500000" />
<path stroke="#fff0ee" stroke-opacity="0.501961" fill="none" d="M 1.807488 -11.508972 Q -6.359586 40.612492, 84.307104 58.968279" stroke-width="0.500000" />
<path stroke="#ffe9ea" stroke-opacity="0.501961" fill="none" d="M -15.376772 80.798347 Q 45.591435 25.301373, 122.440787 -6.665458" stroke-width="0.500000" />
<path stroke="#ffe7e7" stroke-opacity="0.501961" fill="none" d="M 9.108126 75.224287 Q 66.448289 104.370040, 94.542390 -4.351834" stroke-width="0.500000" />
<path stroke="#001207" stroke-opacity="0.501961" fill="none" d="M 112.335565 120.830061 Q 125.209187 69.672967, 162.518768 44.382819" stroke-width="0.500000" />
<path stroke="#0e1e16" stroke-opacity="0.501961" fill="none" d="M 105.727422 108.708939 Q 131.464189 67.080094, 161.536032 42.351931" stroke-width="0.500000" />
<path stroke="#f9e5e8" stroke-opacity="0.501961" fill="none" d="M 180.585240 4.649064 Q 16.611429 74.369483, -6.394737 -3.714092" stroke-width="0.500000" />
<path stroke="#fff2ef" stroke-opacity="0.501961" fill="none" d="M 10.866436 74.560539 Q 104.685471 55.509736, 56.341553 -10.833640" stroke-width="0.500000" />
<path stroke="#02150e" stroke-opacity="0.501961" fill="none" d="M 138.205485 48.988280 Q 96.722924 78.764686, 124.185945 111.206888" stroke-width="0.500000" />
<path stroke="#ffe9ea" stroke-opacity="0.501961" fill="none" d="M 68.098394 1.778729 Q 103.226819 64.240892, 2.736002 84.461094" stroke-width="0.500000" />
<path stroke="#002025" stroke-opacity="0.501961" fill="none" d="M 176.986847 126.939882 Q 179.415762 87.274601, 86.680615 49.379980" stroke-width="0.500000" />
<path stroke="#06170e" stroke-opacity="0.501961" fill="none" d="M 101.587264 82.886217 Q 144.371776 101.487810, 142.240823 53.080873" stroke-width="0.500000" />
<path stroke="#000e06" stroke-opacity="0.501961" fill="none" d="M 151.423016 64.216610 Q 142.470615 73.066043, 91.003667 45.797592" stroke-width="0.500000" />
<path stroke="#fff0ee" stroke-opacity="0.501961" fill="none" d="M -7.645241 6.524404 Q 37.735947 54.923859, 82.990657 55.402487" stroke-width="0.500000" />
<path stroke="#ffebeb" stroke-opacity="0.501961" fill="none" d="M 51.417543 89.867806 Q 10.306033 24.810799, 104.541343 5.253578" stroke-width="0.500000" />
<path stroke="#ffe5e6" stroke-opacity="0.501961" fill="none" d="M 64.594752 -9.397049 Q 113.997003 68.272003, 7.177100 84.181180" stroke-width="0.500000" />
<path stroke="#000b00" stroke-opacity="0.501961" fill="none" d="M 174.560854 126.888046 Q 167.071807 98.229136, 197.592331 96.728752" stroke-width="0.500000" />
<path stroke="#091606" stroke-opacity="0.501961" fill="none" d="M 193.211622 97.496265 Q 168.100149 95.338004, 171.167338 129.361129" stroke-width="0.500000" />
<path stroke="#fff1ee" stroke-opacity="0.501961" fill="none" d="M 56.288448 81.561086 Q 50.469803 -3.601092, 108.929820 4.825623" stroke-width="0.500000" />
<path stroke="#001e22" stroke-opacity="0.501961" fill="none" d="M 163.524454 95.922542 Q 112.152659 80.339653, 84.687271 39.378310" stroke-width="0.500000" />
<path stroke="#fff3f0" stroke-opacity="0.501961" fill="none" d="M 10.676396 55.735408 Q 87.027677 69.575159, 68.481347 -0.423611" stroke-width="0.500000" />
<path stroke="#fff1ef" stroke-opacity="0.501961" fill="none" d="M -7.166436 81.692452 Q 46.461325 12.943809, 84.343361 65.814892" stroke-width="0.500000" />
<path stroke="#02150c" stroke-opacity="0.501961" fill="none" d="M 151.240820 64.053246 Q 109.287437 97.498287, 103.085786 86.117722" stroke-width="0.500000" />
<path stroke="#041911" stroke-opacity="0.501961" fill="none" d="M 182.055798 47.858884 Q 107.783815 71.893613, 115.918482 131.298777" stroke-width="0.500000" />
<path stroke="#fff3f0" stroke-opacity="0.501961" fill="none" d="M 9.068351 75.427563 Q 61.419216 75.920795, 73.907477 -16.000000" stroke-width="0.500000" />
<path stroke="#091a11" stroke-opacity="0.501961" fill="none" d="M 134.498922 45.739071 Q 133.260768 111.750390, 106.267805 109.154759" stroke-width="0.500000" />
<path stroke="#000c02" stroke-opacity="0.501961" fill="none" d="M 194.519583 97.026426 Q 194.076703 107.060621, 169.367362 112.739422" stroke-width="0.500000" />
<path stroke="#0c201b" stroke-opacity="0.501961" fill="none" d="M 118.870453 131.400074 Q 111.618320 76.479927, 104.281026 48.154001" stroke-width="0.500000" />
<path stroke="#ffeeed" stroke-opacity="0.501961" fill="none" d="M -4.588388 14.598595 Q 61.094389 82.492172, 93.129699 16.865004" stroke-width="0.500000" />
<path stroke="#ffeaeb" stroke-opacity="0.501961" fill="none" d="M 83.417225 66.097915 Q -16.000000 32.886860, 2.868602 -3.635949" stroke-width="0.500000" />
<path stroke="#000c0d" stroke-opacity="0.501961" fill="none" d="M 85.734281 44.167458 Q 157.896733 84.870778, 178.304029 112.477690" stroke-width="0.500000" />
<path stroke="#ffeaec" stroke-opacity="0.501961" fill="none" d="M 167.371689 16.056442 Q 38.136446 -13.272151, 40.580670 84.473042" stroke-width="0.500000" />
<path stroke="#fff1ef" stroke-opacity="0.501961" fill="none" d="M 10.337156 56.696815 Q 76.657254 81.841560, 78.562340 8.134813" stroke-width="0.500000" />
<path stroke="#000000" stroke-opacity="0.501961" fill="none" d="M 193.582095 101.383486 Q 181.164155 102.107190, 172.619239 125.648602" stroke-width="0.500000" />
<path stroke="#ffeaeb" stroke-opacity="0.501961" fill="none" d="M 5.966806 86.643295 Q 32.958079 24.007219, 132.993638 33.540323" stroke-width="0.500000" />
<path stroke="#01160c" stroke-opacity="0.501961" fill="none" d="M 195.897032 96.409543 Q 153.500042 114.001621, 124.017154 54.365989" stroke-width="0.500000" />
<path stroke="#001a15" stroke-opacity="0.501961" fill="none" d="M 158.524108 41.914594 Q 121.748709 90.173866, 86.005508 39.046750" stroke-width="0.500000" />
<path stroke="#ffe8ea" stroke-opacity="0.501961" fill="none" d="M 59.711524 -3.200691 Q 104.653847 60.013448, 34.060477 84.956359" stroke-width="0.500000" />
<path stroke="#ffeaeb" stroke-opacity="0.501961" fill="none" d="M 6.119286 71.666062 Q 64.420976 13.508366, 130.693134 31.762855" stroke-width="0.500000" />
<path stroke="#fff0ee" stroke-opacity="0.501961" fill="none" d="M 58.977836 -14.021945 Q 90.295832 74.924502, -16.000000 66.961128" stroke-width="0.500000" />
<path stroke="#fee7ea" stroke-opacity="0.501961" fill="none" d="M 49.087754 83.621242 Q 34.994347 -16.000000, 167.589487 10.058437" stroke-width="0.500000" />
<path stroke="#00110f" stroke-opacity="0.501961" fill="none" d="M 111.521040 56.085800 Q 122.204116 107.553300, 106.527202 110.861204" stroke-width="0.500000" />
<path stroke="#021712" stroke-opacity="0.501961" fill="none" d="M 115.074862 113.917274 Q 95.590789 57.952410, 139.102444 50.259610" stroke-width="0.500000" />
<path stroke="#ffeded" stroke-opacity="0.501961" fill="none" d="M -16.000000 73.852180 Q 92.905794 75.980792, 62.583059 -16.000000" stroke-width="0.500000" />
<path stroke="#091c18" stroke-opacity="0.501961" fill="none" d="M 136.675923 47.063546 Q 142.245557 80.371793, 104.286762 109.923622" stroke-width="0.500000" />
<path stroke="#ffe8e9" stroke-opacity="0.501961" fill="none" d="M 81.666849 40.766315 Q 52.794765 104.672107, 6.964681 49.018219" stroke-width="0.500000" />
<path stroke="#ffe9eb" stroke-opacity="0.501961" fill="none" d="M 91.618575 1.084344 Q 67.010629 100.627731, -8.181442 46.784270" stroke-width="0.500000" />
<path stroke="#000b10" stroke-opacity="0.501961" fill="none" d="M 81.552203 38.389306 Q 155.998936 91.705053, 159.276296 100.990321" stroke-width="0.500000" />
<path stroke="#000c00" stroke-opacity="0.501961" fill="none" d="M 170.515843 127.686211 Q 177.141469 121.668622, 185.842403 96.957066" stroke-width="0.500000" />
<path stroke="#ffebec" stroke-opacity="0.501961" fill="none" d="M 81.809216 65.526457 Q 79.071922 25.823387, -16.000000 24.136373" stroke-width="0.500000" />
<path stroke="#ffe8ea" stroke-opacity="0.501961" fill="none" d="M 0.048354 84.992953 Q 57.686980 44.713538, 118.353627 -16.000000" stroke-width="0.500000" />
<path stroke="#151e11" stroke-opacity="0.501961" fill="none" d="M 180.390749 42.276165 Q 156.596515 77.227864, 130.416057 45.959325" stroke-width="0.500000" />
<path stroke="#fde3e5" stroke-opacity="0.501961" fill="none" d="M 39.646647 84.113704 Q 106.450294 60.188119, 63.332570 -8.148980" stroke-width="0.500000" />
<path stroke="#011b1a" stroke-opacity="0.501961" fill="none" d="M 128.141999 97.045491 Q 122.645384 80.624793, 89.180669 40.216365" stroke-width="0.500000" />
<path stroke="#051b15" stroke-opacity="0.501961" fill="none" d="M 162.286571 43.160467 Q 158.642155 61.965548, 105.059147 88.056351" stroke-width="0.500000" />
<path stroke="#000c00" stroke-opacity="0.501961" fill="none" d="M 197.356175 98.492935 Q 169.467088 105.596929, 175.540135 124.618526" stroke-width="0.500000" />
<path stroke="#ffeaeb" stroke-opacity="0.501961" fill="none" d="M 104.647869 46.359168 Q 38.948289 0.411106, 23.946908 87.582031" stroke-width="0.500000" />
<path stroke="#ffe6e9" stroke-opacity="0.501961" fill="none" d="M 4.523219 79.419225 Q 95.382037 80.396936, 67.974324 -0.503558" stroke-width="0.500000" />
<path stroke="#c4ac9d" stroke-opacity="0.501961" fill="none" d="M 148.611963 80.038926 Q 175.670075 99.998414, 186.588618 119.395302" stroke-width="0.500000" />
<path stroke="#f5e3e7" stroke-opacity="0.501961" fill="none" d="M 139.301221 31.799737 Q 14.919422 44.170818, -0.848429 14.084801" stroke-width="0.500000" />
<path stroke="#ffe8ea" stroke-opacity="0.501961" fill="none" d="M -0.192681 6.695206 Q 51.612863 77.328826, 94.824467 21.344196" stroke-width="0.500000" />
<path stroke="#f0e1e7" stroke-opacity="0.501961" fill="none" d="M 165.281302 -0.645492 Q 20.252827 35.737592, 7.425520 67.683178" stroke-width="0.500000" />
<path stroke="#ffeeed" stroke-opacity="0.501961" fill="none" d="M 81.007621 65.078498 Q 69.846911 21.766831, 7.869158 55.814954" stroke-width="0.500000" />
<path stroke="#002023" stroke-opacity="0.501961" fill="none" d="M 180.339451 108.558895 Q 127.547498 88.861363, 82.034341 36.397487" stroke-width="0.500000" />
<path stroke="#fff0ef" stroke-opacity="0.501961" fill="none" d="M -14.326620 53.842690 Q 75.059131 82.919155, 66.414265 -4.766216" stroke-width="0.500000" />
<path stroke="#0b1a0f" stroke-opacity="0.501961" fill="none" d="M 109.514880 89.527705 Q 138.032145 61.968954, 185.432819 40.872157" stroke-width="0.500000" />
<path stroke="#eeccbd" stroke-opacity="0.501961" fill="none" d="M 142.587354 76.006730 Q 158.934366 85.839338, 175.574860 103.999583" stroke-width="0.500000" />
<path stroke="#1d2214" stroke-opacity="0.501961" fill="none" d="M 112.693919 92.278342 Q 104.429550 47.473108, 171.999883 55.332381" stroke-width="0.500000" />
<path stroke="#1c1f0c" stroke-opacity="0.501961" fill="none" d="M 169.180321 118.786434 Q 169.963470 91.939540, 194.581694 99.808751" stroke-width="0.500000" />
<path stroke="#fde4e8" stroke-opacity="0.501961" fill="none" d="M 4.980091 -16.000000 Q -16.000000 38.159341, 81.098017 66.196561" stroke-width="0.500000" />
<path stroke="#0d1d15" stroke-opacity="0.501961" fill="none" d="M 155.387254 56.598913 Q 121.581137 101.967664, 102.310447 81.672327" stroke-width="0.500000" />
<path stroke="#9fc6e4" stroke-opacity="0.501961" fill="none" d="M 106.041184 129.083262 Q 157.770738 167.124901, 193.761222 103.533153" stroke-width="0.500000" />
<path stroke="#000c02" stroke-opacity="0.501961" fill="none" d="M 155.192814 43.461195 Q 163.808186 40.857823, 164.826865 54.603953" stroke-width="0.500000" />
<path stroke="#ffe7ea" stroke-opacity="0.501961" fill="none" d="M 97.631087 -6.700503 Q 43.672450 100.435062, -12.030732 70.253232" stroke-width="0.500000" />
<path stroke="#001513" stroke-opacity="0.501961" fill="none" d="M 95.509903 44.905932 Q 138.165617 76.969450, 154.012536 64.273820" stroke-width="0.500000" />
<path stroke="#f4e3e8" stroke-opacity="0.501961" fill="none" d="M 178.629029 6.201959 Q 41.113041 -11.098689, 55.084121 77.065328" stroke-width="0.500000" />
<path stroke="#adcce7" stroke-opacity="0.501961" fill="none" d="M 157.103191 66.443283 Q 191.839495 39.698406, 204.628088 45.248200" stroke-width="0.500000" />
<path stroke="#011109" stroke-opacity="0.501961" fill="none" d="M 124.440103 105.874036 Q 112.080200 117.698904, 103.922128 105.534363" stroke-width="0.500000" />
<path stroke="#0a1e18" stroke-opacity="0.501961" fill="none" d="M 190.991270 102.588246 Q 133.421684 111.223228, 133.669951 45.604944" stroke-width="0.500000" />
<path stroke="#ffe6e9" stroke-opacity="0.501961" fill="none" d="M 64.961414 -7.273128 Q 93.639493 84.180397, 7.676218 74.664249" stroke-width="0.500000" />
<path stroke="#00110d" stroke-opacity="0.501961" fill="none" d="M 147.813232 57.676832 Q 116.315757 99.518406, 102.542975 83.426979" stroke-width="0.500000" />
<path stroke="#ffe7e9" stroke-opacity="0.501961" fill="none" d="M 82.575454 59.789636 Q 46.458750 77.794280, 12.955402 16.306287" stroke-width="0.500000" />
<path stroke="#fee6e8" stroke-opacity="0.501961" fill="none" d="M -14.643984 49.097615 Q 86.281699 78.052118, 104.024324 -11.182932" stroke-width="0.500000" />
<path stroke="#0d211d" stroke-opacity="0.501961" fill="none" d="M 117.672275 134.860225 Q 121.429646 99.986636, 106.326702 70.328485" stroke-width="0.500000" />
<path stroke="#00181d" stroke-opacity="0.501961" fill="none" d="M 96.622105 43.321589 Q 166.321789 98.655830, 181.277939 111.857734" stroke-width="0.500000" />
<path stroke="#001718" stroke-opacity="0.501961" fill="none" d="M 170.672276 115.667632 Q 170.677789 81.090682, 109.461996 70.985546" stroke-width="0.500000" />
<path stroke="#ffedee" stroke-opacity="0.501961" fill="none" d="M 83.402448 44.523395 Q 44.971816 24.265419, 21.008437 84.753615" stroke-width="0.500000" />
<path stroke="#0d1c13" stroke-opacity="0.501961" fill="none" d="M 132.265218 46.991780 Q 146.974488 54.717674, 115.952681 110.971181" stroke-width="0.500000" />
<path stroke="#111a0d" stroke-opacity="0.501961" fill="none" d="M 171.346366 128.279290 Q 166.125890 111.108216, 189.472238 96.196095" stroke-width="0.500000" />
<path stroke="#111e14" stroke-opacity="0.501961" fill="none" d="M 190.709404 42.408024 Q 100.241519 51.553282, 119.743335 101.065906" stroke-width="0.500000" />
<path stroke="#ffebec" stroke-opacity="0.501961" fill="none" d="M 71.287536 -3.114173 Q 69.834551 80.335670, 43.449418 80.877334" stroke-width="0.500000" />
<path stroke="#fde4e7" stroke-opacity="0.501961" fill="none" d="M -16.000000 54.374065 Q 86.739450 94.567159, 83.069936 1.081580" stroke-width="0.500000" />
<path stroke="#fce5e9" stroke-opacity="0.501961" fill="none" d="M 2.151054 -16.000000 Q -7.108511 37.858485, 87.013612 65.497150" stroke-width="0.500000" />
<path stroke="#001319" stroke-opacity="0.501961" fill="none" d="M 86.917736 47.659934 Q 136.258244 79.697263, 160.795467 99.560599" stroke-width="0.500000" />
<path stroke="#ede0e7" stroke-opacity="0.501961" fill="none" d="M -8.862393 2.784617 Q 24.037095 79.452307, 201.729516 -9.375160" stroke-width="0.500000" />
<path stroke="#e4dbe4" stroke-opacity="0.501961" fill="none" d="M 199.966334 42.704902 Q 37.277633 6.670766, 6.844361 76.671930" stroke-width="0.500000" />
<path stroke="#a2c0db" stroke-opacity="0.501961" fill="none" d="M 186.804170 -15.302315 Q 241.946165 135.010245, -15.847532 172.797042" stroke-width="0.500000" />
<path stroke="#efe0e5" stroke-opacity="0.501961" fill="none" d="M 171.349559 -1.999084 Q 103.725108 65.718192, -4.454035 15.461658" stroke-width="0.500000" />
<path stroke="#b8b6b6" stroke-opacity="0.501961" fill="none" d="M 175.672550 109.621000 Q 167.069008 103.538886, 137.759850 95.494653" stroke-width="0.500000" />
<path stroke="#232819" stroke-opacity="0.501961" fill="none" d="M 193.241036 99.356614 Q 160.345945 93.838017, 171.568680 128.600001" stroke-width="0.500000" />
<path stroke="#102119" stroke-opacity="0.501961" fill="none" d="M 108.567893 112.035490 Q 155.501441 64.055597, 131.156713 47.740302" stroke-width="0.500000" />
<path stroke="#fee6e9" stroke-opacity="0.501961" fill="none" d="M 102.250663 1.806976 Q 26.634472 22.362142, 38.521266 73.576635" stroke-width="0.500000" />
<path stroke="#ffe8eb" stroke-opacity="0.501961" fill="none" d="M 88.791533 -16.000000 Q 23.971512 91.443128, -3.283132 76.946432" stroke-width="0.500000" />
<path stroke="#fee8eb" stroke-opacity="0.501961" fill="none" d="M 6.262777 60.769097 Q 52.079595 21.015342, 87.960270 73.141159" stroke-width="0.500000" />
<path stroke="#0a1e17" stroke-opacity="0.501961" fill="none" d="M 173.532981 51.753310 Q 108.692574 67.575211, 106.266419 90.047858" stroke-width="0.500000" />
<path stroke="#000d04" stroke-opacity="0.501961" fill="none" d="M 195.311680 97.049761 Q 185.081630 105.509282, 170.540423 119.531005" stroke-width="0.500000" />
<path stroke="#b8dbfc" stroke-opacity="0.501961" fill="none" d="M 117.490694 135.411019 Q 123.044612 156.656226, 119.307371 169.388890" stroke-width="0.500000" />
<path stroke="#061a14" stroke-opacity="0.501961" fill="none" d="M 152.449960 50.806101 Q 98.550959 50.164976, 121.016080 101.154814" stroke-width="0.500000" />
<path stroke="#ffeaeb" stroke-opacity="0.501961" fill="none" d="M 102.718447 -1.180456 Q 26.996452 37.912566, 61.721224 76.751797" stroke-width="0.500000" />
<path stroke="#0e1d13" stroke-opacity="0.501961" fill="none" d="M 119.274399 124.463400 Q 118.804339 54.099847, 150.963174 58.595872" stroke-width="0.500000" />
<path stroke="#ffe8e9" stroke-opacity="0.501961" fill="none" d="M 40.259231 79.556781 Q 95.668495 57.507503, 54.625506 -12.661869" stroke-width="0.500000" />
<path stroke="#001517" stroke-opacity="0.501961" fill="none" d="M 130.233133 89.482204 Q 114.732608 75.767912, 102.771016 47.066445" stroke-width="0.500000" />
<path stroke="#ffefee" stroke-opacity="0.501961" fill="none" d="M 53.658505 80.396358 Q 89.913290 51.214827, 43.453134 29.278037" stroke-width="0.500000" />
<path stroke="#000300" stroke-opacity="0.501961" fill="none" d="M 122.516605 110.774607 Q 114.537370 117.506138, 106.015996 106.104223" stroke-width="0.500000" />
<path stroke="#b1bdcb" stroke-opacity="0.501961" fill="none" d="M 123.418011 100.076539 Q 150.063780 90.148253, 168.240872 108.320715" stroke-width="0.500000" />
<path stroke="#0f211b" stroke-opacity="0.501961" fill="none" d="M 118.617355 128.783551 Q 87.115239 43.673603, 174.984922 48.732346" stroke-width="0.500000" />
<path stroke="#ffe9eb" stroke-opacity="0.501961" fill="none" d="M 84.323820 61.022239 Q 61.412729 14.600856, 3.050448 69.829242" stroke-width="0.500000" />
</g>
</svg>