<svg height="680" width="1024" xmlns="http://www.w3.org/2000/svg"><path d="m0 0h1024v680h-1024z" fill="#759295"/><g transform="matrix(4 0 0 4 2 2)"><g fill-opacity=".501961"><ellipse fill="#fff" rx="1" ry="1" transform="matrix(188.59453884 29.40335018 -7.10766279 45.58889981 32.814595 37.495675)"/><ellipse fill="#1d1100" rx="1" ry="1" transform="matrix(-254.84901856 -8.77369578 1.73677101 -50.44788392 158.024206 148.456272)"/><ellipse fill="#009ae8" rx="1" ry="1" transform="matrix(95.00370369 -.97892344 .40318514 39.12878183 213.098874 17.790389)"/><ellipse fill="#f7ffff" rx="1" ry="1" transform="matrix(-129.97234548 -21.74048336 6.01630141 -35.96759063 0 47.593583)"/><ellipse fill="#0a1303" rx="1" ry="1" transform="matrix(-82.2195357 3.70472799 -1.94016408 -43.05832726 229.499778 169)"/><ellipse cx="177" cy="72" fill="#e3f4f5" rx="254" ry="13"/><ellipse fill="#0078b5" rx="1" ry="1" transform="matrix(7.7464964 -33.83513097 71.76366939 16.43017155 225.217787 .6427)"/><ellipse fill="#7b8577" rx="1" ry="1" transform="matrix(111.90077613 -.22828886 .03829678 18.77200294 175.497531 102.286239)"/><ellipse fill="#96d1eb" rx="1" ry="1" transform="matrix(17.78290001 -30.61382881 59.32322087 34.45955459 107.56816 23.648235)"/><ellipse cx="77" cy="142" fill="#7d806d" rx="23" ry="28"/><ellipse fill="#262e1b" rx="1" ry="1" transform="matrix(-24.83304824 -2.36620637 6.12387264 -64.26929894 2.261822 157.6662)"/><ellipse fill="#0c1d0d" rx="1" ry="1" transform="matrix(.88018367 -6.23962286 71.18633354 10.04180051 170.814528 132.287687)"/><ellipse fill="#87c5d9" rx="1" ry="1" transform="matrix(-.99774009 15.17087932 -63.94371126 -4.20537287 193.713101 55.780016)"/><ellipse cx="40" fill="#e1efef" rx="72" ry="19"/><path d="m-.5-.5h1v1h-1z" fill="#5d6756" transform="matrix(-1.25638188 -35.97806977 80.95065699 -2.82685923 28 112)"/><ellipse fill="#d1c09c" rx="1" ry="1" transform="matrix(-1.68158191 1.67612718 -8.99497888 -9.02425178 206.590726 129.25115)"/><ellipse cx="247" cy="99" fill="#484a3d" rx="44" ry="8"/><ellipse fill="#0085ba" rx="1" ry="1" transform="matrix(-1.33956335 22.13355564 -55.96900448 -3.38734673 224.39858 12.0809)"/><path d="m269.012021 138.865685-60.889104 15.922465-30.464126-6.428522 17.888642 28.688305z" fill="#60624a"/><ellipse cx="34" cy="169" fill="#1b1701" rx="32" ry="10"/><ellipse fill="#9aaca7" rx="1" ry="1" transform="matrix(.01869153 3.54218068 -77.20270215 .4073865 66.554226 87.96614)"/><ellipse fill="#45a6cd" rx="1" ry="1" transform="matrix(-21.76625601 -13.56489975 9.68816725 -15.54564594 156.055065 20.551182)"/><ellipse fill="#000405" rx="1" ry="1" transform="matrix(1.73277039 7.05744653 -37.3122042 9.16103047 226.509436 140.91149)"/><ellipse fill="#00559c" rx="1" ry="1" transform="matrix(5.47232607 -17.96393675 41.30978314 12.58413488 244.605915 0)"/><path d="m212 138-28-31 53-7z" fill="#85846e"/><path d="m93 115-5 15 52 15z" fill="#7d8c7f"/><path d="m183.859521 147.640202-38.335221 37.359798-3.715238-38.655829-23.034114 36.0754z" fill="#04100f"/><path d="m123 108h53v17h-53z" fill="#738178"/><ellipse fill="#a39c82" rx="1" ry="1" transform="matrix(2.98457051 -5.68025639 3.71383821 1.95135769 168.32777 169)"/><path d="m-.5-.5h1v1h-1z" fill="#000500" transform="matrix(35.38327597 10.81775307 -5.55506239 18.16979036 241 169)"/><path d="m166.659379 152.951472-21.430649-3.654209.368324 12.593427 19.729899-9.224849z" fill="#8c876f"/><ellipse cx="15" cy="57" fill="#edf2ed" rx="54" ry="30"/><path d="m-.5-.5h1v1h-1z" fill="#968d68" transform="matrix(-78.41114598 9.62767813 -.36560803 -2.97763845 22 159)"/><path d="m95 163-20-8-2 14z" fill="#a0a291"/><ellipse cx="4" cy="158" fill="#0a1610" rx="7" ry="28"/><ellipse fill="#009bc9" rx="1" ry="1" transform="matrix(-42.74017351 -20.45842797 5.28429073 -11.03953358 192.900923 13.033954)"/><path d="m25 157 35-7-12-6z" fill="#141809"/><path d="m10 93h54v14h-54z" fill="#677365"/><path d="m107 0h37v43h-37z" fill="#7fbad7"/><path d="m223.284773 151.96362-24.074885-28.671812-44.915025 13.202972 24.2003 5.96245z" fill="#07150c"/><ellipse fill="#30432c" rx="1" ry="1" transform="matrix(-.83063016 3.3563233 -34.20547442 -8.46524494 73.569435 112.441453)"/><path d="m-.5-.5h1v1h-1z" fill="#d0dfdd" transform="matrix(.62819094 17.98903489 -104.93603684 3.66444715 188 76)"/><path d="m234 99 28 4-11 5z" fill="#0b1910"/><path d="m115.257694 157.158841-15.060308 5.938142 37.061651-27.93276 16.499316-2.398541z" fill="#7d7f6c"/><path d="m109 101h112v3h-112z" fill="#31463d"/><path d="m95 154h5v16h-5z" fill="#000300"/><path d="m-.5-.5h1v1h-1z" fill="#212c27" transform="matrix(49.62730758 6.09346717 -.36560803 2.97763845 74 146)"/><path d="m259.461254 165.639013 11.538746-32.358253-45.368287 23.168066-8.186939-15.77205z" fill="#545944"/><ellipse cx="9" cy="135" fill="#000605" rx="18" ry="4"/><ellipse fill="#3da9cc" rx="1" ry="1" transform="matrix(55.88210225 16.82568597 -2.23233904 7.41412855 204.826626 37.661927)"/><ellipse cx="250" cy="126" fill="#002329" rx="21" ry="5"/><path d="m205 117h13v8h-13z" fill="#1f2721"/><path d="m105 162h8v8h-8z" fill="#000002"/><path d="m223 119-7-5 10-3z" fill="#dbd6bf"/><path d="m244.016908 113.829044-8.183141 9.467475 18.932098-4.779409-32.297991-24.645971z" fill="#848874"/><path d="m22.831338 135.166081 94.492147-31.444379-25.41756-3.572345-38.026473 17.533984z" fill="#6e7a6e"/><path d="m28.183982 100.965447 19.030302-1.97022-20.779154-4.543042-42.43513 6.300488z" fill="#3c4c3e"/><path d="m195 113-6 6 25 11z" fill="#aba993"/><ellipse fill="#aed2e1" rx="1" ry="1" transform="matrix(-4.11549942 -12.39421219 35.8397991 -11.90060895 80.106229 18.924515)"/><path d="m58 104 41-19-57 3z" fill="#869590"/><path d="m81 162 7-10-1 10z" fill="#14201d"/><path d="m150.647815 45.169162 120.352185 15.607966-15.915296 9.655097-46.680191-2.436899z" fill="#89bfd1"/><path d="m39 149-43-8 71-9z" fill="#585b48"/><path d="m-.5-.5h1v1h-1z" fill="#496d74" transform="matrix(-2.64428892 -18.81509331 3.96107227 -.5566924 130 92)"/><path d="m103 90h144v8h-144z" fill="#7d857d"/><ellipse cx="42" cy="161" fill="#101b16" rx="19" ry="3"/><path d="m68.412825 123.214411 11.023462-3.227003-13.406221 37.249142-3.930165 8.111201z" fill="#848876"/><path d="m142 110 19 8-9-12z" fill="#a0a69b"/><path d="m168.192942 61.169509 5.075292 24.070423-59.286288-.984237-50.754733-32.714133z" fill="#d7e7e8"/><path d="m44.751978 117.183288-26.205095 7.619613 1.862346 10.091176 54.061126-31.979774z" fill="#2d372e"/><path d="m25 132h66v3h-66z" fill="#323c33"/><path d="m220.796364 125.795759-4.470779 4.767412 36.244991-15.291341 6.863496-7.886365z" fill="#7e7e66"/><path d="m29.437471 128.736736 9.212938 31.212073-44.259664 4.817123 67.126684-25.180342z" fill="#696954"/><path d="m101 164h2v6h-2z" fill="#ffffc6"/><path d="m161 104h22v4h-22z" fill="#26382e"/><path d="m225.288203 100.730438-12.282494-5.096875-2.899206 27.65679-19.467396 18.794799z" fill="#3e4a42"/><path d="m221 157 5 22-58-34z" fill="#575a42"/><ellipse fill="#0086b7" rx="1" ry="1" transform="matrix(90.25788267 42.37011919 -4.35380937 9.2745931 247.271929 27.643701)"/><path d="m27 101 24 6-18 11z" fill="#777f74"/><path d="m27.911096 137.031811-32.530094 18.606089 6.820538 3.064392 25.402468-3.066207z" fill="#1b231c"/><path d="m115 162 6-30-8 9z" fill="#263229"/><path d="m206.986633 125.163692-32.588093-6.079603-34.358627 12.812225 28.277601-7.062342z" fill="#2b403c"/><path d="m108 114 18 14-40-13z" fill="#213117"/><path d="m153 139h17v4h-17z" fill="#889282"/><path d="m187.835478 140.64793-39.499318-2.071203 34.784239-18.786498-14.96815 2.483976z" fill="#1c2713"/><path d="m101 132h29v2h-29z" fill="#a9afa2"/><ellipse cx="82" cy="99" fill="#2c4d4c" rx="25" ry="2"/><ellipse fill="#f4f3ef" rx="1" ry="1" transform="matrix(56.94396951 4.4481396 -.61954852 7.93130499 68.946599 74.869725)"/><path d="m155.452672 156.030868.692907 6.665141-4.935185 1.060303-8.5184-25.356044z" fill="#7c775e"/><path d="m112 150-1-7-12-1z" fill="#8a8d78"/><path d="m177.804144 159.135478 13.264888 6.16917-30.135735-5.197551 14.122946-9.77096z" fill="#00050a"/><path d="m165.643676 167.239703 22.385267 6.912216-46.708335 10.848081 18.321668-16.353276z" fill="#969173"/><ellipse cx="238" cy="113" fill="#282715" rx="7" ry="2"/><path d="m99 134h14v6h-14z" fill="#233530"/><path d="m136 139-9 1 10 10z" fill="#9aa095"/><ellipse fill="#475a50" rx="1" ry="1" transform="matrix(.58787847 -3.95113904 24.0856363 3.58363167 135.382922 123.031323)"/><path d="m127.120173 157.996777 5.745961-6.160963 28.807311 23.447719-48.008254-14.148449z" fill="#23302a"/><path d="m99 166-30 4 38 10z" fill="#061511"/><ellipse fill="#909689" rx="1" ry="1" transform="matrix(-.13440415 .9909266 -23.11461051 -3.13514594 89.156257 151.310381)"/><path d="m113 158h8v2h-8z" fill="#c1c6b5"/><path d="m-.5-.5h1v1h-1z" fill="#a3a28f" transform="matrix(-.2923717 -.95630476 40.16479975 -12.2796116 94 135)"/><path d="m-16 118.961118 32.357744 2.303214-22.473772-9.695617 38.478022-2.470357z" fill="#212d27"/><path d="m87 157h7v10h-7z" fill="#adad9c"/><path d="m-.5-.5h1v1h-1z" fill="#aca892" transform="matrix(.1391731 -.99026807 23.76643365 3.34015442 58 140)"/><path d="m192 84h64v5h-64z" fill="#6e99a2"/><path d="m210.797569 153.015874 27.087768 1.527761-43.686021-21.217088-23.948206 12.03101z" fill="#0a140d"/><path d="m87.571793 40.775467-25.223846-16.287961 21.102428-2.354459 143.894243 45.797243z" fill="#94cae1"/><path d="m-.5-.5h1v1h-1z" fill="#bec5b5" transform="matrix(3.53179037 1.87788625 -.93894313 1.76589519 243 154)"/><path d="m82.431985 113.521951-1.971383 18.884293 10.68285-8.680337-34.392707-16.853323z" fill="#374633"/><path d="m-.5-.5h1v1h-1z" fill="#3c4841" transform="matrix(-4.90175132 7.54803511 -7.54803511 -4.90175132 139 110)"/><path d="m200.762544 130.941262-19.612934-6.252978 15.37344 1.717342 11.123035-47.064564z" fill="#797f72"/><path d="m-.5-.5h1v1h-1z" fill="#4b5043" transform="matrix(-.96961924 1.74923941 -31.48630946 -17.45314633 204 114)"/><path d="m65 161h8v5h-8z" fill="#1f2111"/><path d="m-.5-.5h1v1h-1z" fill="#b7b8a4" transform="matrix(-11.88321682 -1.67007721 .1391731 -.99026807 59 131)"/><path d="m135 101-68 2 30 12z" fill="#738077"/><path d="m99.450819 120.833155-14.057211-.245564 14.296287 11.097531-15.008134.074341z" fill="#949586"/><path d="m68 151h8v3h-8z" fill="#040f0d"/><ellipse fill="#929481" rx="1" ry="1" transform="matrix(-.63893635 -1.67033329 13.3611336 -5.11090452 76.175346 156.178498)"/><path d="m152 145 5 3-8 2z"/><path d="m-15 31 63 27-64-5z" fill="#c7e0e2"/><path d="m143 109h44v2h-44z" fill="#9c9f91"/><path d="m117 147v5l10-6z" fill="#a6a28d"/><ellipse fill="#b0d4e0" rx="1" ry="1" transform="matrix(1.31988868 -6.58074414 67.40795924 13.51989993 152.613248 60.738971)"/><path d="m152.153031 12.30815 11.962741.543651 106.884228 28.598344-91.656556-9.947523z" fill="#159fc9"/><path d="m58 162 12 22-86-12z" fill="#564927"/><path d="m71 139h5v7h-5z" fill="#14241e"/><path d="m-.5-.5h1v1h-1z" fill="#bbbfa6" transform="matrix(12.27597048 13.16436663 -.7313537 .68199836 70 169)"/><ellipse cx="182" cy="129" fill="#06201e" rx="3" ry="10"/><path d="m6 115h27v2h-27z" fill="#8c8e7c"/><path d="m-.5-.5h1v1h-1z" fill="#9fa493" transform="matrix(-18.71134731 -3.29931538 .17364818 -.98480775 69 148)"/><path d="m3.250328 97.665231 33.336328-12.203384-37.470519.335825 9.024106 10.908579z" fill="#a2a99d"/><path d="m186 116h21v6h-21z" fill="#969582"/><path d="m133.901364 185h37.883892l-47.351016-30.385376 5.665778-15.781045z" fill="#2b322a"/><path d="m-.5-.5h1v1h-1z" fill="#0b1708" transform="matrix(0 4 -22 0 142 132)"/><path d="m36.733416 145.02182 18.162532.610987-33.560076 2.435807 11.679291 13.941519z" fill="#716a50"/><ellipse fill="#5aaccb" rx="1" ry="1" transform="matrix(-70.23740135 -17.44812711 1.62935905 -6.55898167 217.595859 46.674562)"/><path d="m-.5-.5h1v1h-1z" fill="#58674c" transform="matrix(.99756405 -.06975647 1.95318126 27.93179341 180 138)"/><ellipse cx="119" cy="166" fill="#6d7a6f" rx="5" ry="5"/><path d="m172 93 6 34-10-4z" fill="#5f685c"/><path d="m62 150-29 4 20-12z" fill="#1c2218"/><path d="m65.683108 133.320507-19.120361 1.285161-6.166464-13.552972 13.94285 18.435971z" fill="#2d3228"/><path d="m160.253329 122.556029 29.339107-5.331417-83.459461.20022 46.597292-3.731379z" fill="#84897b"/><ellipse cx="115" cy="140" fill="#8a8b75" rx="3" ry="3"/><path d="m107 98 21 1-16 7z" fill="#314f4f"/><ellipse cx="167" cy="130" fill="#00030a" rx="5" ry="5"/><path d="m-16 156.563979 24.560982 9.06512 49.614129-5.204376-62.890079 11.828104z" fill="#010e0f"/><path d="m-.5-.5h1v1h-1z" fill="#101b17" transform="matrix(.43837115 .89879405 -12.58311665 6.13719606 37 144)"/><path d="m86 137h11v6h-11z" fill="#3d4032"/><path d="m74 111h13l-25 14z" fill="#2d4339"/><path d="m144 134h5v6h-5z" fill="#979b86"/><path d="m182.484285 111.172252-8.057776.037927-8.263113 2.907549 37.991676-2.888444z" fill="#929382"/><path d="m-.5-.5h1v1h-1z" fill="#c6b899" transform="matrix(-.58778525 .80901699 -4.04508497 -2.93892626 178 165)"/><path d="m99 155h9v3h-9z" fill="#000c0e"/><path d="m242.965662 140.811535 11.258634-29.686046 16.775704 40.591326-16.151281-34.231122z" fill="#162d28"/><ellipse cx="49" cy="155" fill="#9a9278" rx="10" ry="2"/><path d="m115.190839 157.363888 7.534445-16.225437-14.7823 11.973068-.042274-5.874417z" fill="#27312c"/><ellipse cx="108" cy="128" fill="#c6cabd" rx="2" ry="2"/><ellipse cx="142" cy="19" fill="#63add0" rx="16" ry="18"/><ellipse cx="56" cy="160" fill="#2a3021" rx="5" ry="5"/><ellipse cx="158" cy="153" fill="#c1c8c5" rx="2" ry="2"/><path d="m-.5-.5h1v1h-1z" fill="#707562" transform="matrix(24.96573837 1.30839891 -.05233596 .99862953 16 140)"/><path d="m66 116-7-1-8 9z" fill="#9b9982"/><path d="m-.5-.5h1v1h-1z" fill="#33413e" transform="matrix(14.91782843 -1.56792695 .62717078 5.96713137 83 127)"/><ellipse cx="171" cy="163" fill="#c9c8af" rx="2" ry="2"/><path d="m52.674987 9.989913-64.41221 29.79635-1.299551-25.503437 70.931422-25.369157z" fill="#dee9e6"/><ellipse cx="79" cy="120" fill="#8c958a" rx="4" ry="4"/><path d="m-.5-.5h1v1h-1z" fill="#9d9f92" transform="matrix(.77714596 -.62932039 6.29320391 7.77145961 212 129)"/><path d="m180 169h14v1h-14z" fill="#888369"/><path d="m135 92h17v7h-17z" fill="#929a93"/><ellipse cx="142" cy="155" rx="3" ry="3"/><path d="m-.5-.5h1v1h-1z" fill="#132d33" transform="matrix(-8.76933058 -2.02455949 .89980422 -3.89748026 100 126)"/><path d="m197 105h7v3h-7z" fill="#bbb7aa"/><ellipse cx="254" cy="93" fill="#67746c" rx="22" ry="9"/><path d="m184 111h6l-5-7z" fill="#c6c3aa"/><path d="m69 133-1 6h22z" fill="#95937a"/><path d="m149.971637 96.652831 11.885943 8.215868-3.554483-15.467043-52.787822 22.234082z" fill="#7a847b"/><path d="m266 120-50 18 12-15z" fill="#142d2e"/><path d="m-.5-.5h1v1h-1z" fill="#7399a0" transform="matrix(.94075617 8.95069706 -1.98904379 .20905693 79 86)"/><path d="m18.790787 50.006744 70.67656-6.144005 10.586026 14.060195 49.87599 17.997254z" fill="#d0e7ec"/><path d="m228.813631 121.802213-5.656163.130036-12.697644 25.718534 16.183621-33.244149z" fill="#303a30"/><path d="m12 105h26v2h-26z" fill="#939688"/><path d="m41 127h11v9h-11z" fill="#293731"/><ellipse fill="#00579b" rx="1" ry="1" transform="matrix(-23.28501043 -7.68236489 2.95527593 -8.95734995 246.767473 0)"/><path d="m-.5-.5h1v1h-1z" fill="#283931" transform="matrix(-6.78733468 -12.2446759 5.24771824 -2.90885772 2 104)"/><path d="m-.5-.5h1v1h-1z" fill="#3e4633" transform="matrix(.65605903 -.75470958 27.16954489 23.61812504 196 123)"/><path d="m178 114-13 4-7-4z" fill="#434b41"/><path d="m-.5-.5h1v1h-1z" fill="#b4ac8c" transform="matrix(2.95442326 -.52094453 2.08377813 11.81769304 102 166)"/><ellipse cx="117" cy="86" fill="#a1bfc5" rx="58" ry="2"/><path d="m87 89h26v7h-26z" fill="#90a09e"/><path d="m128 73h2v16h-2z" fill="#749191"/><path d="m101.12576 142.289689-17.387904 19.567216-5.537309-.910362 20.730326-16.027414z" fill="#414a45"/><path d="m225 121h15v2h-15z" fill="#9b9a85"/><path d="m-.5-.5h1v1h-1z" fill="#091917" transform="matrix(23.49231552 -8.55050358 1.71010072 4.6984631 14 134)"/><path d="m216.247553 153.978496 20.540122 12.488342-46.182744-7.178586 18.250653 25.711748z" fill="#3a412c"/><path d="m208 113 7-6 5 3z" fill="#394136"/><path d="m75 127h21v1h-21z" fill="#999b8c"/><path d="m7 139h3v20h-3z" fill="#020d0a"/><path d="m42 127 22-5-13-1z" fill="#898877"/><path d="m8 130 2-4-4 2z" fill="#adab89"/><path d="m204 87 67-17-77-3z" fill="#bdcfce"/><ellipse cx="74" cy="167" fill="#d5dac6" rx="2" ry="2"/><path d="m251 157 16 9 2 11z" fill="#a28f55"/><ellipse cx="197" cy="87" fill="#789aa2" rx="27" ry="3"/><path d="m-.5-.5h1v1h-1z" fill="#a8afa8" transform="matrix(5.73782854 -1.75423023 .58474341 1.91260951 132 107)"/><path d="m92 126 11-4-10-2z" fill="#9ea08f"/><path d="m159 115-3 3 12 2z" fill="#b0b5a7"/><path d="m227.219875 153.262667 17.983042 27.441549-28.126338-17.38692 31.274384 1.839472z" fill="#071004"/><ellipse cx="95" cy="132" fill="#0c130b" rx="4" ry="1"/><path d="m-.5-.5h1v1h-1z" fill="#303427" transform="matrix(.98480775 .17364818 -3.29931538 18.71134731 235 117)"/><path d="m11.690386 146.857518-.526544 2.793001 9.464158 3.233247.956367-2.747461z" fill="#565b4c"/><path d="m98 51-62-46 1 25z" fill="#c0dde4"/><path d="m-.5-.5h1v1h-1z" fill="#858260" transform="matrix(-.1391731 -.99026807 43.57179502 -6.12361644 19 159)"/><ellipse cx="82" cy="151" fill="#a5a899" rx="3" ry="3"/><path d="m127 135 6-1-5-2z" fill="#96a197"/><path d="m25 128h3v42h-3z" fill="#24291f"/><path d="m145.871579 13.211149 32.890777-7.229549-11.509307 8.158614 33.654283 33.142662z" fill="#38a1cd"/><path d="m72.378108 159.207112-7.223161-2.066147 12.537421-3.695773 4.282906-15.603297z" fill="#4b534a"/><path d="m187 92h50v2h-50z" fill="#576968"/><path d="m184 153h20v9h-20z" fill="#60604a"/><path d="m-.5-.5h1v1h-1z" fill="#bfc6b6" transform="matrix(-.51503807 -.8571673 2.5715019 -1.54511422 247 120)"/><path d="m35 141h3v10h-3z" fill="#8b876f"/><ellipse fill="#000c0a" rx="1" ry="1" transform="matrix(-1.87331863 -2.40394117 16.55871466 -12.9037054 248.729138 134.955591)"/><ellipse cx="90" cy="106" fill="#b0b4a6" rx="11" ry="1"/><path d="m-.5-.5h1v1h-1z" fill="#959787" transform="matrix(24.54067959 -4.77022488 .190809 .98162718 199 120)"/><path d="m30.959053 49.426625 40.077818-9.426467-33.340169-6.102779-52.499244-19.248967z" fill="#eef1ee"/><path d="m137.522517 122.787972-13.739794 14.811132 16.003564 1.562608-40.462717-17.381378z" fill="#384530"/><path d="m-.5-.5h1v1h-1z" fill="#7d8064" transform="matrix(.42261826 .90630779 -20.8450791 9.72022002 0 144)"/><path d="m204 101 2-12-26 8z" fill="#898a80"/><path d="m242 149h4v8h-4z" fill="#7a8378"/><path d="m152.766814 155.024678 16.607175 10.832777-10.814758 2.672412 19.486234-12.12521z" fill="#0e1516"/><path d="m-.5-.5h1v1h-1z" fill="#8eaba7" transform="matrix(-6.87139028 -1.33566297 .190809 -.98162718 255 156)"/><path d="m45.442583 132.839935-14.235972-1.703905 30.210442-18.222545-28.82618 23.137711z" fill="#6e7569"/><path d="m236.569946 102.496404 7.920553 6.269513 19.946116-1.045004-8.357922-4.551125z" fill="#2c352a"/><path d="m0 144h38v2h-38z" fill="#19251e"/><path d="m-.5-.5h1v1h-1z" fill="#a49e82" transform="matrix(4.92403877 .86824089 -1.04188907 5.90884652 176 100)"/><ellipse cx="173" cy="107" fill="#1d2d2b" rx="2" ry="3"/><path d="m-.5-.5h1v1h-1z" fill="#22302d" transform="matrix(6.29669685 32.39369705 -.98162718 .190809 217 128)"/><path d="m184.598624 149.386704-23.751196-24.555043 56.285903 30.254008-9.845565-.190446z" fill="#141e11"/><path d="m214.282794 105.204841 20.092422.801163-56.338748 19.630169 51.213023-14.453013z" fill="#848676"/><ellipse cx="27" cy="135" fill="#252f26" rx="40" ry="1"/><path d="m-.5-.5h1v1h-1z" fill="#162727" transform="matrix(.39073113 .92050485 -14.72807766 6.25169806 55 127)"/><path d="m212 95h30v3h-30z" fill="#909180"/><ellipse fill="#a9a78f" rx="1" ry="1" transform="matrix(-.98324154 .18230764 -.83958792 -4.52815766 147.647695 148.75206)"/><path d="m-.5-.5h1v1h-1z" fill="#7c7f78" transform="matrix(20.98720737 .73288943 -.0348995 .99939083 60 132)"/><path d="m114.084512 112.201218 6.543362 9.241766-13.100063-4.689435 42.594346 3.03279z" fill="#778279"/><path d="m104 161h10v7h-10z" fill="#001d23"/><path d="m240.407643 174.136447 18.191873-26.837806 12.400484 7.184583-22.734578-2.645536z" fill="#1a2311"/><ellipse cx="14" cy="142" fill="#7c806b" rx="3" ry="3"/><path d="m249 158-23-4-4-12z" fill="#3f4834"/><path d="m0 109h32v6h-32z" fill="#323d34"/><path d="m83 102h29v4h-29z" fill="#7f8980"/><path d="m151 125h9v7h-9z" fill="#505f4f"/><path d="m-.5-.5h1v1h-1z" fill="#13292a" transform="matrix(-.31401574 -5.99177721 4.99314767 -.26167978 181 103)"/><path d="m139.832594 42.867733-28.933748-58.867733 6.579121 40.100592-16.052361 15.365114z" fill="#88c1db"/><path d="m159 138h2v10h-2z" fill="#222314"/><path d="m207 131 3-3-7-4z" fill="#bba986"/><path d="m93 108h6v3h-6z" fill="#334441"/><path d="m120 136h2v2h-2z" fill="#d7d8cb"/><ellipse cx="199" cy="131" fill="#324540" rx="4" ry="4"/><path d="m228 34h20v17h-20z" fill="#35a1be"/><ellipse cx="110" cy="140" fill="#232615" rx="3" ry="3"/><path d="m109.522515 149.052586 4.840599 11.17477-8.735194-.562921 3.22762 2.558215z" fill="#7d7f71"/><path d="m-.5-.5h1v1h-1z" fill="#001a1d" transform="matrix(-18.2388266 -12.30224388 .5591929 -.82903757 184 127)"/><path d="m-.5-.5h1v1h-1z" fill="#6e786b" transform="matrix(.0348995 .99939083 -41.97441473 1.46577886 54 115)"/></g><path d="m161.199443 157.233292q-17.751042-3.92553-73.971029 10.9884" fill="none" stroke="#122324" stroke-opacity=".501961" stroke-width=".5"/><ellipse cx="13" cy="78" fill="#f0efeb" fill-opacity=".501961" rx="87" ry="6"/><path d="m-.5-.5h1v1h-1z" fill="#a2a48f" fill-opacity=".501961" transform="matrix(.30901699 .95105652 -3.80422607 1.23606798 28 126)"/><path d="m160 148 11-8-1 16z" fill="#2e3e3d" fill-opacity=".501961"/><path d="m190 164-18-6 11 8z" fill="#00030b" fill-opacity=".501961"/><path d="m149 140h20v2h-20z" fill="#848b7f" fill-opacity=".501961"/><path d="m37 115h20v5h-20z" fill="#424637" fill-opacity=".501961"/><ellipse cx="176" cy="125" fill="#fafee9" fill-opacity=".501961" rx="1" ry="1"/><path d="m225 101h2v15h-2z" fill="#535c51" fill-opacity=".501961"/><path d="m43.136327 152.014215 12.853586-3.619446 5.823595-2.19198-8.540065-5.675686z" fill="#343b30" fill-opacity=".501961"/><ellipse cx="64" cy="161" fill="#928e76" fill-opacity=".501961" rx="3" ry="5"/><path d="m218.241156 63.30515-28.332613-24.232535-7.46643 11.683446 88.557887 2.452393z" fill="#72b5cd" fill-opacity=".501961"/><path d="m-.5-.5h1v1h-1z" fill="#808371" fill-opacity=".501961" transform="matrix(-34.56909192 -5.47520628 .15643447 -.98768834 46 115)"/><ellipse cx="180" cy="116" fill="#d0c6ab" fill-opacity=".501961" rx="2" ry="2"/><path d="m118 134h2v12h-2z" fill="#031314" fill-opacity=".501961"/><path d="m37 98h12v6h-12z" fill="#3f513b" fill-opacity=".501961"/><path d="m29 100h29v2h-29z" fill="#888f80" fill-opacity=".501961"/><path d="m156 140h3v7h-3z" fill="#8d8c74" fill-opacity=".501961"/><path d="m202.439093 132.151105 15.041289 10.440206 16.506185-6.070132-31.215096 12.872668z" fill="#000405" fill-opacity=".501961"/><path d="m-.5-.5h1v1h-1z" fill="#1b2b29" fill-opacity=".501961" transform="matrix(-3.44145862 4.91491227 -.81915204 -.57357644 65 148)"/><ellipse cx="120" cy="157" fill="#aeaf98" fill-opacity=".501961" rx="2" ry="2"/><ellipse cx="146" cy="79" fill="#e4e7e3" fill-opacity=".501961" rx="30" ry="6"/><path d="m138.762225 165.888956 9.764914 19.111044 19.156054-38.473748-17.470664 22.454188z" fill="#0e1a1b" fill-opacity=".501961"/><path d="m133 158-11 3 6 24z" fill="#484d3a" fill-opacity=".501961"/><ellipse fill="#0094bd" fill-opacity=".501961" rx="1" ry="1" transform="matrix(.66873983 -5.45306739 35.19962586 4.31672488 236.358589 29.029846)"/><path d="m-.5-.5h1v1h-1z" fill="#a5a998" fill-opacity=".501961" transform="matrix(-1.91012995 10.83288528 -.98480775 -.17364818 98 135)"/><path d="m62 100h23v2h-23z" fill="#374d48" fill-opacity=".501961"/><path d="m246 107h6v11h-6z" fill="#858975" fill-opacity=".501961"/><path d="m163 132 20-4-23-4z" fill="#091516" fill-opacity=".501961"/><ellipse cx="83" cy="166" fill="#d1d3c9" fill-opacity=".501961" rx="2" ry="2"/><ellipse cx="130" cy="89" fill="#3c6f7e" fill-opacity=".501961" rx="3" ry="3"/><ellipse fill="#a7a086" fill-opacity=".501961" rx="1" ry="1" transform="matrix(.9739687 -.22668253 .8789443 3.77648961 212.656794 134.990717)"/><path d="m-.5-.5h1v1h-1z" fill="#142626" fill-opacity=".501961" transform="matrix(-.01745241 .9998477 -34.99466933 -.61083423 70 133)"/><ellipse fill="#0074b0" fill-opacity=".501961" rx="1" ry="1" transform="matrix(38.64145328 15.61136269 -3.47100651 8.59148165 223.591023 6.301744)"/><path d="m-.5-.5h1v1h-1z" fill="#3c4338" fill-opacity=".501961" transform="matrix(.41868765 -7.98903628 1.99725907 .10467191 204 117)"/><path d="m-.5-.5h1v1h-1z" fill="#1d211a" fill-opacity=".501961" transform="matrix(-20.97122023 -1.09905508 .05233596 -.99862953 131 154)"/></g></svg>