<svg xmlns="http://www.w3.org/2000/svg" version="1.1" width="1024" height="576">
<rect x="0" y="0" width="1024" height="576" fill="#d6cdc9" />
<g transform="scale(4.000000) translate(0.5 0.5)">
<g transform="translate(53.387893 134.024580) rotate(276.815346) scale(25.154464 107.349779)"><ellipse fill="#190000" fill-opacity="0.501961" cx="0" cy="0" rx="1" ry="1" /></g>
<g transform="translate(40.685016 132.700556) rotate(33.136947) scale(35.684514 33.300986)"><ellipse fill="#d50a00" fill-opacity="0.501961" cx="0" cy="0" rx="1" ry="1" /></g>
<g transform="translate(111.806615 134.275421) rotate(94.765165) scale(13.451430 39.416672)"><ellipse fill="#000000" fill-opacity="0.501961" cx="0" cy="0" rx="1" ry="1" /></g>
<g transform="translate(179.903896 58.083387) rotate(464.079330) scale(75.245512 255.000000)"><ellipse fill="#f5feff" fill-opacity="0.501961" cx="0" cy="0" rx="1" ry="1" /></g>
<g transform="translate(40.239234 138.912884) rotate(17.672399) scale(55.050855 26.143680)"><ellipse fill="#9b2200" fill-opacity="0.501961" cx="0" cy="0" rx="1" ry="1" /></g>
<g transform="translate(67.886364 101.379830) rotate(152.909401) scale(10.240258 28.642824)"><ellipse fill="#ece9d3" fill-opacity="0.501961" cx="0" cy="0" rx="1" ry="1" /></g>
<g transform="translate(120.417973 143.000000) rotate(153.854364) scale(30.342634 15.240472)"><ellipse fill="#000000" fill-opacity="0.501961" cx="0" cy="0" rx="1" ry="1" /></g>
<g transform="translate(175.003520 143.000000) rotate(81.145049) scale(30.281310 29.094144)"><ellipse fill="#eaeff1" fill-opacity="0.501961" cx="0" cy="0" rx="1" ry="1" /></g>
<g transform="translate(6.885301 116.657783) rotate(-27.263573) scale(18.123413 6.153978)"><ellipse fill="#000100" fill-opacity="0.501961" cx="0" cy="0" rx="1" ry="1" /></g>
<g transform="translate(39.672292 127.389692) rotate(13.269226) scale(16.188988 33.997013)"><ellipse fill="#be3600" fill-opacity="0.501961" cx="0" cy="0" rx="1" ry="1" /></g>
<g transform="translate(110.857406 141.305487) rotate(306.043632) scale(16.268315 33.716659)"><ellipse fill="#000000" fill-opacity="0.501961" cx="0" cy="0" rx="1" ry="1" /></g>
<g transform="translate(14.426578 80.983663) rotate(164.859480) scale(35.939802 27.226997)"><ellipse fill="#e1e4df" fill-opacity="0.501961" cx="0" cy="0" rx="1" ry="1" /></g>
<g transform="translate(80.329142 100.853539) rotate(185.065725) scale(25.939252 17.073949)"><ellipse fill="#ded6c8" fill-opacity="0.501961" cx="0" cy="0" rx="1" ry="1" /></g>
<g transform="translate(74.555609 140.852936) rotate(54.087858) scale(59.049952 8.339709)"><ellipse fill="#c64a00" fill-opacity="0.501961" cx="0" cy="0" rx="1" ry="1" /></g>
<g transform="translate(90.140770 113.747265) rotate(12.260867) scale(32.363619 2.880862)"><ellipse fill="#e3e2d4" fill-opacity="0.501961" cx="0" cy="0" rx="1" ry="1" /></g>
<g transform="translate(159.042954 136.037777) rotate(188.326895) scale(11.758519 24.039869)"><ellipse fill="#e2e3e3" fill-opacity="0.501961" cx="0" cy="0" rx="1" ry="1" /></g>
<g transform="translate(3.505205 117.217980) rotate(153.771253) scale(22.693444 4.087645)"><ellipse fill="#000305" fill-opacity="0.501961" cx="0" cy="0" rx="1" ry="1" /></g>
<g transform="translate(0.000000 143.000000) rotate(227.032687) scale(27.108046 6.297901)"><ellipse fill="#000000" fill-opacity="0.501961" cx="0" cy="0" rx="1" ry="1" /></g>
<g transform="translate(95.729681 129.859920) rotate(224.816621) scale(14.241832 10.581592)"><ellipse fill="#000000" fill-opacity="0.501961" cx="0" cy="0" rx="1" ry="1" /></g>
<g transform="translate(118.808103 128.084695) rotate(182.830623) scale(29.961158 5.209293)"><ellipse fill="#000d07" fill-opacity="0.501961" cx="0" cy="0" rx="1" ry="1" /></g>
<g transform="translate(39.385133 134.880281) rotate(34.384247) scale(29.470242 31.936961)"><ellipse fill="#b33500" fill-opacity="0.501961" cx="0" cy="0" rx="1" ry="1" /></g>
<g transform="translate(3.407429 80.949985) rotate(314.981356) scale(30.917353 27.701182)"><ellipse fill="#e2dfdc" fill-opacity="0.501961" cx="0" cy="0" rx="1" ry="1" /></g>
<g transform="translate(158.325550 128.771410) rotate(101.628985) scale(1.000000 98.300127)"><ellipse fill="#dbdbd8" fill-opacity="0.501961" cx="0" cy="0" rx="1" ry="1" /></g>
<g transform="translate(0.000000 119.378217) rotate(37.606837) scale(8.399899 9.373497)"><ellipse fill="#000602" fill-opacity="0.501961" cx="0" cy="0" rx="1" ry="1" /></g>
<g transform="translate(75.967190 101.906621) rotate(97.701845) scale(18.834160 15.421763)"><ellipse fill="#e0dbcf" fill-opacity="0.501961" cx="0" cy="0" rx="1" ry="1" /></g>
<g transform="translate(87.578253 120.416535) rotate(215.221155) scale(5.500261 3.334356)"><ellipse fill="#090f03" fill-opacity="0.501961" cx="0" cy="0" rx="1" ry="1" /></g>
<g transform="translate(25.899326 117.343854) rotate(229.669402) scale(6.864611 31.106115)"><ellipse fill="#ab3800" fill-opacity="0.501961" cx="0" cy="0" rx="1" ry="1" /></g>
<g transform="translate(71.482912 127.386222) rotate(44.827511) scale(25.550461 3.372775)"><ellipse fill="#be6027" fill-opacity="0.501961" cx="0" cy="0" rx="1" ry="1" /></g>
<g transform="translate(19.406322 100.206661) rotate(165.143748) scale(26.107818 4.849818)"><ellipse fill="#dcd2b6" fill-opacity="0.501961" cx="0" cy="0" rx="1" ry="1" /></g>
<g transform="translate(185.950003 6.627343) rotate(380.690528) scale(114.246756 63.632957)"><ellipse fill="#eaeaec" fill-opacity="0.501961" cx="0" cy="0" rx="1" ry="1" /></g>
<g transform="translate(183.208086 141.908625) rotate(91.736524) scale(55.076063 36.198035)"><ellipse fill="#e3e4e5" fill-opacity="0.501961" cx="0" cy="0" rx="1" ry="1" /></g>
<g transform="translate(57.371118 138.491761) rotate(28.939031) scale(27.635136 16.521108)"><ellipse fill="#b22700" fill-opacity="0.501961" cx="0" cy="0" rx="1" ry="1" /></g>
<g transform="translate(77.773641 126.724976) rotate(318.741032) scale(6.588490 3.987207)"><ellipse fill="#af6e34" fill-opacity="0.501961" cx="0" cy="0" rx="1" ry="1" /></g>
<g transform="translate(59.818306 114.508353) rotate(298.429950) scale(9.199781 1.895606)"><ellipse fill="#c59764" fill-opacity="0.501961" cx="0" cy="0" rx="1" ry="1" /></g>
<g transform="translate(10.510908 94.647736) rotate(270.516888) scale(1.000000 92.206364)"><ellipse fill="#cfb89b" fill-opacity="0.501961" cx="0" cy="0" rx="1" ry="1" /></g>
<g transform="translate(7.877472 120.295211) rotate(142.975474) scale(24.372328 1.983735)"><ellipse fill="#00170e" fill-opacity="0.501961" cx="0" cy="0" rx="1" ry="1" /></g>
<g transform="translate(69.345850 80.007982) rotate(313.355867) scale(26.320868 13.263200)"><ellipse fill="#e1e1e3" fill-opacity="0.501961" cx="0" cy="0" rx="1" ry="1" /></g>
<g transform="translate(131.243751 143.000000) rotate(46.032029) scale(7.868775 22.718135)"><ellipse fill="#03130e" fill-opacity="0.501961" cx="0" cy="0" rx="1" ry="1" /></g>
<g transform="translate(95.931852 104.127091) rotate(88.483204) scale(11.814891 2.326845)"><ellipse fill="#d8bc99" fill-opacity="0.501961" cx="0" cy="0" rx="1" ry="1" /></g>
<g transform="translate(0.000000 143.000000) rotate(50.573586) scale(54.036418 5.620476)"><ellipse fill="#000000" fill-opacity="0.501961" cx="0" cy="0" rx="1" ry="1" /></g>
<g transform="translate(112.039852 141.319107) rotate(129.209387) scale(19.031414 23.439980)"><ellipse fill="#050c0a" fill-opacity="0.501961" cx="0" cy="0" rx="1" ry="1" /></g>
<g transform="translate(69.612172 109.432641) rotate(34.174590) scale(16.808051 5.780671)"><ellipse fill="#ddd4c3" fill-opacity="0.501961" cx="0" cy="0" rx="1" ry="1" /></g>
<g transform="translate(139.248870 101.259503) rotate(170.098065) scale(42.177347 20.371688)"><ellipse fill="#e0e1e2" fill-opacity="0.501961" cx="0" cy="0" rx="1" ry="1" /></g>
<g transform="translate(25.853389 65.601505) rotate(187.564269) scale(93.498765 25.937574)"><ellipse fill="#e2e2e5" fill-opacity="0.501961" cx="0" cy="0" rx="1" ry="1" /></g>
<g transform="translate(170.848707 128.210597) rotate(321.005775) scale(25.474405 20.176003)"><ellipse fill="#e1e1e0" fill-opacity="0.501961" cx="0" cy="0" rx="1" ry="1" /></g>
<g transform="translate(1.430671 113.761626) rotate(78.235768) scale(2.917534 25.758014)"><ellipse fill="#00130e" fill-opacity="0.501961" cx="0" cy="0" rx="1" ry="1" /></g>
<g transform="translate(91.185509 130.486474) rotate(340.828195) scale(8.352022 14.219802)"><ellipse fill="#080d08" fill-opacity="0.501961" cx="0" cy="0" rx="1" ry="1" /></g>
<g transform="translate(7.134038 103.255626) rotate(78.827413) scale(6.259513 24.183350)"><ellipse fill="#dcd6c4" fill-opacity="0.501961" cx="0" cy="0" rx="1" ry="1" /></g>
<g transform="translate(92.616617 115.226793) rotate(100.252926) scale(1.509479 31.977886)"><ellipse fill="#e2ddd3" fill-opacity="0.501961" cx="0" cy="0" rx="1" ry="1" /></g>
<g transform="translate(17.099082 123.693560) rotate(146.477144) scale(17.738542 6.212429)"><ellipse fill="#ad3802" fill-opacity="0.501961" cx="0" cy="0" rx="1" ry="1" /></g>
<g transform="translate(70.292711 115.511054) rotate(336.181987) scale(1.968976 12.918603)"><ellipse fill="#dbd3c0" fill-opacity="0.501961" cx="0" cy="0" rx="1" ry="1" /></g>
<g transform="translate(45.861852 141.331266) rotate(273.321896) scale(22.813677 37.522518)"><ellipse fill="#b23100" fill-opacity="0.501961" cx="0" cy="0" rx="1" ry="1" /></g>
<g transform="translate(83.236298 137.401202) rotate(229.397866) scale(25.138013 1.365132)"><ellipse fill="#a86237" fill-opacity="0.501961" cx="0" cy="0" rx="1" ry="1" /></g>
<g transform="translate(69.194291 123.060789) rotate(48.946234) scale(39.076962 1.000000)"><ellipse fill="#b24914" fill-opacity="0.501961" cx="0" cy="0" rx="1" ry="1" /></g>
<g transform="translate(220.955149 113.475364) rotate(304.011517) scale(37.859021 200.717859)"><ellipse fill="#e6e6e7" fill-opacity="0.501961" cx="0" cy="0" rx="1" ry="1" /></g>
<g transform="translate(14.369509 128.200194) rotate(19.629822) scale(2.798260 1.000000)"><ellipse fill="#c07c3d" fill-opacity="0.501961" cx="0" cy="0" rx="1" ry="1" /></g>
<g transform="translate(25.753362 99.919842) rotate(52.700738) scale(7.095166 5.494756)"><ellipse fill="#d3ceb6" fill-opacity="0.501961" cx="0" cy="0" rx="1" ry="1" /></g>
<g transform="translate(136.497008 103.714068) rotate(296.337179) scale(20.910308 23.019411)"><ellipse fill="#e2e1e2" fill-opacity="0.501961" cx="0" cy="0" rx="1" ry="1" /></g>
<g transform="translate(34.847009 106.937800) rotate(312.214498) scale(17.392383 2.351870)"><ellipse fill="#ac3600" fill-opacity="0.501961" cx="0" cy="0" rx="1" ry="1" /></g>
<g transform="translate(48.441958 111.159173) rotate(305.084240) scale(3.581986 9.510943)"><ellipse fill="#c25119" fill-opacity="0.501961" cx="0" cy="0" rx="1" ry="1" /></g>
<g transform="translate(102.174382 131.365541) rotate(268.626940) scale(11.667884 20.110045)"><ellipse fill="#090d0b" fill-opacity="0.501961" cx="0" cy="0" rx="1" ry="1" /></g>
<g transform="translate(56.826241 116.914886) rotate(245.965007) scale(3.245847 2.018766)"><ellipse fill="#c89e5d" fill-opacity="0.501961" cx="0" cy="0" rx="1" ry="1" /></g>
<g transform="translate(63.871215 94.605601) rotate(270.869361) scale(1.000000 32.311185)"><ellipse fill="#d2bfa5" fill-opacity="0.501961" cx="0" cy="0" rx="1" ry="1" /></g>
<g transform="translate(135.972022 142.132686) rotate(196.597553) scale(10.012190 15.343681)"><ellipse fill="#08110d" fill-opacity="0.501961" cx="0" cy="0" rx="1" ry="1" /></g>
<g transform="translate(54.909756 108.648385) rotate(37.983710) scale(14.451459 1.160785)"><ellipse fill="#af3a06" fill-opacity="0.501961" cx="0" cy="0" rx="1" ry="1" /></g>
<g transform="translate(0.000000 40.824115) rotate(-116.036628) scale(52.471307 43.816292)"><ellipse fill="#e2e2e3" fill-opacity="0.501961" cx="0" cy="0" rx="1" ry="1" /></g>
<g transform="translate(0.859914 131.701518) rotate(350.591115) scale(1.000000 1.989544)"><ellipse fill="#dcb966" fill-opacity="0.501961" cx="0" cy="0" rx="1" ry="1" /></g>
<g transform="translate(8.814273 114.718664) rotate(329.973753) scale(11.228616 4.446360)"><ellipse fill="#050f0d" fill-opacity="0.501961" cx="0" cy="0" rx="1" ry="1" /></g>
<g transform="translate(122.218158 132.719261) rotate(347.861301) scale(27.471617 1.555034)"><ellipse fill="#0f1310" fill-opacity="0.501961" cx="0" cy="0" rx="1" ry="1" /></g>
<g transform="translate(6.658146 111.717344) rotate(77.378059) scale(1.983540 20.367415)"><ellipse fill="#111a11" fill-opacity="0.501961" cx="0" cy="0" rx="1" ry="1" /></g>
<g transform="translate(80.641873 109.694921) rotate(65.719579) scale(6.509645 15.582159)"><ellipse fill="#e3dbcd" fill-opacity="0.501961" cx="0" cy="0" rx="1" ry="1" /></g>
<g transform="translate(106.505549 79.985928) rotate(-1.966675) scale(39.388367 15.278693)"><ellipse fill="#e4e4e4" fill-opacity="0.501961" cx="0" cy="0" rx="1" ry="1" /></g>
<g transform="translate(80.666837 123.217048) rotate(216.643019) scale(1.118203 5.715904)"><ellipse fill="#9b7747" fill-opacity="0.501961" cx="0" cy="0" rx="1" ry="1" /></g>
<g transform="translate(3.520444 123.411070) rotate(138.736604) scale(15.014094 2.319189)"><ellipse fill="#050c08" fill-opacity="0.501961" cx="0" cy="0" rx="1" ry="1" /></g>
<g transform="translate(79.507562 124.756172) rotate(289.627433) scale(4.171314 4.151119)"><ellipse fill="#9f8159" fill-opacity="0.501961" cx="0" cy="0" rx="1" ry="1" /></g>
<g transform="translate(3.076139 102.970301) rotate(345.155159) scale(20.745420 6.082092)"><ellipse fill="#e4dacd" fill-opacity="0.501961" cx="0" cy="0" rx="1" ry="1" /></g>
<g transform="translate(121.244631 109.554431) rotate(345.745674) scale(22.356775 9.439440)"><ellipse fill="#dedfdf" fill-opacity="0.501961" cx="0" cy="0" rx="1" ry="1" /></g>
<g transform="translate(63.139104 100.957207) rotate(118.212336) scale(5.165206 15.646763)"><ellipse fill="#dbd2c0" fill-opacity="0.501961" cx="0" cy="0" rx="1" ry="1" /></g>
<g transform="translate(2.413230 132.591109) rotate(77.031458) scale(4.012958 1.000000)"><ellipse fill="#b67e3c" fill-opacity="0.501961" cx="0" cy="0" rx="1" ry="1" /></g>
<g transform="translate(52.609474 142.043217) rotate(116.384477) scale(24.459838 11.680834)"><ellipse fill="#ae2c00" fill-opacity="0.501961" cx="0" cy="0" rx="1" ry="1" /></g>
<g transform="translate(2.561429 143.000000) rotate(146.514297) scale(1.922878 17.187557)"><ellipse fill="#000203" fill-opacity="0.501961" cx="0" cy="0" rx="1" ry="1" /></g>
<g transform="translate(112.852533 136.973510) rotate(7.497306) scale(31.283904 7.083119)"><ellipse fill="#080c0b" fill-opacity="0.501961" cx="0" cy="0" rx="1" ry="1" /></g>
<g transform="translate(79.367490 129.801607) rotate(50.711046) scale(2.745651 3.389172)"><ellipse fill="#97683e" fill-opacity="0.501961" cx="0" cy="0" rx="1" ry="1" /></g>
<g transform="translate(2.866134 93.596957) rotate(181.620333) scale(36.238139 1.000000)"><ellipse fill="#cbbba8" fill-opacity="0.501961" cx="0" cy="0" rx="1" ry="1" /></g>
<g transform="translate(203.031479 0.000000) rotate(270.278486) scale(23.563461 55.580756)"><ellipse fill="#eaebec" fill-opacity="0.501961" cx="0" cy="0" rx="1" ry="1" /></g>
<g transform="translate(36.357721 95.675205) rotate(297.566624) scale(3.530924 1.000000)"><ellipse fill="#c4a37f" fill-opacity="0.501961" cx="0" cy="0" rx="1" ry="1" /></g>
<g transform="translate(50.852774 103.926507) rotate(322.516507) scale(2.284790 7.699890)"><ellipse fill="#b03500" fill-opacity="0.501961" cx="0" cy="0" rx="1" ry="1" /></g>
<g transform="translate(56.837977 116.812220) rotate(335.547187) scale(1.000000 4.754623)"><ellipse fill="#c69053" fill-opacity="0.501961" cx="0" cy="0" rx="1" ry="1" /></g>
<g transform="translate(12.109987 143.000000) rotate(58.764901) scale(15.961809 3.717048)"><ellipse fill="#a63400" fill-opacity="0.501961" cx="0" cy="0" rx="1" ry="1" /></g>
<g transform="translate(85.396556 143.000000) rotate(48.393436) scale(38.706718 1.000000)"><ellipse fill="#c0541e" fill-opacity="0.501961" cx="0" cy="0" rx="1" ry="1" /></g>
<g transform="translate(35.121154 118.402998) rotate(353.816796) scale(16.158372 12.124033)"><ellipse fill="#b33100" fill-opacity="0.501961" cx="0" cy="0" rx="1" ry="1" /></g>
<g transform="translate(142.990985 119.004246) rotate(98.894106) scale(6.917984 17.637573)"><ellipse fill="#dddedd" fill-opacity="0.501961" cx="0" cy="0" rx="1" ry="1" /></g>
<g transform="translate(125.685613 134.106770) rotate(265.353161) scale(9.706535 19.448050)"><ellipse fill="#0a100d" fill-opacity="0.501961" cx="0" cy="0" rx="1" ry="1" /></g>
<g transform="translate(129.413520 143.000000) rotate(42.819506) scale(10.463805 21.347384)"><ellipse fill="#0b110e" fill-opacity="0.501961" cx="0" cy="0" rx="1" ry="1" /></g>
<g transform="translate(193.494904 143.000000) rotate(152.156206) scale(18.020400 91.289502)"><ellipse fill="#e4e4e4" fill-opacity="0.501961" cx="0" cy="0" rx="1" ry="1" /></g>
<g transform="translate(93.420401 124.038816) rotate(35.514483) scale(11.082588 4.611927)"><ellipse fill="#0a0d0a" fill-opacity="0.501961" cx="0" cy="0" rx="1" ry="1" /></g>
<g transform="translate(94.580127 113.765609) rotate(259.899601) scale(3.773349 5.179760)"><ellipse fill="#dbcab2" fill-opacity="0.501961" cx="0" cy="0" rx="1" ry="1" /></g>
<g transform="translate(72.726605 108.915653) rotate(271.703481) scale(1.000000 8.599757)"><ellipse fill="#c7c1b1" fill-opacity="0.501961" cx="0" cy="0" rx="1" ry="1" /></g>
<g transform="translate(158.315372 138.381620) rotate(283.595264) scale(24.222110 10.691857)"><ellipse fill="#dedfde" fill-opacity="0.501961" cx="0" cy="0" rx="1" ry="1" /></g>
<g transform="translate(61.695454 103.084256) rotate(182.088905) scale(8.996904 1.000000)"><ellipse fill="#c7baa5" fill-opacity="0.501961" cx="0" cy="0" rx="1" ry="1" /></g>
<g transform="translate(96.745165 100.411404) rotate(-0.157322) scale(1.000000 6.757795)"><ellipse fill="#d2b38c" fill-opacity="0.501961" cx="0" cy="0" rx="1" ry="1" /></g>
<g transform="translate(80.814560 119.078230) rotate(319.359216) scale(6.777824 1.000000)"><ellipse fill="#d3c0a1" fill-opacity="0.501961" cx="0" cy="0" rx="1" ry="1" /></g>
<g transform="translate(42.870948 104.525107) rotate(286.088951) scale(10.838253 3.828411)"><ellipse fill="#b94710" fill-opacity="0.501961" cx="0" cy="0" rx="1" ry="1" /></g>
<g transform="translate(9.634128 118.782447) rotate(140.431111) scale(21.725864 1.000000)"><ellipse fill="#070d0a" fill-opacity="0.501961" cx="0" cy="0" rx="1" ry="1" /></g>
<g transform="translate(110.237405 104.988915) rotate(400.115598) scale(6.621794 16.922316)"><ellipse fill="#e0e0e1" fill-opacity="0.501961" cx="0" cy="0" rx="1" ry="1" /></g>
<g transform="translate(102.298705 127.880675) rotate(-27.446704) scale(8.342435 8.957484)"><ellipse fill="#080c0a" fill-opacity="0.501961" cx="0" cy="0" rx="1" ry="1" /></g>
<g transform="translate(4.148721 103.752723) rotate(273.025624) scale(3.251590 20.029475)"><ellipse fill="#dbd6c7" fill-opacity="0.501961" cx="0" cy="0" rx="1" ry="1" /></g>
<g transform="translate(59.459306 115.073523) rotate(29.893460) scale(4.989731 1.000000)"><ellipse fill="#c07c40" fill-opacity="0.501961" cx="0" cy="0" rx="1" ry="1" /></g>
<g transform="translate(118.053401 98.788236) rotate(26.685714) scale(47.522318 6.967010)"><ellipse fill="#e3e3e3" fill-opacity="0.501961" cx="0" cy="0" rx="1" ry="1" /></g>
<g transform="translate(28.941063 113.566333) rotate(306.096053) scale(14.353346 4.293941)"><ellipse fill="#aa3402" fill-opacity="0.501961" cx="0" cy="0" rx="1" ry="1" /></g>
<g transform="translate(120.237366 131.041735) rotate(103.245885) scale(8.096603 20.594067)"><ellipse fill="#090f0c" fill-opacity="0.501961" cx="0" cy="0" rx="1" ry="1" /></g>
<g transform="translate(38.977388 113.476834) rotate(346.305573) scale(1.000000 15.766552)"><ellipse fill="#b13603" fill-opacity="0.501961" cx="0" cy="0" rx="1" ry="1" /></g>
<g transform="translate(35.144272 78.150322) rotate(111.305370) scale(13.502486 22.948026)"><ellipse fill="#e1e1e0" fill-opacity="0.501961" cx="0" cy="0" rx="1" ry="1" /></g>
<g transform="translate(1.263928 139.339616) rotate(47.076713) scale(32.802709 1.403429)"><ellipse fill="#000805" fill-opacity="0.501961" cx="0" cy="0" rx="1" ry="1" /></g>
<g transform="translate(26.172155 118.694327) rotate(343.578057) scale(16.542268 5.359585)"><ellipse fill="#ac3000" fill-opacity="0.501961" cx="0" cy="0" rx="1" ry="1" /></g>
<g transform="translate(32.642668 99.424520) rotate(303.099572) scale(6.863122 2.017973)"><ellipse fill="#cab994" fill-opacity="0.501961" cx="0" cy="0" rx="1" ry="1" /></g>
<g transform="translate(29.283891 119.680839) rotate(27.988382) scale(3.878402 25.083689)"><ellipse fill="#b03603" fill-opacity="0.501961" cx="0" cy="0" rx="1" ry="1" /></g>
<g transform="translate(255.000000 64.884913) rotate(6.921971) scale(33.429540 24.184098)"><ellipse fill="#e6e6e6" fill-opacity="0.501961" cx="0" cy="0" rx="1" ry="1" /></g>
<g transform="translate(96.617920 108.645533) rotate(176.513883) scale(1.000000 8.571849)"><ellipse fill="#d7b388" fill-opacity="0.501961" cx="0" cy="0" rx="1" ry="1" /></g>
<g transform="translate(73.189259 143.000000) rotate(229.504478) scale(29.163645 8.413001)"><ellipse fill="#b22e00" fill-opacity="0.501961" cx="0" cy="0" rx="1" ry="1" /></g>
<g transform="translate(153.258495 41.194937) rotate(29.470976) scale(87.441835 18.712353)"><ellipse fill="#e7e8e6" fill-opacity="0.501961" cx="0" cy="0" rx="1" ry="1" /></g>
<g transform="translate(92.472990 106.266629) rotate(95.483767) scale(7.166271 3.508683)"><ellipse fill="#e5dccc" fill-opacity="0.501961" cx="0" cy="0" rx="1" ry="1" /></g>
<g transform="translate(0.000000 114.207749) rotate(341.986548) scale(26.307973 1.000000)"><ellipse fill="#111611" fill-opacity="0.501961" cx="0" cy="0" rx="1" ry="1" /></g>
<g transform="translate(2.035261 105.299404) rotate(70.988673) scale(4.316385 30.163049)"><ellipse fill="#e0d7ca" fill-opacity="0.501961" cx="0" cy="0" rx="1" ry="1" /></g>
<g transform="translate(74.987606 120.446304) rotate(-6.392251) scale(1.000000 4.488560)"><ellipse fill="#d4ccb9" fill-opacity="0.501961" cx="0" cy="0" rx="1" ry="1" /></g>
<g transform="translate(86.575069 143.000000) rotate(142.690061) scale(2.105381 6.388928)"><ellipse fill="#b65f2f" fill-opacity="0.501961" cx="0" cy="0" rx="1" ry="1" /></g>
<g transform="translate(2.436117 118.895195) rotate(34.870517) scale(5.411835 10.796309)"><ellipse fill="#090e0b" fill-opacity="0.501961" cx="0" cy="0" rx="1" ry="1" /></g>
<g transform="translate(35.221267 122.531066) rotate(298.599898) scale(15.918281 6.273979)"><ellipse fill="#b53000" fill-opacity="0.501961" cx="0" cy="0" rx="1" ry="1" /></g>
<g transform="translate(143.354663 52.643867) rotate(11.948170) scale(100.361706 13.317992)"><ellipse fill="#e6e6e6" fill-opacity="0.501961" cx="0" cy="0" rx="1" ry="1" /></g>
<g transform="translate(50.479927 47.430106) rotate(281.200197) scale(51.514256 1.000000)"><ellipse fill="#e3e3e2" fill-opacity="0.501961" cx="0" cy="0" rx="1" ry="1" /></g>
<g transform="translate(22.859751 132.794233) rotate(201.256391) scale(1.355924 2.756545)"><ellipse fill="#bb4911" fill-opacity="0.501961" cx="0" cy="0" rx="1" ry="1" /></g>
<g transform="translate(93.579098 127.971849) rotate(362.736202) scale(9.198372 9.437834)"><ellipse fill="#060a08" fill-opacity="0.501961" cx="0" cy="0" rx="1" ry="1" /></g>
<g transform="translate(40.014711 91.729761) rotate(86.999447) scale(1.481326 26.127635)"><ellipse fill="#d9dcd9" fill-opacity="0.501961" cx="0" cy="0" rx="1" ry="1" /></g>
<g transform="translate(86.668083 87.554885) rotate(276.845050) scale(6.587917 31.473461)"><ellipse fill="#e1e2e2" fill-opacity="0.501961" cx="0" cy="0" rx="1" ry="1" /></g>
<g transform="translate(69.289609 99.671882) rotate(89.539185) scale(2.469047 16.317943)"><ellipse fill="#e6dccf" fill-opacity="0.501961" cx="0" cy="0" rx="1" ry="1" /></g>
<g transform="translate(40.930095 94.394057) rotate(34.707039) scale(1.000000 3.094580)"><ellipse fill="#d6d2c4" fill-opacity="0.501961" cx="0" cy="0" rx="1" ry="1" /></g>
<g transform="translate(83.957996 108.977034) rotate(10.155303) scale(2.247173 9.525805)"><ellipse fill="#e4dcce" fill-opacity="0.501961" cx="0" cy="0" rx="1" ry="1" /></g>
<g transform="translate(27.289550 98.647566) rotate(342.987456) scale(7.513431 3.536484)"><ellipse fill="#ded1c0" fill-opacity="0.501961" cx="0" cy="0" rx="1" ry="1" /></g>
<g transform="translate(45.501056 40.980265) rotate(56.836091) scale(45.569971 25.558682)"><ellipse fill="#e4e4e4" fill-opacity="0.501961" cx="0" cy="0" rx="1" ry="1" /></g>
<g transform="translate(86.845134 106.607646) rotate(174.021219) scale(6.044124 9.736436)"><ellipse fill="#e2dacc" fill-opacity="0.501961" cx="0" cy="0" rx="1" ry="1" /></g>
<g transform="translate(47.122944 106.297064) rotate(7.471269) scale(14.881760 1.000000)"><ellipse fill="#b84b17" fill-opacity="0.501961" cx="0" cy="0" rx="1" ry="1" /></g>
<g transform="translate(15.888700 113.237183) rotate(149.402325) scale(12.820113 1.000000)"><ellipse fill="#090c08" fill-opacity="0.501961" cx="0" cy="0" rx="1" ry="1" /></g>
<g transform="translate(79.744698 129.850938) rotate(76.104898) scale(4.826127 1.000000)"><ellipse fill="#95754d" fill-opacity="0.501961" cx="0" cy="0" rx="1" ry="1" /></g>
<g transform="translate(11.728049 138.545947) rotate(331.874874) scale(3.693393 13.784887)"><ellipse fill="#a72f00" fill-opacity="0.501961" cx="0" cy="0" rx="1" ry="1" /></g>
<g transform="translate(72.603591 105.252458) rotate(270.148030) scale(1.000000 14.498663)"><ellipse fill="#e8e2d7" fill-opacity="0.501961" cx="0" cy="0" rx="1" ry="1" /></g>
<g transform="translate(88.606004 137.910077) rotate(132.641057) scale(1.768387 9.126287)"><ellipse fill="#080b08" fill-opacity="0.501961" cx="0" cy="0" rx="1" ry="1" /></g>
<g transform="translate(81.354548 123.013708) rotate(40.322001) scale(1.335527 3.440533)"><ellipse fill="#a1794d" fill-opacity="0.501961" cx="0" cy="0" rx="1" ry="1" /></g>
<g transform="translate(108.969166 104.271262) rotate(137.687817) scale(7.470995 14.070790)"><ellipse fill="#dfe0e1" fill-opacity="0.501961" cx="0" cy="0" rx="1" ry="1" /></g>
<g transform="translate(55.355123 141.051863) rotate(107.843942) scale(28.591401 1.618880)"><ellipse fill="#af3203" fill-opacity="0.501961" cx="0" cy="0" rx="1" ry="1" /></g>
<g transform="translate(18.972649 115.543151) rotate(319.703548) scale(23.135077 1.000000)"><ellipse fill="#9d4a15" fill-opacity="0.501961" cx="0" cy="0" rx="1" ry="1" /></g>
<g transform="translate(0.067943 123.140533) rotate(148.939758) scale(31.224712 1.378339)"><ellipse fill="#090d09" fill-opacity="0.501961" cx="0" cy="0" rx="1" ry="1" /></g>
<g transform="translate(86.747496 107.953729) rotate(109.895008) scale(6.402884 9.479561)"><ellipse fill="#e3dccf" fill-opacity="0.501961" cx="0" cy="0" rx="1" ry="1" /></g>
<g transform="translate(70.852064 114.622148) rotate(52.179427) scale(2.549947 3.341819)"><ellipse fill="#e2ded5" fill-opacity="0.501961" cx="0" cy="0" rx="1" ry="1" /></g>
<g transform="translate(45.708468 105.674671) rotate(99.833651) scale(5.144013 1.000000)"><ellipse fill="#c1511d" fill-opacity="0.501961" cx="0" cy="0" rx="1" ry="1" /></g>
<g transform="translate(70.051072 108.284522) rotate(93.881964) scale(1.000000 11.567102)"><ellipse fill="#c9c2b2" fill-opacity="0.501961" cx="0" cy="0" rx="1" ry="1" /></g>
<g transform="translate(59.027640 140.221149) rotate(13.950594) scale(27.653174 8.235956)"><ellipse fill="#af2c00" fill-opacity="0.501961" cx="0" cy="0" rx="1" ry="1" /></g>
<g transform="translate(50.560198 102.928867) rotate(311.589768) scale(1.000000 8.301846)"><ellipse fill="#af3200" fill-opacity="0.501961" cx="0" cy="0" rx="1" ry="1" /></g>
<g transform="translate(24.483623 100.996012) rotate(326.731060) scale(1.000000 7.026434)"><ellipse fill="#d9d2bc" fill-opacity="0.501961" cx="0" cy="0" rx="1" ry="1" /></g>
<g transform="translate(100.955074 137.235335) rotate(37.410803) scale(21.782292 7.861726)"><ellipse fill="#070a09" fill-opacity="0.501961" cx="0" cy="0" rx="1" ry="1" /></g>
<g transform="translate(0.639619 120.625359) rotate(31.623261) scale(5.546957 11.581139)"><ellipse fill="#090e0a" fill-opacity="0.501961" cx="0" cy="0" rx="1" ry="1" /></g>
<g transform="translate(54.103638 107.010086) rotate(40.169185) scale(9.994442 1.000000)"><ellipse fill="#b33604" fill-opacity="0.501961" cx="0" cy="0" rx="1" ry="1" /></g>
<g transform="translate(26.406146 113.673265) rotate(312.869669) scale(15.607070 2.611322)"><ellipse fill="#ac3300" fill-opacity="0.501961" cx="0" cy="0" rx="1" ry="1" /></g>
<g transform="translate(172.598334 117.392161) rotate(36.073336) scale(19.361451 11.982477)"><ellipse fill="#e3e3e3" fill-opacity="0.501961" cx="0" cy="0" rx="1" ry="1" /></g>
<g transform="translate(46.427566 113.963882) rotate(13.383348) scale(8.118952 3.396884)"><ellipse fill="#ba3701" fill-opacity="0.501961" cx="0" cy="0" rx="1" ry="1" /></g>
<g transform="translate(1.250409 63.924409) rotate(45.116093) scale(30.787111 27.618559)"><ellipse fill="#e1e2e1" fill-opacity="0.501961" cx="0" cy="0" rx="1" ry="1" /></g>
<g transform="translate(102.893680 123.273035) rotate(284.293144) scale(3.227929 12.509061)"><ellipse fill="#0a100b" fill-opacity="0.501961" cx="0" cy="0" rx="1" ry="1" /></g>
<g transform="translate(92.212016 102.334204) rotate(22.949649) scale(2.985580 6.600176)"><ellipse fill="#e3daca" fill-opacity="0.501961" cx="0" cy="0" rx="1" ry="1" /></g>
<g transform="translate(90.032863 108.831946) rotate(60.883094) scale(9.122634 4.587034)"><ellipse fill="#e1d9ca" fill-opacity="0.501961" cx="0" cy="0" rx="1" ry="1" /></g>
<g transform="translate(68.295134 122.057971) rotate(155.297782) scale(1.341992 6.741795)"><ellipse fill="#b55622" fill-opacity="0.501961" cx="0" cy="0" rx="1" ry="1" /></g>
<g transform="translate(78.165927 126.986775) rotate(308.292456) scale(1.000000 3.915131)"><ellipse fill="#836a4a" fill-opacity="0.501961" cx="0" cy="0" rx="1" ry="1" /></g>
<g transform="translate(74.237318 120.530869) rotate(98.795068) scale(3.301401 2.888790)"><ellipse fill="#d3c9b5" fill-opacity="0.501961" cx="0" cy="0" rx="1" ry="1" /></g>
<g transform="translate(21.286023 137.557908) rotate(173.162929) scale(1.760917 4.807863)"><ellipse fill="#b83d07" fill-opacity="0.501961" cx="0" cy="0" rx="1" ry="1" /></g>
<g transform="translate(97.218947 113.769432) rotate(181.857574) scale(1.000000 4.604269)"><ellipse fill="#c4aa86" fill-opacity="0.501961" cx="0" cy="0" rx="1" ry="1" /></g>
<g transform="translate(8.575382 98.578653) rotate(174.518980) scale(32.854689 1.687184)"><ellipse fill="#e1d8c8" fill-opacity="0.501961" cx="0" cy="0" rx="1" ry="1" /></g>
<g transform="translate(7.601763 118.429201) rotate(235.222043) scale(2.625317 19.496261)"><ellipse fill="#070b08" fill-opacity="0.501961" cx="0" cy="0" rx="1" ry="1" /></g>
<g transform="translate(4.200372 132.878128) rotate(260.521650) scale(5.880799 1.000000)"><ellipse fill="#b44e11" fill-opacity="0.501961" cx="0" cy="0" rx="1" ry="1" /></g>
<g transform="translate(109.086193 102.975758) rotate(135.379666) scale(16.016974 3.283549)"><ellipse fill="#e1e0e0" fill-opacity="0.501961" cx="0" cy="0" rx="1" ry="1" /></g>
<g transform="translate(99.272546 143.000000) rotate(332.729338) scale(7.315704 29.306621)"><ellipse fill="#090c0a" fill-opacity="0.501961" cx="0" cy="0" rx="1" ry="1" /></g>
<g transform="translate(210.958728 142.200994) rotate(358.634910) scale(24.875532 4.567690)"><ellipse fill="#e6e6e6" fill-opacity="0.501961" cx="0" cy="0" rx="1" ry="1" /></g>
<g transform="translate(117.785376 113.702282) rotate(288.538869) scale(6.575940 19.238149)"><ellipse fill="#dfdfdf" fill-opacity="0.501961" cx="0" cy="0" rx="1" ry="1" /></g>
<g transform="translate(71.337523 132.337545) rotate(363.369423) scale(7.040999 3.791217)"><ellipse fill="#b33403" fill-opacity="0.501961" cx="0" cy="0" rx="1" ry="1" /></g>
<g transform="translate(81.638300 108.136497) rotate(42.902109) scale(1.000000 17.334683)"><ellipse fill="#e1dacc" fill-opacity="0.501961" cx="0" cy="0" rx="1" ry="1" /></g>
<g transform="translate(133.760000 140.014075) rotate(150.841712) scale(12.848218 11.550267)"><ellipse fill="#0b120f" fill-opacity="0.501961" cx="0" cy="0" rx="1" ry="1" /></g>
<g transform="translate(60.385594 81.169841) rotate(282.708561) scale(10.636183 34.882919)"><ellipse fill="#e2e2e2" fill-opacity="0.501961" cx="0" cy="0" rx="1" ry="1" /></g>
<g transform="translate(17.833049 103.734128) rotate(234.246840) scale(1.055609 8.195124)"><ellipse fill="#dbd0c0" fill-opacity="0.501961" cx="0" cy="0" rx="1" ry="1" /></g>
<g transform="translate(70.537945 115.599097) rotate(97.060397) scale(3.447332 2.895926)"><ellipse fill="#e0dacd" fill-opacity="0.501961" cx="0" cy="0" rx="1" ry="1" /></g>
<g transform="translate(54.699261 97.044138) rotate(297.621696) scale(2.529912 6.219472)"><ellipse fill="#e4d8c6" fill-opacity="0.501961" cx="0" cy="0" rx="1" ry="1" /></g>
<g transform="translate(2.020445 120.482635) rotate(18.974268) scale(3.232604 9.898088)"><ellipse fill="#090f0b" fill-opacity="0.501961" cx="0" cy="0" rx="1" ry="1" /></g>
<g transform="translate(16.708069 136.903529) rotate(357.253723) scale(2.953105 9.160777)"><ellipse fill="#ad3100" fill-opacity="0.501961" cx="0" cy="0" rx="1" ry="1" /></g>
<g transform="translate(68.124024 113.039087) rotate(116.008013) scale(1.000000 7.700195)"><ellipse fill="#e2dbcf" fill-opacity="0.501961" cx="0" cy="0" rx="1" ry="1" /></g>
<g transform="translate(57.992224 114.374795) rotate(210.253382) scale(5.511660 1.000000)"><ellipse fill="#c17a3e" fill-opacity="0.501961" cx="0" cy="0" rx="1" ry="1" /></g>
<g transform="translate(16.371031 120.807727) rotate(324.849591) scale(13.825409 2.384608)"><ellipse fill="#a83100" fill-opacity="0.501961" cx="0" cy="0" rx="1" ry="1" /></g>
<g transform="translate(54.202237 138.833937) rotate(295.101926) scale(21.529763 7.911628)"><ellipse fill="#b02e00" fill-opacity="0.501961" cx="0" cy="0" rx="1" ry="1" /></g>
<g transform="translate(55.812878 108.622408) rotate(224.279180) scale(17.352906 1.000000)"><ellipse fill="#ae3b0a" fill-opacity="0.501961" cx="0" cy="0" rx="1" ry="1" /></g>
<g transform="translate(47.152278 110.182716) rotate(228.151725) scale(1.000000 11.761166)"><ellipse fill="#ba3f0a" fill-opacity="0.501961" cx="0" cy="0" rx="1" ry="1" /></g>
<g transform="translate(117.986178 127.683333) rotate(93.864576) scale(4.939890 15.707044)"><ellipse fill="#0a100c" fill-opacity="0.501961" cx="0" cy="0" rx="1" ry="1" /></g>
<g transform="translate(27.813414 118.690078) rotate(308.141645) scale(10.028003 8.318311)"><ellipse fill="#af3100" fill-opacity="0.501961" cx="0" cy="0" rx="1" ry="1" /></g>
<g transform="translate(97.298043 97.044390) rotate(257.947831) scale(1.932475 1.000000)"><ellipse fill="#c4ad8b" fill-opacity="0.501961" cx="0" cy="0" rx="1" ry="1" /></g>
<g transform="translate(4.117286 100.718597) rotate(292.527281) scale(3.905243 14.736141)"><ellipse fill="#dfd7c8" fill-opacity="0.501961" cx="0" cy="0" rx="1" ry="1" /></g>
<g transform="translate(0.000000 132.110278) rotate(359.217517) scale(2.636120 2.569568)"><ellipse fill="#b28047" fill-opacity="0.501961" cx="0" cy="0" rx="1" ry="1" /></g>
<g transform="translate(76.397505 59.540745) rotate(24.607123) scale(16.901424 8.749562)"><ellipse fill="#e6e6e5" fill-opacity="0.501961" cx="0" cy="0" rx="1" ry="1" /></g>
<g transform="translate(1.764737 143.477208) rotate(332.404918) scale(2.653645 10.748382)"><ellipse fill="#030807" fill-opacity="0.501961" cx="0" cy="0" rx="1" ry="1" /></g>
<g transform="translate(151.268989 78.809764) rotate(270.020180) scale(25.483005 41.176154)"><ellipse fill="#e5e5e5" fill-opacity="0.501961" cx="0" cy="0" rx="1" ry="1" /></g>
<g transform="translate(191.502495 19.979177) rotate(117.930903) scale(10.338012 29.810453)"><ellipse fill="#e9eae8" fill-opacity="0.501961" cx="0" cy="0" rx="1" ry="1" /></g>
<g transform="translate(26.289246 101.191124) rotate(188.890957) scale(1.000000 4.658700)"><ellipse fill="#d9cebb" fill-opacity="0.501961" cx="0" cy="0" rx="1" ry="1" /></g>
<g transform="translate(35.093297 105.288328) rotate(226.497639) scale(1.000000 13.086765)"><ellipse fill="#ab3602" fill-opacity="0.501961" cx="0" cy="0" rx="1" ry="1" /></g>
<g transform="translate(75.885474 132.287333) rotate(318.911808) scale(1.000000 16.777838)"><ellipse fill="#be511a" fill-opacity="0.501961" cx="0" cy="0" rx="1" ry="1" /></g>
<g transform="translate(43.656631 119.378163) rotate(231.258068) scale(1.000000 17.014672)"><ellipse fill="#b73300" fill-opacity="0.501961" cx="0" cy="0" rx="1" ry="1" /></g>
<g transform="translate(71.964900 142.592533) rotate(69.720034) scale(17.880207 7.731400)"><ellipse fill="#b22f00" fill-opacity="0.501961" cx="0" cy="0" rx="1" ry="1" /></g>
<g transform="translate(152.583453 139.019272) rotate(165.726157) scale(1.486841 20.871190)"><ellipse fill="#dbdddc" fill-opacity="0.501961" cx="0" cy="0" rx="1" ry="1" /></g>
<g transform="translate(78.213597 113.194595) rotate(333.284240) scale(10.590054 3.783395)"><ellipse fill="#e1dbcf" fill-opacity="0.501961" cx="0" cy="0" rx="1" ry="1" /></g>
<g transform="translate(85.411968 91.669568) rotate(357.308251) scale(35.958476 1.000000)"><ellipse fill="#dfe0e0" fill-opacity="0.501961" cx="0" cy="0" rx="1" ry="1" /></g>
<g transform="translate(132.214831 139.210509) rotate(229.777970) scale(3.320892 18.924360)"><ellipse fill="#0c1310" fill-opacity="0.501961" cx="0" cy="0" rx="1" ry="1" /></g>
<g transform="translate(52.943064 143.000000) rotate(272.803252) scale(6.157334 14.669127)"><ellipse fill="#ac2b00" fill-opacity="0.501961" cx="0" cy="0" rx="1" ry="1" /></g>
<g transform="translate(66.876619 121.793808) rotate(231.195040) scale(6.456261 1.000000)"><ellipse fill="#b85722" fill-opacity="0.501961" cx="0" cy="0" rx="1" ry="1" /></g>
<g transform="translate(10.208189 114.076965) rotate(259.810545) scale(3.789760 7.681385)"><ellipse fill="#090d0b" fill-opacity="0.501961" cx="0" cy="0" rx="1" ry="1" /></g>
<g transform="translate(71.390074 97.875013) rotate(191.104903) scale(15.075123 1.000000)"><ellipse fill="#e5ddcf" fill-opacity="0.501961" cx="0" cy="0" rx="1" ry="1" /></g>
<g transform="translate(7.367471 119.081174) rotate(226.885940) scale(3.288118 8.107685)"><ellipse fill="#0b0e0a" fill-opacity="0.501961" cx="0" cy="0" rx="1" ry="1" /></g>
<g transform="translate(13.437723 86.713911) rotate(94.614086) scale(5.074679 40.551410)"><ellipse fill="#dfe0df" fill-opacity="0.501961" cx="0" cy="0" rx="1" ry="1" /></g>
<g transform="translate(68.350373 97.901588) rotate(271.650677) scale(2.883843 12.672294)"><ellipse fill="#e4dcce" fill-opacity="0.501961" cx="0" cy="0" rx="1" ry="1" /></g>
<g transform="translate(11.013226 133.164092) rotate(33.528258) scale(2.756267 4.635999)"><ellipse fill="#a52f01" fill-opacity="0.501961" cx="0" cy="0" rx="1" ry="1" /></g>
<g transform="translate(73.136928 119.946830) rotate(273.907364) scale(1.000000 1.994992)"><ellipse fill="#bcb8a8" fill-opacity="0.501961" cx="0" cy="0" rx="1" ry="1" /></g>
<g transform="translate(5.414852 131.805214) rotate(268.849592) scale(6.623438 1.377421)"><ellipse fill="#ab3e07" fill-opacity="0.501961" cx="0" cy="0" rx="1" ry="1" /></g>
<g transform="translate(0.000000 103.913884) rotate(331.879971) scale(14.709597 5.838862)"><ellipse fill="#e0d9cb" fill-opacity="0.501961" cx="0" cy="0" rx="1" ry="1" /></g>
<g transform="translate(112.450390 142.561859) rotate(186.230740) scale(22.063818 16.854412)"><ellipse fill="#080c0b" fill-opacity="0.501961" cx="0" cy="0" rx="1" ry="1" /></g>
<g transform="translate(34.519297 0.000000) rotate(228.907584) scale(35.403362 15.811391)"><ellipse fill="#e5e5e6" fill-opacity="0.501961" cx="0" cy="0" rx="1" ry="1" /></g>
<g transform="translate(142.128955 139.512733) rotate(138.546680) scale(7.685024 1.000783)"><ellipse fill="#141d19" fill-opacity="0.501961" cx="0" cy="0" rx="1" ry="1" /></g>
<g transform="translate(135.915820 143.000000) rotate(108.454469) scale(17.265149 7.178256)"><ellipse fill="#0a110e" fill-opacity="0.501961" cx="0" cy="0" rx="1" ry="1" /></g>
<g transform="translate(154.529223 125.451852) rotate(279.436089) scale(1.885302 22.519576)"><ellipse fill="#dfdfe0" fill-opacity="0.501961" cx="0" cy="0" rx="1" ry="1" /></g>
<g transform="translate(13.596470 140.795396) rotate(222.770464) scale(5.797279 2.201177)"><ellipse fill="#a52900" fill-opacity="0.501961" cx="0" cy="0" rx="1" ry="1" /></g>
<g transform="translate(65.981449 102.808734) rotate(274.584831) scale(1.000000 9.625051)"><ellipse fill="#cfcbbd" fill-opacity="0.501961" cx="0" cy="0" rx="1" ry="1" /></g>
<g transform="translate(50.320497 123.050565) rotate(305.973607) scale(4.468280 18.320642)"><ellipse fill="#b32f00" fill-opacity="0.501961" cx="0" cy="0" rx="1" ry="1" /></g>
<g transform="translate(47.144757 95.618520) rotate(45.222238) scale(3.001413 1.000000)"><ellipse fill="#cc9453" fill-opacity="0.501961" cx="0" cy="0" rx="1" ry="1" /></g>
<g transform="translate(90.050349 104.954283) rotate(310.516525) scale(7.475356 4.511805)"><ellipse fill="#e3dbcd" fill-opacity="0.501961" cx="0" cy="0" rx="1" ry="1" /></g>
<g transform="translate(129.761876 99.562669) rotate(218.835564) scale(22.767799 13.017225)"><ellipse fill="#e3e3e3" fill-opacity="0.501961" cx="0" cy="0" rx="1" ry="1" /></g>
<g transform="translate(83.228760 139.523380) rotate(215.565708) scale(7.653674 1.000000)"><ellipse fill="#bd5522" fill-opacity="0.501961" cx="0" cy="0" rx="1" ry="1" /></g>
<g transform="translate(122.778043 129.075078) rotate(206.187360) scale(12.563457 4.683053)"><ellipse fill="#0b100d" fill-opacity="0.501961" cx="0" cy="0" rx="1" ry="1" /></g>
<g transform="translate(230.889160 1.872305) rotate(358.574816) scale(32.002379 2.418071)"><ellipse fill="#eaeaed" fill-opacity="0.501961" cx="0" cy="0" rx="1" ry="1" /></g>
<g transform="translate(80.969866 104.567172) rotate(51.742321) scale(7.864612 4.617158)"><ellipse fill="#e5ddd2" fill-opacity="0.501961" cx="0" cy="0" rx="1" ry="1" /></g>
<g transform="translate(109.335130 104.596619) rotate(220.196903) scale(3.000922 16.678630)"><ellipse fill="#e0e1e1" fill-opacity="0.501961" cx="0" cy="0" rx="1" ry="1" /></g>
<g transform="translate(0.000000 126.626586) rotate(48.472884) scale(1.491766 10.590630)"><ellipse fill="#060906" fill-opacity="0.501961" cx="0" cy="0" rx="1" ry="1" /></g>
<g transform="translate(252.133975 136.984514) rotate(69.037742) scale(9.032882 21.270863)"><ellipse fill="#e4e5e4" fill-opacity="0.501961" cx="0" cy="0" rx="1" ry="1" /></g>
<g transform="translate(53.916343 120.211449) rotate(245.224087) scale(6.221774 2.323026)"><ellipse fill="#ba3803" fill-opacity="0.501961" cx="0" cy="0" rx="1" ry="1" /></g>
<g transform="translate(28.762426 101.407150) rotate(209.715719) scale(1.124725 4.981231)"><ellipse fill="#d3c8b1" fill-opacity="0.501961" cx="0" cy="0" rx="1" ry="1" /></g>
<g transform="translate(109.066147 111.165013) rotate(153.233341) scale(10.714652 6.457311)"><ellipse fill="#dfdfdf" fill-opacity="0.501961" cx="0" cy="0" rx="1" ry="1" /></g>
<g transform="translate(136.083357 116.261866) rotate(289.401571) scale(7.103706 22.650152)"><ellipse fill="#e0e0e0" fill-opacity="0.501961" cx="0" cy="0" rx="1" ry="1" /></g>
<g transform="translate(35.617910 96.940884) rotate(272.610797) scale(3.927338 1.000000)"><ellipse fill="#c3a984" fill-opacity="0.501961" cx="0" cy="0" rx="1" ry="1" /></g>
<g transform="translate(101.560668 135.639709) rotate(188.284260) scale(20.342965 4.185654)"><ellipse fill="#080b0a" fill-opacity="0.501961" cx="0" cy="0" rx="1" ry="1" /></g>
<g transform="translate(77.758765 104.827280) rotate(-17.682736) scale(7.475997 1.346051)"><ellipse fill="#e5ded1" fill-opacity="0.501961" cx="0" cy="0" rx="1" ry="1" /></g>
<g transform="translate(72.421535 105.346253) rotate(263.284573) scale(1.000000 11.552760)"><ellipse fill="#e4ded2" fill-opacity="0.501961" cx="0" cy="0" rx="1" ry="1" /></g>
<g transform="translate(81.179056 125.096069) rotate(114.487027) scale(7.342236 1.000000)"><ellipse fill="#8c6944" fill-opacity="0.501961" cx="0" cy="0" rx="1" ry="1" /></g>
<g transform="translate(63.834190 127.057538) rotate(70.615676) scale(6.023024 3.191347)"><ellipse fill="#ab2f00" fill-opacity="0.501961" cx="0" cy="0" rx="1" ry="1" /></g>
<g transform="translate(23.920107 125.589177) rotate(162.329364) scale(3.030132 5.554191)"><ellipse fill="#ae2d00" fill-opacity="0.501961" cx="0" cy="0" rx="1" ry="1" /></g>
<g transform="translate(139.677422 138.360762) rotate(86.715224) scale(12.631069 2.800683)"><ellipse fill="#0e1411" fill-opacity="0.501961" cx="0" cy="0" rx="1" ry="1" /></g>
<g transform="translate(26.131757 112.237289) rotate(144.836231) scale(15.542163 1.621688)"><ellipse fill="#ac3401" fill-opacity="0.501961" cx="0" cy="0" rx="1" ry="1" /></g>
<g transform="translate(45.872172 98.752193) rotate(370.930739) scale(2.633503 1.651658)"><ellipse fill="#b03500" fill-opacity="0.501961" cx="0" cy="0" rx="1" ry="1" /></g>
<g transform="translate(50.726332 91.771537) rotate(363.142817) scale(42.739565 1.000000)"><ellipse fill="#dddfdb" fill-opacity="0.501961" cx="0" cy="0" rx="1" ry="1" /></g>
<g transform="translate(30.918041 56.516037) rotate(305.176862) scale(12.059626 41.096194)"><ellipse fill="#e3e3e3" fill-opacity="0.501961" cx="0" cy="0" rx="1" ry="1" /></g>
<g transform="translate(0.000000 48.398429) rotate(57.176013) scale(29.977711 25.656087)"><ellipse fill="#e2e2e2" fill-opacity="0.501961" cx="0" cy="0" rx="1" ry="1" /></g>
<g transform="translate(62.541761 107.787712) rotate(5.141149) scale(2.868782 1.000000)"><ellipse fill="#c6bead" fill-opacity="0.501961" cx="0" cy="0" rx="1" ry="1" /></g>
<g transform="translate(95.820944 136.439673) rotate(93.696527) scale(19.257662 1.791114)"><ellipse fill="#0b0e0b" fill-opacity="0.501961" cx="0" cy="0" rx="1" ry="1" /></g>
<g transform="translate(17.330800 99.389400) rotate(345.517247) scale(8.912985 3.783133)"><ellipse fill="#e0d8ca" fill-opacity="0.501961" cx="0" cy="0" rx="1" ry="1" /></g>
<g transform="translate(87.764698 143.000000) rotate(324.678666) scale(1.000000 8.390115)"><ellipse fill="#a26035" fill-opacity="0.501961" cx="0" cy="0" rx="1" ry="1" /></g>
<g transform="translate(105.856015 103.145453) rotate(329.632362) scale(3.062903 21.161020)"><ellipse fill="#dfdfdf" fill-opacity="0.501961" cx="0" cy="0" rx="1" ry="1" /></g>
<g transform="translate(70.702576 99.614088) rotate(266.292086) scale(2.351774 11.455697)"><ellipse fill="#e4ddd2" fill-opacity="0.501961" cx="0" cy="0" rx="1" ry="1" /></g>
<g transform="translate(10.114500 112.747872) rotate(358.515454) scale(10.691387 1.264268)"><ellipse fill="#0a0f0c" fill-opacity="0.501961" cx="0" cy="0" rx="1" ry="1" /></g>
<g transform="translate(93.039318 128.190247) rotate(52.744412) scale(10.222990 9.342601)"><ellipse fill="#080b08" fill-opacity="0.501961" cx="0" cy="0" rx="1" ry="1" /></g>
<g transform="translate(114.875740 109.966786) rotate(209.550032) scale(5.581497 11.509744)"><ellipse fill="#dedfde" fill-opacity="0.501961" cx="0" cy="0" rx="1" ry="1" /></g>
<g transform="translate(145.714457 5.540746) rotate(296.240410) scale(13.614448 52.649714)"><ellipse fill="#e8e9e8" fill-opacity="0.501961" cx="0" cy="0" rx="1" ry="1" /></g>
<g transform="translate(31.656960 107.618487) rotate(131.269429) scale(10.274024 1.000000)"><ellipse fill="#ab3702" fill-opacity="0.501961" cx="0" cy="0" rx="1" ry="1" /></g>
<g transform="translate(35.873320 124.628955) rotate(110.570979) scale(8.703026 2.383813)"><ellipse fill="#b63400" fill-opacity="0.501961" cx="0" cy="0" rx="1" ry="1" /></g>
<g transform="translate(32.875291 102.267172) rotate(135.920450) scale(4.912553 1.000000)"><ellipse fill="#c29b6b" fill-opacity="0.501961" cx="0" cy="0" rx="1" ry="1" /></g>
<g transform="translate(11.288884 126.555283) rotate(127.384425) scale(1.000000 3.574375)"><ellipse fill="#b65e26" fill-opacity="0.501961" cx="0" cy="0" rx="1" ry="1" /></g>
<g transform="translate(68.338042 124.064947) rotate(333.089485) scale(1.000000 2.091866)"><ellipse fill="#c36e32" fill-opacity="0.501961" cx="0" cy="0" rx="1" ry="1" /></g>
<g transform="translate(80.498830 114.844829) rotate(317.758406) scale(1.000000 5.319257)"><ellipse fill="#dbd2c3" fill-opacity="0.501961" cx="0" cy="0" rx="1" ry="1" /></g>
<g transform="translate(106.011088 100.573218) rotate(160.304899) scale(7.754050 10.848267)"><ellipse fill="#e1e0e0" fill-opacity="0.501961" cx="0" cy="0" rx="1" ry="1" /></g>
<g transform="translate(79.333699 114.663985) rotate(344.785216) scale(6.730483 3.464444)"><ellipse fill="#dfd9cc" fill-opacity="0.501961" cx="0" cy="0" rx="1" ry="1" /></g>
<g transform="translate(24.965549 123.373594) rotate(350.897490) scale(18.627168 1.000000)"><ellipse fill="#ae3000" fill-opacity="0.501961" cx="0" cy="0" rx="1" ry="1" /></g>
<g transform="translate(15.159911 122.789769) rotate(146.361387) scale(13.154840 1.000000)"><ellipse fill="#a83100" fill-opacity="0.501961" cx="0" cy="0" rx="1" ry="1" /></g>
<g transform="translate(116.278481 137.747959) rotate(149.938152) scale(1.890202 21.167551)"><ellipse fill="#0a100d" fill-opacity="0.501961" cx="0" cy="0" rx="1" ry="1" /></g>
<g transform="translate(38.037255 94.616995) rotate(130.761142) scale(1.000000 1.000000)"><ellipse fill="#c9ac8b" fill-opacity="0.501961" cx="0" cy="0" rx="1" ry="1" /></g>
<g transform="translate(103.858281 105.451401) rotate(113.406426) scale(14.107165 1.000000)"><ellipse fill="#dedfdf" fill-opacity="0.501961" cx="0" cy="0" rx="1" ry="1" /></g>
<g transform="translate(248.945330 18.823414) rotate(143.500020) scale(47.617534 13.919964)"><ellipse fill="#e8e9e8" fill-opacity="0.501961" cx="0" cy="0" rx="1" ry="1" /></g>
<g transform="translate(0.400875 143.000000) rotate(115.763314) scale(3.238006 8.009450)"><ellipse fill="#040808" fill-opacity="0.501961" cx="0" cy="0" rx="1" ry="1" /></g>
<g transform="translate(89.148997 110.716156) rotate(137.534628) scale(1.000000 9.496212)"><ellipse fill="#e1d9ca" fill-opacity="0.501961" cx="0" cy="0" rx="1" ry="1" /></g>
<g transform="translate(2.533929 143.096911) rotate(146.229350) scale(3.116554 5.729229)"><ellipse fill="#060807" fill-opacity="0.501961" cx="0" cy="0" rx="1" ry="1" /></g>
<g transform="translate(86.041215 143.000000) rotate(239.899087) scale(4.514989 1.000000)"><ellipse fill="#b74c1b" fill-opacity="0.501961" cx="0" cy="0" rx="1" ry="1" /></g>
<g transform="translate(30.286659 100.504883) rotate(346.616816) scale(4.628892 1.772413)"><ellipse fill="#d5c7b1" fill-opacity="0.501961" cx="0" cy="0" rx="1" ry="1" /></g>
<g transform="translate(93.434317 101.225846) rotate(165.077173) scale(1.974785 5.450147)"><ellipse fill="#e3d6c6" fill-opacity="0.501961" cx="0" cy="0" rx="1" ry="1" /></g>
<g transform="translate(103.076072 122.497945) rotate(295.134778) scale(1.918380 7.111539)"><ellipse fill="#0a0f0c" fill-opacity="0.501961" cx="0" cy="0" rx="1" ry="1" /></g>
<g transform="translate(97.485587 143.000000) rotate(117.874947) scale(3.968357 10.429114)"><ellipse fill="#080b0a" fill-opacity="0.501961" cx="0" cy="0" rx="1" ry="1" /></g>
<g transform="translate(78.169200 143.455484) rotate(244.131615) scale(9.945937 4.257114)"><ellipse fill="#b53200" fill-opacity="0.501961" cx="0" cy="0" rx="1" ry="1" /></g>
<g transform="translate(47.190872 108.230593) rotate(296.781998) scale(10.149916 1.000000)"><ellipse fill="#ba3e08" fill-opacity="0.501961" cx="0" cy="0" rx="1" ry="1" /></g>
<g transform="translate(54.707935 113.440324) rotate(283.401856) scale(1.000000 1.000000)"><ellipse fill="#c27a3e" fill-opacity="0.501961" cx="0" cy="0" rx="1" ry="1" /></g>
<g transform="translate(11.898349 122.898931) rotate(233.557922) scale(1.000000 6.280355)"><ellipse fill="#a22e00" fill-opacity="0.501961" cx="0" cy="0" rx="1" ry="1" /></g>
<g transform="translate(54.750285 109.141072) rotate(317.576215) scale(1.000000 7.185601)"><ellipse fill="#b93d06" fill-opacity="0.501961" cx="0" cy="0" rx="1" ry="1" /></g>
<g transform="translate(55.412007 115.105805) rotate(67.869829) scale(1.875729 1.000000)"><ellipse fill="#c38548" fill-opacity="0.501961" cx="0" cy="0" rx="1" ry="1" /></g>
<g transform="translate(72.009254 103.310254) rotate(287.512049) scale(1.000000 2.958729)"><ellipse fill="#c9c4b4" fill-opacity="0.501961" cx="0" cy="0" rx="1" ry="1" /></g>
<g transform="translate(207.202238 142.485727) rotate(97.129294) scale(1.000000 61.570847)"><ellipse fill="#e1e2e2" fill-opacity="0.501961" cx="0" cy="0" rx="1" ry="1" /></g>
<g transform="translate(123.886297 112.738340) rotate(19.379016) scale(3.703836 10.036319)"><ellipse fill="#dedfdf" fill-opacity="0.501961" cx="0" cy="0" rx="1" ry="1" /></g>
</g>
</svg>