<svg height="576" width="1024" xmlns="http://www.w3.org/2000/svg"><path d="m0 0h1024v576h-1024z" fill="#d6cdc9"/><g fill-opacity=".501961"><ellipse fill="#190000" rx="1" ry="1" transform="matrix(11.94031272 -99.906866 426.36487852 50.95675796 215.551572 538.09832)"/><ellipse fill="#d50a00" rx="1" ry="1" transform="matrix(119.52405072 78.0266232 -72.81487672 111.54050576 164.740064 532.802224)"/><ellipse rx="1" ry="1" transform="matrix(-4.4697474 53.6197432 -157.12172096 -13.09768312 449.22646 539.101684)"/><ellipse fill="#f5feff" rx="1" ry="1" transform="matrix(-73.2184296 291.94049872 -989.3590354 -248.13040744 721.615584 234.333548)"/><ellipse fill="#9b2200" rx="1" ry="1" transform="matrix(209.8115432 66.8480554 -31.74617668 99.63961224 162.956936 557.651536)"/><ellipse fill="#ece9d3" rx="1" ry="1" transform="matrix(-36.46709632 18.65360632 -52.17563488 -102.001397 273.545456 407.51932)"/><ellipse rx="1" ry="1" transform="matrix(-108.95152408 53.48244952 -26.86311856 -54.72407744 483.671892 574)"/><ellipse fill="#eaeff1" rx="1" ry="1" transform="matrix(18.6452384 119.68157272 -114.98950708 17.91425968 702.01408 574)"/><ellipse fill="#000100" rx="1" ry="1" transform="matrix(64.44023428 -33.20821868 11.27616784 21.88129708 29.541204 468.631132)"/><ellipse fill="#be3600" rx="1" ry="1" transform="matrix(63.02711664 14.86323952 -31.21292992 132.35748296 160.689168 511.558768)"/><ellipse rx="1" ry="1" transform="matrix(38.28918208 -52.61623044 109.049001 79.35568588 445.429624 567.221948)"/><ellipse fill="#e1e4df" rx="1" ry="1" transform="matrix(-138.7690612 37.54806972 -28.44537604 -105.1275912 59.706312 325.934652)"/><ellipse fill="#ded6c8" rx="1" ry="1" transform="matrix(-103.35173984 -9.16158172 6.03041208 -68.02903704 323.316568 405.414156)"/><ellipse fill="#c64a00" rx="1" ry="1" transform="matrix(138.54158156 191.3023248 -27.01790036 19.56642528 300.222436 565.411744)"/><ellipse fill="#e3e2d4" rx="1" ry="1" transform="matrix(126.50172896 27.4913428 -2.44715416 11.26060792 362.56308 456.98906)"/><ellipse fill="#e2e3e3" rx="1" ry="1" transform="matrix(-46.53823892 -6.81150664 13.9258802 -95.14575496 638.171816 546.151108)"/><ellipse fill="#000305" rx="1" ry="1" transform="matrix(-81.42741212 40.118013 -7.2262366 -14.667071 16.02082 470.87192)"/><ellipse rx="1" ry="1" transform="matrix(-73.905318 -79.34445472 18.43377132 -17.17011904 2 574)"/><ellipse rx="1" ry="1" transform="matrix(-40.4107026 -40.15285264 29.83331808 -30.024899 384.918724 521.43968)"/><ellipse fill="#000d07" rx="1" ry="1" transform="matrix(-119.69840788 -5.918359 1.02901452 -20.81174828 477.232412 514.33878)"/><ellipse fill="#b33500" rx="1" ry="1" transform="matrix(97.283485 66.57211248 -72.14433324 105.42630992 159.540532 541.521124)"/><ellipse fill="#e2dfdc" rx="1" ry="1" transform="matrix(87.41901988 -87.47593056 78.37626568 78.32527512 15.629716 325.79994)"/><ellipse fill="#dbdbd8" rx="1" ry="1" transform="matrix(-.8062938 3.9178936 -385.12943932 -79.25878156 635.3022 517.08564)"/><ellipse fill="#000602" rx="1" ry="1" transform="matrix(26.61816544 20.50380744 -22.88032008 29.70336832 2 479.512868)"/><ellipse fill="#e0dbcf" rx="1" ry="1" transform="matrix(-10.09647308 74.65701948 -61.130566 -8.26718128 305.86876 409.626484)"/><ellipse fill="#090f03" rx="1" ry="1" transform="matrix(-17.97335708 -12.6887498 7.69214572 -10.8957686 352.313012 483.66614)"/><ellipse fill="#ab3800" rx="1" ry="1" transform="matrix(-17.771022 -20.93219824 94.85160424 -80.52713468 105.597304 471.375416)"/><ellipse fill="#be6027" rx="1" ry="1" transform="matrix(72.48485088 72.04972804 -9.510886 9.56832416 287.931648 511.544888)"/><ellipse fill="#dcd2b6" rx="1" ry="1" transform="matrix(-100.94035708 26.7756398 -4.97387332 -18.75079568 79.625288 402.826644)"/><ellipse fill="#eaeaec" rx="1" ry="1" transform="matrix(427.51248224 161.4627438 -89.93123476 238.11514964 745.800012 28.509372)"/><ellipse fill="#e3e4e5" rx="1" ry="1" transform="matrix(-6.6759726 220.20307636 -144.7256436 -4.38769724 734.832344 569.6345)"/><ellipse fill="#b22700" rx="1" ry="1" transform="matrix(96.73791032 53.48820972 -31.97684604 57.83280616 231.484472 555.967044)"/><ellipse fill="#af6e34" rx="1" ry="1" transform="matrix(19.8112362 -17.37947432 10.51766972 11.98931768 313.094564 508.899904)"/><ellipse fill="#c59764" rx="1" ry="1" transform="matrix(17.51947264 -32.36114344 6.6679824 3.60987044 241.273224 460.033412)"/><ellipse fill="#cfb89b" rx="1" ry="1" transform="matrix(.03608512 -3.99983724 368.81044756 3.32727592 44.043632 380.590944)"/><ellipse fill="#00170e" rx="1" ry="1" transform="matrix(-77.8333048 58.7038552 -4.77807832 -6.33508012 33.509888 483.180844)"/><ellipse fill="#e1e1e3" rx="1" ry="1" transform="matrix(72.28001472 -76.5520016 38.57488696 36.42221416 279.3834 322.031928)"/><ellipse fill="#03130e" rx="1" ry="1" transform="matrix(21.85178152 22.65351108 -65.40351236 63.08881908 526.975004 574)"/><ellipse fill="#d8bc99" rx="1" ry="1" transform="matrix(1.25096028 47.24300464 -9.30411876 .24636628 385.727408 418.508364)"/><ellipse rx="1" ry="1" transform="matrix(137.27123824 166.95975168 -17.36594156 14.27795788 2 574)"/><ellipse fill="#050c0a" rx="1" ry="1" transform="matrix(-48.12330972 58.98527412 -72.64902364 -59.27092004 450.159408 567.276428)"/><ellipse fill="#ddd4c3" rx="1" ry="1" transform="matrix(55.62320388 37.7654398 -12.98839364 19.13008484 280.448688 439.730564)"/><ellipse fill="#e0e1e2" rx="1" ry="1" transform="matrix(-166.19621184 29.01166612 -14.01265496 -80.27288616 558.99548 407.038012)"/><ellipse fill="#e2e2e5" rx="1" ry="1" transform="matrix(-370.7404898 -49.23204368 13.6575042 -102.84744284 105.413556 264.40602)"/><ellipse fill="#e1e1e0" rx="1" ry="1" transform="matrix(79.19578692 -64.11826804 50.78235852 62.7239158 685.394828 514.842388)"/><ellipse fill="#00130e" rx="1" ry="1" transform="matrix(2.37936492 11.42500316 -100.86785308 21.00668404 7.722684 457.046504)"/><ellipse fill="#080d08" rx="1" ry="1" transform="matrix(31.55521164 -10.97127904 18.67923904 53.72457848 366.742036 523.945896)"/><ellipse fill="#dcd6c4" rx="1" ry="1" transform="matrix(4.851498 24.5635302 -94.90010608 18.74354664 30.536152 415.022504)"/><ellipse fill="#e2ddd3" rx="1" ry="1" transform="matrix(-1.0747116 5.9415002 -125.86900248 -22.7674616 372.466468 462.907172)"/><ellipse fill="#ad3802" rx="1" ry="1" transform="matrix(-59.15204772 39.1858292 -13.72374244 -20.71635292 70.396328 496.77424)"/><ellipse fill="#dbd3c0" rx="1" ry="1" transform="matrix(7.20513496 -3.18054936 20.86782904 47.2734446 283.170844 464.044216)"/><ellipse fill="#b23100" rx="1" ry="1" transform="matrix(5.28780392 -91.10137684 149.83788244 8.69705124 185.447408 567.325064)"/><ellipse fill="#a86237" rx="1" ry="1" transform="matrix(-65.43952644 -76.34385072 4.14588988 -3.55372524 334.945192 551.604808)"/><ellipse fill="#b24914" rx="1" ry="1" transform="matrix(102.65782932 117.8707488 -3.01637444 2.6270678 278.777164 494.243156)"/><ellipse fill="#e6e6e7" rx="1" ry="1" transform="matrix(84.70721776 -125.52917904 665.52032768 449.09379444 885.820596 455.901456)"/><ellipse fill="#c07c3d" rx="1" ry="1" transform="matrix(10.542531 3.76021064 -1.34376744 3.76753092 59.478036 514.800776)"/><ellipse fill="#d3ceb6" rx="1" ry="1" transform="matrix(17.1980624 22.57628712 -17.48390228 13.3188084 105.013448 401.679368)"/><ellipse fill="#e2e1e2" rx="1" ry="1" transform="matrix(37.10766876 -74.95916628 82.51986804 40.8505068 547.988032 416.856272)"/><ellipse fill="#ac3600" rx="1" ry="1" transform="matrix(46.74432644 -51.52560264 6.9675052 6.32096124 141.388036 429.7512)"/><ellipse fill="#c25119" rx="1" ry="1" transform="matrix(8.23541832 -11.72466904 31.13151724 21.86680636 195.767832 446.636692)"/><ellipse fill="#090d0b" rx="1" ry="1" transform="matrix(-1.11834912 -46.65813508 80.41708296 -1.92751756 410.697528 527.462164)"/><ellipse fill="#c89e5d" rx="1" ry="1" transform="matrix(-5.28806264 -11.85768768 7.37493072 -3.28892924 229.304964 469.659544)"/><ellipse fill="#d2bfa5" rx="1" ry="1" transform="matrix(.06069052 -3.99953956 129.22986252 1.96098256 257.48486 380.422404)"/><ellipse fill="#08110d" rx="1" ry="1" transform="matrix(-38.3801194 -11.43982572 17.53153272 -58.81753232 545.888088 570.530744)"/><ellipse fill="#af3a06" rx="1" ry="1" transform="matrix(45.56173696 35.57587388 -2.85756204 3.65965684 221.639024 436.59354)"/><ellipse fill="#e2e2e3" rx="1" ry="1" transform="matrix(-92.1282052 -188.58473624 157.47814076 -76.93188092 2 165.29646)"/><ellipse fill="#dcb966" rx="1" ry="1" transform="matrix(3.94618728 -.6539158 1.30099428 7.85111324 5.439656 528.806072)"/><ellipse fill="#050f0d" rx="1" ry="1" transform="matrix(38.88677516 -22.47504824 8.89977496 15.39856752 37.257092 460.874656)"/><ellipse fill="#0f1310" rx="1" ry="1" transform="matrix(107.42956396 -23.10680936 1.30796356 6.08106268 490.872632 532.877044)"/><ellipse fill="#111a11" rx="1" ry="1" transform="matrix(1.7337484 7.74241636 -79.50079528 17.80250128 28.632584 448.869376)"/><ellipse fill="#e3dbcd" rx="1" ry="1" transform="matrix(10.7071394 23.73530732 -56.81528452 25.62971536 324.567492 440.779684)"/><ellipse fill="#e4e4e4" rx="1" ry="1" transform="matrix(157.46066216 -5.40695364 2.09734984 61.07877276 428.022196 321.943712)"/><ellipse fill="#9b7747" rx="1" ry="1" transform="matrix(-3.58884832 -2.66949712 13.64563432 -18.3450702 324.667348 494.868192)"/><ellipse fill="#050c08" rx="1" ry="1" transform="matrix(-45.14351476 39.608476 -6.11822076 -6.97320416 16.081776 495.64428)"/><ellipse fill="#9f8159" rx="1" ry="1" transform="matrix(5.6046206 -15.71578808 15.63970168 5.5774864 320.030248 501.024688)"/><ellipse fill="#e4dacd" rx="1" ry="1" transform="matrix(80.21201496 -21.26010044 6.23298476 23.51636432 14.304556 413.881204)"/><ellipse fill="#dedfdf" rx="1" ry="1" transform="matrix(86.6738472 -22.01931936 9.29696004 36.59528624 486.978524 440.217724)"/><ellipse fill="#dbd2c0" rx="1" ry="1" transform="matrix(-9.76720832 18.206353 -55.15181596 -29.58743436 254.556416 405.828828)"/><ellipse fill="#b67e3c" rx="1" ry="1" transform="matrix(3.60228868 15.64240476 -3.89797372 .8976642 11.65292 532.364436)"/><ellipse fill="#ae2c00" rx="1" ry="1" transform="matrix(-43.47907324 87.64764108 -41.85626848 -20.76349964 212.437896 570.172868)"/><ellipse fill="#000203" rx="1" ry="1" transform="matrix(-6.41490192 4.24362936 -37.93148692 -57.3393072 12.245716 574)"/><ellipse fill="#080c0b" rx="1" ry="1" transform="matrix(124.06583132 16.327642 -3.69680944 28.0902616 453.410132 549.89404)"/><ellipse fill="#97683e" rx="1" ry="1" transform="matrix(6.95453272 8.50012148 -10.49236548 8.58452424 319.46996 521.206428)"/><ellipse fill="#cbbba8" rx="1" ry="1" transform="matrix(-144.89459576 -4.09873304 .11310552 -3.99840056 13.464536 376.387828)"/><ellipse fill="#eaebec" rx="1" ry="1" transform="matrix(.4581188 -94.25273064 222.32039788 1.08059628 814.125916 2)"/><ellipse fill="#c4a37f" rx="1" ry="1" transform="matrix(6.53616016 -12.52027952 3.54589324 1.85111888 147.430884 384.70082)"/><ellipse fill="#b03500" rx="1" ry="1" transform="matrix(7.25218568 -5.56147896 18.74254364 24.44033456 205.411096 417.706028)"/><ellipse fill="#c69053" rx="1" ry="1" transform="matrix(3.64120996 -1.65577476 7.87258468 17.31258064 229.351908 469.24888)"/><ellipse fill="#a63400" rx="1" ry="1" transform="matrix(33.10804184 54.59237228 -12.7129994 7.70991436 50.439948 574)"/><ellipse fill="#c0541e" rx="1" ry="1" transform="matrix(102.80688212 115.76746208 -2.99088808 2.65604752 343.586224 574)"/><ellipse fill="#b33100" rx="1" ry="1" transform="matrix(64.25748792 -6.96153856 5.22341752 48.21400968 142.484616 475.611992)"/><ellipse fill="#dddedd" rx="1" ry="1" transform="matrix(-4.27832356 27.33920244 -69.70197944 -10.90769276 573.96394 478.016984)"/><ellipse fill="#0a100d" rx="1" ry="1" transform="matrix(-3.14545156 -38.69851784 77.53649572 -6.30223852 504.742452 538.42708)"/><ellipse fill="#0b110e" rx="1" ry="1" transform="matrix(30.70074152 28.4486188 -58.03850412 62.63309744 519.65408 574)"/><ellipse fill="#e4e4e4" rx="1" ry="1" transform="matrix(-63.73629756 33.66662188 -170.55166068 -322.88156008 775.979616 574)"/><ellipse fill="#0a0d0a" rx="1" ry="1" transform="matrix(36.0835192 25.75188832 -10.71643456 15.015857 375.681604 498.155264)"/><ellipse fill="#dbcab2" rx="1" ry="1" transform="matrix(-2.64698292 -14.85947792 20.39793548 -3.63357228 380.320508 457.062436)"/><ellipse fill="#c7c1b1" rx="1" ry="1" transform="matrix(.11890788 -3.99823224 34.38382556 1.02257896 292.90642 437.662612)"/><ellipse fill="#dedfde" rx="1" ry="1" transform="matrix(22.77476832 -94.17366796 41.56910324 10.05298736 635.261488 555.52648)"/><ellipse fill="#c7baa5" rx="1" ry="1" transform="matrix(-35.9637012 -1.31175556 .14580076 -3.99734188 248.781816 414.337024)"/><ellipse fill="#d2b38c" rx="1" ry="1" transform="matrix(3.99998492 -.01098312 .07422176 27.03107812 388.98066 403.645616)"/><ellipse fill="#d3c0a1" rx="1" ry="1" transform="matrix(20.57226516 -17.65798056 2.60525804 3.03523152 325.25824 478.31292)"/><ellipse fill="#b94710" rx="1" ry="1" transform="matrix(12.01439292 -41.65498784 14.7138486 4.24386052 173.483792 420.100428)"/><ellipse fill="#070d0a" rx="1" ry="1" transform="matrix(-66.99033236 55.35798076 -2.54802208 -3.08343696 40.536512 477.129788)"/><ellipse fill="#e0e0e1" rx="1" ry="1" transform="matrix(20.2559624 17.066531 -43.6143484 51.76509516 442.94962 421.95566)"/><ellipse fill="#080c0a" rx="1" ry="1" transform="matrix(29.61364084 -15.38089148 16.5148532 31.79691712 411.19482 513.5227)"/><ellipse fill="#dbd6c7" rx="1" ry="1" transform="matrix(.686509 -12.98822952 80.00621796 4.22882796 18.594884 417.010892)"/><ellipse fill="#c07c40" rx="1" ry="1" transform="matrix(17.30346188 9.94730388 -1.99355512 3.46781456 239.837224 462.294092)"/><ellipse fill="#e3e3e3" rx="1" ry="1" transform="matrix(169.84160768 85.36837608 -12.5154318 24.89963092 474.213604 397.152944)"/><ellipse fill="#aa3402" rx="1" ry="1" transform="matrix(33.82456096 -46.39176368 13.87854068 10.11894156 117.764252 456.265332)"/><ellipse fill="#090f0c" rx="1" ry="1" transform="matrix(-7.4207142 31.52479472 -80.18470648 -18.874914 482.949464 526.16694)"/><ellipse fill="#b13603" rx="1" ry="1" transform="matrix(3.8862886 -.9469746 14.93052396 61.27337144 157.909552 455.907336)"/><ellipse fill="#e1e1e0" rx="1" ry="1" transform="matrix(-19.6238948 50.318752 -85.5187726 -33.35161004 142.577088 314.601288)"/><ellipse fill="#000805" rx="1" ry="1" transform="matrix(89.35701244 96.08125628 -4.11073432 3.82304468 7.055712 559.358464)"/><ellipse fill="#ac3000" rx="1" ry="1" transform="matrix(63.46975592 -18.70658104 6.06080804 20.56377952 106.68862 476.777308)"/><ellipse fill="#cab994" rx="1" ry="1" transform="matrix(14.99168572 -22.997575 6.76200792 4.40802552 132.570672 399.69808)"/><ellipse fill="#b03603" rx="1" ry="1" transform="matrix(13.6991794 7.28042012 -47.08635008 88.59988092 119.135564 480.723356)"/><ellipse fill="#e6e6e6" rx="1" ry="1" transform="matrix(132.74351516 16.11538088 -11.65842996 96.03129984 1022 261.539652)"/><ellipse fill="#d7b388" rx="1" ry="1" transform="matrix(-3.99259824 .24322676 -2.08490292 -34.22394928 388.47168 436.582132)"/><ellipse fill="#b22e00" rx="1" ry="1" transform="matrix(-75.75415628 -88.71075944 25.59089264 -21.85322832 294.757036 574)"/><ellipse fill="#e7e8e6" rx="1" ry="1" transform="matrix(304.509205 172.07944736 -36.82460876 65.16427448 615.03398 166.779748)"/><ellipse fill="#e5dccc" rx="1" ry="1" transform="matrix(-2.73934244 28.53389288 -13.97049944 -1.3412114 371.89196 427.066516)"/><ellipse fill="#111611" rx="1" ry="1" transform="matrix(100.07383912 -32.5419394 1.23696112 3.80393576 2 458.830996)"/><ellipse fill="#e0d7ca" rx="1" ry="1" transform="matrix(5.6243372 16.3237772 -114.07112476 39.30306468 10.141044 423.197616)"/><ellipse fill="#d4ccb9" rx="1" ry="1" transform="matrix(3.97513196 -.44533812 1.99892684 17.84261824 301.950424 483.785216)"/><ellipse fill="#b65f2f" rx="1" ry="1" transform="matrix(-6.69821364 5.10450788 -15.4899912 -20.32620448 348.300276 574)"/><ellipse fill="#090e0b" rx="1" ry="1" transform="matrix(17.7604774 12.3762988 -24.69002584 35.43116188 11.744468 477.58078)"/><ellipse fill="#b53000" rx="1" ry="1" transform="matrix(30.47970652 -55.90397312 22.0338084 12.01317144 142.885068 492.124264)"/><ellipse fill="#e6e6e6" rx="1" ry="1" transform="matrix(392.74959028 83.11023908 -11.02872344 52.11784564 575.418652 212.575468)"/><ellipse fill="#e3e3e2" rx="1" ry="1" transform="matrix(40.02404736 -202.13256236 3.92381796 .77695088 203.919708 191.720424)"/><ellipse fill="#bb4911" rx="1" ry="1" transform="matrix(-5.05470804 -1.96631756 3.99745332 -10.27604072 93.439004 533.176932)"/><ellipse fill="#060a08" rx="1" ry="1" transform="matrix(36.75154016 1.75643224 -1.80215756 37.70829616 376.316392 513.887396)"/><ellipse fill="#d9dcd9" rx="1" ry="1" transform="matrix(.31016356 5.9171806 -104.36725916 5.47066636 162.058844 368.919044)"/><ellipse fill="#e1e2e2" rx="1" ry="1" transform="matrix(3.14071488 -26.16383604 124.99648572 15.00461644 348.672332 352.21954)"/><ellipse fill="#e6dccf" rx="1" ry="1" transform="matrix(.07943076 9.87586856 -65.26966092 .52495816 279.158436 400.687528)"/><ellipse fill="#d6d2c4" rx="1" ry="1" transform="matrix(3.2882964 2.27752208 -7.04797432 10.17589624 165.72038 379.576228)"/><ellipse fill="#e4dcce" rx="1" ry="1" transform="matrix(8.84787024 1.58485836 -6.71824184 37.50627416 337.831984 437.908136)"/><ellipse fill="#ded1c0" rx="1" ry="1" transform="matrix(28.73859476 -8.7931506 4.13883304 13.52692008 111.1582 396.590264)"/><ellipse fill="#e4e4e4" rx="1" ry="1" transform="matrix(99.71366436 152.58814256 -85.58161716 55.92607988 184.004224 165.92106)"/><ellipse fill="#e2dacc" rx="1" ry="1" transform="matrix(-24.04498888 2.51822728 -4.05659428 -38.73390012 349.380536 428.430584)"/><ellipse fill="#b84b17" rx="1" ry="1" transform="matrix(59.02166668 7.7402424 -.52011608 3.96604076 190.491776 427.188256)"/><ellipse fill="#090c08" rx="1" ry="1" transform="matrix(-44.14029944 26.10208276 -2.03602596 -3.44305072 65.5548 454.948732)"/><ellipse fill="#95754d" rx="1" ry="1" transform="matrix(4.6358822 18.73960044 -3.88294804 .96058024 320.978792 521.403752)"/><ellipse fill="#a72f00" rx="1" ry="1" transform="matrix(13.029112 -6.96424228 25.99270992 48.62868272 48.912196 556.183788)"/><ellipse fill="#e8e2d7" rx="1" ry="1" transform="matrix(.01033444 -3.99998664 57.99445844 .14983544 292.414364 423.009832)"/><ellipse fill="#080b08" rx="1" ry="1" transform="matrix(-4.79164452 5.2033858 -26.85361992 -24.72870656 356.424016 553.640308)"/><ellipse fill="#a1794d" rx="1" ry="1" transform="matrix(4.07292952 3.45678508 -8.905236 10.49252348 327.418192 494.054832)"/><ellipse fill="#dfe0e1" rx="1" ry="1" transform="matrix(-22.0988438 20.11699192 -37.8881218 -41.62071992 437.876664 419.085048)"/><ellipse fill="#af3203" rx="1" ry="1" transform="matrix(-35.04452984 108.86400832 -6.16401296 -1.98426404 223.420492 566.207452)"/><ellipse fill="#9d4a15" rx="1" ry="1" transform="matrix(70.58126844 -59.84975484 2.5869702 3.05083352 77.890596 464.172604)"/><ellipse fill="#090d09" rx="1" ry="1" transform="matrix(-106.99151376 64.440191 -2.84455556 -4.72288028 2.271772 494.562132)"/><ellipse fill="#e3dccf" rx="1" ry="1" transform="matrix(-8.71554488 24.08298268 -35.655199 -12.90348836 348.989984 433.814916)"/><ellipse fill="#e2ded5" rx="1" ry="1" transform="matrix(6.25441548 8.0571684 -10.55927764 8.19668976 285.408256 460.488592)"/><ellipse fill="#c1511d" rx="1" ry="1" transform="matrix(-3.51414732 20.27374372 -3.94123104 -.68315288 184.833872 424.698684)"/><ellipse fill="#c9c2b2" rx="1" ry="1" transform="matrix(-.27080492 3.99082256 -46.1622516 -3.13242808 282.204288 435.138088)"/><ellipse fill="#af2c00" rx="1" ry="1" transform="matrix(107.35006104 26.66707536 -7.94226584 31.97211212 238.11056 562.884596)"/><ellipse fill="#af3200" rx="1" ry="1" transform="matrix(2.65517064 -2.99166656 24.8363552 22.04281772 204.240792 413.715468)"/><ellipse fill="#d9d2bc" rx="1" ry="1" transform="matrix(3.34441944 -2.1942786 15.41795368 23.49934256 99.934492 405.984048)"/><ellipse fill="#070a09" rx="1" ry="1" transform="matrix(69.20670572 52.93320128 -19.10479968 24.9782786 405.820296 550.94134)"/><ellipse fill="#090e0a" rx="1" ry="1" transform="matrix(18.8932492 11.6337804 -24.28943076 39.44601428 4.558476 484.501436)"/><ellipse fill="#b33604" rx="1" ry="1" transform="matrix(30.548734 25.7875316 -2.58018724 3.05657224 218.414552 430.040344)"/><ellipse fill="#ac3300" rx="1" ry="1" transform="matrix(42.47201796 -45.75388328 7.65538452 7.10627396 107.624584 456.69306)"/><ellipse fill="#e3e3e3" rx="1" ry="1" transform="matrix(62.5966548 45.60165964 -28.22210164 38.74001884 692.393336 471.568644)"/><ellipse fill="#ba3701" rx="1" ry="1" transform="matrix(31.59386868 7.51701852 -3.1450414 13.21854188 187.710264 457.855528)"/><ellipse fill="#e1e2e1" rx="1" ry="1" transform="matrix(86.90248108 87.25536108 -78.2752022 77.95863996 7.001636 257.697636)"/><ellipse fill="#0a100b" rx="1" ry="1" transform="matrix(3.18768392 -12.51203744 48.48738608 12.35310096 413.57472 495.09214)"/><ellipse fill="#e3daca" rx="1" ry="1" transform="matrix(10.99705992 4.65657384 -10.29421652 24.311032 370.848064 411.336816)"/><ellipse fill="#e1d9ca" rx="1" ry="1" transform="matrix(17.75604592 31.87917896 -16.02945792 8.92807784 362.131452 437.327784)"/><ellipse fill="#b55622" rx="1" ry="1" transform="matrix(-4.876756 2.24328588 -11.269645 -24.49946732 275.180536 490.231884)"/><ellipse fill="#836a4a" rx="1" ry="1" transform="matrix(2.4787028 -3.13943188 12.29128704 9.70444612 314.663708 509.9471)"/><ellipse fill="#d3c9b5" rx="1" ry="1" transform="matrix(-2.019147 13.05032652 -11.4192892 -1.76679284 298.949272 484.123476)"/><ellipse fill="#b83d07" rx="1" ry="1" transform="matrix(-6.99357832 .83852332 -2.2894352 -19.0946912 87.144092 552.231632)"/><ellipse fill="#c4aa86" rx="1" ry="1" transform="matrix(-3.99789796 -.1296604 .5969914 -18.40739768 390.875788 457.077728)"/><ellipse fill="#e1d8c8" rx="1" ry="1" transform="matrix(-130.81789552 12.55259508 -.64461232 -6.71788008 36.301528 396.314612)"/><ellipse fill="#070b08" rx="1" ry="1" transform="matrix(-5.98989816 -8.625413 64.05447536 -44.48248276 32.407052 475.716804)"/><ellipse fill="#b44e11" rx="1" ry="1" transform="matrix(-3.87368024 -23.20205488 3.9453916 -.65869964 18.801488 533.512512)"/><ellipse fill="#e1e0e0" rx="1" ry="1" transform="matrix(-45.60204268 45.00165556 -9.2255342 -9.34861612 438.344772 413.903032)"/><ellipse fill="#090c0a" rx="1" ry="1" transform="matrix(26.01031152 -13.40806084 53.7125282 104.19699068 399.090184 574)"/><ellipse fill="#e6e6e6" rx="1" ry="1" transform="matrix(99.47388836 -2.37044528 .43526544 18.2655746 845.834912 570.803976)"/><ellipse fill="#dfdfdf" rx="1" ry="1" transform="matrix(8.36322576 -24.93881004 72.95938576 24.46691772 473.141504 456.809128)"/><ellipse fill="#b33403" rx="1" ry="1" transform="matrix(28.11530992 1.65530044 -.8912944 15.13865304 287.350092 531.35018)"/><ellipse fill="#e1dacc" rx="1" ry="1" transform="matrix(2.93007136 2.72299132 -47.20219152 50.79185832 328.5532 434.545988)"/><ellipse fill="#0b120f" rx="1" ry="1" transform="matrix(-44.88021376 25.03984232 -22.51027064 -40.34633068 537.04 562.0563)"/><ellipse fill="#e2e2e2" rx="1" ry="1" transform="matrix(9.35949916 -41.50245772 136.11338492 30.69584744 243.542376 326.679364)"/><ellipse fill="#dbd0c0" rx="1" ry="1" transform="matrix(-2.4671458 -3.42668312 26.60274136 -19.15346108 73.332196 416.936512)"/><ellipse fill="#e0dacd" rx="1" ry="1" transform="matrix(-1.69492276 13.6847654 -11.49586632 -1.42381728 284.15178 464.396388)"/><ellipse fill="#e4d8c6" rx="1" ry="1" transform="matrix(4.69178836 -8.96629228 22.04250736 11.53417448 220.797044 390.176552)"/><ellipse fill="#090f0b" rx="1" ry="1" transform="matrix(12.22783792 4.20424048 -12.87319516 37.44108948 10.08178 483.93054)"/><ellipse fill="#ad3100" rx="1" ry="1" transform="matrix(11.79885344 -.56597112 1.75568948 36.60102348 68.832276 549.614116)"/><ellipse fill="#e2dbcf" rx="1" ry="1" transform="matrix(-1.75398736 3.59493092 -27.68166908 -13.50604476 274.496096 454.156348)"/><ellipse fill="#c17a3e" rx="1" ry="1" transform="matrix(-19.0440148 -11.10764764 2.01529988 -3.45522308 233.968896 459.49918)"/><ellipse fill="#a83100" rx="1" ry="1" transform="matrix(45.21702372 -31.83852552 5.49151224 7.799037 67.484124 485.230908)"/><ellipse fill="#b02e00" rx="1" ry="1" transform="matrix(36.53427364 -77.98549844 28.6576426 13.42539544 218.808948 557.335748)"/><ellipse fill="#ae3b0a" rx="1" ry="1" transform="matrix(-49.69500752 -48.46008432 2.79262068 -2.86378588 225.251512 436.489632)"/><ellipse fill="#ba3f0a" rx="1" ry="1" transform="matrix(-2.66864136 -2.97965656 35.04423556 -31.38633404 190.609112 442.730864)"/><ellipse fill="#0a100c" rx="1" ry="1" transform="matrix(-1.3317636 19.71462952 -62.68531352 -4.23452132 473.944712 512.733332)"/><ellipse fill="#af3100" rx="1" ry="1" transform="matrix(24.77348708 -31.54754896 26.16895144 20.54981136 113.253656 476.760312)"/><ellipse fill="#c4ad8b" rx="1" ry="1" transform="matrix(-1.61402036 -7.55951668 3.91183156 -.83520892 391.192172 390.17756)"/><ellipse fill="#dfd7c8" rx="1" ry="1" transform="matrix(5.98475816 -14.42904836 54.44692964 22.58303516 18.469144 404.874388)"/><ellipse fill="#b28047" rx="1" ry="1" transform="matrix(10.54349668 -.14400048 .140365 10.27731352 2 530.441112)"/><ellipse fill="#e6e6e5" rx="1" ry="1" transform="matrix(61.46604076 28.15059436 -14.57305436 31.81985936 307.59002 240.16298)"/><ellipse fill="#030807" rx="1" ry="1" transform="matrix(9.40710088 -4.9168854 19.91546056 38.102728 9.058948 575.908832)"/><ellipse fill="#e5e5e5" rx="1" ry="1" transform="matrix(.0359012 -101.93201368 164.7046058 .0580102 607.075956 317.239056)"/><ellipse fill="#e9eae8" rx="1" ry="1" transform="matrix(-19.36956448 36.53507692 -105.35170528 -55.85362948 768.00998 81.916708)"/><ellipse fill="#d9cebb" rx="1" ry="1" transform="matrix(-3.95193708 -.6182178 2.88009136 -18.41088932 107.156984 406.764496)"/><ellipse fill="#ab3602" rx="1" ry="1" transform="matrix(-2.75353788 -2.90138404 37.96973084 -36.03490292 142.373188 423.153312)"/><ellipse fill="#be511a" rx="1" ry="1" transform="matrix(3.0147954 -2.62887972 44.10691812 50.58174908 305.541896 531.149332)"/><ellipse fill="#b73300" rx="1" ry="1" transform="matrix(-2.5032546 -3.11989044 53.08391276 -42.5920558 176.626524 479.512652)"/><ellipse fill="#b22f00" rx="1" ry="1" transform="matrix(24.78966888 67.0872652 -29.00852784 10.71905076 289.8596 572.370132)"/><ellipse fill="#dbdddc" rx="1" ry="1" transform="matrix(-5.76375932 1.46636188 -20.58371912 -80.9074512 612.333812 558.077088)"/><ellipse fill="#e1dbcf" rx="1" ry="1" transform="matrix(37.8381682 -19.04365848 6.8035236 13.51803648 314.854388 454.77838)"/><ellipse fill="#dfe0e0" rx="1" ry="1" transform="matrix(143.6752046 -6.75481452 .1878504 3.9955866 343.647872 368.678272)"/><ellipse fill="#0c1310" rx="1" ry="1" transform="matrix(-8.57788152 -10.14263908 57.79861348 -48.88172152 530.859324 558.842036)"/><ellipse fill="#ac2b00" rx="1" ry="1" transform="matrix(1.20453364 -24.59986364 58.60629352 2.86966028 213.772256 574)"/><ellipse fill="#b85722" rx="1" ry="1" transform="matrix(-16.18381324 -20.12503632 3.11713488 -2.50668512 269.506476 489.175232)"/><ellipse fill="#090d0b" rx="1" ry="1" transform="matrix(-2.68168876 -14.9199544 30.2409424 -5.43545868 42.832756 458.30786)"/><ellipse fill="#e5ddcf" rx="1" ry="1" transform="matrix(-59.1714368 -11.61423284 .77042376 -3.92510476 287.560296 393.500052)"/><ellipse fill="#0b0e0a" rx="1" ry="1" transform="matrix(-8.98909552 -9.60123332 23.67426456 -22.16488428 31.469884 478.324696)"/><ellipse fill="#dfe0df" rx="1" ry="1" transform="matrix(-1.63290944 20.23293052 -161.67995288 -13.0484668 55.750892 348.855644)"/><ellipse fill="#e4dcce" rx="1" ry="1" transform="matrix(.3322852 -11.53058516 50.6681414 1.4601404 275.401492 393.606352)"/><ellipse fill="#a52f01" rx="1" ry="1" transform="matrix(9.1906456 6.08967632 -10.24274256 15.45852556 46.052904 534.656368)"/><ellipse fill="#bcb8a8" rx="1" ry="1" transform="matrix(.27257408 -3.99070212 7.9614188 .54378308 294.547712 481.78732)"/><ellipse fill="#ab3e07" rx="1" ry="1" transform="matrix(-.5319166 -26.4884118 5.50857344 -.11061824 23.659408 529.220856)"/><ellipse fill="#e0d9cb" rx="1" ry="1" transform="matrix(51.89323176 -27.73172192 11.00789488 20.59862136 2 417.655536)"/><ellipse fill="#080c0b" rx="1" ry="1" transform="matrix(-87.73393732 -9.5785844 7.31702048 -67.01940372 451.80156 572.247436)"/><ellipse fill="#e5e5e6" rx="1" ry="1" transform="matrix(-93.079049 -106.72703168 47.6650446 -41.56975932 140.077188 2)"/><ellipse fill="#141d19" rx="1" ry="1" transform="matrix(-23.03955816 20.35023988 -2.65011196 -3.00032872 570.51582 560.050932)"/><ellipse fill="#0a110e" rx="1" ry="1" transform="matrix(-21.86119768 65.50918984 -27.23647128 -9.0891352 545.66328 574)"/><ellipse fill="#dfdfe0" rx="1" ry="1" transform="matrix(1.23636104 -7.4391686 88.85946272 14.76809868 620.116892 503.807408)"/><ellipse fill="#a52900" rx="1" ry="1" transform="matrix(-17.02266672 -15.74687012 5.9789512 -6.4633602 56.38588 565.181584)"/><ellipse fill="#cfcbbd" rx="1" ry="1" transform="matrix(.31974012 -3.98720032 38.37700628 3.0775148 265.925796 413.234936)"/><ellipse fill="#b32f00" rx="1" ry="1" transform="matrix(10.49889448 -14.4644956 59.3066786 43.04709796 203.281988 494.20226)"/><ellipse fill="#cc9453" rx="1" ry="1" transform="matrix(8.45628608 8.52214208 -2.83937668 2.817435 190.579028 384.47408)"/><ellipse fill="#e3dbcd" rx="1" ry="1" transform="matrix(19.42597844 -22.73161936 13.71983272 11.72468932 362.201396 421.817132)"/><ellipse fill="#e3e3e3" rx="1" ry="1" transform="matrix(-70.9398058 -57.10960248 32.65175284 -40.55901116 521.047504 400.250676)"/><ellipse fill="#bd5522" rx="1" ry="1" transform="matrix(-24.90349448 -17.806616 2.32654488 -3.25379608 334.91504 560.09352)"/><ellipse fill="#0b100d" rx="1" ry="1" transform="matrix(-45.09556144 -22.1774112 8.26667312 -16.80945812 493.112172 518.300312)"/><ellipse fill="#eaeaed" rx="1" ry="1" transform="matrix(127.9699168 -3.18379996 .24056508 9.66929192 925.55664 9.48922)"/><ellipse fill="#e5ddd2" rx="1" ry="1" transform="matrix(19.47904568 24.7022414 -14.50219688 11.43576208 325.879464 420.268688)"/><ellipse fill="#e0e1e1" rx="1" ry="1" transform="matrix(-9.168788 -7.74737712 43.05864544 -50.95861296 439.34052 420.386476)"/><ellipse fill="#060906" rx="1" ry="1" transform="matrix(3.95601084 4.467195 -31.71436352 28.08526744 2 508.506344)"/><ellipse fill="#e4e5e4" rx="1" ry="1" transform="matrix(12.926159 33.7402094 -79.4523134 30.43885184 1010.5359 549.938056)"/><ellipse fill="#ba3803" rx="1" ry="1" transform="matrix(-10.42944572 -22.59633176 8.43680052 -3.89404592 217.665372 482.845796)"/><ellipse fill="#d3c8b1" rx="1" ry="1" transform="matrix(-3.90727464 -2.23009104 9.8767242 -17.30470788 117.049704 407.6286)"/><ellipse fill="#dfdfdf" rx="1" ry="1" transform="matrix(-38.26622404 19.30171952 -11.6324082 -23.0615898 438.264588 446.660052)"/><ellipse fill="#e0e0e0" rx="1" ry="1" transform="matrix(9.43903496 -26.801247 85.45572112 30.09634364 546.333428 467.047464)"/><ellipse fill="#c3a984" rx="1" ry="1" transform="matrix(.7155804 -15.69304576 3.995848 .18220496 144.47164 389.763536)"/><ellipse fill="#080b0a" rx="1" ry="1" transform="matrix(-80.52277788 -11.7244122 2.41234908 -16.56791364 408.242672 544.558836)"/><ellipse fill="#e5ded1" rx="1" ry="1" transform="matrix(28.49111568 -9.08321664 1.6354304 5.12981676 313.03506 421.30912)"/><ellipse fill="#e4ded2" rx="1" ry="1" transform="matrix(-.4677526 -3.9725568 45.89399528 -5.40383336 291.68614 423.385012)"/><ellipse fill="#8c6944" rx="1" ry="1" transform="matrix(-12.17305128 26.72735852 -3.64022056 -1.6579488 326.716224 502.384276)"/><ellipse fill="#ab2f00" rx="1" ry="1" transform="matrix(7.99624028 22.72639944 -12.04176284 4.23687128 257.33676 510.230152)"/><ellipse fill="#ae2d00" rx="1" ry="1" transform="matrix(-11.5486472 3.67912304 -6.7437828 -21.16851424 97.680428 504.356708)"/><ellipse fill="#0e1411" rx="1" ry="1" transform="matrix(2.8949782 50.44126848 -11.18432676 .6419026 560.709688 555.443048)"/><ellipse fill="#ac3401" rx="1" ry="1" transform="matrix(-50.82344756 35.803889 -3.73582088 -5.30297972 106.527028 450.949156)"/><ellipse fill="#b03500" rx="1" ry="1" transform="matrix(10.34289472 1.99748288 -1.25276432 6.48676868 185.488688 397.008772)"/><ellipse fill="#dddfdb" rx="1" ry="1" transform="matrix(170.70113512 9.37278692 -.2193 3.99398392 204.905328 369.086148)"/><ellipse fill="#e3e3e3" rx="1" ry="1" transform="matrix(27.79031204 -39.42907336 134.36443612 94.70244392 125.672164 228.064148)"/><ellipse fill="#e2e2e2" rx="1" ry="1" transform="matrix(64.99888024 100.76584776 -86.23931816 55.62856104 2 195.593716)"/><ellipse fill="#c6bead" rx="1" ry="1" transform="matrix(11.42896316 1.0282818 -.35843848 3.98390788 252.167044 433.150848)"/><ellipse fill="#0b0e0b" rx="1" ry="1" transform="matrix(-4.966306 76.87038792 -7.14955056 -.46190552 385.283776 547.758692)"/><ellipse fill="#e0d8ca" rx="1" ry="1" transform="matrix(34.51902704 -8.91614248 3.7844732 14.651665 71.3232 399.5576)"/><ellipse fill="#a26035" rx="1" ry="1" transform="matrix(3.26368948 -2.31264588 19.40336496 27.38273004 353.058792 574)"/><ellipse fill="#dfdfdf" rx="1" ry="1" transform="matrix(10.57068288 -6.19375976 42.79151968 73.03085732 425.42406 414.581812)"/><ellipse fill="#e4ddd2" rx="1" ry="1" transform="matrix(-.60835828 -9.38740408 45.72686692 -2.96336636 284.810304 400.456352)"/><ellipse fill="#0a0f0c" rx="1" ry="1" transform="matrix(42.75119372 -1.1079406 .13101516 5.0553746 42.458 452.991488)"/><ellipse fill="#080b08" rx="1" ry="1" transform="matrix(24.754832 32.54766788 -29.74471016 22.62298196 374.157272 514.760988)"/><ellipse fill="#dedfde" rx="1" ry="1" transform="matrix(-19.42194332 -11.01080636 22.70565812 -40.05047316 461.50296 441.867144)"/><ellipse fill="#e8e9e8" rx="1" ry="1" transform="matrix(24.07789016 -48.84573996 188.89596112 93.11387664 584.857828 24.162984)"/><ellipse fill="#ab3702" rx="1" ry="1" transform="matrix(-27.10701476 30.88849068 -3.00646472 -2.63840292 128.62784 432.473948)"/><ellipse fill="#b63400" rx="1" ry="1" transform="matrix(-12.2318412 32.59240168 -8.92726172 -3.35037744 145.49328 500.51582)"/><ellipse fill="#c29b6b" rx="1" ry="1" transform="matrix(-14.11621392 13.66979652 -2.78262576 -2.87349856 133.501164 411.068688)"/><ellipse fill="#b65e26" rx="1" ry="1" transform="matrix(-2.42863948 3.1783188 -11.36050324 -8.6808682 47.155536 508.221132)"/><ellipse fill="#c36e32" rx="1" ry="1" transform="matrix(3.56685792 -1.81039348 3.78710052 7.46138884 275.352168 498.259788)"/><ellipse fill="#dbd2c3" rx="1" ry="1" transform="matrix(2.96126704 -2.6890328 14.30365656 15.75174052 323.99532 461.379316)"/><ellipse fill="#e1e0e0" rx="1" ry="1" transform="matrix(-29.2017326 10.45291712 -14.62410432 -40.85454592 426.044352 404.292872)"/><ellipse fill="#dfd9cc" rx="1" ry="1" transform="matrix(25.97828624 -7.06534264 3.6368094 13.37204444 319.334796 460.65594)"/><ellipse fill="#ae3000" rx="1" ry="1" transform="matrix(73.57037516 -11.78737052 .63280528 3.94962752 101.862196 495.494376)"/><ellipse fill="#a83100" rx="1" ry="1" transform="matrix(-43.8081486 29.14863912 -2.215811 -3.33019244 62.639644 493.159076)"/><ellipse fill="#0a100d" rx="1" ry="1" transform="matrix(-6.54376724 3.78746988 -42.41422976 -73.2808062 467.113924 552.991836)"/><ellipse fill="#c9ac8b" rx="1" ry="1" transform="matrix(-2.61162824 3.02975212 -3.02975212 -2.61162824 154.14902 380.46798)"/><ellipse fill="#dedfdf" rx="1" ry="1" transform="matrix(-22.4163314 51.78514996 -3.67084032 -1.58900328 417.433124 423.805604)"/><ellipse fill="#e8e9e8" rx="1" ry="1" transform="matrix(-153.11076512 113.29592364 -33.11963148 -44.7586458 997.78132 77.293656)"/><ellipse fill="#040808" rx="1" ry="1" transform="matrix(-5.62965608 11.66455736 -28.85315496 -13.92537536 3.6035 574)"/><ellipse fill="#e1d9ca" rx="1" ry="1" transform="matrix(-2.95074204 2.70057796 -25.645261 -28.020872 358.595988 444.864624)"/><ellipse fill="#060807" rx="1" ry="1" transform="matrix(-10.36278296 6.92959384 -12.73882304 -19.05012928 12.135716 574.387644)"/><ellipse fill="#b74c1b" rx="1" ry="1" transform="matrix(-9.05751084 -15.62445228 3.46057372 -2.00609808 346.16486 574)"/><ellipse fill="#d5c7b1" rx="1" ry="1" transform="matrix(18.01275652 -4.2856576 1.6409878 6.89712436 123.146636 404.019532)"/><ellipse fill="#e3d6c6" rx="1" ry="1" transform="matrix(-7.63273012 2.03416904 -5.61403908 -21.06533176 375.737268 406.903384)"/><ellipse fill="#0a0f0c" rx="1" ry="1" transform="matrix(3.25932008 -6.9469232 25.75262212 12.08247676 414.304288 491.99178)"/><ellipse fill="#080b0a" rx="1" ry="1" transform="matrix(-7.42151548 14.03163656 -36.87610192 -19.50425104 391.942348 574)"/><ellipse fill="#b53200" rx="1" ry="1" transform="matrix(-17.35786244 -35.79736328 15.32218196 -7.4296066 314.6768 575.821936)"/><ellipse fill="#ba3e08" rx="1" ry="1" transform="matrix(18.29408976 -36.244434 3.57090976 1.80238828 190.763488 434.922372)"/><ellipse fill="#c27a3e" rx="1" ry="1" transform="matrix(.92711764 -3.89107348 3.89107348 .92711764 220.83174 455.761296)"/><ellipse fill="#a22e00" rx="1" ry="1" transform="matrix(-2.37603936 -3.21783108 20.2091216 -14.92237068 49.593396 493.595724)"/><ellipse fill="#b93d06" rx="1" ry="1" transform="matrix(2.95270144 -2.69843552 19.38988104 21.21693432 221.00114 438.564288)"/><ellipse fill="#c38548" rx="1" ry="1" transform="matrix(2.82643928 6.95017908 -3.70532156 1.50684844 223.648028 462.42322)"/><ellipse fill="#c9c4b4" rx="1" ry="1" transform="matrix(1.2036254 -3.81461476 11.28641136 3.56120144 290.037016 415.241016)"/><ellipse fill="#e1e2e2" rx="1" ry="1" transform="matrix(-.49643528 3.96907444 -244.37927596 -30.56593988 830.808952 571.942908)"/><ellipse fill="#dedfdf" rx="1" ry="1" transform="matrix(13.97596952 4.9159632 -13.3208314 37.87081508 497.545188 452.95336)"/></g></svg>