<svg height="572" width="1024" xmlns="http://www.w3.org/2000/svg"><path d="m0 0h1024v572h-1024z" fill="#948e88"/><g fill-opacity=".501961" transform="matrix(4 0 0 4 2 2)"><path d="m268-16-165 118 146-22z" fill="#2b1814"/><path d="m204 148-210-116 5 111z" fill="#ffd6b7"/><path d="m175 50 79-66-266 40z" fill="#6fcaef"/><path d="m60 39-76-37 222-14z" fill="#2f7a97"/><path d="m133 139-98-40 1-71z" fill="#906a54"/><path d="m54 112-51 46-11-80z" fill="#fffff6"/><path d="m127 102 144-55-20 111z" fill="#986d54"/><path d="m256-16-111 45 15 32z" fill="#cce2ea"/><path d="m50 108 33-54 10 24z" fill="#fff1d7"/><path d="m95 80 137-30-105 56z" fill="#364244"/><path d="m135 105-37-9 52 49z" fill="#fff8ea"/><path d="m27 68 93-29-136-1z" fill="#8e6156"/><path d="m226 150-67-17 3-25z" fill="#55504e"/><path d="m65 133-12-23 74 26z" fill="#fff8e9"/><path d="m92 58 28 17 42-16z" fill="#ebceb7"/><path d="m98 38 44 17-41 3z" fill="#443939"/><path d="m12 99 27-18-23-20z" fill="#ffeed7"/><path d="m43 82-8 20 21-5z" fill="#47342a"/><path d="m243 140-7-40 35 38z" fill="#56433b"/><path d="m165 69 106-32-52-25z" fill="#493937"/><path d="m64 147-20-22-23 33z" fill="#8e5f44"/><path d="m201 112 9-26-12 3z" fill="#fdddc8"/><path d="m271-10-102 3-53 63z" fill="#91c1d5"/><path d="m7 109 8-12-31-15z" fill="#bd7753"/><path d="m219 119 9 21 6-14z" fill="#ffdbbe"/><path d="m88 39-104-38v30z" fill="#72a1b4"/><path d="m150 108 15 20-31-23z" fill="#f7daca"/><path d="m115 99-47-44 13 26z" fill="#ffe0c4"/><path d="m93 131 37 27-7-27z" fill="#fff3e6"/><path d="m36 158-12-67-40 45z" fill="#ffebda"/><path d="m149 113 56-29-71-4z" fill="#756a61"/><path d="m11 48 39 32-13-30z" fill="#d8b8a7"/><path d="m-16-16 157 19-135 23z" fill="#477f95"/><path d="m91 48 10 11-44 19z" fill="#ecbea4"/><path d="m143 64 34-14-16-12z" fill="#eac3a9"/><path d="m61 108 39-12-20-16z" fill="#9d7659"/><path d="m56 53 6 9-23 13z" fill="#e8c4af"/><path d="m124 104-14-17 46-24z" fill="#314244"/><path d="m110 71 21 3-3-12z" fill="#ffecda"/><path d="m46 103-15-5 46-27z" fill="#725949"/><path d="m189 76 41 26 33-48z" fill="#877067"/><path d="m33 95 5-2-9-9z" fill="#fff"/><path d="m204-16-141 48 88-5z" fill="#6ea1b3"/><path d="m48 125-1-24-47 27z" fill="#ffe8d9"/><path d="m47 46 88 8-42-16z" fill="#75564d"/><path d="m95 88 60 38-33-5z" fill="#ffe5d5"/><path d="m87 94-40 12 94 32z" fill="#a18068"/><path d="m48 72 4 5 11-9z" fill="#46352e"/><path d="m81 60h45l-27 21z" fill="#a38671"/><path d="m222 103 18 7-17-14z" fill="#efc6ac"/><path d="m-14 77 41-8 18 15z" fill="#ffdbc3"/><path d="m132 48 38-14-59 4z" fill="#afd4de"/><path d="m61 100 21-26-18 11z" fill="#fff5e8"/><path d="m40 52 34 12-42-1z" fill="#7f6b61"/><path d="m170 131 35 21-13 3z" fill="#f9dbc9"/><path d="m153 46-33 3 15 12z" fill="#6d6e6c"/><path d="m200 24-38 12 12 16z" fill="#c1e5f2"/><path d="m31 69 14 18-4-19z" fill="#a06340"/><path d="m-16 64 36-13-15 15z" fill="#fcd3bf"/><path d="m261 20-39-9-42 75z" fill="#4c403f"/><path d="m141 114 17 13-8-11z" fill="#7a5d50"/><path d="m23 83 5 15 6 1z" fill="#ac6a45"/><path d="m-16 27 43-12 50 25z" fill="#80a3b1"/><path d="m193 124 13-14-9 20z" fill="#5c412c"/><path d="m93 70v14l-25-26z" fill="#fcd9c5"/><path d="m59 117-10 32-2-34z" fill="#bc8b6d"/><path d="m164 34-13 21-25 10z" fill="#a08c7e"/><path d="m143 158-12-52 57 50z" fill="#d7bdac"/><path d="m243-2-7 10-19-24z" fill="#b1e1f7"/><path d="m152 115 45 31 5-14z" fill="#585655"/><path d="m115 73 7 30 25 1z" fill="#405053"/><path d="m66 104-34-18 15-3z" fill="#90664c"/><path d="m21 72-15-8h7z" fill="#8e533a"/><path d="m72 71h12l-24 9z" fill="#7a5f51"/><path d="m196 125-27-19 31-17z" fill="#b98f73"/><path d="m8 57-12-6 14-1z" fill="#5e4f51"/><path d="m5 39 33 8 1-12z" fill="#7b564f"/><path d="m164 126-11-14-9 2z" fill="#f9dcc9"/><path d="m26 53 6-17-48-4z" fill="#a7786a"/><path d="m69 123 7 8-29-7z" fill="#fce3d3"/><path d="m49 79-5-12v13z" fill="#ffebd3"/><path d="m223 82h19l-11 18z" fill="#62524c"/><path d="m93 86 32 44-49-34z" fill="#bd9578"/><path d="m25 57-11-1 13 9z" fill="#5e4f51"/><path d="m218 158 17-25 32 25z" fill="#5b4d47"/><path d="m204 131 4-30 24 42z" fill="#b48767"/><path d="m185 90-27-33 52 23z" fill="#605d5b"/><path d="m22 110 43 5-49-22z" fill="#fff3e5"/><path d="m66 83-12 27-4-12z" fill="#c6a089"/><path d="m227 63 29-53 11 44z" fill="#655551"/><path d="m58 76-1 9 10-13z" fill="#f1e1d2"/><path d="m-16 76 30 12-19-32z" fill="#ce8f70"/><path d="m139 130-28-16 11-4z" fill="#fff8ef"/><path d="m74 130-42 28 70-23z" fill="#d2ad97"/><path d="m115 125v5l-17-4z" fill="#6e5747"/><path d="m135 127 9 31-19-22z" fill="#ab907b"/><path d="m33 49 12-6-19 26z" fill="#d8b09d"/><path d="m166 60-2 13h-36z" fill="#4d4138"/><path d="m83 27-64-6 127-26z" fill="#5a8998"/><path d="m43 63 16-7-4-3z" fill="#dcbead"/><path d="m158 111-2 4-7-3z" fill="#e8d9ce"/><path d="m74 92-20 19 15-6z" fill="#6c5c50"/><path d="m242 126 10-20-14 4z" fill="#534842"/><path d="m250 11-64 30 39 22z" fill="#524340"/><path d="m53 91-17-4 23-14z" fill="#a07051"/><path d="m106 38-102-6 53-11z" fill="#7ca3b0"/><path d="m46 65 26-18h37z" fill="#997666"/><path d="m66 115 35 13-48 8z" fill="#f7ddcc"/><path d="m253 128-15-49 33-32z" fill="#a4806c"/><path d="m4 54 14 9-34 5z" fill="#f1cab8"/><path d="m160 107 49 33-38-55z" fill="#997a64"/><path d="m243 62-39 20 10-14z" fill="#988379"/><path d="m253-4-45 21 33-29z" fill="#aad1e2"/><path d="m0 65 44 18h-28z" fill="#fddbc9"/><path d="m95 158h46l-49-21z" fill="#90705b"/><path d="m184 141-20-8 12 9z" fill="#8d7568"/><path d="m27 47 13-1-1-9z" fill="#4f3d3f"/><path d="m223-5-59 43-57-1z" fill="#91bdce"/><path d="m121 74 16-8h-19z" fill="#ffe8d8"/><path d="m90 72 31 30-15-26z" fill="#5c6361"/><path d="m92 84-1-17-21 12z" fill="#f3d6c4"/><path d="m225 96-7-5 7-3z" fill="#d6a68a"/><path d="m102 60 18-16-15 3z" fill="#50494a"/><path d="m7 65-23 31v-22z" fill="#9f715a"/><path d="m54 94-14 9-4-4z" fill="#3d3d40"/><path d="m85 37 4 11-10-1z" fill="#4b4546"/><path d="m153 72 111-47-47-9z" fill="#554742"/><path d="m14 110-13-21 17 8z" fill="#ddae93"/><path d="m101 57-14-5 2 7z" fill="#edd2bc"/><path d="m149 35 80-31-38 33z" fill="#abd0df"/><path d="m171 158h70l-80-22z" fill="#ecd6c8"/><path d="m39 65 12 2-8 4z" fill="#ffdac6"/><path d="m263 108-41-11 31 20z" fill="#7f6658"/><path d="m29 63 10 3-17 3z" fill="#e8c1ac"/><path d="m-16 59 27-14h-27z" fill="#ddbaab"/><path d="m24 29 15-5-17 1z" fill="#bfc7cc"/><path d="m66 118-16 5 4-7z" fill="#bd8868"/><path d="m46 37-1 12-4-8z" fill="#d69b85"/><path d="m148 130 32 28-27-6z" fill="#ad9680"/><path d="m75 85 8 34-10-3z" fill="#907562"/><path d="m156 64-3-8 17-4z" fill="#bda492"/><path d="m90 47 9 8-5-16z" fill="#c28d76"/><path d="m173 130-5 2 6 2z" fill="#ffe0cc"/><path d="m78 36 74-52 23 19z" fill="#679bad"/><path d="m16 38 2 8-17-16z" fill="#cca090"/><path d="m74 65-12-2-11 14z" fill="#816553"/><path d="m152 150h-14l-2-45z" fill="#e2c9b7"/><path d="m133 97 10-14 17-2z" fill="#777670"/><path d="m67 109-3 16-3-13z" fill="#f5d7c3"/><path d="m111-7-43 28-57-22z" fill="#477b8d"/><path d="m28 56-15-7 6 8z" fill="#efd3c4"/><path d="m24 155 15-29-25-33z" fill="#f7ddcd"/><path d="m2 92h-10l18-30z" fill="#f7d0ba"/><path d="m163 111 9-17-27 17z" fill="#756861"/><path d="m34 55 22-7-7 10z" fill="#645d5c"/><path d="m124 132-4 14-22-17z" fill="#f5e1d4"/><path d="m165 45-11-2 7 13z" fill="#fbd7c1"/><path d="m170 123-11 9 32-6z" fill="#5a5653"/><path d="m198 100 50 37-18-29z" fill="#a27b63"/><path d="m19 47 8-2-1-11z" fill="#5f4c4a"/><path d="m154 99 23-16-19-1z" fill="#664e41"/><path d="m61 62-1-11-8 16z" fill="#d2b29c"/><path d="m222 64-12-44 28-14z" fill="#4f4241"/><path d="m197 94 7-2 4 10z" fill="#e9d1c1"/><path d="m147 120-8-11 5 1z" fill="#876755"/><path d="m152 62 5 15 15-1z" fill="#3d3936"/><path d="m38 94-6-1-5-12z" fill="#fffff2"/><path d="m42 82 8-4-8-6z" fill="#fbcaae"/><path d="m56 127-26-1 24 11z" fill="#b58d75"/><path d="m81 96-4-2 5-1z" fill="#ffdac2"/><path d="m73 91-8 7 6-18z" fill="#fff0e1"/><path d="m45 143 42-11-26-1z" fill="#cfae98"/><path d="m46 94-12-7 8-3z" fill="#654b3f"/><path d="m179 131-21-12 4-5z" fill="#4a555b"/><path d="m114 129 10-6v9z" fill="#896953"/><path d="m162 93 25-3-11-5z" fill="#9d8575"/><path d="m165 127-2-4-7-2z" fill="#eedfd3"/><path d="m69 46 13 6-12-10z" fill="#4e3c3a"/><path d="m112 110-25-27 21 43z" fill="#b18f77"/><path d="m130 83-13-10-9 17z" fill="#465a5b"/><path d="m145 46-33 8 25 5z" fill="#666e6f"/><path d="m59 58 14-2-6-4z" fill="#645e59"/><path d="m247 19 12-18h-17z" fill="#4d403e"/><path d="m118 59 1-2 5 1z" fill="#fbe9d9"/><path d="m47 38 36 26-18-24z" fill="#a07a6b"/><path d="m133 130-26-19 1 11z" fill="#c7a185"/><path d="m22 74-7-8-8-1z" fill="#a4745c"/><path d="m52 109 24-17-14 19z" fill="#836c5d"/><path d="m51 41-3 7-2-7z" fill="#453436"/><path d="m-16 29v-13l32 28z" fill="#845b50"/><path d="m29 60 7-6-9 2z" fill="#f5d5c4"/><path d="m145 68-11-8 16 5z" fill="#95887a"/><path d="m122 46 37-10-12 10z" fill="#b1d2dc"/><path d="m22 67 16 28-22-17z" fill="#fbddca"/><path d="m14 76 13 9-2 5z" fill="#dca98c"/><path d="m146 107-7-2 6 5z" fill="#ebdace"/><path d="m27 129 17-3 13-26z" fill="#edd0be"/><path d="m50 65h-12l19-7z" fill="#7f665a"/><path d="m227 125 7 6-5 7z" fill="#e6c2ac"/><path d="m9 65 7-14-27 15z" fill="#e1c0ad"/><path d="m-16 27 26-30 17 38z" fill="#6a96a8"/><path d="m99 39 22 18-8-17z" fill="#745c55"/><path d="m210 72-24-30-21 19z" fill="#4f4842"/><path d="m162 131 4-3 9 11z" fill="#675146"/><path d="m57 75h-10l6-7z" fill="#614b40"/><path d="m220 100 22 12-41-9z" fill="#b18e77"/><path d="m124 75 9 5-2-10z" fill="#938379"/><path d="m241 93 19-39 11 17z" fill="#ad9285"/><path d="m90 83 13 18 16 2z" fill="#f9d7bf"/><path d="m36 135-11 23 35-18z" fill="#9c7b65"/><path d="m-16 80 11 10h23z" fill="#fff7ec"/><path d="m70 57-1 4 10 6z" fill="#ffe2cd"/><path d="m262 41-23 20 32-14z" fill="#444040"/><path d="m87 72 27 7-6-10z" fill="#a38671"/><path d="m229 10-26 3 38-19z" fill="#a0c8d9"/><path d="m209 97 25 27-15-8z" fill="#7f6556"/><path d="m57 88 3-8 8-5z" fill="#625a52"/><path d="m4 54-7-2 14-1z" fill="#5a4c4c"/><path d="m121 92 13 5 6 11z" fill="#524e4a"/><path d="m234 49-10 14h-36z" fill="#41393a"/><path d="m249 58-28 28 23-13z" fill="#725243"/><path d="m65 74-7 6 2-7z" fill="#ffe8d7"/><path d="m235 53-8 7 13 3z" fill="#7f7471"/><path d="m33 125 17-1-21-5z" fill="#fdf4eb"/><path d="m8 93-4 11 8 5z" fill="#c18f71"/><path d="m101 60 9 8 8-3z" fill="#87817a"/><path d="m131 119 6-13-25-1z" fill="#f9e0cf"/><path d="m174 50-11 9 2-11z" fill="#bfa28f"/><path d="m177 123 48 13-15 9z" fill="#876b58"/><path d="m34 77v-9l10 8z" fill="#9a6c51"/><path d="m72 64-7 12v-14z" fill="#9c7962"/><path d="m97 55 20-10-2 12z" fill="#554d4c"/><path d="m125 47-13 10h10z" fill="#91857d"/><path d="m74 39-5 6 7-3z" fill="#403b3f"/><path d="m91 124 16 9-36-5z" fill="#fdede1"/><path d="m106 91-6-2-3-5z" fill="#aa846a"/><path d="m95 56 9 10-4-8z" fill="#e7d8ca"/><path d="m231 126 9 1-5-6z" fill="#c7a691"/><path d="m207 81-23-1-7 20z" fill="#6c6765"/><path d="m209 63 22 12-20 26z" fill="#866e62"/><path d="m152 56-2 9-9-6z" fill="#d7cbbe"/><path d="m232 136 20-3-19-10z" fill="#907465"/><path d="m7 82-4 3 9-1z" fill="#95664b"/><path d="m91 86 2-18-9 16z" fill="#f2dac7"/><path d="m137 110-10 22 20-11z" fill="#dec4b5"/><path d="m56 127 11-4 9 28z" fill="#e4c9b6"/><path d="m157 109-6-18-5 12z" fill="#9e836e"/><path d="m164 41 7 9 33-23z" fill="#c0dfe9"/><path d="m25 94 4 13-23-20z" fill="#ffefe2"/><path d="m78 28-40-22-47 7z" fill="#548497"/><path d="m238 7 3 8 7-7z" fill="#85675d"/><path d="m157 115 7 9-1-11z" fill="#535a5e"/><path d="m140 51 15-9-3 14z" fill="#96897f"/><path d="m96 61 8-4 10 5z" fill="#a28e7e"/><path d="m196 72-2-10-16 8z" fill="#353436"/><path d="m190 157-28-25-5 26z" fill="#dfc8b9"/><path d="m193 133 11-18-11 10z" fill="#604e42"/><path d="m100 95-26-7 16-1z" fill="#a07a60"/><path d="m-13 16 46 15-17 5z" fill="#7da2b2"/><path d="m15 59 15 1-4 4z" fill="#7c665f"/><path d="m-16 121 27 2-15 11z" fill="#edc7b2"/><path d="m23 52 15-2-26-5z" fill="#bd9383"/><path d="m10 123 27-5-40 39z" fill="#fdecdf"/><path d="m-1 48-7-13 14 1z" fill="#c38e7b"/><path d="m39-7 20-9 7 21z" fill="#7896a3"/><path d="m55 62-10 12 2-7z" fill="#f8d0b8"/><path d="m211 67-9 10-23 2z" fill="#765a4e"/><path d="m49 98-20 2 21-8z" fill="#574b47"/><path d="m232 98 4-14 14-10z" fill="#825f4e"/><path d="m111 95-3-11 26-11z" fill="#4c5a5b"/><path d="m124 137 9 7-9-21z" fill="#a38c7a"/><path d="m213 30-28 23 21-7z" fill="#67544a"/><path d="m264 136-10-9-20 17z" fill="#65534a"/><path d="m155 123 6 5-5-2z" fill="#6d5548"/><path d="m40 87 21 9-11-17z" fill="#a17659"/><path d="m77 104 3-14-16 20z" fill="#b4896b"/><path d="m47 93-6-3 1 14z" fill="#554944"/><path d="m38 45-5 4 3 1z" fill="#755952"/><path d="m191 93-20 24 29-18z" fill="#af8f7c"/><path d="m160 129-9-3v6z" fill="#e6d3c5"/><path d="m81 23 21 16-72-6z" fill="#76a1af"/><path d="m111 69 12 6 1-6z" fill="#f0dfd2"/><path d="m11 115-21-6v-21z" fill="#f7cdb6"/><path d="m106 123-15-1 17 7z" fill="#857468"/><path d="m228 72h8l-10 5z" fill="#a68c80"/><path d="m225 94-20 17 2 10z" fill="#b68a6d"/><path d="m89 48 6-6-6 20z" fill="#b68f7b"/><path d="m234 104-5-1 8 12z" fill="#dab097"/><path d="m57 68-4 4 5-11z" fill="#c49f8a"/><path d="m126 106 10 23-21-12z" fill="#f9eade"/><path d="m181 87 9-28-28 5z" fill="#565553"/><path d="m151 91-15 13-15-2z" fill="#525453"/><path d="m165 25-53 8 91-40z" fill="#82b1c3"/><path d="m49 38-6 9v-11z" fill="#bb8d7b"/><path d="m261-16-44 9 31 7z" fill="#c1efff"/><path d="m201 102-9 19-7-4z" fill="#bc9476"/><path d="m147 136-5 22-3-29z" fill="#eddccc"/><path d="m9 118-15-6-10 19z" fill="#fffaf1"/><path d="m63 56-4 1 10 5z" fill="#6f5e52"/><path d="m77 62 3-3h8z" fill="#f7d9c7"/></g></svg>