<svg height="632" width="1024" xmlns="http://www.w3.org/2000/svg"><path d="m0 0h1024v632h-1024z" fill="#291e30"/><g fill="none" stroke-opacity=".501961" stroke-width=".5" transform="matrix(4 0 0 4 2 2)"><path d="m203.685633 35.379645q-22.357714 85.290486-119.51465 41.41652" stroke="#e5bfda"/><path d="m189.963752 119.298732q-190.111672 14.739362-204.589904-57.90323" stroke="#dac2da"/><path d="m88.595291 47.949603q87.112507-45.407419 119.453892 45.531647" stroke="#eabad1"/><path d="m146.301227 11.880524q5.986142 35.842148 7.76439 84.593397" stroke="#fff"/><path d="m137.946305 41.583739q8.121759 56.915941-42.316603 48.669476" stroke="#ffdef5"/><path d="m124.556194 101.056823q-1.058197-22.61959-68.603105-20.745469" stroke="#fff"/><path d="m108.24091 83.567087q-20.757016-15.942231-3.152215-43.280902" stroke="#fff"/><path d="m30.49627 107.27258q36.18328 15.735312 135.798988 15.652217" stroke="#f3dafe"/><path d="m171.0926 93.438992q22.203653-22.132068 9.608332-59.033055" stroke="#fff"/><path d="m200.150284 70.565022q-61.70569-76.020269-139.44635 12.51724" stroke="#e0b6d3"/><path d="m113.810703 32.925607q-33.183482 26.844584 1.319177 61.121544" stroke="#fff"/><path d="m100.621547 122.731553q-62.375912-20.170523-64.276607-13.308894" stroke="#fff"/><path d="m202.198757 81.360666q-20.725414-68.113044-124.575554-37.377717" stroke="#e7b9cf"/><path d="m189.749713 33.674504q-16.729233 8.356916 5.713672 40.240254" stroke="#fff"/><path d="m151.965818 91.079748q3.222025-53.806355-7.199327-66.374111" stroke="#fff"/><path d="m177.198306 97.310407q6.450222-29.632624 7.131532-65.583553" stroke="#ffe6ff"/><g stroke="#fff"><path d="m57.554145 85.192445q33.616175-29.652951 33.120437-39.661324"/><path d="m101.780262 45.373464q-14.092289 40.936082 30.272594 51.990163"/><path d="m188.051534 94.162493q24.181066-10.174681 3.888985-36.599878"/><path d="m199.804078 52.358159q-19.179587 20.956724-23.014703 39.085969"/><path d="m176.732102 73.902667q34.912743-19.737855 17.007153-40.41252"/></g><path d="m119.552235 90.56925q-13.133768 3.210099-32.308568-55.806234" stroke="#fdf"/><path d="m190.673104 29.541683q-21.607846 16.382125 16.754045 53.415962" stroke="#fff"/><path d="m116.397888 93.65654q-28.787679-26.406395-11.600743-56.507117" stroke="#fff6ff"/><path d="m141.476247 63.459001q-9.12955-31.411942-28.230995-28.385922" stroke="#fff"/><path d="m152.308564 102.354948q.997887-72.582833-6.707765-75.424386" stroke="#fff6ff"/><path d="m97.410504 124.383851q-25.747694-13.840776-61.66562-18.839417" stroke="#f5daff"/><path d="m107.113603 95.172966q54.661858-17.697355 15.416816-65.264124" stroke="#f4d1e9"/><path d="m195.359757 89.379954q16.914855-16.177207-21.218192-48.122727" stroke="#fff"/><path d="m136.090327 39.220376q-65.903653-15.040693-71.045096 15.978461" stroke="#fed8f7"/><path d="m128.896359 89.371874q-32.752097-9.49623-74.145468-10.084975" stroke="#f4dafb"/><path d="m32.106264 107.956166q16.589795-1.80695 76.850877 15.387361" stroke="#dec9f9"/><path d="m175.183105 43.627291q25.418903 9.574979 1.413021 39.798115" stroke="#fff"/><path d="m158.764391 122.565261q30.195161-2.889056 40.773453-7.506846" stroke="#fffdff"/><path d="m92.387662 117.571658q-27.823147 4.453751-56.292705-8.787323" stroke="#f1e2ff"/><path d="m179.119147 92.997972q-2.019659-25.964803 9.937681-64.435355" stroke="#ffcce7"/><path d="m152.372085 97.251642q21.399667-39.717763 54.093946-25.775764" stroke="#f7c8e4"/><path d="m154.344959 93.673096q-5.83112-60.607892-5.435766-68.539097" stroke="#ffe0fb"/><path d="m63.88699 57.100656q5.154305-27.189402 31.16084-16.253812" stroke="#ffeaff"/><path d="m177.872999 40.161297q16.6834 13.205609.327473 53.584902" stroke="#ffd6f2"/><path d="m114.786216 91.740937q-18.780596-10.191103-29.894647-57.171429" stroke="#e4c2ef"/><path d="m136.903958 122.568275q-61.700271.943583-97.012461-17.590759" stroke="#d7c4ec"/><path d="m122.146681 31.622726q-20.145937 3.998247-67.443331 60.990658" stroke="#dbb3e1"/><path d="m156.208278 93.6859q-3.935907-13.259586 44.853898-30.766498" stroke="#ffd2ef"/><path d="m198.136644 56.066843q-18.169768 42.513715-130.953768 22.642318" stroke="#c4a1bf"/><path d="m205.490159 77.832979q-25.33993-23.688694-25.723348-43.815282" stroke="#ffeaf7"/><path d="m185.304133 95.0821q-17.955708-12.114317 13.918322-40.954893" stroke="#ffecff"/><path d="m137.678024 67.67113q5.829275-29.725281-26.035383-33.551707" stroke="#fff4ff"/><path d="m124.076945 101.733309q-5.714939-23.758524-62.723741-20.129685" stroke="#e7d1f1"/><path d="m119.023411 91.139446q-38.3705-21.193172-7.072584-59.258776" stroke="#ffe7ff"/><path d="m197.411447 89.981619q15.110256-17.76823-25.495908-45.768377" stroke="#fff7ff"/><path d="m92.733343 43.80694q-10.246933-15.437389-25.027197 3.976269" stroke="#fff"/><path d="m90.884989 39.487173q-1.173673 24.172127-31.80765 42.515358" stroke="#ffe8ff"/><path d="m175.456195 87.678971q19.6574-37.046177-4.107049-50.061124" stroke="#f7bed8"/><path d="m173.105107 42.202653q34.981304 28.231287 23.364811 49.159583" stroke="#ffe1ed"/><path d="m61.927689 80.310232q34.119712-.114966 50.16391 3.779725" stroke="#ffecff"/><path d="m65.427264 59.423954q4.682796-29.021511 24.522756-18.818601" stroke="#fffbff"/><path d="m142.861992 122.442045q36.412901-.889964 55.64451-5.694436" stroke="#ffd8e9"/><path d="m179.049708 93.854082q-4.509038-62.759795 17.215472-61.831697" stroke="#ebc2d3"/><path d="m213.683022 95.304603q-13.732024 52.029947-190.637386 8.169146" stroke="#a487ac"/><path d="m139.627123 63.524875q-7.345003 41.040703-44.165095 14.352028" stroke="#f8e1f9"/><path d="m202.493921 72.714549q-34.745303-21.24354-9.311812-41.119367" stroke="#ffe0ef"/><path d="m152.33489 94.896283q4.146226-37.757861-5.289489-69.22829" stroke="#f9cbe7"/><path d="m98.922886 47.129276q20.905948-23.175223 35.703913-1.561544" stroke="#fffcff"/><path d="m183.949203 60.426956q-9.799344-28.979889 14.436267-26.10903" stroke="#ffe8f4"/><path d="m134.276383 80.607999q-21.625395 22.434254-38.814389-7.548118" stroke="#f4d7fb"/><path d="m49.973441 115.303434q31.558997 2.903239 42.401386 6.934261" stroke="#f5e5ff"/><path d="m136.639114 58.252289q-.498633-18.914405 12.741403-33.376341" stroke="#ffcde1"/><path d="m137.704901 121.091237q-60.362696 4.780885-101.097173-15.500729" stroke="#c8b6db"/><path d="m200.281839 86.018926q-18.120098 14.113473-23.735214-1.236239" stroke="#ffecff"/><path d="m116.71128 32.451987q-36.833054 24.213683-8.101085 56.553776" stroke="#e7bee8"/><path d="m177.5631 83.551971q37.817168-39.523181 11.2442-53.326192" stroke="#fabfd4"/><path d="m195.62609 89.736873q17.236761-16.292871-24.325243-47.448344" stroke="#ffeef5"/><path d="m196.146149 57.583769q-13.389511 10.860324-45.724826 35.135222" stroke="#e1b2d3"/><path d="m103.620047 39.368391q59.220051-17.866847 53.828759 54.879466" stroke="#c090b2"/><path d="m157.787386 96.085219q-8.912746-22.145314-9.961156-71.583059" stroke="#c98fb8"/><path d="m174.171801 80.568934q32.762877-16.064715-1.658451-47.620946" stroke="#ecbbd2"/><path d="m112.593817 35.259176q43.980339 8.326448 17.025257 51.241407" stroke="#e9bfda"/><path d="m110.330054 82.328883q-23.561614-34.525629-55.168273 5.258695" stroke="#bb9bd2"/><path d="m198.256858 56.500185q-26.825608 27.408375-19.830262 36.912849" stroke="#fff3ff"/><path d="m93.691869 121.874814q-16.679532-10.100485-53.509678-15.004572" stroke="#e5cffd"/><path d="m83.766561 33.23641q17.285796 20.198296 18.214404 53.66231" stroke="#d8b5df"/><path d="m181.990134 97.161136q-6.912387-31.861988 11.335299-64.428054" stroke="#c790ae"/><path d="m90.758799 40.037282q-12.216304-11.427508-28.383607 17.471744" stroke="#f3cffa"/><path d="m153.357191 97.753636q-1.096644-52.467344-3.797764-69.325009" stroke="#f4d3e8"/><path d="m188.549064 94.087856q27.668076-18.697886-2.714725-35.421457" stroke="#ffedfc"/><path d="m206.422399 109.866694q-13.395104 12.34034-41.474289 11.415534" stroke="#ffd1e2"/><path d="m189.325683 33.405042q-15.382185 6.240417 8.922905 49.725197" stroke="#fedae7"/><path d="m65.300826 75.965709q31.779624-19.843202 22.369879-39.796106" stroke="#f8dffe"/><path d="m101.804921 77.315547q17.746527 26.854098 34.418945-2.56331" stroke="#fff"/><path d="m148.891459 28.777335q2.368017 54.590376 7.526785 69.129951" stroke="#d8acc8"/><path d="m83.227093 32.005759q2.225143 2.043756 28.311146 56.986477" stroke="#c19fc8"/><path d="m113.247756 35.482054q-21.866649 5.390001-11.30934 46.785539" stroke="#ffe9ff"/><path d="m102.717254 120.605505q-42.832538.159133-65.626233-12.45621" stroke="#dac9ee"/><path d="m199.64636 42.65395q5.463495 8.534563-19.445214 33.436744" stroke="#fff0f7"/><path d="m154.281993 95.591439q7.752921-17.138932 10.669863-17.645425" stroke="#ffe8ff"/><path d="m202.212353 110.622915q-4.319256 11.679967-70.660675 12.008061" stroke="#eac4d1"/><path d="m135.611045 82.111669q12.996384-47.766594-27.847523-49.84293" stroke="#dab4cd"/><path d="m184.132797 33.699932q12.744161-3.643399 16.241308 9.868152" stroke="#ffd3dd"/><path d="m72.498805 33.441526q31.254203 7.028882 36.685865 54.65963" stroke="#b798ba"/><path d="m190.790737 74.730433q-16.27839-38.632039 7.721502-41.855224" stroke="#e6b1c6"/><path d="m184.314449 54.213998q30.089827 23.608671 9.293218 37.4609" stroke="#ffe4f1"/><path d="m66.702392 50.323022q7.175222-18.796334 22.517427-11.05983" stroke="#ffe9ff"/><path d="m146.230535 23.819752q-6.591697 20.496352-10.08265 27.360281" stroke="#f3c7db"/><path d="m172.367125 41.959249q40.508406 21.458399 21.199452 49.598871" stroke="#e2a9be"/><path d="m94.765993 120.359357q-36.815036-11.404708-57.659996-12.29753" stroke="#d7c4ef"/><path d="m172.863656 45.471244q11.457338-14.425629 23.352761-9.842946" stroke="#ffd3e3"/><path d="m114.5238 86.498203q-39.806967-20.378687-57.957071 1.303116" stroke="#ae95c5"/><path d="m187.46339 28.827264q-21.562389 43.078917 2.927058 69.245997" stroke="#c48dab"/><path d="m36.094779 108.961798q14.742232-7.725103 52.437344 10.937845" stroke="#bfa7e0"/><path d="m113.847397 86.356652q-10.191918-2.748784-4.179994-13.940645" stroke="#fffcff"/><path d="m107.603976 81.832333q-9.921592-.143067-46.047719-.91443" stroke="#f3e0fd"/><path d="m66.825522 45.559556q-.656712 38.510884-1.999406 42.280716" stroke="#b29eca"/><path d="m243.584272-.44125q-256.597489-7.500209-244.077562 131.380871" stroke="#01000d"/><path d="m60.796856 81.164259q20.554458-15.805958 31.869133-34.122436" stroke="#e7ceed"/><path d="m144.044111 26.15942q6.415815 11.573767 10.930537 43.184206" stroke="#d5a0c1"/><path d="m117.100031 32.272596q-32.660093 20.770522-11.394777 52.690607" stroke="#f7dbf0"/><path d="m201.97534 63.62533q-30.937051 3.560254-49.841235 31.743322" stroke="#d4b2ca"/><path d="m180.913569 92.591779q15.460791 4.340353 22.318112-14.949912" stroke="#ffc6e1"/><path d="m3.239311 158.041593q-19.239311-174.041593 252.773011-141.407936" stroke="#01000e"/><path d="m190.375889 31.728454q-17.18899 11.948183 1.770619 34.0665" stroke="#fffbfd"/><path d="m186.462786 29.321581q11.297139 6.557793-13.433364 67.722479" stroke="#c999b3"/><path d="m123.361682 91.125336q30.985453-25.600344 1.710273-56.35878" stroke="#e1c3d8"/><path d="m94.466417 121.272277q90.066016 2.344532 107.890219-8.179826" stroke="#bb94a6"/><path d="m197.215208 35.691209q-9.239326-6.256987-17.748045 10.538347" stroke="#fffbff"/><path d="m124.496417 37.008006q-38.518833-8.863767-39.008543 35.96699" stroke="#af89b1"/><path d="m112.533367 89.767366q-19.215151-13.574584-13.257221-43.593048" stroke="#fff1ff"/><path d="m142.292267 26.457248q25.421808 63.634419 11.953856 68.266216" stroke="#b388aa"/><path d="m180.895466 99.461658q11.561568-40.391427-1.638397-64.223331" stroke="#cda5bc"/><path d="m97.014265 47.727807q-20.41481-24.121249-37.314934 8.601456" stroke="#b794c3"/><path d="m16.729198 165.947614q-32.729198-175.742625 220.99772-163.972205" stroke="#01000e"/><path d="m24.404906 158.37864q-27.740188-174.37864 225.952993-137.800619" stroke="#02010e"/><path d="m160.694534 59.669442q-41.653358-53.9177-93.346553 18.617045" stroke="#a77ba1"/><path d="m63.804361 116.743777q11.399296 2.529647 24.722927-.288653" stroke="#f6e6ff"/><path d="m177.671427 90.363483q14.984928 7.183952 25.862103-15.433042" stroke="#e2a0c5"/><path d="m148.859742 25.97521q5.00229 33.548609.324259 43.511229" stroke="#edccdf"/><path d="m271 4.753863q-258.68416-8.89487-269.703727 99.558028" stroke="#03010f"/><path d="m137.583303 60.692793q3.085591-17.639789-21.625401-26.961579" stroke="#e7bcd5"/><path d="m61.336773 75.112245q44.672442 14.147161 47.144742-2.636047" stroke="#b596c8"/><path d="m157.721228 57.939606q-36.30788-29.970146-46.869706-20.590841" stroke="#d1a6c0"/><path d="m172.096903 45.510632q13.730045-4.303127 24.175485-11.421068" stroke="#f3c0d2"/><path d="m187.767843 66.010657q-16.725689 3.536064-6.419522 28.538986" stroke="#f4c8e7"/><path d="m35.267306 108.464925q3.033074-4.096201 26.456724 3.340988" stroke="#f2e8ff"/><path d="m150.334167 92.627575q12.740487-3.660269 9.117562-9.961965" stroke="#fff"/><path d="m168.97696 120.869787q-33.758406 3.981627-100.096262-2.072887" stroke="#c7b4cd"/><path d="m178.833003 44.299606q25.960316 35.281167 16.79619 47.442399" stroke="#e8b7ca"/><path d="m63.036684 58.216346q5.887447-11.552652 14.530133-22.808414" stroke="#d8bde6"/><path d="m110.550049 87.51499q-5.599698-5.935659-.920542-16.414873" stroke="#fff"/><path d="m59.91922 85.224051q36.504225-29.542552 26.584903-51.248064" stroke="#ad8bbc"/><path d="m40.65644 156.265531q230.34356 16.734469 213.324891-154.175269" stroke="#040210"/><path d="m12.166581 158.786201q-28.166581-172.901534 183.87567-155.697916" stroke="#02000e"/><path d="m206.113497 109.57941q-1.708255 1.339898-9.306858 6.260042" stroke="#ffe4ef"/><path d="m263.767024 27.467949q-262.177984-43.467949-263.105862 63.643629" stroke="#03010f"/><path d="m33.738304 109.725322q53.136752-.748638 58.673168 15.003542" stroke="#a48cc5"/><path d="m139.679062 66.536228q-19.943732 43.252743-47.746034 6.781622" stroke="#b498ba"/><path d="m175.121664 92.445604q8.175863-25.864857 19.435897-29.852353" stroke="#fee5f4"/><path d="m1.259518 6.279489q-17.259518 166.720511 257.662846 148.151182" stroke="#060414"/><path d="m252.743194 31.099406q18.256806 141.900594-247.380073 121.535742" stroke="#050311"/><path d="m36.079672 168.965903q-52.079672-156.756413 124.407487-150.649276" stroke="#01000d"/><path d="m-9.715273 4.759993q280.715273-20.759993 263.244114 104.33943" stroke="#03020f"/><path d="m35.172036 110.524412q4.217194-7.291332 16.520452-2.14186" stroke="#ece4ff"/><path d="m101.144621 42.434837q-9.690024 50.106913 23.526682 48.714562" stroke="#dec7e1"/><path d="m164.634349 3.305451q-177.996029-19.305451-155.206674 165.046101" stroke="#02010f"/><path d="m56.77722 82.631786q8.661458 1.048506 16.024121-15.805958" stroke="#dbcbf0"/><path d="m1.225378 44.870635q-12.794322 122.494264 254.639159 112.26366" stroke="#050312"/><path d="m67.332377 58.627536q-3.190669-23.997098 18.145908-22.172153" stroke="#caa7d6"/><path d="m163.184676 79.842425q-1.93427 5.47102-9.45944 11.985083" stroke="#fff"/><path d="m84.875013 62.232675q8.252024-21.800328 3.106842-23.533681" stroke="#edd9f2"/><path d="m-2.507266 5.837922q273.507266-21.837922 253.004048 121.24077" stroke="#050210"/><path d="m15.286111 169.926293q-31.286111-184.860392 205.776619-163.41907" stroke="#040210"/><path d="m148.282055 26.560636q3.244651 25.877462 4.912298 38.02267" stroke="#ffe9f3"/><path d="m177.172037 79.767353q32.623115-20.521972 17.059506-42.473488" stroke="#c0869f"/><path d="m132.466395 9.086591q-137.913404-25.086591-127.952046 144.802008" stroke="#02010f"/><path d="m149.827608 22.657047q-5.246413 56.135833 10.580152 74.275572" stroke="#a27797"/><path d="m201.335451 48.285295q-28.791731 37.935162-15.974618 44.974825" stroke="#d2a2bb"/><path d="m172.266651 43.431862q6.978316-4.027904 30.318575 43.609367" stroke="#e0adbf"/><path d="m134.376174 54.54395q5.358461-9.40609 9.880225-26.918146" stroke="#e2b7ca"/><path d="m87.773864 155.898499q183.226136 17.101501 163.387044-161.493449" stroke="#040210"/><path d="m271 26.578424q-259.545747-42.578424-272.686076 48.502074" stroke="#050311"/><path d="m153.600308 94.695355q4.536562-47.359216-8.309374-68.421162" stroke="#bf8daf"/><path d="m107.96037 38.787627q15.65643-11.981338 30.119284 12.074986" stroke="#f8deec"/><path d="m-16 171.933691q46.353912-68.906792 282.852233-12.402065" stroke="#040311"/><path d="m271 129.642084q-176.092037 40.004618-279.575452-47.05786" stroke="#070617"/><path d="m180.424371 105.359656q2.062513-68.340838 11.684894-71.017826" stroke="#b783a3"/><path d="m.597841 51.937663q11.003531 121.062337 249.559882 94.585316" stroke="#060413"/><path d="m65.368909 55.579175q1.035908-6.747505 9.006022-18.02962" stroke="#f8e7ff"/><path d="m80.438244 81.971258q-8.923971-2.169392-19.072896-2.835607" stroke="#f4e4ff"/><path d="m256.189988 32.350767q-247.036474-48.350767-239.190682 99.76997" stroke="#070411"/><path d="m240.401732 3.132728q30.598268 154.724648-131.00674 152.006259" stroke="#040210"/><path d="m5.430747 26.417926q-21.199231 146.582074 245.752835 113.716177" stroke="#060514"/><path d="m13.794737 173q-24.94348-183.134716 148.983823-151.857059" stroke="#040210"/><path d="m2.632784 8.490328q212.506504-5.316437 258.154854 42.294259" stroke="#060311"/><path d="m190.47901 32.645775q-19.679619 16.374949 15.505096 43.588515" stroke="#edcad5"/><path d="m34.706515 108.162221q24.77587 13.104304 52.281708 11.895695" stroke="#9d8dc0"/><path d="m197.653991 36.125361q-10.338794-5.02839-24.764844 10.566701" stroke="#efc3d1"/><path d="m34.782449 114.260358q6.493978-16.941095 18.959426-3.391466" stroke="#b4a5e1"/><path d="m271 148.407094q-277.752059 24.592906-271.992948-70.192584" stroke="#060413"/><path d="m249.721047 106.994741q-.419095-122.994741-250.816656-88.72943" stroke="#080412"/><path d="m129.881065 42.562487q19.263425-18.62896 22.438453-16.032653" stroke="#c699b3"/><path d="m149.942367 61.490382q2.20602-15.281855-.791319-34.486733" stroke="#e7c1d7"/><path d="m150.960385 96.767883q1.498343-13.840776 3.567534-51.356243" stroke="#ad769e"/><path d="m260.381079 9.797029q-276.381079-24.899594-237.956846 163.202971" stroke="#060411"/><path d="m110.407274 134.141562q145.849166 38.858438 139.400823-148.775671" stroke="#060311"/><path d="m254.569565 114.32932q16.430435-127.232111-270.101865-104.943242" stroke="#070412"/><path d="m87.523371 68.058242q22.984869 4.918642 20.887904 25.602146" stroke="#b89dca"/><path d="m187.915686 58.443522q-14.275688-20.967373 3.458572-25.454022" stroke="#ffecee"/><path d="m219.064832 1.16656q51.935168 171.24733-103.545029 155.312537" stroke="#040211"/><path d="m190.200417 67.800064q-18.672753 13.74406-8.480809 25.307177" stroke="#fff1fd"/><path d="m254.332666 126.108894q16.667334-141.539637-255.939993-104.052279" stroke="#0a0513"/><path d="m1.309165 173q-9.3771-189 112.858961-164.907526" stroke="#040210"/><path d="m19.41222 161.658197q14.746237-171.369686 125.527133-138.517373" stroke="#03020f"/><path d="m98.78917 56.916393q-4.703877 26.69535 13.799966 33.759404" stroke="#c19ed0"/><path d="m2.942854 51.891937q-3.046323 121.108063 257.503602 88.814272" stroke="#080615"/><path d="m148.618217 92.364562q10.904269 2.469312 13.733037-11.52839" stroke="#e9c4e9"/><path d="m113.199396 90.348587q-1.151591-10.714718-52.87691-11.588027" stroke="#bfa9ce"/><path d="m254.516937 20.198949q16.483063 150.541213-138.971884 119.834015" stroke="#040310"/><path d="m184.174985 30.826723q27.052021 13.732932 7.711592 62.624062" stroke="#9d627b"/><path d="m4.218972 133.835141q-5.109268-143.644847 266.781028-122.280988" stroke="#070513"/><path d="m152.482389 90.736948q1.606614-1.803683 10.634151-9.099462" stroke="#fce1fe"/><path d="m65.310587 84.337706q-3.893719-4.555069 12.713867-18.223562" stroke="#efe3fc"/><path d="m219.35426-2.382057q51.64574 163.512571-62.077901 160.080323" stroke="#040210"/><path d="m-16 4.066601q279.717762-20.066601 271.661505 81.353645" stroke="#070412"/><path d="m100.26292 120.254721q-30.9525 1.113006-38.712384-9.072131" stroke="#d2c4e2"/><path d="m271-6.347307q-110.024169 46.703774-2.684384 179.347307" stroke="#03010f"/><path d="m18.389637 159.870753q-26.686048-175.870753 150.052621-153.989305" stroke="#060412"/><path d="m169.161155 43.860443q15.714539-1.075188 18.329338 19.393221" stroke="#faeaec"/><path d="m33.08033 158.181896q-36.678888-174.181896 118.767127-140.40699" stroke="#060312"/><path d="m263.462454 58.156188q-33.959951-74.156188-264.897309-12.002127" stroke="#090613"/><path d="m185.499556 93.52165q-16.979874-8.867179 9.989526-39.205224" stroke="#d7a7c4"/><path d="m186.638778 120.258117q-29.109945 3.245657-34.095154.939341" stroke="#cba6c1"/><path d="m171.412618 85.303799q38.672906-35.774948 25.441308-48.265195" stroke="#d9b9c5"/><path d="m12.87874 8.319661q257.245995-24.319661 239.146174 110.510711" stroke="#080513"/><path d="m257.423019 27.098998q-35.701685 134.007749-238.198396 62.151229" stroke="#090615"/><path d="m1.25551 5.854642q31.320127 159.040953 242.126521 80.235829" stroke="#090615"/><path d="m112.013652 89.338053q-8.617131-5.022971-1.387636-18.605162" stroke="#f9f0f3"/><path d="m68.559984 122.738922q-7.952464-17.122445-33.283506-13.379678" stroke="#b5a3d1"/><path d="m90.783451 37.225736q-.274778 10.745566-2.950719 16.59058" stroke="#f4e1f8"/><path d="m252.868257 91.26332q-2.151811 80.309736-259.657059 56.321338" stroke="#080614"/><path d="m252.20577 155.104089q-85.45134-52.519922 18.79423-171.104089" stroke="#040210"/><path d="m70.753527 150.34021q186.18897 11.717303 170.680457-133.605206" stroke="#090615"/><path d="m135.416971 53.390052q4.737089-16.824086 11.678106-26.129697" stroke="#e2bcca"/><path d="m208.789727 106.638567q-19.14286 19.035826-48.869917 12.776398" stroke="#caa4b3"/><path d="m240.185596 143.979765q-244.715495 27.413512-237.839537-70.397101" stroke="#080514"/><path d="m-16 28.977694q248.059437-44.977694 282.808631.716868" stroke="#070513"/><path d="m214.932472 1.435175q6.720697 91.899707 45.41113 159.54202" stroke="#030210"/><path d="m262.068094 17.981968q-274.41583-28.840658-260.316737 119.181503" stroke="#080514"/><path d="m103.326228 45.134664q-14.537895 43.798207-12.340446 44.88922" stroke="#956f99"/><path d="m271 147.507244q-7.729614-14.323182-278.110306-4.800474" stroke="#080614"/><path d="m255.667319 71.794929q-4.526432 96.458746-267.776757 50.664996" stroke="#0a0716"/><path d="m271 149.899418q-268.978103 23.100582-272.382736-62.375893" stroke="#070614"/><path d="m182.502326 46.181162q.172605-17.993331 15.036587-9.145837" stroke="#fff5f3"/><path d="m176.073529 90.074678q21.014608 10.430737 26.64496-13.774199" stroke="#e4b6cf"/><path d="m88.735344 35.501135q-24.612181 7.132151-24.338285 18.021273" stroke="#c09ac7"/><path d="m190.102194 29.0484q-26.406319 23.549077 14.933587 55.102597" stroke="#b37994"/><path d="m137.639856 65.444625q.422434 17.289883-21.290879 27.139026" stroke="#dac3d4"/><path d="m122.273847 94.433747q88.008489 26.644144 145.113244-14.977262" stroke="#0b0614"/><path d="m115.410793 95.3244q-11.283818-15.204532-54.635842-13.030505" stroke="#7a5c92"/><path d="m169.219702-1.144761q-185.219702-5.080671-126.302631 174.144761" stroke="#090615"/><path d="m-7.468832 15.51042q269.064154-29.964396 261.935354 72.050709" stroke="#090614"/><path d="m245.062739 77.733152q-200.525488 95.266848-243.944638-78.729513" stroke="#0b0716"/><path d="m153.989942 84.414534q-4.036436 7.17019 6.02807 9.065705" stroke="#f6e2fa"/><path d="m263.930792 165.885518q-103.136183-144.301436 7.069208-177.941955" stroke="#050310"/><path d="m242.540117 3.528611q28.459883 169.471389-123.391251 134.533864" stroke="#070513"/><path d="m117.471811 90.197882q-35.57572-46.895652-59.814556-2.344904" stroke="#9b7eaf"/><path d="m85.198389 74.391869q4.609586-23.480614-2.364812-40.469536" stroke="#916c9b"/><path d="m36.989584 108.841467q8.290784-2.869496 13.566448-.521289" stroke="#fff"/><path d="m258.574334 160.017206q-90.541529-86.906328 12.425666-174.691211" stroke="#040311"/><path d="m10.967608 162.964272q-24.519617-176.070457 87.854232-160.462315" stroke="#050312"/><path d="m256.506837 152.506695q-66.634042 7.813842-255.70469-1.665277" stroke="#080614"/><path d="m24.482692 140.784186q-15.075687-156.784186 236.577395-117.658469" stroke="#0a0615"/><path d="m172.512103 73.89761q17.834008-14.507339 29.999947-1.950258" stroke="#d6a4be"/><path d="m151.329307 84.823602q1.22994 3.085851 9.457786 8.939373" stroke="#e1c0e1"/><path d="m60.996191 75.818451q1.223869 5.935362 17.022824 4.61269" stroke="#eee6f8"/><path d="m271 128.527141q-256.459258 37.248811-287 4.913921" stroke="#090715"/><path d="m257.651985 154.824458q-85.794787-130.634364 3.245062-156.859189" stroke="#050311"/><path d="m243.568488-3.153618q26.148832 176.153618-96.664001 159.482075" stroke="#070513"/><path d="m192.871934 86.520494q-4.189483-35.463995-18.155086-44.5302" stroke="#cba9b6"/><path d="m60.091207 52.290053q5.499721-3.064969 7.452866 3.626069" stroke="#ddccf1"/><path d="m187.254858 56.036376q22.868848 23.316152 6.572166 32.703514" stroke="#f2d4dc"/><path d="m89.266215 37.392973q-17.643443-5.51235-25.34444 21.267749" stroke="#d6c1da"/><path d="m161.485503 16.765792q-133.392625 34.140778-166.012416-22.081292" stroke="#050310"/><path d="m174.301601-3.129218q8.093472 44.504559 5.230535 99.800539" stroke="#8e627b"/><path d="m261.539346 173q-35.969269-157.807268-90.284554-173.426479" stroke="#050311"/><path d="m80.760029 37.098516q15.300998 7.438542 7.246466 17.965529" stroke="#c398c6"/><path d="m185.362224 29.405053q.898271 19.688044-13.072025 14.114789" stroke="#fbe1ea"/><path d="m205.377689 110.446824q-11.862655 10.764471-44.051547 11.449688" stroke="#d9b5c5"/><path d="m157.626638 48.116056q-13.468274 8.762167-42.851858-16.93483" stroke="#a36e93"/><path d="m5.426237 156.577019q-6.546778-172.577019 113.412372-132.382593" stroke="#060412"/><path d="m255.881961 5.071151q-253.75962-21.071151-239.362232 148.806569" stroke="#090615"/><path d="m110.480195 85.928287q-8.227411-.711554-12.379883-21.95178" stroke="#fff"/><path d="m129.638297 39.356996q-11.443547-8.233208-20.057091-1.589112" stroke="#fde7f6"/><path d="m-10.974338 173q103.884013-128.976094-5.025662-182.55038" stroke="#070514"/><path d="m94.065903 112.178966q9.547356-35.156857 5.519072-66.900279" stroke="#896f93"/><path d="m271 141.230724q-25.807436-7.061808-267.031736-9.515166" stroke="#0a0816"/><path d="m2.070577 148.985279q-18.070577-161.418779 126.76656-119.6032" stroke="#070513"/><path d="m154.55988 96.485705q-1.104704-2.876968 7.397537-18.295009" stroke="#d1b0d5"/><path d="m148.995763 25.937264q-147.552689-35.095553-132.571076 136.216917" stroke="#0a0615"/><path d="m238.059261-16q13.945471 180.980723-193.821987 113.44893" stroke="#0c0918"/><path d="m32.817704 113.539998q6.56018-2.701986 10.736975-12.767888" stroke="#b6adda"/><path d="m150.648465 63.413859q11.73677-13.501657-4.292961-27.374891" stroke="#b6789f"/></g></svg>