<svg xmlns="http://www.w3.org/2000/svg" version="1.1" width="1024" height="632">
<rect x="0" y="0" width="1024" height="632" fill="#291e30" />
<g transform="scale(4.000000) translate(0.5 0.5)">
<path stroke="#e5bfda" stroke-opacity="0.501961" fill="none" d="M 203.685633 35.379645 Q 181.327919 120.670131, 84.170983 76.796165" stroke-width="0.500000" />
<path stroke="#dac2da" stroke-opacity="0.501961" fill="none" d="M 189.963752 119.298732 Q -0.147920 134.038094, -14.626152 61.395502" stroke-width="0.500000" />
<path stroke="#eabad1" stroke-opacity="0.501961" fill="none" d="M 88.595291 47.949603 Q 175.707798 2.542184, 208.049183 93.481250" stroke-width="0.500000" />
<path stroke="#ffffff" stroke-opacity="0.501961" fill="none" d="M 146.301227 11.880524 Q 152.287369 47.722672, 154.065617 96.473921" stroke-width="0.500000" />
<path stroke="#ffdef5" stroke-opacity="0.501961" fill="none" d="M 137.946305 41.583739 Q 146.068064 98.499680, 95.629702 90.253215" stroke-width="0.500000" />
<path stroke="#ffffff" stroke-opacity="0.501961" fill="none" d="M 124.556194 101.056823 Q 123.497997 78.437233, 55.953089 80.311354" stroke-width="0.500000" />
<path stroke="#ffffff" stroke-opacity="0.501961" fill="none" d="M 108.240910 83.567087 Q 87.483894 67.624856, 105.088695 40.286185" stroke-width="0.500000" />
<path stroke="#f3dafe" stroke-opacity="0.501961" fill="none" d="M 30.496270 107.272580 Q 66.679550 123.007892, 166.295258 122.924797" stroke-width="0.500000" />
<path stroke="#ffffff" stroke-opacity="0.501961" fill="none" d="M 171.092600 93.438992 Q 193.296253 71.306924, 180.700932 34.405937" stroke-width="0.500000" />
<path stroke="#e0b6d3" stroke-opacity="0.501961" fill="none" d="M 200.150284 70.565022 Q 138.444594 -5.455247, 60.703934 83.082262" stroke-width="0.500000" />
<path stroke="#ffffff" stroke-opacity="0.501961" fill="none" d="M 113.810703 32.925607 Q 80.627221 59.770191, 115.129880 94.047151" stroke-width="0.500000" />
<path stroke="#ffffff" stroke-opacity="0.501961" fill="none" d="M 100.621547 122.731553 Q 38.245635 102.561030, 36.344940 109.422659" stroke-width="0.500000" />
<path stroke="#e7b9cf" stroke-opacity="0.501961" fill="none" d="M 202.198757 81.360666 Q 181.473343 13.247622, 77.623203 43.982949" stroke-width="0.500000" />
<path stroke="#ffffff" stroke-opacity="0.501961" fill="none" d="M 189.749713 33.674504 Q 173.020480 42.031420, 195.463385 73.914758" stroke-width="0.500000" />
<path stroke="#ffffff" stroke-opacity="0.501961" fill="none" d="M 151.965818 91.079748 Q 155.187843 37.273393, 144.766491 24.705637" stroke-width="0.500000" />
<path stroke="#ffe6ff" stroke-opacity="0.501961" fill="none" d="M 177.198306 97.310407 Q 183.648528 67.677783, 184.329838 31.726854" stroke-width="0.500000" />
<path stroke="#ffffff" stroke-opacity="0.501961" fill="none" d="M 57.554145 85.192445 Q 91.170320 55.539494, 90.674582 45.531121" stroke-width="0.500000" />
<path stroke="#ffffff" stroke-opacity="0.501961" fill="none" d="M 101.780262 45.373464 Q 87.687973 86.309546, 132.052856 97.363627" stroke-width="0.500000" />
<path stroke="#ffffff" stroke-opacity="0.501961" fill="none" d="M 188.051534 94.162493 Q 212.232600 83.987812, 191.940519 57.562615" stroke-width="0.500000" />
<path stroke="#ffffff" stroke-opacity="0.501961" fill="none" d="M 199.804078 52.358159 Q 180.624491 73.314883, 176.789375 91.444128" stroke-width="0.500000" />
<path stroke="#ffffff" stroke-opacity="0.501961" fill="none" d="M 176.732102 73.902667 Q 211.644845 54.164812, 193.739255 33.490147" stroke-width="0.500000" />
<path stroke="#ffddff" stroke-opacity="0.501961" fill="none" d="M 119.552235 90.569250 Q 106.418467 93.779349, 87.243667 34.763016" stroke-width="0.500000" />
<path stroke="#ffffff" stroke-opacity="0.501961" fill="none" d="M 190.673104 29.541683 Q 169.065258 45.923808, 207.427149 82.957645" stroke-width="0.500000" />
<path stroke="#fff6ff" stroke-opacity="0.501961" fill="none" d="M 116.397888 93.656540 Q 87.610209 67.250145, 104.797145 37.149423" stroke-width="0.500000" />
<path stroke="#ffffff" stroke-opacity="0.501961" fill="none" d="M 141.476247 63.459001 Q 132.346697 32.047059, 113.245252 35.073079" stroke-width="0.500000" />
<path stroke="#fff6ff" stroke-opacity="0.501961" fill="none" d="M 152.308564 102.354948 Q 153.306451 29.772115, 145.600799 26.930562" stroke-width="0.500000" />
<path stroke="#f5daff" stroke-opacity="0.501961" fill="none" d="M 97.410504 124.383851 Q 71.662810 110.543075, 35.744884 105.544434" stroke-width="0.500000" />
<path stroke="#f4d1e9" stroke-opacity="0.501961" fill="none" d="M 107.113603 95.172966 Q 161.775461 77.475611, 122.530419 29.908842" stroke-width="0.500000" />
<path stroke="#ffffff" stroke-opacity="0.501961" fill="none" d="M 195.359757 89.379954 Q 212.274612 73.202747, 174.141565 41.257227" stroke-width="0.500000" />
<path stroke="#fed8f7" stroke-opacity="0.501961" fill="none" d="M 136.090327 39.220376 Q 70.186674 24.179683, 65.045231 55.198837" stroke-width="0.500000" />
<path stroke="#f4dafb" stroke-opacity="0.501961" fill="none" d="M 128.896359 89.371874 Q 96.144262 79.875644, 54.750891 79.286899" stroke-width="0.500000" />
<path stroke="#dec9f9" stroke-opacity="0.501961" fill="none" d="M 32.106264 107.956166 Q 48.696059 106.149216, 108.957141 123.343527" stroke-width="0.500000" />
<path stroke="#ffffff" stroke-opacity="0.501961" fill="none" d="M 175.183105 43.627291 Q 200.602008 53.202270, 176.596126 83.425406" stroke-width="0.500000" />
<path stroke="#fffdff" stroke-opacity="0.501961" fill="none" d="M 158.764391 122.565261 Q 188.959552 119.676205, 199.537844 115.058415" stroke-width="0.500000" />
<path stroke="#f1e2ff" stroke-opacity="0.501961" fill="none" d="M 92.387662 117.571658 Q 64.564515 122.025409, 36.094957 108.784335" stroke-width="0.500000" />
<path stroke="#ffcce7" stroke-opacity="0.501961" fill="none" d="M 179.119147 92.997972 Q 177.099488 67.033169, 189.056828 28.562617" stroke-width="0.500000" />
<path stroke="#f7c8e4" stroke-opacity="0.501961" fill="none" d="M 152.372085 97.251642 Q 173.771752 57.533879, 206.466031 71.475878" stroke-width="0.500000" />
<path stroke="#ffe0fb" stroke-opacity="0.501961" fill="none" d="M 154.344959 93.673096 Q 148.513839 33.065204, 148.909193 25.133999" stroke-width="0.500000" />
<path stroke="#ffeaff" stroke-opacity="0.501961" fill="none" d="M 63.886990 57.100656 Q 69.041295 29.911254, 95.047830 40.846844" stroke-width="0.500000" />
<path stroke="#ffd6f2" stroke-opacity="0.501961" fill="none" d="M 177.872999 40.161297 Q 194.556399 53.366906, 178.200472 93.746199" stroke-width="0.500000" />
<path stroke="#e4c2ef" stroke-opacity="0.501961" fill="none" d="M 114.786216 91.740937 Q 96.005620 81.549834, 84.891569 34.569508" stroke-width="0.500000" />
<path stroke="#d7c4ec" stroke-opacity="0.501961" fill="none" d="M 136.903958 122.568275 Q 75.203687 123.511858, 39.891497 104.977516" stroke-width="0.500000" />
<path stroke="#dbb3e1" stroke-opacity="0.501961" fill="none" d="M 122.146681 31.622726 Q 102.000744 35.620973, 54.703350 92.613384" stroke-width="0.500000" />
<path stroke="#ffd2ef" stroke-opacity="0.501961" fill="none" d="M 156.208278 93.685900 Q 152.272371 80.426314, 201.062176 62.919402" stroke-width="0.500000" />
<path stroke="#c4a1bf" stroke-opacity="0.501961" fill="none" d="M 198.136644 56.066843 Q 179.966876 98.580558, 67.182876 78.709161" stroke-width="0.500000" />
<path stroke="#ffeaf7" stroke-opacity="0.501961" fill="none" d="M 205.490159 77.832979 Q 180.150229 54.144285, 179.766811 34.017697" stroke-width="0.500000" />
<path stroke="#ffecff" stroke-opacity="0.501961" fill="none" d="M 185.304133 95.082100 Q 167.348425 82.967783, 199.222455 54.127207" stroke-width="0.500000" />
<path stroke="#fff4ff" stroke-opacity="0.501961" fill="none" d="M 137.678024 67.671130 Q 143.507299 37.945849, 111.642641 34.119423" stroke-width="0.500000" />
<path stroke="#e7d1f1" stroke-opacity="0.501961" fill="none" d="M 124.076945 101.733309 Q 118.362006 77.974785, 61.353204 81.603624" stroke-width="0.500000" />
<path stroke="#ffe7ff" stroke-opacity="0.501961" fill="none" d="M 119.023411 91.139446 Q 80.652911 69.946274, 111.950827 31.880670" stroke-width="0.500000" />
<path stroke="#fff7ff" stroke-opacity="0.501961" fill="none" d="M 197.411447 89.981619 Q 212.521703 72.213389, 171.915539 44.213242" stroke-width="0.500000" />
<path stroke="#ffffff" stroke-opacity="0.501961" fill="none" d="M 92.733343 43.806940 Q 82.486410 28.369551, 67.706146 47.783209" stroke-width="0.500000" />
<path stroke="#ffe8ff" stroke-opacity="0.501961" fill="none" d="M 90.884989 39.487173 Q 89.711316 63.659300, 59.077339 82.002531" stroke-width="0.500000" />
<path stroke="#f7bed8" stroke-opacity="0.501961" fill="none" d="M 175.456195 87.678971 Q 195.113595 50.632794, 171.349146 37.617847" stroke-width="0.500000" />
<path stroke="#ffe1ed" stroke-opacity="0.501961" fill="none" d="M 173.105107 42.202653 Q 208.086411 70.433940, 196.469918 91.362236" stroke-width="0.500000" />
<path stroke="#ffecff" stroke-opacity="0.501961" fill="none" d="M 61.927689 80.310232 Q 96.047401 80.195266, 112.091599 84.089957" stroke-width="0.500000" />
<path stroke="#fffbff" stroke-opacity="0.501961" fill="none" d="M 65.427264 59.423954 Q 70.110060 30.402443, 89.950020 40.605353" stroke-width="0.500000" />
<path stroke="#ffd8e9" stroke-opacity="0.501961" fill="none" d="M 142.861992 122.442045 Q 179.274893 121.552081, 198.506502 116.747609" stroke-width="0.500000" />
<path stroke="#ebc2d3" stroke-opacity="0.501961" fill="none" d="M 179.049708 93.854082 Q 174.540670 31.094287, 196.265180 32.022385" stroke-width="0.500000" />
<path stroke="#a487ac" stroke-opacity="0.501961" fill="none" d="M 213.683022 95.304603 Q 199.950998 147.334550, 23.045636 103.473749" stroke-width="0.500000" />
<path stroke="#f8e1f9" stroke-opacity="0.501961" fill="none" d="M 139.627123 63.524875 Q 132.282120 104.565578, 95.462028 77.876903" stroke-width="0.500000" />
<path stroke="#ffe0ef" stroke-opacity="0.501961" fill="none" d="M 202.493921 72.714549 Q 167.748618 51.471009, 193.182109 31.595182" stroke-width="0.500000" />
<path stroke="#f9cbe7" stroke-opacity="0.501961" fill="none" d="M 152.334890 94.896283 Q 156.481116 57.138422, 147.045401 25.667993" stroke-width="0.500000" />
<path stroke="#fffcff" stroke-opacity="0.501961" fill="none" d="M 98.922886 47.129276 Q 119.828834 23.954053, 134.626799 45.567732" stroke-width="0.500000" />
<path stroke="#ffe8f4" stroke-opacity="0.501961" fill="none" d="M 183.949203 60.426956 Q 174.149859 31.447067, 198.385470 34.317926" stroke-width="0.500000" />
<path stroke="#f4d7fb" stroke-opacity="0.501961" fill="none" d="M 134.276383 80.607999 Q 112.650988 103.042253, 95.461994 73.059881" stroke-width="0.500000" />
<path stroke="#f5e5ff" stroke-opacity="0.501961" fill="none" d="M 49.973441 115.303434 Q 81.532438 118.206673, 92.374827 122.237695" stroke-width="0.500000" />
<path stroke="#ffcde1" stroke-opacity="0.501961" fill="none" d="M 136.639114 58.252289 Q 136.140481 39.337884, 149.380517 24.875948" stroke-width="0.500000" />
<path stroke="#c8b6db" stroke-opacity="0.501961" fill="none" d="M 137.704901 121.091237 Q 77.342205 125.872122, 36.607728 105.590508" stroke-width="0.500000" />
<path stroke="#ffecff" stroke-opacity="0.501961" fill="none" d="M 200.281839 86.018926 Q 182.161741 100.132399, 176.546625 84.782687" stroke-width="0.500000" />
<path stroke="#e7bee8" stroke-opacity="0.501961" fill="none" d="M 116.711280 32.451987 Q 79.878226 56.665670, 108.610195 89.005763" stroke-width="0.500000" />
<path stroke="#fabfd4" stroke-opacity="0.501961" fill="none" d="M 177.563100 83.551971 Q 215.380268 44.028790, 188.807300 30.225779" stroke-width="0.500000" />
<path stroke="#ffeef5" stroke-opacity="0.501961" fill="none" d="M 195.626090 89.736873 Q 212.862851 73.444002, 171.300847 42.288529" stroke-width="0.500000" />
<path stroke="#e1b2d3" stroke-opacity="0.501961" fill="none" d="M 196.146149 57.583769 Q 182.756638 68.444093, 150.421323 92.718991" stroke-width="0.500000" />
<path stroke="#c090b2" stroke-opacity="0.501961" fill="none" d="M 103.620047 39.368391 Q 162.840098 21.501544, 157.448806 94.247857" stroke-width="0.500000" />
<path stroke="#c98fb8" stroke-opacity="0.501961" fill="none" d="M 157.787386 96.085219 Q 148.874640 73.939905, 147.826230 24.502160" stroke-width="0.500000" />
<path stroke="#ecbbd2" stroke-opacity="0.501961" fill="none" d="M 174.171801 80.568934 Q 206.934678 64.504219, 172.513350 32.947988" stroke-width="0.500000" />
<path stroke="#e9bfda" stroke-opacity="0.501961" fill="none" d="M 112.593817 35.259176 Q 156.574156 43.585624, 129.619074 86.500583" stroke-width="0.500000" />
<path stroke="#bb9bd2" stroke-opacity="0.501961" fill="none" d="M 110.330054 82.328883 Q 86.768440 47.803254, 55.161781 87.587578" stroke-width="0.500000" />
<path stroke="#fff3ff" stroke-opacity="0.501961" fill="none" d="M 198.256858 56.500185 Q 171.431250 83.908560, 178.426596 93.413034" stroke-width="0.500000" />
<path stroke="#e5cffd" stroke-opacity="0.501961" fill="none" d="M 93.691869 121.874814 Q 77.012337 111.774329, 40.182191 106.870242" stroke-width="0.500000" />
<path stroke="#d8b5df" stroke-opacity="0.501961" fill="none" d="M 83.766561 33.236410 Q 101.052357 53.434706, 101.980965 86.898720" stroke-width="0.500000" />
<path stroke="#c790ae" stroke-opacity="0.501961" fill="none" d="M 181.990134 97.161136 Q 175.077747 65.299148, 193.325433 32.733082" stroke-width="0.500000" />
<path stroke="#f3cffa" stroke-opacity="0.501961" fill="none" d="M 90.758799 40.037282 Q 78.542495 28.609774, 62.375192 57.509026" stroke-width="0.500000" />
<path stroke="#f4d3e8" stroke-opacity="0.501961" fill="none" d="M 153.357191 97.753636 Q 152.260547 45.286292, 149.559427 28.428627" stroke-width="0.500000" />
<path stroke="#ffedfc" stroke-opacity="0.501961" fill="none" d="M 188.549064 94.087856 Q 216.217140 75.389970, 185.834339 58.666399" stroke-width="0.500000" />
<path stroke="#ffd1e2" stroke-opacity="0.501961" fill="none" d="M 206.422399 109.866694 Q 193.027295 122.207034, 164.948110 121.282228" stroke-width="0.500000" />
<path stroke="#fedae7" stroke-opacity="0.501961" fill="none" d="M 189.325683 33.405042 Q 173.943498 39.645459, 198.248588 83.130239" stroke-width="0.500000" />
<path stroke="#f8dffe" stroke-opacity="0.501961" fill="none" d="M 65.300826 75.965709 Q 97.080450 56.122507, 87.670705 36.169603" stroke-width="0.500000" />
<path stroke="#ffffff" stroke-opacity="0.501961" fill="none" d="M 101.804921 77.315547 Q 119.551448 104.169645, 136.223866 74.752237" stroke-width="0.500000" />
<path stroke="#d8acc8" stroke-opacity="0.501961" fill="none" d="M 148.891459 28.777335 Q 151.259476 83.367711, 156.418244 97.907286" stroke-width="0.500000" />
<path stroke="#c19fc8" stroke-opacity="0.501961" fill="none" d="M 83.227093 32.005759 Q 85.452236 34.049515, 111.538239 88.992236" stroke-width="0.500000" />
<path stroke="#ffe9ff" stroke-opacity="0.501961" fill="none" d="M 113.247756 35.482054 Q 91.381107 40.872055, 101.938416 82.267593" stroke-width="0.500000" />
<path stroke="#dac9ee" stroke-opacity="0.501961" fill="none" d="M 102.717254 120.605505 Q 59.884716 120.764638, 37.091021 108.149295" stroke-width="0.500000" />
<path stroke="#fff0f7" stroke-opacity="0.501961" fill="none" d="M 199.646360 42.653950 Q 205.109855 51.188513, 180.201146 76.090694" stroke-width="0.500000" />
<path stroke="#ffe8ff" stroke-opacity="0.501961" fill="none" d="M 154.281993 95.591439 Q 162.034914 78.452507, 164.951856 77.946014" stroke-width="0.500000" />
<path stroke="#eac4d1" stroke-opacity="0.501961" fill="none" d="M 202.212353 110.622915 Q 197.893097 122.302882, 131.551678 122.630976" stroke-width="0.500000" />
<path stroke="#dab4cd" stroke-opacity="0.501961" fill="none" d="M 135.611045 82.111669 Q 148.607429 34.345075, 107.763522 32.268739" stroke-width="0.500000" />
<path stroke="#ffd3dd" stroke-opacity="0.501961" fill="none" d="M 184.132797 33.699932 Q 196.876958 30.056533, 200.374105 43.568084" stroke-width="0.500000" />
<path stroke="#b798ba" stroke-opacity="0.501961" fill="none" d="M 72.498805 33.441526 Q 103.753008 40.470408, 109.184670 88.101156" stroke-width="0.500000" />
<path stroke="#e6b1c6" stroke-opacity="0.501961" fill="none" d="M 190.790737 74.730433 Q 174.512347 36.098394, 198.512239 32.875209" stroke-width="0.500000" />
<path stroke="#ffe4f1" stroke-opacity="0.501961" fill="none" d="M 184.314449 54.213998 Q 214.404276 77.822669, 193.607667 91.674898" stroke-width="0.500000" />
<path stroke="#ffe9ff" stroke-opacity="0.501961" fill="none" d="M 66.702392 50.323022 Q 73.877614 31.526688, 89.219819 39.263192" stroke-width="0.500000" />
<path stroke="#f3c7db" stroke-opacity="0.501961" fill="none" d="M 146.230535 23.819752 Q 139.638838 44.316104, 136.147885 51.180033" stroke-width="0.500000" />
<path stroke="#e2a9be" stroke-opacity="0.501961" fill="none" d="M 172.367125 41.959249 Q 212.875531 63.417648, 193.566577 91.558120" stroke-width="0.500000" />
<path stroke="#d7c4ef" stroke-opacity="0.501961" fill="none" d="M 94.765993 120.359357 Q 57.950957 108.954649, 37.105997 108.061827" stroke-width="0.500000" />
<path stroke="#ffd3e3" stroke-opacity="0.501961" fill="none" d="M 172.863656 45.471244 Q 184.320994 31.045615, 196.216417 35.628298" stroke-width="0.500000" />
<path stroke="#ae95c5" stroke-opacity="0.501961" fill="none" d="M 114.523800 86.498203 Q 74.716833 66.119516, 56.566729 87.801319" stroke-width="0.500000" />
<path stroke="#c48dab" stroke-opacity="0.501961" fill="none" d="M 187.463390 28.827264 Q 165.901001 71.906181, 190.390448 98.073261" stroke-width="0.500000" />
<path stroke="#bfa7e0" stroke-opacity="0.501961" fill="none" d="M 36.094779 108.961798 Q 50.837011 101.236695, 88.532123 119.899643" stroke-width="0.500000" />
<path stroke="#fffcff" stroke-opacity="0.501961" fill="none" d="M 113.847397 86.356652 Q 103.655479 83.607868, 109.667403 72.416007" stroke-width="0.500000" />
<path stroke="#f3e0fd" stroke-opacity="0.501961" fill="none" d="M 107.603976 81.832333 Q 97.682384 81.689266, 61.556257 80.917903" stroke-width="0.500000" />
<path stroke="#b29eca" stroke-opacity="0.501961" fill="none" d="M 66.825522 45.559556 Q 66.168810 84.070440, 64.826116 87.840272" stroke-width="0.500000" />
<path stroke="#01000d" stroke-opacity="0.501961" fill="none" d="M 243.584272 -0.441250 Q -13.013217 -7.941459, -0.493290 130.939621" stroke-width="0.500000" />
<path stroke="#e7ceed" stroke-opacity="0.501961" fill="none" d="M 60.796856 81.164259 Q 81.351314 65.358301, 92.665989 47.041823" stroke-width="0.500000" />
<path stroke="#d5a0c1" stroke-opacity="0.501961" fill="none" d="M 144.044111 26.159420 Q 150.459926 37.733187, 154.974648 69.343626" stroke-width="0.500000" />
<path stroke="#f7dbf0" stroke-opacity="0.501961" fill="none" d="M 117.100031 32.272596 Q 84.439938 53.043118, 105.705254 84.963203" stroke-width="0.500000" />
<path stroke="#d4b2ca" stroke-opacity="0.501961" fill="none" d="M 201.975340 63.625330 Q 171.038289 67.185584, 152.134105 95.368652" stroke-width="0.500000" />
<path stroke="#ffc6e1" stroke-opacity="0.501961" fill="none" d="M 180.913569 92.591779 Q 196.374360 96.932132, 203.231681 77.641867" stroke-width="0.500000" />
<path stroke="#01000e" stroke-opacity="0.501961" fill="none" d="M 3.239311 158.041593 Q -16.000000 -16.000000, 256.012322 16.633657" stroke-width="0.500000" />
<path stroke="#fffbfd" stroke-opacity="0.501961" fill="none" d="M 190.375889 31.728454 Q 173.186899 43.676637, 192.146508 65.794954" stroke-width="0.500000" />
<path stroke="#c999b3" stroke-opacity="0.501961" fill="none" d="M 186.462786 29.321581 Q 197.759925 35.879374, 173.029422 97.044060" stroke-width="0.500000" />
<path stroke="#e1c3d8" stroke-opacity="0.501961" fill="none" d="M 123.361682 91.125336 Q 154.347135 65.524992, 125.071955 34.766556" stroke-width="0.500000" />
<path stroke="#bb94a6" stroke-opacity="0.501961" fill="none" d="M 94.466417 121.272277 Q 184.532433 123.616809, 202.356636 113.092451" stroke-width="0.500000" />
<path stroke="#fffbff" stroke-opacity="0.501961" fill="none" d="M 197.215208 35.691209 Q 187.975882 29.434222, 179.467163 46.229556" stroke-width="0.500000" />
<path stroke="#af89b1" stroke-opacity="0.501961" fill="none" d="M 124.496417 37.008006 Q 85.977584 28.144239, 85.487874 72.974996" stroke-width="0.500000" />
<path stroke="#fff1ff" stroke-opacity="0.501961" fill="none" d="M 112.533367 89.767366 Q 93.318216 76.192782, 99.276146 46.174318" stroke-width="0.500000" />
<path stroke="#b388aa" stroke-opacity="0.501961" fill="none" d="M 142.292267 26.457248 Q 167.714075 90.091667, 154.246123 94.723464" stroke-width="0.500000" />
<path stroke="#cda5bc" stroke-opacity="0.501961" fill="none" d="M 180.895466 99.461658 Q 192.457034 59.070231, 179.257069 35.238327" stroke-width="0.500000" />
<path stroke="#b794c3" stroke-opacity="0.501961" fill="none" d="M 97.014265 47.727807 Q 76.599455 23.606558, 59.699331 56.329263" stroke-width="0.500000" />
<path stroke="#01000e" stroke-opacity="0.501961" fill="none" d="M 16.729198 165.947614 Q -16.000000 -9.795011, 237.726918 1.975409" stroke-width="0.500000" />
<path stroke="#02010e" stroke-opacity="0.501961" fill="none" d="M 24.404906 158.378640 Q -3.335282 -16.000000, 250.357899 20.578021" stroke-width="0.500000" />
<path stroke="#a77ba1" stroke-opacity="0.501961" fill="none" d="M 160.694534 59.669442 Q 119.041176 5.751742, 67.347981 78.286487" stroke-width="0.500000" />
<path stroke="#f6e6ff" stroke-opacity="0.501961" fill="none" d="M 63.804361 116.743777 Q 75.203657 119.273424, 88.527288 116.455124" stroke-width="0.500000" />
<path stroke="#e2a0c5" stroke-opacity="0.501961" fill="none" d="M 177.671427 90.363483 Q 192.656355 97.547435, 203.533530 74.930441" stroke-width="0.500000" />
<path stroke="#edccdf" stroke-opacity="0.501961" fill="none" d="M 148.859742 25.975210 Q 153.862032 59.523819, 149.184001 69.486439" stroke-width="0.500000" />
<path stroke="#03010f" stroke-opacity="0.501961" fill="none" d="M 271.000000 4.753863 Q 12.315840 -4.141007, 1.296273 104.311891" stroke-width="0.500000" />
<path stroke="#e7bcd5" stroke-opacity="0.501961" fill="none" d="M 137.583303 60.692793 Q 140.668894 43.053004, 115.957902 33.731214" stroke-width="0.500000" />
<path stroke="#b596c8" stroke-opacity="0.501961" fill="none" d="M 61.336773 75.112245 Q 106.009215 89.259406, 108.481515 72.476198" stroke-width="0.500000" />
<path stroke="#d1a6c0" stroke-opacity="0.501961" fill="none" d="M 157.721228 57.939606 Q 121.413348 27.969460, 110.851522 37.348765" stroke-width="0.500000" />
<path stroke="#f3c0d2" stroke-opacity="0.501961" fill="none" d="M 172.096903 45.510632 Q 185.826948 41.207505, 196.272388 34.089564" stroke-width="0.500000" />
<path stroke="#f4c8e7" stroke-opacity="0.501961" fill="none" d="M 187.767843 66.010657 Q 171.042154 69.546721, 181.348321 94.549643" stroke-width="0.500000" />
<path stroke="#f2e8ff" stroke-opacity="0.501961" fill="none" d="M 35.267306 108.464925 Q 38.300380 104.368724, 61.724030 111.805913" stroke-width="0.500000" />
<path stroke="#ffffff" stroke-opacity="0.501961" fill="none" d="M 150.334167 92.627575 Q 163.074654 88.967306, 159.451729 82.665610" stroke-width="0.500000" />
<path stroke="#c7b4cd" stroke-opacity="0.501961" fill="none" d="M 168.976960 120.869787 Q 135.218554 124.851414, 68.880698 118.796900" stroke-width="0.500000" />
<path stroke="#e8b7ca" stroke-opacity="0.501961" fill="none" d="M 178.833003 44.299606 Q 204.793319 79.580773, 195.629193 91.742005" stroke-width="0.500000" />
<path stroke="#d8bde6" stroke-opacity="0.501961" fill="none" d="M 63.036684 58.216346 Q 68.924131 46.663694, 77.566817 35.407932" stroke-width="0.500000" />
<path stroke="#ffffff" stroke-opacity="0.501961" fill="none" d="M 110.550049 87.514990 Q 104.950351 81.579331, 109.629507 71.100117" stroke-width="0.500000" />
<path stroke="#ad8bbc" stroke-opacity="0.501961" fill="none" d="M 59.919220 85.224051 Q 96.423445 55.681499, 86.504123 33.975987" stroke-width="0.500000" />
<path stroke="#040210" stroke-opacity="0.501961" fill="none" d="M 40.656440 156.265531 Q 271.000000 173.000000, 253.981331 2.090262" stroke-width="0.500000" />
<path stroke="#02000e" stroke-opacity="0.501961" fill="none" d="M 12.166581 158.786201 Q -16.000000 -14.115333, 196.042251 3.088285" stroke-width="0.500000" />
<path stroke="#ffe4ef" stroke-opacity="0.501961" fill="none" d="M 206.113497 109.579410 Q 204.405242 110.919308, 196.806639 115.839452" stroke-width="0.500000" />
<path stroke="#03010f" stroke-opacity="0.501961" fill="none" d="M 263.767024 27.467949 Q 1.589040 -16.000000, 0.661162 91.111578" stroke-width="0.500000" />
<path stroke="#a48cc5" stroke-opacity="0.501961" fill="none" d="M 33.738304 109.725322 Q 86.875056 108.976684, 92.411472 124.728864" stroke-width="0.500000" />
<path stroke="#b498ba" stroke-opacity="0.501961" fill="none" d="M 139.679062 66.536228 Q 119.735330 109.788971, 91.933028 73.317850" stroke-width="0.500000" />
<path stroke="#fee5f4" stroke-opacity="0.501961" fill="none" d="M 175.121664 92.445604 Q 183.297527 66.580747, 194.557561 62.593251" stroke-width="0.500000" />
<path stroke="#060414" stroke-opacity="0.501961" fill="none" d="M 1.259518 6.279489 Q -16.000000 173.000000, 258.922364 154.430671" stroke-width="0.500000" />
<path stroke="#050311" stroke-opacity="0.501961" fill="none" d="M 252.743194 31.099406 Q 271.000000 173.000000, 5.363121 152.635148" stroke-width="0.500000" />
<path stroke="#01000d" stroke-opacity="0.501961" fill="none" d="M 36.079672 168.965903 Q -16.000000 12.209490, 160.487159 18.316627" stroke-width="0.500000" />
<path stroke="#03020f" stroke-opacity="0.501961" fill="none" d="M -9.715273 4.759993 Q 271.000000 -16.000000, 253.528841 109.099423" stroke-width="0.500000" />
<path stroke="#ece4ff" stroke-opacity="0.501961" fill="none" d="M 35.172036 110.524412 Q 39.389230 103.233080, 51.692488 108.382552" stroke-width="0.500000" />
<path stroke="#dec7e1" stroke-opacity="0.501961" fill="none" d="M 101.144621 42.434837 Q 91.454597 92.541750, 124.671303 91.149399" stroke-width="0.500000" />
<path stroke="#02010f" stroke-opacity="0.501961" fill="none" d="M 164.634349 3.305451 Q -13.361680 -16.000000, 9.427675 168.351552" stroke-width="0.500000" />
<path stroke="#dbcbf0" stroke-opacity="0.501961" fill="none" d="M 56.777220 82.631786 Q 65.438678 83.680292, 72.801341 66.825828" stroke-width="0.500000" />
<path stroke="#050312" stroke-opacity="0.501961" fill="none" d="M 1.225378 44.870635 Q -11.568944 167.364899, 255.864537 157.134295" stroke-width="0.500000" />
<path stroke="#caa7d6" stroke-opacity="0.501961" fill="none" d="M 67.332377 58.627536 Q 64.141708 34.630438, 85.478285 36.455383" stroke-width="0.500000" />
<path stroke="#ffffff" stroke-opacity="0.501961" fill="none" d="M 163.184676 79.842425 Q 161.250406 85.313445, 153.725236 91.827508" stroke-width="0.500000" />
<path stroke="#edd9f2" stroke-opacity="0.501961" fill="none" d="M 84.875013 62.232675 Q 93.127037 40.432347, 87.981855 38.698994" stroke-width="0.500000" />
<path stroke="#050210" stroke-opacity="0.501961" fill="none" d="M -2.507266 5.837922 Q 271.000000 -16.000000, 250.496782 127.078692" stroke-width="0.500000" />
<path stroke="#040210" stroke-opacity="0.501961" fill="none" d="M 15.286111 169.926293 Q -16.000000 -14.934099, 221.062730 6.507223" stroke-width="0.500000" />
<path stroke="#ffe9f3" stroke-opacity="0.501961" fill="none" d="M 148.282055 26.560636 Q 151.526706 52.438098, 153.194353 64.583306" stroke-width="0.500000" />
<path stroke="#c0869f" stroke-opacity="0.501961" fill="none" d="M 177.172037 79.767353 Q 209.795152 59.245381, 194.231543 37.293865" stroke-width="0.500000" />
<path stroke="#02010f" stroke-opacity="0.501961" fill="none" d="M 132.466395 9.086591 Q -5.447009 -16.000000, 4.514349 153.888599" stroke-width="0.500000" />
<path stroke="#a27797" stroke-opacity="0.501961" fill="none" d="M 149.827608 22.657047 Q 144.581195 78.792880, 160.407760 96.932619" stroke-width="0.500000" />
<path stroke="#d2a2bb" stroke-opacity="0.501961" fill="none" d="M 201.335451 48.285295 Q 172.543720 86.220457, 185.360833 93.260120" stroke-width="0.500000" />
<path stroke="#e0adbf" stroke-opacity="0.501961" fill="none" d="M 172.266651 43.431862 Q 179.244967 39.403958, 202.585226 87.041229" stroke-width="0.500000" />
<path stroke="#e2b7ca" stroke-opacity="0.501961" fill="none" d="M 134.376174 54.543950 Q 139.734635 45.137860, 144.256399 27.625804" stroke-width="0.500000" />
<path stroke="#040210" stroke-opacity="0.501961" fill="none" d="M 87.773864 155.898499 Q 271.000000 173.000000, 251.160908 -5.594950" stroke-width="0.500000" />
<path stroke="#050311" stroke-opacity="0.501961" fill="none" d="M 271.000000 26.578424 Q 11.454253 -16.000000, -1.686076 75.080498" stroke-width="0.500000" />
<path stroke="#bf8daf" stroke-opacity="0.501961" fill="none" d="M 153.600308 94.695355 Q 158.136870 47.336139, 145.290934 26.274193" stroke-width="0.500000" />
<path stroke="#f8deec" stroke-opacity="0.501961" fill="none" d="M 107.960370 38.787627 Q 123.616800 26.806289, 138.079654 50.862613" stroke-width="0.500000" />
<path stroke="#040311" stroke-opacity="0.501961" fill="none" d="M -16.000000 171.933691 Q 30.353912 103.026899, 266.852233 159.531626" stroke-width="0.500000" />
<path stroke="#070617" stroke-opacity="0.501961" fill="none" d="M 271.000000 129.642084 Q 94.907963 169.646702, -8.575452 82.584224" stroke-width="0.500000" />
<path stroke="#b783a3" stroke-opacity="0.501961" fill="none" d="M 180.424371 105.359656 Q 182.486884 37.018818, 192.109265 34.341830" stroke-width="0.500000" />
<path stroke="#060413" stroke-opacity="0.501961" fill="none" d="M 0.597841 51.937663 Q 11.601372 173.000000, 250.157723 146.522979" stroke-width="0.500000" />
<path stroke="#f8e7ff" stroke-opacity="0.501961" fill="none" d="M 65.368909 55.579175 Q 66.404817 48.831670, 74.374931 37.549555" stroke-width="0.500000" />
<path stroke="#f4e4ff" stroke-opacity="0.501961" fill="none" d="M 80.438244 81.971258 Q 71.514273 79.801866, 61.365348 79.135651" stroke-width="0.500000" />
<path stroke="#070411" stroke-opacity="0.501961" fill="none" d="M 256.189988 32.350767 Q 9.153514 -16.000000, 16.999306 132.120737" stroke-width="0.500000" />
<path stroke="#040210" stroke-opacity="0.501961" fill="none" d="M 240.401732 3.132728 Q 271.000000 157.857376, 109.394992 155.138987" stroke-width="0.500000" />
<path stroke="#060514" stroke-opacity="0.501961" fill="none" d="M 5.430747 26.417926 Q -15.768484 173.000000, 251.183582 140.134103" stroke-width="0.500000" />
<path stroke="#040210" stroke-opacity="0.501961" fill="none" d="M 13.794737 173.000000 Q -11.148743 -10.134716, 162.778560 21.142941" stroke-width="0.500000" />
<path stroke="#060311" stroke-opacity="0.501961" fill="none" d="M 2.632784 8.490328 Q 215.139288 3.173891, 260.787638 50.784587" stroke-width="0.500000" />
<path stroke="#edcad5" stroke-opacity="0.501961" fill="none" d="M 190.479010 32.645775 Q 170.799391 49.020724, 205.984106 76.234290" stroke-width="0.500000" />
<path stroke="#9d8dc0" stroke-opacity="0.501961" fill="none" d="M 34.706515 108.162221 Q 59.482385 121.266525, 86.988223 120.057916" stroke-width="0.500000" />
<path stroke="#efc3d1" stroke-opacity="0.501961" fill="none" d="M 197.653991 36.125361 Q 187.315197 31.096971, 172.889147 46.692062" stroke-width="0.500000" />
<path stroke="#b4a5e1" stroke-opacity="0.501961" fill="none" d="M 34.782449 114.260358 Q 41.276427 97.319263, 53.741875 110.868892" stroke-width="0.500000" />
<path stroke="#060413" stroke-opacity="0.501961" fill="none" d="M 271.000000 148.407094 Q -6.752059 173.000000, -0.992948 78.214510" stroke-width="0.500000" />
<path stroke="#080412" stroke-opacity="0.501961" fill="none" d="M 249.721047 106.994741 Q 249.301952 -16.000000, -1.095609 18.265311" stroke-width="0.500000" />
<path stroke="#c699b3" stroke-opacity="0.501961" fill="none" d="M 129.881065 42.562487 Q 149.144490 23.933527, 152.319518 26.529834" stroke-width="0.500000" />
<path stroke="#e7c1d7" stroke-opacity="0.501961" fill="none" d="M 149.942367 61.490382 Q 152.148387 46.208527, 149.151048 27.003649" stroke-width="0.500000" />
<path stroke="#ad769e" stroke-opacity="0.501961" fill="none" d="M 150.960385 96.767883 Q 152.458728 82.927107, 154.527919 45.411640" stroke-width="0.500000" />
<path stroke="#060411" stroke-opacity="0.501961" fill="none" d="M 260.381079 9.797029 Q -16.000000 -15.102565, 22.424233 173.000000" stroke-width="0.500000" />
<path stroke="#060311" stroke-opacity="0.501961" fill="none" d="M 110.407274 134.141562 Q 256.256440 173.000000, 249.808097 -14.634109" stroke-width="0.500000" />
<path stroke="#070412" stroke-opacity="0.501961" fill="none" d="M 254.569565 114.329320 Q 271.000000 -12.902791, -15.532300 9.386078" stroke-width="0.500000" />
<path stroke="#b89dca" stroke-opacity="0.501961" fill="none" d="M 87.523371 68.058242 Q 110.508240 72.976884, 108.411275 93.660388" stroke-width="0.500000" />
<path stroke="#ffecee" stroke-opacity="0.501961" fill="none" d="M 187.915686 58.443522 Q 173.639998 37.476149, 191.374258 32.989500" stroke-width="0.500000" />
<path stroke="#040211" stroke-opacity="0.501961" fill="none" d="M 219.064832 1.166560 Q 271.000000 172.413890, 115.519803 156.479097" stroke-width="0.500000" />
<path stroke="#fff1fd" stroke-opacity="0.501961" fill="none" d="M 190.200417 67.800064 Q 171.527664 81.544124, 181.719608 93.107241" stroke-width="0.500000" />
<path stroke="#0a0513" stroke-opacity="0.501961" fill="none" d="M 254.332666 126.108894 Q 271.000000 -15.430743, -1.607327 22.056615" stroke-width="0.500000" />
<path stroke="#040210" stroke-opacity="0.501961" fill="none" d="M 1.309165 173.000000 Q -8.067935 -16.000000, 114.168126 8.092474" stroke-width="0.500000" />
<path stroke="#03020f" stroke-opacity="0.501961" fill="none" d="M 19.412220 161.658197 Q 34.158457 -9.711489, 144.939353 23.140824" stroke-width="0.500000" />
<path stroke="#c19ed0" stroke-opacity="0.501961" fill="none" d="M 98.789170 56.916393 Q 94.085293 83.611743, 112.589136 90.675797" stroke-width="0.500000" />
<path stroke="#080615" stroke-opacity="0.501961" fill="none" d="M 2.942854 51.891937 Q -0.103469 173.000000, 260.446456 140.706209" stroke-width="0.500000" />
<path stroke="#e9c4e9" stroke-opacity="0.501961" fill="none" d="M 148.618217 92.364562 Q 159.522486 94.833874, 162.351254 80.836172" stroke-width="0.500000" />
<path stroke="#bfa9ce" stroke-opacity="0.501961" fill="none" d="M 113.199396 90.348587 Q 112.047805 79.633869, 60.322486 78.760560" stroke-width="0.500000" />
<path stroke="#040310" stroke-opacity="0.501961" fill="none" d="M 254.516937 20.198949 Q 271.000000 170.740162, 115.545053 140.032964" stroke-width="0.500000" />
<path stroke="#9d627b" stroke-opacity="0.501961" fill="none" d="M 184.174985 30.826723 Q 211.227006 44.559655, 191.886577 93.450785" stroke-width="0.500000" />
<path stroke="#070513" stroke-opacity="0.501961" fill="none" d="M 4.218972 133.835141 Q -0.890296 -9.809706, 271.000000 11.554153" stroke-width="0.500000" />
<path stroke="#fce1fe" stroke-opacity="0.501961" fill="none" d="M 152.482389 90.736948 Q 154.089003 88.933265, 163.116540 81.637486" stroke-width="0.500000" />
<path stroke="#efe3fc" stroke-opacity="0.501961" fill="none" d="M 65.310587 84.337706 Q 61.416868 79.782637, 78.024454 66.114144" stroke-width="0.500000" />
<path stroke="#040210" stroke-opacity="0.501961" fill="none" d="M 219.354260 -2.382057 Q 271.000000 161.130514, 157.276359 157.698266" stroke-width="0.500000" />
<path stroke="#070412" stroke-opacity="0.501961" fill="none" d="M -16.000000 4.066601 Q 263.717762 -16.000000, 255.661505 85.420246" stroke-width="0.500000" />
<path stroke="#d2c4e2" stroke-opacity="0.501961" fill="none" d="M 100.262920 120.254721 Q 69.310420 121.367727, 61.550536 111.182590" stroke-width="0.500000" />
<path stroke="#03010f" stroke-opacity="0.501961" fill="none" d="M 271.000000 -6.347307 Q 160.975831 40.356467, 268.315616 173.000000" stroke-width="0.500000" />
<path stroke="#060412" stroke-opacity="0.501961" fill="none" d="M 18.389637 159.870753 Q -8.296411 -16.000000, 168.442258 5.881448" stroke-width="0.500000" />
<path stroke="#faeaec" stroke-opacity="0.501961" fill="none" d="M 169.161155 43.860443 Q 184.875694 42.785255, 187.490493 63.253664" stroke-width="0.500000" />
<path stroke="#060312" stroke-opacity="0.501961" fill="none" d="M 33.080330 158.181896 Q -3.598558 -16.000000, 151.847457 17.774906" stroke-width="0.500000" />
<path stroke="#090613" stroke-opacity="0.501961" fill="none" d="M 263.462454 58.156188 Q 229.502503 -16.000000, -1.434855 46.154061" stroke-width="0.500000" />
<path stroke="#d7a7c4" stroke-opacity="0.501961" fill="none" d="M 185.499556 93.521650 Q 168.519682 84.654471, 195.489082 54.316426" stroke-width="0.500000" />
<path stroke="#cba6c1" stroke-opacity="0.501961" fill="none" d="M 186.638778 120.258117 Q 157.528833 123.503774, 152.543624 121.197458" stroke-width="0.500000" />
<path stroke="#d9b9c5" stroke-opacity="0.501961" fill="none" d="M 171.412618 85.303799 Q 210.085524 49.528851, 196.853926 37.038604" stroke-width="0.500000" />
<path stroke="#080513" stroke-opacity="0.501961" fill="none" d="M 12.878740 8.319661 Q 270.124735 -16.000000, 252.024914 118.830372" stroke-width="0.500000" />
<path stroke="#090615" stroke-opacity="0.501961" fill="none" d="M 257.423019 27.098998 Q 221.721334 161.106747, 19.224623 89.250227" stroke-width="0.500000" />
<path stroke="#090615" stroke-opacity="0.501961" fill="none" d="M 1.255510 5.854642 Q 32.575637 164.895595, 243.382031 86.090471" stroke-width="0.500000" />
<path stroke="#f9f0f3" stroke-opacity="0.501961" fill="none" d="M 112.013652 89.338053 Q 103.396521 84.315082, 110.626016 70.732891" stroke-width="0.500000" />
<path stroke="#b5a3d1" stroke-opacity="0.501961" fill="none" d="M 68.559984 122.738922 Q 60.607520 105.616477, 35.276478 109.359244" stroke-width="0.500000" />
<path stroke="#f4e1f8" stroke-opacity="0.501961" fill="none" d="M 90.783451 37.225736 Q 90.508673 47.971302, 87.832732 53.816316" stroke-width="0.500000" />
<path stroke="#080614" stroke-opacity="0.501961" fill="none" d="M 252.868257 91.263320 Q 250.716446 171.573056, -6.788802 147.584658" stroke-width="0.500000" />
<path stroke="#040210" stroke-opacity="0.501961" fill="none" d="M 252.205770 155.104089 Q 166.754430 102.584167, 271.000000 -16.000000" stroke-width="0.500000" />
<path stroke="#090615" stroke-opacity="0.501961" fill="none" d="M 70.753527 150.340210 Q 256.942497 162.057513, 241.433984 16.735004" stroke-width="0.500000" />
<path stroke="#e2bcca" stroke-opacity="0.501961" fill="none" d="M 135.416971 53.390052 Q 140.154060 36.565966, 147.095077 27.260355" stroke-width="0.500000" />
<path stroke="#caa4b3" stroke-opacity="0.501961" fill="none" d="M 208.789727 106.638567 Q 189.646867 125.674393, 159.919810 119.414965" stroke-width="0.500000" />
<path stroke="#080514" stroke-opacity="0.501961" fill="none" d="M 240.185596 143.979765 Q -4.529899 171.393277, 2.346059 73.582664" stroke-width="0.500000" />
<path stroke="#070513" stroke-opacity="0.501961" fill="none" d="M -16.000000 28.977694 Q 232.059437 -16.000000, 266.808631 29.694562" stroke-width="0.500000" />
<path stroke="#030210" stroke-opacity="0.501961" fill="none" d="M 214.932472 1.435175 Q 221.653169 93.334882, 260.343602 160.977195" stroke-width="0.500000" />
<path stroke="#080514" stroke-opacity="0.501961" fill="none" d="M 262.068094 17.981968 Q -12.347736 -10.858690, 1.751357 137.163471" stroke-width="0.500000" />
<path stroke="#956f99" stroke-opacity="0.501961" fill="none" d="M 103.326228 45.134664 Q 88.788333 88.932871, 90.985782 90.023884" stroke-width="0.500000" />
<path stroke="#080614" stroke-opacity="0.501961" fill="none" d="M 271.000000 147.507244 Q 263.270386 133.184062, -7.110306 142.706770" stroke-width="0.500000" />
<path stroke="#0a0716" stroke-opacity="0.501961" fill="none" d="M 255.667319 71.794929 Q 251.140887 168.253675, -12.109438 122.459925" stroke-width="0.500000" />
<path stroke="#070614" stroke-opacity="0.501961" fill="none" d="M 271.000000 149.899418 Q 2.021897 173.000000, -1.382736 87.523525" stroke-width="0.500000" />
<path stroke="#fff5f3" stroke-opacity="0.501961" fill="none" d="M 182.502326 46.181162 Q 182.674931 28.187831, 197.538913 37.035325" stroke-width="0.500000" />
<path stroke="#e4b6cf" stroke-opacity="0.501961" fill="none" d="M 176.073529 90.074678 Q 197.088137 100.505415, 202.718489 76.300479" stroke-width="0.500000" />
<path stroke="#c09ac7" stroke-opacity="0.501961" fill="none" d="M 88.735344 35.501135 Q 64.123163 42.633286, 64.397059 53.522408" stroke-width="0.500000" />
<path stroke="#b37994" stroke-opacity="0.501961" fill="none" d="M 190.102194 29.048400 Q 163.695875 52.597477, 205.035781 84.150997" stroke-width="0.500000" />
<path stroke="#dac3d4" stroke-opacity="0.501961" fill="none" d="M 137.639856 65.444625 Q 138.062290 82.734508, 116.348977 92.583651" stroke-width="0.500000" />
<path stroke="#0b0614" stroke-opacity="0.501961" fill="none" d="M 122.273847 94.433747 Q 210.282336 121.077891, 267.387091 79.456485" stroke-width="0.500000" />
<path stroke="#7a5c92" stroke-opacity="0.501961" fill="none" d="M 115.410793 95.324400 Q 104.126975 80.119868, 60.774951 82.293895" stroke-width="0.500000" />
<path stroke="#090615" stroke-opacity="0.501961" fill="none" d="M 169.219702 -1.144761 Q -16.000000 -6.225432, 42.917071 173.000000" stroke-width="0.500000" />
<path stroke="#090614" stroke-opacity="0.501961" fill="none" d="M -7.468832 15.510420 Q 261.595322 -14.453976, 254.466522 87.561129" stroke-width="0.500000" />
<path stroke="#0b0716" stroke-opacity="0.501961" fill="none" d="M 245.062739 77.733152 Q 44.537251 173.000000, 1.118101 -0.996361" stroke-width="0.500000" />
<path stroke="#f6e2fa" stroke-opacity="0.501961" fill="none" d="M 153.989942 84.414534 Q 149.953506 91.584724, 160.018012 93.480239" stroke-width="0.500000" />
<path stroke="#050310" stroke-opacity="0.501961" fill="none" d="M 263.930792 165.885518 Q 160.794609 21.584082, 271.000000 -12.056437" stroke-width="0.500000" />
<path stroke="#070513" stroke-opacity="0.501961" fill="none" d="M 242.540117 3.528611 Q 271.000000 173.000000, 119.148866 138.062475" stroke-width="0.500000" />
<path stroke="#9b7eaf" stroke-opacity="0.501961" fill="none" d="M 117.471811 90.197882 Q 81.896091 43.302230, 57.657255 87.852978" stroke-width="0.500000" />
<path stroke="#916c9b" stroke-opacity="0.501961" fill="none" d="M 85.198389 74.391869 Q 89.807975 50.911255, 82.833577 33.922333" stroke-width="0.500000" />
<path stroke="#ffffff" stroke-opacity="0.501961" fill="none" d="M 36.989584 108.841467 Q 45.280368 105.971971, 50.556032 108.320178" stroke-width="0.500000" />
<path stroke="#040311" stroke-opacity="0.501961" fill="none" d="M 258.574334 160.017206 Q 168.032805 73.110878, 271.000000 -14.674005" stroke-width="0.500000" />
<path stroke="#050312" stroke-opacity="0.501961" fill="none" d="M 10.967608 162.964272 Q -13.552009 -13.106185, 98.821840 2.501957" stroke-width="0.500000" />
<path stroke="#080614" stroke-opacity="0.501961" fill="none" d="M 256.506837 152.506695 Q 189.872795 160.320537, 0.802147 150.841418" stroke-width="0.500000" />
<path stroke="#0a0615" stroke-opacity="0.501961" fill="none" d="M 24.482692 140.784186 Q 9.407005 -16.000000, 261.060087 23.125717" stroke-width="0.500000" />
<path stroke="#d6a4be" stroke-opacity="0.501961" fill="none" d="M 172.512103 73.897610 Q 190.346111 59.390271, 202.512050 71.947352" stroke-width="0.500000" />
<path stroke="#e1c0e1" stroke-opacity="0.501961" fill="none" d="M 151.329307 84.823602 Q 152.559247 87.909453, 160.787093 93.762975" stroke-width="0.500000" />
<path stroke="#eee6f8" stroke-opacity="0.501961" fill="none" d="M 60.996191 75.818451 Q 62.220060 81.753813, 78.019015 80.431141" stroke-width="0.500000" />
<path stroke="#090715" stroke-opacity="0.501961" fill="none" d="M 271.000000 128.527141 Q 14.540742 165.775952, -16.000000 133.441062" stroke-width="0.500000" />
<path stroke="#050311" stroke-opacity="0.501961" fill="none" d="M 257.651985 154.824458 Q 171.857198 24.190094, 260.897047 -2.034731" stroke-width="0.500000" />
<path stroke="#070513" stroke-opacity="0.501961" fill="none" d="M 243.568488 -3.153618 Q 269.717320 173.000000, 146.904487 156.328457" stroke-width="0.500000" />
<path stroke="#cba9b6" stroke-opacity="0.501961" fill="none" d="M 192.871934 86.520494 Q 188.682451 51.056499, 174.716848 41.990294" stroke-width="0.500000" />
<path stroke="#ddccf1" stroke-opacity="0.501961" fill="none" d="M 60.091207 52.290053 Q 65.590928 49.225084, 67.544073 55.916122" stroke-width="0.500000" />
<path stroke="#f2d4dc" stroke-opacity="0.501961" fill="none" d="M 187.254858 56.036376 Q 210.123706 79.352528, 193.827024 88.739890" stroke-width="0.500000" />
<path stroke="#d6c1da" stroke-opacity="0.501961" fill="none" d="M 89.266215 37.392973 Q 71.622772 31.880623, 63.921775 58.660722" stroke-width="0.500000" />
<path stroke="#050310" stroke-opacity="0.501961" fill="none" d="M 161.485503 16.765792 Q 28.092878 50.906570, -4.526913 -5.315500" stroke-width="0.500000" />
<path stroke="#8e627b" stroke-opacity="0.501961" fill="none" d="M 174.301601 -3.129218 Q 182.395073 41.375341, 179.532136 96.671321" stroke-width="0.500000" />
<path stroke="#050311" stroke-opacity="0.501961" fill="none" d="M 261.539346 173.000000 Q 225.570077 15.192732, 171.254792 -0.426479" stroke-width="0.500000" />
<path stroke="#c398c6" stroke-opacity="0.501961" fill="none" d="M 80.760029 37.098516 Q 96.061027 44.537058, 88.006495 55.064045" stroke-width="0.500000" />
<path stroke="#fbe1ea" stroke-opacity="0.501961" fill="none" d="M 185.362224 29.405053 Q 186.260495 49.093097, 172.290199 43.519842" stroke-width="0.500000" />
<path stroke="#d9b5c5" stroke-opacity="0.501961" fill="none" d="M 205.377689 110.446824 Q 193.515034 121.211295, 161.326142 121.896512" stroke-width="0.500000" />
<path stroke="#a36e93" stroke-opacity="0.501961" fill="none" d="M 157.626638 48.116056 Q 144.158364 56.878223, 114.774780 31.181226" stroke-width="0.500000" />
<path stroke="#060412" stroke-opacity="0.501961" fill="none" d="M 5.426237 156.577019 Q -1.120541 -16.000000, 118.838609 24.194426" stroke-width="0.500000" />
<path stroke="#090615" stroke-opacity="0.501961" fill="none" d="M 255.881961 5.071151 Q 2.122341 -16.000000, 16.519729 153.877720" stroke-width="0.500000" />
<path stroke="#ffffff" stroke-opacity="0.501961" fill="none" d="M 110.480195 85.928287 Q 102.252784 85.216733, 98.100312 63.976507" stroke-width="0.500000" />
<path stroke="#fde7f6" stroke-opacity="0.501961" fill="none" d="M 129.638297 39.356996 Q 118.194750 31.123788, 109.581206 37.767884" stroke-width="0.500000" />
<path stroke="#070514" stroke-opacity="0.501961" fill="none" d="M -10.974338 173.000000 Q 92.909675 44.023906, -16.000000 -9.550380" stroke-width="0.500000" />
<path stroke="#896f93" stroke-opacity="0.501961" fill="none" d="M 94.065903 112.178966 Q 103.613259 77.022109, 99.584975 45.278687" stroke-width="0.500000" />
<path stroke="#0a0816" stroke-opacity="0.501961" fill="none" d="M 271.000000 141.230724 Q 245.192564 134.168916, 3.968264 131.715558" stroke-width="0.500000" />
<path stroke="#070513" stroke-opacity="0.501961" fill="none" d="M 2.070577 148.985279 Q -16.000000 -12.433500, 128.837137 29.382079" stroke-width="0.500000" />
<path stroke="#d1b0d5" stroke-opacity="0.501961" fill="none" d="M 154.559880 96.485705 Q 153.455176 93.608737, 161.957417 78.190696" stroke-width="0.500000" />
<path stroke="#0a0615" stroke-opacity="0.501961" fill="none" d="M 148.995763 25.937264 Q 1.443074 -9.158289, 16.424687 162.154181" stroke-width="0.500000" />
<path stroke="#0c0918" stroke-opacity="0.501961" fill="none" d="M 238.059261 -16.000000 Q 252.004732 164.980723, 44.237274 97.448930" stroke-width="0.500000" />
<path stroke="#b6adda" stroke-opacity="0.501961" fill="none" d="M 32.817704 113.539998 Q 39.377884 110.838012, 43.554679 100.772110" stroke-width="0.500000" />
<path stroke="#b6789f" stroke-opacity="0.501961" fill="none" d="M 150.648465 63.413859 Q 162.385235 49.912202, 146.355504 36.038968" stroke-width="0.500000" />
</g>
</svg>