<svg height="700" width="1024" xmlns="http://www.w3.org/2000/svg"><path d="m0 0h1024v700h-1024z" fill="#0c3a42"/><g fill="none" stroke-opacity=".501961" stroke-width=".5" transform="matrix(4 0 0 4 2 2)"><path d="m193.609609 42.542887q-14.015407 93.34137-96.636937 55.098482" stroke="#a8ffff"/><path d="m202.479925 133.179701q-99.673144-33.560787-25.926176-102.420887" stroke="#8effff"/><path d="m195.168619 42.166726q-16.182518 108.721549-99.923629 51.482027" stroke="#87ffff"/><path d="m103.865765 71.625958q98.097105-16.749556 67.728251 76.46224" stroke="#a0ffff"/><path d="m193.783514 134.159165q-14.553641-103.557343-99.74629-39.05829" stroke="#81ffff"/><path d="m219.175867 91.568292q-57.602593-77.02917-120.750221 22.337555" stroke="#6efcff"/><path d="m216.624719 66.743022q-97.702227.238906-97.954807 67.100341" stroke="#a1ffff"/><path d="m89.781544 107.925754q93.804965 20.072681 100.704123-64.662423" stroke="#a6ffff"/><path d="m170.645397 150.310327q76.585799-55.281032-22.266062-113.621916" stroke="#7ff"/><path d="m173.203509 150.711728q19.772869-101.197953-73.034862-74.760636" stroke="#95ffff"/><path d="m95.237065 97.773624q87.734565 52.479002 101.084031-55.186177" stroke="#84ffff"/><path d="m175.984409 143.754299q60.464241-54.861263-26.248876-104.448015" stroke="#80ffff"/><path d="m102.921822 86.996693q102.241747-33.046937 103.957213 36.656536" stroke="#91ffff"/><path d="m184.717467 146.864012q31.80974-102.482442-70.411524-89.387434" stroke="#6ffbff"/><path d="m219.842982 92.004929q-65.618501-95.753044-122.50387 7.370555" stroke="#5ce9ff"/><path d="m187.838656 41.556683q.450506 85.232275-94.536195 53.976625" stroke="#9bffff"/><path d="m102.232214 119.765757q65.700729-102.186544 113.859298-47.328776" stroke="#80f9ff"/><path d="m132.587982 141.428407q-28.744835-78.265711 86.145128-76.117065" stroke="#86ffff"/><path d="m174.61851 145.545072q29.352443-96.992726-53.122681-87.948599" stroke="#8affff"/><path d="m94.242933 97.068367q81.376534-77.400385 113.60724 12.408054" stroke="#76f4ff"/><path d="m125.773644 135.837213q113.183671 1.432592 74.832747-87.549416" stroke="#71f0ff"/><path d="m93.825624 111.644403q104.630114 11.477531 103.071811-67.137078" stroke="#7df6ff"/><path d="m194.26509 149.404602q-99.095234-41.500505-18.001049-115.705087" stroke="#7ae9ff"/><path d="m98.689981 90.098037q102.569355-29.48341 111.896807 20.094155" stroke="#8cffff"/><path d="m165.857049 144.273321q-63.364544-76.271419 34.770339-97.892146" stroke="#7ffeff"/><path d="m219.119441 86.224745q-107.546864-35.483182-122.214096 25.384714" stroke="#66f6ff"/><path d="m195.292439 41.798897q4.750337 85.661229-102.153076 49.839621" stroke="#81f8ff"/><path d="m202.229724 126.316021q-99.0573.568987-78.893625-72.841175" stroke="#8dfeff"/><path d="m129.061167 133.723701q-35.065966-97.714359 64.144894-87.743862" stroke="#64eeff"/><path d="m183.481144 143.789209q71.390005-71.702647-33.502262-107.298787" stroke="#60e5ff"/><path d="m220.347327 81.717961q-78.333697 62.827811-100.912562-25.490598" stroke="#7bffff"/><path d="m213.313376 89.90485q-79.795997-40.692533-92.585361 44.387829" stroke="#85fdff"/><path d="m120.800213 54.423807q19.602471 85.260268 97.609278 32.035894" stroke="#76fdff"/><path d="m167.420741 148.451368q-23.685232-3.44974-4.572501-114.195901" stroke="#84faff"/><path d="m112.081134 59.690216q103.328894-14.85894 70.203556 87.385432" stroke="#6becff"/><path d="m186.288179 145.633691q-68.599497-65.131333 20.50268-93.935506" stroke="#76f4ff"/><path d="m114.991171 112.076102q62.752421-80.453486 101.110629-18.420815" stroke="#87feff"/><path d="m120.190986 54.694013q74.337572-10.07561 52.623108 86.910787" stroke="#89ffff"/><path d="m130.444045 138.941652q-32.679178-95.44318 73.642523-86.57532" stroke="#60e8ff"/><path d="m100.845113 79.890526q86.544469-33.946526 90.472534 61.200313" stroke="#81f8ff"/><path d="m211.165984 120.104002q-79.054084 18.931532-70.42097-78.99899" stroke="#73f4ff"/><path d="m185.6973 46.729851q18.074724 64.23558-91.953897 64.78456" stroke="#9ffcff"/><path d="m159.003054 148.418266q-16.489783-96.21037 54.576773-84.009122" stroke="#8af5ff"/><path d="m189.944989 140.653738q-4.845762-100.126901-93.481963-48.083134" stroke="#85f5ff"/><path d="m141.938601 37.838249q106.705649 39.309788 27.919596 115.684173" stroke="#57ddff"/><path d="m120.765201 135.585379q102.10517-17.831536 39.521394-101.665104" stroke="#7be8ff"/><path d="m215.679393 67.403967q-109.106934 60.690023-120.61739 34.005943" stroke="#72f0ff"/><path d="m159.862947 32.092629q.443065 14.762234.045898 112.732619" stroke="#90f3ff"/><path d="m176.957912 32.754522q-84.325637 69.035029 13.570827 113.106187" stroke="#77dfff"/><path d="m198.868405 47.05515q43.352119 83.312045-62.274472 91.456602" stroke="#66deff"/><path d="m93.450544 109.419269q101.929813 53.102028 122.196941-41.072437" stroke="#4ad2ff"/><path d="m204.434088 51.329644q-109.162367 12.669408-70.765447 86.630832" stroke="#73eaff"/><path d="m220.986235 95.896361q-45.771366-101.632989-119.421557-11.826535" stroke="#4aceff"/><path d="m96.339066 95.041979q86.290484 30.050397 96.31263-53.234505" stroke="#86f0ff"/><path d="m145.643648 37.210044q-21.177902 102.939798 58.074462 90.591812" stroke="#69e8ff"/><path d="m125.958653 48.378878q-22.195005 80.681365 78.711694 76.369936" stroke="#75ecff"/><path d="m181.695392 143.923055q10.097796-99.271676-83.332303-68.210857" stroke="#72ecff"/><path d="m100.167891 124.102788q27.791467-115.108006 111.741638-41.503515" stroke="#53d7ff"/><path d="m91.52831 100.035606q76.098804 81.496574 118.473404-34.292011" stroke="#46cdff"/><path d="m150.998182 36.902672q100.736788 53.137624 17.213134 118.743776" stroke="#3fcfff"/><path d="m212.645742 104.936327q-86.022673-67.060566-120.279595 4.488894" stroke="#76e7ff"/><path d="m118.303969 64.13925q82.825251-29.946436 85.741675 59.785947" stroke="#7be8ff"/><path d="m213.407735 91.704351q-76.776633 48.50326-95.324925-37.746161" stroke="#64e5ff"/><path d="m213.659398 67.323415q-102.554388 54.242583-116.743253 35.297977" stroke="#6aebff"/><path d="m203.803221 128.222713q-3.974736-71.967203-107.679929-34.725167" stroke="#51dcff"/><path d="m99.570433 113.787512q108.173192 6.366794 92.431945-68.255541" stroke="#71e6ff"/><path d="m161.471837 35.811105q21.846565 97.636518 5.413975 120.23911" stroke="#6ee7ff"/><path d="m143.780088 140.340818q-56.83612-82.854111 36.185116-102.680212" stroke="#62d7ff"/><path d="m168.467332 150.420058q-26.919494-1.230163-6.778269-118.077316" stroke="#77e6ff"/><path d="m177.510597 35.086082q49.332767 96.862404-60.352713 96.039101" stroke="#4dd0ff"/><path d="m125.124596 136.053648q99.749301-7.301125 48.690785-104.021024" stroke="#49cfff"/><path d="m98.709172 74.216337q75.87647 41.087953 119.314276-8.538654" stroke="#6ae1ff"/><path d="m110.567755 56.609757q96.958038-8.649024 61.067033 92.883717" stroke="#72e0ff"/><path d="m189.66006 143.713962q27.756445-86.095886-80.277902-74.756464" stroke="#46d4ff"/><path d="m112.01247 129.121049q43.635469-94.103306 106.942237-34.787762" stroke="#6fd9ff"/><path d="m219.682956 86.45779q-71.830386 75.95186-105.560177-23.753656" stroke="#44cfff"/><path d="m142.922652 144.036486q-66.375742-74.117074 28.483417-108.22374" stroke="#58cdff"/><path d="m93.771014 96.506811q102.147265 38.115635 97.830627-56.106807" stroke="#75e1ff"/><path d="m100.762011 74.537927q15.053146 26.746251 117.222411 16.698231" stroke="#5ae4ff"/><path d="m169.248602 143.212439q27.904464-93.872344-52.369819-83.596965" stroke="#79e4ff"/><path d="m111.632643 123.624093q31.513853-106.724935 107.096476-45.68569" stroke="#54d4ff"/><path d="m175.497706 146.051864q33.193863-100.211496-59.092313-90.403496" stroke="#60dbff"/><path d="m157.722824 38.280641q99.463664 30.312128 24.126699 109.10666" stroke="#50c7ff"/><path d="m164.768115 156.800765q83.912225-81.770827-27.699665-113.952546" stroke="#49c9ff"/><path d="m216.012363 82.610985q-71.861163 58.351377-93.625978-32.275798" stroke="#53e1ff"/><path d="m172.636861 33.176288q-69.650408 67.022155 28.507929 101.513523" stroke="#6fdcff"/><path d="m199.6593 50.287345q28.960745 94.6748-85.745557 81.120017" stroke="#40c5ff"/><path d="m129.470254 135.375555q104.793242 13.918692 72.049071-83.447751" stroke="#50c9ff"/><path d="m215.767914 72.735146q-81.317719-31.856528-88.901297 60.874922" stroke="#59daff"/><path d="m217.569531 92.204q-70.120313-88.602219-123.41362 19.090285" stroke="#44c4ff"/><path d="m198.619921 44.450653q-9.39546 116.525747-102.786942 64.234339" stroke="#39c1ff"/><path d="m92.501946 108.553069q48.88488-119.32097 123.652057-37.050196" stroke="#33adff"/><path d="m207.162421 53.242169q-79.373115 21.530208-37.303124 100.073747" stroke="#66d3ff"/><path d="m205.079642 52.695765q-6.693573 115.193157-107.379314 59.352247" stroke="#3fbdff"/><path d="m158.001781 146.341198q.430598-115.917346-.248441-117.172858" stroke="#7edaff"/><path d="m97.504038 102.538843q91.329779 44.783519 88.65201-57.155538" stroke="#79d9ff"/><path d="m183.865432 145.597809q59.035214-91.169027-50.665264-104.709843" stroke="#49c3ff"/><path d="m99.878961 78.98008q82.224126-27.142327 71.611278 67.745751" stroke="#50d4ff"/><path d="m209.728728 94.23448q-90.738381-67.319124-110.62431 28.064526" stroke="#4bc9ff"/><path d="m199.932898 131.528945q-77.55669 4.009043-56.159433-93.45918" stroke="#60d4ff"/><path d="m100.897342 88.156314q104.34581-28.715688 107.490844 23.188458" stroke="#81e4ff"/><path d="m213.008602 67.23462q-7.558515 35.25148-117.929759 34.152848" stroke="#5ed8ff"/><path d="m202.269343 126.209725q-78.263041-13.889802-53.813361-88.399863" stroke="#59daff"/><path d="m213.13914 101.970301q-87.703064 31.344125-97.990433-49.080558" stroke="#46ccff"/><path d="m208.347859 54.179038q-111.844299-14.989998-80.156545 81.492867" stroke="#5cc8ff"/><path d="m147.689567 139.913622q104.942755-27.833178 28.604344-104.056413" stroke="#35bdff"/><path d="m177.192435 34.599456q-56.152794 43.950571 15.411505 110.714815" stroke="#67cbff"/><path d="m209.128571 51.311461q-65.965936 48.703785-108.662538 26.167518" stroke="#84d9ff"/><path d="m189.385673 142.621238q-85.695055 6.120739-70.650757-85.457044" stroke="#55c8ff"/><path d="m191.221349 40.995476q-34.818173 54.49585-29.728609 108.882509" stroke="#60d4ff"/><path d="m221.420191 84.771454q-99.135378 45.196125-104.716249-33.12993" stroke="#63cbff"/><path d="m98.590036 99.400217q87.147626 37.752645 85.944015-59.910072" stroke="#71d8ff"/><path d="m121.239062 51.183256q26.750565 99.319469 89.482298 54.64751" stroke="#50d2ff"/><path d="m159.731422 32.835905q75.418661 53.947109 8.642331 117.482787" stroke="#46c3ff"/><path d="m206.733807 55.13737q-49.130863 60.720579-114.49408 38.026398" stroke="#3ecbff"/><path d="m143.449979 37.112985q-30.274128 99.139675 65.053845 85.315633" stroke="#63caff"/><path d="m110.084199 119.200687q102.424153 33.956062 87.421896-74.574893" stroke="#34b7ff"/><path d="m114.619106 132.712984q-28.353135-100.600149 87.180598-86.894835" stroke="#2fb1ff"/><path d="m212.180211 106.431445q-7.991497-48.737854-111.304269-21.914805" stroke="#72d8ff"/><path d="m177.107758 37.819769q21.368608 94.070798-71.030686 75.245822" stroke="#5bc9ff"/><path d="m98.113012 114.332977q90.85929 19.875913 65.127065-77.669111" stroke="#5bc7ff"/><path d="m120.84168 130.071659q7.679762-99.753402 97.872616-50.387719" stroke="#4ac8ff"/><path d="m176.603786 41.043313q-74.530613 69.536241 15.706032 102.800766" stroke="#4ac5ff"/><path d="m101.86506 83.826616q112.085835 9.332425 115.82089 5.005721" stroke="#7ad8ff"/><path d="m219.53324 92.17453q-81.08033-74.225618-107.857054 28.776554" stroke="#5fcaff"/><path d="m102.620341 90.899256q61.697793-82.159312 113.666986-10.968333" stroke="#40b7ff"/><path d="m98.570792 75.329472q57.061641 85.405521 115.001015-5.220753" stroke="#3cbaff"/><path d="m158.360959 146.015902q-30.125818-80.557744 59.776186-77.95411" stroke="#62d1ff"/><path d="m198.068692 47.339836q34.804834 103.847493-71.422722 84.833769" stroke="#37bbff"/><path d="m202.193986 130.479355q-96.58352 1.064573-52.212763-97.463484" stroke="#50c1ff"/><path d="m151.208488 145.609025q65.55411-34.479384 10.321205-112.747759" stroke="#55c1ff"/><path d="m234.36177-.504089q-250.36177-9.031408-201.221381 175.900726" stroke="#000"/><path d="m177.82348 33.501612q-99.907026 44.840315-25.852171 111.259685" stroke="#58b8ff"/><path d="m176.360756 150.063254q17.418556-107.969816-61.172781-96.331782" stroke="#5ec8ff"/><path d="m176.525584 146.052794q4.340879-78.261645-72.078121-76.195589" stroke="#56d2ff"/><path d="m194.213043 41.76276q-1.665619 98.630343-93.191606 64.802558" stroke="#6ccbff"/><path d="m94.447047 101.456375q48.367748-60.67449 112.759937 9.741268" stroke="#6ed3ff"/><path d="m113.917966 55.698285q105.657509 17.341344 71.971753 95.04254" stroke="#40bdff"/><path d="m102.192021 73.989142q81.812833 45.563482 89.341141-32.303102" stroke="#6acfff"/><path d="m194.425874 42.212761q-14.659325 97.862593-95.615719 49.203146" stroke="#7bceff"/><path d="m160.945368 33.988733q-21.455016 77.792669 35.10245 95.550138" stroke="#72ccff"/><path d="m200.137443 50.499287q-109.907194-12.608373-74.913171 81.17201" stroke="#38b1ff"/><path d="m103.674345 77.841053q78.448178-82.37588 114.588436 6.724549" stroke="#38abff"/><path d="m124.511948 49.455389q13.754832 79.285782 89.705222 50.352306" stroke="#46c8ff"/><path d="m205.135068 52.102914q-80.079369 42.318216-66.6671 86.993904" stroke="#7ccfff"/><path d="m214.243105 72.25498q-65.380393-49.399656-91.080831 53.503194" stroke="#65cbff"/><path d="m98.608071 77.788659q109.464611-31.021994 106.937766 46.392686" stroke="#45c2ff"/><path d="m217.519715 76.182328q-58.52138 96.011311-120.899988 25.685714" stroke="#35b0ff"/><path d="m125.339211 135.701189q66.42533-6.655056 30.743023-103.843572" stroke="#6ac2ff"/><path d="m210.08758 64.283619q-92.437631-61.85617-109.251379 40.551919" stroke="#2da5ff"/><path d="m213.811785 98.959427q-46.97788 64.038283-95.840486-17.595847" stroke="#5aceff"/><path d="m257.663391 3.684564q-273.663391-19.684564-258.035204 186.315436" stroke="#000"/><path d="m177.876988 31.392965q-101.467274 61.953307-6.529649 118.846223" stroke="#41aeff"/><path d="m141.559959 39.57548q97.621086 36.153796 44.030429 107.234129" stroke="#46bdff"/><path d="m102.072275 113.241028q12.426763-60.963733 116.439629-17.637916" stroke="#64c8ff"/><path d="m100.935006 115.133362q54.19776-104.076493 115.598195-28.512802" stroke="#40b7ff"/><path d="m9.872204 182.158101q-24.31959-198.158101 261.127796-174.904648" stroke="#000"/><path d="m171.833269 149.515182q14.897796-97.048513-38.588749-98.66498" stroke="#6dceff"/><path d="m217.510406 91.840802q-76.979434 87.213483-123.117486 2.117239" stroke="#3cb4ff"/><path d="m98.838551 74.176776q11.820816 36.006501 122.305312 9.590881" stroke="#31baff"/><path d="m217.565896 65.42865q-57.01669 102.015798-120.82582 32.883699" stroke="#19a3ff"/><path d="m214.774018 65.473621q-49.617433 67.242496-109.178314 3.696069" stroke="#59c6ff"/><path d="m211.419029 106.59015q-24.680619-59.003781-99.442626-44.656637" stroke="#6dcbff"/><path d="m269.692842 8.647647q-259.578868-24.647647-258.477288 166.343725" stroke="#000"/><path d="m95.384832 92.463835q79.198599 44.942758 90.385737-45.436365" stroke="#6fccff"/><path d="m271 10.418796q-268.793298-26.418796-256.592738 179.581204" stroke="#000"/><path d="m201.876121.39561q-208.183042-16.39561-133.32003 188.498997" stroke="#000100"/><path d="m189.323866 146.768426q-63.149339-57.571184-14.496948-109.637947" stroke="#68c5ff"/><path d="m5.468684 174.982638q-17.979882-161.438262 256.270903-166.071793" stroke="#000"/><path d="m271 8.497242q-287-10.895108-267.034032 173.161135" stroke="#000"/><path d="m215.880868 88.267546q-46.843378-57.313028-106.98859 29.960016" stroke="#51c4ff"/><path d="m8.256923 179.449398q-24.256923-163.220566 251.448775-167.781652" stroke="#000"/><path d="m240.501865 150.327407q-256.501865 37.287862-240.703974-165.721931" stroke="#000100"/><path d="m22.910096 190q-38.910096-173.553684 232.134065-176.191333" stroke="#000"/><path d="m3.058849 190q-19.058849-206 257.315268-184.826234" stroke="#000"/><path d="m113.24856 61.930759q70.387375 7.82621 39.616348 76.282629" stroke="#80d1ff"/><path d="m136.724159 139.440742q-40.944361-80.099928 69.15429-88.212988" stroke="#5bc0ff"/><path d="m152.671566 39.613729q95.582599 28.649017 33.041066 108.674463" stroke="#3eafff"/><path d="m173.516906 157.582665q-72.556473-85.326903 22.925045-116.437346" stroke="#3fb1ff"/><path d="m188.617282 50.126453q-21.551284 96.223174-94.396917 44.383196" stroke="#71caff"/><path d="m236.553666 3.040377q-252.553666-19.040377-234.035985 164.861449" stroke="#000"/><path d="m113.536084 54.404982q107.997447-7.781325 69.2099 94.067014" stroke="#42b0ff"/><path d="m251.402917 14.568799q-112.000371-26.519193-267.402917 173.250708" stroke="#000"/><path d="m188.778089 148.557465q16.181223-103.441458-84.746733-68.031022" stroke="#49bcff"/><path d="m192.33099 143.068962q-85.876371-40.323964-12.043434-108.374199" stroke="#4ab7ff"/><path d="m217.89842 87.095379q-81.740579 62.484077-120.152863-12.024096" stroke="#3facff"/><path d="m260.823989 45.756601q-268.645514-61.756601-261.511874 88.901963" stroke="#000"/><path d="m8.150337-.013184q-24.150337 187.899087 228.636048 152.748295" stroke="#000100"/><path d="m139.051232 41.042772q85.772931 53.989987 6.231394 103.183689" stroke="#4dbaff"/><path d="m206.351025 121.824597q-2.268055-63.064963-100.04294-29.786694" stroke="#55c3ff"/><path d="m260.581169 2.230914q-276.581169-15.538676-256.167311 159.762774" stroke="#000"/><path d="m35.046751 173.594628q-46.609169-152.89868 226.162393-158.456038" stroke="#000200"/><path d="m262.566788 41.947312q-276.527015-57.065667-247.449079 136.160568" stroke="#000"/><path d="m116.626227 55.442751q98.920201 50.353113 59.186344 93.51511" stroke="#6cc3ff"/><path d="m173.198821 37.281627q84.801245 44.018602-1.110805 105.922959" stroke="#46b3ff"/><path d="m132.25857 121.232797q79.39905-29.790582 26.099522-85.781869" stroke="#74c4ff"/><path d="m223.721325 169.813385q-220.382978-40.568521-212.897675-179.8522" stroke="#000100"/><path d="m3.278598-.240298q-19.278598 190.240298 236.009334 155.082992" stroke="#000300"/><path d="m18.506178 176.143661q-34.506178-178.028784 252.493822-165.029549" stroke="#000"/><path d="m174.465544 152.973014q36.08658-98.566595-62.971872-85.241978" stroke="#2cadff"/><path d="m150.331362 39.157883q-27.123336 74.378871 58.769829 85.131357" stroke="#40bbff"/><path d="m104.587468 69.14666q4.950569-2.130532 96.384871 62.873186" stroke="#5ec6ff"/><path d="m11.454805 185.378591q-26.662363-201.378591 254.770625-172.320058" stroke="#000"/><path d="m116.930826 129.362772q108.514675 38.404093 87.801962-75.512767" stroke="#3dacff"/><path d="m103.437763 119.3064q11.976654-117.659353 102.611839-66.169402" stroke="#2e9bff"/><path d="m25.341831-3.569113q-41.341831 192.062369 227.255135 176.486613" stroke="#000600"/><path d="m264.294444 7.339408q-280.294444-19.569743-264.714865 114.463811" stroke="#000"/><path d="m217.79976 91.974112q-79.052406-68.473036-115.961447 31.338432" stroke="#3bb2ff"/><path d="m113.57181 69.759737q51.168911 80.177704 104.668848 11.421218" stroke="#40b2ff"/><path d="m114.326444 128.599967q94.327842 10.302524 78.618903-90.705273" stroke="#2ba2ff"/><path d="m252.576536 46.652389q-237.108188-62.652389-233.301375 126.338614" stroke="#000100"/><path d="m25.451501 2.0297q-33.031475 185.794265 232.135388 167.460779" stroke="#000500"/><path d="m95.120999 94.370552q88.114616 16.837209 117.407731-33.636568" stroke="#40bbff"/><path d="m271 167.456466q-287-16.590342-260.981795-169.388671" stroke="#000500"/><path d="m6.839793-1.920364q-22.839793 190.069815 192.841909 175.629236" stroke="#000"/><path d="m140.294591 138.665742q-51.664029-81.851467 38.289028-101.426369" stroke="#50b6ff"/><path d="m208.854212 118.457227q-74.908846 18.557813-66.457444-77.273439" stroke="#54c3ff"/><path d="m271 18.90559q-237.50985-13.903922-197.418624 171.09441" stroke="#000200"/><path d="m113.432077 129.989984q114.924345 9.08612 82.840189-82.682429" stroke="#23a4ff"/><path d="m257.75233 166.829616q-268.555238 23.170384-214.869782-176.075702" stroke="#000600"/><path d="m208.655688 120.444962q-6.11479-52.834014-116.098849-12.708839" stroke="#29b0ff"/><path d="m145.921481 39.123293q97.217306 25.103249 25.929744 114.229194" stroke="#38aeff"/><path d="m254.10955 38.273025q-258.084055-51.553098-252.030475 79.13532" stroke="#000"/><path d="m117.850479 58.792236q78.658037 4.845376 54.084803 95.326366" stroke="#58c3ff"/><path d="m214.671556 68.475857q-59.695364 90.220452-110.719979 1.36595" stroke="#36abff"/><path d="m52.149272 190q1.557159-174.594222 217.119973-188.913677" stroke="#000"/><path d="m248.220273 168.672646q22.779727-180.681514-246.676251-159.462089" stroke="#000d00"/><path d="m4.164333.481298q162.216071 74.010376 28.881391 176.203816" stroke="#000"/><path d="m43.181042 175.614409q-59.05458-191.614409 142.822888-171.752604" stroke="#000"/><path d="m139.077291 140.646368q-49.30837-69.231045 59.134326-95.689102" stroke="#4ebaff"/><path d="m20.057959-6.264344q-36.057959 196.264344 181.816674 177.699337" stroke="#000100"/><path d="m129.148253 136.535848q33.767188-88.318236 86.201667-69.027851" stroke="#6bc0ff"/><path d="m134.428029 48.576828q30.614427 78.003862 82.8481 38.004941" stroke="#7bccff"/><path d="m65.757243 190q-20.56735-201.99023 195.283777-153.960578" stroke="#000500"/><path d="m-3.479266.560234q155.564445 58.677294 29.385171 178.279217" stroke="#000"/><path d="m103.384095 114.986295q105.892001-25.25281 91.722861-73.178741" stroke="#6cc2ff"/><path d="m192.185119 3.029343q-208.185119-19.029343-186.510642 150.07365" stroke="#000"/><path d="m148.988726 145.674211q48.68693-83.634223-12.719894-101.247775" stroke="#5dbbff"/><path d="m28.695789 174.83957q-34.02646-182.771388 242.304211-156.03618" stroke="#000400"/><path d="m115.062976 60.88054q71.729213 4.960035 35.089466 78.472607" stroke="#7dc6ff"/><path d="m185.920038 146.393109q40.652525-97.439965-63.622126-96.254672" stroke="#38a7ff"/><path d="m203.183869 170.164047q-209.816936 19.835953-180.919596-169.468741" stroke="#000300"/><path d="m37.061588 172.495972q123.709001-115.816848-38.547766-174.680841" stroke="#000"/><path d="m250.644854 155.668911q20.355146-162.184676-255.661056-153.238922" stroke="#000e00"/><path d="m109.795468 95.109524q84.065731 13.411584 64.650159-61.006047" stroke="#05a3ff"/><path d="m49.938586-16q-61.383584 189.786959 171.452941 182.860285" stroke="#000400"/><path d="m32.508005 168.540575q-21.096179-157.521077 227.700895-147.052464" stroke="#000a00"/><path d="m255.417192 5.032612q-271.417192-21.032612-248.753861 172.921317" stroke="#000"/><path d="m156.358305 149.095208q75.951263-70.098021-10.962818-109.623461" stroke="#3cacff"/><path d="m215.395612 72.890491q-77.17399-72.425264-116.294958 39.771654" stroke="#3ea5ff"/><path d="m161.974037 173.199527q-177.974037 16.800473-159.753555-168.520975" stroke="#000"/><path d="m203.162319 59.164391q-58.479011-22.320239-77.051556 78.153615" stroke="#4dbdff"/><path d="m266.761132 2.938193q-282.761132-18.938193-252.682058 145.788719" stroke="#000"/><path d="m175.371951 29.748056q-31.319866 76.832609-71.592717 84.011431" stroke="#65c1ff"/><path d="m12.885358-16q-28.885358 128.154514 188.000258 184.362759" stroke="#000300"/><path d="m27.110189 2.570641q-31.844377 127.04415 227.802056 172.92839" stroke="#000a00"/><path d="m118.520592 117.916143q35.062744-64.886356 94.227962-45.135313" stroke="#7dccff"/><path d="m-16 8.643031q287-24.643031 267.727647 144.064678" stroke="#000f00"/><path d="m205.554605 48.403607q-13.055201 108.104257-108.163347 60.520505" stroke="#1595ff"/><path d="m40.142606-3.093339q-56.142606 176.902071 166.096685 155.027414" stroke="#000500"/><path d="m137.368798 173.444207q-153.368798-1.13303-131.91268-172.162404" stroke="#000"/><path d="m253.243636 8.584777q-251.944279-24.584777-242.589584 181.415223" stroke="#000100"/><path d="m254.157206.663767q-217.802944 43.233471-210.980962 189.336233" stroke="#000200"/><path d="m121.959696 47.872834q11.431918 106.882301 84.564319 74.696081" stroke="#55b5ff"/><path d="m159.918794 144.857842q-16.278123-1.959181 4.646052-102.52265" stroke="#68c6ff"/><path d="m2.848434 38.11221q226.086177-54.11221 238.327438 77.916281" stroke="#000200"/><path d="m203.808 160.036217q-219.808 29.963783-188.776534-159.665013" stroke="#000400"/><path d="m126.649393 49.728733q-1.749595 91.112177 86.573539 53.387639" stroke="#33afff"/><path d="m264.23451 23.270596q-167.265871-39.270596-222.649745 166.729404" stroke="#000500"/><path d="m249.327348 48.376259q-223.583305-64.376259-214.445507 122.483263" stroke="#000800"/><path d="m255.682022 43.339392q-213.65815-55.264856-217.711747 131.228003" stroke="#000a00"/><path d="m148.281522 34.552957q-42.072038 83.015938 53.014167 95.141276" stroke="#4fb5ff"/><g stroke="#000"><path d="m-16-5.368977q179.709666 85.615379 57.155842 191.528955"/><path d="m43.618276 190q121.04237-103.724169-59.618276-193.550871"/><path d="m254.323098 9.734886q-254.168508-17.999813-253.595154 98.799916"/></g><path d="m218.414391 91.452511q-89.611158-48.585883-98.563493 45.279593" stroke="#68beff"/><path d="m24.819204-.058983q25.922087 190.058983 207.586505 147.66989" stroke="#000800"/><path d="m214.70681 65.648983q-92.411684-16.116389-102.04884 61.9762" stroke="#3ab2ff"/><path d="m173.508802 153.788614q-66.269422-88.302117 17.311417-112.32364" stroke="#30a6ff"/><path d="m119.799383 129.679513q102.040078 44.927386 91.319823-65.79988" stroke="#379cff"/><path d="m54.480126 172.151226q101.378371-141.517238-58.417208-164.878122" stroke="#000"/><path d="m-4.686213 6.581909q275.686213-22.581909 258.608596 145.261989" stroke="#010"/><path d="m-16 36.058228q275.777921-52.058228 269.401087 80.375535" stroke="#000400"/><path d="m9.553659 178.741639q-25.553659-184.348447 170.304888-175.430466" stroke="#000100"/><path d="m169.011854 153.335287q88.220524-66.130322-13.577397-121.593978" stroke="#319dff"/><path d="m256.890511 12.028115q-272.890511-1.639436-222.86449 177.971885" stroke="#000700"/><path d="m253.670273 22.042056q-268.874864 6.087702-232.449039 164.877619" stroke="#000c00"/><path d="m225.977753 167.611823q-241.977753 22.388177-189.867592-164.148364" stroke="#000800"/><path d="m92.888573-16q24.759165 206-92.913813 189.433233" stroke="#000"/><path d="m221.459634 164.749052q-226.093123.522969-173.257059-165.484584" stroke="#000600"/><path d="m4.822009 1.360192q149.430112 54.405962 22.869951 179.695771" stroke="#000"/><path d="m99.763429 97.540987q84.760355 29.254728 93.495864-56.462555" stroke="#78c1ff"/><path d="m151.78178 144.033596q74.157304-76.146935-7.591078-109.054299" stroke="#50b1ff"/><path d="m33.605021 170.174021q-12.428539-186.174021 237.394979-151.48714" stroke="#000900"/><path d="m173.300426 147.050146q15.766617-102.026263-50.451365-94.599737" stroke="#67c2ff"/><path d="m-1.072023 88.43521q3.237237-104.43521 257.28489-51.161231" stroke="#000200"/><path d="m200.146244 51.855107q-19.181003 93.231892-105.179056 55.522949" stroke="#2e9dff"/><path d="m219.83674 84.162193q-65.734462 105.837807-125.361868 8.021331" stroke="#34a4ff"/><path d="m271 32.319753q-279.739801-30.42503-236.023414 157.680247" stroke="#000900"/><path d="m207.350665 58.122119q-106.938545-31.832798-108.39215 54.758989" stroke="#219dff"/></g></svg>