<svg height="632" width="1024" xmlns="http://www.w3.org/2000/svg"><path d="m0 0h1024v632h-1024z" fill="#c0cfda"/><g fill-opacity=".501961" stroke-width="4"><ellipse cx="994" cy="66" fill="#8194a0" rx="232" ry="232"/><ellipse cx="554" cy="334" fill="#dce8ee" rx="264" ry="264"/><ellipse cx="242" cy="502" fill="#40494b" rx="36" ry="36"/><ellipse cx="126" cy="230" fill="#dfeef8" rx="156" ry="156"/><ellipse cx="902" cy="166" fill="#32383a" rx="32" ry="32"/><ellipse cx="342" cy="2" fill="#323e44" rx="36" ry="36"/><ellipse cx="478" cy="590" fill="#283840" rx="24" ry="24"/><ellipse cx="746" cy="154" fill="#dbe8f1" rx="104" ry="104"/><ellipse cx="702" cy="2" fill="#8a9eab" rx="92" ry="92"/><ellipse cx="162" cy="426" fill="#4a5960" rx="28" ry="28"/><ellipse cx="862" cy="250" fill="#060703" rx="20" ry="20"/><ellipse cx="930" cy="306" fill="#deecf6" rx="76" ry="76"/><ellipse cx="1022" cy="590" fill="#647a88" rx="48" ry="48"/><ellipse cx="1018" cy="286" rx="20" ry="20"/><ellipse cx="1022" cy="58" fill="#5c6f7b" rx="60" ry="60"/><ellipse cx="658" cy="566" fill="#e6f2fb" rx="100" ry="100"/><ellipse cx="270" cy="2" fill="#97acba" rx="124" ry="124"/><ellipse cx="970" cy="158" fill="#d3e9fb" rx="44" ry="44"/><ellipse cx="894" cy="206" fill="#f2ffff" rx="28" ry="28"/><ellipse cx="6" cy="590" fill="#8ba5b8" rx="76" ry="76"/><ellipse cx="78" cy="2" fill="#92adc1" rx="88" ry="88"/><ellipse cx="854" cy="466" fill="#effbff" rx="52" ry="52"/><ellipse cx="206" cy="462" fill="#2f383a" rx="16" ry="16"/><ellipse cx="202" cy="630" fill="#e6f4ff" rx="84" ry="84"/><ellipse cx="466" cy="62" fill="#adc2d3" rx="104" ry="104"/><ellipse cx="646" cy="134" fill="#d8e6f1" rx="108" ry="108"/><ellipse cx="1022" cy="510" fill="#6d818d" rx="36" ry="36"/><ellipse cx="470" cy="370" fill="#78858b" rx="24" ry="24"/><ellipse cx="246" cy="530" fill="#3d4445" rx="20" ry="20"/><ellipse cx="374" cy="458" fill="#d2dee6" rx="136" ry="136"/><ellipse cx="510" cy="562" fill="#495b65" rx="16" ry="16"/><ellipse cx="630" cy="6" fill="#303a3e" rx="20" ry="20"/><ellipse cx="378" cy="2" fill="#080905" rx="16" ry="16"/><ellipse cx="158" cy="486" fill="#e4f2fd" rx="44" ry="44"/><ellipse cx="862" cy="534" fill="#47545a" rx="16" ry="16"/><ellipse cx="626" cy="438" fill="#4c5b64" rx="16" ry="16"/><ellipse cx="82" cy="402" fill="#647680" rx="20" ry="20"/><ellipse cx="282" cy="494" fill="#26353c" rx="12" ry="12"/><ellipse cx="874" cy="142" fill="#070a09" rx="12" ry="12"/><ellipse cx="870" cy="186" fill="#080e0f" rx="12" ry="12"/><ellipse cx="386" cy="66" fill="#d0e3f1" rx="56" ry="56"/><ellipse cx="442" cy="570" fill="#556773" rx="16" ry="16"/><ellipse cx="846" cy="162" fill="#ebfaff" rx="28" ry="28"/><ellipse cx="118" cy="418" fill="#2e3b40" rx="12" ry="12"/><ellipse cx="1010" cy="226" fill="#e3f8ff" rx="28" ry="28"/><ellipse cx="554" cy="614" fill="#e0ecf5" rx="64" ry="64"/><ellipse cx="230" cy="506" rx="12" ry="12"/><ellipse cx="1022" cy="442" fill="#7d919d" rx="36" ry="36"/><ellipse cx="906" cy="382" fill="#d8e7f3" rx="80" ry="80"/><ellipse cx="926" cy="186" fill="#000301" rx="12" ry="12"/><ellipse cx="958" cy="90" fill="#333f43" rx="16" ry="16"/><ellipse cx="186" cy="446" fill="#334147" rx="12" ry="12"/><ellipse cx="446" cy="142" fill="#606d71" rx="16" ry="16"/><ellipse cx="930" cy="574" fill="#c9def0" rx="68" ry="68"/><ellipse cx="930" cy="130" fill="#283337" rx="12" ry="12"/><ellipse cx="946" cy="210" fill="#222828" rx="12" ry="12"/><ellipse cx="182" cy="390" fill="#030705" rx="8" ry="8"/><ellipse cx="718" cy="34" fill="#30373a" rx="12" ry="12"/><ellipse cx="882" cy="514" fill="#000506" rx="8" ry="8"/><ellipse cx="546" cy="530" fill="#9db0bc" rx="32" ry="32"/><ellipse cx="406" cy="2" rx="8" ry="8"/><ellipse cx="838" cy="214" fill="#2e3839" rx="12" ry="12"/><ellipse cx="722" cy="418" fill="#f2faff" rx="48" ry="48"/><ellipse cx="842" cy="2" fill="#bcd5eb" rx="56" ry="56"/><ellipse cx="350" cy="582" fill="#e9f3fc" rx="44" ry="44"/><ellipse cx="306" cy="618" fill="#4d5455" rx="12" ry="12"/><ellipse cx="466" cy="126" rx="8" ry="8"/><ellipse cx="898" cy="118" fill="#c5dced" rx="28" ry="28"/><ellipse cx="794" cy="266" fill="#53636d" rx="12" ry="12"/><ellipse cx="586" cy="30" fill="#92aaba" rx="40" ry="40"/><ellipse cx="806" cy="586" fill="#e5f4fe" rx="40" ry="40"/><ellipse cx="538" cy="398" fill="#0f181c" rx="8" ry="8"/><ellipse cx="342" cy="2" fill="#454d50" rx="24" ry="24"/><ellipse cx="30" cy="374" fill="#43555e" rx="12" ry="12"/><ellipse cx="694" cy="2" rx="8" ry="8"/><ellipse cx="282" cy="90" fill="#556064" rx="16" ry="16"/><ellipse cx="466" cy="230" fill="#72818a" rx="16" ry="16"/><ellipse cx="950" cy="486" fill="#c0d4e2" rx="64" ry="64"/><ellipse cx="206" cy="506" fill="#fff" rx="12" ry="12"/><ellipse cx="846" cy="286" fill="#080c08" rx="8" ry="8"/><ellipse cx="898" cy="158" fill="#262c2d" rx="20" ry="20"/><ellipse cx="710" cy="354" fill="#586b76" rx="12" ry="12"/><ellipse cx="598" cy="474" fill="#8698a3" rx="20" ry="20"/><ellipse cx="798" cy="46" fill="#525e64" rx="16" ry="16"/><ellipse cx="850" cy="274" fill="#0b0d09" rx="8" ry="8"/><ellipse cx="278" cy="582" fill="#6d787b" rx="16" ry="16"/><ellipse cx="470" cy="506" fill="#dce8f1" rx="64" ry="64"/><ellipse cx="478" cy="370" fill="#3e4b52" rx="12" ry="12"/><ellipse cx="786" cy="498" fill="#141c1d" rx="8" ry="8"/><ellipse cx="690" cy="374" fill="#748792" rx="16" ry="16"/><ellipse cx="862" cy="222" fill="#f9ffff" rx="16" ry="16"/><ellipse cx="1014" cy="26" fill="#42494b" rx="20" ry="20"/><ellipse cx="250" cy="274" fill="#abb8bf" rx="40" ry="40"/><ellipse cx="810" cy="294" fill="#faffff" rx="28" ry="28"/><ellipse cx="486" cy="622" fill="#44555e" rx="12" ry="12"/><ellipse cx="750" cy="86" fill="#59676c" rx="12" ry="12"/><ellipse cx="422" cy="630" fill="#d8e8f3" rx="56" ry="56"/><ellipse cx="962" cy="282" fill="#1f2b2e" rx="8" ry="8"/><ellipse cx="90" cy="546" fill="#1d2729" rx="8" ry="8"/><ellipse cx="686" cy="294" fill="#edf5fa" rx="48" ry="48"/><ellipse cx="978" cy="286" fill="#273438" rx="8" ry="8"/><ellipse cx="102" cy="410" fill="#0d1517" rx="8" ry="8"/><ellipse cx="842" cy="226" rx="8" ry="8"/><ellipse cx="102" cy="478" fill="#cbdeed" rx="60" ry="60"/><ellipse cx="14" cy="562" fill="#080d0b" rx="8" ry="8"/><ellipse cx="1006" cy="78" fill="#abc5d5" rx="24" ry="24"/><ellipse cx="874" cy="286" fill="#f2fcff" rx="24" ry="24"/><ellipse cx="930" cy="274" fill="#273134" rx="8" ry="8"/><ellipse cx="142" cy="538" fill="#2d3432" rx="8" ry="8"/><ellipse cx="10" cy="362" fill="#51626c" rx="12" ry="12"/><ellipse cx="54" cy="386" fill="#576b75" rx="12" ry="12"/><ellipse cx="418" cy="402" fill="#6c7a83" rx="12" ry="12"/><ellipse cx="814" cy="62" fill="#050a09" rx="8" ry="8"/><ellipse cx="898" cy="182" fill="#d9f2ff" rx="12" ry="12"/><ellipse cx="762" cy="106" fill="#6b777c" rx="12" ry="12"/><ellipse cx="382" cy="546" fill="#7c929f" rx="16" ry="16"/><ellipse cx="314" cy="102" fill="#0f1412" rx="8" ry="8"/><ellipse cx="790" cy="334" fill="#f2f9ff" rx="36" ry="36"/><ellipse cx="414" cy="558" fill="#617988" rx="12" ry="12"/><ellipse cx="946" cy="278" fill="#283135" rx="8" ry="8"/><ellipse cx="226" cy="478" fill="#59666d" rx="20" ry="20"/><ellipse cx="458" cy="386" fill="#1f2a31" rx="8" ry="8"/><ellipse cx="190" cy="530" fill="#2a302f" rx="8" ry="8"/><ellipse cx="1022" cy="270" fill="#fff" rx="8" ry="8"/><ellipse cx="322" cy="346" fill="#e1edf6" rx="56" ry="56"/><ellipse cx="750" cy="618" fill="#7c888d" rx="16" ry="16"/><ellipse cx="118" cy="542" fill="#262d2e" rx="8" ry="8"/><ellipse cx="462" cy="578" fill="#2e3538" rx="12" ry="12"/><ellipse cx="74" cy="550" fill="#17201f" rx="8" ry="8"/><ellipse cx="902" cy="266" fill="#303939" rx="8" ry="8"/><ellipse cx="170" cy="410" fill="#525b5e" rx="16" ry="16"/><ellipse cx="318" cy="6" rx="8" ry="8"/><ellipse cx="994" cy="294" fill="#222f34" rx="8" ry="8"/><ellipse cx="110" cy="174" fill="#d0e0ed" rx="124" ry="124"/><ellipse cx="154" cy="386" fill="#dcebf7" rx="24" ry="24"/><ellipse cx="778" cy="126" fill="#677276" rx="12" ry="12"/><ellipse cx="650" cy="414" fill="#667c8a" rx="12" ry="12"/><ellipse cx="214" cy="414" fill="#e4f1f9" rx="32" ry="32"/><ellipse cx="654" cy="566" fill="#d8e4ed" rx="104" ry="104"/><ellipse cx="934" cy="246" fill="#eefaff" rx="24" ry="24"/><ellipse cx="778" cy="278" fill="#667986" rx="12" ry="12"/><ellipse cx="882" cy="238" fill="#090905" rx="8" ry="8"/><ellipse cx="754" cy="306" fill="#6d818d" rx="12" ry="12"/><ellipse cx="990" cy="198" fill="#1e2222" rx="8" ry="8"/><ellipse cx="1022" cy="294" rx="12" ry="12"/><ellipse cx="838" cy="522" fill="#232f33" rx="8" ry="8"/><ellipse cx="294" cy="598" fill="#646d6e" rx="12" ry="12"/><ellipse cx="210" cy="522" fill="#292e2c" rx="8" ry="8"/><ellipse cx="802" cy="110" fill="#dbecf9" rx="28" ry="28"/><ellipse cx="302" cy="506" fill="#657c89" rx="12" ry="12"/><ellipse cx="262" cy="558" fill="#80898a" rx="16" ry="16"/><ellipse cx="874" cy="522" fill="#1a2020" rx="8" ry="8"/><ellipse cx="162" cy="534" fill="#313633" rx="8" ry="8"/><ellipse cx="670" cy="178" fill="#d6e3eb" rx="116" ry="116"/><ellipse cx="906" cy="230" fill="#3a3f42" rx="8" ry="8"/><ellipse cx="290" cy="138" fill="#a1afb5" rx="32" ry="32"/><ellipse cx="898" cy="138" fill="#a4bac8" rx="16" ry="16"/><ellipse cx="206" cy="558" fill="#e4eff8" rx="32" ry="32"/><ellipse cx="270" cy="46" fill="#d3e7f9" rx="24" ry="24"/><ellipse cx="930" cy="38" fill="#9ab4c7" rx="52" ry="52"/><ellipse cx="754" cy="594" fill="#727d81" rx="12" ry="12"/><ellipse cx="434" cy="314" fill="#88959d" rx="16" ry="16"/><ellipse cx="978" cy="438" fill="#6d7c84" rx="12" ry="12"/><ellipse cx="250" cy="498" fill="#e3f4ff" rx="12" ry="12"/><ellipse cx="234" cy="110" fill="#cddfeb" rx="40" ry="40"/><ellipse cx="734" cy="326" fill="#708491" rx="12" ry="12"/><ellipse cx="482" cy="430" fill="#354146" rx="8" ry="8"/><ellipse cx="318" cy="630" fill="#1e2626" rx="8" ry="8"/><ellipse cx="922" cy="134" fill="#353d40" rx="12" ry="12"/><ellipse cx="494" cy="162" fill="#dceaf4" rx="40" ry="40"/><ellipse cx="1022" cy="498" fill="#4a5459" rx="16" ry="16"/><ellipse cx="282" cy="526" fill="#e5f2fb" rx="24" ry="24"/><ellipse cx="34" cy="558" fill="#1e2523" rx="8" ry="8"/><ellipse cx="818" cy="554" fill="#dbeaf4" rx="36" ry="36"/><ellipse cx="246" cy="402" fill="#758185" rx="12" ry="12"/><ellipse cx="518" cy="550" fill="#55666f" rx="12" ry="12"/><ellipse cx="562" cy="414" fill="#9eabb3" rx="20" ry="20"/><ellipse cx="958" cy="158" fill="#c2d5e5" rx="36" ry="36"/><ellipse cx="806" cy="170" fill="#3b4244" rx="8" ry="8"/><ellipse cx="574" cy="494" fill="#718997" rx="12" ry="12"/><ellipse cx="818" cy="242" fill="#80929a" rx="16" ry="16"/><ellipse cx="122" cy="342" fill="#d8e7f1" rx="64" ry="64"/><ellipse cx="290" cy="430" fill="#e5eff6" rx="40" ry="40"/><ellipse cx="218" cy="394" fill="#ddecf5" rx="32" ry="32"/><ellipse cx="246" cy="294" fill="#e6f6ff" rx="24" ry="24"/><ellipse cx="830" cy="258" fill="#d9e5eb" rx="20" ry="20"/><ellipse cx="994" cy="626" fill="#293234" rx="8" ry="8"/><ellipse cx="518" cy="342" fill="#e2edf4" rx="40" ry="40"/><ellipse cx="430" cy="134" fill="#2a3437" rx="8" ry="8"/><ellipse cx="202" cy="506" fill="#f2ffff" rx="16" ry="16"/><ellipse cx="54" cy="554" fill="#262b2a" rx="8" ry="8"/><ellipse cx="138" cy="418" fill="#56646c" rx="12" ry="12"/><ellipse cx="862" cy="250" fill="#222829" rx="16" ry="16"/><ellipse cx="766" cy="6" fill="#2b3536" rx="8" ry="8"/><ellipse cx="58" cy="586" fill="#c3d8ea" rx="32" ry="32"/><ellipse cx="670" cy="394" fill="#728896" rx="12" ry="12"/><ellipse cx="290" cy="630" fill="#fbffff" rx="16" ry="16"/><ellipse cx="198" cy="526" rx="4" ry="4"/><ellipse cx="814" cy="390" fill="#4b5050" rx="8" ry="8"/><ellipse cx="1006" cy="190" fill="#262d30" rx="8" ry="8"/><ellipse cx="874" cy="98" fill="#d0e5f5" rx="20" ry="20"/><ellipse cx="266" cy="338" fill="#495354" rx="8" ry="8"/><ellipse cx="422" cy="2" rx="4" ry="4"/><ellipse cx="474" cy="346" fill="#3a464d" rx="8" ry="8"/><ellipse cx="830" cy="86" fill="#293436" rx="8" ry="8"/><ellipse cx="986" cy="146" fill="#b7cddf" rx="44" ry="44"/><ellipse cx="810" cy="402" fill="#4b5354" rx="8" ry="8"/><ellipse cx="758" cy="386" fill="#e2ecf4" rx="52" ry="52"/><ellipse cx="766" cy="294" fill="#485d69" rx="8" ry="8"/><ellipse cx="526" cy="222" fill="#4f5a62" rx="8" ry="8"/><ellipse cx="470" cy="534" fill="#d7e5ee" rx="40" ry="40"/><ellipse cx="502" cy="570" fill="#4c5c65" rx="12" ry="12"/><ellipse cx="302" cy="82" fill="#f1ffff" rx="12" ry="12"/><ellipse cx="338" cy="522" fill="#6f8897" rx="12" ry="12"/><ellipse cx="918" cy="270" fill="#384145" rx="8" ry="8"/><ellipse cx="770" cy="570" fill="#778184" rx="12" ry="12"/><ellipse cx="738" cy="14" fill="#bed5e7" rx="24" ry="24"/><ellipse cx="902" cy="202" fill="#e3f2ff" rx="20" ry="20"/><ellipse cx="242" cy="438" fill="#555a5b" rx="8" ry="8"/><ellipse cx="178" cy="530" rx="4" ry="4"/><ellipse cx="1022" cy="470" fill="#121615" rx="8" ry="8"/><ellipse cx="294" cy="122" fill="#e9f9ff" rx="16" ry="16"/><ellipse cx="798" cy="158" fill="#3e4749" rx="8" ry="8"/><ellipse cx="242" cy="546" fill="#1b1e1a" rx="8" ry="8"/><ellipse cx="818" cy="190" fill="#444e50" rx="8" ry="8"/><ellipse cx="750" cy="210" fill="#dbe8ef" rx="64" ry="64"/><ellipse cx="990" cy="342" fill="#bad0e1" rx="48" ry="48"/><ellipse cx="654" cy="18" fill="#2d3639" rx="8" ry="8"/><ellipse cx="106" cy="546" rx="4" ry="4"/><ellipse cx="802" cy="438" fill="#4c5658" rx="8" ry="8"/><ellipse cx="782" cy="78" fill="#d4e8f8" rx="24" ry="24"/><ellipse cx="166" cy="426" fill="#f7ffff" rx="8" ry="8"/><ellipse cx="886" cy="262" fill="#353c3d" rx="8" ry="8"/><ellipse cx="62" cy="482" fill="#c0d4e3" rx="68" ry="68"/><ellipse cx="446" cy="350" fill="#e8f3f9" rx="24" ry="24"/><ellipse cx="806" cy="422" fill="#4e575a" rx="8" ry="8"/><ellipse cx="702" cy="22" fill="#5d686d" rx="12" ry="12"/><ellipse cx="570" cy="338" fill="#99a4aa" rx="16" ry="16"/><ellipse cx="190" cy="614" fill="#d0e0ec" rx="84" ry="84"/><ellipse cx="790" cy="486" fill="#515a5c" rx="8" ry="8"/><ellipse cx="638" cy="74" fill="#bdd1df" rx="56" ry="56"/><ellipse cx="842" cy="298" fill="#50595c" rx="8" ry="8"/><ellipse cx="790" cy="146" fill="#4f5657" rx="8" ry="8"/><ellipse cx="374" cy="490" fill="#e4f1fa" rx="40" ry="40"/><ellipse cx="958" cy="214" fill="#3d454a" rx="12" ry="12"/><ellipse cx="942" cy="114" fill="#52636c" rx="12" ry="12"/><ellipse cx="930" cy="194" rx="8" ry="8"/><ellipse cx="322" cy="562" fill="#e4f0f8" rx="36" ry="36"/><ellipse cx="330" cy="42" fill="#2e3435" rx="8" ry="8"/><ellipse cx="822" cy="366" fill="#555d5d" rx="8" ry="8"/><ellipse cx="922" cy="222" fill="#373d3e" rx="8" ry="8"/><ellipse cx="550" cy="522" fill="#6a7c88" rx="12" ry="12"/><ellipse cx="610" cy="370" fill="#525f65" rx="8" ry="8"/><ellipse cx="878" cy="250" fill="#fff" rx="4" ry="4"/><ellipse cx="150" cy="410" fill="#101312" rx="8" ry="8"/><ellipse cx="278" cy="274" fill="#434e53" rx="8" ry="8"/><ellipse cx="774" cy="534" fill="#525a5c" rx="8" ry="8"/><ellipse cx="654" cy="566" fill="#d7e4ed" rx="104" ry="104"/><ellipse cx="202" cy="458" fill="#070b09" rx="8" ry="8"/><ellipse cx="202" cy="338" fill="#99a8b1" rx="16" ry="16"/><ellipse cx="246" cy="422" fill="#606667" rx="8" ry="8"/><ellipse cx="186" cy="382" fill="#3a4246" rx="8" ry="8"/><ellipse cx="6" cy="418" rx="4" ry="4"/><ellipse cx="362" cy="534" fill="#76909f" rx="12" ry="12"/><ellipse cx="858" cy="122" fill="#3a4549" rx="8" ry="8"/><ellipse cx="302" cy="174" fill="#566061" rx="8" ry="8"/><ellipse cx="374" cy="206" fill="#d0dfec" rx="76" ry="76"/><ellipse cx="710" cy="206" fill="#d8e4ed" rx="96" ry="96"/><ellipse cx="642" cy="374" fill="#edf8fe" rx="28" ry="28"/><ellipse cx="338" cy="446" fill="#abbcc7" rx="24" ry="24"/><ellipse cx="978" cy="486" fill="#c8daea" rx="36" ry="36"/><ellipse cx="398" cy="2" fill="#050907" rx="8" ry="8"/><ellipse cx="606" cy="26" fill="#3f4a4c" rx="8" ry="8"/><ellipse cx="894" cy="322" fill="#e1edf5" rx="52" ry="52"/><ellipse cx="842" cy="6" fill="#b1c6d7" rx="56" ry="56"/><ellipse cx="214" cy="298" fill="#5d6f77" rx="8" ry="8"/><ellipse cx="222" cy="438" fill="#e3edf5" rx="20" ry="20"/><ellipse cx="786" cy="514" fill="#818c8f" rx="12" ry="12"/><ellipse cx="802" cy="598" fill="#d7e5f1" rx="40" ry="40"/><ellipse cx="802" cy="254" fill="#4a5c66" rx="8" ry="8"/><ellipse cx="990" cy="50" fill="#464d4e" rx="12" ry="12"/><ellipse cx="230" cy="494" rx="8" ry="8"/><ellipse cx="974" cy="202" fill="#2a2f31" rx="8" ry="8"/><ellipse cx="882" cy="178" fill="#060909" rx="8" ry="8"/><ellipse cx="270" cy="306" fill="#49555b" rx="8" ry="8"/><ellipse cx="826" cy="138" fill="#d5e5f1" rx="32" ry="32"/><ellipse cx="838" cy="310" fill="#5c6365" rx="8" ry="8"/><ellipse cx="130" cy="538" rx="4" ry="4"/><ellipse cx="666" cy="242" fill="#69737a" rx="8" ry="8"/><ellipse cx="966" cy="2" fill="#90a7b6" rx="44" ry="44"/><ellipse cx="258" cy="378" fill="#5c6667" rx="8" ry="8"/><ellipse cx="278" cy="170" fill="#dfedf7" rx="20" ry="20"/><ellipse cx="34" cy="2" fill="#8aa1b1" rx="36" ry="36"/><ellipse cx="958" cy="610" fill="#aec4d7" rx="36" ry="36"/><ellipse cx="318" cy="514" fill="#4c6473" rx="8" ry="8"/><ellipse cx="994" cy="258" fill="#3a464b" rx="8" ry="8"/><ellipse cx="298" cy="186" fill="#606768" rx="8" ry="8"/><ellipse cx="598" cy="242" fill="#636e72" rx="8" ry="8"/><ellipse cx="970" cy="230" fill="#3d494c" rx="8" ry="8"/><ellipse cx="94" cy="266" fill="#d3e2ec" rx="120" ry="120"/></g></svg>