<svg height="680" width="1024" xmlns="http://www.w3.org/2000/svg"><path d="m0 0h1024v680h-1024z" fill="#7a797d"/><g fill-opacity=".501961" transform="matrix(4 0 0 4 2 2)"><ellipse cx="101" cy="15" rx="254" ry="22"/><path d="m-15 172 254-91 32 87z" fill="#f2e8f1"/><ellipse rx="1" ry="1" transform="matrix(94.82483412 106.82006229 -20.38413715 18.09512541 233.26255 19.921842)"/><ellipse fill="#dddbe5" rx="1" ry="1" transform="matrix(2.46974518 -49.9522135 23.58414356 1.16605093 16.184455 111.342624)"/><ellipse rx="1" ry="1" transform="matrix(12.58107752 32.81586042 -117.83374929 45.17558018 20.039367 15.049444)"/><ellipse fill="#352214" rx="1" ry="1" transform="matrix(14.63209889 -12.12281785 25.3070448 30.5453061 133.549268 109.820839)"/><ellipse fill="#fff9f9" rx="1" ry="1" transform="matrix(16.25238235 31.19069492 -14.74938626 7.68539033 100.028729 127.296646)"/><ellipse fill="#cbc0ca" rx="1" ry="1" transform="matrix(31.12794225 36.49782901 -20.68270875 17.63968381 197.737668 67.408289)"/><ellipse cx="53" cy="97" fill="#311704" rx="17" ry="25"/><path d="m87 104-1-39-40-23z" fill="#fef9ff"/><ellipse fill="#e8e4ec" rx="1" ry="1" transform="matrix(23.17127246 10.99554843 -15.89453187 33.49505767 193.91595 126.701818)"/><path d="m144 49h16v61h-16z" fill="#281e14"/><ellipse fill="#d6d0cf" rx="1" ry="1" transform="matrix(27.30879517 11.09912969 -3.26955314 8.04455479 111.773244 43.981513)"/><path d="m202.414314 88.02768 3.148444-36.132049-15.489924-10.191593.373881 16.794155z" fill="#282021"/><ellipse fill="#000208" rx="1" ry="1" transform="matrix(203.48323623 -17.6395309 1.43558416 16.56037859 85.432527 8.161227)"/><path d="m89 54h33v40h-33z" fill="#4a3b28"/><path d="m193 98-12-65-9 37z" fill="#f2e9eb"/><path d="m22 162 112-1-122-37z" fill="#8c8b96"/><ellipse fill="#9f897e" rx="1" ry="1" transform="matrix(5.48623472 -5.26096639 21.7431514 22.67416732 134.279497 100.346139)"/><ellipse fill="#544846" rx="1" ry="1" transform="matrix(17.7428506 21.07373197 -8.08495573 6.80706017 166.614392 86.675232)"/><ellipse fill="#00050b" rx="1" ry="1" transform="matrix(11.88320496 27.15723778 -31.32777765 13.70810999 255 26.041751)"/><path d="m52.388969 47.969912-44.176757-18.652368 36.158078 38.726093 13.27077 3.797288z" fill="#1c2c3d"/><path d="m72 113 7 26-18-8z" fill="#ebe0e0"/><ellipse cx="11" cy="160" fill="#001b3f" rx="69" ry="2"/><path d="m48 92h11v45h-11z" fill="#24170e"/><path d="m139 78-10-23-9 22z" fill="#d5d9f5"/><ellipse cx="30" cy="97" fill="#e7e5ec" rx="5" ry="39"/><ellipse fill="#278ee1" rx="1" ry="1" transform="matrix(.0579517 -3.8006112 21.799016 .33239126 15.606847 84.222427)"/><path d="m83 113h29v46h-29z" fill="#e6ddde"/><path d="m176 54-38-3-5 18z" fill="#132e32"/><path d="m3 87h15v38h-15z" fill="#f1e5e8"/><path d="m-.5-.5h1v1h-1z" transform="matrix(-4.78196889 -22.49739482 2.9344428 -.62373507 80 140)"/><ellipse fill="#3b3430" rx="1" ry="1" transform="matrix(-7.99577085 6.49894238 -20.47176798 -25.1868006 130.026872 119.116893)"/><path d="m80 92-29-17 29 53z" fill="#8c644b"/><ellipse fill="#9799a2" rx="1" ry="1" transform="matrix(.28545184 -7.81286208 67.62201009 2.47064735 142.032334 39.285956)"/><ellipse fill="#c0c0d1" rx="1" ry="1" transform="matrix(11.74750533 -3.56559004 5.60507464 18.46697 77.314735 67.874765)"/><ellipse cx="46" cy="145" fill="#fcf5f7" rx="18" ry="3"/><path d="m19 94h3v54h-3z" fill="#724a0e"/><path d="m134 127h12v39h-12z" fill="#8d878e"/><path d="m8.26248 156.30854 66.172099 2.341555-46.938526-7.528626-22.884697-2.600199z" fill="#e3dad9"/><path d="m-.5-.5h1v1h-1z" fill="#586571" transform="matrix(-60.2940002 -26.84461844 4.88083972 -10.96254549 196 33)"/><path d="m271 117-64-71 49 139z" fill="#b0a8b5"/><path d="m-3.474071 93.232832-12.525929-36.212223 143.779789-33.320598-85.65372 11.25091z" fill="#495c72"/><ellipse cx="179" cy="46" fill="#dbd4d7" rx="12" ry="12"/><ellipse rx="1" ry="1" transform="matrix(2.52749891 21.33306124 -39.35215159 4.6623651 29.532781 10.949341)"/><path d="m105.782171 48.770056-8.428698 57.946586-25.68147-29.0351 11.286 13.265766z" fill="#494344"/><ellipse cx="162" cy="139" fill="#100800" rx="4" ry="4"/><path d="m46.23734 142.693103-13.850312-49.646194 6.80056 8.637796 15.322278 35.76389z" fill="#a39592"/><path d="m67.776303 146.109594-1.756007-41.549896-7.930278-2.296035 15.662582 41.916871z" fill="#1f1912"/><path d="m154 114 4 30-9-21z" fill="#e1d7d9"/><path d="m-.5-.5h1v1h-1z" fill="#133162" transform="matrix(6.18063315 -3.28630094 7.98101657 15.01010908 69 85)"/><path d="m165 114h52v45h-52z" fill="#dbd6dc"/><path d="m70.266685 107.572709 5.387346-6.051101-16.032819-11.398228 5.502535 12.239269z" fill="#deab88"/><path d="m-.5-.5h1v1h-1z" fill="#090000" transform="matrix(-2.78346202 -19.80536137 1.98053614 -.2783462 76 111)"/><path d="m-.5-.5h1v1h-1z" fill="#fae3e4" transform="matrix(.62803147 -11.98355442 12.98218395 .68036743 170 69)"/><path d="m117 57h10v11h-10z" fill="#003ca3"/><path d="m161.089869 108.367679 19.411791-3.18587-26.553263 6.744862 6.287676 30.371414z" fill="#443f3f"/><ellipse fill="#34454e" rx="1" ry="1" transform="matrix(4.58064726 7.43363376 -31.30881201 19.29266746 87.162731 24.364641)"/><path d="m239 47 1 41 26 3z" fill="#3c5168"/><ellipse fill="#ded6dd" rx="1" ry="1" transform="matrix(1.65256133 -.22585728 2.07668161 15.19474445 63.543236 131.945909)"/><ellipse cx="56" cy="151" fill="#233656" rx="15" ry="2"/><path d="m97.051885 51.483471 8.338421 12.223501-11.893151 16.674119-1.040379-1.448243z" fill="#1f1b15"/><path d="m242.342179 93.910451-21.397309 62.535194-33.469754-49.750422-5.821973-23.928347z" fill="#cac4cd"/><path d="m36 57h3v42h-3z" fill="#1a2538"/><path d="m91.035601 75.01822-9.852279 3.034977-21.905395-4.986864-11.775851-33.161399z" fill="#c7c2cc"/><path d="m-.5-.5h1v1h-1z" fill="#4d4340" transform="matrix(-1.88342479 -26.93422936 11.9707686 -.83707768 200 66)"/><path d="m113 72-6-4 11-18z" fill="#cdb24c"/><path d="m140.586931 44.90858-16.63235-1.928002-15.777751-.084746 25.799565 19.087197z" fill="#ccc4cc"/><path d="m32.018594 86.062666 13.585215.718325-23.587299-27.984061 13.058816-6.048351z" fill="#a9a6b5"/><ellipse fill="#808596" rx="1" ry="1" transform="matrix(9.61576164 -2.83996547 4.1323091 13.99147271 72.742118 49.187424)"/><path d="m175.788424 82.057492-27.159912 13.641792 26.93922 14.268354 11.091104 3.707351z" fill="#7c7576"/><path d="m151.238466 40.956083 5.699569 1.789274 1.857215 3.740849-18.038183-1.723876z" fill="#ffd895"/><path d="m81 108h28v32h-28z" fill="#dcd6d8"/><path d="m93 82h12v27h-12z" fill="#8a797b"/><ellipse cx="143" cy="79" fill="#504848" rx="34" ry="3"/><path d="m131.841196 110.139896-.446084 22.465901-7.510545-2.234711-20.800839-29.759656z" fill="#38302a"/><ellipse cx="79" cy="168" fill="#cac4ca" rx="143" ry="6"/><path d="m116 159 13-26-73 24z" fill="#c6bfc3"/><path d="m259.77633 171.601132-53.892673-12.261446 22.015818-.690701 31.129207-60.27048z" fill="#a099a2"/><path d="m53 135-2-18 9 22z"/><path d="m140.395146 117.068425.755854-2.948176 11.802905 27.241053-16.943195-21.808074z" fill="#1d140d"/><ellipse fill="#4a5863" rx="1" ry="1" transform="matrix(.87590824 6.38455237 -28.00825278 3.84250267 144.194396 33.159438)"/><path d="m-.5-.5h1v1h-1z" fill="#4e3a2e" transform="matrix(3.16860293 -25.80619994 1.9850923 .24373869 19 132)"/><path d="m122.92403 51.156477-30.515727 1.263237 1.323935-5.218177 11.553686-.716643z" fill="#ddba77"/><path d="m133 124 11 8 4 12z" fill="#beb3b7"/><ellipse cx="78" cy="124" fill="#191009" rx="2" ry="11"/><ellipse fill="#17292f" rx="1" ry="1" transform="matrix(-10.12382332 11.67590844 -27.30068242 -23.67158725 205.58326 10.665498)"/><path d="m196 84 21-3-38-26z" fill="#847782"/><ellipse fill="#645551" rx="1" ry="1" transform="matrix(4.89677778 -6.3037446 15.72866451 12.21809889 168.735358 83.488396)"/><path d="m51 80-16 16 12 15z" fill="#242221"/><ellipse fill="#dbd6db" rx="1" ry="1" transform="matrix(5.70123763 11.03333944 -11.14496468 5.75891754 172.608871 124.303282)"/><path d="m70 129 8 7-5-25z" fill="#ddd7db"/><path d="m147 152 7-12 43 19z" fill="#dfd6d9"/><path d="m134.045387 134.769633 12.324861-25.908214-9.39046 11.154228 5.920335 33.325779z" fill="#473f3b"/><ellipse cx="31" cy="128" fill="#d8cece" rx="8" ry="8"/><ellipse cx="255" cy="18" fill="#00070a" rx="9" ry="50"/><path d="m-.5-.5h1v1h-1z" fill="#111216" transform="matrix(9.57656401 26.31139338 -.93969262 .34202014 64 118)"/><path d="m138 117 11-27-15 10z" fill="#ba8d73"/><path d="m87 77-10-10 5 27z" fill="#f4ebe4"/><path d="m159 50 14 12 3-4z" fill="#245a6b"/><path d="m93 51-10-5 9-5z" fill="#272a38"/><ellipse fill="#073a4c" rx="1" ry="1" transform="matrix(5.03033813 -2.34443079 1.59658358 3.42571651 137.225094 62.8163)"/><path d="m65.889462 131.920626-2.436023.077378-6.351668-10.906461 5.988083-.576204z" fill="#e2dadd"/><path d="m44 116h2v21h-2z" fill="#fbf5f8"/><path d="m100.253659 32.861559 19.566605-48.861559 45.214577 41.088672-66.127809 9.287699z" fill="#1d3038"/><path d="m63.526388 28.507624-20.961073 38.394196 17.498927 17.44962-17.562215-29.142781z" fill="#443d3a"/><path d="m130.548469 62.906359 27.280316 43.202128 3.463554 2.815226-6.164152-20.250871z" fill="#816b60"/><path d="m29 136h31v2h-31z" fill="#272f3f"/><path d="m104 157h51v6h-51z" fill="#87848c"/><path d="m-.5-.5h1v1h-1z" fill="#45536f" transform="matrix(-.52094453 2.95442326 -20.68096281 -3.64661173 31 149)"/><path d="m231.814407 98.998885-27.506738-40.004464 13.356567-6.747773 8.583025 12.916251z" fill="#c6b9c3"/><path d="m-.5-.5h1v1h-1z" fill="#010507" transform="matrix(2.08759651 -14.85402103 5.94160841 .83503861 148 65)"/><ellipse cy="83" fill="#118fe7" rx="23" ry="3"/><path d="m11.598678 81.517532 21.69823-2.329675-31.919526-14.23526-17.377382 14.227377z" fill="#9191a5"/><path d="m155.202125 61.180754-1.317959-5.840371 29.401888 13.672634-18.004164-8.57623z" fill="#ac9e8c"/><path d="m47 84-9 4 1-36z" fill="#8f8281"/><path d="m234 87 13 4-16-40z" fill="#7b7c87"/><path d="m85 36h9v5h-9z" fill="#e9ecff"/><path d="m129.899115 78.863279-6.276472-6.828924-6.093272 4.919758 17.177409-7.102963z" fill="#f5e8e0"/><path d="m17 90h3v22h-3z" fill="#e9dedc"/><path d="m-16 48 27-22 53 1z" fill="#0a1c26"/><ellipse cx="1" cy="158" fill="#939093" rx="60" ry="2"/><path d="m131.000965 135.272243 2.58204 6.493085-19.90541-24.34896-26.995538 12.636865z" fill="#dbd3d4"/><ellipse fill="#332f2c" rx="1" ry="1" transform="matrix(-8.05041982 -10.95162163 3.16977072 -2.33006452 150.907688 101.700655)"/><path d="m48 75 18 12 9 28z" fill="#9e7b64"/><path d="m21 87h4v14h-4z" fill="#b98935"/><path d="m40 99h3v43h-3z" fill="#674f3d"/><path d="m71 77 5 14 4-5z" fill="#627eaf"/><path d="m71 95h3v11h-3z" fill="#f8d8c4"/><path d="m-.5-.5h1v1h-1z" fill="#005ac9" transform="matrix(-7.3879377 9.45612904 -2.36403226 -1.84698443 44 43)"/><path d="m163 44 21 17 2-32z" fill="#c8c1c7"/><ellipse cx="88" cy="63" fill="#000413" rx="2" ry="2"/><path d="m48.244733 48.835379 1.628748-1.65475 4.886314 22.138842-12.266285-14.857951z" fill="#2b2927"/><path d="m-.5-.5h1v1h-1z" fill="#9c8076" transform="matrix(20.5 35.50704156 -1.73205081 1 117 83)"/><path d="m173.651453 99.068777-12.164685 73.2265 52.576631-42.261067-47.118854-25.98858z" fill="#d1ccd3"/><path d="m68.173942 114.932801 9.408313 39.983058-10.083264-7.651384 9.660266-6.363334z" fill="#dbd3d7"/><ellipse cx="70" cy="92" fill="#0d1a24" rx="2" ry="9"/><path d="m-.5-.5h1v1h-1z" fill="#dfd7d4" transform="matrix(2.2870286 -10.75962361 26.40998522 5.61361565 76 70)"/><path d="m136 81 4 5 3-2z" fill="#9ac7ff"/><ellipse cx="86" cy="105" fill="#dbd4d8" rx="7" ry="11"/><path d="m-.5-.5h1v1h-1z" fill="#a7b3e3" transform="matrix(-1.76589519 -.93894313 2.81682938 -5.29768556 39 55)"/><ellipse fill="#cfc6c5" rx="1" ry="1" transform="matrix(.131034 -1.7768901 34.00896238 2.50793801 24.53711 144.776081)"/><path d="m-.5-.5h1v1h-1z" fill="#181b22" transform="matrix(-.93358043 .35836795 -3.94204744 -10.26938469 77 130)"/><path d="m105 67h20v4h-20z" fill="#444245"/><ellipse cx="104" cy="52" fill="#7a671d" rx="4" ry="9"/><path d="m20.514505 114.337264 14.324952-13.614867 13.019322 18.313458-24.435887-24.299006z" fill="#d6c2ae"/><ellipse cx="55" cy="55" fill="#8181a8" rx="4" ry="5"/><path d="m58.491399 88.846604 7.283259-12.413971-10.293158-1.466598 1.557003 3.532806z" fill="#262437"/><ellipse fill="#c4b6c0" rx="1" ry="1" transform="matrix(-1.93740686 -3.34001012 7.75482197 -4.49826339 132.351426 55.968441)"/><ellipse fill="#59606a" rx="1" ry="1" transform="matrix(1.19806053 1.23579837 -11.75861103 11.39953583 90.453933 30.483729)"/><ellipse cx="152" cy="123" fill="#b8b3be" rx="5" ry="5"/><path d="m134.325084 55.710828-3.542427 1.585006-26.122318-10.069039 5.12848-8.425628z" fill="#d1cbca"/><path d="m109.699217 83.676716-6.270394 23.999738 22.053322-13.184108-21.288745-20.130489z" fill="#403a35"/><path d="m0 153h37v2h-37z" fill="#e8e1df"/><ellipse fill="#403d3b" rx="1" ry="1" transform="matrix(2.18256455 -.39108386 1.79862673 10.03779323 182.176183 94.989158)"/><path d="m112.41802 108.19451 21.405127-20.649127-7.310982 7.122125 7.344314.329316z" fill="#88847f"/><path d="m220.083021 110.153074 1.65609-25.110336-31.396672 1.59221 13.336006-7.090231z" fill="#aca0a6"/><path d="m87.093279 28.473833 51.405679 21.891932-19.959113-15.110987-24.903822-7.838012z" fill="#797c87"/><path d="m212.29596 85.682714-28.610308 3.802431 8.311119 48.203057-29.621505-4.61171z" fill="#d4ced4"/><path d="m179 90-7-6 1-4z" fill="#b8babf"/><path d="m212.230331 185-59.237065-20.807782-13.862122-45.261154 1.799722 20.71589z" fill="#b8b1b6"/><path d="m118 53 8 3-9 9z" fill="#003582"/><path d="m-.5-.5h1v1h-1z" fill="#201916" transform="matrix(-7.48806755 -21.74692724 2.83655573 -.97670446 146 129)"/><path d="m50 128h3v12h-3z" fill="#a29ea6"/><path d="m234 91h22v4h-22z" fill="#b3b3c2"/><path d="m86 48-5 9-6-27z" fill="#878ba7"/><path d="m52 137h12v7h-12z" fill="#595252"/><path d="m150 128h4v4h-4z" fill="#4a3f34"/><path d="m22.148657 76.817031-4.025336-3.51137 15.466049-11.998927 2.98423 18.912746z" fill="#bab7c6"/><path d="m235 58 12-4-28-22z" fill="#1e2931"/><path d="m50.954669 84.306797 15.878047 38.832915.236099-3.061573-.631875-11.77531z" fill="#29231c"/><path d="m-.5-.5h1v1h-1z" fill="#34393c" transform="matrix(.7167359 -1.86716085 21.47234981 8.24246284 135 92)"/><path d="m238.551088 60.964993-38.968995-41.993664 36.565246 52.040102 24.529542-27.653668z" fill="#4c5666"/><path d="m78 124h3v26h-3z" fill="#2b2a2d"/><path d="m47 39 4 3-5 1z" fill="#dcf6ff"/><path d="m106 64 10-7 1 5z" fill="#dbc547"/><path d="m-.5-.5h1v1h-1z" fill="#32261d" transform="matrix(-6.77381308 -27.16828034 .97029573 -.2419219 132 110)"/><path d="m166 69 29 2-11 12z" fill="#d6d1d4"/><path d="m170 77-14 3 17 8z" fill="#3b372c"/><path d="m105.753799 97.807905.259337-13.743991-12.344802 27.764806 7.542394-2.55795z" fill="#9e949d"/><path d="m89 63h14v6h-14z" fill="#211f1c"/><ellipse cx="159" cy="133" fill="#110c07" rx="2" ry="6"/><path d="m132.55512 72.950617 2.116795 8.197143-.084739-11.87254-15.341038-3.668741z" fill="#bebed1"/><ellipse cx="246" cy="81" fill="#af8b71" rx="14" ry="2"/><path d="m126.262899 122.052588 18.043399 25.258048-36.958907-35.606042 42.151739 13.059176z" fill="#4e443f"/><path d="m144.844283 157.944836-132.175376-17.126651 101.081375 19.224342 4.249378-28.997172z" fill="#bab4bc"/><path d="m249.778484 113.013594-30.944965-66.365089 3.577778 2.677153 13.287733 18.79855z" fill="#8f8fa0"/><path d="m-9 161 40 1-47 15z" fill="#b4aeb8"/><ellipse fill="#0e1b1f" rx="1" ry="1" transform="matrix(2.16732484 8.45893098 -31.80109735 8.14799275 142.449309 6.117024)"/><path d="m50.056599 67.920294-8.867541 25.048997.074105 9.787232 1.595128-34.946808z" fill="#856144"/><path d="m85 86h17v8h-17z" fill="#4c474a"/><path d="m162 58 4 7-8 12z" fill="#ab9b9e"/><path d="m64 90h3v15h-3z" fill="#e7a77d"/><path d="m-.5-.5h1v1h-1z" fill="#987b65" transform="matrix(2.99817248 .10469849 -.97718591 27.98294316 0 100)"/><path d="m26.287383 34.866558 61.143952-8.779836-63.964954 17.89124-24.534871-10.554598z" fill="#1f2c32"/><path d="m86.247088 67.751645-36.782374 7.317185 34.499472-25.243991 6.347386 33.841142z" fill="#b1b0c3"/><ellipse fill="#3d3635" rx="1" ry="1" transform="matrix(-18.06918311 -1.17955786 .06514144 -.99787604 99.337947 56.641926)"/><ellipse fill="#c0bac4" rx="1" ry="1" transform="matrix(-1.38609176 -10.88917411 13.35946751 -1.7005374 3.672317 131.180515)"/><path d="m79 114v-28l-4 14z" fill="#9c643f"/><path d="m52.816101 29.613967 62.891491-24.632296-4.166153.893821-41.586842-21.875492z" fill="#000e14"/><ellipse cx="33" cy="83" fill="#c0d0ec" rx="4" ry="4"/><path d="m-.5-.5h1v1h-1z" fill="#eae0e4" transform="matrix(-4.49951327 -5.3623111 .76604444 -.64278761 134 127)"/><path d="m75 142-8-14-1 9z" fill="#776c63"/><path d="m55.612879 59.079617 4.981559 7.581631-5.04457 14.716167-.08869-4.791121z" fill="#5a556f"/><path d="m200.156926 74.182786-7.734172-5.337221-3.577588-16.964544 32.619658 36.617133z" fill="#696568"/><path d="m199 72-3-22 10 5z" fill="#3b3736"/><path d="m165.564396 8.43451 1.955712 12.006846-7.582281 2.993895 66.959564 16.689514z" fill="#444f57"/><path d="m168.322837 74.284283-1.619743-16.999934 12.374088 14.233729 7.534144-27.533016z" fill="#d6d2d4"/><path d="m-.5-.5h1v1h-1z" fill="#8d8f9a" transform="matrix(-1.87120522 -8.80332841 31.30072322 -6.65317411 172 36)"/><path d="m137 58h4v24h-4z" fill="#2a3a41"/><path d="m-.5-.5h1v1h-1z" fill="#c28818" transform="matrix(-4.72759288 1.62784077 -1.62784077 -4.72759288 150 46)"/><ellipse rx="1" ry="1" transform="matrix(-2.7568076 -25.79989082 49.21372159 -5.25865642 12.804752 3.121717)"/><path d="m-.5-.5h1v1h-1z" fill="#88838a" transform="matrix(1.25434156 11.93426274 -8.95069706 .94075617 143 152)"/><path d="m25 154h66v4h-66z" fill="#c9c3c6"/><path d="m215 157-13-40-4 40z" fill="#e3dfe3"/><path d="m121 72h16v6h-16z" fill="#e3d8d1"/><path d="m115.210131 76.604112 3.32599-3.195545 12.613676 5.955191 6.385457 11.503129z" fill="#4c5f80"/><path d="m-.5-.5h1v1h-1z" fill="#291300" transform="matrix(1.90808995 9.81627183 -.98162718 .190809 74 109)"/><path d="m223.440346 106.861018 25.951254-4.691189 8.072084 13.116424-47.007732 19.157876z" fill="#bdb7c3"/><path d="m56 119h9v6h-9z" fill="#cdbebd"/><path d="m-.5-.5h1v1h-1z" fill="#1f292d" transform="matrix(-1.21553724 -6.89365427 4.92403877 -.86824089 88 45)"/><path d="m271 40v33l-28-1z" fill="#152133"/><path d="m69.308564 111.287342 4.896059-5.675426 4.914511-16.263932-7.738446 11.989349z" fill="#d2a280"/><path d="m106 45-10 4 21 4z" fill="#d2bb59"/><path d="m55 116 4-5-3 16z" fill="#7a533a"/><path d="m47 73h2v63h-2z" fill="#433a34"/><path d="m11.007702 72.199109 28.726603-18.22682-14.279137 2.098092-11.440322-11.054196z" fill="#787886"/><path d="m97.062089 87.520412 14.593835-20.222463 5.407976 10.500403-33.261847 4.307487z" fill="#897669"/><ellipse fill="#9f9ca6" rx="1" ry="1" transform="matrix(.1813224 1.9615603 -22.11046468 2.04384368 185.743474 165.140207)"/><path d="m70 88-8-4 9-1z" fill="#477bab"/><ellipse cx="13" cy="160" fill="#142b4c" rx="49" ry="1"/><path d="m136 72h9v6h-9z" fill="#a38c81"/><ellipse fill="#e0dcdc" rx="1" ry="1" transform="matrix(1.35148335 -.8083041 12.1609839 20.33314841 70.404121 68.770215)"/><ellipse cx="27" cy="136" fill="#2b3e60" rx="2" ry="2"/><path d="m79 35 10 10-24-11z" fill="#545c63"/><path d="m92.034745 58.195904-33.211788-9.280931 13.482956 14.185289-4.154078-7.162583z" fill="#788193"/><path d="m-.5-.5h1v1h-1z" fill="#ac7993" transform="matrix(6.29155832 3.06859803 -4.82208261 9.88673451 187 62)"/><path d="m193.149593 41.593165 16.467409 4.792405 14.479103 32.322283-3.001712-8.641407z" fill="#c7afb0"/><path d="m-.5-.5h1v1h-1z" fill="#f7eeff" transform="matrix(1.57602151 1.23132295 -.61566148 .78801075 247 63)"/><path d="m135.692315 38.3119-18.008561 7.33168 5.238728-20.978848-6.658508 6.536489z" fill="#72767f"/><path d="m148 110h4v24h-4z" fill="#9d949a"/><path d="m-.5-.5h1v1h-1z" fill="#fff9f5" transform="matrix(.01745241 -.9998477 10.99832465 .19197647 33 139)"/><ellipse fill="#ae96ae" rx="1" ry="1" transform="matrix(4.92709204 -3.65872759 2.09651676 2.82331242 97.927834 46.993174)"/><path d="m94.822524 80.86319 5.325141-2.076763-12.221601-25.326995 4.630574 3.404537z" fill="#281f1a"/><path d="m79 138 4 10h-4z" fill="#090f16"/><path d="m-.5-.5h1v1h-1z" fill="#561b1b" transform="matrix(.74314483 -.66913061 9.36782849 10.40402756 67 79)"/><path d="m36 127h3v9h-3z" fill="#ede5e4"/><path d="m29 87h5v38h-5z" fill="#e8dddb"/><ellipse cx="40" cy="141" fill="#38445c" rx="16" ry="1"/><path d="m-.5-.5h1v1h-1z" fill="#a38f82" transform="matrix(-.74314483 .66913061 -10.7060897 -11.89031721 150 92)"/><path d="m126.25177 3.807604.148809-19.807604 31.941453 48.507961-16.425136-3.63256z" fill="#273036"/><ellipse fill="#6e7485" rx="1" ry="1" transform="matrix(-54.55157325 -3.41964688 .06256369 -.99804097 20.691092 147.832687)"/><path d="m173 107 11 39-22-14z" fill="#dedade"/><path d="m-.5-.5h1v1h-1z" fill="#807a7a" transform="matrix(-16.60361076 -14.43329864 .65605903 -.75470958 108 98)"/><ellipse cx="100" cy="86" fill="#2a2721" rx="3" ry="3"/><path d="m-.5-.5h1v1h-1z" fill="#97acb5" transform="matrix(1.40841469 -2.64884278 11.47831871 6.10313032 164 51)"/><ellipse fill="#a9450e" rx="1" ry="1" transform="matrix(.77164086 -2.28068882 .94725186 .32049012 136.235541 56.773727)"/><path d="m-.5-.5h1v1h-1z" fill="#111515" transform="matrix(7.94878896 12.72072144 -2.54414429 1.58975779 56 132)"/><ellipse cx="91" cy="69" fill="#9f8f82" rx="3" ry="3"/><ellipse cx="41" cy="64" fill="#cfc7ca" rx="2" ry="2"/><ellipse cx="139" cy="91" fill="#012" rx="3" ry="3"/><ellipse cx="91" cy="161" fill="#848690" rx="25" ry="2"/><path d="m18 142 2 6v-13z" fill="#5f4d46"/><path d="m28.275785 14.91687 2.156908-3.021751.48045-10.915503-8.49108 13.337747z" fill="#102431"/><path d="m79.762345 90.635873 10.957152 39.017906-11.010134-4.827636.964594-16.082084z" fill="#c4bbbe"/><ellipse cx="101" cy="134" fill="#d9d3d4" rx="20" ry="20"/><path d="m185.770831 161.939451-6.448507-18.439524-13.161074 37.178935-96.696569-16.882447z" fill="#bfb9c0"/><path d="m88.936439 81.150254-.70904-12.242698-29.301176 5.885051 3.54447-18.987575z" fill="#d6ced0"/><path d="m152.842433 76.085737.275963-17.438257 11.650035 37.141044-9.282383 9.112773z" fill="#5f5a57"/><path d="m183.032311 30.295182 9.968166-7.162155-32.154247 4.83969-15.887607 13.747834z" fill="#656b72"/><path d="m-.5-.5h1v1h-1z" fill="#4b311e" transform="matrix(-.48480962 -.87461971 13.99391531 -7.75695392 62 108)"/><path d="m30.464843 158.433577 2.309611.09455-48.145166 2.746025 20.45666-5.361305z" fill="#7c7d88"/><ellipse cx="114" cy="67" rx="2" ry="2"/><path d="m200.960639 52.424067-15.092459 9.163207 6.140563-20.739968 12.209822 18.792004z" fill="#655e6b"/><path d="m261 48-12-28-10 37z" fill="#061117"/><path d="m156 60h5v12h-5z" fill="#262b2c"/><path d="m45.179671 46.357388-9.912523-27.662507 6.611374 21.317575-1.4983 22.877867z" fill="#1b3451"/><path d="m-.5-.5h1v1h-1z" fill="#705d53" transform="matrix(-.99254615 -.12186934 4.26542702 -34.73911531 146 107)"/><path d="m111 51-18 1 18 9z" fill="#58463e"/><path d="m199.519176 62.359122 11.851619 23.522995-4.964904-3.996531 1.175143-26.970846z" fill="#886f69"/><ellipse fill="#698ad0" rx="1" ry="1" transform="matrix(-5.12516186 -8.77895583 .86360312 -.50417224 125.81326 61.443334)"/><path d="m124 103-13 6 38 18z" fill="#342c25"/><path d="m5 40h9v21h-9z" fill="#414952"/><path d="m243.169618 76.838084 27.830382-15.828805-9.475705 15.837795-9.844112 3.11218z" fill="#2f5177"/><path d="m75.268486 68.376816 27.798029 1.146452 2.822254 21.247425-9.473173-21.743307z" fill="#89766a"/><ellipse cx="131" cy="88" fill="#ceb99b" rx="2" ry="2"/><path d="m5.790123 139.662855 18.439881 17.552487-12.244586-17.487048-27.985418 15.876733z" fill="#d2ccce"/><path d="m167 81h3v13h-3z" fill="#8d8883"/><path d="m19 60h17v8h-17z" fill="#9e9fb7"/><path d="m43 77h4v3h-4z" fill="#e9a675"/><path d="m63 76-2 4-6-3z" fill="#000412"/><ellipse cx="42" cy="87" fill="#bbaa9e" rx="2" ry="2"/><path d="m-.5-.5h1v1h-1z" fill="#002f62" transform="matrix(.13961925 7.99878156 -6.99893387 .12216685 120 61)"/><ellipse cx="37" cy="69" fill="#11100d" rx="1" ry="9"/><ellipse cx="71" cy="120" fill="#e2dce0" rx="4" ry="4"/><path d="m9 76 17 5 5-5z" fill="#7a87a4"/><path d="m119.446352 100.271564-7.076781 2.279786-9.157023-23.265216 9.325502-.015521z" fill="#39322b"/><path d="m154.217977 41.181989 40.580025 19.073343-50.841215-17.520772-14.091957 10.086643z" fill="#c9bcb8"/><ellipse cx="66" cy="80" fill="#b37a9c" rx="2" ry="2"/><path d="m113 70h3v13h-3z" fill="#ae8a66"/></g></svg>