<svg xmlns="http://www.w3.org/2000/svg" version="1.1" width="1024" height="680">
<rect x="0" y="0" width="1024" height="680" fill="#442a4c" />
<g transform="scale(4.000000) translate(0.5 0.5)">
<g transform="translate(144 85) rotate(92) scale(47 169)"><rect fill="#e3a6e9" fill-opacity="0.501961" x="-0.5" y="-0.5" width="1" height="1" /></g>
<g transform="translate(173.564564 0.016544) rotate(180.465060) scale(132.724620 42.572004)"><ellipse fill="#000000" fill-opacity="0.501961" cx="0" cy="0" rx="1" ry="1" /></g>
<g transform="translate(48.102246 60.740908) rotate(181.275775) scale(35.831453 13.077520)"><ellipse fill="#91fdff" fill-opacity="0.501961" cx="0" cy="0" rx="1" ry="1" /></g>
<g transform="translate(57.853624 105.481388) rotate(352.689144) scale(109.456297 6.327197)"><ellipse fill="#ff71ba" fill-opacity="0.501961" cx="0" cy="0" rx="1" ry="1" /></g>
<polygon fill="#27000f" fill-opacity="0.501961" points="-16,150 271,108 249,185" />
<g transform="translate(242.856350 91.649617) rotate(181.884572) scale(89.859848 9.931587)"><ellipse fill="#fcaaf7" fill-opacity="0.501961" cx="0" cy="0" rx="1" ry="1" /></g>
<rect fill="#000715" fill-opacity="0.501961" x="94" y="0" width="77" height="69" />
<rect fill="#00040f" fill-opacity="0.501961" x="3" y="74" width="83" height="17" />
<ellipse fill="#760c4f" fill-opacity="0.501961" cx="157" cy="118" rx="74" ry="19" />
<g transform="translate(9.850901 141.901423) rotate(348.404708) scale(48.123184 31.508577)"><ellipse fill="#1a0005" fill-opacity="0.501961" cx="0" cy="0" rx="1" ry="1" /></g>
<g transform="translate(30.429921 12.476995) rotate(290.354107) scale(1.820642 145.701650)"><ellipse fill="#ffffff" fill-opacity="0.501961" cx="0" cy="0" rx="1" ry="1" /></g>
<polygon fill="#00254c" fill-opacity="0.501961" points="148,56 -13,-1 9,57" />
<polygon fill="#fde8ff" fill-opacity="0.501961" points="212.006957,59.357786,231.507553,39.353293,203.363400,47.897612,214.886222,58.403287" />
<g transform="translate(254.453333 32.985725) rotate(116.194201) scale(29.149336 147.567330)"><ellipse fill="#000000" fill-opacity="0.501961" cx="0" cy="0" rx="1" ry="1" /></g>
<rect fill="#000010" fill-opacity="0.501961" x="97" y="83" width="53" height="8" />
<polygon fill="#fffdff" fill-opacity="0.501961" points="68.543489,54.812583,52.883007,70.742938,54.950554,84.200857,84.992939,59.073432" />
<g transform="translate(84 155) rotate(247) scale(2 90)"><rect fill="#fff9ff" fill-opacity="0.501961" x="-0.5" y="-0.5" width="1" height="1" /></g>
<polygon fill="#000000" fill-opacity="0.501961" points="-16.000000,163.973192,98.411313,143.552345,187.686274,103.074865,128.666641,117.673938" />
<rect fill="#005a7c" fill-opacity="0.501961" x="154" y="40" width="38" height="33" />
<g transform="translate(178.957882 87.090520) rotate(289.385111) scale(8.790913 28.637101)"><ellipse fill="#f5cde4" fill-opacity="0.501961" cx="0" cy="0" rx="1" ry="1" /></g>
<g transform="translate(118 118) rotate(255) scale(2 169)"><rect fill="#ff7de5" fill-opacity="0.501961" x="-0.5" y="-0.5" width="1" height="1" /></g>
<g transform="translate(201 135) rotate(124) scale(113 10)"><rect fill="#8a349f" fill-opacity="0.501961" x="-0.5" y="-0.5" width="1" height="1" /></g>
<polygon fill="#4096bf" fill-opacity="0.501961" points="96,52 -10,70 37,40" />
<g transform="translate(87 78) rotate(92) scale(15 15)"><rect fill="#e5f6ff" fill-opacity="0.501961" x="-0.5" y="-0.5" width="1" height="1" /></g>
<g transform="translate(232.725035 159.424147) rotate(317.314932) scale(41.604766 26.311124)"><ellipse fill="#000005" fill-opacity="0.501961" cx="0" cy="0" rx="1" ry="1" /></g>
<g transform="translate(123 108) rotate(-11) scale(109 5)"><rect fill="#03000c" fill-opacity="0.501961" x="-0.5" y="-0.5" width="1" height="1" /></g>
<g transform="translate(8 66) rotate(276) scale(1 117)"><rect fill="#ffffff" fill-opacity="0.501961" x="-0.5" y="-0.5" width="1" height="1" /></g>
<rect fill="#ffa2cc" fill-opacity="0.501961" x="67" y="92" width="81" height="11" />
<polygon fill="#000000" fill-opacity="0.501961" points="4,-3 271,-1 121,42" />
<g transform="translate(32.972711 140.298577) rotate(345.933037) scale(143.782363 1.816467)"><ellipse fill="#e6238d" fill-opacity="0.501961" cx="0" cy="0" rx="1" ry="1" /></g>
<polygon fill="#d5c9ff" fill-opacity="0.501961" points="226,35 210,53 229,45" />
<polygon fill="#a00066" fill-opacity="0.501961" points="145.115580,145.868631,136.592371,164.295965,159.617758,154.608988,211.351983,104.858484" />
<polygon fill="#7b33a6" fill-opacity="0.501961" points="197.557150,129.017030,271.000000,87.541271,241.597703,62.800184,242.562971,87.607333" />
<g transform="translate(66.470190 110.154619) rotate(173.303022) scale(59.944076 2.569092)"><ellipse fill="#f92b8b" fill-opacity="0.501961" cx="0" cy="0" rx="1" ry="1" /></g>
<polygon fill="#0c0008" fill-opacity="0.501961" points="113.821502,170.732376,136.313069,133.500869,99.028412,149.225944,36.773387,178.670267" />
<g transform="translate(140.770750 129.473209) rotate(65.577561) scale(1.146561 232.480824)"><ellipse fill="#ee91b7" fill-opacity="0.501961" cx="0" cy="0" rx="1" ry="1" /></g>
<polygon fill="#0a1349" fill-opacity="0.501961" points="79.457906,43.165210,112.558812,91.084831,107.186577,51.442794,85.357662,36.213222" />
<rect fill="#ffd4e3" fill-opacity="0.501961" x="135" y="90" width="62" height="7" />
<g transform="translate(11.249884 19.274573) rotate(191.658822) scale(40.378395 8.549394)"><ellipse fill="#000000" fill-opacity="0.501961" cx="0" cy="0" rx="1" ry="1" /></g>
<ellipse fill="#ff006e" fill-opacity="0.501961" cx="37" cy="94" rx="27" ry="2" />
<polygon fill="#0c0001" fill-opacity="0.501961" points="12,66 46,100 -16,105" />
<polygon fill="#af9cde" fill-opacity="0.501961" points="232.855699,61.215348,229.828875,74.708410,223.383385,77.237415,221.453417,55.744743" />
<g transform="translate(22 106) rotate(175) scale(62 3)"><rect fill="#ff7bc9" fill-opacity="0.501961" x="-0.5" y="-0.5" width="1" height="1" /></g>
<polygon fill="#c4066d" fill-opacity="0.501961" points="112.545569,93.220491,152.526533,91.775576,164.538370,93.853099,104.751622,96.289406" />
<g transform="translate(29 159) rotate(246) scale(16 104)"><rect fill="#000000" fill-opacity="0.501961" x="-0.5" y="-0.5" width="1" height="1" /></g>
<rect fill="#e2ffff" fill-opacity="0.501961" x="9" y="60" width="18" height="8" />
<polygon fill="#000432" fill-opacity="0.501961" points="111.600453,91.794255,57.401943,89.326192,67.546995,71.330375,88.649374,88.335093" />
<g transform="translate(29 11) rotate(202) scale(79 2)"><rect fill="#ffffff" fill-opacity="0.501961" x="-0.5" y="-0.5" width="1" height="1" /></g>
<polygon fill="#63317b" fill-opacity="0.501961" points="223.312591,90.565971,221.892121,62.776560,182.277233,78.819482,234.785704,87.838375" />
<g transform="translate(128 78) rotate(97) scale(1 67)"><rect fill="#ffdeff" fill-opacity="0.501961" x="-0.5" y="-0.5" width="1" height="1" /></g>
<polygon fill="#a40585" fill-opacity="0.501961" points="158.823131,106.217269,51.782167,127.357309,-13.776775,151.905518,89.385318,124.986842" />
<ellipse fill="#005778" fill-opacity="0.501961" cx="36" cy="46" rx="17" ry="15" />
<rect fill="#001a32" fill-opacity="0.501961" x="156" y="30" width="47" height="21" />
<polygon fill="#000000" fill-opacity="0.501961" points="73,117 -5,117 -16,143" />
<polygon fill="#e52c8e" fill-opacity="0.501961" points="142.153685,127.173271,222.834140,91.725890,68.662814,153.944312,91.383141,145.923305" />
<g transform="translate(146.835738 135.167727) rotate(151.851911) scale(59.680587 3.908921)"><ellipse fill="#0d0111" fill-opacity="0.501961" cx="0" cy="0" rx="1" ry="1" /></g>
<g transform="translate(116.065401 98.096103) rotate(265.406273) scale(1.167351 84.110210)"><ellipse fill="#fffffa" fill-opacity="0.501961" cx="0" cy="0" rx="1" ry="1" /></g>
<rect fill="#000009" fill-opacity="0.501961" x="231" y="0" width="25" height="66" />
<polygon fill="#9e4d80" fill-opacity="0.501961" points="199.381427,67.205113,150.492019,96.854059,199.203209,69.932825,77.406508,18.378317" />
<rect fill="#6192d6" fill-opacity="0.501961" x="127" y="67" width="53" height="11" />
<polygon fill="#0f042e" fill-opacity="0.501961" points="142,55 77,30 107,74" />
<polygon fill="#c6c7f9" fill-opacity="0.501961" points="225.299252,85.038015,255.523238,75.076077,243.826958,83.319689,236.982016,89.891856" />
<g transform="translate(90 64) rotate(197) scale(9 28)"><rect fill="#3179ad" fill-opacity="0.501961" x="-0.5" y="-0.5" width="1" height="1" /></g>
<g transform="translate(253 86) rotate(139) scale(22 9)"><rect fill="#300047" fill-opacity="0.501961" x="-0.5" y="-0.5" width="1" height="1" /></g>
<g transform="translate(28 169) rotate(340) scale(150 1)"><rect fill="#ff25a1" fill-opacity="0.501961" x="-0.5" y="-0.5" width="1" height="1" /></g>
<g transform="translate(19.773342 9.041272) rotate(199.802945) scale(151.559173 1.000000)"><ellipse fill="#e9f3ff" fill-opacity="0.501961" cx="0" cy="0" rx="1" ry="1" /></g>
<polygon fill="#66295e" fill-opacity="0.501961" points="28.655062,69.658989,33.195945,88.691178,50.206903,71.394944,44.715344,69.482648" />
<polygon fill="#2f0853" fill-opacity="0.501961" points="249.034952,59.497370,218.097916,82.592077,247.015458,80.944139,213.696746,39.468558" />
<polygon fill="#fffaff" fill-opacity="0.501961" points="64,55 86,62 56,76" />
<polygon fill="#472388" fill-opacity="0.501961" points="54.565495,46.085162,67.514015,46.948683,168.520481,67.701520,159.848572,72.153613" />
<rect fill="#ffffff" fill-opacity="0.501961" x="163" y="90" width="54" height="4" />
<rect fill="#ff269e" fill-opacity="0.501961" x="21" y="93" width="47" height="2" />
<g transform="translate(214.391706 50.178246) rotate(289.436299) scale(2.703812 6.000258)"><ellipse fill="#ffffff" fill-opacity="0.501961" cx="0" cy="0" rx="1" ry="1" /></g>
<polygon fill="#001122" fill-opacity="0.501961" points="22.207741,14.299983,114.680380,43.450203,89.316592,46.114192,42.101615,28.652923" />
<polygon fill="#19031a" fill-opacity="0.501961" points="179.134585,163.489669,198.976571,121.588996,125.196674,185.000000,175.316855,185.000000" />
<polygon fill="#ffffff" fill-opacity="0.501961" points="86.429585,84.663684,89.203775,88.117133,100.753829,77.645128,89.214839,78.040746" />
<g transform="translate(160 107) rotate(251) scale(1 57)"><rect fill="#ffd3ea" fill-opacity="0.501961" x="-0.5" y="-0.5" width="1" height="1" /></g>
<rect fill="#510e6c" fill-opacity="0.501961" x="46" y="95" width="32" height="5" />
<rect fill="#d5aade" fill-opacity="0.501961" x="0" y="47" width="3" height="24" />
<rect fill="#93002d" fill-opacity="0.501961" x="24" y="107" width="31" height="4" />
<g transform="translate(101 26) rotate(296) scale(1 106)"><rect fill="#a10d47" fill-opacity="0.501961" x="-0.5" y="-0.5" width="1" height="1" /></g>
<polygon fill="#e93a96" fill-opacity="0.501961" points="85.991541,111.689191,99.129068,100.586734,52.894699,104.567607,59.555090,114.652142" />
<g transform="translate(32.021305 4.154561) rotate(17.728776) scale(44.259134 5.655849)"><ellipse fill="#000008" fill-opacity="0.501961" cx="0" cy="0" rx="1" ry="1" /></g>
<ellipse fill="#2094ab" fill-opacity="0.501961" cx="173" cy="66" rx="10" ry="6" />
<polygon fill="#370947" fill-opacity="0.501961" points="153.787336,85.750363,106.211980,80.251218,96.870290,88.721289,150.986316,90.155058" />
<polygon fill="#0a4687" fill-opacity="0.501961" points="53.399747,46.666353,-1.979559,36.518699,65.854610,35.362015,87.981079,61.640045" />
<g transform="translate(107 95) rotate(4) scale(30 1)"><rect fill="#6b0056" fill-opacity="0.501961" x="-0.5" y="-0.5" width="1" height="1" /></g>
<polygon fill="#ad46af" fill-opacity="0.501961" points="238,96 224,110 174,94" />
<g transform="translate(21 155) rotate(346) scale(68 22)"><rect fill="#050310" fill-opacity="0.501961" x="-0.5" y="-0.5" width="1" height="1" /></g>
<polygon fill="#59bbcb" fill-opacity="0.501961" points="44.234344,53.160988,44.274593,57.737103,53.385869,69.329095,70.537470,47.218264" />
<polygon fill="#000006" fill-opacity="0.501961" points="128,18 268,-14 270,46" />
<rect fill="#e2e1ff" fill-opacity="0.501961" x="55" y="72" width="7" height="11" />
<polygon fill="#0c010c" fill-opacity="0.501961" points="61.102270,133.898969,33.170311,166.294338,91.851326,141.605093,162.234023,113.571288" />
<rect fill="#f8fcff" fill-opacity="0.501961" x="222" y="39" width="8" height="6" />
<polygon fill="#3e0b70" fill-opacity="0.501961" points="83.283435,115.414930,113.519233,115.961998,-7.874953,145.058408,58.681820,122.048344" />
<polygon fill="#c7afdc" fill-opacity="0.501961" points="10,56 8,51 10,47" />
<rect fill="#6dfff5" fill-opacity="0.501961" x="87" y="62" width="7" height="8" />
<g transform="translate(178 42) rotate(266) scale(3 26)"><rect fill="#0086b7" fill-opacity="0.501961" x="-0.5" y="-0.5" width="1" height="1" /></g>
<rect fill="#0b0004" fill-opacity="0.501961" x="4" y="41" width="4" height="47" />
<rect fill="#a29ad8" fill-opacity="0.501961" x="111" y="68" width="37" height="4" />
<polygon fill="#622566" fill-opacity="0.501961" points="172.654362,157.049106,238.393746,98.368110,190.466447,160.526871,211.530914,153.408721" />
<g transform="translate(15 67) rotate(185) scale(183 1)"><rect fill="#ffc6e1" fill-opacity="0.501961" x="-0.5" y="-0.5" width="1" height="1" /></g>
<rect fill="#f6c8e8" fill-opacity="0.501961" x="68" y="92" width="24" height="4" />
<g transform="translate(192 67) rotate(289) scale(1 19)"><rect fill="#ffeaff" fill-opacity="0.501961" x="-0.5" y="-0.5" width="1" height="1" /></g>
<g transform="translate(7.272720 33.202449) rotate(264.839815) scale(4.832661 1.000000)"><ellipse fill="#f1a4f9" fill-opacity="0.501961" cx="0" cy="0" rx="1" ry="1" /></g>
<polygon fill="#00050d" fill-opacity="0.501961" points="19.463013,92.600811,35.760363,70.243094,8.303732,70.812835,-6.284232,94.196202" />
<g transform="translate(208.993857 117.731851) rotate(257.667856) scale(1.000000 6.875540)"><ellipse fill="#dbc3ee" fill-opacity="0.501961" cx="0" cy="0" rx="1" ry="1" /></g>
<polygon fill="#d4c5f5" fill-opacity="0.501961" points="229.288212,60.935645,221.009951,60.674895,231.946261,78.815624,221.021027,73.371884" />
<ellipse fill="#220830" fill-opacity="0.501961" cx="124" cy="73" rx="2" ry="18" />
<polygon fill="#270b2c" fill-opacity="0.501961" points="259.445551,101.496598,178.748422,139.210747,211.593059,131.804209,224.012279,159.658173" />
<rect fill="#ffffff" fill-opacity="0.501961" x="125" y="78" width="6" height="4" />
<ellipse fill="#a5dadf" fill-opacity="0.501961" cx="168" cy="74" rx="23" ry="2" />
<polygon fill="#17092f" fill-opacity="0.501961" points="179.247009,55.287836,233.333183,59.387329,248.629761,33.341501,204.510128,66.815552" />
<rect fill="#00bbde" fill-opacity="0.501961" x="172" y="51" width="17" height="3" />
<polygon fill="#691b80" fill-opacity="0.501961" points="224.595411,79.174172,271.000000,61.662785,218.272408,88.633349,247.753635,114.018529" />
<polygon fill="#390830" fill-opacity="0.501961" points="194.037405,94.508369,102.793392,105.952978,86.292551,118.581805,115.004046,114.183880" />
<polygon fill="#0e1232" fill-opacity="0.501961" points="62.900296,72.993030,57.967046,92.644409,81.554497,87.776859,72.331725,71.947182" />
<ellipse fill="#212c65" fill-opacity="0.501961" cx="176" cy="70" rx="26" ry="2" />
<rect fill="#efe5ff" fill-opacity="0.501961" x="205" y="45" width="9" height="7" />
<g transform="translate(196 143) rotate(244) scale(2 14)"><rect fill="#d893de" fill-opacity="0.501961" x="-0.5" y="-0.5" width="1" height="1" /></g>
<polygon fill="#164683" fill-opacity="0.501961" points="85.210082,58.703423,55.732308,57.324889,89.976772,44.782233,85.144449,77.642097" />
<ellipse fill="#ee96b1" fill-opacity="0.501961" cx="33" cy="80" rx="3" ry="3" />
<ellipse fill="#ff3792" fill-opacity="0.501961" cx="5" cy="107" rx="28" ry="3" />
<g transform="translate(178 106) rotate(158) scale(18 4)"><rect fill="#310028" fill-opacity="0.501961" x="-0.5" y="-0.5" width="1" height="1" /></g>
<polygon fill="#ffcbe2" fill-opacity="0.501961" points="202,80 187,99 216,94" />
<polygon fill="#06000d" fill-opacity="0.501961" points="14,12 -9,60 -16,-6" />
<g transform="translate(170 117) rotate(155) scale(87 1)"><rect fill="#e5a0b7" fill-opacity="0.501961" x="-0.5" y="-0.5" width="1" height="1" /></g>
<g transform="translate(195 88) rotate(6) scale(26 2)"><rect fill="#dc34a3" fill-opacity="0.501961" x="-0.5" y="-0.5" width="1" height="1" /></g>
<polygon fill="#23061d" fill-opacity="0.501961" points="167,118 107,146 150,149" />
<polygon fill="#ffffff" fill-opacity="0.501961" points="80,58 64,63 85,66" />
<g transform="translate(213 54) rotate(279) scale(4 16)"><rect fill="#aa58d7" fill-opacity="0.501961" x="-0.5" y="-0.5" width="1" height="1" /></g>
<polygon fill="#1a1272" fill-opacity="0.501961" points="147,78 138,73 147,72" />
<g transform="translate(52 164) rotate(247) scale(3 64)"><rect fill="#110000" fill-opacity="0.501961" x="-0.5" y="-0.5" width="1" height="1" /></g>
<g transform="translate(66.562795 101.802323) rotate(82.604344) scale(1.932708 35.648816)"><ellipse fill="#ffa0c5" fill-opacity="0.501961" cx="0" cy="0" rx="1" ry="1" /></g>
<g transform="translate(36 95) rotate(267) scale(1 58)"><rect fill="#e01570" fill-opacity="0.501961" x="-0.5" y="-0.5" width="1" height="1" /></g>
<polygon fill="#af84e8" fill-opacity="0.501961" points="242.519736,102.195560,231.737425,96.946134,271.000000,97.958738,269.684433,96.574155" />
<polygon fill="#461065" fill-opacity="0.501961" points="255,68 219,68 266,54" />
<g transform="translate(99 55) rotate(102) scale(1 111)"><rect fill="#872086" fill-opacity="0.501961" x="-0.5" y="-0.5" width="1" height="1" /></g>
<g transform="translate(145 155) rotate(54) scale(17 35)"><rect fill="#5b0040" fill-opacity="0.501961" x="-0.5" y="-0.5" width="1" height="1" /></g>
<path stroke="#ff8cbf" stroke-opacity="0.501961" fill="none" d="M 194.786449 103.554247 Q 185.513869 105.946301, 164.423738 115.479480" stroke-width="0.500000" />
<g transform="translate(86 76) rotate(141) scale(54 1)"><rect fill="#1e1739" fill-opacity="0.501961" x="-0.5" y="-0.5" width="1" height="1" /></g>
<g transform="translate(88.419535 105.531011) rotate(81.664329) scale(1.000000 85.567358)"><ellipse fill="#fb76aa" fill-opacity="0.501961" cx="0" cy="0" rx="1" ry="1" /></g>
<g transform="translate(154.780989 110.984206) rotate(251.766747) scale(1.062993 25.780639)"><ellipse fill="#7d0e61" fill-opacity="0.501961" cx="0" cy="0" rx="1" ry="1" /></g>
<ellipse fill="#e6b2ec" fill-opacity="0.501961" cx="214" cy="76" rx="1" ry="20" />
<rect fill="#e2b7dd" fill-opacity="0.501961" x="140" y="78" width="39" height="5" />
<g transform="translate(248 79) rotate(147) scale(31 2)"><rect fill="#cdb1ea" fill-opacity="0.501961" x="-0.5" y="-0.5" width="1" height="1" /></g>
<g transform="translate(18.088021 7.657101) rotate(108.682375) scale(1.000000 63.536507)"><ellipse fill="#f2f7ff" fill-opacity="0.501961" cx="0" cy="0" rx="1" ry="1" /></g>
<rect fill="#e5f3fa" fill-opacity="0.501961" x="225" y="83" width="17" height="5" />
<polygon fill="#1a0c54" fill-opacity="0.501961" points="115.222981,75.043677,120.694149,68.108779,142.498421,67.350903,106.721336,56.679278" />
<polygon fill="#fff1f2" fill-opacity="0.501961" points="183.616169,89.750006,95.352532,101.230941,169.812030,95.051382,170.937197,93.801832" />
<polygon fill="#002b51" fill-opacity="0.501961" points="13.962607,33.580913,110.380624,54.018537,33.482661,25.165343,16.883923,27.809804" />
<polygon fill="#202648" fill-opacity="0.501961" points="1,60 17,56 -10,54" />
<polygon fill="#66044f" fill-opacity="0.501961" points="222.152621,114.894249,215.711641,104.223148,147.631606,143.468644,194.762942,110.716637" />
<g transform="translate(72 160) rotate(334) scale(52 1)"><rect fill="#ffdbd8" fill-opacity="0.501961" x="-0.5" y="-0.5" width="1" height="1" /></g>
<rect fill="#1a052a" fill-opacity="0.501961" x="194" y="34" width="20" height="12" />
<ellipse fill="#500d60" fill-opacity="0.501961" cx="240" cy="79" rx="44" ry="2" />
<g transform="translate(128.635250 43.757137) rotate(198.960886) scale(25.402091 2.116043)"><ellipse fill="#000000" fill-opacity="0.501961" cx="0" cy="0" rx="1" ry="1" /></g>
<polygon fill="#d1c3df" fill-opacity="0.501961" points="32,67 53,60 54,69" />
<ellipse fill="#f1b1d9" fill-opacity="0.501961" cx="88" cy="72" rx="3" ry="3" />
<g transform="translate(153 62) rotate(39) scale(3 18)"><rect fill="#756bb7" fill-opacity="0.501961" x="-0.5" y="-0.5" width="1" height="1" /></g>
<polygon fill="#3e265a" fill-opacity="0.501961" points="53.648707,92.792500,44.375498,91.019441,54.504178,71.682155,24.176855,69.654254" />
<g transform="translate(149 90) rotate(181) scale(32 1)"><rect fill="#fff5ff" fill-opacity="0.501961" x="-0.5" y="-0.5" width="1" height="1" /></g>
<polygon fill="#110713" fill-opacity="0.501961" points="68.508018,184.319213,28.420859,183.179929,77.052773,160.523100,179.747055,117.827347" />
<g transform="translate(43 109) rotate(352) scale(49 2)"><rect fill="#6b0030" fill-opacity="0.501961" x="-0.5" y="-0.5" width="1" height="1" /></g>
<g transform="translate(137.855200 93.860556) rotate(175.335070) scale(22.732587 1.000000)"><ellipse fill="#d7056e" fill-opacity="0.501961" cx="0" cy="0" rx="1" ry="1" /></g>
<g transform="translate(164 55) rotate(292) scale(1 35)"><rect fill="#b94c7f" fill-opacity="0.501961" x="-0.5" y="-0.5" width="1" height="1" /></g>
<g transform="translate(194 102) rotate(166) scale(41 1)"><rect fill="#5e005a" fill-opacity="0.501961" x="-0.5" y="-0.5" width="1" height="1" /></g>
<polygon fill="#ccc0f0" fill-opacity="0.501961" points="129.135195,69.324032,137.213710,74.666570,141.554098,73.034350,148.780848,69.328758" />
<polygon fill="#000e0d" fill-opacity="0.501961" points="138,-4 19,-15 97,22" />
<ellipse fill="#4a236f" fill-opacity="0.501961" cx="94" cy="89" rx="15" ry="3" />
<g transform="translate(214 70) rotate(104) scale(6 14)"><rect fill="#2d1346" fill-opacity="0.501961" x="-0.5" y="-0.5" width="1" height="1" /></g>
<polygon fill="#ffffff" fill-opacity="0.501961" points="84,82 97,72 94,85" />
<polygon fill="#6e9cc0" fill-opacity="0.501961" points="186.312947,68.697947,171.402841,65.765341,166.323458,62.581178,184.205291,61.836929" />
<polygon fill="#ff59a3" fill-opacity="0.501961" points="73.072254,128.865076,150.709632,109.771651,138.652582,115.231937,99.203760,124.807437" />
<rect fill="#030e1d" fill-opacity="0.501961" x="157" y="44" width="45" height="7" />
<polygon fill="#b473b9" fill-opacity="0.501961" points="227.843290,93.334755,199.798918,65.493558,231.687354,107.179653,221.531700,112.386214" />
<g transform="translate(27 141) rotate(254) scale(1 60)"><rect fill="#e82ba4" fill-opacity="0.501961" x="-0.5" y="-0.5" width="1" height="1" /></g>
<rect fill="#070309" fill-opacity="0.501961" x="3" y="82" width="50" height="6" />
<g transform="translate(68 105) rotate(355) scale(138 1)"><rect fill="#ed2a86" fill-opacity="0.501961" x="-0.5" y="-0.5" width="1" height="1" /></g>
<g transform="translate(98.634923 43.830520) rotate(200.911282) scale(54.188116 3.479665)"><ellipse fill="#000b1a" fill-opacity="0.501961" cx="0" cy="0" rx="1" ry="1" /></g>
<g transform="translate(147 85) rotate(184) scale(13 3)"><rect fill="#140004" fill-opacity="0.501961" x="-0.5" y="-0.5" width="1" height="1" /></g>
<rect fill="#605bc5" fill-opacity="0.501961" x="79" y="77" width="6" height="10" />
<polygon fill="#8b35b6" fill-opacity="0.501961" points="134.037078,73.052405,139.709751,88.230616,133.596248,92.697433,129.916324,72.108275" />
<g transform="translate(165 104) rotate(258) scale(1 18)"><rect fill="#ff92d4" fill-opacity="0.501961" x="-0.5" y="-0.5" width="1" height="1" /></g>
<rect fill="#245a80" fill-opacity="0.501961" x="13" y="52" width="4" height="14" />
<polygon fill="#041335" fill-opacity="0.501961" points="175,57 189,62 196,52" />
<ellipse fill="#fdf7f7" fill-opacity="0.501961" cx="105" cy="98" rx="21" ry="2" />
<g transform="translate(229.316868 28.556449) rotate(290.552119) scale(11.471900 41.124287)"><ellipse fill="#03010b" fill-opacity="0.501961" cx="0" cy="0" rx="1" ry="1" /></g>
<polygon fill="#8e4b94" fill-opacity="0.501961" points="264.083063,73.731969,165.048748,81.784583,169.920309,90.095793,171.775824,81.121630" />
<ellipse fill="#4b4b95" fill-opacity="0.501961" cx="77" cy="69" rx="7" ry="2" />
<polygon fill="#131031" fill-opacity="0.501961" points="97,81 123,89 123,81" />
<rect fill="#11011b" fill-opacity="0.501961" x="230" y="50" width="6" height="23" />
<polygon fill="#380541" fill-opacity="0.501961" points="271.000000,95.573171,216.991742,129.273266,229.741868,121.891418,226.440810,109.643798" />
<rect fill="#0c0000" fill-opacity="0.501961" x="48" y="116" width="23" height="2" />
<polygon fill="#670796" fill-opacity="0.501961" points="223,93 245,94 228,100" />
<polygon fill="#1b1a33" fill-opacity="0.501961" points="55.221241,77.307580,4.529312,73.675296,-16.000000,71.538903,9.903382,67.443077" />
<g transform="translate(197 85) rotate(190) scale(35 1)"><rect fill="#ffe6e8" fill-opacity="0.501961" x="-0.5" y="-0.5" width="1" height="1" /></g>
<g transform="translate(126.692394 103.460788) rotate(83.526435) scale(1.000000 76.452952)"><ellipse fill="#ae2475" fill-opacity="0.501961" cx="0" cy="0" rx="1" ry="1" /></g>
<polygon fill="#365077" fill-opacity="0.501961" points="11.231898,52.877947,50.199336,63.870002,9.822838,32.803610,36.565536,40.126274" />
<polygon fill="#004b7e" fill-opacity="0.501961" points="97.068980,52.857489,16.464481,38.638709,52.755514,54.257062,55.555560,39.546733" />
<polygon fill="#94449b" fill-opacity="0.501961" points="216.036247,118.489131,183.799571,168.713798,186.143459,161.115788,236.075998,85.375510" />
<polygon fill="#bf93cc" fill-opacity="0.501961" points="3,76 -16,66 -8,47" />
<rect fill="#000f0e" fill-opacity="0.501961" x="68" y="73" width="9" height="16" />
<polygon fill="#3b0321" fill-opacity="0.501961" points="69.721267,95.334945,62.374965,94.693621,44.069118,95.902263,34.224776,100.664803" />
<polygon fill="#660037" fill-opacity="0.501961" points="57.391731,111.970486,63.255035,113.659319,42.458656,119.219365,13.327241,118.667241" />
<g transform="translate(0 115) rotate(79) scale(3 50)"><rect fill="#430014" fill-opacity="0.501961" x="-0.5" y="-0.5" width="1" height="1" /></g>
<rect fill="#9a82d5" fill-opacity="0.501961" x="73" y="95" width="25" height="3" />
<rect fill="#e6d2f1" fill-opacity="0.501961" x="194" y="67" width="11" height="3" />
<polygon fill="#5f3a6d" fill-opacity="0.501961" points="24,22 34,27 38,24" />
<path stroke="#bd456c" stroke-opacity="0.501961" fill="none" d="M 27.881593 175.752127 Q 125.559255 138.921692, 176.267617 109.801219" stroke-width="0.500000" />
<polygon fill="#0f060e" fill-opacity="0.501961" points="196.129875,139.094262,178.928004,139.714589,174.005688,165.494113,118.357594,185.000000" />
<polygon fill="#9d0364" fill-opacity="0.501961" points="169.888119,146.511340,168.698820,143.107691,204.406076,109.978016,156.803884,141.172168" />
<g transform="translate(216.332411 66.146424) rotate(185.150926) scale(61.165837 1.317896)"><ellipse fill="#7c58a0" fill-opacity="0.501961" cx="0" cy="0" rx="1" ry="1" /></g>
<g transform="translate(136 91) rotate(261) scale(1 31)"><rect fill="#ff98c1" fill-opacity="0.501961" x="-0.5" y="-0.5" width="1" height="1" /></g>
<g transform="translate(175 87) rotate(260) scale(2 31)"><rect fill="#ca69b0" fill-opacity="0.501961" x="-0.5" y="-0.5" width="1" height="1" /></g>
<rect fill="#155a84" fill-opacity="0.501961" x="55" y="51" width="4" height="14" />
<rect fill="#5d006a" fill-opacity="0.501961" x="83" y="74" width="9" height="3" />
<rect fill="#ffffff" fill-opacity="0.501961" x="117" y="96" width="34" height="2" />
<g transform="translate(27.170925 136.616331) rotate(77.100453) scale(3.328063 32.025250)"><ellipse fill="#490740" fill-opacity="0.501961" cx="0" cy="0" rx="1" ry="1" /></g>
<polygon fill="#dff9fa" fill-opacity="0.501961" points="20,59 18,68 27,66" />
<polygon fill="#140017" fill-opacity="0.501961" points="-2.321892,32.629980,-16.000000,28.063679,-16.000000,45.135345,16.503344,46.657909" />
<rect fill="#07375f" fill-opacity="0.501961" x="154" y="31" width="31" height="4" />
<rect fill="#ffffff" fill-opacity="0.501961" x="174" y="90" width="40" height="3" />
<g transform="translate(119 77) rotate(8) scale(73 1)"><rect fill="#f3a6cf" fill-opacity="0.501961" x="-0.5" y="-0.5" width="1" height="1" /></g>
<rect fill="#b5beff" fill-opacity="0.501961" x="126" y="72" width="8" height="3" />
<polygon fill="#ffffff" fill-opacity="0.501961" points="263,104 253,92 271,92" />
<path stroke="#e02287" stroke-opacity="0.501961" fill="none" d="M 20.984079 172.648444 Q 98.508726 142.617050, 152.271584 121.918551" stroke-width="0.500000" />
<polygon fill="#160c20" fill-opacity="0.501961" points="106.939889,110.646852,90.856011,118.052482,119.674352,113.548463,169.360153,97.604561" />
<path stroke="#f066a7" stroke-opacity="0.501961" fill="none" d="M 201.554455 102.136579 Q 176.393574 107.560242, 144.573613 125.659734" stroke-width="0.500000" />
<g transform="translate(63 24) rotate(201) scale(97 1)"><rect fill="#ffffff" fill-opacity="0.501961" x="-0.5" y="-0.5" width="1" height="1" /></g>
<polygon fill="#000000" fill-opacity="0.501961" points="133,38 149,46 155,30" />
<polygon fill="#3f012e" fill-opacity="0.501961" points="-11.549738,107.044701,33.288744,103.488586,63.161405,99.810228,-16.000000,98.011782" />
<ellipse fill="#00487c" fill-opacity="0.501961" cx="142" cy="76" rx="6" ry="2" />
<g transform="translate(50 60) rotate(59) scale(16 1)"><rect fill="#80fffc" fill-opacity="0.501961" x="-0.5" y="-0.5" width="1" height="1" /></g>
<polygon fill="#c071b8" fill-opacity="0.501961" points="190.474993,95.979085,212.354506,94.944969,202.877405,112.086826,228.499355,95.087296" />
<g transform="translate(145.646597 98.295068) rotate(264.925162) scale(1.000000 52.762543)"><ellipse fill="#ef7eb1" fill-opacity="0.501961" cx="0" cy="0" rx="1" ry="1" /></g>
<rect fill="#eff7ff" fill-opacity="0.501961" x="222" y="67" width="3" height="8" />
<rect fill="#000007" fill-opacity="0.501961" x="255" y="81" width="1" height="13" />
<polygon fill="#0f1428" fill-opacity="0.501961" points="102.365082,66.447711,109.183288,80.053643,93.089250,58.774581,143.167262,66.825458" />
<polygon fill="#09010a" fill-opacity="0.501961" points="16.652330,173.089720,63.696201,154.437941,-16.000000,159.188110,17.715257,185.000000" />
<g transform="translate(138.216836 122.365471) rotate(249.385320) scale(2.383495 42.027619)"><ellipse fill="#0a060b" fill-opacity="0.501961" cx="0" cy="0" rx="1" ry="1" /></g>
<rect fill="#9238b4" fill-opacity="0.501961" x="229" y="76" width="22" height="3" />
<g transform="translate(149 110) rotate(253) scale(1 65)"><rect fill="#ffcddb" fill-opacity="0.501961" x="-0.5" y="-0.5" width="1" height="1" /></g>
<g transform="translate(103 83) rotate(109) scale(5 10)"><rect fill="#49478f" fill-opacity="0.501961" x="-0.5" y="-0.5" width="1" height="1" /></g>
<g transform="translate(24 10) rotate(200) scale(53 2)"><rect fill="#ffffff" fill-opacity="0.501961" x="-0.5" y="-0.5" width="1" height="1" /></g>
<g transform="translate(210 39) rotate(283) scale(9 23)"><rect fill="#190c28" fill-opacity="0.501961" x="-0.5" y="-0.5" width="1" height="1" /></g>
<g transform="translate(254 73) rotate(275) scale(2 50)"><rect fill="#2e0840" fill-opacity="0.501961" x="-0.5" y="-0.5" width="1" height="1" /></g>
<rect fill="#260011" fill-opacity="0.501961" x="105" y="76" width="5" height="6" />
<ellipse fill="#ff96c3" fill-opacity="0.501961" cx="61" cy="93" rx="16" ry="1" />
<g transform="translate(24 93) rotate(170) scale(19 1)"><rect fill="#722577" fill-opacity="0.501961" x="-0.5" y="-0.5" width="1" height="1" /></g>
<polygon fill="#ffffff" fill-opacity="0.501961" points="3,62 -16,56 -11,81" />
<rect fill="#b2def6" fill-opacity="0.501961" x="102" y="75" width="4" height="4" />
<ellipse fill="#b5f1ff" fill-opacity="0.501961" cx="96" cy="70" rx="2" ry="2" />
<g transform="translate(164 67) rotate(-5) scale(24 1)"><rect fill="#11a3c8" fill-opacity="0.501961" x="-0.5" y="-0.5" width="1" height="1" /></g>
<g transform="translate(100 142) rotate(-20) scale(50 1)"><rect fill="#b40766" fill-opacity="0.501961" x="-0.5" y="-0.5" width="1" height="1" /></g>
<rect fill="#d4dbff" fill-opacity="0.501961" x="121" y="68" width="2" height="8" />
<ellipse fill="#b48bc8" fill-opacity="0.501961" cx="213" cy="75" rx="11" ry="2" />
<g transform="translate(212 73) rotate(193) scale(1 21)"><rect fill="#441352" fill-opacity="0.501961" x="-0.5" y="-0.5" width="1" height="1" /></g>
<g transform="translate(225.575729 63.913529) rotate(181.361735) scale(4.260343 1.000000)"><ellipse fill="#f0f1ff" fill-opacity="0.501961" cx="0" cy="0" rx="1" ry="1" /></g>
<g transform="translate(131 76) rotate(280) scale(1 10)"><rect fill="#7700db" fill-opacity="0.501961" x="-0.5" y="-0.5" width="1" height="1" /></g>
<ellipse fill="#d6f8fc" fill-opacity="0.501961" cx="81" cy="72" rx="1" ry="12" />
<g transform="translate(48 90) rotate(257) scale(2 6)"><rect fill="#ac87c0" fill-opacity="0.501961" x="-0.5" y="-0.5" width="1" height="1" /></g>
<polygon fill="#732d7c" fill-opacity="0.501961" points="196.684259,122.375471,224.390438,120.360468,216.767035,101.181958,219.240680,129.128324" />
<ellipse fill="#ccc2f7" fill-opacity="0.501961" cx="117" cy="79" rx="3" ry="3" />
<g transform="translate(142 49) rotate(204) scale(27 4)"><rect fill="#03010b" fill-opacity="0.501961" x="-0.5" y="-0.5" width="1" height="1" /></g>
<polygon fill="#5b105c" fill-opacity="0.501961" points="186,109 213,100 195,113" />
<polygon fill="#9580b8" fill-opacity="0.501961" points="192,68 193,81 175,78" />
<g transform="translate(34 106) rotate(83) scale(1 57)"><rect fill="#ff96b8" fill-opacity="0.501961" x="-0.5" y="-0.5" width="1" height="1" /></g>
<g transform="translate(217 65) rotate(347) scale(4 3)"><rect fill="#e6ceed" fill-opacity="0.501961" x="-0.5" y="-0.5" width="1" height="1" /></g>
<polygon fill="#00050b" fill-opacity="0.501961" points="11.066484,-14.900054,15.392313,1.054811,32.512920,10.022559,149.240178,50.067088" />
<polygon fill="#400b3c" fill-opacity="0.501961" points="217.802892,118.416798,225.818573,107.665185,201.046917,140.894937,192.235489,175.021100" />
<g transform="translate(130 94) rotate(264) scale(1 62)"><rect fill="#bc0871" fill-opacity="0.501961" x="-0.5" y="-0.5" width="1" height="1" /></g>
<path stroke="#f2b2b6" stroke-opacity="0.501961" fill="none" d="M 163.344869 120.198809 Q 122.702187 137.356465, 91.797861 151.377829" stroke-width="0.500000" />
<g transform="translate(92 147) rotate(244) scale(1 14)"><rect fill="#0f0008" fill-opacity="0.501961" x="-0.5" y="-0.5" width="1" height="1" /></g>
<g transform="translate(67 98) rotate(356) scale(27 1)"><rect fill="#914bbd" fill-opacity="0.501961" x="-0.5" y="-0.5" width="1" height="1" /></g>
<ellipse fill="#5c34a8" fill-opacity="0.501961" cx="115" cy="69" rx="5" ry="5" />
<g transform="translate(224.656765 164.537780) rotate(157.606627) scale(39.366154 17.714098)"><ellipse fill="#140812" fill-opacity="0.501961" cx="0" cy="0" rx="1" ry="1" /></g>
<g transform="translate(222.811934 96.270693) rotate(72.664579) scale(1.000000 21.000749)"><ellipse fill="#cb7dd2" fill-opacity="0.501961" cx="0" cy="0" rx="1" ry="1" /></g>
<ellipse fill="#d39ed1" fill-opacity="0.501961" cx="214" cy="76" rx="1" ry="14" />
<rect fill="#ac7cbf" fill-opacity="0.501961" x="145" y="81" width="15" height="3" />
<rect fill="#688ebd" fill-opacity="0.501961" x="25" y="60" width="23" height="6" />
<g transform="translate(79 92) rotate(-21) scale(6 3)"><rect fill="#b8daed" fill-opacity="0.501961" x="-0.5" y="-0.5" width="1" height="1" /></g>
<path stroke="#a7b4d5" stroke-opacity="0.501961" fill="none" d="M 181.830800 67.560667 Q 146.195278 57.296705, 134.501729 49.319531" stroke-width="0.500000" />
<g transform="translate(137 71) rotate(90) scale(2 6)"><rect fill="#ffffff" fill-opacity="0.501961" x="-0.5" y="-0.5" width="1" height="1" /></g>
<polygon fill="#582474" fill-opacity="0.501961" points="199.505887,82.966156,189.079147,67.332260,175.180682,68.797425,206.343429,70.841640" />
<g transform="translate(15 115) rotate(96) scale(1 14)"><rect fill="#f8549d" fill-opacity="0.501961" x="-0.5" y="-0.5" width="1" height="1" /></g>
<g transform="translate(214 116) rotate(69) scale(1 15)"><rect fill="#cf9bda" fill-opacity="0.501961" x="-0.5" y="-0.5" width="1" height="1" /></g>
<g transform="translate(15.285385 110.442082) rotate(175.099704) scale(76.638801 1.000000)"><ellipse fill="#ab0159" fill-opacity="0.501961" cx="0" cy="0" rx="1" ry="1" /></g>
<path stroke="#ba0264" stroke-opacity="0.501961" fill="none" d="M 157.822721 106.262653 Q 126.172007 115.082249, 34.307578 138.300354" stroke-width="0.500000" />
<path stroke="#961067" stroke-opacity="0.501961" fill="none" d="M 99.299168 127.613375 Q 110.630698 123.524079, 176.553121 103.259251" stroke-width="0.500000" />
<polygon fill="#6ba7cf" fill-opacity="0.501961" points="75,57 59,51 60,45" />
<g transform="translate(244 81) rotate(118) scale(5 1)"><rect fill="#e5f6ff" fill-opacity="0.501961" x="-0.5" y="-0.5" width="1" height="1" /></g>
<rect fill="#3f1134" fill-opacity="0.501961" x="152" y="98" width="26" height="3" />
<rect fill="#ffe3ef" fill-opacity="0.501961" x="161" y="80" width="19" height="2" />
<g transform="translate(86 61) rotate(281) scale(12 1)"><rect fill="#001b3c" fill-opacity="0.501961" x="-0.5" y="-0.5" width="1" height="1" /></g>
<rect fill="#000907" fill-opacity="0.501961" x="124" y="67" width="3" height="4" />
<rect fill="#000000" fill-opacity="0.501961" x="0" y="88" width="24" height="6" />
<g transform="translate(33 79) rotate(197) scale(4 5)"><rect fill="#e1a5b7" fill-opacity="0.501961" x="-0.5" y="-0.5" width="1" height="1" /></g>
<g transform="translate(225 108) rotate(252) scale(1 11)"><rect fill="#d4c1f3" fill-opacity="0.501961" x="-0.5" y="-0.5" width="1" height="1" /></g>
<ellipse fill="#e38fb5" fill-opacity="0.501961" cx="41" cy="78" rx="2" ry="2" />
</g>
</svg>