<svg height="680" width="1024" xmlns="http://www.w3.org/2000/svg"><path d="m0 0h1024v680h-1024z" fill="#442a4c"/><g transform="matrix(4 0 0 4 2 2)"><g fill-opacity=".501961"><path d="m-.5-.5h1v1h-1z" fill="#e3a6e9" transform="matrix(-1.64027635 46.97136887 -168.89704977 -5.89801494 144 85)"/><ellipse rx="1" ry="1" transform="matrix(-132.72024788 -1.07729111 .34554585 -42.57060162 173.564564 .016544)"/><ellipse fill="#91fdff" rx="1" ry="1" transform="matrix(-35.82257082 -.7977742 .2911662 -13.07427824 48.102246 60.740908)"/><ellipse fill="#ff71ba" rx="1" ry="1" transform="matrix(108.56645556 -13.92859219 .80515191 6.2757591 57.853624 105.481388)"/><path d="m-16 150 287-42-22 77z" fill="#27000f"/><ellipse fill="#fcaaf7" rx="1" ry="1" transform="matrix(-89.81124347 -2.95513598 .32661072 -9.92621508 242.85635 91.649617)"/><path d="m94 0h77v69h-77z" fill="#000715"/><path d="m3 74h83v17h-83z" fill="#00040f"/><ellipse cx="157" cy="118" fill="#760c4f" rx="74" ry="19"/><ellipse fill="#1a0005" rx="1" ry="1" transform="matrix(47.14107494 -9.67263624 6.33314296 30.86554268 9.850901 141.901423)"/><ellipse fill="#fff" rx="1" ry="1" transform="matrix(.63325786 -1.70696273 136.60416856 50.67812096 30.429921 12.476995)"/><path d="m148 56-161-57 22 58z" fill="#00254c"/><path d="m212.006957 59.357786 19.500596-20.004493-28.144153 8.544319 11.522822 10.505675z" fill="#fde8ff"/><ellipse rx="1" ry="1" transform="matrix(-12.86695524 26.15578812 -132.41261538 -65.13843851 254.453333 32.985725)"/><path d="m97 83h53v8h-53z" fill="#000010"/><path d="m68.543489 54.812583-15.660482 15.930355 2.067547 13.457919 30.042385-25.127425z" fill="#fffdff"/><path d="m-.5-.5h1v1h-1z" fill="#fff9ff" transform="matrix(-.78146226 -1.84100971 82.84543681 -35.16580156 84 155)"/><path d="m-16 163.973192 114.411313-20.420847 89.274961-40.47748-59.019633 14.599073z"/><path d="m154 40h38v33h-38z" fill="#005a7c"/><ellipse fill="#f5cde4" rx="1" ry="1" transform="matrix(2.91784479 -8.29254684 27.01363345 9.50511238 178.957882 87.09052)"/><path d="m-.5-.5h1v1h-1z" fill="#ff7de5" transform="matrix(-.51763809 -1.93185165 163.24146464 -43.74041862 118 118)"/><path d="m-.5-.5h1v1h-1z" fill="#8a349f" transform="matrix(-63.18879809 93.6812457 -8.29037573 -5.59192903 201 135)"/><path d="m96 52-106 18 47-30z" fill="#4096bf"/><path d="m-.5-.5h1v1h-1z" fill="#e5f6ff" transform="matrix(-.52349245 14.99086241 -14.99086241 -.52349245 87 78)"/><ellipse fill="#000005" rx="1" ry="1" transform="matrix(30.58330182 -28.20670494 17.83810324 19.34107853 232.725035 159.424147)"/><path d="m-.5-.5h1v1h-1z" fill="#03000c" transform="matrix(106.997363 -20.7981805 .95404498 4.90813592 123 108)"/><path d="m-.5-.5h1v1h-1z" fill="#fff" transform="matrix(.10452846 -.9945219 116.35906176 12.2298302 8 66)"/><path d="m67 92h81v11h-81z" fill="#ffa2cc"/><path d="m4-3 267 2-150 43z"/><ellipse fill="#e6238d" rx="1" ry="1" transform="matrix(139.47066402 -34.94712847 .44150273 1.76199538 32.972711 140.298577)"/><path d="m226 35-16 18 19-8z" fill="#d5c9ff"/><path d="m145.11558 145.868631-8.523209 18.427334 23.025387-9.686977 51.734225-49.750504z" fill="#a00066"/><path d="m197.55715 129.01703 73.44285-41.475759-29.402297-24.741087.965268 24.807149z" fill="#7b33a6"/><ellipse fill="#f92b8b" rx="1" ry="1" transform="matrix(-59.53506569 6.99057943 -.29960328 -2.55156258 66.47019 110.154619)"/><path d="m113.821502 170.732376 22.491567-37.231507-37.284657 15.725075-62.255025 29.444323z" fill="#0c0008"/><ellipse fill="#ee91b7" rx="1" ry="1" transform="matrix(.47405832 1.04396879 -211.67885951 96.12176634 140.77075 129.473209)"/><path d="m79.457906 43.16521 33.100906 47.919621-5.372235-39.642037-21.828915-15.229572z" fill="#0a1349"/><path d="m135 90h62v7h-62z" fill="#ffd4e3"/><ellipse rx="1" ry="1" transform="matrix(-39.54532004 -8.15980673 1.72769132 -8.37300546 11.249884 19.274573)"/><ellipse cx="37" cy="94" fill="#ff006e" rx="27" ry="2"/><path d="m12 66 34 34-62 5z" fill="#0c0001"/><path d="m232.855699 61.215348-3.026824 13.493062-6.44549 2.529005-1.929968-21.492672z" fill="#af9cde"/><path d="m-.5-.5h1v1h-1z" fill="#ff7bc9" transform="matrix(-61.76407128 5.40365605 -.26146723 -2.98858409 22 106)"/><path d="m112.545569 93.220491 39.980964-1.444915 12.011837 2.077523-59.786748 2.436307z" fill="#c4066d"/><path d="m-.5-.5h1v1h-1z" transform="matrix(-6.50778629 -14.61672732 95.00872759 -42.30061088 29 159)"/><path d="m9 60h18v8h-18z" fill="#e2ffff"/><path d="m111.600453 91.794255-54.19851-2.468063 10.145052-17.995817 21.102379 17.004718z" fill="#000432"/><path d="m-.5-.5h1v1h-1z" fill="#fff" transform="matrix(-73.24752451 -29.59392088 .74921319 -1.85436771 29 11)"/><path d="m223.312591 90.565971-1.42047-27.789411-39.614888 16.042922 52.508471 9.018893z" fill="#63317b"/><path d="m-.5-.5h1v1h-1z" fill="#ffdeff" transform="matrix(-.12186934 .99254615 -66.50059216 -8.16524601 128 78)"/><path d="m158.823131 106.217269-107.040964 21.14004-65.558942 24.548209 103.162093-26.918676z" fill="#a40585"/><ellipse cx="36" cy="46" fill="#005778" rx="17" ry="15"/><path d="m156 30h47v21h-47z" fill="#001a32"/><path d="m73 117h-78l-11 26z"/><path d="m142.153685 127.173271 80.680455-35.447381-154.171326 62.218422 22.720327-8.021007z" fill="#e52c8e"/><ellipse fill="#0d0111" rx="1" ry="1" transform="matrix(-52.62223737 28.15444191 -1.84404167 -3.44661772 146.835738 135.167727)"/><ellipse fill="#fffffa" rx="1" ry="1" transform="matrix(-.0934929 -1.16360106 83.84001882 -6.73636922 116.065401 98.096103)"/><path d="m231 0h25v66h-25z" fill="#000009"/><path d="m199.381427 67.205113-48.889408 29.648946 48.71119-26.921234-121.796701-51.554508z" fill="#9e4d80"/><path d="m127 67h53v11h-53z" fill="#6192d6"/><path d="m142 55-65-25 30 44z" fill="#0f042e"/><path d="m225.299252 85.038015 30.223986-9.961938-11.69628 8.243612-6.844942 6.572167z" fill="#c6c7f9"/><path d="m-.5-.5h1v1h-1z" fill="#3179ad" transform="matrix(-8.6067428 -2.63134534 8.18640773 -26.77653317 90 64)"/><path d="m-.5-.5h1v1h-1z" fill="#300047" transform="matrix(-16.60361076 14.43329864 -5.90453126 -6.79238622 253 86)"/><path d="m-.5-.5h1v1h-1z" fill="#ff25a1" transform="matrix(140.95389312 -51.3030215 .34202014 .93969262 28 169)"/><ellipse fill="#e9f3ff" rx="1" ry="1" transform="matrix(-142.59647223 -51.34616857 .33878628 -.94086336 19.773342 9.041272)"/><path d="m28.655062 69.658989 4.540883 19.032189 17.010958-17.296234-5.491559-1.912296z" fill="#66295e"/><path d="m249.034952 59.49737-30.937036 23.094707 28.917542-1.647938-33.318712-41.475581z" fill="#2f0853"/><path d="m64 55 22 7-30 14z" fill="#fffaff"/><path d="m54.565495 46.085162 12.94852.863521 101.006466 20.752837-8.671909 4.452093z" fill="#472388"/><path d="m163 90h54v4h-54z" fill="#fff"/><path d="m21 93h47v2h-47z" fill="#ff269e"/><ellipse fill="#fff" rx="1" ry="1" transform="matrix(.89971678 -2.54972725 5.65831549 1.99663764 214.391706 50.178246)"/><path d="m22.207741 14.299983 92.472639 29.15022-25.363788 2.663989-47.214977-17.461269z" fill="#012"/><path d="m179.134585 163.489669 19.841986-41.900673-73.779897 63.411004h50.120181z" fill="#19031a"/><path d="m86.429585 84.663684 2.77419 3.453449 11.550054-10.472005-11.53899.395618z" fill="#fff"/><path d="m-.5-.5h1v1h-1z" fill="#ffd3ea" transform="matrix(-.32556815 -.94551858 53.89455881 -18.5573848 160 107)"/><path d="m46 95h32v5h-32z" fill="#510e6c"/><path d="m0 47h3v24h-3z" fill="#d5aade"/><path d="m24 107h31v4h-31z" fill="#93002d"/><path d="m-.5-.5h1v1h-1z" fill="#a10d47" transform="matrix(.43837115 -.89879405 95.27216891 46.46734156 101 26)"/><path d="m85.991541 111.689191 13.137527-11.102457-46.234369 3.980873 6.660391 10.084535z" fill="#e93a96"/><ellipse fill="#000008" rx="1" ry="1" transform="matrix(42.15720863 13.47741455 -1.72227097 5.38724518 32.021305 4.154561)"/><ellipse cx="173" cy="66" fill="#2094ab" rx="10" ry="6"/><path d="m153.787336 85.750363-47.575356-5.499145-9.34169 8.470071 54.116026 1.433769z" fill="#370947"/><path d="m53.399747 46.666353-55.379306-10.147654 67.834169-1.156684 22.126469 26.27803z" fill="#0a4687"/><path d="m-.5-.5h1v1h-1z" fill="#6b0056" transform="matrix(29.92692151 2.09269421 -.06975647 .99756405 107 95)"/><path d="m238 96-14 14-50-16z" fill="#ad46af"/><path d="m-.5-.5h1v1h-1z" fill="#050310" transform="matrix(65.98010939 -16.4506889 5.3222817 21.34650598 21 155)"/><path d="m44.234344 53.160988.040249 4.576115 9.111276 11.591992 17.151601-22.110831z" fill="#59bbcb"/><path d="m128 18 140-32 2 60z" fill="#000006"/><path d="m55 72h7v11h-7z" fill="#e2e1ff"/><path d="m61.10227 133.898969-27.931959 32.395369 58.681015-24.689245 70.382697-28.033805z" fill="#0c010c"/><path d="m222 39h8v6h-8z" fill="#f8fcff"/><path d="m83.283435 115.41493 30.235798.547068-121.394186 29.09641 66.556773-23.010064z" fill="#3e0b70"/><path d="m10 56-2-5 2-4z" fill="#c7afdc"/><path d="m87 62h7v8h-7z" fill="#6dfff5"/><path d="m-.5-.5h1v1h-1z" fill="#0086b7" transform="matrix(-.20926942 -2.99269215 25.93666531 -1.81366832 178 42)"/><path d="m4 41h4v47h-4z" fill="#0b0004"/><path d="m111 68h37v4h-37z" fill="#a29ad8"/><path d="m172.654362 157.049106 65.739384-58.680996-47.927299 62.158761 21.064467-7.11815z" fill="#622566"/><path d="m-.5-.5h1v1h-1z" fill="#ffc6e1" transform="matrix(-182.30362975 -15.94950092 .08715574 -.9961947 15 67)"/><path d="m68 92h24v4h-24z" fill="#f6c8e8"/><path d="m-.5-.5h1v1h-1z" fill="#ffeaff" transform="matrix(.32556815 -.94551858 17.96485294 6.18579493 192 67)"/><ellipse fill="#f1a4f9" rx="1" ry="1" transform="matrix(-.43465202 -4.8130749 .99594714 -.08994052 7.27272 33.202449)"/><path d="m19.463013 92.600811 16.29735-22.357717-27.456631.569741-14.587964 23.383367z" fill="#00050d"/><ellipse fill="#dbc3ee" rx="1" ry="1" transform="matrix(-.21357849 -.97692591 6.71689315 -1.46846748 208.993857 117.731851)"/><path d="m229.288212 60.935645-8.278261-.26075 10.93631 18.140729-10.925234-5.44374z" fill="#d4c5f5"/><ellipse cx="124" cy="73" fill="#220830" rx="2" ry="18"/><path d="m259.445551 101.496598-80.697129 37.714149 32.844637-7.406538 12.41922 27.853964z" fill="#270b2c"/><path d="m125 78h6v4h-6z" fill="#fff"/><ellipse cx="168" cy="74" fill="#a5dadf" rx="23" ry="2"/><path d="m179.247009 55.287836 54.086174 4.099493 15.296578-26.045828-44.119633 33.474051z" fill="#17092f"/><path d="m172 51h17v3h-17z" fill="#00bbde"/><path d="m224.595411 79.174172 46.404589-17.511387-52.727592 26.970564 29.481227 25.38518z" fill="#691b80"/><path d="m194.037405 94.508369-91.244013 11.444609-16.500841 12.628827 28.711495-4.397925z" fill="#390830"/><path d="m62.900296 72.99303-4.93325 19.651379 23.587451-4.86755-9.222772-15.829677z" fill="#0e1232"/><ellipse cx="176" cy="70" fill="#212c65" rx="26" ry="2"/><path d="m205 45h9v7h-9z" fill="#efe5ff"/><path d="m-.5-.5h1v1h-1z" fill="#d893de" transform="matrix(-.87674229 -1.79758809 12.58311665 -6.13719606 196 143)"/><path d="m85.210082 58.703423-29.477774-1.378534 34.244464-12.542656-4.832323 32.859864z" fill="#164683"/><ellipse cx="33" cy="80" fill="#ee96b1" rx="3" ry="3"/><ellipse cx="5" cy="107" fill="#ff3792" rx="28" ry="3"/><path d="m-.5-.5h1v1h-1z" fill="#310028" transform="matrix(-16.68930938 6.74291868 -1.49842637 -3.70873542 178 106)"/><path d="m202 80-15 19 29-5z" fill="#ffcbe2"/><path d="m14 12-23 48-7-66z" fill="#06000d"/><path d="m-.5-.5h1v1h-1z" fill="#e5a0b7" transform="matrix(-78.84877747 36.76778877 -.42261826 -.90630779 170 117)"/><path d="m-.5-.5h1v1h-1z" fill="#dc34a3" transform="matrix(25.85756928 2.71774004 -.20905693 1.98904379 195 88)"/><path d="m167 118-60 28 43 3z" fill="#23061d"/><path d="m80 58-16 5 21 3z" fill="#fff"/><path d="m-.5-.5h1v1h-1z" fill="#aa58d7" transform="matrix(.62573786 -3.95075336 15.80301345 2.50295144 213 54)"/><path d="m147 78-9-5 9-1z" fill="#1a1272"/><path d="m-.5-.5h1v1h-1z" fill="#100" transform="matrix(-1.17219339 -2.76151456 58.91231062 -25.00679222 52 164)"/><ellipse fill="#ffa0c5" rx="1" ry="1" transform="matrix(.24877897 1.91662966 -35.35225081 4.58873023 66.562795 101.802323)"/><path d="m-.5-.5h1v1h-1z" fill="#e01570" transform="matrix(-.05233596 -.99862953 57.92051302 -3.03548546 36 95)"/><path d="m242.519736 102.19556-10.782311-5.249426 39.262575 1.012604-1.315567-1.384583z" fill="#af84e8"/><path d="m255 68h-36l47-14z" fill="#461065"/><path d="m-.5-.5h1v1h-1z" fill="#872086" transform="matrix(-.20791169 .9781476 -108.57438368 -23.07819768 99 55)"/><path d="m-.5-.5h1v1h-1z" fill="#5b0040" transform="matrix(9.99234929 13.7532889 -28.3155948 20.57248383 145 155)"/></g><path d="m194.786449 103.554247q-9.27258 2.392054-30.362711 11.925233" fill="none" stroke="#ff8cbf" stroke-opacity=".501961" stroke-width=".5"/><path d="m-.5-.5h1v1h-1z" fill="#1e1739" fill-opacity=".501961" transform="matrix(-41.96588192 33.98330112 -.62932039 -.77714596 86 76)"/><ellipse fill="#fb76aa" fill-opacity=".501961" rx="1" ry="1" transform="matrix(.14497223 .98943572 -84.66340086 12.40489057 88.419535 105.531011)"/><ellipse fill="#7d0e61" fill-opacity=".501961" rx="1" ry="1" transform="matrix(-.33259585 -1.00962078 24.48620911 -8.06640631 154.780989 110.984206)"/><ellipse cx="214" cy="76" fill="#e6b2ec" fill-opacity=".501961" rx="1" ry="20"/><path d="m140 78h39v5h-39z" fill="#e2b7dd" fill-opacity=".501961"/><path d="m-.5-.5h1v1h-1z" fill="#cdb1ea" fill-opacity=".501961" transform="matrix(-25.99878761 16.88381009 -1.08927807 -1.67734114 248 79)"/><ellipse fill="#f2f7ff" fill-opacity=".501961" rx="1" ry="1" transform="matrix(-.3203216 .94730886 -60.18869589 -20.35211558 18.088021 7.657101)"/><path d="m225 83h17v5h-17z" fill="#e5f3fa" fill-opacity=".501961"/><path d="m115.222981 75.043677 5.471168-6.934898 21.804272-.757876-35.777085-10.671625z" fill="#1a0c54" fill-opacity=".501961"/><path d="m183.616169 89.750006-88.263637 11.480935 74.459498-6.179559 1.125167-1.24955z" fill="#fff1f2" fill-opacity=".501961"/><path d="m13.962607 33.580913 96.418017 20.437624-76.897963-28.853194-16.598738 2.644461z" fill="#002b51" fill-opacity=".501961"/><path d="m1 60 16-4-27-2z" fill="#202648" fill-opacity=".501961"/><path d="m222.152621 114.894249-6.44098-10.671101-68.080035 39.245496 47.131336-32.752007z" fill="#66044f" fill-opacity=".501961"/><path d="m-.5-.5h1v1h-1z" fill="#ffdbd8" fill-opacity=".501961" transform="matrix(46.73729041 -22.79529963 .43837115 .89879405 72 160)"/><path d="m194 34h20v12h-20z" fill="#1a052a" fill-opacity=".501961"/><ellipse cx="240" cy="79" fill="#500d60" fill-opacity=".501961" rx="44" ry="2"/><ellipse fill-opacity=".501961" rx="1" ry="1" transform="matrix(-24.02378904 -8.25371354 .6875502 -2.0012278 128.63525 43.757137)"/><path d="m32 67 21-7 1 9z" fill="#d1c3df" fill-opacity=".501961"/><ellipse cx="88" cy="72" fill="#f1b1d9" fill-opacity=".501961" rx="3" ry="3"/><path d="m-.5-.5h1v1h-1z" fill="#756bb7" fill-opacity=".501961" transform="matrix(2.33143788 1.88796117 -11.32776704 13.98862731 153 62)"/><path d="m53.648707 92.7925-9.273209-1.773059 10.12868-19.337286-30.327323-2.027901z" fill="#3e265a" fill-opacity=".501961"/><path d="m-.5-.5h1v1h-1z" fill="#fff5ff" fill-opacity=".501961" transform="matrix(-31.99512625 -.55847701 .01745241 -.9998477 149 90)"/><path d="m68.508018 184.319213-40.087159-1.139284 48.631914-22.656829 102.694282-42.695753z" fill="#110713" fill-opacity=".501961"/><path d="m-.5-.5h1v1h-1z" fill="#6b0030" fill-opacity=".501961" transform="matrix(48.52313537 -6.81948195 .2783462 1.98053614 43 109)"/><ellipse fill="#d7056e" fill-opacity=".501961" rx="1" ry="1" transform="matrix(-22.65728198 1.8488064 -.08132846 -.99668735 137.8552 93.860556)"/><path d="m-.5-.5h1v1h-1z" fill="#b94c7f" fill-opacity=".501961" transform="matrix(.37460659 -.92718385 32.45143491 13.11123077 164 55)"/><path d="m-.5-.5h1v1h-1z" fill="#5e005a" fill-opacity=".501961" transform="matrix(-39.78212478 9.91879772 -.2419219 -.97029573 194 102)"/><path d="m129.135195 69.324032 8.078515 5.342538 4.340388-1.63222 7.22675-3.705592z" fill="#ccc0f0" fill-opacity=".501961"/><path d="m138-4-119-11 78 37z" fill="#000e0d" fill-opacity=".501961"/><ellipse cx="94" cy="89" fill="#4a236f" fill-opacity=".501961" rx="15" ry="3"/><path d="m-.5-.5h1v1h-1z" fill="#2d1346" fill-opacity=".501961" transform="matrix(-1.45153137 5.82177436 -13.58414017 -3.38690654 214 70)"/><path d="m84 82 13-10-3 13z" fill="#fff" fill-opacity=".501961"/><path d="m186.312947 68.697947-14.910106-2.932606-5.079383-3.184163 17.881833-.744249z" fill="#6e9cc0" fill-opacity=".501961"/><path d="m73.072254 128.865076 77.637378-19.093425-12.05705 5.460286-39.448822 9.5755z" fill="#ff59a3" fill-opacity=".501961"/><path d="m157 44h45v7h-45z" fill="#030e1d" fill-opacity=".501961"/><path d="m227.84329 93.334755-28.044372-27.841197 31.888436 41.686095-10.155654 5.206561z" fill="#b473b9" fill-opacity=".501961"/><path d="m-.5-.5h1v1h-1z" fill="#e82ba4" fill-opacity=".501961" transform="matrix(-.27563736 -.9612617 57.67570176 -16.53824135 27 141)"/><path d="m3 82h50v6h-50z" fill="#070309" fill-opacity=".501961"/><path d="m-.5-.5h1v1h-1z" fill="#ed2a86" fill-opacity=".501961" transform="matrix(137.47486834 -12.0274925 .08715574 .9961947 68 105)"/><ellipse fill="#000b1a" fill-opacity=".501961" rx="1" ry="1" transform="matrix(-50.61897302 -19.34092775 1.2419688 -3.25047412 98.634923 43.83052)"/><path d="m-.5-.5h1v1h-1z" fill="#140004" fill-opacity=".501961" transform="matrix(-12.96833265 -.90683416 .20926942 -2.99269215 147 85)"/><path d="m79 77h6v10h-6z" fill="#605bc5" fill-opacity=".501961"/><path d="m134.037078 73.052405 5.672673 15.178211-6.113503 4.466817-3.679924-20.589158z" fill="#8b35b6" fill-opacity=".501961"/><path d="m-.5-.5h1v1h-1z" fill="#ff92d4" fill-opacity=".501961" transform="matrix(-.20791169 -.9781476 17.60665681 -3.74241043 165 104)"/><path d="m13 52h4v14h-4z" fill="#245a80" fill-opacity=".501961"/><path d="m175 57 14 5 7-10z" fill="#041335" fill-opacity=".501961"/><ellipse cx="105" cy="98" fill="#fdf7f7" fill-opacity=".501961" rx="21" ry="2"/><ellipse fill="#03010b" fill-opacity=".501961" rx="1" ry="1" transform="matrix(4.02731694 -10.74175069 38.50685922 14.43706252 229.316868 28.556449)"/><path d="m264.083063 73.731969-99.034315 8.052614 4.871561 8.31121 1.855515-8.974163z" fill="#8e4b94" fill-opacity=".501961"/><ellipse cx="77" cy="69" fill="#4b4b95" fill-opacity=".501961" rx="7" ry="2"/><path d="m97 81 26 8v-8z" fill="#131031" fill-opacity=".501961"/><path d="m230 50h6v23h-6z" fill="#11011b" fill-opacity=".501961"/><path d="m271 95.573171-54.008258 33.700095 12.750126-7.381848-3.301058-12.24762z" fill="#380541" fill-opacity=".501961"/><path d="m48 116h23v2h-23z" fill="#0c0000" fill-opacity=".501961"/><path d="m223 93 22 1-17 6z" fill="#670796" fill-opacity=".501961"/><path d="m55.221241 77.30758-50.691929-3.632284-20.529312-2.136393 25.903382-4.095826z" fill="#1b1a33" fill-opacity=".501961"/><path d="m-.5-.5h1v1h-1z" fill="#ffe6e8" fill-opacity=".501961" transform="matrix(-34.46827136 -6.07768622 .17364818 -.98480775 197 85)"/><ellipse fill="#ae2475" fill-opacity=".501961" rx="1" ry="1" transform="matrix(.11274479 .99362398 -75.9654864 8.619672 126.692394 103.460788)"/><path d="m11.231898 52.877947 38.967438 10.992055-40.376498-31.066392 26.742698 7.322664z" fill="#365077" fill-opacity=".501961"/><path d="m97.06898 52.857489-80.604499-14.21878 36.291033 15.618353 2.800046-14.710329z" fill="#004b7e" fill-opacity=".501961"/><path d="m216.036247 118.489131-32.236676 50.224667 2.343888-7.59801 49.932539-75.740278z" fill="#94449b" fill-opacity=".501961"/><path d="m3 76-19-10 8-19z" fill="#bf93cc" fill-opacity=".501961"/><path d="m68 73h9v16h-9z" fill="#000f0e" fill-opacity=".501961"/><path d="m69.721267 95.334945-7.346302-.641324-18.305847 1.208642-9.844342 4.76254z" fill="#3b0321" fill-opacity=".501961"/><path d="m57.391731 111.970486 5.863304 1.688833-20.796379 5.560046-29.131415-.552124z" fill="#660037" fill-opacity=".501961"/><path d="m-.5-.5h1v1h-1z" fill="#430014" fill-opacity=".501961" transform="matrix(.57242699 2.94488155 -49.08135917 9.54044977 0 115)"/><path d="m73 95h25v3h-25z" fill="#9a82d5" fill-opacity=".501961"/><path d="m194 67h11v3h-11z" fill="#e6d2f1" fill-opacity=".501961"/><path d="m24 22 10 5 4-3z" fill="#5f3a6d" fill-opacity=".501961"/><path d="m27.881593 175.752127q97.677662-36.830435 148.386024-65.950908" fill="none" stroke="#bd456c" stroke-opacity=".501961" stroke-width=".5"/><path d="m196.129875 139.094262-17.201871.620327-4.922316 25.779524-55.648094 19.505887z" fill="#0f060e" fill-opacity=".501961"/><path d="m169.888119 146.51134-1.189299-3.403649 35.707256-33.129675-47.602192 31.194152z" fill="#9d0364" fill-opacity=".501961"/><ellipse fill="#7c58a0" fill-opacity=".501961" rx="1" ry="1" transform="matrix(-60.91882858 -5.4914425 .11832014 -1.31257389 216.332411 66.146424)"/><path d="m-.5-.5h1v1h-1z" fill="#ff98c1" fill-opacity=".501961" transform="matrix(-.15643447 -.98768834 30.61833856 -4.84946842 136 91)"/><path d="m-.5-.5h1v1h-1z" fill="#ca69b0" fill-opacity=".501961" transform="matrix(-.34729636 -1.96961551 30.52904034 -5.38309351 175 87)"/><path d="m55 51h4v14h-4z" fill="#155a84" fill-opacity=".501961"/><path d="m83 74h9v3h-9z" fill="#5d006a" fill-opacity=".501961"/><path d="m117 96h34v2h-34z" fill="#fff" fill-opacity=".501961"/><ellipse fill="#490740" fill-opacity=".501961" rx="1" ry="1" transform="matrix(.7429648 3.24407254 -31.21702746 7.14939397 27.170925 136.616331)"/><path d="m20 59-2 9 9-2z" fill="#dff9fa" fill-opacity=".501961"/><path d="m-2.321892 32.62998-13.678108-4.566301v17.071666l32.503344 1.522564z" fill="#140017" fill-opacity=".501961"/><path d="m154 31h31v4h-31z" fill="#07375f" fill-opacity=".501961"/><path d="m174 90h40v3h-40z" fill="#fff" fill-opacity=".501961"/><path d="m-.5-.5h1v1h-1z" fill="#f3a6cf" fill-opacity=".501961" transform="matrix(72.28956902 10.15963637 -.1391731 .99026807 119 77)"/><path d="m126 72h8v3h-8z" fill="#b5beff" fill-opacity=".501961"/><path d="m263 104-10-12h18z" fill="#fff" fill-opacity=".501961"/><path d="m20.984079 172.648444q77.524647-30.031394 131.287505-50.729893" fill="none" stroke="#e02287" stroke-opacity=".501961" stroke-width=".5"/><path d="m106.939889 110.646852-16.083878 7.40563 28.818341-4.504019 49.685801-15.943902z" fill="#160c20" fill-opacity=".501961"/><path d="m201.554455 102.136579q-25.160881 5.423663-56.980842 23.523155" fill="none" stroke="#f066a7" stroke-opacity=".501961" stroke-width=".5"/><path d="m-.5-.5h1v1h-1z" fill="#fff" fill-opacity=".501961" transform="matrix(-90.55730137 -34.76169111 .35836795 -.93358043 63 24)"/><path d="m133 38 16 8 6-16z" fill-opacity=".501961"/><path d="m-11.549738 107.044701 44.838482-3.556115 29.872661-3.678358-79.161405-1.798446z" fill="#3f012e" fill-opacity=".501961"/><ellipse cx="142" cy="76" fill="#00487c" fill-opacity=".501961" rx="6" ry="2"/><path d="m-.5-.5h1v1h-1z" fill="#80fffc" fill-opacity=".501961" transform="matrix(8.2406092 13.71467681 -.8571673 .51503807 50 60)"/><path d="m190.474993 95.979085 21.879513-1.034116-9.477101 17.141857 25.62195-16.99953z" fill="#c071b8" fill-opacity=".501961"/><ellipse fill="#ef7eb1" fill-opacity=".501961" rx="1" ry="1" transform="matrix(-.08845687 -.99608001 52.55571426 -4.66720926 145.646597 98.295068)"/><path d="m222 67h3v8h-3z" fill="#eff7ff" fill-opacity=".501961"/><path d="m255 81h1v13h-1z" fill="#000007" fill-opacity=".501961"/><path d="m102.365082 66.447711 6.818206 13.605932-16.094038-21.279062 50.078012 8.050877z" fill="#0f1428" fill-opacity=".501961"/><path d="m16.65233 173.08972 47.043871-18.651779-79.696201 4.750169 33.715257 25.81189z" fill="#09010a" fill-opacity=".501961"/><ellipse fill="#0a060b" fill-opacity=".501961" rx="1" ry="1" transform="matrix(-.83918442 -2.23087829 39.33656358 -14.79714582 138.216836 122.365471)"/><path d="m229 76h22v3h-22z" fill="#9238b4" fill-opacity=".501961"/><path d="m-.5-.5h1v1h-1z" fill="#ffcddb" fill-opacity=".501961" transform="matrix(-.2923717 -.95630476 62.15980914 -19.00416081 149 110)"/><path d="m-.5-.5h1v1h-1z" fill="#49478f" fill-opacity=".501961" transform="matrix(-1.62784077 4.72759288 -9.45518576 -3.25568154 103 83)"/><path d="m-.5-.5h1v1h-1z" fill="#fff" fill-opacity=".501961" transform="matrix(-49.8037089 -18.1270676 .68404029 -1.87938524 24 10)"/><path d="m-.5-.5h1v1h-1z" fill="#190c28" fill-opacity=".501961" transform="matrix(2.02455949 -8.76933058 22.41051149 5.17387425 210 39)"/><path d="m-.5-.5h1v1h-1z" fill="#2e0840" fill-opacity=".501961" transform="matrix(.17431149 -1.9923894 49.8097349 4.35778714 254 73)"/><path d="m105 76h5v6h-5z" fill="#260011" fill-opacity=".501961"/><ellipse cx="61" cy="93" fill="#ff96c3" fill-opacity=".501961" rx="16" ry="1"/><path d="m-.5-.5h1v1h-1z" fill="#722577" fill-opacity=".501961" transform="matrix(-18.71134731 3.29931538 -.17364818 -.98480775 24 93)"/><path d="m3 62-19-6 5 25z" fill="#fff" fill-opacity=".501961"/><path d="m102 75h4v4h-4z" fill="#b2def6" fill-opacity=".501961"/><ellipse cx="96" cy="70" fill="#b5f1ff" fill-opacity=".501961" rx="2" ry="2"/><path d="m-.5-.5h1v1h-1z" fill="#11a3c8" fill-opacity=".501961" transform="matrix(23.90867275 -2.09173783 .08715574 .9961947 164 67)"/><path d="m-.5-.5h1v1h-1z" fill="#b40766" fill-opacity=".501961" transform="matrix(46.98463104 -17.10100717 .34202014 .93969262 100 142)"/><path d="m121 68h2v8h-2z" fill="#d4dbff" fill-opacity=".501961"/><ellipse cx="213" cy="75" fill="#b48bc8" fill-opacity=".501961" rx="11" ry="2"/><path d="m-.5-.5h1v1h-1z" fill="#441352" fill-opacity=".501961" transform="matrix(-.97437006 -.22495105 4.72397214 -20.46177136 212 73)"/><ellipse fill="#f0f1ff" fill-opacity=".501961" rx="1" ry="1" transform="matrix(-4.25913981 -.10124501 .02376452 -.99971758 225.575729 63.913529)"/><path d="m-.5-.5h1v1h-1z" fill="#7700db" fill-opacity=".501961" transform="matrix(.17364818 -.98480775 9.84807753 1.73648178 131 76)"/><ellipse cx="81" cy="72" fill="#d6f8fc" fill-opacity=".501961" rx="1" ry="12"/><path d="m-.5-.5h1v1h-1z" fill="#ac87c0" fill-opacity=".501961" transform="matrix(-.44990211 -1.94874013 5.84622039 -1.34970633 48 90)"/><path d="m196.684259 122.375471 27.706179-2.015003-7.623403-19.17851 2.473645 27.946366z" fill="#732d7c" fill-opacity=".501961"/><ellipse cx="117" cy="79" fill="#ccc2f7" fill-opacity=".501961" rx="3" ry="3"/><path d="m-.5-.5h1v1h-1z" fill="#03010b" fill-opacity=".501961" transform="matrix(-24.66572736 -10.98188936 1.62694657 -3.65418183 142 49)"/><path d="m186 109 27-9-18 13z" fill="#5b105c" fill-opacity=".501961"/><path d="m192 68 1 13-18-3z" fill="#9580b8" fill-opacity=".501961"/><path d="m-.5-.5h1v1h-1z" fill="#ff96b8" fill-opacity=".501961" transform="matrix(.12186934 .99254615 -56.57513064 6.94655257 34 106)"/><path d="m-.5-.5h1v1h-1z" fill="#e6ceed" fill-opacity=".501961" transform="matrix(3.89748026 -.89980422 .67485316 2.92311019 217 65)"/><path d="m11.066484-14.900054 4.325829 15.954865 17.120607 8.967748 116.727258 40.044529z" fill="#00050b" fill-opacity=".501961"/><path d="m217.802892 118.416798 8.015681-10.751613-24.771656 33.229752-8.811428 34.126163z" fill="#400b3c" fill-opacity=".501961"/><path d="m-.5-.5h1v1h-1z" fill="#bc0871" fill-opacity=".501961" transform="matrix(-.10452846 -.9945219 61.66035751 -6.48076472 130 94)"/><path d="m163.344869 120.198809q-40.642682 17.157656-71.547008 31.17902" fill="none" stroke="#f2b2b6" stroke-opacity=".501961" stroke-width=".5"/><path d="m-.5-.5h1v1h-1z" fill="#0f0008" fill-opacity=".501961" transform="matrix(-.43837115 -.89879405 12.58311665 -6.13719606 92 147)"/><path d="m-.5-.5h1v1h-1z" fill="#914bbd" fill-opacity=".501961" transform="matrix(26.93422936 -1.88342479 .06975647 .99756405 67 98)"/><ellipse cx="115" cy="69" fill="#5c34a8" fill-opacity=".501961" rx="5" ry="5"/><ellipse fill="#140812" fill-opacity=".501961" rx="1" ry="1" transform="matrix(-36.39755639 14.99706537 -6.74842368 -16.3782797 224.656765 164.53778)"/><ellipse fill="#cb7dd2" fill-opacity=".501961" rx="1" ry="1" transform="matrix(.29796506 .95457678 -20.04682727 6.2574895 222.811934 96.270693)"/><ellipse cx="214" cy="76" fill="#d39ed1" fill-opacity=".501961" rx="1" ry="14"/><path d="m145 81h15v3h-15z" fill="#ac7cbf" fill-opacity=".501961"/><path d="m25 60h23v6h-23z" fill="#688ebd" fill-opacity=".501961"/><path d="m-.5-.5h1v1h-1z" fill="#b8daed" fill-opacity=".501961" transform="matrix(5.60148256 -2.1502077 1.07510385 2.80074128 79 92)"/><path d="m181.8308 67.560667q-35.635522-10.263962-47.329071-18.241136" fill="none" stroke="#a7b4d5" stroke-opacity=".501961" stroke-width=".5"/><path d="m-.5-.5h1v1h-1z" fill="#fff" fill-opacity=".501961" transform="matrix(0 2 -6 0 137 71)"/><path d="m199.505887 82.966156-10.42674-15.633896-13.898465 1.465165 31.162747 2.044215z" fill="#582474" fill-opacity=".501961"/><path d="m-.5-.5h1v1h-1z" fill="#f8549d" fill-opacity=".501961" transform="matrix(-.10452846 .9945219 -13.92330654 -1.46339849 15 115)"/><path d="m-.5-.5h1v1h-1z" fill="#cf9bda" fill-opacity=".501961" transform="matrix(.35836795 .93358043 -14.0037064 5.37551924 214 116)"/><ellipse fill="#ab0159" fill-opacity=".501961" rx="1" ry="1" transform="matrix(-76.35867506 6.54664506 -.08542207 -.99634485 15.285385 110.442082)"/><path d="m157.822721 106.262653q-31.650714 8.819596-123.515143 32.037701" fill="none" stroke="#ba0264" stroke-opacity=".501961" stroke-width=".5"/><path d="m99.299168 127.613375q11.33153-4.089296 77.253953-24.354124" fill="none" stroke="#961067" stroke-opacity=".501961" stroke-width=".5"/><path d="m75 57-16-6 1-6z" fill="#6ba7cf" fill-opacity=".501961"/><path d="m-.5-.5h1v1h-1z" fill="#e5f6ff" fill-opacity=".501961" transform="matrix(-2.34735781 4.41473796 -.88294759 -.46947156 244 81)"/><path d="m152 98h26v3h-26z" fill="#3f1134" fill-opacity=".501961"/><path d="m161 80h19v2h-19z" fill="#ffe3ef" fill-opacity=".501961"/><path d="m-.5-.5h1v1h-1z" fill="#001b3c" fill-opacity=".501961" transform="matrix(2.28970794 -11.7795262 .98162718 .190809 86 61)"/><path d="m124 67h3v4h-3z" fill="#000907" fill-opacity=".501961"/><path d="m0 88h24v6h-24z" fill-opacity=".501961"/><path d="m-.5-.5h1v1h-1z" fill="#e1a5b7" fill-opacity=".501961" transform="matrix(-3.82521902 -1.16948682 1.46185852 -4.78152378 33 79)"/><path d="m-.5-.5h1v1h-1z" fill="#d4c1f3" fill-opacity=".501961" transform="matrix(-.30901699 -.95105652 10.46162168 -3.39918694 225 108)"/><ellipse cx="41" cy="78" fill="#e38fb5" fill-opacity=".501961" rx="2" ry="2"/></g></svg>