<svg height="680" width="1024" xmlns="http://www.w3.org/2000/svg"><path d="m0 0h1024v680h-1024z" fill="#949593"/><g fill-opacity=".501961"><path d="m-.5-.5h1v1h-1z" fill="#3a0000" transform="matrix(263.63819716 -13.81669244 12.35128568 235.6765702 642 382)"/><path d="m-.5-.5h1v1h-1z" fill="#ecffff" transform="matrix(29.26796972 278.46613072 -473.3924222 49.75554852 322 286)"/><path d="m-.5-.5h1v1h-1z" fill="#232103" transform="matrix(179.7731508 230.09914004 -321.50838748 251.18988192 930 678)"/><path d="m-.5-.5h1v1h-1z" fill="#fcf3da" transform="matrix(-30.52231128 290.40039344 -234.70716732 -24.66871732 906 310)"/><path d="m-.5-.5h1v1h-1z" fill="#3a3312" transform="matrix(205.61887764 -212.92458092 296.36799772 286.19924864 70 654)"/><path d="m-.5-.5h1v1h-1z" fill="#70a7d2" transform="matrix(-835.4907314 29.17597924 -10.609447 -303.8148114 470 62)"/><path d="m-.5-.5h1v1h-1z" fill="#170000" transform="matrix(227.44460344 -15.904476 8.09175096 115.71742984 658 434)"/><path d="m-.5-.5h1v1h-1z" fill="#205e71" transform="matrix(52.09090472 151.28297208 -627.8243342 216.17725456 186 2)"/><path d="m-.5-.5h1v1h-1z" fill="#fff6e9" transform="matrix(19.65135108 -186.97011632 258.5756928 27.17740044 358 370)"/><path d="m-.5-.5h1v1h-1z" fill="#7e0000" transform="matrix(-18.8151234 -179.01394116 139.23306536 -14.63398484 702 342)"/><path d="m-.5-.5h1v1h-1z" fill="#bac2ce" transform="matrix(-204.599508 219.40611048 -125.79283668 -117.30371792 654 170)"/><path d="m-.5-.5h1v1h-1z" fill="#ceb49f" transform="matrix(0 -100 444 0 486 546)"/><path d="m-.5-.5h1v1h-1z" fill="#610000" transform="matrix(190.450407 -73.10706172 14.334718 37.34321704 518 466)"/><path d="m-.5-.5h1v1h-1z" fill="#918068" transform="matrix(-94.56129044 73.87937704 -246.26459012 -315.20430144 202 570)"/><path d="m-.5-.5h1v1h-1z" fill="#83745b" transform="matrix(290.61327932 -280.64198168 77.80173748 80.56605764 802 598)"/><path d="m-.5-.5h1v1h-1z" fill="#9d572f" transform="matrix(27.65809172 62.12109112 -116.93381856 52.06229032 610 282)"/><path d="m-.5-.5h1v1h-1z" fill="#ffde9c" transform="matrix(-254.3183762 54.0570396 -18.2962288 -86.07698888 910 398)"/><path d="m-.5-.5h1v1h-1z" fill="#172517" transform="matrix(81.8398032 -87.7624442 178.4503032 166.40759984 2 642)"/><path d="m-.5-.5h1v1h-1z" fill="#a7b4bb" transform="matrix(96.36084132 -137.61754344 334.21403408 234.01918604 942 202)"/><path d="m-.5-.5h1v1h-1z" fill="#580d00" transform="matrix(-111.40467804 78.00639536 -11.47152872 -16.38304088 746 242)"/><path d="m-.5-.5h1v1h-1z" fill="#353d2e" transform="matrix(143.91227908 -5.02552752 10.749045 307.81237472 990 614)"/><path d="m-.5-.5h1v1h-1z" fill="#b8c1ae" transform="matrix(4.04895828 231.96466528 -111.98294184 1.95466952 78 318)"/><path d="m-.5-.5h1v1h-1z" fill="#690000" transform="matrix(-245.95121468 142 -32 -55.42562584 634 402)"/><path d="m-.5-.5h1v1h-1z" fill="#001b21" transform="matrix(-163.60050424 11.44006168 -3.90636252 -55.8635868 694 466)"/><path d="m-.5-.5h1v1h-1z" fill="#d5dfe4" transform="matrix(-147.79717116 7.74572152 -8.58309684 -163.77524368 846 314)"/><path d="m-.5-.5h1v1h-1z" fill="#c2d5e6" transform="matrix(420.63561368 -205.15769668 59.61847596 122.23599028 446 246)"/><path d="m-.5-.5h1v1h-1z" fill="#a9614b" transform="matrix(-37.61825616 -51.77708764 155.33126292 -112.85476844 562 382)"/><path d="m-.5-.5h1v1h-1z" fill="#436665" transform="matrix(-104.79193844 26.12756472 -26.12756472 -104.79193844 1022 42)"/><path d="m-.5-.5h1v1h-1z" fill="#2c4435" transform="matrix(255.84405172 8.93427116 -.69798992 19.98781656 110 470)"/><path d="m-.5-.5h1v1h-1z" fill="#271600" transform="matrix(163.975022 -2.86219464 .13961924 7.99878156 350 494)"/><path d="m-.5-.5h1v1h-1z" fill="#e5cdb1" transform="matrix(-278.78212008 -54.18975468 10.68530376 -54.97112228 334 438)"/><path d="m-.5-.5h1v1h-1z" fill="#db9d62" transform="matrix(-1.116954 63.99025248 -175.97319436 -3.07162352 1006 430)"/><path d="m-.5-.5h1v1h-1z" fill="#6490a8" transform="matrix(-645.23845196 172.89112212 -20.7055236 -77.27406612 318 54)"/><path d="m-.5-.5h1v1h-1z" fill="#88abc9" transform="matrix(9.7614432 111.5738062 -418.4017732 36.60541196 506 118)"/><path d="m-.5-.5h1v1h-1z" fill="#2c5962" transform="matrix(-526.159835 121.47356936 -12.59725904 -54.56472364 2 30)"/><path d="m-.5-.5h1v1h-1z" fill="#758891" transform="matrix(314.12069872 -61.05887852 14.50148364 74.60366596 802 10)"/><path d="m-.5-.5h1v1h-1z" fill="#6c6857" transform="matrix(139.65896704 9.76590632 -9.76590632 139.65896704 906 534)"/><path d="m-.5-.5h1v1h-1z" fill="#857b67" transform="matrix(-672.29680128 70.66124116 -5.43548008 -51.71513856 550 662)"/><path d="m-.5-.5h1v1h-1z" fill="#f2f3e8" transform="matrix(-37.0827414 61.71604564 -164.57612172 -98.8873104 394 378)"/><path d="m-.5-.5h1v1h-1z" fill="#570000" transform="matrix(41.89687808 -146.1117778 26.91532748 7.71784596 730 310)"/><path d="m-.5-.5h1v1h-1z" fill="#6e0f0e" transform="matrix(30.56496832 31.6509512 -152.50003768 147.26757452 566 414)"/><path d="m-.5-.5h1v1h-1z" fill="#dbc6aa" transform="matrix(39.902562 -2.79025896 2.23220716 31.9220496 606 334)"/><path d="m-.5-.5h1v1h-1z" fill="#d5c0a2" transform="matrix(194.24847044 103.2837438 -24.41252128 45.91327484 154 406)"/><path d="m-.5-.5h1v1h-1z" fill="#bdaea4" transform="matrix(-223.6930158 -11.7232542 5.86162708 -111.84650788 454 562)"/><path d="m-.5-.5h1v1h-1z" fill="#899ea0" transform="matrix(82.90375724 -55.91929036 194.5991304 288.50507524 1022 214)"/><path d="m-.5-.5h1v1h-1z" fill="#8f664e" transform="matrix(-18.7938524 -6.84040288 35.57009492 -97.72803256 526 362)"/><path d="m-.5-.5h1v1h-1z" fill="#1d281e" transform="matrix(-275.6818098 306.17566808 -65.39674464 -58.88349336 1022 654)"/><path d="m-.5-.5h1v1h-1z" transform="matrix(-7.19035236 3.50696916 -22.79529964 -46.7372904 574 330)"/><path d="m-.5-.5h1v1h-1z" fill="#aeb9c3" transform="matrix(120.82159224 193.35496592 -115.33454108 72.06901992 858 170)"/><path d="m-.5-.5h1v1h-1z" fill="#8cacb8" transform="matrix(-66.91306064 -74.31448256 216.99828904 -195.38613704 114 194)"/><path d="m-.5-.5h1v1h-1z" fill="#5c0000" transform="matrix(-134.20803412 71.35967756 -33.80195252 -63.57222668 674 402)"/><path d="m-.5-.5h1v1h-1z" fill="#ad9b8c" transform="matrix(-149.69077844 -26.394523 15.97563236 -90.60231328 250 534)"/><path d="m-.5-.5h1v1h-1z" fill="#c5b6a7" transform="matrix(31.4908334 -36.22605984 108.67817956 94.47250016 506 334)"/><path d="m-.5-.5h1v1h-1z" fill="#ff7536" transform="matrix(-3.96107228 .5566924 -18.37084932 -130.71538508 770 322)"/><path d="m-.5-.5h1v1h-1z" fill="#a7c8e1" transform="matrix(-25.43612468 40.7063086 -84.8048096 -52.99192644 678 218)"/><path d="m-.5-.5h1v1h-1z" fill="#a7988a" transform="matrix(-411.74902072 -14.37859264 2.65236176 -75.95370284 490 618)"/><path d="m-.5-.5h1v1h-1z" fill="#978873" transform="matrix(81.8398032 -87.7624442 76.06078496 70.92782944 810 530)"/><path d="m-.5-.5h1v1h-1z" fill="#e9e4d2" transform="matrix(7.52604936 71.60557648 -155.14541568 16.30644028 234 370)"/><path d="m-.5-.5h1v1h-1z" fill="#022" transform="matrix(108 0 0 28 586 482)"/><path d="m-.5-.5h1v1h-1z" fill="#f9e5c0" transform="matrix(186.97011632 -19.65135108 7.52604936 71.60557648 870 382)"/><path d="m-.5-.5h1v1h-1z" fill="#c7b790" transform="matrix(-274.7142872 238.80548656 -2.62423612 -3.01883832 630 322)"/><path d="m-.5-.5h1v1h-1z" fill="#6a4c1b" transform="matrix(51.35979372 -8.1345922 5.00590288 31.60602688 774 222)"/><path d="m-.5-.5h1v1h-1z" fill="#efbe92" transform="matrix(-183.55178524 12.83519116 -3.34831072 -47.8830744 866 434)"/><path d="m-.5-.5h1v1h-1z" fill="#002224" transform="matrix(2.51212588 47.93421768 -147.79717116 7.74572152 698 470)"/><path d="m-.5-.5h1v1h-1z" fill="#ac926e" transform="matrix(180.61940176 35.10885516 -9.15883176 47.1181048 38 414)"/><path d="m-.5-.5h1v1h-1z" fill="#820007" transform="matrix(-1.62694656 -3.65418184 65.77527296 -29.28503832 598 254)"/><path d="m-.5-.5h1v1h-1z" fill="#becfdd" transform="matrix(126.79120948 -110.21791688 68.230139 78.48979636 514 242)"/><path d="m-.5-.5h1v1h-1z" fill="#875a3b" transform="matrix(-23.25736976 -63.8990982 3.75877048 -1.36808056 522 298)"/><path d="m-.5-.5h1v1h-1z" fill="#520000" transform="matrix(11.1246118 34.2380346 -235.86201604 76.6362146 642 438)"/><path d="m-.5-.5h1v1h-1z" fill="#120000" transform="matrix(.69459272 3.939231 -63.0276962 11.11348336 206 594)"/><path d="m-.5-.5h1v1h-1z" fill="#d2a37c" transform="matrix(6.25169804 14.72807764 -103.0965436 43.7618864 622 266)"/><path d="m-.5-.5h1v1h-1z" fill="#b8cfe0" transform="matrix(-219.88448908 42.74121496 -20.60737152 -106.0157358 270 246)"/><path d="m-.5-.5h1v1h-1z" fill="#e4ecf0" transform="matrix(-51.57650896 -121.50664064 77.32240768 -32.8214148 402 306)"/><path d="m-.5-.5h1v1h-1z" fill="#555a4a" transform="matrix(-683.06260176 -35.79779408 .20934384 -3.99451812 326 486)"/><path d="m-.5-.5h1v1h-1z" fill="#89493d" transform="matrix(3.19454204 2.40726008 -149.25012576 198.06160648 614 350)"/><path d="m-.5-.5h1v1h-1z" fill="#535442" transform="matrix(-372.33688656 -385.566133 34.5283104 -33.3436018 66 610)"/><path d="m-.5-.5h1v1h-1z" fill="#600000" transform="matrix(-8.64980276 123.69794224 -63.8440992 -4.46441432 730 346)"/><path d="m-.5-.5h1v1h-1z" fill="#4d291e" transform="matrix(8.18640772 -26.77653316 26.77653316 8.18640772 622 294)"/><path d="m-.5-.5h1v1h-1z" fill="#98afc6" transform="matrix(134.57663744 -38.5892298 45.20452636 157.64691812 642 118)"/><path d="m-.5-.5h1v1h-1z" fill="#372c20" transform="matrix(-27.72750592 3.89684684 -1.6700772 -11.88321684 738 190)"/><path d="m-.5-.5h1v1h-1z" fill="#897f6b" transform="matrix(-123.32071504 12.96152944 -11.70718788 -111.38645228 130 538)"/><path d="m-.5-.5h1v1h-1z" fill="#a99a89" transform="matrix(127.2988026 13.37964328 -10.87096016 103.43027712 710 550)"/><path d="m-.5-.5h1v1h-1z" fill="#a77267" transform="matrix(2.51728156 3.10858384 -220.70945304 178.72699104 582 406)"/><path d="m-.5-.5h1v1h-1z" fill="#8d6e5d" transform="matrix(18.12615576 8.45236524 -60.85702968 130.50832132 526 362)"/><path d="m-.5-.5h1v1h-1z" fill="#000b00" transform="matrix(32 0 0 12 450 498)"/><path d="m-.5-.5h1v1h-1z" fill="#b9aea6" transform="matrix(16.37281548 53.55306632 -130.0574468 39.76255184 842 70)"/><path d="m-.5-.5h1v1h-1z" fill="#250000" transform="matrix(48.21356044 -19.47954284 1.49842636 3.7087354 502 474)"/><path d="m-.5-.5h1v1h-1z" fill="#b8c7d3" transform="matrix(15.28103964 86.66308228 -118.17693036 20.83778132 838 270)"/><path d="m-.5-.5h1v1h-1z" fill="#003b58" transform="matrix(86.98770896 -29.9522702 2.60454524 7.5641486 722 442)"/><path d="m-.5-.5h1v1h-1z" fill="#620000" transform="matrix(19.09595408 20.47790364 -43.88122208 40.9199016 670 310)"/><path d="m-.5-.5h1v1h-1z" fill="#796c5b" transform="matrix(7.48482088 -35.21331364 160.41620652 34.09751728 862 498)"/><path d="m-.5-.5h1v1h-1z" fill="#6b0000" transform="matrix(139.7112272 -125.796554 2.67652244 2.97257932 578 378)"/><path d="m-.5-.5h1v1h-1z" fill="#507172" transform="matrix(82.90375724 55.91929036 -69.33992004 102.800659 2 78)"/><path d="m-.5-.5h1v1h-1z" fill="#46190d" transform="matrix(-8.65247584 -26.62958244 7.60845212 -2.47213596 590 306)"/><path d="m-.5-.5h1v1h-1z" fill="#001115" transform="matrix(-.41811384 3.9780876 -139.23306536 -14.63398484 550 490)"/><path d="m-.5-.5h1v1h-1z" fill="#7094a1" transform="matrix(227.40112384 -126.05050128 23.27086176 41.98174596 86 130)"/><path d="m-.5-.5h1v1h-1z" fill="#60849f" transform="matrix(-17.59969508 -65.6829562 166.13924212 -44.51687576 610 2)"/><path d="m-.5-.5h1v1h-1z" fill="#6f613f" transform="matrix(3.31615028 -2.2367716 33.5515742 49.74225436 482 430)"/><path d="m-.5-.5h1v1h-1z" fill="#aba3a2" transform="matrix(-337.46569156 -41.43557676 1.94990948 -15.88073844 294 458)"/><path d="m-.5-.5h1v1h-1z" fill="#beb59f" transform="matrix(-3.9701846 -.48747736 17.06170808 -138.95646124 478 422)"/><path d="m-.5-.5h1v1h-1z" fill="#878071" transform="matrix(-13.68080572 37.58770484 -225.526229 -82.0848344 322 658)"/><path d="m-.5-.5h1v1h-1z" fill="#c1c7d1" transform="matrix(19.79898988 19.79898988 -98.99494936 98.99494936 734 146)"/><path d="m-.5-.5h1v1h-1z" fill="#a16b6a" transform="matrix(56.47900672 -50.85392608 8.02956728 8.91773792 618 354)"/><path d="m-.5-.5h1v1h-1z" fill="#edcfb1" transform="matrix(31.9454204 -24.07260092 7.22178028 9.58362612 614 322)"/><path d="m-.5-.5h1v1h-1z" fill="#1a2316" transform="matrix(-22.66167528 37.71536124 -96.00273768 -57.6842644 2 658)"/><path d="m-.5-.5h1v1h-1z" fill="#b3c1c5" transform="matrix(-76.90093568 -22.05098848 35.28158156 -123.04149708 106 286)"/><path d="m-.5-.5h1v1h-1z" fill="#5f391a" transform="matrix(-3.65418184 1.62694656 -9.76167944 -21.925091 398 178)"/><path d="m-.5-.5h1v1h-1z" fill="#97795d" transform="matrix(-36.4776532 -24.60448776 22.36771612 -33.16150292 758 214)"/><path d="m-.5-.5h1v1h-1z" fill="#232719" transform="matrix(-107.40836468 -11.28907404 .83622772 -7.95617516 990 546)"/><path d="m-.5-.5h1v1h-1z" fill="#757c76" transform="matrix(-296.30650216 -46.93033952 1.8772136 -11.85226008 150 458)"/><path d="m-.5-.5h1v1h-1z" fill="#719ab8" transform="matrix(11.69745484 50.66724336 -327.38834176 75.58355424 378 74)"/><path d="m-.5-.5h1v1h-1z" fill="#640000" transform="matrix(-7.05342304 -9.70820392 64.72135956 -47.0228202 554 410)"/><path d="m-.5-.5h1v1h-1z" fill="#bcafa6" transform="matrix(-9.74954748 79.40369212 -174.68812268 -21.44900444 482 550)"/><path d="m-.5-.5h1v1h-1z" fill="#566167" transform="matrix(-71.28052192 36.31923996 -1.815962 -3.56402608 710 202)"/><path d="m-.5-.5h1v1h-1z" fill="#a0b9d0" transform="matrix(15.30087608 4.67794728 -26.89819684 87.98003756 770 166)"/><path d="m-.5-.5h1v1h-1z" fill="#f8e2c7" transform="matrix(-147.63947944 -10.32395812 1.95318128 -27.9317934 390 434)"/><path d="m-.5-.5h1v1h-1z" fill="#500" transform="matrix(-7.05342304 -9.70820392 158.56733088 -115.20590944 614 398)"/><path d="m-.5-.5h1v1h-1z" fill="#e0b19f" transform="matrix(0 -8 108 0 882 458)"/><path d="m-.5-.5h1v1h-1z" fill="#680000" transform="matrix(-2.62423612 -3.01883832 93.58398796 -81.3513196 646 346)"/><path d="m-.5-.5h1v1h-1z" fill="#b80000" transform="matrix(3.96107228 -.5566924 16.70077212 118.83216824 762 290)"/><path d="m-.5-.5h1v1h-1z" fill="#d0a98a" transform="matrix(98.04743672 210.2634066 -3.62523116 1.69047304 446 282)"/><path d="m-.5-.5h1v1h-1z" fill="#505344" transform="matrix(9.74954748 -79.40369212 154.83719964 19.01161756 862 678)"/><path d="m-.5-.5h1v1h-1z" fill="#5b5d4f" transform="matrix(-4.38016504 27.65527352 -193.58691476 -30.66115516 238 678)"/><path d="m-.5-.5h1v1h-1z" fill="#86adcb" transform="matrix(349.37624536 -42.89800888 5.36225112 43.67203068 314 134)"/><path d="m-.5-.5h1v1h-1z" fill="#8fa2b4" transform="matrix(-1.0471444 -59.99086172 203.9689298 -3.56029092 702 58)"/><path d="m-.5-.5h1v1h-1z" fill="#210403" transform="matrix(4.49902108 19.48740128 -3.89748024 .8998042 522 402)"/><path d="m-.5-.5h1v1h-1z" fill="#b8b18d" transform="matrix(-21.16026908 29.1246118 -116.4984472 -84.64107632 54 382)"/><path d="m-.5-.5h1v1h-1z" fill="#801812" transform="matrix(-.69459272 3.939231 -23.63538608 -4.16755628 534 358)"/><path d="m-.5-.5h1v1h-1z" fill="#767565" transform="matrix(8.28711536 67.49313832 -214.38996876 26.32377816 802 626)"/><path d="m-.5-.5h1v1h-1z" fill="#a49789" transform="matrix(5.44293944 -103.8574716 91.8739172 4.81490796 230 530)"/><path d="m-.5-.5h1v1h-1z" fill="#a79280" transform="matrix(10.06912624 12.4343354 -65.28026076 52.86291284 562 298)"/><path d="m-.5-.5h1v1h-1z" fill="#e7d7c5" transform="matrix(82.9658206 -13.14049508 .62573788 3.95075336 522 350)"/><path d="m-.5-.5h1v1h-1z" fill="#88816f" transform="matrix(-.27902588 -3.9902562 267.34716548 -18.69473496 702 498)"/><path d="m-.5-.5h1v1h-1z" fill="#d9dfdf" transform="matrix(10.14283828 21.75138688 -61.62892952 28.7380418 486 318)"/><path d="m-.5-.5h1v1h-1z" fill="#dd6c39" transform="matrix(-17.98111648 -44.504825 3.7087354 -1.49842636 766 262)"/><path d="m-.5-.5h1v1h-1z" fill="#b5c9db" transform="matrix(-64.27876096 76.60444432 -116.43875536 -97.70371668 518 206)"/><path d="m-.5-.5h1v1h-1z" fill="#424434" transform="matrix(-14.44356056 -19.16725224 31.9454204 -24.07260092 890 554)"/><path d="m-.5-.5h1v1h-1z" fill="#5c8ba9" transform="matrix(185.45775864 -49.69325664 7.24693328 27.04592312 298 54)"/><path d="m-.5-.5h1v1h-1z" fill="#9babb5" transform="matrix(-101.57485348 -71.12347812 41.2975034 -58.9789472 898 146)"/><path d="m-.5-.5h1v1h-1z" fill="#eceae0" transform="matrix(-11.26731752 -21.19074224 3.53179036 -1.87788624 514 410)"/><path d="m-.5-.5h1v1h-1z" fill="#002d34" transform="matrix(-123.23261628 47.30456932 -7.167359 -18.67160852 714 454)"/><path d="m-.5-.5h1v1h-1z" fill="#160c03" transform="matrix(15.99756312 -.27923852 .27923852 15.99756312 794 222)"/><path d="m-.5-.5h1v1h-1z" fill="#647d7f" transform="matrix(-.139598 -3.99756332 179.89034888 -6.2819094 558 498)"/><path d="m-.5-.5h1v1h-1z" fill="#bac5cb" transform="matrix(-11.13384808 79.22144548 -158.442891 -22.26769616 878 250)"/><path d="m-.5-.5h1v1h-1z" fill="#302b20" transform="matrix(-.06980964 -3.9993908 191.97075748 -3.35086204 422 490)"/><path d="m-.5-.5h1v1h-1z" fill="#cfd6d8" transform="matrix(-6.69662148 -95.76614884 143.64922324 -10.0449322 266 298)"/><path d="m-.5-.5h1v1h-1z" fill="#5a0000" transform="matrix(15.43569192 53.83065496 -42.29551464 12.12804364 734 282)"/><path d="m-.5-.5h1v1h-1z" fill="#423e2c" transform="matrix(-31.4908334 36.22605984 -3.01883832 -2.62423612 498 422)"/><path d="m-.5-.5h1v1h-1z" fill="#44615f" transform="matrix(-37.82074304 -13.02272616 24.74317972 -71.85941176 1022 10)"/><path d="m-.5-.5h1v1h-1z" fill="#d7c79c" transform="matrix(-12.24723288 -87.14359004 118.83216824 -16.70077212 1014 362)"/><path d="m-.5-.5h1v1h-1z" fill="#758487" transform="matrix(-81.41261724 50.87224936 -36.03450996 -57.66727052 878 2)"/><path d="m-.5-.5h1v1h-1z" fill="#141404" transform="matrix(-7.60845212 2.47213596 -13.59674776 -41.84648672 578 346)"/><path d="m-.5-.5h1v1h-1z" fill="#857e6e" transform="matrix(112 0 0 84 650 678)"/><path d="m-.5-.5h1v1h-1z" fill="#d3d4cd" transform="matrix(-9.76590632 -139.65896704 3.9902562 -.27902588 778 346)"/><path d="m-.5-.5h1v1h-1z" fill="#7b8b8b" transform="matrix(151.65738584 201.25614852 -38.33450448 28.88712112 1010 118)"/><path d="m-.5-.5h1v1h-1z" fill="#cbcfc6" transform="matrix(-25.43612468 40.7063086 -118.72673348 -74.188697 926 314)"/><path d="m-.5-.5h1v1h-1z" fill="#3e7694" transform="matrix(-157.64691812 45.20452636 -20.94843904 -73.05588888 238 2)"/><path d="m-.5-.5h1v1h-1z" fill="#413c26" transform="matrix(-307.57789672 16.11947452 -.20934384 -3.99451812 46 478)"/><path d="m-.5-.5h1v1h-1z" fill="#a48070" transform="matrix(-99.75640504 -6.97564736 1.11610356 -15.9610248 994 454)"/><path d="m-.5-.5h1v1h-1z" fill="#1c0e00" transform="matrix(7.24693328 27.04592312 -11.59110992 3.10582856 794 214)"/><path d="m-.5-.5h1v1h-1z" fill="#7f8f8e" transform="matrix(-.139598 -3.99756332 135.91715248 -4.74633156 406 474)"/><path d="m-.5-.5h1v1h-1z" fill="#f3b584" transform="matrix(.06980964 3.9993908 -79.9878156 1.39619252 630 270)"/><path d="m-.5-.5h1v1h-1z" fill="#b5b9ab" transform="matrix(-46.88181424 -136.15467488 68.07733744 -23.44090712 998 278)"/><path d="m-.5-.5h1v1h-1z" fill="#002625" transform="matrix(55.96588632 1.9543718 -.97718592 27.98294316 614 482)"/><path d="m-.5-.5h1v1h-1z" fill="#a19382" transform="matrix(-13.42062968 19.89690176 -29.8453526 -20.13094452 734 634)"/><path d="m-.5-.5h1v1h-1z" fill="#e1e0d0" transform="matrix(2.97257932 -2.67652244 26.76522424 29.725793 474 406)"/><path d="m-.5-.5h1v1h-1z" fill="#3e4c3a" transform="matrix(-.139598 -3.99756332 235.85623516 -8.23628124 1022 466)"/><path d="m-.5-.5h1v1h-1z" fill="#991b1c" transform="matrix(-1.52647196 -7.85301748 31.41206988 -6.10588784 650 242)"/><path d="m-.5-.5h1v1h-1z" fill="#640400" transform="matrix(-15.58738732 -110.91002368 3.96107228 -.5566924 750 258)"/><path d="m-.5-.5h1v1h-1z" fill="#9a9082" transform="matrix(85.88939924 32.96985136 -7.167359 18.67160852 170 542)"/><path d="m-.5-.5h1v1h-1z" fill="#383a29" transform="matrix(119.54336376 10.45868912 -1.04586892 11.95433636 898 674)"/><path d="m-.5-.5h1v1h-1z" fill="#85a2ac" transform="matrix(-5.56692404 -39.61072276 130.71538508 -18.37084932 90 174)"/><path d="m-.5-.5h1v1h-1z" fill="#dad0ba" transform="matrix(142.95702228 38.30521868 -13.45859036 50.22814296 194 394)"/><path d="m-.5-.5h1v1h-1z" fill="#663e33" transform="matrix(-3.47296356 -19.69615508 39.39231012 -6.94592712 642 290)"/><path d="m-.5-.5h1v1h-1z" fill="#d1b7a3" transform="matrix(206.56645372 47.68962352 -5.39882532 23.38488156 206 434)"/><path d="m-.5-.5h1v1h-1z" fill="#d6c9b4" transform="matrix(11.04605824 -4.68877356 15.62924512 36.82019412 558 354)"/><path d="m-.5-.5h1v1h-1z" fill="#d5ccb4" transform="matrix(-20 0 0 -20 534 386)"/><path d="m-.5-.5h1v1h-1z" fill="#8aa599" transform="matrix(-70.9061582 12.5026688 -24.31074488 -137.87308544 2 262)"/><path d="m-.5-.5h1v1h-1z" fill="#cfd3d9" transform="matrix(112.74910988 -76.05023488 17.89417292 26.52920232 430 222)"/><path d="m-.5-.5h1v1h-1z" fill="#b7a99e" transform="matrix(-155.78620744 -8.16440916 5.44293944 -103.8574716 554 554)"/><path d="m-.5-.5h1v1h-1z" fill="#957762" transform="matrix(43.7589634 4.5992524 -.41811384 3.9780876 502 334)"/><path d="m-.5-.5h1v1h-1z" fill="#414337" transform="matrix(-.763236 3.92650872 -62.82413976 -12.21177572 798 606)"/><path d="m-.5-.5h1v1h-1z" fill="#4b4b3c" transform="matrix(199.2389396 17.43114856 -.34862296 3.9847788 886 642)"/><path d="m-.5-.5h1v1h-1z" fill="#a3bbcc" transform="matrix(10.68530376 54.97112228 -121.72177076 23.66031544 198 214)"/><path d="m-.5-.5h1v1h-1z" fill="#8facc5" transform="matrix(191.53229764 -13.39324296 4.7434402 67.8343554 562 106)"/><path d="m-.5-.5h1v1h-1z" fill="#dab8a7" transform="matrix(3.65418184 -1.62694656 26.03114516 58.46690928 602 306)"/><path d="m-.5-.5h1v1h-1z" fill="#000e01" transform="matrix(-6.10588784 -31.41206988 3.92650872 -.763236 486 470)"/><path d="m-.5-.5h1v1h-1z" fill="#a6736e" transform="matrix(16.67180088 -17.2641552 2.8773592 2.77863348 586 378)"/><path d="m-.5-.5h1v1h-1z" fill="#33313d" transform="matrix(-27.2799344 29.25414808 -5.8508296 -5.45598688 706 286)"/><path d="m-.5-.5h1v1h-1z" fill="#b59976" transform="matrix(-60.69629876 45.73794176 -2.40726008 -3.19454204 662 294)"/><path d="m-.5-.5h1v1h-1z" fill="#81171e" transform="matrix(-30.85380528 36.77013328 -3.06417776 -2.57115044 562 278)"/><path d="m-.5-.5h1v1h-1z" fill="#a0988c" transform="matrix(-153.80187136 44.10197692 -11.02549424 -38.45046784 742 566)"/><path d="m-.5-.5h1v1h-1z" fill="#002320" transform="matrix(-180 0 0 -28 686 478)"/><path d="m-.5-.5h1v1h-1z" fill="#610000" transform="matrix(-166.11618608 125.1775248 -31.2943812 -41.52904652 654 390)"/><path d="m-.5-.5h1v1h-1z" fill="#c45542" transform="matrix(8 0 0 40 626 282)"/><path d="m-.5-.5h1v1h-1z" fill="#6a0000" transform="matrix(-11.85226008 1.8772136 -21.27508724 -134.32561432 754 306)"/><path d="m-.5-.5h1v1h-1z" fill="#212211" transform="matrix(-1.62694656 3.65418184 -21.925091 -9.76167944 610 290)"/><path d="m-.5-.5h1v1h-1z" fill="#c2c1b3" transform="matrix(-5.9451586 5.35304484 -2.67652244 -2.97257932 582 314)"/><path d="m-.5-.5h1v1h-1z" fill="#746c59" transform="matrix(-131.91958916 -4.60673356 .139598 -3.99756332 402 678)"/><path d="m-.5-.5h1v1h-1z" fill="#3d1b00" transform="matrix(2.46264592 -3.152043 15.76021508 12.31322952 290 486)"/><path d="m-.5-.5h1v1h-1z" fill="#afc0d0" transform="matrix(-60.99957192 93.9311036 -23.48277592 -15.249893 814 238)"/><path d="m-.5-.5h1v1h-1z" fill="#e2cfb7" transform="matrix(9.05651496 7.87270836 -49.8604862 57.35792808 486 390)"/><path d="m-.5-.5h1v1h-1z" fill="#2e260e" transform="matrix(.62573788 -3.95075336 55.31054708 8.76033004 438 498)"/><path d="m-.5-.5h1v1h-1z" fill="#b4cbde" transform="matrix(48 0 0 20 710 226)"/><path d="m-.5-.5h1v1h-1z" fill="#24525e" transform="matrix(-81.84708544 18.89588856 -6.29862952 -27.2823618 62 2)"/><path d="m-.5-.5h1v1h-1z" fill="#85735b" transform="matrix(-196 0 0 -16 134 486)"/><path d="m-.5-.5h1v1h-1z" fill="#d0a287" transform="matrix(199.2389396 -17.43114856 1.74311484 19.92389396 918 446)"/><path d="m-.5-.5h1v1h-1z" fill="#a2b5b5" transform="matrix(-10.45868912 -119.54336376 55.78690308 -4.8807216 74 266)"/><path d="m-.5-.5h1v1h-1z" fill="#64878f" transform="matrix(24.08870184 26.75321372 -222.94344764 200.73918192 2 162)"/><path d="m-.5-.5h1v1h-1z" fill="#dec5bc" transform="matrix(1.6700772 11.88321684 -7.92214456 1.1133848 518 410)"/><path d="m-.5-.5h1v1h-1z" fill="#637475" transform="matrix(-.41879396 -11.99268992 107.93420932 -3.76914564 78 454)"/><path d="m-.5-.5h1v1h-1z" fill="#6f6a58" transform="matrix(-63.52295372 7.79963796 -8.77459272 -71.46332292 114 586)"/><path d="m-.5-.5h1v1h-1z" fill="#600" transform="matrix(14.86289652 13.38261212 -2.67652244 2.97257932 614 346)"/><path d="m-.5-.5h1v1h-1z" fill="#886145" transform="matrix(-3.7087354 1.49842636 -20.97796924 -51.92229584 486 442)"/><path d="m-.5-.5h1v1h-1z" fill="#999a92" transform="matrix(-95.9415194 -3.35035168 .69798992 -19.98781656 346 474)"/><path d="m-.5-.5h1v1h-1z" fill="#9cbfd9" transform="matrix(103.81626316 -29.76883444 15.43569192 53.83065496 338 194)"/><path d="m-.5-.5h1v1h-1z" fill="#6e6539" transform="matrix(26.83745816 -17.42844912 4.35711228 6.70936456 686 262)"/><path d="m-.5-.5h1v1h-1z" fill="#8a9aa4" transform="matrix(89.64204596 -20.695497 8.99804216 38.9748026 910 102)"/><path d="m-.5-.5h1v1h-1z" fill="#626c61" transform="matrix(-139.80813488 7.32703388 -.20934384 -3.99451812 846 470)"/><path d="m-.5-.5h1v1h-1z" fill="#3a0000" transform="matrix(-34.67247316 27.08910492 -2.46264592 -3.152043 738 246)"/><path d="m-.5-.5h1v1h-1z" fill="#a1bbd1" transform="matrix(10.59838528 16.96096192 -101.76577152 63.59031172 718 178)"/><path d="m-.5-.5h1v1h-1z" fill="#ada196" transform="matrix(16.26946572 36.54181832 -255.79272812 113.88626008 606 574)"/><path d="m-.5-.5h1v1h-1z" fill="#f9e5c1" transform="matrix(113.46512168 -24.11775612 9.97976116 46.95108484 838 398)"/><path d="m-.5-.5h1v1h-1z" fill="#866c37" transform="matrix(2.82842712 -2.82842712 22.627417 22.627417 738 218)"/><path d="m-.5-.5h1v1h-1z" fill="#660103" transform="matrix(12.31322952 15.76021508 -40.9765592 32.01439672 522 470)"/><path d="m-.5-.5h1v1h-1z" fill="#adcbe1" transform="matrix(-8.09823796 -35.07732232 183.18157216 -42.2907982 546 230)"/><path d="m-.5-.5h1v1h-1z" fill="#a4a39d" transform="matrix(-9.97976116 -46.95108484 89.98957928 -19.12787556 894 46)"/><path d="m-.5-.5h1v1h-1z" fill="#e2e3d7" transform="matrix(-9.35589456 30.6017522 -233.33836044 -71.33869596 286 386)"/><path d="m-.5-.5h1v1h-1z" fill="#540000" transform="matrix(-10.52538136 -34.4269712 214.21226532 -65.49126184 654 430)"/><path d="m-.5-.5h1v1h-1z" fill="#2a1f0f" transform="matrix(-30.6017522 9.35589456 -1.1694868 -3.82521904 354 490)"/><path d="m-.5-.5h1v1h-1z" fill="#928b7b" transform="matrix(-37.82451616 -29.5517508 34.4770426 -44.1286022 954 14)"/><path d="m-.5-.5h1v1h-1z" fill="#6d6754" transform="matrix(-35.21331364 -7.48482088 .83164676 -3.9125904 470 642)"/><path d="m-.5-.5h1v1h-1z" fill="#f0d09a" transform="matrix(-232.05778996 75.40014664 -7.41640788 -22.8253564 930 402)"/><path d="m-.5-.5h1v1h-1z" fill="#b78071" transform="matrix(2.72799344 2.9254148 -38.03039248 35.46391472 674 334)"/><path d="m-.5-.5h1v1h-1z" fill="#a29a93" transform="matrix(-7.81363572 22.6924458 -7.5641486 -2.60454524 458 322)"/><path d="m-.5-.5h1v1h-1z" fill="#d5d0be" transform="matrix(13.57466936 -24.4893518 3.49847884 1.93923848 598 334)"/><path d="m-.5-.5h1v1h-1z" fill="#b0b1ab" transform="matrix(-25.78104968 -121.29030248 3.9125904 -.83164676 806 314)"/><path d="m-.5-.5h1v1h-1z" fill="#a89d93" transform="matrix(-62.35968416 14.39686748 -24.29471388 -105.231967 270 550)"/><path d="m-.5-.5h1v1h-1z" fill="#9c8572" transform="matrix(-23.25736976 -63.8990982 7.51754096 -2.73616116 542 350)"/><path d="m-.5-.5h1v1h-1z" fill="#575845" transform="matrix(35.13996244 -26.479861 187.76628724 249.17427912 78 614)"/><path d="m-.5-.5h1v1h-1z" fill="#d6e3ee" transform="matrix(42.38148444 22.534635 -9.38943124 17.65895184 462 258)"/><path d="m-.5-.5h1v1h-1z" fill="#894540" transform="matrix(3.23606796 2.351141 -49.3739612 67.95742752 550 298)"/><path d="m-.5-.5h1v1h-1z" fill="#cdb3b5" transform="matrix(-3.78207432 -1.3022726 11.72045356 -34.03866872 770 250)"/><path d="m-.5-.5h1v1h-1z" fill="#c1906c" transform="matrix(3.99451812 .20934384 -3.76818884 71.90132652 774 406)"/><path d="m-.5-.5h1v1h-1z" fill="#e5cfb8" transform="matrix(-14.64251916 32.88763648 -40.19600012 -17.89641228 458 446)"/><path d="m-.5-.5h1v1h-1z" fill="#bb9387" transform="matrix(42.8984888 -35.99610616 2.57115044 3.06417776 638 362)"/><path d="m-.5-.5h1v1h-1z" fill="#ae8765" transform="matrix(-3.50846044 11.47565708 -84.15481852 -25.72871 642 266)"/><path d="m-.5-.5h1v1h-1z" fill="#ce9585" transform="matrix(-3.62523116 1.69047304 -11.83331132 -25.37661804 622 290)"/><path d="m-.5-.5h1v1h-1z" fill="#9b9383" transform="matrix(1.0352762 -3.86370332 112.04739584 30.02300924 770 614)"/><path d="m-.5-.5h1v1h-1z" fill="#938165" transform="matrix(6.84040288 -18.7938524 82.69295064 30.0977726 18 422)"/><path d="m-.5-.5h1v1h-1z" fill="#002d40" transform="matrix(1.23606796 3.80422608 -167.38594688 54.386991 686 450)"/><path d="m-.5-.5h1v1h-1z" fill="#636355" transform="matrix(0 -36 116 0 926 574)"/><path d="m-.5-.5h1v1h-1z" fill="#8e8875" transform="matrix(119.77480244 32.0935616 -1.0352762 3.86370332 870 518)"/><path d="m-.5-.5h1v1h-1z" fill="#73826c" transform="matrix(131.97989576 2.30371764 -.06980964 3.9993908 158 470)"/><path d="m-.5-.5h1v1h-1z" fill="#5d0000" transform="matrix(94.98951096 -79.7056636 2.57115044 3.06417776 706 270)"/><path d="m-.5-.5h1v1h-1z" fill="#b3997f" transform="matrix(.06980964 -3.9993908 23.99634468 .41885776 566 334)"/><path d="m-.5-.5h1v1h-1z" fill="#bbb9ba" transform="matrix(-7.41640788 -22.8253564 117.93100804 -38.31810732 818 90)"/><path d="m-.5-.5h1v1h-1z" fill="#9db2c7" transform="matrix(65.05382388 65.05382388 -53.74011536 53.74011536 802 154)"/><path d="m-.5-.5h1v1h-1z" fill="#938e8c" transform="matrix(-25.16623328 -12.27439212 1.7534846 -3.5951762 458 278)"/><path d="m-.5-.5h1v1h-1z" fill="#625f4f" transform="matrix(1.1694868 -3.82521904 42.07740928 12.864355 710 606)"/><path d="m-.5-.5h1v1h-1z" fill="#454637" transform="matrix(-102.71958744 -16.26918436 6.88311648 -43.458287 1006 506)"/><path d="m-.5-.5h1v1h-1z" fill="#96a29d" transform="matrix(37.82074304 -13.02272616 58.6022678 170.1933436 1022 202)"/><path d="m-.5-.5h1v1h-1z" fill="#9e7e4b" transform="matrix(-23.0188736 22.22906784 -2.77863348 -2.8773592 742 230)"/><path d="m-.5-.5h1v1h-1z" fill="#a29587" transform="matrix(42.32053816 -58.2492236 48.54101968 35.26711512 414 634)"/><path d="m-.5-.5h1v1h-1z" fill="#162219" transform="matrix(32.69837232 29.44174668 -165.94439036 184.29991672 1022 678)"/><path d="m-.5-.5h1v1h-1z" fill="#3a6f80" transform="matrix(12.8557522 -15.32088888 55.15519992 46.28070788 22 102)"/><path d="m-.5-.5h1v1h-1z" fill="#1e0b00" transform="matrix(15.99756312 -.27923852 .06980964 3.9993908 222 598)"/><path d="m-.5-.5h1v1h-1z" fill="#9fbcd3" transform="matrix(171.89522224 -6.00271344 .83758792 23.98537984 486 166)"/><path d="m-.5-.5h1v1h-1z" fill="#7a8182" transform="matrix(0 -16 28 0 498 498)"/><path d="m-.5-.5h1v1h-1z" fill="#e8c290" transform="matrix(265.02865764 -61.1866868 2.69941264 11.69244076 910 422)"/><path d="m-.5-.5h1v1h-1z" fill="#162e24" transform="matrix(3.78207432 -1.3022726 5.20909048 15.1282972 658 282)"/><path d="m-.5-.5h1v1h-1z" fill="#7c7764" transform="matrix(-2.43738688 -19.85092304 111.165169 -13.64936648 878 594)"/><path d="m-.5-.5h1v1h-1z" fill="#3b4233" transform="matrix(23.70452016 3.75442716 -30.66115516 193.58691476 1010 558)"/><path d="m-.5-.5h1v1h-1z" fill="#411400" transform="matrix(19.40591452 -4.83843792 3.87075032 15.52473164 570 318)"/><path d="m-.5-.5h1v1h-1z" fill="#6a0201" transform="matrix(2.351141 3.23606796 -165.03946684 119.90819148 642 350)"/><path d="m-.5-.5h1v1h-1z" fill="#602d24" transform="matrix(-3.9902562 .27902588 -1.95318128 -27.9317934 586 354)"/><path d="m-.5-.5h1v1h-1z" fill="#968b7c" transform="matrix(59.3969696 59.3969696 -28.28427124 28.28427124 262 622)"/><path d="m-.5-.5h1v1h-1z" fill="#686d61" transform="matrix(-12.59725904 -54.56472364 27.2823618 -6.29862952 10 30)"/><path d="m-.5-.5h1v1h-1z" fill="#6f8691" transform="matrix(6.12361644 -43.57179504 154.48181872 21.71100376 830 2)"/><path d="m-.5-.5h1v1h-1z" fill="#615b49" transform="matrix(3.05294392 15.70603492 -129.5747882 25.1867874 950 482)"/><path d="m-.5-.5h1v1h-1z" fill="#d0aa71" transform="matrix(-68.3888446 55.3801944 -20.13825252 -24.86867076 1022 410)"/><path d="m-.5-.5h1v1h-1z" fill="#c6785c" transform="matrix(9.177223 -13.10643272 6.55321636 4.58861148 770 286)"/><path d="m-.5-.5h1v1h-1z" fill="#e2d8ca" transform="matrix(-3.92650872 -.763236 24.4235514 -125.64827948 494 358)"/><path d="m-.5-.5h1v1h-1z" fill="#e9e7e5" transform="matrix(-124.58713956 93.8831436 -12.03630048 -15.9727102 350 310)"/><path d="m-.5-.5h1v1h-1z" fill="#272113" transform="matrix(.139598 3.99756332 -111.93177264 3.90874364 98 474)"/><path d="m-.5-.5h1v1h-1z" fill="#5f452a" transform="matrix(-17.143346 10.30076148 -2.06015228 -3.4286692 606 666)"/><path d="m-.5-.5h1v1h-1z" fill="#a7807a" transform="matrix(-2.51728156 -3.10858384 37.30300616 -30.20737876 602 370)"/><path d="m-.5-.5h1v1h-1z" fill="#ced6d9" transform="matrix(-3.9701846 -.48747736 7.79963796 -63.52295372 530 282)"/><path d="m-.5-.5h1v1h-1z" fill="#d4cfbb" transform="matrix(3.01883832 2.62423612 -15.74541668 18.11302992 502 430)"/><path d="m-.5-.5h1v1h-1z" fill="#8a8576" transform="matrix(-113.02692752 26.09432232 -4.49902108 -19.48740128 174 578)"/><path d="m-.5-.5h1v1h-1z" fill="#6d6b5b" transform="matrix(19.07709352 -30.52973148 142.47208016 89.0264364 134 618)"/><path d="m-.5-.5h1v1h-1z" fill="#353b3c" transform="matrix(5.45598688 5.8508296 -5.8508296 5.45598688 394 182)"/><path d="m-.5-.5h1v1h-1z" fill="#001915" transform="matrix(-63.99025248 1.116954 -.20942888 -11.99817236 570 486)"/><path d="m-.5-.5h1v1h-1z" fill="#a08672" transform="matrix(3.152043 2.46264592 -68.95408524 88.2572044 550 310)"/><path d="m-.5-.5h1v1h-1z" fill="#938673" transform="matrix(-1.1133848 7.92214456 -205.97575828 -28.948005 790 510)"/><path d="m-.5-.5h1v1h-1z" fill="#bbab98" transform="matrix(-9.02970524 51.21000316 -3.939231 -.69459272 490 314)"/><path d="m-.5-.5h1v1h-1z" fill="#989c9f" transform="matrix(-114.57184752 -18.14639796 .62573788 -3.95075336 202 458)"/><path d="m-.5-.5h1v1h-1z" fill="#c7b8aa" transform="matrix(3.9902562 .27902588 -1.95318128 27.9317934 502 422)"/><path d="m-.5-.5h1v1h-1z" fill="#795c4a" transform="matrix(-25.17281564 31.08583844 -3.10858384 -2.51728156 502 398)"/><path d="m-.5-.5h1v1h-1z" fill="#d3a981" transform="matrix(-3.95075336 .62573788 -5.00590288 -31.60602688 498 350)"/></g></svg>