<svg xmlns="http://www.w3.org/2000/svg" version="1.1" width="1024" height="680">
<rect x="0" y="0" width="1024" height="680" fill="#3c515f" />
<g transform="scale(4.000000) translate(0.5 0.5)">
<g transform="translate(122 45) rotate(254) scale(197 113)"><rect fill="#81caf9" fill-opacity="0.501961" x="-0.5" y="-0.5" width="1" height="1" /></g>
<g transform="translate(233 87) rotate(269) scale(201 60)"><rect fill="#000000" fill-opacity="0.501961" x="-0.5" y="-0.5" width="1" height="1" /></g>
<g transform="translate(128 121) rotate(3) scale(28 133)"><rect fill="#140000" fill-opacity="0.501961" x="-0.5" y="-0.5" width="1" height="1" /></g>
<g transform="translate(15 94) rotate(70) scale(188 115)"><rect fill="#160000" fill-opacity="0.501961" x="-0.5" y="-0.5" width="1" height="1" /></g>
<g transform="translate(191 120) rotate(337) scale(23 51)"><rect fill="#ffffe3" fill-opacity="0.501961" x="-0.5" y="-0.5" width="1" height="1" /></g>
<g transform="translate(175 21) rotate(195) scale(53 124)"><rect fill="#3f97d5" fill-opacity="0.501961" x="-0.5" y="-0.5" width="1" height="1" /></g>
<g transform="translate(90 78) rotate(338) scale(27 90)"><rect fill="#86d1ff" fill-opacity="0.501961" x="-0.5" y="-0.5" width="1" height="1" /></g>
<g transform="translate(154 153) rotate(177) scale(13 74)"><rect fill="#78d2ff" fill-opacity="0.501961" x="-0.5" y="-0.5" width="1" height="1" /></g>
<g transform="translate(157 78) rotate(173) scale(34 36)"><rect fill="#bcdcf1" fill-opacity="0.501961" x="-0.5" y="-0.5" width="1" height="1" /></g>
<g transform="translate(184 169) rotate(217) scale(48 49)"><rect fill="#030000" fill-opacity="0.501961" x="-0.5" y="-0.5" width="1" height="1" /></g>
<g transform="translate(131 143) rotate(84) scale(81 31)"><rect fill="#251c10" fill-opacity="0.501961" x="-0.5" y="-0.5" width="1" height="1" /></g>
<g transform="translate(249 136) rotate(212) scale(73 70)"><rect fill="#030000" fill-opacity="0.501961" x="-0.5" y="-0.5" width="1" height="1" /></g>
<g transform="translate(103 147) rotate(267) scale(58 8)"><rect fill="#bbf6ff" fill-opacity="0.501961" x="-0.5" y="-0.5" width="1" height="1" /></g>
<g transform="translate(82 50) rotate(346) scale(37 85)"><rect fill="#71b8e9" fill-opacity="0.501961" x="-0.5" y="-0.5" width="1" height="1" /></g>
<g transform="translate(161 17) rotate(198) scale(79 65)"><rect fill="#1d6faa" fill-opacity="0.501961" x="-0.5" y="-0.5" width="1" height="1" /></g>
<g transform="translate(201 86) rotate(154) scale(20 36)"><rect fill="#0a0000" fill-opacity="0.501961" x="-0.5" y="-0.5" width="1" height="1" /></g>
<g transform="translate(21 131) rotate(57) scale(90 47)"><rect fill="#0e0c01" fill-opacity="0.501961" x="-0.5" y="-0.5" width="1" height="1" /></g>
<g transform="translate(193 135) rotate(252) scale(32 12)"><rect fill="#fff2e6" fill-opacity="0.501961" x="-0.5" y="-0.5" width="1" height="1" /></g>
<g transform="translate(104 52) rotate(282) scale(73 37)"><rect fill="#5dabda" fill-opacity="0.501961" x="-0.5" y="-0.5" width="1" height="1" /></g>
<g transform="translate(167 138) rotate(95) scale(47 6)"><rect fill="#250900" fill-opacity="0.501961" x="-0.5" y="-0.5" width="1" height="1" /></g>
<g transform="translate(85 115) rotate(253) scale(39 4)"><rect fill="#391100" fill-opacity="0.501961" x="-0.5" y="-0.5" width="1" height="1" /></g>
<g transform="translate(235 65) rotate(272) scale(63 83)"><rect fill="#131313" fill-opacity="0.501961" x="-0.5" y="-0.5" width="1" height="1" /></g>
<g transform="translate(111 162) rotate(187) scale(8 100)"><rect fill="#3e2b1d" fill-opacity="0.501961" x="-0.5" y="-0.5" width="1" height="1" /></g>
<g transform="translate(178 97) rotate(338) scale(31 51)"><rect fill="#bfbdbd" fill-opacity="0.501961" x="-0.5" y="-0.5" width="1" height="1" /></g>
<g transform="translate(171 96) rotate(-95) scale(19 21)"><rect fill="#3b7fad" fill-opacity="0.501961" x="-0.5" y="-0.5" width="1" height="1" /></g>
<g transform="translate(216 123) rotate(205) scale(8 97)"><rect fill="#0e0a0a" fill-opacity="0.501961" x="-0.5" y="-0.5" width="1" height="1" /></g>
<g transform="translate(30 36) rotate(78) scale(91 58)"><rect fill="#373526" fill-opacity="0.501961" x="-0.5" y="-0.5" width="1" height="1" /></g>
<g transform="translate(100 138) rotate(262) scale(30 14)"><rect fill="#9ad1ff" fill-opacity="0.501961" x="-0.5" y="-0.5" width="1" height="1" /></g>
<g transform="translate(65 16) rotate(161) scale(17 38)"><rect fill="#8ec7f1" fill-opacity="0.501961" x="-0.5" y="-0.5" width="1" height="1" /></g>
<g transform="translate(160 118) rotate(14) scale(15 53)"><rect fill="#5fabdf" fill-opacity="0.501961" x="-0.5" y="-0.5" width="1" height="1" /></g>
<g transform="translate(179 128) rotate(334) scale(1 38)"><rect fill="#220400" fill-opacity="0.501961" x="-0.5" y="-0.5" width="1" height="1" /></g>
<g transform="translate(178 100) rotate(2) scale(4 13)"><rect fill="#0f0000" fill-opacity="0.501961" x="-0.5" y="-0.5" width="1" height="1" /></g>
<g transform="translate(183 105) rotate(17) scale(6 35)"><rect fill="#ffffe4" fill-opacity="0.501961" x="-0.5" y="-0.5" width="1" height="1" /></g>
<g transform="translate(34 52) rotate(65) scale(41 34)"><rect fill="#4d4c46" fill-opacity="0.501961" x="-0.5" y="-0.5" width="1" height="1" /></g>
<g transform="translate(129 87) rotate(181) scale(21 36)"><rect fill="#2d2b21" fill-opacity="0.501961" x="-0.5" y="-0.5" width="1" height="1" /></g>
<g transform="translate(145 81) rotate(76) scale(107 7)"><rect fill="#509ccc" fill-opacity="0.501961" x="-0.5" y="-0.5" width="1" height="1" /></g>
<g transform="translate(245 19) rotate(131) scale(9 16)"><rect fill="#46799d" fill-opacity="0.501961" x="-0.5" y="-0.5" width="1" height="1" /></g>
<g transform="translate(119 47) rotate(157) scale(9 13)"><rect fill="#dee9f5" fill-opacity="0.501961" x="-0.5" y="-0.5" width="1" height="1" /></g>
<g transform="translate(155 152) rotate(192) scale(8 36)"><rect fill="#83c4f9" fill-opacity="0.501961" x="-0.5" y="-0.5" width="1" height="1" /></g>
<g transform="translate(220 137) rotate(104) scale(12 2)"><rect fill="#91acba" fill-opacity="0.501961" x="-0.5" y="-0.5" width="1" height="1" /></g>
<g transform="translate(172 144) rotate(292) scale(45 3)"><rect fill="#1f1108" fill-opacity="0.501961" x="-0.5" y="-0.5" width="1" height="1" /></g>
<g transform="translate(196 149) rotate(104) scale(12 5)"><rect fill="#eee8dc" fill-opacity="0.501961" x="-0.5" y="-0.5" width="1" height="1" /></g>
<g transform="translate(96 2) rotate(433) scale(89 58)"><rect fill="#4893c7" fill-opacity="0.501961" x="-0.5" y="-0.5" width="1" height="1" /></g>
<g transform="translate(168 80) rotate(64) scale(5 39)"><rect fill="#e1f4ff" fill-opacity="0.501961" x="-0.5" y="-0.5" width="1" height="1" /></g>
<g transform="translate(129 56) rotate(311) scale(12 8)"><rect fill="#1e1a10" fill-opacity="0.501961" x="-0.5" y="-0.5" width="1" height="1" /></g>
<g transform="translate(77 169) rotate(348) scale(48 26)"><rect fill="#1e1c15" fill-opacity="0.501961" x="-0.5" y="-0.5" width="1" height="1" /></g>
<g transform="translate(177 169) rotate(61) scale(31 32)"><rect fill="#0b0807" fill-opacity="0.501961" x="-0.5" y="-0.5" width="1" height="1" /></g>
<g transform="translate(105 142) rotate(365) scale(5 54)"><rect fill="#96d1ff" fill-opacity="0.501961" x="-0.5" y="-0.5" width="1" height="1" /></g>
<g transform="translate(196 120) rotate(156) scale(14 25)"><rect fill="#fae9dc" fill-opacity="0.501961" x="-0.5" y="-0.5" width="1" height="1" /></g>
<g transform="translate(190 102) rotate(255) scale(15 2)"><rect fill="#0c1821" fill-opacity="0.501961" x="-0.5" y="-0.5" width="1" height="1" /></g>
<g transform="translate(135 147) rotate(357) scale(25 66)"><rect fill="#2d2e2f" fill-opacity="0.501961" x="-0.5" y="-0.5" width="1" height="1" /></g>
<g transform="translate(213 38) rotate(-36) scale(8 12)"><rect fill="#3a6e8d" fill-opacity="0.501961" x="-0.5" y="-0.5" width="1" height="1" /></g>
<g transform="translate(198 125) rotate(63) scale(10 3)"><rect fill="#465762" fill-opacity="0.501961" x="-0.5" y="-0.5" width="1" height="1" /></g>
<g transform="translate(223 0) rotate(279) scale(26 10)"><rect fill="#3c7093" fill-opacity="0.501961" x="-0.5" y="-0.5" width="1" height="1" /></g>
<g transform="translate(9 165) rotate(26) scale(9 10)"><rect fill="#877c63" fill-opacity="0.501961" x="-0.5" y="-0.5" width="1" height="1" /></g>
<g transform="translate(14 18) rotate(140) scale(17 13)"><rect fill="#616660" fill-opacity="0.501961" x="-0.5" y="-0.5" width="1" height="1" /></g>
<g transform="translate(31 36) rotate(158) scale(6 100)"><rect fill="#191410" fill-opacity="0.501961" x="-0.5" y="-0.5" width="1" height="1" /></g>
<g transform="translate(235 164) rotate(89) scale(51 44)"><rect fill="#0b0a08" fill-opacity="0.501961" x="-0.5" y="-0.5" width="1" height="1" /></g>
<g transform="translate(173 130) rotate(104) scale(48 1)"><rect fill="#dcbea3" fill-opacity="0.501961" x="-0.5" y="-0.5" width="1" height="1" /></g>
<g transform="translate(21 81) rotate(332) scale(15 130)"><rect fill="#1d1a15" fill-opacity="0.501961" x="-0.5" y="-0.5" width="1" height="1" /></g>
<g transform="translate(59 102) rotate(361) scale(10 20)"><rect fill="#6d614b" fill-opacity="0.501961" x="-0.5" y="-0.5" width="1" height="1" /></g>
<g transform="translate(185 119) rotate(72) scale(14 1)"><rect fill="#2b2826" fill-opacity="0.501961" x="-0.5" y="-0.5" width="1" height="1" /></g>
<g transform="translate(86 128) rotate(77) scale(47 9)"><rect fill="#4c4331" fill-opacity="0.501961" x="-0.5" y="-0.5" width="1" height="1" /></g>
<g transform="translate(162 67) rotate(210) scale(11 20)"><rect fill="#ced7e2" fill-opacity="0.501961" x="-0.5" y="-0.5" width="1" height="1" /></g>
<g transform="translate(162 14) rotate(198) scale(75 61)"><rect fill="#3278a8" fill-opacity="0.501961" x="-0.5" y="-0.5" width="1" height="1" /></g>
<g transform="translate(196 53) rotate(285) scale(54 3)"><rect fill="#090503" fill-opacity="0.501961" x="-0.5" y="-0.5" width="1" height="1" /></g>
<g transform="translate(208 108) rotate(243) scale(15 5)"><rect fill="#377298" fill-opacity="0.501961" x="-0.5" y="-0.5" width="1" height="1" /></g>
<g transform="translate(167 136) rotate(283) scale(22 8)"><rect fill="#1d1c1a" fill-opacity="0.501961" x="-0.5" y="-0.5" width="1" height="1" /></g>
<g transform="translate(152 77) rotate(0) scale(14 7)"><rect fill="#2e7dae" fill-opacity="0.501961" x="-0.5" y="-0.5" width="1" height="1" /></g>
<g transform="translate(97 125) rotate(169) scale(12 51)"><rect fill="#91c7ec" fill-opacity="0.501961" x="-0.5" y="-0.5" width="1" height="1" /></g>
<g transform="translate(249 94) rotate(202) scale(54 81)"><rect fill="#0f0f0e" fill-opacity="0.501961" x="-0.5" y="-0.5" width="1" height="1" /></g>
<g transform="translate(192 123) rotate(160) scale(3 43)"><rect fill="#ffffff" fill-opacity="0.501961" x="-0.5" y="-0.5" width="1" height="1" /></g>
<g transform="translate(179 86) rotate(108) scale(20 12)"><rect fill="#5595c2" fill-opacity="0.501961" x="-0.5" y="-0.5" width="1" height="1" /></g>
<g transform="translate(193 144) rotate(241) scale(14 1)"><rect fill="#2b383d" fill-opacity="0.501961" x="-0.5" y="-0.5" width="1" height="1" /></g>
<g transform="translate(77 79) rotate(256) scale(31 11)"><rect fill="#8dc3e7" fill-opacity="0.501961" x="-0.5" y="-0.5" width="1" height="1" /></g>
<g transform="translate(61 39) rotate(64) scale(4 10)"><rect fill="#3b342d" fill-opacity="0.501961" x="-0.5" y="-0.5" width="1" height="1" /></g>
<g transform="translate(229 54) rotate(-9) scale(9 8)"><rect fill="#2b5e81" fill-opacity="0.501961" x="-0.5" y="-0.5" width="1" height="1" /></g>
<g transform="translate(106 63) rotate(9) scale(28 24)"><rect fill="#5fa6d1" fill-opacity="0.501961" x="-0.5" y="-0.5" width="1" height="1" /></g>
<g transform="translate(233 12) rotate(208) scale(14 46)"><rect fill="#16100e" fill-opacity="0.501961" x="-0.5" y="-0.5" width="1" height="1" /></g>
<g transform="translate(245 26) rotate(216) scale(13 8)"><rect fill="#3e6682" fill-opacity="0.501961" x="-0.5" y="-0.5" width="1" height="1" /></g>
<g transform="translate(208 88) rotate(253) scale(30 31)"><rect fill="#20272b" fill-opacity="0.501961" x="-0.5" y="-0.5" width="1" height="1" /></g>
<g transform="translate(188 90) rotate(167) scale(3 15)"><rect fill="#fff9de" fill-opacity="0.501961" x="-0.5" y="-0.5" width="1" height="1" /></g>
<g transform="translate(154 115) rotate(356) scale(18 42)"><rect fill="#539dce" fill-opacity="0.501961" x="-0.5" y="-0.5" width="1" height="1" /></g>
<g transform="translate(204 135) rotate(113) scale(10 2)"><rect fill="#ffffff" fill-opacity="0.501961" x="-0.5" y="-0.5" width="1" height="1" /></g>
<g transform="translate(47 9) rotate(76) scale(57 9)"><rect fill="#231b16" fill-opacity="0.501961" x="-0.5" y="-0.5" width="1" height="1" /></g>
<g transform="translate(204 64) rotate(317) scale(5 8)"><rect fill="#32729a" fill-opacity="0.501961" x="-0.5" y="-0.5" width="1" height="1" /></g>
<g transform="translate(148 56) rotate(198) scale(22 16)"><rect fill="#4f8fb6" fill-opacity="0.501961" x="-0.5" y="-0.5" width="1" height="1" /></g>
<g transform="translate(175 105) rotate(261) scale(30 1)"><rect fill="#fdeee1" fill-opacity="0.501961" x="-0.5" y="-0.5" width="1" height="1" /></g>
<g transform="translate(73 31) rotate(353) scale(20 88)"><rect fill="#77b0d9" fill-opacity="0.501961" x="-0.5" y="-0.5" width="1" height="1" /></g>
<g transform="translate(183 124) rotate(249) scale(28 1)"><rect fill="#ffffff" fill-opacity="0.501961" x="-0.5" y="-0.5" width="1" height="1" /></g>
<g transform="translate(244 22) rotate(294) scale(29 1)"><rect fill="#040300" fill-opacity="0.501961" x="-0.5" y="-0.5" width="1" height="1" /></g>
<g transform="translate(165 112) rotate(110) scale(12 7)"><rect fill="#b6ccde" fill-opacity="0.501961" x="-0.5" y="-0.5" width="1" height="1" /></g>
<g transform="translate(21 44) rotate(18) scale(21 11)"><rect fill="#695f52" fill-opacity="0.501961" x="-0.5" y="-0.5" width="1" height="1" /></g>
<g transform="translate(0 155) rotate(335) scale(73 15)"><rect fill="#0d0c0a" fill-opacity="0.501961" x="-0.5" y="-0.5" width="1" height="1" /></g>
<g transform="translate(112 149) rotate(274) scale(44 7)"><rect fill="#433c35" fill-opacity="0.501961" x="-0.5" y="-0.5" width="1" height="1" /></g>
<g transform="translate(17 29) rotate(322) scale(56 4)"><rect fill="#090d0e" fill-opacity="0.501961" x="-0.5" y="-0.5" width="1" height="1" /></g>
<g transform="translate(177 130) rotate(75) scale(53 1)"><rect fill="#3c2c1d" fill-opacity="0.501961" x="-0.5" y="-0.5" width="1" height="1" /></g>
<g transform="translate(211 153) rotate(66) scale(8 3)"><rect fill="#417da4" fill-opacity="0.501961" x="-0.5" y="-0.5" width="1" height="1" /></g>
<g transform="translate(104 119) rotate(282) scale(37 14)"><rect fill="#7fbae1" fill-opacity="0.501961" x="-0.5" y="-0.5" width="1" height="1" /></g>
<g transform="translate(185 52) rotate(17) scale(15 27)"><rect fill="#3984b6" fill-opacity="0.501961" x="-0.5" y="-0.5" width="1" height="1" /></g>
<g transform="translate(72 154) rotate(332) scale(38 68)"><rect fill="#272621" fill-opacity="0.501961" x="-0.5" y="-0.5" width="1" height="1" /></g>
<g transform="translate(178 100) rotate(99) scale(6 7)"><rect fill="#1f0600" fill-opacity="0.501961" x="-0.5" y="-0.5" width="1" height="1" /></g>
<g transform="translate(5 82) rotate(-40) scale(11 12)"><rect fill="#525546" fill-opacity="0.501961" x="-0.5" y="-0.5" width="1" height="1" /></g>
<g transform="translate(200 132) rotate(290) scale(5 4)"><rect fill="#3d434a" fill-opacity="0.501961" x="-0.5" y="-0.5" width="1" height="1" /></g>
<g transform="translate(131 72) rotate(357) scale(12 40)"><rect fill="#343939" fill-opacity="0.501961" x="-0.5" y="-0.5" width="1" height="1" /></g>
<g transform="translate(193 141) rotate(247) scale(13 3)"><rect fill="#486170" fill-opacity="0.501961" x="-0.5" y="-0.5" width="1" height="1" /></g>
<g transform="translate(173 90) rotate(245) scale(15 7)"><rect fill="#7eb1d6" fill-opacity="0.501961" x="-0.5" y="-0.5" width="1" height="1" /></g>
<g transform="translate(141 7) rotate(292) scale(29 83)"><rect fill="#3077a9" fill-opacity="0.501961" x="-0.5" y="-0.5" width="1" height="1" /></g>
<g transform="translate(176 122) rotate(289) scale(27 1)"><rect fill="#eed3bc" fill-opacity="0.501961" x="-0.5" y="-0.5" width="1" height="1" /></g>
<g transform="translate(201 104) rotate(337) scale(4 51)"><rect fill="#100e0b" fill-opacity="0.501961" x="-0.5" y="-0.5" width="1" height="1" /></g>
<g transform="translate(36 5) rotate(73) scale(13 9)"><rect fill="#053f65" fill-opacity="0.501961" x="-0.5" y="-0.5" width="1" height="1" /></g>
<g transform="translate(152 168) rotate(83) scale(49 4)"><rect fill="#8dcaf7" fill-opacity="0.501961" x="-0.5" y="-0.5" width="1" height="1" /></g>
<g transform="translate(196 151) rotate(379) scale(1 10)"><rect fill="#ffffef" fill-opacity="0.501961" x="-0.5" y="-0.5" width="1" height="1" /></g>
<g transform="translate(192 123) rotate(-67) scale(25 3)"><rect fill="#fffff5" fill-opacity="0.501961" x="-0.5" y="-0.5" width="1" height="1" /></g>
<g transform="translate(133 47) rotate(33) scale(11 4)"><rect fill="#aecde5" fill-opacity="0.501961" x="-0.5" y="-0.5" width="1" height="1" /></g>
<g transform="translate(211 136) rotate(116) scale(51 9)"><rect fill="#151719" fill-opacity="0.501961" x="-0.5" y="-0.5" width="1" height="1" /></g>
<g transform="translate(115 109) rotate(100) scale(54 4)"><rect fill="#635a51" fill-opacity="0.501961" x="-0.5" y="-0.5" width="1" height="1" /></g>
<g transform="translate(37 87) rotate(19) scale(3 26)"><rect fill="#435961" fill-opacity="0.501961" x="-0.5" y="-0.5" width="1" height="1" /></g>
<g transform="translate(196 84) rotate(340) scale(6 11)"><rect fill="#275875" fill-opacity="0.501961" x="-0.5" y="-0.5" width="1" height="1" /></g>
<g transform="translate(67 79) rotate(346) scale(5 97)"><rect fill="#3d3326" fill-opacity="0.501961" x="-0.5" y="-0.5" width="1" height="1" /></g>
<g transform="translate(15 24) rotate(157) scale(1 25)"><rect fill="#000100" fill-opacity="0.501961" x="-0.5" y="-0.5" width="1" height="1" /></g>
<g transform="translate(144 132) rotate(85) scale(84 1)"><rect fill="#121413" fill-opacity="0.501961" x="-0.5" y="-0.5" width="1" height="1" /></g>
<g transform="translate(4 2) rotate(57) scale(25 39)"><rect fill="#1b1815" fill-opacity="0.501961" x="-0.5" y="-0.5" width="1" height="1" /></g>
<g transform="translate(219 24) rotate(294) scale(21 32)"><rect fill="#1a1717" fill-opacity="0.501961" x="-0.5" y="-0.5" width="1" height="1" /></g>
<g transform="translate(193 100) rotate(68) scale(35 1)"><rect fill="#fffdeb" fill-opacity="0.501961" x="-0.5" y="-0.5" width="1" height="1" /></g>
<g transform="translate(215 84) rotate(23) scale(4 8)"><rect fill="#367096" fill-opacity="0.501961" x="-0.5" y="-0.5" width="1" height="1" /></g>
<g transform="translate(165 80) rotate(51) scale(10 32)"><rect fill="#bdd6ea" fill-opacity="0.501961" x="-0.5" y="-0.5" width="1" height="1" /></g>
<g transform="translate(66 18) rotate(92) scale(5 13)"><rect fill="#cddeed" fill-opacity="0.501961" x="-0.5" y="-0.5" width="1" height="1" /></g>
<g transform="translate(36 33) rotate(220) scale(14 5)"><rect fill="#6b6258" fill-opacity="0.501961" x="-0.5" y="-0.5" width="1" height="1" /></g>
<g transform="translate(179 117) rotate(246) scale(33 1)"><rect fill="#fffaeb" fill-opacity="0.501961" x="-0.5" y="-0.5" width="1" height="1" /></g>
<g transform="translate(78 105) rotate(103) scale(18 5)"><rect fill="#16130b" fill-opacity="0.501961" x="-0.5" y="-0.5" width="1" height="1" /></g>
<g transform="translate(91 146) rotate(-13) scale(4 34)"><rect fill="#4e4841" fill-opacity="0.501961" x="-0.5" y="-0.5" width="1" height="1" /></g>
<g transform="translate(195 64) rotate(14) scale(5 44)"><rect fill="#1d1815" fill-opacity="0.501961" x="-0.5" y="-0.5" width="1" height="1" /></g>
<g transform="translate(88 100) rotate(167) scale(10 8)"><rect fill="#91caef" fill-opacity="0.501961" x="-0.5" y="-0.5" width="1" height="1" /></g>
<g transform="translate(74 93) rotate(77) scale(14 1)"><rect fill="#1d1001" fill-opacity="0.501961" x="-0.5" y="-0.5" width="1" height="1" /></g>
<g transform="translate(184 82) rotate(118) scale(12 4)"><rect fill="#25628b" fill-opacity="0.501961" x="-0.5" y="-0.5" width="1" height="1" /></g>
<g transform="translate(128 109) rotate(91) scale(123 1)"><rect fill="#4d4c4b" fill-opacity="0.501961" x="-0.5" y="-0.5" width="1" height="1" /></g>
<g transform="translate(45 35) rotate(70) scale(10 8)"><rect fill="#1f4b67" fill-opacity="0.501961" x="-0.5" y="-0.5" width="1" height="1" /></g>
<g transform="translate(178 105) rotate(256) scale(8 1)"><rect fill="#1a150c" fill-opacity="0.501961" x="-0.5" y="-0.5" width="1" height="1" /></g>
<g transform="translate(180 134) rotate(157) scale(3 15)"><rect fill="#070807" fill-opacity="0.501961" x="-0.5" y="-0.5" width="1" height="1" /></g>
<g transform="translate(56 0) rotate(351) scale(2 16)"><rect fill="#e1f0ff" fill-opacity="0.501961" x="-0.5" y="-0.5" width="1" height="1" /></g>
<g transform="translate(170 64) rotate(73) scale(15 8)"><rect fill="#79a2c2" fill-opacity="0.501961" x="-0.5" y="-0.5" width="1" height="1" /></g>
<g transform="translate(0 87) rotate(380) scale(9 6)"><rect fill="#000000" fill-opacity="0.501961" x="-0.5" y="-0.5" width="1" height="1" /></g>
<g transform="translate(155 98) rotate(90) scale(13 27)"><rect fill="#5498c2" fill-opacity="0.501961" x="-0.5" y="-0.5" width="1" height="1" /></g>
<g transform="translate(148 79) rotate(231) scale(10 15)"><rect fill="#428db9" fill-opacity="0.501961" x="-0.5" y="-0.5" width="1" height="1" /></g>
<g transform="translate(132 127) rotate(178) scale(1 142)"><rect fill="#52504e" fill-opacity="0.501961" x="-0.5" y="-0.5" width="1" height="1" /></g>
<g transform="translate(31 64) rotate(135) scale(17 1)"><rect fill="#000000" fill-opacity="0.501961" x="-0.5" y="-0.5" width="1" height="1" /></g>
<g transform="translate(201 115) rotate(334) scale(1 28)"><rect fill="#bfa58b" fill-opacity="0.501961" x="-0.5" y="-0.5" width="1" height="1" /></g>
<g transform="translate(139 124) rotate(176) scale(1 100)"><rect fill="#565150" fill-opacity="0.501961" x="-0.5" y="-0.5" width="1" height="1" /></g>
<g transform="translate(18 115) rotate(307) scale(24 3)"><rect fill="#4b4638" fill-opacity="0.501961" x="-0.5" y="-0.5" width="1" height="1" /></g>
<g transform="translate(103 156) rotate(106) scale(12 6)"><rect fill="#9bcef9" fill-opacity="0.501961" x="-0.5" y="-0.5" width="1" height="1" /></g>
<g transform="translate(33 69) rotate(335) scale(17 4)"><rect fill="#685d4f" fill-opacity="0.501961" x="-0.5" y="-0.5" width="1" height="1" /></g>
<g transform="translate(107 51) rotate(178) scale(17 22)"><rect fill="#4b98c7" fill-opacity="0.501961" x="-0.5" y="-0.5" width="1" height="1" /></g>
<g transform="translate(224 9) rotate(24) scale(2 14)"><rect fill="#4c7d9e" fill-opacity="0.501961" x="-0.5" y="-0.5" width="1" height="1" /></g>
<g transform="translate(109 95) rotate(277) scale(34 12)"><rect fill="#67acd6" fill-opacity="0.501961" x="-0.5" y="-0.5" width="1" height="1" /></g>
<g transform="translate(121 48) rotate(285) scale(6 10)"><rect fill="#d1e3f0" fill-opacity="0.501961" x="-0.5" y="-0.5" width="1" height="1" /></g>
<g transform="translate(234 39) rotate(31) scale(29 23)"><rect fill="#19191a" fill-opacity="0.501961" x="-0.5" y="-0.5" width="1" height="1" /></g>
<g transform="translate(25 60) rotate(155) scale(5 12)"><rect fill="#76766d" fill-opacity="0.501961" x="-0.5" y="-0.5" width="1" height="1" /></g>
<g transform="translate(68 89) rotate(261) scale(8 1)"><rect fill="#8d816e" fill-opacity="0.501961" x="-0.5" y="-0.5" width="1" height="1" /></g>
<g transform="translate(220 135) rotate(208) scale(1 7)"><rect fill="#afc8d8" fill-opacity="0.501961" x="-0.5" y="-0.5" width="1" height="1" /></g>
<g transform="translate(155 139) rotate(286) scale(11 14)"><rect fill="#5ea4d1" fill-opacity="0.501961" x="-0.5" y="-0.5" width="1" height="1" /></g>
<g transform="translate(183 25) rotate(-2) scale(31 22)"><rect fill="#3279ab" fill-opacity="0.501961" x="-0.5" y="-0.5" width="1" height="1" /></g>
<g transform="translate(105 136) rotate(189) scale(8 28)"><rect fill="#86bde3" fill-opacity="0.501961" x="-0.5" y="-0.5" width="1" height="1" /></g>
<g transform="translate(255 90) rotate(138) scale(17 31)"><rect fill="#000302" fill-opacity="0.501961" x="-0.5" y="-0.5" width="1" height="1" /></g>
<g transform="translate(202 169) rotate(177) scale(2 12)"><rect fill="#3c80ae" fill-opacity="0.501961" x="-0.5" y="-0.5" width="1" height="1" /></g>
<g transform="translate(123 65) rotate(0) scale(5 24)"><rect fill="#2d3332" fill-opacity="0.501961" x="-0.5" y="-0.5" width="1" height="1" /></g>
<g transform="translate(0 57) rotate(385) scale(36 24)"><rect fill="#1b1813" fill-opacity="0.501961" x="-0.5" y="-0.5" width="1" height="1" /></g>
<g transform="translate(175 157) rotate(108) scale(43 13)"><rect fill="#16181b" fill-opacity="0.501961" x="-0.5" y="-0.5" width="1" height="1" /></g>
<g transform="translate(118 82) rotate(12) scale(2 25)"><rect fill="#665f56" fill-opacity="0.501961" x="-0.5" y="-0.5" width="1" height="1" /></g>
<g transform="translate(51 45) rotate(221) scale(4 17)"><rect fill="#655a4d" fill-opacity="0.501961" x="-0.5" y="-0.5" width="1" height="1" /></g>
<g transform="translate(166 140) rotate(189) scale(7 32)"><rect fill="#242425" fill-opacity="0.501961" x="-0.5" y="-0.5" width="1" height="1" /></g>
<g transform="translate(255 8) rotate(30) scale(64 18)"><rect fill="#1c1a1a" fill-opacity="0.501961" x="-0.5" y="-0.5" width="1" height="1" /></g>
<g transform="translate(164 162) rotate(307) scale(53 4)"><rect fill="#1b2329" fill-opacity="0.501961" x="-0.5" y="-0.5" width="1" height="1" /></g>
<g transform="translate(141 54) rotate(359) scale(8 31)"><rect fill="#68a1c5" fill-opacity="0.501961" x="-0.5" y="-0.5" width="1" height="1" /></g>
<g transform="translate(44 116) rotate(77) scale(32 32)"><rect fill="#1e2323" fill-opacity="0.501961" x="-0.5" y="-0.5" width="1" height="1" /></g>
<g transform="translate(13 18) rotate(59) scale(8 15)"><rect fill="#6c6d68" fill-opacity="0.501961" x="-0.5" y="-0.5" width="1" height="1" /></g>
<g transform="translate(70 57) rotate(77) scale(18 10)"><rect fill="#87bfe4" fill-opacity="0.501961" x="-0.5" y="-0.5" width="1" height="1" /></g>
<g transform="translate(203 125) rotate(245) scale(13 1)"><rect fill="#fffff5" fill-opacity="0.501961" x="-0.5" y="-0.5" width="1" height="1" /></g>
<g transform="translate(51 169) rotate(296) scale(14 1)"><rect fill="#3575a0" fill-opacity="0.501961" x="-0.5" y="-0.5" width="1" height="1" /></g>
<g transform="translate(48 106) rotate(204) scale(2 18)"><rect fill="#0d496f" fill-opacity="0.501961" x="-0.5" y="-0.5" width="1" height="1" /></g>
<g transform="translate(190 104) rotate(242) scale(11 3)"><rect fill="#3e484c" fill-opacity="0.501961" x="-0.5" y="-0.5" width="1" height="1" /></g>
<g transform="translate(170 142) rotate(200) scale(1 20)"><rect fill="#b7aea4" fill-opacity="0.501961" x="-0.5" y="-0.5" width="1" height="1" /></g>
<g transform="translate(86 55) rotate(62) scale(83 20)"><rect fill="#6cabd4" fill-opacity="0.501961" x="-0.5" y="-0.5" width="1" height="1" /></g>
<g transform="translate(225 156) rotate(179) scale(27 30)"><rect fill="#0e1011" fill-opacity="0.501961" x="-0.5" y="-0.5" width="1" height="1" /></g>
<g transform="translate(124 132) rotate(93) scale(132 1)"><rect fill="#4c4b4c" fill-opacity="0.501961" x="-0.5" y="-0.5" width="1" height="1" /></g>
<g transform="translate(169 122) rotate(270) scale(19 2)"><rect fill="#2a1d14" fill-opacity="0.501961" x="-0.5" y="-0.5" width="1" height="1" /></g>
<g transform="translate(117 58) rotate(91) scale(19 7)"><rect fill="#79afd0" fill-opacity="0.501961" x="-0.5" y="-0.5" width="1" height="1" /></g>
<g transform="translate(168 92) rotate(113) scale(3 14)"><rect fill="#a2c5df" fill-opacity="0.501961" x="-0.5" y="-0.5" width="1" height="1" /></g>
<g transform="translate(9 8) rotate(160) scale(1 50)"><rect fill="#121210" fill-opacity="0.501961" x="-0.5" y="-0.5" width="1" height="1" /></g>
<g transform="translate(185 93) rotate(118) scale(11 5)"><rect fill="#f8dac7" fill-opacity="0.501961" x="-0.5" y="-0.5" width="1" height="1" /></g>
<g transform="translate(31 54) rotate(167) scale(4 13)"><rect fill="#76766f" fill-opacity="0.501961" x="-0.5" y="-0.5" width="1" height="1" /></g>
<g transform="translate(226 90) rotate(205) scale(18 49)"><rect fill="#161719" fill-opacity="0.501961" x="-0.5" y="-0.5" width="1" height="1" /></g>
<g transform="translate(223 3) rotate(288) scale(29 1)"><rect fill="#000000" fill-opacity="0.501961" x="-0.5" y="-0.5" width="1" height="1" /></g>
<g transform="translate(61 81) rotate(250) scale(8 1)"><rect fill="#3f7898" fill-opacity="0.501961" x="-0.5" y="-0.5" width="1" height="1" /></g>
<g transform="translate(36 149) rotate(374) scale(3 6)"><rect fill="#615a4f" fill-opacity="0.501961" x="-0.5" y="-0.5" width="1" height="1" /></g>
<g transform="translate(21 123) rotate(117) scale(26 3)"><rect fill="#000000" fill-opacity="0.501961" x="-0.5" y="-0.5" width="1" height="1" /></g>
<g transform="translate(121 145) rotate(275) scale(56 1)"><rect fill="#000d15" fill-opacity="0.501961" x="-0.5" y="-0.5" width="1" height="1" /></g>
<g transform="translate(147 56) rotate(35) scale(21 8)"><rect fill="#3b84b2" fill-opacity="0.501961" x="-0.5" y="-0.5" width="1" height="1" /></g>
<g transform="translate(185 118) rotate(249) scale(11 3)"><rect fill="#767e80" fill-opacity="0.501961" x="-0.5" y="-0.5" width="1" height="1" /></g>
<g transform="translate(86 0) rotate(372) scale(41 29)"><rect fill="#4c95c9" fill-opacity="0.501961" x="-0.5" y="-0.5" width="1" height="1" /></g>
<g transform="translate(230 58) rotate(20) scale(1 17)"><rect fill="#000000" fill-opacity="0.501961" x="-0.5" y="-0.5" width="1" height="1" /></g>
<g transform="translate(185 106) rotate(333) scale(6 8)"><rect fill="#fffff7" fill-opacity="0.501961" x="-0.5" y="-0.5" width="1" height="1" /></g>
<g transform="translate(46 169) rotate(264) scale(15 1)"><rect fill="#6f6657" fill-opacity="0.501961" x="-0.5" y="-0.5" width="1" height="1" /></g>
<g transform="translate(249 22) rotate(297) scale(11 5)"><rect fill="#4b728f" fill-opacity="0.501961" x="-0.5" y="-0.5" width="1" height="1" /></g>
<g transform="translate(206 23) rotate(284) scale(93 6)"><rect fill="#191717" fill-opacity="0.501961" x="-0.5" y="-0.5" width="1" height="1" /></g>
<g transform="translate(88 87) rotate(139) scale(20 31)"><rect fill="#7bb7de" fill-opacity="0.501961" x="-0.5" y="-0.5" width="1" height="1" /></g>
<g transform="translate(82 120) rotate(106) scale(29 1)"><rect fill="#282118" fill-opacity="0.501961" x="-0.5" y="-0.5" width="1" height="1" /></g>
<g transform="translate(41 80) rotate(70) scale(9 3)"><rect fill="#527384" fill-opacity="0.501961" x="-0.5" y="-0.5" width="1" height="1" /></g>
<g transform="translate(104 23) rotate(241) scale(5 25)"><rect fill="#76a7cc" fill-opacity="0.501961" x="-0.5" y="-0.5" width="1" height="1" /></g>
<g transform="translate(85 121) rotate(-5) scale(2 11)"><rect fill="#7e776e" fill-opacity="0.501961" x="-0.5" y="-0.5" width="1" height="1" /></g>
<g transform="translate(205 157) rotate(161) scale(8 22)"><rect fill="#100f0f" fill-opacity="0.501961" x="-0.5" y="-0.5" width="1" height="1" /></g>
<g transform="translate(55 125) rotate(291) scale(15 1)"><rect fill="#125684" fill-opacity="0.501961" x="-0.5" y="-0.5" width="1" height="1" /></g>
<g transform="translate(197 121) rotate(-64) scale(7 1)"><rect fill="#515352" fill-opacity="0.501961" x="-0.5" y="-0.5" width="1" height="1" /></g>
<g transform="translate(40 86) rotate(121) scale(10 7)"><rect fill="#00263d" fill-opacity="0.501961" x="-0.5" y="-0.5" width="1" height="1" /></g>
<g transform="translate(33 61) rotate(316) scale(20 1)"><rect fill="#000100" fill-opacity="0.501961" x="-0.5" y="-0.5" width="1" height="1" /></g>
<g transform="translate(170 111) rotate(247) scale(11 1)"><rect fill="#e8cfb5" fill-opacity="0.501961" x="-0.5" y="-0.5" width="1" height="1" /></g>
<g transform="translate(195 38) rotate(137) scale(5 1)"><rect fill="#000000" fill-opacity="0.501961" x="-0.5" y="-0.5" width="1" height="1" /></g>
<g transform="translate(178 84) rotate(-66) scale(10 12)"><rect fill="#4d8fbd" fill-opacity="0.501961" x="-0.5" y="-0.5" width="1" height="1" /></g>
<g transform="translate(158 168) rotate(108) scale(15 3)"><rect fill="#161d25" fill-opacity="0.501961" x="-0.5" y="-0.5" width="1" height="1" /></g>
<g transform="translate(212 39) rotate(113) scale(8 8)"><rect fill="#315e79" fill-opacity="0.501961" x="-0.5" y="-0.5" width="1" height="1" /></g>
<g transform="translate(23 20) rotate(249) scale(78 1)"><rect fill="#11110d" fill-opacity="0.501961" x="-0.5" y="-0.5" width="1" height="1" /></g>
<g transform="translate(183 122) rotate(69) scale(16 2)"><rect fill="#fffef1" fill-opacity="0.501961" x="-0.5" y="-0.5" width="1" height="1" /></g>
<g transform="translate(163 102) rotate(248) scale(5 17)"><rect fill="#3383b6" fill-opacity="0.501961" x="-0.5" y="-0.5" width="1" height="1" /></g>
<g transform="translate(160 72) rotate(20) scale(34 1)"><rect fill="#c0d3e2" fill-opacity="0.501961" x="-0.5" y="-0.5" width="1" height="1" /></g>
<g transform="translate(134 29) rotate(354) scale(16 31)"><rect fill="#4087b7" fill-opacity="0.501961" x="-0.5" y="-0.5" width="1" height="1" /></g>
<g transform="translate(172 119) rotate(253) scale(17 1)"><rect fill="#ffebd1" fill-opacity="0.501961" x="-0.5" y="-0.5" width="1" height="1" /></g>
<g transform="translate(179 119) rotate(330) scale(1 40)"><rect fill="#f0e7e0" fill-opacity="0.501961" x="-0.5" y="-0.5" width="1" height="1" /></g>
<g transform="translate(195 108) rotate(257) scale(5 5)"><rect fill="#ffffff" fill-opacity="0.501961" x="-0.5" y="-0.5" width="1" height="1" /></g>
<g transform="translate(253 32) rotate(292) scale(56 6)"><rect fill="#141415" fill-opacity="0.501961" x="-0.5" y="-0.5" width="1" height="1" /></g>
<g transform="translate(51 63) rotate(240) scale(6 10)"><rect fill="#3d596b" fill-opacity="0.501961" x="-0.5" y="-0.5" width="1" height="1" /></g>
<g transform="translate(196 134) rotate(157) scale(5 17)"><rect fill="#fffff5" fill-opacity="0.501961" x="-0.5" y="-0.5" width="1" height="1" /></g>
<g transform="translate(4 91) rotate(143) scale(10 1)"><rect fill="#625e52" fill-opacity="0.501961" x="-0.5" y="-0.5" width="1" height="1" /></g>
<g transform="translate(135 152) rotate(177) scale(1 89)"><rect fill="#081419" fill-opacity="0.501961" x="-0.5" y="-0.5" width="1" height="1" /></g>
<g transform="translate(189 154) rotate(159) scale(1 12)"><rect fill="#33698d" fill-opacity="0.501961" x="-0.5" y="-0.5" width="1" height="1" /></g>
<g transform="translate(55 52) rotate(165) scale(1 59)"><rect fill="#131818" fill-opacity="0.501961" x="-0.5" y="-0.5" width="1" height="1" /></g>
<g transform="translate(154 148) rotate(172) scale(11 26)"><rect fill="#6baede" fill-opacity="0.501961" x="-0.5" y="-0.5" width="1" height="1" /></g>
<g transform="translate(240 22) rotate(24) scale(5 13)"><rect fill="#325a77" fill-opacity="0.501961" x="-0.5" y="-0.5" width="1" height="1" /></g>
<g transform="translate(104 169) rotate(165) scale(1 141)"><rect fill="#9bcdf1" fill-opacity="0.501961" x="-0.5" y="-0.5" width="1" height="1" /></g>
<g transform="translate(6 169) rotate(218) scale(9 17)"><rect fill="#655e50" fill-opacity="0.501961" x="-0.5" y="-0.5" width="1" height="1" /></g>
<g transform="translate(210 126) rotate(108) scale(21 3)"><rect fill="#18181a" fill-opacity="0.501961" x="-0.5" y="-0.5" width="1" height="1" /></g>
<g transform="translate(186 56) rotate(113) scale(30 9)"><rect fill="#3b81b1" fill-opacity="0.501961" x="-0.5" y="-0.5" width="1" height="1" /></g>
<g transform="translate(27 55) rotate(337) scale(1 19)"><rect fill="#0c0d0a" fill-opacity="0.501961" x="-0.5" y="-0.5" width="1" height="1" /></g>
<g transform="translate(29 27) rotate(123) scale(26 11)"><rect fill="#302b25" fill-opacity="0.501961" x="-0.5" y="-0.5" width="1" height="1" /></g>
<g transform="translate(41 169) rotate(91) scale(20 6)"><rect fill="#000000" fill-opacity="0.501961" x="-0.5" y="-0.5" width="1" height="1" /></g>
<g transform="translate(61 141) rotate(290) scale(16 1)"><rect fill="#165178" fill-opacity="0.501961" x="-0.5" y="-0.5" width="1" height="1" /></g>
<g transform="translate(41 101) rotate(119) scale(79 8)"><rect fill="#2f281f" fill-opacity="0.501961" x="-0.5" y="-0.5" width="1" height="1" /></g>
<g transform="translate(58 19) rotate(166) scale(4 26)"><rect fill="#83b8df" fill-opacity="0.501961" x="-0.5" y="-0.5" width="1" height="1" /></g>
<g transform="translate(57 128) rotate(292) scale(15 1)"><rect fill="#000000" fill-opacity="0.501961" x="-0.5" y="-0.5" width="1" height="1" /></g>
<g transform="translate(230 114) rotate(207) scale(3 1)"><rect fill="#3177a5" fill-opacity="0.501961" x="-0.5" y="-0.5" width="1" height="1" /></g>
<g transform="translate(145 103) rotate(353) scale(2 52)"><rect fill="#52a0d1" fill-opacity="0.501961" x="-0.5" y="-0.5" width="1" height="1" /></g>
<g transform="translate(128 55) rotate(373) scale(3 14)"><rect fill="#2d353a" fill-opacity="0.501961" x="-0.5" y="-0.5" width="1" height="1" /></g>
<g transform="translate(152 85) rotate(357) scale(7 3)"><rect fill="#ffffff" fill-opacity="0.501961" x="-0.5" y="-0.5" width="1" height="1" /></g>
<g transform="translate(11 78) rotate(154) scale(1 22)"><rect fill="#000000" fill-opacity="0.501961" x="-0.5" y="-0.5" width="1" height="1" /></g>
<g transform="translate(130 69) rotate(154) scale(13 19)"><rect fill="#2d3638" fill-opacity="0.501961" x="-0.5" y="-0.5" width="1" height="1" /></g>
<g transform="translate(187 74) rotate(103) scale(32 1)"><rect fill="#578aae" fill-opacity="0.501961" x="-0.5" y="-0.5" width="1" height="1" /></g>
<g transform="translate(49 113) rotate(214) scale(1 12)"><rect fill="#000000" fill-opacity="0.501961" x="-0.5" y="-0.5" width="1" height="1" /></g>
<g transform="translate(112 132) rotate(276) scale(37 1)"><rect fill="#343330" fill-opacity="0.501961" x="-0.5" y="-0.5" width="1" height="1" /></g>
<g transform="translate(147 99) rotate(205) scale(7 4)"><rect fill="#8fb9d7" fill-opacity="0.501961" x="-0.5" y="-0.5" width="1" height="1" /></g>
<g transform="translate(47 90) rotate(148) scale(4 7)"><rect fill="#61584a" fill-opacity="0.501961" x="-0.5" y="-0.5" width="1" height="1" /></g>
<g transform="translate(10 56) rotate(254) scale(103 7)"><rect fill="#201d1b" fill-opacity="0.501961" x="-0.5" y="-0.5" width="1" height="1" /></g>
<g transform="translate(139 162) rotate(267) scale(80 1)"><rect fill="#06141b" fill-opacity="0.501961" x="-0.5" y="-0.5" width="1" height="1" /></g>
<g transform="translate(138 61) rotate(189) scale(1 11)"><rect fill="#abc9e0" fill-opacity="0.501961" x="-0.5" y="-0.5" width="1" height="1" /></g>
<g transform="translate(59 99) rotate(251) scale(19 1)"><rect fill="#756a5b" fill-opacity="0.501961" x="-0.5" y="-0.5" width="1" height="1" /></g>
<g transform="translate(203 59) rotate(249) scale(3 4)"><rect fill="#376f93" fill-opacity="0.501961" x="-0.5" y="-0.5" width="1" height="1" /></g>
<g transform="translate(125 169) rotate(90) scale(80 1)"><rect fill="#00060d" fill-opacity="0.501961" x="-0.5" y="-0.5" width="1" height="1" /></g>
<g transform="translate(52 53) rotate(329) scale(22 5)"><rect fill="#2b221d" fill-opacity="0.501961" x="-0.5" y="-0.5" width="1" height="1" /></g>
<g transform="translate(0 156) rotate(291) scale(18 10)"><rect fill="#050400" fill-opacity="0.501961" x="-0.5" y="-0.5" width="1" height="1" /></g>
<g transform="translate(191 107) rotate(112) scale(7 1)"><rect fill="#323939" fill-opacity="0.501961" x="-0.5" y="-0.5" width="1" height="1" /></g>
<g transform="translate(215 31) rotate(25) scale(1 26)"><rect fill="#121211" fill-opacity="0.501961" x="-0.5" y="-0.5" width="1" height="1" /></g>
<g transform="translate(64 140) rotate(114) scale(19 1)"><rect fill="#000000" fill-opacity="0.501961" x="-0.5" y="-0.5" width="1" height="1" /></g>
<g transform="translate(0 100) rotate(136) scale(30 3)"><rect fill="#000000" fill-opacity="0.501961" x="-0.5" y="-0.5" width="1" height="1" /></g>
<g transform="translate(222 104) rotate(60) scale(95 1)"><rect fill="#030606" fill-opacity="0.501961" x="-0.5" y="-0.5" width="1" height="1" /></g>
<g transform="translate(36 5) rotate(68) scale(24 1)"><rect fill="#0a0906" fill-opacity="0.501961" x="-0.5" y="-0.5" width="1" height="1" /></g>
<g transform="translate(175 119) rotate(141) scale(1 11)"><rect fill="#695842" fill-opacity="0.501961" x="-0.5" y="-0.5" width="1" height="1" /></g>
<g transform="translate(152 167) rotate(277) scale(5 5)"><rect fill="#b0d2ec" fill-opacity="0.501961" x="-0.5" y="-0.5" width="1" height="1" /></g>
<g transform="translate(228 62) rotate(276) scale(6 12)"><rect fill="#000100" fill-opacity="0.501961" x="-0.5" y="-0.5" width="1" height="1" /></g>
<g transform="translate(161 122) rotate(90) scale(7 8)"><rect fill="#80b2d5" fill-opacity="0.501961" x="-0.5" y="-0.5" width="1" height="1" /></g>
<g transform="translate(134 49) rotate(373) scale(5 6)"><rect fill="#aac7de" fill-opacity="0.501961" x="-0.5" y="-0.5" width="1" height="1" /></g>
<g transform="translate(90 165) rotate(80) scale(12 22)"><rect fill="#201f24" fill-opacity="0.501961" x="-0.5" y="-0.5" width="1" height="1" /></g>
<g transform="translate(38 0) rotate(77) scale(22 3)"><rect fill="#38586e" fill-opacity="0.501961" x="-0.5" y="-0.5" width="1" height="1" /></g>
<g transform="translate(105 162) rotate(105) scale(21 1)"><rect fill="#a7ceed" fill-opacity="0.501961" x="-0.5" y="-0.5" width="1" height="1" /></g>
<g transform="translate(124 42) rotate(178) scale(7 9)"><rect fill="#76abd0" fill-opacity="0.501961" x="-0.5" y="-0.5" width="1" height="1" /></g>
<g transform="translate(67 152) rotate(205) scale(1 14)"><rect fill="#154e73" fill-opacity="0.501961" x="-0.5" y="-0.5" width="1" height="1" /></g>
<g transform="translate(117 153) rotate(98) scale(34 1)"><rect fill="#01141d" fill-opacity="0.501961" x="-0.5" y="-0.5" width="1" height="1" /></g>
<g transform="translate(196 101) rotate(336) scale(1 42)"><rect fill="#9b7a5c" fill-opacity="0.501961" x="-0.5" y="-0.5" width="1" height="1" /></g>
<g transform="translate(184 111) rotate(305) scale(2 1)"><rect fill="#282324" fill-opacity="0.501961" x="-0.5" y="-0.5" width="1" height="1" /></g>
<g transform="translate(89 139) rotate(169) scale(1 50)"><rect fill="#585149" fill-opacity="0.501961" x="-0.5" y="-0.5" width="1" height="1" /></g>
<g transform="translate(117 31) rotate(277) scale(15 28)"><rect fill="#488dba" fill-opacity="0.501961" x="-0.5" y="-0.5" width="1" height="1" /></g>
<g transform="translate(164 100) rotate(309) scale(7 16)"><rect fill="#448cba" fill-opacity="0.501961" x="-0.5" y="-0.5" width="1" height="1" /></g>
<g transform="translate(109 148) rotate(283) scale(21 1)"><rect fill="#62554b" fill-opacity="0.501961" x="-0.5" y="-0.5" width="1" height="1" /></g>
<g transform="translate(192 121) rotate(201) scale(6 23)"><rect fill="#fcf1e5" fill-opacity="0.501961" x="-0.5" y="-0.5" width="1" height="1" /></g>
<g transform="translate(175 107) rotate(260) scale(13 1)"><rect fill="#fff3e2" fill-opacity="0.501961" x="-0.5" y="-0.5" width="1" height="1" /></g>
<g transform="translate(71 114) rotate(160) scale(1 7)"><rect fill="#48687a" fill-opacity="0.501961" x="-0.5" y="-0.5" width="1" height="1" /></g>
<g transform="translate(192 169) rotate(247) scale(18 15)"><rect fill="#0c0c0c" fill-opacity="0.501961" x="-0.5" y="-0.5" width="1" height="1" /></g>
<g transform="translate(81 108) rotate(367) scale(3 11)"><rect fill="#685e53" fill-opacity="0.501961" x="-0.5" y="-0.5" width="1" height="1" /></g>
<g transform="translate(144 138) rotate(86) scale(49 3)"><rect fill="#24211f" fill-opacity="0.501961" x="-0.5" y="-0.5" width="1" height="1" /></g>
<g transform="translate(20 63) rotate(66) scale(71 2)"><rect fill="#3d362f" fill-opacity="0.501961" x="-0.5" y="-0.5" width="1" height="1" /></g>
<g transform="translate(24 158) rotate(257) scale(49 23)"><rect fill="#161414" fill-opacity="0.501961" x="-0.5" y="-0.5" width="1" height="1" /></g>
<g transform="translate(221 41) rotate(290) scale(25 8)"><rect fill="#212122" fill-opacity="0.501961" x="-0.5" y="-0.5" width="1" height="1" /></g>
<g transform="translate(134 76) rotate(87) scale(41 3)"><rect fill="#1a2529" fill-opacity="0.501961" x="-0.5" y="-0.5" width="1" height="1" /></g>
</g>
</svg>