<svg height="680" width="1024" xmlns="http://www.w3.org/2000/svg"><path d="m0 0h1024v680h-1024z" fill="#3c515f"/><g fill-opacity=".501961"><path d="m-.5-.5h1v1h-1z" fill="#81caf9" transform="matrix(-217.2022364 -757.4742164 434.49028656 -124.58808484 490 182)"/><path d="m-.5-.5h1v1h-1z" transform="matrix(-14.03173476 -803.87754692 239.96344684 -4.18857756 934 350)"/><path d="m-.5-.5h1v1h-1z" fill="#140000" transform="matrix(111.84650788 5.86162708 -27.84272872 531.27091248 514 486)"/><path d="m-.5-.5h1v1h-1z" fill="#160000" transform="matrix(257.1991478 706.64885084 -432.25860556 157.32926592 62 378)"/><path d="m-.5-.5h1v1h-1z" fill="#ffffe3" transform="matrix(84.68644652 -35.94726384 79.7091502 187.78299012 766 482)"/><path d="m-.5-.5h1v1h-1z" fill="#3f97d5" transform="matrix(-204.77627516 -54.86963756 128.37424636 -479.09920984 702 86)"/><path d="m-.5-.5h1v1h-1z" fill="#86d1ff" transform="matrix(100.13585628 -40.45751208 134.85837364 333.78618764 362 314)"/><path d="m-.5-.5h1v1h-1z" fill="#78d2ff" transform="matrix(-51.9287358 2.72146972 -15.49144304 -295.59434228 618 614)"/><path d="m-.5-.5h1v1h-1z" fill="#bcdcf1" transform="matrix(-134.98627664 16.57423072 -17.54918544 -142.92664584 630 314)"/><path d="m-.5-.5h1v1h-1z" fill="#030000" transform="matrix(-153.33801792 -115.54848444 117.95574452 -156.53255996 738 678)"/><path d="m-.5-.5h1v1h-1z" fill="#251c10" transform="matrix(33.86722208 322.22509408 -123.32071504 12.96152944 526 574)"/><path d="m-.5-.5h1v1h-1z" fill="#030000" transform="matrix(-247.63004408 -154.73642516 148.377394 -237.45346692 998 546)"/><path d="m-.5-.5h1v1h-1z" fill="#bbf6ff" transform="matrix(-12.14194184 -231.68205208 31.95614512 -1.6747506 414 590)"/><path d="m-.5-.5h1v1h-1z" fill="#71b8e9" transform="matrix(143.60376748 -35.80444056 82.25344452 329.90054692 330 202)"/><path d="m-.5-.5h1v1h-1z" fill="#1d6faa" transform="matrix(-300.53385916 -97.64937024 80.34441852 -247.27469424 646 70)"/><path d="m-.5-.5h1v1h-1z" fill="#0a0000" transform="matrix(-71.90352372 35.06969176 -63.12544512 -129.42634268 806 346)"/><path d="m-.5-.5h1v1h-1z" fill="#0e0c01" transform="matrix(196.0700526 301.92140448 -157.67006676 102.3921386 86 526)"/><path d="m-.5-.5h1v1h-1z" fill="#fff2e6" transform="matrix(-39.55417528 -121.73523408 45.6507128 -14.83281572 774 542)"/><path d="m-.5-.5h1v1h-1z" fill="#5dabda" transform="matrix(60.71021372 -285.6190994 144.76584492 30.77093024 418 210)"/><path d="m-.5-.5h1v1h-1z" fill="#250900" transform="matrix(-16.38527964 187.28460324 -23.90867276 -2.09173784 670 554)"/><path d="m-.5-.5h1v1h-1z" fill="#391100" transform="matrix(-45.60998592 -149.18354192 15.30087608 -4.67794728 342 462)"/><path d="m-.5-.5h1v1h-1z" fill="#131313" transform="matrix(8.79467316 -251.8464884 331.79775456 11.58663292 942 262)"/><path d="m-.5-.5h1v1h-1z" fill="#3e2b1d" transform="matrix(-31.76147684 -3.899819 48.74773736 -397.01846064 446 650)"/><path d="m-.5-.5h1v1h-1z" fill="#bfbdbd" transform="matrix(114.97079796 -46.4512176 76.41974504 189.14550632 714 390)"/><path d="m-.5-.5h1v1h-1z" fill="#3b7fad" transform="matrix(-6.62383644 -75.71079704 83.68035464 -7.3210824 686 386)"/><path d="m-.5-.5h1v1h-1z" fill="#0e0a0a" transform="matrix(-29.0018492 -13.52378436 163.97588556 -351.64742136 866 494)"/><path d="m-.5-.5h1v1h-1z" fill="#373526" transform="matrix(75.67985544 356.04572668 -226.93024336 48.23551228 122 146)"/><path d="m-.5-.5h1v1h-1z" fill="#9ad1ff" transform="matrix(-16.70077212 -118.83216824 55.45501184 -7.79369364 402 554)"/><path d="m-.5-.5h1v1h-1z" fill="#8ec7f1" transform="matrix(-64.29526316 22.13863452 -49.48635948 -143.71882348 262 66)"/><path d="m-.5-.5h1v1h-1z" fill="#5fabdf" transform="matrix(58.21774356 14.51531372 -51.28744188 205.70269396 642 474)"/><path d="m-.5-.5h1v1h-1z" fill="#220400" transform="matrix(3.5951762 -1.7534846 66.63241432 136.61669504 718 514)"/><path d="m-.5-.5h1v1h-1z" fill="#0f0000" transform="matrix(15.99025324 .55839196 -1.81477384 51.968323 714 402)"/><path d="m-.5-.5h1v1h-1z" fill="#ffffe4" transform="matrix(22.95131416 7.01692092 -40.93203868 133.88266584 734 422)"/><path d="m-.5-.5h1v1h-1z" fill="#4d4c46" transform="matrix(69.30939492 148.63447708 -123.25785904 57.4760836 138 210)"/><path d="m-.5-.5h1v1h-1z" fill="#2d2b21" transform="matrix(-83.9872064 -1.46600216 2.51314652 -143.97806812 518 350)"/><path d="m-.5-.5h1v1h-1z" fill="#509ccc" transform="matrix(103.54257132 415.28657084 -27.16828032 6.77381308 582 326)"/><path d="m-.5-.5h1v1h-1z" fill="#46799d" transform="matrix(-23.61812504 27.16954488 -48.30141312 -41.98777784 982 78)"/><path d="m-.5-.5h1v1h-1z" fill="#dee9f5" transform="matrix(-33.13817472 14.06632064 -20.31801868 -47.86625236 478 190)"/><path d="m-.5-.5h1v1h-1z" fill="#83c4f9" transform="matrix(-31.30072324 -6.65317412 29.93928348 -140.85325452 622 610)"/><path d="m-.5-.5h1v1h-1z" fill="#91acba" transform="matrix(-11.612251 46.57419488 -7.7623658 -1.93537516 882 550)"/><path d="m-.5-.5h1v1h-1z" fill="#1f1108" transform="matrix(67.4291868 -166.89309384 11.12620624 4.49527912 690 578)"/><path d="m-.5-.5h1v1h-1z" fill="#eee8dc" transform="matrix(-11.612251 46.57419488 -19.40591452 -4.83843792 786 598)"/><path d="m-.5-.5h1v1h-1z" fill="#4893c7" transform="matrix(104.08432688 340.44449312 -221.8627034 67.83023548 386 10)"/><path d="m-.5-.5h1v1h-1z" fill="#e1f4ff" transform="matrix(8.76742292 17.97588092 -140.21187124 68.38589888 674 322)"/><path d="m-.5-.5h1v1h-1z" fill="#1e1a10" transform="matrix(31.4908334 -36.22605984 24.15070656 20.99388892 518 226)"/><path d="m-.5-.5h1v1h-1z" fill="#1e1c15" transform="matrix(187.80433936 -39.91904464 21.62281584 101.72735048 310 678)"/><path d="m-.5-.5h1v1h-1z" fill="#0b0807" transform="matrix(60.11639292 108.45284368 -111.95132252 62.0556314 710 678)"/><path d="m-.5-.5h1v1h-1z" fill="#96d1ff" transform="matrix(19.92389396 1.74311484 -18.82564044 215.1780548 422 570)"/><path d="m-.5-.5h1v1h-1z" fill="#fae9dc" transform="matrix(-51.15854564 22.777252 -40.67366432 -91.35454576 786 482)"/><path d="m-.5-.5h1v1h-1z" fill="#0c1821" transform="matrix(-15.52914272 -57.95554956 7.7274066 -2.07055236 762 410)"/><path d="m-.5-.5h1v1h-1z" fill="#2d2e2f" transform="matrix(99.86295348 -5.23359564 13.81669244 263.63819716 542 590)"/><path d="m-.5-.5h1v1h-1z" fill="#3a6e8d" transform="matrix(25.8885438 -18.80912808 28.21369212 38.83281572 854 154)"/><path d="m-.5-.5h1v1h-1z" fill="#465762" transform="matrix(18.15962 35.64026096 -10.69207828 5.447886 794 502)"/><path d="m-.5-.5h1v1h-1z" fill="#3c7093" transform="matrix(16.26918436 -102.71958744 39.50753364 6.2573786 894 2)"/><path d="m-.5-.5h1v1h-1z" fill="#877c63" transform="matrix(32.35658568 15.78136128 -17.53484588 35.95176184 38 662)"/><path d="m-.5-.5h1v1h-1z" fill="#616660" transform="matrix(-52.09102212 43.70955744 -33.42495572 -39.83431104 58 74)"/><path d="m-.5-.5h1v1h-1z" fill="#191410" transform="matrix(-22.25241252 8.99055824 -149.84263736 -370.87354184 126 146)"/><path d="m-.5-.5h1v1h-1z" fill="#0b0a08" transform="matrix(3.56029092 203.9689298 -175.97319436 3.07162352 942 658)"/><path d="m-.5-.5h1v1h-1z" fill="#dcbea3" transform="matrix(-46.44900396 186.29677944 -3.88118292 -.9676876 694 522)"/><path d="m-.5-.5h1v1h-1z" fill="#1d1a15" transform="matrix(52.97685556 -28.16829376 244.12521264 459.13274828 86 326)"/><path d="m-.5-.5h1v1h-1z" fill="#6d614b" transform="matrix(39.9939078 .69809624 -1.39619252 79.9878156 238 410)"/><path d="m-.5-.5h1v1h-1z" fill="#2b2826" transform="matrix(17.30495168 53.25916492 -3.80422608 1.23606796 742 478)"/><path d="m-.5-.5h1v1h-1z" fill="#4c4331" transform="matrix(42.2907982 183.18157216 -35.07732232 8.09823796 346 514)"/><path d="m-.5-.5h1v1h-1z" fill="#ced7e2" transform="matrix(-38.10511776 -22 40 -69.28203232 650 270)"/><path d="m-.5-.5h1v1h-1z" fill="#3278a8" transform="matrix(-285.31695488 -92.70509832 75.40014664 -232.05778996 650 58)"/><path d="m-.5-.5h1v1h-1z" fill="#090503" transform="matrix(55.90491376 -208.63997848 11.59110992 3.10582856 786 214)"/><path d="m-.5-.5h1v1h-1z" fill="#377298" transform="matrix(-27.23943 -53.46039144 17.82013048 -9.07981 834 434)"/><path d="m-.5-.5h1v1h-1z" fill="#1d1c1a" transform="matrix(19.7956928 -85.74456572 31.17984208 7.19843372 670 546)"/><path d="m-.5-.5h1v1h-1z" fill="#2e7dae" transform="matrix(56 0 0 28 610 310)"/><path d="m-.5-.5h1v1h-1z" fill="#91c7ec" transform="matrix(-47.1181048 9.15883176 -38.92503504 -200.25194544 390 502)"/><path d="m-.5-.5h1v1h-1z" fill="#0f0f0e" transform="matrix(-200.2717126 -80.91502416 121.37253628 -300.40756888 998 378)"/><path d="m-.5-.5h1v1h-1z" fill="#fff" transform="matrix(-11.27631144 4.10424172 -58.82746464 -161.62713076 770 494)"/><path d="m-.5-.5h1v1h-1z" fill="#5595c2" transform="matrix(-24.72135956 76.08452132 -45.6507128 -14.83281572 718 346)"/><path d="m-.5-.5h1v1h-1z" fill="#2b383d" transform="matrix(-27.14933872 -48.9787036 3.49847884 -1.93923848 774 578)"/><path d="m-.5-.5h1v1h-1z" fill="#8dc3e7" transform="matrix(-29.99831504 -120.31667004 42.69301196 -10.6445634 310 318)"/><path d="m-.5-.5h1v1h-1z" fill="#3b342d" transform="matrix(7.01393836 14.38070476 -35.95176184 17.53484588 246 158)"/><path d="m-.5-.5h1v1h-1z" fill="#2b5e81" transform="matrix(35.55678028 -5.63164076 5.00590288 31.60602688 918 218)"/><path d="m-.5-.5h1v1h-1z" fill="#5fa6d1" transform="matrix(110.62109416 17.52066008 -15.01770864 94.81808068 426 254)"/><path d="m-.5-.5h1v1h-1z" fill="#16100e" transform="matrix(-49.4450652 -26.29040752 86.38276756 -162.46235708 934 50)"/><path d="m-.5-.5h1v1h-1z" fill="#3e6682" transform="matrix(-42.06888372 -30.56483312 18.80912808 -25.8885438 982 106)"/><path d="m-.5-.5h1v1h-1z" fill="#20272b" transform="matrix(-35.08460456 -114.75657072 118.58178972 -36.2540914 834 354)"/><path d="m-.5-.5h1v1h-1z" fill="#fff9de" transform="matrix(-11.69244076 2.69941264 -13.49706328 -58.46220388 754 362)"/><path d="m-.5-.5h1v1h-1z" fill="#539dce" transform="matrix(71.8246116 -5.02246612 11.7190876 167.59076044 618 462)"/><path d="m-.5-.5h1v1h-1z" fill="#fff" transform="matrix(-15.62924512 36.82019412 -7.36403884 -3.12584904 818 542)"/><path d="m-.5-.5h1v1h-1z" fill="#231b16" transform="matrix(55.1581922 221.2274256 -34.93064616 8.70918824 190 38)"/><path d="m-.5-.5h1v1h-1z" fill="#32729a" transform="matrix(14.62707404 -13.6399672 21.82394752 23.40331844 818 258)"/><path d="m-.5-.5h1v1h-1z" fill="#4f8fb6" transform="matrix(-83.69297344 -27.19349552 19.77708764 -60.86761704 594 226)"/><path d="m-.5-.5h1v1h-1z" fill="#fdeee1" transform="matrix(-18.7721358 -118.52260088 3.95075336 -.62573788 702 422)"/><path d="m-.5-.5h1v1h-1z" fill="#77b0d9" transform="matrix(79.40369212 -9.74954748 42.89800888 349.37624536 294 126)"/><path d="m-.5-.5h1v1h-1z" fill="#fff" transform="matrix(-40.13721036 -104.56100776 3.73432172 -1.4334718 734 498)"/><path d="m-.5-.5h1v1h-1z" fill="#040300" transform="matrix(47.1814506 -105.97127308 3.65418184 1.62694656 978 90)"/><path d="m-.5-.5h1v1h-1z" fill="#b6ccde" transform="matrix(-16.41696688 45.1052458 -26.3113934 -9.576564 662 450)"/><path d="m-.5-.5h1v1h-1z" fill="#695f52" transform="matrix(79.88874736 25.95742752 -13.59674776 41.84648672 86 178)"/><path d="m-.5-.5h1v1h-1z" fill="#0d0c0a" transform="matrix(264.6418738 -123.40453244 25.35709572 54.37846724 2 622)"/><path d="m-.5-.5h1v1h-1z" fill="#433c35" transform="matrix(12.27713936 -175.57127284 27.9317934 1.95318128 450 598)"/><path d="m-.5-.5h1v1h-1z" fill="#090d0e" transform="matrix(176.5144088 -137.90817048 9.8505836 12.60817204 70 118)"/><path d="m-.5-.5h1v1h-1z" fill="#3c2c1d" transform="matrix(54.86963756 204.77627516 -3.86370332 1.0352762 710 522)"/><path d="m-.5-.5h1v1h-1z" fill="#417da4" transform="matrix(13.01557256 29.23345464 -10.96254548 4.88083972 846 614)"/><path d="m-.5-.5h1v1h-1z" fill="#7fbae1" transform="matrix(30.77093024 -144.76584492 54.77626564 11.64305468 418 478)"/><path d="m-.5-.5h1v1h-1z" fill="#3984b6" transform="matrix(57.37828536 17.54230228 -31.57614412 103.28091364 742 210)"/><path d="m-.5-.5h1v1h-1z" fill="#272621" transform="matrix(134.20803412 -71.35967756 127.69626508 240.16174524 290 618)"/><path d="m-.5-.5h1v1h-1z" fill="#1f0600" transform="matrix(-3.75442716 23.70452016 -27.65527352 -4.38016504 714 402)"/><path d="m-.5-.5h1v1h-1z" fill="#525546" transform="matrix(33.70595548 -28.28265484 30.85380528 36.77013328 22 330)"/><path d="m-.5-.5h1v1h-1z" fill="#3d434a" transform="matrix(6.84040288 -18.7938524 15.03508192 5.47232228 802 530)"/><path d="m-.5-.5h1v1h-1z" fill="#343939" transform="matrix(47.93421768 -2.51212588 8.373753 159.78072556 526 290)"/><path d="m-.5-.5h1v1h-1z" fill="#486170" transform="matrix(-20.31801868 -47.86625236 11.04605824 -4.68877356 774 566)"/><path d="m-.5-.5h1v1h-1z" fill="#7eb1d6" transform="matrix(-25.35709572 -54.37846724 25.37661804 -11.83331132 694 362)"/><path d="m-.5-.5h1v1h-1z" fill="#3077a9" transform="matrix(43.45436484 -107.55332712 307.82503972 124.369389 566 30)"/><path d="m-.5-.5h1v1h-1z" fill="#eed3bc" transform="matrix(35.16136068 -102.11600616 3.78207432 1.3022726 706 490)"/><path d="m-.5-.5h1v1h-1z" fill="#100e0b" transform="matrix(14.72807764 -6.25169804 79.7091502 187.78299012 806 418)"/><path d="m-.5-.5h1v1h-1z" fill="#053f65" transform="matrix(15.20332864 49.72784732 -34.4269712 10.52538136 146 22)"/><path d="m-.5-.5h1v1h-1z" fill="#8dcaf7" transform="matrix(23.88639132 194.53904572 -15.88073844 1.94990948 610 674)"/><path d="m-.5-.5h1v1h-1z" fill="#ffffef" transform="matrix(3.78207432 1.3022726 -13.02272616 37.82074304 786 606)"/><path d="m-.5-.5h1v1h-1z" fill="#fffff5" transform="matrix(39.07311284 -92.05048536 11.04605824 4.68877356 770 494)"/><path d="m-.5-.5h1v1h-1z" fill="#aecde5" transform="matrix(36.901505 23.96411756 -8.71422456 13.41872908 534 190)"/><path d="m-.5-.5h1v1h-1z" fill="#151719" transform="matrix(-89.42771396 183.35398544 -32.35658568 -15.78136128 846 546)"/><path d="m-.5-.5h1v1h-1z" fill="#635a51" transform="matrix(-37.50800636 212.71847464 -15.75692404 -2.77837084 462 438)"/><path d="m-.5-.5h1v1h-1z" fill="#435961" transform="matrix(11.34622292 3.90681784 -33.85908808 98.33393188 150 350)"/><path d="m-.5-.5h1v1h-1z" fill="#275875" transform="matrix(22.55262288 -8.20848344 15.04888632 41.34647532 786 338)"/><path d="m-.5-.5h1v1h-1z" fill="#3d3326" transform="matrix(19.40591452 -4.83843792 93.86569548 376.4747418 270 318)"/><path d="m-.5-.5h1v1h-1z" fill="#000100" transform="matrix(-3.6820194 1.56292452 -39.07311284 -92.05048536 62 98)"/><path d="m-.5-.5h1v1h-1z" fill="#121413" transform="matrix(29.28432956 334.72141856 -3.9847788 .34862296 578 530)"/><path d="m-.5-.5h1v1h-1z" fill="#1b1815" transform="matrix(54.46390352 83.8670568 -130.8326086 84.96368948 18 10)"/><path d="m-.5-.5h1v1h-1z" fill="#1a1717" transform="matrix(34.165878 -76.73781844 116.93381856 52.06229032 878 98)"/><path d="m-.5-.5h1v1h-1z" fill="#fffdeb" transform="matrix(52.44492308 129.80573964 -3.7087354 1.49842636 774 402)"/><path d="m-.5-.5h1v1h-1z" fill="#367096" transform="matrix(14.72807764 6.25169804 -12.50339612 29.45615532 862 338)"/><path d="m-.5-.5h1v1h-1z" fill="#bdd6ea" transform="matrix(25.17281564 31.08583844 -99.47468308 80.55301004 662 322)"/><path d="m-.5-.5h1v1h-1z" fill="#cddeed" transform="matrix(-.69798992 19.98781656 -51.968323 -1.81477384 266 74)"/><path d="m-.5-.5h1v1h-1z" fill="#6b6258" transform="matrix(-42.8984888 -35.99610616 12.8557522 -15.32088888 146 134)"/><path d="m-.5-.5h1v1h-1z" fill="#fffaeb" transform="matrix(-53.68923688 -120.5880004 3.65418184 -1.62694656 718 470)"/><path d="m-.5-.5h1v1h-1z" fill="#16130b" transform="matrix(-16.19647592 70.15464468 -19.48740128 -4.49902108 314 422)"/><path d="m-.5-.5h1v1h-1z" fill="#4e4841" transform="matrix(15.58992104 -3.59921688 30.5933434 132.5143288 366 586)"/><path d="m-.5-.5h1v1h-1z" fill="#1d1815" transform="matrix(19.40591452 4.83843792 -42.57825364 170.77204784 782 258)"/><path d="m-.5-.5h1v1h-1z" fill="#91caef" transform="matrix(-38.9748026 8.99804216 -7.19843372 -31.17984208 354 402)"/><path d="m-.5-.5h1v1h-1z" fill="#1d1001" transform="matrix(12.59725904 54.56472364 -3.89748024 .8998042 298 374)"/><path d="m-.5-.5h1v1h-1z" fill="#25628b" transform="matrix(-22.534635 42.38148444 -14.12716148 -7.511545 738 330)"/><path d="m-.5-.5h1v1h-1z" fill="#4d4c4b" transform="matrix(-8.58658396 491.925066 -3.9993908 -.06980964 514 438)"/><path d="m-.5-.5h1v1h-1z" fill="#1f4b67" transform="matrix(13.68080572 37.58770484 -30.07016388 10.9446446 182 142)"/><path d="m-.5-.5h1v1h-1z" fill="#1a150c" transform="matrix(-7.74150064 -31.04946324 3.88118292 -.9676876 714 422)"/><path d="m-.5-.5h1v1h-1z" fill="#070807" transform="matrix(-11.04605824 4.68877356 -23.44386772 -55.2302912 722 538)"/><path d="m-.5-.5h1v1h-1z" fill="#e1f0ff" transform="matrix(7.90150672 -1.25147572 10.01180576 63.2120538 226 2)"/><path d="m-.5-.5h1v1h-1z" fill="#79a2c2" transform="matrix(17.54230228 57.37828536 -30.6017522 9.35589456 682 258)"/><path d="m-.5-.5h1v1h-1z" transform="matrix(33.82893436 12.31272516 -8.20848344 22.55262288 2 350)"/><path d="m-.5-.5h1v1h-1z" fill="#5498c2" transform="matrix(0 52 -108 0 622 394)"/><path d="m-.5-.5h1v1h-1z" fill="#428db9" transform="matrix(-25.17281564 -31.08583844 46.62875768 -37.75922348 594 318)"/><path d="m-.5-.5h1v1h-1z" fill="#52504e" transform="matrix(-3.99756332 .139598 -19.82291412 -567.65398976 530 510)"/><path d="m-.5-.5h1v1h-1z" transform="matrix(-48.08326112 48.08326112 -2.82842712 -2.82842712 126 258)"/><path d="m-.5-.5h1v1h-1z" fill="#bfa58b" transform="matrix(3.5951762 -1.7534846 49.09756844 100.6649332 806 462)"/><path d="m-.5-.5h1v1h-1z" fill="#565150" transform="matrix(-3.9902562 .27902588 -27.90258948 -399.02562012 558 498)"/><path d="m-.5-.5h1v1h-1z" fill="#4b4638" transform="matrix(57.77424224 -76.66900896 9.58362612 7.22178028 74 462)"/><path d="m-.5-.5h1v1h-1z" fill="#9bcef9" transform="matrix(-13.23059308 46.1405614 -23.07028072 -6.61529652 414 626)"/><path d="m-.5-.5h1v1h-1z" fill="#685d4f" transform="matrix(61.62892952 -28.7380418 6.7618922 14.5009246 134 278)"/><path d="m-.5-.5h1v1h-1z" fill="#4b98c7" transform="matrix(-67.95857624 2.37316576 -3.07115572 -87.94639276 430 206)"/><path d="m-.5-.5h1v1h-1z" fill="#4c7d9e" transform="matrix(7.30836368 3.25389316 -22.777252 51.15854564 898 38)"/><path d="m-.5-.5h1v1h-1z" fill="#67acd6" transform="matrix(16.57423072 -134.98627664 47.64221528 5.84972848 438 382)"/><path d="m-.5-.5h1v1h-1z" fill="#d1e3f0" transform="matrix(6.21165708 -23.18221984 38.63703304 10.3527618 486 194)"/><path d="m-.5-.5h1v1h-1z" fill="#19191a" transform="matrix(99.43140688 59.74441668 -47.38350288 78.85939168 938 158)"/><path d="m-.5-.5h1v1h-1z" fill="#76766d" transform="matrix(-18.12615576 8.45236524 -20.28567656 -43.50277376 102 242)"/><path d="m-.5-.5h1v1h-1z" fill="#8d816e" transform="matrix(-5.00590288 -31.60602688 3.95075336 -.62573788 274 358)"/><path d="m-.5-.5h1v1h-1z" fill="#afc8d8" transform="matrix(-3.53179036 -1.87788624 13.14520376 -24.7225326 882 542)"/><path d="m-.5-.5h1v1h-1z" fill="#5ea4d1" transform="matrix(12.12804364 -42.29551464 53.83065496 15.43569192 622 558)"/><path d="m-.5-.5h1v1h-1z" fill="#3279ab" transform="matrix(123.92446256 -4.3275376 3.07115572 87.94639276 734 102)"/><path d="m-.5-.5h1v1h-1z" fill="#86bde3" transform="matrix(-31.60602688 -5.00590288 17.52066008 -110.62109416 422 546)"/><path d="m-.5-.5h1v1h-1z" fill="#000302" transform="matrix(-50.53384812 45.50088124 -82.9721952 -92.14995836 1022 362)"/><path d="m-.5-.5h1v1h-1z" fill="#3c80ae" transform="matrix(-7.98903628 .41868764 -2.51212588 -47.93421768 810 678)"/><path d="m-.5-.5h1v1h-1z" fill="#2d3332" transform="matrix(20 0 0 96 494 262)"/><path d="m-.5-.5h1v1h-1z" fill="#1b1813" transform="matrix(130.50832132 60.85702968 -40.57135312 87.00554756 2 230)"/><path d="m-.5-.5h1v1h-1z" fill="#16181b" transform="matrix(-53.15092304 163.5817208 -49.45493884 -16.06888372 702 630)"/><path d="m-.5-.5h1v1h-1z" fill="#665f56" transform="matrix(7.8251808 1.66329352 -20.79116908 97.81476008 474 330)"/><path d="m-.5-.5h1v1h-1z" fill="#655a4d" transform="matrix(-12.07535328 -10.49694448 44.61201396 -51.32025144 206 182)"/><path d="m-.5-.5h1v1h-1z" fill="#242425" transform="matrix(-27.65527352 -4.38016504 20.02361152 -126.4241076 666 562)"/><path d="m-.5-.5h1v1h-1z" fill="#1c1a1a" transform="matrix(221.70250336 128 -36 62.35382908 1022 34)"/><path d="m-.5-.5h1v1h-1z" fill="#1b2329" transform="matrix(127.58478492 -169.31072812 12.77816816 9.62904036 658 650)"/><path d="m-.5-.5h1v1h-1z" fill="#68a1c5" transform="matrix(31.99512624 -.558477 2.1640984 123.9811142 566 218)"/><path d="m-.5-.5h1v1h-1z" fill="#1e2323" transform="matrix(28.79373496 124.71936828 -124.71936828 28.79373496 178 466)"/><path d="m-.5-.5h1v1h-1z" fill="#6c6d68" transform="matrix(16.4812184 27.42935364 -51.43003804 30.90228448 54 74)"/><path d="m-.5-.5h1v1h-1z" fill="#87bfe4" transform="matrix(16.19647592 70.15464468 -38.9748026 8.99804216 282 230)"/><path d="m-.5-.5h1v1h-1z" fill="#fffff5" transform="matrix(-21.9761496 -47.12800492 3.62523116 -1.69047304 814 502)"/><path d="m-.5-.5h1v1h-1z" fill="#3575a0" transform="matrix(24.54878424 -50.3324666 3.5951762 1.7534846 206 678)"/><path d="m-.5-.5h1v1h-1z" fill="#0d496f" transform="matrix(-7.30836368 -3.25389316 29.28503832 -65.77527296 194 426)"/><path d="m-.5-.5h1v1h-1z" fill="#3e484c" transform="matrix(-20.65674876 -38.84969408 10.59537112 -5.63365876 762 418)"/><path d="m-.5-.5h1v1h-1z" fill="#b7aea4" transform="matrix(-3.75877048 -1.36808056 27.36161148 -75.17540968 682 570)"/><path d="m-.5-.5h1v1h-1z" fill="#6cabd4" transform="matrix(155.86455884 293.13860084 -70.63580744 37.55772504 346 222)"/><path d="m-.5-.5h1v1h-1z" fill="#0e1011" transform="matrix(-107.98355108 1.88485988 -2.09428876 -119.9817234 902 626)"/><path d="m-.5-.5h1v1h-1z" fill="#4c4b4c" transform="matrix(-27.63338488 527.27639436 -3.99451812 -.20934384 498 530)"/><path d="m-.5-.5h1v1h-1z" fill="#2a1d14" transform="matrix(0 -76 8 0 678 490)"/><path d="m-.5-.5h1v1h-1z" fill="#79afd0" transform="matrix(-1.32638288 75.98842484 -27.99573548 -.4886674 470 234)"/><path d="m-.5-.5h1v1h-1z" fill="#a2c5df" transform="matrix(-4.68877356 11.04605824 -51.5482718 -21.8809432 674 370)"/><path d="m-.5-.5h1v1h-1z" fill="#121210" transform="matrix(-3.75877048 1.36808056 -68.40402868 -187.93852416 38 34)"/><path d="m-.5-.5h1v1h-1z" fill="#f8dac7" transform="matrix(-20.65674876 38.84969408 -17.65895184 -9.38943124 742 374)"/><path d="m-.5-.5h1v1h-1z" fill="#76766f" transform="matrix(-15.58992104 3.59921688 -11.69745484 -50.66724336 126 218)"/><path d="m-.5-.5h1v1h-1z" fill="#161719" transform="matrix(-65.25416068 -30.42851484 82.83317932 -177.63632624 906 362)"/><path d="m-.5-.5h1v1h-1z" transform="matrix(35.84597136 -110.32255588 3.80422608 1.23606796 894 14)"/><path d="m-.5-.5h1v1h-1z" fill="#3f7898" transform="matrix(-10.9446446 -30.07016388 3.75877048 -1.36808056 246 326)"/><path d="m-.5-.5h1v1h-1z" fill="#615a4f" transform="matrix(11.64354872 2.90306276 -5.80612548 23.28709744 146 598)"/><path d="m-.5-.5h1v1h-1z" transform="matrix(-47.21501196 92.66467852 -10.69207828 -5.447886 86 494)"/><path d="m-.5-.5h1v1h-1z" fill="#000d15" transform="matrix(19.52288636 -223.14761236 3.9847788 .34862296 486 582)"/><path d="m-.5-.5h1v1h-1z" fill="#3b84b2" transform="matrix(68.80877172 48.18042064 -18.35444596 26.2128654 590 226)"/><path d="m-.5-.5h1v1h-1z" fill="#767e80" transform="matrix(-15.76818976 -41.07753876 11.20296512 -4.3004154 742 474)"/><path d="m-.5-.5h1v1h-1z" fill="#4c95c9" transform="matrix(160.41620652 34.09751728 -24.11775612 113.46512168 346 2)"/><path d="m-.5-.5h1v1h-1z" transform="matrix(3.75877048 1.36808056 -23.25736976 63.8990982 922 234)"/><path d="m-.5-.5h1v1h-1z" fill="#fffff7" transform="matrix(21.3841566 -10.895772 14.527696 28.51220876 742 426)"/><path d="m-.5-.5h1v1h-1z" fill="#6f6657" transform="matrix(-6.2717078 -59.67131372 3.9780876 -.41811384 186 678)"/><path d="m-.5-.5h1v1h-1z" fill="#4b728f" transform="matrix(19.975582 -39.20428708 17.82013048 9.07981 998 90)"/><path d="m-.5-.5h1v1h-1z" fill="#191717" transform="matrix(89.99494516 -360.95001016 23.28709744 5.80612548 826 94)"/><path d="m-.5-.5h1v1h-1z" fill="#7bb7de" transform="matrix(-60.3767664 52.48472232 -81.3513196 -93.58398796 354 350)"/><path d="m-.5-.5h1v1h-1z" fill="#282118" transform="matrix(-31.97393328 111.50635672 -3.8450468 -1.10254944 330 482)"/><path d="m-.5-.5h1v1h-1z" fill="#527384" transform="matrix(12.31272516 33.82893436 -11.27631144 4.10424172 166 322)"/><path d="m-.5-.5h1v1h-1z" fill="#76a7cc" transform="matrix(-9.6961924 -17.49239416 87.46197072 -48.48096204 418 94)"/><path d="m-.5-.5h1v1h-1z" fill="#7e776e" transform="matrix(7.9695576 -.69724596 3.83485268 43.83256672 342 486)"/><path d="m-.5-.5h1v1h-1z" fill="#100f0f" transform="matrix(-30.2565944 10.41818096 -28.6499976 -83.20563464 822 630)"/><path d="m-.5-.5h1v1h-1z" fill="#125684" transform="matrix(21.50207696 -56.0148256 3.73432172 1.4334718 222 502)"/><path d="m-.5-.5h1v1h-1z" fill="#515352" transform="matrix(12.27439212 -25.16623328 3.5951762 1.7534846 790 486)"/><path d="m-.5-.5h1v1h-1z" fill="#00263d" transform="matrix(-20.601523 34.28669204 -24.0006844 -14.42106608 162 346)"/><path d="m-.5-.5h1v1h-1z" fill="#000100" transform="matrix(57.54718404 -55.57266964 2.77863348 2.8773592 134 246)"/><path d="m-.5-.5h1v1h-1z" fill="#e8cfb5" transform="matrix(-17.19216964 -40.50221356 3.6820194 -1.56292452 682 446)"/><path d="m-.5-.5h1v1h-1z" transform="matrix(-14.62707404 13.6399672 -2.72799344 -2.9254148 782 154)"/><path d="m-.5-.5h1v1h-1z" fill="#4d8fbd" transform="matrix(16.26946572 -36.54181832 43.85018196 19.52335888 714 338)"/><path d="m-.5-.5h1v1h-1z" fill="#161d25" transform="matrix(-18.54101968 57.06339096 -11.4126782 -3.70820392 634 674)"/><path d="m-.5-.5h1v1h-1z" fill="#315e79" transform="matrix(-12.50339612 29.45615532 -29.45615532 -12.50339612 850 158)"/><path d="m-.5-.5h1v1h-1z" fill="#11110d" transform="matrix(-111.81080024 -291.27709308 3.73432172 -1.4334718 94 82)"/><path d="m-.5-.5h1v1h-1z" fill="#fffef1" transform="matrix(22.93554876 59.74914728 -7.4686434 2.8669436 734 490)"/><path d="m-.5-.5h1v1h-1z" fill="#3383b6" transform="matrix(-7.49213188 -18.54367708 63.04850212 -25.47324836 654 410)"/><path d="m-.5-.5h1v1h-1z" fill="#c0d3e2" transform="matrix(127.79819644 46.51473948 -1.36808056 3.75877048 642 290)"/><path d="m-.5-.5h1v1h-1z" fill="#4087b7" transform="matrix(63.64940132 -6.68982164 12.96152944 123.32071504 538 118)"/><path d="m-.5-.5h1v1h-1z" fill="#ffebd1" transform="matrix(-19.88127592 -65.0287234 3.82521904 -1.1694868 690 478)"/><path d="m-.5-.5h1v1h-1z" fill="#f0e7e0" transform="matrix(3.4641016 -2 80 138.5640646 718 478)"/><path d="m-.5-.5h1v1h-1z" fill="#fff" transform="matrix(-4.49902108 -19.48740128 19.48740128 -4.49902108 782 434)"/><path d="m-.5-.5h1v1h-1z" fill="#141415" transform="matrix(83.91187692 -207.68918344 22.25241252 8.99055824 1014 130)"/><path d="m-.5-.5h1v1h-1z" fill="#3d596b" transform="matrix(-12 -20.78460968 34.64101616 -20 206 254)"/><path d="m-.5-.5h1v1h-1z" fill="#fffff5" transform="matrix(-18.41009708 7.81462256 -26.56971672 -62.59433004 786 538)"/><path d="m-.5-.5h1v1h-1z" fill="#625e52" transform="matrix(-31.9454204 24.07260092 -2.40726008 -3.19454204 18 366)"/><path d="m-.5-.5h1v1h-1z" fill="#081419" transform="matrix(-3.99451812 .20934384 -18.63160044 -355.51211436 542 610)"/><path d="m-.5-.5h1v1h-1z" fill="#33698d" transform="matrix(-3.73432172 1.4334718 -17.20166156 -44.81186048 758 618)"/><path d="m-.5-.5h1v1h-1z" fill="#131818" transform="matrix(-3.86370332 1.0352762 -61.08129464 -227.958495 222 210)"/><path d="m-.5-.5h1v1h-1z" fill="#6baede" transform="matrix(-43.57179504 6.12361644 -14.47400248 -102.98787916 618 594)"/><path d="m-.5-.5h1v1h-1z" fill="#325a77" transform="matrix(18.27090916 8.13473288 -21.15030544 47.5043638 962 90)"/><path d="m-.5-.5h1v1h-1z" fill="#9bcdf1" transform="matrix(-3.86370332 1.0352762 -145.97394144 -544.78216604 418 678)"/><path d="m-.5-.5h1v1h-1z" fill="#655e50" transform="matrix(-28.36838712 -22.16381312 41.86498032 -53.58473124 26 678)"/><path d="m-.5-.5h1v1h-1z" fill="#18181a" transform="matrix(-25.95742752 79.88874736 -11.4126782 -3.70820392 842 506)"/><path d="m-.5-.5h1v1h-1z" fill="#3b81b1" transform="matrix(-46.8877354 110.4605824 -33.13817472 -14.06632064 746 226)"/><path d="m-.5-.5h1v1h-1z" fill="#0c0d0a" transform="matrix(3.6820194 -1.56292452 29.69556576 69.95836888 110 222)"/><path d="m-.5-.5h1v1h-1z" fill="#302b25" transform="matrix(-56.64245964 87.22173908 -36.901505 -23.96411756 118 110)"/><path d="m-.5-.5h1v1h-1z" transform="matrix(-1.39619252 79.9878156 -23.99634468 -.41885776 166 678)"/><path d="m-.5-.5h1v1h-1z" fill="#165178" transform="matrix(21.88928916 -60.14032772 3.75877048 1.36808056 246 566)"/><path d="m-.5-.5h1v1h-1z" fill="#2f281f" transform="matrix(-153.19984 276.37982744 -27.98783064 -15.51390784 166 406)"/><path d="m-.5-.5h1v1h-1z" fill="#83b8df" transform="matrix(-15.52473164 3.87075032 -25.15987716 -100.91075552 234 78)"/><path d="m-.5-.5h1v1h-1z" transform="matrix(22.4763956 -55.63103128 3.7087354 1.49842636 230 514)"/><path d="m-.5-.5h1v1h-1z" fill="#3177a5" transform="matrix(-10.69207828 -5.447886 1.815962 -3.56402608 922 458)"/><path d="m-.5-.5h1v1h-1z" fill="#52a0d1" transform="matrix(7.9403692 -.97495476 25.34882344 206.44959956 582 414)"/><path d="m-.5-.5h1v1h-1z" fill="#2d353a" transform="matrix(11.69244076 2.69941264 -12.59725904 54.56472364 514 222)"/><path d="m-.5-.5h1v1h-1z" fill="#fff" transform="matrix(27.96162696 -1.46540676 .62803148 11.9835544 610 342)"/><path d="m-.5-.5h1v1h-1z" transform="matrix(-3.5951762 1.7534846 -38.57666092 -79.09387608 46 314)"/><path d="m-.5-.5h1v1h-1z" fill="#2d3638" transform="matrix(-46.7372904 22.79529964 -33.31620716 -68.30834752 522 278)"/><path d="m-.5-.5h1v1h-1z" fill="#578aae" transform="matrix(-28.79373496 124.71936828 -3.89748024 -.8998042 750 298)"/><path d="m-.5-.5h1v1h-1z" transform="matrix(-3.31615028 -2.2367716 26.84125936 -39.79380348 198 454)"/><path d="m-.5-.5h1v1h-1z" fill="#343330" transform="matrix(15.47021256 -147.18924052 3.9780876 .41811384 450 530)"/><path d="m-.5-.5h1v1h-1z" fill="#8fb9d7" transform="matrix(-25.37661804 -11.83331132 6.7618922 -14.5009246 590 398)"/><path d="m-.5-.5h1v1h-1z" fill="#61584a" transform="matrix(-13.56876952 8.47870824 -14.8377394 -23.74534668 190 362)"/><path d="m-.5-.5h1v1h-1z" fill="#201d1b" transform="matrix(-113.5625906 -396.03981872 26.91532748 -7.71784596 42 226)"/><path d="m-.5-.5h1v1h-1z" fill="#06141b" transform="matrix(-16.747506 -319.56145112 3.99451812 -.20934384 558 650)"/><path d="m-.5-.5h1v1h-1z" fill="#abc9e0" transform="matrix(-3.95075336 -.62573788 6.88311648 -43.458287 554 246)"/><path d="m-.5-.5h1v1h-1z" fill="#756a5b" transform="matrix(-24.74317972 -71.85941176 3.78207432 -1.3022726 238 398)"/><path d="m-.5-.5h1v1h-1z" fill="#376f93" transform="matrix(-4.3004154 -11.20296512 14.93728684 -5.7338872 814 238)"/><path d="m-.5-.5h1v1h-1z" fill="#00060d" transform="matrix(0 320 -4 0 502 678)"/><path d="m-.5-.5h1v1h-1z" fill="#2b221d" transform="matrix(75.43072248 -45.3233506 10.30076148 17.143346 210 214)"/><path d="m-.5-.5h1v1h-1z" fill="#050400" transform="matrix(25.80249236 -67.21779072 37.34321704 14.334718 2 626)"/><path d="m-.5-.5h1v1h-1z" fill="#323939" transform="matrix(-10.4889846 25.96114792 -3.7087354 -1.49842636 766 430)"/><path d="m-.5-.5h1v1h-1z" fill="#121211" transform="matrix(3.62523116 1.69047304 -43.95229924 94.25600984 862 126)"/><path d="m-.5-.5h1v1h-1z" transform="matrix(-30.91198488 69.4294548 -3.65418184 -1.62694656 258 562)"/><path d="m-.5-.5h1v1h-1z" transform="matrix(-86.32077604 83.35900444 -8.33590044 -8.6320776 2 402)"/><path d="m-.5-.5h1v1h-1z" fill="#030606" transform="matrix(190 329.08965344 -3.4641016 2 890 418)"/><path d="m-.5-.5h1v1h-1z" fill="#0a0906" transform="matrix(35.96223296 89.00965004 -3.7087354 1.49842636 146 22)"/><path d="m-.5-.5h1v1h-1z" fill="#695842" transform="matrix(-3.10858384 2.51728156 -27.6900972 -34.19442232 702 478)"/><path d="m-.5-.5h1v1h-1z" fill="#b0d2ec" transform="matrix(2.43738688 -19.85092304 19.85092304 2.43738688 610 670)"/><path d="m-.5-.5h1v1h-1z" fill="#000100" transform="matrix(2.50868312 -23.86852548 47.73705096 5.01736624 914 250)"/><path d="m-.5-.5h1v1h-1z" fill="#80b2d5" transform="matrix(0 28 -32 0 646 490)"/><path d="m-.5-.5h1v1h-1z" fill="#aac7de" transform="matrix(19.48740128 4.49902108 -5.39882532 23.38488156 538 198)"/><path d="m-.5-.5h1v1h-1z" fill="#201f24" transform="matrix(8.33511252 47.27077216 -86.66308228 15.28103964 362 662)"/><path d="m-.5-.5h1v1h-1z" fill="#38586e" transform="matrix(19.7956928 85.74456572 -11.69244076 2.69941264 154 2)"/><path d="m-.5-.5h1v1h-1z" fill="#a7ceed" transform="matrix(-21.7407998 81.1377694 -3.86370332 -1.0352762 422 650)"/><path d="m-.5-.5h1v1h-1z" fill="#76abd0" transform="matrix(-27.98294316 .97718592 -1.25638188 -35.97806976 498 170)"/><path d="m-.5-.5h1v1h-1z" fill="#154e73" transform="matrix(-3.62523116 -1.69047304 23.66662264 -50.75323608 270 610)"/><path d="m-.5-.5h1v1h-1z" fill="#01141d" transform="matrix(-18.92754172 134.67645736 -3.96107228 -.5566924 470 614)"/><path d="m-.5-.5h1v1h-1z" fill="#9b7a5c" transform="matrix(3.65418184 -1.62694656 68.33175604 153.47563688 786 406)"/><path d="m-.5-.5h1v1h-1z" fill="#282324" transform="matrix(4.58861148 -6.55321636 3.27660816 2.29430576 738 446)"/><path d="m-.5-.5h1v1h-1z" fill="#585149" transform="matrix(-3.92650872 .763236 -38.16179908 -196.32543668 358 558)"/><path d="m-.5-.5h1v1h-1z" fill="#488dba" transform="matrix(7.3121606 -59.55276908 111.165169 13.64936648 470 126)"/><path d="m-.5-.5h1v1h-1z" fill="#448cba" transform="matrix(17.62097096 -21.76008692 49.73734152 40.27650504 658 402)"/><path d="m-.5-.5h1v1h-1z" fill="#62554b" transform="matrix(18.89588856 -81.84708544 3.89748024 .8998042 438 594)"/><path d="m-.5-.5h1v1h-1z" fill="#fcf1e5" transform="matrix(-22.40593024 -8.6008308 32.96985136 -85.88939924 770 486)"/><path d="m-.5-.5h1v1h-1z" fill="#fff3e2" transform="matrix(-9.02970524 -51.21000316 3.939231 -.69459272 702 430)"/><path d="m-.5-.5h1v1h-1z" fill="#48687a" transform="matrix(-3.75877048 1.36808056 -9.576564 -26.3113934 286 458)"/><path d="m-.5-.5h1v1h-1z" fill="#0c0c0c" transform="matrix(-28.13264124 -66.27634944 55.2302912 -23.44386772 770 678)"/><path d="m-.5-.5h1v1h-1z" fill="#685e53" transform="matrix(11.9105538 1.46243212 -5.36225112 43.67203068 326 434)"/><path d="m-.5-.5h1v1h-1z" fill="#24211f" transform="matrix(13.67226884 195.52255384 -11.9707686 .83707768 578 554)"/><path d="m-.5-.5h1v1h-1z" fill="#3d362f" transform="matrix(115.51320664 259.44690996 -7.30836368 3.25389316 82 254)"/><path d="m-.5-.5h1v1h-1z" fill="#161414" transform="matrix(-44.09040664 -190.97653268 89.64204596 -20.695497 98 634)"/><path d="m-.5-.5h1v1h-1z" fill="#212122" transform="matrix(34.20201432 -93.96926208 30.07016388 10.9446446 886 166)"/><path d="m-.5-.5h1v1h-1z" fill="#1a2529" transform="matrix(8.58309684 163.77524368 -11.9835544 .62803148 538 306)"/></g></svg>