<svg height="680" width="1024" xmlns="http://www.w3.org/2000/svg"><path d="m0 0h1024v680h-1024z" fill="#40797d"/><g fill-opacity=".501961"><path d="m-.5-.5h1v1h-1z" fill="#94b49b" transform="matrix(566.38835196 -699.43136532 360.59572612 292.00466144 206 210)"/><path d="m-.5-.5h1v1h-1z" fill="#002527" transform="matrix(405.05493964 -830.4856988 179.75880924 87.67422936 866 334)"/><path d="m-.5-.5h1v1h-1z" fill="#00407d" transform="matrix(-89.03375152 332.27848424 -652.96585856 -174.96167448 730 598)"/><path d="m-.5-.5h1v1h-1z" fill="#0075ff" transform="matrix(-75.64148604 26.04545236 -115.902263 -336.60461292 494 542)"/><path d="m-.5-.5h1v1h-1z" fill="#a2ad95" transform="matrix(-158.8107846 235.4466706 -291.82122552 -196.83590204 674 30)"/><path d="m-.5-.5h1v1h-1z" fill="#bfd6b8" transform="matrix(-190.97653268 -44.09040664 35.99216868 -155.89921036 234 238)"/><path d="m-.5-.5h1v1h-1z" fill="#005e7e" transform="matrix(252.41330224 183.38899872 -51.7251022 71.19349552 226 582)"/><path d="m-.5-.5h1v1h-1z" fill="#12625b" transform="matrix(73.87937704 -94.56129044 267.92365624 209.3249016 506 214)"/><path d="m-.5-.5h1v1h-1z" fill="#004a4b" transform="matrix(42.06888372 30.56483312 -103.4502044 142.386991 62 302)"/><path d="m-.5-.5h1v1h-1z" fill="#004240" transform="matrix(0 260 -536 0 838 626)"/><path d="m-.5-.5h1v1h-1z" fill="#00395d" transform="matrix(54.33908976 -47.23625008 86.59979184 99.6216646 398 322)"/><path d="m-.5-.5h1v1h-1z" fill="#b5ab76" transform="matrix(239.36095612 -193.83068044 130.89864132 161.64636 178 2)"/><path d="m-.5-.5h1v1h-1z" fill="#032313" transform="matrix(-114.75657072 -35.08460456 81.86407732 -267.76533168 954 94)"/><path d="m-.5-.5h1v1h-1z" fill="#3698a4" transform="matrix(176.87215204 50.71727348 -57.33257 199.94243276 694 314)"/><path d="m-.5-.5h1v1h-1z" fill="#05bcff" transform="matrix(-43.67203068 5.36225112 -34.61089352 -281.88310708 474 430)"/><path d="m-.5-.5h1v1h-1z" fill="#0019ee" transform="matrix(-45.06927004 84.76296892 -113.01729188 -60.09236004 534 634)"/><path d="m-.5-.5h1v1h-1z" fill="#c9ba97" transform="matrix(249.41531628 144 -46 79.67433716 422 22)"/><path d="m-.5-.5h1v1h-1z" fill="#1a7479" transform="matrix(278.18663796 -74.539885 17.59969508 65.6829562 630 134)"/><path d="m-.5-.5h1v1h-1z" fill="#4fafce" transform="matrix(134.20803412 71.35967756 -28.16829376 52.97685556 370 586)"/><path d="m-.5-.5h1v1h-1z" fill="#6297c4" transform="matrix(-305.15155904 -183.35355468 49.4436552 -82.28806088 146 626)"/><path d="m-.5-.5h1v1h-1z" fill="#005666" transform="matrix(15.26471964 -78.53017468 66.75064848 12.97501168 206 366)"/><path d="m-.5-.5h1v1h-1z" fill="#598c81" transform="matrix(79.67433716 46 -174 301.37684052 994 310)"/><path d="m-.5-.5h1v1h-1z" fill="#00533d" transform="matrix(15.28103964 -86.66308228 43.33154112 7.6405198 322 50)"/><path d="m-.5-.5h1v1h-1z" fill="#034232" transform="matrix(50.71727348 176.87215204 -80.74598244 23.15353788 574 486)"/><path d="m-.5-.5h1v1h-1z" fill="#61a856" transform="matrix(33.80946092 -72.50462296 203.01294428 94.66649064 302 154)"/><path d="m-.5-.5h1v1h-1z" fill="#b0ac94" transform="matrix(255.37639688 -17.85765728 7.25467328 103.74666124 686 18)"/><path d="m-.5-.5h1v1h-1z" fill="#5fa8b9" transform="matrix(258.2309666 -54.88868636 14.96964172 70.42662724 294 426)"/><path d="m-.5-.5h1v1h-1z" fill="#96c2c7" transform="matrix(-110.32255588 -35.84597136 9.8885438 -30.43380852 450 274)"/><path d="m-.5-.5h1v1h-1z" fill="#004242" transform="matrix(-157.546703 -141.85568856 42.8243588 -47.56126884 370 674)"/><path d="m-.5-.5h1v1h-1z" fill="#005b61" transform="matrix(83.9872064 -1.46600216 2.1640984 123.9811142 2 366)"/><path d="m-.5-.5h1v1h-1z" fill="#c7b9c0" transform="matrix(-47.1814506 105.97127308 -87.70036392 -39.04671772 242 6)"/><path d="m-.5-.5h1v1h-1z" fill="#13737c" transform="matrix(-93.67828488 -104.04027556 133.7660686 -120.44350916 574 310)"/><path d="m-.5-.5h1v1h-1z" fill="#90937d" transform="matrix(-41.0424172 112.76311448 -60.14032772 -21.88928916 458 118)"/><path d="m-.5-.5h1v1h-1z" fill="#04565b" transform="matrix(-88.8611554 -74.56336272 280.25539784 -333.9953772 846 406)"/><path d="m-.5-.5h1v1h-1z" fill="#052f26" transform="matrix(258 -446.86910836 31.17691452 18 898 230)"/><path d="m-.5-.5h1v1h-1z" fill="#83ba8d" transform="matrix(171.97380356 3.00181392 -2.1640984 123.9811142 130 154)"/><path d="m-.5-.5h1v1h-1z" fill="#7c804e" transform="matrix(-170.00294544 -45.55215192 32.0935616 -119.77480244 90 2)"/><path d="m-.5-.5h1v1h-1z" fill="#026268" transform="matrix(-86.38276756 162.46235708 -17.65895184 -9.38943124 678 126)"/><path d="m-.5-.5h1v1h-1z" fill="#00276d" transform="matrix(0 20 -96 0 434 218)"/><path d="m-.5-.5h1v1h-1z" fill="#d0e7c3" transform="matrix(-11.388626 25.5792728 -105.97127308 -47.1814506 310 214)"/><path d="m-.5-.5h1v1h-1z" fill="#030e00" transform="matrix(16.36796064 17.55248884 -117.01659224 109.1197376 642 646)"/><path d="m-.5-.5h1v1h-1z" fill="#000695" transform="matrix(22.6924458 -7.81363572 80.74090232 234.48860676 470 622)"/><path d="m-.5-.5h1v1h-1z" fill="#03666f" transform="matrix(-76.38381632 81.9116146 -32.17956288 -30.00792784 138 510)"/><path d="m-.5-.5h1v1h-1z" fill="#143d3c" transform="matrix(-69.46583704 -71.93398004 34.5283104 -33.3436018 402 358)"/><path d="m-.5-.5h1v1h-1z" fill="#529bbc" transform="matrix(150.35081932 54.72322292 -17.78504744 48.86401628 994 466)"/><path d="m-.5-.5h1v1h-1z" fill="#98b5b1" transform="matrix(-24.24871132 -14 102 -176.66918236 738 206)"/><path d="m-.5-.5h1v1h-1z" fill="#5d9ab6" transform="matrix(39.06817852 -113.46222908 98.33393188 33.85908808 90 450)"/><path d="m-.5-.5h1v1h-1z" fill="#025ff1" transform="matrix(-46.80663692 43.64789504 -106.39174416 -114.09117744 518 586)"/><path d="m-.5-.5h1v1h-1z" fill="#725342" transform="matrix(-47.92823508 -73.80300996 40.25618728 -26.14267368 1018 650)"/><path d="m-.5-.5h1v1h-1z" fill="#82aac5" transform="matrix(-43.19138376 81.23117856 -74.1675978 -39.43561128 230 482)"/><path d="m-.5-.5h1v1h-1z" fill="#d9cac0" transform="matrix(3.06928484 43.8928182 -23.9415372 1.67415536 714 122)"/><path d="m-.5-.5h1v1h-1z" fill="#346f65" transform="matrix(-59.88881728 -46.79027212 98.50583604 -126.08172056 854 178)"/><path d="m-.5-.5h1v1h-1z" fill="#005759" transform="matrix(13.45859036 50.22814296 -54.09184628 14.49386652 410 102)"/><path d="m-.5-.5h1v1h-1z" fill="#e9d2bb" transform="matrix(-54.77626564 -11.64305468 4.98988056 -23.4755424 334 106)"/><path d="m-.5-.5h1v1h-1z" fill="#006e85" transform="matrix(-60.19702316 135.20472772 -32.88763648 -14.64251916 302 502)"/><path d="m-.5-.5h1v1h-1z" fill="#9b875e" transform="matrix(4.60673356 -131.91958916 23.98537984 .83758792 1022 166)"/><path d="m-.5-.5h1v1h-1z" fill="#5497a4" transform="matrix(-45.64277228 -97.881241 83.3803164 -38.88088008 370 534)"/><path d="m-.5-.5h1v1h-1z" fill="#10657a" transform="matrix(-143.98442456 -171.59395524 55.15519992 -46.28070788 902 482)"/><path d="m-.5-.5h1v1h-1z" fill="#cec8bd" transform="matrix(35.99451704 .62828664 -.83771552 47.99268936 810 98)"/><path d="m-.5-.5h1v1h-1z" fill="#598067" transform="matrix(14.33314252 49.9856082 -188.4072924 54.02492176 614 186)"/><path d="m-.5-.5h1v1h-1z" fill="#38874a" transform="matrix(41.52904652 -31.2943812 77.03232296 102.22534528 6 94)"/><path d="m-.5-.5h1v1h-1z" fill="#007eb8" transform="matrix(91.82654964 48.82504252 -11.26731752 21.19074224 394 278)"/><path d="m-.5-.5h1v1h-1z" fill="#00737f" transform="matrix(-27.04592312 -7.24693328 21.7407998 -81.1377694 594 130)"/><path d="m-.5-.5h1v1h-1z" fill="#0d747c" transform="matrix(114.6812862 80.30070108 -34.4145862 49.14912264 142 534)"/><path d="m-.5-.5h1v1h-1z" fill="#485e51" transform="matrix(59.74441668 -99.43140688 68.57338404 41.203046 874 2)"/><path d="m-.5-.5h1v1h-1z" fill="#004955" transform="matrix(27.2799344 29.25414808 -61.43371092 57.28786224 482 206)"/><path d="m-.5-.5h1v1h-1z" fill="#005e69" transform="matrix(-98.20776384 -105.31493304 11.70165924 -10.91197376 266 678)"/><path d="m-.5-.5h1v1h-1z" fill="#1d7d84" transform="matrix(57.6842644 -96.00273768 102.86007608 61.804569 678 450)"/><path d="m-.5-.5h1v1h-1z" fill="#1b433d" transform="matrix(-60.58844364 -30.871354 19.975582 -39.20428708 618 294)"/><path d="m-.5-.5h1v1h-1z" fill="#09d1ff" transform="matrix(-31.76147684 -3.899819 11.69945696 -95.28443056 466 450)"/><path d="m392 312h20v20h-20z" fill="#c7edeb" stroke-width="20"/><path d="m-.5-.5h1v1h-1z" fill="#000e0e" transform="matrix(-26.29040752 49.4450652 -21.19074224 -11.26731752 422 342)"/><path d="m-.5-.5h1v1h-1z" fill="#0993ba" transform="matrix(135.099963 -78 10 17.32050808 578 250)"/><path d="m-.5-.5h1v1h-1z" fill="#769c81" transform="matrix(-26.24236116 -30.1883832 96.60282628 -83.97555572 978 370)"/><path d="m-.5-.5h1v1h-1z" fill="#c0bc9c" transform="matrix(2.09343824 39.9451814 -223.6930158 11.7232542 390 2)"/><path d="m-.5-.5h1v1h-1z" fill="#598882" transform="matrix(-61.56614752 78.80107536 -50.43268824 -39.40233444 322 330)"/><path d="m-.5-.5h1v1h-1z" fill="#0f6a6c" transform="matrix(7.92214456 -1.1133848 17.81415692 126.7543128 774 38)"/><path d="m-.5-.5h1v1h-1z" fill="#4a888f" transform="matrix(123.63850576 33.12883776 -22.77607596 85.00147272 122 350)"/><path d="m-.5-.5h1v1h-1z" fill="#1d5245" transform="matrix(-95.02163712 66.5348666 -11.47152872 -16.38304088 286 82)"/><path d="m-.5-.5h1v1h-1z" fill="#0566a1" transform="matrix(34.03866872 -11.72045356 27.34772496 79.42356036 774 534)"/><path d="m-.5-.5h1v1h-1z" fill="#9cacbe" transform="matrix(50 -86.60254036 83.13843876 48 174 266)"/><path d="m-.5-.5h1v1h-1z" fill="#748153" transform="matrix(16.18033988 -11.75570504 70.53423028 97.08203932 558 54)"/><path d="m-.5-.5h1v1h-1z" fill="#5b9db0" transform="matrix(13.38261212 14.86289652 -68.36932396 61.5600158 178 510)"/><path d="m-.5-.5h1v1h-1z" fill="#028196" transform="matrix(151.79168928 -7.95506536 1.88409444 35.95066324 558 374)"/><path d="m-.5-.5h1v1h-1z" fill="#051710" transform="matrix(-25.86255112 -35.59674776 42.06888372 -30.56483312 974 674)"/><path d="m-.5-.5h1v1h-1z" fill="#4e5d3e" transform="matrix(-113.01729188 -60.09236004 9.38943124 -17.65895184 394 162)"/><path d="m-.5-.5h1v1h-1z" fill="#486f63" transform="matrix(-108.24034784 100.93575728 -30.00792784 -32.17956288 970 278)"/><path d="m-.5-.5h1v1h-1z" fill="#004a49" transform="matrix(17.143346 10.30076148 -39.14289368 65.14471484 94 258)"/><path d="m-.5-.5h1v1h-1z" fill="#6b95b2" transform="matrix(29.69353916 -128.61684856 152.00173012 35.09236448 126 642)"/><path d="m-.5-.5h1v1h-1z" fill="#003653" transform="matrix(-12.27439212 -25.16623328 75.49869988 -36.82317632 1022 402)"/><path d="m-.5-.5h1v1h-1z" fill="#00505f" transform="matrix(14.83281572 45.6507128 -45.6507128 14.83281572 202 366)"/><path d="m-.5-.5h1v1h-1z" fill="#92b5a7" transform="matrix(-23.14035396 27.57759996 -49.02684436 -41.138407 534 122)"/><path d="m-.5-.5h1v1h-1z" fill="#86abc0" transform="matrix(63.96101292 2.2335678 -2.65236176 75.95370284 130 426)"/><path d="m-.5-.5h1v1h-1z" fill="#79aea0" transform="matrix(20.5720152 -12.3609138 39.14289368 65.14471484 634 202)"/><path d="m-.5-.5h1v1h-1z" fill="#006c95" transform="matrix(45.2825748 -39.36354172 18.3696528 21.13186824 758 110)"/><path d="m-.5-.5h1v1h-1z" fill="#b0b1aa" transform="matrix(15.03508192 5.47232228 -23.25736976 63.8990982 858 30)"/><path d="m-.5-.5h1v1h-1z" fill="#87cc8a" transform="matrix(1.6700772 11.88321684 -126.7543128 17.81415692 378 202)"/><path d="m-.5-.5h1v1h-1z" fill="#000f62" transform="matrix(72.50462296 33.80946092 -18.59520352 39.87754264 494 678)"/><path d="m-.5-.5h1v1h-1z" fill="#032c28" transform="matrix(21.33162328 38.48326712 -101.45588604 56.23791596 794 614)"/><path d="m-.5-.5h1v1h-1z" fill="#004561" transform="matrix(-26.3022688 53.92764276 -28.76140948 -14.02787668 186 550)"/><path d="m-.5-.5h1v1h-1z" fill="#acbbb7" transform="matrix(-50.7141914 -108.75693444 25.37661804 -11.83331132 742 22)"/><path d="m-.5-.5h1v1h-1z" fill="#a4a789" transform="matrix(-95.12253768 -85.6487176 58.88349336 -65.39674464 630 46)"/><path d="m-.5-.5h1v1h-1z" fill="#3f857f" transform="matrix(-76.50438048 -23.38973636 33.91511776 -110.93135168 806 206)"/><path d="m-.5-.5h1v1h-1z" fill="#0079a2" transform="matrix(-19.89690176 -13.42062968 40.26188904 -59.69070524 670 242)"/><path d="m-.5-.5h1v1h-1z" fill="#d8d8c6" transform="matrix(-168.97328072 -82.4137756 7.01393836 -14.38070476 266 202)"/><path d="m-.5-.5h1v1h-1z" fill="#86a394" transform="matrix(-97.09236436 -37.27026676 31.53637956 -82.15507752 26 222)"/><path d="m-.5-.5h1v1h-1z" fill="#79c37b" transform="matrix(169.37289304 71.89452764 -15.62924512 36.82019412 286 174)"/><path d="m-.5-.5h1v1h-1z" fill="#70a2a1" transform="matrix(-71.85941176 24.74317972 -32.55681544 -94.55185756 726 202)"/><path d="m-.5-.5h1v1h-1z" fill="#a1a692" transform="matrix(58.68885604 12.47470144 -15.80128852 74.33921764 58 66)"/><path d="m-.5-.5h1v1h-1z" fill="#439599" transform="matrix(-20.79116908 97.81476008 -82.16439848 -17.46458204 386 426)"/><path d="m-.5-.5h1v1h-1z" fill="#0e7cab" transform="matrix(3.35468228 2.17855616 -63.17812808 97.28578588 714 642)"/><path d="m-.5-.5h1v1h-1z" fill="#8ba7b7" transform="matrix(-269.15327488 -77.17845964 12.12804364 -42.29551464 18 578)"/><path d="m-.5-.5h1v1h-1z" fill="#9dafb7" transform="matrix(-5.20909048 15.1282972 -105.89808048 -36.46363328 294 406)"/><path d="m-.5-.5h1v1h-1z" fill="#487d73" transform="matrix(8.09823796 35.07732232 -128.61684856 29.69353916 542 338)"/><path d="m-.5-.5h1v1h-1z" fill="#0068aa" transform="matrix(14.86289652 13.38261212 -48.17740364 53.50642744 838 654)"/><path d="m-.5-.5h1v1h-1z" fill="#017994" transform="matrix(-16.77341136 -10.89278072 43.5711228 -67.09364544 866 562)"/><path d="m-.5-.5h1v1h-1z" fill="#4d828b" transform="matrix(23.7806344 21.4121794 -82.9721952 92.14995836 254 378)"/><path d="m-.5-.5h1v1h-1z" fill="#133b3a" transform="matrix(-41.14403044 24.7218276 -55.62411208 -92.57406848 570 538)"/><path d="m-.5-.5h1v1h-1z" fill="#a5bbbb" transform="matrix(90.63077872 42.26182616 -6.7618922 14.5009246 438 278)"/><path d="m-.5-.5h1v1h-1z" fill="#197758" transform="matrix(64 -110.85125168 31.17691452 18 782 366)"/><path d="m-.5-.5h1v1h-1z" fill="#bbbfb3" transform="matrix(-27.48556112 5.34265188 -16.0279556 -82.4566834 802 42)"/><path d="m-.5-.5h1v1h-1z" fill="#026170" transform="matrix(101.48680304 36.93817548 -16.41696688 45.1052458 358 634)"/><path d="m-.5-.5h1v1h-1z" fill="#5b9db1" transform="matrix(-69.58958308 -77.28706184 14.86289652 -13.38261212 418 614)"/><path d="m-.5-.5h1v1h-1z" fill="#72b5ce" transform="matrix(2.82842712 -2.82842712 104.6518036 104.6518036 274 650)"/><path d="m-.5-.5h1v1h-1z" fill="#08393d" transform="matrix(-20.35315432 -12.71806236 36.03450996 -57.66727052 1022 274)"/><path d="m-.5-.5h1v1h-1z" fill="#003f51" transform="matrix(-10.0343026 -26.14025196 44.81186048 -17.20166156 158 490)"/><path d="m-.5-.5h1v1h-1z" fill="#4d8298" transform="matrix(-15.52914272 57.95554956 -255.00441816 -68.32822792 66 654)"/><path d="m-.5-.5h1v1h-1z" fill="#031ecb" transform="matrix(36.4776532 24.60448776 -60.39283356 89.53605784 550 662)"/><path d="m-.5-.5h1v1h-1z" fill="#082922" transform="matrix(-58.46220388 -13.49706328 12.59725904 -54.56472364 1022 590)"/><path d="m-.5-.5h1v1h-1z" fill="#006462" transform="matrix(30.90169944 95.10565164 -22.8253564 7.41640788 34 390)"/><path d="m-.5-.5h1v1h-1z" fill="#3f8a9f" transform="matrix(-72.06901992 115.33454108 -84.8048096 -52.99192644 698 362)"/><path d="m-.5-.5h1v1h-1z" fill="#001d25" transform="matrix(-7.7274066 -2.07055236 18.63497124 -69.54665948 390 334)"/><path d="m-.5-.5h1v1h-1z" fill="#698aa9" transform="matrix(-69.95836888 29.69556576 -64.07990508 -150.96279596 2 462)"/><path d="m-.5-.5h1v1h-1z" fill="#b1dbc0" transform="matrix(-21.16026908 29.1246118 -3.23606796 -2.351141 402 338)"/><path d="m-.5-.5h1v1h-1z" fill="#0e3a37" transform="matrix(86.32077604 83.35900444 -69.46583704 71.93398004 926 186)"/><path d="m-.5-.5h1v1h-1z" fill="#104035" transform="matrix(8.47870824 13.56876952 -88.197002 55.11160348 878 442)"/><path d="m-.5-.5h1v1h-1z" fill="#3a644e" transform="matrix(-23.22450196 -93.14838972 23.28709744 -5.80612548 654 146)"/><path d="m-.5-.5h1v1h-1z" fill="#184b4d" transform="matrix(44.43762576 -115.76397288 33.60889536 12.9012462 882 90)"/><path d="m-.5-.5h1v1h-1z" fill="#085050" transform="matrix(63.55866996 -124.7409134 99.79273072 50.84693596 682 554)"/><path d="m-.5-.5h1v1h-1z" fill="#046e8c" transform="matrix(1.95318128 -27.9317934 91.77589264 6.4175956 566 478)"/><path d="m-.5-.5h1v1h-1z" fill="#0164a5" transform="matrix(39.00319768 -55.702339 13.10643272 9.177223 778 670)"/><path d="m-.5-.5h1v1h-1z" fill="#a1b2a9" transform="matrix(2.50295144 -15.80301344 79.01506724 12.5147572 326 314)"/><path d="m-.5-.5h1v1h-1z" fill="#99a27e" transform="matrix(31.95614512 -1.6747506 2.93081356 55.92325396 266 66)"/><path d="m-.5-.5h1v1h-1z" fill="#006d64" transform="matrix(22.06430112 17.23852132 -39.40233444 50.43268824 366 282)"/><path d="m-.5-.5h1v1h-1z" fill="#92b7c6" transform="matrix(-48.21356044 19.47954284 -5.99370548 -14.83494168 950 442)"/><path d="m-.5-.5h1v1h-1z" fill="#007fea" transform="matrix(-3.4641016 2 -46 -79.67433716 442 314)"/><path d="m-.5-.5h1v1h-1z" fill="#4c6644" transform="matrix(40.9765592 32.01439672 -36.93968852 47.2806452 518 222)"/><path d="m-.5-.5h1v1h-1z" fill="#75ad7c" transform="matrix(19.28833044 -39.54693804 147.4022236 71.89286808 138 174)"/><path d="m-.5-.5h1v1h-1z" fill="#aca38b" transform="matrix(-55.97566124 31.02781568 -7.75695392 -13.99391532 426 142)"/><path d="m-.5-.5h1v1h-1z" fill="#0a4743" transform="matrix(-52.09102212 43.70955744 -38.5672566 -45.9626666 574 422)"/><path d="m-.5-.5h1v1h-1z" fill="#057fa4" transform="matrix(-22.40593024 -8.6008308 31.53637956 -82.15507752 718 306)"/><path d="m-.5-.5h1v1h-1z" fill="#0036c2" transform="matrix(-23.28610936 109.55253128 -11.7377712 -2.49494028 434 434)"/><path d="m-.5-.5h1v1h-1z" fill="#05759a" transform="matrix(-2.8773592 -2.77863348 161.16074196 -166.88683368 846 506)"/><path d="m-.5-.5h1v1h-1z" fill="#b4afa0" transform="matrix(-5.86162708 -111.84650788 15.97807256 -.83737528 362 74)"/><path d="m-.5-.5h1v1h-1z" fill="#0d6665" transform="matrix(32.01439672 -40.9765592 22.06430112 17.23852132 398 522)"/><path d="m-.5-.5h1v1h-1z" fill="#347878" transform="matrix(186.91484412 -156.84017676 12.8557522 15.32088888 958 354)"/><path d="m-.5-.5h1v1h-1z" fill="#0c4943" transform="matrix(-114.12678196 37.08203932 -8.65247584 -26.62958244 874 510)"/><path d="m-.5-.5h1v1h-1z" fill="#004351" transform="matrix(-9.45612904 -7.38793772 49.25291804 -63.04086028 266 566)"/><path d="m-.5-.5h1v1h-1z" fill="#0462fb" transform="matrix(-45.55450404 -102.31709124 21.925091 -9.76167944 514 538)"/><path d="m-.5-.5h1v1h-1z" fill="#479eae" transform="matrix(67.96660224 -83.93176384 12.4343354 10.06912624 310 554)"/><path d="m-.5-.5h1v1h-1z" fill="#33828b" transform="matrix(27.04592312 7.24693328 -25.88190452 96.59258264 74 510)"/><path d="m-.5-.5h1v1h-1z" fill="#004145" transform="matrix(-74.1675978 39.43561128 -37.55772504 -70.63580744 882 618)"/><path d="m-.5-.5h1v1h-1z" fill="#6e8d77" transform="matrix(16.58075144 11.18385808 -69.33992004 102.800659 606 166)"/><path d="m-.5-.5h1v1h-1z" fill="#0e7b9c" transform="matrix(86.25263508 -64.99602252 7.22178028 9.58362612 986 446)"/><path d="m-.5-.5h1v1h-1z" fill="#1c859a" transform="matrix(-104.04027556 93.67828488 -16.05913456 -17.8354758 234 550)"/><path d="m-.5-.5h1v1h-1z" fill="#0686b3" transform="matrix(5.45598688 5.8508296 -55.58288132 51.83187536 850 430)"/><path d="m-.5-.5h1v1h-1z" fill="#7e8261" transform="matrix(67.28454056 62.74384912 -10.91197376 11.70165924 622 26)"/><path d="m-.5-.5h1v1h-1z" fill="#0f747a" transform="matrix(8.91773792 8.02956728 -91.00176248 101.06769628 654 582)"/><path d="m-.5-.5h1v1h-1z" fill="#005052" transform="matrix(20.35315432 -12.71806236 27.55580176 44.098501 2 74)"/><path d="m-.5-.5h1v1h-1z" fill="#078dec" transform="matrix(-64.07990508 -150.96279596 29.45615532 -12.50339612 474 522)"/><path d="m-.5-.5h1v1h-1z" fill="#102215" transform="matrix(62.93390768 -155.76688756 81.5921792 32.96538024 1022 2)"/><path d="m-.5-.5h1v1h-1z" fill="#037cd2" transform="matrix(-2.46264592 3.152043 -37.82451616 -29.5517508 466 222)"/><path d="m-.5-.5h1v1h-1z" fill="#004a59" transform="matrix(-9.97976116 -46.95108484 35.21331364 -7.48482088 322 62)"/><path d="m-.5-.5h1v1h-1z" fill="#a7b7b6" transform="matrix(-7.74150064 31.04946324 -73.7424752 -18.38606408 238 466)"/><path d="m-.5-.5h1v1h-1z" fill="#0f3e25" transform="matrix(-30.871354 60.58844364 -10.69207828 -5.447886 802 290)"/><path d="m-.5-.5h1v1h-1z" fill="#ded6d0" transform="matrix(-26.52920232 17.89417292 -13.42062968 -19.89690176 658 10)"/><path d="m-.5-.5h1v1h-1z" fill="#58968c" transform="matrix(8.8203954 -30.76037428 57.67570176 16.53824136 482 266)"/><path d="m-.5-.5h1v1h-1z" fill="#005a58" transform="matrix(-22.09211648 9.37754708 -25.00679224 -58.91231064 570 246)"/><path d="m-.5-.5h1v1h-1z" fill="#567673" transform="matrix(-12.25671108 10.28460176 -46.28070788 -55.15519992 706 34)"/><path d="m-.5-.5h1v1h-1z" fill="#268c55" transform="matrix(-30.76037428 -8.8203954 24.25608732 -84.59102924 2 654)"/><path d="m-.5-.5h1v1h-1z" fill="#01769d" transform="matrix(-33.60889536 -12.9012462 18.63513336 -48.54618216 690 102)"/><path d="m-.5-.5h1v1h-1z" fill="#337482" transform="matrix(-16.26946572 36.54181832 -138.85890956 -61.82396976 974 494)"/><path d="m-.5-.5h1v1h-1z" fill="#07c8f1" transform="matrix(16.7911916 86.38319216 -15.70603492 3.05294392 466 370)"/><path d="m-.5-.5h1v1h-1z" fill="#001d69" transform="matrix(3.88118292 -.9676876 61.93200528 248.39570592 454 606)"/><path d="m-.5-.5h1v1h-1z" fill="#327246" transform="matrix(-4.68877356 11.04605824 -117.82462124 -50.01358444 402 182)"/><path d="m-.5-.5h1v1h-1z" fill="#bfc0c9" transform="matrix(1.8772136 -11.85226008 138.27636768 21.90082512 222 298)"/><path d="m-.5-.5h1v1h-1z" fill="#06669d" transform="matrix(-13.85640648 -8 32 -55.42562584 794 178)"/><path d="m-.5-.5h1v1h-1z" fill="#8fbd9f" transform="matrix(26.46118616 -92.2811228 42.29551464 12.12804364 106 158)"/><path d="m-.5-.5h1v1h-1z" fill="#539399" transform="matrix(-104 -180.133284 17.32050808 -10 98 458)"/><path d="m-.5-.5h1v1h-1z" fill="#004b46" transform="matrix(148.10424984 34.19256028 -8.09823796 35.07732232 398 678)"/><path d="m-.5-.5h1v1h-1z" fill="#006f99" transform="matrix(-64.2365382 71.34190324 -8.91773792 -8.02956728 942 562)"/><path d="m-.5-.5h1v1h-1z" fill="#727552" transform="matrix(-3.87075032 15.52473164 -93.14838972 -23.22450196 258 90)"/><path d="m-.5-.5h1v1h-1z" fill="#b1b7a0" transform="matrix(-28.88712112 38.33450448 -89.44717712 -67.4032826 518 66)"/><path d="m-.5-.5h1v1h-1z" fill="#31694f" transform="matrix(-21.04181504 43.14211424 -10.78552856 -5.26045376 542 18)"/><path d="m-.5-.5h1v1h-1z" fill="#619284" transform="matrix(27.57461708 4.86214896 -20.83778132 118.17693036 750 294)"/><path d="m-.5-.5h1v1h-1z" fill="#667345" transform="matrix(33.16150292 22.36771612 -44.73543228 66.3230058 154 2)"/><path d="m-.5-.5h1v1h-1z" fill="#6ba475" transform="matrix(-59.61847596 122.23599028 -53.92764276 -26.3022688 34 158)"/><path d="m-.5-.5h1v1h-1z" fill="#b7bcba" transform="matrix(-50.7029288 95.35834004 -7.06358076 -3.75577252 782 130)"/><path d="m-.5-.5h1v1h-1z" fill="#214738" transform="matrix(-18.15962 35.64026096 -42.76831316 -21.791544 994 166)"/><path d="m-.5-.5h1v1h-1z" fill="#006796" transform="matrix(-25.77413588 -10.9404716 20.31801868 -47.86625236 678 418)"/><path d="m-.5-.5h1v1h-1z" fill="#006f8d" transform="matrix(-22.93625724 -16.0601402 18.35444596 -26.2128654 514 158)"/><path d="m-.5-.5h1v1h-1z" fill="#0032c5" transform="matrix(3.78207432 -1.3022726 46.88181424 136.15467488 450 554)"/><path d="m-.5-.5h1v1h-1z" fill="#1b7877" transform="matrix(-11.81769304 -2.08377812 19.44859588 -110.29846832 418 454)"/><path d="m-.5-.5h1v1h-1z" fill="#196456" transform="matrix(28.25432296 -15.02309 30.04618 56.50864596 514 426)"/><path d="m-.5-.5h1v1h-1z" fill="#45a5c8" transform="matrix(87.98659716 -1.53581176 .4886674 27.99573548 362 586)"/><path d="m-.5-.5h1v1h-1z" fill="#94a7a1" transform="matrix(-15.93911516 -1.39449188 11.853181 -135.48247896 718 162)"/><path d="m-.5-.5h1v1h-1z" fill="#708e71" transform="matrix(-19.44859588 -110.29846832 15.75692404 -2.77837084 346 46)"/><path d="m-.5-.5h1v1h-1z" fill="#018188" transform="matrix(7.7623658 -1.93537516 21.2891268 85.38602392 322 598)"/><path d="m-.5-.5h1v1h-1z" fill="#347580" transform="matrix(-33.92192384 21.19677056 -61.47063464 -98.37357916 666 318)"/><path d="m-.5-.5h1v1h-1z" fill="#003096" transform="matrix(-67.21779072 -25.80249236 1.4334718 -3.73432172 414 302)"/><path d="m-.5-.5h1v1h-1z" fill="#628f8c" transform="matrix(-9.40456404 12.94427192 -135.91485504 -98.7479224 786 106)"/><path d="m-.5-.5h1v1h-1z" fill="#2494b3" transform="matrix(-49.72784732 15.20332864 -12.864355 -42.07740928 610 230)"/><path d="m-.5-.5h1v1h-1z" fill="#7e8a7b" transform="matrix(-43.19060244 187.07905244 -7.79496052 -1.79960844 834 114)"/><path d="m-.5-.5h1v1h-1z" fill="#698a8c" transform="matrix(-94.25600984 43.95229924 -10.14283828 -21.75138688 358 490)"/><path d="m-.5-.5h1v1h-1z" fill="#b5ccbf" transform="matrix(-31.17691452 -18 2 -3.4641016 466 154)"/><path d="m-.5-.5h1v1h-1z" fill="#06403d" transform="matrix(35.28158156 -123.04149708 73.05588888 20.94843904 870 298)"/><path d="m-.5-.5h1v1h-1z" fill="#004e59" transform="matrix(-12.57993856 -50.45537776 23.28709744 -5.80612548 406 98)"/><path d="m-.5-.5h1v1h-1z" fill="#448b79" transform="matrix(11.7377712 2.49494028 -29.10763672 136.94066412 338 310)"/><path d="m-.5-.5h1v1h-1z" fill="#002032" transform="matrix(85.00147272 22.77607596 -1.0352762 3.86370332 434 226)"/><path d="m-.5-.5h1v1h-1z" fill="#046e87" transform="matrix(13.8931674 14.386796 -46.03774724 44.45813572 942 650)"/><path d="m-.5-.5h1v1h-1z" fill="#009bff" transform="matrix(2.06015228 3.4286692 -30.85802284 18.54137068 410 286)"/><path d="m-.5-.5h1v1h-1z" fill="#95b6bc" transform="matrix(-.8998042 3.89748024 -171.4891314 -39.59138556 330 410)"/><path d="m-.5-.5h1v1h-1z" fill="#e0ffff" transform="matrix(-9.45612904 7.38793772 -2.46264592 -3.152043 406 310)"/><path d="m-.5-.5h1v1h-1z" fill="#0071ab" transform="matrix(39.79380348 -26.84125936 4.47354324 6.6323006 602 390)"/><path d="m-.5-.5h1v1h-1z" fill="#0f6260" transform="matrix(-7.71345132 9.19253332 -64.34773324 -53.9941592 494 330)"/><path d="m-.5-.5h1v1h-1z" fill="#45887d" transform="matrix(6.25169804 14.72807764 -162.0088542 68.7686786 154 350)"/><path d="m-.5-.5h1v1h-1z" fill="#002d77" transform="matrix(6.9724594 79.69557584 -11.95433636 1.04586892 442 354)"/><path d="m-.5-.5h1v1h-1z" fill="#5f6e74" transform="matrix(-29.1246118 21.16026908 -32.91597412 -45.30495168 1022 654)"/><path d="m-.5-.5h1v1h-1z" fill="#669b8c" transform="matrix(-19.69615508 -3.47296356 10.41889068 -59.0884652 286 250)"/><path d="m-.5-.5h1v1h-1z" fill="#67a7bd" transform="matrix(-3.80422608 1.23606796 -30.90169944 -95.10565164 702 342)"/><path d="m-.5-.5h1v1h-1z" fill="#124144" transform="matrix(-87.22173908 56.64245964 -50.10679124 -77.15769224 602 546)"/><path d="m-.5-.5h1v1h-1z" fill="#236454" transform="matrix(26.03114516 -58.46690928 21.925091 9.76167944 834 2)"/><path d="m-.5-.5h1v1h-1z" fill="#027a96" transform="matrix(-37.61825616 51.77708764 -16.18033988 -11.75570504 862 490)"/><path d="m-.5-.5h1v1h-1z" fill="#023c48" transform="matrix(-46.51473948 127.79819644 -37.58770484 -13.68080572 746 518)"/><path d="m-.5-.5h1v1h-1z" fill="#97a980" transform="matrix(82.9658206 -13.14049508 1.25147572 7.90150672 286 114)"/><path d="m-.5-.5h1v1h-1z" fill="#0a3d39" transform="matrix(-23.90867276 2.09173784 -10.80731212 -123.52814256 834 550)"/><path d="m-.5-.5h1v1h-1z" fill="#57a1be" transform="matrix(-6.61529652 23.07028072 -57.67570176 -16.53824136 238 534)"/><path d="m-.5-.5h1v1h-1z" fill="#00668a" transform="matrix(40.26188904 -59.69070524 13.26460116 8.94708644 758 114)"/><path d="m-.5-.5h1v1h-1z" fill="#4d8381" transform="matrix(7.24693328 27.04592312 -61.81925288 16.56441888 22 290)"/><path d="m-.5-.5h1v1h-1z" fill="#629c95" transform="matrix(47.2806452 -36.93968852 2.46264592 3.152043 954 314)"/><path d="m-.5-.5h1v1h-1z" fill="#7ba8b3" transform="matrix(67.71649584 -34.503278 5.447886 10.69207828 142 338)"/><path d="m-.5-.5h1v1h-1z" fill="#94a297" transform="matrix(-6.86912384 35.3385786 -23.5590524 -4.57941588 350 334)"/><path d="m-.5-.5h1v1h-1z" fill="#b4a8b1" transform="matrix(.34904812 19.99695392 -51.99208016 .90752512 14 258)"/><path d="m-.5-.5h1v1h-1z" fill="#004c65" transform="matrix(-10.96254548 4.88083972 -34.165878 -76.73781844 254 590)"/><path d="m-.5-.5h1v1h-1z" fill="#0281a3" transform="matrix(-31.04946324 7.74150064 -5.80612548 -23.28709744 190 518)"/><path d="m-.5-.5h1v1h-1z" fill="#041c11" transform="matrix(15.76021508 12.31322952 -105.89377376 135.53784964 622 678)"/><path d="m-.5-.5h1v1h-1z" fill="#037078" transform="matrix(80.25964116 72.26610548 -16.05913456 17.8354758 126 546)"/><path d="m-.5-.5h1v1h-1z" fill="#1d7b57" transform="matrix(-24.08870184 26.75321372 -14.86289652 -13.38261212 294 58)"/><path d="m-.5-.5h1v1h-1z" fill="#86a3b2" transform="matrix(215.47383484 15.06739832 -1.39512948 19.951281 22 450)"/><path d="m-.5-.5h1v1h-1z" fill="#135c4f" transform="matrix(-61.94625512 88.4684208 -9.82982452 -6.88291724 662 154)"/><path d="m-.5-.5h1v1h-1z" fill="#0324bc" transform="matrix(39.20428708 -19.975582 41.76712596 81.97260024 522 670)"/><path d="m-.5-.5h1v1h-1z" fill="#0677b7" transform="matrix(-3.152043 -2.46264592 36.93968852 -47.2806452 778 538)"/><path d="m-.5-.5h1v1h-1z" fill="#9fc8b5" transform="matrix(66.47109776 -36.84553112 11.63543088 20.99087296 342 246)"/><path d="m-.5-.5h1v1h-1z" fill="#a39d6e" transform="matrix(-15.58738732 -110.91002368 31.6885782 -4.45353924 514 2)"/><path d="m-.5-.5h1v1h-1z" fill="#43908e" transform="matrix(-21.19677056 33.92192384 -33.92192384 -21.19677056 770 346)"/><path d="m-.5-.5h1v1h-1z" fill="#083d42" transform="matrix(14.93728684 5.7338872 -38.70373856 100.82668608 910 566)"/><path d="m-.5-.5h1v1h-1z" fill="#0a8398" transform="matrix(68.85394244 -21.05076276 11.6948682 38.25219024 550 370)"/><path d="m-.5-.5h1v1h-1z" fill="#4ca6b3" transform="matrix(54.09184628 14.49386652 -5.17638092 19.31851652 214 606)"/><path d="m-.5-.5h1v1h-1z" fill="#004f6f" transform="matrix(13.8918542 -78.78462024 3.939231 .69459272 318 458)"/><path d="m-.5-.5h1v1h-1z" fill="#29696a" transform="matrix(-30.871354 60.58844364 -42.76831316 -21.791544 642 470)"/><path d="m-.5-.5h1v1h-1z" fill="#84a08c" transform="matrix(-26.76522424 29.725793 -95.12253768 -85.6487176 466 82)"/><path d="m-.5-.5h1v1h-1z" fill="#078981" transform="matrix(24.07260092 31.9454204 -28.75087836 21.66534084 230 346)"/><path d="m-.5-.5h1v1h-1z" fill="#5795a8" transform="matrix(10.52538136 -34.4269712 91.80525656 28.06768364 286 374)"/><path d="m-.5-.5h1v1h-1z" fill="#00715d" transform="matrix(-9.15883176 -47.1181048 35.3385786 -6.86912384 38 326)"/><path d="m-.5-.5h1v1h-1z" fill="#a8a66d" transform="matrix(-100.64046816 -65.3566842 13.07133684 -20.12809364 558 2)"/><path d="m-.5-.5h1v1h-1z" fill="#0655f0" transform="matrix(15.70603492 3.05294392 -12.21177572 62.82413976 446 418)"/><path d="m-.5-.5h1v1h-1z" fill="#008289" transform="matrix(-58.21937768 48.85185832 -5.14230088 -6.12835556 330 442)"/><path d="m-.5-.5h1v1h-1z" fill="#478f5f" transform="matrix(-14.14213564 14.14213564 -22.627417 -22.627417 570 106)"/><path d="m-.5-.5h1v1h-1z" fill="#001c2e" transform="matrix(2.8773592 -2.77863348 30.56496832 31.6509512 418 306)"/><path d="m-.5-.5h1v1h-1z" fill="#1c8c94" transform="matrix(15.99025324 -.55839196 3.21075368 91.94395608 386 250)"/><path d="m-.5-.5h1v1h-1z" fill="#03598d" transform="matrix(22.22906784 23.0188736 -28.773592 27.7863348 718 610)"/><path d="m-.5-.5h1v1h-1z" fill="#4f958d" transform="matrix(-115.92933592 4.0483416 -.55839196 -15.99025324 90 226)"/><path d="m-.5-.5h1v1h-1z" fill="#075f6f" transform="matrix(7.66970536 -87.66513344 7.9695576 .69724596 94 502)"/><path d="m-.5-.5h1v1h-1z" fill="#0a616f" transform="matrix(57.28786224 -61.43371092 14.62707404 13.6399672 938 286)"/><path d="m-.5-.5h1v1h-1z" fill="#05889c" transform="matrix(-12.07535328 -10.49694448 41.98777784 -48.30141312 674 226)"/><path d="m-.5-.5h1v1h-1z" fill="#558a65" transform="matrix(-22.534635 42.38148444 -21.19074224 -11.26731752 382 82)"/><path d="m-.5-.5h1v1h-1z" fill="#c7c1b6" transform="matrix(10.78552856 5.26045376 -49.09756844 100.6649332 386 2)"/><path d="m-.5-.5h1v1h-1z" fill="#617868" transform="matrix(-15.54291924 -12.58640784 93.13941788 -115.01760228 1022 362)"/><path d="m-.5-.5h1v1h-1z" fill="#297674" transform="matrix(-1.69047304 -3.62523116 105.13170328 -49.02371836 170 498)"/><path d="m-.5-.5h1v1h-1z" fill="#499996" transform="matrix(23.14035396 27.57759996 -64.34773324 53.9941592 190 434)"/><path d="m-.5-.5h1v1h-1z" fill="#5e8541" transform="matrix(-3.14015736 59.91777208 -43.93969952 -2.30278208 2 30)"/><path d="m-.5-.5h1v1h-1z" fill="#0c8b95" transform="matrix(-82.66740524 132.295503 -3.3921924 -2.11967704 722 474)"/><path d="m-.5-.5h1v1h-1z" fill="#2680a3" transform="matrix(-65.9801094 16.45068892 -2.90306276 -11.64354872 430 654)"/><path d="m-.5-.5h1v1h-1z" fill="#5b8068" transform="matrix(59.92674596 -117.6128612 7.1280522 3.631924 530 198)"/><path d="m-.5-.5h1v1h-1z" fill="#548782" transform="matrix(-4.57941588 -23.5590524 51.04461352 -9.92206776 410 546)"/><path d="m-.5-.5h1v1h-1z" fill="#5b8f8d" transform="matrix(5.65685424 5.65685424 -98.99494936 98.99494936 682 198)"/><path d="m-.5-.5h1v1h-1z" fill="#a5ae9f" transform="matrix(-19.45043436 -20.1415144 60.42454324 -58.35130312 670 58)"/><path d="m-.5-.5h1v1h-1z" fill="#396257" transform="matrix(-9.8885438 -30.43380852 30.43380852 -9.8885438 978 574)"/><path d="m-.5-.5h1v1h-1z" fill="#6ea59f" transform="matrix(3.10858384 -2.51728156 65.44932068 80.82318 466 266)"/><path d="m-.5-.5h1v1h-1z" fill="#60725d" transform="matrix(-59.91777208 -3.14015736 1.25606296 -23.96710884 306 334)"/><path d="m-.5-.5h1v1h-1z" fill="#001d39" transform="matrix(27.9772546 -22.65553408 7.55184468 9.32575152 386 314)"/><path d="m-.5-.5h1v1h-1z" fill="#0d6b9d" transform="matrix(10.87569344 5.07141916 -27.04756876 58.00369836 882 674)"/><path d="m-.5-.5h1v1h-1z" fill="#7ca5b2" transform="matrix(-30.07016388 -10.9446446 9.576564 -26.3113934 54 382)"/><path d="m-.5-.5h1v1h-1z" fill="#869d82" transform="matrix(-89.19813524 86.13763792 -16.67180088 -17.2641552 314 10)"/><path d="m-.5-.5h1v1h-1z" fill="#80bcdb" transform="matrix(5.84743408 -19.12609512 22.95131416 7.01692092 298 678)"/><path d="m-.5-.5h1v1h-1z" fill="#004248" transform="matrix(11.88321684 -1.6700772 11.69054048 83.18251776 22 362)"/><path d="m-.5-.5h1v1h-1z" fill="#05373e" transform="matrix(-118.0906252 135.84772444 -3.01883832 -2.62423612 826 506)"/><path d="m-.5-.5h1v1h-1z" fill="#0e90d3" transform="matrix(39.50753364 6.2573786 -.62573788 3.95075336 414 210)"/><path d="m-.5-.5h1v1h-1z" fill="#999786" transform="matrix(-9.1481144 43.03849444 -3.9125904 -.83164676 1022 118)"/><path d="m-.5-.5h1v1h-1z" fill="#007584" transform="matrix(127.2792206 127.2792206 -8.48528136 8.48528136 274 678)"/></g></svg>