<svg height="768" width="1024" xmlns="http://www.w3.org/2000/svg"><path d="m0 0h1024v768h-1024z" fill="#729cb8"/><g fill-opacity=".501961" transform="matrix(4 0 0 4 2 2)"><path d="m195-16 76 151-287-43z" fill="#e1fcff"/><path d="m6 207 211-49-233-48z" fill="#001333"/><path d="m118 5-113 68-20-89z" fill="#0051be"/><path d="m89 98 182 1-13-47z" fill="#fff"/><path d="m88 76 71-9-11 19z" fill="#0d1527"/><path d="m113 153 68 43 19-80z" fill="#1b354d"/><path d="m217 133-35 63 89-69z" fill="#ffefee"/><path d="m258 140-2 66-83 1z" fill="#152551"/><path d="m-16 103 86 54 199-53z" fill="#4a99c0"/><path d="m-16 80 148-88 139 45z" fill="#74bddf"/><path d="m125 189-122 18-19-71z" fill="#173141"/><path d="m116 204 15-29 40 15z" fill="#fff"/><path d="m11 81 162 2-75 24z" fill="#fffff9"/><path d="m-16-13 120 31-63 50z" fill="#0b6db8"/><path d="m97 25 44-41 48 27z" fill="#d6e4ed"/><path d="m251 97-9 10 29 9z" fill="#00001d"/><path d="m59 207 154-55-35-29z" fill="#32516f"/><path d="m114 119-122-12 26 50z" fill="#296b9e"/><path d="m271 84-101 25-20-39z" fill="#f6fbf9"/><path d="m270 74-74-37 56-53z" fill="#4da0d1"/><path d="m87 74 40 12 4-14z" fill="#233445"/><path d="m110 79-120-5 7 31z" fill="#d6dee3"/><path d="m41 142 139 50 31-49z" fill="#315575"/><path d="m238 157-88-51 48-11z" fill="#9dbfcf"/><path d="m177-3-65 74 147-1z" fill="#a5cde0"/><path d="m87-16-103 84 3-79z" fill="#0954ac"/><path d="m90 72 4 17-14-23z" fill="#3e515d"/><path d="m143 207 2-19 29-2z" fill="#fff"/><path d="m184 143-38 29 14-35z" fill="#2c2a23"/><path d="m139 207-26-5 21-30z" fill="#faf5f4"/><path d="m-16 75 99-25 37-66z" fill="#449dca"/><path d="m269 113-38-3-38 23z" fill="#f5e4e7"/><path d="m231 148 9-7h-25z" fill="#355077"/><path d="m215 173-40 26 38-53z" fill="#d6d8e1"/><path d="m271 141-1-25-41 26z" fill="#fff"/><path d="m177 137-78-14-75 30z" fill="#558db1"/><path d="m145 80 1 22-65-9z" fill="#f2fafb"/><path d="m265 137-25 26-35 10z" fill="#516c93"/><path d="m252 66-67-16 21-66z" fill="#7bb7d4"/><path d="m138 103-20 33 119-31z" fill="#8ec9da"/><path d="m134 158-150-16 132 65z" fill="#294f6c"/><path d="m122 105-56-9-38 19z" fill="#93c7d8"/><path d="m-16 179 74-5-31 33z" fill="#23282b"/><path d="m86 100-36-27 38 1z" fill="#e9f6f7"/><path d="m224 126-50 25 18 28z" fill="#5277a0"/><path d="m200 123 21-4-8-3z" fill="#26547c"/><path d="m171 60-36 46h106z" fill="#e0eff3"/><path d="m177 122 28 4-51 14z" fill="#374c5c"/><path d="m106 53-86 19 112-64z" fill="#75b9d5"/><path d="m212 140 19-4-43-7z" fill="#d9d9e0"/><path d="m109 77-14 26 6-26z" fill="#fff"/><path d="m271 70-37-61 18-25z" fill="#3282bd"/><path d="m142 79 15 4-8-17z" fill="#334961"/><path d="m69 192 18 15 40-41z" fill="#2669a5"/><path d="m206 207 49-33 8 14z" fill="#2a3643"/><path d="m165 203-47 4 29-30z" fill="#ebe1e8"/><path d="m271 114-24 8 24-18z" fill="#00093f"/><path d="m236 123-19 11 7-10z" fill="#465c86"/><path d="m205 149v27l23-28z" fill="#dbdde6"/><path d="m155 185 37-10-54-7z" fill="#194170"/><path d="m150 81-2 17 60-12z" fill="#fefffd"/><path d="m139 60-26 11 32-1z" fill="#dff4fa"/><path d="m126 84 9-4-29-7z" fill="#172f46"/><path d="m-14 103 23 23 58-26z" fill="#5392bb"/><path d="m136 77 11 1-1-4z" fill="#dbe9ec"/><path d="m211 169 21-7-20 14z" fill="#bac3d0"/><path d="m271 95-38 7 11-32z" fill="#e4edee"/><path d="m238 114-15 21 37-23z" fill="#f5ebef"/><path d="m223 207 6-32-59 21z" fill="#5b7da5"/><path d="m185 96 67 14-101 18z" fill="#8dbfd4"/><path d="m86 70 7 19v-17z" fill="#415360"/><path d="m-16 64 95-30-1-50z" fill="#1f7abe"/><path d="m121 169 19 12 19-14z" fill="#396489"/><path d="m88 71-44 27 39 2z" fill="#e6f0f2"/><path d="m229 178 1-28 41 48z" fill="#3c5b82"/><path d="m151 182 56-27-7-20z" fill="#2a5887"/><path d="m143 107-79 5 64 22z" fill="#4a9dbf"/><path d="m97 18-23 60 81-66z" fill="#89c1da"/><path d="m191 184-13 8 3 3z" fill="#fffcf8"/><path d="m130 74-22 9v-7z" fill="#324355"/><path d="m43 141 39-5-41 17z" fill="#797e9a"/><path d="m147 66-1 21 5-11z" fill="#183048"/><path d="m153 137-48 20-48-12z" fill="#2c6a92"/><path d="m204 133 30-11-29 2z" fill="#dedfe3"/><path d="m53 156 53 15-25 11z" fill="#2a3d49"/><path d="m-16 65 29 18 38-19z" fill="#88b7cf"/><path d="m241 158 12-11v5z" fill="#a0b5c7"/><path d="m100 98 45-5-54-15z" fill="#eef5f7"/><path d="m219 129-7 6-6-2z" fill="#29507c"/><path d="m267 105-36 46 24-9z" fill="#f7ebec"/><path d="m171 40-97 27h171z" fill="#acd5e5"/><path d="m271 157-18-9 11 59z" fill="#051727"/><path d="m144 75h-17l10-3z" fill="#00132d"/><path d="m26 154 37-36-79 8z" fill="#265886"/><path d="m179 172 12 5-20 20z" fill="#38404a"/><path d="m124-16 61 17-66 11z" fill="#c7dbe8"/><path d="m173 125 16 22 3-12z" fill="#333a3c"/><path d="m229 142 17-12-12-7z" fill="#939fb7"/><path d="m17 121 70-11 19 26z" fill="#347ead"/><path d="m116 180 14-3-14 16z" fill="#303b47"/><path d="m231 154-43 14 26-18z" fill="#c4cdd9"/><path d="m122 133-48 4 23 5z" fill="#7ea0ba"/><path d="m194 132-9-3 7-16z" fill="#85b6d0"/><path d="m169 160 18-24-52 35z" fill="#2d3336"/><path d="m75 172-15 4-2 12z" fill="#417292"/><path d="m171 134 8 1-4 6z" fill="#6da3cb"/><path d="m114 71 11 14 9-11z" fill="#243e56"/><path d="m243 145-6-2 5-5z" fill="#848c9c"/><path d="m249 113v-13l22-2z" fill="#1e3b66"/><path d="m125 174h9l-7 6z" fill="#91b5d4"/><path d="m160 189 11-2-6 13z" fill="#fff"/><path d="m207 173-26 17 14-16z" fill="#e6e7e8"/><path d="m168 69h-9l2-2z" fill="#3b5881"/><path d="m61 54 43-36-15-34z" fill="#3c93c6"/><path d="m207 63 34 20-89-11z" fill="#d5e6ec"/><path d="m220 136 17-2-8-6z" fill="#eeeef3"/><path d="m123 96 31 8-51 2z" fill="#afdae4"/><path d="m68 99-26 20-13-19z" fill="#6eaac7"/><path d="m130 85-1-5 4-6z" fill="#183f5f"/><path d="m97 77-8 28 19-28z" fill="#e9f3f4"/><path d="m-7 104 25-28 22 22z" fill="#bbd0da"/><path d="m92 74 1-4-12 1z" fill="#334a5e"/><path d="m131 72 12-16-64 12z" fill="#b7dce9"/><path d="m120 191 13-14 16 30z" fill="#e2e4e8"/><path d="m193 9-29 24-59-29z" fill="#aacade"/><path d="m205-9-3 42 34-37z" fill="#75b4d8"/><path d="m-14 50 54-66-56 14z" fill="#134da3"/><path d="m173 106-59-1 53 26z" fill="#7cbad1"/><path d="m252 108-31 10 5 8z" fill="#d3d7e0"/><path d="m230 160 15-11-7 11z" fill="#1d406d"/><path d="m199 130 25-12-10 12z" fill="#f3f6f7"/><path d="m220 118 22-9-16-1z" fill="#6b9cb6"/><path d="m145 81-12 1 13 10z" fill="#fff"/><path d="m92 102-5-29-18-2z" fill="#dbecf1"/><path d="m196 148-21 3 30-13z" fill="#5d86a3"/><path d="m153 67h-7v8z" fill="#17345c"/><path d="m149 81-19-1 10-3z" fill="#283d4c"/><path d="m224 32 38 16-35-64z" fill="#549bc6"/><path d="m41 145-39-15-18 36z" fill="#2d5174"/><path d="m237 122-11 7-6-6z" fill="#778fab"/><path d="m50 183 38 1 3 19z" fill="#245982"/><path d="m65 111-13-12 45 3z" fill="#98c7d7"/><path d="m149 99 8-26 78 16z" fill="#f0f6f7"/><path d="m221 145 15-1-23-5z" fill="#48688e"/><path d="m210 142-13-8-10 34z" fill="#315881"/><path d="m227 127-6 6h-12z" fill="#13477e"/><path d="m84 72-11-3h10z" fill="#385267"/><path d="m126 99-33-10 23-7z" fill="#eff6f6"/><path d="m147 179 9 8-15-5z" fill="#fff"/><path d="m182 172 3 1 6-5z" fill="#99abb6"/><path d="m84 36 24-52 9 20z" fill="#56a2cc"/><path d="m98 162 20 11 16-31z" fill="#344b5c"/><path d="m213 182 11-22-27 22z" fill="#8f9eb5"/><path d="m110 70-17 4v-5z" fill="#d7eef4"/><path d="m74 171-82-5-8 25z" fill="#273b49"/><path d="m190 192 6 9 25-30z" fill="#3a5f8c"/><path d="m215 129 4-8 12 3z" fill="#c9ced6"/><path d="m204 136 26 5-5-8z" fill="#d1d8e1"/><path d="m18 69-34-9 71-4z" fill="#549fc8"/><path d="m129 42 54-17 59 42z" fill="#97c5dc"/><path d="m151 70 44-2-36 15z" fill="#d7e9f0"/><path d="m140 74 6 3-14-1z" fill="#c1d0da"/><path d="m257 92-36 14 15 4z" fill="#a9c9d8"/><path d="m88 73-29 8-18-15z" fill="#acd2e0"/><path d="m182 107-15-12 52 7z" fill="#c0dfe8"/><path d="m219 118h-10l2 3z" fill="#1f486d"/><path d="m209 155h22l-17 9z" fill="#e0e1e8"/><path d="m189 204-6 3 3-23z" fill="#6a7987"/><path d="m138 71 11 4-20-1z" fill="#183048"/><path d="m243 109h-5l8-3z" fill="#21324e"/><path d="m213 183-10 9 25-11z" fill="#7892b2"/><path d="m209 122 9-15-46 2z" fill="#82bcd2"/><path d="m121 23-14 25-49 11z" fill="#73b7d6"/><path d="m204 161-15 18-4-5z" fill="#4b7aa2"/><path d="m114 77h-4l2 1z" fill="#cee4e8"/><path d="m-11 100 35 21 35-9z" fill="#508eb6"/><path d="m-11 106 27-16 35 1z" fill="#a6c7d6"/><path d="m214 19 57 42-62-22z" fill="#6fadce"/><path d="m159 186 36-24-43 13z" fill="#1e4776"/><path d="m240 133-9 3 2 3z" fill="#6486a5"/><path d="m196 154-38 22 14-21z" fill="#326191"/><path d="m129 77-7 6-13-3z" fill="#263748"/><path d="m200 181-15 14 9-20z" fill="#dadce3"/><path d="m256 181 2-6-11 4z" fill="#252521"/><path d="m151 172-10 9-17-35z" fill="#345b7b"/><path d="m138 181-12 12 29-6z" fill="#c6cad8"/><path d="m250 119-6 5 8-2z" fill="#465a8e"/><path d="m84 149-66 5 29-14z" fill="#496d8f"/><path d="m135 107-27 33 52-14z" fill="#6dabc6"/><path d="m201 128-5-5-10 3z" fill="#1d4b72"/><path d="m214 145-10 4v14z" fill="#a6b8cb"/><path d="m228 170-10 10 3-13z" fill="#28456a"/><path d="m180 132-4 11-6-4z" fill="#557fa0"/><path d="m231 148 8 2 5-8z" fill="#e5e4e9"/><path d="m175 132 8-6-11 2z" fill="#232729"/><path d="m246 101h14l-15 7z" fill="#203852"/><path d="m143 66 51 3-12-12z" fill="#bedae7"/><path d="m159 135-19 9 13-15z" fill="#489abf"/><path d="m246 186-2 21-6-22z" fill="#23282c"/><path d="m152 203 23-2v-13z" fill="#1f1c19"/><path d="m84 98 43-13 32 14z" fill="#e4f1f4"/><path d="m130 183 9-1-9-4z" fill="#fff"/><path d="m253 121 17 10-30 8z" fill="#f7f2f4"/><path d="m138 173 3-12 28-2z" fill="#2d3941"/><path d="m140 177 7-18 1 15z" fill="#3c6c94"/><path d="m27 157 102 15-47-24z" fill="#285270"/><path d="m149 85-4-7 2-1z" fill="#2f4353"/><path d="m243 76 28-16-83 4z" fill="#b6d3e0"/><path d="m78 70 30-18-4 16z" fill="#a8d5e4"/><path d="m75 172-8 2 8 2z" fill="#738b9a"/><path d="m194-1-11 40 46-55z" fill="#91bdd7"/><path d="m175 124-13 23-3-8z" fill="#304b5e"/><path d="m263 99-37-15 45-14z" fill="#ebeeef"/><path d="m240 149-11 16-5-4z" fill="#7388a6"/><path d="m97 102-7-16-50-2z" fill="#eef3f4"/><path d="m207 178-10-8h24z" fill="#d0d6e0"/><path d="m109 73-1 9 4-2z" fill="#1e3343"/><path d="m213 146 13-2-11 12z" fill="#c9cbd8"/><path d="m48 35-64 16 82-65z" fill="#196bb9"/><path d="m204 95-54-14-3 19z" fill="#eaf6f8"/><path d="m61 98 23 13 23-4z" fill="#92c6d7"/><path d="m56 55 16-58 37-13z" fill="#2f86c1"/><path d="m97 169-29 17 9-18z" fill="#293d4a"/><path d="m144 72 10 9-4-9z" fill="#1e3449"/><path d="m107 17-26 23 59-28z" fill="#97cae0"/><path d="m77 133 11-22 33 19z" fill="#428eb3"/><path d="m116 170 16 3 10-14z" fill="#30608d"/><path d="m142 78-2-2-6 1z" fill="#d4e3e9"/><path d="m124 175-8 7 8 1z" fill="#2e3434"/><path d="m142 137 5 15 9-8z" fill="#3b678c"/><path d="m199 162 4-8-10 6z" fill="#284463"/><path d="m122 186 13 21h-16z" fill="#8c99a1"/><path d="m21 99 49-1-20-8z" fill="#c6dbe4"/><path d="m239 125 10-12 10-1z" fill="#f5f3f4"/><path d="m235 115 13-2-1-5z" fill="#cccddc"/><path d="m120 136-4 14 22-14z" fill="#3c84ac"/><path d="m239 109-27-4-24 19z" fill="#82b9d0"/><path d="m-16 193 38-12 46 13z" fill="#232e38"/><path d="m28 86-44 11v-12z" fill="#dddbe1"/><path d="m246 181v4l13-4z" fill="#5d7ca7"/><path d="m145 67 6 11-2-9z" fill="#2e4968"/><path d="m146 82-32 7 20 2z" fill="#f8faf9"/><path d="m150 62-10 9h-21z" fill="#d4e6ee"/><path d="m36 151 10-6 11 2z" fill="#7e829e"/><path d="m203 129h-7l-4 3z" fill="#fefcf6"/><path d="m111 71 18 10 5-8z" fill="#284159"/><path d="m271 137-6 29h-13z" fill="#222932"/><path d="m168 188v19l-13-21z" fill="#fffbf8"/><path d="m226 186-4-8 24-13z" fill="#517198"/><path d="m203 120-3 3 6-3z" fill="#265274"/><path d="m-16 53 13 14 43-13z" fill="#3d8fc1"/><path d="m167 128-3 2-2-2z" fill="#f1ebe8"/><path d="m208 189-6 6 1 7z" fill="#fbf5f4"/><path d="m223 128-3 5 10-7z" fill="#305a8c"/><path d="m185 129 6 16-14-1z" fill="#374752"/><path d="m219 170-15 5 26-18z" fill="#8b9bb1"/><path d="m244 103 27 19v-29z" fill="#2d4665"/><path d="m176 149-16 16-10-15z" fill="#2b353b"/><path d="m209 131-5-3-4 3z" fill="#fff"/><path d="m172 128-19-10 17-12z" fill="#8ac0d4"/><path d="m216 153-2-16-4 21z" fill="#bcc6d4"/><path d="m236 127h2l-2 3z" fill="#25344d"/><path d="m184 172v5l-16 2z" fill="#283642"/><path d="m173 186-14 21-14-7z" fill="#f9f9f9"/><path d="m248 130-15-8 16 3z" fill="#bebacc"/><path d="m109 182 7-17 2 42z" fill="#3a6288"/><path d="m107 73-6-14 54-5z" fill="#a7d2e3"/><path d="m185 132-7 5 15-3z" fill="#4d6e89"/><path d="m240 120 1 4-11 5z" fill="#dfe3e7"/><path d="m28 120-24-17-20 20z" fill="#427dac"/><path d="m206 116 8 7-15-4z" fill="#6ea8c4"/><path d="m136 9 15 40-40 8z" fill="#8ec3db"/><path d="m186 188-48 19h26z" fill="#e5e8ef"/><path d="m165 185 6-28-19 26z" fill="#264d78"/><path d="m99 167 18-4 7-10z" fill="#386284"/><path d="m51 140 21-24-32 3z" fill="#306f9d"/><path d="m35 181 3 10 30-15z" fill="#243a49"/><path d="m116 179-2 9-15 7z" fill="#2d4250"/><path d="m204 167 2-8-11 7z" fill="#8fa9c0"/><path d="m204 182 1-4-15 3z" fill="#a6b1c0"/><path d="m40 177 75-17-105-6z" fill="#294a60"/><path d="m207-16h-105l64 27z" fill="#c7d7e5"/><path d="m244 86-1 13-44 1z" fill="#dbe9ee"/><path d="m232 197 1-43 7 24z" fill="#36567e"/><path d="m249 50 22 19-65-21z" fill="#86bbd4"/><path d="m165 133-5 11 5-3z" fill="#3c6f96"/><path d="m251 166 8-14-40 19z" fill="#305586"/><path d="m224 143 5 5 2-5z" fill="#3b5e7f"/><path d="m192 131-1-1 2-1z" fill="#f7f1ef"/><path d="m195 155 13-3-19-2z" fill="#2c5580"/><path d="m249 137 22-6-26 16z" fill="#f1eff0"/><path d="m230 139-3 4-10-8z" fill="#bcc7d7"/><path d="m113 166 12-4 4-10z" fill="#293b49"/><path d="m271-16-24 20 16 39z" fill="#3680bb"/><path d="m192 141 11 2-9 3z" fill="#5c85a4"/><path d="m136 169v11l7-11z" fill="#384b58"/><path d="m145 94-27-7 44-1z" fill="#f4f9f8"/><path d="m89 70 1 10 3-8z" fill="#294052"/><path d="m104 175-35 32h40z" fill="#266498"/><path d="m136 177-3-15 5 7z" fill="#3a6e99"/></g></svg>