<svg height="632" width="1024" xmlns="http://www.w3.org/2000/svg"><path d="m0 0h1024v632h-1024z" fill="#a39889"/><g fill="none" stroke-opacity=".501961" stroke-width=".5" transform="matrix(4 0 0 4 2 2)"><path d="m173.143693.157218q68.562438-11.48543 63.354122 114.497676" stroke="#010200"/><path d="m172.86988 3.156411q98.13012-15.047445 71.177333 91.403974" stroke="#000"/><path d="m227.4342-.60078q-53.811024 76.973015 29.757087 89.847077" stroke="#000"/><path d="m228.021117 163.621639q-71.265002-50.399185 21.278693-148.854627" stroke="#000"/><path d="m217.909264 157.787401q43.013066-143.363325-34.736162-158.111062" stroke="#090700"/><path d="m183.560085-.051003q79.9461 37.695497 14.236019 89.54085" stroke="#000"/><path d="m237.422591 8.429865q-73.874911 127.422824-3.080432 153.106743" stroke="#000"/><path d="m11.277792 93.281069q21.822271-15.239987 76.639183-44.389834" stroke="#000"/><path d="m194.562035 107.414586q76.437965-63.715271-14.612518-107.409631" stroke="#000"/><path d="m180.708649 3.929105q90.291351-10.002009 57.956094 90.747375" stroke="#000"/><path d="m228.372909-5.056959q-68.668183 71.602934 23.796242 96.265044" stroke="#000"/><path d="m4.895113 92.101034q43.3684-22.587772 87.175263-48.098568" stroke="#000"/><path d="m227.122992 157.601507q-80.514327-49.371211 43.877008-167.858418" stroke="#161200"/><path d="m186.036817 3.973821q84.963183 5.434396 35.420276 152.851409" stroke="#161101"/><path d="m71.982973 141.768727q152.480006 16.190282 94.359338-136.15659" stroke="#f7feff"/><g stroke="#000"><path d="m90.295758 46.198727q-39.096793 28.332417-74.769022 41.17996"/><path d="m-16 153.778013q0-16.08742 96.206138-75.59176"/><path d="m91.968582 57.171352q-70.750464 42.62926-78.39553 26.989723"/><path d="m172.545464-1.274991q81.417976-.391642 66.150553 98.891959"/><path d="m188.490512 6.666331q58.530328-22.666331 65.789184 56.156954"/><path d="m180.311311 2.985447q86.49263-6.099598 53.782199 88.449858"/><path d="m229.780184-1.602221q-56.862102 78.130987 36.502537 91.593255"/><path d="m250.340683 20.531002q-16.934714 29.188778-64.328908-18.595774"/></g><path d="m79.552762 141.243609q144.957358 5.007121 79.478966-136.690228" stroke="#f9ffff"/><path d="m218.395431-8.594119q-65.282334 70.389295 30.002036 97.224478" stroke="#000"/><path d="m77.745848 140.920965q142.056427-.522981 72.886223-136.185339" stroke="#faffff"/><path d="m139.078244 2.991845q-101.025307 105.233363 35.497192 142.694366" stroke="#fcffff"/><path d="m-16 83.199379q33.760487 16.820545 103.614572-38.843633" stroke="#000"/><path d="m143.81356 4.115986q80.494832 124.258024-67.218539 135.218367" stroke="#f9ffff"/><path d="m196.728192 88.872617q65.967265-53.830937-17.796279-89.813157" stroke="#000"/><path d="m223.732383-2.527104q-63.630965 69.194045 27.20602 95.461547" stroke="#000"/><path d="m108.29029 1.741437q-49.461428 147.04424 68.19588 140.769502" stroke="#fbffff"/><path d="m137.468344 145.892197q-92.09543-112.603352 48.094611-140.385936" stroke="#f8feff"/><path d="m77.212865 142.062593q118.64937-71.918109 1.30836-138.278497" stroke="#fcffff"/><path d="m234.082838-9.844254q-72.159347 72.219654 24.169717 102.620482" stroke="#000"/><path d="m157.729902 145.620978q59.442765-149.628601-78.421122-140.271258" stroke="#f4fcff"/><path d="m88.468653 59.110561q-24.984047 21.920939-76.540274 30.237372" stroke="#000"/><path d="m232.911953 3.191091q-67.567456 55.584132 11.458823 86.78053" stroke="#000"/><path d="m164.983943-3.4389q74.568018 8.574477 78.267124 101.231386" stroke="#000"/><path d="m76.359318 140.035324q135.987324-29.958352 41.491592-136.092577" stroke="#faffff"/><path d="m154.065856 142.959477q48.249433-141.894387-74.223496-136.455292" stroke="#f6fdff"/><path d="m80.90924 4.001019q125.835458 58.161946 14.376943 140.449659" stroke="#faffff"/><path d="m185.982142.605759q78.811613 28.336531 21.018504 84.831961" stroke="#000"/><path d="m184.484963 8.545102q-135.7759 34.896486-38.249843 135.629854" stroke="#f8feff"/><path d="m77.67161 7.896637q130.737498 1.234621 63.907281 137.076393" stroke="#f5fdff"/><path d="m271 10.453356q-126.095324 17.186997-53.408478 150.115574" stroke="#251e0a"/><path d="m183.82702 144.51196q-20.537186-129.802362-146.160955-44.809741" stroke="#fbffff"/><path d="m87.65391 46.091448q-62.872832 47.444116-79.231541 38.440892" stroke="#000"/><path d="m167.841054-.97355q60.854686 159.957918-91.690589 144.46287" stroke="#f4faff"/><path d="m228.156442 87.353698q39.019698-80.877511-42.685405-83.679519" stroke="#000"/><path d="m78.673812 7.939625q135.522239 20.143816 50.025448 136.482464" stroke="#f6fdff"/><path d="m249.136134 19.580118q-22.436416 32.396741-64.431244-19.182645" stroke="#000"/><path d="m181.321147 5.159669q-124.838259.258962-74.72833 139.541853" stroke="#f6fbff"/><path d="m186.114671 10.187204q-129.43585 42.439324-26.788597 135.212995" stroke="#f7fdff"/><path d="m271 97.963528q-74.244315-35.715597-83.509199-42.207299" stroke="#000"/><path d="m271-3.423266q-130.118327 119.221219-27.433943 176.287834" stroke="#0e0f01"/><path d="m86.001677 143.021746q106.397311-63.734838-5.035181-134.959731" stroke="#fbffff"/><path d="m184.126291-.034385q46.94451 44.280144 61.876587 19.440642" stroke="#000"/><path d="m185.273506 5.740143q-142.239094 40.342242-50.036082 140.412398" stroke="#f5fbff"/><path d="m188.638787 9.419215q58.940993-25.419215 67.509364 46.338824" stroke="#000"/><path d="m88.316799 3.126724q124.888803 69.182871 6.358524 142.173133" stroke="#f7fcff"/><path d="m129.479582 4.687089q-89.152925 98.718555 47.392657 136.470775" stroke="#f6fbff"/><path d="m79.295253 8.437108q113.604893 72.613966-3.272165 136.726833" stroke="#f9fdff"/><path d="m185.345188 143.300978q6.030372-159.300978-108.491659-120.591856" stroke="#f1f8ff"/><path d="m232.61731 4.305613q-69.294147 129.288064-5.583002 154.408777" stroke="#151100"/><path d="m78.595431 138.544544q104.270091-60.581322.133148-129.147272" stroke="#fcffff"/><path d="m141.438479 6.433257q73.600503 122.055955-65.981902 131.34919" stroke="#f4faff"/><path d="m74.147602 140.670724q146.153499-10.023945 89.792444-130.737434" stroke="#f3f9ff"/><path d="m191.672874 6.751564q63.826975-1.338738 34.96876 74.623792" stroke="#000"/><path d="m-16 141.220199q66.405196-42.502464 91.390963-59.052247" stroke="#000"/><path d="m116.021172 5.854802q-76.737716 125.977354 59.640021 136.377921" stroke="#f4f8ff"/><path d="m89.143441 47.755227q-70.690834 29.152064-105.143441 72.771714" stroke="#000301"/><path d="m142.238533 4.630887q-82.202344 98.999602 33.042206 135.116787" stroke="#f7fcff"/><path d="m186.855596 137.309593q-23.179261-122.10049-139.937783-44.146648" stroke="#f6f8ff"/><path d="m83.49845 52.667771q-23.357931 16.557503-74.394588 40.646396" stroke="#000"/><path d="m219.644023 90.658902q36.42086-76.179331-25.631235-82.483056" stroke="#000300"/><path d="m84.884656 10.702882q129.269117 39.015021 34.513183 132.955132" stroke="#f5faff"/><path d="m76.605666 10.576659q99.986548 60.883956 9.671473 122.577206" stroke="#f9fcff"/><path d="m268.56496 21.39313q-62.132557 8.322098-88.025195-22.580643" stroke="#000"/><path d="m79.937673 63.907619q-59.533099 42.440035-91.02578 13.522678" stroke="#000"/><path d="m237.900813 36.520262q-10.207365-40.741186-48.156506-26.996717" stroke="#000"/><path d="m92.008805 8.80219q102.979005 73.779455-4.793315 135.523089" stroke="#f8fcff"/><path d="m188.707537 18.111133q-69.702893 25.903004-204.707537 118.090801" stroke="#f5faff"/><path d="m185.890589 8.591272q-131.873451 45.168781-34.772838 137.120988" stroke="#f3f8ff"/><path d="m185.200238 144.563465q.173467-142.625523-107.048026-101.540885" stroke="#f2f8ff"/><path d="m12.801723 81.732248q6.20576 14.607163 66.539596-17.625635" stroke="#000"/><path d="m102.194869 146.058744q106.598878-74.98633-3.734768-141.662975" stroke="#f4f8ff"/><path d="m83.119473 3.464042q-17.11664 38.49569 93.494877 136.956339" stroke="#f4f9ff"/><path d="m78.113785 138.536054q7.079481-13.627761 109.670318-131.12421" stroke="#f3faff"/><path d="m9.796533 86.685367q79.844846-29.466283 78.265324-43.560518" stroke="#000"/><path d="m156.640201-16q76.80276 146.09658-77.114057 157.518187" stroke="#eef3ff"/><path d="m186.401407 132.273946q-53.988098 22.733646-107.30665-129.713669" stroke="#f0f5ff"/><path d="m79.039055 132.787334q97.204735-58.088908-.76807-119.611825" stroke="#f7fcff"/><path d="m266.935487 121.905504q4.064513-25.578388-79.74014-68.288889" stroke="#000028"/><path d="m-6.53889 139.297652q54.708904-41.400992 83.015011-55.253847" stroke="#150700"/><path d="m90.697193 45.701647q-70.583221 40.9243-87.722656 48.261969" stroke="#000"/><path d="m184.895647 2.674211q54.680744-6.119561 61.099814 28.326374" stroke="#000"/><path d="m77.084227 142.345368q124.121794 9.309971 104.921054-125.423144" stroke="#f0f6ff"/><path d="m231.206585 173q-90.069345-80.351377 39.793415-183.09401" stroke="#31260d"/><path d="m176.759279 145.149078q-118.853165-39.829274-44.482207-133.224967" stroke="#f4f8ff"/><path d="m102.430005 144.754443q-52.15699-67.258955 83.671954-133.740945" stroke="#f0f6ff"/><path d="m238.976606 39.823347q-6.269913-52.168825-45.2965-27.251046" stroke="#000"/><path d="m77.652889 18.081683q74.894102-34.081683 108.810136 127.308797" stroke="#eff5ff"/><path d="m225.3483-2.89102q-70.82826 65.026768 20.716607 95.452962" stroke="#120f00"/><path d="m113.175944 27.86871q-66.689844 112.283989 60.405715 117.434209" stroke="#f6f9ff"/><path d="m77.529617 135.473051q150.732561-17.566162 63.977487-149.428055" stroke="#edf2ff"/><path d="m191.114587 15.535567q55.285429-20.09758 54.961158 39.680248" stroke="#000200"/><path d="m183.884818 145.463755q-6.536569-53.146782-104.299105-120.839826" stroke="#f4faff"/><path d="m193.661551 10.075378q37.009384-26.075378 56.426189 22.370142" stroke="#000"/><path d="m189.336432 61.105958q27.347078 8.716261 58.766895 30.603374" stroke="#000"/><path d="m-16 138.859967q32.928616-18.007756 95.489638-61.513622" stroke="#000"/><path d="m99.836544 3.183664q102.186501 97.339106-21.16258 142.465929" stroke="#f0f4ff"/><path d="m174.946009 4.036551q37.423552 110.386687-99.350225 99.029157" stroke="#edf3ff"/><path d="m177.672517 146.941437q-63.10063-88.61187-100.039465-142.191735" stroke="#f1f4ff"/><path d="m183.154693 23.790993q-48.78139-24.047899-101.404696 121.225965" stroke="#f0f5ff"/><path d="m86.75796 5.619489q127.027293.382432 90.850385 127.036846" stroke="#eaf1ff"/><path d="m183.886448 139.073747q-3.749363-132.557518-104.811942-94.132756" stroke="#f0f6ff"/><path d="m234.761581 2.656956q-72.806915 135.325661-.702621 157.155178" stroke="#19190b"/><path d="m174.05382 142.988142q-116.133981 15.602693-76.73124-131.231814" stroke="#ebf0ff"/><path d="m185.971196 54.239914q77.646609 38.570607 79.238155 66.814644" stroke="#00000f"/><path d="m86.342881 46.391019q-62.961979 32.827985-77.758201 44.48923" stroke="#001113"/><path d="m152.964292 142.588292q42.252267-133.979618-72.34666-133.179263" stroke="#edf4ff"/><path d="m255.011908 18.582767q-28.282924 37.367178-62.9575-15.521905" stroke="#000"/><path d="m93.084336 136.350097q102.116023-52.092472.066567-129.658341" stroke="#f3f7ff"/><path d="m176.348603-16q39.221127 57.988329 72.544043 35.992488" stroke="#000"/><path d="m189.053304.914995q43.133186 7.605145 45.774067 42.350094" stroke="#000"/><path d="m85.809754 59.653023q-30.463888 27.709206-69.401086 31.106959" stroke="#0b0500"/><path d="m185.213789 6.87401q11.455589 31.88102-104.732103 130.628066" stroke="#f0f5ff"/><path d="m271 76.628675q-15.87976 26.247867-83.644893-20.668824" stroke="#000"/><path d="m175.458929 141.202111q-132.748012-13.042692-56.384458-130.634835" stroke="#f0f3ff"/><path d="m186.716858 14.556721q-21.585173 20.804518-104.674636 119.556792" stroke="#f2f7ff"/><path d="m113.245706 142.35371q-51.570628-144.067088 75.122412-134.39957" stroke="#ebefff"/><path d="m174.469211 142.697029q-110.638801-81.308165-15.334533-137.700611" stroke="#f0f4ff"/><path d="m76.754681 138.810328q28.045256-42.873836 109.321645-131.604716" stroke="#edf2ff"/><path d="m78.764455 104.721745q115.435183 40.732281 106.99478-96.627714" stroke="#ebf1ff"/><path d="m225.379819.798853q25.466516 12.178344-23.468833 84.421462" stroke="#000300"/><path d="m177.231983 144.19503q-64.251479-19.003769-98.266657-138.425756" stroke="#f0f3ff"/><path d="m86.528631 2.854601q4.226876 71.873238 99.915034 119.986148" stroke="#f1f4ff"/><path d="m217.021649 82.722924q37.724402-76.116628-36.485728-81.660832" stroke="#000604"/><path d="m185.164699 7.823112q1.715395 126.3706-109.70769 69.581279" stroke="#ecf1ff"/><path d="m241.200513 8.225037q-89.565185 78.082541-15.536115 164.079772" stroke="#3d2f14"/><path d="m115.73129 143.173067q-77.442359-70.166457 39.244225-138.030671" stroke="#ecf1ff"/><path d="m98.172118 3.546093q102.258975 8.736007 57.83905 137.415124" stroke="#eaf0ff"/><path d="m182.453678 143.903849q-9.312314-53.480531-105.830414-118.231221" stroke="#eff4ff"/><path d="m20.318117 89.934597q72.192114-25.665164 71.329456-33.762987" stroke="#000400"/><path d="m81.80986 136.635342q121.145872-43.160875 25.286258-129.977117" stroke="#eff2ff"/><path d="m168.236804-16q46.268236 59.940693 79.366388 41.50236" stroke="#000"/><path d="m184.465085-14.959661q2.592581 41.415507 64.008134 33.088186" stroke="#000"/><path d="m151.22289 146.453165q38.315558-143.740314-69.534294-138.54834" stroke="#e9efff"/><path d="m80.647714 18.719935q103.551227-11.474644 67.85827 127.305599" stroke="#ecf0ff"/><path d="m78.174994 143.203782q146.728121 5.936019 79.837064-137.079091" stroke="#e9eeff"/><path d="m188.432573 8.167322q52.900902-24.167322 51.050903 42.739898" stroke="#000"/><path d="m78.191046 21.378756q108.707535-2.026428 60.261764 123.895715" stroke="#ecf0ff"/><path d="m77.218849 23.631643q134.549765 1.601274 103.115098 108.967698" stroke="#eaeeff"/><path d="m130.567735 2.644374q72.988033 125.584962-38.262457 141.127975" stroke="#eaeeff"/><path d="m14.583131 83.948316q36.903341 10.561823 66.727097-32.875445" stroke="#000"/><path d="m88.193364 144.478075q15.419846-87.488317 95.721878-130.307845" stroke="#eef2ff"/><path d="m185.015802.199225q58.010893-.579316 49.044839 43.86317" stroke="#000"/><path d="m116.763069 144.407774q71.430426-71.943371-38.5443-139.252114" stroke="#edefff"/><path d="m84.012512 141.247968q16.719839-33.276096 100.728849-119.586375" stroke="#eff3ff"/><path d="m139.725677 144.317367q-88.726755-111.462085 42.824423-136.120523" stroke="#eaeeff"/><path d="m153.494108 141.333416q-96.694621-84.954621 19.675262-129.765927" stroke="#ebefff"/><path d="m172.14412 142.893803q-28.506209-41.054699-90.9983-128.022653" stroke="#eff2ff"/><path d="m73.20435 84.484248q-31.955823 13.213228-89.20435 60.68457" stroke="#070500"/><path d="m10.282101 88.04222q26.886109-14.422579 77.270728-38.631168" stroke="#000"/><path d="m261.04327 103.570218q-17.947889-28.460755-75.862471-45.286473" stroke="#000028"/><path d="m18.339045 82.164063q21.214203 6.178699 72.754147-26.177686" stroke="#001b1f"/><path d="m172.435568 3.755151q-128.442916 46.370675-44.311946 141.230214" stroke="#e9ecff"/><path d="m266.314056 103.370922q-64.507273-31.804029-80.062153-48.060982" stroke="#100800"/><path d="m182.17197-10.311006q46.809351 56.288559 88.82803 12.735201" stroke="#000"/><path d="m229.704251 46.545079q10.424806-50.479582-40.273179-34.946545" stroke="#000"/><path d="m189.745792 3.458094q36.844804 40.827387 54.7566 11.663315" stroke="#000"/><path d="m250.854712 19.472715q-43.105353 34.490467-55.170281-22.139831" stroke="#000"/><path d="m86.169747 130.629386q129.310865-16.408281 60.974967-125.748547" stroke="#e9eeff"/><path d="m181.335683 129.852163q-17.544683-98.747548-103.48121-38.146383" stroke="#f0f4ff"/><path d="m73.603141 83.91441q-89.603141 60.561073-89.603141 65.967105" stroke="#362200"/><path d="m200.510614 19.173098q17.385664-35.173098 45.875086-.47112" stroke="#000"/><path d="m94.126346 144.646415q-23.816131-83.971457 91.880145-118.056841" stroke="#ebeeff"/><path d="m85.166859 110.937456q-22.777286 25.935022-6.318532 35.122691" stroke="#000"/><path d="m-8.218282 99.426269q46.34362-18.212269 94.473511-51.895654" stroke="#000"/><path d="m179.916055 11.030456q15.876127 86.520707-102.943766 67.372704" stroke="#ecf0ff"/><path d="m84.851709 143.138793q111.835025-73.534776 2.128056-140.287563" stroke="#e9ebfe"/><path d="m248.895822 90.848284q-30.755689-12.805096-61.323903-33.610002" stroke="#000"/><path d="m83.480844 10.472239q55.719934 81.882534 103.798682 120.64012" stroke="#edefff"/><path d="m85.515356-16q-31.024537 55.168321 86.388985 153.777856" stroke="#ebeeff"/><path d="m187.029695 4.654096q-68.794939 67.037915-104.901297 124.673155" stroke="#e8edff"/><path d="m84.321201 137.347992q93.452837-47.643907 8.371145-126.292782" stroke="#eceeff"/><path d="m80.549925 59.044019q102.752522-35.950128 101.494422 81.519059" stroke="#e9eeff"/><path d="m76.632832 94.301133q117.886496 45.583088 107.575569-84.584896" stroke="#e8ecfd"/><path d="m233.16621 43.956687q8.059966-44.441431-45.242942-38.444903" stroke="#000"/><path d="m180.383854 6.233486q-118.68055-8.355731-81.713598 121.44062" stroke="#e4e9fa"/><path d="m110.414812 3.134716q86.029632 112.090239-17.509571 142.343704" stroke="#e9eafd"/><path d="m28.866846 93.360074q17.899339-9.302848 58.300107-48.347292" stroke="#041109"/><path d="m85.305483 109.216709q-1.907424 15.138008-15.85931 24.679461" stroke="#000"/><path d="m212.6737-1.785718q-12.29998 35.824075 21.450837 40.456255" stroke="#000"/><path d="m-16 151.197793q0-9.901871 79.090311-61.400266" stroke="#040100"/><path d="m233.731219 42.761817q-35.262972-58.761817-77.826167-39.292451" stroke="#000408"/><path d="m185.187094 109.827274q-43.297113 24.958897-107.992807-96.002028" stroke="#ebeeff"/><path d="m122.598712 143.896258q-63.601245-125.963174 54.69243-137.525896" stroke="#e8ebfd"/><path d="m147.333731 12.56525q-65.712637 82.926619 26.56869 126.509815" stroke="#eaedff"/><path d="m184.974477 52.362392q15.108422 2.761069 61.635288 37.704925" stroke="#000049"/><path d="m194.968034-16q14.086692 63.577716 47.377933 48.84299" stroke="#000"/><path d="m25.129582 109.982116q128.284037-96.126285 158.08387 30.633716" stroke="#e8ebfa"/><path d="m177.54728 13.838697q-130.993903 76.705456-193.54728 122.126311" stroke="#e9e8f2"/><path d="m243.889212 30.354027q-9.343828-42.511921-45.718069-13.503353" stroke="#000"/><path d="m249.5949-16q-93.147377 140.525149-10.891985 189" stroke="#28291c"/><path d="m78.504223 110.941744q2.941239-81.720632 107.435094-38.916214" stroke="#eef1ff"/><path d="m223.812681 160.326324q-64.579151-29.865354 17.904571-176.326324" stroke="#3a3018"/><path d="m169.391143 8.533288q56.571081 108.616852-72.84195 137.362841" stroke="#e3e7f8"/><path d="m93.781428 142.510589q107.52372-57.793083 10.67507-139.139044" stroke="#e8eafb"/><path d="m85.524539 110.699411q-7.120073.349588-11.881376 22.984454" stroke="#000"/><path d="m175.152165 142.65491q-10.937607-26.148277-95.062046-129.973763" stroke="#ebedff"/><path d="m174.699181-16q94.563513 17.107239 40.383435 188.494124" stroke="#322b17"/><path d="m185.582221 145.103061q10.244659-161.103061-97.51337-137.274403" stroke="#e4e8f7"/><path d="m241.837993 31.907662q-8.785291-47.907662-45.277978-16.015701" stroke="#000"/><path d="m166.894432 21.590099q-98.341714 60.289239.392137 118.681862" stroke="#eaecff"/><path d="m178.342803 8.05395q8.639252 120.576218-101.31244 68.316544" stroke="#e8ebfd"/><path d="m10.599953 94.009414q13.361105-5.51611 73.636018-48.130284" stroke="#000b0a"/><path d="m243.261611 163.671502q-92.04294-33.977244-7.005247-169.854594" stroke="#2d2b1a"/><path d="m80.626899 136.420944q18.015449-14.630674 101.008163-110.44926" stroke="#ebeeff"/><path d="m76.721657 36.645929q133.503434-9.869788 77.842687 111.589546" stroke="#e5e7f8"/><path d="m255.682243 97.105506q-41.383353-24.211222-65.290934-41.237116" stroke="#000002"/><path d="m175.861639 145.183002q-111.639262-8.350688-65.026565-132.270907" stroke="#e8e9fb"/><path d="m265.945768 19.868353q-69.07471 1.069595-87.903683-23.990638" stroke="#000"/><path d="m245.485246-3.058836q-71.631329 8.620015-18.377535 167.775999" stroke="#413720"/><path d="m83.93607 107.552337q-7.85441 22.78258-9.362312 28.291786" stroke="#000"/><path d="m99.807443 18.639578q-48.185911 138.28797 78.535694 125.784427" stroke="#e1e4f4"/><path d="m19.177335 82.118398q10.580542 14.175363 57.529394-13.537967" stroke="#080500"/><path d="m84.530872 48.178083q-5.537972 1.571163-68.639189 40.804146" stroke="#000003"/><path d="m121.363489 143.212146q100.001437-97.620285-15.378569-139.28517" stroke="#e4e8f9"/><path d="m9.755515 87.200649q62.466386-27.514237 71.949229-33.986989" stroke="#000"/><path d="m188.163619 58.62176q13.631489-5.877749 66.128264 36.313987" stroke="#000d42"/><path d="m186.170064 21.993405q-73.223055 103.393236-109.217371 74.407411" stroke="#e9ecfd"/><path d="m79.436259 16.707966q39.758864 55.663959 91.352712 128.115975" stroke="#eaecfe"/><path d="m75.733275 136.39285q139.136975-12.173415 82.398995-126.831984" stroke="#e4e7f8"/><path d="m78.60789 18.728275q100.21964 73.697655 106.700651 127.09671" stroke="#e8eafb"/><path d="m236.933329 41.493135q-.433105-50.32105-51.826634-37.624744" stroke="#000001"/><path d="m247.223537 23.572529q-35.620609 25.980657-59.04494-39.572529" stroke="#000"/><path d="m76.797333 104.422391q76.284944-84.049433 143.377037 41.780676" stroke="#e1e3ef"/><path d="m173.274146 133.920085q-84.801358 39.079915-93.443416-64.595519" stroke="#eaedff"/><path d="m176.929134-9.698194q17.306166 28.565528 71.844575 26.841657" stroke="#000"/><path d="m185.590199 27.122141q-55.557444 106.600101-108.183941 51.225401" stroke="#e8ebfc"/><path d="m105.628323 22.435699q80.522981 79.13407-27.566553 117.279816" stroke="#e7e8fa"/><path d="m28.388234 90.131465q12.246727.763191 46.780778-39.305623" stroke="#000d05"/><path d="m190.674242 8.307808q13.584139 15.519212 67.256044 18.170899" stroke="#000"/><path d="m231.323623-3.636336q-35.236302 27.728371 1.20072 48.424475" stroke="#000"/><path d="m128.019803 5.29452q88.474268 84.550104-38.877218 138.807623" stroke="#e4e7f8"/><path d="m187.323191 61.998905q42.456248 11.829521 62.479279 26.074339" stroke="#00001e"/><path d="m126.262768 144.537845q-67.997251-115.188363 56.417974-140.40758" stroke="#e2e4f3"/><path d="m78.15474 87.518127q80.284382 49.40612 106.297074-76.30615" stroke="#e5e8f8"/><path d="m64.612876 137.168967q16.054975 1.054194 18.62951-27.65469" stroke="#000200"/><path d="m100.186141 3.975725q138.394723 42.161405 55.589737 139.845948" stroke="#dfe2f0"/><path d="m238.760246 34.053808q9.376733-21.749374-41.785893-33.484311" stroke="#000"/><path d="m186.690632 57.279749q26.234441 26.076066 66.296062 32.041214" stroke="#161100"/><path d="m185.625871 126.537864q-15.908661-111.56597-107.171855-79.446266" stroke="#e5e8f9"/><path d="m84.525318 61.591221q-36.011145 22.095913-70.020824 25.505195" stroke="#000103"/><path d="m-14.057566 136.775724q160.891153-125.867099 199.097811-44.574022" stroke="#e5e5ef"/><path d="m271 4.720293q-49.717486 43.084935-80.52159-8.560448" stroke="#000003"/><path d="m212.002736.146965q37.927984 12.761111 8.836449 41.78651" stroke="#000"/><path d="m14.094709 86.526303q56.75346-21.873305 72.607993-35.508918" stroke="#000400"/><path d="m252.788068 4.131413q-61.396854 32.550597-22.981748 168.868587" stroke="#4f3f23"/><path d="m91.970038 3.970908q118.249327 63.937818 16.698611 141.13165" stroke="#e4e6f5"/><path d="m73.801634 20.623536q144.164014-8.756393 87.351484 117.742716" stroke="#e0e4f3"/><path d="m71.77186 82.216313q-21.426973 13.81912-72.109402 48.775826" stroke="#131204"/><path d="m226.190248 42.207046q14.372746-26.349336-62.076389-53.588477" stroke="#000"/><path d="m166.3481 144.499314q-113.526283-73.165327 10.209428-141.898882" stroke="#e3e4f4"/><path d="m82.594911 108.217276q-3.599418 21.185843-8.98722 34.738166" stroke="#000200"/><path d="m181.408191 16.96113q-106.400848 61.965926-13.673848 122.237978" stroke="#e5e7f8"/><path d="m178.048487 142.621066q-116.746997 13.605046-77.297302-123.157738" stroke="#e4e5f6"/><path d="m6.090632 137.410554q30.71382-51.127306 73.123546-9.670049" stroke="#402e0d"/><path d="m-16 156.829374q0-2.940586 287-2.679832" stroke="#866536"/><path d="m153.817871 4.106431q-92.874765 59.620297-.288565 138.713176" stroke="#e4e5f6"/><path d="m158.80771 132.53816q-64.870184 40.46184-80.754446-56.511224" stroke="#e5e8fa"/><path d="m79.266827 34.495977q100.264449 67.673115 99.837005 106.235367" stroke="#e2e7f7"/><path d="m207.533223 153.558157q14.910851-12.729474 19.939658 5.772983" stroke="#000"/><path d="m171.031231-16q52.732376 65.659523 74.983816 42.803195" stroke="#000"/><path d="m244.085137 93.412353q-58.324602-27.001078-55.300253-37.432582" stroke="#352100"/><path d="m227.926476 151.11789q-46.70806 21.88211-50.040731-11.42695" stroke="#000700"/><path d="m-7.902697 127.754692q98.30644 13.296698 78.734933-89.444619" stroke="#604b26"/><path d="m82.578194 138.449629q140.748888-13.426055 73.374758-154.449629" stroke="#dfe2f1"/><path d="m161.288742 7.023581q65.307114 147.936765-86.845339 136.887608" stroke="#e0e3f1"/><path d="m78.436974 20.8417q32.29176 60.985687 93.85476 111.837814" stroke="#e6e8f8"/><path d="m206.689522 3.404061q44.157666 1.414658 24.376652 37.732304" stroke="#000"/><path d="m80.401886 109.605112q-15.409027-59.329129 103.38342-66.209923" stroke="#e7e9f9"/><path d="m247.044616 22.124502q-25.600553-35.746015-48.37918 2.966085" stroke="#000"/><path d="m213.227419 145.212869q5.460851-59.19766-134.774192-60.390771" stroke="#e3e5ef"/><path d="m75.567322 30.424348q123.668753-16.334245 107.063135 114.979728" stroke="#e1e4f3"/><path d="m120.329995 145.921847q-62.742669-61.936876 63.598904-132.758823" stroke="#e2e4f3"/><path d="m18.182867 88.036318q31.019154.213517 71.301079-30.68716" stroke="#000600"/><path d="m70.70232 136.850532q9.893239-19.558558 10.97113-27.749546" stroke="#000"/><path d="m185.645088 7.740107q-124.66643-21.436132-85.233059 111.293173" stroke="#dde0ee"/><path d="m82.726645 49.881879q-36.158275 32.326993-63.874942 31.898366" stroke="#000805"/><path d="m186.718011 16.336082q-45.02283 47.207471-107.708779 124.010222" stroke="#e3e5f4"/><path d="m81.185068 7.621997q91.539392 105.125755 91.180487 137.779559" stroke="#e5e6f6"/><path d="m249.543453 88.613694q-61.874803-29.439437-62.182416-36.394349" stroke="#000017"/><path d="m78.128937 72.97804q70.882498-58.505949 105.73186 47.151699" stroke="#e4e7f6"/><path d="m230.493825 42.159867q13.258242-28.300643-45.164191-46.950813" stroke="#000"/><path d="m92.809252 139.975595q110.423831-63.171531 29.832654-136.10429" stroke="#e2e4f3"/><path d="m231.962732 42.774073q-29.970235-15.582044-.00398-42.526545" stroke="#000"/><path d="m200.715114 2.996105q13.623959 39.624897 48.718346 16.951153" stroke="#000"/></g></svg>