<svg xmlns="http://www.w3.org/2000/svg" version="1.1" width="1024" height="632">
<rect x="0" y="0" width="1024" height="632" fill="#a39889" />
<g transform="scale(4.000000) translate(0.5 0.5)">
<path stroke="#010200" stroke-opacity="0.501961" fill="none" d="M 173.143693 0.157218 Q 241.706131 -11.328212, 236.497815 114.654894" stroke-width="0.500000" />
<path stroke="#000000" stroke-opacity="0.501961" fill="none" d="M 172.869880 3.156411 Q 271.000000 -11.891034, 244.047213 94.560385" stroke-width="0.500000" />
<path stroke="#000000" stroke-opacity="0.501961" fill="none" d="M 227.434200 -0.600780 Q 173.623176 76.372235, 257.191287 89.246297" stroke-width="0.500000" />
<path stroke="#000000" stroke-opacity="0.501961" fill="none" d="M 228.021117 163.621639 Q 156.756115 113.222454, 249.299810 14.767012" stroke-width="0.500000" />
<path stroke="#090700" stroke-opacity="0.501961" fill="none" d="M 217.909264 157.787401 Q 260.922330 14.424076, 183.173102 -0.323661" stroke-width="0.500000" />
<path stroke="#000000" stroke-opacity="0.501961" fill="none" d="M 183.560085 -0.051003 Q 263.506185 37.644494, 197.796104 89.489847" stroke-width="0.500000" />
<path stroke="#000000" stroke-opacity="0.501961" fill="none" d="M 237.422591 8.429865 Q 163.547680 135.852689, 234.342159 161.536608" stroke-width="0.500000" />
<path stroke="#000000" stroke-opacity="0.501961" fill="none" d="M 11.277792 93.281069 Q 33.100063 78.041082, 87.916975 48.891235" stroke-width="0.500000" />
<path stroke="#000000" stroke-opacity="0.501961" fill="none" d="M 194.562035 107.414586 Q 271.000000 43.699315, 179.949517 0.004955" stroke-width="0.500000" />
<path stroke="#000000" stroke-opacity="0.501961" fill="none" d="M 180.708649 3.929105 Q 271.000000 -6.072904, 238.664743 94.676480" stroke-width="0.500000" />
<path stroke="#000000" stroke-opacity="0.501961" fill="none" d="M 228.372909 -5.056959 Q 159.704726 66.545975, 252.169151 91.208085" stroke-width="0.500000" />
<path stroke="#000000" stroke-opacity="0.501961" fill="none" d="M 4.895113 92.101034 Q 48.263513 69.513262, 92.070376 44.002466" stroke-width="0.500000" />
<path stroke="#161200" stroke-opacity="0.501961" fill="none" d="M 227.122992 157.601507 Q 146.608665 108.230296, 271.000000 -10.256911" stroke-width="0.500000" />
<path stroke="#161101" stroke-opacity="0.501961" fill="none" d="M 186.036817 3.973821 Q 271.000000 9.408217, 221.457093 156.825230" stroke-width="0.500000" />
<path stroke="#f7feff" stroke-opacity="0.501961" fill="none" d="M 71.982973 141.768727 Q 224.462979 157.959009, 166.342311 5.612137" stroke-width="0.500000" />
<path stroke="#000000" stroke-opacity="0.501961" fill="none" d="M 90.295758 46.198727 Q 51.198965 74.531144, 15.526736 87.378687" stroke-width="0.500000" />
<path stroke="#000000" stroke-opacity="0.501961" fill="none" d="M -16.000000 153.778013 Q -16.000000 137.690593, 80.206138 78.186253" stroke-width="0.500000" />
<path stroke="#000000" stroke-opacity="0.501961" fill="none" d="M 91.968582 57.171352 Q 21.218118 99.800612, 13.573052 84.161075" stroke-width="0.500000" />
<path stroke="#000000" stroke-opacity="0.501961" fill="none" d="M 172.545464 -1.274991 Q 253.963440 -1.666633, 238.696017 97.616968" stroke-width="0.500000" />
<path stroke="#000000" stroke-opacity="0.501961" fill="none" d="M 188.490512 6.666331 Q 247.020840 -16.000000, 254.279696 62.823285" stroke-width="0.500000" />
<path stroke="#000000" stroke-opacity="0.501961" fill="none" d="M 180.311311 2.985447 Q 266.803941 -3.114151, 234.093510 91.435305" stroke-width="0.500000" />
<path stroke="#000000" stroke-opacity="0.501961" fill="none" d="M 229.780184 -1.602221 Q 172.918082 76.528766, 266.282721 89.991034" stroke-width="0.500000" />
<path stroke="#000000" stroke-opacity="0.501961" fill="none" d="M 250.340683 20.531002 Q 233.405969 49.719780, 186.011775 1.935228" stroke-width="0.500000" />
<path stroke="#f9ffff" stroke-opacity="0.501961" fill="none" d="M 79.552762 141.243609 Q 224.510120 146.250730, 159.031728 4.553381" stroke-width="0.500000" />
<path stroke="#000000" stroke-opacity="0.501961" fill="none" d="M 218.395431 -8.594119 Q 153.113097 61.795176, 248.397467 88.630359" stroke-width="0.500000" />
<path stroke="#faffff" stroke-opacity="0.501961" fill="none" d="M 77.745848 140.920965 Q 219.802275 140.397984, 150.632071 4.735626" stroke-width="0.500000" />
<path stroke="#fcffff" stroke-opacity="0.501961" fill="none" d="M 139.078244 2.991845 Q 38.052937 108.225208, 174.575436 145.686211" stroke-width="0.500000" />
<path stroke="#000000" stroke-opacity="0.501961" fill="none" d="M -16.000000 83.199379 Q 17.760487 100.019924, 87.614572 44.355746" stroke-width="0.500000" />
<path stroke="#f9ffff" stroke-opacity="0.501961" fill="none" d="M 143.813560 4.115986 Q 224.308392 128.374010, 76.595021 139.334353" stroke-width="0.500000" />
<path stroke="#000000" stroke-opacity="0.501961" fill="none" d="M 196.728192 88.872617 Q 262.695457 35.041680, 178.931913 -0.940540" stroke-width="0.500000" />
<path stroke="#000000" stroke-opacity="0.501961" fill="none" d="M 223.732383 -2.527104 Q 160.101418 66.666941, 250.938403 92.934443" stroke-width="0.500000" />
<path stroke="#fbffff" stroke-opacity="0.501961" fill="none" d="M 108.290290 1.741437 Q 58.828862 148.785677, 176.486170 142.510939" stroke-width="0.500000" />
<path stroke="#f8feff" stroke-opacity="0.501961" fill="none" d="M 137.468344 145.892197 Q 45.372914 33.288845, 185.562955 5.506261" stroke-width="0.500000" />
<path stroke="#fcffff" stroke-opacity="0.501961" fill="none" d="M 77.212865 142.062593 Q 195.862235 70.144484, 78.521225 3.784096" stroke-width="0.500000" />
<path stroke="#000000" stroke-opacity="0.501961" fill="none" d="M 234.082838 -9.844254 Q 161.923491 62.375400, 258.252555 92.776228" stroke-width="0.500000" />
<path stroke="#f4fcff" stroke-opacity="0.501961" fill="none" d="M 157.729902 145.620978 Q 217.172667 -4.007623, 79.308780 5.349720" stroke-width="0.500000" />
<path stroke="#000000" stroke-opacity="0.501961" fill="none" d="M 88.468653 59.110561 Q 63.484606 81.031500, 11.928379 89.347933" stroke-width="0.500000" />
<path stroke="#000000" stroke-opacity="0.501961" fill="none" d="M 232.911953 3.191091 Q 165.344497 58.775223, 244.370776 89.971621" stroke-width="0.500000" />
<path stroke="#000000" stroke-opacity="0.501961" fill="none" d="M 164.983943 -3.438900 Q 239.551961 5.135577, 243.251067 97.792486" stroke-width="0.500000" />
<path stroke="#faffff" stroke-opacity="0.501961" fill="none" d="M 76.359318 140.035324 Q 212.346642 110.076972, 117.850910 3.942747" stroke-width="0.500000" />
<path stroke="#f6fdff" stroke-opacity="0.501961" fill="none" d="M 154.065856 142.959477 Q 202.315289 1.065090, 79.842360 6.504185" stroke-width="0.500000" />
<path stroke="#faffff" stroke-opacity="0.501961" fill="none" d="M 80.909240 4.001019 Q 206.744698 62.162965, 95.286183 144.450678" stroke-width="0.500000" />
<path stroke="#000000" stroke-opacity="0.501961" fill="none" d="M 185.982142 0.605759 Q 264.793755 28.942290, 207.000646 85.437720" stroke-width="0.500000" />
<path stroke="#f8feff" stroke-opacity="0.501961" fill="none" d="M 184.484963 8.545102 Q 48.709063 43.441588, 146.235120 144.174956" stroke-width="0.500000" />
<path stroke="#f5fdff" stroke-opacity="0.501961" fill="none" d="M 77.671610 7.896637 Q 208.409108 9.131258, 141.578891 144.973030" stroke-width="0.500000" />
<path stroke="#251e0a" stroke-opacity="0.501961" fill="none" d="M 271.000000 10.453356 Q 144.904676 27.640353, 217.591522 160.568930" stroke-width="0.500000" />
<path stroke="#fbffff" stroke-opacity="0.501961" fill="none" d="M 183.827020 144.511960 Q 163.289834 14.709598, 37.666065 99.702219" stroke-width="0.500000" />
<path stroke="#000000" stroke-opacity="0.501961" fill="none" d="M 87.653910 46.091448 Q 24.781078 93.535564, 8.422369 84.532340" stroke-width="0.500000" />
<path stroke="#f4faff" stroke-opacity="0.501961" fill="none" d="M 167.841054 -0.973550 Q 228.695740 158.984368, 76.150465 143.489320" stroke-width="0.500000" />
<path stroke="#000000" stroke-opacity="0.501961" fill="none" d="M 228.156442 87.353698 Q 267.176140 6.476187, 185.471037 3.674179" stroke-width="0.500000" />
<path stroke="#f6fdff" stroke-opacity="0.501961" fill="none" d="M 78.673812 7.939625 Q 214.196051 28.083441, 128.699260 144.422089" stroke-width="0.500000" />
<path stroke="#000000" stroke-opacity="0.501961" fill="none" d="M 249.136134 19.580118 Q 226.699718 51.976859, 184.704890 0.397473" stroke-width="0.500000" />
<path stroke="#f6fbff" stroke-opacity="0.501961" fill="none" d="M 181.321147 5.159669 Q 56.482888 5.418631, 106.592817 144.701522" stroke-width="0.500000" />
<path stroke="#f7fdff" stroke-opacity="0.501961" fill="none" d="M 186.114671 10.187204 Q 56.678821 52.626528, 159.326074 145.400199" stroke-width="0.500000" />
<path stroke="#000000" stroke-opacity="0.501961" fill="none" d="M 271.000000 97.963528 Q 196.755685 62.247931, 187.490801 55.756229" stroke-width="0.500000" />
<path stroke="#0e0f01" stroke-opacity="0.501961" fill="none" d="M 271.000000 -3.423266 Q 140.881673 115.797953, 243.566057 172.864568" stroke-width="0.500000" />
<path stroke="#fbffff" stroke-opacity="0.501961" fill="none" d="M 86.001677 143.021746 Q 192.398988 79.286908, 80.966496 8.062015" stroke-width="0.500000" />
<path stroke="#000000" stroke-opacity="0.501961" fill="none" d="M 184.126291 -0.034385 Q 231.070801 44.245759, 246.002878 19.406257" stroke-width="0.500000" />
<path stroke="#f5fbff" stroke-opacity="0.501961" fill="none" d="M 185.273506 5.740143 Q 43.034412 46.082385, 135.237424 146.152541" stroke-width="0.500000" />
<path stroke="#000000" stroke-opacity="0.501961" fill="none" d="M 188.638787 9.419215 Q 247.579780 -16.000000, 256.148151 55.758039" stroke-width="0.500000" />
<path stroke="#f7fcff" stroke-opacity="0.501961" fill="none" d="M 88.316799 3.126724 Q 213.205602 72.309595, 94.675323 145.299857" stroke-width="0.500000" />
<path stroke="#f6fbff" stroke-opacity="0.501961" fill="none" d="M 129.479582 4.687089 Q 40.326657 103.405644, 176.872239 141.157864" stroke-width="0.500000" />
<path stroke="#f9fdff" stroke-opacity="0.501961" fill="none" d="M 79.295253 8.437108 Q 192.900146 81.051074, 76.023088 145.163941" stroke-width="0.500000" />
<path stroke="#f1f8ff" stroke-opacity="0.501961" fill="none" d="M 185.345188 143.300978 Q 191.375560 -16.000000, 76.853529 22.709122" stroke-width="0.500000" />
<path stroke="#151100" stroke-opacity="0.501961" fill="none" d="M 232.617310 4.305613 Q 163.323163 133.593677, 227.034308 158.714390" stroke-width="0.500000" />
<path stroke="#fcffff" stroke-opacity="0.501961" fill="none" d="M 78.595431 138.544544 Q 182.865522 77.963222, 78.728579 9.397272" stroke-width="0.500000" />
<path stroke="#f4faff" stroke-opacity="0.501961" fill="none" d="M 141.438479 6.433257 Q 215.038982 128.489212, 75.456577 137.782447" stroke-width="0.500000" />
<path stroke="#f3f9ff" stroke-opacity="0.501961" fill="none" d="M 74.147602 140.670724 Q 220.301101 130.646779, 163.940046 9.933290" stroke-width="0.500000" />
<path stroke="#000000" stroke-opacity="0.501961" fill="none" d="M 191.672874 6.751564 Q 255.499849 5.412826, 226.641634 81.375356" stroke-width="0.500000" />
<path stroke="#000000" stroke-opacity="0.501961" fill="none" d="M -16.000000 141.220199 Q 50.405196 98.717735, 75.390963 82.167952" stroke-width="0.500000" />
<path stroke="#f4f8ff" stroke-opacity="0.501961" fill="none" d="M 116.021172 5.854802 Q 39.283456 131.832156, 175.661193 142.232723" stroke-width="0.500000" />
<path stroke="#000301" stroke-opacity="0.501961" fill="none" d="M 89.143441 47.755227 Q 18.452607 76.907291, -16.000000 120.526941" stroke-width="0.500000" />
<path stroke="#f7fcff" stroke-opacity="0.501961" fill="none" d="M 142.238533 4.630887 Q 60.036189 103.630489, 175.280739 139.747674" stroke-width="0.500000" />
<path stroke="#f6f8ff" stroke-opacity="0.501961" fill="none" d="M 186.855596 137.309593 Q 163.676335 15.209103, 46.917813 93.162945" stroke-width="0.500000" />
<path stroke="#000000" stroke-opacity="0.501961" fill="none" d="M 83.498450 52.667771 Q 60.140519 69.225274, 9.103862 93.314167" stroke-width="0.500000" />
<path stroke="#000300" stroke-opacity="0.501961" fill="none" d="M 219.644023 90.658902 Q 256.064883 14.479571, 194.012788 8.175846" stroke-width="0.500000" />
<path stroke="#f5faff" stroke-opacity="0.501961" fill="none" d="M 84.884656 10.702882 Q 214.153773 49.717903, 119.397839 143.658014" stroke-width="0.500000" />
<path stroke="#f9fcff" stroke-opacity="0.501961" fill="none" d="M 76.605666 10.576659 Q 176.592214 71.460615, 86.277139 133.153865" stroke-width="0.500000" />
<path stroke="#000000" stroke-opacity="0.501961" fill="none" d="M 268.564960 21.393130 Q 206.432403 29.715228, 180.539765 -1.187513" stroke-width="0.500000" />
<path stroke="#000000" stroke-opacity="0.501961" fill="none" d="M 79.937673 63.907619 Q 20.404574 106.347654, -11.088107 77.430297" stroke-width="0.500000" />
<path stroke="#000000" stroke-opacity="0.501961" fill="none" d="M 237.900813 36.520262 Q 227.693448 -4.220924, 189.744307 9.523545" stroke-width="0.500000" />
<path stroke="#f8fcff" stroke-opacity="0.501961" fill="none" d="M 92.008805 8.802190 Q 194.987810 82.581645, 87.215490 144.325279" stroke-width="0.500000" />
<path stroke="#f5faff" stroke-opacity="0.501961" fill="none" d="M 188.707537 18.111133 Q 119.004644 44.014137, -16.000000 136.201934" stroke-width="0.500000" />
<path stroke="#f3f8ff" stroke-opacity="0.501961" fill="none" d="M 185.890589 8.591272 Q 54.017138 53.760053, 151.117751 145.712260" stroke-width="0.500000" />
<path stroke="#f2f8ff" stroke-opacity="0.501961" fill="none" d="M 185.200238 144.563465 Q 185.373705 1.937942, 78.152212 43.022580" stroke-width="0.500000" />
<path stroke="#000000" stroke-opacity="0.501961" fill="none" d="M 12.801723 81.732248 Q 19.007483 96.339411, 79.341319 64.106613" stroke-width="0.500000" />
<path stroke="#f4f8ff" stroke-opacity="0.501961" fill="none" d="M 102.194869 146.058744 Q 208.793747 71.072414, 98.460101 4.395769" stroke-width="0.500000" />
<path stroke="#f4f9ff" stroke-opacity="0.501961" fill="none" d="M 83.119473 3.464042 Q 66.002833 41.959732, 176.614350 140.420381" stroke-width="0.500000" />
<path stroke="#f3faff" stroke-opacity="0.501961" fill="none" d="M 78.113785 138.536054 Q 85.193266 124.908293, 187.784103 7.411844" stroke-width="0.500000" />
<path stroke="#000000" stroke-opacity="0.501961" fill="none" d="M 9.796533 86.685367 Q 89.641379 57.219084, 88.061857 43.124849" stroke-width="0.500000" />
<path stroke="#eef3ff" stroke-opacity="0.501961" fill="none" d="M 156.640201 -16.000000 Q 233.442961 130.096580, 79.526144 141.518187" stroke-width="0.500000" />
<path stroke="#f0f5ff" stroke-opacity="0.501961" fill="none" d="M 186.401407 132.273946 Q 132.413309 155.007592, 79.094757 2.560277" stroke-width="0.500000" />
<path stroke="#f7fcff" stroke-opacity="0.501961" fill="none" d="M 79.039055 132.787334 Q 176.243790 74.698426, 78.270985 13.175509" stroke-width="0.500000" />
<path stroke="#000028" stroke-opacity="0.501961" fill="none" d="M 266.935487 121.905504 Q 271.000000 96.327116, 187.195347 53.616615" stroke-width="0.500000" />
<path stroke="#150700" stroke-opacity="0.501961" fill="none" d="M -6.538890 139.297652 Q 48.170014 97.896660, 76.476121 84.043805" stroke-width="0.500000" />
<path stroke="#000000" stroke-opacity="0.501961" fill="none" d="M 90.697193 45.701647 Q 20.113972 86.625947, 2.974537 93.963616" stroke-width="0.500000" />
<path stroke="#000000" stroke-opacity="0.501961" fill="none" d="M 184.895647 2.674211 Q 239.576391 -3.445350, 245.995461 31.000585" stroke-width="0.500000" />
<path stroke="#f0f6ff" stroke-opacity="0.501961" fill="none" d="M 77.084227 142.345368 Q 201.206021 151.655339, 182.005281 16.922224" stroke-width="0.500000" />
<path stroke="#31260d" stroke-opacity="0.501961" fill="none" d="M 231.206585 173.000000 Q 141.137240 92.648623, 271.000000 -10.094010" stroke-width="0.500000" />
<path stroke="#f4f8ff" stroke-opacity="0.501961" fill="none" d="M 176.759279 145.149078 Q 57.906114 105.319804, 132.277072 11.924111" stroke-width="0.500000" />
<path stroke="#f0f6ff" stroke-opacity="0.501961" fill="none" d="M 102.430005 144.754443 Q 50.273015 77.495488, 186.101959 11.013498" stroke-width="0.500000" />
<path stroke="#000000" stroke-opacity="0.501961" fill="none" d="M 238.976606 39.823347 Q 232.706693 -12.345478, 193.680106 12.572301" stroke-width="0.500000" />
<path stroke="#eff5ff" stroke-opacity="0.501961" fill="none" d="M 77.652889 18.081683 Q 152.546991 -16.000000, 186.463025 145.390480" stroke-width="0.500000" />
<path stroke="#120f00" stroke-opacity="0.501961" fill="none" d="M 225.348300 -2.891020 Q 154.520040 62.135748, 246.064907 92.561942" stroke-width="0.500000" />
<path stroke="#f6f9ff" stroke-opacity="0.501961" fill="none" d="M 113.175944 27.868710 Q 46.486100 140.152699, 173.581659 145.302919" stroke-width="0.500000" />
<path stroke="#edf2ff" stroke-opacity="0.501961" fill="none" d="M 77.529617 135.473051 Q 228.262178 117.906889, 141.507104 -13.955004" stroke-width="0.500000" />
<path stroke="#000200" stroke-opacity="0.501961" fill="none" d="M 191.114587 15.535567 Q 246.400016 -4.562013, 246.075745 55.215815" stroke-width="0.500000" />
<path stroke="#f4faff" stroke-opacity="0.501961" fill="none" d="M 183.884818 145.463755 Q 177.348249 92.316973, 79.585713 24.623929" stroke-width="0.500000" />
<path stroke="#000000" stroke-opacity="0.501961" fill="none" d="M 193.661551 10.075378 Q 230.670935 -16.000000, 250.087740 32.445520" stroke-width="0.500000" />
<path stroke="#000000" stroke-opacity="0.501961" fill="none" d="M 189.336432 61.105958 Q 216.683510 69.822219, 248.103327 91.709332" stroke-width="0.500000" />
<path stroke="#000000" stroke-opacity="0.501961" fill="none" d="M -16.000000 138.859967 Q 16.928616 120.852211, 79.489638 77.346345" stroke-width="0.500000" />
<path stroke="#f0f4ff" stroke-opacity="0.501961" fill="none" d="M 99.836544 3.183664 Q 202.023045 100.522770, 78.673964 145.649593" stroke-width="0.500000" />
<path stroke="#edf3ff" stroke-opacity="0.501961" fill="none" d="M 174.946009 4.036551 Q 212.369561 114.423238, 75.595784 103.065708" stroke-width="0.500000" />
<path stroke="#f1f4ff" stroke-opacity="0.501961" fill="none" d="M 177.672517 146.941437 Q 114.571887 58.329567, 77.633052 4.749702" stroke-width="0.500000" />
<path stroke="#f0f5ff" stroke-opacity="0.501961" fill="none" d="M 183.154693 23.790993 Q 134.373303 -0.256906, 81.749997 145.016958" stroke-width="0.500000" />
<path stroke="#eaf1ff" stroke-opacity="0.501961" fill="none" d="M 86.757960 5.619489 Q 213.785253 6.001921, 177.608345 132.656335" stroke-width="0.500000" />
<path stroke="#f0f6ff" stroke-opacity="0.501961" fill="none" d="M 183.886448 139.073747 Q 180.137085 6.516229, 79.074506 44.940991" stroke-width="0.500000" />
<path stroke="#19190b" stroke-opacity="0.501961" fill="none" d="M 234.761581 2.656956 Q 161.954666 137.982617, 234.058960 159.812134" stroke-width="0.500000" />
<path stroke="#ebf0ff" stroke-opacity="0.501961" fill="none" d="M 174.053820 142.988142 Q 57.919839 158.590835, 97.322580 11.756328" stroke-width="0.500000" />
<path stroke="#00000f" stroke-opacity="0.501961" fill="none" d="M 185.971196 54.239914 Q 263.617805 92.810521, 265.209351 121.054558" stroke-width="0.500000" />
<path stroke="#001113" stroke-opacity="0.501961" fill="none" d="M 86.342881 46.391019 Q 23.380902 79.219004, 8.584680 90.880249" stroke-width="0.500000" />
<path stroke="#edf4ff" stroke-opacity="0.501961" fill="none" d="M 152.964292 142.588292 Q 195.216559 8.608674, 80.617632 9.409029" stroke-width="0.500000" />
<path stroke="#000000" stroke-opacity="0.501961" fill="none" d="M 255.011908 18.582767 Q 226.728984 55.949945, 192.054408 3.060862" stroke-width="0.500000" />
<path stroke="#f3f7ff" stroke-opacity="0.501961" fill="none" d="M 93.084336 136.350097 Q 195.200359 84.257625, 93.150903 6.691756" stroke-width="0.500000" />
<path stroke="#000000" stroke-opacity="0.501961" fill="none" d="M 176.348603 -16.000000 Q 215.569730 41.988329, 248.892646 19.992488" stroke-width="0.500000" />
<path stroke="#000000" stroke-opacity="0.501961" fill="none" d="M 189.053304 0.914995 Q 232.186490 8.520140, 234.827371 43.265089" stroke-width="0.500000" />
<path stroke="#0b0500" stroke-opacity="0.501961" fill="none" d="M 85.809754 59.653023 Q 55.345866 87.362229, 16.408668 90.759982" stroke-width="0.500000" />
<path stroke="#f0f5ff" stroke-opacity="0.501961" fill="none" d="M 185.213789 6.874010 Q 196.669378 38.755030, 80.481686 137.502076" stroke-width="0.500000" />
<path stroke="#000000" stroke-opacity="0.501961" fill="none" d="M 271.000000 76.628675 Q 255.120240 102.876542, 187.355107 55.959851" stroke-width="0.500000" />
<path stroke="#f0f3ff" stroke-opacity="0.501961" fill="none" d="M 175.458929 141.202111 Q 42.710917 128.159419, 119.074471 10.567276" stroke-width="0.500000" />
<path stroke="#f2f7ff" stroke-opacity="0.501961" fill="none" d="M 186.716858 14.556721 Q 165.131685 35.361239, 82.042222 134.113513" stroke-width="0.500000" />
<path stroke="#ebefff" stroke-opacity="0.501961" fill="none" d="M 113.245706 142.353710 Q 61.675078 -1.713378, 188.368118 7.954140" stroke-width="0.500000" />
<path stroke="#f0f4ff" stroke-opacity="0.501961" fill="none" d="M 174.469211 142.697029 Q 63.830410 61.388864, 159.134678 4.996418" stroke-width="0.500000" />
<path stroke="#edf2ff" stroke-opacity="0.501961" fill="none" d="M 76.754681 138.810328 Q 104.799937 95.936492, 186.076326 7.205612" stroke-width="0.500000" />
<path stroke="#ebf1ff" stroke-opacity="0.501961" fill="none" d="M 78.764455 104.721745 Q 194.199638 145.454026, 185.759235 8.094031" stroke-width="0.500000" />
<path stroke="#000300" stroke-opacity="0.501961" fill="none" d="M 225.379819 0.798853 Q 250.846335 12.977197, 201.910986 85.220315" stroke-width="0.500000" />
<path stroke="#f0f3ff" stroke-opacity="0.501961" fill="none" d="M 177.231983 144.195030 Q 112.980504 125.191261, 78.965326 5.769274" stroke-width="0.500000" />
<path stroke="#f1f4ff" stroke-opacity="0.501961" fill="none" d="M 86.528631 2.854601 Q 90.755507 74.727839, 186.443665 122.840749" stroke-width="0.500000" />
<path stroke="#000604" stroke-opacity="0.501961" fill="none" d="M 217.021649 82.722924 Q 254.746051 6.606296, 180.535921 1.062092" stroke-width="0.500000" />
<path stroke="#ecf1ff" stroke-opacity="0.501961" fill="none" d="M 185.164699 7.823112 Q 186.880094 134.193712, 75.457009 77.404391" stroke-width="0.500000" />
<path stroke="#3d2f14" stroke-opacity="0.501961" fill="none" d="M 241.200513 8.225037 Q 151.635328 86.307578, 225.664398 172.304809" stroke-width="0.500000" />
<path stroke="#ecf1ff" stroke-opacity="0.501961" fill="none" d="M 115.731290 143.173067 Q 38.288931 73.006610, 154.975515 5.142396" stroke-width="0.500000" />
<path stroke="#eaf0ff" stroke-opacity="0.501961" fill="none" d="M 98.172118 3.546093 Q 200.431093 12.282100, 156.011168 140.961217" stroke-width="0.500000" />
<path stroke="#eff4ff" stroke-opacity="0.501961" fill="none" d="M 182.453678 143.903849 Q 173.141364 90.423318, 76.623264 25.672628" stroke-width="0.500000" />
<path stroke="#000400" stroke-opacity="0.501961" fill="none" d="M 20.318117 89.934597 Q 92.510231 64.269433, 91.647573 56.171610" stroke-width="0.500000" />
<path stroke="#eff2ff" stroke-opacity="0.501961" fill="none" d="M 81.809860 136.635342 Q 202.955732 93.474467, 107.096118 6.658225" stroke-width="0.500000" />
<path stroke="#000000" stroke-opacity="0.501961" fill="none" d="M 168.236804 -16.000000 Q 214.505040 43.940693, 247.603192 25.502360" stroke-width="0.500000" />
<path stroke="#000000" stroke-opacity="0.501961" fill="none" d="M 184.465085 -14.959661 Q 187.057666 26.455846, 248.473219 18.128525" stroke-width="0.500000" />
<path stroke="#e9efff" stroke-opacity="0.501961" fill="none" d="M 151.222890 146.453165 Q 189.538448 2.712851, 81.688596 7.904825" stroke-width="0.500000" />
<path stroke="#ecf0ff" stroke-opacity="0.501961" fill="none" d="M 80.647714 18.719935 Q 184.198941 7.245291, 148.505984 146.025534" stroke-width="0.500000" />
<path stroke="#e9eeff" stroke-opacity="0.501961" fill="none" d="M 78.174994 143.203782 Q 224.903115 149.139801, 158.012058 6.124691" stroke-width="0.500000" />
<path stroke="#000000" stroke-opacity="0.501961" fill="none" d="M 188.432573 8.167322 Q 241.333475 -16.000000, 239.483476 50.907220" stroke-width="0.500000" />
<path stroke="#ecf0ff" stroke-opacity="0.501961" fill="none" d="M 78.191046 21.378756 Q 186.898581 19.352328, 138.452810 145.274471" stroke-width="0.500000" />
<path stroke="#eaeeff" stroke-opacity="0.501961" fill="none" d="M 77.218849 23.631643 Q 211.768614 25.232917, 180.333947 132.599341" stroke-width="0.500000" />
<path stroke="#eaeeff" stroke-opacity="0.501961" fill="none" d="M 130.567735 2.644374 Q 203.555768 128.229336, 92.305278 143.772349" stroke-width="0.500000" />
<path stroke="#000000" stroke-opacity="0.501961" fill="none" d="M 14.583131 83.948316 Q 51.486472 94.510139, 81.310228 51.072871" stroke-width="0.500000" />
<path stroke="#eef2ff" stroke-opacity="0.501961" fill="none" d="M 88.193364 144.478075 Q 103.613210 56.989758, 183.915242 14.170230" stroke-width="0.500000" />
<path stroke="#000000" stroke-opacity="0.501961" fill="none" d="M 185.015802 0.199225 Q 243.026695 -0.380091, 234.060641 44.062395" stroke-width="0.500000" />
<path stroke="#edefff" stroke-opacity="0.501961" fill="none" d="M 116.763069 144.407774 Q 188.193495 72.464403, 78.218769 5.155660" stroke-width="0.500000" />
<path stroke="#eff3ff" stroke-opacity="0.501961" fill="none" d="M 84.012512 141.247968 Q 100.732351 107.971872, 184.741361 21.661593" stroke-width="0.500000" />
<path stroke="#eaeeff" stroke-opacity="0.501961" fill="none" d="M 139.725677 144.317367 Q 50.998922 32.855282, 182.550100 8.196844" stroke-width="0.500000" />
<path stroke="#ebefff" stroke-opacity="0.501961" fill="none" d="M 153.494108 141.333416 Q 56.799487 56.378795, 173.169370 11.567489" stroke-width="0.500000" />
<path stroke="#eff2ff" stroke-opacity="0.501961" fill="none" d="M 172.144120 142.893803 Q 143.637911 101.839104, 81.145820 14.871150" stroke-width="0.500000" />
<path stroke="#070500" stroke-opacity="0.501961" fill="none" d="M 73.204350 84.484248 Q 41.248527 97.697476, -16.000000 145.168818" stroke-width="0.500000" />
<path stroke="#000000" stroke-opacity="0.501961" fill="none" d="M 10.282101 88.042220 Q 37.168210 73.619641, 87.552829 49.411052" stroke-width="0.500000" />
<path stroke="#000028" stroke-opacity="0.501961" fill="none" d="M 261.043270 103.570218 Q 243.095381 75.109463, 185.180799 58.283745" stroke-width="0.500000" />
<path stroke="#001b1f" stroke-opacity="0.501961" fill="none" d="M 18.339045 82.164063 Q 39.553248 88.342762, 91.093192 55.986377" stroke-width="0.500000" />
<path stroke="#e9ecff" stroke-opacity="0.501961" fill="none" d="M 172.435568 3.755151 Q 43.992652 50.125826, 128.123622 144.985365" stroke-width="0.500000" />
<path stroke="#100800" stroke-opacity="0.501961" fill="none" d="M 266.314056 103.370922 Q 201.806783 71.566893, 186.251903 55.309940" stroke-width="0.500000" />
<path stroke="#000000" stroke-opacity="0.501961" fill="none" d="M 182.171970 -10.311006 Q 228.981321 45.977553, 271.000000 2.424195" stroke-width="0.500000" />
<path stroke="#000000" stroke-opacity="0.501961" fill="none" d="M 229.704251 46.545079 Q 240.129057 -3.934503, 189.431072 11.598534" stroke-width="0.500000" />
<path stroke="#000000" stroke-opacity="0.501961" fill="none" d="M 189.745792 3.458094 Q 226.590596 44.285481, 244.502392 15.121409" stroke-width="0.500000" />
<path stroke="#000000" stroke-opacity="0.501961" fill="none" d="M 250.854712 19.472715 Q 207.749359 53.963182, 195.684431 -2.667116" stroke-width="0.500000" />
<path stroke="#e9eeff" stroke-opacity="0.501961" fill="none" d="M 86.169747 130.629386 Q 215.480612 114.221105, 147.144714 4.880839" stroke-width="0.500000" />
<path stroke="#f0f4ff" stroke-opacity="0.501961" fill="none" d="M 181.335683 129.852163 Q 163.791000 31.104615, 77.854473 91.705780" stroke-width="0.500000" />
<path stroke="#362200" stroke-opacity="0.501961" fill="none" d="M 73.603141 83.914410 Q -16.000000 144.475483, -16.000000 149.881515" stroke-width="0.500000" />
<path stroke="#000000" stroke-opacity="0.501961" fill="none" d="M 200.510614 19.173098 Q 217.896278 -16.000000, 246.385700 18.701978" stroke-width="0.500000" />
<path stroke="#ebeeff" stroke-opacity="0.501961" fill="none" d="M 94.126346 144.646415 Q 70.310215 60.674958, 186.006491 26.589574" stroke-width="0.500000" />
<path stroke="#000000" stroke-opacity="0.501961" fill="none" d="M 85.166859 110.937456 Q 62.389573 136.872478, 78.848327 146.060147" stroke-width="0.500000" />
<path stroke="#000000" stroke-opacity="0.501961" fill="none" d="M -8.218282 99.426269 Q 38.125338 81.214000, 86.255229 47.530615" stroke-width="0.500000" />
<path stroke="#ecf0ff" stroke-opacity="0.501961" fill="none" d="M 179.916055 11.030456 Q 195.792182 97.551163, 76.972289 78.403160" stroke-width="0.500000" />
<path stroke="#e9ebfe" stroke-opacity="0.501961" fill="none" d="M 84.851709 143.138793 Q 196.686734 69.604017, 86.979765 2.851230" stroke-width="0.500000" />
<path stroke="#000000" stroke-opacity="0.501961" fill="none" d="M 248.895822 90.848284 Q 218.140133 78.043188, 187.571919 57.238282" stroke-width="0.500000" />
<path stroke="#edefff" stroke-opacity="0.501961" fill="none" d="M 83.480844 10.472239 Q 139.200778 92.354773, 187.279526 131.112359" stroke-width="0.500000" />
<path stroke="#ebeeff" stroke-opacity="0.501961" fill="none" d="M 85.515356 -16.000000 Q 54.490819 39.168321, 171.904341 137.777856" stroke-width="0.500000" />
<path stroke="#e8edff" stroke-opacity="0.501961" fill="none" d="M 187.029695 4.654096 Q 118.234756 71.692011, 82.128398 129.327251" stroke-width="0.500000" />
<path stroke="#eceeff" stroke-opacity="0.501961" fill="none" d="M 84.321201 137.347992 Q 177.774038 89.704085, 92.692346 11.055210" stroke-width="0.500000" />
<path stroke="#e9eeff" stroke-opacity="0.501961" fill="none" d="M 80.549925 59.044019 Q 183.302447 23.093891, 182.044347 140.563078" stroke-width="0.500000" />
<path stroke="#e8ecfd" stroke-opacity="0.501961" fill="none" d="M 76.632832 94.301133 Q 194.519328 139.884221, 184.208401 9.716237" stroke-width="0.500000" />
<path stroke="#000000" stroke-opacity="0.501961" fill="none" d="M 233.166210 43.956687 Q 241.226176 -0.484744, 187.923268 5.511784" stroke-width="0.500000" />
<path stroke="#e4e9fa" stroke-opacity="0.501961" fill="none" d="M 180.383854 6.233486 Q 61.703304 -2.122245, 98.670256 127.674106" stroke-width="0.500000" />
<path stroke="#e9eafd" stroke-opacity="0.501961" fill="none" d="M 110.414812 3.134716 Q 196.444444 115.224955, 92.905241 145.478420" stroke-width="0.500000" />
<path stroke="#041109" stroke-opacity="0.501961" fill="none" d="M 28.866846 93.360074 Q 46.766185 84.057226, 87.166953 45.012782" stroke-width="0.500000" />
<path stroke="#000000" stroke-opacity="0.501961" fill="none" d="M 85.305483 109.216709 Q 83.398059 124.354717, 69.446173 133.896170" stroke-width="0.500000" />
<path stroke="#000000" stroke-opacity="0.501961" fill="none" d="M 212.673700 -1.785718 Q 200.373720 34.038357, 234.124537 38.670537" stroke-width="0.500000" />
<path stroke="#040100" stroke-opacity="0.501961" fill="none" d="M -16.000000 151.197793 Q -16.000000 141.295922, 63.090311 89.797527" stroke-width="0.500000" />
<path stroke="#000408" stroke-opacity="0.501961" fill="none" d="M 233.731219 42.761817 Q 198.468247 -16.000000, 155.905052 3.469366" stroke-width="0.500000" />
<path stroke="#ebeeff" stroke-opacity="0.501961" fill="none" d="M 185.187094 109.827274 Q 141.889981 134.786171, 77.194287 13.825246" stroke-width="0.500000" />
<path stroke="#e8ebfd" stroke-opacity="0.501961" fill="none" d="M 122.598712 143.896258 Q 58.997467 17.933084, 177.291142 6.370362" stroke-width="0.500000" />
<path stroke="#eaedff" stroke-opacity="0.501961" fill="none" d="M 147.333731 12.565250 Q 81.621094 95.491869, 173.902421 139.075065" stroke-width="0.500000" />
<path stroke="#000049" stroke-opacity="0.501961" fill="none" d="M 184.974477 52.362392 Q 200.082899 55.123461, 246.609765 90.067317" stroke-width="0.500000" />
<path stroke="#000000" stroke-opacity="0.501961" fill="none" d="M 194.968034 -16.000000 Q 209.054726 47.577716, 242.345967 32.842990" stroke-width="0.500000" />
<path stroke="#e8ebfa" stroke-opacity="0.501961" fill="none" d="M 25.129582 109.982116 Q 153.413619 13.855831, 183.213452 140.615832" stroke-width="0.500000" />
<path stroke="#e9e8f2" stroke-opacity="0.501961" fill="none" d="M 177.547280 13.838697 Q 46.553377 90.544153, -16.000000 135.965008" stroke-width="0.500000" />
<path stroke="#000000" stroke-opacity="0.501961" fill="none" d="M 243.889212 30.354027 Q 234.545384 -12.157894, 198.171143 16.850674" stroke-width="0.500000" />
<path stroke="#28291c" stroke-opacity="0.501961" fill="none" d="M 249.594900 -16.000000 Q 156.447523 124.525149, 238.702915 173.000000" stroke-width="0.500000" />
<path stroke="#eef1ff" stroke-opacity="0.501961" fill="none" d="M 78.504223 110.941744 Q 81.445462 29.221112, 185.939317 72.025530" stroke-width="0.500000" />
<path stroke="#3a3018" stroke-opacity="0.501961" fill="none" d="M 223.812681 160.326324 Q 159.233530 130.460970, 241.717252 -16.000000" stroke-width="0.500000" />
<path stroke="#e3e7f8" stroke-opacity="0.501961" fill="none" d="M 169.391143 8.533288 Q 225.962224 117.150140, 96.549193 145.896129" stroke-width="0.500000" />
<path stroke="#e8eafb" stroke-opacity="0.501961" fill="none" d="M 93.781428 142.510589 Q 201.305148 84.717506, 104.456498 3.371545" stroke-width="0.500000" />
<path stroke="#000000" stroke-opacity="0.501961" fill="none" d="M 85.524539 110.699411 Q 78.404466 111.048999, 73.643163 133.683865" stroke-width="0.500000" />
<path stroke="#ebedff" stroke-opacity="0.501961" fill="none" d="M 175.152165 142.654910 Q 164.214558 116.506633, 80.090119 12.681147" stroke-width="0.500000" />
<path stroke="#322b17" stroke-opacity="0.501961" fill="none" d="M 174.699181 -16.000000 Q 269.262694 1.107239, 215.082616 172.494124" stroke-width="0.500000" />
<path stroke="#e4e8f7" stroke-opacity="0.501961" fill="none" d="M 185.582221 145.103061 Q 195.826880 -16.000000, 88.068851 7.828658" stroke-width="0.500000" />
<path stroke="#000000" stroke-opacity="0.501961" fill="none" d="M 241.837993 31.907662 Q 233.052702 -16.000000, 196.560015 15.891961" stroke-width="0.500000" />
<path stroke="#eaecff" stroke-opacity="0.501961" fill="none" d="M 166.894432 21.590099 Q 68.552718 81.879338, 167.286569 140.271961" stroke-width="0.500000" />
<path stroke="#e8ebfd" stroke-opacity="0.501961" fill="none" d="M 178.342803 8.053950 Q 186.982055 128.630168, 77.030363 76.370494" stroke-width="0.500000" />
<path stroke="#000b0a" stroke-opacity="0.501961" fill="none" d="M 10.599953 94.009414 Q 23.961058 88.493304, 84.235971 45.879130" stroke-width="0.500000" />
<path stroke="#2d2b1a" stroke-opacity="0.501961" fill="none" d="M 243.261611 163.671502 Q 151.218671 129.694258, 236.256364 -6.183092" stroke-width="0.500000" />
<path stroke="#ebeeff" stroke-opacity="0.501961" fill="none" d="M 80.626899 136.420944 Q 98.642348 121.790270, 181.635062 25.971684" stroke-width="0.500000" />
<path stroke="#e5e7f8" stroke-opacity="0.501961" fill="none" d="M 76.721657 36.645929 Q 210.225091 26.776141, 154.564344 148.235475" stroke-width="0.500000" />
<path stroke="#000002" stroke-opacity="0.501961" fill="none" d="M 255.682243 97.105506 Q 214.298890 72.894284, 190.391309 55.868390" stroke-width="0.500000" />
<path stroke="#e8e9fb" stroke-opacity="0.501961" fill="none" d="M 175.861639 145.183002 Q 64.222377 136.832314, 110.835074 12.912095" stroke-width="0.500000" />
<path stroke="#000000" stroke-opacity="0.501961" fill="none" d="M 265.945768 19.868353 Q 196.871058 20.937948, 178.042085 -4.122285" stroke-width="0.500000" />
<path stroke="#413720" stroke-opacity="0.501961" fill="none" d="M 245.485246 -3.058836 Q 173.853917 5.561179, 227.107711 164.717163" stroke-width="0.500000" />
<path stroke="#000000" stroke-opacity="0.501961" fill="none" d="M 83.936070 107.552337 Q 76.081660 130.334917, 74.573758 135.844123" stroke-width="0.500000" />
<path stroke="#e1e4f4" stroke-opacity="0.501961" fill="none" d="M 99.807443 18.639578 Q 51.621532 156.927548, 178.343137 144.424005" stroke-width="0.500000" />
<path stroke="#080500" stroke-opacity="0.501961" fill="none" d="M 19.177335 82.118398 Q 29.757877 96.293761, 76.706729 68.580431" stroke-width="0.500000" />
<path stroke="#000003" stroke-opacity="0.501961" fill="none" d="M 84.530872 48.178083 Q 78.992900 49.749246, 15.891683 88.982229" stroke-width="0.500000" />
<path stroke="#e4e8f9" stroke-opacity="0.501961" fill="none" d="M 121.363489 143.212146 Q 221.364926 45.591861, 105.984920 3.926976" stroke-width="0.500000" />
<path stroke="#000000" stroke-opacity="0.501961" fill="none" d="M 9.755515 87.200649 Q 72.221901 59.686412, 81.704744 53.213660" stroke-width="0.500000" />
<path stroke="#000d42" stroke-opacity="0.501961" fill="none" d="M 188.163619 58.621760 Q 201.795108 52.744011, 254.291883 94.935747" stroke-width="0.500000" />
<path stroke="#e9ecfd" stroke-opacity="0.501961" fill="none" d="M 186.170064 21.993405 Q 112.947009 125.386641, 76.952693 96.400816" stroke-width="0.500000" />
<path stroke="#eaecfe" stroke-opacity="0.501961" fill="none" d="M 79.436259 16.707966 Q 119.195123 72.371925, 170.788971 144.823941" stroke-width="0.500000" />
<path stroke="#e4e7f8" stroke-opacity="0.501961" fill="none" d="M 75.733275 136.392850 Q 214.870250 124.219435, 158.132270 9.560866" stroke-width="0.500000" />
<path stroke="#e8eafb" stroke-opacity="0.501961" fill="none" d="M 78.607890 18.728275 Q 178.827530 92.425930, 185.308541 145.824985" stroke-width="0.500000" />
<path stroke="#000001" stroke-opacity="0.501961" fill="none" d="M 236.933329 41.493135 Q 236.500224 -8.827915, 185.106695 3.868391" stroke-width="0.500000" />
<path stroke="#000000" stroke-opacity="0.501961" fill="none" d="M 247.223537 23.572529 Q 211.602928 49.553186, 188.178597 -16.000000" stroke-width="0.500000" />
<path stroke="#e1e3ef" stroke-opacity="0.501961" fill="none" d="M 76.797333 104.422391 Q 153.082277 20.372958, 220.174370 146.203067" stroke-width="0.500000" />
<path stroke="#eaedff" stroke-opacity="0.501961" fill="none" d="M 173.274146 133.920085 Q 88.472788 173.000000, 79.830730 69.324566" stroke-width="0.500000" />
<path stroke="#000000" stroke-opacity="0.501961" fill="none" d="M 176.929134 -9.698194 Q 194.235300 18.867334, 248.773709 17.143463" stroke-width="0.500000" />
<path stroke="#e8ebfc" stroke-opacity="0.501961" fill="none" d="M 185.590199 27.122141 Q 130.032755 133.722242, 77.406258 78.347542" stroke-width="0.500000" />
<path stroke="#e7e8fa" stroke-opacity="0.501961" fill="none" d="M 105.628323 22.435699 Q 186.151304 101.569769, 78.061770 139.715515" stroke-width="0.500000" />
<path stroke="#000d05" stroke-opacity="0.501961" fill="none" d="M 28.388234 90.131465 Q 40.634961 90.894656, 75.169012 50.825842" stroke-width="0.500000" />
<path stroke="#000000" stroke-opacity="0.501961" fill="none" d="M 190.674242 8.307808 Q 204.258381 23.827020, 257.930286 26.478707" stroke-width="0.500000" />
<path stroke="#000000" stroke-opacity="0.501961" fill="none" d="M 231.323623 -3.636336 Q 196.087321 24.092035, 232.524343 44.788139" stroke-width="0.500000" />
<path stroke="#e4e7f8" stroke-opacity="0.501961" fill="none" d="M 128.019803 5.294520 Q 216.494071 89.844624, 89.142585 144.102143" stroke-width="0.500000" />
<path stroke="#00001e" stroke-opacity="0.501961" fill="none" d="M 187.323191 61.998905 Q 229.779439 73.828426, 249.802470 88.073244" stroke-width="0.500000" />
<path stroke="#e2e4f3" stroke-opacity="0.501961" fill="none" d="M 126.262768 144.537845 Q 58.265517 29.349482, 182.680742 4.130265" stroke-width="0.500000" />
<path stroke="#e5e8f8" stroke-opacity="0.501961" fill="none" d="M 78.154740 87.518127 Q 158.439122 136.924247, 184.451814 11.211977" stroke-width="0.500000" />
<path stroke="#000200" stroke-opacity="0.501961" fill="none" d="M 64.612876 137.168967 Q 80.667851 138.223161, 83.242386 109.514277" stroke-width="0.500000" />
<path stroke="#dfe2f0" stroke-opacity="0.501961" fill="none" d="M 100.186141 3.975725 Q 238.580864 46.137130, 155.775878 143.821673" stroke-width="0.500000" />
<path stroke="#000000" stroke-opacity="0.501961" fill="none" d="M 238.760246 34.053808 Q 248.136979 12.304434, 196.974353 0.569497" stroke-width="0.500000" />
<path stroke="#161100" stroke-opacity="0.501961" fill="none" d="M 186.690632 57.279749 Q 212.925073 83.355815, 252.986694 89.320963" stroke-width="0.500000" />
<path stroke="#e5e8f9" stroke-opacity="0.501961" fill="none" d="M 185.625871 126.537864 Q 169.717210 14.971894, 78.454016 47.091598" stroke-width="0.500000" />
<path stroke="#000103" stroke-opacity="0.501961" fill="none" d="M 84.525318 61.591221 Q 48.514173 83.687134, 14.504494 87.096416" stroke-width="0.500000" />
<path stroke="#e5e5ef" stroke-opacity="0.501961" fill="none" d="M -14.057566 136.775724 Q 146.833587 10.908625, 185.040245 92.201702" stroke-width="0.500000" />
<path stroke="#000003" stroke-opacity="0.501961" fill="none" d="M 271.000000 4.720293 Q 221.282514 47.805228, 190.478410 -3.840155" stroke-width="0.500000" />
<path stroke="#000000" stroke-opacity="0.501961" fill="none" d="M 212.002736 0.146965 Q 249.930720 12.908076, 220.839185 41.933475" stroke-width="0.500000" />
<path stroke="#000400" stroke-opacity="0.501961" fill="none" d="M 14.094709 86.526303 Q 70.848169 64.652998, 86.702702 51.017385" stroke-width="0.500000" />
<path stroke="#4f3f23" stroke-opacity="0.501961" fill="none" d="M 252.788068 4.131413 Q 191.391214 36.682010, 229.806320 173.000000" stroke-width="0.500000" />
<path stroke="#e4e6f5" stroke-opacity="0.501961" fill="none" d="M 91.970038 3.970908 Q 210.219365 67.908726, 108.668649 145.102558" stroke-width="0.500000" />
<path stroke="#e0e4f3" stroke-opacity="0.501961" fill="none" d="M 73.801634 20.623536 Q 217.965648 11.867143, 161.153118 138.366252" stroke-width="0.500000" />
<path stroke="#131204" stroke-opacity="0.501961" fill="none" d="M 71.771860 82.216313 Q 50.344887 96.035433, -0.337542 130.992139" stroke-width="0.500000" />
<path stroke="#000000" stroke-opacity="0.501961" fill="none" d="M 226.190248 42.207046 Q 240.562994 15.857710, 164.113859 -11.381431" stroke-width="0.500000" />
<path stroke="#e3e4f4" stroke-opacity="0.501961" fill="none" d="M 166.348100 144.499314 Q 52.821817 71.333987, 176.557528 2.600432" stroke-width="0.500000" />
<path stroke="#000200" stroke-opacity="0.501961" fill="none" d="M 82.594911 108.217276 Q 78.995493 129.403119, 73.607691 142.955442" stroke-width="0.500000" />
<path stroke="#e5e7f8" stroke-opacity="0.501961" fill="none" d="M 181.408191 16.961130 Q 75.007343 78.927056, 167.734343 139.199108" stroke-width="0.500000" />
<path stroke="#e4e5f6" stroke-opacity="0.501961" fill="none" d="M 178.048487 142.621066 Q 61.301490 156.226112, 100.751185 19.463328" stroke-width="0.500000" />
<path stroke="#402e0d" stroke-opacity="0.501961" fill="none" d="M 6.090632 137.410554 Q 36.804452 86.283248, 79.214178 127.740505" stroke-width="0.500000" />
<path stroke="#866536" stroke-opacity="0.501961" fill="none" d="M -16.000000 156.829374 Q -16.000000 153.888788, 271.000000 154.149542" stroke-width="0.500000" />
<path stroke="#e4e5f6" stroke-opacity="0.501961" fill="none" d="M 153.817871 4.106431 Q 60.943106 63.726728, 153.529306 142.819607" stroke-width="0.500000" />
<path stroke="#e5e8fa" stroke-opacity="0.501961" fill="none" d="M 158.807710 132.538160 Q 93.937526 173.000000, 78.053264 76.026936" stroke-width="0.500000" />
<path stroke="#e2e7f7" stroke-opacity="0.501961" fill="none" d="M 79.266827 34.495977 Q 179.531276 102.169092, 179.103832 140.731344" stroke-width="0.500000" />
<path stroke="#000000" stroke-opacity="0.501961" fill="none" d="M 207.533223 153.558157 Q 222.444074 140.828683, 227.472881 159.331140" stroke-width="0.500000" />
<path stroke="#000000" stroke-opacity="0.501961" fill="none" d="M 171.031231 -16.000000 Q 223.763607 49.659523, 246.015047 26.803195" stroke-width="0.500000" />
<path stroke="#352100" stroke-opacity="0.501961" fill="none" d="M 244.085137 93.412353 Q 185.760535 66.411275, 188.784884 55.979771" stroke-width="0.500000" />
<path stroke="#000700" stroke-opacity="0.501961" fill="none" d="M 227.926476 151.117890 Q 181.218416 173.000000, 177.885745 139.690940" stroke-width="0.500000" />
<path stroke="#604b26" stroke-opacity="0.501961" fill="none" d="M -7.902697 127.754692 Q 90.403743 141.051390, 70.832236 38.310073" stroke-width="0.500000" />
<path stroke="#dfe2f1" stroke-opacity="0.501961" fill="none" d="M 82.578194 138.449629 Q 223.327082 125.023574, 155.952952 -16.000000" stroke-width="0.500000" />
<path stroke="#e0e3f1" stroke-opacity="0.501961" fill="none" d="M 161.288742 7.023581 Q 226.595856 154.960346, 74.443403 143.911189" stroke-width="0.500000" />
<path stroke="#e6e8f8" stroke-opacity="0.501961" fill="none" d="M 78.436974 20.841700 Q 110.728734 81.827387, 172.291734 132.679514" stroke-width="0.500000" />
<path stroke="#000000" stroke-opacity="0.501961" fill="none" d="M 206.689522 3.404061 Q 250.847188 4.818719, 231.066174 41.136365" stroke-width="0.500000" />
<path stroke="#e7e9f9" stroke-opacity="0.501961" fill="none" d="M 80.401886 109.605112 Q 64.992859 50.275983, 183.785306 43.395189" stroke-width="0.500000" />
<path stroke="#000000" stroke-opacity="0.501961" fill="none" d="M 247.044616 22.124502 Q 221.444063 -13.621513, 198.665436 25.090587" stroke-width="0.500000" />
<path stroke="#e3e5ef" stroke-opacity="0.501961" fill="none" d="M 213.227419 145.212869 Q 218.688270 86.015209, 78.453227 84.822098" stroke-width="0.500000" />
<path stroke="#e1e4f3" stroke-opacity="0.501961" fill="none" d="M 75.567322 30.424348 Q 199.236075 14.090103, 182.630457 145.404076" stroke-width="0.500000" />
<path stroke="#e2e4f3" stroke-opacity="0.501961" fill="none" d="M 120.329995 145.921847 Q 57.587326 83.984971, 183.928899 13.163024" stroke-width="0.500000" />
<path stroke="#000600" stroke-opacity="0.501961" fill="none" d="M 18.182867 88.036318 Q 49.202021 88.249835, 89.483946 57.349158" stroke-width="0.500000" />
<path stroke="#000000" stroke-opacity="0.501961" fill="none" d="M 70.702320 136.850532 Q 80.595559 117.291974, 81.673450 109.100986" stroke-width="0.500000" />
<path stroke="#dde0ee" stroke-opacity="0.501961" fill="none" d="M 185.645088 7.740107 Q 60.978658 -13.696025, 100.412029 119.033280" stroke-width="0.500000" />
<path stroke="#000805" stroke-opacity="0.501961" fill="none" d="M 82.726645 49.881879 Q 46.568370 82.208872, 18.851703 81.780245" stroke-width="0.500000" />
<path stroke="#e3e5f4" stroke-opacity="0.501961" fill="none" d="M 186.718011 16.336082 Q 141.695181 63.543553, 79.009232 140.346304" stroke-width="0.500000" />
<path stroke="#e5e6f6" stroke-opacity="0.501961" fill="none" d="M 81.185068 7.621997 Q 172.724460 112.747752, 172.365555 145.401556" stroke-width="0.500000" />
<path stroke="#000017" stroke-opacity="0.501961" fill="none" d="M 249.543453 88.613694 Q 187.668650 59.174257, 187.361037 52.219345" stroke-width="0.500000" />
<path stroke="#e4e7f6" stroke-opacity="0.501961" fill="none" d="M 78.128937 72.978040 Q 149.011435 14.472091, 183.860797 120.129739" stroke-width="0.500000" />
<path stroke="#000000" stroke-opacity="0.501961" fill="none" d="M 230.493825 42.159867 Q 243.752067 13.859224, 185.329634 -4.790946" stroke-width="0.500000" />
<path stroke="#e2e4f3" stroke-opacity="0.501961" fill="none" d="M 92.809252 139.975595 Q 203.233083 76.804064, 122.641906 3.871305" stroke-width="0.500000" />
<path stroke="#000000" stroke-opacity="0.501961" fill="none" d="M 231.962732 42.774073 Q 201.992497 27.192029, 231.958752 0.247528" stroke-width="0.500000" />
<path stroke="#000000" stroke-opacity="0.501961" fill="none" d="M 200.715114 2.996105 Q 214.339073 42.621002, 249.433460 19.947258" stroke-width="0.500000" />
</g>
</svg>