<svg xmlns="http://www.w3.org/2000/svg" version="1.1" width="1024" height="680">
<rect x="0" y="0" width="1024" height="680" fill="#cacaca" />
<g transform="scale(4.000000) translate(0.5 0.5)">
<path stroke="#000000" stroke-opacity="0.501961" fill="none" d="M -11.935883 165.288997 Q 19.589811 28.578345, 156.813903 102.987018" stroke-width="0.500000" />
<path stroke="#000000" stroke-opacity="0.501961" fill="none" d="M 152.473104 108.398520 Q 38.594087 38.539362, 7.699699 122.118873" stroke-width="0.500000" />
<path stroke="#000000" stroke-opacity="0.501961" fill="none" d="M -16.000000 136.849105 Q 173.239014 70.993321, 202.609515 75.352890" stroke-width="0.500000" />
<path stroke="#040404" stroke-opacity="0.501961" fill="none" d="M 23.994640 148.105316 Q 182.623296 34.201379, 241.767257 102.249964" stroke-width="0.500000" />
<path stroke="#000000" stroke-opacity="0.501961" fill="none" d="M 13.359342 87.213902 Q 152.249510 47.642210, 163.628720 178.349985" stroke-width="0.500000" />
<path stroke="#000000" stroke-opacity="0.501961" fill="none" d="M 232.643314 86.731867 Q 160.519376 52.320963, 104.622878 122.031007" stroke-width="0.500000" />
<path stroke="#000000" stroke-opacity="0.501961" fill="none" d="M 271.000000 125.051467 Q 224.291528 31.172134, 55.276967 120.743389" stroke-width="0.500000" />
<path stroke="#000000" stroke-opacity="0.501961" fill="none" d="M 129.603158 107.076694 Q 61.484880 28.701879, -13.684566 143.864086" stroke-width="0.500000" />
<path stroke="#000000" stroke-opacity="0.501961" fill="none" d="M 237.254894 83.836700 Q 165.705089 60.737371, 134.787963 95.763195" stroke-width="0.500000" />
<path stroke="#000000" stroke-opacity="0.501961" fill="none" d="M 129.874144 90.792263 Q 20.073381 52.844450, 21.771019 132.240872" stroke-width="0.500000" />
<path stroke="#000000" stroke-opacity="0.501961" fill="none" d="M 153.928575 98.734236 Q 46.274058 52.886776, 29.773868 105.397682" stroke-width="0.500000" />
<path stroke="#000000" stroke-opacity="0.501961" fill="none" d="M -6.810494 130.829320 Q 91.715848 96.802781, 185.947976 74.521930" stroke-width="0.500000" />
<path stroke="#000000" stroke-opacity="0.501961" fill="none" d="M 33.502625 130.687227 Q 206.198478 35.206968, 231.182796 105.987991" stroke-width="0.500000" />
<path stroke="#000000" stroke-opacity="0.501961" fill="none" d="M 177.104848 75.085357 Q 37.709489 129.444289, 22.993614 79.862615" stroke-width="0.500000" />
<path stroke="#000000" stroke-opacity="0.501961" fill="none" d="M 150.666792 129.412629 Q 134.632863 64.111507, 29.041809 81.205498" stroke-width="0.500000" />
<path stroke="#000000" stroke-opacity="0.501961" fill="none" d="M -4.525438 120.629480 Q 56.783472 41.136820, 122.319114 99.773490" stroke-width="0.500000" />
<path stroke="#131313" stroke-opacity="0.501961" fill="none" d="M -16.000000 119.333817 Q -3.540689 151.451509, 173.313573 76.282449" stroke-width="0.500000" />
<path stroke="#000000" stroke-opacity="0.501961" fill="none" d="M 18.661002 114.476791 Q 42.996662 42.721332, 144.086352 105.622593" stroke-width="0.500000" />
<path stroke="#161616" stroke-opacity="0.501961" fill="none" d="M -16.000000 139.099124 Q 104.434098 76.726818, 216.457386 76.603535" stroke-width="0.500000" />
<path stroke="#000000" stroke-opacity="0.501961" fill="none" d="M 49.773175 72.467284 Q 15.718983 105.909371, 57.332710 141.372813" stroke-width="0.500000" />
<path stroke="#0c0c0c" stroke-opacity="0.501961" fill="none" d="M -7.969949 135.552731 Q 195.503451 65.194177, 200.569138 76.451671" stroke-width="0.500000" />
<path stroke="#000000" stroke-opacity="0.501961" fill="none" d="M 207.253849 76.890168 Q 238.616705 107.713062, 199.289602 139.488573" stroke-width="0.500000" />
<path stroke="#000000" stroke-opacity="0.501961" fill="none" d="M 136.553351 101.732871 Q 156.308756 60.389036, 232.980409 88.505661" stroke-width="0.500000" />
<path stroke="#000000" stroke-opacity="0.501961" fill="none" d="M -16.000000 113.398624 Q 84.816984 30.911769, 150.811164 127.887454" stroke-width="0.500000" />
<path stroke="#000000" stroke-opacity="0.501961" fill="none" d="M 88.487768 109.447017 Q 37.954543 148.120467, 24.982280 79.279599" stroke-width="0.500000" />
<path stroke="#000000" stroke-opacity="0.501961" fill="none" d="M 150.362388 94.012639 Q 25.248461 43.554958, -4.716116 138.363067" stroke-width="0.500000" />
<path stroke="#000000" stroke-opacity="0.501961" fill="none" d="M 208.748675 132.013983 Q 237.974870 100.902485, 205.443925 75.273882" stroke-width="0.500000" />
<path stroke="#0b0b0b" stroke-opacity="0.501961" fill="none" d="M 29.862539 129.482162 Q 192.608292 41.744169, 232.333600 96.969592" stroke-width="0.500000" />
<path stroke="#010101" stroke-opacity="0.501961" fill="none" d="M 130.146449 85.390829 Q 43.560922 145.430195, 25.133005 80.431842" stroke-width="0.500000" />
<path stroke="#000000" stroke-opacity="0.501961" fill="none" d="M 177.192657 149.041647 Q 247.865740 121.015319, 210.544462 71.775725" stroke-width="0.500000" />
<path stroke="#000000" stroke-opacity="0.501961" fill="none" d="M 18.930328 86.658740 Q 120.545963 59.426357, 150.384634 128.177177" stroke-width="0.500000" />
<path stroke="#000000" stroke-opacity="0.501961" fill="none" d="M 114.173394 93.104644 Q 118.762282 115.492680, 91.182345 140.900318" stroke-width="0.500000" />
<path stroke="#000000" stroke-opacity="0.501961" fill="none" d="M 40.060416 76.159917 Q 18.537550 121.817336, 64.500758 142.730023" stroke-width="0.500000" />
<path stroke="#181818" stroke-opacity="0.501961" fill="none" d="M -15.614985 134.865004 Q 108.067336 75.593919, 151.867231 89.327307" stroke-width="0.500000" />
<path stroke="#0f0f0f" stroke-opacity="0.501961" fill="none" d="M 146.845609 101.416751 Q 127.459635 60.715994, 24.977629 126.975266" stroke-width="0.500000" />
<path stroke="#000000" stroke-opacity="0.501961" fill="none" d="M 59.247039 76.359304 Q 17.606363 87.123649, 48.715767 135.151949" stroke-width="0.500000" />
<path stroke="#000000" stroke-opacity="0.501961" fill="none" d="M 185.667059 79.132039 Q 233.729220 71.632554, 221.586623 113.541633" stroke-width="0.500000" />
<path stroke="#000000" stroke-opacity="0.501961" fill="none" d="M 150.482274 79.618737 Q 132.194656 105.868350, 161.814793 139.550815" stroke-width="0.500000" />
<path stroke="#000000" stroke-opacity="0.501961" fill="none" d="M 103.567158 128.741422 Q 130.870916 80.693676, 81.419850 76.211819" stroke-width="0.500000" />
<path stroke="#000000" stroke-opacity="0.501961" fill="none" d="M 31.132198 76.045824 Q 25.122795 137.276171, 77.526564 120.736614" stroke-width="0.500000" />
<path stroke="#000000" stroke-opacity="0.501961" fill="none" d="M 164.865335 139.558679 Q 125.953304 109.367608, 151.063209 85.297608" stroke-width="0.500000" />
<path stroke="#000000" stroke-opacity="0.501961" fill="none" d="M 3.809792 126.086292 Q 53.098593 46.977221, 116.591689 95.530747" stroke-width="0.500000" />
<path stroke="#000000" stroke-opacity="0.501961" fill="none" d="M 97.215355 79.633285 Q 136.356031 104.534696, 88.211624 142.753520" stroke-width="0.500000" />
<path stroke="#000000" stroke-opacity="0.501961" fill="none" d="M 22.793241 83.025181 Q 107.205373 62.896746, 112.826608 103.958086" stroke-width="0.500000" />
<path stroke="#000000" stroke-opacity="0.501961" fill="none" d="M 133.689518 92.157253 Q 202.812683 62.148427, 231.442616 90.867727" stroke-width="0.500000" />
<path stroke="#000000" stroke-opacity="0.501961" fill="none" d="M 153.185191 132.015734 Q 121.136954 91.286611, 169.553306 76.158666" stroke-width="0.500000" />
<path stroke="#000000" stroke-opacity="0.501961" fill="none" d="M 79.909544 115.496301 Q 30.072089 137.920798, 29.568019 78.001162" stroke-width="0.500000" />
<path stroke="#141414" stroke-opacity="0.501961" fill="none" d="M 139.066061 71.861153 Q 136.530784 167.232519, 219.572604 132.360914" stroke-width="0.500000" />
<path stroke="#000000" stroke-opacity="0.501961" fill="none" d="M 205.084739 76.012114 Q 234.286866 81.839641, 212.301010 127.259205" stroke-width="0.500000" />
<path stroke="#000000" stroke-opacity="0.501961" fill="none" d="M 179.114963 143.190210 Q 225.896248 139.177415, 222.962669 76.877023" stroke-width="0.500000" />
<path stroke="#151515" stroke-opacity="0.501961" fill="none" d="M 146.544328 102.517869 Q 126.900444 61.077681, 28.129167 129.911057" stroke-width="0.500000" />
<path stroke="#000000" stroke-opacity="0.501961" fill="none" d="M 57.286015 70.858518 Q 3.634680 104.779766, 64.392880 142.608375" stroke-width="0.500000" />
<path stroke="#000000" stroke-opacity="0.501961" fill="none" d="M 123.961940 97.659147 Q 43.274095 40.048322, 22.814957 131.986940" stroke-width="0.500000" />
<path stroke="#000000" stroke-opacity="0.501961" fill="none" d="M 143.713647 95.229854 Q 37.076833 61.798444, 23.395493 91.641764" stroke-width="0.500000" />
<path stroke="#000000" stroke-opacity="0.501961" fill="none" d="M 21.871737 90.070445 Q 37.305166 75.772815, 67.087042 125.321037" stroke-width="0.500000" />
<path stroke="#030303" stroke-opacity="0.501961" fill="none" d="M 174.561326 141.170346 Q 223.422483 149.505581, 227.272164 74.767364" stroke-width="0.500000" />
<path stroke="#000000" stroke-opacity="0.501961" fill="none" d="M 87.117728 114.036788 Q 33.233384 133.162045, 24.269303 81.662159" stroke-width="0.500000" />
<path stroke="#000000" stroke-opacity="0.501961" fill="none" d="M 86.467367 76.300023 Q 131.785667 96.577650, 103.350670 131.523963" stroke-width="0.500000" />
<path stroke="#000000" stroke-opacity="0.501961" fill="none" d="M 233.287776 92.375184 Q 212.796617 48.968867, 62.772663 117.569683" stroke-width="0.500000" />
<path stroke="#000000" stroke-opacity="0.501961" fill="none" d="M 51.711593 137.350203 Q 27.621642 120.329681, 40.971048 80.060052" stroke-width="0.500000" />
<path stroke="#000000" stroke-opacity="0.501961" fill="none" d="M 156.242473 135.955352 Q 128.635868 90.782510, 164.898712 78.530130" stroke-width="0.500000" />
<path stroke="#000000" stroke-opacity="0.501961" fill="none" d="M 32.983471 81.019226 Q 26.533308 126.365124, 80.764209 114.782600" stroke-width="0.500000" />
<path stroke="#000000" stroke-opacity="0.501961" fill="none" d="M 92.308343 138.695384 Q 127.905519 117.962150, 100.091089 77.297399" stroke-width="0.500000" />
<path stroke="#000000" stroke-opacity="0.501961" fill="none" d="M 23.923501 85.140360 Q 58.011530 103.038945, 66.594577 129.540602" stroke-width="0.500000" />
<path stroke="#000000" stroke-opacity="0.501961" fill="none" d="M 219.710968 118.447505 Q 228.646165 71.316900, 187.195811 75.154695" stroke-width="0.500000" />
<path stroke="#080808" stroke-opacity="0.501961" fill="none" d="M 142.800244 93.987456 Q 44.300707 49.367327, 11.272191 122.138203" stroke-width="0.500000" />
<path stroke="#000000" stroke-opacity="0.501961" fill="none" d="M 142.104429 86.203348 Q 138.003755 139.737721, 189.105041 144.159631" stroke-width="0.500000" />
<path stroke="#000000" stroke-opacity="0.501961" fill="none" d="M 219.763099 76.761881 Q 238.052087 91.584988, 206.635312 135.067421" stroke-width="0.500000" />
<path stroke="#161616" stroke-opacity="0.501961" fill="none" d="M -16.000000 136.320084 Q 185.215850 55.291531, 233.747618 85.028588" stroke-width="0.500000" />
<path stroke="#000000" stroke-opacity="0.501961" fill="none" d="M 153.442615 133.183736 Q 131.712762 106.895714, 154.044424 81.128755" stroke-width="0.500000" />
<path stroke="#000000" stroke-opacity="0.501961" fill="none" d="M 15.315603 93.879508 Q 53.558648 64.278647, 146.261397 91.448334" stroke-width="0.500000" />
<path stroke="#000000" stroke-opacity="0.501961" fill="none" d="M 78.135692 122.707101 Q 19.346659 136.047220, 35.542704 79.637264" stroke-width="0.500000" />
<path stroke="#000000" stroke-opacity="0.501961" fill="none" d="M 67.917465 128.986688 Q 71.651348 113.783394, 23.803254 83.138639" stroke-width="0.500000" />
<path stroke="#000000" stroke-opacity="0.501961" fill="none" d="M 22.908748 91.881765 Q 65.999955 113.207120, 62.899165 128.612392" stroke-width="0.500000" />
<path stroke="#000000" stroke-opacity="0.501961" fill="none" d="M 145.945943 93.562004 Q 111.397775 77.311228, 110.243040 118.149721" stroke-width="0.500000" />
<path stroke="#000000" stroke-opacity="0.501961" fill="none" d="M 218.917882 106.648979 Q 227.081082 73.237224, 169.815943 75.626182" stroke-width="0.500000" />
<path stroke="#000000" stroke-opacity="0.501961" fill="none" d="M 232.835621 92.389699 Q 200.489202 68.044583, 164.368855 76.722645" stroke-width="0.500000" />
<path stroke="#000000" stroke-opacity="0.501961" fill="none" d="M 195.831598 73.935857 Q 245.014113 91.782585, 203.896463 134.230475" stroke-width="0.500000" />
<path stroke="#000000" stroke-opacity="0.501961" fill="none" d="M 44.360878 130.943550 Q 19.993684 105.005913, 51.996531 75.123931" stroke-width="0.500000" />
<path stroke="#000000" stroke-opacity="0.501961" fill="none" d="M 113.855783 86.822463 Q 120.914592 106.578305, 105.110128 130.686906" stroke-width="0.500000" />
<path stroke="#000000" stroke-opacity="0.501961" fill="none" d="M 221.863110 79.156352 Q 230.681207 128.812541, 193.713186 138.891728" stroke-width="0.500000" />
<path stroke="#000000" stroke-opacity="0.501961" fill="none" d="M 36.457849 79.239979 Q 23.660378 124.793957, 72.940144 121.057766" stroke-width="0.500000" />
<path stroke="#000000" stroke-opacity="0.501961" fill="none" d="M 30.127054 81.590196 Q 21.456144 109.350542, 71.515016 120.166867" stroke-width="0.500000" />
<path stroke="#000000" stroke-opacity="0.501961" fill="none" d="M 131.871923 84.975911 Q 111.781016 81.430276, 106.643405 128.404957" stroke-width="0.500000" />
<path stroke="#000000" stroke-opacity="0.501961" fill="none" d="M 110.979576 121.395915 Q 105.355908 78.569254, 145.443993 89.788007" stroke-width="0.500000" />
<path stroke="#000000" stroke-opacity="0.501961" fill="none" d="M 69.902557 123.899155 Q 44.915579 86.127131, 23.950338 81.785724" stroke-width="0.500000" />
<path stroke="#000000" stroke-opacity="0.501961" fill="none" d="M 231.646609 95.855300 Q 214.987184 78.821167, 184.023581 76.369564" stroke-width="0.500000" />
<path stroke="#000000" stroke-opacity="0.501961" fill="none" d="M 53.819784 136.875097 Q 16.628707 98.980588, 53.127841 76.553601" stroke-width="0.500000" />
<path stroke="#000000" stroke-opacity="0.501961" fill="none" d="M 213.973801 126.672160 Q 237.097347 89.681554, 211.726146 76.768981" stroke-width="0.500000" />
<path stroke="#000000" stroke-opacity="0.501961" fill="none" d="M 41.780983 78.016233 Q 25.016437 108.616401, 46.041380 130.810873" stroke-width="0.500000" />
<path stroke="#000000" stroke-opacity="0.501961" fill="none" d="M 94.499687 139.597686 Q 123.069455 104.059931, 110.103092 89.260746" stroke-width="0.500000" />
<path stroke="#000000" stroke-opacity="0.501961" fill="none" d="M 159.813100 137.692057 Q 141.827257 118.956988, 141.169997 88.081142" stroke-width="0.500000" />
<path stroke="#000000" stroke-opacity="0.501961" fill="none" d="M 22.515380 84.992218 Q 65.081357 110.845843, 61.568343 129.065351" stroke-width="0.500000" />
<path stroke="#353535" stroke-opacity="0.501961" fill="none" d="M 146.166585 97.771614 Q 120.675555 66.314655, 7.756220 122.514733" stroke-width="0.500000" />
<path stroke="#ffffff" stroke-opacity="0.501961" fill="none" d="M 251.150729 131.695710 Q 271.000000 -16.000000, -14.191263 3.156789" stroke-width="0.500000" />
<path stroke="#ffffff" stroke-opacity="0.501961" fill="none" d="M 255.294541 129.589095 Q 268.117005 -16.000000, -5.839876 0.394473" stroke-width="0.500000" />
<path stroke="#0c0c0c" stroke-opacity="0.501961" fill="none" d="M 195.532867 125.404856 Q 202.206410 102.668588, 230.673392 80.176988" stroke-width="0.500000" />
<path stroke="#000000" stroke-opacity="0.501961" fill="none" d="M 17.726164 103.153419 Q 48.174548 64.566869, 111.045378 84.976026" stroke-width="0.500000" />
<path stroke="#000000" stroke-opacity="0.501961" fill="none" d="M 225.094112 98.961085 Q 237.234690 79.781101, 213.079168 77.169549" stroke-width="0.500000" />
<path stroke="#ffffff" stroke-opacity="0.501961" fill="none" d="M -4.136000 5.142228 Q 143.056646 -12.711650, 256.176898 103.606469" stroke-width="0.500000" />
<path stroke="#000000" stroke-opacity="0.501961" fill="none" d="M 232.993280 86.731094 Q 198.210961 72.320137, 154.441860 80.259854" stroke-width="0.500000" />
<path stroke="#000000" stroke-opacity="0.501961" fill="none" d="M 218.113291 125.408491 Q 213.577910 108.746427, 232.587593 82.733984" stroke-width="0.500000" />
<path stroke="#000000" stroke-opacity="0.501961" fill="none" d="M 146.593640 124.315331 Q 131.742115 71.876752, 188.086241 76.201359" stroke-width="0.500000" />
<path stroke="#000000" stroke-opacity="0.501961" fill="none" d="M 148.745737 85.416313 Q 132.529112 91.586988, 158.791965 139.670784" stroke-width="0.500000" />
<path stroke="#000000" stroke-opacity="0.501961" fill="none" d="M 65.642075 126.269658 Q 54.785978 88.581558, 21.929440 91.291572" stroke-width="0.500000" />
<path stroke="#000000" stroke-opacity="0.501961" fill="none" d="M 234.175258 83.668917 Q 179.545924 65.451276, 133.085668 91.520656" stroke-width="0.500000" />
<path stroke="#ffffff" stroke-opacity="0.501961" fill="none" d="M 259.846555 97.288553 Q 98.943290 -10.311994, 4.716160 -0.057525" stroke-width="0.500000" />
<path stroke="#0e0e0e" stroke-opacity="0.501961" fill="none" d="M 73.334670 120.262624 Q 29.123245 140.738415, 27.075551 81.617786" stroke-width="0.500000" />
<path stroke="#ffffff" stroke-opacity="0.501961" fill="none" d="M -16.000000 8.210680 Q 271.000000 -14.401877, 248.837725 131.783721" stroke-width="0.500000" />
<path stroke="#000000" stroke-opacity="0.501961" fill="none" d="M 105.235705 128.772951 Q 123.144155 100.863559, 102.377350 82.747511" stroke-width="0.500000" />
<path stroke="#ffffff" stroke-opacity="0.501961" fill="none" d="M 247.037921 132.813720 Q 271.000000 -4.000950, 13.330753 7.976686" stroke-width="0.500000" />
<path stroke="#383838" stroke-opacity="0.501961" fill="none" d="M 78.747089 110.982500 Q 24.151791 146.598999, -13.300922 104.530208" stroke-width="0.500000" />
<path stroke="#ffffff" stroke-opacity="0.501961" fill="none" d="M 2.755781 15.091993 Q 256.189619 -16.000000, 240.023781 140.915222" stroke-width="0.500000" />
<path stroke="#0f0f0f" stroke-opacity="0.501961" fill="none" d="M 14.674964 124.566549 Q 23.716140 47.439403, 120.736224 92.745632" stroke-width="0.500000" />
<path stroke="#000000" stroke-opacity="0.501961" fill="none" d="M 54.069337 136.419198 Q 31.585580 130.722850, 38.231703 74.636496" stroke-width="0.500000" />
<path stroke="#000000" stroke-opacity="0.501961" fill="none" d="M 148.700446 91.975333 Q 112.126168 74.889849, 108.946689 121.656536" stroke-width="0.500000" />
<path stroke="#000000" stroke-opacity="0.501961" fill="none" d="M 66.177769 122.188083 Q 27.329579 126.656173, 28.481441 81.988675" stroke-width="0.500000" />
<path stroke="#000000" stroke-opacity="0.501961" fill="none" d="M 203.713790 74.062182 Q 228.372197 84.011126, 217.729091 113.680355" stroke-width="0.500000" />
<path stroke="#000000" stroke-opacity="0.501961" fill="none" d="M 158.127677 133.230847 Q 128.927365 101.185485, 145.490920 88.446858" stroke-width="0.500000" />
<path stroke="#353535" stroke-opacity="0.501961" fill="none" d="M 177.488149 74.972567 Q 12.337746 137.871142, 3.174917 125.619787" stroke-width="0.500000" />
<path stroke="#000000" stroke-opacity="0.501961" fill="none" d="M 218.689051 104.673114 Q 238.157149 88.431132, 226.762080 78.936474" stroke-width="0.500000" />
<path stroke="#ffffff" stroke-opacity="0.501961" fill="none" d="M 3.681347 7.132280 Q 258.423771 -16.000000, 247.649773 133.287629" stroke-width="0.500000" />
<path stroke="#ffffff" stroke-opacity="0.501961" fill="none" d="M -13.030613 9.141817 Q 271.000000 9.553796, 243.958580 134.512006" stroke-width="0.500000" />
<path stroke="#141414" stroke-opacity="0.501961" fill="none" d="M 231.492618 82.239378 Q 196.315737 107.105420, 197.098695 122.133926" stroke-width="0.500000" />
<path stroke="#ffffff" stroke-opacity="0.501961" fill="none" d="M -3.588189 11.949558 Q 243.424997 8.232895, 256.285704 141.971834" stroke-width="0.500000" />
<path stroke="#000000" stroke-opacity="0.501961" fill="none" d="M 108.976908 85.123448 Q 125.075399 106.224834, 104.743361 125.722667" stroke-width="0.500000" />
<path stroke="#ffffff" stroke-opacity="0.501961" fill="none" d="M 254.246397 124.175019 Q 271.000000 -16.000000, 12.201545 4.812828" stroke-width="0.500000" />
<path stroke="#000000" stroke-opacity="0.501961" fill="none" d="M 230.890366 92.498089 Q 224.561510 72.895489, 181.837489 75.010435" stroke-width="0.500000" />
<path stroke="#000000" stroke-opacity="0.501961" fill="none" d="M 88.136923 78.413592 Q 25.520504 64.873173, 24.439031 129.120728" stroke-width="0.500000" />
<path stroke="#000000" stroke-opacity="0.501961" fill="none" d="M 145.798127 124.785550 Q 149.279938 77.478086, 115.733203 85.475454" stroke-width="0.500000" />
<path stroke="#ffffff" stroke-opacity="0.501961" fill="none" d="M 241.478201 135.350231 Q 262.938075 -2.662727, -16.000000 9.382887" stroke-width="0.500000" />
<path stroke="#000000" stroke-opacity="0.501961" fill="none" d="M 23.929428 84.119990 Q 34.589297 80.034597, 68.100532 124.670981" stroke-width="0.500000" />
<path stroke="#ffffff" stroke-opacity="0.501961" fill="none" d="M -16.000000 -4.896384 Q 267.405376 69.436493, 254.414577 109.519986" stroke-width="0.500000" />
<path stroke="#000000" stroke-opacity="0.501961" fill="none" d="M 93.849736 78.050116 Q 142.688714 103.130986, 154.380605 82.848882" stroke-width="0.500000" />
<path stroke="#080808" stroke-opacity="0.501961" fill="none" d="M 26.298485 78.901482 Q 31.275338 109.530223, 70.462300 118.372389" stroke-width="0.500000" />
<path stroke="#ffffff" stroke-opacity="0.501961" fill="none" d="M 255.208802 103.266996 Q 262.725402 66.418346, -16.000000 -6.516934" stroke-width="0.500000" />
<path stroke="#ffffff" stroke-opacity="0.501961" fill="none" d="M -16.000000 25.307938 Q 270.991763 -6.508891, 252.840422 140.378924" stroke-width="0.500000" />
<path stroke="#040404" stroke-opacity="0.501961" fill="none" d="M 70.723250 119.863180 Q 19.003264 118.115741, 34.722623 76.897560" stroke-width="0.500000" />
<path stroke="#000000" stroke-opacity="0.501961" fill="none" d="M 230.964607 93.942419 Q 209.067773 73.650753, 163.870619 77.348405" stroke-width="0.500000" />
<path stroke="#000000" stroke-opacity="0.501961" fill="none" d="M 212.622187 77.819854 Q 234.616603 86.421092, 221.001037 107.946985" stroke-width="0.500000" />
<path stroke="#000000" stroke-opacity="0.501961" fill="none" d="M 143.555781 112.076491 Q 143.303750 74.957724, 100.283802 92.040535" stroke-width="0.500000" />
<path stroke="#ffffff" stroke-opacity="0.501961" fill="none" d="M -11.048987 13.820441 Q 271.000000 20.910574, 250.010140 127.873008" stroke-width="0.500000" />
<path stroke="#ffffff" stroke-opacity="0.501961" fill="none" d="M 271.000000 96.973783 Q 26.195249 -11.520785, 7.999824 27.121254" stroke-width="0.500000" />
<path stroke="#5b5b5b" stroke-opacity="0.501961" fill="none" d="M 103.523804 84.784192 Q 6.972662 127.340821, -8.811094 129.406874" stroke-width="0.500000" />
<path stroke="#000000" stroke-opacity="0.501961" fill="none" d="M 94.568190 76.869236 Q 28.951512 70.893919, 23.093510 95.549554" stroke-width="0.500000" />
<path stroke="#000000" stroke-opacity="0.501961" fill="none" d="M 231.112944 80.076949 Q 235.494123 88.422465, 219.351848 102.285372" stroke-width="0.500000" />
<path stroke="#080808" stroke-opacity="0.501961" fill="none" d="M 67.791616 126.906239 Q 41.139901 94.884942, 22.504644 87.278962" stroke-width="0.500000" />
<path stroke="#000000" stroke-opacity="0.501961" fill="none" d="M 140.253263 98.632137 Q 161.587813 59.178710, 238.866936 89.922175" stroke-width="0.500000" />
<path stroke="#ffffff" stroke-opacity="0.501961" fill="none" d="M 265.500716 86.783421 Q 236.643369 87.322597, -4.553074 -1.099668" stroke-width="0.500000" />
<path stroke="#ffffff" stroke-opacity="0.501961" fill="none" d="M 9.839483 21.444368 Q 62.815626 -10.210001, 271.000000 92.046662" stroke-width="0.500000" />
<path stroke="#000000" stroke-opacity="0.501961" fill="none" d="M 109.890773 84.668345 Q 116.812469 132.415275, 93.493376 137.801383" stroke-width="0.500000" />
<path stroke="#000000" stroke-opacity="0.501961" fill="none" d="M 146.560068 88.221354 Q 135.348240 132.192614, 173.839747 140.694036" stroke-width="0.500000" />
<path stroke="#2d2d2d" stroke-opacity="0.501961" fill="none" d="M 231.752105 92.329265 Q 198.462324 92.430201, 197.402275 127.767623" stroke-width="0.500000" />
<path stroke="#4b4b4b" stroke-opacity="0.501961" fill="none" d="M 118.834141 86.504440 Q 18.006831 129.730120, -16.000000 130.211966" stroke-width="0.500000" />
<path stroke="#000000" stroke-opacity="0.501961" fill="none" d="M 203.909430 76.629575 Q 237.452275 81.330420, 217.496061 123.706141" stroke-width="0.500000" />
<path stroke="#050505" stroke-opacity="0.501961" fill="none" d="M 53.111052 137.493623 Q 22.405161 121.347215, 44.957111 78.197348" stroke-width="0.500000" />
<path stroke="#000000" stroke-opacity="0.501961" fill="none" d="M 138.052726 86.351557 Q 105.080575 80.547358, 111.888013 112.155171" stroke-width="0.500000" />
<path stroke="#ffffff" stroke-opacity="0.501961" fill="none" d="M 248.777033 67.122163 Q 242.498063 -12.252626, -15.577068 3.805440" stroke-width="0.500000" />
<path stroke="#ffffff" stroke-opacity="0.501961" fill="none" d="M -1.577372 10.358679 Q 266.065208 2.524424, 235.693088 139.030167" stroke-width="0.500000" />
<path stroke="#000000" stroke-opacity="0.501961" fill="none" d="M 29.059267 85.370055 Q 117.098521 63.341696, 117.935383 113.599721" stroke-width="0.500000" />
<path stroke="#161616" stroke-opacity="0.501961" fill="none" d="M 23.941623 83.371901 Q 43.348177 76.915166, 68.616734 124.239008" stroke-width="0.500000" />
<path stroke="#000000" stroke-opacity="0.501961" fill="none" d="M 144.534068 91.645874 Q 132.079769 103.790870, 153.169581 133.076166" stroke-width="0.500000" />
<path stroke="#ffffff" stroke-opacity="0.501961" fill="none" d="M 241.269349 138.279186 Q 271.000000 8.614176, 30.188172 6.993293" stroke-width="0.500000" />
<path stroke="#ffffff" stroke-opacity="0.501961" fill="none" d="M 1.585193 0.855533 Q 49.595557 0.019647, 262.989982 75.121363" stroke-width="0.500000" />
<path stroke="#ffffff" stroke-opacity="0.501961" fill="none" d="M 240.096759 123.611842 Q 261.127032 26.302991, 4.183185 19.914101" stroke-width="0.500000" />
<path stroke="#ffffff" stroke-opacity="0.501961" fill="none" d="M -16.000000 18.829732 Q 262.165197 17.608139, 249.333023 125.188518" stroke-width="0.500000" />
<path stroke="#000000" stroke-opacity="0.501961" fill="none" d="M 28.294747 127.431027 Q 35.625704 102.149889, 35.023379 79.559028" stroke-width="0.500000" />
<path stroke="#ffffff" stroke-opacity="0.501961" fill="none" d="M -16.000000 34.444156 Q 259.205628 4.591101, 243.998926 135.027327" stroke-width="0.500000" />
<path stroke="#ffffff" stroke-opacity="0.501961" fill="none" d="M -1.564496 139.823037 Q 134.159306 183.953728, 136.483498 100.742518" stroke-width="0.500000" />
<path stroke="#000000" stroke-opacity="0.501961" fill="none" d="M 231.802145 82.412702 Q 215.959766 93.525114, 220.146206 112.894790" stroke-width="0.500000" />
<path stroke="#000000" stroke-opacity="0.501961" fill="none" d="M 212.325120 77.352274 Q 238.349914 87.287930, 220.653440 105.009478" stroke-width="0.500000" />
<path stroke="#000000" stroke-opacity="0.501961" fill="none" d="M 230.497624 80.273671 Q 212.278436 80.199580, 220.837084 104.947283" stroke-width="0.500000" />
<path stroke="#ffffff" stroke-opacity="0.501961" fill="none" d="M 8.192376 21.391708 Q 256.842091 29.324990, 255.501613 135.710831" stroke-width="0.500000" />
<path stroke="#ffffff" stroke-opacity="0.501961" fill="none" d="M 254.037997 111.439964 Q 271.000000 -5.963661, 13.543074 3.209920" stroke-width="0.500000" />
<path stroke="#fcfcfc" stroke-opacity="0.501961" fill="none" d="M 1.478255 154.370051 Q 249.391609 154.645692, 255.660031 53.377106" stroke-width="0.500000" />
<path stroke="#ffffff" stroke-opacity="0.501961" fill="none" d="M 159.497576 138.484287 Q 20.651884 111.432138, -5.109570 185.000000" stroke-width="0.500000" />
<path stroke="#ffffff" stroke-opacity="0.501961" fill="none" d="M 256.868842 88.036541 Q 69.696262 24.347197, -16.000000 -6.024363" stroke-width="0.500000" />
<path stroke="#464646" stroke-opacity="0.501961" fill="none" d="M 144.025484 95.091736 Q 103.964672 78.285804, -5.720572 132.134929" stroke-width="0.500000" />
<path stroke="#ffffff" stroke-opacity="0.501961" fill="none" d="M 254.368026 81.581471 Q 264.125201 -16.000000, 16.940275 5.508000" stroke-width="0.500000" />
<path stroke="#ffffff" stroke-opacity="0.501961" fill="none" d="M 138.271550 97.619229 Q 107.170765 185.000000, 0.999775 164.232398" stroke-width="0.500000" />
<path stroke="#000000" stroke-opacity="0.501961" fill="none" d="M 31.884563 78.403542 Q 36.676971 122.054105, 48.624706 133.268571" stroke-width="0.500000" />
<path stroke="#000000" stroke-opacity="0.501961" fill="none" d="M 40.006884 120.216298 Q 18.501716 88.450081, 46.605777 79.557703" stroke-width="0.500000" />
<path stroke="#ffffff" stroke-opacity="0.501961" fill="none" d="M 10.718343 12.841831 Q 271.000000 -16.000000, 252.599778 134.218537" stroke-width="0.500000" />
<path stroke="#ffffff" stroke-opacity="0.501961" fill="none" d="M 237.720990 131.540167 Q 264.524458 15.057855, 8.858624 13.681622" stroke-width="0.500000" />
<path stroke="#ffffff" stroke-opacity="0.501961" fill="none" d="M 103.614548 3.070864 Q 271.000000 -14.039498, 223.814780 132.181643" stroke-width="0.500000" />
<path stroke="#000000" stroke-opacity="0.501961" fill="none" d="M 183.997201 75.974428 Q 221.922021 76.478436, 232.963968 82.479992" stroke-width="0.500000" />
<path stroke="#515151" stroke-opacity="0.501961" fill="none" d="M 136.161190 93.501993 Q 109.149397 69.933990, 1.570423 123.853019" stroke-width="0.500000" />
<path stroke="#000000" stroke-opacity="0.501961" fill="none" d="M 195.393257 76.819901 Q 234.130894 83.608413, 219.270817 108.648899" stroke-width="0.500000" />
<path stroke="#ffffff" stroke-opacity="0.501961" fill="none" d="M -6.283692 119.252427 Q 12.944604 185.000000, 162.661844 139.777293" stroke-width="0.500000" />
<path stroke="#020202" stroke-opacity="0.501961" fill="none" d="M 115.231285 90.963136 Q 110.802281 127.767800, 91.176352 138.269867" stroke-width="0.500000" />
<path stroke="#fefefe" stroke-opacity="0.501961" fill="none" d="M 183.469371 9.817417 Q 192.487931 73.416980, 139.812684 84.452197" stroke-width="0.500000" />
<path stroke="#000000" stroke-opacity="0.501961" fill="none" d="M 147.627334 85.374760 Q 131.228816 96.385858, 154.906309 135.174303" stroke-width="0.500000" />
<path stroke="#000000" stroke-opacity="0.501961" fill="none" d="M 111.381809 117.963028 Q 125.715940 90.705291, 91.939019 77.679716" stroke-width="0.500000" />
<path stroke="#fefefe" stroke-opacity="0.501961" fill="none" d="M -7.484342 -2.114650 Q 238.624371 100.731046, 270.888793 74.932742" stroke-width="0.500000" />
<path stroke="#f4f4f4" stroke-opacity="0.501961" fill="none" d="M 107.355973 82.614559 Q 202.964396 93.646830, 167.898896 -2.672865" stroke-width="0.500000" />
<path stroke="#000000" stroke-opacity="0.501961" fill="none" d="M 67.153190 76.419225 Q 14.541041 80.471478, 38.792424 127.126532" stroke-width="0.500000" />
<path stroke="#ffffff" stroke-opacity="0.501961" fill="none" d="M -9.067193 127.413221 Q 105.061397 185.000000, 132.908236 100.753054" stroke-width="0.500000" />
<path stroke="#ffffff" stroke-opacity="0.501961" fill="none" d="M 17.166712 8.087618 Q 240.162121 -16.000000, 256.372790 87.343165" stroke-width="0.500000" />
<path stroke="#000000" stroke-opacity="0.501961" fill="none" d="M 111.000075 91.894655 Q 146.500929 91.684017, 155.916027 83.821219" stroke-width="0.500000" />
<path stroke="#000000" stroke-opacity="0.501961" fill="none" d="M 213.657818 124.013555 Q 223.178790 101.456809, 230.304746 78.037483" stroke-width="0.500000" />
<path stroke="#ffffff" stroke-opacity="0.501961" fill="none" d="M 137.532183 99.002896 Q 142.187030 185.000000, -16.000000 165.926544" stroke-width="0.500000" />
<path stroke="#ffffff" stroke-opacity="0.501961" fill="none" d="M 131.101184 92.963108 Q 120.143340 179.722283, -13.641305 162.262916" stroke-width="0.500000" />
<path stroke="#ffffff" stroke-opacity="0.501961" fill="none" d="M 16.685948 3.132304 Q 261.368180 92.415496, 271.000000 83.766823" stroke-width="0.500000" />
<path stroke="#ffffff" stroke-opacity="0.501961" fill="none" d="M -16.000000 132.478863 Q 129.637422 184.153756, 135.236511 101.880333" stroke-width="0.500000" />
<path stroke="#ffffff" stroke-opacity="0.501961" fill="none" d="M 140.993047 114.608400 Q 25.661817 185.000000, -0.374344 140.227095" stroke-width="0.500000" />
<path stroke="#f9f9f9" stroke-opacity="0.501961" fill="none" d="M 269.871051 112.408200 Q 51.500106 172.386254, -5.685660 154.064490" stroke-width="0.500000" />
<path stroke="#000000" stroke-opacity="0.501961" fill="none" d="M 139.471353 84.916254 Q 142.294948 138.104908, 166.692388 137.185947" stroke-width="0.500000" />
<path stroke="#474747" stroke-opacity="0.501961" fill="none" d="M 71.584405 113.923856 Q 36.787283 146.420451, -10.468510 99.340861" stroke-width="0.500000" />
<path stroke="#ffffff" stroke-opacity="0.501961" fill="none" d="M 245.777786 114.094859 Q 271.000000 -14.625165, 64.831473 6.810045" stroke-width="0.500000" />
<path stroke="#ffffff" stroke-opacity="0.501961" fill="none" d="M 252.783174 125.082230 Q 241.715988 -8.519675, 17.238891 8.471973" stroke-width="0.500000" />
<path stroke="#535353" stroke-opacity="0.501961" fill="none" d="M -1.106516 116.775659 Q 8.119382 143.294015, 98.982530 106.070859" stroke-width="0.500000" />
<path stroke="#111111" stroke-opacity="0.501961" fill="none" d="M 24.219832 87.709909 Q 35.439678 118.564813, 70.747592 115.323942" stroke-width="0.500000" />
<path stroke="#ffffff" stroke-opacity="0.501961" fill="none" d="M -5.581845 155.257361 Q 143.260029 185.000000, 138.199338 104.610560" stroke-width="0.500000" />
<path stroke="#ffffff" stroke-opacity="0.501961" fill="none" d="M -16.000000 159.732592 Q 123.977062 174.830120, 117.341036 103.839726" stroke-width="0.500000" />
<path stroke="#000000" stroke-opacity="0.501961" fill="none" d="M 102.485874 85.527724 Q 116.386260 90.345145, 110.705225 122.330992" stroke-width="0.500000" />
<path stroke="#ffffff" stroke-opacity="0.501961" fill="none" d="M 255.418654 128.752059 Q 254.667816 -10.759590, 6.467147 17.374197" stroke-width="0.500000" />
<path stroke="#000000" stroke-opacity="0.501961" fill="none" d="M 228.946888 94.865372 Q 204.292093 71.962609, 167.478641 76.752117" stroke-width="0.500000" />
<path stroke="#ffffff" stroke-opacity="0.501961" fill="none" d="M -12.737402 131.163795 Q 86.061386 155.044772, 145.969092 132.812315" stroke-width="0.500000" />
<path stroke="#000000" stroke-opacity="0.501961" fill="none" d="M 41.600781 76.597436 Q 23.153506 98.598617, 45.087372 130.313063" stroke-width="0.500000" />
<path stroke="#000000" stroke-opacity="0.501961" fill="none" d="M 143.046962 89.318755 Q 115.815493 75.281476, 111.166748 101.950713" stroke-width="0.500000" />
<path stroke="#f9f9f9" stroke-opacity="0.501961" fill="none" d="M -4.095653 157.702916 Q 232.349623 132.513603, 271.000000 111.822834" stroke-width="0.500000" />
<path stroke="#ffffff" stroke-opacity="0.501961" fill="none" d="M 8.896611 11.606943 Q 266.081332 -14.538856, 254.817560 107.419000" stroke-width="0.500000" />
<path stroke="#fdfdfd" stroke-opacity="0.501961" fill="none" d="M 246.951921 135.492020 Q 247.989114 -16.000000, 3.623089 29.110661" stroke-width="0.500000" />
<path stroke="#ffffff" stroke-opacity="0.501961" fill="none" d="M 134.679920 96.803108 Q 114.564813 184.032890, -4.115334 141.151533" stroke-width="0.500000" />
<path stroke="#ffffff" stroke-opacity="0.501961" fill="none" d="M -1.041003 15.497546 Q 263.203494 -3.409624, 247.055813 122.737947" stroke-width="0.500000" />
<path stroke="#fcfcfc" stroke-opacity="0.501961" fill="none" d="M 9.803676 36.369033 Q 51.420870 4.503933, 271.000000 79.085347" stroke-width="0.500000" />
<path stroke="#080808" stroke-opacity="0.501961" fill="none" d="M 65.018098 128.394748 Q 61.349200 109.179922, 26.983717 83.374297" stroke-width="0.500000" />
<path stroke="#4f4f4f" stroke-opacity="0.501961" fill="none" d="M -4.845083 118.195808 Q 9.036226 137.558369, 91.560438 103.744820" stroke-width="0.500000" />
<path stroke="#000000" stroke-opacity="0.501961" fill="none" d="M 88.150677 76.455657 Q 41.900448 77.790235, 22.881735 84.002076" stroke-width="0.500000" />
<path stroke="#fefefe" stroke-opacity="0.501961" fill="none" d="M 1.718206 11.008114 Q 249.851030 -16.000000, 245.630008 87.235328" stroke-width="0.500000" />
<path stroke="#ffffff" stroke-opacity="0.501961" fill="none" d="M 160.032531 141.714019 Q 32.748397 183.196661, -0.532952 137.004376" stroke-width="0.500000" />
<path stroke="#000000" stroke-opacity="0.501961" fill="none" d="M 220.573697 103.305728 Q 217.459966 79.399274, 231.768938 81.376643" stroke-width="0.500000" />
<path stroke="#ffffff" stroke-opacity="0.501961" fill="none" d="M -2.416981 135.430818 Q 120.147095 174.337936, 129.477937 93.460129" stroke-width="0.500000" />
<path stroke="#fcfcfc" stroke-opacity="0.501961" fill="none" d="M -9.767579 35.223938 Q 260.469792 22.490560, 249.169290 125.148394" stroke-width="0.500000" />
<path stroke="#454545" stroke-opacity="0.501961" fill="none" d="M 195.642706 139.991639 Q 200.465870 107.027571, 205.139687 107.243482" stroke-width="0.500000" />
<path stroke="#ffffff" stroke-opacity="0.501961" fill="none" d="M 25.470647 2.978636 Q 270.915349 0.465962, 250.798916 135.154511" stroke-width="0.500000" />
<path stroke="#ffffff" stroke-opacity="0.501961" fill="none" d="M 141.256218 124.838644 Q 129.011151 185.000000, -7.449291 157.410960" stroke-width="0.500000" />
<path stroke="#000000" stroke-opacity="0.501961" fill="none" d="M 174.704283 75.658662 Q 228.915323 74.368829, 232.579586 90.968880" stroke-width="0.500000" />
<path stroke="#fdfdfd" stroke-opacity="0.501961" fill="none" d="M 255.845146 97.731743 Q 251.786552 21.874972, -2.512896 17.234883" stroke-width="0.500000" />
<path stroke="#000000" stroke-opacity="0.501961" fill="none" d="M 116.491987 109.546663 Q 113.005247 64.894940, 26.331987 81.823733" stroke-width="0.500000" />
<path stroke="#080808" stroke-opacity="0.501961" fill="none" d="M 117.492372 85.153896 Q 115.325156 129.017160, 84.246600 142.314521" stroke-width="0.500000" />
<path stroke="#ffffff" stroke-opacity="0.501961" fill="none" d="M 210.157487 6.910767 Q 271.000000 23.084516, 216.112279 130.704030" stroke-width="0.500000" />
<path stroke="#000000" stroke-opacity="0.501961" fill="none" d="M 232.424198 81.512196 Q 233.931577 99.383153, 218.484743 95.835803" stroke-width="0.500000" />
<path stroke="#676767" stroke-opacity="0.501961" fill="none" d="M -16.000000 136.130619 Q 19.834920 113.426409, 96.404889 89.020783" stroke-width="0.500000" />
<path stroke="#000000" stroke-opacity="0.501961" fill="none" d="M 149.033720 89.680982 Q 144.121680 98.357911, 96.173333 82.526101" stroke-width="0.500000" />
<path stroke="#fafafa" stroke-opacity="0.501961" fill="none" d="M 264.650858 62.456341 Q 235.952073 108.991780, -8.956228 -2.014528" stroke-width="0.500000" />
<path stroke="#030303" stroke-opacity="0.501961" fill="none" d="M 98.245651 79.413517 Q 22.079236 60.640746, 35.213509 127.476804" stroke-width="0.500000" />
<path stroke="#000000" stroke-opacity="0.501961" fill="none" d="M 171.062774 76.363237 Q 225.463914 65.593912, 222.267083 107.365311" stroke-width="0.500000" />
<path stroke="#ffffff" stroke-opacity="0.501961" fill="none" d="M 108.899567 171.222629 Q 22.675650 112.038865, -0.318554 154.684157" stroke-width="0.500000" />
<path stroke="#ffffff" stroke-opacity="0.501961" fill="none" d="M 271.000000 84.625447 Q 147.306410 52.196065, 12.184094 -0.694732" stroke-width="0.500000" />
<path stroke="#000000" stroke-opacity="0.501961" fill="none" d="M 146.722403 115.339170 Q 137.618527 74.113905, 110.198443 90.067656" stroke-width="0.500000" />
<path stroke="#ffffff" stroke-opacity="0.501961" fill="none" d="M 122.003594 182.651630 Q 32.117236 95.854595, -6.380062 179.580493" stroke-width="0.500000" />
<path stroke="#5b5b5b" stroke-opacity="0.501961" fill="none" d="M 10.889838 130.518842 Q 89.862496 102.433726, 104.179812 102.440435" stroke-width="0.500000" />
<path stroke="#ffffff" stroke-opacity="0.501961" fill="none" d="M 10.979626 7.587855 Q 255.202764 -16.000000, 255.661504 60.716044" stroke-width="0.500000" />
<path stroke="#171717" stroke-opacity="0.501961" fill="none" d="M 26.949358 80.324829 Q 18.123984 102.847827, 70.728186 114.739487" stroke-width="0.500000" />
<path stroke="#fafafa" stroke-opacity="0.501961" fill="none" d="M 271.000000 83.759007 Q 104.486106 21.077103, 1.686168 26.784393" stroke-width="0.500000" />
<path stroke="#ffffff" stroke-opacity="0.501961" fill="none" d="M -0.544403 166.099372 Q 148.411827 185.000000, 135.713662 98.357503" stroke-width="0.500000" />
<path stroke="#ffffff" stroke-opacity="0.501961" fill="none" d="M 164.370327 144.533396 Q 142.560985 110.938375, -3.430242 152.522634" stroke-width="0.500000" />
<path stroke="#000000" stroke-opacity="0.501961" fill="none" d="M 49.526091 134.298993 Q 20.597512 93.107946, 34.147875 80.323412" stroke-width="0.500000" />
<path stroke="#000000" stroke-opacity="0.501961" fill="none" d="M 159.543465 137.084265 Q 132.469997 113.455902, 146.254664 90.325959" stroke-width="0.500000" />
<path stroke="#ffffff" stroke-opacity="0.501961" fill="none" d="M 144.614989 123.592182 Q 61.985888 185.000000, 3.418350 159.983904" stroke-width="0.500000" />
<path stroke="#000000" stroke-opacity="0.501961" fill="none" d="M 43.180850 127.152771 Q 31.876505 120.418607, 41.228812 80.324474" stroke-width="0.500000" />
<path stroke="#ffffff" stroke-opacity="0.501961" fill="none" d="M 143.067561 117.735626 Q 42.073312 181.089870, -11.874312 152.533828" stroke-width="0.500000" />
<path stroke="#000000" stroke-opacity="0.501961" fill="none" d="M 218.774049 120.789910 Q 214.720664 105.955129, 232.001370 79.709849" stroke-width="0.500000" />
<path stroke="#fefefe" stroke-opacity="0.501961" fill="none" d="M 11.848299 5.757178 Q 94.748180 37.113063, 193.747303 69.874124" stroke-width="0.500000" />
<path stroke="#fefefe" stroke-opacity="0.501961" fill="none" d="M 227.723764 124.608392 Q 269.587943 -8.914030, 143.883174 2.074132" stroke-width="0.500000" />
<path stroke="#ffffff" stroke-opacity="0.501961" fill="none" d="M -0.509902 131.550377 Q 53.030253 175.642446, 142.306873 115.035351" stroke-width="0.500000" />
<path stroke="#ffffff" stroke-opacity="0.501961" fill="none" d="M 180.209922 4.676035 Q 271.000000 5.328113, 224.706555 139.110106" stroke-width="0.500000" />
<path stroke="#000000" stroke-opacity="0.501961" fill="none" d="M 218.202675 99.134951 Q 237.907597 91.968007, 224.196150 77.487151" stroke-width="0.500000" />
<path stroke="#ffffff" stroke-opacity="0.501961" fill="none" d="M 258.286930 29.923476 Q 250.266446 58.783345, 15.783636 -1.215474" stroke-width="0.500000" />
<path stroke="#f5f5f5" stroke-opacity="0.501961" fill="none" d="M 0.116168 2.299060 Q 219.108596 119.975093, 255.080560 27.867020" stroke-width="0.500000" />
<path stroke="#ffffff" stroke-opacity="0.501961" fill="none" d="M -0.357801 147.199454 Q 104.697321 182.941385, 143.307552 118.998488" stroke-width="0.500000" />
<path stroke="#fefefe" stroke-opacity="0.501961" fill="none" d="M 270.185094 61.121526 Q 17.217200 -11.195919, -14.328611 0.310208" stroke-width="0.500000" />
<path stroke="#000000" stroke-opacity="0.501961" fill="none" d="M 101.228369 77.799621 Q 112.603562 104.368551, 169.041343 77.175772" stroke-width="0.500000" />
<path stroke="#fdfdfd" stroke-opacity="0.501961" fill="none" d="M -16.000000 19.226217 Q 245.362339 -16.000000, 253.669097 96.876925" stroke-width="0.500000" />
<path stroke="#000000" stroke-opacity="0.501961" fill="none" d="M 30.592926 80.131867 Q 40.588086 89.167956, 32.303054 128.928081" stroke-width="0.500000" />
<path stroke="#fefefe" stroke-opacity="0.501961" fill="none" d="M 243.224822 129.415307 Q 271.000000 37.092608, 18.300510 7.450881" stroke-width="0.500000" />
<path stroke="#f5f5f5" stroke-opacity="0.501961" fill="none" d="M -16.000000 132.583122 Q 230.534441 185.000000, 242.291681 91.408818" stroke-width="0.500000" />
<path stroke="#fbfbfb" stroke-opacity="0.501961" fill="none" d="M 185.557904 68.856790 Q 160.509720 14.445913, -16.000000 36.690753" stroke-width="0.500000" />
<path stroke="#ffffff" stroke-opacity="0.501961" fill="none" d="M 113.610282 169.934029 Q 18.780907 112.826108, -1.363556 148.273594" stroke-width="0.500000" />
<path stroke="#000000" stroke-opacity="0.501961" fill="none" d="M 147.654005 122.908475 Q 145.022070 78.904789, 111.210257 90.692408" stroke-width="0.500000" />
<path stroke="#ffffff" stroke-opacity="0.501961" fill="none" d="M -2.914232 134.369735 Q 50.468372 185.000000, 130.676312 163.142156" stroke-width="0.500000" />
<path stroke="#000000" stroke-opacity="0.501961" fill="none" d="M 209.496555 82.413213 Q 230.590889 74.487321, 231.892871 94.251462" stroke-width="0.500000" />
<path stroke="#080808" stroke-opacity="0.501961" fill="none" d="M 65.043340 124.616938 Q 58.544689 125.629864, 53.852099 96.801614" stroke-width="0.500000" />
<path stroke="#000000" stroke-opacity="0.501961" fill="none" d="M 115.964020 85.481172 Q 145.235047 82.272967, 144.544391 112.885967" stroke-width="0.500000" />
<path stroke="#ffffff" stroke-opacity="0.501961" fill="none" d="M -3.590259 151.053655 Q 104.368027 185.000000, 126.036862 92.412152" stroke-width="0.500000" />
<path stroke="#ffffff" stroke-opacity="0.501961" fill="none" d="M 131.586146 93.682436 Q 129.543743 185.000000, -5.586399 144.839017" stroke-width="0.500000" />
<path stroke="#000000" stroke-opacity="0.501961" fill="none" d="M 216.917088 95.262088 Q 236.648984 99.173989, 230.868964 79.535279" stroke-width="0.500000" />
<path stroke="#000000" stroke-opacity="0.501961" fill="none" d="M 107.305055 86.815664 Q 120.225692 110.459420, 106.276696 126.962536" stroke-width="0.500000" />
<path stroke="#fafafa" stroke-opacity="0.501961" fill="none" d="M -5.482845 185.000000 Q 50.368416 92.798670, 136.663307 147.750536" stroke-width="0.500000" />
<path stroke="#000000" stroke-opacity="0.501961" fill="none" d="M 145.107282 96.889739 Q 149.499448 68.240411, 232.330429 80.639829" stroke-width="0.500000" />
<path stroke="#ffffff" stroke-opacity="0.501961" fill="none" d="M -11.949489 159.066448 Q 143.334011 185.000000, 132.063418 95.608584" stroke-width="0.500000" />
<path stroke="#ffffff" stroke-opacity="0.501961" fill="none" d="M 228.965448 136.845832 Q 239.968335 136.144612, 227.583665 -9.714627" stroke-width="0.500000" />
<path stroke="#3e3e3e" stroke-opacity="0.501961" fill="none" d="M 195.194740 126.971977 Q 206.904209 104.106980, 205.239915 100.989949" stroke-width="0.500000" />
<path stroke="#ffffff" stroke-opacity="0.501961" fill="none" d="M 0.003598 164.078154 Q 143.641990 185.000000, 141.107306 123.735512" stroke-width="0.500000" />
<path stroke="#ffffff" stroke-opacity="0.501961" fill="none" d="M 215.094307 135.258774 Q 256.211978 71.254682, 226.795047 -6.807662" stroke-width="0.500000" />
<path stroke="#000000" stroke-opacity="0.501961" fill="none" d="M 231.916226 89.228555 Q 221.121220 94.479222, 206.724896 78.249158" stroke-width="0.500000" />
<path stroke="#ffffff" stroke-opacity="0.501961" fill="none" d="M 224.011732 144.028016 Q 271.000000 17.297262, 214.020497 5.713421" stroke-width="0.500000" />
<path stroke="#f2f2f2" stroke-opacity="0.501961" fill="none" d="M 271.000000 1.673141 Q 223.940754 110.026009, 8.818538 17.299733" stroke-width="0.500000" />
<path stroke="#fefefe" stroke-opacity="0.501961" fill="none" d="M -5.094916 1.994497 Q 1.353635 -16.000000, 202.170890 66.121604" stroke-width="0.500000" />
</g>
</svg>