<svg height="632" width="1024" xmlns="http://www.w3.org/2000/svg"><path d="m0 0h1024v632h-1024z" fill="#3a3b3c"/><g fill="none" stroke-opacity=".501961" stroke-width=".5" transform="matrix(4 0 0 4 2 2)"><path d="m1.551407 173q-6.317421-161.766042 1.950978-183.277037" stroke="#c0bec9"/><path d="m1.936809 173q.332587-116.073309-.138486-175.483267" stroke="#bebcc7"/><path d="m3.189041 166.805735q1.588921-22.867912.599745-182.805735" stroke="#bbb9c3"/><path d="m6.491006 158.313493q-.303583-165.338055-1.670162-174.313493" stroke="#bab7c2"/><path d="m9.215455 173q-1.515283-51.872347-1.213525-165.975326" stroke="#b0aeb9"/><path d="m-16-16q28.397722 0 28.064696 170.917196" stroke="#afacb7"/><path d="m76.618219 136.060581q27.309378-13.3278 88.303304-46.858168" stroke="#decdad"/><path d="m153.543752 106.597592q-3.852754 11.501475-102.807476 59.088848" stroke="#ccc6c2"/><path d="m157.662627-12.760401q-21.569009-.559417-114.286618 42.223369" stroke="#e8e2e1"/><path d="m70.682208 157.827211q42.107369-25.965724 94.721426-51.972364" stroke="#cdc5c1"/><path d="m144.306989 8.244055q-67.778971 29.346753-106.747339 48.495265" stroke="#e1cc80"/><path d="m165.169904 115.814878q-51.738971 26.766921-101.551548 57.185122" stroke="#ded1c7"/><path d="m-6.969174-16q23.523825 36.904608 21.460608 189" stroke="#aca9b4"/><path d="m165.921556 99.954011q-41.1279 22.811638-91.393718 48.651012" stroke="#d2cac6"/><path d="m5.378755 173q1.25696-122.020869-2.213164-189" stroke="#b2aeb8"/><path d="m170.283451 70.900259q-34.361904 18.906126-90.503281 46.806149" stroke="#d7c49f"/><path d="m-.117284 158.939892q6.999363-53.782356 1.536497-168.137782" stroke="#aeabb5"/><path d="m36.865098 73.706617q85.108676-37.23877 128.517381-59.39764" stroke="#cbb062"/><path d="m9.072206 12.025861q-.059898 102.441873 1.385764 151.807908" stroke="#a4a2ad"/><path d="m21.89283 150.985937q-12.371754-127.369328-17.96957-153.408893" stroke="#9e9ca7"/><path d="m142.588851 97.844064q-4.556811.182481-57.728685 29.506128" stroke="#e2d197"/><path d="m35.319765 33.004104q41.319743-16.549239 64.712812-27.587447" stroke="#f6d3d2"/><path d="m-4.194565-16q24.887492 130.013876 24.752712 189" stroke="#a4a2ac"/><path d="m153.096853 65.530407q-11.33035 2.806292-92.894586 46.163898" stroke="#b7b7b4"/><path d="m1.540247-10.5349q1.690414 131.002082-1.421988 180.471286" stroke="#a9a7b0"/><path d="m101.565301 3.039188q-18.233173 8.028835-68.262486 29.98997" stroke="#e2c1c1"/><path d="m13.57262 167.853109q.015914-132.608898-13.716992-175.982853" stroke="#a29fa9"/><path d="m36.436035 62.098656q3.141569-.047019 47.123242-20.379347" stroke="#fec2c3"/><path d="m141.520237 80.060746q-20.613612 13.139721-60.673667 31.350883" stroke="#dad095"/><path d="m26.186795 10.379658q27.574329-10.624156 73.9763-26.379658" stroke="#fff"/><path d="m-1.31794 6.195771q16.48487 84.957189 10.83964 157.953553" stroke="#a5a2ac"/><path d="m5.815666-8.095089q3.432704 106.865242.71711 181.095089" stroke="#a19ea7"/><path d="m171.066186 97.042892q-40.570295 19.711699-94.3531 52.085725" stroke="#b3acaa"/><path d="m7.267131.910602q9.097714 64.47726 8.692309 156.458263" stroke="#9494a0"/><path d="m161.770949 91.631278q-28.823794 16.294857-86.742843 45.817523" stroke="#cbbea6"/><path d="m-9.300968 89.191679q128.937556-57.920626 154.118022-71.001434" stroke="#ae9e6e"/><path d="m82.057319 162.193479q38.460001-22.142159 119.480637-65.562833" stroke="#b7a889"/><path d="m80.524929-10.464007q-14.703979 5.170392-49.999311 18.236628" stroke="#fff"/><path d="m150.290199 81.133018q-55.976589 35.458884-90.239489 23.460967" stroke="#b3b1a6"/><path d="m96.300109 6.519323q-22.476867 10.934716-49.242473 20.629524" stroke="#dee7e4"/><path d="m99.747639 51.411677q-56.141021 25.70695-61.09229 29.631001" stroke="#c2c4c1"/><path d="m23.267618 158.831229q-10.502688-134.694392-22.291772-174.831229" stroke="#8e8e99"/><path d="m96.494307 24.115579q-50.931478 21.64781-63.832626 29.203991" stroke="#d8be6d"/><path d="m162.922816 103.223293q-48.469238 21.722497-87.980209 45.088897" stroke="#aba7a5"/><path d="m153.754475 65.142197q-4.302536 1.36216-48.241559 24.15267" stroke="#c2c0bd"/><path d="m39.328705 74.121656q47.391504-21.753889 121.843113-55.931062" stroke="#baa05c"/><path d="m158.069986 109.840304q-51.277691 27.31808-80.888215 44.889646" stroke="#b4adab"/><path d="m170.595427 70.21833q.406874 2.742717-85.002859 45.080004" stroke="#bead8a"/><path d="m5.837721 172.13639q-9.812344-175.81188 2.066929-186.491603" stroke="#a09fa7"/><path d="m19.019594 168.913998q1.092976-51.524893-26.864599-182.187509" stroke="#9c9ba5"/><path d="m139.686041 82.649178q-41.121744 18.12084-57.904836 30.045165" stroke="#c9bf8b"/><path d="m188.675847 100.899477q-31.340817 32.601656-123.397205 64.703908" stroke="#999e82"/><path d="m143.669905 9.868669q-86.212079 36.241118-109.854751 50.016586" stroke="#b5a86a"/><path d="m25.275248 167.63738q-12.010014-156.854202-24.27187-183.63738" stroke="#828692"/><path d="m90.725255 79.901423q-48.076384 21.26055-48.156049 23.303773" stroke="#d29e9e"/><path d="m48.453115 56.674549q29.452247-13.260659 33.672969-14.921267" stroke="#d5cccc"/><path d="m4.952228 2.220838q-10.355708 81.018741 26.596763 162.654494" stroke="#96969f"/><path d="m73.810916 74.567249q-11.932635 7.529426-30.070953 14.851706" stroke="#e9efeb"/><path d="m110.573063-16q-59.19535 13.990752-79.595448 27.705432" stroke="#e4e2df"/><path d="m170.033901 104.021387q-17.957088 4.155209-126.025985 68.978613" stroke="#a7a3a1"/><path d="m149.852231 92.601708q-62.819863 32.410175-67.756593 35.284296" stroke="#bfbb8d"/><path d="m143.797011 20.037178q-59.170005 27.935232-105.690313 47.9121" stroke="#b5a065"/><path d="m66.750016 151.395637q5.677311 2.486788 86.169719-45.420945" stroke="#a8a6a3"/><path d="m66.736268 169.224714q124.976898-71.247851 130.135154-66.785012" stroke="#a7997e"/><path d="m.589698-16q5.41071 39.609061 3.526426 189" stroke="#9e9ca3"/><path d="m22.442586 158.888941q-16.785248-158.968225-21.264805-174.888941" stroke="#8e8d96"/><path d="m90.165531 57.55966q-23.966428 8.24895-47.950883 22.346413" stroke="#b7b8b6"/><path d="m132.723935 62.952286q-18.870609 11.715234-78.307529 37.890225" stroke="#b0a35c"/><path d="m56.828193-6.272896q-19.348961 16.164292-27.838047 15.251271" stroke="#f1f8f4"/><path d="m-12.182848-16q8.449648 0 30.236489 171.689749" stroke="#97969f"/><path d="m71.440323 49.213022q-9.756162 2.332865-30.518714 12.899783" stroke="#f0a1a2"/><path d="m170.876144 70.050528q-10.683199 5.738397-97.367115 50.640359" stroke="#a49980"/><path d="m-16 75.361487q131.881481-63.15909 133.70019-59.951531" stroke="#9b9066"/><path d="m104.686566 120.709129q10.153545-5.038723 53.941388-27.666524" stroke="#c6b897"/><path d="m89.965356 53.478031q-5.141168 9.162048-48.027612 24.018474" stroke="#abacab"/><path d="m26.389127 173q-2.184518-64.289846-20.110316-182.141328" stroke="#6e7684"/><path d="m48.355111 25.861714q40.736013-18.064249 57.59694-22.080954" stroke="#b2b9b8"/><path d="m67.87639 107.559773q12.775706-5.077517 85.480989-44.762088" stroke="#9fa09e"/><path d="m257.024849 146.737709q-31.154168-162.737709-202.76109-53.078419" stroke="#070d18"/><path d="m152.956058 96.721619q-63.766474 35.446377-74.187935 39.107515" stroke="#a7a194"/><path d="m65.334934 60.134438q49.782503-22.075945 103.418106-46.517769" stroke="#a79b56"/><path d="m63.126408 86.23615q169.937573-102.23615 193.543928 55.53087" stroke="#070c17"/><path d="m119.220591 14.199588q-77.870001 33.369925-80.030121 38.245418" stroke="#aea15f"/><path d="m156.64491 121.092773q-8.118481 5.448236-68.058275 35.986416" stroke="#afaaac"/><path d="m58.827952 163.039467q28.909988-15.411849 103.833966-62.538206" stroke="#969694"/><path d="m149.784054 93.044437q-31.75967 17.626409-68.584835 36.484312" stroke="#a4a37d"/><path d="m41.497134 90.43024q21.893805-7.841777 31.012408-15.055755" stroke="#d7dad6"/><path d="m49.976016 104.393296q79.60275-39.610613 84.424823-42.22155" stroke="#aa9c61"/><path d="m222.420134 90.52524q-127.557945 55.485554-145.586912 82.47476" stroke="#998e7e"/><path d="m103.648486 95.433635q-16.283658 6.501991-39.956567 20.615483" stroke="#b5b5b1"/><path d="m213.573561 93.541056q-74.36154 43.741842-144.026182 71.24613" stroke="#908a7d"/><path d="m-2.579057-16q24.229774 169.668573 24.745097 179.798144" stroke="#919099"/><path d="m253.949437 139.267366q-34.827953-124.524382-167.188291-62.834289" stroke="#070d17"/><path d="m100.719766 51.136436q-39.398801 15.874403-54.145433 25.071496" stroke="#9ea2a1"/><path d="m74.61956 40.604566q-10.840283 4.197563-38.976905 15.486738" stroke="#e3b877"/><path d="m154.69236 126.049758q-32.187118 19.679694-37.625734 20.198465" stroke="#8bc0c9"/><path d="m61.893163 86.470048q163.356599-102.470048 194.072747 42.976043" stroke="#080d18"/><path d="m-.406619-12.01074q20.283771 55.914448 10.573901 185.01074" stroke="#8c8a93"/><path d="m73.698162 76.242621q-17.486856 6.693035-31.801803 13.507759" stroke="#c9cecc"/><path d="m271-7.10831q-51.935345 27.851327-244.42891 133.964469" stroke="#0a101a"/><path d="m103.245609 173q22.352446-16.443293 49.64579-29.781795" stroke="#cdbd95"/><path d="m49.470966 27.703639q16.694169-5.507068 96.840062-43.703639" stroke="#9ea1a0"/><path d="m40.086348 104.367463q31.130266-18.259119 60.757043-30.667699" stroke="#a98a8b"/><path d="m161.181508 100.812474q-19.474382 26.591715-72.321068 39.545261" stroke="#a5a19f"/><path d="m19.189085 173q-7.712264 0-22.686701-187.877432" stroke="#95949d"/><path d="m59.366768 110.786315q-33.356707-63.232558-11.660597-72.629257" stroke="#c5636a"/><path d="m81.800493 73.445634q135.452569-88.908647 176.108093 51.258268" stroke="#070c18"/><path d="m57.321706 153.082909q106.637049-62.365727 213.678294-107.285143" stroke="#060d17"/><path d="m13.833203 173q13.838973-161.232061-29.833203-174.024357" stroke="#85848e"/><path d="m68.711904 86.007049q162.730984-96.632549 189.639209 75.061571" stroke="#090f19"/><path d="m76.903363 172.360781q163.751593-86.568643 190.554707-100.5317" stroke="#000813"/><path d="m250.993462-1.525352q15.466031 70.444652-166.321314 154.981694" stroke="#080e19"/><path d="m77.231852 120.428405q44.59717-23.204721 63.529466-33.136994" stroke="#a6a5a8"/><path d="m149.579173 11.401841q-102.992212 42.906008-103.777038 65.958188" stroke="#8d7868"/><path d="m167.470107 74.248381q-44.713225 19.285226-60.862612 30.195478" stroke="#b9ab80"/><path d="m33.41664 8.936479q35.595676-24.936479 77.537959-24.936479" stroke="#f7fdf9"/><path d="m43.680111 147.415098q123.375691-73.459925 227.319889-114.907845" stroke="#080e17"/><path d="m156.5358 135.639323q-44.179784 25.779264-68.961822 35.217858" stroke="#b99d4d"/><path d="m256.078731.551429q-41.891115 5.044021-219.137638 88.749515" stroke="#091019"/><path d="m227.815537 55.801328q-171.579457 109.947354-192.990807 93.847487" stroke="#070e18"/><path d="m71.643857 48.438121q-32.146492 6.333426-24.52406 28.571484" stroke="#e49da0"/><path d="m262.458542-16q-21.921321 73.022742-228.369731 156.893269" stroke="#0a1019"/><path d="m146.494338 25.709996q-28.53051 9.605553-87.434113 38.807073" stroke="#aea664"/><path d="m141.92804 22.694534q-40.806668 13.698948-97.589025 43.321095" stroke="#aa9d60"/><path d="m106.27893-1.319453q148.004428-3.718428 154.952527 174.319453" stroke="#0e121d"/><path d="m86.869007 109.794174q16.025894-8.081643 62.284472-33.160712" stroke="#b9ac7c"/><path d="m271 82.782734q-9.557313-12.412805-188.057234 90.217266" stroke="#020914"/><path d="m75.269191 164.217571q-35.572849-24.791754-47.648305-157.407883" stroke="#020911"/><path d="m66.343797 104.695284q140.952098-103.478262 187.083636 35.773388" stroke="#091017"/><path d="m35.223629 56.943627q46.345357-15.86801 47.239485-26.169075" stroke="#c19b62"/><path d="m103.317407 142.999366q162.493784-76.517356 136.417605-157.246548" stroke="#080e19"/><path d="m26.664858 173q-20.710155-13.440611-20.586226-154.202031" stroke="#918f98"/><path d="m162.348779 107.363447q-32.020707 8.388977-89.700755 43.158186" stroke="#a29d9a"/><path d="m41.979799 110.550574q179.485675-78.500203 221.427492-113.571598" stroke="#0a1019"/><path d="m33.118283 8.779913q22.099917-5.856527 27.972582-14.566864" stroke="#dedcd8"/><path d="m3.127351-4.186986q-2.344558 94.348001-.364606 160.696371" stroke="#94939b"/><path d="m33.924571 31.253311q61.826999-22.605361 60.846075-25.448515" stroke="#c8adad"/><path d="m148.604664 77.947821q-41.961373 18.086113-73.240243 37.096384" stroke="#8f9777"/><path d="m42.254389 173q-35.165693-180.553285-28.55655-189" stroke="#020810"/><path d="m80.614013 165.094797q-43.985332 1.893677-56.077855-181.094797" stroke="#030911"/><path d="m70.623489 140.492086q53.928802-32.17343 103.521553-54.908782" stroke="#9c927a"/><path d="m253.903947-16q17.096053 123.577988-123.697503 174.730368" stroke="#0a0e19"/><path d="m9.093816-16q4.283763 32.950122 27.995286 189" stroke="#010a12"/><path d="m30.725137 173q-15.394218-70.376364-28.2608-171.394207" stroke="#888790"/><path d="m65.465794 82.26965q151.086053-80.515229 205.534206-79.549287" stroke="#0c111c"/><path d="m87.344378 124.702957q18.461952-9.462803 49.642755-26.61532" stroke="#ada27c"/><path d="m252.586888 128.51231q18.413112-144.51231-141.457902-123.940512" stroke="#0c101d"/><path d="m138.054342 10.368214q-18.668551 8.529087-96.928672 43.146681" stroke="#a99f60"/><path d="m267.007514 157.692614q-88.449912-147.15877-202.798737-70.59856" stroke="#091019"/><path d="m51.577651 49.878703q51.327022-22.403709 91.031716-40.575158" stroke="#a8b36f"/><path d="m130.010111 159.83043q140.989889-44.260707 53.689117-165.368442" stroke="#0a101b"/><path d="m83.152713 42.683099q-39.192558 19.47628-45.408544 13.850409" stroke="#c3a9a9"/><path d="m225.335858 116.587415q-8.28943 4.042857-71.304814 40.578346" stroke="#95776b"/><path d="m-5.84357-16q23.035045 0 15.002133 174.057898" stroke="#88878f"/><path d="m99.934478 91.454869q45.989773-22.010719 51.227207-27.917292" stroke="#afaeab"/><path d="m163.282553 107.500287q-55.773697 27.276522-111.279395 59.811247" stroke="#aaa4a1"/><path d="m108.242978 91.949643q-10.937167 7.35078-45.620588 22.498639" stroke="#a6a09d"/><path d="m254.235932 158.977856q-38.748-152.491625-186.569648-72.186641" stroke="#0e141a"/><path d="m47.920467 101.637845q8.959572-4.882429-6.017849-66.919354" stroke="#cd4750"/><path d="m103.321458 6.283446q167.678542-22.283446 130.343434 150.733038" stroke="#0f1421"/><path d="m49.372003 139.945645q219.871399-103.137501 211.053581-155.945645" stroke="#0c111a"/><path d="m48.914571 36.960825q-.452062 5.801517-14.50728 7.136858" stroke="#ff878a"/><path d="m149.1905 12.216393q-16.747522 6.514487-35.34574 16.717106" stroke="#c48e7e"/><path d="m135.610772 155.655659q135.389228-61.07298 109.634659-150.900201" stroke="#0b0f1a"/><path d="m271-7.838732q-56.312681 26.379911-237.213134 118.104083" stroke="#12161d"/><path d="m10.389256 173q-5.607545-18.473512-5.293099-159.911293" stroke="#908e96"/><path d="m10.201117 20.032307q2.574845 62.982085 19.898931 143.129338" stroke="#7a7b86"/><path d="m33.322989 7.472123q8.424652-.050922 41.800064-20.601685" stroke="#f0f4f1"/><path d="m133.636299 139.292732q22.893312-13.555555 82.240052-48.481048" stroke="#948268"/><path d="m45.595063 95.515594q12.032429-9.77228 21.173491-3.761314" stroke="#ff868a"/><path d="m143.031444 3.235762q-89.18816 42.81089-93.674972 39.756819" stroke="#808c55"/><path d="m271 54.786222q-151.126373 77.134313-222.223344 118.213778" stroke="#09111a"/><path d="m271 53.339755q-117.734406 42.933528-189.182599 87.982083" stroke="#09101a"/><path d="m78.708619 69.522739q169.271414-49.185066 172.296523 64.595469" stroke="#0c111c"/><path d="m271 2.294312q-29.755259 13.585295-238.585701 119.815424" stroke="#0e141d"/><path d="m257.66537 112.661037q-51.814508-128.661037-197.929316-23.79864" stroke="#0d121b"/><path d="m238.369185 41.029716q-188.687561 95.867457-196.585011 100.768555" stroke="#0c121a"/><path d="m37.59348 173q10.66773-59.339773 226.683797-121.675001" stroke="#0c111a"/><path d="m44.373151 74.448125q-7.826153-19.443397 2.05146-35.644371" stroke="#ee3242"/><path d="m51.791383 157.704117q177.273555-94.983042 213.32182-139.918012" stroke="#0f141e"/><path d="m86.420395 173q44.641068-33.973641 184.579605-103.789516" stroke="#050f17"/><path d="m117.600535 155.031814q4.951138 8.789521 27.129461-7.825939" stroke="#aeaca9"/><path d="m2.065465-16q10.055743 152.709365 19.635153 175.929642" stroke="#8b8991"/><path d="m46.941394 89.980195q18.633994-13.346866 23.778702-12.936274" stroke="#b6bcba"/><path d="m250.372063 127.370568q-95.710412-117.602338-166.320217-32.837872" stroke="#0d151a"/><path d="m69.647793 151.221656q64.845896-36.549131 92.451259-50.18748" stroke="#8f8c8b"/><path d="m34.524691 32.479243q33.838912-10.653166 56.069321-25.770536" stroke="#cdabac"/><path d="m83.66278 160.757898q42.887259-21.930406 72.607809-41.575963" stroke="#a7a3a6"/><path d="m75.807555 120.343645q48.844812-22.414603 101.412621-52.047217" stroke="#898069"/><path d="m271 65.661019q-29.297781 32.557841-168.792501 89.99149" stroke="#070e19"/><path d="m60.611908 110.249878q23.025703-11.823092 30.167789-15.168507" stroke="#969f9d"/><path d="m164.406306 105.498277q-11.619555.817003-99.212973 49.689475" stroke="#898987"/><path d="m73.908805 65.668843q-32.461729 8.912816-30.722338 15.028241" stroke="#b6bab8"/><path d="m170.133204 12.182362q-50.036408 27.061951-142.616877 66.365221" stroke="#9a8755"/><path d="m4.928155-7.635785q17.436254 10.067406 31.813313 180.635785" stroke="#050c13"/><path d="m24.750687-16q13.404332 189 68.587271 189" stroke="#070c14"/><path d="m6.423637-16q-13.935321 47.271744 8.797293 188.007815" stroke="#908f97"/><path d="m26.596752 3.667169q22.32203 136.14141 22.868134 164.833405" stroke="#060d14"/><path d="m226.402377 85.196013q-78.195476 43.073873-97.238445 54.954932" stroke="#8c7f63"/><path d="m48.840682 87.926667q16.830346 12.730907 44.632697-5.056013" stroke="#b3977e"/><path d="m90.993354 124.444764q19.248109-15.445671 32.575042-11.364107" stroke="#b8bac5"/><path d="m103.094523-.529447q167.905477 5.990076 126.87074 159.434129" stroke="#111622"/><path d="m96.192072 54.243712q-27.294229 12.724094-51.86078 24.54448" stroke="#959694"/><path d="m54.469967 107.547268q21.527406-6.733146 65.831815-10.763325" stroke="#8b8f90"/><path d="m45.299567 99.964007q9.654027-1.688442 43.65286-20.366209" stroke="#bc9090"/><path d="m264.500883 158.5613q-92.857763-150.98834-180.940116-87.82236" stroke="#0d131c"/><path d="m168.82168 163.689558q102.17832-62.857588-25.996998-158.797037" stroke="#0e131c"/><path d="m65.233482 29.757165q66.945662-45.757165 194.07168-18.634274" stroke="#0d121d"/><path d="m131.159358 173q105.778462-104.604827 135.546949-69.110186" stroke="#050c16"/><path d="m161.212993 109.469657q-34.377892 17.185201-91.172195 46.540626" stroke="#979391"/><path d="m41.74846 75.918294q15.198808 58.510191 70.938168 20.0047" stroke="#8f7e83"/><path d="m151.439191 64.795155q-28.507016 14.014903-50.036583 25.174649" stroke="#aeaeab"/><path d="m58.020552 90.695407q168.853262-95.781773 193.952486 52.976841" stroke="#0f141d"/><path d="m3.830305-2.17981q.457294 11.712187 25.850092 158.414957" stroke="#777983"/><path d="m98.352865 124.131608q48.92717-21.851615 46.467706-27.837017" stroke="#aaa9ab"/><path d="m148.502872 10.2814q4.521638 9.636951-91.171725 49.244121" stroke="#8e8957"/><path d="m119.074978 13.104987q-40.759718 18.390213-80.667214 37.656821" stroke="#a99960"/><path d="m139.113718 154.343851q111.477725-41.765787 76.146937-147.627336" stroke="#0e121b"/><path d="m252.808978 19.87378q18.191022 153.12622-91.352099 134.358252" stroke="#0c141e"/><path d="m259.090128 127.067812q-33.000496-143.067812-180.637467-68.591304" stroke="#11161d"/><path d="m22.599139-16q13.833073 149.232624 36.498211 189" stroke="#080f16"/><path d="m259.661068 173q-37.743621-163.361262-152.817665-77.183399" stroke="#0f151c"/><path d="m249.210562-.646457q-109.415887 51.42861-224.89105 101.95524" stroke="#11151e"/><path d="m68.635889 48.630456q-17.245915 4.320884-17.006598 9.086611" stroke="#c9dbd8"/><path d="m50.137326 135.481606q210.130936-87.015138 218.208929-151.481606" stroke="#10151d"/><path d="m50.606241 173q185.786839-88.154408 205.125203-173.928623" stroke="#0f141f"/><path d="m71.289041 98.964911q152.960922-78.233243 198.339584-114.964911" stroke="#0d131c"/><path d="m45.836873 38.935553q-9.701493 10.118347 2.715612 32.643238" stroke="#f43141"/><path d="m29.449508 105.956373q138.010999-70.307242 239.79183-111.692486" stroke="#12151e"/><path d="m203.911396-16q10.601268 20.964379-179.215493 105.282883" stroke="#0f171c"/><path d="m158.467794 157.007115q112.532206-15.869266 90.402028-148.906499" stroke="#0d121f"/><path d="m42.690027 124.680257q185.177276-102.592425 228.309973-83.459879" stroke="#141a21"/><path d="m250.272303-4.639604q-80.034657 29.71796-197.684271 86.625798" stroke="#0e161d"/><path d="m140.071337 103.161202q-1.553659 4.446321-56.805096 23.446044" stroke="#9aa0a4"/><path d="m104.773997 2.846453q166.226003-17.391144 149.935861 155.862192" stroke="#121621"/><path d="m39.277494 68.229905q44.052825-23.388426 106.338552-49.03767" stroke="#9e8f5e"/><path d="m4.351426-16q-.823348 94.703743-1.006356 173.88965" stroke="#908e94"/><path d="m167.612879 88.440433q-22.618887 14.391553-80.838638 43.652439" stroke="#93876a"/><path d="m40.629579 79.005513q41.591668-13.27699 37.494973-47.699905" stroke="#a9a487"/><path d="m104.374055 137.656822q49.203641-26.191328 57.164575-31.198548" stroke="#aca6a3"/><path d="m271-10.342189q0 10.463384-205.709946 113.659296" stroke="#0e131d"/><path d="m107.733395 166.471183q45.845593-24.067317 61.668193-32.442195" stroke="#9f8e5a"/><path d="m152.545921 128.403917q-12.019339 7.428436-23.149717 10.626393" stroke="#bbb6b6"/><path d="m27.470412 173q-6.982454-145.563593-35.857497-189" stroke="#6d727d"/><path d="m255.423314 84.566604q-31.862085-26.895093-204.657443 69.716674" stroke="#0e131b"/><path d="m137.330056 160.341836q62.84447-26.999105 133.669944-94.927996" stroke="#09101b"/><path d="m140.993281 85.73968q-22.605716 19.051686-53.989481 11.466118" stroke="#a2a4a7"/><path d="m157.885055 157.774796q113.114945-8.338144 65.280929-148.77036" stroke="#0e131f"/><path d="m45.643607 74.824359q8.270153-29.879331-9.733308-33.426119" stroke="#d42938"/><path d="m145.377593 79.837211q-31.73965 17.458031-56.014792 27.237263" stroke="#ab9f74"/><path d="m24.136689 157.932921q-13.332438-131.414206-32.752619-167.077482" stroke="#83828a"/><path d="m8.845232 173q-17.002452-4.839933-.288892-189" stroke="#8c8a92"/><path d="m-3.71131-16q.825454 24.824282 22.897556 189" stroke="#8c8b93"/><path d="m38.187921 39.809925q-.464069 59.839864 25.771198 66.93005" stroke="#9e6a6e"/><path d="m31.128697 9.28702q14.628595-10.521826 21.409691-9.088978" stroke="#d6dbd9"/><path d="m48.611868 24.41402q18.140665-4.244341 33.052702-9.759475" stroke="#bec8c6"/><path d="m121.932119 31.904545q14.425318-20.208798 27.735931-19.359933" stroke="#c18471"/><path d="m85.311302 124.826487q11.822786-3.025223 30.241325-15.530389" stroke="#afb2ba"/><path d="m26.381582-15.582345q18.339649 176.628193 24.77501 188.582345" stroke="#0a1016"/><path d="m73.445547 73.969776q-17.047341 14.163308-33.26237 16.730077" stroke="#a7a9a7"/><path d="m39.980783 161.645621q-25.48401-164.830091-32.687853-168.774557" stroke="#080f15"/><path d="m172.981377-16q-140.152387 67.838397-153.119299 54.371067" stroke="#091117"/><path d="m161.269913 122.09597q-9.953136-5.06108-92.677167 48.914113" stroke="#989493"/><path d="m148.968851 12.636259q118.121743-28.636259 105.721651 110.550325" stroke="#111521"/><path d="m111.964779 35.057687q8.492213-17.526876 26.519583-25.723316" stroke="#aca35b"/><path d="m254.885036 110.23183q-24.014896-126.23183-163.927277-43.266412" stroke="#11151f"/><path d="m103.417239 43.959712q18.412034-10.727357 44.920578-20.971444" stroke="#a79952"/><path d="m271 9.720583q-161.035191 41.879108-47.659145 163.279417" stroke="#131720"/><path d="m37.152263 160.927179q-25.328807-144.155467-17.739199-176.927179" stroke="#070e14"/><path d="m163.594928 150.039988q34.937952-18.02746 55.631045-33.056269" stroke="#85746b"/><path d="m130.524651 173q-.9741-18.545072 135.629086-93.121858" stroke="#090f19"/><path d="m118.062076 86.020345q92.942838-33.210304 152.643683-93.417842" stroke="#0f131e"/><path d="m23.432288 167.360175q-19.907193-113.055538-22.602983-148.645414" stroke="#898890"/><path d="m114.478311 85.401226q30.207711-15.321711 36.167751-19.930485" stroke="#9e9b98"/><path d="m76.150227 56.495401q-11.936107 11.98485-18.586542-.800133" stroke="#c8b772"/><path d="m223.474766 173q47.525234-131.276865-112.425623-115.221766" stroke="#101520"/><path d="m24.982775-16q27.72973 189 30.651755 189" stroke="#0e151a"/><path d="m233.217372 38.793721q-165.798319-20.498809-130.263068 111.635131" stroke="#141b22"/><path d="m152.439394 135.982537q-16.642487 13.492059-54.902559 31.959614" stroke="#aa8e41"/><path d="m77.69358 92.330767q-34.282755.050222-35.137404 2.609811" stroke="#c17d75"/><path d="m40.62738 144.256363q16.88608 18.561422 217.567515-101.510815" stroke="#11161f"/><path d="m44.085752 40.847081q-.504874 4.724332.138767 31.679369" stroke="#d71e31"/><path d="m106.65066 92.613978q-14.812852 11.677153-17.812517 8.077646" stroke="#afb8b4"/><path d="m164.564245 149.962529q10.936399-1.7925 66.319328-38.676284" stroke="#81715e"/><path d="m22.063534 97.240483q191.579202-106.811292 233.958801 75.759517" stroke="#141a20"/><path d="m164.108409 102.167343q-25.440135 9.464714-44.238275 24.03759" stroke="#afa9a5"/><path d="m264.742686 66.593005q-11.116492-5.870232-198.220105 97.946989" stroke="#0e161d"/><path d="m99.20717 75.46961q-34.444875 14.023118-53.632086 26.997701" stroke="#9c8383"/><path d="m65.777718 97.951931q43.454783-25.089379 68.109423-34.215166" stroke="#979a59"/><path d="m78.625267 77.090702q154.655154-80.338946 177.00487 62.59823" stroke="#11151f"/><path d="m87.187925 165.347181q10.57748-7.498253 171.492492-76.402866" stroke="#0c121b"/><path d="m253.022231 2.175059q17.977769 129.631522-91.285646 152.253942" stroke="#101522"/><path d="m234.222539 154.640269q-123.652652-93.320011 16.902957-160.324587" stroke="#141721"/><path d="m95.554789 131.383678q28.159366 41.616322 158.320706-57.171013" stroke="#101922"/><path d="m30.275329 42.682784q100.900635-35.608109 127.054763-56.720509" stroke="#091017"/><path d="m39.467556 79.061121q29.1112-14.618253 38.546945-16.420138" stroke="#a9adae"/><path d="m38.219953 51.883119q-2.876926-11.013416 10.078624-11.607473" stroke="#ff7277"/><path d="m14.500867 159.637985q22.65375-73.503856-30.500867-174.177988" stroke="#797a84"/><path d="m124.183991 143.24255q25.245712-12.794097 33.229895-23.520084" stroke="#84a8ae"/><path d="m39.35731 111.099492q66.302089-27.001637 228.284875-101.212322" stroke="#12171f"/></g></svg>