<svg xmlns="http://www.w3.org/2000/svg" version="1.1" width="750" height="498">
<rect x="0" y="0" width="750" height="498" fill="#ffffff" />
<g transform="scale(2.929688) translate(0.5 0.5)">
<path stroke="#483318" stroke-opacity="0.501961" fill="none" d="M 84.909845 87.958371 Q 90.577484 102.948667, 154.215585 89.270973" stroke-width="0.500000" />
<path stroke="#6a5235" stroke-opacity="0.501961" fill="none" d="M 167.301167 128.734296 Q 144.256992 116.217780, 60.850964 130.960489" stroke-width="0.500000" />
<path stroke="#70593d" stroke-opacity="0.501961" fill="none" d="M 75.393992 128.367701 Q 95.743057 121.573300, 187.190828 133.109227" stroke-width="0.500000" />
<path stroke="#6a4e2d" stroke-opacity="0.501961" fill="none" d="M 82.603040 48.004277 Q 111.262904 59.692970, 159.767631 51.230883" stroke-width="0.500000" />
<path stroke="#695135" stroke-opacity="0.501961" fill="none" d="M 82.876918 92.313996 Q 100.381698 78.483929, 161.962907 96.395917" stroke-width="0.500000" />
<path stroke="#6c5235" stroke-opacity="0.501961" fill="none" d="M 171.086039 137.184621 Q 83.929405 109.221026, 77.786718 132.418988" stroke-width="0.500000" />
<path stroke="#7c6448" stroke-opacity="0.501961" fill="none" d="M 182.096892 127.410516 Q 129.980182 141.351891, 72.194237 120.972315" stroke-width="0.500000" />
<path stroke="#684e2e" stroke-opacity="0.501961" fill="none" d="M 159.299356 59.630893 Q 96.749988 45.132220, 80.857673 52.258377" stroke-width="0.500000" />
<path stroke="#62482a" stroke-opacity="0.501961" fill="none" d="M 83.899460 91.694189 Q 84.835989 93.384288, 159.410140 99.460698" stroke-width="0.500000" />
<path stroke="#6c563b" stroke-opacity="0.501961" fill="none" d="M 68.777799 121.230793 Q 137.684741 130.392381, 171.860289 136.298709" stroke-width="0.500000" />
<path stroke="#634827" stroke-opacity="0.501961" fill="none" d="M 90.181010 48.882461 Q 129.697323 63.438204, 159.649235 56.299654" stroke-width="0.500000" />
<path stroke="#6b5336" stroke-opacity="0.501961" fill="none" d="M 162.162858 94.856910 Q 108.961285 91.782288, 78.882361 89.653438" stroke-width="0.500000" />
<path stroke="#7b5f40" stroke-opacity="0.501961" fill="none" d="M 172.825130 137.477193 Q 155.514007 112.017565, 82.754389 133.623039" stroke-width="0.500000" />
<path stroke="#684f32" stroke-opacity="0.501961" fill="none" d="M 84.320519 95.237829 Q 147.598533 89.386919, 156.790179 103.543311" stroke-width="0.500000" />
<path stroke="#735c41" stroke-opacity="0.501961" fill="none" d="M 164.981224 135.466050 Q 145.604461 137.368263, 76.239104 126.487736" stroke-width="0.500000" />
<path stroke="#3f1e00" stroke-opacity="0.501961" fill="none" d="M 16.110141 54.036949 Q -16.000000 36.573755, 5.983604 13.442360" stroke-width="0.500000" />
<path stroke="#786249" stroke-opacity="0.501961" fill="none" d="M 188.060269 128.603526 Q 102.188266 123.543786, 72.918133 122.330915" stroke-width="0.500000" />
<path stroke="#221300" stroke-opacity="0.501961" fill="none" d="M 108.819284 50.992899 Q 119.587041 66.152008, 132.823547 49.363710" stroke-width="0.500000" />
<path stroke="#654c2f" stroke-opacity="0.501961" fill="none" d="M 85.261552 95.239492 Q 95.535384 84.930579, 159.648607 90.595964" stroke-width="0.500000" />
<path stroke="#381e00" stroke-opacity="0.501961" fill="none" d="M 152.531514 46.913651 Q 141.895035 71.397188, 126.470139 52.199992" stroke-width="0.500000" />
<path stroke="#3b280d" stroke-opacity="0.501961" fill="none" d="M 90.253873 50.840714 Q 114.058537 41.022997, 114.471131 60.509154" stroke-width="0.500000" />
<path stroke="#8d765d" stroke-opacity="0.501961" fill="none" d="M 71.394067 130.619151 Q 169.689991 142.633567, 146.002451 45.013453" stroke-width="0.500000" />
<path stroke="#664e33" stroke-opacity="0.501961" fill="none" d="M 84.545786 97.540260 Q 92.265831 86.959991, 158.443248 89.738845" stroke-width="0.500000" />
<path stroke="#7c6448" stroke-opacity="0.501961" fill="none" d="M 166.710279 45.975274 Q 106.796958 57.150274, 80.126914 46.574314" stroke-width="0.500000" />
<path stroke="#846647" stroke-opacity="0.501961" fill="none" d="M 76.798238 123.489548 Q 140.473066 113.586202, 171.570095 135.534831" stroke-width="0.500000" />
<path stroke="#796349" stroke-opacity="0.501961" fill="none" d="M 72.578513 99.347949 Q 115.737745 72.356149, 161.247612 104.305265" stroke-width="0.500000" />
<path stroke="#6d5336" stroke-opacity="0.501961" fill="none" d="M 11.349411 53.661445 Q 14.672640 30.175368, 2.916918 6.230549" stroke-width="0.500000" />
<path stroke="#816c53" stroke-opacity="0.501961" fill="none" d="M 191.754986 132.260134 Q 102.418477 134.551213, 72.868219 119.181023" stroke-width="0.500000" />
<path stroke="#6a6153" stroke-opacity="0.501961" fill="none" d="M 91.220592 48.853646 Q 91.563293 106.774408, 100.683822 135.327740" stroke-width="0.500000" />
<path stroke="#7f6a52" stroke-opacity="0.501961" fill="none" d="M 77.172116 126.350710 Q 108.306840 132.749463, 182.746506 124.548083" stroke-width="0.500000" />
<path stroke="#816c54" stroke-opacity="0.501961" fill="none" d="M 184.074784 130.756916 Q 182.895398 139.693178, 72.137116 125.268140" stroke-width="0.500000" />
<path stroke="#8f795f" stroke-opacity="0.501961" fill="none" d="M 83.821550 95.892011 Q 106.507543 26.148530, 161.237346 60.066712" stroke-width="0.500000" />
<path stroke="#7a5d41" stroke-opacity="0.501961" fill="none" d="M 7.342364 58.945023 Q -0.581032 14.407514, 8.633655 2.343524" stroke-width="0.500000" />
<path stroke="#4a391f" stroke-opacity="0.501961" fill="none" d="M 116.390414 89.755684 Q 110.411239 103.604836, 85.090812 93.895092" stroke-width="0.500000" />
<path stroke="#8b7a67" stroke-opacity="0.501961" fill="none" d="M 92.711593 50.467942 Q 79.933780 165.716153, 184.702009 124.459648" stroke-width="0.500000" />
<path stroke="#664829" stroke-opacity="0.501961" fill="none" d="M 5.238300 7.311907 Q -16.000000 32.179117, 19.114475 58.076889" stroke-width="0.500000" />
<path stroke="#775e42" stroke-opacity="0.501961" fill="none" d="M 78.193611 61.270698 Q 145.774300 45.699330, 154.810662 54.407200" stroke-width="0.500000" />
<path stroke="#7d684f" stroke-opacity="0.501961" fill="none" d="M 163.032393 99.813119 Q 108.802061 96.186920, 78.914939 95.945360" stroke-width="0.500000" />
<path stroke="#8c6c49" stroke-opacity="0.501961" fill="none" d="M 160.254303 44.215537 Q 139.076518 71.700796, 86.787362 50.541022" stroke-width="0.500000" />
<path stroke="#79634a" stroke-opacity="0.501961" fill="none" d="M 83.692723 93.135332 Q 135.336116 90.564130, 159.512621 93.989941" stroke-width="0.500000" />
<path stroke="#6c5a44" stroke-opacity="0.501961" fill="none" d="M 72.601739 123.361056 Q 125.820960 127.599896, 153.414751 122.581134" stroke-width="0.500000" />
<path stroke="#8f775f" stroke-opacity="0.501961" fill="none" d="M 164.386196 142.102648 Q 174.657929 74.063408, 81.653942 89.174267" stroke-width="0.500000" />
<path stroke="#7a5f41" stroke-opacity="0.501961" fill="none" d="M 104.649899 61.911732 Q 116.173702 38.520990, 160.164435 62.681504" stroke-width="0.500000" />
<path stroke="#866d51" stroke-opacity="0.501961" fill="none" d="M 84.370899 49.629251 Q 100.101966 49.325317, 164.938970 48.653937" stroke-width="0.500000" />
<path stroke="#321700" stroke-opacity="0.501961" fill="none" d="M 147.482762 43.086666 Q 151.084216 50.223298, 146.486883 62.777106" stroke-width="0.500000" />
<path stroke="#593003" stroke-opacity="0.501961" fill="none" d="M 11.999536 22.101965 Q 4.286998 6.872030, -0.580096 8.195975" stroke-width="0.500000" />
<path stroke="#452a0a" stroke-opacity="0.501961" fill="none" d="M 163.911687 137.289940 Q 152.771720 131.671328, 164.246951 120.657523" stroke-width="0.500000" />
<path stroke="#8b735a" stroke-opacity="0.501961" fill="none" d="M 142.153524 83.324173 Q 145.827512 141.184616, 70.350623 122.391211" stroke-width="0.500000" />
<path stroke="#6a5b47" stroke-opacity="0.501961" fill="none" d="M 133.992610 98.443426 Q 122.811138 77.597434, 82.615575 94.260340" stroke-width="0.500000" />
<path stroke="#745d42" stroke-opacity="0.501961" fill="none" d="M 159.162986 100.580787 Q 124.248222 90.141365, 83.535911 97.139500" stroke-width="0.500000" />
<path stroke="#5c3811" stroke-opacity="0.501961" fill="none" d="M 13.621866 47.626644 Q -2.859152 50.566320, -0.911375 60.315279" stroke-width="0.500000" />
<path stroke="#694f31" stroke-opacity="0.501961" fill="none" d="M 156.279452 50.450115 Q 135.091396 71.135434, 124.884464 45.941769" stroke-width="0.500000" />
<path stroke="#150800" stroke-opacity="0.501961" fill="none" d="M 105.339696 59.883105 Q 110.054284 51.708484, 112.516884 47.328630" stroke-width="0.500000" />
<path stroke="#887866" stroke-opacity="0.501961" fill="none" d="M 158.996371 127.468928 Q 81.764878 147.192803, 85.569307 84.669120" stroke-width="0.500000" />
<path stroke="#7c6850" stroke-opacity="0.501961" fill="none" d="M 84.138577 88.049431 Q 97.875831 113.731988, 151.900043 82.960584" stroke-width="0.500000" />
<path stroke="#564026" stroke-opacity="0.501961" fill="none" d="M 126.903038 90.677522 Q 143.013688 111.347996, 153.154528 87.839929" stroke-width="0.500000" />
<path stroke="#917559" stroke-opacity="0.501961" fill="none" d="M 72.557310 129.572294 Q 172.843486 109.886404, 185.631335 132.941949" stroke-width="0.500000" />
<path stroke="#090000" stroke-opacity="0.501961" fill="none" d="M 4.477111 45.117605 Q 10.174610 50.098904, 16.304016 56.781478" stroke-width="0.500000" />
<path stroke="#4c3a23" stroke-opacity="0.501961" fill="none" d="M 156.542935 48.664516 Q 127.555658 43.208969, 126.804028 60.437004" stroke-width="0.500000" />
<path stroke="#614528" stroke-opacity="0.501961" fill="none" d="M 91.409879 131.919370 Q 117.556395 111.194168, 126.579162 128.276671" stroke-width="0.500000" />
<path stroke="#351d00" stroke-opacity="0.501961" fill="none" d="M 9.487418 55.302552 Q 15.687987 53.331677, 10.272780 41.682607" stroke-width="0.500000" />
<path stroke="#4c2f0d" stroke-opacity="0.501961" fill="none" d="M 152.435990 43.055146 Q 142.052924 55.089253, 155.512463 62.350925" stroke-width="0.500000" />
<path stroke="#967d62" stroke-opacity="0.501961" fill="none" d="M 182.315300 124.517396 Q 106.884735 126.485303, 83.291323 133.948557" stroke-width="0.500000" />
<path stroke="#8d7151" stroke-opacity="0.501961" fill="none" d="M 162.469549 62.686924 Q 144.924942 51.149881, 87.184590 60.880007" stroke-width="0.500000" />
<path stroke="#120700" stroke-opacity="0.501961" fill="none" d="M 92.656122 60.572793 Q 92.418057 52.293782, 88.400757 49.143939" stroke-width="0.500000" />
<path stroke="#321500" stroke-opacity="0.501961" fill="none" d="M 251.819846 -8.874830 Q 252.731511 17.903160, 271.000000 28.239157" stroke-width="0.500000" />
<path stroke="#150800" stroke-opacity="0.501961" fill="none" d="M 149.912616 91.370829 Q 146.353060 98.750319, 155.905467 99.399182" stroke-width="0.500000" />
<path stroke="#412f19" stroke-opacity="0.501961" fill="none" d="M 120.485635 121.923452 Q 114.845363 133.528781, 128.314302 136.275841" stroke-width="0.500000" />
<path stroke="#3b2b14" stroke-opacity="0.501961" fill="none" d="M 105.417315 120.220838 Q 99.041906 125.948316, 113.977680 135.330367" stroke-width="0.500000" />
<path stroke="#000000" stroke-opacity="0.501961" fill="none" d="M 127.812949 88.623764 Q 128.370654 93.265266, 127.219594 99.399130" stroke-width="0.500000" />
<path stroke="#644117" stroke-opacity="0.501961" fill="none" d="M 89.717727 136.068689 Q 92.198623 135.642304, 91.227116 118.537400" stroke-width="0.500000" />
<path stroke="#241c0a" stroke-opacity="0.501961" fill="none" d="M 97.589575 99.764721 Q 87.875431 99.148696, 84.576050 87.269293" stroke-width="0.500000" />
<path stroke="#997f65" stroke-opacity="0.501961" fill="none" d="M 76.392655 129.779472 Q 108.364648 107.565785, 186.772947 132.680708" stroke-width="0.500000" />
<path stroke="#563613" stroke-opacity="0.501961" fill="none" d="M 4.141470 45.373635 Q 12.164772 57.297987, -3.966844 61.778342" stroke-width="0.500000" />
<path stroke="#593b1b" stroke-opacity="0.501961" fill="none" d="M 157.032457 139.292579 Q 173.445159 131.740264, 159.667326 121.020980" stroke-width="0.500000" />
<path stroke="#231a09" stroke-opacity="0.501961" fill="none" d="M 88.552958 99.080338 Q 88.644767 91.392298, 95.848276 85.528713" stroke-width="0.500000" />
<path stroke="#000000" stroke-opacity="0.501961" fill="none" d="M 113.332429 55.527512 Q 111.877552 53.914616, 112.358882 46.431912" stroke-width="0.500000" />
<path stroke="#774c1f" stroke-opacity="0.501961" fill="none" d="M 8.252946 21.834630 Q 3.168186 7.887366, -12.665642 -16.000000" stroke-width="0.500000" />
<path stroke="#6b5b47" stroke-opacity="0.501961" fill="none" d="M 142.401006 85.949251 Q 140.029224 98.336257, 143.672672 138.596818" stroke-width="0.500000" />
<path stroke="#644a2b" stroke-opacity="0.501961" fill="none" d="M 158.937257 61.313961 Q 142.479008 33.535355, 125.838689 57.145092" stroke-width="0.500000" />
<path stroke="#977d62" stroke-opacity="0.501961" fill="none" d="M 188.467190 134.757745 Q 96.899704 106.485175, 76.834326 126.201612" stroke-width="0.500000" />
<path stroke="#170c00" stroke-opacity="0.501961" fill="none" d="M 107.514934 60.222554 Q 108.575226 52.200316, 112.885381 45.727782" stroke-width="0.500000" />
<path stroke="#ad8a67" stroke-opacity="0.501961" fill="none" d="M 78.545206 63.852338 Q 136.875074 67.237367, 161.063734 54.239752" stroke-width="0.500000" />
<path stroke="#040200" stroke-opacity="0.501961" fill="none" d="M 78.609072 123.552983 Q 79.507126 129.852633, 77.380073 134.619345" stroke-width="0.500000" />
<path stroke="#68431a" stroke-opacity="0.501961" fill="none" d="M -16.000000 10.172830 Q 2.423734 -5.009600, 10.579526 22.896902" stroke-width="0.500000" />
<path stroke="#99856e" stroke-opacity="0.501961" fill="none" d="M 74.273253 133.299910 Q 105.318933 137.851686, 190.154326 124.253611" stroke-width="0.500000" />
<path stroke="#000000" stroke-opacity="0.501961" fill="none" d="M 251.539444 3.164953 Q 254.679081 -2.318372, 271.000000 -1.736109" stroke-width="0.500000" />
<path stroke="#6e583e" stroke-opacity="0.501961" fill="none" d="M 150.076087 62.379554 Q 131.928662 68.615796, 125.616874 44.442539" stroke-width="0.500000" />
<path stroke="#827565" stroke-opacity="0.501961" fill="none" d="M 133.267022 84.840027 Q 132.971121 132.831187, 133.917086 147.287961" stroke-width="0.500000" />
<path stroke="#62523e" stroke-opacity="0.501961" fill="none" d="M 77.724108 131.941940 Q 96.033648 110.213445, 109.487294 134.864169" stroke-width="0.500000" />
<path stroke="#795c3d" stroke-opacity="0.501961" fill="none" d="M 158.769843 103.267459 Q 148.563433 79.660084, 126.495683 90.251680" stroke-width="0.500000" />
<path stroke="#2e1c03" stroke-opacity="0.501961" fill="none" d="M 4.872550 54.305339 Q 11.791214 54.779982, 12.308980 45.437931" stroke-width="0.500000" />
<path stroke="#341f05" stroke-opacity="0.501961" fill="none" d="M 3.369445 40.654266 Q 5.853414 44.258117, 6.441136 55.364660" stroke-width="0.500000" />
<path stroke="#8e7356" stroke-opacity="0.501961" fill="none" d="M 160.044640 51.789030 Q 113.382601 62.871371, 89.159410 44.577534" stroke-width="0.500000" />
<path stroke="#7e6952" stroke-opacity="0.501961" fill="none" d="M 156.457799 101.197889 Q 106.170073 82.455856, 81.078072 91.269259" stroke-width="0.500000" />
<path stroke="#160c00" stroke-opacity="0.501961" fill="none" d="M 118.164861 59.066740 Q 113.471471 59.780302, 111.800595 47.253851" stroke-width="0.500000" />
<path stroke="#988067" stroke-opacity="0.501961" fill="none" d="M 185.379400 128.996153 Q 119.558602 151.395807, 108.924489 115.334580" stroke-width="0.500000" />
<path stroke="#371f04" stroke-opacity="0.501961" fill="none" d="M 8.118598 41.364271 Q 15.455682 51.901771, 11.261153 53.616086" stroke-width="0.500000" />
<path stroke="#432a0f" stroke-opacity="0.501961" fill="none" d="M 149.087399 102.247998 Q 147.414336 88.681959, 155.891570 89.025667" stroke-width="0.500000" />
<path stroke="#4f422f" stroke-opacity="0.501961" fill="none" d="M 84.539893 89.301258 Q 100.176852 105.382649, 110.017465 86.206941" stroke-width="0.500000" />
<path stroke="#7c4d1f" stroke-opacity="0.501961" fill="none" d="M 11.017889 4.904035 Q 2.644409 25.475337, -16.000000 17.251589" stroke-width="0.500000" />
<path stroke="#241401" stroke-opacity="0.501961" fill="none" d="M 121.785544 133.259558 Q 129.265729 130.601526, 122.718205 121.828612" stroke-width="0.500000" />
<path stroke="#7d5831" stroke-opacity="0.501961" fill="none" d="M 159.539183 61.552774 Q 155.204836 61.826103, 143.098811 42.489134" stroke-width="0.500000" />
<path stroke="#342712" stroke-opacity="0.501961" fill="none" d="M 90.282741 43.388277 Q 93.633675 52.279525, 91.555438 58.040921" stroke-width="0.500000" />
<path stroke="#170800" stroke-opacity="0.501961" fill="none" d="M 163.612039 124.220410 Q 156.739476 126.540320, 160.032620 135.836641" stroke-width="0.500000" />
<path stroke="#442e14" stroke-opacity="0.501961" fill="none" d="M 258.898740 18.383068 Q 257.315591 -1.086100, 246.521791 -0.957244" stroke-width="0.500000" />
<path stroke="#8e7962" stroke-opacity="0.501961" fill="none" d="M 84.764191 133.994308 Q 172.871761 115.078239, 187.495056 127.235935" stroke-width="0.500000" />
<path stroke="#000000" stroke-opacity="0.501961" fill="none" d="M 107.399522 57.536279 Q 111.217990 51.038054, 110.413423 45.960655" stroke-width="0.500000" />
<path stroke="#201601" stroke-opacity="0.501961" fill="none" d="M 150.313423 57.749939 Q 143.349343 54.120457, 151.519003 47.125784" stroke-width="0.500000" />
<path stroke="#443824" stroke-opacity="0.501961" fill="none" d="M 91.678748 83.826225 Q 89.839326 91.003843, 96.944103 101.635714" stroke-width="0.500000" />
<path stroke="#0a0000" stroke-opacity="0.501961" fill="none" d="M 159.580136 135.351631 Q 168.903918 135.775696, 165.602002 125.745183" stroke-width="0.500000" />
<path stroke="#b6926d" stroke-opacity="0.501961" fill="none" d="M 81.686538 63.897950 Q 124.201123 57.968292, 160.214903 62.590707" stroke-width="0.500000" />
<path stroke="#302a1e" stroke-opacity="0.501961" fill="none" d="M 127.763945 44.150859 Q 125.930629 50.322899, 126.554087 59.269777" stroke-width="0.500000" />
<path stroke="#323023" stroke-opacity="0.501961" fill="none" d="M 180.703088 122.696873 Q 177.250809 128.290951, 186.569463 131.757787" stroke-width="0.500000" />
<path stroke="#65411a" stroke-opacity="0.501961" fill="none" d="M 8.369817 19.958401 Q 0.684815 18.055798, 7.294373 7.261588" stroke-width="0.500000" />
<path stroke="#614324" stroke-opacity="0.501961" fill="none" d="M 159.324525 121.536525 Q 167.444381 128.980703, 169.095497 139.359279" stroke-width="0.500000" />
<path stroke="#100900" stroke-opacity="0.501961" fill="none" d="M 104.083623 119.424224 Q 103.565242 123.550545, 105.133776 132.019626" stroke-width="0.500000" />
<path stroke="#2e2210" stroke-opacity="0.501961" fill="none" d="M 97.732308 118.237412 Q 96.116355 132.384429, 101.831086 133.644549" stroke-width="0.500000" />
<path stroke="#2d2c21" stroke-opacity="0.501961" fill="none" d="M 143.505288 131.911036 Q 141.269061 120.593117, 148.405274 120.896074" stroke-width="0.500000" />
<path stroke="#6f4f2c" stroke-opacity="0.501961" fill="none" d="M 17.438867 54.945773 Q 11.476092 43.293328, -0.600855 57.241940" stroke-width="0.500000" />
<path stroke="#3a2e1d" stroke-opacity="0.501961" fill="none" d="M 132.621286 85.806433 Q 131.939022 96.600255, 133.937566 97.959706" stroke-width="0.500000" />
<path stroke="#201a0d" stroke-opacity="0.501961" fill="none" d="M 89.953748 97.328768 Q 89.813188 87.950320, 94.027690 87.078765" stroke-width="0.500000" />
<path stroke="#695338" stroke-opacity="0.501961" fill="none" d="M 126.751183 49.460641 Q 133.753042 70.576901, 156.383825 55.051728" stroke-width="0.500000" />
<path stroke="#695944" stroke-opacity="0.501961" fill="none" d="M 116.004297 89.947385 Q 104.672466 76.183416, 85.584342 97.573292" stroke-width="0.500000" />
<path stroke="#221500" stroke-opacity="0.501961" fill="none" d="M -10.802048 53.557748 Q 2.401582 39.013595, 13.012459 53.897744" stroke-width="0.500000" />
<path stroke="#a67443" stroke-opacity="0.501961" fill="none" d="M -16.000000 22.362312 Q 14.627725 31.038777, 9.169527 2.578935" stroke-width="0.500000" />
<path stroke="#5c4023" stroke-opacity="0.501961" fill="none" d="M 9.952066 58.153824 Q 3.046315 55.756973, 6.933925 44.749237" stroke-width="0.500000" />
<path stroke="#704d27" stroke-opacity="0.501961" fill="none" d="M 12.198733 16.324232 Q -5.439286 -1.562057, -16.000000 9.875293" stroke-width="0.500000" />
<path stroke="#4b3316" stroke-opacity="0.501961" fill="none" d="M 148.437277 47.160140 Q 147.207410 62.749161, 154.163739 63.176744" stroke-width="0.500000" />
<path stroke="#1b1609" stroke-opacity="0.501961" fill="none" d="M 93.455677 95.544783 Q 93.658280 85.403998, 83.888113 90.121933" stroke-width="0.500000" />
<path stroke="#000000" stroke-opacity="0.501961" fill="none" d="M 113.700404 93.797620 Q 116.613456 88.850211, 112.214878 86.323758" stroke-width="0.500000" />
<path stroke="#684e31" stroke-opacity="0.501961" fill="none" d="M 132.758702 136.351585 Q 134.537700 123.658332, 132.229967 116.057293" stroke-width="0.500000" />
<path stroke="#6b4c2a" stroke-opacity="0.501961" fill="none" d="M 12.440533 -9.454784 Q -6.551320 -2.927892, 10.025220 21.076462" stroke-width="0.500000" />
<path stroke="#392e18" stroke-opacity="0.501961" fill="none" d="M 95.857156 47.945848 Q 88.311394 51.198294, 92.729643 61.592466" stroke-width="0.500000" />
<path stroke="#60482c" stroke-opacity="0.501961" fill="none" d="M 151.009574 85.330357 Q 144.706397 93.078319, 152.542996 102.723020" stroke-width="0.500000" />
<path stroke="#82674b" stroke-opacity="0.501961" fill="none" d="M 126.012429 84.351507 Q 132.512910 107.271223, 161.289306 96.814144" stroke-width="0.500000" />
<path stroke="#91581c" stroke-opacity="0.501961" fill="none" d="M 102.809562 103.285017 Q 100.327018 103.828229, 101.251087 83.136371" stroke-width="0.500000" />
<path stroke="#493e2b" stroke-opacity="0.501961" fill="none" d="M 81.934264 82.707880 Q 88.098780 86.392615, 85.299313 96.669336" stroke-width="0.500000" />
<path stroke="#281d0a" stroke-opacity="0.501961" fill="none" d="M 163.621912 135.574629 Q 157.337295 133.964342, 158.059051 127.498747" stroke-width="0.500000" />
<path stroke="#ad7c4e" stroke-opacity="0.501961" fill="none" d="M 159.221114 44.397743 Q 137.120300 44.959834, 142.009604 64.160629" stroke-width="0.500000" />
<path stroke="#9c6d40" stroke-opacity="0.501961" fill="none" d="M 155.312655 63.861681 Q 164.541378 52.435727, 143.650223 43.087641" stroke-width="0.500000" />
<path stroke="#b48254" stroke-opacity="0.501961" fill="none" d="M 213.831575 -16.000000 Q 237.997782 1.339178, 259.324529 16.516183" stroke-width="0.500000" />
<path stroke="#3a2509" stroke-opacity="0.501961" fill="none" d="M 251.707788 -0.565408 Q 255.975530 12.812484, 265.939935 9.246418" stroke-width="0.500000" />
<path stroke="#211a0c" stroke-opacity="0.501961" fill="none" d="M 126.989902 88.461316 Q 129.259714 91.800398, 126.005893 100.326977" stroke-width="0.500000" />
<path stroke="#3f3829" stroke-opacity="0.501961" fill="none" d="M 116.889893 97.888539 Q 106.159826 95.724273, 107.310645 88.198547" stroke-width="0.500000" />
<path stroke="#463825" stroke-opacity="0.501961" fill="none" d="M 96.502666 132.594210 Q 100.380220 124.378240, 98.193198 120.311713" stroke-width="0.500000" />
<path stroke="#b19477" stroke-opacity="0.501961" fill="none" d="M 89.985910 115.688419 Q 95.763782 140.453313, 170.354581 140.003839" stroke-width="0.500000" />
<path stroke="#c5a280" stroke-opacity="0.501961" fill="none" d="M 161.580903 44.991856 Q 82.098050 42.769335, 79.496785 52.441829" stroke-width="0.500000" />
<path stroke="#39260f" stroke-opacity="0.501961" fill="none" d="M 123.714260 133.850553 Q 130.900673 127.154836, 121.536617 121.021756" stroke-width="0.500000" />
<path stroke="#876542" stroke-opacity="0.501961" fill="none" d="M 90.904246 140.821635 Q 94.304862 130.636746, 90.510403 114.745734" stroke-width="0.500000" />
<path stroke="#c19f7d" stroke-opacity="0.501961" fill="none" d="M 160.699336 61.581247 Q 123.729875 63.701854, 84.518388 62.752946" stroke-width="0.500000" />
<path stroke="#582f07" stroke-opacity="0.501961" fill="none" d="M 142.428019 85.235434 Q 141.434379 87.077453, 141.405956 104.140155" stroke-width="0.500000" />
<path stroke="#664c31" stroke-opacity="0.501961" fill="none" d="M 5.908648 39.820050 Q 3.670773 56.875438, 12.147559 57.518668" stroke-width="0.500000" />
<path stroke="#382710" stroke-opacity="0.501961" fill="none" d="M 147.865968 47.592042 Q 147.009890 57.434928, 157.485258 59.044267" stroke-width="0.500000" />
<path stroke="#795838" stroke-opacity="0.501961" fill="none" d="M -4.211491 69.653761 Q -2.123358 44.254753, 12.294415 45.825287" stroke-width="0.500000" />
<path stroke="#484232" stroke-opacity="0.501961" fill="none" d="M 85.409224 135.760143 Q 84.758635 122.636018, 78.751379 122.289561" stroke-width="0.500000" />
<path stroke="#4b4132" stroke-opacity="0.501961" fill="none" d="M 106.099702 83.541919 Q 117.612978 85.118521, 114.444948 94.458689" stroke-width="0.500000" />
<path stroke="#74624d" stroke-opacity="0.501961" fill="none" d="M 155.563282 132.874410 Q 162.813591 120.732838, 184.485043 129.277604" stroke-width="0.500000" />
<path stroke="#604e3a" stroke-opacity="0.501961" fill="none" d="M 119.810709 122.933943 Q 115.939994 134.082440, 125.859592 137.148618" stroke-width="0.500000" />
<path stroke="#322e24" stroke-opacity="0.501961" fill="none" d="M 126.506007 49.337213 Q 129.741508 55.063959, 136.702778 62.093100" stroke-width="0.500000" />
<path stroke="#000000" stroke-opacity="0.501961" fill="none" d="M 251.947809 2.495936 Q 267.077567 -5.312479, 260.363598 -16.000000" stroke-width="0.500000" />
<path stroke="#d5d5d9" stroke-opacity="0.501961" fill="none" d="M -5.365414 -2.794691 Q 2.684467 185.000000, 225.707140 166.872173" stroke-width="0.500000" />
<path stroke="#0d0700" stroke-opacity="0.501961" fill="none" d="M 119.484868 133.519663 Q 118.573109 124.611146, 119.001573 124.274189" stroke-width="0.500000" />
<path stroke="#40331f" stroke-opacity="0.501961" fill="none" d="M 98.711995 61.428141 Q 87.470610 57.374028, 93.348453 50.021489" stroke-width="0.500000" />
<path stroke="#7b6249" stroke-opacity="0.501961" fill="none" d="M 130.641261 93.561292 Q 138.940458 85.631435, 160.398636 90.269958" stroke-width="0.500000" />
<path stroke="#140c00" stroke-opacity="0.501961" fill="none" d="M 5.178319 13.931635 Q 5.507325 5.842852, -5.051275 8.747851" stroke-width="0.500000" />
<path stroke="#897256" stroke-opacity="0.501961" fill="none" d="M 82.140162 54.550079 Q 110.654731 33.067650, 117.830384 62.694436" stroke-width="0.500000" />
<path stroke="#d5d8df" stroke-opacity="0.501961" fill="none" d="M 240.804002 18.671857 Q 265.226531 185.000000, 2.835689 166.331113" stroke-width="0.500000" />
<path stroke="#3d2b15" stroke-opacity="0.501961" fill="none" d="M 149.784195 105.116171 Q 148.430524 95.562131, 149.729872 87.515141" stroke-width="0.500000" />
<path stroke="#815932" stroke-opacity="0.501961" fill="none" d="M 141.599534 44.204390 Q 141.498258 57.515762, 141.431017 65.385848" stroke-width="0.500000" />
<path stroke="#2c2414" stroke-opacity="0.501961" fill="none" d="M 96.629481 98.158767 Q 90.375775 91.295647, 93.337535 87.337256" stroke-width="0.500000" />
<path stroke="#543d23" stroke-opacity="0.501961" fill="none" d="M 160.752543 125.100476 Q 164.190235 124.300882, 168.864839 138.737899" stroke-width="0.500000" />
<path stroke="#82674c" stroke-opacity="0.501961" fill="none" d="M 104.823298 122.573726 Q 125.528598 116.877115, 128.980269 136.588117" stroke-width="0.500000" />
<path stroke="#d4d7de" stroke-opacity="0.501961" fill="none" d="M 90.096224 0.415405 Q 271.000000 -15.817400, 245.031453 185.000000" stroke-width="0.500000" />
<path stroke="#030200" stroke-opacity="0.501961" fill="none" d="M 127.601974 97.426799 Q 126.548908 91.428478, 127.958731 87.423940" stroke-width="0.500000" />
<path stroke="#1b1709" stroke-opacity="0.501961" fill="none" d="M 152.879379 47.542792 Q 145.241474 47.878577, 149.992691 58.766427" stroke-width="0.500000" />
<path stroke="#d3d6dd" stroke-opacity="0.501961" fill="none" d="M 252.922159 185.000000 Q 271.000000 -16.000000, 1.470830 27.453922" stroke-width="0.500000" />
<path stroke="#221c0c" stroke-opacity="0.501961" fill="none" d="M 114.635984 57.289931 Q 111.199064 49.578305, 111.718212 43.496434" stroke-width="0.500000" />
<path stroke="#3a260e" stroke-opacity="0.501961" fill="none" d="M -1.012139 18.521834 Q 6.826046 16.567111, 4.190233 8.061499" stroke-width="0.500000" />
<path stroke="#252319" stroke-opacity="0.501961" fill="none" d="M 144.276416 121.567462 Q 143.481643 129.718016, 142.653663 134.451461" stroke-width="0.500000" />
<path stroke="#533d24" stroke-opacity="0.501961" fill="none" d="M 18.723666 55.941574 Q 8.412135 52.742532, 5.636290 43.407430" stroke-width="0.500000" />
<path stroke="#d3d7de" stroke-opacity="0.501961" fill="none" d="M -16.000000 41.155650 Q 271.000000 -16.000000, 242.698344 185.000000" stroke-width="0.500000" />
<path stroke="#100d01" stroke-opacity="0.501961" fill="none" d="M 104.855032 126.139961 Q 98.140283 125.303193, 96.451148 124.180620" stroke-width="0.500000" />
<path stroke="#32220c" stroke-opacity="0.501961" fill="none" d="M 166.300857 128.228941 Q 168.178789 135.594923, 162.131308 136.272873" stroke-width="0.500000" />
<path stroke="#d5d8df" stroke-opacity="0.501961" fill="none" d="M -16.000000 106.283506 Q 235.416059 128.887663, 260.746777 62.552692" stroke-width="0.500000" />
<path stroke="#d4d7de" stroke-opacity="0.501961" fill="none" d="M 267.906209 147.164051 Q 57.375243 -15.634704, -1.028888 169.205574" stroke-width="0.500000" />
<path stroke="#1a1203" stroke-opacity="0.501961" fill="none" d="M 125.214652 132.386954 Q 127.004365 127.481110, 125.535883 122.306265" stroke-width="0.500000" />
<path stroke="#9b6c40" stroke-opacity="0.501961" fill="none" d="M 7.829536 22.359693 Q -9.433535 7.186463, 4.607917 -16.000000" stroke-width="0.500000" />
<path stroke="#bfa083" stroke-opacity="0.501961" fill="none" d="M 158.340913 104.075576 Q 82.498290 94.840761, 78.971991 99.917041" stroke-width="0.500000" />
<path stroke="#bc9977" stroke-opacity="0.501961" fill="none" d="M 159.528460 52.834772 Q 149.449429 72.822033, 84.654172 58.817570" stroke-width="0.500000" />
<path stroke="#110b00" stroke-opacity="0.501961" fill="none" d="M 12.440040 55.787270 Q 12.139354 47.260302, 11.060335 46.575970" stroke-width="0.500000" />
<path stroke="#d5d8df" stroke-opacity="0.501961" fill="none" d="M 3.795526 163.812365 Q 271.000000 184.365191, 231.338594 14.573957" stroke-width="0.500000" />
<path stroke="#c3a68b" stroke-opacity="0.501961" fill="none" d="M 81.664164 117.411166 Q 134.318350 117.178562, 191.785643 124.434528" stroke-width="0.500000" />
<path stroke="#876d52" stroke-opacity="0.501961" fill="none" d="M 158.108610 100.709321 Q 148.534321 75.554040, 127.567402 96.954218" stroke-width="0.500000" />
<path stroke="#82613f" stroke-opacity="0.501961" fill="none" d="M 143.227857 62.571872 Q 151.325567 50.914321, 158.402160 42.765377" stroke-width="0.500000" />
<path stroke="#aa7a4c" stroke-opacity="0.501961" fill="none" d="M 2.628203 4.379672 Q 18.344162 9.596248, 7.221954 21.113755" stroke-width="0.500000" />
<path stroke="#885016" stroke-opacity="0.501961" fill="none" d="M 101.141105 82.780886 Q 99.448067 86.785087, 100.999399 100.218603" stroke-width="0.500000" />
<path stroke="#221f11" stroke-opacity="0.501961" fill="none" d="M 78.876357 129.249631 Q 76.632109 125.361050, 83.502003 122.416321" stroke-width="0.500000" />
<path stroke="#212218" stroke-opacity="0.501961" fill="none" d="M 142.732243 130.492871 Q 142.736328 122.595046, 148.437638 122.375601" stroke-width="0.500000" />
<path stroke="#d5d8df" stroke-opacity="0.501961" fill="none" d="M 264.544378 161.351227 Q -14.382316 185.000000, -0.460218 63.659495" stroke-width="0.500000" />
<path stroke="#d5d8de" stroke-opacity="0.501961" fill="none" d="M 235.985507 20.660388 Q 271.000000 185.000000, 9.452581 168.302325" stroke-width="0.500000" />
<path stroke="#795a3c" stroke-opacity="0.501961" fill="none" d="M 253.755865 16.243023 Q 258.069118 -1.071516, 248.889356 -2.096577" stroke-width="0.500000" />
<path stroke="#d5d8df" stroke-opacity="0.501961" fill="none" d="M 6.211120 68.988566 Q -2.305789 185.000000, 271.000000 156.702621" stroke-width="0.500000" />
<path stroke="#151207" stroke-opacity="0.501961" fill="none" d="M 89.663828 99.152725 Q 88.794211 94.825068, 86.405585 88.408673" stroke-width="0.500000" />
<path stroke="#684f32" stroke-opacity="0.501961" fill="none" d="M 162.855532 124.162621 Q 156.018898 133.800421, 159.527245 139.547724" stroke-width="0.500000" />
<path stroke="#c1a081" stroke-opacity="0.501961" fill="none" d="M 88.457052 134.140659 Q 117.670035 141.158349, 169.279382 137.293169" stroke-width="0.500000" />
<path stroke="#ba9c80" stroke-opacity="0.501961" fill="none" d="M 78.721568 121.741881 Q 164.029278 112.166571, 185.163211 136.734197" stroke-width="0.500000" />
<path stroke="#d4d7de" stroke-opacity="0.501961" fill="none" d="M -16.000000 110.030718 Q 230.497149 127.527613, 257.355180 71.059597" stroke-width="0.500000" />
<path stroke="#d4d7de" stroke-opacity="0.501961" fill="none" d="M -16.000000 102.181633 Q 229.244579 24.481911, 254.519839 177.258652" stroke-width="0.500000" />
<path stroke="#61513f" stroke-opacity="0.501961" fill="none" d="M 124.651730 132.181509 Q 108.232997 137.478078, 96.341516 120.345400" stroke-width="0.500000" />
<path stroke="#d3d6dd" stroke-opacity="0.501961" fill="none" d="M 271.000000 29.368383 Q -16.000000 -4.248482, 7.900053 174.748916" stroke-width="0.500000" />
<path stroke="#d3d6dd" stroke-opacity="0.501961" fill="none" d="M -2.781972 36.541753 Q 254.353999 -16.000000, 253.183252 165.343002" stroke-width="0.500000" />
<path stroke="#72502c" stroke-opacity="0.501961" fill="none" d="M 141.307534 52.920065 Q 143.152323 51.317475, 158.291393 54.935277" stroke-width="0.500000" />
<path stroke="#3d3627" stroke-opacity="0.501961" fill="none" d="M 80.256137 133.790387 Q 76.590226 124.768515, 80.318630 120.110477" stroke-width="0.500000" />
<path stroke="#79634b" stroke-opacity="0.501961" fill="none" d="M 125.898912 96.943198 Q 140.036964 81.087769, 158.119586 99.844386" stroke-width="0.500000" />
<path stroke="#d3d6dd" stroke-opacity="0.501961" fill="none" d="M 254.701439 168.212588 Q 268.813677 -8.909148, 14.991286 5.938570" stroke-width="0.500000" />
<path stroke="#d4d7de" stroke-opacity="0.501961" fill="none" d="M 19.709626 158.140477 Q 271.000000 183.795306, 227.554893 6.169018" stroke-width="0.500000" />
<path stroke="#0e0600" stroke-opacity="0.501961" fill="none" d="M 159.156603 131.894281 Q 160.013896 124.441553, 163.964047 125.602984" stroke-width="0.500000" />
<path stroke="#a98969" stroke-opacity="0.501961" fill="none" d="M 83.529986 65.698103 Q 104.742132 66.410238, 102.702536 44.180001" stroke-width="0.500000" />
<path stroke="#4d4a3f" stroke-opacity="0.501961" fill="none" d="M 186.961469 136.370811 Q 188.995393 133.923838, 178.218407 126.149687" stroke-width="0.500000" />
<path stroke="#231f13" stroke-opacity="0.501961" fill="none" d="M 87.755179 97.989122 Q 82.249574 96.998565, 86.131070 87.892847" stroke-width="0.500000" />
<path stroke="#564026" stroke-opacity="0.501961" fill="none" d="M 3.383122 53.753639 Q 14.370929 49.530217, 10.933382 43.790961" stroke-width="0.500000" />
<path stroke="#88613a" stroke-opacity="0.501961" fill="none" d="M 8.616528 3.393432 Q 10.312451 11.054667, -7.042579 23.374356" stroke-width="0.500000" />
<path stroke="#d3d6dd" stroke-opacity="0.501961" fill="none" d="M 12.669318 8.164592 Q 271.000000 -7.656938, 226.783096 170.949624" stroke-width="0.500000" />
<path stroke="#d4d6dd" stroke-opacity="0.501961" fill="none" d="M 26.404065 8.047951 Q -16.000000 185.000000, 240.330205 154.533001" stroke-width="0.500000" />
<path stroke="#d3d6dd" stroke-opacity="0.501961" fill="none" d="M 3.154456 176.726266 Q 5.328492 20.387242, 259.811525 97.340021" stroke-width="0.500000" />
<path stroke="#3e301d" stroke-opacity="0.501961" fill="none" d="M 152.475679 87.377156 Q 147.648677 91.335661, 149.189860 101.300196" stroke-width="0.500000" />
<path stroke="#363227" stroke-opacity="0.501961" fill="none" d="M 123.716976 55.360530 Q 133.285025 52.993898, 132.716807 60.435614" stroke-width="0.500000" />
<path stroke="#635440" stroke-opacity="0.501961" fill="none" d="M 131.893712 49.065079 Q 127.262428 65.243990, 106.855582 54.223169" stroke-width="0.500000" />
<path stroke="#573f22" stroke-opacity="0.501961" fill="none" d="M 133.425730 121.268877 Q 133.124540 135.925098, 133.178243 136.508426" stroke-width="0.500000" />
<path stroke="#855c33" stroke-opacity="0.501961" fill="none" d="M 142.686609 99.487893 Q 142.410467 88.952865, 141.155969 83.745989" stroke-width="0.500000" />
<path stroke="#d5d7de" stroke-opacity="0.501961" fill="none" d="M 271.000000 150.052958 Q 42.001240 149.838617, -2.470809 150.375106" stroke-width="0.500000" />
<path stroke="#d4d7de" stroke-opacity="0.501961" fill="none" d="M -1.520465 185.000000 Q 11.396619 69.912676, 254.792347 128.152037" stroke-width="0.500000" />
<path stroke="#caaa8a" stroke-opacity="0.501961" fill="none" d="M 154.751584 45.864253 Q 121.890809 44.924273, 83.782169 48.947793" stroke-width="0.500000" />
<path stroke="#352f22" stroke-opacity="0.501961" fill="none" d="M 135.109059 89.322632 Q 130.223979 97.739347, 134.263243 98.527424" stroke-width="0.500000" />
<path stroke="#271d0f" stroke-opacity="0.501961" fill="none" d="M 126.586789 132.425410 Q 127.279923 123.637212, 120.977095 122.628939" stroke-width="0.500000" />
<path stroke="#120d00" stroke-opacity="0.501961" fill="none" d="M 163.944227 127.020897 Q 169.251607 131.413909, 162.325858 136.164655" stroke-width="0.500000" />
<path stroke="#d3d6dd" stroke-opacity="0.501961" fill="none" d="M 252.720712 142.747617 Q 71.640612 -8.904114, 3.781825 168.442666" stroke-width="0.500000" />
<path stroke="#aa9076" stroke-opacity="0.501961" fill="none" d="M 161.730332 100.184915 Q 154.600386 108.357211, 77.100911 84.672158" stroke-width="0.500000" />
<path stroke="#c2a387" stroke-opacity="0.501961" fill="none" d="M 173.273178 139.553570 Q 141.543482 134.593155, 85.627012 135.570410" stroke-width="0.500000" />
<path stroke="#d5d8de" stroke-opacity="0.501961" fill="none" d="M 257.486068 168.008500 Q -7.152082 180.935303, 1.459681 92.279543" stroke-width="0.500000" />
<path stroke="#bfa68c" stroke-opacity="0.501961" fill="none" d="M 162.503356 61.096485 Q 112.907653 73.703921, 72.000786 52.010886" stroke-width="0.500000" />
<path stroke="#d3d6dd" stroke-opacity="0.501961" fill="none" d="M 271.000000 42.644108 Q 15.426627 -16.000000, -4.535272 46.161532" stroke-width="0.500000" />
<path stroke="#67492a" stroke-opacity="0.501961" fill="none" d="M 160.117169 54.593482 Q 159.302150 59.785190, 145.428203 57.350961" stroke-width="0.500000" />
<path stroke="#d4d6dd" stroke-opacity="0.501961" fill="none" d="M -6.589070 102.248639 Q 237.435600 133.918498, 238.808514 40.546256" stroke-width="0.500000" />
<path stroke="#3b382d" stroke-opacity="0.501961" fill="none" d="M 108.052440 96.624812 Q 116.032619 94.535066, 115.802566 91.415546" stroke-width="0.500000" />
<path stroke="#d3d6dd" stroke-opacity="0.501961" fill="none" d="M 256.192405 185.000000 Q 241.582099 12.410206, -16.000000 95.947798" stroke-width="0.500000" />
<path stroke="#7a5b3a" stroke-opacity="0.501961" fill="none" d="M 253.634243 13.978815 Q 255.036375 0.018095, 241.428729 -16.000000" stroke-width="0.500000" />
<path stroke="#c7a687" stroke-opacity="0.501961" fill="none" d="M 161.928110 87.478952 Q 104.105509 82.070186, 86.870909 83.310424" stroke-width="0.500000" />
<path stroke="#685742" stroke-opacity="0.501961" fill="none" d="M 88.938060 49.809300 Q 116.942385 49.856837, 118.341831 63.793070" stroke-width="0.500000" />
<path stroke="#493b25" stroke-opacity="0.501961" fill="none" d="M 112.212034 48.118535 Q 104.756783 55.400304, 108.348679 59.399319" stroke-width="0.500000" />
<path stroke="#000000" stroke-opacity="0.501961" fill="none" d="M 104.656319 122.859289 Q 104.491135 125.645612, 104.291018 131.056641" stroke-width="0.500000" />
<path stroke="#d3d5dc" stroke-opacity="0.501961" fill="none" d="M -0.029276 168.662723 Q -11.446035 -16.000000, 269.301479 28.173060" stroke-width="0.500000" />
<path stroke="#d4d7de" stroke-opacity="0.501961" fill="none" d="M 1.865331 70.847495 Q -5.388071 177.788496, 242.787900 161.645911" stroke-width="0.500000" />
<path stroke="#221d11" stroke-opacity="0.501961" fill="none" d="M 114.173871 57.070437 Q 113.574315 53.815141, 107.210550 53.784742" stroke-width="0.500000" />
<path stroke="#c19d7d" stroke-opacity="0.501961" fill="none" d="M -2.541829 -16.000000 Q 14.549219 11.173273, 16.748963 57.824385" stroke-width="0.500000" />
<path stroke="#5a4021" stroke-opacity="0.501961" fill="none" d="M 112.212452 120.778119 Q 113.452321 129.586328, 112.601225 132.295451" stroke-width="0.500000" />
<path stroke="#1f1a0c" stroke-opacity="0.501961" fill="none" d="M 97.947716 119.825041 Q 97.442928 121.724610, 98.571795 131.975572" stroke-width="0.500000" />
<path stroke="#c7a88a" stroke-opacity="0.501961" fill="none" d="M 84.979769 100.570072 Q 144.881091 104.913511, 158.465955 103.562670" stroke-width="0.500000" />
<path stroke="#d4d7de" stroke-opacity="0.501961" fill="none" d="M 7.857242 72.310821 Q 9.352792 181.342766, 257.050792 155.157117" stroke-width="0.500000" />
<path stroke="#2a291d" stroke-opacity="0.501961" fill="none" d="M 78.600077 130.077142 Q 84.247566 125.607772, 84.898917 124.531181" stroke-width="0.500000" />
<path stroke="#d3d5db" stroke-opacity="0.501961" fill="none" d="M 217.749070 0.275596 Q 249.674445 185.000000, 24.782104 159.748035" stroke-width="0.500000" />
<path stroke="#d3d6dd" stroke-opacity="0.501961" fill="none" d="M 254.274512 150.248057 Q 271.000000 -16.000000, 13.503578 4.378447" stroke-width="0.500000" />
<path stroke="#756e60" stroke-opacity="0.501961" fill="none" d="M 171.287366 121.913882 Q 186.304826 118.850090, 183.394691 134.235263" stroke-width="0.500000" />
<path stroke="#2f2e24" stroke-opacity="0.501961" fill="none" d="M 141.567655 131.941780 Q 147.319505 126.919210, 139.514308 122.481947" stroke-width="0.500000" />
<path stroke="#a47a52" stroke-opacity="0.501961" fill="none" d="M 4.672971 23.603010 Q 13.883873 17.347039, 8.750560 -6.862884" stroke-width="0.500000" />
<path stroke="#d4d6dc" stroke-opacity="0.501961" fill="none" d="M 14.737223 53.699368 Q -0.667114 177.327433, 245.536262 151.830344" stroke-width="0.500000" />
<path stroke="#362d1c" stroke-opacity="0.501961" fill="none" d="M 92.052557 59.333334 Q 91.625673 50.801551, 90.096138 45.941961" stroke-width="0.500000" />
<path stroke="#222017" stroke-opacity="0.501961" fill="none" d="M 125.125080 61.599188 Q 126.606859 55.154008, 132.815692 49.461890" stroke-width="0.500000" />
<path stroke="#d3d6dd" stroke-opacity="0.501961" fill="none" d="M -3.450881 37.813000 Q 267.254234 -16.000000, 250.556841 185.000000" stroke-width="0.500000" />
<path stroke="#302312" stroke-opacity="0.501961" fill="none" d="M 7.163968 42.781679 Q 3.581013 52.265648, 7.398234 54.138607" stroke-width="0.500000" />
<path stroke="#41392b" stroke-opacity="0.501961" fill="none" d="M 85.248708 87.361511 Q 82.156981 95.763010, 97.116276 97.084235" stroke-width="0.500000" />
<path stroke="#110e01" stroke-opacity="0.501961" fill="none" d="M 103.480216 129.275058 Q 105.473426 123.498785, 102.981729 120.479661" stroke-width="0.500000" />
<path stroke="#d3d5dc" stroke-opacity="0.501961" fill="none" d="M -0.140223 39.510396 Q 253.356033 -6.727453, 225.224832 171.715748" stroke-width="0.500000" />
<path stroke="#d3d6dd" stroke-opacity="0.501961" fill="none" d="M -16.000000 97.142642 Q 243.195373 126.708145, 271.000000 101.459310" stroke-width="0.500000" />
<path stroke="#d4d7dd" stroke-opacity="0.501961" fill="none" d="M -16.000000 129.260024 Q 251.515632 185.000000, 250.444432 66.324601" stroke-width="0.500000" />
<path stroke="#d4d7de" stroke-opacity="0.501961" fill="none" d="M 2.046992 89.621267 Q -0.816315 185.000000, 271.000000 162.886899" stroke-width="0.500000" />
<path stroke="#d3d5dc" stroke-opacity="0.501961" fill="none" d="M -16.000000 31.198864 Q 252.170123 -13.040219, 243.221148 179.598377" stroke-width="0.500000" />
<path stroke="#d3d5dc" stroke-opacity="0.501961" fill="none" d="M 259.908262 35.723538 Q 50.529688 138.792172, 13.835688 -4.216550" stroke-width="0.500000" />
<path stroke="#d3d5dc" stroke-opacity="0.501961" fill="none" d="M 0.152945 34.395796 Q 211.692557 -16.000000, 243.933799 185.000000" stroke-width="0.500000" />
<path stroke="#242016" stroke-opacity="0.501961" fill="none" d="M 127.064102 48.762194 Q 125.489863 55.243315, 127.835148 60.021434" stroke-width="0.500000" />
<path stroke="#bb8c61" stroke-opacity="0.501961" fill="none" d="M 231.067173 -5.643825 Q 263.041316 23.052152, 271.000000 10.874018" stroke-width="0.500000" />
<path stroke="#d3d6dc" stroke-opacity="0.501961" fill="none" d="M 221.978019 -10.315899 Q 222.531712 175.695592, 11.075395 85.587219" stroke-width="0.500000" />
<path stroke="#000000" stroke-opacity="0.501961" fill="none" d="M 251.367850 2.111665 Q 271.000000 -8.578518, 269.226606 -16.000000" stroke-width="0.500000" />
<path stroke="#d2d5dc" stroke-opacity="0.501961" fill="none" d="M 264.770569 27.837437 Q -16.000000 -12.514622, 2.923688 185.000000" stroke-width="0.500000" />
<path stroke="#d4d6dd" stroke-opacity="0.501961" fill="none" d="M 271.000000 144.151608 Q 256.966980 145.798163, -10.559779 144.638153" stroke-width="0.500000" />
<path stroke="#d4d6dd" stroke-opacity="0.501961" fill="none" d="M 271.000000 149.677207 Q 5.180077 185.000000, 9.115876 66.058877" stroke-width="0.500000" />
<path stroke="#734d24" stroke-opacity="0.501961" fill="none" d="M 96.293625 135.808716 Q 89.651528 135.923721, 91.796806 117.782953" stroke-width="0.500000" />
<path stroke="#8a6540" stroke-opacity="0.501961" fill="none" d="M 150.846201 64.208394 Q 151.560564 45.221914, 156.443696 44.148530" stroke-width="0.500000" />
<path stroke="#b89370" stroke-opacity="0.501961" fill="none" d="M 154.016835 141.889294 Q 148.875326 118.429839, 171.901076 120.138453" stroke-width="0.500000" />
<path stroke="#7d5b3b" stroke-opacity="0.501961" fill="none" d="M 4.523456 49.839118 Q 14.203844 43.732033, 15.375912 40.495744" stroke-width="0.500000" />
<path stroke="#8f5b27" stroke-opacity="0.501961" fill="none" d="M 100.741430 102.211881 Q 101.085541 94.790353, 101.370964 85.694679" stroke-width="0.500000" />
<path stroke="#262317" stroke-opacity="0.501961" fill="none" d="M 111.656228 96.114083 Q 106.596731 96.533700, 107.215524 87.850362" stroke-width="0.500000" />
<path stroke="#c8ab8f" stroke-opacity="0.501961" fill="none" d="M 80.179922 82.742725 Q 125.732534 81.565532, 158.004118 85.916336" stroke-width="0.500000" />
<path stroke="#bda084" stroke-opacity="0.501961" fill="none" d="M 81.301814 61.681538 Q 101.003371 59.965752, 161.242513 63.354527" stroke-width="0.500000" />
<path stroke="#d4d0ce" stroke-opacity="0.501961" fill="none" d="M 85.527482 -6.118698 Q 160.110595 13.173020, 133.277167 144.757167" stroke-width="0.500000" />
<path stroke="#c7a889" stroke-opacity="0.501961" fill="none" d="M 82.740751 44.209043 Q 149.767674 52.127830, 151.068644 42.471382" stroke-width="0.500000" />
<path stroke="#d3d5dc" stroke-opacity="0.501961" fill="none" d="M 4.341905 26.121003 Q 263.511524 -16.000000, 253.802917 164.121068" stroke-width="0.500000" />
<path stroke="#d2d5dc" stroke-opacity="0.501961" fill="none" d="M 233.226278 167.500060 Q 270.143883 -11.308215, 33.870722 5.199849" stroke-width="0.500000" />
<path stroke="#252116" stroke-opacity="0.501961" fill="none" d="M 132.657912 100.136412 Q 131.802363 95.689425, 133.406842 89.424201" stroke-width="0.500000" />
</g>
</svg>
