<svg height="1024" width="728" xmlns="http://www.w3.org/2000/svg"><path d="m0 0h728v1024h-728z" fill="#a4afa2"/><g fill-opacity=".501961" stroke-width="4"><ellipse cx="390" cy="302" fill="#13413d" rx="248" ry="248"/><ellipse cx="670" cy="1022" fill="#fff" rx="296" ry="296"/><ellipse cx="270" cy="686" fill="#4a6645" rx="236" ry="236"/><ellipse cx="146" cy="130" rx="76" ry="76"/><ellipse cx="618" cy="550" fill="#fff" rx="120" ry="120"/><ellipse cx="2" cy="318" fill="#fff" rx="152" ry="152"/><ellipse cx="338" cy="1022" fill="#fff" rx="148" ry="148"/><ellipse cx="366" cy="2" fill="#fffff6" rx="144" ry="144"/><ellipse cx="2" cy="1022" fill="#fff" rx="192" ry="192"/><ellipse cx="626" cy="402" rx="60" ry="60"/><ellipse cx="690" cy="2" fill="#fff" rx="132" ry="132"/><ellipse cx="726" cy="274" fill="#fff" rx="104" ry="104"/><ellipse cx="534" cy="190" fill="#8d5f32" rx="120" ry="120"/><ellipse cx="2" cy="418" fill="#fff" rx="156" ry="156"/><ellipse cx="706" cy="882" fill="#fff" rx="180" ry="180"/><ellipse cx="338" cy="606" fill="#48b2c0" rx="132" ry="132"/><ellipse cx="190" cy="818" fill="#464d24" rx="108" ry="108"/><ellipse cx="626" cy="538" fill="#fff" rx="96" ry="96"/><ellipse cx="74" cy="90" rx="36" ry="36"/><ellipse cx="450" cy="730" fill="#94816f" rx="116" ry="116"/><ellipse cx="198" cy="1022" fill="#fff" rx="116" ry="116"/><ellipse cx="194" cy="2" fill="#fff" rx="72" ry="72"/><ellipse cx="170" cy="214" fill="#0a0601" rx="56" ry="56"/><ellipse cx="526" cy="390" fill="#0d0100" rx="60" ry="60"/><ellipse cx="2" cy="222" fill="#fff" rx="104" ry="104"/><ellipse cx="330" cy="334" fill="#22b2ca" rx="88" ry="88"/><ellipse cx="2" cy="886" fill="#fff" rx="104" ry="104"/><ellipse cx="50" cy="2" fill="#fff" rx="64" ry="64"/><ellipse cx="546" cy="2" fill="#fff" rx="76" ry="76"/><ellipse cx="430" cy="142" fill="#b88e58" rx="88" ry="88"/><ellipse cx="258" cy="230" fill="#6cffff" rx="40" ry="40"/><ellipse cx="422" cy="990" fill="#fffff5" rx="140" ry="140"/><ellipse cx="642" cy="270" fill="#fff" rx="48" ry="48"/><ellipse cx="726" cy="558" fill="#fffffc" rx="124" ry="124"/><ellipse cx="346" cy="458" fill="#001433" rx="60" ry="60"/><ellipse cx="210" cy="378" fill="#011532" rx="60" ry="60"/><ellipse cx="446" cy="534" fill="#21a8ae" rx="80" ry="80"/><ellipse cx="202" cy="490" fill="#fab475" rx="60" ry="60"/><ellipse cx="590" cy="178" fill="#44483b" rx="76" ry="76"/><ellipse cx="418" cy="342" fill="#79ffff" rx="40" ry="40"/><ellipse cx="558" cy="686" fill="#727861" rx="72" ry="72"/><ellipse cx="126" cy="586" fill="#b47814" rx="68" ry="68"/><ellipse cx="90" cy="702" fill="#2d3015" rx="56" ry="56"/><ellipse cx="366" cy="250" fill="#243f38" rx="76" ry="76"/><ellipse cx="722" cy="30" fill="#fff" rx="124" ry="124"/><ellipse cx="274" cy="2" fill="#fff" rx="92" ry="92"/><ellipse cx="2" cy="754" fill="#fff" rx="48" ry="48"/><ellipse cx="186" cy="682" fill="#dcdacf" rx="48" ry="48"/><ellipse cx="438" cy="426" fill="#061820" rx="52" ry="52"/><ellipse cx="186" cy="298" fill="#081623" rx="48" ry="48"/><ellipse cx="2" cy="618" fill="#fff" rx="44" ry="44"/><ellipse cx="610" cy="382" fill="#241e12" rx="64" ry="64"/><ellipse cx="130" cy="118" fill="#181d17" rx="68" ry="68"/><ellipse cx="542" cy="486" fill="#fffff8" rx="44" ry="44"/><ellipse cx="238" cy="162" fill="#1fe7f7" rx="36" ry="36"/><ellipse cx="346" cy="750" fill="#f8daaf" rx="44" ry="44"/><ellipse cx="262" cy="290" fill="#89ffff" rx="36" ry="36"/><ellipse cx="582" cy="922" fill="#fffff5" rx="128" ry="128"/><ellipse cx="110" cy="446" fill="#00237e" rx="20" ry="20"/><ellipse cx="414" cy="830" fill="#6e4f2d" rx="52" ry="52"/><ellipse cx="2" cy="498" fill="#fff" rx="88" ry="88"/><ellipse cx="722" cy="282" fill="#fff" rx="92" ry="92"/><ellipse cx="138" cy="2" fill="#fff" rx="56" ry="56"/><ellipse cx="274" cy="606" fill="#2e9a9d" rx="92" ry="92"/><ellipse cx="474" cy="2" fill="#fff" rx="72" ry="72"/><ellipse cx="378" cy="94" fill="#72633a" rx="44" ry="44"/><ellipse cx="2" cy="90" fill="#fff" rx="36" ry="36"/><ellipse cx="478" cy="202" fill="#d2a46d" rx="56" ry="56"/><ellipse cx="194" cy="454" fill="#fff" rx="24" ry="24"/><ellipse cx="310" cy="182" fill="#120802" rx="36" ry="36"/><ellipse cx="458" cy="730" fill="#fff" rx="20" ry="20"/><ellipse cx="722" cy="406" fill="#fff" rx="32" ry="32"/><ellipse cx="22" cy="298" fill="#fffff2" rx="124" ry="124"/><ellipse cx="114" cy="1022" fill="#fffff8" rx="112" ry="112"/><ellipse cx="2" cy="686" fill="#fff" rx="36" ry="36"/><ellipse cx="274" cy="838" fill="#464428" rx="56" ry="56"/><ellipse cx="662" cy="162" fill="#3c2f11" rx="28" ry="28"/><ellipse cx="650" cy="410" fill="#232117" rx="44" ry="44"/><ellipse cx="226" cy="110" fill="#0094ab" rx="28" ry="28"/><ellipse cx="390" cy="138" fill="#bcb696" rx="64" ry="64"/><ellipse cx="638" cy="678" fill="#8e7753" rx="40" ry="40"/><ellipse cx="722" cy="802" fill="#fffff3" rx="116" ry="116"/><ellipse cx="190" cy="518" fill="#a04f0d" rx="40" ry="40"/><ellipse cx="330" cy="1002" fill="#fffff4" rx="116" ry="116"/><ellipse cx="558" cy="118" fill="#33322a" rx="44" ry="44"/><ellipse cx="134" cy="882" fill="#372429" rx="32" ry="32"/><ellipse cx="138" cy="430" fill="#001b5b" rx="16" ry="16"/><ellipse cx="262" cy="338" fill="#89f7f6" rx="28" ry="28"/><ellipse cx="2" cy="190" fill="#fffff8" rx="84" ry="84"/><ellipse cx="158" cy="458" fill="#fff" rx="28" ry="28"/><ellipse cx="14" cy="2" fill="#fff" rx="72" ry="72"/><ellipse cx="482" cy="334" fill="#29e6f6" rx="24" ry="24"/><ellipse cx="354" cy="382" fill="#72eaf0" rx="32" ry="32"/><ellipse cx="2" cy="786" fill="#fff" rx="56" ry="56"/><ellipse cx="430" cy="746" fill="#fff" rx="16" ry="16"/><ellipse cx="306" cy="90" fill="#fffff7" rx="36" ry="36"/><ellipse cx="286" cy="398" fill="#1e1623" rx="28" ry="28"/><ellipse cx="574" cy="302" fill="#0092ae" rx="28" ry="28"/><ellipse cx="622" cy="542" fill="#ffffed" rx="96" ry="96"/><ellipse cx="458" cy="514" fill="#43a1a2" rx="72" ry="72"/><ellipse cx="514" cy="762" fill="#616d5c" rx="44" ry="44"/><ellipse cx="606" cy="650" fill="#18362c" rx="20" ry="20"/><ellipse cx="606" cy="274" fill="#fff" rx="20" ry="20"/><ellipse cx="470" cy="790" fill="#fffffc" rx="16" ry="16"/><ellipse cx="214" cy="738" fill="#fdd5a7" rx="20" ry="20"/><ellipse cx="478" cy="654" fill="#fff" rx="16" ry="16"/><ellipse cx="254" cy="454" fill="#fffff2" rx="16" ry="16"/><ellipse cx="94" cy="454" fill="#00337c" rx="16" ry="16"/><ellipse cx="402" cy="646" fill="#bcb3a5" rx="48" ry="48"/><ellipse cx="486" cy="106" fill="#613c1e" rx="36" ry="36"/><ellipse cx="726" cy="174" fill="#fff" rx="36" ry="36"/><ellipse cx="154" cy="418" fill="#00285c" rx="16" ry="16"/><ellipse cx="106" cy="742" fill="#3d5238" rx="60" ry="60"/><ellipse cx="162" cy="822" fill="#6dd875" rx="32" ry="32"/><ellipse cx="282" cy="138" fill="#181411" rx="24" ry="24"/><ellipse cx="90" cy="94" fill="#262722" rx="44" ry="44"/><ellipse cx="582" cy="378" fill="#343830" rx="68" ry="68"/><ellipse cx="150" cy="674" fill="#fff" rx="20" ry="20"/><ellipse cx="726" cy="554" fill="#fffff1" rx="116" ry="116"/><ellipse cx="546" cy="654" fill="#fff" rx="16" ry="16"/><ellipse cx="214" cy="862" fill="#6ff383" rx="24" ry="24"/><ellipse cx="414" cy="766" fill="#fff" rx="16" ry="16"/><ellipse cx="318" cy="338" fill="#00626c" rx="36" ry="36"/><ellipse cx="526" cy="318" fill="#09d4e4" rx="20" ry="20"/><ellipse cx="158" cy="178" fill="#2d312a" rx="60" ry="60"/><ellipse cx="474" cy="690" fill="#383d30" rx="28" ry="28"/><ellipse cx="338" cy="142" fill="#fff" rx="16" ry="16"/><ellipse cx="562" cy="2" fill="#fffff5" rx="76" ry="76"/><ellipse cx="278" cy="498" fill="#d9b989" rx="24" ry="24"/><ellipse cx="726" cy="358" fill="#fffffb" rx="52" ry="52"/><ellipse cx="266" cy="426" fill="#ffda91" rx="16" ry="16"/><ellipse cx="618" cy="682" fill="#fbffff" rx="16" ry="16"/><ellipse cx="666" cy="686" fill="#7a5429" rx="24" ry="24"/><ellipse cx="414" cy="270" fill="#402c19" rx="36" ry="36"/><ellipse cx="390" cy="2" fill="#fff" rx="52" ry="52"/><ellipse cx="726" cy="714" fill="#fffffb" rx="48" ry="48"/><ellipse cx="82" cy="610" fill="#93a044" rx="48" ry="48"/><ellipse cx="482" cy="714" fill="#fff" rx="12" ry="12"/><ellipse cx="6" cy="898" fill="#ffffea" rx="104" ry="104"/><ellipse cx="2" cy="630" fill="#fff" rx="40" ry="40"/><ellipse cx="686" cy="58" fill="#ffe" rx="84" ry="84"/><ellipse cx="326" cy="210" fill="#392d1d" rx="40" ry="40"/><ellipse cx="150" cy="546" fill="#ae6e34" rx="52" ry="52"/><ellipse cx="598" cy="218" fill="#928b6f" rx="36" ry="36"/><ellipse cx="590" cy="694" fill="#ffffe9" rx="16" ry="16"/><ellipse cx="122" cy="386" fill="#fffff1" rx="36" ry="36"/><ellipse cx="230" cy="434" fill="#000113" rx="16" ry="16"/><ellipse cx="514" cy="702" fill="#fff" rx="12" ry="12"/><ellipse cx="338" cy="298" fill="#0d7e8a" rx="48" ry="48"/><ellipse cx="510" cy="190" fill="#eee6b3" rx="20" ry="20"/><ellipse cx="2" cy="726" fill="#fffffd" rx="40" ry="40"/><ellipse cx="530" cy="678" fill="#2a372d" rx="20" ry="20"/><ellipse cx="390" cy="446" fill="#203a44" rx="56" ry="56"/><ellipse cx="542" cy="474" fill="#fffffe" rx="28" ry="28"/><ellipse cx="226" cy="458" fill="#fff" rx="12" ry="12"/><ellipse cx="174" cy="706" fill="#fff" rx="16" ry="16"/><ellipse cx="246" cy="178" fill="#3fccd4" rx="36" ry="36"/><ellipse cx="118" cy="834" fill="#243031" rx="28" ry="28"/><ellipse cx="166" cy="2" fill="#fffff5" rx="60" ry="60"/><ellipse cx="558" cy="746" fill="#6c4e24" rx="20" ry="20"/><ellipse cx="270" cy="574" fill="#50a099" rx="68" ry="68"/><ellipse cx="378" cy="90" fill="#796b49" rx="40" ry="40"/><ellipse cx="542" cy="726" fill="#c5d6ba" rx="20" ry="20"/><ellipse cx="462" cy="402" fill="#2e291f" rx="40" ry="40"/><ellipse cx="502" cy="614" fill="#fff" rx="12" ry="12"/><ellipse cx="54" cy="654" fill="#2d1c15" rx="20" ry="20"/><ellipse cx="370" cy="178" fill="#fff" rx="12" ry="12"/><ellipse cx="254" cy="882" fill="#422c27" rx="28" ry="28"/><ellipse cx="186" cy="242" fill="#303028" rx="44" ry="44"/><ellipse cx="2" cy="542" fill="#fffff3" rx="60" ry="60"/><ellipse cx="414" cy="178" fill="#75765d" rx="40" ry="40"/><ellipse cx="422" cy="890" fill="#417e7f" rx="12" ry="12"/><ellipse cx="326" cy="118" fill="#fff" rx="20" ry="20"/><ellipse cx="406" cy="550" fill="#61b7ad" rx="60" ry="60"/><ellipse cx="674" cy="846" fill="#fffdec" rx="132" ry="132"/><ellipse cx="394" cy="358" fill="#6ddeed" rx="36" ry="36"/><ellipse cx="662" cy="418" fill="#353126" rx="36" ry="36"/><ellipse cx="210" cy="94" fill="#008592" rx="20" ry="20"/><ellipse cx="506" cy="650" fill="#0d1f2a" rx="16" ry="16"/><ellipse cx="166" cy="1022" fill="#ffffed" rx="108" ry="108"/><ellipse cx="542" cy="590" fill="#fffff3" rx="36" ry="36"/><ellipse cx="134" cy="478" fill="#fffff5" rx="24" ry="24"/><ellipse cx="274" cy="2" fill="#ffffef" rx="92" ry="92"/><ellipse cx="646" cy="666" fill="#f3fee9" rx="16" ry="16"/><ellipse cx="282" cy="726" fill="#fffbfa" rx="12" ry="12"/><ellipse cx="190" cy="674" fill="#707669" rx="24" ry="24"/><ellipse cx="430" cy="706" fill="#2e280f" rx="16" ry="16"/><ellipse cx="6" cy="258" fill="#fffcec" rx="116" ry="116"/><ellipse cx="654" cy="278" fill="#fffff0" rx="44" ry="44"/><ellipse cx="158" cy="310" fill="#175f69" rx="20" ry="20"/><ellipse cx="362" cy="850" fill="#7e6647" rx="36" ry="36"/><ellipse cx="490" cy="758" fill="#39322e" rx="20" ry="20"/><ellipse cx="342" cy="798" fill="#fddda6" rx="16" ry="16"/><ellipse cx="594" cy="726" fill="#793d0a" rx="16" ry="16"/><ellipse cx="442" cy="338" fill="#5de9f6" rx="28" ry="28"/><ellipse cx="262" cy="262" fill="#79deed" rx="36" ry="36"/><ellipse cx="110" cy="894" fill="#4b3f31" rx="12" ry="12"/><ellipse cx="522" cy="758" fill="#c5e0d7" rx="16" ry="16"/><ellipse cx="90" cy="562" fill="#b0b95d" rx="32" ry="32"/><ellipse cx="354" cy="162" fill="#fff" rx="12" ry="12"/><ellipse cx="478" cy="546" fill="#008e98" rx="28" ry="28"/><ellipse cx="394" cy="898" fill="#fffffd" rx="24" ry="24"/><ellipse cx="6" cy="130" fill="#fffff8" rx="44" ry="44"/><ellipse cx="486" cy="278" fill="#8c6035" rx="40" ry="40"/><ellipse cx="242" cy="486" fill="#cd7823" rx="24" ry="24"/><ellipse cx="574" cy="142" fill="#5a5846" rx="60" ry="60"/><ellipse cx="726" cy="430" fill="#fff" rx="32" ry="32"/><ellipse cx="90" cy="2" fill="#fffff4" rx="52" ry="52"/><ellipse cx="282" cy="846" fill="#71b971" rx="20" ry="20"/><ellipse cx="62" cy="86" fill="#23251e" rx="28" ry="28"/><ellipse cx="442" cy="6" fill="#fffff2" rx="60" ry="60"/><ellipse cx="354" cy="678" fill="#4c888b" rx="40" ry="40"/><ellipse cx="438" cy="910" fill="#687e7a" rx="12" ry="12"/><ellipse cx="450" cy="730" fill="#fff" rx="16" ry="16"/><ellipse cx="406" cy="734" fill="#273930" rx="16" ry="16"/><ellipse cx="302" cy="742" fill="#825834" rx="20" ry="20"/><ellipse cx="350" cy="886" fill="#d5d8c3" rx="32" ry="32"/><ellipse cx="366" cy="730" fill="#ddd8ca" rx="28" ry="28"/><ellipse cx="598" cy="510" fill="#fffbee" rx="68" ry="68"/><ellipse cx="410" cy="686" fill="#faefd6" rx="16" ry="16"/><ellipse cx="506" cy="162" fill="#abab88" rx="24" ry="24"/><ellipse cx="606" cy="370" fill="#34372e" rx="56" ry="56"/><ellipse cx="86" cy="706" fill="#76d77a" rx="16" ry="16"/><ellipse cx="190" cy="354" fill="#203338" rx="44" ry="44"/><ellipse cx="218" cy="798" fill="#5b4430" rx="40" ry="40"/><ellipse cx="458" cy="610" fill="#31818f" rx="32" ry="32"/><ellipse cx="502" cy="458" fill="#ccd7ce" rx="16" ry="16"/><ellipse cx="514" cy="94" fill="#393931" rx="24" ry="24"/><ellipse cx="138" cy="614" fill="#160817" rx="12" ry="12"/><ellipse cx="578" cy="930" fill="#fefbed" rx="132" ry="132"/><ellipse cx="2" cy="826" fill="#fcfaeb" rx="72" ry="72"/><ellipse cx="174" cy="554" fill="#001028" rx="12" ry="12"/><ellipse cx="634" cy="702" fill="#623c14" rx="16" ry="16"/><ellipse cx="378" cy="818" fill="#524230" rx="28" ry="28"/><ellipse cx="462" cy="834" fill="#b6995e" rx="24" ry="24"/><ellipse cx="234" cy="694" fill="#b0c6cf" rx="20" ry="20"/><ellipse cx="310" cy="514" fill="#fcc570" rx="12" ry="12"/><ellipse cx="130" cy="278" fill="#fffff5" rx="20" ry="20"/><ellipse cx="310" cy="998" fill="#fffcee" rx="104" ry="104"/><ellipse cx="206" cy="898" fill="#432b24" rx="20" ry="20"/><ellipse cx="458" cy="782" fill="#fffff5" rx="12" ry="12"/><ellipse cx="490" cy="174" fill="#00000b" rx="8" ry="8"/><ellipse cx="202" cy="454" fill="#fff" rx="20" ry="20"/><ellipse cx="466" cy="754" fill="#3b514a" rx="16" ry="16"/><ellipse cx="670" cy="158" fill="#5c563e" rx="24" ry="24"/><ellipse cx="98" cy="494" fill="#fffffd" rx="24" ry="24"/><ellipse cx="186" cy="850" fill="#6fde7a" rx="20" ry="20"/><ellipse cx="574" cy="706" fill="#f2e7bc" rx="16" ry="16"/><ellipse cx="414" cy="126" fill="#a58f61" rx="64" ry="64"/><ellipse cx="534" cy="650" fill="#e3eae7" rx="16" ry="16"/><ellipse cx="434" cy="802" fill="#43443a" rx="24" ry="24"/><ellipse cx="322" cy="610" fill="#00a3ad" rx="28" ry="28"/><ellipse cx="402" cy="782" fill="#e9efe4" rx="12" ry="12"/><ellipse cx="726" cy="210" fill="#fffff3" rx="52" ry="52"/><ellipse cx="382" cy="778" fill="#472914" rx="12" ry="12"/><ellipse cx="538" cy="778" fill="#61441e" rx="16" ry="16"/><ellipse cx="122" cy="738" fill="#80f888" rx="12" ry="12"/><ellipse cx="170" cy="650" fill="#895f01" rx="12" ry="12"/><ellipse cx="118" cy="674" fill="#463b2b" rx="20" ry="20"/><ellipse cx="426" cy="102" fill="#dfce9c" rx="24" ry="24"/><ellipse cx="130" cy="538" fill="#091b2d" rx="12" ry="12"/><ellipse cx="286" cy="462" fill="#281c22" rx="20" ry="20"/><ellipse cx="594" cy="246" fill="#ffc" rx="8" ry="8"/><ellipse cx="510" cy="790" fill="#ecede5" rx="12" ry="12"/><ellipse cx="166" cy="454" fill="#fbfff3" rx="28" ry="28"/><ellipse cx="394" cy="662" fill="#826949" rx="20" ry="20"/><ellipse cx="154" cy="158" fill="#2e3631" rx="64" ry="64"/><ellipse cx="270" cy="534" fill="#449b97" rx="36" ry="36"/><ellipse cx="274" cy="122" fill="#22302c" rx="16" ry="16"/><ellipse cx="202" cy="494" fill="#4a3320" rx="16" ry="16"/><ellipse cx="370" cy="478" fill="#14b1be" rx="12" ry="12"/><ellipse cx="278" cy="742" fill="#fff" rx="8" ry="8"/><ellipse cx="334" cy="578" fill="#1b5fa0" rx="24" ry="24"/><ellipse cx="46" cy="350" fill="#fefbed" rx="100" ry="100"/><ellipse cx="490" cy="210" fill="#000004" rx="8" ry="8"/><ellipse cx="430" cy="206" fill="#283638" rx="16" ry="16"/><ellipse cx="318" cy="834" fill="#554231" rx="32" ry="32"/><ellipse cx="298" cy="158" fill="#292a27" rx="28" ry="28"/><ellipse cx="498" cy="254" fill="#ffb757" rx="12" ry="12"/><ellipse cx="170" cy="362" fill="#1b90a2" rx="16" ry="16"/><ellipse cx="546" cy="390" fill="#32352c" rx="60" ry="60"/><ellipse cx="150" cy="666" fill="#fffffd" rx="16" ry="16"/><ellipse cx="134" cy="566" fill="#131c23" rx="12" ry="12"/><ellipse cx="470" cy="658" fill="#fff" rx="12" ry="12"/><ellipse cx="238" cy="910" fill="#bd4d0d" rx="12" ry="12"/><ellipse cx="474" cy="482" fill="#00a5ac" rx="24" ry="24"/><ellipse cx="170" cy="890" fill="#4c2c28" rx="24" ry="24"/><ellipse cx="2" cy="674" fill="#fffff8" rx="32" ry="32"/><ellipse cx="374" cy="190" fill="#fff" rx="8" ry="8"/><ellipse cx="378" cy="606" fill="#ffe1c3" rx="12" ry="12"/><ellipse cx="2" cy="42" fill="#fffff0" rx="48" ry="48"/><ellipse cx="86" cy="602" fill="#96974d" rx="48" ry="48"/><ellipse cx="410" cy="558" fill="#01b5b2" rx="24" ry="24"/><ellipse cx="134" cy="770" fill="#7efc86" rx="12" ry="12"/><ellipse cx="242" cy="794" fill="#70db7d" rx="12" ry="12"/><ellipse cx="318" cy="190" fill="#303a33" rx="36" ry="36"/><ellipse cx="722" cy="554" fill="#fcf9ed" rx="116" ry="116"/><ellipse cx="498" cy="398" fill="#30342d" rx="52" ry="52"/><ellipse cx="634" cy="190" fill="#696446" rx="36" ry="36"/><ellipse cx="246" cy="122" fill="#04a8b1" rx="20" ry="20"/></g></svg>