<svg xmlns="http://www.w3.org/2000/svg" version="1.1" width="1024" height="680">
<rect x="0" y="0" width="1024" height="680" fill="#80682c" />
<g transform="scale(4.000000) translate(0.5 0.5)">
<polygon fill="#ffff59" fill-opacity="0.501961" points="192.997716,13.928329,271.000000,-0.723994,-16.000000,0.060823,178.348697,68.740361" />
<polygon fill="#13171e" fill-opacity="0.501961" points="259.534215,185.000000,-14.764150,185.000000,7.547493,107.704890,258.865213,107.425892" />
<polygon fill="#ffdf5e" fill-opacity="0.501961" points="-16.000000,33.899441,271.000000,15.814120,251.081296,-16.000000,5.306766,-16.000000" />
<polygon fill="#835300" fill-opacity="0.501961" points="136.071181,18.922284,166.774155,133.294585,83.242913,142.009017,21.558780,83.490584" />
<polygon fill="#19273b" fill-opacity="0.501961" points="212.049420,118.533858,207.948700,10.419653,191.502129,9.998904,187.546664,60.514375" />
<polygon fill="#ffab20" fill-opacity="0.501961" points="168.392017,102.991705,189.459989,16.479457,139.503854,12.243154,140.747637,78.422780" />
<polygon fill="#e9bd58" fill-opacity="0.501961" points="271.000000,-1.499228,212.793357,-16.000000,209.516045,60.884727,233.497766,63.175619" />
<polygon fill="#273232" fill-opacity="0.501961" points="28.290026,56.198702,-1.002067,174.039574,73.500728,185.000000,47.227287,52.856819" />
<polygon fill="#d19834" fill-opacity="0.501961" points="64.556739,81.066648,48.097262,14.616142,130.277706,35.652337,2.254061,25.977915" />
<polygon fill="#24292d" fill-opacity="0.501961" points="151.838469,185.000000,271.000000,174.891047,213.471322,74.946088,271.000000,90.942960" />
<polygon fill="#ffe160" fill-opacity="0.501961" points="122.356286,22.473962,238.727731,0.579274,50.000760,-12.651867,113.164163,59.556691" />
<polygon fill="#553b00" fill-opacity="0.501961" points="90.715004,29.109427,59.758172,27.725523,61.008280,106.117014,90.402963,40.744942" />
<polygon fill="#948778" fill-opacity="0.501961" points="184.481884,158.303177,190.120441,88.440833,163.705252,103.765913,204.262718,113.807192" />
<polygon fill="#663d00" fill-opacity="0.501961" points="126.504600,87.334735,118.517995,21.084278,135.260738,22.208655,140.246959,41.101755" />
<polygon fill="#a68c5b" fill-opacity="0.501961" points="16.043520,55.842460,-16.000000,65.950554,27.092440,103.920447,48.176036,156.839817" />
<polygon fill="#f5aa1e" fill-opacity="0.501961" points="126.319300,16.959930,-7.016295,8.682597,90.962989,28.578655,93.208904,72.685413" />
<polygon fill="#ffe982" fill-opacity="0.501961" points="185.664309,47.144952,195.713667,-16.000000,-11.449727,2.277211,172.087406,9.420747" />
<polygon fill="#182128" fill-opacity="0.501961" points="203.985244,44.166922,191.653838,12.857425,213.797249,11.639939,200.190001,66.455940" />
<polygon fill="#586565" fill-opacity="0.501961" points="243.630513,158.307107,233.095547,131.561350,212.547210,155.040511,211.525105,185.000000" />
<polygon fill="#887553" fill-opacity="0.501961" points="133.007349,92.556030,88.798327,185.000000,119.731748,141.936615,124.030834,160.617717" />
<polygon fill="#825800" fill-opacity="0.501961" points="160.380274,128.293593,64.942271,90.616223,85.740089,39.243937,181.613739,114.800388" />
<polygon fill="#1c251f" fill-opacity="0.501961" points="271.000000,168.991354,181.415241,155.553935,-16.000000,162.531432,25.558122,185.000000" />
<polygon fill="#5e5241" fill-opacity="0.501961" points="181.628026,79.092596,180.749267,45.895802,234.771838,98.790945,220.661848,125.003890" />
<polygon fill="#6783a6" fill-opacity="0.501961" points="182.041956,160.811569,192.688175,138.400408,151.691651,132.164022,184.724356,141.890696" />
<polygon fill="#cb9f38" fill-opacity="0.501961" points="49.561438,7.634602,10.616293,53.979522,47.959088,51.530630,63.379749,89.502152" />
<polygon fill="#69614e" fill-opacity="0.501961" points="9.320639,65.089544,52.570624,68.054326,74.470320,178.940050,45.052661,49.234627" />
<polygon fill="#4b3200" fill-opacity="0.501961" points="142.261934,75.130140,164.557201,154.233708,142.227003,139.079486,135.643598,95.857820" />
<polygon fill="#be8618" fill-opacity="0.501961" points="152.414359,45.386715,178.658952,36.550121,180.820167,66.113380,161.314751,116.039948" />
<polygon fill="#997a28" fill-opacity="0.501961" points="-8.120200,25.416857,21.425453,122.433964,10.410452,93.075837,31.956701,18.229497" />
<polygon fill="#000f18" fill-opacity="0.501961" points="271.000000,172.018977,240.449273,185.000000,242.559969,149.672569,230.239212,117.391271" />
<polygon fill="#1d3a51" fill-opacity="0.501961" points="41.139653,185.000000,27.820073,146.274581,-7.733664,120.999532,-10.931560,154.503945" />
<polygon fill="#392f0a" fill-opacity="0.501961" points="22.488945,120.618911,76.809216,173.885278,108.840581,128.030920,3.324760,142.212125" />
<polygon fill="#715a31" fill-opacity="0.501961" points="92.951436,96.416023,50.036410,119.387265,164.943291,151.569849,126.963734,151.970397" />
<polygon fill="#977a32" fill-opacity="0.501961" points="271.000000,56.713259,234.495089,77.705277,228.047009,31.191158,255.242378,24.215001" />
<polygon fill="#ffc638" fill-opacity="0.501961" points="201.938374,3.871266,74.373737,13.166516,141.214322,23.381373,139.090619,62.360441" />
<polygon fill="#e7bf63" fill-opacity="0.501961" points="220.514138,34.947944,208.899498,40.121430,216.843451,-16.000000,228.204123,25.564924" />
<polygon fill="#fff590" fill-opacity="0.501961" points="124.812119,5.073665,269.503399,0.115170,52.261692,-2.142700,138.836121,15.631509" />
<polygon fill="#a99885" fill-opacity="0.501961" points="15.221391,82.463712,6.247739,90.532752,29.539907,98.625258,24.212035,83.245732" />
<polygon fill="#463a13" fill-opacity="0.501961" points="68.875374,157.410055,42.986998,134.181245,21.213605,72.130285,48.679244,65.639323" />
<polygon fill="#a37400" fill-opacity="0.501961" points="120.995095,55.512431,94.417550,40.590463,74.710310,63.010457,74.396650,96.193367" />
<polygon fill="#493418" fill-opacity="0.501961" points="263.330226,96.911527,185.854782,185.000000,209.822004,71.004876,216.909278,106.651516" />
<polygon fill="#746446" fill-opacity="0.501961" points="216.394326,60.517125,271.000000,80.339555,184.905491,70.416717,189.362075,158.834408" />
<polygon fill="#655e5c" fill-opacity="0.501961" points="248.643275,152.577971,247.899275,152.871989,264.398271,106.416873,247.879235,110.581419" />
<polygon fill="#ffca45" fill-opacity="0.501961" points="-16.000000,3.229308,106.147751,21.085706,14.194072,-16.000000,10.884391,21.911790" />
<polygon fill="#a19599" fill-opacity="0.501961" points="177.105070,96.548602,186.273212,105.747698,196.577394,109.852755,165.161589,105.030899" />
<polygon fill="#625643" fill-opacity="0.501961" points="29.962885,98.993325,12.712196,91.420792,-13.800616,114.022894,5.066792,147.292863" />
<polygon fill="#2c1e00" fill-opacity="0.501961" points="179.647264,138.944060,181.285725,151.921123,201.033465,185.000000,143.037933,177.143798" />
<polygon fill="#d2a55f" fill-opacity="0.501961" points="53.253332,83.700835,48.678447,57.704492,51.239836,24.910905,59.104246,61.377513" />
<polygon fill="#5d4301" fill-opacity="0.501961" points="64.282975,58.287890,92.940127,30.974332,68.011814,31.623018,50.865950,31.482369" />
<polygon fill="#a57c33" fill-opacity="0.501961" points="158.445903,94.422969,138.140137,79.415244,202.282117,86.740105,188.149605,96.100478" />
<polygon fill="#ffbe41" fill-opacity="0.501961" points="119.803956,44.224441,119.769543,18.496292,98.880111,22.194316,116.165497,57.345042" />
<polygon fill="#606163" fill-opacity="0.501961" points="97.951222,149.046482,113.774316,151.043722,88.885485,185.000000,108.933536,136.120410" />
<polygon fill="#9a6d2c" fill-opacity="0.501961" points="119.681143,112.601381,130.011175,92.034236,139.324281,108.751182,119.476188,139.285135" />
<polygon fill="#6c4d0f" fill-opacity="0.501961" points="67.054214,152.350915,58.425839,76.620371,123.731050,123.199697,100.695125,66.634575" />
<polygon fill="#513c20" fill-opacity="0.501961" points="245.653228,76.781017,209.472318,80.356513,250.541667,111.618377,271.000000,81.190453" />
<polygon fill="#565346" fill-opacity="0.501961" points="23.301021,55.632898,51.311673,48.634446,36.449287,69.423696,20.733510,72.527691" />
<polygon fill="#df9e15" fill-opacity="0.501961" points="167.178319,30.775574,151.697446,18.837622,146.567540,79.561243,180.046375,46.067164" />
<polygon fill="#81838f" fill-opacity="0.501961" points="161.835657,137.238744,176.094217,136.203931,169.593599,132.613495,161.540818,131.993111" />
<polygon fill="#6a6e63" fill-opacity="0.501961" points="236.209175,159.321525,220.546561,155.881486,208.460762,182.791025,213.497060,150.204379" />
<polygon fill="#605d4f" fill-opacity="0.501961" points="235.457557,133.209791,241.464347,163.627492,230.983369,140.329413,179.950572,125.832769" />
<polygon fill="#76695f" fill-opacity="0.501961" points="226.894703,86.586110,218.428440,116.576591,215.205324,123.814972,215.538238,107.573393" />
<polygon fill="#000001" fill-opacity="0.501961" points="-16.000000,182.563432,12.965336,157.090652,12.999491,164.079952,-3.922392,183.881271" />
<polygon fill="#8e6e3c" fill-opacity="0.501961" points="108.683998,120.523572,101.916544,123.574646,96.266671,102.171406,73.929702,106.433840" />
<polygon fill="#3a3b31" fill-opacity="0.501961" points="201.629528,66.806121,191.078500,12.197209,206.549690,8.402621,211.771463,18.555187" />
<polygon fill="#face70" fill-opacity="0.501961" points="254.243594,-17.107900,164.631715,16.325559,242.472270,1.731771,257.825867,16.345972" />
<polygon fill="#35311e" fill-opacity="0.501961" points="31.967183,102.326233,18.804466,63.769386,21.604915,51.564859,37.881524,108.517612" />
<polygon fill="#c1964a" fill-opacity="0.501961" points="158.892978,60.127935,157.470095,93.463559,147.652299,86.347049,182.795437,66.162148" />
<polygon fill="#25251a" fill-opacity="0.501961" points="231.453286,155.537168,192.771081,141.951750,204.082646,168.716586,223.916574,131.591475" />
<polygon fill="#513a03" fill-opacity="0.501961" points="167.558134,128.959664,165.077909,106.157497,189.251227,109.384219,184.009258,132.976901" />
<polygon fill="#7f7357" fill-opacity="0.501961" points="136.543198,144.941275,166.953710,150.700687,155.554837,150.730182,149.691906,154.504853" />
<polygon fill="#95887b" fill-opacity="0.501961" points="236.676134,80.007364,237.392722,70.958492,260.894181,75.639798,232.918285,77.185491" />
<polygon fill="#dbab31" fill-opacity="0.501961" points="-5.592842,18.268341,21.712296,5.516518,57.088755,12.546472,53.139735,23.934670" />
<polygon fill="#615130" fill-opacity="0.501961" points="167.233765,94.750843,162.217971,114.241149,170.476185,97.915611,172.951534,90.848979" />
<polygon fill="#668fbd" fill-opacity="0.501961" points="188.246555,152.108641,183.814064,137.651406,184.195043,149.217772,181.548416,155.920034" />
<polygon fill="#161309" fill-opacity="0.501961" points="36.423410,157.697063,101.598639,185.000000,72.962866,167.497806,21.955020,149.286654" />
<polygon fill="#37484f" fill-opacity="0.501961" points="4.812873,142.507202,103.889058,178.858528,16.269587,141.968633,20.884691,185.000000" />
<polygon fill="#f5b54e" fill-opacity="0.501961" points="188.564042,22.144504,186.795586,48.143683,165.183779,27.803589,174.558835,17.419711" />
<polygon fill="#4c3607" fill-opacity="0.501961" points="173.004796,150.843912,140.557767,105.309977,132.624123,152.316807,122.608137,137.314374" />
<polygon fill="#1e2319" fill-opacity="0.501961" points="36.953550,151.697660,15.837889,137.401292,14.977328,126.148230,37.851660,127.354403" />
<polygon fill="#bf8c28" fill-opacity="0.501961" points="109.266400,58.176898,109.981199,63.605849,106.972852,35.433357,86.785694,38.334441" />
<polygon fill="#8a764d" fill-opacity="0.501961" points="49.119780,59.281809,54.639041,93.055606,61.745974,67.179374,14.062819,68.034056" />
<polygon fill="#9e7f21" fill-opacity="0.501961" points="20.536454,55.493528,23.391657,26.032507,-16.000000,31.210108,46.690953,36.895142" />
<polygon fill="#795312" fill-opacity="0.501961" points="139.977766,30.530999,138.316803,94.577385,101.621158,115.031430,125.490933,33.248544" />
<polygon fill="#110b00" fill-opacity="0.501961" points="206.322109,179.681759,204.601787,156.440692,212.777333,145.017805,207.375573,185.000000" />
<polygon fill="#524321" fill-opacity="0.501961" points="10.589377,129.073355,-3.933338,104.563992,31.541536,108.458112,33.045593,115.984143" />
<polygon fill="#6b5629" fill-opacity="0.501961" points="185.542963,133.409238,187.303001,96.637436,195.510504,145.826517,183.183078,137.052351" />
<polygon fill="#ffe366" fill-opacity="0.501961" points="24.597272,-0.413070,137.512711,16.247281,13.061059,-16.000000,-16.000000,20.531190" />
<polygon fill="#0052a2" fill-opacity="0.501961" points="252.173559,167.738465,271.000000,168.484385,271.000000,180.411612,252.745230,160.647835" />
<polygon fill="#a27e42" fill-opacity="0.501961" points="214.564821,52.506533,252.561911,72.820928,248.319322,54.118482,207.803400,68.501116" />
<polygon fill="#ffc420" fill-opacity="0.501961" points="141.591119,30.584588,131.694407,17.783809,153.254355,13.392501,172.379549,30.931613" />
<polygon fill="#b0872b" fill-opacity="0.501961" points="21.094030,80.648064,18.252985,60.723317,31.919667,12.684590,5.046987,86.241003" />
<polygon fill="#2f2510" fill-opacity="0.501961" points="266.364602,119.794480,249.615497,121.925451,244.479613,135.832047,202.992725,126.050860" />
<polygon fill="#363c23" fill-opacity="0.501961" points="166.962280,157.628879,127.830688,146.637828,122.365746,160.739391,89.741609,177.280864" />
<polygon fill="#7b675b" fill-opacity="0.501961" points="213.182916,103.138428,240.046800,104.096792,212.936379,90.377874,228.542519,90.433503" />
<polygon fill="#594c38" fill-opacity="0.501961" points="74.942259,179.271705,118.559679,137.989375,108.669802,123.330439,98.781485,146.936966" />
<polygon fill="#382d13" fill-opacity="0.501961" points="240.310088,90.887565,271.000000,96.167406,222.850063,98.542138,217.729616,96.820537" />
<polygon fill="#8d7655" fill-opacity="0.501961" points="7.252234,73.085294,-2.159623,95.102484,33.778668,106.874935,-9.691987,76.987343" />
<polygon fill="#524222" fill-opacity="0.501961" points="210.456263,100.430748,197.449137,142.832337,205.992761,79.929674,237.874935,69.489370" />
<polygon fill="#5e5c40" fill-opacity="0.501961" points="200.508732,53.675828,207.246492,85.131380,187.779071,84.679809,189.958904,15.254039" />
<polygon fill="#82661f" fill-opacity="0.501961" points="250.362049,46.109208,218.949886,41.821099,247.871840,55.397389,263.711152,89.758824" />
<polygon fill="#ae9e98" fill-opacity="0.501961" points="221.496871,90.831019,225.169911,91.389689,224.396743,93.971737,214.379811,92.106510" />
<polygon fill="#616360" fill-opacity="0.501961" points="239.710433,136.917799,233.583446,150.646471,221.732852,129.285780,262.490841,146.561091" />
<polygon fill="#c3a13d" fill-opacity="0.501961" points="213.112098,52.390497,256.727869,13.138308,227.252653,10.409814,217.528445,29.042496" />
<polygon fill="#d7a54f" fill-opacity="0.501961" points="46.368205,50.191747,55.273507,70.859852,59.396939,66.341452,52.435093,29.973173" />
<polygon fill="#875a00" fill-opacity="0.501961" points="161.230017,93.004823,160.485154,151.696715,164.605550,165.594611,147.868633,97.025235" />
<polygon fill="#fdfda3" fill-opacity="0.501961" points="170.439036,1.135857,108.650604,3.329517,69.286425,0.595141,120.258826,-16.000000" />
<polygon fill="#121706" fill-opacity="0.501961" points="-16.000000,125.251943,6.445241,148.593210,12.784793,151.503768,-14.393898,150.083949" />
<polygon fill="#ffd94a" fill-opacity="0.501961" points="108.718500,8.647476,70.918434,24.230508,111.158715,24.404570,190.750829,2.351916" />
<polygon fill="#efb150" fill-opacity="0.501961" points="152.569019,66.242372,146.060211,42.082702,141.639483,47.238369,142.167404,59.117873" />
<polygon fill="#6f4013" fill-opacity="0.501961" points="271.000000,148.301890,233.626203,105.062136,246.952955,102.880689,261.049863,185.000000" />
<polygon fill="#151712" fill-opacity="0.501961" points="44.873554,164.487247,11.282004,157.256105,26.250665,164.671956,25.565759,165.327355" />
<polygon fill="#2f260b" fill-opacity="0.501961" points="248.665293,109.891162,250.229055,109.109573,269.674454,185.000000,263.100626,130.784102" />
<polygon fill="#413508" fill-opacity="0.501961" points="53.704676,158.469018,88.869400,124.524590,102.692570,132.366494,89.125706,163.368672" />
<polygon fill="#654d2a" fill-opacity="0.501961" points="86.032048,119.416840,64.634337,110.170473,56.437999,83.680100,67.546428,150.503687" />
<polygon fill="#705c3e" fill-opacity="0.501961" points="231.451078,69.068447,235.270147,97.329855,252.444981,76.767100,205.740237,79.561283" />
<polygon fill="#654c0c" fill-opacity="0.501961" points="62.666017,77.858065,82.157043,58.100120,86.489529,30.777830,54.477346,34.592679" />
<polygon fill="#4a4436" fill-opacity="0.501961" points="40.007311,52.001990,44.264270,50.937688,50.271511,60.574453,25.573365,54.134464" />
<polygon fill="#c28800" fill-opacity="0.501961" points="93.538548,62.388075,111.132535,33.879596,113.009009,36.028129,91.159537,46.186393" />
<polygon fill="#846d41" fill-opacity="0.501961" points="207.232546,76.995435,204.291853,79.393819,192.952857,134.128228,188.017232,109.181532" />
<polygon fill="#795506" fill-opacity="0.501961" points="118.304861,22.470633,138.295208,30.000121,137.536993,21.434103,133.417638,88.101837" />
<polygon fill="#5a461a" fill-opacity="0.501961" points="153.531960,157.315031,177.817417,163.020099,177.610215,163.405950,158.882891,139.933534" />
<polygon fill="#847b71" fill-opacity="0.501961" points="246.748322,113.410197,254.077454,115.066259,271.000000,123.124235,271.000000,100.128725" />
<polygon fill="#5c5e4c" fill-opacity="0.501961" points="104.633193,182.051280,116.818053,167.982607,129.287396,144.457502,126.373093,145.503450" />
<polygon fill="#060a05" fill-opacity="0.501961" points="258.489374,185.000000,248.037547,153.036345,263.278930,144.815361,239.421795,164.605486" />
<polygon fill="#745822" fill-opacity="0.501961" points="229.050734,68.088242,220.298563,59.857926,271.000000,76.408464,253.480442,73.672206" />
<polygon fill="#1d4b6a" fill-opacity="0.501961" points="3.454322,176.388371,12.093570,165.513064,15.038418,160.405365,24.384644,165.867896" />
<polygon fill="#694800" fill-opacity="0.501961" points="79.567606,98.234710,97.540134,100.851473,68.433242,109.483926,65.470193,90.859141" />
<polygon fill="#1e231f" fill-opacity="0.501961" points="13.531762,138.654872,8.387027,141.548262,-16.000000,101.655010,-16.000000,114.368320" />
<polygon fill="#836622" fill-opacity="0.501961" points="-8.610868,54.146708,11.095306,72.782273,-16.000000,99.917019,10.401676,86.840468" />
<polygon fill="#5f6357" fill-opacity="0.501961" points="198.987521,83.320642,203.121371,57.415958,206.303966,89.063733,196.776410,128.845672" />
<polygon fill="#be8607" fill-opacity="0.501961" points="171.005167,79.546777,164.144838,51.826471,153.160816,79.956707,156.335613,44.809943" />
<polygon fill="#595e60" fill-opacity="0.501961" points="97.041908,181.748970,115.753967,143.149833,105.061090,151.186899,96.174428,167.630198" />
<polygon fill="#2a2e27" fill-opacity="0.501961" points="208.039744,36.083212,196.402220,32.897264,201.014309,13.765980,211.912047,11.645710" />
<polygon fill="#22394a" fill-opacity="0.501961" points="249.330903,157.489739,242.996544,138.352545,253.944567,127.271040,249.101291,144.818775" />
<polygon fill="#433310" fill-opacity="0.501961" points="198.720650,119.705843,205.529259,152.543683,210.945418,130.143349,209.319972,103.539392" />
<polygon fill="#7c6f65" fill-opacity="0.501961" points="249.981874,126.221894,271.000000,139.571861,271.000000,178.202033,248.981203,110.674408" />
<polygon fill="#434941" fill-opacity="0.501961" points="254.976839,185.000000,206.307630,127.600825,223.620004,157.801195,206.304595,185.000000" />
<polygon fill="#a99577" fill-opacity="0.501961" points="-7.470319,86.392636,-16.000000,47.593267,-0.402710,75.051221,12.238101,76.559139" />
<polygon fill="#9b8156" fill-opacity="0.501961" points="247.072765,66.988011,249.743153,70.342894,256.627369,61.010003,212.353189,73.445857" />
<polygon fill="#af914d" fill-opacity="0.501961" points="13.827501,39.843751,19.589012,63.869307,-0.453250,60.437183,25.841872,52.957230" />
<polygon fill="#837044" fill-opacity="0.501961" points="59.432366,94.672736,66.521255,146.918950,44.606063,35.887469,56.662925,101.124612" />
<polygon fill="#b99356" fill-opacity="0.501961" points="153.633415,98.603551,149.168356,80.039852,146.868284,83.119302,159.457263,88.179821" />
<polygon fill="#a77915" fill-opacity="0.501961" points="171.167943,93.520254,130.703746,72.117841,157.040664,82.856667,177.465029,75.911695" />
<polygon fill="#5a6778" fill-opacity="0.501961" points="6.580238,129.916292,5.805374,130.964281,13.798876,134.122349,12.389139,126.964105" />
<polygon fill="#c59930" fill-opacity="0.501961" points="53.313350,16.441766,53.702662,49.364960,22.743355,54.260448,42.583040,30.026710" />
<polygon fill="#342500" fill-opacity="0.501961" points="147.920665,129.653090,136.634969,138.696731,160.668795,139.794657,147.616782,127.587124" />
<polygon fill="#1e1703" fill-opacity="0.501961" points="193.252911,160.995643,150.939903,185.000000,158.308662,148.225787,160.686606,171.994426" />
<polygon fill="#56471d" fill-opacity="0.501961" points="43.752688,104.639266,47.354273,68.452923,57.640087,109.589135,65.676871,151.552061" />
<polygon fill="#af8225" fill-opacity="0.501961" points="133.651012,28.834401,125.567982,23.786963,122.661619,21.115327,132.778970,20.062200" />
<polygon fill="#2d280d" fill-opacity="0.501961" points="26.380593,80.144703,37.049675,83.453867,33.395261,69.225599,21.518985,72.189733" />
<polygon fill="#cc993f" fill-opacity="0.501961" points="167.346317,70.036155,179.198044,74.506600,180.908967,54.903799,187.128926,34.030059" />
<polygon fill="#454743" fill-opacity="0.501961" points="187.611876,150.857452,189.593208,137.644968,209.847939,173.131378,203.228575,159.691984" />
<polygon fill="#b57a00" fill-opacity="0.501961" points="163.961127,118.893920,161.452267,110.931614,156.328531,109.749319,163.048481,80.698484" />
<polygon fill="#956914" fill-opacity="0.501961" points="85.885145,48.577743,131.090629,45.999431,133.402607,69.589174,116.487866,45.351581" />
<polygon fill="#dfbb5a" fill-opacity="0.501961" points="232.881340,7.081474,208.172956,39.905779,219.855875,-16.000000,256.484089,13.860997" />
<polygon fill="#5b4e25" fill-opacity="0.501961" points="197.659792,39.579462,191.489628,11.835831,189.651663,34.541450,181.232228,66.167173" />
<polygon fill="#77746b" fill-opacity="0.501961" points="22.845021,76.022166,25.420677,99.636830,22.465706,98.363531,33.971226,111.088961" />
<polygon fill="#ffd97a" fill-opacity="0.501961" points="184.527694,10.332396,271.000000,-9.062134,262.011605,7.393866,172.871606,-16.000000" />
<polygon fill="#3f3e2f" fill-opacity="0.501961" points="55.403588,159.157813,27.296890,135.287034,29.567020,103.448119,40.959234,138.114977" />
<polygon fill="#555a5b" fill-opacity="0.501961" points="39.832792,153.187882,71.879409,165.293728,71.832082,166.137641,62.950991,164.419858" />
<polygon fill="#916503" fill-opacity="0.501961" points="104.892457,53.151747,74.440969,105.335296,116.345506,53.547246,111.913935,101.725763" />
<polygon fill="#373f3f" fill-opacity="0.501961" points="208.370990,68.032422,202.528447,65.038629,204.630555,40.057455,210.559014,53.736224" />
<polygon fill="#817457" fill-opacity="0.501961" points="146.693562,151.331555,137.400690,149.321120,135.614974,144.624830,165.112444,153.647999" />
<polygon fill="#cea46e" fill-opacity="0.501961" points="98.436582,41.935136,102.033090,37.977447,95.337475,38.047146,90.300819,42.029752" />
<polygon fill="#685833" fill-opacity="0.501961" points="132.568077,123.656975,122.784547,151.325276,101.045414,130.870820,144.014395,133.482368" />
<polygon fill="#71540c" fill-opacity="0.501961" points="88.411697,28.436772,90.831220,44.466501,58.734312,102.440169,56.125510,84.812736" />
<polygon fill="#485e6b" fill-opacity="0.501961" points="7.174040,147.114145,19.512071,140.268446,10.968094,148.937595,-16.000000,100.993022" />
<polygon fill="#502e0f" fill-opacity="0.501961" points="244.535599,101.708835,230.382488,102.972971,225.053125,114.214317,248.266865,127.715666" />
<polygon fill="#af924d" fill-opacity="0.501961" points="7.856051,48.770967,5.217973,42.315744,-16.000000,77.917814,-16.000000,25.235569" />
<polygon fill="#ffd24f" fill-opacity="0.501961" points="101.227148,4.014479,16.988062,4.939088,71.866394,12.016785,74.175316,24.497136" />
<polygon fill="#665d47" fill-opacity="0.501961" points="210.209621,135.830928,223.920876,126.275080,220.436531,133.557530,218.479877,141.107835" />
<polygon fill="#937826" fill-opacity="0.501961" points="39.870666,32.691083,24.978713,45.732306,10.189324,36.240467,30.963459,33.460468" />
<polygon fill="#f8bc4f" fill-opacity="0.501961" points="120.372519,37.263084,118.150555,45.086993,101.833017,47.019536,112.029335,39.658284" />
<polygon fill="#656b63" fill-opacity="0.501961" points="226.789155,156.204572,212.063430,160.967735,224.836359,182.542699,211.559734,149.387183" />
<polygon fill="#372b06" fill-opacity="0.501961" points="134.670607,142.965015,124.842397,158.516094,130.346273,140.311246,157.920660,147.667705" />
<polygon fill="#876d3f" fill-opacity="0.501961" points="89.565376,101.087903,79.902804,113.569203,84.140357,115.368442,99.345742,110.337911" />
<polygon fill="#be964a" fill-opacity="0.501961" points="230.757636,44.908202,241.442638,62.373068,243.577452,53.992955,207.767229,51.009236" />
<polygon fill="#988a84" fill-opacity="0.501961" points="173.668732,94.113646,167.297020,105.539118,192.157223,103.618975,167.217369,94.184654" />
<polygon fill="#41351f" fill-opacity="0.501961" points="263.565378,101.310473,218.326847,94.788594,217.582667,101.175394,236.410897,89.825908" />
<polygon fill="#2d2b1f" fill-opacity="0.501961" points="227.234668,130.990964,192.518167,162.396483,223.828177,145.028238,228.480191,165.493207" />
<polygon fill="#6a685f" fill-opacity="0.501961" points="32.420229,63.390392,36.742589,53.973774,22.118875,55.719709,50.464931,62.821484" />
<polygon fill="#a79985" fill-opacity="0.501961" points="27.359416,96.181439,15.304834,92.684738,19.646504,85.855033,23.206046,82.531243" />
<polygon fill="#7f6d5c" fill-opacity="0.501961" points="215.325717,118.825872,227.118438,95.691517,227.796141,106.004273,217.571786,99.311858" />
<polygon fill="#be9034" fill-opacity="0.501961" points="151.574770,89.004827,155.491902,76.963494,139.083160,73.389795,140.306749,48.171485" />
<polygon fill="#81681b" fill-opacity="0.501961" points="-5.689849,36.915523,23.841903,54.825796,-4.129757,59.520646,15.798949,35.771454" />
<polygon fill="#27200b" fill-opacity="0.501961" points="197.768771,156.275070,232.576903,185.000000,190.325950,154.747887,146.169877,185.000000" />
<polygon fill="#646b6b" fill-opacity="0.501961" points="236.607404,148.996326,228.638550,150.468150,228.148955,138.074154,236.231329,137.259318" />
<polygon fill="#6d604d" fill-opacity="0.501961" points="169.067077,93.167245,195.946689,97.804789,175.504324,96.369393,163.838462,105.519347" />
<polygon fill="#9d7e4f" fill-opacity="0.501961" points="74.291167,30.122262,66.842886,26.556994,67.969311,32.466822,85.700113,27.792483" />
<polygon fill="#bd9530" fill-opacity="0.501961" points="37.820968,16.587812,-4.627720,20.888332,39.167943,31.973338,43.123740,16.467501" />
<polygon fill="#8c6a1a" fill-opacity="0.501961" points="222.515688,69.784645,242.527806,63.842390,236.457693,36.613237,244.094797,46.215154" />
<polygon fill="#a77d30" fill-opacity="0.501961" points="101.878544,48.333129,105.425816,58.897507,117.433649,54.533739,125.080378,51.564852" />
<polygon fill="#5a4512" fill-opacity="0.501961" points="62.551436,59.817696,65.432288,25.934762,55.495972,33.657451,55.871090,44.631379" />
<polygon fill="#593e0a" fill-opacity="0.501961" points="112.334491,98.527118,109.824116,121.502290,115.746320,134.697028,118.975108,98.775490" />
<polygon fill="#835713" fill-opacity="0.501961" points="270.802443,88.410302,252.785661,135.708176,254.725249,149.987474,271.000000,142.090243" />
<polygon fill="#585545" fill-opacity="0.501961" points="151.363573,174.643762,143.773298,180.126935,154.643043,153.614415,157.621549,149.348380" />
<polygon fill="#121906" fill-opacity="0.501961" points="117.823202,165.270017,137.223031,170.956459,148.323758,163.400813,131.556628,185.000000" />
<polygon fill="#5d77a0" fill-opacity="0.501961" points="179.360947,140.484028,183.830567,137.513648,181.290740,136.766931,162.332889,133.941460" />
<polygon fill="#f9c03b" fill-opacity="0.501961" points="76.848046,27.422665,111.617502,32.609164,125.251155,18.111981,15.627956,3.365638" />
<polygon fill="#282a1d" fill-opacity="0.501961" points="7.099775,117.724897,37.874664,133.050963,9.316002,149.347941,25.946100,149.307192" />
<polygon fill="#5f6662" fill-opacity="0.501961" points="45.113298,153.865517,40.308221,140.667011,33.180645,109.946558,32.913461,107.464409" />
<polygon fill="#6d8baf" fill-opacity="0.501961" points="187.610461,140.458493,184.191556,141.754035,182.577150,152.325155,187.899963,149.556806" />
<polygon fill="#7c653f" fill-opacity="0.501961" points="74.646268,118.120636,102.112489,108.547713,79.843016,115.731025,51.593323,108.884245" />
<polygon fill="#73530a" fill-opacity="0.501961" points="119.767525,35.884376,125.964093,62.922617,139.678406,29.398436,132.846272,24.188592" />
<polygon fill="#916522" fill-opacity="0.501961" points="124.540292,105.876537,138.318284,82.389128,136.842913,92.854019,124.655642,89.497909" />
<polygon fill="#7b5700" fill-opacity="0.501961" points="87.882577,103.720854,105.806717,95.116501,110.639725,61.733285,102.929132,55.049826" />
<polygon fill="#78530f" fill-opacity="0.501961" points="120.802374,98.776137,118.800549,47.353346,107.129058,117.393695,83.106725,117.912944" />
<polygon fill="#90733c" fill-opacity="0.501961" points="117.201102,144.153910,122.329559,114.288291,123.851044,149.862815,129.273488,100.269030" />
<polygon fill="#595546" fill-opacity="0.501961" points="159.557753,127.914737,196.338136,136.945874,197.121214,122.695971,195.165146,144.442735" />
<polygon fill="#544711" fill-opacity="0.501961" points="1.791483,73.244048,1.560007,65.589801,-16.000000,83.250598,-16.000000,66.862344" />
<polygon fill="#544113" fill-opacity="0.501961" points="103.922418,122.646256,102.527832,153.756756,114.704796,139.135605,62.461610,141.026282" />
<polygon fill="#ab924f" fill-opacity="0.501961" points="244.500611,47.182441,241.796418,35.476970,233.265358,36.654978,251.151212,42.460377" />
<polygon fill="#685b4b" fill-opacity="0.501961" points="225.465327,115.796145,223.197295,119.330290,223.090700,106.208861,226.664903,82.055619" />
<polygon fill="#5a3e02" fill-opacity="0.501961" points="156.729198,144.674614,167.694693,143.087124,136.336833,116.704751,138.841890,78.684606" />
<polygon fill="#36321e" fill-opacity="0.501961" points="75.574439,166.736259,18.607710,143.409744,45.503923,152.469133,38.746234,125.841550" />
<polygon fill="#765830" fill-opacity="0.501961" points="205.399264,77.713452,219.557954,82.804769,223.700632,76.502138,212.823871,66.552298" />
<polygon fill="#000400" fill-opacity="0.501961" points="-6.468760,185.000000,5.454388,172.225160,15.968455,158.434273,3.771206,166.540790" />
<polygon fill="#594a21" fill-opacity="0.501961" points="271.000000,58.821400,271.000000,75.304370,242.172659,71.309610,250.447365,69.351185" />
<polygon fill="#af9555" fill-opacity="0.501961" points="21.825792,37.459301,36.420818,30.411807,31.560746,27.228272,34.837197,23.890470" />
<polygon fill="#e8b149" fill-opacity="0.501961" points="160.951369,49.367093,178.085968,24.968775,179.965250,56.972333,190.307361,19.196557" />
<polygon fill="#ae8f4e" fill-opacity="0.501961" points="254.371432,65.919736,223.271999,44.551172,237.375849,50.714871,245.265033,66.840070" />
<polygon fill="#b49a3b" fill-opacity="0.501961" points="271.000000,40.685542,263.789355,22.192895,248.779833,13.687601,230.338499,14.656839" />
<polygon fill="#6f6d58" fill-opacity="0.501961" points="23.631715,63.157893,37.720880,62.340843,50.935270,65.006306,22.804471,69.532131" />
<polygon fill="#876200" fill-opacity="0.501961" points="93.623572,80.305492,92.833843,69.188994,90.207278,28.231465,78.797974,69.494136" />
<polygon fill="#836724" fill-opacity="0.501961" points="164.472573,68.367139,168.497350,60.193698,211.425560,43.949732,162.844906,61.986022" />
<polygon fill="#ebad32" fill-opacity="0.501961" points="89.297978,23.537000,91.830378,45.985046,101.009538,24.556085,116.831560,42.630234" />
<polygon fill="#354e60" fill-opacity="0.501961" points="14.868870,151.801567,2.966230,162.968560,1.469274,154.312229,15.164575,156.477303" />
<polygon fill="#fdd85b" fill-opacity="0.501961" points="198.905991,6.473543,175.473106,24.346304,156.191537,2.013156,117.398383,13.008153" />
<polygon fill="#5c4711" fill-opacity="0.501961" points="171.511741,94.217377,158.451304,131.006653,190.777714,111.325509,163.053129,106.687627" />
<polygon fill="#505957" fill-opacity="0.501961" points="25.138119,148.062517,-11.952012,104.931107,22.525732,145.225173,50.158967,157.799151" />
<polygon fill="#a48a53" fill-opacity="0.501961" points="44.490976,32.854124,52.750438,71.014660,52.288125,80.937163,61.722468,120.014162" />
<polygon fill="#a27a34" fill-opacity="0.501961" points="177.729271,81.012865,192.975835,84.592142,192.741561,97.059910,181.045184,93.318559" />
<polygon fill="#312a06" fill-opacity="0.501961" points="86.760679,164.329377,87.936261,153.169750,76.190550,131.507432,75.641091,160.093842" />
<polygon fill="#62562f" fill-opacity="0.501961" points="198.749476,63.718488,182.693080,46.079648,179.581343,71.561989,181.475099,66.974089" />
<polygon fill="#1c1808" fill-opacity="0.501961" points="36.211246,168.339957,52.969533,163.630649,111.912333,185.000000,46.065438,157.359595" />
<polygon fill="#cf930c" fill-opacity="0.501961" points="176.126916,62.869485,181.623490,56.580432,156.794769,49.331769,146.008305,49.672372" />
<polygon fill="#f3c768" fill-opacity="0.501961" points="217.860757,13.309647,214.393101,7.806363,222.415168,-0.215525,195.084863,6.765727" />
<polygon fill="#9e6e00" fill-opacity="0.501961" points="78.502667,61.718964,91.648210,85.377723,87.409846,94.242953,73.776815,76.708968" />
<polygon fill="#947d4f" fill-opacity="0.501961" points="-13.453080,99.144506,21.249401,83.747930,-16.000000,111.908237,5.040006,126.082852" />
<polygon fill="#4f4320" fill-opacity="0.501961" points="35.175454,84.175052,46.557131,128.333609,66.996311,116.658355,77.575911,140.315821" />
<polygon fill="#423825" fill-opacity="0.501961" points="63.363006,163.801923,95.208030,145.293312,71.465522,150.374914,52.935053,185.000000" />
<polygon fill="#664529" fill-opacity="0.501961" points="265.576795,106.075539,232.311332,105.464173,226.531431,98.060112,234.229083,96.853765" />
<polygon fill="#dbad3a" fill-opacity="0.501961" points="50.688821,32.935624,55.408439,10.396113,-5.542802,16.333390,76.183246,20.599541" />
<polygon fill="#1f2424" fill-opacity="0.501961" points="36.986204,161.813576,24.965186,149.434502,42.011984,154.995597,3.034739,179.230594" />
<polygon fill="#8a7428" fill-opacity="0.501961" points="235.963656,28.819777,232.173861,32.230587,250.478043,30.780700,267.172820,57.809280" />
<polygon fill="#b7853a" fill-opacity="0.501961" points="61.401689,72.509578,54.437875,77.835033,50.845008,68.783181,59.140460,60.453250" />
<polygon fill="#51472b" fill-opacity="0.501961" points="44.311958,52.931258,18.115611,66.526927,21.920105,63.166609,39.148413,61.112342" />
<polygon fill="#ffeb7d" fill-opacity="0.501961" points="6.141383,5.666109,-16.000000,11.614504,6.649623,-16.000000,9.248639,-16.000000" />
<polygon fill="#62522f" fill-opacity="0.501961" points="271.000000,82.905868,258.790593,94.215682,234.500894,83.397885,237.680684,74.592108" />
<polygon fill="#6f542d" fill-opacity="0.501961" points="221.446082,50.905536,211.407733,96.723826,217.972441,90.157768,207.197346,131.400293" />
<polygon fill="#1d4566" fill-opacity="0.501961" points="-5.708209,185.000000,61.133236,169.024643,82.418425,185.000000,36.391964,167.391588" />
<polygon fill="#262718" fill-opacity="0.501961" points="216.915594,164.302335,240.689663,185.000000,231.712885,178.906671,216.582270,158.428020" />
<polygon fill="#4a3c23" fill-opacity="0.501961" points="215.778410,90.670886,215.483917,70.832457,201.303248,105.749511,213.102372,89.093502" />
<polygon fill="#8e6f43" fill-opacity="0.501961" points="110.520841,126.825261,108.023015,129.370835,104.381618,111.169256,102.399745,118.235238" />
<polygon fill="#b18821" fill-opacity="0.501961" points="49.022741,42.663730,35.975969,32.793663,45.994227,25.329266,11.473570,58.390253" />
<polygon fill="#131919" fill-opacity="0.501961" points="244.124356,136.559969,243.240348,156.075858,271.000000,158.938015,237.167642,148.025710" />
<polygon fill="#3b3415" fill-opacity="0.501961" points="51.706378,64.911940,28.281560,86.402545,43.366385,138.338435,21.965618,71.169918" />
<polygon fill="#7f6f5b" fill-opacity="0.501961" points="14.326153,95.559465,30.558099,101.611991,7.349061,100.323204,-6.280316,119.140671" />
<polygon fill="#635231" fill-opacity="0.501961" points="17.444387,120.236053,29.806065,103.993369,14.458075,100.724971,12.494647,89.417365" />
<polygon fill="#684d08" fill-opacity="0.501961" points="74.708904,28.866449,63.132660,56.806256,77.208140,58.929582,88.699457,29.747831" />
<polygon fill="#403e38" fill-opacity="0.501961" points="208.866685,10.564032,198.022646,11.492382,206.159718,20.746992,213.909587,15.163504" />
<polygon fill="#3e2f08" fill-opacity="0.501961" points="182.841911,141.307500,182.574756,150.566546,175.278956,149.371430,160.835496,137.651316" />
<polygon fill="#fdf594" fill-opacity="0.501961" points="54.953965,3.188045,112.693842,-16.000000,112.208751,6.575402,213.026015,-5.144170" />
<polygon fill="#344d5a" fill-opacity="0.501961" points="3.224423,149.434018,10.788758,145.333500,16.929585,137.141704,21.100082,144.143319" />
<polygon fill="#cc9a3f" fill-opacity="0.501961" points="159.504544,80.001773,170.325660,80.673721,156.272581,67.105348,165.673241,57.884573" />
<polygon fill="#846733" fill-opacity="0.501961" points="188.018367,116.864998,186.149064,133.583731,195.042957,124.441167,195.431109,82.684104" />
<polygon fill="#3b4932" fill-opacity="0.501961" points="128.166612,154.859067,137.540979,168.753244,123.810752,167.087281,119.183577,159.054229" />
<polygon fill="#d9a954" fill-opacity="0.501961" points="57.603052,56.186256,49.597173,55.049605,43.428064,44.454737,55.062537,44.283401" />
<polygon fill="#d79d26" fill-opacity="0.501961" points="140.893779,56.645137,154.579563,66.948814,153.244435,36.902806,146.919282,79.183539" />
<polygon fill="#8d8375" fill-opacity="0.501961" points="245.774735,72.488208,271.000000,76.199797,258.264649,78.151680,237.837088,74.305038" />
<polygon fill="#bd8415" fill-opacity="0.501961" points="157.665069,68.242759,165.416520,83.708357,164.013044,112.633471,156.556803,69.292303" />
<polygon fill="#4f3d14" fill-opacity="0.501961" points="185.553029,113.862481,165.122738,122.342051,185.022780,133.524546,194.592520,72.561843" />
<polygon fill="#fff79a" fill-opacity="0.501961" points="271.000000,17.973870,255.557047,4.240237,216.148743,-16.000000,263.048675,-7.753266" />
<polygon fill="#85786f" fill-opacity="0.501961" points="222.332097,91.960128,231.293686,104.884122,213.050875,100.529033,229.064861,101.950659" />
<polygon fill="#b07a00" fill-opacity="0.501961" points="107.868086,36.974903,90.060806,48.519644,97.903533,82.760642,96.187550,55.159291" />
<polygon fill="#4f4f4e" fill-opacity="0.501961" points="83.589178,169.136053,60.230168,162.202515,86.033108,171.370297,96.198085,151.274029" />
<polygon fill="#ad7f22" fill-opacity="0.501961" points="17.584795,62.494574,11.976380,78.396918,14.352715,79.172396,23.790495,83.465097" />
<polygon fill="#39301c" fill-opacity="0.501961" points="247.350401,102.343019,252.957736,119.335289,271.000000,182.288475,271.000000,148.544086" />
<polygon fill="#967c31" fill-opacity="0.501961" points="-10.018539,53.987377,32.809564,26.239175,-6.308539,30.740967,23.636764,38.429070" />
<polygon fill="#221f0e" fill-opacity="0.501961" points="245.562437,137.200409,245.694483,130.313261,208.160575,125.910159,228.004937,130.655822" />
<polygon fill="#fed05c" fill-opacity="0.501961" points="63.071281,3.282997,53.362515,9.756999,29.128119,-16.000000,4.923830,7.037112" />
<polygon fill="#fbc053" fill-opacity="0.501961" points="119.703716,36.832559,119.484428,46.612575,105.343683,40.905737,119.837956,41.333030" />
<polygon fill="#0f293d" fill-opacity="0.501961" points="5.212633,165.292911,-14.610414,119.500536,-16.000000,173.926548,-16.000000,180.960091" />
<polygon fill="#363300" fill-opacity="0.501961" points="67.781512,142.261703,56.229211,152.233146,69.392163,156.871531,69.979017,156.568219" />
<polygon fill="#635a3a" fill-opacity="0.501961" points="38.673097,56.397858,57.195665,137.167369,38.311435,62.424770,17.788039,72.493024" />
<polygon fill="#a0978f" fill-opacity="0.501961" points="166.687285,104.937978,185.331119,106.654925,183.050187,110.443298,180.461429,99.306331" />
<polygon fill="#46311a" fill-opacity="0.501961" points="257.975411,119.860177,211.406446,124.963946,236.709210,110.349634,219.940753,107.747385" />
<polygon fill="#6d5013" fill-opacity="0.501961" points="66.450369,112.874939,58.902645,102.278597,65.501109,52.742405,75.782536,59.452760" />
<polygon fill="#6a5735" fill-opacity="0.501961" points="96.338562,152.920650,109.072494,138.892962,137.675864,139.433134,107.913545,130.534007" />
<polygon fill="#d0a45a" fill-opacity="0.501961" points="214.851948,32.860385,209.587165,50.010596,221.730120,49.173981,212.708304,45.911228" />
<polygon fill="#4b3714" fill-opacity="0.501961" points="205.557468,73.570115,212.195127,93.902762,209.101618,151.823852,208.992504,63.384240" />
<polygon fill="#8f7a61" fill-opacity="0.501961" points="213.217721,67.550690,232.040790,69.731835,228.365310,71.968226,227.435090,72.534992" />
<polygon fill="#3c423d" fill-opacity="0.501961" points="233.510887,148.948314,222.837433,147.238699,200.226843,136.947771,239.774692,158.554436" />
<polygon fill="#161100" fill-opacity="0.501961" points="208.184796,165.959792,203.303376,185.000000,210.383904,145.906914,213.644083,147.904707" />
<polygon fill="#8e6b20" fill-opacity="0.501961" points="-9.947515,87.061421,-5.784361,92.921948,6.070132,91.394774,17.054617,76.365766" />
<polygon fill="#b78e2f" fill-opacity="0.501961" points="227.466093,35.111152,243.040302,36.521408,220.083314,47.301362,213.398401,43.009265" />
<polygon fill="#815800" fill-opacity="0.501961" points="149.047223,108.308619,146.966872,85.751504,166.998252,117.835218,152.841398,126.315328" />
<polygon fill="#dab438" fill-opacity="0.501961" points="31.160960,3.854154,33.357250,7.108793,-15.258817,30.418296,-13.650694,17.237072" />
<polygon fill="#764b1a" fill-opacity="0.501961" points="242.815464,110.973355,234.128177,103.280535,237.665615,98.273554,240.873863,117.824748" />
<polygon fill="#756125" fill-opacity="0.501961" points="250.685562,35.947502,271.000000,76.353320,271.000000,26.189112,251.130311,60.787127" />
</g>
</svg>