<svg xmlns="http://www.w3.org/2000/svg" version="1.1" width="1024" height="680">
<rect x="0" y="0" width="1024" height="680" fill="#374a50" />
<g transform="scale(4.000000) translate(0.5 0.5)">
<ellipse fill="#ffffff" fill-opacity="0.501961" cx="156" cy="33" rx="174" ry="21" />
<ellipse fill="#000000" fill-opacity="0.501961" cx="130" cy="147" rx="255" ry="39" />
<ellipse fill="#98b4d8" fill-opacity="0.501961" cx="135" cy="94" rx="72" ry="25" />
<ellipse fill="#000000" fill-opacity="0.501961" cx="21" cy="97" rx="43" ry="52" />
<ellipse fill="#0d85ef" fill-opacity="0.501961" cx="91" cy="11" rx="255" ry="17" />
<ellipse fill="#000000" fill-opacity="0.501961" cx="229" cy="138" rx="45" ry="84" />
<ellipse fill="#ffb343" fill-opacity="0.501961" cx="129" cy="48" rx="103" ry="8" />
<ellipse fill="#000000" fill-opacity="0.501961" cx="132" cy="154" rx="255" ry="31" />
<ellipse fill="#000006" fill-opacity="0.501961" cx="203" cy="64" rx="67" ry="12" />
<ellipse fill="#b7bdc2" fill-opacity="0.501961" cx="177" cy="86" rx="41" ry="11" />
<ellipse fill="#000000" fill-opacity="0.501961" cx="10" cy="73" rx="78" ry="20" />
<ellipse fill="#74b4f4" fill-opacity="0.501961" cx="63" cy="96" rx="15" ry="10" />
<ellipse fill="#f8d4a7" fill-opacity="0.501961" cx="231" cy="42" rx="219" ry="8" />
<ellipse fill="#fdc58d" fill-opacity="0.501961" cx="120" cy="76" rx="33" ry="8" />
<ellipse fill="#14568e" fill-opacity="0.501961" cx="127" cy="109" rx="14" ry="31" />
<ellipse fill="#ff9333" fill-opacity="0.501961" cx="248" cy="50" rx="69" ry="5" />
<ellipse fill="#000000" fill-opacity="0.501961" cx="243" cy="107" rx="30" ry="51" />
<ellipse fill="#155592" fill-opacity="0.501961" cx="140" cy="110" rx="50" ry="12" />
<ellipse fill="#000800" fill-opacity="0.501961" cx="13" cy="113" rx="39" ry="69" />
<ellipse fill="#000000" fill-opacity="0.501961" cx="125" cy="87" rx="9" ry="7" />
<ellipse fill="#001e52" fill-opacity="0.501961" cx="161" cy="59" rx="47" ry="7" />
<ellipse fill="#000c00" fill-opacity="0.501961" cx="85" cy="142" rx="37" ry="35" />
<ellipse fill="#ff7815" fill-opacity="0.501961" cx="88" cy="53" rx="46" ry="3" />
<ellipse fill="#5b8bb9" fill-opacity="0.501961" cx="180" cy="20" rx="255" ry="11" />
<ellipse fill="#9dbcd0" fill-opacity="0.501961" cx="126" cy="31" rx="115" ry="8" />
<ellipse fill="#255d91" fill-opacity="0.501961" cx="87" cy="105" rx="35" ry="7" />
<ellipse fill="#000b00" fill-opacity="0.501961" cx="199" cy="149" rx="66" ry="35" />
<ellipse fill="#6084a7" fill-opacity="0.501961" cx="130" cy="96" rx="91" ry="7" />
<ellipse fill="#c1c4c0" fill-opacity="0.501961" cx="94" cy="87" rx="21" ry="5" />
<ellipse fill="#000300" fill-opacity="0.501961" cx="236" cy="105" rx="34" ry="17" />
<ellipse fill="#ff9e46" fill-opacity="0.501961" cx="109" cy="50" rx="72" ry="4" />
<ellipse fill="#000800" fill-opacity="0.501961" cx="206" cy="67" rx="47" ry="8" />
<ellipse fill="#000700" fill-opacity="0.501961" cx="47" cy="75" rx="41" ry="11" />
<ellipse fill="#0f6cb3" fill-opacity="0.501961" cx="37" cy="2" rx="255" ry="15" />
<ellipse fill="#2c7bc3" fill-opacity="0.501961" cx="125" cy="121" rx="5" ry="17" />
<ellipse fill="#436fa9" fill-opacity="0.501961" cx="121" cy="63" rx="52" ry="2" />
<ellipse fill="#000000" fill-opacity="0.501961" cx="72" cy="68" rx="40" ry="3" />
<ellipse fill="#0473a9" fill-opacity="0.501961" cx="136" cy="140" rx="10" ry="4" />
<ellipse fill="#e2ddc8" fill-opacity="0.501961" cx="128" cy="39" rx="62" ry="6" />
<ellipse fill="#000c00" fill-opacity="0.501961" cx="0" cy="110" rx="40" ry="68" />
<ellipse fill="#000c00" fill-opacity="0.501961" cx="77" cy="161" rx="68" ry="32" />
<ellipse fill="#ddc3a4" fill-opacity="0.501961" cx="150" cy="80" rx="19" ry="7" />
<ellipse fill="#ff8600" fill-opacity="0.501961" cx="109" cy="55" rx="14" ry="2" />
<ellipse fill="#ddba9e" fill-opacity="0.501961" cx="121" cy="73" rx="13" ry="7" />
<ellipse fill="#00052c" fill-opacity="0.501961" cx="98" cy="59" rx="53" ry="2" />
<ellipse fill="#437bb3" fill-opacity="0.501961" cx="202" cy="13" rx="151" ry="7" />
<ellipse fill="#265f95" fill-opacity="0.501961" cx="135" cy="116" rx="33" ry="8" />
<ellipse fill="#0c0300" fill-opacity="0.501961" cx="128" cy="85" rx="8" ry="6" />
<ellipse fill="#d8a164" fill-opacity="0.501961" cx="239" cy="47" rx="17" ry="9" />
<ellipse fill="#a9c5e5" fill-opacity="0.501961" cx="194" cy="90" rx="16" ry="3" />
<ellipse fill="#08316d" fill-opacity="0.501961" cx="81" cy="59" rx="17" ry="5" />
<ellipse fill="#304b65" fill-opacity="0.501961" cx="189" cy="77" rx="13" ry="3" />
<ellipse fill="#002752" fill-opacity="0.501961" cx="178" cy="57" rx="59" ry="4" />
<ellipse fill="#000900" fill-opacity="0.501961" cx="255" cy="91" rx="34" ry="38" />
<ellipse fill="#005da0" fill-opacity="0.501961" cx="90" cy="0" rx="176" ry="6" />
<ellipse fill="#05150a" fill-opacity="0.501961" cx="192" cy="117" rx="5" ry="24" />
<ellipse fill="#000700" fill-opacity="0.501961" cx="178" cy="133" rx="7" ry="24" />
<ellipse fill="#4893d9" fill-opacity="0.501961" cx="68" cy="108" rx="3" ry="10" />
<ellipse fill="#000a00" fill-opacity="0.501961" cx="81" cy="132" rx="3" ry="31" />
<ellipse fill="#b5a080" fill-opacity="0.501961" cx="25" cy="42" rx="16" ry="5" />
<ellipse fill="#000e04" fill-opacity="0.501961" cx="18" cy="73" rx="42" ry="26" />
<ellipse fill="#000b00" fill-opacity="0.501961" cx="94" cy="139" rx="16" ry="30" />
<ellipse fill="#70b8ff" fill-opacity="0.501961" cx="56" cy="98" rx="3" ry="9" />
<ellipse fill="#6694bb" fill-opacity="0.501961" cx="22" cy="27" rx="68" ry="6" />
<ellipse fill="#799bc7" fill-opacity="0.501961" cx="200" cy="93" rx="4" ry="13" />
<ellipse fill="#000e00" fill-opacity="0.501961" cx="152" cy="131" rx="23" ry="8" />
<ellipse fill="#5ea6be" fill-opacity="0.501961" cx="41" cy="98" rx="3" ry="3" />
<ellipse fill="#000602" fill-opacity="0.501961" cx="175" cy="67" rx="31" ry="5" />
<ellipse fill="#031703" fill-opacity="0.501961" cx="62" cy="116" rx="3" ry="20" />
<ellipse fill="#96a2a9" fill-opacity="0.501961" cx="243" cy="35" rx="40" ry="7" />
<ellipse fill="#098ee7" fill-opacity="0.501961" cx="131" cy="138" rx="4" ry="4" />
<ellipse fill="#00130b" fill-opacity="0.501961" cx="222" cy="70" rx="30" ry="13" />
<ellipse fill="#64859d" fill-opacity="0.501961" cx="213" cy="88" rx="4" ry="7" />
<ellipse fill="#83a7c9" fill-opacity="0.501961" cx="69" cy="93" rx="17" ry="4" />
<ellipse fill="#050900" fill-opacity="0.501961" cx="126" cy="87" rx="8" ry="5" />
<ellipse fill="#7294b8" fill-opacity="0.501961" cx="207" cy="24" rx="136" ry="5" />
<ellipse fill="#cebaa4" fill-opacity="0.501961" cx="102" cy="80" rx="15" ry="7" />
<ellipse fill="#6e7a89" fill-opacity="0.501961" cx="143" cy="72" rx="19" ry="2" />
<ellipse fill="#4071a1" fill-opacity="0.501961" cx="153" cy="62" rx="19" ry="2" />
<ellipse fill="#4971a6" fill-opacity="0.501961" cx="84" cy="63" rx="12" ry="3" />
<ellipse fill="#dd7f35" fill-opacity="0.501961" cx="229" cy="52" rx="43" ry="2" />
<ellipse fill="#001107" fill-opacity="0.501961" cx="49" cy="73" rx="21" ry="18" />
<ellipse fill="#0692e8" fill-opacity="0.501961" cx="144" cy="143" rx="2" ry="3" />
<ellipse fill="#97a4b1" fill-opacity="0.501961" cx="135" cy="93" rx="5" ry="6" />
<ellipse fill="#3d6797" fill-opacity="0.501961" cx="134" cy="104" rx="53" ry="7" />
<ellipse fill="#000e00" fill-opacity="0.501961" cx="46" cy="150" rx="86" ry="34" />
<ellipse fill="#000100" fill-opacity="0.501961" cx="140" cy="134" rx="2" ry="15" />
<ellipse fill="#011200" fill-opacity="0.501961" cx="209" cy="99" rx="7" ry="4" />
<ellipse fill="#f9b26f" fill-opacity="0.501961" cx="107" cy="48" rx="78" ry="3" />
<ellipse fill="#000b00" fill-opacity="0.501961" cx="187" cy="157" rx="46" ry="36" />
<ellipse fill="#3983bb" fill-opacity="0.501961" cx="33" cy="18" rx="46" ry="5" />
<ellipse fill="#2268a3" fill-opacity="0.501961" cx="146" cy="119" rx="5" ry="7" />
<ellipse fill="#f89642" fill-opacity="0.501961" cx="158" cy="50" rx="35" ry="3" />
<ellipse fill="#000c0c" fill-opacity="0.501961" cx="85" cy="69" rx="25" ry="2" />
<ellipse fill="#76899e" fill-opacity="0.501961" cx="196" cy="84" rx="19" ry="4" />
<ellipse fill="#c2a480" fill-opacity="0.501961" cx="51" cy="45" rx="32" ry="3" />
<ellipse fill="#b4c0bb" fill-opacity="0.501961" cx="52" cy="37" rx="43" ry="4" />
<ellipse fill="#1b1e36" fill-opacity="0.501961" cx="138" cy="55" rx="11" ry="3" />
<ellipse fill="#000800" fill-opacity="0.501961" cx="135" cy="131" rx="3" ry="8" />
<ellipse fill="#ffcd91" fill-opacity="0.501961" cx="141" cy="45" rx="47" ry="3" />
<ellipse fill="#d3bf9a" fill-opacity="0.501961" cx="217" cy="43" rx="27" ry="6" />
<ellipse fill="#00090a" fill-opacity="0.501961" cx="159" cy="67" rx="28" ry="3" />
<ellipse fill="#3771a6" fill-opacity="0.501961" cx="107" cy="111" rx="2" ry="14" />
<ellipse fill="#fb7237" fill-opacity="0.501961" cx="66" cy="53" rx="23" ry="2" />
<ellipse fill="#6d7b82" fill-opacity="0.501961" cx="170" cy="75" rx="13" ry="3" />
<ellipse fill="#3e5d73" fill-opacity="0.501961" cx="80" cy="83" rx="7" ry="2" />
<ellipse fill="#559de5" fill-opacity="0.501961" cx="185" cy="112" rx="4" ry="2" />
<ellipse fill="#0a1c17" fill-opacity="0.501961" cx="173" cy="120" rx="2" ry="11" />
<ellipse fill="#cdb9a4" fill-opacity="0.501961" cx="141" cy="78" rx="13" ry="5" />
<ellipse fill="#177bc9" fill-opacity="0.501961" cx="124" cy="129" rx="4" ry="7" />
<ellipse fill="#071c12" fill-opacity="0.501961" cx="74" cy="113" rx="3" ry="10" />
<ellipse fill="#003b70" fill-opacity="0.501961" cx="204" cy="57" rx="20" ry="2" />
<ellipse fill="#819bb1" fill-opacity="0.501961" cx="94" cy="91" rx="27" ry="4" />
<ellipse fill="#ff8500" fill-opacity="0.501961" cx="110" cy="56" rx="9" ry="1" />
<ellipse fill="#000f00" fill-opacity="0.501961" cx="155" cy="125" rx="5" ry="6" />
<ellipse fill="#3974ab" fill-opacity="0.501961" cx="255" cy="16" rx="47" ry="7" />
<ellipse fill="#3268a0" fill-opacity="0.501961" cx="168" cy="113" rx="3" ry="9" />
<ellipse fill="#597ca1" fill-opacity="0.501961" cx="123" cy="97" rx="67" ry="4" />
<ellipse fill="#39689a" fill-opacity="0.501961" cx="114" cy="108" rx="15" ry="9" />
<ellipse fill="#4f78a1" fill-opacity="0.501961" cx="200" cy="78" rx="15" ry="1" />
<ellipse fill="#000900" fill-opacity="0.501961" cx="21" cy="115" rx="35" ry="18" />
<ellipse fill="#000800" fill-opacity="0.501961" cx="229" cy="115" rx="31" ry="17" />
<ellipse fill="#3d7db6" fill-opacity="0.501961" cx="86" cy="105" rx="2" ry="11" />
<ellipse fill="#516c9f" fill-opacity="0.501961" cx="119" cy="66" rx="10" ry="2" />
<ellipse fill="#1d3432" fill-opacity="0.501961" cx="192" cy="106" rx="8" ry="5" />
<ellipse fill="#25636d" fill-opacity="0.501961" cx="24" cy="107" rx="2" ry="5" />
<ellipse fill="#e78e43" fill-opacity="0.501961" cx="242" cy="52" rx="4" ry="5" />
<ellipse fill="#558abd" fill-opacity="0.501961" cx="139" cy="16" rx="57" ry="5" />
<ellipse fill="#b6b0a6" fill-opacity="0.501961" cx="158" cy="83" rx="24" ry="6" />
<ellipse fill="#4c646d" fill-opacity="0.501961" cx="62" cy="87" rx="8" ry="2" />
<ellipse fill="#000b00" fill-opacity="0.501961" cx="90" cy="134" rx="3" ry="29" />
<ellipse fill="#aec1ca" fill-opacity="0.501961" cx="128" cy="34" rx="59" ry="3" />
<ellipse fill="#030a00" fill-opacity="0.501961" cx="111" cy="120" rx="3" ry="3" />
<ellipse fill="#3f252a" fill-opacity="0.501961" cx="171" cy="53" rx="17" ry="1" />
<ellipse fill="#2965a4" fill-opacity="0.501961" cx="123" cy="122" rx="6" ry="6" />
<ellipse fill="#000a02" fill-opacity="0.501961" cx="64" cy="76" rx="24" ry="6" />
<ellipse fill="#0d264c" fill-opacity="0.501961" cx="77" cy="58" rx="16" ry="4" />
<ellipse fill="#ae9877" fill-opacity="0.501961" cx="1" cy="41" rx="11" ry="3" />
<ellipse fill="#ff6c23" fill-opacity="0.501961" cx="58" cy="55" rx="4" ry="2" />
<ellipse fill="#010d07" fill-opacity="0.501961" cx="27" cy="72" rx="8" ry="26" />
<ellipse fill="#000a00" fill-opacity="0.501961" cx="244" cy="88" rx="30" ry="6" />
<ellipse fill="#1f6daa" fill-opacity="0.501961" cx="235" cy="6" rx="176" ry="3" />
<ellipse fill="#0062a9" fill-opacity="0.501961" cx="1" cy="0" rx="95" ry="9" />
<ellipse fill="#77aff0" fill-opacity="0.501961" cx="56" cy="95" rx="7" ry="2" />
<ellipse fill="#b0a493" fill-opacity="0.501961" cx="92" cy="78" rx="5" ry="8" />
<ellipse fill="#000700" fill-opacity="0.501961" cx="0" cy="98" rx="25" ry="27" />
<ellipse fill="#071d0e" fill-opacity="0.501961" cx="139" cy="126" rx="12" ry="2" />
<ellipse fill="#8c969b" fill-opacity="0.501961" cx="180" cy="85" rx="10" ry="8" />
<ellipse fill="#2e496e" fill-opacity="0.501961" cx="111" cy="64" rx="25" ry="2" />
<ellipse fill="#000b00" fill-opacity="0.501961" cx="44" cy="115" rx="2" ry="22" />
<ellipse fill="#beb0a0" fill-opacity="0.501961" cx="108" cy="80" rx="15" ry="4" />
<ellipse fill="#031113" fill-opacity="0.501961" cx="92" cy="68" rx="18" ry="3" />
<ellipse fill="#bc976e" fill-opacity="0.501961" cx="21" cy="47" rx="1" ry="2" />
<ellipse fill="#0a719b" fill-opacity="0.501961" cx="148" cy="146" rx="1" ry="3" />
<ellipse fill="#72aee8" fill-opacity="0.501961" cx="194" cy="107" rx="1" ry="1" />
<ellipse fill="#4a7bb4" fill-opacity="0.501961" cx="75" cy="62" rx="4" ry="2" />
<ellipse fill="#0a1a0c" fill-opacity="0.501961" cx="179" cy="117" rx="3" ry="9" />
<ellipse fill="#224e50" fill-opacity="0.501961" cx="60" cy="110" rx="7" ry="2" />
<ellipse fill="#182426" fill-opacity="0.501961" cx="97" cy="109" rx="2" ry="4" />
<ellipse fill="#000c00" fill-opacity="0.501961" cx="141" cy="168" rx="113" ry="22" />
<ellipse fill="#84a3ca" fill-opacity="0.501961" cx="197" cy="94" rx="3" ry="8" />
<ellipse fill="#020f08" fill-opacity="0.501961" cx="4" cy="60" rx="29" ry="16" />
<ellipse fill="#061608" fill-opacity="0.501961" cx="164" cy="127" rx="2" ry="12" />
<ellipse fill="#466f98" fill-opacity="0.501961" cx="129" cy="101" rx="59" ry="4" />
<ellipse fill="#447bbc" fill-opacity="0.501961" cx="66" cy="105" rx="3" ry="6" />
<ellipse fill="#ff852f" fill-opacity="0.501961" cx="99" cy="53" rx="32" ry="2" />
<ellipse fill="#d8c4ac" fill-opacity="0.501961" cx="156" cy="79" rx="13" ry="3" />
<ellipse fill="#e9ae6c" fill-opacity="0.501961" cx="184" cy="48" rx="60" ry="2" />
<ellipse fill="#6e8baa" fill-opacity="0.501961" cx="127" cy="96" rx="21" ry="3" />
<ellipse fill="#000e00" fill-opacity="0.501961" cx="98" cy="129" rx="9" ry="16" />
<ellipse fill="#2d5456" fill-opacity="0.501961" cx="44" cy="98" rx="8" ry="4" />
<ellipse fill="#0a0c00" fill-opacity="0.501961" cx="120" cy="86" rx="5" ry="3" />
<ellipse fill="#e39058" fill-opacity="0.501961" cx="57" cy="51" rx="17" ry="2" />
<ellipse fill="#94adc9" fill-opacity="0.501961" cx="208" cy="84" rx="6" ry="2" />
<ellipse fill="#000c0c" fill-opacity="0.501961" cx="186" cy="70" rx="24" ry="4" />
<ellipse fill="#0b2915" fill-opacity="0.501961" cx="65" cy="115" rx="11" ry="2" />
<ellipse fill="#0687de" fill-opacity="0.501961" cx="143" cy="142" rx="2" ry="3" />
<ellipse fill="#083259" fill-opacity="0.501961" cx="213" cy="56" rx="24" ry="2" />
<ellipse fill="#000c00" fill-opacity="0.501961" cx="135" cy="166" rx="3" ry="27" />
<ellipse fill="#000900" fill-opacity="0.501961" cx="47" cy="114" rx="7" ry="17" />
<ellipse fill="#a2a2a2" fill-opacity="0.501961" cx="101" cy="84" rx="16" ry="5" />
<ellipse fill="#712310" fill-opacity="0.501961" cx="110" cy="57" rx="10" ry="1" />
<ellipse fill="#5ea1ea" fill-opacity="0.501961" cx="55" cy="98" rx="3" ry="6" />
<ellipse fill="#8faec4" fill-opacity="0.501961" cx="47" cy="32" rx="45" ry="3" />
<ellipse fill="#285e92" fill-opacity="0.501961" cx="133" cy="115" rx="23" ry="8" />
<ellipse fill="#000c00" fill-opacity="0.501961" cx="140" cy="155" rx="2" ry="35" />
<ellipse fill="#3a6a98" fill-opacity="0.501961" cx="160" cy="108" rx="2" ry="17" />
<ellipse fill="#a6bbc6" fill-opacity="0.501961" cx="89" cy="87" rx="15" ry="2" />
<ellipse fill="#c3aa93" fill-opacity="0.501961" cx="120" cy="71" rx="14" ry="4" />
<ellipse fill="#000f04" fill-opacity="0.501961" cx="255" cy="73" rx="42" ry="18" />
<ellipse fill="#010f08" fill-opacity="0.501961" cx="53" cy="73" rx="25" ry="14" />
<ellipse fill="#7392b0" fill-opacity="0.501961" cx="255" cy="27" rx="52" ry="6" />
<ellipse fill="#3f5b73" fill-opacity="0.501961" cx="98" cy="71" rx="9" ry="1" />
<ellipse fill="#ebd6b4" fill-opacity="0.501961" cx="141" cy="42" rx="62" ry="2" />
<ellipse fill="#0379c4" fill-opacity="0.501961" cx="128" cy="136" rx="3" ry="4" />
<ellipse fill="#0d2c1e" fill-opacity="0.501961" cx="117" cy="131" rx="4" ry="5" />
<ellipse fill="#165d9c" fill-opacity="0.501961" cx="255" cy="3" rx="26" ry="10" />
<ellipse fill="#051b31" fill-opacity="0.501961" cx="115" cy="59" rx="40" ry="2" />
<ellipse fill="#ffb35e" fill-opacity="0.501961" cx="113" cy="50" rx="35" ry="2" />
<ellipse fill="#8caec9" fill-opacity="0.501961" cx="131" cy="29" rx="62" ry="3" />
<ellipse fill="#314b5f" fill-opacity="0.501961" cx="205" cy="79" rx="10" ry="2" />
<ellipse fill="#00294e" fill-opacity="0.501961" cx="162" cy="58" rx="25" ry="4" />
<ellipse fill="#6b7583" fill-opacity="0.501961" cx="142" cy="71" rx="6" ry="2" />
<ellipse fill="#1a75b6" fill-opacity="0.501961" cx="43" cy="10" rx="39" ry="4" />
<ellipse fill="#b6bcb3" fill-opacity="0.501961" cx="199" cy="37" rx="27" ry="4" />
<ellipse fill="#000f00" fill-opacity="0.501961" cx="81" cy="126" rx="2" ry="25" />
<ellipse fill="#baa883" fill-opacity="0.501961" cx="255" cy="43" rx="14" ry="5" />
<ellipse fill="#9cb0c3" fill-opacity="0.501961" cx="185" cy="90" rx="22" ry="2" />
<ellipse fill="#974c20" fill-opacity="0.501961" cx="248" cy="54" rx="3" ry="2" />
<ellipse fill="#4c88cc" fill-opacity="0.501961" cx="182" cy="106" rx="2" ry="4" />
<ellipse fill="#03100b" fill-opacity="0.501961" cx="217" cy="63" rx="42" ry="4" />
<ellipse fill="#ff7c00" fill-opacity="0.501961" cx="105" cy="55" rx="9" ry="2" />
<ellipse fill="#173530" fill-opacity="0.501961" cx="187" cy="116" rx="13" ry="2" />
<ellipse fill="#6296b5" fill-opacity="0.501961" cx="42" cy="98" rx="2" ry="3" />
<ellipse fill="#436692" fill-opacity="0.501961" cx="81" cy="64" rx="5" ry="3" />
<ellipse fill="#9ea4a6" fill-opacity="0.501961" cx="142" cy="88" rx="7" ry="6" />
<ellipse fill="#77828c" fill-opacity="0.501961" cx="190" cy="82" rx="12" ry="3" />
<ellipse fill="#406357" fill-opacity="0.501961" cx="216" cy="99" rx="2" ry="2" />
<ellipse fill="#d9bc9c" fill-opacity="0.501961" cx="107" cy="77" rx="18" ry="3" />
<ellipse fill="#2f5d8f" fill-opacity="0.501961" cx="148" cy="111" rx="30" ry="4" />
<ellipse fill="#1d3f6a" fill-opacity="0.501961" cx="109" cy="61" rx="42" ry="1" />
<ellipse fill="#904233" fill-opacity="0.501961" cx="78" cy="54" rx="5" ry="1" />
<ellipse fill="#000b00" fill-opacity="0.501961" cx="212" cy="126" rx="14" ry="28" />
<ellipse fill="#e0964c" fill-opacity="0.501961" cx="232" cy="51" rx="24" ry="3" />
<ellipse fill="#49709d" fill-opacity="0.501961" cx="150" cy="62" rx="24" ry="1" />
<ellipse fill="#d17836" fill-opacity="0.501961" cx="178" cy="52" rx="21" ry="1" />
<ellipse fill="#cfc5a6" fill-opacity="0.501961" cx="69" cy="42" rx="17" ry="3" />
<ellipse fill="#0e150e" fill-opacity="0.501961" cx="128" cy="86" rx="7" ry="4" />
<ellipse fill="#020700" fill-opacity="0.501961" cx="226" cy="78" rx="6" ry="22" />
<ellipse fill="#141710" fill-opacity="0.501961" cx="124" cy="90" rx="5" ry="3" />
<ellipse fill="#435b65" fill-opacity="0.501961" cx="71" cy="85" rx="7" ry="2" />
<ellipse fill="#556c8d" fill-opacity="0.501961" cx="200" cy="86" rx="7" ry="2" />
<ellipse fill="#29343a" fill-opacity="0.501961" cx="62" cy="104" rx="3" ry="5" />
<ellipse fill="#3874b0" fill-opacity="0.501961" cx="76" cy="103" rx="3" ry="4" />
<ellipse fill="#000000" fill-opacity="0.501961" cx="189" cy="101" rx="1" ry="1" />
<ellipse fill="#0e2410" fill-opacity="0.501961" cx="198" cy="107" rx="3" ry="5" />
<ellipse fill="#9d968d" fill-opacity="0.501961" cx="153" cy="74" rx="12" ry="2" />
<ellipse fill="#47769f" fill-opacity="0.501961" cx="94" cy="102" rx="2" ry="11" />
<ellipse fill="#3774ad" fill-opacity="0.501961" cx="85" cy="105" rx="3" ry="6" />
<ellipse fill="#5987b3" fill-opacity="0.501961" cx="234" cy="21" rx="36" ry="4" />
<ellipse fill="#000b01" fill-opacity="0.501961" cx="44" cy="118" rx="2" ry="23" />
<ellipse fill="#4f412b" fill-opacity="0.501961" cx="4" cy="44" rx="10" ry="1" />
<ellipse fill="#4e88c7" fill-opacity="0.501961" cx="69" cy="102" rx="3" ry="10" />
<ellipse fill="#6393bb" fill-opacity="0.501961" cx="78" cy="96" rx="1" ry="16" />
<ellipse fill="#778da4" fill-opacity="0.501961" cx="163" cy="93" rx="29" ry="4" />
<ellipse fill="#296597" fill-opacity="0.501961" cx="150" cy="113" rx="1" ry="13" />
<ellipse fill="#22434a" fill-opacity="0.501961" cx="172" cy="119" rx="3" ry="3" />
<ellipse fill="#183c40" fill-opacity="0.501961" cx="164" cy="122" rx="4" ry="3" />
<ellipse fill="#011804" fill-opacity="0.501961" cx="0" cy="134" rx="17" ry="15" />
<ellipse fill="#7a382c" fill-opacity="0.501961" cx="92" cy="55" rx="3" ry="1" />
<ellipse fill="#010d0c" fill-opacity="0.501961" cx="187" cy="67" rx="26" ry="6" />
<ellipse fill="#bd672f" fill-opacity="0.501961" cx="144" cy="53" rx="10" ry="1" />
<ellipse fill="#84a6c3" fill-opacity="0.501961" cx="69" cy="91" rx="11" ry="3" />
<ellipse fill="#2d679e" fill-opacity="0.501961" cx="105" cy="110" rx="4" ry="7" />
<ellipse fill="#306ca0" fill-opacity="0.501961" cx="115" cy="118" rx="1" ry="8" />
<ellipse fill="#4575a7" fill-opacity="0.501961" cx="180" cy="102" rx="7" ry="5" />
<ellipse fill="#0e2b1e" fill-opacity="0.501961" cx="63" cy="112" rx="6" ry="3" />
<ellipse fill="#000f00" fill-opacity="0.501961" cx="153" cy="144" rx="2" ry="27" />
<ellipse fill="#25619c" fill-opacity="0.501961" cx="122" cy="120" rx="6" ry="8" />
<ellipse fill="#709ac3" fill-opacity="0.501961" cx="156" cy="23" rx="67" ry="2" />
<ellipse fill="#384c5c" fill-opacity="0.501961" cx="102" cy="70" rx="8" ry="1" />
<ellipse fill="#000600" fill-opacity="0.501961" cx="190" cy="136" rx="8" ry="22" />
<ellipse fill="#3f7ec1" fill-opacity="0.501961" cx="70" cy="106" rx="2" ry="8" />
<ellipse fill="#6f98be" fill-opacity="0.501961" cx="7" cy="29" rx="26" ry="3" />
<ellipse fill="#061b11" fill-opacity="0.501961" cx="110" cy="121" rx="2" ry="6" />
<ellipse fill="#a9b5c2" fill-opacity="0.501961" cx="191" cy="88" rx="8" ry="2" />
<ellipse fill="#4786cb" fill-opacity="0.501961" cx="185" cy="111" rx="4" ry="2" />
<ellipse fill="#3a4447" fill-opacity="0.501961" cx="53" cy="91" rx="3" ry="1" />
<ellipse fill="#14160f" fill-opacity="0.501961" cx="48" cy="58" rx="9" ry="4" />
<ellipse fill="#606a6a" fill-opacity="0.501961" cx="212" cy="92" rx="4" ry="3" />
<ellipse fill="#1491e7" fill-opacity="0.501961" cx="133" cy="141" rx="1" ry="4" />
<ellipse fill="#7c94aa" fill-opacity="0.501961" cx="99" cy="91" rx="23" ry="2" />
<ellipse fill="#000b04" fill-opacity="0.501961" cx="65" cy="80" rx="11" ry="5" />
<ellipse fill="#171b13" fill-opacity="0.501961" cx="193" cy="99" rx="2" ry="5" />
<ellipse fill="#05231a" fill-opacity="0.501961" cx="146" cy="148" rx="2" ry="9" />
<ellipse fill="#010c00" fill-opacity="0.501961" cx="219" cy="110" rx="32" ry="2" />
<ellipse fill="#011302" fill-opacity="0.501961" cx="118" cy="143" rx="13" ry="6" />
<ellipse fill="#6191c0" fill-opacity="0.501961" cx="147" cy="20" rx="60" ry="3" />
<ellipse fill="#010e05" fill-opacity="0.501961" cx="39" cy="81" rx="7" ry="16" />
<ellipse fill="#e0b37d" fill-opacity="0.501961" cx="75" cy="47" rx="33" ry="2" />
<ellipse fill="#000500" fill-opacity="0.501961" cx="237" cy="146" rx="19" ry="69" />
<ellipse fill="#506b72" fill-opacity="0.501961" cx="216" cy="85" rx="2" ry="3" />
<ellipse fill="#000f01" fill-opacity="0.501961" cx="74" cy="135" rx="43" ry="18" />
<ellipse fill="#132446" fill-opacity="0.501961" cx="185" cy="54" rx="29" ry="1" />
<ellipse fill="#071907" fill-opacity="0.501961" cx="198" cy="114" rx="26" ry="1" />
<ellipse fill="#030b0c" fill-opacity="0.501961" cx="95" cy="67" rx="15" ry="2" />
<ellipse fill="#455541" fill-opacity="0.501961" cx="214" cy="95" rx="8" ry="1" />
<ellipse fill="#19324d" fill-opacity="0.501961" cx="117" cy="63" rx="10" ry="1" />
<ellipse fill="#04140d" fill-opacity="0.501961" cx="253" cy="65" rx="14" ry="11" />
<ellipse fill="#425d76" fill-opacity="0.501961" cx="185" cy="76" rx="4" ry="3" />
<ellipse fill="#156a93" fill-opacity="0.501961" cx="136" cy="136" rx="1" ry="3" />
<ellipse fill="#56799d" fill-opacity="0.501961" cx="128" cy="98" rx="62" ry="2" />
<ellipse fill="#fe742c" fill-opacity="0.501961" cx="62" cy="54" rx="8" ry="2" />
<ellipse fill="#4e789e" fill-opacity="0.501961" cx="200" cy="102" rx="4" ry="2" />
<ellipse fill="#345d5d" fill-opacity="0.501961" cx="42" cy="103" rx="1" ry="3" />
<ellipse fill="#005c9d" fill-opacity="0.501961" cx="73" cy="0" rx="226" ry="2" />
<ellipse fill="#b4afa0" fill-opacity="0.501961" cx="30" cy="40" rx="26" ry="3" />
<ellipse fill="#5a6a7b" fill-opacity="0.501961" cx="59" cy="89" rx="4" ry="2" />
<ellipse fill="#2f4a5f" fill-opacity="0.501961" cx="187" cy="106" rx="3" ry="2" />
<ellipse fill="#e2b690" fill-opacity="0.501961" cx="116" cy="73" rx="6" ry="5" />
</g>
</svg>