<svg height="680" width="1024" xmlns="http://www.w3.org/2000/svg"><path d="m0 0h1024v680h-1024z" fill="#80682c"/><g fill-opacity=".501961" transform="matrix(4 0 0 4 2 2)"><path d="m192.997716 13.928329 78.002284-14.652323-287 .784817 194.348697 68.679538z" fill="#ffff59"/><path d="m259.534215 185h-274.298365l22.311643-77.29511 251.31772-.278998z" fill="#13171e"/><path d="m-16 33.899441 287-18.085321-19.918704-31.81412h-245.77453z" fill="#ffdf5e"/><path d="m136.071181 18.922284 30.702974 114.372301-83.531242 8.714432-61.684133-58.518433z" fill="#835300"/><path d="m212.04942 118.533858-4.10072-108.114205-16.446571-.420749-3.955465 50.515471z" fill="#19273b"/><path d="m168.392017 102.991705 21.067972-86.512248-49.956135-4.236303 1.243783 66.179626z" fill="#ffab20"/><path d="m271-1.499228-58.206643-14.500772-3.277312 76.884727 23.981721 2.290892z" fill="#e9bd58"/><path d="m28.290026 56.198702-29.292093 117.840872 74.502795 10.960426-26.273441-132.143181z" fill="#273232"/><path d="m64.556739 81.066648-16.459477-66.450506 82.180444 21.036195-128.023645-9.674422z" fill="#d19834"/><path d="m151.838469 185 119.161531-10.108953-57.528678-99.944959 57.528678 15.996872z" fill="#24292d"/><path d="m122.356286 22.473962 116.371445-21.894688-188.726971-13.231141 63.163403 72.208558z" fill="#ffe160"/><path d="m90.715004 29.109427-30.956832-1.383904 1.250108 78.391491 29.394683-65.372072z" fill="#553b00"/><path d="m184.481884 158.303177 5.638557-69.862344-26.415189 15.32508 40.557466 10.041279z" fill="#948778"/><path d="m126.5046 87.334735-7.986605-66.250457 16.742743 1.124377 4.986221 18.8931z" fill="#663d00"/><path d="m16.04352 55.84246-32.04352 10.108094 43.09244 37.969893 21.083596 52.91937z" fill="#a68c5b"/><path d="m126.3193 16.95993-133.335595-8.277333 97.979284 19.896058 2.245915 44.106758z" fill="#f5aa1e"/><path d="m185.664309 47.144952 10.049358-63.144952-207.163394 18.277211 183.537133 7.143536z" fill="#ffe982"/><path d="m203.985244 44.166922-12.331406-31.309497 22.143411-1.217486-13.607248 54.816001z" fill="#182128"/><path d="m243.630513 158.307107-10.534966-26.745757-20.548337 23.479161-1.022105 29.959489z" fill="#586565"/><path d="m133.007349 92.55603-44.209022 92.44397 30.933421-43.063385 4.299086 18.681102z" fill="#887553"/><path d="m160.380274 128.293593-95.438003-37.67737 20.797818-51.372286 95.87365 75.556451z" fill="#825800"/><path d="m271 168.991354-89.584759-13.437419-197.415241 6.977497 41.558122 22.468568z" fill="#1c251f"/><path d="m181.628026 79.092596-.878759-33.196794 54.022571 52.895143-14.10999 26.212945z" fill="#5e5241"/><path d="m182.041956 160.811569 10.646219-22.411161-40.996524-6.236386 33.032705 9.726674z" fill="#6783a6"/><path d="m49.561438 7.634602-38.945145 46.34492 37.342795-2.448892 15.420661 37.971522z" fill="#cb9f38"/><path d="m9.320639 65.089544 43.249985 2.964782 21.899696 110.885724-29.417659-129.705423z" fill="#69614e"/><path d="m142.261934 75.13014 22.295267 79.103568-22.330198-15.154222-6.583405-43.221666z" fill="#4b3200"/><path d="m152.414359 45.386715 26.244593-8.836594 2.161215 29.563259-19.505416 49.926568z" fill="#be8618"/><path d="m-8.1202 25.416857 29.545653 97.017107-11.015001-29.358127 21.546249-74.84634z" fill="#997a28"/><path d="m271 172.018977-30.550727 12.981023 2.110696-35.327431-12.320757-32.281298z" fill="#000f18"/><path d="m41.139653 185-13.31958-38.725419-35.553737-25.275049-3.197896 33.504413z" fill="#1d3a51"/><path d="m22.488945 120.618911 54.320271 53.266367 32.031365-45.854358-105.515821 14.181205z" fill="#392f0a"/><path d="m92.951436 96.416023-42.915026 22.971242 114.906881 32.182584-37.979557.400548z" fill="#715a31"/><path d="m271 56.713259-36.504911 20.992018-6.44808-46.514119 27.195369-6.976157z" fill="#977a32"/><path d="m201.938374 3.871266-127.564637 9.29525 66.840585 10.214857-2.123703 38.979068z" fill="#ffc638"/><path d="m220.514138 34.947944-11.61464 5.173486 7.943953-56.12143 11.360672 41.564924z" fill="#e7bf63"/><path d="m124.812119 5.073665 144.69128-4.958495-217.241707-2.25787 86.574429 17.774209z" fill="#fff590"/><path d="m15.221391 82.463712-8.973652 8.06904 23.292168 8.092506-5.327872-15.379526z" fill="#a99885"/><path d="m68.875374 157.410055-25.888376-23.22881-21.773393-62.05096 27.465639-6.490962z" fill="#463a13"/><path d="m120.995095 55.512431-26.577545-14.921968-19.70724 22.419994-.31366 33.18291z" fill="#a37400"/><path d="m263.330226 96.911527-77.475444 88.088473 23.967222-113.995124 7.087274 35.64664z" fill="#493418"/><path d="m216.394326 60.517125 54.605674 19.82243-86.094509-9.922838 4.456584 88.417691z" fill="#746446"/><path d="m248.643275 152.577971-.744.294018 16.498996-46.455116-16.519036 4.164546z" fill="#655e5c"/><path d="m-16 3.229308 122.147751 17.856398-91.953679-37.085706-3.309681 37.91179z" fill="#ffca45"/><path d="m177.10507 96.548602 9.168142 9.199096 10.304182 4.105057-31.415805-4.821856z" fill="#a19599"/><path d="m29.962885 98.993325-17.250689-7.572533-26.512812 22.602102 18.867408 33.269969z" fill="#625643"/><path d="m179.647264 138.94406 1.638461 12.977063 19.74774 33.078877-57.995532-7.856202z" fill="#2c1e00"/><path d="m53.253332 83.700835-4.574885-25.996343 2.561389-32.793587 7.86441 36.466608z" fill="#d2a55f"/><path d="m64.282975 58.28789 28.657152-27.313558-24.928313.648686-17.145864-.140649z" fill="#5d4301"/><path d="m158.445903 94.422969-20.305766-15.007725 64.14198 7.324861-14.132512 9.360373z" fill="#a57c33"/><path d="m119.803956 44.224441-.034413-25.728149-20.889432 3.698024 17.285386 35.150726z" fill="#ffbe41"/><path d="m97.951222 149.046482 15.823094 1.99724-24.888831 33.956278 20.048051-48.87959z" fill="#606163"/><path d="m119.681143 112.601381 10.330032-20.567145 9.313106 16.716946-19.848093 30.533953z" fill="#9a6d2c"/><path d="m67.054214 152.350915-8.628375-75.730544 65.305211 46.579326-23.035925-56.565122z" fill="#6c4d0f"/><path d="m245.653228 76.781017-36.18091 3.575496 41.069349 31.261864 20.458333-30.427924z" fill="#513c20"/><path d="m23.301021 55.632898 28.010652-6.998452-14.862386 20.78925-15.715777 3.103995z" fill="#565346"/><path d="m167.178319 30.775574-15.480873-11.937952-5.129906 60.723621 33.478835-33.494079z" fill="#df9e15"/><path d="m161.835657 137.238744 14.25856-1.034813-6.500618-3.590436-8.052781-.620384z" fill="#81838f"/><path d="m236.209175 159.321525-15.662614-3.440039-12.085799 26.909539 5.036298-32.586646z" fill="#6a6e63"/><path d="m235.457557 133.209791 6.00679 30.417701-10.480978-23.298079-51.032797-14.496644z" fill="#605d4f"/><path d="m226.894703 86.58611-8.466263 29.990481-3.223116 7.238381.332914-16.241579z" fill="#76695f"/><path d="m-16 182.563432 28.965336-25.47278.034155 6.9893-16.921883 19.801319z" fill="#000001"/><path d="m108.683998 120.523572-6.767454 3.051074-5.649873-21.40324-22.336969 4.262434z" fill="#8e6e3c"/><path d="m201.629528 66.806121-10.551028-54.608912 15.47119-3.794588 5.221773 10.152566z" fill="#3a3b31"/><path d="m254.243594-17.1079-89.611879 33.433459 77.840555-14.593788 15.353597 14.614201z" fill="#face70"/><path d="m31.967183 102.326233-13.162717-38.556847 2.800449-12.204527 16.276609 56.952753z" fill="#35311e"/><path d="m158.892978 60.127935-1.422883 33.335624-9.817796-7.11651 35.143138-20.184901z" fill="#c1964a"/><path d="m231.453286 155.537168-38.682205-13.585418 11.311565 26.764836 19.833928-37.125111z" fill="#25251a"/><path d="m167.558134 128.959664-2.480225-22.802167 24.173318 3.226722-5.241969 23.592682z" fill="#513a03"/><path d="m136.543198 144.941275 30.410512 5.759412-11.398873.029495-5.862931 3.774671z" fill="#7f7357"/><path d="m236.676134 80.007364.716588-9.048872 23.501459 4.681306-27.975896 1.545693z" fill="#95887b"/><path d="m-5.592842 18.268341 27.305138-12.751823 35.376459 7.029954-3.94902 11.388198z" fill="#dbab31"/><path d="m167.233765 94.750843-5.015794 19.490306 8.258214-16.325538 2.475349-7.066632z" fill="#615130"/><path d="m188.246555 152.108641-4.432491-14.457235.380979 11.566366-2.646627 6.702262z" fill="#668fbd"/><path d="m36.42341 157.697063 65.175229 27.302937-28.635773-17.502194-51.007846-18.211152z" fill="#161309"/><path d="m4.812873 142.507202 99.076185 36.351326-87.619471-36.889895 4.615104 43.031367z" fill="#37484f"/><path d="m188.564042 22.144504-1.768456 25.999179-21.611807-20.340094 9.375056-10.383878z" fill="#f5b54e"/><path d="m173.004796 150.843912-32.447029-45.533935-7.933644 47.00683-10.015986-15.002433z" fill="#4c3607"/><path d="m36.95355 151.69766-21.115661-14.296368-.860561-11.253062 22.874332 1.206173z" fill="#1e2319"/><path d="m109.2664 58.176898.714799 5.428951-3.008347-28.172492-20.187158 2.901084z" fill="#bf8c28"/><path d="m49.11978 59.281809 5.519261 33.773797 7.106933-25.876232-47.683155.854682z" fill="#8a764d"/><path d="m20.536454 55.493528 2.855203-29.461021-39.391657 5.177601 62.690953 5.685034z" fill="#9e7f21"/><path d="m139.977766 30.530999-1.660963 64.046386-36.695645 20.454045 23.869775-81.782886z" fill="#795312"/><path d="m206.322109 179.681759-1.720322-23.241067 8.175546-11.422887-5.40176 39.982195z" fill="#110b00"/><path d="m10.589377 129.073355-14.522715-24.509363 35.474874 3.89412 1.504057 7.526031z" fill="#524321"/><path d="m185.542963 133.409238 1.760038-36.771802 8.207503 49.189081-12.327426-8.774166z" fill="#6b5629"/><path d="m24.597272-.41307 112.915439 16.660351-124.451652-32.247281-29.061059 36.53119z" fill="#ffe366"/><path d="m252.173559 167.738465 18.826441.74592v11.927227l-18.25477-19.763777z" fill="#0052a2"/><path d="m214.564821 52.506533 37.99709 20.314395-4.242589-18.702446-40.515922 14.382634z" fill="#a27e42"/><path d="m141.591119 30.584588-9.896712-12.800779 21.559948-4.391308 19.125194 17.539112z" fill="#ffc420"/><path d="m21.09403 80.648064-2.841045-19.924747 13.666682-48.038727-26.87268 73.556413z" fill="#b0872b"/><path d="m266.364602 119.79448-16.749105 2.130971-5.135884 13.906596-41.486888-9.781187z" fill="#2f2510"/><path d="m166.96228 157.628879-39.131592-10.991051-5.464942 14.101563-32.624137 16.541473z" fill="#363c23"/><path d="m213.182916 103.138428 26.863884.958364-27.110421-13.718918 15.60614.055629z" fill="#7b675b"/><path d="m74.942259 179.271705 43.61742-41.28233-9.889877-14.658936-9.888317 23.606527z" fill="#594c38"/><path d="m240.310088 90.887565 30.689912 5.279841-48.149937 2.374732-5.120447-1.721601z" fill="#382d13"/><path d="m7.252234 73.085294-9.411857 22.01719 35.938291 11.772451-43.470655-29.887592z" fill="#8d7655"/><path d="m210.456263 100.430748-13.007126 42.401589 8.543624-62.902663 31.882174-10.440304z" fill="#524222"/><path d="m200.508732 53.675828 6.73776 31.455552-19.467421-.451571 2.179833-69.42577z" fill="#5e5c40"/><path d="m250.362049 46.109208-31.412163-4.288109 28.921954 13.57629 15.839312 34.361435z" fill="#82661f"/><path d="m221.496871 90.831019 3.67304.55867-.773168 2.582048-10.016932-1.865227z" fill="#ae9e98"/><path d="m239.710433 136.917799-6.126987 13.728672-11.850594-21.360691 40.757989 17.275311z" fill="#616360"/><path d="m213.112098 52.390497 43.615771-39.252189-29.475216-2.728494-9.724208 18.632682z" fill="#c3a13d"/><path d="m46.368205 50.191747 8.905302 20.668105 4.123432-4.5184-6.961846-36.368279z" fill="#d7a54f"/><path d="m161.230017 93.004823-.744863 58.691892 4.120396 13.897896-16.736917-68.569376z" fill="#875a00"/><path d="m170.439036 1.135857-61.788432 2.19366-39.364179-2.734376 50.972401-16.595141z" fill="#fdfda3"/><path d="m-16 125.251943 22.445241 23.341267 6.339552 2.910558-27.178691-1.419819z" fill="#121706"/><path d="m108.7185 8.647476-37.800066 15.583032 40.240281.174062 79.592114-22.052654z" fill="#ffd94a"/><path d="m152.569019 66.242372-6.508808-24.15967-4.420728 5.155667.527921 11.879504z" fill="#efb150"/><path d="m271 148.30189-37.373797-43.239754 13.326752-2.181447 14.096908 82.119311z" fill="#6f4013"/><path d="m44.873554 164.487247-33.59155-7.231142 14.968661 7.415851-.684906.655399z" fill="#151712"/><path d="m248.665293 109.891162 1.563762-.781589 19.445399 75.890427-6.573828-54.215898z" fill="#2f260b"/><path d="m53.704676 158.469018 35.164724-33.944428 13.82317 7.841904-13.566864 31.002178z" fill="#413508"/><path d="m86.032048 119.41684-21.397711-9.246367-8.196338-26.490373 11.108429 66.823587z" fill="#654d2a"/><path d="m231.451078 69.068447 3.819069 28.261408 17.174834-20.562755-46.704744 2.794183z" fill="#705c3e"/><path d="m62.666017 77.858065 19.491026-19.757945 4.332486-27.32229-32.012183 3.814849z" fill="#654c0c"/><path d="m40.007311 52.00199 4.256959-1.064302 6.007241 9.636765-24.698146-6.439989z" fill="#4a4436"/><path d="m93.538548 62.388075 17.593987-28.508479 1.876474 2.148533-21.849472 10.158264z" fill="#c28800"/><path d="m207.232546 76.995435-2.940693 2.398384-11.338996 54.734409-4.935625-24.946696z" fill="#846d41"/><path d="m118.304861 22.470633 19.990347 7.529488-.758215-8.566018-4.119355 66.667734z" fill="#795506"/><path d="m153.53196 157.315031 24.285457 5.705068-.207202.385851-18.727324-23.472416z" fill="#5a461a"/><path d="m246.748322 113.410197 7.329132 1.656062 16.922546 8.057976v-22.99551z" fill="#847b71"/><path d="m104.633193 182.05128 12.18486-14.068673 12.469343-23.525105-2.914303 1.045948z" fill="#5c5e4c"/><path d="m258.489374 185-10.451827-31.963655 15.241383-8.220984-23.857135 19.790125z" fill="#060a05"/><path d="m229.050734 68.088242-8.752171-8.230316 50.701437 16.550538-17.519558-2.736258z" fill="#745822"/><path d="m3.454322 176.388371 8.639248-10.875307 2.944848-5.107699 9.346226 5.462531z" fill="#1d4b6a"/><path d="m79.567606 98.23471 17.972528 2.616763-29.106892 8.632453-2.963049-18.624785z" fill="#694800"/><path d="m13.531762 138.654872-5.144735 2.89339-24.387027-39.893252v12.71331z" fill="#1e231f"/><path d="m-8.610868 54.146708 19.706174 18.635565-27.095306 27.134746 26.401676-13.076551z" fill="#836622"/><path d="m198.987521 83.320642 4.13385-25.904684 3.182595 31.647775-9.527556 39.781939z" fill="#5f6357"/><path d="m171.005167 79.546777-6.860329-27.720306-10.984022 28.130236 3.174797-35.146764z" fill="#be8607"/><path d="m97.041908 181.74897 18.712059-38.599137-10.692877 8.037066-8.886662 16.443299z" fill="#595e60"/><path d="m208.039744 36.083212-11.637524-3.185948 4.612089-19.131284 10.897738-2.12027z" fill="#2a2e27"/><path d="m249.330903 157.489739-6.334359-19.137194 10.948023-11.081505-4.843276 17.547735z" fill="#22394a"/><path d="m198.72065 119.705843 6.808609 32.83784 5.416159-22.400334-1.625446-26.603957z" fill="#433310"/><path d="m249.981874 126.221894 21.018126 13.349967v38.630172l-22.018797-67.527625z" fill="#7c6f65"/><path d="m254.976839 185-48.669209-57.399175 17.312374 30.20037-17.315409 27.198805z" fill="#434941"/><path d="m-7.470319 86.392636-8.529681-38.799369 15.59729 27.457954 12.640811 1.507918z" fill="#a99577"/><path d="m247.072765 66.988011 2.670388 3.354883 6.884216-9.332891-44.27418 12.435854z" fill="#9b8156"/><path d="m13.827501 39.843751 5.761511 24.025556-20.042262-3.432124 26.295122-7.479953z" fill="#af914d"/><path d="m59.432366 94.672736 7.088889 52.246214-21.915192-111.031481 12.056862 65.237143z" fill="#837044"/><path d="m153.633415 98.603551-4.465059-18.563699-2.300072 3.07945 12.588979 5.060519z" fill="#b99356"/><path d="m171.167943 93.520254-40.464197-21.402413 26.336918 10.738826 20.424365-6.944972z" fill="#a77915"/><path d="m6.580238 129.916292-.774864 1.047989 7.993502 3.158068-1.409737-7.158244z" fill="#5a6778"/><path d="m53.31335 16.441766.389312 32.923194-30.959307 4.895488 19.839685-24.233738z" fill="#c59930"/><path d="m147.920665 129.65309-11.285696 9.043641 24.033826 1.097926-13.052013-12.207533z" fill="#342500"/><path d="m193.252911 160.995643-42.313008 24.004357 7.368759-36.774213 2.377944 23.768639z" fill="#1e1703"/><path d="m43.752688 104.639266 3.601585-36.186343 10.285814 41.136212 8.036784 41.962926z" fill="#56471d"/><path d="m133.651012 28.834401-8.08303-5.047438-2.906363-2.671636 10.117351-1.053127z" fill="#af8225"/><path d="m26.380593 80.144703 10.669082 3.309164-3.654414-14.228268-11.876276 2.964134z" fill="#2d280d"/><path d="m167.346317 70.036155 11.851727 4.470445 1.710923-19.602801 6.219959-20.87374z" fill="#cc993f"/><path d="m187.611876 150.857452 1.981332-13.212484 20.254731 35.48641-6.619364-13.439394z" fill="#454743"/><path d="m163.961127 118.89392-2.50886-7.962306-5.123736-1.182295 6.71995-29.050835z" fill="#b57a00"/><path d="m85.885145 48.577743 45.205484-2.578312 2.311978 23.589743-16.914741-24.237593z" fill="#956914"/><path d="m232.88134 7.081474-24.708384 32.824305 11.682919-55.905779 36.628214 29.860997z" fill="#dfbb5a"/><path d="m197.659792 39.579462-6.170164-27.743631-1.837965 22.705619-8.419435 31.625723z" fill="#5b4e25"/><path d="m22.845021 76.022166 2.575656 23.614664-2.954971-1.273299 11.50552 12.72543z" fill="#77746b"/><path d="m184.527694 10.332396 86.472306-19.39453-8.988395 16.456-89.139999-23.393866z" fill="#ffd97a"/><path d="m55.403588 159.157813-28.106698-23.870779 2.27013-31.838915 11.392214 34.666858z" fill="#3f3e2f"/><path d="m39.832792 153.187882 32.046617 12.105846-.047327.843913-8.881091-1.717783z" fill="#555a5b"/><path d="m104.892457 53.151747-30.451488 52.183549 41.904537-51.78805-4.431571 48.178517z" fill="#916503"/><path d="m208.37099 68.032422-5.842543-2.993793 2.102108-24.981174 5.928459 13.678769z" fill="#373f3f"/><path d="m146.693562 151.331555-9.292872-2.010435-1.785716-4.69629 29.49747 9.023169z" fill="#817457"/><path d="m98.436582 41.935136 3.596508-3.957689-6.695615.069699-5.036656 3.982606z" fill="#cea46e"/><path d="m132.568077 123.656975-9.78353 27.668301-21.739133-20.454456 42.968981 2.611548z" fill="#685833"/><path d="m88.411697 28.436772 2.419523 16.029729-32.096908 57.973668-2.608802-17.627433z" fill="#71540c"/><path d="m7.17404 147.114145 12.338031-6.845699-8.543977 8.669149-26.968094-47.944573z" fill="#485e6b"/><path d="m244.535599 101.708835-14.153111 1.264136-5.329363 11.241346 23.21374 13.501349z" fill="#502e0f"/><path d="m7.856051 48.770967-2.638078-6.455223-21.217973 35.60207v-52.682245z" fill="#af924d"/><path d="m101.227148 4.014479-84.239086.924609 54.878332 7.077697 2.308922 12.480351z" fill="#ffd24f"/><path d="m210.209621 135.830928 13.711255-9.555848-3.484345 7.28245-1.956654 7.550305z" fill="#665d47"/><path d="m39.870666 32.691083-14.891953 13.041223-14.789389-9.491839 20.774135-2.779999z" fill="#937826"/><path d="m120.372519 37.263084-2.221964 7.823909-16.317538 1.932543 10.196318-7.361252z" fill="#f8bc4f"/><path d="m226.789155 156.204572-14.725725 4.763163 12.772929 21.574964-13.276625-33.155516z" fill="#656b63"/><path d="m134.670607 142.965015-9.82821 15.551079 5.503876-18.204848 27.574387 7.356459z" fill="#372b06"/><path d="m89.565376 101.087903-9.662572 12.4813 4.237553 1.799239 15.205385-5.030531z" fill="#876d3f"/><path d="m230.757636 44.908202 10.685002 17.464866 2.134814-8.380113-35.810223-2.983719z" fill="#be964a"/><path d="m173.668732 94.113646-6.371712 11.425472 24.860203-1.920143-24.939854-9.434321z" fill="#988a84"/><path d="m263.565378 101.310473-45.238531-6.521879-.74418 6.3868 18.82823-11.349486z" fill="#41351f"/><path d="m227.234668 130.990964-34.716501 31.405519 31.31001-17.368245 4.652014 20.464969z" fill="#2d2b1f"/><path d="m32.420229 63.390392 4.32236-9.416618-14.623714 1.745935 28.346056 7.101775z" fill="#6a685f"/><path d="m27.359416 96.181439-12.054582-3.496701 4.34167-6.829705 3.559542-3.32379z" fill="#a79985"/><path d="m215.325717 118.825872 11.792721-23.134355.677703 10.312756-10.224355-6.692415z" fill="#7f6d5c"/><path d="m151.57477 89.004827 3.917132-12.041333-16.408742-3.573699 1.223589-25.21831z" fill="#be9034"/><path d="m-5.689849 36.915523 29.531752 17.910273-27.97166 4.69485 19.928706-23.749192z" fill="#81681b"/><path d="m197.768771 156.27507 34.808132 28.72493-42.250953-30.252113-44.156073 30.252113z" fill="#27200b"/><path d="m236.607404 148.996326-7.968854 1.471824-.489595-12.393996 8.082374-.814836z" fill="#646b6b"/><path d="m169.067077 93.167245 26.879612 4.637544-20.442365-1.435396-11.665862 9.149954z" fill="#6d604d"/><path d="m74.291167 30.122262-7.448281-3.565268 1.126425 5.909828 17.730802-4.674339z" fill="#9d7e4f"/><path d="m37.820968 16.587812-42.448688 4.30052 43.795663 11.085006 3.955797-15.505837z" fill="#bd9530"/><path d="m222.515688 69.784645 20.012118-5.942255-6.070113-27.229153 7.637104 9.601917z" fill="#8c6a1a"/><path d="m101.878544 48.333129 3.547272 10.564378 12.007833-4.363768 7.646729-2.968887z" fill="#a77d30"/><path d="m62.551436 59.817696 2.880852-33.882934-9.936316 7.722689.375118 10.973928z" fill="#5a4512"/><path d="m112.334491 98.527118-2.510375 22.975172 5.922204 13.194738 3.228788-35.921538z" fill="#593e0a"/><path d="m270.802443 88.410302-18.016782 47.297874 1.939588 14.279298 16.274751-7.897231z" fill="#835713"/><path d="m151.363573 174.643762-7.590275 5.483173 10.869745-26.51252 2.978506-4.266035z" fill="#585545"/><path d="m117.823202 165.270017 19.399829 5.686442 11.100727-7.555646-16.76713 21.599187z" fill="#121906"/><path d="m179.360947 140.484028 4.46962-2.97038-2.539827-.746717-18.957851-2.825471z" fill="#5d77a0"/><path d="m76.848046 27.422665 34.769456 5.186499 13.633653-14.497183-109.623199-14.746343z" fill="#f9c03b"/><path d="m7.099775 117.724897 30.774889 15.326066-28.558662 16.296978 16.630098-.040749z" fill="#282a1d"/><path d="m45.113298 153.865517-4.805077-13.198506-7.127576-30.720453-.267184-2.482149z" fill="#5f6662"/><path d="m187.610461 140.458493-3.418905 1.295542-1.614406 10.57112 5.322813-2.768349z" fill="#6d8baf"/><path d="m74.646268 118.120636 27.466221-9.572923-22.269473 7.183312-28.249693-6.84678z" fill="#7c653f"/><path d="m119.767525 35.884376 6.196568 27.038241 13.714313-33.524181-6.832134-5.209844z" fill="#73530a"/><path d="m124.540292 105.876537 13.777992-23.487409-1.475371 10.464891-12.187271-3.35611z" fill="#916522"/><path d="m87.882577 103.720854 17.92414-8.604353 4.833008-33.383216-7.710593-6.683459z" fill="#7b5700"/><path d="m120.802374 98.776137-2.001825-51.422791-11.671491 70.040349-24.022333.519249z" fill="#78530f"/><path d="m117.201102 144.15391 5.128457-29.865619 1.521485 35.574524 5.422444-49.593785z" fill="#90733c"/><path d="m159.557753 127.914737 36.780383 9.031137.783078-14.249903-1.956068 21.746764z" fill="#595546"/><path d="m1.791483 73.244048-.231476-7.654247-17.560007 17.660797v-16.388254z" fill="#544711"/><path d="m103.922418 122.646256-1.394586 31.1105 12.176964-14.621151-52.243186 1.890677z" fill="#544113"/><path d="m244.500611 47.182441-2.704193-11.705471-8.53106 1.178008 17.885854 5.805399z" fill="#ab924f"/><path d="m225.465327 115.796145-2.268032 3.534145-.106595-13.121429 3.574203-24.153242z" fill="#685b4b"/><path d="m156.729198 144.674614 10.965495-1.58749-31.35786-26.382373 2.505057-38.020145z" fill="#5a3e02"/><path d="m75.574439 166.736259-56.966729-23.326515 26.896213 9.059389-6.757689-26.627583z" fill="#36321e"/><path d="m205.399264 77.713452 14.15869 5.091317 4.142678-6.302631-10.876761-9.94984z" fill="#765830"/><path d="m-6.46876 185 11.923148-12.77484 10.514067-13.790887-12.197249 8.106517z" fill="#000400"/><path d="m271 58.8214v16.48297l-28.827341-3.99476 8.274706-1.958425z" fill="#594a21"/><path d="m21.825792 37.459301 14.595026-7.047494-4.860072-3.183535 3.276451-3.337802z" fill="#af9555"/><path d="m160.951369 49.367093 17.134599-24.398318 1.879282 32.003558 10.342111-37.775776z" fill="#e8b149"/><path d="m254.371432 65.919736-31.099433-21.368564 14.10385 6.163699 7.889184 16.125199z" fill="#ae8f4e"/><path d="m271 40.685542-7.210645-18.492647-15.009522-8.505294-18.441334.969238z" fill="#b49a3b"/><path d="m23.631715 63.157893 14.089165-.81705 13.21439 2.665463-28.130799 4.525825z" fill="#6f6d58"/><path d="m93.623572 80.305492-.789729-11.116498-2.626565-40.957529-11.409304 41.262671z" fill="#876200"/><path d="m164.472573 68.367139 4.024777-8.173441 42.92821-16.243966-48.580654 18.03629z" fill="#836724"/><path d="m89.297978 23.537 2.5324 22.448046 9.17916-21.428961 15.822022 18.074149z" fill="#ebad32"/><path d="m14.86887 151.801567-11.90264 11.166993-1.496956-8.656331 13.695301 2.165074z" fill="#354e60"/><path d="m198.905991 6.473543-23.432885 17.872761-19.281569-22.333148-38.793154 10.994997z" fill="#fdd85b"/><path d="m171.511741 94.217377-13.060437 36.789276 32.32641-19.681144-27.724585-4.637882z" fill="#5c4711"/><path d="m25.138119 148.062517-37.090131-43.13141 34.477744 40.294066 27.633235 12.573978z" fill="#505957"/><path d="m44.490976 32.854124 8.259462 38.160536-.462313 9.922503 9.434343 39.076999z" fill="#a48a53"/><path d="m177.729271 81.012865 15.246564 3.579277-.234274 12.467768-11.696377-3.741351z" fill="#a27a34"/><path d="m86.760679 164.329377 1.175582-11.159627-11.745711-21.662318-.549459 28.58641z" fill="#312a06"/><path d="m198.749476 63.718488-16.056396-17.63884-3.111737 25.482341 1.893756-4.5879z" fill="#62562f"/><path d="m36.211246 168.339957 16.758287-4.709308 58.9428 21.369351-65.846895-27.640405z" fill="#1c1808"/><path d="m176.126916 62.869485 5.496574-6.289053-24.828721-7.248663-10.786464.340603z" fill="#cf930c"/><path d="m217.860757 13.309647-3.467656-5.503284 8.022067-8.021888-27.330305 6.981252z" fill="#f3c768"/><path d="m78.502667 61.718964 13.145543 23.658759-4.238364 8.86523-13.633031-17.533985z" fill="#9e6e00"/><path d="m-13.45308 99.144506 34.702481-15.396576-37.249401 28.160307 21.040006 14.174615z" fill="#947d4f"/><path d="m35.175454 84.175052 11.381677 44.158557 20.43918-11.675254 10.5796 23.657466z" fill="#4f4320"/><path d="m63.363006 163.801923 31.845024-18.508611-23.742508 5.081602-18.530469 34.625086z" fill="#423825"/><path d="m265.576795 106.075539-33.265463-.611366-5.779901-7.404061 7.697652-1.206347z" fill="#664529"/><path d="m50.688821 32.935624 4.719618-22.539511-60.951241 5.937277 81.726048 4.266151z" fill="#dbad3a"/><path d="m36.986204 161.813576-12.021018-12.379074 17.046798 5.561095-38.977245 24.234997z" fill="#1f2424"/><path d="m235.963656 28.819777-3.789795 3.41081 18.304182-1.449887 16.694777 27.02858z" fill="#8a7428"/><path d="m61.401689 72.509578-6.963814 5.325455-3.592867-9.051852 8.295452-8.329931z" fill="#b7853a"/><path d="m44.311958 52.931258-26.196347 13.595669 3.804494-3.360318 17.228308-2.054267z" fill="#51472b"/><path d="m6.141383 5.666109-22.141383 5.948395 22.649623-27.614504h2.599016z" fill="#ffeb7d"/><path d="m271 82.905868-12.209407 11.309814-24.289699-10.817797 3.17979-8.805777z" fill="#62522f"/><path d="m221.446082 50.905536-10.038349 45.81829 6.564708-6.566058-10.775095 41.242525z" fill="#6f542d"/><path d="m-5.708209 185 66.841445-15.975357 21.285189 15.975357-46.026461-17.608412z" fill="#1d4566"/><path d="m216.915594 164.302335 23.774069 20.697665-8.976778-6.093329-15.130615-20.478651z" fill="#262718"/><path d="m215.77841 90.670886-.294493-19.838429-14.180669 34.917054 11.799124-16.656009z" fill="#4a3c23"/><path d="m110.520841 126.825261-2.497826 2.545574-3.641397-18.201579-1.981873 7.065982z" fill="#8e6f43"/><path d="m49.022741 42.66373-13.046772-9.870067 10.018258-7.464397-34.520657 33.060987z" fill="#b18821"/><path d="m244.124356 136.559969-.884008 19.515889 27.759652 2.862157-33.832358-10.912305z" fill="#131919"/><path d="m51.706378 64.91194-23.424818 21.490605 15.084825 51.93589-21.400767-67.168517z" fill="#3b3415"/><path d="m14.326153 95.559465 16.231946 6.052526-23.209038-1.288787-13.629377 18.817467z" fill="#7f6f5b"/><path d="m17.444387 120.236053 12.361678-16.242684-15.34799-3.268398-1.963428-11.307606z" fill="#635231"/><path d="m74.708904 28.866449-11.576244 27.939807 14.07548 2.123326 11.491317-29.181751z" fill="#684d08"/><path d="m208.866685 10.564032-10.844039.92835 8.137072 9.25461 7.749869-5.583488z" fill="#403e38"/><path d="m182.841911 141.3075-.267155 9.259046-7.2958-1.195116-14.44346-11.720114z" fill="#3e2f08"/><path d="m54.953965 3.188045 57.739877-19.188045-.485091 22.575402 100.817264-11.719572z" fill="#fdf594"/><path d="m3.224423 149.434018 7.564335-4.100518 6.140827-8.191796 4.170497 7.001615z" fill="#344d5a"/><path d="m159.504544 80.001773 10.821116.671948-14.053079-13.568373 9.40066-9.220775z" fill="#cc9a3f"/><path d="m188.018367 116.864998-1.869303 16.718733 8.893893-9.142564.388152-41.757063z" fill="#846733"/><path d="m128.166612 154.859067 9.374367 13.894177-13.730227-1.665963-4.627175-8.033052z" fill="#3b4932"/><path d="m57.603052 56.186256-8.005879-1.136651-6.169109-10.594868 11.634473-.171336z" fill="#d9a954"/><path d="m140.893779 56.645137 13.685784 10.303677-1.335128-30.046008-6.325153 42.280733z" fill="#d79d26"/><path d="m245.774735 72.488208 25.225265 3.711589-12.735351 1.951883-20.427561-3.846642z" fill="#8d8375"/><path d="m157.665069 68.242759 7.751451 15.465598-1.403476 28.925114-7.456241-43.341168z" fill="#bd8415"/><path d="m185.553029 113.862481-20.430291 8.47957 19.900042 11.182495 9.56974-60.962703z" fill="#4f3d14"/><path d="m271 17.97387-15.442953-13.733633-39.408304-20.240237 46.899932 8.246734z" fill="#fff79a"/><path d="m222.332097 91.960128 8.961589 12.923994-18.242811-4.355089 16.013986 1.421626z" fill="#85786f"/><path d="m107.868086 36.974903-17.80728 11.544741 7.842727 34.240998-1.715983-27.601351z" fill="#b07a00"/><path d="m83.589178 169.136053-23.35901-6.933538 25.80294 9.167782 10.164977-20.096268z" fill="#4f4f4e"/><path d="m17.584795 62.494574-5.608415 15.902344 2.376335.775478 9.43778 4.292701z" fill="#ad7f22"/><path d="m247.350401 102.343019 5.607335 16.99227 18.042264 62.953186v-33.744389z" fill="#39301c"/><path d="m-10.018539 53.987377 42.828103-27.748202-39.118103 4.501792 29.945303 7.688103z" fill="#967c31"/><path d="m245.562437 137.200409.132046-6.887148-37.533908-4.403102 19.844362 4.745663z" fill="#221f0e"/><path d="m63.071281 3.282997-9.708766 6.474002-24.234396-25.756999-24.204289 23.037112z" fill="#fed05c"/><path d="m119.703716 36.832559-.219288 9.780016-14.140745-5.706838 14.494273.427293z" fill="#fbc053"/><path d="m5.212633 165.292911-19.823047-45.792375-1.389586 54.426012v7.033543z" fill="#0f293d"/><path d="m67.781512 142.261703-11.552301 9.971443 13.162952 4.638385.586854-.303312z" fill="#363300"/><path d="m38.673097 56.397858 18.522568 80.769511-18.88423-74.742599-20.523396 10.068254z" fill="#635a3a"/><path d="m166.687285 104.937978 18.643834 1.716947-2.280932 3.788373-2.588758-11.136967z" fill="#a0978f"/><path d="m257.975411 119.860177-46.568965 5.103769 25.302764-14.614312-16.768457-2.602249z" fill="#46311a"/><path d="m66.450369 112.874939-7.547724-10.596342 6.598464-49.536192 10.281427 6.710355z" fill="#6d5013"/><path d="m96.338562 152.92065 12.733932-14.027688 28.60337.540172-29.762319-8.899127z" fill="#6a5735"/><path d="m214.851948 32.860385-5.264783 17.150211 12.142955-.836615-9.021816-3.262753z" fill="#d0a45a"/><path d="m205.557468 73.570115 6.637659 20.332647-3.093509 57.92109-.109114-88.439612z" fill="#4b3714"/><path d="m213.217721 67.55069 18.823069 2.181145-3.67548 2.236391-.93022.566766z" fill="#8f7a61"/><path d="m233.510887 148.948314-10.673454-1.709615-22.61059-10.290928 39.547849 21.606665z" fill="#3c423d"/><path d="m208.184796 165.959792-4.88142 19.040208 7.080528-39.093086 3.260179 1.997793z" fill="#161100"/><path d="m-9.947515 87.061421 4.163154 5.860527 11.854493-1.527174 10.984485-15.029008z" fill="#8e6b20"/><path d="m227.466093 35.111152 15.574209 1.410256-22.956988 10.779954-6.684913-4.292097z" fill="#b78e2f"/><path d="m149.047223 108.308619-2.080351-22.557115 20.03138 32.083714-14.156854 8.48011z" fill="#815800"/><path d="m31.16096 3.854154 2.19629 3.254639-48.616067 23.309503 1.608123-13.181224z" fill="#dab438"/><path d="m242.815464 110.973355-8.687287-7.69282 3.537438-5.006981 3.208248 19.551194z" fill="#764b1a"/><path d="m250.685562 35.947502 20.314438 40.405818v-50.164208l-19.869689 34.598015z" fill="#756125"/></g></svg>