<svg height="528" width="1024" xmlns="http://www.w3.org/2000/svg"><path d="m0 0h1024v528h-1024z" fill="#353330"/><g transform="matrix(4 0 0 4 2 2)"><g fill-opacity=".501961"><ellipse cx="119" cy="93" fill="#b27d68" rx="66" ry="30"/><ellipse cx="253" cy="16" fill="#001616" rx="86" ry="86"/><ellipse cx="24" fill="#011517" rx="75" ry="75"/><ellipse fill="#8d6d83" rx="1" ry="1" transform="matrix(-17.02860611 43.56216991 -18.26850442 -7.14122292 124.046435 76.127093)"/><ellipse cx="60" cy="106" fill="#825934" rx="38" ry="15"/><ellipse fill="#453e33" rx="1" ry="1" transform="matrix(31.60626425 43.36350686 -22.77343398 16.59882293 176.975935 78.409564)"/><ellipse fill="#000f0e" rx="1" ry="1" transform="matrix(-.00548759 -9.64938644 149.22632987 -.08486474 134.6006 131)"/><ellipse cx="136" cy="114" fill="#a9662e" rx="66" ry="8"/><ellipse fill="#423c3b" rx="1" ry="1" transform="matrix(-44.5418486 27.88827104 -13.14692629 -20.99765882 74.826547 69.593993)"/><ellipse fill="#162432" rx="1" ry="1" transform="matrix(-8.68880024 -20.14337899 92.06208288 -39.71076792 148.569832 0)"/><ellipse fill="#121f19" rx="1" ry="1" transform="matrix(-25.3091311 .30987331 -1.86650717 -152.4483511 248.767736 103.570088)"/><path d="m115.196741 120.480052 8.058395-3.125018 3.384498-32.803655-18.236623 30.023703z" fill="#d09485"/><path d="m124 102h6v24h-6z" fill="#04191e"/><ellipse fill="#4b4867" rx="1" ry="1" transform="matrix(17.67993038 -9.63698449 13.79610807 25.31022338 139.405202 51.286363)"/><ellipse fill="#131e1d" rx="1" ry="1" transform="matrix(23.78634374 10.26825505 -45.25665181 104.83672942 2.097523 66.074689)"/><ellipse fill="#573e1e" rx="1" ry="1" transform="matrix(-9.91309515 11.62331217 -17.93332835 -15.29467571 189.421148 103.731215)"/><path d="m117 57 24-21-11 43z" fill="#806289"/><ellipse fill="#242d39" rx="1" ry="1" transform="matrix(-35.31757289 -35.17967584 11.15619974 -11.19992974 168.688371 39.127748)"/><path d="m130.96427 117.174154 18.629975 29.825846-80.564646-27.886294 52.096858 2.335331z" fill="#141d1d"/><ellipse fill="#997164" rx="1" ry="1" transform="matrix(-7.43306505 -12.07259786 25.49872624 -15.69949509 108.466798 98.95266)"/><path d="m-.5-.5h1v1h-1z" fill="#a2765f" transform="matrix(3.41234162 -27.79129225 11.91055382 1.46243212 136 104)"/><path d="m63.904493 120.127033 12.597447-1.721223 7.948613-33.822791-69.258765 39.220166z" fill="#725032"/><ellipse fill="#4e3f2d" rx="1" ry="1" transform="matrix(7.41067013 9.57234661 -35.25457881 27.29320872 45.570501 99.062334)"/><ellipse fill="#312d1f" rx="1" ry="1" transform="matrix(14.96551024 -5.05164623 10.47487345 31.0318298 214.829603 93.790109)"/><path d="m167.838239 52.862567-36.860035 23.471517.808377-15.536172 56.543137 36.183809z" fill="#3e423f"/><path d="m149 101h36v20h-36z" fill="#7d5127"/><path d="m66.61243 74.627093 24.953758-20.440425 24.632245-10.47227 5.611363 27.251991z" fill="#4f4550"/><ellipse fill="#222825" rx="1" ry="1" transform="matrix(-8.46653861 -11.12405715 79.33779543 -60.38412957 50.59125 53.323846)"/><ellipse fill="#383750" rx="1" ry="1" transform="matrix(-1.83312437 -18.1760973 12.6169988 -1.27246942 144.941969 29.772704)"/><path d="m120 89 13 4-17 19z" fill="#b38990"/><ellipse fill="#b67650" rx="1" ry="1" transform="matrix(11.39477083 .44748366 -.29911929 7.61680491 114.673922 114.472737)"/><path d="m158 74-61 5 56 19z" fill="#756065"/><path d="m105.379145 73.46236-65.429422 31.230135 20.277269 14.680147 43.768947-24.533926z" fill="#715644"/><path d="m137 121 30 1 6-10z" fill="#8d5623"/><path d="m113 108h12v8h-12z" fill="#c08d7f"/><path d="m126 104h3v6h-3z" fill="#000307"/><ellipse cx="88" cy="128" fill="#121e1f" rx="34" ry="9"/><path d="m-.5-.5h1v1h-1z" fill="#1f2823" transform="matrix(79.90306627 79.90306627 -19.79898987 19.79898987 221 77)"/><ellipse fill="#343127" rx="1" ry="1" transform="matrix(25.16705042 -36.12858374 9.14152415 6.3679551 27.992398 90.472345)"/><ellipse fill="#35384c" rx="1" ry="1" transform="matrix(-18.10852262 17.17272288 -5.52779259 -5.8290207 117.320113 39.529974)"/><path d="m186.928469 102.311569 43.334847 19.237735-60.489221-2.221338 14.916682 5.039497z" fill="#583c1b"/><ellipse fill="#142123" rx="1" ry="1" transform="matrix(-6.25549956 -21.35423732 53.49470165 -15.67071104 92.15933 0)"/><ellipse cx="130" cy="87" fill="#986e76" rx="6" ry="17"/><path d="m59 111h16v9h-16z" fill="#8f592c"/><path d="m138 51 9-22-21 15z" fill="#624f7f"/><path d="m193 147h-108l41-30z" fill="#151f20"/><path d="m158 0h36v32h-36z" fill="#1b2427"/><path d="m85 116 15-6 21 10z" fill="#b66e3e"/><path d="m130.95741 85.288912-6.936014-5.280052 3.306648-28.135371-33.165906 26.125922z" fill="#6e5768"/><ellipse cx="125" cy="73" fill="#a97b9a" rx="4" ry="4"/><ellipse fill="#12201f" rx="1" ry="1" transform="matrix(-15.67706594 14.85371045 -44.16408612 -46.61214399 213.507535 5.965988)"/><path d="m-.5-.5h1v1h-1z" fill="#504a49" transform="matrix(-22.22906785 -23.01887361 13.66745621 -13.19850904 152 70)"/><path d="m87 101 25 4 17-45z" fill="#846664"/><path d="m172 107-19-23-9 28z" fill="#705741"/><path d="m131.296205 26.156005-48.119672 29.700793-66.96378 26.787552 65.474876-49.475168z" fill="#2c2e31"/><ellipse fill="#493e34" rx="1" ry="1" transform="matrix(-3.98911792 -6.70146544 37.41537416 -22.27189576 56.644629 82.579308)"/><ellipse fill="#373831" rx="1" ry="1" transform="matrix(18.23597065 6.13207845 -3.80627723 11.31935288 187.022273 78.786478)"/><path d="m143 45 10-22 43 7z" fill="#272e33"/><ellipse cx="190" cy="129" fill="#121e20" rx="190" ry="6"/><path d="m41 124 5-21 21 11z" fill="#6d4a28"/><path d="m66.510238 132.644686 2.039716-15.870838-40.10033 30.226152 6.937311-27.901717z" fill="#19221e"/><path d="m136 115h27v6h-27z" fill="#9f5f2d"/><path d="m134 73h15v7h-15z" fill="#735d64"/><path d="m97 103-2 17 21-18z" fill="#9f6f52"/><ellipse cx="22" cy="123" fill="#463824" rx="7" ry="5"/><path d="m62.024958 119.299161 27.643548-2.13513-5.048965-22.217414-13.446526 18.117616z" fill="#875d40"/><path d="m109 75h6v14h-6z" fill="#906f84"/><path d="m249.653989 89.265116-19.868799 43.43865 41.21481-13.252924v-22.90614z" fill="#17201c"/><path d="m10.34856 80.582268-26.34856-75.629545 59.779542-20.952723-59.779542 121.020177z" fill="#131e1f"/><path d="m149 25 12 41 10-15z" fill="#363b43"/><path d="m114 115h7v8h-7z" fill="#be7448"/><path d="m194.044697 115.672767-31.872196-30.202186 15.150918-3.073118 8.786607-.06594z" fill="#524434"/><path d="m141 110 1 11-15-6z" fill="#a5653a"/><path d="m127 65 9-20-7 1z" fill="#795f8e"/><path d="m153.450566 104.493506-15.162459-11.777373 3.562059 9.139464-8.587175 21.01613z" fill="#896247"/><path d="m106.920187 64.29779 18.116965 21.263113 5.768883-2.507042-22.57212-23.901963z" fill="#6b525d"/><path d="m42.343074 123.825195 39.948447-36.218882-24.419054-.911697-19.828594 13.565489z" fill="#5f4935"/><path d="m141.586532 56.324238 37.312663 48.640482-24.724822-29.073687-29.314848-7.556134z" fill="#584c48"/><path d="m-.5-.5h1v1h-1z" fill="#141e1f" transform="matrix(2.77837084 -15.75692405 8.86326978 1.5628336 126 127)"/><path d="m190.062744 136.428092-84.307877-16.44987-18.657417-.563064 58.238628 8.330678z" fill="#2e2a21"/><path d="m215.277115 106.453949-10.547305-38.698659 33.951774 45.978157-21.740066 11.68646z" fill="#2f2c20"/><path d="m124 32-6 17 29-16z" fill="#474262"/><path d="m162.236565 120.868566 12.945706 1.777644-109.903963.049138 103.499105 24.304652z" fill="#1a2120"/><path d="m154.378118 43.034612.347219 10.511478-26.253908 5.162244 13.095437-9.36694z" fill="#4e4957"/><path d="m183.74915 96.306346 6.100547 11.144315 17.111994 15.335921-25.064472-2.588579z" fill="#624220"/><path d="m-.5-.5h1v1h-1z" fill="#836684" transform="matrix(-26.00435487 20.31682869 -.61566148 -.78801075 122 68)"/><path d="m107 105-15-8 34-12z" fill="#84695a"/><path d="m77 49-32 38 4-22z" fill="#3a342e"/><path d="m151 9-5 24 11-20z" fill="#383750"/><ellipse fill="#222929" rx="1" ry="1" transform="matrix(-41.00991057 30.62943853 -4.34994184 -5.82415919 58.18431 47.485659)"/><ellipse fill="#161f1e" rx="1" ry="1" transform="matrix(-3.4792545 -5.88195206 5.30023171 -3.13515902 56.682484 126.932293)"/><ellipse cx="127" cy="107" fill="#071e1e" rx="3" ry="3"/><path d="m121.337536 60.033628-.315959-7.920038-15.55181 23.466338-19.727632-13.19505z" fill="#56474e"/><path d="m118.26591 120.655179 4.442332-12.43092 4.4551-10.082086-17.298118 6.368123z" fill="#b28175"/><path d="m192.233011 113.984042 34.755445 4.343307-33.745335-36.603904 6.923414 29.069708z" fill="#433624"/><path d="m81.362946 64.80668 61.816109-44.221231-4.83796-7.807906-21.594216 10.972807z" fill="#2f3341"/><path d="m-.5-.5h1v1h-1z" fill="#a57a7b" transform="matrix(-9 -15.58845727 3.46410162 -2 128 96)"/><path d="m86 118h40v1h-40z" fill="#b46c3d"/><path d="m17.973315 126.820079-16.702537-22.918992-4.410993 9.669416-1.164227 14.002104z" fill="#292a20"/><path d="m-.5-.5h1v1h-1z" fill="#4e3c27" transform="matrix(12.2446759 -6.78733468 7.75695392 13.99391531 26 117)"/><path d="m-.5-.5h1v1h-1z" fill="#0b1e21" transform="matrix(-3.93923101 -.69459271 .69459271 -3.93923101 127 109)"/><path d="m-.5-.5h1v1h-1z" fill="#6f585a" transform="matrix(-13.99391531 7.75695392 -3.87847696 -6.99695766 99 85)"/><path d="m-.5-.5h1v1h-1z" fill="#96705f" transform="matrix(-6.98294835 .48829532 -.97659063 -13.9658967 133 102)"/><path d="m159.490625 45.606637 4.236199 33.304734 20.018274-1.026621-38.609406-21.106964z" fill="#3d4144"/><path d="m188.636006 115.151937-12.03556-4.036305-14.804832-10.775088 25.647313-4.094122z" fill="#63492f"/><path d="m189.247346 54.957821-21.085344-3.34104-3.117683 11.831369 29.623771 4.72172z" fill="#2b332e"/><path d="m174 113 17 6h-21z" fill="#7e4c17"/><path d="m101.322545 118.286166 2.278431 3.822837-47.495868-.415745 15.731821 25.306742z" fill="#17201f"/><path d="m146 122h8v5h-8z" fill="#121e22"/><path d="m134.216288 120.508711 21.148114-16.669503-16.379507 21.460043-2.425408-14.046147z" fill="#915e39"/><path d="m145 73-14-5 3 8z" fill="#695655"/><path d="m146.627368 66.254398-5.100355 34.269759-10.260014-6.09483 12.267207-16.861956z" fill="#7a6665"/><path d="m175.986525-16-76.162404 42.81983 15.396344 3.107786 28.523501-16.080555z" fill="#212a39"/><path d="m175.233127 5.638812 36.287312 60.392739 11.621722 22.3085-71.292349-64.624262z" fill="#21292b"/><ellipse cx="127" cy="71" fill="#a37d9c" rx="3" ry="3"/><path d="m118.745881 76.155071 2.261023-7.641052 6.610744 1.408217-14.605914-13.827989z" fill="#645363"/><path d="m39.13193 119.994685 1.944622 5.363048 139.855758-1.601285-196.93231 23.243552z" fill="#151f20"/><ellipse cx="123" cy="56" fill="#65506f" rx="6" ry="6"/><path d="m-.5-.5h1v1h-1z" fill="#ab8288" transform="matrix(13.8075728 -5.86096693 2.34438677 5.52302912 123 99)"/><path d="m-8.16173 84.196286 8.252491 9.980556 54.676182-58.568002-23.572446-3.1982z" fill="#1a2524"/><path d="m127.6898 13.816946-12.725821-21.467074-10.78838 40.35106-39.866111-.806009z" fill="#1d272c"/><ellipse cx="128" cy="129" fill="#121e1e" rx="1" ry="24"/><path d="m98.58493 112.627148 12.287411-7.397374 3.00719-4.190232-4.942101 17.13792z" fill="#96684c"/><path d="m102 114-11-9 6 15z" fill="#ac7050"/><path d="m59 111 24 7h-22z" fill="#84542d"/><path d="m72 78h23v12h-23z" fill="#624f46"/><path d="m124 114h4v4h-4z" fill="#8e5e40"/><path d="m55 103-16 20 31-15z" fill="#6f4e30"/><path d="m146.172722 68.792281 4.056379 23.033329 13.137702-.171892-2.049992-5.793002z" fill="#5e5551"/><path d="m68 73 47-23-29 27z" fill="#4e4341"/></g><path d="m63.464105 120.292118q20.591415 2.803577 29.149108-1.701761" fill="none" stroke="#332c1f" stroke-opacity=".501961" stroke-width=".5"/><path d="m224.382084 103.628851-9.225767-6.941706-40.684278-45.60367 40.871318 23.833596z" fill="#2a2d28" fill-opacity=".501961"/><path d="m65 77-46 33 23-2z" fill="#4d4032" fill-opacity=".501961"/><path d="m210 37 51 75-21-91z" fill="#162320" fill-opacity=".501961"/><ellipse cx="137" cy="68" fill="#464035" fill-opacity=".501961" rx="3" ry="3"/><path d="m141.442827 27.982053-1.424526-1.276923 23.291341-42.70513-23.323782 53.421754z" fill="#2a2e3b" fill-opacity=".501961"/><ellipse cx="199" cy="121" fill="#403018" fill-opacity=".501961" rx="33" ry="1"/><path d="m252 117-28-49 2 40z" fill="#222720" fill-opacity=".501961"/><path d="m85 111-14-2 22-19z" fill="#7c5e4b" fill-opacity=".501961"/><path d="m27 117 27 4-12-7z" fill="#604426" fill-opacity=".501961"/><path d="m107 62-2-19 18-2z" fill="#42404a" fill-opacity=".501961"/><path d="m-.5-.5h1v1h-1z" fill="#30312d" fill-opacity=".501961" transform="matrix(-.97029573 -.2419219 2.41921896 -9.70295726 126 112)"/><path d="m-.5-.5h1v1h-1z" fill="#2c3249" fill-opacity=".501961" transform="matrix(-2.96306502 -.4693034 2.81582037 -17.77839013 155 18)"/><path d="m188.454538 114.58153-9.108269-1.456278-21.852376-1.851365 5.08651-9.183123z" fill="#724e2e" fill-opacity=".501961"/><ellipse fill="#383956" fill-opacity=".501961" rx="1" ry="1" transform="matrix(3.44248465 -9.81495308 2.10317619 .73766545 136.404198 25.974531)"/><path d="m129 73h2v12h-2z" fill="#95748c" fill-opacity=".501961"/><path d="m-.5-.5h1v1h-1z" fill="#b06e45" fill-opacity=".501961" transform="matrix(4.99695414 .17449748 -.20939698 5.99634496 131 115)"/><path d="m149.652889 49.448227-10.486449 18.561541 25.453262-19.887263.064156-3.582679z" fill="#44434d" fill-opacity=".501961"/><path d="m87.290695 90.501228q32.25889-4.655381 40.949912 29.897722" fill="none" stroke="#7f6258" stroke-opacity=".501961" stroke-width=".5"/><path d="m142.880842 39.67626 6.828346 30.789039 4.300777-31.710404-15.391296 23.754142z" fill="#4c4651" fill-opacity=".501961"/><path d="m172.569433 57.782513-19.916111-2.824553 21.939131 20.593365 9.680837-1.231373z" fill="#363a3b" fill-opacity=".501961"/><path d="m156 2-2-18h-10z" fill="#4b416f" fill-opacity=".501961"/><ellipse fill="#3d374d" fill-opacity=".501961" rx="1" ry="1" transform="matrix(-.70403126 2.80326411 -6.1580409 -1.54657324 151.642804 30.316768)"/><path d="m214.200386 46.070334-52.703484-30.590175 6.365083-29.31623 34.87855 24.94796z" fill="#192425" fill-opacity=".501961"/><path d="m195.706735 76.476484-4.827888-5.402746-4.063893 6.688826 3.039723 8.25305z" fill="#323128" fill-opacity=".501961"/><path d="m-.5-.5h1v1h-1z" fill="#222520" fill-opacity=".501961" transform="matrix(9.88673451 4.82208261 -.43837115 .89879405 94 121)"/><path d="m217.130211 119.337535q-12.896904-.912571-83.492812 3.237115" fill="none" stroke="#61411f" stroke-opacity=".501961" stroke-width=".5"/><path d="m15 101h8v26h-8z" fill="#3e3628" fill-opacity=".501961"/><path d="m-.5-.5h1v1h-1z" fill="#7b5c5d" fill-opacity=".501961" transform="matrix(5.08035981 -20.37621025 .97029573 .2419219 122 83)"/><path d="m124 118-4-4 4-4z" fill="#bd7957" fill-opacity=".501961"/><path d="m161 136-36-18-30 25z" fill="#151f20" fill-opacity=".501961"/><path d="m160 26-17 11 3 5z" fill="#31343c" fill-opacity=".501961"/><path d="m-.5-.5h1v1h-1z" fill="#806190" fill-opacity=".501961" transform="matrix(.76604444 .64278761 -7.07066371 8.42648887 136 49)"/><ellipse fill="#152020" fill-opacity=".501961" rx="1" ry="1" transform="matrix(10.43202755 10.66031922 -24.02768382 23.51312886 49.972319 8.641653)"/><ellipse cx="127" cy="51" fill="#6e5883" fill-opacity=".501961" rx="2" ry="8"/><path d="m-.5-.5h1v1h-1z" fill="#614f68" fill-opacity=".501961" transform="matrix(-1.38918542 -7.87846202 .98480775 -.17364818 142 45)"/><path d="m128.657362 78.812057 5.076464-.342106-29.990543 26.021476 36.016786-25.351078z" fill="#8a676a" fill-opacity=".501961"/><path d="m129 91h5v14h-5z" fill="#967269" fill-opacity=".501961"/><ellipse cx="125" cy="65" fill="#b482b3" fill-opacity=".501961" rx="1" ry="1"/><path d="m159 78 18 12-5 7z" fill="#50493f" fill-opacity=".501961"/><path d="m143 54h2v5h-2z" fill="#6e5270" fill-opacity=".501961"/><path d="m106.208326 9.543206 30.273145-6.431216 18.157758 27.879621-19.095947-19.978848z" fill="#212933" fill-opacity=".501961"/><ellipse cx="152" cy="47" fill="#4f4b65" fill-opacity=".501961" rx="3" ry="3"/><path d="m188 116-7-7 3 13z" fill="#6e4821" fill-opacity=".501961"/><path d="m85 44v16l21-9z" fill="#3b383b" fill-opacity=".501961"/><path d="m-.5-.5h1v1h-1z" fill="#987096" fill-opacity=".501961" transform="matrix(6.89439999 -5.78508849 .64278761 .76604444 128 63)"/><path d="m129.948287 116.48364 22.305198 3.625683-16.957874-7.18472-.314199 10.104442z" fill="#9a6137" fill-opacity=".501961"/><path d="m106.750076 73.555053 1.263173 8.501762 5.422643-12.228023 39.955555-10.671756z" fill="#685764" fill-opacity=".501961"/><path d="m160 19 26 18-17 3z" fill="#262c33" fill-opacity=".501961"/><path d="m174.365233 73.229518 32.997275 20.853775-27.617277.20544 1.517593 8.378381z" fill="#423b30" fill-opacity=".501961"/><path d="m74 119 31 3-41 25z" fill="#151f1f" fill-opacity=".501961"/><path d="m93.391102 81.280633-25.566457 24.332007 32.387528-14.60003-8.057126-8.126681z" fill="#715747" fill-opacity=".501961"/><path d="m134 87-13-6-1-6z" fill="#785956" fill-opacity=".501961"/><path d="m127 62-9-5h10z" fill="#5f515f" fill-opacity=".501961"/><path d="m187.885655 13.146713-40.869226 3.600163 35.097422-14.285591-11.435258 18.354226z" fill="#1d262b" fill-opacity=".501961"/><ellipse fill="#282b27" fill-opacity=".501961" rx="1" ry="1" transform="matrix(16.68455484 -20.78232298 4.00241705 3.21323785 20.775321 83.679473)"/><ellipse cx="130" cy="119" fill="#04181b" fill-opacity=".501961" rx="1" ry="1"/><path d="m79.367392 138.235861-45.766426-17.93759-.864269 16.465335 69.261143-16.946835z" fill="#162020" fill-opacity=".501961"/><path d="m110.50617 120.068598q-9.525052 18.658486-50.823742-.321077" fill="none" stroke="#1e231f" stroke-opacity=".501961" stroke-width=".5"/><path d="m90 109-5-6 24-14z" fill="#816559" fill-opacity=".501961"/><path d="m-.5-.5h1v1h-1z" fill="#ac6732" fill-opacity=".501961" transform="matrix(7.77145961 -6.29320391 .62932039 .77714596 142 119)"/><ellipse cx="87" cy="120" fill="#5b412c" fill-opacity=".501961" rx="2" ry="1"/><path d="m-.5-.5h1v1h-1z" fill="#0c1d1b" fill-opacity=".501961" transform="matrix(-.98162718 .190809 -1.33566297 -6.87139028 127 106)"/><path d="m144 117 12-6-16-5z" fill="#8e6040" fill-opacity=".501961"/><ellipse cx="126" cy="75" fill="#b67ba2" fill-opacity=".501961" rx="2" ry="2"/><path d="m-.5-.5h1v1h-1z" fill="#746252" fill-opacity=".501961" transform="matrix(.47102361 8.98766581 -8.98766581 .47102361 146 95)"/><ellipse fill="#1a2525" fill-opacity=".501961" rx="1" ry="1" transform="matrix(3.5274686 5.50207565 -45.13382473 28.93601611 75.899912 22.338683)"/><path d="m100.312573 66.37914-23.814692 7.724249 20.606072 4.502778 19.201253-31.797887z" fill="#534748" fill-opacity=".501961"/><path d="m-.5-.5h1v1h-1z" fill="#b595a5" fill-opacity=".501961" transform="matrix(2.53570957 -5.43784672 .90630779 .42261826 121 97)"/><path d="m-.5-.5h1v1h-1z" fill="#7d607a" fill-opacity=".501961" transform="matrix(2.69638214 -1.31511344 3.94534032 8.08914642 121 70)"/><path d="m138.176973 35.350741 8.379953-3.765223-24.578866 17.678136 21.190763-6.065437z" fill="#584b6f" fill-opacity=".501961"/><path d="m52.942496 101.492629 1.498702-7.660277-12.923699 6.489032-12.903688 25.3876z" fill="#584531" fill-opacity=".501961"/><path d="m239.424972 120.661406-3.257284 1.579301-31.018783-43.959439 7.019442 31.902786z" fill="#302d21" fill-opacity=".501961"/><path d="m55.214167 107.380941-.928115-9.93315 6.732496 18.188677 16.998361-25.643481z" fill="#6d513a" fill-opacity=".501961"/><path d="m85.126788 118.869979q-15.569591-.88508-23.391351 16.522073" fill="none" stroke="#292921" stroke-opacity=".501961" stroke-width=".5"/><path d="m160 112 17 5-23 4z" fill="#8b5523" fill-opacity=".501961"/><ellipse cx="153" cy="18" fill="#3b3755" fill-opacity=".501961" rx="5" ry="2"/><path d="m108 112 10 8-21-3z" fill="#b06c3e" fill-opacity=".501961"/><ellipse cx="145" cy="73" fill="#675664" fill-opacity=".501961" rx="3" ry="3"/><path d="m154 93h17v10h-17z" fill="#65513e" fill-opacity=".501961"/><path d="m106 76-2 10 16-7z" fill="#81636c" fill-opacity=".501961"/><path d="m102 78-15 3 23-19z" fill="#614e52" fill-opacity=".501961"/><path d="m65 120h4v12h-4z" fill="#141e1f" fill-opacity=".501961"/><path d="m104 120-7-7 7-2z" fill="#a96e4b" fill-opacity=".501961"/><ellipse cx="120" cy="104" fill="#a77669" fill-opacity=".501961" rx="2" ry="4"/><path d="m135.038343 65.632836 30.020034 1.894567-2.583788 16.290999-5.505842-7.948804z" fill="#4d484a" fill-opacity=".501961"/><path d="m134.74623 147 47.253824-26.33084-1.025972 9.800048-14.732113-9.112017z" fill="#162020" fill-opacity=".501961"/><path d="m236.742958 97.056704-19.518412-20.333527-5.621024-14.326932 25.149967-.525298z" fill="#1c2722" fill-opacity=".501961"/><path d="m21 127-1 20-36-23z" fill="#111f1f" fill-opacity=".501961"/><ellipse cx="115" cy="117" fill="#cb7f5a" fill-opacity=".501961" rx="3" ry="3"/><path d="m115 117 5-2 3-10z" fill="#c08c7b" fill-opacity=".501961"/><path d="m234.611532 147 19.713998-27.464863-31.033316 11.193361 4.73962-12.705016z" fill="#14201f" fill-opacity=".501961"/><path d="m54 111h12v8h-12z" fill="#7a522f" fill-opacity=".501961"/><path d="m-.5-.5h1v1h-1z" fill="#533f2a" fill-opacity=".501961" transform="matrix(-17.62097095 -21.76008692 6.21716769 -5.03456313 191 103)"/><path d="m110 90 4-6-6 1z" fill="#9a757d" fill-opacity=".501961"/><path d="m85.834911 47.362894 11.010613 2.95039 6.10652-13.344508-18.769707 1.852381z" fill="#2b2f36" fill-opacity=".501961"/><path d="m80.119389 57.863354-27.14313 27.669665 29.66459-15.719005 13.484069-14.562566z" fill="#473c39" fill-opacity=".501961"/><path d="m154 53 15-17-11 24z" fill="#373b46" fill-opacity=".501961"/><ellipse cx="131" cy="48" fill="#775c95" fill-opacity=".501961" rx="3" ry="3"/><path d="m125.843047 85.80214q7.497458-25.364663 13.416946-34.181918" fill="none" stroke="#725a68" stroke-opacity=".501961" stroke-width=".5"/><path d="m-.5-.5h1v1h-1z" fill="#272e31" fill-opacity=".501961" transform="matrix(6.87139028 -1.33566297 5.72426986 29.4488155 172 43)"/><ellipse cx="123" cy="92" fill="#9e7886" fill-opacity=".501961" rx="2" ry="5"/><path d="m119.594283 93.142278q-8.3389 15.630994 8.609344 20.76568" fill="none" stroke="#99736a" stroke-opacity=".501961" stroke-width=".5"/><path d="m109 111-1-14-4 13z" fill="#896754" fill-opacity=".501961"/><ellipse fill="#4c361a" fill-opacity=".501961" rx="1" ry="1" transform="matrix(1.86278376 3.025948 -3.64094366 2.24137716 208.560161 119.046825)"/><path d="m129.209979 90.27377 5.118028 2.971491 2.606427-12.543483 2.50892 19.625352z" fill="#8c6a63" fill-opacity=".501961"/><path d="m120.557038 86.236341-23.43851 18.204477 6.281977-27.703097-6.998251 18.616204z" fill="#7f635c" fill-opacity=".501961"/><ellipse fill="#937386" fill-opacity=".501961" rx="1" ry="1" transform="matrix(1.06602502 1.78518101 -2.20557364 1.31706346 129.749457 76.382148)"/><path d="m-.5-.5h1v1h-1z" fill="#755f6a" fill-opacity=".501961" transform="matrix(6 10.39230485 -3.46410162 2 142 80)"/><path d="m8 96h8v31h-8z" fill="#333026" fill-opacity=".501961"/><path d="m86.243093 115.744891 19.578876-15.348016-22.97656 10.642848 37.024428-.924837z" fill="#996c53" fill-opacity=".501961"/><ellipse cx="198" cy="119" fill="#5f401b" fill-opacity=".501961" rx="4" ry="4"/><path d="m-.5-.5h1v1h-1z" fill="#5a4a3c" fill-opacity=".501961" transform="matrix(3.52671151 4.85410197 -16.18033989 11.75570505 74 85)"/><path d="m76.31319 60.196885-2.649053-6.60963-50.034231 51.420628-4.311701-6.916794z" fill="#3b352d" fill-opacity=".501961"/><path d="m153.73173 78.002487-5.755703-25.237615-11.542045 13.498938 11.8022.692168z" fill="#4d4647" fill-opacity=".501961"/><path d="m148 110 12-13-4-3z" fill="#725744" fill-opacity=".501961"/><path d="m87.095891 30.433017-28.142711-4.975518 67.412773-17.272265-7.352319 8.490355z" fill="#1c262a" fill-opacity=".501961"/><ellipse fill="#453b2e" fill-opacity=".501961" rx="1" ry="1" transform="matrix(-3.22646511 -2.91387102 12.90576413 -14.29026796 30.531036 100.824205)"/><path d="m131 32h11l-11-9z" fill="#383b53" fill-opacity=".501961"/><path d="m41 116h11v7h-11z" fill="#664728" fill-opacity=".501961"/><path d="m-.5-.5h1v1h-1z" fill="#2c3037" fill-opacity=".501961" transform="matrix(2.67301957 -1.3619715 .4539905 .89100652 214 33)"/><path d="m-.5-.5h1v1h-1z" fill="#48425f" fill-opacity=".501961" transform="matrix(.99254615 -.12186934 1.34056278 10.91800767 137 39)"/><path d="m85.845076 147q46.994383-25.933255 68.149959-25.969073" fill="none" stroke="#342e25" stroke-opacity=".501961" stroke-width=".5"/><path d="m119 77h9v6h-9z" fill="#785658" fill-opacity=".501961"/><path d="m129 53-7 1 9 5z" fill="#765c7c" fill-opacity=".501961"/><path d="m151.96366 15.242917-7.269242-14.607344 24.739689 4.311972-33.995268 5.165383z" fill="#212732" fill-opacity=".501961"/><path d="m168.872638 87.969011-19.824406-39.10949-12.751614 9.024408 8.309956-10.05518z" fill="#47444a" fill-opacity=".501961"/><path d="m102.319775 119.158669q.023821 8.046838 81.52081 6.582626" fill="none" stroke="#182120" stroke-opacity=".501961" stroke-width=".5"/><path d="m145 22h4v3h-4z" fill="#222727" fill-opacity=".501961"/><path d="m130 105h8v10h-8z" fill="#9e6c51" fill-opacity=".501961"/><path d="m135.5474 6.836928 5.412641 19.125182 5.427752-17.642899-15.225398 19.631181z" fill="#2b3246" fill-opacity=".501961"/><ellipse cx="180" cy="87" fill="#474137" fill-opacity=".501961" rx="7" ry="7"/><ellipse fill="#775a7b" fill-opacity=".501961" rx="1" ry="1" transform="matrix(1.29696864 .75109579 -1.19938725 2.07106428 122.238492 60.896617)"/><ellipse fill="#142020" fill-opacity=".501961" rx="1" ry="1" transform="matrix(36.45641546 5.37791029 -2.94645945 19.97380843 230.442807 6.418868)"/><path d="m151 29h-5l-1-3z" fill="#4b3f58" fill-opacity=".501961"/><path d="m67.676785 114.406499 3.375553 7.756537 9.850353-12.65887-3.601676 6.551072z" fill="#835630" fill-opacity=".501961"/><ellipse cx="2" cy="28" fill="#333c3f" fill-opacity=".501961" rx="1" ry="1"/><path d="m-.5-.5h1v1h-1z" fill="#091b1d" fill-opacity=".501961" transform="matrix(-.92718385 -.37460659 1.12381978 -2.78155156 127 110)"/><ellipse fill="#645467" fill-opacity=".501961" rx="1" ry="1" transform="matrix(-5.61617192 .42587699 -.16029698 -2.11388601 134.739052 56.588742)"/><path d="m-.5-.5h1v1h-1z" fill="#182323" fill-opacity=".501961" transform="matrix(-25.27946662 21.21199112 -8.99902654 -10.7246222 43 29)"/><path d="m117 55-1 12-2-10z" fill="#534b58" fill-opacity=".501961"/><path d="m152 26 6-9 24 8z" fill="#21292f" fill-opacity=".501961"/><path d="m163.258261 89.709674-3.814614-5.646707-18.496846-20.932001 20.57882 9.734972z" fill="#514d4b" fill-opacity=".501961"/><path d="m77 98h3v15h-3z" fill="#855e47" fill-opacity=".501961"/><ellipse cx="123" cy="28" fill="#464060" fill-opacity=".501961" rx="1" ry="2"/><ellipse cx="152" cy="51" fill="#524d60" fill-opacity=".501961" rx="1" ry="7"/><path d="m229.378718 117.760565-5.370112-5.930044-18.009838 12.437265 26.412523-4.792671z" fill="#392e1e" fill-opacity=".501961"/><path d="m50.204057 119.12017q9.365159-12.77332 71.366145 4.26009" fill="none" stroke="#8b5a36" stroke-opacity=".501961" stroke-width=".5"/><path d="m89.9407 45.287011 1.659438-3.671613 20.466522-19.393545-30.094746 7.241011z" fill="#232a2e" fill-opacity=".501961"/><path d="m-.5-.5h1v1h-1z" fill="#595166" fill-opacity=".501961" transform="matrix(1.99969539 -.03490481 .01745241 .9998477 146 121)"/><path d="m-.5-.5h1v1h-1z" fill="#4c4c55" fill-opacity=".501961" transform="matrix(-8.57167301 5.15038075 -.51503807 -.8571673 154 57)"/><path d="m-.5-.5h1v1h-1z" fill="#151f1f" fill-opacity=".501961" transform="matrix(6.91452293 15.53027278 -8.22190912 3.66062979 127 128)"/><ellipse cx="125" cy="60" fill="#544d53" fill-opacity=".501961" rx="2" ry="2"/><ellipse cx="114" cy="89" fill="#8e7074" fill-opacity=".501961" rx="2" ry="7"/><path d="m156.458816 61.349711-8.346018 11.664063 4.84422-13.35045-9.881593-11.029894z" fill="#424042" fill-opacity=".501961"/><path d="m172.73909 20.395036-23.868391 18.594811 30.950902-17.09735-7.642504-33.415255z" fill="#1f272c" fill-opacity=".501961"/><path d="m102 42 5 8-8 8z" fill="#3d3b40" fill-opacity=".501961"/><path d="m109 93 3 12 3-5z" fill="#926f61" fill-opacity=".501961"/><path d="m211 111h10v9h-10z" fill="#45341e" fill-opacity=".501961"/><path d="m-.5-.5h1v1h-1z" fill="#313548" fill-opacity=".501961" transform="matrix(4.76927338 -7.63243287 5.93633667 3.70943485 140 22)"/><ellipse fill="#654f3f" fill-opacity=".501961" rx="1" ry="1" transform="matrix(-1.44922236 4.28760663 -5.29199909 -1.78870966 72.542311 92.050907)"/><ellipse fill="#615071" fill-opacity=".501961" rx="1" ry="1" transform="matrix(-6.23911344 .40930722 -.06546271 -.99785502 134.267069 52.471311)"/><path d="m-6.951531 79.364014 20.90192-47.525276-12.845685 68.197216 2.812202 10.096297z" fill="#192321" fill-opacity=".501961"/><path d="m122 86v-12l5 4z" fill="#7f5a62" fill-opacity=".501961"/><path d="m92 95h21v2h-21z" fill="#7b6051" fill-opacity=".501961"/><path d="m85.755227 32.866152-35.551525 27.389691-16.529072-19.749383 9.083233 14.166296z" fill="#242a29" fill-opacity=".501961"/><path d="m111 50h8v2h-8z" fill="#353d46" fill-opacity=".501961"/><path d="m-.5-.5h1v1h-1z" fill="#2b2f39" fill-opacity=".501961" transform="matrix(-5.08828858 3.17951559 -4.23935411 -6.78438477 143 26)"/><path d="m171.707203 33.725926-21.225038 12.006388 16.397832-2.794741-4.585899 17.817827z" fill="#2d333b" fill-opacity=".501961"/><path d="m232 122-17-32 12 4z" fill="#2b2b22" fill-opacity=".501961"/></g></svg>