<svg xmlns="http://www.w3.org/2000/svg" version="1.1" width="1024" height="528">
<rect x="0" y="0" width="1024" height="528" fill="#353330" />
<g transform="scale(4.000000) translate(0.5 0.5)">
<ellipse fill="#b27d68" fill-opacity="0.501961" cx="119" cy="93" rx="66" ry="30" />
<ellipse fill="#001616" fill-opacity="0.501961" cx="253" cy="16" rx="86" ry="86" />
<ellipse fill="#011517" fill-opacity="0.501961" cx="24" cy="0" rx="75" ry="75" />
<g transform="translate(124.046435 76.127093) rotate(111.350704) scale(46.772172 19.614671)"><ellipse fill="#8d6d83" fill-opacity="0.501961" cx="0" cy="0" rx="1" ry="1" /></g>
<ellipse fill="#825934" fill-opacity="0.501961" cx="60" cy="106" rx="38" ry="15" />
<g transform="translate(176.975935 78.409564) rotate(53.912897) scale(53.659572 28.180671)"><ellipse fill="#453e33" fill-opacity="0.501961" cx="0" cy="0" rx="1" ry="1" /></g>
<g transform="translate(134.600600 131.000000) rotate(269.967416) scale(9.649388 149.226354)"><ellipse fill="#000f0e" fill-opacity="0.501961" cx="0" cy="0" rx="1" ry="1" /></g>
<ellipse fill="#a9662e" fill-opacity="0.501961" cx="136" cy="114" rx="66" ry="8" />
<g transform="translate(74.826547 69.593993) rotate(147.948745) scale(52.552183 24.773844)"><ellipse fill="#423c3b" fill-opacity="0.501961" cx="0" cy="0" rx="1" ry="1" /></g>
<g transform="translate(148.569832 0.000000) rotate(246.667159) scale(21.937433 100.261519)"><ellipse fill="#162432" fill-opacity="0.501961" cx="0" cy="0" rx="1" ry="1" /></g>
<g transform="translate(248.767736 103.570088) rotate(179.298532) scale(25.311028 152.459777)"><ellipse fill="#121f19" fill-opacity="0.501961" cx="0" cy="0" rx="1" ry="1" /></g>
<polygon fill="#d09485" fill-opacity="0.501961" points="115.196741,120.480052,123.255136,117.355034,126.639634,84.551379,108.403011,114.575082" />
<rect fill="#04191e" fill-opacity="0.501961" x="124" y="102" width="6" height="24" />
<g transform="translate(139.405202 51.286363) rotate(331.406062) scale(20.135824 28.826030)"><ellipse fill="#4b4867" fill-opacity="0.501961" cx="0" cy="0" rx="1" ry="1" /></g>
<g transform="translate(2.097523 66.074689) rotate(23.349229) scale(25.908053 114.188022)"><ellipse fill="#131e1d" fill-opacity="0.501961" cx="0" cy="0" rx="1" ry="1" /></g>
<g transform="translate(189.421148 103.731215) rotate(130.459641) scale(15.276480 23.569713)"><ellipse fill="#573e1e" fill-opacity="0.501961" cx="0" cy="0" rx="1" ry="1" /></g>
<polygon fill="#806289" fill-opacity="0.501961" points="117,57 141,36 130,79" />
<g transform="translate(168.688371 39.127748) rotate(224.887926) scale(49.849178 15.808201)"><ellipse fill="#242d39" fill-opacity="0.501961" cx="0" cy="0" rx="1" ry="1" /></g>
<polygon fill="#141d1d" fill-opacity="0.501961" points="130.964270,117.174154,149.594245,147.000000,69.029599,119.113706,121.126457,121.449037" />
<g transform="translate(108.466798 98.952660) rotate(238.379508) scale(14.177379 29.944268)"><ellipse fill="#997164" fill-opacity="0.501961" cx="0" cy="0" rx="1" ry="1" /></g>
<g transform="translate(136 104) rotate(277) scale(28 12)"><rect fill="#a2765f" fill-opacity="0.501961" x="-0.5" y="-0.5" width="1" height="1" /></g>
<polygon fill="#725032" fill-opacity="0.501961" points="63.904493,120.127033,76.501940,118.405810,84.450553,84.583019,15.191788,123.803185" />
<g transform="translate(45.570501 99.062334) rotate(52.253864) scale(12.105695 44.584802)"><ellipse fill="#4e3f2d" fill-opacity="0.501961" cx="0" cy="0" rx="1" ry="1" /></g>
<g transform="translate(214.829603 93.790109) rotate(341.347758) scale(15.795114 32.752060)"><ellipse fill="#312d1f" fill-opacity="0.501961" cx="0" cy="0" rx="1" ry="1" /></g>
<polygon fill="#3e423f" fill-opacity="0.501961" points="167.838239,52.862567,130.978204,76.334084,131.786581,60.797912,188.329718,96.981721" />
<rect fill="#7d5127" fill-opacity="0.501961" x="149" y="101" width="36" height="20" />
<polygon fill="#4f4550" fill-opacity="0.501961" points="66.612430,74.627093,91.566188,54.186668,116.198433,43.714398,121.809796,70.966389" />
<g transform="translate(50.591250 53.323846) rotate(232.725176) scale(13.979518 99.703204)"><ellipse fill="#222825" fill-opacity="0.501961" cx="0" cy="0" rx="1" ry="1" /></g>
<g transform="translate(144.941969 29.772704) rotate(264.240989) scale(18.268302 12.681003)"><ellipse fill="#383750" fill-opacity="0.501961" cx="0" cy="0" rx="1" ry="1" /></g>
<polygon fill="#b38990" fill-opacity="0.501961" points="120,89 133,93 116,112" />
<g transform="translate(114.673922 114.472737) rotate(2.248905) scale(11.403554 7.622676)"><ellipse fill="#b67650" fill-opacity="0.501961" cx="0" cy="0" rx="1" ry="1" /></g>
<polygon fill="#756065" fill-opacity="0.501961" points="158,74 97,79 153,98" />
<polygon fill="#715644" fill-opacity="0.501961" points="105.379145,73.462360,39.949723,104.692495,60.226992,119.372642,103.995939,94.838716" />
<polygon fill="#8d5623" fill-opacity="0.501961" points="137,121 167,122 173,112" />
<rect fill="#c08d7f" fill-opacity="0.501961" x="113" y="108" width="12" height="8" />
<rect fill="#000307" fill-opacity="0.501961" x="126" y="104" width="3" height="6" />
<ellipse fill="#121e1f" fill-opacity="0.501961" cx="88" cy="128" rx="34" ry="9" />
<g transform="translate(221 77) rotate(45) scale(113 28)"><rect fill="#1f2823" fill-opacity="0.501961" x="-0.5" y="-0.5" width="1" height="1" /></g>
<g transform="translate(27.992398 90.472345) rotate(304.860940) scale(44.030160 11.140840)"><ellipse fill="#343127" fill-opacity="0.501961" cx="0" cy="0" rx="1" ry="1" /></g>
<g transform="translate(117.320113 39.529974) rotate(136.519357) scale(24.956382 8.033304)"><ellipse fill="#35384c" fill-opacity="0.501961" cx="0" cy="0" rx="1" ry="1" /></g>
<polygon fill="#583c1b" fill-opacity="0.501961" points="186.928469,102.311569,230.263316,121.549304,169.774095,119.327966,184.690777,124.367463" />
<g transform="translate(92.159330 0.000000) rotate(253.672608) scale(22.251623 55.742751)"><ellipse fill="#142123" fill-opacity="0.501961" cx="0" cy="0" rx="1" ry="1" /></g>
<ellipse fill="#986e76" fill-opacity="0.501961" cx="130" cy="87" rx="6" ry="17" />
<rect fill="#8f592c" fill-opacity="0.501961" x="59" y="111" width="16" height="9" />
<polygon fill="#624f7f" fill-opacity="0.501961" points="138,51 147,29 126,44" />
<polygon fill="#151f20" fill-opacity="0.501961" points="193,147 85,147 126,117" />
<rect fill="#1b2427" fill-opacity="0.501961" x="158" y="0" width="36" height="32" />
<polygon fill="#b66e3e" fill-opacity="0.501961" points="85,116 100,110 121,120" />
<polygon fill="#6e5768" fill-opacity="0.501961" points="130.957410,85.288912,124.021396,80.008860,127.328044,51.873489,94.162138,77.999411" />
<ellipse fill="#a97b9a" fill-opacity="0.501961" cx="125" cy="73" rx="4" ry="4" />
<g transform="translate(213.507535 5.965988) rotate(136.544781) scale(21.596368 64.211825)"><ellipse fill="#12201f" fill-opacity="0.501961" cx="0" cy="0" rx="1" ry="1" /></g>
<g transform="translate(152 70) rotate(226) scale(32 19)"><rect fill="#504a49" fill-opacity="0.501961" x="-0.5" y="-0.5" width="1" height="1" /></g>
<polygon fill="#846664" fill-opacity="0.501961" points="87,101 112,105 129,60" />
<polygon fill="#705741" fill-opacity="0.501961" points="172,107 153,84 144,112" />
<polygon fill="#2c2e31" fill-opacity="0.501961" points="131.296205,26.156005,83.176533,55.856798,16.212753,82.644350,81.687629,33.169182" />
<g transform="translate(56.644629 82.579308) rotate(239.236331) scale(7.798891 43.542480)"><ellipse fill="#493e34" fill-opacity="0.501961" cx="0" cy="0" rx="1" ry="1" /></g>
<g transform="translate(187.022273 78.786478) rotate(18.585877) scale(19.239361 11.942173)"><ellipse fill="#373831" fill-opacity="0.501961" cx="0" cy="0" rx="1" ry="1" /></g>
<polygon fill="#272e33" fill-opacity="0.501961" points="143,45 153,23 196,30" />
<ellipse fill="#121e20" fill-opacity="0.501961" cx="190" cy="129" rx="190" ry="6" />
<polygon fill="#6d4a28" fill-opacity="0.501961" points="41,124 46,103 67,114" />
<polygon fill="#19221e" fill-opacity="0.501961" points="66.510238,132.644686,68.549954,116.773848,28.449624,147.000000,35.386935,119.098283" />
<rect fill="#9f5f2d" fill-opacity="0.501961" x="136" y="115" width="27" height="6" />
<rect fill="#735d64" fill-opacity="0.501961" x="134" y="73" width="15" height="7" />
<polygon fill="#9f6f52" fill-opacity="0.501961" points="97,103 95,120 116,102" />
<ellipse fill="#463824" fill-opacity="0.501961" cx="22" cy="123" rx="7" ry="5" />
<polygon fill="#875d40" fill-opacity="0.501961" points="62.024958,119.299161,89.668506,117.164031,84.619541,94.946617,71.173015,113.064233" />
<rect fill="#906f84" fill-opacity="0.501961" x="109" y="75" width="6" height="14" />
<polygon fill="#17201c" fill-opacity="0.501961" points="249.653989,89.265116,229.785190,132.703766,271.000000,119.450842,271.000000,96.544702" />
<polygon fill="#131e1f" fill-opacity="0.501961" points="10.348560,80.582268,-16.000000,4.952723,43.779542,-16.000000,-16.000000,105.020177" />
<polygon fill="#363b43" fill-opacity="0.501961" points="149,25 161,66 171,51" />
<rect fill="#be7448" fill-opacity="0.501961" x="114" y="115" width="7" height="8" />
<polygon fill="#524434" fill-opacity="0.501961" points="194.044697,115.672767,162.172501,85.470581,177.323419,82.397463,186.110026,82.331523" />
<polygon fill="#a5653a" fill-opacity="0.501961" points="141,110 142,121 127,115" />
<polygon fill="#795f8e" fill-opacity="0.501961" points="127,65 136,45 129,46" />
<polygon fill="#896247" fill-opacity="0.501961" points="153.450566,104.493506,138.288107,92.716133,141.850166,101.855597,133.262991,122.871727" />
<polygon fill="#6b525d" fill-opacity="0.501961" points="106.920187,64.297790,125.037152,85.560903,130.806035,83.053861,108.233915,59.151898" />
<polygon fill="#5f4935" fill-opacity="0.501961" points="42.343074,123.825195,82.291521,87.606313,57.872467,86.694616,38.043873,100.260105" />
<polygon fill="#584c48" fill-opacity="0.501961" points="141.586532,56.324238,178.899195,104.964720,154.174373,75.891033,124.859525,68.334899" />
<g transform="translate(126 127) rotate(280) scale(16 9)"><rect fill="#141e1f" fill-opacity="0.501961" x="-0.5" y="-0.5" width="1" height="1" /></g>
<polygon fill="#2e2a21" fill-opacity="0.501961" points="190.062744,136.428092,105.754867,119.978222,87.097450,119.415158,145.336078,127.745836" />
<polygon fill="#2f2c20" fill-opacity="0.501961" points="215.277115,106.453949,204.729810,67.755290,238.681584,113.733447,216.941518,125.419907" />
<polygon fill="#474262" fill-opacity="0.501961" points="124,32 118,49 147,33" />
<polygon fill="#1a2120" fill-opacity="0.501961" points="162.236565,120.868566,175.182271,122.646210,65.278308,122.695348,168.777413,147.000000" />
<polygon fill="#4e4957" fill-opacity="0.501961" points="154.378118,43.034612,154.725337,53.546090,128.471429,58.708334,141.566866,49.341394" />
<polygon fill="#624220" fill-opacity="0.501961" points="183.749150,96.306346,189.849697,107.450661,206.961691,122.786582,181.897219,120.198003" />
<g transform="translate(122 68) rotate(142) scale(33 1)"><rect fill="#836684" fill-opacity="0.501961" x="-0.5" y="-0.5" width="1" height="1" /></g>
<polygon fill="#84695a" fill-opacity="0.501961" points="107,105 92,97 126,85" />
<polygon fill="#3a342e" fill-opacity="0.501961" points="77,49 45,87 49,65" />
<polygon fill="#383750" fill-opacity="0.501961" points="151,9 146,33 157,13" />
<g transform="translate(58.184310 47.485659) rotate(143.244721) scale(51.185694 7.269307)"><ellipse fill="#222929" fill-opacity="0.501961" cx="0" cy="0" rx="1" ry="1" /></g>
<g transform="translate(56.682484 126.932293) rotate(239.395109) scale(6.833928 6.158058)"><ellipse fill="#161f1e" fill-opacity="0.501961" cx="0" cy="0" rx="1" ry="1" /></g>
<ellipse fill="#071e1e" fill-opacity="0.501961" cx="127" cy="107" rx="3" ry="3" />
<polygon fill="#56474e" fill-opacity="0.501961" points="121.337536,60.033628,121.021577,52.113590,105.469767,75.579928,85.742135,62.384878" />
<polygon fill="#b28175" fill-opacity="0.501961" points="118.265910,120.655179,122.708242,108.224259,127.163342,98.142173,109.865224,104.510296" />
<polygon fill="#433624" fill-opacity="0.501961" points="192.233011,113.984042,226.988456,118.327349,193.243121,81.723445,200.166535,110.793153" />
<polygon fill="#2f3341" fill-opacity="0.501961" points="81.362946,64.806680,143.179055,20.585449,138.341095,12.777543,116.746879,23.750350" />
<g transform="translate(128 96) rotate(240) scale(18 4)"><rect fill="#a57a7b" fill-opacity="0.501961" x="-0.5" y="-0.5" width="1" height="1" /></g>
<rect fill="#b46c3d" fill-opacity="0.501961" x="86" y="118" width="40" height="1" />
<polygon fill="#292a20" fill-opacity="0.501961" points="17.973315,126.820079,1.270778,103.901087,-3.140215,113.570503,-4.304442,127.572607" />
<g transform="translate(26 117) rotate(331) scale(14 16)"><rect fill="#4e3c27" fill-opacity="0.501961" x="-0.5" y="-0.5" width="1" height="1" /></g>
<g transform="translate(127 109) rotate(190) scale(4 4)"><rect fill="#0b1e21" fill-opacity="0.501961" x="-0.5" y="-0.5" width="1" height="1" /></g>
<g transform="translate(99 85) rotate(151) scale(16 8)"><rect fill="#6f585a" fill-opacity="0.501961" x="-0.5" y="-0.5" width="1" height="1" /></g>
<g transform="translate(133 102) rotate(176) scale(7 14)"><rect fill="#96705f" fill-opacity="0.501961" x="-0.5" y="-0.5" width="1" height="1" /></g>
<polygon fill="#3d4144" fill-opacity="0.501961" points="159.490625,45.606637,163.726824,78.911371,183.745098,77.884750,145.135692,56.777786" />
<polygon fill="#63492f" fill-opacity="0.501961" points="188.636006,115.151937,176.600446,111.115632,161.795614,100.340544,187.442927,96.246422" />
<polygon fill="#2b332e" fill-opacity="0.501961" points="189.247346,54.957821,168.162002,51.616781,165.044319,63.448150,194.668090,68.169870" />
<polygon fill="#7e4c17" fill-opacity="0.501961" points="174,113 191,119 170,119" />
<polygon fill="#17201f" fill-opacity="0.501961" points="101.322545,118.286166,103.600976,122.109003,56.105108,121.693258,71.836929,147.000000" />
<rect fill="#121e22" fill-opacity="0.501961" x="146" y="122" width="8" height="5" />
<polygon fill="#915e39" fill-opacity="0.501961" points="134.216288,120.508711,155.364402,103.839208,138.984895,125.299251,136.559487,111.253104" />
<polygon fill="#695655" fill-opacity="0.501961" points="145,73 131,68 134,76" />
<polygon fill="#7a6665" fill-opacity="0.501961" points="146.627368,66.254398,141.527013,100.524157,131.266999,94.429327,143.534206,77.567371" />
<polygon fill="#212a39" fill-opacity="0.501961" points="175.986525,-16.000000,99.824121,26.819830,115.220465,29.927616,143.743966,13.847061" />
<polygon fill="#21292b" fill-opacity="0.501961" points="175.233127,5.638812,211.520439,66.031551,223.142161,88.340051,151.849812,23.715789" />
<ellipse fill="#a37d9c" fill-opacity="0.501961" cx="127" cy="71" rx="3" ry="3" />
<polygon fill="#645363" fill-opacity="0.501961" points="118.745881,76.155071,121.006904,68.514019,127.617648,69.922236,113.011734,56.094247" />
<polygon fill="#151f20" fill-opacity="0.501961" points="39.131930,119.994685,41.076552,125.357733,180.932310,123.756448,-16.000000,147.000000" />
<ellipse fill="#65506f" fill-opacity="0.501961" cx="123" cy="56" rx="6" ry="6" />
<g transform="translate(123 99) rotate(337) scale(15 6)"><rect fill="#ab8288" fill-opacity="0.501961" x="-0.5" y="-0.5" width="1" height="1" /></g>
<polygon fill="#1a2524" fill-opacity="0.501961" points="-8.161730,84.196286,0.090761,94.176842,54.766943,35.608840,31.194497,32.410640" />
<polygon fill="#1d272c" fill-opacity="0.501961" points="127.689800,13.816946,114.963979,-7.650128,104.175599,32.700932,64.309488,31.894923" />
<ellipse fill="#121e1e" fill-opacity="0.501961" cx="128" cy="129" rx="1" ry="24" />
<polygon fill="#96684c" fill-opacity="0.501961" points="98.584930,112.627148,110.872341,105.229774,113.879531,101.039542,108.937430,118.177462" />
<polygon fill="#ac7050" fill-opacity="0.501961" points="102,114 91,105 97,120" />
<polygon fill="#84542d" fill-opacity="0.501961" points="59,111 83,118 61,118" />
<rect fill="#624f46" fill-opacity="0.501961" x="72" y="78" width="23" height="12" />
<rect fill="#8e5e40" fill-opacity="0.501961" x="124" y="114" width="4" height="4" />
<polygon fill="#6f4e30" fill-opacity="0.501961" points="55,103 39,123 70,108" />
<polygon fill="#5e5551" fill-opacity="0.501961" points="146.172722,68.792281,150.229101,91.825610,163.366803,91.653718,161.316811,85.860716" />
<polygon fill="#4e4341" fill-opacity="0.501961" points="68,73 115,50 86,77" />
<path stroke="#332c1f" stroke-opacity="0.501961" fill="none" d="M 63.464105 120.292118 Q 84.055520 123.095695, 92.613213 118.590357" stroke-width="0.500000" />
<polygon fill="#2a2d28" fill-opacity="0.501961" points="224.382084,103.628851,215.156317,96.687145,174.472039,51.083475,215.343357,74.917071" />
<polygon fill="#4d4032" fill-opacity="0.501961" points="65,77 19,110 42,108" />
<polygon fill="#162320" fill-opacity="0.501961" points="210,37 261,112 240,21" />
<ellipse fill="#464035" fill-opacity="0.501961" cx="137" cy="68" rx="3" ry="3" />
<polygon fill="#2a2e3b" fill-opacity="0.501961" points="141.442827,27.982053,140.018301,26.705130,163.309642,-16.000000,139.985860,37.421754" />
<ellipse fill="#403018" fill-opacity="0.501961" cx="199" cy="121" rx="33" ry="1" />
<polygon fill="#222720" fill-opacity="0.501961" points="252,117 224,68 226,108" />
<polygon fill="#7c5e4b" fill-opacity="0.501961" points="85,111 71,109 93,90" />
<polygon fill="#604426" fill-opacity="0.501961" points="27,117 54,121 42,114" />
<polygon fill="#42404a" fill-opacity="0.501961" points="107,62 105,43 123,41" />
<g transform="translate(126 112) rotate(194) scale(1 10)"><rect fill="#30312d" fill-opacity="0.501961" x="-0.5" y="-0.5" width="1" height="1" /></g>
<g transform="translate(155 18) rotate(189) scale(3 18)"><rect fill="#2c3249" fill-opacity="0.501961" x="-0.5" y="-0.5" width="1" height="1" /></g>
<polygon fill="#724e2e" fill-opacity="0.501961" points="188.454538,114.581530,179.346269,113.125252,157.493893,111.273887,162.580403,102.090764" />
<g transform="translate(136.404198 25.974531) rotate(289.327747) scale(10.401154 2.228789)"><ellipse fill="#383956" fill-opacity="0.501961" cx="0" cy="0" rx="1" ry="1" /></g>
<rect fill="#95748c" fill-opacity="0.501961" x="129" y="73" width="2" height="12" />
<g transform="translate(131 115) rotate(2) scale(5 6)"><rect fill="#b06e45" fill-opacity="0.501961" x="-0.5" y="-0.5" width="1" height="1" /></g>
<polygon fill="#44434d" fill-opacity="0.501961" points="149.652889,49.448227,139.166440,68.009768,164.619702,48.122505,164.683858,44.539826" />
<path stroke="#7f6258" stroke-opacity="0.501961" fill="none" d="M 87.290695 90.501228 Q 119.549585 85.845847, 128.240607 120.398950" stroke-width="0.500000" />
<polygon fill="#4c4651" fill-opacity="0.501961" points="142.880842,39.676260,149.709188,70.465299,154.009965,38.754895,138.618669,62.509037" />
<polygon fill="#363a3b" fill-opacity="0.501961" points="172.569433,57.782513,152.653322,54.957960,174.592453,75.551325,184.273290,74.319952" />
<polygon fill="#4b416f" fill-opacity="0.501961" points="156,2 154,-16 144,-16" />
<g transform="translate(151.642804 30.316768) rotate(104.098077) scale(2.890320 6.349280)"><ellipse fill="#3d374d" fill-opacity="0.501961" cx="0" cy="0" rx="1" ry="1" /></g>
<polygon fill="#192425" fill-opacity="0.501961" points="214.200386,46.070334,161.496902,15.480159,167.861985,-13.836071,202.740535,11.111889" />
<polygon fill="#323128" fill-opacity="0.501961" points="195.706735,76.476484,190.878847,71.073738,186.814954,77.762564,189.854677,86.015614" />
<g transform="translate(94 121) rotate(26) scale(11 1)"><rect fill="#222520" fill-opacity="0.501961" x="-0.5" y="-0.5" width="1" height="1" /></g>
<path stroke="#61411f" stroke-opacity="0.501961" fill="none" d="M 217.130211 119.337535 Q 204.233307 118.424964, 133.637399 122.574650" stroke-width="0.500000" />
<rect fill="#3e3628" fill-opacity="0.501961" x="15" y="101" width="8" height="26" />
<g transform="translate(122 83) rotate(284) scale(21 1)"><rect fill="#7b5c5d" fill-opacity="0.501961" x="-0.5" y="-0.5" width="1" height="1" /></g>
<polygon fill="#bd7957" fill-opacity="0.501961" points="124,118 120,114 124,110" />
<polygon fill="#151f20" fill-opacity="0.501961" points="161,136 125,118 95,143" />
<polygon fill="#31343c" fill-opacity="0.501961" points="160,26 143,37 146,42" />
<g transform="translate(136 49) rotate(40) scale(1 11)"><rect fill="#806190" fill-opacity="0.501961" x="-0.5" y="-0.5" width="1" height="1" /></g>
<g transform="translate(49.972319 8.641653) rotate(45.620113) scale(14.915415 33.618400)"><ellipse fill="#152020" fill-opacity="0.501961" cx="0" cy="0" rx="1" ry="1" /></g>
<ellipse fill="#6e5883" fill-opacity="0.501961" cx="127" cy="51" rx="2" ry="8" />
<g transform="translate(142 45) rotate(260) scale(8 1)"><rect fill="#614f68" fill-opacity="0.501961" x="-0.5" y="-0.5" width="1" height="1" /></g>
<polygon fill="#8a676a" fill-opacity="0.501961" points="128.657362,78.812057,133.733826,78.469951,103.743283,104.491427,139.760069,79.140349" />
<rect fill="#967269" fill-opacity="0.501961" x="129" y="91" width="5" height="14" />
<ellipse fill="#b482b3" fill-opacity="0.501961" cx="125" cy="65" rx="1" ry="1" />
<polygon fill="#50493f" fill-opacity="0.501961" points="159,78 177,90 172,97" />
<rect fill="#6e5270" fill-opacity="0.501961" x="143" y="54" width="2" height="5" />
<polygon fill="#212933" fill-opacity="0.501961" points="106.208326,9.543206,136.481471,3.111990,154.639229,30.991611,135.543282,11.012763" />
<ellipse fill="#4f4b65" fill-opacity="0.501961" cx="152" cy="47" rx="3" ry="3" />
<polygon fill="#6e4821" fill-opacity="0.501961" points="188,116 181,109 184,122" />
<polygon fill="#3b383b" fill-opacity="0.501961" points="85,44 85,60 106,51" />
<g transform="translate(128 63) rotate(320) scale(9 1)"><rect fill="#987096" fill-opacity="0.501961" x="-0.5" y="-0.5" width="1" height="1" /></g>
<polygon fill="#9a6137" fill-opacity="0.501961" points="129.948287,116.483640,152.253485,120.109323,135.295611,112.924603,134.981412,123.029045" />
<polygon fill="#685764" fill-opacity="0.501961" points="106.750076,73.555053,108.013249,82.056815,113.435892,69.828792,153.391447,59.157036" />
<polygon fill="#262c33" fill-opacity="0.501961" points="160,19 186,37 169,40" />
<polygon fill="#423b30" fill-opacity="0.501961" points="174.365233,73.229518,207.362508,94.083293,179.745231,94.288733,181.262824,102.667114" />
<polygon fill="#151f1f" fill-opacity="0.501961" points="74,119 105,122 64,147" />
<polygon fill="#715747" fill-opacity="0.501961" points="93.391102,81.280633,67.824645,105.612640,100.212173,91.012610,92.155047,82.885929" />
<polygon fill="#785956" fill-opacity="0.501961" points="134,87 121,81 120,75" />
<polygon fill="#5f515f" fill-opacity="0.501961" points="127,62 118,57 128,57" />
<polygon fill="#1d262b" fill-opacity="0.501961" points="187.885655,13.146713,147.016429,16.746876,182.113851,2.461285,170.678593,20.815511" />
<g transform="translate(20.775321 83.679473) rotate(308.758345) scale(26.651066 5.132664)"><ellipse fill="#282b27" fill-opacity="0.501961" cx="0" cy="0" rx="1" ry="1" /></g>
<ellipse fill="#04181b" fill-opacity="0.501961" cx="130" cy="119" rx="1" ry="1" />
<polygon fill="#162020" fill-opacity="0.501961" points="79.367392,138.235861,33.600966,120.298271,32.736697,136.763606,101.997840,119.816771" />
<path stroke="#1e231f" stroke-opacity="0.501961" fill="none" d="M 110.506170 120.068598 Q 100.981118 138.727084, 59.682428 119.747521" stroke-width="0.500000" />
<polygon fill="#816559" fill-opacity="0.501961" points="90,109 85,103 109,89" />
<g transform="translate(142 119) rotate(321) scale(10 1)"><rect fill="#ac6732" fill-opacity="0.501961" x="-0.5" y="-0.5" width="1" height="1" /></g>
<ellipse fill="#5b412c" fill-opacity="0.501961" cx="87" cy="120" rx="2" ry="1" />
<g transform="translate(127 106) rotate(169) scale(1 7)"><rect fill="#0c1d1b" fill-opacity="0.501961" x="-0.5" y="-0.5" width="1" height="1" /></g>
<polygon fill="#8e6040" fill-opacity="0.501961" points="144,117 156,111 140,106" />
<ellipse fill="#b67ba2" fill-opacity="0.501961" cx="126" cy="75" rx="2" ry="2" />
<g transform="translate(146 95) rotate(87) scale(9 9)"><rect fill="#746252" fill-opacity="0.501961" x="-0.5" y="-0.5" width="1" height="1" /></g>
<g transform="translate(75.899912 22.338683) rotate(57.335419) scale(6.535738 53.613013)"><ellipse fill="#1a2525" fill-opacity="0.501961" cx="0" cy="0" rx="1" ry="1" /></g>
<polygon fill="#534748" fill-opacity="0.501961" points="100.312573,66.379140,76.497881,74.103389,97.103953,78.606167,116.305206,46.808280" />
<g transform="translate(121 97) rotate(295) scale(6 1)"><rect fill="#b595a5" fill-opacity="0.501961" x="-0.5" y="-0.5" width="1" height="1" /></g>
<g transform="translate(121 70) rotate(334) scale(3 9)"><rect fill="#7d607a" fill-opacity="0.501961" x="-0.5" y="-0.5" width="1" height="1" /></g>
<polygon fill="#584b6f" fill-opacity="0.501961" points="138.176973,35.350741,146.556926,31.585518,121.978060,49.263654,143.168823,43.198217" />
<polygon fill="#584531" fill-opacity="0.501961" points="52.942496,101.492629,54.441198,93.832352,41.517499,100.321384,28.613811,125.708984" />
<polygon fill="#302d21" fill-opacity="0.501961" points="239.424972,120.661406,236.167688,122.240707,205.148905,78.281268,212.168347,110.184054" />
<polygon fill="#6d513a" fill-opacity="0.501961" points="55.214167,107.380941,54.286052,97.447791,61.018548,115.636468,78.016909,89.992987" />
<path stroke="#292921" stroke-opacity="0.501961" fill="none" d="M 85.126788 118.869979 Q 69.557197 117.984899, 61.735437 135.392052" stroke-width="0.500000" />
<polygon fill="#8b5523" fill-opacity="0.501961" points="160,112 177,117 154,121" />
<ellipse fill="#3b3755" fill-opacity="0.501961" cx="153" cy="18" rx="5" ry="2" />
<polygon fill="#b06c3e" fill-opacity="0.501961" points="108,112 118,120 97,117" />
<ellipse fill="#675664" fill-opacity="0.501961" cx="145" cy="73" rx="3" ry="3" />
<rect fill="#65513e" fill-opacity="0.501961" x="154" y="93" width="17" height="10" />
<polygon fill="#81636c" fill-opacity="0.501961" points="106,76 104,86 120,79" />
<polygon fill="#614e52" fill-opacity="0.501961" points="102,78 87,81 110,62" />
<rect fill="#141e1f" fill-opacity="0.501961" x="65" y="120" width="4" height="12" />
<polygon fill="#a96e4b" fill-opacity="0.501961" points="104,120 97,113 104,111" />
<ellipse fill="#a77669" fill-opacity="0.501961" cx="120" cy="104" rx="2" ry="4" />
<polygon fill="#4d484a" fill-opacity="0.501961" points="135.038343,65.632836,165.058377,67.527403,162.474589,83.818402,156.968747,75.869598" />
<polygon fill="#162020" fill-opacity="0.501961" points="134.746230,147.000000,182.000054,120.669160,180.974082,130.469208,166.241969,121.357191" />
<polygon fill="#1c2722" fill-opacity="0.501961" points="236.742958,97.056704,217.224546,76.723177,211.603522,62.396245,236.753489,61.870947" />
<polygon fill="#111f1f" fill-opacity="0.501961" points="21,127 20,147 -16,124" />
<ellipse fill="#cb7f5a" fill-opacity="0.501961" cx="115" cy="117" rx="3" ry="3" />
<polygon fill="#c08c7b" fill-opacity="0.501961" points="115,117 120,115 123,105" />
<polygon fill="#14201f" fill-opacity="0.501961" points="234.611532,147.000000,254.325530,119.535137,223.292214,130.728498,228.031834,118.023482" />
<rect fill="#7a522f" fill-opacity="0.501961" x="54" y="111" width="12" height="8" />
<g transform="translate(191 103) rotate(231) scale(28 8)"><rect fill="#533f2a" fill-opacity="0.501961" x="-0.5" y="-0.5" width="1" height="1" /></g>
<polygon fill="#9a757d" fill-opacity="0.501961" points="110,90 114,84 108,85" />
<polygon fill="#2b2f36" fill-opacity="0.501961" points="85.834911,47.362894,96.845524,50.313284,102.952044,36.968776,84.182337,38.821157" />
<polygon fill="#473c39" fill-opacity="0.501961" points="80.119389,57.863354,52.976259,85.533019,82.640849,69.814014,96.124918,55.251448" />
<polygon fill="#373b46" fill-opacity="0.501961" points="154,53 169,36 158,60" />
<ellipse fill="#775c95" fill-opacity="0.501961" cx="131" cy="48" rx="3" ry="3" />
<path stroke="#725a68" stroke-opacity="0.501961" fill="none" d="M 125.843047 85.802140 Q 133.340505 60.437477, 139.259993 51.620222" stroke-width="0.500000" />
<g transform="translate(172 43) rotate(349) scale(7 30)"><rect fill="#272e31" fill-opacity="0.501961" x="-0.5" y="-0.5" width="1" height="1" /></g>
<ellipse fill="#9e7886" fill-opacity="0.501961" cx="123" cy="92" rx="2" ry="5" />
<path stroke="#99736a" stroke-opacity="0.501961" fill="none" d="M 119.594283 93.142278 Q 111.255383 108.773272, 128.203627 113.907958" stroke-width="0.500000" />
<polygon fill="#896754" fill-opacity="0.501961" points="109,111 108,97 104,110" />
<g transform="translate(208.560161 119.046825) rotate(58.383408) scale(3.553354 4.275540)"><ellipse fill="#4c361a" fill-opacity="0.501961" cx="0" cy="0" rx="1" ry="1" /></g>
<polygon fill="#8c6a63" fill-opacity="0.501961" points="129.209979,90.273770,134.328007,93.245261,136.934434,80.701778,139.443354,100.327130" />
<polygon fill="#7f635c" fill-opacity="0.501961" points="120.557038,86.236341,97.118528,104.440818,103.400505,76.737721,96.402254,95.353925" />
<g transform="translate(129.749457 76.382148) rotate(59.156364) scale(2.079250 2.568893)"><ellipse fill="#937386" fill-opacity="0.501961" cx="0" cy="0" rx="1" ry="1" /></g>
<g transform="translate(142 80) rotate(60) scale(12 4)"><rect fill="#755f6a" fill-opacity="0.501961" x="-0.5" y="-0.5" width="1" height="1" /></g>
<rect fill="#333026" fill-opacity="0.501961" x="8" y="96" width="8" height="31" />
<polygon fill="#996c53" fill-opacity="0.501961" points="86.243093,115.744891,105.821969,100.396875,82.845409,111.039723,119.869837,110.114886" />
<ellipse fill="#5f401b" fill-opacity="0.501961" cx="198" cy="119" rx="4" ry="4" />
<g transform="translate(74 85) rotate(54) scale(6 20)"><rect fill="#5a4a3c" fill-opacity="0.501961" x="-0.5" y="-0.5" width="1" height="1" /></g>
<polygon fill="#3b352d" fill-opacity="0.501961" points="76.313190,60.196885,73.664137,53.587255,23.629906,105.007883,19.318205,98.091089" />
<polygon fill="#4d4647" fill-opacity="0.501961" points="153.731730,78.002487,147.976027,52.764872,136.433982,66.263810,148.236182,66.955978" />
<polygon fill="#725744" fill-opacity="0.501961" points="148,110 160,97 156,94" />
<polygon fill="#1c262a" fill-opacity="0.501961" points="87.095891,30.433017,58.953180,25.457499,126.365953,8.185234,119.013634,16.675589" />
<g transform="translate(30.531036 100.824205) rotate(222.085685) scale(4.347496 19.255402)"><ellipse fill="#453b2e" fill-opacity="0.501961" cx="0" cy="0" rx="1" ry="1" /></g>
<polygon fill="#383b53" fill-opacity="0.501961" points="131,32 142,32 131,23" />
<rect fill="#664728" fill-opacity="0.501961" x="41" y="116" width="11" height="7" />
<g transform="translate(214 33) rotate(333) scale(3 1)"><rect fill="#2c3037" fill-opacity="0.501961" x="-0.5" y="-0.5" width="1" height="1" /></g>
<g transform="translate(137 39) rotate(-7) scale(1 11)"><rect fill="#48425f" fill-opacity="0.501961" x="-0.5" y="-0.5" width="1" height="1" /></g>
<path stroke="#342e25" stroke-opacity="0.501961" fill="none" d="M 85.845076 147.000000 Q 132.839459 121.066745, 153.995035 121.030927" stroke-width="0.500000" />
<rect fill="#785658" fill-opacity="0.501961" x="119" y="77" width="9" height="6" />
<polygon fill="#765c7c" fill-opacity="0.501961" points="129,53 122,54 131,59" />
<polygon fill="#212732" fill-opacity="0.501961" points="151.963660,15.242917,144.694418,0.635573,169.434107,4.947545,135.438839,10.112928" />
<polygon fill="#47444a" fill-opacity="0.501961" points="168.872638,87.969011,149.048232,48.859521,136.296618,57.883929,144.606574,47.828749" />
<path stroke="#182120" stroke-opacity="0.501961" fill="none" d="M 102.319775 119.158669 Q 102.343596 127.205507, 183.840585 125.741295" stroke-width="0.500000" />
<rect fill="#222727" fill-opacity="0.501961" x="145" y="22" width="4" height="3" />
<rect fill="#9e6c51" fill-opacity="0.501961" x="130" y="105" width="8" height="10" />
<polygon fill="#2b3246" fill-opacity="0.501961" points="135.547400,6.836928,140.960041,25.962110,146.387793,8.319211,131.162395,27.950392" />
<ellipse fill="#474137" fill-opacity="0.501961" cx="180" cy="87" rx="7" ry="7" />
<g transform="translate(122.238492 60.896617) rotate(30.075835) scale(1.498757 2.393290)"><ellipse fill="#775a7b" fill-opacity="0.501961" cx="0" cy="0" rx="1" ry="1" /></g>
<g transform="translate(230.442807 6.418868) rotate(8.391533) scale(36.850945 20.189964)"><ellipse fill="#142020" fill-opacity="0.501961" cx="0" cy="0" rx="1" ry="1" /></g>
<polygon fill="#4b3f58" fill-opacity="0.501961" points="151,29 146,29 145,26" />
<polygon fill="#835630" fill-opacity="0.501961" points="67.676785,114.406499,71.052338,122.163036,80.902691,109.504166,77.301015,116.055238" />
<ellipse fill="#333c3f" fill-opacity="0.501961" cx="2" cy="28" rx="1" ry="1" />
<g transform="translate(127 110) rotate(202) scale(1 3)"><rect fill="#091b1d" fill-opacity="0.501961" x="-0.5" y="-0.5" width="1" height="1" /></g>
<g transform="translate(134.739052 56.588742) rotate(175.663533) scale(5.632296 2.119955)"><ellipse fill="#645467" fill-opacity="0.501961" cx="0" cy="0" rx="1" ry="1" /></g>
<g transform="translate(43 29) rotate(140) scale(33 14)"><rect fill="#182323" fill-opacity="0.501961" x="-0.5" y="-0.5" width="1" height="1" /></g>
<polygon fill="#534b58" fill-opacity="0.501961" points="117,55 116,67 114,57" />
<polygon fill="#21292f" fill-opacity="0.501961" points="152,26 158,17 182,25" />
<polygon fill="#514d4b" fill-opacity="0.501961" points="163.258261,89.709674,159.443647,84.062967,140.946801,63.130966,161.525621,72.865938" />
<rect fill="#855e47" fill-opacity="0.501961" x="77" y="98" width="3" height="15" />
<ellipse fill="#464060" fill-opacity="0.501961" cx="123" cy="28" rx="1" ry="2" />
<ellipse fill="#524d60" fill-opacity="0.501961" cx="152" cy="51" rx="1" ry="7" />
<polygon fill="#392e1e" fill-opacity="0.501961" points="229.378718,117.760565,224.008606,111.830521,205.998768,124.267786,232.411291,119.475115" />
<path stroke="#8b5a36" stroke-opacity="0.501961" fill="none" d="M 50.204057 119.120170 Q 59.569216 106.346850, 121.570202 123.380260" stroke-width="0.500000" />
<polygon fill="#232a2e" fill-opacity="0.501961" points="89.940700,45.287011,91.600138,41.615398,112.066660,22.221853,81.971914,29.462864" />
<g transform="translate(146 121) rotate(-1) scale(2 1)"><rect fill="#595166" fill-opacity="0.501961" x="-0.5" y="-0.5" width="1" height="1" /></g>
<g transform="translate(154 57) rotate(149) scale(10 1)"><rect fill="#4c4c55" fill-opacity="0.501961" x="-0.5" y="-0.5" width="1" height="1" /></g>
<g transform="translate(127 128) rotate(66) scale(17 9)"><rect fill="#151f1f" fill-opacity="0.501961" x="-0.5" y="-0.5" width="1" height="1" /></g>
<ellipse fill="#544d53" fill-opacity="0.501961" cx="125" cy="60" rx="2" ry="2" />
<ellipse fill="#8e7074" fill-opacity="0.501961" cx="114" cy="89" rx="2" ry="7" />
<polygon fill="#424042" fill-opacity="0.501961" points="156.458816,61.349711,148.112798,73.013774,152.957018,59.663324,143.075425,48.633430" />
<polygon fill="#1f272c" fill-opacity="0.501961" points="172.739090,20.395036,148.870699,38.989847,179.821601,21.892497,172.179097,-11.522758" />
<polygon fill="#3d3b40" fill-opacity="0.501961" points="102,42 107,50 99,58" />
<polygon fill="#926f61" fill-opacity="0.501961" points="109,93 112,105 115,100" />
<rect fill="#45341e" fill-opacity="0.501961" x="211" y="111" width="10" height="9" />
<g transform="translate(140 22) rotate(302) scale(9 7)"><rect fill="#313548" fill-opacity="0.501961" x="-0.5" y="-0.5" width="1" height="1" /></g>
<g transform="translate(72.542311 92.050907) rotate(108.675389) scale(4.525905 5.586120)"><ellipse fill="#654f3f" fill-opacity="0.501961" cx="0" cy="0" rx="1" ry="1" /></g>
<g transform="translate(134.267069 52.471311) rotate(176.246579) scale(6.252525 1.000000)"><ellipse fill="#615071" fill-opacity="0.501961" cx="0" cy="0" rx="1" ry="1" /></g>
<polygon fill="#192321" fill-opacity="0.501961" points="-6.951531,79.364014,13.950389,31.838738,1.104704,100.035954,3.916906,110.132251" />
<polygon fill="#7f5a62" fill-opacity="0.501961" points="122,86 122,74 127,78" />
<rect fill="#7b6051" fill-opacity="0.501961" x="92" y="95" width="21" height="2" />
<polygon fill="#242a29" fill-opacity="0.501961" points="85.755227,32.866152,50.203702,60.255843,33.674630,40.506460,42.757863,54.672756" />
<rect fill="#353d46" fill-opacity="0.501961" x="111" y="50" width="8" height="2" />
<g transform="translate(143 26) rotate(148) scale(6 8)"><rect fill="#2b2f39" fill-opacity="0.501961" x="-0.5" y="-0.5" width="1" height="1" /></g>
<polygon fill="#2d333b" fill-opacity="0.501961" points="171.707203,33.725926,150.482165,45.732314,166.879997,42.937573,162.294098,60.755400" />
<polygon fill="#2b2b22" fill-opacity="0.501961" points="232,122 215,90 227,94" />
</g>
</svg>