<svg height="692" width="1024" xmlns="http://www.w3.org/2000/svg"><path d="m0 0h1024v692h-1024z" fill="#82857a"/><g fill-opacity=".501961" stroke-width="4"><ellipse cx="926" cy="350" rx="144" ry="76"/><ellipse cx="118" cy="114" fill="#a4cdd6" rx="240" ry="236"/><ellipse cx="758" cy="690" fill="#090000" rx="112" ry="108"/><ellipse cx="734" cy="258" fill="#1c1e0b" rx="128" ry="80"/><ellipse cx="814" cy="50" fill="#6fa3b2" rx="700" ry="140"/><ellipse cx="498" cy="382" fill="#310000" rx="164" ry="28"/><ellipse cx="742" cy="462" fill="#cba384" rx="184" ry="100"/><ellipse cx="358" cy="274" fill="#000a00" rx="68" ry="40"/><ellipse cx="998" cy="214" fill="#89bdc0" rx="112" ry="112"/><ellipse cx="1022" cy="386" rx="152" ry="56"/><ellipse cx="158" cy="522" fill="#b08f73" rx="520" ry="140"/><ellipse cx="842" cy="306" fill="#000700" rx="68" ry="60"/><ellipse cx="626" cy="294" fill="#969d95" rx="108" ry="64"/><ellipse cx="546" cy="690" fill="#52492f" rx="364" ry="48"/><ellipse cx="694" cy="202" fill="#623b1c" rx="96" ry="52"/><ellipse cx="658" cy="614" fill="#8e6844" rx="60" ry="104"/><ellipse cx="894" cy="534" fill="#ad8f73" rx="160" ry="112"/><ellipse cx="782" cy="690" fill="#031103" rx="88" ry="72"/><ellipse cx="462" cy="234" fill="#474222" rx="80" ry="24"/><ellipse cx="118" cy="358" fill="#5c482a" rx="164" ry="16"/><ellipse cx="198" cy="314" fill="#c7d3cc" rx="100" ry="28"/><ellipse cx="394" cy="178" fill="#89adb3" rx="104" ry="52"/><ellipse cx="918" cy="154" fill="#709fa5" rx="112" ry="120"/><ellipse cx="578" cy="538" fill="#e9bc9e" rx="44" ry="48"/><ellipse cx="650" cy="294" fill="#0d1403" rx="36" ry="20"/><ellipse cx="922" cy="590" fill="#5b6352" rx="120" ry="28"/><ellipse cx="798" cy="266" fill="#1b1a09" rx="60" ry="52"/><ellipse cx="66" cy="638" fill="#8d765c" rx="276" ry="60"/><ellipse cx="730" cy="394" fill="#b19376" rx="104" ry="60"/><ellipse cx="906" cy="354" fill="#111806" rx="84" ry="48"/><ellipse cx="66" cy="254" fill="#adbfba" rx="120" ry="96"/><ellipse cx="706" cy="582" fill="#100b00" rx="24" ry="24"/><ellipse cx="626" cy="690" fill="#b19d87" rx="80" ry="28"/><ellipse cx="426" cy="290" fill="#4c482a" rx="108" ry="20"/><ellipse cx="490" cy="462" fill="#8d9892" rx="232" ry="56"/><ellipse cx="1022" cy="270" fill="#94a89e" rx="92" ry="68"/><ellipse cx="970" cy="502" fill="#c0a18b" rx="136" ry="52"/><ellipse cx="1014" cy="410" fill="#0f1503" rx="64" ry="40"/><ellipse cx="566" cy="262" fill="#8eb7c0" rx="132" ry="12"/><ellipse cx="218" cy="386" fill="#c09b7d" rx="124" ry="24"/><ellipse cx="382" cy="382" fill="#4d2a1e" rx="44" ry="28"/><ellipse cx="1010" cy="654" fill="#bb9573" rx="140" ry="44"/><ellipse cx="242" cy="2" fill="#7f9697" rx="248" ry="112"/><ellipse cx="350" cy="470" fill="#70776e" rx="56" ry="68"/><ellipse cx="586" cy="230" fill="#101200" rx="28" ry="8"/><ellipse cx="370" cy="250" fill="#263f28" rx="80" ry="20"/><ellipse cx="598" cy="382" fill="#432319" rx="36" ry="28"/><ellipse cx="498" cy="326" fill="#a59d8b" rx="236" ry="20"/><ellipse cx="442" cy="274" fill="#c88f4f" rx="16" ry="64"/><ellipse cx="766" cy="38" fill="#849fa2" rx="136" ry="140"/><ellipse cx="494" cy="90" fill="#73969d" rx="188" ry="120"/><ellipse cx="806" cy="690" fill="#1c2216" rx="100" ry="24"/><ellipse cx="578" cy="650" fill="#656352" rx="112" ry="28"/><ellipse cx="630" cy="298" fill="#2b3222" rx="44" ry="12"/><ellipse cx="930" cy="194" fill="#779d9f" rx="80" ry="96"/><ellipse cx="594" cy="490" fill="#393e30" rx="88" ry="4"/><ellipse cx="494" cy="270" fill="#8c9b9a" rx="116" ry="8"/><ellipse cx="830" cy="486" fill="#ac927c" rx="120" ry="92"/><ellipse cx="618" cy="198" fill="#23392e" rx="44" ry="12"/><ellipse cx="526" cy="422" fill="#ada99c" rx="100" ry="20"/><ellipse cx="830" cy="158" fill="#5c959f" rx="60" ry="48"/><ellipse cx="474" cy="562" fill="#be997e" rx="184" ry="28"/><ellipse cx="482" cy="278" fill="#17586b" rx="12" ry="64"/><ellipse cx="662" cy="378" fill="#979c91" rx="32" ry="72"/><ellipse cx="454" cy="482" fill="#65675b" rx="116" ry="12"/><ellipse cx="686" cy="170" fill="#925937" rx="52" ry="28"/><ellipse cx="618" cy="254" fill="#88a9ac" rx="80" ry="16"/><ellipse cx="302" cy="358" fill="#aca796" rx="40" ry="48"/><ellipse cx="290" cy="158" fill="#92a6a5" rx="164" ry="80"/><ellipse cx="502" cy="298" fill="#c00912" rx="16" ry="12"/><ellipse cx="414" cy="530" fill="#2b392e" rx="92" ry="4"/><ellipse cx="354" cy="362" fill="#293322" rx="12" ry="44"/><ellipse cx="518" cy="498" fill="#b5b1a3" rx="212" ry="8"/><ellipse cx="622" cy="470" fill="#bdb8ac" rx="68" ry="16"/><ellipse cx="506" cy="386" fill="#482b1e" rx="76" ry="24"/><ellipse cx="514" cy="218" fill="#de3a3d" rx="16" ry="16"/><ellipse cx="702" cy="222" fill="#091206" rx="28" ry="16"/><ellipse cx="394" cy="374" fill="#b66b65" rx="12" ry="28"/><ellipse cx="702" cy="306" fill="#8db0ac" rx="20" ry="28"/><ellipse cx="890" cy="346" fill="#1c2014" rx="80" ry="52"/><ellipse cx="750" cy="690" fill="#202516" rx="36" ry="96"/><ellipse cx="22" cy="318" fill="#bcc5bd" rx="272" ry="20"/><ellipse cx="722" cy="166" fill="#d0a37e" rx="20" ry="16"/><ellipse cx="490" cy="326" fill="#a9a499" rx="80" ry="20"/><ellipse cx="522" cy="282" fill="#cd0e11" rx="16" ry="12"/><ellipse cx="574" cy="546" fill="#ecc9ad" rx="20" ry="32"/><ellipse cx="430" cy="254" fill="#162a1f" rx="40" ry="8"/><ellipse cx="678" cy="166" fill="#161406" rx="24" ry="8"/><ellipse cx="470" cy="222" fill="#004c81" rx="16" ry="12"/><ellipse cx="574" cy="606" fill="#bc9576" rx="100" ry="12"/><ellipse cx="306" cy="286" fill="#2b362a" rx="16" ry="24"/><ellipse cx="106" cy="490" fill="#a08972" rx="208" ry="124"/><ellipse cx="370" cy="434" fill="#54584f" rx="72" ry="8"/><ellipse cx="714" cy="342" fill="#846240" rx="36" ry="16"/><ellipse cx="614" cy="382" fill="#322a1e" rx="20" ry="28"/><ellipse cx="190" cy="346" fill="#4f5c50" rx="80" ry="8"/><ellipse cx="234" cy="258" fill="#a3b4b1" rx="64" ry="76"/><ellipse cx="402" cy="458" fill="#aba396" rx="280" ry="8"/><ellipse cx="522" cy="238" fill="#16292a" rx="48" ry="8"/><ellipse cx="814" cy="286" fill="#202417" rx="64" ry="44"/><ellipse cx="770" cy="374" fill="#bd9170" rx="40" ry="36"/><ellipse cx="658" cy="578" fill="#715234" rx="8" ry="76"/><ellipse cx="522" cy="78" fill="#699097" rx="64" ry="136"/><ellipse cx="674" cy="674" fill="#a3917b" rx="24" ry="24"/><ellipse cx="102" cy="634" fill="#8f7e68" rx="284" ry="52"/><ellipse cx="470" cy="298" fill="#004d75" rx="16" ry="12"/><ellipse cx="658" cy="246" fill="#8a9f9b" rx="12" ry="24"/><ellipse cx="758" cy="210" fill="#765f41" rx="40" ry="28"/><ellipse cx="426" cy="486" fill="#b3b1a7" rx="16" ry="40"/><ellipse cx="618" cy="298" fill="#5d6355" rx="16" ry="40"/><ellipse cx="426" cy="226" fill="#ff8404" rx="12" ry="8"/><ellipse cx="378" cy="690" fill="#505648" rx="112" ry="32"/><ellipse cx="622" cy="406" fill="#4c584a" rx="60" ry="4"/><ellipse cx="502" cy="514" fill="#494f49" rx="32" ry="8"/><ellipse cx="1022" cy="394" fill="#1c2215" rx="112" ry="52"/><ellipse cx="406" cy="266" fill="#3b7f5c" rx="20" ry="48"/><ellipse cx="390" cy="350" fill="#a6a392" rx="56" ry="8"/><ellipse cx="554" cy="214" fill="#b9ab97" rx="36" ry="16"/><ellipse cx="494" cy="470" fill="#3b4038" rx="12" ry="16"/><ellipse cx="474" cy="266" fill="#95aaad" rx="68" ry="8"/><ellipse cx="538" cy="310" fill="#89897b" rx="220" ry="4"/><ellipse cx="510" cy="446" fill="#696b5d" rx="176" ry="4"/><ellipse cx="462" cy="402" fill="#1e3221" rx="120" ry="4"/><ellipse cx="366" cy="514" fill="#47544d" rx="52" ry="8"/><ellipse cx="482" cy="230" fill="#00638a" rx="16" ry="12"/><ellipse cx="454" cy="282" fill="#ff9122" rx="16" ry="8"/><ellipse cx="742" cy="326" fill="#030800" rx="12" ry="16"/><ellipse cx="766" cy="258" fill="#33311d" rx="60" ry="32"/><ellipse cx="358" cy="610" fill="#a08a73" rx="128" ry="48"/><ellipse cx="1014" cy="222" fill="#83a19e" rx="144" ry="96"/><ellipse cx="450" cy="238" fill="#ff9923" rx="12" ry="8"/><ellipse cx="534" cy="306" fill="#494630" rx="148" ry="4"/><ellipse cx="622" cy="546" fill="#aa8263" rx="32" ry="32"/><ellipse cx="782" cy="498" fill="#a9927c" rx="100" ry="92"/><ellipse cx="870" cy="598" fill="#767764" rx="96" ry="32"/><ellipse cx="382" cy="334" fill="#6c6f61" rx="28" ry="20"/><ellipse cx="562" cy="258" fill="#91a6a6" rx="92" ry="12"/><ellipse cx="718" cy="598" fill="#332d13" rx="36" ry="20"/><ellipse cx="646" cy="198" fill="#24281b" rx="12" ry="32"/><ellipse cx="370" cy="266" fill="#282f28" rx="36" ry="40"/><ellipse cx="470" cy="478" fill="#cfc7bb" rx="12" ry="12"/><ellipse cx="458" cy="274" fill="#6a6655" rx="92" ry="4"/><ellipse cx="446" cy="490" fill="#5c5d4e" rx="156" ry="4"/><ellipse cx="758" cy="402" fill="#a88f78" rx="8" ry="104"/><ellipse cx="234" cy="466" fill="#a69683" rx="88" ry="32"/><ellipse cx="386" cy="442" fill="#b4ad9f" rx="184" ry="4"/><ellipse cx="478" cy="350" fill="#5a4737" rx="8" ry="40"/><ellipse cx="1010" cy="322" fill="#b07042" rx="44" ry="8"/><ellipse cx="326" cy="482" fill="#5a5d51" rx="8" ry="36"/><ellipse cx="958" cy="378" fill="#1d2216" rx="100" ry="44"/><ellipse cx="546" cy="314" fill="#b0a698" rx="20" ry="44"/><ellipse cx="130" cy="166" fill="#7e9ea1" rx="104" ry="16"/><ellipse cx="942" cy="206" fill="#7b9fa1" rx="128" ry="32"/><ellipse cx="490" cy="358" fill="#2f3f2a" rx="136" ry="4"/><ellipse cx="562" cy="178" fill="#61959f" rx="68" ry="16"/><ellipse cx="542" cy="534" fill="#e9b79d" rx="32" ry="12"/><ellipse cx="818" cy="438" fill="#a48970" rx="116" ry="32"/><ellipse cx="526" cy="378" fill="#9c4c4c" rx="28" ry="8"/><ellipse cx="626" cy="222" fill="#112115" rx="24" ry="8"/><ellipse cx="670" cy="590" fill="#d49265" rx="16" ry="16"/><ellipse cx="490" cy="282" fill="#00547d" rx="16" ry="12"/><ellipse cx="330" cy="34" fill="#7d9699" rx="104" ry="108"/><ellipse cx="438" cy="294" fill="#f88c26" rx="16" ry="12"/><ellipse cx="362" cy="418" fill="#aaaa9f" rx="32" ry="12"/><ellipse cx="1018" cy="582" fill="#6d705e" rx="100" ry="28"/><ellipse cx="578" cy="358" fill="#86665c" rx="12" ry="56"/><ellipse cx="502" cy="406" fill="#646f60" rx="188" ry="4"/><ellipse cx="514" cy="382" fill="#e96672" rx="4" ry="20"/><ellipse cx="2" cy="654" fill="#897a62" rx="88" ry="136"/><ellipse cx="710" cy="634" fill="#ce9665" rx="8" ry="16"/><ellipse cx="142" cy="90" fill="#96aaa9" rx="140" ry="52"/><ellipse cx="506" cy="218" fill="#b22828" rx="20" ry="12"/><ellipse cx="582" cy="346" fill="#aca595" rx="88" ry="8"/><ellipse cx="682" cy="626" fill="#563b18" rx="16" ry="28"/><ellipse cx="538" cy="366" fill="#442f24" rx="92" ry="12"/><ellipse cx="626" cy="582" fill="#8c582e" rx="28" ry="16"/><ellipse cx="658" cy="526" fill="#3b5b5c" rx="20" ry="12"/><ellipse cx="450" cy="482" fill="#202820" rx="4" ry="20"/><ellipse cx="522" cy="450" fill="#747366" rx="164" ry="4"/><ellipse cx="422" cy="534" fill="#5e5e4c" rx="76" ry="4"/><ellipse cx="954" cy="494" fill="#b19882" rx="92" ry="56"/><ellipse cx="762" cy="678" fill="#303425" rx="72" ry="20"/><ellipse cx="90" cy="266" fill="#90aeaf" rx="180" ry="28"/><ellipse cx="110" cy="362" fill="#69573c" rx="144" ry="8"/><ellipse cx="846" cy="690" fill="#1a2115" rx="52" ry="24"/><ellipse cx="978" cy="646" fill="#a18e77" rx="124" ry="40"/><ellipse cx="622" cy="382" fill="#fb5f6e" rx="4" ry="16"/><ellipse cx="862" cy="50" fill="#86a0a2" rx="108" ry="48"/><ellipse cx="722" cy="302" fill="#91a39b" rx="32" ry="8"/><ellipse cx="566" cy="254" fill="#a4b3b1" rx="32" ry="16"/><ellipse cx="442" cy="230" fill="#ff8c2f" rx="16" ry="8"/><ellipse cx="610" cy="274" fill="#565343" rx="72" ry="4"/><ellipse cx="674" cy="262" fill="#678f90" rx="40" ry="12"/><ellipse cx="518" cy="230" fill="#c72c2f" rx="16" ry="8"/><ellipse cx="474" cy="2" fill="#648990" rx="56" ry="72"/><ellipse cx="662" cy="178" fill="#e2b19b" rx="8" ry="8"/><ellipse cx="526" cy="558" fill="#955f42" rx="24" ry="8"/><ellipse cx="658" cy="606" fill="#d39365" rx="16" ry="12"/><ellipse cx="402" cy="270" fill="#b0bec5" rx="24" ry="4"/><ellipse cx="482" cy="246" fill="#3c1e00" rx="32" ry="4"/><ellipse cx="706" cy="538" fill="#ab9a87" rx="36" ry="20"/><ellipse cx="10" cy="354" fill="#476056" rx="36" ry="16"/><ellipse cx="670" cy="286" fill="#1d271b" rx="16" ry="16"/><ellipse cx="370" cy="198" fill="#82a1a4" rx="108" ry="24"/><ellipse cx="294" cy="458" fill="#a09e90" rx="16" ry="112"/><ellipse cx="758" cy="650" fill="#212618" rx="36" ry="52"/><ellipse cx="682" cy="562" fill="#544b36" rx="16" ry="12"/><ellipse cx="474" cy="410" fill="#bc8481" rx="4" ry="48"/><ellipse cx="270" cy="362" fill="#8d6d4f" rx="16" ry="20"/><ellipse cx="610" cy="238" fill="#5e96a1" rx="20" ry="12"/><ellipse cx="278" cy="322" fill="#b9cac8" rx="12" ry="24"/><ellipse cx="294" cy="486" fill="#74705f" rx="4" ry="84"/><ellipse cx="474" cy="502" fill="#a6a194" rx="128" ry="12"/><ellipse cx="458" cy="506" fill="#373c33" rx="16" ry="4"/><ellipse cx="974" cy="10" fill="#6d99a0" rx="60" ry="128"/><ellipse cx="426" cy="286" fill="#197c4d" rx="8" ry="12"/><ellipse cx="814" cy="238" fill="#80745e" rx="8" ry="12"/><ellipse cx="622" cy="510" fill="#aaaba0" rx="76" ry="8"/><ellipse cx="510" cy="594" fill="#a8937d" rx="76" ry="36"/><ellipse cx="530" cy="210" fill="#b0b7a8" rx="16" ry="12"/><ellipse cx="546" cy="654" fill="#6d6a5a" rx="116" ry="24"/><ellipse cx="654" cy="590" fill="#422a12" rx="8" ry="12"/><ellipse cx="698" cy="286" fill="#7da1a3" rx="16" ry="24"/><ellipse cx="466" cy="350" fill="#2f3424" rx="16" ry="4"/><ellipse cx="930" cy="366" fill="#1d2116" rx="92" ry="48"/><ellipse cx="606" cy="690" fill="#a28970" rx="96" ry="12"/><ellipse cx="750" cy="346" fill="#957656" rx="44" ry="16"/><ellipse cx="606" cy="78" fill="#7c989b" rx="64" ry="104"/><ellipse cx="554" cy="430" fill="#a9a69a" rx="120" ry="16"/><ellipse cx="486" cy="310" fill="#878473" rx="196" ry="4"/><ellipse cx="90" cy="486" fill="#9b8772" rx="152" ry="112"/><ellipse cx="386" cy="474" fill="#52564d" rx="28" ry="8"/><ellipse cx="426" cy="302" fill="#e1882f" rx="12" ry="8"/><ellipse cx="86" cy="382" fill="#ac8b70" rx="252" ry="12"/><ellipse cx="298" cy="282" fill="#565646" rx="8" ry="48"/><ellipse cx="462" cy="218" fill="#00556c" rx="16" ry="8"/><ellipse cx="358" cy="398" fill="#070b00" rx="16" ry="4"/><ellipse cx="542" cy="354" fill="#a19885" rx="224" ry="4"/><ellipse cx="394" cy="258" fill="#2b1e11" rx="36" ry="8"/><ellipse cx="682" cy="210" fill="#0d190d" rx="24" ry="8"/><ellipse cx="526" cy="386" fill="#1f2213" rx="8" ry="20"/><ellipse cx="490" cy="382" fill="#091c0b" rx="8" ry="24"/><ellipse cx="410" cy="526" fill="#9f9e92" rx="160" ry="4"/><ellipse cx="590" cy="342" fill="#bb8f86" rx="4" ry="40"/><ellipse cx="882" cy="226" fill="#70989a" rx="40" ry="28"/><ellipse cx="818" cy="534" fill="#ad9681" rx="144" ry="40"/><ellipse cx="686" cy="334" fill="#5f6658" rx="4" ry="48"/><ellipse cx="506" cy="474" fill="#a9a597" rx="8" ry="12"/><ellipse cx="766" cy="574" fill="#9a8971" rx="24" ry="24"/><ellipse cx="758" cy="386" fill="#bc987d" rx="84" ry="16"/><ellipse cx="530" cy="482" fill="#5b5d52" rx="28" ry="12"/><ellipse cx="882" cy="598" fill="#777462" rx="120" ry="24"/><ellipse cx="658" cy="370" fill="#99998a" rx="28" ry="36"/><ellipse cx="846" cy="294" fill="#1c2116" rx="36" ry="44"/><ellipse cx="662" cy="386" fill="#737466" rx="8" ry="36"/><ellipse cx="454" cy="390" fill="#0d1b08" rx="12" ry="12"/><ellipse cx="722" cy="618" fill="#ffc78d" rx="4" ry="4"/><ellipse cx="102" cy="322" fill="#abb9b2" rx="24" ry="32"/><ellipse cx="558" cy="266" fill="#adb3ac" rx="16" ry="28"/><ellipse cx="406" cy="522" fill="#999b90" rx="176" ry="4"/><ellipse cx="542" cy="462" fill="#b7b1a5" rx="36" ry="12"/><ellipse cx="814" cy="166" fill="#5d929a" rx="44" ry="32"/><ellipse cx="490" cy="402" fill="#3a3b2d" rx="140" ry="4"/><ellipse cx="126" cy="366" fill="#ac8869" rx="12" ry="12"/><ellipse cx="670" cy="186" fill="#bb785f" rx="8" ry="20"/><ellipse cx="366" cy="350" fill="#b1ab9c" rx="72" ry="4"/><ellipse cx="382" cy="426" fill="#b2928c" rx="4" ry="44"/><ellipse cx="778" cy="258" fill="#131910" rx="24" ry="20"/><ellipse cx="326" cy="458" fill="#31382e" rx="12" ry="4"/><ellipse cx="34" cy="202" fill="#adb9b5" rx="64" ry="40"/><ellipse cx="378" cy="462" fill="#acab9f" rx="12" ry="16"/><ellipse cx="318" cy="426" fill="#3d443b" rx="8" ry="12"/><ellipse cx="734" cy="170" fill="#c0926f" rx="16" ry="16"/><ellipse cx="326" cy="306" fill="#222717" rx="36" ry="4"/><ellipse cx="94" cy="338" fill="#93a69a" rx="172" ry="4"/><ellipse cx="622" cy="554" fill="#b98e6e" rx="36" ry="24"/><ellipse cx="438" cy="370" fill="#b44d4c" rx="8" ry="12"/><ellipse cx="550" cy="378" fill="#cd5f66" rx="4" ry="16"/><ellipse cx="510" cy="290" fill="#ca2d2c" rx="12" ry="8"/><ellipse cx="490" cy="522" fill="#555b51" rx="8" ry="12"/><ellipse cx="746" cy="218" fill="#6e5434" rx="12" ry="40"/><ellipse cx="450" cy="238" fill="#ea8634" rx="16" ry="12"/><ellipse cx="730" cy="294" fill="#303422" rx="8" ry="8"/><ellipse cx="422" cy="406" fill="#65685a" rx="128" ry="4"/><ellipse cx="666" cy="634" fill="#422d0e" rx="12" ry="16"/><ellipse cx="242" cy="350" fill="#655b47" rx="16" ry="16"/><ellipse cx="406" cy="298" fill="#389565" rx="16" ry="12"/><ellipse cx="230" cy="570" fill="#9e8973" rx="132" ry="56"/><ellipse cx="438" cy="162" fill="#7d999d" rx="52" ry="56"/><ellipse cx="2" cy="366" fill="#6c563b" rx="100" ry="8"/><ellipse cx="294" cy="378" fill="#b7b2a2" rx="12" ry="28"/><ellipse cx="522" cy="410" fill="#898c7e" rx="164" ry="4"/><ellipse cx="422" cy="370" fill="#2e321c" rx="32" ry="4"/><ellipse cx="830" cy="258" fill="#1b2116" rx="12" ry="40"/><ellipse cx="314" cy="330" fill="#73796c" rx="20" ry="8"/><ellipse cx="510" cy="542" fill="#d36950" rx="12" ry="16"/><ellipse cx="754" cy="654" fill="#262a1c" rx="44" ry="52"/><ellipse cx="422" cy="246" fill="#2e8a5e" rx="20" ry="8"/><ellipse cx="386" cy="326" fill="#3d4a39" rx="4" ry="24"/><ellipse cx="394" cy="314" fill="#a9a698" rx="104" ry="4"/></g></svg>