<svg xmlns="http://www.w3.org/2000/svg" version="1.1" width="1024" height="632">
<rect x="0" y="0" width="1024" height="632" fill="#1b81a8" />
<g transform="scale(4.000000) translate(0.5 0.5)">
<polygon fill="#eee4e8" fill-opacity="0.501961" points="271.000000,-2.055676,-16.000000,-3.603385,-16.000000,26.653010,271.000000,11.967481" />
<polygon fill="#005f8d" fill-opacity="0.501961" points="-16.000000,154.686644,246.709550,173.000000,271.000000,69.873869,22.920800,56.503955" />
<polygon fill="#53abd0" fill-opacity="0.501961" points="155.811150,47.816240,271.000000,12.677351,-16.000000,12.433763,28.079307,57.165047" />
<polygon fill="#00314e" fill-opacity="0.501961" points="164.573094,135.216140,265.964466,173.000000,101.049869,157.924515,174.446717,139.222356" />
<polygon fill="#0086b5" fill-opacity="0.501961" points="271.000000,37.828946,133.172862,105.014260,-11.462129,103.823731,-16.000000,62.718592" />
<polygon fill="#00668f" fill-opacity="0.501961" points="271.000000,93.282064,-2.339835,108.084766,-16.000000,131.352813,80.879059,171.687930" />
<polygon fill="#0087b7" fill-opacity="0.501961" points="271.000000,59.385825,193.310360,9.446247,151.410370,15.082500,214.833725,83.076810" />
<polygon fill="#b0c0cb" fill-opacity="0.501961" points="-16.000000,7.321565,202.900252,13.083482,259.422560,28.126606,248.961076,-16.000000" />
<polygon fill="#489dc1" fill-opacity="0.501961" points="218.690119,17.743840,-16.000000,12.101662,64.802850,49.954164,155.026569,51.684716" />
<polygon fill="#005076" fill-opacity="0.501961" points="78.590738,105.536473,143.825176,123.493911,73.457435,131.141385,39.744394,110.785846" />
<polygon fill="#0080b0" fill-opacity="0.501961" points="39.423832,36.229836,-16.000000,38.376558,-0.231891,67.757886,45.711931,44.998218" />
<polygon fill="#098db2" fill-opacity="0.501961" points="192.806108,147.636226,243.003682,156.397476,271.000000,142.730148,205.776334,116.872020" />
<polygon fill="#006f9a" fill-opacity="0.501961" points="252.208514,130.067375,271.000000,69.525455,164.716189,63.183680,63.138441,157.584673" />
<polygon fill="#0083b3" fill-opacity="0.501961" points="271.000000,22.732596,198.696678,31.291269,156.026202,51.292690,262.143974,67.130872" />
<polygon fill="#459fc5" fill-opacity="0.501961" points="260.020653,14.063141,219.178602,13.385411,179.952548,28.945117,266.463729,24.303229" />
<polygon fill="#75adc6" fill-opacity="0.501961" points="53.903417,43.787286,80.458582,55.257059,88.561937,55.463917,86.351023,40.391946" />
<polygon fill="#76afc8" fill-opacity="0.501961" points="101.817678,45.179087,122.690142,40.710494,151.002782,40.065910,121.126393,49.880245" />
<polygon fill="#003b59" fill-opacity="0.501961" points="190.933883,148.330566,148.112300,160.566711,254.765934,155.524413,247.150135,173.000000" />
<polygon fill="#0084b2" fill-opacity="0.501961" points="174.904462,82.278223,167.226125,57.304594,84.055190,48.612292,97.624417,40.640026" />
<polygon fill="#a7becb" fill-opacity="0.501961" points="27.429955,-16.000000,-16.000000,10.363560,73.021594,11.225125,157.534388,15.667272" />
<polygon fill="#006490" fill-opacity="0.501961" points="207.106607,76.922411,118.304453,82.337119,244.874788,125.344720,271.000000,86.907889" />
<polygon fill="#2590bc" fill-opacity="0.501961" points="172.549566,10.683474,173.678411,50.781520,162.919958,32.359451,94.266610,27.742783" />
<polygon fill="#007da4" fill-opacity="0.501961" points="214.697100,131.377687,40.026349,146.384603,-7.021575,133.467358,-13.665602,172.061965" />
<polygon fill="#63a9c7" fill-opacity="0.501961" points="46.494798,9.236257,23.986360,38.177677,-16.000000,28.002144,67.277841,18.901723" />
<polygon fill="#2e8aae" fill-opacity="0.501961" points="190.898914,145.448505,226.847457,156.115841,220.658233,158.823536,271.000000,145.418055" />
<polygon fill="#007ba6" fill-opacity="0.501961" points="191.085943,94.630689,169.086353,88.337764,49.762179,94.791603,160.839255,124.820492" />
<polygon fill="#1c98bf" fill-opacity="0.501961" points="-16.000000,101.554915,52.354600,104.123485,45.612483,110.946817,8.934513,101.171953" />
<polygon fill="#004867" fill-opacity="0.501961" points="74.526474,155.450329,81.398665,150.969594,171.590462,173.000000,58.554272,173.000000" />
<polygon fill="#00547c" fill-opacity="0.501961" points="-16.000000,117.595236,-16.000000,107.697425,16.126931,102.008370,31.874891,110.680723" />
<polygon fill="#58a2c3" fill-opacity="0.501961" points="166.172694,36.478258,152.815002,54.610889,136.589329,45.200270,68.771959,40.530721" />
<polygon fill="#0084b0" fill-opacity="0.501961" points="-7.022025,36.965586,111.281785,102.303173,-16.000000,68.081307,33.373098,37.207862" />
<polygon fill="#3b95bc" fill-opacity="0.501961" points="-13.944501,76.000038,17.282552,71.220250,9.683403,84.404669,-9.527943,98.848805" />
<polygon fill="#aabecb" fill-opacity="0.501961" points="148.816327,-16.000000,252.948483,-0.818040,157.278566,13.492953,111.380508,16.709638" />
<polygon fill="#006994" fill-opacity="0.501961" points="40.435301,83.517050,17.356573,81.926851,-3.325106,92.928343,63.407971,94.497609" />
<polygon fill="#2994bc" fill-opacity="0.501961" points="53.881040,84.946663,65.007099,95.498904,82.291829,93.698497,72.532408,87.449872" />
<polygon fill="#2891bb" fill-opacity="0.501961" points="227.553594,67.630944,247.746292,61.318845,221.368039,59.501649,154.380518,61.601065" />
<polygon fill="#0183b1" fill-opacity="0.501961" points="196.766595,10.321479,180.301853,10.734265,256.476071,59.928292,186.726429,56.114551" />
<polygon fill="#006d9b" fill-opacity="0.501961" points="50.967161,73.264324,97.076520,61.911137,-16.000000,61.872198,7.660253,46.852143" />
<polygon fill="#00587f" fill-opacity="0.501961" points="56.649000,111.897026,103.077393,131.398239,150.550025,126.690914,130.790942,113.532701" />
<polygon fill="#2693bb" fill-opacity="0.501961" points="107.606455,57.611729,66.556526,52.691570,98.460411,63.573718,160.391754,60.994201" />
<polygon fill="#00618c" fill-opacity="0.501961" points="271.000000,87.330061,170.675698,102.814047,55.211732,100.328098,199.490394,110.365317" />
<polygon fill="#0079a9" fill-opacity="0.501961" points="262.426949,54.071012,230.126886,67.945276,104.633267,62.447864,271.000000,84.713126" />
<polygon fill="#005274" fill-opacity="0.501961" points="188.864530,155.762940,81.830376,173.000000,102.222397,166.971528,129.045443,145.121117" />
<polygon fill="#0083b1" fill-opacity="0.501961" points="271.000000,25.660887,180.459952,32.729333,164.627422,61.262901,259.297876,53.055760" />
<polygon fill="#0075a2" fill-opacity="0.501961" points="77.806466,56.527664,-16.000000,57.676671,114.104086,90.713835,134.009728,89.862130" />
<polygon fill="#0086b3" fill-opacity="0.501961" points="148.558829,51.111213,112.701272,49.275416,85.094569,56.584196,104.256456,61.195199" />
<polygon fill="#04405e" fill-opacity="0.501961" points="233.088212,153.608037,264.323055,160.231136,198.631086,173.000000,220.560337,164.260938" />
<polygon fill="#4c9fc2" fill-opacity="0.501961" points="231.760150,27.926974,195.377911,25.702301,247.699774,12.836682,264.647176,17.007115" />
<polygon fill="#4298bd" fill-opacity="0.501961" points="104.876332,51.863184,11.148936,48.091706,-16.000000,39.264124,37.075756,57.207342" />
<polygon fill="#0487ad" fill-opacity="0.501961" points="107.510046,156.968317,128.188039,147.919117,97.270065,146.946034,84.442663,147.773638" />
<polygon fill="#006b95" fill-opacity="0.501961" points="-16.000000,116.685034,10.076006,149.801743,112.221168,142.181972,44.275446,111.521690" />
<polygon fill="#058cb7" fill-opacity="0.501961" points="111.495949,81.984473,144.381162,80.888170,174.779263,71.907851,119.294843,73.653734" />
<polygon fill="#005e86" fill-opacity="0.501961" points="195.379758,137.139721,186.481152,94.534006,217.277568,100.860927,164.733174,123.244613" />
<polygon fill="#007da4" fill-opacity="0.501961" points="150.276563,127.861132,131.116497,144.887353,147.975996,148.370335,178.499988,135.711586" />
<polygon fill="#6aa9c4" fill-opacity="0.501961" points="80.807477,41.297388,95.916234,42.130151,75.475936,52.021850,54.851981,32.101097" />
<polygon fill="#0079a2" fill-opacity="0.501961" points="210.367543,145.201310,233.736146,111.026386,202.126879,113.734755,182.166217,143.437165" />
<polygon fill="#2e93bc" fill-opacity="0.501961" points="119.995209,34.289629,81.131469,28.046230,72.102689,20.577818,102.293621,18.941699" />
<polygon fill="#00476a" fill-opacity="0.501961" points="174.686764,137.724377,137.238977,154.224709,157.143743,148.945306,214.660609,157.832540" />
<polygon fill="#3094bf" fill-opacity="0.501961" points="187.473076,14.564617,214.377692,13.311634,190.834923,33.492008,149.190078,16.478020" />
<polygon fill="#0078a0" fill-opacity="0.501961" points="251.762508,104.984845,226.948201,134.681414,271.000000,142.885880,224.627917,97.901084" />
<polygon fill="#67aac7" fill-opacity="0.501961" points="237.589943,15.459768,254.562676,9.583034,221.009934,26.356257,209.208929,12.171126" />
<polygon fill="#005d8b" fill-opacity="0.501961" points="190.740536,71.498506,224.962873,86.382108,175.298603,85.873505,168.292696,89.508898" />
<polygon fill="#6bacc7" fill-opacity="0.501961" points="114.146575,23.365721,127.383599,19.798278,110.904710,12.818126,86.453873,9.798812" />
<polygon fill="#439dc3" fill-opacity="0.501961" points="-16.000000,59.567045,-16.000000,23.188728,2.575839,14.064606,17.918939,16.436865" />
<polygon fill="#51a1c2" fill-opacity="0.501961" points="144.972343,54.242163,174.166517,43.786094,126.229287,43.921823,151.977849,39.461574" />
<polygon fill="#0086af" fill-opacity="0.501961" points="-12.490710,92.194069,15.094116,103.170110,76.901811,106.885685,12.087771,89.770917" />
<polygon fill="#9fbccb" fill-opacity="0.501961" points="94.028001,-16.000000,176.910936,14.897901,180.031376,8.592846,212.303701,14.371716" />
<polygon fill="#0284b0" fill-opacity="0.501961" points="132.064529,106.548506,130.425178,103.326466,68.772978,91.700444,161.783201,95.286352" />
<polygon fill="#028cb9" fill-opacity="0.501961" points="9.984072,36.898408,49.678967,48.648317,-16.000000,45.038343,-9.552630,32.124525" />
<polygon fill="#a4bdcb" fill-opacity="0.501961" points="-1.371947,-16.000000,150.395081,16.998611,237.003148,-16.000000,0.762398,6.985580" />
<polygon fill="#94aab9" fill-opacity="0.501961" points="236.388835,-16.000000,236.157302,9.269902,262.961877,16.800994,270.312829,-1.469448" />
<polygon fill="#00547b" fill-opacity="0.501961" points="43.113831,123.542379,86.197253,103.773979,98.368956,115.944830,95.239800,121.588583" />
<polygon fill="#298aaf" fill-opacity="0.501961" points="197.282637,147.475171,269.629276,149.661852,235.479443,155.841959,227.767905,153.148271" />
<polygon fill="#007eaa" fill-opacity="0.501961" points="53.581951,69.394472,125.839109,114.901322,106.229219,114.807117,86.228009,70.299357" />
<polygon fill="#008ab7" fill-opacity="0.501961" points="214.934194,28.420719,250.859588,24.357900,253.065418,45.837507,197.594367,26.146803" />
<polygon fill="#0686b2" fill-opacity="0.501961" points="129.829696,49.375214,83.847551,50.798993,101.252427,41.291446,111.844318,60.698151" />
<polygon fill="#006289" fill-opacity="0.501961" points="217.291653,122.970322,243.668251,111.064934,252.233324,110.761584,271.000000,117.725111" />
<polygon fill="#006e9c" fill-opacity="0.501961" points="255.925459,61.289215,271.000000,66.409764,236.986740,72.075718,236.615488,64.340485" />
<polygon fill="#77afc8" fill-opacity="0.501961" points="104.754116,43.908927,115.956012,48.163960,125.157129,45.758754,140.418566,42.380556" />
<polygon fill="#006183" fill-opacity="0.501961" points="215.410698,160.629320,195.385253,146.685273,220.730203,154.019448,229.655540,167.225310" />
<polygon fill="#a5bbc9" fill-opacity="0.501961" points="200.785136,15.472803,208.285436,13.022040,247.056880,5.420238,171.430237,-15.645146" />
<polygon fill="#2a8fb8" fill-opacity="0.501961" points="110.189118,57.534145,140.532497,61.573254,115.464663,62.010704,94.253366,65.875720" />
<polygon fill="#0082af" fill-opacity="0.501961" points="162.032735,52.052781,111.041677,55.766770,185.662733,59.908440,203.330464,27.558938" />
<polygon fill="#0081ab" fill-opacity="0.501961" points="138.269829,116.996963,132.492422,110.441421,158.032643,123.484333,186.077133,111.782178" />
<polygon fill="#007da5" fill-opacity="0.501961" points="75.531818,153.748912,-3.025689,145.083669,-16.000000,151.872892,61.055495,167.901736" />
<polygon fill="#006795" fill-opacity="0.501961" points="187.324359,81.454961,118.574512,90.360948,106.418658,87.117461,114.337239,82.439332" />
<polygon fill="#2890b9" fill-opacity="0.501961" points="60.977558,46.719016,41.438118,36.093673,47.134998,53.761868,-9.137896,45.856783" />
<polygon fill="#007eac" fill-opacity="0.501961" points="178.764216,81.139638,191.237583,66.746268,46.985331,70.671491,162.145559,77.370803" />
<polygon fill="#2b93bd" fill-opacity="0.501961" points="97.717754,25.297900,188.752239,28.694161,199.356641,11.725454,147.914896,16.683104" />
<polygon fill="#4999bc" fill-opacity="0.501961" points="56.573922,50.776278,62.123752,55.313728,14.229694,49.974818,34.517806,58.164762" />
<polygon fill="#00648e" fill-opacity="0.501961" points="29.098631,113.897122,54.728330,107.331522,43.867430,141.397904,126.880503,129.444475" />
<polygon fill="#2e94bc" fill-opacity="0.501961" points="153.345297,43.296149,174.849342,45.280531,194.414198,24.080717,207.383705,24.571474" />
<polygon fill="#4f9ec0" fill-opacity="0.501961" points="72.149021,32.827316,2.028929,31.974522,57.593621,38.219705,94.287183,43.125976" />
<polygon fill="#005175" fill-opacity="0.501961" points="193.434068,173.000000,134.288426,145.668982,91.581919,165.370071,167.439039,141.034587" />
<polygon fill="#007099" fill-opacity="0.501961" points="100.556809,114.689762,100.885330,98.982510,71.722917,95.703770,29.368257,79.643869" />
<polygon fill="#007da9" fill-opacity="0.501961" points="189.320927,96.137402,187.909670,102.789784,157.422210,100.536216,134.248128,92.310383" />
<polygon fill="#006b95" fill-opacity="0.501961" points="185.663448,137.312981,219.626517,140.826377,180.190408,122.040501,103.645909,128.663483" />
<polygon fill="#4898bb" fill-opacity="0.501961" points="259.723970,30.081998,241.009986,18.360310,248.604073,11.885086,263.362740,19.971831" />
<polygon fill="#0488b2" fill-opacity="0.501961" points="29.505873,84.141176,41.041121,61.805239,12.826568,68.958191,12.830393,80.042939" />
<polygon fill="#005c85" fill-opacity="0.501961" points="228.931941,109.014736,230.216815,102.372097,188.595294,97.608569,185.836308,105.189086" />
<polygon fill="#003e5f" fill-opacity="0.501961" points="195.485007,147.497911,236.106907,173.000000,187.100921,173.000000,178.273873,147.106800" />
<polygon fill="#3494bc" fill-opacity="0.501961" points="26.165299,33.351206,22.180629,28.832344,54.143618,23.356257,68.395464,21.871008" />
<polygon fill="#007dab" fill-opacity="0.501961" points="213.908997,81.341229,186.553636,66.251741,265.328902,84.703516,246.174826,71.129426" />
<polygon fill="#0073a0" fill-opacity="0.501961" points="68.898456,59.010263,100.810625,63.899457,154.099947,64.929690,26.210617,73.312305" />
<polygon fill="#006490" fill-opacity="0.501961" points="160.559274,110.981304,134.268730,106.895591,146.458782,101.253839,183.515536,102.828681" />
<polygon fill="#5da6c5" fill-opacity="0.501961" points="12.145432,32.015431,3.116765,18.067445,17.691680,22.560938,62.019082,17.500276" />
<polygon fill="#2c8fb8" fill-opacity="0.501961" points="58.155250,89.394192,71.626923,96.840387,70.024322,87.106805,56.121784,88.547625" />
<polygon fill="#0481aa" fill-opacity="0.501961" points="222.737045,139.616096,271.000000,168.480855,202.904629,115.078324,212.982898,145.826226" />
<polygon fill="#003454" fill-opacity="0.501961" points="230.765809,155.035034,271.000000,161.731575,242.391168,170.162170,227.346069,160.222261" />
<polygon fill="#70adc5" fill-opacity="0.501961" points="120.963738,48.640278,112.120999,48.731861,105.106193,46.194907,138.386600,43.857383" />
<polygon fill="#0086b2" fill-opacity="0.501961" points="137.467177,48.989371,168.153718,59.614887,164.847861,60.366465,87.506641,54.257502" />
<polygon fill="#0078a2" fill-opacity="0.501961" points="248.425394,98.998357,230.875414,105.277822,239.137408,106.692742,263.773033,114.630008" />
<polygon fill="#2989ad" fill-opacity="0.501961" points="251.792924,151.307299,224.432054,146.033075,221.466505,163.423911,229.603019,154.452218" />
<polygon fill="#00719b" fill-opacity="0.501961" points="17.134482,132.173503,-16.000000,109.992329,49.449544,133.536530,25.118544,152.156915" />
<polygon fill="#007fac" fill-opacity="0.501961" points="192.335168,32.498435,173.383539,44.352584,233.304844,46.408445,236.444259,36.917920" />
<polygon fill="#0079a7" fill-opacity="0.501961" points="17.655105,73.661113,224.987712,66.907343,145.031300,61.815011,116.463793,64.660781" />
<polygon fill="#95b9c9" fill-opacity="0.501961" points="151.964477,10.413892,109.205977,7.627905,-1.645734,7.349569,97.187834,11.928814" />
<polygon fill="#4799bc" fill-opacity="0.501961" points="54.183921,54.716635,30.991711,54.850517,66.529266,46.545326,66.847639,56.054963" />
<polygon fill="#2b90ba" fill-opacity="0.501961" points="169.462379,62.840953,209.174975,64.241201,234.959164,68.646241,230.224041,61.703007" />
<polygon fill="#005e86" fill-opacity="0.501961" points="199.599166,133.607228,182.750339,120.935153,177.444359,114.662798,168.510197,121.550386" />
<polygon fill="#007ba4" fill-opacity="0.501961" points="176.205382,131.167215,166.855753,139.954549,156.306871,145.942697,125.876273,133.374171" />
<polygon fill="#aabecb" fill-opacity="0.501961" points="75.510580,-1.003907,18.719336,-16.000000,-16.000000,7.430663,23.803915,3.975146" />
<polygon fill="#3491b8" fill-opacity="0.501961" points="17.079960,79.468456,-16.000000,83.245244,-16.000000,89.744795,2.648304,88.638554" />
<polygon fill="#4b9fc1" fill-opacity="0.501961" points="15.380551,20.151160,16.677087,10.777028,21.345535,16.332825,98.535968,37.178383" />
<polygon fill="#006793" fill-opacity="0.501961" points="60.482532,92.941117,18.089264,86.065972,37.974588,83.511132,56.520505,89.323659" />
<polygon fill="#007ca8" fill-opacity="0.501961" points="45.682021,65.149911,52.213172,55.312883,-11.788914,61.756207,-3.913216,66.899921" />
<polygon fill="#138db7" fill-opacity="0.501961" points="129.686111,77.917567,133.482238,82.104182,147.386636,79.949960,159.284260,75.562480" />
<polygon fill="#158bb3" fill-opacity="0.501961" points="-16.000000,96.020929,41.730674,108.770969,64.291352,103.469068,43.753993,105.393836" />
<polygon fill="#66aac7" fill-opacity="0.501961" points="44.902050,22.950084,13.548323,9.885001,56.928041,17.736334,100.921947,18.924418" />
<polygon fill="#006089" fill-opacity="0.501961" points="-16.000000,117.550700,8.407714,102.088223,47.819291,112.910213,38.171312,113.234546" />
<polygon fill="#3b97be" fill-opacity="0.501961" points="146.713010,51.526270,136.089574,30.701336,215.012393,23.876573,131.822464,43.744509" />
<polygon fill="#007ca7" fill-opacity="0.501961" points="-15.154364,91.159940,60.669196,94.203845,84.143305,105.860911,62.914220,104.368827" />
<polygon fill="#078ab5" fill-opacity="0.501961" points="24.317622,79.178609,91.159196,94.891935,75.399131,84.385907,68.474398,82.352484" />
<polygon fill="#2f92ba" fill-opacity="0.501961" points="34.676015,22.315531,48.294160,27.319407,38.066910,52.883209,59.399535,46.396699" />
<polygon fill="#006592" fill-opacity="0.501961" points="265.282374,94.363132,150.707851,84.141496,156.600596,76.995463,178.703254,81.333704" />
<polygon fill="#71adc6" fill-opacity="0.501961" points="65.335246,46.635353,94.407279,41.023602,80.936060,50.115977,63.851087,46.596465" />
<polygon fill="#2992bd" fill-opacity="0.501961" points="166.600367,29.524458,146.871166,31.233306,197.327567,9.937356,198.401772,24.380311" />
<polygon fill="#00719b" fill-opacity="0.501961" points="216.142014,93.837554,165.284741,89.239723,255.015651,107.722460,241.450288,101.682378" />
<polygon fill="#007098" fill-opacity="0.501961" points="248.830770,155.426204,271.000000,141.858539,246.147606,112.365079,260.605425,162.738684" />
<polygon fill="#58a3c3" fill-opacity="0.501961" points="157.386614,51.388859,147.793681,52.922775,157.780576,40.032454,143.631981,40.737103" />
<polygon fill="#00709c" fill-opacity="0.501961" points="103.767931,73.403270,90.352058,74.538546,78.750215,80.471895,109.367722,81.551801" />
<polygon fill="#0075a3" fill-opacity="0.501961" points="257.982631,87.933342,220.035704,69.324710,195.715967,66.866687,204.914598,62.798713" />
<polygon fill="#4498bd" fill-opacity="0.501961" points="92.830471,53.382596,103.255699,48.826172,58.413536,50.483450,81.429366,55.907179" />
<polygon fill="#0d84a9" fill-opacity="0.501961" points="88.027149,152.939889,109.220508,155.630310,117.904186,152.532605,112.267861,150.760152" />
<polygon fill="#005176" fill-opacity="0.501961" points="86.801247,103.178094,77.806913,109.027184,66.932389,116.998778,89.034267,113.306084" />
<polygon fill="#0087b3" fill-opacity="0.501961" points="-16.000000,37.851883,25.000033,40.206832,47.241265,48.491352,38.275917,47.568658" />
<polygon fill="#2390ba" fill-opacity="0.501961" points="174.970635,31.281175,189.902493,32.858029,181.251547,39.735454,159.731738,43.158434" />
<polygon fill="#60a8c6" fill-opacity="0.501961" points="43.011559,11.393071,115.543281,23.500792,120.699399,19.490929,119.595338,14.962256" />
<polygon fill="#2f94be" fill-opacity="0.501961" points="175.636578,63.586034,208.014182,62.094301,231.219545,66.101677,181.106638,59.858804" />
<polygon fill="#2f93bc" fill-opacity="0.501961" points="77.527237,29.233539,62.869143,24.274784,105.886012,19.912616,96.782335,24.698290" />
<polygon fill="#419ac0" fill-opacity="0.501961" points="185.604502,18.034256,171.087650,20.111250,176.758381,16.717948,182.050927,9.710991" />
<polygon fill="#00648d" fill-opacity="0.501961" points="64.217767,114.170234,35.770777,116.772638,53.168520,105.648903,79.524342,107.764453" />
<polygon fill="#1c85ac" fill-opacity="0.501961" points="246.146393,156.292164,234.035640,152.532097,242.505131,140.138679,262.793562,144.717844" />
<polygon fill="#2b94bd" fill-opacity="0.501961" points="16.684707,36.190857,29.895364,38.256491,-10.974722,35.470417,4.026983,31.194157" />
<polygon fill="#005477" fill-opacity="0.501961" points="53.384082,173.000000,83.938186,150.051319,87.513768,150.780562,95.740067,173.000000" />
<polygon fill="#005d89" fill-opacity="0.501961" points="271.000000,90.038477,271.000000,108.139135,237.153264,92.536827,271.000000,86.408038" />
<polygon fill="#007aa3" fill-opacity="0.501961" points="140.274951,145.417739,72.518569,149.661051,170.332357,135.300550,142.920611,148.999944" />
<polygon fill="#3d99bc" fill-opacity="0.501961" points="88.543401,61.016633,121.095790,-6.790715,89.904428,58.339289,77.811088,59.885183" />
<polygon fill="#499cc0" fill-opacity="0.501961" points="132.912794,45.078595,175.337521,42.504077,151.691305,53.151995,137.630477,28.070944" />
<polygon fill="#00729e" fill-opacity="0.501961" points="99.082286,85.300647,197.290766,89.288504,95.702070,92.046062,93.404766,89.125947" />
<polygon fill="#98bbca" fill-opacity="0.501961" points="34.396614,14.552666,43.102874,8.558267,-2.621258,12.294709,6.281340,4.426823" />
<polygon fill="#2d90b8" fill-opacity="0.501961" points="122.026286,60.964324,108.492393,60.096911,98.308061,61.706797,105.721039,64.642505" />
<polygon fill="#2689b2" fill-opacity="0.501961" points="8.817030,103.113154,-11.218635,92.428468,-13.481137,128.803024,-6.728660,105.972442" />
<polygon fill="#007ca5" fill-opacity="0.501961" points="205.288400,133.188808,256.082483,137.284141,257.857269,135.224140,206.343593,116.027629" />
<polygon fill="#56a4c5" fill-opacity="0.501961" points="258.900640,26.294699,258.443346,27.269946,213.858685,18.437816,232.175362,15.045955" />
<polygon fill="#007da6" fill-opacity="0.501961" points="249.218911,142.455802,257.790588,143.345346,180.753951,137.760876,190.686354,144.790734" />
<polygon fill="#00729c" fill-opacity="0.501961" points="40.179748,145.639861,-10.625536,138.210511,35.880584,155.818281,176.222450,128.019271" />
<polygon fill="#00557a" fill-opacity="0.501961" points="135.035161,144.318737,115.429418,153.826904,163.404964,173.000000,134.470304,144.229009" />
<polygon fill="#2d94bd" fill-opacity="0.501961" points="174.498823,35.328068,167.998974,22.647053,167.600251,11.564077,149.131821,16.528524" />
<polygon fill="#6facc7" fill-opacity="0.501961" points="103.562078,42.995016,127.247105,45.398598,120.905965,49.125579,104.204726,45.691365" />
<polygon fill="#005a82" fill-opacity="0.501961" points="140.520282,116.955224,74.850301,128.031649,107.481189,111.583246,112.435709,116.033914" />
<polygon fill="#0075a3" fill-opacity="0.501961" points="21.101496,52.091221,30.378657,63.123006,-9.308098,50.509686,13.849340,49.862052" />
<polygon fill="#0084b2" fill-opacity="0.501961" points="234.583287,23.723172,261.256146,73.335015,260.194817,42.853076,271.000000,33.089586" />
<polygon fill="#0079a7" fill-opacity="0.501961" points="234.616232,64.292308,220.228933,82.998537,161.199103,60.154932,271.000000,85.016651" />
<polygon fill="#00709d" fill-opacity="0.501961" points="102.680009,65.529568,92.222111,60.349199,47.004463,64.321178,91.972657,65.940515" />
<polygon fill="#1184ac" fill-opacity="0.501961" points="226.359580,142.631914,229.753331,147.302158,231.915366,133.393788,215.800647,136.681324" />
<polygon fill="#0087b1" fill-opacity="0.501961" points="98.800637,41.988316,114.666020,53.752030,106.069204,47.450028,90.340331,48.083825" />
<polygon fill="#a0bbcb" fill-opacity="0.501961" points="201.550970,-16.000000,199.303065,17.492867,196.710727,6.845052,228.083344,14.867867" />
<polygon fill="#006f99" fill-opacity="0.501961" points="89.508314,105.701014,129.502289,100.901549,149.011940,112.420204,125.168632,107.340895" />
<polygon fill="#a7bdcb" fill-opacity="0.501961" points="226.274645,10.246682,176.526126,-4.624302,192.420878,12.884772,196.970686,-16.000000" />
<polygon fill="#005d84" fill-opacity="0.501961" points="271.000000,116.003893,231.274587,116.178804,234.796658,118.909885,250.901385,111.092359" />
<polygon fill="#005782" fill-opacity="0.501961" points="21.901897,106.230330,18.748138,109.303031,-16.000000,105.604921,15.110443,104.283101" />
<polygon fill="#3a93b9" fill-opacity="0.501961" points="271.000000,25.925215,254.983260,40.743111,271.000000,8.645856,244.248727,19.003887" />
<polygon fill="#4d9dc0" fill-opacity="0.501961" points="72.245862,40.936434,71.818897,44.659257,50.925948,42.459950,84.292355,30.987967" />
<polygon fill="#005b7f" fill-opacity="0.501961" points="206.746852,149.668980,225.192355,173.000000,249.811073,168.757855,218.400682,154.451149" />
<polygon fill="#006d97" fill-opacity="0.501961" points="213.399303,124.394970,264.637513,115.945871,255.731254,135.009356,263.655434,129.410179" />
<polygon fill="#98b8c9" fill-opacity="0.501961" points="114.232914,15.328590,108.659234,2.062900,33.851598,-4.352039,165.352396,14.283147" />
<polygon fill="#178bb6" fill-opacity="0.501961" points="21.520086,70.167765,12.178135,82.787224,8.099757,75.698744,-15.524012,72.902670" />
<polygon fill="#3096bf" fill-opacity="0.501961" points="223.289361,27.291603,232.956427,29.150595,234.665545,21.586553,229.852391,19.087994" />
<polygon fill="#006e99" fill-opacity="0.501961" points="217.511613,80.186329,236.310967,92.712201,263.514640,84.140328,229.948171,78.373569" />
<polygon fill="#479cc1" fill-opacity="0.501961" points="97.414847,21.984987,114.803123,24.337247,103.976492,17.632157,94.430770,18.963101" />
<polygon fill="#62a9c7" fill-opacity="0.501961" points="6.890165,23.816814,9.204192,26.906463,46.890427,23.575635,62.336779,21.240908" />
<polygon fill="#509cc0" fill-opacity="0.501961" points="40.360980,55.542075,52.511237,53.664150,22.888873,52.333857,24.980369,55.570827" />
<polygon fill="#0186b0" fill-opacity="0.501961" points="72.034209,95.910969,92.488876,96.682898,69.311911,81.817545,97.991493,85.633624" />
<polygon fill="#3597c0" fill-opacity="0.501961" points="187.064415,9.691237,201.611495,28.861966,217.971649,16.812807,175.869637,14.511010" />
<polygon fill="#0087b5" fill-opacity="0.501961" points="255.213355,42.366743,210.192336,26.065470,197.889530,31.904532,235.579173,27.477691" />
<polygon fill="#007ba6" fill-opacity="0.501961" points="107.506625,110.245783,93.783718,107.491041,128.703805,109.147257,118.521566,116.936897" />
<polygon fill="#004d71" fill-opacity="0.501961" points="161.710389,144.473758,171.496115,139.081384,188.731664,148.222451,132.269137,151.101408" />
<polygon fill="#55a1c3" fill-opacity="0.501961" points="10.807847,32.325703,49.998446,34.281177,18.734455,35.935044,-16.000000,24.251575" />
<polygon fill="#63aac9" fill-opacity="0.501961" points="212.806794,11.086355,233.291107,20.504155,223.446880,23.839063,212.692768,15.873995" />
<polygon fill="#9fbbca" fill-opacity="0.501961" points="36.965238,-16.000000,123.522987,12.074823,184.812068,7.208112,177.222019,13.508452" />
<polygon fill="#0082ae" fill-opacity="0.501961" points="169.579171,74.966504,126.234826,78.902848,83.985599,70.842067,112.549667,69.595954" />
<polygon fill="#0081ae" fill-opacity="0.501961" points="172.956063,56.970120,203.652142,34.975287,156.240612,50.961671,147.743801,57.127305" />
<polygon fill="#218cb5" fill-opacity="0.501961" points="49.097458,84.823380,65.966962,93.319446,65.748598,94.734126,83.345433,91.791761" />
<polygon fill="#005c84" fill-opacity="0.501961" points="95.524572,127.983059,125.854683,112.922689,152.481949,123.092896,96.686380,114.111030" />
<polygon fill="#8cafc1" fill-opacity="0.501961" points="271.000000,-3.960893,271.000000,21.228621,253.536874,13.305899,229.291398,14.397652" />
<polygon fill="#006d98" fill-opacity="0.501961" points="0.993143,93.208317,13.313304,83.188323,53.615777,88.920856,32.595674,81.225186" />
<polygon fill="#1a8fb8" fill-opacity="0.501961" points="43.337746,49.356903,15.828271,35.600092,22.058502,38.127284,36.578441,33.909094" />
<polygon fill="#1a89b2" fill-opacity="0.501961" points="20.484413,103.272143,48.964880,107.059264,45.991641,110.312044,27.672145,106.369514" />
<polygon fill="#459abe" fill-opacity="0.501961" points="137.855215,40.415063,145.393210,34.230606,146.448841,26.884330,86.131342,39.782849" />
<polygon fill="#007ca6" fill-opacity="0.501961" points="240.988574,114.130267,242.779548,112.061164,232.845465,105.012410,248.115897,104.333137" />
<polygon fill="#004e70" fill-opacity="0.501961" points="133.510596,144.725688,160.936859,173.000000,178.094983,157.801648,122.892987,151.303050" />
<polygon fill="#006994" fill-opacity="0.501961" points="24.060991,112.530870,66.996161,147.466500,51.888692,148.714945,48.278915,109.561434" />
<polygon fill="#55a2c3" fill-opacity="0.501961" points="-16.000000,25.392371,23.753775,33.439026,38.210330,34.394379,23.961168,36.558526" />
<polygon fill="#007aa5" fill-opacity="0.501961" points="57.885763,61.105707,87.814780,56.895055,45.057914,56.258450,80.378818,69.476083" />
<polygon fill="#0185b0" fill-opacity="0.501961" points="173.819534,81.132638,183.803651,74.617125,136.556984,77.661979,153.519191,73.010342" />
<polygon fill="#6aacc8" fill-opacity="0.501961" points="41.863254,11.126065,65.176699,12.450915,33.688949,17.052864,32.877710,13.944307" />
<polygon fill="#138db8" fill-opacity="0.501961" points="182.348411,62.713470,152.142289,58.765184,117.553680,57.202755,141.559024,61.121526" />
<polygon fill="#00648f" fill-opacity="0.501961" points="207.419638,110.105307,219.194947,107.089948,153.009985,100.948453,141.503996,104.595342" />
<polygon fill="#088db8" fill-opacity="0.501961" points="213.644792,61.353958,157.113648,60.193242,180.345203,57.425802,271.000000,59.953950" />
<polygon fill="#4c9ec2" fill-opacity="0.501961" points="170.228581,31.950905,141.684243,39.042058,114.109268,40.160626,165.447791,40.399638" />
<polygon fill="#5ba3c3" fill-opacity="0.501961" points="164.063067,44.906083,152.951675,48.147695,151.018779,52.145733,163.843450,46.075374" />
<polygon fill="#3a94bb" fill-opacity="0.501961" points="151.260832,48.775572,138.528651,47.037280,141.152778,44.939577,154.378048,45.295389" />
<polygon fill="#5ba5c4" fill-opacity="0.501961" points="225.608147,20.215985,259.936563,24.496435,236.301520,24.905764,229.958378,11.698820" />
<polygon fill="#00749e" fill-opacity="0.501961" points="237.834758,116.310960,271.000000,92.246497,239.560332,112.154746,118.978432,112.951554" />
<polygon fill="#0283ad" fill-opacity="0.501961" points="121.663383,95.434452,118.175452,103.654365,85.134194,88.295796,100.396412,102.360928" />
<polygon fill="#2789ae" fill-opacity="0.501961" points="270.058771,153.250869,237.350267,148.529360,227.186398,157.459773,208.736784,148.119754" />
<polygon fill="#00608d" fill-opacity="0.501961" points="193.623239,81.040199,229.676826,89.509565,201.056346,75.611722,184.685300,73.171148" />
<polygon fill="#2890b9" fill-opacity="0.501961" points="176.056317,62.858312,173.447240,65.205786,204.138244,63.096640,174.198841,61.172408" />
<polygon fill="#5aa2c2" fill-opacity="0.501961" points="81.667623,55.778844,85.610771,41.359162,101.246411,39.429084,76.671882,51.906810" />
<polygon fill="#0085b1" fill-opacity="0.501961" points="20.706036,83.030697,49.130401,79.282912,-2.799012,66.382715,31.145390,64.374144" />
<polygon fill="#007ba6" fill-opacity="0.501961" points="161.455844,124.579644,174.093878,114.193228,191.077874,110.535308,137.107927,113.858510" />
<polygon fill="#006e98" fill-opacity="0.501961" points="69.941351,97.967961,65.445962,100.287882,93.180130,97.362863,104.891077,104.321722" />
<polygon fill="#73aec5" fill-opacity="0.501961" points="86.611000,44.202160,74.951175,46.114571,69.181902,50.199682,85.165834,48.799495" />
<polygon fill="#2791bd" fill-opacity="0.501961" points="196.282713,12.831603,191.832108,11.631229,164.433648,28.426317,203.522122,21.414479" />
<polygon fill="#005c85" fill-opacity="0.501961" points="188.635274,98.030149,217.909206,105.790950,203.749124,95.748546,191.698508,96.781015" />
<polygon fill="#00577c" fill-opacity="0.501961" points="105.042861,157.255524,95.051680,152.220640,108.873497,173.000000,159.455706,150.973282" />
<polygon fill="#007fac" fill-opacity="0.501961" points="143.694410,49.939009,180.431565,84.336560,148.500187,55.584765,113.004404,50.611260" />
<polygon fill="#00769d" fill-opacity="0.501961" points="221.688251,140.763946,187.542555,116.287292,187.531138,120.995545,205.901608,137.694067" />
<polygon fill="#006895" fill-opacity="0.501961" points="169.767159,92.699914,187.983601,83.198731,159.193095,77.317315,141.210423,82.780075" />
<polygon fill="#0381a7" fill-opacity="0.501961" points="151.968528,139.071665,166.464741,139.398980,164.033527,142.636577,141.470199,146.393165" />
<polygon fill="#007ba8" fill-opacity="0.501961" points="54.353246,76.206142,22.576689,75.502087,36.232747,65.538698,-8.024966,36.793621" />
<polygon fill="#2e91b9" fill-opacity="0.501961" points="52.304479,38.802305,37.154946,35.252736,68.940055,54.723554,36.860169,41.771940" />
<polygon fill="#9bb6c6" fill-opacity="0.501961" points="248.772364,10.595426,237.866079,-16.000000,227.118190,7.705725,205.270675,13.928740" />
<polygon fill="#00658e" fill-opacity="0.501961" points="15.309151,120.460684,136.420826,130.724507,119.426812,118.115240,96.371583,132.853740" />
<polygon fill="#aabecc" fill-opacity="0.501961" points="57.126665,-7.116967,249.182595,-8.596251,217.186776,3.074780,107.065204,2.311963" />
<polygon fill="#0179a7" fill-opacity="0.501961" points="172.806619,61.386279,183.102562,69.177692,152.220238,60.916622,93.554689,69.772147" />
<polygon fill="#59a3c2" fill-opacity="0.501961" points="69.895695,40.402582,85.042196,47.097443,51.190636,32.595446,50.126232,36.756968" />
<polygon fill="#68abc6" fill-opacity="0.501961" points="130.505513,19.267463,88.258620,11.396890,81.411776,14.906838,113.129146,13.310529" />
<polygon fill="#0074a3" fill-opacity="0.501961" points="237.370635,63.462575,227.167427,70.714745,271.000000,81.455084,264.204005,61.837483" />
<polygon fill="#3796bd" fill-opacity="0.501961" points="67.829952,24.829940,69.130968,20.824579,38.423788,26.499045,17.672548,32.273152" />
<polygon fill="#1388b3" fill-opacity="0.501961" points="139.418998,83.673904,152.243299,77.271959,116.291872,82.097601,138.888698,76.700719" />
<polygon fill="#004062" fill-opacity="0.501961" points="202.227432,173.000000,254.059894,157.058061,242.018318,157.108910,241.042961,154.573119" />
<polygon fill="#017fa7" fill-opacity="0.501961" points="18.224443,173.000000,72.765362,148.211335,67.764585,173.000000,-16.000000,142.384707" />
<polygon fill="#0789b2" fill-opacity="0.501961" points="83.865262,57.137699,68.119988,53.498926,72.790343,57.224612,80.722940,60.067585" />
<polygon fill="#007ca7" fill-opacity="0.501961" points="152.830519,98.931142,190.129721,97.511350,181.371298,103.595483,124.417373,95.776833" />
<polygon fill="#5ca7c7" fill-opacity="0.501961" points="202.110903,12.272224,217.237780,18.491623,218.927891,25.989650,232.766483,19.093512" />
<polygon fill="#2b91bb" fill-opacity="0.501961" points="203.292649,63.399774,248.915209,62.746753,237.658278,61.942931,232.450973,65.816802" />
<polygon fill="#3891b6" fill-opacity="0.501961" points="-4.584307,61.850525,-15.143812,94.733308,9.354162,85.470907,0.024303,82.555850" />
<polygon fill="#00547a" fill-opacity="0.501961" points="110.474321,116.344284,88.902839,120.739330,68.378707,105.182252,85.022084,109.250949" />
<polygon fill="#2b92bb" fill-opacity="0.501961" points="45.674400,28.535287,41.004409,25.095995,30.271624,28.998086,39.890952,31.683376" />
<polygon fill="#158ab5" fill-opacity="0.501961" points="151.257545,76.200800,155.214145,79.493188,116.255319,80.947845,151.921268,77.604453" />
<polygon fill="#0783ab" fill-opacity="0.501961" points="216.407161,133.308937,271.000000,149.509002,261.038873,138.234508,209.647474,130.898180" />
<polygon fill="#3194bc" fill-opacity="0.501961" points="86.975434,29.861211,76.759833,21.097918,81.797378,19.540865,120.105211,31.014033" />
<polygon fill="#2d93bd" fill-opacity="0.501961" points="149.865414,34.791762,165.641119,28.230636,177.507815,13.206872,127.286861,19.127128" />
<polygon fill="#0081ad" fill-opacity="0.501961" points="170.012579,101.028069,111.802414,91.638608,136.660654,104.522699,143.529162,99.480792" />
<polygon fill="#0285af" fill-opacity="0.501961" points="36.008272,103.898616,13.007609,100.142145,62.910346,99.417730,66.323015,106.774583" />
<polygon fill="#4a9dc1" fill-opacity="0.501961" points="49.960112,27.308970,50.322793,37.243100,56.829141,30.407965,74.077662,27.291993" />
<polygon fill="#298eb8" fill-opacity="0.501961" points="85.446572,49.027542,114.724501,50.160468,85.253721,51.939260,84.369401,51.126565" />
<polygon fill="#00709b" fill-opacity="0.501961" points="39.001483,70.674456,44.620789,64.882260,70.371772,58.107893,71.525249,63.243276" />
<polygon fill="#62a9c8" fill-opacity="0.501961" points="27.651504,13.667479,57.306864,24.494291,11.682978,13.090108,26.851110,11.345464" />
<polygon fill="#2789ad" fill-opacity="0.501961" points="212.048311,150.781696,220.051425,152.634806,233.822711,154.751356,271.000000,149.672964" />
<polygon fill="#108ab4" fill-opacity="0.501961" points="34.060835,78.337332,29.626004,83.503082,3.453209,77.496759,35.809276,80.324627" />
<polygon fill="#3a98bf" fill-opacity="0.501961" points="149.277836,41.014458,198.359734,24.370066,190.672551,34.940481,190.061848,24.690395" />
<polygon fill="#0077a4" fill-opacity="0.501961" points="9.368419,91.749131,2.989802,86.947486,85.454324,97.676421,6.644784,94.078371" />
<polygon fill="#1584aa" fill-opacity="0.501961" points="110.329265,152.540246,116.174553,154.618706,107.481180,155.439698,98.907609,153.785601" />
<polygon fill="#5ba4c4" fill-opacity="0.501961" points="160.173357,37.307669,159.524923,41.248495,147.020429,43.161354,143.370668,41.625469" />
<polygon fill="#4197bc" fill-opacity="0.501961" points="66.090401,56.269039,25.241213,52.592750,27.496449,51.996357,69.227508,47.452055" />
<polygon fill="#0076a4" fill-opacity="0.501961" points="-10.033887,68.242784,8.179762,47.797837,30.541107,58.948611,28.711840,55.732646" />
<polygon fill="#00709b" fill-opacity="0.501961" points="35.746677,116.895650,4.681813,121.611636,8.508176,127.055082,23.020449,128.237483" />
<polygon fill="#005276" fill-opacity="0.501961" points="169.369409,138.933885,175.718514,137.513487,166.015706,156.189537,191.813642,144.430250" />
<polygon fill="#3995bc" fill-opacity="0.501961" points="41.622054,43.354707,47.521688,46.171594,42.278513,33.975895,65.268612,40.456310" />
<polygon fill="#298fb8" fill-opacity="0.501961" points="74.568324,84.016360,68.980086,88.985677,55.278998,86.788501,66.762054,92.716786" />
<polygon fill="#5ea5c3" fill-opacity="0.501961" points="177.536226,18.050540,215.682471,8.265797,181.231085,17.017617,190.813973,6.956283" />
<polygon fill="#006e99" fill-opacity="0.501961" points="39.406784,88.079203,4.602394,90.565239,16.845353,80.083563,19.148808,82.317695" />
<polygon fill="#00729b" fill-opacity="0.501961" points="145.029716,125.353020,161.181803,133.280496,178.842388,139.938179,215.172486,141.391507" />
<polygon fill="#006893" fill-opacity="0.501961" points="25.869201,138.061150,-14.984002,107.555968,29.962711,116.861449,-11.517393,128.632551" />
<polygon fill="#3a98be" fill-opacity="0.501961" points="201.596055,28.697719,212.199397,17.552115,218.153168,20.121972,219.026658,21.759473" />
<polygon fill="#0077a0" fill-opacity="0.501961" points="89.705909,138.369607,86.056818,151.238071,101.631728,149.362978,149.823440,144.334798" />
<polygon fill="#00739c" fill-opacity="0.501961" points="107.482598,109.288193,95.352480,114.640679,110.195795,113.242255,42.214757,87.060365" />
<polygon fill="#0082ad" fill-opacity="0.501961" points="73.298425,97.412871,80.193624,71.448749,94.474110,73.253260,75.118224,80.295159" />
<polygon fill="#2d94be" fill-opacity="0.501961" points="159.056277,14.782394,175.089405,35.971135,162.265809,11.813851,166.917081,11.366118" />
<polygon fill="#006996" fill-opacity="0.501961" points="126.259499,80.232457,137.391539,86.062156,140.764800,82.479846,115.113029,86.074419" />
<polygon fill="#5ca3c2" fill-opacity="0.501961" points="76.717789,44.758937,87.192253,54.497658,80.920883,56.597491,82.727290,52.821340" />
<polygon fill="#198eb9" fill-opacity="0.501961" points="34.549560,50.076209,-11.687798,45.061925,-8.014374,58.406643,7.102324,43.456803" />
<polygon fill="#0078a2" fill-opacity="0.501961" points="83.116109,106.932357,82.456900,99.762310,86.121365,98.815091,60.302994,104.836100" />
<polygon fill="#2791bd" fill-opacity="0.501961" points="189.482049,22.603059,180.544544,11.437537,193.259913,14.542052,150.430563,30.969602" />
<polygon fill="#006791" fill-opacity="0.501961" points="188.066933,126.526777,162.951969,122.320539,185.314906,138.218699,197.611573,127.857601" />
<polygon fill="#0076a4" fill-opacity="0.501961" points="113.651391,61.706113,137.072272,65.360666,94.874560,66.059194,106.373249,68.581085" />
<polygon fill="#006189" fill-opacity="0.501961" points="62.577952,110.874575,86.359901,105.041067,46.896218,111.012965,53.930131,104.679928" />
</g>
</svg>