<svg height="680" width="1024" xmlns="http://www.w3.org/2000/svg"><path d="m0 0h1024v680h-1024z" fill="#7aaaac"/><g fill-opacity=".501961"><ellipse fill="#404f56" rx="1" ry="1" transform="matrix(82.8169342 -22.0329726 185.75250768 698.20144032 471.607776 417.770292)"/><ellipse fill="#25363e" rx="1" ry="1" transform="matrix(-110.38891704 489.13247696 -45.01870448 -10.15995924 678.320996 29.235864)"/><ellipse fill="#aee3dc" rx="1" ry="1" transform="matrix(-91.13738844 -366.45782332 278.13067924 -69.17058972 882.273168 678)"/><ellipse fill="#ade1db" rx="1" ry="1" transform="matrix(260.33825096 -11.09065384 12.51124204 293.68465748 160.279152 588.378924)"/><ellipse fill="#71a6aa" rx="1" ry="1" transform="matrix(49.39749644 365.01407412 -84.89990164 11.48953668 483.316212 152.61074)"/><ellipse fill="#303b42" rx="1" ry="1" transform="matrix(38.10179168 -7.56934752 52.20462088 262.78217364 359.6124 133.985736)"/><ellipse fill="#444b52" rx="1" ry="1" transform="matrix(78.55599256 -101.81756856 44.05677716 33.9914212 515.344912 571.807056)"/><ellipse fill="#6d9a9d" rx="1" ry="1" transform="matrix(-13.71246676 -444.84291596 91.24037772 -2.81252236 501.39562 129.281416)"/><ellipse fill="#101418" rx="1" ry="1" transform="matrix(-54.84253008 344.28661268 -5.36513404 -.8546296 629.838928 106.2776)"/><ellipse fill="#000001" rx="1" ry="1" transform="matrix(7.29505572 1.68417124 -42.1130764 182.41449064 697.784524 93.2211)"/><ellipse fill="#99cac7" rx="1" ry="1" transform="matrix(19.13069748 -.41783784 3.33215184 152.5625072 624.5576 454.810224)"/><ellipse fill="#7fc4cb" rx="1" ry="1" transform="matrix(-17.40348752 -1.60591796 10.40950108 -112.80876632 674.296076 75.23454)"/><ellipse fill="#8cb5c1" rx="1" ry="1" transform="matrix(-12.38063608 1.59202812 -20.38738836 -158.54546548 337.521512 2)"/><ellipse fill="#363b42" rx="1" ry="1" transform="matrix(34.05755872 175.96824548 -13.27334904 2.56897408 432.432724 543.141136)"/><ellipse fill="#82babc" rx="1" ry="1" transform="matrix(-67.43990752 129.30406644 -209.42993772 -109.23040568 169.6301 342.21722)"/><ellipse fill="#80b9bc" rx="1" ry="1" transform="matrix(4.60311908 150.27223948 -232.62484436 7.125733 887.149632 317.657072)"/><ellipse fill="#203945" rx="1" ry="1" transform="matrix(2.36378252 3.22684552 -219.46344428 160.76501048 557.582356 41.997004)"/><ellipse fill="#090a0b" rx="1" ry="1" transform="matrix(81.23873612 329.15724888 -3.88346892 .95847232 308.759588 56.619736)"/><ellipse fill="#212b34" rx="1" ry="1" transform="matrix(-4.43925552 -18.18207784 68.07405604 -16.62065968 523.507228 615.497348)"/><ellipse fill="#a4d1cd" rx="1" ry="1" transform="matrix(127.23828968 28.01580796 -34.709425 157.63842612 695.454188 678)"/><ellipse fill="#61a5ae" rx="1" ry="1" transform="matrix(-.29856008 -139.65162884 168.16215572 -.35951252 890.60266 61.608384)"/><ellipse fill="#1f2c35" rx="1" ry="1" transform="matrix(12.41020476 -260.26055332 7.8132264 .37256412 648.993652 82.926912)"/><ellipse fill="#63a6af" rx="1" ry="1" transform="matrix(-27.90402184 148.084609 -186.90493624 -35.21905116 115.003348 67.09242)"/><ellipse fill="#a1d0cb" rx="1" ry="1" transform="matrix(-243.27927728 16.60022664 -14.83464504 -217.40436476 200.684556 678)"/><ellipse fill="#709b9e" rx="1" ry="1" transform="matrix(59.0678538 75.13129448 -80.68985472 63.43796652 506.014008 223.664588)"/><ellipse fill="#0e1b22" rx="1" ry="1" transform="matrix(7.73006848 93.50881024 -7.55842564 .6248304 377.264184 91.577704)"/><ellipse fill="#30383b" rx="1" ry="1" transform="matrix(-8.67353748 -.48673784 8.00762864 -142.69379228 597.735556 444.466128)"/><ellipse fill="#32454e" rx="1" ry="1" transform="matrix(150.65773684 .95253424 -.02528952 3.99992004 467.021496 157.397964)"/><ellipse fill="#84a0a3" rx="1" ry="1" transform="matrix(-23.27084956 -38.34232104 27.86684768 -16.91304028 506.507224 678)"/><ellipse fill="#2e3436" rx="1" ry="1" transform="matrix(54.64519484 -179.43341956 5.8111066 1.76973192 551.965396 678)"/><ellipse fill="#3d4a4f" rx="1" ry="1" transform="matrix(11.93833632 125.721665 -18.98898724 1.80316508 428.79578 511.139856)"/><ellipse fill="#91c6c3" rx="1" ry="1" transform="matrix(18.61876192 -7.2708684 40.0028882 102.43676704 364.043172 396.364544)"/><ellipse fill="#172128" rx="1" ry="1" transform="matrix(3.66444256 -12.14005104 49.30692024 14.88316452 506.70986 623.632528)"/><ellipse fill="#0e1113" rx="1" ry="1" transform="matrix(-4.32382624 1.0054966 -47.02601192 -202.22077872 306.133796 16.484516)"/><ellipse fill="#08090c" rx="1" ry="1" transform="matrix(49.40719352 -181.64878448 3.85977384 1.04983136 680.620444 175.959744)"/><ellipse fill="#3f5153" rx="1" ry="1" transform="matrix(99.55867984 -44.76698736 1.6404098 3.64815784 509.062064 402.80376)"/><ellipse fill="#a0cfcb" rx="1" ry="1" transform="matrix(-42.99800204 119.80832212 -312.11859736 -112.01622604 903.131384 678)"/><ellipse fill="#83aba9" rx="1" ry="1" transform="matrix(6.16681528 115.132186 -14.54901248 .77928748 456.734884 446.228356)"/><ellipse fill="#5b7074" rx="1" ry="1" transform="matrix(-8.76262152 -.01067236 .18301464 -150.26526856 509.01586 225.348676)"/><ellipse fill="#84bec0" rx="1" ry="1" transform="matrix(21.33940412 -26.33413156 27.91853708 22.62329948 443.003112 246.429864)"/><ellipse fill="#8ec1c0" rx="1" ry="1" transform="matrix(14.07811284 121.76729376 -127.01535132 14.68486648 732.60068 433.452016)"/><ellipse fill="#869aa0" rx="1" ry="1" transform="matrix(-8.21270296 -93.44213984 3.98463936 -.35021308 396.581476 330.153312)"/><ellipse fill="#8dc1bf" rx="1" ry="1" transform="matrix(31.1542962 -.90465332 .88161048 30.36075068 453.4923 333.829964)"/><ellipse fill="#7db5b8" rx="1" ry="1" transform="matrix(207.5318052 -21.83801532 11.50491088 109.33387896 143.218512 275.80668)"/><ellipse fill="#89b1b5" rx="1" ry="1" transform="matrix(-11.07554836 -.375384 1.267265 -37.39012644 622.006692 278.769068)"/><ellipse fill="#444c54" rx="1" ry="1" transform="matrix(159.63248152 -2.61190136 .06543912 3.99946468 527.826944 199.22186)"/><ellipse fill="#68acb5" rx="1" ry="1" transform="matrix(-36.9469492 -14.36621988 48.67494904 -125.18191176 450.512768 11.037472)"/><ellipse fill="#292f35" rx="1" ry="1" transform="matrix(12.95631812 2.0860162 -5.60999296 34.84385836 638.638692 316.704064)"/><ellipse fill="#2f3c42" rx="1" ry="1" transform="matrix(3.95044948 -.62765344 69.13022188 435.10546524 426.065288 397.629136)"/><ellipse fill="#6fb5bb" rx="1" ry="1" transform="matrix(12.03350752 2.1334352 -13.38889032 75.51919636 691.496252 33.437816)"/><ellipse fill="#354147" rx="1" ry="1" transform="matrix(.0946458 3.99888012 -112.665612 2.6665788 477.39118 367.328796)"/><ellipse fill="#87b0ad" rx="1" ry="1" transform="matrix(-11.17043344 -.6364146 5.74589904 -100.85278368 554.694536 455.066376)"/><ellipse fill="#87b7b7" rx="1" ry="1" transform="matrix(-8.78524912 30.8435332 -39.1334318 -11.14648396 555.9379 309.82862)"/><ellipse fill="#122025" rx="1" ry="1" transform="matrix(10.80211136 -41.23144176 10.6459328 2.78909848 640.472132 100.734444)"/><ellipse fill="#7bb3b7" rx="1" ry="1" transform="matrix(198.86426792 11.629811 -7.29801776 124.79265192 870.757444 254.566128)"/><ellipse fill="#4e6d77" rx="1" ry="1" transform="matrix(-2.21161236 3.33298228 -190.37657712 -126.32506224 456.490108 47.746596)"/><ellipse fill="#475260" rx="1" ry="1" transform="matrix(5.4445266 113.7345826 -3.99542472 .1912628 588.874972 639.037888)"/><ellipse fill="#475459" rx="1" ry="1" transform="matrix(143.13577204 .22948648 -.00641312 3.99999484 522.949232 278.44054)"/><ellipse fill="#45595e" rx="1" ry="1" transform="matrix(2.51701636 3.1087986 -103.154905 83.51862492 549.11066 214.088468)"/><ellipse fill="#5b6770" rx="1" ry="1" transform="matrix(-60.7018298 -75.32398444 14.91432472 -12.019104 508.03854 549.234788)"/><ellipse fill="#4b5166" rx="1" ry="1" transform="matrix(3.99730316 -.1468588 2.51578552 68.47637728 427.145352 667.249864)"/><ellipse fill="#202c2e" rx="1" ry="1" transform="matrix(-20.43581356 1.47562364 -.28808088 -3.98961268 565.465864 431.733688)"/><ellipse fill="#6e8b95" rx="1" ry="1" transform="matrix(12.3335872 109.52096904 -14.31834216 1.61244484 339.189784 56.561816)"/><ellipse fill="#19282c" rx="1" ry="1" transform="matrix(-29.41381428 86.57851072 -6.53763236 -2.22106736 701.375352 89.975964)"/><ellipse fill="#32535d" rx="1" ry="1" transform="matrix(-2.23366528 -3.31824344 255.79029932 -172.1844454 619.14736 5.52862)"/><ellipse fill="#7dbaba" rx="1" ry="1" transform="matrix(-5.80554032 1.2974038 -34.8992208 -156.16482124 342.884868 257.618804)"/><ellipse fill="#86b5b7" rx="1" ry="1" transform="matrix(-9.62091296 .02877428 -.29749128 -99.46862712 619.232936 341.455724)"/><ellipse fill="#98cecb" rx="1" ry="1" transform="matrix(12.41770512 13.26751052 -12.47681568 11.67765556 453.485892 458.185004)"/><ellipse fill="#60a4ad" rx="1" ry="1" transform="matrix(-16.1681436 1.03253368 -3.9321962 -61.57311236 609.579852 80.4575)"/><ellipse fill="#2b3d45" rx="1" ry="1" transform="matrix(1.20145024 -6.65026724 24.45899748 4.41881012 603.792924 162.508764)"/><ellipse fill="#81bcbf" rx="1" ry="1" transform="matrix(-14.340068 -7.17282544 16.28341168 -32.55414948 582.26152 242.186652)"/><ellipse fill="#243036" rx="1" ry="1" transform="matrix(24.4214242 25.56925916 -2.89260816 2.76275548 401.99666 156.031932)"/><ellipse fill="#2b343e" rx="1" ry="1" transform="matrix(-11.22668096 .02068136 -.07246612 -39.33753324 548.74162 681.2411)"/><ellipse fill="#73a7ac" rx="1" ry="1" transform="matrix(-7.15839988 -.55765124 15.18579796 -194.93548728 666.57236 47.257436)"/><ellipse fill="#252f31" rx="1" ry="1" transform="matrix(-86.76504072 -370.2344944 4.83452084 -1.13297764 303.10028 30.745116)"/><ellipse fill="#253136" rx="1" ry="1" transform="matrix(16.58157188 -5.92619292 4.96275136 13.88584872 588.143936 364.695616)"/><ellipse fill="#9fdfda" rx="1" ry="1" transform="matrix(-4.23342048 2.71188304 -9.7605652 -15.23685792 441.510116 396.164876)"/><ellipse fill="#3d4d52" rx="1" ry="1" transform="matrix(-61.00403388 -2.20669044 .14459688 -3.9973856 451.587432 431.517236)"/><ellipse fill="#91c4c2" rx="1" ry="1" transform="matrix(-236.33695156 12.55465756 -4.21552776 -79.35580656 165.476168 474.982076)"/><ellipse fill="#8299a4" rx="1" ry="1" transform="matrix(-3.9998498 -.03466216 .32008068 -36.93580912 586.362428 476.55354)"/><ellipse fill="#536569" rx="1" ry="1" transform="matrix(-2.68078824 2.9687328 -54.62928184 -49.33065632 537.291084 465.742628)"/><ellipse fill="#2b373f" rx="1" ry="1" transform="matrix(-6.90726288 .11618592 -1.97776784 -117.57845532 374.251424 240.662304)"/><ellipse fill="#7aa2a3" rx="1" ry="1" transform="matrix(92.77785916 -2.15640164 .20728448 8.9182874 474.465856 293.640984)"/><ellipse fill="#8abdbc" rx="1" ry="1" transform="matrix(5.76761284 77.66131708 -321.06035776 23.84394076 925.978732 368.687472)"/><ellipse fill="#6aacb1" rx="1" ry="1" transform="matrix(-10.88778916 1.3255592 -10.26692664 -84.32979352 394.118452 61.186024)"/><ellipse fill="#303e44" rx="1" ry="1" transform="matrix(-.38906424 9.08528524 -20.71392352 -.88704392 417.025024 282.740828)"/><ellipse fill="#1a262a" rx="1" ry="1" transform="matrix(-10.04713148 -4.43694108 4.09821352 -9.28010752 422.840704 366.039808)"/><ellipse fill="#80a6a6" rx="1" ry="1" transform="matrix(7.06460716 -.93962168 6.10231908 45.88068632 460.630608 541.83656)"/><ellipse fill="#7fb8bb" rx="1" ry="1" transform="matrix(-3.52555292 13.22030924 -46.09093792 -12.29139484 450.932828 221.0049)"/><ellipse fill="#2e383b" rx="1" ry="1" transform="matrix(-28.54589572 -120.05117708 3.89150016 -.92532504 439.851712 598.844164)"/><ellipse fill="#3a4d57" rx="1" ry="1" transform="matrix(-45.34375776 -6.53501584 1.6668682 -11.56570548 515.927136 577.542868)"/><ellipse fill="#9ecdc8" rx="1" ry="1" transform="matrix(-33.85235184 -4.21427012 13.30326972 -106.8623874 388.075888 636.976612)"/><ellipse fill="#263237" rx="1" ry="1" transform="matrix(5.2237686 .85209052 -42.69646268 261.7520484 619.688736 179.712168)"/><ellipse fill="#566a6f" rx="1" ry="1" transform="matrix(-28.44929008 -313.20270024 3.98359996 -.36184424 532.75844 467.788364)"/><ellipse fill="#94c2bf" rx="1" ry="1" transform="matrix(4.89058508 -9.35393572 23.66556516 12.37323656 546.997796 449.96518)"/><ellipse fill="#98cfcb" rx="1" ry="1" transform="matrix(22.02866988 1.62428404 -.55127236 7.47639952 554.704424 398.02246)"/><ellipse fill="#6a989e" rx="1" ry="1" transform="matrix(-8.65752564 239.83433544 -3.99739644 -.14429776 660.398736 19.032944)"/><ellipse fill="#95c9c6" rx="1" ry="1" transform="matrix(-4.45388224 -15.78726944 13.59494772 -3.83538752 555.686636 459.312244)"/><ellipse fill="#6badb3" rx="1" ry="1" transform="matrix(4.49129064 .58325432 -12.77501072 98.37267288 626.13066 42.071688)"/><ellipse fill="#465159" rx="1" ry="1" transform="matrix(-99.1411182 -.01894548 .0007644 -3.99999992 508.573508 520.125284)"/><ellipse fill="#576e7b" rx="1" ry="1" transform="matrix(3.94780052 -.64410496 25.86977528 158.55911188 447.083164 589.963532)"/><ellipse fill="#222c30" rx="1" ry="1" transform="matrix(16.45822572 -52.37583984 7.51762164 2.362286 649.124656 289.567864)"/><ellipse fill="#101d21" rx="1" ry="1" transform="matrix(.00646112 -4.39086324 15.23137552 .0224128 439.712952 432.132524)"/><ellipse fill="#1b2220" rx="1" ry="1" transform="matrix(-14.28968324 58.43877336 -3.88552472 -.95010408 590.880684 536.090904)"/><ellipse fill="#37474e" rx="1" ry="1" transform="matrix(7.02950516 -.0098158 .1697026 121.53133352 599.294664 395.917008)"/><ellipse fill="#95bfba" rx="1" ry="1" transform="matrix(.36313568 -3.98348244 35.93334208 3.27569624 502.273944 493.249792)"/><ellipse fill="#a2d2cd" rx="1" ry="1" transform="matrix(-1.43499236 -73.56992648 266.55521924 -5.19919916 151.88758 678)"/><ellipse fill="#a0d0cc" rx="1" ry="1" transform="matrix(323.85930816 -5.80222732 1.24101704 69.26907592 921.369456 656.147064)"/><ellipse fill="#1f201a" rx="1" ry="1" transform="matrix(-3.98175936 .38156564 -3.39294104 -35.40642548 423.621976 531.45048)"/><ellipse fill="#6eb0b6" rx="1" ry="1" transform="matrix(-.25087984 22.936584 -46.56643848 -.50934268 509.09528 128.864904)"/><ellipse fill="#75adb2" rx="1" ry="1" transform="matrix(-3.80707132 68.4412088 -183.05559852 -10.18254544 148.624532 176.776964)"/><ellipse fill="#92c2bc" rx="1" ry="1" transform="matrix(-.68786608 5.53673044 -31.42654944 -3.9043362 514.876948 421.52072)"/><ellipse fill="#86babb" rx="1" ry="1" transform="matrix(-32.87607364 -7.58414536 3.23219348 -14.01104872 555.468064 330.555316)"/><ellipse fill="#7ca5a6" rx="1" ry="1" transform="matrix(80.95355272 -19.90077336 1.96793032 8.00526432 553.702304 305.698628)"/><ellipse fill="#71aaaf" rx="1" ry="1" transform="matrix(9.9848734 -59.98473656 143.83302356 23.94199948 842.181776 157.591204)"/><ellipse fill="#1b272a" rx="1" ry="1" transform="matrix(-7.60689756 1.94940888 -20.75280332 -80.98067576 309.427328 48.322512)"/><ellipse fill="#29383e" rx="1" ry="1" transform="matrix(-5.56459244 -13.19156596 5.64265864 -2.3802402 593.220748 281.978168)"/><ellipse fill="#61a6b0" rx="1" ry="1" transform="matrix(-49.03620188 24.59779732 -13.67660472 -27.26458556 524.802148 25.349936)"/><ellipse fill="#66a2a9" rx="1" ry="1" transform="matrix(-171.00009244 -13.16490928 5.82834912 -75.70490776 125.090448 18.590608)"/><ellipse fill="#7cc0c5" rx="1" ry="1" transform="matrix(23.83129416 3.5801042 -1.88976708 12.57940892 474.253084 179.86292)"/><ellipse fill="#25363b" rx="1" ry="1" transform="matrix(13.36291956 -3.03625456 1.90591648 8.3881664 433.029544 370.945232)"/><ellipse fill="#5b6f71" rx="1" ry="1" transform="matrix(.01564636 -3.9999694 111.25986484 .43520596 485.969528 348.7992)"/><ellipse fill="#698d95" rx="1" ry="1" transform="matrix(28.01563264 -8.72142236 2.35392468 7.56146028 615.921452 187.09852)"/><ellipse fill="#98cac6" rx="1" ry="1" transform="matrix(-2.23605768 -69.32883768 131.98994652 -4.2570616 726.029472 557.705424)"/><ellipse fill="#11171b" rx="1" ry="1" transform="matrix(6.18187836 -5.21386628 11.903349 14.11333768 536.621448 625.241188)"/><ellipse fill="#7db8bc" rx="1" ry="1" transform="matrix(15.08806684 26.31938024 -17.21951504 9.8714024 578.665592 230.892544)"/><ellipse fill="#8abcb7" rx="1" ry="1" transform="matrix(-1.9438228 7.40254112 -31.29746612 -8.21835724 496.980684 381.685172)"/><ellipse fill="#25373f" rx="1" ry="1" transform="matrix(-4.13892472 -102.0765114 10.27902568 -.41678652 372.963316 86.612536)"/><ellipse fill="#64757d" rx="1" ry="1" transform="matrix(-3.99230152 .24804948 -9.80825724 -157.86174244 389.346536 292.719428)"/><ellipse fill="#86baba" rx="1" ry="1" transform="matrix(20.32288932 68.68772688 -130.13101952 38.50234136 230.918296 343.145664)"/><ellipse fill="#77b7bc" rx="1" ry="1" transform="matrix(-30.42372012 1.61848724 -.8224276 -15.45968764 544.155988 178.17002)"/><ellipse fill="#81a3a5" rx="1" ry="1" transform="matrix(13.84454996 -4.83245804 8.9345042 25.59653668 486.344432 676.701512)"/><ellipse fill="#57676d" rx="1" ry="1" transform="matrix(-3.992929 -.2377354 5.19465508 -87.24778624 507.217992 189.6974)"/><ellipse fill="#38424d" rx="1" ry="1" transform="matrix(4.64607804 -32.98375292 3.96089808 .55793048 633.571892 268.416284)"/><ellipse fill="#343e42" rx="1" ry="1" transform="matrix(-1.34322456 108.47042752 -3.99969336 -.04952952 417.2236 429.5675)"/><ellipse fill="#82b5b7" rx="1" ry="1" transform="matrix(-30.6961782 13.58026824 -5.50382052 -12.4405684 464.03102 257.122432)"/><ellipse fill="#8dc5c1" rx="1" ry="1" transform="matrix(6.787207 -2.038207 7.34029704 24.44310888 440.452776 401.196096)"/><ellipse fill="#60757e" rx="1" ry="1" transform="matrix(35.28034204 -51.80441368 3.30612228 2.25156732 456.319052 636.438856)"/><ellipse fill="#797c84" rx="1" ry="1" transform="matrix(-2.2600642 15.83173552 -20.52583804 -2.93017224 507.953028 525.696896)"/><ellipse fill="#2c373b" rx="1" ry="1" transform="matrix(-3.9565672 .58785712 -30.06499108 -202.35215644 401.93958 234.954172)"/><ellipse fill="#24373d" rx="1" ry="1" transform="matrix(-2.98020016 2.66803432 -8.07922144 -9.024508 444.77524 480.341336)"/><ellipse fill="#8dc1c0" rx="1" ry="1" transform="matrix(33.98007904 124.4555258 -7.55757956 2.06344516 375.315284 397.604896)"/><ellipse fill="#8cb7b8" rx="1" ry="1" transform="matrix(3.19346328 10.05544076 -11.7315712 3.72577816 554.669496 542.808944)"/><ellipse fill="#99c6bf" rx="1" ry="1" transform="matrix(3.93758316 -.70387408 7.07274152 39.56603672 441.046268 658.686212)"/><ellipse fill="#74a5a7" rx="1" ry="1" transform="matrix(-3.97939408 .40549088 -3.9844408 -39.10238568 407.874604 207.260056)"/><ellipse fill="#66a2aa" rx="1" ry="1" transform="matrix(-9.51386864 -65.810734 167.65581812 -24.23701012 898.10506 2)"/><ellipse fill="#6c929d" rx="1" ry="1" transform="matrix(10.85390448 -12.6428502 18.98014828 16.29448372 335.847712 24.538052)"/><ellipse fill="#1a2b2f" rx="1" ry="1" transform="matrix(-13.23703652 61.64011544 -9.50317204 -2.04077872 634.665312 96.163332)"/><ellipse fill="#15272a" rx="1" ry="1" transform="matrix(-3.97903316 -.4090172 11.78998636 -114.69626764 638.384932 47.200916)"/><ellipse fill="#68a4ab" rx="1" ry="1" transform="matrix(15.3464362 2.64817384 -14.43442684 83.64896852 693.391532 10.856004)"/><ellipse fill="#3f5458" rx="1" ry="1" transform="matrix(24.64823028 15.12256932 -2.09181556 3.40944388 584.975492 268.985616)"/><ellipse fill="#1e2a27" rx="1" ry="1" transform="matrix(-3.98895472 -.2970526 1.12838376 -15.1524394 640.9904 340.52192)"/><ellipse fill="#91cac6" rx="1" ry="1" transform="matrix(2.48660076 7.8488748 -16.24777872 5.14745616 452.382508 412.399256)"/><ellipse fill="#3f575f" rx="1" ry="1" transform="matrix(-.0546688 -3.9996264 123.35912512 -1.68613076 508.690116 158.800336)"/><ellipse fill="#415659" rx="1" ry="1" transform="matrix(-.09977076 -3.99875552 21.31380684 -.53178908 613.830296 347.435308)"/><ellipse fill="#81b7b9" rx="1" ry="1" transform="matrix(-2.43840888 -46.75574312 145.77936644 -7.60269604 802.383356 308.652248)"/><ellipse fill="#43565e" rx="1" ry="1" transform="matrix(18.5056328 -165.28551812 3.97516248 .4450656 556.722012 586.479312)"/><ellipse fill="#25363a" rx="1" ry="1" transform="matrix(20.14138372 -13.9152728 2.27366196 3.2909666 576.161488 369.015012)"/><ellipse fill="#7f969f" rx="1" ry="1" transform="matrix(-3.93780708 -.70262048 4.8532918 -27.20007152 585.416704 441.79796)"/><ellipse fill="#8bc1c0" rx="1" ry="1" transform="matrix(30.00288376 38.15950316 -25.9645644 20.41462136 648.670464 394.779752)"/><ellipse fill="#91c3c2" rx="1" ry="1" transform="matrix(2.00360636 -39.63893472 278.14514048 14.0592418 885.489128 449.66336)"/><ellipse fill="#70acb1" rx="1" ry="1" transform="matrix(45.7784928 -21.26759104 6.6183586 14.24601784 483.806052 128.824896)"/><ellipse fill="#5f7677" rx="1" ry="1" transform="matrix(3.97278904 .46577596 -19.04087272 162.4072068 488.38096 346.311096)"/><ellipse fill="#2e4149" rx="1" ry="1" transform="matrix(-3.33187468 2.2132806 -9.0160332 -13.57274468 603.802688 154.59052)"/><ellipse fill="#2c3e47" rx="1" ry="1" transform="matrix(3.99448388 .20999636 -12.07263296 229.6417602 645.606608 125.5441)"/><ellipse fill="#51656a" rx="1" ry="1" transform="matrix(2.4768486 3.14089496 -52.00853732 41.01291956 428.20118 310.71194)"/><ellipse fill="#1e292d" rx="1" ry="1" transform="matrix(-1.9790638 3.47610508 -11.5997974 -6.60415568 570.986244 430.323464)"/><ellipse fill="#091316" rx="1" ry="1" transform="matrix(19.30918664 -53.91396768 5.3655892 1.92167572 722.198148 12.743892)"/><ellipse fill="#7bb0b3" rx="1" ry="1" transform="matrix(8.61555228 11.31796164 -43.8625948 33.3894468 560.281208 242.936696)"/><ellipse fill="#212a29" rx="1" ry="1" transform="matrix(3.9461982 .65384996 -8.40711712 50.73969952 591.990336 520.624452)"/><ellipse fill="#81b1b1" rx="1" ry="1" transform="matrix(-23.28654856 -4.15486972 2.52457096 -14.149311 489.580568 296.00594)"/><ellipse fill="#6facb3" rx="1" ry="1" transform="matrix(-.61185404 26.10456648 -40.17986076 -.94175896 434.818284 88.148912)"/><ellipse fill="#81b5b6" rx="1" ry="1" transform="matrix(-7.1060964 13.27051464 -35.06704448 -18.77770424 452.266252 318.027524)"/><ellipse fill="#667b82" rx="1" ry="1" transform="matrix(4.51724032 -.6618444 4.30373424 29.37397684 363.782184 225.847144)"/><ellipse fill="#577780" rx="1" ry="1" transform="matrix(-2.2830536 3.28445828 -203.05391236 -141.14442092 477.626856 62.248636)"/><ellipse fill="#8fc6c1" rx="1" ry="1" transform="matrix(-15.66210236 2.68457096 -1.11951416 -6.53137708 534.405872 378.905)"/><ellipse fill="#9ecec7" rx="1" ry="1" transform="matrix(-3.97014732 -.48778108 8.78323592 -71.48850508 572.35752 678)"/><ellipse fill="#68a7af" rx="1" ry="1" transform="matrix(-4.01857444 49.58999384 -37.36925396 -3.02825464 588.480264 81.448376)"/><ellipse fill="#5d7079" rx="1" ry="1" transform="matrix(66.7028004 96.31972676 -3.28845056 2.27729948 585.017012 675.348892)"/><ellipse fill="#71a1a4" rx="1" ry="1" transform="matrix(9.70988448 -67.54164796 5.22032276 .75048112 658.849004 193.131596)"/><ellipse fill="#566970" rx="1" ry="1" transform="matrix(7.9449652 131.66707696 -3.99273768 .24092708 531.059692 481.499608)"/><ellipse fill="#74adb1" rx="1" ry="1" transform="matrix(5.54910088 52.39033568 -306.39153072 32.45250288 988.445596 163.74416)"/><ellipse fill="#89bdbc" rx="1" ry="1" transform="matrix(-21.9129784 81.69128784 -120.50467188 -32.32433152 5.023256 369.811584)"/><ellipse fill="#2e3532" rx="1" ry="1" transform="matrix(16.06413832 47.72758092 -3.79102484 1.27598228 427.7077 564.29586)"/><ellipse fill="#7faaae" rx="1" ry="1" transform="matrix(3.98724952 .31912576 -4.10189156 51.2502194 618.658516 273.997128)"/><ellipse fill="#93cdc7" rx="1" ry="1" transform="matrix(12.29977308 5.49106012 -1.63062564 3.6525416 467.565784 392.29476)"/><ellipse fill="#81b5b5" rx="1" ry="1" transform="matrix(3.99999384 -.0070216 .05925148 33.753804 580.951292 329.58782)"/><ellipse fill="#7fb5b8" rx="1" ry="1" transform="matrix(-4.3786752 -48.38898472 172.87873764 -15.64363972 181.545924 299.811476)"/><ellipse fill="#88baba" rx="1" ry="1" transform="matrix(-.35719084 -3.98401992 126.88646076 -11.37611784 272.65484 367.719928)"/><ellipse fill="#6d858f" rx="1" ry="1" transform="matrix(3.0879156 -16.72082024 3.93348692 .72641624 447.357488 547.748052)"/><ellipse fill="#87bfc0" rx="1" ry="1" transform="matrix(32.65327388 1.37976764 -.68817864 16.28628296 453.428208 327.838288)"/><ellipse fill="#70a8ac" rx="1" ry="1" transform="matrix(.79748672 -47.02957496 6.09437988 .1033432 399.07646 98.468764)"/><ellipse fill="#768a93" rx="1" ry="1" transform="matrix(-.16895864 21.62700404 -4.6471542 -.0363054 426.7209 463.333556)"/><ellipse fill="#5e727a" rx="1" ry="1" transform="matrix(-50.97247804 -247.66131816 3.91788008 -.80635948 322.017716 26.469184)"/><ellipse fill="#2e3e45" rx="1" ry="1" transform="matrix(6.45617008 5.09507032 -6.26422824 7.93765752 441.08526 487.940672)"/><ellipse fill="#8da3a6" rx="1" ry="1" transform="matrix(-3.98822396 .30670796 -2.23319816 -29.03900832 397.20556 315.708196)"/><ellipse fill="#94c7c4" rx="1" ry="1" transform="matrix(7.35797472 51.14621356 -65.87425912 9.47677452 342.576188 498.590392)"/><ellipse fill="#313b3e" rx="1" ry="1" transform="matrix(-21.32316552 105.88079244 -3.9212722 -.7896988 581.294732 568.090436)"/><ellipse fill="#2f3e49" rx="1" ry="1" transform="matrix(.13339404 75.33000988 -3.99999372 .00708316 547.298404 661.290552)"/><ellipse fill="#6a8a93" rx="1" ry="1" transform="matrix(-3.9905098 .27537552 -11.79045724 -170.8573716 660.178492 2)"/><ellipse fill="#1c2327" rx="1" ry="1" transform="matrix(-3.88441444 -.95463316 30.18816664 -122.83603376 666.654444 231.459876)"/><ellipse fill="#67a4aa" rx="1" ry="1" transform="matrix(9.64662164 3.20007504 -36.39466736 109.7116724 724.926276 84.10584)"/><ellipse fill="#1f2c32" rx="1" ry="1" transform="matrix(6.99057224 -10.35601896 12.4734176 8.41986936 497.588964 628.608916)"/><ellipse fill="#6da8ac" rx="1" ry="1" transform="matrix(10.88972156 -61.5945366 6.0870836 1.07617736 619.487676 82.361224)"/><ellipse fill="#3a5d66" rx="1" ry="1" transform="matrix(-146.81203752 108.64118488 -2.37937596 -3.21536468 607.940096 7.693108)"/><ellipse fill="#2c3233" rx="1" ry="1" transform="matrix(-10.3264026 -15.04253432 4.46138616 -3.06265344 377.320772 336.6614)"/><ellipse fill="#415056" rx="1" ry="1" transform="matrix(.50040168 3.96857632 -23.1579962 2.92001448 551.046156 483.026264)"/><ellipse fill="#38484e" rx="1" ry="1" transform="matrix(1.01660016 3.8686592 -22.36802272 5.87783376 649.484428 201.49406)"/><ellipse fill="#6ba9af" rx="1" ry="1" transform="matrix(-11.56189024 -64.48647068 13.51755408 -2.42358552 306.33086 136.0542)"/><ellipse fill="#5a7377" rx="1" ry="1" transform="matrix(86.3977284 49.50493932 -1.98863672 3.4706374 521.580968 233.011824)"/><ellipse fill="#7fabaa" rx="1" ry="1" transform="matrix(-1.87785808 -3.53180536 42.20385192 -22.43975432 548.023776 401.981176)"/><ellipse fill="#98d0c9" rx="1" ry="1" transform="matrix(3.986957 .32275984 -.6277592 7.75452372 558.515588 503.250788)"/><ellipse fill="#1a272e" rx="1" ry="1" transform="matrix(-13.80771676 -7.38192828 1.88589492 -3.52752044 416.121464 279.008724)"/><ellipse fill="#85bebf" rx="1" ry="1" transform="matrix(21.18062748 19.52181368 -10.83421112 11.7548192 548.913364 314.870564)"/><ellipse fill="#9bcbc7" rx="1" ry="1" transform="matrix(-5.28930212 -47.22341064 193.24863828 -21.64499388 938.629208 571.632692)"/><ellipse fill="#93cac7" rx="1" ry="1" transform="matrix(12.39349764 15.03553712 -4.67284008 3.85173024 560.79194 405.416924)"/><ellipse fill="#6f8c93" rx="1" ry="1" transform="matrix(8.61623288 -1.90368088 .92388292 4.18157812 357.606828 174.544172)"/><ellipse fill="#0f181d" rx="1" ry="1" transform="matrix(-1.28557588 -3.78778228 9.08012096 -3.08179916 571.872292 432.811552)"/><ellipse fill="#18262d" rx="1" ry="1" transform="matrix(5.4226658 -9.51510088 6.199657 3.53319092 612.207556 158.125356)"/><ellipse fill="#54656c" rx="1" ry="1" transform="matrix(55.79819272 20.22764188 -1.36324476 3.76052704 535.543312 517.711268)"/><ellipse fill="#667c89" rx="1" ry="1" transform="matrix(3.98780172 .3121498 -4.44999112 56.84989388 426.604712 625.506688)"/><ellipse fill="#7eb3b6" rx="1" ry="1" transform="matrix(7.06188528 -9.83116944 19.26793656 13.84046512 543.177032 260.562436)"/><ellipse fill="#152328" rx="1" ry="1" transform="matrix(10.72311808 -4.195808 3.02889668 7.74087292 598.873424 276.928384)"/><ellipse fill="#566b6e" rx="1" ry="1" transform="matrix(-36.66135384 2.02237012 -.2203192 -3.99392784 511.090964 434.57758)"/><ellipse fill="#9bcdc6" rx="1" ry="1" transform="matrix(-.6982424 -3.93858572 20.2520148 -3.59032828 503.452756 491.48278)"/><ellipse fill="#5e727d" rx="1" ry="1" transform="matrix(6.0370724 .9346336 -7.07081468 45.67246432 563.537816 583.604416)"/><ellipse fill="#aae1d9" rx="1" ry="1" transform="matrix(-2.42718236 -3.17943168 5.20653876 -3.97467856 487.949332 443.71918)"/><ellipse fill="#3c4a4c" rx="1" ry="1" transform="matrix(-3.96596736 .52067536 -1.83665108 -13.98971192 506.713684 199.677488)"/><ellipse fill="#363e40" rx="1" ry="1" transform="matrix(14.37042728 85.04191264 -3.9440858 .66647372 364.510732 285.537064)"/><ellipse fill="#67a3aa" rx="1" ry="1" transform="matrix(-73.7018734 12.28535472 -4.59624988 -27.57366252 519.134704 17.272448)"/><ellipse fill="#50666b" rx="1" ry="1" transform="matrix(-35.06116596 28.30956572 -2.51286124 -3.11215816 429.128076 310.30034)"/><ellipse fill="#384750" rx="1" ry="1" transform="matrix(-1.2146476 -3.8111194 39.93770356 -12.7286058 501.253952 577.030348)"/><ellipse fill="#30424d" rx="1" ry="1" transform="matrix(-9.98142764 -12.65236136 4.7517976 -3.74868552 406.19796 164.184548)"/><ellipse fill="#2b3d45" rx="1" ry="1" transform="matrix(14.72765868 -5.6129822 4.2860288 11.24592356 397.804204 162.592472)"/><ellipse fill="#9acbc7" rx="1" ry="1" transform="matrix(-7.20911296 -67.81501612 129.2880744 -13.7440406 294.905 586.205804)"/><ellipse fill="#92b7b3" rx="1" ry="1" transform="matrix(.00966472 3.99998832 -26.77796184 .06470056 510.331204 474.034948)"/><ellipse fill="#56727e" rx="1" ry="1" transform="matrix(-2.68389868 28.26828404 -3.98209232 -.37807504 511.013668 108.711324)"/><ellipse fill="#94c6c4" rx="1" ry="1" transform="matrix(-24.6056606 57.86122756 -73.57104164 -31.2863062 680.956636 505.116848)"/><ellipse fill="#596c75" rx="1" ry="1" transform="matrix(42.71326408 -1.54152796 .14426668 3.99739756 516.157428 662.401172)"/><ellipse fill="#6c7b81" rx="1" ry="1" transform="matrix(33.4616368 -37.63706656 7.18307596 6.38619052 489.428396 543.54582)"/><ellipse fill="#162125" rx="1" ry="1" transform="matrix(-40.62334808 128.73508832 -3.81458444 -1.20372148 715.132092 44.124812)"/><ellipse fill="#a3d6cb" rx="1" ry="1" transform="matrix(-7.87443576 -2.01863268 2.27686676 -8.88177488 569.581148 678)"/><ellipse fill="#76979d" rx="1" ry="1" transform="matrix(.8921756 24.34947664 -3.99731764 .14646348 545.894688 560.840764)"/><ellipse fill="#98cdcb" rx="1" ry="1" transform="matrix(6.45155844 11.0418852 -14.30492896 8.35809136 458.3452 459.938636)"/><ellipse fill="#495960" rx="1" ry="1" transform="matrix(-39.51658944 -1.92819064 .21504036 -4.40706472 458.788684 524.052612)"/><ellipse fill="#698891" rx="1" ry="1" transform="matrix(-.23241064 -3.99324244 32.82641364 -1.91052948 390.22376 193.362476)"/><ellipse fill="#0f1a1e" rx="1" ry="1" transform="matrix(-2.59224044 -3.04635676 15.77209164 -13.42096724 485.122928 620.001708)"/><ellipse fill="#627884" rx="1" ry="1" transform="matrix(3.86563856 -1.02802652 5.64262784 21.21770148 586.722792 591.665532)"/><ellipse fill="#69a7ad" rx="1" ry="1" transform="matrix(-2.88878536 42.64695684 -22.98449416 -1.55690524 684.182684 9.645256)"/><ellipse fill="#1c1f1c" rx="1" ry="1" transform="matrix(3.58915888 -1.76576852 10.98033972 22.31899792 428.241996 556.263132)"/><ellipse fill="#859aa4" rx="1" ry="1" transform="matrix(3.98191792 -.37990736 2.07801544 21.78027476 583.484208 462.118136)"/><ellipse fill="#78949a" rx="1" ry="1" transform="matrix(-3.70724404 -11.2828646 8.95641648 -2.94283612 356.154264 150.165636)"/><ellipse fill="#0a1318" rx="1" ry="1" transform="matrix(2.12001256 -3.39198272 5.35831508 3.34898384 566.92054 485.087004)"/><ellipse fill="#313c44" rx="1" ry="1" transform="matrix(3.34165768 -50.78285744 3.991368 .26264348 411.343076 331.693684)"/><ellipse fill="#79b1b5" rx="1" ry="1" transform="matrix(6.5296424 21.97923684 -32.25954468 9.58373996 442.72504 226.125976)"/><ellipse fill="#96ceca" rx="1" ry="1" transform="matrix(-2.11577996 10.07159608 -8.71399684 -1.83058372 568.693816 401.496088)"/><ellipse fill="#67a3ab" rx="1" ry="1" transform="matrix(-48.14357828 53.24362452 -14.31088208 -12.94008584 586.664124 58.863796)"/><ellipse fill="#788b93" rx="1" ry="1" transform="matrix(7.1770682 .26546408 -.5218244 14.10800872 392.42706 318.294092)"/><ellipse fill="#6fa9ae" rx="1" ry="1" transform="matrix(-17.3942948 -14.26601356 30.06978528 -36.66355056 428.895964 101.116032)"/><ellipse fill="#1b2225" rx="1" ry="1" transform="matrix(-23.88465164 -133.38448612 3.93737272 -.70505032 317.606972 70.064624)"/><ellipse fill="#a2d4cb" rx="1" ry="1" transform="matrix(-3.9972554 .14815244 -.6860802 -18.51091808 445.889016 681.639324)"/><ellipse fill="#5e7c7f" rx="1" ry="1" transform="matrix(-27.3979234 -6.75119372 .95702372 -3.88382616 457.829352 381.59226)"/><ellipse fill="#2a373d" rx="1" ry="1" transform="matrix(.58184708 -19.06353064 3.99813816 .12202908 576.230156 582.776708)"/><ellipse fill="#576c75" rx="1" ry="1" transform="matrix(-3.88224852 -.96340348 5.52616816 -22.26892312 425.63146 497.124056)"/><ellipse fill="#8ec0bf" rx="1" ry="1" transform="matrix(65.89346264 2.53253132 -1.6292938 42.39229364 329.721456 432.807236)"/><ellipse fill="#79b0b5" rx="1" ry="1" transform="matrix(61.91340104 -22.32420812 19.210723 53.2785392 274.74254 227.040016)"/><ellipse fill="#3e5962" rx="1" ry="1" transform="matrix(-2.3267922 -3.25361924 103.24570012 -73.83509588 448.438412 123.067916)"/><ellipse fill="#647885" rx="1" ry="1" transform="matrix(3.95686356 -.58585888 14.91410624 100.72917972 594.192292 678)"/><ellipse fill="#252e31" rx="1" ry="1" transform="matrix(-70.57437072 -326.53494428 3.90972536 -.8450134 304.994152 2)"/><ellipse fill="#739ea3" rx="1" ry="1" transform="matrix(.04221364 -11.35262152 11.74088684 .0436574 415.120564 187.330824)"/><ellipse fill="#759999" rx="1" ry="1" transform="matrix(3.76400304 24.33011356 -3.95297484 .61154704 464.50712 510.054632)"/><ellipse fill="#212c2f" rx="1" ry="1" transform="matrix(36.3395122 -129.79944568 3.85188948 1.07840048 669.537516 222.095544)"/><ellipse fill="#96c5c3" rx="1" ry="1" transform="matrix(2.60096472 -3.0389114 8.22017028 7.03553672 465.401964 549.208428)"/><ellipse fill="#77aeb1" rx="1" ry="1" transform="matrix(2.79171304 -21.84154508 3.9677208 .50714076 604.257072 195.83014)"/><ellipse fill="#91bfbe" rx="1" ry="1" transform="matrix(-3.87227356 1.00274496 -3.43892384 -13.28000092 545.920148 539.30334)"/><ellipse fill="#94cac5" rx="1" ry="1" transform="matrix(.03681896 -3.99983056 16.7912646 .15456572 543.436556 357.739688)"/><ellipse fill="#a3d6d1" rx="1" ry="1" transform="matrix(-5.32684036 -45.51112092 8.85621156 -1.03657356 608.584692 658.508448)"/><ellipse fill="#7bb2b4" rx="1" ry="1" transform="matrix(8.58688448 -.34954536 1.08773068 26.72104608 591.984544 243.686588)"/><ellipse fill="#8fc1bf" rx="1" ry="1" transform="matrix(7.15793144 11.09444508 -13.86156348 8.9432252 554.955764 456.228424)"/><ellipse fill="#8cbfbe" rx="1" ry="1" transform="matrix(-10.22571788 45.44905168 -53.67458988 -12.07640628 662.252444 416.025368)"/><ellipse fill="#3b4f56" rx="1" ry="1" transform="matrix(.49433948 -3.96933604 19.88419432 2.47636936 563.905636 367.584636)"/><ellipse fill="#799499" rx="1" ry="1" transform="matrix(-1.40302376 -3.74586764 29.57270344 -11.07652756 413.348964 294.037304)"/><ellipse fill="#555e68" rx="1" ry="1" transform="matrix(-8.11009544 1.63144136 -4.42162548 -21.98044328 531.332832 533.111192)"/><ellipse fill="#89bdbc" rx="1" ry="1" transform="matrix(-133.79488628 -15.57341736 5.67741116 -48.77597284 252.601956 375.622132)"/><ellipse fill="#141e22" rx="1" ry="1" transform="matrix(13.75428632 -1.79904592 1.29611616 9.90922616 521.687744 617.100072)"/><ellipse fill="#88bcba" rx="1" ry="1" transform="matrix(-4.64907624 -8.40148072 8.21220368 -4.54433716 500.641764 377.25978)"/><ellipse fill="#79afb3" rx="1" ry="1" transform="matrix(218.87979328 -.99437116 .16256372 35.78333072 897.207776 210.916572)"/><ellipse fill="#87abaa" rx="1" ry="1" transform="matrix(.8548692 7.69485528 -18.43889912 2.04849168 514.323844 493.805024)"/><ellipse fill="#69a4ab" rx="1" ry="1" transform="matrix(17.71624152 -43.72268464 24.38757152 9.88173784 514.939932 30.171264)"/><ellipse fill="#94c9c3" rx="1" ry="1" transform="matrix(-9.16451312 1.58955952 -.94653512 -5.45719332 504.250372 413.829064)"/><ellipse fill="#95cac7" rx="1" ry="1" transform="matrix(-3.01690876 6.87428344 -4.80005152 -2.106593 449.568688 470.743408)"/><ellipse fill="#6ea7ad" rx="1" ry="1" transform="matrix(-10.25036296 6.47953624 -20.50918532 -32.44469764 595.960648 113.858836)"/><ellipse fill="#42555b" rx="1" ry="1" transform="matrix(-2.51025124 3.11426376 -12.1116894 -9.76262308 462.012256 564.000224)"/><ellipse fill="#344249" rx="1" ry="1" transform="matrix(4.8191074 -2.06945944 10.18836508 23.72543496 549.961116 661.788056)"/><ellipse fill="#80b6b8" rx="1" ry="1" transform="matrix(31.31765452 54.0264454 -60.49399804 35.06671812 288.380384 297.657812)"/><ellipse fill="#82b8b9" rx="1" ry="1" transform="matrix(29.5403108 -3.7870634 9.28136272 72.39760992 693.728492 311.212904)"/><ellipse fill="#46575e" rx="1" ry="1" transform="matrix(-.03789512 -3.99982048 66.7835148 -.63272104 616.331544 199.130448)"/><ellipse fill="#647278" rx="1" ry="1" transform="matrix(31.38027088 -1.03794832 .13223352 3.99781368 499.62694 481.860956)"/><ellipse fill="#1a2429" rx="1" ry="1" transform="matrix(39.53179044 -146.64768496 3.86213412 1.0411148 697.925436 94.806704)"/><ellipse fill="#8fc7c4" rx="1" ry="1" transform="matrix(-11.00616796 -1.95868692 .70083912 -3.93812448 472.500276 374.56514)"/></g></svg>