<svg xmlns="http://www.w3.org/2000/svg" version="1.1" width="1024" height="680">
<rect x="0" y="0" width="1024" height="680" fill="#7aaaac" />
<g transform="scale(4.000000) translate(0.5 0.5)">
<g transform="translate(117.401944 103.942573) rotate(345.101880) scale(21.424426 180.622058)"><ellipse fill="#404f56" fill-opacity="0.501961" cx="0" cy="0" rx="1" ry="1" /></g>
<g transform="translate(169.080249 6.808966) rotate(102.717629) scale(125.358559 11.537733)"><ellipse fill="#25363e" fill-opacity="0.501961" cx="0" cy="0" rx="1" ry="1" /></g>
<g transform="translate(220.068292 169.000000) rotate(256.033980) scale(94.405164 71.650735)"><ellipse fill="#aee3dc" fill-opacity="0.501961" cx="0" cy="0" rx="1" ry="1" /></g>
<g transform="translate(39.569788 146.594731) rotate(-2.439379) scale(65.143595 73.487758)"><ellipse fill="#ade1db" fill-opacity="0.501961" cx="0" cy="0" rx="1" ry="1" /></g>
<g transform="translate(120.329053 37.652685) rotate(82.292962) scale(92.085350 21.418454)"><ellipse fill="#71a6aa" fill-opacity="0.501961" cx="0" cy="0" rx="1" ry="1" /></g>
<g transform="translate(89.403100 32.996434) rotate(348.763844) scale(9.711596 66.979378)"><ellipse fill="#303b42" fill-opacity="0.501961" cx="0" cy="0" rx="1" ry="1" /></g>
<g transform="translate(128.336228 142.451764) rotate(307.651505) scale(32.149904 13.911363)"><ellipse fill="#444b52" fill-opacity="0.501961" cx="0" cy="0" rx="1" ry="1" /></g>
<g transform="translate(124.848905 31.820354) rotate(268.234393) scale(111.263553 22.820929)"><ellipse fill="#6d9a9d" fill-opacity="0.501961" cx="0" cy="0" rx="1" ry="1" /></g>
<g transform="translate(156.959732 26.069400) rotate(99.050789) scale(87.156818 1.358194)"><ellipse fill="#101418" fill-opacity="0.501961" cx="0" cy="0" rx="1" ry="1" /></g>
<g transform="translate(173.946131 22.805275) rotate(12.999813) scale(1.871735 46.803150)"><ellipse fill="#000001" fill-opacity="0.501961" cx="0" cy="0" rx="1" ry="1" /></g>
<g transform="translate(155.639400 113.202556) rotate(-1.251211) scale(4.783815 38.149723)"><ellipse fill="#99cac7" fill-opacity="0.501961" cx="0" cy="0" rx="1" ry="1" /></g>
<g transform="translate(168.074019 18.308635) rotate(185.272075) scale(4.369356 28.322005)"><ellipse fill="#7fc4cb" fill-opacity="0.501961" cx="0" cy="0" rx="1" ry="1" /></g>
<g transform="translate(83.880378 0.000000) rotate(172.672537) scale(3.120644 39.962725)"><ellipse fill="#8cb5c1" fill-opacity="0.501961" cx="0" cy="0" rx="1" ry="1" /></g>
<g transform="translate(107.608181 135.285284) rotate(79.046192) scale(44.808440 3.379917)"><ellipse fill="#363b42" fill-opacity="0.501961" cx="0" cy="0" rx="1" ry="1" /></g>
<g transform="translate(41.907525 85.054305) rotate(117.544771) scale(36.458609 59.050921)"><ellipse fill="#82babc" fill-opacity="0.501961" cx="0" cy="0" rx="1" ry="1" /></g>
<g transform="translate(221.287408 78.914268) rotate(448.245472) scale(37.585681 58.183489)"><ellipse fill="#80b9bc" fill-opacity="0.501961" cx="0" cy="0" rx="1" ry="1" /></g>
<g transform="translate(138.895589 9.999251) rotate(53.775858) scale(1.000000 68.011760)"><ellipse fill="#203945" fill-opacity="0.501961" cx="0" cy="0" rx="1" ry="1" /></g>
<g transform="translate(76.689897 13.654934) rotate(76.136000) scale(84.758564 1.000000)"><ellipse fill="#090a0b" fill-opacity="0.501961" cx="0" cy="0" rx="1" ry="1" /></g>
<g transform="translate(130.376807 153.374337) rotate(256.279351) scale(4.679042 17.518425)"><ellipse fill="#212b34" fill-opacity="0.501961" cx="0" cy="0" rx="1" ry="1" /></g>
<g transform="translate(173.363547 169.000000) rotate(12.417462) scale(32.571525 40.353607)"><ellipse fill="#a4d1cd" fill-opacity="0.501961" cx="0" cy="0" rx="1" ry="1" /></g>
<g transform="translate(222.150665 14.902096) rotate(269.877508) scale(34.912987 42.040635)"><ellipse fill="#61a5ae" fill-opacity="0.501961" cx="0" cy="0" rx="1" ry="1" /></g>
<g transform="translate(161.748413 20.231728) rotate(272.730011) scale(65.139067 1.955526)"><ellipse fill="#1f2c35" fill-opacity="0.501961" cx="0" cy="0" rx="1" ry="1" /></g>
<g transform="translate(28.250837 16.273105) rotate(100.671286) scale(37.672674 47.548552)"><ellipse fill="#63a6af" fill-opacity="0.501961" cx="0" cy="0" rx="1" ry="1" /></g>
<g transform="translate(49.671139 169.000000) rotate(176.096458) scale(60.961245 54.477475)"><ellipse fill="#a1d0cb" fill-opacity="0.501961" cx="0" cy="0" rx="1" ry="1" /></g>
<g transform="translate(126.003502 55.416147) rotate(51.825745) scale(23.892628 25.660315)"><ellipse fill="#709b9e" fill-opacity="0.501961" cx="0" cy="0" rx="1" ry="1" /></g>
<g transform="translate(93.816046 22.394426) rotate(85.274290) scale(23.456944 1.896052)"><ellipse fill="#0e1b22" fill-opacity="0.501961" cx="0" cy="0" rx="1" ry="1" /></g>
<g transform="translate(148.933889 110.616532) rotate(183.211931) scale(2.171796 35.729575)"><ellipse fill="#30383b" fill-opacity="0.501961" cx="0" cy="0" rx="1" ry="1" /></g>
<g transform="translate(116.255374 38.849491) rotate(360.362248) scale(37.665187 1.000000)"><ellipse fill="#32454e" fill-opacity="0.501961" cx="0" cy="0" rx="1" ry="1" /></g>
<g transform="translate(126.126806 169.000000) rotate(238.745459) scale(11.212900 8.149433)"><ellipse fill="#84a0a3" fill-opacity="0.501961" cx="0" cy="0" rx="1" ry="1" /></g>
<g transform="translate(137.491349 169.000000) rotate(286.937748) scale(46.892463 1.518653)"><ellipse fill="#2e3436" fill-opacity="0.501961" cx="0" cy="0" rx="1" ry="1" /></g>
<g transform="translate(106.698945 127.284964) rotate(84.575546) scale(31.571804 4.768602)"><ellipse fill="#3d4a4f" fill-opacity="0.501961" cx="0" cy="0" rx="1" ry="1" /></g>
<g transform="translate(90.510793 98.591136) rotate(338.668709) scale(4.997023 27.492638)"><ellipse fill="#91c6c3" fill-opacity="0.501961" cx="0" cy="0" rx="1" ry="1" /></g>
<g transform="translate(126.177465 155.408132) rotate(286.796302) scale(3.170262 12.876046)"><ellipse fill="#172128" fill-opacity="0.501961" cx="0" cy="0" rx="1" ry="1" /></g>
<g transform="translate(76.033449 3.621129) rotate(166.908665) scale(1.109800 51.904172)"><ellipse fill="#0e1113" fill-opacity="0.501961" cx="0" cy="0" rx="1" ry="1" /></g>
<g transform="translate(169.655111 43.489936) rotate(285.215952) scale(47.062028 1.000000)"><ellipse fill="#08090c" fill-opacity="0.501961" cx="0" cy="0" rx="1" ry="1" /></g>
<g transform="translate(126.765516 100.200940) rotate(335.788729) scale(27.290124 1.000000)"><ellipse fill="#3f5153" fill-opacity="0.501961" cx="0" cy="0" rx="1" ry="1" /></g>
<g transform="translate(225.282846 169.000000) rotate(109.742552) scale(31.822616 82.902674)"><ellipse fill="#a0cfcb" fill-opacity="0.501961" cx="0" cy="0" rx="1" ry="1" /></g>
<g transform="translate(113.683721 111.057089) rotate(86.934001) scale(28.824306 3.642467)"><ellipse fill="#83aba9" fill-opacity="0.501961" cx="0" cy="0" rx="1" ry="1" /></g>
<g transform="translate(126.753965 55.837169) rotate(180.069783) scale(2.190657 37.566345)"><ellipse fill="#5b7074" fill-opacity="0.501961" cx="0" cy="0" rx="1" ry="1" /></g>
<g transform="translate(110.250778 61.107466) rotate(309.018976) scale(8.473697 8.983521)"><ellipse fill="#84bec0" fill-opacity="0.501961" cx="0" cy="0" rx="1" ry="1" /></g>
<g transform="translate(182.650170 107.863004) rotate(83.405035) scale(30.644603 31.965357)"><ellipse fill="#8ec1c0" fill-opacity="0.501961" cx="0" cy="0" rx="1" ry="1" /></g>
<g transform="translate(98.645369 82.038328) rotate(264.977136) scale(23.450589 1.000000)"><ellipse fill="#869aa0" fill-opacity="0.501961" cx="0" cy="0" rx="1" ry="1" /></g>
<g transform="translate(112.873075 82.957491) rotate(358.336722) scale(7.791857 7.593387)"><ellipse fill="#8dc1bf" fill-opacity="0.501961" cx="0" cy="0" rx="1" ry="1" /></g>
<g transform="translate(35.304628 68.451670) rotate(353.993025) scale(52.169405 27.484382)"><ellipse fill="#7db5b8" fill-opacity="0.501961" cx="0" cy="0" rx="1" ry="1" /></g>
<g transform="translate(155.001673 69.192267) rotate(181.941185) scale(2.770477 9.352899)"><ellipse fill="#89b1b5" fill-opacity="0.501961" cx="0" cy="0" rx="1" ry="1" /></g>
<g transform="translate(131.456736 49.305465) rotate(-0.937388) scale(39.913462 1.000000)"><ellipse fill="#444c54" fill-opacity="0.501961" cx="0" cy="0" rx="1" ry="1" /></g>
<g transform="translate(112.128192 2.259368) rotate(201.247760) scale(9.910428 33.578045)"><ellipse fill="#68acb5" fill-opacity="0.501961" cx="0" cy="0" rx="1" ry="1" /></g>
<g transform="translate(159.159673 78.676016) rotate(369.146345) scale(3.280793 8.823146)"><ellipse fill="#292f35" fill-opacity="0.501961" cx="0" cy="0" rx="1" ry="1" /></g>
<g transform="translate(106.016322 98.907284) rotate(350.972218) scale(1.000000 110.140749)"><ellipse fill="#2f3c42" fill-opacity="0.501961" cx="0" cy="0" rx="1" ry="1" /></g>
<g transform="translate(172.374063 7.859454) rotate(10.053572) scale(3.055291 19.174220)"><ellipse fill="#6fb5bb" fill-opacity="0.501961" cx="0" cy="0" rx="1" ry="1" /></g>
<g transform="translate(118.847795 91.332199) rotate(88.644172) scale(1.000000 28.174291)"><ellipse fill="#354147" fill-opacity="0.501961" cx="0" cy="0" rx="1" ry="1" /></g>
<g transform="translate(138.173634 113.266594) rotate(183.260795) scale(2.797137 25.254083)"><ellipse fill="#87b0ad" fill-opacity="0.501961" cx="0" cy="0" rx="1" ry="1" /></g>
<g transform="translate(138.484475 76.957155) rotate(105.898690) scale(8.017575 10.172480)"><ellipse fill="#87b7b7" fill-opacity="0.501961" cx="0" cy="0" rx="1" ry="1" /></g>
<g transform="translate(159.618033 24.683611) rotate(284.680815) scale(10.655742 2.751306)"><ellipse fill="#122025" fill-opacity="0.501961" cx="0" cy="0" rx="1" ry="1" /></g>
<g transform="translate(217.189361 63.141532) rotate(3.346911) scale(49.801010 31.251467)"><ellipse fill="#7bb3b7" fill-opacity="0.501961" cx="0" cy="0" rx="1" ry="1" /></g>
<g transform="translate(113.622527 11.436649) rotate(123.566406) scale(1.000000 57.118989)"><ellipse fill="#4e6d77" fill-opacity="0.501961" cx="0" cy="0" rx="1" ry="1" /></g>
<g transform="translate(146.718743 159.259472) rotate(87.259317) scale(28.466206 1.000000)"><ellipse fill="#475260" fill-opacity="0.501961" cx="0" cy="0" rx="1" ry="1" /></g>
<g transform="translate(130.237308 69.110135) rotate(360.091861) scale(35.783989 1.000000)"><ellipse fill="#475459" fill-opacity="0.501961" cx="0" cy="0" rx="1" ry="1" /></g>
<g transform="translate(136.777665 53.022117) rotate(51.004888) scale(1.000000 33.181598)"><ellipse fill="#45595e" fill-opacity="0.501961" cx="0" cy="0" rx="1" ry="1" /></g>
<g transform="translate(126.509635 136.808697) rotate(231.135475) scale(24.184725 4.788632)"><ellipse fill="#5b6770" fill-opacity="0.501961" cx="0" cy="0" rx="1" ry="1" /></g>
<g transform="translate(106.286338 166.312466) rotate(-2.104070) scale(1.000000 17.130644)"><ellipse fill="#4b5166" fill-opacity="0.501961" cx="0" cy="0" rx="1" ry="1" /></g>
<g transform="translate(140.866466 107.433422) rotate(175.869970) scale(5.122255 1.000000)"><ellipse fill="#202c2e" fill-opacity="0.501961" cx="0" cy="0" rx="1" ry="1" /></g>
<g transform="translate(84.297446 13.640454) rotate(83.574767) scale(27.553312 3.602212)"><ellipse fill="#6e8b95" fill-opacity="0.501961" cx="0" cy="0" rx="1" ry="1" /></g>
<g transform="translate(174.843838 21.993991) rotate(108.764460) scale(22.859641 1.726155)"><ellipse fill="#19282c" fill-opacity="0.501961" cx="0" cy="0" rx="1" ry="1" /></g>
<g transform="translate(154.286840 0.882155) rotate(236.053654) scale(1.000000 77.086056)"><ellipse fill="#32535d" fill-opacity="0.501961" cx="0" cy="0" rx="1" ry="1" /></g>
<g transform="translate(85.221217 63.904701) rotate(167.402709) scale(1.487186 40.004224)"><ellipse fill="#7dbaba" fill-opacity="0.501961" cx="0" cy="0" rx="1" ry="1" /></g>
<g transform="translate(154.308234 84.863931) rotate(179.828640) scale(2.405239 24.867268)"><ellipse fill="#86b5b7" fill-opacity="0.501961" cx="0" cy="0" rx="1" ry="1" /></g>
<g transform="translate(112.871473 114.046251) rotate(46.894962) scale(4.543032 4.272284)"><ellipse fill="#98cecb" fill-opacity="0.501961" cx="0" cy="0" rx="1" ry="1" /></g>
<g transform="translate(151.894963 19.614375) rotate(176.345926) scale(4.050270 15.424636)"><ellipse fill="#60a4ad" fill-opacity="0.501961" cx="0" cy="0" rx="1" ry="1" /></g>
<g transform="translate(150.448231 40.127191) rotate(280.240706) scale(1.689481 6.213737)"><ellipse fill="#2b3d45" fill-opacity="0.501961" cx="0" cy="0" rx="1" ry="1" /></g>
<g transform="translate(145.065380 60.046663) rotate(206.573973) scale(4.008483 9.099870)"><ellipse fill="#81bcbf" fill-opacity="0.501961" cx="0" cy="0" rx="1" ry="1" /></g>
<g transform="translate(99.999165 38.507983) rotate(46.315336) scale(8.839517 1.000000)"><ellipse fill="#243036" fill-opacity="0.501961" cx="0" cy="0" rx="1" ry="1" /></g>
<g transform="translate(136.685405 169.810275) rotate(179.894452) scale(2.806675 9.834400)"><ellipse fill="#2b343e" fill-opacity="0.501961" cx="0" cy="0" rx="1" ry="1" /></g>
<g transform="translate(166.143090 11.314359) rotate(184.454440) scale(1.795022 48.881523)"><ellipse fill="#73a7ac" fill-opacity="0.501961" cx="0" cy="0" rx="1" ry="1" /></g>
<g transform="translate(75.275070 7.186279) rotate(256.810661) scale(95.066343 1.241376)"><ellipse fill="#252f31" fill-opacity="0.501961" cx="0" cy="0" rx="1" ry="1" /></g>
<g transform="translate(146.535984 90.673904) rotate(340.333297) scale(4.402189 3.686510)"><ellipse fill="#253136" fill-opacity="0.501961" cx="0" cy="0" rx="1" ry="1" /></g>
<g transform="translate(109.877529 98.541219) rotate(147.356818) scale(1.256885 4.523760)"><ellipse fill="#9fdfda" fill-opacity="0.501961" cx="0" cy="0" rx="1" ry="1" /></g>
<g transform="translate(112.396858 107.379309) rotate(182.071649) scale(15.260983 1.000000)"><ellipse fill="#3d4d52" fill-opacity="0.501961" cx="0" cy="0" rx="1" ry="1" /></g>
<g transform="translate(40.869042 118.245519) rotate(176.959200) scale(59.167545 19.866924)"><ellipse fill="#91c4c2" fill-opacity="0.501961" cx="0" cy="0" rx="1" ry="1" /></g>
<g transform="translate(146.090607 118.638385) rotate(180.496505) scale(1.000000 9.234299)"><ellipse fill="#8299a4" fill-opacity="0.501961" cx="0" cy="0" rx="1" ry="1" /></g>
<g transform="translate(133.822771 115.935657) rotate(132.082276) scale(1.000000 18.401549)"><ellipse fill="#536569" fill-opacity="0.501961" cx="0" cy="0" rx="1" ry="1" /></g>
<g transform="translate(93.062856 59.665576) rotate(179.036328) scale(1.727060 29.398772)"><ellipse fill="#2b373f" fill-opacity="0.501961" cx="0" cy="0" rx="1" ry="1" /></g>
<g transform="translate(118.116464 72.910246) rotate(-1.331465) scale(23.200729 2.230174)"><ellipse fill="#7aa2a3" fill-opacity="0.501961" cx="0" cy="0" rx="1" ry="1" /></g>
<g transform="translate(230.994683 91.671868) rotate(85.752656) scale(19.468798 80.486135)"><ellipse fill="#8abdbc" fill-opacity="0.501961" cx="0" cy="0" rx="1" ry="1" /></g>
<g transform="translate(98.029613 14.796506) rotate(173.058554) scale(2.742046 21.238120)"><ellipse fill="#6aacb1" fill-opacity="0.501961" cx="0" cy="0" rx="1" ry="1" /></g>
<g transform="translate(103.756256 70.185207) rotate(92.452111) scale(2.273403 5.183227)"><ellipse fill="#303e44" fill-opacity="0.501961" cx="0" cy="0" rx="1" ry="1" /></g>
<g transform="translate(105.210176 91.009952) rotate(203.826863) scale(2.745807 2.536185)"><ellipse fill="#1a262a" fill-opacity="0.501961" cx="0" cy="0" rx="1" ry="1" /></g>
<g transform="translate(114.657652 134.959140) rotate(352.423892) scale(1.781705 11.571181)"><ellipse fill="#80a6a6" fill-opacity="0.501961" cx="0" cy="0" rx="1" ry="1" /></g>
<g transform="translate(112.233207 54.751225) rotate(104.931972) scale(3.420582 11.925427)"><ellipse fill="#7fb8bb" fill-opacity="0.501961" cx="0" cy="0" rx="1" ry="1" /></g>
<g transform="translate(109.462928 149.211041) rotate(256.624539) scale(30.849588 1.000000)"><ellipse fill="#2e383b" fill-opacity="0.501961" cx="0" cy="0" rx="1" ry="1" /></g>
<g transform="translate(128.481784 143.885717) rotate(188.201090) scale(11.453064 2.921301)"><ellipse fill="#3a4d57" fill-opacity="0.501961" cx="0" cy="0" rx="1" ry="1" /></g>
<g transform="translate(96.518972 158.744153) rotate(187.096228) scale(8.528415 26.921816)"><ellipse fill="#9ecdc8" fill-opacity="0.501961" cx="0" cy="0" rx="1" ry="1" /></g>
<g transform="translate(154.422184 44.428042) rotate(9.264379) scale(1.323202 66.302867)"><ellipse fill="#263237" fill-opacity="0.501961" cx="0" cy="0" rx="1" ry="1" /></g>
<g transform="translate(132.689610 116.447091) rotate(264.809868) scale(78.623030 1.000000)"><ellipse fill="#566a6f" fill-opacity="0.501961" cx="0" cy="0" rx="1" ry="1" /></g>
<g transform="translate(136.249449 111.991295) rotate(297.602240) scale(2.638820 6.676245)"><ellipse fill="#94c2bf" fill-opacity="0.501961" cx="0" cy="0" rx="1" ry="1" /></g>
<g transform="translate(138.176106 99.005615) rotate(4.217073) scale(5.522118 1.874174)"><ellipse fill="#98cfcb" fill-opacity="0.501961" cx="0" cy="0" rx="1" ry="1" /></g>
<g transform="translate(164.599684 4.258236) rotate(92.067362) scale(59.997636 1.000000)"><ellipse fill="#6a989e" fill-opacity="0.501961" cx="0" cy="0" rx="1" ry="1" /></g>
<g transform="translate(138.421659 114.328061) rotate(-105.754746) scale(4.100876 3.531402)"><ellipse fill="#95c9c6" fill-opacity="0.501961" cx="0" cy="0" rx="1" ry="1" /></g>
<g transform="translate(156.032665 10.017922) rotate(7.399216) scale(1.132251 24.799677)"><ellipse fill="#6badb3" fill-opacity="0.501961" cx="0" cy="0" rx="1" ry="1" /></g>
<g transform="translate(126.643377 129.531321) rotate(180.010949) scale(24.785280 1.000000)"><ellipse fill="#465159" fill-opacity="0.501961" cx="0" cy="0" rx="1" ry="1" /></g>
<g transform="translate(111.270791 146.990883) rotate(350.733532) scale(1.000000 40.163912)"><ellipse fill="#576e7b" fill-opacity="0.501961" cx="0" cy="0" rx="1" ry="1" /></g>
<g transform="translate(161.781164 71.891966) rotate(287.444448) scale(13.725209 1.970010)"><ellipse fill="#222c30" fill-opacity="0.501961" cx="0" cy="0" rx="1" ry="1" /></g>
<g transform="translate(109.428238 107.533131) rotate(270.084310) scale(1.097717 3.807848)"><ellipse fill="#101d21" fill-opacity="0.501961" cx="0" cy="0" rx="1" ry="1" /></g>
<g transform="translate(147.220171 133.522726) rotate(103.740570) scale(15.040124 1.000000)"><ellipse fill="#1b2220" fill-opacity="0.501961" cx="0" cy="0" rx="1" ry="1" /></g>
<g transform="translate(149.323666 98.479252) rotate(359.919994) scale(1.757378 30.382863)"><ellipse fill="#37474e" fill-opacity="0.501961" cx="0" cy="0" rx="1" ry="1" /></g>
<g transform="translate(125.068486 122.812448) rotate(275.208707) scale(1.000000 9.020585)"><ellipse fill="#95bfba" fill-opacity="0.501961" cx="0" cy="0" rx="1" ry="1" /></g>
<g transform="translate(37.471895 169.000000) rotate(268.882579) scale(18.395980 66.651480)"><ellipse fill="#a2d2cd" fill-opacity="0.501961" cx="0" cy="0" rx="1" ry="1" /></g>
<g transform="translate(229.842364 163.536766) rotate(358.973605) scale(80.977820 17.320048)"><ellipse fill="#a0d0cc" fill-opacity="0.501961" cx="0" cy="0" rx="1" ry="1" /></g>
<g transform="translate(105.405494 132.362620) rotate(174.526152) scale(1.000000 8.892156)"><ellipse fill="#1f201a" fill-opacity="0.501961" cx="0" cy="0" rx="1" ry="1" /></g>
<g transform="translate(126.773820 31.716226) rotate(90.626675) scale(5.734489 11.642306)"><ellipse fill="#6eb0b6" fill-opacity="0.501961" cx="0" cy="0" rx="1" ry="1" /></g>
<g transform="translate(36.656133 43.694241) rotate(93.183821) scale(17.136753 45.834646)"><ellipse fill="#75adb2" fill-opacity="0.501961" cx="0" cy="0" rx="1" ry="1" /></g>
<g transform="translate(128.219237 104.880180) rotate(97.081961) scale(1.394824 7.917038)"><ellipse fill="#92c2bc" fill-opacity="0.501961" cx="0" cy="0" rx="1" ry="1" /></g>
<g transform="translate(138.367016 82.138829) rotate(192.990247) scale(8.434881 3.594758)"><ellipse fill="#86babb" fill-opacity="0.501961" cx="0" cy="0" rx="1" ry="1" /></g>
<g transform="translate(137.925576 75.924657) rotate(346.188871) scale(20.840943 2.060901)"><ellipse fill="#7ca5a6" fill-opacity="0.501961" cx="0" cy="0" rx="1" ry="1" /></g>
<g transform="translate(210.045444 38.897801) rotate(279.450628) scale(15.202521 36.453016)"><ellipse fill="#71aaaf" fill-opacity="0.501961" cx="0" cy="0" rx="1" ry="1" /></g>
<g transform="translate(76.856832 11.580628) rotate(165.626222) scale(1.963178 20.899385)"><ellipse fill="#1b272a" fill-opacity="0.501961" cx="0" cy="0" rx="1" ry="1" /></g>
<g transform="translate(147.805187 69.994542) rotate(247.128545) scale(3.579299 1.531036)"><ellipse fill="#29383e" fill-opacity="0.501961" cx="0" cy="0" rx="1" ry="1" /></g>
<g transform="translate(130.700537 5.837484) rotate(153.360501) scale(13.714957 7.625644)"><ellipse fill="#61a6b0" fill-opacity="0.501961" cx="0" cy="0" rx="1" ry="1" /></g>
<g transform="translate(30.772612 4.147652) rotate(184.402388) scale(42.876528 18.982233)"><ellipse fill="#66a2a9" fill-opacity="0.501961" cx="0" cy="0" rx="1" ry="1" /></g>
<g transform="translate(118.063271 44.465730) rotate(368.543486) scale(6.024677 3.180141)"><ellipse fill="#7cc0c5" fill-opacity="0.501961" cx="0" cy="0" rx="1" ry="1" /></g>
<g transform="translate(107.757386 92.236308) rotate(-12.801116) scale(3.425880 2.150492)"><ellipse fill="#25363b" fill-opacity="0.501961" cx="0" cy="0" rx="1" ry="1" /></g>
<g transform="translate(120.992382 86.699800) rotate(270.224118) scale(1.000000 27.815179)"><ellipse fill="#5b6f71" fill-opacity="0.501961" cx="0" cy="0" rx="1" ry="1" /></g>
<g transform="translate(153.480363 46.274630) rotate(342.708344) scale(7.335440 1.979846)"><ellipse fill="#698d95" fill-opacity="0.501961" cx="0" cy="0" rx="1" ry="1" /></g>
<g transform="translate(181.007368 138.926356) rotate(268.152684) scale(17.341222 33.014645)"><ellipse fill="#98cac6" fill-opacity="0.501961" cx="0" cy="0" rx="1" ry="1" /></g>
<g transform="translate(133.655362 155.810297) rotate(319.855337) scale(2.021757 4.615707)"><ellipse fill="#11171b" fill-opacity="0.501961" cx="0" cy="0" rx="1" ry="1" /></g>
<g transform="translate(144.166398 57.223136) rotate(60.175719) scale(7.584357 4.962083)"><ellipse fill="#7db8bc" fill-opacity="0.501961" cx="0" cy="0" rx="1" ry="1" /></g>
<g transform="translate(123.745171 94.921293) rotate(104.713052) scale(1.913375 8.089626)"><ellipse fill="#8abcb7" fill-opacity="0.501961" cx="0" cy="0" rx="1" ry="1" /></g>
<g transform="translate(92.740829 21.153134) rotate(267.678084) scale(25.540097 2.571868)"><ellipse fill="#25373f" fill-opacity="0.501961" cx="0" cy="0" rx="1" ry="1" /></g>
<g transform="translate(96.836634 72.679857) rotate(176.444672) scale(1.000000 39.541538)"><ellipse fill="#64757d" fill-opacity="0.501961" cx="0" cy="0" rx="1" ry="1" /></g>
<g transform="translate(57.229574 85.286416) rotate(73.517902) scale(17.907791 33.926863)"><ellipse fill="#86baba" fill-opacity="0.501961" cx="0" cy="0" rx="1" ry="1" /></g>
<g transform="translate(135.538997 44.042505) rotate(176.954838) scale(7.616685 3.870387)"><ellipse fill="#77b7bc" fill-opacity="0.501961" cx="0" cy="0" rx="1" ry="1" /></g>
<g transform="translate(121.086108 168.675378) rotate(340.758393) scale(3.665926 6.777758)"><ellipse fill="#81a3a5" fill-opacity="0.501961" cx="0" cy="0" rx="1" ry="1" /></g>
<g transform="translate(126.304498 46.924350) rotate(183.407317) scale(1.000000 21.850573)"><ellipse fill="#57676d" fill-opacity="0.501961" cx="0" cy="0" rx="1" ry="1" /></g>
<g transform="translate(157.892973 66.604071) rotate(278.017909) scale(8.327342 1.000000)"><ellipse fill="#38424d" fill-opacity="0.501961" cx="0" cy="0" rx="1" ry="1" /></g>
<g transform="translate(103.805900 106.891875) rotate(90.709476) scale(27.119686 1.000000)"><ellipse fill="#343e42" fill-opacity="0.501961" cx="0" cy="0" rx="1" ry="1" /></g>
<g transform="translate(115.507755 63.780608) rotate(156.134966) scale(8.391510 3.400917)"><ellipse fill="#82b5b7" fill-opacity="0.501961" cx="0" cy="0" rx="1" ry="1" /></g>
<g transform="translate(109.613194 99.799024) rotate(343.284920) scale(1.771660 6.380368)"><ellipse fill="#8dc5c1" fill-opacity="0.501961" cx="0" cy="0" rx="1" ry="1" /></g>
<g transform="translate(113.579763 158.609714) rotate(304.256024) scale(15.669237 1.000000)"><ellipse fill="#60757e" fill-opacity="0.501961" cx="0" cy="0" rx="1" ry="1" /></g>
<g transform="translate(126.488257 130.924224) rotate(98.124384) scale(3.998060 5.183483)"><ellipse fill="#797c84" fill-opacity="0.501961" cx="0" cy="0" rx="1" ry="1" /></g>
<g transform="translate(99.984895 58.238543) rotate(171.548957) scale(1.000000 51.143364)"><ellipse fill="#2c373b" fill-opacity="0.501961" cx="0" cy="0" rx="1" ry="1" /></g>
<g transform="translate(110.693810 119.585334) rotate(138.163397) scale(1.000000 3.028155)"><ellipse fill="#24373d" fill-opacity="0.501961" cx="0" cy="0" rx="1" ry="1" /></g>
<g transform="translate(93.328821 98.901224) rotate(74.728744) scale(32.252736 1.958552)"><ellipse fill="#8dc1c0" fill-opacity="0.501961" cx="0" cy="0" rx="1" ry="1" /></g>
<g transform="translate(138.167374 135.202236) rotate(72.380901) scale(2.637590 3.077247)"><ellipse fill="#8cb7b8" fill-opacity="0.501961" cx="0" cy="0" rx="1" ry="1" /></g>
<g transform="translate(109.761567 164.171553) rotate(349.864975) scale(1.000000 10.048305)"><ellipse fill="#99c6bf" fill-opacity="0.501961" cx="0" cy="0" rx="1" ry="1" /></g>
<g transform="translate(101.468651 51.315014) rotate(174.181777) scale(1.000000 9.826216)"><ellipse fill="#74a5a7" fill-opacity="0.501961" cx="0" cy="0" rx="1" ry="1" /></g>
<g transform="translate(224.026265 0.000000) rotate(261.774076) scale(16.623715 42.349665)"><ellipse fill="#66a2aa" fill-opacity="0.501961" cx="0" cy="0" rx="1" ry="1" /></g>
<g transform="translate(83.461928 5.634513) rotate(310.646136) scale(4.165700 6.253780)"><ellipse fill="#6c929d" fill-opacity="0.501961" cx="0" cy="0" rx="1" ry="1" /></g>
<g transform="translate(158.166328 23.540833) rotate(102.120030) scale(15.761351 2.429957)"><ellipse fill="#1a2b2f" fill-opacity="0.501961" cx="0" cy="0" rx="1" ry="1" /></g>
<g transform="translate(159.096233 11.300229) rotate(185.868998) scale(1.000000 28.825160)"><ellipse fill="#15272a" fill-opacity="0.501961" cx="0" cy="0" rx="1" ry="1" /></g>
<g transform="translate(172.847883 2.214001) rotate(9.790516) scale(3.893311 21.221308)"><ellipse fill="#68a4ab" fill-opacity="0.501961" cx="0" cy="0" rx="1" ry="1" /></g>
<g transform="translate(145.743873 66.746404) rotate(31.530602) scale(7.229399 1.000000)"><ellipse fill="#3f5458" fill-opacity="0.501961" cx="0" cy="0" rx="1" ry="1" /></g>
<g transform="translate(159.747600 84.630480) rotate(184.258886) scale(1.000000 3.798599)"><ellipse fill="#1e2a27" fill-opacity="0.501961" cx="0" cy="0" rx="1" ry="1" /></g>
<g transform="translate(112.595627 102.599814) rotate(72.421286) scale(2.058337 4.260917)"><ellipse fill="#91cac6" fill-opacity="0.501961" cx="0" cy="0" rx="1" ry="1" /></g>
<g transform="translate(126.672529 39.200084) rotate(269.216903) scale(1.000000 30.842662)"><ellipse fill="#3f575f" fill-opacity="0.501961" cx="0" cy="0" rx="1" ry="1" /></g>
<g transform="translate(152.957574 86.358827) rotate(268.570741) scale(1.000000 5.330110)"><ellipse fill="#415659" fill-opacity="0.501961" cx="0" cy="0" rx="1" ry="1" /></g>
<g transform="translate(200.095839 76.663062) rotate(267.014611) scale(11.704821 36.494370)"><ellipse fill="#81b7b9" fill-opacity="0.501961" cx="0" cy="0" rx="1" ry="1" /></g>
<g transform="translate(138.680503 146.119828) rotate(276.388323) scale(41.579563 1.000000)"><ellipse fill="#43565e" fill-opacity="0.501961" cx="0" cy="0" rx="1" ry="1" /></g>
<g transform="translate(143.540372 91.753753) rotate(-34.639807) scale(6.120203 1.000000)"><ellipse fill="#25363a" fill-opacity="0.501961" cx="0" cy="0" rx="1" ry="1" /></g>
<g transform="translate(145.854176 109.949490) rotate(190.116784) scale(1.000000 6.907416)"><ellipse fill="#7f969f" fill-opacity="0.501961" cx="0" cy="0" rx="1" ry="1" /></g>
<g transform="translate(161.667616 98.194938) rotate(51.823824) scale(12.135487 8.257252)"><ellipse fill="#8bc1c0" fill-opacity="0.501961" cx="0" cy="0" rx="1" ry="1" /></g>
<g transform="translate(220.872282 111.915840) rotate(272.893634) scale(9.922385 69.625059)"><ellipse fill="#91c3c2" fill-opacity="0.501961" cx="0" cy="0" rx="1" ry="1" /></g>
<g transform="translate(120.451513 31.706224) rotate(335.081548) scale(12.619382 3.927083)"><ellipse fill="#70acb1" fill-opacity="0.501961" cx="0" cy="0" rx="1" ry="1" /></g>
<g transform="translate(121.595240 86.077774) rotate(6.686919) scale(1.000000 40.879897)"><ellipse fill="#5f7677" fill-opacity="0.501961" cx="0" cy="0" rx="1" ry="1" /></g>
<g transform="translate(150.450672 38.147630) rotate(146.404911) scale(1.000000 4.073606)"><ellipse fill="#2e4149" fill-opacity="0.501961" cx="0" cy="0" rx="1" ry="1" /></g>
<g transform="translate(160.901652 30.886025) rotate(3.009360) scale(1.000000 57.489720)"><ellipse fill="#2c3e47" fill-opacity="0.501961" cx="0" cy="0" rx="1" ry="1" /></g>
<g transform="translate(106.550295 77.177985) rotate(51.741376) scale(1.000000 16.558509)"><ellipse fill="#51656a" fill-opacity="0.501961" cx="0" cy="0" rx="1" ry="1" /></g>
<g transform="translate(142.246561 107.080866) rotate(119.654318) scale(1.000000 3.337010)"><ellipse fill="#1e292d" fill-opacity="0.501961" cx="0" cy="0" rx="1" ry="1" /></g>
<g transform="translate(180.049537 2.685973) rotate(289.704890) scale(14.316862 1.424833)"><ellipse fill="#091316" fill-opacity="0.501961" cx="0" cy="0" rx="1" ry="1" /></g>
<g transform="translate(139.570302 60.234174) rotate(52.720584) scale(3.556016 13.781288)"><ellipse fill="#7bb0b3" fill-opacity="0.501961" cx="0" cy="0" rx="1" ry="1" /></g>
<g transform="translate(147.497584 129.656113) rotate(9.407929) scale(1.000000 12.857869)"><ellipse fill="#212a29" fill-opacity="0.501961" cx="0" cy="0" rx="1" ry="1" /></g>
<g transform="translate(121.895142 73.501485) rotate(190.116463) scale(5.913577 3.593192)"><ellipse fill="#81b1b1" fill-opacity="0.501961" cx="0" cy="0" rx="1" ry="1" /></g>
<g transform="translate(108.204571 21.537228) rotate(451.342686) scale(6.527934 10.047724)"><ellipse fill="#6facb3" fill-opacity="0.501961" cx="0" cy="0" rx="1" ry="1" /></g>
<g transform="translate(112.566563 79.006881) rotate(118.168163) scale(3.763336 9.944533)"><ellipse fill="#81b5b6" fill-opacity="0.501961" cx="0" cy="0" rx="1" ry="1" /></g>
<g transform="translate(90.445546 55.961786) rotate(-8.335396) scale(1.141367 7.421896)"><ellipse fill="#667b82" fill-opacity="0.501961" cx="0" cy="0" rx="1" ry="1" /></g>
<g transform="translate(118.906714 15.062159) rotate(124.803477) scale(1.000000 61.822649)"><ellipse fill="#577780" fill-opacity="0.501961" cx="0" cy="0" rx="1" ry="1" /></g>
<g transform="translate(133.101468 94.226250) rotate(170.273704) scale(3.972628 1.656657)"><ellipse fill="#8fc6c1" fill-opacity="0.501961" cx="0" cy="0" rx="1" ry="1" /></g>
<g transform="translate(142.589380 169.000000) rotate(187.004383) scale(1.000000 18.006512)"><ellipse fill="#9ecec7" fill-opacity="0.501961" cx="0" cy="0" rx="1" ry="1" /></g>
<g transform="translate(146.620066 19.862094) rotate(94.632897) scale(12.438138 9.372938)"><ellipse fill="#68a7af" fill-opacity="0.501961" cx="0" cy="0" rx="1" ry="1" /></g>
<g transform="translate(145.754253 168.337223) rotate(55.296840) scale(29.290307 1.000000)"><ellipse fill="#5d7079" fill-opacity="0.501961" cx="0" cy="0" rx="1" ry="1" /></g>
<g transform="translate(164.212251 47.782899) rotate(-81.819128) scale(17.059008 1.318498)"><ellipse fill="#71a1a4" fill-opacity="0.501961" cx="0" cy="0" rx="1" ry="1" /></g>
<g transform="translate(132.264923 119.874902) rotate(86.546884) scale(32.976641 1.000000)"><ellipse fill="#566970" fill-opacity="0.501961" cx="0" cy="0" rx="1" ry="1" /></g>
<g transform="translate(246.611399 40.436040) rotate(83.953865) scale(13.170848 77.026349)"><ellipse fill="#74adb1" fill-opacity="0.501961" cx="0" cy="0" rx="1" ry="1" /></g>
<g transform="translate(0.755814 91.952896) rotate(105.015615) scale(21.144806 31.191183)"><ellipse fill="#89bdbc" fill-opacity="0.501961" cx="0" cy="0" rx="1" ry="1" /></g>
<g transform="translate(106.426925 140.573965) rotate(71.397808) scale(12.589625 1.000000)"><ellipse fill="#2e3532" fill-opacity="0.501961" cx="0" cy="0" rx="1" ry="1" /></g>
<g transform="translate(154.164629 67.999282) rotate(4.576003) scale(1.000000 12.853527)"><ellipse fill="#7faaae" fill-opacity="0.501961" cx="0" cy="0" rx="1" ry="1" /></g>
<g transform="translate(116.391446 97.573690) rotate(24.057699) scale(3.367456 1.000000)"><ellipse fill="#93cdc7" fill-opacity="0.501961" cx="0" cy="0" rx="1" ry="1" /></g>
<g transform="translate(144.737823 81.896955) rotate(359.899423) scale(1.000000 8.438464)"><ellipse fill="#81b5b5" fill-opacity="0.501961" cx="0" cy="0" rx="1" ry="1" /></g>
<g transform="translate(44.886481 74.452869) rotate(264.829439) scale(12.146673 43.396271)"><ellipse fill="#7fb5b8" fill-opacity="0.501961" cx="0" cy="0" rx="1" ry="1" /></g>
<g transform="translate(67.663710 91.429982) rotate(264.876794) scale(1.000000 31.848852)"><ellipse fill="#88baba" fill-opacity="0.501961" cx="0" cy="0" rx="1" ry="1" /></g>
<g transform="translate(111.339372 136.437013) rotate(280.463206) scale(4.250890 1.000000)"><ellipse fill="#6d858f" fill-opacity="0.501961" cx="0" cy="0" rx="1" ry="1" /></g>
<g transform="translate(112.857052 81.459572) rotate(362.419600) scale(8.170603 4.075204)"><ellipse fill="#87bfc0" fill-opacity="0.501961" cx="0" cy="0" rx="1" ry="1" /></g>
<g transform="translate(99.269115 24.117191) rotate(270.971479) scale(11.759084 1.523814)"><ellipse fill="#70a8ac" fill-opacity="0.501961" cx="0" cy="0" rx="1" ry="1" /></g>
<g transform="translate(106.180225 115.333389) rotate(90.447608) scale(5.406916 1.161824)"><ellipse fill="#768a93" fill-opacity="0.501961" cx="0" cy="0" rx="1" ry="1" /></g>
<g transform="translate(80.004429 6.117296) rotate(258.370054) scale(63.213093 1.000000)"><ellipse fill="#5e727a" fill-opacity="0.501961" cx="0" cy="0" rx="1" ry="1" /></g>
<g transform="translate(109.771315 121.485168) rotate(38.279741) scale(2.056117 2.527931)"><ellipse fill="#2e3e45" fill-opacity="0.501961" cx="0" cy="0" rx="1" ry="1" /></g>
<g transform="translate(98.801390 78.427049) rotate(175.602416) scale(1.000000 7.281188)"><ellipse fill="#8da3a6" fill-opacity="0.501961" cx="0" cy="0" rx="1" ry="1" /></g>
<g transform="translate(85.144047 124.147598) rotate(81.813507) scale(12.918192 16.638110)"><ellipse fill="#94c7c4" fill-opacity="0.501961" cx="0" cy="0" rx="1" ry="1" /></g>
<g transform="translate(144.823683 141.522609) rotate(101.386403) scale(27.001643 1.000000)"><ellipse fill="#313b3e" fill-opacity="0.501961" cx="0" cy="0" rx="1" ry="1" /></g>
<g transform="translate(136.324601 164.822638) rotate(89.898541) scale(18.832532 1.000000)"><ellipse fill="#2f3e49" fill-opacity="0.501961" cx="0" cy="0" rx="1" ry="1" /></g>
<g transform="translate(164.544623 0.000000) rotate(176.052414) scale(1.000000 42.815926)"><ellipse fill="#6a8a93" fill-opacity="0.501961" cx="0" cy="0" rx="1" ry="1" /></g>
<g transform="translate(166.163611 57.364969) rotate(193.807365) scale(1.000000 31.622793)"><ellipse fill="#1c2327" fill-opacity="0.501961" cx="0" cy="0" rx="1" ry="1" /></g>
<g transform="translate(180.731569 20.526460) rotate(18.352238) scale(2.540888 28.897689)"><ellipse fill="#67a4aa" fill-opacity="0.501961" cx="0" cy="0" rx="1" ry="1" /></g>
<g transform="translate(123.897241 156.652229) rotate(-55.979664) scale(3.123652 3.762316)"><ellipse fill="#1f2c32" fill-opacity="0.501961" cx="0" cy="0" rx="1" ry="1" /></g>
<g transform="translate(154.371919 20.090306) rotate(280.026109) scale(15.637441 1.545371)"><ellipse fill="#6da8ac" fill-opacity="0.501961" cx="0" cy="0" rx="1" ry="1" /></g>
<g transform="translate(151.485024 1.423277) rotate(143.498489) scale(45.659529 1.000000)"><ellipse fill="#3a5d66" fill-opacity="0.501961" cx="0" cy="0" rx="1" ry="1" /></g>
<g transform="translate(93.830193 83.665350) rotate(235.531171) scale(4.561472 1.352863)"><ellipse fill="#2c3233" fill-opacity="0.501961" cx="0" cy="0" rx="1" ry="1" /></g>
<g transform="translate(137.261539 120.256566) rotate(82.813445) scale(1.000000 5.835341)"><ellipse fill="#415056" fill-opacity="0.501961" cx="0" cy="0" rx="1" ry="1" /></g>
<g transform="translate(161.871107 49.873515) rotate(75.276773) scale(1.000000 5.781854)"><ellipse fill="#38484e" fill-opacity="0.501961" cx="0" cy="0" rx="1" ry="1" /></g>
<g transform="translate(76.082715 33.513550) rotate(259.835339) scale(16.378687 3.433275)"><ellipse fill="#6ba9af" fill-opacity="0.501961" cx="0" cy="0" rx="1" ry="1" /></g>
<g transform="translate(129.895242 57.752956) rotate(29.812230) scale(24.893908 1.000000)"><ellipse fill="#5a7377" fill-opacity="0.501961" cx="0" cy="0" rx="1" ry="1" /></g>
<g transform="translate(136.505944 99.995294) rotate(242.000457) scale(1.000000 11.949654)"><ellipse fill="#7fabaa" fill-opacity="0.501961" cx="0" cy="0" rx="1" ry="1" /></g>
<g transform="translate(139.128897 125.312697) rotate(4.628226) scale(1.000000 1.944973)"><ellipse fill="#98d0c9" fill-opacity="0.501961" cx="0" cy="0" rx="1" ry="1" /></g>
<g transform="translate(103.530366 69.252181) rotate(208.130002) scale(3.914284 1.000000)"><ellipse fill="#1a272e" fill-opacity="0.501961" cx="0" cy="0" rx="1" ry="1" /></g>
<g transform="translate(136.728341 78.217641) rotate(42.666222) scale(7.201216 3.996529)"><ellipse fill="#85bebf" fill-opacity="0.501961" cx="0" cy="0" rx="1" ry="1" /></g>
<g transform="translate(234.157302 142.408173) rotate(263.609169) scale(11.879676 48.614261)"><ellipse fill="#9bcbc7" fill-opacity="0.501961" cx="0" cy="0" rx="1" ry="1" /></g>
<g transform="translate(139.697985 100.854231) rotate(50.501912) scale(4.871256 1.513920)"><ellipse fill="#93cac7" fill-opacity="0.501961" cx="0" cy="0" rx="1" ry="1" /></g>
<g transform="translate(88.901707 43.136043) rotate(-12.458846) scale(2.206007 1.070606)"><ellipse fill="#6f8c93" fill-opacity="0.501961" cx="0" cy="0" rx="1" ry="1" /></g>
<g transform="translate(142.468073 107.702888) rotate(251.252753) scale(1.000000 2.397213)"><ellipse fill="#0f181d" fill-opacity="0.501961" cx="0" cy="0" rx="1" ry="1" /></g>
<g transform="translate(152.551889 39.031339) rotate(299.678860) scale(2.737956 1.783942)"><ellipse fill="#18262d" fill-opacity="0.501961" cx="0" cy="0" rx="1" ry="1" /></g>
<g transform="translate(133.385828 128.927817) rotate(19.926304) scale(14.837865 1.000000)"><ellipse fill="#54656c" fill-opacity="0.501961" cx="0" cy="0" rx="1" ry="1" /></g>
<g transform="translate(106.151178 155.876672) rotate(4.475767) scale(1.000000 14.255948)"><ellipse fill="#667c89" fill-opacity="0.501961" cx="0" cy="0" rx="1" ry="1" /></g>
<g transform="translate(135.294258 64.640609) rotate(305.690288) scale(3.026158 5.930914)"><ellipse fill="#7eb3b6" fill-opacity="0.501961" cx="0" cy="0" rx="1" ry="1" /></g>
<g transform="translate(149.218356 68.732096) rotate(338.630280) scale(2.878694 2.078090)"><ellipse fill="#152328" fill-opacity="0.501961" cx="0" cy="0" rx="1" ry="1" /></g>
<g transform="translate(127.272741 108.144395) rotate(176.842562) scale(9.179273 1.000000)"><ellipse fill="#566b6e" fill-opacity="0.501961" cx="0" cy="0" rx="1" ry="1" /></g>
<g transform="translate(125.363189 122.370695) rotate(259.946911) scale(1.000000 5.141951)"><ellipse fill="#9bcdc6" fill-opacity="0.501961" cx="0" cy="0" rx="1" ry="1" /></g>
<g transform="translate(140.384454 145.401104) rotate(8.800421) scale(1.527248 11.554140)"><ellipse fill="#5e727d" fill-opacity="0.501961" cx="0" cy="0" rx="1" ry="1" /></g>
<g transform="translate(121.487333 110.429795) rotate(232.641838) scale(1.000000 1.637569)"><ellipse fill="#aae1d9" fill-opacity="0.501961" cx="0" cy="0" rx="1" ry="1" /></g>
<g transform="translate(126.178421 49.419372) rotate(172.520651) scale(1.000000 3.527440)"><ellipse fill="#3c4a4c" fill-opacity="0.501961" cx="0" cy="0" rx="1" ry="1" /></g>
<g transform="translate(90.627683 70.884266) rotate(80.408735) scale(21.561882 1.000000)"><ellipse fill="#363e40" fill-opacity="0.501961" cx="0" cy="0" rx="1" ry="1" /></g>
<g transform="translate(129.283676 3.818112) rotate(170.536385) scale(18.679695 6.988528)"><ellipse fill="#67a3aa" fill-opacity="0.501961" cx="0" cy="0" rx="1" ry="1" /></g>
<g transform="translate(106.782019 77.075085) rotate(141.081426) scale(11.265869 1.000000)"><ellipse fill="#50666b" fill-opacity="0.501961" cx="0" cy="0" rx="1" ry="1" /></g>
<g transform="translate(124.813488 143.757587) rotate(252.322321) scale(1.000000 10.479258)"><ellipse fill="#384750" fill-opacity="0.501961" cx="0" cy="0" rx="1" ry="1" /></g>
<g transform="translate(101.049490 40.546137) rotate(231.730148) scale(4.028889 1.513114)"><ellipse fill="#30424d" fill-opacity="0.501961" cx="0" cy="0" rx="1" ry="1" /></g>
<g transform="translate(98.951051 40.148118) rotate(-20.862766) scale(3.940253 3.008746)"><ellipse fill="#2b3d45" fill-opacity="0.501961" cx="0" cy="0" rx="1" ry="1" /></g>
<g transform="translate(73.226250 146.051451) rotate(263.931930) scale(17.049281 32.504139)"><ellipse fill="#9acbc7" fill-opacity="0.501961" cx="0" cy="0" rx="1" ry="1" /></g>
<g transform="translate(127.082801 118.008737) rotate(89.861563) scale(1.000000 6.694510)"><ellipse fill="#92b7b3" fill-opacity="0.501961" cx="0" cy="0" rx="1" ry="1" /></g>
<g transform="translate(127.253417 26.677831) rotate(95.423622) scale(7.098852 1.000000)"><ellipse fill="#56727e" fill-opacity="0.501961" cx="0" cy="0" rx="1" ry="1" /></g>
<g transform="translate(169.739159 125.779212) rotate(113.037769) scale(15.718938 19.986763)"><ellipse fill="#94c6c4" fill-opacity="0.501961" cx="0" cy="0" rx="1" ry="1" /></g>
<g transform="translate(128.539357 165.100293) rotate(357.933084) scale(10.685268 1.000000)"><ellipse fill="#596c75" fill-opacity="0.501961" cx="0" cy="0" rx="1" ry="1" /></g>
<g transform="translate(121.857099 135.386455) rotate(311.639038) scale(12.590249 2.402863)"><ellipse fill="#6c7b81" fill-opacity="0.501961" cx="0" cy="0" rx="1" ry="1" /></g>
<g transform="translate(178.283023 10.531203) rotate(107.513492) scale(33.748129 1.000000)"><ellipse fill="#162125" fill-opacity="0.501961" cx="0" cy="0" rx="1" ry="1" /></g>
<g transform="translate(141.895287 169.000000) rotate(194.378299) scale(2.032265 2.292243)"><ellipse fill="#a3d6cb" fill-opacity="0.501961" cx="0" cy="0" rx="1" ry="1" /></g>
<g transform="translate(135.973672 139.710191) rotate(87.901596) scale(6.091454 1.000000)"><ellipse fill="#76979d" fill-opacity="0.501961" cx="0" cy="0" rx="1" ry="1" /></g>
<g transform="translate(114.086300 114.484659) rotate(59.703088) scale(3.197126 4.141925)"><ellipse fill="#98cdcb" fill-opacity="0.501961" cx="0" cy="0" rx="1" ry="1" /></g>
<g transform="translate(114.197171 130.513153) rotate(182.793501) scale(9.890901 1.103077)"><ellipse fill="#495960" fill-opacity="0.501961" cx="0" cy="0" rx="1" ry="1" /></g>
<g transform="translate(97.055940 47.840619) rotate(266.669087) scale(1.000000 8.220491)"><ellipse fill="#698891" fill-opacity="0.501961" cx="0" cy="0" rx="1" ry="1" /></g>
<g transform="translate(120.780732 154.500427) rotate(229.604498) scale(1.000000 5.177362)"><ellipse fill="#0f1a1e" fill-opacity="0.501961" cx="0" cy="0" rx="1" ry="1" /></g>
<g transform="translate(146.180698 147.416383) rotate(345.107480) scale(1.000000 5.488796)"><ellipse fill="#627884" fill-opacity="0.501961" cx="0" cy="0" rx="1" ry="1" /></g>
<g transform="translate(170.545671 1.911314) rotate(93.875136) scale(10.686171 5.759291)"><ellipse fill="#69a7ad" fill-opacity="0.501961" cx="0" cy="0" rx="1" ry="1" /></g>
<g transform="translate(106.560499 138.565783) rotate(333.804069) scale(1.000000 6.218448)"><ellipse fill="#1c1f1c" fill-opacity="0.501961" cx="0" cy="0" rx="1" ry="1" /></g>
<g transform="translate(145.371052 115.029534) rotate(354.550013) scale(1.000000 5.469795)"><ellipse fill="#859aa4" fill-opacity="0.501961" cx="0" cy="0" rx="1" ry="1" /></g>
<g transform="translate(88.538566 37.041409) rotate(251.810876) scale(2.969077 2.356874)"><ellipse fill="#78949a" fill-opacity="0.501961" cx="0" cy="0" rx="1" ry="1" /></g>
<g transform="translate(141.230135 120.771751) rotate(302.005667) scale(1.000000 1.579700)"><ellipse fill="#0a1318" fill-opacity="0.501961" cx="0" cy="0" rx="1" ry="1" /></g>
<g transform="translate(102.335769 82.423421) rotate(273.764799) scale(12.723171 1.000000)"><ellipse fill="#313c44" fill-opacity="0.501961" cx="0" cy="0" rx="1" ry="1" /></g>
<g transform="translate(110.181260 56.031494) rotate(73.454247) scale(5.732163 8.413257)"><ellipse fill="#79b1b5" fill-opacity="0.501961" cx="0" cy="0" rx="1" ry="1" /></g>
<g transform="translate(141.673454 99.874022) rotate(101.863837) scale(2.572858 2.226050)"><ellipse fill="#96ceca" fill-opacity="0.501961" cx="0" cy="0" rx="1" ry="1" /></g>
<g transform="translate(146.166031 14.215949) rotate(132.120297) scale(17.945556 4.823427)"><ellipse fill="#67a3ab" fill-opacity="0.501961" cx="0" cy="0" rx="1" ry="1" /></g>
<g transform="translate(97.606765 79.073523) rotate(362.118280) scale(1.795494 3.529414)"><ellipse fill="#788b93" fill-opacity="0.501961" cx="0" cy="0" rx="1" ry="1" /></g>
<g transform="translate(106.723991 24.779008) rotate(219.357054) scale(5.624059 11.854345)"><ellipse fill="#6fa9ae" fill-opacity="0.501961" cx="0" cy="0" rx="1" ry="1" /></g>
<g transform="translate(78.901743 17.016156) rotate(259.847859) scale(33.876520 1.000000)"><ellipse fill="#1b2225" fill-opacity="0.501961" cx="0" cy="0" rx="1" ry="1" /></g>
<g transform="translate(110.972254 169.909831) rotate(177.877387) scale(1.000000 4.630907)"><ellipse fill="#a2d4cb" fill-opacity="0.501961" cx="0" cy="0" rx="1" ry="1" /></g>
<g transform="translate(113.957338 94.898065) rotate(193.842629) scale(7.054364 1.000000)"><ellipse fill="#5e7c7f" fill-opacity="0.501961" cx="0" cy="0" rx="1" ry="1" /></g>
<g transform="translate(143.557539 145.194177) rotate(271.748209) scale(4.768102 1.000000)"><ellipse fill="#2a373d" fill-opacity="0.501961" cx="0" cy="0" rx="1" ry="1" /></g>
<g transform="translate(105.907865 123.781014) rotate(193.936765) scale(1.000000 5.736089)"><ellipse fill="#576c75" fill-opacity="0.501961" cx="0" cy="0" rx="1" ry="1" /></g>
<g transform="translate(81.930364 107.701809) rotate(362.201007) scale(16.485528 10.605898)"><ellipse fill="#8ec0bf" fill-opacity="0.501961" cx="0" cy="0" rx="1" ry="1" /></g>
<g transform="translate(68.185635 56.260004) rotate(340.172141) scale(16.453798 14.159040)"><ellipse fill="#79b0b5" fill-opacity="0.501961" cx="0" cy="0" rx="1" ry="1" /></g>
<g transform="translate(111.609603 30.266979) rotate(234.429937) scale(1.000000 31.732570)"><ellipse fill="#3e5962" fill-opacity="0.501961" cx="0" cy="0" rx="1" ry="1" /></g>
<g transform="translate(148.048073 169.000000) rotate(-8.422107) scale(1.000000 25.456824)"><ellipse fill="#647885" fill-opacity="0.501961" cx="0" cy="0" rx="1" ry="1" /></g>
<g transform="translate(75.748538 0.000000) rotate(257.804188) scale(83.518640 1.000000)"><ellipse fill="#252e31" fill-opacity="0.501961" cx="0" cy="0" rx="1" ry="1" /></g>
<g transform="translate(103.280141 46.332706) rotate(270.213048) scale(2.838175 2.935242)"><ellipse fill="#739ea3" fill-opacity="0.501961" cx="0" cy="0" rx="1" ry="1" /></g>
<g transform="translate(115.626780 127.013658) rotate(81.205744) scale(6.154887 1.000000)"><ellipse fill="#759999" fill-opacity="0.501961" cx="0" cy="0" rx="1" ry="1" /></g>
<g transform="translate(166.884379 55.023886) rotate(285.640473) scale(33.697604 1.000000)"><ellipse fill="#212c2f" fill-opacity="0.501961" cx="0" cy="0" rx="1" ry="1" /></g>
<g transform="translate(115.850491 136.802107) rotate(310.559788) scale(1.000000 2.704972)"><ellipse fill="#96c5c3" fill-opacity="0.501961" cx="0" cy="0" rx="1" ry="1" /></g>
<g transform="translate(150.564268 48.457535) rotate(277.283860) scale(5.504809 1.000000)"><ellipse fill="#77aeb1" fill-opacity="0.501961" cx="0" cy="0" rx="1" ry="1" /></g>
<g transform="translate(135.980037 134.325835) rotate(165.481876) scale(1.000000 3.429510)"><ellipse fill="#91bfbe" fill-opacity="0.501961" cx="0" cy="0" rx="1" ry="1" /></g>
<g transform="translate(135.359139 88.934922) rotate(270.527400) scale(1.000000 4.197994)"><ellipse fill="#94cac5" fill-opacity="0.501961" cx="0" cy="0" rx="1" ry="1" /></g>
<g transform="translate(151.646173 164.127112) rotate(263.324201) scale(11.455450 2.229167)"><ellipse fill="#a3d6d1" fill-opacity="0.501961" cx="0" cy="0" rx="1" ry="1" /></g>
<g transform="translate(147.496136 60.421647) rotate(357.668954) scale(2.148499 6.685794)"><ellipse fill="#7bb2b4" fill-opacity="0.501961" cx="0" cy="0" rx="1" ry="1" /></g>
<g transform="translate(138.238941 113.557106) rotate(57.170638) scale(3.300783 4.124047)"><ellipse fill="#8fc1bf" fill-opacity="0.501961" cx="0" cy="0" rx="1" ry="1" /></g>
<g transform="translate(165.063111 103.506342) rotate(102.680001) scale(11.646302 13.754093)"><ellipse fill="#8cbfbe" fill-opacity="0.501961" cx="0" cy="0" rx="1" ry="1" /></g>
<g transform="translate(140.476409 91.396159) rotate(277.099041) scale(1.000000 5.009451)"><ellipse fill="#3b4f56" fill-opacity="0.501961" cx="0" cy="0" rx="1" ry="1" /></g>
<g transform="translate(102.837241 73.009326) rotate(249.466441) scale(1.000000 7.894754)"><ellipse fill="#799499" fill-opacity="0.501961" cx="0" cy="0" rx="1" ry="1" /></g>
<g transform="translate(132.333208 132.777798) rotate(168.626076) scale(2.068140 5.605191)"><ellipse fill="#555e68" fill-opacity="0.501961" cx="0" cy="0" rx="1" ry="1" /></g>
<g transform="translate(62.650489 93.405533) rotate(186.639221) scale(33.674548 12.276320)"><ellipse fill="#89bdbc" fill-opacity="0.501961" cx="0" cy="0" rx="1" ry="1" /></g>
<g transform="translate(129.921936 153.775018) rotate(352.548078) scale(3.467861 2.498408)"><ellipse fill="#141e22" fill-opacity="0.501961" cx="0" cy="0" rx="1" ry="1" /></g>
<g transform="translate(124.660441 93.814945) rotate(241.041441) scale(2.400505 2.346424)"><ellipse fill="#88bcba" fill-opacity="0.501961" cx="0" cy="0" rx="1" ry="1" /></g>
<g transform="translate(223.801944 52.229143) rotate(-0.260293) scale(54.720513 8.945925)"><ellipse fill="#79afb3" fill-opacity="0.501961" cx="0" cy="0" rx="1" ry="1" /></g>
<g transform="translate(128.080961 122.951256) rotate(83.660652) scale(1.935549 4.638085)"><ellipse fill="#87abaa" fill-opacity="0.501961" cx="0" cy="0" rx="1" ry="1" /></g>
<g transform="translate(128.234983 7.042816) rotate(292.057577) scale(11.793903 6.578385)"><ellipse fill="#69a4ab" fill-opacity="0.501961" cx="0" cy="0" rx="1" ry="1" /></g>
<g transform="translate(125.562593 102.957266) rotate(170.160100) scale(2.325336 1.384668)"><ellipse fill="#94c9c3" fill-opacity="0.501961" cx="0" cy="0" rx="1" ry="1" /></g>
<g transform="translate(111.892172 117.185852) rotate(113.695173) scale(1.876791 1.310492)"><ellipse fill="#95cac7" fill-opacity="0.501961" cx="0" cy="0" rx="1" ry="1" /></g>
<g transform="translate(148.490162 27.964709) rotate(147.701894) scale(3.031649 9.595849)"><ellipse fill="#6ea7ad" fill-opacity="0.501961" cx="0" cy="0" rx="1" ry="1" /></g>
<g transform="translate(115.003064 140.500056) rotate(128.870539) scale(1.000000 3.889102)"><ellipse fill="#42555b" fill-opacity="0.501961" cx="0" cy="0" rx="1" ry="1" /></g>
<g transform="translate(136.990279 164.947014) rotate(336.759962) scale(1.311165 6.455129)"><ellipse fill="#344249" fill-opacity="0.501961" cx="0" cy="0" rx="1" ry="1" /></g>
<g transform="translate(71.595096 73.914453) rotate(59.900302) scale(15.611799 17.480701)"><ellipse fill="#80b6b8" fill-opacity="0.501961" cx="0" cy="0" rx="1" ry="1" /></g>
<g transform="translate(172.932123 77.303226) rotate(-7.305462) scale(7.445518 18.247530)"><ellipse fill="#82b8b9" fill-opacity="0.501961" cx="0" cy="0" rx="1" ry="1" /></g>
<g transform="translate(153.582886 49.282612) rotate(269.457184) scale(1.000000 16.696628)"><ellipse fill="#46575e" fill-opacity="0.501961" cx="0" cy="0" rx="1" ry="1" /></g>
<g transform="translate(124.406735 119.965239) rotate(358.105549) scale(7.849358 1.000000)"><ellipse fill="#647278" fill-opacity="0.501961" cx="0" cy="0" rx="1" ry="1" /></g>
<g transform="translate(173.981359 23.201676) rotate(285.086600) scale(37.970635 1.000000)"><ellipse fill="#1a2429" fill-opacity="0.501961" cx="0" cy="0" rx="1" ry="1" /></g>
<g transform="translate(117.625069 93.141285) rotate(190.090866) scale(2.794774 1.000000)"><ellipse fill="#8fc7c4" fill-opacity="0.501961" cx="0" cy="0" rx="1" ry="1" /></g>
</g>
</svg>