<svg xmlns="http://www.w3.org/2000/svg" version="1.1" width="1024" height="680">
<rect x="0" y="0" width="1024" height="680" fill="#7f8e97" />
<g transform="scale(4.000000) translate(0.5 0.5)">
<polygon fill="#ffffff" fill-opacity="0.501961" points="-16.000000,168.351527,244.177815,185.000000,271.000000,151.835782,27.265958,95.253484" />
<polygon fill="#1a384b" fill-opacity="0.501961" points="-16.000000,-3.263448,-13.562027,86.663474,260.405293,88.386397,257.529816,-15.633791" />
<polygon fill="#ffffff" fill-opacity="0.501961" points="-9.694344,132.591355,0.423881,185.000000,253.057863,169.028595,103.066846,134.035103" />
<polygon fill="#282521" fill-opacity="0.501961" points="194.324782,84.210281,116.903307,127.897234,176.413971,111.594866,204.930951,149.021759" />
<polygon fill="#fbfdfb" fill-opacity="0.501961" points="220.806058,107.816610,215.031901,117.703556,240.158595,185.000000,271.000000,122.858403" />
<polygon fill="#74858e" fill-opacity="0.501961" points="135.714298,-16.000000,60.184537,11.238184,170.853859,132.627469,155.262236,161.057650" />
<polygon fill="#152d3b" fill-opacity="0.501961" points="4.599547,-16.000000,-16.000000,83.857388,110.099036,83.499060,18.295679,35.934510" />
<polygon fill="#c0c8c4" fill-opacity="0.501961" points="119.196319,139.780491,23.452316,93.041356,207.286158,86.225007,148.177332,78.018709" />
<polygon fill="#1d3443" fill-opacity="0.501961" points="230.582506,115.021508,251.411917,97.641572,248.740883,-0.381839,236.032649,-3.016380" />
<polygon fill="#55544f" fill-opacity="0.501961" points="167.835304,156.613127,155.301286,155.257312,153.273013,116.823635,165.075454,75.879431" />
<polygon fill="#111318" fill-opacity="0.501961" points="199.645718,131.805620,201.329287,148.236581,201.580465,145.231305,187.115092,163.245253" />
<polygon fill="#fefefd" fill-opacity="0.501961" points="-16.000000,148.513146,225.309708,185.000000,201.451206,82.050180,202.272792,159.806848" />
<polygon fill="#2d4351" fill-opacity="0.501961" points="81.753317,-5.437467,93.020957,48.738850,109.903647,79.728135,88.444294,108.025119" />
<polygon fill="#1d1d1d" fill-opacity="0.501961" points="221.321728,157.322070,227.463049,158.620261,211.192912,108.709451,217.671551,141.505166" />
<polygon fill="#88a4b1" fill-opacity="0.501961" points="108.442144,42.527835,128.565885,70.353662,137.056580,5.875462,103.342160,8.720069" />
<polygon fill="#ffffff" fill-opacity="0.501961" points="165.034425,118.968267,180.674016,115.837943,166.576929,145.726015,206.455043,185.000000" />
<polygon fill="#a1b6bb" fill-opacity="0.501961" points="-14.685485,104.819347,76.702516,80.679686,92.426168,110.373866,-16.000000,136.341482" />
<polygon fill="#f6f9fb" fill-opacity="0.501961" points="118.231985,118.507117,-16.000000,162.245634,160.169958,185.000000,150.814228,131.501363" />
<polygon fill="#313639" fill-opacity="0.501961" points="191.719796,86.193724,175.619217,134.653397,200.596527,126.192877,196.095029,154.939143" />
<polygon fill="#7390a0" fill-opacity="0.501961" points="152.116990,-2.178950,169.281434,-16.000000,168.953695,37.680744,151.935106,78.552976" />
<polygon fill="#86a2b0" fill-opacity="0.501961" points="230.840183,62.602602,235.343830,-16.000000,224.634532,-3.482555,223.558645,46.450151" />
<polygon fill="#0a1c28" fill-opacity="0.501961" points="14.932538,-16.000000,-16.000000,4.307171,-4.087633,130.009569,9.105236,49.424902" />
<polygon fill="#bfbeb0" fill-opacity="0.501961" points="207.495314,79.311444,213.936224,92.151946,200.846558,131.663891,196.263522,116.108023" />
<polygon fill="#3c4650" fill-opacity="0.501961" points="150.522594,74.185306,148.744715,-16.000000,122.227075,96.904680,132.876611,82.319677" />
<polygon fill="#162935" fill-opacity="0.501961" points="34.712374,-11.713718,23.505600,60.697950,37.060841,104.211547,36.892012,104.940172" />
<polygon fill="#93958d" fill-opacity="0.501961" points="153.604142,118.129531,171.408186,96.496419,75.090032,102.454077,146.493563,74.706521" />
<polygon fill="#abbcc1" fill-opacity="0.501961" points="232.583608,137.979838,240.187261,85.464510,250.218712,126.746701,271.000000,82.470235" />
<polygon fill="#373938" fill-opacity="0.501961" points="213.296010,107.311080,150.620566,116.711245,158.290498,149.740803,159.662505,102.294145" />
<polygon fill="#fcffff" fill-opacity="0.501961" points="158.706881,185.000000,164.245698,157.002861,162.732516,142.351441,159.058787,138.848762" />
<polygon fill="#212e39" fill-opacity="0.501961" points="209.099381,88.529992,212.671482,90.120725,217.737862,88.679543,213.249072,-16.000000" />
<polygon fill="#405766" fill-opacity="0.501961" points="31.553162,75.182879,47.957951,26.155685,93.673449,75.472284,120.837971,98.712290" />
<polygon fill="#5a7c91" fill-opacity="0.501961" points="19.306836,-12.120114,12.587459,27.325384,18.652117,90.003528,30.764651,5.223454" />
<polygon fill="#6e8c9d" fill-opacity="0.501961" points="190.006233,21.020854,197.943564,-16.000000,204.034957,5.654499,197.852821,75.786176" />
<polygon fill="#d0d7db" fill-opacity="0.501961" points="-14.866214,136.114184,144.345609,143.977093,153.676263,128.543502,-13.005390,119.821910" />
<polygon fill="#081922" fill-opacity="0.501961" points="248.890234,91.993080,245.164214,12.892332,242.246981,89.981248,248.021424,103.676828" />
<polygon fill="#383f44" fill-opacity="0.501961" points="187.092689,116.177639,203.759374,91.255010,126.480745,126.324655,129.475572,109.959892" />
<polygon fill="#edeade" fill-opacity="0.501961" points="167.083037,125.120851,187.089443,122.479671,194.531946,126.594341,170.258528,113.368751" />
<polygon fill="#2f302f" fill-opacity="0.501961" points="203.286624,121.271016,220.566275,140.676838,220.426795,131.915163,220.378844,128.096504" />
<polygon fill="#b3c2c7" fill-opacity="0.501961" points="218.225051,85.495493,229.855266,150.952742,232.230569,87.244853,220.844840,78.572795" />
<polygon fill="#eff3f6" fill-opacity="0.501961" points="170.072771,122.982828,178.113938,185.000000,195.921991,137.551625,163.482263,131.459338" />
<polygon fill="#233b4a" fill-opacity="0.501961" points="79.953674,-16.000000,88.463507,73.905495,89.583772,-6.416407,91.627599,-3.230621" />
<polygon fill="#4f585d" fill-opacity="0.501961" points="136.949862,112.045850,165.592359,86.664732,163.326534,54.445773,145.566006,128.214663" />
<polygon fill="#668598" fill-opacity="0.501961" points="238.912060,97.792277,239.528090,-16.000000,244.875409,-1.226001,243.188870,51.158053" />
<polygon fill="#819da8" fill-opacity="0.501961" points="30.023555,80.656388,-16.000000,102.452661,32.897413,128.158553,22.476281,135.481142" />
<polygon fill="#373c42" fill-opacity="0.501961" points="202.661333,139.052479,202.832844,128.962752,187.936825,158.280594,194.657423,158.167820" />
<polygon fill="#1c2d39" fill-opacity="0.501961" points="254.172817,-16.000000,271.000000,179.843272,252.462656,84.827913,254.079669,65.606549" />
<polygon fill="#cfd2cc" fill-opacity="0.501961" points="206.099950,86.976205,214.883181,95.488827,209.813194,103.423575,191.054955,80.083028" />
<polygon fill="#e6e8ea" fill-opacity="0.501961" points="230.116894,185.000000,221.633364,132.257483,271.000000,147.856710,247.959514,185.000000" />
<polygon fill="#c0c6c4" fill-opacity="0.501961" points="149.413457,76.200931,131.675762,111.207922,126.293758,135.339453,98.633988,115.249828" />
<polygon fill="#2c414f" fill-opacity="0.501961" points="89.167854,110.200929,83.793822,70.549254,102.643990,83.019030,100.778805,29.366009" />
<polygon fill="#253743" fill-opacity="0.501961" points="174.329815,137.622780,171.810204,137.311307,186.254101,127.107315,175.290276,123.284877" />
<polygon fill="#4d555a" fill-opacity="0.501961" points="172.468059,157.467539,152.923127,128.082093,167.583416,134.587333,163.451613,152.709266" />
<polygon fill="#607c8c" fill-opacity="0.501961" points="84.760486,62.789982,74.544816,46.048939,34.402980,15.895086,83.427783,2.942297" />
<polygon fill="#b3bdbf" fill-opacity="0.501961" points="75.086832,89.646786,70.089476,72.568727,57.173755,122.771285,117.842409,119.740051" />
<polygon fill="#152733" fill-opacity="0.501961" points="231.784223,105.925049,237.815375,105.607804,236.820871,43.691057,234.546026,30.852614" />
<polygon fill="#262726" fill-opacity="0.501961" points="192.069849,126.141242,185.886708,120.891300,176.567461,101.534650,184.152055,83.794368" />
<polygon fill="#a49d8d" fill-opacity="0.501961" points="135.904331,80.404534,133.101560,113.880909,163.947868,100.411301,158.031303,115.239130" />
<polygon fill="#3e403d" fill-opacity="0.501961" points="117.533617,72.554274,117.242012,76.559736,152.030031,79.104679,138.671853,68.714167" />
<polygon fill="#4f6066" fill-opacity="0.501961" points="218.898893,90.622618,240.392234,59.962767,203.759720,115.588062,218.920449,109.932019" />
<polygon fill="#1b3241" fill-opacity="0.501961" points="44.471989,76.788171,52.674774,88.144752,51.697003,28.581448,48.400560,23.311239" />
<polygon fill="#626f76" fill-opacity="0.501961" points="192.190966,123.346918,191.007998,65.929161,191.007542,21.653942,203.785448,109.919211" />
<polygon fill="#83919b" fill-opacity="0.501961" points="174.194787,118.599456,178.941931,19.919185,178.550682,7.649510,174.423141,28.659481" />
<polygon fill="#e8ecee" fill-opacity="0.501961" points="217.875860,138.984119,226.322738,185.000000,192.506962,170.150795,201.384795,140.748834" />
<polygon fill="#859ca8" fill-opacity="0.501961" points="113.750192,70.202849,102.357455,53.339830,134.364430,53.913412,134.612913,-16.000000" />
<polygon fill="#435562" fill-opacity="0.501961" points="52.904417,71.355702,64.947398,97.113458,62.952718,9.929985,53.258249,53.224815" />
<polygon fill="#0a1822" fill-opacity="0.501961" points="8.775180,70.781819,4.128979,89.781136,3.512816,88.922820,0.331146,-16.000000" />
<polygon fill="#537284" fill-opacity="0.501961" points="44.673834,58.713862,43.775754,65.974216,34.725879,110.413326,38.413340,0.312326" />
<polygon fill="#f4f6f6" fill-opacity="0.501961" points="156.212756,148.570545,153.024182,133.836682,22.877222,185.000000,-16.000000,137.147069" />
<polygon fill="#6d8998" fill-opacity="0.501961" points="89.980010,57.250580,90.382692,9.533282,97.379743,23.549737,90.635902,92.659818" />
<polygon fill="#4d575c" fill-opacity="0.501961" points="134.029956,118.214923,147.293338,127.582406,141.169194,102.614944,164.039054,117.497840" />
<polygon fill="#203342" fill-opacity="0.501961" points="173.458930,-9.803552,174.501928,16.262941,171.654195,71.835461,170.467673,-8.397448" />
<polygon fill="#15242f" fill-opacity="0.501961" points="24.229883,75.576606,29.871736,58.553439,32.913272,8.641031,35.919438,92.666534" />
<polygon fill="#233b4b" fill-opacity="0.501961" points="201.098557,65.249613,201.002157,89.211259,205.045919,77.419106,204.893303,5.082046" />
<polygon fill="#b0bcc1" fill-opacity="0.501961" points="172.454996,91.196469,162.792026,90.412662,195.521331,83.543808,173.097471,80.129255" />
<polygon fill="#8a8880" fill-opacity="0.501961" points="176.600964,101.735861,177.024857,107.522928,136.635565,99.282063,146.483785,86.249960" />
<polygon fill="#f0f2f3" fill-opacity="0.501961" points="-16.000000,143.946965,159.678301,185.000000,159.978347,97.039727,161.176432,156.458970" />
<polygon fill="#30353a" fill-opacity="0.501961" points="222.308003,139.334180,213.223379,129.162835,221.306665,151.321353,223.701296,159.413997" />
<polygon fill="#97a8ae" fill-opacity="0.501961" points="248.463414,114.444768,271.000000,177.129870,238.052653,109.284494,237.960101,85.134414" />
<polygon fill="#243644" fill-opacity="0.501961" points="146.448644,-16.000000,151.963758,-1.702359,147.307971,61.522289,145.002793,66.561085" />
<polygon fill="#6d8898" fill-opacity="0.501961" points="210.832756,86.197471,206.342006,77.710746,209.135169,-16.000000,210.304627,60.724696" />
<polygon fill="#e8ecee" fill-opacity="0.501961" points="189.121766,153.864075,187.869002,126.731604,193.550680,130.689699,147.280357,179.775567" />
<polygon fill="#7c8f9a" fill-opacity="0.501961" points="154.713553,39.833258,154.401058,33.839232,169.306186,29.410835,170.070509,56.738105" />
<polygon fill="#393f45" fill-opacity="0.501961" points="153.204531,127.735296,147.616436,111.539326,155.747457,115.781361,156.486809,155.922241" />
<polygon fill="#d6dce1" fill-opacity="0.501961" points="89.709122,109.797837,130.643245,141.379509,126.587144,110.916577,60.844963,144.550431" />
<polygon fill="#3f4042" fill-opacity="0.501961" points="200.189095,127.894759,194.593720,144.723447,193.951648,144.045916,205.167222,136.890483" />
<polygon fill="#32414e" fill-opacity="0.501961" points="190.125079,50.882547,189.156006,95.679720,185.758964,33.535061,189.474645,-15.292279" />
<polygon fill="#b0bcbf" fill-opacity="0.501961" points="93.236975,87.945553,108.783155,136.659525,111.283643,83.450757,104.256557,101.497605" />
<polygon fill="#dce2e4" fill-opacity="0.501961" points="215.874721,136.736906,220.789012,152.455882,216.969587,165.719447,197.807133,120.978509" />
<polygon fill="#b1b3ac" fill-opacity="0.501961" points="149.623026,76.640195,155.787191,114.172531,160.983300,101.071540,157.806100,105.421289" />
<polygon fill="#e4e3da" fill-opacity="0.501961" points="186.377039,124.168346,179.007228,115.097285,167.595599,117.230759,164.942688,117.705295" />
<polygon fill="#d9dfe4" fill-opacity="0.501961" points="144.892624,146.191197,148.581189,113.849723,151.891421,125.984916,99.624257,126.848660" />
<polygon fill="#bac6c9" fill-opacity="0.501961" points="63.261551,98.325435,38.295960,86.377213,38.921326,98.036008,26.191647,107.283998" />
<polygon fill="#536d7b" fill-opacity="0.501961" points="55.593713,79.963137,83.222602,53.363819,75.871123,86.389401,57.638561,60.344539" />
<polygon fill="#454a4f" fill-opacity="0.501961" points="162.975363,130.050534,167.785086,148.492046,155.250185,133.576513,155.183095,156.119545" />
<polygon fill="#44484a" fill-opacity="0.501961" points="200.522462,93.495563,181.089387,87.141519,172.108155,97.034395,197.802821,105.714331" />
<polygon fill="#8ca6b1" fill-opacity="0.501961" points="257.172634,135.754985,249.116062,91.531665,250.830818,85.495899,252.079416,76.763000" />
<polygon fill="#78828c" fill-opacity="0.501961" points="204.251666,6.503065,185.984285,-1.169765,185.832648,85.716348,181.181892,-9.556248" />
<polygon fill="#44576a" fill-opacity="0.501961" points="139.762028,-16.000000,133.454938,28.602682,165.908118,62.307849,144.374701,25.573449" />
<polygon fill="#2f4b5c" fill-opacity="0.501961" points="103.672747,44.075016,97.487189,73.909306,97.749213,37.994188,101.364330,16.970004" />
<polygon fill="#344654" fill-opacity="0.501961" points="69.528014,74.161340,78.124909,35.749633,55.980889,68.410283,57.534830,33.007997" />
<polygon fill="#d4dadc" fill-opacity="0.501961" points="147.623604,117.214288,154.595655,157.628077,153.748960,129.505315,151.766514,121.929610" />
<polygon fill="#334757" fill-opacity="0.501961" points="163.404742,41.400802,161.637831,46.517283,160.760683,89.179975,166.971430,74.416118" />
<polygon fill="#375263" fill-opacity="0.501961" points="16.911787,80.830039,10.906653,8.853821,3.226578,54.016889,28.887740,42.559598" />
<polygon fill="#5a7888" fill-opacity="0.501961" points="127.502430,-7.155185,86.625589,20.532052,108.480929,-16.000000,113.442478,51.344587" />
<polygon fill="#c7ced1" fill-opacity="0.501961" points="217.957117,126.499130,215.017890,114.477219,223.265476,100.996392,271.000000,167.346695" />
<polygon fill="#8ba4ae" fill-opacity="0.501961" points="27.424641,120.000966,-16.000000,123.195182,10.581869,91.139720,29.693217,86.134895" />
<polygon fill="#263a48" fill-opacity="0.501961" points="215.326808,36.101407,211.273193,81.216249,219.000771,113.491585,211.633858,52.089387" />
<polygon fill="#393c3b" fill-opacity="0.501961" points="126.062034,69.692336,135.742396,71.169797,145.092113,59.459641,132.714119,85.121462" />
<polygon fill="#dee2e2" fill-opacity="0.501961" points="154.330129,115.005023,175.043536,121.227090,174.433383,172.811267,165.796796,120.415079" />
<polygon fill="#52676f" fill-opacity="0.501961" points="117.627236,88.130640,104.038216,97.783159,94.492278,82.564405,116.787921,98.659261" />
<polygon fill="#0d1e28" fill-opacity="0.501961" points="244.975811,43.432334,250.356712,-12.395469,265.629210,9.656080,245.564170,-6.115790" />
<polygon fill="#181b1a" fill-opacity="0.501961" points="168.048437,106.398835,153.712406,119.129731,169.074312,111.997353,170.917663,109.019880" />
<polygon fill="#5a7789" fill-opacity="0.501961" points="216.671780,56.729711,226.784904,43.092823,226.283996,83.549904,215.285472,76.388672" />
<polygon fill="#7b929e" fill-opacity="0.501961" points="157.954490,13.575808,151.701801,9.646982,149.137736,-16.000000,169.993213,5.210881" />
<polygon fill="#a3a39b" fill-opacity="0.501961" points="132.095511,86.298519,155.813854,76.426861,132.286235,104.098501,148.544030,118.557043" />
<polygon fill="#f5fafc" fill-opacity="0.501961" points="166.947381,171.431655,165.384811,185.000000,159.219704,149.195425,160.775822,137.175469" />
<polygon fill="#ecf0f1" fill-opacity="0.501961" points="224.049454,159.019534,144.509630,159.551366,271.000000,185.000000,262.996411,159.408355" />
<polygon fill="#95aab3" fill-opacity="0.501961" points="113.825712,54.153437,128.630055,48.499445,118.856266,21.644345,129.103675,24.355622" />
<polygon fill="#44494f" fill-opacity="0.501961" points="164.295436,135.915454,167.357753,150.135072,166.224769,158.421287,161.374598,137.585076" />
<polygon fill="#6a8896" fill-opacity="0.501961" points="82.470985,30.353593,80.739691,12.048551,65.270150,43.861806,65.345518,0.268810" />
<polygon fill="#ced0c8" fill-opacity="0.501961" points="210.856916,103.113182,198.009075,129.370015,213.686999,90.411501,196.717884,88.026825" />
<polygon fill="#c6cfd2" fill-opacity="0.501961" points="94.930649,112.770821,73.351713,96.492963,86.402168,85.689984,80.628234,142.329150" />
<polygon fill="#64696b" fill-opacity="0.501961" points="154.986051,72.643129,168.195297,85.584908,155.507773,122.120669,162.526045,122.835501" />
<polygon fill="#5f7e8f" fill-opacity="0.501961" points="20.916780,24.003446,14.111592,7.949665,24.931804,-9.955923,30.096611,44.013291" />
<polygon fill="#718b96" fill-opacity="0.501961" points="26.534760,106.352819,11.894143,115.819750,10.604947,75.836764,1.399827,95.124827" />
<polygon fill="#99a7aa" fill-opacity="0.501961" points="110.229796,114.574575,98.471170,90.582932,94.010554,85.713872,94.064232,91.210498" />
<polygon fill="#2e414c" fill-opacity="0.501961" points="87.215281,66.905557,94.688337,102.581538,78.188946,79.240931,77.586354,74.929543" />
<polygon fill="#384a58" fill-opacity="0.501961" points="73.224468,0.852288,59.170729,-4.894803,62.861799,42.673503,65.447817,-16.000000" />
<polygon fill="#58778a" fill-opacity="0.501961" points="250.513340,90.800305,253.372822,55.511550,249.271688,42.041289,248.835648,70.875985" />
<polygon fill="#a3aaa5" fill-opacity="0.501961" points="169.754687,134.793769,166.901951,121.506838,158.678881,129.568900,158.262920,120.747164" />
<polygon fill="#304653" fill-opacity="0.501961" points="249.630833,103.544393,247.471222,37.342623,246.471308,96.527876,240.969703,110.261418" />
<polygon fill="#b0b2ae" fill-opacity="0.501961" points="153.504794,84.704949,144.252341,100.160447,155.506748,81.349645,134.809537,76.685576" />
<polygon fill="#a0afb4" fill-opacity="0.501961" points="236.833031,86.715610,245.126410,134.286325,262.462401,110.596155,244.791227,106.228162" />
<polygon fill="#444a4f" fill-opacity="0.501961" points="190.804521,157.014766,194.675456,145.590050,197.187606,153.976177,193.019939,159.240426" />
<polygon fill="#89979a" fill-opacity="0.501961" points="120.134943,69.283988,126.123412,102.218338,85.535480,100.503084,116.869924,105.899901" />
<polygon fill="#21303a" fill-opacity="0.501961" points="190.538214,120.419682,174.482790,130.941274,176.392178,133.358463,185.866594,128.595866" />
<polygon fill="#5a6d7b" fill-opacity="0.501961" points="144.963154,17.836436,143.548276,66.594190,106.859543,68.091715,123.346050,70.152564" />
<polygon fill="#8fa5ad" fill-opacity="0.501961" points="33.662346,113.355961,26.806920,83.913237,-16.000000,124.654226,35.172076,89.746470" />
<polygon fill="#3b3d42" fill-opacity="0.501961" points="212.809190,28.839894,216.336186,14.360999,213.989380,-16.000000,209.694370,15.732905" />
<polygon fill="#eaeef1" fill-opacity="0.501961" points="167.315050,135.266278,176.279547,185.000000,195.434144,140.678746,189.983212,134.603911" />
<polygon fill="#1d2c38" fill-opacity="0.501961" points="234.157893,74.649334,235.326071,49.511715,235.185397,113.533458,232.134676,107.219316" />
<polygon fill="#435767" fill-opacity="0.501961" points="156.785089,114.825648,130.820164,113.261421,128.401145,105.603780,130.085705,125.608431" />
<polygon fill="#13242f" fill-opacity="0.501961" points="245.855000,45.838025,243.839552,94.454418,249.050869,35.657368,244.572887,-5.769774" />
<polygon fill="#5f7a89" fill-opacity="0.501961" points="54.750903,-3.729414,58.936509,18.049314,53.753205,46.785655,48.630858,4.360687" />
<polygon fill="#a0adae" fill-opacity="0.501961" points="49.861236,101.219374,86.651347,122.582028,63.661776,119.347132,76.146527,98.581068" />
<polygon fill="#a0a197" fill-opacity="0.501961" points="208.540841,106.245893,212.635033,125.271883,194.940660,120.716177,196.964142,108.619323" />
<polygon fill="#c3ccce" fill-opacity="0.501961" points="-7.862649,67.324562,6.808159,137.102557,33.434301,136.181413,-16.000000,102.191702" />
<polygon fill="#344859" fill-opacity="0.501961" points="213.645417,16.467502,221.529003,41.904523,224.755847,-12.760602,215.793923,38.991935" />
<polygon fill="#485b67" fill-opacity="0.501961" points="105.098288,98.793073,98.082319,61.052116,134.631451,85.374544,115.557711,60.254551" />
<polygon fill="#2f4252" fill-opacity="0.501961" points="206.757994,-16.000000,205.334978,-4.143698,202.745739,70.889210,206.800782,45.344258" />
<polygon fill="#787670" fill-opacity="0.501961" points="198.998092,98.087927,192.618662,115.779731,208.808036,98.162204,203.302827,110.888848" />
<polygon fill="#222f3b" fill-opacity="0.501961" points="88.194052,28.642390,85.457428,-16.000000,83.569494,-0.897964,80.541747,-15.416765" />
<polygon fill="#8098a4" fill-opacity="0.501961" points="92.872393,31.757693,113.403916,18.190484,108.745254,28.957046,89.489975,19.669417" />
<polygon fill="#182a35" fill-opacity="0.501961" points="13.068525,81.105567,15.187058,63.312326,3.020257,92.744907,-6.970557,33.930525" />
<polygon fill="#6e8b9b" fill-opacity="0.501961" points="204.028417,17.215273,189.483263,6.474434,208.249463,-16.000000,199.318233,-8.139251" />
<polygon fill="#363b41" fill-opacity="0.501961" points="157.726865,123.737806,154.772433,156.155906,156.643509,150.021055,151.972359,117.264912" />
<polygon fill="#172833" fill-opacity="0.501961" points="32.518402,92.285815,23.434529,68.640898,35.215726,76.342564,31.874759,17.189267" />
<polygon fill="#737471" fill-opacity="0.501961" points="179.707732,115.817789,152.741570,83.510566,142.179931,91.630073,170.586926,92.440309" />
<polygon fill="#415059" fill-opacity="0.501961" points="142.278088,125.175050,142.671318,104.254403,147.206992,127.114061,145.503975,125.841924" />
<polygon fill="#243a48" fill-opacity="0.501961" points="233.189813,62.133054,235.795352,56.143882,250.434064,101.235189,246.156014,103.674064" />
<polygon fill="#798a94" fill-opacity="0.501961" points="190.002760,94.995861,207.475772,84.374000,184.688523,80.538356,192.585642,92.531564" />
<polygon fill="#1e1f1e" fill-opacity="0.501961" points="185.191889,117.439433,188.042326,109.273019,179.059136,102.465161,178.785100,113.831595" />
<polygon fill="#506d80" fill-opacity="0.501961" points="156.465620,41.329505,151.456808,37.922098,147.231908,72.438082,162.930502,82.070538" />
<polygon fill="#f4f6f7" fill-opacity="0.501961" points="173.669828,158.420042,142.121653,152.470881,-16.000000,152.708563,181.455859,185.000000" />
<polygon fill="#5e5b55" fill-opacity="0.501961" points="214.603206,95.774467,213.176224,98.912080,216.184688,137.210891,209.100850,108.041167" />
<polygon fill="#b7c1c1" fill-opacity="0.501961" points="146.939973,111.985941,152.075671,136.097127,145.977477,132.589821,146.197703,155.530131" />
<polygon fill="#314a5c" fill-opacity="0.501961" points="154.306809,71.858010,165.397172,71.936348,174.531573,63.908321,173.538680,79.867691" />
<polygon fill="#c0c7ca" fill-opacity="0.501961" points="205.307048,118.577928,212.092733,120.578022,233.776527,139.775979,271.000000,127.950581" />
<polygon fill="#647b86" fill-opacity="0.501961" points="71.070766,62.034526,68.717558,89.364419,83.857618,24.139658,79.387633,72.345317" />
<polygon fill="#c2c8c6" fill-opacity="0.501961" points="150.243504,77.697910,94.580100,157.472959,143.019093,86.359561,160.321402,78.296512" />
<polygon fill="#4d6c7f" fill-opacity="0.501961" points="24.982662,63.996992,22.847926,71.773053,12.236169,4.010368,24.234739,29.864083" />
<polygon fill="#869ca8" fill-opacity="0.501961" points="110.651278,73.429738,109.443089,46.596107,132.735652,61.414097,115.526194,34.185761" />
<polygon fill="#748d9b" fill-opacity="0.501961" points="222.036787,39.661745,225.237184,55.411931,234.160813,32.927038,229.837138,1.874698" />
<polygon fill="#061721" fill-opacity="0.501961" points="-1.948783,-16.000000,9.529957,-8.563915,1.595306,32.500748,2.336431,10.543537" />
<polygon fill="#6c8390" fill-opacity="0.501961" points="56.288455,94.695936,57.444654,68.701760,60.039703,64.327737,59.825986,75.302065" />
<polygon fill="#6a777b" fill-opacity="0.501961" points="111.710940,103.224151,113.107611,95.306688,126.577561,94.750640,147.510777,67.308432" />
<polygon fill="#655556" fill-opacity="0.501961" points="179.043346,19.653062,179.429979,-5.756064,184.479556,-14.058469,180.324153,39.616943" />
<polygon fill="#d8dee1" fill-opacity="0.501961" points="174.754050,146.474821,165.062578,133.739161,195.872151,139.736067,189.996495,129.798405" />
<polygon fill="#3c3e3f" fill-opacity="0.501961" points="177.368642,106.694719,198.804709,142.633640,203.368161,131.925487,203.749859,135.735608" />
<polygon fill="#575f62" fill-opacity="0.501961" points="170.820464,152.282368,168.199199,158.329710,163.582504,126.916861,164.108005,156.916485" />
<polygon fill="#465c6c" fill-opacity="0.501961" points="134.881469,73.783401,130.770800,73.436406,170.258694,77.128402,147.032586,79.685931" />
<polygon fill="#78858e" fill-opacity="0.501961" points="183.578183,77.959326,181.951240,25.697448,186.454074,75.541550,150.631315,111.047643" />
<polygon fill="#eaedee" fill-opacity="0.501961" points="243.068603,154.436252,186.840016,182.749499,203.559771,138.090070,207.501982,164.185316" />
<polygon fill="#bcbeb6" fill-opacity="0.501961" points="149.165908,105.711527,154.597885,98.166914,158.930969,111.972819,152.271753,105.878164" />
<polygon fill="#7d959f" fill-opacity="0.501961" points="31.399757,123.790289,13.873685,76.358944,24.741985,120.277696,42.401913,118.603249" />
<polygon fill="#ccd3d6" fill-opacity="0.501961" points="214.415958,142.491617,216.264082,138.201661,199.352119,118.816784,199.999668,128.782151" />
<polygon fill="#273d4c" fill-opacity="0.501961" points="51.314191,32.575061,49.845117,74.532096,43.698865,56.390205,43.684980,30.031128" />
<polygon fill="#e3e4db" fill-opacity="0.501961" points="213.434978,92.803223,213.750158,99.958686,202.934866,87.983239,203.524572,100.301531" />
<polygon fill="#a0afb2" fill-opacity="0.501961" points="111.849124,112.094652,111.336358,84.001572,107.313633,95.925126,130.734189,107.311748" />
<polygon fill="#cad1d4" fill-opacity="0.501961" points="14.739726,136.826868,45.735276,136.525038,94.511506,135.155581,54.033659,114.762465" />
<polygon fill="#3d4448" fill-opacity="0.501961" points="183.688765,86.317295,159.843548,116.145702,175.816352,93.295076,202.241901,98.178141" />
<polygon fill="#546e7e" fill-opacity="0.501961" points="228.365771,62.338401,213.535297,101.193139,218.624321,63.435981,233.696416,45.970298" />
<polygon fill="#30414f" fill-opacity="0.501961" points="150.402461,32.257028,150.625876,-13.199186,145.925195,5.733585,146.036772,84.483333" />
<polygon fill="#4e5f6b" fill-opacity="0.501961" points="122.022920,56.212165,112.107672,59.028882,115.177907,59.761681,119.199172,81.011161" />
<polygon fill="#32393d" fill-opacity="0.501961" points="220.245476,135.306702,213.257318,118.742127,217.418327,137.074584,225.354196,158.470910" />
<polygon fill="#24404f" fill-opacity="0.501961" points="45.668654,88.617265,43.719589,86.160790,44.979522,70.153994,56.899184,79.673540" />
<polygon fill="#95958d" fill-opacity="0.501961" points="127.352616,99.009034,138.927402,73.852186,160.027289,108.176003,154.146545,81.496715" />
<polygon fill="#3b5563" fill-opacity="0.501961" points="77.482028,58.069909,65.834554,86.588836,61.713466,93.618938,62.206275,38.271447" />
<polygon fill="#4d6d80" fill-opacity="0.501961" points="100.910345,25.571239,122.067110,6.648302,108.645298,17.905729,79.820298,-16.000000" />
<polygon fill="#9cb0b7" fill-opacity="0.501961" points="-16.000000,113.144773,18.004313,102.962831,12.599633,90.036644,-16.000000,132.421827" />
<polygon fill="#dadfdf" fill-opacity="0.501961" points="-16.176365,124.256746,26.991565,136.723159,-13.729783,148.281125,1.488205,142.998188" />
<polygon fill="#334552" fill-opacity="0.501961" points="190.084110,75.137180,188.096064,-16.000000,186.645720,68.202537,185.124289,77.063485" />
<polygon fill="#2a3f4f" fill-opacity="0.501961" points="94.676429,58.280423,93.415207,90.292680,102.124475,75.875482,98.383034,55.015600" />
<polygon fill="#404445" fill-opacity="0.501961" points="195.374829,108.923893,162.913033,114.431870,142.764384,108.397689,150.990328,118.732710" />
<polygon fill="#b7c6ce" fill-opacity="0.501961" points="110.230833,90.238534,123.823557,90.988363,122.456648,87.111826,113.689579,89.186938" />
<polygon fill="#d8dbd8" fill-opacity="0.501961" points="126.060065,102.533781,125.390987,161.236205,128.938408,93.262432,135.170528,109.337429" />
<polygon fill="#bec7c7" fill-opacity="0.501961" points="83.106213,109.018492,98.711372,103.446148,126.988670,117.306652,77.720431,123.164427" />
<polygon fill="#243744" fill-opacity="0.501961" points="211.766934,36.141744,211.182897,88.344863,216.591889,94.722919,215.187206,64.121568" />
<polygon fill="#e1e5e6" fill-opacity="0.501961" points="222.916073,147.325709,239.119410,185.000000,255.650457,137.530828,256.631080,169.506382" />
<polygon fill="#688292" fill-opacity="0.501961" points="211.116467,67.662748,207.501351,90.659526,204.729351,58.427157,206.511727,56.196352" />
<polygon fill="#648191" fill-opacity="0.501961" points="136.567849,-1.097749,134.234667,12.163411,55.413439,-16.000000,106.131383,8.785118" />
<polygon fill="#59798e" fill-opacity="0.501961" points="252.387407,24.357209,254.019855,94.606366,250.463976,50.342262,250.900688,9.726678" />
<polygon fill="#b7c3c6" fill-opacity="0.501961" points="53.525317,84.871679,27.223018,110.634921,27.237432,99.720530,55.381114,114.528967" />
<polygon fill="#9d9e9b" fill-opacity="0.501961" points="159.137212,119.625073,159.776969,135.932502,155.686216,113.502583,177.604195,154.233027" />
<polygon fill="#495766" fill-opacity="0.501961" points="148.964068,-16.000000,133.764742,79.998122,136.660557,36.584184,135.436297,-10.467573" />
<polygon fill="#a8b2b6" fill-opacity="0.501961" points="191.309322,84.643007,182.636600,82.505119,166.772782,95.382368,168.759425,89.797396" />
<polygon fill="#293844" fill-opacity="0.501961" points="255.379652,32.355247,255.143723,104.698827,271.000000,30.341866,252.250659,-11.439041" />
<polygon fill="#879da5" fill-opacity="0.501961" points="215.165608,94.523632,221.816088,81.816574,227.135566,94.709075,234.011314,106.123337" />
<polygon fill="#496475" fill-opacity="0.501961" points="152.708026,13.769892,168.654208,26.447643,171.608418,10.446501,149.312065,33.560429" />
<polygon fill="#3f5969" fill-opacity="0.501961" points="103.723278,78.036820,105.156795,48.797105,107.618042,28.925005,106.702373,101.439654" />
<polygon fill="#667787" fill-opacity="0.501961" points="229.150748,11.034408,214.311393,-16.000000,218.555332,46.352399,219.218207,-16.000000" />
<polygon fill="#d6dde2" fill-opacity="0.501961" points="124.021876,119.408892,140.250245,145.431508,93.513623,134.646726,69.810516,126.951912" />
<polygon fill="#546f7d" fill-opacity="0.501961" points="28.281680,78.367215,29.903398,83.666768,-16.000000,96.588276,26.729653,81.620192" />
<polygon fill="#e8eced" fill-opacity="0.501961" points="68.255744,185.000000,33.250417,137.754498,165.547167,143.608842,83.370680,137.130229" />
<polygon fill="#587381" fill-opacity="0.501961" points="5.890657,95.843838,-3.905224,105.238118,2.268271,80.083147,-16.000000,74.836683" />
<polygon fill="#9aa8b0" fill-opacity="0.501961" points="160.785789,84.355188,202.389595,84.430402,180.057374,81.332442,173.673505,81.944340" />
<polygon fill="#e7e7df" fill-opacity="0.501961" points="164.261315,120.996050,169.522617,122.210516,184.320096,122.587687,168.863205,115.178459" />
<polygon fill="#496271" fill-opacity="0.501961" points="232.063507,84.240845,233.487205,86.395417,223.877226,85.709775,228.181564,47.954849" />
<polygon fill="#31414b" fill-opacity="0.501961" points="178.186775,124.802126,191.847933,126.253652,174.529268,134.033968,177.194653,122.406853" />
<polygon fill="#5f7d8b" fill-opacity="0.501961" points="33.087239,100.007480,27.731541,85.229067,38.332337,93.550868,38.071637,98.543002" />
<polygon fill="#676866" fill-opacity="0.501961" points="205.391327,106.362322,195.743585,116.026159,199.705953,144.306834,192.122550,98.794150" />
<polygon fill="#565c5e" fill-opacity="0.501961" points="170.041738,159.180161,159.738602,113.230927,162.925551,137.313912,162.482658,142.760463" />
<polygon fill="#628090" fill-opacity="0.501961" points="241.108955,-16.000000,240.977668,72.942793,244.431518,-11.488787,228.157524,-16.000000" />
<polygon fill="#dbe2e4" fill-opacity="0.501961" points="153.015232,133.466931,146.507244,120.664450,150.298787,120.998639,152.436944,125.426453" />
<polygon fill="#cdd2ce" fill-opacity="0.501961" points="151.863901,82.006830,155.086362,80.078793,142.368011,80.106164,142.564107,82.186341" />
<polygon fill="#778b99" fill-opacity="0.501961" points="178.021571,29.786801,175.134661,60.411727,175.635076,92.740935,177.789662,66.714217" />
<polygon fill="#708a98" fill-opacity="0.501961" points="198.511875,35.517493,188.696239,28.151040,200.611168,21.401759,201.095169,17.269600" />
<polygon fill="#6a7f8a" fill-opacity="0.501961" points="97.551683,40.055284,96.894864,56.772828,79.777638,39.322833,75.523346,53.409614" />
<polygon fill="#595d5e" fill-opacity="0.501961" points="181.123980,116.775082,202.750068,141.210399,149.852749,80.928756,177.100278,116.292881" />
<polygon fill="#283c49" fill-opacity="0.501961" points="90.419597,98.630078,87.948688,52.606725,79.770558,86.624467,80.281757,64.811445" />
<polygon fill="#b3bbbd" fill-opacity="0.501961" points="146.296153,132.189010,137.291218,118.993121,154.165577,133.323579,145.627130,136.764655" />
<polygon fill="#304756" fill-opacity="0.501961" points="33.234001,20.917329,26.063698,-7.687706,35.791288,-14.836741,36.749687,99.326008" />
<polygon fill="#274050" fill-opacity="0.501961" points="202.455034,54.171501,201.047394,70.113077,196.046726,82.243169,204.651332,80.892625" />
<polygon fill="#3c4246" fill-opacity="0.501961" points="193.494365,128.654965,187.341310,92.509716,201.453541,86.252549,183.689217,89.680134" />
<polygon fill="#cbd1d1" fill-opacity="0.501961" points="202.053474,124.898997,204.168014,111.085771,208.137908,118.479143,159.662764,165.029019" />
<polygon fill="#495053" fill-opacity="0.501961" points="203.275311,122.046687,220.798833,134.409335,221.800271,161.683424,222.634590,142.946767" />
<polygon fill="#6a8897" fill-opacity="0.501961" points="27.049813,9.203675,16.423488,21.983165,18.035166,2.603054,23.405989,3.938940" />
<polygon fill="#6d8390" fill-opacity="0.501961" points="170.206566,25.176119,166.615607,23.807895,165.779944,59.566381,168.719930,62.403668" />
<polygon fill="#546e7f" fill-opacity="0.501961" points="192.015566,55.728797,192.280476,30.759785,204.740873,50.945983,195.815493,77.046907" />
<polygon fill="#577788" fill-opacity="0.501961" points="23.373863,43.438378,11.866090,40.388148,25.916521,18.631361,25.575220,14.594369" />
<polygon fill="#73757b" fill-opacity="0.501961" points="185.956109,14.016499,187.333197,-16.000000,179.536283,14.381260,168.002356,-16.000000" />
<polygon fill="#8ca2ad" fill-opacity="0.501961" points="133.885666,18.597554,120.693134,23.204881,128.177889,67.303627,124.279728,5.442593" />
<polygon fill="#f3f5f3" fill-opacity="0.501961" points="184.542509,122.839955,179.884022,118.155142,173.243221,118.644118,174.434749,122.330084" />
<polygon fill="#a5b9bd" fill-opacity="0.501961" points="38.402785,99.768149,50.345865,122.730986,36.815370,117.171103,20.897283,93.500232" />
<polygon fill="#0f1e27" fill-opacity="0.501961" points="7.183712,75.008304,2.416121,86.901378,7.194949,36.091018,-4.802554,56.226802" />
<polygon fill="#1c3544" fill-opacity="0.501961" points="11.179971,48.555090,11.945142,84.788896,16.338971,46.795870,15.618343,47.674679" />
<polygon fill="#f3f6f7" fill-opacity="0.501961" points="109.881251,185.000000,139.004929,185.000000,155.078846,148.711290,90.904767,142.410044" />
<polygon fill="#ebeef1" fill-opacity="0.501961" points="168.478040,182.330626,159.491652,128.994917,162.004113,162.349632,190.822375,158.529625" />
<polygon fill="#edf0f2" fill-opacity="0.501961" points="191.839613,149.801357,175.157727,185.000000,169.146148,151.440348,168.005914,144.487226" />
<polygon fill="#a3b3b8" fill-opacity="0.501961" points="224.389887,118.855140,214.672950,101.765643,214.132746,105.932877,232.107929,102.617431" />
<polygon fill="#373e42" fill-opacity="0.501961" points="155.543627,141.229376,154.101347,129.988552,149.327376,103.204640,159.032258,129.653061" />
<polygon fill="#708794" fill-opacity="0.501961" points="136.345129,24.950569,127.520091,19.012869,128.976827,57.924514,135.689611,24.414619" />
<polygon fill="#597280" fill-opacity="0.501961" points="43.851746,74.891424,43.947494,65.189453,40.909707,41.442324,38.987384,67.830666" />
<polygon fill="#8c9da4" fill-opacity="0.501961" points="93.393683,121.693351,95.484795,113.107714,103.812308,90.322097,103.059469,82.712675" />
<polygon fill="#2e4858" fill-opacity="0.501961" points="16.282288,24.463298,5.019318,57.939392,10.368087,-8.583746,12.353200,1.946166" />
<polygon fill="#cbd2d5" fill-opacity="0.501961" points="229.086446,113.635004,215.256792,112.045510,216.420865,120.846396,224.840225,135.164171" />
<polygon fill="#253844" fill-opacity="0.501961" points="237.996592,18.260444,236.447773,-16.000000,233.561532,38.353720,233.603643,77.818388" />
<polygon fill="#617a88" fill-opacity="0.501961" points="106.528455,19.888565,127.778975,35.357312,116.653062,37.251220,123.522496,-13.055536" />
<polygon fill="#555a5a" fill-opacity="0.501961" points="191.985206,98.933618,176.991632,92.135792,172.606184,93.968191,174.204797,98.585097" />
<polygon fill="#a0adaf" fill-opacity="0.501961" points="60.288719,86.813692,59.403048,108.295256,83.299654,103.258524,52.288191,87.988830" />
<polygon fill="#f2f4f5" fill-opacity="0.501961" points="60.676381,150.456725,154.055786,146.494674,153.068362,124.765474,147.773209,185.000000" />
<polygon fill="#d3d9de" fill-opacity="0.501961" points="168.533529,142.314399,167.619615,125.597802,186.000531,144.405279,185.856250,130.151068" />
<polygon fill="#58798a" fill-opacity="0.501961" points="107.933286,59.133218,109.515524,77.933698,108.312799,82.981779,117.114819,80.331135" />
<polygon fill="#486779" fill-opacity="0.501961" points="28.737310,15.903664,30.885718,38.603985,15.247044,24.225171,14.434154,34.275430" />
<polygon fill="#233440" fill-opacity="0.501961" points="235.015428,76.447036,232.205947,114.797630,236.309152,107.159243,235.601844,96.008389" />
<polygon fill="#5a7889" fill-opacity="0.501961" points="220.167396,90.226441,213.811216,111.840125,218.255425,108.919369,222.314853,95.474071" />
<polygon fill="#3b4145" fill-opacity="0.501961" points="184.993979,90.064132,187.254986,104.649319,200.923370,88.286130,189.605895,114.256822" />
<polygon fill="#7e9192" fill-opacity="0.501961" points="269.920163,116.230857,251.153507,139.370477,271.000000,141.570713,270.408771,153.556905" />
<polygon fill="#375060" fill-opacity="0.501961" points="96.482964,90.447482,96.987478,63.153739,102.658649,53.170254,100.294259,4.930310" />
<polygon fill="#788f9b" fill-opacity="0.501961" points="131.974307,23.399994,114.944492,23.735216,102.651875,33.634264,102.431835,19.933239" />
<polygon fill="#83929a" fill-opacity="0.501961" points="123.623047,78.402589,127.706862,21.429281,124.859958,83.308328,118.312272,87.653249" />
<polygon fill="#587788" fill-opacity="0.501961" points="75.329763,-13.553354,86.980146,-7.495200,72.070258,31.350413,67.984267,43.180095" />
<polygon fill="#a2afb1" fill-opacity="0.501961" points="53.292157,86.819001,80.711198,118.483551,69.570250,124.795567,76.200468,104.582801" />
<polygon fill="#adb2ab" fill-opacity="0.501961" points="131.059221,96.339548,109.531749,108.822626,124.698164,95.945924,148.280998,116.799004" />
<polygon fill="#738891" fill-opacity="0.501961" points="5.564287,100.296630,-14.022269,113.994302,10.968248,80.865265,7.489402,78.813506" />
<polygon fill="#748d9b" fill-opacity="0.501961" points="160.370059,54.328008,156.717556,57.133176,163.646843,29.941197,152.545348,34.134146" />
<polygon fill="#50585c" fill-opacity="0.501961" points="165.716620,91.740221,160.877091,97.600588,156.127654,88.970359,162.084339,89.483966" />
<polygon fill="#d9dfe1" fill-opacity="0.501961" points="228.465779,151.426899,232.618019,172.257551,221.639317,137.114931,271.000000,152.442975" />
<polygon fill="#a4b1b4" fill-opacity="0.501961" points="84.339505,85.499925,49.945682,121.528494,67.389865,86.566022,87.604188,92.226329" />
<polygon fill="#c9ccc2" fill-opacity="0.501961" points="214.104355,94.120728,212.657499,89.154400,207.986076,101.432143,201.263624,121.548449" />
<polygon fill="#222828" fill-opacity="0.501961" points="170.967445,110.438548,163.630554,117.433351,160.243624,111.753881,164.950181,106.425916" />
<polygon fill="#476476" fill-opacity="0.501961" points="93.805724,40.218906,73.184689,24.326918,69.779044,33.513286,116.327569,34.470299" />
<polygon fill="#253541" fill-opacity="0.501961" points="210.963839,-6.418899,212.383069,-16.000000,213.393117,50.537498,211.688276,47.554898" />
<polygon fill="#adb9bc" fill-opacity="0.501961" points="271.000000,109.827433,228.828254,113.989716,250.936708,115.697533,264.452098,174.447973" />
<polygon fill="#6b8999" fill-opacity="0.501961" points="16.958049,108.942988,13.755015,122.537819,13.303725,104.441405,18.963296,118.681854" />
<polygon fill="#f7f9f8" fill-opacity="0.501961" points="21.528861,144.733769,-16.000000,151.162785,29.506293,172.416053,47.906994,160.611368" />
<polygon fill="#384249" fill-opacity="0.501961" points="178.567011,135.495624,175.496310,123.412353,190.840256,125.155910,193.589801,112.713991" />
<polygon fill="#385566" fill-opacity="0.501961" points="14.471288,80.682858,21.555530,87.507025,24.600446,84.534399,17.236695,57.361402" />
<polygon fill="#3a4142" fill-opacity="0.501961" points="134.236487,75.629621,115.139970,79.876105,144.448761,67.090891,129.777786,83.755373" />
<polygon fill="#37424e" fill-opacity="0.501961" points="64.884429,42.396464,57.463403,60.447094,54.860529,52.380022,59.480894,40.684968" />
</g>
</svg>