<svg height="668" width="1024" xmlns="http://www.w3.org/2000/svg"><path d="m0 0h1024v668h-1024z" fill="#716556"/><g fill-opacity=".501961"><path d="m-.5-.5h1v1h-1z" fill="#f2ffff" transform="matrix(-123.83006232 -6.48965856 13.81669244 -263.63819716 38 110)"/><path d="m-.5-.5h1v1h-1z" fill="#ffdcae" transform="matrix(95.63937776 -449.94789632 148.67843532 31.602577 490 578)"/><path d="m-.5-.5h1v1h-1z" fill="#06150c" transform="matrix(-141.913708 -369.69784888 395.83810084 -151.9480106 930 98)"/><path d="m-.5-.5h1v1h-1z" fill="#fff" transform="matrix(143.91227908 -5.02552752 4.0483416 115.92933592 426 78)"/><path d="m-.5-.5h1v1h-1z" fill="#fff5bc" transform="matrix(-14.03384184 -45.90262828 401.64799752 -122.796116 150 426)"/><path d="m-.5-.5h1v1h-1z" fill="#2d0b03" transform="matrix(-2.79238504 -159.97563124 195.97014824 -3.42067168 642 334)"/><path d="m-.5-.5h1v1h-1z" fill="#110d13" transform="matrix(372.11827784 135.43997676 -54.72322292 150.35081932 802 666)"/><path d="m-.5-.5h1v1h-1z" fill="#dbdb9b" transform="matrix(186.17039692 26.164543 -10.57715568 75.26037324 610 202)"/><path d="m-.5-.5h1v1h-1z" fill="#ffefde" transform="matrix(26.7212354 190.1314692 -67.33822868 9.46377088 502 394)"/><path d="m-.5-.5h1v1h-1z" fill="#979993" transform="matrix(-3.8395294 219.96649292 -171.97380356 -3.00181392 298 226)"/><path d="m-.5-.5h1v1h-1z" fill="#170000" transform="matrix(10.40163424 -595.90922632 35.99451704 .62828664 134 94)"/><path d="m-.5-.5h1v1h-1z" fill="#deb289" transform="matrix(-103.6042486 -9.06419724 11.15593508 -127.51292136 674 490)"/><path d="m-.5-.5h1v1h-1z" fill="#33120d" transform="matrix(-115.36453988 12.12530172 -15.05209872 -143.21115292 462 210)"/><path d="m-.5-.5h1v1h-1z" fill="#0d101c" transform="matrix(-19.88127592 -65.0287234 183.61051316 -56.13536732 54 522)"/><path d="m-.5-.5h1v1h-1z" fill="#05040f" transform="matrix(-115.09436804 111.14533928 -63.90857008 -66.17926164 302 666)"/><path d="m-.5-.5h1v1h-1z" fill="#dbeeff" transform="matrix(107.48023076 107.48023076 -115.96551212 115.96551212 2 162)"/><path d="m-.5-.5h1v1h-1z" fill="#6a671b" transform="matrix(-87.1422456 134.18729088 -231.47307676 -150.32037368 682 106)"/><path d="m-.5-.5h1v1h-1z" fill="#ddaf85" transform="matrix(21.19677056 -33.92192384 264.591006 165.33481044 886 558)"/><path d="m-.5-.5h1v1h-1z" fill="#1b242a" transform="matrix(-156.97959268 -136.46027804 44.61201396 -51.32025144 226 42)"/><path d="m-.5-.5h1v1h-1z" fill="#55453b" transform="matrix(91.47588352 -121.39259752 242.78519504 182.95176704 842 406)"/><path d="m-.5-.5h1v1h-1z" fill="#fffce3" transform="matrix(-186.97011632 -19.65135108 2.09056928 -19.89043792 990 386)"/><path d="m-.5-.5h1v1h-1z" fill="#30282a" transform="matrix(-231.52794576 88.87525148 -18.63513336 -48.54618216 218 566)"/><path d="m-.5-.5h1v1h-1z" fill="#8e7364" transform="matrix(-166.88683368 -161.16074196 63.90857008 -66.17926164 406 474)"/><path d="m-.5-.5h1v1h-1z" fill="#fff" transform="matrix(-51.15854564 22.777252 -37.41977116 -84.04618212 446 86)"/><path d="m-.5-.5h1v1h-1z" fill="#cfab91" transform="matrix(-14 -24.24871132 245.95121468 -142 290 462)"/><path d="m-.5-.5h1v1h-1z" fill="#1e2127" transform="matrix(-232.05778996 75.40014664 -9.8885438 -30.43380852 74 258)"/><path d="m-.5-.5h1v1h-1z" fill="#b8a862" transform="matrix(-79.80512404 -5.58051788 4.18538844 -59.853843 886 314)"/><path d="m-.5-.5h1v1h-1z" fill="#dab185" transform="matrix(-87.94639276 -3.07115572 9.21346712 -263.83917832 542 606)"/><path d="m-.5-.5h1v1h-1z" transform="matrix(38.81182904 9.67687584 -27.09525232 108.67312136 2 2)"/><path d="m-.5-.5h1v1h-1z" fill="#ffc597" transform="matrix(21.9761496 47.12800492 -148.63447708 69.30939492 190 410)"/><path d="m-.5-.5h1v1h-1z" fill="#0d1924" transform="matrix(-61.63928732 160.57583336 -283.80844964 -108.94385668 1022 102)"/><path d="m-.5-.5h1v1h-1z" fill="#ffffe5" transform="matrix(-86.32077604 83.35900444 -11.11453392 -11.5094368 562 158)"/><path d="m-.5-.5h1v1h-1z" fill="#d4dde5" transform="matrix(28.32122984 43.61086952 -50.32023408 32.67834212 238 218)"/><path d="m-.5-.5h1v1h-1z" fill="#413f3d" transform="matrix(12.12804364 -42.29551464 242.23794736 69.46061368 230 262)"/><path d="m-.5-.5h1v1h-1z" fill="#794a2c" transform="matrix(-130.74926392 -256.60987896 49.89636536 -25.423468 550 330)"/><path d="m-.5-.5h1v1h-1z" fill="#bcd3ec" transform="matrix(7.6323598 39.26508732 -51.04461352 9.92206776 178 118)"/><path d="m-.5-.5h1v1h-1z" fill="#381714" transform="matrix(36.63532712 188.47241924 -7.85301748 1.52647196 394 34)"/><path d="m-.5-.5h1v1h-1z" fill="#cbcaa3" transform="matrix(28 0 0 80 774 298)"/><path d="m-.5-.5h1v1h-1z" fill="#7a8282" transform="matrix(19.25808076 -25.55633632 102.22534528 77.03232296 946 206)"/><path d="m-.5-.5h1v1h-1z" fill="#d0eaff" transform="matrix(-77.8834438 -31.46695384 7.49213188 -18.54367708 322 2)"/><path d="m-.5-.5h1v1h-1z" fill="#ceb09a" transform="matrix(0 176 -36 0 370 222)"/><path d="m-.5-.5h1v1h-1z" fill="#00041e" transform="matrix(62.50908564 -181.53956652 22.6924458 7.81363572 822 302)"/><path d="m-.5-.5h1v1h-1z" fill="#271e24" transform="matrix(244.51452304 60.96431768 -14.51531372 58.21774356 642 282)"/><path d="m-.5-.5h1v1h-1z" fill="#06101d" transform="matrix(155.2473162 38.70750328 -4.83843792 19.40591452 930 410)"/><path d="m-.5-.5h1v1h-1z" fill="#daedff" transform="matrix(-94.2362096 18.31766356 -9.92206776 -51.04461352 42 74)"/><path d="m-.5-.5h1v1h-1z" fill="#48402b" transform="matrix(75.89584464 3.97753268 -2.93081356 55.92325396 314 182)"/><path d="m-.5-.5h1v1h-1z" fill="#574439" transform="matrix(319.13888304 91.51160212 -12.12804364 42.29551464 786 578)"/><path d="m-.5-.5h1v1h-1z" fill="#d9e798" transform="matrix(-96.1811794 142.59446248 -13.26460116 -8.94708644 562 26)"/><path d="m-.5-.5h1v1h-1z" fill="#afbccf" transform="matrix(-67.74123948 5.92659052 -4.8807216 -55.78690308 250 314)"/><path d="m-.5-.5h1v1h-1z" fill="#e8bb91" transform="matrix(97.09236436 -37.27026676 5.7338872 14.93728684 62 382)"/><path d="m-.5-.5h1v1h-1z" fill="#453a34" transform="matrix(-42.06888372 -30.56483312 124.61047348 -171.5116028 378 574)"/><path d="m-.5-.5h1v1h-1z" fill="#252d2d" transform="matrix(-8.37077684 -119.70768604 83.79538024 -5.8595438 986 310)"/><path d="m-.5-.5h1v1h-1z" fill="#948f53" transform="matrix(118.79393924 -118.79393924 36.76955264 36.76955264 722 178)"/><path d="m-.5-.5h1v1h-1z" fill="#200e0d" transform="matrix(67.09364544 43.5711228 -13.07133684 20.12809364 402 270)"/><path d="m-.5-.5h1v1h-1z" fill="#30201d" transform="matrix(3.31615028 -2.2367716 98.417951 145.91061276 582 558)"/><path d="m-.5-.5h1v1h-1z" fill="#1c141f" transform="matrix(44 0 0 212 126 58)"/><path d="m-.5-.5h1v1h-1z" fill="#ffe8be" transform="matrix(9.15883176 -47.1181048 43.19159608 8.3955958 658 446)"/><path d="m-.5-.5h1v1h-1z" fill="#583826" transform="matrix(-36.81341368 -208.77924364 43.33154112 -7.6405198 126 298)"/><path d="m-.5-.5h1v1h-1z" fill="#ffcb9b" transform="matrix(115.92933592 -4.0483416 1.39597988 39.97563308 54 446)"/><path d="m-.5-.5h1v1h-1z" fill="#080611" transform="matrix(-5.20909048 15.1282972 -257.18105256 -88.554538 1022 566)"/><path d="m-.5-.5h1v1h-1z" fill="#fff" transform="matrix(-35.7928246 -80.39200028 7.30836368 -3.25389316 394 106)"/><path d="m-.5-.5h1v1h-1z" fill="#25281b" transform="matrix(149.69077844 -26.394523 14.58644692 82.72385124 674 14)"/><path d="m-.5-.5h1v1h-1z" fill="#3f312d" transform="matrix(-139.15092304 101.0990634 -14.10684604 -19.41640788 350 394)"/><path d="m-.5-.5h1v1h-1z" fill="#cdd0c3" transform="matrix(-82.90375724 55.91929036 -11.18385808 -16.58075144 666 194)"/><path d="m-.5-.5h1v1h-1z" fill="#2b1615" transform="matrix(-16.96096192 -10.59838528 61.47063464 -98.37357916 610 450)"/><path d="m-.5-.5h1v1h-1z" fill="#565952" transform="matrix(-63.96101292 2.2335678 -4.46713556 -127.92202584 302 298)"/><path d="m-.5-.5h1v1h-1z" fill="#61615f" transform="matrix(2.65236176 75.95370284 -27.98294316 .97718592 2 186)"/><path d="m-.5-.5h1v1h-1z" fill="#e3f3ff" transform="matrix(7.49213188 18.54367708 -96.42712088 38.95908572 458 38)"/><path d="m-.5-.5h1v1h-1z" fill="#9e775b" transform="matrix(31.56272256 64.71317132 -111.45046176 54.3580222 722 414)"/><path d="m-.5-.5h1v1h-1z" fill="#7d7c12" transform="matrix(-118.6795334 47.94964396 -28.47010108 -70.46597296 658 126)"/><path d="m-.5-.5h1v1h-1z" fill="#c19876" transform="matrix(13.8931674 14.386796 -123.72644564 119.48123972 266 610)"/><path d="m-.5-.5h1v1h-1z" fill="#eed3b5" transform="matrix(85.79697764 -71.99221228 33.42495572 39.83431104 514 426)"/><path d="m-.5-.5h1v1h-1z" fill="#f8ffff" transform="matrix(-8.76742292 -17.97588092 68.30834752 -33.31620716 42 226)"/><path d="m-.5-.5h1v1h-1z" fill="#2d3551" transform="matrix(-1.36808056 -3.75877048 172.90344224 -62.93170636 62 30)"/><path d="m-.5-.5h1v1h-1z" fill="#3b241c" transform="matrix(-22.31187016 -255.02584272 19.92389396 -1.74311484 746 486)"/><path d="m-.5-.5h1v1h-1z" fill="#58372d" transform="matrix(-36.73930564 -42.26373648 126.79120948 -110.21791688 538 122)"/><path d="m-.5-.5h1v1h-1z" fill="#a6af96" transform="matrix(80.90169944 58.77852524 -9.40456404 12.94427192 758 270)"/><path d="m-.5-.5h1v1h-1z" fill="#f2cba0" transform="matrix(6.51136308 -18.91037152 86.98770896 29.9522702 690 514)"/><path d="m-.5-.5h1v1h-1z" fill="#373236" transform="matrix(133.71809892 -80.34593968 10.30076148 17.143346 214 458)"/><path d="m-.5-.5h1v1h-1z" fill="#4f2919" transform="matrix(-9.42047212 -179.75331624 27.96162696 -1.46540676 606 530)"/><path d="m-.5-.5h1v1h-1z" fill="#cda580" transform="matrix(0 16 -108 0 826 478)"/><path d="m-.5-.5h1v1h-1z" fill="#6d5147" transform="matrix(-83.9872064 -1.46600216 .62828664 -35.99451704 446 414)"/><path d="m-.5-.5h1v1h-1z" fill="#3d3d3b" transform="matrix(-45.1052458 16.41696688 -21.88928916 -60.14032772 214 142)"/><path d="m-.5-.5h1v1h-1z" fill="#202e37" transform="matrix(-121.29030248 -25.78104968 4.1582338 -19.562952 50 346)"/><path d="m-.5-.5h1v1h-1z" fill="#e3edff" transform="matrix(16.48269012 -40.7960896 174.31056464 70.42603956 18 134)"/><path d="m-.5-.5h1v1h-1z" fill="#323805" transform="matrix(-57.2999952 166.41126932 -15.1282972 -5.20909048 530 2)"/><path d="m-.5-.5h1v1h-1z" fill="#a68e68" transform="matrix(-29.69353916 -128.61684856 23.38488156 -5.39882532 354 82)"/><path d="m-.5-.5h1v1h-1z" fill="#d1aa89" transform="matrix(-77.8834438 31.46695384 -16.48269012 -40.7960896 242 490)"/><path d="m-.5-.5h1v1h-1z" fill="#6e3513" transform="matrix(-37.82451616 -29.5517508 44.32762624 -56.73677424 430 354)"/><path d="m-.5-.5h1v1h-1z" fill="#58799b" transform="matrix(55.69322616 -5.85359396 3.34491084 31.82470064 78 110)"/><path d="m-.5-.5h1v1h-1z" fill="#1f1410" transform="matrix(-12.27439212 -25.16623328 46.7372904 -22.79529964 94 398)"/><path d="m-.5-.5h1v1h-1z" fill="#99aec6" transform="matrix(14.3249988 -41.60281732 41.60281732 14.3249988 342 338)"/><path d="m-.5-.5h1v1h-1z" fill="#7f93a5" transform="matrix(-1.11610356 -15.9610248 99.75640504 -6.97564736 54 190)"/><path d="m-.5-.5h1v1h-1z" fill="#9db8d1" transform="matrix(-70.71067812 -70.71067812 11.31370848 -11.31370848 262 6)"/><path d="m-.5-.5h1v1h-1z" fill="#c9cfdd" transform="matrix(1.25606296 -23.96710884 35.95066324 1.88409444 174 318)"/><path d="m-.5-.5h1v1h-1z" fill="#422c2d" transform="matrix(6.6323006 -4.47354324 40.26188904 59.69070524 410 106)"/><path d="m-.5-.5h1v1h-1z" fill="#ffdd94" transform="matrix(-35.73166144 -4.38729636 3.4123416 -27.79129224 186 382)"/><path d="m-.5-.5h1v1h-1z" fill="#b1b5b5" transform="matrix(15.43569192 53.83065496 -34.60542104 9.9229448 246 130)"/><path d="m-.5-.5h1v1h-1z" fill="#a0b7d1" transform="matrix(-.41885776 -23.99634468 43.9932986 -.76790588 86 314)"/><path d="m-.5-.5h1v1h-1z" fill="#3d3734" transform="matrix(103.8574716 5.44293944 -3.97753268 75.89584464 838 370)"/><path d="m-.5-.5h1v1h-1z" fill="#5b4c26" transform="matrix(-6.7618922 -14.5009246 50.75323608 -23.66662264 370 26)"/><path d="m-.5-.5h1v1h-1z" fill="#232429" transform="matrix(-2.44333692 139.97867732 -203.9689298 -3.56029092 706 666)"/><path d="m-.5-.5h1v1h-1z" fill="#e8c49a" transform="matrix(-16.48269012 -40.7960896 122.3882688 -49.44807032 470 594)"/><path d="m-.5-.5h1v1h-1z" fill="#071222" transform="matrix(2.4403608 -27.89345156 59.77168188 5.22934456 42 282)"/><path d="m-.5-.5h1v1h-1z" fill="#fff" transform="matrix(-2.97257932 -2.67652244 13.38261212 -14.86289652 970 226)"/><path d="m-.5-.5h1v1h-1z" fill="#fff4cb" transform="matrix(-14.33314252 -49.9856082 7.69009356 -2.20509884 582 454)"/><path d="m-.5-.5h1v1h-1z" fill="#938b6e" transform="matrix(3.4123416 27.79129224 -218.36015336 26.81125556 958 326)"/><path d="m-.5-.5h1v1h-1z" fill="#644937" transform="matrix(83.44341684 80.58037096 -58.35130312 60.42454324 518 262)"/><path d="m-.5-.5h1v1h-1z" fill="#b99270" transform="matrix(67.95857624 2.37316576 -.41879396 11.99268992 862 386)"/><path d="m-.5-.5h1v1h-1z" fill="#101219" transform="matrix(-.83737528 15.97807256 -107.85198976 -5.65228328 822 458)"/><path d="m-.5-.5h1v1h-1z" fill="#695d56" transform="matrix(-79.4522332 -170.38586396 50.75323608 -23.66662264 314 494)"/><path d="m-.5-.5h1v1h-1z" fill="#7c6551" transform="matrix(-.83771552 47.99268936 -91.98598796 -1.6056214 454 530)"/><path d="m-.5-.5h1v1h-1z" fill="#b08a6d" transform="matrix(-12.711734 -24.94818268 217.40559192 -110.77368192 2 614)"/><path d="m-.5-.5h1v1h-1z" fill="#c8ce81" transform="matrix(50.66724336 11.69745484 -5.39882532 23.38488156 550 38)"/><path d="m-.5-.5h1v1h-1z" fill="#131627" transform="matrix(21.791544 -42.76831316 106.92078292 54.47885996 930 258)"/><path d="m-.5-.5h1v1h-1z" fill="#d2c8c0" transform="matrix(-5.80612548 -23.28709744 50.45537776 -12.57993856 582 226)"/><path d="m-.5-.5h1v1h-1z" fill="#b59273" transform="matrix(-86.20479976 -77.61915032 2.67652244 -2.97257932 698 562)"/><path d="m-.5-.5h1v1h-1z" fill="#ecffff" transform="matrix(8.65247584 -26.62958244 15.21690428 4.94427192 162 146)"/><path d="m-.5-.5h1v1h-1z" fill="#e4d0b9" transform="matrix(27.34772496 -79.42356036 7.5641486 2.60454524 378 206)"/><path d="m-.5-.5h1v1h-1z" fill="#845b3a" transform="matrix(16.57423072 -134.98627664 3.9701846 .48747736 546 474)"/><path d="m-.5-.5h1v1h-1z" fill="#ebcfaa" transform="matrix(27.13753908 -16.95741644 48.75257232 78.02042484 530 518)"/><path d="m-.5-.5h1v1h-1z" fill="#372e2b" transform="matrix(-34.93064616 -8.70918824 49.35206672 -197.94032816 366 666)"/><path d="m-.5-.5h1v1h-1z" fill="#ba987c" transform="matrix(74.33921764 15.80128852 -3.32658704 15.6503616 814 414)"/><path d="m-.5-.5h1v1h-1z" fill="#f2e7d2" transform="matrix(59.26130044 -9.38606792 11.88901936 75.06431388 510 382)"/><path d="m-.5-.5h1v1h-1z" fill="#7f833f" transform="matrix(-7.167359 -18.67160852 126.966938 -48.73804112 530 62)"/><path d="m-.5-.5h1v1h-1z" fill="#6f6627" transform="matrix(115.55858496 -10.11006616 3.48622972 39.84778792 690 230)"/><path d="m-.5-.5h1v1h-1z" fill="#bdceda" transform="matrix(-23.15353788 80.74598244 -3.8450468 -1.10254944 210 198)"/><path d="m-.5-.5h1v1h-1z" fill="#444747" transform="matrix(3.95075336 .62573788 -48.80755308 308.15876228 218 210)"/><path d="m-.5-.5h1v1h-1z" fill="#b59070" transform="matrix(-239.41537208 -16.74155368 .27902588 -3.9902562 826 442)"/><path d="m-.5-.5h1v1h-1z" fill="#fbffff" transform="matrix(-12.97501168 -66.75064848 11.7795262 -2.28970796 378 70)"/><path d="m-.5-.5h1v1h-1z" fill="#b7bac5" transform="matrix(-27.16954488 23.61812504 -47.23625008 -54.33908976 490 326)"/><path d="m-.5-.5h1v1h-1z" fill="#1d181b" transform="matrix(-.69724596 7.9695576 -147.43681532 -12.89904992 982 474)"/><path d="m-.5-.5h1v1h-1z" fill="#474749" transform="matrix(-227.44460344 15.904476 -.5580518 -7.9805124 290 354)"/><path d="m-.5-.5h1v1h-1z" fill="#d5d132" transform="matrix(23.86852548 -2.50868312 5.01736624 47.73705096 590 138)"/><path d="m-.5-.5h1v1h-1z" fill="#dfe2d1" transform="matrix(-23.38973636 76.50438048 -3.82521904 -1.1694868 530 66)"/><path d="m-.5-.5h1v1h-1z" fill="#08101e" transform="matrix(-9.26207008 75.43350752 -31.76147684 -3.899819 798 346)"/><path d="m-.5-.5h1v1h-1z" fill="#38180d" transform="matrix(3.9902562 -.27902588 7.25467328 103.74666124 442 442)"/><path d="m-.5-.5h1v1h-1z" fill="#97a98a" transform="matrix(19.41640788 -14.10684604 32.91597412 45.30495168 426 18)"/><path d="m-.5-.5h1v1h-1z" fill="#0e171d" transform="matrix(84.64107632 -116.4984472 25.8885438 18.80912808 838 38)"/><path d="m-.5-.5h1v1h-1z" fill="#050e1c" transform="matrix(-2.351141 3.23606796 -161.80339888 -117.55705044 862 614)"/><path d="m-.5-.5h1v1h-1z" fill="#ecceb3" transform="matrix(70.6771572 -13.73824768 3.05294392 15.70603492 362 434)"/><path d="m-.5-.5h1v1h-1z" fill="#2f2121" transform="matrix(31.08583844 25.17281564 -65.44932068 80.82318 434 258)"/><path d="m-.5-.5h1v1h-1z" fill="#b7b6a2" transform="matrix(-55.42562584 32 -12 -20.78460968 366 238)"/><path d="m-.5-.5h1v1h-1z" fill="#f1f7ff" transform="matrix(36 62.35382908 -38.10511776 22 438 86)"/><path d="m-.5-.5h1v1h-1z" fill="#7c634f" transform="matrix(223.39403576 194.1934726 -10.49694448 12.07535328 890 666)"/><path d="m-.5-.5h1v1h-1z" fill="#232229" transform="matrix(-35.76081084 168.24138732 -11.7377712 -2.49494028 210 130)"/><path d="m-.5-.5h1v1h-1z" fill="#db9" transform="matrix(-15.28103964 86.66308228 -3.939231 -.69459272 426 482)"/><path d="m-.5-.5h1v1h-1z" fill="#4d413a" transform="matrix(-7.52604936 71.60557648 -63.64940132 -6.68982164 158 494)"/><path d="m-.5-.5h1v1h-1z" fill="#676c62" transform="matrix(20.5212086 56.38155724 -30.07016388 10.9446446 842 118)"/><path d="m-.5-.5h1v1h-1z" fill="#a9b8c4" transform="matrix(3.9701846 .48747736 -7.79963796 63.52295372 230 98)"/><path d="m-.5-.5h1v1h-1z" fill="#fff" transform="matrix(2.51728156 3.10858384 -62.17167692 50.34563128 546 174)"/><path d="m-.5-.5h1v1h-1z" fill="#5e372a" transform="matrix(15.42690264 18.38506664 -36.77013328 30.85380528 550 142)"/><path d="m-.5-.5h1v1h-1z" fill="#eec89d" transform="matrix(70.46597296 28.47010108 -7.49213188 18.54367708 798 506)"/><path d="m-.5-.5h1v1h-1z" fill="#d1e8ff" transform="matrix(43.9731964 -1.53557784 .55839196 15.99025324 186 102)"/><path d="m-.5-.5h1v1h-1z" fill="#ffe9bf" transform="matrix(14.86289652 -13.38261212 18.73565696 20.80805512 682 462)"/><path d="m-.5-.5h1v1h-1z" fill="#423b26" transform="matrix(-17.08252556 -195.25416084 7.9695576 -.69724596 322 154)"/><path d="m-.5-.5h1v1h-1z" fill="#514831" transform="matrix(-79.01506724 -12.5147572 8.1345922 -51.35979372 750 178)"/><path d="m-.5-.5h1v1h-1z" fill="#7b9ac3" transform="matrix(1.675431 -95.98537872 31.99512624 .558477 90 10)"/><path d="m-.5-.5h1v1h-1z" fill="#ddd2be" transform="matrix(-46.9655518 -30.49978596 6.53566844 -10.0640468 350 142)"/><path d="m-.5-.5h1v1h-1z" fill="#b9baad" transform="matrix(38.48326712 -21.33162328 3.87847696 6.99695764 782 274)"/><path d="m-.5-.5h1v1h-1z" fill="#292025" transform="matrix(137.42780568 26.71325936 -11.44853972 58.897631 666 282)"/><path d="m-.5-.5h1v1h-1z" fill="#483931" transform="matrix(-95.47410196 -10.03473248 8.36227708 -79.56175164 130 238)"/><path d="m-.5-.5h1v1h-1z" fill="#65523f" transform="matrix(80.58037096 83.44341684 -8.6320776 8.33590044 826 502)"/><path d="m-.5-.5h1v1h-1z" fill="#a6876a" transform="matrix(126.09700424 50.94649672 -25.47324836 63.04850212 938 586)"/><path d="m-.5-.5h1v1h-1z" fill="#a29c66" transform="matrix(3.939231 .69459272 -36.11882096 204.84001264 582 134)"/><path d="m-.5-.5h1v1h-1z" fill="#3f470f" transform="matrix(116.43548716 29.03062748 -5.80612548 23.28709744 498 2)"/><path d="m-.5-.5h1v1h-1z" fill="#956040" transform="matrix(-7.75695392 -13.99391532 143.43763196 -79.50877772 450 302)"/><path d="m-.5-.5h1v1h-1z" fill="#483026" transform="matrix(47.53286728 -6.68030884 7.23700124 51.49393956 130 130)"/><path d="m-.5-.5h1v1h-1z" fill="#ffe8c6" transform="matrix(8.18398032 -8.7762444 17.55248884 16.36796064 398 390)"/><path d="m-.5-.5h1v1h-1z" fill="#76651b" transform="matrix(-17.41837648 -69.86129228 27.16828032 -6.77381308 862 282)"/><path d="m-.5-.5h1v1h-1z" fill="#ca9e72" transform="matrix(282.05034128 -75.57516116 3.10582856 11.59110992 134 410)"/><path d="m-.5-.5h1v1h-1z" fill="#cbbd94" transform="matrix(14.83281572 45.6507128 -19.02113032 6.18033988 910 314)"/><path d="m-.5-.5h1v1h-1z" fill="#332e20" transform="matrix(-34.93064616 -8.70918824 5.80612548 -23.28709744 250 166)"/><path d="m-.5-.5h1v1h-1z" fill="#090d1b" transform="matrix(66.41444304 57.73319456 -2.62423612 3.01883832 894 382)"/><path d="m-.5-.5h1v1h-1z" fill="#f5dad8" transform="matrix(-.139598 3.99756332 -131.91958916 -4.60673356 970 378)"/><path d="m-.5-.5h1v1h-1z" fill="#282c22" transform="matrix(70.9061582 12.5026688 -18.05941048 102.42000632 882 162)"/><path d="m-.5-.5h1v1h-1z" fill="#9d8776" transform="matrix(-43.59180916 -62.25555536 42.59590632 -29.82597468 362 482)"/><path d="m-.5-.5h1v1h-1z" fill="#402c26" transform="matrix(19.12787556 89.98957928 -54.77626564 11.64305468 458 178)"/><path d="m-.5-.5h1v1h-1z" fill="#3b4343" transform="matrix(2.92486424 -23.82110764 83.37387672 10.23702484 318 298)"/><path d="m-.5-.5h1v1h-1z" fill="#745845" transform="matrix(181.20462656 31.95126468 -2.77837084 15.75692404 674 490)"/><path d="m-.5-.5h1v1h-1z" fill="#fff" transform="matrix(17.49239416 9.6961924 -15.51390784 27.98783064 486 106)"/><path d="m-.5-.5h1v1h-1z" fill="#d9b791" transform="matrix(122.3882688 49.44807032 -4.49527912 11.12620624 886 566)"/><path d="m-.5-.5h1v1h-1z" fill="#0c0309" transform="matrix(3.06417776 -2.57115044 23.14035396 27.57759996 386 146)"/><path d="m-.5-.5h1v1h-1z" fill="#40350f" transform="matrix(-28.06293988 112.55430424 -11.64354872 -2.90306276 518 50)"/><path d="m-.5-.5h1v1h-1z" fill="#f6f6fb" transform="matrix(-49.72784732 15.20332864 -7.01692092 -22.95131416 550 174)"/><path d="m-.5-.5h1v1h-1z" fill="#33271e" transform="matrix(103.28091364 -31.57614412 2.33897364 7.65043804 26 418)"/><path d="m-.5-.5h1v1h-1z" fill="#fff2d7" transform="matrix(.41811384 3.9780876 -95.47410196 10.03473248 278 398)"/><path d="m-.5-.5h1v1h-1z" fill="#372d28" transform="matrix(3.152043 -2.46264592 125.59494096 160.75419372 658 546)"/><path d="m-.5-.5h1v1h-1z" fill="#58483e" transform="matrix(-104.79193844 26.12756472 -15.48300132 -62.09892648 106 622)"/><path d="m-.5-.5h1v1h-1z" fill="#191b22" transform="matrix(8.13473288 18.27090916 -87.70036392 39.04671772 42 554)"/><path d="m-.5-.5h1v1h-1z" fill="#fffeb9" transform="matrix(1.3022726 3.78207432 -52.94904024 18.23181664 334 366)"/><path d="m-.5-.5h1v1h-1z" fill="#12161c" transform="matrix(18.80912808 25.8885438 -58.2492236 42.32053816 234 2)"/><path d="m-.5-.5h1v1h-1z" fill="#37221d" transform="matrix(-20.35315432 -12.71806236 31.79515584 -50.88288576 382 358)"/><path d="m-.5-.5h1v1h-1z" fill="#2c2a2b" transform="matrix(-.763236 -3.92650872 90.30970088 -17.55442756 110 102)"/><path d="m-.5-.5h1v1h-1z" fill="#5f550d" transform="matrix(-.69724596 7.9695576 -111.5738062 -9.7614432 898 310)"/><path d="m-.5-.5h1v1h-1z" fill="#ffdfae" transform="matrix(-25.17281564 -31.08583844 3.10858384 -2.51728156 630 534)"/><path d="m-.5-.5h1v1h-1z" fill="#a27a5d" transform="matrix(15.62924512 -36.82019412 95.73250476 40.63603736 1006 510)"/><path d="m-.5-.5h1v1h-1z" fill="#202b11" transform="matrix(35.3385786 -6.86912384 6.10588784 31.41206988 610 98)"/><path d="m-.5-.5h1v1h-1z" fill="#838523" transform="matrix(34.77332976 -9.31748564 12.42331416 46.36443968 650 38)"/><path d="m-.5-.5h1v1h-1z" fill="#94896d" transform="matrix(-29.5046974 -209.93683056 11.88321684 -1.6700772 310 194)"/><path d="m-.5-.5h1v1h-1z" fill="#dae7fc" transform="matrix(99.41452416 -42.19896188 6.25169804 14.72807764 34 234)"/><path d="m-.5-.5h1v1h-1z" fill="#ffef9f" transform="matrix(.20934384 3.99451812 -151.79168928 7.95506536 250 374)"/><path d="m-.5-.5h1v1h-1z" fill="#adb3bd" transform="matrix(15.04888632 41.34647532 -30.07016388 10.9446446 378 298)"/><path d="m-.5-.5h1v1h-1z" fill="#ccb29b" transform="matrix(-4.1879396 -119.92689924 19.98781656 -.69798992 462 450)"/><path d="m-.5-.5h1v1h-1z" fill="#a5c6f8" transform="matrix(-86.21990756 58.15606196 -11.18385808 -16.58075144 66 2)"/><path d="m-.5-.5h1v1h-1z" fill="#a79770" transform="matrix(9.72429796 -55.14923416 3.939231 .69459272 818 346)"/><path d="m-.5-.5h1v1h-1z" fill="#eaf6fe" transform="matrix(6.9724594 -79.69557584 3.9847788 .34862296 410 58)"/><path d="m-.5-.5h1v1h-1z" fill="#a29c39" transform="matrix(4.49527912 -11.12620624 77.8834438 31.46695384 758 138)"/><path d="m-.5-.5h1v1h-1z" fill="#fff" transform="matrix(-4.8145202 6.38908408 -15.9727102 -12.03630048 550 218)"/><path d="m-.5-.5h1v1h-1z" fill="#492217" transform="matrix(11.93426276 -1.25434156 18.39700952 175.0358536 150 298)"/><path d="m-.5-.5h1v1h-1z" fill="#3d2c27" transform="matrix(2.50295144 15.80301344 -130.37486096 20.6493494 1010 534)"/><path d="m-.5-.5h1v1h-1z" fill="#40382b" transform="matrix(-3.34831072 47.8830744 -115.71742984 -8.09175096 718 78)"/><path d="m-.5-.5h1v1h-1z" fill="#0a1122" transform="matrix(19.98781656 -.69798992 5.02552752 143.91227908 834 302)"/><path d="m-.5-.5h1v1h-1z" fill="#bd9a72" transform="matrix(76 0 0 104 546 646)"/><path d="m-.5-.5h1v1h-1z" fill="#443832" transform="matrix(-66.19290332 51.71556392 -22.16381312 -28.36838712 230 586)"/><path d="m-.5-.5h1v1h-1z" fill="#42291a" transform="matrix(-16.37281548 53.55306632 -3.82521904 -1.1694868 566 230)"/><path d="m-.5-.5h1v1h-1z" fill="#b7b331" transform="matrix(-80.32959952 24.5592232 -3.50846044 -11.47565708 642 118)"/><path d="m-.5-.5h1v1h-1z" fill="#f6ffff" transform="matrix(-32.62708032 -15.21425744 1.69047304 -3.62523116 90 186)"/><path d="m-.5-.5h1v1h-1z" fill="#5c2a14" transform="matrix(-3.99756332 -.139598 8.79467316 -251.8464884 594 530)"/><path d="m-.5-.5h1v1h-1z" fill="#5f5148" transform="matrix(-1.67415536 -23.9415372 215.47383484 -15.06739832 110 486)"/><path d="m-.5-.5h1v1h-1z" fill="#636651" transform="matrix(-13.42062968 19.89690176 -36.4776532 -24.60448776 934 162)"/><path d="m-.5-.5h1v1h-1z" fill="#11131f" transform="matrix(2.99685276 -7.41747084 137.22321048 55.44177584 774 242)"/><path d="m-.5-.5h1v1h-1z" fill="#46381d" transform="matrix(.41811384 -3.9780876 63.64940132 6.68982164 334 94)"/><path d="m-.5-.5h1v1h-1z" fill="#ffffda" transform="matrix(-17.82013048 9.07981 -1.815962 -3.56402608 762 382)"/><path d="m-.5-.5h1v1h-1z" fill="#ebc6a2" transform="matrix(83.69297344 27.19349552 -1.23606796 3.80422608 686 430)"/><path d="m-.5-.5h1v1h-1z" fill="#f2f7ff" transform="matrix(-35.97806976 -1.25638188 .55839196 -15.99025324 402 134)"/><path d="m-.5-.5h1v1h-1z" fill="#e2e4e6" transform="matrix(59.74914728 22.93554876 -2.8669436 7.4686434 250 210)"/><path d="m-.5-.5h1v1h-1z" fill="#fff2d1" transform="matrix(13.01557256 29.23345464 -14.61672732 6.50778628 558 494)"/><path d="m-.5-.5h1v1h-1z" fill="#e6f3ff" transform="matrix(-3.4286692 2.06015228 -32.9624368 -54.85870724 90 142)"/><path d="m-.5-.5h1v1h-1z" fill="#341a11" transform="matrix(-10.57715568 75.26037324 -3.96107228 -.5566924 418 434)"/><path d="m-.5-.5h1v1h-1z" fill="#908a27" transform="matrix(2.07055236 -7.7274066 154.5481322 41.4110472 674 186)"/><path d="m-.5-.5h1v1h-1z" fill="#111922" transform="matrix(-261.43077016 -36.74169864 .5566924 -3.96107228 906 406)"/><path d="m-.5-.5h1v1h-1z" fill="#f1caaa" transform="matrix(2.08377812 11.81769304 -149.69077844 26.394523 58 462)"/><path d="m-.5-.5h1v1h-1z" fill="#d5a580" transform="matrix(-75.98842484 1.32638288 -.34904812 -19.99695392 18 394)"/><path d="m-.5-.5h1v1h-1z" fill="#36381d" transform="matrix(-79.80512404 -5.58051788 1.11610356 -15.9610248 638 146)"/><path d="m-.5-.5h1v1h-1z" fill="#4f6a83" transform="matrix(-2.06015228 3.4286692 -51.43003804 -30.90228448 62 194)"/><path d="m-.5-.5h1v1h-1z" fill="#9ea5ae" transform="matrix(-75.8148678 -5.301492 3.90636252 -55.8635868 246 310)"/><path d="m-.5-.5h1v1h-1z" fill="#36383a" transform="matrix(-54.0762432 -74.42956348 12.94427192 -9.40456404 290 298)"/><path d="m-.5-.5h1v1h-1z" fill="#f0f8ff" transform="matrix(19.65964908 13.76583448 -22.94305744 32.76608176 470 46)"/><path d="m-.5-.5h1v1h-1z" fill="#936200" transform="matrix(-1.6724554 15.91235032 -19.89043792 -2.09056928 538 598)"/><path d="m-.5-.5h1v1h-1z" fill="#42402e" transform="matrix(22.95131416 -7.01692092 17.54230228 57.37828536 338 174)"/><path d="m-.5-.5h1v1h-1z" fill="#84919a" transform="matrix(35.06969176 71.90352372 -7.19035236 3.50696916 94 298)"/><path d="m-.5-.5h1v1h-1z" fill="#414929" transform="matrix(3.80422608 -1.23606796 16.06888372 49.45493884 446 18)"/><path d="m-.5-.5h1v1h-1z" fill="#4b3c32" transform="matrix(-103.22479976 -12.67441172 .48747736 -3.9701846 722 446)"/><path d="m-.5-.5h1v1h-1z" fill="#0e1a2a" transform="matrix(40.13721036 -104.56100776 74.68643412 28.66943596 1006 146)"/><path d="m-.5-.5h1v1h-1z" fill="#9cb3c7" transform="matrix(17.19216964 40.50221356 -3.6820194 1.56292452 294 50)"/><path d="m-.5-.5h1v1h-1z" fill="#01192b" transform="matrix(-21.66534084 -28.75087836 6.38908408 -4.8145202 66 250)"/><path d="m-.5-.5h1v1h-1z" fill="#262d38" transform="matrix(0 -12 92 0 138 70)"/><path d="m-.5-.5h1v1h-1z" fill="#481e0d" transform="matrix(-3.80422608 1.23606796 -11.1246118 -34.2380346 574 474)"/><path d="m-.5-.5h1v1h-1z" fill="#ae8a6e" transform="matrix(2.28970796 -11.7795262 125.64827948 24.4235514 1010 406)"/><path d="m-.5-.5h1v1h-1z" fill="#d5e2ff" transform="matrix(57.95554956 15.52914272 -11.388038 42.50073636 62 70)"/><path d="m-.5-.5h1v1h-1z" fill="#786259" transform="matrix(-.34862296 -3.9847788 151.42159412 -13.24767288 294 406)"/><path d="m-.5-.5h1v1h-1z" fill="#728298" transform="matrix(0 -52 12 0 910 2)"/><path d="m-.5-.5h1v1h-1z" fill="#545326" transform="matrix(17.32050808 10 -40 69.28203232 974 82)"/><path d="m-.5-.5h1v1h-1z" fill="#5c605d" transform="matrix(2.06015228 3.4286692 -102.86007608 61.804569 950 226)"/><path d="m-.5-.5h1v1h-1z" fill="#31394b" transform="matrix(89.44717712 -67.4032826 2.40726008 3.19454204 102 2)"/><path d="m-.5-.5h1v1h-1z" fill="#c4d4e7" transform="matrix(-10.28460176 -12.25671108 52.09102212 -43.70955744 350 2)"/><path d="m-.5-.5h1v1h-1z" fill="#3f4435" transform="matrix(-15.03508192 5.47232228 -8.20848344 -22.55262288 586 198)"/><path d="m-.5-.5h1v1h-1z" fill="#c5c1ac" transform="matrix(-2.11967704 3.3921924 -33.92192384 -21.19677056 174 170)"/><path d="m-.5-.5h1v1h-1z" fill="#a3b3be" transform="matrix(20.601523 34.28669204 -3.4286692 2.06015228 238 74)"/><path d="m-.5-.5h1v1h-1z" fill="#282426" transform="matrix(9.31748564 -34.77332976 46.36443968 12.42331416 938 466)"/><path d="m-.5-.5h1v1h-1z" fill="#f7fdff" transform="matrix(91.31424596 11.2119796 -.48747736 3.9701846 18 210)"/><path d="m-.5-.5h1v1h-1z" fill="#2a271d" transform="matrix(117.97172724 113.92397276 -2.77863348 2.8773592 290 66)"/><path d="m-.5-.5h1v1h-1z" fill="#6f8197" transform="matrix(-55.69322616 -5.85359396 .41811384 -3.9780876 498 346)"/><path d="m-.5-.5h1v1h-1z" fill="#5f4c48" transform="matrix(-22.627417 -22.627417 11.31370848 -11.31370848 426 130)"/><path d="m-.5-.5h1v1h-1z" fill="#815433" transform="matrix(24.4235514 125.64827948 -3.92650872 .763236 550 406)"/><path d="m-.5-.5h1v1h-1z" fill="#a9b1bc" transform="matrix(19.48740128 4.49902108 -2.69941264 11.69244076 162 18)"/><path d="m-.5-.5h1v1h-1z" fill="#bdaba0" transform="matrix(.69459272 3.939231 -90.60231328 15.97563236 346 174)"/><path d="m-.5-.5h1v1h-1z" fill="#e4e8e3" transform="matrix(78.25180804 16.63293528 -.83164676 3.9125904 642 194)"/><path d="m-.5-.5h1v1h-1z" fill="#d9e6d4" transform="matrix(-3.56402608 1.815962 -9.07981 -17.82013048 594 62)"/><path d="m-.5-.5h1v1h-1z" fill="#2b2312" transform="matrix(-43.48159956 162.2755388 -3.86370332 -1.0352762 590 34)"/><path d="m-.5-.5h1v1h-1z" fill="#949768" transform="matrix(1.49842636 3.7087354 -37.0873542 14.98426372 870 62)"/><path d="m-.5-.5h1v1h-1z" fill="#a37652" transform="matrix(19.02113032 6.18033988 -17.30495168 53.25916492 726 382)"/><path d="m-.5-.5h1v1h-1z" fill="#3a302b" transform="matrix(-90.60231328 -15.97563236 3.47296356 -19.69615508 778 450)"/><path d="m-.5-.5h1v1h-1z" fill="#19181f" transform="matrix(2.8669436 -7.4686434 115.76397288 44.43762576 1022 574)"/><path d="m-.5-.5h1v1h-1z" fill="#262d35" transform="matrix(216.36738508 57.97546612 -1.0352762 3.86370332 198 50)"/><path d="m-.5-.5h1v1h-1z" fill="#ffffe9" transform="matrix(67.90680836 -3.55884504 1.04671912 19.97259068 494 362)"/><path d="m-.5-.5h1v1h-1z" fill="#635c57" transform="matrix(-.69724596 7.9695576 -131.49770016 -11.50455804 342 410)"/><path d="m-.5-.5h1v1h-1z" fill="#d1aa90" transform="matrix(-48.21356044 19.47954284 -1.49842636 -3.7087354 154 546)"/><path d="m-.5-.5h1v1h-1z" fill="#c6a27e" transform="matrix(115.92933592 4.0483416 -.139598 3.99756332 30 370)"/><path d="m-.5-.5h1v1h-1z" fill="#1c0b19" transform="matrix(-14.72807764 -6.25169804 3.12584904 -7.36403884 518 666)"/><path d="m-.5-.5h1v1h-1z" fill="#5d621f" transform="matrix(-2.351141 -3.23606796 93.84597136 -68.18308928 470 2)"/><path d="m-.5-.5h1v1h-1z" fill="#5a473a" transform="matrix(-11.72045356 34.03866872 -109.68015476 -37.76590592 994 666)"/><path d="m-.5-.5h1v1h-1z" fill="#929799" transform="matrix(-3.01883832 -2.62423612 52.48472232 -60.3767664 446 78)"/><path d="m-.5-.5h1v1h-1z" fill="#f4d0a7" transform="matrix(3.75442716 23.70452016 -118.52260088 18.7721358 170 430)"/><path d="m-.5-.5h1v1h-1z" fill="#c8e6ff" transform="matrix(-2.2367716 3.31615028 -16.58075144 -11.18385808 158 50)"/><path d="m-.5-.5h1v1h-1z" fill="#b8b692" transform="matrix(1.0352762 -3.86370332 177.73035204 47.62270428 666 238)"/><path d="m-.5-.5h1v1h-1z" fill="#afb3ab" transform="matrix(-15.64344652 -98.76883404 3.95075336 -.62573788 770 310)"/><path d="m-.5-.5h1v1h-1z" fill="#b9a67e" transform="matrix(-121.29030248 -25.78104968 .83164676 -3.9125904 322 262)"/><path d="m-.5-.5h1v1h-1z" fill="#eab283" transform="matrix(-47.8830744 -3.34831072 .27902588 -3.9902562 918 462)"/><path d="m-.5-.5h1v1h-1z" fill="#1d231f" transform="matrix(62.09892648 -15.48300132 14.51531372 58.21774356 978 278)"/><path d="m-.5-.5h1v1h-1z" fill="#2f3435" transform="matrix(25.60785056 -182.20932464 3.96107228 .5566924 210 250)"/><path d="m-.5-.5h1v1h-1z" fill="#d6dfdf" transform="matrix(-3.9780876 .41811384 -20.4875788 -194.92629148 382 18)"/><path d="m-.5-.5h1v1h-1z" fill="#b08665" transform="matrix(62.60144644 13.3063482 -5.82152736 27.38813284 798 530)"/><path d="m-.5-.5h1v1h-1z" fill="#2a2021" transform="matrix(15.28209924 291.59982416 -3.99451812 .20934384 742 570)"/><path d="m-.5-.5h1v1h-1z" fill="#472623" transform="matrix(-3.62733664 -51.8733306 11.9707686 -.83707768 394 46)"/><path d="m-.5-.5h1v1h-1z" fill="#d6b289" transform="matrix(34.40332316 -89.62372096 29.87457364 11.4677744 426 598)"/><path d="m-.5-.5h1v1h-1z" fill="#c9d1df" transform="matrix(3.8450468 1.10254944 -16.53824136 57.67570176 202 218)"/><path d="m-.5-.5h1v1h-1z" fill="#877b3b" transform="matrix(-106.94895144 15.03069492 -.5566924 -3.96107228 794 198)"/><path d="m-.5-.5h1v1h-1z" fill="#d4ab7c" transform="matrix(4.86214896 -27.57461708 35.45307912 6.2513344 362 218)"/></g></svg>