<svg xmlns="http://www.w3.org/2000/svg" version="1.1" width="1024" height="572">
<rect x="0" y="0" width="1024" height="572" fill="#095367" />
<g transform="scale(4.000000) translate(0.5 0.5)">
<g transform="translate(205.108696 76.116780) rotate(-0.174945) scale(69.867448 158.335560)"><ellipse fill="#000000" fill-opacity="0.501961" cx="0" cy="0" rx="1" ry="1" /></g>
<g transform="translate(54.155605 69.602057) rotate(80.780024) scale(151.769211 80.858471)"><ellipse fill="#14c6ea" fill-opacity="0.501961" cx="0" cy="0" rx="1" ry="1" /></g>
<ellipse fill="#000006" fill-opacity="0.501961" cx="213" cy="82" rx="85" ry="85" />
<polygon fill="#e8d7ee" fill-opacity="0.501961" points="115.618260,89.134090,139.134940,139.274250,127.287049,76.804250,144.999984,28.635145" />
<polygon fill="#d2ddf9" fill-opacity="0.501961" points="134.042189,-2.981416,116.191683,25.222837,121.590241,48.900697,136.188072,-3.004096" />
<g transform="translate(134.668666 138.587522) rotate(354.154827) scale(6.306471 15.252946)"><ellipse fill="#dad7f8" fill-opacity="0.501961" cx="0" cy="0" rx="1" ry="1" /></g>
<polygon fill="#c9d9f1" fill-opacity="0.501961" points="141.291430,49.725650,128.326238,70.733260,125.983119,104.526524,120.800006,56.568933" />
<ellipse fill="#000e1c" fill-opacity="0.501961" cx="163" cy="15" rx="28" ry="94" />
<ellipse fill="#008ea9" fill-opacity="0.501961" cx="33" cy="68" rx="89" ry="89" />
<polygon fill="#0a304d" fill-opacity="0.501961" points="156.816323,26.405183,137.915729,126.927725,126.204977,87.177758,130.906309,64.124565" />
<polygon fill="#dff7ff" fill-opacity="0.501961" points="129.594264,16.921701,142.766128,-16.000000,134.454993,-9.302963,124.996074,19.910281" />
<polygon fill="#386d96" fill-opacity="0.501961" points="114,72 113,158 134,139" />
<polygon fill="#edf8ff" fill-opacity="0.501961" points="132.831263,110.528870,121.740616,84.907765,129.201831,116.840884,142.724091,158.000000" />
<polygon fill="#55769f" fill-opacity="0.501961" points="119.257214,85.444218,123.987932,31.864643,139.471575,40.142648,123.221184,61.109924" />
<ellipse fill="#0f4570" fill-opacity="0.501961" cx="129" cy="28" rx="4" ry="13" />
<g transform="translate(67.313462 132.978262) rotate(307.523485) scale(29.268580 33.576740)"><ellipse fill="#007d98" fill-opacity="0.501961" cx="0" cy="0" rx="1" ry="1" /></g>
<rect fill="#d8f1fa" fill-opacity="0.501961" x="123" y="52" width="3" height="47" />
<ellipse fill="#097ca0" fill-opacity="0.501961" cx="97" cy="1" rx="33" ry="23" />
<rect fill="#19729b" fill-opacity="0.501961" x="115" y="57" width="9" height="27" />
<ellipse fill="#8dc3e8" fill-opacity="0.501961" cx="133" cy="56" rx="5" ry="5" />
<g transform="translate(122 42) rotate(266) scale(20 1)"><rect fill="#fffeff" fill-opacity="0.501961" x="-0.5" y="-0.5" width="1" height="1" /></g>
<rect fill="#001d42" fill-opacity="0.501961" x="127" y="86" width="5" height="10" />
<polygon fill="#8dbae0" fill-opacity="0.501961" points="126,43 134,38 133,50" />
<g transform="translate(226.586738 81.845386) rotate(302.393421) scale(125.066609 62.114890)"><ellipse fill="#000e18" fill-opacity="0.501961" cx="0" cy="0" rx="1" ry="1" /></g>
<rect fill="#0d5276" fill-opacity="0.501961" x="124" y="26" width="4" height="27" />
<polygon fill="#2a7ea0" fill-opacity="0.501961" points="124,99 132,121 99,112" />
<rect fill="#437a99" fill-opacity="0.501961" x="132" y="87" width="2" height="23" />
<polygon fill="#0e5379" fill-opacity="0.501961" points="129.036026,45.910972,123.245537,59.214902,139.697606,47.561809,142.445966,40.227805" />
<g transform="translate(44.393451 45.507468) rotate(217.600354) scale(89.338131 32.763734)"><ellipse fill="#0893b0" fill-opacity="0.501961" cx="0" cy="0" rx="1" ry="1" /></g>
<polygon fill="#a7d3e9" fill-opacity="0.501961" points="117.984257,24.518285,116.364658,15.209594,127.943046,17.302980,129.598323,19.945434" />
<ellipse fill="#00131e" fill-opacity="0.501961" cx="171" cy="29" rx="34" ry="94" />
<polygon fill="#2b9dbc" fill-opacity="0.501961" points="126.573218,-16.000000,113.977993,31.417241,124.480386,26.021221,104.994320,22.361036" />
<g transform="translate(128 102) rotate(73) scale(31 1)"><rect fill="#ffffff" fill-opacity="0.501961" x="-0.5" y="-0.5" width="1" height="1" /></g>
<rect fill="#426c89" fill-opacity="0.501961" x="144" y="94" width="2" height="12" />
<rect fill="#ffffff" fill-opacity="0.501961" x="126" y="62" width="2" height="22" />
<g transform="translate(139 136) rotate(65) scale(8 2)"><rect fill="#e0f9ff" fill-opacity="0.501961" x="-0.5" y="-0.5" width="1" height="1" /></g>
<rect fill="#5dafd4" fill-opacity="0.501961" x="88" y="27" width="14" height="4" />
<g transform="translate(110.631569 103.825797) rotate(18.390183) scale(4.669744 22.505674)"><ellipse fill="#2a9cb6" fill-opacity="0.501961" cx="0" cy="0" rx="1" ry="1" /></g>
<g transform="translate(135 0) rotate(297) scale(44 2)"><rect fill="#f5fdff" fill-opacity="0.501961" x="-0.5" y="-0.5" width="1" height="1" /></g>
<ellipse fill="#cbefff" fill-opacity="0.501961" cx="121" cy="91" rx="2" ry="7" />
<polygon fill="#5b94b8" fill-opacity="0.501961" points="136.942164,123.902340,112.395711,138.008593,128.247876,138.864193,125.461600,112.935800" />
<polygon fill="#000d11" fill-opacity="0.501961" points="220.328091,139.849237,165.222814,96.210989,140.450495,140.516598,135.458008,158.000000" />
<g transform="translate(75.826718 140.051797) rotate(267.577820) scale(14.921296 10.906309)"><ellipse fill="#006e8b" fill-opacity="0.501961" cx="0" cy="0" rx="1" ry="1" /></g>
<polygon fill="#09728e" fill-opacity="0.501961" points="120,125 118,98 98,158" />
<rect fill="#073862" fill-opacity="0.501961" x="133" y="1" width="6" height="29" />
<polygon fill="#052c4a" fill-opacity="0.501961" points="135.375459,88.526937,132.267545,110.895786,143.260334,138.088198,144.604278,113.643147" />
<g transform="translate(131 17) rotate(-4) scale(1 11)"><rect fill="#98b7d0" fill-opacity="0.501961" x="-0.5" y="-0.5" width="1" height="1" /></g>
<g transform="translate(130 43) rotate(84) scale(2 7)"><rect fill="#bbd8ea" fill-opacity="0.501961" x="-0.5" y="-0.5" width="1" height="1" /></g>
<g transform="translate(130 107) rotate(343) scale(1 47)"><rect fill="#f4fbfb" fill-opacity="0.501961" x="-0.5" y="-0.5" width="1" height="1" /></g>
<ellipse fill="#f5fdff" fill-opacity="0.501961" cx="120" cy="23" rx="2" ry="4" />
<rect fill="#0a6588" fill-opacity="0.501961" x="113" y="138" width="20" height="5" />
<rect fill="#b8e1ff" fill-opacity="0.501961" x="135" y="130" width="4" height="13" />
<rect fill="#002a46" fill-opacity="0.501961" x="136" y="31" width="7" height="21" />
<g transform="translate(31.826706 122.769147) rotate(236.733053) scale(34.050377 53.156160)"><ellipse fill="#008da4" fill-opacity="0.501961" cx="0" cy="0" rx="1" ry="1" /></g>
<polygon fill="#00131e" fill-opacity="0.501961" points="158.551917,30.646779,137.456694,158.000000,271.000000,-16.000000,126.804589,17.603323" />
<polygon fill="#002a41" fill-opacity="0.501961" points="146.132385,99.192439,159.774960,103.018603,134.711824,104.342431,125.614885,91.993141" />
<polygon fill="#1189a9" fill-opacity="0.501961" points="123.181515,21.385916,100.523195,79.026245,97.671226,-16.000000,110.298935,99.993698" />
<ellipse fill="#cae3f7" fill-opacity="0.501961" cx="133" cy="130" rx="4" ry="4" />
<polygon fill="#93c2ee" fill-opacity="0.501961" points="136,3 131,3 137,-4" />
<g transform="translate(10.585723 30.251691) rotate(185.726435) scale(5.975482 37.171759)"><ellipse fill="#1399b7" fill-opacity="0.501961" cx="0" cy="0" rx="1" ry="1" /></g>
<g transform="translate(77 0) rotate(156) scale(39 20)"><rect fill="#007897" fill-opacity="0.501961" x="-0.5" y="-0.5" width="1" height="1" /></g>
<g transform="translate(200.308382 51.746970) rotate(266.910376) scale(78.603201 7.975363)"><ellipse fill="#001625" fill-opacity="0.501961" cx="0" cy="0" rx="1" ry="1" /></g>
<polygon fill="#357da4" fill-opacity="0.501961" points="117.805512,89.513891,122.414256,134.596378,129.218351,110.713576,113.016297,81.852408" />
<polygon fill="#2f92b5" fill-opacity="0.501961" points="119,54 114,27 123,44" />
<g transform="translate(124 95) rotate(241) scale(18 1)"><rect fill="#ffffff" fill-opacity="0.501961" x="-0.5" y="-0.5" width="1" height="1" /></g>
<g transform="translate(126 81) rotate(101) scale(12 1)"><rect fill="#ffffff" fill-opacity="0.501961" x="-0.5" y="-0.5" width="1" height="1" /></g>
<polygon fill="#01101b" fill-opacity="0.501961" points="214.847600,29.574584,139.690593,-0.269053,132.090426,6.351747,170.014769,-11.046664" />
<g transform="translate(130 34) rotate(146) scale(1 21)"><rect fill="#65a1c8" fill-opacity="0.501961" x="-0.5" y="-0.5" width="1" height="1" /></g>
<g transform="translate(129 32) rotate(251) scale(8 10)"><rect fill="#024368" fill-opacity="0.501961" x="-0.5" y="-0.5" width="1" height="1" /></g>
<ellipse fill="#eef7fb" fill-opacity="0.501961" cx="122" cy="37" rx="2" ry="5" />
<g transform="translate(142.308793 60.600182) rotate(146.320520) scale(1.000000 1.601335)"><ellipse fill="#55819a" fill-opacity="0.501961" cx="0" cy="0" rx="1" ry="1" /></g>
<g transform="translate(130.407707 45.372677) rotate(201.392277) scale(4.358109 2.094172)"><ellipse fill="#7bafd2" fill-opacity="0.501961" cx="0" cy="0" rx="1" ry="1" /></g>
<polygon fill="#61a9cf" fill-opacity="0.501961" points="119,89 122,64 125,76" />
<polygon fill="#0d7c9c" fill-opacity="0.501961" points="114.644486,100.483546,112.241929,85.886334,116.670076,37.526728,123.058774,54.635009" />
<rect fill="#003a60" fill-opacity="0.501961" x="127" y="20" width="3" height="8" />
<g transform="translate(134 114) rotate(163) scale(1 11)"><rect fill="#266a94" fill-opacity="0.501961" x="-0.5" y="-0.5" width="1" height="1" /></g>
<polygon fill="#03161f" fill-opacity="0.501961" points="170,158 159,93 138,127" />
<ellipse fill="#007f9c" fill-opacity="0.501961" cx="105" cy="6" rx="17" ry="5" />
<polygon fill="#2f7298" fill-opacity="0.501961" points="128.924432,50.353259,140.159179,53.779514,135.510610,46.596221,123.405483,63.670948" />
<g transform="translate(105 120) rotate(199) scale(3 30)"><rect fill="#2dacc0" fill-opacity="0.501961" x="-0.5" y="-0.5" width="1" height="1" /></g>
<polygon fill="#236287" fill-opacity="0.501961" points="139.007242,59.839699,128.195352,68.935716,129.144756,74.344603,139.036674,51.621581" />
<rect fill="#cce2f1" fill-opacity="0.501961" x="133" y="120" width="4" height="13" />
<ellipse fill="#5ca0c3" fill-opacity="0.501961" cx="126" cy="135" rx="11" ry="2" />
<path stroke="#d0e5ee" stroke-opacity="0.501961" fill="none" d="M 120.267414 89.854168 Q 122.016746 99.502102, 135.388044 103.902567" stroke-width="0.500000" />
<polygon fill="#008ba7" fill-opacity="0.501961" points="63,86 51,10 33,62" />
<g transform="translate(133 56) rotate(192) scale(9 1)"><rect fill="#e8f9ff" fill-opacity="0.501961" x="-0.5" y="-0.5" width="1" height="1" /></g>
<rect fill="#000f20" fill-opacity="0.501961" x="136" y="82" width="8" height="16" />
<polygon fill="#027a9e" fill-opacity="0.501961" points="103.776515,21.254525,100.716964,58.730295,94.314835,56.538232,115.323817,39.348428" />
<polygon fill="#309cbc" fill-opacity="0.501961" points="116.088569,20.226609,104.212552,15.765354,111.624258,8.558693,127.156976,15.765653" />
<polygon fill="#4183a9" fill-opacity="0.501961" points="134.334957,120.004613,127.386278,138.777547,137.680861,156.239770,119.143249,115.095266" />
<ellipse fill="#000d13" fill-opacity="0.501961" cx="255" cy="57" rx="16" ry="239" />
<polygon fill="#055e85" fill-opacity="0.501961" points="128,7 122,14 121,8" />
<g transform="translate(130 29) rotate(184) scale(1 28)"><rect fill="#1d6489" fill-opacity="0.501961" x="-0.5" y="-0.5" width="1" height="1" /></g>
<polygon fill="#2a6b91" fill-opacity="0.501961" points="138.390166,53.825902,135.931654,47.549665,131.277967,37.639746,136.590754,55.911597" />
<ellipse fill="#0c2330" fill-opacity="0.501961" cx="151" cy="64" rx="3" ry="26" />
<g transform="translate(120.075871 89.443981) rotate(217.351932) scale(1.000000 6.527626)"><ellipse fill="#72badc" fill-opacity="0.501961" cx="0" cy="0" rx="1" ry="1" /></g>
<path stroke="#e0f2ff" stroke-opacity="0.501961" fill="none" d="M 123.235536 51.023820 Q 127.412519 70.028645, 124.805934 73.624586" stroke-width="0.500000" />
<g transform="translate(23.881137 75.408688) rotate(67.030646) scale(38.876862 10.942780)"><ellipse fill="#0496ae" fill-opacity="0.501961" cx="0" cy="0" rx="1" ry="1" /></g>
<rect fill="#00577e" fill-opacity="0.501961" x="125" y="51" width="3" height="8" />
<ellipse fill="#a7c5d1" fill-opacity="0.501961" cx="132" cy="89" rx="2" ry="2" />
<rect fill="#c3dbee" fill-opacity="0.501961" x="125" y="58" width="4" height="21" />
<g transform="translate(133 82) rotate(286) scale(29 1)"><rect fill="#002647" fill-opacity="0.501961" x="-0.5" y="-0.5" width="1" height="1" /></g>
<ellipse fill="#61b3d8" fill-opacity="0.501961" cx="91" cy="27" rx="3" ry="3" />
<g transform="translate(145 105) rotate(224) scale(2 1)"><rect fill="#6a9cb9" fill-opacity="0.501961" x="-0.5" y="-0.5" width="1" height="1" /></g>
<polygon fill="#003c60" fill-opacity="0.501961" points="130,68 128,80 138,89" />
<polygon fill="#000e15" fill-opacity="0.501961" points="135.197649,110.066949,190.672853,71.642914,203.824471,148.481681,145.544529,96.719213" />
<path stroke="#1c5373" stroke-opacity="0.501961" fill="none" d="M 130.926769 62.683522 Q 123.145337 76.216194, 142.546954 119.092554" stroke-width="0.500000" />
<g transform="translate(149.767908 48.038783) rotate(216.407972) scale(1.000000 6.987307)"><ellipse fill="#203d4d" fill-opacity="0.501961" cx="0" cy="0" rx="1" ry="1" /></g>
<g transform="translate(153 107) rotate(392) scale(1 6)"><rect fill="#22516b" fill-opacity="0.501961" x="-0.5" y="-0.5" width="1" height="1" /></g>
<g transform="translate(128 25) rotate(15) scale(1 21)"><rect fill="#004a6e" fill-opacity="0.501961" x="-0.5" y="-0.5" width="1" height="1" /></g>
<polygon fill="#04385c" fill-opacity="0.501961" points="141.908923,24.138417,125.309168,23.786288,136.790964,39.797147,132.244483,12.206129" />
<path stroke="#00131e" stroke-opacity="0.501961" fill="none" d="M 125.819055 87.496610 Q 142.499515 103.821726, 216.711418 137.356825" stroke-width="0.500000" />
<g transform="translate(128 115) rotate(-30) scale(1 8)"><rect fill="#a2c5e8" fill-opacity="0.501961" x="-0.5" y="-0.5" width="1" height="1" /></g>
<g transform="translate(131 1) rotate(55) scale(1 6)"><rect fill="#5c9cd4" fill-opacity="0.501961" x="-0.5" y="-0.5" width="1" height="1" /></g>
<g transform="translate(37 13) rotate(191) scale(3 29)"><rect fill="#18a0be" fill-opacity="0.501961" x="-0.5" y="-0.5" width="1" height="1" /></g>
<ellipse fill="#003757" fill-opacity="0.501961" cx="129" cy="88" rx="3" ry="3" />
<polygon fill="#043e5c" fill-opacity="0.501961" points="126.372503,95.763558,145.145335,109.060846,127.819720,85.063280,135.350256,65.861720" />
<ellipse fill="#f6fbff" fill-opacity="0.501961" cx="122" cy="21" rx="2" ry="2" />
<polygon fill="#1d6d91" fill-opacity="0.501961" points="116,97 126,106 127,119" />
<rect fill="#1ea0bd" fill-opacity="0.501961" x="105" y="50" width="6" height="14" />
<rect fill="#f2ffff" fill-opacity="0.501961" x="126" y="13" width="2" height="6" />
<g transform="translate(131 10) rotate(193) scale(1 10)"><rect fill="#ffffff" fill-opacity="0.501961" x="-0.5" y="-0.5" width="1" height="1" /></g>
<g transform="translate(118.893151 119.128615) rotate(163.942903) scale(1.000000 5.670594)"><ellipse fill="#045074" fill-opacity="0.501961" cx="0" cy="0" rx="1" ry="1" /></g>
<polygon fill="#227798" fill-opacity="0.501961" points="131,120 107,118 124,132" />
<g transform="translate(123 29) rotate(33) scale(25 1)"><rect fill="#2f7ea1" fill-opacity="0.501961" x="-0.5" y="-0.5" width="1" height="1" /></g>
<polygon fill="#005477" fill-opacity="0.501961" points="123,43 127,53 127,47" />
<polygon fill="#0686a4" fill-opacity="0.501961" points="113.271628,33.055181,107.485526,12.095215,46.166914,14.188144,93.174776,26.387734" />
<rect fill="#0381a0" fill-opacity="0.501961" x="26" y="0" width="10" height="17" />
<g transform="translate(132 135) rotate(373) scale(4 1)"><rect fill="#03557d" fill-opacity="0.501961" x="-0.5" y="-0.5" width="1" height="1" /></g>
<polygon fill="#244b63" fill-opacity="0.501961" points="133,77 139,77 143,74" />
<polygon fill="#aaceef" fill-opacity="0.501961" points="125.736049,150.400824,139.996819,134.729884,138.419028,156.088543,132.167685,141.822708" />
<polygon fill="#000f17" fill-opacity="0.501961" points="140.437923,84.819726,190.596062,30.174103,148.744852,51.189345,176.886613,78.482920" />
<g transform="translate(124 26) rotate(291) scale(3 3)"><rect fill="#e0eeff" fill-opacity="0.501961" x="-0.5" y="-0.5" width="1" height="1" /></g>
<g transform="translate(112.385835 136.435332) rotate(0.129838) scale(4.429937 24.679384)"><ellipse fill="#0d839d" fill-opacity="0.501961" cx="0" cy="0" rx="1" ry="1" /></g>
<polygon fill="#008499" fill-opacity="0.501961" points="15.524841,135.667302,26.396452,137.596878,-16.000000,155.323457,17.635908,122.862993" />
<g transform="translate(87.287076 106.041787) rotate(276.517319) scale(13.089298 20.074254)"><ellipse fill="#068aa7" fill-opacity="0.501961" cx="0" cy="0" rx="1" ry="1" /></g>
<polygon fill="#0989aa" fill-opacity="0.501961" points="101,51 76,52 96,24" />
<path stroke="#c0def0" stroke-opacity="0.501961" fill="none" d="M 127.569728 66.192816 Q 119.053731 43.673908, 122.305773 35.047758" stroke-width="0.500000" />
<rect fill="#488fbc" fill-opacity="0.501961" x="133" y="57" width="2" height="5" />
<ellipse fill="#aacee5" fill-opacity="0.501961" cx="131" cy="20" rx="1" ry="1" />
<rect fill="#507388" fill-opacity="0.501961" x="149" y="57" width="1" height="5" />
<ellipse fill="#a6cbe3" fill-opacity="0.501961" cx="137" cy="52" rx="1" ry="1" />
<rect fill="#477190" fill-opacity="0.501961" x="141" y="116" width="3" height="3" />
<polygon fill="#004671" fill-opacity="0.501961" points="133,20 131,13 131,18" />
<g transform="translate(151 97) rotate(295) scale(44 1)"><rect fill="#000f16" fill-opacity="0.501961" x="-0.5" y="-0.5" width="1" height="1" /></g>
<polygon fill="#b6daf2" fill-opacity="0.501961" points="142.040323,-8.720118,130.519746,5.226406,121.602869,23.302927,127.158555,13.424163" />
<polygon fill="#000a0e" fill-opacity="0.501961" points="150.034434,88.285079,173.922360,112.476500,191.506995,149.259229,177.891058,158.000000" />
<ellipse fill="#c1e6ff" fill-opacity="0.501961" cx="133" cy="41" rx="1" ry="1" />
<g transform="translate(125.513970 83.297404) rotate(49.676706) scale(2.973517 1.602228)"><ellipse fill="#def4f8" fill-opacity="0.501961" cx="0" cy="0" rx="1" ry="1" /></g>
<polygon fill="#052030" fill-opacity="0.501961" points="158.742497,105.438783,124.201352,86.999129,153.363158,108.762986,159.002758,136.720013" />
<ellipse fill="#61bddb" fill-opacity="0.501961" cx="112" cy="14" rx="2" ry="2" />
<ellipse fill="#b3d4e6" fill-opacity="0.501961" cx="129" cy="43" rx="2" ry="2" />
<polygon fill="#006e8f" fill-opacity="0.501961" points="118,81 120,61 114,59" />
<path stroke="#bbdef0" stroke-opacity="0.501961" fill="none" d="M 118.845207 43.254883 Q 125.468691 48.202494, 125.042333 72.752344" stroke-width="0.500000" />
<path stroke="#afd2ea" stroke-opacity="0.501961" fill="none" d="M 124.234114 98.654606 Q 138.991882 125.741887, 127.761726 131.205365" stroke-width="0.500000" />
<polygon fill="#00182a" fill-opacity="0.501961" points="133.226913,80.301252,143.311529,111.918255,139.435929,56.527987,144.113250,94.080677" />
<polygon fill="#042741" fill-opacity="0.501961" points="137.413842,37.556192,145.594312,39.737056,134.292626,6.176366,141.998875,-9.952089" />
<path stroke="#5f9ec9" stroke-opacity="0.501961" fill="none" d="M 132.480438 47.521848 Q 137.171750 62.314727, 130.626755 63.060783" stroke-width="0.500000" />
<ellipse fill="#108fad" fill-opacity="0.501961" cx="0" cy="15" rx="9" ry="66" />
<polygon fill="#5b99be" fill-opacity="0.501961" points="128,129 131,128 123,124" />
<path stroke="#e9f2f5" stroke-opacity="0.501961" fill="none" d="M 124.942832 92.031933 Q 132.824635 105.294533, 128.714301 110.897937" stroke-width="0.500000" />
<polygon fill="#b2d5e6" fill-opacity="0.501961" points="126.018201,69.341820,128.881752,73.746843,119.831113,43.168868,123.924504,49.537455" />
<g transform="translate(161 142) rotate(201) scale(1 2)"><rect fill="#588cab" fill-opacity="0.501961" x="-0.5" y="-0.5" width="1" height="1" /></g>
<g transform="translate(127 32) rotate(339) scale(9 1)"><rect fill="#23688b" fill-opacity="0.501961" x="-0.5" y="-0.5" width="1" height="1" /></g>
<g transform="translate(124 96) rotate(62) scale(11 1)"><rect fill="#ffffff" fill-opacity="0.501961" x="-0.5" y="-0.5" width="1" height="1" /></g>
<ellipse fill="#a2d6ea" fill-opacity="0.501961" cx="132" cy="103" rx="1" ry="1" />
<ellipse fill="#327491" fill-opacity="0.501961" cx="135" cy="27" rx="2" ry="2" />
<g transform="translate(118 113) rotate(-6) scale(1 18)"><rect fill="#07567c" fill-opacity="0.501961" x="-0.5" y="-0.5" width="1" height="1" /></g>
<g transform="translate(141 48) rotate(141) scale(4 1)"><rect fill="#3d6172" fill-opacity="0.501961" x="-0.5" y="-0.5" width="1" height="1" /></g>
<path stroke="#88bcd9" stroke-opacity="0.501961" fill="none" d="M 123.848086 19.428791 Q 121.213857 20.097225, 121.066550 44.020564" stroke-width="0.500000" />
<g transform="translate(150 127) rotate(319) scale(1 4)"><rect fill="#24526a" fill-opacity="0.501961" x="-0.5" y="-0.5" width="1" height="1" /></g>
<ellipse fill="#0d567a" fill-opacity="0.501961" cx="126" cy="142" rx="4" ry="4" />
<rect fill="#66b3d6" fill-opacity="0.501961" x="99" y="29" width="3" height="3" />
<polygon fill="#02839f" fill-opacity="0.501961" points="102.522262,147.749296,58.883423,108.512371,96.581267,109.615994,97.778755,109.043153" />
<g transform="translate(132 11) rotate(265) scale(5 1)"><rect fill="#86b2d4" fill-opacity="0.501961" x="-0.5" y="-0.5" width="1" height="1" /></g>
<rect fill="#004a6d" fill-opacity="0.501961" x="125" y="37" width="7" height="3" />
<ellipse fill="#40718f" fill-opacity="0.501961" cx="151" cy="70" rx="1" ry="1" />
<ellipse fill="#001c2e" fill-opacity="0.501961" cx="196" cy="42" rx="3" ry="23" />
<ellipse fill="#ffffff" fill-opacity="0.501961" cx="128" cy="12" rx="2" ry="2" />
<g transform="translate(121 31) rotate(268) scale(11 1)"><rect fill="#a4c9e2" fill-opacity="0.501961" x="-0.5" y="-0.5" width="1" height="1" /></g>
<polygon fill="#2998bc" fill-opacity="0.501961" points="99,43 99,37 92,35" />
<polygon fill="#cdebf9" fill-opacity="0.501961" points="138,66 139,66 137,67" />
<g transform="translate(72 60) rotate(195) scale(7 33)"><rect fill="#0b9ab6" fill-opacity="0.501961" x="-0.5" y="-0.5" width="1" height="1" /></g>
<polygon fill="#001421" fill-opacity="0.501961" points="143.868583,80.436081,163.490109,53.839913,131.648031,73.611715,136.390222,67.677693" />
<ellipse fill="#cae5fc" fill-opacity="0.501961" cx="130" cy="60" rx="2" ry="2" />
<path stroke="#051f2f" stroke-opacity="0.501961" fill="none" d="M 169.837210 93.938576 Q 142.549411 39.644718, 129.663906 44.081335" stroke-width="0.500000" />
<path stroke="#093049" stroke-opacity="0.501961" fill="none" d="M 126.244880 -6.449385 Q 160.405643 9.567721, 128.575032 81.538090" stroke-width="0.500000" />
<ellipse fill="#54788a" fill-opacity="0.501961" cx="154" cy="25" rx="1" ry="1" />
<g transform="translate(144 34) rotate(180) scale(26 2)"><rect fill="#001728" fill-opacity="0.501961" x="-0.5" y="-0.5" width="1" height="1" /></g>
<rect fill="#00121b" fill-opacity="0.501961" x="139" y="113" width="26" height="4" />
<path stroke="#308db1" stroke-opacity="0.501961" fill="none" d="M 112.188855 58.705131 Q 130.790531 5.207599, 128.787297 -1.664746" stroke-width="0.500000" />
<polygon fill="#054768" fill-opacity="0.501961" points="125.464521,87.784993,137.525064,108.711488,127.496377,82.356195,131.265675,81.922410" />
<polygon fill="#2c94b1" fill-opacity="0.501961" points="116,92 111,95 116,110" />
<ellipse fill="#4f7891" fill-opacity="0.501961" cx="142" cy="37" rx="1" ry="1" />
<g transform="translate(124 118) rotate(56) scale(14 2)"><rect fill="#4c8cb2" fill-opacity="0.501961" x="-0.5" y="-0.5" width="1" height="1" /></g>
<g transform="translate(131 7) rotate(210) scale(1 10)"><rect fill="#ffffff" fill-opacity="0.501961" x="-0.5" y="-0.5" width="1" height="1" /></g>
<path stroke="#67aecd" stroke-opacity="0.501961" fill="none" d="M 116.661033 35.684697 Q 120.166422 18.661848, 132.875072 21.661152" stroke-width="0.500000" />
<g transform="translate(155.425539 30.406790) rotate(225.043527) scale(3.765131 28.204381)"><ellipse fill="#011421" fill-opacity="0.501961" cx="0" cy="0" rx="1" ry="1" /></g>
<rect fill="#56b6d9" fill-opacity="0.501961" x="116" y="0" width="5" height="1" />
<path stroke="#5aa6c5" stroke-opacity="0.501961" fill="none" d="M 130.188079 9.236761 Q 119.605100 18.266789, 115.884825 12.803946" stroke-width="0.500000" />
<ellipse fill="#ffffff" fill-opacity="0.501961" cx="126" cy="97" rx="2" ry="2" />
<rect fill="#16678a" fill-opacity="0.501961" x="122" y="131" width="5" height="3" />
<polygon fill="#189cbb" fill-opacity="0.501961" points="4,21 37,-16 19,-15" />
<g transform="translate(129 102) rotate(338) scale(1 11)"><rect fill="#fdfefb" fill-opacity="0.501961" x="-0.5" y="-0.5" width="1" height="1" /></g>
<polygon fill="#d8edf6" fill-opacity="0.501961" points="124,37 120,39 121,34" />
<path stroke="#275371" stroke-opacity="0.501961" fill="none" d="M 141.235218 134.111500 Q 131.144730 118.041691, 140.527638 109.115556" stroke-width="0.500000" />
<rect fill="#70bedd" fill-opacity="0.501961" x="117" y="134" width="2" height="4" />
<polygon fill="#0e84a5" fill-opacity="0.501961" points="120.132047,39.131976,116.175164,66.128086,125.246774,78.227238,110.703802,46.845110" />
<polygon fill="#003453" fill-opacity="0.501961" points="138.440443,14.425808,128.217554,29.034688,133.992395,28.598061,138.580354,21.751096" />
<g transform="translate(114 118) rotate(66) scale(23 1)"><rect fill="#2d92b0" fill-opacity="0.501961" x="-0.5" y="-0.5" width="1" height="1" /></g>
<polygon fill="#1389a9" fill-opacity="0.501961" points="114.608037,33.670286,99.825487,25.319651,121.784154,13.976843,112.029301,24.643089" />
<polygon fill="#002f4c" fill-opacity="0.501961" points="139.951509,84.240855,134.687137,73.041004,140.093050,52.933634,128.464110,86.233103" />
<path stroke="#478eb3" stroke-opacity="0.501961" fill="none" d="M 134.949770 55.419433 Q 132.659389 19.424144, 112.567831 26.340465" stroke-width="0.500000" />
<polygon fill="#f4fafc" fill-opacity="0.501961" points="133,89 134,87 133,87" />
<ellipse fill="#002d4d" fill-opacity="0.501961" cx="135" cy="93" rx="2" ry="11" />
<g transform="translate(126 0) rotate(291) scale(20 2)"><rect fill="#004c71" fill-opacity="0.501961" x="-0.5" y="-0.5" width="1" height="1" /></g>
<g transform="translate(142 54) rotate(234) scale(1 2)"><rect fill="#3d6a80" fill-opacity="0.501961" x="-0.5" y="-0.5" width="1" height="1" /></g>
<ellipse fill="#9ec8e0" fill-opacity="0.501961" cx="131" cy="102" rx="1" ry="1" />
<rect fill="#00141f" fill-opacity="0.501961" x="202" y="11" width="25" height="90" />
<ellipse fill="#c5e6f7" fill-opacity="0.501961" cx="125" cy="72" rx="2" ry="2" />
<polygon fill="#0d8eaa" fill-opacity="0.501961" points="115.934212,64.075155,108.983993,71.842064,83.048854,114.036794,111.307719,102.761495" />
<polygon fill="#0799b3" fill-opacity="0.501961" points="54.871275,65.322446,53.057220,87.706147,51.908452,60.834722,-16.000000,95.887618" />
<rect fill="#007998" fill-opacity="0.501961" x="101" y="1" width="4" height="29" />
<path stroke="#154a69" stroke-opacity="0.501961" fill="none" d="M 129.856381 97.979254 Q 147.899295 152.935056, 144.897836 158.000000" stroke-width="0.500000" />
<g transform="translate(152 85) rotate(208) scale(1 4)"><rect fill="#1e4659" fill-opacity="0.501961" x="-0.5" y="-0.5" width="1" height="1" /></g>
<g transform="translate(131 22) rotate(328) scale(4 1)"><rect fill="#b9d2e1" fill-opacity="0.501961" x="-0.5" y="-0.5" width="1" height="1" /></g>
<polygon fill="#021928" fill-opacity="0.501961" points="146.238519,128.828824,166.451754,124.838412,142.273319,136.062021,136.880958,121.964247" />
<polygon fill="#00101a" fill-opacity="0.501961" points="184,-16 153,28 191,131" />
<g transform="translate(148.339928 20.950023) rotate(183.809280) scale(1.000000 47.887954)"><ellipse fill="#010f19" fill-opacity="0.501961" cx="0" cy="0" rx="1" ry="1" /></g>
<polygon fill="#028ca6" fill-opacity="0.501961" points="18.104463,62.962046,15.312138,76.265432,18.987831,88.545488,32.949092,26.792944" />
<polygon fill="#329fbc" fill-opacity="0.501961" points="119.122855,50.199712,122.054124,31.243705,117.477209,45.733387,114.691260,10.518176" />
<path stroke="#0a324d" stroke-opacity="0.501961" fill="none" d="M 127.021480 25.680026 Q 145.500025 15.778974, 147.657849 17.254547" stroke-width="0.500000" />
<ellipse fill="#0e5d81" fill-opacity="0.501961" cx="128" cy="120" rx="2" ry="2" />
<ellipse fill="#86c2f3" fill-opacity="0.501961" cx="130" cy="66" rx="1" ry="1" />
<path stroke="#3e89ae" stroke-opacity="0.501961" fill="none" d="M 138.601518 139.442801 Q 119.618721 134.997758, 119.595543 70.899860" stroke-width="0.500000" />
<ellipse fill="#a1cee6" fill-opacity="0.501961" cx="124" cy="59" rx="1" ry="9" />
<g transform="translate(124 132) rotate(6) scale(12 1)"><rect fill="#2a7698" fill-opacity="0.501961" x="-0.5" y="-0.5" width="1" height="1" /></g>
<g transform="translate(140 50) rotate(-18) scale(1 12)"><rect fill="#00192c" fill-opacity="0.501961" x="-0.5" y="-0.5" width="1" height="1" /></g>
<polygon fill="#00101b" fill-opacity="0.501961" points="139.352385,37.226754,136.441752,31.014262,146.318560,38.270407,169.335273,-16.000000" />
<g transform="translate(61 23) rotate(59) scale(51 14)"><rect fill="#0b8ca9" fill-opacity="0.501961" x="-0.5" y="-0.5" width="1" height="1" /></g>
<g transform="translate(133 52) rotate(233) scale(5 2)"><rect fill="#649cc6" fill-opacity="0.501961" x="-0.5" y="-0.5" width="1" height="1" /></g>
<polygon fill="#62bbdb" fill-opacity="0.501961" points="116,11 112,11 115,13" />
<polygon fill="#00090d" fill-opacity="0.501961" points="150,158 147,125 167,158" />
<g transform="translate(139 43) rotate(219) scale(4 1)"><rect fill="#2c5b74" fill-opacity="0.501961" x="-0.5" y="-0.5" width="1" height="1" /></g>
<polygon fill="#0288a6" fill-opacity="0.501961" points="74.776532,51.162652,110.085747,51.467052,91.666679,38.553007,98.008879,38.387499" />
<polygon fill="#0391ad" fill-opacity="0.501961" points="108.403508,62.387496,76.875328,104.962632,70.306341,110.560377,59.362912,61.212555" />
<rect fill="#173442" fill-opacity="0.501961" x="155" y="87" width="3" height="4" />
<polygon fill="#000e15" fill-opacity="0.501961" points="149.712680,72.345259,157.753491,108.376769,155.224376,89.499019,175.527660,71.292845" />
<ellipse fill="#84afc6" fill-opacity="0.501961" cx="142" cy="60" rx="1" ry="1" />
<rect fill="#69c1e3" fill-opacity="0.501961" x="8" y="28" width="2" height="2" />
<g transform="translate(127 73) rotate(187) scale(1 8)"><rect fill="#ffffff" fill-opacity="0.501961" x="-0.5" y="-0.5" width="1" height="1" /></g>
<g transform="translate(128.111790 49.168935) rotate(176.864199) scale(4.713030 1.000000)"><ellipse fill="#05567a" fill-opacity="0.501961" cx="0" cy="0" rx="1" ry="1" /></g>
<rect fill="#126486" fill-opacity="0.501961" x="123" y="108" width="3" height="8" />
<g transform="translate(132 56) rotate(129) scale(2 1)"><rect fill="#ffffff" fill-opacity="0.501961" x="-0.5" y="-0.5" width="1" height="1" /></g>
<g transform="translate(145.863188 51.802732) rotate(100.215998) scale(57.805777 1.000000)"><ellipse fill="#001727" fill-opacity="0.501961" cx="0" cy="0" rx="1" ry="1" /></g>
<g transform="translate(132 63) rotate(306) scale(6 1)"><rect fill="#3e91c2" fill-opacity="0.501961" x="-0.5" y="-0.5" width="1" height="1" /></g>
<polygon fill="#087a9b" fill-opacity="0.501961" points="122.516730,59.839889,111.036548,59.283282,114.986157,68.798398,124.891973,60.762488" />
<polygon fill="#001626" fill-opacity="0.501961" points="172,85 161,72 171,105" />
<polygon fill="#0b97b6" fill-opacity="0.501961" points="95.147201,54.276378,90.508194,48.366768,88.062868,62.020882,95.454601,75.811642" />
<g transform="translate(131 71) rotate(74) scale(6 4)"><rect fill="#02587e" fill-opacity="0.501961" x="-0.5" y="-0.5" width="1" height="1" /></g>
<path stroke="#1b5677" stroke-opacity="0.501961" fill="none" d="M 142.471800 63.974323 Q 128.357800 35.116596, 128.580024 17.104081" stroke-width="0.500000" />
<g transform="translate(135 64) rotate(131) scale(13 1)"><rect fill="#002b4e" fill-opacity="0.501961" x="-0.5" y="-0.5" width="1" height="1" /></g>
<g transform="translate(93 32) rotate(111) scale(1 41)"><rect fill="#0382a2" fill-opacity="0.501961" x="-0.5" y="-0.5" width="1" height="1" /></g>
<ellipse fill="#d5eeff" fill-opacity="0.501961" cx="129" cy="43" rx="1" ry="1" />
<polygon fill="#0388a5" fill-opacity="0.501961" points="104.537161,3.019311,58.990825,29.383547,87.310169,-0.913172,67.681372,40.742019" />
<rect fill="#5590b6" fill-opacity="0.501961" x="125" y="114" width="2" height="4" />
<g transform="translate(137 108) rotate(295) scale(9 5)"><rect fill="#003251" fill-opacity="0.501961" x="-0.5" y="-0.5" width="1" height="1" /></g>
<ellipse fill="#011b2d" fill-opacity="0.501961" cx="143" cy="112" rx="1" ry="56" />
<polygon fill="#0e99b5" fill-opacity="0.501961" points="8.633985,54.301012,31.944450,20.000296,51.268382,6.107228,51.789587,7.153100" />
<rect fill="#e6f3fb" fill-opacity="0.501961" x="132" y="131" width="7" height="2" />
<rect fill="#00718e" fill-opacity="0.501961" x="62" y="137" width="23" height="6" />
<polygon fill="#0384a4" fill-opacity="0.501961" points="110.742455,70.794388,119.994214,39.061593,97.187929,50.491933,114.442858,30.751279" />
<g transform="translate(133 89) rotate(158) scale(3 3)"><rect fill="#daebf1" fill-opacity="0.501961" x="-0.5" y="-0.5" width="1" height="1" /></g>
<path stroke="#134e6f" stroke-opacity="0.501961" fill="none" d="M 129.704783 62.879562 Q 135.691693 70.962358, 134.264544 91.194484" stroke-width="0.500000" />
<path stroke="#d0e7f6" stroke-opacity="0.501961" fill="none" d="M 121.111749 21.699001 Q 137.483897 3.173405, 138.787447 -16.000000" stroke-width="0.500000" />
<ellipse fill="#07507b" fill-opacity="0.501961" cx="132" cy="45" rx="1" ry="1" />
<path stroke="#5a8faa" stroke-opacity="0.501961" fill="none" d="M 126.996270 82.970016 Q 129.659253 74.301480, 130.245332 66.651180" stroke-width="0.500000" />
<polygon fill="#000b0f" fill-opacity="0.501961" points="157.016605,126.465122,146.244075,123.281767,148.453036,117.841755,148.558888,104.441545" />
<g transform="translate(136 26) rotate(102) scale(3 1)"><rect fill="#83a8bd" fill-opacity="0.501961" x="-0.5" y="-0.5" width="1" height="1" /></g>
<g transform="translate(126 135) rotate(90) scale(1 5)"><rect fill="#9bc5e0" fill-opacity="0.501961" x="-0.5" y="-0.5" width="1" height="1" /></g>
<ellipse fill="#01597d" fill-opacity="0.501961" cx="127" cy="53" rx="2" ry="2" />
<path stroke="#08273b" stroke-opacity="0.501961" fill="none" d="M 132.446589 7.051495 Q 166.143588 -0.879227, 175.246658 -16.000000" stroke-width="0.500000" />
<polygon fill="#90bbe2" fill-opacity="0.501961" points="125,28 126,17 123,17" />
<polygon fill="#0395b0" fill-opacity="0.501961" points="22.918328,89.598833,55.604368,67.992981,51.665353,100.192292,28.257771,49.036168" />
<g transform="translate(138 136) rotate(4) scale(4 5)"><rect fill="#c1dbf3" fill-opacity="0.501961" x="-0.5" y="-0.5" width="1" height="1" /></g>
<polygon fill="#0c98b5" fill-opacity="0.501961" points="38,45 22,56 37,28" />
<g transform="translate(142 100) rotate(188) scale(1 51)"><rect fill="#001522" fill-opacity="0.501961" x="-0.5" y="-0.5" width="1" height="1" /></g>
<rect fill="#1797ad" fill-opacity="0.501961" x="103" y="118" width="3" height="25" />
<g transform="translate(122 32) rotate(171) scale(1 3)"><rect fill="#ffffff" fill-opacity="0.501961" x="-0.5" y="-0.5" width="1" height="1" /></g>
<path stroke="#c0e1f1" stroke-opacity="0.501961" fill="none" d="M 130.469555 67.131058 Q 124.573765 68.024703, 123.182611 51.505944" stroke-width="0.500000" />
<path stroke="#d1e9f7" stroke-opacity="0.501961" fill="none" d="M 119.757255 90.223865 Q 139.038869 126.228101, 134.825577 130.439025" stroke-width="0.500000" />
<path stroke="#043350" stroke-opacity="0.501961" fill="none" d="M 139.026529 130.444898 Q 137.051777 101.179316, 132.389732 73.505788" stroke-width="0.500000" />
<polygon fill="#007493" fill-opacity="0.501961" points="70,5 78,12 80,-5" />
<ellipse fill="#23506c" fill-opacity="0.501961" cx="153" cy="114" rx="1" ry="1" />
<g transform="translate(121 22) rotate(212) scale(3 5)"><rect fill="#f4ffff" fill-opacity="0.501961" x="-0.5" y="-0.5" width="1" height="1" /></g>
<ellipse fill="#00182b" fill-opacity="0.501961" cx="140" cy="28" rx="1" ry="73" />
<ellipse fill="#b5d6f5" fill-opacity="0.501961" cx="129" cy="115" rx="1" ry="3" />
<g transform="translate(121.193995 100.914135) rotate(69.533717) scale(2.784267 2.825384)"><ellipse fill="#28799f" fill-opacity="0.501961" cx="0" cy="0" rx="1" ry="1" /></g>
<ellipse fill="#7aa9ce" fill-opacity="0.501961" cx="132" cy="36" rx="1" ry="1" />
<g transform="translate(115 103) rotate(74) scale(5 1)"><rect fill="#4caac8" fill-opacity="0.501961" x="-0.5" y="-0.5" width="1" height="1" /></g>
</g>
</svg>