<svg xmlns="http://www.w3.org/2000/svg" version="1.1" width="1024" height="680">
<rect x="0" y="0" width="1024" height="680" fill="#2d5938" />
<g transform="scale(4.000000) translate(0.5 0.5)">
<path stroke="#ffffff" stroke-opacity="0.501961" fill="none" d="M 156.806164 -4.748844 Q 115.144678 118.138954, 78.548062 185.000000" stroke-width="0.500000" />
<path stroke="#ffffff" stroke-opacity="0.501961" fill="none" d="M 156.871699 -4.314170 Q 100.969383 128.298938, 91.300968 176.828900" stroke-width="0.500000" />
<path stroke="#ffffff" stroke-opacity="0.501961" fill="none" d="M 82.023762 185.000000 Q 109.986382 132.652192, 162.210617 -16.000000" stroke-width="0.500000" />
<path stroke="#ffffff" stroke-opacity="0.501961" fill="none" d="M 89.315953 185.000000 Q 125.350300 65.226911, 157.414878 0.803788" stroke-width="0.500000" />
<path stroke="#ffffff" stroke-opacity="0.501961" fill="none" d="M 51.778352 83.428611 Q 114.293255 185.000000, 199.031279 97.723308" stroke-width="0.500000" />
<path stroke="#ffffff" stroke-opacity="0.501961" fill="none" d="M 89.104347 185.000000 Q 151.432073 7.505952, 159.185678 -16.000000" stroke-width="0.500000" />
<path stroke="#ffffff" stroke-opacity="0.501961" fill="none" d="M 155.443742 -6.741724 Q 92.015773 157.616704, 82.791939 183.872029" stroke-width="0.500000" />
<path stroke="#ffffff" stroke-opacity="0.501961" fill="none" d="M 91.745199 131.756441 Q 207.955030 148.549829, 204.878221 60.980813" stroke-width="0.500000" />
<path stroke="#ffffff" stroke-opacity="0.501961" fill="none" d="M 145.508582 136.140309 Q 33.535522 127.551319, 62.626736 53.734389" stroke-width="0.500000" />
<path stroke="#ffffff" stroke-opacity="0.501961" fill="none" d="M 187.708628 116.373628 Q 70.249426 166.327721, 55.234678 69.018206" stroke-width="0.500000" />
<path stroke="#ffffff" stroke-opacity="0.501961" fill="none" d="M 217.504382 99.119160 Q 185.299212 -16.000000, 69.981474 44.914406" stroke-width="0.500000" />
<path stroke="#ffffff" stroke-opacity="0.501961" fill="none" d="M 89.339059 169.694404 Q 103.733532 125.984745, 158.780863 -0.894535" stroke-width="0.500000" />
<path stroke="#ffffff" stroke-opacity="0.501961" fill="none" d="M 97.169744 138.833652 Q 221.993283 130.979478, 200.298518 53.385590" stroke-width="0.500000" />
<path stroke="#ffffff" stroke-opacity="0.501961" fill="none" d="M 88.932771 130.978961 Q 12.411848 64.933265, 112.666214 24.701451" stroke-width="0.500000" />
<path stroke="#ffffff" stroke-opacity="0.501961" fill="none" d="M 69.613931 116.302704 Q 193.942631 170.158132, 205.524506 61.099484" stroke-width="0.500000" />
<path stroke="#ffffff" stroke-opacity="0.501961" fill="none" d="M 92.958269 173.277490 Q 95.705508 150.639138, 153.840936 -0.655280" stroke-width="0.500000" />
<path stroke="#ffffff" stroke-opacity="0.501961" fill="none" d="M 52.999235 65.515208 Q 77.676317 178.596024, 190.555549 110.013446" stroke-width="0.500000" />
<path stroke="#ffffff" stroke-opacity="0.501961" fill="none" d="M 160.821182 -12.089416 Q 144.183133 30.868265, 93.487864 173.674709" stroke-width="0.500000" />
<path stroke="#ffffff" stroke-opacity="0.501961" fill="none" d="M 65.406485 46.868177 Q 32.187347 140.253477, 147.528255 130.370066" stroke-width="0.500000" />
<path stroke="#ffffff" stroke-opacity="0.501961" fill="none" d="M 203.587759 94.762084 Q 210.026413 3.689519, 86.446531 32.173360" stroke-width="0.500000" />
<path stroke="#ffffff" stroke-opacity="0.501961" fill="none" d="M 162.208696 -16.000000 Q 96.077946 142.850750, 81.657171 183.552910" stroke-width="0.500000" />
<path stroke="#ffffff" stroke-opacity="0.501961" fill="none" d="M 209.231928 75.743912 Q 158.980137 168.390825, 89.077665 123.352441" stroke-width="0.500000" />
<path stroke="#ffffff" stroke-opacity="0.501961" fill="none" d="M 161.623232 -16.000000 Q 132.294285 57.418844, 87.808110 185.000000" stroke-width="0.500000" />
<path stroke="#ffffff" stroke-opacity="0.501961" fill="none" d="M 64.427942 107.682012 Q 149.923258 166.045048, 206.785473 92.271644" stroke-width="0.500000" />
<path stroke="#ffffff" stroke-opacity="0.501961" fill="none" d="M 189.638022 39.286572 Q 239.044350 112.648919, 135.009626 137.086126" stroke-width="0.500000" />
<path stroke="#ffffff" stroke-opacity="0.501961" fill="none" d="M 57.467369 86.567384 Q 106.704684 176.668900, 190.761169 106.101268" stroke-width="0.500000" />
<path stroke="#ffffff" stroke-opacity="0.501961" fill="none" d="M 195.522383 109.796900 Q 215.805648 56.022890, 174.976495 35.560263" stroke-width="0.500000" />
<path stroke="#ffffff" stroke-opacity="0.501961" fill="none" d="M 165.422677 30.585680 Q 102.383824 8.636626, 59.724202 59.371277" stroke-width="0.500000" />
<path stroke="#f9fefc" stroke-opacity="0.501961" fill="none" d="M 48.551780 74.463505 Q 116.493046 -12.304457, 195.111207 48.115096" stroke-width="0.500000" />
<path stroke="#ffffff" stroke-opacity="0.501961" fill="none" d="M 89.264183 177.708963 Q 116.301684 77.671933, 164.563389 -16.000000" stroke-width="0.500000" />
<path stroke="#edfbe8" stroke-opacity="0.501961" fill="none" d="M 82.671344 30.539630 Q 15.921204 109.348354, 113.572142 135.548257" stroke-width="0.500000" />
<path stroke="#f3fef6" stroke-opacity="0.501961" fill="none" d="M 50.264498 83.545773 Q 120.455214 181.880754, 205.525632 89.464536" stroke-width="0.500000" />
<path stroke="#fffff7" stroke-opacity="0.501961" fill="none" d="M 200.545133 103.058325 Q 227.689943 41.492227, 140.483482 22.486734" stroke-width="0.500000" />
<path stroke="#ffffff" stroke-opacity="0.501961" fill="none" d="M 85.927344 181.741735 Q 96.884892 147.105145, 164.563857 -16.000000" stroke-width="0.500000" />
<path stroke="#fafffa" stroke-opacity="0.501961" fill="none" d="M 53.981267 81.435382 Q 66.183350 137.734196, 136.760111 139.026217" stroke-width="0.500000" />
<path stroke="#f7fcfe" stroke-opacity="0.501961" fill="none" d="M 149.811280 -13.865009 Q 168.193981 -6.072777, 91.299608 163.404422" stroke-width="0.500000" />
<path stroke="#f8fffe" stroke-opacity="0.501961" fill="none" d="M 116.580279 139.091032 Q 27.185041 97.868191, 76.131165 42.245443" stroke-width="0.500000" />
<path stroke="#ffffff" stroke-opacity="0.501961" fill="none" d="M 141.056445 23.270118 Q 45.477007 31.879436, 56.387329 93.401130" stroke-width="0.500000" />
<path stroke="#f7fff4" stroke-opacity="0.501961" fill="none" d="M 205.727248 70.733183 Q 203.034865 125.811401, 143.790991 136.107409" stroke-width="0.500000" />
<path stroke="#ffffff" stroke-opacity="0.501961" fill="none" d="M 145.785617 22.393130 Q 230.860194 46.225853, 188.690936 107.684460" stroke-width="0.500000" />
<path stroke="#fafff9" stroke-opacity="0.501961" fill="none" d="M 111.234177 133.836986 Q 172.311121 147.816386, 204.117408 85.985819" stroke-width="0.500000" />
<path stroke="#fefff5" stroke-opacity="0.501961" fill="none" d="M 158.718367 -16.000000 Q 139.279224 47.173092, 85.674610 170.162499" stroke-width="0.500000" />
<path stroke="#ebf3ee" stroke-opacity="0.501961" fill="none" d="M 91.457074 168.644751 Q 124.469247 103.294133, 146.710786 8.682771" stroke-width="0.500000" />
<path stroke="#f6fffb" stroke-opacity="0.501961" fill="none" d="M 93.153200 131.857862 Q 39.889237 95.724712, 68.718324 49.705749" stroke-width="0.500000" />
<path stroke="#e7f4e9" stroke-opacity="0.501961" fill="none" d="M 201.855421 90.306001 Q 137.085953 174.071889, 60.272517 103.251487" stroke-width="0.500000" />
<path stroke="#f2f9e9" stroke-opacity="0.501961" fill="none" d="M 93.451568 30.679415 Q 209.011133 1.856876, 204.316424 102.633331" stroke-width="0.500000" />
<path stroke="#fafffb" stroke-opacity="0.501961" fill="none" d="M 202.276509 57.748577 Q 219.676188 106.018948, 153.835902 133.637206" stroke-width="0.500000" />
<path stroke="#f6fff9" stroke-opacity="0.501961" fill="none" d="M 86.282914 173.373079 Q 103.094374 129.670236, 142.891891 40.459125" stroke-width="0.500000" />
<path stroke="#d7e6da" stroke-opacity="0.501961" fill="none" d="M 88.413426 129.558037 Q 215.293161 145.830907, 200.957037 47.728924" stroke-width="0.500000" />
<path stroke="#f3fff6" stroke-opacity="0.501961" fill="none" d="M 91.704578 129.593429 Q 22.034381 88.460688, 81.094843 39.981059" stroke-width="0.500000" />
<path stroke="#dcead8" stroke-opacity="0.501961" fill="none" d="M 155.978528 132.550373 Q 245.622676 74.160984, 169.272481 26.413702" stroke-width="0.500000" />
<path stroke="#dfe8e3" stroke-opacity="0.501961" fill="none" d="M 81.867909 182.686866 Q 135.867436 80.107655, 153.953571 -12.332476" stroke-width="0.500000" />
<path stroke="#fcfffc" stroke-opacity="0.501961" fill="none" d="M 93.763890 30.845269 Q 38.416517 61.405331, 67.335807 109.340541" stroke-width="0.500000" />
<path stroke="#d8e4e1" stroke-opacity="0.501961" fill="none" d="M 123.558073 137.560463 Q 198.608283 114.907041, 204.329599 89.480199" stroke-width="0.500000" />
<path stroke="#fffff9" stroke-opacity="0.501961" fill="none" d="M 89.799084 185.000000 Q 134.997160 41.083043, 160.841457 -7.840144" stroke-width="0.500000" />
<path stroke="#cbd7d3" stroke-opacity="0.501961" fill="none" d="M 197.290538 98.769649 Q 217.008122 48.321729, 150.516304 21.289219" stroke-width="0.500000" />
<path stroke="#d8e5e0" stroke-opacity="0.501961" fill="none" d="M 90.572113 169.114178 Q 107.809732 153.060179, 128.933056 58.453677" stroke-width="0.500000" />
<path stroke="#bdcfaa" stroke-opacity="0.501961" fill="none" d="M 190.197215 19.988181 Q 53.178413 17.793959, 54.047750 83.174331" stroke-width="0.500000" />
<path stroke="#e7eeea" stroke-opacity="0.501961" fill="none" d="M 160.444292 -16.000000 Q 81.202895 179.555746, 83.937044 185.000000" stroke-width="0.500000" />
<path stroke="#dae9dd" stroke-opacity="0.501961" fill="none" d="M 146.891288 136.675360 Q 56.552809 148.305075, 58.483695 59.971313" stroke-width="0.500000" />
<path stroke="#e4f0e9" stroke-opacity="0.501961" fill="none" d="M 116.960772 24.818038 Q 47.782048 47.255887, 54.358726 87.231884" stroke-width="0.500000" />
<path stroke="#effaed" stroke-opacity="0.501961" fill="none" d="M 142.272926 37.103103 Q 88.441392 185.000000, 81.010186 185.000000" stroke-width="0.500000" />
<path stroke="#ddebdc" stroke-opacity="0.501961" fill="none" d="M 167.522750 27.103468 Q 248.656105 81.717426, 163.533772 128.121527" stroke-width="0.500000" />
<path stroke="#d1e0d6" stroke-opacity="0.501961" fill="none" d="M 67.767216 102.656016 Q 107.806830 151.725943, 166.292028 130.936735" stroke-width="0.500000" />
<path stroke="#d7e5e1" stroke-opacity="0.501961" fill="none" d="M 131.594055 137.789485 Q 47.048104 118.525205, 61.498338 59.314341" stroke-width="0.500000" />
<path stroke="#dae8dd" stroke-opacity="0.501961" fill="none" d="M 122.385435 135.585075 Q 232.086801 114.060251, 196.001636 46.991433" stroke-width="0.500000" />
<path stroke="#c2d8c1" stroke-opacity="0.501961" fill="none" d="M 47.291084 57.563928 Q 79.776794 185.000000, 198.415498 105.651120" stroke-width="0.500000" />
<path stroke="#00016f" stroke-opacity="0.501961" fill="none" d="M 201.075376 68.213985 Q 135.042482 185.000000, 64.565808 70.031761" stroke-width="0.500000" />
<path stroke="#f2fbed" stroke-opacity="0.501961" fill="none" d="M 156.237057 2.169894 Q 154.949845 1.507711, 88.018443 167.456753" stroke-width="0.500000" />
<path stroke="#00006c" stroke-opacity="0.501961" fill="none" d="M 199.001777 74.609564 Q 132.779968 185.000000, 64.691752 71.824761" stroke-width="0.500000" />
<path stroke="#dbeade" stroke-opacity="0.501961" fill="none" d="M 144.511452 131.516359 Q 93.761750 138.039039, 58.054034 97.484085" stroke-width="0.500000" />
<path stroke="#deead9" stroke-opacity="0.501961" fill="none" d="M 59.273398 99.817574 Q 39.974618 26.908795, 153.542711 21.402460" stroke-width="0.500000" />
<path stroke="#000472" stroke-opacity="0.501961" fill="none" d="M 200.005782 65.802314 Q 134.643862 178.795736, 63.340226 65.962281" stroke-width="0.500000" />
<path stroke="#000674" stroke-opacity="0.501961" fill="none" d="M 198.267416 68.688069 Q 122.461727 171.216212, 68.782080 58.385729" stroke-width="0.500000" />
<path stroke="#d4e4d4" stroke-opacity="0.501961" fill="none" d="M 200.306824 60.967508 Q 221.849922 122.245691, 127.674972 138.939954" stroke-width="0.500000" />
<path stroke="#000877" stroke-opacity="0.501961" fill="none" d="M 195.213927 69.685115 Q 116.420967 160.196531, 68.820115 53.872185" stroke-width="0.500000" />
<path stroke="#d6e5e2" stroke-opacity="0.501961" fill="none" d="M 97.596003 131.122947 Q 20.722109 91.951394, 83.607589 38.391858" stroke-width="0.500000" />
<path stroke="#00056f" stroke-opacity="0.501961" fill="none" d="M 192.370280 71.449743 Q 135.527064 168.713713, 64.888111 68.055492" stroke-width="0.500000" />
<path stroke="#000a79" stroke-opacity="0.501961" fill="none" d="M 196.817214 63.938687 Q 118.158251 159.591802, 69.838685 52.576828" stroke-width="0.500000" />
<path stroke="#000068" stroke-opacity="0.501961" fill="none" d="M 177.646753 38.972579 Q 219.890973 124.452330, 112.841587 125.567714" stroke-width="0.500000" />
<path stroke="#00016a" stroke-opacity="0.501961" fill="none" d="M 63.318116 71.952996 Q 113.291984 173.600165, 192.885249 98.091628" stroke-width="0.500000" />
<path stroke="#00076e" stroke-opacity="0.501961" fill="none" d="M 62.805609 90.372961 Q 144.255757 171.000740, 188.510471 47.665783" stroke-width="0.500000" />
<path stroke="#03107d" stroke-opacity="0.501961" fill="none" d="M 193.750586 54.054672 Q 126.331460 158.000606, 70.219504 50.570587" stroke-width="0.500000" />
<path stroke="#064a00" stroke-opacity="0.501961" fill="none" d="M 253.195028 5.262105 Q 270.285586 185.000000, 97.958153 166.559782" stroke-width="0.500000" />
<path stroke="#f3fbeb" stroke-opacity="0.501961" fill="none" d="M 158.474089 -2.836002 Q 114.602191 101.191432, 86.875698 184.339625" stroke-width="0.500000" />
<path stroke="#04127c" stroke-opacity="0.501961" fill="none" d="M 192.946042 51.595185 Q 131.693590 153.012298, 73.274883 55.119727" stroke-width="0.500000" />
<path stroke="#084c00" stroke-opacity="0.501961" fill="none" d="M 101.686439 163.898694 Q 271.000000 185.000000, 249.854814 -4.692146" stroke-width="0.500000" />
<path stroke="#e1e9e0" stroke-opacity="0.501961" fill="none" d="M 110.748125 107.624223 Q 146.379615 41.257598, 161.405511 -16.000000" stroke-width="0.500000" />
<path stroke="#e7f5e7" stroke-opacity="0.501961" fill="none" d="M 82.965614 185.000000 Q 111.884576 111.544457, 133.629770 50.347659" stroke-width="0.500000" />
<path stroke="#000568" stroke-opacity="0.501961" fill="none" d="M 197.432361 65.664960 Q 129.844037 185.000000, 60.704649 83.871591" stroke-width="0.500000" />
<path stroke="#cfe1d1" stroke-opacity="0.501961" fill="none" d="M 124.227009 137.394583 Q 26.964476 112.635475, 64.950871 53.304542" stroke-width="0.500000" />
<path stroke="#064a00" stroke-opacity="0.501961" fill="none" d="M -4.258217 179.263697 Q 13.116866 99.219326, 271.000000 173.068556" stroke-width="0.500000" />
<path stroke="#024700" stroke-opacity="0.501961" fill="none" d="M 253.152479 70.130384 Q 271.000000 185.000000, 100.467487 165.303091" stroke-width="0.500000" />
<path stroke="#000871" stroke-opacity="0.501961" fill="none" d="M 194.129314 60.526708 Q 143.083187 162.534579, 68.605935 70.329627" stroke-width="0.500000" />
<path stroke="#074c00" stroke-opacity="0.501961" fill="none" d="M -0.408147 71.025188 Q -16.000000 176.698781, 260.841200 167.516685" stroke-width="0.500000" />
<path stroke="#c5d7bd" stroke-opacity="0.501961" fill="none" d="M 72.210329 117.819262 Q 23.206391 40.888876, 138.474842 18.110232" stroke-width="0.500000" />
<path stroke="#071682" stroke-opacity="0.501961" fill="none" d="M 73.624421 48.971642 Q 123.344697 147.534450, 188.272195 56.216460" stroke-width="0.500000" />
<path stroke="#0b5000" stroke-opacity="0.501961" fill="none" d="M -0.517615 20.803232 Q -16.000000 185.000000, 271.000000 163.616251" stroke-width="0.500000" />
<path stroke="#eff8e8" stroke-opacity="0.501961" fill="none" d="M 90.850196 177.813031 Q 146.007327 28.159555, 159.602152 -16.000000" stroke-width="0.500000" />
<path stroke="#0a4e00" stroke-opacity="0.501961" fill="none" d="M 261.232301 153.126010 Q -4.523513 185.000000, 1.111707 70.438239" stroke-width="0.500000" />
<path stroke="#bcd1b8" stroke-opacity="0.501961" fill="none" d="M 174.614300 125.326918 Q 130.488001 149.861060, 96.340102 130.705547" stroke-width="0.500000" />
<path stroke="#bcc9d2" stroke-opacity="0.501961" fill="none" d="M 139.365209 35.632448 Q 90.023573 156.318483, 87.469988 175.536690" stroke-width="0.500000" />
<path stroke="#122688" stroke-opacity="0.501961" fill="none" d="M 200.950062 73.375154 Q 97.596840 -16.000000, 61.566017 83.441855" stroke-width="0.500000" />
<path stroke="#054900" stroke-opacity="0.501961" fill="none" d="M 271.000000 164.399601 Q 5.689923 185.000000, -1.343260 125.304409" stroke-width="0.500000" />
<path stroke="#010e77" stroke-opacity="0.501961" fill="none" d="M 68.427652 57.177585 Q 133.385225 157.184044, 195.660879 55.979626" stroke-width="0.500000" />
<path stroke="#0f2182" stroke-opacity="0.501961" fill="none" d="M 199.152286 81.787604 Q 102.813529 -12.761057, 62.850341 92.009836" stroke-width="0.500000" />
<path stroke="#000467" stroke-opacity="0.501961" fill="none" d="M 199.277492 84.818583 Q 144.008160 168.663570, 59.240180 75.822474" stroke-width="0.500000" />
<path stroke="#d6e6d8" stroke-opacity="0.501961" fill="none" d="M 132.438839 137.383881 Q 241.644058 109.713396, 185.704082 37.043472" stroke-width="0.500000" />
<path stroke="#0f5200" stroke-opacity="0.501961" fill="none" d="M 269.416535 160.106663 Q -15.383458 185.000000, 4.367712 2.039152" stroke-width="0.500000" />
<path stroke="#0c5000" stroke-opacity="0.501961" fill="none" d="M 253.317750 147.079416 Q 12.652631 185.000000, -0.137227 62.492921" stroke-width="0.500000" />
<path stroke="#d7e5db" stroke-opacity="0.501961" fill="none" d="M 196.881488 48.897249 Q 225.050567 89.967486, 173.618389 117.412892" stroke-width="0.500000" />
<path stroke="#0b4f00" stroke-opacity="0.501961" fill="none" d="M 248.994666 1.430525 Q 263.690018 185.000000, 99.216982 161.962070" stroke-width="0.500000" />
<path stroke="#0a1b85" stroke-opacity="0.501961" fill="none" d="M 186.080213 48.736934 Q 137.506264 139.208348, 74.599205 47.661281" stroke-width="0.500000" />
<path stroke="#000568" stroke-opacity="0.501961" fill="none" d="M 165.158014 31.765033 Q 218.917046 114.224153, 113.531654 129.500301" stroke-width="0.500000" />
<path stroke="#d3e3d4" stroke-opacity="0.501961" fill="none" d="M 99.033927 133.790562 Q 14.502850 77.800956, 100.676156 26.287789" stroke-width="0.500000" />
<path stroke="#0a4d00" stroke-opacity="0.501961" fill="none" d="M 1.434334 97.932410 Q 5.581000 177.180528, 267.097549 168.641481" stroke-width="0.500000" />
<path stroke="#0e5000" stroke-opacity="0.501961" fill="none" d="M 254.987023 131.493684 Q 8.577674 185.000000, 6.227928 52.241806" stroke-width="0.500000" />
<path stroke="#000365" stroke-opacity="0.501961" fill="none" d="M 60.654933 83.634156 Q 98.050425 164.172727, 196.377806 87.015617" stroke-width="0.500000" />
<path stroke="#0e5000" stroke-opacity="0.501961" fill="none" d="M 254.941252 4.474002 Q 271.000000 185.000000, 2.077461 160.732656" stroke-width="0.500000" />
<path stroke="#ecf5e6" stroke-opacity="0.501961" fill="none" d="M 88.148846 185.000000 Q 132.177391 45.879985, 158.316064 -6.343460" stroke-width="0.500000" />
<path stroke="#071781" stroke-opacity="0.501961" fill="none" d="M 190.391722 51.043790 Q 132.189594 136.227305, 81.771180 60.403188" stroke-width="0.500000" />
<path stroke="#e3e8e5" stroke-opacity="0.501961" fill="none" d="M 186.175674 38.865964 Q 144.378083 18.471870, 105.821232 27.951000" stroke-width="0.500000" />
<path stroke="#759646" stroke-opacity="0.501961" fill="none" d="M 65.324030 14.782979 Q 145.721950 -11.592683, 195.242550 5.206236" stroke-width="0.500000" />
<path stroke="#084c00" stroke-opacity="0.501961" fill="none" d="M 253.218732 40.628422 Q 271.000000 181.611620, 104.926675 147.548184" stroke-width="0.500000" />
<path stroke="#00056b" stroke-opacity="0.501961" fill="none" d="M 164.980037 34.963058 Q 208.756138 100.893010, 114.258417 119.821274" stroke-width="0.500000" />
<path stroke="#000c6c" stroke-opacity="0.501961" fill="none" d="M 198.325912 86.400863 Q 130.205078 164.544357, 65.239903 58.320675" stroke-width="0.500000" />
<path stroke="#0d1f88" stroke-opacity="0.501961" fill="none" d="M 80.636686 45.529511 Q 128.421753 133.484367, 185.161587 48.438913" stroke-width="0.500000" />
<path stroke="#115000" stroke-opacity="0.501961" fill="none" d="M -14.047071 142.593103 Q 256.247975 184.559067, 255.015291 8.521656" stroke-width="0.500000" />
<path stroke="#d2e3d6" stroke-opacity="0.501961" fill="none" d="M 69.533938 108.685217 Q 26.371441 58.041162, 109.687538 25.702394" stroke-width="0.500000" />
<path stroke="#0c1e7f" stroke-opacity="0.501961" fill="none" d="M 69.962166 103.702181 Q 104.647178 1.102020, 199.517122 84.210316" stroke-width="0.500000" />
<path stroke="#074a00" stroke-opacity="0.501961" fill="none" d="M 253.914662 47.296568 Q 271.000000 182.408518, 104.922385 164.964665" stroke-width="0.500000" />
<path stroke="#011175" stroke-opacity="0.501961" fill="none" d="M 191.617397 53.597716 Q 145.435384 25.729208, 112.545560 130.326089" stroke-width="0.500000" />
<path stroke="#7a9a4d" stroke-opacity="0.501961" fill="none" d="M 53.195547 2.419361 Q 191.177951 1.424899, 206.796646 2.591862" stroke-width="0.500000" />
<path stroke="#0f4f00" stroke-opacity="0.501961" fill="none" d="M 246.171521 -10.006484 Q 271.000000 181.385448, -1.848847 139.294486" stroke-width="0.500000" />
<path stroke="#162b89" stroke-opacity="0.501961" fill="none" d="M 199.894209 71.769800 Q 149.741871 -16.000000, 61.421349 71.288453" stroke-width="0.500000" />
<path stroke="#d9e4db" stroke-opacity="0.501961" fill="none" d="M 156.731290 -0.447415 Q 143.404645 36.145012, 94.295740 170.195325" stroke-width="0.500000" />
<path stroke="#0e5100" stroke-opacity="0.501961" fill="none" d="M -3.291297 161.330083 Q 253.911685 184.398108, 251.893079 74.386384" stroke-width="0.500000" />
<path stroke="#dbebde" stroke-opacity="0.501961" fill="none" d="M 85.792092 175.854022 Q 112.144306 111.821133, 123.284303 74.447126" stroke-width="0.500000" />
<path stroke="#bdcdc9" stroke-opacity="0.501961" fill="none" d="M 58.511559 92.615931 Q 97.286051 140.592186, 137.723632 134.647675" stroke-width="0.500000" />
<path stroke="#135300" stroke-opacity="0.501961" fill="none" d="M 7.600859 -16.000000 Q -12.500789 158.084885, 268.607988 164.244796" stroke-width="0.500000" />
<path stroke="#cad6b9" stroke-opacity="0.501961" fill="none" d="M 113.325428 19.273458 Q 186.412333 30.006239, 192.951511 45.672998" stroke-width="0.500000" />
<path stroke="#0b1d7c" stroke-opacity="0.501961" fill="none" d="M 192.072336 99.377341 Q 138.781311 -11.354872, 63.344191 91.185757" stroke-width="0.500000" />
<path stroke="#00096b" stroke-opacity="0.501961" fill="none" d="M 61.689579 78.019489 Q 110.402036 162.590081, 191.747525 61.188345" stroke-width="0.500000" />
<path stroke="#105100" stroke-opacity="0.501961" fill="none" d="M 253.674912 29.481453 Q 257.424036 166.033465, 0.348218 159.727760" stroke-width="0.500000" />
<path stroke="#105100" stroke-opacity="0.501961" fill="none" d="M 3.527558 37.927537 Q -16.000000 153.284439, 264.123183 156.876145" stroke-width="0.500000" />
<path stroke="#102287" stroke-opacity="0.501961" fill="none" d="M 185.420708 45.513183 Q 129.490238 131.481416, 83.242713 40.722582" stroke-width="0.500000" />
<path stroke="#102380" stroke-opacity="0.501961" fill="none" d="M 198.580463 78.151954 Q 96.631382 -15.652635, 61.567909 89.481106" stroke-width="0.500000" />
<path stroke="#064b00" stroke-opacity="0.501961" fill="none" d="M 82.732943 168.881558 Q -10.651601 177.379140, 3.213459 9.536133" stroke-width="0.500000" />
<path stroke="#020f6e" stroke-opacity="0.501961" fill="none" d="M 190.791802 64.772593 Q 120.839934 166.029341, 65.733137 60.368539" stroke-width="0.500000" />
<path stroke="#094e00" stroke-opacity="0.501961" fill="none" d="M 86.498673 161.430571 Q -7.633943 176.450953, 6.827427 -16.000000" stroke-width="0.500000" />
<path stroke="#e2f2e1" stroke-opacity="0.501961" fill="none" d="M 87.715188 175.955949 Q 96.807829 151.154278, 131.493769 67.061769" stroke-width="0.500000" />
<path stroke="#115300" stroke-opacity="0.501961" fill="none" d="M 8.395025 15.076432 Q -14.202047 185.000000, 270.712135 161.236308" stroke-width="0.500000" />
<path stroke="#0b4d00" stroke-opacity="0.501961" fill="none" d="M 39.905626 168.302430 Q 271.000000 185.000000, 252.456176 61.191839" stroke-width="0.500000" />
<path stroke="#001175" stroke-opacity="0.501961" fill="none" d="M 75.500774 110.304388 Q 128.343205 104.823676, 129.310002 27.996997" stroke-width="0.500000" />
<path stroke="#034700" stroke-opacity="0.501961" fill="none" d="M 263.325490 185.000000 Q 202.001189 76.548704, 210.134391 67.684307" stroke-width="0.500000" />
<path stroke="#105200" stroke-opacity="0.501961" fill="none" d="M 271.000000 156.117275 Q 44.158505 185.000000, 7.788876 56.023621" stroke-width="0.500000" />
<path stroke="#cfded5" stroke-opacity="0.501961" fill="none" d="M 206.410889 73.405118 Q 191.241010 118.352706, 143.760768 137.206645" stroke-width="0.500000" />
<path stroke="#001173" stroke-opacity="0.501961" fill="none" d="M 185.401828 43.268984 Q 108.736279 50.980220, 135.910799 130.342265" stroke-width="0.500000" />
<path stroke="#0e207f" stroke-opacity="0.501961" fill="none" d="M 73.061879 102.197634 Q 100.141924 9.354167, 196.300932 87.478337" stroke-width="0.500000" />
<path stroke="#125100" stroke-opacity="0.501961" fill="none" d="M -1.890044 154.221636 Q 231.629291 175.086021, 245.434110 17.052723" stroke-width="0.500000" />
<path stroke="#dfe5cb" stroke-opacity="0.501961" fill="none" d="M 179.145306 33.167317 Q 143.913926 19.661533, 112.551927 24.559941" stroke-width="0.500000" />
<path stroke="#125300" stroke-opacity="0.501961" fill="none" d="M 6.225040 -7.981380 Q -9.220729 185.000000, 259.832727 143.986548" stroke-width="0.500000" />
<path stroke="#0a1b7a" stroke-opacity="0.501961" fill="none" d="M 74.817079 108.220026 Q 113.195594 8.646179, 191.883779 95.750192" stroke-width="0.500000" />
<path stroke="#e7f0e2" stroke-opacity="0.501961" fill="none" d="M 157.535341 -5.396574 Q 93.129985 145.777888, 92.074954 169.440072" stroke-width="0.500000" />
<path stroke="#011273" stroke-opacity="0.501961" fill="none" d="M 192.718423 55.908211 Q 142.298375 30.989585, 116.026814 129.180409" stroke-width="0.500000" />
<path stroke="#ccd7da" stroke-opacity="0.501961" fill="none" d="M 158.237297 27.759975 Q 186.150108 33.235770, 205.515028 69.929583" stroke-width="0.500000" />
<path stroke="#77974a" stroke-opacity="0.501961" fill="none" d="M 207.963848 4.531542 Q 116.236186 3.537304, 52.721220 4.450501" stroke-width="0.500000" />
<path stroke="#115200" stroke-opacity="0.501961" fill="none" d="M 103.163682 150.468320 Q 271.000000 178.659551, 235.219388 1.634867" stroke-width="0.500000" />
<path stroke="#031574" stroke-opacity="0.501961" fill="none" d="M 137.880269 27.351880 Q 41.776617 58.785004, 101.351768 125.685931" stroke-width="0.500000" />
<path stroke="#010c67" stroke-opacity="0.501961" fill="none" d="M 200.417735 80.875600 Q 109.669768 165.240291, 63.892305 93.697013" stroke-width="0.500000" />
<path stroke="#000e6f" stroke-opacity="0.501961" fill="none" d="M 113.465795 124.644735 Q 192.064642 59.168048, 153.017233 30.437501" stroke-width="0.500000" />
<path stroke="#00035f" stroke-opacity="0.501961" fill="none" d="M 114.103541 117.556009 Q 190.431607 138.488449, 198.901300 69.549499" stroke-width="0.500000" />
<path stroke="#deeedf" stroke-opacity="0.501961" fill="none" d="M 85.326138 185.000000 Q 111.924688 129.877238, 126.462634 67.658238" stroke-width="0.500000" />
<path stroke="#135300" stroke-opacity="0.501961" fill="none" d="M 251.930742 -16.000000 Q 265.176802 185.000000, 4.984463 163.557093" stroke-width="0.500000" />
<path stroke="#011273" stroke-opacity="0.501961" fill="none" d="M 117.663267 129.550065 Q 136.610956 48.475787, 195.227724 56.278726" stroke-width="0.500000" />
<path stroke="#044700" stroke-opacity="0.501961" fill="none" d="M 255.881652 117.639003 Q 253.216707 185.000000, -15.112927 166.255978" stroke-width="0.500000" />
<path stroke="#004600" stroke-opacity="0.501961" fill="none" d="M 3.623778 68.444185 Q -16.000000 185.000000, 88.985100 157.080245" stroke-width="0.500000" />
<path stroke="#ceded4" stroke-opacity="0.501961" fill="none" d="M 118.769563 91.144700 Q 111.936841 150.755502, 73.248075 184.685662" stroke-width="0.500000" />
<path stroke="#d0e1d1" stroke-opacity="0.501961" fill="none" d="M 168.217753 128.254760 Q 99.901464 138.878649, 82.057814 124.623994" stroke-width="0.500000" />
<path stroke="#ddead5" stroke-opacity="0.501961" fill="none" d="M 156.577037 11.960585 Q 141.362617 23.292162, 97.739568 159.412456" stroke-width="0.500000" />
<path stroke="#094d00" stroke-opacity="0.501961" fill="none" d="M 9.953362 -4.881788 Q -16.000000 176.678649, 85.440771 167.564069" stroke-width="0.500000" />
<path stroke="#115000" stroke-opacity="0.501961" fill="none" d="M 106.145751 140.848117 Q 271.000000 167.765380, 244.616438 -3.768583" stroke-width="0.500000" />
<path stroke="#b7cdb8" stroke-opacity="0.501961" fill="none" d="M 53.260879 77.594615 Q 58.877486 120.116460, 93.310381 129.224042" stroke-width="0.500000" />
<path stroke="#010f67" stroke-opacity="0.501961" fill="none" d="M 70.397483 57.585021 Q 139.840443 158.223535, 197.033305 90.362588" stroke-width="0.500000" />
<path stroke="#0d4f00" stroke-opacity="0.501961" fill="none" d="M 271.000000 146.965066 Q 31.358939 185.000000, 1.230120 90.687775" stroke-width="0.500000" />
<path stroke="#cdded0" stroke-opacity="0.501961" fill="none" d="M 196.488741 46.540615 Q 220.794030 125.093726, 132.244429 135.447253" stroke-width="0.500000" />
<path stroke="#c4d5c9" stroke-opacity="0.501961" fill="none" d="M 127.746357 140.044869 Q 235.422617 115.711246, 190.528262 44.968090" stroke-width="0.500000" />
<path stroke="#c2cfce" stroke-opacity="0.501961" fill="none" d="M 185.404750 116.113257 Q 231.902717 44.326213, 142.859214 23.255319" stroke-width="0.500000" />
<path stroke="#0b1d79" stroke-opacity="0.501961" fill="none" d="M 198.298054 59.548573 Q 131.818720 142.214364, 71.520954 52.049223" stroke-width="0.500000" />
<path stroke="#000c6f" stroke-opacity="0.501961" fill="none" d="M 93.065652 35.300236 Q 32.898350 80.138984, 100.437297 121.959008" stroke-width="0.500000" />
<path stroke="#105100" stroke-opacity="0.501961" fill="none" d="M 113.718684 147.529240 Q 271.000000 183.711855, 241.226561 -14.595922" stroke-width="0.500000" />
<path stroke="#000d68" stroke-opacity="0.501961" fill="none" d="M 119.216877 120.795600 Q 214.541953 111.260763, 159.046362 30.892879" stroke-width="0.500000" />
<path stroke="#064800" stroke-opacity="0.501961" fill="none" d="M 97.726132 165.920236 Q 264.812399 185.000000, 255.097950 90.543179" stroke-width="0.500000" />
<path stroke="#daeada" stroke-opacity="0.501961" fill="none" d="M 88.688010 185.000000 Q 101.391916 127.199820, 127.649485 78.489967" stroke-width="0.500000" />
<path stroke="#001172" stroke-opacity="0.501961" fill="none" d="M 67.029366 97.053492 Q 126.063638 115.087495, 125.270482 28.004804" stroke-width="0.500000" />
<path stroke="#125000" stroke-opacity="0.501961" fill="none" d="M 268.262861 108.088780 Q 25.481512 185.000000, 7.796064 93.376027" stroke-width="0.500000" />
<path stroke="#0d2178" stroke-opacity="0.501961" fill="none" d="M 187.896655 101.189820 Q 134.596865 -8.652716, 64.374358 92.312549" stroke-width="0.500000" />
<path stroke="#c9dacc" stroke-opacity="0.501961" fill="none" d="M 151.015673 129.107550 Q 243.112327 93.219695, 182.218475 34.542036" stroke-width="0.500000" />
<path stroke="#175400" stroke-opacity="0.501961" fill="none" d="M 108.033115 162.636380 Q 199.095760 173.145965, 242.669926 -16.000000" stroke-width="0.500000" />
<path stroke="#00106f" stroke-opacity="0.501961" fill="none" d="M 118.320051 130.616180 Q 131.697717 92.095238, 182.074682 41.751050" stroke-width="0.500000" />
<path stroke="#ccd7cf" stroke-opacity="0.501961" fill="none" d="M 167.006176 -16.000000 Q 137.306608 31.535135, 81.604832 185.000000" stroke-width="0.500000" />
<path stroke="#0c4d00" stroke-opacity="0.501961" fill="none" d="M 271.000000 152.430815 Q 258.131390 185.000000, -16.000000 144.615391" stroke-width="0.500000" />
<path stroke="#135100" stroke-opacity="0.501961" fill="none" d="M 236.920311 23.166331 Q 242.899082 165.991712, -16.000000 151.989918" stroke-width="0.500000" />
<path stroke="#cad9d6" stroke-opacity="0.501961" fill="none" d="M 97.291893 130.553653 Q 45.803604 96.575179, 63.859633 59.402332" stroke-width="0.500000" />
<path stroke="#125000" stroke-opacity="0.501961" fill="none" d="M 240.202433 -1.494957 Q 270.223843 114.711941, 105.448453 161.450040" stroke-width="0.500000" />
<path stroke="#122882" stroke-opacity="0.501961" fill="none" d="M 200.262265 80.301542 Q 158.008563 -16.000000, 69.729821 78.138326" stroke-width="0.500000" />
<path stroke="#021472" stroke-opacity="0.501961" fill="none" d="M 118.606967 28.112351 Q 123.845384 116.902635, 80.287429 114.074138" stroke-width="0.500000" />
<path stroke="#000d62" stroke-opacity="0.501961" fill="none" d="M 63.250303 83.787215 Q 131.803287 177.843091, 199.792770 68.795715" stroke-width="0.500000" />
<path stroke="#165700" stroke-opacity="0.501961" fill="none" d="M 10.842403 171.141000 Q 99.297253 76.657017, 0.584626 3.814619" stroke-width="0.500000" />
<path stroke="#135200" stroke-opacity="0.501961" fill="none" d="M 114.311116 139.290809 Q 255.240600 185.000000, 238.016409 2.232490" stroke-width="0.500000" />
<path stroke="#112582" stroke-opacity="0.501961" fill="none" d="M 179.033044 45.518680 Q 143.271897 124.461658, 75.981359 46.777499" stroke-width="0.500000" />
<path stroke="#084a00" stroke-opacity="0.501961" fill="none" d="M 115.959400 159.706027 Q 269.687954 179.976696, 254.187001 62.354602" stroke-width="0.500000" />
<path stroke="#000f65" stroke-opacity="0.501961" fill="none" d="M 158.440063 32.590311 Q 208.529903 109.755505, 113.139477 121.394658" stroke-width="0.500000" />
<path stroke="#729446" stroke-opacity="0.501961" fill="none" d="M 60.200537 5.220323 Q 137.540779 6.753628, 213.891245 5.389362" stroke-width="0.500000" />
<path stroke="#145300" stroke-opacity="0.501961" fill="none" d="M 270.346956 137.655092 Q -7.909784 182.392906, 11.967513 -0.958819" stroke-width="0.500000" />
<path stroke="#0f4f00" stroke-opacity="0.501961" fill="none" d="M -1.965900 82.873828 Q 1.058403 183.292668, 256.221962 155.688225" stroke-width="0.500000" />
<path stroke="#104f00" stroke-opacity="0.501961" fill="none" d="M 98.779275 169.538544 Q 271.000000 168.198784, 247.618271 10.409338" stroke-width="0.500000" />
<path stroke="#dfecdd" stroke-opacity="0.501961" fill="none" d="M 149.433042 24.701605 Q 127.999423 58.287957, 83.166078 185.000000" stroke-width="0.500000" />
<path stroke="#014600" stroke-opacity="0.501961" fill="none" d="M 82.726174 165.554999 Q -16.000000 183.754035, 3.870716 76.835749" stroke-width="0.500000" />
<path stroke="#004500" stroke-opacity="0.501961" fill="none" d="M 6.281996 79.679616 Q -16.000000 162.958223, 82.457229 159.462819" stroke-width="0.500000" />
<path stroke="#081a70" stroke-opacity="0.501961" fill="none" d="M 183.663764 43.869954 Q 154.654219 144.355638, 61.793040 71.141674" stroke-width="0.500000" />
<path stroke="#084c00" stroke-opacity="0.501961" fill="none" d="M 2.612385 29.497515 Q 4.345032 181.349549, 86.665283 159.748201" stroke-width="0.500000" />
<path stroke="#213990" stroke-opacity="0.501961" fill="none" d="M 60.777958 69.082921 Q 107.146079 -9.489516, 199.435730 68.569655" stroke-width="0.500000" />
<path stroke="#0d217e" stroke-opacity="0.501961" fill="none" d="M 182.382673 54.115398 Q 130.671818 136.413280, 74.175597 48.597623" stroke-width="0.500000" />
<path stroke="#145300" stroke-opacity="0.501961" fill="none" d="M 241.492951 -2.980242 Q 240.931891 185.000000, 111.658957 144.455372" stroke-width="0.500000" />
<path stroke="#051874" stroke-opacity="0.501961" fill="none" d="M 141.849592 28.616264 Q 71.898984 89.719811, 103.695655 121.468506" stroke-width="0.500000" />
<path stroke="#091e78" stroke-opacity="0.501961" fill="none" d="M 179.632324 37.971657 Q 106.910654 47.726847, 146.783740 128.788797" stroke-width="0.500000" />
<path stroke="#c7d5ce" stroke-opacity="0.501961" fill="none" d="M 56.412207 82.187030 Q 62.961365 34.951300, 127.466682 22.352609" stroke-width="0.500000" />
<path stroke="#c1d1c1" stroke-opacity="0.501961" fill="none" d="M 132.522574 -16.000000 Q 167.577193 4.303764, 87.784208 175.099888" stroke-width="0.500000" />
<path stroke="#051872" stroke-opacity="0.501961" fill="none" d="M 92.456045 120.581489 Q 45.448245 44.308471, 133.312118 39.860325" stroke-width="0.500000" />
<path stroke="#e1ecda" stroke-opacity="0.501961" fill="none" d="M 155.831267 -4.217061 Q 89.399643 179.390833, 91.921134 185.000000" stroke-width="0.500000" />
<path stroke="#135000" stroke-opacity="0.501961" fill="none" d="M -16.000000 112.790390 Q 240.355569 180.289021, 252.403570 91.457344" stroke-width="0.500000" />
<path stroke="#031670" stroke-opacity="0.501961" fill="none" d="M 189.060453 48.226851 Q 106.957964 72.112323, 140.233223 127.601828" stroke-width="0.500000" />
<path stroke="#094d00" stroke-opacity="0.501961" fill="none" d="M 7.794851 180.520337 Q -16.000000 150.755599, 55.264181 66.194052" stroke-width="0.500000" />
<path stroke="#010e68" stroke-opacity="0.501961" fill="none" d="M 61.430761 66.264859 Q 81.863830 147.107748, 187.790483 81.078041" stroke-width="0.500000" />
<path stroke="#0d2178" stroke-opacity="0.501961" fill="none" d="M 190.510378 99.462387 Q 120.024124 21.938029, 66.797140 95.314708" stroke-width="0.500000" />
<path stroke="#081e78" stroke-opacity="0.501961" fill="none" d="M 138.685659 27.456361 Q 115.129657 111.216799, 60.998630 76.264957" stroke-width="0.500000" />
<path stroke="#185500" stroke-opacity="0.501961" fill="none" d="M 271.000000 136.250459 Q 6.558808 180.617503, 9.927980 3.310066" stroke-width="0.500000" />
<path stroke="#0c5000" stroke-opacity="0.501961" fill="none" d="M 8.828573 12.112273 Q 2.138311 174.194246, 89.953273 159.852431" stroke-width="0.500000" />
<path stroke="#041163" stroke-opacity="0.501961" fill="none" d="M 63.798772 59.801793 Q 124.289929 178.223606, 193.197786 90.060696" stroke-width="0.500000" />
<path stroke="#165400" stroke-opacity="0.501961" fill="none" d="M 244.922125 3.371762 Q 164.727832 48.928492, 267.443111 185.000000" stroke-width="0.500000" />
<path stroke="#10247d" stroke-opacity="0.501961" fill="none" d="M 184.169123 52.128216 Q 128.421284 133.316588, 77.792410 46.649946" stroke-width="0.500000" />
<path stroke="#185300" stroke-opacity="0.501961" fill="none" d="M 106.692406 148.909852 Q 184.123802 185.000000, 256.508241 -16.000000" stroke-width="0.500000" />
<path stroke="#0e4e00" stroke-opacity="0.501961" fill="none" d="M 254.096050 3.046551 Q 271.000000 185.000000, 113.045838 150.136487" stroke-width="0.500000" />
<path stroke="#044800" stroke-opacity="0.501961" fill="none" d="M 85.165202 169.345818 Q -16.000000 169.632319, 10.798580 67.974434" stroke-width="0.500000" />
<path stroke="#65893f" stroke-opacity="0.501961" fill="none" d="M 63.149079 24.950566 Q 77.984270 -1.868142, 260.698888 -1.266855" stroke-width="0.500000" />
<path stroke="#155400" stroke-opacity="0.501961" fill="none" d="M 102.322184 161.987165 Q 265.148987 164.840874, 231.860264 -2.396986" stroke-width="0.500000" />
<path stroke="#03166f" stroke-opacity="0.501961" fill="none" d="M 127.474153 25.903992 Q 127.333059 108.529714, 73.175501 105.102312" stroke-width="0.500000" />
<path stroke="#0d4e00" stroke-opacity="0.501961" fill="none" d="M 250.627219 29.343414 Q 271.000000 185.000000, 129.014170 154.079607" stroke-width="0.500000" />
<path stroke="#e5efde" stroke-opacity="0.501961" fill="none" d="M 86.562251 180.947411 Q 148.777902 9.665456, 161.951237 -16.000000" stroke-width="0.500000" />
<path stroke="#12267e" stroke-opacity="0.501961" fill="none" d="M 80.445320 49.641342 Q 149.407423 120.429670, 178.660248 37.809809" stroke-width="0.500000" />
<path stroke="#011061" stroke-opacity="0.501961" fill="none" d="M 64.421465 71.576775 Q 118.083129 176.941570, 189.099635 75.418876" stroke-width="0.500000" />
<path stroke="#cee1d3" stroke-opacity="0.501961" fill="none" d="M 58.588961 69.674836 Q 48.440185 108.068524, 96.996847 126.561317" stroke-width="0.500000" />
<path stroke="#0f5200" stroke-opacity="0.501961" fill="none" d="M 78.587667 158.331190 Q -11.611744 156.213513, 25.061474 -16.000000" stroke-width="0.500000" />
<path stroke="#125000" stroke-opacity="0.501961" fill="none" d="M 264.123746 126.371596 Q 23.051431 167.780064, -4.459365 117.602847" stroke-width="0.500000" />
<path stroke="#1a5400" stroke-opacity="0.501961" fill="none" d="M 234.687511 -16.000000 Q 202.662635 184.363489, 98.361289 167.026311" stroke-width="0.500000" />
<path stroke="#155600" stroke-opacity="0.501961" fill="none" d="M -0.565590 9.897549 Q 115.985142 120.886634, -16.000000 177.259510" stroke-width="0.500000" />
<path stroke="#e4eedf" stroke-opacity="0.501961" fill="none" d="M 90.011560 177.256305 Q 120.062609 90.289019, 161.043202 -11.626509" stroke-width="0.500000" />
<path stroke="#000f69" stroke-opacity="0.501961" fill="none" d="M 92.450310 118.830570 Q 27.734675 79.827860, 97.123356 37.774433" stroke-width="0.500000" />
<path stroke="#05196e" stroke-opacity="0.501961" fill="none" d="M 194.433003 56.670351 Q 138.160778 24.693414, 116.546419 124.113285" stroke-width="0.500000" />
<path stroke="#185500" stroke-opacity="0.501961" fill="none" d="M 17.862001 17.537654 Q 23.846081 185.000000, 252.723299 140.476653" stroke-width="0.500000" />
<path stroke="#03156c" stroke-opacity="0.501961" fill="none" d="M 126.117772 115.276835 Q 198.416570 96.147452, 147.707935 31.609896" stroke-width="0.500000" />
<path stroke="#051971" stroke-opacity="0.501961" fill="none" d="M 148.666681 30.111365 Q 118.682387 115.738712, 166.388781 120.508665" stroke-width="0.500000" />
<path stroke="#0f5100" stroke-opacity="0.501961" fill="none" d="M 84.102138 164.386193 Q -16.000000 159.627706, 21.136126 -6.548048" stroke-width="0.500000" />
<path stroke="#081c73" stroke-opacity="0.501961" fill="none" d="M 100.664462 120.577079 Q 53.362034 54.641872, 140.376212 28.148841" stroke-width="0.500000" />
<path stroke="#135200" stroke-opacity="0.501961" fill="none" d="M 249.978664 -5.535106 Q 170.081535 146.620272, 262.838314 172.004241" stroke-width="0.500000" />
<path stroke="#024700" stroke-opacity="0.501961" fill="none" d="M 192.790615 164.727418 Q 271.000000 177.777380, 250.271803 72.619259" stroke-width="0.500000" />
<path stroke="#03156a" stroke-opacity="0.501961" fill="none" d="M 150.143299 29.235944 Q 191.574187 98.736394, 117.714626 114.156977" stroke-width="0.500000" />
<path stroke="#084800" stroke-opacity="0.501961" fill="none" d="M 103.304541 164.968262 Q 259.417107 185.000000, 252.814135 113.159761" stroke-width="0.500000" />
<path stroke="#bccec6" stroke-opacity="0.501961" fill="none" d="M 82.673793 35.148385 Q 30.091013 85.398521, 96.389960 132.416951" stroke-width="0.500000" />
<path stroke="#03156f" stroke-opacity="0.501961" fill="none" d="M 71.083620 102.695615 Q 124.637861 110.831563, 112.884273 31.385003" stroke-width="0.500000" />
<path stroke="#c7d9ca" stroke-opacity="0.501961" fill="none" d="M 151.572147 137.145747 Q 97.690144 114.968597, 84.851878 179.579989" stroke-width="0.500000" />
<path stroke="#c2d5c7" stroke-opacity="0.501961" fill="none" d="M 78.715198 42.175739 Q 18.314104 91.751504, 105.147124 138.219447" stroke-width="0.500000" />
<path stroke="#0b4900" stroke-opacity="0.501961" fill="none" d="M 257.042300 172.092481 Q 232.970522 82.269216, 97.041625 167.993000" stroke-width="0.500000" />
<path stroke="#054900" stroke-opacity="0.501961" fill="none" d="M 10.937074 56.935866 Q -16.000000 176.421698, 70.682403 166.214340" stroke-width="0.500000" />
<path stroke="#03116a" stroke-opacity="0.501961" fill="none" d="M 188.558684 46.661688 Q 222.043198 89.986699, 156.677719 125.489435" stroke-width="0.500000" />
<path stroke="#03156c" stroke-opacity="0.501961" fill="none" d="M 117.511118 126.384096 Q 157.032224 43.450880, 185.693635 44.980851" stroke-width="0.500000" />
<path stroke="#041871" stroke-opacity="0.501961" fill="none" d="M 66.552298 92.507041 Q 129.458545 102.418900, 121.455483 30.262761" stroke-width="0.500000" />
<path stroke="#074a00" stroke-opacity="0.501961" fill="none" d="M 71.175603 118.154228 Q -9.290738 85.978926, -0.352648 175.948277" stroke-width="0.500000" />
<path stroke="#0e4e00" stroke-opacity="0.501961" fill="none" d="M 112.044270 148.233139 Q 255.306195 185.000000, 251.237084 56.498831" stroke-width="0.500000" />
<path stroke="#115300" stroke-opacity="0.501961" fill="none" d="M -8.132474 -16.000000 Q 76.104425 154.095228, -16.000000 177.363464" stroke-width="0.500000" />
<path stroke="#115300" stroke-opacity="0.501961" fill="none" d="M 15.091735 -0.167517 Q 12.942961 170.260470, 87.485542 161.975943" stroke-width="0.500000" />
<path stroke="#dfe3d3" stroke-opacity="0.501961" fill="none" d="M 171.923055 30.029381 Q 161.441387 25.096061, 118.705993 25.139870" stroke-width="0.500000" />
<path stroke="#9db68a" stroke-opacity="0.501961" fill="none" d="M 155.322897 -6.168372 Q 31.838516 54.637910, 58.636303 92.828567" stroke-width="0.500000" />
<path stroke="#175400" stroke-opacity="0.501961" fill="none" d="M 106.871490 143.695035 Q 230.360938 185.000000, 238.807187 -13.773506" stroke-width="0.500000" />
<path stroke="#155300" stroke-opacity="0.501961" fill="none" d="M 256.608784 171.210358 Q 162.181488 148.299284, 236.729887 18.035714" stroke-width="0.500000" />
<path stroke="#0c2074" stroke-opacity="0.501961" fill="none" d="M 72.976067 52.793183 Q 121.726967 137.947847, 187.348654 63.598479" stroke-width="0.500000" />
<path stroke="#0c2379" stroke-opacity="0.501961" fill="none" d="M 136.264821 26.997865 Q 69.953662 28.046153, 103.255034 117.629200" stroke-width="0.500000" />
<path stroke="#135400" stroke-opacity="0.501961" fill="none" d="M 34.458214 -8.446359 Q -16.000000 152.460103, 87.077853 159.631189" stroke-width="0.500000" />
<path stroke="#155100" stroke-opacity="0.501961" fill="none" d="M 122.837244 154.863678 Q 271.000000 105.159409, 237.319887 -7.374284" stroke-width="0.500000" />
<path stroke="#051a72" stroke-opacity="0.501961" fill="none" d="M 81.388823 43.537645 Q 143.529194 64.096276, 97.835703 120.396397" stroke-width="0.500000" />
<path stroke="#d5e4d5" stroke-opacity="0.501961" fill="none" d="M 145.446803 30.537262 Q 135.763785 59.713241, 85.283244 174.608603" stroke-width="0.500000" />
<path stroke="#064a00" stroke-opacity="0.501961" fill="none" d="M 12.943974 74.606582 Q -16.000000 168.919801, 91.691224 150.900151" stroke-width="0.500000" />
<path stroke="#031469" stroke-opacity="0.501961" fill="none" d="M 151.936556 29.304852 Q 203.296541 100.780169, 127.684681 118.134573" stroke-width="0.500000" />
<path stroke="#195700" stroke-opacity="0.501961" fill="none" d="M -16.000000 177.674130 Q 112.568987 99.249634, -3.029559 -16.000000" stroke-width="0.500000" />
<path stroke="#165100" stroke-opacity="0.501961" fill="none" d="M 105.119359 145.893588 Q 263.160990 126.767164, 244.403833 4.501673" stroke-width="0.500000" />
<path stroke="#071c74" stroke-opacity="0.501961" fill="none" d="M 150.279237 29.867823 Q 123.613273 103.253782, 181.574189 103.631494" stroke-width="0.500000" />
<path stroke="#6e8f43" stroke-opacity="0.501961" fill="none" d="M 64.241343 7.202887 Q 146.362622 12.094194, 203.263583 5.605536" stroke-width="0.500000" />
<path stroke="#0b4a00" stroke-opacity="0.501961" fill="none" d="M 104.373379 164.241156 Q 271.000000 176.442666, 249.695306 80.121828" stroke-width="0.500000" />
<path stroke="#024600" stroke-opacity="0.501961" fill="none" d="M 1.561697 106.053626 Q -7.441441 185.000000, 80.965275 163.619439" stroke-width="0.500000" />
</g>
</svg>