<svg xmlns="http://www.w3.org/2000/svg" version="1.1" width="1024" height="680">
<rect x="0" y="0" width="1024" height="680" fill="#759295" />
<g transform="scale(4.000000) translate(0.5 0.5)">
<g transform="translate(32.814595 37.495675) rotate(8.861516) scale(190.872882 46.139643)"><ellipse fill="#ffffff" fill-opacity="0.501961" cx="0" cy="0" rx="1" ry="1" /></g>
<g transform="translate(158.024206 148.456272) rotate(181.971745) scale(255.000000 50.477771)"><ellipse fill="#1d1100" fill-opacity="0.501961" cx="0" cy="0" rx="1" ry="1" /></g>
<g transform="translate(213.098874 17.790389) rotate(-0.590358) scale(95.008747 39.130859)"><ellipse fill="#009ae8" fill-opacity="0.501961" cx="0" cy="0" rx="1" ry="1" /></g>
<g transform="translate(0.000000 47.593583) rotate(189.495957) scale(131.778068 36.467293)"><ellipse fill="#f7ffff" fill-opacity="0.501961" cx="0" cy="0" rx="1" ry="1" /></g>
<g transform="translate(229.499778 169.000000) rotate(177.420056) scale(82.302959 43.102016)"><ellipse fill="#0a1303" fill-opacity="0.501961" cx="0" cy="0" rx="1" ry="1" /></g>
<ellipse fill="#e3f4f5" fill-opacity="0.501961" cx="177" cy="72" rx="254" ry="13" />
<g transform="translate(225.217787 0.642700) rotate(282.895522) scale(34.710579 73.620478)"><ellipse fill="#0078b5" fill-opacity="0.501961" cx="0" cy="0" rx="1" ry="1" /></g>
<g transform="translate(175.497531 102.286239) rotate(-0.116889) scale(111.901009 18.772042)"><ellipse fill="#7b8577" fill-opacity="0.501961" cx="0" cy="0" rx="1" ry="1" /></g>
<g transform="translate(107.568160 23.648235) rotate(300.151362) scale(35.403927 68.605433)"><ellipse fill="#96d1eb" fill-opacity="0.501961" cx="0" cy="0" rx="1" ry="1" /></g>
<ellipse fill="#7d806d" fill-opacity="0.501961" cx="77" cy="142" rx="23" ry="28" />
<g transform="translate(2.261822 157.666200) rotate(185.442971) scale(24.945525 64.560395)"><ellipse fill="#262e1b" fill-opacity="0.501961" cx="0" cy="0" rx="1" ry="1" /></g>
<g transform="translate(170.814528 132.287687) rotate(278.029370) scale(6.301398 71.891111)"><ellipse fill="#0c1d0d" fill-opacity="0.501961" cx="0" cy="0" rx="1" ry="1" /></g>
<g transform="translate(193.713101 55.780016) rotate(93.762741) scale(15.203653 64.081849)"><ellipse fill="#87c5d9" fill-opacity="0.501961" cx="0" cy="0" rx="1" ry="1" /></g>
<ellipse fill="#e1efef" fill-opacity="0.501961" cx="40" cy="0" rx="72" ry="19" />
<g transform="translate(28 112) rotate(268) scale(36 81)"><rect fill="#5d6756" fill-opacity="0.501961" x="-0.5" y="-0.5" width="1" height="1" /></g>
<g transform="translate(206.590726 129.251150) rotate(135.093079) scale(2.374262 12.741537)"><ellipse fill="#d1c09c" fill-opacity="0.501961" cx="0" cy="0" rx="1" ry="1" /></g>
<ellipse fill="#484a3d" fill-opacity="0.501961" cx="247" cy="99" rx="44" ry="8" />
<g transform="translate(224.398580 12.080900) rotate(93.463421) scale(22.174055 56.071415)"><ellipse fill="#0085ba" fill-opacity="0.501961" cx="0" cy="0" rx="1" ry="1" /></g>
<polygon fill="#60624a" fill-opacity="0.501961" points="269.012021,138.865685,208.122917,154.788150,177.658791,148.359628,195.547433,177.047933" />
<ellipse fill="#1b1701" fill-opacity="0.501961" cx="34" cy="169" rx="32" ry="10" />
<g transform="translate(66.554226 87.966140) rotate(89.697662) scale(3.542230 77.203777)"><ellipse fill="#9aaca7" fill-opacity="0.501961" cx="0" cy="0" rx="1" ry="1" /></g>
<g transform="translate(156.055065 20.551182) rotate(211.931481) scale(25.647152 18.317415)"><ellipse fill="#45a6cd" fill-opacity="0.501961" cx="0" cy="0" rx="1" ry="1" /></g>
<g transform="translate(226.509436 140.911490) rotate(76.205396) scale(7.267052 38.420373)"><ellipse fill="#000405" fill-opacity="0.501961" cx="0" cy="0" rx="1" ry="1" /></g>
<g transform="translate(244.605915 0.000000) rotate(286.942227) scale(18.778961 43.184009)"><ellipse fill="#00559c" fill-opacity="0.501961" cx="0" cy="0" rx="1" ry="1" /></g>
<polygon fill="#85846e" fill-opacity="0.501961" points="212,138 184,107 237,100" />
<polygon fill="#7d8c7f" fill-opacity="0.501961" points="93,115 88,130 140,145" />
<polygon fill="#04100f" fill-opacity="0.501961" points="183.859521,147.640202,145.524300,185.000000,141.809062,146.344171,118.774948,182.419571" />
<rect fill="#738178" fill-opacity="0.501961" x="123" y="108" width="53" height="17" />
<g transform="translate(168.327770 169.000000) rotate(297.718731) scale(6.416617 4.195282)"><ellipse fill="#a39c82" fill-opacity="0.501961" cx="0" cy="0" rx="1" ry="1" /></g>
<g transform="translate(241 169) rotate(17) scale(37 19)"><rect fill="#000500" fill-opacity="0.501961" x="-0.5" y="-0.5" width="1" height="1" /></g>
<polygon fill="#8c876f" fill-opacity="0.501961" points="166.659379,152.951472,145.228730,149.297263,145.597054,161.890690,165.326953,152.665841" />
<ellipse fill="#edf2ed" fill-opacity="0.501961" cx="15" cy="57" rx="54" ry="30" />
<g transform="translate(22 159) rotate(173) scale(79 3)"><rect fill="#968d68" fill-opacity="0.501961" x="-0.5" y="-0.5" width="1" height="1" /></g>
<polygon fill="#a0a291" fill-opacity="0.501961" points="95,163 75,155 73,169" />
<ellipse fill="#0a1610" fill-opacity="0.501961" cx="4" cy="158" rx="7" ry="28" />
<g transform="translate(192.900923 13.033954) rotate(205.579028) scale(47.384277 12.239078)"><ellipse fill="#009bc9" fill-opacity="0.501961" cx="0" cy="0" rx="1" ry="1" /></g>
<polygon fill="#141809" fill-opacity="0.501961" points="25,157 60,150 48,144" />
<rect fill="#677365" fill-opacity="0.501961" x="10" y="93" width="54" height="14" />
<rect fill="#7fbad7" fill-opacity="0.501961" x="107" y="0" width="37" height="43" />
<polygon fill="#07150c" fill-opacity="0.501961" points="223.284773,151.963620,199.209888,123.291808,154.294863,136.494780,178.495163,142.457230" />
<g transform="translate(73.569435 112.441453) rotate(103.900388) scale(3.457579 35.237407)"><ellipse fill="#30432c" fill-opacity="0.501961" cx="0" cy="0" rx="1" ry="1" /></g>
<g transform="translate(188 76) rotate(88) scale(18 105)"><rect fill="#d0dfdd" fill-opacity="0.501961" x="-0.5" y="-0.5" width="1" height="1" /></g>
<polygon fill="#0b1910" fill-opacity="0.501961" points="234,99 262,103 251,108" />
<polygon fill="#7d7f6c" fill-opacity="0.501961" points="115.257694,157.158841,100.197386,163.096983,137.259037,135.164223,153.758353,132.765682" />
<rect fill="#31463d" fill-opacity="0.501961" x="109" y="101" width="112" height="3" />
<rect fill="#000300" fill-opacity="0.501961" x="95" y="154" width="5" height="16" />
<g transform="translate(74 146) rotate(7) scale(50 3)"><rect fill="#212c27" fill-opacity="0.501961" x="-0.5" y="-0.5" width="1" height="1" /></g>
<polygon fill="#545944" fill-opacity="0.501961" points="259.461254,165.639013,271.000000,133.280760,225.631713,156.448826,217.444774,140.676776" />
<ellipse fill="#000605" fill-opacity="0.501961" cx="9" cy="135" rx="18" ry="4" />
<g transform="translate(204.826626 37.661927) rotate(16.756658) scale(58.360201 7.742909)"><ellipse fill="#3da9cc" fill-opacity="0.501961" cx="0" cy="0" rx="1" ry="1" /></g>
<ellipse fill="#002329" fill-opacity="0.501961" cx="250" cy="126" rx="21" ry="5" />
<rect fill="#1f2721" fill-opacity="0.501961" x="205" y="117" width="13" height="8" />
<rect fill="#000002" fill-opacity="0.501961" x="105" y="162" width="8" height="8" />
<polygon fill="#dbd6bf" fill-opacity="0.501961" points="223,119 216,114 226,111" />
<polygon fill="#848874" fill-opacity="0.501961" points="244.016908,113.829044,235.833767,123.296519,254.765865,118.517110,222.467874,93.871139" />
<polygon fill="#6e7a6e" fill-opacity="0.501961" points="22.831338,135.166081,117.323485,103.721702,91.905925,100.149357,53.879452,117.683341" />
<polygon fill="#3c4c3e" fill-opacity="0.501961" points="28.183982,100.965447,47.214284,98.995227,26.435130,94.452185,-16.000000,100.752673" />
<polygon fill="#aba993" fill-opacity="0.501961" points="195,113 189,119 214,130" />
<g transform="translate(80.106229 18.924515) rotate(251.631248) scale(13.059626 37.763947)"><ellipse fill="#aed2e1" fill-opacity="0.501961" cx="0" cy="0" rx="1" ry="1" /></g>
<polygon fill="#869590" fill-opacity="0.501961" points="58,104 99,85 42,88" />
<polygon fill="#14201d" fill-opacity="0.501961" points="81,162 88,152 87,162" />
<polygon fill="#89bfd1" fill-opacity="0.501961" points="150.647815,45.169162,271.000000,60.777128,255.084704,70.432225,208.404513,67.995326" />
<polygon fill="#585b48" fill-opacity="0.501961" points="39,149 -4,141 67,132" />
<g transform="translate(130 92) rotate(262) scale(19 4)"><rect fill="#496d74" fill-opacity="0.501961" x="-0.5" y="-0.5" width="1" height="1" /></g>
<rect fill="#7d857d" fill-opacity="0.501961" x="103" y="90" width="144" height="8" />
<ellipse fill="#101b16" fill-opacity="0.501961" cx="42" cy="161" rx="19" ry="3" />
<polygon fill="#848876" fill-opacity="0.501961" points="68.412825,123.214411,79.436287,119.987408,66.030066,157.236550,62.099901,165.347751" />
<polygon fill="#a0a69b" fill-opacity="0.501961" points="142,110 161,118 152,106" />
<polygon fill="#d7e7e8" fill-opacity="0.501961" points="168.192942,61.169509,173.268234,85.239932,113.981946,84.255695,63.227213,51.541562" />
<polygon fill="#2d372e" fill-opacity="0.501961" points="44.751978,117.183288,18.546883,124.802901,20.409229,134.894077,74.470355,102.914303" />
<rect fill="#323c33" fill-opacity="0.501961" x="25" y="132" width="66" height="3" />
<polygon fill="#7e7e66" fill-opacity="0.501961" points="220.796364,125.795759,216.325585,130.563171,252.570576,115.271830,259.434072,107.385465" />
<polygon fill="#696954" fill-opacity="0.501961" points="29.437471,128.736736,38.650409,159.948809,-5.609255,164.765932,61.517429,139.585590" />
<rect fill="#ffffc6" fill-opacity="0.501961" x="101" y="164" width="2" height="6" />
<rect fill="#26382e" fill-opacity="0.501961" x="161" y="104" width="22" height="4" />
<polygon fill="#3e4a42" fill-opacity="0.501961" points="225.288203,100.730438,213.005709,95.633563,210.106503,123.290353,190.639107,142.085152" />
<polygon fill="#575a42" fill-opacity="0.501961" points="221,157 226,179 168,145" />
<g transform="translate(247.271929 27.643701) rotate(25.146957) scale(99.708136 10.245669)"><ellipse fill="#0086b7" fill-opacity="0.501961" cx="0" cy="0" rx="1" ry="1" /></g>
<polygon fill="#777f74" fill-opacity="0.501961" points="27,101 51,107 33,118" />
<polygon fill="#1b231c" fill-opacity="0.501961" points="27.911096,137.031811,-4.618998,155.637900,2.201540,158.702292,27.604008,155.636085" />
<polygon fill="#263229" fill-opacity="0.501961" points="115,162 121,132 113,141" />
<polygon fill="#2b403c" fill-opacity="0.501961" points="206.986633,125.163692,174.398540,119.084089,140.039913,131.896314,168.317514,124.833972" />
<polygon fill="#213117" fill-opacity="0.501961" points="108,114 126,128 86,115" />
<rect fill="#889282" fill-opacity="0.501961" x="153" y="139" width="17" height="4" />
<polygon fill="#1c2713" fill-opacity="0.501961" points="187.835478,140.647930,148.336160,138.576727,183.120399,119.790229,168.152249,122.274205" />
<rect fill="#a9afa2" fill-opacity="0.501961" x="101" y="132" width="29" height="2" />
<ellipse fill="#2c4d4c" fill-opacity="0.501961" cx="82" cy="99" rx="25" ry="2" />
<g transform="translate(68.946599 74.869725) rotate(364.466551) scale(57.117437 7.955466)"><ellipse fill="#f4f3ef" fill-opacity="0.501961" cx="0" cy="0" rx="1" ry="1" /></g>
<polygon fill="#7c775e" fill-opacity="0.501961" points="155.452672,156.030868,156.145579,162.696009,151.210394,163.756312,142.691994,138.400268" />
<polygon fill="#8a8d78" fill-opacity="0.501961" points="112,150 111,143 99,142" />
<polygon fill="#00050a" fill-opacity="0.501961" points="177.804144,159.135478,191.069032,165.304648,160.933297,160.107097,175.056243,150.336137" />
<polygon fill="#969173" fill-opacity="0.501961" points="165.643676,167.239703,188.028943,174.151919,141.320608,185.000000,159.642276,168.646724" />
<ellipse fill="#282715" fill-opacity="0.501961" cx="238" cy="113" rx="7" ry="2" />
<rect fill="#233530" fill-opacity="0.501961" x="99" y="134" width="14" height="6" />
<polygon fill="#9aa095" fill-opacity="0.501961" points="136,139 127,140 137,150" />
<g transform="translate(135.382922 123.031323) rotate(278.462788) scale(3.994634 24.350776)"><ellipse fill="#475a50" fill-opacity="0.501961" cx="0" cy="0" rx="1" ry="1" /></g>
<polygon fill="#23302a" fill-opacity="0.501961" points="127.120173,157.996777,132.866134,151.835814,161.673445,175.283533,113.665191,161.135084" />
<polygon fill="#061511" fill-opacity="0.501961" points="99,166 69,170 107,180" />
<g transform="translate(89.156257 151.310381) rotate(97.724166) scale(1.000000 23.326259)"><ellipse fill="#909689" fill-opacity="0.501961" cx="0" cy="0" rx="1" ry="1" /></g>
<rect fill="#c1c6b5" fill-opacity="0.501961" x="113" y="158" width="8" height="2" />
<g transform="translate(94 135) rotate(253) scale(1 42)"><rect fill="#a3a28f" fill-opacity="0.501961" x="-0.5" y="-0.5" width="1" height="1" /></g>
<polygon fill="#212d27" fill-opacity="0.501961" points="-16.000000,118.961118,16.357744,121.264332,-6.116028,111.568715,32.361994,109.098358" />
<rect fill="#adad9c" fill-opacity="0.501961" x="87" y="157" width="7" height="10" />
<g transform="translate(58 140) rotate(278) scale(1 24)"><rect fill="#aca892" fill-opacity="0.501961" x="-0.5" y="-0.5" width="1" height="1" /></g>
<rect fill="#6e99a2" fill-opacity="0.501961" x="192" y="84" width="64" height="5" />
<polygon fill="#0a140d" fill-opacity="0.501961" points="210.797569,153.015874,237.885337,154.543635,194.199316,133.326547,170.251110,145.357557" />
<polygon fill="#94cae1" fill-opacity="0.501961" points="87.571793,40.775467,62.347947,24.487506,83.450375,22.133047,227.344618,67.930290" />
<g transform="translate(243 154) rotate(388) scale(4 2)"><rect fill="#bec5b5" fill-opacity="0.501961" x="-0.5" y="-0.5" width="1" height="1" /></g>
<polygon fill="#374633" fill-opacity="0.501961" points="82.431985,113.521951,80.460602,132.406244,91.143452,123.725907,56.750745,106.872584" />
<g transform="translate(139 110) rotate(123) scale(9 9)"><rect fill="#3c4841" fill-opacity="0.501961" x="-0.5" y="-0.5" width="1" height="1" /></g>
<polygon fill="#797f72" fill-opacity="0.501961" points="200.762544,130.941262,181.149610,124.688284,196.523050,126.405626,207.646085,79.341062" />
<g transform="translate(204 114) rotate(119) scale(2 36)"><rect fill="#4b5043" fill-opacity="0.501961" x="-0.5" y="-0.5" width="1" height="1" /></g>
<rect fill="#1f2111" fill-opacity="0.501961" x="65" y="161" width="8" height="5" />
<g transform="translate(59 131) rotate(188) scale(12 1)"><rect fill="#b7b8a4" fill-opacity="0.501961" x="-0.5" y="-0.5" width="1" height="1" /></g>
<polygon fill="#738077" fill-opacity="0.501961" points="135,101 67,103 97,115" />
<polygon fill="#949586" fill-opacity="0.501961" points="99.450819,120.833155,85.393608,120.587591,99.689895,131.685122,84.681761,131.759463" />
<rect fill="#040f0d" fill-opacity="0.501961" x="68" y="151" width="8" height="3" />
<g transform="translate(76.175346 156.178498) rotate(249.067134) scale(1.788366 14.305287)"><ellipse fill="#929481" fill-opacity="0.501961" cx="0" cy="0" rx="1" ry="1" /></g>
<polygon fill="#000000" fill-opacity="0.501961" points="152,145 157,148 149,150" />
<polygon fill="#c7e0e2" fill-opacity="0.501961" points="-15,31 48,58 -16,53" />
<rect fill="#9c9f91" fill-opacity="0.501961" x="143" y="109" width="44" height="2" />
<polygon fill="#a6a28d" fill-opacity="0.501961" points="117,147 117,152 127,146" />
<g transform="translate(152.613248 60.738971) rotate(281.341238) scale(6.711803 68.750423)"><ellipse fill="#b0d4e0" fill-opacity="0.501961" cx="0" cy="0" rx="1" ry="1" /></g>
<polygon fill="#159fc9" fill-opacity="0.501961" points="152.153031,12.308150,164.115772,12.851801,271.000000,41.450145,179.343444,31.502622" />
<polygon fill="#564927" fill-opacity="0.501961" points="58,162 70,184 -16,172" />
<rect fill="#14241e" fill-opacity="0.501961" x="71" y="139" width="5" height="7" />
<g transform="translate(70 169) rotate(47) scale(18 1)"><rect fill="#bbbfa6" fill-opacity="0.501961" x="-0.5" y="-0.5" width="1" height="1" /></g>
<ellipse fill="#06201e" fill-opacity="0.501961" cx="182" cy="129" rx="3" ry="10" />
<rect fill="#8c8e7c" fill-opacity="0.501961" x="6" y="115" width="27" height="2" />
<g transform="translate(69 148) rotate(190) scale(19 1)"><rect fill="#9fa493" fill-opacity="0.501961" x="-0.5" y="-0.5" width="1" height="1" /></g>
<polygon fill="#a2a99d" fill-opacity="0.501961" points="3.250328,97.665231,36.586656,85.461847,-0.883863,85.797672,8.140243,96.706251" />
<rect fill="#969582" fill-opacity="0.501961" x="186" y="116" width="21" height="6" />
<polygon fill="#2b322a" fill-opacity="0.501961" points="133.901364,185.000000,171.785256,185.000000,124.434240,154.614624,130.100018,138.833579" />
<g transform="translate(142 132) rotate(90) scale(4 22)"><rect fill="#0b1708" fill-opacity="0.501961" x="-0.5" y="-0.5" width="1" height="1" /></g>
<polygon fill="#716a50" fill-opacity="0.501961" points="36.733416,145.021820,54.895948,145.632807,21.335872,148.068614,33.015163,162.010133" />
<g transform="translate(217.595859 46.674562) rotate(193.950819) scale(72.372161 6.758332)"><ellipse fill="#5aaccb" fill-opacity="0.501961" cx="0" cy="0" rx="1" ry="1" /></g>
<g transform="translate(180 138) rotate(356) scale(1 28)"><rect fill="#58674c" fill-opacity="0.501961" x="-0.5" y="-0.5" width="1" height="1" /></g>
<ellipse fill="#6d7a6f" fill-opacity="0.501961" cx="119" cy="166" rx="5" ry="5" />
<polygon fill="#5f685c" fill-opacity="0.501961" points="172,93 178,127 168,123" />
<polygon fill="#1c2218" fill-opacity="0.501961" points="62,150 33,154 53,142" />
<polygon fill="#2d3228" fill-opacity="0.501961" points="65.683108,133.320507,46.562747,134.605668,40.396283,121.052696,54.339133,139.488667" />
<polygon fill="#84897b" fill-opacity="0.501961" points="160.253329,122.556029,189.592436,117.224612,106.132975,117.424832,152.730267,113.693453" />
<ellipse fill="#8a8b75" fill-opacity="0.501961" cx="115" cy="140" rx="3" ry="3" />
<polygon fill="#314f4f" fill-opacity="0.501961" points="107,98 128,99 112,106" />
<ellipse fill="#00030a" fill-opacity="0.501961" cx="167" cy="130" rx="5" ry="5" />
<polygon fill="#010e0f" fill-opacity="0.501961" points="-16.000000,156.563979,8.560982,165.629099,58.175111,160.424723,-4.714968,172.252827" />
<g transform="translate(37 144) rotate(64) scale(1 14)"><rect fill="#101b17" fill-opacity="0.501961" x="-0.5" y="-0.5" width="1" height="1" /></g>
<rect fill="#3d4032" fill-opacity="0.501961" x="86" y="137" width="11" height="6" />
<polygon fill="#2d4339" fill-opacity="0.501961" points="74,111 87,111 62,125" />
<rect fill="#979b86" fill-opacity="0.501961" x="144" y="134" width="5" height="6" />
<polygon fill="#929382" fill-opacity="0.501961" points="182.484285,111.172252,174.426509,111.210179,166.163396,114.117728,204.155072,111.229284" />
<g transform="translate(178 165) rotate(126) scale(1 5)"><rect fill="#c6b899" fill-opacity="0.501961" x="-0.5" y="-0.5" width="1" height="1" /></g>
<rect fill="#000c0e" fill-opacity="0.501961" x="99" y="155" width="9" height="3" />
<polygon fill="#162d28" fill-opacity="0.501961" points="242.965662,140.811535,254.224296,111.125489,271.000000,151.716815,254.848719,117.485693" />
<ellipse fill="#9a9278" fill-opacity="0.501961" cx="49" cy="155" rx="10" ry="2" />
<polygon fill="#27312c" fill-opacity="0.501961" points="115.190839,157.363888,122.725284,141.138451,107.942984,153.111519,107.900710,147.237102" />
<ellipse fill="#c6cabd" fill-opacity="0.501961" cx="108" cy="128" rx="2" ry="2" />
<ellipse fill="#63add0" fill-opacity="0.501961" cx="142" cy="19" rx="16" ry="18" />
<ellipse fill="#2a3021" fill-opacity="0.501961" cx="56" cy="160" rx="5" ry="5" />
<ellipse fill="#c1c8c5" fill-opacity="0.501961" cx="158" cy="153" rx="2" ry="2" />
<g transform="translate(16 140) rotate(363) scale(25 1)"><rect fill="#707562" fill-opacity="0.501961" x="-0.5" y="-0.5" width="1" height="1" /></g>
<polygon fill="#9b9982" fill-opacity="0.501961" points="66,116 59,115 51,124" />
<g transform="translate(83 127) rotate(354) scale(15 6)"><rect fill="#33413e" fill-opacity="0.501961" x="-0.5" y="-0.5" width="1" height="1" /></g>
<ellipse fill="#c9c8af" fill-opacity="0.501961" cx="171" cy="163" rx="2" ry="2" />
<polygon fill="#dee9e6" fill-opacity="0.501961" points="52.674987,9.989913,-11.737223,39.786263,-13.036774,14.282826,57.894648,-11.086331" />
<ellipse fill="#8c958a" fill-opacity="0.501961" cx="79" cy="120" rx="4" ry="4" />
<g transform="translate(212 129) rotate(321) scale(1 10)"><rect fill="#9d9f92" fill-opacity="0.501961" x="-0.5" y="-0.5" width="1" height="1" /></g>
<rect fill="#888369" fill-opacity="0.501961" x="180" y="169" width="14" height="1" />
<rect fill="#929a93" fill-opacity="0.501961" x="135" y="92" width="17" height="7" />
<ellipse fill="#000000" fill-opacity="0.501961" cx="142" cy="155" rx="3" ry="3" />
<g transform="translate(100 126) rotate(193) scale(9 4)"><rect fill="#132d33" fill-opacity="0.501961" x="-0.5" y="-0.5" width="1" height="1" /></g>
<rect fill="#bbb7aa" fill-opacity="0.501961" x="197" y="105" width="7" height="3" />
<ellipse fill="#67746c" fill-opacity="0.501961" cx="254" cy="93" rx="22" ry="9" />
<polygon fill="#c6c3aa" fill-opacity="0.501961" points="184,111 190,111 185,104" />
<polygon fill="#95937a" fill-opacity="0.501961" points="69,133 68,139 90,139" />
<polygon fill="#7a847b" fill-opacity="0.501961" points="149.971637,96.652831,161.857580,104.868699,158.303097,89.401656,105.515275,111.635738" />
<polygon fill="#142d2e" fill-opacity="0.501961" points="266,120 216,138 228,123" />
<g transform="translate(79 86) rotate(84) scale(9 2)"><rect fill="#7399a0" fill-opacity="0.501961" x="-0.5" y="-0.5" width="1" height="1" /></g>
<polygon fill="#d0e7ec" fill-opacity="0.501961" points="18.790787,50.006744,89.467347,43.862739,100.053373,57.922934,149.929363,75.920188" />
<polygon fill="#303a30" fill-opacity="0.501961" points="228.813631,121.802213,223.157468,121.932249,210.459824,147.650783,226.643445,114.406634" />
<rect fill="#939688" fill-opacity="0.501961" x="12" y="105" width="26" height="2" />
<rect fill="#293731" fill-opacity="0.501961" x="41" y="127" width="11" height="9" />
<g transform="translate(246.767473 0.000000) rotate(198.259143) scale(24.519593 9.432273)"><ellipse fill="#00579b" fill-opacity="0.501961" cx="0" cy="0" rx="1" ry="1" /></g>
<g transform="translate(2 104) rotate(241) scale(14 6)"><rect fill="#283931" fill-opacity="0.501961" x="-0.5" y="-0.5" width="1" height="1" /></g>
<g transform="translate(196 123) rotate(311) scale(1 36)"><rect fill="#3e4633" fill-opacity="0.501961" x="-0.5" y="-0.5" width="1" height="1" /></g>
<polygon fill="#434b41" fill-opacity="0.501961" points="178,114 165,118 158,114" />
<g transform="translate(102 166) rotate(350) scale(3 12)"><rect fill="#b4ac8c" fill-opacity="0.501961" x="-0.5" y="-0.5" width="1" height="1" /></g>
<ellipse fill="#a1bfc5" fill-opacity="0.501961" cx="117" cy="86" rx="58" ry="2" />
<rect fill="#90a09e" fill-opacity="0.501961" x="87" y="89" width="26" height="7" />
<rect fill="#749191" fill-opacity="0.501961" x="128" y="73" width="2" height="16" />
<polygon fill="#414a45" fill-opacity="0.501961" points="101.125760,142.289689,83.737856,161.856905,78.200547,160.946543,98.930873,144.919129" />
<rect fill="#9b9a85" fill-opacity="0.501961" x="225" y="121" width="15" height="2" />
<g transform="translate(14 134) rotate(340) scale(25 5)"><rect fill="#091917" fill-opacity="0.501961" x="-0.5" y="-0.5" width="1" height="1" /></g>
<polygon fill="#3a412c" fill-opacity="0.501961" points="216.247553,153.978496,236.787675,166.466838,190.604931,159.288252,208.855584,185.000000" />
<polygon fill="#394136" fill-opacity="0.501961" points="208,113 215,107 220,110" />
<rect fill="#999b8c" fill-opacity="0.501961" x="75" y="127" width="21" height="1" />
<rect fill="#020d0a" fill-opacity="0.501961" x="7" y="139" width="3" height="20" />
<polygon fill="#898877" fill-opacity="0.501961" points="42,127 64,122 51,121" />
<polygon fill="#adab89" fill-opacity="0.501961" points="8,130 10,126 6,128" />
<polygon fill="#bdcfce" fill-opacity="0.501961" points="204,87 271,70 194,67" />
<ellipse fill="#d5dac6" fill-opacity="0.501961" cx="74" cy="167" rx="2" ry="2" />
<polygon fill="#a28f55" fill-opacity="0.501961" points="251,157 267,166 269,177" />
<ellipse fill="#789aa2" fill-opacity="0.501961" cx="197" cy="87" rx="27" ry="3" />
<g transform="translate(132 107) rotate(-17) scale(6 2)"><rect fill="#a8afa8" fill-opacity="0.501961" x="-0.5" y="-0.5" width="1" height="1" /></g>
<polygon fill="#9ea08f" fill-opacity="0.501961" points="92,126 103,122 93,120" />
<polygon fill="#b0b5a7" fill-opacity="0.501961" points="159,115 156,118 168,120" />
<polygon fill="#071004" fill-opacity="0.501961" points="227.219875,153.262667,245.202917,180.704216,217.076579,163.317296,248.350963,165.156768" />
<ellipse fill="#0c130b" fill-opacity="0.501961" cx="95" cy="132" rx="4" ry="1" />
<g transform="translate(235 117) rotate(370) scale(1 19)"><rect fill="#303427" fill-opacity="0.501961" x="-0.5" y="-0.5" width="1" height="1" /></g>
<polygon fill="#565b4c" fill-opacity="0.501961" points="11.690386,146.857518,11.163842,149.650519,20.628000,152.883766,21.584367,150.136305" />
<polygon fill="#c0dde4" fill-opacity="0.501961" points="98,51 36,5 37,30" />
<g transform="translate(19 159) rotate(262) scale(1 44)"><rect fill="#858260" fill-opacity="0.501961" x="-0.5" y="-0.5" width="1" height="1" /></g>
<ellipse fill="#a5a899" fill-opacity="0.501961" cx="82" cy="151" rx="3" ry="3" />
<polygon fill="#96a197" fill-opacity="0.501961" points="127,135 133,134 128,132" />
<rect fill="#24291f" fill-opacity="0.501961" x="25" y="128" width="3" height="42" />
<polygon fill="#38a1cd" fill-opacity="0.501961" points="145.871579,13.211149,178.762356,5.981600,167.253049,14.140214,200.907332,47.282876" />
<polygon fill="#4b534a" fill-opacity="0.501961" points="72.378108,159.207112,65.154947,157.140965,77.692368,153.445192,81.975274,137.841895" />
<rect fill="#576968" fill-opacity="0.501961" x="187" y="92" width="50" height="2" />
<rect fill="#60604a" fill-opacity="0.501961" x="184" y="153" width="20" height="9" />
<g transform="translate(247 120) rotate(239) scale(1 3)"><rect fill="#bfc6b6" fill-opacity="0.501961" x="-0.5" y="-0.5" width="1" height="1" /></g>
<rect fill="#8b876f" fill-opacity="0.501961" x="35" y="141" width="3" height="10" />
<g transform="translate(248.729138 134.955591) rotate(232.071792) scale(3.047664 20.992776)"><ellipse fill="#000c0a" fill-opacity="0.501961" cx="0" cy="0" rx="1" ry="1" /></g>
<ellipse fill="#b0b4a6" fill-opacity="0.501961" cx="90" cy="106" rx="11" ry="1" />
<g transform="translate(199 120) rotate(349) scale(25 1)"><rect fill="#959787" fill-opacity="0.501961" x="-0.5" y="-0.5" width="1" height="1" /></g>
<polygon fill="#eef1ee" fill-opacity="0.501961" points="30.959053,49.426625,71.036871,40.000158,37.696702,33.897379,-14.802542,14.648412" />
<polygon fill="#384530" fill-opacity="0.501961" points="137.522517,122.787972,123.782723,137.599104,139.786287,139.161712,99.323570,121.780334" />
<g transform="translate(0 144) rotate(65) scale(1 23)"><rect fill="#7d8064" fill-opacity="0.501961" x="-0.5" y="-0.5" width="1" height="1" /></g>
<polygon fill="#898a80" fill-opacity="0.501961" points="204,101 206,89 180,97" />
<rect fill="#7a8378" fill-opacity="0.501961" x="242" y="149" width="4" height="8" />
<polygon fill="#0e1516" fill-opacity="0.501961" points="152.766814,155.024678,169.373989,165.857455,158.559231,168.529867,178.045465,156.404657" />
<g transform="translate(255 156) rotate(191) scale(7 1)"><rect fill="#8eaba7" fill-opacity="0.501961" x="-0.5" y="-0.5" width="1" height="1" /></g>
<polygon fill="#6e7569" fill-opacity="0.501961" points="45.442583,132.839935,31.206611,131.136030,61.417053,112.913485,32.590873,136.051196" />
<polygon fill="#2c352a" fill-opacity="0.501961" points="236.569946,102.496404,244.490499,108.765917,264.436615,107.720913,256.078693,103.169788" />
<rect fill="#19251e" fill-opacity="0.501961" x="0" y="144" width="38" height="2" />
<g transform="translate(176 100) rotate(10) scale(5 6)"><rect fill="#a49e82" fill-opacity="0.501961" x="-0.5" y="-0.5" width="1" height="1" /></g>
<ellipse fill="#1d2d2b" fill-opacity="0.501961" cx="173" cy="107" rx="2" ry="3" />
<g transform="translate(217 128) rotate(79) scale(33 1)"><rect fill="#22302d" fill-opacity="0.501961" x="-0.5" y="-0.5" width="1" height="1" /></g>
<polygon fill="#141e11" fill-opacity="0.501961" points="184.598624,149.386704,160.847428,124.831661,217.133331,155.085669,207.287766,154.895223" />
<polygon fill="#848676" fill-opacity="0.501961" points="214.282794,105.204841,234.375216,106.006004,178.036468,125.636173,229.249491,111.183160" />
<ellipse fill="#252f26" fill-opacity="0.501961" cx="27" cy="135" rx="40" ry="1" />
<g transform="translate(55 127) rotate(67) scale(1 16)"><rect fill="#162727" fill-opacity="0.501961" x="-0.5" y="-0.5" width="1" height="1" /></g>
<rect fill="#909180" fill-opacity="0.501961" x="212" y="95" width="30" height="3" />
<g transform="translate(147.647695 148.752060) rotate(169.495798) scale(1.000000 4.605336)"><ellipse fill="#a9a78f" fill-opacity="0.501961" cx="0" cy="0" rx="1" ry="1" /></g>
<g transform="translate(60 132) rotate(2) scale(21 1)"><rect fill="#7c7f78" fill-opacity="0.501961" x="-0.5" y="-0.5" width="1" height="1" /></g>
<polygon fill="#778279" fill-opacity="0.501961" points="114.084512,112.201218,120.627874,121.442984,107.527811,116.753549,150.122157,119.786339" />
<rect fill="#001d23" fill-opacity="0.501961" x="104" y="161" width="10" height="7" />
<polygon fill="#1a2311" fill-opacity="0.501961" points="240.407643,174.136447,258.599516,147.298641,271.000000,154.483224,248.265422,151.837688" />
<ellipse fill="#7c806b" fill-opacity="0.501961" cx="14" cy="142" rx="3" ry="3" />
<polygon fill="#3f4834" fill-opacity="0.501961" points="249,158 226,154 222,142" />
<rect fill="#323d34" fill-opacity="0.501961" x="0" y="109" width="32" height="6" />
<rect fill="#7f8980" fill-opacity="0.501961" x="83" y="102" width="29" height="4" />
<rect fill="#505f4f" fill-opacity="0.501961" x="151" y="125" width="9" height="7" />
<g transform="translate(181 103) rotate(267) scale(6 5)"><rect fill="#13292a" fill-opacity="0.501961" x="-0.5" y="-0.5" width="1" height="1" /></g>
<polygon fill="#88c1db" fill-opacity="0.501961" points="139.832594,42.867733,110.898846,-16.000000,117.477967,24.100592,101.425606,39.465706" />
<rect fill="#222314" fill-opacity="0.501961" x="159" y="138" width="2" height="10" />
<polygon fill="#bba986" fill-opacity="0.501961" points="207,131 210,128 203,124" />
<rect fill="#334441" fill-opacity="0.501961" x="93" y="108" width="6" height="3" />
<rect fill="#d7d8cb" fill-opacity="0.501961" x="120" y="136" width="2" height="2" />
<ellipse fill="#324540" fill-opacity="0.501961" cx="199" cy="131" rx="4" ry="4" />
<rect fill="#35a1be" fill-opacity="0.501961" x="228" y="34" width="20" height="17" />
<ellipse fill="#232615" fill-opacity="0.501961" cx="110" cy="140" rx="3" ry="3" />
<polygon fill="#7d7f71" fill-opacity="0.501961" points="109.522515,149.052586,114.363114,160.227356,105.627920,159.664435,108.855540,162.222650" />
<g transform="translate(184 127) rotate(214) scale(22 1)"><rect fill="#001a1d" fill-opacity="0.501961" x="-0.5" y="-0.5" width="1" height="1" /></g>
<g transform="translate(54 115) rotate(88) scale(1 42)"><rect fill="#6e786b" fill-opacity="0.501961" x="-0.5" y="-0.5" width="1" height="1" /></g>
<path stroke="#122324" stroke-opacity="0.501961" fill="none" d="M 161.199443 157.233292 Q 143.448401 153.307762, 87.228414 168.221692" stroke-width="0.500000" />
<ellipse fill="#f0efeb" fill-opacity="0.501961" cx="13" cy="78" rx="87" ry="6" />
<g transform="translate(28 126) rotate(72) scale(1 4)"><rect fill="#a2a48f" fill-opacity="0.501961" x="-0.5" y="-0.5" width="1" height="1" /></g>
<polygon fill="#2e3e3d" fill-opacity="0.501961" points="160,148 171,140 170,156" />
<polygon fill="#00030b" fill-opacity="0.501961" points="190,164 172,158 183,166" />
<rect fill="#848b7f" fill-opacity="0.501961" x="149" y="140" width="20" height="2" />
<rect fill="#424637" fill-opacity="0.501961" x="37" y="115" width="20" height="5" />
<ellipse fill="#fafee9" fill-opacity="0.501961" cx="176" cy="125" rx="1" ry="1" />
<rect fill="#535c51" fill-opacity="0.501961" x="225" y="101" width="2" height="15" />
<polygon fill="#343b30" fill-opacity="0.501961" points="43.136327,152.014215,55.989913,148.394769,61.813508,146.202789,53.273443,140.527103" />
<ellipse fill="#928e76" fill-opacity="0.501961" cx="64" cy="161" rx="3" ry="5" />
<polygon fill="#72b5cd" fill-opacity="0.501961" points="218.241156,63.305150,189.908543,39.072615,182.442113,50.756061,271.000000,53.208454" />
<g transform="translate(46 115) rotate(189) scale(35 1)"><rect fill="#808371" fill-opacity="0.501961" x="-0.5" y="-0.5" width="1" height="1" /></g>
<ellipse fill="#d0c6ab" fill-opacity="0.501961" cx="180" cy="116" rx="2" ry="2" />
<rect fill="#031314" fill-opacity="0.501961" x="118" y="134" width="2" height="12" />
<rect fill="#3f513b" fill-opacity="0.501961" x="37" y="98" width="12" height="6" />
<rect fill="#888f80" fill-opacity="0.501961" x="29" y="100" width="29" height="2" />
<rect fill="#8d8c74" fill-opacity="0.501961" x="156" y="140" width="3" height="7" />
<polygon fill="#000405" fill-opacity="0.501961" points="202.439093,132.151105,217.480382,142.591311,233.986567,136.521179,202.771471,149.393847" />
<g transform="translate(65 148) rotate(125) scale(6 1)"><rect fill="#1b2b29" fill-opacity="0.501961" x="-0.5" y="-0.5" width="1" height="1" /></g>
<ellipse fill="#aeaf98" fill-opacity="0.501961" cx="120" cy="157" rx="2" ry="2" />
<ellipse fill="#e4e7e3" fill-opacity="0.501961" cx="146" cy="79" rx="30" ry="6" />
<polygon fill="#0e1a1b" fill-opacity="0.501961" points="138.762225,165.888956,148.527139,185.000000,167.683193,146.526252,150.212529,168.980440" />
<polygon fill="#484d3a" fill-opacity="0.501961" points="133,158 122,161 128,185" />
<g transform="translate(236.358589 29.029846) rotate(276.991588) scale(5.493920 35.463330)"><ellipse fill="#0094bd" fill-opacity="0.501961" cx="0" cy="0" rx="1" ry="1" /></g>
<g transform="translate(98 135) rotate(100) scale(11 1)"><rect fill="#a5a998" fill-opacity="0.501961" x="-0.5" y="-0.5" width="1" height="1" /></g>
<rect fill="#374d48" fill-opacity="0.501961" x="62" y="100" width="23" height="2" />
<rect fill="#858975" fill-opacity="0.501961" x="246" y="107" width="6" height="11" />
<polygon fill="#091516" fill-opacity="0.501961" points="163,132 183,128 160,124" />
<ellipse fill="#d1d3c9" fill-opacity="0.501961" cx="83" cy="166" rx="2" ry="2" />
<ellipse fill="#3c6f7e" fill-opacity="0.501961" cx="130" cy="89" rx="3" ry="3" />
<g transform="translate(212.656794 134.990717) rotate(346.898163) scale(1.000000 3.877424)"><ellipse fill="#a7a086" fill-opacity="0.501961" cx="0" cy="0" rx="1" ry="1" /></g>
<g transform="translate(70 133) rotate(91) scale(1 35)"><rect fill="#142626" fill-opacity="0.501961" x="-0.5" y="-0.5" width="1" height="1" /></g>
<g transform="translate(223.591023 6.301744) rotate(21.998983) scale(41.675851 9.266145)"><ellipse fill="#0074b0" fill-opacity="0.501961" cx="0" cy="0" rx="1" ry="1" /></g>
<g transform="translate(204 117) rotate(273) scale(8 2)"><rect fill="#3c4338" fill-opacity="0.501961" x="-0.5" y="-0.5" width="1" height="1" /></g>
<g transform="translate(131 154) rotate(183) scale(21 1)"><rect fill="#1d211a" fill-opacity="0.501961" x="-0.5" y="-0.5" width="1" height="1" /></g>
</g>
</svg>