<svg height="680" width="1024" xmlns="http://www.w3.org/2000/svg"><path d="m0 0h1024v680h-1024z" fill="#826c4e"/><g fill-opacity=".501961" transform="matrix(4 0 0 4 2 2)"><path d="m78.435032-16h159.449043l-128.917607 117.418923-24.914744.173658z" fill="#b8a281"/><path d="m44.671412 73.805667-60.671412-.636626 53.055003-89.169041 30.815511 89.215659z" fill="#392916"/><path d="m20.131363 111.669353 145.153462-9.667197-181.284825-.232256 49.906608 12.654038z"/><path d="m201.028822 85.986797 46.094301 99.013203 23.876877-86.399134-50.013928 2.842446z" fill="#301a02"/><path d="m10.139689 169.704351 35.837867-10.118612-14.094586-21.372818-19.306762 11.742772z" fill="#ffffd9"/><path d="m194.899409 77.679395 5.289354 2.495846.887904 19.848155-15.546789 1.988281z" fill="#fff"/><path d="m58.35529 73.431039 212.64471 1.239793-131.292716-6.247717-36.616154-.656016z" fill="#060000"/><path d="m151.324308 46.480841 6.322978-4.661471-45.689755-1.958431-12.41106 7.467827z" fill="#020000"/><path d="m78.551972 58.502396-6.093258-10.826757-24.156685 4.839637-7.195113 10.424838z" fill="#fce9c7"/><path d="m65.255195 109.327622-27.24889-1.509918-17.135895 13.191673 19.771969 12.754994z" fill="#ead0a2"/><path d="m131.310171 140.954405-98.425118-9.164608-14.603781-15.450212-22.138587 22.704305z" fill="#291802"/><path d="m.20658 98.615969 16.564433-17.358489 17.500486-12.007175-25.783588 33.356359z" fill="#fceed4"/><path d="m90.23493 71.868232 5.151578 5.777902-5.529398 21.767454-7.554334-4.66774z" fill="#fff"/><path d="m172.820231 82.833858 31.946226 102.107849-32.003934-68.700362-33.11974-36.587726z" fill="#d1b082"/><path d="m84.861958-12.61039-59.328005 22.465078 41.697015-.027347 140.644564-10.138874z" fill="#debd87"/><path d="m97.343359 39.532776-6.538123 1.002038-13.28748 6.425359-93.517756-2.314734z"/><path d="m216.092894 101.518785-25.427425-74.639417-3.369674-18.800369 42.311051 93.78123z" fill="#d6b993"/><path d="m132.04948 168.875402-107.296926 7.153426 135.665721-81.620257 4.65994 90.591429z" fill="#5f4a2f"/><path d="m271 74.699581-53.601768 9.290638 53.601768-87.858464-62.157179 6.153922z" fill="#5e3a14"/><path d="m167.019649 131.320012-2.297829 53.679988 24.006316-52.860404 4.741624 41.631709z" fill="#e0bb94"/><path d="m144.662132 37.952071-66.016686-8.284326 6.237085-3.7649-26.804401 14.410291z" fill="#e1ceb1"/><path d="m171.346384 51.516023 26.204321 110.030144 5.168741 13.626512 7.117071 9.827321z" fill="#0b0000"/><path d="m224.996991 144.032417-27.115613-.6655-24.273393-88.931008 19.399051 52.073885z" fill="#b1a791"/><path d="m113.415832 72.868638 1.555846 12.038423-7.99317 17.801226-7.040119-6.573364z" fill="#ffffde"/><path d="m271 126.83043-24.023477-33.997866-37.312608-34.8648 11.687666 18.258663z" fill="#180700"/><path d="m116.412074-1.794303.647794 25.043429-15.034799-12.844395-22.584961 46.734588z" fill="#3c290f"/><path d="m31.053902 101.398358 20.182054-28.930992-9.287397 3.604203-17.031662 22.26845z" fill="#f3e3c4"/><path d="m84.202732 99.851977-34.409425 85.148023 1.926373-21.245871 13.480442-42.627297z" fill="#321e02"/><path d="m-.326534 86.36468 5.597821-2.895345 11.378178-11.522027-28.359319 11.462143z" fill="#fffff9"/><path d="m137.152328 71.934289-92.694115 1.98332-46.435501-4.620671 86.709541-.711699z"/><path d="m177.855589 49.417918 93.144411 1.7016-53.305519 4.033196 15.630597 2.314455z" fill="#190e00"/><path d="m66.428024 73.214833-8.96046.313679-13.740786 28.110493 9.239548-2.85536z" fill="#f5d5a1"/><path d="m105.466835 107.917532 88.226087-2.480354-8.983718 3.127366-37.421849-7.398319z"/><path d="m165.683061 67.494483-2.723864-5.089366-83.803445-2.795156 4.038311 9.249073z" fill="#d3c4af"/><path d="m50.897457 72.570825 41.365127-26.132432-36.345233 33.323624-36.527186 43.081464z" fill="#30210e"/><path d="m94.732342 45.209123 79.713314 3.598962-81.706429 9.967608-28.185206-8.281339z" fill="#c4b99d"/><path d="m-9.425343 21.576863 103.830887 6.738604-48.79583-9.44643 21.493188-9.372182z" fill="#281806"/><path d="m-5.200681 185 30.702087-26.042346-23.792259-5.189691 31.224228-11.709124z" fill="#fffadb"/><path d="m-7.03771 28.604035 56.364779-1.068966-24.605238-4.525306-34.496337 2.679942z" fill="#e8c69b"/><path d="m3.747449 104.780181 11.344531 6.2769 31.84514-47.217084 4.232707-5.816263z" fill="#2a1b08"/><path d="m66.720165 152.039426 52.910535-44.491474-34.197979-.548462-14.437798 24.4977z" fill="#ac9977"/><path d="m180.256317 57.049716 11.780945.816114-.920182 45.148589 10.718498-15.957293z" fill="#fff7d6"/><path d="m168.850127 76.046614-22.797854-5.609169 19.380629 12.193867 38.213811-9.044299z" fill="#180f00"/><path d="m151.723453 31.793125 73.627097 4.400444 44.849443-22.015608-28.221054 12.306957z" fill="#d6a87f"/><path d="m221.940722 114.252832 29.867544 8.884396-2.287847-4.912202-50.844914-27.165636z" fill="#0a0100"/><path d="m154.058838 73.169621-8.57705 2.12581 2.541837 24.249609 9.681296.891541z" fill="#f9d38f"/><path d="m134.525401 162.965511 7.804392-6.708248 13.996444-7.248484-21.989935-3.925575z" fill="#0b0000"/><path d="m210.93781 54.303928 13.803049-3.025744 43.025293 18.290217-47.347862 2.371281z" fill="#b18d60"/><path d="m-10.918984 185 26.849302-56.930146-31.930318 6.980317 25.635448 27.353945z" fill="#241400"/><path d="m159.661664 43.920617 25.782622 27.43948-2.636802 4.933602-11.086385-2.982205z" fill="#bfa77c"/><path d="m160.345119 18.629992 16.059505 30.960504 16.555614 30.137135-25.465537-34.517579z" fill="#3e2910"/><path d="m30.441815 60.755829-23.092506 24.666778-23.349309-.236265 24.586712 6.829411z" fill="#281909"/><path d="m209.087288 2.47132-12.608204 3.908573 74.520916 2.889566-43.724591-5.43779z" fill="#110900"/><path d="m215.584041 77.622403-1.07737-7.133782 49.328527 3.602207 7.164802 4.853692z" fill="#140500"/><path d="m56.867604 111.500262-9.093411 14.958873 18.342122-5.267268-34.94403-6.023342z" fill="#f3e1b9"/><path d="m100.076153 23.200168-9.163009 34.83509 10.711788-18.417547 7.646433-25.409741z" fill="#e5d2b8"/><path d="m212.772919 105.257972-31.910123-4.059433 13.888545 48.827628-6.225758-44.75643z" fill="#251502"/><path d="m103.155397 12.063812-9.439305 21.498767 8.179396-16.296676 58.461271-5.094194z" fill="#2c1c05"/><path d="m220.217552 117.964677-30.710313-27.301887 41.392357 33.838232 16.389382 44.721516z" fill="#b19062"/><path d="m98.053753 11.587767-4.865937 14.988192-3.902233-3.160619-3.243174-7.982304z" fill="#fdebd2"/><path d="m11.596965 102.12627-14.236704 2.808911 52.740103 5.512585 10.161622-9.046348z" fill="#050000"/><path d="m227.957614 19.940042-22.91738-9.128493-22.218346 37.012231 3.119017-26.085561z" fill="#d8ad87"/><path d="m85.645519 101.042771 12.085622-18.3039-6.123408-5.883947-11.953096 24.043907z" fill="#fffff5"/><path d="m107.581296 72.012185-10.162014.145172-5.359826 29.410001 9.728832-3.367988z" fill="#59431b"/><path d="m138.237168 68.877155-59.511126 6.481048 72.449122-6.583762-30.109403 23.900103z" fill="#170f00"/><path d="m9.547095 64.924477 34.868602-4.167064-49.555627 7.778503 40.772321.215734z" fill="#beb0a1"/><path d="m110.435072 34.941427 9.462157 5.519188 36.827354-1.34574-17.69967-3.454718z" fill="#fff2ce"/><path d="m42.562939 11.157814-51.674266 3.323008 90.739952.707422 30.271567-3.618522z" fill="#352613"/><path d="m111.570665 46.659131 49.592145-.648438-38.53139-3.867687-20.354512-5.487742z" fill="#1d0d00"/><path d="m95.864242 185-4.525883-8.262413 16.645785-73.466319-6.124615 44.427381z" fill="#210f00"/><path d="m172.917856 110.647911 5.585353 21.156276-27.281593.792277 16.715374-7.558858z" fill="#41280e"/><path d="m167.436254 106.691538 6.983015-7.253468-6.660586 29.291535-12.346514-14.223294z" fill="#d9b180"/><path d="m59.296606 84.281947-1.037812 33.944415 29.988447-40.249988-2.120283-5.109354z" fill="#644b24"/><path d="m78.654479 65.525211-79.285527 1.708069 53.037218-5.313584 28.751674-1.429888z" fill="#120b00"/><path d="m129.798114 106.105917-8.500576 17.503308 1.776972 61.390775 12.805969-45.416841z" fill="#96866b"/><path d="m235.268369 124.539969-32.648486-51.605056-4.60333 2.419672 35.192944 39.353469z" fill="#1c0d00"/><path d="m202.51755 69.736496 2.945998-15.01689-44.196163-12.065408 29.015852-.505087z" fill="#c8ad86"/><path d="m212.590162 90.805928 58.409838 90.144071-10.88398 4.050001-19.092387-45.872197z" fill="#200e00"/><path d="m174.211952 49.487682 82.116727.651344 14.671321 4.575923-87.722007-2.294309z" fill="#1d1304"/><path d="m53.090703 180.706166-26.330721-20.157181-19.403977 24.451015 53.940498-26.088267z" fill="#3f2a10"/><path d="m115.570043 98.507626-.722435 5.013917-1.282076-15.659069 15.597777 12.045981z" fill="#271b02"/><path d="m92.47547 142.082164 11.777998-3.694028-18.804703-6.411493-2.66925 2.702584z" fill="#0d0300"/><path d="m17.337004 133.506636 4.670342-15.062989 16.493959 51.568527 15.593924-26.039552z" fill="#b59369"/><path d="m161.447083 133.89484 10.795254 46.026159 9.429424 5.079001-11.579775-52.516455z" fill="#d2ba92"/><path d="m143.454386 55.575192 21.071859-1.754681-77.730295 5.63296 80.765151.959637z" fill="#574e3b"/><path d="m76.071358 36.548261 3.604181-5.137385 1.290783 8.268659-32.931136 3.094896z" fill="#e4d6be"/><path d="m224.142218 3.023942 45.944047-19.023942-172.019685 18.117039 103.352301-.470943z" fill="#f7d589"/><path d="m114.697938 80.560111 3.502062-9.209975-28.028701-2.170392 49.363825.208575z" fill="#0a0300"/><path d="m211.944475 38.431579 43.6803 54.957641-39.532727-41.458176 21.774156-15.867597z" fill="#5b3e23"/><path d="m12.606966 39.11133 24.526086.201172 3.821591.585705-55.320402 2.757171z" fill="#d4b78f"/><path d="m215.546566 157.758963 1.318611-4.142449 22.837292 31.383486-16.701477-13.737102z" fill="#241404"/><path d="m21.806523 76.807552-16.384648 17.873583 16.372118-6.171451 5.890448-15.018291z" fill="#fdeed5"/><path d="m4.180309 106.046506 10.019286 6.363208.521704 10.740591-28.851685 18.795488z" fill="#b79c82"/><path d="m55.405699 17.284918 46.586382-2.709184-41.318211 5.879109-15.469607 1.812938z" fill="#ccb398"/><path d="m194.04387 125.898448-6.77579-17.957929 10.818559-1.911688.147029 17.750673z" fill="#c9c1af"/><path d="m244.763329 100.195343-16.161494 13.561419 30.372709-2.149671-43.276834-13.59947z" fill="#a37d57"/><path d="m72.860882 54.836206 19.31822-5.727442-44.930737-1.392582 19.431969 3.322993z" fill="#e0d1b6"/><path d="m204.703505 104.112475-17.063977-.897735 14.883923 9.741484-.017754-37.081369z" fill="#1c1101"/><path d="m58.912583 33.35243 42.32317-8.42715-31.927634.932566 2.744893 2.351451z" fill="#201403"/><path d="m82.737256 46.884334 11.971979-9.885954-30.783461 6.169224-37.486187 2.693z" fill="#120400"/><path d="m146.740146 47.943522-41.573832 8.874767 64.44317.01913-55.787287-9.891889z" fill="#cfc1a4"/><path d="m233.542963 25.266061 10.588749 3.585029-27.632163-1.307746-10.500334-2.434208z" fill="#1e0900"/><path d="m74.497667 126.644992-62.325268 10.890782 29.565055.98061 8.458599-12.628794z" fill="#2a1d09"/><path d="m217.310136 115.485443-12.78277-14.417563-3.739793 52.991859 12.941913 27.811392z" fill="#978c78"/><path d="m109.663029 34.238779 35.409946 1.286919 2.775936-18.953683-39.658501 4.366876z" fill="#816538"/><path d="m106.433084 78.062762 5.362087-6.196068-.653293 27.685131-9.330068 2.02935z" fill="#ffefcb"/><path d="m200.168206 47.185982 2.11061-17.873406 23.766995 28.601328 27.213801 1.633018z" fill="#ba9c76"/><path d="m140.476134 90.949713.576656-14.467899-17.030804 19.944477 16.604127 7.420582z" fill="#bea676"/><path d="m220.674279 104.217171-14.593122-29.461998 5.136004.067762 15.098428 19.421064z" fill="#e4c497"/><path d="m185.734621 185-9.267557-34.228492 1.042575-8.328011 7.33692 15.164036z" fill="#583315"/><path d="m178.574905 109.159155.20024 32.495523 20.632145 26.021604-11.082491 14.396105z" fill="#d7a77f"/><path d="m271 40.926943-20.625315 8.656538 20.625315 4.404475-26.23321-15.763377z" fill="#f7e3bb"/><path d="m21.008229 2.986337-36.253239 30.498745-.75499-49.485082 94.787003 20.028011z" fill="#b89561"/><path d="m135.232761 69.51268 10.51572 13.461216-.092278-10.954209 30.939447-3.266772z" fill="#090400"/><path d="m48.32139 166.881827-24.373647-6.773936-25.597018 24.892109 22.72506-36.598299z" fill="#f8e3c0"/><path d="m35.644472 40.872433.035224 27.464601 16.352591-37.998327 15.397372 7.410977z" fill="#31200b"/><path d="m153.759842 106.561567 6.699839-6.269181 3.164081 4.596198-5.523214 9.607875z" fill="#090000"/><path d="m144.300889 162.278092 4.463533 6.768593 20.144089-13.920591-22.49064-1.890645z" fill="#b0916c"/><path d="m238.235902 118.718946 32.764098 25.453053-28.5448-9.485292-5.399461-12.552143z" fill="#98754d"/><path d="m68.504358 72.351435-18.335278 30.849274 5.63509-23.852435 4.123551-5.758678z" fill="#d8bd92"/><path d="m59.1932 138.794098-24.279681-.619773 32.249266-5.151037 6.879272-28.770911z" fill="#120900"/><path d="m187.522758 11.96822-15.50562-19.461827 61.381708 65.996598-35.569131-30.860901z" fill="#6a4c2e"/><path d="m195.658057 45.215702 3.614006-2.262522-15.791806-9.854141 16.054116 20.262878z" fill="#3b2b15"/><path d="m164.647495 47.616102-8.19632-35.177049-29.018883-12.173508 19.057409-10.466387z" fill="#dfcaa7"/><path d="m24.101793 96.273668-9.641272 4.998818 17.377479-.418788 7.724033-24.135427z" fill="#cab291"/><path d="m-16 27.940368 7.802229-3.618662 25.287927-13.524567 12.951171 1.296729z" fill="#2b1d07"/><path d="m105.376986 124.893279 14.746326-28.348943-8.89638 77.705894-8.395542-25.851849z" fill="#8f7d61"/><path d="m21.649423 50.819162-.331412 9.865119 4.065257-5.654103-22.585516-2.279143z" fill="#a9997a"/><path d="m194.807249 105.630927-6.483766-2.980125-4.818941 8.385338-13.027312-5.098491z" fill="#130900"/><path d="m199.599515 100.742137.814964-20.761963-7.163531-6.704685-2.63577 29.993463z" fill="#fff1ca"/><path d="m80.46901 145.072846 26.828384-2.247322-48.4637 39.522939 15.067365-69.841479z" fill="#957552"/><path d="m221.504581 125.834405-4.099334-12.226271 26.824987 55.387134-17.823734-20.241749z" fill="#2e1a09"/><path d="m62.532011 41.880426-78.532011-18.25088 25.438527 10.8945 34.78999-1.286897z" fill="#a68966"/><path d="m118.853064 102.269099-44.532379.005891 2.155792 2.178428 37.982229 2.513534z" fill="#0f0300"/><path d="m199.942846 75.837721-13.069499-8.643455-7.136269-12.714255 10.541779-1.15409z" fill="#bca990"/><path d="m113.232924 83.478172 27.761735-13.269939-24.465178 20.569585-11.731094-17.568972z" fill="#cab993"/><path d="m69.300885 95.428727 6.196755 9.41638-15.933702-.35671 11.316724-20.909408z" fill="#a8895e"/><path d="m50.728154 152.071701-46.230093-3.729938 18.749111-7.304054 7.293255 19.511998z" fill="#9d7c55"/><path d="m92.539965 24.22309-1.522876-24.832786 10.498331 16.483857-32.478322 8.443981z" fill="#d9c09f"/><path d="m94.972493 75.289631-21.9928-6.952995 30.198079 3.247269.650056 4.756069z" fill="#140900"/><path d="m78.368387 68.500063-17.099421-.17401 30.711998-7.573094 53.180632-.919633z" fill="#c5b59f"/><path d="m39.024162 56.431423-22.062656-1.341568 30.908741-12.00546-19.488652-1.34869z" fill="#140b00"/><path d="m157.857733 4.991241-21.377529 19.750377 15.899701-9.15684-.088248-6.603459z" fill="#443316"/><path d="m70.892834 50.116719 5.102493 9.187111-21.473236 2.771353 12.597597-13.660191z" fill="#e3d6bd"/><path d="m79.773432 113.869353 20.945194.204608 5.068884-7.137174-15.966208-.395112z" fill="#cabfa1"/><path d="m217.279053 103.632624-2.4301 10.567171 25.787417-10.977396-24.817161-.134073z"/><path d="m96.907773 99.064812-13.215163 7.030053-76.32643-4.053642 72.252133 9.452845z" fill="#1e0e00"/><path d="m150.202654 41.398615 17.11952 29.914879-5.905439-23.750633-49.55746-5.956832z" fill="#332209"/><path d="m84.999694 121.65656-38.63514 45.22547 48.222062-56.460093-20.308989 71.460412z" fill="#5e4425"/><path d="m-4.533209 70.898039 78.693701-2.102665-56.803105 5.229918-33.279951-2.382763z" fill="#090000"/><path d="m156.7751 13.257967-8.799346 26.303208 15.716826 31.478947-11.208149-64.324991z" fill="#b3946a"/><path d="m4.554768 86.667502 6.458923-13.399528 3.207501-1.345741-11.325529 4.107152z" fill="#faeed8"/><path d="m113.316225 185 9.005698-45.201416-5.613545-.444354-3.117263 19.090533z" fill="#3c260f"/><path d="m172.059066 63.790217-15.288417 6.615613 19.926968 11.546741-17.738074-2.405625z" fill="#191102"/><path d="m244.827912 61.824157-15.563216-19.769913 22.988628 32.837004 18.746676 11.025354z" fill="#312311"/><path d="m225.373181 36.846138 13.569239-.796846 16.325132 10.149792-11.06053-3.836353z" fill="#2d1a07"/><path d="m146.188414 171.402741-14.288564 13.597259 10.61457-68.258076-9.930596.302102z" fill="#422e13"/><path d="m162.539552 59.184466-57.197446-.635342 6.82047-.447295 12.022784-1.097624z" fill="#0c0300"/><path d="m217.771288 2.712918 53.228712 3.290555-32.690713-22.003473 21.96391 7.711806z" fill="#c46a00"/><path d="m65.191321 13.100597-5.788978-5.592104-5.872215-.698538 16.695589-22.809955z" fill="#d4c4ad"/><path d="m92.872574 53.494308 1.822516-.670307 32.27493.201569-46.123273-1.360388z" fill="#1e1905"/><path d="m201.700473 153.851411 4.288662 24.708343-3.506042-5.0494-16.136207-57.45215z" fill="#120800"/><path d="m178.057614 33.38912 14.89199 18.110691 13.683354 19.33992-2.771618-10.633425z" fill="#d5bd99"/><path d="m160.309695 121.805099 7.447414 63.194901-10.236284-53.136785.338676-28.446038z" fill="#462f15"/><path d="m25.679026 111.983658-12.156298-1.168848-4.685658-7.984114 40.168256 1.147927z" fill="#090000"/><path d="m96.458317 7.570453 32.821929-5.658161 2.804947 2.921882.537793.50828z" fill="#6e5b39"/><path d="m-8.92492 46.346422 71.849753-2.653188-48.632686-2.096354-25.287423 3.261776z" fill="#050000"/><path d="m-14.055997 9.313306-1.944003 15.886855 29.409259-16.719244 39.385352 6.72099z" fill="#392c16"/><path d="m260.423089 37.806754-28.658024-20.690947 14.217265 16.217309-88.61357-.037394z" fill="#b38c63"/><path d="m28.716264 137.285158 1.598874-4.249786-14.71279 27.011802 26.142422 4.307779z" fill="#e0cdaa"/><path d="m110.039034 18.140448 16.719858-4.045391-7.624195 13.901829 25.506376 1.070799z" fill="#bda175"/><path d="m37.475818 106.495094 9.077338 3.564725-23.161462 13.192552 15.142265.347309z" fill="#dbc59e"/><path d="m237.69349 10.071035 23.818139 11.982422-24.335652-16.537681-25.14588-.481132z" fill="#160c00"/><path d="m242.095419 86.328025 17.383507 27.153707-16.988289-13.831654-10.946549-21.096067z" fill="#271500"/><path d="m174.597004 79.344843-14.933742-42.693165 22.329536 35.600034-20.76111.968377z" fill="#b19973"/><path d="m171.563306 38.182398 12.468481-3.116493-20.823781-.868457 23.396806 49.466893z" fill="#5a4122"/><path d="m63.703339 161.109367-20.339828-7.169952 20.729548-11.302772-5.317569-9.90334z" fill="#452f19"/><path d="m109.952621 42.408038-33.48527 33.11318 19.852352-16.258686 8.166525-26.991659z" fill="#776442"/><path d="m227.869946 54.950899-17.044473-14.406143 6.909012-6.213546-1.670244 2.1861z" fill="#31220f"/><path d="m193.084384 94.848462 7.53453-13.84646 24.962413 28.269165-32.70589-33.874739z" fill="#e2ceae"/><path d="m165.270281 26.007216 31.195116.328207-32.379407 2.771551-13.240548-32.35364z" fill="#755532"/><path d="m82.423589 78.083341 5.890087.810297-2.752329-6.319009-17.506267 10.572189z" fill="#140f01"/><path d="m150.369852-14.281352 33.119047 18.027684-33.423878 4.559002 40.80759 5.245114z" fill="#7c5b3b"/><path d="m52.425695 107.642026 33.726929-56.677406-1.044876-.837534-7.237111 3.433008z" fill="#48351c"/><path d="m109.781922 67.51282-85.197281 1.390762-19.528453-.867058 10.338168-1.394655z" fill="#baa498"/><path d="m213.241476 41.363778-1.298119-11.426929 21.856609 2.64751-39.726754 5.372499z" fill="#dfb185"/><path d="m70.195467 108.680572.198607 1.980481-34.678451 17.848286 28.225399-4.529295z" fill="#c4ab82"/><path d="m271 168.576421-25.133375-32.935038 25.133375 13.099137-26.977183-38.225132z" fill="#1d1104"/><path d="m170.477145 120.358609-10.378797-9.945627.728021 15.878007 10.670293 1.392291z" fill="#d3a470"/><path d="m22.39881 23.43171 13.591025-.109586-51.054247-5.670557 21.751232 5.572382z" fill="#170d00"/><path d="m222.613456 70.876593-18.652835.750565 26.891022 7.287571-13.738369 1.990434z" fill="#331f07"/><path d="m84.357515 90.537507 4.998986-14.738223 5.966918 1.882154 1.795102 6.008688z" fill="#fffff9"/><path d="m155.788898 130.481721 4.704644-4.095538 10.249594.413841 5.645015 4.079333z" fill="#130900"/><path d="m14.070695 6.095181 10.490814-22.095181 52.355804 19.122055-5.620546-19.122055z" fill="#603e12"/><path d="m-12.202567 185 37.240991-22.811911-21.166718-10.586119 30.893754-4.565186z" fill="#f6e7c8"/><path d="m102.378099 35.738055-12.266024 26.886741 4.203594-35.168976-36.507805 7.542107z" fill="#cab69a"/><path d="m86.710702 44.727955 6.944804-3.776011 4.533842-9.678877 7.524672-21.166103z" fill="#594125"/><path d="m55.374116 48.650109 3.024986-22.129283-26.026436 21.65491 33.754084 5.226256z" fill="#3a2a15"/><path d="m195.239591 70.004815-4.715438-20.868168 9.018578 11.306338 18.403193 41.592399z" fill="#5e4426"/><path d="m22.130947 84.012172 4.324088-9.288838-3.301375-2.277098-13.646153 28.68783z" fill="#eee0c6"/><path d="m213.794374 61.827752 13.597745 11.682087 10.857205-16.511618 9.749068 15.03134z" fill="#c7a06c"/><path d="m166.520543 105.355037-14.139746-11.95192-5.866612 7.988835 53.559542-1.938837z" fill="#d4ba8d"/><path d="m158.597227 110.32299 5.951424-2.763948 14.490552-.100612-34.635811-4.356628z" fill="#190d00"/><path d="m210.121644 52.925095-42.568251.266201 14.769506 7.57022-9.57552-13.082856z" fill="#392d19"/><path d="m41.84411 55.342203-43.934191-1.546637-13.909919 6.259602 29.143761-4.24154z"/><path d="m36.145693 63.849112 35.683388-1.166969-19.651936 4.880975-65.911783-2.623879z" fill="#110800"/><path d="m201.682497 79.682532-18.146335-10.72079 24.044619 9.423301 10.807771 20.831482z" fill="#3f2d18"/><path d="m6.800329 69.328467-22.800329-.113143v19.9231l18.474523-10.536968z" fill="#1e0f01"/><path d="m193.090594 23.845761-40.741657-6.868295 55.397241 1.10647-12.267271-16.154465z" fill="#d0a580"/><path d="m107.478944 108.578418 2.873069 23.806765 8.518503-34.377295 5.57238 6.256471z" fill="#9b8864"/><path d="m116.012566 60.086758 38.986692 3.24374-1.109132 7.393987 2.481156-10.651506z" fill="#d9c9ab"/><path d="m41.366393 73.812102-8.453335.233084-15.716464 17.129339-5.315611 16.018443z" fill="#3f2d17"/><path d="m35.840605 85.039411-14.929864 16.046405 15.008688-11.850548-18.571682-2.504096z" fill="#d1bb9c"/><path d="m242.072247 16.638056-25.605735-2.385571-45.729444-8.707449 99.333388 6.903482z" fill="#976d48"/><path d="m197.471616-6.071957-149.20042-9.928043 102.816234 24.527944-49.963557 2.587308z" fill="#cfb88f"/><path d="m222.806064 77.918726-18.274323-27.247363 13.906467-2.152115-9.251311 3.230411z" fill="#271a0c"/><path d="m136.733779 147.126508 21.465245-1.048931-8.67513-38.097598-5.447854-.168383z" fill="#896e50"/><path d="m1.135754 185 13.608769-29.146853-22.730464 1.315271 10.831721 20.59245z" fill="#604320"/><path d="m-12.74539 24.489881 10.84199 5.955551 14.217672.308189-21.849493-12.325057z" fill="#e1caa8"/><path d="m103.836768 112.63224-.976868 15.105257 12.2799-39.955732 3.666429 1.629414z" fill="#4c391e"/><path d="m131.686046 40.906487-26.241088 4.509947 56.077586.907526-22.097286-3.570748z" fill="#190f00"/><path d="m53.217034 61.916802-11.992496-9.394279 9.743645-1.938588 11.732102 6.232404z" fill="#bb9d71"/><path d="m262.067211 185-44.232482-74.550377 26.775382 58.654051 25.392568 10.945851z" fill="#8c714b"/><path d="m47.432126 29.861968 21.662836-2.703151-18.787151-6.220066 45.831585 6.124276z" fill="#2e220f"/><path d="m173.786337 69.539595 5.948673 31.120265 13.589711-30.084511-4.042348 27.038328z" fill="#604625"/><path d="m249.4388 109.786251-20.821278-32.471928 1.398778 21.948583 31.96585 27.697196z" fill="#886842"/><path d="m21.052236 169.658257 14.298686-5.634354-7.085092 20.976097 45.79266-6.679616z" fill="#140a00"/><path d="m-16 145.839532 27.223745-20.581405 22.674348 8.747607-5.949886-9.318477z" fill="#2b1e0d"/><path d="m190.036443 111.627644-2.021594-7.836293-13.047516-44.193838 8.702097 24.623152z" fill="#d9c09a"/><path d="m62.78819 73.050225 115.43218-1.915481-104.513459-2.128104-58.432487 3.449031z" fill="#0f0700"/><path d="m226.20181 81.554762-8.409708-22.854755 7.946787 3.228518-11.288463 12.317811z" fill="#473219"/><path d="m203.954668-.150054 47.487054 38.257295-15.546687-6.934378 6.478432 2.921814z" fill="#47331b"/><path d="m95.887239 76.284396-1.729263 10.534203-3.938557 11.548502 1.476963-23.627691z" fill="#fffcfa"/><path d="m167.039045 35.217531 11.398026-1.207408 57.941188.317665-72.418577-4.858781z" fill="#cfaf89"/><path d="m199.379446 44.743819 13.289665 3.418817-7.843467.806443-5.76386-13.8162z" fill="#f5e0bd"/><path d="m62.363236 108.11546-5.889325.61177 2.887497-1.72501-26.932684 28.277277z" fill="#e0d1af"/><path d="m79.836888 35.20654 10.756716-6.729658-6.248322 10.209464-29.421282 3.860843z" fill="#e1d2bc"/><path d="m196.145483 107.697687 3.126328 1.427287-7.113491 6.344944-5.87128-9.172318z" fill="#d7c8b2"/><path d="m24.244073 14.901916 31.489616 4.891351-50.024015.444794-14.554153.359499z" fill="#6f5535"/><path d="m108.765538 21.281871-2.342149-2.232343-21.466914 35.903084 11.710266-8.889488z" fill="#e0ccb2"/><path d="m153.640629 52.022266-73.481548-.821812-31.322407-2.782824 80.268719-1.565475z" fill="#cdbd9f"/><path d="m203.893877 41.261063-.880307-9.002243-2.987368-1.257131 10.515859-.808992z" fill="#543818"/><path d="m218.219811 79.232985-3.69685-2.792953 56.477039 2.969971-40.631725-8.485905z" fill="#271400"/><path d="m79.882207 12.634 5.660218 8.839232-15.112602-5.607957-74.56668-3.883414z" fill="#322513"/><path d="m1.893258 73.342515 15.890252 1.121903-21.451653 9.512066 11.633261-4.153423z" fill="#efe5d8"/><path d="m230.952458 89.407206 2.446119 13.732467-14.699094-.393061-6.614469-28.605993z" fill="#c19d70"/><path d="m167.648195 98.796884-1.103618 5.545781 17.925595 8.611141 9.600621 54.324448z" fill="#bb9d7d"/><path d="m160.541338 100.280169-71.92065-.912005-6.719063 1.565479 37.464045.332114z" fill="#c8ae7d"/><path d="m67.122708 27.468501-15.143209.410865-31.733539.057232 34.395935-2.98527z" fill="#c9a67f"/><path d="m26.028117 64.220509-30.935876-2.216984 38.93437.32411 56.624658-16.017318z" fill="#c4af8e"/><path d="m13.178184 77.364526 7.245051-2.551985-15.485642 16.305758-5.184836-1.263243z" fill="#2a1c08"/><path d="m157.350126 92.549289-2.968921-17.559212 14.777608 8.49647-10.819774-13.946315z" fill="#33270e"/><path d="m229.42637 21.95884-4.855871 1.90365-10.168015-.57946-10.35585-1.712401z" fill="#40210b"/><path d="m2.160935 14.454461-14.240369 8.797455 20.905802-8.155255-24.826368-4.231917z" fill="#d1c9af"/><path d="m130.220652 103.929516-8.126908.048262 16.447864-1.531236-2.75902 9.846813z" fill="#0d0500"/><path d="m73.725106 19.168958-20.376723.706368 16.067425-4.153134-1.600733-1.139465z" fill="#d8c5ae"/><path d="m256.694938 52.948844-4.143222 1.42922 8.369504 10.78533-18.718545-18.997454z" fill="#110c02"/><path d="m253.648523 84.496324 8.522294-9.364122-4.500507 4.285862-26.917372-.47622z" fill="#b39166"/><path d="m172.400304-16 34.528867 41.391834 62.861483 30.529315-67.834546-28.945594z" fill="#c0956d"/><path d="m198.957956 1.143847-12.265325-17.143847 13.980431 19.498334 28.226197 3.758103z" fill="#1a1100"/><path d="m36.414193 154.860839 25.218433-14.415472-20.316313 1.892189-21.978589 18.844851z" fill="#b39b79"/><path d="m157.55848 68.778605 8.814944-.068563-2.481286-13.62059 17.593052 5.587491z" fill="#ad9776"/><path d="m122.649192 20.625308 1.951121-3.577139 11.36671 9.050841 3.382469-2.975442z" fill="#412f15"/><path d="m112.812459 3.324487-13.039378 11.803134-8.839415 22.109922 20.447244-28.839873z" fill="#4c3a24"/><path d="m116.509613 55.667795-11.916803 1.308879-24.732532 2.695194 3.863917-6.583822z" fill="#c3bba3"/><path d="m58.157979 42.436789-33.074339 2.759047 82.912808 1.451345-60.492628.338984z" fill="#190e00"/><path d="m204.261906 88.984826 19.236177 20.685193-16.930045-14.686221-6.14758 10.386221z" fill="#180d00"/><path d="m147.828165 86.426191-13.516591-18.317244 6.589954 10.009907-.55506 28.045893z" fill="#66512a"/><path d="m131.425423 10.441487-10.485204.501603 12.743503 5.534029-13.608235.811815z" fill="#dfc7a0"/><path d="m202.010448 102.292115 2.058357 12.718644-14.085696-14.210715-12.940298 8.312059z" fill="#221607"/><path d="m14.251026 124.297138 22.139898-7.395361-.141648-9.494414-1.629513.737739z" fill="#86653b"/><path d="m212.189845 74.197456 9.83101 26.804056-15.390914-25.054848-10.523526-2.732296z" fill="#d1bc9a"/><path d="m10.76339 35.410765-16.316146-6.326144 11.893336 8.490727 17.154771-5.372645z" fill="#422c11"/><path d="m206.32787 68.233996-5.413479-15.033744-3.7477-.279823 6.476282 17.908705z" fill="#dbc8a9"/><path d="m18.088086 48.55233 1.520972.083335-8.546692-2.254126 23.961763 1.144775z" fill="#a28f6f"/><path d="m114.594354 84.64079 24.136877-11.21183-21.172248 16.009304 16.679798 12.568025z" fill="#cbb68a"/><path d="m155.12802 155.306963 2.738203-.649645-26.716991-6.529556 23.558652.349698z" fill="#150a00"/><path d="m118.459216 41.824929 17.444797-2.5616 4.468001-5.231279-30.253379 2.751239z" fill="#e3d2b2"/><path d="m161.255289 60.384158-6.397718-44.296002-24.780833 14.112439 20.353998-4.109956z" fill="#bc9c73"/><path d="m111.356256 39.997087 9.583618 3.487698-17.34113-1.728896-1.242691-9.280207z" fill="#3f2e0e"/><path d="m217.738459 69.279409-7.326216-16.441007 14.318604.102094-10.233456-7.843155z" fill="#a78a63"/><path d="m10.691623 52.696167-11.946844 1.124547 9.643958.283157 17.617355-1.777079z" fill="#d3c0a2"/><path d="m-16 66.258226 14.501305 2.224201-4.312691.414648 22.012998-.792524z" fill="#f6f1ec"/><path d="m187.297111 184.892432-8.255464-52.437511-5.536411-15.632402-3.44357-2.248981z" fill="#5d3f20"/><path d="m146.277445 17.991911 2.337237-21.911648 1.221749 14.329272-10.516717 6.686823z" fill="#dbc4a0"/><path d="m176.023695 74.919773 10.985591-1.234589-12.433677-.861816-55.195885.471732z" fill="#917955"/><path d="m11.879532 107.854804 5.760174 4.206126 36.77319-8.296262-70.412896-2.415096z" fill="#100800"/><path d="m20.204782 126.385246-4.931981 23.687981 11.922085-5.583602-14.089993-6.402457z" fill="#997041"/><path d="m114.43259 105.34325 8.463508 8.174371 1.804077-11.207345 7.562946 3.845898z" fill="#2b1f07"/><path d="m121.195525 14.886858-2.912391 7.8635-7.988432 5.714202 11.33657-24.86173z" fill="#654a26"/><path d="m9.225607 112.499513-.811673 16.571176 7.594931-13.638558-3.451593-7.220871z" fill="#b79a7c"/><path d="m32.38957 83.497501 20.60095-10.397637-32.219287 1.447788 24.518513-2.003292z" fill="#ae997e"/><path d="m227.050206 38.82257-13.417315-4.090557 3.947273-6.799583 1.772579 15.247535z" fill="#c8976c"/><path d="m176.241082 73.618377 6.204763 9.27599-20.943525-14.774112-31.943559 3.730669z" fill="#181104"/><path d="m120.082384 57.676911 3.466297-4.60586-34.186268-.431308 36.419678-.785987z" fill="#39311c"/><path d="m103.520804 110.871977-4.932372-.947997-9.857685 20.563758 11.171464 3.893862z" fill="#a5977a"/><path d="m231.831215 49.128956 10.342219.017102 1.05982-2.043829-17.127281-1.561946z" fill="#cba476"/><path d="m29.615729 34.13748 3.966356 3.851424 9.507441-2.361962 1.165381-2.746333z" fill="#a88b6d"/><path d="m268.876816 181.660608-42.103846-71.290057 32.713555 69.835999-9.186743-13.237828z" fill="#2c1904"/><path d="m47.362067 78.700356 9.568157-.94369.447304-.222631-.424722-6.179956z" fill="#0c0300"/></g></svg>