<svg height="680" width="1024" xmlns="http://www.w3.org/2000/svg"><path d="m0 0h1024v680h-1024z" fill="#102435"/><g transform="matrix(4 0 0 4 2 2)"><g fill-opacity=".501961"><ellipse cx="134" cy="112" fill="#97bfc6" rx="90" ry="7"/><ellipse fill="#6f9eba" rx="1" ry="1" transform="matrix(-56.83430719 15.75003122 -2.06331496 -7.44551389 143.131594 47.995189)"/><ellipse cx="17" cy="169" rx="66" ry="66"/><ellipse rx="1" ry="1" transform="matrix(73.96065993 -140.77073815 29.49047737 15.49423692 239.899964 136.426431)"/><ellipse fill="#000003" rx="1" ry="1" transform="matrix(26.91846064 6.71938616 -54.14345131 216.90349806 14.230709 50.602657)"/><ellipse cx="167" cy="31" fill="#2b5476" rx="38" ry="38"/><path d="m35.394998 88.371919 66.42773-9.952724-8.565362-14.598979 7.840068-7.403555z" fill="#467692"/><path d="m110 113h71v4h-71z" fill="#cbe5e8"/><path d="m12.933148 93.631836 70.519235 20.92571 21.397668 6.641903-49.838434-6.318432z" fill="#6b8f96"/><ellipse fill="#0b2541" rx="1" ry="1" transform="matrix(30.46631219 -26.09844457 15.46193694 18.04966562 116.279907 83.91567)"/><path d="m180 114h58v3h-58z" fill="#8cafb7"/><path d="m132 43 52-14 25 15z" fill="#7698a6"/><ellipse fill="#000611" rx="1" ry="1" transform="matrix(-224.04366995 -1.81270591 .15646085 -19.33797606 129.750657 165.267133)"/><ellipse fill="#010007" rx="1" ry="1" transform="matrix(-8.50209689 -12.86594611 42.77142953 -28.26429049 252.833963 0)"/><path d="m182.292772 111.547999-60.671804-1.040019 52.962809-18.295528 68.082199 24.375584z" fill="#2c4d60"/><ellipse fill="#083357" rx="1" ry="1" transform="matrix(-47.94493674 30.10341738 -6.08198133 -9.68661485 115.772901 35.091086)"/><path d="m128 185 112-70h-87z" fill="#09253e"/><path d="m-.5-.5h1v1h-1z" fill="#467077" transform="matrix(39.50753362 6.2573786 -1.56434465 9.87688341 255 44)"/><ellipse cx="157" cy="77" fill="#0f2844" rx="42" ry="31"/><ellipse fill="#050612" rx="1" ry="1" transform="matrix(5.9126284 -28.1894544 33.45250166 7.01653209 247.751961 80.564808)"/><path d="m-.5-.5h1v1h-1z" fill="#90b0b8" transform="matrix(-54.50217201 19.83716831 -1.02606043 -2.81907786 121 51)"/><path d="m83 117h50v3h-50z" fill="#92b2ba"/><path d="m64 103h27v9h-27z" fill="#30545d"/><ellipse fill="#072c4c" rx="1" ry="1" transform="matrix(-48.08276257 50.38781564 -18.18455381 -17.35267886 119.427422 9.466304)"/><ellipse fill="#01152c" rx="1" ry="1" transform="matrix(-11.09480246 54.33069834 -23.01281176 -4.69941688 49.803483 30.231743)"/><path d="m75 158 126-1-182-55z" fill="#05192d"/><ellipse fill="#010108" rx="1" ry="1" transform="matrix(56.15812781 137.06861517 -31.94964434 13.09002946 0 130.605709)"/><path d="m131 112 12 5 14-7z" fill="#c5dde2"/><path d="m-.5-.5h1v1h-1z" fill="#000001" transform="matrix(-38.14775643 -8.10855594 12.05887807 -56.73256084 246 148)"/><path d="m224 46-31 23 1-48z" fill="#1a344f"/><path d="m138 118h43v19h-43z" fill="#0f2f4c"/><path d="m44 107h19v5h-19z" fill="#87aab2"/><ellipse cx="168" cy="7" fill="#133552" rx="37" ry="28"/><path d="m30.031067 83.61629-7.507516 18.184881 18.48112 6.804561-8.01094-10.646346z" fill="#294a59"/><path d="m-.5-.5h1v1h-1z" fill="#668d9e" transform="matrix(43.73098536 -24.24048101 .48480962 .87461971 81 67)"/><ellipse cx="107" cy="117" fill="#90aeb3" rx="33" ry="2"/><path d="m167.13846 115.640398-.690855-11.185611 8.387219-8.454634 32.490944 11.865799z" fill="#3f5d66"/><ellipse fill="#000003" rx="1" ry="1" transform="matrix(-20.16065037 81.58284236 -13.22183575 -3.26736358 4.644358 6.644691)"/><ellipse cx="173" cy="115" fill="#9bb6bc" rx="46" ry="2"/><path d="m148.769996 104.378013 9.045694-32.328628-71.522072 17.760138-.687258 23.848484z" fill="#0d2136"/><path d="m-.5-.5h1v1h-1z" fill="#3a5b64" transform="matrix(39.12590403 8.31646763 -1.45538184 6.84703321 94 111)"/><path d="m236 40-7-34-11 36z" fill="#08060f"/><path d="m199.826906 120.745133 43.834053-5.469008-54.343058 67.835072-12.510435-35.367732z" fill="#071425"/><path d="m78 119h68v14h-68z" fill="#05213a"/><ellipse fill="#5a726c" rx="1" ry="1" transform="matrix(-1.07504297 1.77140651 -5.80959612 -3.52576637 199.368606 16.719219)"/><ellipse fill="#99b4bc" rx="1" ry="1" transform="matrix(-.32954064 1.18000951 -14.25155622 -3.98002461 69.330672 114.105895)"/><path d="m45.121267 86.429881 21.709118-5.001331 59.277026-32.223864-23.396089 39.329459z" fill="#1b3b56"/><path d="m74.590887 67.518226 45.926857-44.247501 39.433401 9.420965-30.728676 11.633578z" fill="#123653"/><path d="m197.19539 34.270629 39.249247 3.304972-18.045088-27.812424-21.199291 19.652818z" fill="#0e1626"/><path d="m51 104 30-3 11 16z" fill="#365763"/><path d="m235 24h14v25h-14z" fill="#274857"/><path d="m3 99 57 16 6 58z" fill="#040b19"/><path d="m26 101h22v4h-22z" fill="#4f747c"/><path d="m193.092405 33.855642-68.116068 16.547477-4.9052-2.607397 42.978559-11.555054z" fill="#7798a7"/><path d="m154 43h58v5h-58z" fill="#2e4e68"/><path d="m114.454235 105.808121-112.873806-7.044384 59.872923-8.696449 63.825439 1.797276z" fill="#081b2c"/><path d="m77.546889 70.23891 19.467398 6.176436-38.169413 3.792567 9.421984-7.8926z" fill="#466d81"/><ellipse cx="136" cy="112" fill="#c4dde1" rx="14" ry="1"/><path d="m-.5-.5h1v1h-1z" fill="#6d93a5" transform="matrix(42.83637202 3.74769694 -.08715574 .9961947 140 109)"/><path d="m-.5-.5h1v1h-1z" fill="#051222" transform="matrix(41.10954559 -18.30314894 13.82904586 31.06054556 28 73)"/><ellipse fill="#06233d" rx="1" ry="1" transform="matrix(13.17408197 2.95162898 -6.17930845 27.58026728 67.564177 44.605528)"/><path d="m148 117h52v10h-52z" fill="#0f2c46"/><path d="m-.5-.5h1v1h-1z" fill="#366174" transform="matrix(14.92267631 -10.06547226 .5591929 .82903757 29 94)"/><path d="m201.202321 104.836778 10.989769 11.342044 12.107793-9.463018-1.429548-2.233314z" fill="#2d4a55"/><path d="m103 110h33v2h-33z" fill="#173b50"/><path d="m111 104h30v4h-30z" fill="#224562"/><path d="m-.5-.5h1v1h-1z" fill="#081a24" transform="matrix(-10.90271738 -7.08030746 16.88381009 -25.99878761 255 25)"/><path d="m133 111h29v3h-29z" fill="#8ca8b0"/><path d="m-.5-.5h1v1h-1z" fill="#7595a3" transform="matrix(.12216685 6.99893387 -15.99756312 .2792385 183 37)"/><ellipse fill="#071b2a" rx="1" ry="1" transform="matrix(-3.99458229 9.83056497 -25.56625748 -10.38867243 74.788795 129.36959)"/><ellipse cx="167" cy="62" fill="#17304a" rx="34" ry="13"/><path d="m228.945851 112.131334-8.194499-65.060685-34.403824 58.738251 14.134659-9.299304z" fill="#0b1c31"/><ellipse rx="1" ry="1" transform="matrix(30.44114719 11.94558475 -8.22124286 20.95034017 9.448207 169)"/><ellipse fill="#050e1b" rx="1" ry="1" transform="matrix(-60.24464395 -20.58104507 4.56483395 -13.36213953 243.454571 5.798702)"/><path d="m53.512061 126.589149-37.275081-32.152586-1.058133 14.110892 29.455927-1.746925z" fill="#061422"/><path d="m143 118h15v43h-15z" fill="#122e44"/><path d="m-.5-.5h1v1h-1z" fill="#214963" transform="matrix(-33.87061974 -2.96329525 .26146723 -2.98858409 251 26)"/><ellipse fill="#1b3f5e" rx="1" ry="1" transform="matrix(36.35996712 -8.7118708 .9577124 3.9971198 165.320881 31.465723)"/><ellipse fill="#44636d" rx="1" ry="1" transform="matrix(.38045197 2.5696425 -21.86669863 3.23750426 176.853972 109.892496)"/><path d="m209 113h18v4h-18z" fill="#55767d"/><path d="m-.5-.5h1v1h-1z" fill="#2f556a" transform="matrix(-46.67902132 17.91839748 -.35836795 -.93358043 48 86)"/><path d="m51-16 57 20-60 28z" fill="#04172d"/><ellipse fill="#4a7084" rx="1" ry="1" transform="matrix(-.31309896 -.94972051 48.4452772 -15.97118937 117.260082 55.068428)"/><path d="m190.169132 28.13491 10.50484 18.772098-47.996819-11.08432 35.99924 10.361196z" fill="#4c6f85"/><path d="m85 62 35-17-55-5z" fill="#0e2e47"/><path d="m49 112 1-5 7 1z" fill="#8fadb6"/><path d="m115 99 53 9-67-45z" fill="#0b223a"/><ellipse fill="#071a2b" rx="1" ry="1" transform="matrix(18.6869521 8.12225877 -7.32425101 16.85096864 36.448105 56.623245)"/><path d="m35 103h9v3h-9z" fill="#688a90"/><path d="m127 38 26-45-67 28z" fill="#0a2b48"/><path d="m258 118-35 42-4-43z" fill="#040a18"/><path d="m181 116h20v3h-20z" fill="#19364b"/><path d="m271 7-49-23 44 42z" fill="#020108"/><path d="m-.5-.5h1v1h-1z" fill="#031426" transform="matrix(-.98162718 .190809 -3.05294393 -15.70603494 87 107)"/><path d="m168.697606 43.962012 30.526132 18.779155 1.259726-2.459657-94.26264 2.575699z" fill="#1a3751"/><ellipse fill="#142331" rx="1" ry="1" transform="matrix(16.99293291 -1.74425837 .27107921 2.64091084 250.424978 112.220741)"/><path d="m-.5-.5h1v1h-1z" fill="#8eabb2" transform="matrix(.41811385 -3.97808758 18.89591601 1.9860408 70 114)"/><ellipse fill="#010106" rx="1" ry="1" transform="matrix(-13.16716574 103.34076992 -7.79087678 -.99267468 255 119.84322)"/><path d="m158.125957 49.097728-47.880272 25.336079-29.485625-.898007 11.858283-5.761802z" fill="#102c47"/><path d="m-5.179011 58.560635-10.820989 108.660247 40.020149-52.018383-15.408781-83.059345z" fill="#040812"/><path d="m167.022807 84.053651 7.334708 11.45 16.782528 12.440664 19.509196-3.756706z" fill="#173247"/></g><path d="m155.713737 113.753753q-32.332634 9.309068-84.255511 2.165913" fill="none" stroke="#93afb6" stroke-opacity=".501961" stroke-width=".5"/><ellipse cx="131" cy="45" fill="#adc5ca" fill-opacity=".501961" rx="2" ry="2"/><path d="m255.348511 44.703011 15.651489 10.146408-81.823005-10.978225 16.111876 6.26877z" fill="#20394c" fill-opacity=".501961"/><path d="m-.5-.5h1v1h-1z" fill="#aec9cf" fill-opacity=".501961" transform="matrix(-.20926942 -2.99269215 14.96346075 -1.04634711 120 115)"/><path d="m105.748992 54.789254q33.351717-13.557031 59.304266-17.866913" fill="none" stroke="#84a4b3" stroke-opacity=".501961" stroke-width=".5"/><ellipse fill="#48697b" fill-opacity=".501961" rx="1" ry="1" transform="matrix(-1.35797102 -1.99955965 3.72754172 -2.53150419 192.898821 31.410431)"/><path d="m169 105h18v8h-18z" fill="#4b6973" fill-opacity=".501961"/><path d="m42 88 30 16-51-7z" fill="#071d2c" fill-opacity=".501961"/><path d="m-.5-.5h1v1h-1z" fill="#091d33" fill-opacity=".501961" transform="matrix(-26.69464075 11.33120273 -7.42389144 -17.48959222 216 2)"/><path d="m187.212639 15.175789 22.178408 5.198432-22.073376 3.91892 1.478694.655894z" fill="#2f4b59" fill-opacity=".501961"/><ellipse cx="241" cy="41" fill="#3c5e68" fill-opacity=".501961" rx="5" ry="5"/><path d="m121 64-15 45 57-33z" fill="#0c2037" fill-opacity=".501961"/><path d="m112.666088 122.073797q37.529563-21.311077 79.126367 32.360321" fill="none" stroke="#2b4658" stroke-opacity=".501961" stroke-width=".5"/><path d="m90 116h18v2h-18z" fill="#93b0b5" fill-opacity=".501961"/><ellipse fill="#091322" fill-opacity=".501961" rx="1" ry="1" transform="matrix(-35.90785362 51.20579557 -10.25849194 -7.1937253 53.01875 .870032)"/><path d="m68 11 53-21-59 66z" fill="#07233d" fill-opacity=".501961"/><ellipse cx="77" cy="83" fill="#132f47" fill-opacity=".501961" rx="18" ry="4"/><path d="m150.086884 148.275061 26.215911-31.49744-45.397275 1.836379 18.712549 12.270958z" fill="#14324b" fill-opacity=".501961"/><ellipse cx="147" cy="116" fill="#acc7cd" fill-opacity=".501961" rx="12" ry="1"/><path d="m114 48 69-23-9-24z" fill="#133758" fill-opacity=".501961"/><path d="m42 105h8v3h-8z" fill="#1c3d4a" fill-opacity=".501961"/><ellipse fill="#587e8f" fill-opacity=".501961" rx="1" ry="1" transform="matrix(-.60484543 -1.1892781 28.75655745 -14.62506736 78.343955 69.810102)"/><path d="m195.46682 29.709275 31.477677 21.341188-18.734805-2.415416-15.637921-15.32761z" fill="#1a354d" fill-opacity=".501961"/><path d="m207.772446 117.410047-48.100992 54.502411-12.663266-11.396528 18.514434-27.954527z" fill="#0a2033" fill-opacity=".501961"/><path d="m150.802485 125.433214-10.684147 35.960834 26.479575.641853-76.835491-15.817389z" fill="#082033" fill-opacity=".501961"/><path d="m224.288125 70.222582-30.979166 30.046564-1.839273-51.009238 21.516446 9.03374z" fill="#0e2138" fill-opacity=".501961"/><path d="m140 115h61v1h-61z" fill="#afc9ce" fill-opacity=".501961"/><path d="m-.5-.5h1v1h-1z" fill="#476870" fill-opacity=".501961" transform="matrix(-23.70452017 -3.75442716 .15643447 -.98768834 102 115)"/><path d="m218 102 18-48 23-5z" fill="#090f1c" fill-opacity=".501961"/><path d="m95.947498 185q1.538397-64.450659-3.481731-83.218984" fill="none" stroke="#0d2233" stroke-opacity=".501961" stroke-width=".5"/><path d="m224.398163 115.10061q35.476924 1.652359 46.601837-8.466671" fill="none" stroke="#314e57" stroke-opacity=".501961" stroke-width=".5"/><path d="m74 159h71v11h-71z" fill="#051120" fill-opacity=".501961"/><path d="m124 112h24v3h-24z" fill="#b0c9cf" fill-opacity=".501961"/><path d="m-.5-.5h1v1h-1z" fill="#51727b" fill-opacity=".501961" transform="matrix(-15.75171388 -10.62466517 .5591929 -.82903757 62 109)"/><ellipse fill="#081727" fill-opacity=".501961" rx="1" ry="1" transform="matrix(35.13460234 -28.6357183 4.17107839 5.11770576 197.826562 145.08371)"/><ellipse fill="#000001" fill-opacity=".501961" rx="1" ry="1" transform="matrix(-13.31637448 41.26344341 -6.57410878 -2.12157026 .09704 10.997746)"/><path d="m236 40-4-33-16 7z" fill="#090d17" fill-opacity=".501961"/><ellipse cx="156" cy="34" fill="#406881" fill-opacity=".501961" rx="2" ry="2"/><ellipse fill="#395660" fill-opacity=".501961" rx="1" ry="1" transform="matrix(.4784612 -2.96303441 28.24073828 4.56022293 194.33093 108.065368)"/><path d="m144.67669 61.255033 16.642629-3.322306 31.739851 21.42415-34.66283 27.275798z" fill="#0f2741" fill-opacity=".501961"/><ellipse cx="179" cy="113" fill="#67878e" fill-opacity=".501961" rx="29" ry="1"/><ellipse fill="#214351" fill-opacity=".501961" rx="1" ry="1" transform="matrix(.19726916 -.98034937 19.0738204 3.83809752 51.704315 103.38942)"/><path d="m42.800631 85.076406-17.632852 12.63602 66.584926 25.766786-70.038102-27.216498z" fill="#3d5d6c" fill-opacity=".501961"/><path d="m95 104h2v12h-2z" fill="#436670" fill-opacity=".501961"/><path d="m233 143h3v3h-3z" fill="#234859" fill-opacity=".501961"/><ellipse cx="205" cy="116" fill="#57747f" fill-opacity=".501961" rx="19" ry="1"/><path d="m180.774467 36.686253 19.347579 4.570643-23.068337 2.225561 25.84589-19.914613z" fill="#5c7d8f" fill-opacity=".501961"/><path d="m225.415543 20.78295-25.786646 5.086851 40.152191 31.930367-16.027485 8.261153z" fill="#0e1929" fill-opacity=".501961"/><ellipse cx="120" cy="110" fill="#1a394c" fill-opacity=".501961" rx="28" ry="1"/><path d="m93.004622 85.734783q-3.474653 18.393788 2.742908 28.800798" fill="none" stroke="#081829" stroke-opacity=".501961" stroke-width=".5"/><path d="m15 97-3-39 32 25z" fill="#06101f" fill-opacity=".501961"/><ellipse cx="72" cy="108" fill="#31505c" fill-opacity=".501961" rx="5" ry="5"/><ellipse cx="113" cy="119" fill="#537581" fill-opacity=".501961" rx="9" ry="1"/><path d="m149 3 53-19-23 23z" fill="#102e48" fill-opacity=".501961"/><path d="m148.560726 53.333832 2.610032-3.219913-17.124909-2.897656 21.701326-6.061282z" fill="#4b6e82" fill-opacity=".501961"/><path d="m23 102 3-6 5 6z" fill="#2d4f5a" fill-opacity=".501961"/><path d="m254 29-15-1 20 15z" fill="#0b1e2b" fill-opacity=".501961"/><path d="m41 22-1 61 20-7z" fill="#061a2f" fill-opacity=".501961"/><path d="m73.189123 106.23086 6.146235 9.095839 6.964062-2.719845-.683902-8.16151z" fill="#41616b" fill-opacity=".501961"/><path d="m-.5-.5h1v1h-1z" fill="#50747f" fill-opacity=".501961" transform="matrix(9.62081678 5.33290582 -.48480962 .87461971 163 112)"/><path d="m168 45h20v7h-20z" fill="#2a4762" fill-opacity=".501961"/><path d="m188 32-7 3 6 5z" fill="#7896a6" fill-opacity=".501961"/><path d="m-.5-.5h1v1h-1z" fill="#6b8d94" fill-opacity=".501961" transform="matrix(-6.49028698 -2.62224615 .37460659 -.92718385 51 112)"/><ellipse fill="#485e5d" fill-opacity=".501961" rx="1" ry="1" transform="matrix(-1.84601502 1.73589277 -4.10642656 -4.36693167 200.573768 19.196712)"/><path d="m193.87047 130.254376-20.516617-14.55316-28.313677 30.060689 23.318889-7.216231z" fill="#0e2840" fill-opacity=".501961"/><path d="m212 47-38 9 6 25z" fill="#18314a" fill-opacity=".501961"/><path d="m140.36075 87.090555-41.877447 9.242222 2.74528 22.038461-10.85184-31.175372z" fill="#0f2235" fill-opacity=".501961"/><path d="m224 72h12v40h-12z" fill="#0a1221" fill-opacity=".501961"/><path d="m-.5-.5h1v1h-1z" fill="#577880" fill-opacity=".501961" transform="matrix(-9.1194133 -6.15112194 .5591929 -.82903757 181 113)"/><path d="m131.824684 111.125635q-11.94819 5.551905-21.525246.958562" fill="none" stroke="#81a1a8" stroke-opacity=".501961" stroke-width=".5"/><path d="m38.714753 89.140561q54.103962-29.100915 91.878763-43.206661" fill="none" stroke="#5f8495" stroke-opacity=".501961" stroke-width=".5"/><ellipse cx="116" cy="118" fill="#99b6bb" fill-opacity=".501961" rx="12" ry="1"/><ellipse cx="221" cy="113" fill="#33535d" fill-opacity=".501961" rx="8" ry="2"/><ellipse fill="#67868f" fill-opacity=".501961" rx="1" ry="1" transform="matrix(2.0147153 1.08278395 -1.31250156 2.44214645 174.739524 114.378918)"/><path d="m84 143h2v4h-2z" fill="#346277" fill-opacity=".501961"/><path d="m122.637155 107.719402 13.028632-2.768162-38.708463 11.781824 29.592829-12.727251z" fill="#395c70" fill-opacity=".501961"/><path d="m271 23.572138-68.824009-.668985 32.154693 23.413723-3.141133-34.023833z" fill="#0a1421" fill-opacity=".501961"/><path d="m69 102h22v2h-22z" fill="#1f3f4f" fill-opacity=".501961"/><path d="m102.984432 109.737007q-21.371834 17.307832-52.689553.292269" fill="none" stroke="#486773" stroke-opacity=".501961" stroke-width=".5"/><path d="m-.5-.5h1v1h-1z" fill="#0a233f" fill-opacity=".501961" transform="matrix(-.0348995 -.99939083 23.98537985 -.83758792 152 106)"/><path d="m101.86704 57.506921q1.102824-2.427859 35.455741-14.66227" fill="none" stroke="#83a3b1" stroke-opacity=".501961" stroke-width=".5"/><path d="m126 44 3-4h7z" fill="#27526f" fill-opacity=".501961"/><path d="m235.252513 42.498044-3.250939 7.807647 37.11477-7.624029-9.888249-1.579989z" fill="#2f4d59" fill-opacity=".501961"/><ellipse cx="34" cy="97" fill="#051421" fill-opacity=".501961" rx="10" ry="2"/><path d="m100 105h2v6h-2z" fill="#426874" fill-opacity=".501961"/><path d="m188.158441 8.24135-32.778957 28.219442 26.511861-3.802168-46.245917-20.223876z" fill="#163856" fill-opacity=".501961"/><ellipse cx="194" cy="36" fill="#3c6078" fill-opacity=".501961" rx="3" ry="2"/><ellipse fill="#2b4e66" fill-opacity=".501961" rx="1" ry="1" transform="matrix(-22.43410336 3.38429406 -.21114546 -1.39965943 149.689979 48.875099)"/><path d="m90.827848 130.245381-20.438359 36.395258 11.085761-45.763413 10.157246 51.183894z" fill="#061624" fill-opacity=".501961"/><path d="m-.5-.5h1v1h-1z" fill="#071628" fill-opacity=".501961" transform="matrix(0 20 -2 0 93 101)"/><path d="m205.492737 90.453455 32.470426 24.811689-17.391153-5.149233-.021375-64.253766z" fill="#0d1e2f" fill-opacity=".501961"/><ellipse cx="90" cy="117" fill="#9cbbbf" fill-opacity=".501961" rx="2" ry="2"/><path d="m99.11144 84.240624 12.02231 25.020237-15.126692-5.00882.276107-5.26856z" fill="#0a1c2f" fill-opacity=".501961"/><ellipse cx="199" cy="112" fill="#55737a" fill-opacity=".501961" rx="15" ry="2"/><path d="m114.364232 109.122428q48.620283-5.022047 56.924243 3.880748" fill="none" stroke="#42687e" stroke-opacity=".501961" stroke-width=".5"/><path d="m185 43-4-13 10 5z" fill="#67889a" fill-opacity=".501961"/><ellipse cx="113" cy="75" fill="#0e2740" fill-opacity=".501961" rx="10" ry="10"/><path d="m-.5-.5h1v1h-1z" fill="#98b6bd" fill-opacity=".501961" transform="matrix(.51763809 -1.93185165 9.65925826 2.58819045 77 116)"/><ellipse cx="85" cy="115" fill="#4f6f78" fill-opacity=".501961" rx="3" ry="3"/><path d="m250.521696 33.03454 8.424355-7.712063-26.165164 4.740576 17.697821 10.556263z" fill="#102837" fill-opacity=".501961"/><path d="m42.68343 98.305289 29.610808-14.23366 3.311248 18.410844-36.462993-10.935988z" fill="#071a2d" fill-opacity=".501961"/><ellipse cx="185" cy="15" fill="#1d3e5a" fill-opacity=".501961" rx="4" ry="18"/><path d="m185 117h31v14h-31z" fill="#092136" fill-opacity=".501961"/><path d="m83.871773 56.893872 11.135464 2.677839 56.264659-37.560766-58.500974-8.809904z" fill="#0d2e4a" fill-opacity=".501961"/><ellipse cx="239" cy="115" fill="#5a7b82" fill-opacity=".501961" rx="1" ry="1"/><path d="m-.5-.5h1v1h-1z" fill="#060b18" fill-opacity=".501961" transform="matrix(22.23130932 -61.08002035 9.39692621 3.42020143 21 6)"/><path d="m146.89569 116.384853q-27.227203 3.348654-37.403727-4.750681" fill="none" stroke="#91afb5" stroke-opacity=".501961" stroke-width=".5"/><path d="m-.5-.5h1v1h-1z" fill="#7193a6" fill-opacity=".501961" transform="matrix(-17.30271053 4.9614724 -1.37818678 -4.80630848 153 41)"/><ellipse fill="#010001" fill-opacity=".501961" rx="1" ry="1" transform="matrix(-12.00766795 -10.73043475 33.72323066 -37.73727396 251.547544 169)"/><path d="m-.5-.5h1v1h-1z" fill="#506766" fill-opacity=".501961" transform="matrix(-.92718385 .37460659 -4.12067253 -10.1990224 199 19)"/><path d="m244.864983 78.777783 26.135017-50.694689-29.399775 80.895284 14.444912-5.798323z" fill="#04040c" fill-opacity=".501961"/><path d="m-.5-.5h1v1h-1z" fill="#4e7178" fill-opacity=".501961" transform="matrix(-3.5812497 -10.40070433 .94551858 -.32556815 91 110)"/><path d="m125 121h23v19h-23z" fill="#0b263f" fill-opacity=".501961"/><ellipse fill="#0f273a" fill-opacity=".501961" rx="1" ry="1" transform="matrix(.93857644 -.34507139 3.24264831 8.81983659 101.792984 104.875371)"/><path d="m130.156504 110.749173q-16.287556 4.837509-35.317163 4.66263" fill="none" stroke="#5d7e87" stroke-opacity=".501961" stroke-width=".5"/><path d="m-.5-.5h1v1h-1z" fill="#8ea8b1" fill-opacity=".501961" transform="matrix(-.61566148 -.78801075 5.51607528 -4.30963033 104 56)"/><ellipse cx="255" cy="112" fill="#0b1b2a" fill-opacity=".501961" rx="28" ry="2"/><ellipse cx="38" cy="105" fill="#5d7c84" fill-opacity=".501961" rx="2" ry="2"/><path d="m214.534132 14.011358q-12.585479 13.5553-72.976849 26.697965" fill="none" stroke="#264760" stroke-opacity=".501961" stroke-width=".5"/><ellipse fill="#092134" fill-opacity=".501961" rx="1" ry="1" transform="matrix(32.9263039 9.3208515 -1.1058453 3.9064455 102.51125 127.896305)"/><path d="m51 107h8v5h-8z" fill="#84a3ad" fill-opacity=".501961"/><path d="m114.683261 123.715311q17.028982-10.432558 21.493986-7.725102" fill="none" stroke="#496875" stroke-opacity=".501961" stroke-width=".5"/><path d="m-.5-.5h1v1h-1z" fill="#587073" fill-opacity=".501961" transform="matrix(7.63243287 4.76927338 -.52991926 .8480481 196 15)"/><path d="m27 156-34-70 87 97z" fill="#03060f" fill-opacity=".501961"/><path d="m26.563207 146.699092 79.690614 38.300908h12.69026l-55.914646-38.193014z" fill="#050c17" fill-opacity=".501961"/><path d="m147.420768 104.501777 17.517576-32.303673-.743145 42.536749 1.663765-6.941705z" fill="#112b43" fill-opacity=".501961"/><path d="m4.299453 26.299919 8.185265 71.542299 27.079018 10.793714-31.84325 13.02658z" fill="#050b15" fill-opacity=".501961"/><path d="m43.645143 111.120278 26.550831 6.607848-5.72079 36.878467 27.042722-2.348507z" fill="#091a28" fill-opacity=".501961"/><path d="m-.5-.5h1v1h-1z" fill="#b8d5d8" fill-opacity=".501961" transform="matrix(-6.94782306 .8530854 -.12186934 -.99254615 136 117)"/><path d="m127.004069 48.130633 6.21048 3.028-23.399523 5.840465-40.460018 16.813528z" fill="#486e81" fill-opacity=".501961"/><path d="m79.063693 67.70481 18.203565 9.787267.397169 1.000353-23.299432.293296z" fill="#2e546d" fill-opacity=".501961"/><path d="m-.5-.5h1v1h-1z" fill="#193a55" fill-opacity=".501961" transform="matrix(.20791169 .9781476 -24.45369002 5.19779227 99 66)"/><path d="m-.5-.5h1v1h-1z" fill="#365a66" fill-opacity=".501961" transform="matrix(-1.29409523 -4.82962913 7.72740661 -2.07055236 48 106)"/><path d="m100.938644 34.412671 34.63763.965739-11.912382 10.633806-21.421497 9.443311z" fill="#103451" fill-opacity=".501961"/><ellipse cx="53" cy="103" fill="#0e2a3c" fill-opacity=".501961" rx="3" ry="3"/><path d="m184.324434 87.032428 40.234651 19.678404-39.00507-5.695977 7.095757-46.666401z" fill="#112a3f" fill-opacity=".501961"/><path d="m144 114h20v2h-20z" fill="#b3cad1" fill-opacity=".501961"/><path d="m237 42 11-2-10-1z" fill="#41656c" fill-opacity=".501961"/><path d="m99 120h36v7h-36z" fill="#09273f" fill-opacity=".501961"/><path d="m-.5-.5h1v1h-1z" fill="#91adb7" fill-opacity=".501961" transform="matrix(-16.16796078 5.2532889 -.30901699 -.95105652 136 44)"/><path d="m179.15169 70.223599-11.187999-20.053873 32.930591-4.6162-29.321608 22.59282z" fill="#1e3a53" fill-opacity=".501961"/><ellipse cx="125" cy="104" fill="#1e3a52" fill-opacity=".501961" rx="8" ry="2"/><path d="m33.559685 89.831493q134.312151-65.998817 143.882785-105.831493" fill="none" stroke="#123552" stroke-opacity=".501961" stroke-width=".5"/><path d="m235 17h9v7h-9z" fill="#081f2e" fill-opacity=".501961"/><path d="m126.044533 53.881953-17.795929 11.808876 87.525488 6.293341-67.982688-12.131959z" fill="#122d47" fill-opacity=".501961"/><path d="m228.855796 114.793033-95.431796 70.206967 2.752628-42.207409 23.466534 41.152833z" fill="#091929" fill-opacity=".501961"/><path d="m114.379543 48.848225q103.65055-30.366127 109.393182-42.373402" fill="none" stroke="#1e405a" stroke-opacity=".501961" stroke-width=".5"/><path d="m-.5-.5h1v1h-1z" fill="#5d8195" fill-opacity=".501961" transform="matrix(26.30799175 -6.07367847 .44990211 1.94874013 168 40)"/><path d="m-.5-.5h1v1h-1z" fill="#6e8c94" fill-opacity=".501961" transform="matrix(-17.98903489 -.62819094 .0348995 -.99939083 141 111)"/><ellipse cx="247" cy="52" fill="#10202c" fill-opacity=".501961" rx="12" ry="3"/><path d="m43.653558 87.814851 37.393899-14.23472-28.162176 14.449632.341107 1.210679z" fill="#24465d" fill-opacity=".501961"/><ellipse cx="156" cy="111" fill="#8daab3" fill-opacity=".501961" rx="2" ry="2"/><ellipse fill="#080c17" fill-opacity=".501961" rx="1" ry="1" transform="matrix(-.26176287 13.42191171 -3.0727027 -.05992585 230.905077 32.010354)"/><path d="m167.64739 104.21065 62.820864-57.665508-40.108174-26.214829 30.47524 25.76665z" fill="#12263c" fill-opacity=".501961"/><ellipse fill="#5d818c" fill-opacity=".501961" rx="1" ry="1" transform="matrix(.67578269 1.10037616 -4.4181587 2.71335864 159.699269 111.162977)"/><path d="m-.5-.5h1v1h-1z" fill="#193c4c" fill-opacity=".501961" transform="matrix(-.27563736 .9612617 -32.68289766 -9.3716701 253 40)"/><path d="m205.730798 101.58284-24.14084-.47316 14.276276 6.695274 15.19273 2.29954z" fill="#233f4c" fill-opacity=".501961"/><path d="m117 28-32-10-13 29z" fill="#092742" fill-opacity=".501961"/><path d="m-.5-.5h1v1h-1z" fill="#395c74" fill-opacity=".501961" transform="matrix(-20.79562944 -2.92263512 .1391731 -.99026807 173 45)"/><path d="m180.740033 116.243926-1.3262 6.320348.548847 9.00172-13.575971-10.944197z" fill="#122f48" fill-opacity=".501961"/><path d="m56.038033 66.964805 24.413348-2.12101-29.128622 16.422144-.846967-64.837414z" fill="#061e35" fill-opacity=".501961"/><path d="m131.618496 168.659485 56.502296 15.63408 32.263657-31.842606-64.872053 20.125607z" fill="#070d19" fill-opacity=".501961"/><path d="m63 23 19 38-15 10z" fill="#0a263e" fill-opacity=".501961"/><path d="m80.948318 68.35537q21.801513-3.667399 76.772347-25.839536" fill="none" stroke="#2e536b" stroke-opacity=".501961" stroke-width=".5"/><path d="m104.945886 185q-63.840169-77.067769-64.804092-80.184849" fill="none" stroke="#081725" stroke-opacity=".501961" stroke-width=".5"/><ellipse cx="117" cy="116" fill="#a7c3c9" fill-opacity=".501961" rx="3" ry="3"/><path d="m165 102 3-6 17-2z" fill="#203e53" fill-opacity=".501961"/><ellipse fill="#1b3a53" fill-opacity=".501961" rx="1" ry="1" transform="matrix(3.12983536 3.66561365 -5.91408413 5.04966191 154.612898 122.919594)"/><ellipse cx="241" cy="114" fill="#203b46" fill-opacity=".501961" rx="8" ry="1"/><path d="m191.745346-15.464975 22.500567 3.656007-15.28655 25.596882-3.150671-2.937376z" fill="#0d2941" fill-opacity=".501961"/><path d="m173-5-26 18-6 22z" fill="#183a57" fill-opacity=".501961"/><ellipse cx="65" cy="113" fill="#84a1aa" fill-opacity=".501961" rx="3" ry="3"/><path d="m127 129-45 18 27-22z" fill="#051a2f" fill-opacity=".501961"/><ellipse cx="193" cy="116" fill="#557481" fill-opacity=".501961" rx="16" ry="1"/><path d="m79 89-9-10 32 1z" fill="#18354e" fill-opacity=".501961"/><path d="m66 107h8v5h-8z" fill="#32515c" fill-opacity=".501961"/><path d="m46.086208 105.144398q4.758969 14.42949 17.649266 3.639475" fill="none" stroke="#5a7b84" stroke-opacity=".501961" stroke-width=".5"/><path d="m118 94 21 11 26-26z" fill="#0b2039" fill-opacity=".501961"/><path d="m35.164593 58.373779 15.458872-19.850126 31.9572-37.955285-50.489991 34.652808z" fill="#07192c" fill-opacity=".501961"/><ellipse cx="89" cy="114" fill="#2a4a55" fill-opacity=".501961" rx="2" ry="2"/><path d="m104.419281 152.144363-14.030488-29.606184 19.267248-3.453589-6.739605 7.639503z" fill="#0b2437" fill-opacity=".501961"/><path d="m78 44h10v3h-10z" fill="#183a55" fill-opacity=".501961"/><path d="m60.128534 84.496731 18.755607-4.124893-35.325635 10.009005 27.838175 3.938377z" fill="#0c253c" fill-opacity=".501961"/><path d="m217 0h17v8h-17z" fill="#0a1322" fill-opacity=".501961"/><path d="m41.992817 107.420295q23.057628-8.7968 55.039541-3.770879" fill="none" stroke="#153041" stroke-opacity=".501961" stroke-width=".5"/><path d="m-.5-.5h1v1h-1z" fill="#31515c" fill-opacity=".501961" transform="matrix(-10.71807071 2.4744616 -.44990211 -1.94874013 66 107)"/><ellipse cx="108" cy="159" fill="#071725" fill-opacity=".501961" rx="32" ry="6"/><path d="m236.112324 63.636111 7.822319-10.797769 27.065357 4.537226-36.870331 20.104137z" fill="#090d17" fill-opacity=".501961"/><path d="m180.525785 33.395211q5.487792 1.446841 47.606059-28.199627" fill="none" stroke="#1c3547" stroke-opacity=".501961" stroke-width=".5"/><path d="m101.837773 59.954602-56.537484 27.689843 16.890146-11.48301-8.058459 9.079657z" fill="#396074" fill-opacity=".501961"/><path d="m95.230895 87.533583-.588312 23.661651-8.13277-32.306729-.429493 27.109414z" fill="#0f2336" fill-opacity=".501961"/><ellipse fill="#0a1621" fill-opacity=".501961" rx="1" ry="1" transform="matrix(13.41782419 1.68538661 -.13519513 1.07632543 252.454073 32.272188)"/><ellipse cx="145" cy="58" fill="#2e4a63" fill-opacity=".501961" rx="2" ry="2"/><path d="m155.783637 112.317915-13.546525 5.169387-8.253275-.614112 20.649982-5.93211z" fill="#a1bbc2" fill-opacity=".501961"/><ellipse cx="62" cy="103" fill="#143144" fill-opacity=".501961" rx="8" ry="2"/><path d="m140 109h14v1h-14z" fill="#7694a3" fill-opacity=".501961"/><path d="m113 112h2v2h-2z" fill="#648a94" fill-opacity=".501961"/><ellipse fill="#162c3e" fill-opacity=".501961" rx="1" ry="1" transform="matrix(-.02341903 1.26816178 -31.14200732 -.57509678 232.634877 49.880859)"/><path d="m62 185-61-40 17-13z" fill="#020308" fill-opacity=".501961"/></g></svg>