<svg xmlns="http://www.w3.org/2000/svg" version="1.1" width="1024" height="680">
<rect x="0" y="0" width="1024" height="680" fill="#102435" />
<g transform="scale(4.000000) translate(0.5 0.5)">
<ellipse fill="#97bfc6" fill-opacity="0.501961" cx="134" cy="112" rx="90" ry="7" />
<g transform="translate(143.131594 47.995189) rotate(164.510782) scale(58.976283 7.726121)"><ellipse fill="#6f9eba" fill-opacity="0.501961" cx="0" cy="0" rx="1" ry="1" /></g>
<ellipse fill="#000000" fill-opacity="0.501961" cx="17" cy="169" rx="66" ry="66" />
<g transform="translate(239.899964 136.426431) rotate(297.717345) scale(159.017546 33.313055)"><ellipse fill="#000000" fill-opacity="0.501961" cx="0" cy="0" rx="1" ry="1" /></g>
<g transform="translate(14.230709 50.602657) rotate(374.015750) scale(27.744435 223.559032)"><ellipse fill="#000003" fill-opacity="0.501961" cx="0" cy="0" rx="1" ry="1" /></g>
<ellipse fill="#2b5476" fill-opacity="0.501961" cx="167" cy="31" rx="38" ry="38" />
<polygon fill="#467692" fill-opacity="0.501961" points="35.394998,88.371919,101.822728,78.419195,93.257366,63.820216,101.097434,56.416661" />
<rect fill="#cbe5e8" fill-opacity="0.501961" x="110" y="113" width="71" height="4" />
<polygon fill="#6b8f96" fill-opacity="0.501961" points="12.933148,93.631836,83.452383,114.557546,104.850051,121.199449,55.011617,114.881017" />
<g transform="translate(116.279907 83.915670) rotate(319.415554) scale(40.116393 23.766824)"><ellipse fill="#0b2541" fill-opacity="0.501961" cx="0" cy="0" rx="1" ry="1" /></g>
<rect fill="#8cafb7" fill-opacity="0.501961" x="180" y="114" width="58" height="3" />
<polygon fill="#7698a6" fill-opacity="0.501961" points="132,43 184,29 209,44" />
<g transform="translate(129.750657 165.267133) rotate(180.463562) scale(224.051003 19.338609)"><ellipse fill="#000611" fill-opacity="0.501961" cx="0" cy="0" rx="1" ry="1" /></g>
<g transform="translate(252.833963 0.000000) rotate(236.542405) scale(15.421356 51.266610)"><ellipse fill="#010007" fill-opacity="0.501961" cx="0" cy="0" rx="1" ry="1" /></g>
<polygon fill="#2c4d60" fill-opacity="0.501961" points="182.292772,111.547999,121.620968,110.507980,174.583777,92.212452,242.665976,116.588036" />
<g transform="translate(115.772901 35.091086) rotate(147.876324) scale(56.612125 11.437701)"><ellipse fill="#083357" fill-opacity="0.501961" cx="0" cy="0" rx="1" ry="1" /></g>
<polygon fill="#09253e" fill-opacity="0.501961" points="128,185 240,115 153,115" />
<g transform="translate(255 44) rotate(369) scale(40 10)"><rect fill="#467077" fill-opacity="0.501961" x="-0.5" y="-0.5" width="1" height="1" /></g>
<ellipse fill="#0f2844" fill-opacity="0.501961" cx="157" cy="77" rx="42" ry="31" />
<g transform="translate(247.751961 80.564808) rotate(281.845846) scale(28.802856 34.180427)"><ellipse fill="#050612" fill-opacity="0.501961" cx="0" cy="0" rx="1" ry="1" /></g>
<g transform="translate(121 51) rotate(160) scale(58 3)"><rect fill="#90b0b8" fill-opacity="0.501961" x="-0.5" y="-0.5" width="1" height="1" /></g>
<rect fill="#92b2ba" fill-opacity="0.501961" x="83" y="117" width="50" height="3" />
<rect fill="#30545d" fill-opacity="0.501961" x="64" y="103" width="27" height="9" />
<g transform="translate(119.427422 9.466304) rotate(133.659034) scale(69.648288 25.135502)"><ellipse fill="#072c4c" fill-opacity="0.501961" cx="0" cy="0" rx="1" ry="1" /></g>
<g transform="translate(49.803483 30.231743) rotate(101.541611) scale(55.451956 23.487742)"><ellipse fill="#01152c" fill-opacity="0.501961" cx="0" cy="0" rx="1" ry="1" /></g>
<polygon fill="#05192d" fill-opacity="0.501961" points="75,158 201,157 19,102" />
<g transform="translate(0.000000 130.605709) rotate(67.720688) scale(148.126772 34.527216)"><ellipse fill="#010108" fill-opacity="0.501961" cx="0" cy="0" rx="1" ry="1" /></g>
<polygon fill="#c5dde2" fill-opacity="0.501961" points="131,112 143,117 157,110" />
<g transform="translate(246 148) rotate(192) scale(39 58)"><rect fill="#000001" fill-opacity="0.501961" x="-0.5" y="-0.5" width="1" height="1" /></g>
<polygon fill="#1a344f" fill-opacity="0.501961" points="224,46 193,69 194,21" />
<rect fill="#0f2f4c" fill-opacity="0.501961" x="138" y="118" width="43" height="19" />
<rect fill="#87aab2" fill-opacity="0.501961" x="44" y="107" width="19" height="5" />
<ellipse fill="#133552" fill-opacity="0.501961" cx="168" cy="7" rx="37" ry="28" />
<polygon fill="#294a59" fill-opacity="0.501961" points="30.031067,83.616290,22.523551,101.801171,41.004671,108.605732,32.993731,97.959386" />
<g transform="translate(81 67) rotate(331) scale(50 1)"><rect fill="#668d9e" fill-opacity="0.501961" x="-0.5" y="-0.5" width="1" height="1" /></g>
<ellipse fill="#90aeb3" fill-opacity="0.501961" cx="107" cy="117" rx="33" ry="2" />
<polygon fill="#3f5d66" fill-opacity="0.501961" points="167.138460,115.640398,166.447605,104.454787,174.834824,96.000153,207.325768,107.865952" />
<g transform="translate(4.644358 6.644691) rotate(103.880766) scale(84.036968 13.619567)"><ellipse fill="#000003" fill-opacity="0.501961" cx="0" cy="0" rx="1" ry="1" /></g>
<ellipse fill="#9bb6bc" fill-opacity="0.501961" cx="173" cy="115" rx="46" ry="2" />
<polygon fill="#0d2136" fill-opacity="0.501961" points="148.769996,104.378013,157.815690,72.049385,86.293618,89.809523,85.606360,113.658007" />
<g transform="translate(94 111) rotate(12) scale(40 7)"><rect fill="#3a5b64" fill-opacity="0.501961" x="-0.5" y="-0.5" width="1" height="1" /></g>
<polygon fill="#08060f" fill-opacity="0.501961" points="236,40 229,6 218,42" />
<polygon fill="#071425" fill-opacity="0.501961" points="199.826906,120.745133,243.660959,115.276125,189.317901,183.111197,176.807466,147.743465" />
<rect fill="#05213a" fill-opacity="0.501961" x="78" y="119" width="68" height="14" />
<g transform="translate(199.368606 16.719219) rotate(121.253005) scale(2.072100 6.795766)"><ellipse fill="#5a726c" fill-opacity="0.501961" cx="0" cy="0" rx="1" ry="1" /></g>
<g transform="translate(69.330672 114.105895) rotate(105.603426) scale(1.225161 14.796873)"><ellipse fill="#99b4bc" fill-opacity="0.501961" cx="0" cy="0" rx="1" ry="1" /></g>
<polygon fill="#1b3b56" fill-opacity="0.501961" points="45.121267,86.429881,66.830385,81.428550,126.107411,49.204686,102.711322,88.534145" />
<polygon fill="#123653" fill-opacity="0.501961" points="74.590887,67.518226,120.517744,23.270725,159.951145,32.691690,129.222469,44.325268" />
<polygon fill="#0e1626" fill-opacity="0.501961" points="197.195390,34.270629,236.444637,37.575601,218.399549,9.763177,197.200258,29.415995" />
<polygon fill="#365763" fill-opacity="0.501961" points="51,104 81,101 92,117" />
<rect fill="#274857" fill-opacity="0.501961" x="235" y="24" width="14" height="25" />
<polygon fill="#040b19" fill-opacity="0.501961" points="3,99 60,115 66,173" />
<rect fill="#4f747c" fill-opacity="0.501961" x="26" y="101" width="22" height="4" />
<polygon fill="#7798a7" fill-opacity="0.501961" points="193.092405,33.855642,124.976337,50.403119,120.071137,47.795722,163.049696,36.240668" />
<rect fill="#2e4e68" fill-opacity="0.501961" x="154" y="43" width="58" height="5" />
<polygon fill="#081b2c" fill-opacity="0.501961" points="114.454235,105.808121,1.580429,98.763737,61.453352,90.067288,125.278791,91.864564" />
<polygon fill="#466d81" fill-opacity="0.501961" points="77.546889,70.238910,97.014287,76.415346,58.844874,80.207913,68.266858,72.315313" />
<ellipse fill="#c4dde1" fill-opacity="0.501961" cx="136" cy="112" rx="14" ry="1" />
<g transform="translate(140 109) rotate(5) scale(43 1)"><rect fill="#6d93a5" fill-opacity="0.501961" x="-0.5" y="-0.5" width="1" height="1" /></g>
<g transform="translate(28 73) rotate(336) scale(45 34)"><rect fill="#051222" fill-opacity="0.501961" x="-0.5" y="-0.5" width="1" height="1" /></g>
<g transform="translate(67.564177 44.605528) rotate(372.628465) scale(13.500687 28.264023)"><ellipse fill="#06233d" fill-opacity="0.501961" cx="0" cy="0" rx="1" ry="1" /></g>
<rect fill="#0f2c46" fill-opacity="0.501961" x="148" y="117" width="52" height="10" />
<g transform="translate(29 94) rotate(326) scale(18 1)"><rect fill="#366174" fill-opacity="0.501961" x="-0.5" y="-0.5" width="1" height="1" /></g>
<polygon fill="#2d4a55" fill-opacity="0.501961" points="201.202321,104.836778,212.192090,116.178822,224.299883,106.715804,222.870335,104.482490" />
<rect fill="#173b50" fill-opacity="0.501961" x="103" y="110" width="33" height="2" />
<rect fill="#224562" fill-opacity="0.501961" x="111" y="104" width="30" height="4" />
<g transform="translate(255 25) rotate(213) scale(13 31)"><rect fill="#081a24" fill-opacity="0.501961" x="-0.5" y="-0.5" width="1" height="1" /></g>
<rect fill="#8ca8b0" fill-opacity="0.501961" x="133" y="111" width="29" height="3" />
<g transform="translate(183 37) rotate(89) scale(7 16)"><rect fill="#7595a3" fill-opacity="0.501961" x="-0.5" y="-0.5" width="1" height="1" /></g>
<g transform="translate(74.788795 129.369590) rotate(112.114027) scale(10.611159 27.596341)"><ellipse fill="#071b2a" fill-opacity="0.501961" cx="0" cy="0" rx="1" ry="1" /></g>
<ellipse fill="#17304a" fill-opacity="0.501961" cx="167" cy="62" rx="34" ry="13" />
<polygon fill="#0b1c31" fill-opacity="0.501961" points="228.945851,112.131334,220.751352,47.070649,186.347528,105.808900,200.482187,96.509596" />
<g transform="translate(9.448207 169.000000) rotate(381.425823) scale(32.701077 22.505679)"><ellipse fill="#000000" fill-opacity="0.501961" cx="0" cy="0" rx="1" ry="1" /></g>
<g transform="translate(243.454571 5.798702) rotate(198.861423) scale(63.663149 14.120357)"><ellipse fill="#050e1b" fill-opacity="0.501961" cx="0" cy="0" rx="1" ry="1" /></g>
<polygon fill="#061422" fill-opacity="0.501961" points="53.512061,126.589149,16.236980,94.436563,15.178847,108.547455,44.634774,106.800530" />
<rect fill="#122e44" fill-opacity="0.501961" x="143" y="118" width="15" height="43" />
<g transform="translate(251 26) rotate(185) scale(34 3)"><rect fill="#214963" fill-opacity="0.501961" x="-0.5" y="-0.5" width="1" height="1" /></g>
<g transform="translate(165.320881 31.465723) rotate(346.525905) scale(37.389088 4.110253)"><ellipse fill="#1b3f5e" fill-opacity="0.501961" cx="0" cy="0" rx="1" ry="1" /></g>
<g transform="translate(176.853972 109.892496) rotate(81.578176) scale(2.597654 22.105066)"><ellipse fill="#44636d" fill-opacity="0.501961" cx="0" cy="0" rx="1" ry="1" /></g>
<rect fill="#55767d" fill-opacity="0.501961" x="209" y="113" width="18" height="4" />
<g transform="translate(48 86) rotate(159) scale(50 1)"><rect fill="#2f556a" fill-opacity="0.501961" x="-0.5" y="-0.5" width="1" height="1" /></g>
<polygon fill="#04172d" fill-opacity="0.501961" points="51,-16 108,4 48,32" />
<g transform="translate(117.260082 55.068428) rotate(251.753912) scale(1.000000 51.010036)"><ellipse fill="#4a7084" fill-opacity="0.501961" cx="0" cy="0" rx="1" ry="1" /></g>
<polygon fill="#4c6f85" fill-opacity="0.501961" points="190.169132,28.134910,200.673972,46.907008,152.677153,35.822688,188.676393,46.183884" />
<polygon fill="#0e2e47" fill-opacity="0.501961" points="85,62 120,45 65,40" />
<polygon fill="#8fadb6" fill-opacity="0.501961" points="49,112 50,107 57,108" />
<polygon fill="#0b223a" fill-opacity="0.501961" points="115,99 168,108 101,63" />
<g transform="translate(36.448105 56.623245) rotate(383.492111) scale(20.375801 18.373889)"><ellipse fill="#071a2b" fill-opacity="0.501961" cx="0" cy="0" rx="1" ry="1" /></g>
<rect fill="#688a90" fill-opacity="0.501961" x="35" y="103" width="9" height="3" />
<polygon fill="#0a2b48" fill-opacity="0.501961" points="127,38 153,-7 86,21" />
<polygon fill="#040a18" fill-opacity="0.501961" points="258,118 223,160 219,117" />
<rect fill="#19364b" fill-opacity="0.501961" x="181" y="116" width="20" height="3" />
<polygon fill="#020108" fill-opacity="0.501961" points="271,7 222,-16 266,26" />
<g transform="translate(87 107) rotate(169) scale(1 16)"><rect fill="#031426" fill-opacity="0.501961" x="-0.5" y="-0.5" width="1" height="1" /></g>
<polygon fill="#1a3751" fill-opacity="0.501961" points="168.697606,43.962012,199.223738,62.741167,200.483464,60.281510,106.220824,62.857209" />
<g transform="translate(250.424978 112.220741) rotate(354.139337) scale(17.082219 2.654787)"><ellipse fill="#142331" fill-opacity="0.501961" cx="0" cy="0" rx="1" ry="1" /></g>
<g transform="translate(70 114) rotate(276) scale(4 19)"><rect fill="#8eabb2" fill-opacity="0.501961" x="-0.5" y="-0.5" width="1" height="1" /></g>
<g transform="translate(255.000000 119.843220) rotate(97.261217) scale(104.176240 7.853863)"><ellipse fill="#010106" fill-opacity="0.501961" cx="0" cy="0" rx="1" ry="1" /></g>
<polygon fill="#102c47" fill-opacity="0.501961" points="158.125957,49.097728,110.245685,74.433807,80.760060,73.535800,92.618343,67.773998" />
<polygon fill="#040812" fill-opacity="0.501961" points="-5.179011,58.560635,-16.000000,167.220882,24.020149,115.202499,8.611368,32.143154" />
<polygon fill="#173247" fill-opacity="0.501961" points="167.022807,84.053651,174.357515,95.503651,191.140043,107.944315,210.649239,104.187609" />
<path stroke="#93afb6" stroke-opacity="0.501961" fill="none" d="M 155.713737 113.753753 Q 123.381103 123.062821, 71.458226 115.919666" stroke-width="0.500000" />
<ellipse fill="#adc5ca" fill-opacity="0.501961" cx="131" cy="45" rx="2" ry="2" />
<polygon fill="#20394c" fill-opacity="0.501961" points="255.348511,44.703011,271.000000,54.849419,189.176995,43.871194,205.288871,50.139964" />
<g transform="translate(120 115) rotate(266) scale(3 15)"><rect fill="#aec9cf" fill-opacity="0.501961" x="-0.5" y="-0.5" width="1" height="1" /></g>
<path stroke="#84a4b3" stroke-opacity="0.501961" fill="none" d="M 105.748992 54.789254 Q 139.100709 41.232223, 165.053258 36.922341" stroke-width="0.500000" />
<g transform="translate(192.898821 31.410431) rotate(235.818200) scale(2.417090 4.505894)"><ellipse fill="#48697b" fill-opacity="0.501961" cx="0" cy="0" rx="1" ry="1" /></g>
<rect fill="#4b6973" fill-opacity="0.501961" x="169" y="105" width="18" height="8" />
<polygon fill="#071d2c" fill-opacity="0.501961" points="42,88 72,104 21,97" />
<g transform="translate(216 2) rotate(157) scale(29 19)"><rect fill="#091d33" fill-opacity="0.501961" x="-0.5" y="-0.5" width="1" height="1" /></g>
<polygon fill="#2f4b59" fill-opacity="0.501961" points="187.212639,15.175789,209.391047,20.374221,187.317671,24.293141,188.796365,24.949035" />
<ellipse fill="#3c5e68" fill-opacity="0.501961" cx="241" cy="41" rx="5" ry="5" />
<polygon fill="#0c2037" fill-opacity="0.501961" points="121,64 106,109 163,76" />
<path stroke="#2b4658" stroke-opacity="0.501961" fill="none" d="M 112.666088 122.073797 Q 150.195651 100.762720, 191.792455 154.434118" stroke-width="0.500000" />
<rect fill="#93b0b5" fill-opacity="0.501961" x="90" y="116" width="18" height="2" />
<g transform="translate(53.018750 0.870032) rotate(125.039901) scale(62.541246 12.529419)"><ellipse fill="#091322" fill-opacity="0.501961" cx="0" cy="0" rx="1" ry="1" /></g>
<polygon fill="#07233d" fill-opacity="0.501961" points="68,11 121,-10 62,56" />
<ellipse fill="#132f47" fill-opacity="0.501961" cx="77" cy="83" rx="18" ry="4" />
<polygon fill="#14324b" fill-opacity="0.501961" points="150.086884,148.275061,176.302795,116.777621,130.905520,118.614000,149.618069,130.884958" />
<ellipse fill="#acc7cd" fill-opacity="0.501961" cx="147" cy="116" rx="12" ry="1" />
<polygon fill="#133758" fill-opacity="0.501961" points="114,48 183,25 174,1" />
<rect fill="#1c3d4a" fill-opacity="0.501961" x="42" y="105" width="8" height="3" />
<g transform="translate(78.343955 69.810102) rotate(243.042931) scale(1.334249 32.261931)"><ellipse fill="#587e8f" fill-opacity="0.501961" cx="0" cy="0" rx="1" ry="1" /></g>
<polygon fill="#1a354d" fill-opacity="0.501961" points="195.466820,29.709275,226.944497,51.050463,208.209692,48.635047,192.571771,33.307437" />
<polygon fill="#0a2033" fill-opacity="0.501961" points="207.772446,117.410047,159.671454,171.912458,147.008188,160.515930,165.522622,132.561403" />
<polygon fill="#082033" fill-opacity="0.501961" points="150.802485,125.433214,140.118338,161.394048,166.597913,162.035901,89.762422,146.218512" />
<polygon fill="#0e2138" fill-opacity="0.501961" points="224.288125,70.222582,193.308959,100.269146,191.469686,49.259908,212.986132,58.293648" />
<rect fill="#afc9ce" fill-opacity="0.501961" x="140" y="115" width="61" height="1" />
<g transform="translate(102 115) rotate(189) scale(24 1)"><rect fill="#476870" fill-opacity="0.501961" x="-0.5" y="-0.5" width="1" height="1" /></g>
<polygon fill="#090f1c" fill-opacity="0.501961" points="218,102 236,54 259,49" />
<path stroke="#0d2233" stroke-opacity="0.501961" fill="none" d="M 95.947498 185.000000 Q 97.485895 120.549341, 92.465767 101.781016" stroke-width="0.500000" />
<path stroke="#314e57" stroke-opacity="0.501961" fill="none" d="M 224.398163 115.100610 Q 259.875087 116.752969, 271.000000 106.633939" stroke-width="0.500000" />
<rect fill="#051120" fill-opacity="0.501961" x="74" y="159" width="71" height="11" />
<rect fill="#b0c9cf" fill-opacity="0.501961" x="124" y="112" width="24" height="3" />
<g transform="translate(62 109) rotate(214) scale(19 1)"><rect fill="#51727b" fill-opacity="0.501961" x="-0.5" y="-0.5" width="1" height="1" /></g>
<g transform="translate(197.826562 145.083710) rotate(320.818969) scale(45.325982 6.602182)"><ellipse fill="#081727" fill-opacity="0.501961" cx="0" cy="0" rx="1" ry="1" /></g>
<g transform="translate(0.097040 10.997746) rotate(107.885722) scale(43.358939 6.907964)"><ellipse fill="#000001" fill-opacity="0.501961" cx="0" cy="0" rx="1" ry="1" /></g>
<polygon fill="#090d17" fill-opacity="0.501961" points="236,40 232,7 216,14" />
<ellipse fill="#406881" fill-opacity="0.501961" cx="156" cy="34" rx="2" ry="2" />
<g transform="translate(194.330930 108.065368) rotate(279.172758) scale(3.001416 28.606554)"><ellipse fill="#395660" fill-opacity="0.501961" cx="0" cy="0" rx="1" ry="1" /></g>
<polygon fill="#0f2741" fill-opacity="0.501961" points="144.676690,61.255033,161.319319,57.932727,193.059170,79.356877,158.396340,106.632675" />
<ellipse fill="#67878e" fill-opacity="0.501961" cx="179" cy="113" rx="29" ry="1" />
<g transform="translate(51.704315 103.389420) rotate(281.377312) scale(1.000000 19.456146)"><ellipse fill="#214351" fill-opacity="0.501961" cx="0" cy="0" rx="1" ry="1" /></g>
<polygon fill="#3d5d6c" fill-opacity="0.501961" points="42.800631,85.076406,25.167779,97.712426,91.752705,123.479212,21.714603,96.262714" />
<rect fill="#436670" fill-opacity="0.501961" x="95" y="104" width="2" height="12" />
<rect fill="#234859" fill-opacity="0.501961" x="233" y="143" width="3" height="3" />
<ellipse fill="#57747f" fill-opacity="0.501961" cx="205" cy="116" rx="19" ry="1" />
<polygon fill="#5c7d8f" fill-opacity="0.501961" points="180.774467,36.686253,200.122046,41.256896,177.053709,43.482457,202.899599,23.567844" />
<polygon fill="#0e1929" fill-opacity="0.501961" points="225.415543,20.782950,199.628897,25.869801,239.781088,57.800168,223.753603,66.061321" />
<ellipse fill="#1a394c" fill-opacity="0.501961" cx="120" cy="110" rx="28" ry="1" />
<path stroke="#081829" stroke-opacity="0.501961" fill="none" d="M 93.004622 85.734783 Q 89.529969 104.128571, 95.747530 114.535581" stroke-width="0.500000" />
<polygon fill="#06101f" fill-opacity="0.501961" points="15,97 12,58 44,83" />
<ellipse fill="#31505c" fill-opacity="0.501961" cx="72" cy="108" rx="5" ry="5" />
<ellipse fill="#537581" fill-opacity="0.501961" cx="113" cy="119" rx="9" ry="1" />
<polygon fill="#102e48" fill-opacity="0.501961" points="149,3 202,-16 179,7" />
<polygon fill="#4b6e82" fill-opacity="0.501961" points="148.560726,53.333832,151.170758,50.113919,134.045849,47.216263,155.747175,41.154981" />
<polygon fill="#2d4f5a" fill-opacity="0.501961" points="23,102 26,96 31,102" />
<polygon fill="#0b1e2b" fill-opacity="0.501961" points="254,29 239,28 259,43" />
<polygon fill="#061a2f" fill-opacity="0.501961" points="41,22 40,83 60,76" />
<polygon fill="#41616b" fill-opacity="0.501961" points="73.189123,106.230860,79.335358,115.326699,86.299420,112.606854,85.615518,104.445344" />
<g transform="translate(163 112) rotate(29) scale(11 1)"><rect fill="#50747f" fill-opacity="0.501961" x="-0.5" y="-0.5" width="1" height="1" /></g>
<rect fill="#2a4762" fill-opacity="0.501961" x="168" y="45" width="20" height="7" />
<polygon fill="#7896a6" fill-opacity="0.501961" points="188,32 181,35 187,40" />
<g transform="translate(51 112) rotate(202) scale(7 1)"><rect fill="#6b8d94" fill-opacity="0.501961" x="-0.5" y="-0.5" width="1" height="1" /></g>
<g transform="translate(200.573768 19.196712) rotate(136.760948) scale(2.533988 5.994400)"><ellipse fill="#485e5d" fill-opacity="0.501961" cx="0" cy="0" rx="1" ry="1" /></g>
<polygon fill="#0e2840" fill-opacity="0.501961" points="193.870470,130.254376,173.353853,115.701216,145.040176,145.761905,168.359065,138.545674" />
<polygon fill="#18314a" fill-opacity="0.501961" points="212,47 174,56 180,81" />
<polygon fill="#0f2235" fill-opacity="0.501961" points="140.360750,87.090555,98.483303,96.332777,101.228583,118.371238,90.376743,87.195866" />
<rect fill="#0a1221" fill-opacity="0.501961" x="224" y="72" width="12" height="40" />
<g transform="translate(181 113) rotate(214) scale(11 1)"><rect fill="#577880" fill-opacity="0.501961" x="-0.5" y="-0.5" width="1" height="1" /></g>
<path stroke="#81a1a8" stroke-opacity="0.501961" fill="none" d="M 131.824684 111.125635 Q 119.876494 116.677540, 110.299438 112.084197" stroke-width="0.500000" />
<path stroke="#5f8495" stroke-opacity="0.501961" fill="none" d="M 38.714753 89.140561 Q 92.818715 60.039646, 130.593516 45.933900" stroke-width="0.500000" />
<ellipse fill="#99b6bb" fill-opacity="0.501961" cx="116" cy="118" rx="12" ry="1" />
<ellipse fill="#33535d" fill-opacity="0.501961" cx="221" cy="113" rx="8" ry="2" />
<g transform="translate(174.739524 114.378918) rotate(388.255260) scale(2.287247 2.772497)"><ellipse fill="#67868f" fill-opacity="0.501961" cx="0" cy="0" rx="1" ry="1" /></g>
<rect fill="#346277" fill-opacity="0.501961" x="84" y="143" width="2" height="4" />
<polygon fill="#395c70" fill-opacity="0.501961" points="122.637155,107.719402,135.665787,104.951240,96.957324,116.733064,126.550153,104.005813" />
<polygon fill="#0a1421" fill-opacity="0.501961" points="271.000000,23.572138,202.175991,22.903153,234.330684,46.316876,231.189551,12.293043" />
<rect fill="#1f3f4f" fill-opacity="0.501961" x="69" y="102" width="22" height="2" />
<path stroke="#486773" stroke-opacity="0.501961" fill="none" d="M 102.984432 109.737007 Q 81.612598 127.044839, 50.294879 110.029276" stroke-width="0.500000" />
<g transform="translate(152 106) rotate(268) scale(1 24)"><rect fill="#0a233f" fill-opacity="0.501961" x="-0.5" y="-0.5" width="1" height="1" /></g>
<path stroke="#83a3b1" stroke-opacity="0.501961" fill="none" d="M 101.867040 57.506921 Q 102.969864 55.079062, 137.322781 42.844651" stroke-width="0.500000" />
<polygon fill="#27526f" fill-opacity="0.501961" points="126,44 129,40 136,40" />
<polygon fill="#2f4d59" fill-opacity="0.501961" points="235.252513,42.498044,232.001574,50.305691,269.116344,42.681662,259.228095,41.101673" />
<ellipse fill="#051421" fill-opacity="0.501961" cx="34" cy="97" rx="10" ry="2" />
<rect fill="#426874" fill-opacity="0.501961" x="100" y="105" width="2" height="6" />
<polygon fill="#163856" fill-opacity="0.501961" points="188.158441,8.241350,155.379484,36.460792,181.891345,32.658624,135.645428,12.434748" />
<ellipse fill="#3c6078" fill-opacity="0.501961" cx="194" cy="36" rx="3" ry="2" />
<g transform="translate(149.689979 48.875099) rotate(171.421337) scale(22.687936 1.415496)"><ellipse fill="#2b4e66" fill-opacity="0.501961" cx="0" cy="0" rx="1" ry="1" /></g>
<polygon fill="#061624" fill-opacity="0.501961" points="90.827848,130.245381,70.389489,166.640639,81.475250,120.877226,91.632496,172.061120" />
<g transform="translate(93 101) rotate(90) scale(20 2)"><rect fill="#071628" fill-opacity="0.501961" x="-0.5" y="-0.5" width="1" height="1" /></g>
<polygon fill="#0d1e2f" fill-opacity="0.501961" points="205.492737,90.453455,237.963163,115.265144,220.572010,110.115911,220.550635,45.862145" />
<ellipse fill="#9cbbbf" fill-opacity="0.501961" cx="90" cy="117" rx="2" ry="2" />
<polygon fill="#0a1c2f" fill-opacity="0.501961" points="99.111440,84.240624,111.133750,109.260861,96.007058,104.252041,96.283165,98.983481" />
<ellipse fill="#55737a" fill-opacity="0.501961" cx="199" cy="112" rx="15" ry="2" />
<path stroke="#42687e" stroke-opacity="0.501961" fill="none" d="M 114.364232 109.122428 Q 162.984515 104.100381, 171.288475 113.003176" stroke-width="0.500000" />
<polygon fill="#67889a" fill-opacity="0.501961" points="185,43 181,30 191,35" />
<ellipse fill="#0e2740" fill-opacity="0.501961" cx="113" cy="75" rx="10" ry="10" />
<g transform="translate(77 116) rotate(285) scale(2 10)"><rect fill="#98b6bd" fill-opacity="0.501961" x="-0.5" y="-0.5" width="1" height="1" /></g>
<ellipse fill="#4f6f78" fill-opacity="0.501961" cx="85" cy="115" rx="3" ry="3" />
<polygon fill="#102837" fill-opacity="0.501961" points="250.521696,33.034540,258.946051,25.322477,232.780887,30.063053,250.478708,40.619316" />
<polygon fill="#071a2d" fill-opacity="0.501961" points="42.683430,98.305289,72.294238,84.071629,75.605486,102.482473,39.142493,91.546485" />
<ellipse fill="#1d3e5a" fill-opacity="0.501961" cx="185" cy="15" rx="4" ry="18" />
<rect fill="#092136" fill-opacity="0.501961" x="185" y="117" width="31" height="14" />
<polygon fill="#0d2e4a" fill-opacity="0.501961" points="83.871773,56.893872,95.007237,59.571711,151.271896,22.010945,92.770922,13.201041" />
<ellipse fill="#5a7b82" fill-opacity="0.501961" cx="239" cy="115" rx="1" ry="1" />
<g transform="translate(21 6) rotate(290) scale(65 10)"><rect fill="#060b18" fill-opacity="0.501961" x="-0.5" y="-0.5" width="1" height="1" /></g>
<path stroke="#91afb5" stroke-opacity="0.501961" fill="none" d="M 146.895690 116.384853 Q 119.668487 119.733507, 109.491963 111.634172" stroke-width="0.500000" />
<g transform="translate(153 41) rotate(164) scale(18 5)"><rect fill="#7193a6" fill-opacity="0.501961" x="-0.5" y="-0.5" width="1" height="1" /></g>
<g transform="translate(251.547544 169.000000) rotate(221.784989) scale(16.103612 50.609862)"><ellipse fill="#010001" fill-opacity="0.501961" cx="0" cy="0" rx="1" ry="1" /></g>
<g transform="translate(199 19) rotate(158) scale(1 11)"><rect fill="#506766" fill-opacity="0.501961" x="-0.5" y="-0.5" width="1" height="1" /></g>
<polygon fill="#04040c" fill-opacity="0.501961" points="244.864983,78.777783,271.000000,28.083094,241.600225,108.978378,256.045137,103.180055" />
<g transform="translate(91 110) rotate(251) scale(11 1)"><rect fill="#4e7178" fill-opacity="0.501961" x="-0.5" y="-0.5" width="1" height="1" /></g>
<rect fill="#0b263f" fill-opacity="0.501961" x="125" y="121" width="23" height="19" />
<g transform="translate(101.792984 104.875371) rotate(339.813846) scale(1.000000 9.397036)"><ellipse fill="#0f273a" fill-opacity="0.501961" cx="0" cy="0" rx="1" ry="1" /></g>
<path stroke="#5d7e87" stroke-opacity="0.501961" fill="none" d="M 130.156504 110.749173 Q 113.868948 115.586682, 94.839341 115.411803" stroke-width="0.500000" />
<g transform="translate(104 56) rotate(232) scale(1 7)"><rect fill="#8ea8b1" fill-opacity="0.501961" x="-0.5" y="-0.5" width="1" height="1" /></g>
<ellipse fill="#0b1b2a" fill-opacity="0.501961" cx="255" cy="112" rx="28" ry="2" />
<ellipse fill="#5d7c84" fill-opacity="0.501961" cx="38" cy="105" rx="2" ry="2" />
<path stroke="#264760" stroke-opacity="0.501961" fill="none" d="M 214.534132 14.011358 Q 201.948653 27.566658, 141.557283 40.709323" stroke-width="0.500000" />
<g transform="translate(102.511250 127.896305) rotate(15.805875) scale(34.220166 4.059952)"><ellipse fill="#092134" fill-opacity="0.501961" cx="0" cy="0" rx="1" ry="1" /></g>
<rect fill="#84a3ad" fill-opacity="0.501961" x="51" y="107" width="8" height="5" />
<path stroke="#496875" stroke-opacity="0.501961" fill="none" d="M 114.683261 123.715311 Q 131.712243 113.282753, 136.177247 115.990209" stroke-width="0.500000" />
<g transform="translate(196 15) rotate(32) scale(9 1)"><rect fill="#587073" fill-opacity="0.501961" x="-0.5" y="-0.5" width="1" height="1" /></g>
<polygon fill="#03060f" fill-opacity="0.501961" points="27,156 -7,86 80,183" />
<polygon fill="#050c17" fill-opacity="0.501961" points="26.563207,146.699092,106.253821,185.000000,118.944081,185.000000,63.029435,146.806986" />
<polygon fill="#112b43" fill-opacity="0.501961" points="147.420768,104.501777,164.938344,72.198104,164.195199,114.734853,165.858964,107.793148" />
<polygon fill="#050b15" fill-opacity="0.501961" points="4.299453,26.299919,12.484718,97.842218,39.563736,108.635932,7.720486,121.662512" />
<polygon fill="#091a28" fill-opacity="0.501961" points="43.645143,111.120278,70.195974,117.728126,64.475184,154.606593,91.517906,152.258086" />
<g transform="translate(136 117) rotate(173) scale(7 1)"><rect fill="#b8d5d8" fill-opacity="0.501961" x="-0.5" y="-0.5" width="1" height="1" /></g>
<polygon fill="#486e81" fill-opacity="0.501961" points="127.004069,48.130633,133.214549,51.158633,109.815026,56.999098,69.355008,73.812626" />
<polygon fill="#2e546d" fill-opacity="0.501961" points="79.063693,67.704810,97.267258,77.492077,97.664427,78.492430,74.364995,78.785726" />
<g transform="translate(99 66) rotate(78) scale(1 25)"><rect fill="#193a55" fill-opacity="0.501961" x="-0.5" y="-0.5" width="1" height="1" /></g>
<g transform="translate(48 106) rotate(255) scale(5 8)"><rect fill="#365a66" fill-opacity="0.501961" x="-0.5" y="-0.5" width="1" height="1" /></g>
<polygon fill="#103451" fill-opacity="0.501961" points="100.938644,34.412671,135.576274,35.378410,123.663892,46.012216,102.242395,55.455527" />
<ellipse fill="#0e2a3c" fill-opacity="0.501961" cx="53" cy="103" rx="3" ry="3" />
<polygon fill="#112a3f" fill-opacity="0.501961" points="184.324434,87.032428,224.559085,106.710832,185.554015,101.014855,192.649772,54.348454" />
<rect fill="#b3cad1" fill-opacity="0.501961" x="144" y="114" width="20" height="2" />
<polygon fill="#41656c" fill-opacity="0.501961" points="237,42 248,40 238,39" />
<rect fill="#09273f" fill-opacity="0.501961" x="99" y="120" width="36" height="7" />
<g transform="translate(136 44) rotate(162) scale(17 1)"><rect fill="#91adb7" fill-opacity="0.501961" x="-0.5" y="-0.5" width="1" height="1" /></g>
<polygon fill="#1e3a53" fill-opacity="0.501961" points="179.151690,70.223599,167.963691,50.169726,200.894282,45.553526,171.572674,68.146346" />
<ellipse fill="#1e3a52" fill-opacity="0.501961" cx="125" cy="104" rx="8" ry="2" />
<path stroke="#123552" stroke-opacity="0.501961" fill="none" d="M 33.559685 89.831493 Q 167.871836 23.832676, 177.442470 -16.000000" stroke-width="0.500000" />
<rect fill="#081f2e" fill-opacity="0.501961" x="235" y="17" width="9" height="7" />
<polygon fill="#122d47" fill-opacity="0.501961" points="126.044533,53.881953,108.248604,65.690829,195.774092,71.984170,127.791404,59.852211" />
<polygon fill="#091929" fill-opacity="0.501961" points="228.855796,114.793033,133.424000,185.000000,136.176628,142.792591,159.643162,183.945424" />
<path stroke="#1e405a" stroke-opacity="0.501961" fill="none" d="M 114.379543 48.848225 Q 218.030093 18.482098, 223.772725 6.474823" stroke-width="0.500000" />
<g transform="translate(168 40) rotate(-13) scale(27 2)"><rect fill="#5d8195" fill-opacity="0.501961" x="-0.5" y="-0.5" width="1" height="1" /></g>
<g transform="translate(141 111) rotate(182) scale(18 1)"><rect fill="#6e8c94" fill-opacity="0.501961" x="-0.5" y="-0.5" width="1" height="1" /></g>
<ellipse fill="#10202c" fill-opacity="0.501961" cx="247" cy="52" rx="12" ry="3" />
<polygon fill="#24465d" fill-opacity="0.501961" points="43.653558,87.814851,81.047457,73.580131,52.885281,88.029763,53.226388,89.240442" />
<ellipse fill="#8daab3" fill-opacity="0.501961" cx="156" cy="111" rx="2" ry="2" />
<g transform="translate(230.905077 32.010354) rotate(91.117278) scale(13.424464 3.073287)"><ellipse fill="#080c17" fill-opacity="0.501961" cx="0" cy="0" rx="1" ry="1" /></g>
<polygon fill="#12263c" fill-opacity="0.501961" points="167.647390,104.210650,230.468254,46.545142,190.360080,20.330313,220.835320,46.096963" />
<g transform="translate(159.699269 111.162977) rotate(58.444338) scale(1.291321 5.184828)"><ellipse fill="#5d818c" fill-opacity="0.501961" cx="0" cy="0" rx="1" ry="1" /></g>
<g transform="translate(253 40) rotate(106) scale(1 34)"><rect fill="#193c4c" fill-opacity="0.501961" x="-0.5" y="-0.5" width="1" height="1" /></g>
<polygon fill="#233f4c" fill-opacity="0.501961" points="205.730798,101.582840,181.589958,101.109680,195.866234,107.804954,211.058964,110.104494" />
<polygon fill="#092742" fill-opacity="0.501961" points="117,28 85,18 72,47" />
<g transform="translate(173 45) rotate(188) scale(21 1)"><rect fill="#395c74" fill-opacity="0.501961" x="-0.5" y="-0.5" width="1" height="1" /></g>
<polygon fill="#122f48" fill-opacity="0.501961" points="180.740033,116.243926,179.413833,122.564274,179.962680,131.565994,166.386709,120.621797" />
<polygon fill="#061e35" fill-opacity="0.501961" points="56.038033,66.964805,80.451381,64.843795,51.322759,81.265939,50.475792,16.428525" />
<polygon fill="#070d19" fill-opacity="0.501961" points="131.618496,168.659485,188.120792,184.293565,220.384449,152.450959,155.512396,172.576566" />
<polygon fill="#0a263e" fill-opacity="0.501961" points="63,23 82,61 67,71" />
<path stroke="#2e536b" stroke-opacity="0.501961" fill="none" d="M 80.948318 68.355370 Q 102.749831 64.687971, 157.720665 42.515834" stroke-width="0.500000" />
<path stroke="#081725" stroke-opacity="0.501961" fill="none" d="M 104.945886 185.000000 Q 41.105717 107.932231, 40.141794 104.815151" stroke-width="0.500000" />
<ellipse fill="#a7c3c9" fill-opacity="0.501961" cx="117" cy="116" rx="3" ry="3" />
<polygon fill="#203e53" fill-opacity="0.501961" points="165,102 168,96 185,94" />
<g transform="translate(154.612898 122.919594) rotate(49.508085) scale(4.820020 7.776598)"><ellipse fill="#1b3a53" fill-opacity="0.501961" cx="0" cy="0" rx="1" ry="1" /></g>
<ellipse fill="#203b46" fill-opacity="0.501961" cx="241" cy="114" rx="8" ry="1" />
<polygon fill="#0d2941" fill-opacity="0.501961" points="191.745346,-15.464975,214.245913,-11.808968,198.959363,13.787914,195.808692,10.850538" />
<polygon fill="#183a57" fill-opacity="0.501961" points="173,-5 147,13 141,35" />
<ellipse fill="#84a1aa" fill-opacity="0.501961" cx="65" cy="113" rx="3" ry="3" />
<polygon fill="#051a2f" fill-opacity="0.501961" points="127,129 82,147 109,125" />
<ellipse fill="#557481" fill-opacity="0.501961" cx="193" cy="116" rx="16" ry="1" />
<polygon fill="#18354e" fill-opacity="0.501961" points="79,89 70,79 102,80" />
<rect fill="#32515c" fill-opacity="0.501961" x="66" y="107" width="8" height="5" />
<path stroke="#5a7b84" stroke-opacity="0.501961" fill="none" d="M 46.086208 105.144398 Q 50.845177 119.573888, 63.735474 108.783873" stroke-width="0.500000" />
<polygon fill="#0b2039" fill-opacity="0.501961" points="118,94 139,105 165,79" />
<polygon fill="#07192c" fill-opacity="0.501961" points="35.164593,58.373779,50.623465,38.523653,82.580665,0.568368,32.090674,35.221176" />
<ellipse fill="#2a4a55" fill-opacity="0.501961" cx="89" cy="114" rx="2" ry="2" />
<polygon fill="#0b2437" fill-opacity="0.501961" points="104.419281,152.144363,90.388793,122.538179,109.656041,119.084590,102.916436,126.724093" />
<rect fill="#183a55" fill-opacity="0.501961" x="78" y="44" width="10" height="3" />
<polygon fill="#0c253c" fill-opacity="0.501961" points="60.128534,84.496731,78.884141,80.371838,43.558506,90.380843,71.396681,94.319220" />
<rect fill="#0a1322" fill-opacity="0.501961" x="217" y="0" width="17" height="8" />
<path stroke="#153041" stroke-opacity="0.501961" fill="none" d="M 41.992817 107.420295 Q 65.050445 98.623495, 97.032358 103.649416" stroke-width="0.500000" />
<g transform="translate(66 107) rotate(167) scale(11 2)"><rect fill="#31515c" fill-opacity="0.501961" x="-0.5" y="-0.5" width="1" height="1" /></g>
<ellipse fill="#071725" fill-opacity="0.501961" cx="108" cy="159" rx="32" ry="6" />
<polygon fill="#090d17" fill-opacity="0.501961" points="236.112324,63.636111,243.934643,52.838342,271.000000,57.375568,234.129669,77.479705" />
<path stroke="#1c3547" stroke-opacity="0.501961" fill="none" d="M 180.525785 33.395211 Q 186.013577 34.842052, 228.131844 5.195584" stroke-width="0.500000" />
<polygon fill="#396074" fill-opacity="0.501961" points="101.837773,59.954602,45.300289,87.644445,62.190435,76.161435,54.131976,85.241092" />
<polygon fill="#0f2336" fill-opacity="0.501961" points="95.230895,87.533583,94.642583,111.195234,86.509813,78.888505,86.080320,105.997919" />
<g transform="translate(252.454073 32.272188) rotate(7.159316) scale(13.523259 1.084783)"><ellipse fill="#0a1621" fill-opacity="0.501961" cx="0" cy="0" rx="1" ry="1" /></g>
<ellipse fill="#2e4a63" fill-opacity="0.501961" cx="145" cy="58" rx="2" ry="2" />
<polygon fill="#a1bbc2" fill-opacity="0.501961" points="155.783637,112.317915,142.237112,117.487302,133.983837,116.873190,154.633819,110.941080" />
<ellipse fill="#143144" fill-opacity="0.501961" cx="62" cy="103" rx="8" ry="2" />
<rect fill="#7694a3" fill-opacity="0.501961" x="140" y="109" width="14" height="1" />
<rect fill="#648a94" fill-opacity="0.501961" x="113" y="112" width="2" height="2" />
<g transform="translate(232.634877 49.880859) rotate(91.057956) scale(1.268378 31.147317)"><ellipse fill="#162c3e" fill-opacity="0.501961" cx="0" cy="0" rx="1" ry="1" /></g>
<polygon fill="#020308" fill-opacity="0.501961" points="62,185 1,145 18,132" />
</g>
</svg>