<svg xmlns="http://www.w3.org/2000/svg" version="1.1" width="1024" height="680">
<rect x="0" y="0" width="1024" height="680" fill="#442a4c" />
<g transform="scale(4.000000) translate(0.5 0.5)">
<g transform="translate(148.414466 86.206900) rotate(271.948054) scale(26.941483 120.630040)"><ellipse fill="#ca8cd3" fill-opacity="0.501961" cx="0" cy="0" rx="1" ry="1" /></g>
<ellipse fill="#000000" fill-opacity="0.501961" cx="173" cy="0" rx="124" ry="44" />
<polygon fill="#b2ffff" fill-opacity="0.501961" points="101,73 -14,65 65,46" />
<polygon fill="#ffd3f2" fill-opacity="0.501961" points="227,90 173,73 105,103" />
<g transform="translate(43.950714 108.084401) rotate(264.470150) scale(7.179233 88.009587)"><ellipse fill="#ff57a8" fill-opacity="0.501961" cx="0" cy="0" rx="1" ry="1" /></g>
<polygon fill="#000000" fill-opacity="0.501961" points="14,68 -16,96 93,87" />
<g transform="translate(233.300557 151.573217) rotate(133.321117) scale(76.097780 26.699691)"><ellipse fill="#000000" fill-opacity="0.501961" cx="0" cy="0" rx="1" ry="1" /></g>
<ellipse fill="#2e0012" fill-opacity="0.501961" cx="31" cy="151" rx="152" ry="36" />
<rect fill="#000714" fill-opacity="0.501961" x="94" y="0" width="77" height="68" />
<g transform="translate(18.648070 8.450113) rotate(20.118527) scale(60.190245 2.662195)"><ellipse fill="#ffffff" fill-opacity="0.501961" cx="0" cy="0" rx="1" ry="1" /></g>
<ellipse fill="#000000" fill-opacity="0.501961" cx="204" cy="0" rx="181" ry="32" />
<ellipse fill="#630947" fill-opacity="0.501961" cx="169" cy="122" rx="107" ry="22" />
<g transform="translate(79.951948 125.419630) rotate(256.376665) scale(4.389592 90.350936)"><ellipse fill="#c72d9d" fill-opacity="0.501961" cx="0" cy="0" rx="1" ry="1" /></g>
<rect fill="#00507d" fill-opacity="0.501961" x="15" y="30" width="86" height="29" />
<polygon fill="#fff9ff" fill-opacity="0.501961" points="208,57 230,41 205,46" />
<rect fill="#000007" fill-opacity="0.501961" x="230" y="0" width="26" height="76" />
<rect fill="#000012" fill-opacity="0.501961" x="99" y="82" width="55" height="7" />
<g transform="translate(106.029415 40.033592) rotate(200.325728) scale(106.946684 1.000000)"><ellipse fill="#eeffff" fill-opacity="0.501961" cx="0" cy="0" rx="1" ry="1" /></g>
<polygon fill="#ffffff" fill-opacity="0.501961" points="65.059203,52.601875,52.290658,78.178586,58.003108,82.971425,78.718824,60.715805" />
<g transform="translate(16.807039 22.622581) rotate(189.925671) scale(41.110731 10.472718)"><ellipse fill="#00000f" fill-opacity="0.501961" cx="0" cy="0" rx="1" ry="1" /></g>
<ellipse fill="#ff9bcb" fill-opacity="0.501961" cx="109" cy="97" rx="43" ry="7" />
<polygon fill="#ffe9f7" fill-opacity="0.501961" points="132.246411,133.625805,45.765674,169.180456,42.298017,175.032025,125.785080,137.284821" />
<rect fill="#00597b" fill-opacity="0.501961" x="153" y="40" width="38" height="33" />
<g transform="translate(46.196094 150.764706) rotate(71.839803) scale(7.505856 135.010766)"><ellipse fill="#000000" fill-opacity="0.501961" cx="0" cy="0" rx="1" ry="1" /></g>
<polygon fill="#f8abe2" fill-opacity="0.501961" points="135,77 242,84 207,107" />
<polygon fill="#8a46ac" fill-opacity="0.501961" points="205,127 221,56 271,77" />
<g transform="translate(119.683186 110.843922) rotate(163.884927) scale(50.231440 4.680307)"><ellipse fill="#290030" fill-opacity="0.501961" cx="0" cy="0" rx="1" ry="1" /></g>
<polygon fill="#ffffff" fill-opacity="0.501961" points="88,87 85,77 107,74" />
<rect fill="#02081a" fill-opacity="0.501961" x="2" y="74" width="78" height="17" />
<g transform="translate(6.912556 126.883803) rotate(355.982803) scale(37.485864 16.735150)"><ellipse fill="#1a000f" fill-opacity="0.501961" cx="0" cy="0" rx="1" ry="1" /></g>
<polygon fill="#070a35" fill-opacity="0.501961" points="95.200617,36.929502,112.548079,44.364720,110.405124,87.107807,74.758790,34.699062" />
<polygon fill="#fb89b4" fill-opacity="0.501961" points="98.865199,147.562944,149.935452,124.778553,156.515462,116.995280,218.885129,97.485129" />
<g transform="translate(130.280547 114.579776) rotate(255.402777) scale(1.786194 142.299961)"><ellipse fill="#f263b3" fill-opacity="0.501961" cx="0" cy="0" rx="1" ry="1" /></g>
<g transform="translate(57.037662 158.786861) rotate(338.595706) scale(182.715392 1.000000)"><ellipse fill="#dc298a" fill-opacity="0.501961" cx="0" cy="0" rx="1" ry="1" /></g>
<polygon fill="#ffe3f1" fill-opacity="0.501961" points="147.076776,95.041706,45.130096,102.494790,-16.000000,109.884859,137.828387,98.408803" />
<polygon fill="#f6f4ff" fill-opacity="0.501961" points="61.753993,55.964284,53.780403,80.559360,90.796746,58.710957,66.635605,58.221190" />
<ellipse fill="#a5a3db" fill-opacity="0.501961" cx="141" cy="76" rx="52" ry="5" />
<g transform="translate(127.844172 143.617973) rotate(63.557268) scale(5.383746 79.705064)"><ellipse fill="#050009" fill-opacity="0.501961" cx="0" cy="0" rx="1" ry="1" /></g>
<g transform="translate(167.282680 140.128465) rotate(139.110519) scale(45.721688 6.102331)"><ellipse fill="#910059" fill-opacity="0.501961" cx="0" cy="0" rx="1" ry="1" /></g>
<rect fill="#f80059" fill-opacity="0.501961" x="14" y="93" width="54" height="3" />
<g transform="translate(236.802098 150.456285) rotate(125.539196) scale(39.098187 26.512624)"><ellipse fill="#0d030c" fill-opacity="0.501961" cx="0" cy="0" rx="1" ry="1" /></g>
<polygon fill="#000920" fill-opacity="0.501961" points="31,15 129,50 77,50" />
<rect fill="#fffef7" fill-opacity="0.501961" x="153" y="90" width="64" height="6" />
<polygon fill="#d1c2ee" fill-opacity="0.501961" points="225.065680,87.591410,219.064088,45.212894,205.043692,49.663354,227.985371,59.277915" />
<g transform="translate(25.142992 111.911033) rotate(357.034489) scale(71.450932 5.066961)"><ellipse fill="#ce1a70" fill-opacity="0.501961" cx="0" cy="0" rx="1" ry="1" /></g>
<polygon fill="#03000e" fill-opacity="0.501961" points="218.971036,83.345063,271.000000,37.243084,210.637814,-15.286067,243.459871,80.933094" />
<polygon fill="#00000a" fill-opacity="0.501961" points="-6,36 -16,-3 28,13" />
<g transform="translate(40 15) rotate(21) scale(220 1)"><rect fill="#ffffff" fill-opacity="0.501961" x="-0.5" y="-0.5" width="1" height="1" /></g>
<polygon fill="#2a84ac" fill-opacity="0.501961" points="43.902421,60.593967,9.937239,63.161713,31.061327,41.002876,97.755842,54.132844" />
<polygon fill="#d2d7f2" fill-opacity="0.501961" points="51,68 -3,66 23,59" />
<rect fill="#dee3ff" fill-opacity="0.501961" x="222" y="38" width="9" height="7" />
<ellipse fill="#2d0444" fill-opacity="0.501961" cx="106" cy="88" rx="46" ry="3" />
<polygon fill="#89388e" fill-opacity="0.501961" points="217.365019,116.655878,183.881780,170.275952,172.294371,180.691907,208.435517,112.730713" />
<g transform="translate(145 93) rotate(172) scale(34 1)"><rect fill="#ea004d" fill-opacity="0.501961" x="-0.5" y="-0.5" width="1" height="1" /></g>
<rect fill="#2d001f" fill-opacity="0.501961" x="0" y="95" width="67" height="6" />
<polygon fill="#0e0619" fill-opacity="0.501961" points="-15.293625,131.984786,125.694947,111.668925,160.097911,103.599538,114.672825,104.597566" />
<polygon fill="#360057" fill-opacity="0.501961" points="239.652818,97.271892,271.000000,87.864431,271.000000,74.677698,249.041516,79.881028" />
<ellipse fill="#000005" fill-opacity="0.501961" cx="5" cy="54" rx="3" ry="16" />
<polygon fill="#000000" fill-opacity="0.501961" points="28,-16 76,24 -2,-4" />
<polygon fill="#040006" fill-opacity="0.501961" points="197.887304,134.068749,175.723919,135.460224,175.622664,185.000000,115.874401,185.000000" />
<polygon fill="#c6c2e9" fill-opacity="0.501961" points="240.498404,88.830474,220.223321,83.428200,269.606452,77.177608,261.741579,60.997626" />
<g transform="translate(175.211280 47.179059) rotate(359.312494) scale(30.697856 3.576562)"><ellipse fill="#03091e" fill-opacity="0.501961" cx="0" cy="0" rx="1" ry="1" /></g>
<g transform="translate(59.669801 164.998290) rotate(157.440454) scale(80.980333 1.000000)"><ellipse fill="#ffadbc" fill-opacity="0.501961" cx="0" cy="0" rx="1" ry="1" /></g>
<polygon fill="#000108" fill-opacity="0.501961" points="-13.631782,185.000000,177.123593,108.761982,-16.000000,153.803884,-16.000000,170.231383" />
<polygon fill="#26287d" fill-opacity="0.501961" points="98.516605,57.899102,84.472162,68.895081,85.091500,43.214353,151.921607,71.035565" />
<rect fill="#e7d9ff" fill-opacity="0.501961" x="55" y="64" width="6" height="19" />
<polygon fill="#f6a4d0" fill-opacity="0.501961" points="122.588498,121.166374,216.760684,85.985684,219.452393,93.054819,129.990153,113.853602" />
<g transform="translate(227.963215 15.430551) rotate(16.366013) scale(81.379874 23.415058)"><ellipse fill="#000002" fill-opacity="0.501961" cx="0" cy="0" rx="1" ry="1" /></g>
<ellipse fill="#030001" fill-opacity="0.501961" cx="13" cy="100" rx="34" ry="3" />
<g transform="translate(138 70) rotate(92) scale(3 20)"><rect fill="#dafcff" fill-opacity="0.501961" x="-0.5" y="-0.5" width="1" height="1" /></g>
<g transform="translate(117.717568 33.977946) rotate(114.698788) scale(1.000000 85.105905)"><ellipse fill="#8b244f" fill-opacity="0.501961" cx="0" cy="0" rx="1" ry="1" /></g>
<g transform="translate(131 134) rotate(155) scale(92 1)"><rect fill="#ffc0c4" fill-opacity="0.501961" x="-0.5" y="-0.5" width="1" height="1" /></g>
<polygon fill="#190008" fill-opacity="0.501961" points="13.796339,134.345169,-5.257643,112.302656,34.690213,109.124830,-16.000000,123.271151" />
<polygon fill="#fcffff" fill-opacity="0.501961" points="95,89 83,81 95,74" />
<polygon fill="#4efffa" fill-opacity="0.501961" points="89,72 88,58 95,61" />
<rect fill="#512671" fill-opacity="0.501961" x="204" y="54" width="18" height="20" />
<polygon fill="#2e0022" fill-opacity="0.501961" points="84.960855,113.562441,180.484417,100.217861,186.919278,95.924602,178.658888,96.475600" />
<g transform="translate(90.572260 105.115081) rotate(351.773214) scale(88.008649 1.000000)"><ellipse fill="#ff7cb1" fill-opacity="0.501961" cx="0" cy="0" rx="1" ry="1" /></g>
<rect fill="#dd82ad" fill-opacity="0.501961" x="31" y="77" width="13" height="4" />
<g transform="translate(65.167534 125.665011) rotate(165.507597) scale(40.206466 4.716422)"><ellipse fill="#490776" fill-opacity="0.501961" cx="0" cy="0" rx="1" ry="1" /></g>
<rect fill="#850042" fill-opacity="0.501961" x="95" y="94" width="33" height="2" />
<g transform="translate(14 7) rotate(111) scale(1 114)"><rect fill="#ffffff" fill-opacity="0.501961" x="-0.5" y="-0.5" width="1" height="1" /></g>
<g transform="translate(115 98) rotate(87) scale(2 60)"><rect fill="#ffffff" fill-opacity="0.501961" x="-0.5" y="-0.5" width="1" height="1" /></g>
<polygon fill="#b18dc4" fill-opacity="0.501961" points="3.872109,50.756214,-1.514557,69.915018,3.674484,79.832575,-11.336238,28.316620" />
<polygon fill="#2a0747" fill-opacity="0.501961" points="244,77 217,44 271,61" />
<g transform="translate(208 66) rotate(81) scale(2 35)"><rect fill="#cdb1e0" fill-opacity="0.501961" x="-0.5" y="-0.5" width="1" height="1" /></g>
<polygon fill="#51bbd8" fill-opacity="0.501961" points="173.594841,60.810442,161.740007,68.583809,190.825594,66.358520,190.249568,65.191605" />
<polygon fill="#2e0c33" fill-opacity="0.501961" points="172,185 233,101 271,106" />
<polygon fill="#3347a3" fill-opacity="0.501961" points="128.246113,76.929266,149.046736,78.870978,144.724500,61.732118,173.225426,67.207911" />
<ellipse fill="#faa2de" fill-opacity="0.501961" cx="139" cy="80" rx="15" ry="3" />
<rect fill="#5e136b" fill-opacity="0.501961" x="180" y="77" width="59" height="4" />
<polygon fill="#140b35" fill-opacity="0.501961" points="90.865239,71.488339,129.267670,57.347439,125.043789,76.882192,113.243470,43.040121" />
<g transform="translate(180 62) rotate(207) scale(46 1)"><rect fill="#d97eb3" fill-opacity="0.501961" x="-0.5" y="-0.5" width="1" height="1" /></g>
<polygon fill="#130e2f" fill-opacity="0.501961" points="58.097021,87.395994,55.748272,93.100904,79.444927,87.640093,78.089254,67.017522" />
<polygon fill="#ffe7f8" fill-opacity="0.501961" points="75,90 63,94 82,93" />
<rect fill="#0b0003" fill-opacity="0.501961" x="106" y="58" width="4" height="24" />
<g transform="translate(114 77) rotate(372) scale(33 1)"><rect fill="#ffc6dd" fill-opacity="0.501961" x="-0.5" y="-0.5" width="1" height="1" /></g>
<polygon fill="#054973" fill-opacity="0.501961" points="40.619071,57.031405,67.845122,36.293867,12.389716,29.855686,33.838446,69.209982" />
<g transform="translate(104.242554 34.085447) rotate(202.144473) scale(43.194127 3.543544)"><ellipse fill="#000203" fill-opacity="0.501961" cx="0" cy="0" rx="1" ry="1" /></g>
<polygon fill="#9d42b1" fill-opacity="0.501961" points="224.644824,114.315262,243.462478,89.275101,218.795483,86.838298,220.089107,113.820261" />
<rect fill="#3b0d48" fill-opacity="0.501961" x="97" y="84" width="58" height="6" />
<ellipse fill="#190e34" fill-opacity="0.501961" cx="198" cy="59" rx="30" ry="3" />
<g transform="translate(4 66) rotate(186) scale(103 1)"><rect fill="#ffdeef" fill-opacity="0.501961" x="-0.5" y="-0.5" width="1" height="1" /></g>
<polygon fill="#0e0512" fill-opacity="0.501961" points="100.692295,185.000000,125.874237,148.455593,189.666277,112.942112,36.021408,178.034971" />
<rect fill="#cbbff0" fill-opacity="0.501961" x="222" y="59" width="8" height="18" />
<g transform="translate(49.752041 60.048686) rotate(151.817133) scale(1.957873 10.003681)"><ellipse fill="#6afaf4" fill-opacity="0.501961" cx="0" cy="0" rx="1" ry="1" /></g>
<polygon fill="#c63283" fill-opacity="0.501961" points="194.110359,101.856881,214.315539,96.963912,171.655293,114.708527,110.241445,138.776902" />
<polygon fill="#000402" fill-opacity="0.501961" points="-16,120 -1,138 55,121" />
<rect fill="#ffffff" fill-opacity="0.501961" x="60" y="59" width="24" height="8" />
<g transform="translate(128 102) rotate(81) scale(4 44)"><rect fill="#d73982" fill-opacity="0.501961" x="-0.5" y="-0.5" width="1" height="1" /></g>
<rect fill="#004062" fill-opacity="0.501961" x="169" y="30" width="24" height="14" />
<g transform="translate(80.806429 50.864692) rotate(192.436429) scale(77.807811 1.000000)"><ellipse fill="#66278c" fill-opacity="0.501961" cx="0" cy="0" rx="1" ry="1" /></g>
<g transform="translate(214 116) rotate(70) scale(1 19)"><rect fill="#daabea" fill-opacity="0.501961" x="-0.5" y="-0.5" width="1" height="1" /></g>
<polygon fill="#610749" fill-opacity="0.501961" points="104.891849,185.000000,175.281294,125.288494,214.894483,100.792983,192.141971,106.186191" />
<g transform="translate(68 162) rotate(245) scale(1 54)"><rect fill="#ffdfe3" fill-opacity="0.501961" x="-0.5" y="-0.5" width="1" height="1" /></g>
<g transform="translate(145 96) rotate(174) scale(103 1)"><rect fill="#fffffd" fill-opacity="0.501961" x="-0.5" y="-0.5" width="1" height="1" /></g>
<rect fill="#c29aff" fill-opacity="0.501961" x="239" y="97" width="17" height="4" />
<polygon fill="#6f3887" fill-opacity="0.501961" points="183.659807,69.251411,212.569688,85.990731,199.695547,63.602565,271.000000,70.059637" />
<rect fill="#53001f" fill-opacity="0.501961" x="29" y="108" width="22" height="3" />
<g transform="translate(60 103) rotate(173) scale(48 4)"><rect fill="#ff8fc0" fill-opacity="0.501961" x="-0.5" y="-0.5" width="1" height="1" /></g>
<g transform="translate(180.761690 52.723986) rotate(267.245955) scale(2.031413 9.142449)"><ellipse fill="#0096b8" fill-opacity="0.501961" cx="0" cy="0" rx="1" ry="1" /></g>
<g transform="translate(194.191786 86.667007) rotate(97.057977) scale(1.000000 72.964899)"><ellipse fill="#c570af" fill-opacity="0.501961" cx="0" cy="0" rx="1" ry="1" /></g>
<g transform="translate(182 142) rotate(50) scale(9 45)"><rect fill="#180318" fill-opacity="0.501961" x="-0.5" y="-0.5" width="1" height="1" /></g>
<rect fill="#0a0013" fill-opacity="0.501961" x="230" y="38" width="5" height="36" />
<polygon fill="#01071e" fill-opacity="0.501961" points="37.244899,18.299203,-16.000000,10.516955,17.789690,51.190376,-16.000000,38.144796" />
<polygon fill="#d1d7ef" fill-opacity="0.501961" points="242,93 240,81 223,81" />
<polygon fill="#1e1033" fill-opacity="0.501961" points="45.475975,70.253495,27.488935,74.212803,58.428371,92.811629,49.351255,72.243569" />
<polygon fill="#cb96fa" fill-opacity="0.501961" points="4,30 7,29 9,38" />
<rect fill="#ff46a8" fill-opacity="0.501961" x="0" y="105" width="27" height="4" />
<g transform="translate(187 104) rotate(75) scale(1 43)"><rect fill="#2e0032" fill-opacity="0.501961" x="-0.5" y="-0.5" width="1" height="1" /></g>
<rect fill="#fff3f6" fill-opacity="0.501961" x="129" y="90" width="88" height="2" />
<polygon fill="#fffbff" fill-opacity="0.501961" points="207,47 217,47 215,56" />
<polygon fill="#4392bb" fill-opacity="0.501961" points="71,46 55,68 53,47" />
<polygon fill="#05071e" fill-opacity="0.501961" points="154.301394,43.498013,206.306958,20.345393,224.233645,48.078997,194.141320,36.802796" />
<g transform="translate(233 96) rotate(276) scale(16 13)"><rect fill="#6f189f" fill-opacity="0.501961" x="-0.5" y="-0.5" width="1" height="1" /></g>
<polygon fill="#3e1f59" fill-opacity="0.501961" points="92.686638,90.870623,92.500402,91.606633,140.645412,90.193148,99.709027,77.103499" />
<rect fill="#e3a9ec" fill-opacity="0.501961" x="214" y="55" width="1" height="35" />
<polygon fill="#000000" fill-opacity="0.501961" points="23,92 28,74 -16,93" />
<g transform="translate(134 81) rotate(180) scale(6 13)"><rect fill="#7427b4" fill-opacity="0.501961" x="-0.5" y="-0.5" width="1" height="1" /></g>
<g transform="translate(127 94) rotate(83) scale(1 57)"><rect fill="#be0071" fill-opacity="0.501961" x="-0.5" y="-0.5" width="1" height="1" /></g>
<ellipse fill="#d979ba" fill-opacity="0.501961" cx="188" cy="95" rx="29" ry="2" />
<polygon fill="#498faf" fill-opacity="0.501961" points="18,64 7,59 10,47" />
<rect fill="#1f0011" fill-opacity="0.501961" x="123" y="73" width="2" height="18" />
<ellipse fill="#e793bf" fill-opacity="0.501961" cx="84" cy="72" rx="12" ry="2" />
<polygon fill="#3d149c" fill-opacity="0.501961" points="120.065180,65.291309,120.587088,75.672696,112.823395,74.173238,112.338291,68.129921" />
<polygon fill="#e1278e" fill-opacity="0.501961" points="105.062599,118.277188,85.792393,121.972029,58.470288,134.725322,144.247848,114.114777" />
<rect fill="#90d5da" fill-opacity="0.501961" x="149" y="73" width="44" height="3" />
<g transform="translate(195 143) rotate(157) scale(15 1)"><rect fill="#cc87d5" fill-opacity="0.501961" x="-0.5" y="-0.5" width="1" height="1" /></g>
<path stroke="#ff49b9" stroke-opacity="0.501961" fill="none" d="M 13.394941 176.055889 Q 36.002975 166.394794, 66.612001 154.670140" stroke-width="0.500000" />
<polygon fill="#2a0420" fill-opacity="0.501961" points="26.886113,125.253029,49.474985,132.948334,51.712740,112.180027,15.913866,118.552101" />
<polygon fill="#004070" fill-opacity="0.501961" points="91.156329,55.036186,87.409966,61.690844,85.767729,71.338434,83.406066,53.448766" />
<polygon fill="#00172d" fill-opacity="0.501961" points="114.467368,47.000904,44.722911,19.263576,27.623638,29.242054,44.665903,33.795129" />
<g transform="translate(75 29) rotate(111) scale(1 29)"><rect fill="#fdffff" fill-opacity="0.501961" x="-0.5" y="-0.5" width="1" height="1" /></g>
<polygon fill="#020a21" fill-opacity="0.501961" points="143.299322,62.964784,65.999090,35.251827,122.302300,46.541363,153.340048,62.605807" />
<g transform="translate(22.758607 63.734027) rotate(74.415535) scale(6.279521 4.835989)"><ellipse fill="#aaeaf0" fill-opacity="0.501961" cx="0" cy="0" rx="1" ry="1" /></g>
<g transform="translate(226 108) rotate(260) scale(5 6)"><rect fill="#dcd0f4" fill-opacity="0.501961" x="-0.5" y="-0.5" width="1" height="1" /></g>
<polygon fill="#981069" fill-opacity="0.501961" points="10.205743,97.243194,52.154386,93.316988,50.416988,89.609910,-1.019229,96.199812" />
<g transform="translate(159 60) rotate(201) scale(25 1)"><rect fill="#ecddff" fill-opacity="0.501961" x="-0.5" y="-0.5" width="1" height="1" /></g>
<ellipse fill="#953ebe" fill-opacity="0.501961" cx="68" cy="98" rx="14" ry="2" />
<polygon fill="#a10569" fill-opacity="0.501961" points="200.478178,113.019028,204.843604,105.504802,159.640540,144.119205,179.464051,135.481728" />
<g transform="translate(0.000000 64.763258) rotate(86.511544) scale(3.951177 3.605328)"><ellipse fill="#ffdaf3" fill-opacity="0.501961" cx="0" cy="0" rx="1" ry="1" /></g>
<g transform="translate(230.463553 79.029005) rotate(267.624738) scale(3.819198 14.455779)"><ellipse fill="#63267e" fill-opacity="0.501961" cx="0" cy="0" rx="1" ry="1" /></g>
<g transform="translate(1.716485 105.098402) rotate(83.622711) scale(1.000000 40.534530)"><ellipse fill="#2b0012" fill-opacity="0.501961" cx="0" cy="0" rx="1" ry="1" /></g>
<ellipse fill="#460046" fill-opacity="0.501961" cx="212" cy="110" rx="5" ry="5" />
<g transform="translate(223 117) rotate(173) scale(11 8)"><rect fill="#681274" fill-opacity="0.501961" x="-0.5" y="-0.5" width="1" height="1" /></g>
<rect fill="#234dad" fill-opacity="0.501961" x="82" y="74" width="3" height="16" />
<g transform="translate(121 115) rotate(344) scale(83 1)"><rect fill="#880661" fill-opacity="0.501961" x="-0.5" y="-0.5" width="1" height="1" /></g>
<rect fill="#001224" fill-opacity="0.501961" x="64" y="73" width="13" height="17" />
<path stroke="#e697ca" stroke-opacity="0.501961" fill="none" d="M 131.285627 116.559880 Q 224.365999 78.677019, 271.000000 100.253137" stroke-width="0.500000" />
<polygon fill="#4e8bbe" fill-opacity="0.501961" points="45.613062,60.654377,41.910187,62.803063,27.047525,68.417134,28.290250,58.759175" />
<path stroke="#ffeffa" stroke-opacity="0.501961" fill="none" d="M 201.329075 96.574185 Q 182.539711 100.407353, 161.286121 105.695802" stroke-width="0.500000" />
<path stroke="#b92f6c" stroke-opacity="0.501961" fill="none" d="M 187.092847 64.587669 Q 135.101104 42.211618, 98.404321 25.438567" stroke-width="0.500000" />
<g transform="translate(177 42) rotate(176) scale(29 2)"><rect fill="#0073a2" fill-opacity="0.501961" x="-0.5" y="-0.5" width="1" height="1" /></g>
<ellipse fill="#e93e9b" fill-opacity="0.501961" cx="83" cy="106" rx="13" ry="5" />
<g transform="translate(37.605538 14.675645) rotate(19.438239) scale(49.582316 1.000000)"><ellipse fill="#fcffff" fill-opacity="0.501961" cx="0" cy="0" rx="1" ry="1" /></g>
<rect fill="#060003" fill-opacity="0.501961" x="35" y="82" width="10" height="11" />
<rect fill="#ffaace" fill-opacity="0.501961" x="71" y="92" width="51" height="2" />
<g transform="translate(193 105) rotate(251) scale(1 30)"><rect fill="#ef9ccc" fill-opacity="0.501961" x="-0.5" y="-0.5" width="1" height="1" /></g>
<rect fill="#0e061b" fill-opacity="0.501961" x="222" y="49" width="34" height="9" />
<rect fill="#cbcdff" fill-opacity="0.501961" x="224" y="40" width="6" height="7" />
<polygon fill="#b2bbdc" fill-opacity="0.501961" points="197.685101,65.877379,201.393361,67.579419,174.391070,62.988174,209.137602,71.770150" />
<polygon fill="#064085" fill-opacity="0.501961" points="50.763428,33.059318,85.914525,50.385391,76.883419,58.876871,64.512639,47.968876" />
<g transform="translate(80 70) rotate(4) scale(11 4)"><rect fill="#4f388b" fill-opacity="0.501961" x="-0.5" y="-0.5" width="1" height="1" /></g>
<g transform="translate(37.522991 109.956022) rotate(173.330775) scale(34.688471 1.045404)"><ellipse fill="#630030" fill-opacity="0.501961" cx="0" cy="0" rx="1" ry="1" /></g>
<path stroke="#fac8db" stroke-opacity="0.501961" fill="none" d="M 266.798324 100.083707 Q 261.414490 88.353208, 28.930938 67.981221" stroke-width="0.500000" />
<g transform="translate(86.427448 91.207577) rotate(269.721098) scale(1.000000 30.027635)"><ellipse fill="#695487" fill-opacity="0.501961" cx="0" cy="0" rx="1" ry="1" /></g>
<ellipse fill="#d0829c" fill-opacity="0.501961" cx="34" cy="79" rx="3" ry="3" />
<polygon fill="#3e1355" fill-opacity="0.501961" points="271.000000,84.089925,241.497836,99.490711,271.000000,75.101145,244.225171,92.534419" />
<g transform="translate(22 115) rotate(172) scale(30 1)"><rect fill="#ff5aa0" fill-opacity="0.501961" x="-0.5" y="-0.5" width="1" height="1" /></g>
<polygon fill="#8e3097" fill-opacity="0.501961" points="186,156 182,147 178,154" />
<polygon fill="#2c0d45" fill-opacity="0.501961" points="213,54 188,55 223,64" />
<polygon fill="#00050d" fill-opacity="0.501961" points="55.694543,19.099190,2.266948,-2.857388,11.513709,-16.000000,154.298368,53.721334" />
<rect fill="#f75fb3" fill-opacity="0.501961" x="152" y="88" width="62" height="2" />
<ellipse fill="#ff0079" fill-opacity="0.501961" cx="33" cy="94" rx="24" ry="1" />
<rect fill="#040422" fill-opacity="0.501961" x="97" y="63" width="40" height="4" />
<g transform="translate(18 108) rotate(174) scale(48 1)"><rect fill="#ff7cae" fill-opacity="0.501961" x="-0.5" y="-0.5" width="1" height="1" /></g>
<polygon fill="#00080b" fill-opacity="0.501961" points="147,45 18,-16 163,9" />
<rect fill="#fef5ff" fill-opacity="0.501961" x="206" y="46" width="13" height="5" />
<polygon fill="#470233" fill-opacity="0.501961" points="190.095243,108.502627,116.128582,164.601145,148.616465,177.957162,150.011120,148.373492" />
<polygon fill="#0c3191" fill-opacity="0.501961" points="151,72 133,75 144,77" />
<polygon fill="#0b0913" fill-opacity="0.501961" points="25.974900,70.756764,14.968697,67.999005,6.216549,97.733955,2.482969,69.679190" />
<g transform="translate(133.330710 115.140281) rotate(255.356323) scale(1.000000 31.452998)"><ellipse fill="#fc6eae" fill-opacity="0.501961" cx="0" cy="0" rx="1" ry="1" /></g>
<g transform="translate(155.835613 79.506266) rotate(3.396496) scale(34.613501 1.000000)"><ellipse fill="#e4bbd5" fill-opacity="0.501961" cx="0" cy="0" rx="1" ry="1" /></g>
<polygon fill="#f1c0de" fill-opacity="0.501961" points="226.376740,84.009498,202.540265,95.849147,217.565636,87.096605,186.695176,86.252518" />
<polygon fill="#2b1027" fill-opacity="0.501961" points="90.721237,119.925839,171.793794,100.676801,171.590327,96.585293,136.522572,104.337098" />
<polygon fill="#3c0337" fill-opacity="0.501961" points="55.018059,132.111883,-6.769790,138.560449,19.881425,181.985542,-1.538363,146.723079" />
<polygon fill="#8e61a4" fill-opacity="0.501961" points="197,82 179,76 196,75" />
<polygon fill="#866ab7" fill-opacity="0.501961" points="153,58 155,72 141,73" />
<rect fill="#722065" fill-opacity="0.501961" x="220" y="88" width="13" height="3" />
<polygon fill="#50145d" fill-opacity="0.501961" points="260.913614,100.415129,188.025474,141.027570,230.458428,106.295738,227.785112,104.265537" />
<polygon fill="#002952" fill-opacity="0.501961" points="13.276669,34.800041,1.432011,54.737527,15.066153,23.872859,108.706004,50.660618" />
<polygon fill="#3f196f" fill-opacity="0.501961" points="194.435356,44.614756,215.438627,41.458824,210.466036,40.845549,233.277188,48.724357" />
<g transform="translate(103 56) rotate(13) scale(91 1)"><rect fill="#851684" fill-opacity="0.501961" x="-0.5" y="-0.5" width="1" height="1" /></g>
<g transform="translate(41 169) rotate(66) scale(1 90)"><rect fill="#040003" fill-opacity="0.501961" x="-0.5" y="-0.5" width="1" height="1" /></g>
<g transform="translate(183 71) rotate(251) scale(4 9)"><rect fill="#091949" fill-opacity="0.501961" x="-0.5" y="-0.5" width="1" height="1" /></g>
<rect fill="#180034" fill-opacity="0.501961" x="0" y="26" width="6" height="20" />
<g transform="translate(1 50) rotate(-12) scale(1 10)"><rect fill="#d5aade" fill-opacity="0.501961" x="-0.5" y="-0.5" width="1" height="1" /></g>
<rect fill="#24000f" fill-opacity="0.501961" x="142" y="84" width="11" height="5" />
<rect fill="#44369b" fill-opacity="0.501961" x="62" y="72" width="5" height="12" />
<g transform="translate(222 65) rotate(260) scale(2 14)"><rect fill="#d5c1e1" fill-opacity="0.501961" x="-0.5" y="-0.5" width="1" height="1" /></g>
<polygon fill="#e4defc" fill-opacity="0.501961" points="62.521939,70.679039,52.897433,68.566578,54.302168,75.550644,61.691235,80.967120" />
<rect fill="#ff6ebe" fill-opacity="0.501961" x="41" y="93" width="29" height="1" />
<polygon fill="#bed2ff" fill-opacity="0.501961" points="122,73 120,72 124,66" />
<path stroke="#ffb6d5" stroke-opacity="0.501961" fill="none" d="M 187.657269 97.965807 Q 118.772623 119.762241, 97.229432 123.938457" stroke-width="0.500000" />
<rect fill="#1f0022" fill-opacity="0.501961" x="248" y="90" width="4" height="6" />
<polygon fill="#c25fb1" fill-opacity="0.501961" points="193.879170,118.321844,222.214773,94.463140,167.476677,104.063662,226.762544,96.751522" />
<g transform="translate(89 82) rotate(92) scale(7 8)"><rect fill="#ffffff" fill-opacity="0.501961" x="-0.5" y="-0.5" width="1" height="1" /></g>
<polygon fill="#2a0025" fill-opacity="0.501961" points="177,108 183,102 169,106" />
<path stroke="#df238c" stroke-opacity="0.501961" fill="none" d="M 127.402830 132.217325 Q 59.504251 157.877232, 17.758039 172.922879" stroke-width="0.500000" />
<g transform="translate(76.051748 121.003138) rotate(81.349614) scale(2.288408 19.125402)"><ellipse fill="#3e198c" fill-opacity="0.501961" cx="0" cy="0" rx="1" ry="1" /></g>
<g transform="translate(81.496464 73.548168) rotate(185.657108) scale(1.000000 12.753142)"><ellipse fill="#a9c3e0" fill-opacity="0.501961" cx="0" cy="0" rx="1" ry="1" /></g>
<polygon fill="#1a797f" fill-opacity="0.501961" points="28.744049,46.707330,57.487776,48.317776,44.978361,54.335651,42.763850,66.117363" />
<g transform="translate(7 146) rotate(343) scale(22 1)"><rect fill="#f900a4" fill-opacity="0.501961" x="-0.5" y="-0.5" width="1" height="1" /></g>
<rect fill="#5fffeb" fill-opacity="0.501961" x="53" y="52" width="2" height="11" />
<polygon fill="#1a86a9" fill-opacity="0.501961" points="171.644129,74.034626,185.028184,59.459489,179.699197,67.224031,154.562205,65.913935" />
<g transform="translate(212 54) rotate(202) scale(18 1)"><rect fill="#943cc4" fill-opacity="0.501961" x="-0.5" y="-0.5" width="1" height="1" /></g>
<rect fill="#430653" fill-opacity="0.501961" x="255" y="55" width="1" height="38" />
<g transform="translate(8 42) rotate(198) scale(28 5)"><rect fill="#131028" fill-opacity="0.501961" x="-0.5" y="-0.5" width="1" height="1" /></g>
<g transform="translate(126 94) rotate(87) scale(1 31)"><rect fill="#b10067" fill-opacity="0.501961" x="-0.5" y="-0.5" width="1" height="1" /></g>
<g transform="translate(189 155) rotate(250) scale(1 9)"><rect fill="#cf7cd4" fill-opacity="0.501961" x="-0.5" y="-0.5" width="1" height="1" /></g>
<polygon fill="#040f23" fill-opacity="0.501961" points="10.910577,14.854264,66.048531,26.768624,151.702957,61.346483,151.433169,64.366827" />
<polygon fill="#c7d9ff" fill-opacity="0.501961" points="132,73 135,67 142,71" />
<ellipse fill="#fff7fd" fill-opacity="0.501961" cx="202" cy="68" rx="2" ry="2" />
<g transform="translate(159 97) rotate(175) scale(62 1)"><rect fill="#f385b8" fill-opacity="0.501961" x="-0.5" y="-0.5" width="1" height="1" /></g>
<polygon fill="#cf75a3" fill-opacity="0.501961" points="173.014270,115.665913,192.615993,102.977628,171.922801,112.030037,206.186732,101.490103" />
<rect fill="#4b2269" fill-opacity="0.501961" x="84" y="87" width="26" height="5" />
<polygon fill="#084d66" fill-opacity="0.501961" points="69.922363,52.649806,104.095134,60.080038,90.539884,74.690721,92.801550,61.204452" />
<ellipse fill="#7b4581" fill-opacity="0.501961" cx="168" cy="84" rx="3" ry="3" />
<rect fill="#001223" fill-opacity="0.501961" x="155" y="44" width="50" height="6" />
<polygon fill="#2a0e29" fill-opacity="0.501961" points="173.054890,150.485269,197.791144,140.206536,235.204504,150.656275,195.438408,135.652407" />
<polygon fill="#7a399e" fill-opacity="0.501961" points="241.097559,68.580603,264.410841,66.087463,242.294184,73.131254,263.780058,113.920807" />
<rect fill="#0d0815" fill-opacity="0.501961" x="4" y="39" width="4" height="26" />
<ellipse fill="#003c68" fill-opacity="0.501961" cx="169" cy="32" rx="15" ry="2" />
<rect fill="#150c24" fill-opacity="0.501961" x="112" y="83" width="15" height="7" />
<g transform="translate(85 94) rotate(206) scale(20 1)"><rect fill="#d5cef1" fill-opacity="0.501961" x="-0.5" y="-0.5" width="1" height="1" /></g>
<ellipse fill="#ffffff" fill-opacity="0.501961" cx="235" cy="85" rx="3" ry="3" />
<polygon fill="#fff7f9" fill-opacity="0.501961" points="171.482496,89.881281,174.298163,92.109795,215.676801,92.871322,212.910219,89.722889" />
<g transform="translate(221 68) rotate(179) scale(1 39)"><rect fill="#36154d" fill-opacity="0.501961" x="-0.5" y="-0.5" width="1" height="1" /></g>
<rect fill="#9789c0" fill-opacity="0.501961" x="46" y="88" width="4" height="3" />
<rect fill="#340023" fill-opacity="0.501961" x="40" y="95" width="28" height="2" />
<ellipse fill="#acdbe9" fill-opacity="0.501961" cx="61" cy="51" rx="3" ry="2" />
<ellipse fill="#a66fbc" fill-opacity="0.501961" cx="218" cy="76" rx="15" ry="2" />
<polygon fill="#0c5381" fill-opacity="0.501961" points="-16.000000,29.206307,53.630330,50.504982,56.490057,62.341053,63.068020,55.396919" />
<ellipse fill="#e7f4ff" fill-opacity="0.501961" cx="255" cy="94" rx="3" ry="2" />
<ellipse fill="#edfffe" fill-opacity="0.501961" cx="225" cy="71" rx="3" ry="3" />
<rect fill="#d8d4e8" fill-opacity="0.501961" x="158" y="76" width="8" height="11" />
<polygon fill="#020b1f" fill-opacity="0.501961" points="35,16 -4,2 17,33" />
<ellipse fill="#75d1f0" fill-opacity="0.501961" cx="103" cy="80" rx="2" ry="2" />
<g transform="translate(98 103) rotate(354) scale(48 1)"><rect fill="#e73085" fill-opacity="0.501961" x="-0.5" y="-0.5" width="1" height="1" /></g>
<path stroke="#740153" stroke-opacity="0.501961" fill="none" d="M 93.246852 129.649992 Q 162.625705 106.978381, 186.774385 101.893855" stroke-width="0.500000" />
<g transform="translate(214 94) rotate(77) scale(5 21)"><rect fill="#dfb5d4" fill-opacity="0.501961" x="-0.5" y="-0.5" width="1" height="1" /></g>
<polygon fill="#180a19" fill-opacity="0.501961" points="-16.000000,81.744058,46.712280,92.531668,36.286072,74.767972,34.490052,89.909086" />
<path stroke="#c95774" stroke-opacity="0.501961" fill="none" d="M 122.393482 137.122614 Q 84.858355 152.863648, 10.817965 185.000000" stroke-width="0.500000" />
<ellipse fill="#18002f" fill-opacity="0.501961" cx="218" cy="71" rx="3" ry="3" />
<ellipse fill="#22142f" fill-opacity="0.501961" cx="99" cy="76" rx="1" ry="15" />
<polygon fill="#1b0a18" fill-opacity="0.501961" points="268.476406,143.131532,175.902192,185.000000,249.790738,107.561413,228.982465,111.201368" />
<g transform="translate(84 127) rotate(254) scale(1 38)"><rect fill="#ff6ab5" fill-opacity="0.501961" x="-0.5" y="-0.5" width="1" height="1" /></g>
<g transform="translate(225 41) rotate(352) scale(6 5)"><rect fill="#e4e3fe" fill-opacity="0.501961" x="-0.5" y="-0.5" width="1" height="1" /></g>
<polygon fill="#000009" fill-opacity="0.501961" points="205.840473,30.896528,136.667181,28.263409,227.605336,-16.000000,231.245472,41.802853" />
<g transform="translate(212 73) rotate(102) scale(22 1)"><rect fill="#40124f" fill-opacity="0.501961" x="-0.5" y="-0.5" width="1" height="1" /></g>
<path stroke="#400523" stroke-opacity="0.501961" fill="none" d="M 169.646860 115.301030 Q 153.886566 123.282593, 63.986826 159.652083" stroke-width="0.500000" />
<rect fill="#e296d6" fill-opacity="0.501961" x="30" y="23" width="2" height="3" />
<g transform="translate(35.700395 108.297889) rotate(86.174510) scale(1.000000 50.134839)"><ellipse fill="#c30964" fill-opacity="0.501961" cx="0" cy="0" rx="1" ry="1" /></g>
<ellipse fill="#ffeeff" fill-opacity="0.501961" cx="128" cy="79" rx="3" ry="3" />
<polygon fill="#515a89" fill-opacity="0.501961" points="14.789733,48.887623,36.628628,74.780413,6.988455,66.932949,36.780442,71.696478" />
<polygon fill="#890c82" fill-opacity="0.501961" points="57.719527,128.594872,66.921868,131.327355,111.005761,116.808300,86.801103,120.183524" />
<polygon fill="#887dff" fill-opacity="0.501961" points="141,75 126,74 128,68" />
<polygon fill="#312878" fill-opacity="0.501961" points="91,75 80,78 83,73" />
<g transform="translate(105 112) rotate(261) scale(8 29)"><rect fill="#180c1f" fill-opacity="0.501961" x="-0.5" y="-0.5" width="1" height="1" /></g>
<g transform="translate(155.948237 84.594789) rotate(54.268351) scale(3.743015 3.418401)"><ellipse fill="#995ca8" fill-opacity="0.501961" cx="0" cy="0" rx="1" ry="1" /></g>
<ellipse fill="#b0069a" fill-opacity="0.501961" cx="184" cy="97" rx="5" ry="2" />
<polygon fill="#662666" fill-opacity="0.501961" points="117.875856,91.321858,151.721869,88.879511,137.265060,85.703721,138.779203,78.695765" />
<path stroke="#ffe1f2" stroke-opacity="0.501961" fill="none" d="M 186.355080 99.339610 Q 171.174703 103.872557, 155.302926 108.145872" stroke-width="0.500000" />
<polygon fill="#4b0b3f" fill-opacity="0.501961" points="188,161 213,125 203,155" />
<path stroke="#d22588" stroke-opacity="0.501961" fill="none" d="M 111.957865 137.883193 Q 84.839545 148.325113, -16.000000 185.000000" stroke-width="0.500000" />
<polygon fill="#934aa2" fill-opacity="0.501961" points="211.904904,120.297615,212.698242,123.750487,202.164564,125.996700,198.879781,124.540368" />
<g transform="translate(107 89) rotate(34) scale(1 5)"><rect fill="#b154cd" fill-opacity="0.501961" x="-0.5" y="-0.5" width="1" height="1" /></g>
<g transform="translate(97.412463 74.320442) rotate(276.543647) scale(1.000000 62.799909)"><ellipse fill="#e29ec9" fill-opacity="0.501961" cx="0" cy="0" rx="1" ry="1" /></g>
<polygon fill="#0e0009" fill-opacity="0.501961" points="15.198977,101.903365,4.571273,101.064962,5.250743,78.204949,-16.000000,110.571238" />
<g transform="translate(84.851593 109.817520) rotate(78.824451) scale(1.000000 36.666467)"><ellipse fill="#9c217f" fill-opacity="0.501961" cx="0" cy="0" rx="1" ry="1" /></g>
</g>
</svg>