<svg height="764" width="1024" xmlns="http://www.w3.org/2000/svg"><path d="m0 0h1024v764h-1024z" fill="#6d6861"/><g fill-opacity=".501961" transform="matrix(4 0 0 4 2 2)"><path d="m-6 115 7-131 198 26z" fill="#ffddc4"/><path d="m271 206-85-157-202 137z" fill="#00191b"/><path d="m-16 90 19-106 89 18z" fill="#fff8ee"/><path d="m120-16-136 147 287-129z" fill="#b07b6c"/><path d="m210 187-95-66-84 85z" fill="#001216"/><path d="m271 36v-41l-58-1z" fill="#fff"/><path d="m220 92-110-81-27 123z" fill="#5b584e"/><path d="m135-9 21 58 115-8z" fill="#ad979f"/><path d="m255 62-111 4 88-29z" fill="#302622"/><path d="m82 112 14-8-20-12z" fill="#ffebff"/><path d="m271 138-147-107 121 175z" fill="#425c54"/><path d="m109 119-27 9 9 5z" fill="#f2e4fa"/><path d="m60-16-76 113 121-70z" fill="#f2af9b"/><path d="m87 110-74 96-29-52z" fill="#325a54"/><path d="m271 64-24 43-25-38z" fill="#b0a992"/><path d="m38 1-35 67-19-78z" fill="#fff3eb"/><path d="m242 12-59-16-4 19z" fill="#6e4a20"/><path d="m105-16-4 33 53 45z" fill="#9e492d"/><path d="m246 46-32-16 57-1z" fill="#abafbe"/><path d="m131 38 6 25 48-7z" fill="#523924"/><path d="m222 206-90-131-36 30z" fill="#203d3b"/><path d="m120 44-135 106-1-48z" fill="#9a8975"/><path d="m74 115 24-7-2 16z" fill="#72000a"/><path d="m265 3-65-19 4 18z" fill="#fbdcd5"/><path d="m236 9 14 19h-17z" fill="#242216"/><path d="m79 3 121-18-50 49z" fill="#ce8576"/><path d="m73 86 3-15 10 11z" fill="#970002"/><path d="m188 67 24 61 59-26z" fill="#61766b"/><path d="m82 108 8-25 4 25z" fill="#d4c9e8"/><path d="m103 120 86 86-72-19z" fill="#00131b"/><path d="m-4 93 134-54-35-21z" fill="#c19784"/><path d="m271 53-16-69-13 24z" fill="#f8eae7"/><path d="m20-11 69-5-80 78z" fill="#fdcdc1"/><path d="m232 58-53-25 64 6z" fill="#636066"/><path d="m271 150-146-77 119 133z" fill="#384d49"/><path d="m68 206-84-6 115-65z" fill="#1a3f3f"/><path d="m179 53 58-31-98 12z" fill="#a19599"/><path d="m72 94 14 38-102 60z" fill="#455b53"/><path d="m80 99 120-16-66-23z" fill="#5d5e58"/><path d="m89 129 9-2-17-5z" fill="#d7cbe0"/><path d="m150 68 79-3-22-16z" fill="#312c27"/><path d="m185-16h41l-40 25z" fill="#2a140c"/><path d="m114 119-21 18 6-20z" fill="#9b8283"/><path d="m11-16-3 73-24-41z" fill="#fffdf8"/><path d="m18 52 58-1 36-67z" fill="#dcab98"/><path d="m134 142 42 64-8-107z" fill="#163131"/><path d="m200 37-7 1 13 12z" fill="#403b3c"/><path d="m168 124 32 35 13-76z" fill="#4f5549"/><path d="m67 98h20l1-14z" fill="#8b3747"/><path d="m79 97-7-8v-9z" fill="#ffb0b3"/><path d="m181-16-88 39 19-39z" fill="#b46650"/><path d="m88 86-3-41 41 6z" fill="#908176"/><path d="m194 7-17 40 49-31z" fill="#88766f"/><path d="m187 81-96 10 9 26z" fill="#415450"/><path d="m193 17-43-33-9 56z" fill="#b79088"/><path d="m94 130 9-11-9 6z" fill="#bdd1e9"/><path d="m126 28 7 25 3-27z" fill="#674431"/><path d="m271 179v-50l-109-56z" fill="#46625e"/><path d="m236 25 4-18-9 12z" fill="#3d3832"/><path d="m107 136h-22l27 26z" fill="#0e0f13"/><path d="m121 18 11-9 35 35z" fill="#d1a298"/><path d="m236 108-25-45 60 46z" fill="#7e8274"/><path d="m220 46-3-24-13 7z" fill="#ada4a7"/><path d="m93 126-17-18 21 9z" fill="#660b1e"/><path d="m100 133-67-14-26 20z" fill="#4f5e55"/><path d="m37 49-53 74 129-95z" fill="#bf9884"/><path d="m94 97-8-4-10 1z" fill="#cbb6c8"/><path d="m264 73-6 12-22-7z" fill="#c3ae97"/><path d="m237 15 19 21-7-15z" fill="#4c463d"/><path d="m158 61-35 3 70 28z" fill="#715f53"/><path d="m81 94 5-6-2-11z" fill="#450810"/><path d="m242 39-37-5 36 18z" fill="#58545c"/><path d="m198-16-62 36 43-10z" fill="#987670"/><path d="m193 206-39-52 77 13z" fill="#293b35"/><path d="m227 6-16 20-2-8z" fill="#624d34"/><path d="m103 132-1-20 13 6z" fill="#6d4836"/><path d="m156 45 23 37 3-22z" fill="#403527"/><path d="m40 4 20 20-8 2z" fill="#ffedd8"/><path d="m120 18-17 10 4-21z" fill="#925641"/><path d="m230-6 6 9-5 6z" fill="#fff8ea"/><path d="m124 14 28-30 18 18z" fill="#df9c8a"/><path d="m32 52-12-28 53 2z" fill="#dfb09e"/><path d="m-16 163 7-42 82-25z" fill="#717869"/><path d="m88 111-7-3 11-15z" fill="#c5cee6"/><path d="m246 37 12 3-15 5z" fill="#d3c8cb"/><path d="m78 71-93 39 57-2z" fill="#998a77"/><path d="m219 38-6-26 10 18z" fill="#bdaaa4"/><path d="m87 132-1-8-2 1z" fill="#ffc7b7"/><path d="m97 104-6 21-9-4z" fill="#680b1e"/><path d="m186 69-4 24 37-30z" fill="#676361"/><path d="m84-16 18 27-28 2z" fill="#eeb1a0"/><path d="m265 57-14-15-1 6z" fill="#363544"/><path d="m85 139-17-39 15 14z" fill="#5f5d50"/><path d="m161 57-23-31-4 10z" fill="#926551"/><path d="m200 16 8-10-33 2z" fill="#9a6940"/><path d="m196 26-25 22 27 1z" fill="#948d99"/><path d="m55 130-49 76 80-69z" fill="#2d4c4a"/><path d="m241 16 3-32 27 44z" fill="#dbcfcc"/><path d="m151 28-11 7 26 13z" fill="#cba093"/><path d="m72 76 1 10 3-16z" fill="#e75152"/><path d="m87 76 51-17-45 30z" fill="#666d65"/><path d="m135 42 51 32-33-7z" fill="#4d3d2d"/><path d="m178 9 28-25-6 22z" fill="#523823"/><path d="m6 64-12 23-10-6z" fill="#db957b"/><path d="m151 42-10 18-18-16z" fill="#6b4e34"/><path d="m92 105-15-5 6 9z" fill="#d1d2e6"/><path d="m144 24-9-14 23 12z" fill="#9e7467"/><path d="m27 29-12 32-31-1z" fill="#fee0d3"/><path d="m234 5-32-4 7-8z" fill="#d5aea0"/><path d="m217 2-6-2-9 10z" fill="#a3744b"/><path d="m208 43-5 1 3-3z" fill="#d6d5d8"/><path d="m102 119-15 11 12-2z" fill="#b2c0d6"/><path d="m180 50-1 6-3-10z" fill="#bdaead"/><path d="m260 75-13-13h-16z" fill="#8d7770"/><path d="m124 179 8-37 22 22z" fill="#001b24"/><path d="m135 86 33 33 39-15z" fill="#2f4745"/><path d="m211 22 15-1 15-16z" fill="#a58a6f"/><path d="m246 141-49-11 17 76z" fill="#324643"/><path d="m23 40 53-56-65 36z" fill="#f3cabd"/><path d="m67 79-23 24 30-5z" fill="#808070"/><path d="m88 83-1 3 5 4z" fill="#ffe0df"/><path d="m82 73h-33l70-45z" fill="#b18f7e"/><path d="m107 55 25 7-9-27z" fill="#906c5e"/><path d="m271 128-38-4-37-52z" fill="#5f6e66"/><path d="m225 134 29 58 17-45z" fill="#3a5556"/><path d="m195 50 17 6-42 17z" fill="#272827"/><path d="m197 30-34-13 17-6z" fill="#b99d9c"/><path d="m230 45 22 1 19 19z" fill="#6e5e63"/><path d="m151 52 64-41-25 30z" fill="#897d82"/><path d="m89 140-70 59 84-35z" fill="#203938"/><path d="m153 69 3 2-2 5z" fill="#cb9763"/><path d="m197 59 26-6 14 17z" fill="#484445"/><path d="m203 41-5-4v11z" fill="#3d3a3e"/><path d="m216 37-16-1v-31z" fill="#9c8e92"/><path d="m98 22 9-4-15-5z" fill="#a3653e"/><path d="m240 30-1 6h11z" fill="#676d80"/><path d="m117 65-32 32 50-26z" fill="#62625c"/><path d="m106 113-7 4 16 6z" fill="#946452"/><path d="m90-14-6 34-33 10z" fill="#e8bbad"/><path d="m100 135 17-15-2 17z" fill="#1f1515"/><path d="m1-16 30 7-21 40z" fill="#ffe1d7"/><path d="m187 57 22-8-27 1z" fill="#524539"/><path d="m210 37 3 4-7-3z" fill="#37363f"/><path d="m175 104-62 14 23 25z" fill="#2a3e3d"/><path d="m198 49 17 2 1-11z" fill="#656059"/><path d="m244 43-1-3 6 2z" fill="#efe6dd"/><path d="m213 10 4-6-14 8z" fill="#584314"/><path d="m87 134 19-8-9 11z" fill="#525055"/><path d="m223 42-7-6 22 6z" fill="#383b42"/><path d="m90 83-11-9-9 9z" fill="#951f30"/><path d="m74 86 1 8-4-3z" fill="#ffabae"/><path d="m220 5-2-17 13-1z" fill="#fde3db"/><path d="m54 30 28 29-49-16z" fill="#d6aa92"/><path d="m228 36 25 6 18-9z" fill="#a5a1ad"/><path d="m232 49 29 11-57 3z" fill="#463c36"/><path d="m2 206-18-31 71-37z" fill="#3c5655"/><path d="m187 108 48 32-45-69z" fill="#455a52"/><path d="m245 95-40-15h46z" fill="#828474"/><path d="m233 71 5 15 11-8z" fill="#b3a18c"/><path d="m231 15-9 4 5 11z" fill="#97908f"/><path d="m19 86-13 1-12-6z" fill="#e8bda9"/><path d="m213 21 5-5-14 2z" fill="#694c38"/><path d="m-1 85 7 15 32-7z" fill="#b18d78"/><path d="m210 3-11 9-14-2z" fill="#b17e4a"/><path d="m199 137-21 5-7-22z" fill="#565144"/><path d="m223 88-26-8-3-16z" fill="#6c7168"/><path d="m77 89 9 1-5 3z" fill="#630a14"/><path d="m109-16-18 5-2 43z" fill="#da9a84"/><path d="m85 83 32-31 25 4z" fill="#786e63"/><path d="m76 101-73 38 31 4z" fill="#5a655c"/><path d="m73 84 11 7-5 3z" fill="#803235"/><path d="m233 27-1-9 16 1z" fill="#48423b"/><path d="m163-15-27 18 35-10z" fill="#ab6731"/><path d="m227 15 13-4v4z" fill="#5a4e42"/><path d="m238 0 10-16-7 25z" fill="#c0acae"/><path d="m86 104 7 5-2-13z" fill="#bec4d9"/><path d="m167 48 4 8-16 18z" fill="#52493c"/><path d="m226 19h7l8 10z" fill="#5a534d"/><path d="m37 32-1 22-27 26z" fill="#e1b29f"/><path d="m183 87 3 3 2-4z" fill="#aa9b89"/><path d="m166 31 13 20-7 3z" fill="#a39395"/><path d="m153 41 12 24v-12z" fill="#574730"/><path d="m83 121 2 22-27-17z" fill="#3c4e47"/><path d="m88 122-6-11-1 10z" fill="#993533"/><path d="m14 49-28 12 9-77z" fill="#fff5ee"/><path d="m271-16-19 30 1-30z" fill="#b4b6c1"/><path d="m245 28 8 6-15-3z" fill="#a3a5aa"/><path d="m24 119 51-50-58 30z" fill="#998876"/><path d="m153 47 26-48-26 6z" fill="#b38c85"/><path d="m240 30-3-11h3z" fill="#38302a"/><path d="m240 6 11 2 5 20z" fill="#e9dad1"/><path d="m258 88 13-15-20 11z" fill="#c7c2ac"/><path d="m5 115-19-3 5-4z" fill="#eacebd"/><path d="m227 21-20 5-4 10z" fill="#b5a9aa"/><path d="m28 96-13 31-10-17z" fill="#877a6a"/><path d="m98 110-8 2 8 8z" fill="#590010"/><path d="m147 37 4 8-5 15z" fill="#4c372c"/><path d="m206 30-12 3 7 1z" fill="#69646d"/><path d="m216 15-2-3-6 2z" fill="#cfb4ac"/><path d="m201 36 4 6h5z" fill="#aba6af"/><path d="m162 82-68 22 41-29z" fill="#44524f"/><path d="m213 46 31-7-17 19z" fill="#645855"/><path d="m85 97v3l2-2z" fill="#59454d"/><path d="m52 51 29-31 24 2z" fill="#d1a797"/><path d="m97 30 17-4-3 22z" fill="#b78979"/><path d="m56 85v8l27-7z" fill="#9c877c"/><path d="m31 84h23l-14 4z" fill="#c4a591"/><path d="m201-10 7 5-4 8z" fill="#f8cec5"/><path d="m83 135 3-5 13 5z" fill="#815f52"/><path d="m162 56 9-6-5-2z" fill="#383235"/><path d="m187 43 4-20-9 11z" fill="#786d72"/><path d="m137 73 33-21-30 33z" fill="#645a4e"/><path d="m140 39 10-10 3 7z" fill="#d5a698"/><path d="m184 17-14 20-27-7z" fill="#ab8e8a"/><path d="m180 72-5 14 32-20z" fill="#4f4f52"/><path d="m253 30 13-46 5 58z" fill="#bab6bb"/><path d="m120 16 4 13 4-2z" fill="#b57c5d"/><path d="m136 148-33-26 7 28z" fill="#151f26"/><path d="m112-16 7 31 20-13z" fill="#be7b73"/><path d="m106 26 2-5 13 3z" fill="#744a2c"/><path d="m110 164-65 42 99-1z" fill="#142a26"/><path d="m227 13-3-12 10 14z" fill="#82663c"/><path d="m94 20 26 23 12-5z" fill="#ac7766"/><path d="m269 116-24-17-20 11z" fill="#6a776e"/><path d="m243 18 11-9-4 10z" fill="#c5bebf"/><path d="m160 12-11-4 5-2z" fill="#9b6d60"/><path d="m125 19 18-16-19 9z" fill="#e7a69a"/><path d="m153 48-7-5-5 5z" fill="#88674f"/><path d="m250 82-5-3-1 6z" fill="#656567"/><path d="m34 51 41-2 16 18z" fill="#c49c87"/><path d="m225 68 12 3 10-8z" fill="#816e65"/><path d="m197 23 9-8 1 4z" fill="#6f5b51"/><path d="m190 39 7 3-3 3z" fill="#c1afa9"/><path d="m77 105 5-6 1 5z" fill="#d7cfe1"/><path d="m132 78-1-7h-6z" fill="#95795e"/><path d="m18 56-34-1 10 15z" fill="#fad7c9"/><path d="m164 13 34 4-36 6z" fill="#c39c94"/><path d="m202 65 37 19-16-15z" fill="#877a71"/><path d="m252 25 19-24-22 16z" fill="#f4dbcb"/><path d="m141 38 1 8-4-9z" fill="#684437"/><path d="m169 9 11-1 2-4z" fill="#79605f"/><path d="m76 102 7 19-43 21z" fill="#4c5c53"/><path d="m184 87-12 5-19-26z" fill="#58665b"/><path d="m99 113 12 1-17-16z" fill="#41534a"/><path d="m178 36-4-20-12 33z" fill="#ac9491"/><path d="m209 81-22 5 55 51z" fill="#4e6159"/><path d="m44 127 31-26-7-14z" fill="#686b60"/><path d="m84 77 29-26-22 2z" fill="#958275"/><path d="m89 92-2-10 5 6z" fill="#e3bdbf"/><path d="m204 131 9 42-27-20z" fill="#40483d"/><path d="m260 50-7-6-5 3z" fill="#363a41"/><path d="m35 75 29 4-2-20z" fill="#a88d7b"/><path d="m190 206-47-3-57-69z" fill="#071b20"/><path d="m262 103-19 31 28 38z" fill="#486a67"/><path d="m130 31 5-4-4 1z" fill="#4a3116"/><path d="m122 19-20-35 1 19z" fill="#b16350"/><path d="m195 68-14-15-8 15z" fill="#302d29"/><path d="m147 22-2 5-5 2z" fill="#f9cbb9"/><path d="m223 21 6 4-12 5z" fill="#7e7777"/><path d="m251 34-8 1-2-3z" fill="#676d7b"/><path d="m18 13 32-29 29 15z" fill="#f6d4ca"/><path d="m156 75 1-6 6 8z" fill="#3e3c3f"/><path d="m55 87-34 1 44 11z" fill="#91816e"/><path d="m16 73 7 3h-13z" fill="#f0cab9"/><path d="m33 93-6 2 9-16z" fill="#c3a48f"/><path d="m96 104 36-26-40 9z" fill="#4f5b56"/><path d="m221 133 31-2-62-17z" fill="#415a54"/><path d="m215 36 2-6 13-4z" fill="#b4acb1"/><path d="m246 1-2 11-4 1z" fill="#f8ebe2"/><path d="m6 102 21-1-22-7z" fill="#b1927f"/><path d="m21 78-20 4 29 5z" fill="#c1947e"/><path d="m11 34-11 14 32-6z" fill="#f7d9cc"/><path d="m83 99 6 10-5 1z" fill="#bbc2db"/><path d="m249 42 22 8v-11z" fill="#87818c"/><path d="m152 61 1-10 3 15z" fill="#42352b"/><path d="m166 41-1 7-10-9z" fill="#c5aaa5"/><path d="m171 135-6 31 60 40z" fill="#293632"/><path d="m104 119 10 2-3 2z" fill="#926f61"/><path d="m202 22-4 6 18 11z" fill="#9b949f"/><path d="m20 74h17l-9 8z" fill="#d5ab99"/><path d="m177 79-5 4-17-14z" fill="#736d5f"/><path d="m218 41 2 4-3-1z" fill="#c4b1a4"/><path d="m45 15 12 6-4 8z" fill="#fee8d1"/><path d="m232 42-18-2 11-2z" fill="#44444a"/><path d="m155 9-27 6 7-8z" fill="#c68978"/><path d="m8 110-21-2-3-17z" fill="#8c735f"/><path d="m108 71-12-10-11 21z" fill="#7d7a6d"/><path d="m25 77h12l3 5z" fill="#a0816a"/><path d="m134 57 4 3 2-3z" fill="#a87c5c"/><path d="m154 58 1-3-8 1z" fill="#806937"/><path d="m87 124-2-12 13 8z" fill="#581322"/><path d="m33 65-8 4 6 1z" fill="#e7c0ae"/><path d="m172 44-5 5-1-7z" fill="#7f7680"/><path d="m81 89 3-1 2 2z" fill="#11140e"/><path d="m193 48-12-1 14-6z" fill="#a49fa4"/><path d="m209 35-5 3-10-4z" fill="#7f7b91"/><path d="m221 16 3-6-4-1z" fill="#59431f"/><path d="m93 130 7-4 1-10z" fill="#b4b5c9"/><path d="m129 9-14 7-1-23z" fill="#b97467"/><path d="m74 129-4 20 25 8z" fill="#29423f"/></g></svg>