<svg xmlns="http://www.w3.org/2000/svg" version="1.1" width="1024" height="764">
<rect x="0" y="0" width="1024" height="764" fill="#6d6861" />
<g transform="scale(4.000000) translate(0.5 0.5)">
<polygon fill="#ffddc4" fill-opacity="0.501961" points="-6,115 1,-16 199,10" />
<polygon fill="#00191b" fill-opacity="0.501961" points="271,206 186,49 -16,186" />
<polygon fill="#fff8ee" fill-opacity="0.501961" points="-16,90 3,-16 92,2" />
<polygon fill="#b07b6c" fill-opacity="0.501961" points="120,-16 -16,131 271,2" />
<polygon fill="#001216" fill-opacity="0.501961" points="210,187 115,121 31,206" />
<polygon fill="#ffffff" fill-opacity="0.501961" points="271,36 271,-5 213,-6" />
<polygon fill="#5b584e" fill-opacity="0.501961" points="220,92 110,11 83,134" />
<polygon fill="#ad979f" fill-opacity="0.501961" points="135,-9 156,49 271,41" />
<polygon fill="#302622" fill-opacity="0.501961" points="255,62 144,66 232,37" />
<polygon fill="#ffebff" fill-opacity="0.501961" points="82,112 96,104 76,92" />
<polygon fill="#425c54" fill-opacity="0.501961" points="271,138 124,31 245,206" />
<polygon fill="#f2e4fa" fill-opacity="0.501961" points="109,119 82,128 91,133" />
<polygon fill="#f2af9b" fill-opacity="0.501961" points="60,-16 -16,97 105,27" />
<polygon fill="#325a54" fill-opacity="0.501961" points="87,110 13,206 -16,154" />
<polygon fill="#b0a992" fill-opacity="0.501961" points="271,64 247,107 222,69" />
<polygon fill="#fff3eb" fill-opacity="0.501961" points="38,1 3,68 -16,-10" />
<polygon fill="#6e4a20" fill-opacity="0.501961" points="242,12 183,-4 179,15" />
<polygon fill="#9e492d" fill-opacity="0.501961" points="105,-16 101,17 154,62" />
<polygon fill="#abafbe" fill-opacity="0.501961" points="246,46 214,30 271,29" />
<polygon fill="#523924" fill-opacity="0.501961" points="131,38 137,63 185,56" />
<polygon fill="#203d3b" fill-opacity="0.501961" points="222,206 132,75 96,105" />
<polygon fill="#9a8975" fill-opacity="0.501961" points="120,44 -15,150 -16,102" />
<polygon fill="#72000a" fill-opacity="0.501961" points="74,115 98,108 96,124" />
<polygon fill="#fbdcd5" fill-opacity="0.501961" points="265,3 200,-16 204,2" />
<polygon fill="#242216" fill-opacity="0.501961" points="236,9 250,28 233,28" />
<polygon fill="#ce8576" fill-opacity="0.501961" points="79,3 200,-15 150,34" />
<polygon fill="#970002" fill-opacity="0.501961" points="73,86 76,71 86,82" />
<polygon fill="#61766b" fill-opacity="0.501961" points="188,67 212,128 271,102" />
<polygon fill="#d4c9e8" fill-opacity="0.501961" points="82,108 90,83 94,108" />
<polygon fill="#00131b" fill-opacity="0.501961" points="103,120 189,206 117,187" />
<polygon fill="#c19784" fill-opacity="0.501961" points="-4,93 130,39 95,18" />
<polygon fill="#f8eae7" fill-opacity="0.501961" points="271,53 255,-16 242,8" />
<polygon fill="#fdcdc1" fill-opacity="0.501961" points="20,-11 89,-16 9,62" />
<polygon fill="#636066" fill-opacity="0.501961" points="232,58 179,33 243,39" />
<polygon fill="#384d49" fill-opacity="0.501961" points="271,150 125,73 244,206" />
<polygon fill="#1a3f3f" fill-opacity="0.501961" points="68,206 -16,200 99,135" />
<polygon fill="#a19599" fill-opacity="0.501961" points="179,53 237,22 139,34" />
<polygon fill="#455b53" fill-opacity="0.501961" points="72,94 86,132 -16,192" />
<polygon fill="#5d5e58" fill-opacity="0.501961" points="80,99 200,83 134,60" />
<polygon fill="#d7cbe0" fill-opacity="0.501961" points="89,129 98,127 81,122" />
<polygon fill="#312c27" fill-opacity="0.501961" points="150,68 229,65 207,49" />
<polygon fill="#2a140c" fill-opacity="0.501961" points="185,-16 226,-16 186,9" />
<polygon fill="#9b8283" fill-opacity="0.501961" points="114,119 93,137 99,117" />
<polygon fill="#fffdf8" fill-opacity="0.501961" points="11,-16 8,57 -16,16" />
<polygon fill="#dcab98" fill-opacity="0.501961" points="18,52 76,51 112,-16" />
<polygon fill="#163131" fill-opacity="0.501961" points="134,142 176,206 168,99" />
<polygon fill="#403b3c" fill-opacity="0.501961" points="200,37 193,38 206,50" />
<polygon fill="#4f5549" fill-opacity="0.501961" points="168,124 200,159 213,83" />
<polygon fill="#8b3747" fill-opacity="0.501961" points="67,98 87,98 88,84" />
<polygon fill="#ffb0b3" fill-opacity="0.501961" points="79,97 72,89 72,80" />
<polygon fill="#b46650" fill-opacity="0.501961" points="181,-16 93,23 112,-16" />
<polygon fill="#908176" fill-opacity="0.501961" points="88,86 85,45 126,51" />
<polygon fill="#88766f" fill-opacity="0.501961" points="194,7 177,47 226,16" />
<polygon fill="#415450" fill-opacity="0.501961" points="187,81 91,91 100,117" />
<polygon fill="#b79088" fill-opacity="0.501961" points="193,17 150,-16 141,40" />
<polygon fill="#bdd1e9" fill-opacity="0.501961" points="94,130 103,119 94,125" />
<polygon fill="#674431" fill-opacity="0.501961" points="126,28 133,53 136,26" />
<polygon fill="#46625e" fill-opacity="0.501961" points="271,179 271,129 162,73" />
<polygon fill="#3d3832" fill-opacity="0.501961" points="236,25 240,7 231,19" />
<polygon fill="#0e0f13" fill-opacity="0.501961" points="107,136 85,136 112,162" />
<polygon fill="#d1a298" fill-opacity="0.501961" points="121,18 132,9 167,44" />
<polygon fill="#7e8274" fill-opacity="0.501961" points="236,108 211,63 271,109" />
<polygon fill="#ada4a7" fill-opacity="0.501961" points="220,46 217,22 204,29" />
<polygon fill="#660b1e" fill-opacity="0.501961" points="93,126 76,108 97,117" />
<polygon fill="#4f5e55" fill-opacity="0.501961" points="100,133 33,119 7,139" />
<polygon fill="#bf9884" fill-opacity="0.501961" points="37,49 -16,123 113,28" />
<polygon fill="#cbb6c8" fill-opacity="0.501961" points="94,97 86,93 76,94" />
<polygon fill="#c3ae97" fill-opacity="0.501961" points="264,73 258,85 236,78" />
<polygon fill="#4c463d" fill-opacity="0.501961" points="237,15 256,36 249,21" />
<polygon fill="#715f53" fill-opacity="0.501961" points="158,61 123,64 193,92" />
<polygon fill="#450810" fill-opacity="0.501961" points="81,94 86,88 84,77" />
<polygon fill="#58545c" fill-opacity="0.501961" points="242,39 205,34 241,52" />
<polygon fill="#987670" fill-opacity="0.501961" points="198,-16 136,20 179,10" />
<polygon fill="#293b35" fill-opacity="0.501961" points="193,206 154,154 231,167" />
<polygon fill="#624d34" fill-opacity="0.501961" points="227,6 211,26 209,18" />
<polygon fill="#6d4836" fill-opacity="0.501961" points="103,132 102,112 115,118" />
<polygon fill="#403527" fill-opacity="0.501961" points="156,45 179,82 182,60" />
<polygon fill="#ffedd8" fill-opacity="0.501961" points="40,4 60,24 52,26" />
<polygon fill="#925641" fill-opacity="0.501961" points="120,18 103,28 107,7" />
<polygon fill="#fff8ea" fill-opacity="0.501961" points="230,-6 236,3 231,9" />
<polygon fill="#df9c8a" fill-opacity="0.501961" points="124,14 152,-16 170,2" />
<polygon fill="#dfb09e" fill-opacity="0.501961" points="32,52 20,24 73,26" />
<polygon fill="#717869" fill-opacity="0.501961" points="-16,163 -9,121 73,96" />
<polygon fill="#c5cee6" fill-opacity="0.501961" points="88,111 81,108 92,93" />
<polygon fill="#d3c8cb" fill-opacity="0.501961" points="246,37 258,40 243,45" />
<polygon fill="#998a77" fill-opacity="0.501961" points="78,71 -15,110 42,108" />
<polygon fill="#bdaaa4" fill-opacity="0.501961" points="219,38 213,12 223,30" />
<polygon fill="#ffc7b7" fill-opacity="0.501961" points="87,132 86,124 84,125" />
<polygon fill="#680b1e" fill-opacity="0.501961" points="97,104 91,125 82,121" />
<polygon fill="#676361" fill-opacity="0.501961" points="186,69 182,93 219,63" />
<polygon fill="#eeb1a0" fill-opacity="0.501961" points="84,-16 102,11 74,13" />
<polygon fill="#363544" fill-opacity="0.501961" points="265,57 251,42 250,48" />
<polygon fill="#5f5d50" fill-opacity="0.501961" points="85,139 68,100 83,114" />
<polygon fill="#926551" fill-opacity="0.501961" points="161,57 138,26 134,36" />
<polygon fill="#9a6940" fill-opacity="0.501961" points="200,16 208,6 175,8" />
<polygon fill="#948d99" fill-opacity="0.501961" points="196,26 171,48 198,49" />
<polygon fill="#2d4c4a" fill-opacity="0.501961" points="55,130 6,206 86,137" />
<polygon fill="#dbcfcc" fill-opacity="0.501961" points="241,16 244,-16 271,28" />
<polygon fill="#cba093" fill-opacity="0.501961" points="151,28 140,35 166,48" />
<polygon fill="#e75152" fill-opacity="0.501961" points="72,76 73,86 76,70" />
<polygon fill="#666d65" fill-opacity="0.501961" points="87,76 138,59 93,89" />
<polygon fill="#4d3d2d" fill-opacity="0.501961" points="135,42 186,74 153,67" />
<polygon fill="#523823" fill-opacity="0.501961" points="178,9 206,-16 200,6" />
<polygon fill="#db957b" fill-opacity="0.501961" points="6,64 -6,87 -16,81" />
<polygon fill="#6b4e34" fill-opacity="0.501961" points="151,42 141,60 123,44" />
<polygon fill="#d1d2e6" fill-opacity="0.501961" points="92,105 77,100 83,109" />
<polygon fill="#9e7467" fill-opacity="0.501961" points="144,24 135,10 158,22" />
<polygon fill="#fee0d3" fill-opacity="0.501961" points="27,29 15,61 -16,60" />
<polygon fill="#d5aea0" fill-opacity="0.501961" points="234,5 202,1 209,-7" />
<polygon fill="#a3744b" fill-opacity="0.501961" points="217,2 211,0 202,10" />
<polygon fill="#d6d5d8" fill-opacity="0.501961" points="208,43 203,44 206,41" />
<polygon fill="#b2c0d6" fill-opacity="0.501961" points="102,119 87,130 99,128" />
<polygon fill="#bdaead" fill-opacity="0.501961" points="180,50 179,56 176,46" />
<polygon fill="#8d7770" fill-opacity="0.501961" points="260,75 247,62 231,62" />
<polygon fill="#001b24" fill-opacity="0.501961" points="124,179 132,142 154,164" />
<polygon fill="#2f4745" fill-opacity="0.501961" points="135,86 168,119 207,104" />
<polygon fill="#a58a6f" fill-opacity="0.501961" points="211,22 226,21 241,5" />
<polygon fill="#324643" fill-opacity="0.501961" points="246,141 197,130 214,206" />
<polygon fill="#f3cabd" fill-opacity="0.501961" points="23,40 76,-16 11,20" />
<polygon fill="#808070" fill-opacity="0.501961" points="67,79 44,103 74,98" />
<polygon fill="#ffe0df" fill-opacity="0.501961" points="88,83 87,86 92,90" />
<polygon fill="#b18f7e" fill-opacity="0.501961" points="82,73 49,73 119,28" />
<polygon fill="#906c5e" fill-opacity="0.501961" points="107,55 132,62 123,35" />
<polygon fill="#5f6e66" fill-opacity="0.501961" points="271,128 233,124 196,72" />
<polygon fill="#3a5556" fill-opacity="0.501961" points="225,134 254,192 271,147" />
<polygon fill="#272827" fill-opacity="0.501961" points="195,50 212,56 170,73" />
<polygon fill="#b99d9c" fill-opacity="0.501961" points="197,30 163,17 180,11" />
<polygon fill="#6e5e63" fill-opacity="0.501961" points="230,45 252,46 271,65" />
<polygon fill="#897d82" fill-opacity="0.501961" points="151,52 215,11 190,41" />
<polygon fill="#203938" fill-opacity="0.501961" points="89,140 19,199 103,164" />
<polygon fill="#cb9763" fill-opacity="0.501961" points="153,69 156,71 154,76" />
<polygon fill="#484445" fill-opacity="0.501961" points="197,59 223,53 237,70" />
<polygon fill="#3d3a3e" fill-opacity="0.501961" points="203,41 198,37 198,48" />
<polygon fill="#9c8e92" fill-opacity="0.501961" points="216,37 200,36 200,5" />
<polygon fill="#a3653e" fill-opacity="0.501961" points="98,22 107,18 92,13" />
<polygon fill="#676d80" fill-opacity="0.501961" points="240,30 239,36 250,36" />
<polygon fill="#62625c" fill-opacity="0.501961" points="117,65 85,97 135,71" />
<polygon fill="#946452" fill-opacity="0.501961" points="106,113 99,117 115,123" />
<polygon fill="#e8bbad" fill-opacity="0.501961" points="90,-14 84,20 51,30" />
<polygon fill="#1f1515" fill-opacity="0.501961" points="100,135 117,120 115,137" />
<polygon fill="#ffe1d7" fill-opacity="0.501961" points="1,-16 31,-9 10,31" />
<polygon fill="#524539" fill-opacity="0.501961" points="187,57 209,49 182,50" />
<polygon fill="#37363f" fill-opacity="0.501961" points="210,37 213,41 206,38" />
<polygon fill="#2a3e3d" fill-opacity="0.501961" points="175,104 113,118 136,143" />
<polygon fill="#656059" fill-opacity="0.501961" points="198,49 215,51 216,40" />
<polygon fill="#efe6dd" fill-opacity="0.501961" points="244,43 243,40 249,42" />
<polygon fill="#584314" fill-opacity="0.501961" points="213,10 217,4 203,12" />
<polygon fill="#525055" fill-opacity="0.501961" points="87,134 106,126 97,137" />
<polygon fill="#383b42" fill-opacity="0.501961" points="223,42 216,36 238,42" />
<polygon fill="#951f30" fill-opacity="0.501961" points="90,83 79,74 70,83" />
<polygon fill="#ffabae" fill-opacity="0.501961" points="74,86 75,94 71,91" />
<polygon fill="#fde3db" fill-opacity="0.501961" points="220,5 218,-12 231,-13" />
<polygon fill="#d6aa92" fill-opacity="0.501961" points="54,30 82,59 33,43" />
<polygon fill="#a5a1ad" fill-opacity="0.501961" points="228,36 253,42 271,33" />
<polygon fill="#463c36" fill-opacity="0.501961" points="232,49 261,60 204,63" />
<polygon fill="#3c5655" fill-opacity="0.501961" points="2,206 -16,175 55,138" />
<polygon fill="#455a52" fill-opacity="0.501961" points="187,108 235,140 190,71" />
<polygon fill="#828474" fill-opacity="0.501961" points="245,95 205,80 251,80" />
<polygon fill="#b3a18c" fill-opacity="0.501961" points="233,71 238,86 249,78" />
<polygon fill="#97908f" fill-opacity="0.501961" points="231,15 222,19 227,30" />
<polygon fill="#e8bda9" fill-opacity="0.501961" points="19,86 6,87 -6,81" />
<polygon fill="#694c38" fill-opacity="0.501961" points="213,21 218,16 204,18" />
<polygon fill="#b18d78" fill-opacity="0.501961" points="-1,85 6,100 38,93" />
<polygon fill="#b17e4a" fill-opacity="0.501961" points="210,3 199,12 185,10" />
<polygon fill="#565144" fill-opacity="0.501961" points="199,137 178,142 171,120" />
<polygon fill="#6c7168" fill-opacity="0.501961" points="223,88 197,80 194,64" />
<polygon fill="#630a14" fill-opacity="0.501961" points="77,89 86,90 81,93" />
<polygon fill="#da9a84" fill-opacity="0.501961" points="109,-16 91,-11 89,32" />
<polygon fill="#786e63" fill-opacity="0.501961" points="85,83 117,52 142,56" />
<polygon fill="#5a655c" fill-opacity="0.501961" points="76,101 3,139 34,143" />
<polygon fill="#803235" fill-opacity="0.501961" points="73,84 84,91 79,94" />
<polygon fill="#48423b" fill-opacity="0.501961" points="233,27 232,18 248,19" />
<polygon fill="#ab6731" fill-opacity="0.501961" points="163,-15 136,3 171,-7" />
<polygon fill="#5a4e42" fill-opacity="0.501961" points="227,15 240,11 240,15" />
<polygon fill="#c0acae" fill-opacity="0.501961" points="238,0 248,-16 241,9" />
<polygon fill="#bec4d9" fill-opacity="0.501961" points="86,104 93,109 91,96" />
<polygon fill="#52493c" fill-opacity="0.501961" points="167,48 171,56 155,74" />
<polygon fill="#5a534d" fill-opacity="0.501961" points="226,19 233,19 241,29" />
<polygon fill="#e1b29f" fill-opacity="0.501961" points="37,32 36,54 9,80" />
<polygon fill="#aa9b89" fill-opacity="0.501961" points="183,87 186,90 188,86" />
<polygon fill="#a39395" fill-opacity="0.501961" points="166,31 179,51 172,54" />
<polygon fill="#574730" fill-opacity="0.501961" points="153,41 165,65 165,53" />
<polygon fill="#3c4e47" fill-opacity="0.501961" points="83,121 85,143 58,126" />
<polygon fill="#993533" fill-opacity="0.501961" points="88,122 82,111 81,121" />
<polygon fill="#fff5ee" fill-opacity="0.501961" points="14,49 -14,61 -5,-16" />
<polygon fill="#b4b6c1" fill-opacity="0.501961" points="271,-16 252,14 253,-16" />
<polygon fill="#a3a5aa" fill-opacity="0.501961" points="245,28 253,34 238,31" />
<polygon fill="#998876" fill-opacity="0.501961" points="24,119 75,69 17,99" />
<polygon fill="#b38c85" fill-opacity="0.501961" points="153,47 179,-1 153,5" />
<polygon fill="#38302a" fill-opacity="0.501961" points="240,30 237,19 240,19" />
<polygon fill="#e9dad1" fill-opacity="0.501961" points="240,6 251,8 256,28" />
<polygon fill="#c7c2ac" fill-opacity="0.501961" points="258,88 271,73 251,84" />
<polygon fill="#eacebd" fill-opacity="0.501961" points="5,115 -14,112 -9,108" />
<polygon fill="#b5a9aa" fill-opacity="0.501961" points="227,21 207,26 203,36" />
<polygon fill="#877a6a" fill-opacity="0.501961" points="28,96 15,127 5,110" />
<polygon fill="#590010" fill-opacity="0.501961" points="98,110 90,112 98,120" />
<polygon fill="#4c372c" fill-opacity="0.501961" points="147,37 151,45 146,60" />
<polygon fill="#69646d" fill-opacity="0.501961" points="206,30 194,33 201,34" />
<polygon fill="#cfb4ac" fill-opacity="0.501961" points="216,15 214,12 208,14" />
<polygon fill="#aba6af" fill-opacity="0.501961" points="201,36 205,42 210,42" />
<polygon fill="#44524f" fill-opacity="0.501961" points="162,82 94,104 135,75" />
<polygon fill="#645855" fill-opacity="0.501961" points="213,46 244,39 227,58" />
<polygon fill="#59454d" fill-opacity="0.501961" points="85,97 85,100 87,98" />
<polygon fill="#d1a797" fill-opacity="0.501961" points="52,51 81,20 105,22" />
<polygon fill="#b78979" fill-opacity="0.501961" points="97,30 114,26 111,48" />
<polygon fill="#9c877c" fill-opacity="0.501961" points="56,85 56,93 83,86" />
<polygon fill="#c4a591" fill-opacity="0.501961" points="31,84 54,84 40,88" />
<polygon fill="#f8cec5" fill-opacity="0.501961" points="201,-10 208,-5 204,3" />
<polygon fill="#815f52" fill-opacity="0.501961" points="83,135 86,130 99,135" />
<polygon fill="#383235" fill-opacity="0.501961" points="162,56 171,50 166,48" />
<polygon fill="#786d72" fill-opacity="0.501961" points="187,43 191,23 182,34" />
<polygon fill="#645a4e" fill-opacity="0.501961" points="137,73 170,52 140,85" />
<polygon fill="#d5a698" fill-opacity="0.501961" points="140,39 150,29 153,36" />
<polygon fill="#ab8e8a" fill-opacity="0.501961" points="184,17 170,37 143,30" />
<polygon fill="#4f4f52" fill-opacity="0.501961" points="180,72 175,86 207,66" />
<polygon fill="#bab6bb" fill-opacity="0.501961" points="253,30 266,-16 271,42" />
<polygon fill="#b57c5d" fill-opacity="0.501961" points="120,16 124,29 128,27" />
<polygon fill="#151f26" fill-opacity="0.501961" points="136,148 103,122 110,150" />
<polygon fill="#be7b73" fill-opacity="0.501961" points="112,-16 119,15 139,2" />
<polygon fill="#744a2c" fill-opacity="0.501961" points="106,26 108,21 121,24" />
<polygon fill="#142a26" fill-opacity="0.501961" points="110,164 45,206 144,205" />
<polygon fill="#82663c" fill-opacity="0.501961" points="227,13 224,1 234,15" />
<polygon fill="#ac7766" fill-opacity="0.501961" points="94,20 120,43 132,38" />
<polygon fill="#6a776e" fill-opacity="0.501961" points="269,116 245,99 225,110" />
<polygon fill="#c5bebf" fill-opacity="0.501961" points="243,18 254,9 250,19" />
<polygon fill="#9b6d60" fill-opacity="0.501961" points="160,12 149,8 154,6" />
<polygon fill="#e7a69a" fill-opacity="0.501961" points="125,19 143,3 124,12" />
<polygon fill="#88674f" fill-opacity="0.501961" points="153,48 146,43 141,48" />
<polygon fill="#656567" fill-opacity="0.501961" points="250,82 245,79 244,85" />
<polygon fill="#c49c87" fill-opacity="0.501961" points="34,51 75,49 91,67" />
<polygon fill="#816e65" fill-opacity="0.501961" points="225,68 237,71 247,63" />
<polygon fill="#6f5b51" fill-opacity="0.501961" points="197,23 206,15 207,19" />
<polygon fill="#c1afa9" fill-opacity="0.501961" points="190,39 197,42 194,45" />
<polygon fill="#d7cfe1" fill-opacity="0.501961" points="77,105 82,99 83,104" />
<polygon fill="#95795e" fill-opacity="0.501961" points="132,78 131,71 125,71" />
<polygon fill="#fad7c9" fill-opacity="0.501961" points="18,56 -16,55 -6,70" />
<polygon fill="#c39c94" fill-opacity="0.501961" points="164,13 198,17 162,23" />
<polygon fill="#877a71" fill-opacity="0.501961" points="202,65 239,84 223,69" />
<polygon fill="#f4dbcb" fill-opacity="0.501961" points="252,25 271,1 249,17" />
<polygon fill="#684437" fill-opacity="0.501961" points="141,38 142,46 138,37" />
<polygon fill="#79605f" fill-opacity="0.501961" points="169,9 180,8 182,4" />
<polygon fill="#4c5c53" fill-opacity="0.501961" points="76,102 83,121 40,142" />
<polygon fill="#58665b" fill-opacity="0.501961" points="184,87 172,92 153,66" />
<polygon fill="#41534a" fill-opacity="0.501961" points="99,113 111,114 94,98" />
<polygon fill="#ac9491" fill-opacity="0.501961" points="178,36 174,16 162,49" />
<polygon fill="#4e6159" fill-opacity="0.501961" points="209,81 187,86 242,137" />
<polygon fill="#686b60" fill-opacity="0.501961" points="44,127 75,101 68,87" />
<polygon fill="#958275" fill-opacity="0.501961" points="84,77 113,51 91,53" />
<polygon fill="#e3bdbf" fill-opacity="0.501961" points="89,92 87,82 92,88" />
<polygon fill="#40483d" fill-opacity="0.501961" points="204,131 213,173 186,153" />
<polygon fill="#363a41" fill-opacity="0.501961" points="260,50 253,44 248,47" />
<polygon fill="#a88d7b" fill-opacity="0.501961" points="35,75 64,79 62,59" />
<polygon fill="#071b20" fill-opacity="0.501961" points="190,206 143,203 86,134" />
<polygon fill="#486a67" fill-opacity="0.501961" points="262,103 243,134 271,172" />
<polygon fill="#4a3116" fill-opacity="0.501961" points="130,31 135,27 131,28" />
<polygon fill="#b16350" fill-opacity="0.501961" points="122,19 102,-16 103,3" />
<polygon fill="#302d29" fill-opacity="0.501961" points="195,68 181,53 173,68" />
<polygon fill="#f9cbb9" fill-opacity="0.501961" points="147,22 145,27 140,29" />
<polygon fill="#7e7777" fill-opacity="0.501961" points="223,21 229,25 217,30" />
<polygon fill="#676d7b" fill-opacity="0.501961" points="251,34 243,35 241,32" />
<polygon fill="#f6d4ca" fill-opacity="0.501961" points="18,13 50,-16 79,-1" />
<polygon fill="#3e3c3f" fill-opacity="0.501961" points="156,75 157,69 163,77" />
<polygon fill="#91816e" fill-opacity="0.501961" points="55,87 21,88 65,99" />
<polygon fill="#f0cab9" fill-opacity="0.501961" points="16,73 23,76 10,76" />
<polygon fill="#c3a48f" fill-opacity="0.501961" points="33,93 27,95 36,79" />
<polygon fill="#4f5b56" fill-opacity="0.501961" points="96,104 132,78 92,87" />
<polygon fill="#415a54" fill-opacity="0.501961" points="221,133 252,131 190,114" />
<polygon fill="#b4acb1" fill-opacity="0.501961" points="215,36 217,30 230,26" />
<polygon fill="#f8ebe2" fill-opacity="0.501961" points="246,1 244,12 240,13" />
<polygon fill="#b1927f" fill-opacity="0.501961" points="6,102 27,101 5,94" />
<polygon fill="#c1947e" fill-opacity="0.501961" points="21,78 1,82 30,87" />
<polygon fill="#f7d9cc" fill-opacity="0.501961" points="11,34 0,48 32,42" />
<polygon fill="#bbc2db" fill-opacity="0.501961" points="83,99 89,109 84,110" />
<polygon fill="#87818c" fill-opacity="0.501961" points="249,42 271,50 271,39" />
<polygon fill="#42352b" fill-opacity="0.501961" points="152,61 153,51 156,66" />
<polygon fill="#c5aaa5" fill-opacity="0.501961" points="166,41 165,48 155,39" />
<polygon fill="#293632" fill-opacity="0.501961" points="171,135 165,166 225,206" />
<polygon fill="#926f61" fill-opacity="0.501961" points="104,119 114,121 111,123" />
<polygon fill="#9b949f" fill-opacity="0.501961" points="202,22 198,28 216,39" />
<polygon fill="#d5ab99" fill-opacity="0.501961" points="20,74 37,74 28,82" />
<polygon fill="#736d5f" fill-opacity="0.501961" points="177,79 172,83 155,69" />
<polygon fill="#c4b1a4" fill-opacity="0.501961" points="218,41 220,45 217,44" />
<polygon fill="#fee8d1" fill-opacity="0.501961" points="45,15 57,21 53,29" />
<polygon fill="#44444a" fill-opacity="0.501961" points="232,42 214,40 225,38" />
<polygon fill="#c68978" fill-opacity="0.501961" points="155,9 128,15 135,7" />
<polygon fill="#8c735f" fill-opacity="0.501961" points="8,110 -13,108 -16,91" />
<polygon fill="#7d7a6d" fill-opacity="0.501961" points="108,71 96,61 85,82" />
<polygon fill="#a0816a" fill-opacity="0.501961" points="25,77 37,77 40,82" />
<polygon fill="#a87c5c" fill-opacity="0.501961" points="134,57 138,60 140,57" />
<polygon fill="#806937" fill-opacity="0.501961" points="154,58 155,55 147,56" />
<polygon fill="#581322" fill-opacity="0.501961" points="87,124 85,112 98,120" />
<polygon fill="#e7c0ae" fill-opacity="0.501961" points="33,65 25,69 31,70" />
<polygon fill="#7f7680" fill-opacity="0.501961" points="172,44 167,49 166,42" />
<polygon fill="#11140e" fill-opacity="0.501961" points="81,89 84,88 86,90" />
<polygon fill="#a49fa4" fill-opacity="0.501961" points="193,48 181,47 195,41" />
<polygon fill="#7f7b91" fill-opacity="0.501961" points="209,35 204,38 194,34" />
<polygon fill="#59431f" fill-opacity="0.501961" points="221,16 224,10 220,9" />
<polygon fill="#b4b5c9" fill-opacity="0.501961" points="93,130 100,126 101,116" />
<polygon fill="#b97467" fill-opacity="0.501961" points="129,9 115,16 114,-7" />
<polygon fill="#29423f" fill-opacity="0.501961" points="74,129 70,149 95,157" />
</g>
</svg>