<svg height="632" width="1024" xmlns="http://www.w3.org/2000/svg"><path d="m0 0h1024v632h-1024z" fill="#a7c1db"/><g fill="none" stroke-opacity=".501961" stroke-width=".5" transform="matrix(4 0 0 4 2 2)"><g stroke="#000"><path d="m198.192164 43.67879q-112.124177-.598896-80.042723 96.154442"/><path d="m80.119706 33.01646q85.381911 86.521868 114.337855 68.656442"/><path d="m78.800472 37.658347q2.391068-2.427514 108.098574 77.087904"/><path d="m117.918759 138.236148q-21.663361-68.198163 73.494919-94.415562"/><path d="m80.845617 39.041223q90.442253 64.815992 101.129675 75.838406"/><path d="m198.790709 97.170009q-31.759318 22.56768-117.621851-58.675489"/><path d="m119.6823 145.764976q-14.163878-109.437211 91.180593-100.117169"/><path d="m191.197031 41.531108q-98.372355 11.889089-73.428905 91.558355"/><path d="m83.523996 38.174346q83.975541 54.781798 103.031403 82.061398"/><path d="m197.280965 44.138572q-94.624634.092546-77.886053 101.615521"/><path d="m80.945265 37.4595q75.652657 37.127285 107.717783 101.247097"/><path d="m210.959821 98.784307q-28.408282 34.643366-130.677353-59.536439"/><path d="m117.480656 137.097935q-30.74365-99.471933 69.838691-87.960668"/><path d="m198.562322 44.054709q-81.950731 14.584427-79.309799 82.879595"/><path d="m115.935803 136.334677q-24.633004-65.092876 79.188702-95.152352"/><path d="m199.137983 95.486532q-38.774655 21.61219-108.919169-56.445196"/><path d="m184.020383 41.087492q-91.073105 19.336728-63.848006 95.66573"/><path d="m118.668871 125.801608q-28.36144-82.298325 77.402464-82.551201"/><path d="m179.696214 115.670469q-82.366565-78.341963-102.832328-79.164427"/><path d="m85.101437 45.681338q100.303199 62.903216 92.568972 86.316247"/><path d="m121.935341 132.987852q-29.316097-64.498691 66.417816-90.612729"/><path d="m71.06022 39.181319q110.739926 46.352706 102.498824 88.539884"/><path d="m190.653677 41.017289q-90.464222 46.945773-76.088739 92.062531"/><path d="m197.319633 96.265887q-20.242342 25.159961-104.089861-55.242408"/><path d="m112.188273 123.84876q-19.116773-92.746883 75.621623-69.200182"/><path d="m83.020966 36.713109q94.737933 54.949409 89.386168 90.26178"/><path d="m192.239319 45.528447q-74.67674 4.55023-75.849481 90.757494"/><path d="m185.834574 108.944282q-79.719392-39.765094-99.930713-71.644321"/><path d="m186.980552 46.632767q-83.404146 27.880443-74.353394 87.639046"/><path d="m121.142972 125.406883q-29.459622-65.197137 57.72915-83.827066"/><path d="m198.0408 94.482642q-24.262933 33.175666-116.295289-53.175233"/><path d="m122.43187 136.555547q-40.244801-87.247646 64.417998-89.62754"/><path d="m118.51557 122.10953q14.115357-70.625039 66.863957-80.367856"/><path d="m81.561306 38.738276q106.003879 64.953413 91.945 86.966665"/><path d="m113.807335 135.288123q-14.409367-92.652695 105.897376-97.767073"/><path d="m171.967727 127.083076q6.990654-27.286016-92.664751-87.93941"/><path d="m116.066971 125.586019q-25.651208-81.120636 56.039922-69.295967"/><path d="m196.429116 47.894535q-96.768617 3.336528-76.11108 81.688685"/><path d="m193.402952 116.542518q-104.52814-78.836685-108.994308-77.944909"/><path d="m108.48957 114.962558q-6.773803-85.379829 64.849372-57.147924"/><path d="m123.476513 129.735282q-20.875911-55.061681 66.090645-89.02674"/><path d="m83.949781 43.044679q55.129436 33.940591 31.430761 89.884127"/><path d="m81.813646 37.318553q20.556652 24.594672 112.333709 74.128145"/><path d="m114.078586 151.685675q-2.727883-103.440499 75.920772-105.970124"/><path d="m169.618015 57.065651q-70.932497-20.729395-59.865544 43.674987"/><path d="m175.508675 120.700886q5.151018-29.001371-87.59067-77.29553"/><path d="m187.204203 45.923723q-92.752732-3.724748-64.595923 71.712069"/><path d="m188.103313 45.212103q-69.550978 30.462497-73.562277 82.457581"/><path d="m117.316406 136.944131q-21.775463-47.98082 70.589351-96.779426"/><path d="m116.075479 129.897907q-21.948671-81.488819 69.341962-80.398192"/><path d="m80.773499 38.57755q90.455239 65.266743 104.016805 84.944943"/><path d="m197.314198 94.6024q-44.697498 22.191395-107.540251-56.177756"/><path d="m120.217811 114.687827q2.193166-45.85683 67.841781-68.94112"/><path d="m173.128529 54.392545q-71.284211-2.668601-54.579908 63.994204"/></g><path d="m188.943835 119.333325q-76.541554-76.176689-102.433526-75.166725" stroke="#000300"/><path d="m196.254607 99.287116q-31.372835 24.128263-112.774401-59.683145" stroke="#000"/><path d="m114.80491 135.378208q-23.118105-103.014823 74.158681-89.538593" stroke="#000b00"/><path d="m117.311089 123.756195q-14.334583-47.850361 65.984915-78.572698" stroke="#000"/><path d="m199.005852 96.762845q-30.631879 18.22434-116.111265-53.300258" stroke="#000"/><path d="m191.643298 101.602927q-16.140509 20.794565-106.350961-59.286293" stroke="#000"/><path d="m175.094895 51.110077q-91.541684-10.25427-56.261722 75.109893" stroke="#000"/><path d="m173.990374 135.261085q-13.101853-77.871585-71.497098-46.575623" stroke="#000"/><path d="m86.66456 43.972246q107.482317 58.860877 78.984942 97.527131" stroke="#000"/><path d="m190.989392 39.990266q-57.006167 7.897184-73.409605 89.479177" stroke="#000600"/><path d="m180.495646 50.143725q-71.774061 11.769026-57.620278 65.68339" stroke="#000"/><path d="m184.646958 122.499486q-58.960528-50.600804-96.131566-82.111232" stroke="#000"/><path d="m188.739157 41.199267q-93.566087 19.058502-72.857183 92.611721" stroke="#000"/><path d="m183.143213 113.898847q-54.682492-44.136668-99.637769-77.615036" stroke="#000"/><path d="m124.214644 114.208761q-25.434485-53.954319 44.109055-58.255919" stroke="#000"/><path d="m104.872963 88.084177q15.916636-57.105749 59.351402-27.499735" stroke="#000100"/><path d="m170.228447 55.660524q-41.109714 19.938434-91.408952-20.94556" stroke="#000"/><path d="m187.594732 113.621446q-99.483999-64.022392-105.642136-73.525272" stroke="#000"/><path d="m175.562344 124.839265q-4.265773-53.65226-74.651294-37.63743" stroke="#000"/><path d="m177.688762 46.302538q-78.539661 2.324021-63.360943 64.473847" stroke="#000"/><path d="m118.315669 121.238066q-2.011626-85.477959 60.425865-74.797036" stroke="#000600"/><path d="m182.400897 119.880875q-25.066241-47.279359-80.643899-35.335008" stroke="#000"/><path d="m103.848855 112.63377q53.859531-51.809605 56.593245-72.301181" stroke="#000"/><path d="m186.368423 47.611772q-94.932906 3.707355-65.316955 68.356006" stroke="#000"/><path d="m198.756682 96.105682q-36.529165.992307-27.194427 34.28002" stroke="#000"/><path d="m79.378036 39.045741q97.694083 82.49705 118.314222 59.841755" stroke="#000"/><path d="m168.437303 52.106132q-76.692004-6.839548-49.77598 65.642663" stroke="#000"/><path d="m115.229933 135.487757q14.93315-95.102295 74.370486-93.138741" stroke="#000400"/><path d="m84.756446 37.201941q89.374634 57.937756 93.865563 82.498789" stroke="#000"/><path d="m138.514328 48.645872q-42.143998 6.023478-22.812349 63.640893" stroke="#000"/><path d="m131.31225 47.86827q15.213231 75.433492 64.130527 47.956496" stroke="#000"/><path d="m116.586477 127.499558q-5.598436-72.452112 51.551344-69.891472" stroke="#000"/><path d="m174.017248 53.078262q-75.294491 19.49997-56.521828 78.390925" stroke="#000100"/><path d="m117.242809 133.977938q5.733018-86.786054 52.902263-80.521728" stroke="#000"/><path d="m168.352659 126.44132q28.212803-32.625545 30.004035-34.257791" stroke="#000"/><path d="m109.470698 111.798545q5.287944-64.183703 62.894524-53.860471" stroke="#000400"/><path d="m109.53658 84.98866q-9.335993-36.292027 53.392754-36.438874" stroke="#000300"/><path d="m101.975849 85.686118q50.105165-.965858 57.360559-46.454337" stroke="#000700"/><path d="m169.866385 125.287161q15.532798-25.383134-76.890337-83.620708" stroke="#000909"/><path d="m134.337635 44.505805q.096558 9.892174-22.369675 85.80312" stroke="#000"/><path d="m174.514343 129.498643q-3.428763-67.516456-73.861549-39.100675" stroke="#000b02"/><path d="m111.262104 123.109823q39.36035-64.490786 20.815593-78.069146" stroke="#000d00"/><path d="m198.399176 98.35196q-34.453972 11.996646-27.728232 28.997971" stroke="#000"/><path d="m193.253846 104.380849q-46.383434 2.293751-109.453183-67.043173" stroke="#000"/><path d="m103.93758 111.652739q29.955825-36.96758 58.769847-69.644108" stroke="#000800"/><path d="m169.774324 55.632705q-68.160083-12.158674-62.217941 34.740025" stroke="#0d1200"/><path d="m103.238697 85.723012q28.838394 18.380329 57.35606-48.635622" stroke="#000d00"/><path d="m171.972885 127.725177q10.64626-33.391843 24.567237-31.333512" stroke="#000"/><path d="m188.138364 105.399976q-55.344111-25.94623-97.907574-62.327357" stroke="#000200"/><path d="m96.071857 41.865771q56.983806 75.778338 98.633722 53.319147" stroke="#000803"/><path d="m157.680339 60.016953q-51.287596-18.253072-47.13174 37.391757" stroke="#000"/><path d="m191.07693 96.667885q-13.233533 15.14892-19.485353 35.464536" stroke="#000"/><path d="m190.77567 103.602561q-16.588082 16.171064-106.130333-63.775802" stroke="#000"/><path d="m123.64299 117.319791q-27.107876-45.130092 48.96294-71.601571" stroke="#020c00"/><path d="m136.464796 47.439603q-35.888596 27.451108-21.911343 86.387643" stroke="#000d04"/><path d="m160.453913 60.229549q-44.597581-17.020947-51.254298 54.718728" stroke="#000d00"/><path d="m-16 112.313993q76.194527-128.313993 191.229645-99.09984" stroke="#fff3ef"/><path d="m-9.510283 114.708976q24.131466-86.609128 187.279169-113.574199" stroke="#ffeeec"/><path d="m-16 115.29398q65.56677-131.29398 187.608451-104.961259" stroke="#fff1ee"/><path d="m-11.616434 106.834731q1.900973-49.276566 201.808609-105.597104" stroke="#ffeceb"/><path d="m106.916597 111.689555q46.359136-44.463372 25.129184-64.665615" stroke="#000100"/><path d="m170.510971 124.956592q-.900644-15.290133 30.317764-27.501966" stroke="#000"/><path d="m193.114879 43.110904q-51.365413 17.521879-90.863061 42.555767" stroke="#000a00"/><path d="m116.51715 126.279086q19.421224-44.256012-34.046107-86.050918" stroke="#000f06"/><path d="m173.02906 129.250534q-13.209127-30.089122 18.516725-32.621475" stroke="#060900"/><path d="m188.315421 106.828096q-28.154217-3.50548-99.211499-67.522564" stroke="#000402"/><path d="m11.894133 87.388579q72.702317-73.146478 166.345347-84.247974" stroke="#ffefee"/><path d="m188.488068 40.351656q-27.425275.72333-82.31958 69.713599" stroke="#041306"/><path d="m101.43997 51.653308q31.640771 14.044469 77.104653 62.250261" stroke="#000"/><path d="m2.539757 74.817151q111.353853-90.817151 181.117148-55.54431" stroke="#ffeeed"/><path d="m82.00469 36.742225q48.700385 36.273202 40.288907 76.278842" stroke="#000500"/><path d="m-16 89.239014q126.45568-39.057246 105.886709-98.401885" stroke="#fff6ef"/><path d="m173.692681 127.051943q-7.071821-23.879266 27.033917-30.232656" stroke="#000100"/><path d="m191.150034 42.478641q-61.929343 30.375385-91.730204 45.654296" stroke="#001206"/><path d="m81.583777 37.05539q36.183393 29.671404 84.218387 21.202696" stroke="#011004"/><path d="m182.849767 112.118033q-81.519762-52.653449-92.758739-72.939274" stroke="#000201"/><path d="m-11.57223 52.310894q79.541046 34.620187 106.154291-51.364" stroke="#fffaf3"/><path d="m6.256899 84.73148q41.018808-59.667252 168.185025-82.584273" stroke="#ffedec"/><path d="m.447406 64.706693q87.014079 12.161849 63.585654-71.510801" stroke="#fffcf3"/><path d="m110.916632 78.499677q67.360445 2.235832 58.407589 48.8952" stroke="#000400"/><path d="m171.428609 49.324182q-79.769151-2.211547-51.358057 67.376976" stroke="#000c00"/><path d="m36.101012 76.322289q8.777961-92.322289 135.977732-60.401409" stroke="#fff2ef"/><path d="m169.045145 12.83708q-154.382721 54.555399-169.048785-3.046193" stroke="#ffe8e9"/><path d="m135.593867 46.370263q-8.257229 64.176544-29.882258 60.894089" stroke="#000500"/><path d="m119.37952 120.482057q-9.516255-74.126197 55.691737-67.455635" stroke="#0c1707"/><path d="m175.222038 12.97031q-113.08112-28.97031-181.940039 85.689505" stroke="#ffedec"/><path d="m173.017017 129.429468q-1.329099-4.288585 19.825932-34.342472" stroke="#000a00"/><path d="m173.83442 6.440639q-140.166485-14.600503-129.218858 77.567991" stroke="#ffefed"/><path d="m.629517 61.371089q87.567018 11.263531 60.299737-75.671573" stroke="#fffdf5"/><path d="m99.450927 44.480337q12.021632 14.179662 14.454708 87.053948" stroke="#000f09"/><path d="m105.96253 87.385244q9.817604-34.118795 74.493028-44.236999" stroke="#011106"/><path d="m2.615504 91.859231q6.447724-82.696199 253.850906-99.821823" stroke="#ffe8ea"/><path d="m125.910169 97.642654q8.990654-17.023534-37.63886-48.606251" stroke="#00110f"/><path d="m177.422996 49.233224q-83.935998 15.824644-94.610357-8.26974" stroke="#09170b"/><path d="m197.389964 98.526382q-18.857733-6.777427-22.787327 28.695869" stroke="#000"/><path d="m11.195202 83.448953q4.934546-33.896715 164.95865-79.99408" stroke="#ffecec"/><path d="m-16 88.792599q111.283254-25.793965 105.253271-85.133866" stroke="#ffefeb"/><path d="m92.769515-1.17144q-21.042696 79.953551-93.374282 55.956993" stroke="#fff6f1"/><path d="m-12.861717 104.834043q12.561538-75.288385 217.654929-110.768355" stroke="#ffe9ea"/><path d="m117.957029 115.211634q-17.979637-50.957983 53.259715-59.280646" stroke="#001207"/><path d="m192.967472 98.305893q-32.761686 19.007051-66.767956-45.065009" stroke="#000d01"/><path d="m64.721808-10.34492q26.23113 91.724418-66.373117 69.324801" stroke="#fff9f2"/><path d="m81.930497-16q6.972554 109.903864-97.930497 73.19829" stroke="#fff2ee"/><path d="m-1.442342-2.904743q1.807632 47.863277 101.895974 69.584649" stroke="#ffeeed"/><path d="m151.434201 64.484347q-11.846203 17.754107-63.569318-18.180314" stroke="#000"/><path d="m-8.571223 56.676592q29.467641 1.642594 184.483737-49.234769" stroke="#ffe8e9"/><path d="m160.811285 62.434711q-39.543619-29.838116-53.946213 28.096195" stroke="#071509"/><path d="m-3.288163 80.986949q68.702768-52.332826 174.445109-75.861736" stroke="#ffe9eb"/><path d="m-16 60.020584q109.119003 32.727778 99.363746-59.901719" stroke="#ffebe9"/><path d="m168.169566 55.939781q-66.135598-7.256048-44.460464 53.979392" stroke="#0d1605"/><path d="m7.370526 80.423253q83.896861-43.404866 49.1341-89.112597" stroke="#fff8f2"/><path d="m171.571355 126.120811q-2.178513-7.694163 27.349846-29.676309" stroke="#000"/><path d="m103.225777.784635q-91.596164 33.293999-50.178653 85.095105" stroke="#fff0ed"/><path d="m134.896753 48.637165q21.260211 14.617979-22.53077 61.667288" stroke="#05160c"/><path d="m103.09776 108.284196q41.124264-39.027303 30.994888-61.723692" stroke="#071910"/><path d="m74.563274.974713q31.842441 62.260546-90.563274 88.377912" stroke="#ffebeb"/><path d="m167.897276 123.915352q15.446475-15.457153 20.601195-27.029135" stroke="#000400"/><path d="m77.47476-16q-28.050346 101.834269-93.47476 99.561026" stroke="#fff4f0"/><path d="m95.547638 48.589944q74.749806 65.944386 88.961183 58.749962" stroke="#000907"/><path d="m63.06986-4.363081q40.188857 62.056992-64.236366 88.190301" stroke="#ffefee"/><path d="m7.437528 54.109215q60.171322 24.135853 67.656552-68.643717" stroke="#fff9f2"/><path d="m153.957291 97.516902q-33.17263-32.480875-19.425205-51.882798" stroke="#000f0b"/><path d="m127.062845 96.221528q-8.674943-41.34064-31.42107-53.3937" stroke="#001214"/><path d="m160.066465 42.544002q6.050898 13.44289-55.852933 43.969895" stroke="#000d06"/><path d="m105.217658 50.410455q8.706461 42.638086 47.718369 14.82229" stroke="#000d0a"/><path d="m96.525856-14.915702q-41.882605 104.854177-89.416522 73.414334" stroke="#fff4f0"/><path d="m87.376006 37.803721q25.964587 17.910138 91.252614 76.985268" stroke="#001314"/><path d="m111.001946 93.14757q-12.13284-45.795782 30.673583-39.178245" stroke="#041106"/><path d="m163.420562 16.836024q-99.649466-24.561136-147.552589 66.898087" stroke="#ffebeb"/><path d="m109.18946 50.634925q-65.441376-53.451689-125.18946 60.47296" stroke="#ffebe7"/><path d="m1.807488-11.508972q-8.167074 52.121464 82.499616 70.477251" stroke="#fff0ee"/><path d="m-15.376772 80.798347q60.968207-55.496974 137.817559-87.463805" stroke="#ffe9ea"/><path d="m9.108126 75.224287q57.340163 29.145753 85.434264-79.576121" stroke="#ffe7e7"/><path d="m112.335565 120.830061q12.873622-51.157094 50.183203-76.447242" stroke="#001207"/><path d="m105.727422 108.708939q25.736767-41.628845 55.80861-66.357008" stroke="#0e1e16"/><path d="m180.58524 4.649064q-163.973811 69.720419-186.979977-8.363156" stroke="#f9e5e8"/><path d="m10.866436 74.560539q93.819035-19.050803 45.475117-85.394179" stroke="#fff2ef"/><path d="m138.205485 48.98828q-41.482561 29.776406-14.01954 62.218608" stroke="#02150e"/><path d="m68.098394 1.778729q35.128425 62.462163-65.362392 82.682365" stroke="#ffe9ea"/><path d="m176.986847 126.939882q2.428915-39.665281-90.306232-77.559902" stroke="#002025"/><path d="m101.587264 82.886217q42.784512 18.601593 40.653559-29.805344" stroke="#06170e"/><path d="m151.423016 64.21661q-8.952401 8.849433-60.419349-18.419018" stroke="#000e06"/><path d="m-7.645241 6.524404q45.381188 48.399455 90.635898 48.878083" stroke="#fff0ee"/><path d="m51.417543 89.867806q-41.11151-65.057007 53.1238-84.614228" stroke="#ffebeb"/><path d="m64.594752-9.397049q49.402251 77.669052-57.417652 93.578229" stroke="#ffe5e6"/><path d="m174.560854 126.888046q-7.489047-28.65891 23.031477-30.159294" stroke="#000b00"/><path d="m193.211622 97.496265q-25.111473-2.158261-22.044284 31.864864" stroke="#091606"/><path d="m56.288448 81.561086q-5.818645-85.162178 52.641372-76.735463" stroke="#fff1ee"/><path d="m163.524454 95.922542q-51.371795-15.582889-78.837183-56.544232" stroke="#001e22"/><path d="m10.676396 55.735408q76.351281 13.839751 57.804951-56.159019" stroke="#fff3f0"/><path d="m-7.166436 81.692452q53.627761-68.748643 91.509797-15.87756" stroke="#fff1ef"/><path d="m151.24082 64.053246q-41.953383 33.445041-48.155034 22.064476" stroke="#02150c"/><path d="m182.055798 47.858884q-74.271983 24.034729-66.137316 83.439893" stroke="#041911"/><path d="m9.068351 75.427563q52.350865.493232 64.839126-91.427563" stroke="#fff3f0"/><path d="m134.498922 45.739071q-1.238154 66.011319-28.231117 63.415688" stroke="#091a11"/><path d="m194.519583 97.026426q-.44288 10.034195-25.152221 15.712996" stroke="#000c02"/><path d="m118.870453 131.400074q-7.252133-54.920147-14.589427-83.246073" stroke="#0c201b"/><path d="m-4.588388 14.598595q65.682777 67.893577 97.718087 2.266409" stroke="#ffeeed"/><path d="m83.417225 66.097915q-99.417225-33.211055-80.548623-69.733864" stroke="#ffeaeb"/><path d="m85.734281 44.167458q72.162452 40.70332 92.569748 68.310232" stroke="#000c0d"/><path d="m167.371689 16.056442q-129.235243-29.328593-126.791019 68.4166" stroke="#ffeaec"/><path d="m10.337156 56.696815q66.320098 25.144745 68.225184-48.562002" stroke="#fff1ef"/><path d="m193.582095 101.383486q-12.41794.723704-20.962856 24.265116" stroke="#000"/><path d="m5.966806 86.643295q26.991273-62.636076 127.026832-53.102972" stroke="#ffeaeb"/><path d="m195.897032 96.409543q-42.39699 17.592078-71.879878-42.043554" stroke="#01160c"/><path d="m158.524108 41.914594q-36.775399 48.259272-72.5186-2.867844" stroke="#001a15"/><path d="m59.711524-3.200691q44.942323 63.214139-25.651047 88.15705" stroke="#ffe8ea"/><path d="m6.119286 71.666062q58.30169-58.157696 124.573848-39.903207" stroke="#ffeaeb"/><path d="m58.977836-14.021945q31.317996 88.946447-74.977836 80.983073" stroke="#fff0ee"/><path d="m49.087754 83.621242q-14.093407-99.621242 118.501733-73.562805" stroke="#fee7ea"/><path d="m111.52104 56.0858q10.683076 51.4675-4.993838 54.775404" stroke="#00110f"/><path d="m115.074862 113.917274q-19.484073-55.964864 24.027582-63.657664" stroke="#021712"/><path d="m-16 73.85218q108.905794 2.128612 78.583059-89.85218" stroke="#ffeded"/><path d="m136.675923 47.063546q5.569634 33.308247-32.389161 62.860076" stroke="#091c18"/><path d="m81.666849 40.766315q-28.872084 63.905792-74.702168 8.251904" stroke="#ffe8e9"/><path d="m91.618575 1.084344q-24.607946 99.543387-99.800017 45.699926" stroke="#ffe9eb"/><path d="m81.552203 38.389306q74.446733 53.315747 77.724093 62.601015" stroke="#000b10"/><path d="m170.515843 127.686211q6.625626-6.017589 15.32656-30.729145" stroke="#000c00"/><path d="m81.809216 65.526457q-2.737294-39.70307-97.809216-41.390084" stroke="#ffebec"/><path d="m.048354 84.992953q57.638626-40.279415 118.305273-100.992953" stroke="#ffe8ea"/><path d="m180.390749 42.276165q-23.794234 34.951699-49.974692 3.68316" stroke="#151e11"/><path d="m39.646647 84.113704q66.803647-23.925585 23.685923-92.262684" stroke="#fde3e5"/><path d="m128.141999 97.045491q-5.496615-16.420698-38.96133-56.829126" stroke="#011b1a"/><path d="m162.286571 43.160467q-3.644416 18.805081-57.227424 44.895884" stroke="#051b15"/><path d="m197.356175 98.492935q-27.889087 7.103994-21.81604 26.125591" stroke="#000c00"/><path d="m104.647869 46.359168q-65.69958-45.948062-80.700961 41.222863" stroke="#ffeaeb"/><path d="m4.523219 79.419225q90.858818.977711 63.451105-79.922783" stroke="#ffe6e9"/><path d="m148.611963 80.038926q27.058112 19.959488 37.976655 39.356376" stroke="#c4ac9d"/><path d="m139.301221 31.799737q-124.381799 12.371081-140.14965-17.714936" stroke="#f5e3e7"/><path d="m-.192681 6.695206q51.805544 70.63362 95.017148 14.64899" stroke="#ffe8ea"/><path d="m165.281302-.645492q-145.028475 36.383084-157.855782 68.32867" stroke="#f0e1e7"/><path d="m81.007621 65.078498q-11.16071-43.311667-73.138463-9.263544" stroke="#ffeeed"/><path d="m180.339451 108.558895q-52.791953-19.697532-98.30511-72.161408" stroke="#002023"/><path d="m-14.32662 53.84269q89.385751 29.076465 80.740885-58.608906" stroke="#fff0ef"/><path d="m109.51488 89.527705q28.517265-27.558751 75.917939-48.655548" stroke="#0b1a0f"/><path d="m142.587354 76.00673q16.347012 9.832608 32.987506 27.992853" stroke="#eeccbd"/><path d="m112.693919 92.278342q-8.264369-44.805234 59.305964-36.945961" stroke="#1d2214"/><path d="m169.180321 118.786434q.783149-26.846894 25.401373-18.977683" stroke="#1c1f0c"/><path d="m4.980091-16q-20.980091 54.159341 76.117926 82.196561" stroke="#fde4e8"/><path d="m155.387254 56.598913q-33.806117 45.368751-53.076807 25.073414" stroke="#0d1d15"/><path d="m106.041184 129.083262q51.729554 38.041639 87.720038-25.550109" stroke="#9fc6e4"/><path d="m155.192814 43.461195q8.615372-2.603372 9.634051 11.142758" stroke="#000c02"/><path d="m97.631087-6.700503q-53.958637 107.135565-109.661819 76.953735" stroke="#ffe7ea"/><path d="m95.509903 44.905932q42.655714 32.063518 58.502633 19.367888" stroke="#001513"/><path d="m178.629029 6.201959q-137.515988-17.300648-123.544908 70.863369" stroke="#f4e3e8"/><path d="m157.103191 66.443283q34.736304-26.744877 47.524897-21.195083" stroke="#adcce7"/><path d="m124.440103 105.874036q-12.359903 11.824868-20.517975-.339673" stroke="#011109"/><path d="m190.99127 102.588246q-57.569586 8.634982-57.321319-56.983302" stroke="#0a1e18"/><path d="m64.961414-7.273128q28.678079 91.453525-57.285196 81.937377" stroke="#ffe6e9"/><path d="m147.813232 57.676832q-31.497475 41.841574-45.270257 25.750147" stroke="#00110d"/><path d="m82.575454 59.789636q-36.116704 18.004644-69.620052-43.483349" stroke="#ffe7e9"/><path d="m-14.643984 49.097615q100.925683 28.954503 118.668308-60.280547" stroke="#fee6e8"/><path d="m117.672275 134.860225q3.757371-34.873589-11.345573-64.53174" stroke="#0d211d"/><path d="m96.622105 43.321589q69.699684 55.334241 84.655834 68.536145" stroke="#00181d"/><path d="m170.672276 115.667632q.005513-34.57695-61.21028-44.682086" stroke="#001718"/><path d="m83.402448 44.523395q-38.430632-20.257976-62.394011 40.23022" stroke="#ffedee"/><path d="m132.265218 46.99178q14.70927 7.725894-16.312537 63.979401" stroke="#0d1c13"/><path d="m171.346366 128.27929q-5.220476-17.171074 18.125872-32.083195" stroke="#111a0d"/><path d="m190.709404 42.408024q-90.467885 9.145258-70.966069 58.657882" stroke="#111e14"/><path d="m71.287536-3.114173q-1.452985 83.449843-27.838118 83.991507" stroke="#ffebec"/><path d="m-16 54.374065q102.73945 40.193094 99.069936-53.292485" stroke="#fde4e7"/><path d="m2.151054-16q-9.259565 53.858485 84.862558 81.49715" stroke="#fce5e9"/><path d="m86.917736 47.659934q49.340508 32.037329 73.877731 51.900665" stroke="#001319"/><path d="m-8.862393 2.784617q32.899488 76.66769 210.591909-12.159777" stroke="#ede0e7"/><path d="m199.966334 42.704902q-162.688701-36.034136-193.121973 33.967028" stroke="#e4dbe4"/><path d="m186.80417-15.302315q55.141995 150.31256-202.651702 188.099357" stroke="#a2c0db"/><path d="m171.349559-1.999084q-67.624451 67.717276-175.803594 17.460742" stroke="#efe0e5"/><path d="m175.67255 109.621q-8.603542-6.082114-37.9127-14.126347" stroke="#b8b6b6"/><path d="m193.241036 99.356614q-32.895091-5.518597-21.672356 29.243387" stroke="#232819"/><path d="m108.567893 112.03549q46.933548-47.979893 22.58882-64.295188" stroke="#102119"/><path d="m102.250663 1.806976q-75.616191 20.555166-63.729397 71.769659" stroke="#fee6e9"/><path d="m88.791533-16q-64.820021 107.443128-92.074665 92.946432" stroke="#ffe8eb"/><path d="m6.262777 60.769097q45.816818-39.753755 81.697493 12.372062" stroke="#fee8eb"/><path d="m173.532981 51.75331q-64.840407 15.821901-67.266562 38.294548" stroke="#0a1e17"/><path d="m195.31168 97.049761q-10.23005 8.459521-24.771257 22.481244" stroke="#000d04"/><path d="m117.490694 135.411019q5.553918 21.245207 1.816677 33.977871" stroke="#b8dbfc"/><path d="m152.44996 50.806101q-53.899001-.641125-31.43388 50.348713" stroke="#061a14"/><path d="m102.718447-1.180456q-75.721995 39.093022-40.997223 77.932253" stroke="#ffeaeb"/><path d="m119.274399 124.4634q-.47006-70.363553 31.688775-65.867528" stroke="#0e1d13"/><path d="m40.259231 79.556781q55.409264-22.049278 14.366275-92.21865" stroke="#ffe8e9"/><path d="m130.233133 89.482204q-15.500525-13.714292-27.462117-42.415759" stroke="#001517"/><path d="m53.658505 80.396358q36.254785-29.181531-10.205371-51.118321" stroke="#ffefee"/><path d="m122.516605 110.774607q-7.979235 6.731531-16.500609-4.670384" stroke="#000300"/><path d="m123.418011 100.076539q26.645769-9.928286 44.822861 8.244176" stroke="#b1bdcb"/><path d="m118.617355 128.783551q-31.502116-85.109948 56.367567-80.051205" stroke="#0f211b"/><path d="m84.32382 61.022239q-22.911091-46.421383-81.273372 8.807003" stroke="#ffe9eb"/></g></svg>