<svg xmlns="http://www.w3.org/2000/svg" version="1.1" width="1024" height="680">
<rect x="0" y="0" width="1024" height="680" fill="#40797d" />
<g transform="scale(4.000000) translate(0.5 0.5)">
<g transform="translate(51 52) rotate(309) scale(225 116)"><rect fill="#94b49b" fill-opacity="0.501961" x="-0.5" y="-0.5" width="1" height="1" /></g>
<g transform="translate(216 83) rotate(296) scale(231 50)"><rect fill="#002527" fill-opacity="0.501961" x="-0.5" y="-0.5" width="1" height="1" /></g>
<g transform="translate(182 149) rotate(105) scale(86 169)"><rect fill="#00407d" fill-opacity="0.501961" x="-0.5" y="-0.5" width="1" height="1" /></g>
<g transform="translate(123 135) rotate(161) scale(20 89)"><rect fill="#0075ff" fill-opacity="0.501961" x="-0.5" y="-0.5" width="1" height="1" /></g>
<g transform="translate(168 7) rotate(124) scale(71 88)"><rect fill="#a2ad95" fill-opacity="0.501961" x="-0.5" y="-0.5" width="1" height="1" /></g>
<g transform="translate(58 59) rotate(193) scale(49 40)"><rect fill="#bfd6b8" fill-opacity="0.501961" x="-0.5" y="-0.5" width="1" height="1" /></g>
<g transform="translate(56 145) rotate(36) scale(78 22)"><rect fill="#005e7e" fill-opacity="0.501961" x="-0.5" y="-0.5" width="1" height="1" /></g>
<g transform="translate(126 53) rotate(308) scale(30 85)"><rect fill="#12625b" fill-opacity="0.501961" x="-0.5" y="-0.5" width="1" height="1" /></g>
<g transform="translate(15 75) rotate(36) scale(13 44)"><rect fill="#004a4b" fill-opacity="0.501961" x="-0.5" y="-0.5" width="1" height="1" /></g>
<g transform="translate(209 156) rotate(90) scale(65 134)"><rect fill="#004240" fill-opacity="0.501961" x="-0.5" y="-0.5" width="1" height="1" /></g>
<g transform="translate(99 80) rotate(319) scale(18 33)"><rect fill="#00395d" fill-opacity="0.501961" x="-0.5" y="-0.5" width="1" height="1" /></g>
<g transform="translate(44 0) rotate(321) scale(77 52)"><rect fill="#b5ab76" fill-opacity="0.501961" x="-0.5" y="-0.5" width="1" height="1" /></g>
<g transform="translate(238 23) rotate(197) scale(30 70)"><rect fill="#032313" fill-opacity="0.501961" x="-0.5" y="-0.5" width="1" height="1" /></g>
<g transform="translate(173 78) rotate(376) scale(46 52)"><rect fill="#3698a4" fill-opacity="0.501961" x="-0.5" y="-0.5" width="1" height="1" /></g>
<g transform="translate(118 107) rotate(173) scale(11 71)"><rect fill="#05bcff" fill-opacity="0.501961" x="-0.5" y="-0.5" width="1" height="1" /></g>
<g transform="translate(133 158) rotate(118) scale(24 32)"><rect fill="#0019ee" fill-opacity="0.501961" x="-0.5" y="-0.5" width="1" height="1" /></g>
<g transform="translate(105 5) rotate(30) scale(72 23)"><rect fill="#c9ba97" fill-opacity="0.501961" x="-0.5" y="-0.5" width="1" height="1" /></g>
<g transform="translate(157 33) rotate(345) scale(72 17)"><rect fill="#1a7479" fill-opacity="0.501961" x="-0.5" y="-0.5" width="1" height="1" /></g>
<g transform="translate(92 146) rotate(28) scale(38 15)"><rect fill="#4fafce" fill-opacity="0.501961" x="-0.5" y="-0.5" width="1" height="1" /></g>
<g transform="translate(36 156) rotate(211) scale(89 24)"><rect fill="#6297c4" fill-opacity="0.501961" x="-0.5" y="-0.5" width="1" height="1" /></g>
<g transform="translate(51 91) rotate(281) scale(20 17)"><rect fill="#005666" fill-opacity="0.501961" x="-0.5" y="-0.5" width="1" height="1" /></g>
<g transform="translate(248 77) rotate(30) scale(23 87)"><rect fill="#598c81" fill-opacity="0.501961" x="-0.5" y="-0.5" width="1" height="1" /></g>
<g transform="translate(80 12) rotate(280) scale(22 11)"><rect fill="#00533d" fill-opacity="0.501961" x="-0.5" y="-0.5" width="1" height="1" /></g>
<g transform="translate(143 121) rotate(74) scale(46 21)"><rect fill="#034232" fill-opacity="0.501961" x="-0.5" y="-0.5" width="1" height="1" /></g>
<g transform="translate(75 38) rotate(295) scale(20 56)"><rect fill="#61a856" fill-opacity="0.501961" x="-0.5" y="-0.5" width="1" height="1" /></g>
<g transform="translate(171 4) rotate(356) scale(64 26)"><rect fill="#b0ac94" fill-opacity="0.501961" x="-0.5" y="-0.5" width="1" height="1" /></g>
<g transform="translate(73 106) rotate(348) scale(66 18)"><rect fill="#5fa8b9" fill-opacity="0.501961" x="-0.5" y="-0.5" width="1" height="1" /></g>
<g transform="translate(112 68) rotate(198) scale(29 8)"><rect fill="#96c2c7" fill-opacity="0.501961" x="-0.5" y="-0.5" width="1" height="1" /></g>
<g transform="translate(92 168) rotate(222) scale(53 16)"><rect fill="#004242" fill-opacity="0.501961" x="-0.5" y="-0.5" width="1" height="1" /></g>
<g transform="translate(0 91) rotate(359) scale(21 31)"><rect fill="#005b61" fill-opacity="0.501961" x="-0.5" y="-0.5" width="1" height="1" /></g>
<g transform="translate(60 1) rotate(114) scale(29 24)"><rect fill="#c7b9c0" fill-opacity="0.501961" x="-0.5" y="-0.5" width="1" height="1" /></g>
<g transform="translate(143 77) rotate(228) scale(35 45)"><rect fill="#13737c" fill-opacity="0.501961" x="-0.5" y="-0.5" width="1" height="1" /></g>
<g transform="translate(114 29) rotate(110) scale(30 16)"><rect fill="#90937d" fill-opacity="0.501961" x="-0.5" y="-0.5" width="1" height="1" /></g>
<g transform="translate(211 101) rotate(220) scale(29 109)"><rect fill="#04565b" fill-opacity="0.501961" x="-0.5" y="-0.5" width="1" height="1" /></g>
<g transform="translate(224 57) rotate(300) scale(129 9)"><rect fill="#052f26" fill-opacity="0.501961" x="-0.5" y="-0.5" width="1" height="1" /></g>
<g transform="translate(32 38) rotate(1) scale(43 31)"><rect fill="#83ba8d" fill-opacity="0.501961" x="-0.5" y="-0.5" width="1" height="1" /></g>
<g transform="translate(22 0) rotate(195) scale(44 31)"><rect fill="#7c804e" fill-opacity="0.501961" x="-0.5" y="-0.5" width="1" height="1" /></g>
<g transform="translate(169 31) rotate(118) scale(46 5)"><rect fill="#026268" fill-opacity="0.501961" x="-0.5" y="-0.5" width="1" height="1" /></g>
<g transform="translate(108 54) rotate(90) scale(5 24)"><rect fill="#00276d" fill-opacity="0.501961" x="-0.5" y="-0.5" width="1" height="1" /></g>
<g transform="translate(77 53) rotate(114) scale(7 29)"><rect fill="#d0e7c3" fill-opacity="0.501961" x="-0.5" y="-0.5" width="1" height="1" /></g>
<g transform="translate(160 161) rotate(47) scale(6 40)"><rect fill="#030e00" fill-opacity="0.501961" x="-0.5" y="-0.5" width="1" height="1" /></g>
<g transform="translate(117 155) rotate(-19) scale(6 62)"><rect fill="#000695" fill-opacity="0.501961" x="-0.5" y="-0.5" width="1" height="1" /></g>
<g transform="translate(34 127) rotate(133) scale(28 11)"><rect fill="#03666f" fill-opacity="0.501961" x="-0.5" y="-0.5" width="1" height="1" /></g>
<g transform="translate(100 89) rotate(226) scale(25 12)"><rect fill="#143d3c" fill-opacity="0.501961" x="-0.5" y="-0.5" width="1" height="1" /></g>
<g transform="translate(248 116) rotate(20) scale(40 13)"><rect fill="#529bbc" fill-opacity="0.501961" x="-0.5" y="-0.5" width="1" height="1" /></g>
<g transform="translate(184 51) rotate(210) scale(7 51)"><rect fill="#98b5b1" fill-opacity="0.501961" x="-0.5" y="-0.5" width="1" height="1" /></g>
<g transform="translate(22 112) rotate(289) scale(30 26)"><rect fill="#5d9ab6" fill-opacity="0.501961" x="-0.5" y="-0.5" width="1" height="1" /></g>
<g transform="translate(129 146) rotate(137) scale(16 39)"><rect fill="#025ff1" fill-opacity="0.501961" x="-0.5" y="-0.5" width="1" height="1" /></g>
<g transform="translate(254 162) rotate(237) scale(22 12)"><rect fill="#725342" fill-opacity="0.501961" x="-0.5" y="-0.5" width="1" height="1" /></g>
<g transform="translate(57 120) rotate(478) scale(23 21)"><rect fill="#82aac5" fill-opacity="0.501961" x="-0.5" y="-0.5" width="1" height="1" /></g>
<g transform="translate(178 30) rotate(86) scale(11 6)"><rect fill="#d9cac0" fill-opacity="0.501961" x="-0.5" y="-0.5" width="1" height="1" /></g>
<g transform="translate(213 44) rotate(218) scale(19 40)"><rect fill="#346f65" fill-opacity="0.501961" x="-0.5" y="-0.5" width="1" height="1" /></g>
<g transform="translate(102 25) rotate(75) scale(13 14)"><rect fill="#005759" fill-opacity="0.501961" x="-0.5" y="-0.5" width="1" height="1" /></g>
<g transform="translate(83 26) rotate(192) scale(14 6)"><rect fill="#e9d2bb" fill-opacity="0.501961" x="-0.5" y="-0.5" width="1" height="1" /></g>
<g transform="translate(75 125) rotate(114) scale(37 9)"><rect fill="#006e85" fill-opacity="0.501961" x="-0.5" y="-0.5" width="1" height="1" /></g>
<g transform="translate(255 41) rotate(272) scale(33 6)"><rect fill="#9b875e" fill-opacity="0.501961" x="-0.5" y="-0.5" width="1" height="1" /></g>
<g transform="translate(92 133) rotate(245) scale(27 23)"><rect fill="#5497a4" fill-opacity="0.501961" x="-0.5" y="-0.5" width="1" height="1" /></g>
<g transform="translate(225 120) rotate(230) scale(56 18)"><rect fill="#10657a" fill-opacity="0.501961" x="-0.5" y="-0.5" width="1" height="1" /></g>
<g transform="translate(202 24) rotate(1) scale(9 12)"><rect fill="#cec8bd" fill-opacity="0.501961" x="-0.5" y="-0.5" width="1" height="1" /></g>
<g transform="translate(153 46) rotate(74) scale(13 49)"><rect fill="#598067" fill-opacity="0.501961" x="-0.5" y="-0.5" width="1" height="1" /></g>
<g transform="translate(1 23) rotate(323) scale(13 32)"><rect fill="#38874a" fill-opacity="0.501961" x="-0.5" y="-0.5" width="1" height="1" /></g>
<g transform="translate(98 69) rotate(28) scale(26 6)"><rect fill="#007eb8" fill-opacity="0.501961" x="-0.5" y="-0.5" width="1" height="1" /></g>
<g transform="translate(148 32) rotate(195) scale(7 21)"><rect fill="#00737f" fill-opacity="0.501961" x="-0.5" y="-0.5" width="1" height="1" /></g>
<g transform="translate(35 133) rotate(35) scale(35 15)"><rect fill="#0d747c" fill-opacity="0.501961" x="-0.5" y="-0.5" width="1" height="1" /></g>
<g transform="translate(218 0) rotate(301) scale(29 20)"><rect fill="#485e51" fill-opacity="0.501961" x="-0.5" y="-0.5" width="1" height="1" /></g>
<g transform="translate(120 51) rotate(47) scale(10 21)"><rect fill="#004955" fill-opacity="0.501961" x="-0.5" y="-0.5" width="1" height="1" /></g>
<g transform="translate(66 169) rotate(227) scale(36 4)"><rect fill="#005e69" fill-opacity="0.501961" x="-0.5" y="-0.5" width="1" height="1" /></g>
<g transform="translate(169 112) rotate(301) scale(28 30)"><rect fill="#1d7d84" fill-opacity="0.501961" x="-0.5" y="-0.5" width="1" height="1" /></g>
<g transform="translate(154 73) rotate(207) scale(17 11)"><rect fill="#1b433d" fill-opacity="0.501961" x="-0.5" y="-0.5" width="1" height="1" /></g>
<g transform="translate(116 112) rotate(187) scale(8 24)"><rect fill="#09d1ff" fill-opacity="0.501961" x="-0.5" y="-0.5" width="1" height="1" /></g>
<g transform="translate(100 80) rotate(360) scale(5 5)"><rect fill="#c7edeb" fill-opacity="0.501961" x="-0.5" y="-0.5" width="1" height="1" /></g>
<g transform="translate(105 85) rotate(118) scale(14 6)"><rect fill="#000e0e" fill-opacity="0.501961" x="-0.5" y="-0.5" width="1" height="1" /></g>
<g transform="translate(144 62) rotate(330) scale(39 5)"><rect fill="#0993ba" fill-opacity="0.501961" x="-0.5" y="-0.5" width="1" height="1" /></g>
<g transform="translate(244 92) rotate(229) scale(10 32)"><rect fill="#769c81" fill-opacity="0.501961" x="-0.5" y="-0.5" width="1" height="1" /></g>
<g transform="translate(97 0) rotate(87) scale(10 56)"><rect fill="#c0bc9c" fill-opacity="0.501961" x="-0.5" y="-0.5" width="1" height="1" /></g>
<g transform="translate(80 82) rotate(128) scale(25 16)"><rect fill="#598882" fill-opacity="0.501961" x="-0.5" y="-0.5" width="1" height="1" /></g>
<g transform="translate(193 9) rotate(352) scale(2 32)"><rect fill="#0f6a6c" fill-opacity="0.501961" x="-0.5" y="-0.5" width="1" height="1" /></g>
<g transform="translate(30 87) rotate(375) scale(32 22)"><rect fill="#4a888f" fill-opacity="0.501961" x="-0.5" y="-0.5" width="1" height="1" /></g>
<g transform="translate(71 20) rotate(145) scale(29 5)"><rect fill="#1d5245" fill-opacity="0.501961" x="-0.5" y="-0.5" width="1" height="1" /></g>
<g transform="translate(193 133) rotate(-19) scale(9 21)"><rect fill="#0566a1" fill-opacity="0.501961" x="-0.5" y="-0.5" width="1" height="1" /></g>
<g transform="translate(43 66) rotate(300) scale(25 24)"><rect fill="#9cacbe" fill-opacity="0.501961" x="-0.5" y="-0.5" width="1" height="1" /></g>
<g transform="translate(139 13) rotate(324) scale(5 30)"><rect fill="#748153" fill-opacity="0.501961" x="-0.5" y="-0.5" width="1" height="1" /></g>
<g transform="translate(44 127) rotate(48) scale(5 23)"><rect fill="#5b9db0" fill-opacity="0.501961" x="-0.5" y="-0.5" width="1" height="1" /></g>
<g transform="translate(139 93) rotate(357) scale(38 9)"><rect fill="#028196" fill-opacity="0.501961" x="-0.5" y="-0.5" width="1" height="1" /></g>
<g transform="translate(243 168) rotate(234) scale(11 13)"><rect fill="#051710" fill-opacity="0.501961" x="-0.5" y="-0.5" width="1" height="1" /></g>
<g transform="translate(98 40) rotate(208) scale(32 5)"><rect fill="#4e5d3e" fill-opacity="0.501961" x="-0.5" y="-0.5" width="1" height="1" /></g>
<g transform="translate(242 69) rotate(137) scale(37 11)"><rect fill="#486f63" fill-opacity="0.501961" x="-0.5" y="-0.5" width="1" height="1" /></g>
<g transform="translate(23 64) rotate(31) scale(5 19)"><rect fill="#004a49" fill-opacity="0.501961" x="-0.5" y="-0.5" width="1" height="1" /></g>
<g transform="translate(31 160) rotate(-77) scale(33 39)"><rect fill="#6b95b2" fill-opacity="0.501961" x="-0.5" y="-0.5" width="1" height="1" /></g>
<g transform="translate(255 100) rotate(244) scale(7 21)"><rect fill="#003653" fill-opacity="0.501961" x="-0.5" y="-0.5" width="1" height="1" /></g>
<g transform="translate(50 91) rotate(432) scale(12 12)"><rect fill="#00505f" fill-opacity="0.501961" x="-0.5" y="-0.5" width="1" height="1" /></g>
<g transform="translate(133 30) rotate(130) scale(9 16)"><rect fill="#92b5a7" fill-opacity="0.501961" x="-0.5" y="-0.5" width="1" height="1" /></g>
<g transform="translate(32 106) rotate(362) scale(16 19)"><rect fill="#86abc0" fill-opacity="0.501961" x="-0.5" y="-0.5" width="1" height="1" /></g>
<g transform="translate(158 50) rotate(329) scale(6 19)"><rect fill="#79aea0" fill-opacity="0.501961" x="-0.5" y="-0.5" width="1" height="1" /></g>
<g transform="translate(189 27) rotate(319) scale(15 7)"><rect fill="#006c95" fill-opacity="0.501961" x="-0.5" y="-0.5" width="1" height="1" /></g>
<g transform="translate(214 7) rotate(20) scale(4 17)"><rect fill="#b0b1aa" fill-opacity="0.501961" x="-0.5" y="-0.5" width="1" height="1" /></g>
<g transform="translate(94 50) rotate(82) scale(3 32)"><rect fill="#87cc8a" fill-opacity="0.501961" x="-0.5" y="-0.5" width="1" height="1" /></g>
<g transform="translate(123 169) rotate(25) scale(20 11)"><rect fill="#000f62" fill-opacity="0.501961" x="-0.5" y="-0.5" width="1" height="1" /></g>
<g transform="translate(198 153) rotate(61) scale(11 29)"><rect fill="#032c28" fill-opacity="0.501961" x="-0.5" y="-0.5" width="1" height="1" /></g>
<g transform="translate(46 137) rotate(116) scale(15 8)"><rect fill="#004561" fill-opacity="0.501961" x="-0.5" y="-0.5" width="1" height="1" /></g>
<g transform="translate(185 5) rotate(245) scale(30 7)"><rect fill="#acbbb7" fill-opacity="0.501961" x="-0.5" y="-0.5" width="1" height="1" /></g>
<g transform="translate(157 11) rotate(222) scale(32 22)"><rect fill="#a4a789" fill-opacity="0.501961" x="-0.5" y="-0.5" width="1" height="1" /></g>
<g transform="translate(201 51) rotate(197) scale(20 29)"><rect fill="#3f857f" fill-opacity="0.501961" x="-0.5" y="-0.5" width="1" height="1" /></g>
<g transform="translate(167 60) rotate(214) scale(6 18)"><rect fill="#0079a2" fill-opacity="0.501961" x="-0.5" y="-0.5" width="1" height="1" /></g>
<g transform="translate(66 50) rotate(206) scale(47 4)"><rect fill="#d8d8c6" fill-opacity="0.501961" x="-0.5" y="-0.5" width="1" height="1" /></g>
<g transform="translate(6 55) rotate(201) scale(26 22)"><rect fill="#86a394" fill-opacity="0.501961" x="-0.5" y="-0.5" width="1" height="1" /></g>
<g transform="translate(71 43) rotate(23) scale(46 10)"><rect fill="#79c37b" fill-opacity="0.501961" x="-0.5" y="-0.5" width="1" height="1" /></g>
<g transform="translate(181 50) rotate(161) scale(19 25)"><rect fill="#70a2a1" fill-opacity="0.501961" x="-0.5" y="-0.5" width="1" height="1" /></g>
<g transform="translate(14 16) rotate(12) scale(15 19)"><rect fill="#a1a692" fill-opacity="0.501961" x="-0.5" y="-0.5" width="1" height="1" /></g>
<g transform="translate(96 106) rotate(102) scale(25 21)"><rect fill="#439599" fill-opacity="0.501961" x="-0.5" y="-0.5" width="1" height="1" /></g>
<g transform="translate(178 160) rotate(33) scale(1 29)"><rect fill="#0e7cab" fill-opacity="0.501961" x="-0.5" y="-0.5" width="1" height="1" /></g>
<g transform="translate(4 144) rotate(196) scale(70 11)"><rect fill="#8ba7b7" fill-opacity="0.501961" x="-0.5" y="-0.5" width="1" height="1" /></g>
<g transform="translate(73 101) rotate(109) scale(4 28)"><rect fill="#9dafb7" fill-opacity="0.501961" x="-0.5" y="-0.5" width="1" height="1" /></g>
<g transform="translate(135 84) rotate(77) scale(9 33)"><rect fill="#487d73" fill-opacity="0.501961" x="-0.5" y="-0.5" width="1" height="1" /></g>
<g transform="translate(209 163) rotate(42) scale(5 18)"><rect fill="#0068aa" fill-opacity="0.501961" x="-0.5" y="-0.5" width="1" height="1" /></g>
<g transform="translate(216 140) rotate(213) scale(5 20)"><rect fill="#017994" fill-opacity="0.501961" x="-0.5" y="-0.5" width="1" height="1" /></g>
<g transform="translate(63 94) rotate(42) scale(8 31)"><rect fill="#4d828b" fill-opacity="0.501961" x="-0.5" y="-0.5" width="1" height="1" /></g>
<g transform="translate(142 134) rotate(149) scale(12 27)"><rect fill="#133b3a" fill-opacity="0.501961" x="-0.5" y="-0.5" width="1" height="1" /></g>
<g transform="translate(109 69) rotate(25) scale(25 4)"><rect fill="#a5bbbb" fill-opacity="0.501961" x="-0.5" y="-0.5" width="1" height="1" /></g>
<g transform="translate(195 91) rotate(300) scale(32 9)"><rect fill="#197758" fill-opacity="0.501961" x="-0.5" y="-0.5" width="1" height="1" /></g>
<g transform="translate(200 10) rotate(169) scale(7 21)"><rect fill="#bbbfb3" fill-opacity="0.501961" x="-0.5" y="-0.5" width="1" height="1" /></g>
<g transform="translate(89 158) rotate(20) scale(27 12)"><rect fill="#026170" fill-opacity="0.501961" x="-0.5" y="-0.5" width="1" height="1" /></g>
<g transform="translate(104 153) rotate(228) scale(26 5)"><rect fill="#5b9db1" fill-opacity="0.501961" x="-0.5" y="-0.5" width="1" height="1" /></g>
<g transform="translate(68 162) rotate(315) scale(1 37)"><rect fill="#72b5ce" fill-opacity="0.501961" x="-0.5" y="-0.5" width="1" height="1" /></g>
<g transform="translate(255 68) rotate(212) scale(6 17)"><rect fill="#08393d" fill-opacity="0.501961" x="-0.5" y="-0.5" width="1" height="1" /></g>
<g transform="translate(39 122) rotate(249) scale(7 12)"><rect fill="#003f51" fill-opacity="0.501961" x="-0.5" y="-0.5" width="1" height="1" /></g>
<g transform="translate(16 163) rotate(105) scale(15 66)"><rect fill="#4d8298" fill-opacity="0.501961" x="-0.5" y="-0.5" width="1" height="1" /></g>
<g transform="translate(137 165) rotate(34) scale(11 27)"><rect fill="#031ecb" fill-opacity="0.501961" x="-0.5" y="-0.5" width="1" height="1" /></g>
<g transform="translate(255 147) rotate(193) scale(15 14)"><rect fill="#082922" fill-opacity="0.501961" x="-0.5" y="-0.5" width="1" height="1" /></g>
<g transform="translate(8 97) rotate(72) scale(25 6)"><rect fill="#006462" fill-opacity="0.501961" x="-0.5" y="-0.5" width="1" height="1" /></g>
<g transform="translate(174 90) rotate(122) scale(34 25)"><rect fill="#3f8a9f" fill-opacity="0.501961" x="-0.5" y="-0.5" width="1" height="1" /></g>
<g transform="translate(97 83) rotate(195) scale(2 18)"><rect fill="#001d25" fill-opacity="0.501961" x="-0.5" y="-0.5" width="1" height="1" /></g>
<g transform="translate(0 115) rotate(157) scale(19 41)"><rect fill="#698aa9" fill-opacity="0.501961" x="-0.5" y="-0.5" width="1" height="1" /></g>
<g transform="translate(100 84) rotate(126) scale(9 1)"><rect fill="#b1dbc0" fill-opacity="0.501961" x="-0.5" y="-0.5" width="1" height="1" /></g>
<g transform="translate(231 46) rotate(404) scale(30 25)"><rect fill="#0e3a37" fill-opacity="0.501961" x="-0.5" y="-0.5" width="1" height="1" /></g>
<g transform="translate(219 110) rotate(58) scale(4 26)"><rect fill="#104035" fill-opacity="0.501961" x="-0.5" y="-0.5" width="1" height="1" /></g>
<g transform="translate(163 36) rotate(256) scale(24 6)"><rect fill="#3a644e" fill-opacity="0.501961" x="-0.5" y="-0.5" width="1" height="1" /></g>
<g transform="translate(220 22) rotate(291) scale(31 9)"><rect fill="#184b4d" fill-opacity="0.501961" x="-0.5" y="-0.5" width="1" height="1" /></g>
<g transform="translate(170 138) rotate(297) scale(35 28)"><rect fill="#085050" fill-opacity="0.501961" x="-0.5" y="-0.5" width="1" height="1" /></g>
<g transform="translate(141 119) rotate(274) scale(7 23)"><rect fill="#046e8c" fill-opacity="0.501961" x="-0.5" y="-0.5" width="1" height="1" /></g>
<g transform="translate(194 167) rotate(305) scale(17 4)"><rect fill="#0164a5" fill-opacity="0.501961" x="-0.5" y="-0.5" width="1" height="1" /></g>
<g transform="translate(81 78) rotate(279) scale(4 20)"><rect fill="#a1b2a9" fill-opacity="0.501961" x="-0.5" y="-0.5" width="1" height="1" /></g>
<g transform="translate(66 16) rotate(-3) scale(8 14)"><rect fill="#99a27e" fill-opacity="0.501961" x="-0.5" y="-0.5" width="1" height="1" /></g>
<g transform="translate(91 70) rotate(38) scale(7 16)"><rect fill="#006d64" fill-opacity="0.501961" x="-0.5" y="-0.5" width="1" height="1" /></g>
<g transform="translate(237 110) rotate(158) scale(13 4)"><rect fill="#92b7c6" fill-opacity="0.501961" x="-0.5" y="-0.5" width="1" height="1" /></g>
<g transform="translate(110 78) rotate(150) scale(1 23)"><rect fill="#007fea" fill-opacity="0.501961" x="-0.5" y="-0.5" width="1" height="1" /></g>
<g transform="translate(129 55) rotate(38) scale(13 15)"><rect fill="#4c6644" fill-opacity="0.501961" x="-0.5" y="-0.5" width="1" height="1" /></g>
<g transform="translate(34 43) rotate(296) scale(11 41)"><rect fill="#75ad7c" fill-opacity="0.501961" x="-0.5" y="-0.5" width="1" height="1" /></g>
<g transform="translate(106 35) rotate(151) scale(16 4)"><rect fill="#aca38b" fill-opacity="0.501961" x="-0.5" y="-0.5" width="1" height="1" /></g>
<g transform="translate(143 105) rotate(140) scale(17 15)"><rect fill="#0a4743" fill-opacity="0.501961" x="-0.5" y="-0.5" width="1" height="1" /></g>
<g transform="translate(179 76) rotate(201) scale(6 22)"><rect fill="#057fa4" fill-opacity="0.501961" x="-0.5" y="-0.5" width="1" height="1" /></g>
<g transform="translate(108 108) rotate(102) scale(28 3)"><rect fill="#0036c2" fill-opacity="0.501961" x="-0.5" y="-0.5" width="1" height="1" /></g>
<g transform="translate(211 126) rotate(224) scale(1 58)"><rect fill="#05759a" fill-opacity="0.501961" x="-0.5" y="-0.5" width="1" height="1" /></g>
<g transform="translate(90 18) rotate(267) scale(28 4)"><rect fill="#b4afa0" fill-opacity="0.501961" x="-0.5" y="-0.5" width="1" height="1" /></g>
<g transform="translate(99 130) rotate(308) scale(13 7)"><rect fill="#0d6665" fill-opacity="0.501961" x="-0.5" y="-0.5" width="1" height="1" /></g>
<g transform="translate(239 88) rotate(320) scale(61 5)"><rect fill="#347878" fill-opacity="0.501961" x="-0.5" y="-0.5" width="1" height="1" /></g>
<g transform="translate(218 127) rotate(162) scale(30 7)"><rect fill="#0c4943" fill-opacity="0.501961" x="-0.5" y="-0.5" width="1" height="1" /></g>
<g transform="translate(66 141) rotate(218) scale(3 20)"><rect fill="#004351" fill-opacity="0.501961" x="-0.5" y="-0.5" width="1" height="1" /></g>
<g transform="translate(128 134) rotate(246) scale(28 6)"><rect fill="#0462fb" fill-opacity="0.501961" x="-0.5" y="-0.5" width="1" height="1" /></g>
<g transform="translate(77 138) rotate(309) scale(27 4)"><rect fill="#479eae" fill-opacity="0.501961" x="-0.5" y="-0.5" width="1" height="1" /></g>
<g transform="translate(18 127) rotate(15) scale(7 25)"><rect fill="#33828b" fill-opacity="0.501961" x="-0.5" y="-0.5" width="1" height="1" /></g>
<g transform="translate(220 154) rotate(152) scale(21 20)"><rect fill="#004145" fill-opacity="0.501961" x="-0.5" y="-0.5" width="1" height="1" /></g>
<g transform="translate(151 41) rotate(34) scale(5 31)"><rect fill="#6e8d77" fill-opacity="0.501961" x="-0.5" y="-0.5" width="1" height="1" /></g>
<g transform="translate(246 111) rotate(323) scale(27 3)"><rect fill="#0e7b9c" fill-opacity="0.501961" x="-0.5" y="-0.5" width="1" height="1" /></g>
<g transform="translate(58 137) rotate(138) scale(35 6)"><rect fill="#1c859a" fill-opacity="0.501961" x="-0.5" y="-0.5" width="1" height="1" /></g>
<g transform="translate(212 107) rotate(47) scale(2 19)"><rect fill="#0686b3" fill-opacity="0.501961" x="-0.5" y="-0.5" width="1" height="1" /></g>
<g transform="translate(155 6) rotate(43) scale(23 4)"><rect fill="#7e8261" fill-opacity="0.501961" x="-0.5" y="-0.5" width="1" height="1" /></g>
<g transform="translate(163 145) rotate(42) scale(3 34)"><rect fill="#0f747a" fill-opacity="0.501961" x="-0.5" y="-0.5" width="1" height="1" /></g>
<g transform="translate(0 18) rotate(328) scale(6 13)"><rect fill="#005052" fill-opacity="0.501961" x="-0.5" y="-0.5" width="1" height="1" /></g>
<g transform="translate(118 130) rotate(247) scale(41 8)"><rect fill="#078dec" fill-opacity="0.501961" x="-0.5" y="-0.5" width="1" height="1" /></g>
<g transform="translate(255 0) rotate(292) scale(42 22)"><rect fill="#102215" fill-opacity="0.501961" x="-0.5" y="-0.5" width="1" height="1" /></g>
<g transform="translate(116 55) rotate(128) scale(1 12)"><rect fill="#037cd2" fill-opacity="0.501961" x="-0.5" y="-0.5" width="1" height="1" /></g>
<g transform="translate(80 15) rotate(258) scale(12 9)"><rect fill="#004a59" fill-opacity="0.501961" x="-0.5" y="-0.5" width="1" height="1" /></g>
<g transform="translate(59 116) rotate(104) scale(8 19)"><rect fill="#a7b7b6" fill-opacity="0.501961" x="-0.5" y="-0.5" width="1" height="1" /></g>
<g transform="translate(200 72) rotate(117) scale(17 3)"><rect fill="#0f3e25" fill-opacity="0.501961" x="-0.5" y="-0.5" width="1" height="1" /></g>
<g transform="translate(164 2) rotate(146) scale(8 6)"><rect fill="#ded6d0" fill-opacity="0.501961" x="-0.5" y="-0.5" width="1" height="1" /></g>
<g transform="translate(120 66) rotate(286) scale(8 15)"><rect fill="#58968c" fill-opacity="0.501961" x="-0.5" y="-0.5" width="1" height="1" /></g>
<g transform="translate(142 61) rotate(157) scale(6 16)"><rect fill="#005a58" fill-opacity="0.501961" x="-0.5" y="-0.5" width="1" height="1" /></g>
<g transform="translate(176 8) rotate(140) scale(4 18)"><rect fill="#567673" fill-opacity="0.501961" x="-0.5" y="-0.5" width="1" height="1" /></g>
<g transform="translate(0 163) rotate(196) scale(8 22)"><rect fill="#268c55" fill-opacity="0.501961" x="-0.5" y="-0.5" width="1" height="1" /></g>
<g transform="translate(172 25) rotate(201) scale(9 13)"><rect fill="#01769d" fill-opacity="0.501961" x="-0.5" y="-0.5" width="1" height="1" /></g>
<g transform="translate(243 123) rotate(114) scale(10 38)"><rect fill="#337482" fill-opacity="0.501961" x="-0.5" y="-0.5" width="1" height="1" /></g>
<g transform="translate(116 92) rotate(79) scale(22 4)"><rect fill="#07c8f1" fill-opacity="0.501961" x="-0.5" y="-0.5" width="1" height="1" /></g>
<g transform="translate(113 151) rotate(346) scale(1 64)"><rect fill="#001d69" fill-opacity="0.501961" x="-0.5" y="-0.5" width="1" height="1" /></g>
<g transform="translate(100 45) rotate(113) scale(3 32)"><rect fill="#327246" fill-opacity="0.501961" x="-0.5" y="-0.5" width="1" height="1" /></g>
<g transform="translate(55 74) rotate(279) scale(3 35)"><rect fill="#bfc0c9" fill-opacity="0.501961" x="-0.5" y="-0.5" width="1" height="1" /></g>
<g transform="translate(198 44) rotate(210) scale(4 16)"><rect fill="#06669d" fill-opacity="0.501961" x="-0.5" y="-0.5" width="1" height="1" /></g>
<g transform="translate(26 39) rotate(286) scale(24 11)"><rect fill="#8fbd9f" fill-opacity="0.501961" x="-0.5" y="-0.5" width="1" height="1" /></g>
<g transform="translate(24 114) rotate(240) scale(52 5)"><rect fill="#539399" fill-opacity="0.501961" x="-0.5" y="-0.5" width="1" height="1" /></g>
<g transform="translate(99 169) rotate(13) scale(38 9)"><rect fill="#004b46" fill-opacity="0.501961" x="-0.5" y="-0.5" width="1" height="1" /></g>
<g transform="translate(235 140) rotate(132) scale(24 3)"><rect fill="#006f99" fill-opacity="0.501961" x="-0.5" y="-0.5" width="1" height="1" /></g>
<g transform="translate(64 22) rotate(104) scale(4 24)"><rect fill="#727552" fill-opacity="0.501961" x="-0.5" y="-0.5" width="1" height="1" /></g>
<g transform="translate(129 16) rotate(127) scale(12 28)"><rect fill="#b1b7a0" fill-opacity="0.501961" x="-0.5" y="-0.5" width="1" height="1" /></g>
<g transform="translate(135 4) rotate(116) scale(12 3)"><rect fill="#31694f" fill-opacity="0.501961" x="-0.5" y="-0.5" width="1" height="1" /></g>
<g transform="translate(187 73) rotate(10) scale(7 30)"><rect fill="#619284" fill-opacity="0.501961" x="-0.5" y="-0.5" width="1" height="1" /></g>
<g transform="translate(38 0) rotate(34) scale(10 20)"><rect fill="#667345" fill-opacity="0.501961" x="-0.5" y="-0.5" width="1" height="1" /></g>
<g transform="translate(8 39) rotate(116) scale(34 15)"><rect fill="#6ba475" fill-opacity="0.501961" x="-0.5" y="-0.5" width="1" height="1" /></g>
<g transform="translate(195 32) rotate(118) scale(27 2)"><rect fill="#b7bcba" fill-opacity="0.501961" x="-0.5" y="-0.5" width="1" height="1" /></g>
<g transform="translate(248 41) rotate(117) scale(10 12)"><rect fill="#214738" fill-opacity="0.501961" x="-0.5" y="-0.5" width="1" height="1" /></g>
<g transform="translate(169 104) rotate(203) scale(7 13)"><rect fill="#006796" fill-opacity="0.501961" x="-0.5" y="-0.5" width="1" height="1" /></g>
<g transform="translate(128 39) rotate(215) scale(7 8)"><rect fill="#006f8d" fill-opacity="0.501961" x="-0.5" y="-0.5" width="1" height="1" /></g>
<g transform="translate(112 138) rotate(341) scale(1 36)"><rect fill="#0032c5" fill-opacity="0.501961" x="-0.5" y="-0.5" width="1" height="1" /></g>
<g transform="translate(104 113) rotate(190) scale(3 28)"><rect fill="#1b7877" fill-opacity="0.501961" x="-0.5" y="-0.5" width="1" height="1" /></g>
<g transform="translate(128 106) rotate(332) scale(8 16)"><rect fill="#196456" fill-opacity="0.501961" x="-0.5" y="-0.5" width="1" height="1" /></g>
<g transform="translate(90 146) rotate(-1) scale(22 7)"><rect fill="#45a5c8" fill-opacity="0.501961" x="-0.5" y="-0.5" width="1" height="1" /></g>
<g transform="translate(179 40) rotate(185) scale(4 34)"><rect fill="#94a7a1" fill-opacity="0.501961" x="-0.5" y="-0.5" width="1" height="1" /></g>
<g transform="translate(86 11) rotate(260) scale(28 4)"><rect fill="#708e71" fill-opacity="0.501961" x="-0.5" y="-0.5" width="1" height="1" /></g>
<g transform="translate(80 149) rotate(346) scale(2 22)"><rect fill="#018188" fill-opacity="0.501961" x="-0.5" y="-0.5" width="1" height="1" /></g>
<g transform="translate(166 79) rotate(148) scale(10 29)"><rect fill="#347580" fill-opacity="0.501961" x="-0.5" y="-0.5" width="1" height="1" /></g>
<g transform="translate(103 75) rotate(201) scale(18 1)"><rect fill="#003096" fill-opacity="0.501961" x="-0.5" y="-0.5" width="1" height="1" /></g>
<g transform="translate(196 26) rotate(126) scale(4 42)"><rect fill="#628f8c" fill-opacity="0.501961" x="-0.5" y="-0.5" width="1" height="1" /></g>
<g transform="translate(152 57) rotate(163) scale(13 11)"><rect fill="#2494b3" fill-opacity="0.501961" x="-0.5" y="-0.5" width="1" height="1" /></g>
<g transform="translate(208 28) rotate(103) scale(48 2)"><rect fill="#7e8a7b" fill-opacity="0.501961" x="-0.5" y="-0.5" width="1" height="1" /></g>
<g transform="translate(89 122) rotate(155) scale(26 6)"><rect fill="#698a8c" fill-opacity="0.501961" x="-0.5" y="-0.5" width="1" height="1" /></g>
<g transform="translate(116 38) rotate(210) scale(9 1)"><rect fill="#b5ccbf" fill-opacity="0.501961" x="-0.5" y="-0.5" width="1" height="1" /></g>
<g transform="translate(217 74) rotate(286) scale(32 19)"><rect fill="#06403d" fill-opacity="0.501961" x="-0.5" y="-0.5" width="1" height="1" /></g>
<g transform="translate(101 24) rotate(256) scale(13 6)"><rect fill="#004e59" fill-opacity="0.501961" x="-0.5" y="-0.5" width="1" height="1" /></g>
<g transform="translate(84 77) rotate(12) scale(3 35)"><rect fill="#448b79" fill-opacity="0.501961" x="-0.5" y="-0.5" width="1" height="1" /></g>
<g transform="translate(108 56) rotate(15) scale(22 1)"><rect fill="#002032" fill-opacity="0.501961" x="-0.5" y="-0.5" width="1" height="1" /></g>
<g transform="translate(235 162) rotate(46) scale(5 16)"><rect fill="#046e87" fill-opacity="0.501961" x="-0.5" y="-0.5" width="1" height="1" /></g>
<g transform="translate(102 71) rotate(59) scale(1 9)"><rect fill="#009bff" fill-opacity="0.501961" x="-0.5" y="-0.5" width="1" height="1" /></g>
<g transform="translate(82 102) rotate(103) scale(1 44)"><rect fill="#95b6bc" fill-opacity="0.501961" x="-0.5" y="-0.5" width="1" height="1" /></g>
<g transform="translate(101 77) rotate(142) scale(3 1)"><rect fill="#e0ffff" fill-opacity="0.501961" x="-0.5" y="-0.5" width="1" height="1" /></g>
<g transform="translate(150 97) rotate(326) scale(12 2)"><rect fill="#0071ab" fill-opacity="0.501961" x="-0.5" y="-0.5" width="1" height="1" /></g>
<g transform="translate(123 82) rotate(130) scale(3 21)"><rect fill="#0f6260" fill-opacity="0.501961" x="-0.5" y="-0.5" width="1" height="1" /></g>
<g transform="translate(38 87) rotate(67) scale(4 44)"><rect fill="#45887d" fill-opacity="0.501961" x="-0.5" y="-0.5" width="1" height="1" /></g>
<g transform="translate(110 88) rotate(85) scale(20 3)"><rect fill="#002d77" fill-opacity="0.501961" x="-0.5" y="-0.5" width="1" height="1" /></g>
<g transform="translate(255 163) rotate(144) scale(9 14)"><rect fill="#5f6e74" fill-opacity="0.501961" x="-0.5" y="-0.5" width="1" height="1" /></g>
<g transform="translate(71 62) rotate(190) scale(5 15)"><rect fill="#669b8c" fill-opacity="0.501961" x="-0.5" y="-0.5" width="1" height="1" /></g>
<g transform="translate(175 85) rotate(162) scale(1 25)"><rect fill="#67a7bd" fill-opacity="0.501961" x="-0.5" y="-0.5" width="1" height="1" /></g>
<g transform="translate(150 136) rotate(147) scale(26 23)"><rect fill="#124144" fill-opacity="0.501961" x="-0.5" y="-0.5" width="1" height="1" /></g>
<g transform="translate(208 0) rotate(294) scale(16 6)"><rect fill="#236454" fill-opacity="0.501961" x="-0.5" y="-0.5" width="1" height="1" /></g>
<g transform="translate(215 122) rotate(126) scale(16 5)"><rect fill="#027a96" fill-opacity="0.501961" x="-0.5" y="-0.5" width="1" height="1" /></g>
<g transform="translate(186 129) rotate(110) scale(34 10)"><rect fill="#023c48" fill-opacity="0.501961" x="-0.5" y="-0.5" width="1" height="1" /></g>
<g transform="translate(71 28) rotate(351) scale(21 2)"><rect fill="#97a980" fill-opacity="0.501961" x="-0.5" y="-0.5" width="1" height="1" /></g>
<g transform="translate(208 137) rotate(175) scale(6 31)"><rect fill="#0a3d39" fill-opacity="0.501961" x="-0.5" y="-0.5" width="1" height="1" /></g>
<g transform="translate(59 133) rotate(106) scale(6 15)"><rect fill="#57a1be" fill-opacity="0.501961" x="-0.5" y="-0.5" width="1" height="1" /></g>
<g transform="translate(189 28) rotate(304) scale(18 4)"><rect fill="#00668a" fill-opacity="0.501961" x="-0.5" y="-0.5" width="1" height="1" /></g>
<g transform="translate(5 72) rotate(75) scale(7 16)"><rect fill="#4d8381" fill-opacity="0.501961" x="-0.5" y="-0.5" width="1" height="1" /></g>
<g transform="translate(238 78) rotate(322) scale(15 1)"><rect fill="#629c95" fill-opacity="0.501961" x="-0.5" y="-0.5" width="1" height="1" /></g>
<g transform="translate(35 84) rotate(333) scale(19 3)"><rect fill="#7ba8b3" fill-opacity="0.501961" x="-0.5" y="-0.5" width="1" height="1" /></g>
<g transform="translate(87 83) rotate(101) scale(9 6)"><rect fill="#94a297" fill-opacity="0.501961" x="-0.5" y="-0.5" width="1" height="1" /></g>
<g transform="translate(3 64) rotate(89) scale(5 13)"><rect fill="#b4a8b1" fill-opacity="0.501961" x="-0.5" y="-0.5" width="1" height="1" /></g>
<g transform="translate(63 147) rotate(156) scale(3 21)"><rect fill="#004c65" fill-opacity="0.501961" x="-0.5" y="-0.5" width="1" height="1" /></g>
<g transform="translate(47 129) rotate(166) scale(8 6)"><rect fill="#0281a3" fill-opacity="0.501961" x="-0.5" y="-0.5" width="1" height="1" /></g>
<g transform="translate(155 169) rotate(38) scale(5 43)"><rect fill="#041c11" fill-opacity="0.501961" x="-0.5" y="-0.5" width="1" height="1" /></g>
<g transform="translate(31 136) rotate(42) scale(27 6)"><rect fill="#037078" fill-opacity="0.501961" x="-0.5" y="-0.5" width="1" height="1" /></g>
<g transform="translate(73 14) rotate(132) scale(9 5)"><rect fill="#1d7b57" fill-opacity="0.501961" x="-0.5" y="-0.5" width="1" height="1" /></g>
<g transform="translate(5 112) rotate(4) scale(54 5)"><rect fill="#86a3b2" fill-opacity="0.501961" x="-0.5" y="-0.5" width="1" height="1" /></g>
<g transform="translate(165 38) rotate(125) scale(27 3)"><rect fill="#135c4f" fill-opacity="0.501961" x="-0.5" y="-0.5" width="1" height="1" /></g>
<g transform="translate(130 167) rotate(333) scale(11 23)"><rect fill="#0324bc" fill-opacity="0.501961" x="-0.5" y="-0.5" width="1" height="1" /></g>
<g transform="translate(194 134) rotate(218) scale(1 15)"><rect fill="#0677b7" fill-opacity="0.501961" x="-0.5" y="-0.5" width="1" height="1" /></g>
<g transform="translate(85 61) rotate(331) scale(19 6)"><rect fill="#9fc8b5" fill-opacity="0.501961" x="-0.5" y="-0.5" width="1" height="1" /></g>
<g transform="translate(128 0) rotate(262) scale(28 8)"><rect fill="#a39d6e" fill-opacity="0.501961" x="-0.5" y="-0.5" width="1" height="1" /></g>
<g transform="translate(192 86) rotate(122) scale(10 10)"><rect fill="#43908e" fill-opacity="0.501961" x="-0.5" y="-0.5" width="1" height="1" /></g>
<g transform="translate(227 141) rotate(21) scale(4 27)"><rect fill="#083d42" fill-opacity="0.501961" x="-0.5" y="-0.5" width="1" height="1" /></g>
<g transform="translate(137 92) rotate(343) scale(18 10)"><rect fill="#0a8398" fill-opacity="0.501961" x="-0.5" y="-0.5" width="1" height="1" /></g>
<g transform="translate(53 151) rotate(375) scale(14 5)"><rect fill="#4ca6b3" fill-opacity="0.501961" x="-0.5" y="-0.5" width="1" height="1" /></g>
<g transform="translate(79 114) rotate(280) scale(20 1)"><rect fill="#004f6f" fill-opacity="0.501961" x="-0.5" y="-0.5" width="1" height="1" /></g>
<g transform="translate(160 117) rotate(117) scale(17 12)"><rect fill="#29696a" fill-opacity="0.501961" x="-0.5" y="-0.5" width="1" height="1" /></g>
<g transform="translate(116 20) rotate(132) scale(10 32)"><rect fill="#84a08c" fill-opacity="0.501961" x="-0.5" y="-0.5" width="1" height="1" /></g>
<g transform="translate(57 86) rotate(53) scale(10 9)"><rect fill="#078981" fill-opacity="0.501961" x="-0.5" y="-0.5" width="1" height="1" /></g>
<g transform="translate(71 93) rotate(287) scale(9 24)"><rect fill="#5795a8" fill-opacity="0.501961" x="-0.5" y="-0.5" width="1" height="1" /></g>
<g transform="translate(9 81) rotate(259) scale(12 9)"><rect fill="#00715d" fill-opacity="0.501961" x="-0.5" y="-0.5" width="1" height="1" /></g>
<g transform="translate(139 0) rotate(213) scale(30 6)"><rect fill="#a8a66d" fill-opacity="0.501961" x="-0.5" y="-0.5" width="1" height="1" /></g>
<g transform="translate(111 104) rotate(11) scale(4 16)"><rect fill="#0655f0" fill-opacity="0.501961" x="-0.5" y="-0.5" width="1" height="1" /></g>
<g transform="translate(82 110) rotate(140) scale(19 2)"><rect fill="#008289" fill-opacity="0.501961" x="-0.5" y="-0.5" width="1" height="1" /></g>
<g transform="translate(142 26) rotate(135) scale(5 8)"><rect fill="#478f5f" fill-opacity="0.501961" x="-0.5" y="-0.5" width="1" height="1" /></g>
<g transform="translate(104 76) rotate(316) scale(1 11)"><rect fill="#001c2e" fill-opacity="0.501961" x="-0.5" y="-0.5" width="1" height="1" /></g>
<g transform="translate(96 62) rotate(358) scale(4 23)"><rect fill="#1c8c94" fill-opacity="0.501961" x="-0.5" y="-0.5" width="1" height="1" /></g>
<g transform="translate(179 152) rotate(46) scale(8 10)"><rect fill="#03598d" fill-opacity="0.501961" x="-0.5" y="-0.5" width="1" height="1" /></g>
<g transform="translate(22 56) rotate(178) scale(29 4)"><rect fill="#4f958d" fill-opacity="0.501961" x="-0.5" y="-0.5" width="1" height="1" /></g>
<g transform="translate(23 125) rotate(275) scale(22 2)"><rect fill="#075f6f" fill-opacity="0.501961" x="-0.5" y="-0.5" width="1" height="1" /></g>
<g transform="translate(234 71) rotate(313) scale(21 5)"><rect fill="#0a616f" fill-opacity="0.501961" x="-0.5" y="-0.5" width="1" height="1" /></g>
<g transform="translate(168 56) rotate(221) scale(4 16)"><rect fill="#05889c" fill-opacity="0.501961" x="-0.5" y="-0.5" width="1" height="1" /></g>
<g transform="translate(95 20) rotate(118) scale(12 6)"><rect fill="#558a65" fill-opacity="0.501961" x="-0.5" y="-0.5" width="1" height="1" /></g>
<g transform="translate(96 0) rotate(26) scale(3 28)"><rect fill="#c7c1b6" fill-opacity="0.501961" x="-0.5" y="-0.5" width="1" height="1" /></g>
<g transform="translate(255 90) rotate(219) scale(5 37)"><rect fill="#617868" fill-opacity="0.501961" x="-0.5" y="-0.5" width="1" height="1" /></g>
<g transform="translate(42 124) rotate(245) scale(1 29)"><rect fill="#297674" fill-opacity="0.501961" x="-0.5" y="-0.5" width="1" height="1" /></g>
<g transform="translate(47 108) rotate(50) scale(9 21)"><rect fill="#499996" fill-opacity="0.501961" x="-0.5" y="-0.5" width="1" height="1" /></g>
<g transform="translate(0 7) rotate(453) scale(15 11)"><rect fill="#5e8541" fill-opacity="0.501961" x="-0.5" y="-0.5" width="1" height="1" /></g>
<g transform="translate(180 118) rotate(122) scale(39 1)"><rect fill="#0c8b95" fill-opacity="0.501961" x="-0.5" y="-0.5" width="1" height="1" /></g>
<g transform="translate(107 163) rotate(166) scale(17 3)"><rect fill="#2680a3" fill-opacity="0.501961" x="-0.5" y="-0.5" width="1" height="1" /></g>
<g transform="translate(132 49) rotate(297) scale(33 2)"><rect fill="#5b8068" fill-opacity="0.501961" x="-0.5" y="-0.5" width="1" height="1" /></g>
<g transform="translate(102 136) rotate(259) scale(6 13)"><rect fill="#548782" fill-opacity="0.501961" x="-0.5" y="-0.5" width="1" height="1" /></g>
<g transform="translate(170 49) rotate(45) scale(2 35)"><rect fill="#5b8f8d" fill-opacity="0.501961" x="-0.5" y="-0.5" width="1" height="1" /></g>
<g transform="translate(167 14) rotate(226) scale(7 21)"><rect fill="#a5ae9f" fill-opacity="0.501961" x="-0.5" y="-0.5" width="1" height="1" /></g>
<g transform="translate(244 143) rotate(252) scale(8 8)"><rect fill="#396257" fill-opacity="0.501961" x="-0.5" y="-0.5" width="1" height="1" /></g>
<g transform="translate(116 66) rotate(-39) scale(1 26)"><rect fill="#6ea59f" fill-opacity="0.501961" x="-0.5" y="-0.5" width="1" height="1" /></g>
<g transform="translate(76 83) rotate(183) scale(15 6)"><rect fill="#60725d" fill-opacity="0.501961" x="-0.5" y="-0.5" width="1" height="1" /></g>
<g transform="translate(96 78) rotate(321) scale(9 3)"><rect fill="#001d39" fill-opacity="0.501961" x="-0.5" y="-0.5" width="1" height="1" /></g>
<g transform="translate(220 168) rotate(25) scale(3 16)"><rect fill="#0d6b9d" fill-opacity="0.501961" x="-0.5" y="-0.5" width="1" height="1" /></g>
<g transform="translate(13 95) rotate(200) scale(8 7)"><rect fill="#7ca5b2" fill-opacity="0.501961" x="-0.5" y="-0.5" width="1" height="1" /></g>
<g transform="translate(78 2) rotate(136) scale(31 6)"><rect fill="#869d82" fill-opacity="0.501961" x="-0.5" y="-0.5" width="1" height="1" /></g>
<g transform="translate(74 169) rotate(287) scale(5 6)"><rect fill="#80bcdb" fill-opacity="0.501961" x="-0.5" y="-0.5" width="1" height="1" /></g>
<g transform="translate(5 90) rotate(352) scale(3 21)"><rect fill="#004248" fill-opacity="0.501961" x="-0.5" y="-0.5" width="1" height="1" /></g>
<g transform="translate(206 126) rotate(131) scale(45 1)"><rect fill="#05373e" fill-opacity="0.501961" x="-0.5" y="-0.5" width="1" height="1" /></g>
<g transform="translate(103 52) rotate(9) scale(10 1)"><rect fill="#0e90d3" fill-opacity="0.501961" x="-0.5" y="-0.5" width="1" height="1" /></g>
<g transform="translate(255 29) rotate(102) scale(11 1)"><rect fill="#999786" fill-opacity="0.501961" x="-0.5" y="-0.5" width="1" height="1" /></g>
<g transform="translate(68 169) rotate(45) scale(45 3)"><rect fill="#007584" fill-opacity="0.501961" x="-0.5" y="-0.5" width="1" height="1" /></g>
</g>
</svg>