<svg xmlns="http://www.w3.org/2000/svg" version="1.1" width="1024" height="680">
<rect x="0" y="0" width="1024" height="680" fill="#393b3c" />
<g transform="scale(4.000000) translate(0.5 0.5)">
<path stroke="#c8c5cf" stroke-opacity="0.501961" fill="none" d="M -0.177157 137.874860 Q -2.012179 58.715979, -0.638610 -12.182110" stroke-width="0.500000" />
<path stroke="#c4c1ca" stroke-opacity="0.501961" fill="none" d="M 1.252398 172.617337 Q 2.504616 55.672562, 1.891087 -16.000000" stroke-width="0.500000" />
<path stroke="#bcb9c3" stroke-opacity="0.501961" fill="none" d="M 3.961915 -16.000000 Q 4.634615 106.527776, 3.306403 181.971707" stroke-width="0.500000" />
<path stroke="#b5b2bc" stroke-opacity="0.501961" fill="none" d="M 5.738644 -16.000000 Q 6.391127 48.039227, 5.697108 164.355235" stroke-width="0.500000" />
<path stroke="#ffe8e6" stroke-opacity="0.501961" fill="none" d="M 99.638504 11.000279 Q 61.926746 29.662751, 35.360721 38.471163" stroke-width="0.500000" />
<path stroke="#aeacb6" stroke-opacity="0.501961" fill="none" d="M 8.023769 10.785106 Q 7.276087 118.961425, 9.786411 178.116798" stroke-width="0.500000" />
<path stroke="#c8c1bc" stroke-opacity="0.501961" fill="none" d="M 51.821905 180.288414 Q 52.986303 169.367574, 165.516228 112.281793" stroke-width="0.500000" />
<path stroke="#aeaab5" stroke-opacity="0.501961" fill="none" d="M 18.267577 185.000000 Q 17.421022 114.387529, -0.478987 -6.209216" stroke-width="0.500000" />
<path stroke="#d1c1a7" stroke-opacity="0.501961" fill="none" d="M 77.954605 170.375380 Q 169.040139 118.210630, 204.091646 104.503237" stroke-width="0.500000" />
<path stroke="#b6b3bc" stroke-opacity="0.501961" fill="none" d="M 2.089811 185.000000 Q 2.975722 126.121260, 3.405444 -16.000000" stroke-width="0.500000" />
<path stroke="#c3bcb8" stroke-opacity="0.501961" fill="none" d="M 63.441850 161.377424 Q 103.380922 141.012947, 157.729333 109.558248" stroke-width="0.500000" />
<path stroke="#a8a5b0" stroke-opacity="0.501961" fill="none" d="M -1.277366 -9.028922 Q 15.292896 29.973119, 9.973275 185.000000" stroke-width="0.500000" />
<path stroke="#ffffff" stroke-opacity="0.501961" fill="none" d="M 31.905698 17.393245 Q 51.354791 3.019897, 118.289029 -13.002676" stroke-width="0.500000" />
<path stroke="#d4c075" stroke-opacity="0.501961" fill="none" d="M 33.098690 63.519054 Q 34.786964 65.883403, 145.228171 14.468419" stroke-width="0.500000" />
<path stroke="#a19fa9" stroke-opacity="0.501961" fill="none" d="M 2.476714 -0.646401 Q 13.363975 24.135771, 14.213383 179.920423" stroke-width="0.500000" />
<path stroke="#aca9b2" stroke-opacity="0.501961" fill="none" d="M -1.433784 -2.877032 Q 19.171514 128.250258, 3.429934 176.939652" stroke-width="0.500000" />
<path stroke="#d7c59d" stroke-opacity="0.501961" fill="none" d="M 79.584375 124.758394 Q 125.201540 100.198963, 169.113883 79.248116" stroke-width="0.500000" />
<path stroke="#f1cbca" stroke-opacity="0.501961" fill="none" d="M 100.547226 12.009827 Q 90.906914 17.615149, 36.253418 39.510993" stroke-width="0.500000" />
<path stroke="#e2d1b4" stroke-opacity="0.501961" fill="none" d="M 159.312837 99.894388 Q 103.801761 128.667053, 75.690249 143.442726" stroke-width="0.500000" />
<path stroke="#b49e61" stroke-opacity="0.501961" fill="none" d="M -12.820564 91.845648 Q 8.605355 100.255331, 170.953241 18.516661" stroke-width="0.500000" />
<path stroke="#c8c3c0" stroke-opacity="0.501961" fill="none" d="M 67.814649 174.875787 Q 134.034903 141.516694, 160.101290 124.032112" stroke-width="0.500000" />
<path stroke="#9999a4" stroke-opacity="0.501961" fill="none" d="M 5.793143 0.015137 Q 11.344901 31.079440, 20.044214 179.069280" stroke-width="0.500000" />
<path stroke="#c8c1bc" stroke-opacity="0.501961" fill="none" d="M 70.931570 162.752842 Q 134.454684 130.449838, 156.686990 114.614373" stroke-width="0.500000" />
<path stroke="#a7a6af" stroke-opacity="0.501961" fill="none" d="M 1.345831 -4.493418 Q 1.000171 176.959502, 23.719996 185.000000" stroke-width="0.500000" />
<path stroke="#b5b5b2" stroke-opacity="0.501961" fill="none" d="M 66.881671 113.673225 Q 91.741040 103.888280, 154.266586 69.981130" stroke-width="0.500000" />
<path stroke="#a5a2ab" stroke-opacity="0.501961" fill="none" d="M 4.392081 -16.000000 Q 5.195863 55.556603, 7.484712 173.917569" stroke-width="0.500000" />
<path stroke="#fdfff9" stroke-opacity="0.501961" fill="none" d="M 32.374130 16.606723 Q 71.476596 0.375510, 71.399604 -3.145898" stroke-width="0.500000" />
<path stroke="#9e9ba5" stroke-opacity="0.501961" fill="none" d="M 22.262032 185.000000 Q 21.861707 138.573511, -0.874025 -16.000000" stroke-width="0.500000" />
<path stroke="#a29fa9" stroke-opacity="0.501961" fill="none" d="M -6.722690 185.000000 Q 29.573107 178.782224, -1.612641 11.074054" stroke-width="0.500000" />
<path stroke="#e5d091" stroke-opacity="0.501961" fill="none" d="M 148.883626 98.262333 Q 129.832329 110.791504, 89.780118 130.392744" stroke-width="0.500000" />
<path stroke="#f1cfcd" stroke-opacity="0.501961" fill="none" d="M 32.718450 39.591072 Q 35.523740 40.117444, 96.237836 12.563252" stroke-width="0.500000" />
<path stroke="#8f8f99" stroke-opacity="0.501961" fill="none" d="M 24.324255 181.022871 Q 17.467708 82.887326, 4.535793 -4.580646" stroke-width="0.500000" />
<path stroke="#a19fa7" stroke-opacity="0.501961" fill="none" d="M 5.808810 179.399629 Q -1.427555 54.820772, 3.990024 -15.526080" stroke-width="0.500000" />
<path stroke="#ffd8d7" stroke-opacity="0.501961" fill="none" d="M 82.901030 48.091893 Q 56.268997 62.280660, 44.827050 64.702369" stroke-width="0.500000" />
<path stroke="#bcac8b" stroke-opacity="0.501961" fill="none" d="M 177.353977 74.459363 Q 89.392551 121.235806, 82.344218 123.275356" stroke-width="0.500000" />
<path stroke="#a89965" stroke-opacity="0.501961" fill="none" d="M -16.000000 75.728117 Q 46.278798 56.750916, 131.829338 13.866741" stroke-width="0.500000" />
<path stroke="#a1a3a3" stroke-opacity="0.501961" fill="none" d="M -16.000000 95.059535 Q 1.178671 108.769548, 94.229024 60.243321" stroke-width="0.500000" />
<path stroke="#c7bfba" stroke-opacity="0.501961" fill="none" d="M 163.372637 108.189170 Q 155.001877 113.791711, 72.643232 155.663788" stroke-width="0.500000" />
<path stroke="#d6cc94" stroke-opacity="0.501961" fill="none" d="M 81.319296 119.131073 Q 97.080626 109.047518, 143.466305 87.788031" stroke-width="0.500000" />
<path stroke="#bfb7b6" stroke-opacity="0.501961" fill="none" d="M 140.808436 134.115162 Q 83.609023 168.027859, 43.589136 185.000000" stroke-width="0.500000" />
<path stroke="#f6fbf6" stroke-opacity="0.501961" fill="none" d="M 67.573975 83.987411 Q 61.651116 89.844292, 43.230925 95.567325" stroke-width="0.500000" />
<path stroke="#e1e6e1" stroke-opacity="0.501961" fill="none" d="M 28.938400 18.379376 Q 50.595598 2.286682, 68.522606 2.822237" stroke-width="0.500000" />
<path stroke="#a09da6" stroke-opacity="0.501961" fill="none" d="M -2.212030 -4.632537 Q 13.276365 98.350449, 4.401178 169.426658" stroke-width="0.500000" />
<path stroke="#bca665" stroke-opacity="0.501961" fill="none" d="M 36.263341 75.579930 Q 46.719203 71.241350, 147.790545 23.948563" stroke-width="0.500000" />
<path stroke="#c5bbaf" stroke-opacity="0.501961" fill="none" d="M 76.721118 144.484487 Q 101.222507 129.534288, 149.936040 103.603352" stroke-width="0.500000" />
<path stroke="#b1a9a6" stroke-opacity="0.501961" fill="none" d="M 81.819933 158.523114 Q 86.037071 143.382499, 160.365915 111.348324" stroke-width="0.500000" />
<path stroke="#c2c4c0" stroke-opacity="0.501961" fill="none" d="M 95.461854 61.655052 Q 75.259103 68.299510, 40.926815 85.687444" stroke-width="0.500000" />
<path stroke="#c0b585" stroke-opacity="0.501961" fill="none" d="M 149.441374 100.393791 Q 131.615569 109.139107, 84.182549 134.406625" stroke-width="0.500000" />
<path stroke="#93919a" stroke-opacity="0.501961" fill="none" d="M 23.622098 171.143261 Q 9.664226 29.856280, -0.846758 -9.496789" stroke-width="0.500000" />
<path stroke="#838693" stroke-opacity="0.501961" fill="none" d="M 9.911698 25.793401 Q 23.770835 126.031005, 24.633838 185.000000" stroke-width="0.500000" />
<path stroke="#9b98a1" stroke-opacity="0.501961" fill="none" d="M 16.374592 185.000000 Q 14.869347 93.559988, 0.620817 9.639646" stroke-width="0.500000" />
<path stroke="#d3c4a3" stroke-opacity="0.501961" fill="none" d="M 111.757786 173.223606 Q 152.578350 147.143464, 154.849518 149.563152" stroke-width="0.500000" />
<path stroke="#98969f" stroke-opacity="0.501961" fill="none" d="M 17.964740 -16.000000 Q -16.000000 6.637480, 23.249348 178.018838" stroke-width="0.500000" />
<path stroke="#aba088" stroke-opacity="0.501961" fill="none" d="M 126.905837 148.078717 Q 161.624737 129.700003, 209.819508 102.146185" stroke-width="0.500000" />
<path stroke="#b99d66" stroke-opacity="0.501961" fill="none" d="M 45.636923 79.563886 Q 39.616425 54.013367, 139.425617 19.115744" stroke-width="0.500000" />
<path stroke="#d7dad6" stroke-opacity="0.501961" fill="none" d="M 67.911216 1.434035 Q 52.917316 9.049016, 24.992447 17.054982" stroke-width="0.500000" />
<path stroke="#d0b0af" stroke-opacity="0.501961" fill="none" d="M 97.874071 12.232138 Q 35.009276 37.484536, 33.280333 40.390106" stroke-width="0.500000" />
<path stroke="#a8a38d" stroke-opacity="0.501961" fill="none" d="M 60.837950 109.818025 Q 78.871529 127.759134, 161.486580 83.280987" stroke-width="0.500000" />
<path stroke="#a89e83" stroke-opacity="0.501961" fill="none" d="M 71.824706 146.725341 Q 113.413578 124.661524, 166.029906 96.618726" stroke-width="0.500000" />
<path stroke="#96949d" stroke-opacity="0.501961" fill="none" d="M 8.205877 -16.000000 Q 2.287470 15.816595, 13.561228 180.674831" stroke-width="0.500000" />
<path stroke="#9c9aa2" stroke-opacity="0.501961" fill="none" d="M -1.666384 170.882106 Q 16.507303 19.986753, -16.000000 -0.856399" stroke-width="0.500000" />
<path stroke="#b8a158" stroke-opacity="0.501961" fill="none" d="M 169.652480 18.356254 Q 160.147163 24.657182, 43.767549 77.931838" stroke-width="0.500000" />
<path stroke="#ada6a3" stroke-opacity="0.501961" fill="none" d="M 161.408794 114.651347 Q 145.388144 124.708027, 67.189656 163.471125" stroke-width="0.500000" />
<path stroke="#c8be8a" stroke-opacity="0.501961" fill="none" d="M 81.283680 117.303594 Q 104.188694 107.207423, 146.034244 84.736937" stroke-width="0.500000" />
<path stroke="#cab762" stroke-opacity="0.501961" fill="none" d="M 92.538858 32.795858 Q 60.879850 44.083067, 38.420585 58.563213" stroke-width="0.500000" />
<path stroke="#cfb2b1" stroke-opacity="0.501961" fill="none" d="M 34.969006 39.720727 Q 63.319081 30.174246, 105.425819 9.451329" stroke-width="0.500000" />
<path stroke="#e2acad" stroke-opacity="0.501961" fill="none" d="M 83.944091 46.395200 Q 81.212883 51.788167, 37.868281 69.416832" stroke-width="0.500000" />
<path stroke="#919291" stroke-opacity="0.501961" fill="none" d="M 55.166126 123.132539 Q 91.552776 97.707475, 150.962271 73.988587" stroke-width="0.500000" />
<path stroke="#cdb26c" stroke-opacity="0.501961" fill="none" d="M 86.021961 185.000000 Q 87.821652 178.745970, 154.561834 143.624891" stroke-width="0.500000" />
<path stroke="#9c8e63" stroke-opacity="0.501961" fill="none" d="M 143.778256 27.416100 Q 6.502134 88.366457, -3.076541 99.277324" stroke-width="0.500000" />
<path stroke="#b6b7b3" stroke-opacity="0.501961" fill="none" d="M 98.881843 97.668387 Q 142.321673 75.896232, 151.792834 70.961042" stroke-width="0.500000" />
<path stroke="#a29e9a" stroke-opacity="0.501961" fill="none" d="M 166.913948 112.841807 Q 150.727490 115.292927, 68.998387 165.722545" stroke-width="0.500000" />
<path stroke="#b1acab" stroke-opacity="0.501961" fill="none" d="M 159.051085 122.133405 Q 161.590690 126.034017, 53.735609 183.381659" stroke-width="0.500000" />
<path stroke="#8d8b96" stroke-opacity="0.501961" fill="none" d="M 23.881281 175.881313 Q 8.726278 82.152234, 9.990322 31.423257" stroke-width="0.500000" />
<path stroke="#b3a567" stroke-opacity="0.501961" fill="none" d="M 145.267033 14.761930 Q 140.754070 15.435049, 35.037627 63.957805" stroke-width="0.500000" />
<path stroke="#b08a8b" stroke-opacity="0.501961" fill="none" d="M 38.131571 112.192927 Q 74.335341 92.605397, 97.833134 82.794371" stroke-width="0.500000" />
<path stroke="#e8ede7" stroke-opacity="0.501961" fill="none" d="M 31.925887 16.524988 Q 35.268443 10.704147, 66.932165 3.354640" stroke-width="0.500000" />
<path stroke="#aea7a4" stroke-opacity="0.501961" fill="none" d="M 164.665601 107.890990 Q 125.881677 124.837052, 71.093696 158.642155" stroke-width="0.500000" />
<path stroke="#908f99" stroke-opacity="0.501961" fill="none" d="M 18.665485 181.206921 Q 9.850532 165.756733, 8.315221 16.402884" stroke-width="0.500000" />
<path stroke="#bcb9b6" stroke-opacity="0.501961" fill="none" d="M 67.140090 173.640718 Q 115.338720 173.385954, 141.243595 155.944336" stroke-width="0.500000" />
<path stroke="#c2c3bf" stroke-opacity="0.501961" fill="none" d="M 41.439285 86.833788 Q 70.130910 72.240149, 76.966737 69.912265" stroke-width="0.500000" />
<path stroke="#c27d81" stroke-opacity="0.501961" fill="none" d="M 56.432844 110.443951 Q 19.195798 68.596556, 75.572576 52.129101" stroke-width="0.500000" />
<path stroke="#a7b792" stroke-opacity="0.501961" fill="none" d="M 138.404379 105.438060 Q 106.185678 120.168503, 77.687922 137.531337" stroke-width="0.500000" />
<path stroke="#83848e" stroke-opacity="0.501961" fill="none" d="M 19.290838 185.000000 Q 38.610572 168.173192, -4.405934 -16.000000" stroke-width="0.500000" />
<path stroke="#b2a282" stroke-opacity="0.501961" fill="none" d="M 87.805562 120.923671 Q 151.896111 84.965827, 167.459786 80.779835" stroke-width="0.500000" />
<path stroke="#af9f82" stroke-opacity="0.501961" fill="none" d="M 164.838405 97.792834 Q 155.147174 99.827489, 84.646896 138.546527" stroke-width="0.500000" />
<path stroke="#ccccc7" stroke-opacity="0.501961" fill="none" d="M 40.689135 96.684158 Q 45.009931 97.659231, 69.531987 85.510485" stroke-width="0.500000" />
<path stroke="#8b8f80" stroke-opacity="0.501961" fill="none" d="M 60.319208 185.000000 Q 137.534376 142.623003, 204.910124 103.002200" stroke-width="0.500000" />
<path stroke="#d0d5d1" stroke-opacity="0.501961" fill="none" d="M 67.532104 -0.095076 Q 40.561614 11.373749, 29.333547 15.196833" stroke-width="0.500000" />
<path stroke="#0c101c" stroke-opacity="0.501961" fill="none" d="M 256.738067 185.000000 Q 240.034701 -4.399420, 106.203983 -0.774497" stroke-width="0.500000" />
<path stroke="#bba85f" stroke-opacity="0.501961" fill="none" d="M 147.965384 31.588198 Q 123.365578 40.574060, 45.346975 78.392896" stroke-width="0.500000" />
<path stroke="#9d8174" stroke-opacity="0.501961" fill="none" d="M 225.682316 122.830985 Q 209.076592 130.801213, 125.152770 180.108885" stroke-width="0.500000" />
<path stroke="#a39f9c" stroke-opacity="0.501961" fill="none" d="M 162.858284 107.282696 Q 121.950890 133.205926, 71.759780 155.823992" stroke-width="0.500000" />
<path stroke="#090e18" stroke-opacity="0.501961" fill="none" d="M 26.149259 101.235356 Q 234.355070 -5.258025, 259.425310 136.964355" stroke-width="0.500000" />
<path stroke="#070c17" stroke-opacity="0.501961" fill="none" d="M 256.100999 148.611272 Q 243.948179 9.243915, 58.750344 92.956537" stroke-width="0.500000" />
<path stroke="#afafad" stroke-opacity="0.501961" fill="none" d="M 143.938312 88.065897 Q 130.073524 109.027649, 94.249911 105.265682" stroke-width="0.500000" />
<path stroke="#908f96" stroke-opacity="0.501961" fill="none" d="M 5.544032 171.176256 Q 2.439513 157.763699, 8.544402 18.516119" stroke-width="0.500000" />
<path stroke="#ad9e56" stroke-opacity="0.501961" fill="none" d="M 127.840988 73.075224 Q 71.124370 98.960337, 54.321695 110.884480" stroke-width="0.500000" />
<path stroke="#b8b7b3" stroke-opacity="0.501961" fill="none" d="M 99.961577 96.068027 Q 105.990474 97.339676, 149.461272 73.210289" stroke-width="0.500000" />
<path stroke="#070c17" stroke-opacity="0.501961" fill="none" d="M 256.689911 148.119127 Q 248.035490 18.295623, 82.366634 79.047672" stroke-width="0.500000" />
<path stroke="#e34f58" stroke-opacity="0.501961" fill="none" d="M 43.893541 46.852443 Q 33.091043 56.354394, 52.637326 106.208878" stroke-width="0.500000" />
<path stroke="#95949c" stroke-opacity="0.501961" fill="none" d="M 1.842349 12.862644 Q 0.875688 179.054991, -0.881174 180.355978" stroke-width="0.500000" />
<path stroke="#0c111a" stroke-opacity="0.501961" fill="none" d="M 54.896945 88.290099 Q 246.176898 -16.000000, 256.891157 178.080879" stroke-width="0.500000" />
<path stroke="#060b15" stroke-opacity="0.501961" fill="none" d="M 33.347910 159.709201 Q 206.106965 42.651638, 259.548677 103.752632" stroke-width="0.500000" />
<path stroke="#9f9376" stroke-opacity="0.501961" fill="none" d="M 78.452790 168.759680 Q 141.841016 133.174188, 204.823421 101.605244" stroke-width="0.500000" />
<path stroke="#090e18" stroke-opacity="0.501961" fill="none" d="M 261.703675 23.453925 Q 225.970373 57.535151, 33.853290 156.395607" stroke-width="0.500000" />
<path stroke="#0b1018" stroke-opacity="0.501961" fill="none" d="M 52.162726 101.653631 Q 223.979064 1.235167, 257.526228 172.701024" stroke-width="0.500000" />
<path stroke="#e4b777" stroke-opacity="0.501961" fill="none" d="M 36.886536 63.406114 Q 45.141562 59.676785, 79.061790 45.699675" stroke-width="0.500000" />
<path stroke="#9f9c9a" stroke-opacity="0.501961" fill="none" d="M 53.164702 185.000000 Q 139.620562 136.627416, 160.998551 125.396146" stroke-width="0.500000" />
<path stroke="#aa827c" stroke-opacity="0.501961" fill="none" d="M 149.204515 19.728812 Q 118.917634 30.509505, 37.374747 68.792394" stroke-width="0.500000" />
<path stroke="#79b1bb" stroke-opacity="0.501961" fill="none" d="M 156.235485 133.334382 Q 119.824507 151.902157, 117.453006 153.844876" stroke-width="0.500000" />
<path stroke="#80818b" stroke-opacity="0.501961" fill="none" d="M 7.245140 5.970261 Q 24.990855 142.610933, 8.694929 176.053456" stroke-width="0.500000" />
<path stroke="#a89c83" stroke-opacity="0.501961" fill="none" d="M 175.660233 91.169756 Q 166.936302 94.086569, 72.713984 145.206620" stroke-width="0.500000" />
<path stroke="#93929a" stroke-opacity="0.501961" fill="none" d="M 1.667689 7.583009 Q 1.738738 98.646016, 17.075845 183.655328" stroke-width="0.500000" />
<path stroke="#0a0f1a" stroke-opacity="0.501961" fill="none" d="M 29.973990 175.090247 Q 271.000000 48.480093, 263.285314 33.882608" stroke-width="0.500000" />
<path stroke="#020913" stroke-opacity="0.501961" fill="none" d="M 102.769695 168.701715 Q 255.348666 78.177322, 265.736991 84.671756" stroke-width="0.500000" />
<path stroke="#080d18" stroke-opacity="0.501961" fill="none" d="M 67.006090 170.751888 Q 271.000000 64.428834, 254.735603 36.873824" stroke-width="0.500000" />
<path stroke="#a79494" stroke-opacity="0.501961" fill="none" d="M 100.115001 80.204214 Q 82.834733 88.474966, 49.625427 105.013566" stroke-width="0.500000" />
<path stroke="#818189" stroke-opacity="0.501961" fill="none" d="M 3.491514 -5.193089 Q 12.265871 67.750447, 30.091687 185.000000" stroke-width="0.500000" />
<path stroke="#090e18" stroke-opacity="0.501961" fill="none" d="M 48.846577 122.315578 Q 112.528269 80.815035, 271.000000 1.905700" stroke-width="0.500000" />
<path stroke="#b4a05b" stroke-opacity="0.501961" fill="none" d="M 34.785530 56.514538 Q 93.111594 36.251670, 98.724708 27.853641" stroke-width="0.500000" />
<path stroke="#d4dfd8" stroke-opacity="0.501961" fill="none" d="M 87.540162 109.538779 Q 100.635686 103.336917, 106.498146 101.448686" stroke-width="0.500000" />
<path stroke="#0a0f19" stroke-opacity="0.501961" fill="none" d="M 67.767919 90.604303 Q 221.253619 -16.000000, 265.388485 185.000000" stroke-width="0.500000" />
<path stroke="#0a0f19" stroke-opacity="0.501961" fill="none" d="M 76.673288 83.851160 Q 216.106691 -16.000000, 255.819639 128.270120" stroke-width="0.500000" />
<path stroke="#030811" stroke-opacity="0.501961" fill="none" d="M 9.906991 -2.985328 Q 38.439223 178.948005, 38.271982 185.000000" stroke-width="0.500000" />
<path stroke="#040811" stroke-opacity="0.501961" fill="none" d="M 13.100422 -16.000000 Q 13.374532 23.253733, 39.869764 170.342957" stroke-width="0.500000" />
<path stroke="#737883" stroke-opacity="0.501961" fill="none" d="M -10.104186 -11.270775 Q 12.284363 -5.065277, 30.155247 185.000000" stroke-width="0.500000" />
<path stroke="#ab9c5b" stroke-opacity="0.501961" fill="none" d="M 134.916651 69.484349 Q 121.505228 75.178654, 54.087903 109.683032" stroke-width="0.500000" />
<path stroke="#0b1118" stroke-opacity="0.501961" fill="none" d="M 46.112641 165.843404 Q 27.867892 82.733100, 266.978287 41.023334" stroke-width="0.500000" />
<path stroke="#acb6b4" stroke-opacity="0.501961" fill="none" d="M 45.260701 32.582098 Q 62.018618 31.341846, 111.889787 5.168674" stroke-width="0.500000" />
<path stroke="#aca163" stroke-opacity="0.501961" fill="none" d="M 121.978045 26.492174 Q 63.469377 49.264332, 41.463454 62.493505" stroke-width="0.500000" />
<path stroke="#030911" stroke-opacity="0.501961" fill="none" d="M 28.254209 -10.680592 Q 22.520659 93.243174, 70.623094 168.746065" stroke-width="0.500000" />
<path stroke="#8f8c94" stroke-opacity="0.501961" fill="none" d="M 5.163478 185.000000 Q 13.847564 40.756212, 0.976801 4.526485" stroke-width="0.500000" />
<path stroke="#a4a471" stroke-opacity="0.501961" fill="none" d="M 136.861220 27.196995 Q 116.219642 45.724327, 51.489272 61.910056" stroke-width="0.500000" />
<path stroke="#a1a47c" stroke-opacity="0.501961" fill="none" d="M 75.731737 120.917076 Q 89.373174 116.648734, 149.203362 83.011876" stroke-width="0.500000" />
<path stroke="#dae1dd" stroke-opacity="0.501961" fill="none" d="M 42.464883 95.931286 Q 55.797255 91.390739, 69.656921 83.270192" stroke-width="0.500000" />
<path stroke="#a8a7ab" stroke-opacity="0.501961" fill="none" d="M 141.784304 93.876850 Q 119.031737 103.405206, 80.005157 126.204904" stroke-width="0.500000" />
<path stroke="#10141e" stroke-opacity="0.501961" fill="none" d="M 50.580139 -1.034454 Q 271.000000 -0.440625, 253.845564 130.044731" stroke-width="0.500000" />
<path stroke="#a49b99" stroke-opacity="0.501961" fill="none" d="M 169.287414 108.842232 Q 157.605834 116.580142, 87.426646 152.865223" stroke-width="0.500000" />
<path stroke="#0a0e19" stroke-opacity="0.501961" fill="none" d="M 130.889285 165.051289 Q 271.000000 115.529944, 249.208553 -5.833123" stroke-width="0.500000" />
<path stroke="#a2924d" stroke-opacity="0.501961" fill="none" d="M 95.086967 55.678800 Q 129.817079 39.870481, 171.618571 19.575538" stroke-width="0.500000" />
<path stroke="#bdc2bf" stroke-opacity="0.501961" fill="none" d="M 74.974223 71.841583 Q 48.773583 78.683444, 41.116237 86.018033" stroke-width="0.500000" />
<path stroke="#040911" stroke-opacity="0.501961" fill="none" d="M 23.294624 -14.557467 Q 43.407871 121.976833, 54.485300 185.000000" stroke-width="0.500000" />
<path stroke="#c1bfba" stroke-opacity="0.501961" fill="none" d="M 34.526595 14.402601 Q 46.214691 12.740877, 69.067021 1.471544" stroke-width="0.500000" />
<path stroke="#090e19" stroke-opacity="0.501961" fill="none" d="M 264.684101 159.596517 Q 171.365297 17.284219, 74.194524 91.073779" stroke-width="0.500000" />
<path stroke="#0e0f19" stroke-opacity="0.501961" fill="none" d="M 45.511183 104.936986 Q 249.056805 -16.000000, 271.000000 3.564226" stroke-width="0.500000" />
<path stroke="#949592" stroke-opacity="0.501961" fill="none" d="M 161.265333 109.282797 Q 121.630761 140.330402, 65.932365 165.166109" stroke-width="0.500000" />
<path stroke="#8a8891" stroke-opacity="0.501961" fill="none" d="M -16.000000 3.864214 Q 17.295529 4.472866, 16.187103 178.648878" stroke-width="0.500000" />
<path stroke="#d1c099" stroke-opacity="0.501961" fill="none" d="M 63.603001 174.865084 Q 80.361519 185.000000, 129.877035 158.116917" stroke-width="0.500000" />
<path stroke="#ff8b8c" stroke-opacity="0.501961" fill="none" d="M 34.014748 53.015692 Q 47.491642 46.515715, 49.305657 45.877988" stroke-width="0.500000" />
<path stroke="#0a1019" stroke-opacity="0.501961" fill="none" d="M 43.863373 148.823471 Q 159.297959 80.126944, 255.198155 57.793032" stroke-width="0.500000" />
<path stroke="#a4955a" stroke-opacity="0.501961" fill="none" d="M 131.301558 16.309959 Q 55.902380 46.198490, 36.754069 58.793208" stroke-width="0.500000" />
<path stroke="#040a15" stroke-opacity="0.501961" fill="none" d="M 257.902488 89.423039 Q 76.993156 170.473212, 82.296122 185.000000" stroke-width="0.500000" />
<path stroke="#a7a29e" stroke-opacity="0.501961" fill="none" d="M 106.361540 145.372105 Q 127.052915 124.390358, 166.392645 106.255088" stroke-width="0.500000" />
<path stroke="#0c121b" stroke-opacity="0.501961" fill="none" d="M 271.000000 39.699034 Q 43.464978 172.511097, -13.056936 185.000000" stroke-width="0.500000" />
<path stroke="#0b111b" stroke-opacity="0.501961" fill="none" d="M 189.723724 0.005953 Q 271.000000 128.791905, 116.927718 170.975723" stroke-width="0.500000" />
<path stroke="#b5c0bd" stroke-opacity="0.501961" fill="none" d="M 47.757728 34.495074 Q 48.071755 31.879348, 105.271929 10.488535" stroke-width="0.500000" />
<path stroke="#0d111a" stroke-opacity="0.501961" fill="none" d="M 258.658341 164.503074 Q 216.152632 -3.050102, 63.575813 93.526803" stroke-width="0.500000" />
<path stroke="#8f8e96" stroke-opacity="0.501961" fill="none" d="M 3.325722 -10.154545 Q -2.081940 62.730398, 22.114454 166.802431" stroke-width="0.500000" />
<path stroke="#cbc5c1" stroke-opacity="0.501961" fill="none" d="M 117.526652 168.655758 Q 141.710005 157.344885, 142.171645 153.829538" stroke-width="0.500000" />
<path stroke="#0d111d" stroke-opacity="0.501961" fill="none" d="M 95.651497 3.240768 Q 270.519640 -16.000000, 254.577586 142.325312" stroke-width="0.500000" />
<path stroke="#0d111b" stroke-opacity="0.501961" fill="none" d="M 250.607414 71.588816 Q 233.678908 46.494774, 33.837005 154.901083" stroke-width="0.500000" />
<path stroke="#a2adb3" stroke-opacity="0.501961" fill="none" d="M 124.599166 119.294651 Q 110.087503 116.749513, 83.625965 133.461936" stroke-width="0.500000" />
<path stroke="#070c13" stroke-opacity="0.501961" fill="none" d="M 52.275208 185.000000 Q 40.132634 141.793699, 25.753760 -12.725343" stroke-width="0.500000" />
<path stroke="#a79e59" stroke-opacity="0.501961" fill="none" d="M 148.720442 29.623623 Q 110.934595 45.961510, 67.111290 68.653777" stroke-width="0.500000" />
<path stroke="#9bb2b6" stroke-opacity="0.501961" fill="none" d="M 155.523916 131.709354 Q 130.879170 146.005690, 123.691236 148.090445" stroke-width="0.500000" />
<path stroke="#e1dfde" stroke-opacity="0.501961" fill="none" d="M 99.174101 165.108291 Q 80.302014 169.163594, 73.199250 185.000000" stroke-width="0.500000" />
<path stroke="#977e7c" stroke-opacity="0.501961" fill="none" d="M 45.937972 100.338405 Q 71.299269 132.582546, 120.837878 87.687770" stroke-width="0.500000" />
<path stroke="#101520" stroke-opacity="0.501961" fill="none" d="M 72.318782 4.656986 Q 271.000000 -3.537150, 232.187117 159.883311" stroke-width="0.500000" />
<path stroke="#d84450" stroke-opacity="0.501961" fill="none" d="M 54.630002 110.185141 Q 37.656269 50.980178, 45.016836 46.600970" stroke-width="0.500000" />
<path stroke="#908e96" stroke-opacity="0.501961" fill="none" d="M 8.315665 169.656961 Q 15.535011 54.824704, -12.373178 3.494277" stroke-width="0.500000" />
<path stroke="#0c0f1a" stroke-opacity="0.501961" fill="none" d="M 243.307504 2.753628 Q 271.000000 107.076614, 135.752683 161.942589" stroke-width="0.500000" />
<path stroke="#dcd4d5" stroke-opacity="0.501961" fill="none" d="M 70.700944 56.695427 Q 65.052512 54.622622, 49.368397 64.969418" stroke-width="0.500000" />
<path stroke="#060c16" stroke-opacity="0.501961" fill="none" d="M 71.594873 182.979800 Q 251.624517 86.612243, 271.000000 95.275304" stroke-width="0.500000" />
<path stroke="#aaafac" stroke-opacity="0.501961" fill="none" d="M 51.142328 34.410499 Q 57.344603 32.116340, 96.538936 14.165802" stroke-width="0.500000" />
<path stroke="#9a8657" stroke-opacity="0.501961" fill="none" d="M 112.711452 40.156306 Q 52.005171 67.049304, 34.089956 77.391390" stroke-width="0.500000" />
<path stroke="#747883" stroke-opacity="0.501961" fill="none" d="M 6.359660 5.492582 Q 17.593150 46.382056, 19.161798 171.507699" stroke-width="0.500000" />
<path stroke="#0e131d" stroke-opacity="0.501961" fill="none" d="M 113.525680 5.978631 Q 271.000000 13.921122, 184.911179 185.000000" stroke-width="0.500000" />
<path stroke="#988e82" stroke-opacity="0.501961" fill="none" d="M 77.619395 169.272412 Q 179.143492 115.307444, 206.688038 105.523751" stroke-width="0.500000" />
<path stroke="#9a9e9c" stroke-opacity="0.501961" fill="none" d="M 94.771606 60.513279 Q 67.694065 70.000011, 41.848761 86.913021" stroke-width="0.500000" />
<path stroke="#918081" stroke-opacity="0.501961" fill="none" d="M 115.323068 185.000000 Q 187.124658 146.114910, 202.516384 135.502704" stroke-width="0.500000" />
<path stroke="#9c9a99" stroke-opacity="0.501961" fill="none" d="M 77.431743 142.962344 Q 96.147672 133.339024, 148.774648 106.319516" stroke-width="0.500000" />
<path stroke="#cacfca" stroke-opacity="0.501961" fill="none" d="M 70.203062 83.197100 Q 63.750661 89.460010, 42.917038 96.711413" stroke-width="0.500000" />
<path stroke="#0e131c" stroke-opacity="0.501961" fill="none" d="M 80.992478 77.436725 Q 240.539735 -16.000000, 256.241292 163.297903" stroke-width="0.500000" />
<path stroke="#0b101b" stroke-opacity="0.501961" fill="none" d="M 254.633077 -10.733477 Q 269.290403 70.749748, 97.355007 151.935563" stroke-width="0.500000" />
<path stroke="#d2d4d0" stroke-opacity="0.501961" fill="none" d="M 36.235765 15.702899 Q 51.446995 7.480163, 72.402876 -3.519012" stroke-width="0.500000" />
<path stroke="#0d121e" stroke-opacity="0.501961" fill="none" d="M 252.765755 -16.000000 Q 271.000000 155.029659, 154.778771 169.053638" stroke-width="0.500000" />
<path stroke="#0f131f" stroke-opacity="0.501961" fill="none" d="M 108.321955 3.087127 Q 261.568535 -6.853568, 237.178097 159.177036" stroke-width="0.500000" />
<path stroke="#0c101b" stroke-opacity="0.501961" fill="none" d="M 254.727779 10.564624 Q 169.692760 -16.000000, 59.373249 38.853662" stroke-width="0.500000" />
<path stroke="#0e121d" stroke-opacity="0.501961" fill="none" d="M 67.712328 112.298933 Q 208.368300 28.490737, 271.000000 12.155209" stroke-width="0.500000" />
<path stroke="#bba5a4" stroke-opacity="0.501961" fill="none" d="M 69.379054 85.105503 Q 40.604861 90.902438, 46.923477 107.098410" stroke-width="0.500000" />
<path stroke="#10141c" stroke-opacity="0.501961" fill="none" d="M 66.057315 94.879996 Q 202.153293 -2.891917, 256.828453 181.786871" stroke-width="0.500000" />
<path stroke="#d9d6d5" stroke-opacity="0.501961" fill="none" d="M 98.869577 162.892576 Q 71.253423 185.000000, 21.378918 185.000000" stroke-width="0.500000" />
<path stroke="#070d15" stroke-opacity="0.501961" fill="none" d="M 24.720325 12.239322 Q 36.240775 137.362438, 67.919127 170.035258" stroke-width="0.500000" />
<path stroke="#c3545c" stroke-opacity="0.501961" fill="none" d="M 46.190397 45.160237 Q 48.932257 113.760472, 62.347030 114.636412" stroke-width="0.500000" />
<path stroke="#9b9492" stroke-opacity="0.501961" fill="none" d="M 109.773402 98.142560 Q 94.510673 104.730235, 63.438064 122.740802" stroke-width="0.500000" />
<path stroke="#a6945c" stroke-opacity="0.501961" fill="none" d="M 116.817516 22.842672 Q 75.032799 41.330124, 33.763756 58.818121" stroke-width="0.500000" />
<path stroke="#c49092" stroke-opacity="0.501961" fill="none" d="M 39.046718 68.315093 Q 69.863405 57.486899, 84.301946 48.463834" stroke-width="0.500000" />
<path stroke="#0d121c" stroke-opacity="0.501961" fill="none" d="M 185.171044 -13.968822 Q 271.000000 82.274529, 93.111905 154.365947" stroke-width="0.500000" />
<path stroke="#0c131b" stroke-opacity="0.501961" fill="none" d="M 271.000000 55.989806 Q 271.000000 62.860036, 33.397946 185.000000" stroke-width="0.500000" />
<path stroke="#bb8a6c" stroke-opacity="0.501961" fill="none" d="M 151.200072 17.951685 Q 128.664302 22.554550, 118.091348 45.353227" stroke-width="0.500000" />
<path stroke="#080c14" stroke-opacity="0.501961" fill="none" d="M 23.260417 0.722174 Q 28.984402 27.049114, 50.561936 175.792453" stroke-width="0.500000" />
<path stroke="#0d111c" stroke-opacity="0.501961" fill="none" d="M 62.759266 40.445272 Q 107.019929 -16.000000, 271.000000 32.385444" stroke-width="0.500000" />
<path stroke="#9aa3aa" stroke-opacity="0.501961" fill="none" d="M 67.741782 119.270074 Q 101.498631 113.189532, 112.826601 100.845824" stroke-width="0.500000" />
<path stroke="#af9f6e" stroke-opacity="0.501961" fill="none" d="M 89.300608 131.994566 Q 140.840358 105.163112, 146.709581 100.518997" stroke-width="0.500000" />
<path stroke="#13181d" stroke-opacity="0.501961" fill="none" d="M 29.299399 93.007143 Q 248.720392 13.224409, 251.188148 185.000000" stroke-width="0.500000" />
<path stroke="#121720" stroke-opacity="0.501961" fill="none" d="M 271.000000 -5.253940 Q 233.094693 40.372871, 28.808469 142.543879" stroke-width="0.500000" />
<path stroke="#0c111d" stroke-opacity="0.501961" fill="none" d="M 149.841898 169.761117 Q 271.000000 134.482673, 253.795596 31.173076" stroke-width="0.500000" />
<path stroke="#11151d" stroke-opacity="0.501961" fill="none" d="M 73.805116 67.449759 Q 238.469022 -16.000000, 258.042116 143.308722" stroke-width="0.500000" />
<path stroke="#0d111b" stroke-opacity="0.501961" fill="none" d="M 37.912054 119.167112 Q 152.574683 67.031178, 271.000000 15.857929" stroke-width="0.500000" />
<path stroke="#a39f9b" stroke-opacity="0.501961" fill="none" d="M 164.525091 113.973481 Q 144.074347 123.555286, 118.130321 138.768313" stroke-width="0.500000" />
<path stroke="#b29a5c" stroke-opacity="0.501961" fill="none" d="M 147.421638 148.102300 Q 106.548885 167.263517, 93.454141 177.767950" stroke-width="0.500000" />
<path stroke="#0f1720" stroke-opacity="0.501961" fill="none" d="M 261.148915 -1.705518 Q 63.175187 79.541729, 84.023584 123.554384" stroke-width="0.500000" />
<path stroke="#ff7f83" stroke-opacity="0.501961" fill="none" d="M 43.077527 102.736818 Q 54.738371 97.329738, 57.450486 94.197202" stroke-width="0.500000" />
<path stroke="#8b8b92" stroke-opacity="0.501961" fill="none" d="M 8.089492 175.557841 Q -1.581086 61.914887, 7.886856 3.473331" stroke-width="0.500000" />
<path stroke="#060d14" stroke-opacity="0.501961" fill="none" d="M 42.122746 185.000000 Q 29.426699 91.517680, 9.420100 -14.652875" stroke-width="0.500000" />
<path stroke="#0f141d" stroke-opacity="0.501961" fill="none" d="M 228.304314 6.223374 Q 129.526601 135.954647, 225.667267 170.072454" stroke-width="0.500000" />
<path stroke="#85848b" stroke-opacity="0.501961" fill="none" d="M -4.387905 -16.000000 Q 10.295928 50.958397, 26.258929 169.965762" stroke-width="0.500000" />
<path stroke="#10141d" stroke-opacity="0.501961" fill="none" d="M 257.091947 121.833364 Q 218.976267 -16.000000, 109.586509 56.566942" stroke-width="0.500000" />
<path stroke="#040f17" stroke-opacity="0.501961" fill="none" d="M 7.093623 -12.394928 Q 8.068714 -8.557592, 34.044440 162.227755" stroke-width="0.500000" />
<path stroke="#8a8886" stroke-opacity="0.501961" fill="none" d="M 73.860936 156.335689 Q 81.387147 150.115874, 155.244277 110.689439" stroke-width="0.500000" />
<path stroke="#d98d8e" stroke-opacity="0.501961" fill="none" d="M 44.136430 107.197889 Q 62.387821 101.491756, 74.443874 93.586865" stroke-width="0.500000" />
<path stroke="#887166" stroke-opacity="0.501961" fill="none" d="M 104.444493 185.000000 Q 121.398064 185.000000, 227.364652 118.716680" stroke-width="0.500000" />
<path stroke="#ff4c55" stroke-opacity="0.501961" fill="none" d="M 50.857745 -5.608059 Q 48.760657 1.045886, 32.062599 2.341202" stroke-width="0.500000" />
<path stroke="#0e121d" stroke-opacity="0.501961" fill="none" d="M 237.613099 -9.558684 Q 271.000000 64.058079, 50.593644 158.236620" stroke-width="0.500000" />
<path stroke="#0f121a" stroke-opacity="0.501961" fill="none" d="M 51.029031 180.170087 Q 249.696131 180.356991, 166.374847 -1.300400" stroke-width="0.500000" />
<path stroke="#0e131c" stroke-opacity="0.501961" fill="none" d="M 252.362924 136.419798 Q 204.156036 -15.656696, 58.813079 96.492732" stroke-width="0.500000" />
<path stroke="#11161e" stroke-opacity="0.501961" fill="none" d="M 39.548174 180.274875 Q 9.776125 97.965362, 251.199180 37.205722" stroke-width="0.500000" />
<path stroke="#928f8c" stroke-opacity="0.501961" fill="none" d="M 164.114052 111.353755 Q 120.832788 128.970522, 75.382243 156.690238" stroke-width="0.500000" />
<path stroke="#d6d5d1" stroke-opacity="0.501961" fill="none" d="M 64.273709 115.825934 Q 63.303583 109.616097, 54.633489 113.882379" stroke-width="0.500000" />
<path stroke="#111621" stroke-opacity="0.501961" fill="none" d="M 224.320739 169.503191 Q 271.000000 -3.242569, 106.775294 3.310044" stroke-width="0.500000" />
<path stroke="#0f151d" stroke-opacity="0.501961" fill="none" d="M 271.000000 31.164408 Q 60.246950 137.928616, 31.703233 152.252947" stroke-width="0.500000" />
<path stroke="#13141e" stroke-opacity="0.501961" fill="none" d="M 34.148808 102.660996 Q 75.325924 89.412055, 271.000000 1.420682" stroke-width="0.500000" />
<path stroke="#969795" stroke-opacity="0.501961" fill="none" d="M 148.070054 73.080225 Q 137.394704 79.515780, 63.265634 114.892196" stroke-width="0.500000" />
<path stroke="#10151d" stroke-opacity="0.501961" fill="none" d="M 271.000000 -7.604599 Q 252.289946 4.329362, 78.821525 94.532081" stroke-width="0.500000" />
<path stroke="#b0b5b1" stroke-opacity="0.501961" fill="none" d="M 73.730438 72.284576 Q 49.322068 81.750362, 40.413045 86.095719" stroke-width="0.500000" />
<path stroke="#b1a276" stroke-opacity="0.501961" fill="none" d="M 140.590938 103.043232 Q 111.404590 119.039296, 84.815508 132.539512" stroke-width="0.500000" />
<path stroke="#9e9f61" stroke-opacity="0.501961" fill="none" d="M 57.667957 52.694060 Q 101.761889 36.000342, 143.371879 15.993257" stroke-width="0.500000" />
<path stroke="#ad9f7a" stroke-opacity="0.501961" fill="none" d="M 171.548851 76.739731 Q 130.711750 97.250667, 104.717472 113.477970" stroke-width="0.500000" />
<path stroke="#080d17" stroke-opacity="0.501961" fill="none" d="M 271.000000 67.660944 Q 127.694943 185.000000, 96.619446 176.369554" stroke-width="0.500000" />
<path stroke="#c9cec9" stroke-opacity="0.501961" fill="none" d="M 63.904794 3.830427 Q 46.653368 6.307181, 30.343003 15.204330" stroke-width="0.500000" />
<path stroke="#0c111b" stroke-opacity="0.501961" fill="none" d="M 56.476324 44.738936 Q 159.981210 -16.000000, 236.043033 15.878208" stroke-width="0.500000" />
<path stroke="#8d9175" stroke-opacity="0.501961" fill="none" d="M 146.428578 83.623798 Q 101.293096 107.026873, 79.396120 119.514236" stroke-width="0.500000" />
<path stroke="#f72337" stroke-opacity="0.501961" fill="none" d="M 45.186465 79.224252 Q 42.479894 62.142884, 39.466628 46.414089" stroke-width="0.500000" />
<path stroke="#c28f7d" stroke-opacity="0.501961" fill="none" d="M 148.900353 18.820922 Q 140.295099 21.997346, 113.139396 35.341923" stroke-width="0.500000" />
<path stroke="#a59c80" stroke-opacity="0.501961" fill="none" d="M 163.577455 96.293746 Q 132.502586 117.587368, 85.267285 132.187157" stroke-width="0.500000" />
<path stroke="#89878e" stroke-opacity="0.501961" fill="none" d="M 5.008903 184.450654 Q 27.773710 138.852841, -2.380263 -8.409655" stroke-width="0.500000" />
<path stroke="#0d121c" stroke-opacity="0.501961" fill="none" d="M 257.142832 73.328953 Q 215.921601 70.974358, 48.483924 164.624122" stroke-width="0.500000" />
<path stroke="#0f141e" stroke-opacity="0.501961" fill="none" d="M 140.471979 9.768543 Q 271.000000 107.326770, 128.403005 173.038373" stroke-width="0.500000" />
<path stroke="#8a8a91" stroke-opacity="0.501961" fill="none" d="M 8.980724 20.346624 Q -9.952498 34.933226, 21.965385 182.738810" stroke-width="0.500000" />
<path stroke="#8e7a5d" stroke-opacity="0.501961" fill="none" d="M 233.273502 87.988663 Q 163.641505 127.913320, 132.309296 146.198475" stroke-width="0.500000" />
<path stroke="#b0bc88" stroke-opacity="0.501961" fill="none" d="M 51.812417 56.718156 Q 72.789842 64.904384, 60.000402 78.105313" stroke-width="0.500000" />
<path stroke="#91835a" stroke-opacity="0.501961" fill="none" d="M 176.711114 136.152596 Q 162.148169 144.342861, 94.670588 183.639861" stroke-width="0.500000" />
<path stroke="#0e141c" stroke-opacity="0.501961" fill="none" d="M 48.103221 51.416853 Q 113.968048 -16.000000, 268.632398 6.870768" stroke-width="0.500000" />
<path stroke="#0f151d" stroke-opacity="0.501961" fill="none" d="M 42.750075 115.787092 Q 216.923812 50.285685, 263.383229 -16.000000" stroke-width="0.500000" />
<path stroke="#0b0f1b" stroke-opacity="0.501961" fill="none" d="M 126.694737 171.438278 Q 268.587831 95.720821, 251.712096 66.234287" stroke-width="0.500000" />
<path stroke="#12171d" stroke-opacity="0.501961" fill="none" d="M 193.590674 -16.000000 Q 135.071775 167.628891, 269.427173 170.552262" stroke-width="0.500000" />
<path stroke="#10161d" stroke-opacity="0.501961" fill="none" d="M 33.511928 133.785450 Q 213.565851 41.669634, 271.000000 35.586000" stroke-width="0.500000" />
<path stroke="#0a1019" stroke-opacity="0.501961" fill="none" d="M 271.000000 88.605424 Q 271.000000 92.837655, 113.237467 157.758690" stroke-width="0.500000" />
<path stroke="#ee2738" stroke-opacity="0.501961" fill="none" d="M 48.812544 75.834203 Q 46.159681 47.170353, 37.456440 49.662056" stroke-width="0.500000" />
<path stroke="#12161e" stroke-opacity="0.501961" fill="none" d="M 83.628263 80.979074 Q 215.887219 6.213300, 258.034083 185.000000" stroke-width="0.500000" />
<path stroke="#0a0f1b" stroke-opacity="0.501961" fill="none" d="M 253.735864 71.066591 Q 271.000000 133.421544, 153.648826 169.924028" stroke-width="0.500000" />
<path stroke="#a29579" stroke-opacity="0.501961" fill="none" d="M 155.462287 147.396363 Q 102.642202 174.216919, 102.417004 182.009295" stroke-width="0.500000" />
<path stroke="#fc3840" stroke-opacity="0.501961" fill="none" d="M 30.947080 0.779349 Q 59.552760 1.849933, 87.861095 -16.000000" stroke-width="0.500000" />
<path stroke="#121622" stroke-opacity="0.501961" fill="none" d="M 226.730266 165.481705 Q 271.000000 -11.448418, 115.199986 5.207001" stroke-width="0.500000" />
<path stroke="#0f141d" stroke-opacity="0.501961" fill="none" d="M 257.102146 145.630037 Q 158.856853 14.513567, 80.165389 83.915745" stroke-width="0.500000" />
<path stroke="#b0aaa5" stroke-opacity="0.501961" fill="none" d="M 161.170480 113.271490 Q 146.227503 123.913502, 108.588362 141.572794" stroke-width="0.500000" />
<path stroke="#d4d5d1" stroke-opacity="0.501961" fill="none" d="M 30.417643 13.805354 Q 42.255508 17.679949, 52.022052 5.674654" stroke-width="0.500000" />
<path stroke="#a19d7e" stroke-opacity="0.501961" fill="none" d="M 73.821456 39.927276 Q 86.718080 71.156797, 40.712912 83.929919" stroke-width="0.500000" />
<path stroke="#0f141c" stroke-opacity="0.501961" fill="none" d="M 40.673588 170.705339 Q 196.883291 67.930024, 259.987863 91.729638" stroke-width="0.500000" />
<path stroke="#a3a1a0" stroke-opacity="0.501961" fill="none" d="M 156.403308 131.992082 Q 135.786616 145.295131, 117.153393 146.631957" stroke-width="0.500000" />
<path stroke="#c88688" stroke-opacity="0.501961" fill="none" d="M 79.379537 92.949518 Q 55.182464 100.369440, 44.040813 109.254435" stroke-width="0.500000" />
<path stroke="#b8c3c1" stroke-opacity="0.501961" fill="none" d="M 50.983869 32.169259 Q 56.445214 32.073671, 92.142000 13.290933" stroke-width="0.500000" />
<path stroke="#90866f" stroke-opacity="0.501961" fill="none" d="M 210.418718 101.493307 Q 191.204319 101.846544, 57.244301 185.000000" stroke-width="0.500000" />
<path stroke="#d7d3db" stroke-opacity="0.501961" fill="none" d="M 119.789604 162.806521 Q 111.075485 166.994917, 85.697545 185.000000" stroke-width="0.500000" />
<path stroke="#6d717a" stroke-opacity="0.501961" fill="none" d="M 0.582060 -16.000000 Q 30.875289 158.019434, 30.359805 170.740417" stroke-width="0.500000" />
<path stroke="#111620" stroke-opacity="0.501961" fill="none" d="M 246.421649 -16.000000 Q 271.000000 73.268427, 64.188991 170.116675" stroke-width="0.500000" />
<path stroke="#b9b9bd" stroke-opacity="0.501961" fill="none" d="M 107.591198 126.122161 Q 133.959014 114.843136, 141.321556 107.661635" stroke-width="0.500000" />
<path stroke="#a8a8a9" stroke-opacity="0.501961" fill="none" d="M 48.808010 63.276739 Q 58.861707 57.910267, 83.604006 49.697096" stroke-width="0.500000" />
<path stroke="#0e141a" stroke-opacity="0.501961" fill="none" d="M 89.535725 177.106016 Q 42.780950 185.000000, 26.796779 -10.573405" stroke-width="0.500000" />
<path stroke="#0a1017" stroke-opacity="0.501961" fill="none" d="M 38.378065 185.000000 Q 23.018990 42.990921, 12.239059 -9.027852" stroke-width="0.500000" />
<path stroke="#111620" stroke-opacity="0.501961" fill="none" d="M 120.489884 45.826232 Q 264.394180 -16.000000, 251.890886 131.062616" stroke-width="0.500000" />
<path stroke="#877a53" stroke-opacity="0.501961" fill="none" d="M 142.873931 27.589477 Q 100.638697 48.700292, 10.005582 87.122043" stroke-width="0.500000" />
<path stroke="#0a0e16" stroke-opacity="0.501961" fill="none" d="M 33.335152 141.055526 Q 8.173528 -10.204224, 11.980567 -16.000000" stroke-width="0.500000" />
<path stroke="#85848c" stroke-opacity="0.501961" fill="none" d="M -0.397926 -16.000000 Q -1.022590 21.576270, 29.040854 185.000000" stroke-width="0.500000" />
<path stroke="#b29370" stroke-opacity="0.501961" fill="none" d="M 92.981793 89.879381 Q 71.719050 104.805956, 53.255315 97.247697" stroke-width="0.500000" />
<path stroke="#bab36b" stroke-opacity="0.501961" fill="none" d="M 136.173410 23.122460 Q 138.904616 30.739036, 108.256789 42.722869" stroke-width="0.500000" />
<path stroke="#13151e" stroke-opacity="0.501961" fill="none" d="M 171.426957 -1.799822 Q 271.000000 136.482338, 144.369702 171.227078" stroke-width="0.500000" />
<path stroke="#0c171d" stroke-opacity="0.501961" fill="none" d="M 90.606622 171.560177 Q 234.189075 92.067904, 271.000000 75.007761" stroke-width="0.500000" />
<path stroke="#131720" stroke-opacity="0.501961" fill="none" d="M 155.390109 169.805851 Q 265.050162 159.615985, 232.882951 1.253934" stroke-width="0.500000" />
<path stroke="#10141e" stroke-opacity="0.501961" fill="none" d="M 265.317207 15.076067 Q 150.185154 -16.000000, 59.815634 37.859709" stroke-width="0.500000" />
<path stroke="#767780" stroke-opacity="0.501961" fill="none" d="M 3.247887 -0.128595 Q 22.457230 131.320095, 31.945866 185.000000" stroke-width="0.500000" />
<path stroke="#10161d" stroke-opacity="0.501961" fill="none" d="M 229.107073 -5.637239 Q 52.761554 86.957113, 38.567735 89.718819" stroke-width="0.500000" />
<path stroke="#c5af52" stroke-opacity="0.501961" fill="none" d="M 113.525608 34.755310 Q 134.463166 43.252920, 152.091776 26.365321" stroke-width="0.500000" />
<path stroke="#a8a7a3" stroke-opacity="0.501961" fill="none" d="M 151.889756 72.778879 Q 141.346136 77.716421, 100.581710 97.559102" stroke-width="0.500000" />
<path stroke="#827e71" stroke-opacity="0.501961" fill="none" d="M 205.884599 105.884763 Q 174.551813 123.010948, 53.071844 181.759012" stroke-width="0.500000" />
<path stroke="#becac4" stroke-opacity="0.501961" fill="none" d="M 88.086087 108.672746 Q 102.696738 101.649403, 105.663286 101.646280" stroke-width="0.500000" />
<path stroke="#11171e" stroke-opacity="0.501961" fill="none" d="M 127.872694 166.380444 Q 271.000000 98.818191, 209.753300 -0.990594" stroke-width="0.500000" />
<path stroke="#c45d64" stroke-opacity="0.501961" fill="none" d="M 46.987329 84.544276 Q 28.697894 51.658594, 47.991983 44.728648" stroke-width="0.500000" />
<path stroke="#111318" stroke-opacity="0.501961" fill="none" d="M 140.334275 8.821101 Q 111.989724 18.766507, 30.824910 57.333104" stroke-width="0.500000" />
</g>
</svg>