<svg xmlns="http://www.w3.org/2000/svg" version="1.1" width="1024" height="632">
<rect x="0" y="0" width="1024" height="632" fill="#3a3b3c" />
<g transform="scale(4.000000) translate(0.5 0.5)">
<path stroke="#c0bec9" stroke-opacity="0.501961" fill="none" d="M 1.551407 173.000000 Q -4.766014 11.233958, 3.502385 -10.277037" stroke-width="0.500000" />
<path stroke="#bebcc7" stroke-opacity="0.501961" fill="none" d="M 1.936809 173.000000 Q 2.269396 56.926691, 1.798323 -2.483267" stroke-width="0.500000" />
<path stroke="#bbb9c3" stroke-opacity="0.501961" fill="none" d="M 3.189041 166.805735 Q 4.777962 143.937823, 3.788786 -16.000000" stroke-width="0.500000" />
<path stroke="#bab7c2" stroke-opacity="0.501961" fill="none" d="M 6.491006 158.313493 Q 6.187423 -7.024562, 4.820844 -16.000000" stroke-width="0.500000" />
<path stroke="#b0aeb9" stroke-opacity="0.501961" fill="none" d="M 9.215455 173.000000 Q 7.700172 121.127653, 8.001930 7.024674" stroke-width="0.500000" />
<path stroke="#afacb7" stroke-opacity="0.501961" fill="none" d="M -16.000000 -16.000000 Q 12.397722 -16.000000, 12.064696 154.917196" stroke-width="0.500000" />
<path stroke="#decdad" stroke-opacity="0.501961" fill="none" d="M 76.618219 136.060581 Q 103.927597 122.732781, 164.921523 89.202413" stroke-width="0.500000" />
<path stroke="#ccc6c2" stroke-opacity="0.501961" fill="none" d="M 153.543752 106.597592 Q 149.690998 118.099067, 50.736276 165.686440" stroke-width="0.500000" />
<path stroke="#e8e2e1" stroke-opacity="0.501961" fill="none" d="M 157.662627 -12.760401 Q 136.093618 -13.319818, 43.376009 29.462968" stroke-width="0.500000" />
<path stroke="#cdc5c1" stroke-opacity="0.501961" fill="none" d="M 70.682208 157.827211 Q 112.789577 131.861487, 165.403634 105.854847" stroke-width="0.500000" />
<path stroke="#e1cc80" stroke-opacity="0.501961" fill="none" d="M 144.306989 8.244055 Q 76.528018 37.590808, 37.559650 56.739320" stroke-width="0.500000" />
<path stroke="#ded1c7" stroke-opacity="0.501961" fill="none" d="M 165.169904 115.814878 Q 113.430933 142.581799, 63.618356 173.000000" stroke-width="0.500000" />
<path stroke="#aca9b4" stroke-opacity="0.501961" fill="none" d="M -6.969174 -16.000000 Q 16.554651 20.904608, 14.491434 173.000000" stroke-width="0.500000" />
<path stroke="#d2cac6" stroke-opacity="0.501961" fill="none" d="M 165.921556 99.954011 Q 124.793656 122.765649, 74.527838 148.605023" stroke-width="0.500000" />
<path stroke="#b2aeb8" stroke-opacity="0.501961" fill="none" d="M 5.378755 173.000000 Q 6.635715 50.979131, 3.165591 -16.000000" stroke-width="0.500000" />
<path stroke="#d7c49f" stroke-opacity="0.501961" fill="none" d="M 170.283451 70.900259 Q 135.921547 89.806385, 79.780170 117.706408" stroke-width="0.500000" />
<path stroke="#aeabb5" stroke-opacity="0.501961" fill="none" d="M -0.117284 158.939892 Q 6.882079 105.157536, 1.419213 -9.197890" stroke-width="0.500000" />
<path stroke="#cbb062" stroke-opacity="0.501961" fill="none" d="M 36.865098 73.706617 Q 121.973774 36.467847, 165.382479 14.308977" stroke-width="0.500000" />
<path stroke="#a4a2ad" stroke-opacity="0.501961" fill="none" d="M 9.072206 12.025861 Q 9.012308 114.467734, 10.457970 163.833769" stroke-width="0.500000" />
<path stroke="#9e9ca7" stroke-opacity="0.501961" fill="none" d="M 21.892830 150.985937 Q 9.521076 23.616609, 3.923260 -2.422956" stroke-width="0.500000" />
<path stroke="#e2d197" stroke-opacity="0.501961" fill="none" d="M 142.588851 97.844064 Q 138.032040 98.026545, 84.860166 127.350192" stroke-width="0.500000" />
<path stroke="#f6d3d2" stroke-opacity="0.501961" fill="none" d="M 35.319765 33.004104 Q 76.639508 16.454865, 100.032577 5.416657" stroke-width="0.500000" />
<path stroke="#a4a2ac" stroke-opacity="0.501961" fill="none" d="M -4.194565 -16.000000 Q 20.692927 114.013876, 20.558147 173.000000" stroke-width="0.500000" />
<path stroke="#b7b7b4" stroke-opacity="0.501961" fill="none" d="M 153.096853 65.530407 Q 141.766503 68.336699, 60.202267 111.694305" stroke-width="0.500000" />
<path stroke="#a9a7b0" stroke-opacity="0.501961" fill="none" d="M 1.540247 -10.534900 Q 3.230661 120.467182, 0.118259 169.936386" stroke-width="0.500000" />
<path stroke="#e2c1c1" stroke-opacity="0.501961" fill="none" d="M 101.565301 3.039188 Q 83.332128 11.068023, 33.302815 33.029158" stroke-width="0.500000" />
<path stroke="#a29fa9" stroke-opacity="0.501961" fill="none" d="M 13.572620 167.853109 Q 13.588534 35.244211, -0.144372 -8.129744" stroke-width="0.500000" />
<path stroke="#fec2c3" stroke-opacity="0.501961" fill="none" d="M 36.436035 62.098656 Q 39.577604 62.051637, 83.559277 41.719309" stroke-width="0.500000" />
<path stroke="#dad095" stroke-opacity="0.501961" fill="none" d="M 141.520237 80.060746 Q 120.906625 93.200467, 80.846570 111.411629" stroke-width="0.500000" />
<path stroke="#ffffff" stroke-opacity="0.501961" fill="none" d="M 26.186795 10.379658 Q 53.761124 -0.244498, 100.163095 -16.000000" stroke-width="0.500000" />
<path stroke="#a5a2ac" stroke-opacity="0.501961" fill="none" d="M -1.317940 6.195771 Q 15.166930 91.152960, 9.521700 164.149324" stroke-width="0.500000" />
<path stroke="#a19ea7" stroke-opacity="0.501961" fill="none" d="M 5.815666 -8.095089 Q 9.248370 98.770153, 6.532776 173.000000" stroke-width="0.500000" />
<path stroke="#b3acaa" stroke-opacity="0.501961" fill="none" d="M 171.066186 97.042892 Q 130.495891 116.754591, 76.713086 149.128617" stroke-width="0.500000" />
<path stroke="#9494a0" stroke-opacity="0.501961" fill="none" d="M 7.267131 0.910602 Q 16.364845 65.387862, 15.959440 157.368865" stroke-width="0.500000" />
<path stroke="#cbbea6" stroke-opacity="0.501961" fill="none" d="M 161.770949 91.631278 Q 132.947155 107.926135, 75.028106 137.448801" stroke-width="0.500000" />
<path stroke="#ae9e6e" stroke-opacity="0.501961" fill="none" d="M -9.300968 89.191679 Q 119.636588 31.271053, 144.817054 18.190245" stroke-width="0.500000" />
<path stroke="#b7a889" stroke-opacity="0.501961" fill="none" d="M 82.057319 162.193479 Q 120.517320 140.051320, 201.537956 96.630646" stroke-width="0.500000" />
<path stroke="#ffffff" stroke-opacity="0.501961" fill="none" d="M 80.524929 -10.464007 Q 65.820950 -5.293615, 30.525618 7.772621" stroke-width="0.500000" />
<path stroke="#b3b1a6" stroke-opacity="0.501961" fill="none" d="M 150.290199 81.133018 Q 94.313610 116.591902, 60.050710 104.593985" stroke-width="0.500000" />
<path stroke="#dee7e4" stroke-opacity="0.501961" fill="none" d="M 96.300109 6.519323 Q 73.823242 17.454039, 47.057636 27.148847" stroke-width="0.500000" />
<path stroke="#c2c4c1" stroke-opacity="0.501961" fill="none" d="M 99.747639 51.411677 Q 43.606618 77.118627, 38.655349 81.042678" stroke-width="0.500000" />
<path stroke="#8e8e99" stroke-opacity="0.501961" fill="none" d="M 23.267618 158.831229 Q 12.764930 24.136837, 0.975846 -16.000000" stroke-width="0.500000" />
<path stroke="#d8be6d" stroke-opacity="0.501961" fill="none" d="M 96.494307 24.115579 Q 45.562829 45.763389, 32.661681 53.319570" stroke-width="0.500000" />
<path stroke="#aba7a5" stroke-opacity="0.501961" fill="none" d="M 162.922816 103.223293 Q 114.453578 124.945790, 74.942607 148.312190" stroke-width="0.500000" />
<path stroke="#c2c0bd" stroke-opacity="0.501961" fill="none" d="M 153.754475 65.142197 Q 149.451939 66.504357, 105.512916 89.294867" stroke-width="0.500000" />
<path stroke="#baa05c" stroke-opacity="0.501961" fill="none" d="M 39.328705 74.121656 Q 86.720209 52.367767, 161.171818 18.190594" stroke-width="0.500000" />
<path stroke="#b4adab" stroke-opacity="0.501961" fill="none" d="M 158.069986 109.840304 Q 106.792295 137.158384, 77.181771 154.729950" stroke-width="0.500000" />
<path stroke="#bead8a" stroke-opacity="0.501961" fill="none" d="M 170.595427 70.218330 Q 171.002301 72.961047, 85.592568 115.298334" stroke-width="0.500000" />
<path stroke="#a09fa7" stroke-opacity="0.501961" fill="none" d="M 5.837721 172.136390 Q -3.974623 -3.675490, 7.904650 -14.355213" stroke-width="0.500000" />
<path stroke="#9c9ba5" stroke-opacity="0.501961" fill="none" d="M 19.019594 168.913998 Q 20.112570 117.389105, -7.845005 -13.273511" stroke-width="0.500000" />
<path stroke="#c9bf8b" stroke-opacity="0.501961" fill="none" d="M 139.686041 82.649178 Q 98.564297 100.770018, 81.781205 112.694343" stroke-width="0.500000" />
<path stroke="#999e82" stroke-opacity="0.501961" fill="none" d="M 188.675847 100.899477 Q 157.335030 133.501133, 65.278642 165.603385" stroke-width="0.500000" />
<path stroke="#b5a86a" stroke-opacity="0.501961" fill="none" d="M 143.669905 9.868669 Q 57.457826 46.109787, 33.815154 59.885255" stroke-width="0.500000" />
<path stroke="#828692" stroke-opacity="0.501961" fill="none" d="M 25.275248 167.637380 Q 13.265234 10.783178, 1.003378 -16.000000" stroke-width="0.500000" />
<path stroke="#d29e9e" stroke-opacity="0.501961" fill="none" d="M 90.725255 79.901423 Q 42.648871 101.161973, 42.569206 103.205196" stroke-width="0.500000" />
<path stroke="#d5cccc" stroke-opacity="0.501961" fill="none" d="M 48.453115 56.674549 Q 77.905362 43.413890, 82.126084 41.753282" stroke-width="0.500000" />
<path stroke="#96969f" stroke-opacity="0.501961" fill="none" d="M 4.952228 2.220838 Q -5.403480 83.239579, 31.548991 164.875332" stroke-width="0.500000" />
<path stroke="#e9efeb" stroke-opacity="0.501961" fill="none" d="M 73.810916 74.567249 Q 61.878281 82.096675, 43.739963 89.418955" stroke-width="0.500000" />
<path stroke="#e4e2df" stroke-opacity="0.501961" fill="none" d="M 110.573063 -16.000000 Q 51.377713 -2.009248, 30.977615 11.705432" stroke-width="0.500000" />
<path stroke="#a7a3a1" stroke-opacity="0.501961" fill="none" d="M 170.033901 104.021387 Q 152.076813 108.176596, 44.007916 173.000000" stroke-width="0.500000" />
<path stroke="#bfbb8d" stroke-opacity="0.501961" fill="none" d="M 149.852231 92.601708 Q 87.032368 125.011883, 82.095638 127.886004" stroke-width="0.500000" />
<path stroke="#b5a065" stroke-opacity="0.501961" fill="none" d="M 143.797011 20.037178 Q 84.627006 47.972410, 38.106698 67.949278" stroke-width="0.500000" />
<path stroke="#a8a6a3" stroke-opacity="0.501961" fill="none" d="M 66.750016 151.395637 Q 72.427327 153.882425, 152.919735 105.974692" stroke-width="0.500000" />
<path stroke="#a7997e" stroke-opacity="0.501961" fill="none" d="M 66.736268 169.224714 Q 191.713166 97.976863, 196.871422 102.439702" stroke-width="0.500000" />
<path stroke="#9e9ca3" stroke-opacity="0.501961" fill="none" d="M 0.589698 -16.000000 Q 6.000408 23.609061, 4.116124 173.000000" stroke-width="0.500000" />
<path stroke="#8e8d96" stroke-opacity="0.501961" fill="none" d="M 22.442586 158.888941 Q 5.657338 -0.079284, 1.177781 -16.000000" stroke-width="0.500000" />
<path stroke="#b7b8b6" stroke-opacity="0.501961" fill="none" d="M 90.165531 57.559660 Q 66.199103 65.808610, 42.214648 79.906073" stroke-width="0.500000" />
<path stroke="#b0a35c" stroke-opacity="0.501961" fill="none" d="M 132.723935 62.952286 Q 113.853326 74.667520, 54.416406 100.842511" stroke-width="0.500000" />
<path stroke="#f1f8f4" stroke-opacity="0.501961" fill="none" d="M 56.828193 -6.272896 Q 37.479232 9.891396, 28.990146 8.978375" stroke-width="0.500000" />
<path stroke="#97969f" stroke-opacity="0.501961" fill="none" d="M -12.182848 -16.000000 Q -3.733200 -16.000000, 18.053641 155.689749" stroke-width="0.500000" />
<path stroke="#f0a1a2" stroke-opacity="0.501961" fill="none" d="M 71.440323 49.213022 Q 61.684161 51.545887, 40.921609 62.112805" stroke-width="0.500000" />
<path stroke="#a49980" stroke-opacity="0.501961" fill="none" d="M 170.876144 70.050528 Q 160.192945 75.788925, 73.509029 120.690887" stroke-width="0.500000" />
<path stroke="#9b9066" stroke-opacity="0.501961" fill="none" d="M -16.000000 75.361487 Q 115.881481 12.202397, 117.700190 15.409956" stroke-width="0.500000" />
<path stroke="#c6b897" stroke-opacity="0.501961" fill="none" d="M 104.686566 120.709129 Q 114.840111 115.670406, 158.627954 93.042605" stroke-width="0.500000" />
<path stroke="#abacab" stroke-opacity="0.501961" fill="none" d="M 89.965356 53.478031 Q 84.824188 62.640079, 41.937744 77.496505" stroke-width="0.500000" />
<path stroke="#6e7684" stroke-opacity="0.501961" fill="none" d="M 26.389127 173.000000 Q 24.204609 108.710154, 6.278811 -9.141328" stroke-width="0.500000" />
<path stroke="#b2b9b8" stroke-opacity="0.501961" fill="none" d="M 48.355111 25.861714 Q 89.091124 7.797465, 105.952051 3.780760" stroke-width="0.500000" />
<path stroke="#9fa09e" stroke-opacity="0.501961" fill="none" d="M 67.876390 107.559773 Q 80.652096 102.482256, 153.357379 62.797685" stroke-width="0.500000" />
<path stroke="#070d18" stroke-opacity="0.501961" fill="none" d="M 257.024849 146.737709 Q 225.870681 -16.000000, 54.263759 93.659290" stroke-width="0.500000" />
<path stroke="#a7a194" stroke-opacity="0.501961" fill="none" d="M 152.956058 96.721619 Q 89.189584 132.167996, 78.768123 135.829134" stroke-width="0.500000" />
<path stroke="#a79b56" stroke-opacity="0.501961" fill="none" d="M 65.334934 60.134438 Q 115.117437 38.058493, 168.753040 13.616669" stroke-width="0.500000" />
<path stroke="#070c17" stroke-opacity="0.501961" fill="none" d="M 63.126408 86.236150 Q 233.063981 -16.000000, 256.670336 141.767020" stroke-width="0.500000" />
<path stroke="#aea15f" stroke-opacity="0.501961" fill="none" d="M 119.220591 14.199588 Q 41.350590 47.569513, 39.190470 52.445006" stroke-width="0.500000" />
<path stroke="#afaaac" stroke-opacity="0.501961" fill="none" d="M 156.644910 121.092773 Q 148.526429 126.541009, 88.586635 157.079189" stroke-width="0.500000" />
<path stroke="#969694" stroke-opacity="0.501961" fill="none" d="M 58.827952 163.039467 Q 87.737940 147.627618, 162.661918 100.501261" stroke-width="0.500000" />
<path stroke="#a4a37d" stroke-opacity="0.501961" fill="none" d="M 149.784054 93.044437 Q 118.024384 110.670846, 81.199219 129.528749" stroke-width="0.500000" />
<path stroke="#d7dad6" stroke-opacity="0.501961" fill="none" d="M 41.497134 90.430240 Q 63.390939 82.588463, 72.509542 75.374485" stroke-width="0.500000" />
<path stroke="#aa9c61" stroke-opacity="0.501961" fill="none" d="M 49.976016 104.393296 Q 129.578766 64.782683, 134.400839 62.171746" stroke-width="0.500000" />
<path stroke="#998e7e" stroke-opacity="0.501961" fill="none" d="M 222.420134 90.525240 Q 94.862189 146.010794, 76.833222 173.000000" stroke-width="0.500000" />
<path stroke="#b5b5b1" stroke-opacity="0.501961" fill="none" d="M 103.648486 95.433635 Q 87.364828 101.935626, 63.691919 116.049118" stroke-width="0.500000" />
<path stroke="#908a7d" stroke-opacity="0.501961" fill="none" d="M 213.573561 93.541056 Q 139.212021 137.282898, 69.547379 164.787186" stroke-width="0.500000" />
<path stroke="#919099" stroke-opacity="0.501961" fill="none" d="M -2.579057 -16.000000 Q 21.650717 153.668573, 22.166040 163.798144" stroke-width="0.500000" />
<path stroke="#070d17" stroke-opacity="0.501961" fill="none" d="M 253.949437 139.267366 Q 219.121484 14.742984, 86.761146 76.433077" stroke-width="0.500000" />
<path stroke="#9ea2a1" stroke-opacity="0.501961" fill="none" d="M 100.719766 51.136436 Q 61.320965 67.010839, 46.574333 76.207932" stroke-width="0.500000" />
<path stroke="#e3b877" stroke-opacity="0.501961" fill="none" d="M 74.619560 40.604566 Q 63.779277 44.802129, 35.642655 56.091304" stroke-width="0.500000" />
<path stroke="#8bc0c9" stroke-opacity="0.501961" fill="none" d="M 154.692360 126.049758 Q 122.505242 145.729452, 117.066626 146.248223" stroke-width="0.500000" />
<path stroke="#080d18" stroke-opacity="0.501961" fill="none" d="M 61.893163 86.470048 Q 225.249762 -16.000000, 255.965910 129.446091" stroke-width="0.500000" />
<path stroke="#8c8a93" stroke-opacity="0.501961" fill="none" d="M -0.406619 -12.010740 Q 19.877152 43.903708, 10.167282 173.000000" stroke-width="0.500000" />
<path stroke="#c9cecc" stroke-opacity="0.501961" fill="none" d="M 73.698162 76.242621 Q 56.211306 82.935656, 41.896359 89.750380" stroke-width="0.500000" />
<path stroke="#0a101a" stroke-opacity="0.501961" fill="none" d="M 271.000000 -7.108310 Q 219.064655 20.743017, 26.571090 126.856159" stroke-width="0.500000" />
<path stroke="#cdbd95" stroke-opacity="0.501961" fill="none" d="M 103.245609 173.000000 Q 125.598055 156.556707, 152.891399 143.218205" stroke-width="0.500000" />
<path stroke="#9ea1a0" stroke-opacity="0.501961" fill="none" d="M 49.470966 27.703639 Q 66.165135 22.196571, 146.311028 -16.000000" stroke-width="0.500000" />
<path stroke="#a98a8b" stroke-opacity="0.501961" fill="none" d="M 40.086348 104.367463 Q 71.216614 86.108344, 100.843391 73.699764" stroke-width="0.500000" />
<path stroke="#a5a19f" stroke-opacity="0.501961" fill="none" d="M 161.181508 100.812474 Q 141.707126 127.404189, 88.860440 140.357735" stroke-width="0.500000" />
<path stroke="#95949d" stroke-opacity="0.501961" fill="none" d="M 19.189085 173.000000 Q 11.476821 173.000000, -3.497616 -14.877432" stroke-width="0.500000" />
<path stroke="#c5636a" stroke-opacity="0.501961" fill="none" d="M 59.366768 110.786315 Q 26.010061 47.553757, 47.706171 38.157058" stroke-width="0.500000" />
<path stroke="#070c18" stroke-opacity="0.501961" fill="none" d="M 81.800493 73.445634 Q 217.253062 -15.463013, 257.908586 124.703902" stroke-width="0.500000" />
<path stroke="#060d17" stroke-opacity="0.501961" fill="none" d="M 57.321706 153.082909 Q 163.958755 90.717182, 271.000000 45.797766" stroke-width="0.500000" />
<path stroke="#85848e" stroke-opacity="0.501961" fill="none" d="M 13.833203 173.000000 Q 27.672176 11.767939, -16.000000 -1.024357" stroke-width="0.500000" />
<path stroke="#090f19" stroke-opacity="0.501961" fill="none" d="M 68.711904 86.007049 Q 231.442888 -10.625500, 258.351113 161.068620" stroke-width="0.500000" />
<path stroke="#000813" stroke-opacity="0.501961" fill="none" d="M 76.903363 172.360781 Q 240.654956 85.792138, 267.458070 71.829081" stroke-width="0.500000" />
<path stroke="#080e19" stroke-opacity="0.501961" fill="none" d="M 250.993462 -1.525352 Q 266.459493 68.919300, 84.672148 153.456342" stroke-width="0.500000" />
<path stroke="#a6a5a8" stroke-opacity="0.501961" fill="none" d="M 77.231852 120.428405 Q 121.829022 97.223684, 140.761318 87.291411" stroke-width="0.500000" />
<path stroke="#8d7868" stroke-opacity="0.501961" fill="none" d="M 149.579173 11.401841 Q 46.586961 54.307849, 45.802135 77.360029" stroke-width="0.500000" />
<path stroke="#b9ab80" stroke-opacity="0.501961" fill="none" d="M 167.470107 74.248381 Q 122.756882 93.533607, 106.607495 104.443859" stroke-width="0.500000" />
<path stroke="#f7fdf9" stroke-opacity="0.501961" fill="none" d="M 33.416640 8.936479 Q 69.012316 -16.000000, 110.954599 -16.000000" stroke-width="0.500000" />
<path stroke="#080e17" stroke-opacity="0.501961" fill="none" d="M 43.680111 147.415098 Q 167.055802 73.955173, 271.000000 32.507253" stroke-width="0.500000" />
<path stroke="#b99d4d" stroke-opacity="0.501961" fill="none" d="M 156.535800 135.639323 Q 112.356016 161.418587, 87.573978 170.857181" stroke-width="0.500000" />
<path stroke="#091019" stroke-opacity="0.501961" fill="none" d="M 256.078731 0.551429 Q 214.187616 5.595450, 36.941093 89.300944" stroke-width="0.500000" />
<path stroke="#070e18" stroke-opacity="0.501961" fill="none" d="M 227.815537 55.801328 Q 56.236080 165.748682, 34.824730 149.648815" stroke-width="0.500000" />
<path stroke="#e49da0" stroke-opacity="0.501961" fill="none" d="M 71.643857 48.438121 Q 39.497365 54.771547, 47.119797 77.009605" stroke-width="0.500000" />
<path stroke="#0a1019" stroke-opacity="0.501961" fill="none" d="M 262.458542 -16.000000 Q 240.537221 57.022742, 34.088811 140.893269" stroke-width="0.500000" />
<path stroke="#aea664" stroke-opacity="0.501961" fill="none" d="M 146.494338 25.709996 Q 117.963828 35.315549, 59.060225 64.517069" stroke-width="0.500000" />
<path stroke="#aa9d60" stroke-opacity="0.501961" fill="none" d="M 141.928040 22.694534 Q 101.121372 36.393482, 44.339015 66.015629" stroke-width="0.500000" />
<path stroke="#0e121d" stroke-opacity="0.501961" fill="none" d="M 106.278930 -1.319453 Q 254.283358 -5.037881, 261.231457 173.000000" stroke-width="0.500000" />
<path stroke="#b9ac7c" stroke-opacity="0.501961" fill="none" d="M 86.869007 109.794174 Q 102.894901 101.712531, 149.153479 76.633462" stroke-width="0.500000" />
<path stroke="#020914" stroke-opacity="0.501961" fill="none" d="M 271.000000 82.782734 Q 261.442687 70.369929, 82.942766 173.000000" stroke-width="0.500000" />
<path stroke="#020911" stroke-opacity="0.501961" fill="none" d="M 75.269191 164.217571 Q 39.696342 139.425817, 27.620886 6.809688" stroke-width="0.500000" />
<path stroke="#091017" stroke-opacity="0.501961" fill="none" d="M 66.343797 104.695284 Q 207.295895 1.217022, 253.427433 140.468672" stroke-width="0.500000" />
<path stroke="#c19b62" stroke-opacity="0.501961" fill="none" d="M 35.223629 56.943627 Q 81.568986 41.075617, 82.463114 30.774552" stroke-width="0.500000" />
<path stroke="#080e19" stroke-opacity="0.501961" fill="none" d="M 103.317407 142.999366 Q 265.811191 66.482010, 239.735012 -14.247182" stroke-width="0.500000" />
<path stroke="#918f98" stroke-opacity="0.501961" fill="none" d="M 26.664858 173.000000 Q 5.954703 159.559389, 6.078632 18.797969" stroke-width="0.500000" />
<path stroke="#a29d9a" stroke-opacity="0.501961" fill="none" d="M 162.348779 107.363447 Q 130.328072 115.752424, 72.648024 150.521633" stroke-width="0.500000" />
<path stroke="#0a1019" stroke-opacity="0.501961" fill="none" d="M 41.979799 110.550574 Q 221.465474 32.050371, 263.407291 -3.021024" stroke-width="0.500000" />
<path stroke="#dedcd8" stroke-opacity="0.501961" fill="none" d="M 33.118283 8.779913 Q 55.218200 2.923386, 61.090865 -5.786951" stroke-width="0.500000" />
<path stroke="#94939b" stroke-opacity="0.501961" fill="none" d="M 3.127351 -4.186986 Q 0.782793 90.161015, 2.762745 156.509385" stroke-width="0.500000" />
<path stroke="#c8adad" stroke-opacity="0.501961" fill="none" d="M 33.924571 31.253311 Q 95.751570 8.647950, 94.770646 5.804796" stroke-width="0.500000" />
<path stroke="#8f9777" stroke-opacity="0.501961" fill="none" d="M 148.604664 77.947821 Q 106.643291 96.033934, 75.364421 115.044205" stroke-width="0.500000" />
<path stroke="#020810" stroke-opacity="0.501961" fill="none" d="M 42.254389 173.000000 Q 7.088696 -7.553285, 13.697839 -16.000000" stroke-width="0.500000" />
<path stroke="#030911" stroke-opacity="0.501961" fill="none" d="M 80.614013 165.094797 Q 36.628681 166.988474, 24.536158 -16.000000" stroke-width="0.500000" />
<path stroke="#9c927a" stroke-opacity="0.501961" fill="none" d="M 70.623489 140.492086 Q 124.552291 108.318656, 174.145042 85.583304" stroke-width="0.500000" />
<path stroke="#0a0e19" stroke-opacity="0.501961" fill="none" d="M 253.903947 -16.000000 Q 271.000000 107.577988, 130.206444 158.730368" stroke-width="0.500000" />
<path stroke="#010a12" stroke-opacity="0.501961" fill="none" d="M 9.093816 -16.000000 Q 13.377579 16.950122, 37.089102 173.000000" stroke-width="0.500000" />
<path stroke="#888790" stroke-opacity="0.501961" fill="none" d="M 30.725137 173.000000 Q 15.330919 102.623636, 2.464337 1.605793" stroke-width="0.500000" />
<path stroke="#0c111c" stroke-opacity="0.501961" fill="none" d="M 65.465794 82.269650 Q 216.551847 1.754421, 271.000000 2.720363" stroke-width="0.500000" />
<path stroke="#ada27c" stroke-opacity="0.501961" fill="none" d="M 87.344378 124.702957 Q 105.806330 115.240154, 136.987133 98.087637" stroke-width="0.500000" />
<path stroke="#0c101d" stroke-opacity="0.501961" fill="none" d="M 252.586888 128.512310 Q 271.000000 -16.000000, 111.128986 4.571798" stroke-width="0.500000" />
<path stroke="#a99f60" stroke-opacity="0.501961" fill="none" d="M 138.054342 10.368214 Q 119.385791 18.897301, 41.125670 53.514895" stroke-width="0.500000" />
<path stroke="#091019" stroke-opacity="0.501961" fill="none" d="M 267.007514 157.692614 Q 178.557602 10.533844, 64.208777 87.094054" stroke-width="0.500000" />
<path stroke="#a8b36f" stroke-opacity="0.501961" fill="none" d="M 51.577651 49.878703 Q 102.904673 27.474994, 142.609367 9.303545" stroke-width="0.500000" />
<path stroke="#0a101b" stroke-opacity="0.501961" fill="none" d="M 130.010111 159.830430 Q 271.000000 115.569723, 183.699228 -5.538012" stroke-width="0.500000" />
<path stroke="#c3a9a9" stroke-opacity="0.501961" fill="none" d="M 83.152713 42.683099 Q 43.960155 62.159379, 37.744169 56.533508" stroke-width="0.500000" />
<path stroke="#95776b" stroke-opacity="0.501961" fill="none" d="M 225.335858 116.587415 Q 217.046428 120.630272, 154.031044 157.165761" stroke-width="0.500000" />
<path stroke="#88878f" stroke-opacity="0.501961" fill="none" d="M -5.843570 -16.000000 Q 17.191475 -16.000000, 9.158563 158.057898" stroke-width="0.500000" />
<path stroke="#afaeab" stroke-opacity="0.501961" fill="none" d="M 99.934478 91.454869 Q 145.924251 69.444150, 151.161685 63.537577" stroke-width="0.500000" />
<path stroke="#aaa4a1" stroke-opacity="0.501961" fill="none" d="M 163.282553 107.500287 Q 107.508856 134.776809, 52.003158 167.311534" stroke-width="0.500000" />
<path stroke="#a6a09d" stroke-opacity="0.501961" fill="none" d="M 108.242978 91.949643 Q 97.305811 99.300423, 62.622390 114.448282" stroke-width="0.500000" />
<path stroke="#0e141a" stroke-opacity="0.501961" fill="none" d="M 254.235932 158.977856 Q 215.487932 6.486231, 67.666284 86.791215" stroke-width="0.500000" />
<path stroke="#cd4750" stroke-opacity="0.501961" fill="none" d="M 47.920467 101.637845 Q 56.880039 96.755416, 41.902618 34.718491" stroke-width="0.500000" />
<path stroke="#0f1421" stroke-opacity="0.501961" fill="none" d="M 103.321458 6.283446 Q 271.000000 -16.000000, 233.664892 157.016484" stroke-width="0.500000" />
<path stroke="#0c111a" stroke-opacity="0.501961" fill="none" d="M 49.372003 139.945645 Q 269.243402 36.808144, 260.425584 -16.000000" stroke-width="0.500000" />
<path stroke="#ff878a" stroke-opacity="0.501961" fill="none" d="M 48.914571 36.960825 Q 48.462509 42.762342, 34.407291 44.097683" stroke-width="0.500000" />
<path stroke="#c48e7e" stroke-opacity="0.501961" fill="none" d="M 149.190500 12.216393 Q 132.442978 18.730880, 113.844760 28.933499" stroke-width="0.500000" />
<path stroke="#0b0f1a" stroke-opacity="0.501961" fill="none" d="M 135.610772 155.655659 Q 271.000000 94.582679, 245.245431 4.755458" stroke-width="0.500000" />
<path stroke="#12161d" stroke-opacity="0.501961" fill="none" d="M 271.000000 -7.838732 Q 214.687319 18.541179, 33.786866 110.265351" stroke-width="0.500000" />
<path stroke="#908e96" stroke-opacity="0.501961" fill="none" d="M 10.389256 173.000000 Q 4.781711 154.526488, 5.096157 13.088707" stroke-width="0.500000" />
<path stroke="#7a7b86" stroke-opacity="0.501961" fill="none" d="M 10.201117 20.032307 Q 12.775962 83.014392, 30.100048 163.161645" stroke-width="0.500000" />
<path stroke="#f0f4f1" stroke-opacity="0.501961" fill="none" d="M 33.322989 7.472123 Q 41.747641 7.421201, 75.123053 -13.129562" stroke-width="0.500000" />
<path stroke="#948268" stroke-opacity="0.501961" fill="none" d="M 133.636299 139.292732 Q 156.529611 125.737177, 215.876351 90.811684" stroke-width="0.500000" />
<path stroke="#ff868a" stroke-opacity="0.501961" fill="none" d="M 45.595063 95.515594 Q 57.627492 85.743314, 66.768554 91.754280" stroke-width="0.500000" />
<path stroke="#808c55" stroke-opacity="0.501961" fill="none" d="M 143.031444 3.235762 Q 53.843284 46.046652, 49.356472 42.992581" stroke-width="0.500000" />
<path stroke="#09111a" stroke-opacity="0.501961" fill="none" d="M 271.000000 54.786222 Q 119.873627 131.920535, 48.776656 173.000000" stroke-width="0.500000" />
<path stroke="#09101a" stroke-opacity="0.501961" fill="none" d="M 271.000000 53.339755 Q 153.265594 96.273283, 81.817401 141.321838" stroke-width="0.500000" />
<path stroke="#0c111c" stroke-opacity="0.501961" fill="none" d="M 78.708619 69.522739 Q 247.980033 20.337673, 251.005142 134.118208" stroke-width="0.500000" />
<path stroke="#0e141d" stroke-opacity="0.501961" fill="none" d="M 271.000000 2.294312 Q 241.244741 15.879607, 32.414299 122.109736" stroke-width="0.500000" />
<path stroke="#0d121b" stroke-opacity="0.501961" fill="none" d="M 257.665370 112.661037 Q 205.850862 -16.000000, 59.736054 88.862397" stroke-width="0.500000" />
<path stroke="#0c121a" stroke-opacity="0.501961" fill="none" d="M 238.369185 41.029716 Q 49.681624 136.897173, 41.784174 141.798271" stroke-width="0.500000" />
<path stroke="#0c111a" stroke-opacity="0.501961" fill="none" d="M 37.593480 173.000000 Q 48.261210 113.660227, 264.277277 51.324999" stroke-width="0.500000" />
<path stroke="#ee3242" stroke-opacity="0.501961" fill="none" d="M 44.373151 74.448125 Q 36.546998 55.004728, 46.424611 38.803754" stroke-width="0.500000" />
<path stroke="#0f141e" stroke-opacity="0.501961" fill="none" d="M 51.791383 157.704117 Q 229.064938 62.721075, 265.113203 17.786105" stroke-width="0.500000" />
<path stroke="#050f17" stroke-opacity="0.501961" fill="none" d="M 86.420395 173.000000 Q 131.061463 139.026359, 271.000000 69.210484" stroke-width="0.500000" />
<path stroke="#aeaca9" stroke-opacity="0.501961" fill="none" d="M 117.600535 155.031814 Q 122.551673 163.821335, 144.729996 147.205875" stroke-width="0.500000" />
<path stroke="#8b8991" stroke-opacity="0.501961" fill="none" d="M 2.065465 -16.000000 Q 12.121208 136.709365, 21.700618 159.929642" stroke-width="0.500000" />
<path stroke="#b6bcba" stroke-opacity="0.501961" fill="none" d="M 46.941394 89.980195 Q 65.575388 76.633329, 70.720096 77.043921" stroke-width="0.500000" />
<path stroke="#0d151a" stroke-opacity="0.501961" fill="none" d="M 250.372063 127.370568 Q 154.661651 9.768230, 84.051846 94.532696" stroke-width="0.500000" />
<path stroke="#8f8c8b" stroke-opacity="0.501961" fill="none" d="M 69.647793 151.221656 Q 134.493689 114.672525, 162.099052 101.034176" stroke-width="0.500000" />
<path stroke="#cdabac" stroke-opacity="0.501961" fill="none" d="M 34.524691 32.479243 Q 68.363603 21.826077, 90.594012 6.708707" stroke-width="0.500000" />
<path stroke="#a7a3a6" stroke-opacity="0.501961" fill="none" d="M 83.662780 160.757898 Q 126.550039 138.827492, 156.270589 119.181935" stroke-width="0.500000" />
<path stroke="#898069" stroke-opacity="0.501961" fill="none" d="M 75.807555 120.343645 Q 124.652367 97.929042, 177.220176 68.296428" stroke-width="0.500000" />
<path stroke="#070e19" stroke-opacity="0.501961" fill="none" d="M 271.000000 65.661019 Q 241.702219 98.218860, 102.207499 155.652509" stroke-width="0.500000" />
<path stroke="#969f9d" stroke-opacity="0.501961" fill="none" d="M 60.611908 110.249878 Q 83.637611 98.426786, 90.779697 95.081371" stroke-width="0.500000" />
<path stroke="#898987" stroke-opacity="0.501961" fill="none" d="M 164.406306 105.498277 Q 152.786751 106.315280, 65.193333 155.187752" stroke-width="0.500000" />
<path stroke="#b6bab8" stroke-opacity="0.501961" fill="none" d="M 73.908805 65.668843 Q 41.447076 74.581659, 43.186467 80.697084" stroke-width="0.500000" />
<path stroke="#9a8755" stroke-opacity="0.501961" fill="none" d="M 170.133204 12.182362 Q 120.096796 39.244313, 27.516327 78.547583" stroke-width="0.500000" />
<path stroke="#050c13" stroke-opacity="0.501961" fill="none" d="M 4.928155 -7.635785 Q 22.364409 2.431621, 36.741468 173.000000" stroke-width="0.500000" />
<path stroke="#070c14" stroke-opacity="0.501961" fill="none" d="M 24.750687 -16.000000 Q 38.155019 173.000000, 93.337958 173.000000" stroke-width="0.500000" />
<path stroke="#908f97" stroke-opacity="0.501961" fill="none" d="M 6.423637 -16.000000 Q -7.511684 31.271744, 15.220930 172.007815" stroke-width="0.500000" />
<path stroke="#060d14" stroke-opacity="0.501961" fill="none" d="M 26.596752 3.667169 Q 48.918782 139.808579, 49.464886 168.500574" stroke-width="0.500000" />
<path stroke="#8c7f63" stroke-opacity="0.501961" fill="none" d="M 226.402377 85.196013 Q 148.206901 128.269886, 129.163932 140.150945" stroke-width="0.500000" />
<path stroke="#b3977e" stroke-opacity="0.501961" fill="none" d="M 48.840682 87.926667 Q 65.671028 100.657574, 93.473379 82.870654" stroke-width="0.500000" />
<path stroke="#b8bac5" stroke-opacity="0.501961" fill="none" d="M 90.993354 124.444764 Q 110.241463 108.999093, 123.568396 113.080657" stroke-width="0.500000" />
<path stroke="#111622" stroke-opacity="0.501961" fill="none" d="M 103.094523 -0.529447 Q 271.000000 5.460629, 229.965263 158.904682" stroke-width="0.500000" />
<path stroke="#959694" stroke-opacity="0.501961" fill="none" d="M 96.192072 54.243712 Q 68.897843 66.967806, 44.331292 78.788192" stroke-width="0.500000" />
<path stroke="#8b8f90" stroke-opacity="0.501961" fill="none" d="M 54.469967 107.547268 Q 75.997373 100.814122, 120.301782 96.783943" stroke-width="0.500000" />
<path stroke="#bc9090" stroke-opacity="0.501961" fill="none" d="M 45.299567 99.964007 Q 54.953594 98.275565, 88.952427 79.597798" stroke-width="0.500000" />
<path stroke="#0d131c" stroke-opacity="0.501961" fill="none" d="M 264.500883 158.561300 Q 171.643120 7.572960, 83.560767 70.738940" stroke-width="0.500000" />
<path stroke="#0e131c" stroke-opacity="0.501961" fill="none" d="M 168.821680 163.689558 Q 271.000000 100.831970, 142.824682 4.892521" stroke-width="0.500000" />
<path stroke="#0d121d" stroke-opacity="0.501961" fill="none" d="M 65.233482 29.757165 Q 132.179144 -16.000000, 259.305162 11.122891" stroke-width="0.500000" />
<path stroke="#050c16" stroke-opacity="0.501961" fill="none" d="M 131.159358 173.000000 Q 236.937820 68.395173, 266.706307 103.889814" stroke-width="0.500000" />
<path stroke="#979391" stroke-opacity="0.501961" fill="none" d="M 161.212993 109.469657 Q 126.835101 126.654858, 70.040798 156.010283" stroke-width="0.500000" />
<path stroke="#8f7e83" stroke-opacity="0.501961" fill="none" d="M 41.748460 75.918294 Q 56.947268 134.428485, 112.686628 95.922994" stroke-width="0.500000" />
<path stroke="#aeaeab" stroke-opacity="0.501961" fill="none" d="M 151.439191 64.795155 Q 122.932175 78.810058, 101.402608 89.969804" stroke-width="0.500000" />
<path stroke="#0f141d" stroke-opacity="0.501961" fill="none" d="M 58.020552 90.695407 Q 226.873814 -5.086366, 251.973038 143.672248" stroke-width="0.500000" />
<path stroke="#777983" stroke-opacity="0.501961" fill="none" d="M 3.830305 -2.179810 Q 4.287599 9.532377, 29.680397 156.235147" stroke-width="0.500000" />
<path stroke="#aaa9ab" stroke-opacity="0.501961" fill="none" d="M 98.352865 124.131608 Q 147.280035 102.279993, 144.820571 96.294591" stroke-width="0.500000" />
<path stroke="#8e8957" stroke-opacity="0.501961" fill="none" d="M 148.502872 10.281400 Q 153.024510 19.918351, 57.331147 59.525521" stroke-width="0.500000" />
<path stroke="#a99960" stroke-opacity="0.501961" fill="none" d="M 119.074978 13.104987 Q 78.315260 31.495200, 38.407764 50.761808" stroke-width="0.500000" />
<path stroke="#0e121b" stroke-opacity="0.501961" fill="none" d="M 139.113718 154.343851 Q 250.591443 112.578064, 215.260655 6.716515" stroke-width="0.500000" />
<path stroke="#0c141e" stroke-opacity="0.501961" fill="none" d="M 252.808978 19.873780 Q 271.000000 173.000000, 161.456879 154.232032" stroke-width="0.500000" />
<path stroke="#11161d" stroke-opacity="0.501961" fill="none" d="M 259.090128 127.067812 Q 226.089632 -16.000000, 78.452661 58.476508" stroke-width="0.500000" />
<path stroke="#080f16" stroke-opacity="0.501961" fill="none" d="M 22.599139 -16.000000 Q 36.432212 133.232624, 59.097350 173.000000" stroke-width="0.500000" />
<path stroke="#0f151c" stroke-opacity="0.501961" fill="none" d="M 259.661068 173.000000 Q 221.917447 9.638738, 106.843403 95.816601" stroke-width="0.500000" />
<path stroke="#11151e" stroke-opacity="0.501961" fill="none" d="M 249.210562 -0.646457 Q 139.794675 50.782153, 24.319512 101.308783" stroke-width="0.500000" />
<path stroke="#c9dbd8" stroke-opacity="0.501961" fill="none" d="M 68.635889 48.630456 Q 51.389974 52.951340, 51.629291 57.717067" stroke-width="0.500000" />
<path stroke="#10151d" stroke-opacity="0.501961" fill="none" d="M 50.137326 135.481606 Q 260.268262 48.466468, 268.346255 -16.000000" stroke-width="0.500000" />
<path stroke="#0f141f" stroke-opacity="0.501961" fill="none" d="M 50.606241 173.000000 Q 236.393080 84.845592, 255.731444 -0.928623" stroke-width="0.500000" />
<path stroke="#0d131c" stroke-opacity="0.501961" fill="none" d="M 71.289041 98.964911 Q 224.249963 20.731668, 269.628625 -16.000000" stroke-width="0.500000" />
<path stroke="#f43141" stroke-opacity="0.501961" fill="none" d="M 45.836873 38.935553 Q 36.135380 49.053900, 48.552485 71.578791" stroke-width="0.500000" />
<path stroke="#12151e" stroke-opacity="0.501961" fill="none" d="M 29.449508 105.956373 Q 167.460507 35.649131, 269.241338 -5.736113" stroke-width="0.500000" />
<path stroke="#0f171c" stroke-opacity="0.501961" fill="none" d="M 203.911396 -16.000000 Q 214.512664 4.964379, 24.695903 89.282883" stroke-width="0.500000" />
<path stroke="#0d121f" stroke-opacity="0.501961" fill="none" d="M 158.467794 157.007115 Q 271.000000 141.137849, 248.869822 8.100616" stroke-width="0.500000" />
<path stroke="#141a21" stroke-opacity="0.501961" fill="none" d="M 42.690027 124.680257 Q 227.867303 22.087832, 271.000000 41.220378" stroke-width="0.500000" />
<path stroke="#0e161d" stroke-opacity="0.501961" fill="none" d="M 250.272303 -4.639604 Q 170.237646 25.078356, 52.588032 81.986194" stroke-width="0.500000" />
<path stroke="#9aa0a4" stroke-opacity="0.501961" fill="none" d="M 140.071337 103.161202 Q 138.517678 107.607523, 83.266241 126.607246" stroke-width="0.500000" />
<path stroke="#121621" stroke-opacity="0.501961" fill="none" d="M 104.773997 2.846453 Q 271.000000 -14.544691, 254.709858 158.708645" stroke-width="0.500000" />
<path stroke="#9e8f5e" stroke-opacity="0.501961" fill="none" d="M 39.277494 68.229905 Q 83.330319 44.841479, 145.616046 19.192235" stroke-width="0.500000" />
<path stroke="#908e94" stroke-opacity="0.501961" fill="none" d="M 4.351426 -16.000000 Q 3.528078 78.703743, 3.345070 157.889650" stroke-width="0.500000" />
<path stroke="#93876a" stroke-opacity="0.501961" fill="none" d="M 167.612879 88.440433 Q 144.993992 102.831986, 86.774241 132.092872" stroke-width="0.500000" />
<path stroke="#a9a487" stroke-opacity="0.501961" fill="none" d="M 40.629579 79.005513 Q 82.221247 65.728523, 78.124552 31.305608" stroke-width="0.500000" />
<path stroke="#aca6a3" stroke-opacity="0.501961" fill="none" d="M 104.374055 137.656822 Q 153.577696 111.465494, 161.538630 106.458274" stroke-width="0.500000" />
<path stroke="#0e131d" stroke-opacity="0.501961" fill="none" d="M 271.000000 -10.342189 Q 271.000000 0.121195, 65.290054 103.317107" stroke-width="0.500000" />
<path stroke="#9f8e5a" stroke-opacity="0.501961" fill="none" d="M 107.733395 166.471183 Q 153.578988 142.403866, 169.401588 134.028988" stroke-width="0.500000" />
<path stroke="#bbb6b6" stroke-opacity="0.501961" fill="none" d="M 152.545921 128.403917 Q 140.526582 135.832353, 129.396204 139.030310" stroke-width="0.500000" />
<path stroke="#6d727d" stroke-opacity="0.501961" fill="none" d="M 27.470412 173.000000 Q 20.487958 27.436407, -8.387085 -16.000000" stroke-width="0.500000" />
<path stroke="#0e131b" stroke-opacity="0.501961" fill="none" d="M 255.423314 84.566604 Q 223.561229 57.671511, 50.765871 154.283278" stroke-width="0.500000" />
<path stroke="#09101b" stroke-opacity="0.501961" fill="none" d="M 137.330056 160.341836 Q 200.174526 133.342731, 271.000000 65.413840" stroke-width="0.500000" />
<path stroke="#a2a4a7" stroke-opacity="0.501961" fill="none" d="M 140.993281 85.739680 Q 118.387565 104.791366, 87.003800 97.205798" stroke-width="0.500000" />
<path stroke="#0e131f" stroke-opacity="0.501961" fill="none" d="M 157.885055 157.774796 Q 271.000000 149.436652, 223.165984 9.004436" stroke-width="0.500000" />
<path stroke="#d42938" stroke-opacity="0.501961" fill="none" d="M 45.643607 74.824359 Q 53.913760 44.945028, 35.910299 41.398240" stroke-width="0.500000" />
<path stroke="#ab9f74" stroke-opacity="0.501961" fill="none" d="M 145.377593 79.837211 Q 113.637943 97.295242, 89.362801 107.074474" stroke-width="0.500000" />
<path stroke="#83828a" stroke-opacity="0.501961" fill="none" d="M 24.136689 157.932921 Q 10.804251 26.518715, -8.615930 -9.144561" stroke-width="0.500000" />
<path stroke="#8c8a92" stroke-opacity="0.501961" fill="none" d="M 8.845232 173.000000 Q -8.157220 168.160067, 8.556340 -16.000000" stroke-width="0.500000" />
<path stroke="#8c8b93" stroke-opacity="0.501961" fill="none" d="M -3.711310 -16.000000 Q -2.885856 8.824282, 19.186246 173.000000" stroke-width="0.500000" />
<path stroke="#9e6a6e" stroke-opacity="0.501961" fill="none" d="M 38.187921 39.809925 Q 37.723852 99.649789, 63.959119 106.739975" stroke-width="0.500000" />
<path stroke="#d6dbd9" stroke-opacity="0.501961" fill="none" d="M 31.128697 9.287020 Q 45.757292 -1.234806, 52.538388 0.198042" stroke-width="0.500000" />
<path stroke="#bec8c6" stroke-opacity="0.501961" fill="none" d="M 48.611868 24.414020 Q 66.752533 20.169679, 81.664570 14.654545" stroke-width="0.500000" />
<path stroke="#c18471" stroke-opacity="0.501961" fill="none" d="M 121.932119 31.904545 Q 136.357437 11.695747, 149.668050 12.544612" stroke-width="0.500000" />
<path stroke="#afb2ba" stroke-opacity="0.501961" fill="none" d="M 85.311302 124.826487 Q 97.134088 121.801264, 115.552627 109.296098" stroke-width="0.500000" />
<path stroke="#0a1016" stroke-opacity="0.501961" fill="none" d="M 26.381582 -15.582345 Q 44.721231 161.045848, 51.156592 173.000000" stroke-width="0.500000" />
<path stroke="#a7a9a7" stroke-opacity="0.501961" fill="none" d="M 73.445547 73.969776 Q 56.398206 88.133084, 40.183177 90.699853" stroke-width="0.500000" />
<path stroke="#080f15" stroke-opacity="0.501961" fill="none" d="M 39.980783 161.645621 Q 14.496773 -3.184470, 7.292930 -7.128936" stroke-width="0.500000" />
<path stroke="#091117" stroke-opacity="0.501961" fill="none" d="M 172.981377 -16.000000 Q 32.828990 51.838397, 19.862078 38.371067" stroke-width="0.500000" />
<path stroke="#989493" stroke-opacity="0.501961" fill="none" d="M 161.269913 122.095970 Q 151.316777 117.034890, 68.592746 171.010083" stroke-width="0.500000" />
<path stroke="#111521" stroke-opacity="0.501961" fill="none" d="M 148.968851 12.636259 Q 267.090594 -16.000000, 254.690502 123.186584" stroke-width="0.500000" />
<path stroke="#aca35b" stroke-opacity="0.501961" fill="none" d="M 111.964779 35.057687 Q 120.456992 17.530811, 138.484362 9.334371" stroke-width="0.500000" />
<path stroke="#11151f" stroke-opacity="0.501961" fill="none" d="M 254.885036 110.231830 Q 230.870140 -16.000000, 90.957759 66.965418" stroke-width="0.500000" />
<path stroke="#a79952" stroke-opacity="0.501961" fill="none" d="M 103.417239 43.959712 Q 121.829273 33.232355, 148.337817 22.988268" stroke-width="0.500000" />
<path stroke="#131720" stroke-opacity="0.501961" fill="none" d="M 271.000000 9.720583 Q 109.964809 51.599691, 223.340855 173.000000" stroke-width="0.500000" />
<path stroke="#070e14" stroke-opacity="0.501961" fill="none" d="M 37.152263 160.927179 Q 11.823456 16.771712, 19.413064 -16.000000" stroke-width="0.500000" />
<path stroke="#85746b" stroke-opacity="0.501961" fill="none" d="M 163.594928 150.039988 Q 198.532880 132.012528, 219.225973 116.983719" stroke-width="0.500000" />
<path stroke="#090f19" stroke-opacity="0.501961" fill="none" d="M 130.524651 173.000000 Q 129.550551 154.454928, 266.153737 79.878142" stroke-width="0.500000" />
<path stroke="#0f131e" stroke-opacity="0.501961" fill="none" d="M 118.062076 86.020345 Q 211.004914 52.810041, 270.705759 -7.397497" stroke-width="0.500000" />
<path stroke="#898890" stroke-opacity="0.501961" fill="none" d="M 23.432288 167.360175 Q 3.525095 54.304637, 0.829305 18.714761" stroke-width="0.500000" />
<path stroke="#9e9b98" stroke-opacity="0.501961" fill="none" d="M 114.478311 85.401226 Q 144.686022 70.079515, 150.646062 65.470741" stroke-width="0.500000" />
<path stroke="#c8b772" stroke-opacity="0.501961" fill="none" d="M 76.150227 56.495401 Q 64.214120 68.480251, 57.563685 55.695268" stroke-width="0.500000" />
<path stroke="#101520" stroke-opacity="0.501961" fill="none" d="M 223.474766 173.000000 Q 271.000000 41.723135, 111.049143 57.778234" stroke-width="0.500000" />
<path stroke="#0e151a" stroke-opacity="0.501961" fill="none" d="M 24.982775 -16.000000 Q 52.712505 173.000000, 55.634530 173.000000" stroke-width="0.500000" />
<path stroke="#141b22" stroke-opacity="0.501961" fill="none" d="M 233.217372 38.793721 Q 67.419053 18.294912, 102.954304 150.428852" stroke-width="0.500000" />
<path stroke="#aa8e41" stroke-opacity="0.501961" fill="none" d="M 152.439394 135.982537 Q 135.796907 149.474596, 97.536835 167.942151" stroke-width="0.500000" />
<path stroke="#c17d75" stroke-opacity="0.501961" fill="none" d="M 77.693580 92.330767 Q 43.410825 92.380989, 42.556176 94.940578" stroke-width="0.500000" />
<path stroke="#11161f" stroke-opacity="0.501961" fill="none" d="M 40.627380 144.256363 Q 57.513460 162.817785, 258.194895 42.745548" stroke-width="0.500000" />
<path stroke="#d71e31" stroke-opacity="0.501961" fill="none" d="M 44.085752 40.847081 Q 43.580878 45.571413, 44.224519 72.526450" stroke-width="0.500000" />
<path stroke="#afb8b4" stroke-opacity="0.501961" fill="none" d="M 106.650660 92.613978 Q 91.837808 104.291131, 88.838143 100.691624" stroke-width="0.500000" />
<path stroke="#81715e" stroke-opacity="0.501961" fill="none" d="M 164.564245 149.962529 Q 175.500644 148.170029, 230.883573 111.286245" stroke-width="0.500000" />
<path stroke="#141a20" stroke-opacity="0.501961" fill="none" d="M 22.063534 97.240483 Q 213.642736 -9.570809, 256.022335 173.000000" stroke-width="0.500000" />
<path stroke="#afa9a5" stroke-opacity="0.501961" fill="none" d="M 164.108409 102.167343 Q 138.668274 111.632057, 119.870134 126.204933" stroke-width="0.500000" />
<path stroke="#0e161d" stroke-opacity="0.501961" fill="none" d="M 264.742686 66.593005 Q 253.626194 60.722773, 66.522581 164.539994" stroke-width="0.500000" />
<path stroke="#9c8383" stroke-opacity="0.501961" fill="none" d="M 99.207170 75.469610 Q 64.762295 89.492728, 45.575084 102.467311" stroke-width="0.500000" />
<path stroke="#979a59" stroke-opacity="0.501961" fill="none" d="M 65.777718 97.951931 Q 109.232501 72.862552, 133.887141 63.736765" stroke-width="0.500000" />
<path stroke="#11151f" stroke-opacity="0.501961" fill="none" d="M 78.625267 77.090702 Q 233.280421 -3.248244, 255.630137 139.688932" stroke-width="0.500000" />
<path stroke="#0c121b" stroke-opacity="0.501961" fill="none" d="M 87.187925 165.347181 Q 97.765405 157.848928, 258.680417 88.944315" stroke-width="0.500000" />
<path stroke="#101522" stroke-opacity="0.501961" fill="none" d="M 253.022231 2.175059 Q 271.000000 131.806581, 161.736585 154.429001" stroke-width="0.500000" />
<path stroke="#141721" stroke-opacity="0.501961" fill="none" d="M 234.222539 154.640269 Q 110.569887 61.320258, 251.125496 -5.684318" stroke-width="0.500000" />
<path stroke="#101922" stroke-opacity="0.501961" fill="none" d="M 95.554789 131.383678 Q 123.714155 173.000000, 253.875495 74.212665" stroke-width="0.500000" />
<path stroke="#091017" stroke-opacity="0.501961" fill="none" d="M 30.275329 42.682784 Q 131.175964 7.074675, 157.330092 -14.037725" stroke-width="0.500000" />
<path stroke="#a9adae" stroke-opacity="0.501961" fill="none" d="M 39.467556 79.061121 Q 68.578756 64.442868, 78.014501 62.640983" stroke-width="0.500000" />
<path stroke="#ff7277" stroke-opacity="0.501961" fill="none" d="M 38.219953 51.883119 Q 35.343027 40.869703, 48.298577 40.275646" stroke-width="0.500000" />
<path stroke="#797a84" stroke-opacity="0.501961" fill="none" d="M 14.500867 159.637985 Q 37.154617 86.134129, -16.000000 -14.540003" stroke-width="0.500000" />
<path stroke="#84a8ae" stroke-opacity="0.501961" fill="none" d="M 124.183991 143.242550 Q 149.429703 130.448453, 157.413886 119.722466" stroke-width="0.500000" />
<path stroke="#12171f" stroke-opacity="0.501961" fill="none" d="M 39.357310 111.099492 Q 105.659399 84.097855, 267.642185 9.887170" stroke-width="0.500000" />
</g>
</svg>