<svg height="680" width="1024" xmlns="http://www.w3.org/2000/svg"><path d="m0 0h1024v680h-1024z" fill="#5b3e11"/><g fill-opacity=".501961" transform="matrix(4 0 0 4 2 2)"><path d="m185 24 42 118-171-61z" fill="#e4ad3d"/><path d="m82-6 181-10-7 96z"/><path d="m-16-3 101 111-82 77z" fill="#0e0f00"/><path d="m91 87-47 98 205-43z" fill="#94520c"/><path d="m-16 0 93 47 179-55z" fill="#150a08"/><path d="m228 107-57-84 6 79z" fill="#c5a465"/><path d="m271 158-46-50-19 77z" fill="#140200"/><path d="m113 23-51 64 97 10z" fill="#bd8f2f"/><path d="m176 53-52-49 28 58z" fill="#37190a"/><path d="m77 66-49-58-1 138z" fill="#544300"/><path d="m218 160 5-87-53 47z" fill="#956100"/><path d="m247-14 24 127-77-62z" fill="#100800"/><path d="m185 25-10 20-12-13z" fill="#e6be79"/><path d="m6 185 22-80-44-41z" fill="#050200"/><path d="m184 138-27-39-51 10z" fill="#4f2b05"/><path d="m49 46 50-39 74 41z" fill="#4f331f"/><path d="m83 75 6 17 38-6z" fill="#cbc67f"/><path d="m184 138-99-28 75 75z" fill="#9c560a"/><path d="m55 131 19-66-20-45z" fill="#1d1507"/><path d="m13 91 9-71-15 29z" fill="#68584a"/><path d="m176 51 14-14 22 55z" fill="#ac9871"/><path d="m154 50 12 49-60 7z" fill="#bb7d00"/><path d="m23 98 38-9-20-73z" fill="#6a5300"/><path d="m97 56 40-27 31 5z" fill="#7e603f"/><path d="m99 108 47 20-85 28z" fill="#915f30"/><path d="m82 56 63-12-59 37z" fill="#ac6900"/><path d="m183 140 34 38-52 5z" fill="#421300"/><path d="m170 83 11 22 9-27z" fill="#c7b085"/><path d="m-15 27 122-25-123-18z" fill="#201810"/><path d="m261 139-62-71 29-6z" fill="#674619"/><path d="m136 86 46-22-14 26z" fill="#7f591d"/><path d="m70 96 32 10 29-19z" fill="#896f10"/><path d="m130 73 7-18-28 8z" fill="#8f8274"/><path d="m10 46 8-62 5 31z" fill="#5a5449"/><path d="m177 127-21 37-5-45z" fill="#602400"/><path d="m87 51-19-67 38 58z" fill="#221304"/><path d="m39 157-19-20-14 48z" fill="#130400"/><path d="m159 118 40-22-58 14z" fill="#9f8146"/><path d="m37 109 32-18 9 28z" fill="#0b0a00"/><path d="m166 142 41-4 20-39z" fill="#ab750d"/><path d="m253 133-88 51 106-13z" fill="#261200"/><path d="m153 83-44-15 3 17z" fill="#d7a62f"/><path d="m269 12-145 18-27-46z" fill="#170c01"/><path d="m263 59-40 104-7-41z" fill="#5d3b12"/><path d="m90 63 20-14-12 22z" fill="#593923"/><path d="m72 72 23-24-4 45z" fill="#b99031"/><path d="m205 67 23-28-38 1z" fill="#050303"/><path d="m122 135 18 44-103-13z" fill="#63401a"/><path d="m161 65 20-15-78-6z" fill="#9b5c00"/><path d="m182 57-8 9 12-1z" fill="#d2c8b1"/><path d="m191 26-8 20-2-13z" fill="#100603"/><path d="m169 27-6 5 4 12z" fill="#c77f00"/><path d="m164 73-4-10 11-3z" fill="#ebb75c"/><path d="m223 137-19 21-16-6z" fill="#a16100"/><path d="m139 87-29 10 15 1z" fill="#b6b061"/><path d="m210 108v-32l12 34z" fill="#c39530"/><path d="m76 115-33 31 87 21z" fill="#7a4b1e"/><path d="m177 121 18 38-10-59z" fill="#6d4608"/><path d="m189 52-22-12 11 1z" fill="#d2c7ae"/><path d="m5 95-15-79 22-8z" fill="#200f00"/><path d="m112 44-13 35 14 2z" fill="#b66700"/><path d="m161 139-28 25 5 17z" fill="#a86900"/><path d="m154 66v-34l18 16z" fill="#51300a"/><path d="m12 131 55 54-30-81z" fill="#493300"/><path d="m221 98-25-5-9 31z" fill="#8c5f0b"/><path d="m127 66h-8l8-3z" fill="#080000"/><path d="m74 74 9 10-17 2z" fill="#c8b96a"/><path d="m8 69 6 12-5 21z" fill="#64533c"/><path d="m169 73 4 3-2-11z" fill="#060f23"/><path d="m19 12h29l-28 36z" fill="#593d04"/><path d="m151 128 21-7-56-10z" fill="#3d1c00"/><path d="m209 66-13 22 1-22z" fill="#9c7b3b"/><path d="m128 31-29 15-2-49z" fill="#5b350d"/><path d="m150 90-27 8 38 5z" fill="#d78300"/><path d="m175 33-14-28 21 12z" fill="#33220e"/><path d="m178 36 1-9 9-5z" fill="#b9a583"/><path d="m219 99 52 46-27-49z" fill="#6d472b"/><path d="m178 58-8 3-4-31z" fill="#c07900"/><path d="m111 41 26-13 14 20z" fill="#584a45"/><path d="m82 85 23-3 12 9z" fill="#c5be8a"/><path d="m82 65 5-12h12z" fill="#efa000"/><path d="m158 61-16 9 32 19z" fill="#b36000"/><path d="m113 95 15-7-30 5z" fill="#593700"/><path d="m27 95-43 22 50-4z" fill="#070400"/><path d="m134 156-7 6 3 21z" fill="#330a00"/><path d="m230 119-18-50 17-13z" fill="#523600"/><path d="m163 85 13 5v38z" fill="#ae8a40"/><path d="m100 108-45 28 26-35z" fill="#4f2f00"/><path d="m57 79-22 21-14-20z" fill="#6b5c00"/><path d="m163 108 11-13-50 8z" fill="#8d4f00"/><path d="m182 138-22 8 1 26z" fill="#a44200"/><path d="m100 105 17-14 11 17z" fill="#b87500"/><path d="m205 141-21 8-9 15z" fill="#3d1e00"/><path d="m130 134h11l-10-14z" fill="#be9416"/><path d="m191 118 2-26-7 6z" fill="#b89a62"/><path d="m146 51-13-5-20 10z" fill="#cf8400"/><path d="m149 83 9 6-18-5z" fill="#48311a"/><path d="m210 115v9l-6-8z" fill="#bfa46a"/><path d="m84 9 40-25-97 16z" fill="#150900"/><path d="m215 105 7 4-11-1z" fill="#b5aa9d"/><path d="m243 122 28 41-27-3z" fill="#140e05"/><path d="m118 40-33 13 29 1z" fill="#8a632e"/><path d="m118 80 34-18-17-3z" fill="#ce9e35"/><path d="m224 134 16-16-24 5z" fill="#341c00"/><path d="m16 48 2 34 19-28z" fill="#2e1803"/><path d="m196 78-12-33 12 13z" fill="#b8a485"/><path d="m185 50 7-14-20 21z" fill="#bb9e5f"/><path d="m152 31-5 4 13-1z" fill="#b88926"/><path d="m133 39 40 16-12-17z" fill="#432819"/><path d="m126 155-11 18 8 11z" fill="#a1782c"/><path d="m103 79 25-2-23-6z" fill="#d58000"/><path d="m195 94 27 22-6 10z" fill="#a06400"/><path d="m184 43 14 7-3 6z" fill="#8a734d"/><path d="m196 67 5-10-22-2z" fill="#a78a55"/><path d="m207 99 1-19 17 24z" fill="#bd8405"/><path d="m211 130-35 11 50-2z" fill="#a46b00"/><path d="m79 107-39 33 17-56z" fill="#1a1500"/><path d="m120 64 12-7-11 2z" fill="#c9bc94"/><path d="m159 79 1-11-35 8z" fill="#cb8600"/><path d="m229 106-4-17-15-10z" fill="#423734"/><path d="m230 85 41-15-9 44z" fill="#3d2d15"/><path d="m87 95-3 3 12-2z" fill="#bdb04f"/><path d="m169 132-6 6 5-13z" fill="#a67f1e"/><path d="m53 97-7-79 26 58z" fill="#402e08"/><path d="m121 161-26-53-28 23z" fill="#875322"/><path d="m167 66 6 18-12-17z" fill="#c4a459"/><path d="m199 81-10-2 10 8z" fill="#9a6600"/><path d="m176 10 23 7-31 13z" fill="#30200c"/><path d="m264 59-28-32 35-26z" fill="#080200"/><path d="m136 85 14 4-34 5z" fill="#a99a57"/><path d="m85 89-8-4-12 5z" fill="#a1840a"/><path d="m181 45 12-16-11 7z" fill="#170a00"/><path d="m177 155h42l-29 30z" fill="#602d00"/><path d="m143 29-14 2 29 5z" fill="#896746"/><path d="m53 140-43 45h85z" fill="#603410"/><path d="m16 24v26l-7-1z" fill="#655a4b"/><path d="m166 30 10 8-16-3z" fill="#bd7a00"/><path d="m161 102 32 17-37-1z" fill="#906e30"/><path d="m-1 185 1-45 38 5z" fill="#170c00"/><path d="m126 71-16-6 12 10z" fill="#ba9d77"/><path d="m158 66 7-8 14-3z" fill="#cb8400"/><path d="m224 65 12 25-22-9z" fill="#6e4900"/><path d="m235 84-24-67 60 45z" fill="#241402"/><path d="m113 114 13-3-19-5z" fill="#3a1200"/><path d="m10 82 5-15-5-5z" fill="#76664c"/><path d="m139 82 20-1 2 6z" fill="#a09158"/><path d="m175 137-19 12 17-25z" fill="#501500"/><path d="m214 148-10 37 67-12z" fill="#381a00"/><path d="m179 148-6-11 13-7z" fill="#907322"/><path d="m93 67 6 13 27-32z" fill="#aa6700"/><path d="m80 16 8 41-42-14z" fill="#4b3314"/><path d="m203 88h-10l-1 5z" fill="#b6b1a3"/><path d="m178 163-19 12h19z" fill="#120000"/><path d="m71 90 1 9 28-7z" fill="#643f00"/><path d="m178 79-7-18 10 6z" fill="#8f6016"/><path d="m169 84-3-14-12 19z" fill="#905600"/><path d="m25 16 27 75-4-67z" fill="#644a01"/><path d="m149 159-7-34-20 33z" fill="#955200"/><path d="m8 124 9-44 6 30z" fill="#020200"/><path d="m220 126-12 23-8-3z" fill="#7a591c"/><path d="m164 96-19-7-10 5z" fill="#dfa200"/><path d="m126 47-6-2-10 6z" fill="#512d05"/><path d="m103 64-15-2 19-6z" fill="#613914"/><path d="m159 58-6-4-1 9z" fill="#3d2908"/><path d="m71 74 14 6 6-14z" fill="#97772c"/><path d="m160 54 1-7-25 7z" fill="#9e6500"/><path d="m141 84-10 4-1-3z" fill="#854500"/><path d="m186 79-5-3 5 11z" fill="#d7c1a2"/><path d="m180 40h-9l12-9z" fill="#8c764e"/><path d="m-14 10h19l2-9z" fill="#464741"/><path d="m170 55-25 17 7-11z" fill="#8b5600"/><path d="m143 52 20-12-22 1z" fill="#503216"/><path d="m203 108-1 12-14-22z" fill="#7b5c27"/><path d="m114 138-3 13 17-5z" fill="#533108"/><path d="m221 44-20-6-5 19z" fill="#0d0700"/><path d="m224 99-9-12-14-5z" fill="#bb9547"/><path d="m167 102-16 12-22-1z" fill="#776030"/><path d="m55 96 2 21-37-2z" fill="#302900"/><path d="m145 135-6 18-2-14z" fill="#7f1f00"/><path d="m208-16 13 29-64-2z" fill="#0e0a04"/><path d="m94 69-13 4 19 12z" fill="#be9f3d"/><path d="m41 151-51-45 10 27z" fill="#2f2402"/><path d="m20 132 17 8 2-28z" fill="#534600"/><path d="m174 3-11 29-35-8z" fill="#201304"/><path d="m112 99 14-8-27 5z" fill="#a59336"/><path d="m116 89 14-12 15 4z" fill="#d4ac40"/><path d="m232 162-1 12h16z" fill="#664501"/><path d="m46 160 26-35v40z" fill="#70471c"/><path d="m92 92 21-2-19-4z" fill="#b9aa65"/><path d="m174 125 3-28-10 3z" fill="#ae8a46"/><path d="m117 45-10-2-3 5z" fill="#c98815"/><path d="m61 72 6-15-10-7z" fill="#20140e"/><path d="m173 47 14 12-5-11z" fill="#b28827"/><path d="m159 144-7 23 9-9z" fill="#581500"/><path d="m179 150 6-13v9z" fill="#301900"/><path d="m25 89 13-38-14-16z" fill="#462f05"/><path d="m204 61 29-7-19 15z" fill="#201500"/><path d="m58 124 7-43 5 27z" fill="#0d0700"/><path d="m170 33 3-3-1 4z" fill="#ddbb9a"/><path d="m137 47 4 13 6-3z" fill="#be9600"/><path d="m121 65 9-3-5 6z" fill="#4e2c13"/><path d="m151 148 14-29-15 7z" fill="#643a00"/><path d="m77 93-1-6 12 9z" fill="#452400"/><path d="m212 79 37 7-21 10z" fill="#563c02"/><path d="m239 118-31 20 18-21z" fill="#4e2a00"/><path d="m200 103 1 7-6 2z" fill="#a08b5d"/><path d="m217 123-12-14 18-1z" fill="#9c6300"/><path d="m130 44v-3l-3-3z" fill="#8b8880"/><path d="m67 85 20-4-15 10z" fill="#b3952f"/><path d="m212 139h-5v3z" fill="#c2ac80"/><path d="m81 104-11-9 15 2z" fill="#865100"/><path d="m200 62 13 21-17-15z" fill="#856b3a"/><path d="m199 122-11 17 19-2z" fill="#ba7100"/><path d="m132 111 25-7-21-3z" fill="#703200"/><path d="m116 103-5-4 15-2z" fill="#8c5200"/><path d="m231 104 14 13-4-18z" fill="#815728"/><path d="m206 153 24-6v-12z" fill="#6d3800"/><path d="m131 81-2 5-7-3z" fill="#cc8400"/><path d="m131 62-10 12 20-9z" fill="#b39266"/><path d="m189 156 6 13 6-2z" fill="#291000"/><path d="m199 90 9-1 1 21z" fill="#a06900"/><path d="m190 50 7 10-16-13z" fill="#c3b7a6"/><path d="m29-11 21 1-31 29z" fill="#191005"/><path d="m95 52 3 5-17 4z" fill="#e89f04"/><path d="m105 4v26l-17-19z" fill="#4d3a22"/><path d="m238-16 6 54-52 3z" fill="#211505"/><path d="m271 76v30l-26-4z" fill="#281301"/><path d="m211 108 1-5 3 5z" fill="#d9bf8a"/><path d="m96 58 8-6v4z" fill="#524540"/><path d="m80 95v2h5z" fill="#b3ad42"/><path d="m191 72-11-4 13 14z" fill="#916b27"/><path d="m161 66 10-5-4 9z" fill="#cbab7a"/><path d="m167 135 4-13-12 19z" fill="#9c6b10"/><path d="m252 70-11 9-26-44z" fill="#130a00"/><path d="m170 42-2-5 5 5z" fill="#c0b69d"/><path d="m94 65 13 8-23-5z" fill="#855313"/><path d="m112 185 26-21 60 11z" fill="#6d4000"/><path d="m125 103-8-2-7 4z" fill="#e79c00"/><path d="m174 94 3 1-8 4z" fill="#865100"/><path d="m149 102-24-6 40-4z" fill="#c57e00"/><path d="m192 122 1-8 15 6z" fill="#845402"/><path d="m23-1-4 11-13-26z" fill="#4f4c43"/><path d="m151 166-16-15 8 14z" fill="#a17722"/><path d="m197 149 7 8 14-14z" fill="#a36300"/><path d="m169 83-31-5 19-2z" fill="#9a5b00"/><path d="m112 87 10-3h-11z" fill="#9f741b"/><path d="m157 114 8-4-12-1z" fill="#744a07"/><path d="m75 82 1-15-3 5z" fill="#b6a06a"/><path d="m76 28-7 29 10 13z" fill="#593f16"/><path d="m146 164-5-10 19-14z" fill="#aa6403"/><path d="m138 104h-8l5-4z" fill="#b67500"/><path d="m271 73-23-3-24-48z" fill="#2f1b06"/><path d="m214 67-6 13-1-8z" fill="#3d2312"/><path d="m208 67-7 4-4 11z" fill="#a28655"/><path d="m232 149 10-1-23-16z" fill="#482700"/><path d="m94 136 12 13 7-23z" fill="#91602c"/><path d="m11 45 3-27-12 30z" fill="#452d11"/><path d="m7 86v19l7-14z" fill="#3e341f"/><path d="m53 97 14-7 17 3z" fill="#221400"/><path d="m112 19-7-35 41 22z" fill="#170900"/><path d="m183 59 4 13-9-11z" fill="#cab893"/><path d="m141 97 17 4-6-5z" fill="#984e00"/><path d="m164 119 1 9 7-8z" fill="#441d00"/><path d="m194 76-2-5 2-6z" fill="#c4b398"/><path d="m85 83 6-5-8 2z" fill="#a46b00"/><path d="m11 55-26-50 11 100z" fill="#251801"/><path d="m139 68 11 1-12 3z" fill="#814400"/><path d="m198 112h5l-2 2z" fill="#3f1700"/><path d="m184 101 4 17 1-10z" fill="#7b4500"/><path d="m99 77 14-17-11-3z" fill="#a86400"/><path d="m27 185 26-52-41 46z" fill="#462704"/><path d="m204 44-20-16 12-10z" fill="#331e09"/><path d="m202 111 19-14-18-2z" fill="#a16a00"/><path d="m147 124-18-8h13z" fill="#2f0f00"/><path d="m176 134-16 15 5 22z" fill="#9c4400"/><path d="m120 56-18 1 34-13z" fill="#b97101"/><path d="m101 51-15 3 21-11z" fill="#725537"/><path d="m175 22-3-4-5 14z" fill="#2f1b04"/><path d="m185 130-8-5 7-3z" fill="#583200"/><path d="m180 173-1-10 18-15z" fill="#773f00"/><path d="m206 80 6-6-1 9z" fill="#765a3e"/><path d="m108 104 16-4-24-1z" fill="#945500"/><path d="m169 85 21-18-10 17z" fill="#ac8e60"/><path d="m56 67 14 12-19 12z" fill="#493803"/><path d="m88 92-16-2 8-4z" fill="#946800"/><path d="m196 140v6l16-4z" fill="#5d3500"/><path d="m225 178-4-25 11-2z" fill="#200f00"/><path d="m156 89-26 12 11-12z" fill="#dda008"/><path d="m193 67 5-9 2 5z" fill="#a59373"/><path d="m233 40-31 28v-15z" fill="#0b0601"/><path d="m217 123 9-8-2 20z" fill="#432400"/><path d="m123 42h22l3-11z" fill="#55494b"/><path d="m82 52 19-8-19-23z" fill="#31210f"/><path d="m169 40 10 2 1 4z" fill="#d3cabc"/><path d="m140 69 20 9-15-1z" fill="#cd9300"/><path d="m98 66 6 1-2 3z" fill="#eb9e00"/><path d="m139 103-12-4-3 5z" fill="#935700"/><path d="m208 126 4 8 7-7z" fill="#a56200"/><path d="m165 61 13-7-3 6z" fill="#c69200"/><path d="m186 139 2-14 6 2z" fill="#794800"/></g></svg>