<svg xmlns="http://www.w3.org/2000/svg" version="1.1" width="1024" height="680">
<rect x="0" y="0" width="1024" height="680" fill="#5b3e11" />
<g transform="scale(4.000000) translate(0.5 0.5)">
<polygon fill="#e4ad3d" fill-opacity="0.501961" points="185,24 227,142 56,81" />
<polygon fill="#000000" fill-opacity="0.501961" points="82,-6 263,-16 256,80" />
<polygon fill="#0e0f00" fill-opacity="0.501961" points="-16,-3 85,108 3,185" />
<polygon fill="#94520c" fill-opacity="0.501961" points="91,87 44,185 249,142" />
<polygon fill="#150a08" fill-opacity="0.501961" points="-16,0 77,47 256,-8" />
<polygon fill="#c5a465" fill-opacity="0.501961" points="228,107 171,23 177,102" />
<polygon fill="#140200" fill-opacity="0.501961" points="271,158 225,108 206,185" />
<polygon fill="#bd8f2f" fill-opacity="0.501961" points="113,23 62,87 159,97" />
<polygon fill="#37190a" fill-opacity="0.501961" points="176,53 124,4 152,62" />
<polygon fill="#544300" fill-opacity="0.501961" points="77,66 28,8 27,146" />
<polygon fill="#956100" fill-opacity="0.501961" points="218,160 223,73 170,120" />
<polygon fill="#100800" fill-opacity="0.501961" points="247,-14 271,113 194,51" />
<polygon fill="#e6be79" fill-opacity="0.501961" points="185,25 175,45 163,32" />
<polygon fill="#050200" fill-opacity="0.501961" points="6,185 28,105 -16,64" />
<polygon fill="#4f2b05" fill-opacity="0.501961" points="184,138 157,99 106,109" />
<polygon fill="#4f331f" fill-opacity="0.501961" points="49,46 99,7 173,48" />
<polygon fill="#cbc67f" fill-opacity="0.501961" points="83,75 89,92 127,86" />
<polygon fill="#9c560a" fill-opacity="0.501961" points="184,138 85,110 160,185" />
<polygon fill="#1d1507" fill-opacity="0.501961" points="55,131 74,65 54,20" />
<polygon fill="#68584a" fill-opacity="0.501961" points="13,91 22,20 7,49" />
<polygon fill="#ac9871" fill-opacity="0.501961" points="176,51 190,37 212,92" />
<polygon fill="#bb7d00" fill-opacity="0.501961" points="154,50 166,99 106,106" />
<polygon fill="#6a5300" fill-opacity="0.501961" points="23,98 61,89 41,16" />
<polygon fill="#7e603f" fill-opacity="0.501961" points="97,56 137,29 168,34" />
<polygon fill="#915f30" fill-opacity="0.501961" points="99,108 146,128 61,156" />
<polygon fill="#ac6900" fill-opacity="0.501961" points="82,56 145,44 86,81" />
<polygon fill="#421300" fill-opacity="0.501961" points="183,140 217,178 165,183" />
<polygon fill="#c7b085" fill-opacity="0.501961" points="170,83 181,105 190,78" />
<polygon fill="#201810" fill-opacity="0.501961" points="-15,27 107,2 -16,-16" />
<polygon fill="#674619" fill-opacity="0.501961" points="261,139 199,68 228,62" />
<polygon fill="#7f591d" fill-opacity="0.501961" points="136,86 182,64 168,90" />
<polygon fill="#896f10" fill-opacity="0.501961" points="70,96 102,106 131,87" />
<polygon fill="#8f8274" fill-opacity="0.501961" points="130,73 137,55 109,63" />
<polygon fill="#5a5449" fill-opacity="0.501961" points="10,46 18,-16 23,15" />
<polygon fill="#602400" fill-opacity="0.501961" points="177,127 156,164 151,119" />
<polygon fill="#221304" fill-opacity="0.501961" points="87,51 68,-16 106,42" />
<polygon fill="#130400" fill-opacity="0.501961" points="39,157 20,137 6,185" />
<polygon fill="#9f8146" fill-opacity="0.501961" points="159,118 199,96 141,110" />
<polygon fill="#0b0a00" fill-opacity="0.501961" points="37,109 69,91 78,119" />
<polygon fill="#ab750d" fill-opacity="0.501961" points="166,142 207,138 227,99" />
<polygon fill="#261200" fill-opacity="0.501961" points="253,133 165,184 271,171" />
<polygon fill="#d7a62f" fill-opacity="0.501961" points="153,83 109,68 112,85" />
<polygon fill="#170c01" fill-opacity="0.501961" points="269,12 124,30 97,-16" />
<polygon fill="#5d3b12" fill-opacity="0.501961" points="263,59 223,163 216,122" />
<polygon fill="#593923" fill-opacity="0.501961" points="90,63 110,49 98,71" />
<polygon fill="#b99031" fill-opacity="0.501961" points="72,72 95,48 91,93" />
<polygon fill="#050303" fill-opacity="0.501961" points="205,67 228,39 190,40" />
<polygon fill="#63401a" fill-opacity="0.501961" points="122,135 140,179 37,166" />
<polygon fill="#9b5c00" fill-opacity="0.501961" points="161,65 181,50 103,44" />
<polygon fill="#d2c8b1" fill-opacity="0.501961" points="182,57 174,66 186,65" />
<polygon fill="#100603" fill-opacity="0.501961" points="191,26 183,46 181,33" />
<polygon fill="#c77f00" fill-opacity="0.501961" points="169,27 163,32 167,44" />
<polygon fill="#ebb75c" fill-opacity="0.501961" points="164,73 160,63 171,60" />
<polygon fill="#a16100" fill-opacity="0.501961" points="223,137 204,158 188,152" />
<polygon fill="#b6b061" fill-opacity="0.501961" points="139,87 110,97 125,98" />
<polygon fill="#c39530" fill-opacity="0.501961" points="210,108 210,76 222,110" />
<polygon fill="#7a4b1e" fill-opacity="0.501961" points="76,115 43,146 130,167" />
<polygon fill="#6d4608" fill-opacity="0.501961" points="177,121 195,159 185,100" />
<polygon fill="#d2c7ae" fill-opacity="0.501961" points="189,52 167,40 178,41" />
<polygon fill="#200f00" fill-opacity="0.501961" points="5,95 -10,16 12,8" />
<polygon fill="#b66700" fill-opacity="0.501961" points="112,44 99,79 113,81" />
<polygon fill="#a86900" fill-opacity="0.501961" points="161,139 133,164 138,181" />
<polygon fill="#51300a" fill-opacity="0.501961" points="154,66 154,32 172,48" />
<polygon fill="#493300" fill-opacity="0.501961" points="12,131 67,185 37,104" />
<polygon fill="#8c5f0b" fill-opacity="0.501961" points="221,98 196,93 187,124" />
<polygon fill="#080000" fill-opacity="0.501961" points="127,66 119,66 127,63" />
<polygon fill="#c8b96a" fill-opacity="0.501961" points="74,74 83,84 66,86" />
<polygon fill="#64533c" fill-opacity="0.501961" points="8,69 14,81 9,102" />
<polygon fill="#060f23" fill-opacity="0.501961" points="169,73 173,76 171,65" />
<polygon fill="#593d04" fill-opacity="0.501961" points="19,12 48,12 20,48" />
<polygon fill="#3d1c00" fill-opacity="0.501961" points="151,128 172,121 116,111" />
<polygon fill="#9c7b3b" fill-opacity="0.501961" points="209,66 196,88 197,66" />
<polygon fill="#5b350d" fill-opacity="0.501961" points="128,31 99,46 97,-3" />
<polygon fill="#d78300" fill-opacity="0.501961" points="150,90 123,98 161,103" />
<polygon fill="#33220e" fill-opacity="0.501961" points="175,33 161,5 182,17" />
<polygon fill="#b9a583" fill-opacity="0.501961" points="178,36 179,27 188,22" />
<polygon fill="#6d472b" fill-opacity="0.501961" points="219,99 271,145 244,96" />
<polygon fill="#c07900" fill-opacity="0.501961" points="178,58 170,61 166,30" />
<polygon fill="#584a45" fill-opacity="0.501961" points="111,41 137,28 151,48" />
<polygon fill="#c5be8a" fill-opacity="0.501961" points="82,85 105,82 117,91" />
<polygon fill="#efa000" fill-opacity="0.501961" points="82,65 87,53 99,53" />
<polygon fill="#b36000" fill-opacity="0.501961" points="158,61 142,70 174,89" />
<polygon fill="#593700" fill-opacity="0.501961" points="113,95 128,88 98,93" />
<polygon fill="#070400" fill-opacity="0.501961" points="27,95 -16,117 34,113" />
<polygon fill="#330a00" fill-opacity="0.501961" points="134,156 127,162 130,183" />
<polygon fill="#523600" fill-opacity="0.501961" points="230,119 212,69 229,56" />
<polygon fill="#ae8a40" fill-opacity="0.501961" points="163,85 176,90 176,128" />
<polygon fill="#4f2f00" fill-opacity="0.501961" points="100,108 55,136 81,101" />
<polygon fill="#6b5c00" fill-opacity="0.501961" points="57,79 35,100 21,80" />
<polygon fill="#8d4f00" fill-opacity="0.501961" points="163,108 174,95 124,103" />
<polygon fill="#a44200" fill-opacity="0.501961" points="182,138 160,146 161,172" />
<polygon fill="#b87500" fill-opacity="0.501961" points="100,105 117,91 128,108" />
<polygon fill="#3d1e00" fill-opacity="0.501961" points="205,141 184,149 175,164" />
<polygon fill="#be9416" fill-opacity="0.501961" points="130,134 141,134 131,120" />
<polygon fill="#b89a62" fill-opacity="0.501961" points="191,118 193,92 186,98" />
<polygon fill="#cf8400" fill-opacity="0.501961" points="146,51 133,46 113,56" />
<polygon fill="#48311a" fill-opacity="0.501961" points="149,83 158,89 140,84" />
<polygon fill="#bfa46a" fill-opacity="0.501961" points="210,115 210,124 204,116" />
<polygon fill="#150900" fill-opacity="0.501961" points="84,9 124,-16 27,0" />
<polygon fill="#b5aa9d" fill-opacity="0.501961" points="215,105 222,109 211,108" />
<polygon fill="#140e05" fill-opacity="0.501961" points="243,122 271,163 244,160" />
<polygon fill="#8a632e" fill-opacity="0.501961" points="118,40 85,53 114,54" />
<polygon fill="#ce9e35" fill-opacity="0.501961" points="118,80 152,62 135,59" />
<polygon fill="#341c00" fill-opacity="0.501961" points="224,134 240,118 216,123" />
<polygon fill="#2e1803" fill-opacity="0.501961" points="16,48 18,82 37,54" />
<polygon fill="#b8a485" fill-opacity="0.501961" points="196,78 184,45 196,58" />
<polygon fill="#bb9e5f" fill-opacity="0.501961" points="185,50 192,36 172,57" />
<polygon fill="#b88926" fill-opacity="0.501961" points="152,31 147,35 160,34" />
<polygon fill="#432819" fill-opacity="0.501961" points="133,39 173,55 161,38" />
<polygon fill="#a1782c" fill-opacity="0.501961" points="126,155 115,173 123,184" />
<polygon fill="#d58000" fill-opacity="0.501961" points="103,79 128,77 105,71" />
<polygon fill="#a06400" fill-opacity="0.501961" points="195,94 222,116 216,126" />
<polygon fill="#8a734d" fill-opacity="0.501961" points="184,43 198,50 195,56" />
<polygon fill="#a78a55" fill-opacity="0.501961" points="196,67 201,57 179,55" />
<polygon fill="#bd8405" fill-opacity="0.501961" points="207,99 208,80 225,104" />
<polygon fill="#a46b00" fill-opacity="0.501961" points="211,130 176,141 226,139" />
<polygon fill="#1a1500" fill-opacity="0.501961" points="79,107 40,140 57,84" />
<polygon fill="#c9bc94" fill-opacity="0.501961" points="120,64 132,57 121,59" />
<polygon fill="#cb8600" fill-opacity="0.501961" points="159,79 160,68 125,76" />
<polygon fill="#423734" fill-opacity="0.501961" points="229,106 225,89 210,79" />
<polygon fill="#3d2d15" fill-opacity="0.501961" points="230,85 271,70 262,114" />
<polygon fill="#bdb04f" fill-opacity="0.501961" points="87,95 84,98 96,96" />
<polygon fill="#a67f1e" fill-opacity="0.501961" points="169,132 163,138 168,125" />
<polygon fill="#402e08" fill-opacity="0.501961" points="53,97 46,18 72,76" />
<polygon fill="#875322" fill-opacity="0.501961" points="121,161 95,108 67,131" />
<polygon fill="#c4a459" fill-opacity="0.501961" points="167,66 173,84 161,67" />
<polygon fill="#9a6600" fill-opacity="0.501961" points="199,81 189,79 199,87" />
<polygon fill="#30200c" fill-opacity="0.501961" points="176,10 199,17 168,30" />
<polygon fill="#080200" fill-opacity="0.501961" points="264,59 236,27 271,1" />
<polygon fill="#a99a57" fill-opacity="0.501961" points="136,85 150,89 116,94" />
<polygon fill="#a1840a" fill-opacity="0.501961" points="85,89 77,85 65,90" />
<polygon fill="#170a00" fill-opacity="0.501961" points="181,45 193,29 182,36" />
<polygon fill="#602d00" fill-opacity="0.501961" points="177,155 219,155 190,185" />
<polygon fill="#896746" fill-opacity="0.501961" points="143,29 129,31 158,36" />
<polygon fill="#603410" fill-opacity="0.501961" points="53,140 10,185 95,185" />
<polygon fill="#655a4b" fill-opacity="0.501961" points="16,24 16,50 9,49" />
<polygon fill="#bd7a00" fill-opacity="0.501961" points="166,30 176,38 160,35" />
<polygon fill="#906e30" fill-opacity="0.501961" points="161,102 193,119 156,118" />
<polygon fill="#170c00" fill-opacity="0.501961" points="-1,185 0,140 38,145" />
<polygon fill="#ba9d77" fill-opacity="0.501961" points="126,71 110,65 122,75" />
<polygon fill="#cb8400" fill-opacity="0.501961" points="158,66 165,58 179,55" />
<polygon fill="#6e4900" fill-opacity="0.501961" points="224,65 236,90 214,81" />
<polygon fill="#241402" fill-opacity="0.501961" points="235,84 211,17 271,62" />
<polygon fill="#3a1200" fill-opacity="0.501961" points="113,114 126,111 107,106" />
<polygon fill="#76664c" fill-opacity="0.501961" points="10,82 15,67 10,62" />
<polygon fill="#a09158" fill-opacity="0.501961" points="139,82 159,81 161,87" />
<polygon fill="#501500" fill-opacity="0.501961" points="175,137 156,149 173,124" />
<polygon fill="#381a00" fill-opacity="0.501961" points="214,148 204,185 271,173" />
<polygon fill="#907322" fill-opacity="0.501961" points="179,148 173,137 186,130" />
<polygon fill="#aa6700" fill-opacity="0.501961" points="93,67 99,80 126,48" />
<polygon fill="#4b3314" fill-opacity="0.501961" points="80,16 88,57 46,43" />
<polygon fill="#b6b1a3" fill-opacity="0.501961" points="203,88 193,88 192,93" />
<polygon fill="#120000" fill-opacity="0.501961" points="178,163 159,175 178,175" />
<polygon fill="#643f00" fill-opacity="0.501961" points="71,90 72,99 100,92" />
<polygon fill="#8f6016" fill-opacity="0.501961" points="178,79 171,61 181,67" />
<polygon fill="#905600" fill-opacity="0.501961" points="169,84 166,70 154,89" />
<polygon fill="#644a01" fill-opacity="0.501961" points="25,16 52,91 48,24" />
<polygon fill="#955200" fill-opacity="0.501961" points="149,159 142,125 122,158" />
<polygon fill="#020200" fill-opacity="0.501961" points="8,124 17,80 23,110" />
<polygon fill="#7a591c" fill-opacity="0.501961" points="220,126 208,149 200,146" />
<polygon fill="#dfa200" fill-opacity="0.501961" points="164,96 145,89 135,94" />
<polygon fill="#512d05" fill-opacity="0.501961" points="126,47 120,45 110,51" />
<polygon fill="#613914" fill-opacity="0.501961" points="103,64 88,62 107,56" />
<polygon fill="#3d2908" fill-opacity="0.501961" points="159,58 153,54 152,63" />
<polygon fill="#97772c" fill-opacity="0.501961" points="71,74 85,80 91,66" />
<polygon fill="#9e6500" fill-opacity="0.501961" points="160,54 161,47 136,54" />
<polygon fill="#854500" fill-opacity="0.501961" points="141,84 131,88 130,85" />
<polygon fill="#d7c1a2" fill-opacity="0.501961" points="186,79 181,76 186,87" />
<polygon fill="#8c764e" fill-opacity="0.501961" points="180,40 171,40 183,31" />
<polygon fill="#464741" fill-opacity="0.501961" points="-14,10 5,10 7,1" />
<polygon fill="#8b5600" fill-opacity="0.501961" points="170,55 145,72 152,61" />
<polygon fill="#503216" fill-opacity="0.501961" points="143,52 163,40 141,41" />
<polygon fill="#7b5c27" fill-opacity="0.501961" points="203,108 202,120 188,98" />
<polygon fill="#533108" fill-opacity="0.501961" points="114,138 111,151 128,146" />
<polygon fill="#0d0700" fill-opacity="0.501961" points="221,44 201,38 196,57" />
<polygon fill="#bb9547" fill-opacity="0.501961" points="224,99 215,87 201,82" />
<polygon fill="#776030" fill-opacity="0.501961" points="167,102 151,114 129,113" />
<polygon fill="#302900" fill-opacity="0.501961" points="55,96 57,117 20,115" />
<polygon fill="#7f1f00" fill-opacity="0.501961" points="145,135 139,153 137,139" />
<polygon fill="#0e0a04" fill-opacity="0.501961" points="208,-16 221,13 157,11" />
<polygon fill="#be9f3d" fill-opacity="0.501961" points="94,69 81,73 100,85" />
<polygon fill="#2f2402" fill-opacity="0.501961" points="41,151 -10,106 0,133" />
<polygon fill="#534600" fill-opacity="0.501961" points="20,132 37,140 39,112" />
<polygon fill="#201304" fill-opacity="0.501961" points="174,3 163,32 128,24" />
<polygon fill="#a59336" fill-opacity="0.501961" points="112,99 126,91 99,96" />
<polygon fill="#d4ac40" fill-opacity="0.501961" points="116,89 130,77 145,81" />
<polygon fill="#664501" fill-opacity="0.501961" points="232,162 231,174 247,174" />
<polygon fill="#70471c" fill-opacity="0.501961" points="46,160 72,125 72,165" />
<polygon fill="#b9aa65" fill-opacity="0.501961" points="92,92 113,90 94,86" />
<polygon fill="#ae8a46" fill-opacity="0.501961" points="174,125 177,97 167,100" />
<polygon fill="#c98815" fill-opacity="0.501961" points="117,45 107,43 104,48" />
<polygon fill="#20140e" fill-opacity="0.501961" points="61,72 67,57 57,50" />
<polygon fill="#b28827" fill-opacity="0.501961" points="173,47 187,59 182,48" />
<polygon fill="#581500" fill-opacity="0.501961" points="159,144 152,167 161,158" />
<polygon fill="#301900" fill-opacity="0.501961" points="179,150 185,137 185,146" />
<polygon fill="#462f05" fill-opacity="0.501961" points="25,89 38,51 24,35" />
<polygon fill="#201500" fill-opacity="0.501961" points="204,61 233,54 214,69" />
<polygon fill="#0d0700" fill-opacity="0.501961" points="58,124 65,81 70,108" />
<polygon fill="#ddbb9a" fill-opacity="0.501961" points="170,33 173,30 172,34" />
<polygon fill="#be9600" fill-opacity="0.501961" points="137,47 141,60 147,57" />
<polygon fill="#4e2c13" fill-opacity="0.501961" points="121,65 130,62 125,68" />
<polygon fill="#643a00" fill-opacity="0.501961" points="151,148 165,119 150,126" />
<polygon fill="#452400" fill-opacity="0.501961" points="77,93 76,87 88,96" />
<polygon fill="#563c02" fill-opacity="0.501961" points="212,79 249,86 228,96" />
<polygon fill="#4e2a00" fill-opacity="0.501961" points="239,118 208,138 226,117" />
<polygon fill="#a08b5d" fill-opacity="0.501961" points="200,103 201,110 195,112" />
<polygon fill="#9c6300" fill-opacity="0.501961" points="217,123 205,109 223,108" />
<polygon fill="#8b8880" fill-opacity="0.501961" points="130,44 130,41 127,38" />
<polygon fill="#b3952f" fill-opacity="0.501961" points="67,85 87,81 72,91" />
<polygon fill="#c2ac80" fill-opacity="0.501961" points="212,139 207,139 207,142" />
<polygon fill="#865100" fill-opacity="0.501961" points="81,104 70,95 85,97" />
<polygon fill="#856b3a" fill-opacity="0.501961" points="200,62 213,83 196,68" />
<polygon fill="#ba7100" fill-opacity="0.501961" points="199,122 188,139 207,137" />
<polygon fill="#703200" fill-opacity="0.501961" points="132,111 157,104 136,101" />
<polygon fill="#8c5200" fill-opacity="0.501961" points="116,103 111,99 126,97" />
<polygon fill="#815728" fill-opacity="0.501961" points="231,104 245,117 241,99" />
<polygon fill="#6d3800" fill-opacity="0.501961" points="206,153 230,147 230,135" />
<polygon fill="#cc8400" fill-opacity="0.501961" points="131,81 129,86 122,83" />
<polygon fill="#b39266" fill-opacity="0.501961" points="131,62 121,74 141,65" />
<polygon fill="#291000" fill-opacity="0.501961" points="189,156 195,169 201,167" />
<polygon fill="#a06900" fill-opacity="0.501961" points="199,90 208,89 209,110" />
<polygon fill="#c3b7a6" fill-opacity="0.501961" points="190,50 197,60 181,47" />
<polygon fill="#191005" fill-opacity="0.501961" points="29,-11 50,-10 19,19" />
<polygon fill="#e89f04" fill-opacity="0.501961" points="95,52 98,57 81,61" />
<polygon fill="#4d3a22" fill-opacity="0.501961" points="105,4 105,30 88,11" />
<polygon fill="#211505" fill-opacity="0.501961" points="238,-16 244,38 192,41" />
<polygon fill="#281301" fill-opacity="0.501961" points="271,76 271,106 245,102" />
<polygon fill="#d9bf8a" fill-opacity="0.501961" points="211,108 212,103 215,108" />
<polygon fill="#524540" fill-opacity="0.501961" points="96,58 104,52 104,56" />
<polygon fill="#b3ad42" fill-opacity="0.501961" points="80,95 80,97 85,97" />
<polygon fill="#916b27" fill-opacity="0.501961" points="191,72 180,68 193,82" />
<polygon fill="#cbab7a" fill-opacity="0.501961" points="161,66 171,61 167,70" />
<polygon fill="#9c6b10" fill-opacity="0.501961" points="167,135 171,122 159,141" />
<polygon fill="#130a00" fill-opacity="0.501961" points="252,70 241,79 215,35" />
<polygon fill="#c0b69d" fill-opacity="0.501961" points="170,42 168,37 173,42" />
<polygon fill="#855313" fill-opacity="0.501961" points="94,65 107,73 84,68" />
<polygon fill="#6d4000" fill-opacity="0.501961" points="112,185 138,164 198,175" />
<polygon fill="#e79c00" fill-opacity="0.501961" points="125,103 117,101 110,105" />
<polygon fill="#865100" fill-opacity="0.501961" points="174,94 177,95 169,99" />
<polygon fill="#c57e00" fill-opacity="0.501961" points="149,102 125,96 165,92" />
<polygon fill="#845402" fill-opacity="0.501961" points="192,122 193,114 208,120" />
<polygon fill="#4f4c43" fill-opacity="0.501961" points="23,-1 19,10 6,-16" />
<polygon fill="#a17722" fill-opacity="0.501961" points="151,166 135,151 143,165" />
<polygon fill="#a36300" fill-opacity="0.501961" points="197,149 204,157 218,143" />
<polygon fill="#9a5b00" fill-opacity="0.501961" points="169,83 138,78 157,76" />
<polygon fill="#9f741b" fill-opacity="0.501961" points="112,87 122,84 111,84" />
<polygon fill="#744a07" fill-opacity="0.501961" points="157,114 165,110 153,109" />
<polygon fill="#b6a06a" fill-opacity="0.501961" points="75,82 76,67 73,72" />
<polygon fill="#593f16" fill-opacity="0.501961" points="76,28 69,57 79,70" />
<polygon fill="#aa6403" fill-opacity="0.501961" points="146,164 141,154 160,140" />
<polygon fill="#b67500" fill-opacity="0.501961" points="138,104 130,104 135,100" />
<polygon fill="#2f1b06" fill-opacity="0.501961" points="271,73 248,70 224,22" />
<polygon fill="#3d2312" fill-opacity="0.501961" points="214,67 208,80 207,72" />
<polygon fill="#a28655" fill-opacity="0.501961" points="208,67 201,71 197,82" />
<polygon fill="#482700" fill-opacity="0.501961" points="232,149 242,148 219,132" />
<polygon fill="#91602c" fill-opacity="0.501961" points="94,136 106,149 113,126" />
<polygon fill="#452d11" fill-opacity="0.501961" points="11,45 14,18 2,48" />
<polygon fill="#3e341f" fill-opacity="0.501961" points="7,86 7,105 14,91" />
<polygon fill="#221400" fill-opacity="0.501961" points="53,97 67,90 84,93" />
<polygon fill="#170900" fill-opacity="0.501961" points="112,19 105,-16 146,6" />
<polygon fill="#cab893" fill-opacity="0.501961" points="183,59 187,72 178,61" />
<polygon fill="#984e00" fill-opacity="0.501961" points="141,97 158,101 152,96" />
<polygon fill="#441d00" fill-opacity="0.501961" points="164,119 165,128 172,120" />
<polygon fill="#c4b398" fill-opacity="0.501961" points="194,76 192,71 194,65" />
<polygon fill="#a46b00" fill-opacity="0.501961" points="85,83 91,78 83,80" />
<polygon fill="#251801" fill-opacity="0.501961" points="11,55 -15,5 -4,105" />
<polygon fill="#814400" fill-opacity="0.501961" points="139,68 150,69 138,72" />
<polygon fill="#3f1700" fill-opacity="0.501961" points="198,112 203,112 201,114" />
<polygon fill="#7b4500" fill-opacity="0.501961" points="184,101 188,118 189,108" />
<polygon fill="#a86400" fill-opacity="0.501961" points="99,77 113,60 102,57" />
<polygon fill="#462704" fill-opacity="0.501961" points="27,185 53,133 12,179" />
<polygon fill="#331e09" fill-opacity="0.501961" points="204,44 184,28 196,18" />
<polygon fill="#a16a00" fill-opacity="0.501961" points="202,111 221,97 203,95" />
<polygon fill="#2f0f00" fill-opacity="0.501961" points="147,124 129,116 142,116" />
<polygon fill="#9c4400" fill-opacity="0.501961" points="176,134 160,149 165,171" />
<polygon fill="#b97101" fill-opacity="0.501961" points="120,56 102,57 136,44" />
<polygon fill="#725537" fill-opacity="0.501961" points="101,51 86,54 107,43" />
<polygon fill="#2f1b04" fill-opacity="0.501961" points="175,22 172,18 167,32" />
<polygon fill="#583200" fill-opacity="0.501961" points="185,130 177,125 184,122" />
<polygon fill="#773f00" fill-opacity="0.501961" points="180,173 179,163 197,148" />
<polygon fill="#765a3e" fill-opacity="0.501961" points="206,80 212,74 211,83" />
<polygon fill="#945500" fill-opacity="0.501961" points="108,104 124,100 100,99" />
<polygon fill="#ac8e60" fill-opacity="0.501961" points="169,85 190,67 180,84" />
<polygon fill="#493803" fill-opacity="0.501961" points="56,67 70,79 51,91" />
<polygon fill="#946800" fill-opacity="0.501961" points="88,92 72,90 80,86" />
<polygon fill="#5d3500" fill-opacity="0.501961" points="196,140 196,146 212,142" />
<polygon fill="#200f00" fill-opacity="0.501961" points="225,178 221,153 232,151" />
<polygon fill="#dda008" fill-opacity="0.501961" points="156,89 130,101 141,89" />
<polygon fill="#a59373" fill-opacity="0.501961" points="193,67 198,58 200,63" />
<polygon fill="#0b0601" fill-opacity="0.501961" points="233,40 202,68 202,53" />
<polygon fill="#432400" fill-opacity="0.501961" points="217,123 226,115 224,135" />
<polygon fill="#55494b" fill-opacity="0.501961" points="123,42 145,42 148,31" />
<polygon fill="#31210f" fill-opacity="0.501961" points="82,52 101,44 82,21" />
<polygon fill="#d3cabc" fill-opacity="0.501961" points="169,40 179,42 180,46" />
<polygon fill="#cd9300" fill-opacity="0.501961" points="140,69 160,78 145,77" />
<polygon fill="#eb9e00" fill-opacity="0.501961" points="98,66 104,67 102,70" />
<polygon fill="#935700" fill-opacity="0.501961" points="139,103 127,99 124,104" />
<polygon fill="#a56200" fill-opacity="0.501961" points="208,126 212,134 219,127" />
<polygon fill="#c69200" fill-opacity="0.501961" points="165,61 178,54 175,60" />
<polygon fill="#794800" fill-opacity="0.501961" points="186,139 188,125 194,127" />
</g>
</svg>