<svg xmlns="http://www.w3.org/2000/svg" version="1.1" width="1024" height="680">
<rect x="0" y="0" width="1024" height="680" fill="#7b8389" />
<g transform="scale(4.000000) translate(0.5 0.5)">
<polygon fill="#ffffc4" fill-opacity="0.501961" points="271,4 -16,-16 23,77" />
<polygon fill="#001d52" fill-opacity="0.501961" points="271,67 -16,165 253,185" />
<polygon fill="#ffe6bb" fill-opacity="0.501961" points="251,-16 271,58 -16,8" />
<polygon fill="#002b4f" fill-opacity="0.501961" points="-3,185 -9,99 271,168" />
<polygon fill="#dab0a0" fill-opacity="0.501961" points="115,99 208,159 156,87" />
<polygon fill="#ffdfa6" fill-opacity="0.501961" points="-9,-16 -8,55 259,1" />
<polygon fill="#888694" fill-opacity="0.501961" points="270,25 -6,49 41,138" />
<polygon fill="#4e7a97" fill-opacity="0.501961" points="245,123 271,20 125,112" />
<polygon fill="#003b67" fill-opacity="0.501961" points="263,85 182,169 260,185" />
<polygon fill="#66687f" fill-opacity="0.501961" points="68,158 61,55 -16,81" />
<polygon fill="#f9ba99" fill-opacity="0.501961" points="148,128 148,97 178,131" />
<polygon fill="#002d4e" fill-opacity="0.501961" points="271,185 139,138 -7,168" />
<polygon fill="#435e7b" fill-opacity="0.501961" points="182,141 100,97 48,145" />
<polygon fill="#ffc78e" fill-opacity="0.501961" points="177,13 -16,16 58,48" />
<polygon fill="#acaaa5" fill-opacity="0.501961" points="256,32 115,24 49,77" />
<polygon fill="#ffffdb" fill-opacity="0.501961" points="2,0 151,-16 111,21" />
<polygon fill="#4f6e87" fill-opacity="0.501961" points="148,59 183,138 256,110" />
<polygon fill="#ffdbb9" fill-opacity="0.501961" points="112,4 271,-13 243,28" />
<polygon fill="#516d79" fill-opacity="0.501961" points="119,93 191,78 81,58" />
<polygon fill="#003057" fill-opacity="0.501961" points="247,185 197,133 271,136" />
<polygon fill="#b5a09f" fill-opacity="0.501961" points="-2,39 114,100 49,33" />
<polygon fill="#92848e" fill-opacity="0.501961" points="175,124 212,156 189,113" />
<polygon fill="#dbaa93" fill-opacity="0.501961" points="107,97 170,103 160,87" />
<polygon fill="#00243f" fill-opacity="0.501961" points="142,166 27,185 -16,148" />
<polygon fill="#00527a" fill-opacity="0.501961" points="271,150 183,136 250,113" />
<polygon fill="#b6a4a5" fill-opacity="0.501961" points="183,100 220,103 194,108" />
<polygon fill="#255374" fill-opacity="0.501961" points="173,122 161,109 219,77" />
<polygon fill="#98a4a8" fill-opacity="0.501961" points="271,16 91,54 222,63" />
<polygon fill="#4a526d" fill-opacity="0.501961" points="39,101 -16,74 17,166" />
<polygon fill="#a68b86" fill-opacity="0.501961" points="129,92 77,75 34,118" />
<polygon fill="#004b6f" fill-opacity="0.501961" points="271,106 209,100 271,87" />
<polygon fill="#ffda9b" fill-opacity="0.501961" points="-6,37 -1,-3 113,18" />
<polygon fill="#03476b" fill-opacity="0.501961" points="139,130 93,155 230,163" />
<polygon fill="#986e76" fill-opacity="0.501961" points="22,139 11,159 40,132" />
<polygon fill="#72859d" fill-opacity="0.501961" points="209,117 241,125 233,106" />
<polygon fill="#888e98" fill-opacity="0.501961" points="92,52 -2,54 36,90" />
<polygon fill="#c7a296" fill-opacity="0.501961" points="145,117 191,124 161,133" />
<polygon fill="#e8c2a3" fill-opacity="0.501961" points="63,60 84,65 88,80" />
<polygon fill="#002a48" fill-opacity="0.501961" points="2,175 88,171 33,141" />
<polygon fill="#66666b" fill-opacity="0.501961" points="105,72 70,97 83,102" />
<polygon fill="#fdc9ad" fill-opacity="0.501961" points="121,27 241,25 271,-16" />
<polygon fill="#49617c" fill-opacity="0.501961" points="55,127 158,135 142,107" />
<polygon fill="#867c87" fill-opacity="0.501961" points="157,91 106,117 166,110" />
<polygon fill="#3b6b8a" fill-opacity="0.501961" points="192,75 271,88 163,107" />
<polygon fill="#736d80" fill-opacity="0.501961" points="54,147 89,108 15,113" />
<polygon fill="#3a5577" fill-opacity="0.501961" points="154,137 205,158 169,128" />
<polygon fill="#4b4c52" fill-opacity="0.501961" points="136,93 154,84 116,91" />
<polygon fill="#cdb2a2" fill-opacity="0.501961" points="89,91 124,101 114,85" />
<polygon fill="#506075" fill-opacity="0.501961" points="48,107 -16,102 68,84" />
<polygon fill="#ffffe3" fill-opacity="0.501961" points="42,4 108,-16 175,1" />
<polygon fill="#00395f" fill-opacity="0.501961" points="198,137 271,181 223,117" />
<polygon fill="#f6bf9b" fill-opacity="0.501961" points="175,123 145,116 148,107" />
<polygon fill="#19324e" fill-opacity="0.501961" points="9,124 -11,136 24,139" />
<polygon fill="#ca9c97" fill-opacity="0.501961" points="205,144 197,152 195,141" />
<polygon fill="#163c66" fill-opacity="0.501961" points="191,139 191,131 179,130" />
<polygon fill="#6b8899" fill-opacity="0.501961" points="207,53 271,86 117,64" />
<polygon fill="#4a6b82" fill-opacity="0.501961" points="271,60 200,63 268,83" />
<polygon fill="#001a3e" fill-opacity="0.501961" points="-16,144 8,145 8,163" />
<polygon fill="#fbbf8d" fill-opacity="0.501961" points="52,43 87,47 86,12" />
<polygon fill="#003153" fill-opacity="0.501961" points="46,156 204,157 151,185" />
<polygon fill="#2e5477" fill-opacity="0.501961" points="195,106 188,125 225,108" />
<polygon fill="#ffd295" fill-opacity="0.501961" points="108,10 130,34 163,6" />
<polygon fill="#1a3d5b" fill-opacity="0.501961" points="166,119 162,109 182,118" />
<polygon fill="#cdaaa1" fill-opacity="0.501961" points="-2,33 61,32 -4,59" />
<polygon fill="#8a9aae" fill-opacity="0.501961" points="262,117 271,129 245,112" />
<polygon fill="#7b8a8f" fill-opacity="0.501961" points="82,68 162,79 153,48" />
<polygon fill="#c5a5a3" fill-opacity="0.501961" points="252,14 271,61 235,29" />
<polygon fill="#fff0c7" fill-opacity="0.501961" points="267,5 225,-16 154,4" />
<polygon fill="#ffecbc" fill-opacity="0.501961" points="84,4 56,31 22,-8" />
<polygon fill="#a68f94" fill-opacity="0.501961" points="189,126 173,140 192,105" />
<polygon fill="#f1c8a9" fill-opacity="0.501961" points="149,96 156,86 124,99" />
<polygon fill="#827d94" fill-opacity="0.501961" points="191,132 200,134 208,121" />
<polygon fill="#ab9395" fill-opacity="0.501961" points="78,113 93,103 41,94" />
<polygon fill="#c2b9b4" fill-opacity="0.501961" points="189,21 223,29 170,35" />
<polygon fill="#7b838c" fill-opacity="0.501961" points="11,103 74,78 67,61" />
<polygon fill="#aca59e" fill-opacity="0.501961" points="84,66 80,39 183,31" />
<polygon fill="#7f616c" fill-opacity="0.501961" points="17,154 20,142 1,138" />
<polygon fill="#4c626d" fill-opacity="0.501961" points="127,76 102,85 95,76" />
<polygon fill="#c49b95" fill-opacity="0.501961" points="174,140 176,134 192,142" />
<polygon fill="#51606c" fill-opacity="0.501961" points="119,85 119,96 157,80" />
<polygon fill="#dcac94" fill-opacity="0.501961" points="135,108 119,98 133,89" />
<polygon fill="#4c6982" fill-opacity="0.501961" points="142,103 110,123 147,120" />
<polygon fill="#00274c" fill-opacity="0.501961" points="252,164 228,143 271,142" />
<polygon fill="#165d83" fill-opacity="0.501961" points="221,116 206,127 266,141" />
<polygon fill="#1e4564" fill-opacity="0.501961" points="54,159 78,136 150,144" />
<polygon fill="#a68d8b" fill-opacity="0.501961" points="147,100 153,113 177,92" />
<polygon fill="#9198a0" fill-opacity="0.501961" points="271,33 241,61 202,35" />
<polygon fill="#4b5a75" fill-opacity="0.501961" points="117,114 60,147 56,118" />
<polygon fill="#43586a" fill-opacity="0.501961" points="175,81 169,100 161,86" />
<polygon fill="#697183" fill-opacity="0.501961" points="125,125 97,104 109,89" />
<polygon fill="#ffca8a" fill-opacity="0.501961" points="48,29 43,9 -13,33" />
<polygon fill="#5d475a" fill-opacity="0.501961" points="7,161 -9,168 13,165" />
<polygon fill="#596e8b" fill-opacity="0.501961" points="219,161 205,146 197,151" />
<polygon fill="#857a88" fill-opacity="0.501961" points="56,106 27,111 50,139" />
<polygon fill="#fff8d7" fill-opacity="0.501961" points="68,-12 133,-16 108,26" />
<polygon fill="#8193a4" fill-opacity="0.501961" points="202,73 246,80 215,66" />
<polygon fill="#69839c" fill-opacity="0.501961" points="220,107 249,113 242,105" />
<polygon fill="#e1bba1" fill-opacity="0.501961" points="179,17 169,31 132,20" />
<polygon fill="#838697" fill-opacity="0.501961" points="32,98 4,91 21,89" />
<polygon fill="#406e8c" fill-opacity="0.501961" points="182,93 211,74 268,87" />
<polygon fill="#777d7e" fill-opacity="0.501961" points="93,80 86,61 121,62" />
<polygon fill="#08385a" fill-opacity="0.501961" points="49,141 6,174 27,143" />
<polygon fill="#868690" fill-opacity="0.501961" points="16,43 -13,48 -7,40" />
<polygon fill="#c7b2a5" fill-opacity="0.501961" points="56,46 88,50 126,27" />
<polygon fill="#595763" fill-opacity="0.501961" points="36,90 65,84 61,96" />
<polygon fill="#a79292" fill-opacity="0.501961" points="120,117 119,109 133,100" />
<polygon fill="#e2b4a8" fill-opacity="0.501961" points="217,113 223,113 211,117" />
<polygon fill="#939fa4" fill-opacity="0.501961" points="174,64 207,59 144,25" />
<polygon fill="#1c3958" fill-opacity="0.501961" points="-10,131 13,106 -5,108" />
<polygon fill="#ad9a92" fill-opacity="0.501961" points="68,62 92,93 68,86" />
<polygon fill="#52718a" fill-opacity="0.501961" points="148,82 184,68 221,91" />
<polygon fill="#505a6e" fill-opacity="0.501961" points="4,81 -14,89 34,90" />
<polygon fill="#3b6082" fill-opacity="0.501961" points="210,108 213,130 183,122" />
<polygon fill="#fec88b" fill-opacity="0.501961" points="51,42 111,28 78,8" />
<polygon fill="#a898a3" fill-opacity="0.501961" points="236,117 226,113 233,111" />
<polygon fill="#2b415c" fill-opacity="0.501961" points="10,126 37,127 31,136" />
<polygon fill="#236a8f" fill-opacity="0.501961" points="254,125 234,126 258,116" />
<polygon fill="#50627a" fill-opacity="0.501961" points="11,112 34,118 -8,129" />
<polygon fill="#66768a" fill-opacity="0.501961" points="173,88 166,103 192,99" />
<polygon fill="#756a7a" fill-opacity="0.501961" points="47,118 27,140 60,133" />
<polygon fill="#d2ad9e" fill-opacity="0.501961" points="163,94 168,94 160,107" />
<polygon fill="#cba296" fill-opacity="0.501961" points="210,150 196,143 199,140" />
<polygon fill="#847f8b" fill-opacity="0.501961" points="149,93 133,107 161,101" />
<polygon fill="#726978" fill-opacity="0.501961" points="14,129 27,130 10,134" />
<polygon fill="#004566" fill-opacity="0.501961" points="264,90 229,101 271,101" />
<polygon fill="#4b5c7b" fill-opacity="0.501961" points="176,146 191,146 165,129" />
<polygon fill="#ebc2a7" fill-opacity="0.501961" points="96,88 88,96 101,92" />
<polygon fill="#766c73" fill-opacity="0.501961" points="91,93 65,86 81,105" />
<polygon fill="#003e67" fill-opacity="0.501961" points="182,156 263,185 271,163" />
<polygon fill="#2c5370" fill-opacity="0.501961" points="189,98 181,87 211,97" />
<polygon fill="#265172" fill-opacity="0.501961" points="135,121 147,134 103,151" />
<polygon fill="#1f557a" fill-opacity="0.501961" points="227,112 199,113 218,107" />
<polygon fill="#9c8d93" fill-opacity="0.501961" points="195,100 208,100 183,116" />
<polygon fill="#3a5674" fill-opacity="0.501961" points="23,112 26,99 -16,98" />
<polygon fill="#f2b9a0" fill-opacity="0.501961" points="176,123 188,126 182,127" />
<polygon fill="#2c506e" fill-opacity="0.501961" points="167,119 190,110 164,107" />
<polygon fill="#b5afa8" fill-opacity="0.501961" points="115,38 157,46 159,26" />
<polygon fill="#feceac" fill-opacity="0.501961" points="162,88 159,92 155,88" />
<polygon fill="#edb899" fill-opacity="0.501961" points="163,132 148,114 161,113" />
<polygon fill="#536c83" fill-opacity="0.501961" points="181,101 191,81 152,113" />
<polygon fill="#7e8493" fill-opacity="0.501961" points="51,90 61,65 -15,59" />
<polygon fill="#405772" fill-opacity="0.501961" points="76,134 103,135 104,104" />
<polygon fill="#979d9c" fill-opacity="0.501961" points="117,45 166,56 69,62" />
<polygon fill="#fee8a9" fill-opacity="0.501961" points="69,22 147,-3 115,21" />
<polygon fill="#a2a09f" fill-opacity="0.501961" points="14,49 103,48 59,65" />
<polygon fill="#0f3654" fill-opacity="0.501961" points="-7,133 23,129 -6,125" />
<polygon fill="#7f8f9d" fill-opacity="0.501961" points="206,50 271,42 270,59" />
<polygon fill="#837886" fill-opacity="0.501961" points="154,122 148,123 161,135" />
<polygon fill="#455766" fill-opacity="0.501961" points="140,92 144,84 123,87" />
<polygon fill="#38566c" fill-opacity="0.501961" points="271,63 271,73 234,63" />
<polygon fill="#688da3" fill-opacity="0.501961" points="227,70 251,67 259,75" />
<polygon fill="#4a6071" fill-opacity="0.501961" points="193,67 215,67 201,63" />
<polygon fill="#7b8e9c" fill-opacity="0.501961" points="138,77 170,69 155,81" />
<polygon fill="#003355" fill-opacity="0.501961" points="161,146 85,160 247,185" />
<polygon fill="#5a6b86" fill-opacity="0.501961" points="193,105 190,119 206,105" />
<polygon fill="#606a80" fill-opacity="0.501961" points="41,138 64,105 82,121" />
<polygon fill="#ffe1bb" fill-opacity="0.501961" points="27,-16 -7,4 49,10" />
<polygon fill="#f0be9c" fill-opacity="0.501961" points="21,28 45,37 -6,35" />
<polygon fill="#2a4c6d" fill-opacity="0.501961" points="198,114 200,129 193,126" />
<polygon fill="#32698d" fill-opacity="0.501961" points="206,155 219,154 219,158" />
<polygon fill="#e7b9a5" fill-opacity="0.501961" points="234,33 247,28 242,19" />
<polygon fill="#58687d" fill-opacity="0.501961" points="118,125 119,103 90,114" />
<polygon fill="#395577" fill-opacity="0.501961" points="183,137 177,128 188,132" />
<polygon fill="#caa499" fill-opacity="0.501961" points="181,123 166,123 178,133" />
<polygon fill="#607886" fill-opacity="0.501961" points="123,72 117,91 158,68" />
<polygon fill="#ffd7b5" fill-opacity="0.501961" points="210,4 270,3 257,16" />
<polygon fill="#003256" fill-opacity="0.501961" points="260,149 227,162 207,137" />
<polygon fill="#b6adaa" fill-opacity="0.501961" points="240,39 255,42 227,45" />
<polygon fill="#2f4f72" fill-opacity="0.501961" points="195,142 196,133 211,129" />
<polygon fill="#cea696" fill-opacity="0.501961" points="78,110 92,94 89,103" />
<polygon fill="#757e8e" fill-opacity="0.501961" points="30,85 72,74 -16,67" />
<polygon fill="#002543" fill-opacity="0.501961" points="12,152 -16,143 1,164" />
<polygon fill="#055279" fill-opacity="0.501961" points="269,124 238,111 238,121" />
<polygon fill="#2e6081" fill-opacity="0.501961" points="199,91 194,102 231,91" />
<polygon fill="#57627a" fill-opacity="0.501961" points="32,110 17,103 61,94" />
<polygon fill="#243047" fill-opacity="0.501961" points="18,141 31,132 12,137" />
<polygon fill="#687a95" fill-opacity="0.501961" points="207,118 208,126 194,135" />
<polygon fill="#ffcf9d" fill-opacity="0.501961" points="-11,0 -2,26 53,15" />
<polygon fill="#bca6a6" fill-opacity="0.501961" points="210,102 199,106 196,103" />
<polygon fill="#3e444e" fill-opacity="0.501961" points="120,96 122,95 119,89" />
<polygon fill="#767b8b" fill-opacity="0.501961" points="79,118 100,103 94,94" />
<polygon fill="#cdb8ab" fill-opacity="0.501961" points="-1,50 34,37 63,45" />
<polygon fill="#274d6c" fill-opacity="0.501961" points="176,123 185,108 174,114" />
<polygon fill="#002344" fill-opacity="0.501961" points="9,137 -6,134 -14,142" />
<polygon fill="#001e3a" fill-opacity="0.501961" points="4,167 88,185 52,162" />
<polygon fill="#908e9e" fill-opacity="0.501961" points="228,112 228,107 220,104" />
<polygon fill="#bba4a6" fill-opacity="0.501961" points="217,114 211,117 209,114" />
<polygon fill="#b3a1a6" fill-opacity="0.501961" points="215,106 218,103 204,103" />
<polygon fill="#f5c7a1" fill-opacity="0.501961" points="109,28 163,8 209,20" />
<polygon fill="#edbb9a" fill-opacity="0.501961" points="125,91 121,99 127,96" />
<polygon fill="#324865" fill-opacity="0.501961" points="18,148 23,143 3,145" />
<polygon fill="#f6cdad" fill-opacity="0.501961" points="79,64 73,72 73,66" />
<polygon fill="#dda988" fill-opacity="0.501961" points="71,29 63,35 47,32" />
<polygon fill="#0e5f7f" fill-opacity="0.501961" points="243,100 250,112 271,106" />
<polygon fill="#edb498" fill-opacity="0.501961" points="191,141 183,141 183,137" />
<polygon fill="#9e888c" fill-opacity="0.501961" points="166,128 179,128 160,121" />
<polygon fill="#958c88" fill-opacity="0.501961" points="80,67 80,54 92,71" />
<polygon fill="#1f405e" fill-opacity="0.501961" points="56,145 66,160 32,139" />
<polygon fill="#003b5f" fill-opacity="0.501961" points="242,149 203,142 215,135" />
<polygon fill="#2a6182" fill-opacity="0.501961" points="219,102 233,87 235,108" />
<polygon fill="#9b7574" fill-opacity="0.501961" points="26,135 22,140 40,136" />
<polygon fill="#8894a1" fill-opacity="0.501961" points="221,69 196,69 198,76" />
<polygon fill="#fffae7" fill-opacity="0.501961" points="121,-1 62,-16 89,9" />
<polygon fill="#97786c" fill-opacity="0.501961" points="131,95 123,91 136,90" />
<polygon fill="#c8a89c" fill-opacity="0.501961" points="66,105 78,104 72,99" />
<polygon fill="#4e6678" fill-opacity="0.501961" points="130,77 138,86 158,85" />
<polygon fill="#044467" fill-opacity="0.501961" points="181,154 124,149 168,138" />
<polygon fill="#ccc2b8" fill-opacity="0.501961" points="188,30 207,22 227,26" />
<polygon fill="#656175" fill-opacity="0.501961" points="1,132 14,134 7,135" />
<polygon fill="#236486" fill-opacity="0.501961" points="232,83 271,98 270,84" />
<polygon fill="#3f5f7b" fill-opacity="0.501961" points="130,111 148,116 118,139" />
<polygon fill="#005781" fill-opacity="0.501961" points="229,162 243,166 241,160" />
<polygon fill="#c7a294" fill-opacity="0.501961" points="168,97 147,110 164,105" />
<polygon fill="#c6b3a4" fill-opacity="0.501961" points="147,40 101,34 114,26" />
<polygon fill="#506779" fill-opacity="0.501961" points="151,89 151,79 147,86" />
<polygon fill="#003f64" fill-opacity="0.501961" points="205,154 227,167 179,157" />
<polygon fill="#8b828e" fill-opacity="0.501961" points="54,116 21,116 60,103" />
<polygon fill="#fedc96" fill-opacity="0.501961" points="99,18 55,30 81,8" />
<polygon fill="#e0b79d" fill-opacity="0.501961" points="115,95 123,103 114,87" />
<polygon fill="#978e93" fill-opacity="0.501961" points="114,87 99,97 116,100" />
<polygon fill="#776e7f" fill-opacity="0.501961" points="57,136 26,106 47,142" />
<polygon fill="#cfb4a4" fill-opacity="0.501961" points="86,67 85,78 74,73" />
<polygon fill="#e9b99b" fill-opacity="0.501961" points="173,126 151,116 159,111" />
<polygon fill="#757c90" fill-opacity="0.501961" points="33,85 22,98 44,97" />
<polygon fill="#445a74" fill-opacity="0.501961" points="18,120 29,116 29,132" />
<polygon fill="#446f8d" fill-opacity="0.501961" points="212,78 237,80 210,103" />
<polygon fill="#ffdb9d" fill-opacity="0.501961" points="123,19 132,3 177,10" />
<polygon fill="#d6ad98" fill-opacity="0.501961" points="162,90 166,100 160,92" />
<polygon fill="#a9968e" fill-opacity="0.501961" points="75,93 89,70 85,90" />
<polygon fill="#6d869b" fill-opacity="0.501961" points="189,101 197,101 183,95" />
<polygon fill="#787e81" fill-opacity="0.501961" points="90,62 89,95 106,62" />
<polygon fill="#fec18e" fill-opacity="0.501961" points="50,36 79,42 89,28" />
<polygon fill="#00486d" fill-opacity="0.501961" points="224,120 214,128 240,129" />
<polygon fill="#346b8f" fill-opacity="0.501961" points="243,129 248,134 236,132" />
<polygon fill="#dec1a5" fill-opacity="0.501961" points="132,31 148,16 173,17" />
<polygon fill="#efccaf" fill-opacity="0.501961" points="149,95 150,90 157,87" />
<polygon fill="#e4bda6" fill-opacity="0.501961" points="98,92 105,87 99,97" />
<polygon fill="#c8a99a" fill-opacity="0.501961" points="30,43 -16,39 -7,28" />
<polygon fill="#6e797d" fill-opacity="0.501961" points="113,66 130,57 131,64" />
<polygon fill="#6a7c85" fill-opacity="0.501961" points="140,84 107,86 118,78" />
<polygon fill="#f7c39f" fill-opacity="0.501961" points="147,89 143,97 142,90" />
<polygon fill="#2b3c4a" fill-opacity="0.501961" points="168,92 165,90 162,93" />
<polygon fill="#89949b" fill-opacity="0.501961" points="219,44 255,39 232,35" />
<polygon fill="#406484" fill-opacity="0.501961" points="195,106 210,115 216,105" />
<polygon fill="#999794" fill-opacity="0.501961" points="75,63 59,51 103,55" />
<polygon fill="#7993a8" fill-opacity="0.501961" points="246,79 266,85 270,77" />
<polygon fill="#908d98" fill-opacity="0.501961" points="27,56 48,76 -10,51" />
<polygon fill="#808895" fill-opacity="0.501961" points="175,91 177,87 186,94" />
<polygon fill="#6d7589" fill-opacity="0.501961" points="-7,84 -12,34 14,84" />
<polygon fill="#476880" fill-opacity="0.501961" points="170,78 159,88 197,88" />
<polygon fill="#2c425d" fill-opacity="0.501961" points="24,134 33,137 33,126" />
<polygon fill="#002749" fill-opacity="0.501961" points="118,169 177,162 226,185" />
<polygon fill="#a4a7a7" fill-opacity="0.501961" points="155,48 211,31 142,32" />
<polygon fill="#647790" fill-opacity="0.501961" points="186,123 175,122 185,118" />
<polygon fill="#83767d" fill-opacity="0.501961" points="162,107 152,111 153,114" />
<polygon fill="#003250" fill-opacity="0.501961" points="17,159 60,158 45,146" />
<polygon fill="#8898a1" fill-opacity="0.501961" points="207,61 148,52 207,43" />
<polygon fill="#2b5372" fill-opacity="0.501961" points="196,101 202,95 215,101" />
<polygon fill="#7d5f6b" fill-opacity="0.501961" points="-2,141 6,144 12,138" />
<polygon fill="#1e4467" fill-opacity="0.501961" points="206,135 202,140 188,137" />
<polygon fill="#493f56" fill-opacity="0.501961" points="12,164 14,157 11,155" />
<polygon fill="#00466d" fill-opacity="0.501961" points="241,126 271,126 253,136" />
<polygon fill="#678291" fill-opacity="0.501961" points="209,47 219,47 211,51" />
<polygon fill="#98777b" fill-opacity="0.501961" points="20,140 15,144 28,140" />
<polygon fill="#a0a5aa" fill-opacity="0.501961" points="271,46 246,18 261,19" />
<polygon fill="#013a5a" fill-opacity="0.501961" points="62,161 95,149 134,160" />
<polygon fill="#836771" fill-opacity="0.501961" points="12,150 19,156 9,138" />
<polygon fill="#716c7e" fill-opacity="0.501961" points="156,136 168,131 168,126" />
<polygon fill="#a08e91" fill-opacity="0.501961" points="59,106 71,107 69,80" />
<polygon fill="#a0a5a8" fill-opacity="0.501961" points="223,53 235,51 247,56" />
<polygon fill="#2c4f6e" fill-opacity="0.501961" points="151,143 170,138 144,130" />
<polygon fill="#3c7394" fill-opacity="0.501961" points="248,135 261,145 271,143" />
<polygon fill="#566e7f" fill-opacity="0.501961" points="237,67 212,66 237,56" />
<polygon fill="#fbc395" fill-opacity="0.501961" points="137,18 115,24 132,31" />
<polygon fill="#d0a093" fill-opacity="0.501961" points="194,149 199,143 195,144" />
<polygon fill="#3d6b87" fill-opacity="0.501961" points="271,72 233,74 256,79" />
<polygon fill="#67677b" fill-opacity="0.501961" points="-16,121 5,120 7,127" />
<polygon fill="#ffeec0" fill-opacity="0.501961" points="210,-16 81,-14 166,9" />
<polygon fill="#fdf1ca" fill-opacity="0.501961" points="116,18 102,6 102,24" />
<polygon fill="#c7b6ab" fill-opacity="0.501961" points="186,31 203,25 167,27" />
<polygon fill="#6d8494" fill-opacity="0.501961" points="226,54 215,60 194,54" />
<polygon fill="#50606a" fill-opacity="0.501961" points="100,79 98,84 117,83" />
<polygon fill="#997e84" fill-opacity="0.501961" points="36,134 28,141 32,141" />
<polygon fill="#003b62" fill-opacity="0.501961" points="239,132 209,152 259,145" />
<polygon fill="#647a8a" fill-opacity="0.501961" points="184,73 166,64 148,74" />
<polygon fill="#565970" fill-opacity="0.501961" points="48,141 68,138 66,151" />
<polygon fill="#557e99" fill-opacity="0.501961" points="220,94 235,94 227,97" />
<polygon fill="#c2a9a3" fill-opacity="0.501961" points="127,109 121,112 123,113" />
<polygon fill="#18344f" fill-opacity="0.501961" points="18,141 9,137 19,134" />
<polygon fill="#9fa0a4" fill-opacity="0.501961" points="234,25 215,25 234,33" />
<polygon fill="#f0bd9f" fill-opacity="0.501961" points="170,121 173,123 172,130" />
<polygon fill="#8e8c9c" fill-opacity="0.501961" points="206,115 214,119 216,115" />
<polygon fill="#9c898a" fill-opacity="0.501961" points="151,93 142,116 151,105" />
<polygon fill="#8e848e" fill-opacity="0.501961" points="84,113 81,94 76,113" />
<polygon fill="#a6a1a4" fill-opacity="0.501961" points="50,63 18,48 56,46" />
<polygon fill="#5b6482" fill-opacity="0.501961" points="203,149 198,154 201,145" />
<polygon fill="#86899c" fill-opacity="0.501961" points="196,104 210,104 207,107" />
<polygon fill="#888891" fill-opacity="0.501961" points="69,79 38,78 26,91" />
<polygon fill="#1e587f" fill-opacity="0.501961" points="242,116 234,113 240,109" />
<polygon fill="#46597c" fill-opacity="0.501961" points="189,143 198,153 184,144" />
</g>
</svg>