<svg height="680" width="1024" xmlns="http://www.w3.org/2000/svg"><path d="m0 0h1024v680h-1024z" fill="#8c918b"/><g fill-opacity=".501961"><path d="m-.5-.5h1v1h-1z" fill="#f5fcff" transform="matrix(855.5916114 -120.24555924 50.65900876 360.45757704 538 166)"/><path d="m-.5-.5h1v1h-1z" fill="#1b1f14" transform="matrix(720.8792752 -127.11046604 59.73497312 338.77386704 694 538)"/><path d="m-.5-.5h1v1h-1z" fill="#2e2f00" transform="matrix(335.79531788 11.72623088 -6.4215074 183.88791216 86 450)"/><path d="m-.5-.5h1v1h-1z" transform="matrix(98.16271836 -19.08089952 40.451507 208.10496288 542 366)"/><path d="m-.5-.5h1v1h-1z" transform="matrix(407.75145744 14.23899464 -3.35035168 95.9415194 154 678)"/><path d="m-.5-.5h1v1h-1z" fill="#e8eceb" transform="matrix(-451.3758448 -137.99944464 47.94895956 -156.83397996 242 306)"/><path d="m-.5-.5h1v1h-1z" fill="#bcae99" transform="matrix(149.62267848 144.48894104 -130.59577364 135.23588248 778 678)"/><path d="m-.5-.5h1v1h-1z" fill="#36310c" transform="matrix(-76.32359816 -392.65087336 121.72177076 -23.66031544 34 538)"/><path d="m-.5-.5h1v1h-1z" transform="matrix(-186.97011632 19.65135108 -2.50868312 -23.86852548 606 310)"/><path d="m-.5-.5h1v1h-1z" fill="#d3dddf" transform="matrix(1.6056214 91.98598796 -103.98416028 1.81505028 686 354)"/><path d="m-.5-.5h1v1h-1z" fill="#0b1d28" transform="matrix(125.53946016 -40.79024324 33.3738354 102.71410376 1010 322)"/><path d="m-.5-.5h1v1h-1z" fill="#e9ebe9" transform="matrix(351.02624036 -134.74634904 45.87109756 119.4982946 906 210)"/><path d="m-.5-.5h1v1h-1z" fill="#000002" transform="matrix(-119.34262744 12.5434156 -10.45284632 -99.45218952 414 614)"/><path d="m-.5-.5h1v1h-1z" transform="matrix(-350.66053372 30.67882144 -1.74311484 -19.92389396 802 638)"/><path d="m-.5-.5h1v1h-1z" fill="#475a73" transform="matrix(295.01141476 -113.24427204 51.60498472 134.4355814 38 38)"/><path d="m-.5-.5h1v1h-1z" transform="matrix(1.11678388 31.98050648 -203.87572872 7.11949732 634 574)"/><path d="m-.5-.5h1v1h-1z" fill="#a7a15c" transform="matrix(-142.386991 -103.4502044 65.83194824 -90.60990336 278 434)"/><path d="m-.5-.5h1v1h-1z" fill="#000705" transform="matrix(-69.00655596 -135.43299168 74.84454804 -38.13520196 610 462)"/><path d="m-.5-.5h1v1h-1z" fill="#a0a9b0" transform="matrix(0 60 -128 0 430 530)"/><path d="m-.5-.5h1v1h-1z" fill="#d2c8bb" transform="matrix(8.91773792 -8.02956728 216.79831648 240.77892344 842 442)"/><path d="m-.5-.5h1v1h-1z" fill="#ffefd2" transform="matrix(64 0 0 36 510 598)"/><path d="m-.5-.5h1v1h-1z" fill="#ecdfb2" transform="matrix(31.99512624 .558477 -2.79238504 159.97563124 770 542)"/><path d="m-.5-.5h1v1h-1z" fill="#332f18" transform="matrix(9.35306512 267.83674164 -151.90740572 5.30472348 1022 554)"/><path d="m-.5-.5h1v1h-1z" fill="#f7e8cd" transform="matrix(-.27923852 15.99756312 -223.96588372 -3.90933904 642 610)"/><path d="m-.5-.5h1v1h-1z" fill="#c6b396" transform="matrix(8.36695132 95.634691 -255.02584272 22.31187016 210 586)"/><path d="m-.5-.5h1v1h-1z" fill="#dce3eb" transform="matrix(-42.57825364 170.77204784 -372.59355888 -92.89800792 666 162)"/><path d="m-.5-.5h1v1h-1z" fill="#3e4504" transform="matrix(0 -56 288 0 206 506)"/><path d="m-.5-.5h1v1h-1z" fill="#fff" transform="matrix(12.27439212 -25.16623328 32.35658568 15.78136128 578 370)"/><path d="m-.5-.5h1v1h-1z" fill="#948f83" transform="matrix(-60.18150232 79.863551 -92.64171916 -69.81054268 890 534)"/><path d="m-.5-.5h1v1h-1z" transform="matrix(38.95908572 96.42712088 -18.54367708 7.49213188 802 538)"/><path d="m-.5-.5h1v1h-1z" fill="#99a7b9" transform="matrix(-428.98457072 347.38485584 -75.51844692 -93.25751536 154 98)"/><path d="m-.5-.5h1v1h-1z" transform="matrix(114.23769936 -20.1431886 7.6405198 43.33154112 910 610)"/><path d="m-.5-.5h1v1h-1z" fill="#eaddc6" transform="matrix(-1.39449188 -15.93911516 310.8127458 -27.19259172 626 678)"/><path d="m-.5-.5h1v1h-1z" fill="#8f969b" transform="matrix(44.60248508 -80.46501304 300.86917924 166.77450936 882 14)"/><path d="m-.5-.5h1v1h-1z" fill="#090e07" transform="matrix(-59.853843 4.18538844 -7.53369916 -107.73691744 522 322)"/><path d="m-.5-.5h1v1h-1z" transform="matrix(3.47296356 -19.69615508 106.35923732 18.7540032 466 422)"/><path d="m-.5-.5h1v1h-1z" fill="#f0f3f1" transform="matrix(171.34548808 14.99078776 -9.06419724 103.6042486 398 346)"/><path d="m-.5-.5h1v1h-1z" fill="#847664" transform="matrix(20.31801868 -47.86625236 58.91231064 25.00679224 546 246)"/><path d="m-.5-.5h1v1h-1z" fill="#7e7763" transform="matrix(45.9626666 38.5672566 -154.26902632 183.85066636 982 638)"/><path d="m-.5-.5h1v1h-1z" fill="#0a0f14" transform="matrix(-5.01023164 -35.64965048 150.52074644 -21.15431136 566 638)"/><path d="m-.5-.5h1v1h-1z" fill="#1c2730" transform="matrix(78.02042484 48.75257232 -91.14611344 145.86427252 10 2)"/><path d="m-.5-.5h1v1h-1z" fill="#a6afb5" transform="matrix(3.05294392 -15.70603492 204.17845416 39.68827104 406 446)"/><path d="m-.5-.5h1v1h-1z" fill="#000f11" transform="matrix(-205.97575828 -28.948005 3.34015444 -23.76643364 458 486)"/><path d="m-.5-.5h1v1h-1z" fill="#c2d5e5" transform="matrix(16.90473048 -36.25231148 39.87754264 18.59520352 678 442)"/><path d="m-.5-.5h1v1h-1z" fill="#3a3c36" transform="matrix(-208.52021876 -101.70210604 7.01393836 -14.38070476 538 322)"/><path d="m-.5-.5h1v1h-1z" fill="#0e1015" transform="matrix(-453.50198428 47.66497924 -3.34491084 -31.82470064 118 666)"/><path d="m-.5-.5h1v1h-1z" transform="matrix(13.42062968 19.89690176 -116.06526016 78.28700648 450 602)"/><path d="m-.5-.5h1v1h-1z" fill="#657676" transform="matrix(26.09432232 113.02692752 -202.66897348 46.78981932 886 362)"/><path d="m-.5-.5h1v1h-1z" fill="#000501" transform="matrix(167.36070928 -14.6421648 .69724596 7.9695576 454 534)"/><path d="m-.5-.5h1v1h-1z" fill="#d8dfe3" transform="matrix(59.02894252 -236.7521572 182.41559652 45.48131636 350 274)"/><path d="m-.5-.5h1v1h-1z" fill="#e8ecea" transform="matrix(94.2362096 18.31766356 -14.50148364 74.60366596 614 262)"/><path d="m-.5-.5h1v1h-1z" fill="#0d1109" transform="matrix(-7.24693328 27.04592312 -131.36591236 -35.19939012 918 450)"/><path d="m-.5-.5h1v1h-1z" fill="#766d5f" transform="matrix(122.11616136 -21.53237404 15.28103964 86.66308228 94 606)"/><path d="m-.5-.5h1v1h-1z" transform="matrix(2.09343824 39.9451814 -107.85198976 5.65228328 618 578)"/><path d="m-.5-.5h1v1h-1z" fill="#a1a48c" transform="matrix(-34.64101616 -20 58 -100.45894684 802 410)"/><path d="m-.5-.5h1v1h-1z" fill="#757936" transform="matrix(33.8690654 -135.84140168 135.84140168 33.8690654 118 426)"/><path d="m-.5-.5h1v1h-1z" fill="#000509" transform="matrix(-32.88763648 -14.64251916 27.65809172 -62.12109112 754 406)"/><path d="m-.5-.5h1v1h-1z" fill="#c4cccf" transform="matrix(-.83707768 -11.9707686 167.59076044 -11.7190876 542 550)"/><path d="m-.5-.5h1v1h-1z" fill="#fff" transform="matrix(116.92440776 -26.99412652 6.29862952 27.2823618 678 330)"/><path d="m-.5-.5h1v1h-1z" fill="#1a1c11" transform="matrix(-98.16271836 19.08089952 -3.81617992 -19.63254368 626 310)"/><path d="m-.5-.5h1v1h-1z" transform="matrix(-72.49698932 -56.64085572 12.31322952 -15.76021508 846 598)"/><path d="m-.5-.5h1v1h-1z" fill="#000001" transform="matrix(22.8253564 7.41640788 -28.42956348 87.49719948 978 562)"/><path d="m-.5-.5h1v1h-1z" fill="#000c09" transform="matrix(-71.29930096 10.02046328 -6.68030884 -47.53286728 714 566)"/><path d="m-.5-.5h1v1h-1z" fill="#d1c7af" transform="matrix(.41868764 7.98903628 -351.51759624 18.4222566 646 602)"/><path d="m-.5-.5h1v1h-1z" fill="#9d9a77" transform="matrix(-135.43299168 69.00655596 -21.791544 -42.76831316 334 458)"/><path d="m-.5-.5h1v1h-1z" fill="#0a1817" transform="matrix(12.9012462 33.60889536 -179.24744188 68.80664632 570 406)"/><path d="m-.5-.5h1v1h-1z" fill="#d8e0e8" transform="matrix(-32 55.42562584 -3.4641016 -2 714 518)"/><path d="m-.5-.5h1v1h-1z" fill="#02090e" transform="matrix(-23.90867276 -2.09173784 7.66970536 -87.66513344 338 534)"/><path d="m-.5-.5h1v1h-1z" fill="#b4b8b4" transform="matrix(95.0087276 -42.30061088 94.3629012 211.94254616 978 154)"/><path d="m-.5-.5h1v1h-1z" transform="matrix(-13.7146768 -8.2406092 28.8421322 -48.00136884 802 474)"/><path d="m-.5-.5h1v1h-1z" fill="#6d7a80" transform="matrix(-31.02781568 -55.97566124 59.47414008 -32.96705416 678 386)"/><path d="m-.5-.5h1v1h-1z" fill="#181a10" transform="matrix(2.4403608 27.89345156 -167.36070928 14.6421648 158 526)"/><path d="m-.5-.5h1v1h-1z" fill="#ffffe1" transform="matrix(6.35903116 10.17657716 -16.96096192 10.59838528 602 454)"/><path d="m-.5-.5h1v1h-1z" fill="#d6ceba" transform="matrix(-9.177223 13.10643272 -121.23450256 -84.88931256 298 586)"/><path d="m-.5-.5h1v1h-1z" fill="#6e747c" transform="matrix(164 0 0 56 958 2)"/><path d="m-.5-.5h1v1h-1z" fill="#aaac9b" transform="matrix(6.35903116 -10.17657716 33.92192384 21.19677056 390 582)"/><path d="m-.5-.5h1v1h-1z" fill="#323a17" transform="matrix(-126.0553924 -22.22696676 15.28103964 -86.66308228 22 382)"/><path d="m-.5-.5h1v1h-1z" fill="#eff6fd" transform="matrix(.62573788 3.95075336 -55.31054708 8.76033004 538 514)"/><path d="m-.5-.5h1v1h-1z" fill="#d0d3d4" transform="matrix(10.45868912 -119.54336376 123.52814256 10.80731212 106 286)"/><path d="m-.5-.5h1v1h-1z" fill="#d2dbe0" transform="matrix(-147.18924052 15.47021256 -.83622772 -7.95617516 426 518)"/><path d="m-.5-.5h1v1h-1z" fill="#cecbbb" transform="matrix(39.59797976 39.59797976 -8.48528136 8.48528136 846 562)"/><path d="m-.5-.5h1v1h-1z" fill="#c5bea7" transform="matrix(1.11678388 -31.98050648 147.9098424 5.16512552 758 614)"/><path d="m-.5-.5h1v1h-1z" fill="#2e3421" transform="matrix(0 232 -56 0 998 394)"/><path d="m-.5-.5h1v1h-1z" fill="#5d672d" transform="matrix(-106.94895144 -15.03069492 2.2267696 -15.84428908 342 418)"/><path d="m-.5-.5h1v1h-1z" fill="#1f2927" transform="matrix(-20.13825252 -24.86867076 96.36609924 -78.03572848 690 498)"/><path d="m-.5-.5h1v1h-1z" fill="#dee4e8" transform="matrix(3.152043 -2.46264592 100.96848196 129.2337636 802 390)"/><path d="m-.5-.5h1v1h-1z" fill="#45453f" transform="matrix(-61.1299366 -63.30190244 20.1415144 -19.45043436 890 522)"/><path d="m-.5-.5h1v1h-1z" fill="#4a4a4e" transform="matrix(255.96100996 -4.46781604 1.116954 63.99025248 410 678)"/><path d="m-.5-.5h1v1h-1z" fill="#1e3439" transform="matrix(200.13935068 125.06094636 -10.59838528 16.96096192 542 474)"/><path d="m-.5-.5h1v1h-1z" fill="#c8d3d9" transform="matrix(-46.1405614 -13.23059308 2.20509884 -7.69009356 718 438)"/><path d="m-.5-.5h1v1h-1z" fill="#b7cadb" transform="matrix(-62.82413976 12.21177572 -.763236 -3.92650872 494 470)"/><path d="m-.5-.5h1v1h-1z" fill="#cfd4d8" transform="matrix(147.44736796 103.24375856 -119.30389876 170.3836252 206 246)"/><path d="m-.5-.5h1v1h-1z" fill="#a49b85" transform="matrix(6.12361644 -43.57179504 31.6885782 4.45353924 1018 546)"/><path d="m-.5-.5h1v1h-1z" fill="#b8c3d2" transform="matrix(-107.51038488 -280.07412796 313.68302332 -120.41163104 414 2)"/><path d="m-.5-.5h1v1h-1z" fill="#958e81" transform="matrix(67.49313832 8.28711536 -5.84972848 47.64221528 546 246)"/><path d="m-.5-.5h1v1h-1z" fill="#60625a" transform="matrix(99.97121636 -28.666285 4.41019768 15.38018712 678 298)"/><path d="m-.5-.5h1v1h-1z" fill="#1c201c" transform="matrix(-17.62097096 -21.76008692 71.49742844 -57.89747596 398 478)"/><path d="m-.5-.5h1v1h-1z" fill="#c2bba9" transform="matrix(-155.904969 -5.44432148 2.0939698 -59.96344964 250 570)"/><path d="m-.5-.5h1v1h-1z" fill="#455962" transform="matrix(127.14445336 -67.60390504 31.92406628 60.04043632 890 350)"/><path d="m-.5-.5h1v1h-1z" fill="#636f7b" transform="matrix(-127.98973976 230.89960268 -41.98174596 -23.27086176 42 82)"/><path d="m-.5-.5h1v1h-1z" fill="#e5e9e4" transform="matrix(99.45218952 10.45284632 -6.68982164 63.64940132 438 370)"/><path d="m-.5-.5h1v1h-1z" fill="#bdb486" transform="matrix(52.84592536 42.7937866 -2.51728156 3.10858384 958 454)"/><path d="m-.5-.5h1v1h-1z" fill="#dcdfd9" transform="matrix(51.9287358 2.72146972 -.62803148 11.9835544 374 554)"/><path d="m-.5-.5h1v1h-1z" fill="#a4b6c8" transform="matrix(-4.3004154 -11.20296512 41.07753876 -15.76818976 590 534)"/><path d="m-.5-.5h1v1h-1z" fill="#a4997f" transform="matrix(-163.10159084 17.14266796 -4.5992524 -43.7589634 854 670)"/><path d="m-.5-.5h1v1h-1z" fill="#000706" transform="matrix(18.35444596 -26.2128654 65.53216356 45.88611492 386 606)"/><path d="m-.5-.5h1v1h-1z" fill="#b1c7d9" transform="matrix(39.83431104 33.42495572 -12.8557522 15.32088888 454 450)"/><path d="m-.5-.5h1v1h-1z" fill="#adad9c" transform="matrix(-2.07055236 -7.7274066 61.81925288 -16.56441888 542 386)"/><path d="m-.5-.5h1v1h-1z" fill="#000802" transform="matrix(1.11610356 15.9610248 -119.70768604 8.37077684 498 570)"/><path d="m-.5-.5h1v1h-1z" fill="#958c5d" transform="matrix(3.32658704 15.6503616 -109.55253128 23.28610936 938 414)"/><path d="m-.5-.5h1v1h-1z" fill="#030d09" transform="matrix(-11.02549424 -38.45046784 103.81626316 -29.76883444 550 410)"/><path d="m-.5-.5h1v1h-1z" fill="#c8ccc5" transform="matrix(-.69459272 3.939231 -102.42000632 -18.05941048 610 374)"/><path d="m-.5-.5h1v1h-1z" fill="#101410" transform="matrix(-115.55858496 -10.11006616 .69724596 -7.9695576 642 630)"/><path d="m-.5-.5h1v1h-1z" fill="#cabfae" transform="matrix(2.09173784 23.90867276 -123.52814256 10.80731212 594 678)"/><path d="m-.5-.5h1v1h-1z" fill="#5a5348" transform="matrix(-48.80839716 -109.62545492 3.65418184 -1.62694656 750 342)"/><path d="m-.5-.5h1v1h-1z" fill="#d9d3c5" transform="matrix(-34.165878 -76.73781844 14.61672732 -6.50778628 782 562)"/><path d="m-.5-.5h1v1h-1z" transform="matrix(73.0836366 32.53893144 -1.62694656 3.65418184 602 354)"/><path d="m-.5-.5h1v1h-1z" fill="#1c2c32" transform="matrix(187.74235252 -9.83915976 .20934384 3.99451812 550 542)"/><path d="m-.5-.5h1v1h-1z" fill="#433f31" transform="matrix(-295.44232592 52.09445332 -4.86214896 -27.57461708 974 678)"/><path d="m-.5-.5h1v1h-1z" fill="#aab337" transform="matrix(-1.25147572 -7.90150672 79.01506724 -12.5147572 1014 466)"/><path d="m-.5-.5h1v1h-1z" fill="#a9b0b1" transform="matrix(-75.64148604 26.04545236 -1.3022726 -3.78207432 666 542)"/><path d="m-.5-.5h1v1h-1z" fill="#8e9696" transform="matrix(47.8830744 3.34831072 -1.95318128 27.9317934 426 502)"/><path d="m-.5-.5h1v1h-1z" fill="#0b120a" transform="matrix(-11.987411 -29.66988336 129.80573964 -52.44492308 1022 490)"/><path d="m-.5-.5h1v1h-1z" fill="#bab19a" transform="matrix(-2.08377812 -11.81769304 70.9061582 -12.5026688 902 578)"/><path d="m-.5-.5h1v1h-1z" fill="#8c98a1" transform="matrix(124 -214.77430012 48.4974226 28 74 118)"/><path d="m-.5-.5h1v1h-1z" fill="#889631" transform="matrix(-2.08377812 -11.81769304 153.63000948 -27.08911572 110 502)"/><path d="m-.5-.5h1v1h-1z" fill="#08120c" transform="matrix(-18.63513336 48.54618216 -26.14025196 -10.0343026 734 526)"/><path d="m-.5-.5h1v1h-1z" fill="#ebf0f0" transform="matrix(30.1883832 26.24236116 -36.73930564 42.26373648 650 270)"/><path d="m-.5-.5h1v1h-1z" transform="matrix(-110.32255588 -35.84597136 6.18033988 -19.02113032 874 606)"/><path d="m-.5-.5h1v1h-1z" fill="#9a9c94" transform="matrix(-86.91657396 -13.76623292 3.75442716 -23.70452016 674 394)"/><path d="m-.5-.5h1v1h-1z" fill="#aab2b4" transform="matrix(47.2806452 -36.93968852 2.46264592 3.152043 566 514)"/><path d="m-.5-.5h1v1h-1z" fill="#cfd9e0" transform="matrix(132.5143288 30.5933434 -27.89393072 120.82188804 446 194)"/><path d="m-.5-.5h1v1h-1z" fill="#132426" transform="matrix(-.83758792 23.98537984 -115.92933592 -4.0483416 498 494)"/><path d="m-.5-.5h1v1h-1z" fill="#c2cac9" transform="matrix(-1.11610356 15.9610248 -87.78563644 -6.13856968 446 298)"/><path d="m-.5-.5h1v1h-1z" fill="#2a2d07" transform="matrix(79.56175164 -8.36227708 5.85359396 55.69322616 14 522)"/><path d="m-.5-.5h1v1h-1z" fill="#000903" transform="matrix(115.1353536 -14.13684384 3.4123416 27.79129224 598 574)"/><path d="m-.5-.5h1v1h-1z" fill="#e9ebdc" transform="matrix(-20.5212086 -56.38155724 3.75877048 -1.36808056 566 350)"/><path d="m-.5-.5h1v1h-1z" fill="#e5e8e4" transform="matrix(-178.53441364 44.5136288 -27.09525232 -108.67312136 802 258)"/><path d="m-.5-.5h1v1h-1z" fill="#b7b19d" transform="matrix(-13.02272616 37.82074304 -18.91037152 -6.51136308 950 546)"/><path d="m-.5-.5h1v1h-1z" fill="#cdc2aa" transform="matrix(-2.46264592 -3.152043 37.82451616 -29.5517508 478 610)"/><path d="m-.5-.5h1v1h-1z" fill="#202e37" transform="matrix(19.99695392 .34904812 -.69809624 39.9939078 842 526)"/><path d="m-.5-.5h1v1h-1z" fill="#f2f7f3" transform="matrix(73.05588888 20.94843904 -4.41019768 15.38018712 638 342)"/><path d="m-.5-.5h1v1h-1z" fill="#c6d0d4" transform="matrix(-13.07133684 20.12809364 -3.35468228 -2.17855616 734 478)"/><path d="m-.5-.5h1v1h-1z" fill="#3f382c" transform="matrix(-95.76614884 6.69662148 -.27902588 -3.9902562 686 302)"/><path d="m-.5-.5h1v1h-1z" fill="#b5c6d1" transform="matrix(-90.86732732 14.3919708 -1.25147572 -7.90150672 454 550)"/><path d="m-.5-.5h1v1h-1z" fill="#807148" transform="matrix(-4.46713556 -127.92202584 23.98537984 -.83758792 322 466)"/><path d="m-.5-.5h1v1h-1z" fill="#3c4634" transform="matrix(-5.84743408 -19.12609512 91.80525656 -28.06768364 862 386)"/><path d="m-.5-.5h1v1h-1z" fill="#000401" transform="matrix(37.82074304 -13.02272616 5.20909048 15.1282972 738 466)"/><path d="m-.5-.5h1v1h-1z" fill="#000503" transform="matrix(7.66970536 87.66513344 -15.93911516 1.39449188 802 522)"/><path d="m-.5-.5h1v1h-1z" fill="#b0bac3" transform="matrix(115.92933592 -4.0483416 2.79195972 79.95126616 130 194)"/><path d="m-.5-.5h1v1h-1z" fill="#181d1f" transform="matrix(-2.2267696 -15.84428908 221.8200474 -31.1747746 822 638)"/><path d="m-.5-.5h1v1h-1z" fill="#d4d9d7" transform="matrix(18.5241402 -150.86701504 19.85092304 2.43738688 554 190)"/><path d="m-.5-.5h1v1h-1z" fill="#e1e4df" transform="matrix(-2.1640984 -123.9811142 119.9817234 -2.09428876 370 346)"/><path d="m-.5-.5h1v1h-1z" fill="#8f8b57" transform="matrix(16.19647592 70.15464468 -89.64204596 20.695497 218 422)"/><path d="m-.5-.5h1v1h-1z" fill="#564131" transform="matrix(6.88311648 -43.458287 15.80301344 2.50295144 566 254)"/><path d="m-.5-.5h1v1h-1z" fill="#9e9b60" transform="matrix(-10.89278072 16.77341136 -53.67491636 -34.85689824 118 450)"/><path d="m-.5-.5h1v1h-1z" fill="#b3a58c" transform="matrix(39.20428708 19.975582 -1.815962 3.56402608 434 482)"/><path d="m-.5-.5h1v1h-1z" fill="#adb9bf" transform="matrix(0 40 -24 0 666 450)"/><path d="m-.5-.5h1v1h-1z" fill="#eef1ec" transform="matrix(16 0 0 28 722 374)"/><path d="m-.5-.5h1v1h-1z" fill="#15211b" transform="matrix(.41811384 -3.9780876 143.21115292 15.05209872 714 418)"/><path d="m-.5-.5h1v1h-1z" fill="#a09884" transform="matrix(-5.34265188 27.48556112 -212.03147164 -41.214743 158 578)"/><path d="m-.5-.5h1v1h-1z" fill="#acb4b0" transform="matrix(-91.5891944 57.23128052 -42.39354112 -67.84384768 994 222)"/><path d="m-.5-.5h1v1h-1z" transform="matrix(-2.20509884 7.69009356 -107.66130996 -30.87138384 894 438)"/><path d="m-.5-.5h1v1h-1z" fill="#e1e7e8" transform="matrix(-9.76167944 -21.925091 105.97127308 -47.1814506 622 266)"/><path d="m-.5-.5h1v1h-1z" fill="#dadcd9" transform="matrix(7.98903628 -.41868764 2.30278208 43.93969952 802 370)"/><path d="m-.5-.5h1v1h-1z" fill="#d1c7b1" transform="matrix(-60.51318884 -20.83636188 3.90681784 -11.34622292 530 598)"/><path d="m-.5-.5h1v1h-1z" fill="#e1d9c7" transform="matrix(39.902562 2.79025896 -.27902588 3.9902562 454 678)"/><path d="m-.5-.5h1v1h-1z" fill="#ada159" transform="matrix(-23.90867276 -2.09173784 9.06419724 -103.6042486 770 470)"/><path d="m-.5-.5h1v1h-1z" fill="#081818" transform="matrix(-123.0757228 -15.1117986 .97495476 -7.9403692 470 418)"/><path d="m-.5-.5h1v1h-1z" fill="#0a1411" transform="matrix(-16.45798708 22.65247584 -126.20665112 -91.69449936 550 450)"/><path d="m-.5-.5h1v1h-1z" fill="#000501" transform="matrix(9.02970524 51.21000316 -15.75692404 2.77837084 338 562)"/><path d="m-.5-.5h1v1h-1z" fill="#000907" transform="matrix(-15.9727102 -12.03630048 31.2943812 -41.52904652 810 470)"/><path d="m-.5-.5h1v1h-1z" fill="#9ba6aa" transform="matrix(-39.12590404 8.31646764 -4.98988056 -23.4755424 686 534)"/><path d="m-.5-.5h1v1h-1z" fill="#999872" transform="matrix(-181.20462656 31.95126468 -2.77837084 -15.75692404 886 410)"/><path d="m-.5-.5h1v1h-1z" fill="#272f2a" transform="matrix(2.09173784 23.90867276 -43.83256672 3.83485268 878 398)"/><path d="m-.5-.5h1v1h-1z" fill="#000902" transform="matrix(22.534635 -42.38148444 21.19074224 11.26731752 474 586)"/><path d="m-.5-.5h1v1h-1z" fill="#cacfd3" transform="matrix(24.62545032 -67.65786868 383.39458928 139.54421848 790 114)"/><path d="m-.5-.5h1v1h-1z" fill="#272f2e" transform="matrix(1.11678388 31.98050648 -407.75145744 14.23899464 486 642)"/><path d="m-.5-.5h1v1h-1z" fill="#bbb296" transform="matrix(-63.64940132 6.68982164 -.41811384 -3.9780876 830 622)"/><path d="m-.5-.5h1v1h-1z" fill="#e0e3df" transform="matrix(-19.48423412 -138.63752964 3.96107228 -.5566924 646 290)"/><path d="m-.5-.5h1v1h-1z" fill="#12130b" transform="matrix(119.54336376 10.45868912 -.34862296 3.9847788 582 318)"/><path d="m-.5-.5h1v1h-1z" fill="#57642f" transform="matrix(-77.62365812 19.35375164 -14.51531372 -58.21774356 122 394)"/><path d="m-.5-.5h1v1h-1z" fill="#84897e" transform="matrix(-13.42062968 -19.89690176 29.8453526 -20.13094452 742 350)"/><path d="m-.5-.5h1v1h-1z" fill="#8293ba" transform="matrix(-10.28460176 -12.25671108 45.9626666 -38.5672566 358 458)"/><path d="m-.5-.5h1v1h-1z" transform="matrix(-6.35903116 -10.17657716 78.02042484 -48.75257232 938 606)"/><path d="m-.5-.5h1v1h-1z" fill="#b3b4a6" transform="matrix(1.66329352 7.8251808 -70.42662724 14.96964172 550 378)"/><path d="m-.5-.5h1v1h-1z" fill="#909691" transform="matrix(-130.73159064 37.4866804 -1.10254944 -3.8450468 486 270)"/><path d="m-.5-.5h1v1h-1z" fill="#84959d" transform="matrix(61.05946292 -38.15418704 2.11967704 3.3921924 506 474)"/><path d="m-.5-.5h1v1h-1z" fill="#454038" transform="matrix(-59.41608412 8.35038604 -12.80392528 -91.10466232 18 626)"/><path d="m-.5-.5h1v1h-1z" fill="#5e7484" transform="matrix(-74.33921764 15.80128852 -14.13799496 -66.51403684 842 346)"/><path d="m-.5-.5h1v1h-1z" fill="#344454" transform="matrix(93.14838972 -23.22450196 19.35375164 77.62365812 1006 314)"/><path d="m-.5-.5h1v1h-1z" fill="#aaa79d" transform="matrix(-52.86291284 -65.28026076 3.10858384 -2.51728156 854 482)"/><path d="m-.5-.5h1v1h-1z" fill="#00030e" transform="matrix(10.59537112 5.63365876 -26.29040752 49.4450652 346 506)"/><path d="m-.5-.5h1v1h-1z" fill="#0b1919" transform="matrix(-5.26045376 10.78552856 -97.069757 -47.34408384 470 486)"/><path d="m-.5-.5h1v1h-1z" fill="#8d8f84" transform="matrix(47.53286728 -6.68030884 .5566924 3.96107228 682 494)"/><path d="m-.5-.5h1v1h-1z" fill="#a3aeb7" transform="matrix(16.06888372 49.45493884 -410.85641504 133.49534156 314 18)"/><path d="m-.5-.5h1v1h-1z" fill="#5e5b46" transform="matrix(-5.63365876 10.59537112 -10.59537112 -5.63365876 690 262)"/><path d="m-.5-.5h1v1h-1z" fill="#2f3536" transform="matrix(-91.64991224 -8.01832832 1.74311484 -19.92389396 506 282)"/><path d="m-.5-.5h1v1h-1z" fill="#8e9398" transform="matrix(-.41811384 -3.9780876 115.36453988 -12.12530172 390 458)"/><path d="m-.5-.5h1v1h-1z" transform="matrix(0 -4 164 0 638 590)"/><path d="m-.5-.5h1v1h-1z" fill="#b8b9b2" transform="matrix(-3.631924 7.1280522 -35.64026096 -18.15962 866 538)"/><path d="m-.5-.5h1v1h-1z" fill="#0a090c" transform="matrix(4.98988056 23.4755424 -191.71692976 40.7506914 78 678)"/><path d="m-.5-.5h1v1h-1z" fill="#6b654d" transform="matrix(3.62523116 -1.69047304 118.33311328 253.76618036 986 486)"/><path d="m-.5-.5h1v1h-1z" fill="#111815" transform="matrix(10.17657716 6.35903116 -38.15418704 61.05946292 514 366)"/><path d="m-.5-.5h1v1h-1z" fill="#040f0c" transform="matrix(-28.773592 27.7863348 -38.90086876 -40.2830288 610 418)"/><path d="m-.5-.5h1v1h-1z" fill="#2d3a39" transform="matrix(6.33720584 51.61239988 -3.9701846 .48747736 686 454)"/><path d="m-.5-.5h1v1h-1z" fill="#000505" transform="matrix(-3.631924 7.1280522 -35.64026096 -18.15962 718 454)"/><path d="m-.5-.5h1v1h-1z" fill="#680000" transform="matrix(-3.05294392 -15.70603492 11.7795262 -2.28970796 318 466)"/><path d="m-.5-.5h1v1h-1z" fill="#1b210c" transform="matrix(-7.50885432 47.40904036 -35.55678028 -5.63164076 34 414)"/><path d="m-.5-.5h1v1h-1z" fill="#c4baa4" transform="matrix(2.30278208 -43.93969952 15.97807256 .83737528 502 598)"/><path d="m-.5-.5h1v1h-1z" fill="#bcb6a2" transform="matrix(-9.76167944 -21.925091 95.0087276 -42.30061088 746 598)"/><path d="m-.5-.5h1v1h-1z" fill="#a7a05e" transform="matrix(55.69322616 5.85359396 -9.19850476 87.5179268 290 446)"/><path d="m-.5-.5h1v1h-1z" fill="#000400" transform="matrix(65.9801094 16.45068892 -.9676876 3.88118292 486 538)"/><path d="m-.5-.5h1v1h-1z" fill="#dcdcd6" transform="matrix(-31.9336902 128.07903588 -73.7424752 -18.38606408 206 310)"/><path d="m-.5-.5h1v1h-1z" fill="#b3aa97" transform="matrix(130.71538508 -18.37084932 5.01023164 35.64965048 770 678)"/><path d="m-.5-.5h1v1h-1z" fill="#9c9b90" transform="matrix(-75.43072248 45.3233506 -2.06015228 -3.4286692 922 538)"/><path d="m-.5-.5h1v1h-1z" fill="#848f40" transform="matrix(43.14211424 21.04181504 -8.76742292 17.97588092 902 474)"/><path d="m-.5-.5h1v1h-1z" fill="#66757c" transform="matrix(-59.99086172 1.0471444 -.13961924 -7.99878156 906 594)"/><path d="m-.5-.5h1v1h-1z" fill="#101410" transform="matrix(-18 31.17691452 -3.4641016 -2 842 502)"/><path d="m-.5-.5h1v1h-1z" transform="matrix(39.96939716 55.0131556 -3.23606796 2.351141 974 490)"/><path d="m-.5-.5h1v1h-1z" fill="#7f8780" transform="matrix(-42.59590632 29.82597468 -2.29430576 -3.27660816 382 490)"/><path d="m-.5-.5h1v1h-1z" fill="#736e5b" transform="matrix(136.50264368 -151.6015444 23.7806344 21.4121794 942 666)"/><path d="m-.5-.5h1v1h-1z" fill="#1d1c08" transform="matrix(-.4886674 -27.99573548 83.9872064 -1.46600216 1002 442)"/><path d="m-.5-.5h1v1h-1z" fill="#4e4d4d" transform="matrix(-1.46540676 -27.96162696 219.69849764 -11.51391036 430 666)"/><path d="m-.5-.5h1v1h-1z" fill="#dfe2e0" transform="matrix(-16.41696688 45.1052458 -60.14032772 -21.88928916 458 350)"/><path d="m-.5-.5h1v1h-1z" fill="#a9afae" transform="matrix(-.48747736 -3.9701846 154.83719964 -19.01161756 550 550)"/><path d="m-.5-.5h1v1h-1z" fill="#3f3d39" transform="matrix(-58 100.45894684 -3.4641016 -2 510 274)"/><path d="m-.5-.5h1v1h-1z" fill="#9aa0a5" transform="matrix(-4.98988056 23.4755424 -27.38813284 -5.82152736 366 522)"/><path d="m-.5-.5h1v1h-1z" fill="#17211d" transform="matrix(-200.44993804 69.02044876 -1.3022726 -3.78207432 654 494)"/><path d="m-.5-.5h1v1h-1z" fill="#b1b8bf" transform="matrix(14.64251916 -32.88763648 277.71781912 123.64793948 850 58)"/><path d="m-.5-.5h1v1h-1z" fill="#0c1610" transform="matrix(131.97989576 -2.30371764 .4886674 27.99573548 582 566)"/><path d="m-.5-.5h1v1h-1z" fill="#222f2e" transform="matrix(43.16038804 -41.67950224 27.7863348 28.773592 726 550)"/><path d="m-.5-.5h1v1h-1z" fill="#e8f0ea" transform="matrix(42.69301196 -10.6445634 5.80612548 23.28709744 714 330)"/><path d="m-.5-.5h1v1h-1z" fill="#667374" transform="matrix(-26.75321372 -24.08870184 2.67652244 -2.97257932 370 582)"/><path d="m-.5-.5h1v1h-1z" fill="#495b64" transform="matrix(69.21084212 -19.8458896 3.30764828 11.53514036 674 370)"/><path d="m-.5-.5h1v1h-1z" fill="#2c2a21" transform="matrix(-133.14791228 -43.2623792 1.23606796 -3.80422608 406 462)"/><path d="m-.5-.5h1v1h-1z" fill="#4d5550" transform="matrix(15.91235032 1.6724554 -6.68982164 63.64940132 642 458)"/><path d="m-.5-.5h1v1h-1z" fill="#b6b499" transform="matrix(-60.42454324 58.35130312 -5.55726696 -5.7547184 798 446)"/><path d="m-.5-.5h1v1h-1z" fill="#4d6172" transform="matrix(-4.18538844 59.853843 -3.9902562 -.27902588 974 522)"/><path d="m-.5-.5h1v1h-1z" fill="#59584b" transform="matrix(3.06417776 -2.57115044 110.55946888 131.7596442 798 406)"/><path d="m-.5-.5h1v1h-1z" fill="#0d1816" transform="matrix(-64.29526316 22.13863452 -3.90681784 -11.34622292 754 410)"/><path d="m-.5-.5h1v1h-1z" transform="matrix(2.77863348 2.8773592 -23.0188736 22.22906784 382 498)"/><path d="m-.5-.5h1v1h-1z" fill="#cddae2" transform="matrix(1.23606796 3.80422608 -34.2380346 11.1246118 586 530)"/><path d="m-.5-.5h1v1h-1z" fill="#c0cad2" transform="matrix(316.91982264 -67.36338784 27.4443432 129.11548328 318 138)"/><path d="m-.5-.5h1v1h-1z" fill="#cdc3ab" transform="matrix(-52.62278676 -19.15312804 1.36808056 -3.75877048 342 618)"/><path d="m-.5-.5h1v1h-1z" fill="#303b18" transform="matrix(13.10643272 9.177223 -22.94305744 32.76608176 138 430)"/><path d="m-.5-.5h1v1h-1z" transform="matrix(-27.16828032 -6.77381308 2.90306276 -11.64354872 490 482)"/><path d="m-.5-.5h1v1h-1z" fill="#1f1c16" transform="matrix(145.63854652 -55.90540012 1.4334718 3.73432172 1002 362)"/><path d="m-.5-.5h1v1h-1z" fill="#182600" transform="matrix(-1.0352762 -3.86370332 135.22961568 -36.23466632 166 510)"/><path d="m-.5-.5h1v1h-1z" transform="matrix(3.01883832 -2.62423612 31.4908334 36.22605984 950 486)"/><path d="m-.5-.5h1v1h-1z" fill="#292e20" transform="matrix(-65.28026076 -52.86291284 15.1036894 -18.65150308 630 514)"/><path d="m-.5-.5h1v1h-1z" fill="#958d79" transform="matrix(71.11356052 -11.26328148 8.76033004 55.31054708 174 610)"/><path d="m-.5-.5h1v1h-1z" fill="#76802c" transform="matrix(-177.26539556 31.256672 -1.38918544 -7.87846204 94 506)"/><path d="m-.5-.5h1v1h-1z" fill="#656a29" transform="matrix(-69.28203232 -40 12 -20.78460968 234 474)"/><path d="m-.5-.5h1v1h-1z" fill="#848b87" transform="matrix(-.06980964 3.9993908 -139.97867732 -2.44333692 842 446)"/><path d="m-.5-.5h1v1h-1z" fill="#353738" transform="matrix(9.61661864 91.49601436 -167.07967844 17.56078184 298 678)"/><path d="m-.5-.5h1v1h-1z" fill="#cbd1ce" transform="matrix(-23.48529156 -72.28029524 110.32255588 -35.84597136 918 250)"/><path d="m-.5-.5h1v1h-1z" fill="#c2baa7" transform="matrix(95.634691 8.36695132 -6.62383644 75.71079704 270 582)"/><path d="m-.5-.5h1v1h-1z" fill="#464444" transform="matrix(128 0 0 16 582 658)"/><path d="m-.5-.5h1v1h-1z" fill="#767d7e" transform="matrix(79.40369212 9.74954748 -.48747736 3.9701846 470 290)"/><path d="m-.5-.5h1v1h-1z" fill="#6e703f" transform="matrix(-111.95132252 62.0556314 -11.63543088 -20.99087296 66 438)"/><path d="m-.5-.5h1v1h-1z" fill="#95adc7" transform="matrix(-21.19074224 -11.26731752 13.14520376 -24.7225326 394 434)"/><path d="m-.5-.5h1v1h-1z" fill="#6c684e" transform="matrix(0 36 -64 0 974 402)"/><path d="m-.5-.5h1v1h-1z" fill="#bbb683" transform="matrix(83.88488092 4.39622032 -1.04671912 19.97259068 294 446)"/><path d="m-.5-.5h1v1h-1z" fill="#0d1c1d" transform="matrix(-8.92882864 127.68819844 -3.9902562 -.27902588 754 418)"/><path d="m-.5-.5h1v1h-1z" fill="#e8ebe8" transform="matrix(-26.75321372 -24.08870184 13.38261212 -14.86289652 674 278)"/><path d="m-.5-.5h1v1h-1z" fill="#8a896c" transform="matrix(19.562952 4.1582338 -8.31646764 39.12590404 822 502)"/><path d="m-.5-.5h1v1h-1z" fill="#5a5a22" transform="matrix(4.67794728 15.30087608 -103.28091364 31.57614412 290 514)"/><path d="m-.5-.5h1v1h-1z" fill="#595e59" transform="matrix(1.6724554 15.91235032 -43.7589634 4.5992524 678 470)"/><path d="m-.5-.5h1v1h-1z" fill="#7d7665" transform="matrix(3.06417776 -2.57115044 30.85380528 36.77013328 734 310)"/><path d="m-.5-.5h1v1h-1z" fill="#a59579" transform="matrix(-60 0 0 -4 170 678)"/><path d="m-.5-.5h1v1h-1z" fill="#dde1db" transform="matrix(4.41019768 15.38018712 -119.19645028 34.17903212 666 326)"/><path d="m-.5-.5h1v1h-1z" fill="#3a4618" transform="matrix(-10.89278072 -16.77341136 10.0640468 -6.53566844 326 426)"/><path d="m-.5-.5h1v1h-1z" fill="#888c86" transform="matrix(-92.72887932 -24.84662832 3.10582856 -11.59110992 2 322)"/><path d="m-.5-.5h1v1h-1z" fill="#353e3c" transform="matrix(-134.98627664 -16.57423072 .48747736 -3.9701846 578 302)"/><path d="m-.5-.5h1v1h-1z" fill="#1f2827" transform="matrix(-47.97075968 1.67517584 -.55839196 -15.99025324 714 422)"/><path d="m-.5-.5h1v1h-1z" fill="#e1e4d3" transform="matrix(5.301492 -75.8148678 3.9902562 .27902588 346 398)"/><path d="m-.5-.5h1v1h-1z" fill="#8f8c5b" transform="matrix(-24.4893518 -13.57466936 52.359439 -94.45892836 170 426)"/><path d="m-.5-.5h1v1h-1z" fill="#7a6e4e" transform="matrix(-8 -13.85640648 24.24871132 -14 762 510)"/><path d="m-.5-.5h1v1h-1z" fill="#000704" transform="matrix(-90.96044956 -50.42020052 9.6961924 -17.49239416 386 610)"/><path d="m-.5-.5h1v1h-1z" fill="#565a52" transform="matrix(.34862296 3.9847788 -207.2084972 18.12839448 426 530)"/><path d="m-.5-.5h1v1h-1z" fill="#030f02" transform="matrix(71.95613956 2.51276376 -.139598 3.99756332 630 594)"/><path d="m-.5-.5h1v1h-1z" fill="#df682d" transform="matrix(-3.06417776 2.57115044 -28.28265484 -33.70595548 870 474)"/><path d="m-.5-.5h1v1h-1z" fill="#9c9a8e" transform="matrix(-1.36808056 3.75877048 -33.82893436 -12.31272516 550 290)"/><path d="m-.5-.5h1v1h-1z" transform="matrix(-7.65043804 -2.33897364 19.88127592 -65.0287234 982 558)"/><path d="m-.5-.5h1v1h-1z" fill="#000709" transform="matrix(-.139598 3.99756332 -67.95857624 -2.37316576 370 566)"/><path d="m-.5-.5h1v1h-1z" fill="#000200" transform="matrix(11.11453392 11.5094368 -23.0188736 22.22906784 366 482)"/><path d="m-.5-.5h1v1h-1z" fill="#a2abad" transform="matrix(61.62892952 -28.7380418 5.07141916 10.87569344 478 270)"/><path d="m-.5-.5h1v1h-1z" fill="#d7dfe0" transform="matrix(19.53408928 56.73111452 -196.66786372 67.71817612 682 214)"/><path d="m-.5-.5h1v1h-1z" fill="#cdd0cb" transform="matrix(3.31615028 -2.2367716 49.20897552 72.9553064 774 358)"/><path d="m-.5-.5h1v1h-1z" fill="#b6ae95" transform="matrix(-8.91773792 8.02956728 -32.11826912 -35.67095164 814 602)"/><path d="m-.5-.5h1v1h-1z" fill="#575243" transform="matrix(22.36771612 33.16150292 -9.94845088 6.71031484 786 422)"/><path d="m-.5-.5h1v1h-1z" fill="#141f1c" transform="matrix(-2.2367716 3.31615028 -49.74225436 -33.5515742 486 446)"/><path d="m-.5-.5h1v1h-1z" fill="#75818b" transform="matrix(-31.48630944 -17.45314632 67.87334684 -122.446759 54 94)"/><path d="m-.5-.5h1v1h-1z" fill="#171811" transform="matrix(-28.21369212 -38.83281572 22.65247584 -16.45798708 534 334)"/><path d="m-.5-.5h1v1h-1z" fill="#080d09" transform="matrix(-4.45353924 -31.6885782 55.45501184 -7.79369364 594 478)"/><path d="m-.5-.5h1v1h-1z" fill="#c9bb8f" transform="matrix(-7.87270836 9.05651496 -3.01883832 -2.62423612 734 522)"/><path d="m-.5-.5h1v1h-1z" fill="#cac3b0" transform="matrix(3.49847884 -1.93923848 48.48096204 87.46197072 326 578)"/><path d="m-.5-.5h1v1h-1z" fill="#f2fbff" transform="matrix(-7.98903628 .41868764 -.62803148 -11.9835544 806 426)"/><path d="m-.5-.5h1v1h-1z" fill="#cbc1aa" transform="matrix(-.55839196 15.99025324 -83.94882948 -2.93155772 690 606)"/></g></svg>