<svg xmlns="http://www.w3.org/2000/svg" version="1.1" width="1024" height="680">
<rect x="0" y="0" width="1024" height="680" fill="#8c918b" />
<g transform="scale(4.000000) translate(0.5 0.5)">
<g transform="translate(134 41) rotate(-8) scale(216 91)"><rect fill="#f5fcff" fill-opacity="0.501961" x="-0.5" y="-0.5" width="1" height="1" /></g>
<g transform="translate(173 134) rotate(350) scale(183 86)"><rect fill="#1b1f14" fill-opacity="0.501961" x="-0.5" y="-0.5" width="1" height="1" /></g>
<g transform="translate(21 112) rotate(362) scale(84 46)"><rect fill="#2e2f00" fill-opacity="0.501961" x="-0.5" y="-0.5" width="1" height="1" /></g>
<g transform="translate(135 91) rotate(349) scale(25 53)"><rect fill="#000000" fill-opacity="0.501961" x="-0.5" y="-0.5" width="1" height="1" /></g>
<g transform="translate(38 169) rotate(362) scale(102 24)"><rect fill="#000000" fill-opacity="0.501961" x="-0.5" y="-0.5" width="1" height="1" /></g>
<g transform="translate(60 76) rotate(197) scale(118 41)"><rect fill="#e8eceb" fill-opacity="0.501961" x="-0.5" y="-0.5" width="1" height="1" /></g>
<g transform="translate(194 169) rotate(44) scale(52 47)"><rect fill="#bcae99" fill-opacity="0.501961" x="-0.5" y="-0.5" width="1" height="1" /></g>
<g transform="translate(8 134) rotate(259) scale(100 31)"><rect fill="#36310c" fill-opacity="0.501961" x="-0.5" y="-0.5" width="1" height="1" /></g>
<g transform="translate(151 77) rotate(174) scale(47 6)"><rect fill="#000000" fill-opacity="0.501961" x="-0.5" y="-0.5" width="1" height="1" /></g>
<g transform="translate(171 88) rotate(89) scale(23 26)"><rect fill="#d3dddf" fill-opacity="0.501961" x="-0.5" y="-0.5" width="1" height="1" /></g>
<g transform="translate(252 80) rotate(342) scale(33 27)"><rect fill="#0b1d28" fill-opacity="0.501961" x="-0.5" y="-0.5" width="1" height="1" /></g>
<g transform="translate(226 52) rotate(339) scale(94 32)"><rect fill="#e9ebe9" fill-opacity="0.501961" x="-0.5" y="-0.5" width="1" height="1" /></g>
<g transform="translate(103 153) rotate(174) scale(30 25)"><rect fill="#000002" fill-opacity="0.501961" x="-0.5" y="-0.5" width="1" height="1" /></g>
<g transform="translate(200 159) rotate(175) scale(88 5)"><rect fill="#000000" fill-opacity="0.501961" x="-0.5" y="-0.5" width="1" height="1" /></g>
<g transform="translate(9 9) rotate(339) scale(79 36)"><rect fill="#475a73" fill-opacity="0.501961" x="-0.5" y="-0.5" width="1" height="1" /></g>
<g transform="translate(158 143) rotate(88) scale(8 51)"><rect fill="#000000" fill-opacity="0.501961" x="-0.5" y="-0.5" width="1" height="1" /></g>
<g transform="translate(69 108) rotate(216) scale(44 28)"><rect fill="#a7a15c" fill-opacity="0.501961" x="-0.5" y="-0.5" width="1" height="1" /></g>
<g transform="translate(152 115) rotate(243) scale(38 21)"><rect fill="#000705" fill-opacity="0.501961" x="-0.5" y="-0.5" width="1" height="1" /></g>
<g transform="translate(107 132) rotate(90) scale(15 32)"><rect fill="#a0a9b0" fill-opacity="0.501961" x="-0.5" y="-0.5" width="1" height="1" /></g>
<g transform="translate(210 110) rotate(318) scale(3 81)"><rect fill="#d2c8bb" fill-opacity="0.501961" x="-0.5" y="-0.5" width="1" height="1" /></g>
<g transform="translate(127 149) rotate(0) scale(16 9)"><rect fill="#ffefd2" fill-opacity="0.501961" x="-0.5" y="-0.5" width="1" height="1" /></g>
<g transform="translate(192 135) rotate(361) scale(8 40)"><rect fill="#ecdfb2" fill-opacity="0.501961" x="-0.5" y="-0.5" width="1" height="1" /></g>
<g transform="translate(255 138) rotate(88) scale(67 38)"><rect fill="#332f18" fill-opacity="0.501961" x="-0.5" y="-0.5" width="1" height="1" /></g>
<g transform="translate(160 152) rotate(91) scale(4 56)"><rect fill="#f7e8cd" fill-opacity="0.501961" x="-0.5" y="-0.5" width="1" height="1" /></g>
<g transform="translate(52 146) rotate(85) scale(24 64)"><rect fill="#c6b396" fill-opacity="0.501961" x="-0.5" y="-0.5" width="1" height="1" /></g>
<g transform="translate(166 40) rotate(104) scale(44 96)"><rect fill="#dce3eb" fill-opacity="0.501961" x="-0.5" y="-0.5" width="1" height="1" /></g>
<g transform="translate(51 126) rotate(270) scale(14 72)"><rect fill="#3e4504" fill-opacity="0.501961" x="-0.5" y="-0.5" width="1" height="1" /></g>
<g transform="translate(144 92) rotate(-64) scale(7 9)"><rect fill="#ffffff" fill-opacity="0.501961" x="-0.5" y="-0.5" width="1" height="1" /></g>
<g transform="translate(222 133) rotate(127) scale(25 29)"><rect fill="#948f83" fill-opacity="0.501961" x="-0.5" y="-0.5" width="1" height="1" /></g>
<g transform="translate(200 134) rotate(68) scale(26 5)"><rect fill="#000000" fill-opacity="0.501961" x="-0.5" y="-0.5" width="1" height="1" /></g>
<g transform="translate(38 24) rotate(141) scale(138 30)"><rect fill="#99a7b9" fill-opacity="0.501961" x="-0.5" y="-0.5" width="1" height="1" /></g>
<g transform="translate(227 152) rotate(350) scale(29 11)"><rect fill="#000000" fill-opacity="0.501961" x="-0.5" y="-0.5" width="1" height="1" /></g>
<g transform="translate(156 169) rotate(265) scale(4 78)"><rect fill="#eaddc6" fill-opacity="0.501961" x="-0.5" y="-0.5" width="1" height="1" /></g>
<g transform="translate(220 3) rotate(299) scale(23 86)"><rect fill="#8f969b" fill-opacity="0.501961" x="-0.5" y="-0.5" width="1" height="1" /></g>
<g transform="translate(130 80) rotate(176) scale(15 27)"><rect fill="#090e07" fill-opacity="0.501961" x="-0.5" y="-0.5" width="1" height="1" /></g>
<g transform="translate(116 105) rotate(280) scale(5 27)"><rect fill="#000000" fill-opacity="0.501961" x="-0.5" y="-0.5" width="1" height="1" /></g>
<g transform="translate(99 86) rotate(365) scale(43 26)"><rect fill="#f0f3f1" fill-opacity="0.501961" x="-0.5" y="-0.5" width="1" height="1" /></g>
<g transform="translate(136 61) rotate(293) scale(13 16)"><rect fill="#847664" fill-opacity="0.501961" x="-0.5" y="-0.5" width="1" height="1" /></g>
<g transform="translate(245 159) rotate(40) scale(15 60)"><rect fill="#7e7763" fill-opacity="0.501961" x="-0.5" y="-0.5" width="1" height="1" /></g>
<g transform="translate(141 159) rotate(262) scale(9 38)"><rect fill="#0a0f14" fill-opacity="0.501961" x="-0.5" y="-0.5" width="1" height="1" /></g>
<g transform="translate(2 0) rotate(32) scale(23 43)"><rect fill="#1c2730" fill-opacity="0.501961" x="-0.5" y="-0.5" width="1" height="1" /></g>
<g transform="translate(101 111) rotate(281) scale(4 52)"><rect fill="#a6afb5" fill-opacity="0.501961" x="-0.5" y="-0.5" width="1" height="1" /></g>
<g transform="translate(114 121) rotate(188) scale(52 6)"><rect fill="#000f11" fill-opacity="0.501961" x="-0.5" y="-0.5" width="1" height="1" /></g>
<g transform="translate(169 110) rotate(295) scale(10 11)"><rect fill="#c2d5e5" fill-opacity="0.501961" x="-0.5" y="-0.5" width="1" height="1" /></g>
<g transform="translate(134 80) rotate(206) scale(58 4)"><rect fill="#3a3c36" fill-opacity="0.501961" x="-0.5" y="-0.5" width="1" height="1" /></g>
<g transform="translate(29 166) rotate(174) scale(114 8)"><rect fill="#0e1015" fill-opacity="0.501961" x="-0.5" y="-0.5" width="1" height="1" /></g>
<g transform="translate(112 150) rotate(56) scale(6 35)"><rect fill="#000000" fill-opacity="0.501961" x="-0.5" y="-0.5" width="1" height="1" /></g>
<g transform="translate(221 90) rotate(77) scale(29 52)"><rect fill="#657676" fill-opacity="0.501961" x="-0.5" y="-0.5" width="1" height="1" /></g>
<g transform="translate(113 133) rotate(-5) scale(42 2)"><rect fill="#000501" fill-opacity="0.501961" x="-0.5" y="-0.5" width="1" height="1" /></g>
<g transform="translate(87 68) rotate(284) scale(61 47)"><rect fill="#d8dfe3" fill-opacity="0.501961" x="-0.5" y="-0.5" width="1" height="1" /></g>
<g transform="translate(153 65) rotate(371) scale(24 19)"><rect fill="#e8ecea" fill-opacity="0.501961" x="-0.5" y="-0.5" width="1" height="1" /></g>
<g transform="translate(229 112) rotate(105) scale(7 34)"><rect fill="#0d1109" fill-opacity="0.501961" x="-0.5" y="-0.5" width="1" height="1" /></g>
<g transform="translate(23 151) rotate(350) scale(31 22)"><rect fill="#766d5f" fill-opacity="0.501961" x="-0.5" y="-0.5" width="1" height="1" /></g>
<g transform="translate(154 144) rotate(87) scale(10 27)"><rect fill="#000000" fill-opacity="0.501961" x="-0.5" y="-0.5" width="1" height="1" /></g>
<g transform="translate(200 102) rotate(210) scale(10 29)"><rect fill="#a1a48c" fill-opacity="0.501961" x="-0.5" y="-0.5" width="1" height="1" /></g>
<g transform="translate(29 106) rotate(-76) scale(35 35)"><rect fill="#757936" fill-opacity="0.501961" x="-0.5" y="-0.5" width="1" height="1" /></g>
<g transform="translate(188 101) rotate(204) scale(9 17)"><rect fill="#000509" fill-opacity="0.501961" x="-0.5" y="-0.5" width="1" height="1" /></g>
<g transform="translate(135 137) rotate(266) scale(3 42)"><rect fill="#c4cccf" fill-opacity="0.501961" x="-0.5" y="-0.5" width="1" height="1" /></g>
<g transform="translate(169 82) rotate(347) scale(30 7)"><rect fill="#ffffff" fill-opacity="0.501961" x="-0.5" y="-0.5" width="1" height="1" /></g>
<g transform="translate(156 77) rotate(169) scale(25 5)"><rect fill="#1a1c11" fill-opacity="0.501961" x="-0.5" y="-0.5" width="1" height="1" /></g>
<g transform="translate(211 149) rotate(218) scale(23 5)"><rect fill="#000000" fill-opacity="0.501961" x="-0.5" y="-0.5" width="1" height="1" /></g>
<g transform="translate(244 140) rotate(18) scale(6 23)"><rect fill="#000001" fill-opacity="0.501961" x="-0.5" y="-0.5" width="1" height="1" /></g>
<g transform="translate(178 141) rotate(172) scale(18 12)"><rect fill="#000c09" fill-opacity="0.501961" x="-0.5" y="-0.5" width="1" height="1" /></g>
<g transform="translate(161 150) rotate(87) scale(2 88)"><rect fill="#d1c7af" fill-opacity="0.501961" x="-0.5" y="-0.5" width="1" height="1" /></g>
<g transform="translate(83 114) rotate(153) scale(38 12)"><rect fill="#9d9a77" fill-opacity="0.501961" x="-0.5" y="-0.5" width="1" height="1" /></g>
<g transform="translate(142 101) rotate(69) scale(9 48)"><rect fill="#0a1817" fill-opacity="0.501961" x="-0.5" y="-0.5" width="1" height="1" /></g>
<g transform="translate(178 129) rotate(120) scale(16 1)"><rect fill="#d8e0e8" fill-opacity="0.501961" x="-0.5" y="-0.5" width="1" height="1" /></g>
<g transform="translate(84 133) rotate(185) scale(6 22)"><rect fill="#02090e" fill-opacity="0.501961" x="-0.5" y="-0.5" width="1" height="1" /></g>
<g transform="translate(244 38) rotate(336) scale(26 58)"><rect fill="#b4b8b4" fill-opacity="0.501961" x="-0.5" y="-0.5" width="1" height="1" /></g>
<g transform="translate(200 118) rotate(211) scale(4 14)"><rect fill="#000000" fill-opacity="0.501961" x="-0.5" y="-0.5" width="1" height="1" /></g>
<g transform="translate(169 96) rotate(241) scale(16 17)"><rect fill="#6d7a80" fill-opacity="0.501961" x="-0.5" y="-0.5" width="1" height="1" /></g>
<g transform="translate(39 131) rotate(85) scale(7 42)"><rect fill="#181a10" fill-opacity="0.501961" x="-0.5" y="-0.5" width="1" height="1" /></g>
<g transform="translate(150 113) rotate(418) scale(3 5)"><rect fill="#ffffe1" fill-opacity="0.501961" x="-0.5" y="-0.5" width="1" height="1" /></g>
<g transform="translate(74 146) rotate(125) scale(4 37)"><rect fill="#d6ceba" fill-opacity="0.501961" x="-0.5" y="-0.5" width="1" height="1" /></g>
<g transform="translate(239 0) rotate(0) scale(41 14)"><rect fill="#6e747c" fill-opacity="0.501961" x="-0.5" y="-0.5" width="1" height="1" /></g>
<g transform="translate(97 145) rotate(302) scale(3 10)"><rect fill="#aaac9b" fill-opacity="0.501961" x="-0.5" y="-0.5" width="1" height="1" /></g>
<g transform="translate(5 95) rotate(190) scale(32 22)"><rect fill="#323a17" fill-opacity="0.501961" x="-0.5" y="-0.5" width="1" height="1" /></g>
<g transform="translate(134 128) rotate(81) scale(1 14)"><rect fill="#eff6fd" fill-opacity="0.501961" x="-0.5" y="-0.5" width="1" height="1" /></g>
<g transform="translate(26 71) rotate(275) scale(30 31)"><rect fill="#d0d3d4" fill-opacity="0.501961" x="-0.5" y="-0.5" width="1" height="1" /></g>
<g transform="translate(106 129) rotate(174) scale(37 2)"><rect fill="#d2dbe0" fill-opacity="0.501961" x="-0.5" y="-0.5" width="1" height="1" /></g>
<g transform="translate(211 140) rotate(45) scale(14 3)"><rect fill="#cecbbb" fill-opacity="0.501961" x="-0.5" y="-0.5" width="1" height="1" /></g>
<g transform="translate(189 153) rotate(272) scale(8 37)"><rect fill="#c5bea7" fill-opacity="0.501961" x="-0.5" y="-0.5" width="1" height="1" /></g>
<g transform="translate(249 98) rotate(90) scale(58 14)"><rect fill="#2e3421" fill-opacity="0.501961" x="-0.5" y="-0.5" width="1" height="1" /></g>
<g transform="translate(85 104) rotate(188) scale(27 4)"><rect fill="#5d672d" fill-opacity="0.501961" x="-0.5" y="-0.5" width="1" height="1" /></g>
<g transform="translate(172 124) rotate(231) scale(8 31)"><rect fill="#1f2927" fill-opacity="0.501961" x="-0.5" y="-0.5" width="1" height="1" /></g>
<g transform="translate(200 97) rotate(322) scale(1 41)"><rect fill="#dee4e8" fill-opacity="0.501961" x="-0.5" y="-0.5" width="1" height="1" /></g>
<g transform="translate(222 130) rotate(226) scale(22 7)"><rect fill="#45453f" fill-opacity="0.501961" x="-0.5" y="-0.5" width="1" height="1" /></g>
<g transform="translate(102 169) rotate(359) scale(64 16)"><rect fill="#4a4a4e" fill-opacity="0.501961" x="-0.5" y="-0.5" width="1" height="1" /></g>
<g transform="translate(135 118) rotate(32) scale(59 5)"><rect fill="#1e3439" fill-opacity="0.501961" x="-0.5" y="-0.5" width="1" height="1" /></g>
<g transform="translate(179 109) rotate(196) scale(12 2)"><rect fill="#c8d3d9" fill-opacity="0.501961" x="-0.5" y="-0.5" width="1" height="1" /></g>
<g transform="translate(123 117) rotate(169) scale(16 1)"><rect fill="#b7cadb" fill-opacity="0.501961" x="-0.5" y="-0.5" width="1" height="1" /></g>
<g transform="translate(51 61) rotate(35) scale(45 52)"><rect fill="#cfd4d8" fill-opacity="0.501961" x="-0.5" y="-0.5" width="1" height="1" /></g>
<g transform="translate(254 136) rotate(278) scale(11 8)"><rect fill="#a49b85" fill-opacity="0.501961" x="-0.5" y="-0.5" width="1" height="1" /></g>
<g transform="translate(103 0) rotate(249) scale(75 84)"><rect fill="#b8c3d2" fill-opacity="0.501961" x="-0.5" y="-0.5" width="1" height="1" /></g>
<g transform="translate(136 61) rotate(7) scale(17 12)"><rect fill="#958e81" fill-opacity="0.501961" x="-0.5" y="-0.5" width="1" height="1" /></g>
<g transform="translate(169 74) rotate(344) scale(26 4)"><rect fill="#60625a" fill-opacity="0.501961" x="-0.5" y="-0.5" width="1" height="1" /></g>
<g transform="translate(99 119) rotate(231) scale(7 23)"><rect fill="#1c201c" fill-opacity="0.501961" x="-0.5" y="-0.5" width="1" height="1" /></g>
<g transform="translate(62 142) rotate(182) scale(39 15)"><rect fill="#c2bba9" fill-opacity="0.501961" x="-0.5" y="-0.5" width="1" height="1" /></g>
<g transform="translate(222 87) rotate(332) scale(36 17)"><rect fill="#455962" fill-opacity="0.501961" x="-0.5" y="-0.5" width="1" height="1" /></g>
<g transform="translate(10 20) rotate(119) scale(66 12)"><rect fill="#636f7b" fill-opacity="0.501961" x="-0.5" y="-0.5" width="1" height="1" /></g>
<g transform="translate(109 92) rotate(6) scale(25 16)"><rect fill="#e5e9e4" fill-opacity="0.501961" x="-0.5" y="-0.5" width="1" height="1" /></g>
<g transform="translate(239 113) rotate(39) scale(17 1)"><rect fill="#bdb486" fill-opacity="0.501961" x="-0.5" y="-0.5" width="1" height="1" /></g>
<g transform="translate(93 138) rotate(363) scale(13 3)"><rect fill="#dcdfd9" fill-opacity="0.501961" x="-0.5" y="-0.5" width="1" height="1" /></g>
<g transform="translate(147 133) rotate(249) scale(3 11)"><rect fill="#a4b6c8" fill-opacity="0.501961" x="-0.5" y="-0.5" width="1" height="1" /></g>
<g transform="translate(213 167) rotate(174) scale(41 11)"><rect fill="#a4997f" fill-opacity="0.501961" x="-0.5" y="-0.5" width="1" height="1" /></g>
<g transform="translate(96 151) rotate(305) scale(8 20)"><rect fill="#000706" fill-opacity="0.501961" x="-0.5" y="-0.5" width="1" height="1" /></g>
<g transform="translate(113 112) rotate(40) scale(13 5)"><rect fill="#b1c7d9" fill-opacity="0.501961" x="-0.5" y="-0.5" width="1" height="1" /></g>
<g transform="translate(135 96) rotate(255) scale(2 16)"><rect fill="#adad9c" fill-opacity="0.501961" x="-0.5" y="-0.5" width="1" height="1" /></g>
<g transform="translate(124 142) rotate(86) scale(4 30)"><rect fill="#000802" fill-opacity="0.501961" x="-0.5" y="-0.5" width="1" height="1" /></g>
<g transform="translate(234 103) rotate(78) scale(4 28)"><rect fill="#958c5d" fill-opacity="0.501961" x="-0.5" y="-0.5" width="1" height="1" /></g>
<g transform="translate(137 102) rotate(254) scale(10 27)"><rect fill="#030d09" fill-opacity="0.501961" x="-0.5" y="-0.5" width="1" height="1" /></g>
<g transform="translate(152 93) rotate(100) scale(1 26)"><rect fill="#c8ccc5" fill-opacity="0.501961" x="-0.5" y="-0.5" width="1" height="1" /></g>
<g transform="translate(160 157) rotate(185) scale(29 2)"><rect fill="#101410" fill-opacity="0.501961" x="-0.5" y="-0.5" width="1" height="1" /></g>
<g transform="translate(148 169) rotate(85) scale(6 31)"><rect fill="#cabfae" fill-opacity="0.501961" x="-0.5" y="-0.5" width="1" height="1" /></g>
<g transform="translate(187 85) rotate(246) scale(30 1)"><rect fill="#5a5348" fill-opacity="0.501961" x="-0.5" y="-0.5" width="1" height="1" /></g>
<g transform="translate(195 140) rotate(246) scale(21 4)"><rect fill="#d9d3c5" fill-opacity="0.501961" x="-0.5" y="-0.5" width="1" height="1" /></g>
<g transform="translate(150 88) rotate(24) scale(20 1)"><rect fill="#000000" fill-opacity="0.501961" x="-0.5" y="-0.5" width="1" height="1" /></g>
<g transform="translate(137 135) rotate(-3) scale(47 1)"><rect fill="#1c2c32" fill-opacity="0.501961" x="-0.5" y="-0.5" width="1" height="1" /></g>
<g transform="translate(243 169) rotate(170) scale(75 7)"><rect fill="#433f31" fill-opacity="0.501961" x="-0.5" y="-0.5" width="1" height="1" /></g>
<g transform="translate(253 116) rotate(261) scale(2 20)"><rect fill="#aab337" fill-opacity="0.501961" x="-0.5" y="-0.5" width="1" height="1" /></g>
<g transform="translate(166 135) rotate(161) scale(20 1)"><rect fill="#a9b0b1" fill-opacity="0.501961" x="-0.5" y="-0.5" width="1" height="1" /></g>
<g transform="translate(106 125) rotate(364) scale(12 7)"><rect fill="#8e9696" fill-opacity="0.501961" x="-0.5" y="-0.5" width="1" height="1" /></g>
<g transform="translate(255 122) rotate(248) scale(8 35)"><rect fill="#0b120a" fill-opacity="0.501961" x="-0.5" y="-0.5" width="1" height="1" /></g>
<g transform="translate(225 144) rotate(260) scale(3 18)"><rect fill="#bab19a" fill-opacity="0.501961" x="-0.5" y="-0.5" width="1" height="1" /></g>
<g transform="translate(18 29) rotate(300) scale(62 14)"><rect fill="#8c98a1" fill-opacity="0.501961" x="-0.5" y="-0.5" width="1" height="1" /></g>
<g transform="translate(27 125) rotate(260) scale(3 39)"><rect fill="#889631" fill-opacity="0.501961" x="-0.5" y="-0.5" width="1" height="1" /></g>
<g transform="translate(183 131) rotate(111) scale(13 7)"><rect fill="#08120c" fill-opacity="0.501961" x="-0.5" y="-0.5" width="1" height="1" /></g>
<g transform="translate(162 67) rotate(41) scale(10 14)"><rect fill="#ebf0f0" fill-opacity="0.501961" x="-0.5" y="-0.5" width="1" height="1" /></g>
<g transform="translate(218 151) rotate(198) scale(29 5)"><rect fill="#000000" fill-opacity="0.501961" x="-0.5" y="-0.5" width="1" height="1" /></g>
<g transform="translate(168 98) rotate(189) scale(22 6)"><rect fill="#9a9c94" fill-opacity="0.501961" x="-0.5" y="-0.5" width="1" height="1" /></g>
<g transform="translate(141 128) rotate(322) scale(15 1)"><rect fill="#aab2b4" fill-opacity="0.501961" x="-0.5" y="-0.5" width="1" height="1" /></g>
<g transform="translate(111 48) rotate(13) scale(34 31)"><rect fill="#cfd9e0" fill-opacity="0.501961" x="-0.5" y="-0.5" width="1" height="1" /></g>
<g transform="translate(124 123) rotate(92) scale(6 29)"><rect fill="#132426" fill-opacity="0.501961" x="-0.5" y="-0.5" width="1" height="1" /></g>
<g transform="translate(111 74) rotate(94) scale(4 22)"><rect fill="#c2cac9" fill-opacity="0.501961" x="-0.5" y="-0.5" width="1" height="1" /></g>
<g transform="translate(3 130) rotate(354) scale(20 14)"><rect fill="#2a2d07" fill-opacity="0.501961" x="-0.5" y="-0.5" width="1" height="1" /></g>
<g transform="translate(149 143) rotate(353) scale(29 7)"><rect fill="#000903" fill-opacity="0.501961" x="-0.5" y="-0.5" width="1" height="1" /></g>
<g transform="translate(141 87) rotate(250) scale(15 1)"><rect fill="#e9ebdc" fill-opacity="0.501961" x="-0.5" y="-0.5" width="1" height="1" /></g>
<g transform="translate(200 64) rotate(166) scale(46 28)"><rect fill="#e5e8e4" fill-opacity="0.501961" x="-0.5" y="-0.5" width="1" height="1" /></g>
<g transform="translate(237 136) rotate(109) scale(10 5)"><rect fill="#b7b19d" fill-opacity="0.501961" x="-0.5" y="-0.5" width="1" height="1" /></g>
<g transform="translate(119 152) rotate(232) scale(1 12)"><rect fill="#cdc2aa" fill-opacity="0.501961" x="-0.5" y="-0.5" width="1" height="1" /></g>
<g transform="translate(210 131) rotate(1) scale(5 10)"><rect fill="#202e37" fill-opacity="0.501961" x="-0.5" y="-0.5" width="1" height="1" /></g>
<g transform="translate(159 85) rotate(16) scale(19 4)"><rect fill="#f2f7f3" fill-opacity="0.501961" x="-0.5" y="-0.5" width="1" height="1" /></g>
<g transform="translate(183 119) rotate(123) scale(6 1)"><rect fill="#c6d0d4" fill-opacity="0.501961" x="-0.5" y="-0.5" width="1" height="1" /></g>
<g transform="translate(171 75) rotate(176) scale(24 1)"><rect fill="#3f382c" fill-opacity="0.501961" x="-0.5" y="-0.5" width="1" height="1" /></g>
<g transform="translate(113 137) rotate(171) scale(23 2)"><rect fill="#b5c6d1" fill-opacity="0.501961" x="-0.5" y="-0.5" width="1" height="1" /></g>
<g transform="translate(80 116) rotate(268) scale(32 6)"><rect fill="#807148" fill-opacity="0.501961" x="-0.5" y="-0.5" width="1" height="1" /></g>
<g transform="translate(215 96) rotate(253) scale(5 24)"><rect fill="#3c4634" fill-opacity="0.501961" x="-0.5" y="-0.5" width="1" height="1" /></g>
<g transform="translate(184 116) rotate(341) scale(10 4)"><rect fill="#000401" fill-opacity="0.501961" x="-0.5" y="-0.5" width="1" height="1" /></g>
<g transform="translate(200 130) rotate(85) scale(22 4)"><rect fill="#000503" fill-opacity="0.501961" x="-0.5" y="-0.5" width="1" height="1" /></g>
<g transform="translate(32 48) rotate(358) scale(29 20)"><rect fill="#b0bac3" fill-opacity="0.501961" x="-0.5" y="-0.5" width="1" height="1" /></g>
<g transform="translate(205 159) rotate(262) scale(4 56)"><rect fill="#181d1f" fill-opacity="0.501961" x="-0.5" y="-0.5" width="1" height="1" /></g>
<g transform="translate(138 47) rotate(277) scale(38 5)"><rect fill="#d4d9d7" fill-opacity="0.501961" x="-0.5" y="-0.5" width="1" height="1" /></g>
<g transform="translate(92 86) rotate(269) scale(31 30)"><rect fill="#e1e4df" fill-opacity="0.501961" x="-0.5" y="-0.5" width="1" height="1" /></g>
<g transform="translate(54 105) rotate(77) scale(18 23)"><rect fill="#8f8b57" fill-opacity="0.501961" x="-0.5" y="-0.5" width="1" height="1" /></g>
<g transform="translate(141 63) rotate(279) scale(11 4)"><rect fill="#564131" fill-opacity="0.501961" x="-0.5" y="-0.5" width="1" height="1" /></g>
<g transform="translate(29 112) rotate(123) scale(5 16)"><rect fill="#9e9b60" fill-opacity="0.501961" x="-0.5" y="-0.5" width="1" height="1" /></g>
<g transform="translate(108 120) rotate(27) scale(11 1)"><rect fill="#b3a58c" fill-opacity="0.501961" x="-0.5" y="-0.5" width="1" height="1" /></g>
<g transform="translate(166 112) rotate(90) scale(10 6)"><rect fill="#adb9bf" fill-opacity="0.501961" x="-0.5" y="-0.5" width="1" height="1" /></g>
<g transform="translate(180 93) rotate(0) scale(4 7)"><rect fill="#eef1ec" fill-opacity="0.501961" x="-0.5" y="-0.5" width="1" height="1" /></g>
<g transform="translate(178 104) rotate(276) scale(1 36)"><rect fill="#15211b" fill-opacity="0.501961" x="-0.5" y="-0.5" width="1" height="1" /></g>
<g transform="translate(39 144) rotate(101) scale(7 54)"><rect fill="#a09884" fill-opacity="0.501961" x="-0.5" y="-0.5" width="1" height="1" /></g>
<g transform="translate(248 55) rotate(148) scale(27 20)"><rect fill="#acb4b0" fill-opacity="0.501961" x="-0.5" y="-0.5" width="1" height="1" /></g>
<g transform="translate(223 109) rotate(106) scale(2 28)"><rect fill="#000000" fill-opacity="0.501961" x="-0.5" y="-0.5" width="1" height="1" /></g>
<g transform="translate(155 66) rotate(246) scale(6 29)"><rect fill="#e1e7e8" fill-opacity="0.501961" x="-0.5" y="-0.5" width="1" height="1" /></g>
<g transform="translate(200 92) rotate(357) scale(2 11)"><rect fill="#dadcd9" fill-opacity="0.501961" x="-0.5" y="-0.5" width="1" height="1" /></g>
<g transform="translate(132 149) rotate(199) scale(16 3)"><rect fill="#d1c7b1" fill-opacity="0.501961" x="-0.5" y="-0.5" width="1" height="1" /></g>
<g transform="translate(113 169) rotate(4) scale(10 1)"><rect fill="#e1d9c7" fill-opacity="0.501961" x="-0.5" y="-0.5" width="1" height="1" /></g>
<g transform="translate(192 117) rotate(185) scale(6 26)"><rect fill="#ada159" fill-opacity="0.501961" x="-0.5" y="-0.5" width="1" height="1" /></g>
<g transform="translate(117 104) rotate(187) scale(31 2)"><rect fill="#081818" fill-opacity="0.501961" x="-0.5" y="-0.5" width="1" height="1" /></g>
<g transform="translate(137 112) rotate(126) scale(7 39)"><rect fill="#0a1411" fill-opacity="0.501961" x="-0.5" y="-0.5" width="1" height="1" /></g>
<g transform="translate(84 140) rotate(80) scale(13 4)"><rect fill="#000501" fill-opacity="0.501961" x="-0.5" y="-0.5" width="1" height="1" /></g>
<g transform="translate(202 117) rotate(217) scale(5 13)"><rect fill="#000907" fill-opacity="0.501961" x="-0.5" y="-0.5" width="1" height="1" /></g>
<g transform="translate(171 133) rotate(168) scale(10 6)"><rect fill="#9ba6aa" fill-opacity="0.501961" x="-0.5" y="-0.5" width="1" height="1" /></g>
<g transform="translate(221 102) rotate(170) scale(46 4)"><rect fill="#999872" fill-opacity="0.501961" x="-0.5" y="-0.5" width="1" height="1" /></g>
<g transform="translate(219 99) rotate(85) scale(6 11)"><rect fill="#272f2a" fill-opacity="0.501961" x="-0.5" y="-0.5" width="1" height="1" /></g>
<g transform="translate(118 146) rotate(298) scale(12 6)"><rect fill="#000902" fill-opacity="0.501961" x="-0.5" y="-0.5" width="1" height="1" /></g>
<g transform="translate(197 28) rotate(290) scale(18 102)"><rect fill="#cacfd3" fill-opacity="0.501961" x="-0.5" y="-0.5" width="1" height="1" /></g>
<g transform="translate(121 160) rotate(88) scale(8 102)"><rect fill="#272f2e" fill-opacity="0.501961" x="-0.5" y="-0.5" width="1" height="1" /></g>
<g transform="translate(207 155) rotate(174) scale(16 1)"><rect fill="#bbb296" fill-opacity="0.501961" x="-0.5" y="-0.5" width="1" height="1" /></g>
<g transform="translate(161 72) rotate(262) scale(35 1)"><rect fill="#e0e3df" fill-opacity="0.501961" x="-0.5" y="-0.5" width="1" height="1" /></g>
<g transform="translate(145 79) rotate(5) scale(30 1)"><rect fill="#12130b" fill-opacity="0.501961" x="-0.5" y="-0.5" width="1" height="1" /></g>
<g transform="translate(30 98) rotate(166) scale(20 15)"><rect fill="#57642f" fill-opacity="0.501961" x="-0.5" y="-0.5" width="1" height="1" /></g>
<g transform="translate(185 87) rotate(236) scale(6 9)"><rect fill="#84897e" fill-opacity="0.501961" x="-0.5" y="-0.5" width="1" height="1" /></g>
<g transform="translate(89 114) rotate(230) scale(4 15)"><rect fill="#8293ba" fill-opacity="0.501961" x="-0.5" y="-0.5" width="1" height="1" /></g>
<g transform="translate(234 151) rotate(238) scale(3 23)"><rect fill="#000000" fill-opacity="0.501961" x="-0.5" y="-0.5" width="1" height="1" /></g>
<g transform="translate(137 94) rotate(78) scale(2 18)"><rect fill="#b3b4a6" fill-opacity="0.501961" x="-0.5" y="-0.5" width="1" height="1" /></g>
<g transform="translate(121 67) rotate(164) scale(34 1)"><rect fill="#909691" fill-opacity="0.501961" x="-0.5" y="-0.5" width="1" height="1" /></g>
<g transform="translate(126 118) rotate(328) scale(18 1)"><rect fill="#84959d" fill-opacity="0.501961" x="-0.5" y="-0.5" width="1" height="1" /></g>
<g transform="translate(4 156) rotate(172) scale(15 23)"><rect fill="#454038" fill-opacity="0.501961" x="-0.5" y="-0.5" width="1" height="1" /></g>
<g transform="translate(210 86) rotate(168) scale(19 17)"><rect fill="#5e7484" fill-opacity="0.501961" x="-0.5" y="-0.5" width="1" height="1" /></g>
<g transform="translate(251 78) rotate(346) scale(24 20)"><rect fill="#344454" fill-opacity="0.501961" x="-0.5" y="-0.5" width="1" height="1" /></g>
<g transform="translate(213 120) rotate(231) scale(21 1)"><rect fill="#aaa79d" fill-opacity="0.501961" x="-0.5" y="-0.5" width="1" height="1" /></g>
<g transform="translate(86 126) rotate(28) scale(3 14)"><rect fill="#00030e" fill-opacity="0.501961" x="-0.5" y="-0.5" width="1" height="1" /></g>
<g transform="translate(117 121) rotate(116) scale(3 27)"><rect fill="#0b1919" fill-opacity="0.501961" x="-0.5" y="-0.5" width="1" height="1" /></g>
<g transform="translate(170 123) rotate(352) scale(12 1)"><rect fill="#8d8f84" fill-opacity="0.501961" x="-0.5" y="-0.5" width="1" height="1" /></g>
<g transform="translate(78 4) rotate(72) scale(13 108)"><rect fill="#a3aeb7" fill-opacity="0.501961" x="-0.5" y="-0.5" width="1" height="1" /></g>
<g transform="translate(172 65) rotate(118) scale(3 3)"><rect fill="#5e5b46" fill-opacity="0.501961" x="-0.5" y="-0.5" width="1" height="1" /></g>
<g transform="translate(126 70) rotate(185) scale(23 5)"><rect fill="#2f3536" fill-opacity="0.501961" x="-0.5" y="-0.5" width="1" height="1" /></g>
<g transform="translate(97 114) rotate(264) scale(1 29)"><rect fill="#8e9398" fill-opacity="0.501961" x="-0.5" y="-0.5" width="1" height="1" /></g>
<g transform="translate(159 147) rotate(270) scale(1 41)"><rect fill="#000000" fill-opacity="0.501961" x="-0.5" y="-0.5" width="1" height="1" /></g>
<g transform="translate(216 134) rotate(117) scale(2 10)"><rect fill="#b8b9b2" fill-opacity="0.501961" x="-0.5" y="-0.5" width="1" height="1" /></g>
<g transform="translate(19 169) rotate(78) scale(6 49)"><rect fill="#0a090c" fill-opacity="0.501961" x="-0.5" y="-0.5" width="1" height="1" /></g>
<g transform="translate(246 121) rotate(335) scale(1 70)"><rect fill="#6b654d" fill-opacity="0.501961" x="-0.5" y="-0.5" width="1" height="1" /></g>
<g transform="translate(128 91) rotate(32) scale(3 18)"><rect fill="#111815" fill-opacity="0.501961" x="-0.5" y="-0.5" width="1" height="1" /></g>
<g transform="translate(152 104) rotate(136) scale(10 14)"><rect fill="#040f0c" fill-opacity="0.501961" x="-0.5" y="-0.5" width="1" height="1" /></g>
<g transform="translate(171 113) rotate(83) scale(13 1)"><rect fill="#2d3a39" fill-opacity="0.501961" x="-0.5" y="-0.5" width="1" height="1" /></g>
<g transform="translate(179 113) rotate(117) scale(2 10)"><rect fill="#000505" fill-opacity="0.501961" x="-0.5" y="-0.5" width="1" height="1" /></g>
<g transform="translate(79 116) rotate(259) scale(4 3)"><rect fill="#680000" fill-opacity="0.501961" x="-0.5" y="-0.5" width="1" height="1" /></g>
<g transform="translate(8 103) rotate(99) scale(12 9)"><rect fill="#1b210c" fill-opacity="0.501961" x="-0.5" y="-0.5" width="1" height="1" /></g>
<g transform="translate(125 149) rotate(273) scale(11 4)"><rect fill="#c4baa4" fill-opacity="0.501961" x="-0.5" y="-0.5" width="1" height="1" /></g>
<g transform="translate(186 149) rotate(246) scale(6 26)"><rect fill="#bcb6a2" fill-opacity="0.501961" x="-0.5" y="-0.5" width="1" height="1" /></g>
<g transform="translate(72 111) rotate(366) scale(14 22)"><rect fill="#a7a05e" fill-opacity="0.501961" x="-0.5" y="-0.5" width="1" height="1" /></g>
<g transform="translate(121 134) rotate(374) scale(17 1)"><rect fill="#000400" fill-opacity="0.501961" x="-0.5" y="-0.5" width="1" height="1" /></g>
<g transform="translate(51 77) rotate(104) scale(33 19)"><rect fill="#dcdcd6" fill-opacity="0.501961" x="-0.5" y="-0.5" width="1" height="1" /></g>
<g transform="translate(192 169) rotate(352) scale(33 9)"><rect fill="#b3aa97" fill-opacity="0.501961" x="-0.5" y="-0.5" width="1" height="1" /></g>
<g transform="translate(230 134) rotate(149) scale(22 1)"><rect fill="#9c9b90" fill-opacity="0.501961" x="-0.5" y="-0.5" width="1" height="1" /></g>
<g transform="translate(225 118) rotate(26) scale(12 5)"><rect fill="#848f40" fill-opacity="0.501961" x="-0.5" y="-0.5" width="1" height="1" /></g>
<g transform="translate(226 148) rotate(179) scale(15 2)"><rect fill="#66757c" fill-opacity="0.501961" x="-0.5" y="-0.5" width="1" height="1" /></g>
<g transform="translate(210 125) rotate(120) scale(9 1)"><rect fill="#101410" fill-opacity="0.501961" x="-0.5" y="-0.5" width="1" height="1" /></g>
<g transform="translate(243 122) rotate(54) scale(17 1)"><rect fill="#000000" fill-opacity="0.501961" x="-0.5" y="-0.5" width="1" height="1" /></g>
<g transform="translate(95 122) rotate(145) scale(13 1)"><rect fill="#7f8780" fill-opacity="0.501961" x="-0.5" y="-0.5" width="1" height="1" /></g>
<g transform="translate(235 166) rotate(312) scale(51 8)"><rect fill="#736e5b" fill-opacity="0.501961" x="-0.5" y="-0.5" width="1" height="1" /></g>
<g transform="translate(250 110) rotate(269) scale(7 21)"><rect fill="#1d1c08" fill-opacity="0.501961" x="-0.5" y="-0.5" width="1" height="1" /></g>
<g transform="translate(107 166) rotate(267) scale(7 55)"><rect fill="#4e4d4d" fill-opacity="0.501961" x="-0.5" y="-0.5" width="1" height="1" /></g>
<g transform="translate(114 87) rotate(110) scale(12 16)"><rect fill="#dfe2e0" fill-opacity="0.501961" x="-0.5" y="-0.5" width="1" height="1" /></g>
<g transform="translate(137 137) rotate(263) scale(1 39)"><rect fill="#a9afae" fill-opacity="0.501961" x="-0.5" y="-0.5" width="1" height="1" /></g>
<g transform="translate(127 68) rotate(120) scale(29 1)"><rect fill="#3f3d39" fill-opacity="0.501961" x="-0.5" y="-0.5" width="1" height="1" /></g>
<g transform="translate(91 130) rotate(102) scale(6 7)"><rect fill="#9aa0a5" fill-opacity="0.501961" x="-0.5" y="-0.5" width="1" height="1" /></g>
<g transform="translate(163 123) rotate(161) scale(53 1)"><rect fill="#17211d" fill-opacity="0.501961" x="-0.5" y="-0.5" width="1" height="1" /></g>
<g transform="translate(212 14) rotate(294) scale(9 76)"><rect fill="#b1b8bf" fill-opacity="0.501961" x="-0.5" y="-0.5" width="1" height="1" /></g>
<g transform="translate(145 141) rotate(359) scale(33 7)"><rect fill="#0c1610" fill-opacity="0.501961" x="-0.5" y="-0.5" width="1" height="1" /></g>
<g transform="translate(181 137) rotate(316) scale(15 10)"><rect fill="#222f2e" fill-opacity="0.501961" x="-0.5" y="-0.5" width="1" height="1" /></g>
<g transform="translate(178 82) rotate(346) scale(11 6)"><rect fill="#e8f0ea" fill-opacity="0.501961" x="-0.5" y="-0.5" width="1" height="1" /></g>
<g transform="translate(92 145) rotate(222) scale(9 1)"><rect fill="#667374" fill-opacity="0.501961" x="-0.5" y="-0.5" width="1" height="1" /></g>
<g transform="translate(168 92) rotate(344) scale(18 3)"><rect fill="#495b64" fill-opacity="0.501961" x="-0.5" y="-0.5" width="1" height="1" /></g>
<g transform="translate(101 115) rotate(198) scale(35 1)"><rect fill="#2c2a21" fill-opacity="0.501961" x="-0.5" y="-0.5" width="1" height="1" /></g>
<g transform="translate(160 114) rotate(366) scale(4 16)"><rect fill="#4d5550" fill-opacity="0.501961" x="-0.5" y="-0.5" width="1" height="1" /></g>
<g transform="translate(199 111) rotate(136) scale(21 2)"><rect fill="#b6b499" fill-opacity="0.501961" x="-0.5" y="-0.5" width="1" height="1" /></g>
<g transform="translate(243 130) rotate(94) scale(15 1)"><rect fill="#4d6172" fill-opacity="0.501961" x="-0.5" y="-0.5" width="1" height="1" /></g>
<g transform="translate(199 101) rotate(320) scale(1 43)"><rect fill="#59584b" fill-opacity="0.501961" x="-0.5" y="-0.5" width="1" height="1" /></g>
<g transform="translate(188 102) rotate(161) scale(17 3)"><rect fill="#0d1816" fill-opacity="0.501961" x="-0.5" y="-0.5" width="1" height="1" /></g>
<g transform="translate(95 124) rotate(46) scale(1 8)"><rect fill="#000000" fill-opacity="0.501961" x="-0.5" y="-0.5" width="1" height="1" /></g>
<g transform="translate(146 132) rotate(72) scale(1 9)"><rect fill="#cddae2" fill-opacity="0.501961" x="-0.5" y="-0.5" width="1" height="1" /></g>
<g transform="translate(79 34) rotate(-12) scale(81 33)"><rect fill="#c0cad2" fill-opacity="0.501961" x="-0.5" y="-0.5" width="1" height="1" /></g>
<g transform="translate(85 154) rotate(200) scale(14 1)"><rect fill="#cdc3ab" fill-opacity="0.501961" x="-0.5" y="-0.5" width="1" height="1" /></g>
<g transform="translate(34 107) rotate(35) scale(4 10)"><rect fill="#303b18" fill-opacity="0.501961" x="-0.5" y="-0.5" width="1" height="1" /></g>
<g transform="translate(122 120) rotate(194) scale(7 3)"><rect fill="#000000" fill-opacity="0.501961" x="-0.5" y="-0.5" width="1" height="1" /></g>
<g transform="translate(250 90) rotate(339) scale(39 1)"><rect fill="#1f1c16" fill-opacity="0.501961" x="-0.5" y="-0.5" width="1" height="1" /></g>
<g transform="translate(41 127) rotate(255) scale(1 35)"><rect fill="#182600" fill-opacity="0.501961" x="-0.5" y="-0.5" width="1" height="1" /></g>
<g transform="translate(237 121) rotate(319) scale(1 12)"><rect fill="#000000" fill-opacity="0.501961" x="-0.5" y="-0.5" width="1" height="1" /></g>
<g transform="translate(157 128) rotate(219) scale(21 6)"><rect fill="#292e20" fill-opacity="0.501961" x="-0.5" y="-0.5" width="1" height="1" /></g>
<g transform="translate(43 152) rotate(-9) scale(18 14)"><rect fill="#958d79" fill-opacity="0.501961" x="-0.5" y="-0.5" width="1" height="1" /></g>
<g transform="translate(23 126) rotate(170) scale(45 2)"><rect fill="#76802c" fill-opacity="0.501961" x="-0.5" y="-0.5" width="1" height="1" /></g>
<g transform="translate(58 118) rotate(210) scale(20 6)"><rect fill="#656a29" fill-opacity="0.501961" x="-0.5" y="-0.5" width="1" height="1" /></g>
<g transform="translate(210 111) rotate(91) scale(1 35)"><rect fill="#848b87" fill-opacity="0.501961" x="-0.5" y="-0.5" width="1" height="1" /></g>
<g transform="translate(74 169) rotate(84) scale(23 42)"><rect fill="#353738" fill-opacity="0.501961" x="-0.5" y="-0.5" width="1" height="1" /></g>
<g transform="translate(229 62) rotate(252) scale(19 29)"><rect fill="#cbd1ce" fill-opacity="0.501961" x="-0.5" y="-0.5" width="1" height="1" /></g>
<g transform="translate(67 145) rotate(365) scale(24 19)"><rect fill="#c2baa7" fill-opacity="0.501961" x="-0.5" y="-0.5" width="1" height="1" /></g>
<g transform="translate(145 164) rotate(360) scale(32 4)"><rect fill="#464444" fill-opacity="0.501961" x="-0.5" y="-0.5" width="1" height="1" /></g>
<g transform="translate(117 72) rotate(7) scale(20 1)"><rect fill="#767d7e" fill-opacity="0.501961" x="-0.5" y="-0.5" width="1" height="1" /></g>
<g transform="translate(16 109) rotate(151) scale(32 6)"><rect fill="#6e703f" fill-opacity="0.501961" x="-0.5" y="-0.5" width="1" height="1" /></g>
<g transform="translate(98 108) rotate(208) scale(6 7)"><rect fill="#95adc7" fill-opacity="0.501961" x="-0.5" y="-0.5" width="1" height="1" /></g>
<g transform="translate(243 100) rotate(90) scale(9 16)"><rect fill="#6c684e" fill-opacity="0.501961" x="-0.5" y="-0.5" width="1" height="1" /></g>
<g transform="translate(73 111) rotate(3) scale(21 5)"><rect fill="#bbb683" fill-opacity="0.501961" x="-0.5" y="-0.5" width="1" height="1" /></g>
<g transform="translate(188 104) rotate(94) scale(32 1)"><rect fill="#0d1c1d" fill-opacity="0.501961" x="-0.5" y="-0.5" width="1" height="1" /></g>
<g transform="translate(168 69) rotate(222) scale(9 5)"><rect fill="#e8ebe8" fill-opacity="0.501961" x="-0.5" y="-0.5" width="1" height="1" /></g>
<g transform="translate(205 125) rotate(12) scale(5 10)"><rect fill="#8a896c" fill-opacity="0.501961" x="-0.5" y="-0.5" width="1" height="1" /></g>
<g transform="translate(72 128) rotate(73) scale(4 27)"><rect fill="#5a5a22" fill-opacity="0.501961" x="-0.5" y="-0.5" width="1" height="1" /></g>
<g transform="translate(169 117) rotate(84) scale(4 11)"><rect fill="#595e59" fill-opacity="0.501961" x="-0.5" y="-0.5" width="1" height="1" /></g>
<g transform="translate(183 77) rotate(320) scale(1 12)"><rect fill="#7d7665" fill-opacity="0.501961" x="-0.5" y="-0.5" width="1" height="1" /></g>
<g transform="translate(42 169) rotate(180) scale(15 1)"><rect fill="#a59579" fill-opacity="0.501961" x="-0.5" y="-0.5" width="1" height="1" /></g>
<g transform="translate(166 81) rotate(74) scale(4 31)"><rect fill="#dde1db" fill-opacity="0.501961" x="-0.5" y="-0.5" width="1" height="1" /></g>
<g transform="translate(81 106) rotate(237) scale(5 3)"><rect fill="#3a4618" fill-opacity="0.501961" x="-0.5" y="-0.5" width="1" height="1" /></g>
<g transform="translate(0 80) rotate(195) scale(24 3)"><rect fill="#888c86" fill-opacity="0.501961" x="-0.5" y="-0.5" width="1" height="1" /></g>
<g transform="translate(144 75) rotate(187) scale(34 1)"><rect fill="#353e3c" fill-opacity="0.501961" x="-0.5" y="-0.5" width="1" height="1" /></g>
<g transform="translate(178 105) rotate(178) scale(12 4)"><rect fill="#1f2827" fill-opacity="0.501961" x="-0.5" y="-0.5" width="1" height="1" /></g>
<g transform="translate(86 99) rotate(274) scale(19 1)"><rect fill="#e1e4d3" fill-opacity="0.501961" x="-0.5" y="-0.5" width="1" height="1" /></g>
<g transform="translate(42 106) rotate(209) scale(7 27)"><rect fill="#8f8c5b" fill-opacity="0.501961" x="-0.5" y="-0.5" width="1" height="1" /></g>
<g transform="translate(190 127) rotate(240) scale(4 7)"><rect fill="#7a6e4e" fill-opacity="0.501961" x="-0.5" y="-0.5" width="1" height="1" /></g>
<g transform="translate(96 152) rotate(209) scale(26 5)"><rect fill="#000704" fill-opacity="0.501961" x="-0.5" y="-0.5" width="1" height="1" /></g>
<g transform="translate(106 132) rotate(85) scale(1 52)"><rect fill="#565a52" fill-opacity="0.501961" x="-0.5" y="-0.5" width="1" height="1" /></g>
<g transform="translate(157 148) rotate(2) scale(18 1)"><rect fill="#030f02" fill-opacity="0.501961" x="-0.5" y="-0.5" width="1" height="1" /></g>
<g transform="translate(217 118) rotate(140) scale(1 11)"><rect fill="#df682d" fill-opacity="0.501961" x="-0.5" y="-0.5" width="1" height="1" /></g>
<g transform="translate(137 72) rotate(110) scale(1 9)"><rect fill="#9c9a8e" fill-opacity="0.501961" x="-0.5" y="-0.5" width="1" height="1" /></g>
<g transform="translate(245 139) rotate(197) scale(2 17)"><rect fill="#000000" fill-opacity="0.501961" x="-0.5" y="-0.5" width="1" height="1" /></g>
<g transform="translate(92 141) rotate(92) scale(1 17)"><rect fill="#000709" fill-opacity="0.501961" x="-0.5" y="-0.5" width="1" height="1" /></g>
<g transform="translate(91 120) rotate(46) scale(4 8)"><rect fill="#000200" fill-opacity="0.501961" x="-0.5" y="-0.5" width="1" height="1" /></g>
<g transform="translate(119 67) rotate(335) scale(17 3)"><rect fill="#a2abad" fill-opacity="0.501961" x="-0.5" y="-0.5" width="1" height="1" /></g>
<g transform="translate(170 53) rotate(71) scale(15 52)"><rect fill="#d7dfe0" fill-opacity="0.501961" x="-0.5" y="-0.5" width="1" height="1" /></g>
<g transform="translate(193 89) rotate(326) scale(1 22)"><rect fill="#cdd0cb" fill-opacity="0.501961" x="-0.5" y="-0.5" width="1" height="1" /></g>
<g transform="translate(203 150) rotate(138) scale(3 12)"><rect fill="#b6ae95" fill-opacity="0.501961" x="-0.5" y="-0.5" width="1" height="1" /></g>
<g transform="translate(196 105) rotate(56) scale(10 3)"><rect fill="#575243" fill-opacity="0.501961" x="-0.5" y="-0.5" width="1" height="1" /></g>
<g transform="translate(121 111) rotate(124) scale(1 15)"><rect fill="#141f1c" fill-opacity="0.501961" x="-0.5" y="-0.5" width="1" height="1" /></g>
<g transform="translate(13 23) rotate(209) scale(9 35)"><rect fill="#75818b" fill-opacity="0.501961" x="-0.5" y="-0.5" width="1" height="1" /></g>
<g transform="translate(133 83) rotate(234) scale(12 7)"><rect fill="#171811" fill-opacity="0.501961" x="-0.5" y="-0.5" width="1" height="1" /></g>
<g transform="translate(148 119) rotate(262) scale(8 14)"><rect fill="#080d09" fill-opacity="0.501961" x="-0.5" y="-0.5" width="1" height="1" /></g>
<g transform="translate(183 130) rotate(131) scale(3 1)"><rect fill="#c9bb8f" fill-opacity="0.501961" x="-0.5" y="-0.5" width="1" height="1" /></g>
<g transform="translate(81 144) rotate(331) scale(1 25)"><rect fill="#cac3b0" fill-opacity="0.501961" x="-0.5" y="-0.5" width="1" height="1" /></g>
<g transform="translate(201 106) rotate(177) scale(2 3)"><rect fill="#f2fbff" fill-opacity="0.501961" x="-0.5" y="-0.5" width="1" height="1" /></g>
<g transform="translate(172 151) rotate(92) scale(4 21)"><rect fill="#cbc1aa" fill-opacity="0.501961" x="-0.5" y="-0.5" width="1" height="1" /></g>
</g>
</svg>