<svg height="680" width="1024" xmlns="http://www.w3.org/2000/svg"><path d="m0 0h1024v680h-1024z" fill="#534d2c"/><g fill-opacity=".501961"><ellipse fill="#000003" rx="1" ry="1" transform="matrix(9.03781176 -82.55029668 187.83722192 20.56488612 751.323492 511.36516)"/><ellipse fill="#8e7947" rx="1" ry="1" transform="matrix(108.11670144 82.89901848 -60.5395988 78.95559984 415.441912 404.951772)"/><ellipse fill="#797449" rx="1" ry="1" transform="matrix(-293.6203774 -62.37726436 19.51147936 -91.8438472 869.441288 353.554536)"/><ellipse fill="#080000" rx="1" ry="1" transform="matrix(-55.06788564 -132.0873288 22.9994714 -9.58859772 528.579128 277.307972)"/><ellipse fill="#000a05" rx="1" ry="1" transform="matrix(-718.72865948 -176.75783552 13.381575 -54.41185364 34.034948 668.415568)"/><ellipse fill="#000800" rx="1" ry="1" transform="matrix(-221.24619564 92.0310452 -13.56468768 -32.61003432 943.60426 678)"/><ellipse fill="#858343" rx="1" ry="1" transform="matrix(252.11597292 -25.38094748 5.76326528 57.24810844 664.19884 657.762328)"/><ellipse fill="#0d0300" rx="1" ry="1" transform="matrix(-156.44754796 -74.47418328 12.11888128 -25.45807384 632.256676 395.788556)"/><ellipse rx="1" ry="1" transform="matrix(19.58739256 30.47806048 -59.17787464 38.0319562 535.679416 543.915608)"/><ellipse fill="#393519" rx="1" ry="1" transform="matrix(-89.58985904 119.63299204 -173.55171052 -129.96810508 2 120.98908)"/><ellipse fill="#635d3d" rx="1" ry="1" transform="matrix(-1.38230092 -116.36467408 434.20602532 -5.15795192 730.583636 68.405792)"/><ellipse fill="#845428" rx="1" ry="1" transform="matrix(-6.16366436 23.9387616 -189.51375164 -48.79530436 624.47106 474.352616)"/><ellipse fill="#fff79f" rx="1" ry="1" transform="matrix(-12.75527116 42.2558708 -3.8293414 -1.1559172 535.781264 211.422896)"/><ellipse fill="#db9047" rx="1" ry="1" transform="matrix(-28.73741052 -72.36837968 16.92822244 -6.72218004 491.334088 388.697556)"/><ellipse fill="#000d12" rx="1" ry="1" transform="matrix(-42.19811888 48.54048768 -54.69991592 -47.55274756 867.756528 523.998944)"/><ellipse fill="#64603a" rx="1" ry="1" transform="matrix(194.95460748 42.00991392 -25.85991648 120.007622 298.514792 418.279612)"/><ellipse fill="#393711" rx="1" ry="1" transform="matrix(136.0675902 17.36402908 -8.25565288 64.69274992 63.042608 586.921108)"/><ellipse fill="#30381f" rx="1" ry="1" transform="matrix(-3.12502912 -17.93329884 118.68888632 -20.68254316 611.947008 671.402272)"/><ellipse fill="#6e6940" rx="1" ry="1" transform="matrix(-63.2963036 56.311375 -115.13729116 -129.419055 998.967276 459.348008)"/><ellipse fill="#660" rx="1" ry="1" transform="matrix(-79.85136816 31.70707616 -13.78139444 -34.70718012 944.841816 613.614612)"/><ellipse fill="#001c1a" rx="1" ry="1" transform="matrix(176.15600276 -16.2976114 1.9054114 20.59502132 123.62854 678)"/><ellipse fill="#d3a56c" rx="1" ry="1" transform="matrix(-12.9762518 -3.30430264 7.94996788 -31.220138 533.53784 213.346716)"/><ellipse fill="#8f6133" rx="1" ry="1" transform="matrix(-14.00971852 -5.0126314 16.54169656 -46.23210732 783.720856 495.183156)"/><ellipse fill="#8b8147" rx="1" ry="1" transform="matrix(-9.71175348 -25.1571708 83.65687676 -32.29516428 839.024224 627.880084)"/><ellipse fill="#000706" rx="1" ry="1" transform="matrix(4.57955096 -14.82688968 106.61745616 32.93071452 691.991676 415.55592)"/><ellipse fill="#593618" rx="1" ry="1" transform="matrix(106.23645888 74.60690588 -14.32906704 20.40386644 590.968688 415.274204)"/><ellipse fill="#6e6a3b" rx="1" ry="1" transform="matrix(-29.3384044 -10.86000348 7.43014216 -20.07260088 560.677312 562.442424)"/><ellipse fill="#010" rx="1" ry="1" transform="matrix(-3.30899896 -27.3999268 324.80339032 -39.22543616 1017.674204 678)"/><ellipse fill="#010000" rx="1" ry="1" transform="matrix(13.62387116 -6.50424444 35.93725796 75.27462668 515.952012 247.816936)"/><ellipse fill="#84511f" rx="1" ry="1" transform="matrix(-6.58075948 2.34073156 -25.24255276 -70.96720196 499.269416 275.573024)"/><ellipse rx="1" ry="1" transform="matrix(6.42678104 35.39918936 -14.06210432 2.55299816 518.19216 570.625356)"/><ellipse fill="#3d3a1c" rx="1" ry="1" transform="matrix(.92681436 -45.8449806 236.60657468 4.78330164 116.286752 224.796256)"/><ellipse fill="#535133" rx="1" ry="1" transform="matrix(4.59072428 -43.54786832 280.04997928 29.52227712 817.201744 251.772876)"/><ellipse fill="#211f15" rx="1" ry="1" transform="matrix(18.03143528 70.6926236 -58.56324576 14.93761756 701.150204 508.761768)"/><ellipse fill="#7f7945" rx="1" ry="1" transform="matrix(207.94219168 -22.27974972 1.87209152 17.47267456 619.768572 632.69894)"/><ellipse fill="#ab5d20" rx="1" ry="1" transform="matrix(-18.4661944 13.10322888 -23.10633964 -32.5634364 530.701628 450.528364)"/><ellipse rx="1" ry="1" transform="matrix(8.33516632 12.31691452 -48.19342856 32.61370712 518.375076 538.246488)"/><ellipse fill="#fed199" rx="1" ry="1" transform="matrix(4.01641572 -3.28751324 10.85540788 13.26225252 545.863472 200.12768)"/><ellipse fill="#bd9152" rx="1" ry="1" transform="matrix(-25.74212352 -36.89451552 16.54414172 -11.5432154 477.56426 378.7413)"/><ellipse fill="#756d44" rx="1" ry="1" transform="matrix(8.68499744 -37.45959908 95.5216782 22.14667404 732.125788 371.478012)"/><ellipse fill="#635d38" rx="1" ry="1" transform="matrix(130.18339952 -91.9584996 36.47582548 51.63793432 330.025528 376.736804)"/><ellipse fill="#534d2e" rx="1" ry="1" transform="matrix(-37.900996 -95.46677236 170.62621204 -67.73983472 245.779092 75.26232)"/><ellipse fill="#001213" rx="1" ry="1" transform="matrix(5.80302984 -22.026057 205.17156564 54.0549184 75.528796 678)"/><ellipse fill="#0c0e09" rx="1" ry="1" transform="matrix(-3.71130012 18.72089404 -114.33880096 -22.66695188 770.979328 443.051548)"/><ellipse fill="#0d1612" rx="1" ry="1" transform="matrix(.20816288 17.16632592 -117.78706028 1.42831352 852.127724 566.1811)"/><ellipse fill="#343c00" rx="1" ry="1" transform="matrix(7.91474392 16.08392268 -114.03716724 56.1165952 953.519484 642.792892)"/><ellipse fill="#090d0b" rx="1" ry="1" transform="matrix(-11.36604384 -67.6118668 10.2874666 -1.72939756 555.586612 305.733092)"/><ellipse fill="#737240" rx="1" ry="1" transform="matrix(-276.83406384 14.20972056 -.40783408 -7.94543196 485.297948 627.477244)"/><ellipse fill="#74704b" rx="1" ry="1" transform="matrix(-3.29399428 -32.6480284 58.66220044 -5.9186714 441.17712 417.00006)"/><ellipse fill="#ffd287" rx="1" ry="1" transform="matrix(-5.4793592 -1.75292828 7.8501766 -24.53833276 532.994164 220.723296)"/><ellipse fill="#4d4a27" rx="1" ry="1" transform="matrix(-97.94725596 -.0022856 .00207724 -89.01841596 186.569604 576.216532)"/><ellipse fill="#63411f" rx="1" ry="1" transform="matrix(89.19624364 54.18991356 -14.7229168 24.23382488 619.505864 461.272604)"/><ellipse fill="#605a36" rx="1" ry="1" transform="matrix(280.55610564 6.28594184 -1.085197 48.43484844 739.046404 146.972512)"/><ellipse fill="#050500" rx="1" ry="1" transform="matrix(-9.6183078 -12.90935328 28.63210564 -21.33278092 545.30362 343.608712)"/><ellipse fill="#73481f" rx="1" ry="1" transform="matrix(-16.3976814 -5.38665488 20.50423292 -62.41756464 577.376996 438.510908)"/><ellipse fill="#221000" rx="1" ry="1" transform="matrix(-5.53850784 22.50214244 -53.68956672 -13.21474548 583.873492 506.827248)"/><ellipse rx="1" ry="1" transform="matrix(11.121395 -3.1222574 9.95383132 35.45527324 499.636304 200.516652)"/><ellipse fill="#55562d" rx="1" ry="1" transform="matrix(-2.620849 20.96138608 -91.25265892 -11.40952412 625.251276 585.157108)"/><ellipse fill="#050a08" rx="1" ry="1" transform="matrix(-108.79123148 -56.02922012 5.45846732 -10.59863728 636.882932 388.066532)"/><ellipse fill="#3c3718" rx="1" ry="1" transform="matrix(2.66764648 -229.51095724 35.76594012 .41571384 2 197.186796)"/><ellipse fill="#c69253" rx="1" ry="1" transform="matrix(3.950554 .62699532 -3.31421772 20.88212668 776.976592 504.839492)"/><ellipse fill="#55542d" rx="1" ry="1" transform="matrix(-18.17674292 -41.84045016 185.70822652 -80.67720784 343.059072 566.724576)"/><ellipse fill="#95521b" rx="1" ry="1" transform="matrix(3.5439284 85.79323128 -9.33283692 .38551884 515.83304 400.987884)"/><ellipse fill="#000a00" rx="1" ry="1" transform="matrix(65.7888242 2.11872328 -.75947856 23.58269368 977.542748 678)"/><ellipse fill="#565829" rx="1" ry="1" transform="matrix(-55.11621816 41.64916428 -12.35993588 -16.3564608 453.663516 620.012656)"/><ellipse fill="#6b6640" rx="1" ry="1" transform="matrix(20.51819988 -36.87293368 84.55612008 47.05183988 644.642004 322.060972)"/><ellipse fill="#050a05" rx="1" ry="1" transform="matrix(10.37936028 20.17759836 -26.9916552 13.88451236 731.177344 555.282436)"/><ellipse fill="#2f2e0b" rx="1" ry="1" transform="matrix(-56.949074 -63.4001576 31.34889956 -28.15909092 2 588.026056)"/><ellipse fill="#050000" rx="1" ry="1" transform="matrix(.1831556 18.50558164 -3.99980412 .03958732 555.366432 172.741288)"/><ellipse fill="#f9a344" rx="1" ry="1" transform="matrix(-5.63444032 -.21696224 1.2135146 -31.5145886 504.0772 406.34646)"/><ellipse fill="#163236" rx="1" ry="1" transform="matrix(4.33242452 -15.42626668 48.31676872 13.5696314 659.207044 554.320588)"/><ellipse fill="#5d5733" rx="1" ry="1" transform="matrix(-10.54219632 56.57071548 -112.17419072 -20.90414324 381.26666 128.072424)"/><ellipse fill="#6c673f" rx="1" ry="1" transform="matrix(-207.51345736 -124.111631 18.3373702 -30.65990724 897.284844 426.85634)"/><ellipse fill="#87763d" rx="1" ry="1" transform="matrix(-2.32021868 -19.87118476 38.737544 -4.52311092 427.5544 678)"/><ellipse fill="#323a26" rx="1" ry="1" transform="matrix(-90.78759376 40.524113 -2.5478358 -5.70800608 658.069592 668.758928)"/><ellipse fill="#9e7343" rx="1" ry="1" transform="matrix(12.69041848 12.30376032 -2.7843384 2.87183908 629.05248 446.167468)"/><ellipse fill="#968771" rx="1" ry="1" transform="matrix(2.24411104 22.68976216 -3.98057832 .3936956 555.202204 227.67924)"/><ellipse fill="#202704" rx="1" ry="1" transform="matrix(-59.27993584 17.57412804 -3.23032492 -10.89632752 249.57484 667.698548)"/><ellipse fill="#4c5235" rx="1" ry="1" transform="matrix(-.40249292 3.9796984 -81.33787604 -8.22623128 773.205752 594.25902)"/><ellipse fill="#2a200f" rx="1" ry="1" transform="matrix(-8.85058364 35.15093388 -15.08745364 -3.79883992 563.359124 378.412792)"/><ellipse fill="#5f5833" rx="1" ry="1" transform="matrix(-6.96095864 -35.13645892 93.33755672 -18.491302 401.6842 299.416708)"/><ellipse fill="#5b532b" rx="1" ry="1" transform="matrix(17.743907 129.1853948 -57.72895336 7.92920268 108.112592 393.092704)"/><ellipse fill="#061414" rx="1" ry="1" transform="matrix(23.35275404 -26.18420976 60.64474456 54.08686444 876.748952 503.482816)"/><ellipse fill="#2a2415" rx="1" ry="1" transform="matrix(4.38495736 -48.40416408 17.51024468 1.5862618 665.053636 476.208932)"/><ellipse fill="#462a0f" rx="1" ry="1" transform="matrix(-27.74442948 51.66411256 -3.52400936 -1.89244764 524.31528 262.384844)"/><ellipse fill="#72723e" rx="1" ry="1" transform="matrix(31.15247556 -47.49607692 7.79928992 5.1155212 312.12264 678)"/><ellipse fill="#462612" rx="1" ry="1" transform="matrix(28.49028816 -1.1108446 .34742364 8.91051748 496.05684 308.445328)"/><ellipse fill="#656423" rx="1" ry="1" transform="matrix(-108.33295764 2.91467904 -.30021924 -11.15856604 1001.797264 580.01184)"/><ellipse fill="#202c2c" rx="1" ry="1" transform="matrix(46.45488172 -33.69724976 4.69489556 6.47236256 856.919072 533.359104)"/><ellipse fill="#dc9b4a" rx="1" ry="1" transform="matrix(-5.21404616 -45.9236696 3.9744652 -.45124976 502.859756 427.633308)"/><ellipse fill="#46411e" rx="1" ry="1" transform="matrix(16.36508668 45.809321 -86.25435364 30.81381568 131.002036 591.864508)"/><ellipse fill="#64441f" rx="1" ry="1" transform="matrix(4.55926124 10.81752968 -10.32588848 4.35204936 526.47898 255.956108)"/><ellipse fill="#4a4328" rx="1" ry="1" transform="matrix(-113.08891156 96.168048 -38.321931 -45.0647128 126.2727 44.403304)"/><ellipse fill="#0b0000" rx="1" ry="1" transform="matrix(-1.10035184 15.17898504 -3.98953112 -.28920828 557.547892 169.670092)"/><ellipse fill="#100d08" rx="1" ry="1" transform="matrix(4.737781 -62.81888032 5.74752084 .43347628 541.778088 272.240448)"/><ellipse fill="#6e6641" rx="1" ry="1" transform="matrix(-112.55937404 6.21222408 -2.78226668 -50.41192884 384.473196 423.800592)"/><ellipse fill="#d2b877" rx="1" ry="1" transform="matrix(3.68537832 1.55498772 -4.13355852 9.79668636 555.662044 636.01288)"/><ellipse fill="#5a5621" rx="1" ry="1" transform="matrix(-5.19061556 8.92098292 -158.65627772 -92.3131176 510.484156 678)"/><ellipse fill="#050902" rx="1" ry="1" transform="matrix(7.90504992 10.1566372 -32.3653738 25.19041388 852.852652 571.539428)"/><ellipse fill="#2c2213" rx="1" ry="1" transform="matrix(14.45673492 17.65967752 -4.9054132 4.01571648 599.445764 428.514364)"/><ellipse fill="#312f15" rx="1" ry="1" transform="matrix(-84.69794688 4.59274036 -2.05496188 -37.8969938 2 222.214)"/><ellipse fill="#472f15" rx="1" ry="1" transform="matrix(-10.94694 6.6086788 -14.4754488 -23.97784404 811.713468 465.902672)"/><ellipse fill="#3f481c" rx="1" ry="1" transform="matrix(20.41157132 11.88242568 -25.330172 43.5120426 364.64446 668.87948)"/><ellipse fill="#e7be89" rx="1" ry="1" transform="matrix(6.99692776 7.71678196 -3.02772968 2.7452902 549.786936 199.619832)"/><ellipse fill="#626027" rx="1" ry="1" transform="matrix(12.24375432 -2.67689508 11.48595328 52.53518928 618.187468 613.306792)"/><ellipse fill="#81794e" rx="1" ry="1" transform="matrix(-31.62983476 -8.54725264 9.93568 -36.7678282 787.691448 638.116464)"/><ellipse fill="#000800" rx="1" ry="1" transform="matrix(9.67281068 .65662388 -1.01657408 14.97528336 520.083644 592.821204)"/><ellipse fill="#070601" rx="1" ry="1" transform="matrix(55.01616772 -8.38268068 1.6423202 10.77867168 573.471712 523.406296)"/><ellipse fill="#7e7953" rx="1" ry="1" transform="matrix(40.27149496 -18.13555704 6.47905148 14.38726628 683.838568 630.50782)"/><ellipse fill="#5e5c38" rx="1" ry="1" transform="matrix(-11.33772644 4.65140752 -18.50264676 -45.09988556 772.270904 611.85238)"/><ellipse fill="#3a4115" rx="1" ry="1" transform="matrix(-11.57299584 -16.66262 11.9665838 -8.31137144 542.780428 678)"/><ellipse fill="#8b824d" rx="1" ry="1" transform="matrix(4.93843576 -22.59397992 24.68211044 5.39484488 852.297688 617.543448)"/><ellipse fill="#754e23" rx="1" ry="1" transform="matrix(-2.69799452 -2.9531044 15.6178588 -14.26867856 550.039732 373.865748)"/><ellipse fill="#605938" rx="1" ry="1" transform="matrix(33.03956984 -110.21051404 11.98816232 3.59388332 551.36834 110.089772)"/><ellipse fill="#686540" rx="1" ry="1" transform="matrix(25.92439376 45.82573064 -34.5008406 19.51771124 472.390284 482.645096)"/><ellipse fill="#855c2a" rx="1" ry="1" transform="matrix(-3.76244692 1.35793708 -14.98774292 -41.52665728 490.57046 243.401996)"/><ellipse fill="#522e14" rx="1" ry="1" transform="matrix(4.8789348 -9.85827184 14.21283384 7.03404116 530.79014 484.485496)"/><ellipse fill="#050600" rx="1" ry="1" transform="matrix(15.9574058 -6.69190464 14.11470776 33.65770016 494.388068 199.632912)"/><ellipse fill="#555234" rx="1" ry="1" transform="matrix(-3.90998384 -62.09784592 119.11820692 -7.5002644 678.675812 230.385324)"/><ellipse fill="#887e47" rx="1" ry="1" transform="matrix(-.00108756 5.15098788 -117.0636254 -.02471592 614.501312 627.255564)"/><ellipse fill="#6e6818" rx="1" ry="1" transform="matrix(-4.82906516 -9.83308324 123.09187512 -60.45089528 972.357264 586.119384)"/><ellipse fill="#555033" rx="1" ry="1" transform="matrix(-294.99068976 -26.62068256 4.5709044 -50.6513774 977.5816 44.250188)"/><ellipse fill="#19170e" rx="1" ry="1" transform="matrix(5.20783092 -3.66245404 62.80189464 89.30122972 588.684096 358.952776)"/><ellipse fill="#7e592f" rx="1" ry="1" transform="matrix(-3.84491776 -1.10299932 15.11147884 -52.6767266 582.07738 427.043948)"/><ellipse fill="#000401" rx="1" ry="1" transform="matrix(6.19767604 9.6412068 -19.37877676 12.45729736 495.047076 562.569836)"/><ellipse fill="#635b39" rx="1" ry="1" transform="matrix(196.5937116 9.38753892 -1.71989188 36.01795212 638.156764 119.05368)"/><ellipse fill="#374026" rx="1" ry="1" transform="matrix(21.03324124 7.493368 -7.96246884 22.34996704 686.159712 667.808644)"/><ellipse fill="#444622" rx="1" ry="1" transform="matrix(-.224087 -3.9937182 210.65106244 -11.81960264 688.239368 599.357712)"/><ellipse fill="#716a40" rx="1" ry="1" transform="matrix(-122.31193544 -9.73636312 2.19444996 -27.56752384 810.02244 398.395048)"/><ellipse fill="#5c5833" rx="1" ry="1" transform="matrix(49.0788512 -16.96845696 21.18842176 61.28449992 421.162812 524.275128)"/><ellipse fill="#d69d5b" rx="1" ry="1" transform="matrix(24.60330788 42.202476 -3.45564304 2.01457964 484.711912 371.2786)"/><ellipse fill="#464a00" rx="1" ry="1" transform="matrix(1.98961996 24.18227712 -52.62879352 4.33008428 974.171452 622.479384)"/><ellipse fill="#454035" rx="1" ry="1" transform="matrix(-1.83038032 -3.5566428 17.3989222 -8.95413084 837.657788 551.819408)"/><ellipse fill="#5a5631" rx="1" ry="1" transform="matrix(-40.95739072 -25.01751888 11.6312444 -19.04207304 582.047464 568.520848)"/><ellipse fill="#13130b" rx="1" ry="1" transform="matrix(13.56073616 28.07765944 -15.75526528 7.6093592 594.810308 523.096628)"/><ellipse fill="#47462a" rx="1" ry="1" transform="matrix(119.20350916 -7.69443484 1.98893396 30.81290716 1022 225.008208)"/><ellipse fill="#33230f" rx="1" ry="1" transform="matrix(8.84121912 -25.56962788 18.38741568 6.35782312 740.688756 472.225756)"/><ellipse fill="#504a22" rx="1" ry="1" transform="matrix(-37.1512062 -6.32182676 21.9629016 -129.06843472 14.02632 405.052928)"/><ellipse fill="#8a8151" rx="1" ry="1" transform="matrix(-17.13729712 -34.75556544 8.60941384 -4.24513544 485.125852 431.86008)"/><ellipse fill="#4d4b29" rx="1" ry="1" transform="matrix(-40.60157156 1.51685112 -2.59033632 -69.33556216 319.555996 566.418116)"/><ellipse fill="#674d2d" rx="1" ry="1" transform="matrix(14.53641464 11.158024 -5.71250332 7.44211676 689.99594 498.426432)"/><ellipse fill="#4b4726" rx="1" ry="1" transform="matrix(9.60349876 56.36537752 -122.66491652 20.89957392 226.374864 233.02028)"/><ellipse fill="#5f5a35" rx="1" ry="1" transform="matrix(-3.017581 45.15979076 -118.59963372 -7.92483744 978.72838 315.582076)"/><ellipse fill="#5f5731" rx="1" ry="1" transform="matrix(28.10271732 43.872992 -149.52752992 95.77942408 220.302092 375.688608)"/><ellipse fill="#6c653e" rx="1" ry="1" transform="matrix(71.4833902 -9.20995688 4.47045892 34.6976172 650.91348 324.373916)"/><ellipse fill="#6f4d27" rx="1" ry="1" transform="matrix(2.8345694 -2.82227148 41.70977188 41.89151988 625.272904 472.080988)"/><ellipse fill="#082728" rx="1" ry="1" transform="matrix(-6.95042884 -23.83247076 63.10207988 -18.40289748 109.761208 678)"/><ellipse fill="#837a47" rx="1" ry="1" transform="matrix(20.0644088 19.17072908 -10.96918628 11.4805356 519.10452 637.834632)"/><ellipse fill="#ffd38f" rx="1" ry="1" transform="matrix(-3.57682968 15.03293916 -3.8913672 -.925884 533.531056 210.682316)"/><ellipse fill="#b06e32" rx="1" ry="1" transform="matrix(3.8152624 -1.20157092 17.22731768 54.70067248 523.588032 421.27754)"/><ellipse fill="#000c0c" rx="1" ry="1" transform="matrix(40.4995862 -10.98013756 6.46139704 23.83247976 6.873896 678)"/><ellipse fill="#5d340f" rx="1" ry="1" transform="matrix(-40.37028196 -.36367212 .04525592 -5.02374016 565.015948 486.3055)"/><ellipse fill="#080701" rx="1" ry="1" transform="matrix(38.3641866 -8.04361076 2.42492172 11.56571988 851.539044 472.3308)"/><ellipse fill="#9f945b" rx="1" ry="1" transform="matrix(-13.43173328 18.51797208 -3.23792624 -2.34858124 789.827132 670.96654)"/><ellipse fill="#89592a" rx="1" ry="1" transform="matrix(-9.36874948 -5.80544312 26.73184132 -43.139502 564.65396 442.583052)"/><ellipse fill="#766b30" rx="1" ry="1" transform="matrix(85.16547332 -2.2779344 .25030336 9.35812916 849.4983 645.940228)"/><ellipse fill="#646330" rx="1" ry="1" transform="matrix(-58.24527104 11.59486956 -2.24439536 -11.27441884 605.13012 656.363012)"/><ellipse fill="#866236" rx="1" ry="1" transform="matrix(-22.28063352 6.0277076 -1.04459132 -3.86119528 474.741692 298.102724)"/><ellipse fill="#2d2c09" rx="1" ry="1" transform="matrix(3.81901108 13.28590436 -8.66365888 2.49035432 880.060988 589.673972)"/><ellipse fill="#221d10" rx="1" ry="1" transform="matrix(-17.1284436 10.07687096 -7.56460412 -12.85814768 749.082824 489.351812)"/><ellipse fill="#030d0d" rx="1" ry="1" transform="matrix(89.27423248 15.44160436 -.68174972 3.941474 740.79992 426.037896)"/><ellipse fill="#5a582f" rx="1" ry="1" transform="matrix(-8.18010348 -28.38133108 46.07227796 -13.27901076 597.094328 587.32122)"/><ellipse fill="#846737" rx="1" ry="1" transform="matrix(-6.94691792 -3.31287648 15.49733912 -32.4970592 456.472172 380.26086)"/><ellipse fill="#daa254" rx="1" ry="1" transform="matrix(3.99857456 -.10677844 .50721224 18.99378088 528.630872 230.368304)"/><ellipse fill="#4a4627" rx="1" ry="1" transform="matrix(4.66893196 -20.38771396 277.48774888 63.54667456 2 508.037212)"/><ellipse fill="#3f4630" rx="1" ry="1" transform="matrix(.9911362 7.31801028 -29.27005528 3.9642758 272.31584 678)"/><ellipse fill="#9c6f3b" rx="1" ry="1" transform="matrix(-5.28542132 -2.42934504 7.49038312 -16.29650372 768.26116 510.955008)"/><ellipse fill="#9f773e" rx="1" ry="1" transform="matrix(3.8688264 -1.01596372 3.05884016 11.64817356 488.852284 246.787272)"/><ellipse fill="#474b18" rx="1" ry="1" transform="matrix(1.11241388 5.4998192 -79.41090384 16.06194468 845.5693 676.35908)"/><ellipse fill="#643f15" rx="1" ry="1" transform="matrix(11.05169428 22.00607696 -5.771037 2.89827836 516.00354 310.806624)"/><ellipse fill="#4c361c" rx="1" ry="1" transform="matrix(-1.23680816 -3.82900824 10.34303952 -3.34090572 647.512196 408.298232)"/><ellipse fill="#100a00" rx="1" ry="1" transform="matrix(-2.74542876 29.75736908 -8.65982192 -.7989592 598.599112 512.724948)"/><ellipse fill="#6e6b3c" rx="1" ry="1" transform="matrix(26.42226608 11.51150812 -1.59765472 3.66708324 403.2718 641.390588)"/><ellipse fill="#412a13" rx="1" ry="1" transform="matrix(-17.5337892 30.99149604 -3.48143992 -1.969664 554.583548 414.36258)"/><ellipse fill="#6e6740" rx="1" ry="1" transform="matrix(-13.70552296 12.80569364 -26.57877036 -28.446405 651.074308 354.742188)"/><ellipse fill="#515530" rx="1" ry="1" transform="matrix(29.59499164 40.39839464 -15.70755816 11.50701796 648.907656 678.507316)"/><ellipse fill="#46351e" rx="1" ry="1" transform="matrix(-1.7888276 -11.94046944 33.97191192 -5.08940568 721.926416 481.823832)"/><ellipse fill="#5e5a33" rx="1" ry="1" transform="matrix(-10.94271056 24.2957892 -38.916914 -17.5279972 437.212748 155.702564)"/><ellipse fill="#847b44" rx="1" ry="1" transform="matrix(-3.6625592 -1.6079988 15.3754996 -35.02096984 480.564124 655.085264)"/><ellipse fill="#030602" rx="1" ry="1" transform="matrix(3.39138656 -26.26628856 7.38473956 .9534848 491.597752 185.219884)"/><ellipse fill="#5c3614" rx="1" ry="1" transform="matrix(4.1299764 -3.29677536 37.98620432 47.58653864 506.599148 354.152228)"/><ellipse fill="#5e5935" rx="1" ry="1" transform="matrix(-82.6028766 5.5612068 -3.76784796 -55.96538496 814.614608 168.078)"/><ellipse fill="#58541a" rx="1" ry="1" transform="matrix(9.19120012 3.53554232 -5.00504808 13.01141224 496.480132 656.508716)"/><ellipse fill="#0d1a00" rx="1" ry="1" transform="matrix(3.9139696 -7.10697828 9.99965172 5.5070286 272.78036 656.983904)"/><ellipse fill="#132c2f" rx="1" ry="1" transform="matrix(-4.15301584 -4.43029588 9.5681394 -8.96929584 190.89298 657.093688)"/><ellipse fill="#844f1e" rx="1" ry="1" transform="matrix(-24.16640048 30.85968196 -4.69527556 -3.6768982 531.731468 386.910648)"/><ellipse fill="#1f0d00" rx="1" ry="1" transform="matrix(-23.27926016 -2.5485792 .43531316 -3.97624224 518.895564 291.50792)"/><ellipse fill="#746e3e" rx="1" ry="1" transform="matrix(-20.43414824 22.8374926 -2.9809262 -2.66722308 464.853088 616.423764)"/><ellipse fill="#4c4729" rx="1" ry="1" transform="matrix(.31854536 26.83644552 -88.26392628 1.04768208 389.064508 225.569344)"/><ellipse fill="#4f502d" rx="1" ry="1" transform="matrix(-2.75044644 -8.77376488 38.6209298 -12.10709436 989.798552 565.12584)"/><ellipse fill="#635e3a" rx="1" ry="1" transform="matrix(124.53491804 22.22140772 -3.45082008 19.33935056 686.606556 284.182172)"/><ellipse fill="#473e31" rx="1" ry="1" transform="matrix(5.78394656 2.68316772 -9.68867696 20.88530996 790.230264 523.396256)"/><ellipse fill="#9f9059" rx="1" ry="1" transform="matrix(27.2093708 -3.95865104 .57589108 3.9583266 781.842796 663.456824)"/><ellipse fill="#513f22" rx="1" ry="1" transform="matrix(8.14481884 .94779644 -3.24075832 27.84921776 796.931508 451.271884)"/><ellipse fill="#867f50" rx="1" ry="1" transform="matrix(84.51481268 -14.77652068 .6889074 3.94022924 728.035896 614.126336)"/><ellipse fill="#6d6828" rx="1" ry="1" transform="matrix(49.7586674 .19256208 -.0392012 10.12971616 1002.108884 581.51976)"/><ellipse fill="#977f37" rx="1" ry="1" transform="matrix(-19.77105884 13.70987708 -3.33137812 -4.80419136 445.953832 669.980632)"/><ellipse fill="#ca9b5b" rx="1" ry="1" transform="matrix(-18.25353548 -.3130662 .15836324 -9.23347404 482.351316 380.944992)"/><ellipse fill="#0c0304" rx="1" ry="1" transform="matrix(-7.03272252 2.14417396 -1.16652856 -3.8261222 479.0902 313.53126)"/><ellipse fill="#665f37" rx="1" ry="1" transform="matrix(-35.47820196 39.771646 -20.13246352 -17.95911604 433.300616 320.723372)"/><ellipse fill="#141d1b" rx="1" ry="1" transform="matrix(.80457888 11.97350996 -73.07919964 4.910672 758.635204 569.430004)"/><ellipse fill="#564f32" rx="1" ry="1" transform="matrix(-21.61719036 -42.72066388 240.61888616 -121.75616648 392.06006 24.974036)"/><ellipse fill="#090802" rx="1" ry="1" transform="matrix(10.80765404 -9.46223724 23.4273996 26.75849524 496.194948 203.26254)"/><ellipse fill="#723c0a" rx="1" ry="1" transform="matrix(-3.99998348 .01150296 -.03292296 -11.44847668 513.615776 435.366132)"/><ellipse fill="#5a5800" rx="1" ry="1" transform="matrix(6.51715408 30.63429996 -11.32051208 2.4083306 956.723012 605.416636)"/><ellipse fill="#845f37" rx="1" ry="1" transform="matrix(-2.0749576 3.41972964 -17.89961052 -10.86078044 639.408804 447.405104)"/><ellipse fill="#0f0a02" rx="1" ry="1" transform="matrix(-12.0842544 -5.279922 3.0693294 -7.0248306 545.596492 253.567984)"/><ellipse fill="#422c16" rx="1" ry="1" transform="matrix(3.31167832 -6.96644548 35.23502328 16.74987096 705.5159 519.027012)"/><ellipse fill="#635f3b" rx="1" ry="1" transform="matrix(-86.73513064 -8.48122332 4.45308776 -45.54049976 1001.28414 484.450308)"/><ellipse fill="#51533b" rx="1" ry="1" transform="matrix(-11.0530972 -11.25736456 15.8218984 -15.53480652 729.935824 641.706984)"/><ellipse fill="#090c08" rx="1" ry="1" transform="matrix(4.3371188 -17.89764752 11.33769896 2.74745312 831.60114 579.09558)"/><ellipse fill="#ad733a" rx="1" ry="1" transform="matrix(19.21576784 12.70018624 -4.06335136 6.14797412 543.447808 455.519632)"/><ellipse fill="#55502c" rx="1" ry="1" transform="matrix(117.30485728 -41.76640132 10.12052048 28.42443148 214.660408 299.097544)"/><ellipse fill="#615936" rx="1" ry="1" transform="matrix(129.41608364 56.5502854 -17.58811512 40.2506364 252.121724 444.165336)"/><ellipse fill="#23180d" rx="1" ry="1" transform="matrix(13.42109624 1.94525316 -1.0937626 7.54631504 487.551464 309.953424)"/><ellipse fill="#d7ac79" rx="1" ry="1" transform="matrix(-5.34012448 8.44793368 -6.98345628 -4.41439612 547.10588 197.769388)"/><ellipse fill="#15110a" rx="1" ry="1" transform="matrix(6.00797712 14.22169316 -3.68469532 1.55660544 608.547748 434.821724)"/><ellipse fill="#000e13" rx="1" ry="1" transform="matrix(3.9962894 -.1722528 .22168816 5.14319648 469.544216 572.627376)"/><ellipse fill="#6d6f43" rx="1" ry="1" transform="matrix(-3.62546528 1.68997084 -11.80351008 -25.32186652 321.457128 639.561872)"/><ellipse fill="#7d753c" rx="1" ry="1" transform="matrix(21.7012596 37.22165812 -3.45557512 2.01469616 578.02362 627.729472)"/><ellipse fill="#4f4d2e" rx="1" ry="1" transform="matrix(4.95427508 -41.15844124 53.5645476 6.44760824 677.77 226.10106)"/><ellipse fill="#1b1a11" rx="1" ry="1" transform="matrix(-8.51449476 -1.85415004 4.94894252 -22.72617844 672.298076 462.896596)"/><ellipse fill="#090b08" rx="1" ry="1" transform="matrix(-6.01937268 -5.37951576 13.74380276 -15.37853488 625.546464 398.517892)"/><ellipse fill="#0b0a03" rx="1" ry="1" transform="matrix(30.4555794 57.16199784 -4.7744814 2.54381588 526.514236 285.89654)"/><ellipse fill="#332716" rx="1" ry="1" transform="matrix(5.55392144 -3.51383456 7.84899872 12.40602584 613.61348 391.513608)"/><ellipse fill="#535639" rx="1" ry="1" transform="matrix(-5.59549792 -22.71205252 5.44888728 -1.34242548 174.119768 647.633892)"/><ellipse fill="#182a1d" rx="1" ry="1" transform="matrix(-2.4017348 9.05598588 -10.81093248 -2.86716356 525.223392 607.275304)"/><ellipse fill="#c78636" rx="1" ry="1" transform="matrix(3.459648 -2.00769416 7.20717628 12.41936824 458.5758 366.897768)"/><ellipse fill="#2a370b" rx="1" ry="1" transform="matrix(-11.83239468 14.11990064 -19.53515336 -16.370345 1007.002528 630.800776)"/><ellipse fill="#4b4520" rx="1" ry="1" transform="matrix(-57.01492712 14.07996908 -6.99620188 -28.33017168 145.27072 620.64622)"/><ellipse fill="#93683e" rx="1" ry="1" transform="matrix(4.59004532 10.09308864 -3.64115628 1.65589276 616.49744 429.564388)"/><ellipse fill="#746c24" rx="1" ry="1" transform="matrix(25.27591972 -41.76703868 8.69497188 5.26188636 881.972032 615.52378)"/><ellipse fill="#001006" rx="1" ry="1" transform="matrix(-2.27126692 -17.9304366 305.05000368 -38.64099884 1022 678)"/><ellipse fill="#0c292e" rx="1" ry="1" transform="matrix(5.0240416 3.77820244 -11.99906356 15.95568144 908.443076 549.341256)"/><ellipse fill="#5b5537" rx="1" ry="1" transform="matrix(-17.0186996 66.96843608 -205.46616924 -52.21515116 662.044232 33.067728)"/><ellipse fill="#1c2612" rx="1" ry="1" transform="matrix(-3.1137394 -2.51090164 8.42611132 -10.44912088 683.039388 662.962016)"/><ellipse fill="#a18b69" rx="1" ry="1" transform="matrix(3.37259728 16.14327064 -3.91546508 .81800568 554.712524 213.53178)"/><ellipse fill="#2b1f0f" rx="1" ry="1" transform="matrix(-8.91911556 -6.7073504 14.41286204 -19.16553848 559.586556 385.879116)"/><ellipse fill="#564227" rx="1" ry="1" transform="matrix(-2.43435976 3.1739396 -11.8739556 -9.10712972 651.795012 433.559968)"/><ellipse fill="#ac7533" rx="1" ry="1" transform="matrix(-3.00447768 -2.6406654 2.6406654 -3.00447768 501.237932 276.707924)"/><ellipse fill="#734f28" rx="1" ry="1" transform="matrix(-4.02557956 3.51218976 -5.80685768 -6.65566764 757.10754 513.595016)"/><ellipse fill="#080802" rx="1" ry="1" transform="matrix(-3.23033404 -10.46995292 22.72599824 -7.01173788 540.604492 348.397736)"/><ellipse fill="#646134" rx="1" ry="1" transform="matrix(8.01845792 1.51852796 -9.08558876 47.97568024 418.313416 670.724736)"/><ellipse fill="#3b3f20" rx="1" ry="1" transform="matrix(-24.86218396 -89.8173852 3.855034 -1.06710484 353.739776 678)"/><ellipse fill="#4a5037" rx="1" ry="1" transform="matrix(-.67598844 3.9424662 -100.14783496 -17.17168272 698.758984 584.1232)"/><ellipse fill="#1f2726" rx="1" ry="1" transform="matrix(21.21773576 -17.45555164 6.48268016 7.87988816 812.145592 518.486296)"/><ellipse fill="#7a5b39" rx="1" ry="1" transform="matrix(2.5537912 12.58983848 -3.92016292 .79518712 691.397472 490.621304)"/><ellipse fill="#09100c" rx="1" ry="1" transform="matrix(-26.50473992 -15.95433476 6.0566172 -10.06178356 759.86616 433.622632)"/><ellipse fill="#1a2900" rx="1" ry="1" transform="matrix(-1.5076176 -9.61121996 40.25925004 -6.31507284 959.225116 654.454012)"/><ellipse fill="#474221" rx="1" ry="1" transform="matrix(9.21869032 -23.10095712 114.17782308 45.56391272 192.386924 209.547968)"/><ellipse fill="#37220c" rx="1" ry="1" transform="matrix(73.01886704 -2.1752338 .11910724 3.99822628 603.999244 496.388056)"/><ellipse fill="#191c16" rx="1" ry="1" transform="matrix(-4.76207176 -5.17912124 29.92805588 -27.51809496 491.964188 547.144028)"/><ellipse fill="#63633f" rx="1" ry="1" transform="matrix(73.0011366 -32.56013924 3.5708858 8.006069 688.921956 678)"/><ellipse fill="#07110b" rx="1" ry="1" transform="matrix(-11.60856624 -16.36026008 11.7059198 -8.3060382 521.564636 572.280396)"/><ellipse fill="#383f1e" rx="1" ry="1" transform="matrix(.14297644 -3.99744392 67.63250152 2.4190094 599.458408 679.36108)"/><ellipse fill="#291400" rx="1" ry="1" transform="matrix(2.42758692 18.93604676 -3.9675296 .50863432 557.701636 180.82356)"/><ellipse fill="#5d5f23" rx="1" ry="1" transform="matrix(2.92096592 -6.9374884 11.6345418 4.8986172 831.704368 653.557776)"/><ellipse fill="#5e5a24" rx="1" ry="1" transform="matrix(-6.47570648 26.99268604 -18.3349638 -4.39866724 260.176092 617.474988)"/><ellipse rx="1" ry="1" transform="matrix(.6435864 -5.55131776 31.91427296 3.699949 864.463216 573.925096)"/><ellipse fill="#291904" rx="1" ry="1" transform="matrix(8.5515352 2.78105868 -2.97704188 9.154168 556.10622 169.79682)"/><ellipse fill="#827a3e" rx="1" ry="1" transform="matrix(-1.24636312 4.02998372 -36.90829728 -11.41472124 563.478152 650.553832)"/><ellipse fill="#0a0c07" rx="1" ry="1" transform="matrix(17.041583 32.79620196 -5.89117528 3.0611762 571.642492 344.758012)"/><ellipse fill="#9d5410" rx="1" ry="1" transform="matrix(3.681037 -1.56523692 5.37808672 12.64788484 463.198832 364.078936)"/><ellipse fill="#80592f" rx="1" ry="1" transform="matrix(-12.98788952 -6.42244632 2.4949542 -5.045459 624.402012 466.486788)"/><ellipse fill="#8a7c49" rx="1" ry="1" transform="matrix(-2.90289052 -9.72382936 6.64645444 -1.98419048 515.518064 662.581332)"/><ellipse fill="#6e6640" rx="1" ry="1" transform="matrix(-58.6235428 36.03599412 -24.01736288 -39.07157092 401.428244 415.779148)"/><ellipse fill="#59552f" rx="1" ry="1" transform="matrix(130.15716056 -35.15432236 9.0183038 33.38982904 981.931248 152.821828)"/><ellipse fill="#726a40" rx="1" ry="1" transform="matrix(-10.7431474 -15.06366384 12.32793692 -8.79207372 722.620744 396.64952)"/><ellipse fill="#77744c" rx="1" ry="1" transform="matrix(-4.20263808 -26.12616192 15.72575364 -2.52963492 759.931352 623.832852)"/><ellipse fill="#030c0a" rx="1" ry="1" transform="matrix(16.93511916 5.18520596 -3.98445424 13.01340928 675.02866 404.664944)"/><ellipse fill="#9d7342" rx="1" ry="1" transform="matrix(6.88760516 -25.65667156 3.86321648 1.03709128 781.39752 499.764552)"/><ellipse fill="#422c14" rx="1" ry="1" transform="matrix(-6.12641432 -.23312012 .95810656 -25.17911384 496.33086 328.683112)"/><ellipse fill="#c29250" rx="1" ry="1" transform="matrix(-3.56712516 1.80986692 -9.79208216 -19.29953108 501.0224 445.258124)"/><ellipse fill="#0d0a01" rx="1" ry="1" transform="matrix(-3.50646544 -8.6147272 18.61625232 -7.57740132 557.806448 529.437188)"/><ellipse fill="#6c6a44" rx="1" ry="1" transform="matrix(-7.76875256 .83607204 -2.94615252 -27.37554812 485.32252 414.795464)"/><ellipse fill="#8c8357" rx="1" ry="1" transform="matrix(-.126653 3.99799436 -35.99001732 -1.14013268 833.164328 636.280424)"/><ellipse fill="#3a3d11" rx="1" ry="1" transform="matrix(-2.22041452 -8.06581508 14.2810548 -3.93138956 386.920388 655.921324)"/><ellipse fill="#656240" rx="1" ry="1" transform="matrix(-18.82030248 -2.4354148 .74794084 -5.7799078 514.24798 503.816912)"/><ellipse fill="#606037" rx="1" ry="1" transform="matrix(-.8530446 6.85925952 -25.467308 -3.16721492 358.262424 642.184132)"/><ellipse fill="#635c37" rx="1" ry="1" transform="matrix(25.03867544 13.5208524 -60.23544388 111.54738508 285.505652 409.847356)"/><ellipse fill="#0c0900" rx="1" ry="1" transform="matrix(3.95484004 -.59936652 4.85942464 32.06426508 740.477336 554.654916)"/><ellipse fill="#110e06" rx="1" ry="1" transform="matrix(-3.904804 6.9216304 -30.37771252 -17.13743824 709.175716 543.947736)"/><ellipse fill="#a67c42" rx="1" ry="1" transform="matrix(3.90611168 1.15207948 -10.07682248 34.16534544 460.923976 333.202912)"/><ellipse fill="#203423" rx="1" ry="1" transform="matrix(-20.34571216 -1.39716104 .483067 -7.03450916 943.400124 567.975776)"/><ellipse fill="#151409" rx="1" ry="1" transform="matrix(3.9874596 .31648996 -1.7169516 21.6318886 576.725368 384.98262)"/><ellipse fill="#444512" rx="1" ry="1" transform="matrix(-13.77840312 5.4306486 -1.8731276 -4.75241708 446.10838 646.841492)"/><ellipse fill="#2d1f0d" rx="1" ry="1" transform="matrix(2.5028344 3.12022752 -20.15816448 16.16950916 810.545796 480.437012)"/><ellipse fill="#58562f" rx="1" ry="1" transform="matrix(-10.48410936 12.95282516 -41.63952304 -33.7033278 597.127732 571.653728)"/><ellipse fill="#031112" rx="1" ry="1" transform="matrix(-20.5657852 -33.91542876 6.89093396 -4.17855452 914.990692 530.035048)"/><ellipse fill="#403d1e" rx="1" ry="1" transform="matrix(-13.29647312 11.80921972 -59.90567908 -67.45020172 35.823164 560.439212)"/><ellipse fill="#716941" rx="1" ry="1" transform="matrix(-7.7839586 22.00366548 -108.96364432 -38.54669104 799.035616 401.139)"/><ellipse fill="#7a723b" rx="1" ry="1" transform="matrix(2.2901426 3.27951932 -47.65222572 33.2763374 839.190544 669.234248)"/><ellipse fill="#827a3e" rx="1" ry="1" transform="matrix(-13.55096876 -27.17270928 4.4100356 -2.1992748 587.495748 634.18366)"/><ellipse fill="#676500" rx="1" ry="1" transform="matrix(-15.61685208 17.85248316 -6.37836568 -5.5796156 951.679104 602.124728)"/><ellipse fill="#030a08" rx="1" ry="1" transform="matrix(9.53738556 -7.53889336 25.89338116 32.7574814 866.555952 479.444464)"/><ellipse fill="#8d8343" rx="1" ry="1" transform="matrix(-1.9441692 -12.9839424 9.78902448 -1.4657736 638.79144 623.126516)"/><ellipse fill="#575029" rx="1" ry="1" transform="matrix(14.00803276 -30.62415884 107.34289168 49.10054024 94.873904 460.751652)"/><ellipse fill="#343913" rx="1" ry="1" transform="matrix(4.28370368 2.61863148 -16.71338692 27.34069216 344.7255 678)"/><ellipse fill="#3f301a" rx="1" ry="1" transform="matrix(3.99957092 -.05858772 .32411308 22.12603024 652.411048 421.139292)"/><ellipse fill="#4f4a3c" rx="1" ry="1" transform="matrix(-8.94703652 6.20744372 -2.2801516 -3.2864736 843.535112 545.28998)"/></g></svg>