<svg xmlns="http://www.w3.org/2000/svg" version="1.1" width="1024" height="680">
<rect x="0" y="0" width="1024" height="680" fill="#e3ad90" />
<g transform="scale(4.000000) translate(0.5 0.5)">
<g transform="translate(181.157844 82.518230) rotate(80.325684) scale(38.596908 32.375691)"><ellipse fill="#001645" fill-opacity="0.501961" cx="0" cy="0" rx="1" ry="1" /></g>
<g transform="translate(118.869223 27.339251) rotate(174.953875) scale(142.139750 49.517588)"><ellipse fill="#fedac5" fill-opacity="0.501961" cx="0" cy="0" rx="1" ry="1" /></g>
<g transform="translate(184.780361 98.575102) rotate(359.702755) scale(19.779715 20.379773)"><ellipse fill="#000823" fill-opacity="0.501961" cx="0" cy="0" rx="1" ry="1" /></g>
<g transform="translate(239.954592 68.110929) rotate(130.895657) scale(50.751197 16.789618)"><ellipse fill="#ffd5bd" fill-opacity="0.501961" cx="0" cy="0" rx="1" ry="1" /></g>
<g transform="translate(128.364462 134.482819) rotate(100.735287) scale(29.053963 133.778058)"><ellipse fill="#fca671" fill-opacity="0.501961" cx="0" cy="0" rx="1" ry="1" /></g>
<g transform="translate(171.368255 75.759248) rotate(316.916322) scale(8.110749 20.573427)"><ellipse fill="#e8a88f" fill-opacity="0.501961" cx="0" cy="0" rx="1" ry="1" /></g>
<g transform="translate(154.675982 93.598235) rotate(127.083764) scale(17.835823 7.543585)"><ellipse fill="#561c14" fill-opacity="0.501961" cx="0" cy="0" rx="1" ry="1" /></g>
<g transform="translate(29.819731 169.000000) rotate(16.473392) scale(246.838124 31.896792)"><ellipse fill="#f59761" fill-opacity="0.501961" cx="0" cy="0" rx="1" ry="1" /></g>
<g transform="translate(204.241277 72.031342) rotate(163.082129) scale(4.643468 16.952855)"><ellipse fill="#00094b" fill-opacity="0.501961" cx="0" cy="0" rx="1" ry="1" /></g>
<g transform="translate(56.358399 81.358130) rotate(295.914573) scale(42.053206 82.523951)"><ellipse fill="#f6b68d" fill-opacity="0.501961" cx="0" cy="0" rx="1" ry="1" /></g>
<g transform="translate(168.255548 48.510400) rotate(337.708064) scale(11.407180 3.526216)"><ellipse fill="#054fbc" fill-opacity="0.501961" cx="0" cy="0" rx="1" ry="1" /></g>
<g transform="translate(216.724138 115.402172) rotate(266.452982) scale(29.984072 16.328184)"><ellipse fill="#e28f71" fill-opacity="0.501961" cx="0" cy="0" rx="1" ry="1" /></g>
<g transform="translate(161.927325 84.714928) rotate(133.624159) scale(4.084523 15.299979)"><ellipse fill="#000a2c" fill-opacity="0.501961" cx="0" cy="0" rx="1" ry="1" /></g>
<g transform="translate(188.249600 100.555351) rotate(49.626017) scale(8.732326 22.248823)"><ellipse fill="#00173d" fill-opacity="0.501961" cx="0" cy="0" rx="1" ry="1" /></g>
<g transform="translate(150.865888 103.422414) rotate(164.743703) scale(18.183425 9.376438)"><ellipse fill="#c36949" fill-opacity="0.501961" cx="0" cy="0" rx="1" ry="1" /></g>
<g transform="translate(221.614826 35.761615) rotate(18.423279) scale(108.969709 20.345855)"><ellipse fill="#f4d3bf" fill-opacity="0.501961" cx="0" cy="0" rx="1" ry="1" /></g>
<g transform="translate(162.160539 105.449794) rotate(120.171254) scale(2.381288 22.396732)"><ellipse fill="#212032" fill-opacity="0.501961" cx="0" cy="0" rx="1" ry="1" /></g>
<g transform="translate(179.872983 46.330002) rotate(8.057885) scale(12.376952 1.619048)"><ellipse fill="#0036b1" fill-opacity="0.501961" cx="0" cy="0" rx="1" ry="1" /></g>
<g transform="translate(189.569625 72.056083) rotate(143.215983) scale(10.303501 16.418855)"><ellipse fill="#a27567" fill-opacity="0.501961" cx="0" cy="0" rx="1" ry="1" /></g>
<g transform="translate(206.567031 73.912263) rotate(176.768710) scale(5.783983 13.732818)"><ellipse fill="#002452" fill-opacity="0.501961" cx="0" cy="0" rx="1" ry="1" /></g>
<g transform="translate(188.183913 83.245113) rotate(33.570606) scale(4.113742 11.896336)"><ellipse fill="#542614" fill-opacity="0.501961" cx="0" cy="0" rx="1" ry="1" /></g>
<g transform="translate(157.926002 96.992680) rotate(301.810949) scale(1.985982 12.178750)"><ellipse fill="#f9aa8f" fill-opacity="0.501961" cx="0" cy="0" rx="1" ry="1" /></g>
<g transform="translate(234.950303 93.237811) rotate(93.216765) scale(12.567625 29.721524)"><ellipse fill="#f6c0a5" fill-opacity="0.501961" cx="0" cy="0" rx="1" ry="1" /></g>
<g transform="translate(167.209775 65.758543) rotate(96.297189) scale(16.763977 8.788948)"><ellipse fill="#cdaca9" fill-opacity="0.501961" cx="0" cy="0" rx="1" ry="1" /></g>
<g transform="translate(157.862888 61.128608) rotate(121.299303) scale(8.580924 6.755100)"><ellipse fill="#676f8d" fill-opacity="0.501961" cx="0" cy="0" rx="1" ry="1" /></g>
<g transform="translate(159.584086 114.656555) rotate(202.915361) scale(21.882742 6.328693)"><ellipse fill="#ef8953" fill-opacity="0.501961" cx="0" cy="0" rx="1" ry="1" /></g>
<g transform="translate(130.938421 72.473791) rotate(26.423084) scale(26.896355 3.552231)"><ellipse fill="#fbc8a8" fill-opacity="0.501961" cx="0" cy="0" rx="1" ry="1" /></g>
<g transform="translate(165.821874 93.573128) rotate(201.465522) scale(22.294715 3.174851)"><ellipse fill="#062844" fill-opacity="0.501961" cx="0" cy="0" rx="1" ry="1" /></g>
<g transform="translate(204.694279 114.680198) rotate(324.358632) scale(11.540109 5.942994)"><ellipse fill="#b4604a" fill-opacity="0.501961" cx="0" cy="0" rx="1" ry="1" /></g>
<g transform="translate(191.540799 108.428881) rotate(121.379324) scale(9.700570 9.097423)"><ellipse fill="#00194f" fill-opacity="0.501961" cx="0" cy="0" rx="1" ry="1" /></g>
<g transform="translate(162.762761 97.768067) rotate(88.801359) scale(3.520347 4.243407)"><ellipse fill="#e3cdb8" fill-opacity="0.501961" cx="0" cy="0" rx="1" ry="1" /></g>
<g transform="translate(176.329544 102.471222) rotate(13.772468) scale(4.628410 2.029965)"><ellipse fill="#b99984" fill-opacity="0.501961" cx="0" cy="0" rx="1" ry="1" /></g>
<g transform="translate(178.609481 75.279022) rotate(60.107507) scale(3.207104 14.225845)"><ellipse fill="#cda6a5" fill-opacity="0.501961" cx="0" cy="0" rx="1" ry="1" /></g>
<g transform="translate(134.803412 78.005989) rotate(156.038603) scale(21.820071 6.836481)"><ellipse fill="#f2c1a4" fill-opacity="0.501961" cx="0" cy="0" rx="1" ry="1" /></g>
<g transform="translate(194.192753 72.677918) rotate(9.604374) scale(1.000000 16.905633)"><ellipse fill="#231e22" fill-opacity="0.501961" cx="0" cy="0" rx="1" ry="1" /></g>
<g transform="translate(155.793694 76.486752) rotate(77.433424) scale(15.284556 1.000000)"><ellipse fill="#001242" fill-opacity="0.501961" cx="0" cy="0" rx="1" ry="1" /></g>
<g transform="translate(239.139234 63.298863) rotate(195.572453) scale(28.390265 31.755473)"><ellipse fill="#f3c9b1" fill-opacity="0.501961" cx="0" cy="0" rx="1" ry="1" /></g>
<g transform="translate(198.077509 83.458692) rotate(249.764581) scale(3.486591 4.019887)"><ellipse fill="#e1a769" fill-opacity="0.501961" cx="0" cy="0" rx="1" ry="1" /></g>
<g transform="translate(117.635111 15.412787) rotate(141.051911) scale(27.333458 56.813276)"><ellipse fill="#f5cfb7" fill-opacity="0.501961" cx="0" cy="0" rx="1" ry="1" /></g>
<g transform="translate(193.245424 92.941639) rotate(327.859845) scale(17.407422 3.554528)"><ellipse fill="#000e23" fill-opacity="0.501961" cx="0" cy="0" rx="1" ry="1" /></g>
<g transform="translate(173.657497 57.819860) rotate(378.821350) scale(8.249191 11.689725)"><ellipse fill="#d2b0b3" fill-opacity="0.501961" cx="0" cy="0" rx="1" ry="1" /></g>
<g transform="translate(239.947605 144.644886) rotate(3.541331) scale(62.964422 30.248157)"><ellipse fill="#eaa07c" fill-opacity="0.501961" cx="0" cy="0" rx="1" ry="1" /></g>
<g transform="translate(24.558553 21.066676) rotate(206.395158) scale(140.271430 14.813497)"><ellipse fill="#f4c0a3" fill-opacity="0.501961" cx="0" cy="0" rx="1" ry="1" /></g>
<g transform="translate(198.093698 76.372035) rotate(117.883310) scale(3.936219 2.107014)"><ellipse fill="#ffd5a7" fill-opacity="0.501961" cx="0" cy="0" rx="1" ry="1" /></g>
<g transform="translate(137.776994 98.312916) rotate(320.121120) scale(16.468852 5.271873)"><ellipse fill="#e69177" fill-opacity="0.501961" cx="0" cy="0" rx="1" ry="1" /></g>
<g transform="translate(182.808355 65.897150) rotate(68.837107) scale(4.137832 18.848619)"><ellipse fill="#91686c" fill-opacity="0.501961" cx="0" cy="0" rx="1" ry="1" /></g>
<g transform="translate(196.185551 55.443320) rotate(90.684168) scale(4.808673 12.169047)"><ellipse fill="#af9fb6" fill-opacity="0.501961" cx="0" cy="0" rx="1" ry="1" /></g>
<g transform="translate(161.747689 70.475824) rotate(178.733896) scale(5.555138 7.428707)"><ellipse fill="#d7b4ab" fill-opacity="0.501961" cx="0" cy="0" rx="1" ry="1" /></g>
<g transform="translate(161.705331 87.556742) rotate(58.473413) scale(6.653347 4.397140)"><ellipse fill="#000c23" fill-opacity="0.501961" cx="0" cy="0" rx="1" ry="1" /></g>
<g transform="translate(202.379428 68.336546) rotate(87.177723) scale(3.729368 8.710710)"><ellipse fill="#002555" fill-opacity="0.501961" cx="0" cy="0" rx="1" ry="1" /></g>
<g transform="translate(182.489260 111.227131) rotate(276.131379) scale(5.784931 12.661824)"><ellipse fill="#00225b" fill-opacity="0.501961" cx="0" cy="0" rx="1" ry="1" /></g>
<g transform="translate(159.392127 120.627105) rotate(188.647340) scale(51.882423 6.911791)"><ellipse fill="#ed9c70" fill-opacity="0.501961" cx="0" cy="0" rx="1" ry="1" /></g>
<g transform="translate(16.107451 50.537548) rotate(226.730843) scale(80.068305 21.331819)"><ellipse fill="#f2b694" fill-opacity="0.501961" cx="0" cy="0" rx="1" ry="1" /></g>
<g transform="translate(17.908601 113.225998) rotate(210.807870) scale(99.869732 21.250451)"><ellipse fill="#efaa82" fill-opacity="0.501961" cx="0" cy="0" rx="1" ry="1" /></g>
<g transform="translate(163.688195 87.078023) rotate(313.164275) scale(4.286519 16.961813)"><ellipse fill="#001d37" fill-opacity="0.501961" cx="0" cy="0" rx="1" ry="1" /></g>
<g transform="translate(157.355323 55.927256) rotate(211.768928) scale(1.000000 10.028208)"><ellipse fill="#044397" fill-opacity="0.501961" cx="0" cy="0" rx="1" ry="1" /></g>
<g transform="translate(149.887229 82.897068) rotate(24.557444) scale(4.445859 2.421834)"><ellipse fill="#f7edd7" fill-opacity="0.501961" cx="0" cy="0" rx="1" ry="1" /></g>
<g transform="translate(157.340616 96.999362) rotate(89.564478) scale(4.902801 3.968768)"><ellipse fill="#e46e56" fill-opacity="0.501961" cx="0" cy="0" rx="1" ry="1" /></g>
<g transform="translate(191.974117 104.981391) rotate(122.355785) scale(15.689115 8.344619)"><ellipse fill="#001e42" fill-opacity="0.501961" cx="0" cy="0" rx="1" ry="1" /></g>
<g transform="translate(140.131350 91.654257) rotate(248.886954) scale(1.000000 2.693870)"><ellipse fill="#275fa3" fill-opacity="0.501961" cx="0" cy="0" rx="1" ry="1" /></g>
<g transform="translate(114.764589 68.804674) rotate(343.905712) scale(38.240866 27.814214)"><ellipse fill="#f5c09e" fill-opacity="0.501961" cx="0" cy="0" rx="1" ry="1" /></g>
<g transform="translate(174.749138 103.624490) rotate(83.485400) scale(1.000000 6.875919)"><ellipse fill="#c7926f" fill-opacity="0.501961" cx="0" cy="0" rx="1" ry="1" /></g>
<g transform="translate(131.794745 167.205835) rotate(-21.151223) scale(39.108111 80.620434)"><ellipse fill="#f1ab81" fill-opacity="0.501961" cx="0" cy="0" rx="1" ry="1" /></g>
<g transform="translate(192.183840 48.940245) rotate(23.220679) scale(4.649762 1.000000)"><ellipse fill="#0042ae" fill-opacity="0.501961" cx="0" cy="0" rx="1" ry="1" /></g>
<g transform="translate(228.763847 96.604211) rotate(4.929573) scale(24.897879 16.150419)"><ellipse fill="#ebb096" fill-opacity="0.501961" cx="0" cy="0" rx="1" ry="1" /></g>
<g transform="translate(149.611665 73.366235) rotate(361.448700) scale(3.179975 2.948616)"><ellipse fill="#e4e4e3" fill-opacity="0.501961" cx="0" cy="0" rx="1" ry="1" /></g>
<g transform="translate(150.993542 106.466932) rotate(107.626640) scale(3.551981 14.193989)"><ellipse fill="#c4613c" fill-opacity="0.501961" cx="0" cy="0" rx="1" ry="1" /></g>
<g transform="translate(211.995526 111.479432) rotate(56.078444) scale(14.516434 7.076658)"><ellipse fill="#ce836b" fill-opacity="0.501961" cx="0" cy="0" rx="1" ry="1" /></g>
<g transform="translate(180.852405 44.650627) rotate(282.604408) scale(1.000000 6.001916)"><ellipse fill="#0053b6" fill-opacity="0.501961" cx="0" cy="0" rx="1" ry="1" /></g>
<g transform="translate(170.764018 98.146527) rotate(151.803494) scale(4.467913 4.350777)"><ellipse fill="#002662" fill-opacity="0.501961" cx="0" cy="0" rx="1" ry="1" /></g>
<g transform="translate(183.883323 85.333892) rotate(314.981690) scale(11.518992 5.103495)"><ellipse fill="#824e3d" fill-opacity="0.501961" cx="0" cy="0" rx="1" ry="1" /></g>
<g transform="translate(191.794171 76.669845) rotate(105.903284) scale(21.696173 1.000000)"><ellipse fill="#3a3130" fill-opacity="0.501961" cx="0" cy="0" rx="1" ry="1" /></g>
<g transform="translate(184.795219 66.612749) rotate(219.832803) scale(1.000000 7.914043)"><ellipse fill="#4e3b40" fill-opacity="0.501961" cx="0" cy="0" rx="1" ry="1" /></g>
<g transform="translate(173.711485 56.958717) rotate(255.447696) scale(4.943931 7.837118)"><ellipse fill="#d8c3c4" fill-opacity="0.501961" cx="0" cy="0" rx="1" ry="1" /></g>
<g transform="translate(15.535067 169.000000) rotate(292.007224) scale(16.377488 99.842443)"><ellipse fill="#e7966b" fill-opacity="0.501961" cx="0" cy="0" rx="1" ry="1" /></g>
<g transform="translate(168.599096 46.252203) rotate(157.604183) scale(6.659314 1.805115)"><ellipse fill="#004db1" fill-opacity="0.501961" cx="0" cy="0" rx="1" ry="1" /></g>
<g transform="translate(233.450701 52.695327) rotate(60.058018) scale(14.095959 26.680491)"><ellipse fill="#f3ccb6" fill-opacity="0.501961" cx="0" cy="0" rx="1" ry="1" /></g>
<g transform="translate(159.939282 104.899321) rotate(212.947533) scale(12.752640 1.000000)"><ellipse fill="#09172a" fill-opacity="0.501961" cx="0" cy="0" rx="1" ry="1" /></g>
<g transform="translate(204.532498 81.049872) rotate(173.032272) scale(2.807364 7.167808)"><ellipse fill="#001838" fill-opacity="0.501961" cx="0" cy="0" rx="1" ry="1" /></g>
<g transform="translate(191.614376 62.607869) rotate(292.995383) scale(15.612163 1.759485)"><ellipse fill="#bb9ba2" fill-opacity="0.501961" cx="0" cy="0" rx="1" ry="1" /></g>
<g transform="translate(163.529400 62.031770) rotate(9.163231) scale(1.000000 8.447822)"><ellipse fill="#6a5052" fill-opacity="0.501961" cx="0" cy="0" rx="1" ry="1" /></g>
<g transform="translate(199.255622 78.239715) rotate(218.660221) scale(1.000000 4.097766)"><ellipse fill="#ffc892" fill-opacity="0.501961" cx="0" cy="0" rx="1" ry="1" /></g>
<g transform="translate(164.037870 90.723998) rotate(31.016147) scale(2.540571 6.594802)"><ellipse fill="#051723" fill-opacity="0.501961" cx="0" cy="0" rx="1" ry="1" /></g>
<g transform="translate(164.693318 99.407128) rotate(273.289669) scale(4.105013 1.875586)"><ellipse fill="#e6d6b9" fill-opacity="0.501961" cx="0" cy="0" rx="1" ry="1" /></g>
<g transform="translate(193.958820 99.106961) rotate(270.469764) scale(13.592967 8.954906)"><ellipse fill="#001c36" fill-opacity="0.501961" cx="0" cy="0" rx="1" ry="1" /></g>
<g transform="translate(149.864158 78.905860) rotate(172.452631) scale(3.365370 1.000000)"><ellipse fill="#0042a1" fill-opacity="0.501961" cx="0" cy="0" rx="1" ry="1" /></g>
<g transform="translate(204.348088 70.225399) rotate(48.685603) scale(8.095237 4.461976)"><ellipse fill="#00245e" fill-opacity="0.501961" cx="0" cy="0" rx="1" ry="1" /></g>
<g transform="translate(149.431394 96.834793) rotate(142.319404) scale(12.711415 2.087020)"><ellipse fill="#823837" fill-opacity="0.501961" cx="0" cy="0" rx="1" ry="1" /></g>
<g transform="translate(168.310577 80.571835) rotate(13.742127) scale(5.139045 3.674279)"><ellipse fill="#c59378" fill-opacity="0.501961" cx="0" cy="0" rx="1" ry="1" /></g>
<g transform="translate(179.468096 106.327863) rotate(361.574141) scale(23.158295 1.000000)"><ellipse fill="#001c3b" fill-opacity="0.501961" cx="0" cy="0" rx="1" ry="1" /></g>
<g transform="translate(236.961111 80.331873) rotate(381.807824) scale(25.633730 21.067927)"><ellipse fill="#f3c1a6" fill-opacity="0.501961" cx="0" cy="0" rx="1" ry="1" /></g>
<g transform="translate(206.256908 65.793056) rotate(323.437029) scale(2.797489 7.075505)"><ellipse fill="#00255e" fill-opacity="0.501961" cx="0" cy="0" rx="1" ry="1" /></g>
<g transform="translate(186.441198 109.731586) rotate(357.158188) scale(7.702837 3.465904)"><ellipse fill="#00307a" fill-opacity="0.501961" cx="0" cy="0" rx="1" ry="1" /></g>
<g transform="translate(147.317825 80.931057) rotate(103.623119) scale(1.000561 10.167036)"><ellipse fill="#e3bda7" fill-opacity="0.501961" cx="0" cy="0" rx="1" ry="1" /></g>
<g transform="translate(178.646322 75.851176) rotate(-23.405879) scale(8.506193 2.212395)"><ellipse fill="#d2b1b2" fill-opacity="0.501961" cx="0" cy="0" rx="1" ry="1" /></g>
<g transform="translate(175.849045 84.092844) rotate(163.122578) scale(4.057192 6.097687)"><ellipse fill="#b1765a" fill-opacity="0.501961" cx="0" cy="0" rx="1" ry="1" /></g>
<g transform="translate(234.679093 9.242342) rotate(102.787100) scale(16.816611 174.264478)"><ellipse fill="#f4c4aa" fill-opacity="0.501961" cx="0" cy="0" rx="1" ry="1" /></g>
<g transform="translate(173.492309 52.572731) rotate(71.182678) scale(1.000000 11.137002)"><ellipse fill="#9d7f82" fill-opacity="0.501961" cx="0" cy="0" rx="1" ry="1" /></g>
<g transform="translate(197.271081 151.070359) rotate(82.700615) scale(16.842162 82.375786)"><ellipse fill="#efa881" fill-opacity="0.501961" cx="0" cy="0" rx="1" ry="1" /></g>
<g transform="translate(164.626853 48.470045) rotate(326.343754) scale(6.512241 1.000000)"><ellipse fill="#0047ae" fill-opacity="0.501961" cx="0" cy="0" rx="1" ry="1" /></g>
<g transform="translate(202.297410 54.773130) rotate(31.303101) scale(6.873563 4.115185)"><ellipse fill="#c1b1be" fill-opacity="0.501961" cx="0" cy="0" rx="1" ry="1" /></g>
<g transform="translate(191.999118 95.506187) rotate(125.288205) scale(10.951104 5.997172)"><ellipse fill="#001624" fill-opacity="0.501961" cx="0" cy="0" rx="1" ry="1" /></g>
<g transform="translate(183.109385 82.129797) rotate(-1.955541) scale(9.049187 1.741508)"><ellipse fill="#563532" fill-opacity="0.501961" cx="0" cy="0" rx="1" ry="1" /></g>
<g transform="translate(93.650355 0.000000) rotate(25.155086) scale(94.582211 20.197075)"><ellipse fill="#f2cdb8" fill-opacity="0.501961" cx="0" cy="0" rx="1" ry="1" /></g>
<g transform="translate(153.796066 67.077739) rotate(175.093384) scale(1.000000 6.268882)"><ellipse fill="#003a88" fill-opacity="0.501961" cx="0" cy="0" rx="1" ry="1" /></g>
<g transform="translate(159.895391 58.431582) rotate(33.503031) scale(1.593727 8.446276)"><ellipse fill="#d7b9b6" fill-opacity="0.501961" cx="0" cy="0" rx="1" ry="1" /></g>
<g transform="translate(203.742869 118.586420) rotate(224.446510) scale(8.779365 7.072484)"><ellipse fill="#c6785d" fill-opacity="0.501961" cx="0" cy="0" rx="1" ry="1" /></g>
<g transform="translate(127.257143 85.005909) rotate(188.195194) scale(25.082183 1.000000)"><ellipse fill="#efb18e" fill-opacity="0.501961" cx="0" cy="0" rx="1" ry="1" /></g>
<g transform="translate(198.600151 77.700616) rotate(98.957294) scale(5.789193 3.309995)"><ellipse fill="#d8a481" fill-opacity="0.501961" cx="0" cy="0" rx="1" ry="1" /></g>
<g transform="translate(183.988734 99.796448) rotate(13.086402) scale(12.587747 3.880408)"><ellipse fill="#002147" fill-opacity="0.501961" cx="0" cy="0" rx="1" ry="1" /></g>
<g transform="translate(190.832255 78.836360) rotate(95.262835) scale(2.895641 4.816605)"><ellipse fill="#372b2d" fill-opacity="0.501961" cx="0" cy="0" rx="1" ry="1" /></g>
<g transform="translate(164.457113 117.798960) rotate(202.884351) scale(23.137290 6.610786)"><ellipse fill="#ea9668" fill-opacity="0.501961" cx="0" cy="0" rx="1" ry="1" /></g>
<g transform="translate(208.809992 82.975392) rotate(295.267459) scale(5.769625 1.265045)"><ellipse fill="#00152c" fill-opacity="0.501961" cx="0" cy="0" rx="1" ry="1" /></g>
<g transform="translate(174.791252 71.783876) rotate(94.537753) scale(1.000000 5.120342)"><ellipse fill="#764c4a" fill-opacity="0.501961" cx="0" cy="0" rx="1" ry="1" /></g>
<g transform="translate(184.763065 46.609340) rotate(11.235177) scale(9.513757 1.000000)"><ellipse fill="#0045a4" fill-opacity="0.501961" cx="0" cy="0" rx="1" ry="1" /></g>
<g transform="translate(196.133618 60.316042) rotate(-36.178103) scale(1.650581 1.000000)"><ellipse fill="#0d100d" fill-opacity="0.501961" cx="0" cy="0" rx="1" ry="1" /></g>
<g transform="translate(167.010368 91.745041) rotate(343.546405) scale(7.313179 2.700769)"><ellipse fill="#021625" fill-opacity="0.501961" cx="0" cy="0" rx="1" ry="1" /></g>
<g transform="translate(171.522361 58.917037) rotate(13.588751) scale(3.849211 5.989089)"><ellipse fill="#e9d3cd" fill-opacity="0.501961" cx="0" cy="0" rx="1" ry="1" /></g>
<g transform="translate(185.522341 122.334415) rotate(275.026437) scale(3.751980 41.300091)"><ellipse fill="#ec996e" fill-opacity="0.501961" cx="0" cy="0" rx="1" ry="1" /></g>
<g transform="translate(175.630639 86.605254) rotate(389.629497) scale(2.834578 2.208475)"><ellipse fill="#e9a577" fill-opacity="0.501961" cx="0" cy="0" rx="1" ry="1" /></g>
<g transform="translate(153.016220 78.020222) rotate(275.970402) scale(2.793434 4.013921)"><ellipse fill="#022e5f" fill-opacity="0.501961" cx="0" cy="0" rx="1" ry="1" /></g>
<g transform="translate(96.427712 38.021118) rotate(108.962378) scale(17.924030 61.597456)"><ellipse fill="#f5c7ac" fill-opacity="0.501961" cx="0" cy="0" rx="1" ry="1" /></g>
<g transform="translate(174.877255 49.035959) rotate(262.595268) scale(1.823142 6.011425)"><ellipse fill="#d4bbb8" fill-opacity="0.501961" cx="0" cy="0" rx="1" ry="1" /></g>
<g transform="translate(153.935986 83.935169) rotate(280.803221) scale(3.075197 1.909145)"><ellipse fill="#bb7d53" fill-opacity="0.501961" cx="0" cy="0" rx="1" ry="1" /></g>
<g transform="translate(13.667610 21.403726) rotate(28.152780) scale(74.483704 21.028600)"><ellipse fill="#f1bea3" fill-opacity="0.501961" cx="0" cy="0" rx="1" ry="1" /></g>
<g transform="translate(159.608344 97.150132) rotate(302.001364) scale(2.448248 3.514921)"><ellipse fill="#fdb398" fill-opacity="0.501961" cx="0" cy="0" rx="1" ry="1" /></g>
<g transform="translate(176.557493 97.037773) rotate(262.439069) scale(3.190441 10.569425)"><ellipse fill="#00254e" fill-opacity="0.501961" cx="0" cy="0" rx="1" ry="1" /></g>
<g transform="translate(169.854472 88.658875) rotate(108.208918) scale(7.002309 1.000000)"><ellipse fill="#12212a" fill-opacity="0.501961" cx="0" cy="0" rx="1" ry="1" /></g>
<g transform="translate(76.365258 78.200775) rotate(186.930816) scale(68.168476 14.098241)"><ellipse fill="#f3b894" fill-opacity="0.501961" cx="0" cy="0" rx="1" ry="1" /></g>
<g transform="translate(114.900301 115.011137) rotate(71.125130) scale(1.000000 22.204191)"><ellipse fill="#e29167" fill-opacity="0.501961" cx="0" cy="0" rx="1" ry="1" /></g>
<g transform="translate(14.597567 134.935793) rotate(403.097981) scale(43.683130 13.612316)"><ellipse fill="#eca179" fill-opacity="0.501961" cx="0" cy="0" rx="1" ry="1" /></g>
<g transform="translate(26.856614 84.492424) rotate(306.348077) scale(14.330522 101.941269)"><ellipse fill="#f1b28b" fill-opacity="0.501961" cx="0" cy="0" rx="1" ry="1" /></g>
<g transform="translate(164.383247 86.769606) rotate(46.268948) scale(14.219390 3.496450)"><ellipse fill="#001a30" fill-opacity="0.501961" cx="0" cy="0" rx="1" ry="1" /></g>
<g transform="translate(155.034891 61.771758) rotate(291.790082) scale(7.500565 1.000000)"><ellipse fill="#0e3f85" fill-opacity="0.501961" cx="0" cy="0" rx="1" ry="1" /></g>
<g transform="translate(170.146151 106.207394) rotate(182.691860) scale(7.998632 1.000000)"><ellipse fill="#000910" fill-opacity="0.501961" cx="0" cy="0" rx="1" ry="1" /></g>
<g transform="translate(228.807717 113.596889) rotate(126.826487) scale(6.357135 28.021867)"><ellipse fill="#e29d83" fill-opacity="0.501961" cx="0" cy="0" rx="1" ry="1" /></g>
<g transform="translate(120.292640 105.040177) rotate(278.562487) scale(1.000000 52.403266)"><ellipse fill="#e2926a" fill-opacity="0.501961" cx="0" cy="0" rx="1" ry="1" /></g>
<g transform="translate(142.105551 90.949368) rotate(142.789296) scale(2.765068 1.000000)"><ellipse fill="#5d77ab" fill-opacity="0.501961" cx="0" cy="0" rx="1" ry="1" /></g>
<g transform="translate(186.228661 62.071123) rotate(80.087153) scale(6.713742 1.724400)"><ellipse fill="#755d67" fill-opacity="0.501961" cx="0" cy="0" rx="1" ry="1" /></g>
<g transform="translate(151.936041 98.147184) rotate(237.666169) scale(3.794778 1.000000)"><ellipse fill="#0b1d33" fill-opacity="0.501961" cx="0" cy="0" rx="1" ry="1" /></g>
<g transform="translate(151.480296 70.049455) rotate(315.220533) scale(1.000000 3.466700)"><ellipse fill="#eae6e1" fill-opacity="0.501961" cx="0" cy="0" rx="1" ry="1" /></g>
<g transform="translate(206.113803 71.938797) rotate(344.072936) scale(4.321956 12.501809)"><ellipse fill="#002254" fill-opacity="0.501961" cx="0" cy="0" rx="1" ry="1" /></g>
<g transform="translate(196.589684 82.179925) rotate(140.818860) scale(5.633301 1.000000)"><ellipse fill="#ea9a5c" fill-opacity="0.501961" cx="0" cy="0" rx="1" ry="1" /></g>
<g transform="translate(173.096178 108.366391) rotate(273.184085) scale(2.369883 7.642130)"><ellipse fill="#001a3a" fill-opacity="0.501961" cx="0" cy="0" rx="1" ry="1" /></g>
<g transform="translate(180.751431 52.887550) rotate(211.655317) scale(6.419383 1.593114)"><ellipse fill="#a68184" fill-opacity="0.501961" cx="0" cy="0" rx="1" ry="1" /></g>
<g transform="translate(188.580919 57.534268) rotate(327.743635) scale(1.000000 4.846860)"><ellipse fill="#eec4b5" fill-opacity="0.501961" cx="0" cy="0" rx="1" ry="1" /></g>
<g transform="translate(169.000671 81.956868) rotate(228.465884) scale(1.964343 3.216385)"><ellipse fill="#ddb597" fill-opacity="0.501961" cx="0" cy="0" rx="1" ry="1" /></g>
<g transform="translate(150.105576 91.971327) rotate(294.982298) scale(4.094987 1.000000)"><ellipse fill="#9f3e35" fill-opacity="0.501961" cx="0" cy="0" rx="1" ry="1" /></g>
<g transform="translate(190.806397 59.966456) rotate(341.888788) scale(1.000000 9.190331)"><ellipse fill="#d2aeaf" fill-opacity="0.501961" cx="0" cy="0" rx="1" ry="1" /></g>
<g transform="translate(120.713851 100.269575) rotate(167.055285) scale(27.585358 3.063385)"><ellipse fill="#f1ad89" fill-opacity="0.501961" cx="0" cy="0" rx="1" ry="1" /></g>
<g transform="translate(197.552556 65.749699) rotate(97.001809) scale(11.440445 1.000000)"><ellipse fill="#967270" fill-opacity="0.501961" cx="0" cy="0" rx="1" ry="1" /></g>
<g transform="translate(186.570380 86.342378) rotate(58.191807) scale(2.572232 11.156163)"><ellipse fill="#7f4a3a" fill-opacity="0.501961" cx="0" cy="0" rx="1" ry="1" /></g>
<g transform="translate(201.226087 90.884716) rotate(298.705542) scale(8.003306 2.702518)"><ellipse fill="#00172f" fill-opacity="0.501961" cx="0" cy="0" rx="1" ry="1" /></g>
<g transform="translate(150.160431 168.278938) rotate(273.804592) scale(8.779105 74.352020)"><ellipse fill="#eea57a" fill-opacity="0.501961" cx="0" cy="0" rx="1" ry="1" /></g>
<g transform="translate(205.080394 80.081485) rotate(223.707772) scale(4.452115 3.612354)"><ellipse fill="#001f3f" fill-opacity="0.501961" cx="0" cy="0" rx="1" ry="1" /></g>
<g transform="translate(196.510882 106.960096) rotate(206.364313) scale(5.066127 7.710245)"><ellipse fill="#092755" fill-opacity="0.501961" cx="0" cy="0" rx="1" ry="1" /></g>
<g transform="translate(165.153856 73.501151) rotate(275.187386) scale(1.866065 8.989503)"><ellipse fill="#d7b6b4" fill-opacity="0.501961" cx="0" cy="0" rx="1" ry="1" /></g>
<g transform="translate(148.016724 104.395870) rotate(15.929519) scale(12.595608 4.041982)"><ellipse fill="#c16444" fill-opacity="0.501961" cx="0" cy="0" rx="1" ry="1" /></g>
<g transform="translate(170.969495 99.486977) rotate(143.832966) scale(5.172953 3.209605)"><ellipse fill="#0d335e" fill-opacity="0.501961" cx="0" cy="0" rx="1" ry="1" /></g>
<g transform="translate(245.431879 106.715361) rotate(126.522994) scale(7.451886 41.975107)"><ellipse fill="#eeb499" fill-opacity="0.501961" cx="0" cy="0" rx="1" ry="1" /></g>
<g transform="translate(180.206122 60.634579) rotate(420.827363) scale(4.561286 4.868582)"><ellipse fill="#c8a3ad" fill-opacity="0.501961" cx="0" cy="0" rx="1" ry="1" /></g>
<g transform="translate(82.807359 99.068975) rotate(209.132740) scale(13.436790 6.465101)"><ellipse fill="#eca882" fill-opacity="0.501961" cx="0" cy="0" rx="1" ry="1" /></g>
<g transform="translate(177.452379 111.271015) rotate(332.344472) scale(6.361663 3.700502)"><ellipse fill="#012b5f" fill-opacity="0.501961" cx="0" cy="0" rx="1" ry="1" /></g>
<g transform="translate(159.542301 53.245166) rotate(304.891510) scale(6.010303 1.000000)"><ellipse fill="#09428f" fill-opacity="0.501961" cx="0" cy="0" rx="1" ry="1" /></g>
<g transform="translate(198.735158 83.194857) rotate(341.642172) scale(2.662718 1.500120)"><ellipse fill="#ffca98" fill-opacity="0.501961" cx="0" cy="0" rx="1" ry="1" /></g>
<g transform="translate(164.684492 58.668860) rotate(205.019259) scale(1.000000 5.010090)"><ellipse fill="#614c50" fill-opacity="0.501961" cx="0" cy="0" rx="1" ry="1" /></g>
<g transform="translate(160.575484 24.290053) rotate(72.914471) scale(22.842686 4.388841)"><ellipse fill="#f1cdb7" fill-opacity="0.501961" cx="0" cy="0" rx="1" ry="1" /></g>
<g transform="translate(130.156570 94.235828) rotate(28.651189) scale(9.729171 6.304981)"><ellipse fill="#f4ae84" fill-opacity="0.501961" cx="0" cy="0" rx="1" ry="1" /></g>
<g transform="translate(165.491270 49.010538) rotate(61.229794) scale(1.000000 7.881293)"><ellipse fill="#0750b4" fill-opacity="0.501961" cx="0" cy="0" rx="1" ry="1" /></g>
<g transform="translate(157.996532 92.827388) rotate(180.322561) scale(1.241891 2.821533)"><ellipse fill="#d86550" fill-opacity="0.501961" cx="0" cy="0" rx="1" ry="1" /></g>
<g transform="translate(156.744889 79.363144) rotate(-3.392967) scale(1.000000 5.497223)"><ellipse fill="#041b29" fill-opacity="0.501961" cx="0" cy="0" rx="1" ry="1" /></g>
<g transform="translate(146.827919 81.904281) rotate(84.204566) scale(1.409192 7.142055)"><ellipse fill="#efd7c7" fill-opacity="0.501961" cx="0" cy="0" rx="1" ry="1" /></g>
<g transform="translate(168.209804 61.014645) rotate(298.081476) scale(5.015216 2.669909)"><ellipse fill="#e5cfc7" fill-opacity="0.501961" cx="0" cy="0" rx="1" ry="1" /></g>
<g transform="translate(139.827384 82.706665) rotate(300.829792) scale(14.154943 3.961785)"><ellipse fill="#f2b491" fill-opacity="0.501961" cx="0" cy="0" rx="1" ry="1" /></g>
<g transform="translate(177.677238 70.696309) rotate(256.539873) scale(1.827899 4.973410)"><ellipse fill="#7f524e" fill-opacity="0.501961" cx="0" cy="0" rx="1" ry="1" /></g>
<g transform="translate(200.916281 74.547723) rotate(123.318731) scale(1.709613 1.000000)"><ellipse fill="#c8bcb6" fill-opacity="0.501961" cx="0" cy="0" rx="1" ry="1" /></g>
<g transform="translate(193.509722 79.632349) rotate(392.648682) scale(2.854911 1.000000)"><ellipse fill="#2a2525" fill-opacity="0.501961" cx="0" cy="0" rx="1" ry="1" /></g>
<g transform="translate(185.728151 87.976735) rotate(119.938434) scale(5.941105 2.423393)"><ellipse fill="#894e3e" fill-opacity="0.501961" cx="0" cy="0" rx="1" ry="1" /></g>
<g transform="translate(146.254833 91.589103) rotate(-45.257476) scale(6.207789 1.645307)"><ellipse fill="#faa9a0" fill-opacity="0.501961" cx="0" cy="0" rx="1" ry="1" /></g>
<g transform="translate(196.584526 83.611131) rotate(79.273275) scale(1.522601 3.124508)"><ellipse fill="#f0b180" fill-opacity="0.501961" cx="0" cy="0" rx="1" ry="1" /></g>
<g transform="translate(148.922436 71.732220) rotate(299.366096) scale(1.737447 5.271602)"><ellipse fill="#f1d5c2" fill-opacity="0.501961" cx="0" cy="0" rx="1" ry="1" /></g>
<g transform="translate(187.941873 27.861786) rotate(14.313993) scale(82.780546 7.628313)"><ellipse fill="#f2cfba" fill-opacity="0.501961" cx="0" cy="0" rx="1" ry="1" /></g>
<g transform="translate(233.943745 78.216068) rotate(245.283548) scale(7.077142 29.095844)"><ellipse fill="#f2c2a8" fill-opacity="0.501961" cx="0" cy="0" rx="1" ry="1" /></g>
<g transform="translate(175.545205 45.254446) rotate(295.839873) scale(1.256236 3.008767)"><ellipse fill="#0045a7" fill-opacity="0.501961" cx="0" cy="0" rx="1" ry="1" /></g>
<g transform="translate(154.840492 87.947151) rotate(13.759853) scale(11.495314 1.000000)"><ellipse fill="#1a2123" fill-opacity="0.501961" cx="0" cy="0" rx="1" ry="1" /></g>
<g transform="translate(206.402511 104.304703) rotate(53.024217) scale(7.083196 3.403221)"><ellipse fill="#c07764" fill-opacity="0.501961" cx="0" cy="0" rx="1" ry="1" /></g>
<g transform="translate(165.801837 114.217953) rotate(92.111444) scale(3.696319 4.681864)"><ellipse fill="#dd7d4d" fill-opacity="0.501961" cx="0" cy="0" rx="1" ry="1" /></g>
<g transform="translate(146.326273 33.393292) rotate(61.832836) scale(22.454483 13.929580)"><ellipse fill="#f3cbb3" fill-opacity="0.501961" cx="0" cy="0" rx="1" ry="1" /></g>
<g transform="translate(145.270898 102.002177) rotate(210.624288) scale(1.864850 7.771370)"><ellipse fill="#9f493a" fill-opacity="0.501961" cx="0" cy="0" rx="1" ry="1" /></g>
<g transform="translate(180.699629 49.835133) rotate(153.934716) scale(4.390626 1.000000)"><ellipse fill="#705e6c" fill-opacity="0.501961" cx="0" cy="0" rx="1" ry="1" /></g>
<g transform="translate(85.838561 112.185432) rotate(354.883694) scale(40.967732 5.282603)"><ellipse fill="#f1b28c" fill-opacity="0.501961" cx="0" cy="0" rx="1" ry="1" /></g>
<g transform="translate(142.430750 104.541563) rotate(85.264597) scale(1.412164 8.930364)"><ellipse fill="#d87a51" fill-opacity="0.501961" cx="0" cy="0" rx="1" ry="1" /></g>
<g transform="translate(192.290192 95.438490) rotate(92.470622) scale(10.354886 5.403433)"><ellipse fill="#031929" fill-opacity="0.501961" cx="0" cy="0" rx="1" ry="1" /></g>
<g transform="translate(188.723089 70.215875) rotate(123.858010) scale(7.230697 3.387063)"><ellipse fill="#b28d92" fill-opacity="0.501961" cx="0" cy="0" rx="1" ry="1" /></g>
<g transform="translate(162.727550 73.652753) rotate(291.372305) scale(4.809548 5.764756)"><ellipse fill="#d2ada5" fill-opacity="0.501961" cx="0" cy="0" rx="1" ry="1" /></g>
<g transform="translate(245.537856 144.558816) rotate(143.459148) scale(25.807374 29.780838)"><ellipse fill="#e9a481" fill-opacity="0.501961" cx="0" cy="0" rx="1" ry="1" /></g>
<g transform="translate(192.002037 115.609114) rotate(29.378137) scale(3.006156 2.557288)"><ellipse fill="#001d44" fill-opacity="0.501961" cx="0" cy="0" rx="1" ry="1" /></g>
<g transform="translate(150.567605 97.740713) rotate(349.110776) scale(1.000000 2.482555)"><ellipse fill="#011930" fill-opacity="0.501961" cx="0" cy="0" rx="1" ry="1" /></g>
<g transform="translate(185.828147 82.457761) rotate(44.075250) scale(2.750387 4.551095)"><ellipse fill="#553731" fill-opacity="0.501961" cx="0" cy="0" rx="1" ry="1" /></g>
<g transform="translate(162.462465 100.097459) rotate(259.805298) scale(3.761326 1.306549)"><ellipse fill="#ebd0a5" fill-opacity="0.501961" cx="0" cy="0" rx="1" ry="1" /></g>
<g transform="translate(178.272207 88.265886) rotate(29.984872) scale(1.000000 5.709419)"><ellipse fill="#b17866" fill-opacity="0.501961" cx="0" cy="0" rx="1" ry="1" /></g>
<g transform="translate(186.117782 74.115803) rotate(88.465194) scale(4.691202 2.753636)"><ellipse fill="#b48a8d" fill-opacity="0.501961" cx="0" cy="0" rx="1" ry="1" /></g>
<g transform="translate(196.105852 61.433127) rotate(225.382863) scale(1.736034 2.025569)"><ellipse fill="#40393b" fill-opacity="0.501961" cx="0" cy="0" rx="1" ry="1" /></g>
<g transform="translate(192.837862 73.833989) rotate(320.845472) scale(2.471185 1.594985)"><ellipse fill="#2d2b2e" fill-opacity="0.501961" cx="0" cy="0" rx="1" ry="1" /></g>
<g transform="translate(166.173900 103.364309) rotate(222.913604) scale(1.997453 1.000000)"><ellipse fill="#cd935f" fill-opacity="0.501961" cx="0" cy="0" rx="1" ry="1" /></g>
<g transform="translate(174.010777 66.830212) rotate(69.428874) scale(2.404942 8.017105)"><ellipse fill="#c18579" fill-opacity="0.501961" cx="0" cy="0" rx="1" ry="1" /></g>
<g transform="translate(146.908740 89.242227) rotate(248.814804) scale(1.948261 3.421459)"><ellipse fill="#ebac9a" fill-opacity="0.501961" cx="0" cy="0" rx="1" ry="1" /></g>
<g transform="translate(165.072398 123.604874) rotate(20.299259) scale(40.203036 5.193168)"><ellipse fill="#eea277" fill-opacity="0.501961" cx="0" cy="0" rx="1" ry="1" /></g>
<g transform="translate(192.308126 79.604842) rotate(294.705145) scale(1.642116 4.491765)"><ellipse fill="#41312c" fill-opacity="0.501961" cx="0" cy="0" rx="1" ry="1" /></g>
<g transform="translate(144.227848 91.768898) rotate(316.189453) scale(6.508733 1.000000)"><ellipse fill="#e6bbb7" fill-opacity="0.501961" cx="0" cy="0" rx="1" ry="1" /></g>
<g transform="translate(235.074720 107.627156) rotate(115.445870) scale(3.290017 34.064992)"><ellipse fill="#e8a990" fill-opacity="0.501961" cx="0" cy="0" rx="1" ry="1" /></g>
<g transform="translate(241.303051 64.756396) rotate(94.540588) scale(11.794139 32.579789)"><ellipse fill="#f2c6ae" fill-opacity="0.501961" cx="0" cy="0" rx="1" ry="1" /></g>
<g transform="translate(10.193050 45.985945) rotate(319.874517) scale(10.132884 49.234417)"><ellipse fill="#f0b697" fill-opacity="0.501961" cx="0" cy="0" rx="1" ry="1" /></g>
<g transform="translate(174.924593 102.732436) rotate(128.366833) scale(1.000000 2.540252)"><ellipse fill="#dca47d" fill-opacity="0.501961" cx="0" cy="0" rx="1" ry="1" /></g>
<g transform="translate(83.443077 68.960038) rotate(278.724186) scale(8.295158 51.367454)"><ellipse fill="#f3bd9e" fill-opacity="0.501961" cx="0" cy="0" rx="1" ry="1" /></g>
<g transform="translate(182.819964 115.714907) rotate(109.807860) scale(1.476356 7.580738)"><ellipse fill="#021a2f" fill-opacity="0.501961" cx="0" cy="0" rx="1" ry="1" /></g>
<g transform="translate(100.223763 134.264098) rotate(193.946991) scale(72.296774 10.742751)"><ellipse fill="#f1ae85" fill-opacity="0.501961" cx="0" cy="0" rx="1" ry="1" /></g>
<g transform="translate(227.469685 119.923270) rotate(170.622440) scale(14.178538 4.110432)"><ellipse fill="#e1987b" fill-opacity="0.501961" cx="0" cy="0" rx="1" ry="1" /></g>
<g transform="translate(160.464581 102.815147) rotate(106.633782) scale(2.685284 1.000000)"><ellipse fill="#202220" fill-opacity="0.501961" cx="0" cy="0" rx="1" ry="1" /></g>
<g transform="translate(203.131541 65.209157) rotate(49.155654) scale(5.846469 1.502330)"><ellipse fill="#002767" fill-opacity="0.501961" cx="0" cy="0" rx="1" ry="1" /></g>
<g transform="translate(193.002455 49.147715) rotate(209.198420) scale(3.105394 1.000000)"><ellipse fill="#004b9f" fill-opacity="0.501961" cx="0" cy="0" rx="1" ry="1" /></g>
<g transform="translate(182.474815 96.323364) rotate(79.252049) scale(1.585185 15.981277)"><ellipse fill="#001f43" fill-opacity="0.501961" cx="0" cy="0" rx="1" ry="1" /></g>
<g transform="translate(185.082626 66.780648) rotate(117.779718) scale(6.467142 1.000000)"><ellipse fill="#624f53" fill-opacity="0.501961" cx="0" cy="0" rx="1" ry="1" /></g>
<g transform="translate(148.128817 82.112238) rotate(80.958158) scale(2.392271 2.493972)"><ellipse fill="#e5ebea" fill-opacity="0.501961" cx="0" cy="0" rx="1" ry="1" /></g>
<g transform="translate(146.972991 96.425673) rotate(121.145187) scale(10.015718 1.000000)"><ellipse fill="#9c3f38" fill-opacity="0.501961" cx="0" cy="0" rx="1" ry="1" /></g>
<g transform="translate(202.946709 88.023139) rotate(299.482406) scale(16.652394 2.318069)"><ellipse fill="#001c3a" fill-opacity="0.501961" cx="0" cy="0" rx="1" ry="1" /></g>
<g transform="translate(158.152172 97.735904) rotate(253.286525) scale(4.343699 1.000000)"><ellipse fill="#fd9375" fill-opacity="0.501961" cx="0" cy="0" rx="1" ry="1" /></g>
<g transform="translate(139.748821 101.831640) rotate(99.841702) scale(3.827356 1.055674)"><ellipse fill="#bd5644" fill-opacity="0.501961" cx="0" cy="0" rx="1" ry="1" /></g>
<g transform="translate(161.471926 59.454128) rotate(225.547457) scale(1.000000 2.173483)"><ellipse fill="#ddbbb0" fill-opacity="0.501961" cx="0" cy="0" rx="1" ry="1" /></g>
<g transform="translate(185.252941 47.457333) rotate(278.372315) scale(1.000000 4.324462)"><ellipse fill="#034293" fill-opacity="0.501961" cx="0" cy="0" rx="1" ry="1" /></g>
<g transform="translate(198.838372 75.181782) rotate(334.262406) scale(1.265541 3.316111)"><ellipse fill="#e6bfa7" fill-opacity="0.501961" cx="0" cy="0" rx="1" ry="1" /></g>
<g transform="translate(157.133302 69.714545) rotate(339.443827) scale(1.160690 5.192157)"><ellipse fill="#dabab4" fill-opacity="0.501961" cx="0" cy="0" rx="1" ry="1" /></g>
<g transform="translate(162.110192 105.977859) rotate(41.715220) scale(4.371323 1.000000)"><ellipse fill="#071e36" fill-opacity="0.501961" cx="0" cy="0" rx="1" ry="1" /></g>
<g transform="translate(174.216420 82.211740) rotate(106.420781) scale(1.000000 2.017542)"><ellipse fill="#5e4040" fill-opacity="0.501961" cx="0" cy="0" rx="1" ry="1" /></g>
<g transform="translate(145.650018 50.806845) rotate(242.949258) scale(12.116682 11.034540)"><ellipse fill="#f3c6ac" fill-opacity="0.501961" cx="0" cy="0" rx="1" ry="1" /></g>
<g transform="translate(153.556337 89.856756) rotate(69.930262) scale(2.531125 1.097103)"><ellipse fill="#000d17" fill-opacity="0.501961" cx="0" cy="0" rx="1" ry="1" /></g>
<g transform="translate(164.487839 69.522106) rotate(112.762328) scale(1.000000 2.710519)"><ellipse fill="#9f7c7b" fill-opacity="0.501961" cx="0" cy="0" rx="1" ry="1" /></g>
<g transform="translate(189.538840 77.921060) rotate(38.311520) scale(1.000000 8.795619)"><ellipse fill="#392d2b" fill-opacity="0.501961" cx="0" cy="0" rx="1" ry="1" /></g>
<g transform="translate(201.677972 55.944397) rotate(290.477494) scale(2.992802 8.421685)"><ellipse fill="#b7a5b3" fill-opacity="0.501961" cx="0" cy="0" rx="1" ry="1" /></g>
<g transform="translate(159.964256 62.686924) rotate(82.184872) scale(1.627365 3.173857)"><ellipse fill="#90726d" fill-opacity="0.501961" cx="0" cy="0" rx="1" ry="1" /></g>
<g transform="translate(188.890575 56.344213) rotate(321.252232) scale(1.000000 2.588501)"><ellipse fill="#ead0ca" fill-opacity="0.501961" cx="0" cy="0" rx="1" ry="1" /></g>
<g transform="translate(129.017439 89.810131) rotate(76.533052) scale(6.324033 12.791743)"><ellipse fill="#f0b18c" fill-opacity="0.501961" cx="0" cy="0" rx="1" ry="1" /></g>
<g transform="translate(193.751329 118.894537) rotate(77.093503) scale(1.000000 4.129028)"><ellipse fill="#b76242" fill-opacity="0.501961" cx="0" cy="0" rx="1" ry="1" /></g>
<g transform="translate(173.245289 81.482375) rotate(289.117894) scale(1.000000 9.387622)"><ellipse fill="#925e56" fill-opacity="0.501961" cx="0" cy="0" rx="1" ry="1" /></g>
<g transform="translate(203.599456 66.850005) rotate(276.170456) scale(5.459976 5.206903)"><ellipse fill="#00255c" fill-opacity="0.501961" cx="0" cy="0" rx="1" ry="1" /></g>
<g transform="translate(90.139255 15.281795) rotate(204.834142) scale(78.042154 11.386921)"><ellipse fill="#f3c9b1" fill-opacity="0.501961" cx="0" cy="0" rx="1" ry="1" /></g>
<g transform="translate(149.067854 71.829789) rotate(196.250914) scale(1.000000 8.493638)"><ellipse fill="#e6d5cc" fill-opacity="0.501961" cx="0" cy="0" rx="1" ry="1" /></g>
<g transform="translate(182.159429 115.147286) rotate(248.694423) scale(2.532005 2.023011)"><ellipse fill="#011b34" fill-opacity="0.501961" cx="0" cy="0" rx="1" ry="1" /></g>
<g transform="translate(204.757721 62.887251) rotate(350.511996) scale(6.219347 1.000000)"><ellipse fill="#1a3467" fill-opacity="0.501961" cx="0" cy="0" rx="1" ry="1" /></g>
<g transform="translate(163.069272 97.701300) rotate(3.892209) scale(1.000000 2.598816)"><ellipse fill="#fce6ce" fill-opacity="0.501961" cx="0" cy="0" rx="1" ry="1" /></g>
<g transform="translate(131.560092 110.766185) rotate(257.773260) scale(2.344691 8.267527)"><ellipse fill="#e5976d" fill-opacity="0.501961" cx="0" cy="0" rx="1" ry="1" /></g>
<g transform="translate(161.982766 61.568254) rotate(56.527839) scale(1.000000 1.843235)"><ellipse fill="#5a4c4d" fill-opacity="0.501961" cx="0" cy="0" rx="1" ry="1" /></g>
<g transform="translate(205.078955 111.396042) rotate(365.131903) scale(3.635059 4.748829)"><ellipse fill="#b46d5a" fill-opacity="0.501961" cx="0" cy="0" rx="1" ry="1" /></g>
<g transform="translate(174.036425 48.998352) rotate(176.416825) scale(6.479599 1.000000)"><ellipse fill="#d7c1c2" fill-opacity="0.501961" cx="0" cy="0" rx="1" ry="1" /></g>
<g transform="translate(168.396504 107.280355) rotate(193.508498) scale(6.905831 1.000000)"><ellipse fill="#001526" fill-opacity="0.501961" cx="0" cy="0" rx="1" ry="1" /></g>
<g transform="translate(167.709708 89.974701) rotate(268.657819) scale(2.738091 6.918946)"><ellipse fill="#00172a" fill-opacity="0.501961" cx="0" cy="0" rx="1" ry="1" /></g>
<g transform="translate(204.470530 71.569597) rotate(342.387311) scale(1.794926 12.301520)"><ellipse fill="#012559" fill-opacity="0.501961" cx="0" cy="0" rx="1" ry="1" /></g>
<g transform="translate(114.949941 116.651923) rotate(342.698660) scale(21.532428 2.537252)"><ellipse fill="#e99c73" fill-opacity="0.501961" cx="0" cy="0" rx="1" ry="1" /></g>
<g transform="translate(185.890412 88.157549) rotate(26.590007) scale(2.906229 4.345965)"><ellipse fill="#844b3c" fill-opacity="0.501961" cx="0" cy="0" rx="1" ry="1" /></g>
<g transform="translate(77.251037 81.775148) rotate(279.104473) scale(9.289492 44.270058)"><ellipse fill="#f3b995" fill-opacity="0.501961" cx="0" cy="0" rx="1" ry="1" /></g>
<g transform="translate(213.609075 109.210580) rotate(141.989871) scale(2.578333 14.608092)"><ellipse fill="#d9947c" fill-opacity="0.501961" cx="0" cy="0" rx="1" ry="1" /></g>
<g transform="translate(179.948297 81.554615) rotate(-18.672883) scale(6.801971 1.000000)"><ellipse fill="#67433d" fill-opacity="0.501961" cx="0" cy="0" rx="1" ry="1" /></g>
<g transform="translate(180.927634 119.083057) rotate(13.571179) scale(45.731602 1.000000)"><ellipse fill="#eb9669" fill-opacity="0.501961" cx="0" cy="0" rx="1" ry="1" /></g>
<g transform="translate(185.098842 73.337501) rotate(283.642867) scale(5.416995 1.000000)"><ellipse fill="#c7a2a3" fill-opacity="0.501961" cx="0" cy="0" rx="1" ry="1" /></g>
<g transform="translate(192.800151 116.807391) rotate(269.834237) scale(1.358369 2.703933)"><ellipse fill="#152037" fill-opacity="0.501961" cx="0" cy="0" rx="1" ry="1" /></g>
<g transform="translate(175.168800 103.212120) rotate(285.944432) scale(1.000000 4.327635)"><ellipse fill="#b38770" fill-opacity="0.501961" cx="0" cy="0" rx="1" ry="1" /></g>
<g transform="translate(187.223147 64.424774) rotate(364.652774) scale(1.000000 3.557381)"><ellipse fill="#534446" fill-opacity="0.501961" cx="0" cy="0" rx="1" ry="1" /></g>
<g transform="translate(187.519283 49.869483) rotate(296.648202) scale(2.675364 1.000000)"><ellipse fill="#a6a2bb" fill-opacity="0.501961" cx="0" cy="0" rx="1" ry="1" /></g>
<g transform="translate(180.101766 83.715777) rotate(243.179278) scale(1.000000 6.224112)"><ellipse fill="#a16c5a" fill-opacity="0.501961" cx="0" cy="0" rx="1" ry="1" /></g>
<g transform="translate(166.167035 5.787832) rotate(98.014759) scale(5.401850 48.030757)"><ellipse fill="#f1c6b0" fill-opacity="0.501961" cx="0" cy="0" rx="1" ry="1" /></g>
<g transform="translate(5.311653 169.000000) rotate(107.948812) scale(7.404791 32.024795)"><ellipse fill="#e4946b" fill-opacity="0.501961" cx="0" cy="0" rx="1" ry="1" /></g>
<g transform="translate(85.215133 99.897881) rotate(173.932452) scale(14.379996 2.366757)"><ellipse fill="#eaa47e" fill-opacity="0.501961" cx="0" cy="0" rx="1" ry="1" /></g>
<g transform="translate(168.367961 83.147167) rotate(50.591901) scale(2.008198 1.000000)"><ellipse fill="#ffecc1" fill-opacity="0.501961" cx="0" cy="0" rx="1" ry="1" /></g>
<g transform="translate(191.497061 91.674660) rotate(144.096422) scale(9.901289 1.971598)"><ellipse fill="#001725" fill-opacity="0.501961" cx="0" cy="0" rx="1" ry="1" /></g>
<g transform="translate(177.185300 45.303634) rotate(362.768792) scale(7.778182 1.000000)"><ellipse fill="#0047aa" fill-opacity="0.501961" cx="0" cy="0" rx="1" ry="1" /></g>
<g transform="translate(168.554853 87.716527) rotate(222.827093) scale(13.273621 1.151607)"><ellipse fill="#061d30" fill-opacity="0.501961" cx="0" cy="0" rx="1" ry="1" /></g>
<g transform="translate(194.848727 58.091223) rotate(85.607094) scale(1.066715 2.720853)"><ellipse fill="#937076" fill-opacity="0.501961" cx="0" cy="0" rx="1" ry="1" /></g>
<g transform="translate(149.859506 74.055143) rotate(215.534542) scale(1.142946 5.576940)"><ellipse fill="#d9d7d8" fill-opacity="0.501961" cx="0" cy="0" rx="1" ry="1" /></g>
<g transform="translate(161.968362 58.682460) rotate(39.667750) scale(1.000000 1.977241)"><ellipse fill="#e6cac4" fill-opacity="0.501961" cx="0" cy="0" rx="1" ry="1" /></g>
<g transform="translate(174.317206 86.118739) rotate(73.785450) scale(1.000000 3.393151)"><ellipse fill="#e5a070" fill-opacity="0.501961" cx="0" cy="0" rx="1" ry="1" /></g>
<g transform="translate(179.190660 50.997715) rotate(88.915180) scale(1.000000 7.777813)"><ellipse fill="#9d7572" fill-opacity="0.501961" cx="0" cy="0" rx="1" ry="1" /></g>
<g transform="translate(200.569028 53.745765) rotate(164.675286) scale(3.421443 1.674531)"><ellipse fill="#c7c5d3" fill-opacity="0.501961" cx="0" cy="0" rx="1" ry="1" /></g>
<g transform="translate(90.908454 51.438980) rotate(107.901556) scale(8.298403 60.533959)"><ellipse fill="#f4c2a5" fill-opacity="0.501961" cx="0" cy="0" rx="1" ry="1" /></g>
<g transform="translate(1.678661 102.749016) rotate(29.493372) scale(50.320438 10.036081)"><ellipse fill="#edaa83" fill-opacity="0.501961" cx="0" cy="0" rx="1" ry="1" /></g>
<g transform="translate(150.490826 60.016464) rotate(108.702807) scale(21.118563 2.368195)"><ellipse fill="#f4c5a8" fill-opacity="0.501961" cx="0" cy="0" rx="1" ry="1" /></g>
<g transform="translate(207.751150 58.597787) rotate(58.802095) scale(3.213513 1.551305)"><ellipse fill="#b18d96" fill-opacity="0.501961" cx="0" cy="0" rx="1" ry="1" /></g>
<g transform="translate(107.212674 91.463961) rotate(-1.182176) scale(11.923933 10.654690)"><ellipse fill="#f2b790" fill-opacity="0.501961" cx="0" cy="0" rx="1" ry="1" /></g>
<g transform="translate(155.383530 88.177431) rotate(301.918585) scale(5.590550 1.000000)"><ellipse fill="#0b2033" fill-opacity="0.501961" cx="0" cy="0" rx="1" ry="1" /></g>
<g transform="translate(238.506350 1.636158) rotate(41.807551) scale(62.316035 17.325480)"><ellipse fill="#f4c6a9" fill-opacity="0.501961" cx="0" cy="0" rx="1" ry="1" /></g>
<g transform="translate(187.272715 54.196738) rotate(86.945645) scale(4.121391 1.000000)"><ellipse fill="#debdb4" fill-opacity="0.501961" cx="0" cy="0" rx="1" ry="1" /></g>
<g transform="translate(169.636190 99.405241) rotate(205.107336) scale(1.848389 4.378159)"><ellipse fill="#00234d" fill-opacity="0.501961" cx="0" cy="0" rx="1" ry="1" /></g>
<g transform="translate(180.603989 99.836039) rotate(260.982162) scale(2.129091 4.189278)"><ellipse fill="#032c5b" fill-opacity="0.501961" cx="0" cy="0" rx="1" ry="1" /></g>
<g transform="translate(205.216252 65.388376) rotate(-6.611872) scale(1.000000 6.107457)"><ellipse fill="#072f71" fill-opacity="0.501961" cx="0" cy="0" rx="1" ry="1" /></g>
<g transform="translate(106.765426 103.132817) rotate(275.082983) scale(1.000000 34.946777)"><ellipse fill="#e79e76" fill-opacity="0.501961" cx="0" cy="0" rx="1" ry="1" /></g>
<g transform="translate(179.858385 92.938581) rotate(42.594062) scale(1.755573 1.991245)"><ellipse fill="#60473d" fill-opacity="0.501961" cx="0" cy="0" rx="1" ry="1" /></g>
<g transform="translate(139.899754 92.717795) rotate(355.770915) scale(1.000000 1.000000)"><ellipse fill="#455f92" fill-opacity="0.501961" cx="0" cy="0" rx="1" ry="1" /></g>
<g transform="translate(193.548332 76.451015) rotate(285.154667) scale(2.006720 3.053382)"><ellipse fill="#553b33" fill-opacity="0.501961" cx="0" cy="0" rx="1" ry="1" /></g>
<g transform="translate(218.163621 69.061395) rotate(247.554538) scale(4.841241 7.408812)"><ellipse fill="#f3c3a9" fill-opacity="0.501961" cx="0" cy="0" rx="1" ry="1" /></g>
<g transform="translate(159.444709 96.207669) rotate(275.756514) scale(3.739586 1.145361)"><ellipse fill="#e0856d" fill-opacity="0.501961" cx="0" cy="0" rx="1" ry="1" /></g>
<g transform="translate(248.738293 169.000000) rotate(347.405380) scale(18.484094 4.165062)"><ellipse fill="#eba277" fill-opacity="0.501961" cx="0" cy="0" rx="1" ry="1" /></g>
</g>
</svg>