<svg height="680" width="1024" xmlns="http://www.w3.org/2000/svg"><path d="m0 0h1024v680h-1024z" fill="#f2bfc8"/><g fill-opacity=".501961" stroke-width="4"><ellipse cx="342" cy="330" fill="#ef5284" rx="228" ry="228"/><ellipse cx="302" cy="582" fill="#ca8330" rx="100" ry="100"/><ellipse cx="626" cy="678" fill="#fffffa" rx="248" ry="248"/><ellipse cx="738" cy="262" fill="#f676ab" rx="168" ry="168"/><ellipse cx="1022" cy="558" fill="#ecfff7" rx="192" ry="192"/><ellipse cx="70" cy="634" fill="#f5fff2" rx="152" ry="152"/><ellipse cx="1022" cy="138" fill="#effffc" rx="160" ry="160"/><ellipse cx="346" cy="2" fill="#f8ffff" rx="144" ry="144"/><ellipse cx="670" cy="2" fill="#f8ffff" rx="132" ry="132"/><ellipse cx="342" cy="486" fill="#692400" rx="40" ry="40"/><ellipse cx="2" cy="2" fill="#effff7" rx="208" ry="208"/><ellipse cx="2" cy="334" fill="#f2fff6" rx="128" ry="128"/><ellipse cx="546" cy="434" fill="#e874ad" rx="100" ry="100"/><ellipse cx="798" cy="390" fill="#f675a7" rx="108" ry="108"/><ellipse cx="666" cy="362" fill="#fff1eb" rx="64" ry="64"/><ellipse cx="170" cy="162" fill="#ee5594" rx="56" ry="56"/><ellipse cx="814" cy="2" fill="#f2ffff" rx="104" ry="104"/><ellipse cx="562" cy="214" fill="#fd9fc5" rx="124" ry="124"/><ellipse cx="530" cy="2" fill="#f5fffd" rx="112" ry="112"/><ellipse cx="1018" cy="322" fill="#eeffef" rx="128" ry="128"/><ellipse cx="838" cy="158" fill="#e46295" rx="60" ry="60"/><ellipse cx="254" cy="654" fill="#a46227" rx="36" ry="36"/><ellipse cx="210" cy="366" fill="#e84f8c" rx="80" ry="80"/><ellipse cx="346" cy="202" fill="#fd97c4" rx="100" ry="100"/><ellipse cx="426" cy="514" fill="#ab5725" rx="28" ry="28"/><ellipse cx="594" cy="162" fill="#e7709d" rx="56" ry="56"/><ellipse cx="782" cy="638" fill="#f4fdee" rx="152" ry="152"/><ellipse cx="254" cy="482" fill="#ffafa2" rx="64" ry="64"/><ellipse cx="326" cy="522" fill="#661d10" rx="28" ry="28"/><ellipse cx="2" cy="178" fill="#f2fae6" rx="128" ry="128"/><ellipse cx="242" cy="586" fill="#9b5c33" rx="32" ry="32"/><ellipse cx="510" cy="678" fill="#fcffe9" rx="140" ry="140"/><ellipse cx="174" cy="446" fill="#f5669f" rx="56" ry="56"/><ellipse cx="374" cy="454" fill="#933601" rx="20" ry="20"/><ellipse cx="322" cy="618" fill="#feb38e" rx="68" ry="68"/><ellipse cx="614" cy="402" fill="#f981b2" rx="56" ry="56"/><ellipse cx="2" cy="434" fill="#ecf3db" rx="120" ry="120"/><ellipse cx="402" cy="162" fill="#e6709b" rx="56" ry="56"/><ellipse cx="234" cy="2" fill="#f0ffee" rx="108" ry="108"/><ellipse cx="874" cy="462" fill="#f774a3" rx="32" ry="32"/><ellipse cx="138" cy="594" fill="#f9fce6" rx="80" ry="80"/><ellipse cx="390" cy="510" fill="#ffc386" rx="28" ry="28"/><ellipse cx="698" cy="186" fill="#f391b7" rx="88" ry="88"/><ellipse cx="518" cy="402" fill="#3d2929" rx="12" ry="12"/><ellipse cx="214" cy="202" fill="#f888b8" rx="96" ry="96"/><ellipse cx="458" cy="470" fill="#ffc2e5" rx="32" ry="32"/><ellipse cx="438" cy="2" fill="#f3feef" rx="108" ry="108"/><ellipse cx="370" cy="562" fill="#ffc5a5" rx="36" ry="36"/><ellipse cx="586" cy="270" fill="#febfcd" rx="64" ry="64"/><ellipse cx="422" cy="534" fill="#933222" rx="16" ry="16"/><ellipse cx="670" cy="334" fill="#f8fff0" rx="36" ry="36"/><ellipse cx="578" cy="530" fill="#ff8dc3" rx="32" ry="32"/><ellipse cx="742" cy="450" fill="#fe9cc0" rx="48" ry="48"/><ellipse cx="378" cy="330" fill="#fa528d" rx="40" ry="40"/><ellipse cx="426" cy="254" fill="#ffb0d8" rx="44" ry="44"/><ellipse cx="730" cy="2" fill="#f3fbed" rx="108" ry="108"/><ellipse cx="1022" cy="62" fill="#eef7ea" rx="140" ry="140"/><ellipse cx="786" cy="370" fill="#ca6688" rx="36" ry="36"/><ellipse cx="194" cy="518" fill="#faffeb" rx="24" ry="24"/><ellipse cx="682" cy="430" fill="#fdfff3" rx="28" ry="28"/><ellipse cx="502" cy="354" fill="#7e4052" rx="16" ry="16"/><ellipse cx="346" cy="486" fill="#682410" rx="24" ry="24"/><ellipse cx="338" cy="386" fill="#ff93af" rx="72" ry="72"/><ellipse cx="242" cy="618" fill="#9f6a41" rx="28" ry="28"/><ellipse cx="1022" cy="378" fill="#eeede3" rx="128" ry="128"/><ellipse cx="478" cy="430" fill="#80535f" rx="16" ry="16"/><ellipse cx="758" cy="178" fill="#d67699" rx="40" ry="40"/><ellipse cx="258" cy="146" fill="#ef709e" rx="40" ry="40"/><ellipse cx="490" cy="178" fill="#fa95bd" rx="72" ry="72"/><ellipse cx="614" cy="322" fill="#fafff0" rx="20" ry="20"/><ellipse cx="874" cy="126" fill="#ff7aac" rx="28" ry="28"/><ellipse cx="286" cy="490" fill="#f6a57b" rx="44" ry="44"/><ellipse cx="194" cy="182" fill="#d56f91" rx="40" ry="40"/><ellipse cx="298" cy="226" fill="#ffa0c4" rx="72" ry="72"/><ellipse cx="458" cy="526" fill="#fffff9" rx="16" ry="16"/><ellipse cx="230" cy="454" fill="#ff75c0" rx="36" ry="36"/><ellipse cx="738" cy="322" fill="#ff6899" rx="32" ry="32"/><ellipse cx="278" cy="318" fill="#fc528a" rx="32" ry="32"/><ellipse cx="222" cy="554" fill="#995732" rx="16" ry="16"/><ellipse cx="966" cy="618" fill="#edeee3" rx="148" ry="148"/><ellipse cx="170" cy="258" fill="#ffa1cb" rx="44" ry="44"/><ellipse cx="670" cy="558" fill="#fdfaef" rx="68" ry="68"/><ellipse cx="490" cy="394" fill="#955a6b" rx="16" ry="16"/><ellipse cx="566" cy="374" fill="#4c1921" rx="8" ry="8"/><ellipse cx="450" cy="506" fill="#800300" rx="8" ry="8"/><ellipse cx="142" cy="482" fill="#f8748e" rx="24" ry="24"/><ellipse cx="578" cy="2" fill="#f4f6ec" rx="108" ry="108"/><ellipse cx="406" cy="330" fill="#f65f93" rx="40" ry="40"/><ellipse cx="2" cy="546" fill="#ede7d5" rx="136" ry="136"/><ellipse cx="866" cy="310" fill="#ff6f9a" rx="32" ry="32"/><ellipse cx="146" cy="130" fill="#ff6da2" rx="24" ry="24"/><ellipse cx="582" cy="430" fill="#855965" rx="12" ry="12"/><ellipse cx="274" cy="550" fill="#ffab7e" rx="36" ry="36"/><ellipse cx="158" cy="322" fill="#f85588" rx="36" ry="36"/><ellipse cx="562" cy="490" fill="#ffa3cc" rx="60" ry="60"/><ellipse cx="154" cy="410" fill="#a14662" rx="16" ry="16"/><ellipse cx="834" cy="2" fill="#f3f2ea" rx="104" ry="104"/><ellipse cx="342" cy="130" fill="#ff689f" rx="20" ry="20"/><ellipse cx="338" cy="310" fill="#ff3264" rx="16" ry="16"/><ellipse cx="650" cy="142" fill="#ff90ba" rx="40" ry="40"/><ellipse cx="526" cy="366" fill="#7c4654" rx="12" ry="12"/><ellipse cx="598" cy="178" fill="#d27595" rx="32" ry="32"/><ellipse cx="514" cy="246" fill="#ffaccf" rx="52" ry="52"/><ellipse cx="322" cy="374" fill="#ffa8d1" rx="32" ry="32"/><ellipse cx="1010" cy="246" fill="#f0ece4" rx="116" ry="116"/><ellipse cx="378" cy="254" fill="#ffaace" rx="44" ry="44"/><ellipse cx="338" cy="442" fill="#fdb05f" rx="20" ry="20"/><ellipse cx="446" cy="162" fill="#f183ac" rx="56" ry="56"/><ellipse cx="282" cy="414" fill="#da4d8a" rx="20" ry="20"/><ellipse cx="146" cy="650" fill="#fcf4e9" rx="76" ry="76"/><ellipse cx="234" cy="666" fill="#a16b30" rx="16" ry="16"/><ellipse cx="162" cy="2" fill="#efefe5" rx="112" ry="112"/><ellipse cx="230" cy="378" fill="#8f3451" rx="12" ry="12"/><ellipse cx="674" cy="230" fill="#f7a4c2" rx="80" ry="80"/><ellipse cx="342" cy="6" fill="#f3f3ea" rx="104" ry="104"/><ellipse cx="494" cy="638" fill="#fbf3e7" rx="112" ry="112"/><ellipse cx="642" cy="194" fill="#cd678b" rx="16" ry="16"/><ellipse cx="430" cy="502" fill="#8a2b2a" rx="12" ry="12"/><ellipse cx="462" cy="350" fill="#ff96cd" rx="28" ry="28"/><ellipse cx="370" cy="462" fill="#580d0c" rx="12" ry="12"/><ellipse cx="330" cy="518" fill="#752c20" rx="24" ry="24"/><ellipse cx="394" cy="486" fill="#fcb187" rx="24" ry="24"/><ellipse cx="462" cy="314" fill="#ff5189" rx="20" ry="20"/><ellipse cx="218" cy="510" fill="#f7ffed" rx="12" ry="12"/><ellipse cx="2" cy="246" fill="#f3efe3" rx="116" ry="116"/><ellipse cx="638" cy="390" fill="#ff8dbd" rx="36" ry="36"/><ellipse cx="738" cy="370" fill="#f693b9" rx="36" ry="36"/><ellipse cx="186" cy="346" fill="#aa274f" rx="12" ry="12"/><ellipse cx="402" cy="446" fill="#ec884e" rx="16" ry="16"/><ellipse cx="838" cy="174" fill="#ce7997" rx="36" ry="36"/><ellipse cx="846" cy="210" fill="#ed92b8" rx="52" ry="52"/><ellipse cx="742" cy="138" fill="#fb7ca9" rx="36" ry="36"/><ellipse cx="234" cy="158" fill="#b04265" rx="12" ry="12"/><ellipse cx="170" cy="458" fill="#ff81b1" rx="40" ry="40"/><ellipse cx="554" cy="414" fill="#af6f84" rx="16" ry="16"/><ellipse cx="482" cy="410" fill="#ffb1db" rx="12" ry="12"/><ellipse cx="206" cy="202" fill="#9f3e5e" rx="12" ry="12"/><ellipse cx="690" cy="390" fill="#f8fff2" rx="16" ry="16"/><ellipse cx="438" cy="522" fill="#fccdc0" rx="12" ry="12"/><ellipse cx="514" cy="446" fill="#6b4c54" rx="8" ry="8"/><ellipse cx="522" cy="406" fill="#764553" rx="12" ry="12"/><ellipse cx="434" cy="534" fill="#ca5242" rx="12" ry="12"/><ellipse cx="270" cy="618" fill="#ce9168" rx="32" ry="32"/><ellipse cx="266" cy="162" fill="#be4d71" rx="12" ry="12"/><ellipse cx="286" cy="130" fill="#ff82b1" rx="24" ry="24"/><ellipse cx="522" cy="430" fill="#ffb9db" rx="16" ry="16"/><ellipse cx="206" cy="378" fill="#7a2741" rx="8" ry="8"/><ellipse cx="270" cy="378" fill="#ff8ec2" rx="24" ry="24"/><ellipse cx="802" cy="346" fill="#c24e71" rx="16" ry="16"/><ellipse cx="382" cy="186" fill="#d87b9c" rx="36" ry="36"/><ellipse cx="534" cy="330" fill="#ff88b3" rx="32" ry="32"/><ellipse cx="490" cy="442" fill="#a66d80" rx="16" ry="16"/><ellipse cx="414" cy="554" fill="#fffff6" rx="12" ry="12"/><ellipse cx="518" cy="394" fill="#ff9dc6" rx="8" ry="8"/><ellipse cx="594" cy="358" fill="#ff87b8" rx="28" ry="28"/><ellipse cx="594" cy="434" fill="#261111" rx="4" ry="4"/><ellipse cx="546" cy="134" fill="#ff87b5" rx="28" ry="28"/><ellipse cx="386" cy="362" fill="#ee74a8" rx="48" ry="48"/><ellipse cx="510" cy="182" fill="#feacc9" rx="40" ry="40"/><ellipse cx="770" cy="198" fill="#aa4a6a" rx="12" ry="12"/><ellipse cx="158" cy="202" fill="#b24e6e" rx="12" ry="12"/><ellipse cx="738" cy="454" fill="#fb9dbf" rx="40" ry="40"/><ellipse cx="434" cy="418" fill="#ff96c8" rx="28" ry="28"/><ellipse cx="266" cy="410" fill="#a84563" rx="12" ry="12"/><ellipse cx="570" cy="202" fill="#ba5679" rx="12" ry="12"/><ellipse cx="794" cy="314" fill="#ff739e" rx="32" ry="32"/><ellipse cx="850" cy="442" fill="#f48db7" rx="52" ry="52"/><ellipse cx="670" cy="490" fill="#fdf8ec" rx="40" ry="40"/><ellipse cx="334" cy="646" fill="#edb48e" rx="44" ry="44"/><ellipse cx="490" cy="486" fill="#ffb4d7" rx="32" ry="32"/><ellipse cx="566" cy="402" fill="#ffa8cf" rx="16" ry="16"/><ellipse cx="154" cy="554" fill="#f6eede" rx="56" ry="56"/><ellipse cx="1002" cy="154" fill="#f0ebe6" rx="112" ry="112"/><ellipse cx="814" cy="122" fill="#ff95bf" rx="24" ry="24"/><ellipse cx="230" cy="582" fill="#a16741" rx="20" ry="20"/><ellipse cx="438" cy="162" fill="#c44c71" rx="12" ry="12"/><ellipse cx="314" cy="498" fill="#c96a55" rx="20" ry="20"/><ellipse cx="186" cy="154" fill="#f97fab" rx="44" ry="44"/><ellipse cx="590" cy="318" fill="#f9ffe7" rx="12" ry="12"/><ellipse cx="290" cy="478" fill="#ffc198" rx="24" ry="24"/><ellipse cx="326" cy="178" fill="#feb5cd" rx="28" ry="28"/><ellipse cx="770" cy="250" fill="#f7a6cb" rx="44" ry="44"/><ellipse cx="586" cy="158" fill="#b94c6f" rx="12" ry="12"/><ellipse cx="562" cy="378" fill="#6a3845" rx="8" ry="8"/><ellipse cx="826" cy="394" fill="#c9678a" rx="16" ry="16"/><ellipse cx="814" cy="194" fill="#b95576" rx="12" ry="12"/><ellipse cx="630" cy="434" fill="#ffb6d4" rx="24" ry="24"/><ellipse cx="798" cy="370" fill="#ffadd4" rx="12" ry="12"/><ellipse cx="1022" cy="438" fill="#eee8e0" rx="128" ry="128"/><ellipse cx="858" cy="150" fill="#be4c6e" rx="12" ry="12"/><ellipse cx="498" cy="2" fill="#f4f0eb" rx="108" ry="108"/><ellipse cx="462" cy="422" fill="#804656" rx="8" ry="8"/><ellipse cx="302" cy="450" fill="#fbb279" rx="20" ry="20"/><ellipse cx="174" cy="414" fill="#a94767" rx="12" ry="12"/><ellipse cx="858" cy="342" fill="#fa8eb9" rx="40" ry="40"/><ellipse cx="614" cy="194" fill="#ad4266" rx="8" ry="8"/><ellipse cx="594" cy="178" fill="#ffb5d7" rx="12" ry="12"/><ellipse cx="734" cy="198" fill="#c15a7f" rx="12" ry="12"/><ellipse cx="750" cy="394" fill="#d1688c" rx="16" ry="16"/><ellipse cx="374" cy="182" fill="#ffb1d4" rx="12" ry="12"/><ellipse cx="510" cy="418" fill="#ffa7cc" rx="12" ry="12"/><ellipse cx="190" cy="378" fill="#ab4569" rx="12" ry="12"/><ellipse cx="218" cy="254" fill="#fe96c2" rx="40" ry="40"/><ellipse cx="234" cy="626" fill="#966337" rx="16" ry="16"/><ellipse cx="278" cy="342" fill="#c43764" rx="12" ry="12"/><ellipse cx="330" cy="478" fill="#83371c" rx="12" ry="12"/><ellipse cx="730" cy="302" fill="#fd4972" rx="12" ry="12"/><ellipse cx="518" cy="382" fill="#ffacd1" rx="12" ry="12"/><ellipse cx="466" cy="342" fill="#ff90be" rx="28" ry="28"/><ellipse cx="430" cy="306" fill="#ff3b66" rx="12" ry="12"/><ellipse cx="214" cy="410" fill="#ae4667" rx="12" ry="12"/><ellipse cx="458" cy="198" fill="#d06f90" rx="16" ry="16"/><ellipse cx="2" cy="138" fill="#efeae1" rx="124" ry="124"/><ellipse cx="386" cy="522" fill="#ffa080" rx="28" ry="28"/><ellipse cx="834" cy="154" fill="#bf4a6d" rx="12" ry="12"/><ellipse cx="366" cy="306" fill="#f83758" rx="12" ry="12"/><ellipse cx="798" cy="178" fill="#feb4d3" rx="12" ry="12"/><ellipse cx="318" cy="338" fill="#ffd0d9" rx="12" ry="12"/><ellipse cx="274" cy="254" fill="#fd8ab6" rx="44" ry="44"/><ellipse cx="142" cy="266" fill="#faa2c1" rx="32" ry="32"/><ellipse cx="622" cy="326" fill="#fcfce9" rx="20" ry="20"/><ellipse cx="10" cy="358" fill="#f2e9e0" rx="116" ry="116"/><ellipse cx="430" cy="594" fill="#fff7ec" rx="40" ry="40"/><ellipse cx="450" cy="502" fill="#b23f3e" rx="8" ry="8"/><ellipse cx="674" cy="6" fill="#f4f0eb" rx="104" ry="104"/><ellipse cx="838" cy="190" fill="#9f3b5a" rx="8" ry="8"/><ellipse cx="606" cy="386" fill="#fe97c0" rx="40" ry="40"/><ellipse cx="674" cy="154" fill="#fc9ec1" rx="48" ry="48"/><ellipse cx="766" cy="374" fill="#ffa0c7" rx="16" ry="16"/><ellipse cx="690" cy="362" fill="#f8ffef" rx="16" ry="16"/><ellipse cx="570" cy="678" fill="#f4eade" rx="84" ry="84"/><ellipse cx="178" cy="162" fill="#c6547a" rx="12" ry="12"/><ellipse cx="854" cy="246" fill="#f49ec4" rx="44" ry="44"/><ellipse cx="270" cy="678" fill="#d48e62" rx="32" ry="32"/><ellipse cx="266" cy="438" fill="#ff7aba" rx="20" ry="20"/><ellipse cx="762" cy="354" fill="#ca4f77" rx="12" ry="12"/><ellipse cx="750" cy="178" fill="#ffb6d7" rx="12" ry="12"/><ellipse cx="802" cy="394" fill="#b14e6f" rx="12" ry="12"/><ellipse cx="446" cy="522" fill="#fff" rx="8" ry="8"/><ellipse cx="366" cy="442" fill="#ec8954" rx="16" ry="16"/><ellipse cx="366" cy="162" fill="#d45b83" rx="16" ry="16"/><ellipse cx="230" cy="542" fill="#cd7d4d" rx="16" ry="16"/><ellipse cx="242" cy="342" fill="#b8204d" rx="8" ry="8"/><ellipse cx="370" cy="134" fill="#ff85b4" rx="24" ry="24"/><ellipse cx="386" cy="358" fill="#c45175" rx="12" ry="12"/><ellipse cx="834" cy="530" fill="#f4ece5" rx="44" ry="44"/><ellipse cx="146" cy="378" fill="#ef85ad" rx="28" ry="28"/><ellipse cx="574" cy="178" fill="#ffadd0" rx="12" ry="12"/><ellipse cx="234" cy="650" fill="#97653a" rx="12" ry="12"/><ellipse cx="574" cy="302" fill="#f2a384" rx="12" ry="12"/><ellipse cx="162" cy="382" fill="#a83a60" rx="8" ry="8"/><ellipse cx="490" cy="374" fill="#ffa0c5" rx="12" ry="12"/><ellipse cx="418" cy="206" fill="#c56182" rx="12" ry="12"/><ellipse cx="254" cy="514" fill="#f6b98c" rx="28" ry="28"/><ellipse cx="394" cy="182" fill="#fac" rx="12" ry="12"/><ellipse cx="774" cy="394" fill="#b45273" rx="12" ry="12"/><ellipse cx="826" cy="366" fill="#f29bbf" rx="20" ry="20"/><ellipse cx="170" cy="182" fill="#f99ec4" rx="16" ry="16"/><ellipse cx="826" cy="298" fill="#fc3e62" rx="8" ry="8"/><ellipse cx="186" cy="670" fill="#fff9ec" rx="36" ry="36"/><ellipse cx="758" cy="298" fill="#f93a58" rx="8" ry="8"/><ellipse cx="558" cy="202" fill="#d56e94" rx="12" ry="12"/><ellipse cx="458" cy="390" fill="#ff9ecb" rx="16" ry="16"/><ellipse cx="406" cy="254" fill="#ffa1c6" rx="44" ry="44"/><ellipse cx="606" cy="302" fill="#f2a58c" rx="12" ry="12"/><ellipse cx="550" cy="306" fill="#f0ac87" rx="12" ry="12"/><ellipse cx="218" cy="182" fill="#ffa6cd" rx="12" ry="12"/><ellipse cx="350" cy="502" fill="#4d0f0a" rx="12" ry="12"/><ellipse cx="190" cy="594" fill="#fef8ef" rx="24" ry="24"/><ellipse cx="390" cy="306" fill="#f8214b" rx="8" ry="8"/><ellipse cx="210" cy="346" fill="#c02b59" rx="8" ry="8"/><ellipse cx="590" cy="130" fill="#ff99c2" rx="24" ry="24"/><ellipse cx="370" cy="462" fill="#852e24" rx="16" ry="16"/><ellipse cx="406" cy="166" fill="#c95c80" rx="12" ry="12"/><ellipse cx="442" cy="254" fill="#fea0c4" rx="48" ry="48"/><ellipse cx="314" cy="322" fill="#ffe2db" rx="8" ry="8"/><ellipse cx="178" cy="202" fill="#bd5679" rx="12" ry="12"/><ellipse cx="682" cy="414" fill="#fbf9eb" rx="20" ry="20"/><ellipse cx="758" cy="158" fill="#c66183" rx="12" ry="12"/><ellipse cx="426" cy="134" fill="#ff89b9" rx="24" ry="24"/><ellipse cx="218" cy="134" fill="#ff7fb0" rx="24" ry="24"/><ellipse cx="870" cy="298" fill="#f7567d" rx="12" ry="12"/><ellipse cx="426" cy="330" fill="#ff82b6" rx="20" ry="20"/><ellipse cx="582" cy="422" fill="#351318" rx="4" ry="4"/><ellipse cx="186" cy="454" fill="#ff82b2" rx="36" ry="36"/><ellipse cx="546" cy="390" fill="#fea5c8" rx="16" ry="16"/><ellipse cx="278" cy="378" fill="#fd7dae" rx="32" ry="32"/><ellipse cx="242" cy="378" fill="#b4486c" rx="12" ry="12"/><ellipse cx="410" cy="466" fill="#feb893" rx="16" ry="16"/><ellipse cx="730" cy="330" fill="#ff8ebb" rx="24" ry="24"/><ellipse cx="506" cy="402" fill="#653645" rx="8" ry="8"/><ellipse cx="782" cy="42" fill="#f3eeea" rx="64" ry="64"/><ellipse cx="490" cy="390" fill="#401922" rx="4" ry="4"/><ellipse cx="550" cy="422" fill="#552732" rx="4" ry="4"/><ellipse cx="374" cy="562" fill="#ffbc9e" rx="24" ry="24"/><ellipse cx="422" cy="354" fill="#d14e75" rx="12" ry="12"/><ellipse cx="482" cy="134" fill="#ff83b3" rx="24" ry="24"/><ellipse cx="422" cy="538" fill="#79231b" rx="8" ry="8"/><ellipse cx="462" cy="306" fill="#ff295f" rx="8" ry="8"/><ellipse cx="178" cy="494" fill="#da8d56" rx="8" ry="8"/></g></svg>