<svg height="632" width="1024" xmlns="http://www.w3.org/2000/svg"><path d="m0 0h1024v632h-1024z" fill="#1b81a8"/><g fill-opacity=".501961" transform="matrix(4 0 0 4 2 2)"><path d="m271-2.055676-287-1.547709v30.256395l287-14.685529z" fill="#eee4e8"/><path d="m-16 154.686644 262.70955 18.313356 24.29045-103.126131-248.0792-13.369914z" fill="#005f8d"/><path d="m155.81115 47.81624 115.18885-35.138889-287-.243588 44.079307 44.731284z" fill="#53abd0"/><path d="m164.573094 135.21614 101.391372 37.78386-164.914597-15.075485 73.396848-18.702159z" fill="#00314e"/><path d="m271 37.828946-137.827138 67.185314-144.634991-1.190529-4.537871-41.105139z" fill="#0086b5"/><path d="m271 93.282064-273.339835 14.802702-13.660165 23.268047 96.879059 40.335117z" fill="#00668f"/><path d="m271 59.385825-77.68964-49.939578-41.89999 5.636253 63.423355 67.99431z" fill="#0087b7"/><path d="m-16 7.321565 218.900252 5.761917 56.522308 15.043124-10.461484-44.126606z" fill="#b0c0cb"/><path d="m218.690119 17.74384-234.690119-5.642178 80.80285 37.852502 90.223719 1.730552z" fill="#489dc1"/><path d="m78.590738 105.536473 65.234438 17.957438-70.367741 7.647474-33.713041-20.355539z" fill="#005076"/><path d="m39.423832 36.229836-55.423832 2.146722 15.768109 29.381328 45.943822-22.759668z" fill="#0080b0"/><path d="m192.806108 147.636226 50.197574 8.76125 27.996318-13.667328-65.223666-25.858128z" fill="#098db2"/><path d="m252.208514 130.067375 18.791486-60.54192-106.283811-6.341775-101.577748 94.400993z" fill="#006f9a"/><path d="m271 22.732596-72.303322 8.558673-42.670476 20.001421 106.117772 15.838182z" fill="#0083b3"/><path d="m260.020653 14.063141-40.842051-.67773-39.226054 15.559706 86.511181-4.641888z" fill="#459fc5"/><path d="m53.903417 43.787286 26.555165 11.469773 8.103355.206858-2.210914-15.071971z" fill="#75adc6"/><path d="m101.817678 45.179087 20.872464-4.468593 28.31264-.644584-29.876389 9.814335z" fill="#76afc8"/><path d="m190.933883 148.330566-42.821583 12.236145 106.653634-5.042298-7.615799 17.475587z" fill="#003b59"/><path d="m174.904462 82.278223-7.678337-24.973629-83.170935-8.692302 13.569227-7.972266z" fill="#0084b2"/><path d="m27.429955-16-43.429955 26.36356 89.021594.861565 84.512794 4.442147z" fill="#a7becb"/><path d="m207.106607 76.922411-88.802154 5.414708 126.570335 43.007601 26.125212-38.436831z" fill="#006490"/><path d="m172.549566 10.683474 1.128845 40.098046-10.758453-18.422069-68.653348-4.616668z" fill="#2590bc"/><path d="m214.6971 131.377687-174.670751 15.006916-47.047924-12.917245-6.644027 38.594607z" fill="#007da4"/><path d="m46.494798 9.236257-22.508438 28.94142-39.98636-10.175533 83.277841-9.100421z" fill="#63a9c7"/><path d="m190.898914 145.448505 35.948543 10.667336-6.189224 2.707695 50.341767-13.405481z" fill="#2e8aae"/><path d="m191.085943 94.630689-21.99959-6.292925-119.324174 6.453839 111.077076 30.028889z" fill="#007ba6"/><path d="m-16 101.554915 68.3546 2.56857-6.742117 6.823332-36.67797-9.774864z" fill="#1c98bf"/><path d="m74.526474 155.450329 6.872191-4.480735 90.191797 22.030406h-113.03619z" fill="#004867"/><path d="m-16 117.595236v-9.897811l32.126931-5.689055 15.74796 8.672353z" fill="#00547c"/><path d="m166.172694 36.478258-13.357692 18.132631-16.225673-9.410619-67.81737-4.669549z" fill="#58a2c3"/><path d="m-7.022025 36.965586 118.30381 65.337587-127.281785-34.221866 49.373098-30.873445z" fill="#0084b0"/><path d="m-13.944501 76.000038 31.227053-4.779788-7.599149 13.184419-19.211346 14.444136z" fill="#3b95bc"/><path d="m148.816327-16 104.132156 15.18196-95.669917 14.310993-45.898058 3.216685z" fill="#aabecb"/><path d="m40.435301 83.51705-23.078728-1.590199-20.681679 11.001492 66.733077 1.569266z" fill="#006994"/><path d="m53.88104 84.946663 11.126059 10.552241 17.28473-1.800407-9.759421-6.248625z" fill="#2994bc"/><path d="m227.553594 67.630944 20.192698-6.312099-26.378253-1.817196-66.987521 2.099416z" fill="#2891bb"/><path d="m196.766595 10.321479-16.464742.412786 76.174218 49.194027-69.749642-3.813741z" fill="#0183b1"/><path d="m50.967161 73.264324 46.109359-11.353187-113.07652-.038939 23.660253-15.020055z" fill="#006d9b"/><path d="m56.649 111.897026 46.428393 19.501213 47.472632-4.707325-19.759083-13.158213z" fill="#00587f"/><path d="m107.606455 57.611729-41.049929-4.920159 31.903885 10.882148 61.931343-2.579517z" fill="#2693bb"/><path d="m271 87.330061-100.324302 15.483986-115.463966-2.485949 144.278662 10.037219z" fill="#00618c"/><path d="m262.426949 54.071012-32.300063 13.874264-125.493619-5.497412 166.366733 22.265262z" fill="#0079a9"/><path d="m188.86453 155.76294-107.034154 17.23706 20.392021-6.028472 26.823046-21.850411z" fill="#005274"/><path d="m271 25.660887-90.540048 7.068446-15.83253 28.533568 94.670454-8.207141z" fill="#0083b1"/><path d="m77.806466 56.527664-93.806466 1.149007 130.104086 33.037164 19.905642-.851705z" fill="#0075a2"/><path d="m148.558829 51.111213-35.857557-1.835797-27.606703 7.30878 19.161887 4.611003z" fill="#0086b3"/><path d="m233.088212 153.608037 31.234843 6.623099-65.691969 12.768864 21.929251-8.739062z" fill="#04405e"/><path d="m231.76015 27.926974-36.382239-2.224673 52.321863-12.865619 16.947402 4.170433z" fill="#4c9fc2"/><path d="m104.876332 51.863184-93.727396-3.771478-27.148936-8.827582 53.075756 17.943218z" fill="#4298bd"/><path d="m107.510046 156.968317 20.677993-9.0492-30.917974-.973083-12.827402.827604z" fill="#0487ad"/><path d="m-16 116.685034 26.076006 33.116709 102.145162-7.619771-67.945722-30.660282z" fill="#006b95"/><path d="m111.495949 81.984473 32.885213-1.096303 30.398101-8.980319-55.48442 1.745883z" fill="#058cb7"/><path d="m195.379758 137.139721-8.898606-42.605715 30.796416 6.326921-52.544394 22.383686z" fill="#005e86"/><path d="m150.276563 127.861132-19.160066 17.026221 16.859499 3.482982 30.523992-12.658749z" fill="#007da4"/><path d="m80.807477 41.297388 15.108757.832763-20.440298 9.891699-20.623955-19.920753z" fill="#6aa9c4"/><path d="m210.367543 145.20131 23.368603-34.174924-31.609267 2.708369-19.960662 29.70241z" fill="#0079a2"/><path d="m119.995209 34.289629-38.86374-6.243399-9.02878-7.468412 30.190932-1.636119z" fill="#2e93bc"/><path d="m174.686764 137.724377-37.447787 16.500332 19.904766-5.279403 57.516866 8.887234z" fill="#00476a"/><path d="m187.473076 14.564617 26.904616-1.252983-23.542769 20.180374-41.644845-17.013988z" fill="#3094bf"/><path d="m251.762508 104.984845-24.814307 29.696569 44.051799 8.204466-46.372083-44.984796z" fill="#0078a0"/><path d="m237.589943 15.459768 16.972733-5.876734-33.552742 16.773223-11.801005-14.185131z" fill="#67aac7"/><path d="m190.740536 71.498506 34.222337 14.883602-49.66427-.508603-7.005907 3.635393z" fill="#005d8b"/><path d="m114.146575 23.365721 13.237024-3.567443-16.478889-6.980152-24.450837-3.019314z" fill="#6bacc7"/><path d="m-16 59.567045v-36.378317l18.575839-9.124122 15.3431 2.372259z" fill="#439dc3"/><path d="m144.972343 54.242163 29.194174-10.456069-47.93723.135729 25.748562-4.460249z" fill="#51a1c2"/><path d="m-12.49071 92.194069 27.584826 10.976041 61.807695 3.715575-64.81404-17.114768z" fill="#0086af"/><path d="m94.028001-16 82.882935 30.897901 3.12044-6.305055 32.272325 5.77887z" fill="#9fbccb"/><path d="m132.064529 106.548506-1.639351-3.22204-61.6522-11.626022 93.010223 3.585908z" fill="#0284b0"/><path d="m9.984072 36.898408 39.694895 11.749909-65.678967-3.609974 6.44737-12.913818z" fill="#028cb9"/><path d="m-1.371947-16 151.767028 32.998611 86.608067-32.998611-236.24075 22.98558z" fill="#a4bdcb"/><path d="m236.388835-16-.231533 25.269902 26.804575 7.531092 7.350952-18.270442z" fill="#94aab9"/><path d="m43.113831 123.542379 43.083422-19.7684 12.171703 12.170851-3.129156 5.643753z" fill="#00547b"/><path d="m197.282637 147.475171 72.346639 2.186681-34.149833 6.180107-7.711538-2.693688z" fill="#298aaf"/><path d="m53.581951 69.394472 72.257158 45.50685-19.60989-.094205-20.00121-44.50776z" fill="#007eaa"/><path d="m214.934194 28.420719 35.925394-4.062819 2.20583 21.479607-55.471051-19.690704z" fill="#008ab7"/><path d="m129.829696 49.375214-45.982145 1.423779 17.404876-9.507547 10.591891 19.406705z" fill="#0686b2"/><path d="m217.291653 122.970322 26.376598-11.905388 8.565073-.30335 18.766676 6.963527z" fill="#006289"/><path d="m255.925459 61.289215 15.074541 5.120549-34.01326 5.665954-.371252-7.735233z" fill="#006e9c"/><path d="m104.754116 43.908927 11.201896 4.255033 9.201117-2.405206 15.261437-3.378198z" fill="#77afc8"/><path d="m215.410698 160.62932-20.025445-13.944047 25.34495 7.334175 8.925337 13.205862z" fill="#006183"/><path d="m200.785136 15.472803 7.5003-2.450763 38.771444-7.601802-75.626643-21.065384z" fill="#a5bbc9"/><path d="m110.189118 57.534145 30.343379 4.039109-25.067834.43745-21.211297 3.865016z" fill="#2a8fb8"/><path d="m162.032735 52.052781-50.991058 3.713989 74.621056 4.14167 17.667731-32.349502z" fill="#0082af"/><path d="m138.269829 116.996963-5.777407-6.555542 25.540221 13.042912 28.04449-11.702155z" fill="#0081ab"/><path d="m75.531818 153.748912-78.557507-8.665243-12.974311 6.789223 77.055495 16.028844z" fill="#007da5"/><path d="m187.324359 81.454961-68.749847 8.905987-12.155854-3.243487 7.918581-4.678129z" fill="#006795"/><path d="m60.977558 46.719016-19.53944-10.625343 5.69688 17.668195-56.272894-7.905085z" fill="#2890b9"/><path d="m178.764216 81.139638 12.473367-14.39337-144.252252 3.925223 115.160228 6.699312z" fill="#007eac"/><path d="m97.717754 25.2979 91.034485 3.396261 10.604402-16.968707-51.441745 4.95765z" fill="#2b93bd"/><path d="m56.573922 50.776278 5.54983 4.53745-47.894058-5.33891 20.288112 8.189944z" fill="#4999bc"/><path d="m29.098631 113.897122 25.629699-6.5656-10.8609 34.066382 83.013073-11.953429z" fill="#00648e"/><path d="m153.345297 43.296149 21.504045 1.984382 19.564856-21.199814 12.969507.490757z" fill="#2e94bc"/><path d="m72.149021 32.827316-70.120092-.852794 55.564692 6.245183 36.693562 4.906271z" fill="#4f9ec0"/><path d="m193.434068 173-59.145642-27.331018-42.706507 19.701089 75.85712-24.335484z" fill="#005175"/><path d="m100.556809 114.689762.328521-15.707252-29.162413-3.27874-42.35466-16.059901z" fill="#007099"/><path d="m189.320927 96.137402-1.411257 6.652382-30.48746-2.253568-23.174082-8.225833z" fill="#007da9"/><path d="m185.663448 137.312981 33.963069 3.513396-39.436109-18.785876-76.544499 6.622982z" fill="#006b95"/><path d="m259.72397 30.081998-18.713984-11.721688 7.594087-6.475224 14.758667 8.086745z" fill="#4898bb"/><path d="m29.505873 84.141176 11.535248-22.335937-28.214553 7.152952.003825 11.084748z" fill="#0488b2"/><path d="m228.931941 109.014736 1.284874-6.642639-41.621521-4.763528-2.758986 7.580517z" fill="#005c85"/><path d="m195.485007 147.497911 40.6219 25.502089h-49.005986l-8.827048-25.8932z" fill="#003e5f"/><path d="m26.165299 33.351206-3.98467-4.518862 31.962989-5.476087 14.251846-1.485249z" fill="#3494bc"/><path d="m213.908997 81.341229-27.355361-15.089488 78.775266 18.451775-19.154076-13.57409z" fill="#007dab"/><path d="m68.898456 59.010263 31.912169 4.889194 53.289322 1.030233-127.88933 8.382615z" fill="#0073a0"/><path d="m160.559274 110.981304-26.290544-4.085713 12.190052-5.641752 37.056754 1.574842z" fill="#006490"/><path d="m12.145432 32.015431-9.028667-13.947986 14.574915 4.493493 44.327402-5.060662z" fill="#5da6c5"/><path d="m58.15525 89.394192 13.471673 7.446195-1.602601-9.733582-13.902538 1.44082z" fill="#2c8fb8"/><path d="m222.737045 139.616096 48.262955 28.864759-68.095371-53.402531 10.078269 30.747902z" fill="#0481aa"/><path d="m230.765809 155.035034 40.234191 6.696541-28.608832 8.430595-15.045099-9.939909z" fill="#003454"/><path d="m120.963738 48.640278-8.842739.091583-7.014806-2.536954 33.280407-2.337524z" fill="#70adc5"/><path d="m137.467177 48.989371 30.686541 10.625516-3.305857.751578-77.34122-6.108963z" fill="#0086b2"/><path d="m248.425394 98.998357-17.54998 6.279465 8.261994 1.41492 24.635625 7.937266z" fill="#0078a2"/><path d="m251.792924 151.307299-27.36087-5.274224-2.965549 17.390836 8.136514-8.971693z" fill="#2989ad"/><path d="m17.134482 132.173503-33.134482-22.181174 65.449544 23.544201-24.331 18.620385z" fill="#00719b"/><path d="m192.335168 32.498435-18.951629 11.854149 59.921305 2.055861 3.139415-9.490525z" fill="#007fac"/><path d="m17.655105 73.661113 207.332607-6.75377-79.956412-5.092332-28.567507 2.84577z" fill="#0079a7"/><path d="m151.964477 10.413892-42.7585-2.785987-110.851711-.278336 98.833568 4.579245z" fill="#95b9c9"/><path d="m54.183921 54.716635-23.19221.133882 35.537555-8.305191.318373 9.509637z" fill="#4799bc"/><path d="m169.462379 62.840953 39.712596 1.400248 25.784189 4.40504-4.735123-6.943234z" fill="#2b90ba"/><path d="m199.599166 133.607228-16.848827-12.672075-5.30598-6.272355-8.934162 6.887588z" fill="#005e86"/><path d="m176.205382 131.167215-9.349629 8.787334-10.548882 5.988148-30.430598-12.568526z" fill="#007ba4"/><path d="m75.51058-1.003907-56.791244-14.996093-34.719336 23.430663 39.803915-3.455517z" fill="#aabecb"/><path d="m17.07996 79.468456-33.07996 3.776788v6.499551l18.648304-1.106241z" fill="#3491b8"/><path d="m15.380551 20.15116 1.296536-9.374132 4.668448 5.555797 77.190433 20.845558z" fill="#4b9fc1"/><path d="m60.482532 92.941117-42.393268-6.875145 19.885324-2.55484 18.545917 5.812527z" fill="#006793"/><path d="m45.682021 65.149911 6.531151-9.837028-64.002086 6.443324 7.875698 5.143714z" fill="#007ca8"/><path d="m129.686111 77.917567 3.796127 4.186615 13.904398-2.154222 11.897624-4.38748z" fill="#138db7"/><path d="m-16 96.020929 57.730674 12.75004 22.560678-5.301901-20.537359 1.924768z" fill="#158bb3"/><path d="m44.90205 22.950084-31.353727-13.065083 43.379718 7.851333 43.993906 1.188084z" fill="#66aac7"/><path d="m-16 117.5507 24.407714-15.462477 39.411577 10.82199-9.647979.324333z" fill="#006089"/><path d="m146.71301 51.52627-10.623436-20.824934 78.922819-6.824763-83.189929 19.867936z" fill="#3b97be"/><path d="m-15.154364 91.15994 75.82356 3.043905 23.474109 11.657066-21.229085-1.492084z" fill="#007ca7"/><path d="m24.317622 79.178609 66.841574 15.713326-15.760065-10.506028-6.924733-2.033423z" fill="#078ab5"/><path d="m34.676015 22.315531 13.618145 5.003876-10.22725 25.563802 21.332625-6.48651z" fill="#2f92ba"/><path d="m265.282374 94.363132-114.574523-10.221636 5.892745-7.146033 22.102658 4.338241z" fill="#006592"/><path d="m65.335246 46.635353 29.072033-5.611751-13.471219 9.092375-17.084973-3.519512z" fill="#71adc6"/><path d="m166.600367 29.524458-19.729201 1.708848 50.456401-21.29595 1.074205 14.442955z" fill="#2992bd"/><path d="m216.142014 93.837554-50.857273-4.597831 89.73091 18.482737-13.565363-6.040082z" fill="#00719b"/><path d="m248.83077 155.426204 22.16923-13.567665-24.852394-29.49346 14.457819 50.373605z" fill="#007098"/><path d="m157.386614 51.388859-9.592933 1.533916 9.986895-12.890321-14.148595.704649z" fill="#58a3c3"/><path d="m103.767931 73.40327-13.415873 1.135276-11.601843 5.933349 30.617507 1.079906z" fill="#00709c"/><path d="m257.982631 87.933342-37.946927-18.608632-24.319737-2.458023 9.198631-4.067974z" fill="#0075a3"/><path d="m92.830471 53.382596 10.425228-4.556424-44.842163 1.657278 23.01583 5.423729z" fill="#4498bd"/><path d="m88.027149 152.939889 21.193359 2.690421 8.683678-3.097705-5.636325-1.772453z" fill="#0d84a9"/><path d="m86.801247 103.178094-8.994334 5.84909-10.874524 7.971594 22.101878-3.692694z" fill="#005176"/><path d="m-16 37.851883 41.000033 2.354949 22.241232 8.28452-8.965348-.922694z" fill="#0087b3"/><path d="m174.970635 31.281175 14.931858 1.576854-8.650946 6.877425-21.519809 3.42298z" fill="#2390ba"/><path d="m43.011559 11.393071 72.531722 12.107721 5.156118-4.009863-1.104061-4.528673z" fill="#60a8c6"/><path d="m175.636578 63.586034 32.377604-1.491733 23.205363 4.007376-50.112907-6.242873z" fill="#2f94be"/><path d="m77.527237 29.233539-14.658094-4.958755 43.016869-4.362168-9.103677 4.785674z" fill="#2f93bc"/><path d="m185.604502 18.034256-14.516852 2.076994 5.670731-3.393302 5.292546-7.006957z" fill="#419ac0"/><path d="m64.217767 114.170234-28.44699 2.602404 17.397743-11.123735 26.355822 2.11555z" fill="#00648d"/><path d="m246.146393 156.292164-12.110753-3.760067 8.469491-12.393418 20.288431 4.579165z" fill="#1c85ac"/><path d="m16.684707 36.190857 13.210657 2.065634-40.870086-2.786074 15.001705-4.27626z" fill="#2b94bd"/><path d="m53.384082 173 30.554104-22.948681 3.575582.729243 8.226299 22.219438z" fill="#005477"/><path d="m271 90.038477v18.100658l-33.846736-15.602308 33.846736-6.128789z" fill="#005d89"/><path d="m140.274951 145.417739-67.756382 4.243312 97.813788-14.360501-27.411746 13.699394z" fill="#007aa3"/><path d="m88.543401 61.016633 32.552389-67.807348-31.191362 65.130004-12.09334 1.545894z" fill="#3d99bc"/><path d="m132.912794 45.078595 42.424727-2.574518-23.646216 10.647918-14.060828-25.081051z" fill="#499cc0"/><path d="m99.082286 85.300647 98.20848 3.987857-101.588696 2.757558-2.297304-2.920115z" fill="#00729e"/><path d="m34.396614 14.552666 8.70626-5.994399-45.724132 3.736442 8.902598-7.867886z" fill="#98bbca"/><path d="m122.026286 60.964324-13.533893-.867413-10.184332 1.609886 7.412978 2.935708z" fill="#2d90b8"/><path d="m8.81703 103.113154-20.035665-10.684686-2.262502 36.374556 6.752477-22.830582z" fill="#2689b2"/><path d="m205.2884 133.188808 50.794083 4.095333 1.774786-2.060001-51.513676-19.196511z" fill="#007ca5"/><path d="m258.90064 26.294699-.457294.975247-44.584661-8.83213 18.316677-3.391861z" fill="#56a4c5"/><path d="m249.218911 142.455802 8.571677.889544-77.036637-5.58447 9.932403 7.029858z" fill="#007da6"/><path d="m40.179748 145.639861-50.805284-7.42935 46.50612 17.60777 140.341866-27.79901z" fill="#00729c"/><path d="m135.035161 144.318737-19.605743 9.508167 47.975546 19.173096-28.93466-28.770991z" fill="#00557a"/><path d="m174.498823 35.328068-6.499849-12.681015-.398723-11.082976-18.46843 4.964447z" fill="#2d94bd"/><path d="m103.562078 42.995016 23.685027 2.403582-6.34114 3.726981-16.701239-3.434214z" fill="#6facc7"/><path d="m140.520282 116.955224-65.669981 11.076425 32.630888-16.448403 4.95452 4.450668z" fill="#005a82"/><path d="m21.101496 52.091221 9.277161 11.031785-39.686755-12.61332 23.157438-.647634z" fill="#0075a3"/><path d="m234.583287 23.723172 26.672859 49.611843-1.061329-30.481939 10.805183-9.76349z" fill="#0084b2"/><path d="m234.616232 64.292308-14.387299 18.706229-59.02983-22.843605 109.800897 24.861719z" fill="#0079a7"/><path d="m102.680009 65.529568-10.457898-5.180369-45.217648 3.971979 44.968194 1.619337z" fill="#00709d"/><path d="m226.35958 142.631914 3.393751 4.670244 2.162035-13.90837-16.114719 3.287536z" fill="#1184ac"/><path d="m98.800637 41.988316 15.865383 11.763714-8.596816-6.302002-15.728873.633797z" fill="#0087b1"/><path d="m201.55097-16-2.247905 33.492867-2.592338-10.647815 31.372617 8.022815z" fill="#a0bbcb"/><path d="m89.508314 105.701014 39.993975-4.799465 19.509651 11.518655-23.843308-5.079309z" fill="#006f99"/><path d="m226.274645 10.246682-49.748519-14.870984 15.894752 17.509074 4.549808-28.884772z" fill="#a7bdcb"/><path d="m271 116.003893-39.725413.174911 3.522071 2.731081 16.104727-7.817526z" fill="#005d84"/><path d="m21.901897 106.23033-3.153759 3.072701-34.748138-3.69811 31.110443-1.32182z" fill="#005782"/><path d="m271 25.925215-16.01674 14.817896 16.01674-32.097255-26.751273 10.358031z" fill="#3a93b9"/><path d="m72.245862 40.936434-.426965 3.722823-20.892949-2.199307 33.366407-11.471983z" fill="#4d9dc0"/><path d="m206.746852 149.66898 18.445503 23.33102 24.618718-4.242145-31.410391-14.306706z" fill="#005b7f"/><path d="m213.399303 124.39497 51.23821-8.449099-8.906259 19.063485 7.92418-5.599177z" fill="#006d97"/><path d="m114.232914 15.32859-5.57368-13.26569-74.807636-6.414939 131.500798 18.635186z" fill="#98b8c9"/><path d="m21.520086 70.167765-9.341951 12.619459-4.078378-7.08848-23.623769-2.796074z" fill="#178bb6"/><path d="m223.289361 27.291603 9.667066 1.858992 1.709118-7.564042-4.813154-2.498559z" fill="#3096bf"/><path d="m217.511613 80.186329 18.799354 12.525872 27.203673-8.571873-33.566469-5.766759z" fill="#006e99"/><path d="m97.414847 21.984987 17.388276 2.35226-10.826631-6.70509-9.545722 1.330944z" fill="#479cc1"/><path d="m6.890165 23.816814 2.314027 3.089649 37.686235-3.330828 15.446352-2.334727z" fill="#62a9c7"/><path d="m40.36098 55.542075 12.150257-1.877925-29.622364-1.330293 2.091496 3.23697z" fill="#509cc0"/><path d="m72.034209 95.910969 20.454667.771929-23.176965-14.865353 28.679582 3.816079z" fill="#0186b0"/><path d="m187.064415 9.691237 14.54708 19.170729 16.360154-12.049159-42.102012-2.301797z" fill="#3597c0"/><path d="m255.213355 42.366743-45.021019-16.301273-12.302806 5.839062 37.689643-4.426841z" fill="#0087b5"/><path d="m107.506625 110.245783-13.722907-2.754742 34.920087 1.656216-10.182239 7.78964z" fill="#007ba6"/><path d="m161.710389 144.473758 9.785726-5.392374 17.235549 9.141067-56.462527 2.878957z" fill="#004d71"/><path d="m10.807847 32.325703 39.190599 1.955474-31.263991 1.653867-34.734455-11.683469z" fill="#55a1c3"/><path d="m212.806794 11.086355 20.484313 9.4178-9.844227 3.334908-10.754112-7.965068z" fill="#63aac9"/><path d="m36.965238-16 86.557749 28.074823 61.289081-4.866711-7.590049 6.30034z" fill="#9fbbca"/><path d="m169.579171 74.966504-43.344345 3.936344-42.249227-8.060781 28.564068-1.246113z" fill="#0082ae"/><path d="m172.956063 56.97012 30.696079-21.994833-47.41153 15.986384-8.496811 6.165634z" fill="#0081ae"/><path d="m49.097458 84.82338 16.869504 8.496066-.218364 1.41468 17.596835-2.942365z" fill="#218cb5"/><path d="m95.524572 127.983059 30.330111-15.06037 26.627266 10.170207-55.795569-8.981866z" fill="#005c84"/><path d="m271-3.960893v25.189514l-17.463126-7.922722-24.245476 1.091753z" fill="#8cafc1"/><path d="m.993143 93.208317 12.320161-10.019994 40.302473 5.732533-21.020103-7.69567z" fill="#006d98"/><path d="m43.337746 49.356903-27.509475-13.756811 6.230231 2.527192 14.519939-4.21819z" fill="#1a8fb8"/><path d="m20.484413 103.272143 28.480467 3.787121-2.973239 3.25278-18.319496-3.94253z" fill="#1a89b2"/><path d="m137.855215 40.415063 7.537995-6.184457 1.055631-7.346276-60.317499 12.898519z" fill="#459abe"/><path d="m240.988574 114.130267 1.790974-2.069103-9.934083-7.048754 15.270432-.679273z" fill="#007ca6"/><path d="m133.510596 144.725688 27.426263 28.274312 17.158124-15.198352-55.201996-6.498598z" fill="#004e70"/><path d="m24.060991 112.53087 42.93517 34.93563-15.107469 1.248445-3.609777-39.153511z" fill="#006994"/><path d="m-16 25.392371 39.753775 8.046655 14.456555.955353-14.249162 2.164147z" fill="#55a2c3"/><path d="m57.885763 61.105707 29.929017-4.210652-42.756866-.636605 35.320904 13.217633z" fill="#007aa5"/><path d="m173.819534 81.132638 9.984117-6.515513-47.246667 3.044854 16.962207-4.651637z" fill="#0185b0"/><path d="m41.863254 11.126065 23.313445 1.32485-31.48775 4.601949-.811239-3.108557z" fill="#6aacc8"/><path d="m182.348411 62.71347-30.206122-3.948286-34.588609-1.562429 24.005344 3.918771z" fill="#138db8"/><path d="m207.419638 110.105307 11.775309-3.015359-66.184962-6.141495-11.505989 3.646889z" fill="#00648f"/><path d="m213.644792 61.353958-56.531144-1.160716 23.231555-2.76744 90.654797 2.528148z" fill="#088db8"/><path d="m170.228581 31.950905-28.544338 7.091153-27.574975 1.118568 51.338523.239012z" fill="#4c9ec2"/><path d="m164.063067 44.906083-11.111392 3.241612-1.932896 3.998038 12.824671-6.070359z" fill="#5ba3c3"/><path d="m151.260832 48.775572-12.732181-1.738292 2.624127-2.097703 13.22527.355812z" fill="#3a94bb"/><path d="m225.608147 20.215985 34.328416 4.28045-23.635043.409329-6.343142-13.206944z" fill="#5ba5c4"/><path d="m237.834758 116.31096 33.165242-24.064463-31.439668 19.908249-120.5819.796808z" fill="#00749e"/><path d="m121.663383 95.434452-3.487931 8.219913-33.041258-15.358569 15.262218 14.065132z" fill="#0283ad"/><path d="m270.058771 153.250869-32.708504-4.721509-10.163869 8.930413-18.449614-9.340019z" fill="#2789ae"/><path d="m193.623239 81.040199 36.053587 8.469366-28.62048-13.897843-16.371046-2.440574z" fill="#00608d"/><path d="m176.056317 62.858312-2.609077 2.347474 30.691004-2.109146-29.939403-1.924232z" fill="#2890b9"/><path d="m81.667623 55.778844 3.943148-14.419682 15.63564-1.930078-24.574529 12.477726z" fill="#5aa2c2"/><path d="m20.706036 83.030697 28.424365-3.747785-51.929413-12.900197 33.944402-2.008571z" fill="#0085b1"/><path d="m161.455844 124.579644 12.638034-10.386416 16.983996-3.65792-53.969947 3.323202z" fill="#007ba6"/><path d="m69.941351 97.967961-4.495389 2.319921 27.734168-2.925019 11.710947 6.958859z" fill="#006e98"/><path d="m86.611 44.20216-11.659825 1.912411-5.769273 4.085111 15.983932-1.400187z" fill="#73aec5"/><path d="m196.282713 12.831603-4.450605-1.200374-27.39846 16.795088 39.088474-7.011838z" fill="#2791bd"/><path d="m188.635274 98.030149 29.273932 7.760801-14.160082-10.042404-12.050616 1.032469z" fill="#005c85"/><path d="m105.042861 157.255524-9.991181-5.034884 13.821817 20.77936 50.582209-22.026718z" fill="#00577c"/><path d="m143.69441 49.939009 36.737155 34.397551-31.931378-28.751795-35.495783-4.973505z" fill="#007fac"/><path d="m221.688251 140.763946-34.145696-24.476654-.011417 4.708253 18.37047 16.698522z" fill="#00769d"/><path d="m169.767159 92.699914 18.216442-9.501183-28.790506-5.881416-17.982672 5.46276z" fill="#006895"/><path d="m151.968528 139.071665 14.496213.327315-2.431214 3.237597-22.563328 3.756588z" fill="#0381a7"/><path d="m54.353246 76.206142-31.776557-.704055 13.656058-9.963389-44.257713-28.745077z" fill="#007ba8"/><path d="m52.304479 38.802305-15.149533-3.549569 31.785109 19.470818-32.079886-12.951614z" fill="#2e91b9"/><path d="m248.772364 10.595426-10.906285-26.595426-10.747889 23.705725-21.847515 6.223015z" fill="#9bb6c6"/><path d="m15.309151 120.460684 121.111675 10.263823-16.994014-12.609267-23.055229 14.7385z" fill="#00658e"/><path d="m57.126665-7.116967 192.05593-1.479284-31.995819 11.671031-110.121572-.762817z" fill="#aabecc"/><path d="m172.806619 61.386279 10.295943 7.791413-30.882324-8.26107-58.665549 8.855525z" fill="#0179a7"/><path d="m69.895695 40.402582 15.146501 6.694861-33.85156-14.501997-1.064404 4.161522z" fill="#59a3c2"/><path d="m130.505513 19.267463-42.246893-7.870573-6.846844 3.509948 31.71737-1.596309z" fill="#68abc6"/><path d="m237.370635 63.462575-10.203208 7.25217 43.832573 10.740339-6.795995-19.617601z" fill="#0074a3"/><path d="m67.829952 24.82994 1.301016-4.005361-30.70718 5.674466-20.75124 5.774107z" fill="#3796bd"/><path d="m139.418998 83.673904 12.824301-6.401945-35.951427 4.825642 22.596826-5.396882z" fill="#1388b3"/><path d="m202.227432 173 51.832462-15.941939-12.041576.050849-.975357-2.535791z" fill="#004062"/><path d="m18.224443 173 54.540919-24.788665-5.000777 24.788665-83.764585-30.615293z" fill="#017fa7"/><path d="m83.865262 57.137699-15.745274-3.638773 4.670355 3.725686 7.932597 2.842973z" fill="#0789b2"/><path d="m152.830519 98.931142 37.299202-1.419792-8.758423 6.084133-56.953925-7.81865z" fill="#007ca7"/><path d="m202.110903 12.272224 15.126877 6.219399 1.690111 7.498027 13.838592-6.896138z" fill="#5ca7c7"/><path d="m203.292649 63.399774 45.62256-.653021-11.256931-.803822-5.207305 3.873871z" fill="#2b91bb"/><path d="m-4.584307 61.850525-10.559505 32.882783 24.497974-9.262401-9.329859-2.915057z" fill="#3891b6"/><path d="m110.474321 116.344284-21.571482 4.395046-20.524132-15.557078 16.643377 4.068697z" fill="#00547a"/><path d="m45.6744 28.535287-4.669991-3.439292-10.732785 3.902091 9.619328 2.68529z" fill="#2b92bb"/><path d="m151.257545 76.2008 3.9566 3.292388-38.958826 1.454657 35.665949-3.343392z" fill="#158ab5"/><path d="m216.407161 133.308937 54.592839 16.200065-9.961127-11.274494-51.391399-7.336328z" fill="#0783ab"/><path d="m86.975434 29.861211-10.215601-8.763293 5.037545-1.557053 38.307833 11.473168z" fill="#3194bc"/><path d="m149.865414 34.791762 15.775705-6.561126 11.866696-15.023764-50.220954 5.920256z" fill="#2d93bd"/><path d="m170.012579 101.028069-58.210165-9.389461 24.85824 12.884091 6.868508-5.041907z" fill="#0081ad"/><path d="m36.008272 103.898616-23.000663-3.756471 49.902737-.724415 3.412669 7.356853z" fill="#0285af"/><path d="m49.960112 27.30897.362681 9.93413 6.506348-6.835135 17.248521-3.115972z" fill="#4a9dc1"/><path d="m85.446572 49.027542 29.277929 1.132926-29.47078 1.778792-.88432-.812695z" fill="#298eb8"/><path d="m39.001483 70.674456 5.619306-5.792196 25.750983-6.774367 1.153477 5.135383z" fill="#00709b"/><path d="m27.651504 13.667479 29.65536 10.826812-45.623886-11.404183 15.168132-1.744644z" fill="#62a9c8"/><path d="m212.048311 150.781696 8.003114 1.85311 13.771286 2.11655 37.177289-5.078392z" fill="#2789ad"/><path d="m34.060835 78.337332-4.434831 5.16575-26.172795-6.006323 32.356067 2.827868z" fill="#108ab4"/><path d="m149.277836 41.014458 49.081898-16.644392-7.687183 10.570415-.610703-10.250086z" fill="#3a98bf"/><path d="m9.368419 91.749131-6.378617-4.801645 82.464522 10.728935-78.80954-3.59805z" fill="#0077a4"/><path d="m110.329265 152.540246 5.845288 2.07846-8.693373.820992-8.573571-1.654097z" fill="#1584aa"/><path d="m160.173357 37.307669-.648434 3.940826-12.504494 1.912859-3.649761-1.535885z" fill="#5ba4c4"/><path d="m66.090401 56.269039-40.849188-3.676289 2.255236-.596393 41.731059-4.544302z" fill="#4197bc"/><path d="m-10.033887 68.242784 18.213649-20.444947 22.361345 11.150774-1.829267-3.215965z" fill="#0076a4"/><path d="m35.746677 116.89565-31.064864 4.715986 3.826363 5.443446 14.512273 1.182401z" fill="#00709b"/><path d="m169.369409 138.933885 6.349105-1.420398-9.702808 18.67605 25.797936-11.759287z" fill="#005276"/><path d="m41.622054 43.354707 5.899634 2.816887-5.243175-12.195699 22.990099 6.480415z" fill="#3995bc"/><path d="m74.568324 84.01636-5.588238 4.969317-13.701088-2.197176 11.483056 5.928285z" fill="#298fb8"/><path d="m177.536226 18.05054 38.146245-9.784743-34.451386 8.75182 9.582888-10.061334z" fill="#5ea5c3"/><path d="m39.406784 88.079203-34.80439 2.486036 12.242959-10.481676 2.303455 2.234132z" fill="#006e99"/><path d="m145.029716 125.35302 16.152087 7.927476 17.660585 6.657683 36.330098 1.453328z" fill="#00729b"/><path d="m25.869201 138.06115-40.853203-30.505182 44.946713 9.305481-41.480104 11.771102z" fill="#006893"/><path d="m201.596055 28.697719 10.603342-11.145604 5.953771 2.569857.87349 1.637501z" fill="#3a98be"/><path d="m89.705909 138.369607-3.649091 12.868464 15.57491-1.875093 48.191712-5.02818z" fill="#0077a0"/><path d="m107.482598 109.288193-12.130118 5.352486 14.843315-1.398424-67.981038-26.18189z" fill="#00739c"/><path d="m73.298425 97.412871 6.895199-25.964122 14.280486 1.804511-19.355886 7.041899z" fill="#0082ad"/><path d="m159.056277 14.782394 16.033128 21.188741-12.823596-24.157284 4.651272-.447733z" fill="#2d94be"/><path d="m126.259499 80.232457 11.13204 5.829699 3.373261-3.58231-25.651771 3.594573z" fill="#006996"/><path d="m76.717789 44.758937 10.474464 9.738721-6.27137 2.099833 1.806407-3.776151z" fill="#5ca3c2"/><path d="m34.54956 50.076209-46.237358-5.014284 3.673424 13.344718 15.116698-14.94984z" fill="#198eb9"/><path d="m83.116109 106.932357-.659209-7.170047 3.664465-.947219-25.818371 6.021009z" fill="#0078a2"/><path d="m189.482049 22.603059-8.937505-11.165522 12.715369 3.104515-42.82935 16.42755z" fill="#2791bd"/><path d="m188.066933 126.526777-25.114964-4.206238 22.362937 15.89816 12.296667-10.361098z" fill="#006791"/><path d="m113.651391 61.706113 23.420881 3.654553-42.197712.698528 11.498689 2.521891z" fill="#0076a4"/><path d="m62.577952 110.874575 23.781949-5.833508-39.463683 5.971898 7.033913-6.333037z" fill="#006189"/></g></svg>