<svg height="1024" width="816" xmlns="http://www.w3.org/2000/svg"><path d="m0 0h816v1024h-816z" fill="#8a603b"/><g fill-opacity=".501961" stroke-width="4"><ellipse cx="102" cy="1022" fill="#abc9d6" rx="252" ry="240"/><ellipse cx="486" cy="610" fill="#4e2510" rx="356" ry="244"/><ellipse cx="746" cy="998" fill="#7a9ab4" rx="376" ry="184"/><ellipse cx="466" cy="110" fill="#c87a27" rx="812" ry="152"/><ellipse cx="406" cy="850" fill="#5d2401" rx="144" ry="68"/><ellipse cx="646" cy="730" fill="#201209" rx="212" ry="48"/><ellipse cx="478" cy="318" fill="#5b4b39" rx="148" ry="192"/><ellipse cx="698" cy="322" fill="#b97026" rx="156" ry="140"/><ellipse cx="250" cy="354" fill="#b9592c" rx="92" ry="172"/><ellipse cx="410" cy="530" fill="#e16c2a" rx="68" ry="64"/><ellipse cx="58" cy="686" fill="#a04b13" rx="452" ry="108"/><ellipse cx="722" cy="798" fill="#5f6b79" rx="164" ry="36"/><ellipse cx="350" cy="986" fill="#a79e93" rx="208" ry="64"/><ellipse cx="570" cy="554" fill="#2c1b14" rx="84" ry="80"/><ellipse cx="442" cy="406" fill="#213d37" rx="132" ry="56"/><ellipse cx="2" cy="330" fill="#c16c27" rx="260" ry="96"/><ellipse cx="230" cy="854" fill="#798889" rx="56" ry="92"/><ellipse cx="138" cy="490" fill="#495a2c" rx="68" ry="100"/><ellipse cx="502" cy="774" fill="#37200d" rx="68" ry="112"/><ellipse cx="486" cy="622" fill="#939794" rx="44" ry="24"/><ellipse cx="302" cy="478" fill="#ae7739" rx="48" ry="76"/><ellipse cx="338" cy="798" fill="#934e2f" rx="72" ry="144"/><ellipse cx="410" cy="294" fill="#d17c4a" rx="32" ry="56"/><ellipse cx="650" cy="878" fill="#828789" rx="92" ry="92"/><ellipse cx="354" cy="102" fill="#7e5161" rx="60" ry="56"/><ellipse cx="294" cy="254" fill="#96392c" rx="200" ry="36"/><ellipse cx="118" cy="18" fill="#b47f20" rx="200" ry="216"/><ellipse cx="310" cy="346" fill="#613e1a" rx="48" ry="64"/><ellipse cx="182" cy="814" fill="#9e9d8f" rx="100" ry="40"/><ellipse cx="590" cy="426" fill="#93964a" rx="28" ry="56"/><ellipse cx="546" cy="234" fill="#714241" rx="60" ry="112"/><ellipse cx="754" cy="718" fill="#523127" rx="84" ry="96"/><ellipse cx="502" cy="446" fill="#313e40" rx="20" ry="172"/><ellipse cx="442" cy="442" fill="#a02005" rx="32" ry="32"/><ellipse cx="458" cy="106" fill="#b6722f" rx="64" ry="128"/><ellipse cx="30" cy="634" fill="#ac7228" rx="60" ry="160"/><ellipse cx="726" cy="54" fill="#bd7735" rx="140" ry="240"/><ellipse cx="238" cy="458" fill="#d06b32" rx="48" ry="48"/><ellipse cx="294" cy="654" fill="#703017" rx="192" ry="40"/><ellipse cx="354" cy="382" fill="#325a37" rx="20" ry="128"/><ellipse cx="686" cy="1002" fill="#525f60" rx="128" ry="20"/><ellipse cx="602" cy="726" fill="#0e1006" rx="72" ry="32"/><ellipse cx="294" cy="234" fill="#b75b62" rx="60" ry="48"/><ellipse cx="242" cy="902" fill="#61696b" rx="72" ry="32"/><ellipse cx="94" cy="938" fill="#bab3a9" rx="72" ry="36"/><ellipse cx="410" cy="330" fill="#a9856e" rx="48" ry="32"/><ellipse cx="446" cy="786" fill="#6e3316" rx="52" ry="128"/><ellipse cx="626" cy="622" fill="#6b270e" rx="100" ry="80"/><ellipse cx="510" cy="166" fill="#aa4d63" rx="56" ry="32"/><ellipse cx="730" cy="534" fill="#694430" rx="92" ry="120"/><ellipse cx="134" cy="302" fill="#9e2222" rx="44" ry="28"/><ellipse cx="562" cy="466" fill="#9f9447" rx="28" ry="20"/><ellipse cx="798" cy="870" fill="#a39986" rx="88" ry="48"/><ellipse cx="314" cy="578" fill="#3a4328" rx="72" ry="24"/><ellipse cx="330" cy="934" fill="#65767c" rx="48" ry="24"/><ellipse cx="2" cy="234" fill="#c08838" rx="40" ry="176"/><ellipse cx="526" cy="802" fill="#2e2a18" rx="48" ry="72"/><ellipse cx="498" cy="298" fill="#5e4b1a" rx="60" ry="48"/><ellipse cx="590" cy="618" fill="#250c0b" rx="36" ry="28"/><ellipse cx="58" cy="498" fill="#8b8c50" rx="32" ry="44"/><ellipse cx="202" cy="730" fill="#835a05" rx="56" ry="52"/><ellipse cx="158" cy="514" fill="#415a3a" rx="60" ry="44"/><ellipse cx="230" cy="1022" fill="#cdbca6" rx="228" ry="8"/><ellipse cx="374" cy="758" fill="#a7502c" rx="92" ry="24"/><ellipse cx="478" cy="594" fill="#223026" rx="32" ry="20"/><ellipse cx="70" cy="790" fill="#a17f57" rx="108" ry="16"/><ellipse cx="210" cy="330" fill="#bc8245" rx="44" ry="52"/><ellipse cx="502" cy="2" fill="#be7f29" rx="180" ry="64"/><ellipse cx="510" cy="658" fill="#b14b2d" rx="48" ry="16"/><ellipse cx="558" cy="358" fill="#9aa957" rx="28" ry="20"/><ellipse cx="498" cy="418" fill="#3c3a3c" rx="40" ry="100"/><ellipse cx="162" cy="602" fill="#934120" rx="128" ry="32"/><ellipse cx="558" cy="574" fill="#8e5c23" rx="32" ry="24"/><ellipse cx="74" cy="426" fill="#5d5933" rx="20" ry="56"/><ellipse cx="386" cy="410" fill="#103827" rx="24" ry="56"/><ellipse cx="442" cy="258" fill="#5e3402" rx="16" ry="44"/><ellipse cx="722" cy="542" fill="#342723" rx="28" ry="32"/><ellipse cx="498" cy="426" fill="#8b5864" rx="16" ry="24"/><ellipse cx="26" cy="454" fill="#2c1a24" rx="12" ry="20"/><ellipse cx="634" cy="342" fill="#9d5928" rx="40" ry="124"/><ellipse cx="810" cy="290" fill="#b97031" rx="44" ry="192"/><ellipse cx="74" cy="414" fill="#b46a34" rx="68" ry="16"/><ellipse cx="314" cy="526" fill="#d36c32" rx="44" ry="16"/><ellipse cx="594" cy="878" fill="#68717d" rx="68" ry="32"/><ellipse cx="686" cy="762" fill="#523e2d" rx="104" ry="24"/><ellipse cx="138" cy="658" fill="#64320a" rx="100" ry="16"/><ellipse cx="394" cy="886" fill="#6d3f1a" rx="116" ry="36"/><ellipse cx="434" cy="986" fill="#988f84" rx="124" ry="64"/><ellipse cx="814" cy="646" fill="#7b4a38" rx="32" ry="112"/><ellipse cx="494" cy="638" fill="#8ea1b1" rx="20" ry="12"/><ellipse cx="382" cy="130" fill="#856541" rx="44" ry="88"/><ellipse cx="514" cy="214" fill="#445649" rx="32" ry="24"/><ellipse cx="342" cy="250" fill="#993521" rx="24" ry="44"/><ellipse cx="686" cy="602" fill="#903a13" rx="36" ry="40"/><ellipse cx="186" cy="262" fill="#92231c" rx="32" ry="32"/><ellipse cx="70" cy="686" fill="#a15f23" rx="32" ry="120"/><ellipse cx="374" cy="654" fill="#853f25" rx="108" ry="48"/><ellipse cx="494" cy="486" fill="#104225" rx="24" ry="28"/><ellipse cx="554" cy="82" fill="#b06f1e" rx="108" ry="48"/><ellipse cx="346" cy="438" fill="#446b46" rx="16" ry="68"/><ellipse cx="286" cy="378" fill="#4e4928" rx="20" ry="36"/><ellipse cx="634" cy="822" fill="#888678" rx="48" ry="40"/><ellipse cx="474" cy="718" fill="#5f2915" rx="48" ry="56"/><ellipse cx="422" cy="538" fill="#ad5827" rx="72" ry="44"/><ellipse cx="34" cy="510" fill="#26452a" rx="12" ry="16"/><ellipse cx="690" cy="526" fill="#5e7450" rx="32" ry="16"/><ellipse cx="354" cy="302" fill="#1a1809" rx="12" ry="20"/><ellipse cx="302" cy="446" fill="#390914" rx="16" ry="12"/><ellipse cx="566" cy="802" fill="#554940" rx="36" ry="28"/><ellipse cx="578" cy="514" fill="#3b130e" rx="32" ry="40"/><ellipse cx="294" cy="498" fill="#7b3119" rx="28" ry="20"/><ellipse cx="350" cy="894" fill="#a2552f" rx="56" ry="16"/><ellipse cx="182" cy="446" fill="#855617" rx="20" ry="60"/><ellipse cx="486" cy="378" fill="#1a3b38" rx="84" ry="12"/><ellipse cx="718" cy="698" fill="#472510" rx="56" ry="56"/><ellipse cx="2" cy="866" fill="#a7a091" rx="148" ry="72"/><ellipse cx="202" cy="130" fill="#a77220" rx="76" ry="108"/><ellipse cx="418" cy="482" fill="#c35a2b" rx="48" ry="20"/><ellipse cx="130" cy="602" fill="#5c230f" rx="28" ry="16"/><ellipse cx="130" cy="718" fill="#9c6719" rx="60" ry="52"/><ellipse cx="250" cy="546" fill="#412f11" rx="20" ry="32"/><ellipse cx="586" cy="182" fill="#5a2e43" rx="24" ry="24"/><ellipse cx="318" cy="422" fill="#a9662f" rx="12" ry="116"/><ellipse cx="806" cy="786" fill="#574b51" rx="108" ry="36"/><ellipse cx="318" cy="106" fill="#b35c59" rx="28" ry="44"/><ellipse cx="554" cy="470" fill="#8c773f" rx="56" ry="8"/><ellipse cx="362" cy="598" fill="#404026" rx="28" ry="24"/><ellipse cx="134" cy="522" fill="#1b382f" rx="52" ry="8"/><ellipse cx="474" cy="614" fill="#8d846b" rx="52" ry="12"/><ellipse cx="774" cy="970" fill="#5e6a6f" rx="28" ry="52"/><ellipse cx="606" cy="578" fill="#2a1c1f" rx="20" ry="36"/><ellipse cx="230" cy="602" fill="#b25638" rx="56" ry="12"/><ellipse cx="418" cy="526" fill="#5a5d1e" rx="16" ry="20"/><ellipse cx="434" cy="170" fill="#985914" rx="20" ry="60"/><ellipse cx="270" cy="130" fill="#b78438" rx="28" ry="84"/><ellipse cx="194" cy="578" fill="#712e0c" rx="56" ry="24"/><ellipse cx="242" cy="818" fill="#8d8f88" rx="36" ry="44"/><ellipse cx="734" cy="290" fill="#ad7128" rx="68" ry="96"/><ellipse cx="286" cy="694" fill="#aa4924" rx="20" ry="48"/><ellipse cx="590" cy="262" fill="#9c5237" rx="40" ry="60"/><ellipse cx="150" cy="542" fill="#5c796a" rx="20" ry="16"/><ellipse cx="50" cy="494" fill="#ac8545" rx="12" ry="88"/><ellipse cx="254" cy="310" fill="#c25934" rx="20" ry="68"/><ellipse cx="282" cy="422" fill="#8f8844" rx="12" ry="40"/><ellipse cx="226" cy="666" fill="#5e330d" rx="28" ry="48"/><ellipse cx="514" cy="134" fill="#552b32" rx="16" ry="12"/><ellipse cx="466" cy="218" fill="#a76e40" rx="20" ry="52"/><ellipse cx="414" cy="434" fill="#502815" rx="16" ry="40"/><ellipse cx="502" cy="834" fill="#342308" rx="20" ry="60"/><ellipse cx="306" cy="626" fill="#45310b" rx="44" ry="8"/><ellipse cx="130" cy="630" fill="#a04020" rx="64" ry="20"/><ellipse cx="530" cy="994" fill="#8d8589" rx="32" ry="120"/><ellipse cx="86" cy="502" fill="#b59557" rx="16" ry="16"/><ellipse cx="458" cy="466" fill="#7f3112" rx="16" ry="48"/><ellipse cx="322" cy="202" fill="#c36866" rx="52" ry="12"/><ellipse cx="214" cy="394" fill="#b64520" rx="36" ry="24"/><ellipse cx="326" cy="566" fill="#373f2a" rx="28" ry="24"/><ellipse cx="266" cy="390" fill="#583923" rx="16" ry="16"/><ellipse cx="422" cy="626" fill="#a84423" rx="24" ry="20"/><ellipse cx="302" cy="602" fill="#884925" rx="36" ry="20"/><ellipse cx="54" cy="266" fill="#ad712c" rx="68" ry="56"/><ellipse cx="150" cy="902" fill="#829089" rx="52" ry="24"/><ellipse cx="102" cy="566" fill="#71602e" rx="32" ry="32"/><ellipse cx="570" cy="674" fill="#85350f" rx="60" ry="16"/><ellipse cx="82" cy="390" fill="#4e532a" rx="28" ry="12"/><ellipse cx="90" cy="738" fill="#b36f32" rx="20" ry="44"/><ellipse cx="802" cy="726" fill="#68391c" rx="60" ry="40"/><ellipse cx="2" cy="182" fill="#c19548" rx="36" ry="48"/><ellipse cx="414" cy="382" fill="#276034" rx="12" ry="36"/><ellipse cx="334" cy="810" fill="#814820" rx="64" ry="36"/><ellipse cx="490" cy="186" fill="#a4636b" rx="24" ry="24"/><ellipse cx="166" cy="406" fill="#405528" rx="20" ry="12"/><ellipse cx="358" cy="66" fill="#844451" rx="36" ry="24"/><ellipse cx="402" cy="266" fill="#a55e18" rx="32" ry="28"/><ellipse cx="710" cy="26" fill="#bd733f" rx="56" ry="100"/><ellipse cx="718" cy="846" fill="#9a9683" rx="48" ry="28"/><ellipse cx="698" cy="414" fill="#915f30" rx="108" ry="28"/><ellipse cx="462" cy="930" fill="#9c7f72" rx="36" ry="24"/><ellipse cx="658" cy="466" fill="#793f2e" rx="32" ry="44"/><ellipse cx="2" cy="670" fill="#b66b2f" rx="20" ry="132"/><ellipse cx="510" cy="570" fill="#474329" rx="32" ry="44"/><ellipse cx="582" cy="458" fill="#9b7840" rx="44" ry="16"/><ellipse cx="414" cy="230" fill="#77430e" rx="52" ry="12"/><ellipse cx="134" cy="366" fill="#b26f20" rx="28" ry="36"/><ellipse cx="522" cy="418" fill="#59435c" rx="28" ry="20"/><ellipse cx="206" cy="318" fill="#9b8642" rx="24" ry="32"/><ellipse cx="242" cy="746" fill="#7d4b10" rx="44" ry="32"/><ellipse cx="130" cy="678" fill="#814c0d" rx="84" ry="12"/><ellipse cx="506" cy="378" fill="#382841" rx="32" ry="32"/><ellipse cx="562" cy="390" fill="#377b4c" rx="20" ry="16"/><ellipse cx="106" cy="274" fill="#ba554e" rx="24" ry="20"/><ellipse cx="434" cy="350" fill="#896739" rx="24" ry="16"/><ellipse cx="526" cy="258" fill="#454e35" rx="12" ry="60"/><ellipse cx="338" cy="170" fill="#89570f" rx="16" ry="24"/><ellipse cx="190" cy="646" fill="#4e2306" rx="36" ry="12"/><ellipse cx="366" cy="290" fill="#353518" rx="16" ry="24"/><ellipse cx="154" cy="482" fill="#37481d" rx="8" ry="52"/><ellipse cx="362" cy="394" fill="#3d6747" rx="24" ry="28"/><ellipse cx="330" cy="282" fill="#954124" rx="20" ry="32"/><ellipse cx="122" cy="438" fill="#8e5a2d" rx="32" ry="24"/><ellipse cx="454" cy="846" fill="#5e3412" rx="48" ry="64"/><ellipse cx="814" cy="578" fill="#7b5137" rx="108" ry="20"/><ellipse cx="214" cy="810" fill="#969e99" rx="56" ry="20"/><ellipse cx="606" cy="794" fill="#968a7a" rx="24" ry="12"/><ellipse cx="330" cy="438" fill="#a09647" rx="12" ry="12"/><ellipse cx="750" cy="1022" fill="#8a8481" rx="132" ry="16"/><ellipse cx="182" cy="514" fill="#152a1b" rx="24" ry="8"/><ellipse cx="514" cy="698" fill="#4d230f" rx="68" ry="20"/><ellipse cx="730" cy="554" fill="#280f15" rx="20" ry="12"/><ellipse cx="14" cy="462" fill="#464258" rx="8" ry="20"/><ellipse cx="290" cy="230" fill="#685a35" rx="16" ry="12"/><ellipse cx="378" cy="166" fill="#987a3e" rx="20" ry="48"/><ellipse cx="314" cy="682" fill="#4f6a4c" rx="12" ry="12"/><ellipse cx="2" cy="818" fill="#c7b292" rx="48" ry="16"/><ellipse cx="706" cy="998" fill="#49675e" rx="84" ry="8"/><ellipse cx="350" cy="762" fill="#ae5d3b" rx="56" ry="12"/><ellipse cx="522" cy="638" fill="#a17971" rx="12" ry="8"/><ellipse cx="222" cy="286" fill="#ca7d43" rx="16" ry="20"/><ellipse cx="526" cy="330" fill="#795a27" rx="52" ry="12"/><ellipse cx="406" cy="2" fill="#bf883c" rx="68" ry="28"/><ellipse cx="202" cy="466" fill="#bb6b33" rx="16" ry="32"/><ellipse cx="146" cy="550" fill="#686a4d" rx="28" ry="20"/><ellipse cx="402" cy="182" fill="#174c26" rx="4" ry="20"/><ellipse cx="726" cy="626" fill="#625041" rx="12" ry="44"/><ellipse cx="722" cy="218" fill="#af7334" rx="128" ry="44"/><ellipse cx="362" cy="726" fill="#954124" rx="76" ry="36"/><ellipse cx="474" cy="74" fill="#b17726" rx="44" ry="72"/><ellipse cx="250" cy="886" fill="#717a80" rx="28" ry="44"/><ellipse cx="634" cy="402" fill="#af7432" rx="20" ry="28"/><ellipse cx="626" cy="950" fill="#aa9698" rx="8" ry="36"/><ellipse cx="606" cy="86" fill="#b26f2a" rx="76" ry="68"/><ellipse cx="450" cy="282" fill="#4f220c" rx="8" ry="36"/><ellipse cx="590" cy="402" fill="#85803c" rx="24" ry="44"/><ellipse cx="474" cy="262" fill="#8c6227" rx="20" ry="32"/><ellipse cx="274" cy="494" fill="#a73d1f" rx="12" ry="32"/><ellipse cx="358" cy="114" fill="#647251" rx="20" ry="16"/><ellipse cx="342" cy="382" fill="#6f7558" rx="8" ry="28"/><ellipse cx="430" cy="634" fill="#933917" rx="48" ry="12"/><ellipse cx="386" cy="654" fill="#712f1a" rx="40" ry="32"/><ellipse cx="266" cy="826" fill="#908579" rx="12" ry="52"/><ellipse cx="594" cy="994" fill="#7e6a6f" rx="40" ry="28"/><ellipse cx="186" cy="614" fill="#b75830" rx="28" ry="12"/><ellipse cx="342" cy="118" fill="#b27d6a" rx="12" ry="20"/><ellipse cx="634" cy="714" fill="#23180d" rx="92" ry="20"/><ellipse cx="718" cy="942" fill="#757278" rx="20" ry="56"/><ellipse cx="138" cy="482" fill="#52572a" rx="32" ry="28"/><ellipse cx="626" cy="770" fill="#41362d" rx="76" ry="12"/><ellipse cx="538" cy="814" fill="#3b2a1b" rx="68" ry="12"/><ellipse cx="494" cy="986" fill="#a09187" rx="20" ry="88"/><ellipse cx="302" cy="842" fill="#71441c" rx="24" ry="60"/><ellipse cx="470" cy="382" fill="#423d1d" rx="8" ry="100"/><ellipse cx="114" cy="1022" fill="#d8c7b3" rx="76" ry="4"/><ellipse cx="114" cy="206" fill="#a06e25" rx="56" ry="44"/><ellipse cx="554" cy="458" fill="#a6a053" rx="12" ry="16"/><ellipse cx="786" cy="826" fill="#806d5d" rx="40" ry="12"/><ellipse cx="174" cy="778" fill="#977546" rx="84" ry="8"/><ellipse cx="642" cy="310" fill="#995022" rx="36" ry="36"/><ellipse cx="46" cy="362" fill="#ad6f31" rx="16" ry="116"/><ellipse cx="414" cy="1010" fill="#8c8878" rx="100" ry="12"/><ellipse cx="782" cy="514" fill="#4a3831" rx="16" ry="32"/><ellipse cx="294" cy="302" fill="#76351c" rx="32" ry="16"/><ellipse cx="574" cy="918" fill="#707b88" rx="36" ry="40"/><ellipse cx="310" cy="978" fill="#a49b8d" rx="112" ry="24"/><ellipse cx="402" cy="914" fill="#232f16" rx="16" ry="8"/><ellipse cx="274" cy="262" fill="#b05750" rx="40" ry="28"/><ellipse cx="514" cy="50" fill="#af6e1e" rx="48" ry="56"/><ellipse cx="42" cy="542" fill="#a6965c" rx="16" ry="16"/><ellipse cx="458" cy="594" fill="#151d19" rx="16" ry="12"/><ellipse cx="702" cy="534" fill="#705e39" rx="28" ry="16"/><ellipse cx="202" cy="366" fill="#c46736" rx="44" ry="24"/><ellipse cx="38" cy="990" fill="#86877e" rx="32" ry="24"/><ellipse cx="402" cy="318" fill="#b2826c" rx="28" ry="24"/><ellipse cx="650" cy="530" fill="#353721" rx="20" ry="16"/><ellipse cx="302" cy="470" fill="#c6703b" rx="20" ry="16"/><ellipse cx="542" cy="502" fill="#2d3323" rx="80" ry="12"/><ellipse cx="238" cy="230" fill="#cc8b6b" rx="12" ry="8"/><ellipse cx="246" cy="558" fill="#7d5830" rx="28" ry="8"/><ellipse cx="758" cy="534" fill="#825b3d" rx="8" ry="60"/><ellipse cx="226" cy="510" fill="#9f5d25" rx="12" ry="24"/><ellipse cx="674" cy="958" fill="#938688" rx="8" ry="48"/><ellipse cx="666" cy="586" fill="#783517" rx="32" ry="52"/><ellipse cx="454" cy="550" fill="#ba6935" rx="20" ry="32"/><ellipse cx="814" cy="922" fill="#a79d8e" rx="32" ry="12"/><ellipse cx="370" cy="590" fill="#474729" rx="32" ry="12"/><ellipse cx="602" cy="454" fill="#925d33" rx="16" ry="40"/><ellipse cx="326" cy="682" fill="#44462c" rx="8" ry="20"/><ellipse cx="186" cy="422" fill="#66511f" rx="28" ry="12"/><ellipse cx="386" cy="506" fill="#c35a28" rx="16" ry="44"/><ellipse cx="238" cy="598" fill="#bb6851" rx="24" ry="8"/><ellipse cx="206" cy="254" fill="#87271e" rx="28" ry="16"/><ellipse cx="46" cy="866" fill="#8d8a85" rx="44" ry="16"/><ellipse cx="290" cy="934" fill="#898581" rx="132" ry="8"/><ellipse cx="654" cy="826" fill="#87877b" rx="56" ry="28"/><ellipse cx="542" cy="562" fill="#704923" rx="28" ry="24"/><ellipse cx="374" cy="734" fill="#9e5645" rx="16" ry="20"/><ellipse cx="582" cy="786" fill="#786a57" rx="20" ry="12"/><ellipse cx="534" cy="446" fill="#4e2634" rx="12" ry="20"/><ellipse cx="494" cy="246" fill="#755738" rx="12" ry="60"/><ellipse cx="98" cy="450" fill="#62623b" rx="24" ry="36"/><ellipse cx="178" cy="526" fill="#5e7359" rx="16" ry="8"/></g></svg>