<svg height="632" width="1024" xmlns="http://www.w3.org/2000/svg"><path d="m0 0h1024v632h-1024z" fill="#948184"/><g fill="none" stroke-opacity=".501961" stroke-width=".5" transform="matrix(4 0 0 4 2 2)"><path d="m239.608729-1.289954q-130.626038-3.442939-71.466142 174.289954" stroke="#000"/><path d="m240.242452 4.955142q-170.679515-2.076811-90.46883 155.620042" stroke="#000"/><path d="m240.362971.55513q-177.827998 23.759053-79.8231 161.335373" stroke="#000"/><path d="m241.391946 1.533684q-167.149661 27.255216-76.665653 159.09529" stroke="#000"/><path d="m172.547276 162.622231q-92.464513-130.968284 69.937808-154.031346" stroke="#000"/><path d="m244.141631 2.955349q-163.601042 27.142015-76.728549 156.360553" stroke="#000"/><path d="m244.162079 1.905052q-174.828902 30.261866-83.122012 158.450421" stroke="#000"/><path d="m246.423951 12.864819q-161.848527 12.16788-70.118034 148.269372" stroke="#000"/><path d="m130.725632 161.022077q140.274368-66.95193 11.221074-160.538218" stroke="#000"/><path d="m142.204945 158.506039q128.795055-64.934886 2.100036-157.563117" stroke="#000"/><path d="m124.107435 158.091296q138.392646-83.150499 5.972546-162.720177" stroke="#000"/><path d="m231.141634 2.958351q-159.032349.130819-85.058306 163.187522" stroke="#000"/><path d="m241.966255 3.180217q-148.22903 43.793877-35.253463 153.126091" stroke="#000"/><path d="m147.217351 173q-84.709887-180.967555 103.157396-173.509766" stroke="#0b0000"/><path d="m239.306883 1.409335q-161.842902-3.019807-88.49654 156.708315" stroke="#000"/><path d="m179.352267 158.076544q-90.40829-124.428853 64.067564-143.021441" stroke="#000"/><path d="m190.774511 158.42123q-98.46222-95.473151 51.68078-152.356596" stroke="#000"/><path d="m241.369695 5.900724q-160.746186 25.042945-78.759675 149.724199" stroke="#000"/><path d="m157.373887 161.364015q-80.394959-153.079087 85.32641-152.503695" stroke="#000"/><path d="m242.052901 9.1686q-143.271898 51.763552-39.790396 151.479602" stroke="#000"/><path d="m210.555344 156.781088q-106.460938-96.792402 33.53003-146.289475" stroke="#000"/><path d="m151.539443-1.690285q119.460557 87.320966-23.063659 159.32681" stroke="#000"/><path d="m241.801224 4.563479q-148.740552 55.059628-47.373306 153.73405" stroke="#000"/><path d="m133.122139-1.025494q125.231296 92.823418.5458 158.971472" stroke="#000"/><path d="m245.504172.084039q-179.396795 26.045163-89.335254 172.915961" stroke="#000"/><path d="m245.47217 15.231774q-139.108914 44.562889-31.344158 143.735277" stroke="#000"/><path d="m249.89399 5.021313q-179.386984-20.904236-111.84954 152.09177" stroke="#000"/><path d="m162.227838 163.25691q103.593514-76.568264-36.228658-162.131489" stroke="#000"/><path d="m165.737498 157.808216q93.2855-73.405328-43.160933-153.976043" stroke="#000"/><path d="m240.713421 9.046059q-145.556419 49.205469-32.002031 152.515177" stroke="#000"/><path d="m127.879366 3.620401q99.39708-16.277123 78.673753 169.379599" stroke="#000"/><path d="m115.385226-.466707q-93.43231-7.593985-108.039253 150.860777" stroke="#fff"/><g stroke="#000"><path d="m120.308425 157.39691q130.593117-112.313101 122.577003-145.716215"/><path d="m99.162902 173q171.837098-114.474394 136.267103-172.799399"/><path d="m121.057371 5.602337q141.249932 84.49757 27.839821 162.171393"/><path d="m171.130486 158.790655q-81.595909-118.271957 69.109261-156.196629"/><path d="m150.125656 159.119093q-70.421398-144.298068 79.298769-156.760486"/><path d="m128.040397 156.791153q142.959603-83.912022 5.515975-165.67295"/><path d="m243.739795 11.059963q-142.28301 74.2729-17.040814 161.940037"/><path d="m189.974629 162.591245q-104.134111-111.108323 52.245498-156.894044"/><path d="m161.508945 166.867303q109.491055-82.336182-39.545438-169.821675"/><path d="m150.514338 171.606288q120.485662-81.884478-26.589048-169.638187"/><path d="m195.59566 169.967351q-119.88631-120.991179 42.058575-165.05023"/><path d="m147.770418 160.071561q-76.687925-141.275198 90.299114-159.345721"/><path d="m239.485298 10.178327q-137.287423 19.40314-50.60995 146.632258"/><path d="m118.641956 132.111754q126.670554-68.419013 122.579738-130.055598"/><path d="m241.610638.807991q-165.257559 35.39156-80.317802 156.466488"/><path d="m212.647037 153.500409q-101.043251-92.297301 32.597698-137.225634"/><path d="m113.70835 166.358126q141.093097-123.025654 128.863875-151.167181"/><path d="m237.614184 9.066717q20.041444 49.816162-125.817382 155.170633"/><path d="m174.437711 159.561205q-91.343671-134.976589 73.225796-152.888629"/></g><path d="m-5.260074 158.620425q164.525885-27.015359 69.334529-159.914454" stroke="#fff"/><path d="m178.415367 173q85.923387-129.282971-68.460568-179.191189" stroke="#000"/><path d="m201.357101 166.309706q-106.273538-89.497534 37.506254-153.34201" stroke="#000"/><path d="m134.520059 157.490165q-60.651203-168.445946 98.933908-155.298254" stroke="#030000"/><path d="m.925659 149.493633q132.925534-2.491652 84.445501-150.870064" stroke="#fff"/><path d="m119.506781-2.267252q130.136689 130.601126 67.718822 175.267252" stroke="#000"/><path d="m119.929207 159.348543q-135.929207-79.982913 2.92244-160.358189" stroke="#fff"/><path d="m110.615574 158.582474q-126.615574-77.030986 5.219425-158.71989" stroke="#fff"/><path d="m-.082951 157.030913q158.441366-43.438809 48.731411-158.982929" stroke="#fff"/><path d="m120.973401-.942862q125.93004 105.194866 71.151743 158.248625" stroke="#000"/><path d="m159.682423 172.940703q-79.724721-151.750718 66.373323-167.389479" stroke="#000"/><path d="m120.322515 160.630545q-4.059704-176.630545 129.282651-128.826001" stroke="#000"/><path d="m-2.609283 156.089843q135.980789-49.686369 100.480226-172.089843" stroke="#fff"/><path d="m216.446215 170.710403q-121.361572-102.482722 18.490251-158.167056" stroke="#000"/><path d="m181.38769 162.278504q-85.933009-127.949336 64.099235-141.562279" stroke="#000"/><path d="m115.919227 136.609764q155.080773-84.885525 107.552579-142.190086" stroke="#000"/><path d="m2.076027 157.595894q152.44008-15.969071 68.592323-158.488692" stroke="#fff"/><path d="m198.716137 159.046887q-100.650148-87.675501 33.260763-156.190231" stroke="#000"/><path d="m213.433032 149.427381q-95.402203-91.062551 32.097903-130.118198" stroke="#000"/><path d="m153.591 160.39362q105.350917-96.938935-26.28605-160.197951" stroke="#000"/><path d="m85.226857 158.296055q-101.226857-123.151372 32.496447-157.469678" stroke="#fff"/><path d="m114.335161 103.592861q156.664839-15.048658 127.907099-95.673819" stroke="#000"/><path d="m237.329952 7.943086q5.430879 72.74868-119.01619 136.30481" stroke="#000"/><path d="m116.249975 158.971137q-132.249975-82.160311-5.133584-158.429582" stroke="#fff"/><path d="m88.86047 173q40.510051-189-101.777103-169.529097" stroke="#fff"/><path d="m118.393217 157.035145q-128.61586-7.76316-54.739965-158.314647" stroke="#fff"/><path d="m246.951583-1.240067q-182.072778 13.682278-93.021827 158.170945" stroke="#000"/><path d="m93.764473-.95404q36.259892 173.95404-102.306375 157.533526" stroke="#fff"/><path d="m144.157186 170.28597q117.592479-83.72502-25.807148-162.237392" stroke="#000"/><path d="m39.766126.340746q-55.766126 158.985997 74.095923 157.547998" stroke="#fff"/><path d="m212.419011 156.771365q-87.490467-91.713167 28.901721-139.073063" stroke="#000"/><path d="m120.352872 173q-32.560179-189-123.560985-167.820875" stroke="#fff"/><path d="m117.943428 165.34373q-133.943428-78.24553-17.553766-164.600546" stroke="#fff"/><path d="m240.463469 6.815381q20.924551 56.022165-118.455911 152.059677" stroke="#000"/><path d="m117.243537 4.452801q-127.994634 78.854776 6.843326 155.11794" stroke="#fff"/><path d="m180.760704 173q-114.166643-128.934493 63.952093-175.032515" stroke="#000"/><path d="m241.128463 7.403672q-138.26916 55.75136-31.618632 149.328629" stroke="#000"/><path d="m41.28749-6.384143q117.162247 109.546794-41.838213 163.315583" stroke="#fff"/><path d="m190.215789 158.753529q-91.373718-81.614586 47.758889-147.473107" stroke="#000"/><path d="m111.520142 156.524756q-127.520142-35.379549-27.383621-154.919559" stroke="#fff"/><path d="m103.848321 85.971747q139.765175 31.363376 141.032877-71.846364" stroke="#000"/><path d="m54.732478 157.872869q-70.732478-143.634238 66.354911-157.718681" stroke="#fff"/><path d="m108.451817-7.507292q39.536886 56.742052-124.451817 174.279425" stroke="#fff"/><path d="m249.849765 35.562117q-115.022842-51.562117-127.916072 127.007608" stroke="#000"/><path d="m194.103228 169.364011q-118.191503-111.523378 23.548287-161.188526" stroke="#000"/><path d="m230.113317 3.945545q-159.671133 1.815449-88.117588 166.323886" stroke="#000"/><path d="m.175448 8.465416q79.808158-24.465416 116.077567 157.025851" stroke="#fff"/><path d="m144.3697 157.996662q-71.189875-149.767978 72.847024-156.947463" stroke="#000"/><path d="m164.012506.898888q98.13335 111.804149-37.791338 157.700058" stroke="#000"/><path d="m253.838123 42.652432q-37.58481-3.531032-131.560066 111.811128" stroke="#000"/><path d="m191.510877 173q46.262575-52.719609-72.465915-168.624638" stroke="#000"/><path d="m119.014906 6.335321q-123.468082 73.579127 1.986083 150.413428" stroke="#fff"/><path d="m211.028768 159.543459q-152.924167-69.424098-19.311599-169.832771" stroke="#000"/><path d="m53.768746-11.826139q-69.768746 161.535515 52.195291 169.103135" stroke="#fff"/><path d="m89.855762-16q41.20714 185.380535-92.629741 172.160151" stroke="#fff"/><path d="m-.706714 153.436028q150.001693-59.101916 23.98551-161.248247" stroke="#fff"/><path d="m.596983 173q-16.596983-189 125.441102-148.94987" stroke="#fff"/><path d="m51.746129-2.758623q104.713575 113.868118-42.715338 158.608322" stroke="#fff"/><path d="m182.436762 164.228442q-88.337345-103.129109 53.700911-158.743333" stroke="#000"/><path d="m121.959262 11.090689q122.80823 75.17051 34.059399 147.758611" stroke="#000"/><path d="m-4.261305 158.243339q152.183142-132.768434 113.909478-174.243339" stroke="#fff"/><path d="m250.232989 9.773276q-122.760619 59.633766-36.917458 137.580726" stroke="#000"/><path d="m221.365305 5.925351q-129.578664 49.325291-19.129756 155.734336" stroke="#000"/><path d="m140.257736 154.667275q-65.508407-156.201507 99.406509-154.115162" stroke="#000"/><path d="m110.405723 156.839696q-124.650304-8.95415-54.06125-149.959869" stroke="#fff"/><path d="m116.962405-1.828032q154.037595 71.849455 55.12674 166.686419" stroke="#000"/><path d="m84.168959-4.384863q-100.168959 123.123565 31.81093 161.404036" stroke="#fff"/><path d="m167.065198 156.259611q87.548142-75.850648-48.025155-152.887083" stroke="#000"/><path d="m21.334942 7.453865q-37.334942 165.546135 98.077936 148.749465" stroke="#fff"/><path d="m212.645097 149.884639q-99.281923-93.485174 35.410422-137.935155" stroke="#000"/><path d="m115.410108 151.567q-108.852772-70.574687 2.645275-143.428359" stroke="#fff"/><path d="m105.01736 77.700412q142.998075 48.751092 122.717525-93.700412" stroke="#000"/><path d="m238.858775-4.949692q17.993179 46.854561-121.269357 160.05376" stroke="#000"/><path d="m-13.822628-7.39699q146.270235 86.08523 129.533505 180.39699" stroke="#fff"/><path d="m64.497156 3.682365q-75.734204 137.326927 67.208308 157.211639" stroke="#fff"/><path d="m213.724429 5.398054q-128.634106 27.931159-40.22257 153.633705" stroke="#000"/><path d="m236.654381 163.963044q-162.777807-30.558256-67.798315-163.732912" stroke="#000"/><path d="m203.374492 160.913206q67.625508-16.298499 47.465166-176.913206" stroke="#fff"/><path d="m97.703755 173q39.683496-79.296486-108.087312-174.894861" stroke="#fff"/><path d="m116.50357 147.076254q-132.50357 22.163683-114.066205-146.329721" stroke="#fff"/><path d="m103.832008 84.50438q78.272598 70.090689 142.442869-58.154328" stroke="#000"/><path d="m61.185002 162.084664q-73.920737-126.483952 53.616848-163.146687" stroke="#fff"/><path d="m114.445925-13.104757q21.659654 26.957346-115.629545 168.156088" stroke="#fff"/><path d="m15.253982 3.395607q120.837054 85.034354-15.479737 153.543143" stroke="#fff"/><path d="m193.64262 167.651711q77.35738-32.40923 56.026848-178.894144" stroke="#fff"/><path d="m133.148356 158.854479q-57.303914-153.581156 78.480889-162.321666" stroke="#240000"/><path d="m-16 160.799406q161.534919-47.548125 94.579943-176.799406" stroke="#fff"/><path d="m103.512055 64.710357q135.826835-33.647751 101.862885 104.626541" stroke="#000"/><path d="m112.226438 155.074747q-118.806623-41.786163-32.355033-146.29918" stroke="#fff"/><path d="m28.91489 1.628026q-44.91489 171.371974 90.892571 152.118522" stroke="#fff"/><path d="m121.079248 16.429718q129.974472 64.910337 12.182647 156.570282" stroke="#000"/><path d="m97.563047 173q59.203394-64.913941-108.189267-177.566949" stroke="#fff"/><path d="m16.196514 3.101213q133.754558 64.059903 8.269273 154.774084" stroke="#fff"/><path d="m244.999671 9.204715q6.367999 110.799862-143.46286 64.791649" stroke="#000"/><path d="m173.11022 173q-94.260868-107.275963 61.22745-163.53907" stroke="#000"/><path d="m152.008188-16q108.353435 90.206361-33.634492 154.840173" stroke="#000"/><path d="m130.71082-1.24719q-121.499532-2.782158-108.731118 174.24719" stroke="#fff"/><path d="m110.815407 173q16.477583-57.806823-126.815407-178.120021" stroke="#fff"/><path d="m156.237413 158.358368q114.762587-128.693238-55.520178-165.037941" stroke="#000"/><path d="m117.871344 10.900823q-102.877146 61.462693 1.995311 141.616119" stroke="#fff"/><path d="m189.28021 163.079926q-130.552906-92.639136 7.725672-162.074729" stroke="#000"/><path d="m186.30113 173q61.636827-99.131032-59.597681-167.326183" stroke="#000"/><path d="m106.703875 2.900797q-121.394514 88.881546 19.437218 161.57477" stroke="#fff"/><path d="m-9.566786-2.653706q146.930764 127.270476 120.286444 175.653706" stroke="#fff"/><path d="m234.736953 2.356543q-165.20665-17.800355-101.810225 159.787638" stroke="#250000"/><path d="m120.611632 11.303453q72.515568 59.593865 93.299685 156.332997" stroke="#000"/><path d="m117.137115 3.821721q-133.137115-5.228426-74.132848 153.712999" stroke="#fff"/><path d="m-16 147.183925q71.15069 14.458556 139.093705-153.472313" stroke="#fff"/><path d="m69.364926-13.662891q-85.364926 148.980299 52.646797 175.193831" stroke="#fff"/><path d="m124.629188 28.933195q-140.629188-43.25424-120.026078 139.702309" stroke="#fff"/><path d="m101.193866 78.357695q152.747681 17.35866 147.66726-48.786196" stroke="#000"/><path d="m124.653726 32.184055q-130.483542-46.204648-119.725842 126.089776" stroke="#fff"/><path d="m188.052882 160.75733q51.817585-48.109046-85.660056-176.75733" stroke="#000"/><path d="m216.70815-7.343108q54.29185 59.684228-98.373348 180.343108" stroke="#000"/><path d="m199.401933 165.290533q-110.803487-106.938577 37.011528-159.861237" stroke="#000"/><path d="m114.946817 3.166215q-111.053377 59.321717 15.29736 164.287933" stroke="#fff"/><path d="m222.406826 158.549798q36.197966-1.269476 32.883907-174.549798" stroke="#fff"/><path d="m252.111259 45.594185q-113.036343 99.5896-149.988715 35.284858" stroke="#000"/><path d="m172.732568 164.671646q-97.532602-135.891921 79.883689-168.829944" stroke="#000"/><path d="m245.29304 23.471768q-121.868088 15.605128-56.89467 130.915593" stroke="#000"/><path d="m-5.338541 158.955608q132.594606-150.527652 123.920304-174.955608" stroke="#fff"/><path d="m107.638454 58.427544q126.88004-21.946333 101.587587 98.837881" stroke="#000"/><path d="m103.142614 93.583537q157.155253 7.985858 143.286057-73.095959" stroke="#000"/><path d="m247.250144 31.95046q-138.586453-17.909318-88.05902 122.734918" stroke="#000"/><path d="m114.241601 2.128092q32.381792 34.398644-130.241601 165.90176" stroke="#fff"/><path d="m-4.100828 154.713907q149.738292-52.103876 39.764127-155.959373" stroke="#fff"/><path d="m-16 156.35895q157.017658.575244 95.60524-154.886639" stroke="#fff"/><path d="m114.823888 173q16.534332-65.48549 134.349704-139.35845" stroke="#000"/><path d="m125.034282 4.428761q106.360787-10.838095 79.946816 158.380305" stroke="#000"/><path d="m15.748023 157.791254q125.088673-89.910655-4.248173-154.649524" stroke="#fff"/><path d="m239.190658 12.120819q11.218919 31.63043-116.9796 142.764133" stroke="#000"/><path d="m237.956983 8.170454q-165.716445-2.830006-92.123795 146.880141" stroke="#000"/><path d="m171.607064 164.50489q84.16087-78.32709-48.676833-155.753715" stroke="#000"/><path d="m94.037934 155.70097q-101.144959 17.29903-80.809083-162.335378" stroke="#fff"/><path d="m103.090907 173q-.080128-183.368014-104.709338-169.976836" stroke="#fff"/><path d="m117.597731 144.668227q-133.597731 10.439309-82.051996-141.89677" stroke="#fff"/><path d="m-16-1.266773q85.440123 85.917171 147.100614 174.266773" stroke="#fff"/><path d="m9.357915 154.259654q142.393732-49.486771 30.841622-151.928836" stroke="#fff"/><path d="m-16 155.352548q158.438725-103.590599 130.455506-168.807978" stroke="#fff"/><path d="m-13.54117-13.133402q172.228827 119.138509 115.522592 179.7792" stroke="#fff"/><path d="m124.63761 160.096058q146.36239-88.418075 1.137499-172.499842" stroke="#000"/><path d="m63.824631-5.979359q89.481258 122.767458-74.149847 166.856999" stroke="#fff"/><path d="m147.148935 159.301103q109.18645-110.493265-39.728683-165.802056" stroke="#000"/><path d="m240.586393-6.98354q16.194731 69.7761-121.655214 142.639093" stroke="#000"/><path d="m100.125317-5.472919q168.11075 22.197924 64.092405 176.722206" stroke="#000"/><path d="m177.412825 173q61.700595-37.202023-56.619444-165.816146" stroke="#000"/><path d="m190.753504 1.051564q-118.27172 94.927319 16.494286 154.840284" stroke="#000"/><path d="m125.399308 161.271235q-23.95003-61.960251 127.636047-116.914502" stroke="#000"/><path d="m115.587607 1.901913q-128.673581 45.924637-36.700854 156.388051" stroke="#fff"/><path d="m116.546435 150.333991q-80.989716-114.884288-126.684318-146.771785" stroke="#fff"/><path d="m185.754891 173q70.986354 0 70.199749-189" stroke="#fff"/><path d="m122.500324-4.481151q-127.149533 164.46664-132.683922 164.935075" stroke="#fff"/><path d="m266.522668 55.485736q-57.96458-19.247176-145.664538 96.812527" stroke="#000"/><path d="m120.178894 161.331624q-8.222734-177.331624 124.564037-135.477016" stroke="#090000"/><path d="m118.01591 3.578412q-134.01591-19.578412-93.047032 147.619477" stroke="#fff"/><path d="m109.882365 149.639425q-125.882365 3.417104-76.511046-147.258707" stroke="#fff"/><path d="m99.052278 6.120366q-107.888367 73.908903 2.357752 153.398265" stroke="#fff"/><path d="m271 49.56532q-94.584267 51.776247-13.990677 108.127652" stroke="#fff"/><path d="m125.653486 26.895813q-141.653486-23.579803-116.393516 146.104187" stroke="#fff"/><path d="m108.530346 173q36.721815-50.456978-105.804633-164.831912" stroke="#fff"/><path d="m99.262672-16q20.304354 186.058472-111.507161 172.718779" stroke="#fff"/><path d="m185.053559 173q70.494537-64.552965-79.044293-189" stroke="#000"/><path d="m251.061052 39.100076q-117.355822-55.100076-131.318982 121.429101" stroke="#020000"/><path d="m250.932621 21.069492q13.313223 53.90257-36.615577 136.304191" stroke="#fff"/><path d="m120.990208 11.253599q102.316867 126.401581 84.902778 161.746401" stroke="#000"/><path d="m157.318936 173q-84.50942-151.128045 56.85504-171.096932" stroke="#000"/><path d="m4.428566 2.951725q-20.428566 163.167836 111.127946 126.539044" stroke="#fff"/><path d="m131.524611-16q-70.229701 111.679353-146.009563 182.238648" stroke="#fff"/><path d="m239.781143 8.23011q-121.36984 75.318844-31.95185 149.543403" stroke="#000"/><path d="m-16 166.844772q144.948205-121.611313 126.802343-182.844772" stroke="#fff"/><path d="m118.491516 158.293517q-128.432132-79.357591-2.601777-151.183591" stroke="#fff"/><path d="m241.318742-.527316q-145.703493 70.24553-24.709571 164.433247" stroke="#000"/><path d="m255.725804 61.334565q-73.229738 62.772996-.93779 96.593995" stroke="#fff"/><path d="m116.63598-16q45.865369 134.007167 149.636319 57.846066" stroke="#000"/><path d="m109.119521 173q15.842891-57.301073-125.119521-177.119863" stroke="#fff"/><path d="m162.120834 154.531515q-52.685167-137.109831 80.988834-137.54301" stroke="#000"/><path d="m37.56634 158.12757q99.051398-7.966184 40.023591-174.12757" stroke="#fff"/><path d="m112.983688-16q33.074408 65.088359-107.548759 168.397837" stroke="#fff"/><path d="m241.601121 9.610772q-114.522586 67.605125-28.141203 142.642375" stroke="#000"/><path d="m214.154029 156.484036q52.174409-7.550543 38.80094-127.221009" stroke="#fff"/><path d="m271 166.125047q-97.848693-47.851409-7.787024-112.159418" stroke="#fff"/><path d="m153.011214 162.123137q-72.550378-156.579601 91.561216-150.655688" stroke="#000"/><path d="m125.666388 22.866788q-141.666388-38.866788-121.473864 127.452556" stroke="#fff"/><path d="m12.831982 2.779451q129.198785 64.02219 5.120157 156.661694" stroke="#fff"/><path d="m202.795335 156.691912q-97.857561-78.653496 11.008022-138.338577" stroke="#000"/><path d="m59.315918 159.488254q-75.315918-129.245041 64.606508-139.600245" stroke="#fff"/><path d="m149.446536 3.417093q-98.658055 119.006272 65.474797 156.457471" stroke="#250000"/><path d="m124.271892 2.454781q20.912868 135.339179 128.987195 50.381276" stroke="#070000"/><path d="m211.006978-11.851701q59.993022 76.791119-88.841541 151.040012" stroke="#000"/><path d="m186.521984 156.407197q-138.978597-68.958039-10.404918-166.91031" stroke="#190000"/><path d="m114.866641 99.174459q152.095616 5.481797 123.27637-115.174459" stroke="#000"/><path d="m14.345969 162.242037q-23.472564-63.672372 110.498334-135.755633" stroke="#fff"/><path d="m123.57097 167.407278q-18.910502-35.777624-139.57097-168.486233" stroke="#fff"/><path d="m106.91187 173q26.219723-89.17783-110.681852-172.869978" stroke="#fff"/><path d="m129.189006 158.836715q136.318614-47.251146 27.954753-159.244337" stroke="#000"/><path d="m120.553204 36.946517q-122.366343-40.289911-112.276247 126.657828" stroke="#fff"/><path d="m249.324328 20.46235q-113.057863 25.447577-30.8148 152.53765" stroke="#000"/><path d="m262.644506 4.46573q-3.355061 62.182754-53.847675 160.134231" stroke="#fff"/><path d="m112.469108-.136457q-127.734089 29.025985-44.265205 173.136457" stroke="#fff"/><path d="m-16 .884502q130.914049 157.115549 138.301051 172.115498" stroke="#fff"/><path d="m144.11773 167.192886q-40.010907-107.14308 108.606505-109.825603" stroke="#000"/><path d="m251.988304 37.450596q-143.288744-32.60166-102.359578 121.096075" stroke="#000"/><path d="m76.034896-7.193619q-81.141489 133.723623 45.392608 161.368501" stroke="#fff"/><path d="m6.733449 16.693246q-22.733449 156.306754 95.860684 139.711388" stroke="#fff"/><path d="m35.133056 156.833843q117.342221-105.757-30.039419-160.365877" stroke="#fff"/><path d="m213.816186 162.534074q-174.103697-42.153998-53.198017-177.179456" stroke="#350000"/><path d="m268.214828 51.061432q-76.939443 65.244026-12.420378 103.074595" stroke="#fff"/><path d="m242.781138 13.404418q-131.75296 37.956392-35.410871 138.416628" stroke="#000"/><path d="m113.924241 4.477268q-120.082571-20.477268-93.187807 168.522732" stroke="#fffeff"/><path d="m241.444525 1.044609q-144.67663 43.493319-44.07825 151.812956" stroke="#000"/><path d="m50.339073-11.664113q-64.75614 164.179855 53.15171 168.059045" stroke="#fff"/><path d="m113.368303 173q18.481861-62.107425-121.887036-171.644094" stroke="#fff"/><path d="m240.230035-4.385418q26.260683 49.502464 3.868831 171.666983" stroke="#fff"/><path d="m214.622588 161.893877q-155.418715-60.815728-30.556486-177.893877" stroke="#000"/><path d="m263.600297 53.503267q-91.599159 52.076248-4.990953 108.894522" stroke="#fff"/><path d="m101.320131-13.88014q167.759571 62.773962 38.710768 186.21253" stroke="#000"/><path d="m119.015962-.827535q-135.015962 82.541308-.418735 163.734871" stroke="#fff"/><path d="m214.744109 156.899718q56.255891.902283 31.248937-90.217823" stroke="#fff"/><path d="m183.603876 167.168629q-108.116348-146.413894 71.915093-173.145304" stroke="#000"/><path d="m-16 141.938307q152.36528-78.109027 130.578652-157.938307" stroke="#fff"/><path d="m246.674723-8.971114q24.325277 113.927464-39.281553 171.511665" stroke="#fff"/><path d="m88.641757 173q44.955533-74.584807-80.797489-161.373839" stroke="#fff"/><path d="m154.61717 163.245775q-35.594858-78.308328 116.38283-122.480352" stroke="#000"/><path d="m214.329012 147.900451q-91.29032-92.638485 28.119468-129.088315" stroke="#000"/><path d="m15.584487 155.975725q-31.584487-56.674207 110.727412-133.150328" stroke="#fff"/><path d="m2.918955 146.219448q-18.918955-162.219448 119.607243-126.212668" stroke="#fffcff"/><path d="m212.307176-13.361667q-165.157621 55.369906-36.633597 173.241404" stroke="#0b0000"/><path d="m-12.068822-12.854647q135.117841 87.407407 126.255133 156.549749" stroke="#fff"/><path d="m215.146911-16q-151.039297 86.519689-26.672002 174.083199" stroke="#000"/><path d="m212.129421 167.494067q-21.549183-147.740529-85.080582-159.936061" stroke="#000"/><path d="m-4.934503 169.773872q164.465252-40.072158 66.990295-170.918559" stroke="#fff"/><path d="m250.472067 66.176129q-64.470159 66.937147 2.753442 93.328186" stroke="#fff"/><path d="m83.627237 155.647232q-99.627237 17.143759-79.322204-130.782685" stroke="#fff"/><path d="m134.095551 159.210818q136.904449-48.685323 26.033224-167.661677" stroke="#000"/><path d="m118.96168 154.382512q-125.850186-2.637789-60.178733-170.382512" stroke="#fff"/><path d="m253.575415 68.779655q-59.073242 53.942062 14.839418 89.718035" stroke="#fff"/><path d="m188.526864 160.30231q-99.930992-118.995677 43.141834-156.956535" stroke="#000"/><path d="m213.840847 144.76648q-17.897065-157.40925-78.467394-140.467665" stroke="#000"/><path d="m236.146357 167.505562q34.853643-148.020937 3.254382-171.222301" stroke="#fff"/><path d="m128.708463 173q-27.555227-64.558778 122.494794-130.664624" stroke="#050000"/><path d="m-16 8.263249q23.129446-8.953957 143.164305 157.655544" stroke="#fff"/><path d="m-7.393381 160.191045q149.259982-94.007849 106.890011-164.865009" stroke="#fff"/><path d="m234.007424-3.529539q36.992576 45.011156-108.164015 156.995508" stroke="#000"/><path d="m126.152736 28.991814q-140.766546 1.176036-70.730131 133.503705" stroke="#fff"/><path d="m18.973606.08115q120.363318 1.216963 65.629324 164.594232" stroke="#fff"/><path d="m243.740678 33.498485q-64.710025 128.820227-139.121131 43.450863" stroke="#000"/><path d="m114.333528.803753q-82.793077 114.354568-115.123683 143.146056" stroke="#fff"/><path d="m243.890761-16q27.109239 135.566559-8.214218 174.988034" stroke="#fff"/><path d="m80.250402-16q-96.250402 135.847783 33.243038 173.856444" stroke="#fff"/></g></svg>