<svg xmlns="http://www.w3.org/2000/svg" version="1.1" width="1024" height="632">
<rect x="0" y="0" width="1024" height="632" fill="#948184" />
<g transform="scale(4.000000) translate(0.5 0.5)">
<path stroke="#000000" stroke-opacity="0.501961" fill="none" d="M 239.608729 -1.289954 Q 108.982691 -4.732893, 168.142587 173.000000" stroke-width="0.500000" />
<path stroke="#000000" stroke-opacity="0.501961" fill="none" d="M 240.242452 4.955142 Q 69.562937 2.878331, 149.773622 160.575184" stroke-width="0.500000" />
<path stroke="#000000" stroke-opacity="0.501961" fill="none" d="M 240.362971 0.555130 Q 62.534973 24.314183, 160.539871 161.890503" stroke-width="0.500000" />
<path stroke="#000000" stroke-opacity="0.501961" fill="none" d="M 241.391946 1.533684 Q 74.242285 28.788900, 164.726293 160.628974" stroke-width="0.500000" />
<path stroke="#000000" stroke-opacity="0.501961" fill="none" d="M 172.547276 162.622231 Q 80.082763 31.653947, 242.485084 8.590885" stroke-width="0.500000" />
<path stroke="#000000" stroke-opacity="0.501961" fill="none" d="M 244.141631 2.955349 Q 80.540589 30.097364, 167.413082 159.315902" stroke-width="0.500000" />
<path stroke="#000000" stroke-opacity="0.501961" fill="none" d="M 244.162079 1.905052 Q 69.333177 32.166918, 161.040067 160.355473" stroke-width="0.500000" />
<path stroke="#000000" stroke-opacity="0.501961" fill="none" d="M 246.423951 12.864819 Q 84.575424 25.032699, 176.305917 161.134191" stroke-width="0.500000" />
<path stroke="#000000" stroke-opacity="0.501961" fill="none" d="M 130.725632 161.022077 Q 271.000000 94.070147, 141.946706 0.483859" stroke-width="0.500000" />
<path stroke="#000000" stroke-opacity="0.501961" fill="none" d="M 142.204945 158.506039 Q 271.000000 93.571153, 144.304981 0.942922" stroke-width="0.500000" />
<path stroke="#000000" stroke-opacity="0.501961" fill="none" d="M 124.107435 158.091296 Q 262.500081 74.940797, 130.079981 -4.628881" stroke-width="0.500000" />
<path stroke="#000000" stroke-opacity="0.501961" fill="none" d="M 231.141634 2.958351 Q 72.109285 3.089170, 146.083328 166.145873" stroke-width="0.500000" />
<path stroke="#000000" stroke-opacity="0.501961" fill="none" d="M 241.966255 3.180217 Q 93.737225 46.974094, 206.712792 156.306308" stroke-width="0.500000" />
<path stroke="#0b0000" stroke-opacity="0.501961" fill="none" d="M 147.217351 173.000000 Q 62.507464 -7.967555, 250.374747 -0.509766" stroke-width="0.500000" />
<path stroke="#000000" stroke-opacity="0.501961" fill="none" d="M 239.306883 1.409335 Q 77.463981 -1.610472, 150.810343 158.117650" stroke-width="0.500000" />
<path stroke="#000000" stroke-opacity="0.501961" fill="none" d="M 179.352267 158.076544 Q 88.943977 33.647691, 243.419831 15.055103" stroke-width="0.500000" />
<path stroke="#000000" stroke-opacity="0.501961" fill="none" d="M 190.774511 158.421230 Q 92.312291 62.948079, 242.455291 6.064634" stroke-width="0.500000" />
<path stroke="#000000" stroke-opacity="0.501961" fill="none" d="M 241.369695 5.900724 Q 80.623509 30.943669, 162.610020 155.624923" stroke-width="0.500000" />
<path stroke="#000000" stroke-opacity="0.501961" fill="none" d="M 157.373887 161.364015 Q 76.978928 8.284928, 242.700297 8.860320" stroke-width="0.500000" />
<path stroke="#000000" stroke-opacity="0.501961" fill="none" d="M 242.052901 9.168600 Q 98.781003 60.932152, 202.262505 160.648202" stroke-width="0.500000" />
<path stroke="#000000" stroke-opacity="0.501961" fill="none" d="M 210.555344 156.781088 Q 104.094406 59.988686, 244.085374 10.491613" stroke-width="0.500000" />
<path stroke="#000000" stroke-opacity="0.501961" fill="none" d="M 151.539443 -1.690285 Q 271.000000 85.630681, 128.475784 157.636525" stroke-width="0.500000" />
<path stroke="#000000" stroke-opacity="0.501961" fill="none" d="M 241.801224 4.563479 Q 93.060672 59.623107, 194.427918 158.297529" stroke-width="0.500000" />
<path stroke="#000000" stroke-opacity="0.501961" fill="none" d="M 133.122139 -1.025494 Q 258.353435 91.797924, 133.667939 157.945978" stroke-width="0.500000" />
<path stroke="#000000" stroke-opacity="0.501961" fill="none" d="M 245.504172 0.084039 Q 66.107377 26.129202, 156.168918 173.000000" stroke-width="0.500000" />
<path stroke="#000000" stroke-opacity="0.501961" fill="none" d="M 245.472170 15.231774 Q 106.363256 59.794663, 214.128012 158.967051" stroke-width="0.500000" />
<path stroke="#000000" stroke-opacity="0.501961" fill="none" d="M 249.893990 5.021313 Q 70.507006 -15.882923, 138.044450 157.113083" stroke-width="0.500000" />
<path stroke="#000000" stroke-opacity="0.501961" fill="none" d="M 162.227838 163.256910 Q 265.821352 86.688646, 125.999180 1.125421" stroke-width="0.500000" />
<path stroke="#000000" stroke-opacity="0.501961" fill="none" d="M 165.737498 157.808216 Q 259.022998 84.402888, 122.576565 3.832173" stroke-width="0.500000" />
<path stroke="#000000" stroke-opacity="0.501961" fill="none" d="M 240.713421 9.046059 Q 95.157002 58.251528, 208.711390 161.561236" stroke-width="0.500000" />
<path stroke="#000000" stroke-opacity="0.501961" fill="none" d="M 127.879366 3.620401 Q 227.276446 -12.656722, 206.553119 173.000000" stroke-width="0.500000" />
<path stroke="#ffffff" stroke-opacity="0.501961" fill="none" d="M 115.385226 -0.466707 Q 21.952916 -8.060692, 7.345973 150.394070" stroke-width="0.500000" />
<path stroke="#000000" stroke-opacity="0.501961" fill="none" d="M 120.308425 157.396910 Q 250.901542 45.083809, 242.885428 11.680695" stroke-width="0.500000" />
<path stroke="#000000" stroke-opacity="0.501961" fill="none" d="M 99.162902 173.000000 Q 271.000000 58.525606, 235.430005 0.200601" stroke-width="0.500000" />
<path stroke="#000000" stroke-opacity="0.501961" fill="none" d="M 121.057371 5.602337 Q 262.307303 90.099907, 148.897192 167.773730" stroke-width="0.500000" />
<path stroke="#000000" stroke-opacity="0.501961" fill="none" d="M 171.130486 158.790655 Q 89.534577 40.518698, 240.239747 2.594026" stroke-width="0.500000" />
<path stroke="#000000" stroke-opacity="0.501961" fill="none" d="M 150.125656 159.119093 Q 79.704258 14.821025, 229.424425 2.358607" stroke-width="0.500000" />
<path stroke="#000000" stroke-opacity="0.501961" fill="none" d="M 128.040397 156.791153 Q 271.000000 72.879131, 133.556372 -8.881797" stroke-width="0.500000" />
<path stroke="#000000" stroke-opacity="0.501961" fill="none" d="M 243.739795 11.059963 Q 101.456785 85.332863, 226.698981 173.000000" stroke-width="0.500000" />
<path stroke="#000000" stroke-opacity="0.501961" fill="none" d="M 189.974629 162.591245 Q 85.840518 51.482922, 242.220127 5.697201" stroke-width="0.500000" />
<path stroke="#000000" stroke-opacity="0.501961" fill="none" d="M 161.508945 166.867303 Q 271.000000 84.531121, 121.963507 -2.954372" stroke-width="0.500000" />
<path stroke="#000000" stroke-opacity="0.501961" fill="none" d="M 150.514338 171.606288 Q 271.000000 89.721810, 123.925290 1.968101" stroke-width="0.500000" />
<path stroke="#000000" stroke-opacity="0.501961" fill="none" d="M 195.595660 169.967351 Q 75.709350 48.976172, 237.654235 4.917121" stroke-width="0.500000" />
<path stroke="#000000" stroke-opacity="0.501961" fill="none" d="M 147.770418 160.071561 Q 71.082493 18.796363, 238.069532 0.725840" stroke-width="0.500000" />
<path stroke="#000000" stroke-opacity="0.501961" fill="none" d="M 239.485298 10.178327 Q 102.197875 29.581467, 188.875348 156.810585" stroke-width="0.500000" />
<path stroke="#000000" stroke-opacity="0.501961" fill="none" d="M 118.641956 132.111754 Q 245.312510 63.692741, 241.221694 2.056156" stroke-width="0.500000" />
<path stroke="#000000" stroke-opacity="0.501961" fill="none" d="M 241.610638 0.807991 Q 76.353079 36.199551, 161.292836 157.274479" stroke-width="0.500000" />
<path stroke="#000000" stroke-opacity="0.501961" fill="none" d="M 212.647037 153.500409 Q 111.603786 61.203108, 245.244735 16.274775" stroke-width="0.500000" />
<path stroke="#000000" stroke-opacity="0.501961" fill="none" d="M 113.708350 166.358126 Q 254.801447 43.332472, 242.572225 15.190945" stroke-width="0.500000" />
<path stroke="#000000" stroke-opacity="0.501961" fill="none" d="M 237.614184 9.066717 Q 257.655628 58.882879, 111.796802 164.237350" stroke-width="0.500000" />
<path stroke="#000000" stroke-opacity="0.501961" fill="none" d="M 174.437711 159.561205 Q 83.094040 24.584616, 247.663507 6.672576" stroke-width="0.500000" />
<path stroke="#ffffff" stroke-opacity="0.501961" fill="none" d="M -5.260074 158.620425 Q 159.265811 131.605066, 64.074455 -1.294029" stroke-width="0.500000" />
<path stroke="#000000" stroke-opacity="0.501961" fill="none" d="M 178.415367 173.000000 Q 264.338754 43.717029, 109.954799 -6.191189" stroke-width="0.500000" />
<path stroke="#000000" stroke-opacity="0.501961" fill="none" d="M 201.357101 166.309706 Q 95.083563 76.812172, 238.863355 12.967696" stroke-width="0.500000" />
<path stroke="#030000" stroke-opacity="0.501961" fill="none" d="M 134.520059 157.490165 Q 73.868856 -10.955781, 233.453967 2.191911" stroke-width="0.500000" />
<path stroke="#ffffff" stroke-opacity="0.501961" fill="none" d="M 0.925659 149.493633 Q 133.851193 147.001981, 85.371160 -1.376431" stroke-width="0.500000" />
<path stroke="#000000" stroke-opacity="0.501961" fill="none" d="M 119.506781 -2.267252 Q 249.643470 128.333874, 187.225603 173.000000" stroke-width="0.500000" />
<path stroke="#ffffff" stroke-opacity="0.501961" fill="none" d="M 119.929207 159.348543 Q -16.000000 79.365630, 122.851647 -1.009646" stroke-width="0.500000" />
<path stroke="#ffffff" stroke-opacity="0.501961" fill="none" d="M 110.615574 158.582474 Q -16.000000 81.551488, 115.834999 -0.137416" stroke-width="0.500000" />
<path stroke="#ffffff" stroke-opacity="0.501961" fill="none" d="M -0.082951 157.030913 Q 158.358415 113.592104, 48.648460 -1.952016" stroke-width="0.500000" />
<path stroke="#000000" stroke-opacity="0.501961" fill="none" d="M 120.973401 -0.942862 Q 246.903441 104.252004, 192.125144 157.305763" stroke-width="0.500000" />
<path stroke="#000000" stroke-opacity="0.501961" fill="none" d="M 159.682423 172.940703 Q 79.957702 21.189985, 226.055746 5.551224" stroke-width="0.500000" />
<path stroke="#000000" stroke-opacity="0.501961" fill="none" d="M 120.322515 160.630545 Q 116.262811 -16.000000, 249.605166 31.804544" stroke-width="0.500000" />
<path stroke="#ffffff" stroke-opacity="0.501961" fill="none" d="M -2.609283 156.089843 Q 133.371506 106.403474, 97.870943 -16.000000" stroke-width="0.500000" />
<path stroke="#000000" stroke-opacity="0.501961" fill="none" d="M 216.446215 170.710403 Q 95.084643 68.227681, 234.936466 12.543347" stroke-width="0.500000" />
<path stroke="#000000" stroke-opacity="0.501961" fill="none" d="M 181.387690 162.278504 Q 95.454681 34.329168, 245.486925 20.716225" stroke-width="0.500000" />
<path stroke="#000000" stroke-opacity="0.501961" fill="none" d="M 115.919227 136.609764 Q 271.000000 51.724239, 223.471806 -5.580322" stroke-width="0.500000" />
<path stroke="#ffffff" stroke-opacity="0.501961" fill="none" d="M 2.076027 157.595894 Q 154.516107 141.626823, 70.668350 -0.892798" stroke-width="0.500000" />
<path stroke="#000000" stroke-opacity="0.501961" fill="none" d="M 198.716137 159.046887 Q 98.065989 71.371386, 231.976900 2.856656" stroke-width="0.500000" />
<path stroke="#000000" stroke-opacity="0.501961" fill="none" d="M 213.433032 149.427381 Q 118.030829 58.364830, 245.530935 19.309183" stroke-width="0.500000" />
<path stroke="#000000" stroke-opacity="0.501961" fill="none" d="M 153.591000 160.393620 Q 258.941917 63.454685, 127.304950 0.195669" stroke-width="0.500000" />
<path stroke="#ffffff" stroke-opacity="0.501961" fill="none" d="M 85.226857 158.296055 Q -16.000000 35.144683, 117.723304 0.826377" stroke-width="0.500000" />
<path stroke="#000000" stroke-opacity="0.501961" fill="none" d="M 114.335161 103.592861 Q 271.000000 88.544203, 242.242260 7.919042" stroke-width="0.500000" />
<path stroke="#000000" stroke-opacity="0.501961" fill="none" d="M 237.329952 7.943086 Q 242.760831 80.691766, 118.313762 144.247896" stroke-width="0.500000" />
<path stroke="#ffffff" stroke-opacity="0.501961" fill="none" d="M 116.249975 158.971137 Q -16.000000 76.810826, 111.116391 0.541555" stroke-width="0.500000" />
<path stroke="#ffffff" stroke-opacity="0.501961" fill="none" d="M 88.860470 173.000000 Q 129.370521 -16.000000, -12.916633 3.470903" stroke-width="0.500000" />
<path stroke="#ffffff" stroke-opacity="0.501961" fill="none" d="M 118.393217 157.035145 Q -10.222643 149.271985, 63.653252 -1.279502" stroke-width="0.500000" />
<path stroke="#000000" stroke-opacity="0.501961" fill="none" d="M 246.951583 -1.240067 Q 64.878805 12.442211, 153.929756 156.930878" stroke-width="0.500000" />
<path stroke="#ffffff" stroke-opacity="0.501961" fill="none" d="M 93.764473 -0.954040 Q 130.024365 173.000000, -8.541902 156.579486" stroke-width="0.500000" />
<path stroke="#000000" stroke-opacity="0.501961" fill="none" d="M 144.157186 170.285970 Q 261.749665 86.560950, 118.350038 8.048578" stroke-width="0.500000" />
<path stroke="#ffffff" stroke-opacity="0.501961" fill="none" d="M 39.766126 0.340746 Q -16.000000 159.326743, 113.862049 157.888744" stroke-width="0.500000" />
<path stroke="#000000" stroke-opacity="0.501961" fill="none" d="M 212.419011 156.771365 Q 124.928544 65.058198, 241.320732 17.698302" stroke-width="0.500000" />
<path stroke="#ffffff" stroke-opacity="0.501961" fill="none" d="M 120.352872 173.000000 Q 87.792693 -16.000000, -3.208113 5.179125" stroke-width="0.500000" />
<path stroke="#ffffff" stroke-opacity="0.501961" fill="none" d="M 117.943428 165.343730 Q -16.000000 87.098200, 100.389662 0.743184" stroke-width="0.500000" />
<path stroke="#000000" stroke-opacity="0.501961" fill="none" d="M 240.463469 6.815381 Q 261.388020 62.837546, 122.007558 158.875058" stroke-width="0.500000" />
<path stroke="#ffffff" stroke-opacity="0.501961" fill="none" d="M 117.243537 4.452801 Q -10.751097 83.307577, 124.086863 159.570741" stroke-width="0.500000" />
<path stroke="#000000" stroke-opacity="0.501961" fill="none" d="M 180.760704 173.000000 Q 66.594061 44.065507, 244.712797 -2.032515" stroke-width="0.500000" />
<path stroke="#000000" stroke-opacity="0.501961" fill="none" d="M 241.128463 7.403672 Q 102.859303 63.155032, 209.509831 156.732301" stroke-width="0.500000" />
<path stroke="#ffffff" stroke-opacity="0.501961" fill="none" d="M 41.287490 -6.384143 Q 158.449737 103.162651, -0.550723 156.931440" stroke-width="0.500000" />
<path stroke="#000000" stroke-opacity="0.501961" fill="none" d="M 190.215789 158.753529 Q 98.842071 77.138943, 237.974678 11.280422" stroke-width="0.500000" />
<path stroke="#ffffff" stroke-opacity="0.501961" fill="none" d="M 111.520142 156.524756 Q -16.000000 121.145207, 84.136521 1.605197" stroke-width="0.500000" />
<path stroke="#000000" stroke-opacity="0.501961" fill="none" d="M 103.848321 85.971747 Q 243.613496 117.335123, 244.881198 14.125383" stroke-width="0.500000" />
<path stroke="#ffffff" stroke-opacity="0.501961" fill="none" d="M 54.732478 157.872869 Q -16.000000 14.238631, 121.087389 0.154188" stroke-width="0.500000" />
<path stroke="#ffffff" stroke-opacity="0.501961" fill="none" d="M 108.451817 -7.507292 Q 147.988703 49.234760, -16.000000 166.772133" stroke-width="0.500000" />
<path stroke="#000000" stroke-opacity="0.501961" fill="none" d="M 249.849765 35.562117 Q 134.826923 -16.000000, 121.933693 162.569725" stroke-width="0.500000" />
<path stroke="#000000" stroke-opacity="0.501961" fill="none" d="M 194.103228 169.364011 Q 75.911725 57.840633, 217.651515 8.175485" stroke-width="0.500000" />
<path stroke="#000000" stroke-opacity="0.501961" fill="none" d="M 230.113317 3.945545 Q 70.442184 5.760994, 141.995729 170.269431" stroke-width="0.500000" />
<path stroke="#ffffff" stroke-opacity="0.501961" fill="none" d="M 0.175448 8.465416 Q 79.983606 -16.000000, 116.253015 165.491267" stroke-width="0.500000" />
<path stroke="#000000" stroke-opacity="0.501961" fill="none" d="M 144.369700 157.996662 Q 73.179825 8.228684, 217.216724 1.049199" stroke-width="0.500000" />
<path stroke="#000000" stroke-opacity="0.501961" fill="none" d="M 164.012506 0.898888 Q 262.145856 112.703037, 126.221168 158.598946" stroke-width="0.500000" />
<path stroke="#000000" stroke-opacity="0.501961" fill="none" d="M 253.838123 42.652432 Q 216.253313 39.121400, 122.278057 154.463560" stroke-width="0.500000" />
<path stroke="#000000" stroke-opacity="0.501961" fill="none" d="M 191.510877 173.000000 Q 237.773452 120.280391, 119.044962 4.375362" stroke-width="0.500000" />
<path stroke="#ffffff" stroke-opacity="0.501961" fill="none" d="M 119.014906 6.335321 Q -4.453176 79.914448, 121.000989 156.748749" stroke-width="0.500000" />
<path stroke="#000000" stroke-opacity="0.501961" fill="none" d="M 211.028768 159.543459 Q 58.104601 90.119361, 191.717169 -10.289312" stroke-width="0.500000" />
<path stroke="#ffffff" stroke-opacity="0.501961" fill="none" d="M 53.768746 -11.826139 Q -16.000000 149.709376, 105.964037 157.276996" stroke-width="0.500000" />
<path stroke="#ffffff" stroke-opacity="0.501961" fill="none" d="M 89.855762 -16.000000 Q 131.062902 169.380535, -2.773979 156.160151" stroke-width="0.500000" />
<path stroke="#ffffff" stroke-opacity="0.501961" fill="none" d="M -0.706714 153.436028 Q 149.294979 94.334112, 23.278796 -7.812219" stroke-width="0.500000" />
<path stroke="#ffffff" stroke-opacity="0.501961" fill="none" d="M 0.596983 173.000000 Q -16.000000 -16.000000, 126.038085 24.050130" stroke-width="0.500000" />
<path stroke="#ffffff" stroke-opacity="0.501961" fill="none" d="M 51.746129 -2.758623 Q 156.459704 111.109495, 9.030791 155.849699" stroke-width="0.500000" />
<path stroke="#000000" stroke-opacity="0.501961" fill="none" d="M 182.436762 164.228442 Q 94.099417 61.099333, 236.137673 5.485109" stroke-width="0.500000" />
<path stroke="#000000" stroke-opacity="0.501961" fill="none" d="M 121.959262 11.090689 Q 244.767492 86.261199, 156.018661 158.849300" stroke-width="0.500000" />
<path stroke="#ffffff" stroke-opacity="0.501961" fill="none" d="M -4.261305 158.243339 Q 147.921837 25.474905, 109.648173 -16.000000" stroke-width="0.500000" />
<path stroke="#000000" stroke-opacity="0.501961" fill="none" d="M 250.232989 9.773276 Q 127.472370 69.407042, 213.315531 147.354002" stroke-width="0.500000" />
<path stroke="#000000" stroke-opacity="0.501961" fill="none" d="M 221.365305 5.925351 Q 91.786641 55.250642, 202.235549 161.659687" stroke-width="0.500000" />
<path stroke="#000000" stroke-opacity="0.501961" fill="none" d="M 140.257736 154.667275 Q 74.749329 -1.534232, 239.664245 0.552113" stroke-width="0.500000" />
<path stroke="#ffffff" stroke-opacity="0.501961" fill="none" d="M 110.405723 156.839696 Q -14.244581 147.885546, 56.344473 6.879827" stroke-width="0.500000" />
<path stroke="#000000" stroke-opacity="0.501961" fill="none" d="M 116.962405 -1.828032 Q 271.000000 70.021423, 172.089145 164.858387" stroke-width="0.500000" />
<path stroke="#ffffff" stroke-opacity="0.501961" fill="none" d="M 84.168959 -4.384863 Q -16.000000 118.738702, 115.979889 157.019173" stroke-width="0.500000" />
<path stroke="#000000" stroke-opacity="0.501961" fill="none" d="M 167.065198 156.259611 Q 254.613340 80.408963, 119.040043 3.372528" stroke-width="0.500000" />
<path stroke="#ffffff" stroke-opacity="0.501961" fill="none" d="M 21.334942 7.453865 Q -16.000000 173.000000, 119.412878 156.203330" stroke-width="0.500000" />
<path stroke="#000000" stroke-opacity="0.501961" fill="none" d="M 212.645097 149.884639 Q 113.363174 56.399465, 248.055519 11.949484" stroke-width="0.500000" />
<path stroke="#ffffff" stroke-opacity="0.501961" fill="none" d="M 115.410108 151.567000 Q 6.557336 80.992313, 118.055383 8.138641" stroke-width="0.500000" />
<path stroke="#000000" stroke-opacity="0.501961" fill="none" d="M 105.017360 77.700412 Q 248.015435 126.451504, 227.734885 -16.000000" stroke-width="0.500000" />
<path stroke="#000000" stroke-opacity="0.501961" fill="none" d="M 238.858775 -4.949692 Q 256.851954 41.904869, 117.589418 155.104068" stroke-width="0.500000" />
<path stroke="#ffffff" stroke-opacity="0.501961" fill="none" d="M -13.822628 -7.396990 Q 132.447607 78.688240, 115.710877 173.000000" stroke-width="0.500000" />
<path stroke="#ffffff" stroke-opacity="0.501961" fill="none" d="M 64.497156 3.682365 Q -11.237048 141.009292, 131.705464 160.894004" stroke-width="0.500000" />
<path stroke="#000000" stroke-opacity="0.501961" fill="none" d="M 213.724429 5.398054 Q 85.090323 33.329213, 173.501859 159.031759" stroke-width="0.500000" />
<path stroke="#000000" stroke-opacity="0.501961" fill="none" d="M 236.654381 163.963044 Q 73.876574 133.404788, 168.856066 0.230132" stroke-width="0.500000" />
<path stroke="#ffffff" stroke-opacity="0.501961" fill="none" d="M 203.374492 160.913206 Q 271.000000 144.614707, 250.839658 -16.000000" stroke-width="0.500000" />
<path stroke="#ffffff" stroke-opacity="0.501961" fill="none" d="M 97.703755 173.000000 Q 137.387251 93.703514, -10.383557 -1.894861" stroke-width="0.500000" />
<path stroke="#ffffff" stroke-opacity="0.501961" fill="none" d="M 116.503570 147.076254 Q -16.000000 169.239937, 2.437365 0.746533" stroke-width="0.500000" />
<path stroke="#000000" stroke-opacity="0.501961" fill="none" d="M 103.832008 84.504380 Q 182.104606 154.595069, 246.274877 26.350052" stroke-width="0.500000" />
<path stroke="#ffffff" stroke-opacity="0.501961" fill="none" d="M 61.185002 162.084664 Q -12.735735 35.600712, 114.801850 -1.062023" stroke-width="0.500000" />
<path stroke="#ffffff" stroke-opacity="0.501961" fill="none" d="M 114.445925 -13.104757 Q 136.105579 13.852589, -1.183620 155.051331" stroke-width="0.500000" />
<path stroke="#ffffff" stroke-opacity="0.501961" fill="none" d="M 15.253982 3.395607 Q 136.091036 88.429961, -0.225755 156.938750" stroke-width="0.500000" />
<path stroke="#ffffff" stroke-opacity="0.501961" fill="none" d="M 193.642620 167.651711 Q 271.000000 135.242481, 249.669468 -11.242433" stroke-width="0.500000" />
<path stroke="#240000" stroke-opacity="0.501961" fill="none" d="M 133.148356 158.854479 Q 75.844442 5.273323, 211.629245 -3.467187" stroke-width="0.500000" />
<path stroke="#ffffff" stroke-opacity="0.501961" fill="none" d="M -16.000000 160.799406 Q 145.534919 113.251281, 78.579943 -16.000000" stroke-width="0.500000" />
<path stroke="#000000" stroke-opacity="0.501961" fill="none" d="M 103.512055 64.710357 Q 239.338890 31.062606, 205.374940 169.336898" stroke-width="0.500000" />
<path stroke="#ffffff" stroke-opacity="0.501961" fill="none" d="M 112.226438 155.074747 Q -6.580185 113.288584, 79.871405 8.775567" stroke-width="0.500000" />
<path stroke="#ffffff" stroke-opacity="0.501961" fill="none" d="M 28.914890 1.628026 Q -16.000000 173.000000, 119.807461 153.746548" stroke-width="0.500000" />
<path stroke="#000000" stroke-opacity="0.501961" fill="none" d="M 121.079248 16.429718 Q 251.053720 81.340055, 133.261895 173.000000" stroke-width="0.500000" />
<path stroke="#ffffff" stroke-opacity="0.501961" fill="none" d="M 97.563047 173.000000 Q 156.766441 108.086059, -10.626220 -4.566949" stroke-width="0.500000" />
<path stroke="#ffffff" stroke-opacity="0.501961" fill="none" d="M 16.196514 3.101213 Q 149.951072 67.161116, 24.465787 157.875297" stroke-width="0.500000" />
<path stroke="#000000" stroke-opacity="0.501961" fill="none" d="M 244.999671 9.204715 Q 251.367670 120.004577, 101.536811 73.996364" stroke-width="0.500000" />
<path stroke="#000000" stroke-opacity="0.501961" fill="none" d="M 173.110220 173.000000 Q 78.849352 65.724037, 234.337670 9.460930" stroke-width="0.500000" />
<path stroke="#000000" stroke-opacity="0.501961" fill="none" d="M 152.008188 -16.000000 Q 260.361623 74.206361, 118.373696 138.840173" stroke-width="0.500000" />
<path stroke="#ffffff" stroke-opacity="0.501961" fill="none" d="M 130.710820 -1.247190 Q 9.211288 -4.029348, 21.979702 173.000000" stroke-width="0.500000" />
<path stroke="#ffffff" stroke-opacity="0.501961" fill="none" d="M 110.815407 173.000000 Q 127.292990 115.193177, -16.000000 -5.120021" stroke-width="0.500000" />
<path stroke="#000000" stroke-opacity="0.501961" fill="none" d="M 156.237413 158.358368 Q 271.000000 29.665130, 100.717235 -6.679573" stroke-width="0.500000" />
<path stroke="#ffffff" stroke-opacity="0.501961" fill="none" d="M 117.871344 10.900823 Q 14.994198 72.363516, 119.866655 152.516942" stroke-width="0.500000" />
<path stroke="#000000" stroke-opacity="0.501961" fill="none" d="M 189.280210 163.079926 Q 58.727304 70.440790, 197.005882 1.005197" stroke-width="0.500000" />
<path stroke="#000000" stroke-opacity="0.501961" fill="none" d="M 186.301130 173.000000 Q 247.937957 73.868968, 126.703449 5.673817" stroke-width="0.500000" />
<path stroke="#ffffff" stroke-opacity="0.501961" fill="none" d="M 106.703875 2.900797 Q -14.690639 91.782343, 126.141093 164.475567" stroke-width="0.500000" />
<path stroke="#ffffff" stroke-opacity="0.501961" fill="none" d="M -9.566786 -2.653706 Q 137.363978 124.616770, 110.719658 173.000000" stroke-width="0.500000" />
<path stroke="#250000" stroke-opacity="0.501961" fill="none" d="M 234.736953 2.356543 Q 69.530303 -15.443812, 132.926728 162.144181" stroke-width="0.500000" />
<path stroke="#000000" stroke-opacity="0.501961" fill="none" d="M 120.611632 11.303453 Q 193.127200 70.897318, 213.911317 167.636450" stroke-width="0.500000" />
<path stroke="#ffffff" stroke-opacity="0.501961" fill="none" d="M 117.137115 3.821721 Q -16.000000 -1.406705, 43.004267 157.534720" stroke-width="0.500000" />
<path stroke="#ffffff" stroke-opacity="0.501961" fill="none" d="M -16.000000 147.183925 Q 55.150690 161.642481, 123.093705 -6.288388" stroke-width="0.500000" />
<path stroke="#ffffff" stroke-opacity="0.501961" fill="none" d="M 69.364926 -13.662891 Q -16.000000 135.317408, 122.011723 161.530940" stroke-width="0.500000" />
<path stroke="#ffffff" stroke-opacity="0.501961" fill="none" d="M 124.629188 28.933195 Q -16.000000 -14.321045, 4.603110 168.635504" stroke-width="0.500000" />
<path stroke="#000000" stroke-opacity="0.501961" fill="none" d="M 101.193866 78.357695 Q 253.941547 95.716355, 248.861126 29.571499" stroke-width="0.500000" />
<path stroke="#ffffff" stroke-opacity="0.501961" fill="none" d="M 124.653726 32.184055 Q -5.829816 -14.020593, 4.927884 158.273831" stroke-width="0.500000" />
<path stroke="#000000" stroke-opacity="0.501961" fill="none" d="M 188.052882 160.757330 Q 239.870467 112.648284, 102.392826 -16.000000" stroke-width="0.500000" />
<path stroke="#000000" stroke-opacity="0.501961" fill="none" d="M 216.708150 -7.343108 Q 271.000000 52.341120, 118.334802 173.000000" stroke-width="0.500000" />
<path stroke="#000000" stroke-opacity="0.501961" fill="none" d="M 199.401933 165.290533 Q 88.598446 58.351956, 236.413461 5.429296" stroke-width="0.500000" />
<path stroke="#ffffff" stroke-opacity="0.501961" fill="none" d="M 114.946817 3.166215 Q 3.893440 62.487932, 130.244177 167.454148" stroke-width="0.500000" />
<path stroke="#ffffff" stroke-opacity="0.501961" fill="none" d="M 222.406826 158.549798 Q 258.604792 157.280322, 255.290733 -16.000000" stroke-width="0.500000" />
<path stroke="#000000" stroke-opacity="0.501961" fill="none" d="M 252.111259 45.594185 Q 139.074916 145.183785, 102.122544 80.879043" stroke-width="0.500000" />
<path stroke="#000000" stroke-opacity="0.501961" fill="none" d="M 172.732568 164.671646 Q 75.199966 28.779725, 252.616257 -4.158298" stroke-width="0.500000" />
<path stroke="#000000" stroke-opacity="0.501961" fill="none" d="M 245.293040 23.471768 Q 123.424952 39.076896, 188.398370 154.387361" stroke-width="0.500000" />
<path stroke="#ffffff" stroke-opacity="0.501961" fill="none" d="M -5.338541 158.955608 Q 127.256065 8.427956, 118.581763 -16.000000" stroke-width="0.500000" />
<path stroke="#000000" stroke-opacity="0.501961" fill="none" d="M 107.638454 58.427544 Q 234.518494 36.481211, 209.226041 157.265425" stroke-width="0.500000" />
<path stroke="#000000" stroke-opacity="0.501961" fill="none" d="M 103.142614 93.583537 Q 260.297867 101.569395, 246.428671 20.487578" stroke-width="0.500000" />
<path stroke="#000000" stroke-opacity="0.501961" fill="none" d="M 247.250144 31.950460 Q 108.663691 14.041142, 159.191124 154.685378" stroke-width="0.500000" />
<path stroke="#ffffff" stroke-opacity="0.501961" fill="none" d="M 114.241601 2.128092 Q 146.623393 36.526736, -16.000000 168.029852" stroke-width="0.500000" />
<path stroke="#ffffff" stroke-opacity="0.501961" fill="none" d="M -4.100828 154.713907 Q 145.637464 102.610031, 35.663299 -1.245466" stroke-width="0.500000" />
<path stroke="#ffffff" stroke-opacity="0.501961" fill="none" d="M -16.000000 156.358950 Q 141.017658 156.934194, 79.605240 1.472311" stroke-width="0.500000" />
<path stroke="#000000" stroke-opacity="0.501961" fill="none" d="M 114.823888 173.000000 Q 131.358220 107.514510, 249.173592 33.641550" stroke-width="0.500000" />
<path stroke="#000000" stroke-opacity="0.501961" fill="none" d="M 125.034282 4.428761 Q 231.395069 -6.409334, 204.981098 162.809066" stroke-width="0.500000" />
<path stroke="#ffffff" stroke-opacity="0.501961" fill="none" d="M 15.748023 157.791254 Q 140.836696 67.880599, 11.499850 3.141730" stroke-width="0.500000" />
<path stroke="#000000" stroke-opacity="0.501961" fill="none" d="M 239.190658 12.120819 Q 250.409577 43.751249, 122.211058 154.884952" stroke-width="0.500000" />
<path stroke="#000000" stroke-opacity="0.501961" fill="none" d="M 237.956983 8.170454 Q 72.240538 5.340448, 145.833188 155.050595" stroke-width="0.500000" />
<path stroke="#000000" stroke-opacity="0.501961" fill="none" d="M 171.607064 164.504890 Q 255.767934 86.177800, 122.930231 8.751175" stroke-width="0.500000" />
<path stroke="#ffffff" stroke-opacity="0.501961" fill="none" d="M 94.037934 155.700970 Q -7.107025 173.000000, 13.228851 -6.634408" stroke-width="0.500000" />
<path stroke="#ffffff" stroke-opacity="0.501961" fill="none" d="M 103.090907 173.000000 Q 103.010779 -10.368014, -1.618431 3.023164" stroke-width="0.500000" />
<path stroke="#ffffff" stroke-opacity="0.501961" fill="none" d="M 117.597731 144.668227 Q -16.000000 155.107536, 35.545735 2.771457" stroke-width="0.500000" />
<path stroke="#ffffff" stroke-opacity="0.501961" fill="none" d="M -16.000000 -1.266773 Q 69.440123 84.650398, 131.100614 173.000000" stroke-width="0.500000" />
<path stroke="#ffffff" stroke-opacity="0.501961" fill="none" d="M 9.357915 154.259654 Q 151.751647 104.772883, 40.199537 2.330818" stroke-width="0.500000" />
<path stroke="#ffffff" stroke-opacity="0.501961" fill="none" d="M -16.000000 155.352548 Q 142.438725 51.761949, 114.455506 -13.455430" stroke-width="0.500000" />
<path stroke="#ffffff" stroke-opacity="0.501961" fill="none" d="M -13.541170 -13.133402 Q 158.687657 106.005107, 101.981422 166.645798" stroke-width="0.500000" />
<path stroke="#000000" stroke-opacity="0.501961" fill="none" d="M 124.637610 160.096058 Q 271.000000 71.677983, 125.775109 -12.403784" stroke-width="0.500000" />
<path stroke="#ffffff" stroke-opacity="0.501961" fill="none" d="M 63.824631 -5.979359 Q 153.305889 116.788099, -10.325216 160.877640" stroke-width="0.500000" />
<path stroke="#000000" stroke-opacity="0.501961" fill="none" d="M 147.148935 159.301103 Q 256.335385 48.807838, 107.420252 -6.500953" stroke-width="0.500000" />
<path stroke="#000000" stroke-opacity="0.501961" fill="none" d="M 240.586393 -6.983540 Q 256.781124 62.792560, 118.931179 135.655553" stroke-width="0.500000" />
<path stroke="#000000" stroke-opacity="0.501961" fill="none" d="M 100.125317 -5.472919 Q 268.236067 16.725005, 164.217722 171.249287" stroke-width="0.500000" />
<path stroke="#000000" stroke-opacity="0.501961" fill="none" d="M 177.412825 173.000000 Q 239.113420 135.797977, 120.793381 7.183854" stroke-width="0.500000" />
<path stroke="#000000" stroke-opacity="0.501961" fill="none" d="M 190.753504 1.051564 Q 72.481784 95.978883, 207.247790 155.891848" stroke-width="0.500000" />
<path stroke="#000000" stroke-opacity="0.501961" fill="none" d="M 125.399308 161.271235 Q 101.449278 99.310984, 253.035355 44.356733" stroke-width="0.500000" />
<path stroke="#ffffff" stroke-opacity="0.501961" fill="none" d="M 115.587607 1.901913 Q -13.085974 47.826550, 78.886753 158.289964" stroke-width="0.500000" />
<path stroke="#ffffff" stroke-opacity="0.501961" fill="none" d="M 116.546435 150.333991 Q 35.556719 35.449703, -10.137883 3.562206" stroke-width="0.500000" />
<path stroke="#ffffff" stroke-opacity="0.501961" fill="none" d="M 185.754891 173.000000 Q 256.741245 173.000000, 255.954640 -16.000000" stroke-width="0.500000" />
<path stroke="#ffffff" stroke-opacity="0.501961" fill="none" d="M 122.500324 -4.481151 Q -4.649209 159.985489, -10.183598 160.453924" stroke-width="0.500000" />
<path stroke="#000000" stroke-opacity="0.501961" fill="none" d="M 266.522668 55.485736 Q 208.558088 36.238560, 120.858130 152.298263" stroke-width="0.500000" />
<path stroke="#090000" stroke-opacity="0.501961" fill="none" d="M 120.178894 161.331624 Q 111.956160 -16.000000, 244.742931 25.854608" stroke-width="0.500000" />
<path stroke="#ffffff" stroke-opacity="0.501961" fill="none" d="M 118.015910 3.578412 Q -16.000000 -16.000000, 24.968878 151.197889" stroke-width="0.500000" />
<path stroke="#ffffff" stroke-opacity="0.501961" fill="none" d="M 109.882365 149.639425 Q -16.000000 153.056529, 33.371319 2.380718" stroke-width="0.500000" />
<path stroke="#ffffff" stroke-opacity="0.501961" fill="none" d="M 99.052278 6.120366 Q -8.836089 80.029269, 101.410030 159.518631" stroke-width="0.500000" />
<path stroke="#ffffff" stroke-opacity="0.501961" fill="none" d="M 271.000000 49.565320 Q 176.415733 101.341567, 257.009323 157.692972" stroke-width="0.500000" />
<path stroke="#ffffff" stroke-opacity="0.501961" fill="none" d="M 125.653486 26.895813 Q -16.000000 3.316010, 9.259970 173.000000" stroke-width="0.500000" />
<path stroke="#ffffff" stroke-opacity="0.501961" fill="none" d="M 108.530346 173.000000 Q 145.252161 122.543022, 2.725713 8.168088" stroke-width="0.500000" />
<path stroke="#ffffff" stroke-opacity="0.501961" fill="none" d="M 99.262672 -16.000000 Q 119.567026 170.058472, -12.244489 156.718779" stroke-width="0.500000" />
<path stroke="#000000" stroke-opacity="0.501961" fill="none" d="M 185.053559 173.000000 Q 255.548096 108.447035, 106.009266 -16.000000" stroke-width="0.500000" />
<path stroke="#020000" stroke-opacity="0.501961" fill="none" d="M 251.061052 39.100076 Q 133.705230 -16.000000, 119.742070 160.529177" stroke-width="0.500000" />
<path stroke="#ffffff" stroke-opacity="0.501961" fill="none" d="M 250.932621 21.069492 Q 264.245844 74.972062, 214.317044 157.373683" stroke-width="0.500000" />
<path stroke="#000000" stroke-opacity="0.501961" fill="none" d="M 120.990208 11.253599 Q 223.307075 137.655180, 205.892986 173.000000" stroke-width="0.500000" />
<path stroke="#000000" stroke-opacity="0.501961" fill="none" d="M 157.318936 173.000000 Q 72.809516 21.871955, 214.173976 1.903068" stroke-width="0.500000" />
<path stroke="#ffffff" stroke-opacity="0.501961" fill="none" d="M 4.428566 2.951725 Q -16.000000 166.119561, 115.556512 129.490769" stroke-width="0.500000" />
<path stroke="#ffffff" stroke-opacity="0.501961" fill="none" d="M 131.524611 -16.000000 Q 61.294910 95.679353, -14.484952 166.238648" stroke-width="0.500000" />
<path stroke="#000000" stroke-opacity="0.501961" fill="none" d="M 239.781143 8.230110 Q 118.411303 83.548954, 207.829293 157.773513" stroke-width="0.500000" />
<path stroke="#ffffff" stroke-opacity="0.501961" fill="none" d="M -16.000000 166.844772 Q 128.948205 45.233459, 110.802343 -16.000000" stroke-width="0.500000" />
<path stroke="#ffffff" stroke-opacity="0.501961" fill="none" d="M 118.491516 158.293517 Q -9.940616 78.935926, 115.889739 7.109926" stroke-width="0.500000" />
<path stroke="#000000" stroke-opacity="0.501961" fill="none" d="M 241.318742 -0.527316 Q 95.615249 69.718214, 216.609171 163.905931" stroke-width="0.500000" />
<path stroke="#ffffff" stroke-opacity="0.501961" fill="none" d="M 255.725804 61.334565 Q 182.496066 124.107561, 254.788014 157.928560" stroke-width="0.500000" />
<path stroke="#000000" stroke-opacity="0.501961" fill="none" d="M 116.635980 -16.000000 Q 162.501349 118.007167, 266.272299 41.846066" stroke-width="0.500000" />
<path stroke="#ffffff" stroke-opacity="0.501961" fill="none" d="M 109.119521 173.000000 Q 124.962412 115.698927, -16.000000 -4.119863" stroke-width="0.500000" />
<path stroke="#000000" stroke-opacity="0.501961" fill="none" d="M 162.120834 154.531515 Q 109.435667 17.421684, 243.109668 16.988505" stroke-width="0.500000" />
<path stroke="#ffffff" stroke-opacity="0.501961" fill="none" d="M 37.566340 158.127570 Q 136.617738 150.161386, 77.589931 -16.000000" stroke-width="0.500000" />
<path stroke="#ffffff" stroke-opacity="0.501961" fill="none" d="M 112.983688 -16.000000 Q 146.058096 49.088359, 5.434929 152.397837" stroke-width="0.500000" />
<path stroke="#000000" stroke-opacity="0.501961" fill="none" d="M 241.601121 9.610772 Q 127.078535 77.215897, 213.459918 152.253147" stroke-width="0.500000" />
<path stroke="#ffffff" stroke-opacity="0.501961" fill="none" d="M 214.154029 156.484036 Q 266.328438 148.933493, 252.954969 29.263027" stroke-width="0.500000" />
<path stroke="#ffffff" stroke-opacity="0.501961" fill="none" d="M 271.000000 166.125047 Q 173.151307 118.273638, 263.212976 53.965629" stroke-width="0.500000" />
<path stroke="#000000" stroke-opacity="0.501961" fill="none" d="M 153.011214 162.123137 Q 80.460836 5.543536, 244.572430 11.467449" stroke-width="0.500000" />
<path stroke="#ffffff" stroke-opacity="0.501961" fill="none" d="M 125.666388 22.866788 Q -16.000000 -16.000000, 4.192524 150.319344" stroke-width="0.500000" />
<path stroke="#ffffff" stroke-opacity="0.501961" fill="none" d="M 12.831982 2.779451 Q 142.030767 66.801641, 17.952139 159.441145" stroke-width="0.500000" />
<path stroke="#000000" stroke-opacity="0.501961" fill="none" d="M 202.795335 156.691912 Q 104.937774 78.038416, 213.803357 18.353335" stroke-width="0.500000" />
<path stroke="#ffffff" stroke-opacity="0.501961" fill="none" d="M 59.315918 159.488254 Q -16.000000 30.243213, 123.922426 19.888009" stroke-width="0.500000" />
<path stroke="#250000" stroke-opacity="0.501961" fill="none" d="M 149.446536 3.417093 Q 50.788481 122.423365, 214.921333 159.874564" stroke-width="0.500000" />
<path stroke="#070000" stroke-opacity="0.501961" fill="none" d="M 124.271892 2.454781 Q 145.184760 137.793960, 253.259087 52.836057" stroke-width="0.500000" />
<path stroke="#000000" stroke-opacity="0.501961" fill="none" d="M 211.006978 -11.851701 Q 271.000000 64.939418, 122.165437 139.188311" stroke-width="0.500000" />
<path stroke="#190000" stroke-opacity="0.501961" fill="none" d="M 186.521984 156.407197 Q 47.543387 87.449158, 176.117066 -10.503113" stroke-width="0.500000" />
<path stroke="#000000" stroke-opacity="0.501961" fill="none" d="M 114.866641 99.174459 Q 266.962257 104.656256, 238.143011 -16.000000" stroke-width="0.500000" />
<path stroke="#ffffff" stroke-opacity="0.501961" fill="none" d="M 14.345969 162.242037 Q -9.126595 98.569665, 124.844303 26.486404" stroke-width="0.500000" />
<path stroke="#ffffff" stroke-opacity="0.501961" fill="none" d="M 123.570970 167.407278 Q 104.660468 131.629654, -16.000000 -1.078955" stroke-width="0.500000" />
<path stroke="#ffffff" stroke-opacity="0.501961" fill="none" d="M 106.911870 173.000000 Q 133.131593 83.822170, -3.769982 0.130022" stroke-width="0.500000" />
<path stroke="#000000" stroke-opacity="0.501961" fill="none" d="M 129.189006 158.836715 Q 265.507620 111.585569, 157.143759 -0.407622" stroke-width="0.500000" />
<path stroke="#ffffff" stroke-opacity="0.501961" fill="none" d="M 120.553204 36.946517 Q -1.813139 -3.343394, 8.276957 163.604345" stroke-width="0.500000" />
<path stroke="#000000" stroke-opacity="0.501961" fill="none" d="M 249.324328 20.462350 Q 136.266465 45.909927, 218.509528 173.000000" stroke-width="0.500000" />
<path stroke="#ffffff" stroke-opacity="0.501961" fill="none" d="M 262.644506 4.465730 Q 259.289445 66.648484, 208.796831 164.599961" stroke-width="0.500000" />
<path stroke="#ffffff" stroke-opacity="0.501961" fill="none" d="M 112.469108 -0.136457 Q -15.264981 28.889528, 68.203903 173.000000" stroke-width="0.500000" />
<path stroke="#ffffff" stroke-opacity="0.501961" fill="none" d="M -16.000000 0.884502 Q 114.914049 158.000051, 122.301051 173.000000" stroke-width="0.500000" />
<path stroke="#000000" stroke-opacity="0.501961" fill="none" d="M 144.117730 167.192886 Q 104.106823 60.049806, 252.724235 57.367283" stroke-width="0.500000" />
<path stroke="#000000" stroke-opacity="0.501961" fill="none" d="M 251.988304 37.450596 Q 108.699560 4.848936, 149.628726 158.546671" stroke-width="0.500000" />
<path stroke="#ffffff" stroke-opacity="0.501961" fill="none" d="M 76.034896 -7.193619 Q -5.106593 126.530004, 121.427504 154.174882" stroke-width="0.500000" />
<path stroke="#ffffff" stroke-opacity="0.501961" fill="none" d="M 6.733449 16.693246 Q -16.000000 173.000000, 102.594133 156.404634" stroke-width="0.500000" />
<path stroke="#ffffff" stroke-opacity="0.501961" fill="none" d="M 35.133056 156.833843 Q 152.475277 51.076843, 5.093637 -3.532034" stroke-width="0.500000" />
<path stroke="#350000" stroke-opacity="0.501961" fill="none" d="M 213.816186 162.534074 Q 39.712489 120.380076, 160.618169 -14.645382" stroke-width="0.500000" />
<path stroke="#ffffff" stroke-opacity="0.501961" fill="none" d="M 268.214828 51.061432 Q 191.275385 116.305458, 255.794450 154.136027" stroke-width="0.500000" />
<path stroke="#000000" stroke-opacity="0.501961" fill="none" d="M 242.781138 13.404418 Q 111.028178 51.360810, 207.370267 151.821046" stroke-width="0.500000" />
<path stroke="#fffeff" stroke-opacity="0.501961" fill="none" d="M 113.924241 4.477268 Q -6.158330 -16.000000, 20.736434 173.000000" stroke-width="0.500000" />
<path stroke="#000000" stroke-opacity="0.501961" fill="none" d="M 241.444525 1.044609 Q 96.767895 44.537928, 197.366275 152.857565" stroke-width="0.500000" />
<path stroke="#ffffff" stroke-opacity="0.501961" fill="none" d="M 50.339073 -11.664113 Q -14.417067 152.515742, 103.490783 156.394932" stroke-width="0.500000" />
<path stroke="#ffffff" stroke-opacity="0.501961" fill="none" d="M 113.368303 173.000000 Q 131.850164 110.892575, -8.518733 1.355906" stroke-width="0.500000" />
<path stroke="#ffffff" stroke-opacity="0.501961" fill="none" d="M 240.230035 -4.385418 Q 266.490718 45.117046, 244.098866 167.281565" stroke-width="0.500000" />
<path stroke="#000000" stroke-opacity="0.501961" fill="none" d="M 214.622588 161.893877 Q 59.203873 101.078149, 184.066102 -16.000000" stroke-width="0.500000" />
<path stroke="#ffffff" stroke-opacity="0.501961" fill="none" d="M 263.600297 53.503267 Q 172.001138 105.579515, 258.609344 162.397789" stroke-width="0.500000" />
<path stroke="#000000" stroke-opacity="0.501961" fill="none" d="M 101.320131 -13.880140 Q 269.079702 48.893822, 140.030899 172.332390" stroke-width="0.500000" />
<path stroke="#ffffff" stroke-opacity="0.501961" fill="none" d="M 119.015962 -0.827535 Q -16.000000 81.713773, 118.597227 162.907336" stroke-width="0.500000" />
<path stroke="#ffffff" stroke-opacity="0.501961" fill="none" d="M 214.744109 156.899718 Q 271.000000 157.802001, 245.993046 66.681895" stroke-width="0.500000" />
<path stroke="#000000" stroke-opacity="0.501961" fill="none" d="M 183.603876 167.168629 Q 75.487528 20.754735, 255.518969 -5.976675" stroke-width="0.500000" />
<path stroke="#ffffff" stroke-opacity="0.501961" fill="none" d="M -16.000000 141.938307 Q 136.365280 63.829280, 114.578652 -16.000000" stroke-width="0.500000" />
<path stroke="#ffffff" stroke-opacity="0.501961" fill="none" d="M 246.674723 -8.971114 Q 271.000000 104.956350, 207.393170 162.540551" stroke-width="0.500000" />
<path stroke="#ffffff" stroke-opacity="0.501961" fill="none" d="M 88.641757 173.000000 Q 133.597290 98.415193, 7.844268 11.626161" stroke-width="0.500000" />
<path stroke="#000000" stroke-opacity="0.501961" fill="none" d="M 154.617170 163.245775 Q 119.022312 84.937447, 271.000000 40.765423" stroke-width="0.500000" />
<path stroke="#000000" stroke-opacity="0.501961" fill="none" d="M 214.329012 147.900451 Q 123.038692 55.261966, 242.448480 18.812136" stroke-width="0.500000" />
<path stroke="#ffffff" stroke-opacity="0.501961" fill="none" d="M 15.584487 155.975725 Q -16.000000 99.301518, 126.311899 22.825397" stroke-width="0.500000" />
<path stroke="#fffcff" stroke-opacity="0.501961" fill="none" d="M 2.918955 146.219448 Q -16.000000 -16.000000, 122.526198 20.006780" stroke-width="0.500000" />
<path stroke="#0b0000" stroke-opacity="0.501961" fill="none" d="M 212.307176 -13.361667 Q 47.149555 42.008239, 175.673579 159.879737" stroke-width="0.500000" />
<path stroke="#ffffff" stroke-opacity="0.501961" fill="none" d="M -12.068822 -12.854647 Q 123.049019 74.552760, 114.186311 143.695102" stroke-width="0.500000" />
<path stroke="#000000" stroke-opacity="0.501961" fill="none" d="M 215.146911 -16.000000 Q 64.107614 70.519689, 188.474909 158.083199" stroke-width="0.500000" />
<path stroke="#000000" stroke-opacity="0.501961" fill="none" d="M 212.129421 167.494067 Q 190.580238 19.753538, 127.048839 7.558006" stroke-width="0.500000" />
<path stroke="#ffffff" stroke-opacity="0.501961" fill="none" d="M -4.934503 169.773872 Q 159.530749 129.701714, 62.055792 -1.144687" stroke-width="0.500000" />
<path stroke="#ffffff" stroke-opacity="0.501961" fill="none" d="M 250.472067 66.176129 Q 186.001908 133.113276, 253.225509 159.504315" stroke-width="0.500000" />
<path stroke="#ffffff" stroke-opacity="0.501961" fill="none" d="M 83.627237 155.647232 Q -16.000000 172.790991, 4.305033 24.864547" stroke-width="0.500000" />
<path stroke="#000000" stroke-opacity="0.501961" fill="none" d="M 134.095551 159.210818 Q 271.000000 110.525495, 160.128775 -8.450859" stroke-width="0.500000" />
<path stroke="#ffffff" stroke-opacity="0.501961" fill="none" d="M 118.961680 154.382512 Q -6.888506 151.744723, 58.782947 -16.000000" stroke-width="0.500000" />
<path stroke="#ffffff" stroke-opacity="0.501961" fill="none" d="M 253.575415 68.779655 Q 194.502173 122.721717, 268.414833 158.497690" stroke-width="0.500000" />
<path stroke="#000000" stroke-opacity="0.501961" fill="none" d="M 188.526864 160.302310 Q 88.595872 41.306633, 231.668698 3.345775" stroke-width="0.500000" />
<path stroke="#000000" stroke-opacity="0.501961" fill="none" d="M 213.840847 144.766480 Q 195.943782 -12.642770, 135.373453 4.298815" stroke-width="0.500000" />
<path stroke="#ffffff" stroke-opacity="0.501961" fill="none" d="M 236.146357 167.505562 Q 271.000000 19.484625, 239.400739 -3.716739" stroke-width="0.500000" />
<path stroke="#050000" stroke-opacity="0.501961" fill="none" d="M 128.708463 173.000000 Q 101.153236 108.441222, 251.203257 42.335376" stroke-width="0.500000" />
<path stroke="#ffffff" stroke-opacity="0.501961" fill="none" d="M -16.000000 8.263249 Q 7.129446 -0.690708, 127.164305 165.918793" stroke-width="0.500000" />
<path stroke="#ffffff" stroke-opacity="0.501961" fill="none" d="M -7.393381 160.191045 Q 141.866601 66.183196, 99.496630 -4.673964" stroke-width="0.500000" />
<path stroke="#000000" stroke-opacity="0.501961" fill="none" d="M 234.007424 -3.529539 Q 271.000000 41.481617, 125.843409 153.465969" stroke-width="0.500000" />
<path stroke="#ffffff" stroke-opacity="0.501961" fill="none" d="M 126.152736 28.991814 Q -14.613810 30.167850, 55.422605 162.495519" stroke-width="0.500000" />
<path stroke="#ffffff" stroke-opacity="0.501961" fill="none" d="M 18.973606 0.081150 Q 139.336924 1.298113, 84.602930 164.675382" stroke-width="0.500000" />
<path stroke="#000000" stroke-opacity="0.501961" fill="none" d="M 243.740678 33.498485 Q 179.030653 162.318712, 104.619547 76.949348" stroke-width="0.500000" />
<path stroke="#ffffff" stroke-opacity="0.501961" fill="none" d="M 114.333528 0.803753 Q 31.540451 115.158321, -0.790155 143.949809" stroke-width="0.500000" />
<path stroke="#ffffff" stroke-opacity="0.501961" fill="none" d="M 243.890761 -16.000000 Q 271.000000 119.566559, 235.676543 158.988034" stroke-width="0.500000" />
<path stroke="#ffffff" stroke-opacity="0.501961" fill="none" d="M 80.250402 -16.000000 Q -16.000000 119.847783, 113.493440 157.856444" stroke-width="0.500000" />
</g>
</svg>