<svg height="680" width="1024" xmlns="http://www.w3.org/2000/svg"><path d="m0 0h1024v680h-1024z" fill="#40413c"/><g fill-opacity=".501961" transform="matrix(4 0 0 4 2 2)"><ellipse fill="#b2a18b" rx="1" ry="1" transform="matrix(37.12241319 7.21747452 -21.71533057 111.690796 132.896766 24.16875)"/><ellipse rx="1" ry="1" transform="matrix(42.68281863 58.42153721 -55.0280099 40.20350504 235.413564 134.296615)"/><ellipse cx="120" cy="15" fill="#3a6880" rx="121" ry="41"/><ellipse fill="#111112" rx="1" ry="1" transform="matrix(-37.31199482 -120.26872438 31.61001805 -9.80664621 45.61707 143.844789)"/><path d="m26.519208-14.591985-42.519208 44.156435 3.040703 3.658202 57.215204-49.222652z" fill="#fff"/><ellipse fill="#bb885f" rx="1" ry="1" transform="matrix(47.42012507 -48.324391 14.00214255 13.74012868 123.624423 86.763085)"/><ellipse fill="#b57634" rx="1" ry="1" transform="matrix(-5.56920824 -8.85324903 44.64494306 -28.08426416 77.28574 82.656778)"/><ellipse fill="#002234" rx="1" ry="1" transform="matrix(19.49718648 -43.42083237 20.06939136 9.0117265 26.923522 34.300333)"/><path d="m178 86-14 13-21-22z" fill="#f8dfcb"/><path d="m-.5-.5h1v1h-1z" fill="#2e1403" transform="matrix(-9.34964077 48.09973199 -139.39106005 -27.09487734 122 166)"/><path d="m84 114 30 11-37-64z" fill="#2c1500"/><path d="m130.594688 136.721744-65.670696-8.34142 82.766289-7.189496 23.610694 29.555573z" fill="#a28a7d"/><ellipse cx="238" cy="94" fill="#0c0100" rx="68" ry="27"/><path d="m116 114 39-30 9 47z" fill="#311402"/><path d="m28 36h60v35h-60z" fill="#2b5e79"/><path d="m187.861414 42.556675-3.098208 46.688344-31.44879-35.147576-7.819417 23.849826z" fill="#1b1317"/><ellipse fill="#eabb8f" rx="1" ry="1" transform="matrix(5.38057889 2.40955128 -13.92876415 31.10322449 137.952331 68.295141)"/><path d="m-.5-.5h1v1h-1z" fill="#4e72a3" transform="matrix(-17.86583073 -2.19364818 1.94990949 -15.88073843 35 104)"/><path d="m72 107 28 24-22 1z" fill="#9dafce"/><ellipse fill="#160e09" rx="1" ry="1" transform="matrix(-2.80819934 -15.78508857 70.02037501 -12.45676703 2.465583 137.430356)"/><ellipse fill="#fff" rx="1" ry="1" transform="matrix(17.48493437 -16.46759974 2.75051039 2.92043129 0 18.087736)"/><path d="m141.480678 111.469525-35.140672-58.204581-55.429824 53.649595 19.068695-44.13015z" fill="#c89055"/><ellipse cx="34" cy="79" fill="#000304" rx="29" ry="10"/><path d="m114 126 26 12-32-29z" fill="#dcd9cb"/><path d="m106 144-116 41 21-45z" fill="#4d3725"/><path d="m114-16 91 80 35-36z" fill="#4f666f"/><path d="m252 0h4v114h-4z"/><path d="m-.5-.5h1v1h-1z" fill="#887e7a" transform="matrix(11.11453393 11.50943681 -6.4740582 6.25192533 190 135)"/><path d="m162.926685 9.010833-12.783224 24.138261-.766383-13.947077 13.635157-9.770401z" fill="#070003"/><path d="m85 106 11-26-29 1z" fill="#321700"/><path d="m118 136h16v21h-16z" fill="#040000"/><path d="m105.44768 95.140702 9.10572 18.234884 30.828809 37.090993 32.053385-3.543528z" fill="#795b44"/><path d="m78 73 77-59-92-30z" fill="#436673"/><ellipse cx="147" cy="39" fill="#ffe5cb" rx="3" ry="13"/><path d="m188 103-19-60 20-7z" fill="#2c1f17"/><path d="m264 95-112-18 109-12z" fill="#0c0800"/><path d="m66.293413 138.819971-27.191713-35.163891 17.380676-9.198002-8.076186 20.931068z" fill="#0b1c2f"/><path d="m191 27 1 10-14-1z" fill="#cdb0a0"/><ellipse cx="244" cy="167" rx="23" ry="14"/><ellipse fill="#c89762" rx="1" ry="1" transform="matrix(11.10931389 -23.0717365 2.92757108 1.40966009 62.440595 91.2939)"/><path d="m56 124h24v18h-24z" fill="#040507"/><path d="m172.784091 105.416377-25.246254-60.220428 14.680836 1.927575 15.066296 46.148229z" fill="#716361"/><path d="m24 77 54-8-20-74z" fill="#26495d"/><ellipse fill="#ca9769" rx="1" ry="1" transform="matrix(6.59974562 10.77329996 -24.45524884 14.98133553 122.120172 79.853964)"/><path d="m114.623568 124.405733-23.611122 25.974407 8.970332-22.819154-24.783501-20.102934z" fill="#5b5452"/><path d="m141.994528 63.31593-3.531046 12.318497 15.398883 11.071035-8.324007-8.196573z" fill="#f3f8f8"/><ellipse fill="#12252a" rx="1" ry="1" transform="matrix(12.02336901 13.64476975 -25.53549804 22.50112837 13.537264 33.790193)"/><path d="m193 24h6v11h-6z" fill="#0a0000"/><path d="m-.5-.5h1v1h-1z" fill="#f2e8f8" transform="matrix(-3.65676851 3.4099918 -4.77398852 -5.11947591 157 28)"/><path d="m139.685327 142.944369-14.363061-15.891796 30.416471 22.690248-19.928075-.350808z" fill="#a28972"/><path d="m-.5-.5h1v1h-1z" fill="#45301b" transform="matrix(-96.46862385 10.13926094 -.94075617 -8.95069706 224 124)"/><path d="m54.763139 91.894783 23.074717-35.605694-9.074025 13.461894-49.891795 10.597079z" fill="#070600"/><path d="m271 79-37 39 10-66z" fill="#050300"/><path d="m59.259948 114.282748-5.280482 14.133381-7.389938-18.455398 41.133254-21.594374z" fill="#6c4727"/><path d="m85.007967 69.896921 44.354762 4.590733 12.268972-15.994029-33.560141-2.884967z" fill="#b77a37"/><path d="m18.124511 142.600387-8.591257-41.80689 34.325154 26.949815-55.034604-6.644918z" fill="#030608"/><path d="m193.658011 46.305999-47.502038-22.616138 11.540488 38.478457-6.243047-23.731383z" fill="#81604b"/><ellipse cx="235" cy="32" fill="#2d484e" rx="18" ry="35"/><path d="m171.968062 129.161796 20.624882 18.404518-38.196212-14.522404 68.525314-67.452433z" fill="#0b0600"/><path d="m135.025201 176.625757 33.184757-31.296212 65.361699.087282-7.246994 16.980403z" fill="#382516"/><path d="m78.647207 132.776482-4.385326-25.638413-3.262115 26.644137 15.320121-9.305046z" fill="#7b7b88"/><path d="m171.067208 101.041786 2.237768 7.146625-9.512061-30.647608-5.6757 26.122137z" fill="#ab9787"/><path d="m133.426079 135.339516 16.909592-51.701649-16.241257 22.611892-28.655629-10.415182z" fill="#674a31"/><path d="m146 71 11-2 6-17z" fill="#130d0d"/><path d="m18 88h23v3h-23z" fill="#9a794c"/><ellipse fill="#001414" rx="1" ry="1" transform="matrix(-10.48344896 6.01181642 -1.1761376 -2.05095726 4.392139 3.825021)"/><path d="m117.124219 52.906517-55.806125 34.65878 30.5746-22.021921-1.878904 36.652957z" fill="#b87f3b"/><path d="m157 56 7-5-6-3z" fill="#dedee3"/><ellipse fill="#5e6c92" rx="1" ry="1" transform="matrix(1.10612852 2.64406136 -11.58063136 4.84469342 164.641391 70.93635)"/><ellipse fill="#30261e" rx="1" ry="1" transform="matrix(10.51248535 19.21907839 -28.91427719 15.81558226 5.944607 155.309744)"/><path d="m142.90406 82.053094 8.818169-8.754828 18.882127-23.808247 7.595688 3.268985z" fill="#817676"/><path d="m-.5-.5h1v1h-1z" fill="#648193" transform="matrix(-6.85733841 -4.1203046 25.23686567 -42.00119773 149 14)"/><ellipse fill="#020000" rx="1" ry="1" transform="matrix(15.49571482 1.0457547 -.21815516 3.23256508 122.696553 141.44963)"/><path d="m228 44-42 21 25-72z" fill="#446069"/><ellipse fill="#4d6b72" rx="1" ry="1" transform="matrix(16.30131003 5.32777261 -10.20106462 31.21205223 188.551168 1.759243)"/><path d="m98.532042 72.915114 10.843411-15.915062-48.759332 25.626909 9.648498-11.549439z" fill="#d49c5c"/><path d="m197 133h59v13h-59z" fill="#150b02"/><path d="m51 45h88v12h-88z" fill="#47636b"/><ellipse fill="#271401" rx="1" ry="1" transform="matrix(6.72328224 12.32143792 -2.98213792 1.62722525 152.480756 96.292141)"/><ellipse cx="158" cy="48" fill="#6b4417" rx="11" ry="2"/><path d="m150 76h22v3h-22z" fill="#0c111d"/><path d="m122 151h40v4h-40z"/><path d="m43 92h12v2h-12z" fill="#eecd93"/><path d="m42.637651 117.479049-16.094431-11.896356 12.97884-12.044249 14.392284 26.208087z" fill="#485973"/><path d="m-.5-.5h1v1h-1z" fill="#c2a995" transform="matrix(22.2751631 11.34976249 -3.1779335 6.23704567 156 42)"/><path d="m-.5-.5h1v1h-1z" fill="#fff" transform="matrix(-19.74654994 18.41395572 -.68199836 -.7313537 10 10)"/><path d="m180 77 11 2-10 5z" fill="#6a5842"/><path d="m157 138 11 7-11 4z" fill="#7d8caa"/><path d="m101 87h6v21h-6z" fill="#d7ab7c"/><path d="m138 73 1-8 6 7z" fill="#fbffff"/><path d="m58 112h14v30h-14z" fill="#0e0200"/><path d="m16 15-7 7 2-8z" fill="#728a87"/><path d="m91.238224 130.271889-4.741739 15.606625 24.156452-29.481936.714211 25.526307z" fill="#5a575b"/><ellipse fill="#4f453c" rx="1" ry="1" transform="matrix(-22.33129987 -3.31360415 .56310345 -3.79491074 46.001026 146.555924)"/><path d="m-.5-.5h1v1h-1z" fill="#90afd7" transform="matrix(3.7557725 7.06358074 -1.76589519 .93894313 194 138)"/><path d="m97.966523 116.399717-8.092017-8.530719-11.066622-52.995801-1.607632 50.326815z" fill="#352416"/><path d="m161 53h11v2h-11z"/><path d="m211.001642 52.157544 53.223656-.373427-53.941884 20.310264-24.28872-1.306006z" fill="#2f3d3e"/><path d="m103.492986 83.181295 28.868542 24.537885 3.940071 7.927937 6.349912-42.744146z" fill="#b08561"/><path d="m228 93-4-7-4 6z" fill="#586567"/><path d="m39.855811-16-7.161012 93.655128-28.750595 8.860798 21.892117-93.219459z" fill="#132a35"/><path d="m166.655068 45.086153 22.101364 12.286419-13.613636 30.600116 7.895255-41.890649z" fill="#0f0a05"/><path d="m58.323687 83.566539-10.784786 40.861788-17.02171-74.01419 16.847295 52.665776z" fill="#1f2426"/><path d="m177.221832 146.068762 19.457407 1.621028-23.744396 15.730357 15.376132 5.442785z" fill="#54402e"/><path d="m154.457963 139.610553-9.360069-18.426352 21.162868 18.913666 1.833611 6.07087z" fill="#806f63"/><path d="m117 168 65-1-29 18z" fill="#020000"/><ellipse fill="#111017" rx="1" ry="1" transform="matrix(-1.88947058 .44306072 -1.01107539 -4.31181801 148.160573 74.109027)"/><path d="m145 80h7v4h-7z" fill="#f9ffff"/><path d="m147 24h1v33h-1z" fill="#fff1dd"/><path d="m114.969268 71.84468-10.589785 11.363204 23.954472-8.206007-7.989156-1.606749z" fill="#d9b18f"/><path d="m151.965988 129.798917 5.074916 22.207725-31.838259-55.992161-8.014859 23.276087z" fill="#59422e"/><path d="m110 110-5 15-18-2z" fill="#61482d"/><path d="m52 78-33 11-5-9z"/><path d="m-.5-.5h1v1h-1z" transform="matrix(2.79596452 4.14518786 -5.80326301 3.91435032 154 21)"/><path d="m93 121-9 10 15-3z" fill="#bebec3"/><ellipse cx="254" cy="11" rx="2" ry="24"/><path d="m123 123-11-8 1 18z" fill="#bcbbb7"/><path d="m89 145 32 8 23-10z" fill="#483627"/><path d="m152.352199 81.520637.893264 9.038683 18.957315-6.391631-4.388286 19.142382z" fill="#b7a794"/><path d="m200.576998 35.411459-2.476199-2.265246-8.257295 1.033234-43.23451 20.57592z" fill="#694d39"/><path d="m-.5-.5h1v1h-1z" fill="#9b7957" transform="matrix(-3.39219238 -2.11967706 3.17951559 -5.08828858 19 157)"/><path d="m166 71h57v4h-57z" fill="#0c0902"/><path d="m162 58h7v2h-7z" fill="#eee1dc"/><path d="m143.740608 56.244043 3.963784-18.479849-13.505677 22.633138 22.737324 3.569943z" fill="#b8aa9b"/><path d="m149.802751 94.125537-5.312323-13.758937-9.431011 3.489632-.409346 23.151429z" fill="#916337"/><path d="m187 67-1 30-26 31z" fill="#302d2c"/><path d="m158.265334 77.193911.319112-12.023067 37.388314-24.241046-35.44167 29.006708z" fill="#4c4447"/><path d="m11.357101 77.023499-1.336646 41.552044-26.020455 2.006374v-32.741815z" fill="#333541"/><path d="m-.5-.5h1v1h-1z" fill="#aa8e6c" transform="matrix(18.4356188 -4.59651602 .2419219 .97029573 28 90)"/><path d="m148.759598 112.353699 5.810016-19.498021 1.837637 36.644717-22.3945-21.95709z" fill="#151210"/><ellipse cx="218" cy="113" fill="#201605" rx="42" ry="11"/><ellipse cy="51" fill="#0c171b" rx="13" ry="29"/><path d="m-.5-.5h1v1h-1z" fill="#c8dbff" transform="matrix(-5.8897631 -1.14485397 .190809 -.98162718 153 73)"/><path d="m48.356969 150.627623 25.55531-46.214421-6.450257-2.753514-12.529506 16.192829z" fill="#3c240d"/><path d="m46 75 48-15-23-35z" fill="#3a5967"/><path d="m118.984854 91.610251 15.04077-17.751736-.232063 35.525329-5.185525-36.19257z" fill="#d2a882"/><ellipse cx="127" cy="33" fill="#536e7a" rx="19" ry="22"/><path d="m-.5-.5h1v1h-1z" fill="#fff" transform="matrix(.40673664 -.91354546 6.3948182 2.8471565 164 51)"/><path d="m-.5-.5h1v1h-1z" transform="matrix(1.70617081 13.89564612 -1.9850923 .24373869 198 23)"/><path d="m12.787365 9.33151 3.854989-7.795343-8.190276 3.290962-24.452078 32.810829z" fill="#fefffa"/><path d="m153 24h7v5h-7z" fill="#c6d2eb"/><path d="m103 73 45-10-39-10z" fill="#a37240"/><path d="m151 31h5v31h-5z" fill="#996c3f"/><path d="m15.991412 98.313739 42.722653-19.641492-26.431272 19.221101-11.237251.142018z" fill="#211811"/><path d="m178 146-9-1 13-12z"/><path d="m-.5-.5h1v1h-1z" fill="#0e0a06" transform="matrix(-2.26604931 25.90106215 -4.98097349 -.43577871 87 91)"/><ellipse fill="#7b8ea7" rx="1" ry="1" transform="matrix(2.04513324 -.29194579 .82296037 5.76498683 35.48852 104.632052)"/><ellipse fill="#413737" rx="1" ry="1" transform="matrix(-1.17033977 -2.07468192 8.84753396 -4.99094379 166.531052 78.146833)"/><path d="m124 125 24 14-5 7z" fill="#b08c66"/><path d="m151.717216 21.451367-1.714199 13.183006-1.633879-10.914647 14.137625-13.256897z" fill="#0b0806"/><path d="m230 168-42-19 17 36z" fill="#190e05"/><path d="m84.805313 131.345224-11.97512-19.679866 25.307773 9.005513-7.508085-3.824622z" fill="#9b979b"/><path d="m-.5-.5h1v1h-1z" fill="#3d4b5c" transform="matrix(-3.21393805 3.83022222 -11.49066665 -9.64181415 16 98)"/><ellipse cx="78" cy="78" fill="#956427" rx="6" ry="6"/><path d="m35 96 17 20-1-9z" fill="#3e516a"/><path d="m230.851294 98.37111-40.026565-6.46042-7.134456 15.420334 50.69126-6.166175z" fill="#060300"/><path d="m43.874589 99.509819.289253-1.814649 1.950755-6.329889 7.457137-1.086468z" fill="#bca06c"/><path d="m271 55-23 11-17-10z" fill="#1a1c15"/><path d="m172 66-16 5h12z" fill="#838ca7"/><path d="m191 34-1-4-7 2z" fill="#d4e2f1"/><path d="m164-16 21 48-18 11z" fill="#576d78"/><path d="m62.717915 88.40653 23.263819 22.450237-14.002462 2.393992 6.122508-19.978787z" fill="#75553d"/><path d="m95.973196 87.274705 11.102183-26.447762-17.161248 33.061985 18.158929 35.768105z" fill="#875b2a"/><path d="m112 131-25 9 10 2z" fill="#525e73"/><path d="m-.5-.5h1v1h-1z" fill="#170600" transform="matrix(5.15038075 8.57167301 -.8571673 .51503807 147 72)"/><path d="m92.698676 144.642379 9.945444 3.490148 17.239067-13.043659-28.617403 7.935225z" fill="#181b21"/><ellipse cx="50" cy="99" rx="3" ry="3"/><ellipse cx="179" cy="147" fill="#7f7e82" rx="3" ry="2"/><path d="m-.5-.5h1v1h-1z" fill="#37280e" transform="matrix(-29.31107584 10.09261279 -1.30227262 -3.7820743 231 80)"/><path d="m115.243856 95.822606 8.362925-18.021519-7.752653 3.041578 5.675797 28.597297z" fill="#916949"/><path d="m-.5-.5h1v1h-1z" fill="#e1bf97" transform="matrix(.4539905 .89100652 -2.67301957 1.3619715 90 168)"/><path d="m174.745807 110.157406-20.500355 8.921709 7.873994 10.623519 8.302295-25.562339z" fill="#4b4342"/><path d="m118.960153-16-62.760681 81.570761 73.415103-20.607668-46.487753 22.682204z" fill="#436069"/><path d="m150.522085 54.725969-11.528023 15.830128 2.601215-16.678563-14.781199 10.52154z" fill="#dab892"/><ellipse cx="103" cy="123" fill="#21160b" rx="3" ry="3"/><path d="m99 31 38 27 10-43z" fill="#546e7a"/><path d="m154.297476 128.143242-9.420408-10.265142 29.194568 10.016417-.994082-11.947819z" fill="#040608"/><path d="m49.638986 168.316864 46.066923-6.618542-40.958501 23.301678-19.56223-26.912754z" fill="#1a110b"/><path d="m139.258678 165.544242 5.89821-12.321638-17.840934-16.261923 13.493615 7.099361z" fill="#150e08"/><path d="m26.488395 179.87118-21.91407 5.12882 42.937485-32.76235-13.673368 1.845928z" fill="#614833"/><path d="m78 154h11v2h-11z" fill="#8a6d52"/><ellipse cx="238" cy="125" fill="#423529" rx="65" ry="3"/><path d="m103 80 4 23-10-15z" fill="#dbae7f"/><ellipse fill="#35464c" rx="1" ry="1" transform="matrix(-.37915342 -3.9684245 11.55310522 -1.10381319 208.106802 34.336266)"/><path d="m59 115-7-6 19-26z" fill="#754d24"/><path d="m134 132 19 11 8-6z" fill="#744d28"/><ellipse fill="#ce9d6c" rx="1" ry="1" transform="matrix(1.80519022 3.04099202 -7.41593028 4.40223609 69.021134 79.415429)"/><ellipse cx="143" cy="49" fill="#fff" rx="2" ry="2"/><path d="m26 32h23v33h-23z" fill="#1f4255"/><path d="m64 64h21v6h-21z" fill="#2b3d43"/><path d="m111 132 17 3-27 4z" fill="#38404a"/><path d="m81 134 5 10-24-11z" fill="#040000"/><ellipse fill="#201a13" rx="1" ry="1" transform="matrix(7.51700257 46.38901354 -.9871241 .15995629 185.501644 113.917819)"/><path d="m120.592941 122.803495 18.936172 5.872041-2.787211-33.090498 8.54719 17.915539z" fill="#533a26"/><path d="m-.5-.5h1v1h-1z" fill="#081e21" transform="matrix(20.98294096 -16.99165056 8.81048547 10.88004346 2 0)"/><path d="m228.961388 50.448772-42.897858 21.067008 1.297506-16.069416 49.192952-46.922147z" fill="#43575e"/><ellipse fill="#806e64" rx="1" ry="1" transform="matrix(-2.65388177 3.00206188 -6.33157848 -5.59723996 152.133914 131.552266)"/><ellipse fill="#120b04" rx="1" ry="1" transform="matrix(-4.74769126 16.69790824 -2.10764471 -.59926347 127.505521 151.759924)"/><path d="m118 51-10 19 20-12z" fill="#8a613a"/><path d="m88.590133 167.981897 87.412246-14.888491-10.970292-4.343542-3.909623 15.701289z" fill="#483525"/><path d="m-.5-.5h1v1h-1z" fill="#727287" transform="matrix(-7.9805124 .55805179 -.27902589 -3.9902562 157 82)"/><path d="m-.5-.5h1v1h-1z" transform="matrix(1.31511344 2.69638214 -.89879405 .43837115 162 55)"/><path d="m120.335134 108.905458-19.34928 8.987164 43.415716-26.701131-43.172973 16.084789z" fill="#906f53"/><path d="m27 129h27v5h-27z" fill="#353531"/><ellipse cx="94" cy="108" fill="#2f1501" rx="2" ry="8"/><ellipse cx="112" cy="169" fill="#e0d2bf" rx="1" ry="1"/><path d="m137.834144 105.363465-13.463346-26.657341-6.65703 22.478523 8.790923-3.08418z" fill="#c0997a"/><ellipse fill="#2a4955" rx="1" ry="1" transform="matrix(-6.9692233 15.70008452 -11.08844729 -4.92213052 57.461147 2.844947)"/><ellipse cx="223" cy="105" fill="#424237" rx="9" ry="2"/><path d="m152 70h11v3h-11z" fill="#7f7e8a"/><path d="m219.315806 85.675434 20.172227 11.16241 31.511967-23.644148-42.189018 11.991308z"/><ellipse cx="2" cy="81" fill="#6b5e49" rx="10" ry="2"/><path d="m271 162-3 23-47-21z"/><path d="m-.5-.5h1v1h-1z" fill="#cec6c8" transform="matrix(.43837115 .89879405 -10.78552856 5.26045376 165 59)"/><ellipse cx="190" cy="79" fill="#b07c3a" rx="2" ry="2"/><path d="m103 131h5v5h-5z" fill="#9093a0"/><ellipse cx="160" cy="52" fill="#f7ffff" rx="2" ry="2"/><path d="m-16 160.682307 46.257559 17.665866-12.663954-20.963073-11.254451 4.384058z" fill="#342213"/><path d="m56.792736 90.369394-11.066791-6.085294-55.3957-6.729355 75.127979-1.857403z" fill="#0c0b06"/><ellipse cx="160" cy="88" fill="#ddc29c" rx="4" ry="4"/><ellipse fill="#535d73" rx="1" ry="1" transform="matrix(1.54348892 -1.05051649 2.4299525 3.57024835 3.62954 110.872964)"/><path d="m158 45-11-5 2-6z" fill="#dabd9f"/><path d="m174 37 7 18-14-12z" fill="#433127"/><path d="m103 95 6 8-5-2z" fill="#eac9b0"/><path d="m145 97 15 12-5-16z" fill="#0c0602"/><path d="m110.55061 101.082766 14.019688-13.914898-22.986911 10.817113 5.131623-.101841z" fill="#916947"/><path d="m129.473097 136.971759 1.724105-2.393695-21.541816-15.591586.226364 3.188346z" fill="#928f86"/><ellipse cx="158" cy="97" fill="#6f4f33" rx="3" ry="3"/><path d="m157.255728.897402-90.225719-9.740196 81.553177 63.644065-33.655409-15.684522z" fill="#4d6872"/><path d="m144 16 23-19-1-13z" fill="#75929e"/><path d="m177 36h6v3h-6z" fill="#e39e68"/><path d="m-.5-.5h1v1h-1z" fill="#674c33" transform="matrix(-54.79191667 -15.71132928 .27563736 -.9612617 24 166)"/><ellipse cx="144" cy="57" fill="#fef3e7" rx="2" ry="2"/><path d="m150 30h12v2h-12z" fill="#312c31"/><path d="m73 145-9 16-1-17z" fill="#594736"/><ellipse fill="#25170d" rx="1" ry="1" transform="matrix(-1.19669474 10.78279653 -28.7214159 -3.18755595 253.777184 151.467727)"/><path d="m28 119-14 11 3-27z" fill="#040605"/><path d="m102 150-17 18-17-7z" fill="#1b120c"/><ellipse cx="157" cy="32" fill="#e3b690" rx="2" ry="2"/><path d="m127.259364 66.893296 9.443409-6.115927 1.738092 4.004956-16.564541 9.07058z" fill="#96632b"/><path d="m76 125-2-3h2z" fill="#0d0d0f"/><path d="m173 123-13 8 18 16z" fill="#060606"/><path d="m249 0h4v40h-4z" fill="#23312b"/><path d="m162.105158 39.366117-21.621673 3.624334 54.60425-14.983343 5.703859-17.462617z" fill="#506468"/><path d="m181.133989 168.697394 56.40641-29.996143-20.460739 20.726115-28.740785 1.241484z" fill="#3b2d23"/><ellipse cx="212" cy="112" fill="#030000" rx="14" ry="4"/><ellipse fill="#cb9763" rx="1" ry="1" transform="matrix(11.67283686 -4.1938902 .33812479 .94110129 117.968922 68.874162)"/><path d="m122.789497 113.614524-5.029617 2.27099 4.478793-7.652452 32.043426 15.076431z" fill="#2e261c"/><path d="m149 47h10v4h-10z" fill="#71460f"/><path d="m14.689366 161.539784 16.414612 2.720326-3.071425-16.586239-15.599324 35.518937z" fill="#251b11"/><path d="m.699928 156.791158-16.699928-61.020574 25.078499 33.518124-25.078499 23.782481z" fill="#090a0c"/><path d="m184.803102 118.585228-8.852793 9.641044 11.786545 12.946458-9.363951-24.070996z" fill="#453c38"/><path d="m118.055278 116.952026-13.428544-6.90985 33.064972 8.903352-13.765036-1.148675z" fill="#745e48"/><path d="m176.479749 121.704754 2.674876-3.747692 72.202251-2.782004-44.011055 12.528025z" fill="#2f2111"/><path d="m-.5-.5h1v1h-1z" fill="#3b291a" transform="matrix(2.32937141 8.69333244 -4.82962913 1.29409523 158 62)"/><path d="m-.5-.5h1v1h-1z" fill="#a89690" transform="matrix(14.50092459 -6.76189219 .84523652 1.81261557 164 40)"/><path d="m194 37 10 14-14 9z" fill="#556b74"/><path d="m-.5-.5h1v1h-1z" fill="#e2c1a8" transform="matrix(1.50941916 1.31211806 -7.21664932 8.30180538 69 75)"/><path d="m.067068 79.475871-3.75828 7.20486 8.681629-5.044707 29.543729 93.089267z" fill="#1b1b1c"/><path d="m-.5-.5h1v1h-1z" fill="#231001" transform="matrix(-15.65036161 3.32658705 -1.24747014 -5.8688856 82 87)"/><path d="m172.544163 76.319589 9.213951 21.793053-12.923892 36.350943 16.194626-72.188855z" fill="#0d0b0b"/><path d="m-.5-.5h1v1h-1z" fill="#72778a" transform="matrix(1.87303297 -4.63591927 7.41747084 2.99685275 75 128)"/><path d="m155.672288 57.113223-5.54954-8.50786-8.803972 21.05215 12.084504-9.018266z" fill="#b78d67"/><path d="m-.5-.5h1v1h-1z" fill="#4c5d77" transform="matrix(-7.19035237 -3.50696917 2.63022688 -5.39276428 168 143)"/><path d="m132.64279 132.411562-10.688786-4.206683-18.557207-23.112099 12.508724 13.414141z" fill="#c8bda7"/><path d="m79.994561 74.76771 24.036524-4.791362 1.210035-12.692486-11.982765 6.264472z" fill="#c98e45"/><path d="m89 120h20v4h-20z" fill="#564433"/><path d="m38 106-11-3 11-10z" fill="#636d7e"/><path d="m186 62h29v8h-29z" fill="#3f4542"/><path d="m135 173-2-15 5 6z" fill="#644e3c"/><path d="m107 177 45 8-30-23z" fill="#150a01"/><ellipse cx="148" cy="52" fill="#fffff3" rx="1" ry="4"/><path d="m96.28638 144.050716 37.95098-6.186952 3.502062 5.030644-36.529849-2.013291z" fill="#000102"/><ellipse cx="53" cy="147" fill="#d5cbc0" rx="1" ry="1"/><path d="m135.024038 140.003704 17.069105 6.128175-11.788182-11.383345-3.303491-11.975937z" fill="#95745a"/><path d="m164 68h3v4h-3z" fill="#a4b7da"/><path d="m192 40-3 11-6-18z" fill="#40363a"/><path d="m16 91h6v2h-6z" fill="#997a5b"/><path d="m128 80h3v25h-3z" fill="#9d765b"/><path d="m-.5-.5h1v1h-1z" fill="#a78667" transform="matrix(2.5 -4.33012702 .8660254 .5 42 156)"/><path d="m227.723717 101.549072-13.065016-22.081886-22.777741 14.284751 79.11904 2.483475z" fill="#1c1504"/><path d="m-.5-.5h1v1h-1z" fill="#110c0a" transform="matrix(2.51728156 -3.10858385 6.99431365 5.66388352 36 151)"/><path d="m-.5-.5h1v1h-1z" fill="#88735c" transform="matrix(.97029573 .2419219 -6.28996929 25.22768888 130 124)"/><path d="m-.5-.5h1v1h-1z" fill="#fbe3bb" transform="matrix(-5.29768556 2.81682938 -.46947156 -.88294759 48 93)"/><path d="m86.166224 97.943831 8.756976-2.805391 20.0663-19.366967 3.838428-2.750789z" fill="#a77f58"/><ellipse cx="29" cy="144" fill="#747880" rx="2" ry="2"/><path d="m12 55 28-66-56 69z" fill="#102027"/><path d="m-16 163 57-25-50 7z" fill="#24201c"/><path d="m-.5-.5h1v1h-1z" fill="#e9f2f7" transform="matrix(1.56292451 -3.68201941 8.28454368 3.51658016 149 82)"/><path d="m-.5-.5h1v1h-1z" fill="#74532f" transform="matrix(-.42261826 .90630779 -29.00184919 -13.52378438 189 169)"/><path d="m204.162528 140.194198-44.743173 8.536768 1.376833 6.889171 15.836818-12.818923z" fill="#16191f"/><path d="m91.118961 116.195844-25.484125-7.93402 29.302357 11.046504 23.144807-20.885559z" fill="#73583f"/><path d="m-.5-.5h1v1h-1z" fill="#9e9291" transform="matrix(-1.73205081 1 -3.5 -6.06217783 98 126)"/><path d="m54.514188 113.813928 4.888277-3.229277 30.482224-11.494363-28.566012 15.259192z" fill="#311f14"/><ellipse cx="152" cy="72" fill="#b9c6de" rx="2" ry="2"/><path d="m103 89 6-3 5 10z" fill="#a67649"/><path d="m157 90-12-8 1 6z" fill="#6e471a"/><ellipse fill="#281a10" rx="1" ry="1" transform="matrix(-8.54929529 -7.72540392 1.44713022 -1.60146236 85.056306 106.313563)"/><path d="m124.523126 146.61058 15.684163 7.35971 15.132252-8.1411-12.196257 23.433148z" fill="#231a15"/><path d="m-.5-.5h1v1h-1z" fill="#97806c" transform="matrix(.4539905 .89100652 -3.5640261 1.815962 95 147)"/></g></svg>