<svg xmlns="http://www.w3.org/2000/svg" version="1.1" width="1024" height="680">
<rect x="0" y="0" width="1024" height="680" fill="#342f2d" />
<g transform="scale(4.000000) translate(0.5 0.5)">
<g transform="translate(93.072600 85.425330) rotate(198.941674) scale(34.546551 122.274206)"><ellipse fill="#a27349" fill-opacity="0.501961" cx="0" cy="0" rx="1" ry="1" /></g>
<ellipse fill="#000000" fill-opacity="0.501961" cx="14" cy="54" rx="39" ry="133" />
<g transform="translate(131.317427 146.210208) rotate(282.086273) scale(61.184773 16.525734)"><ellipse fill="#000000" fill-opacity="0.501961" cx="0" cy="0" rx="1" ry="1" /></g>
<g transform="translate(122.871188 19.428560) rotate(326.731567) scale(37.446082 84.974375)"><ellipse fill="#485569" fill-opacity="0.501961" cx="0" cy="0" rx="1" ry="1" /></g>
<ellipse fill="#ede3e4" fill-opacity="0.501961" cx="102" cy="144" rx="4" ry="31" />
<ellipse fill="#ffffff" fill-opacity="0.501961" cx="58" cy="131" rx="6" ry="11" />
<g transform="translate(96.868511 91.600949) rotate(115.930261) scale(21.459914 33.717472)"><ellipse fill="#562300" fill-opacity="0.501961" cx="0" cy="0" rx="1" ry="1" /></g>
<polygon fill="#f0ebe9" fill-opacity="0.501961" points="115.281238,43.230198,130.962554,61.420435,117.449956,86.267614,121.012566,72.960440" />
<g transform="translate(217.148817 163.620483) rotate(-95.055868) scale(30.901791 120.899265)"><ellipse fill="#010b17" fill-opacity="0.501961" cx="0" cy="0" rx="1" ry="1" /></g>
<polygon fill="#f4c48f" fill-opacity="0.501961" points="84.602972,137.561341,66.439643,148.924649,84.270671,185.000000,83.832982,175.682951" />
<g transform="translate(95.938339 30.859778) rotate(65.749422) scale(16.130219 29.698887)"><ellipse fill="#212028" fill-opacity="0.501961" cx="0" cy="0" rx="1" ry="1" /></g>
<g transform="translate(11 75) rotate(265) scale(231 47)"><rect fill="#000001" fill-opacity="0.501961" x="-0.5" y="-0.5" width="1" height="1" /></g>
<g transform="translate(223.941880 70.033538) rotate(388.134866) scale(50.873597 123.194976)"><ellipse fill="#202b3d" fill-opacity="0.501961" cx="0" cy="0" rx="1" ry="1" /></g>
<rect fill="#a66023" fill-opacity="0.501961" x="63" y="42" width="12" height="128" />
<g transform="translate(143.236836 35.490913) rotate(164.257137) scale(10.189914 100.988787)"><ellipse fill="#5a5c65" fill-opacity="0.501961" cx="0" cy="0" rx="1" ry="1" /></g>
<polygon fill="#000000" fill-opacity="0.501961" points="126.375363,42.249235,137.366765,80.537570,146.956556,185.000000,143.219550,60.853540" />
<polygon fill="#170400" fill-opacity="0.501961" points="77.097210,124.662422,87.533414,134.724644,87.472790,79.159946,102.606858,93.262280" />
<ellipse fill="#000000" fill-opacity="0.501961" cx="139" cy="129" rx="12" ry="45" />
<polygon fill="#000000" fill-opacity="0.501961" points="96,184 86,148 96,154" />
<polygon fill="#1f1408" fill-opacity="0.501961" points="54,172 51,148 68,133" />
<polygon fill="#8e541d" fill-opacity="0.501961" points="112,107 50,122 57,83" />
<polygon fill="#958986" fill-opacity="0.501961" points="137,85 131,63 110,84" />
<polygon fill="#ccc1b8" fill-opacity="0.501961" points="114.722133,54.669306,101.653984,41.705960,129.501693,53.005115,122.631133,66.122108" />
<polygon fill="#090100" fill-opacity="0.501961" points="77.148071,72.845923,73.987192,52.799499,101.321498,100.738567,108.996009,114.627639" />
<polygon fill="#df904c" fill-opacity="0.501961" points="79.535319,89.979587,70.845061,48.115780,66.660236,75.639971,78.344930,83.350418" />
<polygon fill="#fff5e4" fill-opacity="0.501961" points="57,120 66,121 57,151" />
<polygon fill="#b18f64" fill-opacity="0.501961" points="110.684401,73.654795,87.157729,58.229033,75.341002,58.532881,94.367642,47.924132" />
<polygon fill="#c48241" fill-opacity="0.501961" points="49,121 42,157 56,185" />
<polygon fill="#7d5d42" fill-opacity="0.501961" points="102.612094,139.362573,125.291561,127.582477,127.504080,111.824325,109.717595,110.833578" />
<polygon fill="#0d272b" fill-opacity="0.501961" points="33,33 67,57 28,159" />
<polygon fill="#d8a56f" fill-opacity="0.501961" points="76,124 90,107 73,113" />
<polygon fill="#4c1c00" fill-opacity="0.501961" points="77.032014,39.180709,114.814233,53.552367,117.308387,57.876705,99.384780,56.523275" />
<polygon fill="#0b0000" fill-opacity="0.501961" points="105.896426,166.293940,142.665461,167.989461,152.046972,99.015517,113.528232,135.341774" />
<ellipse fill="#000000" fill-opacity="0.501961" cx="108" cy="63" rx="4" ry="4" />
<g transform="translate(135 82) rotate(289) scale(5 4)"><rect fill="#f3ffff" fill-opacity="0.501961" x="-0.5" y="-0.5" width="1" height="1" /></g>
<g transform="translate(228.031902 62.715159) rotate(293.240326) scale(16.197603 66.014530)"><ellipse fill="#1d1e27" fill-opacity="0.501961" cx="0" cy="0" rx="1" ry="1" /></g>
<polygon fill="#321900" fill-opacity="0.501961" points="124.086727,125.926399,134.511439,100.438933,132.548464,83.590425,113.693300,89.682286" />
<polygon fill="#000000" fill-opacity="0.501961" points="82,120 97,105 98,117" />
<polygon fill="#bda795" fill-opacity="0.501961" points="90.719329,124.803406,113.937744,131.687527,97.795183,109.770311,102.801548,134.388841" />
<rect fill="#aee7fb" fill-opacity="0.501961" x="101" y="61" width="4" height="10" />
<g transform="translate(222.518362 103.619658) rotate(24.479516) scale(17.187478 27.419900)"><ellipse fill="#373f4d" fill-opacity="0.501961" cx="0" cy="0" rx="1" ry="1" /></g>
<polygon fill="#d1b28d" fill-opacity="0.501961" points="67.704049,158.261505,84.296271,160.503275,72.084629,179.123483,85.884792,130.883764" />
<ellipse fill="#000709" fill-opacity="0.501961" cx="6" cy="10" rx="32" ry="210" />
<polygon fill="#613002" fill-opacity="0.501961" points="95.531103,71.993279,112.223964,86.036413,60.607081,77.723124,68.401312,122.474010" />
<rect fill="#4d4f59" fill-opacity="0.501961" x="151" y="105" width="15" height="31" />
<ellipse fill="#3e1800" fill-opacity="0.501961" cx="113" cy="158" rx="7" ry="36" />
<g transform="translate(50.849098 18.220808) rotate(179.174199) scale(15.478637 26.992347)"><ellipse fill="#0b2427" fill-opacity="0.501961" cx="0" cy="0" rx="1" ry="1" /></g>
<polygon fill="#a4663a" fill-opacity="0.501961" points="65.059611,55.964718,56.534722,47.170430,60.210504,40.539598,89.963098,63.050174" />
<polygon fill="#ca8f4b" fill-opacity="0.501961" points="86,133 96,146 72,145" />
<g transform="translate(255 143) rotate(48) scale(47 156)"><rect fill="#0d1219" fill-opacity="0.501961" x="-0.5" y="-0.5" width="1" height="1" /></g>
<rect fill="#696971" fill-opacity="0.501961" x="141" y="35" width="10" height="39" />
<rect fill="#a55f1d" fill-opacity="0.501961" x="50" y="111" width="4" height="32" />
<polygon fill="#000000" fill-opacity="0.501961" points="54,179 48,160 48,185" />
<ellipse fill="#b6bac4" fill-opacity="0.501961" cx="101" cy="144" rx="4" ry="12" />
<polygon fill="#2d3136" fill-opacity="0.501961" points="103.072405,32.643208,47.088662,-16.000000,72.575552,37.275006,133.532400,51.959215" />
<polygon fill="#ba742c" fill-opacity="0.501961" points="81.560485,76.894392,86.310835,89.311188,73.555893,80.752895,67.707014,73.152798" />
<polygon fill="#765c42" fill-opacity="0.501961" points="113.440857,133.575271,104.557183,101.225754,119.862922,103.665154,116.297050,135.721856" />
<g transform="translate(134.825453 14.975610) rotate(304.433676) scale(33.741758 32.402538)"><ellipse fill="#4e4f56" fill-opacity="0.501961" cx="0" cy="0" rx="1" ry="1" /></g>
<g transform="translate(61.554349 163.717823) rotate(8.819784) scale(3.665089 13.459380)"><ellipse fill="#ae6a25" fill-opacity="0.501961" cx="0" cy="0" rx="1" ry="1" /></g>
<g transform="translate(169.456203 25.704078) rotate(87.936911) scale(109.414538 10.925867)"><ellipse fill="#333741" fill-opacity="0.501961" cx="0" cy="0" rx="1" ry="1" /></g>
<polygon fill="#a86d3a" fill-opacity="0.501961" points="63,93 76,142 57,110" />
<rect fill="#f1eedf" fill-opacity="0.501961" x="49" y="154" width="3" height="7" />
<polygon fill="#643103" fill-opacity="0.501961" points="98.125397,115.750198,89.433051,165.854640,79.543138,143.402951,95.851011,153.419956" />
<polygon fill="#1c0c03" fill-opacity="0.501961" points="48,155 60,150 50,145" />
<polygon fill="#120800" fill-opacity="0.501961" points="144.242421,81.998092,129.295568,70.805091,135.536667,69.380518,133.921486,45.099646" />
<polygon fill="#854e16" fill-opacity="0.501961" points="126.713294,131.630455,97.375229,87.839934,121.614270,66.167251,105.073145,99.405948" />
<polygon fill="#c3b4a9" fill-opacity="0.501961" points="108.343896,47.316821,120.977117,48.559608,123.256774,55.103056,101.694482,49.218319" />
<polygon fill="#000000" fill-opacity="0.501961" points="140.487524,185.000000,137.512420,74.919569,154.795223,98.995462,124.457819,116.964878" />
<g transform="translate(114 114) rotate(247) scale(13 3)"><rect fill="#100000" fill-opacity="0.501961" x="-0.5" y="-0.5" width="1" height="1" /></g>
<g transform="translate(63 143) rotate(291) scale(29 1)"><rect fill="#000000" fill-opacity="0.501961" x="-0.5" y="-0.5" width="1" height="1" /></g>
<rect fill="#0a0100" fill-opacity="0.501961" x="98" y="60" width="2" height="21" />
<rect fill="#fcf8e9" fill-opacity="0.501961" x="55" y="125" width="6" height="15" />
<g transform="translate(82 129) rotate(175) scale(15 12)"><rect fill="#461800" fill-opacity="0.501961" x="-0.5" y="-0.5" width="1" height="1" /></g>
<polygon fill="#5f3000" fill-opacity="0.501961" points="65.306119,159.086933,68.431436,140.086852,69.735322,156.999151,76.244028,185.000000" />
<g transform="translate(92.224867 91.611229) rotate(229.273805) scale(13.803715 5.068762)"><ellipse fill="#170700" fill-opacity="0.501961" cx="0" cy="0" rx="1" ry="1" /></g>
<polygon fill="#5c3107" fill-opacity="0.501961" points="124.311685,81.369155,99.720269,67.976952,80.658119,70.401287,99.145672,83.179646" />
<polygon fill="#171d25" fill-opacity="0.501961" points="191,185 167,128 199,90" />
<polygon fill="#5a2703" fill-opacity="0.501961" points="79,40 74,60 90,45" />
<g transform="translate(255.000000 0.000000) rotate(290.774299) scale(15.679742 40.213956)"><ellipse fill="#121418" fill-opacity="0.501961" cx="0" cy="0" rx="1" ry="1" /></g>
<polygon fill="#9d5e1d" fill-opacity="0.501961" points="113.914509,40.620388,85.134044,66.906694,80.297372,68.449795,79.568989,56.266134" />
<polygon fill="#182728" fill-opacity="0.501961" points="49,115 24,99 58,5" />
<rect fill="#85afb8" fill-opacity="0.501961" x="100" y="58" width="13" height="3" />
<polygon fill="#3b2004" fill-opacity="0.501961" points="109.710319,49.110954,120.618687,64.335605,104.843215,78.133676,117.831349,69.300983" />
<polygon fill="#e9f5fc" fill-opacity="0.501961" points="122,65 114,47 124,59" />
<polygon fill="#080000" fill-opacity="0.501961" points="93.986246,154.879520,89.248438,155.505377,87.575868,159.939894,102.146938,185.000000" />
<polygon fill="#c3944e" fill-opacity="0.501961" points="72.555126,138.060188,66.315899,131.319622,68.230163,129.044547,82.188938,139.733557" />
<g transform="translate(76.843357 169.000000) rotate(277.136647) scale(8.322078 2.683337)"><ellipse fill="#d6cdc3" fill-opacity="0.501961" cx="0" cy="0" rx="1" ry="1" /></g>
<polygon fill="#1f2325" fill-opacity="0.501961" points="37,15 82,25 107,54" />
<rect fill="#907768" fill-opacity="0.501961" x="98" y="111" width="2" height="55" />
<polygon fill="#230b00" fill-opacity="0.501961" points="60.511536,165.355112,52.057446,150.676037,55.777161,139.373279,56.100275,185.000000" />
<g transform="translate(113 67) rotate(292) scale(9 1)"><rect fill="#b7d5da" fill-opacity="0.501961" x="-0.5" y="-0.5" width="1" height="1" /></g>
<rect fill="#6d6069" fill-opacity="0.501961" x="121" y="166" width="6" height="4" />
<polygon fill="#9d7d5d" fill-opacity="0.501961" points="113,102 103,105 122,116" />
<polygon fill="#482703" fill-opacity="0.501961" points="128.652117,87.041673,63.479654,114.428711,140.093879,93.997545,123.725442,111.404070" />
<g transform="translate(92 124) rotate(231) scale(9 2)"><rect fill="#d0ac95" fill-opacity="0.501961" x="-0.5" y="-0.5" width="1" height="1" /></g>
<polygon fill="#5d5c63" fill-opacity="0.501961" points="129.537108,46.864630,167.171735,66.483196,149.162331,28.141252,105.495167,44.901273" />
<polygon fill="#3d3f48" fill-opacity="0.501961" points="148,170 177,105 165,34" />
<polygon fill="#b7936d" fill-opacity="0.501961" points="89,114 80,114 89,104" />
<polygon fill="#8c5525" fill-opacity="0.501961" points="87.550463,98.442145,53.688286,91.033852,51.373806,101.741402,72.117864,101.844689" />
<polygon fill="#000000" fill-opacity="0.501961" points="81,69 74,67 87,81" />
<g transform="translate(193 3) rotate(252) scale(42 58)"><rect fill="#2c313d" fill-opacity="0.501961" x="-0.5" y="-0.5" width="1" height="1" /></g>
<rect fill="#6c4030" fill-opacity="0.501961" x="60" y="40" width="19" height="10" />
<polygon fill="#9f6731" fill-opacity="0.501961" points="55.607314,143.719841,52.272325,102.254175,57.237407,79.274227,41.588673,158.973229" />
<rect fill="#49250c" fill-opacity="0.501961" x="104" y="149" width="6" height="21" />
<polygon fill="#c68b56" fill-opacity="0.501961" points="66,48 68,69 77,51" />
<polygon fill="#020000" fill-opacity="0.501961" points="120.695110,130.214445,140.520117,185.000000,153.345963,137.121827,151.653155,125.000546" />
<polygon fill="#87501a" fill-opacity="0.501961" points="63.824768,128.573569,70.273557,101.976831,74.270080,141.670435,93.977737,130.738952" />
<polygon fill="#1c2b2d" fill-opacity="0.501961" points="43,116 68,58 46,41" />
<polygon fill="#403f44" fill-opacity="0.501961" points="43,-16 128,19 117,47" />
<polygon fill="#281a0f" fill-opacity="0.501961" points="102.673010,114.046020,113.263539,118.619297,92.656618,90.700178,101.311339,98.836859" />
<polygon fill="#542700" fill-opacity="0.501961" points="64,89 69,78 103,103" />
<ellipse fill="#0b1416" fill-opacity="0.501961" cx="34" cy="65" rx="8" ry="180" />
<polygon fill="#462506" fill-opacity="0.501961" points="57.511551,184.133898,74.977753,155.109512,68.635509,185.000000,52.612286,152.849066" />
<g transform="translate(238 27) rotate(124) scale(18 102)"><rect fill="#35363e" fill-opacity="0.501961" x="-0.5" y="-0.5" width="1" height="1" /></g>
<polygon fill="#c28e59" fill-opacity="0.501961" points="60.267849,165.651954,68.401997,168.530684,62.028599,155.173349,62.704100,166.483390" />
<g transform="translate(95.371264 118.015769) rotate(59.123957) scale(5.011797 4.500448)"><ellipse fill="#241709" fill-opacity="0.501961" cx="0" cy="0" rx="1" ry="1" /></g>
<polygon fill="#643405" fill-opacity="0.501961" points="94.740623,142.110700,86.022421,135.170718,98.782886,132.279209,100.295512,123.173270" />
<g transform="translate(16.539514 24.228404) rotate(341.334186) scale(14.151607 32.925329)"><ellipse fill="#000001" fill-opacity="0.501961" cx="0" cy="0" rx="1" ry="1" /></g>
<rect fill="#accfed" fill-opacity="0.501961" x="134" y="75" width="2" height="13" />
<ellipse fill="#000000" fill-opacity="0.501961" cx="108" cy="65" rx="3" ry="3" />
<rect fill="#c49f74" fill-opacity="0.501961" x="53" y="164" width="2" height="6" />
<g transform="translate(194.235346 39.367322) rotate(227.845156) scale(18.137542 24.526199)"><ellipse fill="#232229" fill-opacity="0.501961" cx="0" cy="0" rx="1" ry="1" /></g>
<ellipse fill="#b88a5b" fill-opacity="0.501961" cx="70" cy="137" rx="3" ry="10" />
<polygon fill="#221000" fill-opacity="0.501961" points="133.484428,62.174653,139.851920,82.042906,139.985879,58.844654,121.045525,42.834479" />
<ellipse fill="#84a2a8" fill-opacity="0.501961" cx="108" cy="70" rx="3" ry="3" />
<polygon fill="#48280b" fill-opacity="0.501961" points="52.450598,129.301445,58.038680,116.649021,52.803511,119.938471,56.545918,185.000000" />
<g transform="translate(104.812207 122.053902) rotate(320.153457) scale(8.025908 5.139370)"><ellipse fill="#ac9c92" fill-opacity="0.501961" cx="0" cy="0" rx="1" ry="1" /></g>
<ellipse fill="#080400" fill-opacity="0.501961" cx="84" cy="124" rx="4" ry="8" />
<polygon fill="#d1b89e" fill-opacity="0.501961" points="71,144 85,153 77,155" />
<rect fill="#180700" fill-opacity="0.501961" x="115" y="54" width="2" height="17" />
<rect fill="#91705b" fill-opacity="0.501961" x="98" y="86" width="15" height="4" />
<polygon fill="#080401" fill-opacity="0.501961" points="121,167 151,138 102,165" />
<g transform="translate(104 146) rotate(287) scale(1 6)"><rect fill="#dfd3c7" fill-opacity="0.501961" x="-0.5" y="-0.5" width="1" height="1" /></g>
<g transform="translate(117 156) rotate(113) scale(48 4)"><rect fill="#3d2413" fill-opacity="0.501961" x="-0.5" y="-0.5" width="1" height="1" /></g>
<polygon fill="#aaa4a3" fill-opacity="0.501961" points="124.181651,57.468501,115.029858,47.352718,132.775825,59.210907,128.646857,69.460733" />
<polygon fill="#040000" fill-opacity="0.501961" points="133.707526,108.337504,131.445911,118.790931,123.099078,90.558704,118.709299,95.933862" />
<g transform="translate(220 140) rotate(71) scale(28 41)"><rect fill="#232a34" fill-opacity="0.501961" x="-0.5" y="-0.5" width="1" height="1" /></g>
<polygon fill="#492100" fill-opacity="0.501961" points="104,52 98,42 101,59" />
<g transform="translate(113.588828 127.075324) rotate(225.452000) scale(11.126909 1.198051)"><ellipse fill="#4d2d14" fill-opacity="0.501961" cx="0" cy="0" rx="1" ry="1" /></g>
<polygon fill="#030000" fill-opacity="0.501961" points="102.755284,97.407398,78.150691,67.551560,94.355567,98.257581,103.133908,100.220935" />
<polygon fill="#474852" fill-opacity="0.501961" points="149,120 166,117 162,56" />
<polygon fill="#c4803a" fill-opacity="0.501961" points="83,83 70,76 83,76" />
<rect fill="#1d0100" fill-opacity="0.501961" x="89" y="152" width="8" height="18" />
<polygon fill="#5c3306" fill-opacity="0.501961" points="113,114 107,86 115,86" />
<polygon fill="#6a3506" fill-opacity="0.501961" points="116.532328,68.774169,117.285231,75.088697,100.923488,85.164192,103.140911,73.528324" />
<g transform="translate(118 126) rotate(222) scale(5 13)"><rect fill="#896d54" fill-opacity="0.501961" x="-0.5" y="-0.5" width="1" height="1" /></g>
<polygon fill="#191f26" fill-opacity="0.501961" points="259,68 222,158 271,126" />
<polygon fill="#06080a" fill-opacity="0.501961" points="180.991449,168.021318,221.668113,185.000000,269.098392,134.208871,271.000000,172.321157" />
<polygon fill="#100600" fill-opacity="0.501961" points="108.971687,56.566822,105.965081,51.355503,107.797936,50.870440,116.342600,59.687115" />
<rect fill="#d6cbbc" fill-opacity="0.501961" x="100" y="124" width="9" height="5" />
<g transform="translate(73.761199 140.420272) rotate(300.213528) scale(1.797413 5.334618)"><ellipse fill="#7c4202" fill-opacity="0.501961" cx="0" cy="0" rx="1" ry="1" /></g>
<g transform="translate(118.230666 73.960565) rotate(194.712902) scale(3.488378 7.916541)"><ellipse fill="#9c673b" fill-opacity="0.501961" cx="0" cy="0" rx="1" ry="1" /></g>
<polygon fill="#080000" fill-opacity="0.501961" points="123.944938,127.367042,115.327635,155.647685,142.127147,152.168446,108.099018,144.213383" />
<g transform="translate(101.617009 156.944945) rotate(270.672096) scale(37.159517 1.000000)"><ellipse fill="#b9b6b7" fill-opacity="0.501961" cx="0" cy="0" rx="1" ry="1" /></g>
<g transform="translate(205.490846 79.712528) rotate(88.365769) scale(15.325062 27.217469)"><ellipse fill="#2b313d" fill-opacity="0.501961" cx="0" cy="0" rx="1" ry="1" /></g>
<polygon fill="#152526" fill-opacity="0.501961" points="46.737510,127.106791,50.857367,110.989603,39.495878,60.874624,35.257421,164.807255" />
<ellipse fill="#cea97c" fill-opacity="0.501961" cx="52" cy="116" rx="3" ry="2" />
<polygon fill="#2a2e36" fill-opacity="0.501961" points="153.494229,177.850860,184.265104,116.274813,174.744500,104.984639,137.613414,185.000000" />
<g transform="translate(90 107) rotate(156) scale(30 1)"><rect fill="#6a4111" fill-opacity="0.501961" x="-0.5" y="-0.5" width="1" height="1" /></g>
<path stroke="#837161" stroke-opacity="0.501961" fill="none" d="M 25.626808 185.000000 Q 61.045084 180.607350, 60.693475 125.237875" stroke-width="0.500000" />
<polygon fill="#839294" fill-opacity="0.501961" points="112.688030,64.829773,117.118367,60.892961,125.739245,66.147758,108.872440,57.681108" />
<polygon fill="#a37f5f" fill-opacity="0.501961" points="93.766217,66.887209,98.100208,58.268290,106.074851,54.692128,95.062774,55.809133" />
<rect fill="#cda36a" fill-opacity="0.501961" x="77" y="137" width="8" height="10" />
<polygon fill="#3f4049" fill-opacity="0.501961" points="126.869012,80.818287,115.378003,80.444133,195.889441,51.326305,159.599254,63.859750" />
<polygon fill="#aa7344" fill-opacity="0.501961" points="56,121 62,101 64,119" />
<polygon fill="#c58241" fill-opacity="0.501961" points="80.910786,65.689369,88.400244,48.383969,91.465927,53.085330,79.617715,56.274163" />
<g transform="translate(101 63) rotate(253) scale(6 1)"><rect fill="#eefffb" fill-opacity="0.501961" x="-0.5" y="-0.5" width="1" height="1" /></g>
<polygon fill="#a36d36" fill-opacity="0.501961" points="42.079729,146.985156,43.540688,169.697648,53.320209,109.329820,49.002530,118.940785" />
<rect fill="#050100" fill-opacity="0.501961" x="119" y="106" width="32" height="5" />
<polygon fill="#764414" fill-opacity="0.501961" points="46.711617,130.643774,89.918479,92.319495,94.324507,104.205246,85.837849,85.299369" />
<g transform="translate(96 61) rotate(107) scale(4 1)"><rect fill="#d0cac9" fill-opacity="0.501961" x="-0.5" y="-0.5" width="1" height="1" /></g>
<g transform="translate(221.049242 114.507493) rotate(300.902694) scale(29.367567 12.070095)"><ellipse fill="#343a45" fill-opacity="0.501961" cx="0" cy="0" rx="1" ry="1" /></g>
<polygon fill="#8f817b" fill-opacity="0.501961" points="127,110 119,116 117,112" />
<ellipse fill="#565960" fill-opacity="0.501961" cx="116" cy="0" rx="36" ry="8" />
<rect fill="#9b705f" fill-opacity="0.501961" x="83" y="165" width="8" height="3" />
<g transform="translate(73 157) rotate(170) scale(14 1)"><rect fill="#c7ac9e" fill-opacity="0.501961" x="-0.5" y="-0.5" width="1" height="1" /></g>
<rect fill="#753800" fill-opacity="0.501961" x="82" y="146" width="12" height="5" />
<polygon fill="#5d5f67" fill-opacity="0.501961" points="123.389392,44.025878,144.695548,27.546938,144.671239,43.044958,157.098054,67.413847" />
<polygon fill="#784d16" fill-opacity="0.501961" points="117,101 117,89 125,106" />
<polygon fill="#9a6f46" fill-opacity="0.501961" points="83.936312,111.123167,83.061736,114.473102,88.735476,97.995997,92.549208,113.106479" />
<polygon fill="#030000" fill-opacity="0.501961" points="147.790276,126.661696,150.707585,100.969112,138.657047,73.059526,134.697432,98.622762" />
<g transform="translate(100 68) rotate(154) scale(1 12)"><rect fill="#040d1f" fill-opacity="0.501961" x="-0.5" y="-0.5" width="1" height="1" /></g>
<polygon fill="#854c23" fill-opacity="0.501961" points="68.860828,130.916075,62.550293,74.202934,58.350808,92.537848,78.734288,122.305654" />
<polygon fill="#725544" fill-opacity="0.501961" points="100.394224,165.391518,118.377287,154.348726,117.799978,161.480637,103.225583,154.636188" />
<ellipse fill="#c7ab94" fill-opacity="0.501961" cx="102" cy="160" rx="3" ry="3" />
<g transform="translate(59.974633 130.357397) rotate(258.687198) scale(7.148945 4.825221)"><ellipse fill="#e1ddd2" fill-opacity="0.501961" cx="0" cy="0" rx="1" ry="1" /></g>
<rect fill="#e8b078" fill-opacity="0.501961" x="70" y="58" width="3" height="10" />
<rect fill="#b18758" fill-opacity="0.501961" x="98" y="106" width="4" height="9" />
<g transform="translate(112 126) rotate(217) scale(2 22)"><rect fill="#492811" fill-opacity="0.501961" x="-0.5" y="-0.5" width="1" height="1" /></g>
<g transform="translate(108 56) rotate(195) scale(10 1)"><rect fill="#000002" fill-opacity="0.501961" x="-0.5" y="-0.5" width="1" height="1" /></g>
<polygon fill="#1d110b" fill-opacity="0.501961" points="85,114 98,124 94,113" />
<polygon fill="#b8743b" fill-opacity="0.501961" points="67.378692,84.002438,63.627330,81.246937,74.575647,75.727921,73.737704,66.522146" />
<g transform="translate(63 144) rotate(200) scale(1 15)"><rect fill="#000000" fill-opacity="0.501961" x="-0.5" y="-0.5" width="1" height="1" /></g>
<g transform="translate(50 140) rotate(-25) scale(2 7)"><rect fill="#edab60" fill-opacity="0.501961" x="-0.5" y="-0.5" width="1" height="1" /></g>
<rect fill="#67402d" fill-opacity="0.501961" x="62" y="40" width="15" height="10" />
<polygon fill="#a9774f" fill-opacity="0.501961" points="102.295860,44.285405,115.243953,46.370193,103.808847,49.692449,103.751357,48.094390" />
<rect fill="#744512" fill-opacity="0.501961" x="84" y="57" width="7" height="14" />
<g transform="translate(112 56) rotate(139) scale(1 16)"><rect fill="#201001" fill-opacity="0.501961" x="-0.5" y="-0.5" width="1" height="1" /></g>
<ellipse fill="#070d10" fill-opacity="0.501961" cx="16" cy="92" rx="14" ry="34" />
<ellipse fill="#c99b66" fill-opacity="0.501961" cx="109" cy="104" rx="2" ry="2" />
<g transform="translate(51 160) rotate(167) scale(3 4)"><rect fill="#cac7c0" fill-opacity="0.501961" x="-0.5" y="-0.5" width="1" height="1" /></g>
<g transform="translate(70 154) rotate(331) scale(10 1)"><rect fill="#7b4204" fill-opacity="0.501961" x="-0.5" y="-0.5" width="1" height="1" /></g>
<rect fill="#7d97b0" fill-opacity="0.501961" x="131" y="77" width="6" height="3" />
<rect fill="#d8dfe2" fill-opacity="0.501961" x="119" y="56" width="6" height="9" />
<polygon fill="#9b7961" fill-opacity="0.501961" points="100,126 87,125 95,129" />
<g transform="translate(105 57) rotate(245) scale(1 12)"><rect fill="#000005" fill-opacity="0.501961" x="-0.5" y="-0.5" width="1" height="1" /></g>
<polygon fill="#a08374" fill-opacity="0.501961" points="121,83 118,76 111,86" />
<rect fill="#251307" fill-opacity="0.501961" x="75" y="54" width="4" height="19" />
<polygon fill="#cda276" fill-opacity="0.501961" points="75,113 84,111 75,119" />
<g transform="translate(11.762738 163.640885) rotate(25.998093) scale(41.658230 14.326546)"><ellipse fill="#000304" fill-opacity="0.501961" cx="0" cy="0" rx="1" ry="1" /></g>
<rect fill="#0a0000" fill-opacity="0.501961" x="53" y="141" width="2" height="23" />
<g transform="translate(155.437806 34.315231) rotate(165.447636) scale(5.986914 33.602089)"><ellipse fill="#4d4c52" fill-opacity="0.501961" cx="0" cy="0" rx="1" ry="1" /></g>
<rect fill="#2b1d19" fill-opacity="0.501961" x="106" y="110" width="3" height="13" />
<polygon fill="#3b2713" fill-opacity="0.501961" points="119,120 128,113 125,107" />
<g transform="translate(61.716787 114.457076) rotate(364.541408) scale(1.000000 16.010924)"><ellipse fill="#b7885d" fill-opacity="0.501961" cx="0" cy="0" rx="1" ry="1" /></g>
<polygon fill="#c17c32" fill-opacity="0.501961" points="49,143 48,140 57,141" />
<polygon fill="#764417" fill-opacity="0.501961" points="48,132 52,126 57,145" />
<g transform="translate(110.667627 12.516038) rotate(17.922028) scale(29.104572 7.276397)"><ellipse fill="#4b4b50" fill-opacity="0.501961" cx="0" cy="0" rx="1" ry="1" /></g>
<g transform="translate(68 42) rotate(275) scale(1 23)"><rect fill="#855740" fill-opacity="0.501961" x="-0.5" y="-0.5" width="1" height="1" /></g>
<path stroke="#3a220a" stroke-opacity="0.501961" fill="none" d="M 63.726749 145.565854 Q 71.206067 116.248349, 77.376278 99.296275" stroke-width="0.500000" />
<g transform="translate(74 110) rotate(200) scale(1 17)"><rect fill="#351905" fill-opacity="0.501961" x="-0.5" y="-0.5" width="1" height="1" /></g>
<polygon fill="#8f5c2d" fill-opacity="0.501961" points="89.731608,125.891660,87.067734,139.122275,77.684998,172.201820,93.921683,131.008572" />
<g transform="translate(64 163) rotate(-11) scale(1 26)"><rect fill="#c49467" fill-opacity="0.501961" x="-0.5" y="-0.5" width="1" height="1" /></g>
<g transform="translate(49.287897 169.000000) rotate(173.396002) scale(1.000000 6.186074)"><ellipse fill="#090300" fill-opacity="0.501961" cx="0" cy="0" rx="1" ry="1" /></g>
<g transform="translate(117 64) rotate(284) scale(9 1)"><rect fill="#000000" fill-opacity="0.501961" x="-0.5" y="-0.5" width="1" height="1" /></g>
<g transform="translate(112 110) rotate(229) scale(1 11)"><rect fill="#2c1909" fill-opacity="0.501961" x="-0.5" y="-0.5" width="1" height="1" /></g>
<polygon fill="#4f2d0d" fill-opacity="0.501961" points="140.913103,99.918513,125.701113,99.934163,134.019620,84.009134,109.636765,88.311355" />
<rect fill="#996344" fill-opacity="0.501961" x="105" y="139" width="3" height="7" />
<g transform="translate(105 119) rotate(165) scale(10 3)"><rect fill="#c1aa9d" fill-opacity="0.501961" x="-0.5" y="-0.5" width="1" height="1" /></g>
<g transform="translate(109 94) rotate(287) scale(1 11)"><rect fill="#a56815" fill-opacity="0.501961" x="-0.5" y="-0.5" width="1" height="1" /></g>
<g transform="translate(79 114) rotate(107) scale(6 2)"><rect fill="#6b4322" fill-opacity="0.501961" x="-0.5" y="-0.5" width="1" height="1" /></g>
<g transform="translate(89 87) rotate(39) scale(11 4)"><rect fill="#000000" fill-opacity="0.501961" x="-0.5" y="-0.5" width="1" height="1" /></g>
<path stroke="#be814b" stroke-opacity="0.501961" fill="none" d="M 53.750903 108.969363 Q 46.720136 125.520760, 42.077428 164.385209" stroke-width="0.500000" />
<g transform="translate(92.200552 54.482024) rotate(282.005476) scale(5.831240 7.076426)"><ellipse fill="#a06833" fill-opacity="0.501961" cx="0" cy="0" rx="1" ry="1" /></g>
<polygon fill="#5f3f1f" fill-opacity="0.501961" points="84.748437,60.574271,88.438849,71.767442,120.217142,74.672589,93.520293,67.722577" />
<g transform="translate(92 136) rotate(-5) scale(11 7)"><rect fill="#5e3108" fill-opacity="0.501961" x="-0.5" y="-0.5" width="1" height="1" /></g>
<ellipse fill="#000000" fill-opacity="0.501961" cx="107" cy="62" rx="3" ry="3" />
<polygon fill="#5c3417" fill-opacity="0.501961" points="53,120 59,113 59,120" />
<g transform="translate(83 169) rotate(257) scale(2 3)"><rect fill="#bfb8c1" fill-opacity="0.501961" x="-0.5" y="-0.5" width="1" height="1" /></g>
<ellipse fill="#160200" fill-opacity="0.501961" cx="123" cy="48" rx="2" ry="2" />
<polygon fill="#c5bcb4" fill-opacity="0.501961" points="101.389612,118.895429,99.663926,136.699462,98.362826,138.439436,106.212903,148.825393" />
<g transform="translate(71 98) rotate(210) scale(10 5)"><rect fill="#ac6b28" fill-opacity="0.501961" x="-0.5" y="-0.5" width="1" height="1" /></g>
<polygon fill="#5e3105" fill-opacity="0.501961" points="106.193717,111.627018,82.192297,81.909362,82.151451,100.492789,64.009941,86.763536" />
<polygon fill="#140a00" fill-opacity="0.501961" points="139.565267,85.862415,132.070013,45.591584,142.772460,90.732732,115.446216,99.979499" />
<polygon fill="#5c2b00" fill-opacity="0.501961" points="74,161 67,160 67,168" />
<polygon fill="#643913" fill-opacity="0.501961" points="64,93 74,105 61,99" />
<rect fill="#c78a4d" fill-opacity="0.501961" x="71" y="125" width="3" height="7" />
<polygon fill="#000000" fill-opacity="0.501961" points="126.924592,152.586758,102.834593,185.000000,145.987025,144.661707,123.701240,133.885328" />
<polygon fill="#1b0c04" fill-opacity="0.501961" points="103.708456,156.047111,135.867448,145.607562,98.063343,167.662164,130.137483,141.667457" />
<g transform="translate(67 153) rotate(175) scale(1 17)"><rect fill="#5a2f01" fill-opacity="0.501961" x="-0.5" y="-0.5" width="1" height="1" /></g>
<g transform="translate(92 169) rotate(350) scale(1 43)"><rect fill="#110400" fill-opacity="0.501961" x="-0.5" y="-0.5" width="1" height="1" /></g>
<ellipse fill="#c69e7b" fill-opacity="0.501961" cx="105" cy="49" rx="2" ry="2" />
<rect fill="#a37b5c" fill-opacity="0.501961" x="98" y="87" width="10" height="3" />
<g transform="translate(120.039442 128.750481) rotate(245.080887) scale(2.325920 3.100480)"><ellipse fill="#644824" fill-opacity="0.501961" cx="0" cy="0" rx="1" ry="1" /></g>
<g transform="translate(105 69) rotate(19) scale(10 1)"><rect fill="#c8d6c0" fill-opacity="0.501961" x="-0.5" y="-0.5" width="1" height="1" /></g>
<g transform="translate(132 82) rotate(140) scale(1 11)"><rect fill="#a9b0bb" fill-opacity="0.501961" x="-0.5" y="-0.5" width="1" height="1" /></g>
<rect fill="#694427" fill-opacity="0.501961" x="47" y="149" width="4" height="6" />
<polygon fill="#875b30" fill-opacity="0.501961" points="84.863005,130.668612,98.753242,152.814813,100.442259,145.835308,67.552456,124.592313" />
<g transform="translate(186 157) rotate(222) scale(34 25)"><rect fill="#181c21" fill-opacity="0.501961" x="-0.5" y="-0.5" width="1" height="1" /></g>
<polygon fill="#33343a" fill-opacity="0.501961" points="117.909030,26.179507,97.064056,21.804247,58.265229,4.402687,91.618429,43.622554" />
<ellipse fill="#baafa1" fill-opacity="0.501961" cx="100" cy="114" rx="2" ry="2" />
<polygon fill="#4e1e00" fill-opacity="0.501961" points="89,159 86,162 93,166" />
<g transform="translate(40.030648 118.716736) rotate(281.089348) scale(16.669038 9.349551)"><ellipse fill="#152020" fill-opacity="0.501961" cx="0" cy="0" rx="1" ry="1" /></g>
<ellipse fill="#7a4b18" fill-opacity="0.501961" cx="97" cy="111" rx="1" ry="9" />
<g transform="translate(122 142) rotate(116) scale(8 1)"><rect fill="#674b29" fill-opacity="0.501961" x="-0.5" y="-0.5" width="1" height="1" /></g>
<g transform="translate(53.449767 165.173131) rotate(247.874523) scale(5.934284 1.567460)"><ellipse fill="#876f56" fill-opacity="0.501961" cx="0" cy="0" rx="1" ry="1" /></g>
<ellipse fill="#c0b7b7" fill-opacity="0.501961" cx="74" cy="165" rx="2" ry="2" />
<ellipse fill="#572b00" fill-opacity="0.501961" cx="78" cy="132" rx="4" ry="4" />
<path stroke="#a96438" stroke-opacity="0.501961" fill="none" d="M 75.462101 59.128924 Q 58.995277 79.301468, 55.106733 97.293002" stroke-width="0.500000" />
<g transform="translate(85 143) rotate(265) scale(3 16)"><rect fill="#be9365" fill-opacity="0.501961" x="-0.5" y="-0.5" width="1" height="1" /></g>
<polygon fill="#a7a3a5" fill-opacity="0.501961" points="124,60 127,49 132,68" />
<g transform="translate(102 156) rotate(300) scale(2 9)"><rect fill="#a4938f" fill-opacity="0.501961" x="-0.5" y="-0.5" width="1" height="1" /></g>
<polygon fill="#976c3f" fill-opacity="0.501961" points="85.718030,98.983904,71.169597,118.414940,59.264567,137.351176,84.355728,96.945563" />
<polygon fill="#1d1208" fill-opacity="0.501961" points="144,74 129,70 134,68" />
<g transform="translate(119 48) rotate(194) scale(5 1)"><rect fill="#9c8982" fill-opacity="0.501961" x="-0.5" y="-0.5" width="1" height="1" /></g>
<g transform="translate(99 162) rotate(380) scale(1 6)"><rect fill="#b4b4be" fill-opacity="0.501961" x="-0.5" y="-0.5" width="1" height="1" /></g>
<g transform="translate(82.728251 65.697126) rotate(57.955826) scale(7.640254 2.770055)"><ellipse fill="#8e5921" fill-opacity="0.501961" cx="0" cy="0" rx="1" ry="1" /></g>
<g transform="translate(55 99) rotate(285) scale(3 6)"><rect fill="#a6744a" fill-opacity="0.501961" x="-0.5" y="-0.5" width="1" height="1" /></g>
<polygon fill="#532b13" fill-opacity="0.501961" points="81.918147,55.459449,81.163207,52.353499,103.540396,45.379311,66.873893,42.286829" />
<polygon fill="#202833" fill-opacity="0.501961" points="175,100 202,84 198,145" />
<g transform="translate(77 133) rotate(379) scale(1 21)"><rect fill="#592f01" fill-opacity="0.501961" x="-0.5" y="-0.5" width="1" height="1" /></g>
<g transform="translate(123.580307 109.720995) rotate(332.999509) scale(4.754570 2.290625)"><ellipse fill="#120e0f" fill-opacity="0.501961" cx="0" cy="0" rx="1" ry="1" /></g>
<polygon fill="#0c1516" fill-opacity="0.501961" points="28,103 43,143 35,181" />
<g transform="translate(131 98) rotate(55) scale(6 1)"><rect fill="#885721" fill-opacity="0.501961" x="-0.5" y="-0.5" width="1" height="1" /></g>
<g transform="translate(73 72) rotate(331) scale(1 21)"><rect fill="#d68d4a" fill-opacity="0.501961" x="-0.5" y="-0.5" width="1" height="1" /></g>
<g transform="translate(101 59) rotate(230) scale(1 11)"><rect fill="#00111f" fill-opacity="0.501961" x="-0.5" y="-0.5" width="1" height="1" /></g>
<polygon fill="#4d474a" fill-opacity="0.501961" points="128.164091,19.480612,97.064917,44.539761,116.425847,38.791562,112.704056,53.924992" />
<ellipse fill="#1e0c04" fill-opacity="0.501961" cx="76" cy="68" rx="3" ry="3" />
<polygon fill="#42270f" fill-opacity="0.501961" points="126.708310,46.070347,125.215364,47.788500,138.274837,76.099489,129.713020,48.896317" />
<polygon fill="#2f1c0e" fill-opacity="0.501961" points="119.602888,60.648064,114.907395,60.524635,98.845868,50.202500,82.336203,38.739223" />
<rect fill="#b7814f" fill-opacity="0.501961" x="79" y="112" width="2" height="12" />
<rect fill="#ac7c48" fill-opacity="0.501961" x="105" y="103" width="9" height="4" />
<g transform="translate(111 119) rotate(291) scale(5 1)"><rect fill="#b3a8b0" fill-opacity="0.501961" x="-0.5" y="-0.5" width="1" height="1" /></g>
<rect fill="#9f7353" fill-opacity="0.501961" x="103" y="129" width="5" height="6" />
<polygon fill="#9d979c" fill-opacity="0.501961" points="96,63 91,65 99,58" />
<polygon fill="#824f28" fill-opacity="0.501961" points="73.000297,105.332767,67.613374,137.063955,68.462884,122.944229,62.697796,101.421283" />
<polygon fill="#b77f58" fill-opacity="0.501961" points="84,160 88,161 80,153" />
<polygon fill="#572e0f" fill-opacity="0.501961" points="104.030850,132.204374,119.621245,133.788798,116.322398,132.186620,108.934679,145.467336" />
<g transform="translate(122 169) rotate(250) scale(1 7)"><rect fill="#595464" fill-opacity="0.501961" x="-0.5" y="-0.5" width="1" height="1" /></g>
<g transform="translate(56 130) rotate(264) scale(14 1)"><rect fill="#fff8e1" fill-opacity="0.501961" x="-0.5" y="-0.5" width="1" height="1" /></g>
</g>
</svg>