<svg xmlns="http://www.w3.org/2000/svg" version="1.1" width="1024" height="572">
<rect x="0" y="0" width="1024" height="572" fill="#948e88" />
<g transform="scale(4.000000) translate(0.5 0.5)">
<polygon fill="#2b1814" fill-opacity="0.501961" points="268,-16 103,102 249,80" />
<polygon fill="#ffd6b7" fill-opacity="0.501961" points="204,148 -6,32 -1,143" />
<polygon fill="#6fcaef" fill-opacity="0.501961" points="175,50 254,-16 -12,24" />
<polygon fill="#2f7a97" fill-opacity="0.501961" points="60,39 -16,2 206,-12" />
<polygon fill="#906a54" fill-opacity="0.501961" points="133,139 35,99 36,28" />
<polygon fill="#fffff6" fill-opacity="0.501961" points="54,112 3,158 -8,78" />
<polygon fill="#986d54" fill-opacity="0.501961" points="127,102 271,47 251,158" />
<polygon fill="#cce2ea" fill-opacity="0.501961" points="256,-16 145,29 160,61" />
<polygon fill="#fff1d7" fill-opacity="0.501961" points="50,108 83,54 93,78" />
<polygon fill="#364244" fill-opacity="0.501961" points="95,80 232,50 127,106" />
<polygon fill="#fff8ea" fill-opacity="0.501961" points="135,105 98,96 150,145" />
<polygon fill="#8e6156" fill-opacity="0.501961" points="27,68 120,39 -16,38" />
<polygon fill="#55504e" fill-opacity="0.501961" points="226,150 159,133 162,108" />
<polygon fill="#fff8e9" fill-opacity="0.501961" points="65,133 53,110 127,136" />
<polygon fill="#ebceb7" fill-opacity="0.501961" points="92,58 120,75 162,59" />
<polygon fill="#443939" fill-opacity="0.501961" points="98,38 142,55 101,58" />
<polygon fill="#ffeed7" fill-opacity="0.501961" points="12,99 39,81 16,61" />
<polygon fill="#47342a" fill-opacity="0.501961" points="43,82 35,102 56,97" />
<polygon fill="#56433b" fill-opacity="0.501961" points="243,140 236,100 271,138" />
<polygon fill="#493937" fill-opacity="0.501961" points="165,69 271,37 219,12" />
<polygon fill="#8e5f44" fill-opacity="0.501961" points="64,147 44,125 21,158" />
<polygon fill="#fdddc8" fill-opacity="0.501961" points="201,112 210,86 198,89" />
<polygon fill="#91c1d5" fill-opacity="0.501961" points="271,-10 169,-7 116,56" />
<polygon fill="#bd7753" fill-opacity="0.501961" points="7,109 15,97 -16,82" />
<polygon fill="#ffdbbe" fill-opacity="0.501961" points="219,119 228,140 234,126" />
<polygon fill="#72a1b4" fill-opacity="0.501961" points="88,39 -16,1 -16,31" />
<polygon fill="#f7daca" fill-opacity="0.501961" points="150,108 165,128 134,105" />
<polygon fill="#ffe0c4" fill-opacity="0.501961" points="115,99 68,55 81,81" />
<polygon fill="#fff3e6" fill-opacity="0.501961" points="93,131 130,158 123,131" />
<polygon fill="#ffebda" fill-opacity="0.501961" points="36,158 24,91 -16,136" />
<polygon fill="#756a61" fill-opacity="0.501961" points="149,113 205,84 134,80" />
<polygon fill="#d8b8a7" fill-opacity="0.501961" points="11,48 50,80 37,50" />
<polygon fill="#477f95" fill-opacity="0.501961" points="-16,-16 141,3 6,26" />
<polygon fill="#ecbea4" fill-opacity="0.501961" points="91,48 101,59 57,78" />
<polygon fill="#eac3a9" fill-opacity="0.501961" points="143,64 177,50 161,38" />
<polygon fill="#9d7659" fill-opacity="0.501961" points="61,108 100,96 80,80" />
<polygon fill="#e8c4af" fill-opacity="0.501961" points="56,53 62,62 39,75" />
<polygon fill="#314244" fill-opacity="0.501961" points="124,104 110,87 156,63" />
<polygon fill="#ffecda" fill-opacity="0.501961" points="110,71 131,74 128,62" />
<polygon fill="#725949" fill-opacity="0.501961" points="46,103 31,98 77,71" />
<polygon fill="#877067" fill-opacity="0.501961" points="189,76 230,102 263,54" />
<polygon fill="#ffffff" fill-opacity="0.501961" points="33,95 38,93 29,84" />
<polygon fill="#6ea1b3" fill-opacity="0.501961" points="204,-16 63,32 151,27" />
<polygon fill="#ffe8d9" fill-opacity="0.501961" points="48,125 47,101 0,128" />
<polygon fill="#75564d" fill-opacity="0.501961" points="47,46 135,54 93,38" />
<polygon fill="#ffe5d5" fill-opacity="0.501961" points="95,88 155,126 122,121" />
<polygon fill="#a18068" fill-opacity="0.501961" points="87,94 47,106 141,138" />
<polygon fill="#46352e" fill-opacity="0.501961" points="48,72 52,77 63,68" />
<polygon fill="#a38671" fill-opacity="0.501961" points="81,60 126,60 99,81" />
<polygon fill="#efc6ac" fill-opacity="0.501961" points="222,103 240,110 223,96" />
<polygon fill="#ffdbc3" fill-opacity="0.501961" points="-14,77 27,69 45,84" />
<polygon fill="#afd4de" fill-opacity="0.501961" points="132,48 170,34 111,38" />
<polygon fill="#fff5e8" fill-opacity="0.501961" points="61,100 82,74 64,85" />
<polygon fill="#7f6b61" fill-opacity="0.501961" points="40,52 74,64 32,63" />
<polygon fill="#f9dbc9" fill-opacity="0.501961" points="170,131 205,152 192,155" />
<polygon fill="#6d6e6c" fill-opacity="0.501961" points="153,46 120,49 135,61" />
<polygon fill="#c1e5f2" fill-opacity="0.501961" points="200,24 162,36 174,52" />
<polygon fill="#a06340" fill-opacity="0.501961" points="31,69 45,87 41,68" />
<polygon fill="#fcd3bf" fill-opacity="0.501961" points="-16,64 20,51 5,66" />
<polygon fill="#4c403f" fill-opacity="0.501961" points="261,20 222,11 180,86" />
<polygon fill="#7a5d50" fill-opacity="0.501961" points="141,114 158,127 150,116" />
<polygon fill="#ac6a45" fill-opacity="0.501961" points="23,83 28,98 34,99" />
<polygon fill="#80a3b1" fill-opacity="0.501961" points="-16,27 27,15 77,40" />
<polygon fill="#5c412c" fill-opacity="0.501961" points="193,124 206,110 197,130" />
<polygon fill="#fcd9c5" fill-opacity="0.501961" points="93,70 93,84 68,58" />
<polygon fill="#bc8b6d" fill-opacity="0.501961" points="59,117 49,149 47,115" />
<polygon fill="#a08c7e" fill-opacity="0.501961" points="164,34 151,55 126,65" />
<polygon fill="#d7bdac" fill-opacity="0.501961" points="143,158 131,106 188,156" />
<polygon fill="#b1e1f7" fill-opacity="0.501961" points="243,-2 236,8 217,-16" />
<polygon fill="#585655" fill-opacity="0.501961" points="152,115 197,146 202,132" />
<polygon fill="#405053" fill-opacity="0.501961" points="115,73 122,103 147,104" />
<polygon fill="#90664c" fill-opacity="0.501961" points="66,104 32,86 47,83" />
<polygon fill="#8e533a" fill-opacity="0.501961" points="21,72 6,64 13,64" />
<polygon fill="#7a5f51" fill-opacity="0.501961" points="72,71 84,71 60,80" />
<polygon fill="#b98f73" fill-opacity="0.501961" points="196,125 169,106 200,89" />
<polygon fill="#5e4f51" fill-opacity="0.501961" points="8,57 -4,51 10,50" />
<polygon fill="#7b564f" fill-opacity="0.501961" points="5,39 38,47 39,35" />
<polygon fill="#f9dcc9" fill-opacity="0.501961" points="164,126 153,112 144,114" />
<polygon fill="#a7786a" fill-opacity="0.501961" points="26,53 32,36 -16,32" />
<polygon fill="#fce3d3" fill-opacity="0.501961" points="69,123 76,131 47,124" />
<polygon fill="#ffebd3" fill-opacity="0.501961" points="49,79 44,67 44,80" />
<polygon fill="#62524c" fill-opacity="0.501961" points="223,82 242,82 231,100" />
<polygon fill="#bd9578" fill-opacity="0.501961" points="93,86 125,130 76,96" />
<polygon fill="#5e4f51" fill-opacity="0.501961" points="25,57 14,56 27,65" />
<polygon fill="#5b4d47" fill-opacity="0.501961" points="218,158 235,133 267,158" />
<polygon fill="#b48767" fill-opacity="0.501961" points="204,131 208,101 232,143" />
<polygon fill="#605d5b" fill-opacity="0.501961" points="185,90 158,57 210,80" />
<polygon fill="#fff3e5" fill-opacity="0.501961" points="22,110 65,115 16,93" />
<polygon fill="#c6a089" fill-opacity="0.501961" points="66,83 54,110 50,98" />
<polygon fill="#655551" fill-opacity="0.501961" points="227,63 256,10 267,54" />
<polygon fill="#f1e1d2" fill-opacity="0.501961" points="58,76 57,85 67,72" />
<polygon fill="#ce8f70" fill-opacity="0.501961" points="-16,76 14,88 -5,56" />
<polygon fill="#fff8ef" fill-opacity="0.501961" points="139,130 111,114 122,110" />
<polygon fill="#d2ad97" fill-opacity="0.501961" points="74,130 32,158 102,135" />
<polygon fill="#6e5747" fill-opacity="0.501961" points="115,125 115,130 98,126" />
<polygon fill="#ab907b" fill-opacity="0.501961" points="135,127 144,158 125,136" />
<polygon fill="#d8b09d" fill-opacity="0.501961" points="33,49 45,43 26,69" />
<polygon fill="#4d4138" fill-opacity="0.501961" points="166,60 164,73 128,73" />
<polygon fill="#5a8998" fill-opacity="0.501961" points="83,27 19,21 146,-5" />
<polygon fill="#dcbead" fill-opacity="0.501961" points="43,63 59,56 55,53" />
<polygon fill="#e8d9ce" fill-opacity="0.501961" points="158,111 156,115 149,112" />
<polygon fill="#6c5c50" fill-opacity="0.501961" points="74,92 54,111 69,105" />
<polygon fill="#534842" fill-opacity="0.501961" points="242,126 252,106 238,110" />
<polygon fill="#524340" fill-opacity="0.501961" points="250,11 186,41 225,63" />
<polygon fill="#a07051" fill-opacity="0.501961" points="53,91 36,87 59,73" />
<polygon fill="#7ca3b0" fill-opacity="0.501961" points="106,38 4,32 57,21" />
<polygon fill="#997666" fill-opacity="0.501961" points="46,65 72,47 109,47" />
<polygon fill="#f7ddcc" fill-opacity="0.501961" points="66,115 101,128 53,136" />
<polygon fill="#a4806c" fill-opacity="0.501961" points="253,128 238,79 271,47" />
<polygon fill="#f1cab8" fill-opacity="0.501961" points="4,54 18,63 -16,68" />
<polygon fill="#997a64" fill-opacity="0.501961" points="160,107 209,140 171,85" />
<polygon fill="#988379" fill-opacity="0.501961" points="243,62 204,82 214,68" />
<polygon fill="#aad1e2" fill-opacity="0.501961" points="253,-4 208,17 241,-12" />
<polygon fill="#fddbc9" fill-opacity="0.501961" points="0,65 44,83 16,83" />
<polygon fill="#90705b" fill-opacity="0.501961" points="95,158 141,158 92,137" />
<polygon fill="#8d7568" fill-opacity="0.501961" points="184,141 164,133 176,142" />
<polygon fill="#4f3d3f" fill-opacity="0.501961" points="27,47 40,46 39,37" />
<polygon fill="#91bdce" fill-opacity="0.501961" points="223,-5 164,38 107,37" />
<polygon fill="#ffe8d8" fill-opacity="0.501961" points="121,74 137,66 118,66" />
<polygon fill="#5c6361" fill-opacity="0.501961" points="90,72 121,102 106,76" />
<polygon fill="#f3d6c4" fill-opacity="0.501961" points="92,84 91,67 70,79" />
<polygon fill="#d6a68a" fill-opacity="0.501961" points="225,96 218,91 225,88" />
<polygon fill="#50494a" fill-opacity="0.501961" points="102,60 120,44 105,47" />
<polygon fill="#9f715a" fill-opacity="0.501961" points="7,65 -16,96 -16,74" />
<polygon fill="#3d3d40" fill-opacity="0.501961" points="54,94 40,103 36,99" />
<polygon fill="#4b4546" fill-opacity="0.501961" points="85,37 89,48 79,47" />
<polygon fill="#554742" fill-opacity="0.501961" points="153,72 264,25 217,16" />
<polygon fill="#ddae93" fill-opacity="0.501961" points="14,110 1,89 18,97" />
<polygon fill="#edd2bc" fill-opacity="0.501961" points="101,57 87,52 89,59" />
<polygon fill="#abd0df" fill-opacity="0.501961" points="149,35 229,4 191,37" />
<polygon fill="#ecd6c8" fill-opacity="0.501961" points="171,158 241,158 161,136" />
<polygon fill="#ffdac6" fill-opacity="0.501961" points="39,65 51,67 43,71" />
<polygon fill="#7f6658" fill-opacity="0.501961" points="263,108 222,97 253,117" />
<polygon fill="#e8c1ac" fill-opacity="0.501961" points="29,63 39,66 22,69" />
<polygon fill="#ddbaab" fill-opacity="0.501961" points="-16,59 11,45 -16,45" />
<polygon fill="#bfc7cc" fill-opacity="0.501961" points="24,29 39,24 22,25" />
<polygon fill="#bd8868" fill-opacity="0.501961" points="66,118 50,123 54,116" />
<polygon fill="#d69b85" fill-opacity="0.501961" points="46,37 45,49 41,41" />
<polygon fill="#ad9680" fill-opacity="0.501961" points="148,130 180,158 153,152" />
<polygon fill="#907562" fill-opacity="0.501961" points="75,85 83,119 73,116" />
<polygon fill="#bda492" fill-opacity="0.501961" points="156,64 153,56 170,52" />
<polygon fill="#c28d76" fill-opacity="0.501961" points="90,47 99,55 94,39" />
<polygon fill="#ffe0cc" fill-opacity="0.501961" points="173,130 168,132 174,134" />
<polygon fill="#679bad" fill-opacity="0.501961" points="78,36 152,-16 175,3" />
<polygon fill="#cca090" fill-opacity="0.501961" points="16,38 18,46 1,30" />
<polygon fill="#816553" fill-opacity="0.501961" points="74,65 62,63 51,77" />
<polygon fill="#e2c9b7" fill-opacity="0.501961" points="152,150 138,150 136,105" />
<polygon fill="#777670" fill-opacity="0.501961" points="133,97 143,83 160,81" />
<polygon fill="#f5d7c3" fill-opacity="0.501961" points="67,109 64,125 61,112" />
<polygon fill="#477b8d" fill-opacity="0.501961" points="111,-7 68,21 11,-1" />
<polygon fill="#efd3c4" fill-opacity="0.501961" points="28,56 13,49 19,57" />
<polygon fill="#f7ddcd" fill-opacity="0.501961" points="24,155 39,126 14,93" />
<polygon fill="#f7d0ba" fill-opacity="0.501961" points="2,92 -8,92 10,62" />
<polygon fill="#756861" fill-opacity="0.501961" points="163,111 172,94 145,111" />
<polygon fill="#645d5c" fill-opacity="0.501961" points="34,55 56,48 49,58" />
<polygon fill="#f5e1d4" fill-opacity="0.501961" points="124,132 120,146 98,129" />
<polygon fill="#fbd7c1" fill-opacity="0.501961" points="165,45 154,43 161,56" />
<polygon fill="#5a5653" fill-opacity="0.501961" points="170,123 159,132 191,126" />
<polygon fill="#a27b63" fill-opacity="0.501961" points="198,100 248,137 230,108" />
<polygon fill="#5f4c4a" fill-opacity="0.501961" points="19,47 27,45 26,34" />
<polygon fill="#664e41" fill-opacity="0.501961" points="154,99 177,83 158,82" />
<polygon fill="#d2b29c" fill-opacity="0.501961" points="61,62 60,51 52,67" />
<polygon fill="#4f4241" fill-opacity="0.501961" points="222,64 210,20 238,6" />
<polygon fill="#e9d1c1" fill-opacity="0.501961" points="197,94 204,92 208,102" />
<polygon fill="#876755" fill-opacity="0.501961" points="147,120 139,109 144,110" />
<polygon fill="#3d3936" fill-opacity="0.501961" points="152,62 157,77 172,76" />
<polygon fill="#fffff2" fill-opacity="0.501961" points="38,94 32,93 27,81" />
<polygon fill="#fbcaae" fill-opacity="0.501961" points="42,82 50,78 42,72" />
<polygon fill="#b58d75" fill-opacity="0.501961" points="56,127 30,126 54,137" />
<polygon fill="#ffdac2" fill-opacity="0.501961" points="81,96 77,94 82,93" />
<polygon fill="#fff0e1" fill-opacity="0.501961" points="73,91 65,98 71,80" />
<polygon fill="#cfae98" fill-opacity="0.501961" points="45,143 87,132 61,131" />
<polygon fill="#654b3f" fill-opacity="0.501961" points="46,94 34,87 42,84" />
<polygon fill="#4a555b" fill-opacity="0.501961" points="179,131 158,119 162,114" />
<polygon fill="#896953" fill-opacity="0.501961" points="114,129 124,123 124,132" />
<polygon fill="#9d8575" fill-opacity="0.501961" points="162,93 187,90 176,85" />
<polygon fill="#eedfd3" fill-opacity="0.501961" points="165,127 163,123 156,121" />
<polygon fill="#4e3c3a" fill-opacity="0.501961" points="69,46 82,52 70,42" />
<polygon fill="#b18f77" fill-opacity="0.501961" points="112,110 87,83 108,126" />
<polygon fill="#465a5b" fill-opacity="0.501961" points="130,83 117,73 108,90" />
<polygon fill="#666e6f" fill-opacity="0.501961" points="145,46 112,54 137,59" />
<polygon fill="#645e59" fill-opacity="0.501961" points="59,58 73,56 67,52" />
<polygon fill="#4d403e" fill-opacity="0.501961" points="247,19 259,1 242,1" />
<polygon fill="#fbe9d9" fill-opacity="0.501961" points="118,59 119,57 124,58" />
<polygon fill="#a07a6b" fill-opacity="0.501961" points="47,38 83,64 65,40" />
<polygon fill="#c7a185" fill-opacity="0.501961" points="133,130 107,111 108,122" />
<polygon fill="#a4745c" fill-opacity="0.501961" points="22,74 15,66 7,65" />
<polygon fill="#836c5d" fill-opacity="0.501961" points="52,109 76,92 62,111" />
<polygon fill="#453436" fill-opacity="0.501961" points="51,41 48,48 46,41" />
<polygon fill="#845b50" fill-opacity="0.501961" points="-16,29 -16,16 16,44" />
<polygon fill="#f5d5c4" fill-opacity="0.501961" points="29,60 36,54 27,56" />
<polygon fill="#95887a" fill-opacity="0.501961" points="145,68 134,60 150,65" />
<polygon fill="#b1d2dc" fill-opacity="0.501961" points="122,46 159,36 147,46" />
<polygon fill="#fbddca" fill-opacity="0.501961" points="22,67 38,95 16,78" />
<polygon fill="#dca98c" fill-opacity="0.501961" points="14,76 27,85 25,90" />
<polygon fill="#ebdace" fill-opacity="0.501961" points="146,107 139,105 145,110" />
<polygon fill="#edd0be" fill-opacity="0.501961" points="27,129 44,126 57,100" />
<polygon fill="#7f665a" fill-opacity="0.501961" points="50,65 38,65 57,58" />
<polygon fill="#e6c2ac" fill-opacity="0.501961" points="227,125 234,131 229,138" />
<polygon fill="#e1c0ad" fill-opacity="0.501961" points="9,65 16,51 -11,66" />
<polygon fill="#6a96a8" fill-opacity="0.501961" points="-16,27 10,-3 27,35" />
<polygon fill="#745c55" fill-opacity="0.501961" points="99,39 121,57 113,40" />
<polygon fill="#4f4842" fill-opacity="0.501961" points="210,72 186,42 165,61" />
<polygon fill="#675146" fill-opacity="0.501961" points="162,131 166,128 175,139" />
<polygon fill="#614b40" fill-opacity="0.501961" points="57,75 47,75 53,68" />
<polygon fill="#b18e77" fill-opacity="0.501961" points="220,100 242,112 201,103" />
<polygon fill="#938379" fill-opacity="0.501961" points="124,75 133,80 131,70" />
<polygon fill="#ad9285" fill-opacity="0.501961" points="241,93 260,54 271,71" />
<polygon fill="#f9d7bf" fill-opacity="0.501961" points="90,83 103,101 119,103" />
<polygon fill="#9c7b65" fill-opacity="0.501961" points="36,135 25,158 60,140" />
<polygon fill="#fff7ec" fill-opacity="0.501961" points="-16,80 -5,90 18,90" />
<polygon fill="#ffe2cd" fill-opacity="0.501961" points="70,57 69,61 79,67" />
<polygon fill="#444040" fill-opacity="0.501961" points="262,41 239,61 271,47" />
<polygon fill="#a38671" fill-opacity="0.501961" points="87,72 114,79 108,69" />
<polygon fill="#a0c8d9" fill-opacity="0.501961" points="229,10 203,13 241,-6" />
<polygon fill="#7f6556" fill-opacity="0.501961" points="209,97 234,124 219,116" />
<polygon fill="#625a52" fill-opacity="0.501961" points="57,88 60,80 68,75" />
<polygon fill="#5a4c4c" fill-opacity="0.501961" points="4,54 -3,52 11,51" />
<polygon fill="#524e4a" fill-opacity="0.501961" points="121,92 134,97 140,108" />
<polygon fill="#41393a" fill-opacity="0.501961" points="234,49 224,63 188,63" />
<polygon fill="#725243" fill-opacity="0.501961" points="249,58 221,86 244,73" />
<polygon fill="#ffe8d7" fill-opacity="0.501961" points="65,74 58,80 60,73" />
<polygon fill="#7f7471" fill-opacity="0.501961" points="235,53 227,60 240,63" />
<polygon fill="#fdf4eb" fill-opacity="0.501961" points="33,125 50,124 29,119" />
<polygon fill="#c18f71" fill-opacity="0.501961" points="8,93 4,104 12,109" />
<polygon fill="#87817a" fill-opacity="0.501961" points="101,60 110,68 118,65" />
<polygon fill="#f9e0cf" fill-opacity="0.501961" points="131,119 137,106 112,105" />
<polygon fill="#bfa28f" fill-opacity="0.501961" points="174,50 163,59 165,48" />
<polygon fill="#876b58" fill-opacity="0.501961" points="177,123 225,136 210,145" />
<polygon fill="#9a6c51" fill-opacity="0.501961" points="34,77 34,68 44,76" />
<polygon fill="#9c7962" fill-opacity="0.501961" points="72,64 65,76 65,62" />
<polygon fill="#554d4c" fill-opacity="0.501961" points="97,55 117,45 115,57" />
<polygon fill="#91857d" fill-opacity="0.501961" points="125,47 112,57 122,57" />
<polygon fill="#403b3f" fill-opacity="0.501961" points="74,39 69,45 76,42" />
<polygon fill="#fdede1" fill-opacity="0.501961" points="91,124 107,133 71,128" />
<polygon fill="#aa846a" fill-opacity="0.501961" points="106,91 100,89 97,84" />
<polygon fill="#e7d8ca" fill-opacity="0.501961" points="95,56 104,66 100,58" />
<polygon fill="#c7a691" fill-opacity="0.501961" points="231,126 240,127 235,121" />
<polygon fill="#6c6765" fill-opacity="0.501961" points="207,81 184,80 177,100" />
<polygon fill="#866e62" fill-opacity="0.501961" points="209,63 231,75 211,101" />
<polygon fill="#d7cbbe" fill-opacity="0.501961" points="152,56 150,65 141,59" />
<polygon fill="#907465" fill-opacity="0.501961" points="232,136 252,133 233,123" />
<polygon fill="#95664b" fill-opacity="0.501961" points="7,82 3,85 12,84" />
<polygon fill="#f2dac7" fill-opacity="0.501961" points="91,86 93,68 84,84" />
<polygon fill="#dec4b5" fill-opacity="0.501961" points="137,110 127,132 147,121" />
<polygon fill="#e4c9b6" fill-opacity="0.501961" points="56,127 67,123 76,151" />
<polygon fill="#9e836e" fill-opacity="0.501961" points="157,109 151,91 146,103" />
<polygon fill="#c0dfe9" fill-opacity="0.501961" points="164,41 171,50 204,27" />
<polygon fill="#ffefe2" fill-opacity="0.501961" points="25,94 29,107 6,87" />
<polygon fill="#548497" fill-opacity="0.501961" points="78,28 38,6 -9,13" />
<polygon fill="#85675d" fill-opacity="0.501961" points="238,7 241,15 248,8" />
<polygon fill="#535a5e" fill-opacity="0.501961" points="157,115 164,124 163,113" />
<polygon fill="#96897f" fill-opacity="0.501961" points="140,51 155,42 152,56" />
<polygon fill="#a28e7e" fill-opacity="0.501961" points="96,61 104,57 114,62" />
<polygon fill="#353436" fill-opacity="0.501961" points="196,72 194,62 178,70" />
<polygon fill="#dfc8b9" fill-opacity="0.501961" points="190,157 162,132 157,158" />
<polygon fill="#604e42" fill-opacity="0.501961" points="193,133 204,115 193,125" />
<polygon fill="#a07a60" fill-opacity="0.501961" points="100,95 74,88 90,87" />
<polygon fill="#7da2b2" fill-opacity="0.501961" points="-13,16 33,31 16,36" />
<polygon fill="#7c665f" fill-opacity="0.501961" points="15,59 30,60 26,64" />
<polygon fill="#edc7b2" fill-opacity="0.501961" points="-16,121 11,123 -4,134" />
<polygon fill="#bd9383" fill-opacity="0.501961" points="23,52 38,50 12,45" />
<polygon fill="#fdecdf" fill-opacity="0.501961" points="10,123 37,118 -3,157" />
<polygon fill="#c38e7b" fill-opacity="0.501961" points="-1,48 -8,35 6,36" />
<polygon fill="#7896a3" fill-opacity="0.501961" points="39,-7 59,-16 66,5" />
<polygon fill="#f8d0b8" fill-opacity="0.501961" points="55,62 45,74 47,67" />
<polygon fill="#765a4e" fill-opacity="0.501961" points="211,67 202,77 179,79" />
<polygon fill="#574b47" fill-opacity="0.501961" points="49,98 29,100 50,92" />
<polygon fill="#825f4e" fill-opacity="0.501961" points="232,98 236,84 250,74" />
<polygon fill="#4c5a5b" fill-opacity="0.501961" points="111,95 108,84 134,73" />
<polygon fill="#a38c7a" fill-opacity="0.501961" points="124,137 133,144 124,123" />
<polygon fill="#67544a" fill-opacity="0.501961" points="213,30 185,53 206,46" />
<polygon fill="#65534a" fill-opacity="0.501961" points="264,136 254,127 234,144" />
<polygon fill="#6d5548" fill-opacity="0.501961" points="155,123 161,128 156,126" />
<polygon fill="#a17659" fill-opacity="0.501961" points="40,87 61,96 50,79" />
<polygon fill="#b4896b" fill-opacity="0.501961" points="77,104 80,90 64,110" />
<polygon fill="#554944" fill-opacity="0.501961" points="47,93 41,90 42,104" />
<polygon fill="#755952" fill-opacity="0.501961" points="38,45 33,49 36,50" />
<polygon fill="#af8f7c" fill-opacity="0.501961" points="191,93 171,117 200,99" />
<polygon fill="#e6d3c5" fill-opacity="0.501961" points="160,129 151,126 151,132" />
<polygon fill="#76a1af" fill-opacity="0.501961" points="81,23 102,39 30,33" />
<polygon fill="#f0dfd2" fill-opacity="0.501961" points="111,69 123,75 124,69" />
<polygon fill="#f7cdb6" fill-opacity="0.501961" points="11,115 -10,109 -10,88" />
<polygon fill="#857468" fill-opacity="0.501961" points="106,123 91,122 108,129" />
<polygon fill="#a68c80" fill-opacity="0.501961" points="228,72 236,72 226,77" />
<polygon fill="#b68a6d" fill-opacity="0.501961" points="225,94 205,111 207,121" />
<polygon fill="#b68f7b" fill-opacity="0.501961" points="89,48 95,42 89,62" />
<polygon fill="#dab097" fill-opacity="0.501961" points="234,104 229,103 237,115" />
<polygon fill="#c49f8a" fill-opacity="0.501961" points="57,68 53,72 58,61" />
<polygon fill="#f9eade" fill-opacity="0.501961" points="126,106 136,129 115,117" />
<polygon fill="#565553" fill-opacity="0.501961" points="181,87 190,59 162,64" />
<polygon fill="#525453" fill-opacity="0.501961" points="151,91 136,104 121,102" />
<polygon fill="#82b1c3" fill-opacity="0.501961" points="165,25 112,33 203,-7" />
<polygon fill="#bb8d7b" fill-opacity="0.501961" points="49,38 43,47 43,36" />
<polygon fill="#c1efff" fill-opacity="0.501961" points="261,-16 217,-7 248,0" />
<polygon fill="#bc9476" fill-opacity="0.501961" points="201,102 192,121 185,117" />
<polygon fill="#eddccc" fill-opacity="0.501961" points="147,136 142,158 139,129" />
<polygon fill="#fffaf1" fill-opacity="0.501961" points="9,118 -6,112 -16,131" />
<polygon fill="#6f5e52" fill-opacity="0.501961" points="63,56 59,57 69,62" />
<polygon fill="#f7d9c7" fill-opacity="0.501961" points="77,62 80,59 88,59" />
</g>
</svg>