<svg height="680" width="1024" xmlns="http://www.w3.org/2000/svg"><path d="m0 0h1024v680h-1024z" fill="#553d17"/><g fill-opacity=".501961" stroke-width="4"><ellipse cx="618" cy="458" fill="#eca639" rx="176" ry="176"/><ellipse cx="582" cy="154" fill="#ffb737" rx="140" ry="140"/><ellipse cx="974" cy="246" fill="#000004" rx="284" ry="284"/><ellipse cx="990" cy="582" fill="#e2fbff" rx="84" ry="84"/><ellipse cx="210" cy="362" rx="300" ry="300"/><ellipse cx="518" cy="678" fill="#ffb737" rx="156" ry="156"/><ellipse cx="662" cy="322" fill="#eaad41" rx="112" ry="112"/><ellipse cx="870" cy="418" rx="136" ry="136"/><ellipse cx="434" cy="2" fill="#f08a0e" rx="128" ry="128"/><ellipse cx="778" cy="570" fill="#d9e3ec" rx="44" ry="44"/><ellipse cx="906" cy="254" rx="168" ry="168"/><ellipse cx="82" cy="2" fill="#f5850d" rx="88" ry="88"/><ellipse cx="238" cy="2" fill="#f78a0f" rx="72" ry="72"/><ellipse cx="34" cy="678" fill="#ffcd39" rx="52" ry="52"/><ellipse cx="206" cy="358" fill="#271300" rx="312" ry="312"/><ellipse cx="366" cy="678" fill="#ffca54" rx="60" ry="60"/><ellipse cx="906" cy="582" fill="#a5aeae" rx="48" ry="48"/><ellipse cx="794" cy="466" fill="#000603" rx="76" ry="76"/><ellipse cx="570" cy="114" fill="#e6ab44" rx="84" ry="84"/><ellipse cx="678" cy="66" fill="#000012" rx="32" ry="32"/><ellipse cx="194" cy="362" fill="#000809" rx="116" ry="116"/><ellipse cx="718" cy="250" fill="#ffc553" rx="32" ry="32"/><ellipse cx="258" cy="678" fill="#ffa11e" rx="36" ry="36"/><ellipse cx="550" cy="546" fill="#e4b561" rx="60" ry="60"/><ellipse cx="854" cy="678" fill="#3f4447" rx="100" ry="100"/><ellipse cx="758" cy="354" fill="#ffb62e" rx="24" ry="24"/><ellipse cx="686" cy="614" fill="#00000d" rx="28" ry="28"/><ellipse cx="538" cy="214" fill="#9c4f00" rx="68" ry="68"/><ellipse cx="742" cy="298" fill="#000009" rx="28" ry="28"/><ellipse cx="958" cy="210" fill="#000103" rx="164" ry="164"/><ellipse cx="322" cy="138" fill="#5d2c05" rx="96" ry="96"/><ellipse cx="602" cy="370" fill="#d29232" rx="100" ry="100"/><ellipse cx="714" cy="578" fill="#bfc4ce" rx="24" ry="24"/><ellipse cx="810" cy="566" fill="#afb1a7" rx="36" ry="36"/><ellipse cx="662" cy="122" fill="#f8ce82" rx="32" ry="32"/><ellipse cx="786" cy="2" fill="#212c2e" rx="124" ry="124"/><ellipse cx="554" cy="654" fill="#9e5200" rx="60" ry="60"/><ellipse cx="690" cy="186" fill="#13100d" rx="28" ry="28"/><ellipse cx="702" cy="678" fill="#a8a796" rx="32" ry="32"/><ellipse cx="674" cy="502" fill="#9e5a00" rx="68" ry="68"/><ellipse cx="1022" cy="586" fill="#a2a4a0" rx="100" ry="100"/><ellipse cx="446" cy="646" fill="#f4b041" rx="44" ry="44"/><ellipse cx="2" cy="38" fill="#c86f0e" rx="68" ry="68"/><ellipse cx="118" cy="158" fill="#492606" rx="108" ry="108"/><ellipse cx="162" cy="2" fill="#e29527" rx="52" ry="52"/><ellipse cx="342" cy="550" fill="#1a0e00" rx="88" ry="88"/><ellipse cx="526" cy="398" fill="#5b1700" rx="24" ry="24"/><ellipse cx="634" cy="38" fill="#e3a331" rx="28" ry="28"/><ellipse cx="210" cy="678" fill="#ffb429" rx="20" ry="20"/><ellipse cx="470" cy="134" fill="#c27310" rx="56" ry="56"/><ellipse cx="982" cy="678" fill="#696451" rx="52" ry="52"/><ellipse cx="586" cy="382" fill="#a45d00" rx="44" ry="44"/><ellipse cx="766" cy="638" fill="#201e18" rx="40" ry="40"/><ellipse cx="98" cy="678" fill="#ff9b1a" rx="24" ry="24"/><ellipse cx="582" cy="10" fill="#00000d" rx="20" ry="20"/><ellipse cx="330" cy="678" fill="#ffb43e" rx="36" ry="36"/><ellipse cx="726" cy="450" fill="#001" rx="20" ry="20"/><ellipse cx="978" cy="594" fill="#c1c4c5" rx="44" ry="44"/><ellipse cx="626" cy="434" fill="#ecc46d" rx="28" ry="28"/><ellipse cx="94" cy="590" fill="#0a0800" rx="64" ry="64"/><ellipse cx="2" cy="674" fill="#f8a53c" rx="52" ry="52"/><ellipse cx="654" cy="658" fill="#e8af42" rx="28" ry="28"/><ellipse cx="578" cy="438" fill="#f4c975" rx="24" ry="24"/><ellipse cx="522" cy="274" fill="#5e1f00" rx="28" ry="28"/><ellipse cx="718" cy="514" fill="#be8319" rx="40" ry="40"/><ellipse cx="682" cy="582" fill="#baa792" rx="20" ry="20"/><ellipse cx="642" cy="286" fill="#d9ad5b" rx="48" ry="48"/><ellipse cx="946" cy="510" fill="#292e1f" rx="32" ry="32"/><ellipse cx="738" cy="250" fill="#dca139" rx="20" ry="20"/><ellipse cx="290" cy="6" fill="#c26f10" rx="60" ry="60"/><ellipse cx="414" cy="426" fill="#100c02" rx="76" ry="76"/><ellipse cx="706" cy="626" fill="#222119" rx="36" ry="36"/><ellipse cx="550" cy="338" fill="#cf8c21" rx="52" ry="52"/><ellipse cx="238" cy="598" fill="#0e0b01" rx="64" ry="64"/><ellipse cx="714" cy="354" fill="#d5992e" rx="40" ry="40"/><ellipse cx="590" cy="550" fill="#e5cca2" rx="24" ry="24"/><ellipse cx="514" cy="530" fill="#d89a33" rx="56" ry="56"/><ellipse cx="150" cy="678" fill="#e0770b" rx="20" ry="20"/><ellipse cx="758" cy="558" fill="#acb8bf" rx="28" ry="28"/><ellipse cx="642" cy="558" fill="#633602" rx="24" ry="24"/><ellipse cx="670" cy="422" fill="#e5be6c" rx="28" ry="28"/><ellipse cx="546" cy="62" fill="#debc7d" rx="28" ry="28"/><ellipse cx="570" cy="190" fill="#d7a033" rx="36" ry="36"/><ellipse cx="834" cy="434" fill="#040905" rx="92" ry="92"/><ellipse cx="594" cy="222" fill="#a25d00" rx="40" ry="40"/><ellipse cx="714" cy="298" fill="#00060f" rx="16" ry="16"/><ellipse cx="530" cy="2" fill="#d89e29" rx="36" ry="36"/><ellipse cx="534" cy="434" fill="#fcc45b" rx="20" ry="20"/><ellipse cx="262" cy="490" fill="#50350d" rx="40" ry="40"/><ellipse cx="614" cy="490" fill="#984e00" rx="36" ry="36"/><ellipse cx="910" cy="574" fill="#a9ab9f" rx="32" ry="32"/><ellipse cx="658" cy="358" fill="#b97c12" rx="44" ry="44"/><ellipse cx="646" cy="82" rx="8" ry="8"/><ellipse cx="774" cy="170" fill="#0e1511" rx="72" ry="72"/><ellipse cx="590" cy="34" fill="#fddb9f" rx="12" ry="12"/><ellipse cx="438" cy="562" fill="#651e00" rx="24" ry="24"/><ellipse cx="706" cy="390" fill="#e6c88c" rx="20" ry="20"/><ellipse cx="658" cy="594" fill="#5a4127" rx="20" ry="20"/><ellipse cx="662" cy="158" fill="#c58111" rx="32" ry="32"/><ellipse cx="2" cy="522" fill="#010600" rx="64" ry="64"/><ellipse cx="570" cy="406" fill="#8b4200" rx="24" ry="24"/><ellipse cx="678" cy="70" fill="#070e0d" rx="24" ry="24"/><ellipse cx="682" cy="234" fill="#deb875" rx="24" ry="24"/><ellipse cx="478" cy="330" fill="#4b2203" rx="36" ry="36"/><ellipse cx="510" cy="458" fill="#842f00" rx="20" ry="20"/><ellipse cx="702" cy="110" fill="#f5c15f" rx="16" ry="16"/><ellipse cx="726" cy="678" fill="#7a7b75" rx="32" ry="32"/><ellipse cx="642" cy="198" fill="#944d00" rx="24" ry="24"/><ellipse cx="474" cy="206" fill="#3d0f00" rx="20" ry="20"/><ellipse cx="590" cy="298" fill="#ecd09b" rx="16" ry="16"/><ellipse cx="822" cy="618" fill="#232012" rx="28" ry="28"/><ellipse cx="178" cy="510" fill="#442d0a" rx="48" ry="48"/><ellipse cx="454" cy="38" fill="#c3770f" rx="48" ry="48"/><ellipse cx="622" cy="150" fill="#daac57" rx="32" ry="32"/><ellipse cx="682" cy="274" fill="#c38212" rx="28" ry="28"/><ellipse cx="630" cy="2" fill="#00000b" rx="16" ry="16"/><ellipse cx="862" cy="574" fill="#727060" rx="32" ry="32"/><ellipse cx="1022" cy="26" fill="#46514a" rx="28" ry="28"/><ellipse cx="578" cy="478" fill="#964800" rx="24" ry="24"/><ellipse cx="806" cy="2" fill="#3d3a2f" rx="80" ry="80"/><ellipse cx="730" cy="182" fill="#2b2b25" rx="40" ry="40"/><ellipse cx="370" cy="190" fill="#3d1f06" rx="76" ry="76"/><ellipse cx="982" cy="494" fill="#5a5a48" rx="16" ry="16"/><ellipse cx="410" cy="678" fill="#e2bb7a" rx="32" ry="32"/><ellipse cx="562" cy="26" fill="#000005" rx="8" ry="8"/><ellipse cx="790" cy="294" fill="#0d140c" rx="52" ry="52"/><ellipse cx="350" cy="2" fill="#a45906" rx="76" ry="76"/><ellipse cx="710" cy="454" fill="#171a0c" rx="16" ry="16"/><ellipse cx="814" cy="146" fill="#060802" rx="64" ry="64"/><ellipse cx="194" cy="410" fill="#030903" rx="76" ry="76"/><ellipse cx="494" cy="562" fill="#e2b86d" rx="24" ry="24"/><ellipse cx="578" cy="518" fill="#f1cd8a" rx="16" ry="16"/><ellipse cx="238" cy="2" fill="#d89129" rx="36" ry="36"/><ellipse cx="622" cy="298" fill="#e7cb9d" rx="16" ry="16"/><ellipse cx="594" cy="2" fill="#000307" rx="20" ry="20"/><ellipse cx="626" cy="46" fill="#c68c2a" rx="32" ry="32"/><ellipse cx="90" cy="470" fill="#52340a" rx="32" ry="32"/><ellipse cx="758" cy="530" fill="#313c41" rx="16" ry="16"/><ellipse cx="950" cy="26" fill="#0c1b19" rx="56" ry="56"/><ellipse cx="510" cy="426" fill="#d9881a" rx="16" ry="16"/><ellipse cx="646" cy="34" fill="#cd9127" rx="20" ry="20"/><ellipse cx="694" cy="302" fill="#000514" rx="8" ry="8"/><ellipse cx="714" cy="410" fill="#d29d3f" rx="28" ry="28"/><ellipse cx="334" cy="630" fill="#6d2a00" rx="20" ry="20"/><ellipse cx="550" cy="678" fill="#aa6800" rx="76" ry="76"/><ellipse cx="270" cy="678" fill="#d99022" rx="28" ry="28"/><ellipse cx="410" cy="614" fill="#af5700" rx="20" ry="20"/><ellipse cx="306" cy="442" fill="#452e0c" rx="36" ry="36"/><ellipse cx="550" cy="142" fill="#b76e02" rx="24" ry="24"/><ellipse cx="498" cy="386" fill="#3d1600" rx="24" ry="24"/><ellipse cx="470" cy="502" fill="#4f1500" rx="16" ry="16"/><ellipse cx="2" cy="62" fill="#a95c0c" rx="52" ry="52"/><ellipse cx="266" cy="270" fill="#1e1a0a" rx="108" ry="108"/><ellipse cx="226" cy="86" fill="#4e2606" rx="36" ry="36"/><ellipse cx="294" cy="654" fill="#873a00" rx="16" ry="16"/><ellipse cx="374" cy="630" fill="#d17409" rx="16" ry="16"/><ellipse cx="902" cy="678" fill="#595142" rx="64" ry="64"/><ellipse cx="746" cy="502" fill="#c57907" rx="16" ry="16"/><ellipse cx="666" cy="578" fill="#bba079" rx="16" ry="16"/><ellipse cx="742" cy="594" fill="#ad7b3f" rx="16" ry="16"/><ellipse cx="678" cy="198" fill="#251e0f" rx="16" ry="16"/><ellipse cx="562" cy="258" fill="#7f4100" rx="24" ry="24"/><ellipse cx="666" cy="306" fill="#e6d0ab" rx="12" ry="12"/><ellipse cx="614" cy="394" fill="#ab6706" rx="28" ry="28"/><ellipse cx="662" cy="610" fill="#0e1208" rx="12" ry="12"/><ellipse cx="198" cy="678" fill="#b76410" rx="28" ry="28"/><ellipse cx="662" cy="506" fill="#a16201" rx="64" ry="64"/><ellipse cx="614" cy="346" fill="#cd952c" rx="40" ry="40"/><ellipse cx="762" cy="354" fill="#db9826" rx="16" ry="16"/><ellipse cx="982" cy="234" fill="#020603" rx="168" ry="168"/><ellipse cx="522" cy="222" fill="#b8730f" rx="36" ry="36"/><ellipse cx="458" cy="530" fill="#d0780e" rx="12" ry="12"/><ellipse cx="782" cy="570" fill="#c8c2b6" rx="24" ry="24"/><ellipse cx="634" cy="574" fill="#3e2d1b" rx="12" ry="12"/><ellipse cx="602" cy="30" fill="#e8c382" rx="12" ry="12"/><ellipse cx="782" cy="602" fill="#a26820" rx="16" ry="16"/><ellipse cx="690" cy="314" fill="#f5e8d0" rx="8" ry="8"/><ellipse cx="50" cy="418" fill="#50320a" rx="28" ry="28"/><ellipse cx="742" cy="570" fill="#bcbdb8" rx="20" ry="20"/><ellipse cx="706" cy="514" fill="#c68c25" rx="24" ry="24"/><ellipse cx="530" cy="334" fill="#9e5500" rx="20" ry="20"/><ellipse cx="638" cy="630" fill="#d7a649" rx="24" ry="24"/><ellipse cx="1006" cy="534" fill="#b7bab8" rx="24" ry="24"/><ellipse cx="70" cy="638" fill="#6e2a00" rx="20" ry="20"/><ellipse cx="574" cy="170" fill="#dcaf57" rx="20" ry="20"/><ellipse cx="466" cy="582" fill="#a34c00" rx="16" ry="16"/><ellipse cx="566" cy="42" fill="#e7cda3" rx="12" ry="12"/><ellipse cx="442" cy="110" fill="#ae640e" rx="40" ry="40"/><ellipse cx="746" cy="254" fill="#d79c37" rx="12" ry="12"/><ellipse cx="846" cy="438" fill="#0b0d07" rx="104" ry="104"/><ellipse cx="738" cy="450" fill="#121a14" rx="24" ry="24"/><ellipse cx="566" cy="302" fill="#edca85" rx="12" ry="12"/><ellipse cx="654" cy="2" fill="#00070d" rx="16" ry="16"/><ellipse cx="646" cy="302" fill="#e7d0ab" rx="12" ry="12"/><ellipse cx="662" cy="182" fill="#9a5600" rx="16" ry="16"/><ellipse cx="10" cy="626" fill="#984500" rx="20" ry="20"/><ellipse cx="982" cy="430" fill="#10160a" rx="56" ry="56"/><ellipse cx="654" cy="114" fill="#d9b16a" rx="28" ry="28"/><ellipse cx="802" cy="534" fill="#474431" rx="12" ry="12"/><ellipse cx="702" cy="234" fill="#d9b16a" rx="20" ry="20"/><ellipse cx="174" cy="594" fill="#0d0c02" rx="52" ry="52"/><ellipse cx="562" cy="438" fill="#e8bb69" rx="20" ry="20"/><ellipse cx="614" cy="54" fill="#b57711" rx="24" ry="24"/><ellipse cx="706" cy="594" fill="#a46f2e" rx="16" ry="16"/><ellipse cx="598" cy="570" fill="#d8b26f" rx="24" ry="24"/><ellipse cx="326" cy="554" fill="#0d0e04" rx="56" ry="56"/><ellipse cx="446" cy="606" fill="#d78f1e" rx="28" ry="28"/><ellipse cx="498" cy="270" fill="#1f0e00" rx="16" ry="16"/><ellipse cx="746" cy="298" fill="#151a14" rx="28" ry="28"/><ellipse cx="74" cy="54" fill="#a05508" rx="28" ry="28"/><ellipse cx="742" cy="354" fill="#ca8e25" rx="28" ry="28"/><ellipse cx="762" cy="398" fill="#10140b" rx="24" ry="24"/><ellipse cx="542" cy="470" fill="#9c4700" rx="16" ry="16"/><ellipse cx="514" cy="310" fill="#d38016" rx="12" ry="12"/><ellipse cx="214" cy="678" fill="#f7c149" rx="12" ry="12"/><ellipse cx="926" cy="542" fill="#686551" rx="12" ry="12"/><ellipse cx="706" cy="574" fill="#bdbbb3" rx="16" ry="16"/><ellipse cx="94" cy="654" fill="#813901" rx="16" ry="16"/><ellipse cx="90" cy="134" fill="#532908" rx="36" ry="36"/><ellipse cx="70" cy="678" fill="#dc8e21" rx="28" ry="28"/><ellipse cx="498" cy="198" fill="#692900" rx="12" ry="12"/><ellipse cx="186" cy="38" fill="#a95b0a" rx="20" ry="20"/><ellipse cx="334" cy="382" fill="#432c0b" rx="28" ry="28"/><ellipse cx="574" cy="126" fill="#bb7707" rx="20" ry="20"/><ellipse cx="474" cy="166" fill="#d28b21" rx="24" ry="24"/><ellipse cx="542" cy="98" fill="#d49d39" rx="32" ry="32"/><ellipse cx="734" cy="634" fill="#29261e" rx="32" ry="32"/><ellipse cx="698" cy="358" fill="#b17004" rx="20" ry="20"/><ellipse cx="138" cy="58" fill="#984b08" rx="16" ry="16"/><ellipse cx="718" cy="266" fill="#b07208" rx="16" ry="16"/><ellipse cx="226" cy="658" fill="#7c3802" rx="12" ry="12"/><ellipse cx="18" cy="678" fill="#e3b557" rx="28" ry="28"/><ellipse cx="270" cy="134" fill="#6e370b" rx="20" ry="20"/><ellipse cx="810" cy="570" fill="#b1b2ac" rx="20" ry="20"/><ellipse cx="534" cy="198" fill="#d9a02f" rx="16" ry="16"/><ellipse cx="610" cy="266" fill="#cf972b" rx="24" ry="24"/><ellipse cx="558" cy="586" fill="#c59330" rx="24" ry="24"/><ellipse cx="690" cy="54" fill="#282217" rx="32" ry="32"/><ellipse cx="550" cy="638" fill="#975801" rx="36" ry="36"/><ellipse cx="1010" cy="490" fill="#636757" rx="16" ry="16"/><ellipse cx="570" cy="22" rx="8" ry="8"/><ellipse cx="490" cy="610" fill="#bd6b00" rx="20" ry="20"/><ellipse cx="706" cy="318" fill="#fce0b1" rx="8" ry="8"/><ellipse cx="886" cy="542" fill="#5a5a49" rx="16" ry="16"/><ellipse cx="478" cy="638" fill="#d49b2e" rx="28" ry="28"/><ellipse cx="658" cy="278" fill="#be821b" rx="20" ry="20"/><ellipse cx="146" cy="502" fill="#492d09" rx="32" ry="32"/><ellipse cx="550" cy="6" fill="#daa744" rx="16" ry="16"/><ellipse cx="682" cy="490" fill="#d79b27" rx="12" ry="12"/><ellipse cx="682" cy="622" fill="#000b06" rx="16" ry="16"/><ellipse cx="510" cy="10" fill="#bd7b11" rx="40" ry="40"/><ellipse cx="834" cy="658" fill="#625a4d" rx="20" ry="20"/><ellipse cx="534" cy="394" fill="#582000" rx="12" ry="12"/><ellipse cx="34" cy="2" fill="#c3811e" rx="36" ry="36"/><ellipse cx="370" cy="606" fill="#5c2903" rx="20" ry="20"/><ellipse cx="186" cy="370" fill="#0b1007" rx="116" ry="116"/><ellipse cx="198" cy="330" fill="#24271d" rx="28" ry="28"/><ellipse cx="674" cy="250" fill="#e1be7d" rx="12" ry="12"/><ellipse cx="486" cy="242" fill="#e18b1b" rx="8" ry="8"/><ellipse cx="186" cy="650" fill="#381800" rx="20" ry="20"/><ellipse cx="770" cy="518" fill="#020a08" rx="12" ry="12"/><ellipse cx="710" cy="98" fill="#dba03a" rx="8" ry="8"/><ellipse cx="538" cy="270" fill="#753700" rx="24" ry="24"/><ellipse cx="58" cy="326" fill="#3d2b0b" rx="28" ry="28"/><ellipse cx="954" cy="582" fill="#bec1c1" rx="28" ry="28"/><ellipse cx="642" cy="678" fill="#c88e28" rx="44" ry="44"/><ellipse cx="774" cy="630" fill="#201d11" rx="24" ry="24"/><ellipse cx="810" cy="594" fill="#997a4f" rx="12" ry="12"/><ellipse cx="354" cy="90" fill="#1f1101" rx="12" ry="12"/><ellipse cx="682" cy="574" fill="#b5aea5" rx="12" ry="12"/><ellipse cx="602" cy="442" fill="#e6bc73" rx="16" ry="16"/><ellipse cx="430" cy="234" fill="#3e1f05" rx="48" ry="48"/><ellipse cx="78" cy="274" fill="#49330c" rx="20" ry="20"/><ellipse cx="622" cy="22" fill="#e4c68a" rx="8" ry="8"/><ellipse cx="146" cy="2" fill="#cc8724" rx="44" ry="44"/><ellipse cx="546" cy="50" fill="#e2c699" rx="12" ry="12"/><ellipse cx="114" cy="90" fill="#251102" rx="20" ry="20"/><ellipse cx="526" cy="502" fill="#d18f1f" rx="32" ry="32"/><ellipse cx="686" cy="154" fill="#ab6900" rx="16" ry="16"/><ellipse cx="722" cy="238" fill="#d7ac60" rx="16" ry="16"/><ellipse cx="610" cy="498" fill="#8b4b00" rx="24" ry="24"/><ellipse cx="350" cy="678" fill="#e0a94a" rx="36" ry="36"/><ellipse cx="334" cy="150" fill="#5f3208" rx="24" ry="24"/><ellipse cx="754" cy="502" fill="#a86a07" rx="12" ry="12"/><ellipse cx="646" cy="382" fill="#b06905" rx="20" ry="20"/><ellipse cx="234" cy="502" fill="#5e3b0b" rx="20" ry="20"/><ellipse cx="486" cy="94" fill="#c08520" rx="32" ry="32"/><ellipse cx="730" cy="130" fill="#2e3028" rx="16" ry="16"/><ellipse cx="638" cy="462" fill="#c88a1e" rx="20" ry="20"/><ellipse cx="58" cy="218" fill="#231405" rx="36" ry="36"/><ellipse cx="758" cy="602" fill="#905716" rx="12" ry="12"/><ellipse cx="706" cy="382" fill="#e2c38f" rx="12" ry="12"/><ellipse cx="994" cy="678" fill="#726a57" rx="36" ry="36"/><ellipse cx="426" cy="582" fill="#9f4d00" rx="12" ry="12"/><ellipse cx="598" cy="230" fill="#935200" rx="20" ry="20"/><ellipse cx="534" cy="554" fill="#a16000" rx="8" ry="8"/><ellipse cx="614" cy="182" fill="#d09422" rx="16" ry="16"/><ellipse cx="10" cy="450" fill="#0f0d03" rx="40" ry="40"/><ellipse cx="866" cy="90" fill="#20251b" rx="28" ry="28"/><ellipse cx="134" cy="654" fill="#4c1c00" rx="16" ry="16"/></g></svg>