<svg height="576" width="1024" xmlns="http://www.w3.org/2000/svg"><path d="m0 0h1024v576h-1024z" fill="#bccbe3"/><g fill="none" stroke-opacity=".501961" stroke-width=".5" transform="matrix(4 0 0 4 2 2)"><path d="m187.295566 159q-65.595689-45.454854 8.087929-156.198117" stroke="#490000"/><path d="m213.255876-16q-95.705111 117.929434-25.775385 175" stroke="#640000"/><path d="m200.161668 10.659352q-66.618068 68.251014-22.973249 148.340648" stroke="#540000"/><path d="m165.169752 136.443036q51.574803-84.654692-44.805352-131.166276" stroke="#007817"/><path d="m159.530715 135.99786q74.390458-66.447821-48.088261-131.698787" stroke="#006d1f"/><path d="m202.268399 14.414637q-38.711097 9.532836-36.163243 126.295356" stroke="#00000e"/><path d="m207.358699-16q-77.615145 105.123459-39.732799 161.317962" stroke="#640c00"/><path d="m165.829221 149.065678q-10.529451-104.666976 37.237209-151.476599" stroke="#0f3800"/><path d="m158.630684 136.16137q67.468034-68.831254-38.357631-123.818957" stroke="#007319"/><path d="m158.339509 137.91372q77.676586-76.641023-56.496837-148.891009" stroke="#007b26"/><path d="m127.241481 25.015517q89.374113 30.186193 32.926742 108.990629" stroke="#007706"/><path d="m180.582228 25.519762q-40.465618 101.727294-4.609866 124.241424" stroke="#390000"/><path d="m188.078355 26.218558q-38.251845 54.318222-20.75588 120.793365" stroke="#300006"/><path d="m173.893605 147.472327q-45.969827-35.890755 31.724676-157.813106" stroke="#6a0900"/><path d="m171.594888 158.833017q-11.563295-35.232504 5.741082-121.385643" stroke="#002a00"/><path d="m162.540182 137.339949q27.99853-36.618726 12.287331-105.909038" stroke="#080"/><path d="m175.444138 45.305108q32.698361 60.138393-16.080311 87.385428" stroke="#008f00"/><path d="m172.996537 41.593756q31.685766 64.236294-15.313904 84.021524" stroke="#009700"/><path d="m159.676121 113.028979q33.951078-93.800733-68.180979-111.582259" stroke="#0016b5"/><path d="m115.698885 1.298778q81.450434 31.344213 36.843446 118.229323" stroke="#0012b3"/><path d="m174.906749 159q-35.564006-123.87071 19.411194-131.5497" stroke="#960000"/><path d="m151.573292 110.932194q54.33288-45.534155-52.594603-120.915155" stroke="#000db3"/><path d="m198.896713 21.376557q-33.795999 12.967043-47.095332 92.604931" stroke="#df0000"/><path d="m169.059681 42.967907q21.8163 61.784809-12.16968 78.107088" stroke="#ffc400"/><path d="m160.085317 133.819743q36.073572-42.379954 15.880483-91.773839" stroke="#009a00"/><path d="m161.907971 135.379365q56.247897-55.284141-6.079915-105.198273" stroke="#009400"/><path d="m162.623148 140.716329q-15.612285-63.70242 16.336463-113.690384" stroke="#8a0000"/><path d="m154.818962 114.780575q50.359092-70.004072-59.424933-115.905275" stroke="#001bb8"/><path d="m174.651071 33.660337q15.369553 78.658427-17.876244 94.834131" stroke="#1d9d00"/><path d="m156.315119 124.848783q30.167387-21.140444 13.493131-79.844812" stroke="#ffc100"/><path d="m193.581179 153.696446q-67.54434-18.132386-18.277489-114.960654" stroke="#910000"/><path d="m201.402409 15.872258q-32.817861 13.811746-33.922764 124.243538" stroke="#7c5d00"/><path d="m162.306219 135.944547q44.835215-69.598953 2.714392-85.384976" stroke="#008f00"/><path d="m150.833919 116.001426q54.676278-81.830165-98.685934-132.001426" stroke="#1a1997"/><path d="m200.554564 1.912142q-31.139934 44.019988-31.803372 137.39583" stroke="#aea000"/><path d="m196.000704 22.147428q-44.717086 19.698907-34.500375 109.350896" stroke="#b10000"/><path d="m168.138926 133.71418q-34.639091-25.669235 8.825798-73.41369" stroke="#7c0000"/><path d="m165.967897 40.776854q35.051166 36.123999-6.79033 90.577046" stroke="#00a200"/><path d="m90.045845-6.380698q110.233045 57.653734 67.321517 121.540341" stroke="#0124a7"/><path d="m159.57311 128.940169q44.974023-11.651301 16.235977-80.340906" stroke="#00a300"/><path d="m168.96869 38.063261q22.476814 58.496411-17.177083 85.814031" stroke="#ffce00"/><path d="m84.89217-4.854765q116.940445 29.30268 72.156767 117.392609" stroke="#0025bd"/><path d="m150.437478 107.32062q17.529355-16.666366 11.641511-56.267496" stroke="#f00"/><path d="m155.020411 115.869197q25.90416-7.83975 16.392547-68.810201" stroke="#ffcb00"/><path d="m117.959858 3.634076q77.213218 29.120626 32.967031 117.496566" stroke="#062cb7"/><path d="m158.499332 127.370263q41.576973-6.717403 15.35376-81.452251" stroke="#009e00"/><path d="m166.553329 46.01674q21.696124 45.14635-12.651854 80.171004" stroke="#ffc100"/><path d="m156.040633 114.140573q32.73339-38.489157-35.809118-103.667055" stroke="#0a1c9b"/><path d="m70.78761-4.17238q132.310531 36.844826 85.429178 113.008324" stroke="#013dc5"/><path d="m154.116739 125.611683q57.717825-7.230482 20.189937-84.016587" stroke="#00a804"/><path d="m167.340338 143.577934q-13.893692-76.89303-1.28131-94.421883" stroke="#980000"/><path d="m169.231589 34.40786q23.833329 68.144687-12.045759 89.378584" stroke="#abb400"/><path d="m134.92598-3.916512q34.367516 90.523096-67.434745 78.835884" stroke="#0d72e9"/><path d="m145.499482 112.960319q33.675236-47.972735 12.271296-57.306921" stroke="#fb0000"/><path d="m173.236206 42.134358q18.083666 54.131509-6.589945 92.813682" stroke="#00a500"/><path d="m80.720473 1.409962q100.949175-17.409962 85.128899 101.906097" stroke="#194dc9"/><path d="m157.635775 124.309179q51.362572-36.725141 17.011898-74.183648" stroke="#0a0"/><path d="m152.080004 122.421173q45.517215-51.165033 14.876648-71.636131" stroke="#ffc900"/><path d="m159.091221 116.269189q28.632568-6.627992 9.956834-80.019072" stroke="#ffd100"/><path d="m74.229072 74.14559q77.436697 10.351524 59.825019-86.076744" stroke="#0970e9"/><path d="m81.073339 86.355449q58.382697-43.276378 11.597463-77.756198" stroke="#0268e7"/><path d="m168.96372 35.597878q39.406417 62.488228-9.587631 96.437005" stroke="#00a606"/><path d="m152.719599 112.833947q7.599108-25.224584 10.951073-66.123354" stroke="#f90000"/><path d="m165.581792 49.219744q-5.661104 71.387366 5.830959 106.205682" stroke="#4b000a"/><path d="m167.243353 52.950797q25.82642 13.225022-11.782507 68.782985" stroke="#ffc100"/><path d="m129.998591-.681825q19.668363 31.665993-52.98079 83.099023" stroke="#0a6de9"/><path d="m181.329476 60.473642q20.243199 10.757166-19.514734 74.436815" stroke="#009b00"/><path d="m67.527458 75.856103q80.772893 17.053734 70.449575-79.574278" stroke="#1878e9"/><path d="m103.078966-9.514475q97.412955 63.755269 56.459714 115.761539" stroke="#003ab8"/><path d="m173.599781 53.760924q26.171897 34.072771-13.661557 72.141096" stroke="#00a400"/><path d="m75.724609 83.393731q86.751169-4.338624 46.134773-83.58128" stroke="#1577ea"/><path d="m92.146675.514569q40.109699 88.306961 115.487353 3.500802" stroke="#2970d9"/><path d="m165.019156 48.589516q-.628162 37.128506-11.723213 60.176706" stroke="#f00"/><path d="m182.718253 61.907165q15.407327 51.034132-18.000907 60.805471" stroke="#00af00"/><path d="m75.405709 82.507546q95.532881-96.235888 98.014989-98.507546" stroke="#1371e8"/><path d="m137.185476-1.276881q33.286606 84.15587-62.630661 85.548284" stroke="#2480ea"/><path d="m163.978721 51.198195q-4.809065 53.034411-14.315758 57.928009" stroke="#f00"/><path d="m179.31266 60.06215q-34.061926 32.06162-8.419692 92.416886" stroke="#200223"/><path d="m175.034992 56.63486q-4.590136 63.157849-20.21002 66.09791" stroke="#ffc500"/><path d="m119.950246-.114046q34.621442 77.532589-45.394951 73.123977" stroke="#1575e9"/><path d="m149.28912 51.580662q1.217458-67.580662-55.365159-41.855286" stroke="#0061e5"/><path d="m175.371368 61.708191q11.268929 27.565311-17.836617 62.172028" stroke="#ffc800"/><path d="m157.503373 131.238957q47.545916-41.040656 15.407528-79.427558" stroke="#00a502"/><path d="m77.442465-16q122.512772 52.868052 81.577713 122.625234" stroke="#003ccc"/><path d="m131.205368 106.37399q-47.798818-50.652666-56.011423-46.584567" stroke="#016de9"/><path d="m70.324261 71.435929q90.080472-21.30396 57.346983-78.816644" stroke="#1775e8"/><path d="m167.625408 53.548999q30.605361 31.118403-17.28963 67.195171" stroke="#fbcd00"/><path d="m124.49305 88.999151q-35.789529-1.424918-41.417302-34.231076" stroke="#005fe8"/><path d="m151.430995 107.774448q10.270425-35.051032 13.179282-59.992424" stroke="#f00"/><path d="m164.84987 114.647607q24.858612-17.314039 2.987405-67.711748" stroke="#ffd600"/><path d="m262.07847 140.656804q-227.301503 18.343196-230.72009-156.656804" stroke="#fff"/><path d="m156.275411 116.744676q6.198507-69.68293 43.435426-98.787823" stroke="#bb021f"/><path d="m76.433771 82.159045q100.482695-17.449342 46.57673-98.159045" stroke="#1e7ce9"/><path d="m81.381938 77.971159q74.122744-60.784814 45.498509-93.971159" stroke="#1974e8"/><path d="m180.641279 22.718515q-15.559888 87.799084-18.960658 112.804111" stroke="#35561e"/><path d="m67.239977-16q85.627008 50.349834 16.637895 105.395792" stroke="#217ae7"/><path d="m156.511419 121.117561q29.237853-20.563529 12.310809-74.598871" stroke="#ffc900"/><path d="m89.40782 8.302809q41.98718-5.418749 66.323187 59.815729" stroke="#2077e2"/><path d="m110.809079 92.155138q-.394754-36.328882-40.724045-18.407789" stroke="#0061ea"/><path d="m174.453562 123.703808q21.078563-20.565197-.663489-88.697024" stroke="#00be12"/><path d="m153.272144 114.626862q18.474091-29.731692 14.034577-71.41871" stroke="#000091"/><path d="m143.821234 67.58409q-40.058184-13.716354-43.060802-83.58409" stroke="#1272e4"/><path d="m267.052578 142.686827q-231.917685 2.550775-266.817807-158.686827" stroke="#fff"/><path d="m179.217404 68.440132q11.902884 38.358761-17.293076 68.144497" stroke="#008e00"/><path d="m122.170923 88.60797q-27.91204 5.554953-42.135941-33.766884" stroke="#0067ea"/><path d="m167.388663 67.776539q-21.981429 42.994954-9.796374 51.1434" stroke="#e20000"/><path d="m198.445945 15.859479q-84.090833 69.234436-112.655752-31.859479" stroke="#2973db"/><path d="m113.721635 93.962204q-6.50216-45.520659-40.522883-24.698573" stroke="#006bec"/><path d="m126.580401-5.81727q27.434405 85.904714-58.156009 84.971709" stroke="#247de8"/><path d="m214.505857-16q-61.528219 58.022103-28.075377 91.018897" stroke="#09c61e"/><path d="m141.68888 2.518244q33.221161 75.706368-61.77887 77.464237" stroke="#2c86e9"/><path d="m179.739576 75.114641q25.432659 16.389098-18.667387 61.53808" stroke="#008f00"/><path d="m171.03937 71.455149q-32.77083 57.81612 15.858195 87.544851" stroke="#00003c"/><path d="m161.438826 52.104171q3.984828 55.678421-13.064301 54.101538" stroke="#f00"/><path d="m170.048266 134.213658q100.951734 22.490565 82.527694-127.083372" stroke="#fff"/><path d="m51.663299-16q-41.369629 175 219.336701 157.846477" stroke="#fff"/><path d="m171.852744 33.137598q23.996338 75.820131-12.553114 89.985843" stroke="#00aa08"/><path d="m160.018779 119.531357q11.899185-26.276178 19.967203-56.09074" stroke="#ffc900"/><path d="m131.66032-1.75874q47.803939 70.936479-52.972384 87.108794" stroke="#2983e9"/><path d="m167.462739 47.240145q8.825321 57.096954-12.682287 65.031334" stroke="#000071"/><path d="m271 133.553759q-234.537999 23.940183-231.263115-149.553759" stroke="#fff"/><path d="m-16 133.824365q211.263478 25.175635 280.568488-34.931462" stroke="#fff"/><path d="m.069781 140.773994q259.629737 18.226006 255.693663-58.512785" stroke="#fff"/><path d="m92.846422 91.85393q-20.201545-33.784996 82.549559-107.85393" stroke="#2b7fe9"/><path d="m159.643931 114.731784q31.876113-5.079056 10.558938-67.005715" stroke="#ffd400"/><path d="m-13.934061 138.756278q267.385915 19.84026 267.512568-53.56167" stroke="#fff"/><path d="m169.326899 58.236647q16.761264 17.49473-12.327176 64.06891" stroke="#ffca00"/><path d="m166.956078 147.403699q-2.5619-35.028841.405984-102.322328" stroke="#06064f"/><path d="m104.779737-16q37.935797 75.203012 56.861881 66.947616" stroke="#0a6fe4"/><path d="m80.442802 80.268908q61.153729-29.676006 3.143096-96.268908" stroke="#1872e6"/><path d="m170.862332 143.127838q-18.251705-25.641662 16.384358-42.920069" stroke="#005a00"/><path d="m123.554964 100.039041q-34.364024-36.292798-50.680793-32.714438" stroke="#006ae8"/><path d="m95.484002 54.759398q-18.147494 34.579414 24.514177 36.287913" stroke="#006deb"/><path d="m9.542374 143.988836q-25.542374-147.790745 79.562204-145.271322" stroke="#fff"/><path d="m158.78536 100.774746q-11.755997 9.651581 13.099592 47.333973" stroke="#050007"/><path d="m161.597393 53.306788q10.489034 22.239264-12.179473 52.771948" stroke="#f00"/><path d="m174.043569-16q-24.127809 19.413468-100.326736 97.228687" stroke="#297ce8"/><path d="m252.77936 19.909428q18.22064 136.747128-143.682629 114.808419" stroke="#fff"/><path d="m-13.853019 23.500527q64.310257 61.851376 186.642714 124.203184" stroke="#fff"/><path d="m29.628653-9.232653q162.670519-6.767347 135.756573 109.577987" stroke="#1445cd"/><path d="m252.2623 34.989391q18.7377 119.811171-76.30858 103.711314" stroke="#fff"/><path d="m179.323434 34.641428q15.936901-9.040862 19.390969-15.985131" stroke="#ff000e"/><path d="m143.699788 69.92455q8.265263-67.796811-53.35268-63.407536" stroke="#1a77e8"/><path d="m154.688463 42.268177q-50.088574-19.22593-29.859252-58.268177" stroke="#0068e4"/><path d="m5.780789-11.094539q-21.780789 123.975233 248.832608 151.9863" stroke="#fff"/><path d="m74.18415 69.553346q107.665093 17.989798 71.944571-85.553346" stroke="#348ae7"/><path d="m255.33487 129.71167q-251.68386-5.280069-252.343341-145.71167" stroke="#fffeff"/><path d="m32.53797-15.153934q5.830363 174.153934 238.46203 153.943619" stroke="#fff"/><path d="m188.029798 159q-46.575638-30.607186-21.060813-97.659768" stroke="#800003"/><path d="m153.250525 125.885446q28.01292-12.572765 17.691161-89.608457" stroke="#fdc600"/><path d="m173.257273 50.52409q26.774562 55.208444-12.380233 76.37694" stroke="#00a705"/><path d="m-1.293145 139.068716q253.865601 15.179068 256.819259-71.818331" stroke="#fff"/><path d="m122.014509 87.523512q-39.97594-4.968956-33.206827-35.750043" stroke="#0068e8"/><path d="m116.690974-.365709q25.174839 68.086071 83.480561 15.15079" stroke="#2364d8"/><path d="m180.235738 64.949568q2.503257 35.863126-14.709859 71.78442" stroke="#049900"/><path d="m173.475771 141.908396q92.465988 17.091604 76.373206-128.312308" stroke="#fff"/><path d="m99.241953 16.865318q-112.259492-17.096291-83.824421 128.048593" stroke="#fff"/><path d="m175.302084 55.054919q28.082366 58.535144-16.68669 67.700392" stroke="#00a809"/><g stroke="#fff"><path d="m2.900952 118.980533q-11.525584-134.980533 93.91227-98.634954"/><path d="m15.602686 158.463099q-31.602686-160.77671 64.171202-153.883528"/><path d="m168.714846 134.474291q95.661358-39.090466 85.588945-134.431363"/><path d="m-.2069 12.843572q107.130483-28.843572 162.780021 130.988044"/><path d="m171.28848 124.931009q93.339179 19.406166 76.176685-128.452208"/></g><path d="m175.161215 108.36522q-9.972489-30.583507 4.409413-39.184475" stroke="#ffe700"/><path d="m146.476227 73.703301q28.427928-81.957699-56.039129-68.020425" stroke="#2b7fe4"/><path d="m7.77015 145.779325q-23.77015-142.301953 89.385593-123.832023" stroke="#fff"/><path d="m161.945438 55.170796q-.170103 22.296338-10.020514 54.098739" stroke="#f00"/><path d="m153.686864 113.242366q26.186829-43.717193 13.853508-56.579967" stroke="#00008f"/><path d="m15.956732 47.817582q135.618256-41.806354 136.880271 111.182418" stroke="#fffeff"/><path d="m75.95005 80.731175q69.810074-20.377401 18.816526-76.462973" stroke="#297be4"/><path d="m90.78002 14.185998q-106.78002.744432-71.315709 137.401599" stroke="#fff"/><path d="m170.10198 131.228948q51.527796-63.428879 89.097454 16.396174" stroke="#fff"/><path d="m169.747214 49.513475q16.401531 46.884572-7.384864 70.099193" stroke="#ffd300"/><path d="m110.676194 93.985076q-4.439836-41.42436-39.135934-23.864756" stroke="#046de9"/><path d="m118.643304-16q47.91695 87.022808-40.190976 98.330163" stroke="#2b82e8"/><path d="m13.801568-9.851879q170.220608 79.704754 129.534428 164.763673" stroke="#fffeff"/><path d="m47.811095-16q-49.270282 158.978961 205.265236 154.443731" stroke="#fffbff"/><path d="m173.901603 49.316138q34.2297 51.924913-5.661553 66.997292" stroke="#00bd1c"/><path d="m252.40727 55.620272q18.59273 102.050522-76.658293 71.1378" stroke="#fff"/><path d="m168.29534 134.006254q60.146506-62.316539 91.317854 18.916545" stroke="#fff"/><path d="m131.439405 142.596436q133.368088 9.010245 119.344087-122.986646" stroke="#fff"/><path d="m-5.1828 111.454248q17.775079 47.545752 271.310965 18.966796" stroke="#fffeff"/><path d="m73.784614 73.472145q89.54752-28.609041 66.066569-73.270462" stroke="#3184e6"/><path d="m-2.443036-.995026q-7.897076 55.694635 160.000953 136.731926" stroke="#fff"/><path d="m144.614148 71.888134q14.583989-71.011955-69.611402-73.664779" stroke="#217ce7"/><path d="m84.469015 8.950841q-82.661585-3.203044-65.508424 150.049159" stroke="#fff"/><path d="m187.784223 69.40247q.18293 13.438458-21.933023 69.899654" stroke="#00a119"/><path d="m155.52061 5.546913q-35.764373 46.395499-62.958286 3.453263" stroke="#1b70e2"/><path d="m269.709253 121.624263q-80.610736 37.375737-79.599265-49.831571" stroke="#fff"/><path d="m172.959608 146.465489q-35.220616-39.39418-6.534401-76.819139" stroke="#860009"/><path d="m120.760593-16q49.794663 89.024211-39.018213 102.80578" stroke="#3287e9"/><path d="m152.15893 103.183274q3.150212 28.765125 27.70317 55.816726" stroke="#1a1d1b"/><path d="m168.484913 46.411551q22.335852 56.804519-9.522743 67.982974" stroke="#ffd100"/><path d="m87.884298 12.153199q-103.884298-10.426988-76.445897 135.218262" stroke="#fff"/><path d="m99.9982.91111q35.927134 68.06141-26.694383 76.742818" stroke="#2a7de5"/><path d="m256.372121 147.997098q-33.245013-69.47709-82.197199-16.67155" stroke="#fff"/><path d="m170.388235 135.364063q100.611765-14.963861 71.435298-138.004669" stroke="#fff"/><path d="m71.743749 3.570596q-82.043943-11.074144-68.026427 155.429404" stroke="#fff"/><path d="m169.942627 130.701316q52.269751-67.014772 92.758075 17.414215" stroke="#fff"/><path d="m163.969906 159q-26.937802-122.737134-122.864349-165.119002" stroke="#fff"/><path d="m1.467186 55.514573q122.174091-71.514573 159.059807 101.684896" stroke="#fffdff"/><path d="m109.353601 93.280597q-3.355457-34.618306-32.865297-19.411996" stroke="#0067e9"/><path d="m71.73963 78.065546q61.097191-26.091972 26.611297-68.147109" stroke="#2979e5"/><path d="m75.350628 83.418483q91.830327-26.129566 34.066074-99.418483" stroke="#2e82e7"/><path d="m97.332207 18.727118q-113.332207-7.246277-75.838812 130.16753" stroke="#fff"/><path d="m1.610074 11.698953q-10.780061 43.382958 168.348802 135.814379" stroke="#fff"/><path d="m197.320519 55.050011q-19.856304 95.423691 73.679481 65.028756" stroke="#fff"/><path d="m160.918279 120.90476q5.3334-6.670001 17.297812-59.134846" stroke="#ffca00"/><path d="m154.04151 142.003865q-41.63051-158.003865-149.52227-114.909136" stroke="#fbf9ff"/><path d="m86.513595 59.28384q-3.841099 31.484997 26.916779 21.339777" stroke="#005fe6"/><path d="m248.896762.152983q22.103238 84.264508-79.992407 132.894247" stroke="#fff"/><path d="m271 140.22915q-253.22873 18.77085-231.424307-156.22915" stroke="#fffcff"/><path d="m47.306545-16q-35.167185 168.567834 223.693455 143.996286" stroke="#fefeff"/><path d="m170.672614 140.860539q100.240579 18.139461 79.175177-85.213666" stroke="#fff"/><path d="m171.978666 48.339436q-7.627217-8.232074 27.911664-42.404292" stroke="#e7e327"/><path d="m172.462484 123.042076q70.419779 19.493314 82.511408-134.374496" stroke="#fff"/><path d="m192.408902 78.64335q-13.000311 80.35665 64.767399 55.230508" stroke="#fff"/><path d="m149.668733 103.534764q29.845116 49.227523 20.988694 55.465236" stroke="#210f07"/><path d="m90.967561 54.785563q-1.446944 34.450478 27.115769 33.297245" stroke="#016dea"/><path d="m126.633146 33.031808q-5.573977-36.401963 24.081099-30.867464" stroke="#015fdf"/><path d="m20.755514 142.777641q-12.937649-137.036938 70.110087-124.825445" stroke="#fff"/><path d="m164.201094 54.097316q4.474246 30.198591-11.441805 53.212267" stroke="#d8000b"/><path d="m.153826 141.394084q-15.112741-149.692611 80.682162-134.462066" stroke="#fff"/><path d="m214.970122-16q-47.49642 47.999831-40.742515 65.73468" stroke="#15c83c"/><path d="m185.902726 104.809835q-36.476483 10.538015-14.229189 44.59862" stroke="#005100"/><path d="m152.233244 61.456032q15.287887-77.456032-56.290587-55.435337" stroke="#317fe1"/><path d="m89.896849 12.918989q-104.691048-12.406056-75.640144 146.081011" stroke="#fffeff"/><path d="m198.995449 8.327989q1.734293 21.740909-23.807714 25.029134" stroke="#de0c39"/><path d="m166.566399 45.617699q8.439734 64.846346-14.853705 64.046035" stroke="#000092"/><path d="m74.878212 78.158373q97.95612 16.373954 64.489762-76.533165" stroke="#3e8ee9"/><path d="m170.151721 54.912724q14.926529 52.720912-16.782955 69.717227" stroke="#f7c100"/><path d="m253.203707 4.020588q17.796293 140.674247-80.8088 121.11484" stroke="#fff"/><path d="m2.04251 14.15524q17.599045 54.645289 150.221788 117.111045" stroke="#fffdff"/><path d="m159.81668 134.257602q45.070845-33.503384 17.910117-56.967425" stroke="#008c0e"/><path d="m163.694101 16.499892q-54.906273 40.226891-69.417925-14.543075" stroke="#287ae3"/><path d="m252.613926 145.598934q-38.591946-71.359504-82.972825-11.329643" stroke="#fff"/><path d="m255.841409 119.428207q-65.364393-51.882186-84.345406 28.032968" stroke="#fff"/><path d="m268.29937 137.816994q-91.71105 6.775966-73.404797-85.823671" stroke="#fff"/><path d="m111.266687 93.143381q4.715643-42.374878-39.214015-29.51816" stroke="#2181ec"/><path d="m85.067134 6.997535q-101.067134 23.96138-56.207432 152.002465" stroke="#fff"/><path d="m86.932214 56.466443q-15.136093 38.390639 26.491609 33.413133" stroke="#1678ea"/><path d="m147.321129 63.503763q19.460467-58.510053-54.649621-67.370704" stroke="#207ae7"/><path d="m170.602543 135.502056q78.303711 23.497944 83.879375-95.650988" stroke="#fff"/><path d="m50.215984 87.949568q134.138878-3.190074 100.619112-90.177178" stroke="#579be9"/><path d="m247.864336 51.795115q20.07659 101.522546-75.802746 78.855028" stroke="#fff"/><path d="m167.426962 66.536882q-10.247867 8.283615-15.664832 43.243429" stroke="#ff0009"/><path d="m158.89141 127.124523q35.599691-21.959989 18.293617-80.178092" stroke="#00a519"/><path d="m90.018405 8.894562q-106.018405-14.647786-85.895891 119.366414" stroke="#fffbff"/><path d="m156.947022 68.23414q5.217694-20.206303-50.959017-67.210035" stroke="#3184e4"/><path d="m156.710132 149.19025q-14.670744-165.19025-172.200725-83.866854" stroke="#f9f9ff"/><path d="m131.39623 142.479805q129.609304 16.520195 118.610735-106.387883" stroke="#fff"/><path d="m158.154591 119.836316q34.456314-50.091626 14.849874-60.708039" stroke="#fccd00"/><path d="m176.348735 36.256898q39.297785-23.727603 15.075901-44.121728" stroke="#c3103d"/><path d="m199.253253 50.835948q-11.704537 99.548558 64.616496 81.1877" stroke="#fff"/><path d="m90.748083 16.645116q-88.849492-.142042-64.39937 132.843797" stroke="#fffcff"/><path d="m164.090698 15.178325q-55.226106 40.36184-77.107747-17.295967" stroke="#3983e3"/><path d="m173.282169 59.592944q17.39713 12.841919-19.863769 62.006142" stroke="#f9c400"/><path d="m168.775799 136.871315q65.790853-61.147489 89.854423 10.164049" stroke="#fff"/><path d="m171.617134 106.375044q-3.713054-22.639319 4.941543-38.724891" stroke="#ffe200"/><path d="m247.604864 44.904894q-.653922 77.389492-76.521882 89.181801" stroke="#fff"/><path d="m91.945286-5.02632q28.014152 84.522502 106.313964 20.090107" stroke="#3a7bdb"/><path d="m150.38318 105.181682q8.464672-2.076278 13.831547-45.135639" stroke="#f00"/><path d="m270.77004 138.963676q-64.20585-.356053-90.775088-102.140331" stroke="#fff"/><path d="m177.374902 131.756491q80.435559 27.243509 78.360987-41.912052" stroke="#fff"/><path d="m95.169083 10.563526q63.225775-26.563526 65.318709 22.17349" stroke="#387ddd"/><path d="m202.780657 63.958562q-37.249818 76.106236 51.012649 74.571449" stroke="#fff"/><path d="m3.054657-8.867267q-19.054657 156.534561 45.559915 152.00021" stroke="#fffaff"/><path d="m187.11219 18.479836q9.369044-.971057 15.123926-20.535001" stroke="#ffe10c"/><path d="m58.133859-.964785q-74.133859 112.963802 8.656651 140.925499" stroke="#fff9ff"/><path d="m21.118723 159q-31.708683-139.63237 62.644849-148.47874" stroke="#fff"/><path d="m251.417551-16q-7.353081 149.799017-75.065283 139.437195" stroke="#fffdff"/><path d="m185.565924 64.630761q9.16991 37.339643-24.224102 71.222681" stroke="#009012"/><path d="m193.173487 44.389929q-5.16093 100.978397 65.517764 77.478038" stroke="#fff"/><path d="m170.398572 54.869025q13.036195 48.869039-.402141 55.567203" stroke="#ffd400"/><path d="m104.292972 54.532155q-29.292948 19.386156-19.475601 33.372348" stroke="#0367e6"/><path d="m97.708665-12.680265q13.502401 94.720168 63.559586 71.680902" stroke="#4186de"/><path d="m134.813483-2.202144q-25.200672 23.374966 6.936056 42.631089" stroke="#0e6ce2"/><path d="m16.274382 154.163663q-32.274382-155.463805 69.139441-144.158626" stroke="#fffdff"/><path d="m164.553565 137.42725q18.054534-44.693748 21.101009-66.351071" stroke="#009513"/><path d="m152.263895 141.699907q-168.263895-75.771785-106.979291-157.699907" stroke="#fcf9ff"/><path d="m249.489821 48.767037q21.510179 100.446281-77.565166 77.05506" stroke="#fff"/><path d="m-9.863656-12.137261q199.876386 82.858321 141.116544 166.408128" stroke="#f5f5ff"/><path d="m210.584826-16q-42.125781 48.129725-34.346941 65.323022" stroke="#14be4d"/><path d="m163.471424 50.814531q3.386999 48.211191-14.154066 57.01137" stroke="#f1000a"/><path d="m56.612244 141.021087q-67.254578 5.292244-48.803267-147.561828" stroke="#fffaff"/><path d="m124.591363-6.520817q30.207889 80.54629-77.533039 94.17777" stroke="#4a8ee7"/><path d="m72.499307 66.378987q22.167042-15.395467 38.935472 29.694639" stroke="#1878ea"/><path d="m191.764916 159q-203.132859-92.57231-181.402069-166.906484" stroke="#fffbff"/><path d="m88.199414 5.729468q77.380509-21.729468 65.644803 57.096781" stroke="#3e86e1"/><path d="m7.493255 159q-23.493255-156.034097 72.606594-153.605313" stroke="#fffbff"/><path d="m83.362308 6.286152q-88.229786 19.186109-56.393417 152.713848" stroke="#fff"/><path d="m271 117.076431q-82.673198 30.359185-70.523098-56.341773" stroke="#fff"/><path d="m260.300375 139.625002q-34.785524-69.514947-91.501853-4.18796" stroke="#fff"/><path d="m254.711828-6.256878q12.495472 81.32548-102.45458 165.256878" stroke="#fff"/><path d="m173.235959 67.77544q-65.66926-81.165614-89.403928-83.77544" stroke="#2063da"/><path d="m170.68282 159q8.43516-74.706447 98.568786-32.436223" stroke="#fff"/><path d="m152.514423 113.780544q24.893676-44.148928 17.555061-53.124784" stroke="#000498"/><path d="m113.165995 93.477634q-9.523471-45.542685-39.813364-25.675705" stroke="#1a7aea"/><path d="m90.757173 91.241749q-17.613058-29.349334 10.396993-33.983793" stroke="#0b6de8"/><path d="m170.704942 139.34717q98.731804 19.65283 82.601208-59.04323" stroke="#fff"/></g></svg>