<svg xmlns="http://www.w3.org/2000/svg" version="1.1" width="1024" height="576">
<rect x="0" y="0" width="1024" height="576" fill="#bccbe3" />
<g transform="scale(4.000000) translate(0.5 0.5)">
<path stroke="#490000" stroke-opacity="0.501961" fill="none" d="M 187.295566 159.000000 Q 121.699877 113.545146, 195.383495 2.801883" stroke-width="0.500000" />
<path stroke="#640000" stroke-opacity="0.501961" fill="none" d="M 213.255876 -16.000000 Q 117.550765 101.929434, 187.480491 159.000000" stroke-width="0.500000" />
<path stroke="#540000" stroke-opacity="0.501961" fill="none" d="M 200.161668 10.659352 Q 133.543600 78.910366, 177.188419 159.000000" stroke-width="0.500000" />
<path stroke="#007817" stroke-opacity="0.501961" fill="none" d="M 165.169752 136.443036 Q 216.744555 51.788344, 120.364400 5.276760" stroke-width="0.500000" />
<path stroke="#006d1f" stroke-opacity="0.501961" fill="none" d="M 159.530715 135.997860 Q 233.921173 69.550039, 111.442454 4.299073" stroke-width="0.500000" />
<path stroke="#00000e" stroke-opacity="0.501961" fill="none" d="M 202.268399 14.414637 Q 163.557302 23.947473, 166.105156 140.709993" stroke-width="0.500000" />
<path stroke="#640c00" stroke-opacity="0.501961" fill="none" d="M 207.358699 -16.000000 Q 129.743554 89.123459, 167.625900 145.317962" stroke-width="0.500000" />
<path stroke="#0f3800" stroke-opacity="0.501961" fill="none" d="M 165.829221 149.065678 Q 155.299770 44.398702, 203.066430 -2.410921" stroke-width="0.500000" />
<path stroke="#007319" stroke-opacity="0.501961" fill="none" d="M 158.630684 136.161370 Q 226.098718 67.330116, 120.273053 12.342413" stroke-width="0.500000" />
<path stroke="#007b26" stroke-opacity="0.501961" fill="none" d="M 158.339509 137.913720 Q 236.016095 61.272697, 101.842672 -10.977289" stroke-width="0.500000" />
<path stroke="#007706" stroke-opacity="0.501961" fill="none" d="M 127.241481 25.015517 Q 216.615594 55.201710, 160.168223 134.006146" stroke-width="0.500000" />
<path stroke="#390000" stroke-opacity="0.501961" fill="none" d="M 180.582228 25.519762 Q 140.116610 127.247056, 175.972362 149.761186" stroke-width="0.500000" />
<path stroke="#300006" stroke-opacity="0.501961" fill="none" d="M 188.078355 26.218558 Q 149.826510 80.536780, 167.322475 147.011923" stroke-width="0.500000" />
<path stroke="#6a0900" stroke-opacity="0.501961" fill="none" d="M 173.893605 147.472327 Q 127.923778 111.581572, 205.618281 -10.340779" stroke-width="0.500000" />
<path stroke="#002a00" stroke-opacity="0.501961" fill="none" d="M 171.594888 158.833017 Q 160.031593 123.600513, 177.335970 37.447374" stroke-width="0.500000" />
<path stroke="#008800" stroke-opacity="0.501961" fill="none" d="M 162.540182 137.339949 Q 190.538712 100.721223, 174.827513 31.430911" stroke-width="0.500000" />
<path stroke="#008f00" stroke-opacity="0.501961" fill="none" d="M 175.444138 45.305108 Q 208.142499 105.443501, 159.363827 132.690536" stroke-width="0.500000" />
<path stroke="#009700" stroke-opacity="0.501961" fill="none" d="M 172.996537 41.593756 Q 204.682303 105.830050, 157.682633 125.615280" stroke-width="0.500000" />
<path stroke="#0016b5" stroke-opacity="0.501961" fill="none" d="M 159.676121 113.028979 Q 193.627199 19.228246, 91.495142 1.446720" stroke-width="0.500000" />
<path stroke="#0012b3" stroke-opacity="0.501961" fill="none" d="M 115.698885 1.298778 Q 197.149319 32.642991, 152.542331 119.528101" stroke-width="0.500000" />
<path stroke="#960000" stroke-opacity="0.501961" fill="none" d="M 174.906749 159.000000 Q 139.342743 35.129290, 194.317943 27.450300" stroke-width="0.500000" />
<path stroke="#000db3" stroke-opacity="0.501961" fill="none" d="M 151.573292 110.932194 Q 205.906172 65.398039, 98.978689 -9.982961" stroke-width="0.500000" />
<path stroke="#df0000" stroke-opacity="0.501961" fill="none" d="M 198.896713 21.376557 Q 165.100714 34.343600, 151.801381 113.981488" stroke-width="0.500000" />
<path stroke="#ffc400" stroke-opacity="0.501961" fill="none" d="M 169.059681 42.967907 Q 190.875981 104.752716, 156.890001 121.074995" stroke-width="0.500000" />
<path stroke="#009a00" stroke-opacity="0.501961" fill="none" d="M 160.085317 133.819743 Q 196.158889 91.439789, 175.965800 42.045904" stroke-width="0.500000" />
<path stroke="#009400" stroke-opacity="0.501961" fill="none" d="M 161.907971 135.379365 Q 218.155868 80.095224, 155.828056 30.181092" stroke-width="0.500000" />
<path stroke="#8a0000" stroke-opacity="0.501961" fill="none" d="M 162.623148 140.716329 Q 147.010863 77.013909, 178.959611 27.025945" stroke-width="0.500000" />
<path stroke="#001bb8" stroke-opacity="0.501961" fill="none" d="M 154.818962 114.780575 Q 205.178054 44.776503, 95.394029 -1.124700" stroke-width="0.500000" />
<path stroke="#1d9d00" stroke-opacity="0.501961" fill="none" d="M 174.651071 33.660337 Q 190.020624 112.318764, 156.774827 128.494468" stroke-width="0.500000" />
<path stroke="#ffc100" stroke-opacity="0.501961" fill="none" d="M 156.315119 124.848783 Q 186.482506 103.708339, 169.808250 45.003971" stroke-width="0.500000" />
<path stroke="#910000" stroke-opacity="0.501961" fill="none" d="M 193.581179 153.696446 Q 126.036839 135.564060, 175.303690 38.735792" stroke-width="0.500000" />
<path stroke="#7c5d00" stroke-opacity="0.501961" fill="none" d="M 201.402409 15.872258 Q 168.584548 29.684004, 167.479645 140.115796" stroke-width="0.500000" />
<path stroke="#008f00" stroke-opacity="0.501961" fill="none" d="M 162.306219 135.944547 Q 207.141434 66.345594, 165.020611 50.559571" stroke-width="0.500000" />
<path stroke="#1a1997" stroke-opacity="0.501961" fill="none" d="M 150.833919 116.001426 Q 205.510197 34.171261, 52.147985 -16.000000" stroke-width="0.500000" />
<path stroke="#aea000" stroke-opacity="0.501961" fill="none" d="M 200.554564 1.912142 Q 169.414630 45.932130, 168.751192 139.307972" stroke-width="0.500000" />
<path stroke="#b10000" stroke-opacity="0.501961" fill="none" d="M 196.000704 22.147428 Q 151.283618 41.846335, 161.500329 131.498324" stroke-width="0.500000" />
<path stroke="#7c0000" stroke-opacity="0.501961" fill="none" d="M 168.138926 133.714180 Q 133.499835 108.044945, 176.964724 60.300490" stroke-width="0.500000" />
<path stroke="#00a200" stroke-opacity="0.501961" fill="none" d="M 165.967897 40.776854 Q 201.019063 76.900853, 159.177567 131.353900" stroke-width="0.500000" />
<path stroke="#0124a7" stroke-opacity="0.501961" fill="none" d="M 90.045845 -6.380698 Q 200.278890 51.273036, 157.367362 115.159643" stroke-width="0.500000" />
<path stroke="#00a300" stroke-opacity="0.501961" fill="none" d="M 159.573110 128.940169 Q 204.547133 117.288868, 175.809087 48.599263" stroke-width="0.500000" />
<path stroke="#ffce00" stroke-opacity="0.501961" fill="none" d="M 168.968690 38.063261 Q 191.445504 96.559672, 151.791607 123.877292" stroke-width="0.500000" />
<path stroke="#0025bd" stroke-opacity="0.501961" fill="none" d="M 84.892170 -4.854765 Q 201.832615 24.447915, 157.048937 112.537844" stroke-width="0.500000" />
<path stroke="#ff0000" stroke-opacity="0.501961" fill="none" d="M 150.437478 107.320620 Q 167.966833 90.654254, 162.078989 51.053124" stroke-width="0.500000" />
<path stroke="#ffcb00" stroke-opacity="0.501961" fill="none" d="M 155.020411 115.869197 Q 180.924571 108.029447, 171.412958 47.058996" stroke-width="0.500000" />
<path stroke="#062cb7" stroke-opacity="0.501961" fill="none" d="M 117.959858 3.634076 Q 195.173076 32.754702, 150.926889 121.130642" stroke-width="0.500000" />
<path stroke="#009e00" stroke-opacity="0.501961" fill="none" d="M 158.499332 127.370263 Q 200.076305 120.652860, 173.853092 45.918012" stroke-width="0.500000" />
<path stroke="#ffc100" stroke-opacity="0.501961" fill="none" d="M 166.553329 46.016740 Q 188.249453 91.163090, 153.901475 126.187744" stroke-width="0.500000" />
<path stroke="#0a1c9b" stroke-opacity="0.501961" fill="none" d="M 156.040633 114.140573 Q 188.774023 75.651416, 120.231515 10.473518" stroke-width="0.500000" />
<path stroke="#013dc5" stroke-opacity="0.501961" fill="none" d="M 70.787610 -4.172380 Q 203.098141 32.672446, 156.216788 108.835944" stroke-width="0.500000" />
<path stroke="#00a804" stroke-opacity="0.501961" fill="none" d="M 154.116739 125.611683 Q 211.834564 118.381201, 174.306676 41.595096" stroke-width="0.500000" />
<path stroke="#980000" stroke-opacity="0.501961" fill="none" d="M 167.340338 143.577934 Q 153.446646 66.684904, 166.059028 49.156051" stroke-width="0.500000" />
<path stroke="#abb400" stroke-opacity="0.501961" fill="none" d="M 169.231589 34.407860 Q 193.064918 102.552547, 157.185830 123.786444" stroke-width="0.500000" />
<path stroke="#0d72e9" stroke-opacity="0.501961" fill="none" d="M 134.925980 -3.916512 Q 169.293496 86.606584, 67.491235 74.919372" stroke-width="0.500000" />
<path stroke="#fb0000" stroke-opacity="0.501961" fill="none" d="M 145.499482 112.960319 Q 179.174718 64.987584, 157.770778 55.653398" stroke-width="0.500000" />
<path stroke="#00a500" stroke-opacity="0.501961" fill="none" d="M 173.236206 42.134358 Q 191.319872 96.265867, 166.646261 134.948040" stroke-width="0.500000" />
<path stroke="#194dc9" stroke-opacity="0.501961" fill="none" d="M 80.720473 1.409962 Q 181.669648 -16.000000, 165.849372 103.316059" stroke-width="0.500000" />
<path stroke="#00aa00" stroke-opacity="0.501961" fill="none" d="M 157.635775 124.309179 Q 208.998347 87.584038, 174.647673 50.125531" stroke-width="0.500000" />
<path stroke="#ffc900" stroke-opacity="0.501961" fill="none" d="M 152.080004 122.421173 Q 197.597219 71.256140, 166.956652 50.785042" stroke-width="0.500000" />
<path stroke="#ffd100" stroke-opacity="0.501961" fill="none" d="M 159.091221 116.269189 Q 187.723789 109.641197, 169.048055 36.250117" stroke-width="0.500000" />
<path stroke="#0970e9" stroke-opacity="0.501961" fill="none" d="M 74.229072 74.145590 Q 151.665769 84.497114, 134.054091 -11.931154" stroke-width="0.500000" />
<path stroke="#0268e7" stroke-opacity="0.501961" fill="none" d="M 81.073339 86.355449 Q 139.456036 43.079071, 92.670802 8.599251" stroke-width="0.500000" />
<path stroke="#00a606" stroke-opacity="0.501961" fill="none" d="M 168.963720 35.597878 Q 208.370137 98.086106, 159.376089 132.034883" stroke-width="0.500000" />
<path stroke="#f90000" stroke-opacity="0.501961" fill="none" d="M 152.719599 112.833947 Q 160.318707 87.609363, 163.670672 46.710593" stroke-width="0.500000" />
<path stroke="#4b000a" stroke-opacity="0.501961" fill="none" d="M 165.581792 49.219744 Q 159.920688 120.607110, 171.412751 155.425426" stroke-width="0.500000" />
<path stroke="#ffc100" stroke-opacity="0.501961" fill="none" d="M 167.243353 52.950797 Q 193.069773 66.175819, 155.460846 121.733782" stroke-width="0.500000" />
<path stroke="#0a6de9" stroke-opacity="0.501961" fill="none" d="M 129.998591 -0.681825 Q 149.666954 30.984168, 77.017801 82.417198" stroke-width="0.500000" />
<path stroke="#009b00" stroke-opacity="0.501961" fill="none" d="M 181.329476 60.473642 Q 201.572675 71.230808, 161.814742 134.910457" stroke-width="0.500000" />
<path stroke="#1878e9" stroke-opacity="0.501961" fill="none" d="M 67.527458 75.856103 Q 148.300351 92.909837, 137.977033 -3.718175" stroke-width="0.500000" />
<path stroke="#003ab8" stroke-opacity="0.501961" fill="none" d="M 103.078966 -9.514475 Q 200.491921 54.240794, 159.538680 106.247064" stroke-width="0.500000" />
<path stroke="#00a400" stroke-opacity="0.501961" fill="none" d="M 173.599781 53.760924 Q 199.771678 87.833695, 159.938224 125.902020" stroke-width="0.500000" />
<path stroke="#1577ea" stroke-opacity="0.501961" fill="none" d="M 75.724609 83.393731 Q 162.475778 79.055107, 121.859382 -0.187549" stroke-width="0.500000" />
<path stroke="#2970d9" stroke-opacity="0.501961" fill="none" d="M 92.146675 0.514569 Q 132.256374 88.821530, 207.634028 4.015371" stroke-width="0.500000" />
<path stroke="#ff0000" stroke-opacity="0.501961" fill="none" d="M 165.019156 48.589516 Q 164.390994 85.718022, 153.295943 108.766222" stroke-width="0.500000" />
<path stroke="#00af00" stroke-opacity="0.501961" fill="none" d="M 182.718253 61.907165 Q 198.125580 112.941297, 164.717346 122.712636" stroke-width="0.500000" />
<path stroke="#1371e8" stroke-opacity="0.501961" fill="none" d="M 75.405709 82.507546 Q 170.938590 -13.728342, 173.420698 -16.000000" stroke-width="0.500000" />
<path stroke="#2480ea" stroke-opacity="0.501961" fill="none" d="M 137.185476 -1.276881 Q 170.472082 82.878989, 74.554815 84.271403" stroke-width="0.500000" />
<path stroke="#ff0000" stroke-opacity="0.501961" fill="none" d="M 163.978721 51.198195 Q 159.169656 104.232606, 149.662963 109.126204" stroke-width="0.500000" />
<path stroke="#200223" stroke-opacity="0.501961" fill="none" d="M 179.312660 60.062150 Q 145.250734 92.123770, 170.892968 152.479036" stroke-width="0.500000" />
<path stroke="#ffc500" stroke-opacity="0.501961" fill="none" d="M 175.034992 56.634860 Q 170.444856 119.792709, 154.824972 122.732770" stroke-width="0.500000" />
<path stroke="#1575e9" stroke-opacity="0.501961" fill="none" d="M 119.950246 -0.114046 Q 154.571688 77.418543, 74.555295 73.009931" stroke-width="0.500000" />
<path stroke="#0061e5" stroke-opacity="0.501961" fill="none" d="M 149.289120 51.580662 Q 150.506578 -16.000000, 93.923961 9.725376" stroke-width="0.500000" />
<path stroke="#ffc800" stroke-opacity="0.501961" fill="none" d="M 175.371368 61.708191 Q 186.640297 89.273502, 157.534751 123.880219" stroke-width="0.500000" />
<path stroke="#00a502" stroke-opacity="0.501961" fill="none" d="M 157.503373 131.238957 Q 205.049289 90.198301, 172.910901 51.811399" stroke-width="0.500000" />
<path stroke="#003ccc" stroke-opacity="0.501961" fill="none" d="M 77.442465 -16.000000 Q 199.955237 36.868052, 159.020178 106.625234" stroke-width="0.500000" />
<path stroke="#016de9" stroke-opacity="0.501961" fill="none" d="M 131.205368 106.373990 Q 83.406550 55.721324, 75.193945 59.789423" stroke-width="0.500000" />
<path stroke="#1775e8" stroke-opacity="0.501961" fill="none" d="M 70.324261 71.435929 Q 160.404733 50.131969, 127.671244 -7.380715" stroke-width="0.500000" />
<path stroke="#fbcd00" stroke-opacity="0.501961" fill="none" d="M 167.625408 53.548999 Q 198.230769 84.667402, 150.335778 120.744170" stroke-width="0.500000" />
<path stroke="#005fe8" stroke-opacity="0.501961" fill="none" d="M 124.493050 88.999151 Q 88.703521 87.574233, 83.075748 54.768075" stroke-width="0.500000" />
<path stroke="#ff0000" stroke-opacity="0.501961" fill="none" d="M 151.430995 107.774448 Q 161.701420 72.723416, 164.610277 47.782024" stroke-width="0.500000" />
<path stroke="#ffd600" stroke-opacity="0.501961" fill="none" d="M 164.849870 114.647607 Q 189.708482 97.333568, 167.837275 46.935859" stroke-width="0.500000" />
<path stroke="#ffffff" stroke-opacity="0.501961" fill="none" d="M 262.078470 140.656804 Q 34.776967 159.000000, 31.358380 -16.000000" stroke-width="0.500000" />
<path stroke="#bb021f" stroke-opacity="0.501961" fill="none" d="M 156.275411 116.744676 Q 162.473918 47.061746, 199.710837 17.956853" stroke-width="0.500000" />
<path stroke="#1e7ce9" stroke-opacity="0.501961" fill="none" d="M 76.433771 82.159045 Q 176.916466 64.709703, 123.010501 -16.000000" stroke-width="0.500000" />
<path stroke="#1974e8" stroke-opacity="0.501961" fill="none" d="M 81.381938 77.971159 Q 155.504682 17.186345, 126.880447 -16.000000" stroke-width="0.500000" />
<path stroke="#35561e" stroke-opacity="0.501961" fill="none" d="M 180.641279 22.718515 Q 165.081391 110.517599, 161.680621 135.522626" stroke-width="0.500000" />
<path stroke="#217ae7" stroke-opacity="0.501961" fill="none" d="M 67.239977 -16.000000 Q 152.866985 34.349834, 83.877872 89.395792" stroke-width="0.500000" />
<path stroke="#ffc900" stroke-opacity="0.501961" fill="none" d="M 156.511419 121.117561 Q 185.749272 100.554032, 168.822228 46.518690" stroke-width="0.500000" />
<path stroke="#2077e2" stroke-opacity="0.501961" fill="none" d="M 89.407820 8.302809 Q 131.395000 2.884060, 155.731007 68.118538" stroke-width="0.500000" />
<path stroke="#0061ea" stroke-opacity="0.501961" fill="none" d="M 110.809079 92.155138 Q 110.414325 55.826256, 70.085034 73.747349" stroke-width="0.500000" />
<path stroke="#00be12" stroke-opacity="0.501961" fill="none" d="M 174.453562 123.703808 Q 195.532125 103.138611, 173.790073 35.006784" stroke-width="0.500000" />
<path stroke="#000091" stroke-opacity="0.501961" fill="none" d="M 153.272144 114.626862 Q 171.746235 84.895170, 167.306721 43.208152" stroke-width="0.500000" />
<path stroke="#1272e4" stroke-opacity="0.501961" fill="none" d="M 143.821234 67.584090 Q 103.763050 53.867736, 100.760432 -16.000000" stroke-width="0.500000" />
<path stroke="#ffffff" stroke-opacity="0.501961" fill="none" d="M 267.052578 142.686827 Q 35.134893 145.237602, 0.234771 -16.000000" stroke-width="0.500000" />
<path stroke="#008e00" stroke-opacity="0.501961" fill="none" d="M 179.217404 68.440132 Q 191.120288 106.798893, 161.924328 136.584629" stroke-width="0.500000" />
<path stroke="#0067ea" stroke-opacity="0.501961" fill="none" d="M 122.170923 88.607970 Q 94.258883 94.162923, 80.034982 54.841086" stroke-width="0.500000" />
<path stroke="#e20000" stroke-opacity="0.501961" fill="none" d="M 167.388663 67.776539 Q 145.407234 110.771493, 157.592289 118.919939" stroke-width="0.500000" />
<path stroke="#2973db" stroke-opacity="0.501961" fill="none" d="M 198.445945 15.859479 Q 114.355112 85.093915, 85.790193 -16.000000" stroke-width="0.500000" />
<path stroke="#006bec" stroke-opacity="0.501961" fill="none" d="M 113.721635 93.962204 Q 107.219475 48.441545, 73.198752 69.263631" stroke-width="0.500000" />
<path stroke="#247de8" stroke-opacity="0.501961" fill="none" d="M 126.580401 -5.817270 Q 154.014806 80.087444, 68.424392 79.154439" stroke-width="0.500000" />
<path stroke="#09c61e" stroke-opacity="0.501961" fill="none" d="M 214.505857 -16.000000 Q 152.977638 42.022103, 186.430480 75.018897" stroke-width="0.500000" />
<path stroke="#2c86e9" stroke-opacity="0.501961" fill="none" d="M 141.688880 2.518244 Q 174.910041 78.224612, 79.910010 79.982481" stroke-width="0.500000" />
<path stroke="#008f00" stroke-opacity="0.501961" fill="none" d="M 179.739576 75.114641 Q 205.172235 91.503739, 161.072189 136.652721" stroke-width="0.500000" />
<path stroke="#00003c" stroke-opacity="0.501961" fill="none" d="M 171.039370 71.455149 Q 138.268540 129.271269, 186.897565 159.000000" stroke-width="0.500000" />
<path stroke="#ff0000" stroke-opacity="0.501961" fill="none" d="M 161.438826 52.104171 Q 165.423654 107.782592, 148.374525 106.205709" stroke-width="0.500000" />
<path stroke="#ffffff" stroke-opacity="0.501961" fill="none" d="M 170.048266 134.213658 Q 271.000000 156.704223, 252.575960 7.130286" stroke-width="0.500000" />
<path stroke="#ffffff" stroke-opacity="0.501961" fill="none" d="M 51.663299 -16.000000 Q 10.293670 159.000000, 271.000000 141.846477" stroke-width="0.500000" />
<path stroke="#00aa08" stroke-opacity="0.501961" fill="none" d="M 171.852744 33.137598 Q 195.849082 108.957729, 159.299630 123.123441" stroke-width="0.500000" />
<path stroke="#ffc900" stroke-opacity="0.501961" fill="none" d="M 160.018779 119.531357 Q 171.917964 93.255179, 179.985982 63.440617" stroke-width="0.500000" />
<path stroke="#2983e9" stroke-opacity="0.501961" fill="none" d="M 131.660320 -1.758740 Q 179.464259 69.177739, 78.687936 85.350054" stroke-width="0.500000" />
<path stroke="#000071" stroke-opacity="0.501961" fill="none" d="M 167.462739 47.240145 Q 176.288060 104.337099, 154.780452 112.271479" stroke-width="0.500000" />
<path stroke="#ffffff" stroke-opacity="0.501961" fill="none" d="M 271.000000 133.553759 Q 36.462001 157.493942, 39.736885 -16.000000" stroke-width="0.500000" />
<path stroke="#ffffff" stroke-opacity="0.501961" fill="none" d="M -16.000000 133.824365 Q 195.263478 159.000000, 264.568488 98.892903" stroke-width="0.500000" />
<path stroke="#ffffff" stroke-opacity="0.501961" fill="none" d="M 0.069781 140.773994 Q 259.699518 159.000000, 255.763444 82.261209" stroke-width="0.500000" />
<path stroke="#2b7fe9" stroke-opacity="0.501961" fill="none" d="M 92.846422 91.853930 Q 72.644877 58.068934, 175.395981 -16.000000" stroke-width="0.500000" />
<path stroke="#ffd400" stroke-opacity="0.501961" fill="none" d="M 159.643931 114.731784 Q 191.520044 109.652728, 170.202869 47.726069" stroke-width="0.500000" />
<path stroke="#ffffff" stroke-opacity="0.501961" fill="none" d="M -13.934061 138.756278 Q 253.451854 158.596538, 253.578507 85.194608" stroke-width="0.500000" />
<path stroke="#ffca00" stroke-opacity="0.501961" fill="none" d="M 169.326899 58.236647 Q 186.088163 75.731377, 156.999723 122.305557" stroke-width="0.500000" />
<path stroke="#06064f" stroke-opacity="0.501961" fill="none" d="M 166.956078 147.403699 Q 164.394178 112.374858, 167.362062 45.081371" stroke-width="0.500000" />
<path stroke="#0a6fe4" stroke-opacity="0.501961" fill="none" d="M 104.779737 -16.000000 Q 142.715534 59.203012, 161.641618 50.947616" stroke-width="0.500000" />
<path stroke="#1872e6" stroke-opacity="0.501961" fill="none" d="M 80.442802 80.268908 Q 141.596531 50.592902, 83.585898 -16.000000" stroke-width="0.500000" />
<path stroke="#005a00" stroke-opacity="0.501961" fill="none" d="M 170.862332 143.127838 Q 152.610627 117.486176, 187.246690 100.207769" stroke-width="0.500000" />
<path stroke="#006ae8" stroke-opacity="0.501961" fill="none" d="M 123.554964 100.039041 Q 89.190940 63.746243, 72.874171 67.324603" stroke-width="0.500000" />
<path stroke="#006deb" stroke-opacity="0.501961" fill="none" d="M 95.484002 54.759398 Q 77.336508 89.338812, 119.998179 91.047311" stroke-width="0.500000" />
<path stroke="#ffffff" stroke-opacity="0.501961" fill="none" d="M 9.542374 143.988836 Q -16.000000 -3.801909, 89.104578 -1.282486" stroke-width="0.500000" />
<path stroke="#050007" stroke-opacity="0.501961" fill="none" d="M 158.785360 100.774746 Q 147.029363 110.426327, 171.884952 148.108719" stroke-width="0.500000" />
<path stroke="#ff0000" stroke-opacity="0.501961" fill="none" d="M 161.597393 53.306788 Q 172.086427 75.546052, 149.417920 106.078736" stroke-width="0.500000" />
<path stroke="#297ce8" stroke-opacity="0.501961" fill="none" d="M 174.043569 -16.000000 Q 149.915760 3.413468, 73.716833 81.228687" stroke-width="0.500000" />
<path stroke="#ffffff" stroke-opacity="0.501961" fill="none" d="M 252.779360 19.909428 Q 271.000000 156.656556, 109.096731 134.717847" stroke-width="0.500000" />
<path stroke="#ffffff" stroke-opacity="0.501961" fill="none" d="M -13.853019 23.500527 Q 50.457238 85.351903, 172.789695 147.703711" stroke-width="0.500000" />
<path stroke="#1445cd" stroke-opacity="0.501961" fill="none" d="M 29.628653 -9.232653 Q 192.299172 -16.000000, 165.385226 100.345334" stroke-width="0.500000" />
<path stroke="#ffffff" stroke-opacity="0.501961" fill="none" d="M 252.262300 34.989391 Q 271.000000 154.800562, 175.953720 138.700705" stroke-width="0.500000" />
<path stroke="#ff000e" stroke-opacity="0.501961" fill="none" d="M 179.323434 34.641428 Q 195.260335 25.600566, 198.714403 18.656297" stroke-width="0.500000" />
<path stroke="#1a77e8" stroke-opacity="0.501961" fill="none" d="M 143.699788 69.924550 Q 151.965051 2.127739, 90.347108 6.517014" stroke-width="0.500000" />
<path stroke="#0068e4" stroke-opacity="0.501961" fill="none" d="M 154.688463 42.268177 Q 104.599889 23.042247, 124.829211 -16.000000" stroke-width="0.500000" />
<path stroke="#ffffff" stroke-opacity="0.501961" fill="none" d="M 5.780789 -11.094539 Q -16.000000 112.880694, 254.613397 140.891761" stroke-width="0.500000" />
<path stroke="#348ae7" stroke-opacity="0.501961" fill="none" d="M 74.184150 69.553346 Q 181.849243 87.543144, 146.128721 -16.000000" stroke-width="0.500000" />
<path stroke="#fffeff" stroke-opacity="0.501961" fill="none" d="M 255.334870 129.711670 Q 3.651010 124.431601, 2.991529 -16.000000" stroke-width="0.500000" />
<path stroke="#ffffff" stroke-opacity="0.501961" fill="none" d="M 32.537970 -15.153934 Q 38.368333 159.000000, 271.000000 138.789685" stroke-width="0.500000" />
<path stroke="#800003" stroke-opacity="0.501961" fill="none" d="M 188.029798 159.000000 Q 141.454160 128.392814, 166.968985 61.340232" stroke-width="0.500000" />
<path stroke="#fdc600" stroke-opacity="0.501961" fill="none" d="M 153.250525 125.885446 Q 181.263445 113.312681, 170.941686 36.276989" stroke-width="0.500000" />
<path stroke="#00a705" stroke-opacity="0.501961" fill="none" d="M 173.257273 50.524090 Q 200.031835 105.732534, 160.877040 126.901030" stroke-width="0.500000" />
<path stroke="#ffffff" stroke-opacity="0.501961" fill="none" d="M -1.293145 139.068716 Q 252.572456 154.247784, 255.526114 67.250385" stroke-width="0.500000" />
<path stroke="#0068e8" stroke-opacity="0.501961" fill="none" d="M 122.014509 87.523512 Q 82.038569 82.554556, 88.807682 51.773469" stroke-width="0.500000" />
<path stroke="#2364d8" stroke-opacity="0.501961" fill="none" d="M 116.690974 -0.365709 Q 141.865813 67.720362, 200.171535 14.785081" stroke-width="0.500000" />
<path stroke="#049900" stroke-opacity="0.501961" fill="none" d="M 180.235738 64.949568 Q 182.738995 100.812694, 165.525879 136.733988" stroke-width="0.500000" />
<path stroke="#ffffff" stroke-opacity="0.501961" fill="none" d="M 173.475771 141.908396 Q 265.941759 159.000000, 249.848977 13.596088" stroke-width="0.500000" />
<path stroke="#ffffff" stroke-opacity="0.501961" fill="none" d="M 99.241953 16.865318 Q -13.017539 -0.230973, 15.417532 144.913911" stroke-width="0.500000" />
<path stroke="#00a809" stroke-opacity="0.501961" fill="none" d="M 175.302084 55.054919 Q 203.384450 113.590063, 158.615394 122.755311" stroke-width="0.500000" />
<path stroke="#ffffff" stroke-opacity="0.501961" fill="none" d="M 2.900952 118.980533 Q -8.624632 -16.000000, 96.813222 20.345579" stroke-width="0.500000" />
<path stroke="#ffffff" stroke-opacity="0.501961" fill="none" d="M 15.602686 158.463099 Q -16.000000 -2.313611, 79.773888 4.579571" stroke-width="0.500000" />
<path stroke="#ffffff" stroke-opacity="0.501961" fill="none" d="M 168.714846 134.474291 Q 264.376204 95.383825, 254.303791 0.042928" stroke-width="0.500000" />
<path stroke="#ffffff" stroke-opacity="0.501961" fill="none" d="M -0.206900 12.843572 Q 106.923583 -16.000000, 162.573121 143.831616" stroke-width="0.500000" />
<path stroke="#ffffff" stroke-opacity="0.501961" fill="none" d="M 171.288480 124.931009 Q 264.627659 144.337175, 247.465165 -3.521199" stroke-width="0.500000" />
<path stroke="#ffe700" stroke-opacity="0.501961" fill="none" d="M 175.161215 108.365220 Q 165.188726 77.781713, 179.570628 69.180745" stroke-width="0.500000" />
<path stroke="#2b7fe4" stroke-opacity="0.501961" fill="none" d="M 146.476227 73.703301 Q 174.904155 -8.254398, 90.437098 5.682876" stroke-width="0.500000" />
<path stroke="#ffffff" stroke-opacity="0.501961" fill="none" d="M 7.770150 145.779325 Q -16.000000 3.477372, 97.155743 21.947302" stroke-width="0.500000" />
<path stroke="#ff0000" stroke-opacity="0.501961" fill="none" d="M 161.945438 55.170796 Q 161.775335 77.467134, 151.924924 109.269535" stroke-width="0.500000" />
<path stroke="#00008f" stroke-opacity="0.501961" fill="none" d="M 153.686864 113.242366 Q 179.873693 69.525173, 167.540372 56.662399" stroke-width="0.500000" />
<path stroke="#fffeff" stroke-opacity="0.501961" fill="none" d="M 15.956732 47.817582 Q 151.574988 6.011228, 152.837003 159.000000" stroke-width="0.500000" />
<path stroke="#297be4" stroke-opacity="0.501961" fill="none" d="M 75.950050 80.731175 Q 145.760124 60.353774, 94.766576 4.268202" stroke-width="0.500000" />
<path stroke="#ffffff" stroke-opacity="0.501961" fill="none" d="M 90.780020 14.185998 Q -16.000000 14.930430, 19.464311 151.587597" stroke-width="0.500000" />
<path stroke="#ffffff" stroke-opacity="0.501961" fill="none" d="M 170.101980 131.228948 Q 221.629776 67.800069, 259.199434 147.625122" stroke-width="0.500000" />
<path stroke="#ffd300" stroke-opacity="0.501961" fill="none" d="M 169.747214 49.513475 Q 186.148745 96.398047, 162.362350 119.612668" stroke-width="0.500000" />
<path stroke="#046de9" stroke-opacity="0.501961" fill="none" d="M 110.676194 93.985076 Q 106.236358 52.560716, 71.540260 70.120320" stroke-width="0.500000" />
<path stroke="#2b82e8" stroke-opacity="0.501961" fill="none" d="M 118.643304 -16.000000 Q 166.560254 71.022808, 78.452328 82.330163" stroke-width="0.500000" />
<path stroke="#fffeff" stroke-opacity="0.501961" fill="none" d="M 13.801568 -9.851879 Q 184.022176 69.852875, 143.335996 154.911794" stroke-width="0.500000" />
<path stroke="#fffbff" stroke-opacity="0.501961" fill="none" d="M 47.811095 -16.000000 Q -1.459187 142.978961, 253.076331 138.443731" stroke-width="0.500000" />
<path stroke="#00bd1c" stroke-opacity="0.501961" fill="none" d="M 173.901603 49.316138 Q 208.131303 101.241051, 168.240050 116.313430" stroke-width="0.500000" />
<path stroke="#ffffff" stroke-opacity="0.501961" fill="none" d="M 252.407270 55.620272 Q 271.000000 157.670794, 175.748977 126.758072" stroke-width="0.500000" />
<path stroke="#ffffff" stroke-opacity="0.501961" fill="none" d="M 168.295340 134.006254 Q 228.441846 71.689715, 259.613194 152.922799" stroke-width="0.500000" />
<path stroke="#ffffff" stroke-opacity="0.501961" fill="none" d="M 131.439405 142.596436 Q 264.807493 151.606681, 250.783492 19.609790" stroke-width="0.500000" />
<path stroke="#fffeff" stroke-opacity="0.501961" fill="none" d="M -5.182800 111.454248 Q 12.592279 159.000000, 266.128165 130.421044" stroke-width="0.500000" />
<path stroke="#3184e6" stroke-opacity="0.501961" fill="none" d="M 73.784614 73.472145 Q 163.332134 44.863104, 139.851183 0.201683" stroke-width="0.500000" />
<path stroke="#ffffff" stroke-opacity="0.501961" fill="none" d="M -2.443036 -0.995026 Q -10.340112 54.699609, 157.557917 135.736900" stroke-width="0.500000" />
<path stroke="#217ce7" stroke-opacity="0.501961" fill="none" d="M 144.614148 71.888134 Q 159.198137 0.876179, 75.002746 -1.776645" stroke-width="0.500000" />
<path stroke="#ffffff" stroke-opacity="0.501961" fill="none" d="M 84.469015 8.950841 Q 1.807430 5.747797, 18.960591 159.000000" stroke-width="0.500000" />
<path stroke="#00a119" stroke-opacity="0.501961" fill="none" d="M 187.784223 69.402470 Q 187.967153 82.840928, 165.851200 139.302124" stroke-width="0.500000" />
<path stroke="#1b70e2" stroke-opacity="0.501961" fill="none" d="M 155.520610 5.546913 Q 119.756237 51.942412, 92.562324 9.000176" stroke-width="0.500000" />
<path stroke="#ffffff" stroke-opacity="0.501961" fill="none" d="M 269.709253 121.624263 Q 189.098517 159.000000, 190.109988 71.792692" stroke-width="0.500000" />
<path stroke="#860009" stroke-opacity="0.501961" fill="none" d="M 172.959608 146.465489 Q 137.738992 107.071309, 166.425207 69.646350" stroke-width="0.500000" />
<path stroke="#3287e9" stroke-opacity="0.501961" fill="none" d="M 120.760593 -16.000000 Q 170.555256 73.024211, 81.742380 86.805780" stroke-width="0.500000" />
<path stroke="#1a1d1b" stroke-opacity="0.501961" fill="none" d="M 152.158930 103.183274 Q 155.309142 131.948399, 179.862100 159.000000" stroke-width="0.500000" />
<path stroke="#ffd100" stroke-opacity="0.501961" fill="none" d="M 168.484913 46.411551 Q 190.820765 103.216070, 158.962170 114.394525" stroke-width="0.500000" />
<path stroke="#ffffff" stroke-opacity="0.501961" fill="none" d="M 87.884298 12.153199 Q -16.000000 1.726211, 11.438401 147.371461" stroke-width="0.500000" />
<path stroke="#2a7de5" stroke-opacity="0.501961" fill="none" d="M 99.998200 0.911110 Q 135.925334 68.972520, 73.303817 77.653928" stroke-width="0.500000" />
<path stroke="#ffffff" stroke-opacity="0.501961" fill="none" d="M 256.372121 147.997098 Q 223.127108 78.520008, 174.174922 131.325548" stroke-width="0.500000" />
<path stroke="#ffffff" stroke-opacity="0.501961" fill="none" d="M 170.388235 135.364063 Q 271.000000 120.400202, 241.823533 -2.640606" stroke-width="0.500000" />
<path stroke="#ffffff" stroke-opacity="0.501961" fill="none" d="M 71.743749 3.570596 Q -10.300194 -7.503548, 3.717322 159.000000" stroke-width="0.500000" />
<path stroke="#ffffff" stroke-opacity="0.501961" fill="none" d="M 169.942627 130.701316 Q 222.212378 63.686544, 262.700702 148.115531" stroke-width="0.500000" />
<path stroke="#ffffff" stroke-opacity="0.501961" fill="none" d="M 163.969906 159.000000 Q 137.032104 36.262866, 41.105557 -6.119002" stroke-width="0.500000" />
<path stroke="#fffdff" stroke-opacity="0.501961" fill="none" d="M 1.467186 55.514573 Q 123.641277 -16.000000, 160.526993 157.199469" stroke-width="0.500000" />
<path stroke="#0067e9" stroke-opacity="0.501961" fill="none" d="M 109.353601 93.280597 Q 105.998144 58.662291, 76.488304 73.868601" stroke-width="0.500000" />
<path stroke="#2979e5" stroke-opacity="0.501961" fill="none" d="M 71.739630 78.065546 Q 132.836821 51.973574, 98.350927 9.918437" stroke-width="0.500000" />
<path stroke="#2e82e7" stroke-opacity="0.501961" fill="none" d="M 75.350628 83.418483 Q 167.180955 57.288917, 109.416702 -16.000000" stroke-width="0.500000" />
<path stroke="#ffffff" stroke-opacity="0.501961" fill="none" d="M 97.332207 18.727118 Q -16.000000 11.480841, 21.493395 148.894648" stroke-width="0.500000" />
<path stroke="#ffffff" stroke-opacity="0.501961" fill="none" d="M 1.610074 11.698953 Q -9.169987 55.081911, 169.958876 147.513332" stroke-width="0.500000" />
<path stroke="#ffffff" stroke-opacity="0.501961" fill="none" d="M 197.320519 55.050011 Q 177.464215 150.473702, 271.000000 120.078767" stroke-width="0.500000" />
<path stroke="#ffca00" stroke-opacity="0.501961" fill="none" d="M 160.918279 120.904760 Q 166.251679 114.234759, 178.216091 61.769914" stroke-width="0.500000" />
<path stroke="#fbf9ff" stroke-opacity="0.501961" fill="none" d="M 154.041510 142.003865 Q 112.411000 -16.000000, 4.519240 27.094729" stroke-width="0.500000" />
<path stroke="#005fe6" stroke-opacity="0.501961" fill="none" d="M 86.513595 59.283840 Q 82.672496 90.768837, 113.430374 80.623617" stroke-width="0.500000" />
<path stroke="#ffffff" stroke-opacity="0.501961" fill="none" d="M 248.896762 0.152983 Q 271.000000 84.417491, 168.904355 133.047230" stroke-width="0.500000" />
<path stroke="#fffcff" stroke-opacity="0.501961" fill="none" d="M 271.000000 140.229150 Q 17.771270 159.000000, 39.575693 -16.000000" stroke-width="0.500000" />
<path stroke="#fefeff" stroke-opacity="0.501961" fill="none" d="M 47.306545 -16.000000 Q 12.139360 152.567834, 271.000000 127.996286" stroke-width="0.500000" />
<path stroke="#ffffff" stroke-opacity="0.501961" fill="none" d="M 170.672614 140.860539 Q 270.913193 159.000000, 249.847791 55.646873" stroke-width="0.500000" />
<path stroke="#e7e327" stroke-opacity="0.501961" fill="none" d="M 171.978666 48.339436 Q 164.351449 40.107362, 199.890330 5.935144" stroke-width="0.500000" />
<path stroke="#ffffff" stroke-opacity="0.501961" fill="none" d="M 172.462484 123.042076 Q 242.882263 142.535390, 254.973892 -11.332420" stroke-width="0.500000" />
<path stroke="#ffffff" stroke-opacity="0.501961" fill="none" d="M 192.408902 78.643350 Q 179.408591 159.000000, 257.176301 133.873858" stroke-width="0.500000" />
<path stroke="#210f07" stroke-opacity="0.501961" fill="none" d="M 149.668733 103.534764 Q 179.513849 152.762287, 170.657427 159.000000" stroke-width="0.500000" />
<path stroke="#016dea" stroke-opacity="0.501961" fill="none" d="M 90.967561 54.785563 Q 89.520617 89.236041, 118.083330 88.082808" stroke-width="0.500000" />
<path stroke="#015fdf" stroke-opacity="0.501961" fill="none" d="M 126.633146 33.031808 Q 121.059169 -3.370155, 150.714245 2.164344" stroke-width="0.500000" />
<path stroke="#ffffff" stroke-opacity="0.501961" fill="none" d="M 20.755514 142.777641 Q 7.817865 5.740703, 90.865601 17.952196" stroke-width="0.500000" />
<path stroke="#d8000b" stroke-opacity="0.501961" fill="none" d="M 164.201094 54.097316 Q 168.675340 84.295907, 152.759289 107.309583" stroke-width="0.500000" />
<path stroke="#ffffff" stroke-opacity="0.501961" fill="none" d="M 0.153826 141.394084 Q -14.958915 -8.298527, 80.835988 6.932018" stroke-width="0.500000" />
<path stroke="#15c83c" stroke-opacity="0.501961" fill="none" d="M 214.970122 -16.000000 Q 167.473702 31.999831, 174.227607 49.734680" stroke-width="0.500000" />
<path stroke="#005100" stroke-opacity="0.501961" fill="none" d="M 185.902726 104.809835 Q 149.426243 115.347850, 171.673537 149.408455" stroke-width="0.500000" />
<path stroke="#317fe1" stroke-opacity="0.501961" fill="none" d="M 152.233244 61.456032 Q 167.521131 -16.000000, 95.942657 6.020695" stroke-width="0.500000" />
<path stroke="#fffeff" stroke-opacity="0.501961" fill="none" d="M 89.896849 12.918989 Q -14.794199 0.512933, 14.256705 159.000000" stroke-width="0.500000" />
<path stroke="#de0c39" stroke-opacity="0.501961" fill="none" d="M 198.995449 8.327989 Q 200.729742 30.068898, 175.187735 33.357123" stroke-width="0.500000" />
<path stroke="#000092" stroke-opacity="0.501961" fill="none" d="M 166.566399 45.617699 Q 175.006133 110.464045, 151.712694 109.663734" stroke-width="0.500000" />
<path stroke="#3e8ee9" stroke-opacity="0.501961" fill="none" d="M 74.878212 78.158373 Q 172.834332 94.532327, 139.367974 1.625208" stroke-width="0.500000" />
<path stroke="#f7c100" stroke-opacity="0.501961" fill="none" d="M 170.151721 54.912724 Q 185.078250 107.633636, 153.368766 124.629951" stroke-width="0.500000" />
<path stroke="#ffffff" stroke-opacity="0.501961" fill="none" d="M 253.203707 4.020588 Q 271.000000 144.694835, 172.394907 125.135428" stroke-width="0.500000" />
<path stroke="#fffdff" stroke-opacity="0.501961" fill="none" d="M 2.042510 14.155240 Q 19.641555 68.800529, 152.264298 131.266285" stroke-width="0.500000" />
<path stroke="#008c0e" stroke-opacity="0.501961" fill="none" d="M 159.816680 134.257602 Q 204.887525 100.754218, 177.726797 77.290177" stroke-width="0.500000" />
<path stroke="#287ae3" stroke-opacity="0.501961" fill="none" d="M 163.694101 16.499892 Q 108.787828 56.726783, 94.276176 1.956817" stroke-width="0.500000" />
<path stroke="#ffffff" stroke-opacity="0.501961" fill="none" d="M 252.613926 145.598934 Q 214.021980 74.239430, 169.641101 134.269291" stroke-width="0.500000" />
<path stroke="#ffffff" stroke-opacity="0.501961" fill="none" d="M 255.841409 119.428207 Q 190.477016 67.546021, 171.496003 147.461175" stroke-width="0.500000" />
<path stroke="#ffffff" stroke-opacity="0.501961" fill="none" d="M 268.299370 137.816994 Q 176.588320 144.592960, 194.894573 51.993323" stroke-width="0.500000" />
<path stroke="#2181ec" stroke-opacity="0.501961" fill="none" d="M 111.266687 93.143381 Q 115.982330 50.768503, 72.052672 63.625221" stroke-width="0.500000" />
<path stroke="#ffffff" stroke-opacity="0.501961" fill="none" d="M 85.067134 6.997535 Q -16.000000 30.958915, 28.859702 159.000000" stroke-width="0.500000" />
<path stroke="#1678ea" stroke-opacity="0.501961" fill="none" d="M 86.932214 56.466443 Q 71.796121 94.857082, 113.423823 89.879576" stroke-width="0.500000" />
<path stroke="#207ae7" stroke-opacity="0.501961" fill="none" d="M 147.321129 63.503763 Q 166.781596 4.993710, 92.671508 -3.866941" stroke-width="0.500000" />
<path stroke="#ffffff" stroke-opacity="0.501961" fill="none" d="M 170.602543 135.502056 Q 248.906254 159.000000, 254.481918 39.851068" stroke-width="0.500000" />
<path stroke="#579be9" stroke-opacity="0.501961" fill="none" d="M 50.215984 87.949568 Q 184.354862 84.759494, 150.835096 -2.227610" stroke-width="0.500000" />
<path stroke="#ffffff" stroke-opacity="0.501961" fill="none" d="M 247.864336 51.795115 Q 267.940926 153.317661, 172.061590 130.650143" stroke-width="0.500000" />
<path stroke="#ff0009" stroke-opacity="0.501961" fill="none" d="M 167.426962 66.536882 Q 157.179095 74.820497, 151.762130 109.780311" stroke-width="0.500000" />
<path stroke="#00a519" stroke-opacity="0.501961" fill="none" d="M 158.891410 127.124523 Q 194.491101 105.164534, 177.185027 46.946431" stroke-width="0.500000" />
<path stroke="#fffbff" stroke-opacity="0.501961" fill="none" d="M 90.018405 8.894562 Q -16.000000 -5.753224, 4.122514 128.260976" stroke-width="0.500000" />
<path stroke="#3184e4" stroke-opacity="0.501961" fill="none" d="M 156.947022 68.234140 Q 162.164716 48.027837, 105.988005 1.024105" stroke-width="0.500000" />
<path stroke="#f9f9ff" stroke-opacity="0.501961" fill="none" d="M 156.710132 149.190250 Q 142.039388 -16.000000, -15.490593 65.323396" stroke-width="0.500000" />
<path stroke="#ffffff" stroke-opacity="0.501961" fill="none" d="M 131.396230 142.479805 Q 261.005534 159.000000, 250.006965 36.091922" stroke-width="0.500000" />
<path stroke="#fccd00" stroke-opacity="0.501961" fill="none" d="M 158.154591 119.836316 Q 192.610905 69.744690, 173.004465 59.128277" stroke-width="0.500000" />
<path stroke="#c3103d" stroke-opacity="0.501961" fill="none" d="M 176.348735 36.256898 Q 215.646520 12.529295, 191.424636 -7.864830" stroke-width="0.500000" />
<path stroke="#ffffff" stroke-opacity="0.501961" fill="none" d="M 199.253253 50.835948 Q 187.548716 150.384506, 263.869749 132.023648" stroke-width="0.500000" />
<path stroke="#fffcff" stroke-opacity="0.501961" fill="none" d="M 90.748083 16.645116 Q 1.898591 16.503074, 26.348713 149.488913" stroke-width="0.500000" />
<path stroke="#3983e3" stroke-opacity="0.501961" fill="none" d="M 164.090698 15.178325 Q 108.864592 55.540165, 86.982951 -2.117642" stroke-width="0.500000" />
<path stroke="#f9c400" stroke-opacity="0.501961" fill="none" d="M 173.282169 59.592944 Q 190.679299 72.434863, 153.418400 121.599086" stroke-width="0.500000" />
<path stroke="#ffffff" stroke-opacity="0.501961" fill="none" d="M 168.775799 136.871315 Q 234.566652 75.723826, 258.630222 147.035364" stroke-width="0.500000" />
<path stroke="#ffe200" stroke-opacity="0.501961" fill="none" d="M 171.617134 106.375044 Q 167.904080 83.735725, 176.558677 67.650153" stroke-width="0.500000" />
<path stroke="#ffffff" stroke-opacity="0.501961" fill="none" d="M 247.604864 44.904894 Q 246.950942 122.294386, 171.082982 134.086695" stroke-width="0.500000" />
<path stroke="#3a7bdb" stroke-opacity="0.501961" fill="none" d="M 91.945286 -5.026320 Q 119.959438 79.496182, 198.259250 15.063787" stroke-width="0.500000" />
<path stroke="#ff0000" stroke-opacity="0.501961" fill="none" d="M 150.383180 105.181682 Q 158.847852 103.105404, 164.214727 60.046043" stroke-width="0.500000" />
<path stroke="#ffffff" stroke-opacity="0.501961" fill="none" d="M 270.770040 138.963676 Q 206.564190 138.607623, 179.994952 36.823345" stroke-width="0.500000" />
<path stroke="#ffffff" stroke-opacity="0.501961" fill="none" d="M 177.374902 131.756491 Q 257.810461 159.000000, 255.735889 89.844439" stroke-width="0.500000" />
<path stroke="#387ddd" stroke-opacity="0.501961" fill="none" d="M 95.169083 10.563526 Q 158.394858 -16.000000, 160.487792 32.737016" stroke-width="0.500000" />
<path stroke="#ffffff" stroke-opacity="0.501961" fill="none" d="M 202.780657 63.958562 Q 165.530839 140.064798, 253.793306 138.530011" stroke-width="0.500000" />
<path stroke="#fffaff" stroke-opacity="0.501961" fill="none" d="M 3.054657 -8.867267 Q -16.000000 147.667294, 48.614572 143.132943" stroke-width="0.500000" />
<path stroke="#ffe10c" stroke-opacity="0.501961" fill="none" d="M 187.112190 18.479836 Q 196.481234 17.508779, 202.236116 -2.055165" stroke-width="0.500000" />
<path stroke="#fff9ff" stroke-opacity="0.501961" fill="none" d="M 58.133859 -0.964785 Q -16.000000 111.999017, 66.790510 139.960714" stroke-width="0.500000" />
<path stroke="#ffffff" stroke-opacity="0.501961" fill="none" d="M 21.118723 159.000000 Q -10.589960 19.367630, 83.763572 10.521260" stroke-width="0.500000" />
<path stroke="#fffdff" stroke-opacity="0.501961" fill="none" d="M 251.417551 -16.000000 Q 244.064470 133.799017, 176.352268 123.437195" stroke-width="0.500000" />
<path stroke="#009012" stroke-opacity="0.501961" fill="none" d="M 185.565924 64.630761 Q 194.735834 101.970404, 161.341822 135.853442" stroke-width="0.500000" />
<path stroke="#ffffff" stroke-opacity="0.501961" fill="none" d="M 193.173487 44.389929 Q 188.012557 145.368326, 258.691251 121.867967" stroke-width="0.500000" />
<path stroke="#ffd400" stroke-opacity="0.501961" fill="none" d="M 170.398572 54.869025 Q 183.434767 103.738064, 169.996431 110.436228" stroke-width="0.500000" />
<path stroke="#0367e6" stroke-opacity="0.501961" fill="none" d="M 104.292972 54.532155 Q 75.000024 73.918311, 84.817371 87.904503" stroke-width="0.500000" />
<path stroke="#4186de" stroke-opacity="0.501961" fill="none" d="M 97.708665 -12.680265 Q 111.211066 82.039903, 161.268251 59.000637" stroke-width="0.500000" />
<path stroke="#0e6ce2" stroke-opacity="0.501961" fill="none" d="M 134.813483 -2.202144 Q 109.612811 21.172822, 141.749539 40.428945" stroke-width="0.500000" />
<path stroke="#fffdff" stroke-opacity="0.501961" fill="none" d="M 16.274382 154.163663 Q -16.000000 -1.300142, 85.413823 10.005037" stroke-width="0.500000" />
<path stroke="#009513" stroke-opacity="0.501961" fill="none" d="M 164.553565 137.427250 Q 182.608099 92.733502, 185.654574 71.076179" stroke-width="0.500000" />
<path stroke="#fcf9ff" stroke-opacity="0.501961" fill="none" d="M 152.263895 141.699907 Q -16.000000 65.928122, 45.284604 -16.000000" stroke-width="0.500000" />
<path stroke="#ffffff" stroke-opacity="0.501961" fill="none" d="M 249.489821 48.767037 Q 271.000000 149.213318, 171.924655 125.822097" stroke-width="0.500000" />
<path stroke="#f5f5ff" stroke-opacity="0.501961" fill="none" d="M -9.863656 -12.137261 Q 190.012730 70.721060, 131.252888 154.270867" stroke-width="0.500000" />
<path stroke="#14be4d" stroke-opacity="0.501961" fill="none" d="M 210.584826 -16.000000 Q 168.459045 32.129725, 176.237885 49.323022" stroke-width="0.500000" />
<path stroke="#f1000a" stroke-opacity="0.501961" fill="none" d="M 163.471424 50.814531 Q 166.858423 99.025722, 149.317358 107.825901" stroke-width="0.500000" />
<path stroke="#fffaff" stroke-opacity="0.501961" fill="none" d="M 56.612244 141.021087 Q -10.642334 146.313331, 7.808977 -6.540741" stroke-width="0.500000" />
<path stroke="#4a8ee7" stroke-opacity="0.501961" fill="none" d="M 124.591363 -6.520817 Q 154.799252 74.025473, 47.058324 87.656953" stroke-width="0.500000" />
<path stroke="#1878ea" stroke-opacity="0.501961" fill="none" d="M 72.499307 66.378987 Q 94.666349 50.983520, 111.434779 96.073626" stroke-width="0.500000" />
<path stroke="#fffbff" stroke-opacity="0.501961" fill="none" d="M 191.764916 159.000000 Q -11.367943 66.427690, 10.362847 -7.906484" stroke-width="0.500000" />
<path stroke="#3e86e1" stroke-opacity="0.501961" fill="none" d="M 88.199414 5.729468 Q 165.579923 -16.000000, 153.844217 62.826249" stroke-width="0.500000" />
<path stroke="#fffbff" stroke-opacity="0.501961" fill="none" d="M 7.493255 159.000000 Q -16.000000 2.965903, 80.099849 5.394687" stroke-width="0.500000" />
<path stroke="#ffffff" stroke-opacity="0.501961" fill="none" d="M 83.362308 6.286152 Q -4.867478 25.472261, 26.968891 159.000000" stroke-width="0.500000" />
<path stroke="#ffffff" stroke-opacity="0.501961" fill="none" d="M 271.000000 117.076431 Q 188.326802 147.435616, 200.476902 60.734658" stroke-width="0.500000" />
<path stroke="#ffffff" stroke-opacity="0.501961" fill="none" d="M 260.300375 139.625002 Q 225.514851 70.110055, 168.798522 135.437042" stroke-width="0.500000" />
<path stroke="#ffffff" stroke-opacity="0.501961" fill="none" d="M 254.711828 -6.256878 Q 267.207300 75.068602, 152.257248 159.000000" stroke-width="0.500000" />
<path stroke="#2063da" stroke-opacity="0.501961" fill="none" d="M 173.235959 67.775440 Q 107.566699 -13.390174, 83.832031 -16.000000" stroke-width="0.500000" />
<path stroke="#ffffff" stroke-opacity="0.501961" fill="none" d="M 170.682820 159.000000 Q 179.117980 84.293553, 269.251606 126.563777" stroke-width="0.500000" />
<path stroke="#000498" stroke-opacity="0.501961" fill="none" d="M 152.514423 113.780544 Q 177.408099 69.631616, 170.069484 60.655760" stroke-width="0.500000" />
<path stroke="#1a7aea" stroke-opacity="0.501961" fill="none" d="M 113.165995 93.477634 Q 103.642524 47.934949, 73.352631 67.801929" stroke-width="0.500000" />
<path stroke="#0b6de8" stroke-opacity="0.501961" fill="none" d="M 90.757173 91.241749 Q 73.144115 61.892415, 101.154166 57.257956" stroke-width="0.500000" />
<path stroke="#ffffff" stroke-opacity="0.501961" fill="none" d="M 170.704942 139.347170 Q 269.436746 159.000000, 253.306150 80.303940" stroke-width="0.500000" />
</g>
</svg>