<svg xmlns="http://www.w3.org/2000/svg" version="1.1" width="1024" height="680">
<rect x="0" y="0" width="1024" height="680" fill="#959177" />
<g transform="scale(4.000000) translate(0.5 0.5)">
<polygon fill="#e4d916" fill-opacity="0.501961" points="88.242449,38.634665,181.967117,38.342440,164.848060,-4.180925,87.379081,-10.756944" />
<polygon fill="#2a0000" fill-opacity="0.501961" points="248.836980,178.755333,249.434540,140.521693,211.183642,138.399013,219.269919,185.000000" />
<polygon fill="#bbd7d5" fill-opacity="0.501961" points="110.983500,88.276616,114.665840,163.944056,95.662298,185.000000,55.480038,-12.182405" />
<polygon fill="#073129" fill-opacity="0.501961" points="222.924084,12.054183,221.178574,-16.000000,241.477165,13.515544,209.897328,145.264416" />
<polygon fill="#69baff" fill-opacity="0.501961" points="102.431662,60.443028,99.578414,39.568396,155.851032,41.387384,148.199012,66.076523" />
<polygon fill="#ceeac0" fill-opacity="0.501961" points="130.866787,69.689903,133.728122,118.296616,179.975795,112.521633,175.715318,73.478485" />
<polygon fill="#2a3b43" fill-opacity="0.501961" points="202.802997,57.786222,201.559150,-2.817995,187.859205,-0.427863,191.110459,152.654460" />
<polygon fill="#d7d2d4" fill-opacity="0.501961" points="31.578998,90.235720,-16.000000,52.516867,33.267389,181.405725,-16.000000,184.711356" />
<polygon fill="#88151e" fill-opacity="0.501961" points="62.542201,104.110814,98.686636,182.845566,90.184696,185.000000,51.914517,127.980240" />
<polygon fill="#3095b3" fill-opacity="0.501961" points="67.793218,6.858577,64.229439,66.799650,88.364291,67.801327,87.522915,-6.391660" />
<polygon fill="#f0ab74" fill-opacity="0.501961" points="38.764302,77.377240,119.231669,65.988585,129.089941,114.062163,43.479936,115.541991" />
<polygon fill="#0b5e85" fill-opacity="0.501961" points="32.905768,185.000000,24.561182,63.899390,61.158995,69.645498,43.934461,41.091814" />
<polygon fill="#6e3e18" fill-opacity="0.501961" points="149.209431,142.808486,117.820230,94.439174,111.290955,138.674439,7.891575,139.254264" />
<polygon fill="#1d6e3e" fill-opacity="0.501961" points="149.479185,121.256357,161.698794,113.367844,170.871172,121.594852,144.397526,185.000000" />
<polygon fill="#a1feea" fill-opacity="0.501961" points="32.631941,137.895401,54.994399,118.750728,7.012974,105.692402,19.269228,88.419273" />
<polygon fill="#443014" fill-opacity="0.501961" points="199.278575,119.364260,224.540491,146.518903,179.413995,135.288975,180.109225,185.000000" />
<polygon fill="#481a3d" fill-opacity="0.501961" points="45.173074,142.289201,22.729421,137.215456,6.263422,107.004479,-16.000000,140.690211" />
<polygon fill="#e2a67c" fill-opacity="0.501961" points="216.662211,10.321440,232.540713,184.141614,247.584729,88.345563,203.293282,46.845950" />
<polygon fill="#f61d15" fill-opacity="0.501961" points="5.827674,69.986897,17.003203,38.284382,25.842416,37.299074,27.195084,59.013096" />
<polygon fill="#e2f1f3" fill-opacity="0.501961" points="53.054067,154.262399,42.456234,140.117846,77.205957,142.457345,63.251912,156.321470" />
<polygon fill="#1f0000" fill-opacity="0.501961" points="254.608138,70.862101,227.517424,66.736780,271.000000,63.935183,253.631760,170.506296" />
<polygon fill="#8c2542" fill-opacity="0.501961" points="190.666750,18.185507,182.015729,123.200738,174.421333,20.579893,199.006792,87.112293" />
<polygon fill="#dfedd9" fill-opacity="0.501961" points="113.727672,130.996809,127.450713,185.000000,78.326176,69.050886,101.143628,68.195458" />
<polygon fill="#a94e56" fill-opacity="0.501961" points="58.221814,92.663631,66.623484,117.188719,95.319163,113.601141,94.634201,89.347671" />
<polygon fill="#d2c8df" fill-opacity="0.501961" points="193.275861,142.194996,215.992026,140.693916,206.126291,180.047057,194.154026,183.890929" />
<polygon fill="#572106" fill-opacity="0.501961" points="212.325178,44.123324,214.232376,156.196884,222.405120,185.000000,231.665643,177.942948" />
<polygon fill="#faffe5" fill-opacity="0.501961" points="41.420768,64.134599,44.782931,138.277353,50.394554,66.513261,45.298560,67.852084" />
<polygon fill="#c5cac7" fill-opacity="0.501961" points="271.000000,2.793968,243.801201,14.606171,243.126834,139.635481,223.168095,119.108093" />
<polygon fill="#643b64" fill-opacity="0.501961" points="36.494588,-16.000000,12.244675,-7.031144,20.363905,40.400324,36.903162,42.612499" />
<polygon fill="#d2ab29" fill-opacity="0.501961" points="141.966310,65.094510,131.614020,154.359248,146.840207,118.233760,145.436986,68.363854" />
<polygon fill="#acd9d4" fill-opacity="0.501961" points="209.762793,80.151075,156.335902,118.654998,192.564410,92.490747,214.068258,125.311214" />
<polygon fill="#300901" fill-opacity="0.501961" points="1.541162,67.279662,-11.545020,66.190197,44.734207,63.251674,83.527176,66.451171" />
<polygon fill="#00584a" fill-opacity="0.501961" points="238.361626,64.797611,237.034370,-6.845538,221.123592,-6.102143,223.518442,67.442243" />
<polygon fill="#d97c4a" fill-opacity="0.501961" points="256.400913,141.023359,212.468478,137.111389,214.593309,116.080730,271.000000,121.576305" />
<polygon fill="#f1aa1c" fill-opacity="0.501961" points="56.653347,54.569405,54.021220,-16.000000,60.595878,-16.000000,62.587828,63.238599" />
<polygon fill="#00725c" fill-opacity="0.501961" points="43.869459,33.500988,49.846867,47.520040,48.770232,-8.802134,41.351810,-16.000000" />
<polygon fill="#5da3eb" fill-opacity="0.501961" points="189.799455,67.742505,183.096166,7.895966,183.576354,54.369182,189.147455,130.885527" />
<polygon fill="#1c2b3b" fill-opacity="0.501961" points="153.629269,63.384728,136.086135,67.817971,138.831302,70.664627,102.680676,64.275175" />
<polygon fill="#87b0d8" fill-opacity="0.501961" points="87.404914,6.145767,82.053527,157.655806,70.294285,23.034124,73.782282,115.702222" />
<polygon fill="#59e0d6" fill-opacity="0.501961" points="31.665172,113.889247,57.569497,116.527830,25.843218,132.422169,29.816557,30.357361" />
<polygon fill="#a2cae4" fill-opacity="0.501961" points="41.011222,85.522581,37.235808,21.466300,55.175378,47.315851,55.123494,-0.934008" />
<polygon fill="#caa20c" fill-opacity="0.501961" points="104.409051,71.974291,103.866669,107.315259,118.954685,96.499548,111.044046,68.693803" />
<polygon fill="#14232d" fill-opacity="0.501961" points="30.892072,121.181682,28.988838,167.544915,30.938663,185.000000,37.254963,160.240099" />
<polygon fill="#da3321" fill-opacity="0.501961" points="228.982955,50.138681,211.475903,58.566440,205.772293,46.155728,218.584938,37.817708" />
<polygon fill="#1f525b" fill-opacity="0.501961" points="70.970997,143.522768,78.078891,135.947666,83.174097,177.655021,66.587767,162.596607" />
<polygon fill="#a07400" fill-opacity="0.501961" points="229.820172,184.625393,228.737141,141.968468,239.975721,133.350193,243.861415,185.000000" />
<polygon fill="#43b8c6" fill-opacity="0.501961" points="161.842510,122.119626,164.152367,78.845128,123.905394,51.800050,154.114663,39.619967" />
<polygon fill="#fbd7d5" fill-opacity="0.501961" points="-16.000000,56.699298,25.356048,70.766634,23.065877,85.893440,4.895345,49.535932" />
<polygon fill="#0b4e34" fill-opacity="0.501961" points="126.188025,135.932344,129.498898,140.234667,132.752258,96.345952,126.370268,77.328430" />
<polygon fill="#2ad1d2" fill-opacity="0.501961" points="93.608697,126.360747,95.593308,137.974308,106.066157,135.048607,104.515965,108.242055" />
<polygon fill="#000007" fill-opacity="0.501961" points="228.115451,185.000000,230.017961,142.038987,218.108291,139.858690,217.726672,185.000000" />
<polygon fill="#be0005" fill-opacity="0.501961" points="204.614023,111.119950,204.764648,115.160105,195.162783,110.459996,199.479433,140.100305" />
<polygon fill="#b60f0b" fill-opacity="0.501961" points="26.966956,138.979575,25.550442,109.407854,15.307242,138.134647,19.521317,107.190274" />
<polygon fill="#cadfd1" fill-opacity="0.501961" points="220.378463,39.478844,208.629980,43.951141,208.490520,7.520551,222.177225,33.337428" />
<polygon fill="#b70f20" fill-opacity="0.501961" points="39.196535,184.638795,47.277162,132.620117,49.917927,125.406250,48.230240,172.556774" />
<polygon fill="#c5ccd2" fill-opacity="0.501961" points="144.169394,141.018138,77.242949,183.994219,84.697441,185.000000,98.281281,141.544390" />
<polygon fill="#31b06c" fill-opacity="0.501961" points="210.414106,41.985583,204.406737,67.543173,193.510378,75.557822,197.959816,37.035042" />
<polygon fill="#06c3b6" fill-opacity="0.501961" points="249.042558,64.303610,262.048461,66.665811,256.360769,45.331324,251.591237,35.353662" />
<polygon fill="#394231" fill-opacity="0.501961" points="40.743927,108.067936,35.477244,23.336847,31.267839,107.606054,40.125403,119.495682" />
<polygon fill="#1d2b20" fill-opacity="0.501961" points="177.524946,141.485521,203.796600,140.132211,162.579564,137.535266,113.351088,141.007432" />
<polygon fill="#9ab1cf" fill-opacity="0.501961" points="156.226987,145.368286,180.198200,135.615891,173.048892,5.813396,170.186321,178.188286" />
<polygon fill="#194f33" fill-opacity="0.501961" points="185.280019,109.508586,179.943272,113.076420,176.773216,122.754451,186.726598,185.000000" />
<polygon fill="#eaaed4" fill-opacity="0.501961" points="101.145920,42.092347,113.642622,34.210747,116.086369,41.233305,100.759122,83.300654" />
<polygon fill="#d30614" fill-opacity="0.501961" points="90.434873,142.046397,81.481435,158.951553,81.905315,185.000000,89.459882,177.292065" />
<polygon fill="#e9b94c" fill-opacity="0.501961" points="172.930240,38.558164,156.895937,35.060487,155.865733,62.665665,169.401675,66.357217" />
<polygon fill="#54344f" fill-opacity="0.501961" points="170.444266,185.000000,166.121521,162.193468,143.949645,139.159504,150.166917,185.000000" />
<polygon fill="#bcdae0" fill-opacity="0.501961" points="238.681541,116.195551,242.075113,83.325388,242.986540,140.265785,228.479138,136.705200" />
<polygon fill="#c99a63" fill-opacity="0.501961" points="237.569064,101.699524,220.916513,96.084250,221.335219,68.944894,251.383278,68.523708" />
<polygon fill="#e1f2da" fill-opacity="0.501961" points="28.174317,163.089848,28.587027,143.612868,28.274726,142.611784,13.347926,140.781322" />
<polygon fill="#f57955" fill-opacity="0.501961" points="117.548057,77.331831,111.284642,93.775779,125.792701,127.144254,125.253202,67.221046" />
<polygon fill="#a30b00" fill-opacity="0.501961" points="51.516232,139.863066,71.669610,135.476384,73.306329,96.560851,68.334553,129.248781" />
<polygon fill="#15b18b" fill-opacity="0.501961" points="238.327804,32.215690,233.931431,68.065730,230.237863,44.725672,229.721004,-16.000000" />
<polygon fill="#a4fa85" fill-opacity="0.501961" points="26.754241,47.786324,33.838652,73.337402,38.620676,-16.000000,43.093884,32.136340" />
<polygon fill="#0081bf" fill-opacity="0.501961" points="51.103963,53.157284,46.394087,62.584472,42.275928,55.365386,44.817326,25.095964" />
<polygon fill="#d0e1fe" fill-opacity="0.501961" points="14.013001,26.019337,6.844490,21.549722,8.199973,17.578063,15.817799,-11.833820" />
<polygon fill="#cebcce" fill-opacity="0.501961" points="-3.252645,108.851408,25.551847,87.503222,6.870195,146.062973,8.065362,65.224816" />
<polygon fill="#cabf61" fill-opacity="0.501961" points="100.791300,42.518716,118.189038,36.220991,88.369573,-10.933279,88.091879,74.501334" />
<polygon fill="#924d60" fill-opacity="0.501961" points="-16.000000,40.404961,8.080636,49.170314,10.076693,107.708977,9.368068,-16.000000" />
<polygon fill="#b6d5c8" fill-opacity="0.501961" points="139.181823,119.987999,149.807137,136.231550,150.920625,78.335957,178.566323,116.727749" />
<polygon fill="#261408" fill-opacity="0.501961" points="118.800687,62.721115,121.000588,64.995307,159.906248,65.900299,103.064973,68.327389" />
<polygon fill="#574827" fill-opacity="0.501961" points="259.798579,161.769396,252.445147,185.000000,261.878170,76.256475,243.639396,90.564448" />
<polygon fill="#15c5ca" fill-opacity="0.501961" points="79.207672,37.363380,70.785340,62.084702,87.114455,65.061509,91.086130,68.469858" />
<polygon fill="#c33739" fill-opacity="0.501961" points="238.602963,102.281292,225.315061,97.271728,228.950526,69.818164,238.064437,111.079354" />
<polygon fill="#d5932e" fill-opacity="0.501961" points="71.471184,111.245560,54.364906,114.803387,49.514293,65.746220,72.468734,91.357085" />
<polygon fill="#dcc5d3" fill-opacity="0.501961" points="61.463009,86.099841,70.800940,67.659072,52.524302,68.257367,61.610062,85.826956" />
<polygon fill="#7d640e" fill-opacity="0.501961" points="102.150592,68.142427,96.254730,34.768023,92.929224,66.502263,74.132454,66.488131" />
<polygon fill="#b67b89" fill-opacity="0.501961" points="187.423396,104.730607,214.457955,176.249148,218.401257,142.628812,183.725931,136.192207" />
<polygon fill="#364e3d" fill-opacity="0.501961" points="196.425442,32.382644,221.600639,-16.000000,188.313233,2.475644,189.254818,44.798508" />
<polygon fill="#f3f4f7" fill-opacity="0.501961" points="78.661604,137.599836,105.569675,138.785545,84.961317,133.457884,78.667041,118.885071" />
<polygon fill="#2b170f" fill-opacity="0.501961" points="190.444308,66.774204,266.438932,67.086049,193.766212,64.496753,119.735722,67.656992" />
<polygon fill="#dfe7e5" fill-opacity="0.501961" points="119.656971,67.511781,126.522663,69.609530,75.549855,77.223070,88.548962,68.509623" />
<polygon fill="#681e21" fill-opacity="0.501961" points="117.084269,110.803154,113.126787,120.110189,113.650741,143.541476,125.113034,133.275905" />
<polygon fill="#6e545a" fill-opacity="0.501961" points="79.804479,-16.000000,74.022993,-16.000000,71.748268,37.231743,79.803789,39.568197" />
<polygon fill="#7ba5f6" fill-opacity="0.501961" points="112.699723,59.132146,140.149824,66.608198,143.365129,46.386129,107.417159,37.616539" />
<polygon fill="#be2f8a" fill-opacity="0.501961" points="223.671290,113.975059,233.468371,122.247937,228.640493,137.130765,221.384822,143.045148" />
<polygon fill="#cac871" fill-opacity="0.501961" points="134.155566,183.393954,125.037844,185.000000,121.003521,89.981239,130.969560,157.101372" />
<polygon fill="#d9d2b4" fill-opacity="0.501961" points="263.332852,43.013371,240.187378,30.304802,234.433554,52.136374,230.879867,42.444288" />
<polygon fill="#36b250" fill-opacity="0.501961" points="171.985049,118.258297,146.779578,113.751967,154.087709,138.945809,169.148410,138.305912" />
<polygon fill="#dcdfef" fill-opacity="0.501961" points="138.443405,107.123927,135.009652,70.082770,132.543160,123.828999,138.384260,110.398978" />
<polygon fill="#eff3f4" fill-opacity="0.501961" points="64.116047,44.947356,67.995691,26.742493,63.448650,-16.000000,63.264566,28.335159" />
<polygon fill="#361302" fill-opacity="0.501961" points="2.549864,139.440438,3.819233,115.372604,6.521179,101.297983,-12.540816,143.786029" />
<polygon fill="#ccb406" fill-opacity="0.501961" points="219.719716,114.216967,212.659525,114.796138,214.514584,138.946512,223.405958,139.177911" />
<polygon fill="#ccf8bf" fill-opacity="0.501961" points="41.676545,130.445209,49.260676,129.034337,48.510634,86.519663,40.529516,78.024635" />
<polygon fill="#f0dbcf" fill-opacity="0.501961" points="55.084874,17.027196,51.592198,71.117006,52.267616,1.299761,54.935623,-16.000000" />
<polygon fill="#c5c2bd" fill-opacity="0.501961" points="197.083004,66.746623,230.928078,69.171633,210.135673,67.785179,214.113544,119.394236" />
<polygon fill="#0d9482" fill-opacity="0.501961" points="212.190485,116.029173,213.841600,145.931672,205.079029,119.435384,206.320777,118.825442" />
<polygon fill="#2c1207" fill-opacity="0.501961" points="66.370799,65.896161,70.037406,69.109970,61.010756,61.837046,7.003122,67.403196" />
<polygon fill="#515f34" fill-opacity="0.501961" points="65.826008,37.504768,69.351588,73.314427,68.332789,76.734157,69.079125,-16.000000" />
<polygon fill="#effaf2" fill-opacity="0.501961" points="112.208440,119.602038,105.048736,143.068288,105.809000,100.172209,113.286547,108.968373" />
<polygon fill="#d2b488" fill-opacity="0.501961" points="247.335296,8.028074,239.974039,-12.094588,237.987584,20.153954,241.658346,62.300648" />
<polygon fill="#1e2232" fill-opacity="0.501961" points="177.683768,-2.700301,175.865009,37.502245,176.925310,70.815788,177.933710,60.833383" />
<polygon fill="#3c2334" fill-opacity="0.501961" points="224.070763,29.403217,219.774962,122.906281,211.873413,70.203751,230.552130,58.194013" />
<polygon fill="#ff7872" fill-opacity="0.501961" points="-6.193361,40.059194,-16.000000,44.148260,14.927607,42.381888,14.735277,65.197508" />
<polygon fill="#475656" fill-opacity="0.501961" points="77.497111,122.452739,76.708560,58.567819,79.169522,73.786799,78.392785,60.554942" />
<polygon fill="#c2af17" fill-opacity="0.501961" points="123.192741,39.431117,137.886366,40.012545,137.888410,-16.000000,103.440438,-13.571304" />
<polygon fill="#cf2f3d" fill-opacity="0.501961" points="179.566340,106.354722,192.007926,140.409418,186.565960,130.350253,183.710702,74.685412" />
<polygon fill="#c7b8ac" fill-opacity="0.501961" points="154.990657,184.693494,155.424930,141.388487,174.072977,143.667947,157.990015,159.660759" />
<polygon fill="#ffb16b" fill-opacity="0.501961" points="20.167706,146.440262,20.220746,115.596763,26.067850,65.570214,22.995585,130.234262" />
<polygon fill="#1091ae" fill-opacity="0.501961" points="24.831579,123.705876,26.240188,140.015477,34.750040,133.700498,32.270582,117.978317" />
<polygon fill="#771614" fill-opacity="0.501961" points="242.294890,159.078848,244.170539,117.242425,250.537488,142.547409,255.352561,139.194173" />
<polygon fill="#463683" fill-opacity="0.501961" points="15.073566,115.801369,7.765371,135.347611,4.742696,101.096106,6.893953,111.947895" />
<polygon fill="#4f5ca4" fill-opacity="0.501961" points="134.892965,143.055961,135.848036,177.446773,142.608997,184.510940,140.704126,141.062561" />
<polygon fill="#3ab2c4" fill-opacity="0.501961" points="200.441680,90.492901,203.760125,108.468863,197.614567,111.687625,194.832453,91.685710" />
<polygon fill="#4e412b" fill-opacity="0.501961" points="124.798496,136.234273,100.467801,140.299878,144.201763,142.138625,114.447678,125.466928" />
<polygon fill="#dfdfed" fill-opacity="0.501961" points="41.022797,144.730745,37.185898,144.197911,35.351895,185.000000,40.749087,162.843440" />
<polygon fill="#dcbe79" fill-opacity="0.501961" points="221.363690,-4.974835,215.118209,35.167235,216.728607,-13.299029,222.320188,72.414863" />
<polygon fill="#cf2633" fill-opacity="0.501961" points="121.506935,85.813621,120.613367,114.785669,121.290007,121.247566,111.600945,102.608740" />
<polygon fill="#99c4e7" fill-opacity="0.501961" points="86.962797,46.516252,85.751137,9.786942,79.163561,21.999713,83.142280,47.596308" />
<polygon fill="#3a382c" fill-opacity="0.501961" points="52.512557,41.248968,58.724025,75.108846,56.104810,82.256259,56.834813,41.067154" />
<polygon fill="#55462a" fill-opacity="0.501961" points="95.021376,136.974637,94.426842,142.689471,92.191936,131.947921,94.597242,102.346275" />
<polygon fill="#2b2a1f" fill-opacity="0.501961" points="83.738060,139.891894,23.389081,141.169570,-6.170630,140.233030,60.534337,136.829583" />
<polygon fill="#13000c" fill-opacity="0.501961" points="187.438251,178.879155,186.423894,160.271650,182.386811,145.934998,181.353794,184.976120" />
<polygon fill="#1e3643" fill-opacity="0.501961" points="237.740541,110.393853,236.968615,87.943373,237.578675,64.976878,239.259691,124.106020" />
<polygon fill="#d7defd" fill-opacity="0.501961" points="78.780400,64.821265,79.392887,98.953886,81.207966,84.413569,96.069767,87.859154" />
<polygon fill="#300f18" fill-opacity="0.501961" points="221.730438,3.281179,226.982847,-16.000000,230.322988,18.455459,222.877198,19.760830" />
<polygon fill="#c3a038" fill-opacity="0.501961" points="156.779705,151.895339,131.109420,132.181022,146.050275,74.032042,145.156197,144.053547" />
<polygon fill="#0d9dc4" fill-opacity="0.501961" points="178.721304,107.664175,177.568268,113.330650,176.823310,132.861561,181.266790,139.627530" />
<polygon fill="#42cfae" fill-opacity="0.501961" points="158.801974,74.017062,175.966954,70.037729,146.971527,64.344151,145.456775,37.414245" />
<polygon fill="#97d8b0" fill-opacity="0.501961" points="202.114822,25.704875,202.033990,44.428810,205.596283,34.314740,201.928409,-16.000000" />
<polygon fill="#61220f" fill-opacity="0.501961" points="59.826258,67.616671,50.579456,64.727757,63.543785,59.360017,62.513727,31.835812" />
<polygon fill="#9c3627" fill-opacity="0.501961" points="118.547156,173.737354,117.674282,165.021353,111.537957,159.135586,109.786788,184.541593" />
<polygon fill="#6ec8d6" fill-opacity="0.501961" points="190.132472,75.320463,188.423772,125.618474,185.230203,105.300961,186.397678,54.539490" />
<polygon fill="#182825" fill-opacity="0.501961" points="241.517191,168.676531,242.943309,143.829349,251.085714,138.916221,246.107312,172.914583" />
<polygon fill="#d0dcde" fill-opacity="0.501961" points="67.149056,162.524785,66.904616,140.588648,38.689096,140.305299,57.448876,148.041299" />
<polygon fill="#856ad6" fill-opacity="0.501961" points="215.900658,53.373974,227.383234,63.146409,227.883240,60.426746,214.836081,65.453456" />
<polygon fill="#cb2521" fill-opacity="0.501961" points="181.415234,101.626327,177.536907,40.596919,183.184916,41.097512,183.307644,36.084754" />
<polygon fill="#0d0f14" fill-opacity="0.501961" points="255.070296,120.243753,253.876983,76.076671,266.361339,-16.000000,256.080953,130.389256" />
<polygon fill="#fc5d4e" fill-opacity="0.501961" points="95.038829,87.178376,92.523099,116.450959,84.631019,106.027122,86.088671,91.264425" />
<polygon fill="#b9302c" fill-opacity="0.501961" points="65.055873,137.582132,55.712722,135.698200,64.930837,90.495979,69.878086,141.286431" />
<polygon fill="#b01323" fill-opacity="0.501961" points="250.600814,-16.000000,250.506914,16.225171,240.933152,-15.707358,245.161424,-0.074428" />
<polygon fill="#545650" fill-opacity="0.501961" points="75.703555,154.003291,78.415370,112.861771,79.068562,95.969915,76.333514,78.614608" />
<polygon fill="#cade8e" fill-opacity="0.501961" points="221.431090,98.216130,222.817023,66.686159,257.312076,72.785843,226.062584,69.107678" />
<polygon fill="#8c3b21" fill-opacity="0.501961" points="241.663674,42.496979,237.118392,91.714829,237.735912,43.274907,236.442762,41.093818" />
<polygon fill="#1f0404" fill-opacity="0.501961" points="36.708563,141.036025,33.496653,185.000000,33.608195,141.985779,37.962243,137.752270" />
<polygon fill="#0091f3" fill-opacity="0.501961" points="105.081285,129.160021,94.871202,131.371445,94.496267,133.722479,105.360756,137.979260" />
<polygon fill="#e33619" fill-opacity="0.501961" points="42.637966,128.474371,40.042859,129.835870,40.061374,140.802959,48.291099,136.287531" />
<polygon fill="#1c1a20" fill-opacity="0.501961" points="72.598386,149.668836,77.368408,163.074488,67.702082,162.872177,68.510769,149.426215" />
<polygon fill="#af9a29" fill-opacity="0.501961" points="254.319526,127.159243,260.774802,146.067044,250.796806,145.251969,242.564190,104.110663" />
<polygon fill="#344710" fill-opacity="0.501961" points="208.917355,35.031803,206.661012,44.669861,206.274653,67.453719,208.936056,64.797868" />
<polygon fill="#748638" fill-opacity="0.501961" points="151.094367,75.520714,150.190934,62.853799,149.323066,85.518224,150.589346,119.340542" />
<polygon fill="#ca6d61" fill-opacity="0.501961" points="181.130033,68.599374,175.633335,120.604691,190.495512,49.116707,198.062171,62.036481" />
<polygon fill="#d9e1c9" fill-opacity="0.501961" points="8.203081,55.270607,-2.507264,122.287998,-16.000000,53.918819,9.002339,53.441084" />
<polygon fill="#72b889" fill-opacity="0.501961" points="212.541470,129.719174,191.248148,137.405658,208.472779,138.818679,213.842932,126.622985" />
<polygon fill="#3f69c3" fill-opacity="0.501961" points="175.468678,62.492326,170.495567,52.327594,177.448937,33.136607,175.963612,63.521843" />
<polygon fill="#460000" fill-opacity="0.501961" points="271.000000,151.335456,254.592260,147.918130,253.865940,171.088052,270.139319,170.770678" />
<polygon fill="#ecb059" fill-opacity="0.501961" points="71.654105,60.528597,69.886145,121.501065,67.914638,123.899487,65.726677,71.689242" />
<polygon fill="#1f1921" fill-opacity="0.501961" points="122.191100,115.704367,121.249426,131.775996,116.673802,115.608069,110.163725,114.678520" />
<polygon fill="#b6ffb0" fill-opacity="0.501961" points="181.471483,40.483937,178.617202,35.583745,180.830216,19.150876,182.676025,33.363979" />
<polygon fill="#cbffbd" fill-opacity="0.501961" points="95.885909,98.904333,95.658408,129.858792,103.146941,127.589335,103.939361,98.832551" />
<polygon fill="#286f42" fill-opacity="0.501961" points="42.274755,39.926565,44.047384,6.023722,46.241753,-15.962791,49.449116,37.966458" />
<polygon fill="#c7c8d0" fill-opacity="0.501961" points="81.186426,142.147915,114.779249,162.932311,124.545445,157.231762,84.051842,140.257191" />
<polygon fill="#c6d1a7" fill-opacity="0.501961" points="233.677928,38.140891,237.649707,133.599604,223.900176,101.497502,232.424285,100.065827" />
<polygon fill="#93e2e2" fill-opacity="0.501961" points="80.495606,45.141241,75.864372,50.616472,68.941613,65.537251,69.418968,36.508529" />
<polygon fill="#ade86a" fill-opacity="0.501961" points="163.441806,61.169540,159.078136,36.643801,156.500761,-14.871963,155.898425,65.067371" />
<polygon fill="#e6ece3" fill-opacity="0.501961" points="249.044765,47.078369,244.315896,65.747680,244.541512,47.568165,244.654477,23.978666" />
<polygon fill="#a86511" fill-opacity="0.501961" points="8.878033,23.269090,8.246327,43.737702,28.357191,47.020315,25.994197,61.358792" />
<polygon fill="#bab7cd" fill-opacity="0.501961" points="252.097880,143.213666,253.272523,180.077883,247.586274,148.952764,271.000000,144.424130" />
<polygon fill="#d6c0b6" fill-opacity="0.501961" points="78.805209,119.151509,86.208575,162.878114,73.697734,104.409934,73.010144,130.289937" />
<polygon fill="#bfe6be" fill-opacity="0.501961" points="48.070652,88.465235,32.344351,141.333602,34.307238,113.380164,44.095663,117.250394" />
<polygon fill="#243f20" fill-opacity="0.501961" points="228.504242,139.149271,156.333368,139.998718,165.065467,118.236067,165.025148,141.984359" />
<polygon fill="#d9d6a5" fill-opacity="0.501961" points="203.725408,69.879845,202.155925,109.216881,206.975686,121.701583,206.729921,64.475945" />
<polygon fill="#c4ba89" fill-opacity="0.501961" points="29.363845,150.502823,-6.605819,144.133270,17.036672,185.000000,28.628542,185.000000" />
<polygon fill="#c6dbd4" fill-opacity="0.501961" points="209.424519,145.782716,206.834005,185.000000,198.795165,144.883674,191.223257,139.991217" />
<polygon fill="#b683e3" fill-opacity="0.501961" points="42.932856,39.969676,42.615046,62.472524,37.253938,64.823036,36.843332,34.185801" />
<polygon fill="#e36c42" fill-opacity="0.501961" points="170.502842,35.042105,171.377631,57.922781,162.831975,62.398676,162.680078,37.655411" />
<polygon fill="#f4dd56" fill-opacity="0.501961" points="55.550252,98.885373,52.169453,118.630371,52.070432,83.870316,53.104511,60.800594" />
<polygon fill="#c0bf44" fill-opacity="0.501961" points="155.056508,11.162288,99.743179,36.603075,154.616273,42.838997,183.521474,-16.000000" />
<polygon fill="#837c4f" fill-opacity="0.501961" points="66.819415,63.184049,70.180484,86.942539,74.348066,35.702701,72.630469,101.693431" />
<polygon fill="#a48c89" fill-opacity="0.501961" points="224.496694,30.844598,226.012228,6.119773,227.255142,33.673842,208.113931,26.004268" />
<polygon fill="#ebf3fd" fill-opacity="0.501961" points="18.836505,116.956801,17.911069,92.243899,16.571698,97.563752,7.238638,107.704909" />
<polygon fill="#5b3c33" fill-opacity="0.501961" points="87.477832,65.520047,116.878423,66.664924,88.030583,69.592617,88.459796,70.683209" />
<polygon fill="#49529f" fill-opacity="0.501961" points="188.642164,71.497547,183.279553,59.348868,181.922781,26.419374,189.654803,41.671367" />
<polygon fill="#1d6441" fill-opacity="0.501961" points="238.734816,91.238869,233.691318,-9.440383,240.759527,-16.000000,237.989890,5.580418" />
<polygon fill="#d6b9a1" fill-opacity="0.501961" points="171.836532,68.138843,171.144997,69.528537,176.962229,105.299782,180.808496,70.164416" />
<polygon fill="#2a211f" fill-opacity="0.501961" points="271.000000,101.525741,267.570894,65.774882,213.654525,64.504993,271.000000,71.331879" />
<polygon fill="#57cbe1" fill-opacity="0.501961" points="26.388672,92.778175,27.486595,68.066024,31.385534,66.323076,27.472009,131.040408" />
<polygon fill="#e9db7e" fill-opacity="0.501961" points="94.991037,44.669107,94.522185,11.029985,88.198610,55.488137,94.993206,66.297038" />
<polygon fill="#453847" fill-opacity="0.501961" points="30.191370,65.052214,40.779418,69.846295,40.225099,104.382641,33.844413,103.505142" />
<polygon fill="#62242f" fill-opacity="0.501961" points="55.398915,113.345940,61.642648,120.825229,57.941658,143.149916,52.426847,133.160836" />
<polygon fill="#4a4e4b" fill-opacity="0.501961" points="42.386291,166.125052,39.003877,72.110438,30.342419,116.035356,38.433618,112.016291" />
<polygon fill="#bae1c5" fill-opacity="0.501961" points="146.920654,95.476839,150.564122,136.937219,145.273835,140.218016,146.265819,122.475846" />
<polygon fill="#618f84" fill-opacity="0.501961" points="12.060354,72.480323,13.624345,91.819309,19.336522,83.290399,16.676121,72.109334" />
<polygon fill="#256066" fill-opacity="0.501961" points="131.851722,28.185280,130.405307,111.705096,130.795736,123.732322,132.735954,54.704884" />
<polygon fill="#431710" fill-opacity="0.501961" points="151.485555,151.462480,152.189620,178.395799,155.509160,172.043196,153.852695,139.722675" />
<polygon fill="#3a3f21" fill-opacity="0.501961" points="191.822235,140.636136,192.297856,183.043065,193.161565,135.967630,208.441782,143.022078" />
<polygon fill="#ffadcd" fill-opacity="0.501961" points="56.406142,40.462807,58.386033,53.090328,59.234318,57.265288,60.586748,41.199627" />
<polygon fill="#d3ead2" fill-opacity="0.501961" points="238.926067,102.123707,239.604087,80.291580,245.213741,73.671411,241.026533,119.630505" />
<polygon fill="#430508" fill-opacity="0.501961" points="221.591335,45.298658,222.959029,68.381463,223.842030,41.862425,224.041724,6.796502" />
<polygon fill="#1a3032" fill-opacity="0.501961" points="107.553366,140.106708,78.875265,139.212158,80.820775,181.610897,80.733631,138.487843" />
<polygon fill="#988066" fill-opacity="0.501961" points="93.802649,23.472499,98.856047,-16.000000,100.639881,69.224947,101.046082,68.134152" />
<polygon fill="#2f1e21" fill-opacity="0.501961" points="42.297118,66.062760,-0.386905,67.039885,-3.811668,63.481037,-1.312954,64.486554" />
<polygon fill="#a36b00" fill-opacity="0.501961" points="249.181663,184.301663,229.121281,138.554841,229.284675,158.296342,228.321584,185.000000" />
<polygon fill="#f34643" fill-opacity="0.501961" points="242.925996,115.749985,250.168486,121.763828,246.895654,140.239931,243.700088,140.532881" />
<polygon fill="#9f99ca" fill-opacity="0.501961" points="189.323005,100.456759,191.041089,118.360300,196.841592,118.964231,192.958863,138.025969" />
<polygon fill="#51b397" fill-opacity="0.501961" points="163.524558,115.936831,165.187636,95.123344,151.328466,143.707866,150.342947,117.537603" />
<polygon fill="#c9d8e0" fill-opacity="0.501961" points="105.140612,140.654719,91.327471,141.501291,91.071149,185.000000,92.496532,180.442373" />
<polygon fill="#c9d723" fill-opacity="0.501961" points="61.420665,16.681044,56.981831,-16.000000,55.762631,27.581312,60.967081,37.848751" />
<polygon fill="#b0c0c0" fill-opacity="0.501961" points="10.993979,138.222127,53.744302,133.493522,0.693027,138.756797,13.810016,131.869400" />
<polygon fill="#775da7" fill-opacity="0.501961" points="75.800466,104.788377,84.994647,115.945838,85.434235,73.015336,79.276061,111.792100" />
<polygon fill="#b54c5c" fill-opacity="0.501961" points="12.477690,62.484314,18.728987,-12.456986,23.068023,19.958154,15.264987,32.109640" />
<polygon fill="#7b9398" fill-opacity="0.501961" points="59.553033,166.669027,74.754972,162.445363,79.392460,149.247726,78.094215,185.000000" />
<polygon fill="#4ea62d" fill-opacity="0.501961" points="185.461390,115.898465,185.498883,140.822991,179.488583,137.392660,181.855056,115.028391" />
<polygon fill="#b47023" fill-opacity="0.501961" points="113.202648,138.198336,136.839698,114.994949,127.359010,129.708598,126.228987,139.118508" />
<polygon fill="#8b947d" fill-opacity="0.501961" points="210.493904,71.609393,206.918029,105.878251,195.497925,31.542103,197.286966,90.077076" />
<polygon fill="#ab0c1f" fill-opacity="0.501961" points="203.480485,113.751926,197.300868,132.911454,194.762844,111.146617,193.439673,108.808149" />
<polygon fill="#86bbaf" fill-opacity="0.501961" points="47.027429,118.292467,54.175253,153.215334,52.280888,113.205862,51.856407,93.276109" />
<polygon fill="#bdbd53" fill-opacity="0.501961" points="241.345194,67.584504,238.552223,68.762153,248.074120,109.754542,249.534375,81.065145" />
<polygon fill="#9e311a" fill-opacity="0.501961" points="27.330491,138.721039,18.060185,114.630615,13.617590,141.720027,25.554345,119.054620" />
<polygon fill="#e84036" fill-opacity="0.501961" points="221.961763,54.744321,223.054044,43.485970,213.422875,43.815952,210.031173,60.080533" />
<polygon fill="#bfe5ac" fill-opacity="0.501961" points="39.949217,35.983990,44.396036,-10.295071,36.989603,-3.520779,38.005383,48.984208" />
<polygon fill="#0b5248" fill-opacity="0.501961" points="132.786519,124.334471,126.092838,136.300444,133.063865,142.689113,130.605651,115.541260" />
<polygon fill="#d9d9e9" fill-opacity="0.501961" points="9.499851,142.634632,27.824601,142.828136,26.893226,147.504883,-9.979139,148.843227" />
<polygon fill="#83931a" fill-opacity="0.501961" points="171.341728,4.374820,170.123707,28.868083,163.547402,-16.000000,180.124499,4.584317" />
<polygon fill="#94715a" fill-opacity="0.501961" points="213.502642,-16.000000,211.545193,-16.000000,213.354894,36.425975,215.246690,28.643916" />
<polygon fill="#dfebe9" fill-opacity="0.501961" points="55.042967,36.778340,48.962359,37.311009,49.379857,25.581697,54.844848,26.203961" />
<polygon fill="#c2b58a" fill-opacity="0.501961" points="49.182642,148.603699,51.907919,185.000000,59.746015,146.871487,41.632495,144.647505" />
<polygon fill="#22061d" fill-opacity="0.501961" points="192.550869,106.947046,190.587544,119.954990,190.246614,115.653870,197.902186,119.127712" />
<polygon fill="#8d1b34" fill-opacity="0.501961" points="194.452107,85.508588,201.974232,88.884366,202.032506,88.930797,200.844090,74.237507" />
<polygon fill="#e99874" fill-opacity="0.501961" points="214.672356,62.646667,209.664725,66.548497,209.686728,39.736830,212.434498,45.556671" />
<polygon fill="#fa3e27" fill-opacity="0.501961" points="15.221290,42.032686,23.948550,40.047714,25.302017,59.397034,14.119697,61.492756" />
<polygon fill="#c91f1e" fill-opacity="0.501961" points="80.967030,148.365709,82.058880,164.830752,87.019036,182.168956,89.866061,146.209546" />
<polygon fill="#5bd1bf" fill-opacity="0.501961" points="34.590446,125.167546,49.398314,122.554103,18.576118,138.006442,41.402136,137.339001" />
<polygon fill="#a8c1c7" fill-opacity="0.501961" points="127.303794,92.918955,130.230904,67.913091,133.001755,113.297056,139.658611,73.636053" />
<polygon fill="#b09c7f" fill-opacity="0.501961" points="167.283175,157.242678,181.758974,141.232667,181.384508,157.015661,182.732486,185.000000" />
<polygon fill="#dce0e0" fill-opacity="0.501961" points="62.601173,34.400246,67.600214,41.253165,66.833949,22.520934,67.057323,-12.956958" />
<polygon fill="#d76758" fill-opacity="0.501961" points="237.414233,69.697159,244.550352,45.808213,244.050196,35.347546,239.190184,44.145268" />
<polygon fill="#684b55" fill-opacity="0.501961" points="1.502895,15.755254,3.413346,0.744695,34.138269,12.176486,39.245354,-16.000000" />
<polygon fill="#f3eac4" fill-opacity="0.501961" points="39.868709,66.801584,44.242109,125.949580,40.635301,102.132507,49.136112,67.247055" />
<polygon fill="#21b1f5" fill-opacity="0.501961" points="46.748472,35.353194,48.902921,60.198081,50.943184,62.856075,43.829862,59.091141" />
<polygon fill="#c3d4d8" fill-opacity="0.501961" points="8.223454,2.751349,11.290076,-7.579971,13.851029,26.627846,9.861248,26.992660" />
<polygon fill="#8f9553" fill-opacity="0.501961" points="103.907477,66.255548,106.243092,63.640767,105.404312,138.643491,104.632957,120.601385" />
<polygon fill="#594a3d" fill-opacity="0.501961" points="26.981374,133.502736,26.745050,93.487895,24.949500,78.405377,25.254313,123.930947" />
<polygon fill="#e5cb99" fill-opacity="0.501961" points="23.479086,148.926063,17.556524,67.883346,29.294652,67.085407,24.168405,67.833429" />
<polygon fill="#cbe8f1" fill-opacity="0.501961" points="213.050861,106.103149,209.255361,89.706874,210.521565,79.143307,208.987121,125.885689" />
<polygon fill="#4e5d11" fill-opacity="0.501961" points="27.842146,59.810931,26.198468,64.851429,25.647990,42.959941,27.982623,25.360276" />
<polygon fill="#546376" fill-opacity="0.501961" points="200.001018,185.000000,198.626365,169.304247,198.984300,144.967998,195.836384,152.471999" />
<polygon fill="#298731" fill-opacity="0.501961" points="153.973846,54.155638,154.808185,29.387455,155.813771,43.179948,155.134021,69.496181" />
<polygon fill="#a1ba6e" fill-opacity="0.501961" points="55.945664,106.906331,59.749503,65.855362,60.771848,113.528331,65.127310,126.992459" />
<polygon fill="#0b6eb3" fill-opacity="0.501961" points="122.116105,146.235314,124.623968,140.057941,117.387995,142.999523,123.492910,146.189692" />
<polygon fill="#c05b51" fill-opacity="0.501961" points="57.175111,67.550893,51.154073,67.244159,50.976305,114.428987,48.800442,71.934451" />
<polygon fill="#e7e9da" fill-opacity="0.501961" points="164.390524,83.345391,165.242643,116.740244,171.534460,90.909096,168.142328,108.009501" />
<polygon fill="#d82331" fill-opacity="0.501961" points="227.492553,95.708017,227.784695,74.857113,231.083425,73.938301,233.010727,97.451253" />
<polygon fill="#607e7f" fill-opacity="0.501961" points="-4.653825,42.408960,-5.711779,24.267927,33.485005,44.268587,35.237636,24.387102" />
<polygon fill="#d4d8a2" fill-opacity="0.501961" points="132.113185,167.583383,131.469623,155.470773,124.409408,146.937120,124.151583,185.000000" />
<polygon fill="#2d2f36" fill-opacity="0.501961" points="247.638985,147.584557,232.384458,137.716928,271.000000,148.657520,271.000000,134.383755" />
<polygon fill="#e4e6ed" fill-opacity="0.501961" points="117.802653,69.693630,93.046563,70.280329,90.220740,83.920202,81.074196,67.544484" />
<polygon fill="#f2f6db" fill-opacity="0.501961" points="153.662393,99.986644,154.642783,115.897917,150.991074,117.559575,151.481656,69.893209" />
<polygon fill="#b4202e" fill-opacity="0.501961" points="42.274784,163.780489,42.498296,144.698826,48.990623,155.283169,47.492334,175.366209" />
<polygon fill="#f2e135" fill-opacity="0.501961" points="135.289673,110.418992,133.936749,136.765636,137.770682,138.004992,137.803671,126.419787" />
<polygon fill="#828285" fill-opacity="0.501961" points="104.608103,131.579983,104.753170,159.558216,109.964763,160.005811,103.308636,184.245713" />
<polygon fill="#051314" fill-opacity="0.501961" points="227.261882,54.231578,226.942396,-10.438909,229.768380,20.849601,230.406271,23.184422" />
<polygon fill="#1c4231" fill-opacity="0.501961" points="191.992119,13.775415,187.701547,-7.869168,190.164385,42.276755,200.140536,-16.000000" />
<polygon fill="#8b8dbe" fill-opacity="0.501961" points="185.947987,64.502064,188.694878,19.541816,182.994608,-11.217220,183.189948,26.486140" />
<polygon fill="#dcc455" fill-opacity="0.501961" points="212.448895,116.255288,223.736073,112.999426,230.765548,108.849899,221.595988,119.436823" />
<polygon fill="#1b2439" fill-opacity="0.501961" points="214.525137,101.728134,213.201411,96.756508,212.992929,61.137064,217.568176,114.641391" />
<polygon fill="#696676" fill-opacity="0.501961" points="257.049205,-13.244618,271.000000,2.989468,247.378769,18.282730,247.593218,37.031277" />
<polygon fill="#d499d0" fill-opacity="0.501961" points="100.454380,37.392517,100.390013,37.991840,115.285927,60.646114,100.256223,68.197245" />
<polygon fill="#009295" fill-opacity="0.501961" points="80.215173,40.459465,78.796802,41.718256,79.554732,69.297677,81.666455,50.092425" />
<polygon fill="#454932" fill-opacity="0.501961" points="125.967975,69.525099,130.650544,64.562057,126.464492,84.620807,127.420396,98.911513" />
<polygon fill="#9b7d43" fill-opacity="0.501961" points="94.685997,57.633602,102.056233,33.821302,96.224873,54.436901,93.438267,122.540206" />
<polygon fill="#d3d6da" fill-opacity="0.501961" points="137.824914,118.191318,138.293284,85.882183,135.689101,74.421022,132.152428,102.472221" />
<polygon fill="#b1b3b8" fill-opacity="0.501961" points="143.012259,166.252752,143.242386,145.561526,121.351735,146.521428,137.994676,140.576640" />
<polygon fill="#007652" fill-opacity="0.501961" points="229.408144,40.529885,229.357598,10.043616,229.121352,-16.000000,239.417460,-1.754277" />
<polygon fill="#41588a" fill-opacity="0.501961" points="167.083914,158.631712,166.802002,154.685978,157.187313,167.074601,161.817098,185.000000" />
<polygon fill="#d9ebfb" fill-opacity="0.501961" points="65.483510,67.491197,59.859893,68.617589,65.570853,83.897464,65.074567,79.422964" />
<polygon fill="#d84c3f" fill-opacity="0.501961" points="112.406620,106.425417,121.016672,82.485257,117.330237,120.042544,113.799786,71.389715" />
<polygon fill="#dadff6" fill-opacity="0.501961" points="12.482178,74.418825,-9.449516,65.225833,9.912211,75.712727,12.432709,101.885015" />
<polygon fill="#e6dcb7" fill-opacity="0.501961" points="91.387603,117.079771,71.331413,115.892637,106.125032,112.774436,101.489278,107.842609" />
<polygon fill="#96cadc" fill-opacity="0.501961" points="213.587089,65.990253,210.533594,71.471152,194.753545,73.058995,198.534431,68.045001" />
<polygon fill="#00a487" fill-opacity="0.501961" points="251.055338,44.779404,256.389674,65.362298,271.000000,30.278312,271.000000,38.892038" />
<polygon fill="#fea28b" fill-opacity="0.501961" points="53.767867,43.935717,52.451506,62.659708,50.286922,54.272121,49.961653,52.198038" />
<polygon fill="#7a6181" fill-opacity="0.501961" points="12.096104,114.761856,13.721259,86.253177,14.031325,134.406174,13.138780,158.887421" />
<polygon fill="#070000" fill-opacity="0.501961" points="29.253100,161.674997,32.631234,165.539671,36.034413,185.000000,36.002819,159.006680" />
<polygon fill="#f09eae" fill-opacity="0.501961" points="69.624566,122.708195,63.976245,112.721998,63.547673,117.215118,68.773061,110.468128" />
<polygon fill="#e8fcfd" fill-opacity="0.501961" points="104.511748,118.605996,111.501198,102.425891,112.849660,104.098950,112.273027,127.650784" />
<polygon fill="#b53d46" fill-opacity="0.501961" points="178.557906,109.894557,182.271681,115.926203,185.651771,106.701010,184.509122,65.730804" />
<polygon fill="#2d3034" fill-opacity="0.501961" points="6.725711,100.412185,6.486393,118.868381,7.975961,133.300936,4.804995,119.245947" />
<polygon fill="#cad32b" fill-opacity="0.501961" points="106.400508,69.160317,110.833984,70.895679,114.017919,102.592787,105.307890,103.798645" />
<polygon fill="#8066b9" fill-opacity="0.501961" points="61.796376,80.310127,61.004434,65.898280,58.765619,71.733887,56.303562,80.471885" />
<polygon fill="#8c9e88" fill-opacity="0.501961" points="191.009732,-16.000000,193.587815,15.084422,130.476062,81.641203,189.759268,18.882925" />
</g>
</svg>