<svg xmlns="http://www.w3.org/2000/svg" version="1.1" width="816" height="1024">
<rect x="0" y="0" width="816" height="1024" fill="#8a603b" />
<g transform="scale(4.000000) translate(0.5 0.5)">
<ellipse fill="#abc9d6" fill-opacity="0.501961" cx="25" cy="255" rx="63" ry="60" />
<ellipse fill="#4e2510" fill-opacity="0.501961" cx="121" cy="152" rx="89" ry="61" />
<ellipse fill="#7a9ab4" fill-opacity="0.501961" cx="186" cy="249" rx="94" ry="46" />
<ellipse fill="#c87a27" fill-opacity="0.501961" cx="116" cy="27" rx="203" ry="38" />
<ellipse fill="#5d2401" fill-opacity="0.501961" cx="101" cy="212" rx="36" ry="17" />
<ellipse fill="#201209" fill-opacity="0.501961" cx="161" cy="182" rx="53" ry="12" />
<ellipse fill="#5b4b39" fill-opacity="0.501961" cx="119" cy="79" rx="37" ry="48" />
<ellipse fill="#b97026" fill-opacity="0.501961" cx="174" cy="80" rx="39" ry="35" />
<ellipse fill="#b9592c" fill-opacity="0.501961" cx="62" cy="88" rx="23" ry="43" />
<ellipse fill="#e16c2a" fill-opacity="0.501961" cx="102" cy="132" rx="17" ry="16" />
<ellipse fill="#a04b13" fill-opacity="0.501961" cx="14" cy="171" rx="113" ry="27" />
<ellipse fill="#5f6b79" fill-opacity="0.501961" cx="180" cy="199" rx="41" ry="9" />
<ellipse fill="#a79e93" fill-opacity="0.501961" cx="87" cy="246" rx="52" ry="16" />
<ellipse fill="#2c1b14" fill-opacity="0.501961" cx="142" cy="138" rx="21" ry="20" />
<ellipse fill="#213d37" fill-opacity="0.501961" cx="110" cy="101" rx="33" ry="14" />
<ellipse fill="#c16c27" fill-opacity="0.501961" cx="0" cy="82" rx="65" ry="24" />
<ellipse fill="#798889" fill-opacity="0.501961" cx="57" cy="213" rx="14" ry="23" />
<ellipse fill="#495a2c" fill-opacity="0.501961" cx="34" cy="122" rx="17" ry="25" />
<ellipse fill="#37200d" fill-opacity="0.501961" cx="125" cy="193" rx="17" ry="28" />
<ellipse fill="#939794" fill-opacity="0.501961" cx="121" cy="155" rx="11" ry="6" />
<ellipse fill="#ae7739" fill-opacity="0.501961" cx="75" cy="119" rx="12" ry="19" />
<ellipse fill="#934e2f" fill-opacity="0.501961" cx="84" cy="199" rx="18" ry="36" />
<ellipse fill="#d17c4a" fill-opacity="0.501961" cx="102" cy="73" rx="8" ry="14" />
<ellipse fill="#828789" fill-opacity="0.501961" cx="162" cy="219" rx="23" ry="23" />
<ellipse fill="#7e5161" fill-opacity="0.501961" cx="88" cy="25" rx="15" ry="14" />
<ellipse fill="#96392c" fill-opacity="0.501961" cx="73" cy="63" rx="50" ry="9" />
<ellipse fill="#b47f20" fill-opacity="0.501961" cx="29" cy="4" rx="50" ry="54" />
<ellipse fill="#613e1a" fill-opacity="0.501961" cx="77" cy="86" rx="12" ry="16" />
<ellipse fill="#9e9d8f" fill-opacity="0.501961" cx="45" cy="203" rx="25" ry="10" />
<ellipse fill="#93964a" fill-opacity="0.501961" cx="147" cy="106" rx="7" ry="14" />
<ellipse fill="#714241" fill-opacity="0.501961" cx="136" cy="58" rx="15" ry="28" />
<ellipse fill="#523127" fill-opacity="0.501961" cx="188" cy="179" rx="21" ry="24" />
<ellipse fill="#313e40" fill-opacity="0.501961" cx="125" cy="111" rx="5" ry="43" />
<ellipse fill="#a02005" fill-opacity="0.501961" cx="110" cy="110" rx="8" ry="8" />
<ellipse fill="#b6722f" fill-opacity="0.501961" cx="114" cy="26" rx="16" ry="32" />
<ellipse fill="#ac7228" fill-opacity="0.501961" cx="7" cy="158" rx="15" ry="40" />
<ellipse fill="#bd7735" fill-opacity="0.501961" cx="181" cy="13" rx="35" ry="60" />
<ellipse fill="#d06b32" fill-opacity="0.501961" cx="59" cy="114" rx="12" ry="12" />
<ellipse fill="#703017" fill-opacity="0.501961" cx="73" cy="163" rx="48" ry="10" />
<ellipse fill="#325a37" fill-opacity="0.501961" cx="88" cy="95" rx="5" ry="32" />
<ellipse fill="#525f60" fill-opacity="0.501961" cx="171" cy="250" rx="32" ry="5" />
<ellipse fill="#0e1006" fill-opacity="0.501961" cx="150" cy="181" rx="18" ry="8" />
<ellipse fill="#b75b62" fill-opacity="0.501961" cx="73" cy="58" rx="15" ry="12" />
<ellipse fill="#61696b" fill-opacity="0.501961" cx="60" cy="225" rx="18" ry="8" />
<ellipse fill="#bab3a9" fill-opacity="0.501961" cx="23" cy="234" rx="18" ry="9" />
<ellipse fill="#a9856e" fill-opacity="0.501961" cx="102" cy="82" rx="12" ry="8" />
<ellipse fill="#6e3316" fill-opacity="0.501961" cx="111" cy="196" rx="13" ry="32" />
<ellipse fill="#6b270e" fill-opacity="0.501961" cx="156" cy="155" rx="25" ry="20" />
<ellipse fill="#aa4d63" fill-opacity="0.501961" cx="127" cy="41" rx="14" ry="8" />
<ellipse fill="#694430" fill-opacity="0.501961" cx="182" cy="133" rx="23" ry="30" />
<ellipse fill="#9e2222" fill-opacity="0.501961" cx="33" cy="75" rx="11" ry="7" />
<ellipse fill="#9f9447" fill-opacity="0.501961" cx="140" cy="116" rx="7" ry="5" />
<ellipse fill="#a39986" fill-opacity="0.501961" cx="199" cy="217" rx="22" ry="12" />
<ellipse fill="#3a4328" fill-opacity="0.501961" cx="78" cy="144" rx="18" ry="6" />
<ellipse fill="#65767c" fill-opacity="0.501961" cx="82" cy="233" rx="12" ry="6" />
<ellipse fill="#c08838" fill-opacity="0.501961" cx="0" cy="58" rx="10" ry="44" />
<ellipse fill="#2e2a18" fill-opacity="0.501961" cx="131" cy="200" rx="12" ry="18" />
<ellipse fill="#5e4b1a" fill-opacity="0.501961" cx="124" cy="74" rx="15" ry="12" />
<ellipse fill="#250c0b" fill-opacity="0.501961" cx="147" cy="154" rx="9" ry="7" />
<ellipse fill="#8b8c50" fill-opacity="0.501961" cx="14" cy="124" rx="8" ry="11" />
<ellipse fill="#835a05" fill-opacity="0.501961" cx="50" cy="182" rx="14" ry="13" />
<ellipse fill="#415a3a" fill-opacity="0.501961" cx="39" cy="128" rx="15" ry="11" />
<ellipse fill="#cdbca6" fill-opacity="0.501961" cx="57" cy="255" rx="57" ry="2" />
<ellipse fill="#a7502c" fill-opacity="0.501961" cx="93" cy="189" rx="23" ry="6" />
<ellipse fill="#223026" fill-opacity="0.501961" cx="119" cy="148" rx="8" ry="5" />
<ellipse fill="#a17f57" fill-opacity="0.501961" cx="17" cy="197" rx="27" ry="4" />
<ellipse fill="#bc8245" fill-opacity="0.501961" cx="52" cy="82" rx="11" ry="13" />
<ellipse fill="#be7f29" fill-opacity="0.501961" cx="125" cy="0" rx="45" ry="16" />
<ellipse fill="#b14b2d" fill-opacity="0.501961" cx="127" cy="164" rx="12" ry="4" />
<ellipse fill="#9aa957" fill-opacity="0.501961" cx="139" cy="89" rx="7" ry="5" />
<ellipse fill="#3c3a3c" fill-opacity="0.501961" cx="124" cy="104" rx="10" ry="25" />
<ellipse fill="#934120" fill-opacity="0.501961" cx="40" cy="150" rx="32" ry="8" />
<ellipse fill="#8e5c23" fill-opacity="0.501961" cx="139" cy="143" rx="8" ry="6" />
<ellipse fill="#5d5933" fill-opacity="0.501961" cx="18" cy="106" rx="5" ry="14" />
<ellipse fill="#103827" fill-opacity="0.501961" cx="96" cy="102" rx="6" ry="14" />
<ellipse fill="#5e3402" fill-opacity="0.501961" cx="110" cy="64" rx="4" ry="11" />
<ellipse fill="#342723" fill-opacity="0.501961" cx="180" cy="135" rx="7" ry="8" />
<ellipse fill="#8b5864" fill-opacity="0.501961" cx="124" cy="106" rx="4" ry="6" />
<ellipse fill="#2c1a24" fill-opacity="0.501961" cx="6" cy="113" rx="3" ry="5" />
<ellipse fill="#9d5928" fill-opacity="0.501961" cx="158" cy="85" rx="10" ry="31" />
<ellipse fill="#b97031" fill-opacity="0.501961" cx="202" cy="72" rx="11" ry="48" />
<ellipse fill="#b46a34" fill-opacity="0.501961" cx="18" cy="103" rx="17" ry="4" />
<ellipse fill="#d36c32" fill-opacity="0.501961" cx="78" cy="131" rx="11" ry="4" />
<ellipse fill="#68717d" fill-opacity="0.501961" cx="148" cy="219" rx="17" ry="8" />
<ellipse fill="#523e2d" fill-opacity="0.501961" cx="171" cy="190" rx="26" ry="6" />
<ellipse fill="#64320a" fill-opacity="0.501961" cx="34" cy="164" rx="25" ry="4" />
<ellipse fill="#6d3f1a" fill-opacity="0.501961" cx="98" cy="221" rx="29" ry="9" />
<ellipse fill="#988f84" fill-opacity="0.501961" cx="108" cy="246" rx="31" ry="16" />
<ellipse fill="#7b4a38" fill-opacity="0.501961" cx="203" cy="161" rx="8" ry="28" />
<ellipse fill="#8ea1b1" fill-opacity="0.501961" cx="123" cy="159" rx="5" ry="3" />
<ellipse fill="#856541" fill-opacity="0.501961" cx="95" cy="32" rx="11" ry="22" />
<ellipse fill="#445649" fill-opacity="0.501961" cx="128" cy="53" rx="8" ry="6" />
<ellipse fill="#993521" fill-opacity="0.501961" cx="85" cy="62" rx="6" ry="11" />
<ellipse fill="#903a13" fill-opacity="0.501961" cx="171" cy="150" rx="9" ry="10" />
<ellipse fill="#92231c" fill-opacity="0.501961" cx="46" cy="65" rx="8" ry="8" />
<ellipse fill="#a15f23" fill-opacity="0.501961" cx="17" cy="171" rx="8" ry="30" />
<ellipse fill="#853f25" fill-opacity="0.501961" cx="93" cy="163" rx="27" ry="12" />
<ellipse fill="#104225" fill-opacity="0.501961" cx="123" cy="121" rx="6" ry="7" />
<ellipse fill="#b06f1e" fill-opacity="0.501961" cx="138" cy="20" rx="27" ry="12" />
<ellipse fill="#446b46" fill-opacity="0.501961" cx="86" cy="109" rx="4" ry="17" />
<ellipse fill="#4e4928" fill-opacity="0.501961" cx="71" cy="94" rx="5" ry="9" />
<ellipse fill="#888678" fill-opacity="0.501961" cx="158" cy="205" rx="12" ry="10" />
<ellipse fill="#5f2915" fill-opacity="0.501961" cx="118" cy="179" rx="12" ry="14" />
<ellipse fill="#ad5827" fill-opacity="0.501961" cx="105" cy="134" rx="18" ry="11" />
<ellipse fill="#26452a" fill-opacity="0.501961" cx="8" cy="127" rx="3" ry="4" />
<ellipse fill="#5e7450" fill-opacity="0.501961" cx="172" cy="131" rx="8" ry="4" />
<ellipse fill="#1a1809" fill-opacity="0.501961" cx="88" cy="75" rx="3" ry="5" />
<ellipse fill="#390914" fill-opacity="0.501961" cx="75" cy="111" rx="4" ry="3" />
<ellipse fill="#554940" fill-opacity="0.501961" cx="141" cy="200" rx="9" ry="7" />
<ellipse fill="#3b130e" fill-opacity="0.501961" cx="144" cy="128" rx="8" ry="10" />
<ellipse fill="#7b3119" fill-opacity="0.501961" cx="73" cy="124" rx="7" ry="5" />
<ellipse fill="#a2552f" fill-opacity="0.501961" cx="87" cy="223" rx="14" ry="4" />
<ellipse fill="#855617" fill-opacity="0.501961" cx="45" cy="111" rx="5" ry="15" />
<ellipse fill="#1a3b38" fill-opacity="0.501961" cx="121" cy="94" rx="21" ry="3" />
<ellipse fill="#472510" fill-opacity="0.501961" cx="179" cy="174" rx="14" ry="14" />
<ellipse fill="#a7a091" fill-opacity="0.501961" cx="0" cy="216" rx="37" ry="18" />
<ellipse fill="#a77220" fill-opacity="0.501961" cx="50" cy="32" rx="19" ry="27" />
<ellipse fill="#c35a2b" fill-opacity="0.501961" cx="104" cy="120" rx="12" ry="5" />
<ellipse fill="#5c230f" fill-opacity="0.501961" cx="32" cy="150" rx="7" ry="4" />
<ellipse fill="#9c6719" fill-opacity="0.501961" cx="32" cy="179" rx="15" ry="13" />
<ellipse fill="#412f11" fill-opacity="0.501961" cx="62" cy="136" rx="5" ry="8" />
<ellipse fill="#5a2e43" fill-opacity="0.501961" cx="146" cy="45" rx="6" ry="6" />
<ellipse fill="#a9662f" fill-opacity="0.501961" cx="79" cy="105" rx="3" ry="29" />
<ellipse fill="#574b51" fill-opacity="0.501961" cx="201" cy="196" rx="27" ry="9" />
<ellipse fill="#b35c59" fill-opacity="0.501961" cx="79" cy="26" rx="7" ry="11" />
<ellipse fill="#8c773f" fill-opacity="0.501961" cx="138" cy="117" rx="14" ry="2" />
<ellipse fill="#404026" fill-opacity="0.501961" cx="90" cy="149" rx="7" ry="6" />
<ellipse fill="#1b382f" fill-opacity="0.501961" cx="33" cy="130" rx="13" ry="2" />
<ellipse fill="#8d846b" fill-opacity="0.501961" cx="118" cy="153" rx="13" ry="3" />
<ellipse fill="#5e6a6f" fill-opacity="0.501961" cx="193" cy="242" rx="7" ry="13" />
<ellipse fill="#2a1c1f" fill-opacity="0.501961" cx="151" cy="144" rx="5" ry="9" />
<ellipse fill="#b25638" fill-opacity="0.501961" cx="57" cy="150" rx="14" ry="3" />
<ellipse fill="#5a5d1e" fill-opacity="0.501961" cx="104" cy="131" rx="4" ry="5" />
<ellipse fill="#985914" fill-opacity="0.501961" cx="108" cy="42" rx="5" ry="15" />
<ellipse fill="#b78438" fill-opacity="0.501961" cx="67" cy="32" rx="7" ry="21" />
<ellipse fill="#712e0c" fill-opacity="0.501961" cx="48" cy="144" rx="14" ry="6" />
<ellipse fill="#8d8f88" fill-opacity="0.501961" cx="60" cy="204" rx="9" ry="11" />
<ellipse fill="#ad7128" fill-opacity="0.501961" cx="183" cy="72" rx="17" ry="24" />
<ellipse fill="#aa4924" fill-opacity="0.501961" cx="71" cy="173" rx="5" ry="12" />
<ellipse fill="#9c5237" fill-opacity="0.501961" cx="147" cy="65" rx="10" ry="15" />
<ellipse fill="#5c796a" fill-opacity="0.501961" cx="37" cy="135" rx="5" ry="4" />
<ellipse fill="#ac8545" fill-opacity="0.501961" cx="12" cy="123" rx="3" ry="22" />
<ellipse fill="#c25934" fill-opacity="0.501961" cx="63" cy="77" rx="5" ry="17" />
<ellipse fill="#8f8844" fill-opacity="0.501961" cx="70" cy="105" rx="3" ry="10" />
<ellipse fill="#5e330d" fill-opacity="0.501961" cx="56" cy="166" rx="7" ry="12" />
<ellipse fill="#552b32" fill-opacity="0.501961" cx="128" cy="33" rx="4" ry="3" />
<ellipse fill="#a76e40" fill-opacity="0.501961" cx="116" cy="54" rx="5" ry="13" />
<ellipse fill="#502815" fill-opacity="0.501961" cx="103" cy="108" rx="4" ry="10" />
<ellipse fill="#342308" fill-opacity="0.501961" cx="125" cy="208" rx="5" ry="15" />
<ellipse fill="#45310b" fill-opacity="0.501961" cx="76" cy="156" rx="11" ry="2" />
<ellipse fill="#a04020" fill-opacity="0.501961" cx="32" cy="157" rx="16" ry="5" />
<ellipse fill="#8d8589" fill-opacity="0.501961" cx="132" cy="248" rx="8" ry="30" />
<ellipse fill="#b59557" fill-opacity="0.501961" cx="21" cy="125" rx="4" ry="4" />
<ellipse fill="#7f3112" fill-opacity="0.501961" cx="114" cy="116" rx="4" ry="12" />
<ellipse fill="#c36866" fill-opacity="0.501961" cx="80" cy="50" rx="13" ry="3" />
<ellipse fill="#b64520" fill-opacity="0.501961" cx="53" cy="98" rx="9" ry="6" />
<ellipse fill="#373f2a" fill-opacity="0.501961" cx="81" cy="141" rx="7" ry="6" />
<ellipse fill="#583923" fill-opacity="0.501961" cx="66" cy="97" rx="4" ry="4" />
<ellipse fill="#a84423" fill-opacity="0.501961" cx="105" cy="156" rx="6" ry="5" />
<ellipse fill="#884925" fill-opacity="0.501961" cx="75" cy="150" rx="9" ry="5" />
<ellipse fill="#ad712c" fill-opacity="0.501961" cx="13" cy="66" rx="17" ry="14" />
<ellipse fill="#829089" fill-opacity="0.501961" cx="37" cy="225" rx="13" ry="6" />
<ellipse fill="#71602e" fill-opacity="0.501961" cx="25" cy="141" rx="8" ry="8" />
<ellipse fill="#85350f" fill-opacity="0.501961" cx="142" cy="168" rx="15" ry="4" />
<ellipse fill="#4e532a" fill-opacity="0.501961" cx="20" cy="97" rx="7" ry="3" />
<ellipse fill="#b36f32" fill-opacity="0.501961" cx="22" cy="184" rx="5" ry="11" />
<ellipse fill="#68391c" fill-opacity="0.501961" cx="200" cy="181" rx="15" ry="10" />
<ellipse fill="#c19548" fill-opacity="0.501961" cx="0" cy="45" rx="9" ry="12" />
<ellipse fill="#276034" fill-opacity="0.501961" cx="103" cy="95" rx="3" ry="9" />
<ellipse fill="#814820" fill-opacity="0.501961" cx="83" cy="202" rx="16" ry="9" />
<ellipse fill="#a4636b" fill-opacity="0.501961" cx="122" cy="46" rx="6" ry="6" />
<ellipse fill="#405528" fill-opacity="0.501961" cx="41" cy="101" rx="5" ry="3" />
<ellipse fill="#844451" fill-opacity="0.501961" cx="89" cy="16" rx="9" ry="6" />
<ellipse fill="#a55e18" fill-opacity="0.501961" cx="100" cy="66" rx="8" ry="7" />
<ellipse fill="#bd733f" fill-opacity="0.501961" cx="177" cy="6" rx="14" ry="25" />
<ellipse fill="#9a9683" fill-opacity="0.501961" cx="179" cy="211" rx="12" ry="7" />
<ellipse fill="#915f30" fill-opacity="0.501961" cx="174" cy="103" rx="27" ry="7" />
<ellipse fill="#9c7f72" fill-opacity="0.501961" cx="115" cy="232" rx="9" ry="6" />
<ellipse fill="#793f2e" fill-opacity="0.501961" cx="164" cy="116" rx="8" ry="11" />
<ellipse fill="#b66b2f" fill-opacity="0.501961" cx="0" cy="167" rx="5" ry="33" />
<ellipse fill="#474329" fill-opacity="0.501961" cx="127" cy="142" rx="8" ry="11" />
<ellipse fill="#9b7840" fill-opacity="0.501961" cx="145" cy="114" rx="11" ry="4" />
<ellipse fill="#77430e" fill-opacity="0.501961" cx="103" cy="57" rx="13" ry="3" />
<ellipse fill="#b26f20" fill-opacity="0.501961" cx="33" cy="91" rx="7" ry="9" />
<ellipse fill="#59435c" fill-opacity="0.501961" cx="130" cy="104" rx="7" ry="5" />
<ellipse fill="#9b8642" fill-opacity="0.501961" cx="51" cy="79" rx="6" ry="8" />
<ellipse fill="#7d4b10" fill-opacity="0.501961" cx="60" cy="186" rx="11" ry="8" />
<ellipse fill="#814c0d" fill-opacity="0.501961" cx="32" cy="169" rx="21" ry="3" />
<ellipse fill="#382841" fill-opacity="0.501961" cx="126" cy="94" rx="8" ry="8" />
<ellipse fill="#377b4c" fill-opacity="0.501961" cx="140" cy="97" rx="5" ry="4" />
<ellipse fill="#ba554e" fill-opacity="0.501961" cx="26" cy="68" rx="6" ry="5" />
<ellipse fill="#896739" fill-opacity="0.501961" cx="108" cy="87" rx="6" ry="4" />
<ellipse fill="#454e35" fill-opacity="0.501961" cx="131" cy="64" rx="3" ry="15" />
<ellipse fill="#89570f" fill-opacity="0.501961" cx="84" cy="42" rx="4" ry="6" />
<ellipse fill="#4e2306" fill-opacity="0.501961" cx="47" cy="161" rx="9" ry="3" />
<ellipse fill="#353518" fill-opacity="0.501961" cx="91" cy="72" rx="4" ry="6" />
<ellipse fill="#37481d" fill-opacity="0.501961" cx="38" cy="120" rx="2" ry="13" />
<ellipse fill="#3d6747" fill-opacity="0.501961" cx="90" cy="98" rx="6" ry="7" />
<ellipse fill="#954124" fill-opacity="0.501961" cx="82" cy="70" rx="5" ry="8" />
<ellipse fill="#8e5a2d" fill-opacity="0.501961" cx="30" cy="109" rx="8" ry="6" />
<ellipse fill="#5e3412" fill-opacity="0.501961" cx="113" cy="211" rx="12" ry="16" />
<ellipse fill="#7b5137" fill-opacity="0.501961" cx="203" cy="144" rx="27" ry="5" />
<ellipse fill="#969e99" fill-opacity="0.501961" cx="53" cy="202" rx="14" ry="5" />
<ellipse fill="#968a7a" fill-opacity="0.501961" cx="151" cy="198" rx="6" ry="3" />
<ellipse fill="#a09647" fill-opacity="0.501961" cx="82" cy="109" rx="3" ry="3" />
<ellipse fill="#8a8481" fill-opacity="0.501961" cx="187" cy="255" rx="33" ry="4" />
<ellipse fill="#152a1b" fill-opacity="0.501961" cx="45" cy="128" rx="6" ry="2" />
<ellipse fill="#4d230f" fill-opacity="0.501961" cx="128" cy="174" rx="17" ry="5" />
<ellipse fill="#280f15" fill-opacity="0.501961" cx="182" cy="138" rx="5" ry="3" />
<ellipse fill="#464258" fill-opacity="0.501961" cx="3" cy="115" rx="2" ry="5" />
<ellipse fill="#685a35" fill-opacity="0.501961" cx="72" cy="57" rx="4" ry="3" />
<ellipse fill="#987a3e" fill-opacity="0.501961" cx="94" cy="41" rx="5" ry="12" />
<ellipse fill="#4f6a4c" fill-opacity="0.501961" cx="78" cy="170" rx="3" ry="3" />
<ellipse fill="#c7b292" fill-opacity="0.501961" cx="0" cy="204" rx="12" ry="4" />
<ellipse fill="#49675e" fill-opacity="0.501961" cx="176" cy="249" rx="21" ry="2" />
<ellipse fill="#ae5d3b" fill-opacity="0.501961" cx="87" cy="190" rx="14" ry="3" />
<ellipse fill="#a17971" fill-opacity="0.501961" cx="130" cy="159" rx="3" ry="2" />
<ellipse fill="#ca7d43" fill-opacity="0.501961" cx="55" cy="71" rx="4" ry="5" />
<ellipse fill="#795a27" fill-opacity="0.501961" cx="131" cy="82" rx="13" ry="3" />
<ellipse fill="#bf883c" fill-opacity="0.501961" cx="101" cy="0" rx="17" ry="7" />
<ellipse fill="#bb6b33" fill-opacity="0.501961" cx="50" cy="116" rx="4" ry="8" />
<ellipse fill="#686a4d" fill-opacity="0.501961" cx="36" cy="137" rx="7" ry="5" />
<ellipse fill="#174c26" fill-opacity="0.501961" cx="100" cy="45" rx="1" ry="5" />
<ellipse fill="#625041" fill-opacity="0.501961" cx="181" cy="156" rx="3" ry="11" />
<ellipse fill="#af7334" fill-opacity="0.501961" cx="180" cy="54" rx="32" ry="11" />
<ellipse fill="#954124" fill-opacity="0.501961" cx="90" cy="181" rx="19" ry="9" />
<ellipse fill="#b17726" fill-opacity="0.501961" cx="118" cy="18" rx="11" ry="18" />
<ellipse fill="#717a80" fill-opacity="0.501961" cx="62" cy="221" rx="7" ry="11" />
<ellipse fill="#af7432" fill-opacity="0.501961" cx="158" cy="100" rx="5" ry="7" />
<ellipse fill="#aa9698" fill-opacity="0.501961" cx="156" cy="237" rx="2" ry="9" />
<ellipse fill="#b26f2a" fill-opacity="0.501961" cx="151" cy="21" rx="19" ry="17" />
<ellipse fill="#4f220c" fill-opacity="0.501961" cx="112" cy="70" rx="2" ry="9" />
<ellipse fill="#85803c" fill-opacity="0.501961" cx="147" cy="100" rx="6" ry="11" />
<ellipse fill="#8c6227" fill-opacity="0.501961" cx="118" cy="65" rx="5" ry="8" />
<ellipse fill="#a73d1f" fill-opacity="0.501961" cx="68" cy="123" rx="3" ry="8" />
<ellipse fill="#647251" fill-opacity="0.501961" cx="89" cy="28" rx="5" ry="4" />
<ellipse fill="#6f7558" fill-opacity="0.501961" cx="85" cy="95" rx="2" ry="7" />
<ellipse fill="#933917" fill-opacity="0.501961" cx="107" cy="158" rx="12" ry="3" />
<ellipse fill="#712f1a" fill-opacity="0.501961" cx="96" cy="163" rx="10" ry="8" />
<ellipse fill="#908579" fill-opacity="0.501961" cx="66" cy="206" rx="3" ry="13" />
<ellipse fill="#7e6a6f" fill-opacity="0.501961" cx="148" cy="248" rx="10" ry="7" />
<ellipse fill="#b75830" fill-opacity="0.501961" cx="46" cy="153" rx="7" ry="3" />
<ellipse fill="#b27d6a" fill-opacity="0.501961" cx="85" cy="29" rx="3" ry="5" />
<ellipse fill="#23180d" fill-opacity="0.501961" cx="158" cy="178" rx="23" ry="5" />
<ellipse fill="#757278" fill-opacity="0.501961" cx="179" cy="235" rx="5" ry="14" />
<ellipse fill="#52572a" fill-opacity="0.501961" cx="34" cy="120" rx="8" ry="7" />
<ellipse fill="#41362d" fill-opacity="0.501961" cx="156" cy="192" rx="19" ry="3" />
<ellipse fill="#3b2a1b" fill-opacity="0.501961" cx="134" cy="203" rx="17" ry="3" />
<ellipse fill="#a09187" fill-opacity="0.501961" cx="123" cy="246" rx="5" ry="22" />
<ellipse fill="#71441c" fill-opacity="0.501961" cx="75" cy="210" rx="6" ry="15" />
<ellipse fill="#423d1d" fill-opacity="0.501961" cx="117" cy="95" rx="2" ry="25" />
<ellipse fill="#d8c7b3" fill-opacity="0.501961" cx="28" cy="255" rx="19" ry="1" />
<ellipse fill="#a06e25" fill-opacity="0.501961" cx="28" cy="51" rx="14" ry="11" />
<ellipse fill="#a6a053" fill-opacity="0.501961" cx="138" cy="114" rx="3" ry="4" />
<ellipse fill="#806d5d" fill-opacity="0.501961" cx="196" cy="206" rx="10" ry="3" />
<ellipse fill="#977546" fill-opacity="0.501961" cx="43" cy="194" rx="21" ry="2" />
<ellipse fill="#995022" fill-opacity="0.501961" cx="160" cy="77" rx="9" ry="9" />
<ellipse fill="#ad6f31" fill-opacity="0.501961" cx="11" cy="90" rx="4" ry="29" />
<ellipse fill="#8c8878" fill-opacity="0.501961" cx="103" cy="252" rx="25" ry="3" />
<ellipse fill="#4a3831" fill-opacity="0.501961" cx="195" cy="128" rx="4" ry="8" />
<ellipse fill="#76351c" fill-opacity="0.501961" cx="73" cy="75" rx="8" ry="4" />
<ellipse fill="#707b88" fill-opacity="0.501961" cx="143" cy="229" rx="9" ry="10" />
<ellipse fill="#a49b8d" fill-opacity="0.501961" cx="77" cy="244" rx="28" ry="6" />
<ellipse fill="#232f16" fill-opacity="0.501961" cx="100" cy="228" rx="4" ry="2" />
<ellipse fill="#b05750" fill-opacity="0.501961" cx="68" cy="65" rx="10" ry="7" />
<ellipse fill="#af6e1e" fill-opacity="0.501961" cx="128" cy="12" rx="12" ry="14" />
<ellipse fill="#a6965c" fill-opacity="0.501961" cx="10" cy="135" rx="4" ry="4" />
<ellipse fill="#151d19" fill-opacity="0.501961" cx="114" cy="148" rx="4" ry="3" />
<ellipse fill="#705e39" fill-opacity="0.501961" cx="175" cy="133" rx="7" ry="4" />
<ellipse fill="#c46736" fill-opacity="0.501961" cx="50" cy="91" rx="11" ry="6" />
<ellipse fill="#86877e" fill-opacity="0.501961" cx="9" cy="247" rx="8" ry="6" />
<ellipse fill="#b2826c" fill-opacity="0.501961" cx="100" cy="79" rx="7" ry="6" />
<ellipse fill="#353721" fill-opacity="0.501961" cx="162" cy="132" rx="5" ry="4" />
<ellipse fill="#c6703b" fill-opacity="0.501961" cx="75" cy="117" rx="5" ry="4" />
<ellipse fill="#2d3323" fill-opacity="0.501961" cx="135" cy="125" rx="20" ry="3" />
<ellipse fill="#cc8b6b" fill-opacity="0.501961" cx="59" cy="57" rx="3" ry="2" />
<ellipse fill="#7d5830" fill-opacity="0.501961" cx="61" cy="139" rx="7" ry="2" />
<ellipse fill="#825b3d" fill-opacity="0.501961" cx="189" cy="133" rx="2" ry="15" />
<ellipse fill="#9f5d25" fill-opacity="0.501961" cx="56" cy="127" rx="3" ry="6" />
<ellipse fill="#938688" fill-opacity="0.501961" cx="168" cy="239" rx="2" ry="12" />
<ellipse fill="#783517" fill-opacity="0.501961" cx="166" cy="146" rx="8" ry="13" />
<ellipse fill="#ba6935" fill-opacity="0.501961" cx="113" cy="137" rx="5" ry="8" />
<ellipse fill="#a79d8e" fill-opacity="0.501961" cx="203" cy="230" rx="8" ry="3" />
<ellipse fill="#474729" fill-opacity="0.501961" cx="92" cy="147" rx="8" ry="3" />
<ellipse fill="#925d33" fill-opacity="0.501961" cx="150" cy="113" rx="4" ry="10" />
<ellipse fill="#44462c" fill-opacity="0.501961" cx="81" cy="170" rx="2" ry="5" />
<ellipse fill="#66511f" fill-opacity="0.501961" cx="46" cy="105" rx="7" ry="3" />
<ellipse fill="#c35a28" fill-opacity="0.501961" cx="96" cy="126" rx="4" ry="11" />
<ellipse fill="#bb6851" fill-opacity="0.501961" cx="59" cy="149" rx="6" ry="2" />
<ellipse fill="#87271e" fill-opacity="0.501961" cx="51" cy="63" rx="7" ry="4" />
<ellipse fill="#8d8a85" fill-opacity="0.501961" cx="11" cy="216" rx="11" ry="4" />
<ellipse fill="#898581" fill-opacity="0.501961" cx="72" cy="233" rx="33" ry="2" />
<ellipse fill="#87877b" fill-opacity="0.501961" cx="163" cy="206" rx="14" ry="7" />
<ellipse fill="#704923" fill-opacity="0.501961" cx="135" cy="140" rx="7" ry="6" />
<ellipse fill="#9e5645" fill-opacity="0.501961" cx="93" cy="183" rx="4" ry="5" />
<ellipse fill="#786a57" fill-opacity="0.501961" cx="145" cy="196" rx="5" ry="3" />
<ellipse fill="#4e2634" fill-opacity="0.501961" cx="133" cy="111" rx="3" ry="5" />
<ellipse fill="#755738" fill-opacity="0.501961" cx="123" cy="61" rx="3" ry="15" />
<ellipse fill="#62623b" fill-opacity="0.501961" cx="24" cy="112" rx="6" ry="9" />
<ellipse fill="#5e7359" fill-opacity="0.501961" cx="44" cy="131" rx="4" ry="2" />
</g>
</svg>