<svg xmlns="http://www.w3.org/2000/svg" version="1.1" width="1024" height="680">
<rect x="0" y="0" width="1024" height="680" fill="#c9c6c7" />
<g transform="scale(4.000000) translate(0.5 0.5)">
<path stroke="#6a5235" stroke-opacity="0.501961" fill="none" d="M 75.219802 128.099217 Q 131.025216 119.226524, 187.214009 134.221598" stroke-width="0.500000" />
<path stroke="#73593b" stroke-opacity="0.501961" fill="none" d="M 70.721750 123.434921 Q 106.278689 120.883815, 183.794097 128.128259" stroke-width="0.500000" />
<path stroke="#5f4322" stroke-opacity="0.501961" fill="none" d="M 85.596316 50.714013 Q 91.266200 47.849075, 159.901646 59.290869" stroke-width="0.500000" />
<path stroke="#573f21" stroke-opacity="0.501961" fill="none" d="M 158.496362 88.875885 Q 88.007724 102.538800, 83.969535 87.335474" stroke-width="0.500000" />
<path stroke="#5f4628" stroke-opacity="0.501961" fill="none" d="M 83.887860 98.708042 Q 94.825677 81.704112, 158.336582 100.503440" stroke-width="0.500000" />
<path stroke="#61492d" stroke-opacity="0.501961" fill="none" d="M 77.860364 128.265833 Q 86.397154 120.252856, 171.415944 136.341821" stroke-width="0.500000" />
<path stroke="#58442b" stroke-opacity="0.501961" fill="none" d="M 73.499416 121.150283 Q 106.208708 128.757055, 148.198855 122.781942" stroke-width="0.500000" />
<path stroke="#5f4322" stroke-opacity="0.501961" fill="none" d="M 159.038648 57.586111 Q 124.292156 59.767661, 85.191266 48.747842" stroke-width="0.500000" />
<path stroke="#806a50" stroke-opacity="0.501961" fill="none" d="M 191.004032 131.940957 Q 112.823542 136.750239, 64.035055 123.362180" stroke-width="0.500000" />
<path stroke="#6c5132" stroke-opacity="0.501961" fill="none" d="M 159.769548 98.879998 Q 146.529611 82.810955, 83.081915 91.570894" stroke-width="0.500000" />
<path stroke="#7e674c" stroke-opacity="0.501961" fill="none" d="M 186.643261 127.617986 Q 83.144348 135.171645, 82.429750 121.856687" stroke-width="0.500000" />
<path stroke="#60472a" stroke-opacity="0.501961" fill="none" d="M 158.940310 99.507433 Q 96.816987 94.658326, 84.299839 90.940424" stroke-width="0.500000" />
<path stroke="#6a5031" stroke-opacity="0.501961" fill="none" d="M 156.695687 43.959218 Q 138.199353 63.667210, 86.732582 48.163903" stroke-width="0.500000" />
<path stroke="#452e11" stroke-opacity="0.501961" fill="none" d="M 125.005572 60.854493 Q 128.573189 44.362000, 152.935674 49.341825" stroke-width="0.500000" />
<path stroke="#78634a" stroke-opacity="0.501961" fill="none" d="M 79.954089 91.840348 Q 109.056541 78.439576, 169.244206 99.091060" stroke-width="0.500000" />
<path stroke="#0f0000" stroke-opacity="0.501961" fill="none" d="M 13.736664 54.664938 Q -2.742230 35.496364, -16.000000 31.084388" stroke-width="0.500000" />
<path stroke="#846544" stroke-opacity="0.501961" fill="none" d="M 173.179541 129.585930 Q 126.775071 116.388428, 71.633774 122.805313" stroke-width="0.500000" />
<path stroke="#5b472c" stroke-opacity="0.501961" fill="none" d="M 84.746326 94.718858 Q 88.949786 90.466336, 156.509633 94.398945" stroke-width="0.500000" />
<path stroke="#715535" stroke-opacity="0.501961" fill="none" d="M 156.697526 56.457925 Q 129.773036 64.074793, 89.898763 51.047281" stroke-width="0.500000" />
<path stroke="#514532" stroke-opacity="0.501961" fill="none" d="M 94.458084 103.396861 Q 89.478083 77.270670, 92.390231 47.157630" stroke-width="0.500000" />
<path stroke="#6d4f2e" stroke-opacity="0.501961" fill="none" d="M 157.607177 60.929118 Q 153.451308 39.162734, 95.623062 59.549442" stroke-width="0.500000" />
<path stroke="#675137" stroke-opacity="0.501961" fill="none" d="M 155.620832 89.810256 Q 128.741492 89.402189, 82.410599 89.247713" stroke-width="0.500000" />
<path stroke="#7c674e" stroke-opacity="0.501961" fill="none" d="M 79.932740 122.449785 Q 111.905049 137.170373, 190.847939 122.773936" stroke-width="0.500000" />
<path stroke="#816547" stroke-opacity="0.501961" fill="none" d="M 82.582114 132.337950 Q 162.266244 119.647709, 171.166965 140.646137" stroke-width="0.500000" />
<path stroke="#7c6245" stroke-opacity="0.501961" fill="none" d="M 80.129897 95.809842 Q 134.998429 97.193910, 160.302576 100.300236" stroke-width="0.500000" />
<path stroke="#4e2a03" stroke-opacity="0.501961" fill="none" d="M 5.589001 12.085956 Q -16.000000 40.013570, 16.010564 54.029797" stroke-width="0.500000" />
<path stroke="#7e684f" stroke-opacity="0.501961" fill="none" d="M 77.828441 123.004256 Q 96.370376 136.450480, 187.488868 131.242651" stroke-width="0.500000" />
<path stroke="#7c6142" stroke-opacity="0.501961" fill="none" d="M 159.982524 63.869307 Q 152.412087 48.295673, 77.080264 49.329137" stroke-width="0.500000" />
<path stroke="#7a6142" stroke-opacity="0.501961" fill="none" d="M 160.634141 53.204410 Q 89.956555 45.530098, 87.442769 50.828132" stroke-width="0.500000" />
<path stroke="#80674c" stroke-opacity="0.501961" fill="none" d="M 169.873989 135.515241 Q 130.801466 138.031076, 90.679012 123.418745" stroke-width="0.500000" />
<path stroke="#87725c" stroke-opacity="0.501961" fill="none" d="M 70.968257 118.016161 Q 166.957552 148.582863, 147.285273 47.595920" stroke-width="0.500000" />
<path stroke="#050000" stroke-opacity="0.501961" fill="none" d="M 148.389481 62.048600 Q 149.367168 60.958289, 147.577222 46.542465" stroke-width="0.500000" />
<path stroke="#796248" stroke-opacity="0.501961" fill="none" d="M 185.237847 129.939099 Q 157.466502 117.079935, 74.288997 129.456156" stroke-width="0.500000" />
<path stroke="#745e43" stroke-opacity="0.501961" fill="none" d="M 152.753989 98.695019 Q 135.079423 88.458689, 84.177350 92.302223" stroke-width="0.500000" />
<path stroke="#826343" stroke-opacity="0.501961" fill="none" d="M -3.102308 59.105565 Q 28.334614 25.076064, -16.000000 -14.480196" stroke-width="0.500000" />
<path stroke="#846c53" stroke-opacity="0.501961" fill="none" d="M 77.266099 128.837044 Q 106.287074 111.821091, 185.193102 133.728455" stroke-width="0.500000" />
<path stroke="#201000" stroke-opacity="0.501961" fill="none" d="M 111.538141 47.051657 Q 104.622061 62.999527, 109.152844 65.179400" stroke-width="0.500000" />
<path stroke="#7c6347" stroke-opacity="0.501961" fill="none" d="M 83.910411 99.235351 Q 112.411880 72.561928, 159.589290 101.844341" stroke-width="0.500000" />
<path stroke="#867058" stroke-opacity="0.501961" fill="none" d="M 73.449548 126.864120 Q 119.406406 127.543140, 183.127204 125.372162" stroke-width="0.500000" />
<path stroke="#705334" stroke-opacity="0.501961" fill="none" d="M 154.430948 42.246797 Q 153.177811 69.875026, 108.849077 54.316961" stroke-width="0.500000" />
<path stroke="#775e42" stroke-opacity="0.501961" fill="none" d="M 156.900919 48.037595 Q 145.850480 49.523615, 90.446054 57.495953" stroke-width="0.500000" />
<path stroke="#775d43" stroke-opacity="0.501961" fill="none" d="M 0.694773 -11.157561 Q 4.564734 16.482341, 13.875698 58.547389" stroke-width="0.500000" />
<path stroke="#786248" stroke-opacity="0.501961" fill="none" d="M 155.950369 92.165432 Q 136.489768 100.936174, 84.086348 89.665152" stroke-width="0.500000" />
<path stroke="#512900" stroke-opacity="0.501961" fill="none" d="M 8.488671 21.882938 Q 12.009465 12.324692, -5.236071 3.203884" stroke-width="0.500000" />
<path stroke="#745532" stroke-opacity="0.501961" fill="none" d="M 160.312550 53.884685 Q 138.810240 74.846570, 124.132203 45.978801" stroke-width="0.500000" />
<path stroke="#50402a" stroke-opacity="0.501961" fill="none" d="M 85.831436 93.756861 Q 113.231397 106.082147, 116.092585 88.451742" stroke-width="0.500000" />
<path stroke="#3b2203" stroke-opacity="0.501961" fill="none" d="M 161.598438 140.779546 Q 155.386809 129.675564, 163.389969 123.474950" stroke-width="0.500000" />
<path stroke="#8f7150" stroke-opacity="0.501961" fill="none" d="M 159.484944 47.663331 Q 137.710384 67.754086, 87.688989 53.373538" stroke-width="0.500000" />
<path stroke="#786045" stroke-opacity="0.501961" fill="none" d="M 83.712433 88.208537 Q 144.533151 88.296805, 161.450786 89.290954" stroke-width="0.500000" />
<path stroke="#82674c" stroke-opacity="0.501961" fill="none" d="M 6.096221 4.640367 Q -1.571377 46.903800, 12.618422 64.331358" stroke-width="0.500000" />
<path stroke="#8e775e" stroke-opacity="0.501961" fill="none" d="M 179.934238 132.748527 Q 115.389004 138.985350, 77.416088 124.399038" stroke-width="0.500000" />
<path stroke="#735f46" stroke-opacity="0.501961" fill="none" d="M 82.450939 84.801983 Q 90.844504 85.199382, 92.038226 138.454952" stroke-width="0.500000" />
<path stroke="#8d745a" stroke-opacity="0.501961" fill="none" d="M 82.185312 130.542177 Q 160.999666 131.800800, 169.737433 131.885729" stroke-width="0.500000" />
<path stroke="#000000" stroke-opacity="0.501961" fill="none" d="M 149.298714 89.128318 Q 149.967828 98.484591, 147.314405 98.135205" stroke-width="0.500000" />
<path stroke="#281e0b" stroke-opacity="0.501961" fill="none" d="M 110.050241 48.338003 Q 116.746817 67.092958, 130.070425 51.803570" stroke-width="0.500000" />
<path stroke="#917a61" stroke-opacity="0.501961" fill="none" d="M 85.345095 115.111686 Q 140.454249 152.273033, 181.971194 127.500806" stroke-width="0.500000" />
<path stroke="#0b0000" stroke-opacity="0.501961" fill="none" d="M 165.862975 125.576538 Q 167.978847 135.042694, 160.025420 136.500536" stroke-width="0.500000" />
<path stroke="#8e6c4b" stroke-opacity="0.501961" fill="none" d="M 167.778492 138.022535 Q 164.418415 105.247586, 94.696275 127.081870" stroke-width="0.500000" />
<path stroke="#876746" stroke-opacity="0.501961" fill="none" d="M -13.606127 -1.854026 Q 32.900638 26.835800, 0.112474 61.178194" stroke-width="0.500000" />
<path stroke="#7c664d" stroke-opacity="0.501961" fill="none" d="M 84.465031 95.536877 Q 93.216137 74.024335, 158.335104 102.483805" stroke-width="0.500000" />
<path stroke="#644524" stroke-opacity="0.501961" fill="none" d="M 4.680558 7.666933 Q -16.000000 36.527163, 17.911382 55.207447" stroke-width="0.500000" />
<path stroke="#49351d" stroke-opacity="0.501961" fill="none" d="M 252.001435 2.102258 Q 262.663007 -3.146824, 271.000000 -0.526452" stroke-width="0.500000" />
<path stroke="#342816" stroke-opacity="0.501961" fill="none" d="M 125.167083 83.603673 Q 130.564972 89.370915, 126.230336 99.604421" stroke-width="0.500000" />
<path stroke="#392a13" stroke-opacity="0.501961" fill="none" d="M 95.356978 48.618080 Q 87.405707 51.174413, 95.684583 66.643085" stroke-width="0.500000" />
<path stroke="#241b07" stroke-opacity="0.501961" fill="none" d="M 97.027240 96.946301 Q 84.659000 94.021453, 85.099953 85.349667" stroke-width="0.500000" />
<path stroke="#5d4223" stroke-opacity="0.501961" fill="none" d="M 129.247164 49.989551 Q 130.261645 67.050941, 156.282579 57.123112" stroke-width="0.500000" />
<path stroke="#6c5135" stroke-opacity="0.501961" fill="none" d="M 98.982469 127.835213 Q 119.662243 107.293039, 129.422356 134.086162" stroke-width="0.500000" />
<path stroke="#9c7f62" stroke-opacity="0.501961" fill="none" d="M 77.867409 130.609852 Q 95.117379 111.877623, 192.514077 125.691628" stroke-width="0.500000" />
<path stroke="#7f6c56" stroke-opacity="0.501961" fill="none" d="M 83.749905 94.079198 Q 101.345228 72.061978, 147.656664 106.188810" stroke-width="0.500000" />
<path stroke="#6d5d49" stroke-opacity="0.501961" fill="none" d="M 132.947720 139.437666 Q 134.419072 130.140046, 132.727921 80.172181" stroke-width="0.500000" />
<path stroke="#291e0b" stroke-opacity="0.501961" fill="none" d="M 102.922468 118.520300 Q 105.696353 133.361362, 105.128907 133.657925" stroke-width="0.500000" />
<path stroke="#80674a" stroke-opacity="0.501961" fill="none" d="M 156.611831 47.115466 Q 121.746098 80.060643, 109.577011 44.416722" stroke-width="0.500000" />
<path stroke="#000000" stroke-opacity="0.501961" fill="none" d="M 112.626068 47.802609 Q 110.661463 49.816664, 115.727787 59.310711" stroke-width="0.500000" />
<path stroke="#3c2407" stroke-opacity="0.501961" fill="none" d="M 11.822682 41.460251 Q 12.701656 53.545371, 11.377535 58.735682" stroke-width="0.500000" />
<path stroke="#341800" stroke-opacity="0.501961" fill="none" d="M 271.000000 43.427589 Q 250.532561 2.528799, 253.212369 -0.107314" stroke-width="0.500000" />
<path stroke="#66533a" stroke-opacity="0.501961" fill="none" d="M 78.930682 122.448691 Q 75.480764 138.281619, 97.071401 135.069769" stroke-width="0.500000" />
<path stroke="#887158" stroke-opacity="0.501961" fill="none" d="M 156.720230 100.450116 Q 102.706422 86.453693, 78.483489 99.709657" stroke-width="0.500000" />
<path stroke="#574530" stroke-opacity="0.501961" fill="none" d="M 95.982610 120.461341 Q 107.565560 139.051954, 123.304416 122.796623" stroke-width="0.500000" />
<path stroke="#654d30" stroke-opacity="0.501961" fill="none" d="M 126.369056 54.370903 Q 145.119467 35.505432, 154.786719 60.695800" stroke-width="0.500000" />
<path stroke="#482d0e" stroke-opacity="0.501961" fill="none" d="M 8.557339 43.905015 Q 3.781894 45.850097, 6.447493 58.332037" stroke-width="0.500000" />
<path stroke="#020000" stroke-opacity="0.501961" fill="none" d="M 92.050746 85.592271 Q 92.065942 93.317150, 88.700206 97.226110" stroke-width="0.500000" />
<path stroke="#271b08" stroke-opacity="0.501961" fill="none" d="M 99.470306 133.656157 Q 98.872407 132.105635, 97.126409 117.859333" stroke-width="0.500000" />
<path stroke="#070000" stroke-opacity="0.501961" fill="none" d="M 163.482230 125.634867 Q 153.794367 129.391473, 161.415541 136.319480" stroke-width="0.500000" />
<path stroke="#1a0900" stroke-opacity="0.501961" fill="none" d="M 13.109948 42.644799 Q 10.239539 46.005622, 12.780269 52.671971" stroke-width="0.500000" />
<path stroke="#010000" stroke-opacity="0.501961" fill="none" d="M 85.408119 98.407954 Q 84.731505 89.868099, 85.096727 89.344802" stroke-width="0.500000" />
<path stroke="#472f0f" stroke-opacity="0.501961" fill="none" d="M 156.167665 45.541278 Q 144.063654 48.386060, 148.393503 58.833913" stroke-width="0.500000" />
<path stroke="#2e1c06" stroke-opacity="0.501961" fill="none" d="M 124.702725 131.852207 Q 128.248256 131.096773, 122.794670 117.570861" stroke-width="0.500000" />
<path stroke="#a5815d" stroke-opacity="0.501961" fill="none" d="M 91.891203 51.804478 Q 91.688543 69.968039, 160.179229 62.475767" stroke-width="0.500000" />
<path stroke="#7b4e20" stroke-opacity="0.501961" fill="none" d="M 9.552745 -7.328891 Q 11.341644 13.915712, 0.325582 18.217682" stroke-width="0.500000" />
<path stroke="#573712" stroke-opacity="0.501961" fill="none" d="M -9.704628 4.473803 Q 3.808181 4.152904, 7.780981 20.254572" stroke-width="0.500000" />
<path stroke="#000000" stroke-opacity="0.501961" fill="none" d="M 96.962673 121.483078 Q 97.630496 126.213127, 98.183222 131.230047" stroke-width="0.500000" />
<path stroke="#62513c" stroke-opacity="0.501961" fill="none" d="M 143.880698 133.620857 Q 139.374107 105.113402, 142.601130 83.227174" stroke-width="0.500000" />
<path stroke="#634e34" stroke-opacity="0.501961" fill="none" d="M 112.880594 46.681778 Q 106.103331 68.522823, 88.503498 54.549225" stroke-width="0.500000" />
<path stroke="#514029" stroke-opacity="0.501961" fill="none" d="M 84.957351 85.552350 Q 85.145756 99.396870, 102.094482 99.479497" stroke-width="0.500000" />
<path stroke="#685138" stroke-opacity="0.501961" fill="none" d="M 159.715476 96.262124 Q 136.183964 106.127753, 126.077305 87.613022" stroke-width="0.500000" />
<path stroke="#281903" stroke-opacity="0.501961" fill="none" d="M 14.238130 54.920548 Q -1.957869 33.445952, -16.000000 56.508329" stroke-width="0.500000" />
<path stroke="#020000" stroke-opacity="0.501961" fill="none" d="M 78.850757 132.488897 Q 77.383805 121.409849, 79.587408 120.368617" stroke-width="0.500000" />
<path stroke="#1b1609" stroke-opacity="0.501961" fill="none" d="M 126.866557 49.916192 Q 127.475158 63.113027, 124.393461 64.102851" stroke-width="0.500000" />
<path stroke="#6c553c" stroke-opacity="0.501961" fill="none" d="M 156.078708 96.640038 Q 131.430584 84.458783, 127.045249 99.629566" stroke-width="0.500000" />
<path stroke="#89745c" stroke-opacity="0.501961" fill="none" d="M 187.807534 136.506893 Q 174.051970 112.305249, 142.445165 125.639393" stroke-width="0.500000" />
<path stroke="#967554" stroke-opacity="0.501961" fill="none" d="M 160.032577 52.120906 Q 124.234398 32.445359, 104.819180 61.890476" stroke-width="0.500000" />
<path stroke="#4e3418" stroke-opacity="0.501961" fill="none" d="M 2.567946 41.761507 Q 7.232542 43.098022, 5.914550 57.367855" stroke-width="0.500000" />
<path stroke="#524634" stroke-opacity="0.501961" fill="none" d="M 86.015871 87.050650 Q 86.666352 103.759274, 113.318330 94.060546" stroke-width="0.500000" />
<path stroke="#241100" stroke-opacity="0.501961" fill="none" d="M 243.018008 -16.000000 Q 271.000000 30.472741, 271.000000 42.195916" stroke-width="0.500000" />
<path stroke="#634c34" stroke-opacity="0.501961" fill="none" d="M 120.738798 121.675740 Q 114.293348 132.852729, 133.025186 136.935599" stroke-width="0.500000" />
<path stroke="#000000" stroke-opacity="0.501961" fill="none" d="M 92.205883 51.175840 Q 91.380363 56.143503, 92.436172 59.788364" stroke-width="0.500000" />
<path stroke="#4e3211" stroke-opacity="0.501961" fill="none" d="M 150.619379 44.816285 Q 142.869212 56.684355, 156.591260 63.605239" stroke-width="0.500000" />
<path stroke="#2b1700" stroke-opacity="0.501961" fill="none" d="M 165.703647 138.420284 Q 165.431846 134.087060, 165.606900 125.331733" stroke-width="0.500000" />
<path stroke="#2b2618" stroke-opacity="0.501961" fill="none" d="M 128.914436 52.191920 Q 133.380445 62.859193, 137.743191 61.536653" stroke-width="0.500000" />
<path stroke="#785431" stroke-opacity="0.501961" fill="none" d="M 15.166672 43.718295 Q -4.626584 50.245357, -0.539841 59.565260" stroke-width="0.500000" />
<path stroke="#69451c" stroke-opacity="0.501961" fill="none" d="M 144.988192 52.861741 Q 157.159337 49.957013, 158.389635 61.337557" stroke-width="0.500000" />
<path stroke="#72502a" stroke-opacity="0.501961" fill="none" d="M 3.880593 -16.000000 Q 11.576486 4.207046, 2.481592 18.344323" stroke-width="0.500000" />
<path stroke="#3f3c31" stroke-opacity="0.501961" fill="none" d="M 179.898176 133.656689 Q 175.182178 124.711610, 183.270540 124.080977" stroke-width="0.500000" />
<path stroke="#231200" stroke-opacity="0.501961" fill="none" d="M 120.449736 133.058146 Q 116.195993 126.583564, 124.595717 120.833184" stroke-width="0.500000" />
<path stroke="#331e03" stroke-opacity="0.501961" fill="none" d="M 164.635068 126.494874 Q 170.052301 137.073795, 168.536155 137.842281" stroke-width="0.500000" />
<path stroke="#795e40" stroke-opacity="0.501961" fill="none" d="M 158.071446 54.395012 Q 139.090014 33.262691, 125.919571 59.645853" stroke-width="0.500000" />
<path stroke="#241a09" stroke-opacity="0.501961" fill="none" d="M 113.384282 47.281072 Q 109.011256 51.470526, 106.287834 61.166017" stroke-width="0.500000" />
<path stroke="#7b5f42" stroke-opacity="0.501961" fill="none" d="M 160.555955 95.560968 Q 143.806125 78.945125, 127.625246 96.562025" stroke-width="0.500000" />
<path stroke="#080800" stroke-opacity="0.501961" fill="none" d="M 144.513104 121.265052 Q 141.141036 131.484734, 142.891205 132.927175" stroke-width="0.500000" />
<path stroke="#342812" stroke-opacity="0.501961" fill="none" d="M 92.358640 57.825128 Q 91.164533 46.167316, 88.315340 44.835973" stroke-width="0.500000" />
<path stroke="#312817" stroke-opacity="0.501961" fill="none" d="M 114.607067 58.219876 Q 113.571693 57.809218, 110.623860 43.139824" stroke-width="0.500000" />
<path stroke="#2c1a01" stroke-opacity="0.501961" fill="none" d="M 158.643940 127.733007 Q 160.003566 137.885543, 164.527253 136.972638" stroke-width="0.500000" />
<path stroke="#b8997a" stroke-opacity="0.501961" fill="none" d="M 76.289758 130.166607 Q 106.542117 137.049374, 169.695767 140.277853" stroke-width="0.500000" />
<path stroke="#000000" stroke-opacity="0.501961" fill="none" d="M 124.998140 131.722781 Q 128.705144 125.644262, 122.766320 123.502850" stroke-width="0.500000" />
<path stroke="#92795e" stroke-opacity="0.501961" fill="none" d="M 87.968276 96.846245 Q 134.890878 71.720758, 154.027365 93.858680" stroke-width="0.500000" />
<path stroke="#110400" stroke-opacity="0.501961" fill="none" d="M 150.643610 88.703961 Q 147.130746 90.659394, 150.468799 100.072954" stroke-width="0.500000" />
<path stroke="#422d12" stroke-opacity="0.501961" fill="none" d="M 152.690440 87.640969 Q 145.683686 93.833929, 151.370539 103.384608" stroke-width="0.500000" />
<path stroke="#714318" stroke-opacity="0.501961" fill="none" d="M 142.106575 85.733990 Q 139.845362 96.130913, 143.717707 103.997483" stroke-width="0.500000" />
<path stroke="#693c0c" stroke-opacity="0.501961" fill="none" d="M 95.209578 136.380030 Q 89.837273 134.267204, 91.922047 120.737177" stroke-width="0.500000" />
<path stroke="#0b0600" stroke-opacity="0.501961" fill="none" d="M 92.245439 86.866703 Q 89.627998 92.321462, 89.687544 97.949979" stroke-width="0.500000" />
<path stroke="#b1967b" stroke-opacity="0.501961" fill="none" d="M 71.485320 131.556687 Q 73.352117 129.509184, 177.233268 139.114555" stroke-width="0.500000" />
<path stroke="#624525" stroke-opacity="0.501961" fill="none" d="M 133.187692 119.085332 Q 134.901004 136.891356, 130.313583 138.038426" stroke-width="0.500000" />
<path stroke="#231e11" stroke-opacity="0.501961" fill="none" d="M 109.911800 97.102644 Q 105.834395 89.954494, 109.084859 85.301468" stroke-width="0.500000" />
<path stroke="#5b5141" stroke-opacity="0.501961" fill="none" d="M 111.946747 97.160123 Q 118.283870 87.730268, 107.800359 82.493644" stroke-width="0.500000" />
<path stroke="#896d50" stroke-opacity="0.501961" fill="none" d="M 107.602013 132.352905 Q 103.017100 129.931771, 100.397673 81.318106" stroke-width="0.500000" />
<path stroke="#5c350e" stroke-opacity="0.501961" fill="none" d="M 10.259264 12.536749 Q -6.889134 -0.762848, -18.233556 25.103908" stroke-width="0.500000" />
<path stroke="#675035" stroke-opacity="0.501961" fill="none" d="M 125.531759 51.390930 Q 144.618048 72.737708, 154.753367 49.054153" stroke-width="0.500000" />
<path stroke="#3f392a" stroke-opacity="0.501961" fill="none" d="M 77.133166 129.251520 Q 86.875290 128.616252, 81.533983 120.080609" stroke-width="0.500000" />
<path stroke="#524535" stroke-opacity="0.501961" fill="none" d="M 103.665125 121.461958 Q 101.379562 135.368486, 121.057833 131.594352" stroke-width="0.500000" />
<path stroke="#59422b" stroke-opacity="0.501961" fill="none" d="M 128.395283 121.972671 Q 116.842068 122.248988, 118.262863 130.825552" stroke-width="0.500000" />
<path stroke="#b27e4d" stroke-opacity="0.501961" fill="none" d="M 224.738889 -16.000000 Q 227.216373 -3.730714, 255.818176 13.178984" stroke-width="0.500000" />
<path stroke="#2b291e" stroke-opacity="0.501961" fill="none" d="M 142.197223 134.167812 Q 143.095747 131.163608, 144.468383 123.170314" stroke-width="0.500000" />
<path stroke="#463925" stroke-opacity="0.501961" fill="none" d="M 98.532880 102.810699 Q 91.816619 94.114188, 92.979649 87.052018" stroke-width="0.500000" />
<path stroke="#6b553b" stroke-opacity="0.501961" fill="none" d="M 91.298620 59.157088 Q 107.005722 68.832989, 109.672201 49.710584" stroke-width="0.500000" />
<path stroke="#b79675" stroke-opacity="0.501961" fill="none" d="M 159.123531 103.393094 Q 125.814271 94.698146, 80.365302 101.046188" stroke-width="0.500000" />
<path stroke="#b2916e" stroke-opacity="0.501961" fill="none" d="M 80.814041 57.092600 Q 155.559446 74.084763, 159.510524 45.457363" stroke-width="0.500000" />
<path stroke="#130e00" stroke-opacity="0.501961" fill="none" d="M 98.050996 132.513874 Q 99.191717 131.071350, 97.102295 120.658988" stroke-width="0.500000" />
<path stroke="#a97544" stroke-opacity="0.501961" fill="none" d="M -5.624549 -16.000000 Q 19.814194 14.029817, 4.642406 22.534270" stroke-width="0.500000" />
<path stroke="#554733" stroke-opacity="0.501961" fill="none" d="M 104.309548 117.003717 Q 105.297770 124.481997, 103.749614 134.508622" stroke-width="0.500000" />
<path stroke="#38240c" stroke-opacity="0.501961" fill="none" d="M -6.896607 17.726076 Q 6.398759 20.709811, 4.141844 8.458796" stroke-width="0.500000" />
<path stroke="#a37347" stroke-opacity="0.501961" fill="none" d="M 12.446386 22.137396 Q -7.984066 17.632230, 4.852194 1.828850" stroke-width="0.500000" />
<path stroke="#ac7746" stroke-opacity="0.501961" fill="none" d="M 160.340204 45.280788 Q 139.935407 39.557535, 141.504140 62.828366" stroke-width="0.500000" />
<path stroke="#654b2e" stroke-opacity="0.501961" fill="none" d="M 1.421136 47.217917 Q 7.337935 44.814766, 17.046614 53.765455" stroke-width="0.500000" />
<path stroke="#533b1d" stroke-opacity="0.501961" fill="none" d="M 157.433981 60.168391 Q 150.722327 60.973389, 147.528977 46.547994" stroke-width="0.500000" />
<path stroke="#493f31" stroke-opacity="0.501961" fill="none" d="M 123.231065 84.552734 Q 130.992425 87.789325, 126.667365 99.014721" stroke-width="0.500000" />
<path stroke="#282215" stroke-opacity="0.501961" fill="none" d="M 135.022777 98.479614 Q 128.268463 91.805327, 126.663387 90.409491" stroke-width="0.500000" />
<path stroke="#7d5e3f" stroke-opacity="0.501961" fill="none" d="M 271.000000 36.794559 Q 241.795132 6.294779, 259.449504 -16.000000" stroke-width="0.500000" />
<path stroke="#ac794a" stroke-opacity="0.501961" fill="none" d="M 1.624116 22.380302 Q 13.664908 20.952927, 9.209331 -6.749499" stroke-width="0.500000" />
<path stroke="#18170e" stroke-opacity="0.501961" fill="none" d="M 125.178770 57.273298 Q 133.862177 49.366394, 131.540259 48.117351" stroke-width="0.500000" />
<path stroke="#131006" stroke-opacity="0.501961" fill="none" d="M 127.098862 59.904831 Q 126.909458 53.456951, 126.382876 47.469338" stroke-width="0.500000" />
<path stroke="#4a4434" stroke-opacity="0.501961" fill="none" d="M 85.871713 136.393704 Q 84.609979 123.993576, 82.473484 123.168031" stroke-width="0.500000" />
<path stroke="#d5d5d8" stroke-opacity="0.501961" fill="none" d="M -6.017665 11.683271 Q 12.919196 175.448950, 271.000000 75.305874" stroke-width="0.500000" />
<path stroke="#a47340" stroke-opacity="0.501961" fill="none" d="M 98.898133 101.486221 Q 105.816471 83.083337, 94.865482 81.732315" stroke-width="0.500000" />
<path stroke="#5d4224" stroke-opacity="0.501961" fill="none" d="M 3.534623 60.058995 Q 8.523715 54.876961, 5.447696 49.560306" stroke-width="0.500000" />
<path stroke="#4a463a" stroke-opacity="0.501961" fill="none" d="M 177.832809 124.279726 Q 185.467602 126.226815, 182.674398 134.320851" stroke-width="0.500000" />
<path stroke="#080100" stroke-opacity="0.501961" fill="none" d="M 250.553324 2.534793 Q 256.700275 3.919202, 258.775369 -16.000000" stroke-width="0.500000" />
<path stroke="#1b180c" stroke-opacity="0.501961" fill="none" d="M 127.448196 98.685693 Q 128.746937 91.345691, 127.920926 87.172876" stroke-width="0.500000" />
<path stroke="#010000" stroke-opacity="0.501961" fill="none" d="M 88.847311 95.930282 Q 89.807742 94.555820, 93.687368 86.947016" stroke-width="0.500000" />
<path stroke="#bf9d7d" stroke-opacity="0.501961" fill="none" d="M 72.568320 117.794414 Q 96.532881 118.327017, 167.721410 123.615374" stroke-width="0.500000" />
<path stroke="#d5d8df" stroke-opacity="0.501961" fill="none" d="M 4.878910 62.551036 Q -11.963608 185.000000, 268.151321 162.667469" stroke-width="0.500000" />
<path stroke="#562d00" stroke-opacity="0.501961" fill="none" d="M 92.532132 132.981540 Q 91.534401 124.061990, 91.387841 117.046917" stroke-width="0.500000" />
<path stroke="#694d2f" stroke-opacity="0.501961" fill="none" d="M -4.571407 55.181325 Q 11.499326 55.190374, 13.480575 46.933911" stroke-width="0.500000" />
<path stroke="#3f3827" stroke-opacity="0.501961" fill="none" d="M 93.578425 95.227674 Q 84.381375 95.112115, 84.063690 86.276828" stroke-width="0.500000" />
<path stroke="#d4d7de" stroke-opacity="0.501961" fill="none" d="M -10.219555 38.805537 Q 271.000000 -16.000000, 252.027581 185.000000" stroke-width="0.500000" />
<path stroke="#d5d8df" stroke-opacity="0.501961" fill="none" d="M 236.537390 24.587920 Q 271.000000 180.702889, -0.956326 168.259990" stroke-width="0.500000" />
<path stroke="#726350" stroke-opacity="0.501961" fill="none" d="M 187.869620 136.051104 Q 175.229035 115.794694, 159.693778 128.856781" stroke-width="0.500000" />
<path stroke="#9f7e5e" stroke-opacity="0.501961" fill="none" d="M 130.040817 90.184824 Q 150.257921 74.156111, 158.791587 104.980010" stroke-width="0.500000" />
<path stroke="#5c4021" stroke-opacity="0.501961" fill="none" d="M 111.918210 121.692953 Q 114.038663 126.971557, 112.277802 132.198396" stroke-width="0.500000" />
<path stroke="#7c6549" stroke-opacity="0.501961" fill="none" d="M 117.283149 61.046699 Q 107.577675 33.175286, 86.488215 53.853824" stroke-width="0.500000" />
<path stroke="#372816" stroke-opacity="0.501961" fill="none" d="M 12.611163 55.052579 Q 4.664984 38.854583, -9.494569 49.472132" stroke-width="0.500000" />
<path stroke="#766755" stroke-opacity="0.501961" fill="none" d="M 134.823883 91.153837 Q 114.333000 77.552604, 106.973912 90.194686" stroke-width="0.500000" />
<path stroke="#6b4c29" stroke-opacity="0.501961" fill="none" d="M 158.605884 55.743140 Q 155.562589 51.192084, 140.299339 54.616818" stroke-width="0.500000" />
<path stroke="#c5a482" stroke-opacity="0.501961" fill="none" d="M 83.554234 48.149898 Q 107.967592 44.889509, 160.928989 43.241481" stroke-width="0.500000" />
<path stroke="#966532" stroke-opacity="0.501961" fill="none" d="M 99.540498 81.739314 Q 100.884870 89.470342, 100.448767 104.596959" stroke-width="0.500000" />
<path stroke="#c1a283" stroke-opacity="0.501961" fill="none" d="M 163.152309 60.056761 Q 128.774418 70.249769, 80.121542 60.648530" stroke-width="0.500000" />
<path stroke="#684825" stroke-opacity="0.501961" fill="none" d="M 11.590267 20.900016 Q 9.923145 17.980476, 1.951226 7.289879" stroke-width="0.500000" />
<path stroke="#4c361e" stroke-opacity="0.501961" fill="none" d="M 157.881376 122.977210 Q 169.788182 127.429343, 163.475791 136.349860" stroke-width="0.500000" />
<path stroke="#d5d8df" stroke-opacity="0.501961" fill="none" d="M 252.494742 64.736393 Q 263.173389 183.895305, -16.000000 160.178966" stroke-width="0.500000" />
<path stroke="#9f8365" stroke-opacity="0.501961" fill="none" d="M 98.202319 67.278345 Q 104.010339 67.165397, 101.904384 42.865952" stroke-width="0.500000" />
<path stroke="#d4d7de" stroke-opacity="0.501961" fill="none" d="M 3.134124 34.260461 Q 271.000000 -16.000000, 253.817037 184.177061" stroke-width="0.500000" />
<path stroke="#47290b" stroke-opacity="0.501961" fill="none" d="M 253.582365 7.769561 Q 256.840016 1.483981, 269.043431 -15.914124" stroke-width="0.500000" />
<path stroke="#473b29" stroke-opacity="0.501961" fill="none" d="M 86.763215 46.191451 Q 96.619249 54.833251, 88.937244 61.575017" stroke-width="0.500000" />
<path stroke="#7c5f45" stroke-opacity="0.501961" fill="none" d="M 131.238800 119.694656 Q 111.147803 122.384019, 122.892839 138.715306" stroke-width="0.500000" />
<path stroke="#000000" stroke-opacity="0.501961" fill="none" d="M 83.724589 126.842348 Q 77.102923 127.323625, 78.087495 131.291799" stroke-width="0.500000" />
<path stroke="#d5d8df" stroke-opacity="0.501961" fill="none" d="M 261.365714 158.148870 Q -2.162398 185.000000, 11.914674 60.720510" stroke-width="0.500000" />
<path stroke="#262012" stroke-opacity="0.501961" fill="none" d="M 109.019626 132.694784 Q 102.162066 130.889095, 104.744758 120.717737" stroke-width="0.500000" />
<path stroke="#090800" stroke-opacity="0.501961" fill="none" d="M 113.065313 86.036193 Q 118.484888 92.510914, 110.790845 96.221644" stroke-width="0.500000" />
<path stroke="#d4d7de" stroke-opacity="0.501961" fill="none" d="M 246.560602 176.668892 Q 260.024659 -16.000000, -16.000000 41.832350" stroke-width="0.500000" />
<path stroke="#412c15" stroke-opacity="0.501961" fill="none" d="M 157.356471 91.871913 Q 155.769098 87.957912, 148.310830 90.121893" stroke-width="0.500000" />
<path stroke="#201502" stroke-opacity="0.501961" fill="none" d="M 149.871070 91.408554 Q 148.466628 93.725226, 148.335785 101.131902" stroke-width="0.500000" />
<path stroke="#d3d6dc" stroke-opacity="0.501961" fill="none" d="M 190.195299 0.461336 Q -7.117385 -16.000000, 14.475877 179.431344" stroke-width="0.500000" />
<path stroke="#443219" stroke-opacity="0.501961" fill="none" d="M 148.518590 47.908515 Q 148.609943 61.386666, 145.942038 63.799087" stroke-width="0.500000" />
<path stroke="#110c00" stroke-opacity="0.501961" fill="none" d="M 108.106495 58.252282 Q 110.146840 47.639342, 113.543975 48.632722" stroke-width="0.500000" />
<path stroke="#7c6951" stroke-opacity="0.501961" fill="none" d="M 81.142800 55.983373 Q 100.751020 40.846743, 118.945557 61.629138" stroke-width="0.500000" />
<path stroke="#d3d6dd" stroke-opacity="0.501961" fill="none" d="M 254.937879 176.222378 Q 271.000000 -16.000000, -0.827996 29.186580" stroke-width="0.500000" />
<path stroke="#000000" stroke-opacity="0.501961" fill="none" d="M 132.606830 88.267417 Q 126.179695 88.674727, 127.484655 94.818430" stroke-width="0.500000" />
<path stroke="#000000" stroke-opacity="0.501961" fill="none" d="M 152.054268 58.421590 Q 147.233842 57.002106, 148.624386 52.650944" stroke-width="0.500000" />
<path stroke="#7f5e3d" stroke-opacity="0.501961" fill="none" d="M 161.196516 47.993507 Q 151.053559 49.875710, 142.482117 45.441857" stroke-width="0.500000" />
<path stroke="#4c4434" stroke-opacity="0.501961" fill="none" d="M 81.833690 100.803385 Q 85.841285 95.859315, 86.537912 86.640887" stroke-width="0.500000" />
<path stroke="#d4d7de" stroke-opacity="0.501961" fill="none" d="M 261.054813 107.281845 Q 18.718682 26.958801, -1.137585 159.064534" stroke-width="0.500000" />
<path stroke="#100a00" stroke-opacity="0.501961" fill="none" d="M 12.384470 46.441535 Q 11.025901 51.645325, 13.354829 54.175971" stroke-width="0.500000" />
<path stroke="#d5d7de" stroke-opacity="0.501961" fill="none" d="M 222.382569 -3.230816 Q 269.469535 185.000000, 33.906704 158.890051" stroke-width="0.500000" />
<path stroke="#c4a689" stroke-opacity="0.501961" fill="none" d="M 155.402849 104.811972 Q 138.249184 96.419216, 73.987673 103.642616" stroke-width="0.500000" />
<path stroke="#a78769" stroke-opacity="0.501961" fill="none" d="M 137.164460 119.237884 Q 82.428336 116.045958, 77.022035 126.348029" stroke-width="0.500000" />
<path stroke="#a3886e" stroke-opacity="0.501961" fill="none" d="M 82.212655 133.658610 Q 122.593960 138.623057, 133.091829 126.996913" stroke-width="0.500000" />
<path stroke="#926d4a" stroke-opacity="0.501961" fill="none" d="M -16.000000 118.589479 Q -16.000000 72.098483, 16.434567 38.772449" stroke-width="0.500000" />
<path stroke="#423019" stroke-opacity="0.501961" fill="none" d="M 5.216404 11.188134 Q 7.252084 18.693979, -5.992525 19.838273" stroke-width="0.500000" />
<path stroke="#6e5336" stroke-opacity="0.501961" fill="none" d="M 17.297319 56.793679 Q 14.991341 47.815822, 3.807761 49.871333" stroke-width="0.500000" />
<path stroke="#674d2f" stroke-opacity="0.501961" fill="none" d="M 112.292270 132.844903 Q 112.629025 128.549758, 112.453476 118.072284" stroke-width="0.500000" />
<path stroke="#d5d8df" stroke-opacity="0.501961" fill="none" d="M 271.000000 165.287000 Q -13.067890 185.000000, 0.762555 73.041931" stroke-width="0.500000" />
<path stroke="#d3d6dd" stroke-opacity="0.501961" fill="none" d="M 247.414646 157.900054 Q 271.000000 -13.001676, 11.834064 4.349369" stroke-width="0.500000" />
<path stroke="#d3d6dd" stroke-opacity="0.501961" fill="none" d="M 14.683218 8.763901 Q 241.468299 -16.000000, 244.293729 169.777505" stroke-width="0.500000" />
<path stroke="#574c3d" stroke-opacity="0.501961" fill="none" d="M 125.816632 97.768440 Q 135.565099 96.670838, 133.116878 86.597321" stroke-width="0.500000" />
<path stroke="#9e876f" stroke-opacity="0.501961" fill="none" d="M 184.780201 129.984873 Q 178.374956 140.510101, 149.149656 138.186617" stroke-width="0.500000" />
<path stroke="#473622" stroke-opacity="0.501961" fill="none" d="M 7.607791 58.601198 Q 6.155652 49.404216, 4.034780 43.554678" stroke-width="0.500000" />
<path stroke="#d4d6dd" stroke-opacity="0.501961" fill="none" d="M 7.102888 138.397293 Q 130.486289 -16.000000, 254.103518 182.358706" stroke-width="0.500000" />
<path stroke="#111109" stroke-opacity="0.501961" fill="none" d="M 130.860564 50.625029 Q 132.414337 52.472085, 125.543582 55.890289" stroke-width="0.500000" />
<path stroke="#010000" stroke-opacity="0.501961" fill="none" d="M 155.315896 48.285583 Q 149.294422 48.372758, 147.315936 48.973074" stroke-width="0.500000" />
<path stroke="#060000" stroke-opacity="0.501961" fill="none" d="M 159.681045 133.748426 Q 162.979635 137.450348, 166.692828 131.316858" stroke-width="0.500000" />
<path stroke="#0b0900" stroke-opacity="0.501961" fill="none" d="M 13.664437 54.301560 Q 9.074791 49.830946, 5.441353 45.285241" stroke-width="0.500000" />
<path stroke="#d4d7de" stroke-opacity="0.501961" fill="none" d="M 1.925452 70.816551 Q 7.376253 119.242271, 253.558213 115.953543" stroke-width="0.500000" />
<path stroke="#d3d6dd" stroke-opacity="0.501961" fill="none" d="M 237.301792 173.125042 Q 234.985440 -16.000000, 0.502013 32.091225" stroke-width="0.500000" />
<path stroke="#2e2f27" stroke-opacity="0.501961" fill="none" d="M 143.139671 131.723470 Q 145.723271 123.349011, 138.898084 121.630422" stroke-width="0.500000" />
<path stroke="#080200" stroke-opacity="0.501961" fill="none" d="M 119.270057 125.317002 Q 125.807240 121.445167, 126.376806 129.146251" stroke-width="0.500000" />
<path stroke="#2b251a" stroke-opacity="0.501961" fill="none" d="M 133.613260 98.263421 Q 132.279513 92.773405, 125.526702 91.410448" stroke-width="0.500000" />
<path stroke="#d4d7de" stroke-opacity="0.501961" fill="none" d="M 45.689561 167.731793 Q 271.000000 185.000000, 211.787888 -0.692745" stroke-width="0.500000" />
<path stroke="#d4d6db" stroke-opacity="0.501961" fill="none" d="M -4.820735 165.364690 Q 242.712153 185.000000, 214.409853 29.270919" stroke-width="0.500000" />
<path stroke="#d4d7de" stroke-opacity="0.501961" fill="none" d="M 255.475603 174.380085 Q 241.215547 76.582062, -11.159954 127.266956" stroke-width="0.500000" />
<path stroke="#d3d6dc" stroke-opacity="0.501961" fill="none" d="M 5.973563 164.412148 Q -1.191110 -16.000000, 261.014971 27.433687" stroke-width="0.500000" />
<path stroke="#c2a58a" stroke-opacity="0.501961" fill="none" d="M 73.958539 95.090006 Q 114.722597 106.532926, 161.670081 102.050319" stroke-width="0.500000" />
<path stroke="#ac7747" stroke-opacity="0.501961" fill="none" d="M 10.648999 23.346678 Q 15.850539 4.966717, -3.546058 7.755316" stroke-width="0.500000" />
<path stroke="#d3d6dd" stroke-opacity="0.501961" fill="none" d="M 247.101087 23.968576 Q 239.172233 167.324575, -16.000000 85.240038" stroke-width="0.500000" />
<path stroke="#c0a58b" stroke-opacity="0.501961" fill="none" d="M 167.563160 140.796070 Q 108.267211 137.885506, 84.289962 133.847430" stroke-width="0.500000" />
<path stroke="#d4d7de" stroke-opacity="0.501961" fill="none" d="M 248.470794 62.958605 Q 261.528912 175.900724, -13.199768 154.772148" stroke-width="0.500000" />
<path stroke="#9c6e44" stroke-opacity="0.501961" fill="none" d="M 141.409048 43.787541 Q 142.577380 62.961623, 141.457026 64.787315" stroke-width="0.500000" />
<path stroke="#d3d5dc" stroke-opacity="0.501961" fill="none" d="M 252.017854 23.056229 Q -16.000000 -11.549283, 2.290891 164.156204" stroke-width="0.500000" />
<path stroke="#d5cfcc" stroke-opacity="0.501961" fill="none" d="M 135.512314 177.850033 Q 141.696459 87.976154, 137.392223 -16.000000" stroke-width="0.500000" />
<path stroke="#d4d7de" stroke-opacity="0.501961" fill="none" d="M 254.801582 146.269695 Q 25.835327 146.040437, -14.429739 145.693270" stroke-width="0.500000" />
<path stroke="#d3d6dc" stroke-opacity="0.501961" fill="none" d="M 0.631322 27.775299 Q 271.000000 -16.000000, 243.657714 158.952305" stroke-width="0.500000" />
<path stroke="#885e37" stroke-opacity="0.501961" fill="none" d="M 143.392123 83.787682 Q 140.174708 99.497817, 144.067326 103.999392" stroke-width="0.500000" />
<path stroke="#5f5c51" stroke-opacity="0.501961" fill="none" d="M 179.552936 124.527808 Q 178.819633 126.953110, 189.441094 134.553268" stroke-width="0.500000" />
<path stroke="#322510" stroke-opacity="0.501961" fill="none" d="M 162.497778 137.862804 Q 155.407279 130.464720, 161.473150 126.897763" stroke-width="0.500000" />
<path stroke="#d3d6dc" stroke-opacity="0.501961" fill="none" d="M 10.122388 184.102941 Q -16.000000 -12.341003, 264.321384 32.139763" stroke-width="0.500000" />
<path stroke="#2d2617" stroke-opacity="0.501961" fill="none" d="M 84.971891 124.616940 Q 79.348107 121.149138, 78.357084 127.499671" stroke-width="0.500000" />
<path stroke="#73624d" stroke-opacity="0.501961" fill="none" d="M 85.759717 51.450554 Q 107.811308 45.136024, 117.959472 62.459335" stroke-width="0.500000" />
<path stroke="#5a4e3c" stroke-opacity="0.501961" fill="none" d="M 88.825221 86.350287 Q 97.289648 88.221468, 90.860483 103.096393" stroke-width="0.500000" />
<path stroke="#000000" stroke-opacity="0.501961" fill="none" d="M 112.316290 50.415440 Q 112.850940 52.888859, 114.427762 57.249929" stroke-width="0.500000" />
<path stroke="#262216" stroke-opacity="0.501961" fill="none" d="M 93.524468 88.929242 Q 87.611925 94.481403, 84.319365 87.084441" stroke-width="0.500000" />
<path stroke="#2a271c" stroke-opacity="0.501961" fill="none" d="M 85.645766 88.056593 Q 89.620260 97.642179, 91.508123 98.938739" stroke-width="0.500000" />
<path stroke="#1a170d" stroke-opacity="0.501961" fill="none" d="M 121.366949 134.389833 Q 116.941584 128.968225, 121.009013 123.875288" stroke-width="0.500000" />
<path stroke="#d4d7dd" stroke-opacity="0.501961" fill="none" d="M 234.458798 22.204727 Q 262.773430 185.000000, 25.356355 146.988198" stroke-width="0.500000" />
<path stroke="#c2a07f" stroke-opacity="0.501961" fill="none" d="M 79.801137 66.235721 Q 101.374395 62.342476, 159.612996 61.869870" stroke-width="0.500000" />
<path stroke="#000000" stroke-opacity="0.501961" fill="none" d="M 129.493461 88.423912 Q 126.430519 88.694026, 127.697766 96.523591" stroke-width="0.500000" />
<path stroke="#ab9075" stroke-opacity="0.501961" fill="none" d="M 153.974174 126.768267 Q 166.933149 111.420999, 187.962634 128.472640" stroke-width="0.500000" />
<path stroke="#d4d7de" stroke-opacity="0.501961" fill="none" d="M 265.207227 155.523584 Q 18.416064 185.000000, 4.724617 68.595442" stroke-width="0.500000" />
<path stroke="#b98759" stroke-opacity="0.501961" fill="none" d="M 141.791569 43.839227 Q 165.727688 45.304758, 156.188642 64.575992" stroke-width="0.500000" />
<path stroke="#d3d6dd" stroke-opacity="0.501961" fill="none" d="M -16.000000 96.533021 Q 232.775500 15.771155, 235.367357 169.804468" stroke-width="0.500000" />
<path stroke="#d3d5db" stroke-opacity="0.501961" fill="none" d="M -14.131972 12.577767 Q 140.184958 135.370499, 239.554463 36.742992" stroke-width="0.500000" />
<path stroke="#000000" stroke-opacity="0.501961" fill="none" d="M 251.719412 1.840784 Q 271.000000 -8.524309, 270.585597 -16.000000" stroke-width="0.500000" />
<path stroke="#d3d5dc" stroke-opacity="0.501961" fill="none" d="M 226.189708 6.022882 Q -16.000000 -16.000000, 4.769629 185.000000" stroke-width="0.500000" />
<path stroke="#d3d5dc" stroke-opacity="0.501961" fill="none" d="M 235.503990 13.314773 Q -16.000000 -12.564423, 24.591196 164.115566" stroke-width="0.500000" />
<path stroke="#433017" stroke-opacity="0.501961" fill="none" d="M 149.702257 99.774914 Q 148.253499 94.397057, 154.023916 94.003076" stroke-width="0.500000" />
<path stroke="#d3d5dc" stroke-opacity="0.501961" fill="none" d="M -2.429798 38.195634 Q 248.215292 -1.503626, 239.917669 168.808667" stroke-width="0.500000" />
<path stroke="#bd916a" stroke-opacity="0.501961" fill="none" d="M 232.389106 -1.495393 Q 269.157018 12.172289, 271.000000 70.242054" stroke-width="0.500000" />
<path stroke="#d2d5dc" stroke-opacity="0.501961" fill="none" d="M -1.868346 41.049422 Q 14.485280 -16.000000, 256.396638 43.731596" stroke-width="0.500000" />
<path stroke="#ae845e" stroke-opacity="0.501961" fill="none" d="M 16.524145 57.842711 Q 18.989266 42.983504, -2.207939 39.988957" stroke-width="0.500000" />
<path stroke="#403727" stroke-opacity="0.501961" fill="none" d="M 87.656419 84.245516 Q 82.767057 94.081260, 86.785992 97.385025" stroke-width="0.500000" />
<path stroke="#d4d7de" stroke-opacity="0.501961" fill="none" d="M -3.030430 162.400748 Q 256.739923 182.893166, 251.242309 92.311737" stroke-width="0.500000" />
<path stroke="#d2d4da" stroke-opacity="0.501961" fill="none" d="M 24.090824 9.827749 Q 237.128780 -10.393542, 161.041728 176.311754" stroke-width="0.500000" />
<path stroke="#806b54" stroke-opacity="0.501961" fill="none" d="M 185.535430 127.049954 Q 168.409792 113.811399, 158.347390 132.309594" stroke-width="0.500000" />
<path stroke="#382d19" stroke-opacity="0.501961" fill="none" d="M 150.453018 58.947611 Q 144.641871 56.108915, 151.581589 46.312293" stroke-width="0.500000" />
<path stroke="#d4d7de" stroke-opacity="0.501961" fill="none" d="M 264.953814 167.360205 Q -5.451009 181.139640, 0.640703 99.869265" stroke-width="0.500000" />
<path stroke="#484236" stroke-opacity="0.501961" fill="none" d="M 136.677424 61.995507 Q 133.386201 58.141025, 127.117982 50.669895" stroke-width="0.500000" />
<path stroke="#d4d7dd" stroke-opacity="0.501961" fill="none" d="M 7.495508 71.119364 Q 27.255901 185.000000, 271.000000 152.723141" stroke-width="0.500000" />
<path stroke="#d3d6dc" stroke-opacity="0.501961" fill="none" d="M 259.861404 185.000000 Q 221.322713 68.926212, -16.000000 127.485370" stroke-width="0.500000" />
<path stroke="#d2d5dc" stroke-opacity="0.501961" fill="none" d="M 255.910891 29.876714 Q -8.438122 -16.000000, 28.585833 178.286367" stroke-width="0.500000" />
<path stroke="#d3d6dc" stroke-opacity="0.501961" fill="none" d="M 263.280863 98.341845 Q 10.755564 33.249159, -0.955251 149.098638" stroke-width="0.500000" />
<path stroke="#bca084" stroke-opacity="0.501961" fill="none" d="M 80.694574 47.365007 Q 98.333366 47.100717, 157.501280 47.749901" stroke-width="0.500000" />
<path stroke="#d3d6dc" stroke-opacity="0.501961" fill="none" d="M 271.000000 167.823949 Q 95.545948 -16.000000, 12.151503 154.713340" stroke-width="0.500000" />
<path stroke="#090800" stroke-opacity="0.501961" fill="none" d="M 91.451228 60.409278 Q 91.079254 57.344095, 92.470160 48.365706" stroke-width="0.500000" />
<path stroke="#d3d5dc" stroke-opacity="0.501961" fill="none" d="M 11.260928 3.334914 Q 271.000000 -12.865732, 250.661133 135.262643" stroke-width="0.500000" />
<path stroke="#403726" stroke-opacity="0.501961" fill="none" d="M 95.757653 100.086460 Q 91.821594 94.414263, 91.415901 85.100969" stroke-width="0.500000" />
<path stroke="#745c44" stroke-opacity="0.501961" fill="none" d="M 97.988753 126.791283 Q 115.086282 116.308951, 134.181822 129.996100" stroke-width="0.500000" />
<path stroke="#d1cdcb" stroke-opacity="0.501961" fill="none" d="M 140.952630 185.000000 Q 126.626155 5.925184, 143.797912 -2.633955" stroke-width="0.500000" />
<path stroke="#bd9f82" stroke-opacity="0.501961" fill="none" d="M 159.167398 85.254923 Q 136.730239 90.615134, 92.239297 82.694215" stroke-width="0.500000" />
<path stroke="#d3d6dc" stroke-opacity="0.501961" fill="none" d="M 225.506109 151.727348 Q -16.000000 185.000000, 27.874568 2.279344" stroke-width="0.500000" />
<path stroke="#d2d5db" stroke-opacity="0.501961" fill="none" d="M 247.711347 168.965632 Q 271.000000 11.055401, 1.750099 29.298073" stroke-width="0.500000" />
<path stroke="#40301b" stroke-opacity="0.501961" fill="none" d="M 159.407278 135.759154 Q 156.725969 131.153446, 161.898262 123.307979" stroke-width="0.500000" />
<path stroke="#2d2311" stroke-opacity="0.501961" fill="none" d="M 165.691243 136.037474 Q 156.117585 134.269550, 159.089645 128.485677" stroke-width="0.500000" />
<path stroke="#d2d5db" stroke-opacity="0.501961" fill="none" d="M 21.383875 4.588546 Q 11.140871 146.927851, 227.448676 100.784575" stroke-width="0.500000" />
</g>
</svg>