<svg height="680" width="1024" xmlns="http://www.w3.org/2000/svg"><path d="m0 0h1024v680h-1024z" fill="#c9c6c7"/><g fill="none" stroke-opacity=".501961" stroke-width=".5" transform="matrix(4 0 0 4 2 2)"><path d="m75.219802 128.099217q55.805414-8.872693 111.994207 6.122381" stroke="#6a5235"/><path d="m70.72175 123.434921q35.556939-2.551106 113.072347 4.693338" stroke="#73593b"/><path d="m85.596316 50.714013q5.669884-2.864938 74.30533 8.576856" stroke="#5f4322"/><path d="m158.496362 88.875885q-70.488638 13.662915-74.526827-1.540411" stroke="#573f21"/><path d="m83.88786 98.708042q10.937817-17.00393 74.448722 1.795398" stroke="#5f4628"/><path d="m77.860364 128.265833q8.53679-8.012977 93.55558 8.075988" stroke="#61492d"/><path d="m73.499416 121.150283q32.709292 7.606772 74.699439 1.631659" stroke="#58442b"/><path d="m159.038648 57.586111q-34.746492 2.18155-73.847382-8.838269" stroke="#5f4322"/><path d="m191.004032 131.940957q-78.18049 4.809282-126.968977-8.578777" stroke="#806a50"/><path d="m159.769548 98.879998q-13.239937-16.069043-76.687633-7.309104" stroke="#6c5132"/><path d="m186.643261 127.617986q-103.498913 7.553659-104.213511-5.761299" stroke="#7e674c"/><path d="m158.94031 99.507433q-62.123323-4.849107-74.640471-8.567009" stroke="#60472a"/><path d="m156.695687 43.959218q-18.496334 19.707992-69.963105 4.204685" stroke="#6a5031"/><path d="m125.005572 60.854493q3.567617-16.492493 27.930102-11.512668" stroke="#452e11"/><path d="m79.954089 91.840348q29.102452-13.400772 89.290117 7.250712" stroke="#78634a"/><path d="m13.736664 54.664938q-16.478894-19.168574-29.736664-23.58055" stroke="#0f0000"/><path d="m173.179541 129.58593q-46.40447-13.197502-101.545767-6.780617" stroke="#846544"/><path d="m84.746326 94.718858q4.20346-4.252522 71.763307-.319913" stroke="#5b472c"/><path d="m156.697526 56.457925q-26.92449 7.616868-66.798763-5.410644" stroke="#715535"/><path d="m94.458084 103.396861q-4.980001-26.126191-2.067853-56.239231" stroke="#514532"/><path d="m157.607177 60.929118q-4.155869-21.766384-61.984115-1.379676" stroke="#6d4f2e"/><path d="m155.620832 89.810256q-26.87934-.408067-73.210233-.562543" stroke="#675137"/><path d="m79.93274 122.449785q31.972309 14.720588 110.915199.324151" stroke="#7c674e"/><path d="m82.582114 132.33795q79.68413-12.690241 88.584851 8.308187" stroke="#816547"/><path d="m80.129897 95.809842q54.868532 1.384068 80.172679 4.490394" stroke="#7c6245"/><path d="m5.589001 12.085956q-21.589001 27.927614 10.421563 41.943841" stroke="#4e2a03"/><path d="m77.828441 123.004256q18.541935 13.446224 109.660427 8.238395" stroke="#7e684f"/><path d="m159.982524 63.869307q-7.570437-15.573634-82.90226-14.54017" stroke="#7c6142"/><path d="m160.634141 53.20441q-70.677586-7.674312-73.191372-2.376278" stroke="#7a6142"/><path d="m169.873989 135.515241q-39.072523 2.515835-79.194977-12.096496" stroke="#80674c"/><path d="m70.968257 118.016161q95.989295 30.566702 76.317016-70.420241" stroke="#87725c"/><path d="m148.389481 62.0486q.977687-1.090311-.812259-15.506135" stroke="#050000"/><path d="m185.237847 129.939099q-27.771345-12.859164-110.94885-.482943" stroke="#796248"/><path d="m152.753989 98.695019q-17.674566-10.23633-68.576639-6.392796" stroke="#745e43"/><path d="m-3.102308 59.105565q31.436922-34.029501-12.897692-73.585761" stroke="#826343"/><path d="m77.266099 128.837044q29.020975-17.015953 107.927003 4.891411" stroke="#846c53"/><path d="m111.538141 47.051657q-6.91608 15.94787-2.385297 18.127743" stroke="#201000"/><path d="m83.910411 99.235351q28.501469-26.673423 75.678879 2.60899" stroke="#7c6347"/><path d="m73.449548 126.86412q45.956858.67902 109.677656-1.491958" stroke="#867058"/><path d="m154.430948 42.246797q-1.253137 27.628229-45.581871 12.070164" stroke="#705334"/><path d="m156.900919 48.037595q-11.050439 1.48602-66.454865 9.458358" stroke="#775e42"/><path d="m.694773-11.157561q3.869961 27.639902 13.180925 69.70495" stroke="#775d43"/><path d="m155.950369 92.165432q-19.460601 8.770742-71.864021-2.50028" stroke="#786248"/><path d="m8.488671 21.882938q3.520794-9.558246-13.724742-18.679054" stroke="#512900"/><path d="m160.31255 53.884685q-21.50231 20.961885-36.180347-7.905884" stroke="#745532"/><path d="m85.831436 93.756861q27.399961 12.325286 30.261149-5.305119" stroke="#50402a"/><path d="m161.598438 140.779546q-6.211629-11.103982 1.791531-17.304596" stroke="#3b2203"/><path d="m159.484944 47.663331q-21.77456 20.090755-71.795955 5.710207" stroke="#8f7150"/><path d="m83.712433 88.208537q60.820718.088268 77.738353 1.082417" stroke="#786045"/><path d="m6.096221 4.640367q-7.667598 42.263433 6.522201 59.690991" stroke="#82674c"/><path d="m179.934238 132.748527q-64.545234 6.236823-102.51815-8.349489" stroke="#8e775e"/><path d="m82.450939 84.801983q8.393565.397399 9.587287 53.652969" stroke="#735f46"/><path d="m82.185312 130.542177q78.814354 1.258623 87.552121 1.343552" stroke="#8d745a"/><path d="m149.298714 89.128318q.669114 9.356273-1.984309 9.006887" stroke="#000"/><path d="m110.050241 48.338003q6.696576 18.754955 20.020184 3.465567" stroke="#281e0b"/><path d="m85.345095 115.111686q55.109154 37.161347 96.626099 12.38912" stroke="#917a61"/><path d="m165.862975 125.576538q2.115872 9.466156-5.837555 10.923998" stroke="#0b0000"/><path d="m167.778492 138.022535q-3.360077-32.774949-73.082217-10.940665" stroke="#8e6c4b"/><path d="m-13.606127-1.854026q46.506765 28.689826 13.718601 63.03222" stroke="#876746"/><path d="m84.465031 95.536877q8.751106-21.512542 73.870073 6.946928" stroke="#7c664d"/><path d="m4.680558 7.666933q-20.680558 28.86023 13.230824 47.540514" stroke="#644524"/><path d="m252.001435 2.102258q10.661572-5.249082 18.998565-2.62871" stroke="#49351d"/><path d="m125.167083 83.603673q5.397889 5.767242 1.063253 16.000748" stroke="#342816"/><path d="m95.356978 48.61808q-7.951271 2.556333.327605 18.025005" stroke="#392a13"/><path d="m97.02724 96.946301q-12.36824-2.924848-11.927287-11.596634" stroke="#241b07"/><path d="m129.247164 49.989551q1.014481 17.06139 27.035415 7.133561" stroke="#5d4223"/><path d="m98.982469 127.835213q20.679774-20.542174 30.439887 6.250949" stroke="#6c5135"/><path d="m77.867409 130.609852q17.24997-18.732229 114.646668-4.918224" stroke="#9c7f62"/><path d="m83.749905 94.079198q17.595323-22.01722 63.906759 12.109612" stroke="#7f6c56"/><path d="m132.94772 139.437666q1.471352-9.29762-.219799-59.265485" stroke="#6d5d49"/><path d="m102.922468 118.5203q2.773885 14.841062 2.206439 15.137625" stroke="#291e0b"/><path d="m156.611831 47.115466q-34.865733 32.945177-47.03482-2.698744" stroke="#80674a"/><path d="m112.626068 47.802609q-1.964605 2.014055 3.101719 11.508102" stroke="#000"/><path d="m11.822682 41.460251q.878974 12.08512-.445147 17.275431" stroke="#3c2407"/><path d="m271 43.427589q-20.467439-40.89879-17.787631-43.534903" stroke="#341800"/><path d="m78.930682 122.448691q-3.449918 15.832928 18.140719 12.621078" stroke="#66533a"/><path d="m156.72023 100.450116q-54.013808-13.996423-78.236741-.740459" stroke="#887158"/><path d="m95.98261 120.461341q11.58295 18.590613 27.321806 2.335282" stroke="#574530"/><path d="m126.369056 54.370903q18.750411-18.865471 28.417663 6.324897" stroke="#654d30"/><path d="m8.557339 43.905015q-4.775445 1.945082-2.109846 14.427022" stroke="#482d0e"/><path d="m92.050746 85.592271q.015196 7.724879-3.35054 11.633839" stroke="#020000"/><path d="m99.470306 133.656157q-.597899-1.550522-2.343897-15.796824" stroke="#271b08"/><path d="m163.48223 125.634867q-9.687863 3.756606-2.066689 10.684613" stroke="#070000"/><path d="m13.109948 42.644799q-2.870409 3.360823-.329679 10.027172" stroke="#1a0900"/><path d="m85.408119 98.407954q-.676614-8.539855-.311392-9.063152" stroke="#010000"/><path d="m156.167665 45.541278q-12.104011 2.844782-7.774162 13.292635" stroke="#472f0f"/><path d="m124.702725 131.852207q3.545531-.755434-1.908055-14.281346" stroke="#2e1c06"/><path d="m91.891203 51.804478q-.20266 18.163561 68.288026 10.671289" stroke="#a5815d"/><path d="m9.552745-7.328891q1.788899 21.244603-9.227163 25.546573" stroke="#7b4e20"/><path d="m-9.704628 4.473803q13.512809-.320899 17.485609 15.780769" stroke="#573712"/><path d="m96.962673 121.483078q.667823 4.730049 1.220549 9.746969" stroke="#000"/><path d="m143.880698 133.620857q-4.506591-28.507455-1.279568-50.393683" stroke="#62513c"/><path d="m112.880594 46.681778q-6.777263 21.841045-24.377096 7.867447" stroke="#634e34"/><path d="m84.957351 85.55235q.188405 13.84452 17.137131 13.927147" stroke="#514029"/><path d="m159.715476 96.262124q-23.531512 9.865629-33.638171-8.649102" stroke="#685138"/><path d="m14.23813 54.920548q-16.195999-21.474596-30.23813 1.587781" stroke="#281903"/><path d="m78.850757 132.488897q-1.466952-11.079048.736651-12.12028" stroke="#020000"/><path d="m126.866557 49.916192q.608601 13.196835-2.473096 14.186659" stroke="#1b1609"/><path d="m156.078708 96.640038q-24.648124-12.181255-29.033459 2.989528" stroke="#6c553c"/><path d="m187.807534 136.506893q-13.755564-24.201644-45.362369-10.8675" stroke="#89745c"/><path d="m160.032577 52.120906q-35.798179-19.675547-55.213397 9.76957" stroke="#967554"/><path d="m2.567946 41.761507q4.664596 1.336515 3.346604 15.606348" stroke="#4e3418"/><path d="m86.015871 87.05065q.650481 16.708624 27.302459 7.009896" stroke="#524634"/><path d="m243.018008-16q27.981992 46.472741 27.981992 58.195916" stroke="#241100"/><path d="m120.738798 121.67574q-6.44545 11.176989 12.286388 15.259859" stroke="#634c34"/><path d="m92.205883 51.17584q-.82552 4.967663.230289 8.612524" stroke="#000"/><path d="m150.619379 44.816285q-7.750167 11.86807 5.971881 18.788954" stroke="#4e3211"/><path d="m165.703647 138.420284q-.271801-4.333224-.096747-13.088551" stroke="#2b1700"/><path d="m128.914436 52.19192q4.466009 10.667273 8.828755 9.344733" stroke="#2b2618"/><path d="m15.166672 43.718295q-19.793256 6.527062-15.706513 15.846965" stroke="#785431"/><path d="m144.988192 52.861741q12.171145-2.904728 13.401443 8.475816" stroke="#69451c"/><path d="m3.880593-16q7.695893 20.207046-1.399001 34.344323" stroke="#72502a"/><path d="m179.898176 133.656689q-4.715998-8.945079 3.372364-9.575712" stroke="#3f3c31"/><path d="m120.449736 133.058146q-4.253743-6.474582 4.145981-12.224962" stroke="#231200"/><path d="m164.635068 126.494874q5.417233 10.578921 3.901087 11.347407" stroke="#331e03"/><path d="m158.071446 54.395012q-18.981432-21.132321-32.151875 5.250841" stroke="#795e40"/><path d="m113.384282 47.281072q-4.373026 4.189454-7.096448 13.884945" stroke="#241a09"/><path d="m160.555955 95.560968q-16.74983-16.615843-32.930709 1.001057" stroke="#7b5f42"/><path d="m144.513104 121.265052q-3.372068 10.219682-1.621899 11.662123" stroke="#080800"/><path d="m92.35864 57.825128q-1.194107-11.657812-4.0433-12.989155" stroke="#342812"/><path d="m114.607067 58.219876q-1.035374-.410658-3.983207-15.080052" stroke="#312817"/><path d="m158.64394 127.733007q1.359626 10.152536 5.883313 9.239631" stroke="#2c1a01"/><path d="m76.289758 130.166607q30.252359 6.882767 93.406009 10.111246" stroke="#b8997a"/><path d="m124.99814 131.722781q3.707004-6.078519-2.23182-8.219931" stroke="#000"/><path d="m87.968276 96.846245q46.922602-25.125487 66.059089-2.987565" stroke="#92795e"/><path d="m150.64361 88.703961q-3.512864 1.955433-.174811 11.368993" stroke="#110400"/><path d="m152.69044 87.640969q-7.006754 6.19296-1.319901 15.743639" stroke="#422d12"/><path d="m142.106575 85.73399q-2.261213 10.396923 1.611132 18.263493" stroke="#714318"/><path d="m95.209578 136.38003q-5.372305-2.112826-3.287531-15.642853" stroke="#693c0c"/><path d="m92.245439 86.866703q-2.617441 5.454759-2.557895 11.083276" stroke="#0b0600"/><path d="m71.48532 131.556687q1.866797-2.047503 105.747948 7.557868" stroke="#b1967b"/><path d="m133.187692 119.085332q1.713312 17.806024-2.874109 18.953094" stroke="#624525"/><path d="m109.9118 97.102644q-4.077405-7.14815-.826941-11.801176" stroke="#231e11"/><path d="m111.946747 97.160123q6.337123-9.429855-4.146388-14.666479" stroke="#5b5141"/><path d="m107.602013 132.352905q-4.584913-2.421134-7.20434-51.034799" stroke="#896d50"/><path d="m10.259264 12.536749q-17.148398-13.299597-28.49282 12.567159" stroke="#5c350e"/><path d="m125.531759 51.39093q19.086289 21.346778 29.221608-2.336777" stroke="#675035"/><path d="m77.133166 129.25152q9.742124-.635268 4.400817-9.170911" stroke="#3f392a"/><path d="m103.665125 121.461958q-2.285563 13.906528 17.392708 10.132394" stroke="#524535"/><path d="m128.395283 121.972671q-11.553215.276317-10.13242 8.852881" stroke="#59422b"/><path d="m224.738889-16q2.477484 12.269286 31.079287 29.178984" stroke="#b27e4d"/><path d="m142.197223 134.167812q.898524-3.004204 2.27116-10.997498" stroke="#2b291e"/><path d="m98.53288 102.810699q-6.716261-8.696511-5.553231-15.758681" stroke="#463925"/><path d="m91.29862 59.157088q15.707102 9.675901 18.373581-9.446504" stroke="#6b553b"/><path d="m159.123531 103.393094q-33.30926-8.694948-78.758229-2.346906" stroke="#b79675"/><path d="m80.814041 57.0926q74.745405 16.992163 78.696483-11.635237" stroke="#b2916e"/><path d="m98.050996 132.513874q1.140721-1.442524-.948701-11.854886" stroke="#130e00"/><path d="m-5.624549-16q25.438743 30.029817 10.266955 38.53427" stroke="#a97544"/><path d="m104.309548 117.003717q.988222 7.47828-.559934 17.504905" stroke="#554733"/><path d="m-6.896607 17.726076q13.295366 2.983735 11.038451-9.26728" stroke="#38240c"/><path d="m12.446386 22.137396q-20.430452-4.505166-7.594192-20.308546" stroke="#a37347"/><path d="m160.340204 45.280788q-20.404797-5.723253-18.836064 17.547578" stroke="#ac7746"/><path d="m1.421136 47.217917q5.916799-2.403151 15.625478 6.547538" stroke="#654b2e"/><path d="m157.433981 60.168391q-6.711654.804998-9.905004-13.620397" stroke="#533b1d"/><path d="m123.231065 84.552734q7.76136 3.236591 3.4363 14.461987" stroke="#493f31"/><path d="m135.022777 98.479614q-6.754314-6.674287-8.35939-8.070123" stroke="#282215"/><path d="m271 36.794559q-29.204868-30.49978-11.550496-52.794559" stroke="#7d5e3f"/><path d="m1.624116 22.380302q12.040792-1.427375 7.585215-29.129801" stroke="#ac794a"/><path d="m125.17877 57.273298q8.683407-7.906904 6.361489-9.155947" stroke="#18170e"/><path d="m127.098862 59.904831q-.189404-6.44788-.715986-12.435493" stroke="#131006"/><path d="m85.871713 136.393704q-1.261734-12.400128-3.398229-13.225673" stroke="#4a4434"/><path d="m-6.017665 11.683271q18.936861 163.765679 277.017665 63.622603" stroke="#d5d5d8"/><path d="m98.898133 101.486221q6.918338-18.402884-4.032651-19.753906" stroke="#a47340"/><path d="m3.534623 60.058995q4.989092-5.182034 1.913073-10.498689" stroke="#5d4224"/><path d="m177.832809 124.279726q7.634793 1.947089 4.841589 10.041125" stroke="#4a463a"/><path d="m250.553324 2.534793q6.146951 1.384409 8.222045-18.534793" stroke="#080100"/><path d="m127.448196 98.685693q1.298741-7.340002.47273-11.512817" stroke="#1b180c"/><path d="m88.847311 95.930282q.960431-1.374462 4.840057-8.983266" stroke="#010000"/><path d="m72.56832 117.794414q23.964561.532603 95.15309 5.82096" stroke="#bf9d7d"/><path d="m4.87891 62.551036q-16.842518 122.448964 263.272411 100.116433" stroke="#d5d8df"/><path d="m92.532132 132.98154q-.997731-8.91955-1.144291-15.934623" stroke="#562d00"/><path d="m-4.571407 55.181325q16.070733.009049 18.051982-8.247414" stroke="#694d2f"/><path d="m93.578425 95.227674q-9.19705-.115559-9.514735-8.950846" stroke="#3f3827"/><path d="m-10.219555 38.805537q281.219555-54.805537 262.247136 146.194463" stroke="#d4d7de"/><path d="m236.53739 24.58792q34.46261 156.114969-237.493716 143.67207" stroke="#d5d8df"/><path d="m187.86962 136.051104q-12.640585-20.25641-28.175842-7.194323" stroke="#726350"/><path d="m130.040817 90.184824q20.217104-16.028713 28.75077 14.795186" stroke="#9f7e5e"/><path d="m111.91821 121.692953q2.120453 5.278604.359592 10.505443" stroke="#5c4021"/><path d="m117.283149 61.046699q-9.705474-27.871413-30.794934-7.192875" stroke="#7c6549"/><path d="m12.611163 55.052579q-7.946179-16.197996-22.105732-5.580447" stroke="#372816"/><path d="m134.823883 91.153837q-20.490883-13.601233-27.849971-.959151" stroke="#766755"/><path d="m158.605884 55.74314q-3.043295-4.551056-18.306545-1.126322" stroke="#6b4c29"/><path d="m83.554234 48.149898q24.413358-3.260389 77.374755-4.908417" stroke="#c5a482"/><path d="m99.540498 81.739314q1.344372 7.731028.908269 22.857645" stroke="#966532"/><path d="m163.152309 60.056761q-34.377891 10.193008-83.030767.591769" stroke="#c1a283"/><path d="m11.590267 20.900016q-1.667122-2.91954-9.639041-13.610137" stroke="#684825"/><path d="m157.881376 122.97721q11.906806 4.452133 5.594415 13.37265" stroke="#4c361e"/><path d="m252.494742 64.736393q10.678647 119.158912-268.494742 95.442573" stroke="#d5d8df"/><path d="m98.202319 67.278345q5.80802-.112948 3.702065-24.412393" stroke="#9f8365"/><path d="m3.134124 34.260461q267.865876-50.260461 250.682913 149.9166" stroke="#d4d7de"/><path d="m253.582365 7.769561q3.257651-6.28558 15.461066-23.683685" stroke="#47290b"/><path d="m86.763215 46.191451q9.856034 8.6418 2.174029 15.383566" stroke="#473b29"/><path d="m131.2388 119.694656q-20.090997 2.689363-8.345961 19.02065" stroke="#7c5f45"/><path d="m83.724589 126.842348q-6.621666.481277-5.637094 4.449451" stroke="#000"/><path d="m261.365714 158.14887q-263.528112 26.85113-249.45104-97.42836" stroke="#d5d8df"/><path d="m109.019626 132.694784q-6.85756-1.805689-4.274868-11.977047" stroke="#262012"/><path d="m113.065313 86.036193q5.419575 6.474721-2.274468 10.185451" stroke="#090800"/><path d="m246.560602 176.668892q13.464057-192.668892-262.560602-134.836542" stroke="#d4d7de"/><path d="m157.356471 91.871913q-1.587373-3.914001-9.045641-1.75002" stroke="#412c15"/><path d="m149.87107 91.408554q-1.404442 2.316672-1.535285 9.723348" stroke="#201502"/><path d="m190.195299.461336q-197.312684-16.461336-175.719422 178.970008" stroke="#d3d6dc"/><path d="m148.51859 47.908515q.091353 13.478151-2.576552 15.890572" stroke="#443219"/><path d="m108.106495 58.252282q2.040345-10.61294 5.43748-9.61956" stroke="#110c00"/><path d="m81.1428 55.983373q19.60822-15.13663 37.802757 5.645765" stroke="#7c6951"/><path d="m254.937879 176.222378q16.062121-192.222378-255.765875-147.035798" stroke="#d3d6dd"/><path d="m132.60683 88.267417q-6.427135.40731-5.122175 6.551013" stroke="#000"/><path d="m152.054268 58.42159q-4.820426-1.419484-3.429882-5.770646" stroke="#000"/><path d="m161.196516 47.993507q-10.142957 1.882203-18.714399-2.55165" stroke="#7f5e3d"/><path d="m81.83369 100.803385q4.007595-4.94407 4.704222-14.162498" stroke="#4c4434"/><path d="m261.054813 107.281845q-242.336131-80.323044-262.192398 51.782689" stroke="#d4d7de"/><path d="m12.38447 46.441535q-1.358569 5.20379.970359 7.734436" stroke="#100a00"/><path d="m222.382569-3.230816q47.086966 188.230816-188.475865 162.120867" stroke="#d5d7de"/><path d="m155.402849 104.811972q-17.153665-8.392756-81.415176-1.169356" stroke="#c4a689"/><path d="m137.16446 119.237884q-54.736124-3.191926-60.142425 7.110145" stroke="#a78769"/><path d="m82.212655 133.65861q40.381305 4.964447 50.879174-6.661697" stroke="#a3886e"/><path d="m-16 118.589479q0-46.490996 32.434567-79.81703" stroke="#926d4a"/><path d="m5.216404 11.188134q2.03568 7.505845-11.208929 8.650139" stroke="#423019"/><path d="m17.297319 56.793679q-2.305978-8.977857-13.489558-6.922346" stroke="#6e5336"/><path d="m112.29227 132.844903q.336755-4.295145.161206-14.772619" stroke="#674d2f"/><path d="m271 165.287q-284.06789 19.713-270.237445-92.245069" stroke="#d5d8df"/><path d="m247.414646 157.900054q23.585354-170.90173-235.580582-153.550685" stroke="#d3d6dd"/><path d="m14.683218 8.763901q226.785081-24.763901 229.610511 161.013604" stroke="#d3d6dd"/><path d="m125.816632 97.76844q9.748467-1.097602 7.300246-11.171119" stroke="#574c3d"/><path d="m184.780201 129.984873q-6.405245 10.525228-35.630545 8.201744" stroke="#9e876f"/><path d="m7.607791 58.601198q-1.452139-9.196982-3.573011-15.04652" stroke="#473622"/><path d="m7.102888 138.397293q123.383401-154.397293 247.00063 43.961413" stroke="#d4d6dd"/><path d="m130.860564 50.625029q1.553773 1.847056-5.316982 5.26526" stroke="#111109"/><path d="m155.315896 48.285583q-6.021474.087175-7.99996.687491" stroke="#010000"/><path d="m159.681045 133.748426q3.29859 3.701922 7.011783-2.431568" stroke="#060000"/><path d="m13.664437 54.30156q-4.589646-4.470614-8.223084-9.016319" stroke="#0b0900"/><path d="m1.925452 70.816551q5.450801 48.42572 251.632761 45.136992" stroke="#d4d7de"/><path d="m237.301792 173.125042q-2.316352-189.125042-236.799779-141.033817" stroke="#d3d6dd"/><path d="m143.139671 131.72347q2.5836-8.374459-4.241587-10.093048" stroke="#2e2f27"/><path d="m119.270057 125.317002q6.537183-3.871835 7.106749 3.829249" stroke="#080200"/><path d="m133.61326 98.263421q-1.333747-5.490016-8.086558-6.852973" stroke="#2b251a"/><path d="m45.689561 167.731793q225.310439 17.268207 166.098327-168.424538" stroke="#d4d7de"/><path d="m-4.820735 165.36469q247.532888 19.63531 219.230588-136.093771" stroke="#d4d6db"/><path d="m255.475603 174.380085q-14.260056-97.798023-266.635557-47.113129" stroke="#d4d7de"/><path d="m5.973563 164.412148q-7.164673-180.412148 255.041408-136.978461" stroke="#d3d6dc"/><path d="m73.958539 95.090006q40.764058 11.44292 87.711542 6.960313" stroke="#c2a58a"/><path d="m10.648999 23.346678q5.20154-18.379961-14.195057-15.591362" stroke="#ac7747"/><path d="m247.101087 23.968576q-7.928854 143.355999-263.101087 61.271462" stroke="#d3d6dd"/><path d="m167.56316 140.79607q-59.295949-2.910564-83.273198-6.94864" stroke="#c0a58b"/><path d="m248.470794 62.958605q13.058118 112.942119-261.670562 91.813543" stroke="#d4d7de"/><path d="m141.409048 43.787541q1.168332 19.174082.047978 20.999774" stroke="#9c6e44"/><path d="m252.017854 23.056229q-268.017854-34.605512-249.726963 141.099975" stroke="#d3d5dc"/><path d="m135.512314 177.850033q6.184145-89.873879 1.879909-193.850033" stroke="#d5cfcc"/><path d="m254.801582 146.269695q-228.966255-.229258-269.231321-.576425" stroke="#d4d7de"/><path d="m.631322 27.775299q270.368678-43.775299 243.026392 131.177006" stroke="#d3d6dc"/><path d="m143.392123 83.787682q-3.217415 15.710135.675203 20.21171" stroke="#885e37"/><path d="m179.552936 124.527808q-.733303 2.425302 9.888158 10.02546" stroke="#5f5c51"/><path d="m162.497778 137.862804q-7.090499-7.398084-1.024628-10.965041" stroke="#322510"/><path d="m10.122388 184.102941q-26.122388-196.443944 254.198996-151.963178" stroke="#d3d6dc"/><path d="m84.971891 124.61694q-5.623784-3.467802-6.614807 2.882731" stroke="#2d2617"/><path d="m85.759717 51.450554q22.051591-6.31453 32.199755 11.008781" stroke="#73624d"/><path d="m88.825221 86.350287q8.464427 1.871181 2.035262 16.746106" stroke="#5a4e3c"/><path d="m112.31629 50.41544q.53465 2.473419 2.111472 6.834489" stroke="#000"/><path d="m93.524468 88.929242q-5.912543 5.552161-9.205103-1.844801" stroke="#262216"/><path d="m85.645766 88.056593q3.974494 9.585586 5.862357 10.882146" stroke="#2a271c"/><path d="m121.366949 134.389833q-4.425365-5.421608-.357936-10.514545" stroke="#1a170d"/><path d="m234.458798 22.204727q28.314632 162.795273-209.102443 124.783471" stroke="#d4d7dd"/><path d="m79.801137 66.235721q21.573258-3.893245 79.811859-4.365851" stroke="#c2a07f"/><path d="m129.493461 88.423912q-3.062942.270114-1.795695 8.099679" stroke="#000"/><path d="m153.974174 126.768267q12.958975-15.347268 33.98846 1.704373" stroke="#ab9075"/><path d="m265.207227 155.523584q-246.791163 29.476416-260.48261-86.928142" stroke="#d4d7de"/><path d="m141.791569 43.839227q23.936119 1.465531 14.397073 20.736765" stroke="#b98759"/><path d="m-16 96.533021q248.7755-80.761866 251.367357 73.271447" stroke="#d3d6dd"/><path d="m-14.131972 12.577767q154.31693 122.792732 253.686435 24.165225" stroke="#d3d5db"/><path d="m251.719412 1.840784q19.280588-10.365093 18.866185-17.840784" stroke="#000"/><path d="m226.189708 6.022882q-242.189708-22.022882-221.420079 178.977118" stroke="#d3d5dc"/><path d="m235.50399 13.314773q-251.50399-25.879196-210.912794 150.800793" stroke="#d3d5dc"/><path d="m149.702257 99.774914q-1.448758-5.377857 4.321659-5.771838" stroke="#433017"/><path d="m-2.429798 38.195634q250.64509-39.69926 242.347467 130.613033" stroke="#d3d5dc"/><path d="m232.389106-1.495393q36.767912 13.667682 38.610894 71.737447" stroke="#bd916a"/><path d="m-1.868346 41.049422q16.353626-57.049422 258.264984 2.682174" stroke="#d2d5dc"/><path d="m16.524145 57.842711q2.465121-14.859207-18.732084-17.853754" stroke="#ae845e"/><path d="m87.656419 84.245516q-4.889362 9.835744-.870427 13.139509" stroke="#403727"/><path d="m-3.03043 162.400748q259.770353 20.492418 254.272739-70.089011" stroke="#d4d7de"/><path d="m24.090824 9.827749q213.037956-20.221291 136.950904 166.484005" stroke="#d2d4da"/><path d="m185.53543 127.049954q-17.125638-13.238555-27.18804 5.25964" stroke="#806b54"/><path d="m150.453018 58.947611q-5.811147-2.838696 1.128571-12.635318" stroke="#382d19"/><path d="m264.953814 167.360205q-270.404823 13.779435-264.313111-67.49094" stroke="#d4d7de"/><path d="m136.677424 61.995507q-3.291223-3.854482-9.559442-11.325612" stroke="#484236"/><path d="m7.495508 71.119364q19.760393 113.880636 263.504492 81.603777" stroke="#d4d7dd"/><path d="m259.861404 185q-38.538691-116.073788-275.861404-57.51463" stroke="#d3d6dc"/><path d="m255.910891 29.876714q-264.349013-45.876714-227.325058 148.409653" stroke="#d2d5dc"/><path d="m263.280863 98.341845q-252.525299-65.092686-264.236114 50.756793" stroke="#d3d6dc"/><path d="m80.694574 47.365007q17.638792-.26429 76.806706.384894" stroke="#bca084"/><path d="m271 167.823949q-175.454052-183.823949-258.848497-13.110609" stroke="#d3d6dc"/><path d="m91.451228 60.409278q-.371974-3.065183 1.018932-12.043572" stroke="#090800"/><path d="m11.260928 3.334914q259.739072-16.200646 239.400205 131.927729" stroke="#d3d5dc"/><path d="m95.757653 100.08646q-3.936059-5.672197-4.341752-14.985491" stroke="#403726"/><path d="m97.988753 126.791283q17.097529-10.482332 36.193069 3.204817" stroke="#745c44"/><path d="m140.95263 185q-14.326475-179.074816 2.845282-187.633955" stroke="#d1cdcb"/><path d="m159.167398 85.254923q-22.437159 5.360211-66.928101-2.560708" stroke="#bd9f82"/><path d="m225.506109 151.727348q-241.506109 33.272652-197.631541-149.448004" stroke="#d3d6dc"/><path d="m247.711347 168.965632q23.288653-157.910231-245.961248-139.667559" stroke="#d2d5db"/><path d="m159.407278 135.759154q-2.681309-4.605708 2.490984-12.451175" stroke="#40301b"/><path d="m165.691243 136.037474q-9.573658-1.767924-6.601598-7.551797" stroke="#2d2311"/><path d="m21.383875 4.588546q-10.243004 142.339305 206.064801 96.196029" stroke="#d2d5db"/></g></svg>