<svg height="680" width="1024" xmlns="http://www.w3.org/2000/svg"><path d="m0 0h1024v680h-1024z" fill="#dde1e7"/><g fill="none" stroke-opacity=".501961" stroke-width=".5" transform="matrix(4 0 0 4 2 2)"><path d="m181.195379 167.60402q-95.437409-122.536167-7.928438-177.364017" stroke="#b00000"/><path d="m164.225404-16q-35.794063 48.435056 11.882404 157.182813" stroke="#600000"/><path d="m129.320761.276389q-8.697646 88.429847 49.767658 168.797407" stroke="#c80000"/><path d="m177.104811 164.007852q-107.899626-132.785707 70.57483-169.431157" stroke="#992315"/><path d="m155.029641-15.703319q-16.618954 102.339878 26.011199 158.906876" stroke="#5b0000"/><path d="m151.599332 143.459892q54.676715-48.544149 100.679702-96.073981" stroke="#1a0c06"/><path d="m148.80172 82.377604q57.208512-37.77049 118.226148-79.575226" stroke="#000"/><path d="m200.869746 149.400625q-87.607462-.614338-47.085124-150.367344" stroke="#790f06"/><path d="m132.56081 1.709751q-24.400074 63.920024 57.76906 183.290249" stroke="#d40000"/><path d="m197.761184 181.236049q-80.272491-65.44894-68.702044-190.804114" stroke="#e00000"/><path d="m150.794106-16q-.149935 64.574945-11.15356 144.341229" stroke="#620000"/><path d="m129.193817-16q-4.292029 164.905303 54.807838 158.263733" stroke="#970000"/><path d="m135.458681 35.704099q26.798805 92.918062 75.523532 149.295901" stroke="#8d0500"/><path d="m128.692236 5.521199q51.579269 102.290638 7.460645 124.74705" stroke="#770300"/><path d="m127.15023-1.635037q2.268099 132.486628 73.580518 186.635037" stroke="#bb0400"/><path d="m151.860984-2.210867q-12.383429 35.968232 21.710797 155.345777" stroke="#6b1616"/><path d="m127.347791 120.337497q52.602963 17.548582 76.407807 54.422709" stroke="#670000"/><path d="m161.22911 97.712884q-55.853066-11.181463-14.356374-84.529854" stroke="#5f0000"/><path d="m214.390743 156.799755q44.113159-62.059602 54.044581-73.797761" stroke="#0b0603"/><path d="m129.617175-16q-6.697933 70.291529 63.792054 180.725501" stroke="#98190d"/><path d="m128.879963 40.545811q90.340264-38.045785 115.351789-56.545811" stroke="#201e17"/><path d="m157.698856 146.08535q-7.808006-63.372801-7.624615-162.08535" stroke="#641614"/><path d="m137.382053-10.333545q21.355231 137.16177 51.270052 165.631693" stroke="#880400"/><path d="m144.068339 130.026708q1.517216-81.854307-13.073274-117.806934" stroke="#7e160b"/><path d="m213.351544 112.330982q-41.055016 47.403318-60.202837 25.89489" stroke="#2b0c02"/><path d="m161.86012 161.269301q78.996781-73.598205 101.805844-94.043021" stroke="#3c322e"/><path d="m165.145961 107.433771q-54.31838-46.431789-29.485198-96.459348" stroke="#8e0900"/><path d="m127.885148-14.945493q-10.644754 159.387555 56.706822 158.680455" stroke="#9e3629"/><path d="m206.067337 185q-72.413172-15.949559-63.404219-201" stroke="#8c453e"/><path d="m158.840958-8.082954q-67.281997 40.372956 21.36459 182.461022" stroke="#c51b0d"/><path d="m127.164232 5.798702q14.779356 30.507287 16.46296 126.554511" stroke="#8e2f25"/><path d="m144.878506 51.969797q82.862822-31.851183 118.736995-51.61489" stroke="#3c3b3a"/><path d="m203.651516 67.645804q-48.160162 38.428744-59.726966 28.951222" stroke="#2f231a"/><path d="m138.351031 116.978517q17.901941-21.006583 132.648969-90.336253" stroke="#584b46"/><path d="m255.538659 10.569333q-72.766153 48.772865-126.060125 85.580719" stroke="#261710"/><path d="m154.045447 142.628944q30.025265-28.596568 45.605731-44.392304" stroke="#271108"/><path d="m158.737217 102.155178q-15.60881-59.562063-6.59434-101.616348" stroke="#600000"/><path d="m185.940631 149.186546q-39.368045-24.58488-55.474893-29.847469" stroke="#400"/><path d="m200.840577 185q-70.246996-58.271774-66.519645-177.652227" stroke="#9c4037"/><path d="m160.635069 99.546058q-57.428879-16.953136-11.913398-81.46144" stroke="#630c03"/><path d="m185.764552 149.463427q-38.820573-21.054744-53.748453-28.616398" stroke="#360000"/><path d="m196.373895 180.436996q27.11127-37.255492 59.91965-82.150185" stroke="#1a1513"/><path d="m148.707678 131.697299q-33.263508-127.528733 12.418182-135.179044" stroke="#90453c"/><path d="m127.495178 22.139299q17.243374-2.483087 49.422749 16.959219" stroke="#4f0300"/><path d="m184.47459 140.069278q-9.40392 13.644111-50.499923-16.569025" stroke="#3a0601"/><path d="m182.588326-16q-96.21619 18.625188-21.521718 160.296214" stroke="#d92712"/><path d="m226.362905 181.898787q-54.966702 1.567718-90.937456-183.580485" stroke="#ac2e26"/><path d="m133.663915 121.203769q22.993594 18.231504 48.65148 20.981929" stroke="#360000"/><path d="m185.919711 110.444152q60.52593-53.917904 71.216143-67.159025" stroke="#2f2e2c"/><path d="m130.464484 40.111522q22.034104 7.064205 23.13506 26.864933" stroke="#0d0000"/><path d="m147.999836 105.289585q.698032-1.188111 93.234449-59.341049" stroke="#5b5952"/><path d="m138.490722 43.535011q-30.297275 29.815713 19.408421 55.403991" stroke="#5d0900"/><path d="m133.900401 121.128919q43.243353 6.68304 73.256594 61.537803" stroke="#90110a"/><path d="m218.578656 185q30.21404-44.382286 42.02968-57.558109" stroke="#1a1814"/><path d="m264.375979.794616q-117.315773 55.634561-136.559131 48.448545" stroke="#4f4c4c"/><path d="m135.506996 18.691601q15.783534 63.956825 4.810261 114.306692" stroke="#90372e"/><path d="m136.398878 79.156817q19.613139-5.003103 13.043828-84.730458" stroke="#590909"/><path d="m135.391618 127.02436q32.693645-9.470779 41.04998 57.97564" stroke="#75110b"/><path d="m160.116456 99.401291q-33.956569-3.303157-19.435451-28.578622" stroke="#3c0000"/><path d="m125.702915 25.609316q29.551425 3.522736 27.189769-29.3512" stroke="#490000"/><path d="m166.396543 70.803541q20.456627-15.170232 64.350615-43.071204" stroke="#322d2a"/><path d="m181.903059 145.464352q-11.166936 6.724584-43.478262-31.050562" stroke="#690000"/><path d="m135.372019 80.175468q26.628808-28.096965-7.317804-38.646682" stroke="#550d06"/><path d="m150.758058 23.892133q-22.343317 8.619982-22.365385-15.010102" stroke="#590000"/><path d="m150.245757 91.501371q19.138497 18.943188 27.227281 55.102636" stroke="#720000"/><path d="m134.564495-7.603813q-20.736437 31.832745 18.339872 144.634029" stroke="#d61f12"/><path d="m200.938332 96.126834q19.128313-15.700796 48.042125-44.023114" stroke="#373636"/><path d="m132.932852 52.256252q30.8754-10.788693 6.427858-36.355746" stroke="#470805"/><path d="m149.702273 147.529522q47.050217-46.13411 92.307167-89.716446" stroke="#494444"/><path d="m207.733993 38.482231q7.923049 2.134146 26.261023 17.520105" stroke="#2d2b26"/><path d="m267.346038 64.139442q-29.765232 26.560285-69.504389 63.171723" stroke="#3e3e3b"/><path d="m184.834757-16q-20.336122 29.300824-54.349875 13.404716" stroke="#170b02"/><path d="m132.595835 124.182648q24.817143-8.574081 54.60596 60.817352" stroke="#980900"/><path d="m162.093704 95.121929q-23.679397-6.65602-27.753932-.103349" stroke="#1a0000"/><path d="m221.803938-1.789711q-78.683891 40.253619-95.021271 26.38158" stroke="#5e3937"/><path d="m252.789327 83.585771q-12.76349-7.132197-21.017646-13.854935" stroke="#0c0702"/><path d="m128.018022 23.985667q29.966366 2.892549 22.409904-37.940671" stroke="#400000"/><path d="m187.70877 80.133294q63.392551-41.910202 77.922201-50.889903" stroke="#484948"/><path d="m127.105627 42.411741q17.723171 14.244199 31.162981 5.185031" stroke="#260300"/><path d="m212.947011 2.684211q-59.466653 25.780697-90.238918 43.205334" stroke="#443e39"/><path d="m133.270796 124.84318q21.936652 9.71634 23.454722-6.636152" stroke="#340000"/><path d="m153.678389 168.31515q4.833153-5.965563 23.854653 1.51491" stroke="#6e0900"/><path d="m198.493434 168.427061q-23.59774-24.619038-40.463195-71.320559" stroke="#b10000"/><path d="m124.53545 45.844902q15.275279-9.423647 28.991597 4.891297" stroke="#2f0000"/><path d="m227.611124 170.139267q26.144865-32.421835 43.388876-58.852249" stroke="#393836"/><path d="m134.949319-8.270236q27.512835 6.959649 9.98778 59.599978" stroke="#3b0304"/><path d="m269.884308 83.79579q-29.922328 34.276556-71.615149 94.284426" stroke="#363332"/><path d="m147.837196 67.280048q-9.270118 16.708493-22.354467 4.198156" stroke="#740000"/><path d="m128.705058 48.934302q17.353284-12.492226 23.008267 8.504256" stroke="#0a0000"/><path d="m163.784735 111.026041q-8.614288-28.138897-31.461949-17.791248" stroke="#2e0000"/><path d="m180.776612 164.525616q-10.788939 10.65131-26.124237.396984" stroke="#8b0000"/><path d="m162.792551 101.38313q-55.651748-11.873412-18.24401-93.129844" stroke="#8d4138"/><path d="m181.460789 116.726981q71.79202-69.364381 85.499651-79.823867" stroke="#3e3d3b"/><path d="m183.700059 170.599987q-21.592391-13.240049-28.716665 1.133109" stroke="#950000"/><path d="m132.541384 92.842825q36.299994 10.649779 48.821099-14.052678" stroke="#4a2e24"/><path d="m185.81827 139.606414q-30.63622 4.167223-31.669073 1.446713" stroke="#260000"/><path d="m128.041825 19.001589q32.116538 6.753931 16.809402 31.064922" stroke="#5d0000"/><path d="m176.436316 172.567635q-68.994558-130.147614-42.738052-183.683787" stroke="#d44034"/><path d="m133.105217 124.018107q8.926792 5.428172 24.671295-11.040218" stroke="#5c0000"/><path d="m258.511138 95.090894q-46.214905 65.182882-56.507291 78.034056" stroke="#474341"/><path d="m182.613893 144.785386q-6.314241 6.759183-48.658273-28.974146" stroke="#5c140b"/><path d="m190.800903 160.336745q-10.485252-28.656641-37.47007-20.428661" stroke="#640000"/><path d="m224.196553 21.326977q-11.793349-7.260362-22.582286-14.361733" stroke="#2f322f"/><path d="m137.436132 126.05608q-9.419758-26.323155 19.277354-34.265803" stroke="#5c3028"/><path d="m125.825669 26.771503q33.257814 1.363368 23.489055-27.995562" stroke="#520000"/><path d="m124.857522 46.514868q27.962501-7.554698 25.42811 17.629153" stroke="#120000"/><path d="m202.734306-16q-36.865728 17.294821-64.001343 15.133736" stroke="#50413e"/><path d="m153.796407 170.771994q26.926948-11.645966 44.733765 10.039028" stroke="#970a00"/><path d="m218.249739 36.776984q50.939401-34.975602 52.750261-35.501002" stroke="#333838"/><path d="m211.511815 2.094862q-42.19316 22.007933-83.170577 39.711072" stroke="#494945"/><path d="m132.584596 115.286197q4.106257 21.498726 24.21354 8.017146" stroke="#400000"/><path d="m162.058905 106.332805q-3.454253-18.047185-27.641264-11.79716" stroke="#180000"/><path d="m153.010697 142.399243q25.612855.322158 31.270534-1.311696" stroke="#160000"/><path d="m123.71332 70.516438q12.057225 15.262815 23.118031 2.328516" stroke="#610000"/><path d="m131.309098 51.561192q4.861301-12.747657 19.249697-6.638518" stroke="#010000"/><path d="m124.229641 45.119453q15.884267 15.635023 60.961057-9.692666" stroke="#5b4139"/><path d="m129.783921 77.331251q34.542547-6.467765 14.758092-65.162328" stroke="#832627"/><path d="m227.918855 51.503602q-4.411553-6.685038-16.250344-11.071929" stroke="#010000"/><path d="m180.650365 82.560783q23.672386-11.557594 90.349635-58.489012" stroke="#5e5f5e"/><path d="m192.451225 185q-39.493175-57.450845-52.555494-70.67855" stroke="#d51c09"/><path d="m150.596166 129.172008q-17.563305 4.760289-16.202755-16.33288" stroke="#340100"/><path d="m187.329555 109.700784q14.558861 7.674085 16.37904 9.35282" stroke="#281f14"/><path d="m226.513472 25.852218q-12.116539-10.479826-22.039635-17.518987" stroke="#3f4647"/><path d="m271-1.529344q-10.126193 5.555718-71.743477 31.332972" stroke="#494f52"/><path d="m240.159498 153.639888q-3.932733 3.636771-17.894077-7.974467" stroke="#30281b"/><path d="m130.252038.717338q-5.4167 25.178262 16.863052 25.717235" stroke="#7c0000"/><path d="m130.927163 46.385049q10.030956 11.939363 40.183399-5.165108" stroke="#41352c"/><path d="m127.032046 39.765823q28.290399 9.244346 26.737933 37.035" stroke="#4a0a07"/><path d="m134.825298 94.732194q25.428813 6.30701 31.739817-1.588669" stroke="#2e0300"/><path d="m154.544659 139.050496q25.550669 12.114588 29.192771 1.528349" stroke="#350000"/><path d="m128.383722 23.987333q22.428666-4.720853 44.744423 13.539659" stroke="#641e1b"/><path d="m129.289522 27.31947q24.60528 4.539444 22.431083-34.642845" stroke="#530000"/><path d="m175.986448 64.283867q39.26966-25.623141 57.618297-39.518142" stroke="#3b3834"/><path d="m157.487648 117.637596q-12.185292 16.357135-22.24446 1.036196" stroke="#5b0000"/><path d="m122.849033 73.888854q9.939539-3.983103 22.878769-.362032" stroke="#700"/><path d="m228.560319 172.001556q16.224079-29.296077 37.494708-96.438971" stroke="#737778"/><path d="m150.775403 18.324811q-10.199709 17.611197-22.290177.937779" stroke="#5e0000"/><path d="m145.341928 74.629527q-19.553521 9.702302-20.002957-8.167691" stroke="#750000"/><path d="m175.431875-6.554434q-22.82561 18.840015-51.583895 1.374548" stroke="#3d2f26"/><path d="m248.296172 82.919006q-2.568782-3.284422-14.993851-10.846768" stroke="#11100e"/><path d="m172.651434 151.306136q70.194384-65.112706 98.348566-91.621744" stroke="#52514e"/><path d="m125.796757 63.358075q.029782 17.074208 20.915951 10.523536" stroke="#850000"/><path d="m147.799892 20.78602q-10.139884.420868-22.254448 2.750281" stroke="#6c0000"/><path d="m136.591906 95.065195q21.018612-9.064129 24.137297 4.204781" stroke="#390000"/><path d="m129.592626 50.771652q7.879149-2.078719 15.154072-9.720198" stroke="#120000"/><path d="m247.885403 80.605706q-78.687614 77.256208-87.646621 70.776518" stroke="#645f5d"/><path d="m271 116.321828q-19.932105 20.377776-52.439153 68.678172" stroke="#444240"/><path d="m132.847467 122.069137q20.095708 3.813333 25.26205-7.916158" stroke="#670700"/><path d="m152.859366 140.798452q24.540805-7.626781 41.281978 21.513323" stroke="#6c0d0a"/><path d="m162.69005 96.898003q-35.735771-.268666-25.123276-29.639171" stroke="#64140b"/><path d="m132.257981 51.451991q3.159074.106664 14.727875-8.562416" stroke="#070000"/><path d="m131.652185 185q48.144936-39.888835 62.241752 0" stroke="#9d291a"/><path d="m159.311944 98.539304q-6.83838 2.30069-25.805303-3.973393" stroke="#390b02"/><path d="m-16 87.852239q189.621895 28.881886 197.379231-55.13171" stroke="#fff"/><path d="m151.83784 80.024098q95.290681-63.605978 112.573033-73.788525" stroke="#484544"/><path d="m246.342288 55.365646q-56.766997 52.516539-88.009088 83.689268" stroke="#4e4845"/><path d="m160.056742 157.368022q3.37384 18.122515 52.108317 14.046808" stroke="#50342b"/><path d="m128.915725 24.893328q19.564791-.317957 18.852379-10.100877" stroke="#5c0000"/><path d="m211.630577 36.679974q.131256 2.352198 16.204779 14.780046" stroke="#191713"/><path d="m132.807988 123.370642q11.779528 10.114296 20.408374-7.837946" stroke="#630000"/><path d="m133.128509 117.241076q8.486775 18.9606 22.121825 5.177602" stroke="#490000"/><path d="m145.586404 66.004787q-27.071724 15.445111 23.964273 88.425963" stroke="#e43b28"/><path d="m151.656162 45.856379q-16.218046.040776-24.138372 1.203158" stroke="#230000"/><path d="m154.640075 32.146495q-9.717047-16.321251-28.70155-9.310778" stroke="#790904"/><path d="m127.401423 16.029749q5.870319 20.746261 20.867243 7.513244" stroke="#6e0000"/><path d="m232.931238 151.184415q-6.333717 2.281469-49.798491-49.933886" stroke="#8d8d84"/><path d="m150.515338 64.085961q2.656433-22.150713-24.25192-15.489112" stroke="#300000"/><path d="m190.093559 80.699073q-21.168005-5.130207-21.333331-17.631866" stroke="#665f56"/><path d="m16.814147 180.692088q-32.814147-93.368481 142.390604-156.854183" stroke="#fff"/><path d="m146.069343 77.29166q-.941317-5.785906-21.627282-2.724434" stroke="#690000"/><path d="m126.04119 60.833599q2.596121 19.950525 20.209255 11.712456" stroke="#a70900"/><path d="m156.483787 124.594389q-12.504448 10.963769-24.536908-3.538219" stroke="#510000"/><path d="m200.566755 171.911734q-26.14873-30.09552-40.396041-67.254479" stroke="#d11c06"/><path d="m153.205455 77.8378q-158.250737 52.705956-157.097252-74.935253" stroke="#fff"/><path d="m-11.736103 58.537279q153.10231 101.029702 186.741273 62.130222" stroke="#fff"/><path d="m187.2475 34.534346q41.978109-17.63877 67.960818-28.652191" stroke="#5a5d60"/><path d="m135.567377 96.849928q27.423731-8.34965 26.692462 12.180047" stroke="#430602"/><path d="m176.554781 48.928831q-.165377-36.334538-.184124-64.928831" stroke="#787870"/><path d="m199.409041 7.911032q-209.546709 87.799596-200.329825 142.867028" stroke="#f9ffff"/><path d="m2.131899 23.746857q17.236677 100.440581 148.966162 52.713856" stroke="#fff"/><path d="m202.190078 4.447783q6.098505 7.498208 17.337696 15.174078" stroke="#1f2121"/><path d="m180.036958 170.797964q-34.032822-55.734517-43.548808-79.974467" stroke="#ef2e21"/><path d="m155.607516 142.624441q23.172907-8.172405 26.298431 3.269313" stroke="#310000"/><path d="m124.242017-11.617003q2.415657 15.292556 27.741267 13.101024" stroke="#220e0b"/><path d="m154.138248 166.705916q24.804676-11.018345 37.90723 14.829059" stroke="#8c342b"/><path d="m148.490846 48.567827q-13.958032-12.368898-22.572994-2.275291" stroke="#480000"/><path d="m200.324588 134.977018q-1.664412-12.098979 39.653402-75.013449" stroke="#8d9290"/><path d="m66.824967 169.267576q-72.200311-137.976267 81.440469-137.804774" stroke="#fff"/><path d="m89.448289-.851687q100.413349 144.936254-81.583981 166.829898" stroke="#fff"/><path d="m271 2.045532q-49.491075 30.622492-103.798991 67.875241" stroke="#494848"/><path d="m123.972337 43.672816q118.613205-53.864235 124.827974-59.672816" stroke="#4d4a47"/><path d="m271 84.124876q-19.945429 16.50601-76.520051 100.875124" stroke="#4c4a4a"/><path d="m141.537516 93.351748q15.958655-.564345 19.394158 3.601547" stroke="#0c0000"/><path d="m164.577654 142.735063q7.36797 7.380612 24.40022-6.314202" stroke="#291c14"/><path d="m134.190327 118.844509q5.936842 3.299147 23.555724 6.987273" stroke="#980400"/><path d="m13.948525 185q-25.007232-94.644334 204.350287-187.932221" stroke="#feffff"/><path d="m2.610082 141.179886q67.14195-157.179886 144.103555-103.771371" stroke="#fff"/><path d="m243.544343 156.178325q-20.827565-6.490798-23.564309-12.321478" stroke="#524d43"/><path d="m145.950571 66.903327q-4.454521 8.342413-20.987696 4.66437" stroke="#8e0000"/><path d="m160.305984 116.357898q-1.863089.384075-23.758579-.747802" stroke="#c20700"/><path d="m149.970433 28.050475q-12.64837-11.938658-21.052154-6.511435" stroke="#800000"/><path d="m204.908946 138.900642q-176.267806-2.965082-92.822413-154.900642" stroke="#fff"/><path d="m176.388245 41.678117q-100.476341 143.321883-185.238284-16.273127" stroke="#fff"/><path d="m203.094902 174.110592q-27.39785-38.751472-40.540186-36.553739" stroke="#921009"/><path d="m126.202412 46.791042q4.195402-12.463818-.079914-62.791042" stroke="#d01302"/><path d="m245.341254 80.844518q-10.117747-12.197469-19.182999-8.453903" stroke="#35322f"/><path d="m2.994325 163.944386q157.453933-92.429292 214.855299-131.96042" stroke="#fff"/><path d="m161.53427 158.24787q-.506319 14.483471 13.853176 8.684042" stroke="#5a3932"/><path d="m186.866867 82.956492q-18.806879-19.602117-32.854137-2.339728" stroke="#6b5c55"/><path d="m144.936532 83.171863q-131.121953 76.670995-153.111182-99.171863" stroke="#fff"/><path d="m-16 156.440587q159.358291 17.725942 137.359721-157.071438" stroke="#fff"/><path d="m148.309922 27.453655q-81.755457 41.354411-157.204867 78.707203" stroke="#fff"/><path d="m144.276593 76.657217q-9.863756 8.079666-16.861447-4.98983" stroke="#6b0000"/><path d="m111.10591 2.111541q50.746875 157.834226-109.730636 157.999364" stroke="#fff"/><path d="m214.185012 39.467417q9.222957 11.374033 15.888347 11.193634" stroke="#1f1a16"/><path d="m4.583191 174.736421q31.314502-190.736421 144.410393-132.837001" stroke="#fdffff"/><path d="m129.264746 165.776448q21.858136-167.095663-129.365651-109.190829" stroke="#fff"/><path d="m184.067053 110.231132q5.044543.510719 21.343037 8.687852" stroke="#58544b"/><path d="m145.596957 28.215445q-12.903548-13.530406-18.143227 1.84692" stroke="#6d0000"/><path d="m216.110927 35.3298q-232.110927 60.944827-232.110927 82.998195" stroke="#fff"/><path d="m158.973184 93.444523q-14.785792 8.331039-16.28315-3.171061" stroke="#110400"/><path d="m134.229617 124.431778q9.407835-1.218513 22.058263.368689" stroke="#3a0000"/><path d="m148.398544 44.32807q-4.331879-4.686562-22.890495 2.149791" stroke="#520500"/><path d="m148.267244 56.718472q-129.38593-39.821367-132.597544 117.273458" stroke="#fff"/><path d="m150.500371 23.335592q-3.46985 46.483022 16.287094 96.54119" stroke="#8f0402"/><path d="m-.208765 140.427794q165.91741 23.196416 105.048472-141.741312" stroke="#fff"/><path d="m158.10325 143.151829q19.928288 2.862844 22.615932-3.406078" stroke="#2d0600"/><path d="m153.532862 4.9682q-19.119681-2.662718-19.411673-6.535387" stroke="#412f2e"/><path d="m145.633032 48.871394q-26.000598.737583-16.192548-53.438121" stroke="#a42414"/><path d="m147.771579 26.352214q-14.129949 6.60986-18.14326-2.699613" stroke="#750000"/><path d="m220.31144 80.049268q23.334773-23.218577 50.68856-49.846402" stroke="#3e3f3f"/><g stroke="#fff"><path d="m14.054996 160.813168q145.617493 14.348341 99.381896-173.136228"/><path d="m1.887917 134.864028q122.429435 40.226801 124.746621-146.510537"/><path d="m119.939589 2.027521q-97.320374 96.504226 35.062974 133.93206"/><path d="m-8.3185 21.837365q24.129611 81.302098 256.515065 85.494099"/><path d="m191.630098 104.064544q-79.608783 78.315411-149.50015-53.95794"/><path d="m198.248354 152.940451q-21.043564-124.447609-211.199538-40.176389"/></g><path d="m176.707783 169.056752q-10.41124-15.301985-20.353052-.048904" stroke="#8e291b"/><path d="m151.471939 128.944696q-14.793035-5.117354-13.334797-13.097929" stroke="#800000"/><path d="m-7.340836 109.861068q71.939136-123.86275 152.800122 4.521896" stroke="#fff"/><path d="m150.926223 30.843728q-166.926223-5.318597-140.586468 154.156272" stroke="#f9ffff"/><path d="m139.27776 92.028639q19.844797-7.376398 24.373593 17.769182" stroke="#5c1213"/><path d="m133.110848 50.560956q7.834612-9.922228 16.644052-4.918181" stroke="#070000"/><path d="m239.190608 120.792271q-226.894094 50.641464-255.190608-124.048973" stroke="#fbffff"/><path d="m250.305489 10.003922q-211.22199 147.372529-256.418918 174.996078" stroke="#faffff"/><path d="m261.665737 141.707104q-17.189071 27.488168-47.18329-4.568217" stroke="#897e79"/><path d="m-1.115679 93.96918q139.36985 51.39499 115.724641-96.61673" stroke="#fff"/><path d="m-.645328 39.291914q176.239398-28.574707 116.239602 144.7148" stroke="#fff"/><path d="m125.951274-1.73181q-121.811624 120.991539 20.785825 172.842432" stroke="#fff"/><path d="m129.442356 77.384245q17.937686 2.927306 12.414812-13.126661" stroke="#860000"/><path d="m-3.612553 48.329907q149.121199 111.807694 251.338339.840547" stroke="#fff"/><path d="m170.688509 69.137754q-27.607061 17.70588-32.192435 19.114958" stroke="#624f43"/><path d="m201.15416 6.657933q14.881455 6.082923 17.779895 15.288478" stroke="#474846"/><path d="m-16 13.058802q64.415604 171.941198 192.888525 36.699492" stroke="#fff"/><path d="m135.550351 95.799925q-.907607-25.525665 5.623767-30.205167" stroke="#992f29"/><path d="m125.718491 47.710042q14.696699 1.471614 25.664701 6.506506" stroke="#4c1d17"/><path d="m131.393931 49.369425q8.773266 5.430236 13.798541-2.856221" stroke="#110a06"/><path d="m10.391918 166.508341q18.742973-163.962504 138.865123-105.110909" stroke="#fff"/><path d="m210.715005 185q-51.005966-64.420259-44.678073-71.908095" stroke="#d62916"/><path d="m191.167529 21.225619q-37.873455 44.098968-60.435309 21.292639" stroke="#6f7370"/><path d="m134.653445 95.693196q31.166428 12.215333 57.085277-26.680334" stroke="#705e57"/><path d="m126.725165-.048847q-142.725165 90.249482 5.714345 170.568371" stroke="#fff"/><path d="m154.281601 131.071438q-11.238424-21.94819-24.701856-66.786015" stroke="#ff3b28"/><path d="m151.104027 169.810945q-145.650247-52.933956-20.969781-173.36139" stroke="#fff"/><path d="m150.75543 172.10523q32.423086-9.663281 34.264381.894692" stroke="#9a352a"/><path d="m164.339072 172.77353q-154.332537-52.345397-38.784473-169.201973" stroke="#fff"/><path d="m113.329965 1.066434q11.054528 144.608849-118.020274 87.668735" stroke="#fff"/><path d="m-12.953105-2.792938q71.442782 187.186366 216.386772 34.832622" stroke="#fff"/><path d="m53.723623 171.482397q-69.723623-105.993839 96.662884-140.667782" stroke="#fff"/><path d="m179.061821 139.518541q-17.212635 1.856743-22.514959 2.123776" stroke="#410100"/><path d="m152.464111 19.582767q-11.131079 10.785296-25.914959-.273242" stroke="#790000"/><path d="m131.067091 13.708209q9.886274 2.226026 1.448433 15.069168" stroke="#a10000"/><path d="m219.703201 22.868888q.033745-4.564267-16.72078-16.357699" stroke="#353534"/><path d="m155.869397 166.466294q19.02905 13.498714 23.175311-5.689317" stroke="#c71002"/><path d="m-16 152.453361q172.297961 17.955768 114.990226-159.735449" stroke="#fff"/><path d="m-16 71.322636q110.724364 82.776251 142.774351-70.603516" stroke="#fff"/><path d="m111.926131 182.097353q62.413961-154.062203-115.27761-142.169946" stroke="#feffff"/><path d="m130.092956 43.44749q26.825971 4.09302 21.906457 25.05046" stroke="#361112"/><path d="m94.117549-16q63.12884 182.461426-110.117549 160.8095" stroke="#fff"/><path d="m153.637993 140.013244q3.042611-5.540129 29.521291 6.329193" stroke="#070000"/><path d="m254.427964 110.306113q-17.522647 48.732699-28.963776 66.314613" stroke="#828688"/><path d="m4.404182 165.276512q177.219739-17.646272 83.566531-163.324838" stroke="#feffff"/><path d="m151.560075 54.684834q-2.861759-17.148249-26.175225-11.512533" stroke="#5c1710"/><path d="m126.397076 2.022027q-82.180149 97.299553 25.930513 133.353543" stroke="#fff"/><path d="m150.87736 79.112829q-152.768167 20.499376-142.199276-58.874929" stroke="#fff"/><path d="m147.123842 39.877571q-82.758149-55.877571-141.083025 87.707999" stroke="#feffff"/><path d="m97.753306.363991q85.74337 161.678708-88.344914 160.797799" stroke="#feffff"/><path d="m189.02526 109.685396q12.407356 9.820857 22.636922 9.635055" stroke="#5b554c"/><path d="m150.488196 24.707382q-16.153976 7.820355-22.573152-12.13957" stroke="#820000"/><path d="m136.035692 126.282864q10.930982 9.119891 21.60395-6.549928" stroke="#650e0b"/><path d="m153.584267 78.63048q-143.253499 34.713826-151.82271-43.547877" stroke="#fff"/><path d="m271 23.914445q-175.266653 161.085555-247.402325 18.547421" stroke="#feffff"/><path d="m134.889492 117.281569q7.397243-2.300513 22.167756.422412" stroke="#c61b08"/><path d="m-11.19693 141.817929q157.5643 16.455827 104.096899-151.908613" stroke="#fff"/><path d="m132.948011 124.835117q1.537405 1.320436 21.769903-8.345086" stroke="#9e0700"/><path d="m123.234393 171.811408q-139.234393-84.437484.213417-171.162645" stroke="#feffff"/><path d="m116.152597 170.555113q-132.152597-87.327216 6.718899-172.278209" stroke="#fbffff"/><path d="m142.983469 97.11582q8.01038-9.892593 17.993346-2.386015" stroke="#3c0c08"/><path d="m124.845378 70.064693q6.675831 2.321227 20.094892 5.383038" stroke="#a10400"/><path d="m215.999773 22.759135q12.576737-12.529612 37.185717-38.759135" stroke="#788087"/></g></svg>