<svg xmlns="http://www.w3.org/2000/svg" version="1.1" width="1024" height="680">
<rect x="0" y="0" width="1024" height="680" fill="#89949b" />
<g transform="scale(4.000000) translate(0.5 0.5)">
<polygon fill="#f7ffff" fill-opacity="0.501961" points="259.646495,-10.776769,263.213065,58.230909,-2.806798,44.656590,23.694240,-16.000000" />
<polygon fill="#110000" fill-opacity="0.501961" points="111.367457,47.391651,79.255297,84.956698,255.066330,83.277551,271.000000,62.531645" />
<polygon fill="#041d26" fill-opacity="0.501961" points="109.532588,160.863628,111.272332,185.000000,0.506584,185.000000,-16.000000,59.455231" />
<polygon fill="#360000" fill-opacity="0.501961" points="94.711507,121.378320,95.918953,56.600820,115.105770,54.036515,119.744032,124.514257" />
<polygon fill="#390000" fill-opacity="0.501961" points="163.600517,60.474571,140.974535,50.545631,140.763811,118.473754,162.192653,123.073582" />
<polygon fill="#d3f2ff" fill-opacity="0.501961" points="69.911890,78.671284,81.696872,77.846653,138.277391,-16.000000,-16.000000,70.613604" />
<polygon fill="#e2ded9" fill-opacity="0.501961" points="124.638755,177.037272,98.475384,142.152723,126.783347,107.708938,225.868180,183.355718" />
<polygon fill="#2e3e48" fill-opacity="0.501961" points="185.983685,153.211827,258.810746,181.108158,257.630278,114.802097,183.447426,145.009995" />
<polygon fill="#00060a" fill-opacity="0.501961" points="13.029159,83.699203,97.207115,81.688762,26.789187,74.730131,-14.822340,78.137074" />
<polygon fill="#e4e1dd" fill-opacity="0.501961" points="116.582951,64.979819,141.014832,64.726435,139.601547,110.897759,120.868427,117.918250" />
<polygon fill="#311b04" fill-opacity="0.501961" points="271.000000,84.124795,260.927242,61.037436,97.506675,53.625085,212.447791,84.982228" />
<polygon fill="#6699b0" fill-opacity="0.501961" points="88.268466,82.294246,9.826561,82.209961,32.473042,138.167744,77.502854,138.216858" />
<polygon fill="#d4e8f5" fill-opacity="0.501961" points="22.613016,-16.000000,257.930671,6.566188,203.914781,36.153172,82.398047,56.227825" />
<polygon fill="#170d06" fill-opacity="0.501961" points="96.681779,185.000000,113.272487,146.688562,2.918129,185.000000,52.726589,138.850379" />
<polygon fill="#cfc5c6" fill-opacity="0.501961" points="40.904745,182.133881,118.976669,117.955251,67.578995,169.465842,65.997486,169.094236" />
<polygon fill="#47170f" fill-opacity="0.501961" points="121.613260,45.417064,140.663416,50.621841,85.944819,60.502781,108.738244,121.396506" />
<polygon fill="#91bfd5" fill-opacity="0.501961" points="5.006083,-16.000000,-16.000000,67.275746,94.431078,67.745113,97.829508,81.111679" />
<polygon fill="#110300" fill-opacity="0.501961" points="90.650077,144.439198,50.851724,140.511439,-15.722539,141.681748,0.946150,148.873183" />
<polygon fill="#5c0f02" fill-opacity="0.501961" points="161.620083,122.449590,139.968522,120.360674,141.971488,64.609857,160.075503,73.347901" />
<polygon fill="#212d2c" fill-opacity="0.501961" points="138.177711,67.504839,136.559545,76.604501,125.367535,82.925795,122.082331,71.259691" />
<polygon fill="#2a333a" fill-opacity="0.501961" points="208.094653,153.809933,271.000000,136.858675,248.605551,185.000000,239.247962,158.173180" />
<polygon fill="#c6dae2" fill-opacity="0.501961" points="94.796148,72.411813,31.084465,-16.000000,48.087973,63.729308,-16.000000,76.440024" />
<polygon fill="#8fb7ca" fill-opacity="0.501961" points="165.513462,119.362003,161.954260,83.999753,243.720118,84.908033,221.925730,101.405500" />
<polygon fill="#d2d5d7" fill-opacity="0.501961" points="233.377304,161.536458,218.794080,154.036270,219.667270,159.445813,203.130625,185.000000" />
<polygon fill="#b0bac2" fill-opacity="0.501961" points="39.225059,148.055772,168.447561,143.492872,170.728365,124.796075,132.587026,154.515043" />
<polygon fill="#211213" fill-opacity="0.501961" points="131.470660,48.905460,88.342283,57.394757,88.203721,65.511587,168.936856,61.352295" />
<polygon fill="#b4cfdc" fill-opacity="0.501961" points="159.523632,56.689747,185.709846,33.239508,90.311473,56.584537,-16.000000,-16.000000" />
<polygon fill="#bad1de" fill-opacity="0.501961" points="271.000000,59.778629,271.000000,-14.128378,176.063789,-16.000000,204.851312,58.319264" />
<polygon fill="#778b98" fill-opacity="0.501961" points="12.286720,185.000000,-0.183527,153.291718,45.551941,147.982350,27.096975,158.280807" />
<polygon fill="#59140a" fill-opacity="0.501961" points="96.067483,86.475178,94.239857,120.939021,116.975911,114.919337,118.155247,77.229799" />
<polygon fill="#637d8b" fill-opacity="0.501961" points="188.973242,158.880065,200.613927,160.145056,271.000000,101.546867,183.750301,119.743902" />
<polygon fill="#edf6fa" fill-opacity="0.501961" points="131.458192,23.250617,175.953999,23.442959,177.549612,-0.968634,28.213086,-16.000000" />
<polygon fill="#4f3625" fill-opacity="0.501961" points="213.141691,83.813890,198.623317,53.476048,154.799599,53.303905,142.804977,82.555883" />
<polygon fill="#95bbcb" fill-opacity="0.501961" points="92.450075,122.090415,95.512854,82.586583,62.597392,85.254588,50.766488,82.364788" />
<polygon fill="#1a1715" fill-opacity="0.501961" points="89.646793,147.710888,105.763066,162.294999,123.827184,185.000000,57.986961,185.000000" />
<polygon fill="#cf6a81" fill-opacity="0.501961" points="163.688950,31.343721,161.869842,18.274922,150.326051,37.680620,152.101364,20.118693" />
<polygon fill="#ccc7c1" fill-opacity="0.501961" points="153.553396,144.435650,118.218161,69.424492,118.579214,97.535880,115.815055,157.182417" />
<polygon fill="#666c70" fill-opacity="0.501961" points="48.448499,151.540723,90.991091,135.007809,27.868119,132.622870,136.895278,116.939783" />
<polygon fill="#bcd0dd" fill-opacity="0.501961" points="190.171529,142.445178,161.533545,128.711479,197.874465,185.000000,143.101289,153.900232" />
<polygon fill="#3b697c" fill-opacity="0.501961" points="5.891674,81.720864,-16.000000,101.726718,37.372057,143.731048,32.901114,83.010655" />
<polygon fill="#e5edec" fill-opacity="0.501961" points="91.353951,73.794270,55.150335,77.414230,27.505788,70.124173,95.357154,67.175036" />
<polygon fill="#7eabc1" fill-opacity="0.501961" points="-16.000000,1.048209,19.005277,-16.000000,22.612962,62.719677,-16.000000,80.138131" />
<polygon fill="#bbd2dc" fill-opacity="0.501961" points="98.506087,55.905726,42.671429,70.606750,32.012066,-10.634057,146.060640,42.258109" />
<polygon fill="#87542e" fill-opacity="0.501961" points="198.322780,77.785502,194.292870,58.140251,168.539419,69.941118,160.848237,74.808558" />
<polygon fill="#9c8f88" fill-opacity="0.501961" points="147.327936,151.204000,122.001550,161.718266,127.994744,183.588540,158.166510,185.000000" />
<polygon fill="#181815" fill-opacity="0.501961" points="-6.684424,142.130660,75.016849,154.020257,45.193867,178.396216,43.886576,147.172909" />
<polygon fill="#7493a2" fill-opacity="0.501961" points="257.371831,129.412828,271.000000,81.497005,211.101128,93.093917,142.407216,129.475831" />
<polygon fill="#c6c0bb" fill-opacity="0.501961" points="74.852520,138.085053,131.094434,148.530159,149.906275,134.472478,34.746216,136.278419" />
<polygon fill="#c2c7ca" fill-opacity="0.501961" points="133.121392,126.562692,136.959678,58.709119,139.430552,80.920646,116.105934,80.561888" />
<polygon fill="#27251d" fill-opacity="0.501961" points="256.156510,57.968313,271.000000,87.315712,165.197097,80.296103,225.615233,72.528862" />
<polygon fill="#706969" fill-opacity="0.501961" points="170.507091,152.322149,220.580115,139.949835,213.260319,168.778813,170.796096,143.192918" />
<polygon fill="#1a2526" fill-opacity="0.501961" points="35.697942,74.075934,59.199302,81.257661,-16.000000,82.784293,25.488384,75.582899" />
<polygon fill="#30201f" fill-opacity="0.501961" points="138.286613,49.619135,127.927242,46.769376,82.243975,63.454552,159.414043,64.312627" />
<polygon fill="#c8d9e2" fill-opacity="0.501961" points="235.770340,7.586737,129.364431,45.178044,153.361227,54.798478,240.023412,40.423979" />
<polygon fill="#313435" fill-opacity="0.501961" points="111.601768,159.052715,73.954274,178.604581,103.027827,139.725774,90.228038,146.857511" />
<polygon fill="#668797" fill-opacity="0.501961" points="24.412911,104.162703,61.218838,137.888910,83.405470,136.342856,32.763982,82.032055" />
<polygon fill="#ced1d2" fill-opacity="0.501961" points="121.295652,70.864703,134.466026,66.429719,118.518042,63.484410,120.045833,103.777243" />
<polygon fill="#5a2823" fill-opacity="0.501961" points="118.540646,56.619554,120.969503,61.610324,91.651439,74.521518,117.063225,110.525252" />
<polygon fill="#192428" fill-opacity="0.501961" points="12.411115,139.826590,32.922758,148.264845,-4.551181,148.994379,-16.000000,76.836329" />
<polygon fill="#857673" fill-opacity="0.501961" points="167.335631,120.272617,147.144155,132.519526,142.586981,122.115983,94.048063,118.066367" />
<polygon fill="#b2c6d0" fill-opacity="0.501961" points="216.376738,59.347593,268.348580,58.409786,271.000000,19.334270,183.661620,51.316399" />
<polygon fill="#bab9be" fill-opacity="0.501961" points="62.657318,166.750741,74.912290,154.288892,95.654241,136.105750,68.515337,165.332012" />
<polygon fill="#2f3534" fill-opacity="0.501961" points="129.945523,81.265407,136.895959,79.424919,129.729342,69.289590,126.546855,77.845904" />
<polygon fill="#cac5be" fill-opacity="0.501961" points="107.737039,163.800112,127.789413,185.000000,98.189601,132.977533,129.939002,130.154161" />
<polygon fill="#c1d0da" fill-opacity="0.501961" points="199.600627,158.819176,116.338024,183.294971,225.542836,165.871947,214.245094,177.678708" />
<polygon fill="#445364" fill-opacity="0.501961" points="162.440861,185.000000,161.086078,171.141961,166.445845,179.374471,156.746435,154.946831" />
<polygon fill="#a7c0cb" fill-opacity="0.501961" points="177.796286,105.392295,163.423809,110.036272,163.765034,91.221529,186.889987,84.282124" />
<polygon fill="#581d18" fill-opacity="0.501961" points="162.931516,120.040279,162.588731,67.662200,141.424284,110.498819,151.382150,121.172271" />
<polygon fill="#c5d6dd" fill-opacity="0.501961" points="97.311413,69.111289,52.893797,44.550966,118.546775,44.556097,47.287782,78.771563" />
<polygon fill="#4e1e19" fill-opacity="0.501961" points="114.730617,108.386299,104.692526,122.767762,97.780438,120.938694,94.782123,64.750022" />
<polygon fill="#484c51" fill-opacity="0.501961" points="129.280431,185.000000,124.400876,151.762691,122.424402,180.171164,82.039617,155.928872" />
<polygon fill="#1b1e1d" fill-opacity="0.501961" points="33.895744,154.585871,23.013408,168.620450,67.732038,158.790260,75.716370,151.554254" />
<polygon fill="#47555b" fill-opacity="0.501961" points="91.385934,127.512878,71.804168,124.514808,66.914971,128.889138,79.135876,131.821174" />
<polygon fill="#34393b" fill-opacity="0.501961" points="57.306072,161.505771,41.444674,134.855194,-6.314671,137.222212,49.230342,139.279506" />
<polygon fill="#243c44" fill-opacity="0.501961" points="81.785961,82.310628,85.655543,77.267337,87.505871,74.847776,72.232996,82.203220" />
<polygon fill="#7c919c" fill-opacity="0.501961" points="28.599548,160.574179,4.448427,155.273627,51.853920,149.377881,35.361799,149.131553" />
<polygon fill="#34393d" fill-opacity="0.501961" points="271.000000,169.396763,252.073707,144.868652,248.133113,163.868533,157.815289,185.000000" />
<polygon fill="#2f201c" fill-opacity="0.501961" points="172.518525,56.545447,152.347379,83.092279,202.408566,83.971639,142.843998,66.757584" />
<polygon fill="#cecfd0" fill-opacity="0.501961" points="139.296115,70.986540,136.094188,95.879417,140.722672,64.429508,117.856662,66.490194" />
<polygon fill="#e0ecf2" fill-opacity="0.501961" points="158.316798,38.072488,193.582149,28.008800,76.926883,8.886998,174.105070,-16.000000" />
<polygon fill="#677f8c" fill-opacity="0.501961" points="271.000000,121.245524,245.393657,84.093287,271.000000,87.216340,177.590904,145.540908" />
<polygon fill="#32211f" fill-opacity="0.501961" points="103.933335,74.402623,133.724565,46.603587,87.342084,59.213202,88.305286,62.934943" />
<polygon fill="#909aa2" fill-opacity="0.501961" points="61.441508,148.402429,62.229819,151.707257,105.746476,152.353367,126.638124,149.171577" />
<polygon fill="#4f535c" fill-opacity="0.501961" points="133.048951,167.359809,134.281542,185.000000,136.406590,185.000000,132.042767,148.628220" />
<polygon fill="#827977" fill-opacity="0.501961" points="114.891681,150.672485,115.403576,165.521104,113.454632,180.240394,118.345652,153.533030" />
<polygon fill="#c98396" fill-opacity="0.501961" points="148.897921,35.686087,163.551464,26.108423,148.441458,21.784668,153.159989,36.249794" />
<polygon fill="#5f5f63" fill-opacity="0.501961" points="208.750119,164.648599,207.048511,168.258272,225.814976,159.379302,187.224444,154.981569" />
<polygon fill="#81695d" fill-opacity="0.501961" points="41.035449,165.586707,72.802648,185.000000,27.287336,185.000000,36.921928,166.681509" />
<polygon fill="#b8c1c7" fill-opacity="0.501961" points="180.848135,140.240261,167.253425,127.515402,97.236371,153.639194,176.958621,144.070154" />
<polygon fill="#8aabb9" fill-opacity="0.501961" points="66.052924,83.405589,47.613293,106.124138,95.362575,113.907119,92.950020,82.089752" />
<polygon fill="#9b999c" fill-opacity="0.501961" points="84.727001,137.254876,24.154683,139.150122,26.563451,142.392167,47.667706,136.846855" />
<polygon fill="#232424" fill-opacity="0.501961" points="107.954917,134.394897,81.311313,156.435265,110.370897,166.143344,57.185841,179.870860" />
<polygon fill="#2f3636" fill-opacity="0.501961" points="136.385726,70.703974,125.885430,70.175626,122.408510,68.545041,124.552282,77.747859" />
<polygon fill="#2c2b28" fill-opacity="0.501961" points="83.006605,142.949233,51.393749,149.174969,-14.389636,148.607241,67.508233,138.023383" />
<polygon fill="#997d71" fill-opacity="0.501961" points="194.589700,148.204580,203.749291,162.871146,211.546831,146.711866,193.549922,144.847809" />
<polygon fill="#c7cacc" fill-opacity="0.501961" points="118.750016,95.904741,118.035247,117.386560,140.202292,120.222927,136.296031,81.474657" />
<polygon fill="#b3b2b1" fill-opacity="0.501961" points="178.292445,185.000000,222.004555,161.767352,251.479977,162.840424,236.702491,163.685600" />
<polygon fill="#535356" fill-opacity="0.501961" points="144.193668,182.724035,145.235058,174.385202,139.684923,152.364366,144.133955,185.000000" />
<polygon fill="#252323" fill-opacity="0.501961" points="101.099065,150.360958,111.110037,173.905183,106.503696,153.395586,88.213725,155.394765" />
<polygon fill="#4a4844" fill-opacity="0.501961" points="179.397999,52.036765,167.996292,54.132956,173.956276,71.643392,198.094726,54.934533" />
<polygon fill="#2b505f" fill-opacity="0.501961" points="-16.000000,22.282634,15.895498,137.592135,-16.000000,136.863421,-6.134818,77.975427" />
<polygon fill="#dae5e4" fill-opacity="0.501961" points="43.284411,74.169137,78.327532,78.074859,97.965632,69.087624,61.264001,72.287705" />
<polygon fill="#d4e2e7" fill-opacity="0.501961" points="151.994186,148.786183,159.471910,170.489963,155.000958,177.316922,149.185476,153.650876" />
<polygon fill="#271c1d" fill-opacity="0.501961" points="120.868772,54.668325,173.111829,67.762470,168.197080,57.333331,139.068656,51.166820" />
<polygon fill="#748896" fill-opacity="0.501961" points="143.192912,147.950302,122.130080,149.905404,138.230171,150.587774,241.610774,138.580560" />
<polygon fill="#a3c1d0" fill-opacity="0.501961" points="38.357103,48.103217,22.044159,-16.000000,7.665438,50.300212,68.491898,65.485624" />
<polygon fill="#563922" fill-opacity="0.501961" points="228.468849,76.821082,182.966864,76.077262,231.296557,64.004143,258.628636,79.153181" />
<polygon fill="#212a2b" fill-opacity="0.501961" points="246.510490,59.554278,232.516414,63.638845,201.872994,70.641405,224.636508,58.841952" />
<polygon fill="#c7c5c4" fill-opacity="0.501961" points="138.837468,114.209521,140.114865,71.735772,137.405572,62.453582,135.611599,83.950485" />
<polygon fill="#4c5e6a" fill-opacity="0.501961" points="191.451794,159.830686,259.729630,133.080825,237.363971,151.568902,186.633980,154.782067" />
<polygon fill="#642722" fill-opacity="0.501961" points="141.828140,123.238319,139.951380,89.479227,141.941443,73.314539,165.210972,77.532500" />
<polygon fill="#8aa2b0" fill-opacity="0.501961" points="148.348534,132.795289,199.978642,85.388094,243.431096,102.823712,172.358357,121.938082" />
<polygon fill="#587481" fill-opacity="0.501961" points="80.990639,117.820945,39.350582,111.165489,17.257949,119.017596,99.983428,115.123831" />
<polygon fill="#191e1e" fill-opacity="0.501961" points="212.603280,59.036862,205.567383,83.543467,271.000000,84.103886,215.014645,79.213946" />
<polygon fill="#d6e5ec" fill-opacity="0.501961" points="58.329251,-6.862683,87.265220,25.246745,131.207909,27.517069,167.511383,21.519492" />
<polygon fill="#b8ced7" fill-opacity="0.501961" points="137.158417,44.654496,92.843010,57.706862,135.782130,28.431258,193.685328,53.395019" />
<polygon fill="#bed0d9" fill-opacity="0.501961" points="160.051299,157.787557,165.465237,185.000000,200.270378,174.105841,182.710379,149.365390" />
<polygon fill="#7f8c9b" fill-opacity="0.501961" points="186.536654,175.641518,173.152776,156.196849,186.388668,185.000000,159.384135,168.782575" />
<polygon fill="#aac0cb" fill-opacity="0.501961" points="263.844340,65.427245,238.869514,0.864708,271.000000,-3.013626,247.370844,53.520480" />
<polygon fill="#3c474f" fill-opacity="0.501961" points="35.148277,160.562432,-16.000000,155.066583,14.523967,185.000000,-1.909698,160.980181" />
<polygon fill="#c3c2be" fill-opacity="0.501961" points="162.230889,148.174921,92.087674,139.878781,126.463987,121.535288,99.579088,127.073517" />
<polygon fill="#c0d2db" fill-opacity="0.501961" points="178.550042,42.413365,243.375563,22.889622,222.234827,58.364485,206.193023,57.952211" />
<polygon fill="#949ba3" fill-opacity="0.501961" points="75.206098,140.639927,106.525907,133.963705,101.376110,148.818162,118.626691,120.601492" />
<polygon fill="#77a2b5" fill-opacity="0.501961" points="16.865942,63.335413,-16.000000,74.637691,12.356711,-13.762322,-16.000000,9.959651" />
<polygon fill="#ccc5bf" fill-opacity="0.501961" points="135.986061,157.596396,126.955541,178.790434,127.773159,153.584002,145.681418,185.000000" />
<polygon fill="#7d99a7" fill-opacity="0.501961" points="271.000000,85.866422,237.816751,84.625329,237.245714,117.569294,189.433233,110.175161" />
<polygon fill="#516774" fill-opacity="0.501961" points="231.416129,152.572727,178.554603,135.011464,254.198380,141.201908,271.000000,96.581655" />
<polygon fill="#b0cbd9" fill-opacity="0.501961" points="24.353701,-16.000000,44.172135,18.505175,83.580731,37.774810,32.396284,54.238937" />
<polygon fill="#a3a19f" fill-opacity="0.501961" points="164.790764,164.977392,95.988404,157.171580,99.032349,159.684550,105.381939,158.432539" />
<polygon fill="#64251c" fill-opacity="0.501961" points="108.819679,98.348055,116.614385,123.052332,118.060159,117.507992,114.624248,86.561758" />
<polygon fill="#5b2622" fill-opacity="0.501961" points="154.508041,121.137803,139.505251,119.968434,151.897731,79.229026,138.216743,58.551413" />
<polygon fill="#cdc5bc" fill-opacity="0.501961" points="147.227103,129.952987,153.489997,148.314737,91.973341,138.753828,142.629628,120.238739" />
<polygon fill="#d0cac3" fill-opacity="0.501961" points="119.804235,170.618617,108.126840,185.000000,123.293661,157.442706,124.672484,175.043605" />
<polygon fill="#252625" fill-opacity="0.501961" points="232.745974,59.534514,243.206562,59.755516,271.000000,60.531199,271.000000,95.084945" />
<polygon fill="#446876" fill-opacity="0.501961" points="88.072748,72.252093,76.293475,85.104224,79.357471,81.408708,96.685035,75.069199" />
<polygon fill="#c56b81" fill-opacity="0.501961" points="152.148853,30.473610,162.254712,26.313917,150.810093,23.601603,151.417193,37.425172" />
<polygon fill="#2d1d1b" fill-opacity="0.501961" points="84.791863,59.129552,94.824762,64.800583,148.396275,63.048817,116.863091,56.668526" />
<polygon fill="#afc5cf" fill-opacity="0.501961" points="174.492498,44.701035,128.149986,43.997695,130.744502,47.310684,156.279115,54.887382" />
<polygon fill="#688695" fill-opacity="0.501961" points="31.998016,93.692319,39.229768,126.522929,88.190042,143.052535,61.350503,125.367469" />
<polygon fill="#485051" fill-opacity="0.501961" points="121.422078,81.484776,122.549041,69.202652,128.106892,70.846751,137.530892,73.385507" />
<polygon fill="#7d9caa" fill-opacity="0.501961" points="63.269867,125.546574,95.595554,106.941115,94.682468,123.791799,89.870915,125.479946" />
<polygon fill="#1e1f1f" fill-opacity="0.501961" points="132.083352,185.000000,86.393190,152.219989,104.943804,152.711369,57.738890,173.949730" />
<polygon fill="#6f7c8a" fill-opacity="0.501961" points="153.136849,144.820036,162.225066,170.782528,177.407165,172.583618,160.510130,172.452844" />
<polygon fill="#1d2729" fill-opacity="0.501961" points="16.718857,74.696997,2.696337,80.846724,17.087104,81.102644,32.057302,81.006159" />
<polygon fill="#171615" fill-opacity="0.501961" points="83.227074,142.410424,37.730790,143.922725,64.596521,145.504397,81.038130,145.800985" />
<polygon fill="#b9b9b9" fill-opacity="0.501961" points="136.738178,68.843470,139.304813,66.421965,129.500945,63.316141,117.625904,69.620233" />
<polygon fill="#d5637f" fill-opacity="0.501961" points="162.880611,23.235701,159.967504,22.964567,157.623388,28.953126,160.000460,30.449252" />
<polygon fill="#c3c6c7" fill-opacity="0.501961" points="120.522291,80.950894,140.250626,81.086323,139.489911,68.296972,135.453450,92.875241" />
<polygon fill="#546f7c" fill-opacity="0.501961" points="22.357447,143.300966,37.107537,116.199377,100.290662,117.108809,19.803260,111.295149" />
<polygon fill="#a8bac4" fill-opacity="0.501961" points="195.270525,132.087020,148.990052,143.760112,180.975298,145.408383,178.638534,129.967710" />
<polygon fill="#cad0d2" fill-opacity="0.501961" points="220.590686,163.483781,229.992851,161.914480,195.783664,174.681380,229.054912,174.936016" />
<polygon fill="#4d2927" fill-opacity="0.501961" points="128.074485,46.632151,121.174197,50.305643,175.448652,65.093916,130.800008,47.198068" />
<polygon fill="#becfd1" fill-opacity="0.501961" points="-1.706136,72.312944,24.028120,64.905364,48.312221,74.803260,-14.757205,74.253559" />
<polygon fill="#6f472c" fill-opacity="0.501961" points="187.732007,64.548992,154.142181,70.691388,202.949691,76.813008,194.009826,56.048783" />
<polygon fill="#c8d6de" fill-opacity="0.501961" points="101.445472,152.145520,99.530814,149.611873,116.984885,152.566352,146.397755,149.843275" />
<polygon fill="#3c687a" fill-opacity="0.501961" points="26.406682,82.281910,75.927352,82.698947,23.766388,85.206099,-16.000000,81.597227" />
<polygon fill="#8a99a1" fill-opacity="0.501961" points="154.071946,120.426028,169.754458,123.320456,176.366050,138.341333,202.422798,147.767169" />
<polygon fill="#8ab1c5" fill-opacity="0.501961" points="41.474782,27.245008,-12.185421,28.248806,13.468968,58.227074,3.601771,10.402345" />
<polygon fill="#a4bcc6" fill-opacity="0.501961" points="180.328577,86.396072,164.554208,83.100443,163.451290,107.056404,170.287640,89.728289" />
<polygon fill="#77797f" fill-opacity="0.501961" points="132.651558,158.959258,129.133498,148.173627,133.382820,152.071544,132.892320,167.222845" />
<polygon fill="#9bacba" fill-opacity="0.501961" points="176.699225,148.778115,192.306386,180.959732,196.980347,181.245458,185.490353,160.255542" />
<polygon fill="#798f9a" fill-opacity="0.501961" points="255.555615,137.539093,269.939024,141.912230,232.713557,135.208930,248.728537,135.724768" />
<polygon fill="#4f211c" fill-opacity="0.501961" points="102.653378,111.251334,93.206378,121.567379,102.981807,122.741051,109.983114,114.180460" />
<polygon fill="#d7e4eb" fill-opacity="0.501961" points="170.512726,1.245733,154.364400,47.603271,187.536908,30.421360,170.550012,-16.000000" />
<polygon fill="#353b3c" fill-opacity="0.501961" points="38.941950,81.136330,96.116347,78.273106,105.493421,80.058211,77.734923,82.679460" />
<polygon fill="#262626" fill-opacity="0.501961" points="72.690572,158.912227,37.104652,177.372026,45.055872,175.807645,61.801298,147.842379" />
<polygon fill="#60707a" fill-opacity="0.501961" points="6.241902,148.508345,27.659795,148.907230,-3.075465,185.000000,31.191964,160.896734" />
<polygon fill="#303534" fill-opacity="0.501961" points="194.892634,69.675044,198.355751,54.105144,215.083398,62.668653,226.241306,63.809407" />
<polygon fill="#b4c2cb" fill-opacity="0.501961" points="187.776421,159.664125,200.367132,160.235911,204.965117,162.009856,210.760167,185.000000" />
<polygon fill="#adaaae" fill-opacity="0.501961" points="78.910533,148.586158,68.114158,151.910679,82.428223,152.172118,104.345436,135.604371" />
<polygon fill="#c9d9dd" fill-opacity="0.501961" points="49.635367,78.017629,80.584464,57.885392,96.401044,71.111767,92.692289,72.205659" />
<polygon fill="#151817" fill-opacity="0.501961" points="99.789005,71.694984,99.207734,64.951363,135.021175,52.263026,89.955727,63.511949" />
<polygon fill="#5f5f64" fill-opacity="0.501961" points="133.511809,168.688637,133.597827,152.189047,131.656522,152.163452,137.315453,185.000000" />
<polygon fill="#1e1b18" fill-opacity="0.501961" points="1.871333,137.963022,-16.000000,148.307694,43.486323,147.371154,5.640366,139.748058" />
<polygon fill="#572521" fill-opacity="0.501961" points="116.860591,104.264393,118.098525,69.210437,94.887014,68.673289,97.509645,116.570127" />
<polygon fill="#5e8799" fill-opacity="0.501961" points="50.294317,81.378360,21.161654,101.563311,84.463011,102.922261,4.198505,90.253112" />
<polygon fill="#202221" fill-opacity="0.501961" points="24.584253,169.101213,68.303424,160.399202,36.296934,152.061784,34.363480,154.120138" />
<polygon fill="#2a2c25" fill-opacity="0.501961" points="162.472651,81.436939,205.684105,84.834594,232.726151,81.306272,173.539919,77.684891" />
<polygon fill="#847e7b" fill-opacity="0.501961" points="115.505632,121.160396,104.324694,117.428661,119.307822,116.745947,88.578158,136.897727" />
<polygon fill="#8a9ea8" fill-opacity="0.501961" points="233.121364,121.200752,229.371062,119.788894,177.663046,116.186917,228.040112,124.073797" />
<polygon fill="#335969" fill-opacity="0.501961" points="-16.000000,109.502249,-11.912664,66.490728,8.791679,96.341913,35.158429,96.049902" />
<polygon fill="#6d6660" fill-opacity="0.501961" points="40.651676,141.359547,23.218540,133.480272,34.678162,152.535498,30.262748,141.322662" />
<polygon fill="#505c65" fill-opacity="0.501961" points="214.993056,165.328065,196.495720,166.713737,208.167807,167.072155,216.510809,138.482088" />
<polygon fill="#465a65" fill-opacity="0.501961" points="28.811577,135.972075,41.508232,135.320348,56.535340,131.809195,48.132983,129.783261" />
<polygon fill="#ccdbe3" fill-opacity="0.501961" points="228.179729,44.262076,236.010888,17.949701,124.325583,-16.000000,240.358001,43.082298" />
<polygon fill="#23292a" fill-opacity="0.501961" points="48.245405,151.849588,72.132740,151.939478,18.185718,167.330140,21.343065,168.804307" />
<polygon fill="#a2a3a5" fill-opacity="0.501961" points="153.395983,117.952507,161.031659,138.376976,136.547141,117.908564,153.875036,144.817240" />
<polygon fill="#667e8c" fill-opacity="0.501961" points="225.164966,123.579544,167.375692,131.185750,203.189310,131.520732,271.000000,129.467871" />
<polygon fill="#889fab" fill-opacity="0.501961" points="25.631029,157.371885,11.010681,155.534965,1.749668,154.652941,35.226030,154.038443" />
<polygon fill="#b6c0ca" fill-opacity="0.501961" points="165.991920,131.873567,174.008167,136.259528,182.425078,146.730652,149.567613,140.976806" />
<polygon fill="#cbd7dc" fill-opacity="0.501961" points="165.073302,155.723703,176.017650,146.242296,166.675725,148.911452,187.116148,185.000000" />
<polygon fill="#e3eef3" fill-opacity="0.501961" points="96.125126,-0.033013,144.864935,24.569089,150.202924,39.265530,152.387548,-14.939290" />
<polygon fill="#6e6c6d" fill-opacity="0.501961" points="139.609328,151.483043,140.022244,156.961635,140.862554,164.113525,147.574399,180.853456" />
<polygon fill="#4c7385" fill-opacity="0.501961" points="25.014792,99.643251,-1.834601,110.724782,36.007040,114.832207,28.018321,85.357375" />
<polygon fill="#272a2c" fill-opacity="0.501961" points="248.092999,159.658043,271.000000,144.209844,239.132758,181.484461,266.922945,166.109391" />
<polygon fill="#4f6877" fill-opacity="0.501961" points="181.483990,141.582687,194.993400,148.556943,190.221912,158.231166,187.282841,154.958329" />
<polygon fill="#bac9d1" fill-opacity="0.501961" points="147.178913,149.326934,122.448883,147.344260,87.431745,146.679239,160.397416,144.321458" />
<polygon fill="#cabbae" fill-opacity="0.501961" points="118.992568,120.369061,134.601629,144.021303,149.272864,125.312607,106.764738,140.480607" />
<polygon fill="#acafb5" fill-opacity="0.501961" points="76.928165,154.783208,101.839711,132.466330,78.157427,150.943413,51.322062,179.212221" />
<polygon fill="#a4afb9" fill-opacity="0.501961" points="49.186893,135.038345,65.614418,137.193385,43.942022,137.893091,51.881976,130.281729" />
<polygon fill="#b1c4cc" fill-opacity="0.501961" points="214.582081,57.201752,208.252576,46.476003,255.877789,43.381618,270.408692,60.377746" />
<polygon fill="#88949f" fill-opacity="0.501961" points="183.763822,174.653438,165.595189,146.832809,218.060751,165.006281,169.970692,148.547572" />
<polygon fill="#d9cabd" fill-opacity="0.501961" points="114.999588,165.901595,110.160142,155.967434,113.186306,185.000000,108.613079,185.000000" />
<polygon fill="#1e1c1b" fill-opacity="0.501961" points="133.722186,52.684494,176.242249,66.654140,129.789467,58.317910,83.976571,64.239218" />
<polygon fill="#93b1bf" fill-opacity="0.501961" points="85.642564,99.644348,94.696200,117.623244,94.404706,82.549726,74.525406,86.765837" />
<polygon fill="#7d929f" fill-opacity="0.501961" points="9.751168,166.746737,18.090538,164.315486,23.064304,185.000000,28.639890,171.179813" />
<polygon fill="#6a7580" fill-opacity="0.501961" points="165.087377,185.000000,155.441656,154.488805,155.252659,150.026202,162.650873,173.976936" />
<polygon fill="#c6dbe5" fill-opacity="0.501961" points="86.622111,70.462950,83.562245,-16.000000,46.910562,12.963166,76.263734,30.504581" />
<polygon fill="#c1c3c4" fill-opacity="0.501961" points="118.708662,72.923637,120.301807,64.053880,127.500450,113.593116,118.132158,99.029644" />
<polygon fill="#a9a7a2" fill-opacity="0.501961" points="135.521725,119.574310,106.228134,123.157139,134.545531,123.714875,140.473202,145.242307" />
<polygon fill="#cbd8dd" fill-opacity="0.501961" points="197.828532,184.077832,171.802856,153.810401,170.718574,146.891231,183.132619,163.401709" />
<polygon fill="#7197a8" fill-opacity="0.501961" points="50.503963,114.063480,36.975581,113.873225,41.577617,101.057722,72.383203,96.539178" />
<polygon fill="#9a9fa4" fill-opacity="0.501961" points="58.165124,167.411093,50.476348,173.145885,77.212736,160.693728,77.709526,158.391460" />
<polygon fill="#ccd0cf" fill-opacity="0.501961" points="120.302741,129.066664,122.090915,140.352596,119.676485,183.969107,128.092716,124.889928" />
<polygon fill="#e0e8e9" fill-opacity="0.501961" points="79.598727,76.199504,95.938939,70.299700,43.473602,69.642911,49.897143,67.075246" />
<polygon fill="#c4bdb7" fill-opacity="0.501961" points="147.152552,150.036242,142.430557,149.577980,151.202012,180.476820,151.349480,185.000000" />
<polygon fill="#b9ccd6" fill-opacity="0.501961" points="163.289659,54.290782,213.001131,36.619964,222.339551,57.718268,183.464589,52.099515" />
<polygon fill="#908e90" fill-opacity="0.501961" points="236.296791,158.743406,237.133817,165.431124,226.071575,156.237093,212.144970,156.485480" />
<polygon fill="#536570" fill-opacity="0.501961" points="228.963748,159.794715,208.413417,160.373251,225.122768,150.656767,212.014358,164.255239" />
<polygon fill="#9dbbc8" fill-opacity="0.501961" points="6.756981,37.537830,61.457251,68.336757,23.550029,66.051731,0.349698,20.652638" />
<polygon fill="#c2d2dc" fill-opacity="0.501961" points="157.836715,39.427188,271.000000,38.067508,154.538297,54.090726,153.809403,20.850299" />
<polygon fill="#819dac" fill-opacity="0.501961" points="216.869551,97.113755,203.047500,85.556145,217.503237,84.288393,259.932045,85.365384" />
<polygon fill="#552422" fill-opacity="0.501961" points="96.184867,59.018319,90.850727,61.747852,123.104704,53.617699,133.503552,48.275178" />
<polygon fill="#694627" fill-opacity="0.501961" points="204.205954,77.374320,163.864923,78.972847,164.676021,68.578497,203.897063,72.270768" />
<polygon fill="#696161" fill-opacity="0.501961" points="114.586666,169.557980,116.265029,156.460360,114.888476,184.122205,119.143168,173.779012" />
<polygon fill="#777174" fill-opacity="0.501961" points="58.931993,171.567574,76.212508,163.011995,86.275425,148.872082,64.807472,171.702683" />
<polygon fill="#5a241d" fill-opacity="0.501961" points="115.660180,91.782280,105.198336,122.950231,94.839397,89.737630,117.692639,121.320478" />
<polygon fill="#6f818b" fill-opacity="0.501961" points="172.876474,119.853200,185.193704,121.537214,235.542071,112.940760,188.176233,124.023229" />
<polygon fill="#1c1c19" fill-opacity="0.501961" points="271.000000,82.049407,220.699604,76.552990,247.542762,84.590836,261.354746,82.576793" />
<polygon fill="#6e7075" fill-opacity="0.501961" points="80.989838,130.670465,122.310305,111.159179,64.419672,138.934083,116.299236,127.738462" />
<polygon fill="#1b1c1c" fill-opacity="0.501961" points="74.480748,163.906908,71.386198,185.000000,92.483467,154.128328,88.052391,152.140551" />
<polygon fill="#a6b1b7" fill-opacity="0.501961" points="194.393510,145.593232,186.995767,140.150385,135.568130,138.444046,177.741787,140.631948" />
<polygon fill="#bdc4c8" fill-opacity="0.501961" points="226.603340,164.797380,216.922676,161.938189,211.715507,176.039357,212.691556,172.023261" />
<polygon fill="#3c4241" fill-opacity="0.501961" points="137.287473,80.272322,124.555111,79.388745,132.511537,73.325575,134.525815,72.350145" />
<polygon fill="#78929f" fill-opacity="0.501961" points="55.072752,123.629139,81.333088,113.411657,57.383662,135.402886,69.897861,138.713390" />
<polygon fill="#2f4f59" fill-opacity="0.501961" points="70.148134,79.316473,84.968547,82.590856,70.818507,78.067206,45.139146,78.119478" />
<polygon fill="#8da8b6" fill-opacity="0.501961" points="220.527063,87.425174,246.497380,91.788251,169.419262,102.697086,202.048528,83.669100" />
<polygon fill="#8baab7" fill-opacity="0.501961" points="66.654402,98.650383,50.654220,84.092627,75.721675,113.847236,95.260842,109.964755" />
<polygon fill="#292727" fill-opacity="0.501961" points="88.026738,143.458501,39.359940,146.535796,87.208709,141.441560,86.102452,139.910460" />
<polygon fill="#bec1c0" fill-opacity="0.501961" points="148.756594,140.332888,92.805513,148.808176,96.498314,150.404928,93.999722,151.205877" />
<polygon fill="#697881" fill-opacity="0.501961" points="60.243578,147.852902,68.957390,145.948483,79.654744,147.302670,75.027494,149.931005" />
<polygon fill="#1f2222" fill-opacity="0.501961" points="39.115838,185.000000,51.046493,166.784451,19.160961,159.274885,59.976882,163.674589" />
<polygon fill="#44525b" fill-opacity="0.501961" points="18.498016,172.858628,-16.000000,161.405127,28.178040,162.724085,-16.000000,165.449383" />
<polygon fill="#c3d1db" fill-opacity="0.501961" points="152.242203,152.383711,166.363847,149.488909,128.458173,150.588373,147.846081,152.638310" />
<polygon fill="#cacccc" fill-opacity="0.501961" points="139.346783,99.407527,124.394261,116.875345,139.985361,116.393365,139.729964,89.999733" />
<polygon fill="#82919b" fill-opacity="0.501961" points="71.440926,133.265025,56.501253,136.243367,91.365411,133.176632,81.666798,142.259638" />
<polygon fill="#d3dddf" fill-opacity="0.501961" points="74.487534,77.183370,66.295103,67.596537,22.757871,73.215320,56.562799,76.390914" />
<polygon fill="#878e92" fill-opacity="0.501961" points="147.145003,132.295244,185.387941,118.789422,151.935590,121.583846,146.103191,120.888676" />
<polygon fill="#592621" fill-opacity="0.501961" points="141.539919,95.586328,162.424561,65.230202,162.211770,106.832654,135.861777,93.479647" />
<polygon fill="#4a201b" fill-opacity="0.501961" points="96.144991,122.702292,97.002131,78.006703,94.364259,75.032234,105.718742,119.479058" />
<polygon fill="#3f372f" fill-opacity="0.501961" points="184.186765,57.630895,183.187387,71.435068,167.921437,67.400777,185.482463,55.443306" />
<polygon fill="#55575b" fill-opacity="0.501961" points="253.967654,163.843793,233.924217,173.047718,245.606802,169.563563,235.619958,156.571043" />
<polygon fill="#a9b5bf" fill-opacity="0.501961" points="150.914976,145.652030,170.085413,128.484527,164.375883,128.972585,147.306906,130.861643" />
<polygon fill="#4e5257" fill-opacity="0.501961" points="101.750796,144.166287,89.363848,148.376243,104.920086,140.537543,66.627675,185.000000" />
<polygon fill="#677e8a" fill-opacity="0.501961" points="194.454065,116.751641,271.000000,120.429385,197.858480,113.494819,204.246123,113.754943" />
<polygon fill="#4c5b62" fill-opacity="0.501961" points="67.150893,141.045879,94.636979,124.496612,79.925937,127.983222,74.165155,141.325412" />
<polygon fill="#717274" fill-opacity="0.501961" points="18.335577,139.946503,35.066946,141.671653,43.021091,141.902810,36.193016,138.522097" />
<polygon fill="#5e707a" fill-opacity="0.501961" points="61.603836,149.387843,50.139522,147.414303,2.681380,158.226901,34.708988,150.801056" />
<polygon fill="#323637" fill-opacity="0.501961" points="101.044689,150.379258,87.301016,158.108121,104.615104,164.643016,90.390172,152.610361" />
<polygon fill="#211a1a" fill-opacity="0.501961" points="160.064737,72.198869,140.660917,55.439169,170.800036,67.655237,163.660740,67.343706" />
<polygon fill="#313236" fill-opacity="0.501961" points="9.589792,168.547315,-16.000000,174.973009,-11.483431,169.531778,1.389692,167.979543" />
<polygon fill="#1e201e" fill-opacity="0.501961" points="31.712993,179.327449,55.982864,168.194372,48.290772,151.395250,76.678916,152.381359" />
<polygon fill="#323330" fill-opacity="0.501961" points="228.812366,57.252336,209.886959,76.058135,196.074747,54.470473,210.515036,62.963265" />
<polygon fill="#3e535d" fill-opacity="0.501961" points="271.000000,154.050298,231.744007,144.569238,271.000000,143.039480,239.095439,137.443029" />
<polygon fill="#61554f" fill-opacity="0.501961" points="22.958158,167.784871,-1.597623,185.000000,38.861471,166.445907,86.335634,185.000000" />
<polygon fill="#43535c" fill-opacity="0.501961" points="249.576957,119.710398,271.000000,125.573403,247.252744,133.837302,271.000000,140.575375" />
<polygon fill="#7d94a0" fill-opacity="0.501961" points="161.432801,110.694837,168.185673,115.587424,196.526607,110.742845,176.511412,109.565038" />
<polygon fill="#c7cdcf" fill-opacity="0.501961" points="138.309859,139.052970,101.636828,141.294737,103.059495,136.855239,85.581170,138.807603" />
<polygon fill="#838a92" fill-opacity="0.501961" points="166.348857,147.478951,224.265380,153.454288,167.883801,149.097588,124.130330,149.580169" />
<polygon fill="#202a2e" fill-opacity="0.501961" points="26.806194,76.774387,-16.000000,76.135899,17.609230,81.501445,22.402704,80.105882" />
<polygon fill="#dfeaee" fill-opacity="0.501961" points="167.164964,7.932016,160.928955,29.559138,149.964246,37.410229,180.337288,24.790305" />
<polygon fill="#9ec2d3" fill-opacity="0.501961" points="12.762994,10.366575,32.758008,28.862615,17.889524,-16.000000,8.489014,10.839318" />
<polygon fill="#454f58" fill-opacity="0.501961" points="210.862529,148.544747,256.549230,155.903514,214.405510,155.850391,209.199892,149.593744" />
<polygon fill="#5d261f" fill-opacity="0.501961" points="161.447153,112.712025,136.828518,119.749567,150.745287,120.186023,139.608735,81.630242" />
<polygon fill="#6c7079" fill-opacity="0.501961" points="151.277831,169.737421,149.234911,160.487708,159.400096,185.000000,135.306886,185.000000" />
<polygon fill="#7c4f2f" fill-opacity="0.501961" points="193.704039,67.172835,183.535524,73.263961,187.311108,61.051399,196.579747,55.278956" />
<polygon fill="#c8d7de" fill-opacity="0.501961" points="210.483576,185.000000,205.256578,185.000000,181.930731,148.966699,184.392157,160.435358" />
<polygon fill="#292928" fill-opacity="0.501961" points="134.357955,69.518055,136.970380,72.472498,123.217332,70.059337,127.160252,71.406135" />
<polygon fill="#ccb3a0" fill-opacity="0.501961" points="142.910316,119.525970,148.985580,134.368918,139.165463,143.233660,141.898866,134.748129" />
<polygon fill="#d9e3e9" fill-opacity="0.501961" points="155.126898,5.922441,162.183054,15.723648,154.422087,34.129754,159.794183,35.628058" />
<polygon fill="#5b717d" fill-opacity="0.501961" points="229.789357,123.292413,235.986030,139.138714,202.785563,133.227316,261.713962,131.889069" />
<polygon fill="#614f42" fill-opacity="0.501961" points="58.605583,157.430563,57.242663,151.145635,65.937978,171.307314,59.916954,161.239354" />
<polygon fill="#967d6d" fill-opacity="0.501961" points="212.294919,150.413713,199.625826,145.232187,198.211598,152.781980,204.802317,154.056448" />
<polygon fill="#c8bdb4" fill-opacity="0.501961" points="139.948001,161.837835,136.015811,151.611915,135.321394,185.000000,143.618639,185.000000" />
<polygon fill="#bec1c3" fill-opacity="0.501961" points="137.598341,82.579007,118.121774,112.978230,118.507709,94.333198,123.295673,81.323038" />
<polygon fill="#2f3b40" fill-opacity="0.501961" points="50.377902,165.450552,47.109140,149.782454,37.903818,151.606802,32.460091,142.822479" />
<polygon fill="#c1d5dd" fill-opacity="0.501961" points="127.022649,46.536265,90.143432,57.886089,42.213241,47.928328,91.430957,36.134240" />
<polygon fill="#bbcfd9" fill-opacity="0.501961" points="199.102231,10.581647,188.779654,-16.000000,220.321313,-16.000000,250.236654,8.745007" />
<polygon fill="#c6c3c0" fill-opacity="0.501961" points="138.732619,71.943722,139.507195,89.424008,135.785220,68.612882,135.505782,62.966864" />
<polygon fill="#3f4341" fill-opacity="0.501961" points="197.939684,54.391585,192.505556,56.073712,180.395909,63.032069,158.576988,53.554920" />
<polygon fill="#c8cfd3" fill-opacity="0.501961" points="198.004993,160.923181,199.272730,166.238394,199.200841,158.346052,185.234257,162.891038" />
<polygon fill="#613c22" fill-opacity="0.501961" points="249.757247,71.699343,245.232324,70.881989,227.030595,64.169083,237.656419,73.172835" />
<polygon fill="#414e54" fill-opacity="0.501961" points="39.300561,130.797493,45.342093,134.054791,54.846149,130.273737,45.239420,131.638818" />
<polygon fill="#c4cacc" fill-opacity="0.501961" points="100.132471,151.211211,122.660698,152.750939,124.939322,185.000000,119.603978,149.761445" />
<polygon fill="#83a0ac" fill-opacity="0.501961" points="89.914497,116.695931,76.759958,120.092101,82.079934,127.056570,93.051736,124.134694" />
<polygon fill="#b4cbd5" fill-opacity="0.501961" points="83.392761,55.072224,92.930578,55.218711,24.674334,60.652698,90.650028,70.728433" />
<polygon fill="#222423" fill-opacity="0.501961" points="106.573006,165.153407,122.102986,184.947306,63.584611,173.845206,110.115143,158.986654" />
<polygon fill="#c2d1d5" fill-opacity="0.501961" points="53.771721,76.797934,14.660941,66.168489,50.181956,69.996688,45.281103,77.398627" />
<polygon fill="#274d5c" fill-opacity="0.501961" points="-16.000000,86.145085,-12.480551,83.469145,3.338185,81.642679,23.932093,82.760216" />
<polygon fill="#5a7988" fill-opacity="0.501961" points="84.266297,128.517369,36.817698,134.209196,38.717138,135.559503,81.502944,133.691286" />
</g>
</svg>