<svg xmlns="http://www.w3.org/2000/svg" version="1.1" width="1024" height="680">
<rect x="0" y="0" width="1024" height="680" fill="#dde1e7" />
<g transform="scale(4.000000) translate(0.5 0.5)">
<path stroke="#b00000" stroke-opacity="0.501961" fill="none" d="M 181.195379 167.604020 Q 85.757970 45.067853, 173.266941 -9.759997" stroke-width="0.500000" />
<path stroke="#600000" stroke-opacity="0.501961" fill="none" d="M 164.225404 -16.000000 Q 128.431341 32.435056, 176.107808 141.182813" stroke-width="0.500000" />
<path stroke="#c80000" stroke-opacity="0.501961" fill="none" d="M 129.320761 0.276389 Q 120.623115 88.706236, 179.088419 169.073796" stroke-width="0.500000" />
<path stroke="#992315" stroke-opacity="0.501961" fill="none" d="M 177.104811 164.007852 Q 69.205185 31.222145, 247.679641 -5.423305" stroke-width="0.500000" />
<path stroke="#5b0000" stroke-opacity="0.501961" fill="none" d="M 155.029641 -15.703319 Q 138.410687 86.636559, 181.040840 143.203557" stroke-width="0.500000" />
<path stroke="#1a0c06" stroke-opacity="0.501961" fill="none" d="M 151.599332 143.459892 Q 206.276047 94.915743, 252.279034 47.385911" stroke-width="0.500000" />
<path stroke="#000000" stroke-opacity="0.501961" fill="none" d="M 148.801720 82.377604 Q 206.010232 44.607114, 267.027868 2.802378" stroke-width="0.500000" />
<path stroke="#790f06" stroke-opacity="0.501961" fill="none" d="M 200.869746 149.400625 Q 113.262284 148.786287, 153.784622 -0.966719" stroke-width="0.500000" />
<path stroke="#d40000" stroke-opacity="0.501961" fill="none" d="M 132.560810 1.709751 Q 108.160736 65.629775, 190.329870 185.000000" stroke-width="0.500000" />
<path stroke="#e00000" stroke-opacity="0.501961" fill="none" d="M 197.761184 181.236049 Q 117.488693 115.787109, 129.059140 -9.568065" stroke-width="0.500000" />
<path stroke="#620000" stroke-opacity="0.501961" fill="none" d="M 150.794106 -16.000000 Q 150.644171 48.574945, 139.640546 128.341229" stroke-width="0.500000" />
<path stroke="#970000" stroke-opacity="0.501961" fill="none" d="M 129.193817 -16.000000 Q 124.901788 148.905303, 184.001655 142.263733" stroke-width="0.500000" />
<path stroke="#8d0500" stroke-opacity="0.501961" fill="none" d="M 135.458681 35.704099 Q 162.257486 128.622161, 210.982213 185.000000" stroke-width="0.500000" />
<path stroke="#770300" stroke-opacity="0.501961" fill="none" d="M 128.692236 5.521199 Q 180.271505 107.811837, 136.152881 130.268249" stroke-width="0.500000" />
<path stroke="#bb0400" stroke-opacity="0.501961" fill="none" d="M 127.150230 -1.635037 Q 129.418329 130.851591, 200.730748 185.000000" stroke-width="0.500000" />
<path stroke="#6b1616" stroke-opacity="0.501961" fill="none" d="M 151.860984 -2.210867 Q 139.477555 33.757365, 173.571781 153.134910" stroke-width="0.500000" />
<path stroke="#670000" stroke-opacity="0.501961" fill="none" d="M 127.347791 120.337497 Q 179.950754 137.886079, 203.755598 174.760206" stroke-width="0.500000" />
<path stroke="#5f0000" stroke-opacity="0.501961" fill="none" d="M 161.229110 97.712884 Q 105.376044 86.531421, 146.872736 13.183030" stroke-width="0.500000" />
<path stroke="#0b0603" stroke-opacity="0.501961" fill="none" d="M 214.390743 156.799755 Q 258.503902 94.740153, 268.435324 83.001994" stroke-width="0.500000" />
<path stroke="#98190d" stroke-opacity="0.501961" fill="none" d="M 129.617175 -16.000000 Q 122.919242 54.291529, 193.409229 164.725501" stroke-width="0.500000" />
<path stroke="#201e17" stroke-opacity="0.501961" fill="none" d="M 128.879963 40.545811 Q 219.220227 2.500026, 244.231752 -16.000000" stroke-width="0.500000" />
<path stroke="#641614" stroke-opacity="0.501961" fill="none" d="M 157.698856 146.085350 Q 149.890850 82.712549, 150.074241 -16.000000" stroke-width="0.500000" />
<path stroke="#880400" stroke-opacity="0.501961" fill="none" d="M 137.382053 -10.333545 Q 158.737284 126.828225, 188.652105 155.298148" stroke-width="0.500000" />
<path stroke="#7e160b" stroke-opacity="0.501961" fill="none" d="M 144.068339 130.026708 Q 145.585555 48.172401, 130.995065 12.219774" stroke-width="0.500000" />
<path stroke="#2b0c02" stroke-opacity="0.501961" fill="none" d="M 213.351544 112.330982 Q 172.296528 159.734300, 153.148707 138.225872" stroke-width="0.500000" />
<path stroke="#3c322e" stroke-opacity="0.501961" fill="none" d="M 161.860120 161.269301 Q 240.856901 87.671096, 263.665964 67.226280" stroke-width="0.500000" />
<path stroke="#8e0900" stroke-opacity="0.501961" fill="none" d="M 165.145961 107.433771 Q 110.827581 61.001982, 135.660763 10.974423" stroke-width="0.500000" />
<path stroke="#9e3629" stroke-opacity="0.501961" fill="none" d="M 127.885148 -14.945493 Q 117.240394 144.442062, 184.591970 143.734962" stroke-width="0.500000" />
<path stroke="#8c453e" stroke-opacity="0.501961" fill="none" d="M 206.067337 185.000000 Q 133.654165 169.050441, 142.663118 -16.000000" stroke-width="0.500000" />
<path stroke="#c51b0d" stroke-opacity="0.501961" fill="none" d="M 158.840958 -8.082954 Q 91.558961 32.290002, 180.205548 174.378068" stroke-width="0.500000" />
<path stroke="#8e2f25" stroke-opacity="0.501961" fill="none" d="M 127.164232 5.798702 Q 141.943588 36.305989, 143.627192 132.353213" stroke-width="0.500000" />
<path stroke="#3c3b3a" stroke-opacity="0.501961" fill="none" d="M 144.878506 51.969797 Q 227.741328 20.118614, 263.615501 0.354907" stroke-width="0.500000" />
<path stroke="#2f231a" stroke-opacity="0.501961" fill="none" d="M 203.651516 67.645804 Q 155.491354 106.074548, 143.924550 96.597026" stroke-width="0.500000" />
<path stroke="#584b46" stroke-opacity="0.501961" fill="none" d="M 138.351031 116.978517 Q 156.252972 95.971934, 271.000000 26.642264" stroke-width="0.500000" />
<path stroke="#261710" stroke-opacity="0.501961" fill="none" d="M 255.538659 10.569333 Q 182.772506 59.342198, 129.478534 96.150052" stroke-width="0.500000" />
<path stroke="#271108" stroke-opacity="0.501961" fill="none" d="M 154.045447 142.628944 Q 184.070712 114.032376, 199.651178 98.236640" stroke-width="0.500000" />
<path stroke="#600000" stroke-opacity="0.501961" fill="none" d="M 158.737217 102.155178 Q 143.128407 42.593115, 152.142877 0.538830" stroke-width="0.500000" />
<path stroke="#440000" stroke-opacity="0.501961" fill="none" d="M 185.940631 149.186546 Q 146.572586 124.601666, 130.465738 119.339077" stroke-width="0.500000" />
<path stroke="#9c4037" stroke-opacity="0.501961" fill="none" d="M 200.840577 185.000000 Q 130.593581 126.728226, 134.320932 7.347773" stroke-width="0.500000" />
<path stroke="#630c03" stroke-opacity="0.501961" fill="none" d="M 160.635069 99.546058 Q 103.206190 82.592922, 148.721671 18.084618" stroke-width="0.500000" />
<path stroke="#360000" stroke-opacity="0.501961" fill="none" d="M 185.764552 149.463427 Q 146.943979 128.408683, 132.016099 120.847029" stroke-width="0.500000" />
<path stroke="#1a1513" stroke-opacity="0.501961" fill="none" d="M 196.373895 180.436996 Q 223.485165 143.181504, 256.293545 98.286811" stroke-width="0.500000" />
<path stroke="#90453c" stroke-opacity="0.501961" fill="none" d="M 148.707678 131.697299 Q 115.444170 4.168566, 161.125860 -3.481745" stroke-width="0.500000" />
<path stroke="#4f0300" stroke-opacity="0.501961" fill="none" d="M 127.495178 22.139299 Q 144.738552 19.656212, 176.917927 39.098518" stroke-width="0.500000" />
<path stroke="#3a0601" stroke-opacity="0.501961" fill="none" d="M 184.474590 140.069278 Q 175.070670 153.713389, 133.974667 123.500253" stroke-width="0.500000" />
<path stroke="#d92712" stroke-opacity="0.501961" fill="none" d="M 182.588326 -16.000000 Q 86.372136 2.625188, 161.066608 144.296214" stroke-width="0.500000" />
<path stroke="#ac2e26" stroke-opacity="0.501961" fill="none" d="M 226.362905 181.898787 Q 171.396203 183.466505, 135.425449 -1.681698" stroke-width="0.500000" />
<path stroke="#360000" stroke-opacity="0.501961" fill="none" d="M 133.663915 121.203769 Q 156.657509 139.435273, 182.315395 142.185698" stroke-width="0.500000" />
<path stroke="#2f2e2c" stroke-opacity="0.501961" fill="none" d="M 185.919711 110.444152 Q 246.445641 56.526248, 257.135854 43.285127" stroke-width="0.500000" />
<path stroke="#0d0000" stroke-opacity="0.501961" fill="none" d="M 130.464484 40.111522 Q 152.498588 47.175727, 153.599544 66.976455" stroke-width="0.500000" />
<path stroke="#5b5952" stroke-opacity="0.501961" fill="none" d="M 147.999836 105.289585 Q 148.697868 104.101474, 241.234285 45.948536" stroke-width="0.500000" />
<path stroke="#5d0900" stroke-opacity="0.501961" fill="none" d="M 138.490722 43.535011 Q 108.193447 73.350724, 157.899143 98.939002" stroke-width="0.500000" />
<path stroke="#90110a" stroke-opacity="0.501961" fill="none" d="M 133.900401 121.128919 Q 177.143754 127.811959, 207.156995 182.666722" stroke-width="0.500000" />
<path stroke="#1a1814" stroke-opacity="0.501961" fill="none" d="M 218.578656 185.000000 Q 248.792696 140.617714, 260.608336 127.441891" stroke-width="0.500000" />
<path stroke="#4f4c4c" stroke-opacity="0.501961" fill="none" d="M 264.375979 0.794616 Q 147.060206 56.429177, 127.816848 49.243161" stroke-width="0.500000" />
<path stroke="#90372e" stroke-opacity="0.501961" fill="none" d="M 135.506996 18.691601 Q 151.290530 82.648426, 140.317257 132.998293" stroke-width="0.500000" />
<path stroke="#590909" stroke-opacity="0.501961" fill="none" d="M 136.398878 79.156817 Q 156.012017 74.153714, 149.442706 -5.573641" stroke-width="0.500000" />
<path stroke="#75110b" stroke-opacity="0.501961" fill="none" d="M 135.391618 127.024360 Q 168.085263 117.553581, 176.441598 185.000000" stroke-width="0.500000" />
<path stroke="#3c0000" stroke-opacity="0.501961" fill="none" d="M 160.116456 99.401291 Q 126.159887 96.098134, 140.681005 70.822669" stroke-width="0.500000" />
<path stroke="#490000" stroke-opacity="0.501961" fill="none" d="M 125.702915 25.609316 Q 155.254340 29.132052, 152.892684 -3.741884" stroke-width="0.500000" />
<path stroke="#322d2a" stroke-opacity="0.501961" fill="none" d="M 166.396543 70.803541 Q 186.853170 55.633309, 230.747158 27.732337" stroke-width="0.500000" />
<path stroke="#690000" stroke-opacity="0.501961" fill="none" d="M 181.903059 145.464352 Q 170.736123 152.188936, 138.424797 114.413790" stroke-width="0.500000" />
<path stroke="#550d06" stroke-opacity="0.501961" fill="none" d="M 135.372019 80.175468 Q 162.000827 52.078503, 128.054215 41.528786" stroke-width="0.500000" />
<path stroke="#590000" stroke-opacity="0.501961" fill="none" d="M 150.758058 23.892133 Q 128.414741 32.512115, 128.392673 8.882031" stroke-width="0.500000" />
<path stroke="#720000" stroke-opacity="0.501961" fill="none" d="M 150.245757 91.501371 Q 169.384254 110.444559, 177.473038 146.604007" stroke-width="0.500000" />
<path stroke="#d61f12" stroke-opacity="0.501961" fill="none" d="M 134.564495 -7.603813 Q 113.828058 24.228932, 152.904367 137.030216" stroke-width="0.500000" />
<path stroke="#373636" stroke-opacity="0.501961" fill="none" d="M 200.938332 96.126834 Q 220.066645 80.426038, 248.980457 52.103720" stroke-width="0.500000" />
<path stroke="#470805" stroke-opacity="0.501961" fill="none" d="M 132.932852 52.256252 Q 163.808252 41.467559, 139.360710 15.900506" stroke-width="0.500000" />
<path stroke="#494444" stroke-opacity="0.501961" fill="none" d="M 149.702273 147.529522 Q 196.752490 101.395412, 242.009440 57.813076" stroke-width="0.500000" />
<path stroke="#2d2b26" stroke-opacity="0.501961" fill="none" d="M 207.733993 38.482231 Q 215.657042 40.616377, 233.995016 56.002336" stroke-width="0.500000" />
<path stroke="#3e3e3b" stroke-opacity="0.501961" fill="none" d="M 267.346038 64.139442 Q 237.580806 90.699727, 197.841649 127.311165" stroke-width="0.500000" />
<path stroke="#170b02" stroke-opacity="0.501961" fill="none" d="M 184.834757 -16.000000 Q 164.498635 13.300824, 130.484882 -2.595284" stroke-width="0.500000" />
<path stroke="#980900" stroke-opacity="0.501961" fill="none" d="M 132.595835 124.182648 Q 157.412978 115.608567, 187.201795 185.000000" stroke-width="0.500000" />
<path stroke="#1a0000" stroke-opacity="0.501961" fill="none" d="M 162.093704 95.121929 Q 138.414307 88.465909, 134.339772 95.018580" stroke-width="0.500000" />
<path stroke="#5e3937" stroke-opacity="0.501961" fill="none" d="M 221.803938 -1.789711 Q 143.120047 38.463908, 126.782667 24.591869" stroke-width="0.500000" />
<path stroke="#0c0702" stroke-opacity="0.501961" fill="none" d="M 252.789327 83.585771 Q 240.025837 76.453574, 231.771681 69.730836" stroke-width="0.500000" />
<path stroke="#400000" stroke-opacity="0.501961" fill="none" d="M 128.018022 23.985667 Q 157.984388 26.878216, 150.427926 -13.955004" stroke-width="0.500000" />
<path stroke="#484948" stroke-opacity="0.501961" fill="none" d="M 187.708770 80.133294 Q 251.101321 38.223092, 265.630971 29.243391" stroke-width="0.500000" />
<path stroke="#260300" stroke-opacity="0.501961" fill="none" d="M 127.105627 42.411741 Q 144.828798 56.655940, 158.268608 47.596772" stroke-width="0.500000" />
<path stroke="#443e39" stroke-opacity="0.501961" fill="none" d="M 212.947011 2.684211 Q 153.480358 28.464908, 122.708093 45.889545" stroke-width="0.500000" />
<path stroke="#340000" stroke-opacity="0.501961" fill="none" d="M 133.270796 124.843180 Q 155.207448 134.559520, 156.725518 118.207028" stroke-width="0.500000" />
<path stroke="#6e0900" stroke-opacity="0.501961" fill="none" d="M 153.678389 168.315150 Q 158.511542 162.349587, 177.533042 169.830060" stroke-width="0.500000" />
<path stroke="#b10000" stroke-opacity="0.501961" fill="none" d="M 198.493434 168.427061 Q 174.895694 143.808023, 158.030239 97.106502" stroke-width="0.500000" />
<path stroke="#2f0000" stroke-opacity="0.501961" fill="none" d="M 124.535450 45.844902 Q 139.810729 36.421255, 153.527047 50.736199" stroke-width="0.500000" />
<path stroke="#393836" stroke-opacity="0.501961" fill="none" d="M 227.611124 170.139267 Q 253.755989 137.717432, 271.000000 111.287018" stroke-width="0.500000" />
<path stroke="#3b0304" stroke-opacity="0.501961" fill="none" d="M 134.949319 -8.270236 Q 162.462154 -1.310587, 144.937099 51.329742" stroke-width="0.500000" />
<path stroke="#363332" stroke-opacity="0.501961" fill="none" d="M 269.884308 83.795790 Q 239.961980 118.072346, 198.269159 178.080216" stroke-width="0.500000" />
<path stroke="#740000" stroke-opacity="0.501961" fill="none" d="M 147.837196 67.280048 Q 138.567078 83.988541, 125.482729 71.478204" stroke-width="0.500000" />
<path stroke="#0a0000" stroke-opacity="0.501961" fill="none" d="M 128.705058 48.934302 Q 146.058342 36.442076, 151.713325 57.438558" stroke-width="0.500000" />
<path stroke="#2e0000" stroke-opacity="0.501961" fill="none" d="M 163.784735 111.026041 Q 155.170447 82.887144, 132.322786 93.234793" stroke-width="0.500000" />
<path stroke="#8b0000" stroke-opacity="0.501961" fill="none" d="M 180.776612 164.525616 Q 169.987673 175.176926, 154.652375 164.922600" stroke-width="0.500000" />
<path stroke="#8d4138" stroke-opacity="0.501961" fill="none" d="M 162.792551 101.383130 Q 107.140803 89.509718, 144.548541 8.253286" stroke-width="0.500000" />
<path stroke="#3e3d3b" stroke-opacity="0.501961" fill="none" d="M 181.460789 116.726981 Q 253.252809 47.362600, 266.960440 36.903114" stroke-width="0.500000" />
<path stroke="#950000" stroke-opacity="0.501961" fill="none" d="M 183.700059 170.599987 Q 162.107668 157.359938, 154.983394 171.733096" stroke-width="0.500000" />
<path stroke="#4a2e24" stroke-opacity="0.501961" fill="none" d="M 132.541384 92.842825 Q 168.841378 103.492604, 181.362483 78.790147" stroke-width="0.500000" />
<path stroke="#260000" stroke-opacity="0.501961" fill="none" d="M 185.818270 139.606414 Q 155.182050 143.773637, 154.149197 141.053127" stroke-width="0.500000" />
<path stroke="#5d0000" stroke-opacity="0.501961" fill="none" d="M 128.041825 19.001589 Q 160.158363 25.755520, 144.851227 50.066511" stroke-width="0.500000" />
<path stroke="#d44034" stroke-opacity="0.501961" fill="none" d="M 176.436316 172.567635 Q 107.441758 42.420021, 133.698264 -11.116152" stroke-width="0.500000" />
<path stroke="#5c0000" stroke-opacity="0.501961" fill="none" d="M 133.105217 124.018107 Q 142.032009 129.446279, 157.776512 112.977889" stroke-width="0.500000" />
<path stroke="#474341" stroke-opacity="0.501961" fill="none" d="M 258.511138 95.090894 Q 212.296233 160.273776, 202.003847 173.124950" stroke-width="0.500000" />
<path stroke="#5c140b" stroke-opacity="0.501961" fill="none" d="M 182.613893 144.785386 Q 176.299652 151.544569, 133.955620 115.811240" stroke-width="0.500000" />
<path stroke="#640000" stroke-opacity="0.501961" fill="none" d="M 190.800903 160.336745 Q 180.315651 131.680104, 153.330833 139.908084" stroke-width="0.500000" />
<path stroke="#2f322f" stroke-opacity="0.501961" fill="none" d="M 224.196553 21.326977 Q 212.403204 14.066615, 201.614267 6.965244" stroke-width="0.500000" />
<path stroke="#5c3028" stroke-opacity="0.501961" fill="none" d="M 137.436132 126.056080 Q 128.016374 99.732925, 156.713486 91.790277" stroke-width="0.500000" />
<path stroke="#520000" stroke-opacity="0.501961" fill="none" d="M 125.825669 26.771503 Q 159.083483 28.134871, 149.314724 -1.224059" stroke-width="0.500000" />
<path stroke="#120000" stroke-opacity="0.501961" fill="none" d="M 124.857522 46.514868 Q 152.820023 38.960170, 150.285632 64.144021" stroke-width="0.500000" />
<path stroke="#50413e" stroke-opacity="0.501961" fill="none" d="M 202.734306 -16.000000 Q 165.868578 1.294821, 138.732963 -0.866264" stroke-width="0.500000" />
<path stroke="#970a00" stroke-opacity="0.501961" fill="none" d="M 153.796407 170.771994 Q 180.723355 159.126028, 198.530172 180.811022" stroke-width="0.500000" />
<path stroke="#333838" stroke-opacity="0.501961" fill="none" d="M 218.249739 36.776984 Q 269.189140 1.801382, 271.000000 1.275982" stroke-width="0.500000" />
<path stroke="#494945" stroke-opacity="0.501961" fill="none" d="M 211.511815 2.094862 Q 169.318655 24.102795, 128.341238 41.805934" stroke-width="0.500000" />
<path stroke="#400000" stroke-opacity="0.501961" fill="none" d="M 132.584596 115.286197 Q 136.690853 136.784923, 156.798136 123.303343" stroke-width="0.500000" />
<path stroke="#180000" stroke-opacity="0.501961" fill="none" d="M 162.058905 106.332805 Q 158.604652 88.285620, 134.417641 94.535645" stroke-width="0.500000" />
<path stroke="#160000" stroke-opacity="0.501961" fill="none" d="M 153.010697 142.399243 Q 178.623552 142.721401, 184.281231 141.087547" stroke-width="0.500000" />
<path stroke="#610000" stroke-opacity="0.501961" fill="none" d="M 123.713320 70.516438 Q 135.770545 85.779253, 146.831351 72.844954" stroke-width="0.500000" />
<path stroke="#010000" stroke-opacity="0.501961" fill="none" d="M 131.309098 51.561192 Q 136.170399 38.813535, 150.558795 44.922674" stroke-width="0.500000" />
<path stroke="#5b4139" stroke-opacity="0.501961" fill="none" d="M 124.229641 45.119453 Q 140.113908 60.754476, 185.190698 35.426787" stroke-width="0.500000" />
<path stroke="#832627" stroke-opacity="0.501961" fill="none" d="M 129.783921 77.331251 Q 164.326468 70.863486, 144.542013 12.168923" stroke-width="0.500000" />
<path stroke="#010000" stroke-opacity="0.501961" fill="none" d="M 227.918855 51.503602 Q 223.507302 44.818564, 211.668511 40.431673" stroke-width="0.500000" />
<path stroke="#5e5f5e" stroke-opacity="0.501961" fill="none" d="M 180.650365 82.560783 Q 204.322751 71.003189, 271.000000 24.071771" stroke-width="0.500000" />
<path stroke="#d51c09" stroke-opacity="0.501961" fill="none" d="M 192.451225 185.000000 Q 152.958050 127.549155, 139.895731 114.321450" stroke-width="0.500000" />
<path stroke="#340100" stroke-opacity="0.501961" fill="none" d="M 150.596166 129.172008 Q 133.032861 133.932297, 134.393411 112.839128" stroke-width="0.500000" />
<path stroke="#281f14" stroke-opacity="0.501961" fill="none" d="M 187.329555 109.700784 Q 201.888416 117.374869, 203.708595 119.053604" stroke-width="0.500000" />
<path stroke="#3f4647" stroke-opacity="0.501961" fill="none" d="M 226.513472 25.852218 Q 214.396933 15.372392, 204.473837 8.333231" stroke-width="0.500000" />
<path stroke="#494f52" stroke-opacity="0.501961" fill="none" d="M 271.000000 -1.529344 Q 260.873807 4.026374, 199.256523 29.803628" stroke-width="0.500000" />
<path stroke="#30281b" stroke-opacity="0.501961" fill="none" d="M 240.159498 153.639888 Q 236.226765 157.276659, 222.265421 145.665421" stroke-width="0.500000" />
<path stroke="#7c0000" stroke-opacity="0.501961" fill="none" d="M 130.252038 0.717338 Q 124.835338 25.895600, 147.115090 26.434573" stroke-width="0.500000" />
<path stroke="#41352c" stroke-opacity="0.501961" fill="none" d="M 130.927163 46.385049 Q 140.958119 58.324412, 171.110562 41.219941" stroke-width="0.500000" />
<path stroke="#4a0a07" stroke-opacity="0.501961" fill="none" d="M 127.032046 39.765823 Q 155.322445 49.010169, 153.769979 76.800823" stroke-width="0.500000" />
<path stroke="#2e0300" stroke-opacity="0.501961" fill="none" d="M 134.825298 94.732194 Q 160.254111 101.039204, 166.565115 93.143525" stroke-width="0.500000" />
<path stroke="#350000" stroke-opacity="0.501961" fill="none" d="M 154.544659 139.050496 Q 180.095328 151.165084, 183.737430 140.578845" stroke-width="0.500000" />
<path stroke="#641e1b" stroke-opacity="0.501961" fill="none" d="M 128.383722 23.987333 Q 150.812388 19.266480, 173.128145 37.526992" stroke-width="0.500000" />
<path stroke="#530000" stroke-opacity="0.501961" fill="none" d="M 129.289522 27.319470 Q 153.894802 31.858914, 151.720605 -7.323375" stroke-width="0.500000" />
<path stroke="#3b3834" stroke-opacity="0.501961" fill="none" d="M 175.986448 64.283867 Q 215.256108 38.660726, 233.604745 24.765725" stroke-width="0.500000" />
<path stroke="#5b0000" stroke-opacity="0.501961" fill="none" d="M 157.487648 117.637596 Q 145.302356 133.994731, 135.243188 118.673792" stroke-width="0.500000" />
<path stroke="#770000" stroke-opacity="0.501961" fill="none" d="M 122.849033 73.888854 Q 132.788572 69.905751, 145.727802 73.526822" stroke-width="0.500000" />
<path stroke="#737778" stroke-opacity="0.501961" fill="none" d="M 228.560319 172.001556 Q 244.784398 142.705479, 266.055027 75.562585" stroke-width="0.500000" />
<path stroke="#5e0000" stroke-opacity="0.501961" fill="none" d="M 150.775403 18.324811 Q 140.575694 35.936008, 128.485226 19.262590" stroke-width="0.500000" />
<path stroke="#750000" stroke-opacity="0.501961" fill="none" d="M 145.341928 74.629527 Q 125.788407 84.331829, 125.338971 66.461836" stroke-width="0.500000" />
<path stroke="#3d2f26" stroke-opacity="0.501961" fill="none" d="M 175.431875 -6.554434 Q 152.606265 12.285581, 123.847980 -5.179886" stroke-width="0.500000" />
<path stroke="#11100e" stroke-opacity="0.501961" fill="none" d="M 248.296172 82.919006 Q 245.727390 79.634584, 233.302321 72.072238" stroke-width="0.500000" />
<path stroke="#52514e" stroke-opacity="0.501961" fill="none" d="M 172.651434 151.306136 Q 242.845818 86.193430, 271.000000 59.684392" stroke-width="0.500000" />
<path stroke="#850000" stroke-opacity="0.501961" fill="none" d="M 125.796757 63.358075 Q 125.826539 80.432283, 146.712708 73.881611" stroke-width="0.500000" />
<path stroke="#6c0000" stroke-opacity="0.501961" fill="none" d="M 147.799892 20.786020 Q 137.660008 21.206888, 125.545444 23.536301" stroke-width="0.500000" />
<path stroke="#390000" stroke-opacity="0.501961" fill="none" d="M 136.591906 95.065195 Q 157.610518 86.001066, 160.729203 99.269976" stroke-width="0.500000" />
<path stroke="#120000" stroke-opacity="0.501961" fill="none" d="M 129.592626 50.771652 Q 137.471775 48.692933, 144.746698 41.051454" stroke-width="0.500000" />
<path stroke="#645f5d" stroke-opacity="0.501961" fill="none" d="M 247.885403 80.605706 Q 169.197789 157.861914, 160.238782 151.382224" stroke-width="0.500000" />
<path stroke="#444240" stroke-opacity="0.501961" fill="none" d="M 271.000000 116.321828 Q 251.067895 136.699604, 218.560847 185.000000" stroke-width="0.500000" />
<path stroke="#670700" stroke-opacity="0.501961" fill="none" d="M 132.847467 122.069137 Q 152.943175 125.882470, 158.109517 114.152979" stroke-width="0.500000" />
<path stroke="#6c0d0a" stroke-opacity="0.501961" fill="none" d="M 152.859366 140.798452 Q 177.400171 133.171671, 194.141344 162.311775" stroke-width="0.500000" />
<path stroke="#64140b" stroke-opacity="0.501961" fill="none" d="M 162.690050 96.898003 Q 126.954279 96.629337, 137.566774 67.258832" stroke-width="0.500000" />
<path stroke="#070000" stroke-opacity="0.501961" fill="none" d="M 132.257981 51.451991 Q 135.417055 51.558655, 146.985856 42.889575" stroke-width="0.500000" />
<path stroke="#9d291a" stroke-opacity="0.501961" fill="none" d="M 131.652185 185.000000 Q 179.797121 145.111165, 193.893937 185.000000" stroke-width="0.500000" />
<path stroke="#390b02" stroke-opacity="0.501961" fill="none" d="M 159.311944 98.539304 Q 152.473564 100.839994, 133.506641 94.565911" stroke-width="0.500000" />
<path stroke="#ffffff" stroke-opacity="0.501961" fill="none" d="M -16.000000 87.852239 Q 173.621895 116.734125, 181.379231 32.720529" stroke-width="0.500000" />
<path stroke="#484544" stroke-opacity="0.501961" fill="none" d="M 151.837840 80.024098 Q 247.128521 16.418120, 264.410873 6.235573" stroke-width="0.500000" />
<path stroke="#4e4845" stroke-opacity="0.501961" fill="none" d="M 246.342288 55.365646 Q 189.575291 107.882185, 158.333200 139.054914" stroke-width="0.500000" />
<path stroke="#50342b" stroke-opacity="0.501961" fill="none" d="M 160.056742 157.368022 Q 163.430582 175.490537, 212.165059 171.414830" stroke-width="0.500000" />
<path stroke="#5c0000" stroke-opacity="0.501961" fill="none" d="M 128.915725 24.893328 Q 148.480516 24.575371, 147.768104 14.792451" stroke-width="0.500000" />
<path stroke="#191713" stroke-opacity="0.501961" fill="none" d="M 211.630577 36.679974 Q 211.761833 39.032172, 227.835356 51.460020" stroke-width="0.500000" />
<path stroke="#630000" stroke-opacity="0.501961" fill="none" d="M 132.807988 123.370642 Q 144.587516 133.484938, 153.216362 115.532696" stroke-width="0.500000" />
<path stroke="#490000" stroke-opacity="0.501961" fill="none" d="M 133.128509 117.241076 Q 141.615284 136.201676, 155.250334 122.418678" stroke-width="0.500000" />
<path stroke="#e43b28" stroke-opacity="0.501961" fill="none" d="M 145.586404 66.004787 Q 118.514680 81.449898, 169.550677 154.430750" stroke-width="0.500000" />
<path stroke="#230000" stroke-opacity="0.501961" fill="none" d="M 151.656162 45.856379 Q 135.438116 45.897155, 127.517790 47.059537" stroke-width="0.500000" />
<path stroke="#790904" stroke-opacity="0.501961" fill="none" d="M 154.640075 32.146495 Q 144.923028 15.825244, 125.938525 22.835717" stroke-width="0.500000" />
<path stroke="#6e0000" stroke-opacity="0.501961" fill="none" d="M 127.401423 16.029749 Q 133.271742 36.776010, 148.268666 23.542993" stroke-width="0.500000" />
<path stroke="#8d8d84" stroke-opacity="0.501961" fill="none" d="M 232.931238 151.184415 Q 226.597521 153.465884, 183.132747 101.250529" stroke-width="0.500000" />
<path stroke="#300000" stroke-opacity="0.501961" fill="none" d="M 150.515338 64.085961 Q 153.171771 41.935248, 126.263418 48.596849" stroke-width="0.500000" />
<path stroke="#665f56" stroke-opacity="0.501961" fill="none" d="M 190.093559 80.699073 Q 168.925554 75.568866, 168.760228 63.067207" stroke-width="0.500000" />
<path stroke="#ffffff" stroke-opacity="0.501961" fill="none" d="M 16.814147 180.692088 Q -16.000000 87.323607, 159.204751 23.837905" stroke-width="0.500000" />
<path stroke="#690000" stroke-opacity="0.501961" fill="none" d="M 146.069343 77.291660 Q 145.128026 71.505754, 124.442061 74.567226" stroke-width="0.500000" />
<path stroke="#a70900" stroke-opacity="0.501961" fill="none" d="M 126.041190 60.833599 Q 128.637311 80.784124, 146.250445 72.546055" stroke-width="0.500000" />
<path stroke="#510000" stroke-opacity="0.501961" fill="none" d="M 156.483787 124.594389 Q 143.979339 135.558158, 131.946879 121.056170" stroke-width="0.500000" />
<path stroke="#d11c06" stroke-opacity="0.501961" fill="none" d="M 200.566755 171.911734 Q 174.418025 141.816214, 160.170714 104.657255" stroke-width="0.500000" />
<path stroke="#ffffff" stroke-opacity="0.501961" fill="none" d="M 153.205455 77.837800 Q -5.045282 130.543756, -3.891797 2.902547" stroke-width="0.500000" />
<path stroke="#ffffff" stroke-opacity="0.501961" fill="none" d="M -11.736103 58.537279 Q 141.366207 159.566981, 175.005170 120.667501" stroke-width="0.500000" />
<path stroke="#5a5d60" stroke-opacity="0.501961" fill="none" d="M 187.247500 34.534346 Q 229.225609 16.895576, 255.208318 5.882155" stroke-width="0.500000" />
<path stroke="#430602" stroke-opacity="0.501961" fill="none" d="M 135.567377 96.849928 Q 162.991108 88.500278, 162.259839 109.029975" stroke-width="0.500000" />
<path stroke="#787870" stroke-opacity="0.501961" fill="none" d="M 176.554781 48.928831 Q 176.389404 12.594293, 176.370657 -16.000000" stroke-width="0.500000" />
<path stroke="#f9ffff" stroke-opacity="0.501961" fill="none" d="M 199.409041 7.911032 Q -10.137668 95.710628, -0.920784 150.778060" stroke-width="0.500000" />
<path stroke="#ffffff" stroke-opacity="0.501961" fill="none" d="M 2.131899 23.746857 Q 19.368576 124.187438, 151.098061 76.460713" stroke-width="0.500000" />
<path stroke="#1f2121" stroke-opacity="0.501961" fill="none" d="M 202.190078 4.447783 Q 208.288583 11.945991, 219.527774 19.621861" stroke-width="0.500000" />
<path stroke="#ef2e21" stroke-opacity="0.501961" fill="none" d="M 180.036958 170.797964 Q 146.004136 115.063447, 136.488150 90.823497" stroke-width="0.500000" />
<path stroke="#310000" stroke-opacity="0.501961" fill="none" d="M 155.607516 142.624441 Q 178.780423 134.452036, 181.905947 145.893754" stroke-width="0.500000" />
<path stroke="#220e0b" stroke-opacity="0.501961" fill="none" d="M 124.242017 -11.617003 Q 126.657674 3.675553, 151.983284 1.484021" stroke-width="0.500000" />
<path stroke="#8c342b" stroke-opacity="0.501961" fill="none" d="M 154.138248 166.705916 Q 178.942924 155.687571, 192.045478 181.534975" stroke-width="0.500000" />
<path stroke="#480000" stroke-opacity="0.501961" fill="none" d="M 148.490846 48.567827 Q 134.532814 36.198929, 125.917852 46.292536" stroke-width="0.500000" />
<path stroke="#8d9290" stroke-opacity="0.501961" fill="none" d="M 200.324588 134.977018 Q 198.660176 122.878039, 239.977990 59.963569" stroke-width="0.500000" />
<path stroke="#ffffff" stroke-opacity="0.501961" fill="none" d="M 66.824967 169.267576 Q -5.375344 31.291309, 148.265436 31.462802" stroke-width="0.500000" />
<path stroke="#ffffff" stroke-opacity="0.501961" fill="none" d="M 89.448289 -0.851687 Q 189.861638 144.084567, 7.864308 165.978211" stroke-width="0.500000" />
<path stroke="#494848" stroke-opacity="0.501961" fill="none" d="M 271.000000 2.045532 Q 221.508925 32.668024, 167.201009 69.920773" stroke-width="0.500000" />
<path stroke="#4d4a47" stroke-opacity="0.501961" fill="none" d="M 123.972337 43.672816 Q 242.585542 -10.191419, 248.800311 -16.000000" stroke-width="0.500000" />
<path stroke="#4c4a4a" stroke-opacity="0.501961" fill="none" d="M 271.000000 84.124876 Q 251.054571 100.630886, 194.479949 185.000000" stroke-width="0.500000" />
<path stroke="#0c0000" stroke-opacity="0.501961" fill="none" d="M 141.537516 93.351748 Q 157.496171 92.787403, 160.931674 96.953295" stroke-width="0.500000" />
<path stroke="#291c14" stroke-opacity="0.501961" fill="none" d="M 164.577654 142.735063 Q 171.945624 150.115675, 188.977874 136.420861" stroke-width="0.500000" />
<path stroke="#980400" stroke-opacity="0.501961" fill="none" d="M 134.190327 118.844509 Q 140.127169 122.143656, 157.746051 125.831782" stroke-width="0.500000" />
<path stroke="#feffff" stroke-opacity="0.501961" fill="none" d="M 13.948525 185.000000 Q -11.058707 90.355666, 218.298812 -2.932221" stroke-width="0.500000" />
<path stroke="#ffffff" stroke-opacity="0.501961" fill="none" d="M 2.610082 141.179886 Q 69.752032 -16.000000, 146.713637 37.408515" stroke-width="0.500000" />
<path stroke="#524d43" stroke-opacity="0.501961" fill="none" d="M 243.544343 156.178325 Q 222.716778 149.687527, 219.980034 143.856847" stroke-width="0.500000" />
<path stroke="#8e0000" stroke-opacity="0.501961" fill="none" d="M 145.950571 66.903327 Q 141.496050 75.245740, 124.962875 71.567697" stroke-width="0.500000" />
<path stroke="#c20700" stroke-opacity="0.501961" fill="none" d="M 160.305984 116.357898 Q 158.442895 116.741973, 136.547405 115.610096" stroke-width="0.500000" />
<path stroke="#800000" stroke-opacity="0.501961" fill="none" d="M 149.970433 28.050475 Q 137.322063 16.111817, 128.918279 21.539040" stroke-width="0.500000" />
<path stroke="#ffffff" stroke-opacity="0.501961" fill="none" d="M 204.908946 138.900642 Q 28.641140 135.935560, 112.086533 -16.000000" stroke-width="0.500000" />
<path stroke="#ffffff" stroke-opacity="0.501961" fill="none" d="M 176.388245 41.678117 Q 75.911904 185.000000, -8.850039 25.404990" stroke-width="0.500000" />
<path stroke="#921009" stroke-opacity="0.501961" fill="none" d="M 203.094902 174.110592 Q 175.697052 135.359120, 162.554716 137.556853" stroke-width="0.500000" />
<path stroke="#d01302" stroke-opacity="0.501961" fill="none" d="M 126.202412 46.791042 Q 130.397814 34.327224, 126.122498 -16.000000" stroke-width="0.500000" />
<path stroke="#35322f" stroke-opacity="0.501961" fill="none" d="M 245.341254 80.844518 Q 235.223507 68.647049, 226.158255 72.390615" stroke-width="0.500000" />
<path stroke="#ffffff" stroke-opacity="0.501961" fill="none" d="M 2.994325 163.944386 Q 160.448258 71.515094, 217.849624 31.983966" stroke-width="0.500000" />
<path stroke="#5a3932" stroke-opacity="0.501961" fill="none" d="M 161.534270 158.247870 Q 161.027951 172.731341, 175.387446 166.931912" stroke-width="0.500000" />
<path stroke="#6b5c55" stroke-opacity="0.501961" fill="none" d="M 186.866867 82.956492 Q 168.059988 63.354375, 154.012730 80.616764" stroke-width="0.500000" />
<path stroke="#ffffff" stroke-opacity="0.501961" fill="none" d="M 144.936532 83.171863 Q 13.814579 159.842858, -8.174650 -16.000000" stroke-width="0.500000" />
<path stroke="#ffffff" stroke-opacity="0.501961" fill="none" d="M -16.000000 156.440587 Q 143.358291 174.166529, 121.359721 -0.630851" stroke-width="0.500000" />
<path stroke="#ffffff" stroke-opacity="0.501961" fill="none" d="M 148.309922 27.453655 Q 66.554465 68.808066, -8.894945 106.160858" stroke-width="0.500000" />
<path stroke="#6b0000" stroke-opacity="0.501961" fill="none" d="M 144.276593 76.657217 Q 134.412837 84.736883, 127.415146 71.667387" stroke-width="0.500000" />
<path stroke="#ffffff" stroke-opacity="0.501961" fill="none" d="M 111.105910 2.111541 Q 161.852785 159.945767, 1.375274 160.110905" stroke-width="0.500000" />
<path stroke="#1f1a16" stroke-opacity="0.501961" fill="none" d="M 214.185012 39.467417 Q 223.407969 50.841450, 230.073359 50.661051" stroke-width="0.500000" />
<path stroke="#fdffff" stroke-opacity="0.501961" fill="none" d="M 4.583191 174.736421 Q 35.897693 -16.000000, 148.993584 41.899420" stroke-width="0.500000" />
<path stroke="#ffffff" stroke-opacity="0.501961" fill="none" d="M 129.264746 165.776448 Q 151.122882 -1.319215, -0.100905 56.585619" stroke-width="0.500000" />
<path stroke="#58544b" stroke-opacity="0.501961" fill="none" d="M 184.067053 110.231132 Q 189.111596 110.741851, 205.410090 118.918984" stroke-width="0.500000" />
<path stroke="#6d0000" stroke-opacity="0.501961" fill="none" d="M 145.596957 28.215445 Q 132.693409 14.685039, 127.453730 30.062365" stroke-width="0.500000" />
<path stroke="#ffffff" stroke-opacity="0.501961" fill="none" d="M 216.110927 35.329800 Q -16.000000 96.274627, -16.000000 118.327995" stroke-width="0.500000" />
<path stroke="#110400" stroke-opacity="0.501961" fill="none" d="M 158.973184 93.444523 Q 144.187392 101.775562, 142.690034 90.273462" stroke-width="0.500000" />
<path stroke="#3a0000" stroke-opacity="0.501961" fill="none" d="M 134.229617 124.431778 Q 143.637452 123.213265, 156.287880 124.800467" stroke-width="0.500000" />
<path stroke="#520500" stroke-opacity="0.501961" fill="none" d="M 148.398544 44.328070 Q 144.066665 39.641508, 125.508049 46.477861" stroke-width="0.500000" />
<path stroke="#ffffff" stroke-opacity="0.501961" fill="none" d="M 148.267244 56.718472 Q 18.881314 16.897105, 15.669700 173.991930" stroke-width="0.500000" />
<path stroke="#8f0402" stroke-opacity="0.501961" fill="none" d="M 150.500371 23.335592 Q 147.030521 69.818614, 166.787465 119.876782" stroke-width="0.500000" />
<path stroke="#ffffff" stroke-opacity="0.501961" fill="none" d="M -0.208765 140.427794 Q 165.708645 163.624210, 104.839707 -1.313518" stroke-width="0.500000" />
<path stroke="#2d0600" stroke-opacity="0.501961" fill="none" d="M 158.103250 143.151829 Q 178.031538 146.014673, 180.719182 139.745751" stroke-width="0.500000" />
<path stroke="#412f2e" stroke-opacity="0.501961" fill="none" d="M 153.532862 4.968200 Q 134.413181 2.305482, 134.121189 -1.567187" stroke-width="0.500000" />
<path stroke="#a42414" stroke-opacity="0.501961" fill="none" d="M 145.633032 48.871394 Q 119.632434 49.608977, 129.440484 -4.566727" stroke-width="0.500000" />
<path stroke="#750000" stroke-opacity="0.501961" fill="none" d="M 147.771579 26.352214 Q 133.641630 32.962074, 129.628319 23.652601" stroke-width="0.500000" />
<path stroke="#3e3f3f" stroke-opacity="0.501961" fill="none" d="M 220.311440 80.049268 Q 243.646213 56.830691, 271.000000 30.202866" stroke-width="0.500000" />
<path stroke="#ffffff" stroke-opacity="0.501961" fill="none" d="M 14.054996 160.813168 Q 159.672489 175.161509, 113.436892 -12.323060" stroke-width="0.500000" />
<path stroke="#ffffff" stroke-opacity="0.501961" fill="none" d="M 1.887917 134.864028 Q 124.317352 175.090829, 126.634538 -11.646509" stroke-width="0.500000" />
<path stroke="#ffffff" stroke-opacity="0.501961" fill="none" d="M 119.939589 2.027521 Q 22.619215 98.531747, 155.002563 135.959581" stroke-width="0.500000" />
<path stroke="#ffffff" stroke-opacity="0.501961" fill="none" d="M -8.318500 21.837365 Q 15.811111 103.139463, 248.196565 107.331464" stroke-width="0.500000" />
<path stroke="#ffffff" stroke-opacity="0.501961" fill="none" d="M 191.630098 104.064544 Q 112.021315 182.379955, 42.129948 50.106604" stroke-width="0.500000" />
<path stroke="#ffffff" stroke-opacity="0.501961" fill="none" d="M 198.248354 152.940451 Q 177.204790 28.492842, -12.951184 112.764062" stroke-width="0.500000" />
<path stroke="#8e291b" stroke-opacity="0.501961" fill="none" d="M 176.707783 169.056752 Q 166.296543 153.754767, 156.354731 169.007848" stroke-width="0.500000" />
<path stroke="#800000" stroke-opacity="0.501961" fill="none" d="M 151.471939 128.944696 Q 136.678904 123.827342, 138.137142 115.846767" stroke-width="0.500000" />
<path stroke="#ffffff" stroke-opacity="0.501961" fill="none" d="M -7.340836 109.861068 Q 64.598300 -14.001682, 145.459286 114.382964" stroke-width="0.500000" />
<path stroke="#f9ffff" stroke-opacity="0.501961" fill="none" d="M 150.926223 30.843728 Q -16.000000 25.525131, 10.339755 185.000000" stroke-width="0.500000" />
<path stroke="#5c1213" stroke-opacity="0.501961" fill="none" d="M 139.277760 92.028639 Q 159.122557 84.652241, 163.651353 109.797821" stroke-width="0.500000" />
<path stroke="#070000" stroke-opacity="0.501961" fill="none" d="M 133.110848 50.560956 Q 140.945460 40.638728, 149.754900 45.642775" stroke-width="0.500000" />
<path stroke="#fbffff" stroke-opacity="0.501961" fill="none" d="M 239.190608 120.792271 Q 12.296514 171.433735, -16.000000 -3.256702" stroke-width="0.500000" />
<path stroke="#faffff" stroke-opacity="0.501961" fill="none" d="M 250.305489 10.003922 Q 39.083499 157.376451, -6.113429 185.000000" stroke-width="0.500000" />
<path stroke="#897e79" stroke-opacity="0.501961" fill="none" d="M 261.665737 141.707104 Q 244.476666 169.195272, 214.482447 137.138887" stroke-width="0.500000" />
<path stroke="#ffffff" stroke-opacity="0.501961" fill="none" d="M -1.115679 93.969180 Q 138.254171 145.364170, 114.608962 -2.647550" stroke-width="0.500000" />
<path stroke="#ffffff" stroke-opacity="0.501961" fill="none" d="M -0.645328 39.291914 Q 175.594070 10.717207, 115.594274 184.006714" stroke-width="0.500000" />
<path stroke="#ffffff" stroke-opacity="0.501961" fill="none" d="M 125.951274 -1.731810 Q 4.139650 119.259729, 146.737099 171.110622" stroke-width="0.500000" />
<path stroke="#860000" stroke-opacity="0.501961" fill="none" d="M 129.442356 77.384245 Q 147.380042 80.311551, 141.857168 64.257584" stroke-width="0.500000" />
<path stroke="#ffffff" stroke-opacity="0.501961" fill="none" d="M -3.612553 48.329907 Q 145.508646 160.137601, 247.725786 49.170454" stroke-width="0.500000" />
<path stroke="#624f43" stroke-opacity="0.501961" fill="none" d="M 170.688509 69.137754 Q 143.081448 86.843634, 138.496074 88.252712" stroke-width="0.500000" />
<path stroke="#474846" stroke-opacity="0.501961" fill="none" d="M 201.154160 6.657933 Q 216.035615 12.740856, 218.934055 21.946411" stroke-width="0.500000" />
<path stroke="#ffffff" stroke-opacity="0.501961" fill="none" d="M -16.000000 13.058802 Q 48.415604 185.000000, 176.888525 49.758294" stroke-width="0.500000" />
<path stroke="#992f29" stroke-opacity="0.501961" fill="none" d="M 135.550351 95.799925 Q 134.642744 70.274260, 141.174118 65.594758" stroke-width="0.500000" />
<path stroke="#4c1d17" stroke-opacity="0.501961" fill="none" d="M 125.718491 47.710042 Q 140.415190 49.181656, 151.383192 54.216548" stroke-width="0.500000" />
<path stroke="#110a06" stroke-opacity="0.501961" fill="none" d="M 131.393931 49.369425 Q 140.167197 54.799661, 145.192472 46.513204" stroke-width="0.500000" />
<path stroke="#ffffff" stroke-opacity="0.501961" fill="none" d="M 10.391918 166.508341 Q 29.134891 2.545837, 149.257041 61.397432" stroke-width="0.500000" />
<path stroke="#d62916" stroke-opacity="0.501961" fill="none" d="M 210.715005 185.000000 Q 159.709039 120.579741, 166.036932 113.091905" stroke-width="0.500000" />
<path stroke="#6f7370" stroke-opacity="0.501961" fill="none" d="M 191.167529 21.225619 Q 153.294074 65.324587, 130.732220 42.518258" stroke-width="0.500000" />
<path stroke="#705e57" stroke-opacity="0.501961" fill="none" d="M 134.653445 95.693196 Q 165.819873 107.908529, 191.738722 69.012862" stroke-width="0.500000" />
<path stroke="#ffffff" stroke-opacity="0.501961" fill="none" d="M 126.725165 -0.048847 Q -16.000000 90.200635, 132.439510 170.519524" stroke-width="0.500000" />
<path stroke="#ff3b28" stroke-opacity="0.501961" fill="none" d="M 154.281601 131.071438 Q 143.043177 109.123248, 129.579745 64.285423" stroke-width="0.500000" />
<path stroke="#ffffff" stroke-opacity="0.501961" fill="none" d="M 151.104027 169.810945 Q 5.453780 116.876989, 130.134246 -3.550445" stroke-width="0.500000" />
<path stroke="#9a352a" stroke-opacity="0.501961" fill="none" d="M 150.755430 172.105230 Q 183.178516 162.441949, 185.019811 172.999922" stroke-width="0.500000" />
<path stroke="#ffffff" stroke-opacity="0.501961" fill="none" d="M 164.339072 172.773530 Q 10.006535 120.428133, 125.554599 3.571557" stroke-width="0.500000" />
<path stroke="#ffffff" stroke-opacity="0.501961" fill="none" d="M 113.329965 1.066434 Q 124.384493 145.675283, -4.690309 88.735169" stroke-width="0.500000" />
<path stroke="#ffffff" stroke-opacity="0.501961" fill="none" d="M -12.953105 -2.792938 Q 58.489677 184.393428, 203.433667 32.039684" stroke-width="0.500000" />
<path stroke="#ffffff" stroke-opacity="0.501961" fill="none" d="M 53.723623 171.482397 Q -16.000000 65.488558, 150.386507 30.814615" stroke-width="0.500000" />
<path stroke="#410100" stroke-opacity="0.501961" fill="none" d="M 179.061821 139.518541 Q 161.849186 141.375284, 156.546862 141.642317" stroke-width="0.500000" />
<path stroke="#790000" stroke-opacity="0.501961" fill="none" d="M 152.464111 19.582767 Q 141.333032 30.368063, 126.549152 19.309525" stroke-width="0.500000" />
<path stroke="#a10000" stroke-opacity="0.501961" fill="none" d="M 131.067091 13.708209 Q 140.953365 15.934235, 132.515524 28.777377" stroke-width="0.500000" />
<path stroke="#353534" stroke-opacity="0.501961" fill="none" d="M 219.703201 22.868888 Q 219.736946 18.304621, 202.982421 6.511189" stroke-width="0.500000" />
<path stroke="#c71002" stroke-opacity="0.501961" fill="none" d="M 155.869397 166.466294 Q 174.898447 179.965008, 179.044708 160.776977" stroke-width="0.500000" />
<path stroke="#ffffff" stroke-opacity="0.501961" fill="none" d="M -16.000000 152.453361 Q 156.297961 170.409129, 98.990226 -7.282088" stroke-width="0.500000" />
<path stroke="#ffffff" stroke-opacity="0.501961" fill="none" d="M -16.000000 71.322636 Q 94.724364 154.098887, 126.774351 0.719120" stroke-width="0.500000" />
<path stroke="#feffff" stroke-opacity="0.501961" fill="none" d="M 111.926131 182.097353 Q 174.340092 28.035150, -3.351479 39.927407" stroke-width="0.500000" />
<path stroke="#361112" stroke-opacity="0.501961" fill="none" d="M 130.092956 43.447490 Q 156.918927 47.540510, 151.999413 68.497950" stroke-width="0.500000" />
<path stroke="#ffffff" stroke-opacity="0.501961" fill="none" d="M 94.117549 -16.000000 Q 157.246389 166.461426, -16.000000 144.809500" stroke-width="0.500000" />
<path stroke="#070000" stroke-opacity="0.501961" fill="none" d="M 153.637993 140.013244 Q 156.680604 134.473115, 183.159284 146.342437" stroke-width="0.500000" />
<path stroke="#828688" stroke-opacity="0.501961" fill="none" d="M 254.427964 110.306113 Q 236.905317 159.038812, 225.464188 176.620726" stroke-width="0.500000" />
<path stroke="#feffff" stroke-opacity="0.501961" fill="none" d="M 4.404182 165.276512 Q 181.623921 147.630240, 87.970713 1.951674" stroke-width="0.500000" />
<path stroke="#5c1710" stroke-opacity="0.501961" fill="none" d="M 151.560075 54.684834 Q 148.698316 37.536585, 125.384850 43.172301" stroke-width="0.500000" />
<path stroke="#ffffff" stroke-opacity="0.501961" fill="none" d="M 126.397076 2.022027 Q 44.216927 99.321580, 152.327589 135.375570" stroke-width="0.500000" />
<path stroke="#ffffff" stroke-opacity="0.501961" fill="none" d="M 150.877360 79.112829 Q -1.890807 99.612205, 8.678084 20.237900" stroke-width="0.500000" />
<path stroke="#feffff" stroke-opacity="0.501961" fill="none" d="M 147.123842 39.877571 Q 64.365693 -16.000000, 6.040817 127.585570" stroke-width="0.500000" />
<path stroke="#feffff" stroke-opacity="0.501961" fill="none" d="M 97.753306 0.363991 Q 183.496676 162.042699, 9.408392 161.161790" stroke-width="0.500000" />
<path stroke="#5b554c" stroke-opacity="0.501961" fill="none" d="M 189.025260 109.685396 Q 201.432616 119.506253, 211.662182 119.320451" stroke-width="0.500000" />
<path stroke="#820000" stroke-opacity="0.501961" fill="none" d="M 150.488196 24.707382 Q 134.334220 32.527737, 127.915044 12.567812" stroke-width="0.500000" />
<path stroke="#650e0b" stroke-opacity="0.501961" fill="none" d="M 136.035692 126.282864 Q 146.966674 135.402755, 157.639642 119.732936" stroke-width="0.500000" />
<path stroke="#ffffff" stroke-opacity="0.501961" fill="none" d="M 153.584267 78.630480 Q 10.330768 113.344306, 1.761557 35.082603" stroke-width="0.500000" />
<path stroke="#feffff" stroke-opacity="0.501961" fill="none" d="M 271.000000 23.914445 Q 95.733347 185.000000, 23.597675 42.461866" stroke-width="0.500000" />
<path stroke="#c61b08" stroke-opacity="0.501961" fill="none" d="M 134.889492 117.281569 Q 142.286735 114.981056, 157.057248 117.703981" stroke-width="0.500000" />
<path stroke="#ffffff" stroke-opacity="0.501961" fill="none" d="M -11.196930 141.817929 Q 146.367370 158.273756, 92.899969 -10.090684" stroke-width="0.500000" />
<path stroke="#9e0700" stroke-opacity="0.501961" fill="none" d="M 132.948011 124.835117 Q 134.485416 126.155553, 154.717914 116.490031" stroke-width="0.500000" />
<path stroke="#feffff" stroke-opacity="0.501961" fill="none" d="M 123.234393 171.811408 Q -16.000000 87.373924, 123.447810 0.648763" stroke-width="0.500000" />
<path stroke="#fbffff" stroke-opacity="0.501961" fill="none" d="M 116.152597 170.555113 Q -16.000000 83.227897, 122.871496 -1.723096" stroke-width="0.500000" />
<path stroke="#3c0c08" stroke-opacity="0.501961" fill="none" d="M 142.983469 97.115820 Q 150.993849 87.223227, 160.976815 94.729805" stroke-width="0.500000" />
<path stroke="#a10400" stroke-opacity="0.501961" fill="none" d="M 124.845378 70.064693 Q 131.521209 72.385920, 144.940270 75.447731" stroke-width="0.500000" />
<path stroke="#788087" stroke-opacity="0.501961" fill="none" d="M 215.999773 22.759135 Q 228.576510 10.229523, 253.185490 -16.000000" stroke-width="0.500000" />
</g>
</svg>