<svg height="572" width="1024" xmlns="http://www.w3.org/2000/svg"><path d="m0 0h1024v572h-1024z" fill="#095367"/><g transform="matrix(4 0 0 4 2 2)"><g fill-opacity=".501961"><ellipse rx="1" ry="1" transform="matrix(69.86712231 -.21333058 .48345571 158.33482192 205.108696 76.11678)"/><ellipse fill="#14c6ea" rx="1" ry="1" transform="matrix(24.31727344 149.80842306 -79.81381699 12.95557601 54.155605 69.602057)"/><ellipse cx="213" cy="82" fill="#000006" rx="85" ry="85"/><path d="m115.61826 89.13409 23.51668 50.14016-11.847891-62.47 17.712935-48.169105z" fill="#e8d7ee"/><path d="m134.042189-2.981416-17.850506 28.204253 5.398558 23.67786 14.597831-51.904793z" fill="#d2ddf9"/><ellipse fill="#dad7f8" rx="1" ry="1" transform="matrix(6.27368192 -.64225509 1.55336989 15.17364174 134.668666 138.587522)"/><path d="m141.29143 49.72565-12.965192 21.00761-2.343119 33.793264-5.183113-47.957591z" fill="#c9d9f1"/><ellipse cx="163" cy="15" fill="#000e1c" rx="28" ry="94"/><ellipse cx="33" cy="68" fill="#008ea9" rx="89" ry="89"/><path d="m156.816323 26.405183-18.900594 100.522542-11.710752-39.749967 4.701332-23.053193z" fill="#0a304d"/><path d="m129.594264 16.921701 13.171864-32.921701-8.311135 6.697037-9.458919 29.213244z" fill="#dff7ff"/><path d="m114 72-1 86 21-19z" fill="#386d96"/><path d="m132.831263 110.52887-11.090647-25.621105 7.461215 31.933119 13.52226 41.159116z" fill="#edf8ff"/><path d="m119.257214 85.444218 4.730718-53.579575 15.483643 8.278005-16.250391 20.967276z" fill="#55769f"/><ellipse cx="129" cy="28" fill="#0f4570" rx="4" ry="13"/><ellipse fill="#007d98" rx="1" ry="1" transform="matrix(17.82709888 -23.2130205 26.62983834 20.45114126 67.313462 132.978262)"/><path d="m123 52h3v47h-3z" fill="#d8f1fa"/><ellipse cx="97" cy="1" fill="#097ca0" rx="33" ry="23"/><path d="m115 57h9v27h-9z" fill="#19729b"/><ellipse cx="133" cy="56" fill="#8dc3e8" rx="5" ry="5"/><path d="m-.5-.5h1v1h-1z" fill="#fffeff" transform="matrix(-1.39512947 -19.95128101 .99756405 -.06975647 122 42)"/><path d="m127 86h5v10h-5z" fill="#001d42"/><path d="m126 43 8-5-1 12z" fill="#8dbae0"/><ellipse fill="#000e18" rx="1" ry="1" transform="matrix(67.00191459 -105.60492473 52.44915758 33.27680016 226.586738 81.845386)"/><path d="m124 26h4v27h-4z" fill="#0d5276"/><path d="m124 99 8 22-33-9z" fill="#2a7ea0"/><path d="m132 87h2v23h-2z" fill="#437a99"/><path d="m129.036026 45.910972-5.790489 13.30393 16.452069-11.653093 2.74836-7.334004z" fill="#0e5379"/><ellipse fill="#0893b0" rx="1" ry="1" transform="matrix(-70.78133916 -54.5096659 19.99079423 -25.95824361 44.393451 45.507468)"/><path d="m117.984257 24.518285-1.619599-9.308691 11.578388 2.093386 1.655277 2.642454z" fill="#a7d3e9"/><ellipse cx="171" cy="29" fill="#00131e" rx="34" ry="94"/><path d="m126.573218-16-12.595225 47.417241 10.502393-5.39602-19.486066-3.660185z" fill="#2b9dbc"/><path d="m-.5-.5h1v1h-1z" fill="#fff" transform="matrix(9.06352285 29.64544743 -.95630476 .2923717 128 102)"/><path d="m144 94h2v12h-2z" fill="#426c89"/><path d="m126 62h2v22h-2z" fill="#fff"/><path d="m-.5-.5h1v1h-1z" fill="#e0f9ff" transform="matrix(3.38094609 7.2504623 -1.81261557 .84523652 139 136)"/><path d="m88 27h14v4h-14z" fill="#5dafd4"/><ellipse fill="#2a9cb6" rx="1" ry="1" transform="matrix(4.43126055 1.47324097 -7.10023526 21.35631104 110.631569 103.825797)"/><path d="m-.5-.5h1v1h-1z" fill="#f5fdff" transform="matrix(19.97558199 -39.20428706 1.78201305 .907981 135 0)"/><ellipse cx="121" cy="91" fill="#cbefff" rx="2" ry="7"/><path d="m136.942164 123.90234-24.546453 14.106253 15.852165.8556-2.786276-25.928393z" fill="#5b94b8"/><path d="m220.328091 139.849237-55.105277-43.638248-24.772319 44.305609-4.992487 17.483402z" fill="#000d11"/><ellipse fill="#006e8b" rx="1" ry="1" transform="matrix(-.63061015 -14.90796449 10.8965647 -.46092707 75.826718 140.051797)"/><path d="m120 125-2-27-20 60z" fill="#09728e"/><path d="m133 1h6v29h-6z" fill="#073862"/><path d="m135.375459 88.526937-3.107914 22.368849 10.992789 27.192412 1.343944-24.445051z" fill="#052c4a"/><path d="m-.5-.5h1v1h-1z" fill="#98b7d0" transform="matrix(.99756405 -.06975647 .76732121 10.97320455 131 17)"/><path d="m-.5-.5h1v1h-1z" fill="#bbd8ea" transform="matrix(.20905693 1.98904379 -6.96165327 .73169924 130 43)"/><path d="m-.5-.5h1v1h-1z" fill="#f4fbfb" transform="matrix(.95630476 -.2923717 13.74147012 44.94632353 130 107)"/><ellipse cx="120" cy="23" fill="#f5fdff" rx="2" ry="4"/><path d="m113 138h20v5h-20z" fill="#0a6588"/><path d="m135 130h4v13h-4z" fill="#b8e1ff"/><path d="m136 31h7v21h-7z" fill="#002a46"/><ellipse fill="#008da4" rx="1" ry="1" transform="matrix(-18.67801297 -28.47033553 44.44513818 -29.15830994 31.826706 122.769147)"/><path d="m158.551917 30.646779-21.095223 127.353221 133.543306-174-144.195411 33.603323z" fill="#00131e"/><path d="m146.132385 99.192439 13.642575 3.826164-25.063136 1.323828-9.096939-12.34929z" fill="#002a41"/><path d="m123.181515 21.385916-22.65832 57.640329-2.851969-95.026245 12.627709 115.993698z" fill="#1189a9"/><ellipse cx="133" cy="130" fill="#cae3f7" rx="4" ry="4"/><path d="m136 3h-5l6-7z" fill="#93c2ee"/><ellipse fill="#1399b7" rx="1" ry="1" transform="matrix(-5.94566219 -.59622664 3.70895483 -36.98625855 10.585723 30.251691)"/><path d="m-.5-.5h1v1h-1z" fill="#007897" transform="matrix(-35.62827285 15.86272908 -8.13473286 -18.27090915 77 0)"/><ellipse fill="#001625" rx="1" ry="1" transform="matrix(-4.23655389 -78.48894711 7.96377039 -.42985597 200.308382 51.74697)"/><path d="m117.805512 89.513891 4.608744 45.082487 6.804095-23.882802-16.202054-28.861168z" fill="#357da4"/><path d="m119 54-5-27 9 17z" fill="#2f92b5"/><path d="m-.5-.5h1v1h-1z" fill="#fff" transform="matrix(-8.72657316 -15.74315473 .87461971 -.48480962 124 95)"/><path d="m-.5-.5h1v1h-1z" fill="#fff" transform="matrix(-2.28970794 11.7795262 -.98162718 -.190809 126 81)"/><path d="m214.8476 29.574584-75.157007-29.843637-7.600167 6.6208 37.924343-17.398411z" fill="#01101b"/><path d="m-.5-.5h1v1h-1z" fill="#65a1c8" transform="matrix(-.82903757 .5591929 -11.74305097 -17.40978902 130 34)"/><path d="m-.5-.5h1v1h-1z" fill="#024368" transform="matrix(-2.60454524 -7.5641486 9.45518576 -3.25568154 129 32)"/><ellipse cx="122" cy="37" fill="#eef7fb" rx="2" ry="5"/><ellipse fill="#55819a" rx="1" ry="1" transform="matrix(-.83215278 .55454643 -.88801461 -1.33255537 142.308793 60.600182)"/><ellipse fill="#7bafd2" rx="1" ry="1" transform="matrix(-4.05785704 -1.58962585 .76385192 -1.949894 130.407707 45.372677)"/><path d="m119 89 3-25 3 12z" fill="#61a9cf"/><path d="m114.644486 100.483546-2.402557-14.597212 4.428147-48.359606 6.388698 17.108281z" fill="#0d7c9c"/><path d="m127 20h3v8h-3z" fill="#003a60"/><path d="m-.5-.5h1v1h-1z" fill="#266a94" transform="matrix(-.95630476 .2923717 -3.21608875 -10.51935232 134 114)"/><path d="m170 158-11-65-21 34z" fill="#03161f"/><ellipse cx="105" cy="6" fill="#007f9c" rx="17" ry="5"/><path d="m128.924432 50.353259 11.234747 3.426255-4.648569-7.183293-12.105127 17.074727z" fill="#2f7298"/><path d="m-.5-.5h1v1h-1z" fill="#2dacc0" transform="matrix(-2.83655573 -.97670446 9.76704463 -28.36555727 105 120)"/><path d="m139.007242 59.839699-10.81189 9.096017.949404 5.408887 9.891918-22.723022z" fill="#236287"/><path d="m133 120h4v13h-4z" fill="#cce2f1"/><ellipse cx="126" cy="135" fill="#5ca0c3" rx="11" ry="2"/></g><path d="m120.267414 89.854168q1.749332 9.647934 15.12063 14.048399" fill="none" stroke="#d0e5ee" stroke-opacity=".501961" stroke-width=".5"/><path d="m63 86-12-76-18 52z" fill="#008ba7" fill-opacity=".501961"/><path d="m-.5-.5h1v1h-1z" fill="#e8f9ff" fill-opacity=".501961" transform="matrix(-8.80332841 -1.87120522 .20791169 -.9781476 133 56)"/><path d="m136 82h8v16h-8z" fill="#000f20" fill-opacity=".501961"/><path d="m103.776515 21.254525-3.059551 37.47577-6.402129-2.192063 21.008982-17.189804z" fill="#027a9e" fill-opacity=".501961"/><path d="m116.088569 20.226609-11.876017-4.461255 7.411706-7.206661 15.532718 7.20696z" fill="#309cbc" fill-opacity=".501961"/><path d="m134.334957 120.004613-6.948679 18.772934 10.294583 17.462223-18.537612-41.144504z" fill="#4183a9" fill-opacity=".501961"/><ellipse cx="255" cy="57" fill="#000d13" fill-opacity=".501961" rx="16" ry="239"/><path d="m128 7-6 7-1-6z" fill="#055e85" fill-opacity=".501961"/><path d="m-.5-.5h1v1h-1z" fill="#1d6489" fill-opacity=".501961" transform="matrix(-.99756405 -.06975647 1.95318126 -27.93179341 130 29)"/><path d="m138.390166 53.825902-2.458512-6.276237-4.653687-9.909919 5.312787 18.271851z" fill="#2a6b91" fill-opacity=".501961"/><ellipse cx="151" cy="64" fill="#0c2330" fill-opacity=".501961" rx="3" ry="26"/><ellipse fill="#72badc" fill-opacity=".501961" rx="1" ry="1" transform="matrix(-.7949239 -.60670916 3.96037046 -5.18896589 120.075871 89.443981)"/><path d="m123.235536 51.02382q4.176983 19.004825 1.570398 22.600766" fill="none" stroke="#e0f2ff" stroke-opacity=".501961" stroke-width=".5"/><ellipse fill="#0496ae" fill-opacity=".501961" rx="1" ry="1" transform="matrix(15.17125682 35.79445998 -10.07516761 4.27029645 23.881137 75.408688)"/><path d="m125 51h3v8h-3z" fill="#00577e" fill-opacity=".501961"/><ellipse cx="132" cy="89" fill="#a7c5d1" fill-opacity=".501961" rx="2" ry="2"/><path d="m125 58h4v21h-4z" fill="#c3dbee" fill-opacity=".501961"/><path d="m-.5-.5h1v1h-1z" fill="#002647" fill-opacity=".501961" transform="matrix(7.99348332 -27.87658918 .9612617 .27563736 133 82)"/><ellipse cx="91" cy="27" fill="#61b3d8" fill-opacity=".501961" rx="3" ry="3"/><path d="m-.5-.5h1v1h-1z" fill="#6a9cb9" fill-opacity=".501961" transform="matrix(-1.4386796 -1.38931674 .69465837 -.7193398 145 105)"/><path d="m130 68-2 12 10 9z" fill="#003c60" fill-opacity=".501961"/><path d="m135.197649 110.066949 55.475204-38.424035 13.151618 76.838767-58.279942-51.762468z" fill="#000e15" fill-opacity=".501961"/><path d="m130.926769 62.683522q-7.781432 13.532672 11.620185 56.409032" fill="none" stroke="#1c5373" stroke-opacity=".501961" stroke-width=".5"/><ellipse fill="#203d4d" fill-opacity=".501961" rx="1" ry="1" transform="matrix(-.80481122 -.59353087 4.14718242 -5.62346309 149.767908 48.038783)"/><path d="m-.5-.5h1v1h-1z" fill="#22516b" fill-opacity=".501961" transform="matrix(.8480481 .52991926 -3.17951559 5.08828858 153 107)"/><path d="m-.5-.5h1v1h-1z" fill="#004a6e" fill-opacity=".501961" transform="matrix(.96592583 .25881905 -5.43519995 20.28444235 128 25)"/><path d="m141.908923 24.138417-16.599755-.352129 11.481796 16.010859-4.546481-27.591018z" fill="#04385c" fill-opacity=".501961"/><path d="m125.819055 87.49661q16.68046 16.325116 90.892363 49.860215" fill="none" stroke="#00131e" stroke-opacity=".501961" stroke-width=".5"/><path d="m-.5-.5h1v1h-1z" fill="#a2c5e8" fill-opacity=".501961" transform="matrix(.8660254 -.5 4 6.92820323 128 115)"/><path d="m-.5-.5h1v1h-1z" fill="#5c9cd4" fill-opacity=".501961" transform="matrix(.57357644 .81915204 -4.91491227 3.44145862 131 1)"/><path d="m-.5-.5h1v1h-1z" fill="#18a0be" fill-opacity=".501961" transform="matrix(-2.94488155 -.57242699 5.53346087 -28.46718832 37 13)"/><ellipse cx="129" cy="88" fill="#003757" fill-opacity=".501961" rx="3" ry="3"/><path d="m126.372503 95.763558 18.772832 13.297288-17.325615-23.997566 7.530536-19.20156z" fill="#043e5c" fill-opacity=".501961"/><ellipse cx="122" cy="21" fill="#f6fbff" fill-opacity=".501961" rx="2" ry="2"/><path d="m116 97 10 9 1 13z" fill="#1d6d91" fill-opacity=".501961"/><path d="m105 50h6v14h-6z" fill="#1ea0bd" fill-opacity=".501961"/><path d="m126 13h2v6h-2z" fill="#f2ffff" fill-opacity=".501961"/><path d="m-.5-.5h1v1h-1z" fill="#fff" fill-opacity=".501961" transform="matrix(-.97437006 -.22495105 2.24951054 -9.74370065 131 10)"/><ellipse fill="#045074" fill-opacity=".501961" rx="1" ry="1" transform="matrix(-.96098654 .27659515 -1.56845877 -5.44936449 118.893151 119.128615)"/><path d="m131 120-24-2 17 14z" fill="#227798" fill-opacity=".501961"/><path d="m-.5-.5h1v1h-1z" fill="#2f7ea1" fill-opacity=".501961" transform="matrix(20.9667642 13.61597588 -.54463904 .83867057 123 29)"/><path d="m123 43 4 10v-6z" fill="#005477" fill-opacity=".501961"/><path d="m113.271628 33.055181-5.786102-20.959966-61.318612 2.092929 47.007862 12.19959z" fill="#0686a4" fill-opacity=".501961"/><path d="m26 0h10v17h-10z" fill="#0381a0" fill-opacity=".501961"/><path d="m-.5-.5h1v1h-1z" fill="#03557d" fill-opacity=".501961" transform="matrix(3.89748026 .89980422 -.22495105 .97437006 132 135)"/><path d="m133 77h6l4-3z" fill="#244b63" fill-opacity=".501961"/><path d="m125.736049 150.400824 14.26077-15.67094-1.577791 21.358659-6.251343-14.265835z" fill="#aaceef" fill-opacity=".501961"/><path d="m140.437923 84.819726 50.158139-54.645623-41.85121 21.015242 28.141761 27.293575z" fill="#000f17" fill-opacity=".501961"/><path d="m-.5-.5h1v1h-1z" fill="#e0eeff" fill-opacity=".501961" transform="matrix(1.07510385 -2.80074128 2.80074128 1.07510385 124 26)"/><ellipse fill="#0d839d" fill-opacity=".501961" rx="1" ry="1" transform="matrix(4.42992563 .01003867 -.05592592 24.67932063 112.385835 136.435332)"/><path d="m15.524841 135.667302 10.871611 1.929576-42.396452 17.726579 33.635908-32.460464z" fill="#008499" fill-opacity=".501961"/><ellipse fill="#068aa7" fill-opacity=".501961" rx="1" ry="1" transform="matrix(1.48568165 -13.00470962 19.94452598 2.27849887 87.287076 106.041787)"/><path d="m101 51-25 1 20-28z" fill="#0989aa" fill-opacity=".501961"/><path d="m127.569728 66.192816q-8.515997-22.518908-5.263955-31.145058" fill="none" stroke="#c0def0" stroke-opacity=".501961" stroke-width=".5"/><path d="m133 57h2v5h-2z" fill="#488fbc" fill-opacity=".501961"/><ellipse cx="131" cy="20" fill="#aacee5" fill-opacity=".501961" rx="1" ry="1"/><path d="m149 57h1v5h-1z" fill="#507388" fill-opacity=".501961"/><ellipse cx="137" cy="52" fill="#a6cbe3" fill-opacity=".501961" rx="1" ry="1"/><path d="m141 116h3v3h-3z" fill="#477190" fill-opacity=".501961"/><path d="m133 20-2-7v5z" fill="#004671" fill-opacity=".501961"/><path d="m-.5-.5h1v1h-1z" fill="#000f16" fill-opacity=".501961" transform="matrix(18.59520352 -39.87754263 .90630779 .42261826 151 97)"/><path d="m142.040323-8.720118-11.520577 13.946524-8.916877 18.076521 5.555686-9.878764z" fill="#b6daf2" fill-opacity=".501961"/><path d="m150.034434 88.285079 23.887926 24.191421 17.584635 36.782729-13.615937 8.740771z" fill="#000a0e" fill-opacity=".501961"/><ellipse cx="133" cy="41" fill="#c1e6ff" fill-opacity=".501961" rx="1" ry="1"/><ellipse fill="#def4f8" fill-opacity=".501961" rx="1" ry="1" transform="matrix(1.92416224 2.26702515 -1.22154713 1.03680141 125.51397 83.297404)"/><path d="m158.742497 105.438783-34.541145-18.439654 29.161806 21.763857 5.6396 27.957027z" fill="#052030" fill-opacity=".501961"/><ellipse cx="112" cy="14" fill="#61bddb" fill-opacity=".501961" rx="2" ry="2"/><ellipse cx="129" cy="43" fill="#b3d4e6" fill-opacity=".501961" rx="2" ry="2"/><path d="m118 81 2-20-6-2z" fill="#006e8f" fill-opacity=".501961"/><path d="m118.845207 43.254883q6.623484 4.947611 6.197126 29.497461" fill="none" stroke="#bbdef0" stroke-opacity=".501961" stroke-width=".5"/><path d="m124.234114 98.654606q14.757768 27.087281 3.527612 32.550759" fill="none" stroke="#afd2ea" stroke-opacity=".501961" stroke-width=".5"/><path d="m133.226913 80.301252 10.084616 31.617003-3.8756-55.390268 4.677321 37.55269z" fill="#00182a" fill-opacity=".501961"/><path d="m137.413842 37.556192 8.18047 2.180864-11.301686-33.56069 7.706249-16.128455z" fill="#042741" fill-opacity=".501961"/><path d="m132.480438 47.521848q4.691312 14.792879-1.853683 15.538935" fill="none" stroke="#5f9ec9" stroke-opacity=".501961" stroke-width=".5"/><ellipse cy="15" fill="#108fad" fill-opacity=".501961" rx="9" ry="66"/><path d="m128 129 3-1-8-4z" fill="#5b99be" fill-opacity=".501961"/><path d="m124.942832 92.031933q7.881803 13.2626 3.771469 18.866004" fill="none" stroke="#e9f2f5" stroke-opacity=".501961" stroke-width=".5"/><path d="m126.018201 69.34182 2.863551 4.405023-9.050639-30.577975 4.093391 6.368587z" fill="#b2d5e6" fill-opacity=".501961"/><path d="m-.5-.5h1v1h-1z" fill="#588cab" fill-opacity=".501961" transform="matrix(-.93358043 -.35836795 .7167359 -1.86716085 161 142)"/><path d="m-.5-.5h1v1h-1z" fill="#23688b" fill-opacity=".501961" transform="matrix(8.40222384 -3.22531155 .35836795 .93358043 127 32)"/><path d="m-.5-.5h1v1h-1z" fill="#fff" fill-opacity=".501961" transform="matrix(5.16418719 9.71242352 -.88294759 .46947156 124 96)"/><ellipse cx="132" cy="103" fill="#a2d6ea" fill-opacity=".501961" rx="1" ry="1"/><ellipse cx="135" cy="27" fill="#327491" fill-opacity=".501961" rx="2" ry="2"/><path d="m-.5-.5h1v1h-1z" fill="#07567c" fill-opacity=".501961" transform="matrix(.9945219 -.10452846 1.88151234 17.90139412 118 113)"/><path d="m-.5-.5h1v1h-1z" fill="#3d6172" fill-opacity=".501961" transform="matrix(-3.10858385 2.51728156 -.62932039 -.77714596 141 48)"/><path d="m123.848086 19.428791q-2.634229.668434-2.781536 24.591773" fill="none" stroke="#88bcd9" stroke-opacity=".501961" stroke-width=".5"/><path d="m-.5-.5h1v1h-1z" fill="#24526a" fill-opacity=".501961" transform="matrix(.75470958 -.65605903 2.62423612 3.01883832 150 127)"/><ellipse cx="126" cy="142" fill="#0d567a" fill-opacity=".501961" rx="4" ry="4"/><path d="m99 29h3v3h-3z" fill="#66b3d6" fill-opacity=".501961"/><path d="m102.522262 147.749296-43.638839-39.236925 37.697844 1.103623 1.197488-.572841z" fill="#02839f" fill-opacity=".501961"/><path d="m-.5-.5h1v1h-1z" fill="#86b2d4" fill-opacity=".501961" transform="matrix(-.43577871 -4.98097349 .9961947 -.08715574 132 11)"/><path d="m125 37h7v3h-7z" fill="#004a6d" fill-opacity=".501961"/><ellipse cx="151" cy="70" fill="#40718f" fill-opacity=".501961" rx="1" ry="1"/><ellipse cx="196" cy="42" fill="#001c2e" fill-opacity=".501961" rx="3" ry="23"/><ellipse cx="128" cy="12" fill="#fff" fill-opacity=".501961" rx="2" ry="2"/><path d="m-.5-.5h1v1h-1z" fill="#a4c9e2" fill-opacity=".501961" transform="matrix(-.38389446 -10.9932991 .99939083 -.0348995 121 31)"/><path d="m99 43v-6l-7-2z" fill="#2998bc" fill-opacity=".501961"/><path d="m138 66h1l-2 1z" fill="#cdebf9" fill-opacity=".501961"/><path d="m-.5-.5h1v1h-1z" fill="#0b9ab6" fill-opacity=".501961" transform="matrix(-6.76148078 -1.81173332 8.54102849 -31.87555227 72 60)"/><path d="m143.868583 80.436081 19.621526-26.596168-31.842078 19.771802 4.742191-5.934022z" fill="#001421" fill-opacity=".501961"/><ellipse cx="130" cy="60" fill="#cae5fc" fill-opacity=".501961" rx="2" ry="2"/><path d="m169.83721 93.938576q-27.287799-54.293858-40.173304-49.857241" fill="none" stroke="#051f2f" stroke-opacity=".501961" stroke-width=".5"/><path d="m126.24488-6.449385q34.160763 16.017106 2.330152 87.987475" fill="none" stroke="#093049" stroke-opacity=".501961" stroke-width=".5"/><ellipse cx="154" cy="25" fill="#54788a" fill-opacity=".501961" rx="1" ry="1"/><path d="m-.5-.5h1v1h-1z" fill="#001728" fill-opacity=".501961" transform="matrix(-26 0 0 -2 144 34)"/><path d="m139 113h26v4h-26z" fill="#00121b" fill-opacity=".501961"/><path d="m112.188855 58.705131q18.601676-53.497532 16.598442-60.369877" fill="none" stroke="#308db1" stroke-opacity=".501961" stroke-width=".5"/><path d="m125.464521 87.784993 12.060543 20.926495-10.028687-26.355293 3.769298-.433785z" fill="#054768" fill-opacity=".501961"/><path d="m116 92-5 3 5 15z" fill="#2c94b1" fill-opacity=".501961"/><ellipse cx="142" cy="37" fill="#4f7891" fill-opacity=".501961" rx="1" ry="1"/><path d="m-.5-.5h1v1h-1z" fill="#4c8cb2" fill-opacity=".501961" transform="matrix(7.82870065 11.60652602 -1.65807515 1.11838581 124 118)"/><path d="m-.5-.5h1v1h-1z" fill="#fff" fill-opacity=".501961" transform="matrix(-.8660254 -.5 5 -8.66025404 131 7)"/><path d="m116.661033 35.684697q3.505389-17.022849 16.214039-14.023545" fill="none" stroke="#67aecd" stroke-opacity=".501961" stroke-width=".5"/><ellipse fill="#011421" fill-opacity=".501961" rx="1" ry="1" transform="matrix(-2.66032634 -2.66437145 19.95865418 -19.92835244 155.425539 30.40679)"/><path d="m116 0h5v1h-5z" fill="#56b6d9" fill-opacity=".501961"/><path d="m130.188079 9.236761q-10.582979 9.030028-14.303254 3.567185" fill="none" stroke="#5aa6c5" stroke-opacity=".501961" stroke-width=".5"/><ellipse cx="126" cy="97" fill="#fff" fill-opacity=".501961" rx="2" ry="2"/><path d="m122 131h5v3h-5z" fill="#16678a" fill-opacity=".501961"/><path d="m4 21 33-37-18 1z" fill="#189cbb" fill-opacity=".501961"/><path d="m-.5-.5h1v1h-1z" fill="#fdfefb" fill-opacity=".501961" transform="matrix(.92718385 -.37460659 4.12067253 10.1990224 129 102)"/><path d="m124 37-4 2 1-5z" fill="#d8edf6" fill-opacity=".501961"/><path d="m141.235218 134.1115q-10.090488-16.069809-.70758-24.995944" fill="none" stroke="#275371" stroke-opacity=".501961" stroke-width=".5"/><path d="m117 134h2v4h-2z" fill="#70bedd" fill-opacity=".501961"/><path d="m120.132047 39.131976-3.956883 26.99611 9.07161 12.099152-14.542972-31.382128z" fill="#0e84a5" fill-opacity=".501961"/><path d="m138.440443 14.425808-10.222889 14.60888 5.774841-.436627 4.587959-6.846965z" fill="#003453" fill-opacity=".501961"/><path d="m-.5-.5h1v1h-1z" fill="#2d92b0" fill-opacity=".501961" transform="matrix(9.35494279 21.01154553 -.91354546 .40673664 114 118)"/><path d="m114.608037 33.670286-14.78255-8.350635 21.958667-11.342808-9.754853 10.666246z" fill="#1389a9" fill-opacity=".501961"/><path d="m139.951509 84.240855-5.264372-11.199851 5.405913-20.10737-11.62894 33.299469z" fill="#002f4c" fill-opacity=".501961"/><path d="m134.94977 55.419433q-2.290381-35.995289-22.381939-29.078968" fill="none" stroke="#478eb3" stroke-opacity=".501961" stroke-width=".5"/><path d="m133 89 1-2h-1z" fill="#f4fafc" fill-opacity=".501961"/><ellipse cx="135" cy="93" fill="#002d4d" fill-opacity=".501961" rx="2" ry="11"/><path d="m-.5-.5h1v1h-1z" fill="#004c71" fill-opacity=".501961" transform="matrix(7.16735899 -18.67160853 1.86716085 .7167359 126 0)"/><path d="m-.5-.5h1v1h-1z" fill="#3d6a80" fill-opacity=".501961" transform="matrix(-.58778525 -.80901699 1.61803399 -1.1755705 142 54)"/><ellipse cx="131" cy="102" fill="#9ec8e0" fill-opacity=".501961" rx="1" ry="1"/><path d="m202 11h25v90h-25z" fill="#00141f" fill-opacity=".501961"/><ellipse cx="125" cy="72" fill="#c5e6f7" fill-opacity=".501961" rx="2" ry="2"/><path d="m115.934212 64.075155-6.950219 7.766909-25.935139 42.19473 28.258865-11.275299z" fill="#0d8eaa" fill-opacity=".501961"/><path d="m54.871275 65.322446-1.814055 22.383701-1.148768-26.871425-67.908452 35.052896z" fill="#0799b3" fill-opacity=".501961"/><path d="m101 1h4v29h-4z" fill="#007998" fill-opacity=".501961"/><path d="m129.856381 97.979254q18.042914 54.955802 15.041455 60.020746" fill="none" stroke="#154a69" stroke-opacity=".501961" stroke-width=".5"/><path d="m-.5-.5h1v1h-1z" fill="#1e4659" fill-opacity=".501961" transform="matrix(-.88294759 -.46947156 1.87788625 -3.53179037 152 85)"/><path d="m-.5-.5h1v1h-1z" fill="#b9d2e1" fill-opacity=".501961" transform="matrix(3.39219238 -2.11967706 .52991926 .8480481 131 22)"/><path d="m146.238519 128.828824 20.213235-3.990412-24.178435 11.223609-5.392361-14.097774z" fill="#021928" fill-opacity=".501961"/><path d="m184-16-31 44 38 103z" fill="#00101a" fill-opacity=".501961"/><ellipse fill="#010f19" fill-opacity=".501961" rx="1" ry="1" transform="matrix(-.99779072 -.06643551 3.18146065 -47.78215615 148.339928 20.950023)"/><path d="m18.104463 62.962046-2.792325 13.303386 3.675693 12.280056 13.961261-61.752544z" fill="#028ca6" fill-opacity=".501961"/><path d="m119.122855 50.199712 2.931269-18.956007-4.576915 14.489682-2.785949-35.215211z" fill="#329fbc" fill-opacity=".501961"/><path d="m127.02148 25.680026q18.478545-9.901052 20.636369-8.425479" fill="none" stroke="#0a324d" stroke-opacity=".501961" stroke-width=".5"/><ellipse cx="128" cy="120" fill="#0e5d81" fill-opacity=".501961" rx="2" ry="2"/><ellipse cx="130" cy="66" fill="#86c2f3" fill-opacity=".501961" rx="1" ry="1"/><path d="m138.601518 139.442801q-18.982797-4.445043-19.005975-68.542941" fill="none" stroke="#3e89ae" stroke-opacity=".501961" stroke-width=".5"/><ellipse cx="124" cy="59" fill="#a1cee6" fill-opacity=".501961" rx="1" ry="9"/><path d="m-.5-.5h1v1h-1z" fill="#2a7698" fill-opacity=".501961" transform="matrix(11.93426274 1.25434156 -.10452846 .9945219 124 132)"/><path d="m-.5-.5h1v1h-1z" fill="#00192c" fill-opacity=".501961" transform="matrix(.95105652 -.30901699 3.70820393 11.4126782 140 50)"/><path d="m139.352385 37.226754-2.910633-6.212492 9.876808 7.256145 23.016713-54.270407z" fill="#00101b" fill-opacity=".501961"/><path d="m-.5-.5h1v1h-1z" fill="#0b8ca9" fill-opacity=".501961" transform="matrix(26.26694182 43.71553234 -12.00034221 7.21053305 61 23)"/><path d="m-.5-.5h1v1h-1z" fill="#649cc6" fill-opacity=".501961" transform="matrix(-3.00907512 -3.99317755 1.59727102 -1.20363005 133 52)"/><path d="m116 11h-4l3 2z" fill="#62bbdb" fill-opacity=".501961"/><path d="m150 158-3-33 20 33z" fill="#00090d" fill-opacity=".501961"/><path d="m-.5-.5h1v1h-1z" fill="#2c5b74" fill-opacity=".501961" transform="matrix(-3.10858385 -2.51728156 .62932039 -.77714596 139 43)"/><path d="m74.776532 51.162652 35.309215.3044-18.419068-12.914045 6.3422-.165508z" fill="#0288a6" fill-opacity=".501961"/><path d="m108.403508 62.387496-31.52818 42.575136-6.568987 5.597745-10.943429-49.347822z" fill="#0391ad" fill-opacity=".501961"/><path d="m155 87h3v4h-3z" fill="#173442" fill-opacity=".501961"/><path d="m149.71268 72.345259 8.040811 36.03151-2.529115-18.87775 20.303284-18.206174z" fill="#000e15" fill-opacity=".501961"/><ellipse cx="142" cy="60" fill="#84afc6" fill-opacity=".501961" rx="1" ry="1"/><path d="m8 28h2v2h-2z" fill="#69c1e3" fill-opacity=".501961"/><path d="m-.5-.5h1v1h-1z" fill="#fff" fill-opacity=".501961" transform="matrix(-.99254615 -.12186934 .97495475 -7.94036921 127 73)"/><ellipse fill="#05567a" fill-opacity=".501961" rx="1" ry="1" transform="matrix(-4.70597311 .25781562 -.05470273 -.99850268 128.11179 49.168935)"/><path d="m123 108h3v8h-3z" fill="#126486" fill-opacity=".501961"/><path d="m-.5-.5h1v1h-1z" fill="#fff" fill-opacity=".501961" transform="matrix(-1.25864078 1.55429192 -.77714596 -.62932039 132 56)"/><ellipse fill="#001727" fill-opacity=".501961" rx="1" ry="1" transform="matrix(-10.25240592 56.8893314 -.98414612 -.17735954 145.863188 51.802732)"/><path d="m-.5-.5h1v1h-1z" fill="#3e91c2" fill-opacity=".501961" transform="matrix(3.52671151 -4.85410197 .80901699 .58778525 132 63)"/><path d="m122.51673 59.839889-11.480182-.556607 3.949609 9.515116 9.905816-8.03591z" fill="#087a9b" fill-opacity=".501961"/><path d="m172 85-11-13 10 33z" fill="#001626" fill-opacity=".501961"/><path d="m95.147201 54.276378-4.639007-5.90961-2.445326 13.654114 7.391733 13.79076z" fill="#0b97b6" fill-opacity=".501961"/><path d="m-.5-.5h1v1h-1z" fill="#02587e" fill-opacity=".501961" transform="matrix(1.65382413 5.76757018 -3.84504678 1.10254942 131 71)"/><path d="m142.4718 63.974323q-14.114-28.857727-13.891776-46.870242" fill="none" stroke="#1b5677" stroke-opacity=".501961" stroke-width=".5"/><path d="m-.5-.5h1v1h-1z" fill="#002b4e" fill-opacity=".501961" transform="matrix(-8.52876738 9.81122454 -.75470958 -.65605903 135 64)"/><path d="m-.5-.5h1v1h-1z" fill="#0382a2" fill-opacity=".501961" transform="matrix(-.35836795 .93358043 -38.27679749 -14.69308593 93 32)"/><ellipse cx="129" cy="43" fill="#d5eeff" fill-opacity=".501961" rx="1" ry="1"/><path d="m104.537161 3.019311-45.546336 26.364236 28.319344-30.296719-19.628797 41.655191z" fill="#0388a5" fill-opacity=".501961"/><path d="m125 114h2v4h-2z" fill="#5590b6" fill-opacity=".501961"/><path d="m-.5-.5h1v1h-1z" fill="#003251" fill-opacity=".501961" transform="matrix(3.80356436 -8.15677008 4.53153894 2.11309131 137 108)"/><ellipse cx="143" cy="112" fill="#011b2d" fill-opacity=".501961" rx="1" ry="56"/><path d="m8.633985 54.301012 23.310465-34.300716 19.323932-13.893068.521205 1.045872z" fill="#0e99b5" fill-opacity=".501961"/><path d="m132 131h7v2h-7z" fill="#e6f3fb" fill-opacity=".501961"/><path d="m62 137h23v6h-23z" fill="#00718e" fill-opacity=".501961"/><path d="m110.742455 70.794388 9.251759-31.732795-22.806285 11.43034 17.254929-19.740654z" fill="#0384a4" fill-opacity=".501961"/><path d="m-.5-.5h1v1h-1z" fill="#daebf1" fill-opacity=".501961" transform="matrix(-2.78155156 1.12381978 -1.12381978 -2.78155156 133 89)"/><path d="m129.704783 62.879562q5.98691 8.082796 4.559761 28.314922" fill="none" stroke="#134e6f" stroke-opacity=".501961" stroke-width=".5"/><path d="m121.111749 21.699001q16.372148-18.525596 17.675698-37.699001" fill="none" stroke="#d0e7f6" stroke-opacity=".501961" stroke-width=".5"/><ellipse cx="132" cy="45" fill="#07507b" fill-opacity=".501961" rx="1" ry="1"/><path d="m126.99627 82.970016q2.662983-8.668536 3.249062-16.318836" fill="none" stroke="#5a8faa" stroke-opacity=".501961" stroke-width=".5"/><path d="m157.016605 126.465122-10.77253-3.183355 2.208961-5.440012.105852-13.40021z" fill="#000b0f" fill-opacity=".501961"/><path d="m-.5-.5h1v1h-1z" fill="#83a8bd" fill-opacity=".501961" transform="matrix(-.62373507 2.9344428 -.9781476 -.20791169 136 26)"/><path d="m-.5-.5h1v1h-1z" fill="#9bc5e0" fill-opacity=".501961" transform="matrix(0 1 -5 0 126 135)"/><ellipse cx="127" cy="53" fill="#01597d" fill-opacity=".501961" rx="2" ry="2"/><path d="m132.446589 7.051495q33.696999-7.930722 42.800069-23.051495" fill="none" stroke="#08273b" stroke-opacity=".501961" stroke-width=".5"/><path d="m125 28 1-11h-3z" fill="#90bbe2" fill-opacity=".501961"/><path d="m22.918328 89.598833 32.68604-21.605852-3.939015 32.199311-23.407582-51.156124z" fill="#0395b0" fill-opacity=".501961"/><path d="m-.5-.5h1v1h-1z" fill="#c1dbf3" fill-opacity=".501961" transform="matrix(3.9902562 .27902589 -.34878237 4.98782025 138 136)"/><path d="m38 45-16 11 15-28z" fill="#0c98b5" fill-opacity=".501961"/><path d="m-.5-.5h1v1h-1z" fill="#001522" fill-opacity=".501961" transform="matrix(-.99026807 -.1391731 7.09782815 -50.50367151 142 100)"/><path d="m103 118h3v25h-3z" fill="#1797ad" fill-opacity=".501961"/><path d="m-.5-.5h1v1h-1z" fill="#fff" fill-opacity=".501961" transform="matrix(-.98768834 .15643447 -.4693034 -2.96306502 122 32)"/><path d="m130.469555 67.131058q-5.89579.893645-7.286944-15.625114" fill="none" stroke="#c0e1f1" stroke-opacity=".501961" stroke-width=".5"/><path d="m119.757255 90.223865q19.281614 36.004236 15.068322 40.21516" fill="none" stroke="#d1e9f7" stroke-opacity=".501961" stroke-width=".5"/><path d="m139.026529 130.444898q-1.974752-29.265582-6.636797-56.93911" fill="none" stroke="#043350" stroke-opacity=".501961" stroke-width=".5"/><path d="m70 5 8 7 2-17z" fill="#007493" fill-opacity=".501961"/><ellipse cx="153" cy="114" fill="#23506c" fill-opacity=".501961" rx="1" ry="1"/><path d="m-.5-.5h1v1h-1z" fill="#f4ffff" fill-opacity=".501961" transform="matrix(-2.54414429 -1.58975779 2.64959632 -4.24024048 121 22)"/><ellipse cx="140" cy="28" fill="#00182b" fill-opacity=".501961" rx="1" ry="73"/><ellipse cx="129" cy="115" fill="#b5d6f5" fill-opacity=".501961" rx="1" ry="3"/><ellipse fill="#28799f" fill-opacity=".501961" rx="1" ry="1" transform="matrix(.97353598 2.60851882 -2.64704043 .98791279 121.193995 100.914135)"/><ellipse cx="132" cy="36" fill="#7aa9ce" fill-opacity=".501961" rx="1" ry="1"/><path d="m-.5-.5h1v1h-1z" fill="#4caac8" fill-opacity=".501961" transform="matrix(1.37818678 4.80630848 -.9612617 .27563736 115 103)"/></g></svg>