<svg height="628" width="1024" xmlns="http://www.w3.org/2000/svg"><path d="m0 0h1024v628h-1024z" fill="#c3b272"/><g transform="matrix(4 0 0 4 2 2)"><g fill-opacity=".501961"><ellipse fill="#ffd5ff" rx="1" ry="1" transform="matrix(87.96162343 -8.87379523 4.97534764 49.31820536 179.520915 14.669029)"/><ellipse cx="167" cy="156" fill="#877d00" rx="88" ry="88"/><ellipse fill="#fff" rx="1" ry="1" transform="matrix(-12.42238349 -26.67268996 50.77815357 -23.64912191 19.462862 22.923069)"/><ellipse fill="#7ac500" rx="1" ry="1" transform="matrix(-40.02539857 -1.94774844 3.02793416 -62.22275367 27.316214 111.930147)"/><ellipse cx="143" cy="85" fill="#d21e89" rx="71" ry="32"/><ellipse fill="#fff" rx="1" ry="1" transform="matrix(-5.87629825 13.93164984 -31.39769967 -13.24338825 81.67307 66.693794)"/><ellipse fill="#8fe200" rx="1" ry="1" transform="matrix(26.73201745 18.71601332 -125.50028565 179.25162631 208.484766 156)"/><ellipse fill="#fff3ff" rx="1" ry="1" transform="matrix(24.25231157 -21.96697354 13.82128168 15.2591812 199.200093 60.088058)"/><ellipse fill="#fff" rx="1" ry="1" transform="matrix(-23.58287128 -19.467319 33.33034254 -40.37665267 26.264872 11.534742)"/><ellipse cx="81" cy="143" fill="#97d800" rx="137" ry="22"/><ellipse fill="#fff" rx="1" ry="1" transform="matrix(-84.842453 -.75136749 .21727001 -24.53356194 202.824031 0)"/><ellipse fill="#811e1b" rx="1" ry="1" transform="matrix(-20.33297326 .78704611 -1.63853885 -42.33089569 149.683282 92.678317)"/><path d="m50 91 15 28 51-1z" fill="#ffa8ff"/><ellipse fill="#ff4fb8" rx="1" ry="1" transform="matrix(13.91368695 -13.7948634 36.39216935 36.70563725 110.240125 19.450732)"/><path d="m231 31h20v85h-20z" fill="#91c400"/><ellipse fill="#a2d82d" rx="1" ry="1" transform="matrix(-28.20995495 4.15394375 -.88776682 -6.02893625 203.534419 28.780061)"/><ellipse cx="101" cy="46" fill="#ffcdff" rx="8" ry="37"/><path d="m91 23 3 33-42-19z" fill="#8fe800"/><path d="m-.5-.5h1v1h-1z" fill="#ffcfff" transform="matrix(102.22534529 77.03232296 -13.23993051 17.56998122 176 42)"/><ellipse fill="#7a1510" rx="1" ry="1" transform="matrix(-20.91828679 13.61752224 -6.2193773 -9.55377312 189.384617 97.670579)"/><ellipse fill="#fff" rx="1" ry="1" transform="matrix(-10.534463 12.03736786 -39.91647315 -34.93277057 232.73329 5.793868)"/><ellipse fill="#ffebff" rx="1" ry="1" transform="matrix(16.84673871 5.99642772 -5.0928997 14.30831064 78.402641 69.300861)"/><ellipse fill="#d32f43" rx="1" ry="1" transform="matrix(-17.96341411 -10.63903857 6.75821671 -11.41086618 90.728445 97.851897)"/><ellipse fill="#fff" rx="1" ry="1" transform="matrix(16.88738562 16.90379531 -37.64750941 37.61096235 20.546717 21.489074)"/><path d="m195 23-9 20-7-24z" fill="#8bd100"/><path d="m-.5-.5h1v1h-1z" fill="#80b406" transform="matrix(27.77659079 42.77219897 -39.41751669 25.59803465 37 80)"/><path d="m52 107 13-18 32 35z" fill="#ffb7fd"/><ellipse fill="#cb2553" rx="1" ry="1" transform="matrix(-30.31583482 -.36640772 .15446234 -12.77990159 149.442268 67.630609)"/><ellipse fill="#0d2a1b" rx="1" ry="1" transform="matrix(-2.99310893 .09346905 -1.14272406 -36.59283581 149.026038 141.065179)"/><path d="m234 45-34-26-31 76z" fill="#ffe5ff"/><path d="m-.5-.5h1v1h-1z" fill="#ef4dab" transform="matrix(-7.9863551 -6.01815023 21.66534083 -28.75087836 221 78)"/><ellipse fill="#fff" rx="1" ry="1" transform="matrix(2.37210307 -15.15384431 89.79229474 14.05561343 178.625485 0)"/><path d="m-.5-.5h1v1h-1z" fill="#f455a0" transform="matrix(19.8630583 -42.59646599 23.56400246 10.98807481 122 46)"/><ellipse fill="#a1c513" rx="1" ry="1" transform="matrix(96.61617735 41.4898615 -9.81685033 22.86020049 58.496729 139.686448)"/><path d="m186 169 68-97-105 60z" fill="#a6d119"/><ellipse fill="#ffcdff" rx="1" ry="1" transform="matrix(-9.26132381 11.20165745 -18.82993046 -15.56823926 73.214458 65.454844)"/><ellipse fill="#a7bf03" rx="1" ry="1" transform="matrix(-25.82718584 -20.09465552 3.10057797 -3.98509958 241.855707 40.606699)"/><ellipse fill="#ffd5c7" rx="1" ry="1" transform="matrix(22.49931546 -2.64639631 .43797637 3.72361783 100.155443 119.220079)"/><ellipse cx="77" cy="17" fill="#a8717e" rx="22" ry="9"/><ellipse fill="#abde18" rx="1" ry="1" transform="matrix(-19.5263806 -2.71934995 4.23894473 -30.43788023 123.780472 143.709009)"/><path d="m135 119v-26l30 33z" fill="#401f07"/><path d="m191 74-58-53 39-20z" fill="#ffd3ff"/><path d="m178 21 10 15 15-6z" fill="#95c500"/><path d="m75 172-41-49 25 9z" fill="#648023"/><path d="m137.553186 48.045619 27.709565-15.690618 11.490685 24.192078-61.174015-7.382983z" fill="#ff79c2"/><path d="m-.5-.5h1v1h-1z" fill="#fff" transform="matrix(5.85359394 -55.69322614 44.75348529 4.70378085 22 19)"/><path d="m54.473484 67.236173 66.216799 22.766239-19.118623-24.628849-59.146852-25.093852z" fill="#ffd2f3"/><path d="m222 29h8v25h-8z" fill="#ff7beb"/><path d="m79.539191 11.495287-36.011931 38.669669 5.637051-15.610654-12.387487-9.765487z" fill="#abbe9e"/><path d="m-.5-.5h1v1h-1z" fill="#fa86bf" transform="matrix(3.12584903 7.36403883 -62.59433003 26.56971674 204 76)"/><ellipse fill="#96bc1a" rx="1" ry="1" transform="matrix(4.06575368 -59.82237021 20.61337051 1.40096233 244.529943 110.423832)"/><ellipse fill="#fff" rx="1" ry="1" transform="matrix(-19.52325874 9.6898597 -3.98722071 -8.03350554 197.411272 44.199211)"/><ellipse fill="#9fc719" rx="1" ry="1" transform="matrix(27.13007099 18.90251102 -7.23263427 10.38073095 190.778812 133.927671)"/><ellipse fill="#db5d64" rx="1" ry="1" transform="matrix(-2.50275871 9.37503067 -27.83413741 -7.43060289 109.757428 95.514114)"/><path d="m49.403195 44.207031 22.179594 2.432615 26.100647 5.89347-10.224195-20.725395z" fill="#a4d105"/><path d="m-.5-.5h1v1h-1z" fill="#fff" transform="matrix(-168.07448666 -81.97540445 9.64416523 -19.77346902 250 22)"/><path d="m-.5-.5h1v1h-1z" fill="#ffbce9" transform="matrix(10.79789902 2.09889895 -10.68530374 54.97112227 104 34)"/><path d="m82.672006-12.982476-8.339249 22.645246-84.654604 20.066436 7.820345-43.140327z" fill="#fffeff"/><ellipse cx="150" cy="73" fill="#b73250" rx="27" ry="17"/><path d="m76.959725 88.682975-45.749965 16.080351-47.20976.854382 52.175902-52.613722z" fill="#8ab31a"/><path d="m-.5-.5h1v1h-1z" fill="#c74689" transform="matrix(-5 0 0 -32 0 71)"/><path d="m-.5-.5h1v1h-1z" fill="#fff" transform="matrix(10.2299754 -10.97030552 26.32873326 24.55194096 87 67)"/><path d="m105 41 46 8-46 28z" fill="#e56ca0"/><path d="m271 43-37-2-9 20z" fill="#9cd302"/><path d="m194 27h21v4h-21z" fill="#8fba23"/><path d="m93.862929 121.934566-29.163235-29.527077 2.807252 11.94023 38.107029 13.051817z" fill="#ffdef8"/><ellipse cx="174" cy="14" fill="#fffeff" rx="6" ry="44"/><ellipse cx="92" cy="96" fill="#d24358" rx="20" ry="13"/><path d="m51.168361 107.085986 1.953437-8.28656 14.920472 18.373924 4.195716 4.463945z" fill="#f05976"/><ellipse cx="85" cy="14" fill="#c86172" rx="14" ry="10"/><ellipse fill="#b6d420" rx="1" ry="1" transform="matrix(-3.91348505 -12.33773614 33.45552624 -10.61197128 21.983584 120.906236)"/><path d="m221.993847 28.999267-3.988016 46.40564 16.727203-36.747648-33.130214-5.93029z" fill="#ffadea"/><path d="m70.074315 83.653994-17.77696-19.989997-6.41002-18.925867 9.953518 2.848552z" fill="#f986c3"/><path d="m196.620326 84.795177-30.476944 10.092485 18.037805 19.827256 36.305293-41.689303z" fill="#9e2834"/><ellipse fill="#d29565" rx="1" ry="1" transform="matrix(2.60730917 -3.08844203 4.26594604 3.60137576 158.366681 110.07257)"/><path d="m77.587191 46.801097 18.031792 15.95533-9.597559-41.162206-37.76883 21.284814z" fill="#a8ce19"/><path d="m62 123h84v34h-84z" fill="#a0c919"/><path d="m203.636022 99.57585-13.594438 12.884447-15.004539-1.336114 36.421945-31.30239z" fill="#71281b"/><ellipse cx="96" cy="31" fill="#ffcef2" rx="5" ry="10"/><path d="m130 112 9-20-51 17z" fill="#ad704e"/><ellipse fill="#d098b4" rx="1" ry="1" transform="matrix(.9004859 -10.90391444 6.71335611 .55441397 72.907869 13.021122)"/><ellipse fill="#aac618" rx="1" ry="1" transform="matrix(-2.52519822 -.4384932 1.27334385 -7.33294288 184.119824 35.86428)"/><path d="m62 93h11v18h-11z" fill="#ffc8f1"/><path d="m214 69 14 8-22 23z" fill="#e47aa8"/><path d="m271-1-133-15 54 36z" fill="#fff"/><path d="m132.797287 88.028716 18.047517 66.913262 1.495484-58.390652-17.771796 24.008972z" fill="#56421e"/><path d="m204 80-26 9v-28z" fill="#fcaad0"/><path d="m271 46.622204v-6.583001l-28.016308 5.0913-21.62837-22.255586z" fill="#abd918"/><path d="m72 113 48 1-21 7z" fill="#ffcfde"/><ellipse fill="#f8a3cf" rx="1" ry="1" transform="matrix(-10.16159985 44.77579288 -7.33011226 -1.66352538 113.56138 15.43822)"/><path d="m107.346999 110.622047.917254 4.611028-18.203992-3.468876-16.125354-11.460997z" fill="#b23c44"/><ellipse fill="#8c8343" rx="1" ry="1" transform="matrix(-1.40171398 20.23302278 -2.86217869 -.19828752 1.834804 93.203975)"/><ellipse cx="148" cy="59" fill="#ad2029" rx="7" ry="7"/><path d="m105.848708 65.923789 24.531452-49.640925-.234946 39.26044-9.965158 38.76531z" fill="#e56592"/><path d="m214 23h9v6h-9z" fill="#89c400"/><path d="m136 9h7v5h-7z" fill="#fe58c3"/><path d="m-.5-.5h1v1h-1z" fill="#a9ce19" transform="matrix(41.34452613 -20.16507275 14.0278767 28.76140948 116 136)"/><path d="m-.5-.5h1v1h-1z" fill="#feffff" transform="matrix(12.12024051 21.86549268 -15.74315473 8.72657316 194 50)"/><path d="m-.5-.5h1v1h-1z" fill="#e05970" transform="matrix(-3.81617991 19.63254367 -30.43044269 -5.91507886 105 95)"/><ellipse fill="#a3c81a" rx="1" ry="1" transform="matrix(-14.26093986 -25.462396 28.14405647 -15.76288017 189.169888 140.643574)"/><ellipse cx="157" cy="122" fill="#7e1b25" rx="6" ry="6"/><ellipse cx="255" cy="129" fill="#9cbf1d" rx="54" ry="54"/><path d="m-.5-.5h1v1h-1z" fill="#aed413" transform="matrix(-7.22178028 9.58362612 -15.17407469 -11.43448544 16 68)"/><path d="m-.5-.5h1v1h-1z" fill="#c94f6f" transform="matrix(10.40070433 3.5812497 -7.48806755 21.74692724 170 85)"/><path d="m202.493332 30.578078-8.038868-11.000132-5.819422 8.880044 45.746258-18.679199z" fill="#d4e7c1"/><path d="m159 54-53-21h42z" fill="#ff6fb6"/><path d="m49.583572 107.017488 33.247164 20.331712 9.057015 44.210253-32.998299-24.742444z" fill="#98be18"/><path d="m-.5-.5h1v1h-1z" fill="#ffbdec" transform="matrix(4.80630848 -1.37818678 14.88441721 51.90813158 101 57)"/><ellipse cx="164" cy="11" fill="#ffa9de" rx="6" ry="6"/><ellipse fill="#fff" rx="1" ry="1" transform="matrix(19.08079736 -18.07655353 52.40360386 55.3148887 255 5.051026)"/><ellipse fill="#a6c738" rx="1" ry="1" transform="matrix(-1.1515799 -1.70445723 20.90419183 -14.123468 54.197941 40.450471)"/><path d="m81-16h102l-27 28z" fill="#fff"/><path d="m-.5-.5h1v1h-1z" fill="#8cb022" transform="matrix(-26.1629509 26.1629509 -19.79898987 -19.79898987 240 123)"/><path d="m52.833141 37.875828.95971-19.599643 8.26311-10.271373 14.248761 15.932653z" fill="#a8be98"/><ellipse fill="#91ad1c" rx="1" ry="1" transform="matrix(4.34466766 -10.72602726 24.61413252 9.97016165 17.991568 156)"/><path d="m53.758617 51.077528 6.652856 15.277947 19.828301-12.593896-24.202827-10.017295z" fill="#ffd1f9"/><path d="m-.5-.5h1v1h-1z" fill="#ff4a8d" transform="matrix(-6.4740582 -6.25192533 5.55726696 -5.7547184 127 25)"/><path d="m-.5-.5h1v1h-1z" fill="#b7343f" transform="matrix(12.86143678 19.06786417 -5.80326301 3.91435032 81 97)"/><path d="m-.5-.5h1v1h-1z" fill="#fda5e4" transform="matrix(1.20960948 -4.85147863 27.16828034 6.77381308 148 15)"/><path d="m96.651841 14.219713 15.533392-6.945013 4.185595-.099702-38.143469-6.363999z" fill="#dc7393"/><path d="m99 60 4 19 20 11z" fill="#ffaec4"/><path d="m75.907883 121.611046 22.190416 1.422406-45.261761-20.914836 1.526381 6.104414z" fill="#ff8bb0"/><path d="m181.962412 12.064618-28.732191 19.224203 7.231673 20.613928-28.473341-35.118672z" fill="#ffdcfb"/><ellipse cx="11" cy="26" fill="#fff" rx="22" ry="27"/><ellipse fill="#cab797" rx="1" ry="1" transform="matrix(.41234919 .91102587 -11.48917051 5.20023668 123.176112 112.501853)"/><path d="m174.190888 88.006894 47.09428-41.82752 12.097835 1.664657-9.576432 12.990142z" fill="#ffcdea"/><path d="m203 100h17v23h-17z" fill="#b7d21f"/><path d="m164 24 8 18-14 7z" fill="#fea1d1"/><path d="m42.196152 49.328514 19.193801-37.825237-25.475369 11.666451 6.052333 23.14853z" fill="#dce9d4"/><path d="m204.931286 82.337231 35.507227-19.814454-43.569183 17.325897-4.740962 2.913396z" fill="#de7ba1"/><ellipse cx="33" cy="106" fill="#a2bc4b" rx="19" ry="3"/><path d="m75 85 7-4-22-15z" fill="#ffabd6"/><path d="m234 41h22v59h-22z" fill="#a0c81a"/><path d="m-.5-.5h1v1h-1z" fill="#c9805b" transform="matrix(10.79009701 10.41987556 -3.47329185 3.596699 158 109)"/><path d="m15.031334 56.599482 30.239226-9.313204 9.512621 27.733062-33.964636-13.827047z" fill="#87b31e"/><path d="m177.258963 17.240342 6.511074 16.181738 17.598742.579677-16.421481-14.104032z" fill="#adce31"/><ellipse fill="#b4d21a" rx="1" ry="1" transform="matrix(23.98284915 15.10227477 -4.55566086 7.23452121 24.251768 134.501045)"/><path d="m196.687117 24.76725-16.875149-4.221139 41.754514-2.946197 12.68267 1.399724z" fill="#daebc9"/><path d="m211.239998 37.772551 11.980862 6.049534-9.930715 13.602315-30.531657 25.937212z" fill="#ffecff"/><path d="m-.5-.5h1v1h-1z" fill="#ffd3e9" transform="matrix(-4.66790213 1.79183975 -9.31756669 -24.27309109 73 105)"/><ellipse fill="#ff96ca" rx="1" ry="1" transform="matrix(5.67422208 -6.12190599 3.32477658 3.08164168 59.9657 99.968805)"/><ellipse cx="142" cy="108" fill="#612012" rx="8" ry="9"/><path d="m134 126h11v30h-11z" fill="#b2d51b"/><path d="m96 17-5 10-14-1z" fill="#af9a51"/><path d="m143.996542-9.005058-52.276975-6.994942 84.71966 40.177304-1.943047 17.662007z" fill="#fff"/><path d="m173 59-47 5 26-12z" fill="#bb263d"/><ellipse fill="#afcd17" rx="1" ry="1" transform="matrix(-10.74979695 -11.5200131 35.01490971 -32.67384908 255 152.826535)"/><ellipse cx="57" cy="87" fill="#7fae1e" rx="15" ry="7"/><path d="m7 59-5 11-9-9z" fill="#d88c90"/><ellipse fill="#86212a" rx="1" ry="1" transform="matrix(3.14330469 3.02648056 -8.23791235 8.55590117 202.443637 90.074672)"/><path d="m153 129h35v27h-35z" fill="#a9cf1a"/><path d="m182 97 13-13-34 13z" fill="#c13147"/><ellipse fill="#feedfc" rx="1" ry="1" transform="matrix(-4.78502105 5.94292842 -8.66845149 -6.97950907 74.293474 56.48332)"/><path d="m93 39 22-22-17-2z" fill="#ffc9e9"/><path d="m228.133269 37.148863 1.07744-4.243246-.810909-4.191581-12.244303 2.42169z" fill="#ff76d6"/><ellipse fill="#ff8dd3" rx="1" ry="1" transform="matrix(-8.13863666 -2.95574711 .96438342 -2.6554255 54.356756 48.587719)"/><path d="m-.5-.5h1v1h-1z" fill="#ee96b2" transform="matrix(8.77624442 -8.18398032 .68199836 .7313537 208 96)"/><path d="m58 30 32 1 6 19z" fill="#a2cf1d"/><path d="m139.921972 101.873219-11.651094-12.590188-8.414636-16.532966 43.817639-17.13161z" fill="#b33950"/><path d="m201 80 34-20-4 14z" fill="#ed7bb1"/><path d="m164 114h31v7h-31z" fill="#8ec216"/><ellipse fill="#749221" rx="1" ry="1" transform="matrix(-18.40131291 -17.70669619 2.27591366 -2.36519558 54.626035 142.360006)"/><path d="m177 75-5 17 19-25z" fill="#f3a0bc"/><path d="m250.27307 126.110237 17.452444-4.354926 3.274486-7.970076-26.161056 11.064905z" fill="#a3bd5e"/><path d="m177.950453 69.600763 16.363686 6.020569-26.642558-19.925215 14.563623-20.625509z" fill="#febfe4"/><path d="m122 17 27 33-19 11z" fill="#fc6aaa"/><ellipse fill="#96c01a" rx="1" ry="1" transform="matrix(10.94300309 6.79644281 -11.95326434 19.24603977 21.896016 86.736271)"/><ellipse fill="#9fc51a" rx="1" ry="1" transform="matrix(9.3431418 5.9406554 -17.87425513 28.11166259 121.310439 148.54771)"/><path d="m153.478483 128.723018 12.929632-4.337081-1.967661-3.286027-17.180711-18.704382z" fill="#823b21"/><path d="m57 136-15-21 73 12z" fill="#a3c819"/><path d="m146 117h7v40h-7z" fill="#485e23"/><ellipse fill="#fed9ff" rx="1" ry="1" transform="matrix(.70584322 6.4242281 -11.14239796 1.2242383 212.592408 36.824943)"/><ellipse cx="184" cy="36" fill="#9ac802" rx="3" ry="3"/><path d="m162.567677 109.831445-13.537746-14.034159 33.98237 16.77464-13.055479 1.635589z" fill="#855325"/><path d="m99.078142 110.339256-20.045127-11.040802 57.777347 1.90785-11.930477-17.825306z" fill="#cc6263"/><ellipse fill="#ffcadd" rx="1" ry="1" transform="matrix(15.74540771 7.75991689 -2.06691108 4.19390543 76.284302 110.250413)"/><path d="m48.597038 110.348851 12.442036-26.457343 14.02372 5.7411-50.60074 6.329547z" fill="#84ae22"/><path d="m107 38h7v28h-7z" fill="#da7da8"/><path d="m179.568963 23.699617 4.129547 16.301329 20.868213-9.741668-17.614148-4.801767z" fill="#a7ca1f"/><ellipse cx="107" cy="108" fill="#b35449" rx="20" ry="6"/><path d="m103-15 23 26-71-22z" fill="#ee91b4"/><path d="m-16 46.696182 75.318889-62.696182 15.631767 20.272688-16.443976 2.64813z" fill="#fff"/><path d="m-.5-.5h1v1h-1z" fill="#ff74b6" transform="matrix(2.04660193 -6.69413329 5.73782854 1.75423023 231 41)"/><ellipse fill="#fcf4fc" rx="1" ry="1" transform="matrix(-11.63014761 -7.56525559 9.50295658 -14.60899589 200.779842 48.600079)"/><path d="m92.387863 59.884193 3.375759-12.172942-41.14494-5.561842 8.104-8.842104z" fill="#a6d01a"/><path d="m219.626335 97.141235-25.468762 23.028037 50.428234-61.595568-13.504085 64.86891z" fill="#9ac220"/><path d="m134 111h10v9h-10z" fill="#5e141a"/><path d="m85 0-8 15 23-3z" fill="#cf5d7c"/><path d="m222.589756 15.667579-99.071403-16.959886 9.660489 13.166779 46.287193-27.874472z" fill="#fff"/><ellipse fill="#ce6083" rx="1" ry="1" transform="matrix(1.00670525 11.54733039 -8.33097021 .72630047 118.30817 70.80017)"/><path d="m79 109-21-10 11-7z" fill="#ffd0ed"/><path d="m249.420489 48.439267 1.462018-11.157823-16.694437 3.399175-6.707706 21.449239z" fill="#abc91d"/><path d="m160.006334 145.659587 19.479993-8.387773-28.117378-8.517 4.781554 43.245186z" fill="#9bc31a"/><path d="m139 7 20 10-27-1z" fill="#fba1e2"/><path d="m34.125467 51.247373 12.219711-16.507902-62.345178-1.786046 55.74784 16.177169z" fill="#fcfffc"/><ellipse fill="#cd4074" rx="1" ry="1" transform="matrix(-1.85293086 11.2685782 -5.56741022 -.91546831 171.064158 70.634517)"/><path d="m-.5-.5h1v1h-1z" fill="#d1b19f" transform="matrix(.51503807 .8571673 -13.71467681 8.2406092 122 114)"/><ellipse fill="#e64870" rx="1" ry="1" transform="matrix(9.21970851 2.34782788 -1.09787445 4.31125403 104.989768 88.967192)"/><path d="m137 99-10 10-12 1z" fill="#946538"/><path d="m144 32 16 22-29-11z" fill="#fe7cbb"/><path d="m215 59-14 18 16-8z" fill="#eb9dcd"/><ellipse fill="#fdb1e2" rx="1" ry="1" transform="matrix(-4.88130405 -10.5461224 2.54669941 -1.17874738 98.57962 62.460403)"/><path d="m35.301187 172-51.301187-19.800915v-11.774109l18.202213 9.747738z" fill="#7a981c"/><ellipse fill="#fca4d3" rx="1" ry="1" transform="matrix(4.49292812 -2.48998464 1.28261569 2.31435166 165.047003 9.09825)"/><path d="m-16 24.586132 26.045167 37.717942-26.045167-16.683017v6.584421z" fill="#ebccc9"/><ellipse fill="#fff" rx="1" ry="1" transform="matrix(-24.82987913 -24.47781695 12.52254214 -12.70265271 234.94176 2.950569)"/><path d="m147.977062 120.674111-8.797183 1.834535 12.392572 5.980043 9.012802-.10701z" fill="#4c471c"/><path d="m165.437417 93.322519 6.466494-.139401 6.154656-1.422971 31.815395-13.812461z" fill="#d66c88"/><path d="m211 28h11v2h-11z" fill="#9bbd0c"/><ellipse fill="#d35b68" rx="1" ry="1" transform="matrix(-13.02927963 5.52278762 -3.34901785 -7.90095385 104.903659 100.332991)"/></g><path d="m271 50.189971q-32.628555-22.181117-58.586008-33.828532" fill="none" stroke="#c9eb96" stroke-opacity=".501961" stroke-width=".5"/><path d="m82.706457 52.962154 14.056679 11.347561 5.057456 15.366813-31.969308-24.391179z" fill="#fdfcfc" fill-opacity=".501961"/><path d="m147 53h5v4h-5z" fill="#7b1314" fill-opacity=".501961"/><path d="m185 117 26-13h-12z" fill="#88ba15" fill-opacity=".501961"/><path d="m125 136-32-9 37-14z" fill="#aed219" fill-opacity=".501961"/><path d="m53.264947 37.70748 5.972938-8.130183 20.655268-5.049133 6.588195 1.910487z" fill="#abc156" fill-opacity=".501961"/><path d="m144 100 28-5-43-7z" fill="#973e41" fill-opacity=".501961"/><ellipse fill="#9bc31d" fill-opacity=".501961" rx="1" ry="1" transform="matrix(-10.73332211 -4.33772126 15.30802764 -37.87841166 239.917064 82.604238)"/><path d="m120-16 12 30-14-11z" fill="#fcd0db" fill-opacity=".501961"/><path d="m154.584838 41.720063 2.652467-12.408899-32.469168-12.601339 22.977256 18.522061z" fill="#fddcf5" fill-opacity=".501961"/><path d="m253.058084 36.765281-32.474398-15.189389 8.594305 8.727976-18.656176-18.962219z" fill="#d7f0b2" fill-opacity=".501961"/><ellipse cx="87" cy="16" fill="#bb5e64" fill-opacity=".501961" rx="6" ry="6"/><path d="m131 111 11-6-3-4z" fill="#4a2013" fill-opacity=".501961"/><path d="m71.328577 9.897992 1.665903-7.361565-5.945839 1.436333 51.367064-19.97276z" fill="#e190b6" fill-opacity=".501961"/><path d="m73 87h6v12h-6z" fill="#b22e47" fill-opacity=".501961"/><path d="m114.789042 29.068666-.761818-19.841143 20.918045 31.127672 14.252732-.993413z" fill="#ff7cbf" fill-opacity=".501961"/><path d="m124 69 14-19-20-21z" fill="#ea629c" fill-opacity=".501961"/><path d="m207 92-5-2 8-12z" fill="#72272b" fill-opacity=".501961"/><path d="m-.5-.5h1v1h-1z" fill="#ff3c99" fill-opacity=".501961" transform="matrix(.82903757 -.5591929 3.91435032 5.80326301 228 32)"/><path d="m136 99 14 4-9 14z" fill="#6c2e18" fill-opacity=".501961"/><ellipse cx="180" cy="56" fill="#fed1ee" fill-opacity=".501961" rx="4" ry="14"/><path d="m47 45h17v2h-17z" fill="#ff7cc2" fill-opacity=".501961"/><path d="m207.061143 99.008996 5.730586-21.261712-9.351808 1.587076 23.445827 2.665336z" fill="#d77693" fill-opacity=".501961"/><ellipse cx="174" cy="40" fill="#fefeff" fill-opacity=".501961" rx="3" ry="13"/><path d="m81 76h24v7h-24z" fill="#ffd5ed" fill-opacity=".501961"/><path d="m208.732825 25.027632-23.255807-5.878977 42.62314-6.627945-15.626367 6.150815z" fill="#edf4eb" fill-opacity=".501961"/><path d="m147 113h3v28h-3z" fill="#2f4017" fill-opacity=".501961"/><path d="m135 58-13-39 23 34z" fill="#f767a7" fill-opacity=".501961"/><path d="m215.827908 21.788786-2.268784 8.525507 12.27657-7.41169 45.164306 30.142835z" fill="#aace24" fill-opacity=".501961"/><path d="m-.5-.5h1v1h-1z" fill="#93b81a" fill-opacity=".501961" transform="matrix(3.75877048 1.36808057 -13.33878559 36.64801221 192 147)"/><path d="m53.890226 106.197762q.868193 6.525369 31.168865 17.556914" fill="none" stroke="#da686a" stroke-opacity=".501961" stroke-width=".5"/><path d="m-.5-.5h1v1h-1z" fill="#f7659a" fill-opacity=".501961" transform="matrix(3.7735479 -3.28029514 .65605903 .75470958 232 61)"/><path d="m213.340841 75.839438 17.513343-29.319467-10.410522-14.884276-3.72634 17.935718z" fill="#fdbde9" fill-opacity=".501961"/><path d="m76 92 1 10 13 8z" fill="#b73942" fill-opacity=".501961"/><path d="m82 84h18v7h-18z" fill="#de385c" fill-opacity=".501961"/><path d="m53.057899 151.716495 12.1112-4.392901 30.671044 24.676406h-40.699522z" fill="#8caf1a" fill-opacity=".501961"/><ellipse cx="98" cy="116" fill="#ffdbde" fill-opacity=".501961" rx="17" ry="2"/><path d="m219 114 6-7 20 17z" fill="#acc02b" fill-opacity=".501961"/><path d="m5.873523 112.874041-16.039587 3.511683-5.833936-32.725123 21.864771 16.9132z" fill="#84a73d" fill-opacity=".501961"/><path d="m178.373745 148.162199-17.039005-33.369112 11.099522 5.167802 52.48201-4.976221z" fill="#a5c919" fill-opacity=".501961"/><path d="m-16 80.264394 35.119231-27.317834-15.389978 5.535251 3.844 3.197526z" fill="#cbc886" fill-opacity=".501961"/><path d="m104 63-4-27-3 16z" fill="#ffcef1" fill-opacity=".501961"/><path d="m45.534475 43.782825-.221879-27.89275 31.927128-13.663049-46.502332 19.292331z" fill="#edefe3" fill-opacity=".501961"/><ellipse fill="#f69884" fill-opacity=".501961" rx="1" ry="1" transform="matrix(4.52736548 2.25990241 -.85889582 1.72066513 118.440026 86.967132)"/><path d="m253 123 18-23v23z" fill="#adc99e" fill-opacity=".501961"/><path d="m2.718652 67.557632-.516731 21.647433 3.011373-1.653396 2.403756-26.947788z" fill="#aba13c" fill-opacity=".501961"/><ellipse cx="125" cy="22" fill="#f95384" fill-opacity=".501961" rx="4" ry="4"/><path d="m192 75-20 11 9 1z" fill="#fbc5cc" fill-opacity=".501961"/><path d="m202.399763 97.241341-17.468539 11.562649 5.431029 2.157372 10.197162-7.586452z" fill="#6d2c1a" fill-opacity=".501961"/><path d="m88.415891 22.200107-32.490765 7.75267 7.997774-14.800354 20.409086 7.556724z" fill="#aca291" fill-opacity=".501961"/><path d="m102 8-6 11-6-6z" fill="#cf7c7d" fill-opacity=".501961"/><path d="m179.540471 60.707197 8.323609-21.902941 29.72056-.86075-32.882487 25.244533z" fill="#fdf5fb" fill-opacity=".501961"/><path d="m271-2.835187-102.742598-6.15483 8.092788 25.219094 87.315273.292628z" fill="#fff" fill-opacity=".501961"/><path d="m152 109-1-12 5 11z" fill="#b77238" fill-opacity=".501961"/><path d="m233 122 27 5-62 45z" fill="#91b31b" fill-opacity=".501961"/><path d="m-.5-.5h1v1h-1z" fill="#f883c3" fill-opacity=".501961" transform="matrix(2.81907786 -1.02606043 4.10424172 11.27631145 50 52)"/><path d="m37.465251 107.070726-13.409064-3.285173-40.056187 22.195802v-12.921482z" fill="#afc745" fill-opacity=".501961"/><path d="m104 32h2v34h-2z" fill="#e9b1c7" fill-opacity=".501961"/><path d="m71.80654 47.340447-13.733212-1.422463-2.067973 2.306316 4.157171 22.930013z" fill="#ffc7ed" fill-opacity=".501961"/><path d="m210.380706 96.446053-23.730056 19.79376-7.165817-1.939933 33.932007-12.325382z" fill="#a5bf37" fill-opacity=".501961"/><path d="m99.479292 13.960141 2.309876 7.564458 22.358815-2.486501 5.539957-3.843344z" fill="#fdaddc" fill-opacity=".501961"/><path d="m123.567221 70.959007 11.985727-11.365774 16.268456-5.708577-10.464371 6.730186z" fill="#ab273b" fill-opacity=".501961"/><ellipse fill="#c7e292" fill-opacity=".501961" rx="1" ry="1" transform="matrix(-1.21493178 -1.47704633 5.98078892 -4.91944656 49.719235 39.468413)"/><ellipse fill="#f97bbc" fill-opacity=".501961" rx="1" ry="1" transform="matrix(-.80278286 -1.13628398 3.25319205 -2.2983751 138.387598 10.583514)"/><path d="m11 112h47v13h-47z" fill="#abcf1a" fill-opacity=".501961"/><path d="m-.5-.5h1v1h-1z" fill="#b0d21a" fill-opacity=".501961" transform="matrix(10.56593412 9.18482641 -30.17871533 34.71664069 168 156)"/><path d="m-.5-.5h1v1h-1z" fill="#b7c1b0" fill-opacity=".501961" transform="matrix(-8.03007011 11.46812862 -5.73406431 -4.01503505 56 24)"/><path d="m164.668424 25.431873-8.899113 25.050803 17.202729 8.756392-2.048308-19.076695z" fill="#fea6d6" fill-opacity=".501961"/><ellipse fill="#cce58d" fill-opacity=".501961" rx="1" ry="1" transform="matrix(-8.840843 -7.23369498 .63325237 -.77394537 251.236743 37.560964)"/><path d="m170 5 9 14-14-9z" fill="#fbcaf4" fill-opacity=".501961"/><path d="m64.147353 93.025983-43.67061-37.701421 8.123985-6.019715 42.038074 34.48479z" fill="#8ab520" fill-opacity=".501961"/><path d="m103 8h23v7h-23z" fill="#fc98c9" fill-opacity=".501961"/><path d="m-.5-.5h1v1h-1z" fill="#f36c88" fill-opacity=".501961" transform="matrix(.87461971 .48480962 -1.45442886 2.62385912 133 113)"/><path d="m51.182822 104.402599-19.567771-49.647915 16.257157-10.040429-7.39701 27.221939z" fill="#8bb320" fill-opacity=".501961"/><path d="m145 134h2v21h-2z" fill="#7d882e" fill-opacity=".501961"/><path d="m152.763491 161.643299 4.289171 10.356701-5.000092-40.551423 35.028525-16.901947z" fill="#9ec41a" fill-opacity=".501961"/><path d="m133 108-8-14 9 3z" fill="#b5815d" fill-opacity=".501961"/><path d="m-.5-.5h1v1h-1z" fill="#9bcc09" fill-opacity=".501961" transform="matrix(-.64278761 -.76604444 6.12835554 -5.14230088 185 39)"/><path d="m122.259171 160.895519 12.288869-46.18981-10.12785 24.873686-13.111786 2.997272z" fill="#97bb1b" fill-opacity=".501961"/><path d="m222.279998 60.174029-8.914199 29.207909-3.76439-13.045149 15.56978-9.636991z" fill="#ef7db0" fill-opacity=".501961"/><path d="m59.582593 148.976338-6.497219-14.088585-12.213433-4.144366 35.205751 41.256613z" fill="#708d22" fill-opacity=".501961"/><path d="m247.157664 50.775323-16.217643-14.456366 11.789076-3.999891-18.195277 31.090519z" fill="#a9cb1c" fill-opacity=".501961"/><ellipse fill="#fff" fill-opacity=".501961" rx="1" ry="1" transform="matrix(-13.95594957 19.04204919 -26.21392204 -19.21222713 3.982257 24.285241)"/><path d="m192.146508 101.03918-7.012975-1.865001 8.009487-14.35501 15.782303-1.855989z" fill="#a02230" fill-opacity=".501961"/><path d="m271 118.436472-31.963042 1.095568-25.833479-26.337719 45.457955 15.772608z" fill="#8fbc1b" fill-opacity=".501961"/><path d="m109.596716 95.209449q-54.048044-10.75386-62.408974-44.165955" fill="none" stroke="#ce757d" stroke-opacity=".501961" stroke-width=".5"/><path d="m126.517592-16 3.747324 29.63222 48.332583-29.63222-24.568226 26.195362z" fill="#fff" fill-opacity=".501961"/><ellipse fill="#feefff" fill-opacity=".501961" rx="1" ry="1" transform="matrix(8.27295059 4.53793517 -3.11890251 5.68596187 170.152888 21.698449)"/><path d="m-.5-.5h1v1h-1z" fill="#a12a33" fill-opacity=".501961" transform="matrix(.98768834 -.15643447 4.38016502 27.65527354 150 65)"/><path d="m-.5-.5h1v1h-1z" fill="#a4d01a" fill-opacity=".501961" transform="matrix(19.09595408 20.47790365 -5.85082961 5.45598688 83 44)"/></g></svg>