<svg xmlns="http://www.w3.org/2000/svg" version="1.1" width="1024" height="628">
<rect x="0" y="0" width="1024" height="628" fill="#c3b272" />
<g transform="scale(4.000000) translate(0.5 0.5)">
<g transform="translate(179.520915 14.669029) rotate(354.239344) scale(88.408096 49.568533)"><ellipse fill="#ffd5ff" fill-opacity="0.501961" cx="0" cy="0" rx="1" ry="1" /></g>
<ellipse fill="#877d00" fill-opacity="0.501961" cx="167" cy="156" rx="88" ry="88" />
<g transform="translate(19.462862 22.923069) rotate(245.026995) scale(29.423596 56.015193)"><ellipse fill="#ffffff" fill-opacity="0.501961" cx="0" cy="0" rx="1" ry="1" /></g>
<g transform="translate(27.316214 111.930147) rotate(182.785976) scale(40.072762 62.296384)"><ellipse fill="#7ac500" fill-opacity="0.501961" cx="0" cy="0" rx="1" ry="1" /></g>
<ellipse fill="#d21e89" fill-opacity="0.501961" cx="143" cy="85" rx="71" ry="32" />
<g transform="translate(81.673070 66.693794) rotate(112.869767) scale(15.120243 34.076427)"><ellipse fill="#ffffff" fill-opacity="0.501961" cx="0" cy="0" rx="1" ry="1" /></g>
<g transform="translate(208.484766 156.000000) rotate(394.997200) scale(32.632651 218.818343)"><ellipse fill="#8fe200" fill-opacity="0.501961" cx="0" cy="0" rx="1" ry="1" /></g>
<g transform="translate(199.200093 60.088058) rotate(317.830716) scale(32.721897 20.588114)"><ellipse fill="#fff3ff" fill-opacity="0.501961" cx="0" cy="0" rx="1" ry="1" /></g>
<g transform="translate(26.264872 11.534742) rotate(219.539180) scale(30.579868 52.356335)"><ellipse fill="#ffffff" fill-opacity="0.501961" cx="0" cy="0" rx="1" ry="1" /></g>
<ellipse fill="#97d800" fill-opacity="0.501961" cx="81" cy="143" rx="137" ry="22" />
<g transform="translate(202.824031 0.000000) rotate(180.507400) scale(84.845780 24.534524)"><ellipse fill="#ffffff" fill-opacity="0.501961" cx="0" cy="0" rx="1" ry="1" /></g>
<g transform="translate(149.683282 92.678317) rotate(177.783309) scale(20.348200 42.362596)"><ellipse fill="#811e1b" fill-opacity="0.501961" cx="0" cy="0" rx="1" ry="1" /></g>
<polygon fill="#ffa8ff" fill-opacity="0.501961" points="50,91 65,119 116,118" />
<g transform="translate(110.240125 19.450732) rotate(315.245702) scale(19.593084 51.688430)"><ellipse fill="#ff4fb8" fill-opacity="0.501961" cx="0" cy="0" rx="1" ry="1" /></g>
<rect fill="#91c400" fill-opacity="0.501961" x="231" y="31" width="20" height="85" />
<g transform="translate(203.534419 28.780061) rotate(171.623337) scale(28.514151 6.093948)"><ellipse fill="#a2d82d" fill-opacity="0.501961" cx="0" cy="0" rx="1" ry="1" /></g>
<ellipse fill="#ffcdff" fill-opacity="0.501961" cx="101" cy="46" rx="8" ry="37" />
<polygon fill="#8fe800" fill-opacity="0.501961" points="91,23 94,56 52,37" />
<g transform="translate(176 42) rotate(37) scale(128 22)"><rect fill="#ffcfff" fill-opacity="0.501961" x="-0.5" y="-0.5" width="1" height="1" /></g>
<g transform="translate(189.384617 97.670579) rotate(146.936416) scale(24.960201 11.399791)"><ellipse fill="#7a1510" fill-opacity="0.501961" cx="0" cy="0" rx="1" ry="1" /></g>
<g transform="translate(232.733290 5.793868) rotate(131.190686) scale(15.996035 53.043598)"><ellipse fill="#ffffff" fill-opacity="0.501961" cx="0" cy="0" rx="1" ry="1" /></g>
<g transform="translate(78.402641 69.300861) rotate(19.592677) scale(17.882107 15.187672)"><ellipse fill="#ffebff" fill-opacity="0.501961" cx="0" cy="0" rx="1" ry="1" /></g>
<g transform="translate(90.728445 97.851897) rotate(210.636626) scale(20.877581 13.262027)"><ellipse fill="#d32f43" fill-opacity="0.501961" cx="0" cy="0" rx="1" ry="1" /></g>
<g transform="translate(20.546717 21.489074) rotate(45.027824) scale(23.893976 53.215782)"><ellipse fill="#ffffff" fill-opacity="0.501961" cx="0" cy="0" rx="1" ry="1" /></g>
<polygon fill="#8bd100" fill-opacity="0.501961" points="195,23 186,43 179,19" />
<g transform="translate(37 80) rotate(57) scale(51 47)"><rect fill="#80b406" fill-opacity="0.501961" x="-0.5" y="-0.5" width="1" height="1" /></g>
<polygon fill="#ffb7fd" fill-opacity="0.501961" points="52,107 65,89 97,124" />
<g transform="translate(149.442268 67.630609) rotate(180.692463) scale(30.318049 12.780835)"><ellipse fill="#cb2553" fill-opacity="0.501961" cx="0" cy="0" rx="1" ry="1" /></g>
<g transform="translate(149.026038 141.065179) rotate(178.211344) scale(2.994568 36.610674)"><ellipse fill="#0d2a1b" fill-opacity="0.501961" cx="0" cy="0" rx="1" ry="1" /></g>
<polygon fill="#ffe5ff" fill-opacity="0.501961" points="234,45 200,19 169,95" />
<g transform="translate(221 78) rotate(217) scale(10 36)"><rect fill="#ef4dab" fill-opacity="0.501961" x="-0.5" y="-0.5" width="1" height="1" /></g>
<g transform="translate(178.625485 0.000000) rotate(278.896584) scale(15.338379 90.885733)"><ellipse fill="#ffffff" fill-opacity="0.501961" cx="0" cy="0" rx="1" ry="1" /></g>
<g transform="translate(122 46) rotate(295) scale(47 26)"><rect fill="#f455a0" fill-opacity="0.501961" x="-0.5" y="-0.5" width="1" height="1" /></g>
<g transform="translate(58.496729 139.686448) rotate(383.240125) scale(105.147964 24.878893)"><ellipse fill="#a1c513" fill-opacity="0.501961" cx="0" cy="0" rx="1" ry="1" /></g>
<polygon fill="#a6d119" fill-opacity="0.501961" points="186,169 254,72 149,132" />
<g transform="translate(73.214458 65.454844) rotate(129.583315) scale(14.534416 24.432281)"><ellipse fill="#ffcdff" fill-opacity="0.501961" cx="0" cy="0" rx="1" ry="1" /></g>
<g transform="translate(241.855707 40.606699) rotate(217.884443) scale(32.723672 5.049218)"><ellipse fill="#a7bf03" fill-opacity="0.501961" cx="0" cy="0" rx="1" ry="1" /></g>
<g transform="translate(100.155443 119.220079) rotate(353.291625) scale(22.654417 3.749287)"><ellipse fill="#ffd5c7" fill-opacity="0.501961" cx="0" cy="0" rx="1" ry="1" /></g>
<ellipse fill="#a8717e" fill-opacity="0.501961" cx="77" cy="17" rx="22" ry="9" />
<g transform="translate(123.780472 143.709009) rotate(187.928328) scale(19.714827 30.731632)"><ellipse fill="#abde18" fill-opacity="0.501961" cx="0" cy="0" rx="1" ry="1" /></g>
<polygon fill="#401f07" fill-opacity="0.501961" points="135,119 135,93 165,126" />
<polygon fill="#ffd3ff" fill-opacity="0.501961" points="191,74 133,21 172,1" />
<polygon fill="#95c500" fill-opacity="0.501961" points="178,21 188,36 203,30" />
<polygon fill="#648023" fill-opacity="0.501961" points="75,172 34,123 59,132" />
<polygon fill="#ff79c2" fill-opacity="0.501961" points="137.553186,48.045619,165.262751,32.355001,176.753436,56.547079,115.579421,49.164096" />
<g transform="translate(22 19) rotate(276) scale(56 45)"><rect fill="#ffffff" fill-opacity="0.501961" x="-0.5" y="-0.5" width="1" height="1" /></g>
<polygon fill="#ffd2f3" fill-opacity="0.501961" points="54.473484,67.236173,120.690283,90.002412,101.571660,65.373563,42.424808,40.279711" />
<rect fill="#ff7beb" fill-opacity="0.501961" x="222" y="29" width="8" height="25" />
<polygon fill="#abbe9e" fill-opacity="0.501961" points="79.539191,11.495287,43.527260,50.164956,49.164311,34.554302,36.776824,24.788815" />
<g transform="translate(204 76) rotate(67) scale(8 68)"><rect fill="#fa86bf" fill-opacity="0.501961" x="-0.5" y="-0.5" width="1" height="1" /></g>
<g transform="translate(244.529943 110.423832) rotate(273.888058) scale(59.960373 20.660923)"><ellipse fill="#96bc1a" fill-opacity="0.501961" cx="0" cy="0" rx="1" ry="1" /></g>
<g transform="translate(197.411272 44.199211) rotate(153.603697) scale(21.795665 8.968564)"><ellipse fill="#ffffff" fill-opacity="0.501961" cx="0" cy="0" rx="1" ry="1" /></g>
<g transform="translate(190.778812 133.927671) rotate(34.866335) scale(33.065778 12.651900)"><ellipse fill="#9fc719" fill-opacity="0.501961" cx="0" cy="0" rx="1" ry="1" /></g>
<g transform="translate(109.757428 95.514114) rotate(104.947110) scale(9.703350 28.808906)"><ellipse fill="#db5d64" fill-opacity="0.501961" cx="0" cy="0" rx="1" ry="1" /></g>
<polygon fill="#a4d105" fill-opacity="0.501961" points="49.403195,44.207031,71.582789,46.639646,97.683436,52.533116,87.459241,31.807721" />
<g transform="translate(250 22) rotate(206) scale(187 22)"><rect fill="#ffffff" fill-opacity="0.501961" x="-0.5" y="-0.5" width="1" height="1" /></g>
<g transform="translate(104 34) rotate(11) scale(11 56)"><rect fill="#ffbce9" fill-opacity="0.501961" x="-0.5" y="-0.5" width="1" height="1" /></g>
<polygon fill="#fffeff" fill-opacity="0.501961" points="82.672006,-12.982476,74.332757,9.662770,-10.321847,29.729206,-2.501502,-13.411121" />
<ellipse fill="#b73250" fill-opacity="0.501961" cx="150" cy="73" rx="27" ry="17" />
<polygon fill="#8ab31a" fill-opacity="0.501961" points="76.959725,88.682975,31.209760,104.763326,-16.000000,105.617708,36.175902,53.003986" />
<g transform="translate(0 71) rotate(180) scale(5 32)"><rect fill="#c74689" fill-opacity="0.501961" x="-0.5" y="-0.5" width="1" height="1" /></g>
<g transform="translate(87 67) rotate(313) scale(15 36)"><rect fill="#ffffff" fill-opacity="0.501961" x="-0.5" y="-0.5" width="1" height="1" /></g>
<polygon fill="#e56ca0" fill-opacity="0.501961" points="105,41 151,49 105,77" />
<polygon fill="#9cd302" fill-opacity="0.501961" points="271,43 234,41 225,61" />
<rect fill="#8fba23" fill-opacity="0.501961" x="194" y="27" width="21" height="4" />
<polygon fill="#ffdef8" fill-opacity="0.501961" points="93.862929,121.934566,64.699694,92.407489,67.506946,104.347719,105.613975,117.399536" />
<ellipse fill="#fffeff" fill-opacity="0.501961" cx="174" cy="14" rx="6" ry="44" />
<ellipse fill="#d24358" fill-opacity="0.501961" cx="92" cy="96" rx="20" ry="13" />
<polygon fill="#f05976" fill-opacity="0.501961" points="51.168361,107.085986,53.121798,98.799426,68.042270,117.173350,72.237986,121.637295" />
<ellipse fill="#c86172" fill-opacity="0.501961" cx="85" cy="14" rx="14" ry="10" />
<g transform="translate(21.983584 120.906236) rotate(252.401162) scale(12.943535 35.098236)"><ellipse fill="#b6d420" fill-opacity="0.501961" cx="0" cy="0" rx="1" ry="1" /></g>
<polygon fill="#ffadea" fill-opacity="0.501961" points="221.993847,28.999267,218.005831,75.404907,234.733034,38.657259,201.602820,32.726969" />
<polygon fill="#f986c3" fill-opacity="0.501961" points="70.074315,83.653994,52.297355,63.663997,45.887335,44.738130,55.840853,47.586682" />
<polygon fill="#9e2834" fill-opacity="0.501961" points="196.620326,84.795177,166.143382,94.887662,184.181187,114.714918,220.486480,73.025615" />
<g transform="translate(158.366681 110.072570) rotate(310.171560) scale(4.041848 5.582849)"><ellipse fill="#d29565" fill-opacity="0.501961" cx="0" cy="0" rx="1" ry="1" /></g>
<polygon fill="#a8ce19" fill-opacity="0.501961" points="77.587191,46.801097,95.618983,62.756427,86.021424,21.594221,48.252594,42.879035" />
<rect fill="#a0c919" fill-opacity="0.501961" x="62" y="123" width="84" height="34" />
<polygon fill="#71281b" fill-opacity="0.501961" points="203.636022,99.575850,190.041584,112.460297,175.037045,111.124183,211.458990,79.821793" />
<ellipse fill="#ffcef2" fill-opacity="0.501961" cx="96" cy="31" rx="5" ry="10" />
<polygon fill="#ad704e" fill-opacity="0.501961" points="130,112 139,92 88,109" />
<g transform="translate(72.907869 13.021122) rotate(274.720986) scale(10.941034 6.736210)"><ellipse fill="#d098b4" fill-opacity="0.501961" cx="0" cy="0" rx="1" ry="1" /></g>
<g transform="translate(184.119824 35.864280) rotate(189.851013) scale(2.562987 7.442678)"><ellipse fill="#aac618" fill-opacity="0.501961" cx="0" cy="0" rx="1" ry="1" /></g>
<rect fill="#ffc8f1" fill-opacity="0.501961" x="62" y="93" width="11" height="18" />
<polygon fill="#e47aa8" fill-opacity="0.501961" points="214,69 228,77 206,100" />
<polygon fill="#ffffff" fill-opacity="0.501961" points="271,-1 138,-16 192,20" />
<polygon fill="#56421e" fill-opacity="0.501961" points="132.797287,88.028716,150.844804,154.941978,152.340288,96.551326,134.568492,120.560298" />
<polygon fill="#fcaad0" fill-opacity="0.501961" points="204,80 178,89 178,61" />
<polygon fill="#abd918" fill-opacity="0.501961" points="271.000000,46.622204,271.000000,40.039203,242.983692,45.130503,221.355322,22.874917" />
<polygon fill="#ffcfde" fill-opacity="0.501961" points="72,113 120,114 99,121" />
<g transform="translate(113.561380 15.438220) rotate(102.786358) scale(45.914374 7.516506)"><ellipse fill="#f8a3cf" fill-opacity="0.501961" cx="0" cy="0" rx="1" ry="1" /></g>
<polygon fill="#b23c44" fill-opacity="0.501961" points="107.346999,110.622047,108.264253,115.233075,90.060261,111.764199,73.934907,100.303202" />
<g transform="translate(1.834804 93.203975) rotate(93.963035) scale(20.281519 2.869039)"><ellipse fill="#8c8343" fill-opacity="0.501961" cx="0" cy="0" rx="1" ry="1" /></g>
<ellipse fill="#ad2029" fill-opacity="0.501961" cx="148" cy="59" rx="7" ry="7" />
<polygon fill="#e56592" fill-opacity="0.501961" points="105.848708,65.923789,130.380160,16.282864,130.145214,55.543304,120.180056,94.308614" />
<rect fill="#89c400" fill-opacity="0.501961" x="214" y="23" width="9" height="6" />
<rect fill="#fe58c3" fill-opacity="0.501961" x="136" y="9" width="7" height="5" />
<g transform="translate(116 136) rotate(334) scale(46 32)"><rect fill="#a9ce19" fill-opacity="0.501961" x="-0.5" y="-0.5" width="1" height="1" /></g>
<g transform="translate(194 50) rotate(61) scale(25 18)"><rect fill="#feffff" fill-opacity="0.501961" x="-0.5" y="-0.5" width="1" height="1" /></g>
<g transform="translate(105 95) rotate(101) scale(20 31)"><rect fill="#e05970" fill-opacity="0.501961" x="-0.5" y="-0.5" width="1" height="1" /></g>
<g transform="translate(189.169888 140.643574) rotate(240.747751) scale(29.184037 32.257655)"><ellipse fill="#a3c81a" fill-opacity="0.501961" cx="0" cy="0" rx="1" ry="1" /></g>
<ellipse fill="#7e1b25" fill-opacity="0.501961" cx="157" cy="122" rx="6" ry="6" />
<ellipse fill="#9cbf1d" fill-opacity="0.501961" cx="255" cy="129" rx="54" ry="54" />
<g transform="translate(16 68) rotate(127) scale(12 19)"><rect fill="#aed413" fill-opacity="0.501961" x="-0.5" y="-0.5" width="1" height="1" /></g>
<g transform="translate(170 85) rotate(19) scale(11 23)"><rect fill="#c94f6f" fill-opacity="0.501961" x="-0.5" y="-0.5" width="1" height="1" /></g>
<polygon fill="#d4e7c1" fill-opacity="0.501961" points="202.493332,30.578078,194.454464,19.577946,188.635042,28.457990,234.381300,9.778791" />
<polygon fill="#ff6fb6" fill-opacity="0.501961" points="159,54 106,33 148,33" />
<polygon fill="#98be18" fill-opacity="0.501961" points="49.583572,107.017488,82.830736,127.349200,91.887751,171.559453,58.889452,146.817009" />
<g transform="translate(101 57) rotate(344) scale(5 54)"><rect fill="#ffbdec" fill-opacity="0.501961" x="-0.5" y="-0.5" width="1" height="1" /></g>
<ellipse fill="#ffa9de" fill-opacity="0.501961" cx="164" cy="11" rx="6" ry="6" />
<g transform="translate(255.000000 5.051026) rotate(-43.451856) scale(26.283809 76.196290)"><ellipse fill="#ffffff" fill-opacity="0.501961" cx="0" cy="0" rx="1" ry="1" /></g>
<g transform="translate(54.197941 40.450471) rotate(235.955918) scale(2.057015 25.228111)"><ellipse fill="#a6c738" fill-opacity="0.501961" cx="0" cy="0" rx="1" ry="1" /></g>
<polygon fill="#ffffff" fill-opacity="0.501961" points="81,-16 183,-16 156,12" />
<g transform="translate(240 123) rotate(135) scale(37 28)"><rect fill="#8cb022" fill-opacity="0.501961" x="-0.5" y="-0.5" width="1" height="1" /></g>
<polygon fill="#a8be98" fill-opacity="0.501961" points="52.833141,37.875828,53.792851,18.276185,62.055961,8.004812,76.304722,23.937465" />
<g transform="translate(17.991568 156.000000) rotate(292.050823) scale(11.572545 26.556725)"><ellipse fill="#91ad1c" fill-opacity="0.501961" cx="0" cy="0" rx="1" ry="1" /></g>
<polygon fill="#ffd1f9" fill-opacity="0.501961" points="53.758617,51.077528,60.411473,66.355475,80.239774,53.761579,56.036947,43.744284" />
<g transform="translate(127 25) rotate(224) scale(9 8)"><rect fill="#ff4a8d" fill-opacity="0.501961" x="-0.5" y="-0.5" width="1" height="1" /></g>
<g transform="translate(81 97) rotate(56) scale(23 7)"><rect fill="#b7343f" fill-opacity="0.501961" x="-0.5" y="-0.5" width="1" height="1" /></g>
<g transform="translate(148 15) rotate(284) scale(5 28)"><rect fill="#fda5e4" fill-opacity="0.501961" x="-0.5" y="-0.5" width="1" height="1" /></g>
<polygon fill="#dc7393" fill-opacity="0.501961" points="96.651841,14.219713,112.185233,7.274700,116.370828,7.174998,78.227359,0.810999" />
<polygon fill="#ffaec4" fill-opacity="0.501961" points="99,60 103,79 123,90" />
<polygon fill="#ff8bb0" fill-opacity="0.501961" points="75.907883,121.611046,98.098299,123.033452,52.836538,102.118616,54.362919,108.223030" />
<polygon fill="#ffdcfb" fill-opacity="0.501961" points="181.962412,12.064618,153.230221,31.288821,160.461894,51.902749,131.988553,16.784077" />
<ellipse fill="#ffffff" fill-opacity="0.501961" cx="11" cy="26" rx="22" ry="27" />
<g transform="translate(123.176112 112.501853) rotate(65.647507) scale(1.000000 12.611245)"><ellipse fill="#cab797" fill-opacity="0.501961" cx="0" cy="0" rx="1" ry="1" /></g>
<polygon fill="#ffcdea" fill-opacity="0.501961" points="174.190888,88.006894,221.285168,46.179374,233.383003,47.844031,223.806571,60.834173" />
<rect fill="#b7d21f" fill-opacity="0.501961" x="203" y="100" width="17" height="23" />
<polygon fill="#fea1d1" fill-opacity="0.501961" points="164,24 172,42 158,49" />
<polygon fill="#dce9d4" fill-opacity="0.501961" points="42.196152,49.328514,61.389953,11.503277,35.914584,23.169728,41.966917,46.318258" />
<polygon fill="#de7ba1" fill-opacity="0.501961" points="204.931286,82.337231,240.438513,62.522777,196.869330,79.848674,192.128368,82.762070" />
<ellipse fill="#a2bc4b" fill-opacity="0.501961" cx="33" cy="106" rx="19" ry="3" />
<polygon fill="#ffabd6" fill-opacity="0.501961" points="75,85 82,81 60,66" />
<rect fill="#a0c81a" fill-opacity="0.501961" x="234" y="41" width="22" height="59" />
<g transform="translate(158 109) rotate(44) scale(15 5)"><rect fill="#c9805b" fill-opacity="0.501961" x="-0.5" y="-0.5" width="1" height="1" /></g>
<polygon fill="#87b31e" fill-opacity="0.501961" points="15.031334,56.599482,45.270560,47.286278,54.783181,75.019340,20.818545,61.192293" />
<polygon fill="#adce31" fill-opacity="0.501961" points="177.258963,17.240342,183.770037,33.422080,201.368779,34.001757,184.947298,19.897725" />
<g transform="translate(24.251768 134.501045) rotate(32.199091) scale(28.341767 8.549406)"><ellipse fill="#b4d21a" fill-opacity="0.501961" cx="0" cy="0" rx="1" ry="1" /></g>
<polygon fill="#daebc9" fill-opacity="0.501961" points="196.687117,24.767250,179.811968,20.546111,221.566482,17.599914,234.249152,18.999638" />
<polygon fill="#ffecff" fill-opacity="0.501961" points="211.239998,37.772551,223.220860,43.822085,213.290145,57.424400,182.758488,83.361612" />
<g transform="translate(73 105) rotate(159) scale(5 26)"><rect fill="#ffd3e9" fill-opacity="0.501961" x="-0.5" y="-0.5" width="1" height="1" /></g>
<g transform="translate(59.965700 99.968805) rotate(312.826567) scale(8.347127 4.533283)"><ellipse fill="#ff96ca" fill-opacity="0.501961" cx="0" cy="0" rx="1" ry="1" /></g>
<ellipse fill="#612012" fill-opacity="0.501961" cx="142" cy="108" rx="8" ry="9" />
<rect fill="#b2d51b" fill-opacity="0.501961" x="134" y="126" width="11" height="30" />
<polygon fill="#af9a51" fill-opacity="0.501961" points="96,17 91,27 77,26" />
<polygon fill="#ffffff" fill-opacity="0.501961" points="143.996542,-9.005058,91.719567,-16.000000,176.439227,24.177304,174.496180,41.839311" />
<polygon fill="#bb263d" fill-opacity="0.501961" points="173,59 126,64 152,52" />
<g transform="translate(255.000000 152.826535) rotate(226.980823) scale(15.756549 47.891798)"><ellipse fill="#afcd17" fill-opacity="0.501961" cx="0" cy="0" rx="1" ry="1" /></g>
<ellipse fill="#7fae1e" fill-opacity="0.501961" cx="57" cy="87" rx="15" ry="7" />
<polygon fill="#d88c90" fill-opacity="0.501961" points="7,59 2,70 -7,61" />
<g transform="translate(202.443637 90.074672) rotate(43.915241) scale(4.363479 11.877148)"><ellipse fill="#86212a" fill-opacity="0.501961" cx="0" cy="0" rx="1" ry="1" /></g>
<rect fill="#a9cf1a" fill-opacity="0.501961" x="153" y="129" width="35" height="27" />
<polygon fill="#c13147" fill-opacity="0.501961" points="182,97 195,84 161,97" />
<g transform="translate(74.293474 56.483320) rotate(128.839702) scale(7.629864 11.129043)"><ellipse fill="#feedfc" fill-opacity="0.501961" cx="0" cy="0" rx="1" ry="1" /></g>
<polygon fill="#ffc9e9" fill-opacity="0.501961" points="93,39 115,17 98,15" />
<polygon fill="#ff76d6" fill-opacity="0.501961" points="228.133269,37.148863,229.210709,32.905617,228.399800,28.714036,216.155497,31.135726" />
<g transform="translate(54.356756 48.587719) rotate(199.959742) scale(8.658744 2.825123)"><ellipse fill="#ff8dd3" fill-opacity="0.501961" cx="0" cy="0" rx="1" ry="1" /></g>
<g transform="translate(208 96) rotate(317) scale(12 1)"><rect fill="#ee96b2" fill-opacity="0.501961" x="-0.5" y="-0.5" width="1" height="1" /></g>
<polygon fill="#a2cf1d" fill-opacity="0.501961" points="58,30 90,31 96,50" />
<polygon fill="#b33950" fill-opacity="0.501961" points="139.921972,101.873219,128.270878,89.283031,119.856242,72.750065,163.673881,55.618455" />
<polygon fill="#ed7bb1" fill-opacity="0.501961" points="201,80 235,60 231,74" />
<rect fill="#8ec216" fill-opacity="0.501961" x="164" y="114" width="31" height="7" />
<g transform="translate(54.626035 142.360006) rotate(223.897926) scale(25.536942 3.282367)"><ellipse fill="#749221" fill-opacity="0.501961" cx="0" cy="0" rx="1" ry="1" /></g>
<polygon fill="#f3a0bc" fill-opacity="0.501961" points="177,75 172,92 191,67" />
<polygon fill="#a3bd5e" fill-opacity="0.501961" points="250.273070,126.110237,267.725514,121.755311,271.000000,113.785235,244.838944,124.850140" />
<polygon fill="#febfe4" fill-opacity="0.501961" points="177.950453,69.600763,194.314139,75.621332,167.671581,55.696117,182.235204,35.070608" />
<polygon fill="#fc6aaa" fill-opacity="0.501961" points="122,17 149,50 130,61" />
<g transform="translate(21.896016 86.736271) rotate(31.843447) scale(12.881807 22.655917)"><ellipse fill="#96c01a" fill-opacity="0.501961" cx="0" cy="0" rx="1" ry="1" /></g>
<g transform="translate(121.310439 148.547710) rotate(32.449449) scale(11.071842 33.312979)"><ellipse fill="#9fc51a" fill-opacity="0.501961" cx="0" cy="0" rx="1" ry="1" /></g>
<polygon fill="#823b21" fill-opacity="0.501961" points="153.478483,128.723018,166.408115,124.385937,164.440454,121.099910,147.259743,102.395528" />
<polygon fill="#a3c819" fill-opacity="0.501961" points="57,136 42,115 115,127" />
<rect fill="#485e23" fill-opacity="0.501961" x="146" y="117" width="7" height="40" />
<g transform="translate(212.592408 36.824943) rotate(83.729944) scale(6.462888 11.209451)"><ellipse fill="#fed9ff" fill-opacity="0.501961" cx="0" cy="0" rx="1" ry="1" /></g>
<ellipse fill="#9ac802" fill-opacity="0.501961" cx="184" cy="36" rx="3" ry="3" />
<polygon fill="#855325" fill-opacity="0.501961" points="162.567677,109.831445,149.029931,95.797286,183.012301,112.571926,169.956822,114.207515" />
<polygon fill="#cc6263" fill-opacity="0.501961" points="99.078142,110.339256,79.033015,99.298454,136.810362,101.206304,124.879885,83.380998" />
<g transform="translate(76.284302 110.250413) rotate(26.235776) scale(17.553751 4.675571)"><ellipse fill="#ffcadd" fill-opacity="0.501961" cx="0" cy="0" rx="1" ry="1" /></g>
<polygon fill="#84ae22" fill-opacity="0.501961" points="48.597038,110.348851,61.039074,83.891508,75.062794,89.632608,24.462054,95.962155" />
<rect fill="#da7da8" fill-opacity="0.501961" x="107" y="38" width="7" height="28" />
<polygon fill="#a7ca1f" fill-opacity="0.501961" points="179.568963,23.699617,183.698510,40.000946,204.566723,30.259278,186.952575,25.457511" />
<ellipse fill="#b35449" fill-opacity="0.501961" cx="107" cy="108" rx="20" ry="6" />
<polygon fill="#ee91b4" fill-opacity="0.501961" points="103,-15 126,11 55,-11" />
<polygon fill="#ffffff" fill-opacity="0.501961" points="-16.000000,46.696182,59.318889,-16.000000,74.950656,4.272688,58.506680,6.920818" />
<g transform="translate(231 41) rotate(287) scale(7 6)"><rect fill="#ff74b6" fill-opacity="0.501961" x="-0.5" y="-0.5" width="1" height="1" /></g>
<g transform="translate(200.779842 48.600079) rotate(213.043464) scale(13.874200 17.427821)"><ellipse fill="#fcf4fc" fill-opacity="0.501961" cx="0" cy="0" rx="1" ry="1" /></g>
<polygon fill="#a6d01a" fill-opacity="0.501961" points="92.387863,59.884193,95.763622,47.711251,54.618682,42.149409,62.722682,33.307305" />
<polygon fill="#9ac220" fill-opacity="0.501961" points="219.626335,97.141235,194.157573,120.169272,244.585807,58.573704,231.081722,123.442614" />
<rect fill="#5e141a" fill-opacity="0.501961" x="134" y="111" width="10" height="9" />
<polygon fill="#cf5d7c" fill-opacity="0.501961" points="85,0 77,15 100,12" />
<polygon fill="#ffffff" fill-opacity="0.501961" points="222.589756,15.667579,123.518353,-1.292307,133.178842,11.874472,179.466035,-16.000000" />
<g transform="translate(118.308170 70.800170) rotate(445.017507) scale(11.591130 8.362570)"><ellipse fill="#ce6083" fill-opacity="0.501961" cx="0" cy="0" rx="1" ry="1" /></g>
<polygon fill="#ffd0ed" fill-opacity="0.501961" points="79,109 58,99 69,92" />
<polygon fill="#abc91d" fill-opacity="0.501961" points="249.420489,48.439267,250.882507,37.281444,234.188070,40.680619,227.480364,62.129858" />
<polygon fill="#9bc31a" fill-opacity="0.501961" points="160.006334,145.659587,179.486327,137.271814,151.368949,128.754814,156.150503,172.000000" />
<polygon fill="#fba1e2" fill-opacity="0.501961" points="139,7 159,17 132,16" />
<polygon fill="#fcfffc" fill-opacity="0.501961" points="34.125467,51.247373,46.345178,34.739471,-16.000000,32.953425,39.747840,49.130594" />
<g transform="translate(171.064158 70.634517) rotate(99.337780) scale(11.419904 5.642175)"><ellipse fill="#cd4074" fill-opacity="0.501961" cx="0" cy="0" rx="1" ry="1" /></g>
<g transform="translate(122 114) rotate(59) scale(1 16)"><rect fill="#d1b19f" fill-opacity="0.501961" x="-0.5" y="-0.5" width="1" height="1" /></g>
<g transform="translate(104.989768 88.967192) rotate(14.286891) scale(9.513954 4.448847)"><ellipse fill="#e64870" fill-opacity="0.501961" cx="0" cy="0" rx="1" ry="1" /></g>
<polygon fill="#946538" fill-opacity="0.501961" points="137,99 127,109 115,110" />
<polygon fill="#fe7cbb" fill-opacity="0.501961" points="144,32 160,54 131,43" />
<polygon fill="#eb9dcd" fill-opacity="0.501961" points="215,59 201,77 217,69" />
<g transform="translate(98.579620 62.460403) rotate(245.162801) scale(11.621008 2.806265)"><ellipse fill="#fdb1e2" fill-opacity="0.501961" cx="0" cy="0" rx="1" ry="1" /></g>
<polygon fill="#7a981c" fill-opacity="0.501961" points="35.301187,172.000000,-16.000000,152.199085,-16.000000,140.424976,2.202213,150.172714" />
<g transform="translate(165.047003 9.098250) rotate(331.004742) scale(5.136772 2.646002)"><ellipse fill="#fca4d3" fill-opacity="0.501961" cx="0" cy="0" rx="1" ry="1" /></g>
<polygon fill="#ebccc9" fill-opacity="0.501961" points="-16.000000,24.586132,10.045167,62.304074,-16.000000,45.621057,-16.000000,52.205478" />
<g transform="translate(234.941760 2.950569) rotate(224.590909) scale(34.866695 17.837361)"><ellipse fill="#ffffff" fill-opacity="0.501961" cx="0" cy="0" rx="1" ry="1" /></g>
<polygon fill="#4c471c" fill-opacity="0.501961" points="147.977062,120.674111,139.179879,122.508646,151.572451,128.488689,160.585253,128.381679" />
<polygon fill="#d66c88" fill-opacity="0.501961" points="165.437417,93.322519,171.903911,93.183118,178.058567,91.760147,209.873962,77.947686" />
<rect fill="#9bbd0c" fill-opacity="0.501961" x="211" y="28" width="11" height="2" />
<g transform="translate(104.903659 100.332991) rotate(157.029120) scale(14.151442 8.581433)"><ellipse fill="#d35b68" fill-opacity="0.501961" cx="0" cy="0" rx="1" ry="1" /></g>
<path stroke="#c9eb96" stroke-opacity="0.501961" fill="none" d="M 271.000000 50.189971 Q 238.371445 28.008854, 212.413992 16.361439" stroke-width="0.500000" />
<polygon fill="#fdfcfc" fill-opacity="0.501961" points="82.706457,52.962154,96.763136,64.309715,101.820592,79.676528,69.851284,55.285349" />
<rect fill="#7b1314" fill-opacity="0.501961" x="147" y="53" width="5" height="4" />
<polygon fill="#88ba15" fill-opacity="0.501961" points="185,117 211,104 199,104" />
<polygon fill="#aed219" fill-opacity="0.501961" points="125,136 93,127 130,113" />
<polygon fill="#abc156" fill-opacity="0.501961" points="53.264947,37.707480,59.237885,29.577297,79.893153,24.528164,86.481348,26.438651" />
<polygon fill="#973e41" fill-opacity="0.501961" points="144,100 172,95 129,88" />
<g transform="translate(239.917064 82.604238) rotate(202.005404) scale(11.576702 40.854740)"><ellipse fill="#9bc31d" fill-opacity="0.501961" cx="0" cy="0" rx="1" ry="1" /></g>
<polygon fill="#fcd0db" fill-opacity="0.501961" points="120,-16 132,14 118,3" />
<polygon fill="#fddcf5" fill-opacity="0.501961" points="154.584838,41.720063,157.237305,29.311164,124.768137,16.709825,147.745393,35.231886" />
<polygon fill="#d7f0b2" fill-opacity="0.501961" points="253.058084,36.765281,220.583686,21.575892,229.177991,30.303868,210.521815,11.341649" />
<ellipse fill="#bb5e64" fill-opacity="0.501961" cx="87" cy="16" rx="6" ry="6" />
<polygon fill="#4a2013" fill-opacity="0.501961" points="131,111 142,105 139,101" />
<polygon fill="#e190b6" fill-opacity="0.501961" points="71.328577,9.897992,72.994480,2.536427,67.048641,3.972760,118.415705,-16.000000" />
<rect fill="#b22e47" fill-opacity="0.501961" x="73" y="87" width="6" height="12" />
<polygon fill="#ff7cbf" fill-opacity="0.501961" points="114.789042,29.068666,114.027224,9.227523,134.945269,40.355195,149.198001,39.361782" />
<polygon fill="#ea629c" fill-opacity="0.501961" points="124,69 138,50 118,29" />
<polygon fill="#72272b" fill-opacity="0.501961" points="207,92 202,90 210,78" />
<g transform="translate(228 32) rotate(326) scale(1 7)"><rect fill="#ff3c99" fill-opacity="0.501961" x="-0.5" y="-0.5" width="1" height="1" /></g>
<polygon fill="#6c2e18" fill-opacity="0.501961" points="136,99 150,103 141,117" />
<ellipse fill="#fed1ee" fill-opacity="0.501961" cx="180" cy="56" rx="4" ry="14" />
<rect fill="#ff7cc2" fill-opacity="0.501961" x="47" y="45" width="17" height="2" />
<polygon fill="#d77693" fill-opacity="0.501961" points="207.061143,99.008996,212.791729,77.747284,203.439921,79.334360,226.885748,81.999696" />
<ellipse fill="#fefeff" fill-opacity="0.501961" cx="174" cy="40" rx="3" ry="13" />
<rect fill="#ffd5ed" fill-opacity="0.501961" x="81" y="76" width="24" height="7" />
<polygon fill="#edf4eb" fill-opacity="0.501961" points="208.732825,25.027632,185.477018,19.148655,228.100158,12.520710,212.473791,18.671525" />
<rect fill="#2f4017" fill-opacity="0.501961" x="147" y="113" width="3" height="28" />
<polygon fill="#f767a7" fill-opacity="0.501961" points="135,58 122,19 145,53" />
<polygon fill="#aace24" fill-opacity="0.501961" points="215.827908,21.788786,213.559124,30.314293,225.835694,22.902603,271.000000,53.045438" />
<g transform="translate(192 147) rotate(20) scale(4 39)"><rect fill="#93b81a" fill-opacity="0.501961" x="-0.5" y="-0.5" width="1" height="1" /></g>
<path stroke="#da686a" stroke-opacity="0.501961" fill="none" d="M 53.890226 106.197762 Q 54.758419 112.723131, 85.059091 123.754676" stroke-width="0.500000" />
<g transform="translate(232 61) rotate(319) scale(5 1)"><rect fill="#f7659a" fill-opacity="0.501961" x="-0.5" y="-0.5" width="1" height="1" /></g>
<polygon fill="#fdbde9" fill-opacity="0.501961" points="213.340841,75.839438,230.854184,46.519971,220.443662,31.635695,216.717322,49.571413" />
<polygon fill="#b73942" fill-opacity="0.501961" points="76,92 77,102 90,110" />
<rect fill="#de385c" fill-opacity="0.501961" x="82" y="84" width="18" height="7" />
<polygon fill="#8caf1a" fill-opacity="0.501961" points="53.057899,151.716495,65.169099,147.323594,95.840143,172.000000,55.140621,172.000000" />
<ellipse fill="#ffdbde" fill-opacity="0.501961" cx="98" cy="116" rx="17" ry="2" />
<polygon fill="#acc02b" fill-opacity="0.501961" points="219,114 225,107 245,124" />
<polygon fill="#84a73d" fill-opacity="0.501961" points="5.873523,112.874041,-10.166064,116.385724,-16.000000,83.660601,5.864771,100.573801" />
<polygon fill="#a5c919" fill-opacity="0.501961" points="178.373745,148.162199,161.334740,114.793087,172.434262,119.960889,224.916272,114.984668" />
<polygon fill="#cbc886" fill-opacity="0.501961" points="-16.000000,80.264394,19.119231,52.946560,3.729253,58.481811,7.573253,61.679337" />
<polygon fill="#ffcef1" fill-opacity="0.501961" points="104,63 100,36 97,52" />
<polygon fill="#edefe3" fill-opacity="0.501961" points="45.534475,43.782825,45.312596,15.890075,77.239724,2.227026,30.737392,21.519357" />
<g transform="translate(118.440026 86.967132) rotate(26.526765) scale(5.060059 1.923120)"><ellipse fill="#f69884" fill-opacity="0.501961" cx="0" cy="0" rx="1" ry="1" /></g>
<polygon fill="#adc99e" fill-opacity="0.501961" points="253,123 271,100 271,123" />
<polygon fill="#aba13c" fill-opacity="0.501961" points="2.718652,67.557632,2.201921,89.205065,5.213294,87.551669,7.617050,60.603881" />
<ellipse fill="#f95384" fill-opacity="0.501961" cx="125" cy="22" rx="4" ry="4" />
<polygon fill="#fbc5cc" fill-opacity="0.501961" points="192,75 172,86 181,87" />
<polygon fill="#6d2c1a" fill-opacity="0.501961" points="202.399763,97.241341,184.931224,108.803990,190.362253,110.961362,200.559415,103.374910" />
<polygon fill="#aca291" fill-opacity="0.501961" points="88.415891,22.200107,55.925126,29.952777,63.922900,15.152423,84.331986,22.709147" />
<polygon fill="#cf7c7d" fill-opacity="0.501961" points="102,8 96,19 90,13" />
<polygon fill="#fdf5fb" fill-opacity="0.501961" points="179.540471,60.707197,187.864080,38.804256,217.584640,37.943506,184.702153,63.188039" />
<polygon fill="#ffffff" fill-opacity="0.501961" points="271.000000,-2.835187,168.257402,-8.990017,176.350190,16.229077,263.665463,16.521705" />
<polygon fill="#b77238" fill-opacity="0.501961" points="152,109 151,97 156,108" />
<polygon fill="#91b31b" fill-opacity="0.501961" points="233,122 260,127 198,172" />
<g transform="translate(50 52) rotate(-20) scale(3 12)"><rect fill="#f883c3" fill-opacity="0.501961" x="-0.5" y="-0.5" width="1" height="1" /></g>
<polygon fill="#afc745" fill-opacity="0.501961" points="37.465251,107.070726,24.056187,103.785553,-16.000000,125.981355,-16.000000,113.059873" />
<rect fill="#e9b1c7" fill-opacity="0.501961" x="104" y="32" width="2" height="34" />
<polygon fill="#ffc7ed" fill-opacity="0.501961" points="71.806540,47.340447,58.073328,45.917984,56.005355,48.224300,60.162526,71.154313" />
<polygon fill="#a5bf37" fill-opacity="0.501961" points="210.380706,96.446053,186.650650,116.239813,179.484833,114.299880,213.416840,101.974498" />
<polygon fill="#fdaddc" fill-opacity="0.501961" points="99.479292,13.960141,101.789168,21.524599,124.147983,19.038098,129.687940,15.194754" />
<polygon fill="#ab273b" fill-opacity="0.501961" points="123.567221,70.959007,135.552948,59.593233,151.821404,53.884656,141.357033,60.614842" />
<g transform="translate(49.719235 39.468413) rotate(230.561288) scale(1.912518 7.744081)"><ellipse fill="#c7e292" fill-opacity="0.501961" cx="0" cy="0" rx="1" ry="1" /></g>
<g transform="translate(138.387598 10.583514) rotate(234.758854) scale(1.391259 3.983188)"><ellipse fill="#f97bbc" fill-opacity="0.501961" cx="0" cy="0" rx="1" ry="1" /></g>
<rect fill="#abcf1a" fill-opacity="0.501961" x="11" y="112" width="47" height="13" />
<g transform="translate(168 156) rotate(41) scale(14 46)"><rect fill="#b0d21a" fill-opacity="0.501961" x="-0.5" y="-0.5" width="1" height="1" /></g>
<g transform="translate(56 24) rotate(125) scale(14 7)"><rect fill="#b7c1b0" fill-opacity="0.501961" x="-0.5" y="-0.5" width="1" height="1" /></g>
<polygon fill="#fea6d6" fill-opacity="0.501961" points="164.668424,25.431873,155.769311,50.482676,172.972040,59.239068,170.923732,40.162373" />
<g transform="translate(251.236743 37.560964) rotate(219.290486) scale(11.423084 1.000000)"><ellipse fill="#cce58d" fill-opacity="0.501961" cx="0" cy="0" rx="1" ry="1" /></g>
<polygon fill="#fbcaf4" fill-opacity="0.501961" points="170,5 179,19 165,10" />
<polygon fill="#8ab520" fill-opacity="0.501961" points="64.147353,93.025983,20.476743,55.324562,28.600728,49.304847,70.638802,83.789637" />
<rect fill="#fc98c9" fill-opacity="0.501961" x="103" y="8" width="23" height="7" />
<g transform="translate(133 113) rotate(29) scale(1 3)"><rect fill="#f36c88" fill-opacity="0.501961" x="-0.5" y="-0.5" width="1" height="1" /></g>
<polygon fill="#8bb320" fill-opacity="0.501961" points="51.182822,104.402599,31.615051,54.754684,47.872208,44.714255,40.475198,71.936194" />
<rect fill="#7d882e" fill-opacity="0.501961" x="145" y="134" width="2" height="21" />
<polygon fill="#9ec41a" fill-opacity="0.501961" points="152.763491,161.643299,157.052662,172.000000,152.052570,131.448577,187.081095,114.546630" />
<polygon fill="#b5815d" fill-opacity="0.501961" points="133,108 125,94 134,97" />
<g transform="translate(185 39) rotate(230) scale(1 8)"><rect fill="#9bcc09" fill-opacity="0.501961" x="-0.5" y="-0.5" width="1" height="1" /></g>
<polygon fill="#97bb1b" fill-opacity="0.501961" points="122.259171,160.895519,134.548040,114.705709,124.420190,139.579395,111.308404,142.576667" />
<polygon fill="#ef7db0" fill-opacity="0.501961" points="222.279998,60.174029,213.365799,89.381938,209.601409,76.336789,225.171189,66.699798" />
<polygon fill="#708d22" fill-opacity="0.501961" points="59.582593,148.976338,53.085374,134.887753,40.871941,130.743387,76.077692,172.000000" />
<polygon fill="#a9cb1c" fill-opacity="0.501961" points="247.157664,50.775323,230.940021,36.318957,242.729097,32.319066,224.533820,63.409585" />
<g transform="translate(3.982257 24.285241) rotate(126.237751) scale(23.608646 32.500452)"><ellipse fill="#ffffff" fill-opacity="0.501961" cx="0" cy="0" rx="1" ry="1" /></g>
<polygon fill="#a02230" fill-opacity="0.501961" points="192.146508,101.039180,185.133533,99.174179,193.143020,84.819169,208.925323,82.963180" />
<polygon fill="#8fbc1b" fill-opacity="0.501961" points="271.000000,118.436472,239.036958,119.532040,213.203479,93.194321,258.661434,108.966929" />
<path stroke="#ce757d" stroke-opacity="0.501961" fill="none" d="M 109.596716 95.209449 Q 55.548672 84.455589, 47.187742 51.043494" stroke-width="0.500000" />
<polygon fill="#ffffff" fill-opacity="0.501961" points="126.517592,-16.000000,130.264916,13.632220,178.597499,-16.000000,154.029273,10.195362" />
<g transform="translate(170.152888 21.698449) rotate(28.745949) scale(9.435813 6.485192)"><ellipse fill="#feefff" fill-opacity="0.501961" cx="0" cy="0" rx="1" ry="1" /></g>
<g transform="translate(150 65) rotate(351) scale(1 28)"><rect fill="#a12a33" fill-opacity="0.501961" x="-0.5" y="-0.5" width="1" height="1" /></g>
<g transform="translate(83 44) rotate(47) scale(28 8)"><rect fill="#a4d01a" fill-opacity="0.501961" x="-0.5" y="-0.5" width="1" height="1" /></g>
</g>
</svg>