<svg xmlns="http://www.w3.org/2000/svg" version="1.1" width="1024" height="680">
<rect x="0" y="0" width="1024" height="680" fill="#7a797d" />
<g transform="scale(4.000000) translate(0.5 0.5)">
<ellipse fill="#000000" fill-opacity="0.501961" cx="101" cy="15" rx="254" ry="22" />
<polygon fill="#f2e8f1" fill-opacity="0.501961" points="-15,172 239,81 271,168" />
<g transform="translate(233.262550 19.921842) rotate(48.404336) scale(142.836532 27.257047)"><ellipse fill="#000000" fill-opacity="0.501961" cx="0" cy="0" rx="1" ry="1" /></g>
<g transform="translate(16.184455 111.342624) rotate(272.830522) scale(50.013231 23.612952)"><ellipse fill="#dddbe5" fill-opacity="0.501961" cx="0" cy="0" rx="1" ry="1" /></g>
<g transform="translate(20.039367 15.049444) rotate(69.023973) scale(35.144903 126.196773)"><ellipse fill="#000000" fill-opacity="0.501961" cx="0" cy="0" rx="1" ry="1" /></g>
<g transform="translate(133.549268 109.820839) rotate(-39.642036) scale(19.001606 39.666891)"><ellipse fill="#352214" fill-opacity="0.501961" cx="0" cy="0" rx="1" ry="1" /></g>
<g transform="translate(100.028729 127.296646) rotate(62.477553) scale(35.171002 16.631585)"><ellipse fill="#fff9f9" fill-opacity="0.501961" cx="0" cy="0" rx="1" ry="1" /></g>
<g transform="translate(197.737668 67.408289) rotate(49.540098) scale(47.969160 27.183320)"><ellipse fill="#cbc0ca" fill-opacity="0.501961" cx="0" cy="0" rx="1" ry="1" /></g>
<ellipse fill="#311704" fill-opacity="0.501961" cx="53" cy="97" rx="17" ry="25" />
<polygon fill="#fef9ff" fill-opacity="0.501961" points="87,104 86,65 46,42" />
<g transform="translate(193.915950 126.701818) rotate(25.385913) scale(25.647806 37.074992)"><ellipse fill="#e8e4ec" fill-opacity="0.501961" cx="0" cy="0" rx="1" ry="1" /></g>
<rect fill="#281e14" fill-opacity="0.501961" x="144" y="49" width="16" height="61" />
<g transform="translate(111.773244 43.981513) rotate(22.118329) scale(29.478144 8.683596)"><ellipse fill="#d6d0cf" fill-opacity="0.501961" cx="0" cy="0" rx="1" ry="1" /></g>
<polygon fill="#282021" fill-opacity="0.501961" points="202.414314,88.027680,205.562758,51.895631,190.072834,41.704038,190.446715,58.498193" />
<g transform="translate(85.432527 8.161227) rotate(355.045536) scale(204.246372 16.622486)"><ellipse fill="#000208" fill-opacity="0.501961" cx="0" cy="0" rx="1" ry="1" /></g>
<rect fill="#4a3b28" fill-opacity="0.501961" x="89" y="54" width="33" height="40" />
<polygon fill="#f2e9eb" fill-opacity="0.501961" points="193,98 181,33 172,70" />
<polygon fill="#8c8b96" fill-opacity="0.501961" points="22,162 134,161 12,124" />
<g transform="translate(134.279497 100.346139) rotate(316.200781) scale(7.601088 31.414686)"><ellipse fill="#9f897e" fill-opacity="0.501961" cx="0" cy="0" rx="1" ry="1" /></g>
<g transform="translate(166.614392 86.675232) rotate(49.904581) scale(27.548338 10.568944)"><ellipse fill="#544846" fill-opacity="0.501961" cx="0" cy="0" rx="1" ry="1" /></g>
<g transform="translate(255.000000 26.041751) rotate(66.367234) scale(29.643315 34.195642)"><ellipse fill="#00050b" fill-opacity="0.501961" cx="0" cy="0" rx="1" ry="1" /></g>
<polygon fill="#1c2c3d" fill-opacity="0.501961" points="52.388969,47.969912,8.212212,29.317544,44.370290,68.043637,57.641060,71.840925" />
<polygon fill="#ebe0e0" fill-opacity="0.501961" points="72,113 79,139 61,131" />
<ellipse fill="#001b3f" fill-opacity="0.501961" cx="11" cy="160" rx="69" ry="2" />
<rect fill="#24170e" fill-opacity="0.501961" x="48" y="92" width="11" height="45" />
<polygon fill="#d5d9f5" fill-opacity="0.501961" points="139,78 129,55 120,77" />
<ellipse fill="#e7e5ec" fill-opacity="0.501961" cx="30" cy="97" rx="5" ry="39" />
<g transform="translate(15.606847 84.222427) rotate(270.873578) scale(3.801053 21.801550)"><ellipse fill="#278ee1" fill-opacity="0.501961" cx="0" cy="0" rx="1" ry="1" /></g>
<rect fill="#e6ddde" fill-opacity="0.501961" x="83" y="113" width="29" height="46" />
<polygon fill="#132e32" fill-opacity="0.501961" points="176,54 138,51 133,69" />
<rect fill="#f1e5e8" fill-opacity="0.501961" x="3" y="87" width="15" height="38" />
<g transform="translate(80 140) rotate(258) scale(23 3)"><rect fill="#000000" fill-opacity="0.501961" x="-0.5" y="-0.5" width="1" height="1" /></g>
<g transform="translate(130.026872 119.116893) rotate(140.895876) scale(10.303815 32.457175)"><ellipse fill="#3b3430" fill-opacity="0.501961" cx="0" cy="0" rx="1" ry="1" /></g>
<polygon fill="#8c644b" fill-opacity="0.501961" points="80,92 51,75 80,128" />
<g transform="translate(142.032334 39.285956) rotate(272.092436) scale(7.818075 67.667129)"><ellipse fill="#9799a2" fill-opacity="0.501961" cx="0" cy="0" rx="1" ry="1" /></g>
<g transform="translate(77.314735 67.874765) rotate(343.115964) scale(12.276698 19.298856)"><ellipse fill="#c0c0d1" fill-opacity="0.501961" cx="0" cy="0" rx="1" ry="1" /></g>
<ellipse fill="#fcf5f7" fill-opacity="0.501961" cx="46" cy="145" rx="18" ry="3" />
<rect fill="#724a0e" fill-opacity="0.501961" x="19" y="94" width="3" height="54" />
<rect fill="#8d878e" fill-opacity="0.501961" x="134" y="127" width="12" height="39" />
<polygon fill="#e3dad9" fill-opacity="0.501961" points="8.262480,156.308540,74.434579,158.650095,27.496053,151.121469,4.611356,148.521270" />
<g transform="translate(196 33) rotate(204) scale(66 12)"><rect fill="#586571" fill-opacity="0.501961" x="-0.5" y="-0.5" width="1" height="1" /></g>
<polygon fill="#b0a8b5" fill-opacity="0.501961" points="271,117 207,46 256,185" />
<polygon fill="#495c72" fill-opacity="0.501961" points="-3.474071,93.232832,-16.000000,57.020609,127.779789,23.700011,42.126069,34.950921" />
<ellipse fill="#dbd4d7" fill-opacity="0.501961" cx="179" cy="46" rx="12" ry="12" />
<g transform="translate(29.532781 10.949341) rotate(83.243207) scale(21.482266 39.627383)"><ellipse fill="#000000" fill-opacity="0.501961" cx="0" cy="0" rx="1" ry="1" /></g>
<polygon fill="#494344" fill-opacity="0.501961" points="105.782171,48.770056,97.353473,106.716642,71.672003,77.681542,82.958003,90.947308" />
<ellipse fill="#100800" fill-opacity="0.501961" cx="162" cy="139" rx="4" ry="4" />
<polygon fill="#a39592" fill-opacity="0.501961" points="46.237340,142.693103,32.387028,93.046909,39.187588,101.684705,54.509866,137.448595" />
<polygon fill="#1f1912" fill-opacity="0.501961" points="67.776303,146.109594,66.020296,104.559698,58.090018,102.263663,73.752600,144.180534" />
<polygon fill="#e1d7d9" fill-opacity="0.501961" points="154,114 158,144 149,123" />
<g transform="translate(69 85) rotate(332) scale(7 17)"><rect fill="#133162" fill-opacity="0.501961" x="-0.5" y="-0.5" width="1" height="1" /></g>
<rect fill="#dbd6dc" fill-opacity="0.501961" x="165" y="114" width="52" height="45" />
<polygon fill="#deab88" fill-opacity="0.501961" points="70.266685,107.572709,75.654031,101.521608,59.621212,90.123380,65.123747,102.362649" />
<g transform="translate(76 111) rotate(262) scale(20 2)"><rect fill="#090000" fill-opacity="0.501961" x="-0.5" y="-0.5" width="1" height="1" /></g>
<g transform="translate(170 69) rotate(273) scale(12 13)"><rect fill="#fae3e4" fill-opacity="0.501961" x="-0.5" y="-0.5" width="1" height="1" /></g>
<rect fill="#003ca3" fill-opacity="0.501961" x="117" y="57" width="10" height="11" />
<polygon fill="#443f3f" fill-opacity="0.501961" points="161.089869,108.367679,180.501660,105.181809,153.948397,111.926671,160.236073,142.298085" />
<g transform="translate(87.162731 24.364641) rotate(58.358389) scale(8.731623 36.775654)"><ellipse fill="#34454e" fill-opacity="0.501961" cx="0" cy="0" rx="1" ry="1" /></g>
<polygon fill="#3c5168" fill-opacity="0.501961" points="239,47 240,88 266,91" />
<g transform="translate(63.543236 131.945909) rotate(352.217543) scale(1.667924 15.335999)"><ellipse fill="#ded6dd" fill-opacity="0.501961" cx="0" cy="0" rx="1" ry="1" /></g>
<ellipse fill="#233656" fill-opacity="0.501961" cx="56" cy="151" rx="15" ry="2" />
<polygon fill="#1f1b15" fill-opacity="0.501961" points="97.051885,51.483471,105.390306,63.706972,93.497155,80.381091,92.456776,78.932848" />
<polygon fill="#cac4cd" fill-opacity="0.501961" points="242.342179,93.910451,220.944870,156.445645,187.475116,106.695223,181.653143,82.766876" />
<rect fill="#1a2538" fill-opacity="0.501961" x="36" y="57" width="3" height="42" />
<polygon fill="#c7c2cc" fill-opacity="0.501961" points="91.035601,75.018220,81.183322,78.053197,59.277927,73.066333,47.502076,39.904934" />
<g transform="translate(200 66) rotate(266) scale(27 12)"><rect fill="#4d4340" fill-opacity="0.501961" x="-0.5" y="-0.5" width="1" height="1" /></g>
<polygon fill="#cdb24c" fill-opacity="0.501961" points="113,72 107,68 118,50" />
<polygon fill="#ccc4cc" fill-opacity="0.501961" points="140.586931,44.908580,123.954581,42.980578,108.176830,42.895832,133.976395,61.983029" />
<polygon fill="#a9a6b5" fill-opacity="0.501961" points="32.018594,86.062666,45.603809,86.780991,22.016510,58.796930,35.075326,52.748579" />
<g transform="translate(72.742118 49.187424) rotate(343.545767) scale(10.026379 14.588944)"><ellipse fill="#808596" fill-opacity="0.501961" cx="0" cy="0" rx="1" ry="1" /></g>
<polygon fill="#7c7576" fill-opacity="0.501961" points="175.788424,82.057492,148.628512,95.699284,175.567732,109.967638,186.658836,113.674989" />
<polygon fill="#ffd895" fill-opacity="0.501961" points="151.238466,40.956083,156.938035,42.745357,158.795250,46.486206,140.757067,44.762330" />
<rect fill="#dcd6d8" fill-opacity="0.501961" x="81" y="108" width="28" height="32" />
<rect fill="#8a797b" fill-opacity="0.501961" x="93" y="82" width="12" height="27" />
<ellipse fill="#504848" fill-opacity="0.501961" cx="143" cy="79" rx="34" ry="3" />
<polygon fill="#38302a" fill-opacity="0.501961" points="131.841196,110.139896,131.395112,132.605797,123.884567,130.371086,103.083728,100.611430" />
<ellipse fill="#cac4ca" fill-opacity="0.501961" cx="79" cy="168" rx="143" ry="6" />
<polygon fill="#c6bfc3" fill-opacity="0.501961" points="116,159 129,133 56,157" />
<polygon fill="#a099a2" fill-opacity="0.501961" points="259.776330,171.601132,205.883657,159.339686,227.899475,158.648985,259.028682,98.378505" />
<polygon fill="#000000" fill-opacity="0.501961" points="53,135 51,117 60,139" />
<polygon fill="#1d140d" fill-opacity="0.501961" points="140.395146,117.068425,141.151000,114.120249,152.953905,141.361302,136.010710,119.553228" />
<g transform="translate(144.194396 33.159438) rotate(82.188255) scale(6.444356 28.270604)"><ellipse fill="#4a5863" fill-opacity="0.501961" cx="0" cy="0" rx="1" ry="1" /></g>
<g transform="translate(19 132) rotate(277) scale(26 2)"><rect fill="#4e3a2e" fill-opacity="0.501961" x="-0.5" y="-0.5" width="1" height="1" /></g>
<polygon fill="#ddba77" fill-opacity="0.501961" points="122.924030,51.156477,92.408303,52.419714,93.732238,47.201537,105.285924,46.484894" />
<polygon fill="#beb3b7" fill-opacity="0.501961" points="133,124 144,132 148,144" />
<ellipse fill="#191009" fill-opacity="0.501961" cx="78" cy="124" rx="2" ry="11" />
<g transform="translate(205.583260 10.665498) rotate(130.927559) scale(15.453758 36.134074)"><ellipse fill="#17292f" fill-opacity="0.501961" cx="0" cy="0" rx="1" ry="1" /></g>
<polygon fill="#847782" fill-opacity="0.501961" points="196,84 217,81 179,55" />
<g transform="translate(168.735358 83.488396) rotate(307.840225) scale(7.982207 19.916647)"><ellipse fill="#645551" fill-opacity="0.501961" cx="0" cy="0" rx="1" ry="1" /></g>
<polygon fill="#242221" fill-opacity="0.501961" points="51,80 35,96 47,111" />
<g transform="translate(172.608871 124.303282) rotate(62.673326) scale(12.419287 12.544934)"><ellipse fill="#dbd6db" fill-opacity="0.501961" cx="0" cy="0" rx="1" ry="1" /></g>
<polygon fill="#ddd7db" fill-opacity="0.501961" points="70,129 78,136 73,111" />
<polygon fill="#dfd6d9" fill-opacity="0.501961" points="147,152 154,140 197,159" />
<polygon fill="#473f3b" fill-opacity="0.501961" points="134.045387,134.769633,146.370248,108.861419,136.979788,120.015647,142.900123,153.341426" />
<ellipse fill="#d8cece" fill-opacity="0.501961" cx="31" cy="128" rx="8" ry="8" />
<ellipse fill="#00070a" fill-opacity="0.501961" cx="255" cy="18" rx="9" ry="50" />
<g transform="translate(64 118) rotate(70) scale(28 1)"><rect fill="#111216" fill-opacity="0.501961" x="-0.5" y="-0.5" width="1" height="1" /></g>
<polygon fill="#ba8d73" fill-opacity="0.501961" points="138,117 149,90 134,100" />
<polygon fill="#f4ebe4" fill-opacity="0.501961" points="87,77 77,67 82,94" />
<polygon fill="#245a6b" fill-opacity="0.501961" points="159,50 173,62 176,58" />
<polygon fill="#272a38" fill-opacity="0.501961" points="93,51 83,46 92,41" />
<g transform="translate(137.225094 62.816300) rotate(335.011737) scale(5.549834 3.779499)"><ellipse fill="#073a4c" fill-opacity="0.501961" cx="0" cy="0" rx="1" ry="1" /></g>
<polygon fill="#e2dadd" fill-opacity="0.501961" points="65.889462,131.920626,63.453439,131.998004,57.101771,121.091543,63.089854,120.515339" />
<rect fill="#fbf5f8" fill-opacity="0.501961" x="44" y="116" width="2" height="21" />
<polygon fill="#1d3038" fill-opacity="0.501961" points="100.253659,32.861559,119.820264,-16.000000,165.034841,25.088672,98.907032,34.376371" />
<polygon fill="#443d3a" fill-opacity="0.501961" points="63.526388,28.507624,42.565315,66.901820,60.064242,84.351440,42.502027,55.208659" />
<polygon fill="#816b60" fill-opacity="0.501961" points="130.548469,62.906359,157.828785,106.108487,161.292339,108.923713,155.128187,88.672842" />
<rect fill="#272f3f" fill-opacity="0.501961" x="29" y="136" width="31" height="2" />
<rect fill="#87848c" fill-opacity="0.501961" x="104" y="157" width="51" height="6" />
<g transform="translate(31 149) rotate(100) scale(3 21)"><rect fill="#45536f" fill-opacity="0.501961" x="-0.5" y="-0.5" width="1" height="1" /></g>
<polygon fill="#c6b9c3" fill-opacity="0.501961" points="231.814407,98.998885,204.307669,58.994421,217.664236,52.246648,226.247261,65.162899" />
<g transform="translate(148 65) rotate(278) scale(15 6)"><rect fill="#010507" fill-opacity="0.501961" x="-0.5" y="-0.5" width="1" height="1" /></g>
<ellipse fill="#118fe7" fill-opacity="0.501961" cx="0" cy="83" rx="23" ry="3" />
<polygon fill="#9191a5" fill-opacity="0.501961" points="11.598678,81.517532,33.296908,79.187857,1.377382,64.952597,-16.000000,79.179974" />
<polygon fill="#ac9e8c" fill-opacity="0.501961" points="155.202125,61.180754,153.884166,55.340383,183.286054,69.013017,165.281890,60.436787" />
<polygon fill="#8f8281" fill-opacity="0.501961" points="47,84 38,88 39,52" />
<polygon fill="#7b7c87" fill-opacity="0.501961" points="234,87 247,91 231,51" />
<rect fill="#e9ecff" fill-opacity="0.501961" x="85" y="36" width="9" height="5" />
<polygon fill="#f5e8e0" fill-opacity="0.501961" points="129.899115,78.863279,123.622643,72.034355,117.529371,76.954113,134.706780,69.851150" />
<rect fill="#e9dedc" fill-opacity="0.501961" x="17" y="90" width="3" height="22" />
<polygon fill="#0a1c26" fill-opacity="0.501961" points="-16,48 11,26 64,27" />
<ellipse fill="#939093" fill-opacity="0.501961" cx="1" cy="158" rx="60" ry="2" />
<polygon fill="#dbd3d4" fill-opacity="0.501961" points="131.000965,135.272243,133.583005,141.765328,113.677595,117.416368,86.682057,130.053233" />
<g transform="translate(150.907688 101.700655) rotate(233.680792) scale(13.592177 3.934037)"><ellipse fill="#332f2c" fill-opacity="0.501961" cx="0" cy="0" rx="1" ry="1" /></g>
<polygon fill="#9e7b64" fill-opacity="0.501961" points="48,75 66,87 75,115" />
<rect fill="#b98935" fill-opacity="0.501961" x="21" y="87" width="4" height="14" />
<rect fill="#674f3d" fill-opacity="0.501961" x="40" y="99" width="3" height="43" />
<polygon fill="#627eaf" fill-opacity="0.501961" points="71,77 76,91 80,86" />
<rect fill="#f8d8c4" fill-opacity="0.501961" x="71" y="95" width="3" height="11" />
<g transform="translate(44 43) rotate(128) scale(12 3)"><rect fill="#005ac9" fill-opacity="0.501961" x="-0.5" y="-0.5" width="1" height="1" /></g>
<polygon fill="#c8c1c7" fill-opacity="0.501961" points="163,44 184,61 186,29" />
<ellipse fill="#000413" fill-opacity="0.501961" cx="88" cy="63" rx="2" ry="2" />
<polygon fill="#2b2927" fill-opacity="0.501961" points="48.244733,48.835379,49.873481,47.180629,54.759795,69.319471,42.493510,54.461520" />
<g transform="translate(117 83) rotate(60) scale(41 2)"><rect fill="#9c8076" fill-opacity="0.501961" x="-0.5" y="-0.5" width="1" height="1" /></g>
<polygon fill="#d1ccd3" fill-opacity="0.501961" points="173.651453,99.068777,161.486768,172.295277,214.063399,130.034210,166.944545,104.045630" />
<polygon fill="#dbd3d7" fill-opacity="0.501961" points="68.173942,114.932801,77.582255,154.915859,67.498991,147.264475,77.159257,140.901141" />
<ellipse fill="#0d1a24" fill-opacity="0.501961" cx="70" cy="92" rx="2" ry="9" />
<g transform="translate(76 70) rotate(282) scale(11 27)"><rect fill="#dfd7d4" fill-opacity="0.501961" x="-0.5" y="-0.5" width="1" height="1" /></g>
<polygon fill="#9ac7ff" fill-opacity="0.501961" points="136,81 140,86 143,84" />
<ellipse fill="#dbd4d8" fill-opacity="0.501961" cx="86" cy="105" rx="7" ry="11" />
<g transform="translate(39 55) rotate(208) scale(2 6)"><rect fill="#a7b3e3" fill-opacity="0.501961" x="-0.5" y="-0.5" width="1" height="1" /></g>
<g transform="translate(24.537110 144.776081) rotate(274.217554) scale(1.781715 34.101309)"><ellipse fill="#cfc6c5" fill-opacity="0.501961" cx="0" cy="0" rx="1" ry="1" /></g>
<g transform="translate(77 130) rotate(159) scale(1 11)"><rect fill="#181b22" fill-opacity="0.501961" x="-0.5" y="-0.5" width="1" height="1" /></g>
<rect fill="#444245" fill-opacity="0.501961" x="105" y="67" width="20" height="4" />
<ellipse fill="#7a671d" fill-opacity="0.501961" cx="104" cy="52" rx="4" ry="9" />
<polygon fill="#d6c2ae" fill-opacity="0.501961" points="20.514505,114.337264,34.839457,100.722397,47.858779,119.035855,23.422892,94.736849" />
<ellipse fill="#8181a8" fill-opacity="0.501961" cx="55" cy="55" rx="4" ry="5" />
<polygon fill="#262437" fill-opacity="0.501961" points="58.491399,88.846604,65.774658,76.432633,55.481500,74.966035,57.038503,78.498841" />
<g transform="translate(132.351426 55.968441) rotate(239.883687) scale(3.861245 8.965023)"><ellipse fill="#c4b6c0" fill-opacity="0.501961" cx="0" cy="0" rx="1" ry="1" /></g>
<g transform="translate(90.453933 30.483729) rotate(45.888320) scale(1.721205 16.377251)"><ellipse fill="#59606a" fill-opacity="0.501961" cx="0" cy="0" rx="1" ry="1" /></g>
<ellipse fill="#b8b3be" fill-opacity="0.501961" cx="152" cy="123" rx="5" ry="5" />
<polygon fill="#d1cbca" fill-opacity="0.501961" points="134.325084,55.710828,130.782657,57.295834,104.660339,47.226795,109.788819,38.801167" />
<polygon fill="#403a35" fill-opacity="0.501961" points="109.699217,83.676716,103.428823,107.676454,125.482145,94.492346,104.193400,74.361857" />
<rect fill="#e8e1df" fill-opacity="0.501961" x="0" y="153" width="37" height="2" />
<g transform="translate(182.176183 94.989158) rotate(349.841237) scale(2.217326 10.197664)"><ellipse fill="#403d3b" fill-opacity="0.501961" cx="0" cy="0" rx="1" ry="1" /></g>
<polygon fill="#88847f" fill-opacity="0.501961" points="112.418020,108.194510,133.823147,87.545383,126.512165,94.667508,133.856479,94.996824" />
<polygon fill="#aca0a6" fill-opacity="0.501961" points="220.083021,110.153074,221.739111,85.042738,190.342439,86.634948,203.678445,79.544717" />
<polygon fill="#797c87" fill-opacity="0.501961" points="87.093279,28.473833,138.498958,50.365765,118.539845,35.254778,93.636023,27.416766" />
<polygon fill="#d4ced4" fill-opacity="0.501961" points="212.295960,85.682714,183.685652,89.485145,191.996771,137.688202,162.375266,133.076492" />
<polygon fill="#b8babf" fill-opacity="0.501961" points="179,90 172,84 173,80" />
<polygon fill="#b8b1b6" fill-opacity="0.501961" points="212.230331,185.000000,152.993266,164.192218,139.131144,118.931064,140.930866,139.646954" />
<polygon fill="#003582" fill-opacity="0.501961" points="118,53 126,56 117,65" />
<g transform="translate(146 129) rotate(251) scale(23 3)"><rect fill="#201916" fill-opacity="0.501961" x="-0.5" y="-0.5" width="1" height="1" /></g>
<rect fill="#a29ea6" fill-opacity="0.501961" x="50" y="128" width="3" height="12" />
<rect fill="#b3b3c2" fill-opacity="0.501961" x="234" y="91" width="22" height="4" />
<polygon fill="#878ba7" fill-opacity="0.501961" points="86,48 81,57 75,30" />
<rect fill="#595252" fill-opacity="0.501961" x="52" y="137" width="12" height="7" />
<rect fill="#4a3f34" fill-opacity="0.501961" x="150" y="128" width="4" height="4" />
<polygon fill="#bab7c6" fill-opacity="0.501961" points="22.148657,76.817031,18.123321,73.305661,33.589370,61.306734,36.573600,80.219480" />
<polygon fill="#1e2931" fill-opacity="0.501961" points="235,58 247,54 219,32" />
<polygon fill="#29231c" fill-opacity="0.501961" points="50.954669,84.306797,66.832716,123.139712,67.068815,120.078139,66.436940,108.302829" />
<g transform="translate(135 92) rotate(291) scale(2 23)"><rect fill="#34393c" fill-opacity="0.501961" x="-0.5" y="-0.5" width="1" height="1" /></g>
<polygon fill="#4c5666" fill-opacity="0.501961" points="238.551088,60.964993,199.582093,18.971329,236.147339,71.011431,260.676881,43.357763" />
<rect fill="#2b2a2d" fill-opacity="0.501961" x="78" y="124" width="3" height="26" />
<polygon fill="#dcf6ff" fill-opacity="0.501961" points="47,39 51,42 46,43" />
<polygon fill="#dbc547" fill-opacity="0.501961" points="106,64 116,57 117,62" />
<g transform="translate(132 110) rotate(256) scale(28 1)"><rect fill="#32261d" fill-opacity="0.501961" x="-0.5" y="-0.5" width="1" height="1" /></g>
<polygon fill="#d6d1d4" fill-opacity="0.501961" points="166,69 195,71 184,83" />
<polygon fill="#3b372c" fill-opacity="0.501961" points="170,77 156,80 173,88" />
<polygon fill="#9e949d" fill-opacity="0.501961" points="105.753799,97.807905,106.013136,84.063914,93.668334,111.828720,101.210728,109.270770" />
<rect fill="#211f1c" fill-opacity="0.501961" x="89" y="63" width="14" height="6" />
<ellipse fill="#110c07" fill-opacity="0.501961" cx="159" cy="133" rx="2" ry="6" />
<polygon fill="#bebed1" fill-opacity="0.501961" points="132.555120,72.950617,134.671915,81.147760,134.587176,69.275220,119.246138,65.606479" />
<ellipse fill="#af8b71" fill-opacity="0.501961" cx="246" cy="81" rx="14" ry="2" />
<polygon fill="#4e443f" fill-opacity="0.501961" points="126.262899,122.052588,144.306298,147.310636,107.347391,111.704594,149.499130,124.763770" />
<polygon fill="#bab4bc" fill-opacity="0.501961" points="144.844283,157.944836,12.668907,140.818185,113.750282,160.042527,117.999660,131.045355" />
<polygon fill="#8f8fa0" fill-opacity="0.501961" points="249.778484,113.013594,218.833519,46.648505,222.411297,49.325658,235.699030,68.124208" />
<polygon fill="#b4aeb8" fill-opacity="0.501961" points="-9,161 31,162 -16,177" />
<g transform="translate(142.449309 6.117024) rotate(75.628977) scale(8.732171 32.828335)"><ellipse fill="#0e1b1f" fill-opacity="0.501961" cx="0" cy="0" rx="1" ry="1" /></g>
<polygon fill="#856144" fill-opacity="0.501961" points="50.056599,67.920294,41.189058,92.969291,41.263163,102.756523,42.858291,67.809715" />
<rect fill="#4c474a" fill-opacity="0.501961" x="85" y="86" width="17" height="8" />
<polygon fill="#ab9b9e" fill-opacity="0.501961" points="162,58 166,65 158,77" />
<rect fill="#e7a77d" fill-opacity="0.501961" x="64" y="90" width="3" height="15" />
<g transform="translate(0 100) rotate(362) scale(3 28)"><rect fill="#987b65" fill-opacity="0.501961" x="-0.5" y="-0.5" width="1" height="1" /></g>
<polygon fill="#1f2c32" fill-opacity="0.501961" points="26.287383,34.866558,87.431335,26.086722,23.466381,43.977962,-1.068490,33.423364" />
<polygon fill="#b1b0c3" fill-opacity="0.501961" points="86.247088,67.751645,49.464714,75.068830,83.964186,49.824839,90.311572,83.665981" />
<g transform="translate(99.337947 56.641926) rotate(183.734974) scale(18.107643 1.000000)"><ellipse fill="#3d3635" fill-opacity="0.501961" cx="0" cy="0" rx="1" ry="1" /></g>
<g transform="translate(3.672317 131.180515) rotate(262.745786) scale(10.977038 13.467264)"><ellipse fill="#c0bac4" fill-opacity="0.501961" cx="0" cy="0" rx="1" ry="1" /></g>
<polygon fill="#9c643f" fill-opacity="0.501961" points="79,114 79,86 75,100" />
<polygon fill="#000e14" fill-opacity="0.501961" points="52.816101,29.613967,115.707592,4.981671,111.541439,5.875492,69.954597,-16.000000" />
<ellipse fill="#c0d0ec" fill-opacity="0.501961" cx="33" cy="83" rx="4" ry="4" />
<g transform="translate(134 127) rotate(230) scale(7 1)"><rect fill="#eae0e4" fill-opacity="0.501961" x="-0.5" y="-0.5" width="1" height="1" /></g>
<polygon fill="#776c63" fill-opacity="0.501961" points="75,142 67,128 66,137" />
<polygon fill="#5a556f" fill-opacity="0.501961" points="55.612879,59.079617,60.594438,66.661248,55.549868,81.377415,55.461178,76.586294" />
<polygon fill="#696568" fill-opacity="0.501961" points="200.156926,74.182786,192.422754,68.845565,188.845166,51.881021,221.464824,88.498154" />
<polygon fill="#3b3736" fill-opacity="0.501961" points="199,72 196,50 206,55" />
<polygon fill="#444f57" fill-opacity="0.501961" points="165.564396,8.434510,167.520108,20.441356,159.937827,23.435251,226.897391,40.124765" />
<polygon fill="#d6d2d4" fill-opacity="0.501961" points="168.322837,74.284283,166.703094,57.284349,179.077182,71.518078,186.611326,43.985062" />
<g transform="translate(172 36) rotate(258) scale(9 32)"><rect fill="#8d8f9a" fill-opacity="0.501961" x="-0.5" y="-0.5" width="1" height="1" /></g>
<rect fill="#2a3a41" fill-opacity="0.501961" x="137" y="58" width="4" height="24" />
<g transform="translate(150 46) rotate(161) scale(5 5)"><rect fill="#c28818" fill-opacity="0.501961" x="-0.5" y="-0.5" width="1" height="1" /></g>
<g transform="translate(12.804752 3.121717) rotate(263.900890) scale(25.946760 49.493877)"><ellipse fill="#000000" fill-opacity="0.501961" cx="0" cy="0" rx="1" ry="1" /></g>
<g transform="translate(143 152) rotate(84) scale(12 9)"><rect fill="#88838a" fill-opacity="0.501961" x="-0.5" y="-0.5" width="1" height="1" /></g>
<rect fill="#c9c3c6" fill-opacity="0.501961" x="25" y="154" width="66" height="4" />
<polygon fill="#e3dfe3" fill-opacity="0.501961" points="215,157 202,117 198,157" />
<rect fill="#e3d8d1" fill-opacity="0.501961" x="121" y="72" width="16" height="6" />
<polygon fill="#4c5f80" fill-opacity="0.501961" points="115.210131,76.604112,118.536121,73.408567,131.149797,79.363758,137.535254,90.866887" />
<g transform="translate(74 109) rotate(79) scale(10 1)"><rect fill="#291300" fill-opacity="0.501961" x="-0.5" y="-0.5" width="1" height="1" /></g>
<polygon fill="#bdb7c3" fill-opacity="0.501961" points="223.440346,106.861018,249.391600,102.169829,257.463684,115.286253,210.455952,134.444129" />
<rect fill="#cdbebd" fill-opacity="0.501961" x="56" y="119" width="9" height="6" />
<g transform="translate(88 45) rotate(260) scale(7 5)"><rect fill="#1f292d" fill-opacity="0.501961" x="-0.5" y="-0.5" width="1" height="1" /></g>
<polygon fill="#152133" fill-opacity="0.501961" points="271,40 271,73 243,72" />
<polygon fill="#d2a280" fill-opacity="0.501961" points="69.308564,111.287342,74.204623,105.611916,79.119134,89.347984,71.380688,101.337333" />
<polygon fill="#d2bb59" fill-opacity="0.501961" points="106,45 96,49 117,53" />
<polygon fill="#7a533a" fill-opacity="0.501961" points="55,116 59,111 56,127" />
<rect fill="#433a34" fill-opacity="0.501961" x="47" y="73" width="2" height="63" />
<polygon fill="#787886" fill-opacity="0.501961" points="11.007702,72.199109,39.734305,53.972289,25.455168,56.070381,14.014846,45.016185" />
<polygon fill="#897669" fill-opacity="0.501961" points="97.062089,87.520412,111.655924,67.297949,117.063900,77.798352,83.802053,82.105839" />
<g transform="translate(185.743474 165.140207) rotate(84.718710) scale(1.969923 22.204728)"><ellipse fill="#9f9ca6" fill-opacity="0.501961" cx="0" cy="0" rx="1" ry="1" /></g>
<polygon fill="#477bab" fill-opacity="0.501961" points="70,88 62,84 71,83" />
<ellipse fill="#142b4c" fill-opacity="0.501961" cx="13" cy="160" rx="49" ry="1" />
<rect fill="#a38c81" fill-opacity="0.501961" x="136" y="72" width="9" height="6" />
<g transform="translate(70.404121 68.770215) rotate(329.116921) scale(1.574758 23.692329)"><ellipse fill="#e0dcdc" fill-opacity="0.501961" cx="0" cy="0" rx="1" ry="1" /></g>
<ellipse fill="#2b3e60" fill-opacity="0.501961" cx="27" cy="136" rx="2" ry="2" />
<polygon fill="#545c63" fill-opacity="0.501961" points="79,35 89,45 65,34" />
<polygon fill="#788193" fill-opacity="0.501961" points="92.034745,58.195904,58.822957,48.914973,72.305913,63.100262,68.151835,55.937679" />
<g transform="translate(187 62) rotate(26) scale(7 11)"><rect fill="#ac7993" fill-opacity="0.501961" x="-0.5" y="-0.5" width="1" height="1" /></g>
<polygon fill="#c7afb0" fill-opacity="0.501961" points="193.149593,41.593165,209.617002,46.385570,224.096105,78.707853,221.094393,70.066446" />
<g transform="translate(247 63) rotate(38) scale(2 1)"><rect fill="#f7eeff" fill-opacity="0.501961" x="-0.5" y="-0.5" width="1" height="1" /></g>
<polygon fill="#72767f" fill-opacity="0.501961" points="135.692315,38.311900,117.683754,45.643580,122.922482,24.664732,116.263974,31.201221" />
<rect fill="#9d949a" fill-opacity="0.501961" x="148" y="110" width="4" height="24" />
<g transform="translate(33 139) rotate(271) scale(1 11)"><rect fill="#fff9f5" fill-opacity="0.501961" x="-0.5" y="-0.5" width="1" height="1" /></g>
<g transform="translate(97.927834 46.993174) rotate(323.403402) scale(6.136980 3.516600)"><ellipse fill="#ae96ae" fill-opacity="0.501961" cx="0" cy="0" rx="1" ry="1" /></g>
<polygon fill="#281f1a" fill-opacity="0.501961" points="94.822524,80.863190,100.147665,78.786427,87.926064,53.459432,92.556638,56.863969" />
<polygon fill="#090f16" fill-opacity="0.501961" points="79,138 83,148 79,148" />
<g transform="translate(67 79) rotate(318) scale(1 14)"><rect fill="#561b1b" fill-opacity="0.501961" x="-0.5" y="-0.5" width="1" height="1" /></g>
<rect fill="#ede5e4" fill-opacity="0.501961" x="36" y="127" width="3" height="9" />
<rect fill="#e8dddb" fill-opacity="0.501961" x="29" y="87" width="5" height="38" />
<ellipse fill="#38445c" fill-opacity="0.501961" cx="40" cy="141" rx="16" ry="1" />
<g transform="translate(150 92) rotate(138) scale(1 16)"><rect fill="#a38f82" fill-opacity="0.501961" x="-0.5" y="-0.5" width="1" height="1" /></g>
<polygon fill="#273036" fill-opacity="0.501961" points="126.251770,3.807604,126.400579,-16.000000,158.342032,32.507961,141.916896,28.875401" />
<g transform="translate(20.691092 147.832687) rotate(183.586978) scale(54.658651 1.000000)"><ellipse fill="#6e7485" fill-opacity="0.501961" cx="0" cy="0" rx="1" ry="1" /></g>
<polygon fill="#dedade" fill-opacity="0.501961" points="173,107 184,146 162,132" />
<g transform="translate(108 98) rotate(221) scale(22 1)"><rect fill="#807a7a" fill-opacity="0.501961" x="-0.5" y="-0.5" width="1" height="1" /></g>
<ellipse fill="#2a2721" fill-opacity="0.501961" cx="100" cy="86" rx="3" ry="3" />
<g transform="translate(164 51) rotate(298) scale(3 13)"><rect fill="#97acb5" fill-opacity="0.501961" x="-0.5" y="-0.5" width="1" height="1" /></g>
<g transform="translate(136.235541 56.773727) rotate(288.692568) scale(2.407690 1.000000)"><ellipse fill="#a9450e" fill-opacity="0.501961" cx="0" cy="0" rx="1" ry="1" /></g>
<g transform="translate(56 132) rotate(58) scale(15 3)"><rect fill="#111515" fill-opacity="0.501961" x="-0.5" y="-0.5" width="1" height="1" /></g>
<ellipse fill="#9f8f82" fill-opacity="0.501961" cx="91" cy="69" rx="3" ry="3" />
<ellipse fill="#cfc7ca" fill-opacity="0.501961" cx="41" cy="64" rx="2" ry="2" />
<ellipse fill="#001122" fill-opacity="0.501961" cx="139" cy="91" rx="3" ry="3" />
<ellipse fill="#848690" fill-opacity="0.501961" cx="91" cy="161" rx="25" ry="2" />
<polygon fill="#5f4d46" fill-opacity="0.501961" points="18,142 20,148 20,135" />
<polygon fill="#102431" fill-opacity="0.501961" points="28.275785,14.916870,30.432693,11.895119,30.913143,0.979616,22.422063,14.317363" />
<polygon fill="#c4bbbe" fill-opacity="0.501961" points="79.762345,90.635873,90.719497,129.653779,79.709363,124.826143,80.673957,108.744059" />
<ellipse fill="#d9d3d4" fill-opacity="0.501961" cx="101" cy="134" rx="20" ry="20" />
<polygon fill="#bfb9c0" fill-opacity="0.501961" points="185.770831,161.939451,179.322324,143.499927,166.161250,180.678862,69.464681,163.796415" />
<polygon fill="#d6ced0" fill-opacity="0.501961" points="88.936439,81.150254,88.227399,68.907556,58.926223,74.792607,62.470693,55.805032" />
<polygon fill="#5f5a57" fill-opacity="0.501961" points="152.842433,76.085737,153.118396,58.647480,164.768431,95.788524,155.486048,104.901297" />
<polygon fill="#656b72" fill-opacity="0.501961" points="183.032311,30.295182,193.000477,23.133027,160.846230,27.972717,144.958623,41.720551" />
<g transform="translate(62 108) rotate(241) scale(1 16)"><rect fill="#4b311e" fill-opacity="0.501961" x="-0.5" y="-0.5" width="1" height="1" /></g>
<polygon fill="#7c7d88" fill-opacity="0.501961" points="30.464843,158.433577,32.774454,158.528127,-15.370712,161.274152,5.085948,155.912847" />
<ellipse fill="#000000" fill-opacity="0.501961" cx="114" cy="67" rx="2" ry="2" />
<polygon fill="#655e6b" fill-opacity="0.501961" points="200.960639,52.424067,185.868180,61.587274,192.008743,40.847306,204.218565,59.639310" />
<polygon fill="#061117" fill-opacity="0.501961" points="261,48 249,20 239,57" />
<rect fill="#262b2c" fill-opacity="0.501961" x="156" y="60" width="5" height="12" />
<polygon fill="#1b3451" fill-opacity="0.501961" points="45.179671,46.357388,35.267148,18.694881,41.878522,40.012456,40.380222,62.890323" />
<g transform="translate(146 107) rotate(187) scale(1 35)"><rect fill="#705d53" fill-opacity="0.501961" x="-0.5" y="-0.5" width="1" height="1" /></g>
<polygon fill="#58463e" fill-opacity="0.501961" points="111,51 93,52 111,61" />
<polygon fill="#886f69" fill-opacity="0.501961" points="199.519176,62.359122,211.370795,85.882117,206.405891,81.885586,207.581034,54.914740" />
<g transform="translate(125.813260 61.443334) rotate(239.723581) scale(10.165498 1.000000)"><ellipse fill="#698ad0" fill-opacity="0.501961" cx="0" cy="0" rx="1" ry="1" /></g>
<polygon fill="#342c25" fill-opacity="0.501961" points="124,103 111,109 149,127" />
<rect fill="#414952" fill-opacity="0.501961" x="5" y="40" width="9" height="21" />
<polygon fill="#2f5177" fill-opacity="0.501961" points="243.169618,76.838084,271.000000,61.009279,261.524295,76.847074,251.680183,79.959254" />
<polygon fill="#89766a" fill-opacity="0.501961" points="75.268486,68.376816,103.066515,69.523268,105.888769,90.770693,96.415596,69.027386" />
<ellipse fill="#ceb99b" fill-opacity="0.501961" cx="131" cy="88" rx="2" ry="2" />
<polygon fill="#d2ccce" fill-opacity="0.501961" points="5.790123,139.662855,24.230004,157.215342,11.985418,139.728294,-16.000000,155.605027" />
<rect fill="#8d8883" fill-opacity="0.501961" x="167" y="81" width="3" height="13" />
<rect fill="#9e9fb7" fill-opacity="0.501961" x="19" y="60" width="17" height="8" />
<rect fill="#e9a675" fill-opacity="0.501961" x="43" y="77" width="4" height="3" />
<polygon fill="#000412" fill-opacity="0.501961" points="63,76 61,80 55,77" />
<ellipse fill="#bbaa9e" fill-opacity="0.501961" cx="42" cy="87" rx="2" ry="2" />
<g transform="translate(120 61) rotate(89) scale(8 7)"><rect fill="#002f62" fill-opacity="0.501961" x="-0.5" y="-0.5" width="1" height="1" /></g>
<ellipse fill="#11100d" fill-opacity="0.501961" cx="37" cy="69" rx="1" ry="9" />
<ellipse fill="#e2dce0" fill-opacity="0.501961" cx="71" cy="120" rx="4" ry="4" />
<polygon fill="#7a87a4" fill-opacity="0.501961" points="9,76 26,81 31,76" />
<polygon fill="#39322b" fill-opacity="0.501961" points="119.446352,100.271564,112.369571,102.551350,103.212548,79.286134,112.538050,79.270613" />
<polygon fill="#c9bcb8" fill-opacity="0.501961" points="154.217977,41.181989,194.798002,60.255332,143.956787,42.734560,129.864830,52.821203" />
<ellipse fill="#b37a9c" fill-opacity="0.501961" cx="66" cy="80" rx="2" ry="2" />
<rect fill="#ae8a66" fill-opacity="0.501961" x="113" y="70" width="3" height="13" />
</g>
</svg>