<svg height="680" width="1024" xmlns="http://www.w3.org/2000/svg"><path d="m0 0h1024v680h-1024z" fill="#6e543d"/><g fill-opacity=".501961" transform="matrix(4 0 0 4 2 2)"><path d="m186.552614 152.779375-3.174484-88.471684-28.785453.821694-10.128005 66.182398z" fill="#21140a"/><path d="m145.917701 184.403687-35.550735-66.910292 106.652123 50.826434 53.980911-89.562615z" fill="#a5876d"/><path d="m240.709147 137.363569-26.05432-153.363569 42.135886 56.593876-40.424128 14.075149z" fill="#bd9f86"/><path d="m95.112305 110.058274-26.490914 9.800588-6.385285-10.838491 74.423985-43.877437z" fill="#d0ad8d"/><path d="m-16 58.179102v-55.589965l69.807967 102.356459-63.649357-58.417961z" fill="#c9a781"/><path d="m136.997323 22.037117 27.264549-23.570358-29.879779-14.466759 56.902429 51.980479z" fill="#bea793"/><path d="m180.793738-16-45.413116 31.820992 2.883191 35.943295-43.510328-18.613974z" fill="#130601"/><path d="m-8.840384 182.947491 48.641677-128.106685-22.666674 28.62698-33.134619-54.85231z" fill="#2c1d10"/><path d="m171.81164 37.665545 58.849183-10.463412-17.731887 15.361099.154493 45.940993z" fill="#25160c"/><path d="m39.826588 37.71723 4.159284-35.993875 19.298758-3.229141-5.432785 57.813021z" fill="#17110b"/><path d="m268.571113 100.181297-28.904358-113.403512 31.333245 10.555167-37.053736 101.585854z" fill="#251509"/><path d="m86.819314 34.39254-5.019688 4.705508-55.955482 17.567835 141.904692 6.806371z" fill="#b28b69"/><path d="m214.910697 83.077562-19.115554 19.200473 75.204857 11.322755-66.937181-30.491756z" fill="#c7ac93"/><path d="m231.845082 104.442491-19.388146 23.267158-8.698989 40.851464-.581666-46.25391z" fill="#050503"/><path d="m-16 159.236678 120.302649-4.18379-99.700687-7.761606-5.170686 14.620613z" fill="#c0a184"/><path d="m93.944775 85.068093-35.894722-29.276134-7.434618 20.612469 85.826956-21.614821z" fill="#1b0f07"/><path d="m46.799212 14.679599-19.164033-30.679599-5.800123 3.453729 4.772494 31.446528z" fill="#d5bda9"/><path d="m172.498881 113.769499-46.9954-1.298161 25.810144 72.528662-13.503377-95.818703z" fill="#b18d6a"/><path d="m126.64436 68.112746 31.47176 18.868532-28.454674 7.082789 3.872513-54.599633z" fill="#040300"/><path d="m152.016448 131.398438-21.849599 26.675083 4.621641 1.131946 22.946213-1.002149z" fill="#dacabb"/><path d="m33.109005-16-49.109005 38.417725 62.050731-4.423203-33.221822 19.058839z" fill="#191511"/><path d="m14.431278 97.97733 44.493057-45.370871-34.179816-21.483099 38.079806 68.812934z" fill="#ae8760"/><path d="m25.945342 125.567234 44.487647-31.320966-6.531753 26.626233 14.749391 60.148794z" fill="#452915"/><path d="m192.098742 152.372442 27.907012-15.6943-27.790371 48.321858-34.748453-86.269297z" fill="#2a1e12"/><path d="m194.388953 98.678676 17.198077 51.184836-8.222728-40.438336-77.568736 40.108447z" fill="#19110c"/><path d="m88.551931 173.684911 48.320789-9.597702-34.745637-46.75577 31.516892 67.668561z" fill="#110c06"/><path d="m93.766522 85.797766 52.937233-33.515307 39.662972 3.057322-37.744824 12.517495z" fill="#b18b6b"/><path d="m198.647564 147.689491-10.234269.445309 4.901767-21.949553 15.656464 21.328957z" fill="#d6bea5"/><path d="m50.209962 174.104478-51.730845-13.281329 33.012811 24.176851 15.573678-35.803223z" fill="#c4b3a4"/><path d="m218.428801 105.998214 46.602903 22.062504-41.190195-26.380329-8.787922-14.747149z" fill="#200a00"/><path d="m236.510257 135.162891 1.719951-16.464806 27.359171 53.256958-48.654924-16.632183z" fill="#492913"/><path d="m228.187026 2.955094 11.680351 11.603934-13.269679 16.390081-12.328634-23.33567z" fill="#c8b9ad"/><path d="m86.225801 25.791913 17.133126 3.884796-3.53969-39.904146-18.427759 24.470698z" fill="#b89980"/><path d="m101.005335 114.614787-23.11872 11.703891 7.344432 5.599155 17.418203-8.730417z" fill="#e5b188"/><path d="m32.55338 37.509179-9.291194 52.370629 17.082931-33.75441-28.686854 1.91276z" fill="#140d06"/><path d="m99.121638 164.150135-16.433947-32.686207-11.408159 17.171236 45.983-7.329779z" fill="#210c00"/><path d="m104.25864 111.5496-11.97569-11.593695 23.231567-2.423012-8.134933 39.62853z" fill="#281309"/><path d="m100.032919-16h37.005245l-55.126167 83.318162 26.315367-27.358271z" fill="#35190d"/><path d="m25.631334 74.554535 19.391958 27.818841-15.144916 4.475557 7.675765-7.796157z" fill="#010000"/><path d="m162.095 23.766237-38.814821 38.415246 18.171751-28.439221 20.180659 16.335139z" fill="#18140f"/><path d="m29.735879 155.785696 65.53672 6.883096-111.272599-40.033279 20.936841-9.4125z" fill="#a37c58"/><path d="m52.717763 149.30515-2.828527 24.936646 35.613491-9.289341-37.489674-8.085916z" fill="#130c06"/><path d="m67.513611 43.355455 6.759054-2.515735 13.089768-9.89414-9.70693-14.41291z" fill="#0a0905"/><path d="m26.98336 146.154815-6.696108 8.198607-18.054269-23.890325-18.232983 14.71956z"/><path d="m180.028274 109.600607 7.569412-7.872208 45.465719 16.71256-59.494771-31.380762z" fill="#af805c"/><path d="m188.215424 37.128578 28.889802-9.612443-78.870497-43.516135 53.293824 36.999659z" fill="#af876b"/><path d="m138.776384 140.849056-14.464895 12.525027-7.290334-14.097826 25.614027-18.648552z" fill="#cc9d6a"/><path d="m151.381883 185 6.120169-37.657199-21.730205-38.333463 42.326646 9.596351z" fill="#3f2c1c"/><path d="m82.280616 123.826256 29.371868-21.704908-16.319706 10.241897-26.036901 6.020812z" fill="#020001"/><path d="m156.968017 159.565822 33.362745 25.434178-15.621102-18.483927-.845233-23.751834z" fill="#d6ae8d"/><path d="m62.953708 118.770999 5.456534-15.294657 18.8492-9.165123 8.379199 14.644715z" fill="#c9b5a1"/><path d="m271-7.629533-101.48315-8.370467 32.771749 38.531174 13.013323-20.281006z" fill="#2e1b0d"/><path d="m231.718709 101.964354 26.358974-2.898664-6.337844 17.409997-22.139146-10.541134z" fill="#cfbfb0"/><path d="m228.506422 85.850392 42.493578-20.267473-52.390323-11.092719 4.571841 73.228483z" fill="#a26d3f"/><path d="m59.757751 74.786701 41.697567 24.84959-75.834509-28.212894 39.914221 3.346455z" fill="#312317"/><path d="m33.18256 160.847295 9.183574 10.121629-53.734809-16.635753 1.614126 13.254827z" fill="#0f0c09"/><path d="m158.002379 35.67046 16.614767.773224-2.238592 36.651076 10.219513-17.889919z" fill="#ba9b83"/><path d="m18.931755 78.694272-12.442228-13.628442-22.489527-9.11378 35.229674 31.51188z"/><path d="m-13.828079 62.79041 12.238149-31.89809 20.308065 14.293877-.460471 5.292453z" fill="#ccb9a1"/><path d="m264.281343 21.039961-28.002113 5.153735-1.578593 1.771113 20.690493-33.146552z" fill="#0c0f0c"/><path d="m18.573359 158.769205-14.685934.884505 1.893041-15.263787 11.998394 4.021496z" fill="#cdc1b6"/><path d="m139.968087 73.168395 48.660747-17.480241-6.847767 30.215224-68.186122 12.078522z" fill="#352315"/><path d="m180.263445 21.105134-56.792418 20.647607 17.140262-12.680441 47.182506 6.344359z" fill="#ac8d70"/><path d="m86.928294 85.9665-35.326664 19.373647-35.236583-38.004215 41.659662 19.850102z" fill="#b08a67"/><path d="m109.060198 90.324618 128.493071-12.901438-116.003643 15.807271-59.279193-66.98869z" fill="#432d1c"/><path d="m195.050073-16 43.322882 61.156958-56.365193-61.156958-28.032546 51.942764z" fill="#392a1e"/><path d="m253.089005 177.561887-43.44254 7.438113 19.337379-21.522254 15.067146-.200447z" fill="#d7ab7b"/><path d="m185.488931 82.022446 1.231998-19.822566 7.924367-2.698456 13.068961 20.219078z" fill="#c0692f"/><path d="m106.761855 185-39.173815-65.671961-1.344542 21.669535 69.232702 44.002426z" fill="#af8057"/><path d="m44.969734 185 25.569921-35.70805 13.707015-19.029376 9.912266-1.740614z" fill="#14110d"/><path d="m76.98921 71.528244-10.868331-1.377668-4.92805 6.044722 77.093256 35.938726z" fill="#b17a4e"/><path d="m68.73225 95.597718 21.569318.79015-3.335158-5.180228-31.52296 20.252209z" fill="#070807"/><path d="m89.132206 64.278023 12.739563-21.025116 2.705644 19.950098 6.083731-1.719144z" fill="#b7aba1"/><path d="m128.8883 154.027194 13.569382-19.880396 8.884887-8.576559-12.011873 20.240971z" fill="#0f0400"/><path d="m245.297103 141.110136 25.702897-5.822027-7.704134-7.048595-12.089161-4.02921z" fill="#caa27c"/><path d="m216.72721 92.957436-12.187777.852978-7.982654 15.610583 20.458752-4.964508z" fill="#cbbcae"/><path d="m106.37622 164.295065 13.527079.506892.745989-7.684117-7.841001-8.714146z" fill="#d69861"/><path d="m252.319898 25.248518-.622149 8.735866-28.167534 15.631109 6.414436-21.118846z" fill="#b99f89"/><path d="m250.059809 66.526897-22.323878-15.455212 19.295333 25.382526-43.847335 64.983703z" fill="#2f1d10"/><path d="m65.947155 70.094183-39.060968-16.733087 2.349751 23.966457 3.82527-13.822307z" fill="#1a1610"/><path d="m153.489998 5.234167 17.630677 9.898171-24.238112-21.172625-13.015812 23.980096z" fill="#1a1811"/><path d="m61.558536 132.501286-30.418257 33.80039 20.678227-59.590425-27.943012 3.72091z" fill="#926542"/><path d="m65.753757 141.067577-11.268983 11.381411-5.229325-3.413126 18.756653-18.462008z" fill="#010506"/><path d="m39.703899 161.657268-14.657885-1.590489 5.018341-20.612283 5.42119-2.572155z" fill="#c89f72"/><path d="m218.495184 58.086569 20.391308-21.645079 26.751173 20.92934-117.342326-13.915241z" fill="#613a21"/><path d="m49.680695 15.48912-10.348815-31.48912 46.738984 47.646532-5.849998-17.784275z" fill="#11110d"/><path d="m158.867471 182.918554-5.420271-23.885477 10.997436 9.69762 10.647283 2.323492z"/><path d="m111.657157 80.609881 18.009904 3.419315-19.576846-36.754282 15.13246 2.390828z" fill="#c49f7f"/><path d="m122.749201 67.145729 8.123996-52.683727 1.904506 66.489416-5.713964-5.372624z" fill="#322719"/><path d="m218.349581 71.992144-48.615512-36.153796 4.245166-3.67513 38.680172 47.369857z" fill="#17130e"/><path d="m76.4221 38.959343-25.543157 5.770083-22.855326-4.949711 10.942114-6.946923z" fill="#1f150c"/><path d="m48.582181 64.349018 6.878838-5.771461-16.372983-15.967032-10.541122 6.600741z" fill="#c69d78"/><path d="m27.548791 165.668195-9.681766-16.909065 34.833024-46.186776-37.758122 59.03401z" fill="#25180c"/><path d="m236.935775 141.807099-33.151706 43.192901 25.918711-23.041935-5.216365-23.964257z" fill="#21150b"/><path d="m34.766828 98.051341-13.735026-14.773351-2.353662 16.452541 6.516331 3.290807z" fill="#c8915a"/><path d="m98.346238 125.826565 38.373409-13.847602-14.992215-30.137105 16.660983 22.629277z" fill="#352516"/><path d="m82.63417 96.639413-59.666866 12.840364-10.030578-30.967816 1.923275 27.304042z" fill="#1b1610"/><path d="m59.227773 55.791791 23.884731 10.249781-31.561594-53.6007 19.25074 17.181189z" fill="#a47c5a"/><path d="m259.322607 182.335117-15.932086-22.828825 27.609479-.923963-14.261089 12.281862z"/><path d="m31.290938 18.648137-17.042155-.917811 6.452919 28.763477-12.280777-10.572491z" fill="#110d07"/><path d="m164.293208 55.307911 11.036113 15.934691 5.524888-14.146847-44.056334 16.106134z" fill="#ab8b6d"/><path d="m116.441794 115.721125 37.712152-25.830585-.203718 24.070889-34.816277-18.612073z" fill="#b5855b"/><path d="m97.117919 145.127619-11.857349-1.207929 12.600414-12.13306 12.175188 6.208158z" fill="#bf845a"/><path d="m171.265012 97.083333-16.556629 10.938239 51.64086 1.828269-28.538601 8.312014z" fill="#030708"/><path d="m52.069635 75.380557 18.282005 10.240352-23.800762-49.253355 15.736162 19.38721z" fill="#19150f"/><path d="m146.460667 11.408785-12.542059 7.863998 21.44063 10.874267 10.294398-12.040919z" fill="#af9989"/><path d="m210.495173 137.117647 29.754038 2.287913-10.50365-14.467965-18.671774 5.794708z" fill="#c09a7c"/><path d="m188.51734 185h-25.569594 43.190993l14.543481-34.696226z" fill="#ceac8b"/><path d="m271 76.86364-73.801441 37.478778 47.519889-19.27967-19.599807-11.529356z" fill="#332516"/><path d="m97.650499 151.567592-25.930785-.135259 9.82978 33.567667h-39.703428z" fill="#c18b5a"/><path d="m174.268318 76.877695-13.252967-45.25872-49.089261-19.569888 39.21596 18.218268z" fill="#241a13"/><path d="m31.213841 36.365913 25.142665-4.60855-30.507125-6.58249-3.904694 29.408615z" fill="#9f6f4c"/><path d="m67.744812 66.917284 32.80127 13.075118-16.830897 5.56078 14.669942-22.562207z" fill="#281a10"/><path d="m179.449297 127.158158 9.702193 8.508425 6.93928-6.283769 23.461322-18.9722z" fill="#aa6e3f"/><path d="m21.375838 81.933064-16.801913-23.46062 6.968242 3.03039 16.268046 9.011988z" fill="#ca9e6d"/><path d="m106.442403 34.913403 9.522157-3.539159-7.614337-19.365738 57.062924-28.008506z" fill="#945131"/><path d="m59.969999 160.038513-16.651966-.779716-11.239894 25.741203 41.832645-56.161916z" fill="#b7865f"/><path d="m163.739021 94.203224 72.712439-22.122797-56.605544 12.477936 11.856127-43.399691z" fill="#251b12"/><path d="m147.509413 162.249271-.578502-31.801189 4.398795 5.524485-23.728459 21.248496z" fill="#c3ab97"/><path d="m157.737649 158.334549-.89745 2.643393-32.78144.33435-29.764 23.687708z" fill="#2a1a0e"/><path d="m132.218007 77.346895 52.21164-28.284594-23.32596 9.505903-20.191894-21.022282z" fill="#aa7f5d"/><path d="m104.983267 160.899757 22.559142-37.223508-68.297903 61.323751 18.004059-15.881018z" fill="#472d1a"/><path d="m141.102024 123.346371 19.215412 18.58463-29.196261-41.334141 21.960681 17.80406z" fill="#0a0905"/><path d="m221.85651 123.623863-25.634171 10.974091 3.510267-7.005964 17.576181-11.685113z" fill="#0b0a08"/><path d="m44.155422 123.743544-2.250591-4.239811-10.889393-.901847 9.421841 39.59294z" fill="#2b1e12"/><path d="m64.67276 116.807792-15.245047-11.201138.701087-6.411869 17.054822 35.953666z" fill="#140f09"/><path d="m-8.352984 169.807455 30.497176-5.578246 10.382885 5.723976-41.429778 15.046815z" fill="#c6af98"/><path d="m122.735483 119.613163-2.359922 10.605057-7.30903.934743-2.718882-10.326726z" fill="#cca683"/><path d="m247.045516 127.725656-5.929422 12.176448 2.717037 1.372429-9.092611-16.570757z" fill="#070a09"/><path d="m18.780465 12.795946.934866 5.720726-7.129597.65856.179247-12.391634z" fill="#927f6c"/><path d="m190.865156 15.217292-6.463835-7.464856-7.310598-3.563475-4.879101 5.461618z" fill="#b9aba0"/><path d="m174.901708 35.010235 8.669478-9.994486-7.298639-10.667711-12.185003 10.927088z" fill="#bfa186"/><path d="m28.10779 111.199908 19.254185 3.672776-41.214251 9.45638 11.662677 17.506308z" fill="#ab7c50"/><path d="m75.496186 40.324182 16.74239-3.44098 15.41925 28.453678-11.108918-10.234945z" fill="#bf9b7f"/><path d="m211.518108 4.359887 14.603861-3.796642 21.924673 17.749984-19.975126 5.993644z" fill="#b19b88"/><path d="m216.60158 37.310419 24.48295 43.938355-27.813996-16.03636 22.126125-23.353069z" fill="#af8864"/><path d="m75.500767 31.947215 9.437822-37.264818 29.575927-10.682397-56.035744 41.121576z" fill="#3d3024"/><path d="m28.07728 81.847696 15.991097 16.048299-21.604876-15.419104-12.345266 17.297112z" fill="#0f0c09"/><path d="m196.466067 97.250328-35.917679 32.811567 28.7089-18.961891 13.107476-20.307775z" fill="#0a0b09"/><path d="m171.364715 138.151645 11.069396 21.746971 5.215476-24.513739-9.131135 3.545192z" fill="#070809"/><path d="m223.54418 108.182921 19.333616 4.363332 8.253096 9.825654 19.869108 1.520673z" fill="#000200"/><path d="m236.71985 157.17094 34.28015 3.832456-40.506305-14.792935 34.50059.416452z" fill="#9e5f34"/><path d="m-15.453866 21.922876 30.429941-14.011158 12.268215 19.565525-7.60939-27.081112z" fill="#0c0a06"/><path d="m217.890898 51.614263-8.038141 19.420312 12.160825-20.732413-2.018131-8.113332z" fill="#0c0702"/><path d="m51.408698 68.929059 2.580615 5.662407-19.962819-2.063426 4.122476-8.117871z" fill="#ad8762"/><path d="m22.712452 17.959464-.399792-19.739114 8.753789-14.22035 10.372944 21.036871z" fill="#af9884"/><path d="m110.457536 64.416211-5.431222-15.866406 10.45239 17.508548-9.707927 14.028655z" fill="#13100a"/><path d="m158.207751 74.459569 18.703741 31.341711 16.154666-7.655096-51.84179-18.246066z" fill="#8c5836"/><path d="m154.830045 140.29808-11.573996-.157099 43.578278-.379974-15.581196-12.057127z" fill="#76543c"/><path d="m149.220642 28.018706-22.375133-11.928874.891345 15.269998 15.270137-4.194523z" fill="#0d0e0b"/><path d="m224.671569 30.890412 14.023786-5.927272-32.273022 19.525098-10.164642-10.689086z" fill="#251f18"/><path d="m2.510571 129.463236-.189218 16.857355 7.251874-.233867-3.140899-20.141492z" fill="#02090a"/><path d="m171.049626 56.819981.398494-7.002071-11.310875-13.111479 17.856319 2.750349z" fill="#b19684"/><path d="m127.874346 113.151069-28.997159 8.422385 21.017711 13.785183-26.830045-5.518693z" fill="#231910"/><path d="m61.911862 14.209275-3.103643 4.459733 15.234042 16.456854-11.909744-.721856z" fill="#b49275"/><path d="m69.312677 128.973763-1.678781-13.829617 19.37791 16.553353 23.701674-23.405252z" fill="#b48b69"/><path d="m12.348991 108.374139-28.348991 29.172716 29.898889-57.439223-29.898889-1.033382z" fill="#7d5236"/><path d="m217.450015 86.924214 8.531829 23.071394 9.693356-21.761507-38.788523-2.736671z" fill="#ba8957"/><path d="m200.448116 133.067486-13.271833 7.347376 1.810245 7.467696 15.362796-7.906097z" fill="#c0af9a"/><path d="m113.421881-6.31508-8.409649 48.528393.302975-35.761278-24.835834-22.452035z" fill="#1a1810"/><path d="m244.51262 87.240207-21.285011-4.506952-28.864359 12.682026 76.63675-24.604012z" fill="#2c2115"/><path d="m206.434934 59.401026 41.065786 21.271661-29.554572-.70786-6.171567-45.734752z" fill="#8d6342"/><path d="m123.256672 185-30.774186-34.462218 15.282712-2.718203-35.146053 37.180421z" fill="#9e6840"/><path d="m91.393658 89.945993 4.607487-10.854915 23.518682 11.315477-19.169023 13.554493z" fill="#aa7647"/><path d="m38.411343 152.534897 35.855757 28.514148-28.295363-23.594577-15.867028 16.303911z" fill="#302925"/><path d="m128.933028 123.155097 20.851877 5.080759 10.933108-15.238085-47.005067 22.780402z" fill="#3a291b"/><path d="m180.295147 49.284925 20.773162 6.650824-16.495963 5.630456.847538 5.145287z" fill="#130c06"/><path d="m170.933189 185 49.061227-32.248626-15.9137-10.919296 21.331886-5.421562z" fill="#674327"/><path d="m104.250882 143.392054-9.226662 9.231249-17.964606-8.304703-13.737711 2.379698z" fill="#29170b"/><path d="m137.251508 84.65857-60.715427 40.308076 4.240446-.362728 30.332148-26.812949z" fill="#18100c"/><path d="m40.089513 140.411456 3.001592 21.074088 7.821349-12.181717-13.739956-3.670612z" fill="#b09c8e"/><path d="m-16 162.997966 12.931083-13.901773 9.037605 10.839166 37.18188 4.740966z" fill="#1e1a14"/><path d="m205.986902 24.189043-21.247859-4.794039 18.810364-16.05813-17.286521-6.385805z" fill="#8c623f"/><path d="m6.651323 22.825522 31.724881 3.233654 8.848885-1.192058-37.203654-9.616698z" fill="#251b12"/><path d="m73.492876 50.80841-36.725555 24.397454 41.211874-24.435329.464362-10.020351z" fill="#513825"/><path d="m251.633061 23.021658-.231821 21.257637-19.397949-9.667052-1.028822-1.724068z" fill="#b69d88"/><path d="m28.260516 160.623764-8.333257-2.212549 14.820029-27.268607 2.766416-2.620555z" fill="#b88f65"/><path d="m178.411644 150.422453-27.164354 15.534063 15.086915-5.653837 14.930258 3.04979z" fill="#bd9879"/><path d="m204.473654 109.540834 7.053526 14.21581 4.614605-11.141438 26.33595-10.589518z" fill="#9c7959"/><path d="m61.74661 67.184595 24.92238 9.03051-10.00791 32.238149 3.771925-15.181558z" fill="#a97853"/><path d="m170.398634 118.199258-63.154305-40.000496 15.753491-17.022962-.359297 23.582105z" fill="#a1846c"/><path d="m204.242581 91.113153-3.480896-6.366769 43.016304-5.073847-14.820293-3.055553z" fill="#b88453"/><path d="m179.766764-7.097535-7.103517 6.480143-11.098382 28.430076 6.906573-10.970813z" fill="#1e170f"/><path d="m137.743483 28.800904 4.687989-.763124 5.005014 9.392699-16.763951-2.667482z" fill="#aa8c6d"/><path d="m198.63108 65.369087 3.21823-20.994486 10.151943 29.512069 16.087603.082237z" fill="#1a150f"/><path d="m187.191466 82.277929 27.268001.664905-1.909373-22.694885-15.227835 30.848789z" fill="#1e1913"/><path d="m188.345594 27.46856.756207 11.589583-24.68046-7.560393 18.596068 12.257942z" fill="#1f1811"/><path d="m98.323147 108.253184-5.159924-11.668229-36.496792 20.99034 32.79341-4.699252z" fill="#c0a68d"/><path d="m45.872693 106.027381 33.179248-9.96909-2.13474-4.49514-12.876827 19.887058z" fill="#251b11"/><path d="m229.61126-16-48.360923 34.907569 52.712832-24.815619 37.036831 23.256856z" fill="#201b12"/><path d="m-.632996 34.23069 34.637345-7.620717.425336 10.701135-33.191731-15.052594z" fill="#a27353"/><path d="m-1.157637 59.616666-14.842363-15.948928 34.438439 33.700228-34.438439-3.002311z" fill="#030809"/><path d="m70.39648 118.508508-16.775987 19.855574 16.483776-6.520649-15.577113-16.731468z" fill="#2d2419"/><path d="m99.71428 140.373442 31.304766 13.526939 23.69352-29.802653-28.914551 30.767113z" fill="#26180d"/><path d="m212.820376 123.494863 4.961361-11.919405 24.908487 1.223762-11.48698-5.509595z" fill="#110f0b"/><path d="m250.801443 70.612769 20.198557 27.234968-29.792982-54.019995-8.941249 4.737436z" fill="#9d572d"/><path d="m135.261086 101.488662 22.341826 17.674507-9.898867-23.878791-14.581283-.977863z" fill="#ad8159"/><path d="m206.384799 144.096468.497847-3.690331 11.305898-1.211723 8.581393-.795913z" fill="#0f0903"/><path d="m191.579026 169.448739-3.141836-20.572595 19.904378.562732-38.769541 15.923738z" fill="#453425"/><path d="m22.239653 50.256612 14.227717 18.454076-6.547126-15.611849-45.920244 12.069209z" fill="#322519"/><path d="m222.626403 125.762635-28.481899-13.111807 12.114658-4.43555 1.490139 14.108119z" fill="#201710"/><path d="m142.929126 86.851574 16.09988 3.111515-26.36609-11.525979.126471 8.238127z" fill="#000006"/><path d="m232.231609-16 29.399238 38.010842-10.126599 20.449085 10.78831-58.459927z" fill="#050805"/><path d="m106.447973 79.479381 22.642512 14.501484-56.351093-26.210486 49.711643-6.814039z" fill="#3a2719"/><path d="m40.117965 159.562437-2.008956 8.523193 15.110991 16.91437-5.777303-20.546865z" fill="#c4ac96"/><path d="m46.049972 103.290622 12.972449-.952723 1.873499-2.654234-26.914375-24.028713z" fill="#b18965"/><path d="m154.132505.495113 11.995965 8.230421 11.57702-15.349492-9.769368 8.870532z" fill="#b4916d"/><path d="m92.275241 94.378772 8.806482 12.981428 9.525454-9.791834-6.52375 8.131091z" fill="#160f09"/><path d="m40.91938 94.207617-11.42133 12.25567-10.366702.354991 26.030817-2.462294z" fill="#0a0a05"/><path d="m109.403098 145.179099 23.710912 21.402004-18.253288-25.841478-27.537035 7.067203z" fill="#13100b"/><path d="m88.796168 123.690793 16.687751-18.112646-2.178149 9.384567-13.078384 15.837498z" fill="#b99474"/><path d="m176.350848 118.242544 4.892317-1.495229-8.976006-18.274674-10.894697-2.555916z" fill="#020709"/><path d="m36.204817 88.975807-1.517343 14.124027-8.595317 1.111759-4.794985-15.771295z" fill="#ba8857"/><path d="m60.448009 82.601068-21.329022 34.906516 27.833156-35.946154-24.738866-8.790529z" fill="#443225"/><path d="m125.69033 5.523249-42.431195-16.347058-.746613 16.29475 43.050183-21.470941z" fill="#030b09"/><path d="m131.122076 38.647411 29.595743-4.227941-33.24237 9.183759 10.945776-.345275z" fill="#000202"/><path d="m136.900607 138.823695-15.173253-5.695373 22.489236-16.256467-15.349748-1.959713z" fill="#bc986f"/><path d="m222.748122 56.355269 6.274218 16.814367 11.364073-7.440701-2.417322-3.003855z" fill="#b99168"/><path d="m65.113579 140.855762-18.659477 3.028642 24.628285 41.115596-24.718234-26.814253z" fill="#1d1a16"/><path d="m54.724918 106.533873 30.664627-12.012137 6.113899 1.909038-4.021955-8.462902z" fill="#17120d"/><path d="m105.782455 46.073813 8.350588 17.042048 11.623351-8.512812-38.321607-19.67061z" fill="#b98a62"/><path d="m37.706853-11.131612-.517226 45.090404-18.32889-49.958792-24.09382 23.224524z" fill="#a78c76"/><path d="m21.152454 106.821546-29.527662-9.973175 39.287513 13.492768-21.123095-17.466889z" fill="#110c06"/><path d="m33.994375 105.457823 26.432311 1.407449-24.223823 39.138546 25.466577-10.943957z" fill="#815331"/><path d="m76.042472 121.898351 10.755555-7.541973-9.70417 14.853462 8.027133 10.785162z" fill="#0c0b09"/><path d="m2.37589 124.300949 17.348582-5.932041-2.293596-29.248936-7.336829 28.29728z" fill="#281e14"/><path d="m168.211132 58.330877 3.75229 16.906796-23.140572-6.987598 13.760777-1.710163z" fill="#151512"/><path d="m90.040775 30.581546-36.497524 14.930557-2.053402-28.174923 10.894089 20.035006z" fill="#221b11"/><path d="m49.240647-16 23.278989 29.544053 12.850255-29.544053-2.755539 22.234939z" fill="#917561"/><path d="m17.505189 149.769419-5.878934 13.552139-10.562688-10.221159 4.956959-6.728977z" fill="#c0af9e"/><path d="m23.263315 15.428599-11.4776-5.12056 6.4458 8.038147 34.777054-34.346186z" fill="#ac9885"/><path d="m221.252609 49.981095-9.306162 14.63556 9.25937-22.647403-10.914997-11.462101z" fill="#1f1610"/><path d="m163.855303 117.695867-9.025802-6.79777 19.922726.94646-10.444397-5.482332z" fill="#7e736e"/><path d="m210.843127 119.997583-41.033366 5.348927 17.133153-11.033364 46.276034 13.227594z" fill="#533a26"/><path d="m260.174185 98.995771-23.452271-5.004429 4.280531-2.303706.685029-3.737491z" fill="#7f573d"/><path d="m249.656312 65.872921-7.353373 1.604328-5.024879 3.872868 11.634724-.863894z" fill="#010303"/><path d="m203.585931 70.458833-6.635568-7.520051-15.584881 12.181239 1.45303 5.951058z" fill="#ab6a3b"/><path d="m30.475507 72.614781-6.157965 2.990086 18.813923-14.38126-10.432618-5.678379z" fill="#090a0a"/><path d="m67.888851 59.609021 1.000327 5.530339 11.401963 1.224396 11.657524-16.25125z" fill="#a77a57"/><path d="m200.392884 54.142201-34.038875-6.960375 41.610977-9.784599-11.580853 13.329364z" fill="#61432e"/><path d="m189.853295 139.057794 28.284327-19.337152-34.507465 20.136848-34.813277-47.234998z" fill="#281e15"/><path d="m42.910939 124.657096-18.491799-6.481885 6.78095.396665 11.587745 19.198198z" fill="#0d0c09"/><path d="m151.566118 90.449311 19.733042-15.425566-20.903097 47.606651 9.13525 5.944564z" fill="#613b22"/><path d="m92.62909 176.231854 18.502512 8.768146-30.798578-22.626321 9.659103-1.747619z" fill="#1b1711"/><path d="m22.197838 146.606093-.625046 12.434559 20.963649 5.733701-27.881624.755862z" fill="#2e251b"/><path d="m205.104996 154.642 12.91141-3.095896 12.287451-3.372908-12.079303-8.144843z" fill="#ab6c3a"/><path d="m204.867864 23.59248 3.245661-7.47256 9.599046 13.963519-35.677591 5.607931z" fill="#ae7754"/><path d="m101.121314 159.494057 38.055051 25.505943-29.769951-17.079834-5.641909-20.82115z" fill="#1d120b"/><path d="m-2.187916.440911 12.174305 7.23246-6.124403 5.518147 12.162716 6.034829z" fill="#100d07"/><path d="m99.636634 40.321681 20.155836-.059644 21.100105 11.493314.63505 1.26399z" fill="#7c4f31"/><path d="m76.550932 86.288184-22.447365-11.764703-17.766235-2.610284 43.158806 16.018333z" fill="#1b1811"/><path d="m219.388456 31.637462 51.611544 20.389992-19.104249 24.245556 2.46163-24.713913z" fill="#7c4f31"/><path d="m152.612281-9.561761.445275 11.992074-10.313441 8.61897-12.738168 12.98462z" fill="#080a07"/><path d="m109.15002 149.131883 7.633289 2.490981-.975777 15.126632-9.059054-4.619897z" fill="#b5855a"/><path d="m67.307302 161.226756 14.64522-12.15411 8.387551 4.094486-2.933575 8.813327z" fill="#b6895f"/><path d="m232.10218 152.715237-11.978966.806245 16.532406-10.481001-10.594176-1.78646z" fill="#100d09"/><path d="m136.181868 13.727282 17.412778-29.727282h-44.977009l25.464087 26.229122z" fill="#8f7351"/><path d="m224.714959-13.445872-21.028523 32.851821-23.29562 19.227512 31.119814-33.372535z" fill="#413324"/><path d="m214.172961 37.490706 13.5616-5.422737-3.022467-2.548235-26.520786 5.621776z" fill="#0f0f0c"/><path d="m66.332073 14.695896-13.105443 3.226872 13.382758 14.924219-4.814271.477833z" fill="#93735a"/><path d="m78.272709 140.854175-19.264844 10.247548 8.085745-.766356 4.462265-32.205963z" fill="#ad7d56"/><path d="m223.679324 111.878198.325884 10.95438 21.874963 3.583923 2.109751-3.161555z" fill="#ac7a56"/><path d="m34.497679 60.417549-33.608176 1.735953 1.926716-7.518022 21.904092 2.081239z" fill="#7e5c3b"/><path d="m1.044683 130.592331 5.578917-12.566452-22.6236.488027v25.84188z" fill="#ab8b6a"/><path d="m58.61536 73.782666-1.340088 4.166371 27.412121-.04792 1.909797 7.204097z" fill="#a2724d"/><path d="m138.783734 37.376207-10.926114 19.377698-3.15667-.517232 5.945948 6.452205z" fill="#050807"/><path d="m123.754322 37.626412-7.324168-42.10877.304518 26.611066-24.207006-7.190193z" fill="#5e3827"/><path d="m189.98082 8.741644-13.806094.545185 13.766476 9.194212-5.950804 6.615446z" fill="#b89e89"/><path d="m245.948516 49.908992 5.21572 11.891783 3.22968-11.65755 6.678702.76147z" fill="#190f08"/><path d="m164.369216 6.068699 16.728365 12.934602 11.784804-8.430964-5.570821 5.729706z" fill="#372f27"/><path d="m131.616219 127.669539-5.752492-.99632-8.241093-10.014213 4.081969.325977z" fill="#2d2115"/><path d="m66.868641 167.616723 3.253857-23.483852 4.625544 7.056079-23.587871 14.490251z" fill="#17130d"/><path d="m29.779301 85.032057-6.875289-.647348 17.691427 6.943699 2.21843 9.379547z" fill="#1c1510"/><path d="m106.585446 22.445791-5.340654 8.278353-15.025524-14.569438 3.148608.207735z" fill="#a78d78"/><path d="m102.050582 43.373528 14.185143-5.749641-19.646016-4.3024 14.059669-10.555477z" fill="#10110e"/><path d="m207.052227 7.302035-11.995304-1.625989 1.938946 5.753385-23.90485 21.281021z" fill="#957150"/><path d="m8.712285 115.373731-8.229913 47.773298 18.723285-4.283821-35.205657 17.542748z" fill="#211c14"/><path d="m206.812429 142.570369-.081215 5.999514 3.608203-27.791071-8.500084 6.022327z" fill="#020607"/><path d="m37.819955 34.197789 4.993996-13.733286-6.535534 3.176164 25.974177 31.468706z" fill="#2b2015"/><path d="m219.781406 34.391629 17.006745 5.447629-5.902873 8.17207-13.095066-12.090055z" fill="#b09277"/><path d="m99.379419 61.838709-6.978483-1.078325 1.317797-4.821908 10.946684-11.49295z" fill="#beb4aa"/><path d="m148.984123 129.70573 5.929579 12.219729 2.315382 10.905795-17.979876 7.18418z" fill="#b9a48f"/><path d="m241.359527 132.884392 12.40329-10.83051 14.307832 22.242515-9.15567-32.616602z" fill="#22180f"/><path d="m55.767077 128.872534 36.957206 5.815153-46.065307-9.501207 18.62472-9.706197z" fill="#2f241a"/><path d="m51.824553 33.82288-7.921949 2.321908-1.146525-17.12628-.804946-27.717459z" fill="#6c4c35"/><path d="m110.063357 24.518894 2.958823-8.297314.819683-14.783216 20.433556 12.845134z" fill="#8e492a"/><path d="m51.101797 65.84185 20.769458-26.624837-15.048139 22.062256-24.747642-11.769744z" fill="#b18d6b"/><path d="m144.031515 124.453342 2.618923-14.433547 4.663171 8.624603 6.32884 24.672392z" fill="#15130f"/><path d="m127.913865 95.758703 12.012554 17.820633-10.442358-30.193912 1.145471-.763835z" fill="#2f2315"/><path d="m117.228718 116.413741-4.934998 15.306127 28.540047-.069833-13.491214 13.598803z" fill="#b79775"/><path d="m146.861885 23.848002 19.789215 22.282342-17.598601 6.847843 13.228407-3.558565z" fill="#221b13"/><path d="m57.296408 141.057931-1.287591-13.821822-16.87924 10.638282-3.837232 8.229098z" fill="#93633d"/><path d="m221.744217 118.879392-3.290622-31.02345-21.505493-31.771272 19.167188 31.414796z" fill="#2c1e12"/><path d="m209.236587 185 45.597161-16.922749-58.374902 16.922749 32.116192-28.117135z" fill="#100e09"/><path d="m189.901229 133.553493-15.438665-11.313857 23.611333 5.514023-11.765456 23.901114z" fill="#a5744e"/><path d="m246.522383 81.89263-14.830891 15.989376 8.212494 1.874058-8.305366-17.836352z" fill="#19140e"/><path d="m205.946013 144.164249-1.851729-10.290524-18.553116 10.932759 11.672276 3.775184z" fill="#b2a28f"/><path d="m192.569967 8.780548 20.107403 9.48497-22.527382-34.265518 27.239858 29.03826z" fill="#302214"/><path d="m119.800036 86.231075.231354-22.149903-12.07827 14.556642-.443364 3.130448z" fill="#ac8e79"/><path d="m40.250236 71.638838-3.104447-6.270852 8.853851.418068 5.42685 7.911123z" fill="#bb946f"/></g></svg>