<svg xmlns="http://www.w3.org/2000/svg" version="1.1" width="1024" height="680">
<rect x="0" y="0" width="1024" height="680" fill="#464f47" />
<g transform="scale(4.000000) translate(0.5 0.5)">
<g transform="translate(96 2) rotate(161) scale(182 66)"><rect fill="#aab89a" fill-opacity="0.501961" x="-0.5" y="-0.5" width="1" height="1" /></g>
<g transform="translate(170 81) rotate(-43) scale(21 42)"><rect fill="#e4ffff" fill-opacity="0.501961" x="-0.5" y="-0.5" width="1" height="1" /></g>
<g transform="translate(144 137) rotate(282) scale(69 94)"><rect fill="#00121b" fill-opacity="0.501961" x="-0.5" y="-0.5" width="1" height="1" /></g>
<g transform="translate(46 100) rotate(71) scale(18 21)"><rect fill="#ffffff" fill-opacity="0.501961" x="-0.5" y="-0.5" width="1" height="1" /></g>
<g transform="translate(108 69) rotate(270) scale(22 54)"><rect fill="#000000" fill-opacity="0.501961" x="-0.5" y="-0.5" width="1" height="1" /></g>
<g transform="translate(244 109) rotate(181) scale(32 107)"><rect fill="#0c0d0f" fill-opacity="0.501961" x="-0.5" y="-0.5" width="1" height="1" /></g>
<g transform="translate(22 62) rotate(284) scale(103 26)"><rect fill="#0a3337" fill-opacity="0.501961" x="-0.5" y="-0.5" width="1" height="1" /></g>
<g transform="translate(69 4) rotate(179) scale(253 16)"><rect fill="#e5e0b9" fill-opacity="0.501961" x="-0.5" y="-0.5" width="1" height="1" /></g>
<g transform="translate(62 138) rotate(271) scale(46 52)"><rect fill="#ac6041" fill-opacity="0.501961" x="-0.5" y="-0.5" width="1" height="1" /></g>
<g transform="translate(137 16) rotate(359) scale(176 9)"><rect fill="#0e1c10" fill-opacity="0.501961" x="-0.5" y="-0.5" width="1" height="1" /></g>
<g transform="translate(56 43) rotate(254) scale(20 25)"><rect fill="#acf9f9" fill-opacity="0.501961" x="-0.5" y="-0.5" width="1" height="1" /></g>
<g transform="translate(255 11) rotate(178) scale(21 91)"><rect fill="#000000" fill-opacity="0.501961" x="-0.5" y="-0.5" width="1" height="1" /></g>
<g transform="translate(137 33) rotate(188) scale(137 17)"><rect fill="#62705e" fill-opacity="0.501961" x="-0.5" y="-0.5" width="1" height="1" /></g>
<g transform="translate(46 162) rotate(89) scale(11 93)"><rect fill="#341506" fill-opacity="0.501961" x="-0.5" y="-0.5" width="1" height="1" /></g>
<g transform="translate(37 68) rotate(266) scale(19 89)"><rect fill="#002a2f" fill-opacity="0.501961" x="-0.5" y="-0.5" width="1" height="1" /></g>
<g transform="translate(222 0) rotate(271) scale(24 50)"><rect fill="#0b0d15" fill-opacity="0.501961" x="-0.5" y="-0.5" width="1" height="1" /></g>
<g transform="translate(174 85) rotate(329) scale(22 28)"><rect fill="#c9d8c2" fill-opacity="0.501961" x="-0.5" y="-0.5" width="1" height="1" /></g>
<g transform="translate(36 122) rotate(90) scale(14 78)"><rect fill="#9f6654" fill-opacity="0.501961" x="-0.5" y="-0.5" width="1" height="1" /></g>
<g transform="translate(151 96) rotate(57) scale(13 29)"><rect fill="#001624" fill-opacity="0.501961" x="-0.5" y="-0.5" width="1" height="1" /></g>
<g transform="translate(169 62) rotate(213) scale(15 10)"><rect fill="#001922" fill-opacity="0.501961" x="-0.5" y="-0.5" width="1" height="1" /></g>
<g transform="translate(24 34) rotate(1) scale(83 9)"><rect fill="#acaf9b" fill-opacity="0.501961" x="-0.5" y="-0.5" width="1" height="1" /></g>
<g transform="translate(71 100) rotate(347) scale(30 24)"><rect fill="#003743" fill-opacity="0.501961" x="-0.5" y="-0.5" width="1" height="1" /></g>
<g transform="translate(181 151) rotate(180) scale(23 97)"><rect fill="#021f25" fill-opacity="0.501961" x="-0.5" y="-0.5" width="1" height="1" /></g>
<g transform="translate(136 156) rotate(91) scale(119 35)"><rect fill="#001e2b" fill-opacity="0.501961" x="-0.5" y="-0.5" width="1" height="1" /></g>
<g transform="translate(108 166) rotate(82) scale(8 23)"><rect fill="#65a2c0" fill-opacity="0.501961" x="-0.5" y="-0.5" width="1" height="1" /></g>
<g transform="translate(102 104) rotate(86) scale(48 29)"><rect fill="#696048" fill-opacity="0.501961" x="-0.5" y="-0.5" width="1" height="1" /></g>
<g transform="translate(214 23) rotate(181) scale(34 22)"><rect fill="#627461" fill-opacity="0.501961" x="-0.5" y="-0.5" width="1" height="1" /></g>
<g transform="translate(90 145) rotate(181) scale(7 48)"><rect fill="#051410" fill-opacity="0.501961" x="-0.5" y="-0.5" width="1" height="1" /></g>
<g transform="translate(213 88) rotate(273) scale(59 34)"><rect fill="#6f5446" fill-opacity="0.501961" x="-0.5" y="-0.5" width="1" height="1" /></g>
<g transform="translate(197 137) rotate(274) scale(38 7)"><rect fill="#a18262" fill-opacity="0.501961" x="-0.5" y="-0.5" width="1" height="1" /></g>
<g transform="translate(48 111) rotate(90) scale(5 80)"><rect fill="#000a06" fill-opacity="0.501961" x="-0.5" y="-0.5" width="1" height="1" /></g>
<g transform="translate(126 59) rotate(62) scale(45 27)"><rect fill="#18363f" fill-opacity="0.501961" x="-0.5" y="-0.5" width="1" height="1" /></g>
<g transform="translate(54 129) rotate(180) scale(49 8)"><rect fill="#2e3126" fill-opacity="0.501961" x="-0.5" y="-0.5" width="1" height="1" /></g>
<g transform="translate(159 117) rotate(182) scale(9 25)"><rect fill="#7a7060" fill-opacity="0.501961" x="-0.5" y="-0.5" width="1" height="1" /></g>
<g transform="translate(47 100) rotate(-18) scale(13 19)"><rect fill="#d8e4c5" fill-opacity="0.501961" x="-0.5" y="-0.5" width="1" height="1" /></g>
<g transform="translate(100 70) rotate(85) scale(21 38)"><rect fill="#000709" fill-opacity="0.501961" x="-0.5" y="-0.5" width="1" height="1" /></g>
<g transform="translate(30 48) rotate(74) scale(26 29)"><rect fill="#304740" fill-opacity="0.501961" x="-0.5" y="-0.5" width="1" height="1" /></g>
<g transform="translate(195 162) rotate(93) scale(5 67)"><rect fill="#001110" fill-opacity="0.501961" x="-0.5" y="-0.5" width="1" height="1" /></g>
<g transform="translate(158 75) rotate(302) scale(17 20)"><rect fill="#5db1bc" fill-opacity="0.501961" x="-0.5" y="-0.5" width="1" height="1" /></g>
<g transform="translate(19 141) rotate(267) scale(14 22)"><rect fill="#985a44" fill-opacity="0.501961" x="-0.5" y="-0.5" width="1" height="1" /></g>
<g transform="translate(188 71) rotate(151) scale(13 30)"><rect fill="#102932" fill-opacity="0.501961" x="-0.5" y="-0.5" width="1" height="1" /></g>
<g transform="translate(65 23) rotate(360) scale(79 12)"><rect fill="#596656" fill-opacity="0.501961" x="-0.5" y="-0.5" width="1" height="1" /></g>
<g transform="translate(33 69) rotate(90) scale(9 103)"><rect fill="#355c5e" fill-opacity="0.501961" x="-0.5" y="-0.5" width="1" height="1" /></g>
<g transform="translate(60 152) rotate(4) scale(51 20)"><rect fill="#89563c" fill-opacity="0.501961" x="-0.5" y="-0.5" width="1" height="1" /></g>
<g transform="translate(11 101) rotate(180) scale(44 25)"><rect fill="#002d38" fill-opacity="0.501961" x="-0.5" y="-0.5" width="1" height="1" /></g>
<g transform="translate(46 61) rotate(0) scale(93 2)"><rect fill="#000000" fill-opacity="0.501961" x="-0.5" y="-0.5" width="1" height="1" /></g>
<g transform="translate(140 15) rotate(272) scale(6 57)"><rect fill="#111c10" fill-opacity="0.501961" x="-0.5" y="-0.5" width="1" height="1" /></g>
<g transform="translate(135 32) rotate(97) scale(13 55)"><rect fill="#767c69" fill-opacity="0.501961" x="-0.5" y="-0.5" width="1" height="1" /></g>
<g transform="translate(45 15) rotate(182) scale(84 1)"><rect fill="#0e190c" fill-opacity="0.501961" x="-0.5" y="-0.5" width="1" height="1" /></g>
<g transform="translate(213 124) rotate(90) scale(35 9)"><rect fill="#271b1a" fill-opacity="0.501961" x="-0.5" y="-0.5" width="1" height="1" /></g>
<g transform="translate(97 42) rotate(183) scale(51 9)"><rect fill="#203a3e" fill-opacity="0.501961" x="-0.5" y="-0.5" width="1" height="1" /></g>
<g transform="translate(32 82) rotate(351) scale(76 4)"><rect fill="#55706b" fill-opacity="0.501961" x="-0.5" y="-0.5" width="1" height="1" /></g>
<g transform="translate(20 155) rotate(61) scale(7 44)"><rect fill="#2c2018" fill-opacity="0.501961" x="-0.5" y="-0.5" width="1" height="1" /></g>
<g transform="translate(47 169) rotate(87) scale(1 50)"><rect fill="#c88664" fill-opacity="0.501961" x="-0.5" y="-0.5" width="1" height="1" /></g>
<g transform="translate(217 57) rotate(354) scale(22 5)"><rect fill="#000404" fill-opacity="0.501961" x="-0.5" y="-0.5" width="1" height="1" /></g>
<g transform="translate(14 131) rotate(182) scale(81 1)"><rect fill="#000000" fill-opacity="0.501961" x="-0.5" y="-0.5" width="1" height="1" /></g>
<g transform="translate(213 150) rotate(188) scale(36 22)"><rect fill="#6e5848" fill-opacity="0.501961" x="-0.5" y="-0.5" width="1" height="1" /></g>
<g transform="translate(122 89) rotate(193) scale(9 17)"><rect fill="#00192b" fill-opacity="0.501961" x="-0.5" y="-0.5" width="1" height="1" /></g>
<g transform="translate(168 51) rotate(360) scale(73 13)"><rect fill="#4f6657" fill-opacity="0.501961" x="-0.5" y="-0.5" width="1" height="1" /></g>
<g transform="translate(181 84) rotate(153) scale(9 27)"><rect fill="#bbc2b2" fill-opacity="0.501961" x="-0.5" y="-0.5" width="1" height="1" /></g>
<g transform="translate(68 89) rotate(196) scale(17 31)"><rect fill="#26636f" fill-opacity="0.501961" x="-0.5" y="-0.5" width="1" height="1" /></g>
<g transform="translate(31 165) rotate(177) scale(67 2)"><rect fill="#000708" fill-opacity="0.501961" x="-0.5" y="-0.5" width="1" height="1" /></g>
<g transform="translate(84 98) rotate(352) scale(6 30)"><rect fill="#080e08" fill-opacity="0.501961" x="-0.5" y="-0.5" width="1" height="1" /></g>
<g transform="translate(129 22) rotate(166) scale(28 7)"><rect fill="#3e4733" fill-opacity="0.501961" x="-0.5" y="-0.5" width="1" height="1" /></g>
<g transform="translate(193 93) rotate(183) scale(4 49)"><rect fill="#0a1a18" fill-opacity="0.501961" x="-0.5" y="-0.5" width="1" height="1" /></g>
<g transform="translate(166 61) rotate(2) scale(56 4)"><rect fill="#07242e" fill-opacity="0.501961" x="-0.5" y="-0.5" width="1" height="1" /></g>
<g transform="translate(39 100) rotate(70) scale(14 9)"><rect fill="#c6d5bd" fill-opacity="0.501961" x="-0.5" y="-0.5" width="1" height="1" /></g>
<g transform="translate(106 138) rotate(187) scale(24 39)"><rect fill="#39402f" fill-opacity="0.501961" x="-0.5" y="-0.5" width="1" height="1" /></g>
<g transform="translate(255 28) rotate(179) scale(19 50)"><rect fill="#001116" fill-opacity="0.501961" x="-0.5" y="-0.5" width="1" height="1" /></g>
<g transform="translate(11 77) rotate(180) scale(50 7)"><rect fill="#001512" fill-opacity="0.501961" x="-0.5" y="-0.5" width="1" height="1" /></g>
<g transform="translate(71 118) rotate(84) scale(3 35)"><rect fill="#b78d79" fill-opacity="0.501961" x="-0.5" y="-0.5" width="1" height="1" /></g>
<g transform="translate(96 114) rotate(19) scale(1 20)"><rect fill="#d2b686" fill-opacity="0.501961" x="-0.5" y="-0.5" width="1" height="1" /></g>
<g transform="translate(139 86) rotate(363) scale(11 18)"><rect fill="#758156" fill-opacity="0.501961" x="-0.5" y="-0.5" width="1" height="1" /></g>
<g transform="translate(146 79) rotate(341) scale(7 38)"><rect fill="#0f2b36" fill-opacity="0.501961" x="-0.5" y="-0.5" width="1" height="1" /></g>
<g transform="translate(71 5) rotate(-4) scale(70 1)"><rect fill="#726f4f" fill-opacity="0.501961" x="-0.5" y="-0.5" width="1" height="1" /></g>
<g transform="translate(160 134) rotate(186) scale(6 73)"><rect fill="#4e4e45" fill-opacity="0.501961" x="-0.5" y="-0.5" width="1" height="1" /></g>
<g transform="translate(105 100) rotate(89) scale(29 7)"><rect fill="#212b26" fill-opacity="0.501961" x="-0.5" y="-0.5" width="1" height="1" /></g>
<g transform="translate(149 8) rotate(-4) scale(43 6)"><rect fill="#ccd4c1" fill-opacity="0.501961" x="-0.5" y="-0.5" width="1" height="1" /></g>
<g transform="translate(205 20) rotate(-71) scale(6 8)"><rect fill="#aeab8b" fill-opacity="0.501961" x="-0.5" y="-0.5" width="1" height="1" /></g>
<g transform="translate(58 36) rotate(-15) scale(20 13)"><rect fill="#bccebf" fill-opacity="0.501961" x="-0.5" y="-0.5" width="1" height="1" /></g>
<g transform="translate(15 19) rotate(4) scale(111 9)"><rect fill="#5b6b5a" fill-opacity="0.501961" x="-0.5" y="-0.5" width="1" height="1" /></g>
<g transform="translate(63 140) rotate(165) scale(17 12)"><rect fill="#6e856f" fill-opacity="0.501961" x="-0.5" y="-0.5" width="1" height="1" /></g>
<g transform="translate(62 50) rotate(171) scale(18 6)"><rect fill="#52cad3" fill-opacity="0.501961" x="-0.5" y="-0.5" width="1" height="1" /></g>
<g transform="translate(189 19) rotate(59) scale(10 27)"><rect fill="#1e3428" fill-opacity="0.501961" x="-0.5" y="-0.5" width="1" height="1" /></g>
<g transform="translate(94 85) rotate(50) scale(5 18)"><rect fill="#887971" fill-opacity="0.501961" x="-0.5" y="-0.5" width="1" height="1" /></g>
<g transform="translate(255 72) rotate(271) scale(32 6)"><rect fill="#000509" fill-opacity="0.501961" x="-0.5" y="-0.5" width="1" height="1" /></g>
<g transform="translate(176 95) rotate(335) scale(14 12)"><rect fill="#caceba" fill-opacity="0.501961" x="-0.5" y="-0.5" width="1" height="1" /></g>
<g transform="translate(201 61) rotate(86) scale(9 10)"><rect fill="#96826f" fill-opacity="0.501961" x="-0.5" y="-0.5" width="1" height="1" /></g>
<g transform="translate(232 35) rotate(89) scale(42 28)"><rect fill="#38554c" fill-opacity="0.501961" x="-0.5" y="-0.5" width="1" height="1" /></g>
<g transform="translate(106 15) rotate(163) scale(16 11)"><rect fill="#413d22" fill-opacity="0.501961" x="-0.5" y="-0.5" width="1" height="1" /></g>
<g transform="translate(20 43) rotate(205) scale(13 31)"><rect fill="#4b6055" fill-opacity="0.501961" x="-0.5" y="-0.5" width="1" height="1" /></g>
<g transform="translate(160 89) rotate(240) scale(9 7)"><rect fill="#1b2728" fill-opacity="0.501961" x="-0.5" y="-0.5" width="1" height="1" /></g>
<g transform="translate(126 56) rotate(161) scale(18 10)"><rect fill="#575f52" fill-opacity="0.501961" x="-0.5" y="-0.5" width="1" height="1" /></g>
<g transform="translate(113 45) rotate(173) scale(40 13)"><rect fill="#20332d" fill-opacity="0.501961" x="-0.5" y="-0.5" width="1" height="1" /></g>
<g transform="translate(52 10) rotate(360) scale(84 5)"><rect fill="#bec5a8" fill-opacity="0.501961" x="-0.5" y="-0.5" width="1" height="1" /></g>
<g transform="translate(57 166) rotate(267) scale(1 57)"><rect fill="#000407" fill-opacity="0.501961" x="-0.5" y="-0.5" width="1" height="1" /></g>
<g transform="translate(83 47) rotate(206) scale(35 6)"><rect fill="#4f695c" fill-opacity="0.501961" x="-0.5" y="-0.5" width="1" height="1" /></g>
<g transform="translate(226 65) rotate(191) scale(6 8)"><rect fill="#a9866d" fill-opacity="0.501961" x="-0.5" y="-0.5" width="1" height="1" /></g>
<g transform="translate(110 25) rotate(201) scale(10 13)"><rect fill="#9d9871" fill-opacity="0.501961" x="-0.5" y="-0.5" width="1" height="1" /></g>
<g transform="translate(235 61) rotate(336) scale(10 13)"><rect fill="#000b08" fill-opacity="0.501961" x="-0.5" y="-0.5" width="1" height="1" /></g>
<g transform="translate(243 167) rotate(89) scale(1 96)"><rect fill="#688283" fill-opacity="0.501961" x="-0.5" y="-0.5" width="1" height="1" /></g>
<g transform="translate(210 77) rotate(200) scale(14 7)"><rect fill="#232722" fill-opacity="0.501961" x="-0.5" y="-0.5" width="1" height="1" /></g>
<g transform="translate(132 159) rotate(183) scale(28 49)"><rect fill="#012027" fill-opacity="0.501961" x="-0.5" y="-0.5" width="1" height="1" /></g>
<g transform="translate(13 24) rotate(299) scale(4 9)"><rect fill="#cfceb1" fill-opacity="0.501961" x="-0.5" y="-0.5" width="1" height="1" /></g>
<g transform="translate(175 79) rotate(235) scale(42 1)"><rect fill="#87aba3" fill-opacity="0.501961" x="-0.5" y="-0.5" width="1" height="1" /></g>
<g transform="translate(182 108) rotate(150) scale(28 14)"><rect fill="#1e3034" fill-opacity="0.501961" x="-0.5" y="-0.5" width="1" height="1" /></g>
<g transform="translate(2 11) rotate(90) scale(5 32)"><rect fill="#c1d1b2" fill-opacity="0.501961" x="-0.5" y="-0.5" width="1" height="1" /></g>
<g transform="translate(235 2) rotate(3) scale(32 1)"><rect fill="#7b3c00" fill-opacity="0.501961" x="-0.5" y="-0.5" width="1" height="1" /></g>
<g transform="translate(240 109) rotate(92) scale(47 5)"><rect fill="#4f4942" fill-opacity="0.501961" x="-0.5" y="-0.5" width="1" height="1" /></g>
<g transform="translate(42 124) rotate(-1) scale(56 10)"><rect fill="#7a5644" fill-opacity="0.501961" x="-0.5" y="-0.5" width="1" height="1" /></g>
<g transform="translate(187 94) rotate(59) scale(1 12)"><rect fill="#e9e3cc" fill-opacity="0.501961" x="-0.5" y="-0.5" width="1" height="1" /></g>
<g transform="translate(222 163) rotate(181) scale(64 1)"><rect fill="#001416" fill-opacity="0.501961" x="-0.5" y="-0.5" width="1" height="1" /></g>
<g transform="translate(169 63) rotate(325) scale(6 16)"><rect fill="#253539" fill-opacity="0.501961" x="-0.5" y="-0.5" width="1" height="1" /></g>
<g transform="translate(14 158) rotate(359) scale(47 12)"><rect fill="#4a3123" fill-opacity="0.501961" x="-0.5" y="-0.5" width="1" height="1" /></g>
<g transform="translate(166 101) rotate(246) scale(10 8)"><rect fill="#0b2937" fill-opacity="0.501961" x="-0.5" y="-0.5" width="1" height="1" /></g>
<g transform="translate(225 108) rotate(89) scale(75 7)"><rect fill="#735a4b" fill-opacity="0.501961" x="-0.5" y="-0.5" width="1" height="1" /></g>
<g transform="translate(13 7) rotate(358) scale(51 1)"><rect fill="#757f5e" fill-opacity="0.501961" x="-0.5" y="-0.5" width="1" height="1" /></g>
<g transform="translate(190 87) rotate(149) scale(1 57)"><rect fill="#263538" fill-opacity="0.501961" x="-0.5" y="-0.5" width="1" height="1" /></g>
<g transform="translate(162 4) rotate(-4) scale(32 1)"><rect fill="#7f826d" fill-opacity="0.501961" x="-0.5" y="-0.5" width="1" height="1" /></g>
<g transform="translate(197 95) rotate(6) scale(3 44)"><rect fill="#775f43" fill-opacity="0.501961" x="-0.5" y="-0.5" width="1" height="1" /></g>
<g transform="translate(105 15) rotate(1) scale(51 4)"><rect fill="#1b281d" fill-opacity="0.501961" x="-0.5" y="-0.5" width="1" height="1" /></g>
<g transform="translate(40 117) rotate(361) scale(90 1)"><rect fill="#ab8179" fill-opacity="0.501961" x="-0.5" y="-0.5" width="1" height="1" /></g>
<g transform="translate(181 42) rotate(265) scale(32 41)"><rect fill="#485b4d" fill-opacity="0.501961" x="-0.5" y="-0.5" width="1" height="1" /></g>
<g transform="translate(184 5) rotate(130) scale(13 1)"><rect fill="#5e6447" fill-opacity="0.501961" x="-0.5" y="-0.5" width="1" height="1" /></g>
<g transform="translate(129 74) rotate(98) scale(25 13)"><rect fill="#16364a" fill-opacity="0.501961" x="-0.5" y="-0.5" width="1" height="1" /></g>
<g transform="translate(90 72) rotate(191) scale(16 18)"><rect fill="#021814" fill-opacity="0.501961" x="-0.5" y="-0.5" width="1" height="1" /></g>
<g transform="translate(113 96) rotate(183) scale(4 30)"><rect fill="#7c7764" fill-opacity="0.501961" x="-0.5" y="-0.5" width="1" height="1" /></g>
<g transform="translate(139 34) rotate(0) scale(6 9)"><rect fill="#859ba3" fill-opacity="0.501961" x="-0.5" y="-0.5" width="1" height="1" /></g>
<g transform="translate(36 85) rotate(69) scale(13 11)"><rect fill="#1f5f6b" fill-opacity="0.501961" x="-0.5" y="-0.5" width="1" height="1" /></g>
<g transform="translate(48 108) rotate(259) scale(1 21)"><rect fill="#9f9b7b" fill-opacity="0.501961" x="-0.5" y="-0.5" width="1" height="1" /></g>
<g transform="translate(91 132) rotate(183) scale(61 1)"><rect fill="#17201a" fill-opacity="0.501961" x="-0.5" y="-0.5" width="1" height="1" /></g>
<g transform="translate(105 166) rotate(264) scale(2 27)"><rect fill="#7399a7" fill-opacity="0.501961" x="-0.5" y="-0.5" width="1" height="1" /></g>
<g transform="translate(161 111) rotate(366) scale(7 10)"><rect fill="#7f796d" fill-opacity="0.501961" x="-0.5" y="-0.5" width="1" height="1" /></g>
<g transform="translate(92 111) rotate(261) scale(43 3)"><rect fill="#776a4e" fill-opacity="0.501961" x="-0.5" y="-0.5" width="1" height="1" /></g>
<g transform="translate(233 107) rotate(360) scale(8 61)"><rect fill="#131e1e" fill-opacity="0.501961" x="-0.5" y="-0.5" width="1" height="1" /></g>
<g transform="translate(19 132) rotate(88) scale(1 39)"><rect fill="#090904" fill-opacity="0.501961" x="-0.5" y="-0.5" width="1" height="1" /></g>
<g transform="translate(48 77) rotate(254) scale(24 10)"><rect fill="#474134" fill-opacity="0.501961" x="-0.5" y="-0.5" width="1" height="1" /></g>
<g transform="translate(25 112) rotate(272) scale(3 50)"><rect fill="#051210" fill-opacity="0.501961" x="-0.5" y="-0.5" width="1" height="1" /></g>
<g transform="translate(178 156) rotate(186) scale(28 52)"><rect fill="#102b2b" fill-opacity="0.501961" x="-0.5" y="-0.5" width="1" height="1" /></g>
<g transform="translate(70 95) rotate(96) scale(28 22)"><rect fill="#2a5356" fill-opacity="0.501961" x="-0.5" y="-0.5" width="1" height="1" /></g>
<g transform="translate(109 152) rotate(289) scale(4 16)"><rect fill="#596050" fill-opacity="0.501961" x="-0.5" y="-0.5" width="1" height="1" /></g>
<g transform="translate(115 10) rotate(188) scale(10 6)"><rect fill="#977f4f" fill-opacity="0.501961" x="-0.5" y="-0.5" width="1" height="1" /></g>
<g transform="translate(159 72) rotate(249) scale(17 13)"><rect fill="#73b6bb" fill-opacity="0.501961" x="-0.5" y="-0.5" width="1" height="1" /></g>
<g transform="translate(199 119) rotate(5) scale(8 17)"><rect fill="#837861" fill-opacity="0.501961" x="-0.5" y="-0.5" width="1" height="1" /></g>
<g transform="translate(199 156) rotate(278) scale(7 15)"><rect fill="#916852" fill-opacity="0.501961" x="-0.5" y="-0.5" width="1" height="1" /></g>
<g transform="translate(166 120) rotate(104) scale(3 22)"><rect fill="#152525" fill-opacity="0.501961" x="-0.5" y="-0.5" width="1" height="1" /></g>
<g transform="translate(24 105) rotate(354) scale(21 6)"><rect fill="#215565" fill-opacity="0.501961" x="-0.5" y="-0.5" width="1" height="1" /></g>
<g transform="translate(214 24) rotate(261) scale(1 31)"><rect fill="#26362b" fill-opacity="0.501961" x="-0.5" y="-0.5" width="1" height="1" /></g>
<g transform="translate(135 42) rotate(172) scale(20 3)"><rect fill="#172a25" fill-opacity="0.501961" x="-0.5" y="-0.5" width="1" height="1" /></g>
<g transform="translate(209 30) rotate(185) scale(14 9)"><rect fill="#7b7b5f" fill-opacity="0.501961" x="-0.5" y="-0.5" width="1" height="1" /></g>
<g transform="translate(55 63) rotate(89) scale(1 129)"><rect fill="#00120e" fill-opacity="0.501961" x="-0.5" y="-0.5" width="1" height="1" /></g>
<g transform="translate(242 84) rotate(100) scale(37 15)"><rect fill="#333839" fill-opacity="0.501961" x="-0.5" y="-0.5" width="1" height="1" /></g>
<g transform="translate(78 60) rotate(179) scale(81 1)"><rect fill="#001109" fill-opacity="0.501961" x="-0.5" y="-0.5" width="1" height="1" /></g>
<g transform="translate(101 112) rotate(264) scale(53 1)"><rect fill="#627163" fill-opacity="0.501961" x="-0.5" y="-0.5" width="1" height="1" /></g>
<g transform="translate(105 159) rotate(95) scale(5 33)"><rect fill="#00181c" fill-opacity="0.501961" x="-0.5" y="-0.5" width="1" height="1" /></g>
<g transform="translate(255 125) rotate(359) scale(8 50)"><rect fill="#22160f" fill-opacity="0.501961" x="-0.5" y="-0.5" width="1" height="1" /></g>
<g transform="translate(45 29) rotate(167) scale(55 6)"><rect fill="#5e6c63" fill-opacity="0.501961" x="-0.5" y="-0.5" width="1" height="1" /></g>
<g transform="translate(71 143) rotate(77) scale(6 6)"><rect fill="#353c30" fill-opacity="0.501961" x="-0.5" y="-0.5" width="1" height="1" /></g>
<g transform="translate(32 134) rotate(178) scale(80 2)"><rect fill="#7f6351" fill-opacity="0.501961" x="-0.5" y="-0.5" width="1" height="1" /></g>
<g transform="translate(57 45) rotate(-15) scale(24 10)"><rect fill="#7fada5" fill-opacity="0.501961" x="-0.5" y="-0.5" width="1" height="1" /></g>
<g transform="translate(74 56) rotate(358) scale(119 3)"><rect fill="#455b52" fill-opacity="0.501961" x="-0.5" y="-0.5" width="1" height="1" /></g>
<g transform="translate(222 17) rotate(276) scale(7 43)"><rect fill="#53675c" fill-opacity="0.501961" x="-0.5" y="-0.5" width="1" height="1" /></g>
<g transform="translate(17 85) rotate(92) scale(5 26)"><rect fill="#60655d" fill-opacity="0.501961" x="-0.5" y="-0.5" width="1" height="1" /></g>
<g transform="translate(14 50) rotate(180) scale(61 15)"><rect fill="#3a5752" fill-opacity="0.501961" x="-0.5" y="-0.5" width="1" height="1" /></g>
<g transform="translate(1 33) rotate(357) scale(15 12)"><rect fill="#919b79" fill-opacity="0.501961" x="-0.5" y="-0.5" width="1" height="1" /></g>
<g transform="translate(207 149) rotate(166) scale(12 1)"><rect fill="#031c14" fill-opacity="0.501961" x="-0.5" y="-0.5" width="1" height="1" /></g>
<g transform="translate(81 124) rotate(175) scale(7 13)"><rect fill="#a86f52" fill-opacity="0.501961" x="-0.5" y="-0.5" width="1" height="1" /></g>
<g transform="translate(80 169) rotate(180) scale(16 5)"><rect fill="#706d71" fill-opacity="0.501961" x="-0.5" y="-0.5" width="1" height="1" /></g>
<g transform="translate(10 169) rotate(88) scale(1 37)"><rect fill="#8b5e44" fill-opacity="0.501961" x="-0.5" y="-0.5" width="1" height="1" /></g>
<g transform="translate(141 67) rotate(109) scale(16 18)"><rect fill="#18323e" fill-opacity="0.501961" x="-0.5" y="-0.5" width="1" height="1" /></g>
<g transform="translate(212 45) rotate(182) scale(26 21)"><rect fill="#3e4f44" fill-opacity="0.501961" x="-0.5" y="-0.5" width="1" height="1" /></g>
<g transform="translate(50 35) rotate(169) scale(16 7)"><rect fill="#b8d3c7" fill-opacity="0.501961" x="-0.5" y="-0.5" width="1" height="1" /></g>
<g transform="translate(85 37) rotate(-3) scale(8 7)"><rect fill="#707d90" fill-opacity="0.501961" x="-0.5" y="-0.5" width="1" height="1" /></g>
<g transform="translate(91 156) rotate(87) scale(98 1)"><rect fill="#15221c" fill-opacity="0.501961" x="-0.5" y="-0.5" width="1" height="1" /></g>
<g transform="translate(68 136) rotate(53) scale(8 6)"><rect fill="#9f9b82" fill-opacity="0.501961" x="-0.5" y="-0.5" width="1" height="1" /></g>
<g transform="translate(107 121) rotate(189) scale(17 24)"><rect fill="#2f3c32" fill-opacity="0.501961" x="-0.5" y="-0.5" width="1" height="1" /></g>
<g transform="translate(110 72) rotate(74) scale(16 20)"><rect fill="#001116" fill-opacity="0.501961" x="-0.5" y="-0.5" width="1" height="1" /></g>
<g transform="translate(154 78) rotate(149) scale(7 8)"><rect fill="#89b9b9" fill-opacity="0.501961" x="-0.5" y="-0.5" width="1" height="1" /></g>
<g transform="translate(10 67) rotate(176) scale(80 1)"><rect fill="#316671" fill-opacity="0.501961" x="-0.5" y="-0.5" width="1" height="1" /></g>
<g transform="translate(38 156) rotate(284) scale(15 12)"><rect fill="#7a4930" fill-opacity="0.501961" x="-0.5" y="-0.5" width="1" height="1" /></g>
<g transform="translate(79 140) rotate(283) scale(16 8)"><rect fill="#a55f45" fill-opacity="0.501961" x="-0.5" y="-0.5" width="1" height="1" /></g>
<g transform="translate(12 142) rotate(177) scale(10 18)"><rect fill="#845647" fill-opacity="0.501961" x="-0.5" y="-0.5" width="1" height="1" /></g>
<g transform="translate(112 4) rotate(273) scale(1 57)"><rect fill="#989372" fill-opacity="0.501961" x="-0.5" y="-0.5" width="1" height="1" /></g>
<g transform="translate(33 140) rotate(195) scale(20 10)"><rect fill="#4c4b39" fill-opacity="0.501961" x="-0.5" y="-0.5" width="1" height="1" /></g>
<g transform="translate(232 13) rotate(177) scale(24 2)"><rect fill="#64817a" fill-opacity="0.501961" x="-0.5" y="-0.5" width="1" height="1" /></g>
<g transform="translate(48 143) rotate(76) scale(19 7)"><rect fill="#a76049" fill-opacity="0.501961" x="-0.5" y="-0.5" width="1" height="1" /></g>
<g transform="translate(1 22) rotate(361) scale(19 13)"><rect fill="#486050" fill-opacity="0.501961" x="-0.5" y="-0.5" width="1" height="1" /></g>
<g transform="translate(30 61) rotate(181) scale(85 3)"><rect fill="#001612" fill-opacity="0.501961" x="-0.5" y="-0.5" width="1" height="1" /></g>
<g transform="translate(97 115) rotate(288) scale(23 1)"><rect fill="#9b8664" fill-opacity="0.501961" x="-0.5" y="-0.5" width="1" height="1" /></g>
<g transform="translate(105 40) rotate(200) scale(30 2)"><rect fill="#33474e" fill-opacity="0.501961" x="-0.5" y="-0.5" width="1" height="1" /></g>
<g transform="translate(0 79) rotate(89) scale(8 35)"><rect fill="#001d1f" fill-opacity="0.501961" x="-0.5" y="-0.5" width="1" height="1" /></g>
<g transform="translate(187 17) rotate(334) scale(24 10)"><rect fill="#233327" fill-opacity="0.501961" x="-0.5" y="-0.5" width="1" height="1" /></g>
<g transform="translate(195 75) rotate(268) scale(29 1)"><rect fill="#181a11" fill-opacity="0.501961" x="-0.5" y="-0.5" width="1" height="1" /></g>
<g transform="translate(143 29) rotate(-6) scale(47 4)"><rect fill="#6f7765" fill-opacity="0.501961" x="-0.5" y="-0.5" width="1" height="1" /></g>
<g transform="translate(68 54) rotate(345) scale(30 4)"><rect fill="#455f58" fill-opacity="0.501961" x="-0.5" y="-0.5" width="1" height="1" /></g>
<g transform="translate(50 101) rotate(70) scale(17 10)"><rect fill="#bfcab8" fill-opacity="0.501961" x="-0.5" y="-0.5" width="1" height="1" /></g>
<g transform="translate(181 80) rotate(328) scale(5 22)"><rect fill="#cbc8b2" fill-opacity="0.501961" x="-0.5" y="-0.5" width="1" height="1" /></g>
<g transform="translate(15 22) rotate(74) scale(1 7)"><rect fill="#d0ceb1" fill-opacity="0.501961" x="-0.5" y="-0.5" width="1" height="1" /></g>
<g transform="translate(163 168) rotate(348) scale(1 10)"><rect fill="#868162" fill-opacity="0.501961" x="-0.5" y="-0.5" width="1" height="1" /></g>
<g transform="translate(245 166) rotate(183) scale(35 1)"><rect fill="#6d8084" fill-opacity="0.501961" x="-0.5" y="-0.5" width="1" height="1" /></g>
<g transform="translate(213 130) rotate(375) scale(14 23)"><rect fill="#3f3028" fill-opacity="0.501961" x="-0.5" y="-0.5" width="1" height="1" /></g>
<g transform="translate(150 88) rotate(98) scale(7 22)"><rect fill="#1e3232" fill-opacity="0.501961" x="-0.5" y="-0.5" width="1" height="1" /></g>
<g transform="translate(30 9) rotate(268) scale(9 18)"><rect fill="#a0a17c" fill-opacity="0.501961" x="-0.5" y="-0.5" width="1" height="1" /></g>
<g transform="translate(255 90) rotate(306) scale(1 8)"><rect fill="#76868e" fill-opacity="0.501961" x="-0.5" y="-0.5" width="1" height="1" /></g>
<g transform="translate(204 107) rotate(24) scale(45 4)"><rect fill="#303937" fill-opacity="0.501961" x="-0.5" y="-0.5" width="1" height="1" /></g>
<g transform="translate(66 25) rotate(270) scale(1 75)"><rect fill="#3d4c42" fill-opacity="0.501961" x="-0.5" y="-0.5" width="1" height="1" /></g>
<g transform="translate(88 8) rotate(265) scale(3 29)"><rect fill="#c9cdb8" fill-opacity="0.501961" x="-0.5" y="-0.5" width="1" height="1" /></g>
<g transform="translate(254 14) rotate(374) scale(5 40)"><rect fill="#000b0a" fill-opacity="0.501961" x="-0.5" y="-0.5" width="1" height="1" /></g>
<g transform="translate(139 80) rotate(185) scale(13 6)"><rect fill="#6e7553" fill-opacity="0.501961" x="-0.5" y="-0.5" width="1" height="1" /></g>
<g transform="translate(107 143) rotate(268) scale(42 3)"><rect fill="#152625" fill-opacity="0.501961" x="-0.5" y="-0.5" width="1" height="1" /></g>
<g transform="translate(69 77) rotate(366) scale(26 3)"><rect fill="#527678" fill-opacity="0.501961" x="-0.5" y="-0.5" width="1" height="1" /></g>
<g transform="translate(165 125) rotate(267) scale(5 34)"><rect fill="#1d2b2d" fill-opacity="0.501961" x="-0.5" y="-0.5" width="1" height="1" /></g>
<g transform="translate(238 149) rotate(197) scale(23 11)"><rect fill="#2f3a37" fill-opacity="0.501961" x="-0.5" y="-0.5" width="1" height="1" /></g>
<g transform="translate(19 155) rotate(84) scale(6 23)"><rect fill="#222621" fill-opacity="0.501961" x="-0.5" y="-0.5" width="1" height="1" /></g>
<g transform="translate(100 80) rotate(132) scale(6 1)"><rect fill="#947f84" fill-opacity="0.501961" x="-0.5" y="-0.5" width="1" height="1" /></g>
<g transform="translate(192 58) rotate(103) scale(1 21)"><rect fill="#908775" fill-opacity="0.501961" x="-0.5" y="-0.5" width="1" height="1" /></g>
<g transform="translate(215 3) rotate(361) scale(36 1)"><rect fill="#713224" fill-opacity="0.501961" x="-0.5" y="-0.5" width="1" height="1" /></g>
<g transform="translate(100 95) rotate(152) scale(3 1)"><rect fill="#c7d0be" fill-opacity="0.501961" x="-0.5" y="-0.5" width="1" height="1" /></g>
<g transform="translate(179 85) rotate(155) scale(4 14)"><rect fill="#7fa39b" fill-opacity="0.501961" x="-0.5" y="-0.5" width="1" height="1" /></g>
<g transform="translate(165 63) rotate(287) scale(1 40)"><rect fill="#1b323a" fill-opacity="0.501961" x="-0.5" y="-0.5" width="1" height="1" /></g>
<g transform="translate(17 125) rotate(180) scale(40 9)"><rect fill="#7d503c" fill-opacity="0.501961" x="-0.5" y="-0.5" width="1" height="1" /></g>
<g transform="translate(210 86) rotate(-5) scale(29 13)"><rect fill="#64574c" fill-opacity="0.501961" x="-0.5" y="-0.5" width="1" height="1" /></g>
<g transform="translate(223 58) rotate(94) scale(1 36)"><rect fill="#000303" fill-opacity="0.501961" x="-0.5" y="-0.5" width="1" height="1" /></g>
<g transform="translate(18 0) rotate(180) scale(30 5)"><rect fill="#c0cbb2" fill-opacity="0.501961" x="-0.5" y="-0.5" width="1" height="1" /></g>
<g transform="translate(215 60) rotate(268) scale(1 25)"><rect fill="#9a8973" fill-opacity="0.501961" x="-0.5" y="-0.5" width="1" height="1" /></g>
<g transform="translate(119 105) rotate(177) scale(1 55)"><rect fill="#0e1710" fill-opacity="0.501961" x="-0.5" y="-0.5" width="1" height="1" /></g>
<g transform="translate(159 73) rotate(301) scale(22 6)"><rect fill="#83b8b8" fill-opacity="0.501961" x="-0.5" y="-0.5" width="1" height="1" /></g>
<g transform="translate(0 40) rotate(92) scale(3 26)"><rect fill="#12362d" fill-opacity="0.501961" x="-0.5" y="-0.5" width="1" height="1" /></g>
<g transform="translate(173 88) rotate(132) scale(9 18)"><rect fill="#c5cfbe" fill-opacity="0.501961" x="-0.5" y="-0.5" width="1" height="1" /></g>
<g transform="translate(206 65) rotate(86) scale(7 18)"><rect fill="#4b473d" fill-opacity="0.501961" x="-0.5" y="-0.5" width="1" height="1" /></g>
<g transform="translate(148 17) rotate(275) scale(5 58)"><rect fill="#2a3729" fill-opacity="0.501961" x="-0.5" y="-0.5" width="1" height="1" /></g>
<g transform="translate(63 146) rotate(186) scale(22 1)"><rect fill="#503726" fill-opacity="0.501961" x="-0.5" y="-0.5" width="1" height="1" /></g>
<g transform="translate(203 136) rotate(106) scale(30 7)"><rect fill="#595045" fill-opacity="0.501961" x="-0.5" y="-0.5" width="1" height="1" /></g>
<g transform="translate(188 168) rotate(111) scale(21 11)"><rect fill="#011d20" fill-opacity="0.501961" x="-0.5" y="-0.5" width="1" height="1" /></g>
<g transform="translate(255 45) rotate(176) scale(19 23)"><rect fill="#152b2e" fill-opacity="0.501961" x="-0.5" y="-0.5" width="1" height="1" /></g>
<g transform="translate(50 52) rotate(0) scale(8 4)"><rect fill="#59ccd8" fill-opacity="0.501961" x="-0.5" y="-0.5" width="1" height="1" /></g>
<g transform="translate(16 149) rotate(263) scale(1 20)"><rect fill="#767679" fill-opacity="0.501961" x="-0.5" y="-0.5" width="1" height="1" /></g>
<g transform="translate(71 157) rotate(278) scale(5 35)"><rect fill="#7b5540" fill-opacity="0.501961" x="-0.5" y="-0.5" width="1" height="1" /></g>
<g transform="translate(223 145) rotate(259) scale(29 9)"><rect fill="#6b574c" fill-opacity="0.501961" x="-0.5" y="-0.5" width="1" height="1" /></g>
<g transform="translate(97 139) rotate(214) scale(28 4)"><rect fill="#1a1e16" fill-opacity="0.501961" x="-0.5" y="-0.5" width="1" height="1" /></g>
<g transform="translate(58 51) rotate(165) scale(21 1)"><rect fill="#9fd2cd" fill-opacity="0.501961" x="-0.5" y="-0.5" width="1" height="1" /></g>
<g transform="translate(127 77) rotate(185) scale(15 23)"><rect fill="#1b3543" fill-opacity="0.501961" x="-0.5" y="-0.5" width="1" height="1" /></g>
<g transform="translate(78 103) rotate(62) scale(11 4)"><rect fill="#556358" fill-opacity="0.501961" x="-0.5" y="-0.5" width="1" height="1" /></g>
<g transform="translate(152 95) rotate(20) scale(14 23)"><rect fill="#142e36" fill-opacity="0.501961" x="-0.5" y="-0.5" width="1" height="1" /></g>
<g transform="translate(185 14) rotate(132) scale(11 1)"><rect fill="#666a4c" fill-opacity="0.501961" x="-0.5" y="-0.5" width="1" height="1" /></g>
<g transform="translate(167 113) rotate(184) scale(7 13)"><rect fill="#364644" fill-opacity="0.501961" x="-0.5" y="-0.5" width="1" height="1" /></g>
<g transform="translate(102 122) rotate(271) scale(20 3)"><rect fill="#556a59" fill-opacity="0.501961" x="-0.5" y="-0.5" width="1" height="1" /></g>
<g transform="translate(59 81) rotate(180) scale(5 10)"><rect fill="#765f3c" fill-opacity="0.501961" x="-0.5" y="-0.5" width="1" height="1" /></g>
<g transform="translate(136 93) rotate(259) scale(3 19)"><rect fill="#707e5d" fill-opacity="0.501961" x="-0.5" y="-0.5" width="1" height="1" /></g>
<g transform="translate(22 94) rotate(91) scale(5 14)"><rect fill="#0b1914" fill-opacity="0.501961" x="-0.5" y="-0.5" width="1" height="1" /></g>
<g transform="translate(143 40) rotate(412) scale(1 10)"><rect fill="#253830" fill-opacity="0.501961" x="-0.5" y="-0.5" width="1" height="1" /></g>
<g transform="translate(119 27) rotate(91) scale(16 10)"><rect fill="#54604a" fill-opacity="0.501961" x="-0.5" y="-0.5" width="1" height="1" /></g>
<g transform="translate(85 150) rotate(2) scale(3 15)"><rect fill="#48423d" fill-opacity="0.501961" x="-0.5" y="-0.5" width="1" height="1" /></g>
<g transform="translate(84 100) rotate(-12) scale(1 23)"><rect fill="#000202" fill-opacity="0.501961" x="-0.5" y="-0.5" width="1" height="1" /></g>
<g transform="translate(4 86) rotate(370) scale(17 1)"><rect fill="#7c8781" fill-opacity="0.501961" x="-0.5" y="-0.5" width="1" height="1" /></g>
<g transform="translate(168 13) rotate(357) scale(50 1)"><rect fill="#0f201a" fill-opacity="0.501961" x="-0.5" y="-0.5" width="1" height="1" /></g>
<g transform="translate(222 8) rotate(271) scale(7 46)"><rect fill="#122a36" fill-opacity="0.501961" x="-0.5" y="-0.5" width="1" height="1" /></g>
<g transform="translate(62 149) rotate(181) scale(45 6)"><rect fill="#95573e" fill-opacity="0.501961" x="-0.5" y="-0.5" width="1" height="1" /></g>
<g transform="translate(32 145) rotate(279) scale(8 5)"><rect fill="#221d17" fill-opacity="0.501961" x="-0.5" y="-0.5" width="1" height="1" /></g>
<g transform="translate(20 69) rotate(268) scale(5 25)"><rect fill="#044251" fill-opacity="0.501961" x="-0.5" y="-0.5" width="1" height="1" /></g>
<g transform="translate(110 83) rotate(366) scale(11 1)"><rect fill="#9a9084" fill-opacity="0.501961" x="-0.5" y="-0.5" width="1" height="1" /></g>
<g transform="translate(101 169) rotate(191) scale(19 2)"><rect fill="#325261" fill-opacity="0.501961" x="-0.5" y="-0.5" width="1" height="1" /></g>
<g transform="translate(79 66) rotate(229) scale(6 1)"><rect fill="#8e845e" fill-opacity="0.501961" x="-0.5" y="-0.5" width="1" height="1" /></g>
<g transform="translate(200 32) rotate(84) scale(40 4)"><rect fill="#475549" fill-opacity="0.501961" x="-0.5" y="-0.5" width="1" height="1" /></g>
<g transform="translate(13 109) rotate(270) scale(4 46)"><rect fill="#112a2b" fill-opacity="0.501961" x="-0.5" y="-0.5" width="1" height="1" /></g>
<g transform="translate(8 89) rotate(95) scale(3 46)"><rect fill="#333b33" fill-opacity="0.501961" x="-0.5" y="-0.5" width="1" height="1" /></g>
<g transform="translate(117 118) rotate(88) scale(82 1)"><rect fill="#3b3928" fill-opacity="0.501961" x="-0.5" y="-0.5" width="1" height="1" /></g>
<g transform="translate(232 23) rotate(89) scale(1 47)"><rect fill="#0e2320" fill-opacity="0.501961" x="-0.5" y="-0.5" width="1" height="1" /></g>
<g transform="translate(64 99) rotate(78) scale(25 16)"><rect fill="#224a4f" fill-opacity="0.501961" x="-0.5" y="-0.5" width="1" height="1" /></g>
<g transform="translate(215 37) rotate(349) scale(11 1)"><rect fill="#121d12" fill-opacity="0.501961" x="-0.5" y="-0.5" width="1" height="1" /></g>
<g transform="translate(104 151) rotate(149) scale(1 5)"><rect fill="#9da588" fill-opacity="0.501961" x="-0.5" y="-0.5" width="1" height="1" /></g>
<g transform="translate(56 130) rotate(182) scale(10 11)"><rect fill="#415246" fill-opacity="0.501961" x="-0.5" y="-0.5" width="1" height="1" /></g>
<g transform="translate(104 163) rotate(170) scale(25 2)"><rect fill="#336579" fill-opacity="0.501961" x="-0.5" y="-0.5" width="1" height="1" /></g>
<g transform="translate(249 159) rotate(277) scale(12 36)"><rect fill="#253131" fill-opacity="0.501961" x="-0.5" y="-0.5" width="1" height="1" /></g>
<g transform="translate(44 95) rotate(-13) scale(20 7)"><rect fill="#c1cbba" fill-opacity="0.501961" x="-0.5" y="-0.5" width="1" height="1" /></g>
<g transform="translate(76 45) rotate(164) scale(12 23)"><rect fill="#516358" fill-opacity="0.501961" x="-0.5" y="-0.5" width="1" height="1" /></g>
<g transform="translate(195 146) rotate(205) scale(1 15)"><rect fill="#9e7c58" fill-opacity="0.501961" x="-0.5" y="-0.5" width="1" height="1" /></g>
<g transform="translate(45 107) rotate(188) scale(18 1)"><rect fill="#9ca287" fill-opacity="0.501961" x="-0.5" y="-0.5" width="1" height="1" /></g>
<g transform="translate(90 115) rotate(348) scale(1 69)"><rect fill="#3c3d2f" fill-opacity="0.501961" x="-0.5" y="-0.5" width="1" height="1" /></g>
<g transform="translate(214 153) rotate(70) scale(3 19)"><rect fill="#75665e" fill-opacity="0.501961" x="-0.5" y="-0.5" width="1" height="1" /></g>
<g transform="translate(128 93) rotate(93) scale(12 4)"><rect fill="#5e704a" fill-opacity="0.501961" x="-0.5" y="-0.5" width="1" height="1" /></g>
<g transform="translate(68 82) rotate(172) scale(10 13)"><rect fill="#3b6b72" fill-opacity="0.501961" x="-0.5" y="-0.5" width="1" height="1" /></g>
<g transform="translate(78 16) rotate(184) scale(71 1)"><rect fill="#2a3626" fill-opacity="0.501961" x="-0.5" y="-0.5" width="1" height="1" /></g>
<g transform="translate(89 92) rotate(66) scale(18 4)"><rect fill="#7a725c" fill-opacity="0.501961" x="-0.5" y="-0.5" width="1" height="1" /></g>
<g transform="translate(125 0) rotate(269) scale(23 13)"><rect fill="#b2b08f" fill-opacity="0.501961" x="-0.5" y="-0.5" width="1" height="1" /></g>
<g transform="translate(235 141) rotate(184) scale(14 6)"><rect fill="#12221e" fill-opacity="0.501961" x="-0.5" y="-0.5" width="1" height="1" /></g>
<g transform="translate(31 166) rotate(92) scale(1 83)"><rect fill="#001412" fill-opacity="0.501961" x="-0.5" y="-0.5" width="1" height="1" /></g>
<g transform="translate(205 56) rotate(182) scale(25 1)"><rect fill="#0d1814" fill-opacity="0.501961" x="-0.5" y="-0.5" width="1" height="1" /></g>
<g transform="translate(163 25) rotate(275) scale(6 68)"><rect fill="#4c5b46" fill-opacity="0.501961" x="-0.5" y="-0.5" width="1" height="1" /></g>
<g transform="translate(54 6) rotate(182) scale(30 1)"><rect fill="#7c8065" fill-opacity="0.501961" x="-0.5" y="-0.5" width="1" height="1" /></g>
<g transform="translate(46 88) rotate(340) scale(24 1)"><rect fill="#1a332f" fill-opacity="0.501961" x="-0.5" y="-0.5" width="1" height="1" /></g>
<g transform="translate(47 71) rotate(199) scale(4 1)"><rect fill="#9c836f" fill-opacity="0.501961" x="-0.5" y="-0.5" width="1" height="1" /></g>
<g transform="translate(111 53) rotate(66) scale(7 6)"><rect fill="#67513c" fill-opacity="0.501961" x="-0.5" y="-0.5" width="1" height="1" /></g>
<g transform="translate(11 103) rotate(269) scale(6 48)"><rect fill="#1d4d5a" fill-opacity="0.501961" x="-0.5" y="-0.5" width="1" height="1" /></g>
<g transform="translate(127 118) rotate(1) scale(15 40)"><rect fill="#0e2d39" fill-opacity="0.501961" x="-0.5" y="-0.5" width="1" height="1" /></g>
<g transform="translate(100 99) rotate(154) scale(5 1)"><rect fill="#1a1214" fill-opacity="0.501961" x="-0.5" y="-0.5" width="1" height="1" /></g>
<g transform="translate(3 69) rotate(92) scale(10 22)"><rect fill="#1e5b66" fill-opacity="0.501961" x="-0.5" y="-0.5" width="1" height="1" /></g>
<g transform="translate(165 137) rotate(182) scale(4 27)"><rect fill="#0b1f1e" fill-opacity="0.501961" x="-0.5" y="-0.5" width="1" height="1" /></g>
<g transform="translate(171 6) rotate(66) scale(3 9)"><rect fill="#cad4bd" fill-opacity="0.501961" x="-0.5" y="-0.5" width="1" height="1" /></g>
<g transform="translate(56 112) rotate(183) scale(21 4)"><rect fill="#0f1e18" fill-opacity="0.501961" x="-0.5" y="-0.5" width="1" height="1" /></g>
</g>
</svg>