<svg height="680" width="1024" xmlns="http://www.w3.org/2000/svg"><path d="m0 0h1024v680h-1024z" fill="#464f47"/><g fill-opacity=".501961"><path d="m-.5-.5h1v1h-1z" fill="#aab89a" transform="matrix(-688.33752304 237.01361644 -85.94999276 -249.61690396 386 10)"/><path d="m-.5-.5h1v1h-1z" fill="#e4ffff" transform="matrix(61.43371092 -57.28786224 114.57572448 122.86742188 682 326)"/><path d="m-.5-.5h1v1h-1z" fill="#00121b" transform="matrix(57.38362668 -269.9687378 367.78349788 78.17479576 578 550)"/><path d="m-.5-.5h1v1h-1z" fill="#fff" transform="matrix(23.44090712 68.07733744 -79.42356036 27.34772496 186 402)"/><path d="m-.5-.5h1v1h-1z" transform="matrix(0 -88 216 0 434 278)"/><path d="m-.5-.5h1v1h-1z" fill="#0c0d0f" transform="matrix(-127.980505 -2.23390804 7.46962996 -427.93481352 978 438)"/><path d="m-.5-.5h1v1h-1z" fill="#0a3337" transform="matrix(99.671821 -399.76183924 100.91075552 25.15987716 90 250)"/><path d="m-.5-.5h1v1h-1z" fill="#e5e0b9" transform="matrix(-1011.84586748 17.66183532 -1.116954 -63.99025248 278 18)"/><path d="m-.5-.5h1v1h-1z" fill="#ac6041" transform="matrix(3.2112428 -183.97197592 207.9683206 3.63010052 250 554)"/><path d="m-.5-.5h1v1h-1z" fill="#0e1c10" transform="matrix(703.8927774 -12.28649412 .62828664 35.99451704 550 66)"/><path d="m-.5-.5h1v1h-1z" fill="#acf9f9" transform="matrix(-22.05098848 -76.90093568 96.1261696 -27.5637356 226 174)"/><path d="m-.5-.5h1v1h-1z" transform="matrix(-83.94882948 2.93155772 -12.7034168 -363.77826104 1022 46)"/><path d="m-.5-.5h1v1h-1z" fill="#62705e" transform="matrix(-542.66690168 -76.26685932 9.46377088 -67.33822868 550 134)"/><path d="m-.5-.5h1v1h-1z" fill="#341506" transform="matrix(.76790588 43.9932986 -371.9433426 6.4922952 186 650)"/><path d="m-.5-.5h1v1h-1z" fill="#002a2f" transform="matrix(-5.301492 -75.8148678 355.13280188 -24.83330464 150 274)"/><path d="m-.5-.5h1v1h-1z" fill="#0b0d15" transform="matrix(1.675431 -95.98537872 199.96953904 3.49048128 890 2)"/><path d="m-.5-.5h1v1h-1z" fill="#c9d8c2" transform="matrix(75.43072248 -45.3233506 57.6842644 96.00273768 698 342)"/><path d="m-.5-.5h1v1h-1z" fill="#9f6654" transform="matrix(0 56 -312 0 146 490)"/><path d="m-.5-.5h1v1h-1z" fill="#001624" transform="matrix(28.32122984 43.61086952 -97.28578588 63.17812808 606 386)"/><path d="m-.5-.5h1v1h-1z" fill="#001922" transform="matrix(-50.32023408 -32.67834212 21.7855614 -33.54682272 678 250)"/><path d="m-.5-.5h1v1h-1z" fill="#acaf9b" transform="matrix(331.9494348 5.79419892 -.62828664 35.99451704 98 138)"/><path d="m-.5-.5h1v1h-1z" fill="#003743" transform="matrix(116.92440776 -26.99412652 21.5953012 93.5395262 286 402)"/><path d="m-.5-.5h1v1h-1z" fill="#021f25" transform="matrix(-92 0 0 -388 726 606)"/><path d="m-.5-.5h1v1h-1z" fill="#001e2b" transform="matrix(-8.30734548 475.92750288 -139.97867732 -2.44333692 546 626)"/><path d="m-.5-.5h1v1h-1z" fill="#65a2c0" transform="matrix(4.45353924 31.6885782 -91.10466232 12.80392528 434 666)"/><path d="m-.5-.5h1v1h-1z" fill="#696048" transform="matrix(13.39324296 191.53229764 -115.71742984 8.09175096 410 418)"/><path d="m-.5-.5h1v1h-1z" fill="#627461" transform="matrix(-135.97928656 -2.37352728 1.53581176 -87.98659716 858 94)"/><path d="m-.5-.5h1v1h-1z" fill="#051410" transform="matrix(-27.99573548 -.4886674 3.35086204 -191.97075748 362 582)"/><path d="m-.5-.5h1v1h-1z" fill="#6f5446" transform="matrix(12.35128568 -235.6765702 135.81361672 7.11769004 854 354)"/><path d="m-.5-.5h1v1h-1z" fill="#a18262" transform="matrix(10.602984 -151.62973564 27.9317934 1.95318128 790 550)"/><path d="m-.5-.5h1v1h-1z" fill="#000a06" transform="matrix(0 20 -320 0 194 446)"/><path d="m-.5-.5h1v1h-1z" fill="#18363f" transform="matrix(84.50488132 158.93056672 -95.35834004 50.7029288 506 238)"/><path d="m-.5-.5h1v1h-1z" fill="#2e3126" transform="matrix(-196 0 0 -32 218 518)"/><path d="m-.5-.5h1v1h-1z" fill="#7a7060" transform="matrix(-35.97806976 -1.25638188 3.48994968 -99.93908272 638 470)"/><path d="m-.5-.5h1v1h-1z" fill="#d8e4c5" transform="matrix(49.45493884 -16.06888372 23.48529156 72.28029524 190 402)"/><path d="m-.5-.5h1v1h-1z" fill="#000709" transform="matrix(7.3210824 83.68035464 -151.42159412 13.24767288 402 282)"/><path d="m-.5-.5h1v1h-1z" fill="#304740" transform="matrix(28.666285 99.97121636 -111.50635672 31.97393328 122 194)"/><path d="m-.5-.5h1v1h-1z" fill="#001110" transform="matrix(-1.04671912 19.97259068 -267.63271532 -14.02603628 782 650)"/><path d="m-.5-.5h1v1h-1z" fill="#5db1bc" transform="matrix(36.03450996 -57.66727052 67.84384768 42.39354112 634 302)"/><path d="m-.5-.5h1v1h-1z" fill="#985a44" transform="matrix(-2.93081356 -55.92325396 87.87939904 -4.60556416 78 566)"/><path d="m-.5-.5h1v1h-1z" fill="#102932" transform="matrix(-45.48022476 25.21010024 -58.17715444 -104.95436484 754 286)"/><path d="m-.5-.5h1v1h-1z" fill="#596656" transform="matrix(316 0 0 48 262 94)"/><path d="m-.5-.5h1v1h-1z" fill="#355c5e" transform="matrix(0 36 -412 0 134 278)"/><path d="m-.5-.5h1v1h-1z" fill="#89563c" transform="matrix(203.50306624 14.23032064 -5.58051788 79.80512404 242 610)"/><path d="m-.5-.5h1v1h-1z" fill="#002d38" transform="matrix(-176 0 0 -100 46 406)"/><path d="m-.5-.5h1v1h-1z" transform="matrix(372 0 0 8 186 246)"/><path d="m-.5-.5h1v1h-1z" fill="#111c10" transform="matrix(.83758792 -23.98537984 227.86110856 7.95708524 562 62)"/><path d="m-.5-.5h1v1h-1z" fill="#767c69" transform="matrix(-6.33720584 51.61239988 -218.36015336 -26.81125556 542 130)"/><path d="m-.5-.5h1v1h-1z" fill="#0e190c" transform="matrix(-335.79531788 -11.72623088 .139598 -3.99756332 182 62)"/><path d="m-.5-.5h1v1h-1z" fill="#271b1a" transform="matrix(0 140 -36 0 854 498)"/><path d="m-.5-.5h1v1h-1z" fill="#203a3e" transform="matrix(-203.72042508 -10.67653508 1.88409444 -35.95066324 390 170)"/><path d="m-.5-.5h1v1h-1z" fill="#55706b" transform="matrix(300.25725556 -47.55607736 2.50295144 15.80301344 130 330)"/><path d="m-.5-.5h1v1h-1z" fill="#2c2018" transform="matrix(13.57466936 24.4893518 -153.93306844 85.32649316 82 622)"/><path d="m-.5-.5h1v1h-1z" fill="#c88664" transform="matrix(.20934384 3.99451812 -199.72590696 10.46719124 190 678)"/><path d="m-.5-.5h1v1h-1z" fill="#000404" transform="matrix(87.5179268 -9.19850476 2.09056928 19.89043792 870 230)"/><path d="m-.5-.5h1v1h-1z" transform="matrix(-323.80262796 -11.30743692 .139598 -3.99756332 58 526)"/><path d="m-.5-.5h1v1h-1z" fill="#6e5848" transform="matrix(-142.59860188 -20.04092652 12.24723288 -87.14359004 854 602)"/><path d="m-.5-.5h1v1h-1z" fill="#00192b" transform="matrix(-35.07732232 -8.09823796 15.29667168 -66.2571644 490 358)"/><path d="m-.5-.5h1v1h-1z" fill="#4f6657" transform="matrix(292 0 0 52 674 206)"/><path d="m-.5-.5h1v1h-1z" fill="#bbc2b2" transform="matrix(-32.07623488 16.343658 -49.03097396 -96.2287046 726 338)"/><path d="m-.5-.5h1v1h-1z" fill="#26636f" transform="matrix(-65.36579532 -18.7433402 34.17903212 -119.19645028 274 358)"/><path d="m-.5-.5h1v1h-1z" fill="#000708" transform="matrix(-267.63271532 14.02603628 -.41868764 -7.98903628 126 662)"/><path d="m-.5-.5h1v1h-1z" fill="#080e08" transform="matrix(23.76643364 -3.34015444 16.70077212 118.83216824 338 394)"/><path d="m-.5-.5h1v1h-1z" fill="#3e4733" transform="matrix(-108.67312136 27.09525232 -6.77381308 -27.16828032 518 90)"/><path d="m-.5-.5h1v1h-1z" fill="#0a1a18" transform="matrix(-15.97807256 -.83737528 10.25784744 -195.7313888 774 374)"/><path d="m-.5-.5h1v1h-1z" fill="#07242e" transform="matrix(223.86354524 7.81748728 -.55839196 15.99025324 666 246)"/><path d="m-.5-.5h1v1h-1z" fill="#c6d5bd" transform="matrix(19.15312804 52.62278676 -33.82893436 12.31272516 158 402)"/><path d="m-.5-.5h1v1h-1z" fill="#39402f" transform="matrix(-95.28443056 -11.69945696 19.01161756 -154.83719964 426 554)"/><path d="m-.5-.5h1v1h-1z" fill="#001116" transform="matrix(-75.98842484 1.32638288 -3.49048128 -199.96953904 1022 114)"/><path d="m-.5-.5h1v1h-1z" fill="#001512" transform="matrix(-200 0 0 -28 46 310)"/><path d="m-.5-.5h1v1h-1z" fill="#b78d79" transform="matrix(1.25434156 11.93426276 -139.23306536 14.63398484 286 474)"/><path d="m-.5-.5h1v1h-1z" fill="#d2b686" transform="matrix(3.78207432 1.3022726 -26.04545236 75.64148604 386 458)"/><path d="m-.5-.5h1v1h-1z" fill="#758156" transform="matrix(43.93969952 2.30278208 -3.76818884 71.90132652 558 346)"/><path d="m-.5-.5h1v1h-1z" fill="#0f2b36" transform="matrix(26.47452012 -9.11590832 49.48635948 143.71882348 586 318)"/><path d="m-.5-.5h1v1h-1z" fill="#726f4f" transform="matrix(279.31793408 -19.53181264 .27902588 3.9902562 286 22)"/><path d="m-.5-.5h1v1h-1z" fill="#4e4e45" transform="matrix(-23.86852548 -2.50868312 30.52231128 -290.40039344 642 538)"/><path d="m-.5-.5h1v1h-1z" fill="#212b26" transform="matrix(2.02447916 115.98233264 -27.99573548 .4886674 422 402)"/><path d="m-.5-.5h1v1h-1z" fill="#ccd4c1" transform="matrix(171.58101664 -11.99811348 1.67415536 23.9415372 598 34)"/><path d="m-.5-.5h1v1h-1z" fill="#aeab8b" transform="matrix(7.81363572 -22.6924458 30.2565944 10.41818096 822 82)"/><path d="m-.5-.5h1v1h-1z" fill="#bccebf" transform="matrix(77.27406612 -20.7055236 13.45859036 50.22814296 234 146)"/><path d="m-.5-.5h1v1h-1z" fill="#5b6b5a" transform="matrix(442.91843832 30.97187436 -2.51123304 35.9123058 62 78)"/><path d="m-.5-.5h1v1h-1z" fill="#6e856f" transform="matrix(-65.6829562 17.59969508 -12.42331416 -46.36443968 254 562)"/><path d="m-.5-.5h1v1h-1z" fill="#52cad3" transform="matrix(-71.11356052 11.26328148 -3.75442716 -23.70452016 250 202)"/><path d="m-.5-.5h1v1h-1z" fill="#1e3428" transform="matrix(20.601523 34.28669204 -92.57406848 55.62411208 758 78)"/><path d="m-.5-.5h1v1h-1z" fill="#887971" transform="matrix(12.8557522 15.32088888 -55.15519992 46.28070788 378 342)"/><path d="m-.5-.5h1v1h-1z" fill="#000509" transform="matrix(2.23390804 -127.980505 23.99634468 .41885776 1022 290)"/><path d="m-.5-.5h1v1h-1z" fill="#caceba" transform="matrix(50.75323608 -23.66662264 20.28567656 43.50277376 706 382)"/><path d="m-.5-.5h1v1h-1z" fill="#96826f" transform="matrix(2.51123304 35.9123058 -39.902562 2.79025896 806 246)"/><path d="m-.5-.5h1v1h-1z" fill="#38554c" transform="matrix(2.93200428 167.9744128 -111.98294184 1.95466952 930 142)"/><path d="m-.5-.5h1v1h-1z" fill="#413d22" transform="matrix(-61.2035044 18.71178912 -12.864355 -42.07740928 426 62)"/><path d="m-.5-.5h1v1h-1z" fill="#4b6055" transform="matrix(-47.12800492 -21.9761496 52.40466444 -112.3821656 82 174)"/><path d="m-.5-.5h1v1h-1z" fill="#1b2728" transform="matrix(-18 -31.17691452 24.24871132 -14 642 358)"/><path d="m-.5-.5h1v1h-1z" fill="#575f52" transform="matrix(-68.07733744 23.44090712 -13.02272616 -37.82074304 506 226)"/><path d="m-.5-.5h1v1h-1z" fill="#20332d" transform="matrix(-158.80738428 19.49909496 -6.33720584 -51.61239988 454 182)"/><path d="m-.5-.5h1v1h-1z" fill="#bec5a8" transform="matrix(336 0 0 20 210 42)"/><path d="m-.5-.5h1v1h-1z" fill="#000407" transform="matrix(-.20934384 -3.99451812 227.68753392 -11.93259804 230 666)"/><path d="m-.5-.5h1v1h-1z" fill="#4f695c" transform="matrix(-125.83116648 -61.37196056 10.52090752 -21.57105712 334 190)"/><path d="m-.5-.5h1v1h-1z" fill="#a9866d" transform="matrix(-23.5590524 -4.57941588 6.10588784 -31.41206988 906 262)"/><path d="m-.5-.5h1v1h-1z" fill="#9d9871" transform="matrix(-37.34321704 -14.334718 18.63513336 -48.54618216 442 102)"/><path d="m-.5-.5h1v1h-1z" fill="#000b08" transform="matrix(36.54181832 -16.26946572 21.15030544 47.5043638 942 246)"/><path d="m-.5-.5h1v1h-1z" fill="#688283" transform="matrix(.06980964 3.9993908 -383.94151496 6.70172408 974 670)"/><path d="m-.5-.5h1v1h-1z" fill="#232722" transform="matrix(-52.62278676 -19.15312804 9.576564 -26.3113934 842 310)"/><path d="m-.5-.5h1v1h-1z" fill="#012027" transform="matrix(-111.84650788 -5.86162708 10.25784744 -195.7313888 530 638)"/><path d="m-.5-.5h1v1h-1z" fill="#cfceb1" transform="matrix(7.75695392 -13.99391532 31.48630944 17.45314632 54 98)"/><path d="m-.5-.5h1v1h-1z" fill="#87aba3" transform="matrix(-96.36084132 -137.61754344 3.27660816 -2.29430576 702 318)"/><path d="m-.5-.5h1v1h-1z" fill="#1e3034" transform="matrix(-96.99484524 56 -28 -48.4974226 730 434)"/><path d="m-.5-.5h1v1h-1z" fill="#c1d1b2" transform="matrix(0 20 -128 0 10 46)"/><path d="m-.5-.5h1v1h-1z" fill="#7b3c00" transform="matrix(127.82458044 6.6990024 -.20934384 3.99451812 942 10)"/><path d="m-.5-.5h1v1h-1z" fill="#4f4942" transform="matrix(-6.5611054 187.88547548 -19.98781656 -.69798992 962 438)"/><path d="m-.5-.5h1v1h-1z" fill="#7a5644" transform="matrix(223.96588372 -3.90933904 .69809624 39.9939078 170 498)"/><path d="m-.5-.5h1v1h-1z" fill="#e9e3cc" transform="matrix(2.06015228 3.4286692 -41.14403044 24.7218276 750 378)"/><path d="m-.5-.5h1v1h-1z" fill="#001416" transform="matrix(-255.96100996 -4.46781604 .06980964 -3.9993908 890 654)"/><path d="m-.5-.5h1v1h-1z" fill="#253539" transform="matrix(19.65964908 -13.76583448 36.70889192 52.42573084 678 254)"/><path d="m-.5-.5h1v1h-1z" fill="#4a3123" transform="matrix(187.97136668 -3.2810524 .83771552 47.99268936 58 634)"/><path d="m-.5-.5h1v1h-1z" fill="#0b2937" transform="matrix(-16.26946572 -36.54181832 29.23345464 -13.01557256 666 406)"/><path d="m-.5-.5h1v1h-1z" fill="#735a4b" transform="matrix(5.23572192 299.95430856 -27.99573548 .4886674 902 434)"/><path d="m-.5-.5h1v1h-1z" fill="#757f5e" transform="matrix(203.87572872 -7.11949732 .139598 3.99756332 54 30)"/><path d="m-.5-.5h1v1h-1z" fill="#263538" transform="matrix(-3.4286692 2.06015228 -117.42868108 -195.43414456 762 350)"/><path d="m-.5-.5h1v1h-1z" fill="#7f826d" transform="matrix(127.68819844 -8.92882864 .27902588 3.9902562 650 18)"/><path d="m-.5-.5h1v1h-1z" fill="#775f43" transform="matrix(11.93426276 1.25434156 -18.39700952 175.0358536 790 382)"/><path d="m-.5-.5h1v1h-1z" fill="#1b281d" transform="matrix(203.9689298 3.56029092 -.27923852 15.99756312 422 62)"/><path d="m-.5-.5h1v1h-1z" fill="#ab8179" transform="matrix(359.94517024 6.28286632 -.06980964 3.9993908 162 470)"/><path d="m-.5-.5h1v1h-1z" fill="#485b4d" transform="matrix(-11.15593508 -127.51292136 163.37593048 -14.2935418 726 170)"/><path d="m-.5-.5h1v1h-1z" fill="#5e6447" transform="matrix(-33.42495572 39.83431104 -3.06417776 -2.57115044 738 22)"/><path d="m-.5-.5h1v1h-1z" fill="#16364a" transform="matrix(-13.91731008 99.02680688 -51.49393956 -7.23700124 518 298)"/><path d="m-.5-.5h1v1h-1z" fill="#021814" transform="matrix(-62.82413976 -12.21177572 13.73824768 -70.6771572 362 290)"/><path d="m-.5-.5h1v1h-1z" fill="#7c7764" transform="matrix(-15.97807256 -.83737528 6.28031476 -119.83554416 454 386)"/><path d="m-.5-.5h1v1h-1z" fill="#859ba3" transform="matrix(24 0 0 36 558 138)"/><path d="m-.5-.5h1v1h-1z" fill="#1f5f6b" transform="matrix(18.63513336 48.54618216 -41.07753876 15.76818976 146 342)"/><path d="m-.5-.5h1v1h-1z" fill="#9f9b7b" transform="matrix(-.763236 -3.92650872 82.4566834 -16.0279556 194 434)"/><path d="m-.5-.5h1v1h-1z" fill="#17201a" transform="matrix(-243.66560648 -12.76997332 .20934384 -3.99451812 366 530)"/><path d="m-.5-.5h1v1h-1z" fill="#7399a7" transform="matrix(-.83622772 -7.95617516 107.40836468 -11.28907404 422 666)"/><path d="m-.5-.5h1v1h-1z" fill="#7f796d" transform="matrix(27.84661308 2.92679696 -4.18113852 39.7808758 646 446)"/><path d="m-.5-.5h1v1h-1z" fill="#776a4e" transform="matrix(-26.906728 -169.8823946 11.85226008 -1.8772136 370 446)"/><path d="m-.5-.5h1v1h-1z" fill="#131e1e" transform="matrix(32 0 0 244 934 430)"/><path d="m-.5-.5h1v1h-1z" fill="#090904" transform="matrix(.139598 3.99756332 -155.904969 5.44432148 78 530)"/><path d="m-.5-.5h1v1h-1z" fill="#474134" transform="matrix(-26.46118616 -92.2811228 38.45046784 -11.02549424 194 310)"/><path d="m-.5-.5h1v1h-1z" fill="#051210" transform="matrix(.41879396 -11.99268992 199.8781654 6.97989936 102 450)"/><path d="m-.5-.5h1v1h-1z" fill="#102b2b" transform="matrix(-111.38645228 -11.70718788 21.74192036 -206.86055424 714 626)"/><path d="m-.5-.5h1v1h-1z" fill="#2a5356" transform="matrix(-11.70718788 111.38645228 -87.5179268 -9.19850476 282 382)"/><path d="m-.5-.5h1v1h-1z" fill="#596050" transform="matrix(5.20909048 -15.1282972 60.51318884 20.83636188 438 610)"/><path d="m-.5-.5h1v1h-1z" fill="#977f4f" transform="matrix(-39.61072276 -5.56692404 3.34015444 -23.76643364 462 42)"/><path d="m-.5-.5h1v1h-1z" fill="#73b6bb" transform="matrix(-24.36902056 -63.483469 48.54618216 -18.63513336 638 290)"/><path d="m-.5-.5h1v1h-1z" fill="#837861" transform="matrix(31.87823032 2.78898376 -5.92659052 67.74123948 798 478)"/><path d="m-.5-.5h1v1h-1z" fill="#916852" transform="matrix(3.89684684 -27.72750592 59.41608412 8.35038604 798 626)"/><path d="m-.5-.5h1v1h-1z" fill="#152525" transform="matrix(-2.90306276 11.64354872 -85.38602392 -21.2891268 666 482)"/><path d="m-.5-.5h1v1h-1z" fill="#215565" transform="matrix(83.5398392 -8.78039092 2.50868312 23.86852548 98 422)"/><path d="m-.5-.5h1v1h-1z" fill="#26362b" transform="matrix(-.62573788 -3.95075336 122.47335424 -19.39787368 858 98)"/><path d="m-.5-.5h1v1h-1z" fill="#172a25" transform="matrix(-79.22144548 11.13384808 -1.6700772 -11.88321684 542 170)"/><path d="m-.5-.5h1v1h-1z" fill="#7b7b5f" transform="matrix(-55.78690308 -4.8807216 3.13760672 -35.86300912 838 122)"/><path d="m-.5-.5h1v1h-1z" fill="#00120e" transform="matrix(.06980964 3.9993908 -515.92141072 9.00544172 222 254)"/><path d="m-.5-.5h1v1h-1z" fill="#333839" transform="matrix(-25.69993028 145.75154744 -59.0884652 -10.41889068 970 338)"/><path d="m-.5-.5h1v1h-1z" fill="#001109" transform="matrix(-323.95065324 5.65457968 -.06980964 -3.9993908 314 242)"/><path d="m-.5-.5h1v1h-1z" fill="#627163" transform="matrix(-22.1600342 -210.8386418 3.9780876 -.41811384 406 450)"/><path d="m-.5-.5h1v1h-1z" fill="#00181c" transform="matrix(-1.74311484 19.92389396 -131.49770016 -11.50455804 422 638)"/><path d="m-.5-.5h1v1h-1z" fill="#22160f" transform="matrix(31.99512624 -.558477 3.49048128 199.96953904 1022 502)"/><path d="m-.5-.5h1v1h-1z" fill="#5e6c63" transform="matrix(-214.36141424 49.48923196 -5.39882532 -23.38488156 182 118)"/><path d="m-.5-.5h1v1h-1z" fill="#353c30" transform="matrix(5.39882532 23.38488156 -23.38488156 5.39882532 286 574)"/><path d="m-.5-.5h1v1h-1z" fill="#7f6351" transform="matrix(-319.80506464 11.16783896 -.27919596 -7.9951266 130 538)"/><path d="m-.5-.5h1v1h-1z" fill="#7fada5" transform="matrix(92.72887932 -24.84662832 10.3527618 38.63703304 230 182)"/><path d="m-.5-.5h1v1h-1z" fill="#455b52" transform="matrix(475.71003368 -16.61216044 .41879396 11.99268992 298 226)"/><path d="m-.5-.5h1v1h-1z" fill="#53675c" transform="matrix(2.92679696 -27.84661308 171.057766 17.97889568 890 70)"/><path d="m-.5-.5h1v1h-1z" fill="#60655d" transform="matrix(-.69798992 19.98781656 -103.936646 -3.62954764 70 342)"/><path d="m-.5-.5h1v1h-1z" fill="#3a5752" transform="matrix(-244 0 0 -60 58 202)"/><path d="m-.5-.5h1v1h-1z" fill="#919b79" transform="matrix(59.91777208 -3.14015736 2.51212588 47.93421768 6 134)"/><path d="m-.5-.5h1v1h-1z" fill="#031c14" transform="matrix(-46.57419488 11.612251 -.9676876 -3.88118292 830 598)"/><path d="m-.5-.5h1v1h-1z" fill="#a86f52" transform="matrix(-27.89345156 2.4403608 -4.53209864 -51.80212432 326 498)"/><path d="m-.5-.5h1v1h-1z" fill="#706d71" transform="matrix(-64 0 0 -20 322 678)"/><path d="m-.5-.5h1v1h-1z" fill="#8b5e44" transform="matrix(.139598 3.99756332 -147.9098424 5.16512552 42 678)"/><path d="m-.5-.5h1v1h-1z" fill="#18323e" transform="matrix(-20.83636188 60.51318884 -68.07733744 -23.44090712 566 270)"/><path d="m-.5-.5h1v1h-1z" fill="#3e4f44" transform="matrix(-103.936646 -3.62954764 2.93155772 -83.94882948 850 182)"/><path d="m-.5-.5h1v1h-1z" fill="#b8d3c7" transform="matrix(-62.82413976 12.21177572 -5.34265188 -27.48556112 202 142)"/><path d="m-.5-.5h1v1h-1z" fill="#707d90" transform="matrix(31.95614512 -1.6747506 1.46540676 27.96162696 342 150)"/><path d="m-.5-.5h1v1h-1z" fill="#15221c" transform="matrix(20.51569484 391.46277764 -3.99451812 .20934384 366 626)"/><path d="m-.5-.5h1v1h-1z" fill="#9f9b82" transform="matrix(19.25808076 25.55633632 -19.16725224 14.44356056 274 546)"/><path d="m-.5-.5h1v1h-1z" fill="#2f3c32" transform="matrix(-67.16280716 -10.63754364 15.01770864 -94.81808068 430 486)"/><path d="m-.5-.5h1v1h-1z" fill="#001116" transform="matrix(17.64079076 61.52074856 -76.90093568 22.05098848 442 290)"/><path d="m-.5-.5h1v1h-1z" fill="#89b9b9" transform="matrix(-24.0006844 14.42106608 -16.4812184 -27.42935364 618 314)"/><path d="m-.5-.5h1v1h-1z" fill="#316671" transform="matrix(-319.22049608 22.3220716 -.27902588 -3.9902562 42 270)"/><path d="m-.5-.5h1v1h-1z" fill="#7a4930" transform="matrix(14.51531372 -58.21774356 46.57419488 11.612251 154 626)"/><path d="m-.5-.5h1v1h-1z" fill="#a55f45" transform="matrix(14.39686748 -62.35968416 31.17984208 7.19843372 318 562)"/><path d="m-.5-.5h1v1h-1z" fill="#845647" transform="matrix(-39.9451814 2.09343824 -3.76818884 -71.90132652 50 570)"/><path d="m-.5-.5h1v1h-1z" fill="#989372" transform="matrix(.20934384 -3.99451812 227.68753392 11.93259804 450 18)"/><path d="m-.5-.5h1v1h-1z" fill="#4c4b39" transform="matrix(-77.27406612 -20.7055236 10.3527618 -38.63703304 134 562)"/><path d="m-.5-.5h1v1h-1z" fill="#64817a" transform="matrix(-95.86843532 5.0242518 -.41868764 -7.98903628 930 54)"/><path d="m-.5-.5h1v1h-1z" fill="#a76049" transform="matrix(18.38606408 73.7424752 -27.16828032 6.77381308 194 574)"/><path d="m-.5-.5h1v1h-1z" fill="#486050" transform="matrix(75.98842484 1.32638288 -.90752512 51.99208016 6 90)"/><path d="m-.5-.5h1v1h-1z" fill="#001612" transform="matrix(-339.94821636 -5.9338182 .20942888 -11.99817236 122 246)"/><path d="m-.5-.5h1v1h-1z" fill="#9b8664" transform="matrix(28.42956348 -87.49719948 3.80422608 1.23606796 390 462)"/><path d="m-.5-.5h1v1h-1z" fill="#33474e" transform="matrix(-112.76311448 -41.0424172 2.73616116 -7.51754096 422 162)"/><path d="m-.5-.5h1v1h-1z" fill="#001d1f" transform="matrix(.558477 31.99512624 -139.97867732 2.44333692 2 318)"/><path d="m-.5-.5h1v1h-1z" fill="#233327" transform="matrix(86.28422844 -42.08363008 17.53484588 35.95176184 750 70)"/><path d="m-.5-.5h1v1h-1z" fill="#181a11" transform="matrix(-4.0483416 -115.92933592 3.99756332 -.139598 782 302)"/><path d="m-.5-.5h1v1h-1z" fill="#6f7765" transform="matrix(186.97011632 -19.65135108 1.6724554 15.91235032 574 118)"/><path d="m-.5-.5h1v1h-1z" fill="#455f58" transform="matrix(115.91109916 -31.0582854 4.14110472 15.45481324 274 218)"/><path d="m-.5-.5h1v1h-1z" fill="#bfcab8" transform="matrix(23.25736976 63.8990982 -37.58770484 13.68080572 202 406)"/><path d="m-.5-.5h1v1h-1z" fill="#cbc8b2" transform="matrix(16.96096192 -10.59838528 46.63289524 74.62823248 726 322)"/><path d="m-.5-.5h1v1h-1z" fill="#d0ceb1" transform="matrix(1.10254944 3.8450468 -26.91532748 7.71784596 62 90)"/><path d="m-.5-.5h1v1h-1z" fill="#868162" transform="matrix(3.9125904 -.83164676 8.31646764 39.12590404 654 674)"/><path d="m-.5-.5h1v1h-1z" fill="#6d8084" transform="matrix(-139.80813488 -7.32703388 .20934384 -3.99451812 982 666)"/><path d="m-.5-.5h1v1h-1z" fill="#3f3028" transform="matrix(54.09184628 14.49386652 -23.81135216 88.865176 854 522)"/><path d="m-.5-.5h1v1h-1z" fill="#1e3232" transform="matrix(-3.89684684 27.72750592 -87.14359004 -12.24723288 602 354)"/><path d="m-.5-.5h1v1h-1z" fill="#a0a17c" transform="matrix(-1.25638188 -35.97806976 71.95613956 -2.51276376 122 38)"/><path d="m-.5-.5h1v1h-1z" fill="#76868e" transform="matrix(2.351141 -3.23606796 25.8885438 18.80912808 1022 362)"/><path d="m-.5-.5h1v1h-1z" fill="#303937" transform="matrix(164.43818236 73.21259576 -6.50778628 14.61672732 818 430)"/><path d="m-.5-.5h1v1h-1z" fill="#3d4c42" transform="matrix(0 -4 300 0 266 102)"/><path d="m-.5-.5h1v1h-1z" fill="#c9cdb8" transform="matrix(-1.04586892 -11.95433636 115.55858496 -10.11006616 354 34)"/><path d="m-.5-.5h1v1h-1z" fill="#000b0a" transform="matrix(19.40591452 4.83843792 -38.70750328 155.2473162 1018 58)"/><path d="m-.5-.5h1v1h-1z" fill="#6e7553" transform="matrix(-51.80212432 -4.53209864 2.09173784 -23.90867276 558 322)"/><path d="m-.5-.5h1v1h-1z" fill="#152625" transform="matrix(-5.86311544 -167.89765892 11.99268992 -.41879396 430 574)"/><path d="m-.5-.5h1v1h-1z" fill="#527678" transform="matrix(103.43027712 10.87096016 -1.25434156 11.93426276 278 310)"/><path d="m-.5-.5h1v1h-1z" fill="#1d2b2d" transform="matrix(-1.04671912 -19.97259068 135.81361672 -7.11769004 662 502)"/><path d="m-.5-.5h1v1h-1z" fill="#2f3a37" transform="matrix(-87.98003756 -26.89819684 12.864355 -42.07740928 954 598)"/><path d="m-.5-.5h1v1h-1z" fill="#222621" transform="matrix(2.50868312 23.86852548 -91.49601436 9.61661864 78 622)"/><path d="m-.5-.5h1v1h-1z" fill="#947f84" transform="matrix(-16.05913456 17.8354758 -2.97257932 -2.67652244 402 322)"/><path d="m-.5-.5h1v1h-1z" fill="#908775" transform="matrix(-.8998042 3.89748024 -81.84708544 -18.89588856 770 234)"/><path d="m-.5-.5h1v1h-1z" fill="#713224" transform="matrix(143.97806812 2.51314652 -.06980964 3.9993908 862 14)"/><path d="m-.5-.5h1v1h-1z" fill="#c7d0be" transform="matrix(-10.59537112 5.63365876 -1.87788624 -3.53179036 402 382)"/><path d="m-.5-.5h1v1h-1z" fill="#7fa39b" transform="matrix(-14.5009246 6.7618922 -23.66662264 -50.75323608 718 342)"/><path d="m-.5-.5h1v1h-1z" fill="#1b323a" transform="matrix(1.1694868 -3.82521904 153.00876096 46.77947276 662 254)"/><path d="m-.5-.5h1v1h-1z" fill="#7d503c" transform="matrix(-160 0 0 -36 70 502)"/><path d="m-.5-.5h1v1h-1z" fill="#64574c" transform="matrix(115.55858496 -10.11006616 4.53209864 51.80212432 842 346)"/><path d="m-.5-.5h1v1h-1z" fill="#000303" transform="matrix(-.27902588 3.9902562 -143.64922324 -10.0449322 894 234)"/><path d="m-.5-.5h1v1h-1z" fill="#c0cbb2" transform="matrix(-120 0 0 -20 74 2)"/><path d="m-.5-.5h1v1h-1z" fill="#9a8973" transform="matrix(-.139598 -3.99756332 99.93908272 -3.48994968 862 242)"/><path d="m-.5-.5h1v1h-1z" fill="#0e1710" transform="matrix(-3.99451812 .20934384 -11.51391036 -219.69849764 478 422)"/><path d="m-.5-.5h1v1h-1z" fill="#83b8b8" transform="matrix(45.3233506 -75.43072248 20.5720152 12.3609138 638 294)"/><path d="m-.5-.5h1v1h-1z" fill="#12362d" transform="matrix(-.41879396 11.99268992 -103.936646 -3.62954764 2 162)"/><path d="m-.5-.5h1v1h-1z" fill="#c5cfbe" transform="matrix(-24.08870184 26.75321372 -53.50642744 -48.17740364 694 354)"/><path d="m-.5-.5h1v1h-1z" fill="#4b473d" transform="matrix(1.95318128 27.9317934 -71.8246116 5.02246612 826 262)"/><path d="m-.5-.5h1v1h-1z" fill="#2a3729" transform="matrix(1.74311484 -19.92389396 231.11716996 20.22013232 594 70)"/><path d="m-.5-.5h1v1h-1z" fill="#503726" transform="matrix(-87.5179268 -9.19850476 .41811384 -3.9780876 254 586)"/><path d="m-.5-.5h1v1h-1z" fill="#595045" transform="matrix(-33.07648268 115.35140352 -26.91532748 -7.71784596 814 546)"/><path d="m-.5-.5h1v1h-1z" fill="#011d20" transform="matrix(-30.10290776 78.42075584 -41.07753876 -15.76818976 754 674)"/><path d="m-.5-.5h1v1h-1z" fill="#152b2e" transform="matrix(-75.8148678 5.301492 -6.4175956 -91.77589264 1022 182)"/><path d="m-.5-.5h1v1h-1z" fill="#59ccd8" transform="matrix(32 0 0 16 202 210)"/><path d="m-.5-.5h1v1h-1z" fill="#767679" transform="matrix(-.48747736 -3.9701846 79.40369212 -9.74954748 66 598)"/><path d="m-.5-.5h1v1h-1z" fill="#7b5540" transform="matrix(2.783462 -19.80536136 138.63752964 19.48423412 286 630)"/><path d="m-.5-.5h1v1h-1z" fill="#6b574c" transform="matrix(-22.13384348 -113.86875328 35.3385786 -6.86912384 894 582)"/><path d="m-.5-.5h1v1h-1z" fill="#1a1e16" transform="matrix(-92.85220812 -62.6296052 8.94708644 -13.26460116 390 558)"/><path d="m-.5-.5h1v1h-1z" fill="#9fd2cd" transform="matrix(-81.1377694 21.7407998 -1.0352762 -3.86370332 234 206)"/><path d="m-.5-.5h1v1h-1z" fill="#1b3543" transform="matrix(-59.77168188 -5.22934456 8.01832832 -91.64991224 510 310)"/><path d="m-.5-.5h1v1h-1z" fill="#556358" transform="matrix(20.65674876 38.84969408 -14.12716148 7.511545 314 414)"/><path d="m-.5-.5h1v1h-1z" fill="#142e36" transform="matrix(52.62278676 19.15312804 -31.4658532 86.45172112 610 382)"/><path d="m-.5-.5h1v1h-1z" fill="#666a4c" transform="matrix(-29.44174668 32.69837232 -2.97257932 -2.67652244 742 58)"/><path d="m-.5-.5h1v1h-1z" fill="#364644" transform="matrix(-27.9317934 -1.95318128 3.62733664 -51.8733306 670 454)"/><path d="m-.5-.5h1v1h-1z" fill="#556a59" transform="matrix(1.39619252 -79.9878156 11.99817236 .20942888 410 490)"/><path d="m-.5-.5h1v1h-1z" fill="#765f3c" transform="matrix(-20 0 0 -40 238 326)"/><path d="m-.5-.5h1v1h-1z" fill="#707e5d" transform="matrix(-2.28970796 -11.7795262 74.60366596 -14.50148364 546 374)"/><path d="m-.5-.5h1v1h-1z" fill="#0b1914" transform="matrix(-.34904812 19.99695392 -55.99147092 -.97733476 90 378)"/><path d="m-.5-.5h1v1h-1z" fill="#253830" transform="matrix(2.46264592 3.152043 -31.52043016 24.626459 574 162)"/><path d="m-.5-.5h1v1h-1z" fill="#54604a" transform="matrix(-1.116954 63.99025248 -39.9939078 -.69809624 478 110)"/><path d="m-.5-.5h1v1h-1z" fill="#48423d" transform="matrix(11.99268992 .41879396 -2.0939698 59.96344964 342 602)"/><path d="m-.5-.5h1v1h-1z" fill="#000202" transform="matrix(3.9125904 -.83164676 19.12787556 89.98957928 338 402)"/><path d="m-.5-.5h1v1h-1z" fill="#7c8781" transform="matrix(66.9669272 11.80807608 -.69459272 3.939231 18 346)"/><path d="m-.5-.5h1v1h-1z" fill="#0f201a" transform="matrix(199.72590696 -10.46719124 .20934384 3.99451812 674 54)"/><path d="m-.5-.5h1v1h-1z" fill="#122a36" transform="matrix(.4886674 -27.99573548 183.97197592 3.2112428 890 34)"/><path d="m-.5-.5h1v1h-1z" fill="#95573e" transform="matrix(-179.97258512 -3.14143316 .41885776 -23.99634468 250 598)"/><path d="m-.5-.5h1v1h-1z" fill="#221d17" transform="matrix(5.00590288 -31.60602688 19.7537668 3.12868932 130 582)"/><path d="m-.5-.5h1v1h-1z" fill="#044251" transform="matrix(-.69798992 -19.98781656 99.93908272 -3.48994968 82 278)"/><path d="m-.5-.5h1v1h-1z" fill="#9a9084" transform="matrix(43.7589634 4.5992524 -.41811384 3.9780876 442 334)"/><path d="m-.5-.5h1v1h-1z" fill="#325261" transform="matrix(-74.60366596 -14.50148364 1.52647196 -7.85301748 406 678)"/><path d="m-.5-.5h1v1h-1z" fill="#8e845e" transform="matrix(-15.74541668 -18.11302992 3.01883832 -2.62423612 318 266)"/><path d="m-.5-.5h1v1h-1z" fill="#475549" transform="matrix(16.72455412 159.12350324 -15.91235032 1.6724554 802 130)"/><path d="m-.5-.5h1v1h-1z" fill="#112a2b" transform="matrix(0 -16 184 0 54 438)"/><path d="m-.5-.5h1v1h-1z" fill="#333b33" transform="matrix(-1.04586892 11.95433636 -183.29982444 -16.03665668 34 358)"/><path d="m-.5-.5h1v1h-1z" fill="#3b3928" transform="matrix(11.44703492 327.80019128 -3.99756332 .139598 470 474)"/><path d="m-.5-.5h1v1h-1z" fill="#0e2320" transform="matrix(.06980964 3.9993908 -187.97136668 3.2810524 930 94)"/><path d="m-.5-.5h1v1h-1z" fill="#224a4f" transform="matrix(20.79116908 97.81476008 -62.60144644 13.3063482 258 398)"/><path d="m-.5-.5h1v1h-1z" fill="#121d12" transform="matrix(43.19159608 -8.3955958 .763236 3.92650872 862 150)"/><path d="m-.5-.5h1v1h-1z" fill="#9da588" transform="matrix(-3.4286692 2.06015228 -10.30076148 -17.143346 418 606)"/><path d="m-.5-.5h1v1h-1z" fill="#415246" transform="matrix(-39.97563308 -1.39597988 1.53557784 -43.9731964 226 522)"/><path d="m-.5-.5h1v1h-1z" fill="#336579" transform="matrix(-98.48077532 17.36481776 -1.38918544 -7.87846204 418 654)"/><path d="m-.5-.5h1v1h-1z" fill="#253131" transform="matrix(5.84972848 -47.64221528 142.92664584 17.54918544 998 638)"/><path d="m-.5-.5h1v1h-1z" fill="#c1cbba" transform="matrix(77.9496052 -17.99608436 6.29862952 27.2823618 178 382)"/><path d="m-.5-.5h1v1h-1z" fill="#516358" transform="matrix(-46.1405614 13.23059308 -25.35863672 -88.43607604 306 182)"/><path d="m-.5-.5h1v1h-1z" fill="#9e7c58" transform="matrix(-3.62523116 -1.69047304 25.35709572 -54.37846724 782 586)"/><path d="m-.5-.5h1v1h-1z" fill="#9ca287" transform="matrix(-71.29930096 -10.02046328 .5566924 -3.96107228 182 430)"/><path d="m-.5-.5h1v1h-1z" fill="#3c3d2f" transform="matrix(3.9125904 -.83164676 57.38362668 269.9687378 362 462)"/><path d="m-.5-.5h1v1h-1z" fill="#75665e" transform="matrix(4.10424172 11.27631144 -71.41663916 25.99353088 858 614)"/><path d="m-.5-.5h1v1h-1z" fill="#5e704a" transform="matrix(-2.51212588 47.93421768 -15.97807256 -.83737528 514 374)"/><path d="m-.5-.5h1v1h-1z" fill="#3b6b72" transform="matrix(-39.61072276 5.56692404 -7.23700124 -51.49393956 274 330)"/><path d="m-.5-.5h1v1h-1z" fill="#2a3626" transform="matrix(-283.30819028 -19.81083856 .27902588 -3.9902562 314 66)"/><path d="m-.5-.5h1v1h-1z" fill="#7a725c" transform="matrix(29.28503832 65.77527296 -14.61672732 6.50778628 358 370)"/><path d="m-.5-.5h1v1h-1z" fill="#b2b08f" transform="matrix(-1.6056214 -91.98598796 51.99208016 -.90752512 502 2)"/><path d="m-.5-.5h1v1h-1z" fill="#12221e" transform="matrix(-55.8635868 -3.90636252 1.67415536 -23.9415372 942 566)"/><path d="m-.5-.5h1v1h-1z" fill="#001412" transform="matrix(-.139598 3.99756332 -331.79775456 -11.58663292 126 666)"/><path d="m-.5-.5h1v1h-1z" fill="#0d1814" transform="matrix(-99.93908272 -3.48994968 .139598 -3.99756332 822 226)"/><path d="m-.5-.5h1v1h-1z" fill="#4c5b46" transform="matrix(2.09173784 -23.90867276 270.96495788 23.70636204 654 102)"/><path d="m-.5-.5h1v1h-1z" fill="#7c8065" transform="matrix(-119.92689924 -4.1879396 .139598 -3.99756332 218 26)"/><path d="m-.5-.5h1v1h-1z" fill="#1a332f" transform="matrix(90.2104916 -32.83393376 1.36808056 3.75877048 186 354)"/><path d="m-.5-.5h1v1h-1z" fill="#9c836f" transform="matrix(-15.1282972 -5.20909048 1.3022726 -3.78207432 190 286)"/><path d="m-.5-.5h1v1h-1z" fill="#67513c" transform="matrix(11.388626 25.5792728 -21.925091 9.76167944 446 214)"/><path d="m-.5-.5h1v1h-1z" fill="#1d4d5a" transform="matrix(-.41885776 -23.99634468 191.97075748 -3.35086204 46 414)"/><path d="m-.5-.5h1v1h-1z" fill="#0e2d39" transform="matrix(59.99086172 1.0471444 -2.79238504 159.97563124 510 474)"/><path d="m-.5-.5h1v1h-1z" fill="#1a1214" transform="matrix(-17.97588092 8.76742292 -1.7534846 -3.5951762 402 398)"/><path d="m-.5-.5h1v1h-1z" fill="#1e5b66" transform="matrix(-1.39597988 39.97563308 -87.94639276 -3.07115572 14 278)"/><path d="m-.5-.5h1v1h-1z" fill="#0b1f1e" transform="matrix(-15.99025324 -.55839196 3.76914564 -107.93420932 662 550)"/><path d="m-.5-.5h1v1h-1z" fill="#cad4bd" transform="matrix(4.88083972 10.96254548 -32.88763648 14.64251916 686 26)"/><path d="m-.5-.5h1v1h-1z" fill="#0f1e18" transform="matrix(-83.88488092 -4.39622032 .83737528 -15.97807256 226 450)"/></g></svg>