<svg xmlns="http://www.w3.org/2000/svg" version="1.1" width="1024" height="680">
<rect x="0" y="0" width="1024" height="680" fill="#4d7773" />
<g transform="scale(4.000000) translate(0.5 0.5)">
<g transform="translate(169.271717 152.880560) rotate(-44.443680) scale(36.056148 27.893358)"><ellipse fill="#97fbc3" fill-opacity="0.501961" cx="0" cy="0" rx="1" ry="1" /></g>
<g transform="translate(39.300611 149.508302) rotate(322.242512) scale(104.114648 79.147116)"><ellipse fill="#182e50" fill-opacity="0.501961" cx="0" cy="0" rx="1" ry="1" /></g>
<g transform="translate(117.612965 145.562192) rotate(90.181453) scale(47.175804 14.054952)"><ellipse fill="#0047f3" fill-opacity="0.501961" cx="0" cy="0" rx="1" ry="1" /></g>
<g transform="translate(211.487827 58.614966) rotate(296.104437) scale(66.364698 50.699710)"><ellipse fill="#75b292" fill-opacity="0.501961" cx="0" cy="0" rx="1" ry="1" /></g>
<g transform="translate(79.204365 45.810863) rotate(167.424600) scale(19.913269 66.480261)"><ellipse fill="#74947d" fill-opacity="0.501961" cx="0" cy="0" rx="1" ry="1" /></g>
<g transform="translate(0.000000 7.595553) rotate(104.878088) scale(13.525849 41.825475)"><ellipse fill="#1b2820" fill-opacity="0.501961" cx="0" cy="0" rx="1" ry="1" /></g>
<g transform="translate(119.240844 89.709331) rotate(164.855258) scale(12.516547 10.502074)"><ellipse fill="#000008" fill-opacity="0.501961" cx="0" cy="0" rx="1" ry="1" /></g>
<g transform="translate(176.678862 63.038745) rotate(48.195084) scale(12.626596 19.334732)"><ellipse fill="#23483e" fill-opacity="0.501961" cx="0" cy="0" rx="1" ry="1" /></g>
<g transform="translate(42.918801 169.000000) rotate(240.656759) scale(64.491030 50.532754)"><ellipse fill="#2f4034" fill-opacity="0.501961" cx="0" cy="0" rx="1" ry="1" /></g>
<g transform="translate(131.876932 46.296997) rotate(113.141500) scale(10.114520 33.564363)"><ellipse fill="#81aeaf" fill-opacity="0.501961" cx="0" cy="0" rx="1" ry="1" /></g>
<g transform="translate(100.208457 147.363141) rotate(102.269539) scale(50.439409 6.487985)"><ellipse fill="#000b71" fill-opacity="0.501961" cx="0" cy="0" rx="1" ry="1" /></g>
<g transform="translate(102.883091 55.799652) rotate(120.329862) scale(14.117661 24.615179)"><ellipse fill="#1c4061" fill-opacity="0.501961" cx="0" cy="0" rx="1" ry="1" /></g>
<g transform="translate(27.544006 80.415224) rotate(305.650759) scale(7.697730 27.721678)"><ellipse fill="#898380" fill-opacity="0.501961" cx="0" cy="0" rx="1" ry="1" /></g>
<g transform="translate(247.462569 47.268149) rotate(201.808360) scale(12.463798 7.555606)"><ellipse fill="#b6e2e4" fill-opacity="0.501961" cx="0" cy="0" rx="1" ry="1" /></g>
<g transform="translate(135.116496 34.290169) rotate(55.244106) scale(19.663337 4.351431)"><ellipse fill="#00185e" fill-opacity="0.501961" cx="0" cy="0" rx="1" ry="1" /></g>
<g transform="translate(100.326763 77.059194) rotate(144.273278) scale(17.709028 2.077398)"><ellipse fill="#e7cdd0" fill-opacity="0.501961" cx="0" cy="0" rx="1" ry="1" /></g>
<g transform="translate(0.000000 39.561438) rotate(223.495646) scale(8.092810 23.341522)"><ellipse fill="#adc28a" fill-opacity="0.501961" cx="0" cy="0" rx="1" ry="1" /></g>
<g transform="translate(117.808911 117.337127) rotate(21.133339) scale(8.910267 22.973375)"><ellipse fill="#0171e2" fill-opacity="0.501961" cx="0" cy="0" rx="1" ry="1" /></g>
<g transform="translate(54.052837 74.922108) rotate(33.416791) scale(48.052701 13.559766)"><ellipse fill="#314943" fill-opacity="0.501961" cx="0" cy="0" rx="1" ry="1" /></g>
<g transform="translate(85.476904 119.879075) rotate(176.381951) scale(12.478155 24.098403)"><ellipse fill="#678f6e" fill-opacity="0.501961" cx="0" cy="0" rx="1" ry="1" /></g>
<g transform="translate(59.601899 26.716018) rotate(253.203863) scale(36.770673 20.375502)"><ellipse fill="#769d8d" fill-opacity="0.501961" cx="0" cy="0" rx="1" ry="1" /></g>
<g transform="translate(147.383810 142.749570) rotate(373.224301) scale(16.521301 31.292751)"><ellipse fill="#43a68b" fill-opacity="0.501961" cx="0" cy="0" rx="1" ry="1" /></g>
<g transform="translate(139.335947 0.000000) rotate(345.246562) scale(13.598266 33.684608)"><ellipse fill="#77b391" fill-opacity="0.501961" cx="0" cy="0" rx="1" ry="1" /></g>
<g transform="translate(213.258008 74.723529) rotate(-4.781490) scale(10.652303 6.428497)"><ellipse fill="#bcd6f1" fill-opacity="0.501961" cx="0" cy="0" rx="1" ry="1" /></g>
<g transform="translate(176.225522 161.187975) rotate(113.811443) scale(11.966757 22.060849)"><ellipse fill="#9fe2b6" fill-opacity="0.501961" cx="0" cy="0" rx="1" ry="1" /></g>
<g transform="translate(195.203422 108.660754) rotate(282.288985) scale(4.135142 24.140285)"><ellipse fill="#afdbc2" fill-opacity="0.501961" cx="0" cy="0" rx="1" ry="1" /></g>
<g transform="translate(193.493109 32.831680) rotate(267.476619) scale(20.751930 10.428502)"><ellipse fill="#7bc7bb" fill-opacity="0.501961" cx="0" cy="0" rx="1" ry="1" /></g>
<g transform="translate(237.411126 126.436372) rotate(174.986469) scale(12.423101 7.090032)"><ellipse fill="#79c4be" fill-opacity="0.501961" cx="0" cy="0" rx="1" ry="1" /></g>
<g transform="translate(215.998155 41.560897) rotate(156.311366) scale(13.639704 27.152275)"><ellipse fill="#4a745d" fill-opacity="0.501961" cx="0" cy="0" rx="1" ry="1" /></g>
<g transform="translate(223.526218 1.741637) rotate(108.483725) scale(19.725768 27.459337)"><ellipse fill="#77bfa0" fill-opacity="0.501961" cx="0" cy="0" rx="1" ry="1" /></g>
<g transform="translate(174.185405 119.697091) rotate(87.497566) scale(5.290247 18.481586)"><ellipse fill="#04715a" fill-opacity="0.501961" cx="0" cy="0" rx="1" ry="1" /></g>
<g transform="translate(118.585172 91.769356) rotate(42.760376) scale(7.197466 18.144589)"><ellipse fill="#000b26" fill-opacity="0.501961" cx="0" cy="0" rx="1" ry="1" /></g>
<g transform="translate(141.801248 69.365229) rotate(256.366565) scale(17.786094 7.565545)"><ellipse fill="#28444f" fill-opacity="0.501961" cx="0" cy="0" rx="1" ry="1" /></g>
<g transform="translate(95.452521 30.845873) rotate(179.839754) scale(19.050827 9.180907)"><ellipse fill="#80bc98" fill-opacity="0.501961" cx="0" cy="0" rx="1" ry="1" /></g>
<g transform="translate(164.126242 27.804951) rotate(207.320648) scale(18.161460 15.072857)"><ellipse fill="#4c6252" fill-opacity="0.501961" cx="0" cy="0" rx="1" ry="1" /></g>
<g transform="translate(125.705853 60.095728) rotate(97.158866) scale(16.712168 4.812535)"><ellipse fill="#a6a0b7" fill-opacity="0.501961" cx="0" cy="0" rx="1" ry="1" /></g>
<g transform="translate(169.579510 85.936424) rotate(73.757410) scale(6.905771 9.427714)"><ellipse fill="#92c8d9" fill-opacity="0.501961" cx="0" cy="0" rx="1" ry="1" /></g>
<g transform="translate(6.659173 0.000000) rotate(145.296591) scale(70.539096 9.248100)"><ellipse fill="#000006" fill-opacity="0.501961" cx="0" cy="0" rx="1" ry="1" /></g>
<g transform="translate(213.766865 167.880382) rotate(214.370181) scale(4.584345 23.717787)"><ellipse fill="#00532d" fill-opacity="0.501961" cx="0" cy="0" rx="1" ry="1" /></g>
<g transform="translate(167.951238 127.078568) rotate(287.007046) scale(4.584453 41.976155)"><ellipse fill="#8fbcab" fill-opacity="0.501961" cx="0" cy="0" rx="1" ry="1" /></g>
<g transform="translate(88.732757 11.382335) rotate(56.174180) scale(9.714179 14.875835)"><ellipse fill="#374e4a" fill-opacity="0.501961" cx="0" cy="0" rx="1" ry="1" /></g>
<g transform="translate(119.352682 69.084898) rotate(117.014511) scale(7.536747 4.037713)"><ellipse fill="#00000e" fill-opacity="0.501961" cx="0" cy="0" rx="1" ry="1" /></g>
<g transform="translate(43.654382 0.000000) rotate(164.602949) scale(16.861984 6.811792)"><ellipse fill="#83d3bf" fill-opacity="0.501961" cx="0" cy="0" rx="1" ry="1" /></g>
<g transform="translate(91.633242 76.775759) rotate(267.383003) scale(7.432549 15.060439)"><ellipse fill="#92ada4" fill-opacity="0.501961" cx="0" cy="0" rx="1" ry="1" /></g>
<g transform="translate(189.471759 100.084063) rotate(169.303511) scale(4.317539 33.351078)"><ellipse fill="#3a7560" fill-opacity="0.501961" cx="0" cy="0" rx="1" ry="1" /></g>
<g transform="translate(104.037616 154.344323) rotate(268.512806) scale(35.750669 9.782884)"><ellipse fill="#002879" fill-opacity="0.501961" cx="0" cy="0" rx="1" ry="1" /></g>
<g transform="translate(139.083332 133.578154) rotate(166.462324) scale(10.508728 3.301665)"><ellipse fill="#044036" fill-opacity="0.501961" cx="0" cy="0" rx="1" ry="1" /></g>
<g transform="translate(153.337860 53.622061) rotate(210.526348) scale(8.794573 8.695063)"><ellipse fill="#87d1c5" fill-opacity="0.501961" cx="0" cy="0" rx="1" ry="1" /></g>
<g transform="translate(252.427741 89.646594) rotate(420.014571) scale(7.773254 9.455727)"><ellipse fill="#68c7d2" fill-opacity="0.501961" cx="0" cy="0" rx="1" ry="1" /></g>
<g transform="translate(217.496015 142.028344) rotate(221.083509) scale(35.528244 3.881030)"><ellipse fill="#265d45" fill-opacity="0.501961" cx="0" cy="0" rx="1" ry="1" /></g>
<g transform="translate(83.978069 54.602911) rotate(304.552215) scale(35.139091 7.155489)"><ellipse fill="#44695a" fill-opacity="0.501961" cx="0" cy="0" rx="1" ry="1" /></g>
<g transform="translate(5.323275 104.838214) rotate(269.303329) scale(30.999315 23.776273)"><ellipse fill="#465c4e" fill-opacity="0.501961" cx="0" cy="0" rx="1" ry="1" /></g>
<g transform="translate(115.056604 58.297671) rotate(89.910240) scale(3.874682 14.521524)"><ellipse fill="#1b6bd7" fill-opacity="0.501961" cx="0" cy="0" rx="1" ry="1" /></g>
<g transform="translate(65.298498 53.599424) rotate(363.792783) scale(8.273260 6.408212)"><ellipse fill="#98dac7" fill-opacity="0.501961" cx="0" cy="0" rx="1" ry="1" /></g>
<g transform="translate(123.507856 73.408082) rotate(212.866014) scale(1.723956 6.759129)"><ellipse fill="#fffee5" fill-opacity="0.501961" cx="0" cy="0" rx="1" ry="1" /></g>
<g transform="translate(6.037080 57.564800) rotate(76.370601) scale(8.294850 55.867105)"><ellipse fill="#445150" fill-opacity="0.501961" cx="0" cy="0" rx="1" ry="1" /></g>
<g transform="translate(210.189849 50.575978) rotate(124.475466) scale(12.373150 4.202425)"><ellipse fill="#363a3c" fill-opacity="0.501961" cx="0" cy="0" rx="1" ry="1" /></g>
<g transform="translate(35.012462 16.242117) rotate(186.009797) scale(28.478361 7.659183)"><ellipse fill="#3e625e" fill-opacity="0.501961" cx="0" cy="0" rx="1" ry="1" /></g>
<g transform="translate(39.375062 33.804566) rotate(150.109421) scale(13.997493 4.605963)"><ellipse fill="#86bda3" fill-opacity="0.501961" cx="0" cy="0" rx="1" ry="1" /></g>
<g transform="translate(1.226058 164.196295) rotate(126.021299) scale(30.770297 5.251596)"><ellipse fill="#13181a" fill-opacity="0.501961" cx="0" cy="0" rx="1" ry="1" /></g>
<g transform="translate(76.832859 138.854811) rotate(163.482447) scale(15.278120 5.466498)"><ellipse fill="#44908a" fill-opacity="0.501961" cx="0" cy="0" rx="1" ry="1" /></g>
<g transform="translate(206.051925 16.773334) rotate(262.194468) scale(3.668729 34.895406)"><ellipse fill="#8ac7b6" fill-opacity="0.501961" cx="0" cy="0" rx="1" ry="1" /></g>
<g transform="translate(254.790193 148.810159) rotate(-48.482385) scale(6.686244 10.488343)"><ellipse fill="#a49e8a" fill-opacity="0.501961" cx="0" cy="0" rx="1" ry="1" /></g>
<g transform="translate(220.789204 29.414615) rotate(180.274821) scale(59.993802 3.912779)"><ellipse fill="#447760" fill-opacity="0.501961" cx="0" cy="0" rx="1" ry="1" /></g>
<g transform="translate(134.293386 106.065701) rotate(96.607049) scale(26.719655 4.232492)"><ellipse fill="#67a080" fill-opacity="0.501961" cx="0" cy="0" rx="1" ry="1" /></g>
<g transform="translate(94.422085 79.821157) rotate(120.278676) scale(9.904180 2.869162)"><ellipse fill="#cdb7c3" fill-opacity="0.501961" cx="0" cy="0" rx="1" ry="1" /></g>
<g transform="translate(165.637530 95.694046) rotate(350.954124) scale(23.823574 4.684165)"><ellipse fill="#24675a" fill-opacity="0.501961" cx="0" cy="0" rx="1" ry="1" /></g>
<g transform="translate(156.147954 124.598795) rotate(14.849160) scale(2.566422 35.447502)"><ellipse fill="#219474" fill-opacity="0.501961" cx="0" cy="0" rx="1" ry="1" /></g>
<g transform="translate(67.921393 2.130770) rotate(95.357209) scale(17.925235 5.137515)"><ellipse fill="#9bcca6" fill-opacity="0.501961" cx="0" cy="0" rx="1" ry="1" /></g>
<g transform="translate(198.822497 38.487356) rotate(120.976061) scale(3.987029 5.510671)"><ellipse fill="#c6d7d6" fill-opacity="0.501961" cx="0" cy="0" rx="1" ry="1" /></g>
<g transform="translate(242.549699 125.761387) rotate(-16.457872) scale(3.680751 3.752667)"><ellipse fill="#f2d2cc" fill-opacity="0.501961" cx="0" cy="0" rx="1" ry="1" /></g>
<g transform="translate(233.663958 129.144729) rotate(0.866824) scale(4.554696 2.827645)"><ellipse fill="#003dd2" fill-opacity="0.501961" cx="0" cy="0" rx="1" ry="1" /></g>
<g transform="translate(108.223193 84.656279) rotate(75.866423) scale(4.362674 6.352510)"><ellipse fill="#00000e" fill-opacity="0.501961" cx="0" cy="0" rx="1" ry="1" /></g>
<g transform="translate(199.750850 166.596592) rotate(158.809400) scale(9.147402 31.977768)"><ellipse fill="#7fa879" fill-opacity="0.501961" cx="0" cy="0" rx="1" ry="1" /></g>
<g transform="translate(236.482179 94.938314) rotate(110.747957) scale(3.502450 32.584985)"><ellipse fill="#377054" fill-opacity="0.501961" cx="0" cy="0" rx="1" ry="1" /></g>
<g transform="translate(205.398483 113.729603) rotate(177.894941) scale(12.546158 8.273228)"><ellipse fill="#87c7ba" fill-opacity="0.501961" cx="0" cy="0" rx="1" ry="1" /></g>
<g transform="translate(177.894825 107.978164) rotate(316.264352) scale(7.308162 5.981059)"><ellipse fill="#abc5dc" fill-opacity="0.501961" cx="0" cy="0" rx="1" ry="1" /></g>
<g transform="translate(74.471177 77.817249) rotate(352.679610) scale(16.050376 5.309167)"><ellipse fill="#358283" fill-opacity="0.501961" cx="0" cy="0" rx="1" ry="1" /></g>
<g transform="translate(219.767843 6.386811) rotate(80.341571) scale(3.476944 27.852427)"><ellipse fill="#4a906b" fill-opacity="0.501961" cx="0" cy="0" rx="1" ry="1" /></g>
<g transform="translate(215.806602 150.480393) rotate(28.289146) scale(5.597376 1.659732)"><ellipse fill="#cfdcb7" fill-opacity="0.501961" cx="0" cy="0" rx="1" ry="1" /></g>
<g transform="translate(246.222475 111.110579) rotate(104.641252) scale(5.375937 29.552572)"><ellipse fill="#85997c" fill-opacity="0.501961" cx="0" cy="0" rx="1" ry="1" /></g>
<g transform="translate(238.365279 84.244040) rotate(149.739799) scale(53.082958 7.387924)"><ellipse fill="#779676" fill-opacity="0.501961" cx="0" cy="0" rx="1" ry="1" /></g>
<g transform="translate(126.904128 163.801708) rotate(359.891587) scale(4.253092 28.219178)"><ellipse fill="#00329a" fill-opacity="0.501961" cx="0" cy="0" rx="1" ry="1" /></g>
<g transform="translate(234.263680 168.901954) rotate(79.302186) scale(6.564316 3.487367)"><ellipse fill="#ddb9a6" fill-opacity="0.501961" cx="0" cy="0" rx="1" ry="1" /></g>
<g transform="translate(8.827816 106.643512) rotate(289.793767) scale(4.022759 13.327183)"><ellipse fill="#66887b" fill-opacity="0.501961" cx="0" cy="0" rx="1" ry="1" /></g>
<g transform="translate(237.896280 34.001695) rotate(137.159370) scale(41.313757 7.102031)"><ellipse fill="#758772" fill-opacity="0.501961" cx="0" cy="0" rx="1" ry="1" /></g>
<g transform="translate(121.416313 123.007907) rotate(177.725476) scale(4.194677 26.398906)"><ellipse fill="#1a71e1" fill-opacity="0.501961" cx="0" cy="0" rx="1" ry="1" /></g>
<g transform="translate(173.259591 64.774593) rotate(66.540343) scale(6.249140 43.486281)"><ellipse fill="#476458" fill-opacity="0.501961" cx="0" cy="0" rx="1" ry="1" /></g>
<g transform="translate(105.075325 64.043205) rotate(247.419501) scale(5.333262 10.344314)"><ellipse fill="#003873" fill-opacity="0.501961" cx="0" cy="0" rx="1" ry="1" /></g>
<g transform="translate(208.684138 138.311263) rotate(309.465784) scale(17.458401 2.650499)"><ellipse fill="#2b6448" fill-opacity="0.501961" cx="0" cy="0" rx="1" ry="1" /></g>
<g transform="translate(54.239441 79.200566) rotate(237.039076) scale(31.407778 4.227072)"><ellipse fill="#1d3638" fill-opacity="0.501961" cx="0" cy="0" rx="1" ry="1" /></g>
<g transform="translate(137.778155 24.599752) rotate(70.973366) scale(47.492463 2.205803)"><ellipse fill="#3a8db0" fill-opacity="0.501961" cx="0" cy="0" rx="1" ry="1" /></g>
<g transform="translate(183.440949 134.012179) rotate(124.512441) scale(13.529536 5.845575)"><ellipse fill="#a4ceb0" fill-opacity="0.501961" cx="0" cy="0" rx="1" ry="1" /></g>
<g transform="translate(65.770488 35.328399) rotate(144.668852) scale(6.148697 12.334989)"><ellipse fill="#486c6d" fill-opacity="0.501961" cx="0" cy="0" rx="1" ry="1" /></g>
<g transform="translate(85.657068 31.875749) rotate(246.910103) scale(5.027420 9.289366)"><ellipse fill="#85c4c1" fill-opacity="0.501961" cx="0" cy="0" rx="1" ry="1" /></g>
<g transform="translate(38.968250 169.000000) rotate(220.020612) scale(11.733876 29.422178)"><ellipse fill="#282d33" fill-opacity="0.501961" cx="0" cy="0" rx="1" ry="1" /></g>
<g transform="translate(211.104035 124.960497) rotate(162.675145) scale(31.101569 1.851953)"><ellipse fill="#416a4d" fill-opacity="0.501961" cx="0" cy="0" rx="1" ry="1" /></g>
<g transform="translate(130.609678 0.000000) rotate(269.237367) scale(4.209586 9.985907)"><ellipse fill="#83c7cc" fill-opacity="0.501961" cx="0" cy="0" rx="1" ry="1" /></g>
<g transform="translate(213.643392 89.210138) rotate(139.817449) scale(15.626903 4.252101)"><ellipse fill="#436f59" fill-opacity="0.501961" cx="0" cy="0" rx="1" ry="1" /></g>
<g transform="translate(170.874403 13.665950) rotate(7.455030) scale(4.103500 35.254937)"><ellipse fill="#76887c" fill-opacity="0.501961" cx="0" cy="0" rx="1" ry="1" /></g>
<g transform="translate(113.616274 34.822730) rotate(292.342787) scale(4.769307 10.689818)"><ellipse fill="#8ec9bb" fill-opacity="0.501961" cx="0" cy="0" rx="1" ry="1" /></g>
<g transform="translate(100.030281 51.907746) rotate(237.492518) scale(5.679007 7.131639)"><ellipse fill="#243931" fill-opacity="0.501961" cx="0" cy="0" rx="1" ry="1" /></g>
<g transform="translate(120.531101 77.442040) rotate(331.214902) scale(6.697296 1.000000)"><ellipse fill="#fffff9" fill-opacity="0.501961" cx="0" cy="0" rx="1" ry="1" /></g>
<g transform="translate(227.021620 169.000000) rotate(1.984066) scale(3.271163 6.748668)"><ellipse fill="#0049c2" fill-opacity="0.501961" cx="0" cy="0" rx="1" ry="1" /></g>
<g transform="translate(129.547391 96.320022) rotate(97.907570) scale(23.363531 1.609073)"><ellipse fill="#00348b" fill-opacity="0.501961" cx="0" cy="0" rx="1" ry="1" /></g>
<g transform="translate(78.817986 105.517373) rotate(327.533690) scale(11.778194 6.789770)"><ellipse fill="#619377" fill-opacity="0.501961" cx="0" cy="0" rx="1" ry="1" /></g>
<g transform="translate(146.581711 12.555775) rotate(254.241399) scale(3.721351 28.912754)"><ellipse fill="#6faa90" fill-opacity="0.501961" cx="0" cy="0" rx="1" ry="1" /></g>
<g transform="translate(255.000000 120.905127) rotate(359.463943) scale(8.477528 5.578087)"><ellipse fill="#304c3c" fill-opacity="0.501961" cx="0" cy="0" rx="1" ry="1" /></g>
<g transform="translate(219.426999 28.732561) rotate(50.908148) scale(2.260502 41.919857)"><ellipse fill="#68c1a4" fill-opacity="0.501961" cx="0" cy="0" rx="1" ry="1" /></g>
<g transform="translate(107.549135 72.502891) rotate(222.068622) scale(1.000000 12.742844)"><ellipse fill="#dad4d1" fill-opacity="0.501961" cx="0" cy="0" rx="1" ry="1" /></g>
<g transform="translate(206.626524 112.489609) rotate(278.395561) scale(3.123859 6.747590)"><ellipse fill="#ddd7d0" fill-opacity="0.501961" cx="0" cy="0" rx="1" ry="1" /></g>
<g transform="translate(0.000000 89.278595) rotate(57.742206) scale(13.612445 15.604344)"><ellipse fill="#2b3d3c" fill-opacity="0.501961" cx="0" cy="0" rx="1" ry="1" /></g>
<g transform="translate(125.051579 9.885361) rotate(187.094561) scale(13.488202 3.690045)"><ellipse fill="#256453" fill-opacity="0.501961" cx="0" cy="0" rx="1" ry="1" /></g>
<g transform="translate(131.864467 28.803128) rotate(40.225920) scale(8.707085 2.565055)"><ellipse fill="#000821" fill-opacity="0.501961" cx="0" cy="0" rx="1" ry="1" /></g>
<g transform="translate(103.120268 65.786052) rotate(69.485592) scale(8.784940 2.207365)"><ellipse fill="#00284f" fill-opacity="0.501961" cx="0" cy="0" rx="1" ry="1" /></g>
<g transform="translate(251.186186 45.587838) rotate(337.726983) scale(8.742862 2.676589)"><ellipse fill="#c8e7dd" fill-opacity="0.501961" cx="0" cy="0" rx="1" ry="1" /></g>
<g transform="translate(127.247251 60.053495) rotate(93.829557) scale(15.756239 1.000000)"><ellipse fill="#d2d6cc" fill-opacity="0.501961" cx="0" cy="0" rx="1" ry="1" /></g>
<g transform="translate(173.545869 39.718979) rotate(155.769179) scale(4.339609 36.003685)"><ellipse fill="#3f5a56" fill-opacity="0.501961" cx="0" cy="0" rx="1" ry="1" /></g>
<g transform="translate(103.396181 95.964056) rotate(75.404302) scale(7.623537 5.279724)"><ellipse fill="#68806f" fill-opacity="0.501961" cx="0" cy="0" rx="1" ry="1" /></g>
<g transform="translate(195.680059 135.973778) rotate(269.564921) scale(2.695718 11.317926)"><ellipse fill="#bfcaa8" fill-opacity="0.501961" cx="0" cy="0" rx="1" ry="1" /></g>
<g transform="translate(249.790999 106.228995) rotate(227.724080) scale(2.549526 16.988717)"><ellipse fill="#3c513e" fill-opacity="0.501961" cx="0" cy="0" rx="1" ry="1" /></g>
<g transform="translate(70.461370 129.583928) rotate(60.263453) scale(4.418603 14.605691)"><ellipse fill="#243937" fill-opacity="0.501961" cx="0" cy="0" rx="1" ry="1" /></g>
<g transform="translate(19.605849 73.521227) rotate(21.717079) scale(29.654763 3.750405)"><ellipse fill="#768180" fill-opacity="0.501961" cx="0" cy="0" rx="1" ry="1" /></g>
<g transform="translate(201.398666 123.346338) rotate(125.499125) scale(11.849818 2.663961)"><ellipse fill="#145d74" fill-opacity="0.501961" cx="0" cy="0" rx="1" ry="1" /></g>
<g transform="translate(191.353176 83.914303) rotate(53.436863) scale(7.949021 14.314239)"><ellipse fill="#527663" fill-opacity="0.501961" cx="0" cy="0" rx="1" ry="1" /></g>
<g transform="translate(244.230189 136.008362) rotate(262.170629) scale(2.570214 43.696770)"><ellipse fill="#3d614a" fill-opacity="0.501961" cx="0" cy="0" rx="1" ry="1" /></g>
<g transform="translate(245.889916 56.319204) rotate(356.840655) scale(8.101854 3.515874)"><ellipse fill="#39c0bf" fill-opacity="0.501961" cx="0" cy="0" rx="1" ry="1" /></g>
<g transform="translate(208.046285 70.614635) rotate(186.482551) scale(14.790753 1.929318)"><ellipse fill="#c1e1bb" fill-opacity="0.501961" cx="0" cy="0" rx="1" ry="1" /></g>
<g transform="translate(112.889158 88.133111) rotate(175.240378) scale(4.886869 17.147402)"><ellipse fill="#001a34" fill-opacity="0.501961" cx="0" cy="0" rx="1" ry="1" /></g>
<g transform="translate(144.151708 132.040965) rotate(279.810868) scale(2.759809 12.048414)"><ellipse fill="#0c5c4a" fill-opacity="0.501961" cx="0" cy="0" rx="1" ry="1" /></g>
<g transform="translate(124.333567 168.102639) rotate(249.327849) scale(57.479060 7.428084)"><ellipse fill="#0046ac" fill-opacity="0.501961" cx="0" cy="0" rx="1" ry="1" /></g>
<g transform="translate(195.275875 18.997685) rotate(63.724355) scale(4.267484 7.247824)"><ellipse fill="#b3bed8" fill-opacity="0.501961" cx="0" cy="0" rx="1" ry="1" /></g>
<g transform="translate(154.091381 152.298020) rotate(234.959748) scale(6.437904 26.560722)"><ellipse fill="#5dc2a6" fill-opacity="0.501961" cx="0" cy="0" rx="1" ry="1" /></g>
<g transform="translate(168.830653 100.825079) rotate(366.138792) scale(3.527790 11.450665)"><ellipse fill="#49c1a7" fill-opacity="0.501961" cx="0" cy="0" rx="1" ry="1" /></g>
<g transform="translate(132.183501 43.917858) rotate(66.568664) scale(12.004520 6.311808)"><ellipse fill="#787169" fill-opacity="0.501961" cx="0" cy="0" rx="1" ry="1" /></g>
<g transform="translate(212.318888 77.216554) rotate(82.064818) scale(3.060215 5.758544)"><ellipse fill="#5162c9" fill-opacity="0.501961" cx="0" cy="0" rx="1" ry="1" /></g>
<g transform="translate(128.143356 85.890366) rotate(188.048678) scale(3.625989 18.075340)"><ellipse fill="#00214f" fill-opacity="0.501961" cx="0" cy="0" rx="1" ry="1" /></g>
<g transform="translate(148.131166 121.574066) rotate(202.954837) scale(5.180962 5.294192)"><ellipse fill="#a2afc9" fill-opacity="0.501961" cx="0" cy="0" rx="1" ry="1" /></g>
<g transform="translate(158.327537 59.968923) rotate(146.745999) scale(11.827520 2.383630)"><ellipse fill="#38cfa2" fill-opacity="0.501961" cx="0" cy="0" rx="1" ry="1" /></g>
<g transform="translate(255.000000 91.595193) rotate(190.430867) scale(7.055253 4.244708)"><ellipse fill="#5d5ae5" fill-opacity="0.501961" cx="0" cy="0" rx="1" ry="1" /></g>
<g transform="translate(182.047026 169.000000) rotate(113.753210) scale(29.120784 10.543605)"><ellipse fill="#9fcfa4" fill-opacity="0.501961" cx="0" cy="0" rx="1" ry="1" /></g>
<g transform="translate(142.687828 39.719763) rotate(339.684364) scale(2.216503 6.924420)"><ellipse fill="#0057d9" fill-opacity="0.501961" cx="0" cy="0" rx="1" ry="1" /></g>
<g transform="translate(118.248235 55.551864) rotate(105.328047) scale(3.671929 8.752476)"><ellipse fill="#3775c6" fill-opacity="0.501961" cx="0" cy="0" rx="1" ry="1" /></g>
<g transform="translate(163.242133 135.833767) rotate(201.881189) scale(1.879873 5.707760)"><ellipse fill="#007264" fill-opacity="0.501961" cx="0" cy="0" rx="1" ry="1" /></g>
<g transform="translate(213.225019 163.665944) rotate(256.566741) scale(4.230293 7.915002)"><ellipse fill="#094d39" fill-opacity="0.501961" cx="0" cy="0" rx="1" ry="1" /></g>
<g transform="translate(88.690904 70.648157) rotate(284.214449) scale(12.431573 6.569930)"><ellipse fill="#649270" fill-opacity="0.501961" cx="0" cy="0" rx="1" ry="1" /></g>
<g transform="translate(255.000000 84.219414) rotate(98.879631) scale(4.480275 20.811184)"><ellipse fill="#8dc4a1" fill-opacity="0.501961" cx="0" cy="0" rx="1" ry="1" /></g>
<g transform="translate(156.618486 54.795333) rotate(264.691677) scale(4.811182 8.626217)"><ellipse fill="#a2b4c6" fill-opacity="0.501961" cx="0" cy="0" rx="1" ry="1" /></g>
<g transform="translate(64.106314 98.866759) rotate(144.762326) scale(16.718053 6.976774)"><ellipse fill="#323c39" fill-opacity="0.501961" cx="0" cy="0" rx="1" ry="1" /></g>
<g transform="translate(93.311043 155.845231) rotate(282.056615) scale(36.918355 2.124742)"><ellipse fill="#00184f" fill-opacity="0.501961" cx="0" cy="0" rx="1" ry="1" /></g>
<g transform="translate(255.000000 63.854155) rotate(325.431337) scale(21.752834 6.788939)"><ellipse fill="#637467" fill-opacity="0.501961" cx="0" cy="0" rx="1" ry="1" /></g>
<g transform="translate(247.243376 5.763440) rotate(378.703513) scale(2.362623 9.597333)"><ellipse fill="#beb4ad" fill-opacity="0.501961" cx="0" cy="0" rx="1" ry="1" /></g>
<g transform="translate(136.836569 36.291604) rotate(141.918629) scale(2.114701 9.337140)"><ellipse fill="#0c1e32" fill-opacity="0.501961" cx="0" cy="0" rx="1" ry="1" /></g>
<g transform="translate(163.647447 121.900647) rotate(65.809976) scale(1.000000 25.622964)"><ellipse fill="#029978" fill-opacity="0.501961" cx="0" cy="0" rx="1" ry="1" /></g>
<g transform="translate(194.056889 60.213509) rotate(149.582685) scale(5.318233 18.814524)"><ellipse fill="#5b9378" fill-opacity="0.501961" cx="0" cy="0" rx="1" ry="1" /></g>
<g transform="translate(242.095990 169.000000) rotate(24.919774) scale(2.915404 1.868694)"><ellipse fill="#001c0c" fill-opacity="0.501961" cx="0" cy="0" rx="1" ry="1" /></g>
<g transform="translate(137.612010 143.737140) rotate(244.053448) scale(8.462254 7.003309)"><ellipse fill="#3f7b5d" fill-opacity="0.501961" cx="0" cy="0" rx="1" ry="1" /></g>
<g transform="translate(168.713293 129.437336) rotate(169.897428) scale(2.800872 3.791009)"><ellipse fill="#dcdbcd" fill-opacity="0.501961" cx="0" cy="0" rx="1" ry="1" /></g>
<g transform="translate(57.488483 117.619648) rotate(293.273180) scale(3.341786 6.776509)"><ellipse fill="#247f7b" fill-opacity="0.501961" cx="0" cy="0" rx="1" ry="1" /></g>
<g transform="translate(96.032643 77.060757) rotate(217.667120) scale(1.439784 9.395027)"><ellipse fill="#cfcad8" fill-opacity="0.501961" cx="0" cy="0" rx="1" ry="1" /></g>
<g transform="translate(106.001289 0.000000) rotate(257.773141) scale(7.895404 5.655449)"><ellipse fill="#88a58e" fill-opacity="0.501961" cx="0" cy="0" rx="1" ry="1" /></g>
<g transform="translate(188.338072 27.245172) rotate(26.838307) scale(17.115416 2.579234)"><ellipse fill="#29a78b" fill-opacity="0.501961" cx="0" cy="0" rx="1" ry="1" /></g>
<g transform="translate(107.932332 85.167076) rotate(274.730050) scale(1.550205 13.579345)"><ellipse fill="#020b1c" fill-opacity="0.501961" cx="0" cy="0" rx="1" ry="1" /></g>
<g transform="translate(125.948644 68.635137) rotate(278.752664) scale(7.782887 1.000000)"><ellipse fill="#e8f2eb" fill-opacity="0.501961" cx="0" cy="0" rx="1" ry="1" /></g>
<g transform="translate(173.830678 58.575085) rotate(304.162356) scale(17.351202 3.460484)"><ellipse fill="#2c4844" fill-opacity="0.501961" cx="0" cy="0" rx="1" ry="1" /></g>
<g transform="translate(119.223175 91.337149) rotate(317.754688) scale(16.546844 3.535572)"><ellipse fill="#000913" fill-opacity="0.501961" cx="0" cy="0" rx="1" ry="1" /></g>
<g transform="translate(133.655974 157.571712) rotate(356.454589) scale(2.404525 18.605882)"><ellipse fill="#6db487" fill-opacity="0.501961" cx="0" cy="0" rx="1" ry="1" /></g>
<g transform="translate(228.890021 121.562861) rotate(159.969100) scale(23.914860 2.944057)"><ellipse fill="#6f9773" fill-opacity="0.501961" cx="0" cy="0" rx="1" ry="1" /></g>
<g transform="translate(233.650898 3.931998) rotate(221.693119) scale(11.038392 6.651093)"><ellipse fill="#49906f" fill-opacity="0.501961" cx="0" cy="0" rx="1" ry="1" /></g>
<g transform="translate(183.389319 4.961530) rotate(317.616803) scale(5.854644 7.642589)"><ellipse fill="#435849" fill-opacity="0.501961" cx="0" cy="0" rx="1" ry="1" /></g>
<g transform="translate(18.508930 22.011158) rotate(354.576746) scale(5.525519 15.723878)"><ellipse fill="#58785e" fill-opacity="0.501961" cx="0" cy="0" rx="1" ry="1" /></g>
<g transform="translate(98.312175 104.350667) rotate(137.743909) scale(3.716607 11.085264)"><ellipse fill="#2f3e3a" fill-opacity="0.501961" cx="0" cy="0" rx="1" ry="1" /></g>
<g transform="translate(180.926843 120.627080) rotate(301.475851) scale(14.351579 1.897963)"><ellipse fill="#2e7155" fill-opacity="0.501961" cx="0" cy="0" rx="1" ry="1" /></g>
<g transform="translate(12.996851 122.311611) rotate(286.143678) scale(26.185205 3.229799)"><ellipse fill="#4d7365" fill-opacity="0.501961" cx="0" cy="0" rx="1" ry="1" /></g>
<g transform="translate(144.585817 59.880794) rotate(9.444569) scale(2.208990 5.711191)"><ellipse fill="#008db9" fill-opacity="0.501961" cx="0" cy="0" rx="1" ry="1" /></g>
<g transform="translate(255.000000 6.456278) rotate(298.816752) scale(42.103753 3.359233)"><ellipse fill="#4e765d" fill-opacity="0.501961" cx="0" cy="0" rx="1" ry="1" /></g>
<g transform="translate(237.489338 129.195033) rotate(192.022838) scale(2.386505 2.760157)"><ellipse fill="#0027af" fill-opacity="0.501961" cx="0" cy="0" rx="1" ry="1" /></g>
<g transform="translate(118.321982 114.891488) rotate(355.277560) scale(4.415730 15.204539)"><ellipse fill="#1f7be1" fill-opacity="0.501961" cx="0" cy="0" rx="1" ry="1" /></g>
<g transform="translate(45.678919 97.289625) rotate(-54.333107) scale(11.339619 13.203891)"><ellipse fill="#545e60" fill-opacity="0.501961" cx="0" cy="0" rx="1" ry="1" /></g>
<g transform="translate(188.240482 140.615159) rotate(90.514075) scale(2.120203 4.779362)"><ellipse fill="#317967" fill-opacity="0.501961" cx="0" cy="0" rx="1" ry="1" /></g>
<g transform="translate(152.468543 28.078099) rotate(114.272550) scale(3.699863 3.048839)"><ellipse fill="#8ac184" fill-opacity="0.501961" cx="0" cy="0" rx="1" ry="1" /></g>
<g transform="translate(36.550735 109.084941) rotate(300.980487) scale(4.551436 17.704908)"><ellipse fill="#20393a" fill-opacity="0.501961" cx="0" cy="0" rx="1" ry="1" /></g>
<g transform="translate(56.269232 18.900779) rotate(262.005789) scale(11.698657 6.043829)"><ellipse fill="#4a6c67" fill-opacity="0.501961" cx="0" cy="0" rx="1" ry="1" /></g>
<g transform="translate(92.127329 108.422142) rotate(139.769035) scale(3.799043 12.045298)"><ellipse fill="#808382" fill-opacity="0.501961" cx="0" cy="0" rx="1" ry="1" /></g>
<g transform="translate(38.392379 129.895405) rotate(216.355816) scale(20.473363 13.653744)"><ellipse fill="#425055" fill-opacity="0.501961" cx="0" cy="0" rx="1" ry="1" /></g>
<g transform="translate(240.396564 150.448909) rotate(130.335045) scale(7.398635 16.361546)"><ellipse fill="#6a7b65" fill-opacity="0.501961" cx="0" cy="0" rx="1" ry="1" /></g>
<g transform="translate(211.377531 0.000000) rotate(81.288637) scale(4.861760 8.149749)"><ellipse fill="#76ced5" fill-opacity="0.501961" cx="0" cy="0" rx="1" ry="1" /></g>
<g transform="translate(206.574634 83.369492) rotate(99.066000) scale(2.710462 4.839455)"><ellipse fill="#1dc99c" fill-opacity="0.501961" cx="0" cy="0" rx="1" ry="1" /></g>
<g transform="translate(149.858855 159.867891) rotate(109.557444) scale(38.663988 1.000000)"><ellipse fill="#91cabc" fill-opacity="0.501961" cx="0" cy="0" rx="1" ry="1" /></g>
<g transform="translate(168.909605 83.162721) rotate(340.064116) scale(5.313655 1.974586)"><ellipse fill="#e6d3ce" fill-opacity="0.501961" cx="0" cy="0" rx="1" ry="1" /></g>
<g transform="translate(152.354296 89.723261) rotate(270.841825) scale(23.255330 1.209737)"><ellipse fill="#838f88" fill-opacity="0.501961" cx="0" cy="0" rx="1" ry="1" /></g>
<g transform="translate(196.448368 122.391311) rotate(2.068257) scale(2.443162 4.931110)"><ellipse fill="#00b087" fill-opacity="0.501961" cx="0" cy="0" rx="1" ry="1" /></g>
<g transform="translate(192.562774 0.000000) rotate(325.761882) scale(3.186392 26.857749)"><ellipse fill="#2f9f7c" fill-opacity="0.501961" cx="0" cy="0" rx="1" ry="1" /></g>
<g transform="translate(177.819934 28.731207) rotate(115.644475) scale(6.005539 4.290608)"><ellipse fill="#185357" fill-opacity="0.501961" cx="0" cy="0" rx="1" ry="1" /></g>
<g transform="translate(157.855424 95.575230) rotate(349.172903) scale(5.528320 6.924137)"><ellipse fill="#1e544f" fill-opacity="0.501961" cx="0" cy="0" rx="1" ry="1" /></g>
<g transform="translate(87.687181 132.508989) rotate(204.725723) scale(3.527208 10.607270)"><ellipse fill="#68a47d" fill-opacity="0.501961" cx="0" cy="0" rx="1" ry="1" /></g>
<g transform="translate(78.648357 61.477231) rotate(114.026723) scale(17.555746 3.806795)"><ellipse fill="#3c5152" fill-opacity="0.501961" cx="0" cy="0" rx="1" ry="1" /></g>
<g transform="translate(175.203766 109.962020) rotate(76.225543) scale(1.644657 3.316401)"><ellipse fill="#1449ba" fill-opacity="0.501961" cx="0" cy="0" rx="1" ry="1" /></g>
<g transform="translate(189.235027 127.486641) rotate(180.408332) scale(4.330682 2.310380)"><ellipse fill="#ddc3c6" fill-opacity="0.501961" cx="0" cy="0" rx="1" ry="1" /></g>
<g transform="translate(158.190753 166.070574) rotate(96.387289) scale(16.050451 2.053994)"><ellipse fill="#9be4cf" fill-opacity="0.501961" cx="0" cy="0" rx="1" ry="1" /></g>
<g transform="translate(199.963440 163.476332) rotate(329.614782) scale(27.575144 2.081902)"><ellipse fill="#77a383" fill-opacity="0.501961" cx="0" cy="0" rx="1" ry="1" /></g>
<g transform="translate(255.000000 166.860472) rotate(226.390559) scale(16.100842 2.641996)"><ellipse fill="#3e4f42" fill-opacity="0.501961" cx="0" cy="0" rx="1" ry="1" /></g>
<g transform="translate(191.571197 74.587408) rotate(288.514885) scale(19.027624 2.439488)"><ellipse fill="#838581" fill-opacity="0.501961" cx="0" cy="0" rx="1" ry="1" /></g>
<g transform="translate(221.412261 99.290836) rotate(319.058621) scale(8.239852 9.701178)"><ellipse fill="#86a192" fill-opacity="0.501961" cx="0" cy="0" rx="1" ry="1" /></g>
<g transform="translate(199.911096 127.115993) rotate(337.874017) scale(5.561623 4.770874)"><ellipse fill="#0c4f3b" fill-opacity="0.501961" cx="0" cy="0" rx="1" ry="1" /></g>
<g transform="translate(25.969432 38.038264) rotate(350.199707) scale(10.607616 4.534167)"><ellipse fill="#48949d" fill-opacity="0.501961" cx="0" cy="0" rx="1" ry="1" /></g>
<g transform="translate(88.428900 116.421091) rotate(310.530404) scale(5.379800 10.941427)"><ellipse fill="#3e544f" fill-opacity="0.501961" cx="0" cy="0" rx="1" ry="1" /></g>
<g transform="translate(249.589805 51.647506) rotate(82.710801) scale(2.133034 6.900352)"><ellipse fill="#7e73c9" fill-opacity="0.501961" cx="0" cy="0" rx="1" ry="1" /></g>
<g transform="translate(184.895448 118.217999) rotate(175.149539) scale(6.916118 4.271895)"><ellipse fill="#2b5547" fill-opacity="0.501961" cx="0" cy="0" rx="1" ry="1" /></g>
<g transform="translate(80.780626 17.954126) rotate(314.109900) scale(15.533680 3.541428)"><ellipse fill="#42555c" fill-opacity="0.501961" cx="0" cy="0" rx="1" ry="1" /></g>
<g transform="translate(210.900227 25.167900) rotate(113.571607) scale(4.889758 4.682337)"><ellipse fill="#365249" fill-opacity="0.501961" cx="0" cy="0" rx="1" ry="1" /></g>
<g transform="translate(45.778830 169.000000) rotate(188.787082) scale(18.628451 3.419916)"><ellipse fill="#161e25" fill-opacity="0.501961" cx="0" cy="0" rx="1" ry="1" /></g>
<g transform="translate(144.301541 124.420305) rotate(-28.415358) scale(4.011888 2.583215)"><ellipse fill="#5d5996" fill-opacity="0.501961" cx="0" cy="0" rx="1" ry="1" /></g>
<g transform="translate(118.333958 18.301493) rotate(55.054377) scale(5.957163 2.944606)"><ellipse fill="#4cbb96" fill-opacity="0.501961" cx="0" cy="0" rx="1" ry="1" /></g>
<g transform="translate(68.076581 61.164902) rotate(155.668027) scale(7.473288 6.375700)"><ellipse fill="#78a68a" fill-opacity="0.501961" cx="0" cy="0" rx="1" ry="1" /></g>
<g transform="translate(146.262333 85.887150) rotate(264.122417) scale(17.291936 3.724439)"><ellipse fill="#394e4d" fill-opacity="0.501961" cx="0" cy="0" rx="1" ry="1" /></g>
<g transform="translate(255.000000 110.539503) rotate(325.991535) scale(11.386253 2.251460)"><ellipse fill="#ada8a6" fill-opacity="0.501961" cx="0" cy="0" rx="1" ry="1" /></g>
<g transform="translate(230.286295 17.188392) rotate(0.072725) scale(7.197892 4.697474)"><ellipse fill="#9fc1c2" fill-opacity="0.501961" cx="0" cy="0" rx="1" ry="1" /></g>
<g transform="translate(99.883029 78.615724) rotate(29.558221) scale(7.942608 2.120080)"><ellipse fill="#a39293" fill-opacity="0.501961" cx="0" cy="0" rx="1" ry="1" /></g>
<g transform="translate(191.986792 143.926528) rotate(249.371547) scale(2.308642 15.233641)"><ellipse fill="#a3ca9f" fill-opacity="0.501961" cx="0" cy="0" rx="1" ry="1" /></g>
<g transform="translate(169.401876 134.331970) rotate(280.181428) scale(8.897942 1.559476)"><ellipse fill="#b4d9ce" fill-opacity="0.501961" cx="0" cy="0" rx="1" ry="1" /></g>
<g transform="translate(30.429730 7.868322) rotate(4.757090) scale(9.705447 3.942087)"><ellipse fill="#417b71" fill-opacity="0.501961" cx="0" cy="0" rx="1" ry="1" /></g>
<g transform="translate(209.903564 113.240054) rotate(54.353974) scale(4.864601 3.399175)"><ellipse fill="#ded5ce" fill-opacity="0.501961" cx="0" cy="0" rx="1" ry="1" /></g>
<g transform="translate(135.072666 59.683633) rotate(83.498357) scale(1.955912 25.553682)"><ellipse fill="#537a90" fill-opacity="0.501961" cx="0" cy="0" rx="1" ry="1" /></g>
<g transform="translate(86.502773 44.209917) rotate(74.053804) scale(4.178304 8.428236)"><ellipse fill="#6b8c6e" fill-opacity="0.501961" cx="0" cy="0" rx="1" ry="1" /></g>
<g transform="translate(169.947117 87.145832) rotate(65.103243) scale(2.271596 5.438483)"><ellipse fill="#6456bc" fill-opacity="0.501961" cx="0" cy="0" rx="1" ry="1" /></g>
<g transform="translate(110.405111 70.131366) rotate(128.953567) scale(13.158760 1.000000)"><ellipse fill="#bdc0bc" fill-opacity="0.501961" cx="0" cy="0" rx="1" ry="1" /></g>
<g transform="translate(134.613466 97.769444) rotate(199.318187) scale(2.847997 9.239718)"><ellipse fill="#6eba96" fill-opacity="0.501961" cx="0" cy="0" rx="1" ry="1" /></g>
<g transform="translate(101.755304 75.007683) rotate(146.259456) scale(6.357869 1.000000)"><ellipse fill="#4d4451" fill-opacity="0.501961" cx="0" cy="0" rx="1" ry="1" /></g>
<g transform="translate(116.230275 25.191469) rotate(311.383373) scale(2.900891 8.022087)"><ellipse fill="#235a51" fill-opacity="0.501961" cx="0" cy="0" rx="1" ry="1" /></g>
<g transform="translate(0.000000 41.825816) rotate(114.787415) scale(16.103241 7.762658)"><ellipse fill="#8eac89" fill-opacity="0.501961" cx="0" cy="0" rx="1" ry="1" /></g>
<g transform="translate(236.619688 94.702547) rotate(210.515400) scale(3.351488 11.696883)"><ellipse fill="#47785f" fill-opacity="0.501961" cx="0" cy="0" rx="1" ry="1" /></g>
<g transform="translate(170.843505 77.645863) rotate(268.830466) scale(1.934330 6.316142)"><ellipse fill="#1eb18c" fill-opacity="0.501961" cx="0" cy="0" rx="1" ry="1" /></g>
<g transform="translate(196.204174 40.586965) rotate(26.207113) scale(7.329210 5.774421)"><ellipse fill="#a4b6c3" fill-opacity="0.501961" cx="0" cy="0" rx="1" ry="1" /></g>
<g transform="translate(121.207461 70.627688) rotate(40.408057) scale(2.718882 4.980141)"><ellipse fill="#322932" fill-opacity="0.501961" cx="0" cy="0" rx="1" ry="1" /></g>
<g transform="translate(120.958831 77.580909) rotate(166.547079) scale(4.973047 1.296262)"><ellipse fill="#fdf2d9" fill-opacity="0.501961" cx="0" cy="0" rx="1" ry="1" /></g>
<g transform="translate(3.234284 15.801492) rotate(297.343099) scale(9.651461 5.251958)"><ellipse fill="#2c2a2b" fill-opacity="0.501961" cx="0" cy="0" rx="1" ry="1" /></g>
<g transform="translate(78.678274 138.661425) rotate(136.892796) scale(5.743747 1.509971)"><ellipse fill="#083196" fill-opacity="0.501961" cx="0" cy="0" rx="1" ry="1" /></g>
<g transform="translate(252.781008 152.712000) rotate(63.385493) scale(2.745615 6.044692)"><ellipse fill="#9eada4" fill-opacity="0.501961" cx="0" cy="0" rx="1" ry="1" /></g>
<g transform="translate(162.601118 157.896581) rotate(95.955110) scale(28.028095 1.000000)"><ellipse fill="#3ead90" fill-opacity="0.501961" cx="0" cy="0" rx="1" ry="1" /></g>
<g transform="translate(144.366717 11.287137) rotate(231.999403) scale(3.536149 7.878778)"><ellipse fill="#81cb9c" fill-opacity="0.501961" cx="0" cy="0" rx="1" ry="1" /></g>
<g transform="translate(255.000000 31.200670) rotate(212.214000) scale(2.993528 13.079080)"><ellipse fill="#5b705a" fill-opacity="0.501961" cx="0" cy="0" rx="1" ry="1" /></g>
<g transform="translate(234.652812 65.410295) rotate(121.322897) scale(8.322978 7.004587)"><ellipse fill="#81a48b" fill-opacity="0.501961" cx="0" cy="0" rx="1" ry="1" /></g>
<g transform="translate(47.984588 46.128946) rotate(252.841727) scale(7.627551 7.053398)"><ellipse fill="#475e57" fill-opacity="0.501961" cx="0" cy="0" rx="1" ry="1" /></g>
<g transform="translate(216.181882 136.024979) rotate(-14.868212) scale(2.673449 1.744349)"><ellipse fill="#9fbaa4" fill-opacity="0.501961" cx="0" cy="0" rx="1" ry="1" /></g>
<g transform="translate(124.956264 48.609905) rotate(330.785601) scale(7.520850 2.506703)"><ellipse fill="#b09c97" fill-opacity="0.501961" cx="0" cy="0" rx="1" ry="1" /></g>
<g transform="translate(104.469639 153.526733) rotate(270.955757) scale(43.468101 4.306165)"><ellipse fill="#00307f" fill-opacity="0.501961" cx="0" cy="0" rx="1" ry="1" /></g>
<g transform="translate(100.941917 67.003714) rotate(54.420048) scale(1.000000 8.429934)"><ellipse fill="#042641" fill-opacity="0.501961" cx="0" cy="0" rx="1" ry="1" /></g>
<g transform="translate(190.759772 42.893544) rotate(263.076669) scale(2.845529 7.972585)"><ellipse fill="#6c79ab" fill-opacity="0.501961" cx="0" cy="0" rx="1" ry="1" /></g>
<g transform="translate(136.540467 120.843316) rotate(228.120896) scale(2.317481 5.143709)"><ellipse fill="#27b289" fill-opacity="0.501961" cx="0" cy="0" rx="1" ry="1" /></g>
<g transform="translate(205.065622 118.111519) rotate(-28.828291) scale(5.358699 3.134198)"><ellipse fill="#5b85d4" fill-opacity="0.501961" cx="0" cy="0" rx="1" ry="1" /></g>
<g transform="translate(210.806999 152.751925) rotate(95.607093) scale(2.631121 3.824823)"><ellipse fill="#2a80c1" fill-opacity="0.501961" cx="0" cy="0" rx="1" ry="1" /></g>
<g transform="translate(232.322669 44.906808) rotate(286.447761) scale(7.987225 6.150291)"><ellipse fill="#79ad88" fill-opacity="0.501961" cx="0" cy="0" rx="1" ry="1" /></g>
<g transform="translate(61.426671 77.807806) rotate(167.774666) scale(3.190628 6.067935)"><ellipse fill="#509072" fill-opacity="0.501961" cx="0" cy="0" rx="1" ry="1" /></g>
<g transform="translate(97.515187 21.989083) rotate(156.022900) scale(5.741293 3.475051)"><ellipse fill="#93a97e" fill-opacity="0.501961" cx="0" cy="0" rx="1" ry="1" /></g>
<g transform="translate(128.544753 151.628276) rotate(356.151603) scale(1.000000 11.842260)"><ellipse fill="#001e60" fill-opacity="0.501961" cx="0" cy="0" rx="1" ry="1" /></g>
<g transform="translate(23.167800 169.000000) rotate(188.683782) scale(2.855051 15.125247)"><ellipse fill="#4b755e" fill-opacity="0.501961" cx="0" cy="0" rx="1" ry="1" /></g>
<g transform="translate(59.600785 161.920606) rotate(267.776534) scale(5.458784 19.828943)"><ellipse fill="#454c4d" fill-opacity="0.501961" cx="0" cy="0" rx="1" ry="1" /></g>
<g transform="translate(246.283182 95.627011) rotate(215.173691) scale(6.536281 1.968204)"><ellipse fill="#0fb181" fill-opacity="0.501961" cx="0" cy="0" rx="1" ry="1" /></g>
<g transform="translate(209.292229 95.884352) rotate(330.281461) scale(1.783713 27.267665)"><ellipse fill="#3d8a6c" fill-opacity="0.501961" cx="0" cy="0" rx="1" ry="1" /></g>
<g transform="translate(213.590210 72.092041) rotate(-1.051491) scale(6.766242 1.954668)"><ellipse fill="#e7d9d7" fill-opacity="0.501961" cx="0" cy="0" rx="1" ry="1" /></g>
<g transform="translate(168.681923 122.709143) rotate(194.681700) scale(11.458057 1.000000)"><ellipse fill="#0e7568" fill-opacity="0.501961" cx="0" cy="0" rx="1" ry="1" /></g>
<g transform="translate(56.743116 41.618049) rotate(239.849703) scale(18.891783 2.124984)"><ellipse fill="#909e9a" fill-opacity="0.501961" cx="0" cy="0" rx="1" ry="1" /></g>
<g transform="translate(199.328677 101.641272) rotate(113.372907) scale(12.346169 4.922096)"><ellipse fill="#79a38f" fill-opacity="0.501961" cx="0" cy="0" rx="1" ry="1" /></g>
<g transform="translate(160.222943 126.835907) rotate(325.252843) scale(4.933683 2.034700)"><ellipse fill="#bcccb6" fill-opacity="0.501961" cx="0" cy="0" rx="1" ry="1" /></g>
<g transform="translate(156.859801 1.416235) rotate(356.253322) scale(7.726322 2.328932)"><ellipse fill="#445849" fill-opacity="0.501961" cx="0" cy="0" rx="1" ry="1" /></g>
<g transform="translate(216.566486 150.424146) rotate(217.434252) scale(2.837602 3.413036)"><ellipse fill="#b9b9ac" fill-opacity="0.501961" cx="0" cy="0" rx="1" ry="1" /></g>
<g transform="translate(201.186537 143.642487) rotate(27.313884) scale(9.892716 1.690367)"><ellipse fill="#487a5e" fill-opacity="0.501961" cx="0" cy="0" rx="1" ry="1" /></g>
<g transform="translate(222.762082 135.172228) rotate(288.871450) scale(1.208091 12.963770)"><ellipse fill="#2a463c" fill-opacity="0.501961" cx="0" cy="0" rx="1" ry="1" /></g>
<g transform="translate(131.983414 22.788799) rotate(320.584651) scale(1.000000 14.057808)"><ellipse fill="#12599b" fill-opacity="0.501961" cx="0" cy="0" rx="1" ry="1" /></g>
<g transform="translate(220.736595 44.096548) rotate(107.192775) scale(19.664483 1.894339)"><ellipse fill="#75988d" fill-opacity="0.501961" cx="0" cy="0" rx="1" ry="1" /></g>
<g transform="translate(34.689420 14.676328) rotate(183.266851) scale(9.965242 4.582204)"><ellipse fill="#2f4843" fill-opacity="0.501961" cx="0" cy="0" rx="1" ry="1" /></g>
<g transform="translate(99.466095 71.696038) rotate(145.490376) scale(3.071021 2.231776)"><ellipse fill="#cdc2d2" fill-opacity="0.501961" cx="0" cy="0" rx="1" ry="1" /></g>
<g transform="translate(215.195942 165.574892) rotate(228.199946) scale(10.706732 2.369517)"><ellipse fill="#07543e" fill-opacity="0.501961" cx="0" cy="0" rx="1" ry="1" /></g>
<g transform="translate(83.249892 169.000000) rotate(301.631051) scale(11.782563 2.612851)"><ellipse fill="#277d62" fill-opacity="0.501961" cx="0" cy="0" rx="1" ry="1" /></g>
<g transform="translate(200.205990 150.213245) rotate(123.009488) scale(1.240679 7.813630)"><ellipse fill="#337154" fill-opacity="0.501961" cx="0" cy="0" rx="1" ry="1" /></g>
<g transform="translate(179.633406 92.356990) rotate(18.000191) scale(2.509733 10.728918)"><ellipse fill="#306c5b" fill-opacity="0.501961" cx="0" cy="0" rx="1" ry="1" /></g>
<g transform="translate(179.389377 70.311363) rotate(258.278976) scale(5.269489 2.742419)"><ellipse fill="#788881" fill-opacity="0.501961" cx="0" cy="0" rx="1" ry="1" /></g>
<g transform="translate(175.815904 105.251475) rotate(347.818733) scale(7.628469 2.125642)"><ellipse fill="#c6d9c2" fill-opacity="0.501961" cx="0" cy="0" rx="1" ry="1" /></g>
<g transform="translate(234.240864 142.305703) rotate(64.969727) scale(2.319811 9.590198)"><ellipse fill="#818b7c" fill-opacity="0.501961" cx="0" cy="0" rx="1" ry="1" /></g>
<g transform="translate(171.468166 23.937043) rotate(18.254740) scale(3.385162 21.432926)"><ellipse fill="#6f847d" fill-opacity="0.501961" cx="0" cy="0" rx="1" ry="1" /></g>
<g transform="translate(182.871798 38.070808) rotate(227.810284) scale(1.832367 9.453379)"><ellipse fill="#85c98c" fill-opacity="0.501961" cx="0" cy="0" rx="1" ry="1" /></g>
<g transform="translate(126.657299 54.478366) rotate(137.589081) scale(2.110006 4.674437)"><ellipse fill="#bebabb" fill-opacity="0.501961" cx="0" cy="0" rx="1" ry="1" /></g>
<g transform="translate(158.532096 75.491356) rotate(282.176555) scale(6.263319 1.798284)"><ellipse fill="#304d3f" fill-opacity="0.501961" cx="0" cy="0" rx="1" ry="1" /></g>
<g transform="translate(185.638722 17.283281) rotate(259.451409) scale(2.906482 5.262964)"><ellipse fill="#89ddbc" fill-opacity="0.501961" cx="0" cy="0" rx="1" ry="1" /></g>
<g transform="translate(240.670550 152.379661) rotate(340.779649) scale(26.301721 1.636369)"><ellipse fill="#3d6353" fill-opacity="0.501961" cx="0" cy="0" rx="1" ry="1" /></g>
<g transform="translate(67.763207 42.339506) rotate(-6.540673) scale(5.702410 3.437440)"><ellipse fill="#36615c" fill-opacity="0.501961" cx="0" cy="0" rx="1" ry="1" /></g>
<g transform="translate(31.384213 79.575153) rotate(48.733352) scale(26.004003 5.240541)"><ellipse fill="#66737a" fill-opacity="0.501961" cx="0" cy="0" rx="1" ry="1" /></g>
<g transform="translate(250.335764 120.315267) rotate(91.483078) scale(1.000000 15.094677)"><ellipse fill="#2a523a" fill-opacity="0.501961" cx="0" cy="0" rx="1" ry="1" /></g>
<g transform="translate(215.155823 80.631716) rotate(81.057579) scale(2.183237 6.147917)"><ellipse fill="#7ed1b8" fill-opacity="0.501961" cx="0" cy="0" rx="1" ry="1" /></g>
<g transform="translate(133.079076 57.819788) rotate(16.834579) scale(4.568372 7.589568)"><ellipse fill="#7b867c" fill-opacity="0.501961" cx="0" cy="0" rx="1" ry="1" /></g>
<g transform="translate(177.663191 166.792692) rotate(206.024091) scale(7.681090 6.144523)"><ellipse fill="#b1e3b7" fill-opacity="0.501961" cx="0" cy="0" rx="1" ry="1" /></g>
<g transform="translate(217.016938 121.297167) rotate(156.601094) scale(24.530322 1.438796)"><ellipse fill="#3e5948" fill-opacity="0.501961" cx="0" cy="0" rx="1" ry="1" /></g>
<g transform="translate(160.724637 108.996996) rotate(127.873033) scale(11.273346 2.946776)"><ellipse fill="#669a7a" fill-opacity="0.501961" cx="0" cy="0" rx="1" ry="1" /></g>
<g transform="translate(255.000000 102.502766) rotate(280.713819) scale(3.129125 7.455980)"><ellipse fill="#253935" fill-opacity="0.501961" cx="0" cy="0" rx="1" ry="1" /></g>
<g transform="translate(150.578741 50.901372) rotate(120.430981) scale(9.615639 3.828528)"><ellipse fill="#82c699" fill-opacity="0.501961" cx="0" cy="0" rx="1" ry="1" /></g>
<g transform="translate(139.989036 42.081083) rotate(315.831668) scale(2.993765 2.283381)"><ellipse fill="#091a36" fill-opacity="0.501961" cx="0" cy="0" rx="1" ry="1" /></g>
<g transform="translate(167.153276 95.578182) rotate(242.686135) scale(1.636104 9.040883)"><ellipse fill="#07a184" fill-opacity="0.501961" cx="0" cy="0" rx="1" ry="1" /></g>
<g transform="translate(150.260912 18.977645) rotate(139.624251) scale(13.991341 4.048374)"><ellipse fill="#5c755e" fill-opacity="0.501961" cx="0" cy="0" rx="1" ry="1" /></g>
<g transform="translate(47.025809 72.848256) rotate(144.606802) scale(7.784743 26.340374)"><ellipse fill="#294246" fill-opacity="0.501961" cx="0" cy="0" rx="1" ry="1" /></g>
</g>
</svg>