<svg height="680" width="1024" xmlns="http://www.w3.org/2000/svg"><path d="m0 0h1024v680h-1024z" fill="#4d7773"/><g fill-opacity=".501961"><ellipse fill="#97fbc3" rx="1" ry="1" transform="matrix(102.96757208 -100.98718752 78.12458984 79.65663304 679.086868 613.52224)"/><ellipse fill="#182e50" rx="1" ry="1" transform="matrix(329.25614256 -255.0061792 193.85364148 250.297865 159.202444 600.033208)"/><ellipse fill="#0047f3" rx="1" ry="1" transform="matrix(-.59761308 188.70226968 -56.21952608 -.17804516 472.45186 584.248768)"/><ellipse fill="#75b292" rx="1" ry="1" transform="matrix(116.80418116 -238.3802708 182.11204096 89.2332564 847.951308 236.459864)"/><ellipse fill="#74947d" rx="1" ry="1" transform="matrix(-77.74222516 17.34240308 -57.89744936 -259.54168644 318.81746 185.243452)"/><ellipse fill="#1b2820" rx="1" ry="1" transform="matrix(-13.89176092 52.28954424 -161.69299432 -42.95697068 2 32.382212)"/><ellipse fill="#000008" rx="1" ry="1" transform="matrix(-48.32733472 13.08021028 -10.9750186 -40.54930208 478.963376 360.837324)"/><ellipse fill="#23483e" rx="1" ry="1" transform="matrix(33.66737528 37.64840856 -57.64989152 51.55385328 708.715448 254.15498)"/><ellipse fill="#2f4034" rx="1" ry="1" transform="matrix(-126.41285632 -224.867243 176.19754364 -99.05237628 173.675204 678)"/><ellipse fill="#81aeaf" rx="1" ry="1" transform="matrix(-15.90015696 37.2027048 -123.4547056 -52.76361512 529.507728 187.187988)"/><ellipse fill="#000b71" rx="1" ry="1" transform="matrix(-42.87569984 197.14922788 -25.35916376 -5.51507052 402.833828 591.452564)"/><ellipse fill="#1c4061" rx="1" ry="1" transform="matrix(-28.51640736 48.74164692 -84.98464184 -49.720451 413.532364 225.198608)"/><ellipse fill="#898380" rx="1" ry="1" transform="matrix(17.94627456 -25.02023148 90.1048492 64.62955244 112.176024 323.660896)"/><ellipse fill="#b6e2e4" rx="1" ry="1" transform="matrix(-46.2871372 -18.52136868 11.22773044 -28.0594544 991.850276 191.072596)"/><ellipse fill="#00185e" rx="1" ry="1" transform="matrix(44.83880148 64.62067032 -14.30033916 9.92267744 542.465984 139.160676)"/><ellipse fill="#e7cdd0" rx="1" ry="1" transform="matrix(-57.50555492 41.36261492 -4.85213608 -6.74582052 403.307052 310.236776)"/><ellipse fill="#adc28a" rx="1" ry="1" transform="matrix(-23.48296108 -22.28110672 64.26382716 -67.73025108 2 160.245752)"/><ellipse fill="#0171e2" rx="1" ry="1" transform="matrix(33.24398888 12.85001676 -33.13124664 85.71310192 473.235644 471.348508)"/><ellipse fill="#314943" rx="1" ry="1" transform="matrix(160.43576412 105.8553672 -29.87082888 45.27261472 218.211348 301.688432)"/><ellipse fill="#678f6e" rx="1" ry="1" transform="matrix(-49.81313912 3.14973136 -6.08291016 -96.2014898 343.907616 481.5163)"/><ellipse fill="#769d8d" rx="1" ry="1" transform="matrix(-42.50208128 -140.80799468 78.0250494 -23.55141128 240.407596 108.864072)"/><ellipse fill="#43a68b" rx="1" ry="1" transform="matrix(64.3327542 15.1179008 -28.63459152 121.85171484 591.53524 572.99828)"/><ellipse fill="#77b391" rx="1" ry="1" transform="matrix(52.59976056 -13.85173632 34.31248568 130.2961948 559.343788 2)"/><ellipse fill="#bcd6f1" rx="1" ry="1" transform="matrix(42.46092512 -3.55172972 2.14341292 25.6244992 855.032032 300.894116)"/><ellipse fill="#9fe2b6" rx="1" ry="1" transform="matrix(-19.32526056 43.79254132 -80.73203468 -35.62633176 706.902088 646.7519)"/><ellipse fill="#afdbc2" rx="1" ry="1" transform="matrix(3.52053664 -16.16156588 94.3485874 20.552319 782.813688 436.643016)"/><ellipse fill="#7bc7bb" rx="1" ry="1" transform="matrix(-3.65458676 -82.9272306 41.67355952 -1.8365456 775.972436 133.32672)"/><ellipse fill="#79c4be" rx="1" ry="1" transform="matrix(-49.5022852 4.342669 -2.47842 -28.25162464 951.644504 507.745488)"/><ellipse fill="#4a745d" rx="1" ry="1" transform="matrix(-49.96181628 21.91988408 -43.63545724 -99.45794828 865.99262 168.243588)"/><ellipse fill="#77bfa0" rx="1" ry="1" transform="matrix(-25.01505672 74.83275824 -104.17125088 -34.82231328 896.104872 8.966548)"/><ellipse fill="#04715a" rx="1" ry="1" transform="matrix(.92392744 21.1408082 -73.85584544 3.22775932 698.74162 480.788364)"/><ellipse fill="#000b26" rx="1" ry="1" transform="matrix(21.13750576 19.54640936 -49.275893 53.28699776 476.340688 369.077424)"/><ellipse fill="#28444f" rx="1" ry="1" transform="matrix(-16.76938836 -69.13978488 29.40950124 -7.13307612 569.204992 279.460916)"/><ellipse fill="#80bc98" rx="1" ry="1" transform="matrix(-76.20300996 .21312668 -.10270924 -36.72348436 383.810084 125.383492)"/><ellipse fill="#4c6252" rx="1" ry="1" transform="matrix(-64.54233376 -33.3422438 27.67194228 -53.56603308 658.504968 113.219804)"/><ellipse fill="#a6a0b7" rx="1" ry="1" transform="matrix(-8.33074424 66.3275482 -19.10007408 -2.39897052 504.823412 242.382912)"/><ellipse fill="#92c8d9" rx="1" ry="1" transform="matrix(7.72631056 26.52053724 -36.20566628 10.54790932 680.31804 345.745696)"/><ellipse fill="#000006" rx="1" ry="1" transform="matrix(-231.96363236 160.63965352 -21.06082532 -30.4118282 28.636692 2)"/><ellipse fill="#00532d" rx="1" ry="1" transform="matrix(-15.13580948 -10.35213876 53.5583212 -78.30734928 857.06746 673.521528)"/><ellipse fill="#8fbcab" rx="1" ry="1" transform="matrix(5.36361388 -17.53587736 160.56194848 49.1103056 673.804952 510.314272)"/><ellipse fill="#374e4a" rx="1" ry="1" transform="matrix(21.63036956 32.2795832 -49.43142944 33.12372648 356.931028 47.52934)"/><ellipse fill="#00000e" rx="1" ry="1" transform="matrix(-13.69324868 26.85769584 -14.38865704 -7.33597776 479.410728 278.339592)"/><ellipse fill="#83d3bf" rx="1" ry="1" transform="matrix(-65.02716692 17.90786512 -7.23430008 -26.26924184 176.617528 2)"/><ellipse fill="#92ada4" rx="1" ry="1" transform="matrix(-1.35746096 -29.69918944 60.178928 -2.75059848 368.532968 309.103036)"/><ellipse fill="#3a7560" rx="1" ry="1" transform="matrix(-16.97007276 3.20545152 -24.76069436 -131.08630164 759.887036 402.336252)"/><ellipse fill="#002879" rx="1" ry="1" transform="matrix(-3.71142244 -142.95450564 39.11835456 -1.015601 418.150464 619.377292)"/><ellipse fill="#044036" rx="1" ry="1" transform="matrix(-40.86702256 9.8397304 -3.09147724 -12.83972884 558.333328 536.312616)"/><ellipse fill="#87d1c5" rx="1" ry="1" transform="matrix(-30.30242852 -17.86826948 17.6660912 -29.9595586 615.35144 216.488244)"/><ellipse fill="#68c7d2" rx="1" ry="1" transform="matrix(15.53965956 26.93129452 -32.76040752 18.90312324 1011.710964 360.586376)"/><ellipse fill="#265d45" rx="1" ry="1" transform="matrix(-107.11802064 -93.39072544 10.20180472 -11.70134532 871.98406 570.113376)"/><ellipse fill="#44695a" rx="1" ry="1" transform="matrix(79.7175324 -115.76358016 23.57331964 16.23314404 337.912276 220.411644)"/><ellipse fill="#465c4e" rx="1" ry="1" transform="matrix(-1.50767068 -123.98809384 95.09806164 -1.1563736 23.2931 421.352856)"/><ellipse fill="#1b6bd7" rx="1" ry="1" transform="matrix(.0242804 15.498709 -58.08602472 .09099808 462.226416 235.190684)"/><ellipse fill="#98dac7" rx="1" ry="1" transform="matrix(33.02055988 2.18904556 -1.69556716 25.57670716 263.193992 216.397696)"/><ellipse fill="#fffee5" rx="1" ry="1" transform="matrix(-5.7920916 -3.7422004 14.672077 -22.70910288 496.031424 295.632328)"/><ellipse fill="#445150" rx="1" ry="1" transform="matrix(7.81842052 32.24507536 -217.17559824 52.65827824 26.14832 232.2592)"/><ellipse fill="#363a3c" rx="1" ry="1" transform="matrix(-28.01544932 40.80014772 -13.85738964 -9.51518608 842.759396 204.303912)"/><ellipse fill="#3e625e" rx="1" ry="1" transform="matrix(-113.28737656 -11.9265684 3.20762036 -30.46835276 142.049848 66.968468)"/><ellipse fill="#86bda3" rx="1" ry="1" transform="matrix(-48.54211328 27.90233332 -9.18143804 -15.97308728 159.500248 137.218264)"/><ellipse fill="#13181a" rx="1" ry="1" transform="matrix(-72.38231784 99.54787244 -16.98993052 -12.35355936 6.904232 658.78518)"/><ellipse fill="#44908a" rx="1" ry="1" transform="matrix(-58.59053172 17.37483256 -6.21669992 -20.96364112 309.331436 557.419244)"/><ellipse fill="#8ac7b6" rx="1" ry="1" transform="matrix(-1.9930184 -14.53894896 138.28836288 -18.95675204 826.2077 69.093336)"/><ellipse fill="#a49e8a" rx="1" ry="1" transform="matrix(17.72791472 -20.02535344 31.41266992 27.8088042 1021.160772 597.240636)"/><ellipse fill="#447760" rx="1" ry="1" transform="matrix(-239.97244748 -1.1510442 .07507076 -15.65093596 885.156816 119.65846)"/><ellipse fill="#67a080" rx="1" ry="1" transform="matrix(-12.29738588 106.1687982 -16.8175296 -1.94795132 539.173544 426.262804)"/><ellipse fill="#cdb7c3" rx="1" ry="1" transform="matrix(-19.97499804 34.21233632 -9.91104112 -5.78659772 379.68834 321.284628)"/><ellipse fill="#24675a" rx="1" ry="1" transform="matrix(94.10909884 -14.98266896 2.94587596 18.50362784 664.55012 384.776184)"/><ellipse fill="#219474" rx="1" ry="1" transform="matrix(9.92285364 2.63084128 -36.33726296 137.05476896 626.591816 500.39518)"/><ellipse fill="#9bcca6" rx="1" ry="1" transform="matrix(-6.69434088 71.38774824 -20.46029676 -1.91865136 273.685572 10.52308)"/><ellipse fill="#c6d7d6" rx="1" ry="1" transform="matrix(-8.20817464 13.67363424 -18.89900968 -11.34492624 797.289988 155.949424)"/><ellipse fill="#f2d2cc" rx="1" ry="1" transform="matrix(14.11977756 -4.17117832 4.25267648 14.39565548 972.198796 505.045548)"/><ellipse fill="#003dd2" rx="1" ry="1" transform="matrix(18.21669904 .27562024 -.17111048 11.3092856 936.655832 518.578916)"/><ellipse fill="#00000e" rx="1" ry="1" transform="matrix(4.26116928 16.92244744 -24.6408548 6.20470852 434.892772 340.625116)"/><ellipse fill="#7fa879" rx="1" ry="1" transform="matrix(-34.11553276 13.2261044 -46.2362208 -119.26212404 801.0034 668.386368)"/><ellipse fill="#377054" rx="1" ry="1" transform="matrix(-4.96307944 13.10123424 -121.88711364 -46.17392652 947.928716 381.753256)"/><ellipse fill="#87c7ba" rx="1" ry="1" transform="matrix(-50.15076512 1.84337916 -1.21556704 -33.0705794 823.593932 456.918412)"/><ellipse fill="#abc5dc" rx="1" ry="1" transform="matrix(21.12167436 -20.20946764 16.53959208 17.28614944 713.5793 433.912656)"/><ellipse fill="#358283" rx="1" ry="1" transform="matrix(63.67820788 -8.18040084 2.70592504 21.06357132 299.884708 313.268996)"/><ellipse fill="#4a906b" rx="1" ry="1" transform="matrix(2.3333654 13.71063964 -109.83052632 18.69166988 881.071372 27.547244)"/><ellipse fill="#cfdcb7" rx="1" ry="1" transform="matrix(19.71546168 10.6108652 -3.14633008 5.84602188 865.226408 603.921572)"/><ellipse fill="#85997c" rx="1" ry="1" transform="matrix(-5.43541696 20.80546612 -114.3716966 -29.87954488 986.8899 446.442316)"/><ellipse fill="#779676" rx="1" ry="1" transform="matrix(-183.40072788 106.999906 -14.8919202 -25.52515328 955.461116 338.97616)"/><ellipse fill="#00329a" rx="1" ry="1" transform="matrix(17.01233756 -.03219016 .21358112 112.87650992 509.616512 657.206832)"/><ellipse fill="#ddb9a6" rx="1" ry="1" transform="matrix(4.87411296 25.8009096 -13.70702456 2.58942756 939.05472 677.607816)"/><ellipse fill="#66887b" rx="1" ry="1" transform="matrix(5.44899704 -15.1403392 50.15912488 18.05223248 37.311264 428.574048)"/><ellipse fill="#758772" rx="1" ry="1" transform="matrix(-121.17289724 112.367047 -19.31642892 -20.8301964 953.58512 138.00678)"/><ellipse fill="#1a71e1" rx="1" ry="1" transform="matrix(-16.76548872 .66590508 -4.19082704 -105.51242948 487.665252 494.031628)"/><ellipse fill="#476458" rx="1" ry="1" transform="matrix(9.9512118 22.93035968 -159.56692676 69.24811944 695.038364 261.098372)"/><ellipse fill="#003873" rx="1" ry="1" transform="matrix(-8.1914868 -19.69767704 38.20531532 -15.88808344 422.3013 258.17282)"/><ellipse fill="#2b6448" rx="1" ry="1" transform="matrix(44.38744728 -53.9118426 8.18478652 6.73881216 836.736552 555.245052)"/><ellipse fill="#1d3638" rx="1" ry="1" transform="matrix(-68.35173356 -105.40975676 14.18676072 -9.19924036 218.957764 318.802264)"/><ellipse fill="#3a8db0" rx="1" ry="1" transform="matrix(61.93162396 179.59125428 -8.34117464 2.87643456 553.11262 100.399008)"/><ellipse fill="#a4ceb0" rx="1" ry="1" transform="matrix(-30.66253788 44.59352284 -19.2670896 -13.24806444 735.763796 538.048716)"/><ellipse fill="#486c6d" rx="1" ry="1" transform="matrix(-20.06500176 14.22319592 -28.53335676 -40.252687 265.081952 143.313596)"/><ellipse fill="#85c4c1" rx="1" ry="1" transform="matrix(-7.88651212 -18.49870688 34.18080424 -14.5722254 344.628272 129.502996)"/><ellipse fill="#282d33" rx="1" ry="1" transform="matrix(-35.94382628 -30.18249308 75.68127392 -90.12756356 157.873 678)"/><ellipse fill="#416a4d" rx="1" ry="1" transform="matrix(-118.76217576 37.04682336 -2.20596508 -7.07173224 846.41614 501.841988)"/><ellipse fill="#83c7cc" rx="1" ry="1" transform="matrix(-.22411944 -16.8368524 39.94008968 -.53165224 524.438712 2)"/><ellipse fill="#436f59" rx="1" ry="1" transform="matrix(-47.75535068 40.33147704 -10.97424832 -12.99429416 856.573568 358.840552)"/><ellipse fill="#76887c" rx="1" ry="1" transform="matrix(16.27525252 2.12968356 -18.29702916 139.82770844 685.497612 56.6638)"/><ellipse fill="#8ec9bb" rx="1" ry="1" transform="matrix(7.25215052 -17.64502596 39.54916636 16.25480796 456.465096 141.29092)"/><ellipse fill="#243931" rx="1" ry="1" transform="matrix(-12.20781468 -19.15690968 24.05705156 -15.330449 402.121124 209.630984)"/><ellipse fill="#fffff9" rx="1" ry="1" transform="matrix(23.47889676 -12.89968164 1.92610296 3.5057278 484.124404 311.76816)"/><ellipse fill="#0049c2" rx="1" ry="1" transform="matrix(13.07680768 .45301112 -.93459776 26.97848852 910.08648 678)"/><ellipse fill="#00348b" rx="1" ry="1" transform="matrix(-12.85698964 92.56549632 -6.3750912 -.88547552 520.189564 387.280088)"/><ellipse fill="#619377" rx="1" ry="1" transform="matrix(39.74938988 -25.29030776 14.57909192 22.91431224 317.271944 424.069492)"/><ellipse fill="#6faa90" rx="1" ry="1" transform="matrix(-4.04265136 -14.32592832 111.3042122 -31.40907268 588.326844 52.2231)"/><ellipse fill="#304c3c" rx="1" ry="1" transform="matrix(33.90862788 -.317257 .2087504 22.31137148 1022 485.620508)"/><ellipse fill="#68c1a4" rx="1" ry="1" transform="matrix(5.70157776 7.01782872 -130.14205516 105.73285228 879.707996 116.930244)"/><ellipse fill="#dad4d1" rx="1" ry="1" transform="matrix(-2.96937156 -2.68008072 34.15185032 -37.83823848 432.19654 292.011564)"/><ellipse fill="#ddd7d0" rx="1" ry="1" transform="matrix(1.82441344 -12.36153052 26.7011218 3.94076488 828.506096 451.958436)"/><ellipse fill="#2b3d3c" rx="1" ry="1" transform="matrix(29.06145692 46.045741 -52.7835802 33.3139984 2 359.11438)"/><ellipse fill="#256453" rx="1" ry="1" transform="matrix(-53.53972732 -6.66356432 1.8229896 -14.64717116 502.206316 41.541444)"/><ellipse fill="#000821" rx="1" ry="1" transform="matrix(26.59157524 22.49225184 -6.62608244 7.83371852 529.457868 117.212512)"/><ellipse fill="#00284f" rx="1" ry="1" transform="matrix(12.31447984 32.91134028 -8.2695318 3.09422168 414.481072 265.144208)"/><ellipse fill="#c8e7dd" rx="1" ry="1" transform="matrix(32.36216944 -13.25489212 4.05792732 9.90753676 1006.744744 184.351352)"/><ellipse fill="#d2d6cc" rx="1" ry="1" transform="matrix(-4.20935012 62.88423052 -3.9910686 -.26715448 510.989004 242.21398)"/><ellipse fill="#3f5a56" rx="1" ry="1" transform="matrix(-15.82914868 7.12413872 -59.10561212 -131.32696584 696.183476 160.875916)"/><ellipse fill="#68806f" rx="1" ry="1" transform="matrix(7.6844246 29.51004372 -20.43734896 5.32189204 415.584724 385.856224)"/><ellipse fill="#bfcaa8" rx="1" ry="1" transform="matrix(-.0818796 -10.78256112 45.27039876 -.34377016 784.720236 545.895112)"/><ellipse fill="#3c513e" rx="1" ry="1" transform="matrix(-6.86028092 -7.54571872 50.28075004 -45.7133488 1001.163996 426.91598)"/><ellipse fill="#243937" rx="1" ry="1" transform="matrix(8.76673172 15.3469624 -50.72937996 28.97842928 283.84548 520.335712)"/><ellipse fill="#768180" rx="1" ry="1" transform="matrix(110.1997462 43.89186064 -5.55095496 13.93683972 80.423396 296.084908)"/><ellipse fill="#145d74" rx="1" ry="1" transform="matrix(-27.52430804 38.58890324 -8.67518244 -6.18774764 807.594664 495.385352)"/><ellipse fill="#527663" rx="1" ry="1" transform="matrix(18.94118904 25.53864356 -45.98883908 34.10844016 767.412704 337.657212)"/><ellipse fill="#3d614a" rx="1" ry="1" transform="matrix(-1.40049348 -10.18501928 173.15773924 -23.81009596 978.920756 546.033448)"/><ellipse fill="#39c0bf" rx="1" ry="1" transform="matrix(32.35816068 -1.786071 .77508192 14.0421212 985.559664 227.276816)"/><ellipse fill="#c1e1bb" rx="1" ry="1" transform="matrix(-58.78474056 -6.67954096 .87128484 -7.66792996 834.18514 284.45854)"/><ellipse fill="#001a34" rx="1" ry="1" transform="matrix(-19.48006812 1.62196288 -5.69126148 -68.35308236 453.556632 354.532444)"/><ellipse fill="#0c5c4a" rx="1" ry="1" transform="matrix(1.8810462 -10.87779376 47.48885244 8.212026 578.606832 530.16386)"/><ellipse fill="#0046ac" rx="1" ry="1" transform="matrix(-81.16505936 -215.11325052 27.79932892 -10.48905252 499.334268 674.410556)"/><ellipse fill="#b3bed8" rx="1" ry="1" transform="matrix(7.55669128 15.30617952 -25.99576128 12.83415904 783.1035 77.99074)"/><ellipse fill="#5dc2a6" rx="1" ry="1" transform="matrix(-14.785336 -21.08410696 86.98624636 -60.99954256 618.365524 611.19208)"/><ellipse fill="#49c1a7" rx="1" ry="1" transform="matrix(14.03024336 1.5090088 -4.89801104 45.54001704 677.322612 405.300316)"/><ellipse fill="#787169" rx="1" ry="1" transform="matrix(19.09437828 44.0583786 -23.16527664 10.03955592 530.734004 177.671432)"/><ellipse fill="#5162c9" rx="1" ry="1" transform="matrix(1.6898842 12.12365228 -22.813621 3.17993096 851.275552 310.866216)"/><ellipse fill="#00214f" rx="1" ry="1" transform="matrix(-14.36108436 -2.03076232 10.12322964 -71.58915336 514.573424 345.561464)"/><ellipse fill="#a2afc9" rx="1" ry="1" transform="matrix(-19.08277948 -8.08241316 8.2590544 -19.49983392 594.524664 488.296264)"/><ellipse fill="#38cfa2" rx="1" ry="1" transform="matrix(-39.56295344 25.94255932 -5.22826956 -7.973222 635.310148 241.875692)"/><ellipse fill="#5d5ae5" rx="1" ry="1" transform="matrix(-27.75463372 -5.109386 3.07400056 -16.69824112 1022 368.380772)"/><ellipse fill="#9fcfa4" rx="1" ry="1" transform="matrix(-46.91917068 106.61572304 -38.60177908 -16.98777076 730.188104 678)"/><ellipse fill="#0057d9" rx="1" ry="1" transform="matrix(8.3144948 -3.0782048 9.61640152 25.97472424 572.751312 160.879052)"/><ellipse fill="#3775c6" rx="1" ry="1" transform="matrix(-3.88262696 14.16524652 -33.76453636 -9.2546994 474.99294 224.207456)"/><ellipse fill="#007264" rx="1" ry="1" transform="matrix(-6.97777772 -2.80238788 8.50874368 -21.18626132 654.968532 545.335068)"/><ellipse fill="#094d39" rx="1" ry="1" transform="matrix(-3.93100044 -16.45822888 30.79382784 -7.35501688 854.900076 656.663776)"/><ellipse fill="#649270" rx="1" ry="1" transform="matrix(12.21038328 -48.20384484 25.4751258 6.453034 356.763616 284.592628)"/><ellipse fill="#8dc4a1" rx="1" ry="1" transform="matrix(-2.76628576 17.70631212 -82.24703152 -12.84958676 1022 338.877656)"/><ellipse fill="#a2b4c6" rx="1" ry="1" transform="matrix(-1.78043044 -19.16219256 34.35688592 -3.19222576 628.473944 221.181332)"/><ellipse fill="#323c39" rx="1" ry="1" transform="matrix(-54.61892884 38.58322628 -16.10154304 -22.79355872 258.425256 397.467036)"/><ellipse fill="#00184f" rx="1" ry="1" transform="matrix(30.84574556 -144.41599272 8.31149508 1.7752484 375.244172 625.380924)"/><ellipse fill="#637467" rx="1" ry="1" transform="matrix(71.6492078 -49.36966292 15.40799832 22.36132088 1022 257.41662)"/><ellipse fill="#beb4ad" rx="1" ry="1" transform="matrix(8.95141736 3.03049936 -12.31034804 36.36201512 990.973504 25.05376)"/><ellipse fill="#0c1e32" rx="1" ry="1" transform="matrix(-6.65822576 5.21722096 -23.03584412 -29.39838124 549.346276 147.166416)"/><ellipse fill="#029978" rx="1" ry="1" transform="matrix(1.63905684 3.64876592 -93.49219736 41.99749488 656.589788 489.602588)"/><ellipse fill="#5b9378" rx="1" ry="1" transform="matrix(-18.34494064 10.77036624 -38.10275224 -64.89962468 778.227556 242.854036)"/><ellipse fill="#001c0c" rx="1" ry="1" transform="matrix(10.57590384 4.91360824 -3.14948812 6.77886428 970.38396 678)"/><ellipse fill="#3f7b5d" rx="1" ry="1" transform="matrix(-14.81004532 -30.43712276 25.18957428 -12.2567018 552.44804 576.94856)"/><ellipse fill="#dcdbcd" rx="1" ry="1" transform="matrix(-11.02978136 1.96521412 -2.65993752 -14.92892228 676.853172 519.749344)"/><ellipse fill="#247f7b" rx="1" ry="1" transform="matrix(5.28156628 -12.27947868 24.90045672 10.71001596 231.953932 472.478592)"/><ellipse fill="#cfcad8" rx="1" ry="1" transform="matrix(-4.55878424 -3.51925184 22.964185 -29.74744904 386.130572 310.243028)"/><ellipse fill="#88a58e" rx="1" ry="1" transform="matrix(-6.68844824 -30.86524144 22.10865952 -4.790911 426.005156 2)"/><ellipse fill="#29a78b" rx="1" ry="1" transform="matrix(61.08725904 30.90867552 -4.65783052 9.20563868 755.352288 110.980688)"/><ellipse fill="#020b1c" rx="1" ry="1" transform="matrix(.51132708 -6.17970172 54.13238996 4.4790766 433.729328 342.668304)"/><ellipse fill="#e8f2eb" rx="1" ry="1" transform="matrix(4.73726712 -30.76900356 3.95341776 .60867736 505.794576 276.540548)"/><ellipse fill="#2c4844" rx="1" ry="1" transform="matrix(38.9735658 -57.42898696 11.45350568 7.77279872 697.322712 236.30034)"/><ellipse fill="#000913" rx="1" ry="1" transform="matrix(48.99673656 -44.49818588 9.50794848 10.46915592 478.8927 367.348596)"/><ellipse fill="#6db487" rx="1" ry="1" transform="matrix(9.59969192 -.5947796 4.6023222 74.28108876 536.623896 632.286848)"/><ellipse fill="#6f9773" rx="1" ry="1" transform="matrix(-89.87281208 32.76592916 -4.0336746 -11.06386076 917.560084 488.251444)"/><ellipse fill="#49906f" rx="1" ry="1" transform="matrix(-32.970267 -29.36833432 17.69565012 -19.86596528 936.603592 17.727992)"/><ellipse fill="#435849" rx="1" ry="1" transform="matrix(17.29820284 -15.7861294 20.60704268 22.580887 735.557276 21.84612)"/><ellipse fill="#58785e" rx="1" ry="1" transform="matrix(22.0031402 -2.08891944 5.94440348 62.61397204 76.03572 90.044632)"/><ellipse fill="#2f3e3a" rx="1" ry="1" transform="matrix(-11.0033368 9.99686252 -29.81694332 -32.81888384 395.2487 419.402668)"/><ellipse fill="#2e7155" rx="1" ry="1" transform="matrix(29.97408492 -48.95956852 6.47478924 3.96400312 725.707372 484.50832)"/><ellipse fill="#4d7365" rx="1" ry="1" transform="matrix(29.12287064 -100.6106246 12.40975944 3.59214368 53.987404 491.246444)"/><ellipse fill="#008db9" rx="1" ry="1" transform="matrix(8.71618692 1.4499222 -3.74867372 22.535099 580.343268 241.523176)"/><ellipse fill="#4e765d" rx="1" ry="1" transform="matrix(81.17769736 -147.5594718 11.77298012 6.4767338 1022 27.825112)"/><ellipse fill="#0027af" rx="1" ry="1" transform="matrix(-9.33662472 -1.98845088 2.29978008 -10.79844796 951.957352 518.780132)"/><ellipse fill="#1f7be1" rx="1" ry="1" transform="matrix(17.60295824 -1.45416768 5.00708808 60.61169168 475.287928 461.565952)"/><ellipse fill="#545e60" rx="1" ry="1" transform="matrix(26.44725148 -36.85015924 42.90845096 30.79526972 184.715676 391.1585)"/><ellipse fill="#317967" rx="1" ry="1" transform="matrix(-.0760914 8.48047064 -19.11667852 -.1715252 754.961928 564.460636)"/><ellipse fill="#8ac184" rx="1" ry="1" transform="matrix(-6.08372416 13.49118528 -11.11729052 -5.01323848 611.874172 114.312396)"/><ellipse fill="#20393a" rx="1" ry="1" transform="matrix(9.37133612 -15.60856092 60.71669136 36.454131 148.20294 438.339764)"/><ellipse fill="#4a6c67" rx="1" ry="1" transform="matrix(-6.50787148 -46.33988368 23.94038332 -3.36213484 227.076928 77.603116)"/><ellipse fill="#808382" rx="1" ry="1" transform="matrix(-11.6014732 9.8147574 -31.1188048 -36.7837906 370.509316 435.688568)"/><ellipse fill="#425055" rx="1" ry="1" transform="matrix(-65.95298792 -48.54627548 32.37564916 -43.9842352 155.569516 521.58162)"/><ellipse fill="#6a7b65" rx="1" ry="1" transform="matrix(-19.15524788 22.55910628 -49.88783136 -42.36044476 963.586256 603.795636)"/><ellipse fill="#76ced5" rx="1" ry="1" transform="matrix(2.94538756 19.2226964 -32.22292972 4.93734148 847.510124 2)"/><ellipse fill="#1dc99c" rx="1" ry="1" transform="matrix(-1.70837272 10.70640604 -19.11599216 -3.05025228 828.298536 335.477968)"/><ellipse fill="#91cabc" rx="1" ry="1" transform="matrix(-51.77135388 145.73328516 -3.7692254 -1.33900708 601.43542 641.471564)"/><ellipse fill="#e6d3ce" rx="1" ry="1" transform="matrix(19.98093192 -7.24715336 2.69308556 7.42503388 677.63842 334.650884)"/><ellipse fill="#838f88" rx="1" ry="1" transform="matrix(1.36667756 -93.0112798 4.83842572 .07109424 611.417184 360.893044)"/><ellipse fill="#00b087" rx="1" ry="1" transform="matrix(9.76628152 .3526954 -.71185612 19.71159036 787.793472 491.565244)"/><ellipse fill="#2f9f7c" rx="1" ry="1" transform="matrix(10.53684324 -7.17108352 60.444277 88.81389688 772.251096 2)"/><ellipse fill="#185357" rx="1" ry="1" transform="matrix(-10.39644448 21.65589808 -15.47187848 -7.42765432 713.279736 116.924828)"/><ellipse fill="#1e544f" rx="1" ry="1" transform="matrix(21.71963092 -4.15388784 5.20268156 27.20350852 633.421696 384.30092)"/><ellipse fill="#68a47d" rx="1" ry="1" transform="matrix(-12.81534112 -5.9013704 17.74701952 -38.53920248 352.748724 532.035956)"/><ellipse fill="#3c5152" rx="1" ry="1" transform="matrix(-28.5921784 64.13855952 -13.90783096 -6.19993944 316.593428 247.908924)"/><ellipse fill="#1449ba" rx="1" ry="1" transform="matrix(1.56637456 6.38943012 -12.88409216 3.15854684 702.815064 441.84808)"/><ellipse fill="#ddc3c6" rx="1" ry="1" transform="matrix(-17.32228808 -.12345348 .06586132 -9.24128532 758.940108 511.946564)"/><ellipse fill="#9be4cf" rx="1" ry="1" transform="matrix(-7.14235204 63.80327924 -8.16497636 -.91401472 634.763012 666.282296)"/><ellipse fill="#77a383" rx="1" ry="1" transform="matrix(95.15015152 -55.79126928 4.2121976 7.18376268 801.85376 655.905328)"/><ellipse fill="#3e4f42" rx="1" ry="1" transform="matrix(-44.42150568 -46.63178788 7.65183568 -7.28914924 1022 669.441888)"/><ellipse fill="#838581" rx="1" ry="1" transform="matrix(24.16896508 -72.17110728 9.252892 3.09864756 768.284788 300.349632)"/><ellipse fill="#86a192" rx="1" ry="1" transform="matrix(24.8968914 -21.59785576 25.42820468 29.3123196 887.649044 399.163344)"/><ellipse fill="#0c4f3b" rx="1" ry="1" transform="matrix(20.60821412 -8.37901652 7.1876918 17.67814772 801.644384 510.463972)"/><ellipse fill="#48949d" rx="1" ry="1" transform="matrix(41.81127744 -7.22228184 3.08712456 17.87200012 105.877728 154.153056)"/><ellipse fill="#3e544f" rx="1" ry="1" transform="matrix(13.98428368 -16.3559096 33.2646178 28.44120952 355.7156 467.684364)"/><ellipse fill="#7e73c9" rx="1" ry="1" transform="matrix(1.08253712 8.46318252 -27.37834388 3.502001 1000.35922 208.590024)"/><ellipse fill="#2b5547" rx="1" ry="1" transform="matrix(-27.56539936 2.3391814 -1.44484772 -17.02638556 741.581792 474.871996)"/><ellipse fill="#42555c" rx="1" ry="1" transform="matrix(43.248056 -44.61310436 10.1710668 9.85985784 325.122504 73.816504)"/><ellipse fill="#365249" rx="1" ry="1" transform="matrix(-7.82155672 17.92704612 -17.16659012 -7.48977036 845.600908 102.6716)"/><ellipse fill="#161e25" rx="1" ry="1" transform="matrix(-73.6392242 -11.38295408 2.08974684 -13.51910372 185.11532 678)"/><ellipse fill="#5d5996" rx="1" ry="1" transform="matrix(14.1141598 -7.63638776 4.91699456 9.08796788 579.206164 499.68122)"/><ellipse fill="#4cbb96" rx="1" ry="1" transform="matrix(13.6490222 19.53225152 -9.65472744 6.7466666 475.335832 75.205972)"/><ellipse fill="#78a68a" rx="1" ry="1" transform="matrix(-27.2378478 12.31666284 -10.50773732 -23.23747544 274.306324 246.659608)"/><ellipse fill="#394e4d" rx="1" ry="1" transform="matrix(-7.08300876 -68.80412632 14.81943788 -1.52558012 587.049332 345.5486)"/><ellipse fill="#ada8a6" rx="1" ry="1" transform="matrix(37.754763 -25.47402576 5.03710484 7.46543564 1022 444.158012)"/><ellipse fill="#9fc1c2" rx="1" ry="1" transform="matrix(28.7915448 .03654484 -.02384984 18.78988088 923.14518 70.753568)"/><ellipse fill="#a39293" rx="1" ry="1" transform="matrix(27.63566504 15.67259924 -4.18340728 7.37664768 401.532116 316.462896)"/><ellipse fill="#a3ca9f" rx="1" ry="1" transform="matrix(-3.25339788 -8.64249088 57.02772592 -21.46763996 769.947168 577.706112)"/><ellipse fill="#b4d9ce" rx="1" ry="1" transform="matrix(6.2914042 -35.03130288 6.13967544 1.10264752 679.607504 539.32788)"/><ellipse fill="#417b71" rx="1" ry="1" transform="matrix(38.68805656 3.21955012 -1.30769316 15.71402996 123.71892 33.473288)"/><ellipse fill="#ded5ce" rx="1" ry="1" transform="matrix(11.33988988 15.8125388 -11.04912544 7.92382976 841.614256 454.960216)"/><ellipse fill="#537a90" rx="1" ry="1" transform="matrix(.885885 7.77333108 -101.55734512 11.57394796 542.290664 240.734532)"/><ellipse fill="#6b8c6e" rx="1" ry="1" transform="matrix(4.59169796 16.07009332 -32.41567368 9.26211068 348.011092 178.839668)"/><ellipse fill="#6456bc" rx="1" ry="1" transform="matrix(3.8252266 8.24196676 -19.7322922 9.1580676 681.788468 350.583328)"/><ellipse fill="#bdc0bc" rx="1" ry="1" transform="matrix(-33.09114324 40.93193956 -3.11062284 -2.51476152 443.620444 282.525464)"/><ellipse fill="#6eba96" rx="1" ry="1" transform="matrix(-10.7505734 -3.76862868 12.2265108 -34.87793936 540.453864 393.077776)"/><ellipse fill="#4d4451" rx="1" ry="1" transform="matrix(-21.14783104 14.12548104 -2.221732 -3.32624516 409.021216 302.030732)"/><ellipse fill="#235a51" rx="1" ry="1" transform="matrix(7.67104836 -8.70618828 24.07598212 21.2134194 466.9211 102.765876)"/><ellipse fill="#8eac89" rx="1" ry="1" transform="matrix(-27.00530772 58.47857116 -28.18992452 -13.01806064 2 169.303264)"/><ellipse fill="#47785f" rx="1" ry="1" transform="matrix(-11.54912996 -6.80713936 23.75730204 -40.30711788 948.478752 380.810188)"/><ellipse fill="#1eb18c" rx="1" ry="1" transform="matrix(-.15792492 -7.73570816 25.25930484 -.51567008 685.37402 312.583452)"/><ellipse fill="#a4b6c3" rx="1" ry="1" transform="matrix(26.30317296 12.94682196 -10.20033544 20.72332412 786.816696 164.34786)"/><ellipse fill="#322932" rx="1" ry="1" transform="matrix(8.28113992 7.04981072 -12.91304712 15.16845688 486.829844 284.510752)"/><ellipse fill="#fdf2d9" rx="1" ry="1" transform="matrix(-19.3463744 4.62784404 -1.20628224 -5.0427776 485.835324 312.323636)"/><ellipse fill="#2c2a2b" rx="1" ry="1" transform="matrix(17.73235364 -34.29248936 18.66066844 9.64927244 14.937136 65.205968)"/><ellipse fill="#083196" rx="1" ry="1" transform="matrix(-16.77349564 15.70031588 -4.1274488 -4.40957652 316.713096 556.6457)"/><ellipse fill="#9eada4" rx="1" ry="1" transform="matrix(4.91998248 9.81876776 -21.616806 10.83173672 1013.124032 612.848)"/><ellipse fill="#3ead90" rx="1" ry="1" transform="matrix(-11.63157476 111.50736396 -3.97841396 -.41499696 652.404472 633.586324)"/><ellipse fill="#81cb9c" rx="1" ry="1" transform="matrix(-8.70839896 -11.146003 24.834045 -19.40289912 579.466868 47.148548)"/><ellipse fill="#5b705a" rx="1" ry="1" transform="matrix(-10.13085232 -6.38319584 27.88894208 -44.26289924 1022 126.80268)"/><ellipse fill="#81a48b" rx="1" ry="1" transform="matrix(-17.3071512 28.43965404 -23.93470592 -14.5656334 940.611248 263.64118)"/><ellipse fill="#475e57" rx="1" ry="1" transform="matrix(-9.00088448 -29.15230056 26.9579028 -8.32335576 193.938352 186.515784)"/><ellipse fill="#9fbaa4" rx="1" ry="1" transform="matrix(10.33575264 -2.74399172 1.79037612 6.74378292 866.727528 546.099916)"/><ellipse fill="#b09c97" rx="1" ry="1" transform="matrix(26.25677484 -14.68307632 4.89387656 8.75139596 501.825056 196.43962)"/><ellipse fill="#00307f" rx="1" ry="1" transform="matrix(2.9002496 -173.84821376 17.2222636 .28731308 419.878556 616.106932)"/><ellipse fill="#042641" rx="1" ry="1" transform="matrix(2.32735372 3.2532176 -27.4244096 19.61943816 405.767668 270.014856)"/><ellipse fill="#6c79ab" rx="1" ry="1" transform="matrix(-1.3720126 -11.29912148 31.65780648 -3.84409612 765.039088 173.574176)"/><ellipse fill="#27b289" rx="1" ry="1" transform="matrix(-6.18824028 -6.9019688 15.3190982 -13.73495928 548.161868 485.373264)"/><ellipse fill="#5b85d4" rx="1" ry="1" transform="matrix(18.7783538 -10.3355652 6.04506948 10.98309104 822.262488 474.446076)"/><ellipse fill="#2a80c1" rx="1" ry="1" transform="matrix(-1.02830632 10.47412764 -15.22608968 -1.49483424 845.227996 613.0077)"/><ellipse fill="#79ad88" rx="1" ry="1" transform="matrix(9.04604444 -30.64149624 23.5944422 6.96559892 931.290676 181.627232)"/><ellipse fill="#509072" rx="1" ry="1" transform="matrix(-12.47308832 2.70255064 -5.13970968 -23.7213142 247.706684 313.231224)"/><ellipse fill="#93a97e" rx="1" ry="1" transform="matrix(-20.9834602 9.33239104 -5.64864652 -12.70072688 392.060748 89.956332)"/><ellipse fill="#001e60" rx="1" ry="1" transform="matrix(3.99098052 -.26846684 3.17925396 47.26222904 516.179012 608.513104)"/><ellipse fill="#4b755e" rx="1" ry="1" transform="matrix(-11.28929036 -1.72423396 9.13450048 -59.80744476 94.6712 678)"/><ellipse fill="#454c4d" rx="1" ry="1" transform="matrix(-.84713916 -21.81869656 79.256056 -3.077219 240.40314 649.682424)"/><ellipse fill="#0fb181" rx="1" ry="1" transform="matrix(-21.37127268 -15.06108272 4.53519108 -6.43531456 987.132728 384.508044)"/><ellipse fill="#3d8a6c" rx="1" ry="1" transform="matrix(6.19641316 -3.5370294 54.07065656 94.72472208 839.168916 385.537408)"/><ellipse fill="#e7d9d7" rx="1" ry="1" transform="matrix(27.06041044 -.49666788 .14348004 7.8173554 856.36084 290.368164)"/><ellipse fill="#0e7568" rx="1" ry="1" transform="matrix(-44.3357486 -11.61613192 1.01379596 -3.869395 676.727692 492.836572)"/><ellipse fill="#909e9a" rx="1" ry="1" transform="matrix(-37.95510456 -65.34371796 7.34998676 -4.269263 228.972464 168.472196)"/><ellipse fill="#79a38f" rx="1" ry="1" transform="matrix(-19.59158616 45.33228404 -18.07280088 -7.81065512 799.314708 408.565088)"/><ellipse fill="#bcccb6" rx="1" ry="1" transform="matrix(16.21554024 -11.24792876 4.63875784 6.68745028 642.891772 509.343628)"/><ellipse fill="#445849" rx="1" ry="1" transform="matrix(30.83923456 -2.01951448 .6087388 9.29581764 629.439204 7.66494)"/><ellipse fill="#b9b9ac" rx="1" ry="1" transform="matrix(-9.01280716 -6.89935276 8.29846448 -10.84050384 868.265944 603.696584)"/><ellipse fill="#487a5e" rx="1" ry="1" transform="matrix(35.15895268 18.15767944 -3.10260016 6.00760532 806.746148 576.569948)"/><ellipse fill="#2a463c" rx="1" ry="1" transform="matrix(1.56300856 -4.57260824 49.06769556 16.77231572 893.048328 542.688912)"/><ellipse fill="#12599b" rx="1" ry="1" transform="matrix(3.09025404 -2.53975 35.7033178 43.44219784 529.933656 93.155196)"/><ellipse fill="#75988d" rx="1" ry="1" transform="matrix(-23.25030832 75.14315292 -7.23876672 -2.23977236 884.94638 178.386192)"/><ellipse fill="#2f4843" rx="1" ry="1" transform="matrix(-39.79619208 -2.27153376 1.04449356 -18.29903084 140.75768 60.705312)"/><ellipse fill="#cdc2d2" rx="1" ry="1" transform="matrix(-10.12246648 6.95948216 -5.05760308 -7.35621076 399.86438 288.784152)"/><ellipse fill="#07543e" rx="1" ry="1" transform="matrix(-28.5455682 -31.92642008 7.06566628 -6.31744672 862.783768 664.299568)"/><ellipse fill="#277d62" rx="1" ry="1" transform="matrix(24.71733888 -40.12871556 8.89877308 5.4812118 334.999568 678)"/><ellipse fill="#337154" rx="1" ry="1" transform="matrix(-2.70357804 4.1616362 -26.2094268 -17.02677204 802.82396 602.85298)"/><ellipse fill="#306c5b" rx="1" ry="1" transform="matrix(9.54758136 3.10223244 -13.26180804 40.81518528 720.533624 371.42796)"/><ellipse fill="#788881" rx="1" ry="1" transform="matrix(-4.281915 -20.63844552 10.74094 -2.22845232 719.557508 283.245452)"/><ellipse fill="#c6d9c2" rx="1" ry="1" transform="matrix(29.82685412 -6.438587 1.7940862 8.31113212 705.263616 423.0059)"/><ellipse fill="#818b7c" rx="1" ry="1" transform="matrix(3.92602088 8.40777792 -34.75811384 16.2303384 938.963456 571.222812)"/><ellipse fill="#6f847d" rx="1" ry="1" transform="matrix(12.85919072 4.24150472 -26.85480236 81.417103 687.872664 97.748172)"/><ellipse fill="#85c98c" rx="1" ry="1" transform="matrix(-4.92237992 -5.4305872 28.01698508 -25.39508892 733.487192 154.283232)"/><ellipse fill="#bebabb" rx="1" ry="1" transform="matrix(-6.23149612 5.692316 -12.6105672 -13.80504888 508.629196 219.913464)"/><ellipse fill="#304d3f" rx="1" ry="1" transform="matrix(5.28435792 -24.48963452 7.03130688 1.51721096 636.128384 303.965424)"/><ellipse fill="#89ddbc" rx="1" ry="1" transform="matrix(-2.12835088 -11.42944988 20.69607972 -3.8539492 744.554888 71.133124)"/><ellipse fill="#3d6353" rx="1" ry="1" transform="matrix(99.34259968 -34.63432304 2.1547842 6.18062788 964.6822 611.518644)"/><ellipse fill="#36615c" rx="1" ry="1" transform="matrix(22.66117764 -2.59821188 1.56621452 13.66026616 273.052828 171.358024)"/><ellipse fill="#66737a" rx="1" ry="1" transform="matrix(68.60524228 78.18344764 -15.75617272 13.82589384 127.536852 320.300612)"/><ellipse fill="#2a523a" rx="1" ry="1" transform="matrix(-.1035268 3.99866004 -60.35848188 -1.56270384 1003.343056 483.261068)"/><ellipse fill="#7ed1b8" rx="1" ry="1" transform="matrix(1.35746528 8.62679944 -24.29275748 3.82257352 862.623292 324.526864)"/><ellipse fill="#7b867c" rx="1" ry="1" transform="matrix(17.4903756 5.2921758 -8.79204408 29.05726484 534.316304 233.279152)"/><ellipse fill="#b1e3b7" rx="1" ry="1" transform="matrix(-27.60920628 -13.48028288 10.7836138 -22.08611056 712.652764 669.170768)"/><ellipse fill="#3e5948" rx="1" ry="1" transform="matrix(-90.05201 38.96694312 -2.28555832 -5.28189036 870.067752 487.188668)"/><ellipse fill="#669a7a" rx="1" ry="1" transform="matrix(-27.683448 35.59550516 -9.30442304 -7.23626508 644.898548 437.987984)"/><ellipse fill="#253935" rx="1" ry="1" transform="matrix(2.32686244 -12.2983122 29.30402904 5.5443742 1022 412.011064)"/><ellipse fill="#82c699" rx="1" ry="1" transform="matrix(-19.48128728 33.16395124 -13.20443872 -7.7565988 604.314964 205.605488)"/><ellipse fill="#091a36" rx="1" ry="1" transform="matrix(8.5896606 -8.3438476 6.36395412 6.55143868 561.956144 170.324332)"/><ellipse fill="#07a184" rx="1" ry="1" transform="matrix(-3.00300068 -5.81475432 32.13152304 -16.59416384 670.613104 384.312728)"/><ellipse fill="#5c755e" rx="1" ry="1" transform="matrix(-42.63511736 36.25422368 -10.49010644 -12.33640868 603.043648 77.91058)"/><ellipse fill="#294246" rx="1" ry="1" transform="matrix(-25.38438288 18.03520676 -61.02373468 -85.89032916 190.103236 293.393024)"/></g></svg>