<svg xmlns="http://www.w3.org/2000/svg" version="1.1" width="1024" height="632">
<rect x="0" y="0" width="1024" height="632" fill="#648488" />
<g transform="scale(4.000000) translate(0.5 0.5)">
<polygon fill="#ffffff" fill-opacity="0.501961" points="1.943961,59.391214,254.411495,65.447822,271.000000,-1.120419,-13.712956,-8.663936" />
<polygon fill="#000001" fill-opacity="0.501961" points="271.000000,77.631885,-16.000000,77.458591,-6.574825,171.725178,271.000000,164.446618" />
<polygon fill="#00000b" fill-opacity="0.501961" points="261.442886,106.743129,161.097187,113.309022,-16.000000,152.754372,253.960659,173.000000" />
<polygon fill="#000000" fill-opacity="0.501961" points="178.218863,75.984000,137.502556,55.706738,84.536323,82.118629,120.421093,86.784677" />
<polygon fill="#ffffff" fill-opacity="0.501961" points="271.000000,54.093950,271.000000,-1.870712,0.773551,-16.000000,-16.000000,50.734131" />
<polygon fill="#4ca1b1" fill-opacity="0.501961" points="271.000000,48.162224,158.114677,85.937376,-2.572769,97.832547,271.000000,95.965503" />
<polygon fill="#36a3bb" fill-opacity="0.501961" points="-16.000000,95.716930,76.657618,91.610804,82.348786,63.246660,-16.000000,47.256057" />
<polygon fill="#004450" fill-opacity="0.501961" points="271.000000,97.493710,66.214004,97.592739,-9.559961,63.211935,0.102223,173.000000" />
<polygon fill="#bba18a" fill-opacity="0.501961" points="166.634308,86.485731,55.286379,101.416051,144.646277,94.792386,123.268179,130.722245" />
<polygon fill="#a6c6ce" fill-opacity="0.501961" points="114.944917,67.792553,133.029812,52.659268,-16.000000,45.622097,78.961013,78.198930" />
<polygon fill="#00495e" fill-opacity="0.501961" points="258.295965,79.507737,157.017940,95.850540,145.510479,131.618801,265.113838,114.274215" />
<polygon fill="#9bbfc9" fill-opacity="0.501961" points="192.420831,86.296103,271.000000,51.953259,133.696330,56.536112,157.737496,59.501876" />
<polygon fill="#00161a" fill-opacity="0.501961" points="92.760082,115.962906,-13.878335,123.930823,4.129435,173.000000,271.000000,153.745945" />
<polygon fill="#b9a48d" fill-opacity="0.501961" points="64.137736,106.323797,85.354482,118.312858,73.984318,86.510707,91.048359,95.150769" />
<polygon fill="#000d13" fill-opacity="0.501961" points="171.396581,67.838477,133.704038,60.395475,96.126274,77.489748,150.073945,84.066770" />
<polygon fill="#00141b" fill-opacity="0.501961" points="257.593261,173.000000,118.588893,173.000000,174.652086,120.300509,260.750272,113.208267" />
<polygon fill="#eef4f1" fill-opacity="0.501961" points="93.119196,43.286288,-16.000000,-3.122553,271.000000,-0.156075,211.877457,43.982485" />
<polygon fill="#006f87" fill-opacity="0.501961" points="66.125763,103.431609,25.963903,67.363147,-11.386948,65.859770,-11.927968,103.370177" />
<polygon fill="#39706f" fill-opacity="0.501961" points="147.784053,99.309874,51.697395,98.570987,105.688834,112.272667,125.919713,126.518346" />
<polygon fill="#3a4726" fill-opacity="0.501961" points="59.459761,82.427751,94.438300,95.572954,190.004332,82.343522,95.157425,78.307272" />
<polygon fill="#c7ad93" fill-opacity="0.501961" points="141.531065,112.964074,158.457644,92.776976,137.029433,110.874781,120.563913,124.847064" />
<polygon fill="#006a82" fill-opacity="0.501961" points="209.921423,102.271104,157.995444,102.460787,265.519844,67.577574,271.000000,93.269895" />
<polygon fill="#003f49" fill-opacity="0.501961" points="-16.000000,85.933447,-16.000000,142.618062,85.642203,127.545810,63.251291,102.118744" />
<polygon fill="#497a83" fill-opacity="0.501961" points="177.348568,123.297205,145.324539,127.740448,129.033022,128.327948,147.775025,131.245704" />
<polygon fill="#90b2ba" fill-opacity="0.501961" points="74.853850,68.732431,60.620988,60.689635,147.987546,53.294763,46.814654,89.635208" />
<polygon fill="#448ca1" fill-opacity="0.501961" points="262.148899,69.316644,267.754652,71.839013,171.049038,99.018257,181.678210,78.631438" />
<polygon fill="#001a1f" fill-opacity="0.501961" points="98.683422,72.827094,91.337135,88.332321,177.988407,74.619615,153.689736,67.374315" />
<polygon fill="#b59d8a" fill-opacity="0.501961" points="78.461389,94.880801,53.474973,82.572608,90.437993,95.054764,69.330776,108.044325" />
<polygon fill="#37392d" fill-opacity="0.501961" points="160.299779,91.687518,162.215558,67.472590,181.463675,77.673775,134.914987,120.761347" />
<polygon fill="#aa9d8a" fill-opacity="0.501961" points="140.511910,86.055959,144.790188,88.056615,98.335478,95.337693,124.174165,99.842843" />
<polygon fill="#003542" fill-opacity="0.501961" points="134.599529,114.695786,197.209509,131.755362,270.128345,118.488532,270.030823,87.553572" />
<polygon fill="#00424b" fill-opacity="0.501961" points="120.679780,173.000000,96.007981,100.631459,71.053901,105.809954,104.422944,125.489335" />
<polygon fill="#0c3e45" fill-opacity="0.501961" points="130.226021,116.767829,148.556384,99.064816,144.918055,95.777370,92.152139,124.548201" />
<polygon fill="#428d9f" fill-opacity="0.501961" points="46.603848,87.815244,79.820101,75.587699,40.013533,60.708544,-16.000000,72.125974" />
<polygon fill="#00171c" fill-opacity="0.501961" points="255.698362,173.000000,10.795556,157.015067,219.709367,122.619114,257.418092,119.568654" />
<polygon fill="#ab8c6a" fill-opacity="0.501961" points="115.185895,119.648562,112.003854,121.334116,139.428743,123.036583,116.283214,117.940872" />
<polygon fill="#8aafb8" fill-opacity="0.501961" points="139.130761,56.414812,182.987023,74.258373,271.000000,64.873025,128.938750,54.924013" />
<polygon fill="#001e25" fill-opacity="0.501961" points="152.887990,103.262023,79.522167,173.000000,97.355052,118.689809,161.756159,127.817790" />
<polygon fill="#c4b6a8" fill-opacity="0.501961" points="126.715485,93.079471,154.975893,98.444192,154.541005,85.722452,144.755455,96.218976" />
<polygon fill="#c0ae93" fill-opacity="0.501961" points="135.189130,116.655171,133.019753,122.413598,123.768649,120.768341,141.682758,107.705599" />
<polygon fill="#79a5b0" fill-opacity="0.501961" points="0.548539,61.128305,92.314801,76.756192,20.153645,50.425646,-16.000000,59.016751" />
<polygon fill="#56693e" fill-opacity="0.501961" points="98.807522,82.902364,58.522538,85.680650,70.146043,96.616927,79.379179,76.942576" />
<polygon fill="#585e4f" fill-opacity="0.501961" points="131.518618,90.756948,122.125574,79.258780,135.724517,85.354171,146.665015,98.179818" />
<polygon fill="#005265" fill-opacity="0.501961" points="271.000000,98.007303,252.922822,83.425497,164.296924,109.910080,200.607500,108.392808" />
<polygon fill="#bdd0d1" fill-opacity="0.501961" points="137.242866,50.862961,223.420725,64.538617,271.000000,49.448013,201.706753,52.049616" />
<polygon fill="#b1cace" fill-opacity="0.501961" points="107.695563,52.714745,105.399572,73.850172,72.309978,61.288917,55.631967,51.742587" />
<polygon fill="#22545e" fill-opacity="0.501961" points="57.548847,108.608480,43.082927,90.399538,51.500109,87.057601,79.824615,98.504665" />
<polygon fill="#13798e" fill-opacity="0.501961" points="44.427725,92.481573,35.419749,70.682040,-16.000000,71.618996,-15.355130,76.383571" />
<polygon fill="#a69e92" fill-opacity="0.501961" points="140.584419,96.685473,131.324202,86.170968,119.329670,97.561358,148.173345,94.124260" />
<polygon fill="#002d31" fill-opacity="0.501961" points="-10.530189,163.263021,-3.623672,132.316669,117.433262,113.950538,109.507643,129.959520" />
<polygon fill="#48514b" fill-opacity="0.501961" points="107.178287,89.062153,96.849599,84.760369,88.254885,94.296626,98.845363,99.479554" />
<polygon fill="#0a2323" fill-opacity="0.501961" points="79.621373,87.168065,89.881663,90.193137,110.491139,64.516625,117.540451,86.872815" />
<polygon fill="#003b43" fill-opacity="0.501961" points="84.337346,128.598040,100.245860,119.947646,11.815249,102.203029,-16.000000,128.167786" />
<polygon fill="#8a8575" fill-opacity="0.501961" points="71.030922,111.956806,93.406567,118.835298,75.843095,109.057030,71.693398,106.915897" />
<polygon fill="#145a63" fill-opacity="0.501961" points="73.661252,108.974704,87.441674,114.999118,101.613315,97.042247,87.069405,97.158196" />
<polygon fill="#1f6473" fill-opacity="0.501961" points="175.668801,104.553404,158.144238,97.734397,163.051618,90.694239,217.045699,87.625811" />
<polygon fill="#000c12" fill-opacity="0.501961" points="206.367577,140.606563,130.507308,173.000000,271.000000,162.549058,271.000000,131.324377" />
<polygon fill="#a89b89" fill-opacity="0.501961" points="79.403307,117.934354,69.577276,105.056648,70.464239,101.489561,75.470063,109.773331" />
<polygon fill="#6998a6" fill-opacity="0.501961" points="184.827768,77.580780,175.614284,89.122519,213.633057,81.567412,271.000000,56.133517" />
<polygon fill="#011e24" fill-opacity="0.501961" points="123.370612,61.935817,163.123934,75.685655,145.932695,88.705969,115.807519,68.282972" />
<polygon fill="#002129" fill-opacity="0.501961" points="197.518202,137.778303,271.000000,122.098090,176.777908,125.480327,-10.686803,160.839813" />
<polygon fill="#b6a993" fill-opacity="0.501961" points="79.530336,114.222017,90.994222,116.396314,80.497110,112.905959,66.821327,105.301969" />
<polygon fill="#b3a597" fill-opacity="0.501961" points="79.374818,98.107872,92.643293,90.447508,73.965510,106.072684,67.855422,107.246352" />
<polygon fill="#cbddde" fill-opacity="0.501961" points="-16.000000,26.546936,-4.553198,52.996495,20.469248,49.884141,101.613338,55.145349" />
<polygon fill="#739aa2" fill-opacity="0.501961" points="98.849959,74.257505,54.922421,84.278412,53.261647,52.396281,44.015179,64.234531" />
<polygon fill="#91b5bd" fill-opacity="0.501961" points="132.669463,54.484447,74.043523,62.619927,65.342039,72.790919,128.491131,62.307727" />
<polygon fill="#4b727a" fill-opacity="0.501961" points="153.676727,127.968362,133.661913,126.872771,137.492280,130.042930,148.651529,131.950674" />
<polygon fill="#436231" fill-opacity="0.501961" points="89.543691,95.760723,97.298660,74.773596,62.600324,82.338975,83.005157,86.661754" />
<polygon fill="#aca59c" fill-opacity="0.501961" points="153.317755,95.490371,134.886552,87.252730,157.522607,93.033705,148.808451,106.943498" />
<polygon fill="#2c3e39" fill-opacity="0.501961" points="141.063801,93.183351,148.099285,100.934210,138.637054,97.465824,125.601036,73.206925" />
<polygon fill="#002024" fill-opacity="0.501961" points="118.328897,165.371009,147.099242,104.882578,132.468781,123.119573,-16.000000,158.330529" />
<polygon fill="#137d94" fill-opacity="0.501961" points="204.544023,90.154270,211.843028,88.549929,271.000000,81.890876,261.819970,71.458726" />
<polygon fill="#1d2628" fill-opacity="0.501961" points="66.517608,84.396920,80.355831,85.076527,95.470240,94.500075,72.411491,86.591117" />
<polygon fill="#95b3ba" fill-opacity="0.501961" points="159.652653,59.726634,174.013999,73.835333,271.000000,57.751142,205.971897,60.519545" />
<polygon fill="#0c2024" fill-opacity="0.501961" points="77.487134,115.661063,106.759287,118.263990,66.138901,118.766245,68.850561,108.950022" />
<polygon fill="#506833" fill-opacity="0.501961" points="166.393174,91.383810,165.542673,80.689166,153.759292,78.750070,156.630627,85.362902" />
<polygon fill="#dde9e8" fill-opacity="0.501961" points="138.875476,23.150202,76.226018,52.633213,-16.000000,7.031591,29.927082,-8.316112" />
<polygon fill="#33382e" fill-opacity="0.501961" points="162.675307,66.281847,166.387181,67.042990,181.691664,81.433375,162.507686,82.662669" />
<polygon fill="#7d7a76" fill-opacity="0.501961" points="84.660736,97.888496,71.996050,95.464685,53.995609,77.794863,76.726788,94.025363" />
<polygon fill="#005668" fill-opacity="0.501961" points="45.695229,105.324467,32.224022,88.255419,-9.793213,85.436343,-3.459676,105.754537" />
<polygon fill="#4c8594" fill-opacity="0.501961" points="69.390565,74.826546,63.299577,88.011322,53.271208,89.345928,34.121000,72.414963" />
<polygon fill="#91b5ba" fill-opacity="0.501961" points="97.192327,73.880755,28.007428,51.652257,75.187142,58.534471,85.899745,78.823695" />
<polygon fill="#607a7e" fill-opacity="0.501961" points="99.044639,111.081750,124.745916,115.102856,111.881472,111.844842,101.331307,108.714306" />
<polygon fill="#a5a092" fill-opacity="0.501961" points="135.948834,114.261051,160.184209,88.738567,153.901667,98.932872,154.390676,101.111564" />
<polygon fill="#bebeb6" fill-opacity="0.501961" points="136.791945,92.505288,136.871639,97.192170,126.771447,89.009553,125.436270,96.077776" />
<polygon fill="#00242e" fill-opacity="0.501961" points="118.918124,129.097492,153.102734,127.165465,169.945495,122.630377,169.769670,113.589754" />
<polygon fill="#84adb7" fill-opacity="0.501961" points="164.481659,58.673728,189.350271,71.725484,144.595362,60.743592,143.092092,56.519313" />
<polygon fill="#115a6b" fill-opacity="0.501961" points="184.698863,97.817752,198.685678,76.220135,166.501905,129.538259,197.675164,97.906831" />
<polygon fill="#1e626a" fill-opacity="0.501961" points="149.586572,98.634712,82.543093,102.779478,134.032578,109.661786,149.391393,101.002932" />
<polygon fill="#418596" fill-opacity="0.501961" points="168.243849,93.043266,178.858758,83.612813,245.624526,74.820478,185.241958,91.444047" />
<polygon fill="#3a606a" fill-opacity="0.501961" points="142.179638,66.425175,144.838284,68.564976,135.155252,56.406836,145.301991,56.822662" />
<polygon fill="#dce6e5" fill-opacity="0.501961" points="229.614025,48.360483,148.790810,55.444110,218.711591,21.282605,271.000000,2.225144" />
<polygon fill="#878577" fill-opacity="0.501961" points="93.775733,96.190096,98.592387,96.323904,109.144852,99.212454,112.395922,90.690312" />
<polygon fill="#014653" fill-opacity="0.501961" points="81.385310,97.232702,-14.655954,126.125237,1.262756,98.585549,36.277999,99.588452" />
<polygon fill="#01181a" fill-opacity="0.501961" points="100.808485,72.601523,93.743439,79.788337,90.287166,82.319100,118.217943,84.116428" />
<polygon fill="#9bb5bb" fill-opacity="0.501961" points="83.815058,58.167113,96.857269,76.258172,100.490220,56.900700,112.636385,70.994425" />
<polygon fill="#62665c" fill-opacity="0.501961" points="103.234768,86.379751,88.245493,96.875736,99.751706,84.848018,129.792426,100.128896" />
<polygon fill="#a6a69a" fill-opacity="0.501961" points="91.484233,99.756653,85.095293,91.704999,71.401528,93.013811,74.193165,91.179034" />
<polygon fill="#003136" fill-opacity="0.501961" points="96.447708,133.121636,108.788448,102.528566,100.514475,113.416225,-16.000000,142.774834" />
<polygon fill="#bfb29d" fill-opacity="0.501961" points="123.097907,122.141216,137.087889,111.541941,130.884612,121.703389,133.380578,121.695952" />
<polygon fill="#003d49" fill-opacity="0.501961" points="78.455216,105.921433,77.635021,105.412596,77.013645,110.933135,88.601743,113.637357" />
<polygon fill="#022029" fill-opacity="0.501961" points="120.057087,62.824562,150.789922,66.320972,168.244865,79.293866,116.943154,71.370868" />
<polygon fill="#485244" fill-opacity="0.501961" points="136.102757,95.418888,147.597201,97.448081,117.458095,99.391429,109.717487,99.396023" />
<polygon fill="#565d3b" fill-opacity="0.501961" points="145.080046,87.582965,138.660287,94.970534,174.290787,73.838999,164.190009,86.069488" />
<polygon fill="#2b3c48" fill-opacity="0.501961" points="156.455152,96.224999,179.519495,80.623010,175.662889,71.918318,181.277206,77.295093" />
<polygon fill="#53868e" fill-opacity="0.501961" points="155.468513,130.516529,142.621587,127.983609,134.108155,131.262602,162.788190,126.973576" />
<polygon fill="#92a09c" fill-opacity="0.501961" points="102.742589,111.387979,98.040414,112.096195,102.132755,109.236216,103.527957,107.542619" />
<polygon fill="#c9dada" fill-opacity="0.501961" points="201.812319,59.918494,271.000000,23.410852,260.998781,85.788655,252.660911,49.653415" />
<polygon fill="#b8b0a1" fill-opacity="0.501961" points="78.754486,99.562978,85.355080,93.733978,86.478002,97.695199,68.827292,107.211748" />
<polygon fill="#313c3c" fill-opacity="0.501961" points="97.504136,90.405202,122.664238,90.806962,123.881983,88.486916,88.709064,95.241701" />
<polygon fill="#001f27" fill-opacity="0.501961" points="169.686786,127.053422,188.289465,128.638336,126.099382,155.671791,122.931868,133.890431" />
<polygon fill="#517035" fill-opacity="0.501961" points="77.921844,86.220204,94.069899,78.165737,95.549952,75.442064,73.935791,79.926990" />
<polygon fill="#5d7073" fill-opacity="0.501961" points="126.157909,112.761331,113.221370,114.308401,122.799074,113.639839,123.524210,117.365377" />
<polygon fill="#1d5459" fill-opacity="0.501961" points="117.127954,115.658812,103.552936,104.371811,140.501971,111.562304,135.046720,95.665297" />
<polygon fill="#b0aca2" fill-opacity="0.501961" points="148.251724,89.454654,159.125703,87.328311,150.280892,94.506098,142.065775,94.763668" />
<polygon fill="#32717e" fill-opacity="0.501961" points="27.785400,82.974618,59.833861,84.560135,67.450296,93.808986,44.990024,93.817036" />
<polygon fill="#eaeded" fill-opacity="0.501961" points="255.201393,-9.219924,205.499187,-16.000000,109.055812,36.564604,166.724063,41.587289" />
<polygon fill="#9fa396" fill-opacity="0.501961" points="109.184585,93.610861,126.426150,96.851381,131.160759,98.060205,122.956773,92.940951" />
<polygon fill="#0c3c43" fill-opacity="0.501961" points="148.132741,97.131449,124.721695,114.704143,93.970230,119.563032,127.441868,118.135899" />
<polygon fill="#364a3e" fill-opacity="0.501961" points="121.754855,79.672619,125.121526,76.802917,125.392519,79.992316,117.195528,98.603791" />
<polygon fill="#2f8ca2" fill-opacity="0.501961" points="38.151172,76.150471,-16.000000,66.182370,25.229045,63.788140,32.696739,65.619588" />
<polygon fill="#9e8f74" fill-opacity="0.501961" points="112.010536,122.106802,122.253260,118.790661,121.702199,121.122580,132.828084,119.512169" />
<polygon fill="#1d3f42" fill-opacity="0.501961" points="63.065200,129.152886,69.890705,94.975578,78.562122,98.193980,61.689765,106.856899" />
<polygon fill="#c2d8dc" fill-opacity="0.501961" points="221.166059,53.768993,114.421856,48.301590,100.843347,52.453905,155.201483,54.950466" />
<polygon fill="#383f3d" fill-opacity="0.501961" points="171.027834,90.644082,172.273237,82.890641,151.503214,61.215624,179.359967,75.888868" />
<polygon fill="#002f3a" fill-opacity="0.501961" points="202.362970,131.542203,155.873347,105.328776,147.201452,121.868712,271.000000,100.953505" />
<polygon fill="#0a2e34" fill-opacity="0.501961" points="80.323199,102.132425,78.825829,110.726390,175.146162,173.000000,72.960784,107.011161" />
<polygon fill="#76a3af" fill-opacity="0.501961" points="198.064390,68.323188,199.030418,81.429242,170.041334,72.240096,194.479537,68.914508" />
<polygon fill="#5b675a" fill-opacity="0.501961" points="133.237705,95.319119,130.043247,82.090144,121.326337,79.805494,124.940407,79.992532" />
<polygon fill="#06181c" fill-opacity="0.501961" points="167.260105,79.299526,93.544080,76.402037,102.291223,87.432404,156.505795,66.851110" />
<polygon fill="#bbb7a6" fill-opacity="0.501961" points="148.056974,103.620340,154.523210,93.811233,154.598924,94.735458,132.739527,117.139865" />
<polygon fill="#19515f" fill-opacity="0.501961" points="154.132551,104.384985,180.472254,105.429066,178.644618,100.466488,163.737609,87.023223" />
<polygon fill="#00171d" fill-opacity="0.501961" points="146.223113,173.000000,202.964757,161.406808,118.661080,123.313537,134.748093,123.299084" />
<polygon fill="#aac2c6" fill-opacity="0.501961" points="243.729953,51.669694,233.445729,59.528172,271.000000,59.915753,271.000000,54.155969" />
<polygon fill="#4f7676" fill-opacity="0.501961" points="104.501685,103.863185,120.235805,104.352495,118.550077,114.335832,122.376855,102.582134" />
<polygon fill="#777872" fill-opacity="0.501961" points="153.373083,85.263667,149.870563,87.151045,160.586535,94.501316,147.419463,89.303400" />
<polygon fill="#175a68" fill-opacity="0.501961" points="67.806003,92.849661,72.772937,102.016234,34.548584,101.586514,41.716253,89.037733" />
<polygon fill="#76a9b5" fill-opacity="0.501961" points="108.500604,59.182787,117.936639,57.330600,119.716507,63.087101,142.745715,54.826881" />
<polygon fill="#616265" fill-opacity="0.501961" points="159.258116,89.398587,182.737983,76.931201,168.180753,86.805913,149.367465,94.387252" />
<polygon fill="#95b5bd" fill-opacity="0.501961" points="163.864436,57.588748,207.489902,57.962327,167.269720,65.900079,145.198613,61.020764" />
<polygon fill="#00697e" fill-opacity="0.501961" points="-16.000000,97.797236,-10.086814,74.171008,51.702973,95.952348,19.703137,88.718004" />
<polygon fill="#023d4b" fill-opacity="0.501961" points="153.250449,101.265307,178.123677,106.530906,249.525301,109.535603,146.965813,114.177948" />
<polygon fill="#aba18f" fill-opacity="0.501961" points="81.869068,115.132979,67.438905,103.932833,87.581555,97.774573,67.044944,106.733787" />
<polygon fill="#003c43" fill-opacity="0.501961" points="84.701439,127.460383,66.720403,113.821891,-16.000000,111.171636,-3.296619,123.827630" />
<polygon fill="#5c95a3" fill-opacity="0.501961" points="70.351902,79.828601,58.572220,87.299316,66.788392,65.735588,26.371918,66.646855" />
<polygon fill="#a0978a" fill-opacity="0.501961" points="70.679586,89.760684,84.992459,91.347550,74.525779,95.407059,75.817151,87.382304" />
<polygon fill="#b6b6ac" fill-opacity="0.501961" points="115.966870,96.981593,137.624475,91.728373,129.169298,92.811374,130.234208,89.998734" />
<polygon fill="#95b9c1" fill-opacity="0.501961" points="-16.000000,58.555341,55.590316,52.929886,-16.000000,50.798456,61.332848,57.754403" />
<polygon fill="#1e2e37" fill-opacity="0.501961" points="180.847876,81.750997,167.518315,87.650752,169.916498,87.444460,176.643969,75.037298" />
<polygon fill="#425338" fill-opacity="0.501961" points="179.715330,88.146209,124.336413,82.106166,140.957715,87.840578,169.194810,86.474445" />
<polygon fill="#012c34" fill-opacity="0.501961" points="81.943974,140.473251,115.854679,109.489577,115.244451,116.547002,105.571597,113.036903" />
<polygon fill="#00242d" fill-opacity="0.501961" points="268.619649,108.160920,261.956285,107.128960,271.000000,128.518425,143.884416,132.146753" />
<polygon fill="#598d9c" fill-opacity="0.501961" points="175.645858,83.231611,188.806966,90.852741,179.078181,77.126454,206.257343,81.727438" />
<polygon fill="#8e8e7f" fill-opacity="0.501961" points="87.859833,115.910680,80.868950,114.148366,67.318501,107.529893,89.517360,114.743803" />
<polygon fill="#685440" fill-opacity="0.501961" points="130.422641,120.530975,134.786163,120.253663,137.536203,116.412613,151.042098,104.007837" />
<polygon fill="#b4ccd0" fill-opacity="0.501961" points="56.558066,51.637295,96.496082,52.772085,112.285081,65.009075,91.640419,61.969754" />
<polygon fill="#00687e" fill-opacity="0.501961" points="211.628907,91.639253,251.957813,88.630410,271.000000,77.354257,248.827932,81.897141" />
<polygon fill="#828377" fill-opacity="0.501961" points="87.183868,95.056394,112.728188,95.417729,96.300199,95.387103,91.813162,98.893143" />
<polygon fill="#1d353b" fill-opacity="0.501961" points="104.196377,65.404990,112.045659,66.058253,120.733760,71.531423,152.945981,76.014253" />
<polygon fill="#031a20" fill-opacity="0.501961" points="120.443062,75.908922,153.135294,64.814288,148.983420,86.783730,115.515805,74.770448" />
<polygon fill="#1f4f56" fill-opacity="0.501961" points="135.513656,108.369874,136.271251,100.169838,151.627789,96.635612,139.751162,107.456153" />
<polygon fill="#173021" fill-opacity="0.501961" points="74.720275,84.744925,79.039527,90.792173,97.168654,80.619708,131.366067,87.689540" />
<polygon fill="#94b4bb" fill-opacity="0.501961" points="79.427939,78.640969,140.813037,53.550123,63.522905,66.628822,99.700064,73.026494" />
<polygon fill="#133339" fill-opacity="0.501961" points="109.496382,74.166623,137.682392,62.183029,163.460353,65.945622,104.538324,69.877264" />
<polygon fill="#135459" fill-opacity="0.501961" points="95.624103,97.471520,130.242850,114.245465,88.561434,99.891423,134.754538,104.079696" />
<polygon fill="#7ca8b4" fill-opacity="0.501961" points="-16.000000,56.660878,36.114637,63.701967,12.890123,53.151048,-16.000000,50.338320" />
<polygon fill="#a7a69f" fill-opacity="0.501961" points="148.740466,97.856031,140.435726,87.638742,140.879780,93.561401,157.456490,87.535421" />
<polygon fill="#5d777a" fill-opacity="0.501961" points="128.085159,108.746844,123.143131,115.592037,123.230095,115.107469,122.123082,114.947006" />
<polygon fill="#999588" fill-opacity="0.501961" points="83.381982,96.086602,96.860513,95.479199,158.096973,95.357231,109.594311,96.658238" />
<polygon fill="#3d5c63" fill-opacity="0.501961" points="131.546939,58.121108,139.861673,58.101485,129.331564,64.784800,129.370443,57.114319" />
<polygon fill="#05454d" fill-opacity="0.501961" points="75.770910,107.496730,112.849151,119.586937,86.636255,104.257910,81.989135,114.375930" />
<polygon fill="#c1c5bd" fill-opacity="0.501961" points="135.057791,93.090922,115.878874,93.841900,135.338742,94.549123,135.723012,89.114916" />
<polygon fill="#989289" fill-opacity="0.501961" points="91.341196,91.439605,90.836375,91.536713,98.585073,89.596479,94.846127,89.344972" />
<polygon fill="#04191d" fill-opacity="0.501961" points="127.055865,76.459375,98.289657,73.670999,98.781971,83.597034,110.017587,87.269309" />
<polygon fill="#266870" fill-opacity="0.501961" points="88.462168,104.458492,73.804550,109.208346,78.774594,105.847077,93.334322,98.845974" />
<polygon fill="#267588" fill-opacity="0.501961" points="190.355726,87.187264,182.400516,93.701691,206.233410,90.375115,249.837057,79.736055" />
<polygon fill="#2e532d" fill-opacity="0.501961" points="64.019354,83.522734,64.557758,86.367790,73.881088,85.365237,80.314215,80.085038" />
<polygon fill="#3d4b48" fill-opacity="0.501961" points="130.545840,92.473714,100.028004,90.982874,100.992596,87.152790,85.783527,82.913635" />
<polygon fill="#021f25" fill-opacity="0.501961" points="126.041329,81.875609,149.844508,77.684186,128.028833,62.583494,143.725366,62.692514" />
<polygon fill="#235f6b" fill-opacity="0.501961" points="163.708810,127.190901,177.329875,116.318506,164.903401,129.849076,156.000305,127.450636" />
<polygon fill="#00181d" fill-opacity="0.501961" points="271.000000,121.539552,81.334198,153.558290,23.314373,173.000000,271.000000,137.562947" />
<polygon fill="#7d979a" fill-opacity="0.501961" points="75.054328,77.603202,87.131561,66.779667,63.502893,85.454760,62.603144,80.391700" />
<polygon fill="#356b6e" fill-opacity="0.501961" points="121.215338,105.201329,101.513525,103.401114,97.888751,111.853641,99.056693,100.626353" />
<polygon fill="#b2a48c" fill-opacity="0.501961" points="114.510225,119.046498,125.729205,123.319868,151.328189,99.389565,130.772494,119.926875" />
<polygon fill="#b7c8c9" fill-opacity="0.501961" points="236.714823,53.686219,234.158361,58.064499,208.225505,64.756065,188.720876,56.177719" />
<polygon fill="#3c3425" fill-opacity="0.501961" points="116.660451,122.810923,110.957691,121.619264,125.859571,121.846426,135.265048,124.719879" />
<polygon fill="#dde7e6" fill-opacity="0.501961" points="53.690806,12.247255,-3.988748,-5.799890,29.753259,39.278663,123.905093,44.720437" />
<polygon fill="#cbdbdb" fill-opacity="0.501961" points="17.518326,51.910894,50.556435,50.220660,28.891073,39.712527,-16.000000,38.428654" />
<polygon fill="#1e2b2c" fill-opacity="0.501961" points="167.462718,71.913572,171.972879,71.321064,159.716330,65.963399,154.082005,73.256206" />
<polygon fill="#072931" fill-opacity="0.501961" points="65.506866,108.923581,74.975874,111.627186,50.505897,114.662501,86.812904,120.499099" />
<polygon fill="#213d28" fill-opacity="0.501961" points="127.836419,81.951205,122.657194,67.359745,130.310831,89.078397,117.207998,83.197148" />
<polygon fill="#7fabb5" fill-opacity="0.501961" points="182.632445,69.649429,204.040539,65.204063,182.756998,80.592278,181.293460,79.418765" />
<polygon fill="#163c3a" fill-opacity="0.501961" points="114.427944,100.244677,128.133330,97.791642,115.243810,98.038592,87.945733,155.823743" />
<polygon fill="#5b6350" fill-opacity="0.501961" points="142.066015,92.431527,181.028363,70.082459,146.138534,90.130999,141.269611,100.144699" />
<polygon fill="#99b3b7" fill-opacity="0.501961" points="145.757565,43.091295,151.793401,63.777383,141.986277,57.634443,152.978051,64.983055" />
<polygon fill="#32492e" fill-opacity="0.501961" points="99.082623,82.415020,88.067818,95.208329,99.661681,94.705975,82.472838,84.872857" />
<polygon fill="#626659" fill-opacity="0.501961" points="143.125532,96.521353,124.084447,80.222578,127.120765,97.492014,124.002799,78.947066" />
<polygon fill="#b9b7ac" fill-opacity="0.501961" points="85.955106,92.459120,88.029246,96.618558,75.533936,92.522672,75.146781,93.199689" />
<polygon fill="#1b8298" fill-opacity="0.501961" points="-16.000000,65.217040,29.135073,72.677907,-16.000000,85.267159,-2.972893,90.395038" />
<polygon fill="#003b49" fill-opacity="0.501961" points="271.000000,101.584762,207.994641,104.631994,173.882740,113.820654,218.759183,115.708349" />
<polygon fill="#a49681" fill-opacity="0.501961" points="71.784438,109.391098,82.198963,112.764212,88.716187,115.892147,83.761994,116.447659" />
<polygon fill="#043c45" fill-opacity="0.501961" points="79.074180,108.893570,80.263680,112.868207,127.631972,119.076731,107.769799,114.967005" />
<polygon fill="#1d6065" fill-opacity="0.501961" points="90.063138,113.851545,101.719521,101.057575,84.617458,96.806185,94.628452,108.664261" />
<polygon fill="#002028" fill-opacity="0.501961" points="248.618986,133.828178,168.025772,133.251287,113.392492,145.102426,171.803110,125.228404" />
<polygon fill="#091f24" fill-opacity="0.501961" points="120.117007,161.954695,136.655797,116.792598,154.876795,101.624685,135.523281,123.082045" />
<polygon fill="#2b3734" fill-opacity="0.501961" points="68.398945,98.271919,76.073731,99.917556,69.388731,93.512662,68.253081,94.482236" />
<polygon fill="#7e776b" fill-opacity="0.501961" points="68.783070,95.492132,74.804532,91.206399,81.567208,96.969359,90.641260,98.296660" />
<polygon fill="#d7e3e4" fill-opacity="0.501961" points="2.534686,9.944171,92.076941,50.737890,53.814646,50.434854,-16.000000,26.793550" />
<polygon fill="#00272c" fill-opacity="0.501961" points="29.044943,136.762240,-16.000000,146.687450,-16.000000,164.765177,133.698523,126.696444" />
<polygon fill="#8b8a7a" fill-opacity="0.501961" points="107.587157,99.194415,113.160649,89.842952,115.737390,92.850927,103.640540,96.449095" />
<polygon fill="#091f21" fill-opacity="0.501961" points="98.508418,93.272063,131.771298,65.581412,120.811071,80.250174,99.105614,90.465251" />
<polygon fill="#47899a" fill-opacity="0.501961" points="219.578014,83.429460,271.000000,65.856408,164.126187,89.999327,190.710527,81.503973" />
<polygon fill="#93bdc6" fill-opacity="0.501961" points="124.821207,61.158993,93.240033,49.289568,129.436959,60.307939,129.354721,63.131959" />
<polygon fill="#338395" fill-opacity="0.501961" points="46.536415,76.575440,43.515880,87.923925,23.523447,68.427607,35.321572,70.222141" />
<polygon fill="#bebcb0" fill-opacity="0.501961" points="157.997894,93.693883,153.857301,91.640058,142.357152,92.290967,150.339933,95.866401" />
<polygon fill="#6ca5b3" fill-opacity="0.501961" points="68.151364,71.002556,58.682137,59.849073,-16.000000,58.619116,60.565749,67.747846" />
<polygon fill="#4f6b69" fill-opacity="0.501961" points="120.536736,105.024360,126.242525,94.925188,116.048710,118.481484,118.290083,109.645847" />
<polygon fill="#a8a293" fill-opacity="0.501961" points="79.876812,113.492845,78.040786,112.141633,68.372899,107.981516,75.719097,109.174035" />
<polygon fill="#305435" fill-opacity="0.501961" points="63.749354,90.359767,72.538322,79.427826,97.643292,84.763541,80.158906,80.132923" />
<polygon fill="#90b2bb" fill-opacity="0.501961" points="187.267895,53.739209,168.798755,71.027271,170.590364,60.346352,187.059079,66.781808" />
<polygon fill="#060c11" fill-opacity="0.501961" points="194.111210,173.000000,250.122447,174.650950,271.000000,143.956595,239.784531,145.775966" />
<polygon fill="#808381" fill-opacity="0.501961" points="155.837979,88.165411,138.937407,89.858246,137.560279,85.855394,150.840211,91.279824" />
<polygon fill="#294953" fill-opacity="0.501961" points="137.661666,64.963673,132.022066,74.614547,140.370602,59.244138,137.752127,53.088229" />
<polygon fill="#0d2125" fill-opacity="0.501961" points="163.152398,75.233326,172.990181,83.916063,155.205421,73.902728,143.867889,59.537045" />
<polygon fill="#36656b" fill-opacity="0.501961" points="83.862418,104.650556,91.415970,102.301034,79.894261,108.744326,87.153565,95.859162" />
<polygon fill="#117287" fill-opacity="0.501961" points="47.660550,89.800247,39.646709,92.838404,27.952330,76.294877,-9.207590,76.267740" />
<polygon fill="#1f2e22" fill-opacity="0.501961" points="141.729441,85.334123,128.885319,88.393360,152.516329,85.016603,164.066251,70.729619" />
<polygon fill="#04171d" fill-opacity="0.501961" points="117.045179,74.408838,149.395086,85.527172,150.319892,65.615208,165.539563,78.497205" />
<polygon fill="#515449" fill-opacity="0.501961" points="182.113217,84.770366,169.637653,78.044350,165.101887,72.383491,167.735912,73.663662" />
<polygon fill="#627d82" fill-opacity="0.501961" points="132.052710,129.686960,141.793192,128.765232,122.567709,127.090650,148.130342,129.460517" />
<polygon fill="#87a9b0" fill-opacity="0.501961" points="259.467332,57.963601,199.149320,70.423118,206.124739,73.865497,254.429235,61.623484" />
<polygon fill="#4a5e32" fill-opacity="0.501961" points="160.708045,86.971693,152.462572,87.823114,154.708246,78.445995,169.797851,85.121789" />
<polygon fill="#3a727d" fill-opacity="0.501961" points="163.031793,128.541347,173.056151,122.679311,159.105225,127.063817,132.990493,130.867909" />
<polygon fill="#01586b" fill-opacity="0.501961" points="192.923058,95.041955,208.332337,100.141659,234.120031,97.884546,270.118974,85.242915" />
<polygon fill="#e5e9e6" fill-opacity="0.501961" points="271.000000,20.461799,261.888072,-16.000000,199.907560,13.774443,237.495207,28.979729" />
<polygon fill="#033139" fill-opacity="0.501961" points="105.578162,113.402404,88.402404,114.237393,94.640838,122.485186,122.801328,116.627309" />
<polygon fill="#dae4e4" fill-opacity="0.501961" points="208.759300,37.842993,240.862438,17.516790,235.706887,51.425852,134.597674,50.557716" />
<polygon fill="#87aab2" fill-opacity="0.501961" points="59.398396,60.154948,94.423241,72.950859,93.149959,76.986570,42.714043,58.410899" />
<polygon fill="#af9f89" fill-opacity="0.501961" points="66.640307,104.110983,67.505291,104.401998,79.726586,113.953903,76.918912,114.677019" />
<polygon fill="#0f4646" fill-opacity="0.501961" points="99.728818,100.835220,107.462267,101.182562,97.044239,95.362597,98.361423,93.680570" />
<polygon fill="#004249" fill-opacity="0.501961" points="-16.000000,114.279744,-8.757504,122.009317,69.544621,121.973371,53.166235,115.787728" />
<polygon fill="#bcb19b" fill-opacity="0.501961" points="153.562272,98.158716,146.707233,105.055339,133.411434,117.514992,156.738041,92.886353" />
<polygon fill="#00222a" fill-opacity="0.501961" points="111.297138,122.124983,125.293737,109.704461,83.455117,140.969717,148.550252,134.148593" />
<polygon fill="#377276" fill-opacity="0.501961" points="144.722096,108.402013,127.287530,104.429119,123.430396,107.881518,104.185082,101.151556" />
<polygon fill="#9bbdc3" fill-opacity="0.501961" points="118.513130,66.379106,74.379243,64.253339,139.509089,53.998744,105.832273,53.317462" />
<polygon fill="#588188" fill-opacity="0.501961" points="49.491350,82.255546,62.416725,90.523428,64.015400,79.157963,42.129404,86.229601" />
<polygon fill="#837c75" fill-opacity="0.501961" points="96.519552,90.285355,92.321749,90.427307,71.996833,97.237270,90.895988,91.699292" />
<polygon fill="#719fab" fill-opacity="0.501961" points="191.397879,80.127814,184.379114,72.403796,214.289448,70.836157,251.207028,67.443960" />
<polygon fill="#1d5f6c" fill-opacity="0.501961" points="170.582120,90.188818,155.609350,98.338455,155.070184,101.032260,177.313869,97.173302" />
<polygon fill="#768269" fill-opacity="0.501961" points="124.846385,97.737115,132.575659,100.517772,129.588981,99.099940,127.594560,94.905225" />
<polygon fill="#293b2b" fill-opacity="0.501961" points="143.114376,84.035910,166.017529,78.405331,146.589536,82.459369,142.202618,92.020227" />
<polygon fill="#02303c" fill-opacity="0.501961" points="140.924705,118.207566,178.297007,113.920820,149.306147,128.617523,163.664297,125.401537" />
<polygon fill="#a3c1c8" fill-opacity="0.501961" points="173.560357,53.307713,200.086188,55.880595,175.558034,58.692947,180.885313,72.396256" />
<polygon fill="#756653" fill-opacity="0.501961" points="154.236882,100.659672,134.842988,115.908274,136.328992,117.770938,158.487244,94.963616" />
<polygon fill="#97bfc7" fill-opacity="0.501961" points="26.068434,55.027748,19.933982,51.344669,65.859368,55.225164,54.139986,60.189424" />
<polygon fill="#062027" fill-opacity="0.501961" points="131.863719,79.097845,169.742866,67.134265,120.665908,73.257950,138.244353,62.879507" />
<polygon fill="#4c5156" fill-opacity="0.501961" points="99.661987,92.241583,133.800483,88.380178,103.609775,89.024397,125.360828,91.896140" />
<polygon fill="#243439" fill-opacity="0.501961" points="179.508646,74.864991,179.345824,81.670677,172.752957,85.959878,177.413038,74.546053" />
<polygon fill="#072e33" fill-opacity="0.501961" points="129.504476,115.643800,105.321541,137.208014,121.711631,126.675129,129.090487,105.976775" />
<polygon fill="#918c89" fill-opacity="0.501961" points="151.948890,87.103350,163.122978,88.743895,145.880641,89.677327,133.245789,96.237596" />
<polygon fill="#274e2a" fill-opacity="0.501961" points="99.568921,74.081513,93.191236,85.032071,86.292341,85.875545,88.029009,80.416168" />
<polygon fill="#16616e" fill-opacity="0.501961" points="-3.866918,70.616382,66.799335,102.257382,27.659971,110.138151,69.151510,103.974625" />
<polygon fill="#001b1f" fill-opacity="0.501961" points="124.539819,123.416179,48.572404,173.000000,107.506453,170.860063,115.412374,124.386735" />
<polygon fill="#68868c" fill-opacity="0.501961" points="117.788627,53.156944,144.201736,63.989298,116.236677,54.530751,150.587313,65.122191" />
<polygon fill="#6f7c7a" fill-opacity="0.501961" points="98.280847,97.003707,106.856227,96.119172,101.967791,91.949046,100.836917,94.545272" />
<polygon fill="#5990a0" fill-opacity="0.501961" points="271.000000,61.747249,213.677433,81.128811,176.176297,82.839336,176.799209,87.023507" />
<polygon fill="#0a1d1c" fill-opacity="0.501961" points="100.558569,78.160151,115.959612,80.802232,89.207295,87.278515,89.337077,89.616780" />
<polygon fill="#06464e" fill-opacity="0.501961" points="128.093766,109.755266,108.231613,109.307165,108.774707,108.385968,103.673970,105.422111" />
<polygon fill="#8bb0b8" fill-opacity="0.501961" points="191.565093,67.730573,174.943736,74.963294,172.193534,57.571597,219.457812,70.284933" />
<polygon fill="#4c8f9f" fill-opacity="0.501961" points="47.456362,86.423123,50.603012,83.019969,29.287749,63.114864,66.490907,75.694764" />
<polygon fill="#055061" fill-opacity="0.501961" points="174.639746,101.667976,231.793722,97.079226,179.614493,107.112876,169.138732,106.483215" />
<polygon fill="#e2eae7" fill-opacity="0.501961" points="122.493569,30.649473,30.343660,31.654709,114.726911,46.584177,87.114215,46.018785" />
<polygon fill="#4d6868" fill-opacity="0.501961" points="137.063237,115.520204,94.763189,111.509700,122.039516,115.372352,128.364157,114.559153" />
<polygon fill="#225359" fill-opacity="0.501961" points="152.856512,95.855848,123.846288,116.841473,133.400893,110.648100,139.800196,108.331223" />
<polygon fill="#50636b" fill-opacity="0.501961" points="63.029386,91.533690,72.722487,92.362384,75.069336,84.402497,62.946353,96.732180" />
<polygon fill="#02181f" fill-opacity="0.501961" points="259.650024,173.000000,117.584438,124.872059,148.833904,126.336723,110.979123,121.839609" />
<polygon fill="#6f7564" fill-opacity="0.501961" points="120.443286,76.043600,133.977956,88.097150,122.161157,99.660359,133.264438,89.557134" />
<polygon fill="#8cb4bd" fill-opacity="0.501961" points="112.516004,69.984115,114.838946,54.799981,118.090324,61.084524,131.197054,49.783489" />
<polygon fill="#4f6c32" fill-opacity="0.501961" points="87.367831,77.588824,78.339713,86.626708,72.768812,82.387294,76.598194,81.441010" />
<polygon fill="#898273" fill-opacity="0.501961" points="71.045181,95.582203,81.597913,94.891474,66.025043,107.874014,83.552301,97.115820" />
<polygon fill="#babbb3" fill-opacity="0.501961" points="135.664262,90.911767,128.121588,96.777305,120.510037,93.872787,135.507215,95.706566" />
<polygon fill="#3e7e90" fill-opacity="0.501961" points="178.316111,93.672093,198.855751,87.621757,209.614014,81.669392,190.398905,83.212526" />
<polygon fill="#a6c2c7" fill-opacity="0.501961" points="100.234946,65.038551,7.352152,47.004400,98.418945,61.464405,111.680296,70.769314" />
<polygon fill="#8bb2bc" fill-opacity="0.501961" points="142.227616,55.446551,167.808883,60.916036,200.474440,67.297620,149.457420,62.349550" />
<polygon fill="#5d6a5b" fill-opacity="0.501961" points="117.180711,92.558903,68.319469,91.642241,116.605706,93.052502,62.384455,78.840807" />
<polygon fill="#86b6c1" fill-opacity="0.501961" points="128.115675,63.114474,129.695397,55.850775,106.263584,57.320057,124.780624,59.726611" />
<polygon fill="#01333a" fill-opacity="0.501961" points="77.047801,135.872531,51.855980,129.366447,109.108756,109.460141,79.567327,129.669871" />
<polygon fill="#05333b" fill-opacity="0.501961" points="110.689637,116.819333,108.040618,113.104483,63.660346,141.699228,124.196138,106.726640" />
<polygon fill="#002933" fill-opacity="0.501961" points="179.935679,116.288706,161.787515,133.770802,158.986759,128.350417,191.923342,128.720826" />
<polygon fill="#b7d0d4" fill-opacity="0.501961" points="179.382269,57.005840,144.599829,54.998770,93.534958,52.849520,121.115381,50.660749" />
<polygon fill="#325556" fill-opacity="0.501961" points="129.880247,94.311161,142.451930,116.631765,138.069749,107.430458,130.440229,97.716523" />
<polygon fill="#082a32" fill-opacity="0.501961" points="137.506292,65.426724,123.626000,62.336099,98.701805,79.824681,136.379934,61.355928" />
<polygon fill="#244f55" fill-opacity="0.501961" points="55.480642,107.156658,70.072070,95.818399,62.921235,94.977698,77.233776,99.702183" />
<polygon fill="#05768e" fill-opacity="0.501961" points="246.554432,84.479115,238.786463,80.964044,264.568234,76.257543,254.486912,84.355200" />
<polygon fill="#0e4b50" fill-opacity="0.501961" points="106.355844,99.648539,118.653431,98.987874,102.984558,101.647851,94.421581,96.776678" />
<polygon fill="#002d32" fill-opacity="0.501961" points="111.939114,106.407818,94.253748,133.225348,-11.461912,143.887175,101.494369,127.718008" />
<polygon fill="#646c4c" fill-opacity="0.501961" points="128.204405,101.311188,130.209103,98.613475,111.417582,97.416716,126.881908,97.112925" />
<polygon fill="#032d35" fill-opacity="0.501961" points="121.350122,114.761294,80.482659,132.055995,107.312049,127.324117,127.318283,105.495722" />
<polygon fill="#02191f" fill-opacity="0.501961" points="125.289289,82.064596,159.701772,77.340277,155.082603,66.055739,147.598579,67.147581" />
<polygon fill="#95b0b7" fill-opacity="0.501961" points="101.818995,64.029207,105.870735,72.206041,81.967555,69.655185,107.334056,67.141331" />
</g>
</svg>