<svg height="632" width="1024" xmlns="http://www.w3.org/2000/svg"><path d="m0 0h1024v632h-1024z" fill="#648488"/><g fill-opacity=".501961" transform="matrix(4 0 0 4 2 2)"><path d="m1.943961 59.391214 252.467534 6.056608 16.588505-66.568241-284.712956-7.543517z" fill="#fff"/><path d="m271 77.631885-287-.173294 9.425175 94.266587 277.574825-7.27856z" fill="#000001"/><path d="m261.442886 106.743129-100.345699 6.565893-177.097187 39.44535 269.960659 20.245628z" fill="#00000b"/><path d="m178.218863 75.984-40.716307-20.277262-52.966233 26.411891 35.88477 4.666048z"/><path d="m271 54.09395v-55.964662l-270.226449-14.129288-16.773551 66.734131z" fill="#fff"/><path d="m271 48.162224-112.885323 37.775152-160.687446 11.895171 273.572769-1.867044z" fill="#4ca1b1"/><path d="m-16 95.71693 92.657618-4.106126 5.691168-28.364144-98.348786-15.990603z" fill="#36a3bb"/><path d="m271 97.49371-204.785996.099029-75.773965-34.380804 9.662184 109.788065z" fill="#004450"/><path d="m166.634308 86.485731-111.347929 14.93032 89.359898-6.623665-21.378098 35.929859z" fill="#bba18a"/><path d="m114.944917 67.792553 18.084895-15.133285-149.029812-7.037171 94.961013 32.576833z" fill="#a6c6ce"/><path d="m258.295965 79.507737-101.278025 16.342803-11.507461 35.768261 119.603359-17.344586z" fill="#00495e"/><path d="m192.420831 86.296103 78.579169-34.342844-137.30367 4.582853 24.041166 2.965764z" fill="#9bbfc9"/><path d="m92.760082 115.962906-106.638417 7.967917 18.00777 49.069177 266.870565-19.254055z" fill="#00161a"/><path d="m64.137736 106.323797 21.216746 11.989061-11.370164-31.802151 17.064041 8.640062z" fill="#b9a48d"/><path d="m171.396581 67.838477-37.692543-7.443002-37.577764 17.094273 53.947671 6.577022z" fill="#000d13"/><path d="m257.593261 173h-139.004368l56.063193-52.699491 86.098186-7.092242z" fill="#00141b"/><path d="m93.119196 43.286288-109.119196-46.408841 287 2.966478-59.122543 44.13856z" fill="#eef4f1"/><path d="m66.125763 103.431609-40.16186-36.068462-37.350851-1.503377-.54102 37.510407z" fill="#006f87"/><path d="m147.784053 99.309874-96.086658-.738887 53.991439 13.70168 20.230879 14.245679z" fill="#39706f"/><path d="m59.459761 82.427751 34.978539 13.145203 95.566032-13.229432-94.846907-4.03625z" fill="#3a4726"/><path d="m141.531065 112.964074 16.926579-20.187098-21.428211 18.097805-16.46552 13.972283z" fill="#c7ad93"/><path d="m209.921423 102.271104-51.925979.189683 107.5244-34.883213 5.480156 25.692321z" fill="#006a82"/><path d="m-16 85.933447v56.684615l101.642203-15.072252-22.390912-25.427066z" fill="#003f49"/><path d="m177.348568 123.297205-32.024029 4.443243-16.291517.5875 18.742003 2.917756z" fill="#497a83"/><path d="m74.85385 68.732431-14.232862-8.042796 87.366558-7.394872-101.172892 36.340445z" fill="#90b2ba"/><path d="m262.148899 69.316644 5.605753 2.522369-96.705614 27.179244 10.629172-20.386819z" fill="#448ca1"/><path d="m98.683422 72.827094-7.346287 15.505227 86.651272-13.712706-24.298671-7.2453z" fill="#001a1f"/><path d="m78.461389 94.880801-24.986416-12.308193 36.96302 12.482156-21.107217 12.989561z" fill="#b59d8a"/><path d="m160.299779 91.687518 1.915779-24.214928 19.248117 10.201185-46.548688 43.087572z" fill="#37392d"/><path d="m140.51191 86.055959 4.278278 2.000656-46.45471 7.281078 25.838687 4.50515z" fill="#aa9d8a"/><path d="m134.599529 114.695786 62.60998 17.059576 72.918836-13.26683-.097522-30.93496z" fill="#003542"/><path d="m120.67978 173-24.671799-72.368541-24.95408 5.178495 33.369043 19.679381z" fill="#00424b"/><path d="m130.226021 116.767829 18.330363-17.703013-3.638329-3.287446-52.765916 28.770831z" fill="#0c3e45"/><path d="m46.603848 87.815244 33.216253-12.227545-39.806568-14.879155-56.013533 11.41743z" fill="#428d9f"/><path d="m255.698362 173-244.902806-15.984933 208.913811-34.395953 37.708725-3.05046z" fill="#00171c"/><path d="m115.185895 119.648562-3.182041 1.685554 27.424889 1.702467-23.145529-5.095711z" fill="#ab8c6a"/><path d="m139.130761 56.414812 43.856262 17.843561 88.012977-9.385348-142.06125-9.949012z" fill="#8aafb8"/><path d="m152.88799 103.262023-73.365823 69.737977 17.832885-54.310191 64.401107 9.127981z" fill="#001e25"/><path d="m126.715485 93.079471 28.260408 5.364721-.434888-12.72174-9.78555 10.496524z" fill="#c4b6a8"/><path d="m135.18913 116.655171-2.169377 5.758427-9.251104-1.645257 17.914109-13.062742z" fill="#c0ae93"/><path d="m.548539 61.128305 91.766262 15.627887-72.161156-26.330546-36.153645 8.591105z" fill="#79a5b0"/><path d="m98.807522 82.902364-40.284984 2.778286 11.623505 10.936277 9.233136-19.674351z" fill="#56693e"/><path d="m131.518618 90.756948-9.393044-11.498168 13.598943 6.095391 10.940498 12.825647z" fill="#585e4f"/><path d="m271 98.007303-18.077178-14.581806-88.625898 26.484583 36.310576-1.517272z" fill="#005265"/><path d="m137.242866 50.862961 86.177859 13.675656 47.579275-15.090604-69.293247 2.601603z" fill="#bdd0d1"/><path d="m107.695563 52.714745-2.295991 21.135427-33.089594-12.561255-16.678011-9.54633z" fill="#b1cace"/><path d="m57.548847 108.60848-14.46592-18.208942 8.417182-3.341937 28.324506 11.447064z" fill="#22545e"/><path d="m44.427725 92.481573-9.007976-21.799533-51.419749.936956.64487 4.764575z" fill="#13798e"/><path d="m140.584419 96.685473-9.260217-10.514505-11.994532 11.39039 28.843675-3.437098z" fill="#a69e92"/><path d="m-10.530189 163.263021 6.906517-30.946352 121.056934-18.366131-7.925619 16.008982z" fill="#002d31"/><path d="m107.178287 89.062153-10.328688-4.301784-8.594714 9.536257 10.590478 5.182928z" fill="#48514b"/><path d="m79.621373 87.168065 10.26029 3.025072 20.609476-25.676512 7.049312 22.35619z" fill="#0a2323"/><path d="m84.337346 128.59804 15.908514-8.650394-88.430611-17.744617-27.815249 25.964757z" fill="#003b43"/><path d="m71.030922 111.956806 22.375645 6.878492-17.563472-9.778268-4.149697-2.141133z" fill="#8a8575"/><path d="m73.661252 108.974704 13.780422 6.024414 14.171641-17.956871-14.54391.115949z" fill="#145a63"/><path d="m175.668801 104.553404-17.524563-6.819007 4.90738-7.040158 53.994081-3.068428z" fill="#1f6473"/><path d="m206.367577 140.606563-75.860269 32.393437 140.492692-10.450942v-31.224681z" fill="#000c12"/><path d="m79.403307 117.934354-9.826031-12.877706.886963-3.567087 5.005824 8.28377z" fill="#a89b89"/><path d="m184.827768 77.58078-9.213484 11.541739 38.018773-7.555107 57.366943-25.433895z" fill="#6998a6"/><path d="m123.370612 61.935817 39.753322 13.749838-17.191239 13.020314-30.125176-20.422997z" fill="#011e24"/><path d="m197.518202 137.778303 73.481798-15.680213-94.222092 3.382237-187.464711 35.359486z" fill="#002129"/><path d="m79.530336 114.222017 11.463886 2.174297-10.497112-3.490355-13.675783-7.60399z" fill="#b6a993"/><path d="m79.374818 98.107872 13.268475-7.660364-18.677783 15.625176-6.110088 1.173668z" fill="#b3a597"/><path d="m-16 26.546936 11.446802 26.449559 25.022446-3.112354 81.14409 5.261208z" fill="#cbddde"/><path d="m98.849959 74.257505-43.927538 10.020907-1.660774-31.882131-9.246468 11.83825z" fill="#739aa2"/><path d="m132.669463 54.484447-58.62594 8.13548-8.701484 10.170992 63.149092-10.483192z" fill="#91b5bd"/><path d="m153.676727 127.968362-20.014814-1.095591 3.830367 3.170159 11.159249 1.907744z" fill="#4b727a"/><path d="m89.543691 95.760723 7.754969-20.987127-34.698336 7.565379 20.404833 4.322779z" fill="#436231"/><path d="m153.317755 95.490371-18.431203-8.237641 22.636055 5.780975-8.714156 13.909793z" fill="#aca59c"/><path d="m141.063801 93.183351 7.035484 7.750859-9.462231-3.468386-13.036018-24.258899z" fill="#2c3e39"/><path d="m118.328897 165.371009 28.770345-60.488431-14.630461 18.236995-148.468781 35.210956z" fill="#002024"/><path d="m204.544023 90.15427 7.299005-1.604341 59.156972-6.659053-9.18003-10.43215z" fill="#137d94"/><path d="m66.517608 84.39692 13.838223.679607 15.114409 9.423548-23.058749-7.908958z" fill="#1d2628"/><path d="m159.652653 59.726634 14.361346 14.108699 96.986001-16.084191-65.028103 2.768403z" fill="#95b3ba"/><path d="m77.487134 115.661063 29.272153 2.602927-40.620386.502255 2.71166-9.816223z" fill="#0c2024"/><path d="m166.393174 91.38381-.850501-10.694644-11.783381-1.939096 2.871335 6.612832z" fill="#506833"/><path d="m138.875476 23.150202-62.649458 29.483011-92.226018-45.601622 45.927082-15.347703z" fill="#dde9e8"/><path d="m162.675307 66.281847 3.711874.761143 15.304483 14.390385-19.183978 1.229294z" fill="#33382e"/><path d="m84.660736 97.888496-12.664686-2.423811-18.000441-17.669822 22.731179 16.2305z" fill="#7d7a76"/><path d="m45.695229 105.324467-13.471207-17.069048-42.017235-2.819076 6.333537 20.318194z" fill="#005668"/><path d="m69.390565 74.826546-6.090988 13.184776-10.028369 1.334606-19.150208-16.930965z" fill="#4c8594"/><path d="m97.192327 73.880755-69.184899-22.228498 47.179714 6.882214 10.712603 20.289224z" fill="#91b5ba"/><path d="m99.044639 111.08175 25.701277 4.021106-12.864444-3.258014-10.550165-3.130536z" fill="#607a7e"/><path d="m135.948834 114.261051 24.235375-25.522484-6.282542 10.194305.489009 2.178692z" fill="#a5a092"/><path d="m136.791945 92.505288.079694 4.686882-10.100192-8.182617-1.335177 7.068223z" fill="#bebeb6"/><path d="m118.918124 129.097492 34.18461-1.932027 16.842761-4.535088-.175825-9.040623z" fill="#00242e"/><path d="m164.481659 58.673728 24.868612 13.051756-44.754909-10.981892-1.50327-4.224279z" fill="#84adb7"/><path d="m184.698863 97.817752 13.986815-21.597617-32.183773 53.318124 31.173259-31.631428z" fill="#115a6b"/><path d="m149.586572 98.634712-67.043479 4.144766 51.489485 6.882308 15.358815-8.658854z" fill="#1e626a"/><path d="m168.243849 93.043266 10.614909-9.430453 66.765768-8.792335-60.382568 16.623569z" fill="#418596"/><path d="m142.179638 66.425175 2.658646 2.139801-9.683032-12.15814 10.146739.415826z" fill="#3a606a"/><path d="m229.614025 48.360483-80.823215 7.083627 69.920781-34.161505 52.288409-19.057461z" fill="#dce6e5"/><path d="m93.775733 96.190096 4.816654.133808 10.552465 2.88855 3.25107-8.522142z" fill="#878577"/><path d="m81.38531 97.232702-96.041264 28.892535 15.91871-27.539688 35.015243 1.002903z" fill="#014653"/><path d="m100.808485 72.601523-7.065046 7.186814-3.456273 2.530763 27.930777 1.797328z" fill="#01181a"/><path d="m83.815058 58.167113 13.042211 18.091059 3.632951-19.357472 12.146165 14.093725z" fill="#9bb5bb"/><path d="m103.234768 86.379751-14.989275 10.495985 11.506213-12.027718 30.04072 15.280878z" fill="#62665c"/><path d="m91.484233 99.756653-6.38894-8.051654-13.693765 1.308812 2.791637-1.834777z" fill="#a6a69a"/><path d="m96.447708 133.121636 12.34074-30.59307-8.273973 10.887659-116.514475 29.358609z" fill="#003136"/><path d="m123.097907 122.141216 13.989982-10.599275-6.203277 10.161448 2.495966-.007437z" fill="#bfb29d"/><path d="m78.455216 105.921433-.820195-.508837-.621376 5.520539 11.588098 2.704222z" fill="#003d49"/><path d="m120.057087 62.824562 30.732835 3.49641 17.454943 12.972894-51.301711-7.922998z" fill="#022029"/><path d="m136.102757 95.418888 11.494444 2.029193-30.139106 1.943348-7.740608.004594z" fill="#485244"/><path d="m145.080046 87.582965-6.419759 7.387569 35.6305-21.131535-10.100778 12.230489z" fill="#565d3b"/><path d="m156.455152 96.224999 23.064343-15.601989-3.856606-8.704692 5.614317 5.376775z" fill="#2b3c48"/><path d="m155.468513 130.516529-12.846926-2.53292-8.513432 3.278993 28.680035-4.289026z" fill="#53868e"/><path d="m102.742589 111.387979-4.702175.708216 4.092341-2.859979 1.395202-1.693597z" fill="#92a09c"/><path d="m201.812319 59.918494 69.187681-36.507642-10.001219 62.377803-8.33787-36.13524z" fill="#c9dada"/><path d="m78.754486 99.562978 6.600594-5.829 1.122922 3.961221-17.65071 9.516549z" fill="#b8b0a1"/><path d="m97.504136 90.405202 25.160102.40176 1.217745-2.320046-35.172919 6.754785z" fill="#313c3c"/><path d="m169.686786 127.053422 18.602679 1.584914-62.190083 27.033455-3.167514-21.78136z" fill="#001f27"/><path d="m77.921844 86.220204 16.148055-8.054467 1.480053-2.723673-21.614161 4.484926z" fill="#517035"/><path d="m126.157909 112.761331-12.936539 1.54707 9.577704-.668562.725136 3.725538z" fill="#5d7073"/><path d="m117.127954 115.658812-13.575018-11.287001 36.949035 7.190493-5.455251-15.897007z" fill="#1d5459"/><path d="m148.251724 89.454654 10.873979-2.126343-8.844811 7.177787-8.215117.25757z" fill="#b0aca2"/><path d="m27.7854 82.974618 32.048461 1.585517 7.616435 9.248851-22.460272.00805z" fill="#32717e"/><path d="m255.201393-9.219924-49.702206-6.780076-96.443375 52.564604 57.668251 5.022685z" fill="#eaeded"/><path d="m109.184585 93.610861 17.241565 3.24052 4.734609 1.208824-8.203986-5.119254z" fill="#9fa396"/><path d="m148.132741 97.131449-23.411046 17.572694-30.751465 4.858889 33.471638-1.427133z" fill="#0c3c43"/><path d="m121.754855 79.672619 3.366671-2.869702.270993 3.189399-8.196991 18.611475z" fill="#364a3e"/><path d="m38.151172 76.150471-54.151172-9.968101 41.229045-2.39423 7.467694 1.831448z" fill="#2f8ca2"/><path d="m112.010536 122.106802 10.242724-3.316141-.551061 2.331919 11.125885-1.610411z" fill="#9e8f74"/><path d="m63.0652 129.152886 6.825505-34.177308 8.671417 3.218402-16.872357 8.662919z" fill="#1d3f42"/><path d="m221.166059 53.768993-106.744203-5.467403-13.578509 4.152315 54.358136 2.496561z" fill="#c2d8dc"/><path d="m171.027834 90.644082 1.245403-7.753441-20.770023-21.675017 27.856753 14.673244z" fill="#383f3d"/><path d="m202.36297 131.542203-46.489623-26.213427-8.671895 16.539936 123.798548-20.915207z" fill="#002f3a"/><path d="m80.323199 102.132425-1.49737 8.593965 96.320333 62.27361-102.185378-65.988839z" fill="#0a2e34"/><path d="m198.06439 68.323188.966028 13.106054-28.989084-9.189146 24.438203-3.325588z" fill="#76a3af"/><path d="m133.237705 95.319119-3.194458-13.228975-8.71691-2.28465 3.61407.187038z" fill="#5b675a"/><path d="m167.260105 79.299526-73.716025-2.897489 8.747143 11.030367 54.214572-20.581294z" fill="#06181c"/><path d="m148.056974 103.62034 6.466236-9.809107.075714.924225-21.859397 22.404407z" fill="#bbb7a6"/><path d="m154.132551 104.384985 26.339703 1.044081-1.827636-4.962578-14.907009-13.443265z" fill="#19515f"/><path d="m146.223113 173 56.741644-11.593192-84.303677-38.093271 16.087013-.014453z" fill="#00171d"/><path d="m243.729953 51.669694-10.284224 7.858478 37.554271.387581v-5.759784z" fill="#aac2c6"/><path d="m104.501685 103.863185 15.73412.48931-1.685728 9.983337 3.826778-11.753698z" fill="#4f7676"/><path d="m153.373083 85.263667-3.50252 1.887378 10.715972 7.350271-13.167072-5.197916z" fill="#777872"/><path d="m67.806003 92.849661 4.966934 9.166573-38.224353-.42972 7.167669-12.548781z" fill="#175a68"/><path d="m108.500604 59.182787 9.436035-1.852187 1.779868 5.756501 23.029208-8.26022z" fill="#76a9b5"/><path d="m159.258116 89.398587 23.479867-12.467386-14.55723 9.874712-18.813288 7.581339z" fill="#616265"/><path d="m163.864436 57.588748 43.625466.373579-40.220182 7.937752-22.071107-4.879315z" fill="#95b5bd"/><path d="m-16 97.797236 5.913186-23.626228 61.789787 21.78134-31.999836-7.234344z" fill="#00697e"/><path d="m153.250449 101.265307 24.873228 5.265599 71.401624 3.004697-102.559488 4.642345z" fill="#023d4b"/><path d="m81.869068 115.132979-14.430163-11.200146 20.14265-6.15826-20.536611 8.959214z" fill="#aba18f"/><path d="m84.701439 127.460383-17.981036-13.638492-82.720403-2.650255 12.703381 12.655994z" fill="#003c43"/><path d="m70.351902 79.828601-11.779682 7.470715 8.216172-21.563728-40.416474.911267z" fill="#5c95a3"/><path d="m70.679586 89.760684 14.312873 1.586866-10.46668 4.059509 1.291372-8.024755z" fill="#a0978a"/><path d="m115.96687 96.981593 21.657605-5.25322-8.455177 1.083001 1.06491-2.81264z" fill="#b6b6ac"/><path d="m-16 58.555341 71.590316-5.625455-71.590316-2.13143 77.332848 6.955947z" fill="#95b9c1"/><path d="m180.847876 81.750997-13.329561 5.899755 2.398183-.206292 6.727471-12.407162z" fill="#1e2e37"/><path d="m179.71533 88.146209-55.378917-6.040043 16.621302 5.734412 28.237095-1.366133z" fill="#425338"/><path d="m81.943974 140.473251 33.910705-30.983674-.610228 7.057425-9.672854-3.510099z" fill="#012c34"/><path d="m268.619649 108.16092-6.663364-1.03196 9.043715 21.389465-127.115584 3.628328z" fill="#00242d"/><path d="m175.645858 83.231611 13.161108 7.62113-9.728785-13.726287 27.179162 4.600984z" fill="#598d9c"/><path d="m87.859833 115.91068-6.990883-1.762314-13.550449-6.618473 22.198859 7.21391z" fill="#8e8e7f"/><path d="m130.422641 120.530975 4.363522-.277312 2.75004-3.84105 13.505895-12.404776z" fill="#685440"/><path d="m56.558066 51.637295 39.938016 1.13479 15.788999 12.23699-20.644662-3.039321z" fill="#b4ccd0"/><path d="m211.628907 91.639253 40.328906-3.008843 19.042187-11.276153-22.172068 4.542884z" fill="#00687e"/><path d="m87.183868 95.056394 25.54432.361335-16.427989-.030626-4.487037 3.50604z" fill="#828377"/><path d="m104.196377 65.40499 7.849282.653263 8.688101 5.47317 32.212221 4.48283z" fill="#1d353b"/><path d="m120.443062 75.908922 32.692232-11.094634-4.151874 21.969442-33.467615-12.013282z" fill="#031a20"/><path d="m135.513656 108.369874.757595-8.200036 15.356538-3.534226-11.876627 10.820541z" fill="#1f4f56"/><path d="m74.720275 84.744925 4.319252 6.047248 18.129127-10.172465 34.197413 7.069832z" fill="#173021"/><path d="m79.427939 78.640969 61.385098-25.090846-77.290132 13.078699 36.177159 6.397672z" fill="#94b4bb"/><path d="m109.496382 74.166623 28.18601-11.983594 25.777961 3.762593-58.922029 3.931642z" fill="#133339"/><path d="m95.624103 97.47152 34.618747 16.773945-41.681416-14.354042 46.193104 4.188273z" fill="#135459"/><path d="m-16 56.660878 52.114637 7.041089-23.224514-10.550919-28.890123-2.812728z" fill="#7ca8b4"/><path d="m148.740466 97.856031-8.30474-10.217289.444054 5.922659 16.57671-6.02598z" fill="#a7a69f"/><path d="m128.085159 108.746844-4.942028 6.845193.086964-.484568-1.107013-.160463z" fill="#5d777a"/><path d="m83.381982 96.086602 13.478531-.607403 61.23646-.121968-48.502662 1.301007z" fill="#999588"/><path d="m131.546939 58.121108 8.314734-.019623-10.530109 6.683315.038879-7.670481z" fill="#3d5c63"/><path d="m75.77091 107.49673 37.078241 12.090207-26.212896-15.329027-4.64712 10.11802z" fill="#05454d"/><path d="m135.057791 93.090922-19.178917.750978 19.459868.707223.38427-5.434207z" fill="#c1c5bd"/><path d="m91.341196 91.439605-.504821.097108 7.748698-1.940234-3.738946-.251507z" fill="#989289"/><path d="m127.055865 76.459375-28.766208-2.788376.492314 9.926035 11.235616 3.672275z" fill="#04191d"/><path d="m88.462168 104.458492-14.657618 4.749854 4.970044-3.361269 14.559728-7.001103z" fill="#266870"/><path d="m190.355726 87.187264-7.95521 6.514427 23.832894-3.326576 43.603647-10.63906z" fill="#267588"/><path d="m64.019354 83.522734.538404 2.845056 9.32333-1.002553 6.433127-5.280199z" fill="#2e532d"/><path d="m130.54584 92.473714-30.517836-1.49084.964592-3.830084-15.209069-4.239155z" fill="#3d4b48"/><path d="m126.041329 81.875609 23.803179-4.191423-21.815675-15.100692 15.696533.10902z" fill="#021f25"/><path d="m163.70881 127.190901 13.621065-10.872395-12.426474 13.53057-8.903096-2.39844z" fill="#235f6b"/><path d="m271 121.539552-189.665802 32.018738-58.019825 19.44171 247.685627-35.437053z" fill="#00181d"/><path d="m75.054328 77.603202 12.077233-10.823535-23.628668 18.675093-.899749-5.06306z" fill="#7d979a"/><path d="m121.215338 105.201329-19.701813-1.800215-3.624774 8.452527 1.167942-11.227288z" fill="#356b6e"/><path d="m114.510225 119.046498 11.21898 4.27337 25.598984-23.930303-20.555695 20.53731z" fill="#b2a48c"/><path d="m236.714823 53.686219-2.556462 4.37828-25.932856 6.691566-19.504629-8.578346z" fill="#b7c8c9"/><path d="m116.660451 122.810923-5.70276-1.191659 14.90188.227162 9.405477 2.873453z" fill="#3c3425"/><path d="m53.690806 12.247255-57.679554-18.047145 33.742007 45.078553 94.151834 5.441774z" fill="#dde7e6"/><path d="m17.518326 51.910894 33.038109-1.690234-21.665362-10.508133-44.891073-1.283873z" fill="#cbdbdb"/><path d="m167.462718 71.913572 4.510161-.592508-12.256549-5.357665-5.634325 7.292807z" fill="#1e2b2c"/><path d="m65.506866 108.923581 9.469008 2.703605-24.469977 3.035315 36.307007 5.836598z" fill="#072931"/><path d="m127.836419 81.951205-5.179225-14.59146 7.653637 21.718652-13.102833-5.881249z" fill="#213d28"/><path d="m182.632445 69.649429 21.408094-4.445366-21.283541 15.388215-1.463538-1.173513z" fill="#7fabb5"/><path d="m114.427944 100.244677 13.705386-2.453035-12.88952.24695-27.298077 57.785151z" fill="#163c3a"/><path d="m142.066015 92.431527 38.962348-22.349068-34.889829 20.04854-4.868923 10.0137z" fill="#5b6350"/><path d="m145.757565 43.091295 6.035836 20.686088-9.807124-6.14294 10.991774 7.348612z" fill="#99b3b7"/><path d="m99.082623 82.41502-11.014805 12.793309 11.593863-.502354-17.188843-9.833118z" fill="#32492e"/><path d="m143.125532 96.521353-19.041085-16.298775 3.036318 17.269436-3.117966-18.544948z" fill="#626659"/><path d="m85.955106 92.45912 2.07414 4.159438-12.49531-4.095886-.387155.677017z" fill="#b9b7ac"/><path d="m-16 65.21704 45.135073 7.460867-45.135073 12.589252 13.027107 5.127879z" fill="#1b8298"/><path d="m271 101.584762-63.005359 3.047232-34.111901 9.18866 44.876443 1.887695z" fill="#003b49"/><path d="m71.784438 109.391098 10.414525 3.373114 6.517224 3.127935-4.954193.555512z" fill="#a49681"/><path d="m79.07418 108.89357 1.1895 3.974637 47.368292 6.208524-19.862173-4.109726z" fill="#043c45"/><path d="m90.063138 113.851545 11.656383-12.79397-17.102063-4.25139 10.010994 11.858076z" fill="#1d6065"/><path d="m248.618986 133.828178-80.593214-.576891-54.63328 11.851139 58.410618-19.874022z" fill="#002028"/><path d="m120.117007 161.954695 16.53879-45.162097 18.220998-15.167913-19.353514 21.45736z" fill="#091f24"/><path d="m68.398945 98.271919 7.674786 1.645637-6.685-6.404894-1.13565.969574z" fill="#2b3734"/><path d="m68.78307 95.492132 6.021462-4.285733 6.762676 5.76296 9.074052 1.327301z" fill="#7e776b"/><path d="m2.534686 9.944171 89.542255 40.793719-38.262295-.303036-69.814646-23.641304z" fill="#d7e3e4"/><path d="m29.044943 136.76224-45.044943 9.92521v18.077727l149.698523-38.068733z" fill="#00272c"/><path d="m107.587157 99.194415 5.573492-9.351463 2.576741 3.007975-12.09685 3.598168z" fill="#8b8a7a"/><path d="m98.508418 93.272063 33.26288-27.690651-10.960227 14.668762-21.705457 10.215077z" fill="#091f21"/><path d="m219.578014 83.42946 51.421986-17.573052-106.873813 24.142919 26.58434-8.495354z" fill="#47899a"/><path d="m124.821207 61.158993-31.581174-11.869425 36.196926 11.018371-.082238 2.82402z" fill="#93bdc6"/><path d="m46.536415 76.57544-3.020535 11.348485-19.992433-19.496318 11.798125 1.794534z" fill="#338395"/><path d="m157.997894 93.693883-4.140593-2.053825-11.500149.650909 7.982781 3.575434z" fill="#bebcb0"/><path d="m68.151364 71.002556-9.469227-11.153483-74.682137-1.229957 76.565749 9.12873z" fill="#6ca5b3"/><path d="m120.536736 105.02436 5.705789-10.099172-10.193815 23.556296 2.241373-8.835637z" fill="#4f6b69"/><path d="m79.876812 113.492845-1.836026-1.351212-9.667887-4.160117 7.346198 1.192519z" fill="#a8a293"/><path d="m63.749354 90.359767 8.788968-10.931941 25.10497 5.335715-17.484386-4.630618z" fill="#305435"/><path d="m187.267895 53.739209-18.46914 17.288062 1.791609-10.680919 16.468715 6.435456z" fill="#90b2bb"/><path d="m194.11121 173 56.011237 1.65095 20.877553-30.694355-31.215469 1.819371z" fill="#060c11"/><path d="m155.837979 88.165411-16.900572 1.692835-1.377128-4.002852 13.279932 5.42443z" fill="#808381"/><path d="m137.661666 64.963673-5.6396 9.650874 8.348536-15.370409-2.618475-6.155909z" fill="#294953"/><path d="m163.152398 75.233326 9.837783 8.682737-17.78476-10.013335-11.337532-14.365683z" fill="#0d2125"/><path d="m83.862418 104.650556 7.553552-2.349522-11.521709 6.443292 7.259304-12.885164z" fill="#36656b"/><path d="m47.66055 89.800247-8.013841 3.038157-11.694379-16.543527-37.15992-.027137z" fill="#117287"/><path d="m141.729441 85.334123-12.844122 3.059237 23.63101-3.376757 11.549922-14.286984z" fill="#1f2e22"/><path d="m117.045179 74.408838 32.349907 11.118334.924806-19.911964 15.219671 12.881997z" fill="#04171d"/><path d="m182.113217 84.770366-12.475564-6.726016-4.535766-5.660859 2.634025 1.280171z" fill="#515449"/><path d="m132.05271 129.68696 9.740482-.921728-19.225483-1.674582 25.562633 2.369867z" fill="#627d82"/><path d="m259.467332 57.963601-60.318012 12.459517 6.975419 3.442379 48.304496-12.242013z" fill="#87a9b0"/><path d="m160.708045 86.971693-8.245473.851421 2.245674-9.377119 15.089605 6.675794z" fill="#4a5e32"/><path d="m163.031793 128.541347 10.024358-5.862036-13.950926 4.384506-26.114732 3.804092z" fill="#3a727d"/><path d="m192.923058 95.041955 15.409279 5.099704 25.787694-2.257113 35.998943-12.641631z" fill="#01586b"/><path d="m271 20.461799-9.111928-36.461799-61.980512 29.774443 37.587647 15.205286z" fill="#e5e9e6"/><path d="m105.578162 113.402404-17.175758.834989 6.238434 8.247793 28.16049-5.857877z" fill="#033139"/><path d="m208.7593 37.842993 32.103138-20.326203-5.155551 33.909062-101.109213-.868136z" fill="#dae4e4"/><path d="m59.398396 60.154948 35.024845 12.795911-1.273282 4.035711-50.435916-18.575671z" fill="#87aab2"/><path d="m66.640307 104.110983.864984.291015 12.221295 9.551905-2.807674.723116z" fill="#af9f89"/><path d="m99.728818 100.83522 7.733449.347342-10.418028-5.819965 1.317184-1.682027z" fill="#0f4646"/><path d="m-16 114.279744 7.242496 7.729573 78.302125-.035946-16.378386-6.185643z" fill="#004249"/><path d="m153.562272 98.158716-6.855039 6.896623-13.295799 12.459653 23.326607-24.628639z" fill="#bcb19b"/><path d="m111.297138 122.124983 13.996599-12.420522-41.83862 31.265256 65.095135-6.821124z" fill="#00222a"/><path d="m144.722096 108.402013-17.434566-3.972894-3.857134 3.452399-19.245314-6.729962z" fill="#377276"/><path d="m118.51313 66.379106-44.133887-2.125767 65.129846-10.254595-33.676816-.681282z" fill="#9bbdc3"/><path d="m49.49135 82.255546 12.925375 8.267882 1.598675-11.365465-21.885996 7.071638z" fill="#588188"/><path d="m96.519552 90.285355-4.197803.141952-20.324916 6.809963 18.899155-5.537978z" fill="#837c75"/><path d="m191.397879 80.127814-7.018765-7.724018 29.910334-1.567639 36.91758-3.392197z" fill="#719fab"/><path d="m170.58212 90.188818-14.97277 8.149637-.539166 2.693805 22.243685-3.858958z" fill="#1d5f6c"/><path d="m124.846385 97.737115 7.729274 2.780657-2.986678-1.417832-1.994421-4.194715z" fill="#768269"/><path d="m143.114376 84.03591 22.903153-5.630579-19.427993 4.054038-4.386918 9.560858z" fill="#293b2b"/><path d="m140.924705 118.207566 37.372302-4.286746-28.99086 14.696703 14.35815-3.215986z" fill="#02303c"/><path d="m173.560357 53.307713 26.525831 2.572882-24.528154 2.812352 5.327279 13.703309z" fill="#a3c1c8"/><path d="m154.236882 100.659672-19.393894 15.248602 1.486004 1.862664 22.158252-22.807322z" fill="#756653"/><path d="m26.068434 55.027748-6.134452-3.683079 45.925386 3.880495-11.719382 4.96426z" fill="#97bfc7"/><path d="m131.863719 79.097845 37.879147-11.96358-49.076958 6.123685 17.578445-10.378443z" fill="#062027"/><path d="m99.661987 92.241583 34.138496-3.861405-30.190708.644219 21.751053 2.871743z" fill="#4c5156"/><path d="m179.508646 74.864991-.162822 6.805686-6.592867 4.289201 4.660081-11.413825z" fill="#243439"/><path d="m129.504476 115.6438-24.182935 21.564214 16.39009-10.532885 7.378856-20.698354z" fill="#072e33"/><path d="m151.94889 87.10335 11.174088 1.640545-17.242337.933432-12.634852 6.560269z" fill="#918c89"/><path d="m99.568921 74.081513-6.377685 10.950558-6.898895.843474 1.736668-5.459377z" fill="#274e2a"/><path d="m-3.866918 70.616382 70.666253 31.641-39.139364 7.880769 41.491539-6.163526z" fill="#16616e"/><path d="m124.539819 123.416179-75.967415 49.583821 58.934049-2.139937 7.905921-46.473328z" fill="#001b1f"/><path d="m117.788627 53.156944 26.413109 10.832354-27.965059-9.458547 34.350636 10.59144z" fill="#68868c"/><path d="m98.280847 97.003707 8.57538-.884535-4.888436-4.170126-1.130874 2.596226z" fill="#6f7c7a"/><path d="m271 61.747249-57.322567 19.381562-37.501136 1.710525.622912 4.184171z" fill="#5990a0"/><path d="m100.558569 78.160151 15.401043 2.642081-26.752317 6.476283.129782 2.338265z" fill="#0a1d1c"/><path d="m128.093766 109.755266-19.862153-.448101.543094-.921197-5.100737-2.963857z" fill="#06464e"/><path d="m191.565093 67.730573-16.621357 7.232721-2.750202-17.391697 47.264278 12.713336z" fill="#8bb0b8"/><path d="m47.456362 86.423123 3.14665-3.403154-21.315263-19.905105 37.203158 12.5799z" fill="#4c8f9f"/><path d="m174.639746 101.667976 57.153976-4.58875-52.179229 10.03365-10.475761-.629661z" fill="#055061"/><path d="m122.493569 30.649473-92.149909 1.005236 84.383251 14.929468-27.612696-.565392z" fill="#e2eae7"/><path d="m137.063237 115.520204-42.300048-4.010504 27.276327 3.862652 6.324641-.813199z" fill="#4d6868"/><path d="m152.856512 95.855848-29.010224 20.985625 9.554605-6.193373 6.399303-2.316877z" fill="#225359"/><path d="m63.029386 91.53369 9.693101.828694 2.346849-7.959887-12.122983 12.329683z" fill="#50636b"/><path d="m259.650024 173-142.065586-48.127941 31.249466 1.464664-37.854781-4.497114z" fill="#02181f"/><path d="m120.443286 76.0436 13.53467 12.05355-11.816799 11.563209 11.103281-10.103225z" fill="#6f7564"/><path d="m112.516004 69.984115 2.322942-15.184134 3.251378 6.284543 13.10673-11.301035z" fill="#8cb4bd"/><path d="m87.367831 77.588824-9.028118 9.037884-5.570901-4.239414 3.829382-.946284z" fill="#4f6c32"/><path d="m71.045181 95.582203 10.552732-.690729-15.57287 12.98254 17.527258-10.758194z" fill="#898273"/><path d="m135.664262 90.911767-7.542674 5.865538-7.611551-2.904518 14.997178 1.833779z" fill="#babbb3"/><path d="m178.316111 93.672093 20.53964-6.050336 10.758263-5.952365-19.215109 1.543134z" fill="#3e7e90"/><path d="m100.234946 65.038551-92.882794-18.034151 91.066793 14.460005 13.261351 9.304909z" fill="#a6c2c7"/><path d="m142.227616 55.446551 25.581267 5.469485 32.665557 6.381584-51.01702-4.94807z" fill="#8bb2bc"/><path d="m117.180711 92.558903-48.861242-.916662 48.286237 1.410261-54.221251-14.211695z" fill="#5d6a5b"/><path d="m128.115675 63.114474 1.579722-7.263699-23.431813 1.469282 18.51704 2.406554z" fill="#86b6c1"/><path d="m77.047801 135.872531-25.191821-6.506084 57.252776-19.906306-29.541429 20.20973z" fill="#01333a"/><path d="m110.689637 116.819333-2.649019-3.71485-44.380272 28.594745 60.535792-34.972588z" fill="#05333b"/><path d="m179.935679 116.288706-18.148164 17.482096-2.800756-5.420385 32.936583.370409z" fill="#002933"/><path d="m179.382269 57.00584-34.78244-2.00707-51.064871-2.14925 27.580423-2.188771z" fill="#b7d0d4"/><path d="m129.880247 94.311161 12.571683 22.320604-4.382181-9.201307-7.62952-9.713935z" fill="#325556"/><path d="m137.506292 65.426724-13.880292-3.090625-24.924195 17.488582 37.678129-18.468753z" fill="#082a32"/><path d="m55.480642 107.156658 14.591428-11.338259-7.150835-.840701 14.312541 4.724485z" fill="#244f55"/><path d="m246.554432 84.479115-7.767969-3.515071 25.781771-4.706501-10.081322 8.097657z" fill="#05768e"/><path d="m106.355844 99.648539 12.297587-.660665-15.668873 2.659977-8.562977-4.871173z" fill="#0e4b50"/><path d="m111.939114 106.407818-17.685366 26.81753-105.71566 10.661827 112.956281-16.169167z" fill="#002d32"/><path d="m128.204405 101.311188 2.004698-2.697713-18.791521-1.196759 15.464326-.303791z" fill="#646c4c"/><path d="m121.350122 114.761294-40.867463 17.294701 26.82939-4.731878 20.006234-21.828395z" fill="#032d35"/><path d="m125.289289 82.064596 34.412483-4.724319-4.619169-11.284538-7.484024 1.091842z" fill="#02191f"/><path d="m101.818995 64.029207 4.05174 8.176834-23.90318-2.550856 25.366501-2.513854z" fill="#95b0b7"/></g></svg>