<svg xmlns="http://www.w3.org/2000/svg" version="1.1" width="1024" height="668">
<rect x="0" y="0" width="1024" height="668" fill="#716556" />
<g transform="scale(4.000000) translate(0.5 0.5)">
<g transform="translate(9 27) rotate(183) scale(31 66)"><rect fill="#f2ffff" fill-opacity="0.501961" x="-0.5" y="-0.5" width="1" height="1" /></g>
<g transform="translate(122 144) rotate(282) scale(115 38)"><rect fill="#ffdcae" fill-opacity="0.501961" x="-0.5" y="-0.5" width="1" height="1" /></g>
<g transform="translate(232 24) rotate(249) scale(99 106)"><rect fill="#06150c" fill-opacity="0.501961" x="-0.5" y="-0.5" width="1" height="1" /></g>
<g transform="translate(106 19) rotate(358) scale(36 29)"><rect fill="#ffffff" fill-opacity="0.501961" x="-0.5" y="-0.5" width="1" height="1" /></g>
<g transform="translate(37 106) rotate(253) scale(12 105)"><rect fill="#fff5bc" fill-opacity="0.501961" x="-0.5" y="-0.5" width="1" height="1" /></g>
<g transform="translate(160 83) rotate(269) scale(40 49)"><rect fill="#2d0b03" fill-opacity="0.501961" x="-0.5" y="-0.5" width="1" height="1" /></g>
<g transform="translate(200 166) rotate(20) scale(99 40)"><rect fill="#110d13" fill-opacity="0.501961" x="-0.5" y="-0.5" width="1" height="1" /></g>
<g transform="translate(152 50) rotate(368) scale(47 19)"><rect fill="#dbdb9b" fill-opacity="0.501961" x="-0.5" y="-0.5" width="1" height="1" /></g>
<g transform="translate(125 98) rotate(82) scale(48 17)"><rect fill="#ffefde" fill-opacity="0.501961" x="-0.5" y="-0.5" width="1" height="1" /></g>
<g transform="translate(74 56) rotate(91) scale(55 43)"><rect fill="#979993" fill-opacity="0.501961" x="-0.5" y="-0.5" width="1" height="1" /></g>
<g transform="translate(33 23) rotate(271) scale(149 9)"><rect fill="#170000" fill-opacity="0.501961" x="-0.5" y="-0.5" width="1" height="1" /></g>
<g transform="translate(168 122) rotate(185) scale(26 32)"><rect fill="#deb289" fill-opacity="0.501961" x="-0.5" y="-0.5" width="1" height="1" /></g>
<g transform="translate(115 52) rotate(174) scale(29 36)"><rect fill="#33120d" fill-opacity="0.501961" x="-0.5" y="-0.5" width="1" height="1" /></g>
<g transform="translate(13 130) rotate(253) scale(17 48)"><rect fill="#0d101c" fill-opacity="0.501961" x="-0.5" y="-0.5" width="1" height="1" /></g>
<g transform="translate(75 166) rotate(136) scale(40 23)"><rect fill="#05040f" fill-opacity="0.501961" x="-0.5" y="-0.5" width="1" height="1" /></g>
<g transform="translate(0 40) rotate(45) scale(38 41)"><rect fill="#dbeeff" fill-opacity="0.501961" x="-0.5" y="-0.5" width="1" height="1" /></g>
<g transform="translate(170 26) rotate(123) scale(40 69)"><rect fill="#6a671b" fill-opacity="0.501961" x="-0.5" y="-0.5" width="1" height="1" /></g>
<g transform="translate(221 139) rotate(302) scale(10 78)"><rect fill="#ddaf85" fill-opacity="0.501961" x="-0.5" y="-0.5" width="1" height="1" /></g>
<g transform="translate(56 10) rotate(221) scale(52 17)"><rect fill="#1b242a" fill-opacity="0.501961" x="-0.5" y="-0.5" width="1" height="1" /></g>
<g transform="translate(210 101) rotate(307) scale(38 76)"><rect fill="#55453b" fill-opacity="0.501961" x="-0.5" y="-0.5" width="1" height="1" /></g>
<g transform="translate(247 96) rotate(186) scale(47 5)"><rect fill="#fffce3" fill-opacity="0.501961" x="-0.5" y="-0.5" width="1" height="1" /></g>
<g transform="translate(54 141) rotate(159) scale(62 13)"><rect fill="#30282a" fill-opacity="0.501961" x="-0.5" y="-0.5" width="1" height="1" /></g>
<g transform="translate(101 118) rotate(224) scale(58 23)"><rect fill="#8e7364" fill-opacity="0.501961" x="-0.5" y="-0.5" width="1" height="1" /></g>
<g transform="translate(111 21) rotate(156) scale(14 23)"><rect fill="#ffffff" fill-opacity="0.501961" x="-0.5" y="-0.5" width="1" height="1" /></g>
<g transform="translate(72 115) rotate(240) scale(7 71)"><rect fill="#cfab91" fill-opacity="0.501961" x="-0.5" y="-0.5" width="1" height="1" /></g>
<g transform="translate(18 64) rotate(162) scale(61 8)"><rect fill="#1e2127" fill-opacity="0.501961" x="-0.5" y="-0.5" width="1" height="1" /></g>
<g transform="translate(221 78) rotate(184) scale(20 15)"><rect fill="#b8a862" fill-opacity="0.501961" x="-0.5" y="-0.5" width="1" height="1" /></g>
<g transform="translate(135 151) rotate(182) scale(22 66)"><rect fill="#dab185" fill-opacity="0.501961" x="-0.5" y="-0.5" width="1" height="1" /></g>
<g transform="translate(0 0) rotate(14) scale(10 28)"><rect fill="#000000" fill-opacity="0.501961" x="-0.5" y="-0.5" width="1" height="1" /></g>
<g transform="translate(47 102) rotate(65) scale(13 41)"><rect fill="#ffc597" fill-opacity="0.501961" x="-0.5" y="-0.5" width="1" height="1" /></g>
<g transform="translate(255 25) rotate(111) scale(43 76)"><rect fill="#0d1924" fill-opacity="0.501961" x="-0.5" y="-0.5" width="1" height="1" /></g>
<g transform="translate(140 39) rotate(136) scale(30 4)"><rect fill="#ffffe5" fill-opacity="0.501961" x="-0.5" y="-0.5" width="1" height="1" /></g>
<g transform="translate(59 54) rotate(57) scale(13 15)"><rect fill="#d4dde5" fill-opacity="0.501961" x="-0.5" y="-0.5" width="1" height="1" /></g>
<g transform="translate(57 65) rotate(286) scale(11 63)"><rect fill="#413f3d" fill-opacity="0.501961" x="-0.5" y="-0.5" width="1" height="1" /></g>
<g transform="translate(137 82) rotate(243) scale(72 14)"><rect fill="#794a2c" fill-opacity="0.501961" x="-0.5" y="-0.5" width="1" height="1" /></g>
<g transform="translate(44 29) rotate(79) scale(10 13)"><rect fill="#bcd3ec" fill-opacity="0.501961" x="-0.5" y="-0.5" width="1" height="1" /></g>
<g transform="translate(98 8) rotate(79) scale(48 2)"><rect fill="#381714" fill-opacity="0.501961" x="-0.5" y="-0.5" width="1" height="1" /></g>
<g transform="translate(193 74) rotate(0) scale(7 20)"><rect fill="#cbcaa3" fill-opacity="0.501961" x="-0.5" y="-0.5" width="1" height="1" /></g>
<g transform="translate(236 51) rotate(307) scale(8 32)"><rect fill="#7a8282" fill-opacity="0.501961" x="-0.5" y="-0.5" width="1" height="1" /></g>
<g transform="translate(80 0) rotate(202) scale(21 5)"><rect fill="#d0eaff" fill-opacity="0.501961" x="-0.5" y="-0.5" width="1" height="1" /></g>
<g transform="translate(92 55) rotate(90) scale(44 9)"><rect fill="#ceb09a" fill-opacity="0.501961" x="-0.5" y="-0.5" width="1" height="1" /></g>
<g transform="translate(205 75) rotate(289) scale(48 6)"><rect fill="#00041e" fill-opacity="0.501961" x="-0.5" y="-0.5" width="1" height="1" /></g>
<g transform="translate(160 70) rotate(14) scale(63 15)"><rect fill="#271e24" fill-opacity="0.501961" x="-0.5" y="-0.5" width="1" height="1" /></g>
<g transform="translate(232 102) rotate(14) scale(40 5)"><rect fill="#06101d" fill-opacity="0.501961" x="-0.5" y="-0.5" width="1" height="1" /></g>
<g transform="translate(10 18) rotate(169) scale(24 13)"><rect fill="#daedff" fill-opacity="0.501961" x="-0.5" y="-0.5" width="1" height="1" /></g>
<g transform="translate(78 45) rotate(3) scale(19 14)"><rect fill="#48402b" fill-opacity="0.501961" x="-0.5" y="-0.5" width="1" height="1" /></g>
<g transform="translate(196 144) rotate(16) scale(83 11)"><rect fill="#574439" fill-opacity="0.501961" x="-0.5" y="-0.5" width="1" height="1" /></g>
<g transform="translate(140 6) rotate(124) scale(43 4)"><rect fill="#d9e798" fill-opacity="0.501961" x="-0.5" y="-0.5" width="1" height="1" /></g>
<g transform="translate(62 78) rotate(175) scale(17 14)"><rect fill="#afbccf" fill-opacity="0.501961" x="-0.5" y="-0.5" width="1" height="1" /></g>
<g transform="translate(15 95) rotate(339) scale(26 4)"><rect fill="#e8bb91" fill-opacity="0.501961" x="-0.5" y="-0.5" width="1" height="1" /></g>
<g transform="translate(94 143) rotate(216) scale(13 53)"><rect fill="#453a34" fill-opacity="0.501961" x="-0.5" y="-0.5" width="1" height="1" /></g>
<g transform="translate(246 77) rotate(266) scale(30 21)"><rect fill="#252d2d" fill-opacity="0.501961" x="-0.5" y="-0.5" width="1" height="1" /></g>
<g transform="translate(180 44) rotate(315) scale(42 13)"><rect fill="#948f53" fill-opacity="0.501961" x="-0.5" y="-0.5" width="1" height="1" /></g>
<g transform="translate(100 67) rotate(33) scale(20 6)"><rect fill="#200e0d" fill-opacity="0.501961" x="-0.5" y="-0.5" width="1" height="1" /></g>
<g transform="translate(145 139) rotate(326) scale(1 44)"><rect fill="#30201d" fill-opacity="0.501961" x="-0.5" y="-0.5" width="1" height="1" /></g>
<g transform="translate(31 14) rotate(360) scale(11 53)"><rect fill="#1c141f" fill-opacity="0.501961" x="-0.5" y="-0.5" width="1" height="1" /></g>
<g transform="translate(164 111) rotate(281) scale(12 11)"><rect fill="#ffe8be" fill-opacity="0.501961" x="-0.5" y="-0.5" width="1" height="1" /></g>
<g transform="translate(31 74) rotate(260) scale(53 11)"><rect fill="#583826" fill-opacity="0.501961" x="-0.5" y="-0.5" width="1" height="1" /></g>
<g transform="translate(13 111) rotate(358) scale(29 10)"><rect fill="#ffcb9b" fill-opacity="0.501961" x="-0.5" y="-0.5" width="1" height="1" /></g>
<g transform="translate(255 141) rotate(109) scale(4 68)"><rect fill="#080611" fill-opacity="0.501961" x="-0.5" y="-0.5" width="1" height="1" /></g>
<g transform="translate(98 26) rotate(246) scale(22 2)"><rect fill="#ffffff" fill-opacity="0.501961" x="-0.5" y="-0.5" width="1" height="1" /></g>
<g transform="translate(168 3) rotate(350) scale(38 21)"><rect fill="#25281b" fill-opacity="0.501961" x="-0.5" y="-0.5" width="1" height="1" /></g>
<g transform="translate(87 98) rotate(144) scale(43 6)"><rect fill="#3f312d" fill-opacity="0.501961" x="-0.5" y="-0.5" width="1" height="1" /></g>
<g transform="translate(166 48) rotate(146) scale(25 5)"><rect fill="#cdd0c3" fill-opacity="0.501961" x="-0.5" y="-0.5" width="1" height="1" /></g>
<g transform="translate(152 112) rotate(212) scale(5 29)"><rect fill="#2b1615" fill-opacity="0.501961" x="-0.5" y="-0.5" width="1" height="1" /></g>
<g transform="translate(75 74) rotate(178) scale(16 32)"><rect fill="#565952" fill-opacity="0.501961" x="-0.5" y="-0.5" width="1" height="1" /></g>
<g transform="translate(0 46) rotate(88) scale(19 7)"><rect fill="#61615f" fill-opacity="0.501961" x="-0.5" y="-0.5" width="1" height="1" /></g>
<g transform="translate(114 9) rotate(68) scale(5 26)"><rect fill="#e3f3ff" fill-opacity="0.501961" x="-0.5" y="-0.5" width="1" height="1" /></g>
<g transform="translate(180 103) rotate(64) scale(18 31)"><rect fill="#9e775b" fill-opacity="0.501961" x="-0.5" y="-0.5" width="1" height="1" /></g>
<g transform="translate(164 31) rotate(158) scale(32 19)"><rect fill="#7d7c12" fill-opacity="0.501961" x="-0.5" y="-0.5" width="1" height="1" /></g>
<g transform="translate(66 152) rotate(46) scale(5 43)"><rect fill="#c19876" fill-opacity="0.501961" x="-0.5" y="-0.5" width="1" height="1" /></g>
<g transform="translate(128 106) rotate(320) scale(28 13)"><rect fill="#eed3b5" fill-opacity="0.501961" x="-0.5" y="-0.5" width="1" height="1" /></g>
<g transform="translate(10 56) rotate(244) scale(5 19)"><rect fill="#f8ffff" fill-opacity="0.501961" x="-0.5" y="-0.5" width="1" height="1" /></g>
<g transform="translate(15 7) rotate(250) scale(1 46)"><rect fill="#2d3551" fill-opacity="0.501961" x="-0.5" y="-0.5" width="1" height="1" /></g>
<g transform="translate(186 121) rotate(265) scale(64 5)"><rect fill="#3b241c" fill-opacity="0.501961" x="-0.5" y="-0.5" width="1" height="1" /></g>
<g transform="translate(134 30) rotate(229) scale(14 42)"><rect fill="#58372d" fill-opacity="0.501961" x="-0.5" y="-0.5" width="1" height="1" /></g>
<g transform="translate(189 67) rotate(36) scale(25 4)"><rect fill="#a6af96" fill-opacity="0.501961" x="-0.5" y="-0.5" width="1" height="1" /></g>
<g transform="translate(172 128) rotate(289) scale(5 23)"><rect fill="#f2cba0" fill-opacity="0.501961" x="-0.5" y="-0.5" width="1" height="1" /></g>
<g transform="translate(53 114) rotate(329) scale(39 5)"><rect fill="#373236" fill-opacity="0.501961" x="-0.5" y="-0.5" width="1" height="1" /></g>
<g transform="translate(151 132) rotate(267) scale(45 7)"><rect fill="#4f2919" fill-opacity="0.501961" x="-0.5" y="-0.5" width="1" height="1" /></g>
<g transform="translate(206 119) rotate(90) scale(4 27)"><rect fill="#cda580" fill-opacity="0.501961" x="-0.5" y="-0.5" width="1" height="1" /></g>
<g transform="translate(111 103) rotate(181) scale(21 9)"><rect fill="#6d5147" fill-opacity="0.501961" x="-0.5" y="-0.5" width="1" height="1" /></g>
<g transform="translate(53 35) rotate(160) scale(12 16)"><rect fill="#3d3d3b" fill-opacity="0.501961" x="-0.5" y="-0.5" width="1" height="1" /></g>
<g transform="translate(12 86) rotate(192) scale(31 5)"><rect fill="#202e37" fill-opacity="0.501961" x="-0.5" y="-0.5" width="1" height="1" /></g>
<g transform="translate(4 33) rotate(292) scale(11 47)"><rect fill="#e3edff" fill-opacity="0.501961" x="-0.5" y="-0.5" width="1" height="1" /></g>
<g transform="translate(132 0) rotate(109) scale(44 4)"><rect fill="#323805" fill-opacity="0.501961" x="-0.5" y="-0.5" width="1" height="1" /></g>
<g transform="translate(88 20) rotate(257) scale(33 6)"><rect fill="#a68e68" fill-opacity="0.501961" x="-0.5" y="-0.5" width="1" height="1" /></g>
<g transform="translate(60 122) rotate(158) scale(21 11)"><rect fill="#d1aa89" fill-opacity="0.501961" x="-0.5" y="-0.5" width="1" height="1" /></g>
<g transform="translate(107 88) rotate(218) scale(12 18)"><rect fill="#6e3513" fill-opacity="0.501961" x="-0.5" y="-0.5" width="1" height="1" /></g>
<g transform="translate(19 27) rotate(-6) scale(14 8)"><rect fill="#58799b" fill-opacity="0.501961" x="-0.5" y="-0.5" width="1" height="1" /></g>
<g transform="translate(23 99) rotate(244) scale(7 13)"><rect fill="#1f1410" fill-opacity="0.501961" x="-0.5" y="-0.5" width="1" height="1" /></g>
<g transform="translate(85 84) rotate(289) scale(11 11)"><rect fill="#99aec6" fill-opacity="0.501961" x="-0.5" y="-0.5" width="1" height="1" /></g>
<g transform="translate(13 47) rotate(266) scale(4 25)"><rect fill="#7f93a5" fill-opacity="0.501961" x="-0.5" y="-0.5" width="1" height="1" /></g>
<g transform="translate(65 1) rotate(225) scale(25 4)"><rect fill="#9db8d1" fill-opacity="0.501961" x="-0.5" y="-0.5" width="1" height="1" /></g>
<g transform="translate(43 79) rotate(273) scale(6 9)"><rect fill="#c9cfdd" fill-opacity="0.501961" x="-0.5" y="-0.5" width="1" height="1" /></g>
<g transform="translate(102 26) rotate(326) scale(2 18)"><rect fill="#422c2d" fill-opacity="0.501961" x="-0.5" y="-0.5" width="1" height="1" /></g>
<g transform="translate(46 95) rotate(187) scale(9 7)"><rect fill="#ffdd94" fill-opacity="0.501961" x="-0.5" y="-0.5" width="1" height="1" /></g>
<g transform="translate(61 32) rotate(74) scale(14 9)"><rect fill="#b1b5b5" fill-opacity="0.501961" x="-0.5" y="-0.5" width="1" height="1" /></g>
<g transform="translate(21 78) rotate(269) scale(6 11)"><rect fill="#a0b7d1" fill-opacity="0.501961" x="-0.5" y="-0.5" width="1" height="1" /></g>
<g transform="translate(209 92) rotate(3) scale(26 19)"><rect fill="#3d3734" fill-opacity="0.501961" x="-0.5" y="-0.5" width="1" height="1" /></g>
<g transform="translate(92 6) rotate(245) scale(4 14)"><rect fill="#5b4c26" fill-opacity="0.501961" x="-0.5" y="-0.5" width="1" height="1" /></g>
<g transform="translate(176 166) rotate(91) scale(35 51)"><rect fill="#232429" fill-opacity="0.501961" x="-0.5" y="-0.5" width="1" height="1" /></g>
<g transform="translate(117 148) rotate(248) scale(11 33)"><rect fill="#e8c49a" fill-opacity="0.501961" x="-0.5" y="-0.5" width="1" height="1" /></g>
<g transform="translate(10 70) rotate(275) scale(7 15)"><rect fill="#071222" fill-opacity="0.501961" x="-0.5" y="-0.5" width="1" height="1" /></g>
<g transform="translate(242 56) rotate(222) scale(1 5)"><rect fill="#ffffff" fill-opacity="0.501961" x="-0.5" y="-0.5" width="1" height="1" /></g>
<g transform="translate(145 113) rotate(254) scale(13 2)"><rect fill="#fff4cb" fill-opacity="0.501961" x="-0.5" y="-0.5" width="1" height="1" /></g>
<g transform="translate(239 81) rotate(83) scale(7 55)"><rect fill="#938b6e" fill-opacity="0.501961" x="-0.5" y="-0.5" width="1" height="1" /></g>
<g transform="translate(129 65) rotate(404) scale(29 21)"><rect fill="#644937" fill-opacity="0.501961" x="-0.5" y="-0.5" width="1" height="1" /></g>
<g transform="translate(215 96) rotate(2) scale(17 3)"><rect fill="#b99270" fill-opacity="0.501961" x="-0.5" y="-0.5" width="1" height="1" /></g>
<g transform="translate(205 114) rotate(93) scale(4 27)"><rect fill="#101219" fill-opacity="0.501961" x="-0.5" y="-0.5" width="1" height="1" /></g>
<g transform="translate(78 123) rotate(245) scale(47 14)"><rect fill="#695d56" fill-opacity="0.501961" x="-0.5" y="-0.5" width="1" height="1" /></g>
<g transform="translate(113 132) rotate(91) scale(12 23)"><rect fill="#7c6551" fill-opacity="0.501961" x="-0.5" y="-0.5" width="1" height="1" /></g>
<g transform="translate(0 153) rotate(243) scale(7 61)"><rect fill="#b08a6d" fill-opacity="0.501961" x="-0.5" y="-0.5" width="1" height="1" /></g>
<g transform="translate(137 9) rotate(373) scale(13 6)"><rect fill="#c8ce81" fill-opacity="0.501961" x="-0.5" y="-0.5" width="1" height="1" /></g>
<g transform="translate(232 64) rotate(297) scale(12 30)"><rect fill="#131627" fill-opacity="0.501961" x="-0.5" y="-0.5" width="1" height="1" /></g>
<g transform="translate(145 56) rotate(256) scale(6 13)"><rect fill="#d2c8c0" fill-opacity="0.501961" x="-0.5" y="-0.5" width="1" height="1" /></g>
<g transform="translate(174 140) rotate(222) scale(29 1)"><rect fill="#b59273" fill-opacity="0.501961" x="-0.5" y="-0.5" width="1" height="1" /></g>
<g transform="translate(40 36) rotate(288) scale(7 4)"><rect fill="#ecffff" fill-opacity="0.501961" x="-0.5" y="-0.5" width="1" height="1" /></g>
<g transform="translate(94 51) rotate(289) scale(21 2)"><rect fill="#e4d0b9" fill-opacity="0.501961" x="-0.5" y="-0.5" width="1" height="1" /></g>
<g transform="translate(136 118) rotate(277) scale(34 1)"><rect fill="#845b3a" fill-opacity="0.501961" x="-0.5" y="-0.5" width="1" height="1" /></g>
<g transform="translate(132 129) rotate(328) scale(8 23)"><rect fill="#ebcfaa" fill-opacity="0.501961" x="-0.5" y="-0.5" width="1" height="1" /></g>
<g transform="translate(91 166) rotate(194) scale(9 51)"><rect fill="#372e2b" fill-opacity="0.501961" x="-0.5" y="-0.5" width="1" height="1" /></g>
<g transform="translate(203 103) rotate(372) scale(19 4)"><rect fill="#ba987c" fill-opacity="0.501961" x="-0.5" y="-0.5" width="1" height="1" /></g>
<g transform="translate(127 95) rotate(351) scale(15 19)"><rect fill="#f2e7d2" fill-opacity="0.501961" x="-0.5" y="-0.5" width="1" height="1" /></g>
<g transform="translate(132 15) rotate(249) scale(5 34)"><rect fill="#7f833f" fill-opacity="0.501961" x="-0.5" y="-0.5" width="1" height="1" /></g>
<g transform="translate(172 57) rotate(355) scale(29 10)"><rect fill="#6f6627" fill-opacity="0.501961" x="-0.5" y="-0.5" width="1" height="1" /></g>
<g transform="translate(52 49) rotate(106) scale(21 1)"><rect fill="#bdceda" fill-opacity="0.501961" x="-0.5" y="-0.5" width="1" height="1" /></g>
<g transform="translate(54 52) rotate(9) scale(1 78)"><rect fill="#444747" fill-opacity="0.501961" x="-0.5" y="-0.5" width="1" height="1" /></g>
<g transform="translate(206 110) rotate(184) scale(60 1)"><rect fill="#b59070" fill-opacity="0.501961" x="-0.5" y="-0.5" width="1" height="1" /></g>
<g transform="translate(94 17) rotate(259) scale(17 3)"><rect fill="#fbffff" fill-opacity="0.501961" x="-0.5" y="-0.5" width="1" height="1" /></g>
<g transform="translate(122 81) rotate(139) scale(9 18)"><rect fill="#b7bac5" fill-opacity="0.501961" x="-0.5" y="-0.5" width="1" height="1" /></g>
<g transform="translate(245 118) rotate(95) scale(2 37)"><rect fill="#1d181b" fill-opacity="0.501961" x="-0.5" y="-0.5" width="1" height="1" /></g>
<g transform="translate(72 88) rotate(176) scale(57 2)"><rect fill="#474749" fill-opacity="0.501961" x="-0.5" y="-0.5" width="1" height="1" /></g>
<g transform="translate(147 34) rotate(354) scale(6 12)"><rect fill="#d5d132" fill-opacity="0.501961" x="-0.5" y="-0.5" width="1" height="1" /></g>
<g transform="translate(132 16) rotate(107) scale(20 1)"><rect fill="#dfe2d1" fill-opacity="0.501961" x="-0.5" y="-0.5" width="1" height="1" /></g>
<g transform="translate(199 86) rotate(97) scale(19 8)"><rect fill="#08101e" fill-opacity="0.501961" x="-0.5" y="-0.5" width="1" height="1" /></g>
<g transform="translate(110 110) rotate(-4) scale(1 26)"><rect fill="#38180d" fill-opacity="0.501961" x="-0.5" y="-0.5" width="1" height="1" /></g>
<g transform="translate(106 4) rotate(324) scale(6 14)"><rect fill="#97a98a" fill-opacity="0.501961" x="-0.5" y="-0.5" width="1" height="1" /></g>
<g transform="translate(209 9) rotate(306) scale(36 8)"><rect fill="#0e171d" fill-opacity="0.501961" x="-0.5" y="-0.5" width="1" height="1" /></g>
<g transform="translate(215 153) rotate(126) scale(1 50)"><rect fill="#050e1c" fill-opacity="0.501961" x="-0.5" y="-0.5" width="1" height="1" /></g>
<g transform="translate(90 108) rotate(349) scale(18 4)"><rect fill="#ecceb3" fill-opacity="0.501961" x="-0.5" y="-0.5" width="1" height="1" /></g>
<g transform="translate(108 64) rotate(39) scale(10 26)"><rect fill="#2f2121" fill-opacity="0.501961" x="-0.5" y="-0.5" width="1" height="1" /></g>
<g transform="translate(91 59) rotate(150) scale(16 6)"><rect fill="#b7b6a2" fill-opacity="0.501961" x="-0.5" y="-0.5" width="1" height="1" /></g>
<g transform="translate(109 21) rotate(60) scale(18 11)"><rect fill="#f1f7ff" fill-opacity="0.501961" x="-0.5" y="-0.5" width="1" height="1" /></g>
<g transform="translate(222 166) rotate(41) scale(74 4)"><rect fill="#7c634f" fill-opacity="0.501961" x="-0.5" y="-0.5" width="1" height="1" /></g>
<g transform="translate(52 32) rotate(102) scale(43 3)"><rect fill="#232229" fill-opacity="0.501961" x="-0.5" y="-0.5" width="1" height="1" /></g>
<g transform="translate(106 120) rotate(100) scale(22 1)"><rect fill="#ddbb99" fill-opacity="0.501961" x="-0.5" y="-0.5" width="1" height="1" /></g>
<g transform="translate(39 123) rotate(96) scale(18 16)"><rect fill="#4d413a" fill-opacity="0.501961" x="-0.5" y="-0.5" width="1" height="1" /></g>
<g transform="translate(210 29) rotate(70) scale(15 8)"><rect fill="#676c62" fill-opacity="0.501961" x="-0.5" y="-0.5" width="1" height="1" /></g>
<g transform="translate(57 24) rotate(367) scale(1 16)"><rect fill="#a9b8c4" fill-opacity="0.501961" x="-0.5" y="-0.5" width="1" height="1" /></g>
<g transform="translate(136 43) rotate(51) scale(1 20)"><rect fill="#ffffff" fill-opacity="0.501961" x="-0.5" y="-0.5" width="1" height="1" /></g>
<g transform="translate(137 35) rotate(50) scale(6 12)"><rect fill="#5e372a" fill-opacity="0.501961" x="-0.5" y="-0.5" width="1" height="1" /></g>
<g transform="translate(199 126) rotate(22) scale(19 5)"><rect fill="#eec89d" fill-opacity="0.501961" x="-0.5" y="-0.5" width="1" height="1" /></g>
<g transform="translate(46 25) rotate(358) scale(11 4)"><rect fill="#d1e8ff" fill-opacity="0.501961" x="-0.5" y="-0.5" width="1" height="1" /></g>
<g transform="translate(170 115) rotate(318) scale(5 7)"><rect fill="#ffe9bf" fill-opacity="0.501961" x="-0.5" y="-0.5" width="1" height="1" /></g>
<g transform="translate(80 38) rotate(265) scale(49 2)"><rect fill="#423b26" fill-opacity="0.501961" x="-0.5" y="-0.5" width="1" height="1" /></g>
<g transform="translate(187 44) rotate(189) scale(20 13)"><rect fill="#514831" fill-opacity="0.501961" x="-0.5" y="-0.5" width="1" height="1" /></g>
<g transform="translate(22 2) rotate(271) scale(24 8)"><rect fill="#7b9ac3" fill-opacity="0.501961" x="-0.5" y="-0.5" width="1" height="1" /></g>
<g transform="translate(87 35) rotate(213) scale(14 3)"><rect fill="#ddd2be" fill-opacity="0.501961" x="-0.5" y="-0.5" width="1" height="1" /></g>
<g transform="translate(195 68) rotate(331) scale(11 2)"><rect fill="#b9baad" fill-opacity="0.501961" x="-0.5" y="-0.5" width="1" height="1" /></g>
<g transform="translate(166 70) rotate(11) scale(35 15)"><rect fill="#292025" fill-opacity="0.501961" x="-0.5" y="-0.5" width="1" height="1" /></g>
<g transform="translate(32 59) rotate(186) scale(24 20)"><rect fill="#483931" fill-opacity="0.501961" x="-0.5" y="-0.5" width="1" height="1" /></g>
<g transform="translate(206 125) rotate(46) scale(29 3)"><rect fill="#65523f" fill-opacity="0.501961" x="-0.5" y="-0.5" width="1" height="1" /></g>
<g transform="translate(234 146) rotate(22) scale(34 17)"><rect fill="#a6876a" fill-opacity="0.501961" x="-0.5" y="-0.5" width="1" height="1" /></g>
<g transform="translate(145 33) rotate(10) scale(1 52)"><rect fill="#a29c66" fill-opacity="0.501961" x="-0.5" y="-0.5" width="1" height="1" /></g>
<g transform="translate(124 0) rotate(374) scale(30 6)"><rect fill="#3f470f" fill-opacity="0.501961" x="-0.5" y="-0.5" width="1" height="1" /></g>
<g transform="translate(112 75) rotate(241) scale(4 41)"><rect fill="#956040" fill-opacity="0.501961" x="-0.5" y="-0.5" width="1" height="1" /></g>
<g transform="translate(32 32) rotate(-8) scale(12 13)"><rect fill="#483026" fill-opacity="0.501961" x="-0.5" y="-0.5" width="1" height="1" /></g>
<g transform="translate(99 97) rotate(313) scale(3 6)"><rect fill="#ffe8c6" fill-opacity="0.501961" x="-0.5" y="-0.5" width="1" height="1" /></g>
<g transform="translate(215 70) rotate(256) scale(18 7)"><rect fill="#76651b" fill-opacity="0.501961" x="-0.5" y="-0.5" width="1" height="1" /></g>
<g transform="translate(33 102) rotate(345) scale(73 3)"><rect fill="#ca9e72" fill-opacity="0.501961" x="-0.5" y="-0.5" width="1" height="1" /></g>
<g transform="translate(227 78) rotate(72) scale(12 5)"><rect fill="#cbbd94" fill-opacity="0.501961" x="-0.5" y="-0.5" width="1" height="1" /></g>
<g transform="translate(62 41) rotate(194) scale(9 6)"><rect fill="#332e20" fill-opacity="0.501961" x="-0.5" y="-0.5" width="1" height="1" /></g>
<g transform="translate(223 95) rotate(41) scale(22 1)"><rect fill="#090d1b" fill-opacity="0.501961" x="-0.5" y="-0.5" width="1" height="1" /></g>
<g transform="translate(242 94) rotate(92) scale(1 33)"><rect fill="#f5dad8" fill-opacity="0.501961" x="-0.5" y="-0.5" width="1" height="1" /></g>
<g transform="translate(220 40) rotate(10) scale(18 26)"><rect fill="#282c22" fill-opacity="0.501961" x="-0.5" y="-0.5" width="1" height="1" /></g>
<g transform="translate(90 120) rotate(235) scale(19 13)"><rect fill="#9d8776" fill-opacity="0.501961" x="-0.5" y="-0.5" width="1" height="1" /></g>
<g transform="translate(114 44) rotate(78) scale(23 14)"><rect fill="#402c26" fill-opacity="0.501961" x="-0.5" y="-0.5" width="1" height="1" /></g>
<g transform="translate(79 74) rotate(277) scale(6 21)"><rect fill="#3b4343" fill-opacity="0.501961" x="-0.5" y="-0.5" width="1" height="1" /></g>
<g transform="translate(168 122) rotate(10) scale(46 4)"><rect fill="#745845" fill-opacity="0.501961" x="-0.5" y="-0.5" width="1" height="1" /></g>
<g transform="translate(121 26) rotate(29) scale(5 8)"><rect fill="#ffffff" fill-opacity="0.501961" x="-0.5" y="-0.5" width="1" height="1" /></g>
<g transform="translate(221 141) rotate(22) scale(33 3)"><rect fill="#d9b791" fill-opacity="0.501961" x="-0.5" y="-0.5" width="1" height="1" /></g>
<g transform="translate(96 36) rotate(320) scale(1 9)"><rect fill="#0c0309" fill-opacity="0.501961" x="-0.5" y="-0.5" width="1" height="1" /></g>
<g transform="translate(129 12) rotate(104) scale(29 3)"><rect fill="#40350f" fill-opacity="0.501961" x="-0.5" y="-0.5" width="1" height="1" /></g>
<g transform="translate(137 43) rotate(163) scale(13 6)"><rect fill="#f6f6fb" fill-opacity="0.501961" x="-0.5" y="-0.5" width="1" height="1" /></g>
<g transform="translate(6 104) rotate(-17) scale(27 2)"><rect fill="#33271e" fill-opacity="0.501961" x="-0.5" y="-0.5" width="1" height="1" /></g>
<g transform="translate(69 99) rotate(84) scale(1 24)"><rect fill="#fff2d7" fill-opacity="0.501961" x="-0.5" y="-0.5" width="1" height="1" /></g>
<g transform="translate(164 136) rotate(322) scale(1 51)"><rect fill="#372d28" fill-opacity="0.501961" x="-0.5" y="-0.5" width="1" height="1" /></g>
<g transform="translate(26 155) rotate(166) scale(27 16)"><rect fill="#58483e" fill-opacity="0.501961" x="-0.5" y="-0.5" width="1" height="1" /></g>
<g transform="translate(10 138) rotate(66) scale(5 24)"><rect fill="#191b22" fill-opacity="0.501961" x="-0.5" y="-0.5" width="1" height="1" /></g>
<g transform="translate(83 91) rotate(71) scale(1 14)"><rect fill="#fffeb9" fill-opacity="0.501961" x="-0.5" y="-0.5" width="1" height="1" /></g>
<g transform="translate(58 0) rotate(54) scale(8 18)"><rect fill="#12161c" fill-opacity="0.501961" x="-0.5" y="-0.5" width="1" height="1" /></g>
<g transform="translate(95 89) rotate(212) scale(6 15)"><rect fill="#37221d" fill-opacity="0.501961" x="-0.5" y="-0.5" width="1" height="1" /></g>
<g transform="translate(27 25) rotate(259) scale(1 23)"><rect fill="#2c2a2b" fill-opacity="0.501961" x="-0.5" y="-0.5" width="1" height="1" /></g>
<g transform="translate(224 77) rotate(95) scale(2 28)"><rect fill="#5f550d" fill-opacity="0.501961" x="-0.5" y="-0.5" width="1" height="1" /></g>
<g transform="translate(157 133) rotate(231) scale(10 1)"><rect fill="#ffdfae" fill-opacity="0.501961" x="-0.5" y="-0.5" width="1" height="1" /></g>
<g transform="translate(251 127) rotate(293) scale(10 26)"><rect fill="#a27a5d" fill-opacity="0.501961" x="-0.5" y="-0.5" width="1" height="1" /></g>
<g transform="translate(152 24) rotate(-11) scale(9 8)"><rect fill="#202b11" fill-opacity="0.501961" x="-0.5" y="-0.5" width="1" height="1" /></g>
<g transform="translate(162 9) rotate(-15) scale(9 12)"><rect fill="#838523" fill-opacity="0.501961" x="-0.5" y="-0.5" width="1" height="1" /></g>
<g transform="translate(77 48) rotate(262) scale(53 3)"><rect fill="#94896d" fill-opacity="0.501961" x="-0.5" y="-0.5" width="1" height="1" /></g>
<g transform="translate(8 58) rotate(337) scale(27 4)"><rect fill="#dae7fc" fill-opacity="0.501961" x="-0.5" y="-0.5" width="1" height="1" /></g>
<g transform="translate(62 93) rotate(87) scale(1 38)"><rect fill="#ffef9f" fill-opacity="0.501961" x="-0.5" y="-0.5" width="1" height="1" /></g>
<g transform="translate(94 74) rotate(70) scale(11 8)"><rect fill="#adb3bd" fill-opacity="0.501961" x="-0.5" y="-0.5" width="1" height="1" /></g>
<g transform="translate(115 112) rotate(268) scale(30 5)"><rect fill="#ccb29b" fill-opacity="0.501961" x="-0.5" y="-0.5" width="1" height="1" /></g>
<g transform="translate(16 0) rotate(146) scale(26 5)"><rect fill="#a5c6f8" fill-opacity="0.501961" x="-0.5" y="-0.5" width="1" height="1" /></g>
<g transform="translate(204 86) rotate(280) scale(14 1)"><rect fill="#a79770" fill-opacity="0.501961" x="-0.5" y="-0.5" width="1" height="1" /></g>
<g transform="translate(102 14) rotate(275) scale(20 1)"><rect fill="#eaf6fe" fill-opacity="0.501961" x="-0.5" y="-0.5" width="1" height="1" /></g>
<g transform="translate(189 34) rotate(292) scale(3 21)"><rect fill="#a29c39" fill-opacity="0.501961" x="-0.5" y="-0.5" width="1" height="1" /></g>
<g transform="translate(137 54) rotate(127) scale(2 5)"><rect fill="#ffffff" fill-opacity="0.501961" x="-0.5" y="-0.5" width="1" height="1" /></g>
<g transform="translate(37 74) rotate(354) scale(3 44)"><rect fill="#492217" fill-opacity="0.501961" x="-0.5" y="-0.5" width="1" height="1" /></g>
<g transform="translate(252 133) rotate(81) scale(4 33)"><rect fill="#3d2c27" fill-opacity="0.501961" x="-0.5" y="-0.5" width="1" height="1" /></g>
<g transform="translate(179 19) rotate(94) scale(12 29)"><rect fill="#40382b" fill-opacity="0.501961" x="-0.5" y="-0.5" width="1" height="1" /></g>
<g transform="translate(208 75) rotate(358) scale(5 36)"><rect fill="#0a1122" fill-opacity="0.501961" x="-0.5" y="-0.5" width="1" height="1" /></g>
<g transform="translate(136 161) rotate(0) scale(19 26)"><rect fill="#bd9a72" fill-opacity="0.501961" x="-0.5" y="-0.5" width="1" height="1" /></g>
<g transform="translate(57 146) rotate(142) scale(21 9)"><rect fill="#443832" fill-opacity="0.501961" x="-0.5" y="-0.5" width="1" height="1" /></g>
<g transform="translate(141 57) rotate(107) scale(14 1)"><rect fill="#42291a" fill-opacity="0.501961" x="-0.5" y="-0.5" width="1" height="1" /></g>
<g transform="translate(160 29) rotate(163) scale(21 3)"><rect fill="#b7b331" fill-opacity="0.501961" x="-0.5" y="-0.5" width="1" height="1" /></g>
<g transform="translate(22 46) rotate(205) scale(9 1)"><rect fill="#f6ffff" fill-opacity="0.501961" x="-0.5" y="-0.5" width="1" height="1" /></g>
<g transform="translate(148 132) rotate(182) scale(1 63)"><rect fill="#5c2a14" fill-opacity="0.501961" x="-0.5" y="-0.5" width="1" height="1" /></g>
<g transform="translate(27 121) rotate(266) scale(6 54)"><rect fill="#5f5148" fill-opacity="0.501961" x="-0.5" y="-0.5" width="1" height="1" /></g>
<g transform="translate(233 40) rotate(124) scale(6 11)"><rect fill="#636651" fill-opacity="0.501961" x="-0.5" y="-0.5" width="1" height="1" /></g>
<g transform="translate(193 60) rotate(292) scale(2 37)"><rect fill="#11131f" fill-opacity="0.501961" x="-0.5" y="-0.5" width="1" height="1" /></g>
<g transform="translate(83 23) rotate(276) scale(1 16)"><rect fill="#46381d" fill-opacity="0.501961" x="-0.5" y="-0.5" width="1" height="1" /></g>
<g transform="translate(190 95) rotate(153) scale(5 1)"><rect fill="#ffffda" fill-opacity="0.501961" x="-0.5" y="-0.5" width="1" height="1" /></g>
<g transform="translate(171 107) rotate(378) scale(22 1)"><rect fill="#ebc6a2" fill-opacity="0.501961" x="-0.5" y="-0.5" width="1" height="1" /></g>
<g transform="translate(100 33) rotate(182) scale(9 4)"><rect fill="#f2f7ff" fill-opacity="0.501961" x="-0.5" y="-0.5" width="1" height="1" /></g>
<g transform="translate(62 52) rotate(21) scale(16 2)"><rect fill="#e2e4e6" fill-opacity="0.501961" x="-0.5" y="-0.5" width="1" height="1" /></g>
<g transform="translate(139 123) rotate(66) scale(8 4)"><rect fill="#fff2d1" fill-opacity="0.501961" x="-0.5" y="-0.5" width="1" height="1" /></g>
<g transform="translate(22 35) rotate(149) scale(1 16)"><rect fill="#e6f3ff" fill-opacity="0.501961" x="-0.5" y="-0.5" width="1" height="1" /></g>
<g transform="translate(104 108) rotate(98) scale(19 1)"><rect fill="#341a11" fill-opacity="0.501961" x="-0.5" y="-0.5" width="1" height="1" /></g>
<g transform="translate(168 46) rotate(-75) scale(2 40)"><rect fill="#908a27" fill-opacity="0.501961" x="-0.5" y="-0.5" width="1" height="1" /></g>
<g transform="translate(226 101) rotate(188) scale(66 1)"><rect fill="#111922" fill-opacity="0.501961" x="-0.5" y="-0.5" width="1" height="1" /></g>
<g transform="translate(14 115) rotate(80) scale(3 38)"><rect fill="#f1caaa" fill-opacity="0.501961" x="-0.5" y="-0.5" width="1" height="1" /></g>
<g transform="translate(4 98) rotate(179) scale(19 5)"><rect fill="#d5a580" fill-opacity="0.501961" x="-0.5" y="-0.5" width="1" height="1" /></g>
<g transform="translate(159 36) rotate(184) scale(20 4)"><rect fill="#36381d" fill-opacity="0.501961" x="-0.5" y="-0.5" width="1" height="1" /></g>
<g transform="translate(15 48) rotate(121) scale(1 15)"><rect fill="#4f6a83" fill-opacity="0.501961" x="-0.5" y="-0.5" width="1" height="1" /></g>
<g transform="translate(61 77) rotate(184) scale(19 14)"><rect fill="#9ea5ae" fill-opacity="0.501961" x="-0.5" y="-0.5" width="1" height="1" /></g>
<g transform="translate(72 74) rotate(234) scale(23 4)"><rect fill="#36383a" fill-opacity="0.501961" x="-0.5" y="-0.5" width="1" height="1" /></g>
<g transform="translate(117 11) rotate(35) scale(6 10)"><rect fill="#f0f8ff" fill-opacity="0.501961" x="-0.5" y="-0.5" width="1" height="1" /></g>
<g transform="translate(134 149) rotate(96) scale(4 5)"><rect fill="#936200" fill-opacity="0.501961" x="-0.5" y="-0.5" width="1" height="1" /></g>
<g transform="translate(84 43) rotate(343) scale(6 15)"><rect fill="#42402e" fill-opacity="0.501961" x="-0.5" y="-0.5" width="1" height="1" /></g>
<g transform="translate(23 74) rotate(64) scale(20 2)"><rect fill="#84919a" fill-opacity="0.501961" x="-0.5" y="-0.5" width="1" height="1" /></g>
<g transform="translate(111 4) rotate(-18) scale(1 13)"><rect fill="#414929" fill-opacity="0.501961" x="-0.5" y="-0.5" width="1" height="1" /></g>
<g transform="translate(180 111) rotate(187) scale(26 1)"><rect fill="#4b3c32" fill-opacity="0.501961" x="-0.5" y="-0.5" width="1" height="1" /></g>
<g transform="translate(251 36) rotate(291) scale(28 20)"><rect fill="#0e1a2a" fill-opacity="0.501961" x="-0.5" y="-0.5" width="1" height="1" /></g>
<g transform="translate(73 12) rotate(67) scale(11 1)"><rect fill="#9cb3c7" fill-opacity="0.501961" x="-0.5" y="-0.5" width="1" height="1" /></g>
<g transform="translate(16 62) rotate(233) scale(9 2)"><rect fill="#01192b" fill-opacity="0.501961" x="-0.5" y="-0.5" width="1" height="1" /></g>
<g transform="translate(34 17) rotate(270) scale(3 23)"><rect fill="#262d38" fill-opacity="0.501961" x="-0.5" y="-0.5" width="1" height="1" /></g>
<g transform="translate(143 118) rotate(162) scale(1 9)"><rect fill="#481e0d" fill-opacity="0.501961" x="-0.5" y="-0.5" width="1" height="1" /></g>
<g transform="translate(252 101) rotate(281) scale(3 32)"><rect fill="#ae8a6e" fill-opacity="0.501961" x="-0.5" y="-0.5" width="1" height="1" /></g>
<g transform="translate(15 17) rotate(15) scale(15 11)"><rect fill="#d5e2ff" fill-opacity="0.501961" x="-0.5" y="-0.5" width="1" height="1" /></g>
<g transform="translate(73 101) rotate(265) scale(1 38)"><rect fill="#786259" fill-opacity="0.501961" x="-0.5" y="-0.5" width="1" height="1" /></g>
<g transform="translate(227 0) rotate(270) scale(13 3)"><rect fill="#728298" fill-opacity="0.501961" x="-0.5" y="-0.5" width="1" height="1" /></g>
<g transform="translate(243 20) rotate(30) scale(5 20)"><rect fill="#545326" fill-opacity="0.501961" x="-0.5" y="-0.5" width="1" height="1" /></g>
<g transform="translate(237 56) rotate(59) scale(1 30)"><rect fill="#5c605d" fill-opacity="0.501961" x="-0.5" y="-0.5" width="1" height="1" /></g>
<g transform="translate(25 0) rotate(323) scale(28 1)"><rect fill="#31394b" fill-opacity="0.501961" x="-0.5" y="-0.5" width="1" height="1" /></g>
<g transform="translate(87 0) rotate(230) scale(4 17)"><rect fill="#c4d4e7" fill-opacity="0.501961" x="-0.5" y="-0.5" width="1" height="1" /></g>
<g transform="translate(146 49) rotate(160) scale(4 6)"><rect fill="#3f4435" fill-opacity="0.501961" x="-0.5" y="-0.5" width="1" height="1" /></g>
<g transform="translate(43 42) rotate(122) scale(1 10)"><rect fill="#c5c1ac" fill-opacity="0.501961" x="-0.5" y="-0.5" width="1" height="1" /></g>
<g transform="translate(59 18) rotate(59) scale(10 1)"><rect fill="#a3b3be" fill-opacity="0.501961" x="-0.5" y="-0.5" width="1" height="1" /></g>
<g transform="translate(234 116) rotate(285) scale(9 12)"><rect fill="#282426" fill-opacity="0.501961" x="-0.5" y="-0.5" width="1" height="1" /></g>
<g transform="translate(4 52) rotate(367) scale(23 1)"><rect fill="#f7fdff" fill-opacity="0.501961" x="-0.5" y="-0.5" width="1" height="1" /></g>
<g transform="translate(72 16) rotate(44) scale(41 1)"><rect fill="#2a271d" fill-opacity="0.501961" x="-0.5" y="-0.5" width="1" height="1" /></g>
<g transform="translate(124 86) rotate(186) scale(14 1)"><rect fill="#6f8197" fill-opacity="0.501961" x="-0.5" y="-0.5" width="1" height="1" /></g>
<g transform="translate(106 32) rotate(225) scale(8 4)"><rect fill="#5f4c48" fill-opacity="0.501961" x="-0.5" y="-0.5" width="1" height="1" /></g>
<g transform="translate(137 101) rotate(79) scale(32 1)"><rect fill="#815433" fill-opacity="0.501961" x="-0.5" y="-0.5" width="1" height="1" /></g>
<g transform="translate(40 4) rotate(13) scale(5 3)"><rect fill="#a9b1bc" fill-opacity="0.501961" x="-0.5" y="-0.5" width="1" height="1" /></g>
<g transform="translate(86 43) rotate(80) scale(1 23)"><rect fill="#bdaba0" fill-opacity="0.501961" x="-0.5" y="-0.5" width="1" height="1" /></g>
<g transform="translate(160 48) rotate(12) scale(20 1)"><rect fill="#e4e8e3" fill-opacity="0.501961" x="-0.5" y="-0.5" width="1" height="1" /></g>
<g transform="translate(148 15) rotate(153) scale(1 5)"><rect fill="#d9e6d4" fill-opacity="0.501961" x="-0.5" y="-0.5" width="1" height="1" /></g>
<g transform="translate(147 8) rotate(105) scale(42 1)"><rect fill="#2b2312" fill-opacity="0.501961" x="-0.5" y="-0.5" width="1" height="1" /></g>
<g transform="translate(217 15) rotate(68) scale(1 10)"><rect fill="#949768" fill-opacity="0.501961" x="-0.5" y="-0.5" width="1" height="1" /></g>
<g transform="translate(181 95) rotate(378) scale(5 14)"><rect fill="#a37652" fill-opacity="0.501961" x="-0.5" y="-0.5" width="1" height="1" /></g>
<g transform="translate(194 112) rotate(190) scale(23 5)"><rect fill="#3a302b" fill-opacity="0.501961" x="-0.5" y="-0.5" width="1" height="1" /></g>
<g transform="translate(255 143) rotate(291) scale(2 31)"><rect fill="#19181f" fill-opacity="0.501961" x="-0.5" y="-0.5" width="1" height="1" /></g>
<g transform="translate(49 12) rotate(15) scale(56 1)"><rect fill="#262d35" fill-opacity="0.501961" x="-0.5" y="-0.5" width="1" height="1" /></g>
<g transform="translate(123 90) rotate(-3) scale(17 5)"><rect fill="#ffffe9" fill-opacity="0.501961" x="-0.5" y="-0.5" width="1" height="1" /></g>
<g transform="translate(85 102) rotate(95) scale(2 33)"><rect fill="#635c57" fill-opacity="0.501961" x="-0.5" y="-0.5" width="1" height="1" /></g>
<g transform="translate(38 136) rotate(158) scale(13 1)"><rect fill="#d1aa90" fill-opacity="0.501961" x="-0.5" y="-0.5" width="1" height="1" /></g>
<g transform="translate(7 92) rotate(2) scale(29 1)"><rect fill="#c6a27e" fill-opacity="0.501961" x="-0.5" y="-0.5" width="1" height="1" /></g>
<g transform="translate(129 166) rotate(203) scale(4 2)"><rect fill="#1c0b19" fill-opacity="0.501961" x="-0.5" y="-0.5" width="1" height="1" /></g>
<g transform="translate(117 0) rotate(234) scale(1 29)"><rect fill="#5d621f" fill-opacity="0.501961" x="-0.5" y="-0.5" width="1" height="1" /></g>
<g transform="translate(248 166) rotate(109) scale(9 29)"><rect fill="#5a473a" fill-opacity="0.501961" x="-0.5" y="-0.5" width="1" height="1" /></g>
<g transform="translate(111 19) rotate(221) scale(1 20)"><rect fill="#929799" fill-opacity="0.501961" x="-0.5" y="-0.5" width="1" height="1" /></g>
<g transform="translate(42 107) rotate(81) scale(6 30)"><rect fill="#f4d0a7" fill-opacity="0.501961" x="-0.5" y="-0.5" width="1" height="1" /></g>
<g transform="translate(39 12) rotate(124) scale(1 5)"><rect fill="#c8e6ff" fill-opacity="0.501961" x="-0.5" y="-0.5" width="1" height="1" /></g>
<g transform="translate(166 59) rotate(285) scale(1 46)"><rect fill="#b8b692" fill-opacity="0.501961" x="-0.5" y="-0.5" width="1" height="1" /></g>
<g transform="translate(192 77) rotate(261) scale(25 1)"><rect fill="#afb3ab" fill-opacity="0.501961" x="-0.5" y="-0.5" width="1" height="1" /></g>
<g transform="translate(80 65) rotate(192) scale(31 1)"><rect fill="#b9a67e" fill-opacity="0.501961" x="-0.5" y="-0.5" width="1" height="1" /></g>
<g transform="translate(229 115) rotate(184) scale(12 1)"><rect fill="#eab283" fill-opacity="0.501961" x="-0.5" y="-0.5" width="1" height="1" /></g>
<g transform="translate(244 69) rotate(346) scale(16 15)"><rect fill="#1d231f" fill-opacity="0.501961" x="-0.5" y="-0.5" width="1" height="1" /></g>
<g transform="translate(52 62) rotate(278) scale(46 1)"><rect fill="#2f3435" fill-opacity="0.501961" x="-0.5" y="-0.5" width="1" height="1" /></g>
<g transform="translate(95 4) rotate(174) scale(1 49)"><rect fill="#d6dfdf" fill-opacity="0.501961" x="-0.5" y="-0.5" width="1" height="1" /></g>
<g transform="translate(199 132) rotate(12) scale(16 7)"><rect fill="#b08665" fill-opacity="0.501961" x="-0.5" y="-0.5" width="1" height="1" /></g>
<g transform="translate(185 142) rotate(87) scale(73 1)"><rect fill="#2a2021" fill-opacity="0.501961" x="-0.5" y="-0.5" width="1" height="1" /></g>
<g transform="translate(98 11) rotate(266) scale(13 3)"><rect fill="#472623" fill-opacity="0.501961" x="-0.5" y="-0.5" width="1" height="1" /></g>
<g transform="translate(106 149) rotate(291) scale(24 8)"><rect fill="#d6b289" fill-opacity="0.501961" x="-0.5" y="-0.5" width="1" height="1" /></g>
<g transform="translate(50 54) rotate(376) scale(1 15)"><rect fill="#c9d1df" fill-opacity="0.501961" x="-0.5" y="-0.5" width="1" height="1" /></g>
<g transform="translate(198 49) rotate(172) scale(27 1)"><rect fill="#877b3b" fill-opacity="0.501961" x="-0.5" y="-0.5" width="1" height="1" /></g>
<g transform="translate(90 54) rotate(280) scale(7 9)"><rect fill="#d4ab7c" fill-opacity="0.501961" x="-0.5" y="-0.5" width="1" height="1" /></g>
</g>
</svg>