<svg height="680" width="1024" xmlns="http://www.w3.org/2000/svg"><path d="m0 0h1024v680h-1024z" fill="#dda1ae"/><g fill-opacity=".501961" transform="matrix(4 0 0 4 2 2)"><path d="m-16 46 59 2-24-33z" fill="#8e4700"/><path d="m20 140 37 45-73-26z" fill="#914b00"/><path d="m44 108-23-31-37 27z" fill="#934d00"/><path d="m201 185-38-47-23 25z" fill="#944e00"/><path d="m262 80-28-36-21 29z" fill="#984f00"/><path d="m233 115-15 33 40-2z" fill="#964a00"/><path d="m271 69-74 75-87-9z" fill="#ffcfff"/><path d="m140 101 25-27 22 37z" fill="#924b00"/><path d="m93 46 25 29-44 2z" fill="#974c00"/><path d="m162 14-12 35 36-3z" fill="#954800"/><path d="m73 147h45l-25-33z" fill="#984f00"/><path d="m206 56-145-29 210 104z" fill="#ffc8f3"/><path d="m137 185-46-91 53-47z" fill="#fbc3f1"/><path d="m163-10 108 36-73 33z" fill="#ffc7fe"/><path d="m235 13-44-23 80 13z" fill="#8a3f00"/><path d="m41-16 54 30 26-11z" fill="#8e4500"/><path d="m96 105-54-121-3 166z" fill="#ebaeed"/><path d="m271 161-73 24-16-50z" fill="#ffcbff"/><path d="m72 51 130-52-155 18z" fill="#f3b7f1"/><path d="m63 65 19-18 21 35z" fill="#834f65"/><path d="m75 180-91-83 180 88z" fill="#e9adf0"/><path d="m138 39 31 15-18-40z" fill="#82506f"/><path d="m218 145-12-18 25-9z" fill="#784664"/><path d="m89 138 17-24 16 28z" fill="#ecb60b"/><path d="m160 99 5-28 26 33z" fill="#dfa100"/><path d="m236 81-30-14 15-22z" fill="#845481"/><path d="m164 10 10 41 19-18z" fill="#f3bf1d"/><path d="m77 118 26 36-37-17z" fill="#82517b"/><path d="m-16 79 31-95-5 201z" fill="#b47dbf"/><path d="m42 42-28 2 4-27z" fill="#ce8100"/><path d="m161 111-4-31-24 10z" fill="#885a8c"/><path d="m184 144 6 41-28-50z" fill="#ffda33"/><path d="m18 79-2 25 27-2z" fill="#d28300"/><path d="m19 167-2-28 24 26z" fill="#d48400"/><path d="m271 131-37-18 12 33z" fill="#fecd1b"/><path d="m91 72 2-28 23 27z" fill="#d99100"/><path d="m259 74-27-3-2-26z" fill="#d08300"/><path d="m271 113v-44l-117 50z" fill="#fabeef"/><path d="m135 150 24 35 1-43z" fill="#8e6093"/><path d="m43 84-27-14 27 36z" fill="#ffea65"/><path d="m192 107-7-27-25-9z" fill="#ffe381"/><path d="m185 165-22 20-2-47z" fill="#c16e00"/><path d="m128 99 47 17-74 69z" fill="#f3b7e7"/><path d="m115-13 1 58 79-61z" fill="#f4b9e3"/><path d="m53 185-36-50 23 7z" fill="#ffe769"/><path d="m165 51-5-29 28 20z" fill="#b66200"/><path d="m116 53-30-17 35 39z" fill="#ffe66e"/><path d="m234 114 19 30-25 7z" fill="#ae6000"/><path d="m41 23-28-14 33 36z" fill="#ffe967"/><path d="m254 49-23-10 36 51z" fill="#ffed65"/><path d="m51 45 59 63-126-51z" fill="#e8a9dd"/><path d="m111 144-22-1 4-27z" fill="#ae5c00"/><path d="m30 111-40-40 19 37z" fill="#864e5e"/><path d="m-16 7 28 43 22-1z" fill="#90545c"/><path d="m159 108 5-34 10 37z" fill="#91441c"/><path d="m230 106-39-77-4 119z" fill="#f9bde9"/><path d="m267 1-2 42-102 12z" fill="#f5b6e1"/><path d="m83 51-99-67 92 5z" fill="#e0a4d6"/><path d="m134 80-95 2 122 64z" fill="#f0b4de"/><path d="m89 0 44-16-26 27z" fill="#dc8900"/><path d="m241 8 21-4-50-20z" fill="#e79000"/><path d="m115-12 45 88-37 14z" fill="#f1b6df"/><path d="m252 150-37-16 7 14z" fill="#885388"/><path d="m162 10 22 6 11 37z" fill="#fedda4"/><path d="m115 121 6 25-31-36z" fill="#fddf8e"/><path d="m134 140-131 39h144z" fill="#ebaddf"/><path d="m94 41-5 38 19-2z" fill="#a75a12"/><path d="m227 79h17l-10-40z" fill="#9d5723"/><path d="m46 102 27 38-89-6z" fill="#e3a5d4"/><path d="m230 107 23 31 9-14z" fill="#f8daa2"/><path d="m246 185 25-47-57 26z" fill="#f6b9f2"/><path d="m111 13-31-3-26-26z" fill="#865079"/><path d="m201-5 29 18 15-5z" fill="#875484"/><path d="m168 51-9-7 25 2z" fill="#893b6e"/><path d="m86 151 2-33-21 7z" fill="#9f6c87"/><path d="m13 144 5 41-34-37z" fill="#926387"/><path d="m258 166-52 17-42-68z" fill="#f5b8e7"/><path d="m10 185 9-48 10 18z" fill="#a76107"/><path d="m90 138-2 11 22 1z" fill="#8b4344"/><path d="m32 98-18 5 5-30z" fill="#b56d00"/><path d="m91 48-11 30-14-22z" fill="#9e6b7f"/><path d="m139 37 1-13 23-5z" fill="#966278"/><path d="m233 46-25 13 16 19z" fill="#a06c7e"/><path d="m170 146 13-4 18 36z" fill="#fcd9a5"/><path d="m32 45-9-24 18 22z" fill="#f7ac00"/><path d="m-16 89 5-51 52 25z" fill="#de9fce"/><path d="m13 43 7-28 11 25z" fill="#b16604"/><path d="m211 78-63 65 123-59z" fill="#f5bae5"/><path d="m168 82 18 22-15 1z" fill="#de8a00"/><path d="m152 108-14-22 15-7z" fill="#9d6980"/><path d="m201 0 67 32 3 37z" fill="#edb2e2"/><path d="m45 166-18-15-2 8z" fill="#eea100"/><path d="m140-16-75 66 179-62z" fill="#ecb0d5"/><path d="m88 119 35-43-132 48z" fill="#eaaad9"/><path d="m15 112-2-32h-29z" fill="#a37085"/><path d="m172 29-7-16-5 31z" fill="#b57100"/><path d="m12 22-28-14 54-24z" fill="#d494cb"/><path d="m237 52 24 22-21-5z" fill="#e09200"/><path d="m165 135-7 17 16 30z" fill="#ae6814"/><path d="m100 144 3-14 16 12z" fill="#ed9e04"/><path d="m150 144-14 13 37 28z" fill="#9d6981"/><path d="m34 106 7-4-19-21z" fill="#f5a800"/><path d="m105 159-79-38 27 51z" fill="#e5a8d4"/><path d="m132 84 78-31-100-6z" fill="#f2b3da"/><path d="m174 89 17 4-22-22z" fill="#f5c971"/><path d="m23-16 70 31-31 54z" fill="#e5a8d1"/><path d="m90 79 19-3-36-5z" fill="#8f537d"/><path d="m114 69-17-15 9 18z" fill="#eaa000"/><path d="m118 5-13-13 4 15z" fill="#fab619"/><path d="m12 109 6-7 17 6z" fill="#8a3e4a"/><path d="m220 120 14 33-25-28z" fill="#a06d85"/><path d="m228 120 28-35-99 31z" fill="#f4b9e2"/><path d="m14 20v28l-30-25z" fill="#a17082"/><path d="m-16 154 55-31-55-28z" fill="#dd9fca"/><path d="m248 11-18-12v6z" fill="#8c3b0b"/><path d="m73 153 81 32-21-38z" fill="#ecb0db"/><path d="m102 128-6-21 28 29z" fill="#f6cc84"/><path d="m259 142-18-13 12 15z" fill="#f8a800"/><path d="m271 168-89 1 52-18z" fill="#f0b4e2"/><path d="m114 156 63-24-45-41z" fill="#efb4dc"/><path d="m271 46v108l-30-55z" fill="#f5baec"/><path d="m154-14 111 43-56 23z" fill="#f0b2dc"/><path d="m105 61 18 5-27-29z" fill="#f9ce7d"/><path d="m70 27-8 90-38-62z" fill="#e4a5d2"/><path d="m188 167-19-20 8 20z" fill="#f2a700"/><path d="m103 129-9-15 2 10z" fill="#e2a000"/><path d="m209 65 4-15 25 30z" fill="#9e6a84"/><path d="m163 177-3-16 17 13z" fill="#722e2d"/><path d="m140 98 2-15 25 28z" fill="#a06b84"/><path d="m182 45-14-19 19 15z" fill="#f6ad00"/><path d="m162 50-17-7 12-21z" fill="#9e6b81"/><path d="m16 163-7 10 21-2z" fill="#743555"/><path d="m90 4-1-9 13 15z" fill="#8a3b06"/><path d="m37 79-4 14-16-26z" fill="#fcd999"/><path d="m208 136 18 14 2-26z" fill="#a47088"/><path d="m212 172-51-48 43-30z" fill="#f5bae4"/><path d="m171 59 24 43 22-80z" fill="#f6b8de"/><path d="m162 102 3-29 11 29z" fill="#bc720b"/><path d="m22 14 14 4-13-9z" fill="#fffda7"/><path d="m51 33 84-32-49 47z" fill="#eaaed7"/><path d="m124 17 34 46-44 56z" fill="#eeb4da"/><path d="m233-9-10 20-28-27z" fill="#a47494"/><path d="m138 92 9 13 31 5z" fill="#99647d"/><path d="m127-16h-35l28 20z" fill="#ffffa1"/><path d="m31 170 13 4-23-33z" fill="#e29606"/><path d="m271 68-54-56h54z" fill="#ecb0de"/><path d="m89 75-1-25-13 22z" fill="#a77488"/><path d="m236 46 7 16-10 10z" fill="#bd7500"/><path d="m174 88 19 16-5-13z" fill="#f7d6a1"/><path d="m271 1-20 6-2-17z" fill="#ffc52c"/><path d="m62 71 65 21-63 35z" fill="#ecafd8"/><path d="m171 72 5 18-14-21z" fill="#f9dcb2"/><path d="m228 139 9 10 13-1z" fill="#914340"/><path d="m243 38-9 3 12 19z" fill="#fdde90"/><path d="m241 142-13-14 7-17z" fill="#b77615"/><path d="m14 143 2 37-32-32z" fill="#a67081"/><path d="m89 50 1 19 11-11z" fill="#b36d0e"/><path d="m246 150 23-11 2 28z" fill="#fac0f2"/><path d="m230 71 13 4-7 4z" fill="#7b375d"/><path d="m73 3 19-14-7 22z" fill="#a57591"/><path d="m178 157-5-22-8-1z" fill="#f8db97"/><path d="m112 8-14 5-5-7z" fill="#9c4858"/><path d="m27 133 5 22-13-22z" fill="#fdde9b"/><path d="m25 98-7-23-4 15z" fill="#a86628"/><path d="m38 82-14-7 23 26z" fill="#f5c172"/><path d="m97 83 32 70 11-88z" fill="#eeb4d9"/><path d="m94 68 15 9 8-6z" fill="#df8731"/><path d="m34 48-20-13v-13z" fill="#c27229"/><path d="m6 114 48 45 3-54z" fill="#e0a2cd"/><path d="m190 37-8-17-16-9z" fill="#f5c873"/><path d="m46 30-15 1 15 10z" fill="#fad996"/><path d="m202-16-6 73 35-12z" fill="#f1b5de"/><path d="m163 16 13 21-17 5z" fill="#b26b11"/><path d="m70 139 17-20 4 30z" fill="#a36e82"/><path d="m64 132-33 53h85z" fill="#e6a9d4"/><path d="m158 80-26-2 37-14z" fill="#f2b7e1"/><path d="m23 50 9-3-20-7z" fill="#873d4f"/><path d="m118 90 43 54 1-31z" fill="#f1b7de"/><path d="m181 164-17-25 4 20z" fill="#c47e00"/><path d="m80 16 82-13-45 44z" fill="#ecafd6"/><path d="m4 48-20 43 62-35z" fill="#da9cc9"/><path d="m156 109-18-16 19-11z" fill="#a87386"/><path d="m240 123 26 14-27-27z" fill="#f5c77d"/><path d="m169 40 11 8 9-6z" fill="#e08a4d"/><path d="m241 103-44-50-10 86z" fill="#f5bbe4"/><path d="m35 78 38 45-11-123z" fill="#e5a7d2"/><path d="m221 77 7-28-20 11z" fill="#a56f83"/><path d="m110 47-17-7 15 22z" fill="#f7d291"/><path d="m188 165-11-1-9 18z" fill="#e08d4f"/><path d="m211 147 60 10-96 21z" fill="#f1b6e2"/><path d="m109 148-18-8 3-27z" fill="#b86c17"/><path d="m240 143 23-2-13 5z" fill="#e48d59"/><path d="m114 139-12-12 22 12z" fill="#f4d9aa"/><path d="m191 164-20-24 16 11z" fill="#f2c070"/><path d="m74 72 4-22-10 6z" fill="#a06b81"/><path d="m-5-4-11 34 71-37z" fill="#d698c4"/><path d="m146 21-8 9 16 18z" fill="#9e6a80"/><path d="m176 93 4 8 6-1z" fill="#f8b000"/><path d="m229 58 14 16-9-32z" fill="#b87320"/><path d="m259 6-29 42-43 3z" fill="#f0b3dd"/><path d="m89 119 7-16-47 12z" fill="#ebaeda"/><path d="m34 115-50-12 28 42z" fill="#dc9ecb"/><path d="m218 76 11 43 23-34z" fill="#f3b8e2"/><path d="m47 100-4 2 2-11z" fill="#fff7a2"/><path d="m159 144-5 41-11-38z" fill="#a77184"/><path d="m108 76-5 3-11-6z" fill="#903d4b"/><path d="m243 140 13 2-22-24z" fill="#d88f00"/><path d="m255 70-16-17 7 15z" fill="#f1ab00"/><path d="m77 49 21-26-9 25z" fill="#edb0da"/><path d="m170-16-60 33 50 3z" fill="#edb1d7"/><path d="m162 77 12 29-15-17z" fill="#b67029"/><path d="m176 90 17 7-23-24z" fill="#efbf7b"/><path d="m165 108-4-6 19 6z" fill="#833850"/><path d="m166 14 5 10-2-12z" fill="#fff2bf"/><path d="m175 49-17-9 1 10z" fill="#905564"/><path d="m38 181-18-43-6 13z" fill="#b9711a"/><path d="m251 9-10 4-11-7z" fill="#9e4e60"/><path d="m96 48 11 15-8-5z" fill="#edac00"/><path d="m15 80-6 28-25-23z" fill="#a46f80"/><path d="m198 36-32 25 29 3z" fill="#f7b2d0"/><path d="m132 140-57 21 73 24z" fill="#ebaed8"/><path d="m73-8-23 48-22-41z" fill="#dfa1cb"/><path d="m101 125 19 14-2-11z" fill="#f0c283"/><path d="m255 1-11-13 19 11z" fill="#ffffe5"/><path d="m95 140 11 6 10-3z" fill="#e08b43"/><path d="m221 151-35-46-34 22z" fill="#f4b9e2"/><path d="m247 131 13 7h-6z" fill="#f6e5d3"/><path d="m141 38 17 12v-27z" fill="#a56f82"/><path d="m231 64 12 11 14-2z" fill="#d68035"/><path d="m228 51-11 22 14 6z" fill="#a46f84"/><path d="m119 71-11-9 20 9z" fill="#f9dcba"/><path d="m98 44 19 15-7-10z" fill="#f5bc65"/><path d="m27 28 7 13h7z" fill="#f0ab00"/><path d="m-15 11 39 40-20-6z" fill="#9d6a80"/><path d="m97 17-45-21 12 65z" fill="#e7abd2"/><path d="m232 3 23 1-21-20z" fill="#c67708"/><path d="m81 147-14-18 18-8z" fill="#a26c80"/><path d="m35 46-14-5h24z" fill="#e08b42"/><path d="m172 35-7-18 17 23z" fill="#e39b00"/><path d="m94 149-8-8 23 6z" fill="#8f495c"/><path d="m236 118-5 24 14-1z" fill="#ba6c0f"/><path d="m267 43-77-8-5-51z" fill="#efb2db"/><path d="m258 70-9-17-3 7z" fill="#f9d5a2"/><path d="m23 100 20 2-9 6z" fill="#d67d42"/><path d="m47 48 39 36-35 83z" fill="#e7a9d4"/><path d="m199 42-21-9 11 9z" fill="#f8dbb5"/><path d="m256 55-15-5-2-8z" fill="#f5bb68"/><path d="m119 58 50-4-84-32z" fill="#ecb0d6"/><path d="m140 146-11-80-44 27z" fill="#edb2d9"/><path d="m92 45 1 19-5-6z" fill="#b67634"/><path d="m23 39-8-10 4-16z" fill="#a76a2a"/><path d="m32 175 12-11h-17z" fill="#df8a42"/><path d="m101 135v-9l13 15z" fill="#e19800"/><path d="m96 116 9-2-9-5z" fill="#fff2b6"/><path d="m28 137 18 23-21-15z" fill="#f4c177"/><path d="m214 121h14l2 22z" fill="#a46e83"/><path d="m27 14 13 11 2 12z" fill="#f8c070"/><path d="m102 139-13-16 2 17z" fill="#b56a25"/><path d="m169 137 10 3-2 11z" fill="#f3c279"/><path d="m41 163-7-17-4 5z" fill="#f5d4a4"/><path d="m47 163-6 1 4-10z" fill="#ffecb4"/><path d="m110 70-10-3-6-20z" fill="#c07800"/><path d="m214 71 3-21-7 6z" fill="#a26d83"/><path d="m171 23 13 15-6-15z" fill="#f3d4a8"/><path d="m229 58 3 13 14-2z" fill="#b7681b"/><path d="m238 79-7-7 18 4z" fill="#934556"/><path d="m95 3 14 5 10-4z" fill="#dd8b3f"/><path d="m189 102-27-4 12 7z" fill="#db8835"/><path d="m91 3 21-19-3 20z" fill="#c47409"/><path d="m170 45-10-2v-6z" fill="#833d1a"/><path d="m160 41 13-1-13-18z" fill="#bb7029"/><path d="m194 174-38-9 21 20z" fill="#844a69"/><path d="m20 15 4 17 10 9z" fill="#d18b00"/><path d="m185 99-6-15-4 4z" fill="#f4d7b0"/><path d="m160 143-1 8 4-9z" fill="#bb813e"/><path d="m48 91-29-32 44-28z" fill="#e1a4cf"/><path d="m29-2-16 23-29-31z" fill="#d699c1"/><path d="m79 56-9 11 16 10z" fill="#a06c80"/><path d="m13 20-29 6 31 11z" fill="#a77084"/><path d="m96 44v-5l6 3z" fill="#fbf4c8"/><path d="m249 126-13-13 9 16z" fill="#f3d3a5"/><path d="m33 164-18-15 2 16z" fill="#bb6c1f"/><path d="m138 153 6 13 4-22z" fill="#a26d84"/><path d="m-9 35 32 32-11 13z" fill="#da9cc7"/><path d="m24 80 2-10-5 2z" fill="#fbe9bd"/><path d="m102 62 18 10-9-1z" fill="#f2aa04"/><path d="m253 141-20-5 8 9z" fill="#d17e2b"/><path d="m242 149-15-5 9 6z" fill="#9f5e6e"/><path d="m131 156 44-46-62 4z" fill="#eeb3dd"/><path d="m34 84 5 14-6-7z" fill="#f5d7b2"/><path d="m132 28 79-43-95 21z" fill="#ecb0d5"/><path d="m159 164 11 1-9-11z" fill="#bf6e1b"/><path d="m176 10 10 12-19-12z" fill="#f6d0d2"/><path d="m143 23-5 11 13-13z" fill="#a6708a"/><path d="m197 36-16 43 50 41z" fill="#f4b9e0"/><path d="m101 122-3-9 11 6z" fill="#f4bf70"/><path d="m235 43 3 12 6 4z" fill="#ecae06"/><path d="m136-16 94 29-44 8z" fill="#edb0d7"/><path d="m33 78-9 2v-7z" fill="#f7c471"/><path d="m20 142v-6l4 12z" fill="#dea000"/></g></svg>