<svg height="680" width="1024" xmlns="http://www.w3.org/2000/svg"><path d="m0 0h1024v680h-1024z" fill="#bec0c1"/><g fill-opacity=".501961" transform="matrix(4 0 0 4 2 2)"><path d="m259 185-165-109-110 89z" fill="#fff4d0"/><path d="m271 89-117 24 117 69z" fill="#d56781"/><path d="m-16 97 19-113 268 21z" fill="#84b3d1"/><path d="m271 79-13-69-221 71z" fill="#8aaec1"/><path d="m-2 161-14-74 287-7z" fill="#e9dabf"/><path d="m199 80 29-8 28 8z" fill="#9a7445"/><path d="m-16 79 160 1-160 42z" fill="#cbbc9c"/><path d="m150-15 81 93 40-76z" fill="#93b1cd"/><path d="m105-16-79 97 213-5z" fill="#abc0ca"/><path d="m155 102 116-11-103 42z" fill="#c8a2ac"/><path d="m156 86-172 4 175 95z" fill="#e4decf"/><path d="m155 83 68-3-34-8z" fill="#b1986c"/><path d="m74 96-69 18 30-19z" fill="#bea988"/><path d="m208 169-59-58 122 69z" fill="#d9c1b2"/><path d="m119-11-131 33 20-38z" fill="#7ea6ca"/><path d="m143 74 21 7-30 3z" fill="#bf9a74"/><path d="m145 80 100-6-46-64z" fill="#a3bac6"/><path d="m29 85-38-5-7 11z" fill="#b29663"/><path d="m271 102-84 9 84 72z" fill="#c88497"/><path d="m75 86 27-3-24-4z" fill="#af9967"/><path d="m49 81-65 2 20-77z" fill="#97b0c0"/><path d="m241-16-129 17 159 21z" fill="#8baecc"/><path d="m125 84-121 101-20-62z" fill="#ddd7c7"/><path d="m226 86 29-2 16-17z" fill="#b89f7e"/><path d="m125 63-97-50 215 2z" fill="#acc1ce"/><path d="m73 90-67 18-22-20z" fill="#dbd8ce"/><path d="m187 90 5-2 3 3z" fill="#5a4e48"/><path d="m178 82 93 7-48 13z" fill="#ddd4bb"/><path d="m53 79-22 6 35 1z" fill="#b8a577"/><path d="m112 96 90 89-174-29z" fill="#e7e1d0"/><path d="m188 99-62-4 62-13z" fill="#e7dfc9"/><path d="m239 95-48 45-36-32z" fill="#ca98a7"/><path d="m196 82 12-4h-19z" fill="#976e3d"/><path d="m-6 111 26 2 8-9z" fill="#b6a07e"/><path d="m255 74-18 5h34z" fill="#896e53"/><path d="m191 75 80 1-12-84z" fill="#99b0c2"/><path d="m32 9 152 3-65-28z" fill="#94b7d1"/><path d="m71 97-10-2 7-2z" fill="#a4855d"/><path d="m-16 85 70-42 33 36z" fill="#a4b9c0"/><path d="m75 104 48-13h-49z" fill="#d3c8b2"/><path d="m244 168-102-55 48 48z" fill="#dad2bd"/><path d="m118 78 20 6-35-1z" fill="#c7ad7c"/><path d="m199 79 16 10-29-2z" fill="#dcd5c3"/><path d="m258 79-24 2 10 4z" fill="#d9d3c0"/><path d="m5 109-13 69 62-19z" fill="#dcd5c4"/><path d="m211 101 60-9-10 15z" fill="#b8a8b1"/><path d="m101 85 90-3-43 26z" fill="#ded7c6"/><path d="m75 83-10 1 8 2z" fill="#c09e53"/><path d="m239 76-24 1 16 4z" fill="#ad8f64"/><path d="m173 100-21 7 16 25z" fill="#c6b0b8"/><path d="m204 152-20-15 34 11z" fill="#d7cfce"/><path d="m223 107 28 67-84-66z" fill="#cd94a0"/><path d="m203 142-39-18 43 7z" fill="#d3959b"/><path d="m211 76-8 4h17z" fill="#816445"/><path d="m271 122-36-5 21 64z" fill="#c78293"/><path d="m187 78-36 1 19 5z" fill="#d3b98c"/><path d="m150 78 67-2 1-28z" fill="#a5b9c2"/><path d="m33 83-13 4h25z" fill="#bfa265"/><path d="m5 86h-20l-1-6z" fill="#845a1e"/><path d="m191 143 42 27-6 15z" fill="#d2c8ad"/><path d="m74 91-90 23v-26z" fill="#d9d3c3"/><path d="m222-16 37 32 7-11z" fill="#83a1c5"/><path d="m197 78 6 1 4-2z" fill="#846642"/><path d="m127 39-106 41 119-1z" fill="#abbdc3"/><path d="m53 97-7 6 13-3z" fill="#b7a07d"/><path d="m142 81-12-4-9 3z" fill="#d2cbb9"/><path d="m73 115-42-9-47 32z" fill="#dfd9c7"/><path d="m15 111 15-10 7 3z" fill="#b8a17f"/><path d="m242 79-5-2h11z" fill="#603b1c"/><path d="m148 73-7 9 8 2z" fill="#a78d89"/><path d="m39 87 41 1-64 17z" fill="#dcd8cb"/><path d="m13 112-15 2 6-7z" fill="#baa789"/><path d="m229 150-24-6 43 26z" fill="#cbadad"/><path d="m189 90 2 2 4-2z" fill="#76654e"/><path d="m188 97 25 6 16-8z" fill="#d1c1b3"/><path d="m42 101 5 5 10-8z" fill="#c1ad8d"/><path d="m38 33-34 20-20-30z" fill="#92b0c7"/><path d="m230 168-14 17h23z" fill="#85613a"/><path d="m171 102 81-12-47-8z" fill="#dbd1be"/><path d="m197 181-58-69 80 55z" fill="#e2d9c0"/><path d="m141 109 10-9v22z" fill="#d8ceb7"/><path d="m231 98 4-4 6 2z" fill="#bb987a"/><path d="m1 185-1-73 22 54z" fill="#d8d1c1"/><path d="m-13 98-3-11 40 3z" fill="#ccc4b3"/><path d="m133 29 103-6-30 41z" fill="#a0baca"/><path d="m109 102-31-16 93-3z" fill="#d8d3c3"/><path d="m88 128-60 57 15-82z" fill="#e1daca"/><path d="m91 96-8-4-7 1z" fill="#c1af96"/><path d="m264 74 7-55-53 58z" fill="#9baebd"/><path d="m191 113 80 6-19-18z" fill="#c58aa1"/><path d="m89 79-59 5-9-28z" fill="#a4b8c0"/><path d="m13 47 1 2-2-2z" fill="#641300"/><path d="m151 44-26 27 48 8z" fill="#acbfc6"/><path d="m67 6-39 20 108-1z" fill="#adc1ce"/><path d="m71 114 77-17-49 50z" fill="#e6e1d1"/><path d="m-16 2 29 2-18-20z" fill="#789ebf"/><path d="m84 102-60 7-4 68z" fill="#dfd8c8"/><path d="m95 80h-16l9 5z" fill="#a7987d"/><path d="m129 49-2 1-1 2z" fill="#8b7461"/><path d="m191 10-29 50-90-28z" fill="#a8bfcc"/><path d="m226 93 31 1 14-13z" fill="#ddd4c0"/><path d="m232 84-2-5h11z" fill="#d4c5a5"/><path d="m271 43-44-4-7-55z" fill="#99b2c9"/><path d="m172 128 25-4-37-4z" fill="#cba5af"/><path d="m206 142 11 20 20 8z" fill="#d1c7c3"/><path d="m55 1-36 9 27 8z" fill="#95b4ca"/><path d="m215 79 5-2 6 2z" fill="#896a49"/><path d="m96 27-66 42-17-20z" fill="#a1bac9"/><path d="m81 82 12 4h-23z" fill="#d4bc89"/><path d="m33 102 3 3 4-1z" fill="#b79972"/><path d="m164 79h18l-13 4z" fill="#b79e76"/><path d="m121 96 51-14 24 14z" fill="#dfd9c7"/><path d="m53 109-13 11-11-15z" fill="#ded6c5"/><path d="m255 85 16-1-7-9z" fill="#6a3c19"/><path d="m141 79-55-1 38-15z" fill="#aebec3"/><path d="m188 79-8-9-30 8z" fill="#b0bcbd"/><path d="m204 102-50 3 30-10z" fill="#c9bcb8"/><path d="m197 145-1 4-6-6z" fill="#c2b09a"/><path d="m147 89v-4l-7 7z" fill="#cbbdac"/><path d="m194 144h14l14 20z" fill="#d7d0c9"/><path d="m116-2 94 14 16-28z" fill="#8cb2cd"/><path d="m262 97-12-1 21-4z" fill="#ba9476"/><path d="m168 122 31-10 10 9z" fill="#cf8d9b"/><path d="m104 80-18 2 10-5z" fill="#acb2ad"/><path d="m242 80 29-9-9 9z" fill="#ba9c6f"/><path d="m-16 54 46 26-32 2z" fill="#9bb2bd"/><path d="m151 80-1 4 14-3z" fill="#c4ad7a"/><path d="m206 89 18-1-6-4z" fill="#cec3b0"/><path d="m38 163-27-50-27 8z" fill="#dcd5c5"/><path d="m214 116 40 25-60-2z" fill="#cb909f"/><path d="m209 139-1 9 22 11z" fill="#cfacac"/><path d="m158 101 25-2-13-3z" fill="#e1d2b9"/><path d="m194 110 24-8-49 2z" fill="#c49db1"/><path d="m17 86-3-2 6 1z" fill="#a98952"/><path d="m62 98-13 14 51-14z" fill="#dfd7c4"/><path d="m234 51 3 23-85 4z" fill="#a2b7c1"/><path d="m14 95 3 9 24-4z" fill="#ddd7c4"/><path d="m21 108-5 2 6 2z" fill="#ae936d"/><path d="m120 13 58 6-92 16z" fill="#aec1ce"/><path d="m59 82-8 3 20 1z" fill="#ceb580"/><path d="m54 87-15-1 12-3z" fill="#cdb37d"/><path d="m74 96 11-9-26 1z" fill="#d7d3c7"/><path d="m158 115-2 11-6-21z" fill="#d4d0c9"/><path d="m74 93-1 7-3-6z" fill="#ccbd9f"/><path d="m179 80 9-1 4 3z" fill="#b69462"/><path d="m135 80 7 4h-18z" fill="#d5be8d"/><path d="m26 83 17 1-8-3z" fill="#c4b6a0"/><path d="m241 165 20 8-28-37z" fill="#c68f98"/><path d="m123 96-14-7-22 5z" fill="#daceb7"/><path d="m227 97 34 1-21 5z" fill="#beabb4"/><path d="m136 87 20 12-64 7z" fill="#e2dbc9"/><path d="m195 149-12 6-23-33z" fill="#ded4bc"/><path d="m111 79-2 3 8-2z" fill="#a09486"/><path d="m255 85 3-2h-9z" fill="#9e846e"/><path d="m243 85 13-1 11 8z" fill="#d5cbb9"/><path d="m180 152-72 22 124 1z" fill="#e1dac9"/><path d="m220 80 5-1 4 2z" fill="#c8ab7f"/><path d="m207 76 14-6-2 8z" fill="#a3afb2"/><path d="m61 83-6-1 6-1z" fill="#bfbbb3"/><path d="m231 39 39-12-81 1z" fill="#97b2c9"/><path d="m-1 109 24-5-9 7z" fill="#cbbda5"/><path d="m207 136 10-4 15 7z" fill="#cf8893"/><path d="m114 184-79 1 32-75z" fill="#e3ddcc"/><path d="m136 12-83-28 17 28z" fill="#9bb8ce"/><path d="m222 88-9 6 23-2z" fill="#dedacb"/><path d="m210 96 9 2 7-3z" fill="#d6bba2"/><path d="m193 95 27-2-14-5z" fill="#dfd9c8"/><path d="m16 113-4-3 8 2z" fill="#b09878"/><path d="m182 84-34-1 7 10z" fill="#dcd6c6"/><path d="m230 103v-6l-22 4z" fill="#c1b1ba"/><path d="m192 81-12 2 1 5z" fill="#d8d1be"/><path d="m26 93 20-4-16-2z" fill="#d1ccbd"/><path d="m21 83-10 1 5-2z" fill="#c3bcae"/><path d="m113 24 14 26 50-23z" fill="#a5becc"/><path d="m143 78-3 3 2-4z" fill="#bcbfc8"/><path d="m243 77 5-2h-5z" fill="#a09e91"/><path d="m199 79 7 1-2-2z" fill="#7b5c39"/><path d="m191 100 1-4-4 6z" fill="#bfa19c"/><path d="m228 81-4 5 15-5z" fill="#d5d0c4"/><path d="m231 85 7-1-1 2z" fill="#a78f70"/><path d="m233 85h-14l21 7z" fill="#d7d2c3"/><path d="m4 86 10 1-1-3z" fill="#bb9d67"/><path d="m182 83-3-3h8z" fill="#d3bf92"/><path d="m109 85-7 3-8-2z" fill="#c4c8c7"/><path d="m10 176-22-19h14z" fill="#d4cab8"/><path d="m129 74-1-34 69 36z" fill="#a9bdc5"/><path d="m72 97-4 1-5-4z" fill="#b09772"/><path d="m80 102-24 5 10-10z" fill="#ded6c4"/><path d="m212 161 2-3h-4z" fill="#bfa788"/><path d="m131 3h-14l5 4z" fill="#b2c4d0"/><path d="m145 76 1-1h-4z" fill="#8c525d"/><path d="m27-16-31 30 27-3z" fill="#8aacc8"/><path d="m43 106-8-3-7 2z" fill="#b8a283"/><path d="m108 80-12 4h16z" fill="#d3be91"/><path d="m79 89 9 4 15-6z" fill="#dcd9cd"/><path d="m0 94 35-2-43 20z" fill="#d9d6c9"/><path d="m213 31-19-19 56 4z" fill="#a3b8c9"/><path d="m212 95-26 1 15 4z" fill="#d9c8b2"/><path d="m39 50-43-32 27-5z" fill="#9db6c9"/><path d="m198 137 26 3 23 22z" fill="#ce9a9f"/><path d="m32 84 6 2 6-2z" fill="#af9160"/><path d="m192 88 14 4 16-5z" fill="#d4cab7"/><path d="m270 113 1-15-49 6z" fill="#c192a9"/><path d="m158 78h10l-5 2z" fill="#d1c7b1"/><path d="m46 85h-9l7 2z" fill="#d3c192"/><path d="m90 86h-14l7 2z" fill="#bec1c0"/><path d="m246 124-8 2-4-8z" fill="#d07e8c"/><path d="m271 90v-65l-40-36z" fill="#95aec7"/><path d="m239 87-15-4-8 6z" fill="#d4ccba"/><path d="m56 15-26 6 40 2z" fill="#b1c2cd"/><path d="m61 49h58l-69-29z" fill="#a4bdca"/><path d="m47 107-17-2-1 13z" fill="#ded6c4"/><path d="m145 104-1 10 14 12z" fill="#d9cfb6"/><path d="m111 69-21 10h46z" fill="#adbdc3"/><path d="m175 82 12 14 3-14z" fill="#dbd5c5"/><path d="m223 165 23 4-24-13z" fill="#d2c6c3"/><path d="m248 56-37 20-2-51z" fill="#9eb6c5"/><path d="m241 83-6 2-3-2z" fill="#a99070"/><path d="m217 161 11 7 5-2z" fill="#cec4ae"/><path d="m191 145 5 2-1-2z" fill="#baa284"/><path d="m47 104v-2l4 2z" fill="#b99f76"/><path d="m0 84 15 1-2-4z" fill="#b6afa2"/><path d="m244 111 27-13v23z" fill="#c48298"/><path d="m264 76-38-3 29-8z" fill="#9eafbc"/><path d="m18 37 19 44-31 1z" fill="#9fb6c2"/><path d="m242 90-4-8 11-1z" fill="#d1cbbd"/><path d="m237 92 5 4 12-4z" fill="#d4c6af"/><path d="m71 99-1-4h-3z" fill="#a5875d"/><path d="m228 128 15-12-30-10z" fill="#cb8a9c"/><path d="m85 101-21-4-3 6z" fill="#dcd3c0"/><path d="m151 78-3 2h3z" fill="#d1cbba"/><path d="m144 78v4l2-1z" fill="#997176"/><path d="m64 83h-3v1z" fill="#a58c60"/><path d="m78 89-6 8 1-7z" fill="#dfdac8"/><path d="m138 2-14 12 39-2z" fill="#9ab9d0"/><path d="m236 174-23-15-17 26z" fill="#dad0b6"/><path d="m62 94 3 3-6 3z" fill="#cabaa0"/><path d="m172 131 10 11 9-2z" fill="#ded7cd"/><path d="m185 165-29-8-21-50z" fill="#e5ddca"/><path d="m208 150 8 11 13-1z" fill="#dad2cb"/><path d="m234 78 6 1-7 2z" fill="#baa075"/><path d="m269 129-12 50-7-30z" fill="#c68190"/><path d="m271 32-28-48 25 20z" fill="#7f9dbf"/><path d="m7 106 4 4 5-5z" fill="#d9d1bd"/><path d="m20 31-36-6 11 19z" fill="#91afc8"/><path d="m145 76-1 18 4-8z" fill="#cec5b4"/><path d="m143 122 3-32-28 13z" fill="#e3dcc9"/><path d="m173 92 27 1-14 4z" fill="#e2dcc9"/><path d="m158 112 17-8-6 22z" fill="#c9a4b1"/><path d="m145 63-46-25-1 32z" fill="#abc0c9"/><path d="m156 115 9 7-8-15z" fill="#c8b4b5"/><path d="m83 9 25 1 25-17z" fill="#95b7ce"/><path d="m159 101-9 6 11-2z" fill="#c8c6c3"/><path d="m16 107h-12l12 7z" fill="#bdab8e"/><path d="m191 143-16-7 22 18z" fill="#ddd3b9"/><path d="m140 76v-2l2 4z" fill="#9b828b"/><path d="m6 103h9l-5 6z" fill="#ded8c7"/><path d="m196 107 17 11-51 3z" fill="#cc93a2"/><path d="m140 75 53-36-45 9z" fill="#a7bdc7"/><path d="m35 112-5-5-6 2z" fill="#e2dbc9"/><path d="m22 117-35 46 13-48z" fill="#dad3c2"/><path d="m67 80 37-33h-50z" fill="#a6bcc6"/><path d="m266 58-13 20 10-5z" fill="#91755b"/><path d="m112 87 23-2 8 8z" fill="#e0dacb"/><path d="m110 96 36-10-7 12z" fill="#ddd6c5"/><path d="m24 160-19-50 32 40z" fill="#ddd6c6"/><path d="m98 83-8 2-3-3z" fill="#c7ae7a"/><path d="m197 79 2-2-1 3z" fill="#b4a07e"/><path d="m4 110 1 4-4-2z" fill="#baa481"/><path d="m232 136 19-1-6 6z" fill="#c493a3"/><path d="m183 136-7-8 10 6z" fill="#daaba6"/><path d="m223 97-4-3 11 2z" fill="#dac7ae"/><path d="m52 102 53-1-49 18z" fill="#e0d9c8"/><path d="m21 104 12-2-3 3z" fill="#ccbda2"/><path d="m137 80-5 1 4-2z" fill="#d8d0c0"/><path d="m181 167 37 5-18 13z" fill="#d5cdbd"/><path d="m191 140 13 3-7 4z" fill="#ddd4cc"/><path d="m36 103h-6l4 2z" fill="#a98e6b"/><path d="m215 134h18l-23-24z" fill="#c892a3"/><path d="m205 151 5-6h-15z" fill="#d0c9c0"/><path d="m179 77 6 2 5-2z" fill="#cfc6b2"/><path d="m16 51-1-21 36-1z" fill="#9ab6c9"/><path d="m212 178 29 7-11-16z" fill="#7e542c"/><path d="m140 81-4 2 10-1z" fill="#b19170"/><path d="m76 155 17 8-10 22z" fill="#dfd9c8"/><path d="m232 165 2 20-4-8z" fill="#bcaca4"/><path d="m-8 116-8 5 24-2z" fill="#d2c6b1"/><path d="m211 103 14-5-27 2z" fill="#c0b0b9"/><path d="m165 80v2l3-2z" fill="#a78a61"/><path d="m138 78 5-6-19 7z" fill="#abbabe"/><path d="m247 139-32-2 29 11z" fill="#cb8b98"/><path d="m36 160-1 3 3-3z" fill="#d0c1ac"/><path d="m159 102 23-1-8 5z" fill="#c3b6bd"/><path d="m-16 63v20l31-1z" fill="#9aafb9"/><path d="m258 77 1-42-34 15z" fill="#9bb0c2"/><path d="m221 82-23 2 11 3z" fill="#dad7c8"/><path d="m15 88 11-4v4z" fill="#cbb481"/><path d="m168 80 7-2h-7z" fill="#e3d5be"/><path d="m166 82 9 9 6-1z" fill="#dcd5c4"/><path d="m149 78 1-16 35 4z" fill="#a8bcc3"/></g></svg>