<svg xmlns="http://www.w3.org/2000/svg" version="1.1" width="1024" height="680">
<rect x="0" y="0" width="1024" height="680" fill="#c5caca" />
<g transform="scale(4.000000) translate(0.5 0.5)">
<polygon fill="#0a0a09" fill-opacity="0.501961" points="118.138645,25.833129,204.009535,55.662666,145.839683,121.307413,29.792857,24.299923" />
<polygon fill="#ffffff" fill-opacity="0.501961" points="99.185145,184.396848,-11.854909,168.561226,2.489689,41.252762,122.635460,100.780879" />
<polygon fill="#ffffff" fill-opacity="0.501961" points="255.843571,177.381208,159.317852,178.309480,165.005068,75.436134,271.000000,57.388680" />
<polygon fill="#040200" fill-opacity="0.501961" points="155.856853,62.950670,154.928112,59.384716,225.250331,47.124926,269.616069,56.220982" />
<polygon fill="#000000" fill-opacity="0.501961" points="170.154310,45.258127,103.674460,23.718217,93.725021,74.884003,73.820658,49.645161" />
<polygon fill="#f5f9f9" fill-opacity="0.501961" points="63.268325,27.875546,271.000000,21.280528,73.888625,-16.000000,93.190433,56.713303" />
<polygon fill="#2b231f" fill-opacity="0.501961" points="145.315629,151.471050,124.862912,100.999597,160.673617,83.688706,148.449081,103.411003" />
<polygon fill="#6a6666" fill-opacity="0.501961" points="19.292467,54.981086,77.695591,54.496255,64.356784,16.337034,29.886211,25.526221" />
<polygon fill="#e1f1ff" fill-opacity="0.501961" points="128.143690,95.506846,102.207926,78.778543,95.341659,58.954102,125.409613,81.790335" />
<polygon fill="#f0f4f5" fill-opacity="0.501961" points="112.561994,21.385200,249.383256,-16.000000,271.000000,28.948952,192.085152,54.731791" />
<polygon fill="#0e100a" fill-opacity="0.501961" points="132.844954,27.126383,168.142954,74.694652,180.929585,57.313304,71.194739,29.796882" />
<polygon fill="#aeaeaf" fill-opacity="0.501961" points="185.765794,62.979833,153.872296,92.810671,143.949279,132.240758,233.212890,55.466163" />
<polygon fill="#edf5f5" fill-opacity="0.501961" points="90.270213,69.849001,70.211481,52.200073,-16.000000,185.000000,126.371941,126.787968" />
<polygon fill="#2d2f30" fill-opacity="0.501961" points="160.642962,161.761572,165.272875,158.125498,151.245046,158.645391,139.597037,185.000000" />
<polygon fill="#fbffff" fill-opacity="0.501961" points="181.245921,185.000000,262.596278,185.000000,271.000000,56.786018,143.652623,129.443285" />
<polygon fill="#635f63" fill-opacity="0.501961" points="109.658435,151.420010,120.669805,161.672928,116.941997,126.187547,109.824427,137.595873" />
<polygon fill="#f2fbfb" fill-opacity="0.501961" points="127.374983,185.000000,100.018462,130.629755,-16.000000,57.055031,-1.161302,153.324342" />
<polygon fill="#9da7b4" fill-opacity="0.501961" points="139.917892,51.109057,110.855393,57.014217,149.616561,90.286681,133.331536,88.580464" />
<polygon fill="#ffffff" fill-opacity="0.501961" points="90.221259,57.951227,86.994623,54.616483,76.590518,31.632573,90.655075,38.250012" />
<polygon fill="#e4e9ec" fill-opacity="0.501961" points="73.431198,3.697508,106.810555,-13.081327,-1.320724,-16.000000,-16.000000,55.941875" />
<polygon fill="#141715" fill-opacity="0.501961" points="160.966371,78.751617,148.823996,35.392245,158.731403,48.779992,170.146424,63.512729" />
<polygon fill="#12130b" fill-opacity="0.501961" points="230.453863,52.975549,211.429387,52.455432,174.264511,58.374909,271.000000,55.974841" />
<polygon fill="#262924" fill-opacity="0.501961" points="81.657739,40.183132,100.028465,82.559085,82.161773,59.924826,59.198750,37.875707" />
<polygon fill="#c4c5c6" fill-opacity="0.501961" points="52.684666,27.187794,96.580898,-16.000000,161.931012,-16.000000,93.796031,27.981252" />
<polygon fill="#282c2d" fill-opacity="0.501961" points="125.392336,94.602811,153.101592,59.052352,154.173775,57.294385,139.077390,61.777572" />
<polygon fill="#97a4b0" fill-opacity="0.501961" points="113.106021,58.429999,133.560960,81.496456,119.609724,43.960806,96.217761,62.917506" />
<polygon fill="#9d9c9d" fill-opacity="0.501961" points="214.301795,50.765793,260.086107,55.250636,271.000000,27.682174,261.557855,30.500514" />
<polygon fill="#9d9c9f" fill-opacity="0.501961" points="153.246770,88.516668,158.416404,52.588480,127.923765,95.503727,70.751061,112.524357" />
<polygon fill="#000000" fill-opacity="0.501961" points="158.007420,42.084861,126.990773,29.707238,127.476789,63.516429,132.977529,38.574667" />
<polygon fill="#c9d8e2" fill-opacity="0.501961" points="106.872621,52.374287,95.667044,73.141528,107.892321,79.892546,106.386525,71.313202" />
<polygon fill="#23211c" fill-opacity="0.501961" points="117.621396,93.205347,134.739854,112.518589,170.263193,62.015896,151.094209,100.487036" />
<polygon fill="#d0d4d6" fill-opacity="0.501961" points="130.800565,110.072122,121.383697,96.862220,11.377789,38.830045,-16.000000,46.556205" />
<polygon fill="#f9ffff" fill-opacity="0.501961" points="65.846386,34.216366,82.452030,33.842185,94.751471,52.585753,87.541092,45.874517" />
<polygon fill="#999898" fill-opacity="0.501961" points="181.019138,83.727298,169.608649,98.097626,146.129124,116.553488,170.719697,58.218823" />
<polygon fill="#403b37" fill-opacity="0.501961" points="103.751983,26.436246,110.938884,47.792267,98.309688,57.324397,86.268223,35.025412" />
<polygon fill="#838384" fill-opacity="0.501961" points="28.214531,52.665245,36.421037,23.804090,74.598697,54.761151,-8.059305,54.739582" />
<polygon fill="#4d4647" fill-opacity="0.501961" points="110.912251,149.862876,109.554243,146.824320,117.021907,128.548853,122.722407,131.478890" />
<polygon fill="#bdc0c0" fill-opacity="0.501961" points="189.655242,52.701594,191.524017,54.001376,110.107006,21.173904,225.756449,48.926574" />
<polygon fill="#262618" fill-opacity="0.501961" points="169.484338,46.761475,177.098565,61.852511,171.441983,71.880156,189.463852,56.991362" />
<polygon fill="#eaf1f0" fill-opacity="0.501961" points="271.000000,29.199333,271.000000,-1.507529,137.690458,-16.000000,215.617060,39.590375" />
<polygon fill="#252725" fill-opacity="0.501961" points="97.726473,74.141558,94.574021,35.386165,88.934680,69.006374,107.469882,92.255721" />
<polygon fill="#d9dadd" fill-opacity="0.501961" points="123.373518,142.614584,155.431325,145.592731,118.637688,178.459065,143.002885,109.412605" />
<polygon fill="#444036" fill-opacity="0.501961" points="63.622807,30.613504,90.401754,29.895249,63.963551,34.479655,44.791983,25.483582" />
<polygon fill="#b2b3b6" fill-opacity="0.501961" points="63.308314,53.248457,81.662655,58.218092,94.242184,82.936339,67.547707,68.514023" />
<polygon fill="#bbc9d6" fill-opacity="0.501961" points="120.524061,80.249766,107.578503,69.802828,127.768474,75.552293,123.578120,65.916072" />
<polygon fill="#0e2526" fill-opacity="0.501961" points="120.150358,63.457547,122.017428,71.570459,109.208472,69.998444,113.236138,59.361124" />
<polygon fill="#000100" fill-opacity="0.501961" points="124.942000,29.239482,99.274110,34.193778,121.781179,39.270169,156.623755,40.224196" />
<polygon fill="#252e2c" fill-opacity="0.501961" points="147.289164,80.927429,137.426199,64.130429,166.985951,45.208513,151.669741,47.238108" />
<polygon fill="#656d73" fill-opacity="0.501961" points="107.930430,55.865089,157.901118,56.943467,145.259990,45.509030,97.138184,42.910971" />
<polygon fill="#f2f8f8" fill-opacity="0.501961" points="67.332249,153.492505,120.382936,185.000000,109.011229,144.181951,125.713838,106.031375" />
<polygon fill="#acb8c3" fill-opacity="0.501961" points="145.853723,58.794981,133.573772,66.087858,142.234601,54.802489,142.104593,49.837835" />
<polygon fill="#141513" fill-opacity="0.501961" points="259.580187,61.380060,264.887000,52.904663,252.580952,56.148983,243.130329,54.506580" />
<polygon fill="#dbe1e2" fill-opacity="0.501961" points="149.241581,146.609699,172.687854,169.893761,168.709295,103.640881,148.825466,127.465149" />
<polygon fill="#e1e9e5" fill-opacity="0.501961" points="92.802860,49.938368,88.939802,40.551755,85.401869,54.706783,68.205202,65.681644" />
<polygon fill="#999795" fill-opacity="0.501961" points="96.272967,22.407832,40.569970,22.203757,62.663702,30.156043,104.373619,26.518644" />
<polygon fill="#27251e" fill-opacity="0.501961" points="127.820089,97.685315,107.711056,88.134760,139.952995,111.028946,130.632251,115.709894" />
<polygon fill="#999698" fill-opacity="0.501961" points="173.380725,185.000000,126.078894,118.451033,147.173384,110.749241,134.475685,133.698424" />
<polygon fill="#86848b" fill-opacity="0.501961" points="129.010202,145.311996,119.418764,159.014356,112.335292,158.943732,132.043310,139.174022" />
<polygon fill="#b2b3b4" fill-opacity="0.501961" points="151.170473,101.422031,176.327300,74.085974,202.043100,61.095618,161.304402,114.694965" />
<polygon fill="#f3fcfc" fill-opacity="0.501961" points="268.600092,63.475168,174.531416,145.065972,215.887521,185.000000,271.000000,165.532378" />
<polygon fill="#666c73" fill-opacity="0.501961" points="143.853268,85.871121,124.286025,52.281637,129.296544,71.906772,161.042234,67.412083" />
<polygon fill="#040b0a" fill-opacity="0.501961" points="130.375053,62.999096,129.781777,36.153189,102.840038,42.292824,122.809625,27.013946" />
<polygon fill="#b6bfac" fill-opacity="0.501961" points="161.065161,47.073424,162.675798,53.315223,167.927646,55.089542,169.107391,50.150779" />
<polygon fill="#757168" fill-opacity="0.501961" points="225.382128,55.877693,199.548969,64.274293,202.398247,65.619266,182.728469,62.070703" />
<polygon fill="#d9dbde" fill-opacity="0.501961" points="123.667721,139.102268,115.028302,145.431582,116.398431,155.104977,132.871840,133.116349" />
<polygon fill="#413d3c" fill-opacity="0.501961" points="147.761257,142.727137,138.691829,132.717903,140.120594,132.288178,146.899920,135.645412" />
<polygon fill="#a3a2a3" fill-opacity="0.501961" points="142.127885,70.172254,141.690109,88.418939,128.291148,95.417312,141.622867,70.567303" />
<polygon fill="#f8fffd" fill-opacity="0.501961" points="92.132602,44.660381,86.481838,54.313572,90.788060,54.887486,77.633897,35.803180" />
<polygon fill="#2a2c2a" fill-opacity="0.501961" points="151.799271,160.126916,143.243158,182.810153,133.890337,185.000000,157.693689,161.259533" />
<polygon fill="#d8ddde" fill-opacity="0.501961" points="143.722140,127.951666,203.230827,102.899447,202.593755,65.377601,232.792023,60.734609" />
<polygon fill="#3d3837" fill-opacity="0.501961" points="130.766577,89.674539,146.908068,56.866178,129.766591,80.788437,123.173558,82.713152" />
<polygon fill="#dfe5e5" fill-opacity="0.501961" points="136.090138,33.854141,216.745418,30.609654,183.099873,-15.444125,125.465492,20.341925" />
<polygon fill="#1e201d" fill-opacity="0.501961" points="144.831434,46.450167,171.268802,62.563713,156.779638,86.413209,160.894820,43.944888" />
<polygon fill="#6e6d6b" fill-opacity="0.501961" points="71.994246,55.042778,46.084072,50.518523,63.234512,21.910860,51.357628,18.341584" />
<polygon fill="#f7fffb" fill-opacity="0.501961" points="85.669828,32.217896,83.655157,25.683182,88.766767,44.583822,70.635237,35.126628" />
<polygon fill="#131713" fill-opacity="0.501961" points="94.587681,47.770419,96.727689,71.631714,96.510020,78.929370,86.856175,65.310717" />
<polygon fill="#343631" fill-opacity="0.501961" points="78.905576,57.765686,69.968240,38.998787,72.385616,36.911452,84.817658,45.271147" />
<polygon fill="#dfe2e3" fill-opacity="0.501961" points="84.180603,156.588114,130.219675,119.175920,91.433429,72.919064,111.438389,135.693547" />
<polygon fill="#b8baba" fill-opacity="0.501961" points="207.650712,51.395685,188.729379,54.583266,150.885812,37.476334,164.172200,37.103505" />
<polygon fill="#8b949d" fill-opacity="0.501961" points="146.322881,55.719856,126.345052,71.153987,152.584135,53.440048,159.384003,76.080295" />
<polygon fill="#36362c" fill-opacity="0.501961" points="172.161159,66.748652,166.811149,52.490320,199.705938,54.259669,236.030781,44.609548" />
<polygon fill="#6f6e6a" fill-opacity="0.501961" points="166.729257,66.900257,188.188400,63.499841,164.724725,83.304190,162.145332,77.404330" />
<polygon fill="#babfc3" fill-opacity="0.501961" points="119.342475,73.941174,111.985011,87.532147,123.311020,92.126605,127.974401,88.310157" />
<polygon fill="#535050" fill-opacity="0.501961" points="111.126056,87.241505,109.796026,80.305474,99.381886,78.620118,105.176062,89.562507" />
<polygon fill="#bfc9d0" fill-opacity="0.501961" points="125.523968,77.992256,125.534519,66.636791,114.609687,56.066663,128.179766,75.421570" />
<polygon fill="#b5bbbe" fill-opacity="0.501961" points="-14.760253,59.868636,1.357029,55.460213,66.508088,57.365735,8.478163,48.294056" />
<polygon fill="#e6eded" fill-opacity="0.501961" points="64.752581,60.243731,-16.000000,55.629066,78.501223,180.756305,-16.000000,162.109016" />
<polygon fill="#b0bdc8" fill-opacity="0.501961" points="147.522836,70.803437,156.230286,66.721691,153.382156,60.924307,153.267286,59.713341" />
<polygon fill="#e3e8e9" fill-opacity="0.501961" points="124.742844,149.143122,199.218909,137.358025,149.073305,128.613873,143.021475,171.167824" />
<polygon fill="#a9afb3" fill-opacity="0.501961" points="135.714666,185.000000,167.087925,155.157491,161.555514,185.000000,133.234600,164.647348" />
<polygon fill="#848486" fill-opacity="0.501961" points="24.375710,32.612597,33.037962,25.283888,56.647617,33.506722,47.693125,48.569776" />
<polygon fill="#7d878f" fill-opacity="0.501961" points="109.230826,77.819745,142.041543,74.219197,138.990407,74.171468,156.782202,67.814610" />
<polygon fill="#acaaa9" fill-opacity="0.501961" points="208.590665,57.249674,253.822356,62.792579,271.000000,61.835253,247.684324,57.132197" />
<polygon fill="#b2b4b6" fill-opacity="0.501961" points="76.068912,29.249175,96.220058,26.482028,55.367381,10.489292,56.544492,18.490363" />
<polygon fill="#d0d3d5" fill-opacity="0.501961" points="126.209671,28.579665,19.715069,-16.000000,23.548635,30.234007,60.518932,16.614158" />
<polygon fill="#9f9e9f" fill-opacity="0.501961" points="242.753773,37.936798,238.124798,44.821181,266.776767,56.176737,222.298134,49.267753" />
<polygon fill="#b3bcc4" fill-opacity="0.501961" points="113.182348,55.133162,112.368907,47.765485,124.958868,74.483055,127.207047,71.601529" />
<polygon fill="#4c4b49" fill-opacity="0.501961" points="151.728571,39.693507,152.917754,50.126470,161.415206,57.817497,129.950472,43.980918" />
<polygon fill="#bec8cf" fill-opacity="0.501961" points="141.246207,58.349706,139.135208,59.911831,134.168275,55.299484,135.460727,67.793049" />
<polygon fill="#322e29" fill-opacity="0.501961" points="92.609206,35.494063,94.199799,46.228185,85.440385,30.211265,111.703787,24.990662" />
<polygon fill="#dde2e3" fill-opacity="0.501961" points="-16.000000,31.286443,132.803270,112.157740,30.831619,79.453463,9.822268,-16.000000" />
<polygon fill="#282723" fill-opacity="0.501961" points="160.774655,88.555725,130.447625,104.105163,133.015487,104.315863,120.783689,99.411255" />
<polygon fill="#727175" fill-opacity="0.501961" points="112.529212,156.052098,122.495485,151.861307,116.364363,160.722307,112.361981,154.003765" />
<polygon fill="#bbc9d2" fill-opacity="0.501961" points="104.318295,76.560788,103.324493,72.344870,98.181155,55.974799,110.073267,69.969909" />
<polygon fill="#f0f8f5" fill-opacity="0.501961" points="87.931078,37.240714,91.403517,44.112179,90.661455,54.571168,82.851617,45.487153" />
<polygon fill="#061211" fill-opacity="0.501961" points="151.131909,66.241524,142.074468,67.078436,142.294551,61.696433,142.540722,60.057812" />
<polygon fill="#aca9ab" fill-opacity="0.501961" points="114.826238,127.563581,123.620423,134.070353,139.643376,133.163566,137.850399,127.585196" />
<polygon fill="#0c110d" fill-opacity="0.501961" points="152.760544,37.637860,111.057534,28.820484,132.223272,29.511187,135.469273,38.882883" />
<polygon fill="#808080" fill-opacity="0.501961" points="98.778488,47.281907,109.932389,44.609952,117.322806,62.289548,108.488617,40.354272" />
<polygon fill="#171913" fill-opacity="0.501961" points="175.792570,59.658255,210.501432,56.387635,243.536809,55.653643,178.739221,53.891335" />
<polygon fill="#bbb7b4" fill-opacity="0.501961" points="135.401695,88.385958,131.954628,89.236127,132.099172,86.495542,154.264164,79.642183" />
<polygon fill="#ebf3f3" fill-opacity="0.501961" points="169.605784,181.165848,169.725401,124.440392,225.257913,72.725008,260.943763,64.635710" />
<polygon fill="#63757b" fill-opacity="0.501961" points="112.339602,75.763799,109.267612,79.735503,116.232110,76.670227,117.364464,61.015264" />
<polygon fill="#a7a8aa" fill-opacity="0.501961" points="27.363116,36.213579,24.884813,57.211829,50.158392,50.760865,16.913342,44.915779" />
<polygon fill="#3a3837" fill-opacity="0.501961" points="140.241919,134.310592,143.464824,121.075944,151.670451,88.985974,145.838799,122.880755" />
<polygon fill="#e7ebec" fill-opacity="0.501961" points="116.256982,93.958949,78.865653,80.439034,16.176842,79.126002,73.723809,123.463814" />
<polygon fill="#a2abb3" fill-opacity="0.501961" points="134.656092,46.955201,133.195452,72.485984,143.055148,52.306031,139.414049,63.213266" />
<polygon fill="#dbdedf" fill-opacity="0.501961" points="76.036454,15.072149,96.607370,23.822282,142.902968,26.225737,155.038093,-2.593342" />
<polygon fill="#d0d5d7" fill-opacity="0.501961" points="122.696157,89.966548,113.013554,86.262559,129.168549,89.301456,119.668296,79.601708" />
<polygon fill="#d0d3d4" fill-opacity="0.501961" points="63.696888,60.060786,121.122878,99.051096,136.036871,131.575267,117.706612,108.192286" />
<polygon fill="#898c94" fill-opacity="0.501961" points="136.962267,185.000000,121.145376,165.742091,116.641370,179.066991,50.493247,185.000000" />
<polygon fill="#515454" fill-opacity="0.501961" points="67.112056,36.718771,81.538449,40.298457,66.607729,50.723570,53.555744,48.320756" />
<polygon fill="#5b5e5f" fill-opacity="0.501961" points="137.362419,84.781799,139.914241,80.750165,158.891910,65.611763,159.474337,67.749768" />
<polygon fill="#35312b" fill-opacity="0.501961" points="132.140219,117.787457,128.663861,102.822092,111.407428,88.682005,137.354487,101.649954" />
<polygon fill="#454043" fill-opacity="0.501961" points="133.315435,93.127610,128.780497,80.647802,121.551773,76.943450,132.482162,93.310002" />
<polygon fill="#d5d7d9" fill-opacity="0.501961" points="196.736847,54.285807,240.836196,39.318663,131.358858,29.367376,196.821621,42.323885" />
<polygon fill="#424a4e" fill-opacity="0.501961" points="120.346885,50.984352,123.580462,37.253233,118.132900,67.594503,118.341337,49.626974" />
<polygon fill="#86919b" fill-opacity="0.501961" points="96.683412,65.235001,112.955205,57.915524,121.909183,45.867580,99.278693,58.286787" />
<polygon fill="#b8babb" fill-opacity="0.501961" points="160.025278,90.659700,207.397399,81.128482,171.866519,102.649250,194.332838,63.864522" />
<polygon fill="#f0f8f4" fill-opacity="0.501961" points="70.899158,33.617341,88.381310,46.748753,85.549923,52.886073,87.074563,33.631800" />
<polygon fill="#d0d4d5" fill-opacity="0.501961" points="238.465325,30.362370,271.000000,69.667075,206.055493,66.003256,271.000000,56.770012" />
<polygon fill="#c7d6de" fill-opacity="0.501961" points="109.382205,79.934536,105.584286,60.531185,105.180997,64.108717,97.964391,69.260449" />
<polygon fill="#2d2e2b" fill-opacity="0.501961" points="83.360706,58.083486,103.450251,50.134296,88.896918,70.824106,110.539464,90.969768" />
<polygon fill="#e4eaea" fill-opacity="0.501961" points="265.845855,26.544554,271.000000,-16.000000,130.428916,-16.000000,222.013300,47.224873" />
<polygon fill="#514e4d" fill-opacity="0.501961" points="143.444727,133.684261,138.804517,127.525495,143.298724,145.382340,147.982145,134.748417" />
<polygon fill="#1f2827" fill-opacity="0.501961" points="137.570359,68.472231,132.798888,75.617559,150.063872,62.062678,146.614650,70.441597" />
<polygon fill="#bcbdbf" fill-opacity="0.501961" points="137.760035,84.363213,140.587000,74.095428,132.906483,90.966897,140.480836,88.346145" />
<polygon fill="#9b908d" fill-opacity="0.501961" points="137.494633,90.051997,146.526804,93.133814,151.140494,83.347011,145.179336,80.508401" />
<polygon fill="#474e51" fill-opacity="0.501961" points="136.967467,56.745847,134.259881,31.133508,140.074675,58.791128,138.546606,60.257787" />
<polygon fill="#b2b2b3" fill-opacity="0.501961" points="132.478266,133.730249,140.479171,123.222627,126.312004,115.274258,148.073937,155.259643" />
<polygon fill="#171a19" fill-opacity="0.501961" points="213.972858,54.236975,246.166532,55.716370,271.000000,54.092859,264.733959,58.545724" />
<polygon fill="#121918" fill-opacity="0.501961" points="129.634299,30.166825,129.658193,69.762004,125.469065,38.436960,148.306033,42.090454" />
<polygon fill="#bdcad2" fill-opacity="0.501961" points="102.268850,75.003812,119.214746,70.898606,120.329702,74.809710,99.355802,67.525319" />
<polygon fill="#020402" fill-opacity="0.501961" points="118.478162,28.247858,148.424528,37.379205,119.686210,35.214266,98.235921,41.099221" />
<polygon fill="#111c18" fill-opacity="0.501961" points="136.355209,67.861565,142.460608,71.271278,149.482005,65.950940,144.390760,66.130551" />
<polygon fill="#191b15" fill-opacity="0.501961" points="93.687064,69.073934,94.931993,42.098840,90.960670,56.899036,79.864692,57.332048" />
<polygon fill="#7b8791" fill-opacity="0.501961" points="126.354623,83.177716,112.544489,83.849860,112.705545,73.276758,108.789667,80.459565" />
<polygon fill="#a8b1b8" fill-opacity="0.501961" points="113.929319,57.787680,115.232763,49.879718,121.299757,64.210110,110.745407,58.029670" />
<polygon fill="#142325" fill-opacity="0.501961" points="114.362904,61.143223,115.608610,63.250511,115.128236,75.497099,111.610201,63.625585" />
<polygon fill="#cbced0" fill-opacity="0.501961" points="88.131799,86.143715,40.445826,54.353378,91.542612,73.140149,105.461089,89.400704" />
<polygon fill="#485154" fill-opacity="0.501961" points="142.514733,77.356531,153.533536,70.538431,140.092770,74.047161,135.918368,70.087526" />
<polygon fill="#626162" fill-opacity="0.501961" points="109.374525,146.519544,108.454092,151.391650,116.182021,131.405582,113.207469,154.989404" />
<polygon fill="#858c91" fill-opacity="0.501961" points="146.806785,46.353213,145.894257,46.430053,142.806673,58.511837,136.895832,46.278557" />
<polygon fill="#5f5858" fill-opacity="0.501961" points="128.617897,103.382417,144.972225,88.977798,116.098303,92.359275,136.572680,90.722951" />
<polygon fill="#111511" fill-opacity="0.501961" points="164.956431,66.461398,166.356546,67.350836,167.939274,57.980302,151.848347,45.392002" />
<polygon fill="#272721" fill-opacity="0.501961" points="76.449640,31.007652,62.826683,32.965979,86.652499,31.729485,130.672572,32.903967" />
<polygon fill="#f0f6f6" fill-opacity="0.501961" points="75.435029,171.328531,121.240287,176.653842,112.829361,154.420832,90.664899,120.128175" />
<polygon fill="#d0d3d5" fill-opacity="0.501961" points="201.568944,87.576531,212.151919,65.004155,147.437552,133.806314,142.898897,132.462602" />
<polygon fill="#817c7c" fill-opacity="0.501961" points="137.152394,117.004079,141.708855,145.486077,136.217122,132.272857,142.616173,110.059918" />
<polygon fill="#acaeb1" fill-opacity="0.501961" points="73.777587,54.256299,67.299189,57.567835,77.955184,72.852291,87.514267,65.616738" />
<polygon fill="#edf4f0" fill-opacity="0.501961" points="86.172044,49.962537,91.104327,41.994985,88.960396,57.205369,87.278969,52.852006" />
<polygon fill="#44403c" fill-opacity="0.501961" points="101.516050,81.208576,135.106586,109.906236,120.420784,95.152517,122.510354,94.215891" />
<polygon fill="#4d494a" fill-opacity="0.501961" points="111.315228,146.114599,115.013564,142.771680,118.926619,131.047437,112.205178,137.042250" />
<polygon fill="#373532" fill-opacity="0.501961" points="101.340340,61.789165,84.565555,30.881377,124.737441,42.260166,87.110792,29.564958" />
<polygon fill="#99999b" fill-opacity="0.501961" points="151.760794,110.420019,176.642035,84.034905,191.058641,72.618845,168.898120,95.674878" />
<polygon fill="#b6bbbd" fill-opacity="0.501961" points="165.220077,158.822602,144.775828,185.000000,167.042074,152.403940,135.636414,161.908285" />
<polygon fill="#cacdce" fill-opacity="0.501961" points="182.258238,50.250846,208.248130,48.164038,150.074367,35.302448,179.015778,49.835757" />
<polygon fill="#30322c" fill-opacity="0.501961" points="83.202527,45.555763,87.822000,62.541740,69.213867,44.761621,78.836925,39.862942" />
<polygon fill="#444646" fill-opacity="0.501961" points="94.289092,73.535549,103.915398,46.222870,125.295405,35.212846,97.769325,59.165014" />
<polygon fill="#b1b3b4" fill-opacity="0.501961" points="53.023358,16.783892,65.055888,10.661162,82.470292,29.441844,64.522341,24.828819" />
<polygon fill="#252623" fill-opacity="0.501961" points="131.491902,112.658084,154.261510,89.909974,145.135665,112.285826,146.198686,99.737563" />
<polygon fill="#8c8b94" fill-opacity="0.501961" points="135.157045,177.275770,137.613696,164.525119,123.333921,178.658362,125.187974,173.895350" />
<polygon fill="#eef5f4" fill-opacity="0.501961" points="34.249721,78.538752,-3.189016,75.757163,30.227447,115.218628,49.436164,86.530905" />
<polygon fill="#4d4743" fill-opacity="0.501961" points="134.222140,104.404919,142.730905,115.825280,146.963266,96.230645,142.590878,97.805251" />
<polygon fill="#e2e6e7" fill-opacity="0.501961" points="-16.000000,58.614770,68.817856,94.171136,128.651376,115.240132,105.813826,89.381554" />
<polygon fill="#6c6a6a" fill-opacity="0.501961" points="153.173935,90.298254,147.175684,68.104134,152.810418,78.204004,159.990886,53.971578" />
<polygon fill="#928c8e" fill-opacity="0.501961" points="117.799864,142.752499,126.782192,124.208636,111.358718,145.607380,122.113513,127.199104" />
<polygon fill="#1c1e1c" fill-opacity="0.501961" points="154.116145,93.599717,133.538512,99.771742,136.361809,96.701791,157.411775,88.413128" />
<polygon fill="#828b94" fill-opacity="0.501961" points="145.173687,70.106501,152.900682,70.920569,109.673850,75.790854,121.594618,76.234237" />
<polygon fill="#dbdedf" fill-opacity="0.501961" points="207.989026,51.072651,229.799068,42.678504,244.926761,12.948784,207.711085,37.260712" />
<polygon fill="#8e8d8e" fill-opacity="0.501961" points="49.194988,29.077137,22.705791,38.251528,77.045361,55.858215,32.583160,55.474085" />
<polygon fill="#b9bdb9" fill-opacity="0.501961" points="165.025194,50.835559,158.323697,48.736240,173.799271,48.217690,206.332896,34.970833" />
<polygon fill="#bcc7ce" fill-opacity="0.501961" points="121.087961,73.049979,100.249353,69.289914,99.039192,62.884564,119.386984,76.556151" />
<polygon fill="#4c4d44" fill-opacity="0.501961" points="156.845157,43.456336,181.216114,54.449319,148.222846,35.531520,142.763699,34.624010" />
<polygon fill="#292a22" fill-opacity="0.501961" points="210.008244,57.583539,195.928603,53.816278,221.637646,51.052941,159.972512,62.751525" />
<polygon fill="#6b737c" fill-opacity="0.501961" points="117.612472,53.399681,134.014818,81.584562,133.438820,67.021815,125.464333,66.276658" />
<polygon fill="#27271f" fill-opacity="0.501961" points="128.301565,103.464144,133.563853,116.633445,134.560287,101.015496,128.963818,105.469208" />
<polygon fill="#c6c8c9" fill-opacity="0.501961" points="115.262475,103.818367,84.515318,95.011115,130.504506,107.098719,110.019473,90.548218" />
<polygon fill="#b9bec0" fill-opacity="0.501961" points="233.459811,51.885765,255.344973,35.933185,257.781393,3.733782,256.052313,48.686850" />
<polygon fill="#747377" fill-opacity="0.501961" points="122.958623,149.674232,123.062229,151.529805,117.604042,160.210455,116.368503,155.351914" />
<polygon fill="#7e7d7c" fill-opacity="0.501961" points="50.814017,53.543118,70.067463,52.717259,25.946821,27.821072,43.605610,25.484636" />
<polygon fill="#d4d6d8" fill-opacity="0.501961" points="115.758064,149.679959,133.212567,142.837980,126.767173,129.779705,116.896849,148.257799" />
<polygon fill="#030504" fill-opacity="0.501961" points="109.342136,36.116894,116.894022,27.926229,133.420846,32.159811,108.008552,42.648114" />
<polygon fill="#d3d6d7" fill-opacity="0.501961" points="70.297614,-3.805147,178.355622,-16.000000,134.129924,11.104697,74.133358,18.563270" />
<polygon fill="#373e41" fill-opacity="0.501961" points="125.342888,59.525598,124.261194,47.820224,124.018998,51.558960,118.977004,33.315377" />
<polygon fill="#87827c" fill-opacity="0.501961" points="56.349152,18.274847,39.665447,25.410878,66.898023,25.409228,52.283929,17.882782" />
<polygon fill="#50413d" fill-opacity="0.501961" points="127.054967,94.726584,128.866220,87.042791,126.927211,83.743799,138.325612,77.918441" />
<polygon fill="#46423b" fill-opacity="0.501961" points="107.921539,28.082891,95.533988,49.980400,92.995363,34.786048,116.287905,30.166851" />
<polygon fill="#e2e9e6" fill-opacity="0.501961" points="86.287361,35.281586,81.291671,38.048346,89.077675,58.890680,88.079012,46.222836" />
<polygon fill="#e7eded" fill-opacity="0.501961" points="35.339976,151.396446,91.570575,185.000000,-16.000000,179.320574,13.233987,104.807447" />
<polygon fill="#8d8a8f" fill-opacity="0.501961" points="133.748494,94.870602,133.400125,92.729657,122.441184,89.627411,122.143627,96.108886" />
<polygon fill="#eaeeef" fill-opacity="0.501961" points="95.175613,138.916506,126.024804,124.762776,121.306776,106.004347,65.409524,99.293714" />
<polygon fill="#6a747c" fill-opacity="0.501961" points="95.548383,60.216859,95.322442,53.426739,101.447344,60.558782,99.922706,63.517672" />
<polygon fill="#9fa3ab" fill-opacity="0.501961" points="153.388206,155.739817,147.806096,153.585082,146.874168,163.427038,139.971363,185.000000" />
<polygon fill="#d4d7d8" fill-opacity="0.501961" points="45.558194,55.414438,33.266181,57.105101,59.862911,77.507685,95.983560,77.425321" />
<polygon fill="#c8cbcc" fill-opacity="0.501961" points="184.621273,82.818080,203.378832,136.194005,185.993348,86.031014,145.039196,118.976056" />
<polygon fill="#e2e8e8" fill-opacity="0.501961" points="166.909503,159.090344,181.958658,99.941028,148.109548,139.339018,150.517165,150.981472" />
<polygon fill="#7a7574" fill-opacity="0.501961" points="140.238723,81.156734,145.575097,115.000943,123.921231,120.954529,145.856930,118.698987" />
<polygon fill="#59524a" fill-opacity="0.501961" points="59.400636,30.544781,49.860528,27.249327,42.018332,23.469131,40.886337,27.490385" />
<polygon fill="#d5dddf" fill-opacity="0.501961" points="162.820584,152.512298,166.620198,162.294158,135.672699,182.678266,176.562812,177.664139" />
<polygon fill="#feffff" fill-opacity="0.501961" points="69.952586,36.769475,68.182644,34.537419,74.610844,33.380415,84.504282,33.373190" />
<polygon fill="#646664" fill-opacity="0.501961" points="135.025429,177.749468,161.445994,162.112444,160.381452,157.385651,131.207831,185.000000" />
<polygon fill="#161d1b" fill-opacity="0.501961" points="162.631129,68.886969,157.259753,68.519878,170.608067,53.496330,158.529600,86.480331" />
<polygon fill="#c5d2da" fill-opacity="0.501961" points="99.376438,76.500210,99.446006,67.173937,104.159525,61.049647,108.990078,76.891232" />
<polygon fill="#1e1e1a" fill-opacity="0.501961" points="160.840637,52.101541,146.933960,48.771487,144.657725,46.001714,158.997133,48.055024" />
<polygon fill="#dfe4e5" fill-opacity="0.501961" points="227.782205,66.477398,178.518302,107.590263,211.296315,97.427443,206.186993,67.821518" />
<polygon fill="#adadac" fill-opacity="0.501961" points="145.921177,110.377203,204.768590,61.879112,238.526287,57.000909,184.943558,67.469920" />
<polygon fill="#080d09" fill-opacity="0.501961" points="119.103273,47.723421,131.895750,38.572937,120.648647,36.050841,121.847264,45.753975" />
<polygon fill="#e1e7e7" fill-opacity="0.501961" points="271.000000,31.995953,107.482002,17.956250,85.997857,17.367342,99.297986,23.310514" />
<polygon fill="#b8b6b9" fill-opacity="0.501961" points="118.770294,145.221216,118.637217,139.442899,116.860081,135.604548,128.944505,129.399885" />
<polygon fill="#eaf0f0" fill-opacity="0.501961" points="271.000000,37.647895,262.367748,-13.914331,209.525993,35.090734,225.097138,-16.000000" />
<polygon fill="#a8b1b8" fill-opacity="0.501961" points="116.511368,56.776234,99.798390,62.366243,109.679970,54.698781,126.196785,69.588712" />
<polygon fill="#908f90" fill-opacity="0.501961" points="149.090931,106.063725,147.520146,121.748803,159.907272,102.739334,152.799270,96.094748" />
<polygon fill="#939aa4" fill-opacity="0.501961" points="126.530112,80.408750,128.695887,70.571375,123.646062,69.672982,131.229069,79.683121" />
<polygon fill="#d3d8db" fill-opacity="0.501961" points="17.738551,46.980338,-16.000000,58.845743,-13.114650,53.662122,40.897645,8.173315" />
<polygon fill="#12140f" fill-opacity="0.501961" points="92.220425,71.265621,81.895137,58.250560,84.846866,54.212209,95.508389,69.263954" />
<polygon fill="#959594" fill-opacity="0.501961" points="231.220632,49.990867,222.340238,48.451469,209.864899,52.827366,253.174305,35.121385" />
<polygon fill="#686b6e" fill-opacity="0.501961" points="92.752886,44.583493,102.168042,45.883434,113.871327,59.303989,111.464771,51.395337" />
<polygon fill="#d9dcdd" fill-opacity="0.501961" points="126.804314,181.654622,141.176555,151.456952,144.523188,143.257776,127.019507,150.447209" />
<polygon fill="#949ea2" fill-opacity="0.501961" points="143.192295,68.716825,135.881310,58.318064,137.739706,46.701276,133.330952,59.703259" />
<polygon fill="#a9b2ba" fill-opacity="0.501961" points="136.657712,52.195943,137.252039,57.191322,135.458823,71.569900,132.872250,59.644698" />
<polygon fill="#cad0d2" fill-opacity="0.501961" points="127.375898,89.406501,120.382761,78.360780,120.297948,75.708372,121.246471,88.226186" />
<polygon fill="#60605a" fill-opacity="0.501961" points="180.797307,62.051385,171.183285,66.624561,193.465295,57.492294,170.743677,78.806509" />
<polygon fill="#3d3d33" fill-opacity="0.501961" points="171.140916,47.001567,188.772711,61.083039,174.654293,49.785773,138.777175,39.586574" />
<polygon fill="#aab4ba" fill-opacity="0.501961" points="121.228584,68.893525,121.297472,47.301554,122.631749,48.749802,125.008020,67.791499" />
<polygon fill="#54524d" fill-opacity="0.501961" points="44.551710,26.843876,39.120789,23.274342,44.645478,24.506771,81.672304,44.454164" />
<polygon fill="#8a8c8e" fill-opacity="0.501961" points="151.885577,82.471858,139.028103,78.855545,142.573164,71.016018,137.920914,73.499103" />
<polygon fill="#aeb0b4" fill-opacity="0.501961" points="136.908890,185.000000,115.838111,185.000000,121.102989,156.858994,113.785497,159.348743" />
<polygon fill="#4d4f4e" fill-opacity="0.501961" points="146.100791,41.308025,144.086649,62.326483,149.293996,48.453638,153.130984,40.637207" />
<polygon fill="#464f53" fill-opacity="0.501961" points="134.825741,46.199928,136.742994,30.296926,133.087763,58.901922,131.180709,50.638365" />
<polygon fill="#484544" fill-opacity="0.501961" points="145.828104,141.720546,142.785008,142.371412,141.801416,133.470000,147.865368,138.493677" />
<polygon fill="#abafb2" fill-opacity="0.501961" points="146.311142,137.157394,145.751545,148.318525,147.755946,153.660137,150.937574,161.047701" />
<polygon fill="#21201d" fill-opacity="0.501961" points="96.069745,31.736409,86.330363,30.177698,87.752040,35.740729,99.514187,29.716512" />
<polygon fill="#808992" fill-opacity="0.501961" points="131.772934,71.989068,137.293023,76.480218,129.202590,51.067915,134.690150,62.681411" />
<polygon fill="#d3d6d7" fill-opacity="0.501961" points="196.875136,43.256729,140.707717,32.552351,113.756061,20.428867,160.018944,31.309253" />
<polygon fill="#0c0f09" fill-opacity="0.501961" points="158.259584,46.404249,161.385418,54.697250,154.490228,48.733157,156.574453,45.172609" />
<polygon fill="#97a0a9" fill-opacity="0.501961" points="140.158638,72.870267,150.113413,68.408140,150.552120,54.793783,152.983838,70.196508" />
<polygon fill="#a5aeb8" fill-opacity="0.501961" points="144.722483,55.406093,141.529517,52.036467,135.818406,67.360461,137.607313,60.862883" />
<polygon fill="#c7cbcb" fill-opacity="0.501961" points="193.288039,33.112025,165.840167,44.368805,85.680823,6.126199,154.178269,38.171771" />
<polygon fill="#e7efeb" fill-opacity="0.501961" points="82.992899,39.300081,72.354074,35.501856,91.948804,50.068509,91.308848,51.733348" />
<polygon fill="#cbcfd0" fill-opacity="0.501961" points="162.453484,113.714393,224.455574,65.995193,152.780970,116.666753,144.929353,135.363837" />
<polygon fill="#94928f" fill-opacity="0.501961" points="65.812969,30.839377,46.549801,25.187645,92.983291,27.150142,81.887124,29.475114" />
<polygon fill="#1b2328" fill-opacity="0.501961" points="108.649757,69.656409,115.217074,71.997573,120.244799,68.017585,122.088429,71.078935" />
<polygon fill="#6a7178" fill-opacity="0.501961" points="117.547742,80.535564,117.538199,82.440536,108.046932,83.087477,102.810452,82.711230" />
<polygon fill="#dee4e4" fill-opacity="0.501961" points="41.415655,56.105860,62.298557,84.865427,-16.000000,69.186452,3.986026,56.273004" />
<polygon fill="#1a2321" fill-opacity="0.501961" points="143.579930,71.560514,144.123048,58.383433,150.012170,60.062355,149.439438,66.963415" />
<polygon fill="#3e4445" fill-opacity="0.501961" points="149.886710,79.204563,145.037920,74.303235,171.354388,64.649008,140.956671,74.584477" />
<polygon fill="#b0b3b4" fill-opacity="0.501961" points="91.771076,24.610308,71.561712,30.463375,60.285145,19.591766,84.249329,18.674137" />
<polygon fill="#c5cccf" fill-opacity="0.501961" points="110.379427,82.782840,118.250818,89.275908,126.462485,85.929421,114.982960,84.088660" />
<polygon fill="#f3f9f8" fill-opacity="0.501961" points="89.206457,39.351131,85.412016,36.287275,88.399553,53.402981,91.728308,46.741938" />
<polygon fill="#aeb0b1" fill-opacity="0.501961" points="132.943371,130.580371,133.432815,130.812186,125.356268,103.534060,130.072339,111.448150" />
<polygon fill="#dee5e8" fill-opacity="0.501961" points="64.342748,6.165857,112.949713,-16.000000,63.777788,-16.000000,53.057774,3.249089" />
<polygon fill="#3e3b39" fill-opacity="0.501961" points="146.305686,110.296114,143.513560,127.500969,146.463423,124.119362,145.823420,124.843126" />
<polygon fill="#7c7776" fill-opacity="0.501961" points="152.777559,68.788591,158.610039,70.781764,136.334274,93.942199,160.334211,71.090001" />
<polygon fill="#edf5f2" fill-opacity="0.501961" points="92.226576,52.628364,86.682027,33.852837,67.233096,34.891305,81.195985,36.981332" />
<polygon fill="#57554c" fill-opacity="0.501961" points="196.667231,58.506803,230.133558,55.742146,205.490878,58.327838,184.219784,65.118927" />
<polygon fill="#c7cbcc" fill-opacity="0.501961" points="42.004480,54.988002,80.043176,63.706938,67.690750,54.693090,82.270157,76.542690" />
<polygon fill="#c8cfd1" fill-opacity="0.501961" points="6.775285,52.115309,-10.218063,46.635653,26.281696,51.433490,25.426250,42.333366" />
<polygon fill="#b0b3b5" fill-opacity="0.501961" points="149.264239,119.602710,199.862090,81.287798,151.551838,111.714672,138.545697,143.665943" />
<polygon fill="#f3f9f9" fill-opacity="0.501961" points="236.365230,126.229441,174.235549,148.190645,185.787451,116.048474,234.878941,185.000000" />
<polygon fill="#484c4c" fill-opacity="0.501961" points="142.482833,49.531915,136.660091,56.042416,145.746061,42.156570,142.915123,41.249020" />
<polygon fill="#cdcfd4" fill-opacity="0.501961" points="142.572814,185.000000,134.986874,157.539030,160.645802,152.159807,150.109636,148.301854" />
<polygon fill="#7f7d7d" fill-opacity="0.501961" points="128.992300,120.105669,134.453903,114.146472,154.277126,107.125084,167.660642,99.795975" />
<polygon fill="#4c4846" fill-opacity="0.501961" points="97.080713,80.592358,111.339660,90.997227,122.069013,91.190411,127.517953,99.079998" />
<polygon fill="#696b6b" fill-opacity="0.501961" points="107.413550,44.710962,123.660036,51.399871,102.562105,40.565050,108.706164,53.455121" />
<polygon fill="#111413" fill-opacity="0.501961" points="271.000000,57.773737,217.558448,54.482038,238.769177,54.532912,255.637913,56.154041" />
<polygon fill="#b3bcc0" fill-opacity="0.501961" points="7.641389,56.209185,-4.549553,57.151660,-3.105607,67.262371,-9.163381,45.054052" />
<polygon fill="#8c8b89" fill-opacity="0.501961" points="171.068335,63.945081,168.742361,72.565246,179.082791,71.286775,161.554071,86.336810" />
<polygon fill="#4e4f51" fill-opacity="0.501961" points="60.135227,47.295708,60.380019,52.920637,65.176101,33.847391,78.731330,52.357822" />
<polygon fill="#c5c5c7" fill-opacity="0.501961" points="127.832135,129.765223,135.748156,133.272787,134.654976,121.979598,118.687088,125.915735" />
<polygon fill="#999e9d" fill-opacity="0.501961" points="150.144384,176.012124,161.513972,161.961708,163.265118,155.845028,161.191347,157.603187" />
<polygon fill="#e7ebec" fill-opacity="0.501961" points="87.092626,81.643672,29.587789,86.647565,69.286521,127.951700,90.222975,69.462242" />
<polygon fill="#777271" fill-opacity="0.501961" points="141.523262,94.665436,150.116283,86.919457,153.962206,73.084287,155.141290,87.895902" />
<polygon fill="#3e3e3c" fill-opacity="0.501961" points="115.695655,40.088260,86.969834,65.675632,102.280627,46.602428,110.323274,48.735614" />
<polygon fill="#020402" fill-opacity="0.501961" points="115.631449,31.892696,131.351615,30.596026,147.913482,41.829095,115.767937,32.739895" />
<polygon fill="#5f605b" fill-opacity="0.501961" points="192.809900,53.439999,185.507142,50.495117,190.318817,55.897195,182.382522,64.720845" />
<polygon fill="#e5ebeb" fill-opacity="0.501961" points="210.532932,78.445308,271.000000,73.374230,271.000000,65.512385,244.801331,65.598007" />
<polygon fill="#9c9d9c" fill-opacity="0.501961" points="226.609475,56.405942,271.000000,59.776280,246.707119,46.502880,264.818627,61.771999" />
<polygon fill="#848e97" fill-opacity="0.501961" points="143.678495,56.118642,139.679620,58.220348,148.989354,58.968891,155.512696,58.489603" />
<polygon fill="#6d6b69" fill-opacity="0.501961" points="135.661240,105.401337,161.750997,124.577489,136.966790,106.529142,149.349271,93.975570" />
<polygon fill="#191c15" fill-opacity="0.501961" points="193.607145,55.457927,179.933451,57.660193,195.707591,59.029784,214.750035,54.777668" />
<polygon fill="#bcc1bc" fill-opacity="0.501961" points="172.046879,49.099841,160.130511,50.978393,165.310941,-3.864850,160.614822,52.447367" />
<polygon fill="#d9dbdc" fill-opacity="0.501961" points="119.230649,96.882473,69.216147,97.286373,115.338796,103.886925,115.679739,93.374849" />
<polygon fill="#2d2c28" fill-opacity="0.501961" points="131.696375,115.657834,130.514003,107.385964,143.718014,108.697670,146.583687,108.884452" />
<polygon fill="#9d9796" fill-opacity="0.501961" points="151.180201,85.999865,146.375017,85.607837,136.104829,82.411870,153.227191,82.368967" />
<polygon fill="#384c4e" fill-opacity="0.501961" points="116.491978,71.231815,110.808185,67.846685,109.122910,64.634800,106.944186,67.304489" />
<polygon fill="#484d4f" fill-opacity="0.501961" points="156.728132,53.165791,158.539550,63.437707,154.086554,60.747957,152.444787,47.329899" />
<polygon fill="#85817c" fill-opacity="0.501961" points="219.696180,59.883713,218.558668,57.671631,205.998794,58.777401,196.004565,61.626361" />
<polygon fill="#474f55" fill-opacity="0.501961" points="124.785686,63.575219,116.477723,55.534957,141.003725,35.953067,118.661199,53.663668" />
<polygon fill="#edf4f4" fill-opacity="0.501961" points="92.544550,116.839115,51.609504,122.552741,110.294841,144.182091,111.460690,119.516219" />
</g>
</svg>