<svg xmlns="http://www.w3.org/2000/svg" version="1.1" width="1024" height="680">
<rect x="0" y="0" width="1024" height="680" fill="#cdce2c" />
<g transform="scale(4.000000) translate(0.5 0.5)">
<path stroke="#00004c" stroke-opacity="0.501961" fill="none" d="M 171.982677 47.464629 Q 56.879373 22.508531, 69.403379 154.899561" stroke-width="0.500000" />
<path stroke="#175bff" stroke-opacity="0.501961" fill="none" d="M 131.467616 38.695347 Q 12.844977 74.622814, 85.036518 185.000000" stroke-width="0.500000" />
<path stroke="#004df9" stroke-opacity="0.501961" fill="none" d="M 116.926833 39.380045 Q 33.228108 83.811228, 76.377957 184.026178" stroke-width="0.500000" />
<path stroke="#000046" stroke-opacity="0.501961" fill="none" d="M 121.384155 0.499971 Q 55.259737 145.183651, 65.559966 151.002635" stroke-width="0.500000" />
<path stroke="#000030" stroke-opacity="0.501961" fill="none" d="M 132.912882 -11.574477 Q 100.131612 36.509746, 65.384844 145.134386" stroke-width="0.500000" />
<path stroke="#000058" stroke-opacity="0.501961" fill="none" d="M 145.939148 43.860933 Q 67.859538 26.970840, 70.469445 155.686903" stroke-width="0.500000" />
<path stroke="#00006d" stroke-opacity="0.501961" fill="none" d="M 142.509635 44.206256 Q 47.411516 44.112613, 82.634482 148.797446" stroke-width="0.500000" />
<path stroke="#000031" stroke-opacity="0.501961" fill="none" d="M 113.684957 -0.508812 Q 75.855761 139.544291, 61.958244 141.810407" stroke-width="0.500000" />
<path stroke="#0a0016" stroke-opacity="0.501961" fill="none" d="M 66.215698 138.157165 Q 76.173787 138.060317, 115.918407 0.966121" stroke-width="0.500000" />
<path stroke="#0038be" stroke-opacity="0.501961" fill="none" d="M 156.391008 43.973969 Q 69.953676 18.118568, 63.161294 142.366160" stroke-width="0.500000" />
<path stroke="#000044" stroke-opacity="0.501961" fill="none" d="M 162.148743 45.089472 Q 81.262346 23.476737, 68.423579 132.135922" stroke-width="0.500000" />
<path stroke="#000039" stroke-opacity="0.501961" fill="none" d="M 113.972421 -9.717420 Q 74.215979 141.718381, 62.121775 140.036350" stroke-width="0.500000" />
<path stroke="#2880ff" stroke-opacity="0.501961" fill="none" d="M 114.923570 34.447674 Q 39.931370 38.299210, 70.663854 180.461852" stroke-width="0.500000" />
<path stroke="#3e85ff" stroke-opacity="0.501961" fill="none" d="M 94.230053 23.715357 Q 21.702578 155.277098, 103.053619 185.000000" stroke-width="0.500000" />
<path stroke="#002771" stroke-opacity="0.501961" fill="none" d="M 115.403964 -14.315311 Q 72.538396 115.510077, 61.035477 141.176858" stroke-width="0.500000" />
<path stroke="#000363" stroke-opacity="0.501961" fill="none" d="M 68.575322 154.891327 Q 67.597118 31.713588, 135.627125 43.258514" stroke-width="0.500000" />
<path stroke="#000048" stroke-opacity="0.501961" fill="none" d="M 78.250071 146.626911 Q 67.774306 46.653763, 127.418309 43.564212" stroke-width="0.500000" />
<path stroke="#00084f" stroke-opacity="0.501961" fill="none" d="M 104.172438 21.836521 Q 85.560716 92.727358, 61.783934 141.454740" stroke-width="0.500000" />
<path stroke="#360003" stroke-opacity="0.501961" fill="none" d="M 68.464100 138.406391 Q 87.138231 112.420500, 120.968169 -14.891845" stroke-width="0.500000" />
<path stroke="#196de6" stroke-opacity="0.501961" fill="none" d="M 122.342248 34.315632 Q 60.367050 23.895264, 63.880353 133.181906" stroke-width="0.500000" />
<path stroke="#6595ff" stroke-opacity="0.501961" fill="none" d="M 107.515769 37.451516 Q 6.351980 129.242283, 104.859821 176.693883" stroke-width="0.500000" />
<path stroke="#5c9fff" stroke-opacity="0.501961" fill="none" d="M 76.418218 171.877339 Q 37.020487 125.451636, 88.250279 23.961236" stroke-width="0.500000" />
<path stroke="#074e98" stroke-opacity="0.501961" fill="none" d="M 59.252206 139.692018 Q 84.578033 60.936973, 115.701014 -16.000000" stroke-width="0.500000" />
<path stroke="#30030b" stroke-opacity="0.501961" fill="none" d="M 115.743583 -2.569119 Q 83.748593 107.344164, 67.836412 147.977451" stroke-width="0.500000" />
<path stroke="#1790ff" stroke-opacity="0.501961" fill="none" d="M 87.236481 53.148977 Q 45.327336 132.867302, 63.242497 141.133746" stroke-width="0.500000" />
<path stroke="#0b2b59" stroke-opacity="0.501961" fill="none" d="M 61.891523 133.725063 Q 100.849434 56.637567, 108.232353 -16.000000" stroke-width="0.500000" />
<path stroke="#10112a" stroke-opacity="0.501961" fill="none" d="M 69.809733 132.871907 Q 87.789009 95.187246, 116.812304 -16.000000" stroke-width="0.500000" />
<path stroke="#153d71" stroke-opacity="0.501961" fill="none" d="M 172.288818 44.533387 Q 56.293060 21.494832, 67.135147 157.529123" stroke-width="0.500000" />
<path stroke="#001049" stroke-opacity="0.501961" fill="none" d="M 145.044941 44.490223 Q 64.229818 42.098351, 78.560847 131.094618" stroke-width="0.500000" />
<path stroke="#00286f" stroke-opacity="0.501961" fill="none" d="M 151.894517 44.357699 Q 69.792256 20.514286, 67.588887 146.401403" stroke-width="0.500000" />
<path stroke="#2376e1" stroke-opacity="0.501961" fill="none" d="M 79.790124 34.190477 Q 64.259512 80.761895, 63.729332 147.283612" stroke-width="0.500000" />
<path stroke="#262946" stroke-opacity="0.501961" fill="none" d="M 67.860113 157.728168 Q 87.254812 49.657825, 108.485974 -12.158666" stroke-width="0.500000" />
<path stroke="#6d1800" stroke-opacity="0.501961" fill="none" d="M 125.731742 -15.880276 Q 122.353796 16.375583, 70.306716 142.749796" stroke-width="0.500000" />
<path stroke="#387af1" stroke-opacity="0.501961" fill="none" d="M 57.114277 132.668981 Q 86.462433 38.997931, 85.959334 31.883484" stroke-width="0.500000" />
<path stroke="#5195ff" stroke-opacity="0.501961" fill="none" d="M 83.781389 34.931351 Q 49.502105 123.809510, 59.656143 134.833722" stroke-width="0.500000" />
<path stroke="#5f1b08" stroke-opacity="0.501961" fill="none" d="M 74.849889 147.945002 Q 75.243737 111.767374, 127.734066 -2.596084" stroke-width="0.500000" />
<path stroke="#0c001c" stroke-opacity="0.501961" fill="none" d="M 135.289910 44.248306 Q 78.192645 30.364510, 78.554830 142.164643" stroke-width="0.500000" />
<path stroke="#87c2ff" stroke-opacity="0.501961" fill="none" d="M 96.993820 32.674646 Q 36.935573 121.647163, 63.911345 140.614528" stroke-width="0.500000" />
<path stroke="#1a598f" stroke-opacity="0.501961" fill="none" d="M 103.853607 -16.000000 Q 76.049377 120.629055, 57.551856 135.800276" stroke-width="0.500000" />
<path stroke="#1b2333" stroke-opacity="0.501961" fill="none" d="M 63.203144 141.960324 Q 70.065552 128.955332, 125.404371 -8.934236" stroke-width="0.500000" />
<path stroke="#4d95f9" stroke-opacity="0.501961" fill="none" d="M 93.463448 29.587876 Q 49.278155 115.515975, 61.507745 138.914706" stroke-width="0.500000" />
<path stroke="#7bbdff" stroke-opacity="0.501961" fill="none" d="M 85.123962 174.280367 Q 25.827346 123.058629, 91.026563 30.766613" stroke-width="0.500000" />
<path stroke="#00001e" stroke-opacity="0.501961" fill="none" d="M 146.189629 43.574326 Q 84.126410 45.830881, 59.280610 36.021346" stroke-width="0.500000" />
<path stroke="#292831" stroke-opacity="0.501961" fill="none" d="M 122.913726 -16.000000 Q 129.413701 -3.699678, 66.764410 135.045721" stroke-width="0.500000" />
<path stroke="#2b65b7" stroke-opacity="0.501961" fill="none" d="M 115.656225 35.620880 Q 57.568278 35.414478, 62.573147 138.873199" stroke-width="0.500000" />
<path stroke="#6c2109" stroke-opacity="0.501961" fill="none" d="M 64.201824 143.713413 Q 120.379881 75.351764, 88.764856 -16.000000" stroke-width="0.500000" />
<path stroke="#3277c0" stroke-opacity="0.501961" fill="none" d="M 65.280571 131.719469 Q 73.670514 87.226381, 74.942787 19.845804" stroke-width="0.500000" />
<path stroke="#22334a" stroke-opacity="0.501961" fill="none" d="M 74.858465 -16.000000 Q 119.712401 43.302815, 60.323781 137.030939" stroke-width="0.500000" />
<path stroke="#0873ce" stroke-opacity="0.501961" fill="none" d="M 93.353492 49.666654 Q 49.049633 121.684768, 61.702987 140.842375" stroke-width="0.500000" />
<path stroke="#2f4974" stroke-opacity="0.501961" fill="none" d="M 123.928951 19.478827 Q 37.687729 103.051423, 95.906359 157.576913" stroke-width="0.500000" />
<path stroke="#5f8cdb" stroke-opacity="0.501961" fill="none" d="M 67.121801 185.000000 Q 58.921837 44.033435, 96.680131 34.398830" stroke-width="0.500000" />
<path stroke="#1e1723" stroke-opacity="0.501961" fill="none" d="M 138.586525 45.098281 Q 98.042748 45.437745, 47.319367 40.035653" stroke-width="0.500000" />
<path stroke="#7b2c07" stroke-opacity="0.501961" fill="none" d="M 80.969148 148.119976 Q 67.024467 127.364436, 136.582065 -16.000000" stroke-width="0.500000" />
<path stroke="#222e76" stroke-opacity="0.501961" fill="none" d="M 88.024924 77.380607 Q 41.598374 115.565153, 102.609003 151.792297" stroke-width="0.500000" />
<path stroke="#104688" stroke-opacity="0.501961" fill="none" d="M 143.291493 44.790619 Q 77.778985 24.601216, 59.737308 133.565389" stroke-width="0.500000" />
<path stroke="#add3ff" stroke-opacity="0.501961" fill="none" d="M 101.576380 167.322507 Q 27.608688 139.241367, 71.239041 80.910270" stroke-width="0.500000" />
<path stroke="#264055" stroke-opacity="0.501961" fill="none" d="M 111.957418 4.667743 Q 91.609204 32.346730, 68.602019 138.984883" stroke-width="0.500000" />
<path stroke="#82b9fa" stroke-opacity="0.501961" fill="none" d="M 82.462756 34.660303 Q 29.548222 147.419567, 89.600820 169.455869" stroke-width="0.500000" />
<path stroke="#3c8ee9" stroke-opacity="0.501961" fill="none" d="M 103.115776 47.466298 Q 63.471841 61.200909, 63.723975 129.962530" stroke-width="0.500000" />
<path stroke="#13001f" stroke-opacity="0.501961" fill="none" d="M 75.523206 60.764523 Q 80.796255 30.560628, 133.008764 46.240366" stroke-width="0.500000" />
<path stroke="#ffffff" stroke-opacity="0.501961" fill="none" d="M 93.953891 149.285448 Q 80.504460 141.508669, 58.861455 174.072891" stroke-width="0.500000" />
<path stroke="#fff9ff" stroke-opacity="0.501961" fill="none" d="M 47.505063 185.000000 Q 78.999275 152.133211, 96.518558 143.459301" stroke-width="0.500000" />
<path stroke="#1d2f2c" stroke-opacity="0.501961" fill="none" d="M 66.032187 130.334379 Q 96.317392 60.788999, 125.357661 -16.000000" stroke-width="0.500000" />
<path stroke="#3c3827" stroke-opacity="0.501961" fill="none" d="M 159.980796 36.149319 Q 117.009840 63.051109, 43.551757 18.683797" stroke-width="0.500000" />
<path stroke="#77240c" stroke-opacity="0.501961" fill="none" d="M 66.214049 143.508756 Q 127.872596 43.795191, 67.993145 17.723391" stroke-width="0.500000" />
<path stroke="#08355a" stroke-opacity="0.501961" fill="none" d="M 130.040846 48.297936 Q 77.092976 31.591853, 71.287742 138.145923" stroke-width="0.500000" />
<path stroke="#34708f" stroke-opacity="0.501961" fill="none" d="M 103.284958 -16.000000 Q 94.844193 23.449710, 62.212665 140.535014" stroke-width="0.500000" />
<path stroke="#322a2e" stroke-opacity="0.501961" fill="none" d="M 104.286032 0.081920 Q 81.176005 132.659710, 66.857535 135.757387" stroke-width="0.500000" />
<path stroke="#fff77d" stroke-opacity="0.501961" fill="none" d="M -8.502087 168.605156 Q 251.084583 170.731078, 256.761639 163.767358" stroke-width="0.500000" />
<path stroke="#bed9f9" stroke-opacity="0.501961" fill="none" d="M 115.815612 185.000000 Q 15.293294 138.734115, 80.464922 65.031375" stroke-width="0.500000" />
<path stroke="#ffffff" stroke-opacity="0.501961" fill="none" d="M 92.066378 148.200094 Q 62.735434 168.966463, 46.862672 185.000000" stroke-width="0.500000" />
<path stroke="#6f0500" stroke-opacity="0.501961" fill="none" d="M 96.403700 61.441929 Q 102.538740 108.691178, 64.664093 132.491760" stroke-width="0.500000" />
<path stroke="#ffffff" stroke-opacity="0.501961" fill="none" d="M 89.840204 145.455535 Q 52.731903 171.563817, 57.686238 185.000000" stroke-width="0.500000" />
<path stroke="#3d588d" stroke-opacity="0.501961" fill="none" d="M 75.398017 108.005021 Q 60.512471 18.059490, 142.902058 42.562028" stroke-width="0.500000" />
<path stroke="#225267" stroke-opacity="0.501961" fill="none" d="M 59.492699 135.758591 Q 108.560206 104.578883, 56.766330 18.126274" stroke-width="0.500000" />
<path stroke="#a1b9e2" stroke-opacity="0.501961" fill="none" d="M 102.426730 33.497207 Q -2.146408 141.766453, 132.066939 185.000000" stroke-width="0.500000" />
<path stroke="#8c3e0b" stroke-opacity="0.501961" fill="none" d="M 65.695037 145.330002 Q 129.852546 55.940667, 72.782533 7.628563" stroke-width="0.500000" />
<path stroke="#274686" stroke-opacity="0.501961" fill="none" d="M 85.267310 76.598650 Q 42.350588 115.312542, 99.594643 152.163783" stroke-width="0.500000" />
<path stroke="#6099ff" stroke-opacity="0.501961" fill="none" d="M 128.425284 42.231836 Q 78.683261 25.600444, 71.479150 56.521040" stroke-width="0.500000" />
<path stroke="#2b2862" stroke-opacity="0.501961" fill="none" d="M 86.842767 75.654251 Q 53.331633 131.289225, 104.405775 145.866820" stroke-width="0.500000" />
<path stroke="#f7dcff" stroke-opacity="0.501961" fill="none" d="M 96.322181 136.701373 Q 56.984892 162.502053, 58.066509 184.456857" stroke-width="0.500000" />
<path stroke="#76b2ff" stroke-opacity="0.501961" fill="none" d="M 87.151255 50.160162 Q 58.825088 108.258667, 57.155869 119.655471" stroke-width="0.500000" />
<path stroke="#66330f" stroke-opacity="0.501961" fill="none" d="M 128.900994 14.153583 Q 91.569582 59.343217, 66.853638 161.006825" stroke-width="0.500000" />
<path stroke="#006dc0" stroke-opacity="0.501961" fill="none" d="M 84.898373 75.152085 Q 55.170692 97.287810, 61.991476 139.445418" stroke-width="0.500000" />
<path stroke="#ffeeff" stroke-opacity="0.501961" fill="none" d="M 92.113397 140.451284 Q 91.772481 156.626823, 41.435098 183.084996" stroke-width="0.500000" />
<path stroke="#fef101" stroke-opacity="0.501961" fill="none" d="M 206.587755 115.426667 Q 38.597988 -12.447822, 2.535169 166.934154" stroke-width="0.500000" />
<path stroke="#302e2d" stroke-opacity="0.501961" fill="none" d="M 55.164600 12.154107 Q 92.603331 57.050350, 153.883756 40.642465" stroke-width="0.500000" />
<path stroke="#ffebff" stroke-opacity="0.501961" fill="none" d="M 57.981846 170.190022 Q 94.717408 167.696329, 85.787721 142.355947" stroke-width="0.500000" />
<path stroke="#002658" stroke-opacity="0.501961" fill="none" d="M 85.972329 73.935988 Q 86.010295 99.778754, 66.479501 135.104840" stroke-width="0.500000" />
<path stroke="#fff4ff" stroke-opacity="0.501961" fill="none" d="M 62.748531 168.429740 Q 90.309746 173.748419, 85.650942 144.719457" stroke-width="0.500000" />
<path stroke="#ffe9ff" stroke-opacity="0.501961" fill="none" d="M 59.931945 167.525898 Q 93.286646 166.608909, 82.779482 141.994435" stroke-width="0.500000" />
<path stroke="#74c2ff" stroke-opacity="0.501961" fill="none" d="M 72.595750 75.840510 Q 64.177610 26.116359, 111.054686 36.704968" stroke-width="0.500000" />
<path stroke="#382e28" stroke-opacity="0.501961" fill="none" d="M 151.210342 42.371166 Q 117.008715 42.006404, 46.663489 44.881006" stroke-width="0.500000" />
<path stroke="#9bcfff" stroke-opacity="0.501961" fill="none" d="M 60.519742 136.742074 Q 44.734419 117.681461, 88.216270 47.652093" stroke-width="0.500000" />
<path stroke="#1e1641" stroke-opacity="0.501961" fill="none" d="M 132.617375 47.201684 Q 94.467898 28.475230, 72.625471 53.935138" stroke-width="0.500000" />
<path stroke="#2d4876" stroke-opacity="0.501961" fill="none" d="M 104.288957 144.817085 Q 48.524067 122.674882, 84.603266 69.922460" stroke-width="0.500000" />
<path stroke="#fff1ff" stroke-opacity="0.501961" fill="none" d="M 68.915856 168.517269 Q 70.881718 138.541307, 95.777957 151.363924" stroke-width="0.500000" />
<path stroke="#5b610b" stroke-opacity="0.501961" fill="none" d="M 128.186059 -13.924092 Q 90.660088 61.875509, 47.346584 15.016840" stroke-width="0.500000" />
<path stroke="#ffff00" stroke-opacity="0.501961" fill="none" d="M 271.000000 161.920620 Q 212.357092 0.229084, 73.243438 134.989119" stroke-width="0.500000" />
<path stroke="#ffff00" stroke-opacity="0.501961" fill="none" d="M 79.295164 129.771860 Q 218.599839 21.192901, 258.234367 129.400493" stroke-width="0.500000" />
<path stroke="#931500" stroke-opacity="0.501961" fill="none" d="M 100.630496 76.465777 Q 70.409610 133.486109, 67.337711 149.027678" stroke-width="0.500000" />
<path stroke="#60656f" stroke-opacity="0.501961" fill="none" d="M 108.599999 -1.306228 Q 27.253996 110.719487, 102.623900 156.373409" stroke-width="0.500000" />
<path stroke="#001530" stroke-opacity="0.501961" fill="none" d="M 61.935030 139.381670 Q 92.203202 111.323009, 83.085407 71.508779" stroke-width="0.500000" />
<path stroke="#ffff00" stroke-opacity="0.501961" fill="none" d="M 80.549323 131.717679 Q 126.043326 20.089218, 271.000000 124.404250" stroke-width="0.500000" />
<path stroke="#00518e" stroke-opacity="0.501961" fill="none" d="M 82.854248 73.162254 Q 89.818812 81.919072, 58.319352 134.639713" stroke-width="0.500000" />
<path stroke="#fffeff" stroke-opacity="0.501961" fill="none" d="M 91.434474 141.444812 Q 54.876227 170.854479, 61.016381 185.000000" stroke-width="0.500000" />
<path stroke="#ffff00" stroke-opacity="0.501961" fill="none" d="M 82.919410 131.688618 Q 107.496611 48.442520, 256.397648 101.609364" stroke-width="0.500000" />
<path stroke="#ffff00" stroke-opacity="0.501961" fill="none" d="M 271.000000 115.940541 Q 247.591825 48.215772, 72.552961 133.484978" stroke-width="0.500000" />
<path stroke="#fff206" stroke-opacity="0.501961" fill="none" d="M 0.768871 181.440342 Q 36.704444 -14.875374, 194.866102 114.504430" stroke-width="0.500000" />
<path stroke="#ffff00" stroke-opacity="0.501961" fill="none" d="M 255.843749 113.226191 Q 217.970157 36.195728, 78.525850 131.503492" stroke-width="0.500000" />
<path stroke="#ffff06" stroke-opacity="0.501961" fill="none" d="M 256.854555 101.032068 Q 126.561583 6.195596, 106.852393 167.853394" stroke-width="0.500000" />
<path stroke="#5c6307" stroke-opacity="0.501961" fill="none" d="M 52.114542 23.939310 Q 77.608112 55.816167, 121.147199 -1.709665" stroke-width="0.500000" />
<path stroke="#177cc0" stroke-opacity="0.501961" fill="none" d="M 60.717914 135.916784 Q 61.155842 127.906972, 82.349008 62.849223" stroke-width="0.500000" />
<path stroke="#f7ea04" stroke-opacity="0.501961" fill="none" d="M 256.009009 135.930435 Q 57.065481 -16.000000, -0.156153 140.112230" stroke-width="0.500000" />
<path stroke="#1199e9" stroke-opacity="0.501961" fill="none" d="M 64.843562 141.736250 Q 47.404415 124.999717, 76.289573 77.417514" stroke-width="0.500000" />
<path stroke="#6a616c" stroke-opacity="0.501961" fill="none" d="M 111.653174 -12.750555 Q 28.730704 112.466584, 100.479066 148.423857" stroke-width="0.500000" />
<path stroke="#fffdff" stroke-opacity="0.501961" fill="none" d="M 93.917280 151.545900 Q 66.818149 143.584054, 64.345362 175.506576" stroke-width="0.500000" />
<path stroke="#9c1e00" stroke-opacity="0.501961" fill="none" d="M 88.010282 109.986740 Q 103.131421 86.452776, 97.865676 56.600566" stroke-width="0.500000" />
<path stroke="#110e21" stroke-opacity="0.501961" fill="none" d="M 70.423862 137.763982 Q 57.836955 125.231605, 99.963402 75.078021" stroke-width="0.500000" />
<path stroke="#fff974" stroke-opacity="0.501961" fill="none" d="M -9.998092 164.514854 Q 265.417521 177.324931, 271.000000 132.350798" stroke-width="0.500000" />
<path stroke="#568ed2" stroke-opacity="0.501961" fill="none" d="M 141.673640 43.629989 Q 77.563240 25.172993, 71.370211 58.209023" stroke-width="0.500000" />
<path stroke="#46001c" stroke-opacity="0.501961" fill="none" d="M 98.790520 139.222329 Q 86.194919 131.071941, 72.037727 149.809539" stroke-width="0.500000" />
<path stroke="#a71c00" stroke-opacity="0.501961" fill="none" d="M 87.751570 59.546959 Q 109.593816 74.137392, 69.298290 138.925539" stroke-width="0.500000" />
<path stroke="#520018" stroke-opacity="0.501961" fill="none" d="M 74.954093 145.486451 Q 88.464615 126.735253, 104.039777 147.271989" stroke-width="0.500000" />
<path stroke="#ffff02" stroke-opacity="0.501961" fill="none" d="M 84.048308 130.252986 Q 139.101219 15.167850, 271.000000 141.127241" stroke-width="0.500000" />
<path stroke="#05000a" stroke-opacity="0.501961" fill="none" d="M 86.683387 40.742165 Q 136.811511 46.334950, 153.482066 42.036874" stroke-width="0.500000" />
<path stroke="#ffff00" stroke-opacity="0.501961" fill="none" d="M 97.985729 56.465261 Q 151.617767 159.686984, 257.999960 67.914705" stroke-width="0.500000" />
<path stroke="#677013" stroke-opacity="0.501961" fill="none" d="M 44.508451 24.110394 Q 127.370962 46.446948, 128.332430 -0.936027" stroke-width="0.500000" />
<path stroke="#b6ddff" stroke-opacity="0.501961" fill="none" d="M 87.353662 52.220715 Q 49.752155 96.688229, 56.845937 131.139960" stroke-width="0.500000" />
<path stroke="#ffff00" stroke-opacity="0.501961" fill="none" d="M 85.704774 130.476346 Q 115.461541 109.574590, 271.000000 73.706532" stroke-width="0.500000" />
<path stroke="#ffff0d" stroke-opacity="0.501961" fill="none" d="M 84.190981 129.949134 Q 225.677735 30.725229, 258.006538 155.164486" stroke-width="0.500000" />
<path stroke="#fff4ff" stroke-opacity="0.501961" fill="none" d="M 89.179283 141.578602 Q 70.756502 144.408170, 69.445781 185.000000" stroke-width="0.500000" />
<path stroke="#fff66b" stroke-opacity="0.501961" fill="none" d="M -16.000000 158.308252 Q -12.941238 168.795655, 260.596333 160.561794" stroke-width="0.500000" />
<path stroke="#ffff04" stroke-opacity="0.501961" fill="none" d="M 271.000000 101.432614 Q 132.101091 20.231468, 108.444337 161.605595" stroke-width="0.500000" />
<path stroke="#77c4ff" stroke-opacity="0.501961" fill="none" d="M 72.159359 52.790122 Q 75.356476 30.561816, 117.875652 37.702823" stroke-width="0.500000" />
<path stroke="#005a91" stroke-opacity="0.501961" fill="none" d="M 57.731974 132.205775 Q 91.038378 106.527573, 77.422728 74.976140" stroke-width="0.500000" />
<path stroke="#67340d" stroke-opacity="0.501961" fill="none" d="M 83.001066 145.578191 Q 66.781170 130.526346, 126.647147 -16.000000" stroke-width="0.500000" />
<path stroke="#0a000b" stroke-opacity="0.501961" fill="none" d="M 86.635068 40.868828 Q 125.998212 51.602137, 144.636718 40.886212" stroke-width="0.500000" />
<path stroke="#502b1b" stroke-opacity="0.501961" fill="none" d="M 82.389329 142.612959 Q 62.116590 99.472899, 127.010378 22.308781" stroke-width="0.500000" />
<path stroke="#ffff04" stroke-opacity="0.501961" fill="none" d="M 268.669308 146.244060 Q 198.028464 3.212085, 79.697738 128.271953" stroke-width="0.500000" />
<path stroke="#6c6f10" stroke-opacity="0.501961" fill="none" d="M 109.861440 -3.796322 Q 88.762263 60.412743, 38.928521 23.044827" stroke-width="0.500000" />
<path stroke="#ffff06" stroke-opacity="0.501961" fill="none" d="M 85.364612 130.818746 Q 226.865856 31.393411, 271.000000 161.863296" stroke-width="0.500000" />
<path stroke="#01629d" stroke-opacity="0.501961" fill="none" d="M 62.413405 138.049834 Q 54.361303 107.951244, 86.612084 76.477816" stroke-width="0.500000" />
<path stroke="#fff763" stroke-opacity="0.501961" fill="none" d="M -16.000000 168.984898 Q -16.000000 164.174198, 271.000000 165.293052" stroke-width="0.500000" />
<path stroke="#e2eaff" stroke-opacity="0.501961" fill="none" d="M 61.705545 84.842500 Q 61.926871 75.446546, 85.850443 50.937097" stroke-width="0.500000" />
<path stroke="#fffe00" stroke-opacity="0.501961" fill="none" d="M 268.503342 57.789377 Q 150.325098 156.021371, 99.267219 55.262800" stroke-width="0.500000" />
<path stroke="#ffe6ff" stroke-opacity="0.501961" fill="none" d="M 91.961895 146.190261 Q 90.414012 155.493731, 65.773033 169.989884" stroke-width="0.500000" />
<path stroke="#ffff04" stroke-opacity="0.501961" fill="none" d="M 255.916184 84.810735 Q 99.588462 28.457430, 109.775258 166.562172" stroke-width="0.500000" />
<path stroke="#ffff01" stroke-opacity="0.501961" fill="none" d="M 86.918153 132.537928 Q 214.751765 80.214759, 271.000000 80.169098" stroke-width="0.500000" />
<path stroke="#ffffff" stroke-opacity="0.501961" fill="none" d="M 88.553733 149.937044 Q 79.339442 154.027611, 46.864559 185.000000" stroke-width="0.500000" />
<path stroke="#ffff00" stroke-opacity="0.501961" fill="none" d="M 258.305705 100.653659 Q 107.707405 33.660709, 90.335589 121.631199" stroke-width="0.500000" />
<path stroke="#737b21" stroke-opacity="0.501961" fill="none" d="M 149.778942 41.433804 Q 67.383042 11.745570, 41.050193 38.208303" stroke-width="0.500000" />
<path stroke="#ffff1e" stroke-opacity="0.501961" fill="none" d="M 255.120708 57.913603 Q 256.254659 185.000000, 85.301123 130.776415" stroke-width="0.500000" />
<path stroke="#72b1ed" stroke-opacity="0.501961" fill="none" d="M 62.647020 144.547757 Q 43.970346 112.775654, 91.907751 49.926847" stroke-width="0.500000" />
<path stroke="#823c09" stroke-opacity="0.501961" fill="none" d="M 70.287232 -16.000000 Q 124.801583 11.142316, 67.211693 152.692769" stroke-width="0.500000" />
<path stroke="#ffff08" stroke-opacity="0.501961" fill="none" d="M 112.786200 163.756907 Q 110.699008 60.162240, 255.606875 106.127004" stroke-width="0.500000" />
<path stroke="#656c14" stroke-opacity="0.501961" fill="none" d="M 132.735516 -8.352912 Q 85.064529 49.168502, 47.941644 18.583922" stroke-width="0.500000" />
<path stroke="#ffff00" stroke-opacity="0.501961" fill="none" d="M 262.304836 104.195673 Q 103.820459 52.466098, 89.726945 129.673071" stroke-width="0.500000" />
<path stroke="#ffff00" stroke-opacity="0.501961" fill="none" d="M 271.000000 124.874326 Q 234.094850 23.203626, 83.908544 127.043237" stroke-width="0.500000" />
<path stroke="#ffff0e" stroke-opacity="0.501961" fill="none" d="M 271.000000 117.926530 Q 168.775812 26.208423, 92.460780 179.416927" stroke-width="0.500000" />
<path stroke="#ffff1e" stroke-opacity="0.501961" fill="none" d="M 252.228642 63.027694 Q 250.104896 185.000000, 82.246567 123.208428" stroke-width="0.500000" />
<path stroke="#ffffff" stroke-opacity="0.501961" fill="none" d="M 82.637105 142.361605 Q 80.378954 165.015458, 63.918917 166.708932" stroke-width="0.500000" />
<path stroke="#a31400" stroke-opacity="0.501961" fill="none" d="M 89.804776 59.152117 Q 104.447118 69.390804, 86.541729 112.904020" stroke-width="0.500000" />
<path stroke="#6d7418" stroke-opacity="0.501961" fill="none" d="M 64.088683 49.502132 Q 110.537078 -16.000000, 132.162491 5.376070" stroke-width="0.500000" />
<path stroke="#fffa61" stroke-opacity="0.501961" fill="none" d="M -16.000000 158.049645 Q 267.090312 175.749619, 271.000000 121.784877" stroke-width="0.500000" />
<path stroke="#ffff08" stroke-opacity="0.501961" fill="none" d="M 88.510400 122.289228 Q 213.831332 12.851920, 265.941515 159.566903" stroke-width="0.500000" />
<path stroke="#fffa58" stroke-opacity="0.501961" fill="none" d="M 259.357084 161.670662 Q -16.000000 147.987701, -16.000000 184.117936" stroke-width="0.500000" />
<path stroke="#ffff09" stroke-opacity="0.501961" fill="none" d="M 260.483206 44.745285 Q 234.315993 167.700191, 100.050181 84.873155" stroke-width="0.500000" />
<path stroke="#4a2a44" stroke-opacity="0.501961" fill="none" d="M 105.442642 149.210144 Q 39.891697 120.902812, 97.951805 72.789422" stroke-width="0.500000" />
<path stroke="#1779a6" stroke-opacity="0.501961" fill="none" d="M 85.640283 76.203081 Q 69.661848 82.865752, 63.696797 147.936630" stroke-width="0.500000" />
<path stroke="#00243d" stroke-opacity="0.501961" fill="none" d="M 69.017001 135.568260 Q 96.806206 81.582929, 81.014864 71.528202" stroke-width="0.500000" />
<path stroke="#ffff00" stroke-opacity="0.501961" fill="none" d="M 271.000000 70.813797 Q 251.032051 59.630837, 85.767147 131.627389" stroke-width="0.500000" />
<path stroke="#7a4262" stroke-opacity="0.501961" fill="none" d="M 83.627131 131.763485 Q 112.040013 147.502951, 72.752101 185.000000" stroke-width="0.500000" />
<path stroke="#87c9fb" stroke-opacity="0.501961" fill="none" d="M 110.214982 34.081080 Q 67.589714 35.649398, 72.967054 54.441249" stroke-width="0.500000" />
<path stroke="#2a5e87" stroke-opacity="0.501961" fill="none" d="M 156.872077 41.463219 Q 63.983020 31.861341, 76.291510 117.387999" stroke-width="0.500000" />
<path stroke="#6a334a" stroke-opacity="0.501961" fill="none" d="M 88.439444 168.971412 Q 111.798381 147.410574, 91.562074 135.130168" stroke-width="0.500000" />
<path stroke="#ffff18" stroke-opacity="0.501961" fill="none" d="M 96.823369 173.897198 Q 179.553051 33.458610, 257.916026 139.995608" stroke-width="0.500000" />
<path stroke="#ffff02" stroke-opacity="0.501961" fill="none" d="M 102.620477 66.018288 Q 131.362282 159.342197, 259.754556 74.858465" stroke-width="0.500000" />
<path stroke="#fffa58" stroke-opacity="0.501961" fill="none" d="M 258.384072 147.294897 Q -10.328690 175.124616, -16.000000 143.228937" stroke-width="0.500000" />
<path stroke="#fffcff" stroke-opacity="0.501961" fill="none" d="M 90.059309 145.224292 Q 79.831696 143.209067, 51.387716 185.000000" stroke-width="0.500000" />
<path stroke="#fffa05" stroke-opacity="0.501961" fill="none" d="M 260.697725 88.861269 Q 113.650414 11.005700, 105.957796 176.237790" stroke-width="0.500000" />
<path stroke="#717918" stroke-opacity="0.501961" fill="none" d="M 63.131724 55.905261 Q 106.685933 -16.000000, 139.040435 15.085364" stroke-width="0.500000" />
<path stroke="#6b700f" stroke-opacity="0.501961" fill="none" d="M 123.421588 -16.000000 Q 85.982242 57.670955, 43.740657 23.544116" stroke-width="0.500000" />
<path stroke="#ffff1b" stroke-opacity="0.501961" fill="none" d="M 252.150211 59.720059 Q 241.504981 185.000000, 81.974951 125.618368" stroke-width="0.500000" />
<path stroke="#fcf267" stroke-opacity="0.501961" fill="none" d="M 257.794615 147.200352 Q 233.985546 180.245261, 7.079690 159.596519" stroke-width="0.500000" />
<path stroke="#f9f212" stroke-opacity="0.501961" fill="none" d="M -0.621974 158.156048 Q 42.700345 -16.000000, 255.433957 130.442301" stroke-width="0.500000" />
<path stroke="#71781e" stroke-opacity="0.501961" fill="none" d="M 47.595679 19.033412 Q 117.862078 45.295750, 136.674290 -3.054088" stroke-width="0.500000" />
<path stroke="#54abe5" stroke-opacity="0.501961" fill="none" d="M 75.294484 67.153471 Q 52.843299 73.303346, 68.387097 126.977431" stroke-width="0.500000" />
<path stroke="#095f98" stroke-opacity="0.501961" fill="none" d="M 59.865665 132.172505 Q 54.925082 125.069734, 87.032513 77.705736" stroke-width="0.500000" />
<path stroke="#bc3b00" stroke-opacity="0.501961" fill="none" d="M 86.283006 54.797723 Q 101.855584 79.228116, 67.034567 155.661783" stroke-width="0.500000" />
<path stroke="#fffe19" stroke-opacity="0.501961" fill="none" d="M 99.267538 56.341205 Q 118.361165 180.030935, 255.304827 107.100892" stroke-width="0.500000" />
<path stroke="#4093d7" stroke-opacity="0.501961" fill="none" d="M 71.832843 62.057027 Q 73.653368 34.836511, 116.619724 36.712375" stroke-width="0.500000" />
<path stroke="#fffa00" stroke-opacity="0.501961" fill="none" d="M 42.047892 184.919551 Q -16.000000 126.392020, 77.038869 61.046289" stroke-width="0.500000" />
<path stroke="#fffe0a" stroke-opacity="0.501961" fill="none" d="M 103.756445 69.853819 Q 174.777090 185.000000, 251.273068 62.646241" stroke-width="0.500000" />
<path stroke="#fff0f8" stroke-opacity="0.501961" fill="none" d="M 87.013807 151.565054 Q 89.932806 174.660359, 56.561890 167.686767" stroke-width="0.500000" />
<path stroke="#002f4e" stroke-opacity="0.501961" fill="none" d="M 82.550767 72.224655 Q 90.073682 78.553775, 65.377229 135.377439" stroke-width="0.500000" />
<path stroke="#798110" stroke-opacity="0.501961" fill="none" d="M 153.239314 36.561032 Q 92.318340 22.006202, 48.548654 39.458408" stroke-width="0.500000" />
<path stroke="#3e4823" stroke-opacity="0.501961" fill="none" d="M 76.940340 63.634375 Q 135.321990 45.613495, 117.496088 0.914121" stroke-width="0.500000" />
<path stroke="#ffff08" stroke-opacity="0.501961" fill="none" d="M 268.950399 43.459486 Q 259.685402 85.242436, 87.430090 132.369557" stroke-width="0.500000" />
<path stroke="#b0cffa" stroke-opacity="0.501961" fill="none" d="M 55.617187 132.236531 Q 63.349127 62.177816, 88.452793 52.582981" stroke-width="0.500000" />
<path stroke="#1d0010" stroke-opacity="0.501961" fill="none" d="M 120.148564 46.691696 Q 110.740924 33.617640, 84.275435 44.694026" stroke-width="0.500000" />
<path stroke="#fef700" stroke-opacity="0.501961" fill="none" d="M 89.527644 117.819403 Q 116.480794 17.506697, 271.000000 104.647057" stroke-width="0.500000" />
<path stroke="#9c1700" stroke-opacity="0.501961" fill="none" d="M 95.246982 62.563637 Q 106.060422 83.315884, 88.500228 105.013578" stroke-width="0.500000" />
<path stroke="#ffff18" stroke-opacity="0.501961" fill="none" d="M 255.710294 71.606911 Q 148.215400 185.000000, 88.058612 126.872204" stroke-width="0.500000" />
<path stroke="#ffedff" stroke-opacity="0.501961" fill="none" d="M 79.019762 145.187404 Q 61.127001 162.308387, 83.483425 169.814878" stroke-width="0.500000" />
<path stroke="#ffff0b" stroke-opacity="0.501961" fill="none" d="M 113.857381 162.979244 Q 122.379820 56.980814, 255.434766 104.363175" stroke-width="0.500000" />
<path stroke="#717a19" stroke-opacity="0.501961" fill="none" d="M 41.914177 20.529694 Q 96.100096 59.041950, 141.296404 -11.934486" stroke-width="0.500000" />
<path stroke="#feecff" stroke-opacity="0.501961" fill="none" d="M 59.501846 182.382034 Q 77.025780 146.200402, 97.219984 146.995150" stroke-width="0.500000" />
<path stroke="#fffe0c" stroke-opacity="0.501961" fill="none" d="M 79.787154 128.124832 Q 136.606272 41.673218, 249.815360 135.737867" stroke-width="0.500000" />
<path stroke="#ffff00" stroke-opacity="0.501961" fill="none" d="M -1.734773 185.000000 Q 3.508024 157.200756, 70.767783 63.418843" stroke-width="0.500000" />
<path stroke="#fffdff" stroke-opacity="0.501961" fill="none" d="M 73.908537 169.939565 Q 60.683962 157.554117, 84.290670 144.592060" stroke-width="0.500000" />
<path stroke="#ffff1f" stroke-opacity="0.501961" fill="none" d="M 260.982399 13.123255 Q 267.997005 185.000000, 84.413095 122.336889" stroke-width="0.500000" />
<path stroke="#717a21" stroke-opacity="0.501961" fill="none" d="M 42.033795 16.255645 Q 127.897231 43.902421, 130.020344 -16.000000" stroke-width="0.500000" />
<path stroke="#fef800" stroke-opacity="0.501961" fill="none" d="M 254.229549 54.378900 Q 173.868014 145.804625, 105.744749 66.743533" stroke-width="0.500000" />
<path stroke="#fffe00" stroke-opacity="0.501961" fill="none" d="M 89.086880 112.987539 Q 116.705923 49.227657, 271.000000 104.910749" stroke-width="0.500000" />
<path stroke="#fff900" stroke-opacity="0.501961" fill="none" d="M 271.000000 116.302926 Q 219.841055 14.184048, 88.393626 118.063942" stroke-width="0.500000" />
<path stroke="#979c15" stroke-opacity="0.501961" fill="none" d="M 37.132619 9.062410 Q 235.235621 65.727584, 258.549253 40.124506" stroke-width="0.500000" />
<path stroke="#ffff00" stroke-opacity="0.501961" fill="none" d="M 8.814174 163.067990 Q 22.951081 149.110587, 70.546072 61.789515" stroke-width="0.500000" />
<path stroke="#ffff32" stroke-opacity="0.501961" fill="none" d="M 263.101172 167.161958 Q 180.098650 53.613378, 83.454174 185.000000" stroke-width="0.500000" />
<path stroke="#ffff00" stroke-opacity="0.501961" fill="none" d="M 69.799421 64.161134 Q -4.271171 153.129376, 3.677800 185.000000" stroke-width="0.500000" />
<path stroke="#c4e4e9" stroke-opacity="0.501961" fill="none" d="M 59.226501 137.120801 Q 42.957316 118.998249, 84.710349 50.108799" stroke-width="0.500000" />
<path stroke="#83c0ff" stroke-opacity="0.501961" fill="none" d="M 105.058283 38.595943 Q 82.614753 25.491328, 71.430265 53.349383" stroke-width="0.500000" />
<path stroke="#ffff3a" stroke-opacity="0.501961" fill="none" d="M 87.046865 185.000000 Q 176.296995 58.422331, 259.774089 174.206682" stroke-width="0.500000" />
<path stroke="#09699f" stroke-opacity="0.501961" fill="none" d="M 79.430364 73.392115 Q 87.817493 90.131381, 57.560206 127.768725" stroke-width="0.500000" />
<path stroke="#ffff1d" stroke-opacity="0.501961" fill="none" d="M 230.632327 135.633881 Q 97.147173 185.000000, 102.047993 73.306007" stroke-width="0.500000" />
<path stroke="#fffc15" stroke-opacity="0.501961" fill="none" d="M 255.653698 91.470296 Q 127.552513 183.315604, 99.473581 56.546752" stroke-width="0.500000" />
<path stroke="#8b4f01" stroke-opacity="0.501961" fill="none" d="M 142.731281 -16.000000 Q 131.997786 -16.000000, 67.076427 149.785338" stroke-width="0.500000" />
<path stroke="#fdf700" stroke-opacity="0.501961" fill="none" d="M 101.241939 60.580619 Q 182.425298 149.759939, 259.285661 50.850383" stroke-width="0.500000" />
<path stroke="#ffff3b" stroke-opacity="0.501961" fill="none" d="M 258.720532 174.399720 Q 176.503746 64.675615, 91.381779 183.419324" stroke-width="0.500000" />
<path stroke="#fffe08" stroke-opacity="0.501961" fill="none" d="M 81.772834 129.968841 Q 209.079523 24.858938, 271.000000 142.488790" stroke-width="0.500000" />
<path stroke="#00456f" stroke-opacity="0.501961" fill="none" d="M 80.664945 75.104947 Q 101.612067 99.115147, 58.592653 117.563003" stroke-width="0.500000" />
<path stroke="#ffff00" stroke-opacity="0.501961" fill="none" d="M 57.768393 74.547078 Q -12.586133 124.785729, 65.505916 162.497408" stroke-width="0.500000" />
<path stroke="#ffff00" stroke-opacity="0.501961" fill="none" d="M 63.483464 72.360650 Q 35.472138 165.984825, -1.955444 147.657892" stroke-width="0.500000" />
<path stroke="#faf400" stroke-opacity="0.501961" fill="none" d="M 88.841569 126.835737 Q 116.824027 20.613486, 266.330207 91.830025" stroke-width="0.500000" />
<path stroke="#ffff0b" stroke-opacity="0.501961" fill="none" d="M 271.000000 90.862730 Q 100.114118 51.676307, 114.674217 185.000000" stroke-width="0.500000" />
<path stroke="#787f22" stroke-opacity="0.501961" fill="none" d="M 136.599700 1.241321 Q 124.679821 -10.131816, 68.525031 41.242436" stroke-width="0.500000" />
<path stroke="#fff6ff" stroke-opacity="0.501961" fill="none" d="M 89.765280 150.631105 Q 54.098369 185.000000, 37.720253 169.133763" stroke-width="0.500000" />
<path stroke="#fff6ff" stroke-opacity="0.501961" fill="none" d="M 92.968612 159.625275 Q 68.399065 143.612146, 61.304712 177.749946" stroke-width="0.500000" />
<path stroke="#ffff17" stroke-opacity="0.501961" fill="none" d="M 96.177649 166.770809 Q 118.771818 120.659789, 260.714620 82.080174" stroke-width="0.500000" />
<path stroke="#923d4e" stroke-opacity="0.501961" fill="none" d="M 76.855768 130.385238 Q 113.122410 140.559111, 87.520578 173.589382" stroke-width="0.500000" />
<path stroke="#261310" stroke-opacity="0.501961" fill="none" d="M 81.530077 45.092691 Q 110.794669 43.175033, 144.156875 44.930259" stroke-width="0.500000" />
<path stroke="#bf3a00" stroke-opacity="0.501961" fill="none" d="M 66.930228 152.608125 Q 103.188918 73.708114, 89.581842 61.294934" stroke-width="0.500000" />
<path stroke="#ffff00" stroke-opacity="0.501961" fill="none" d="M 60.720146 75.853506 Q -5.380407 126.109997, 65.598419 161.172413" stroke-width="0.500000" />
<path stroke="#57b8ed" stroke-opacity="0.501961" fill="none" d="M 62.948320 144.740598 Q 46.109535 116.058499, 84.383453 62.870478" stroke-width="0.500000" />
<path stroke="#969c12" stroke-opacity="0.501961" fill="none" d="M 44.096532 17.492498 Q 271.000000 51.831589, 271.000000 57.496915" stroke-width="0.500000" />
<path stroke="#ffff2f" stroke-opacity="0.501961" fill="none" d="M 93.161785 127.255103 Q 119.243307 185.000000, 266.457836 123.998333" stroke-width="0.500000" />
<path stroke="#7b8121" stroke-opacity="0.501961" fill="none" d="M 139.367271 9.725177 Q 100.190059 -16.000000, 56.563800 55.087113" stroke-width="0.500000" />
<path stroke="#ffff00" stroke-opacity="0.501961" fill="none" d="M 59.128439 78.599669 Q 2.667487 120.581230, 65.299209 159.255973" stroke-width="0.500000" />
<path stroke="#ffff23" stroke-opacity="0.501961" fill="none" d="M 260.742628 38.866817 Q 256.090361 179.860580, 95.818248 126.850353" stroke-width="0.500000" />
<path stroke="#fffe0f" stroke-opacity="0.501961" fill="none" d="M 269.058471 185.000000 Q 243.757129 30.120492, 85.455357 131.564278" stroke-width="0.500000" />
<path stroke="#f7f200" stroke-opacity="0.501961" fill="none" d="M 271.000000 89.391513 Q 122.022020 9.842049, 104.076643 138.888083" stroke-width="0.500000" />
<path stroke="#fffc0f" stroke-opacity="0.501961" fill="none" d="M 119.633449 172.400838 Q 141.254872 27.415431, 260.517861 91.147654" stroke-width="0.500000" />
<path stroke="#db4400" stroke-opacity="0.501961" fill="none" d="M 99.427670 45.611926 Q 76.863673 50.623437, 97.359495 96.308484" stroke-width="0.500000" />
<path stroke="#4a4921" stroke-opacity="0.501961" fill="none" d="M 139.849018 42.268499 Q 85.585062 64.796065, 81.648402 -5.370706" stroke-width="0.500000" />
<path stroke="#431519" stroke-opacity="0.501961" fill="none" d="M 74.167113 62.226208 Q 89.613506 30.440391, 125.290408 46.731044" stroke-width="0.500000" />
<path stroke="#1d6789" stroke-opacity="0.501961" fill="none" d="M 86.279482 56.553469 Q 69.864104 111.299312, 63.712417 143.472904" stroke-width="0.500000" />
<path stroke="#572a1b" stroke-opacity="0.501961" fill="none" d="M 102.305197 146.435041 Q 85.594352 124.923265, 68.251673 155.611821" stroke-width="0.500000" />
<path stroke="#ffff02" stroke-opacity="0.501961" fill="none" d="M 1.607699 157.179251 Q 82.059966 134.393015, 35.054714 65.719759" stroke-width="0.500000" />
<path stroke="#ffff20" stroke-opacity="0.501961" fill="none" d="M 104.168213 155.391620 Q 235.685946 156.010356, 257.443884 62.052843" stroke-width="0.500000" />
<path stroke="#ffffff" stroke-opacity="0.501961" fill="none" d="M 69.924733 172.626027 Q 68.785758 147.119799, 85.954426 148.251967" stroke-width="0.500000" />
<path stroke="#9aa012" stroke-opacity="0.501961" fill="none" d="M 19.657305 27.019171 Q 268.672246 44.658580, 268.856341 54.503726" stroke-width="0.500000" />
<path stroke="#6c750d" stroke-opacity="0.501961" fill="none" d="M 48.188536 39.036957 Q 115.591313 39.873242, 119.662141 -10.983896" stroke-width="0.500000" />
<path stroke="#fffa12" stroke-opacity="0.501961" fill="none" d="M 251.776037 145.671044 Q 137.999007 29.971066, 82.010620 122.715699" stroke-width="0.500000" />
<path stroke="#f0e5ff" stroke-opacity="0.501961" fill="none" d="M 70.068379 85.109944 Q 79.246596 54.441223, 88.537067 51.952024" stroke-width="0.500000" />
<path stroke="#faf362" stroke-opacity="0.501961" fill="none" d="M 263.473858 152.767839 Q 5.518538 185.000000, -1.381298 158.026316" stroke-width="0.500000" />
<path stroke="#033a4f" stroke-opacity="0.501961" fill="none" d="M 64.025034 140.612230 Q 96.687496 84.726016, 79.048872 72.985581" stroke-width="0.500000" />
<path stroke="#53bff6" stroke-opacity="0.501961" fill="none" d="M 62.776574 142.305327 Q 44.349010 111.001182, 80.614980 72.876317" stroke-width="0.500000" />
<path stroke="#1083b9" stroke-opacity="0.501961" fill="none" d="M 82.218576 77.748463 Q 51.005331 108.896471, 65.482470 151.472016" stroke-width="0.500000" />
<path stroke="#964250" stroke-opacity="0.501961" fill="none" d="M 84.879370 169.900735 Q 113.302387 145.298930, 78.995601 132.586052" stroke-width="0.500000" />
<path stroke="#030e16" stroke-opacity="0.501961" fill="none" d="M 90.307792 61.191870 Q 110.257761 42.223934, 138.913600 42.710938" stroke-width="0.500000" />
<path stroke="#fffd1a" stroke-opacity="0.501961" fill="none" d="M 80.968554 129.670544 Q 257.722466 150.093980, 246.212908 62.711873" stroke-width="0.500000" />
<path stroke="#ffff02" stroke-opacity="0.501961" fill="none" d="M 63.038340 164.469399 Q -16.000000 122.554910, 58.972130 72.676292" stroke-width="0.500000" />
<path stroke="#fef802" stroke-opacity="0.501961" fill="none" d="M 91.515943 127.833349 Q 114.334208 25.993815, 256.893342 98.992950" stroke-width="0.500000" />
<path stroke="#fffd14" stroke-opacity="0.501961" fill="none" d="M 264.652836 174.248355 Q 229.372951 43.263495, 91.656771 131.052447" stroke-width="0.500000" />
<path stroke="#ffff00" stroke-opacity="0.501961" fill="none" d="M -13.180411 158.496098 Q 15.417297 164.951251, 63.237851 72.171028" stroke-width="0.500000" />
<path stroke="#ffe7ff" stroke-opacity="0.501961" fill="none" d="M 58.997461 170.717475 Q 89.960600 167.937504, 88.778116 151.036991" stroke-width="0.500000" />
<path stroke="#ffff17" stroke-opacity="0.501961" fill="none" d="M 265.336323 112.493757 Q 142.069993 67.888742, 113.752119 170.335984" stroke-width="0.500000" />
<path stroke="#797f1d" stroke-opacity="0.501961" fill="none" d="M 143.052635 14.233085 Q 68.434828 46.931523, 49.897299 12.121241" stroke-width="0.500000" />
<path stroke="#8a1500" stroke-opacity="0.501961" fill="none" d="M 82.247854 103.269538 Q 106.794475 88.353960, 94.079495 57.598622" stroke-width="0.500000" />
<path stroke="#ffff00" stroke-opacity="0.501961" fill="none" d="M -6.240421 114.978202 Q 46.044621 153.482878, 62.263710 78.294271" stroke-width="0.500000" />
<path stroke="#fffe00" stroke-opacity="0.501961" fill="none" d="M 43.906443 64.473500 Q 82.090046 95.071274, -5.311581 166.047441" stroke-width="0.500000" />
<path stroke="#fffd3c" stroke-opacity="0.501961" fill="none" d="M 262.753362 184.613554 Q 221.172260 68.775707, 105.001697 165.930984" stroke-width="0.500000" />
<path stroke="#fffe1b" stroke-opacity="0.501961" fill="none" d="M 102.782212 75.270786 Q 124.944197 185.000000, 249.926935 102.481273" stroke-width="0.500000" />
<path stroke="#e80000" stroke-opacity="0.501961" fill="none" d="M 94.529016 134.652715 Q 80.137569 138.768683, 75.288217 128.671612" stroke-width="0.500000" />
<path stroke="#77b9e9" stroke-opacity="0.501961" fill="none" d="M 107.619510 34.382364 Q 71.410743 41.201496, 70.634358 52.551386" stroke-width="0.500000" />
<path stroke="#ffff00" stroke-opacity="0.501961" fill="none" d="M 58.444222 97.794011 Q -16.000000 89.324396, 2.653464 155.540136" stroke-width="0.500000" />
<path stroke="#f8f201" stroke-opacity="0.501961" fill="none" d="M 258.502165 84.448571 Q 113.462322 19.912967, 99.721035 141.350174" stroke-width="0.500000" />
<path stroke="#888e31" stroke-opacity="0.501961" fill="none" d="M 53.362395 53.086542 Q 52.256122 -16.000000, 153.779158 16.422911" stroke-width="0.500000" />
<path stroke="#8a9221" stroke-opacity="0.501961" fill="none" d="M 26.984798 33.773019 Q 60.350388 9.642417, 165.492339 34.433023" stroke-width="0.500000" />
<path stroke="#ffff00" stroke-opacity="0.501961" fill="none" d="M -1.364862 119.498233 Q 46.523258 85.989465, 63.152462 156.495595" stroke-width="0.500000" />
<path stroke="#fefb0b" stroke-opacity="0.501961" fill="none" d="M 100.948237 63.610414 Q 123.113015 158.675091, 258.420644 87.567323" stroke-width="0.500000" />
<path stroke="#fffe1c" stroke-opacity="0.501961" fill="none" d="M 259.186341 68.771047 Q 157.082459 185.000000, 90.454521 130.865611" stroke-width="0.500000" />
<path stroke="#00334f" stroke-opacity="0.501961" fill="none" d="M 86.662654 80.071455 Q 70.969675 114.111968, 68.779165 126.129456" stroke-width="0.500000" />
<path stroke="#ffff0a" stroke-opacity="0.501961" fill="none" d="M -0.330049 159.584955 Q 85.732068 147.061526, 31.374789 72.339525" stroke-width="0.500000" />
<path stroke="#ce2300" stroke-opacity="0.501961" fill="none" d="M 93.129750 59.381180 Q 84.467042 72.996069, 94.440915 100.853970" stroke-width="0.500000" />
<path stroke="#ffff22" stroke-opacity="0.501961" fill="none" d="M 2.548480 69.310653 Q -16.000000 158.798068, 64.666860 158.521061" stroke-width="0.500000" />
<path stroke="#96c9f4" stroke-opacity="0.501961" fill="none" d="M 108.500684 36.058677 Q 96.378228 28.938016, 73.192805 44.865961" stroke-width="0.500000" />
<path stroke="#fffd35" stroke-opacity="0.501961" fill="none" d="M 99.848530 161.424726 Q 271.000000 159.821403, 254.028672 84.511472" stroke-width="0.500000" />
<path stroke="#ffecff" stroke-opacity="0.501961" fill="none" d="M 90.278917 145.959740 Q 64.049751 172.890835, 67.269026 184.987765" stroke-width="0.500000" />
<path stroke="#822100" stroke-opacity="0.501961" fill="none" d="M 77.390578 146.555399 Q 73.100554 127.065247, 99.961149 62.118312" stroke-width="0.500000" />
</g>
</svg>