<svg height="680" width="1024" xmlns="http://www.w3.org/2000/svg"><path d="m0 0h1024v680h-1024z" fill="#cdce2c"/><g fill="none" stroke-opacity=".501961" stroke-width=".5" transform="matrix(4 0 0 4 2 2)"><path d="m171.982677 47.464629q-115.103304-24.956098-102.579298 107.434932" stroke="#00004c"/><path d="m131.467616 38.695347q-118.622639 35.927467-46.431098 146.304653" stroke="#175bff"/><path d="m116.926833 39.380045q-83.698725 44.431183-40.548876 144.646133" stroke="#004df9"/><path d="m121.384155.499971q-66.124418 144.68368-55.824189 150.502664" stroke="#000046"/><path d="m132.912882-11.574477q-32.78127 48.084223-67.528038 156.708863" stroke="#000030"/><path d="m145.939148 43.860933q-78.07961-16.890093-75.469703 111.82597" stroke="#000058"/><path d="m142.509635 44.206256q-95.098119-.093643-59.875153 104.59119" stroke="#00006d"/><path d="m113.684957-.508812q-37.829196 140.053103-51.726713 142.319219" stroke="#000031"/><path d="m66.215698 138.157165q9.958089-.096848 49.702709-137.191044" stroke="#0a0016"/><path d="m156.391008 43.973969q-86.437332-25.855401-93.229714 98.392191" stroke="#0038be"/><path d="m162.148743 45.089472q-80.886397-21.612735-93.725164 87.04645" stroke="#004"/><path d="m113.972421-9.71742q-39.756442 151.435801-51.850646 149.75377" stroke="#000039"/><path d="m114.92357 34.447674q-74.9922 3.851536-44.259716 146.014178" stroke="#2880ff"/><path d="m94.230053 23.715357q-72.527475 131.561741 8.823566 161.284643" stroke="#3e85ff"/><path d="m115.403964-14.315311q-42.865568 129.825388-54.368487 155.492169" stroke="#002771"/><path d="m68.575322 154.891327q-.978204-123.177739 67.051803-111.632813" stroke="#000363"/><path d="m78.250071 146.626911q-10.475765-99.973148 49.168238-103.062699" stroke="#000048"/><path d="m104.172438 21.836521q-18.611722 70.890837-42.388504 119.618219" stroke="#00084f"/><path d="m68.4641 138.406391q18.674131-25.985891 52.504069-153.298236" stroke="#360003"/><path d="m122.342248 34.315632q-61.975198-10.420368-58.461895 98.866274" stroke="#196de6"/><path d="m107.515769 37.451516q-101.163789 91.790767-2.655948 139.242367" stroke="#6595ff"/><path d="m76.418218 171.877339q-39.397731-46.425703 11.832061-147.916103" stroke="#5c9fff"/><path d="m59.252206 139.692018q25.325827-78.755045 56.448808-155.692018" stroke="#074e98"/><path d="m115.743583-2.569119q-31.99499 109.913283-47.907171 150.54657" stroke="#30030b"/><path d="m87.236481 53.148977q-41.909145 79.718325-23.993984 87.984769" stroke="#1790ff"/><path d="m61.891523 133.725063q38.957911-77.087496 46.34083-149.725063" stroke="#0b2b59"/><path d="m69.809733 132.871907q17.979276-37.684661 47.002571-148.871907" stroke="#10112a"/><path d="m172.288818 44.533387q-115.995758-23.038555-105.153671 112.995736" stroke="#153d71"/><path d="m145.044941 44.490223q-80.815123-2.391872-66.484094 86.604395" stroke="#001049"/><path d="m151.894517 44.357699q-82.102261-23.843413-84.30563 102.043704" stroke="#00286f"/><path d="m79.790124 34.190477q-15.530612 46.571418-16.060792 113.093135" stroke="#2376e1"/><path d="m67.860113 157.728168q19.394699-108.070343 40.625861-169.886834" stroke="#262946"/><path d="m125.731742-15.880276q-3.377946 32.255859-55.425026 158.630072" stroke="#6d1800"/><path d="m57.114277 132.668981q29.348156-93.67105 28.845057-100.785497" stroke="#387af1"/><path d="m83.781389 34.931351q-34.279284 88.878159-24.125246 99.902371" stroke="#5195ff"/><path d="m74.849889 147.945002q.393848-36.177628 52.884177-150.541086" stroke="#5f1b08"/><path d="m135.28991 44.248306q-57.097265-13.883796-56.73508 97.916337" stroke="#0c001c"/><path d="m96.99382 32.674646q-60.058247 88.972517-33.082475 107.939882" stroke="#87c2ff"/><path d="m103.853607-16q-27.80423 136.629055-46.301751 151.800276" stroke="#1a598f"/><path d="m63.203144 141.960324q6.862408-13.004992 62.201227-150.89456" stroke="#1b2333"/><path d="m93.463448 29.587876q-44.185293 85.928099-31.955703 109.32683" stroke="#4d95f9"/><path d="m85.123962 174.280367q-59.296616-51.221738 5.902601-143.513754" stroke="#7bbdff"/><path d="m146.189629 43.574326q-62.063219 2.256555-86.909019-7.55298" stroke="#00001e"/><path d="m122.913726-16q6.499975 12.300322-56.149316 151.045721" stroke="#292831"/><path d="m115.656225 35.62088q-58.087947-.206402-53.083078 103.252319" stroke="#2b65b7"/><path d="m64.201824 143.713413q56.178057-68.361649 24.563032-159.713413" stroke="#6c2109"/><path d="m65.280571 131.719469q8.389943-44.493088 9.662216-111.873665" stroke="#3277c0"/><path d="m74.858465-16q44.853936 59.302815-14.534684 153.030939" stroke="#22334a"/><path d="m93.353492 49.666654q-44.303859 72.018114-31.650505 91.175721" stroke="#0873ce"/><path d="m123.928951 19.478827q-86.241222 83.572596-28.022592 138.098086" stroke="#2f4974"/><path d="m67.121801 185q-8.199964-140.966565 29.55833-150.60117" stroke="#5f8cdb"/><path d="m138.586525 45.098281q-40.543777.339464-91.267158-5.062628" stroke="#1e1723"/><path d="m80.969148 148.119976q-13.944681-20.75554 55.612917-164.119976" stroke="#7b2c07"/><path d="m88.024924 77.380607q-46.42655 38.184546 14.584079 74.41169" stroke="#222e76"/><path d="m143.291493 44.790619q-65.512508-20.189403-83.554185 88.77477" stroke="#104688"/><path d="m101.57638 167.322507q-73.967692-28.08114-30.337339-86.412237" stroke="#add3ff"/><path d="m111.957418 4.667743q-20.348214 27.678987-43.355399 134.31714" stroke="#264055"/><path d="m82.462756 34.660303q-52.914534 112.759264 7.138064 134.795566" stroke="#82b9fa"/><path d="m103.115776 47.466298q-39.643935 13.734611-39.391801 82.496232" stroke="#3c8ee9"/><path d="m75.523206 60.764523q5.273049-30.203895 57.485558-14.524157" stroke="#13001f"/><path d="m93.953891 149.285448q-13.449431-7.776779-35.092436 24.787443" stroke="#fff"/><path d="m47.505063 185q31.494212-32.866789 49.013495-41.540699" stroke="#fff9ff"/><path d="m66.032187 130.334379q30.285205-69.54538 59.325474-146.334379" stroke="#1d2f2c"/><path d="m159.980796 36.149319q-42.970956 26.90179-116.429039-17.465522" stroke="#3c3827"/><path d="m66.214049 143.508756q61.658547-99.713565 1.779096-125.785365" stroke="#77240c"/><path d="m130.040846 48.297936q-52.94787-16.706083-58.753104 89.847987" stroke="#08355a"/><path d="m103.284958-16q-8.440765 39.44971-41.072293 156.535014" stroke="#34708f"/><path d="m104.286032.08192q-23.110027 132.57779-37.428497 135.675467" stroke="#322a2e"/><path d="m-8.502087 168.605156q259.58667 2.125922 265.263726-4.837798" stroke="#fff77d"/><path d="m115.815612 185q-100.522318-46.265885-35.35069-119.968625" stroke="#bed9f9"/><path d="m92.066378 148.200094q-29.330944 20.766369-45.203706 36.799906" stroke="#fff"/><path d="m96.4037 61.441929q6.13504 47.249249-31.739607 71.049831" stroke="#6f0500"/><path d="m89.840204 145.455535q-37.108301 26.108282-32.153966 39.544465" stroke="#fff"/><path d="m75.398017 108.005021q-14.885546-89.945531 67.504041-65.442993" stroke="#3d588d"/><path d="m59.492699 135.758591q49.067507-31.179708-2.726369-117.632317" stroke="#225267"/><path d="m102.42673 33.497207q-104.573138 108.269246 29.640209 151.502793" stroke="#a1b9e2"/><path d="m65.695037 145.330002q64.157509-89.389335 7.087496-137.701439" stroke="#8c3e0b"/><path d="m85.26731 76.59865q-42.916722 38.713892 14.327333 75.565133" stroke="#274686"/><path d="m128.425284 42.231836q-49.742023-16.631392-56.946134 14.289204" stroke="#6099ff"/><path d="m86.842767 75.654251q-33.511134 55.634974 17.563008 70.212569" stroke="#2b2862"/><path d="m96.322181 136.701373q-39.337289 25.80068-38.255672 47.755484" stroke="#f7dcff"/><path d="m87.151255 50.160162q-28.326167 58.098505-29.995386 69.495309" stroke="#76b2ff"/><path d="m128.900994 14.153583q-37.331412 45.189634-62.047356 146.853242" stroke="#66330f"/><path d="m84.898373 75.152085q-29.727681 22.135725-22.906897 64.293333" stroke="#006dc0"/><path d="m92.113397 140.451284q-.340916 16.175539-50.678299 42.633712" stroke="#fef"/><path d="m206.587755 115.426667q-167.989767-127.874489-204.052586 51.507487" stroke="#fef101"/><path d="m55.1646 12.154107q37.438731 44.896243 98.719156 28.488358" stroke="#302e2d"/><path d="m57.981846 170.190022q36.735562-2.493693 27.805875-27.834075" stroke="#ffebff"/><path d="m85.972329 73.935988q.037966 25.842766-19.492828 61.168852" stroke="#002658"/><path d="m62.748531 168.42974q27.561215 5.318679 22.902411-23.710283" stroke="#fff4ff"/><path d="m59.931945 167.525898q33.354701-.916989 22.847537-25.531463" stroke="#ffe9ff"/><path d="m72.59575 75.84051q-8.41814-49.724151 38.458936-39.135542" stroke="#74c2ff"/><path d="m151.210342 42.371166q-34.201627-.364762-104.546853 2.50984" stroke="#382e28"/><path d="m60.519742 136.742074q-15.785323-19.060613 27.696528-89.089981" stroke="#9bcfff"/><path d="m132.617375 47.201684q-38.149477-18.726454-59.991904 6.733454" stroke="#1e1641"/><path d="m104.288957 144.817085q-55.76489-22.142203-19.685691-74.894625" stroke="#2d4876"/><path d="m68.915856 168.517269q1.965862-29.975962 26.862101-17.153345" stroke="#fff1ff"/><path d="m128.186059-13.924092q-37.525971 75.799601-80.839475 28.940932" stroke="#5b610b"/><path d="m271 161.92062q-58.642908-161.691536-197.756562-26.931501" stroke="#ff0"/><path d="m79.295164 129.77186q139.304675-108.578959 178.939203-.371367" stroke="#ff0"/><path d="m100.630496 76.465777q-30.220886 57.020332-33.292785 72.561901" stroke="#931500"/><path d="m108.599999-1.306228q-81.346003 112.025715-5.976099 157.679637" stroke="#60656f"/><path d="m61.93503 139.38167q30.268172-28.058661 21.150377-67.872891" stroke="#001530"/><path d="m80.549323 131.717679q45.494003-111.628461 190.450677-7.313429" stroke="#ff0"/><path d="m82.854248 73.162254q6.964564 8.756818-24.534896 61.477459" stroke="#00518e"/><path d="m91.434474 141.444812q-36.558247 29.409667-30.418093 43.555188" stroke="#fffeff"/><path d="m82.91941 131.688618q24.577201-83.246098 173.478238-30.079254" stroke="#ff0"/><path d="m271 115.940541q-23.408175-67.724769-198.447039 17.544437" stroke="#ff0"/><path d="m.768871 181.440342q35.935573-196.315716 194.097231-66.935912" stroke="#fff206"/><path d="m255.843749 113.226191q-37.873592-77.030463-177.317899 18.277301" stroke="#ff0"/><path d="m256.854555 101.032068q-130.292972-94.836472-150.002162 66.821326" stroke="#ffff06"/><path d="m52.114542 23.93931q25.49357 31.876857 69.032657-25.648975" stroke="#5c6307"/><path d="m60.717914 135.916784q.437928-8.009812 21.631094-73.067561" stroke="#177cc0"/><path d="m256.009009 135.930435q-198.943528-151.930435-256.165162 4.181795" stroke="#f7ea04"/><path d="m64.843562 141.73625q-17.439147-16.736533 11.446011-64.318736" stroke="#1199e9"/><path d="m111.653174-12.750555q-82.92247 125.217139-11.174108 161.174412" stroke="#6a616c"/><path d="m93.91728 151.5459q-27.099131-7.961846-29.571918 23.960676" stroke="#fffdff"/><path d="m88.010282 109.98674q15.121139-23.533964 9.855394-53.386174" stroke="#9c1e00"/><path d="m70.423862 137.763982q-12.586907-12.532377 29.53954-62.685961" stroke="#110e21"/><path d="m-9.998092 164.514854q275.415613 12.810077 280.998092-32.164056" stroke="#fff974"/><path d="m141.67364 43.629989q-64.1104-18.456996-70.303429 14.579034" stroke="#568ed2"/><path d="m98.79052 139.222329q-12.595601-8.150388-26.752793 10.58721" stroke="#46001c"/><path d="m87.75157 59.546959q21.842246 14.590433-18.45328 79.37858" stroke="#a71c00"/><path d="m74.954093 145.486451q13.510522-18.751198 29.085684 1.785538" stroke="#520018"/><path d="m84.048308 130.252986q55.052911-115.085136 186.951692 10.874255" stroke="#ffff02"/><path d="m86.683387 40.742165q50.128124 5.592785 66.798679 1.294709" stroke="#05000a"/><path d="m97.985729 56.465261q53.632038 103.221723 160.014231 11.449444" stroke="#ff0"/><path d="m44.508451 24.110394q82.862511 22.336554 83.823979-25.046421" stroke="#677013"/><path d="m87.353662 52.220715q-37.601507 44.467514-30.507725 78.919245" stroke="#b6ddff"/><path d="m85.704774 130.476346q29.756767-20.901756 185.295226-56.769814" stroke="#ff0"/><path d="m84.190981 129.949134q141.486754-99.223905 173.815557 25.215352" stroke="#ffff0d"/><path d="m89.179283 141.578602q-18.422781 2.829568-19.733502 43.421398" stroke="#fff4ff"/><path d="m-16 158.308252q3.058762 10.487403 276.596333 2.253542" stroke="#fff66b"/><path d="m271 101.432614q-138.898909-81.201146-162.555663 60.172981" stroke="#ffff04"/><path d="m72.159359 52.790122q3.197117-22.228306 45.716293-15.087299" stroke="#77c4ff"/><path d="m57.731974 132.205775q33.306404-25.678202 19.690754-57.229635" stroke="#005a91"/><path d="m83.001066 145.578191q-16.219896-15.051845 43.646081-161.578191" stroke="#67340d"/><path d="m86.635068 40.868828q39.363144 10.733309 58.00165.017384" stroke="#0a000b"/><path d="m82.389329 142.612959q-20.272739-43.14006 44.621049-120.304178" stroke="#502b1b"/><path d="m268.669308 146.24406q-70.640844-143.031975-188.97157-17.972107" stroke="#ffff04"/><path d="m109.86144-3.796322q-21.099177 64.209065-70.932919 26.841149" stroke="#6c6f10"/><path d="m85.364612 130.818746q141.501244-99.425335 185.635388 31.04455" stroke="#ffff06"/><path d="m62.413405 138.049834q-8.052102-30.09859 24.198679-61.572018" stroke="#01629d"/><path d="m-16 168.984898q0-4.8107 287-3.691846" stroke="#fff763"/><path d="m61.705545 84.8425q.221326-9.395954 24.144898-33.905403" stroke="#e2eaff"/><path d="m268.503342 57.789377q-118.178244 98.231994-169.236123-2.526577" stroke="#fffe00"/><path d="m91.961895 146.190261q-1.547883 9.30347-26.188862 23.799623" stroke="#ffe6ff"/><path d="m255.916184 84.810735q-156.327722-56.353305-146.140926 81.751437" stroke="#ffff04"/><path d="m86.918153 132.537928q127.833612-52.323169 184.081847-52.36883" stroke="#ffff01"/><path d="m88.553733 149.937044q-9.214291 4.090567-41.689174 35.062956" stroke="#fff"/><path d="m258.305705 100.653659q-150.5983-66.99295-167.970116 20.97754" stroke="#ff0"/><path d="m149.778942 41.433804q-82.3959-29.688234-108.728749-3.225501" stroke="#737b21"/><path d="m255.120708 57.913603q1.133951 127.086397-169.819585 72.862812" stroke="#ffff1e"/><path d="m62.64702 144.547757q-18.676674-31.772103 29.260731-94.62091" stroke="#72b1ed"/><path d="m70.287232-16q54.514351 27.142316-3.075539 168.692769" stroke="#823c09"/><path d="m112.7862 163.756907q-2.087192-103.594667 142.820675-57.629903" stroke="#ffff08"/><path d="m132.735516-8.352912q-47.670987 57.521414-84.793872 26.936834" stroke="#656c14"/><path d="m262.304836 104.195673q-158.484377-51.729575-172.577891 25.477398" stroke="#ff0"/><path d="m271 124.874326q-36.90515-101.6707-187.091456 2.168911" stroke="#ff0"/><path d="m271 117.92653q-102.224188-91.718107-178.53922 61.490397" stroke="#ffff0e"/><path d="m252.228642 63.027694q-2.123746 121.972306-169.982075 60.180734" stroke="#ffff1e"/><path d="m82.637105 142.361605q-2.258151 22.653853-18.718188 24.347327" stroke="#fff"/><path d="m89.804776 59.152117q14.642342 10.238687-3.263047 53.751903" stroke="#a31400"/><path d="m64.088683 49.502132q46.448395-65.502132 68.073808-44.126062" stroke="#6d7418"/><path d="m-16 158.049645q283.090312 17.699974 287-36.264768" stroke="#fffa61"/><path d="m88.5104 122.289228q125.320932-109.437308 177.431115 37.277675" stroke="#ffff08"/><path d="m259.357084 161.670662q-275.357084-13.682961-275.357084 22.447274" stroke="#fffa58"/><path d="m260.483206 44.745285q-26.167213 122.954906-160.433025 40.12787" stroke="#ffff09"/><path d="m105.442642 149.210144q-65.550945-28.307332-7.490837-76.420722" stroke="#4a2a44"/><path d="m85.640283 76.203081q-15.978435 6.662671-21.943486 71.733549" stroke="#1779a6"/><path d="m69.017001 135.56826q27.789205-53.985331 11.997863-64.040058" stroke="#00243d"/><path d="m271 70.813797q-19.967949-11.18296-185.232853 60.813592" stroke="#ff0"/><path d="m83.627131 131.763485q28.412882 15.739466-10.87503 53.236515" stroke="#7a4262"/><path d="m110.214982 34.08108q-42.625268 1.568318-37.247928 20.360169" stroke="#87c9fb"/><path d="m156.872077 41.463219q-92.889057-9.601878-80.580567 75.92478" stroke="#2a5e87"/><path d="m88.439444 168.971412q23.358937-21.560838 3.12263-33.841244" stroke="#6a334a"/><path d="m96.823369 173.897198q82.729682-140.438588 161.092657-33.90159" stroke="#ffff18"/><path d="m102.620477 66.018288q28.741805 93.323909 157.134079 8.840177" stroke="#ffff02"/><path d="m258.384072 147.294897q-268.712762 27.829719-274.384072-4.06596" stroke="#fffa58"/><path d="m90.059309 145.224292q-10.227613-2.015225-38.671593 39.775708" stroke="#fffcff"/><path d="m260.697725 88.861269q-147.047311-77.855569-154.739929 87.376521" stroke="#fffa05"/><path d="m63.131724 55.905261q43.554209-71.905261 75.908711-40.819897" stroke="#717918"/><path d="m123.421588-16q-37.439346 73.670955-79.680931 39.544116" stroke="#6b700f"/><path d="m252.150211 59.720059q-10.64523 125.279941-170.17526 65.898309" stroke="#ffff1b"/><path d="m257.794615 147.200352q-23.809069 33.044909-250.714925 12.396167" stroke="#fcf267"/><path d="m-.621974 158.156048q43.322319-174.156048 256.055931-27.713747" stroke="#f9f212"/><path d="m47.595679 19.033412q70.266399 26.262338 89.078611-22.0875" stroke="#71781e"/><path d="m75.294484 67.153471q-22.451185 6.149875-6.907387 59.82396" stroke="#54abe5"/><path d="m59.865665 132.172505q-4.940583-7.102771 27.166848-54.466769" stroke="#095f98"/><path d="m86.283006 54.797723q15.572578 24.430393-19.248439 100.86406" stroke="#bc3b00"/><path d="m99.267538 56.341205q19.093627 123.68973 156.037289 50.759687" stroke="#fffe19"/><path d="m71.832843 62.057027q1.820525-27.220516 44.786881-25.344652" stroke="#4093d7"/><path d="m42.047892 184.919551q-58.047892-58.527531 34.990977-123.873262" stroke="#fffa00"/><path d="m103.756445 69.853819q71.020645 115.146181 147.516623-7.207578" stroke="#fffe0a"/><path d="m87.013807 151.565054q2.918999 23.095305-30.451917 16.121713" stroke="#fff0f8"/><path d="m82.550767 72.224655q7.522915 6.32912-17.173538 63.152784" stroke="#002f4e"/><path d="m153.239314 36.561032q-60.920974-14.55483-104.69066 2.897376" stroke="#798110"/><path d="m76.94034 63.634375q58.38165-18.02088 40.555748-62.720254" stroke="#3e4823"/><path d="m268.950399 43.459486q-9.264997 41.78295-181.520309 88.910071" stroke="#ffff08"/><path d="m55.617187 132.236531q7.73194-70.058715 32.835606-79.65355" stroke="#b0cffa"/><path d="m120.148564 46.691696q-9.40764-13.074056-35.873129-1.99767" stroke="#1d0010"/><path d="m89.527644 117.819403q26.95315-100.312706 181.472356-13.172346" stroke="#fef700"/><path d="m95.246982 62.563637q10.81344 20.752247-6.746754 42.449941" stroke="#9c1700"/><path d="m255.710294 71.606911q-107.494894 113.393089-167.651682 55.265293" stroke="#ffff18"/><path d="m79.019762 145.187404q-17.892761 17.120983 4.463663 24.627474" stroke="#ffedff"/><path d="m113.857381 162.979244q8.522439-105.99843 141.577385-58.616069" stroke="#ffff0b"/><path d="m41.914177 20.529694q54.185919 38.512256 99.382227-32.46418" stroke="#717a19"/><path d="m59.501846 182.382034q17.523934-36.181632 37.718138-35.386884" stroke="#feecff"/><path d="m79.787154 128.124832q56.819118-86.451614 170.028206 7.613035" stroke="#fffe0c"/><path d="m-1.734773 185q5.242797-27.799244 72.502556-121.581157" stroke="#ff0"/><path d="m73.908537 169.939565q-13.224575-12.385448 10.382133-25.347505" stroke="#fffdff"/><path d="m260.982399 13.123255q7.014606 171.876745-176.569304 109.213634" stroke="#ffff1f"/><path d="m42.033795 16.255645q85.863436 27.646776 87.986549-32.255645" stroke="#717a21"/><path d="m254.229549 54.3789q-80.361535 91.425725-148.4848 12.364633" stroke="#fef800"/><path d="m89.08688 112.987539q27.619043-63.759882 181.91312-8.07679" stroke="#fffe00"/><path d="m271 116.302926q-51.158945-102.118878-182.606374 1.761016" stroke="#fff900"/><path d="m37.132619 9.06241q198.103002 56.665174 221.416634 31.062096" stroke="#979c15"/><path d="m8.814174 163.06799q14.136907-13.957403 61.731898-101.278475" stroke="#ff0"/><path d="m263.101172 167.161958q-83.002522-113.54858-179.646998 17.838042" stroke="#ffff32"/><path d="m69.799421 64.161134q-74.070592 88.968242-66.121621 120.838866" stroke="#ff0"/><path d="m59.226501 137.120801q-16.269185-18.122552 25.483848-87.012002" stroke="#c4e4e9"/><path d="m105.058283 38.595943q-22.44353-13.104615-33.628018 14.75344" stroke="#83c0ff"/><path d="m87.046865 185q89.25013-126.577669 172.727224-10.793318" stroke="#ffff3a"/><path d="m79.430364 73.392115q8.387129 16.739266-21.870158 54.37661" stroke="#09699f"/><path d="m230.632327 135.633881q-133.485154 49.366119-128.584334-62.327874" stroke="#ffff1d"/><path d="m255.653698 91.470296q-128.101185 91.845308-156.180117-34.923544" stroke="#fffc15"/><path d="m142.731281-16q-10.733495 0-75.654854 165.785338" stroke="#8b4f01"/><path d="m101.241939 60.580619q81.183359 89.17932 158.043722-9.730236" stroke="#fdf700"/><path d="m258.720532 174.39972q-82.216786-109.724105-167.338753 9.019604" stroke="#ffff3b"/><path d="m81.772834 129.968841q127.306689-105.109903 189.227166 12.519949" stroke="#fffe08"/><path d="m80.664945 75.104947q20.947122 24.0102-22.072292 42.458056" stroke="#00456f"/><path d="m57.768393 74.547078q-70.354526 50.238651 7.737523 87.95033" stroke="#ff0"/><path d="m63.483464 72.36065q-28.011326 93.624175-65.438908 75.297242" stroke="#ff0"/><path d="m88.841569 126.835737q27.982458-106.222251 177.488638-35.005712" stroke="#faf400"/><path d="m271 90.86273q-170.885882-39.186423-156.325783 94.13727" stroke="#ffff0b"/><path d="m136.5997 1.241321q-11.919879-11.373137-68.074669 40.001115" stroke="#787f22"/><path d="m89.76528 150.631105q-35.666911 34.368895-52.045027 18.502658" stroke="#fff6ff"/><path d="m92.968612 159.625275q-24.569547-16.013129-31.6639 18.124671" stroke="#fff6ff"/><path d="m96.177649 166.770809q22.594169-46.11102 164.536971-84.690635" stroke="#ffff17"/><path d="m76.855768 130.385238q36.266642 10.173873 10.66481 43.204144" stroke="#923d4e"/><path d="m81.530077 45.092691q29.264592-1.917658 62.626798-.162432" stroke="#261310"/><path d="m66.930228 152.608125q36.25869-78.900011 22.651614-91.313191" stroke="#bf3a00"/><path d="m60.720146 75.853506q-66.100553 50.256491 4.878273 85.318907" stroke="#ff0"/><path d="m62.94832 144.740598q-16.838785-28.682099 21.435133-81.87012" stroke="#57b8ed"/><path d="m44.096532 17.492498q226.903468 34.339091 226.903468 40.004417" stroke="#969c12"/><path d="m93.161785 127.255103q26.081522 57.744897 173.296051-3.25677" stroke="#ffff2f"/><path d="m139.367271 9.725177q-39.177212-25.725177-82.803471 45.361936" stroke="#7b8121"/><path d="m59.128439 78.599669q-56.460952 41.981561 6.17077 80.656304" stroke="#ff0"/><path d="m260.742628 38.866817q-4.652267 140.993763-164.92438 87.983536" stroke="#ffff23"/><path d="m269.058471 185q-25.301342-154.879508-183.603114-53.435722" stroke="#fffe0f"/><path d="m271 89.391513q-148.97798-79.549464-166.923357 49.49657" stroke="#f7f200"/><path d="m119.633449 172.400838q21.621423-144.985407 140.884412-81.253184" stroke="#fffc0f"/><path d="m99.42767 45.611926q-22.563997 5.011511-2.068175 50.696558" stroke="#db4400"/><path d="m139.849018 42.268499q-54.263956 22.527566-58.200616-47.639205" stroke="#4a4921"/><path d="m74.167113 62.226208q15.446393-31.785817 51.123295-15.495164" stroke="#431519"/><path d="m86.279482 56.553469q-16.415378 54.745843-22.567065 86.919435" stroke="#1d6789"/><path d="m102.305197 146.435041q-16.710845-21.511776-34.053524 9.17678" stroke="#572a1b"/><path d="m1.607699 157.179251q80.452267-22.786236 33.447015-91.459492" stroke="#ffff02"/><path d="m104.168213 155.39162q131.517733.618736 153.275671-93.338777" stroke="#ffff20"/><path d="m69.924733 172.626027q-1.138975-25.506228 16.029693-24.37406" stroke="#fff"/><path d="m19.657305 27.019171q249.014941 17.639409 249.199036 27.484555" stroke="#9aa012"/><path d="m48.188536 39.036957q67.402777.836285 71.473605-50.020853" stroke="#6c750d"/><path d="m251.776037 145.671044q-113.77703-115.699978-169.765417-22.955345" stroke="#fffa12"/><path d="m70.068379 85.109944q9.178217-30.668721 18.468688-33.15792" stroke="#f0e5ff"/><path d="m263.473858 152.767839q-257.95532 32.232161-264.855156 5.258477" stroke="#faf362"/><path d="m64.025034 140.61223q32.662462-55.886214 15.023838-67.626649" stroke="#033a4f"/><path d="m62.776574 142.305327q-18.427564-31.304145 17.838406-69.42901" stroke="#53bff6"/><path d="m82.218576 77.748463q-31.213245 31.148008-16.736106 73.723553" stroke="#1083b9"/><path d="m84.87937 169.900735q28.423017-24.601805-5.883769-37.314683" stroke="#964250"/><path d="m90.307792 61.19187q19.949969-18.967936 48.605808-18.480932" stroke="#030e16"/><path d="m80.968554 129.670544q176.753912 20.423436 165.244354-66.958671" stroke="#fffd1a"/><path d="m63.03834 164.469399q-79.03834-41.914489-4.06621-91.793107" stroke="#ffff02"/><path d="m91.515943 127.833349q22.818265-101.839534 165.377399-28.840399" stroke="#fef802"/><path d="m264.652836 174.248355q-35.279885-130.98486-172.996065-43.195908" stroke="#fffd14"/><path d="m-13.180411 158.496098q28.597708 6.455153 76.418262-86.32507" stroke="#ff0"/><path d="m58.997461 170.717475q30.963139-2.779971 29.780655-19.680484" stroke="#ffe7ff"/><path d="m265.336323 112.493757q-123.26633-44.605015-151.584204 57.842227" stroke="#ffff17"/><path d="m143.052635 14.233085q-74.617807 32.698438-93.155336-2.111844" stroke="#797f1d"/><path d="m82.247854 103.269538q24.546621-14.915578 11.831641-45.670916" stroke="#8a1500"/><path d="m-6.240421 114.978202q52.285042 38.504676 68.504131-36.683931" stroke="#ff0"/><path d="m43.906443 64.4735q38.183603 30.597774-49.218024 101.573941" stroke="#fffe00"/><path d="m262.753362 184.613554q-41.581102-115.837847-157.751665-18.68257" stroke="#fffd3c"/><path d="m102.782212 75.270786q22.161985 109.729214 147.144723 27.210487" stroke="#fffe1b"/><path d="m94.529016 134.652715q-14.391447 4.115968-19.240799-5.981103" stroke="#e80000"/><path d="m107.61951 34.382364q-36.208767 6.819132-36.985152 18.169022" stroke="#77b9e9"/><path d="m58.444222 97.794011q-74.444222-8.469615-55.790758 57.746125" stroke="#ff0"/><path d="m258.502165 84.448571q-145.039843-64.535604-158.78113 56.901603" stroke="#f8f201"/><path d="m53.362395 53.086542q-1.106273-69.086542 100.416763-36.663631" stroke="#888e31"/><path d="m26.984798 33.773019q33.36559-24.130602 138.507541.660004" stroke="#8a9221"/><path d="m-1.364862 119.498233q47.88812-33.508768 64.517324 36.997362" stroke="#ff0"/><path d="m100.948237 63.610414q22.164778 95.064677 157.472407 23.956909" stroke="#fefb0b"/><path d="m259.186341 68.771047q-102.103882 116.228953-168.73182 62.094564" stroke="#fffe1c"/><path d="m86.662654 80.071455q-15.692979 34.040513-17.883489 46.058001" stroke="#00334f"/><path d="m-.330049 159.584955q86.062117-12.523429 31.704838-87.24543" stroke="#ffff0a"/><path d="m93.12975 59.38118q-8.662708 13.614889 1.311165 41.47279" stroke="#ce2300"/><path d="m2.54848 69.310653q-18.54848 89.487415 62.11838 89.210408" stroke="#ff2"/><path d="m108.500684 36.058677q-12.122456-7.120661-35.307879 8.807284" stroke="#96c9f4"/><path d="m99.84853 161.424726q171.15147-1.603323 154.180142-76.913254" stroke="#fffd35"/><path d="m90.278917 145.95974q-26.229166 26.931095-23.009891 39.028025" stroke="#ffecff"/><path d="m77.390578 146.555399q-4.290024-19.490152 22.570571-84.437087" stroke="#822100"/></g></svg>