<svg height="680" width="1024" xmlns="http://www.w3.org/2000/svg"><path d="m0 0h1024v680h-1024z" fill="#b9bdbf"/><g fill-opacity=".501961"><path d="m-.5-.5h1v1h-1z" fill="#232227" transform="matrix(0 908 -64 0 722 386)"/><path d="m-.5-.5h1v1h-1z" fill="#fff" transform="matrix(-671.59063576 -23.4524618 6.4215074 -183.88791216 358 142)"/><path d="m-.5-.5h1v1h-1z" transform="matrix(37.27026676 97.09236436 -78.42075584 30.10290776 274 226)"/><path d="m-.5-.5h1v1h-1z" fill="#fff" transform="matrix(0 -228 396 0 954 154)"/><path d="m-.5-.5h1v1h-1z" fill="#4b4c50" transform="matrix(50.37357476 -259.14957644 90.30970088 17.55442756 258 618)"/><path d="m-.5-.5h1v1h-1z" fill="#434646" transform="matrix(0 48 -676 0 686 14)"/><path d="m-.5-.5h1v1h-1z" fill="#6d6d72" transform="matrix(-949.68097584 66.408163 -12.55616528 -179.56152904 822 678)"/><path d="m-.5-.5h1v1h-1z" fill="#4d5151" transform="matrix(1.39619252 -79.9878156 419.93603196 7.33001072 138 2)"/><path d="m-.5-.5h1v1h-1z" fill="#ecf0f2" transform="matrix(68.1950346 -320.83241304 262.143557 55.72033312 106 230)"/><path d="m-.5-.5h1v1h-1z" fill="#e3e7ea" transform="matrix(7.81867808 447.93176744 -315.95187168 5.51496044 502 270)"/><path d="m-.5-.5h1v1h-1z" transform="matrix(48.4974226 28 -22 38.10511776 302 262)"/><path d="m-.5-.5h1v1h-1z" fill="#000102" transform="matrix(-105.15796392 65.70998876 -4.23935412 -6.78438476 218 302)"/><path d="m-.5-.5h1v1h-1z" fill="#8e8f94" transform="matrix(60.19554524 -165.38590124 409.70598268 149.12078248 118 678)"/><path d="m-.5-.5h1v1h-1z" transform="matrix(27.2823618 6.29862952 -22.49510544 97.43700648 278 194)"/><path d="m-.5-.5h1v1h-1z" fill="#fff" transform="matrix(67.33822868 -9.46377088 6.12361644 43.57179504 546 646)"/><path d="m-.5-.5h1v1h-1z" fill="#f9feff" transform="matrix(50.22814296 13.45859036 -14.49386652 54.09184628 318 202)"/><path d="m-.5-.5h1v1h-1z" fill="#8c8f93" transform="matrix(57.95554956 15.52914272 -83.8573706 312.95996772 638 550)"/><path d="m-.5-.5h1v1h-1z" fill="#dde1e3" transform="matrix(97.70371668 -116.43875536 101.11786648 84.84796448 270 370)"/><path d="m-.5-.5h1v1h-1z" fill="#404345" transform="matrix(9.83915976 187.74235252 -67.90680836 3.55884504 718 602)"/><path d="m-.5-.5h1v1h-1z" fill="#97999d" transform="matrix(-206.56182728 63.15228824 -32.74563092 -107.10613268 930 502)"/><path d="m-.5-.5h1v1h-1z" fill="#515356" transform="matrix(-105.69185076 85.5875732 -30.20737876 -37.30300616 298 518)"/><path d="m-.5-.5h1v1h-1z" fill="#f4f8f8" transform="matrix(-318.2569982 -79.35038176 9.67687584 -38.81182904 34 454)"/><path d="m-.5-.5h1v1h-1z" fill="#d4d9db" transform="matrix(-215.43921264 114.55106132 -67.60390504 -127.14445336 886 278)"/><path d="m-.5-.5h1v1h-1z" fill="#ebefef" transform="matrix(-81.84708544 -18.89588856 32.39295184 -140.30928932 430 542)"/><path d="m-.5-.5h1v1h-1z" fill="#fbffff" transform="matrix(-28.7380418 -61.62892952 50.75323608 -23.66662264 946 678)"/><path d="m-.5-.5h1v1h-1z" fill="#f3f7f8" transform="matrix(415.91258888 58.4527024 -12.24723288 87.14359004 290 110)"/><path d="m-.5-.5h1v1h-1z" fill="#979a9e" transform="matrix(309.28963076 131.28565916 -14.06632064 33.13817472 490 566)"/><path d="m-.5-.5h1v1h-1z" fill="#f6faf9" transform="matrix(21.15030544 -47.5043638 69.4294548 30.91198488 194 594)"/><path d="m-.5-.5h1v1h-1z" fill="#fff" transform="matrix(4.38016504 27.65527352 -158.03013448 25.0295144 1006 402)"/><path d="m-.5-.5h1v1h-1z" fill="#fff" transform="matrix(6.77381308 27.16828032 -89.2672068 22.2568144 334 558)"/><path d="m-.5-.5h1v1h-1z" fill="#aeb2b4" transform="matrix(-281.90778624 102.606043 -17.78504744 -48.86401628 458 426)"/><path d="m-.5-.5h1v1h-1z" transform="matrix(-26.14025196 -10.0343026 5.7338872 -14.93728684 326 322)"/><path d="m-.5-.5h1v1h-1z" transform="matrix(-79.88874736 25.95742752 -4.94427192 -15.21690428 282 246)"/><path d="m-.5-.5h1v1h-1z" fill="#faffff" transform="matrix(27.14933872 48.9787036 -314.86309456 174.53146328 930 126)"/><path d="m-.5-.5h1v1h-1z" fill="#eff3f3" transform="matrix(138.95646124 -17.06170808 2.43738688 19.85092304 866 522)"/><path d="m-.5-.5h1v1h-1z" fill="#fff" transform="matrix(86.98770896 -29.9522702 7.81363572 22.6924458 306 442)"/><path d="m-.5-.5h1v1h-1z" fill="#fff" transform="matrix(105.63994088 -22.4544626 1.66329352 7.8251808 322 642)"/><path d="m-.5-.5h1v1h-1z" fill="#020101" transform="matrix(18.54367708 7.49213188 -43.45436484 107.55332712 262 230)"/><path d="m-.5-.5h1v1h-1z" transform="matrix(-32.01439672 40.9765592 -6.30408604 -4.9252918 222 214)"/><path d="m-.5-.5h1v1h-1z" fill="#4d4f52" transform="matrix(-1.93923848 3.49847884 -153.93306844 -85.32649316 246 498)"/><path d="m-.5-.5h1v1h-1z" fill="#a3a7a9" transform="matrix(-100.70757204 -97.25217188 36.12223528 -37.4056696 510 458)"/><path d="m-.5-.5h1v1h-1z" fill="#737378" transform="matrix(-28.8421322 48.00136884 -154.29011412 -92.70685348 982 626)"/><path d="m-.5-.5h1v1h-1z" fill="#989b9e" transform="matrix(-23.99634468 .41885776 -7.5394396 -431.93420432 698 166)"/><path d="m-.5-.5h1v1h-1z" fill="#eaefee" transform="matrix(79.67433716 46 -16 27.71281292 98 658)"/><path d="m-.5-.5h1v1h-1z" fill="#fff" transform="matrix(-13.59674776 41.84648672 -87.49719948 -28.42956348 574 442)"/><path d="m-.5-.5h1v1h-1z" fill="#fff" transform="matrix(82.72385124 14.58644692 -4.16755628 23.63538608 798 458)"/><path d="m-.5-.5h1v1h-1z" fill="#fff" transform="matrix(25.2373632 -36.04268996 36.04268996 25.2373632 278 294)"/><path d="m-.5-.5h1v1h-1z" fill="#3d4042" transform="matrix(23.28610936 109.55253128 -27.38813284 5.82152736 262 554)"/><path d="m-.5-.5h1v1h-1z" fill="#616165" transform="matrix(-123.69794224 8.64980276 -3.62733664 -51.8733306 838 678)"/><path d="m-.5-.5h1v1h-1z" fill="#fff" transform="matrix(75.06431388 11.88901936 -.62573788 3.95075336 862 618)"/><path d="m-.5-.5h1v1h-1z" transform="matrix(7.81363572 22.6924458 -22.6924458 7.81363572 322 246)"/><path d="m-.5-.5h1v1h-1z" fill="#707074" transform="matrix(-75.47095804 -65.60590288 47.23625008 -54.33908976 30 678)"/><path d="m-.5-.5h1v1h-1z" fill="#7d7d82" transform="matrix(116.43875536 97.70371668 -23.14035396 27.57759996 1022 534)"/><path d="m-.5-.5h1v1h-1z" fill="#fff" transform="matrix(7.81363572 22.6924458 -41.60281732 14.3249988 54 534)"/><path d="m-.5-.5h1v1h-1z" fill="#bcc0c4" transform="matrix(-7.01692092 22.95131416 -451.3758448 -137.99944464 1022 218)"/><path d="m-.5-.5h1v1h-1z" fill="#878a8e" transform="matrix(-223.86354524 7.81748728 -.139598 -3.99756332 842 270)"/><path d="m-.5-.5h1v1h-1z" fill="#979b9e" transform="matrix(-142.22712104 -22.52656296 7.50885432 -47.40904036 154 538)"/><path d="m-.5-.5h1v1h-1z" fill="#fff" transform="matrix(6.2573786 -39.50753364 90.86732732 14.3919708 426 494)"/><path d="m-.5-.5h1v1h-1z" fill="#999ca0" transform="matrix(-19.25808076 -25.55633632 108.61442936 -81.84684316 358 578)"/><path d="m-.5-.5h1v1h-1z" fill="#bbbfc2" transform="matrix(-20.97796924 51.92229584 -263.32021468 -106.38827252 546 370)"/><path d="m-.5-.5h1v1h-1z" fill="#e8ecec" transform="matrix(-97.9574072 54.29867748 -63.99486988 -115.44980136 198 142)"/><path d="m-.5-.5h1v1h-1z" fill="#fafefd" transform="matrix(1.6747506 31.95614512 -103.8574716 5.44293944 430 586)"/><path d="m-.5-.5h1v1h-1z" fill="#eaeeef" transform="matrix(652 0 0 104 342 94)"/><path d="m-.5-.5h1v1h-1z" fill="#454849" transform="matrix(-14.83494168 -5.99370548 14.98426372 -37.0873542 174 334)"/><path d="m-.5-.5h1v1h-1z" fill="#feffff" transform="matrix(-14.334718 37.34321704 -186.71608528 -71.67358992 866 118)"/><path d="m-.5-.5h1v1h-1z" fill="#fff" transform="matrix(-16.4812184 -27.42935364 10.2860076 -6.18045688 670 586)"/><path d="m-.5-.5h1v1h-1z" fill="#abafb2" transform="matrix(5.65228328 107.85198976 -27.96162696 1.46540676 230 570)"/><path d="m-.5-.5h1v1h-1z" fill="#989a9e" transform="matrix(-42.08363008 -86.28422844 57.52281896 -28.0557534 494 562)"/><path d="m-.5-.5h1v1h-1z" fill="#fafefe" transform="matrix(-13.23059308 46.1405614 -149.95682456 -42.99942752 998 258)"/><path d="m-.5-.5h1v1h-1z" fill="#8a8f90" transform="matrix(0 24 -328 0 506 30)"/><path d="m-.5-.5h1v1h-1z" fill="#1d1e1f" transform="matrix(-19.7011672 -25.21634412 47.2806452 -36.93968852 310 258)"/><path d="m-.5-.5h1v1h-1z" fill="#f3f6f7" transform="matrix(-296.6703912 -157.74244508 18.77886252 -35.31790372 70 198)"/><path d="m-.5-.5h1v1h-1z" fill="#636667" transform="matrix(-9.38606792 59.26130044 -280.50348872 -44.42738808 910 2)"/><path d="m-.5-.5h1v1h-1z" fill="#040606" transform="matrix(-46.62875768 37.75922348 -2.51728156 -3.10858384 274 178)"/><path d="m-.5-.5h1v1h-1z" fill="#e4e7e8" transform="matrix(86.13763792 89.19813524 -166.88683368 161.16074196 410 158)"/><path d="m-.5-.5h1v1h-1z" fill="#e3e7e7" transform="matrix(65.25416068 30.42851484 -21.9761496 47.12800492 554 538)"/><path d="m-.5-.5h1v1h-1z" fill="#a0a4a8" transform="matrix(-91.31424596 11.2119796 -3.899819 -31.76147684 82 490)"/><path d="m-.5-.5h1v1h-1z" fill="#fff" transform="matrix(39.9451814 -2.09343824 1.46540676 27.96162696 818 542)"/><path d="m-.5-.5h1v1h-1z" fill="#fff" transform="matrix(-3.32658704 -15.6503616 27.38813284 -5.82152736 18 614)"/><path d="m-.5-.5h1v1h-1z" fill="#babfc2" transform="matrix(-35.10497768 32.73592128 -21.82394752 -23.40331844 274 486)"/><path d="m-.5-.5h1v1h-1z" fill="#e0e3e4" transform="matrix(-29.82597468 -42.59590632 26.2128654 -18.35444596 990 562)"/><path d="m-.5-.5h1v1h-1z" fill="#7c7d81" transform="matrix(249.48182676 127.11733992 -5.447886 10.69207828 810 566)"/><path d="m-.5-.5h1v1h-1z" fill="#ccd0d1" transform="matrix(-15.1036894 18.65150308 -74.60601228 -60.41475756 806 590)"/><path d="m-.5-.5h1v1h-1z" fill="#fff" transform="matrix(-86.38319216 -16.7911916 3.05294392 -15.70603492 434 386)"/><path d="m-.5-.5h1v1h-1z" fill="#fff" transform="matrix(-18.63513336 48.54618216 -14.93728684 -5.7338872 234 234)"/><path d="m-.5-.5h1v1h-1z" fill="#f4f8f8" transform="matrix(110.32255588 -35.84597136 4.94427192 15.21690428 810 374)"/><path d="m-.5-.5h1v1h-1z" fill="#c5c8cd" transform="matrix(-279.87830628 -155.13907848 11.63543088 -20.99087296 1022 142)"/><path d="m-.5-.5h1v1h-1z" fill="#fff" transform="matrix(-4.83843792 19.40591452 -58.21774356 -14.51531372 558 642)"/><path d="m-.5-.5h1v1h-1z" fill="#292a2b" transform="matrix(-3.82521904 1.1694868 -29.23717048 -95.6304756 310 274)"/><path d="m-.5-.5h1v1h-1z" fill="#a6aaad" transform="matrix(185.14385756 -32.6458574 6.94592712 39.39231012 590 486)"/><path d="m-.5-.5h1v1h-1z" fill="#8f9195" transform="matrix(-364.60073688 -132.7038156 13.68080572 -37.58770484 50 590)"/><path d="m-.5-.5h1v1h-1z" fill="#57595b" transform="matrix(30.2565944 10.41818096 -10.41818096 30.2565944 314 534)"/><path d="m-.5-.5h1v1h-1z" fill="#95969a" transform="matrix(83.96349188 46.54172356 -17.45314632 31.48630944 346 606)"/><path d="m-.5-.5h1v1h-1z" fill="#bdc1c4" transform="matrix(249.92804096 71.66571252 -11.02549424 38.45046784 186 366)"/><path d="m-.5-.5h1v1h-1z" fill="#878b8e" transform="matrix(-.06980964 -3.9993908 223.96588372 -3.90933904 110 266)"/><path d="m-.5-.5h1v1h-1z" fill="#fff" transform="matrix(-44.504825 -17.98111648 7.49213188 -18.54367708 902 298)"/><path d="m-.5-.5h1v1h-1z" fill="#dee1e3" transform="matrix(-111.5738062 -9.7614432 4.18347564 -47.81734552 378 294)"/><path d="m-.5-.5h1v1h-1z" fill="#000202" transform="matrix(38.04226064 -12.36067976 1.23606796 3.80422608 242 198)"/><path d="m-.5-.5h1v1h-1z" fill="#a3a7ab" transform="matrix(-159.97563124 -2.79238504 1.18676364 -67.98964328 982 346)"/><path d="m-.5-.5h1v1h-1z" fill="#fdffff" transform="matrix(-27.57759996 -23.14035396 20.56920352 -24.51342216 866 438)"/><path d="m-.5-.5h1v1h-1z" fill="#7b7f81" transform="matrix(56.29482196 110.484809 -7.1280522 3.631924 210 554)"/><path d="m-.5-.5h1v1h-1z" fill="#d7dadd" transform="matrix(-1.81505028 103.98416028 -115.98233264 -2.02447916 634 290)"/><path d="m-.5-.5h1v1h-1z" fill="#9da0a3" transform="matrix(211.31019852 122 -12 20.78460968 886 546)"/><path d="m-.5-.5h1v1h-1z" fill="#9b9ea1" transform="matrix(.139598 -3.99756332 323.80262796 11.30743692 570 270)"/><path d="m-.5-.5h1v1h-1z" fill="#444649" transform="matrix(34.20201432 93.96926208 -15.03508192 5.47232228 274 586)"/><path d="m-.5-.5h1v1h-1z" fill="#909195" transform="matrix(7.52604936 71.60557648 -83.5398392 8.78039092 610 598)"/><path d="m-.5-.5h1v1h-1z" fill="#7c7e82" transform="matrix(4 6.92820324 -148.95636944 86 58 678)"/><path d="m-.5-.5h1v1h-1z" fill="#242527" transform="matrix(-2 -3.4641016 83.13843876 -48 210 310)"/><path d="m-.5-.5h1v1h-1z" fill="#a3a7ab" transform="matrix(-59.16655664 -126.8830902 18.12615576 -8.45236524 814 398)"/><path d="m-.5-.5h1v1h-1z" fill="#a0a4a8" transform="matrix(-103.58493124 100.03080536 -11.11453392 -11.5094368 10 474)"/><path d="m-.5-.5h1v1h-1z" fill="#fff" transform="matrix(-18.91037152 6.51136308 -10.41818096 -30.2565944 302 210)"/><path d="m-.5-.5h1v1h-1z" fill="#fff" transform="matrix(-55.45501184 7.79369364 -3.89684684 -27.72750592 70 454)"/><path d="m-.5-.5h1v1h-1z" fill="#fff" transform="matrix(-.763236 -3.92650872 43.19159608 -8.3955958 302 558)"/><path d="m-.5-.5h1v1h-1z" fill="#bdc2c5" transform="matrix(-17.62097096 -21.76008692 142.99485692 -115.79495196 998 162)"/><path d="m-.5-.5h1v1h-1z" fill="#fff" transform="matrix(-3.34491084 -31.82470064 75.58366404 -7.9441632 158 490)"/><path d="m-.5-.5h1v1h-1z" fill="#fff" transform="matrix(-8.13473288 18.27090916 -62.12109112 -27.65809172 838 314)"/><path d="m-.5-.5h1v1h-1z" fill="#2f3232" transform="matrix(8 0 0 16 210 238)"/><path d="m-.5-.5h1v1h-1z" fill="#8a8b8f" transform="matrix(123.69794224 -8.64980276 1.11610356 15.9610248 810 582)"/><path d="m-.5-.5h1v1h-1z" fill="#eef2f3" transform="matrix(-33.20722152 28.86659728 -10.49694448 -12.07535328 146 662)"/><path d="m-.5-.5h1v1h-1z" fill="#fbffff" transform="matrix(-9.11590832 -26.47452012 79.42356036 -27.34772496 290 442)"/><path d="m-.5-.5h1v1h-1z" fill="#c0c4c7" transform="matrix(99.6194698 8.71557428 -8.36695132 95.634691 326 378)"/><path d="m-.5-.5h1v1h-1z" fill="#818285" transform="matrix(-64 0 0 -188 722 278)"/><path d="m-.5-.5h1v1h-1z" fill="#b4b8bb" transform="matrix(-50.85105304 104.26010936 -21.57105712 -10.52090752 362 458)"/><path d="m-.5-.5h1v1h-1z" fill="#6d6e71" transform="matrix(59.96344964 2.0939698 -3.21075368 91.94395608 726 42)"/><path d="m-.5-.5h1v1h-1z" fill="#f8fcfc" transform="matrix(-11.64305468 -54.77626564 43.03849444 -9.1481144 194 586)"/><path d="m-.5-.5h1v1h-1z" fill="#fff" transform="matrix(-3.62733664 -51.8733306 51.8733306 -3.62733664 782 78)"/><path d="m-.5-.5h1v1h-1z" fill="#e3e6e8" transform="matrix(140.93194588 56.9402022 -14.98426372 37.0873542 166 246)"/><path d="m-.5-.5h1v1h-1z" fill="#bcc0c3" transform="matrix(-2.79195972 -79.95126616 195.88060208 -6.84030136 578 382)"/><path d="m-.5-.5h1v1h-1z" fill="#8d8e93" transform="matrix(23.15353788 80.74598244 -253.77308772 72.76826192 382 678)"/><path d="m-.5-.5h1v1h-1z" fill="#6a6e71" transform="matrix(-2.17855616 3.35468228 -77.15769224 -50.10679124 198 462)"/><path d="m-.5-.5h1v1h-1z" fill="#dcdee1" transform="matrix(8.20848344 22.55262288 -248.07885188 90.29331784 146 206)"/><path d="m-.5-.5h1v1h-1z" fill="#fff" transform="matrix(46.36443968 -12.42331416 4.14110472 15.45481324 190 406)"/><path d="m-.5-.5h1v1h-1z" fill="#f1f4f5" transform="matrix(99.25461516 -12.18693436 5.84972848 47.64221528 582 238)"/><path d="m-.5-.5h1v1h-1z" fill="#fff" transform="matrix(.97495476 -7.9403692 67.49313832 8.28711536 890 518)"/><path d="m-.5-.5h1v1h-1z" fill="#1c1d1d" transform="matrix(9.32575152 7.55184468 -47.82834972 59.06309308 274 194)"/><path d="m-.5-.5h1v1h-1z" fill="#b3b7bb" transform="matrix(47.81734552 4.18347564 -7.3210824 83.68035464 142 434)"/><path d="m-.5-.5h1v1h-1z" fill="#57595d" transform="matrix(-28.72969204 78.93418016 -7.51754096 -2.73616116 310 498)"/><path d="m-.5-.5h1v1h-1z" fill="#dde0e3" transform="matrix(-6.71031484 -9.94845088 43.10995376 -29.078031 206 294)"/><path d="m-.5-.5h1v1h-1z" fill="#f5fafa" transform="matrix(23.70452016 -3.75442716 5.63164076 35.55678028 298 298)"/><path d="m-.5-.5h1v1h-1z" fill="#fff" transform="matrix(30.52973148 -19.07709352 10.59838528 16.96096192 78 646)"/><path d="m-.5-.5h1v1h-1z" fill="#5e6163" transform="matrix(147.97745888 -2.58295616 .06980964 3.9993908 334 266)"/><path d="m-.5-.5h1v1h-1z" fill="#646669" transform="matrix(7.66970536 87.66513344 -75.71079704 6.62383644 726 514)"/><path d="m-.5-.5h1v1h-1z" fill="#dde0e2" transform="matrix(159.79669064 -36.89197292 29.69353916 128.61684856 10 118)"/><path d="m-.5-.5h1v1h-1z" fill="#a0a4a8" transform="matrix(-27.42935364 16.4812184 -53.5639598 -89.14539928 910 434)"/><path d="m-.5-.5h1v1h-1z" fill="#fff" transform="matrix(-20 34.64101616 -20.78460968 -12 342 546)"/><path d="m-.5-.5h1v1h-1z" fill="#fff" transform="matrix(79.56175164 8.36227708 -4.18113852 39.7808758 798 190)"/><path d="m-.5-.5h1v1h-1z" fill="#707276" transform="matrix(199.96953904 -3.49048128 .06980964 3.9993908 102 678)"/><path d="m-.5-.5h1v1h-1z" fill="#dcdee1" transform="matrix(-23.76643364 3.34015444 -12.24723288 -87.14359004 158 338)"/><path d="m-.5-.5h1v1h-1z" fill="#27272a" transform="matrix(-11.83331132 -25.37661804 18.12615576 -8.45236524 290 166)"/><path d="m-.5-.5h1v1h-1z" fill="#fff" transform="matrix(3.8450468 1.10254944 -6.61529652 23.07028072 246 214)"/><path d="m-.5-.5h1v1h-1z" fill="#fff" transform="matrix(-62.59433004 26.56971672 -18.75509416 -44.18423296 66 194)"/><path d="m-.5-.5h1v1h-1z" fill="#f8fbfb" transform="matrix(-179.78529412 54.96588048 -10.52538136 -34.4269712 350 86)"/><path d="m-.5-.5h1v1h-1z" fill="#77777b" transform="matrix(19.39787368 122.47335424 -63.2120538 10.01180576 1022 642)"/><path d="m-.5-.5h1v1h-1z" fill="#fff" transform="matrix(-27.57461708 -4.86214896 5.55674168 -31.51384808 782 462)"/><path d="m-.5-.5h1v1h-1z" fill="#222223" transform="matrix(17.89417292 26.52920232 -49.74225436 33.5515742 306 258)"/><path d="m-.5-.5h1v1h-1z" fill="#9b9ea1" transform="matrix(120.75353284 -104.96944464 2.62423612 3.01883832 554 550)"/><path d="m-.5-.5h1v1h-1z" fill="#fff" transform="matrix(2.47213596 7.60845212 -34.2380346 11.1246118 222 514)"/><path d="m-.5-.5h1v1h-1z" fill="#a1a5a8" transform="matrix(0 4 -608 0 250 346)"/><path d="m-.5-.5h1v1h-1z" fill="#e8ecef" transform="matrix(1.66329352 7.8251808 -58.68885604 12.47470144 954 674)"/><path d="m-.5-.5h1v1h-1z" fill="#9fa1a4" transform="matrix(3.76302468 35.80278824 -83.5398392 8.78039092 234 630)"/><path d="m-.5-.5h1v1h-1z" fill="#f6f9f8" transform="matrix(-1.25606296 23.96710884 -67.90680836 -3.55884504 594 294)"/><path d="m-.5-.5h1v1h-1z" fill="#888a8d" transform="matrix(-167.89765892 5.86311544 -.139598 -3.99756332 954 434)"/><path d="m-.5-.5h1v1h-1z" fill="#404346" transform="matrix(-67.21779072 -25.80249236 1.4334718 -3.73432172 266 606)"/><path d="m-.5-.5h1v1h-1z" fill="#7e7e83" transform="matrix(-105.24557352 38.30625604 -12.31272516 -33.82893436 630 666)"/><path d="m-.5-.5h1v1h-1z" fill="#f1f6f6" transform="matrix(-22.36179428 -16.85082064 2.40726008 -3.19454204 782 642)"/><path d="m-.5-.5h1v1h-1z" fill="#fff" transform="matrix(48 0 0 16 126 382)"/><path d="m-.5-.5h1v1h-1z" fill="#1c1f20" transform="matrix(.8998042 3.89748024 -38.9748026 8.99804216 326 326)"/><path d="m-.5-.5h1v1h-1z" fill="#777b7c" transform="matrix(-9.26207008 75.43350752 -142.92664584 -17.54918544 70 2)"/><path d="m-.5-.5h1v1h-1z" fill="#989a9d" transform="matrix(-13.76583448 -19.65964908 111.40467804 -78.00639536 74 614)"/><path d="m-.5-.5h1v1h-1z" fill="#eff5f6" transform="matrix(-1.39449188 -15.93911516 31.87823032 -2.78898376 850 618)"/><path d="m-.5-.5h1v1h-1z" fill="#fcffff" transform="matrix(-.20942888 11.99817236 -119.9817234 -2.09428876 974 406)"/><path d="m-.5-.5h1v1h-1z" fill="#e5eaeb" transform="matrix(-2.8669436 -7.4686434 85.88939924 -32.96985136 326 638)"/><path d="m-.5-.5h1v1h-1z" fill="#edf0f1" transform="matrix(4.86214896 -27.57461708 94.54154428 16.67022504 466 242)"/><path d="m-.5-.5h1v1h-1z" fill="#feffff" transform="matrix(-99.86295348 -5.23359564 2.30278208 -43.93969952 998 78)"/><path d="m-.5-.5h1v1h-1z" fill="#dee3e6" transform="matrix(23.9415372 -1.67415536 1.95318128 27.9317934 766 678)"/><path d="m-.5-.5h1v1h-1z" fill="#252628" transform="matrix(-19.15312804 52.62278676 -3.75877048 -1.36808056 242 274)"/><path d="m-.5-.5h1v1h-1z" fill="#feffff" transform="matrix(-79.42356036 27.34772496 -13.02272616 -37.82074304 106 78)"/><path d="m-.5-.5h1v1h-1z" fill="#7c7c80" transform="matrix(-118.6795334 47.94964396 -1.49842636 -3.7087354 22 570)"/><path d="m-.5-.5h1v1h-1z" fill="#a8acae" transform="matrix(-.27902588 -3.9902562 283.30819028 -19.81083856 998 270)"/><path d="m-.5-.5h1v1h-1z" fill="#808386" transform="matrix(1.49842636 3.7087354 -63.04850212 25.47324836 1002 554)"/><path d="m-.5-.5h1v1h-1z" fill="#fdffff" transform="matrix(19.63254368 -3.81617992 6.10588784 31.41206988 670 590)"/><path d="m-.5-.5h1v1h-1z" fill="#fff" transform="matrix(-3.50846044 -11.47565708 65.0287234 -19.88127592 862 362)"/><path d="m-.5-.5h1v1h-1z" fill="#d8dcdf" transform="matrix(-19.52335888 -43.85018196 186.36327336 -82.9742752 858 102)"/><path d="m-.5-.5h1v1h-1z" fill="#dfe2e4" transform="matrix(-49.25291804 63.04086028 -25.21634412 -19.7011672 354 342)"/><path d="m-.5-.5h1v1h-1z" fill="#929498" transform="matrix(14.386796 -13.8931674 88.9162714 92.07549444 362 622)"/><path d="m-.5-.5h1v1h-1z" fill="#f7fcfc" transform="matrix(-15.99756312 -.27923852 1.95466952 -111.98294184 678 102)"/><path d="m-.5-.5h1v1h-1z" fill="#9a9da0" transform="matrix(-13.67226884 195.52255384 -11.9707686 -.83707768 514 494)"/><path d="m-.5-.5h1v1h-1z" fill="#8e9094" transform="matrix(-35.3385786 -6.86912384 10.68530376 -54.97112228 670 542)"/><path d="m-.5-.5h1v1h-1z" fill="#fdffff" transform="matrix(-9.8885438 -30.43380852 15.21690428 -4.94427192 770 386)"/><path d="m-.5-.5h1v1h-1z" fill="#1b1e1e" transform="matrix(-5.7338872 14.93728684 -7.4686434 -2.8669436 174 338)"/><path d="m-.5-.5h1v1h-1z" fill="#696a6e" transform="matrix(-240.98879852 73.6776696 -1.1694868 -3.82521904 930 642)"/><path d="m-.5-.5h1v1h-1z" fill="#a1a5a8" transform="matrix(-263.83917832 -9.21346712 .139598 -3.99756332 874 350)"/><path d="m-.5-.5h1v1h-1z" fill="#f3f7f6" transform="matrix(-107.5890274 -9.4128202 1.39449188 -15.93911516 410 598)"/><path d="m-.5-.5h1v1h-1z" fill="#b0b3b6" transform="matrix(6.9724594 -79.69557584 15.93911516 1.39449188 762 514)"/><path d="m-.5-.5h1v1h-1z" fill="#95999a" transform="matrix(.27902588 -3.9902562 263.35690928 18.41570908 342 34)"/><path d="m-.5-.5h1v1h-1z" fill="#f9fdfe" transform="matrix(-63.64940132 -6.68982164 .41811384 -3.9780876 998 574)"/><path d="m-.5-.5h1v1h-1z" fill="#f0f4f3" transform="matrix(-14.42106608 -24.0006844 10.2860076 -6.18045688 1022 466)"/><path d="m-.5-.5h1v1h-1z" fill="#dadedf" transform="matrix(75.64148604 26.04545236 -14.3249988 41.60281732 174 210)"/><path d="m-.5-.5h1v1h-1z" fill="#b3b7ba" transform="matrix(-101.50647216 47.33324532 -8.45236524 -18.12615576 38 394)"/><path d="m-.5-.5h1v1h-1z" fill="#fff" transform="matrix(49.74225436 33.5515742 -20.13094452 29.8453526 222 138)"/><path d="m-.5-.5h1v1h-1z" fill="#fff" transform="matrix(-2.29430576 -3.27660816 22.93625724 -16.0601402 794 518)"/><path d="m-.5-.5h1v1h-1z" fill="#fff" transform="matrix(.20934384 3.99451812 -115.84102604 6.07097092 858 46)"/><path d="m-.5-.5h1v1h-1z" fill="#d9dcdf" transform="matrix(9.67687584 38.81182904 -190.17796236 47.41669152 94 142)"/><path d="m-.5-.5h1v1h-1z" fill="#e3e6e8" transform="matrix(-75.71079704 -6.62383644 6.9724594 -79.69557584 338 182)"/><path d="m-.5-.5h1v1h-1z" fill="#7f8387" transform="matrix(127.14445336 67.60390504 -1.87788624 3.53179036 558 666)"/><path d="m-.5-.5h1v1h-1z" fill="#727478" transform="matrix(-82.69295064 30.0977726 -1.36808056 -3.75877048 990 650)"/><path d="m-.5-.5h1v1h-1z" fill="#b6bbbd" transform="matrix(-4.10424172 11.27631144 -154.1095898 -56.09130352 158 518)"/><path d="m-.5-.5h1v1h-1z" fill="#4d4f52" transform="matrix(4.39622032 83.88488092 -55.92325396 2.93081356 710 642)"/><path d="m-.5-.5h1v1h-1z" fill="#fff" transform="matrix(-2.783462 19.80536136 -27.72750592 -3.89684684 778 570)"/><path d="m-.5-.5h1v1h-1z" fill="#e4eaea" transform="matrix(27.53166896 -39.31929812 26.2128654 18.35444596 534 650)"/><path d="m-.5-.5h1v1h-1z" fill="#fff" transform="matrix(-1.11610356 15.9610248 -95.76614884 -6.69662148 578 442)"/><path d="m-.5-.5h1v1h-1z" fill="#818488" transform="matrix(82.4566834 16.0279556 -1.52647196 7.85301748 914 678)"/><path d="m-.5-.5h1v1h-1z" fill="#b5b9bc" transform="matrix(19.25808076 -25.55633632 102.22534528 77.03232296 382 522)"/><path d="m-.5-.5h1v1h-1z" fill="#feffff" transform="matrix(-41.52904652 31.2943812 -7.22178028 -9.58362612 254 306)"/><path d="m-.5-.5h1v1h-1z" fill="#c5c9cc" transform="matrix(115.84102604 6.07097092 -.83737528 15.97807256 994 46)"/><path d="m-.5-.5h1v1h-1z" fill="#f9fefd" transform="matrix(.83164676 3.9125904 -74.33921764 15.80128852 2 614)"/><path d="m-.5-.5h1v1h-1z" fill="#a2a5a8" transform="matrix(-132.3858066 -103.43112784 2.46264592 -3.152043 538 518)"/><path d="m-.5-.5h1v1h-1z" fill="#a3a7aa" transform="matrix(-163.60050424 -11.44006168 .27902588 -3.9902562 398 430)"/><path d="m-.5-.5h1v1h-1z" fill="#f9fefe" transform="matrix(-57.06339096 18.54101968 -1.23606796 -3.80422608 930 654)"/><path d="m-.5-.5h1v1h-1z" fill="#5b5d60" transform="matrix(15.21425744 32.62708032 -18.12615576 8.45236524 242 498)"/><path d="m-.5-.5h1v1h-1z" fill="#fff" transform="matrix(-3.10582856 -11.59110992 19.31851652 -5.17638092 934 518)"/><path d="m-.5-.5h1v1h-1z" fill="#6d6e73" transform="matrix(34.19442232 27.6900972 -10.06912624 12.4343354 770 654)"/><path d="m-.5-.5h1v1h-1z" fill="#f3f8f7" transform="matrix(23.61812504 -27.16954488 18.11302992 15.74541668 42 530)"/><path d="m-.5-.5h1v1h-1z" fill="#fff" transform="matrix(-74.60366596 14.50148364 -3.05294392 -15.70603492 2 442)"/><path d="m-.5-.5h1v1h-1z" fill="#fff" transform="matrix(47.40904036 7.50885432 -1.25147572 7.90150672 966 550)"/><path d="m-.5-.5h1v1h-1z" fill="#f0f6f5" transform="matrix(.48747736 -3.9701846 55.58258448 6.82468324 290 646)"/><path d="m-.5-.5h1v1h-1z" fill="#fdffff" transform="matrix(16 0 0 12 962 470)"/><path d="m-.5-.5h1v1h-1z" fill="#8a8b8f" transform="matrix(70.27992488 -52.95972204 36.1089014 47.9181306 210 670)"/><path d="m-.5-.5h1v1h-1z" fill="#c3c6c8" transform="matrix(367.9439518 -6.42248556 .06980964 3.9993908 1010 254)"/><path d="m-.5-.5h1v1h-1z" fill="#b1b6b9" transform="matrix(113.02692752 26.09432232 -3.59921688 15.58992104 1010 222)"/><path d="m-.5-.5h1v1h-1z" fill="#a2a6a9" transform="matrix(-51.8733306 3.62733664 -2.79025896 -39.902562 38 494)"/><path d="m-.5-.5h1v1h-1z" fill="#9c9fa3" transform="matrix(-4.67794728 15.30087608 -118.58178972 -36.2540914 546 614)"/><path d="m-.5-.5h1v1h-1z" fill="#fff" transform="matrix(-7.511545 -14.12716148 14.12716148 -7.511545 294 218)"/><path d="m-.5-.5h1v1h-1z" fill="#fbfffe" transform="matrix(-75.89584464 3.97753268 -1.04671912 -19.97259068 426 394)"/><path d="m-.5-.5h1v1h-1z" fill="#fff" transform="matrix(23.86852548 -2.50868312 1.6724554 15.91235032 58 306)"/><path d="m-.5-.5h1v1h-1z" fill="#57595a" transform="matrix(-29.8453526 -20.13094452 22.36771612 -33.16150292 670 2)"/><path d="m-.5-.5h1v1h-1z" fill="#f7fdfc" transform="matrix(.83737528 15.97807256 -55.92325396 2.93081356 178 486)"/><path d="m-.5-.5h1v1h-1z" fill="#6f7275" transform="matrix(-6.84040288 -18.7938524 18.7938524 -6.84040288 178 458)"/><path d="m-.5-.5h1v1h-1z" fill="#b1b6b9" transform="matrix(6.12835556 5.14230088 -149.12672544 177.7223108 138 434)"/><path d="m-.5-.5h1v1h-1z" fill="#1e1d1f" transform="matrix(6.7618922 14.5009246 -54.37846724 25.35709572 298 242)"/><path d="m-.5-.5h1v1h-1z" fill="#9d9fa3" transform="matrix(-100.6649332 -49.09756844 12.27439212 -25.16623328 342 606)"/><path d="m-.5-.5h1v1h-1z" fill="#9ea2a5" transform="matrix(-55.95450924 -45.31106816 12.58640784 -15.54291924 830 446)"/><path d="m-.5-.5h1v1h-1z" fill="#eff3f3" transform="matrix(-19.951281 1.39512948 -3.06928484 -43.8928182 526 534)"/><path d="m-.5-.5h1v1h-1z" fill="#989a9e" transform="matrix(-63.8440992 -4.46441432 2.79025896 -39.902562 918 546)"/><path d="m-.5-.5h1v1h-1z" fill="#b3b9bb" transform="matrix(0 20 -64 0 150 646)"/><path d="m-.5-.5h1v1h-1z" fill="#fff" transform="matrix(24.24871132 -14 4 6.92820324 334 294)"/><path d="m-.5-.5h1v1h-1z" fill="#5f6463" transform="matrix(3.8450468 -1.10254944 8.8203954 30.76037428 282 230)"/><path d="m-.5-.5h1v1h-1z" fill="#f3f9f9" transform="matrix(9.70820392 -7.05342304 16.45798708 22.65247584 294 562)"/><path d="m-.5-.5h1v1h-1z" fill="#5a5c5f" transform="matrix(-45.48022476 -25.21010024 19.3923848 -34.98478828 302 526)"/><path d="m-.5-.5h1v1h-1z" fill="#fff" transform="matrix(-79.80512404 5.58051788 -1.11610356 -15.9610248 442 162)"/><path d="m-.5-.5h1v1h-1z" fill="#b7bbbf" transform="matrix(81.41261724 -50.87224936 14.8377394 23.74534668 226 426)"/><path d="m-.5-.5h1v1h-1z" fill="#fff" transform="matrix(-73.05588888 -20.94843904 4.41019768 -15.38018712 162 166)"/><path d="m-.5-.5h1v1h-1z" fill="#d8dadd" transform="matrix(-116 0 0 -56 434 298)"/><path d="m-.5-.5h1v1h-1z" fill="#fff" transform="matrix(23.63538608 -4.16755628 2.08377812 11.81769304 842 426)"/><path d="m-.5-.5h1v1h-1z" fill="#dcdee1" transform="matrix(-.83771552 -47.99268936 151.97684968 -2.65276576 446 130)"/><path d="m-.5-.5h1v1h-1z" fill="#727376" transform="matrix(-10.469849 299.81724812 -3.99756332 -.139598 690 534)"/><path d="m-.5-.5h1v1h-1z" fill="#f7fbfb" transform="matrix(-4.67794728 15.30087608 -72.67916144 -22.22024956 274 450)"/><path d="m-.5-.5h1v1h-1z" fill="#8f9494" transform="matrix(-1.39449188 -15.93911516 75.71079704 -6.62383644 798 34)"/><path d="m-.5-.5h1v1h-1z" fill="#bcc0c4" transform="matrix(-41.14403044 -24.7218276 30.90228448 -51.43003804 790 354)"/><path d="m-.5-.5h1v1h-1z" fill="#9b9da1" transform="matrix(123.92446256 4.3275376 -1.11678388 31.98050648 954 494)"/><path d="m-.5-.5h1v1h-1z" fill="#aaafb2" transform="matrix(1.11610356 15.9610248 -59.853843 4.18538844 282 482)"/><path d="m-.5-.5h1v1h-1z" fill="#0f0f10" transform="matrix(7.85301748 1.52647196 -8.3955958 43.19159608 282 174)"/><path d="m-.5-.5h1v1h-1z" fill="#f2f5f7" transform="matrix(-50.66724336 11.69745484 -1.79960844 -7.79496052 126 666)"/><path d="m-.5-.5h1v1h-1z" fill="#caced1" transform="matrix(-91.4092474 71.41673112 -27.08910492 -34.67247316 566 378)"/><path d="m-.5-.5h1v1h-1z" fill="#cbced1" transform="matrix(-41.84648672 13.59674776 -27.19349552 -83.69297344 222 358)"/><path d="m-.5-.5h1v1h-1z" fill="#2c2c2d" transform="matrix(16.90097628 31.78611336 -21.19074224 11.26731752 254 254)"/><path d="m-.5-.5h1v1h-1z" fill="#313332" transform="matrix(-2.2367716 -3.31615028 53.05840464 -35.78834584 30 2)"/><path d="m-.5-.5h1v1h-1z" fill="#fff" transform="matrix(-2 -3.4641016 31.17691452 -18 810 546)"/><path d="m-.5-.5h1v1h-1z" fill="#505454" transform="matrix(-8 0 0 -32 370 22)"/><path d="m-.5-.5h1v1h-1z" fill="#f8fdfc" transform="matrix(-5.82152736 27.38813284 -50.86367524 -10.81140792 1014 402)"/><path d="m-.5-.5h1v1h-1z" fill="#c4c7cb" transform="matrix(-110.3103998 92.5614158 -15.42690264 -18.38506664 842 234)"/><path d="m-.5-.5h1v1h-1z" fill="#c1c4c8" transform="matrix(18.7540032 -106.35923732 51.21000316 9.02970524 2 322)"/><path d="m-.5-.5h1v1h-1z" fill="#020202" transform="matrix(9.07981 -17.82013048 28.51220876 14.527696 270 206)"/><path d="m-.5-.5h1v1h-1z" fill="#b6babd" transform="matrix(-172.43981508 116.31212392 -4.47354324 -6.6323006 6 470)"/><path d="m-.5-.5h1v1h-1z" fill="#f2f7f7" transform="matrix(1.94990948 -15.88073844 127.0459074 15.59927596 426 494)"/><path d="m-.5-.5h1v1h-1z" fill="#737377" transform="matrix(-4.81686416 -275.95796388 23.99634468 -.41885776 714 134)"/><path d="m-.5-.5h1v1h-1z" fill="#818387" transform="matrix(-.34862296 -3.9847788 79.69557584 -6.9724594 846 606)"/><path d="m-.5-.5h1v1h-1z" fill="#8c8d91" transform="matrix(6.18033988 19.02113032 -353.79302408 114.95432192 1010 598)"/><path d="m-.5-.5h1v1h-1z" fill="#b6babc" transform="matrix(19.35375164 -77.62365812 3.88118292 .9676876 290 438)"/><path d="m-.5-.5h1v1h-1z" fill="#fff" transform="matrix(-91.8739172 -4.81490796 2.30278208 -43.93969952 902 134)"/><path d="m-.5-.5h1v1h-1z" fill="#f1f6f6" transform="matrix(6.35903116 -10.17657716 57.66727052 36.03450996 542 642)"/><path d="m-.5-.5h1v1h-1z" fill="#818286" transform="matrix(347.95083584 119.80908084 -1.3022726 3.78207432 142 614)"/><path d="m-.5-.5h1v1h-1z" fill="#feffff" transform="matrix(-51.8733306 -3.62733664 1.39512948 -19.951281 278 294)"/><path d="m-.5-.5h1v1h-1z" fill="#9ea2a5" transform="matrix(-139.91673772 59.39113152 -1.56292452 -3.6820194 158 518)"/><path d="m-.5-.5h1v1h-1z" fill="#606464" transform="matrix(.06980964 3.9993908 -207.9683206 3.63010052 162 2)"/><path d="m-.5-.5h1v1h-1z" fill="#eff2f3" transform="matrix(28 0 0 100 2 90)"/><path d="m-.5-.5h1v1h-1z" fill="#fff" transform="matrix(7.75695392 -13.99391532 45.48022476 25.21010024 914 302)"/><path d="m-.5-.5h1v1h-1z" fill="#fbffff" transform="matrix(10.87569344 5.07141916 -6.7618922 14.5009246 818 594)"/><path d="m-.5-.5h1v1h-1z" fill="#a0a4a7" transform="matrix(2.06015228 3.4286692 -78.85939168 47.38350288 802 530)"/><path d="m-.5-.5h1v1h-1z" fill="#9a9fa2" transform="matrix(-8.64980276 123.69794224 -3.9902562 -.27902588 754 390)"/><path d="m-.5-.5h1v1h-1z" fill="#9c9fa3" transform="matrix(9.35306512 -267.83674164 3.99756332 .139598 694 286)"/><path d="m-.5-.5h1v1h-1z" fill="#e4e8e9" transform="matrix(27.57461708 4.86214896 -6.94592712 39.39231012 426 598)"/><path d="m-.5-.5h1v1h-1z" fill="#e6ecec" transform="matrix(-16.77341136 -10.89278072 2.17855616 -3.35468228 662 618)"/><path d="m-.5-.5h1v1h-1z" fill="#eff2f2" transform="matrix(.69459272 3.939231 -43.33154112 7.6405198 106 562)"/><path d="m-.5-.5h1v1h-1z" fill="#fff" transform="matrix(16 0 0 12 762 566)"/><path d="m-.5-.5h1v1h-1z" fill="#fff" transform="matrix(71.11356052 11.26328148 -2.50295144 15.80301344 970 238)"/><path d="m-.5-.5h1v1h-1z" fill="#dbdee1" transform="matrix(1.69047304 -3.62523116 210.2634066 98.04743672 154 134)"/><path d="m-.5-.5h1v1h-1z" fill="#ced1d4" transform="matrix(56 0 0 24 282 322)"/><path d="m-.5-.5h1v1h-1z" fill="#babfc0" transform="matrix(3.31615028 2.2367716 -44.73543228 66.3230058 282 2)"/><path d="m-.5-.5h1v1h-1z" fill="#aeb2b5" transform="matrix(1.69047304 -3.62523116 217.51386888 101.4283828 954 306)"/></g></svg>