<svg xmlns="http://www.w3.org/2000/svg" version="1.1" width="1024" height="768">
<rect x="0" y="0" width="1024" height="768" fill="#26657a" />
<g transform="scale(4.000000) translate(0.5 0.5)">
<ellipse fill="#b3ffff" fill-opacity="0.501961" cx="164" cy="51" rx="58" ry="58" />
<ellipse fill="#001b36" fill-opacity="0.501961" cx="0" cy="104" rx="107" ry="107" />
<ellipse fill="#279bbf" fill-opacity="0.501961" cx="112" cy="93" rx="56" ry="56" />
<ellipse fill="#00020b" fill-opacity="0.501961" cx="223" cy="191" rx="48" ry="48" />
<ellipse fill="#ddece7" fill-opacity="0.501961" cx="164" cy="39" rx="33" ry="33" />
<ellipse fill="#002235" fill-opacity="0.501961" cx="71" cy="191" rx="77" ry="77" />
<ellipse fill="#000e20" fill-opacity="0.501961" cx="4" cy="0" rx="67" ry="67" />
<ellipse fill="#2fa5c8" fill-opacity="0.501961" cx="192" cy="95" rx="37" ry="37" />
<ellipse fill="#001321" fill-opacity="0.501961" cx="151" cy="191" rx="30" ry="30" />
<ellipse fill="#1f7694" fill-opacity="0.501961" cx="96" cy="118" rx="44" ry="44" />
<ellipse fill="#00070e" fill-opacity="0.501961" cx="0" cy="177" rx="50" ry="50" />
<ellipse fill="#318ca7" fill-opacity="0.501961" cx="146" cy="127" rx="37" ry="37" />
<ellipse fill="#085469" fill-opacity="0.501961" cx="226" cy="140" rx="33" ry="33" />
<ellipse fill="#567d81" fill-opacity="0.501961" cx="204" cy="0" rx="28" ry="28" />
<ellipse fill="#7be2ee" fill-opacity="0.501961" cx="168" cy="63" rx="22" ry="22" />
<ellipse fill="#03202c" fill-opacity="0.501961" cx="255" cy="15" rx="19" ry="19" />
<ellipse fill="#074e6c" fill-opacity="0.501961" cx="48" cy="119" rx="40" ry="40" />
<ellipse fill="#0a5475" fill-opacity="0.501961" cx="57" cy="50" rx="32" ry="32" />
<ellipse fill="#2c8eb1" fill-opacity="0.501961" cx="112" cy="21" rx="18" ry="18" />
<ellipse fill="#338eaa" fill-opacity="0.501961" cx="225" cy="65" rx="22" ry="22" />
<ellipse fill="#e1c9c4" fill-opacity="0.501961" cx="161" cy="26" rx="21" ry="21" />
<ellipse fill="#ffffff" fill-opacity="0.501961" cx="132" cy="120" rx="4" ry="4" />
<ellipse fill="#00263a" fill-opacity="0.501961" cx="85" cy="191" rx="40" ry="40" />
<ellipse fill="#4bc5df" fill-opacity="0.501961" cx="141" cy="61" rx="18" ry="18" />
<ellipse fill="#cdebe2" fill-opacity="0.501961" cx="21" cy="101" rx="4" ry="4" />
<ellipse fill="#002e48" fill-opacity="0.501961" cx="62" cy="0" rx="30" ry="30" />
<ellipse fill="#001b25" fill-opacity="0.501961" cx="224" cy="191" rx="32" ry="32" />
<ellipse fill="#6ba3a9" fill-opacity="0.501961" cx="211" cy="25" rx="19" ry="19" />
<ellipse fill="#1d728e" fill-opacity="0.501961" cx="185" cy="141" rx="26" ry="26" />
<ellipse fill="#000c16" fill-opacity="0.501961" cx="1" cy="0" rx="38" ry="38" />
<ellipse fill="#2b89aa" fill-opacity="0.501961" cx="97" cy="58" rx="25" ry="25" />
<ellipse fill="#0e425a" fill-opacity="0.501961" cx="199" cy="9" rx="7" ry="7" />
<ellipse fill="#bdd4cf" fill-opacity="0.501961" cx="195" cy="43" rx="13" ry="13" />
<ellipse fill="#001a33" fill-opacity="0.501961" cx="210" cy="0" rx="8" ry="8" />
<ellipse fill="#145d77" fill-opacity="0.501961" cx="110" cy="145" rx="24" ry="24" />
<ellipse fill="#58afb9" fill-opacity="0.501961" cx="9" cy="89" rx="5" ry="5" />
<ellipse fill="#7fa8ad" fill-opacity="0.501961" cx="145" cy="0" rx="24" ry="24" />
<ellipse fill="#fff4e4" fill-opacity="0.501961" cx="174" cy="162" rx="3" ry="3" />
<ellipse fill="#00283e" fill-opacity="0.501961" cx="13" cy="51" rx="34" ry="34" />
<ellipse fill="#00202f" fill-opacity="0.501961" cx="183" cy="187" rx="22" ry="22" />
<ellipse fill="#b3dde6" fill-opacity="0.501961" cx="146" cy="158" rx="4" ry="4" />
<ellipse fill="#000d14" fill-opacity="0.501961" cx="6" cy="132" rx="13" ry="13" />
<ellipse fill="#b1edf3" fill-opacity="0.501961" cx="137" cy="119" rx="5" ry="5" />
<ellipse fill="#0e4e61" fill-opacity="0.501961" cx="224" cy="151" rx="25" ry="25" />
<ellipse fill="#277e9a" fill-opacity="0.501961" cx="206" cy="112" rx="27" ry="27" />
<ellipse fill="#217a97" fill-opacity="0.501961" cx="98" cy="106" rx="25" ry="25" />
<ellipse fill="#b4b7b5" fill-opacity="0.501961" cx="179" cy="18" rx="13" ry="13" />
<ellipse fill="#073543" fill-opacity="0.501961" cx="255" cy="152" rx="24" ry="24" />
<ellipse fill="#37879d" fill-opacity="0.501961" cx="153" cy="181" rx="6" ry="6" />
<ellipse fill="#cdedef" fill-opacity="0.501961" cx="187" cy="155" rx="3" ry="3" />
<ellipse fill="#2b7a92" fill-opacity="0.501961" cx="15" cy="108" rx="8" ry="8" />
<ellipse fill="#3497b3" fill-opacity="0.501961" cx="144" cy="100" rx="20" ry="20" />
<ellipse fill="#33889f" fill-opacity="0.501961" cx="224" cy="40" rx="13" ry="13" />
<ellipse fill="#001824" fill-opacity="0.501961" cx="57" cy="191" rx="26" ry="26" />
<ellipse fill="#206b86" fill-opacity="0.501961" cx="160" cy="0" rx="7" ry="7" />
<ellipse fill="#6bcbd8" fill-opacity="0.501961" cx="198" cy="61" rx="13" ry="13" />
<ellipse fill="#000509" fill-opacity="0.501961" cx="12" cy="191" rx="22" ry="22" />
<ellipse fill="#c4c6c3" fill-opacity="0.501961" cx="153" cy="15" rx="12" ry="12" />
<ellipse fill="#16546e" fill-opacity="0.501961" cx="255" cy="45" rx="23" ry="23" />
<ellipse fill="#115876" fill-opacity="0.501961" cx="78" cy="28" rx="21" ry="21" />
<ellipse fill="#88afa7" fill-opacity="0.501961" cx="209" cy="16" rx="9" ry="9" />
<ellipse fill="#5fc8dc" fill-opacity="0.501961" cx="127" cy="43" rx="13" ry="13" />
<ellipse fill="#0c5b7c" fill-opacity="0.501961" cx="196" cy="14" rx="6" ry="6" />
<ellipse fill="#d8e4e3" fill-opacity="0.501961" cx="157" cy="35" rx="13" ry="13" />
<ellipse fill="#3f98ac" fill-opacity="0.501961" cx="126" cy="1" rx="14" ry="14" />
<ellipse fill="#000c14" fill-opacity="0.501961" cx="255" cy="191" rx="19" ry="19" />
<ellipse fill="#002a3a" fill-opacity="0.501961" cx="147" cy="171" rx="11" ry="11" />
<ellipse fill="#013850" fill-opacity="0.501961" cx="53" cy="153" rx="19" ry="19" />
<ellipse fill="#a19488" fill-opacity="0.501961" cx="235" cy="15" rx="3" ry="3" />
<ellipse fill="#3197b2" fill-opacity="0.501961" cx="178" cy="47" rx="4" ry="4" />
<ellipse fill="#b5e7e0" fill-opacity="0.501961" cx="181" cy="57" rx="9" ry="9" />
<ellipse fill="#073f5d" fill-opacity="0.501961" cx="37" cy="75" rx="28" ry="28" />
<ellipse fill="#10597a" fill-opacity="0.501961" cx="65" cy="83" rx="20" ry="20" />
<ellipse fill="#40869c" fill-opacity="0.501961" cx="192" cy="33" rx="3" ry="3" />
<ellipse fill="#b6c7bd" fill-opacity="0.501961" cx="205" cy="28" rx="5" ry="5" />
<ellipse fill="#3fabc9" fill-opacity="0.501961" cx="175" cy="97" rx="16" ry="16" />
<ellipse fill="#7dd0d3" fill-opacity="0.501961" cx="133" cy="23" rx="9" ry="9" />
<ellipse fill="#7adfe3" fill-opacity="0.501961" cx="22" cy="95" rx="2" ry="2" />
<ellipse fill="#165b74" fill-opacity="0.501961" cx="241" cy="117" rx="26" ry="26" />
<ellipse fill="#3286a0" fill-opacity="0.501961" cx="222" cy="85" rx="17" ry="17" />
<ellipse fill="#000107" fill-opacity="0.501961" cx="7" cy="99" rx="4" ry="4" />
<ellipse fill="#023b54" fill-opacity="0.501961" cx="81" cy="167" rx="19" ry="19" />
<ellipse fill="#65c8dd" fill-opacity="0.501961" cx="158" cy="71" rx="12" ry="12" />
<ellipse fill="#00212f" fill-opacity="0.501961" cx="131" cy="180" rx="14" ry="14" />
<ellipse fill="#78999e" fill-opacity="0.501961" cx="181" cy="0" rx="15" ry="15" />
<ellipse fill="#338fad" fill-opacity="0.501961" cx="109" cy="35" rx="14" ry="14" />
<ellipse fill="#32879b" fill-opacity="0.501961" cx="182" cy="1" rx="7" ry="7" />
<ellipse fill="#1a6f8b" fill-opacity="0.501961" cx="165" cy="143" rx="20" ry="20" />
<ellipse fill="#ffffff" fill-opacity="0.501961" cx="135" cy="120" rx="3" ry="3" />
<ellipse fill="#175875" fill-opacity="0.501961" cx="96" cy="11" rx="11" ry="11" />
<ellipse fill="#256c83" fill-opacity="0.501961" cx="124" cy="139" rx="18" ry="18" />
<ellipse fill="#0d4e62" fill-opacity="0.501961" cx="204" cy="157" rx="15" ry="15" />
<ellipse fill="#123644" fill-opacity="0.501961" cx="252" cy="5" rx="17" ry="17" />
<ellipse fill="#023147" fill-opacity="0.501961" cx="29" cy="140" rx="19" ry="19" />
<ellipse fill="#105676" fill-opacity="0.501961" cx="68" cy="50" rx="12" ry="12" />
<ellipse fill="#32788c" fill-opacity="0.501961" cx="155" cy="180" rx="6" ry="6" />
<ellipse fill="#297f9b" fill-opacity="0.501961" cx="197" cy="23" rx="5" ry="5" />
<ellipse fill="#28859f" fill-opacity="0.501961" cx="135" cy="162" rx="4" ry="4" />
<ellipse fill="#bbd4d7" fill-opacity="0.501961" cx="173" cy="163" rx="3" ry="3" />
<ellipse fill="#4ba3b8" fill-opacity="0.501961" cx="213" cy="57" rx="12" ry="12" />
<ellipse fill="#3294b5" fill-opacity="0.501961" cx="109" cy="69" rx="14" ry="14" />
<ellipse fill="#0a5f80" fill-opacity="0.501961" cx="154" cy="0" rx="4" ry="4" />
<ellipse fill="#e0d4d2" fill-opacity="0.501961" cx="189" cy="43" rx="7" ry="7" />
<ellipse fill="#08445d" fill-opacity="0.501961" cx="107" cy="172" rx="13" ry="13" />
<ellipse fill="#001521" fill-opacity="0.501961" cx="0" cy="34" rx="17" ry="17" />
<ellipse fill="#399bb7" fill-opacity="0.501961" cx="194" cy="99" rx="13" ry="13" />
<ellipse fill="#ffffee" fill-opacity="0.501961" cx="145" cy="156" rx="2" ry="2" />
<ellipse fill="#7dc4c5" fill-opacity="0.501961" cx="155" cy="19" rx="5" ry="5" />
<ellipse fill="#176177" fill-opacity="0.501961" cx="212" cy="139" rx="13" ry="13" />
<ellipse fill="#105e78" fill-opacity="0.501961" cx="112" cy="95" rx="7" ry="7" />
<ellipse fill="#074054" fill-opacity="0.501961" cx="171" cy="177" rx="11" ry="11" />
<ellipse fill="#c2ece4" fill-opacity="0.501961" cx="167" cy="51" rx="6" ry="6" />
<ellipse fill="#b0d8ca" fill-opacity="0.501961" cx="186" cy="152" rx="2" ry="2" />
<ellipse fill="#011c2e" fill-opacity="0.501961" cx="42" cy="0" rx="15" ry="15" />
<ellipse fill="#022d47" fill-opacity="0.501961" cx="23" cy="81" rx="12" ry="12" />
<ellipse fill="#001e2d" fill-opacity="0.501961" cx="59" cy="191" rx="28" ry="28" />
<ellipse fill="#57a9bc" fill-opacity="0.501961" cx="126" cy="118" rx="5" ry="5" />
<ellipse fill="#00070c" fill-opacity="0.501961" cx="7" cy="135" rx="8" ry="8" />
<ellipse fill="#93e5e6" fill-opacity="0.501961" cx="139" cy="43" rx="9" ry="9" />
<ellipse fill="#89bac4" fill-opacity="0.501961" cx="19" cy="99" rx="3" ry="3" />
<ellipse fill="#2785a5" fill-opacity="0.501961" cx="98" cy="100" rx="11" ry="11" />
<ellipse fill="#c2b4ae" fill-opacity="0.501961" cx="188" cy="9" rx="4" ry="4" />
<ellipse fill="#000810" fill-opacity="0.501961" cx="202" cy="181" rx="7" ry="7" />
<ellipse fill="#d6d5d3" fill-opacity="0.501961" cx="147" cy="25" rx="8" ry="8" />
<ellipse fill="#7ac3cf" fill-opacity="0.501961" cx="129" cy="88" rx="4" ry="4" />
<ellipse fill="#09485e" fill-opacity="0.501961" cx="178" cy="158" rx="4" ry="4" />
<ellipse fill="#468d94" fill-opacity="0.501961" cx="217" cy="12" rx="8" ry="8" />
<ellipse fill="#00010b" fill-opacity="0.501961" cx="203" cy="165" rx="3" ry="3" />
<ellipse fill="#25839e" fill-opacity="0.501961" cx="148" cy="89" rx="7" ry="7" />
<ellipse fill="#023850" fill-opacity="0.501961" cx="0" cy="116" rx="13" ry="13" />
<ellipse fill="#1e7e9b" fill-opacity="0.501961" cx="151" cy="162" rx="4" ry="4" />
<ellipse fill="#21708c" fill-opacity="0.501961" cx="231" cy="99" rx="16" ry="16" />
<ellipse fill="#d6d5d5" fill-opacity="0.501961" cx="174" cy="34" rx="9" ry="9" />
<ellipse fill="#bdc8c4" fill-opacity="0.501961" cx="200" cy="37" rx="7" ry="7" />
<ellipse fill="#67bdc4" fill-opacity="0.501961" cx="208" cy="44" rx="8" ry="8" />
<ellipse fill="#bdb6b5" fill-opacity="0.501961" cx="172" cy="13" rx="8" ry="8" />
<ellipse fill="#c9edf0" fill-opacity="0.501961" cx="153" cy="78" rx="3" ry="3" />
<ellipse fill="#1e708b" fill-opacity="0.501961" cx="168" cy="166" rx="4" ry="4" />
<ellipse fill="#1c6e8a" fill-opacity="0.501961" cx="113" cy="82" rx="7" ry="7" />
<ellipse fill="#1b586d" fill-opacity="0.501961" cx="234" cy="26" rx="9" ry="9" />
<ellipse fill="#43a6be" fill-opacity="0.501961" cx="142" cy="159" rx="3" ry="3" />
<ellipse fill="#50b8d1" fill-opacity="0.501961" cx="186" cy="83" rx="12" ry="12" />
<ellipse fill="#29616e" fill-opacity="0.501961" cx="228" cy="5" rx="11" ry="11" />
<ellipse fill="#000d16" fill-opacity="0.501961" cx="0" cy="0" rx="22" ry="22" />
<ellipse fill="#b3b1ad" fill-opacity="0.501961" cx="147" cy="6" rx="6" ry="6" />
<ellipse fill="#023a50" fill-opacity="0.501961" cx="200" cy="5" rx="4" ry="4" />
<ellipse fill="#b3c0bd" fill-opacity="0.501961" cx="186" cy="25" rx="8" ry="8" />
<ellipse fill="#2c839d" fill-opacity="0.501961" cx="3" cy="91" rx="3" ry="3" />
<ellipse fill="#52bed7" fill-opacity="0.501961" cx="139" cy="59" rx="9" ry="9" />
<ellipse fill="#5dafbc" fill-opacity="0.501961" cx="185" cy="35" rx="3" ry="3" />
<ellipse fill="#e5e4e1" fill-opacity="0.501961" cx="176" cy="164" rx="2" ry="2" />
<ellipse fill="#03293f" fill-opacity="0.501961" cx="36" cy="23" rx="14" ry="14" />
<ellipse fill="#002133" fill-opacity="0.501961" cx="155" cy="191" rx="7" ry="7" />
<ellipse fill="#0e5777" fill-opacity="0.501961" cx="65" cy="121" rx="18" ry="18" />
<ellipse fill="#1d6786" fill-opacity="0.501961" cx="13" cy="104" rx="6" ry="6" />
<ellipse fill="#17637d" fill-opacity="0.501961" cx="195" cy="165" rx="5" ry="5" />
<ellipse fill="#2e87a2" fill-opacity="0.501961" cx="196" cy="27" rx="4" ry="4" />
<ellipse fill="#4babc0" fill-opacity="0.501961" cx="172" cy="46" rx="3" ry="3" />
<ellipse fill="#94aca3" fill-opacity="0.501961" cx="204" cy="12" rx="4" ry="4" />
<ellipse fill="#4295ad" fill-opacity="0.501961" cx="119" cy="17" rx="8" ry="8" />
<ellipse fill="#00111a" fill-opacity="0.501961" cx="184" cy="191" rx="9" ry="9" />
<ellipse fill="#d2f8f6" fill-opacity="0.501961" cx="172" cy="81" rx="2" ry="2" />
<ellipse fill="#227593" fill-opacity="0.501961" cx="94" cy="36" rx="10" ry="10" />
<ellipse fill="#03324f" fill-opacity="0.501961" cx="32" cy="99" rx="8" ry="8" />
<ellipse fill="#032639" fill-opacity="0.501961" cx="0" cy="65" rx="19" ry="19" />
<ellipse fill="#27809e" fill-opacity="0.501961" cx="187" cy="159" rx="4" ry="4" />
<ellipse fill="#41a8c4" fill-opacity="0.501961" cx="115" cy="55" rx="11" ry="11" />
<ellipse fill="#358096" fill-opacity="0.501961" cx="226" cy="35" rx="11" ry="11" />
<ellipse fill="#8db1af" fill-opacity="0.501961" cx="208" cy="24" rx="8" ry="8" />
<ellipse fill="#124c5e" fill-opacity="0.501961" cx="255" cy="127" rx="17" ry="17" />
<ellipse fill="#559ca4" fill-opacity="0.501961" cx="165" cy="4" rx="5" ry="5" />
<ellipse fill="#001822" fill-opacity="0.501961" cx="227" cy="191" rx="12" ry="12" />
<ellipse fill="#3aa1c1" fill-opacity="0.501961" cx="128" cy="72" rx="9" ry="9" />
<ellipse fill="#3291b0" fill-opacity="0.501961" cx="164" cy="115" rx="12" ry="12" />
<ellipse fill="#86e0e8" fill-opacity="0.501961" cx="176" cy="67" rx="8" ry="8" />
<ellipse fill="#3488a2" fill-opacity="0.501961" cx="223" cy="63" rx="8" ry="8" />
<ellipse fill="#afeaed" fill-opacity="0.501961" cx="125" cy="81" rx="2" ry="2" />
<ellipse fill="#216375" fill-opacity="0.501961" cx="168" cy="189" rx="3" ry="3" />
<ellipse fill="#3796b0" fill-opacity="0.501961" cx="144" cy="81" rx="8" ry="8" />
<ellipse fill="#001427" fill-opacity="0.501961" cx="159" cy="167" rx="4" ry="4" />
<ellipse fill="#07334b" fill-opacity="0.501961" cx="62" cy="5" rx="14" ry="14" />
<ellipse fill="#d7ebe9" fill-opacity="0.501961" cx="148" cy="157" rx="2" ry="2" />
<ellipse fill="#00172a" fill-opacity="0.501961" cx="201" cy="161" rx="3" ry="3" />
<ellipse fill="#73d0db" fill-opacity="0.501961" cx="190" cy="62" rx="7" ry="7" />
<ellipse fill="#001427" fill-opacity="0.501961" cx="243" cy="11" rx="4" ry="4" />
<ellipse fill="#4b8fa5" fill-opacity="0.501961" cx="144" cy="134" rx="6" ry="6" />
<ellipse fill="#00131c" fill-opacity="0.501961" cx="0" cy="159" rx="14" ry="14" />
<ellipse fill="#2f8192" fill-opacity="0.501961" cx="193" cy="176" rx="2" ry="2" />
<ellipse fill="#1c6c86" fill-opacity="0.501961" cx="108" cy="130" rx="15" ry="15" />
<ellipse fill="#3c9cb5" fill-opacity="0.501961" cx="159" cy="87" rx="8" ry="8" />
<ellipse fill="#4c8e97" fill-opacity="0.501961" cx="219" cy="14" rx="10" ry="10" />
<ellipse fill="#4db5d1" fill-opacity="0.501961" cx="170" cy="90" rx="9" ry="9" />
<ellipse fill="#016990" fill-opacity="0.501961" cx="145" cy="160" rx="2" ry="2" />
<ellipse fill="#3895b0" fill-opacity="0.501961" cx="132" cy="106" rx="11" ry="11" />
<ellipse fill="#4e6c7b" fill-opacity="0.501961" cx="14" cy="21" rx="2" ry="2" />
<ellipse fill="#2b87a8" fill-opacity="0.501961" cx="100" cy="85" rx="8" ry="8" />
<ellipse fill="#85e2e3" fill-opacity="0.501961" cx="149" cy="42" rx="3" ry="3" />
<ellipse fill="#10556e" fill-opacity="0.501961" cx="118" cy="152" rx="8" ry="8" />
<ellipse fill="#51b3c7" fill-opacity="0.501961" cx="73" cy="61" rx="2" ry="2" />
<ellipse fill="#084760" fill-opacity="0.501961" cx="57" cy="159" rx="7" ry="7" />
<ellipse fill="#287b95" fill-opacity="0.501961" cx="142" cy="7" rx="2" ry="2" />
<ellipse fill="#d0dddd" fill-opacity="0.501961" cx="188" cy="155" rx="2" ry="2" />
<ellipse fill="#07425d" fill-opacity="0.501961" cx="40" cy="123" rx="18" ry="18" />
<ellipse fill="#083e5a" fill-opacity="0.501961" cx="50" cy="42" rx="13" ry="13" />
<ellipse fill="#1f657f" fill-opacity="0.501961" cx="247" cy="67" rx="13" ry="13" />
<ellipse fill="#5bcde3" fill-opacity="0.501961" cx="138" cy="88" rx="3" ry="3" />
<ellipse fill="#446e7c" fill-opacity="0.501961" cx="7" cy="73" rx="2" ry="2" />
<ellipse fill="#174d61" fill-opacity="0.501961" cx="255" cy="31" rx="13" ry="13" />
<ellipse fill="#145d78" fill-opacity="0.501961" cx="157" cy="161" rx="4" ry="4" />
<ellipse fill="#5ba4ac" fill-opacity="0.501961" cx="10" cy="88" rx="3" ry="3" />
<ellipse fill="#ffffff" fill-opacity="0.501961" cx="131" cy="90" rx="1" ry="1" />
<ellipse fill="#0a4c6e" fill-opacity="0.501961" cx="55" cy="106" rx="12" ry="12" />
<ellipse fill="#0e5a77" fill-opacity="0.501961" cx="85" cy="137" rx="15" ry="15" />
<ellipse fill="#d9e0de" fill-opacity="0.501961" cx="147" cy="35" rx="7" ry="7" />
<ellipse fill="#00354b" fill-opacity="0.501961" cx="129" cy="172" rx="8" ry="8" />
<ellipse fill="#66c7d5" fill-opacity="0.501961" cx="170" cy="41" rx="2" ry="2" />
<ellipse fill="#567b93" fill-opacity="0.501961" cx="26" cy="50" rx="2" ry="2" />
<ellipse fill="#ba9a8f" fill-opacity="0.501961" cx="191" cy="0" rx="3" ry="3" />
<ellipse fill="#0b4e6b" fill-opacity="0.501961" cx="97" cy="155" rx="12" ry="12" />
<ellipse fill="#002a41" fill-opacity="0.501961" cx="218" cy="0" rx="3" ry="3" />
<ellipse fill="#f4d5c1" fill-opacity="0.501961" cx="21" cy="100" rx="2" ry="2" />
<ellipse fill="#000d0c" fill-opacity="0.501961" cx="4" cy="98" rx="3" ry="3" />
<ellipse fill="#001e2c" fill-opacity="0.501961" cx="149" cy="169" rx="5" ry="5" />
<ellipse fill="#78c3c4" fill-opacity="0.501961" cx="156" cy="23" rx="3" ry="3" />
<ellipse fill="#66d3e2" fill-opacity="0.501961" cx="160" cy="63" rx="9" ry="9" />
<ellipse fill="#12566a" fill-opacity="0.501961" cx="146" cy="184" rx="3" ry="3" />
<ellipse fill="#398590" fill-opacity="0.501961" cx="13" cy="92" rx="3" ry="3" />
<ellipse fill="#022e46" fill-opacity="0.501961" cx="0" cy="84" rx="7" ry="7" />
<ellipse fill="#3898b4" fill-opacity="0.501961" cx="206" cy="87" rx="8" ry="8" />
<ellipse fill="#1c738f" fill-opacity="0.501961" cx="186" cy="132" rx="11" ry="11" />
<ellipse fill="#73bacd" fill-opacity="0.501961" cx="142" cy="124" rx="2" ry="2" />
<ellipse fill="#001424" fill-opacity="0.501961" cx="103" cy="191" rx="5" ry="5" />
<ellipse fill="#b0e8e6" fill-opacity="0.501961" cx="195" cy="85" rx="2" ry="2" />
<ellipse fill="#165b78" fill-opacity="0.501961" cx="198" cy="18" rx="3" ry="3" />
<ellipse fill="#7d8e90" fill-opacity="0.501961" cx="236" cy="16" rx="3" ry="3" />
<ellipse fill="#b9dcd5" fill-opacity="0.501961" cx="22" cy="102" rx="2" ry="2" />
<ellipse fill="#257792" fill-opacity="0.501961" cx="217" cy="112" rx="10" ry="10" />
<ellipse fill="#529eb1" fill-opacity="0.501961" cx="128" cy="127" rx="3" ry="3" />
<ellipse fill="#d9c7c4" fill-opacity="0.501961" cx="188" cy="30" rx="4" ry="4" />
<ellipse fill="#0a4355" fill-opacity="0.501961" cx="10" cy="123" rx="6" ry="6" />
<ellipse fill="#002636" fill-opacity="0.501961" cx="19" cy="128" rx="6" ry="6" />
<ellipse fill="#61bece" fill-opacity="0.501961" cx="151" cy="159" rx="2" ry="2" />
<ellipse fill="#deb4aa" fill-opacity="0.501961" cx="214" cy="28" rx="2" ry="2" />
<ellipse fill="#00111f" fill-opacity="0.501961" cx="203" cy="172" rx="4" ry="4" />
<ellipse fill="#0c526d" fill-opacity="0.501961" cx="73" cy="158" rx="4" ry="4" />
<ellipse fill="#73d9e5" fill-opacity="0.501961" cx="110" cy="157" rx="1" ry="1" />
<ellipse fill="#97e5e4" fill-opacity="0.501961" cx="159" cy="50" rx="6" ry="6" />
<ellipse fill="#c6c1c2" fill-opacity="0.501961" cx="166" cy="19" rx="9" ry="9" />
<ellipse fill="#4daec4" fill-opacity="0.501961" cx="180" cy="45" rx="3" ry="3" />
<ellipse fill="#003447" fill-opacity="0.501961" cx="210" cy="0" rx="6" ry="6" />
<ellipse fill="#d8c6a0" fill-opacity="0.501961" cx="158" cy="178" rx="1" ry="1" />
<ellipse fill="#196c88" fill-opacity="0.501961" cx="82" cy="121" rx="11" ry="11" />
<ellipse fill="#2a8aa9" fill-opacity="0.501961" cx="181" cy="111" rx="8" ry="8" />
<ellipse fill="#002835" fill-opacity="0.501961" cx="238" cy="177" rx="9" ry="9" />
<ellipse fill="#4aaac5" fill-opacity="0.501961" cx="120" cy="36" rx="9" ry="9" />
<ellipse fill="#033040" fill-opacity="0.501961" cx="180" cy="175" rx="9" ry="9" />
<ellipse fill="#4cabc3" fill-opacity="0.501961" cx="204" cy="73" rx="9" ry="9" />
<ellipse fill="#2a7188" fill-opacity="0.501961" cx="235" cy="43" rx="9" ry="9" />
<ellipse fill="#22525f" fill-opacity="0.501961" cx="238" cy="0" rx="8" ry="8" />
<ellipse fill="#1b7090" fill-opacity="0.501961" cx="83" cy="76" rx="10" ry="10" />
<ellipse fill="#73bec0" fill-opacity="0.501961" cx="134" cy="11" rx="5" ry="5" />
<ellipse fill="#1a6c82" fill-opacity="0.501961" cx="126" cy="94" rx="3" ry="3" />
<ellipse fill="#c5b1a5" fill-opacity="0.501961" cx="192" cy="6" rx="2" ry="2" />
<ellipse fill="#64b7bc" fill-opacity="0.501961" cx="154" cy="16" rx="3" ry="3" />
<ellipse fill="#033147" fill-opacity="0.501961" cx="78" cy="174" rx="12" ry="12" />
<ellipse fill="#6acada" fill-opacity="0.501961" cx="130" cy="45" rx="7" ry="7" />
<ellipse fill="#44a0b5" fill-opacity="0.501961" cx="135" cy="163" rx="2" ry="2" />
<ellipse fill="#237e9b" fill-opacity="0.501961" cx="96" cy="108" rx="13" ry="13" />
<ellipse fill="#0f5575" fill-opacity="0.501961" cx="61" cy="60" rx="9" ry="9" />
<ellipse fill="#e7fffc" fill-opacity="0.501961" cx="130" cy="89" rx="1" ry="1" />
<ellipse fill="#5ca3ac" fill-opacity="0.501961" cx="195" cy="31" rx="3" ry="3" />
<ellipse fill="#00283b" fill-opacity="0.501961" cx="9" cy="145" rx="6" ry="6" />
<ellipse fill="#0f4960" fill-opacity="0.501961" cx="181" cy="165" rx="4" ry="4" />
<ellipse fill="#48a1b3" fill-opacity="0.501961" cx="125" cy="87" rx="5" ry="5" />
<ellipse fill="#c4e6e2" fill-opacity="0.501961" cx="166" cy="48" rx="5" ry="5" />
<ellipse fill="#5fb5b7" fill-opacity="0.501961" cx="183" cy="14" rx="3" ry="3" />
<ellipse fill="#256882" fill-opacity="0.501961" cx="110" cy="1" rx="8" ry="8" />
<ellipse fill="#6b928b" fill-opacity="0.501961" cx="233" cy="9" rx="2" ry="2" />
<ellipse fill="#589db4" fill-opacity="0.501961" cx="115" cy="127" rx="2" ry="2" />
<ellipse fill="#3591ad" fill-opacity="0.501961" cx="149" cy="111" rx="13" ry="13" />
<ellipse fill="#256d85" fill-opacity="0.501961" cx="5" cy="91" rx="4" ry="4" />
<ellipse fill="#254950" fill-opacity="0.501961" cx="23" cy="98" rx="2" ry="2" />
<ellipse fill="#2d91af" fill-opacity="0.501961" cx="22" cy="104" rx="2" ry="2" />
<ellipse fill="#00121d" fill-opacity="0.501961" cx="32" cy="191" rx="12" ry="12" />
<ellipse fill="#3295b2" fill-opacity="0.501961" cx="123" cy="76" rx="5" ry="5" />
<ellipse fill="#55a3b6" fill-opacity="0.501961" cx="188" cy="35" rx="2" ry="2" />
<ellipse fill="#032e3b" fill-opacity="0.501961" cx="255" cy="163" rx="11" ry="11" />
<ellipse fill="#58abb7" fill-opacity="0.501961" cx="235" cy="56" rx="2" ry="2" />
<ellipse fill="#226c89" fill-opacity="0.501961" cx="100" cy="21" rx="8" ry="8" />
<ellipse fill="#a0d5d1" fill-opacity="0.501961" cx="195" cy="47" rx="5" ry="5" />
<ellipse fill="#2a86a6" fill-opacity="0.501961" cx="104" cy="75" rx="10" ry="10" />
<ellipse fill="#0d4c63" fill-opacity="0.501961" cx="164" cy="174" rx="6" ry="6" />
<ellipse fill="#105566" fill-opacity="0.501961" cx="194" cy="149" rx="6" ry="6" />
<ellipse fill="#d8d4d2" fill-opacity="0.501961" cx="186" cy="41" rx="5" ry="5" />
<ellipse fill="#a5cec8" fill-opacity="0.501961" cx="138" cy="19" rx="4" ry="4" />
<ellipse fill="#b6b4ad" fill-opacity="0.501961" cx="143" cy="4" rx="3" ry="3" />
<ellipse fill="#b3b6b2" fill-opacity="0.501961" cx="204" cy="22" rx="3" ry="3" />
<ellipse fill="#7ea5a2" fill-opacity="0.501961" cx="209" cy="15" rx="6" ry="6" />
<ellipse fill="#1f6e83" fill-opacity="0.501961" cx="178" cy="150" rx="8" ry="8" />
<ellipse fill="#206a7f" fill-opacity="0.501961" cx="201" cy="151" rx="4" ry="4" />
</g>
</svg>