<svg xmlns="http://www.w3.org/2000/svg" version="1.1" width="1024" height="768">
<rect x="0" y="0" width="1024" height="768" fill="#729cb8" />
<g transform="scale(4.000000) translate(0.5 0.5)">
<polygon fill="#e1fcff" fill-opacity="0.501961" points="195,-16 271,135 -16,92" />
<polygon fill="#001333" fill-opacity="0.501961" points="6,207 217,158 -16,110" />
<polygon fill="#0051be" fill-opacity="0.501961" points="118,5 5,73 -15,-16" />
<polygon fill="#ffffff" fill-opacity="0.501961" points="89,98 271,99 258,52" />
<polygon fill="#0d1527" fill-opacity="0.501961" points="88,76 159,67 148,86" />
<polygon fill="#1b354d" fill-opacity="0.501961" points="113,153 181,196 200,116" />
<polygon fill="#ffefee" fill-opacity="0.501961" points="217,133 182,196 271,127" />
<polygon fill="#152551" fill-opacity="0.501961" points="258,140 256,206 173,207" />
<polygon fill="#4a99c0" fill-opacity="0.501961" points="-16,103 70,157 269,104" />
<polygon fill="#74bddf" fill-opacity="0.501961" points="-16,80 132,-8 271,37" />
<polygon fill="#173141" fill-opacity="0.501961" points="125,189 3,207 -16,136" />
<polygon fill="#ffffff" fill-opacity="0.501961" points="116,204 131,175 171,190" />
<polygon fill="#fffff9" fill-opacity="0.501961" points="11,81 173,83 98,107" />
<polygon fill="#0b6db8" fill-opacity="0.501961" points="-16,-13 104,18 41,68" />
<polygon fill="#d6e4ed" fill-opacity="0.501961" points="97,25 141,-16 189,11" />
<polygon fill="#00001d" fill-opacity="0.501961" points="251,97 242,107 271,116" />
<polygon fill="#32516f" fill-opacity="0.501961" points="59,207 213,152 178,123" />
<polygon fill="#296b9e" fill-opacity="0.501961" points="114,119 -8,107 18,157" />
<polygon fill="#f6fbf9" fill-opacity="0.501961" points="271,84 170,109 150,70" />
<polygon fill="#4da0d1" fill-opacity="0.501961" points="270,74 196,37 252,-16" />
<polygon fill="#233445" fill-opacity="0.501961" points="87,74 127,86 131,72" />
<polygon fill="#d6dee3" fill-opacity="0.501961" points="110,79 -10,74 -3,105" />
<polygon fill="#315575" fill-opacity="0.501961" points="41,142 180,192 211,143" />
<polygon fill="#9dbfcf" fill-opacity="0.501961" points="238,157 150,106 198,95" />
<polygon fill="#a5cde0" fill-opacity="0.501961" points="177,-3 112,71 259,70" />
<polygon fill="#0954ac" fill-opacity="0.501961" points="87,-16 -16,68 -13,-11" />
<polygon fill="#3e515d" fill-opacity="0.501961" points="90,72 94,89 80,66" />
<polygon fill="#ffffff" fill-opacity="0.501961" points="143,207 145,188 174,186" />
<polygon fill="#2c2a23" fill-opacity="0.501961" points="184,143 146,172 160,137" />
<polygon fill="#faf5f4" fill-opacity="0.501961" points="139,207 113,202 134,172" />
<polygon fill="#449dca" fill-opacity="0.501961" points="-16,75 83,50 120,-16" />
<polygon fill="#f5e4e7" fill-opacity="0.501961" points="269,113 231,110 193,133" />
<polygon fill="#355077" fill-opacity="0.501961" points="231,148 240,141 215,141" />
<polygon fill="#d6d8e1" fill-opacity="0.501961" points="215,173 175,199 213,146" />
<polygon fill="#ffffff" fill-opacity="0.501961" points="271,141 270,116 229,142" />
<polygon fill="#558db1" fill-opacity="0.501961" points="177,137 99,123 24,153" />
<polygon fill="#f2fafb" fill-opacity="0.501961" points="145,80 146,102 81,93" />
<polygon fill="#516c93" fill-opacity="0.501961" points="265,137 240,163 205,173" />
<polygon fill="#7bb7d4" fill-opacity="0.501961" points="252,66 185,50 206,-16" />
<polygon fill="#8ec9da" fill-opacity="0.501961" points="138,103 118,136 237,105" />
<polygon fill="#294f6c" fill-opacity="0.501961" points="134,158 -16,142 116,207" />
<polygon fill="#93c7d8" fill-opacity="0.501961" points="122,105 66,96 28,115" />
<polygon fill="#23282b" fill-opacity="0.501961" points="-16,179 58,174 27,207" />
<polygon fill="#e9f6f7" fill-opacity="0.501961" points="86,100 50,73 88,74" />
<polygon fill="#5277a0" fill-opacity="0.501961" points="224,126 174,151 192,179" />
<polygon fill="#26547c" fill-opacity="0.501961" points="200,123 221,119 213,116" />
<polygon fill="#e0eff3" fill-opacity="0.501961" points="171,60 135,106 241,106" />
<polygon fill="#374c5c" fill-opacity="0.501961" points="177,122 205,126 154,140" />
<polygon fill="#75b9d5" fill-opacity="0.501961" points="106,53 20,72 132,8" />
<polygon fill="#d9d9e0" fill-opacity="0.501961" points="212,140 231,136 188,129" />
<polygon fill="#ffffff" fill-opacity="0.501961" points="109,77 95,103 101,77" />
<polygon fill="#3282bd" fill-opacity="0.501961" points="271,70 234,9 252,-16" />
<polygon fill="#334961" fill-opacity="0.501961" points="142,79 157,83 149,66" />
<polygon fill="#2669a5" fill-opacity="0.501961" points="69,192 87,207 127,166" />
<polygon fill="#2a3643" fill-opacity="0.501961" points="206,207 255,174 263,188" />
<polygon fill="#ebe1e8" fill-opacity="0.501961" points="165,203 118,207 147,177" />
<polygon fill="#00093f" fill-opacity="0.501961" points="271,114 247,122 271,104" />
<polygon fill="#465c86" fill-opacity="0.501961" points="236,123 217,134 224,124" />
<polygon fill="#dbdde6" fill-opacity="0.501961" points="205,149 205,176 228,148" />
<polygon fill="#194170" fill-opacity="0.501961" points="155,185 192,175 138,168" />
<polygon fill="#fefffd" fill-opacity="0.501961" points="150,81 148,98 208,86" />
<polygon fill="#dff4fa" fill-opacity="0.501961" points="139,60 113,71 145,70" />
<polygon fill="#172f46" fill-opacity="0.501961" points="126,84 135,80 106,73" />
<polygon fill="#5392bb" fill-opacity="0.501961" points="-14,103 9,126 67,100" />
<polygon fill="#dbe9ec" fill-opacity="0.501961" points="136,77 147,78 146,74" />
<polygon fill="#bac3d0" fill-opacity="0.501961" points="211,169 232,162 212,176" />
<polygon fill="#e4edee" fill-opacity="0.501961" points="271,95 233,102 244,70" />
<polygon fill="#f5ebef" fill-opacity="0.501961" points="238,114 223,135 260,112" />
<polygon fill="#5b7da5" fill-opacity="0.501961" points="223,207 229,175 170,196" />
<polygon fill="#8dbfd4" fill-opacity="0.501961" points="185,96 252,110 151,128" />
<polygon fill="#415360" fill-opacity="0.501961" points="86,70 93,89 93,72" />
<polygon fill="#1f7abe" fill-opacity="0.501961" points="-16,64 79,34 78,-16" />
<polygon fill="#396489" fill-opacity="0.501961" points="121,169 140,181 159,167" />
<polygon fill="#e6f0f2" fill-opacity="0.501961" points="88,71 44,98 83,100" />
<polygon fill="#3c5b82" fill-opacity="0.501961" points="229,178 230,150 271,198" />
<polygon fill="#2a5887" fill-opacity="0.501961" points="151,182 207,155 200,135" />
<polygon fill="#4a9dbf" fill-opacity="0.501961" points="143,107 64,112 128,134" />
<polygon fill="#89c1da" fill-opacity="0.501961" points="97,18 74,78 155,12" />
<polygon fill="#fffcf8" fill-opacity="0.501961" points="191,184 178,192 181,195" />
<polygon fill="#324355" fill-opacity="0.501961" points="130,74 108,83 108,76" />
<polygon fill="#797e9a" fill-opacity="0.501961" points="43,141 82,136 41,153" />
<polygon fill="#183048" fill-opacity="0.501961" points="147,66 146,87 151,76" />
<polygon fill="#2c6a92" fill-opacity="0.501961" points="153,137 105,157 57,145" />
<polygon fill="#dedfe3" fill-opacity="0.501961" points="204,133 234,122 205,124" />
<polygon fill="#2a3d49" fill-opacity="0.501961" points="53,156 106,171 81,182" />
<polygon fill="#88b7cf" fill-opacity="0.501961" points="-16,65 13,83 51,64" />
<polygon fill="#a0b5c7" fill-opacity="0.501961" points="241,158 253,147 253,152" />
<polygon fill="#eef5f7" fill-opacity="0.501961" points="100,98 145,93 91,78" />
<polygon fill="#29507c" fill-opacity="0.501961" points="219,129 212,135 206,133" />
<polygon fill="#f7ebec" fill-opacity="0.501961" points="267,105 231,151 255,142" />
<polygon fill="#acd5e5" fill-opacity="0.501961" points="171,40 74,67 245,67" />
<polygon fill="#051727" fill-opacity="0.501961" points="271,157 253,148 264,207" />
<polygon fill="#00132d" fill-opacity="0.501961" points="144,75 127,75 137,72" />
<polygon fill="#265886" fill-opacity="0.501961" points="26,154 63,118 -16,126" />
<polygon fill="#38404a" fill-opacity="0.501961" points="179,172 191,177 171,197" />
<polygon fill="#c7dbe8" fill-opacity="0.501961" points="124,-16 185,1 119,12" />
<polygon fill="#333a3c" fill-opacity="0.501961" points="173,125 189,147 192,135" />
<polygon fill="#939fb7" fill-opacity="0.501961" points="229,142 246,130 234,123" />
<polygon fill="#347ead" fill-opacity="0.501961" points="17,121 87,110 106,136" />
<polygon fill="#303b47" fill-opacity="0.501961" points="116,180 130,177 116,193" />
<polygon fill="#c4cdd9" fill-opacity="0.501961" points="231,154 188,168 214,150" />
<polygon fill="#7ea0ba" fill-opacity="0.501961" points="122,133 74,137 97,142" />
<polygon fill="#85b6d0" fill-opacity="0.501961" points="194,132 185,129 192,113" />
<polygon fill="#2d3336" fill-opacity="0.501961" points="169,160 187,136 135,171" />
<polygon fill="#417292" fill-opacity="0.501961" points="75,172 60,176 58,188" />
<polygon fill="#6da3cb" fill-opacity="0.501961" points="171,134 179,135 175,141" />
<polygon fill="#243e56" fill-opacity="0.501961" points="114,71 125,85 134,74" />
<polygon fill="#848c9c" fill-opacity="0.501961" points="243,145 237,143 242,138" />
<polygon fill="#1e3b66" fill-opacity="0.501961" points="249,113 249,100 271,98" />
<polygon fill="#91b5d4" fill-opacity="0.501961" points="125,174 134,174 127,180" />
<polygon fill="#ffffff" fill-opacity="0.501961" points="160,189 171,187 165,200" />
<polygon fill="#e6e7e8" fill-opacity="0.501961" points="207,173 181,190 195,174" />
<polygon fill="#3b5881" fill-opacity="0.501961" points="168,69 159,69 161,67" />
<polygon fill="#3c93c6" fill-opacity="0.501961" points="61,54 104,18 89,-16" />
<polygon fill="#d5e6ec" fill-opacity="0.501961" points="207,63 241,83 152,72" />
<polygon fill="#eeeef3" fill-opacity="0.501961" points="220,136 237,134 229,128" />
<polygon fill="#afdae4" fill-opacity="0.501961" points="123,96 154,104 103,106" />
<polygon fill="#6eaac7" fill-opacity="0.501961" points="68,99 42,119 29,100" />
<polygon fill="#183f5f" fill-opacity="0.501961" points="130,85 129,80 133,74" />
<polygon fill="#e9f3f4" fill-opacity="0.501961" points="97,77 89,105 108,77" />
<polygon fill="#bbd0da" fill-opacity="0.501961" points="-7,104 18,76 40,98" />
<polygon fill="#334a5e" fill-opacity="0.501961" points="92,74 93,70 81,71" />
<polygon fill="#b7dce9" fill-opacity="0.501961" points="131,72 143,56 79,68" />
<polygon fill="#e2e4e8" fill-opacity="0.501961" points="120,191 133,177 149,207" />
<polygon fill="#aacade" fill-opacity="0.501961" points="193,9 164,33 105,4" />
<polygon fill="#75b4d8" fill-opacity="0.501961" points="205,-9 202,33 236,-4" />
<polygon fill="#134da3" fill-opacity="0.501961" points="-14,50 40,-16 -16,-2" />
<polygon fill="#7cbad1" fill-opacity="0.501961" points="173,106 114,105 167,131" />
<polygon fill="#d3d7e0" fill-opacity="0.501961" points="252,108 221,118 226,126" />
<polygon fill="#1d406d" fill-opacity="0.501961" points="230,160 245,149 238,160" />
<polygon fill="#f3f6f7" fill-opacity="0.501961" points="199,130 224,118 214,130" />
<polygon fill="#6b9cb6" fill-opacity="0.501961" points="220,118 242,109 226,108" />
<polygon fill="#ffffff" fill-opacity="0.501961" points="145,81 133,82 146,92" />
<polygon fill="#dbecf1" fill-opacity="0.501961" points="92,102 87,73 69,71" />
<polygon fill="#5d86a3" fill-opacity="0.501961" points="196,148 175,151 205,138" />
<polygon fill="#17345c" fill-opacity="0.501961" points="153,67 146,67 146,75" />
<polygon fill="#283d4c" fill-opacity="0.501961" points="149,81 130,80 140,77" />
<polygon fill="#549bc6" fill-opacity="0.501961" points="224,32 262,48 227,-16" />
<polygon fill="#2d5174" fill-opacity="0.501961" points="41,145 2,130 -16,166" />
<polygon fill="#778fab" fill-opacity="0.501961" points="237,122 226,129 220,123" />
<polygon fill="#245982" fill-opacity="0.501961" points="50,183 88,184 91,203" />
<polygon fill="#98c7d7" fill-opacity="0.501961" points="65,111 52,99 97,102" />
<polygon fill="#f0f6f7" fill-opacity="0.501961" points="149,99 157,73 235,89" />
<polygon fill="#48688e" fill-opacity="0.501961" points="221,145 236,144 213,139" />
<polygon fill="#315881" fill-opacity="0.501961" points="210,142 197,134 187,168" />
<polygon fill="#13477e" fill-opacity="0.501961" points="227,127 221,133 209,133" />
<polygon fill="#385267" fill-opacity="0.501961" points="84,72 73,69 83,69" />
<polygon fill="#eff6f6" fill-opacity="0.501961" points="126,99 93,89 116,82" />
<polygon fill="#ffffff" fill-opacity="0.501961" points="147,179 156,187 141,182" />
<polygon fill="#99abb6" fill-opacity="0.501961" points="182,172 185,173 191,168" />
<polygon fill="#56a2cc" fill-opacity="0.501961" points="84,36 108,-16 117,4" />
<polygon fill="#344b5c" fill-opacity="0.501961" points="98,162 118,173 134,142" />
<polygon fill="#8f9eb5" fill-opacity="0.501961" points="213,182 224,160 197,182" />
<polygon fill="#d7eef4" fill-opacity="0.501961" points="110,70 93,74 93,69" />
<polygon fill="#273b49" fill-opacity="0.501961" points="74,171 -8,166 -16,191" />
<polygon fill="#3a5f8c" fill-opacity="0.501961" points="190,192 196,201 221,171" />
<polygon fill="#c9ced6" fill-opacity="0.501961" points="215,129 219,121 231,124" />
<polygon fill="#d1d8e1" fill-opacity="0.501961" points="204,136 230,141 225,133" />
<polygon fill="#549fc8" fill-opacity="0.501961" points="18,69 -16,60 55,56" />
<polygon fill="#97c5dc" fill-opacity="0.501961" points="129,42 183,25 242,67" />
<polygon fill="#d7e9f0" fill-opacity="0.501961" points="151,70 195,68 159,83" />
<polygon fill="#c1d0da" fill-opacity="0.501961" points="140,74 146,77 132,76" />
<polygon fill="#a9c9d8" fill-opacity="0.501961" points="257,92 221,106 236,110" />
<polygon fill="#acd2e0" fill-opacity="0.501961" points="88,73 59,81 41,66" />
<polygon fill="#c0dfe8" fill-opacity="0.501961" points="182,107 167,95 219,102" />
<polygon fill="#1f486d" fill-opacity="0.501961" points="219,118 209,118 211,121" />
<polygon fill="#e0e1e8" fill-opacity="0.501961" points="209,155 231,155 214,164" />
<polygon fill="#6a7987" fill-opacity="0.501961" points="189,204 183,207 186,184" />
<polygon fill="#183048" fill-opacity="0.501961" points="138,71 149,75 129,74" />
<polygon fill="#21324e" fill-opacity="0.501961" points="243,109 238,109 246,106" />
<polygon fill="#7892b2" fill-opacity="0.501961" points="213,183 203,192 228,181" />
<polygon fill="#82bcd2" fill-opacity="0.501961" points="209,122 218,107 172,109" />
<polygon fill="#73b7d6" fill-opacity="0.501961" points="121,23 107,48 58,59" />
<polygon fill="#4b7aa2" fill-opacity="0.501961" points="204,161 189,179 185,174" />
<polygon fill="#cee4e8" fill-opacity="0.501961" points="114,77 110,77 112,78" />
<polygon fill="#508eb6" fill-opacity="0.501961" points="-11,100 24,121 59,112" />
<polygon fill="#a6c7d6" fill-opacity="0.501961" points="-11,106 16,90 51,91" />
<polygon fill="#6fadce" fill-opacity="0.501961" points="214,19 271,61 209,39" />
<polygon fill="#1e4776" fill-opacity="0.501961" points="159,186 195,162 152,175" />
<polygon fill="#6486a5" fill-opacity="0.501961" points="240,133 231,136 233,139" />
<polygon fill="#326191" fill-opacity="0.501961" points="196,154 158,176 172,155" />
<polygon fill="#263748" fill-opacity="0.501961" points="129,77 122,83 109,80" />
<polygon fill="#dadce3" fill-opacity="0.501961" points="200,181 185,195 194,175" />
<polygon fill="#252521" fill-opacity="0.501961" points="256,181 258,175 247,179" />
<polygon fill="#345b7b" fill-opacity="0.501961" points="151,172 141,181 124,146" />
<polygon fill="#c6cad8" fill-opacity="0.501961" points="138,181 126,193 155,187" />
<polygon fill="#465a8e" fill-opacity="0.501961" points="250,119 244,124 252,122" />
<polygon fill="#496d8f" fill-opacity="0.501961" points="84,149 18,154 47,140" />
<polygon fill="#6dabc6" fill-opacity="0.501961" points="135,107 108,140 160,126" />
<polygon fill="#1d4b72" fill-opacity="0.501961" points="201,128 196,123 186,126" />
<polygon fill="#a6b8cb" fill-opacity="0.501961" points="214,145 204,149 204,163" />
<polygon fill="#28456a" fill-opacity="0.501961" points="228,170 218,180 221,167" />
<polygon fill="#557fa0" fill-opacity="0.501961" points="180,132 176,143 170,139" />
<polygon fill="#e5e4e9" fill-opacity="0.501961" points="231,148 239,150 244,142" />
<polygon fill="#232729" fill-opacity="0.501961" points="175,132 183,126 172,128" />
<polygon fill="#203852" fill-opacity="0.501961" points="246,101 260,101 245,108" />
<polygon fill="#bedae7" fill-opacity="0.501961" points="143,66 194,69 182,57" />
<polygon fill="#489abf" fill-opacity="0.501961" points="159,135 140,144 153,129" />
<polygon fill="#23282c" fill-opacity="0.501961" points="246,186 244,207 238,185" />
<polygon fill="#1f1c19" fill-opacity="0.501961" points="152,203 175,201 175,188" />
<polygon fill="#e4f1f4" fill-opacity="0.501961" points="84,98 127,85 159,99" />
<polygon fill="#ffffff" fill-opacity="0.501961" points="130,183 139,182 130,178" />
<polygon fill="#f7f2f4" fill-opacity="0.501961" points="253,121 270,131 240,139" />
<polygon fill="#2d3941" fill-opacity="0.501961" points="138,173 141,161 169,159" />
<polygon fill="#3c6c94" fill-opacity="0.501961" points="140,177 147,159 148,174" />
<polygon fill="#285270" fill-opacity="0.501961" points="27,157 129,172 82,148" />
<polygon fill="#2f4353" fill-opacity="0.501961" points="149,85 145,78 147,77" />
<polygon fill="#b6d3e0" fill-opacity="0.501961" points="243,76 271,60 188,64" />
<polygon fill="#a8d5e4" fill-opacity="0.501961" points="78,70 108,52 104,68" />
<polygon fill="#738b9a" fill-opacity="0.501961" points="75,172 67,174 75,176" />
<polygon fill="#91bdd7" fill-opacity="0.501961" points="194,-1 183,39 229,-16" />
<polygon fill="#304b5e" fill-opacity="0.501961" points="175,124 162,147 159,139" />
<polygon fill="#ebeeef" fill-opacity="0.501961" points="263,99 226,84 271,70" />
<polygon fill="#7388a6" fill-opacity="0.501961" points="240,149 229,165 224,161" />
<polygon fill="#eef3f4" fill-opacity="0.501961" points="97,102 90,86 40,84" />
<polygon fill="#d0d6e0" fill-opacity="0.501961" points="207,178 197,170 221,170" />
<polygon fill="#1e3343" fill-opacity="0.501961" points="109,73 108,82 112,80" />
<polygon fill="#c9cbd8" fill-opacity="0.501961" points="213,146 226,144 215,156" />
<polygon fill="#196bb9" fill-opacity="0.501961" points="48,35 -16,51 66,-14" />
<polygon fill="#eaf6f8" fill-opacity="0.501961" points="204,95 150,81 147,100" />
<polygon fill="#92c6d7" fill-opacity="0.501961" points="61,98 84,111 107,107" />
<polygon fill="#2f86c1" fill-opacity="0.501961" points="56,55 72,-3 109,-16" />
<polygon fill="#293d4a" fill-opacity="0.501961" points="97,169 68,186 77,168" />
<polygon fill="#1e3449" fill-opacity="0.501961" points="144,72 154,81 150,72" />
<polygon fill="#97cae0" fill-opacity="0.501961" points="107,17 81,40 140,12" />
<polygon fill="#428eb3" fill-opacity="0.501961" points="77,133 88,111 121,130" />
<polygon fill="#30608d" fill-opacity="0.501961" points="116,170 132,173 142,159" />
<polygon fill="#d4e3e9" fill-opacity="0.501961" points="142,78 140,76 134,77" />
<polygon fill="#2e3434" fill-opacity="0.501961" points="124,175 116,182 124,183" />
<polygon fill="#3b678c" fill-opacity="0.501961" points="142,137 147,152 156,144" />
<polygon fill="#284463" fill-opacity="0.501961" points="199,162 203,154 193,160" />
<polygon fill="#8c99a1" fill-opacity="0.501961" points="122,186 135,207 119,207" />
<polygon fill="#c6dbe4" fill-opacity="0.501961" points="21,99 70,98 50,90" />
<polygon fill="#f5f3f4" fill-opacity="0.501961" points="239,125 249,113 259,112" />
<polygon fill="#cccddc" fill-opacity="0.501961" points="235,115 248,113 247,108" />
<polygon fill="#3c84ac" fill-opacity="0.501961" points="120,136 116,150 138,136" />
<polygon fill="#82b9d0" fill-opacity="0.501961" points="239,109 212,105 188,124" />
<polygon fill="#232e38" fill-opacity="0.501961" points="-16,193 22,181 68,194" />
<polygon fill="#dddbe1" fill-opacity="0.501961" points="28,86 -16,97 -16,85" />
<polygon fill="#5d7ca7" fill-opacity="0.501961" points="246,181 246,185 259,181" />
<polygon fill="#2e4968" fill-opacity="0.501961" points="145,67 151,78 149,69" />
<polygon fill="#f8faf9" fill-opacity="0.501961" points="146,82 114,89 134,91" />
<polygon fill="#d4e6ee" fill-opacity="0.501961" points="150,62 140,71 119,71" />
<polygon fill="#7e829e" fill-opacity="0.501961" points="36,151 46,145 57,147" />
<polygon fill="#fefcf6" fill-opacity="0.501961" points="203,129 196,129 192,132" />
<polygon fill="#284159" fill-opacity="0.501961" points="111,71 129,81 134,73" />
<polygon fill="#222932" fill-opacity="0.501961" points="271,137 265,166 252,166" />
<polygon fill="#fffbf8" fill-opacity="0.501961" points="168,188 168,207 155,186" />
<polygon fill="#517198" fill-opacity="0.501961" points="226,186 222,178 246,165" />
<polygon fill="#265274" fill-opacity="0.501961" points="203,120 200,123 206,120" />
<polygon fill="#3d8fc1" fill-opacity="0.501961" points="-16,53 -3,67 40,54" />
<polygon fill="#f1ebe8" fill-opacity="0.501961" points="167,128 164,130 162,128" />
<polygon fill="#fbf5f4" fill-opacity="0.501961" points="208,189 202,195 203,202" />
<polygon fill="#305a8c" fill-opacity="0.501961" points="223,128 220,133 230,126" />
<polygon fill="#374752" fill-opacity="0.501961" points="185,129 191,145 177,144" />
<polygon fill="#8b9bb1" fill-opacity="0.501961" points="219,170 204,175 230,157" />
<polygon fill="#2d4665" fill-opacity="0.501961" points="244,103 271,122 271,93" />
<polygon fill="#2b353b" fill-opacity="0.501961" points="176,149 160,165 150,150" />
<polygon fill="#ffffff" fill-opacity="0.501961" points="209,131 204,128 200,131" />
<polygon fill="#8ac0d4" fill-opacity="0.501961" points="172,128 153,118 170,106" />
<polygon fill="#bcc6d4" fill-opacity="0.501961" points="216,153 214,137 210,158" />
<polygon fill="#25344d" fill-opacity="0.501961" points="236,127 238,127 236,130" />
<polygon fill="#283642" fill-opacity="0.501961" points="184,172 184,177 168,179" />
<polygon fill="#f9f9f9" fill-opacity="0.501961" points="173,186 159,207 145,200" />
<polygon fill="#bebacc" fill-opacity="0.501961" points="248,130 233,122 249,125" />
<polygon fill="#3a6288" fill-opacity="0.501961" points="109,182 116,165 118,207" />
<polygon fill="#a7d2e3" fill-opacity="0.501961" points="107,73 101,59 155,54" />
<polygon fill="#4d6e89" fill-opacity="0.501961" points="185,132 178,137 193,134" />
<polygon fill="#dfe3e7" fill-opacity="0.501961" points="240,120 241,124 230,129" />
<polygon fill="#427dac" fill-opacity="0.501961" points="28,120 4,103 -16,123" />
<polygon fill="#6ea8c4" fill-opacity="0.501961" points="206,116 214,123 199,119" />
<polygon fill="#8ec3db" fill-opacity="0.501961" points="136,9 151,49 111,57" />
<polygon fill="#e5e8ef" fill-opacity="0.501961" points="186,188 138,207 164,207" />
<polygon fill="#264d78" fill-opacity="0.501961" points="165,185 171,157 152,183" />
<polygon fill="#386284" fill-opacity="0.501961" points="99,167 117,163 124,153" />
<polygon fill="#306f9d" fill-opacity="0.501961" points="51,140 72,116 40,119" />
<polygon fill="#243a49" fill-opacity="0.501961" points="35,181 38,191 68,176" />
<polygon fill="#2d4250" fill-opacity="0.501961" points="116,179 114,188 99,195" />
<polygon fill="#8fa9c0" fill-opacity="0.501961" points="204,167 206,159 195,166" />
<polygon fill="#a6b1c0" fill-opacity="0.501961" points="204,182 205,178 190,181" />
<polygon fill="#294a60" fill-opacity="0.501961" points="40,177 115,160 10,154" />
<polygon fill="#c7d7e5" fill-opacity="0.501961" points="207,-16 102,-16 166,11" />
<polygon fill="#dbe9ee" fill-opacity="0.501961" points="244,86 243,99 199,100" />
<polygon fill="#36567e" fill-opacity="0.501961" points="232,197 233,154 240,178" />
<polygon fill="#86bbd4" fill-opacity="0.501961" points="249,50 271,69 206,48" />
<polygon fill="#3c6f96" fill-opacity="0.501961" points="165,133 160,144 165,141" />
<polygon fill="#305586" fill-opacity="0.501961" points="251,166 259,152 219,171" />
<polygon fill="#3b5e7f" fill-opacity="0.501961" points="224,143 229,148 231,143" />
<polygon fill="#f7f1ef" fill-opacity="0.501961" points="192,131 191,130 193,129" />
<polygon fill="#2c5580" fill-opacity="0.501961" points="195,155 208,152 189,150" />
<polygon fill="#f1eff0" fill-opacity="0.501961" points="249,137 271,131 245,147" />
<polygon fill="#bcc7d7" fill-opacity="0.501961" points="230,139 227,143 217,135" />
<polygon fill="#293b49" fill-opacity="0.501961" points="113,166 125,162 129,152" />
<polygon fill="#3680bb" fill-opacity="0.501961" points="271,-16 247,4 263,43" />
<polygon fill="#5c85a4" fill-opacity="0.501961" points="192,141 203,143 194,146" />
<polygon fill="#384b58" fill-opacity="0.501961" points="136,169 136,180 143,169" />
<polygon fill="#f4f9f8" fill-opacity="0.501961" points="145,94 118,87 162,86" />
<polygon fill="#294052" fill-opacity="0.501961" points="89,70 90,80 93,72" />
<polygon fill="#266498" fill-opacity="0.501961" points="104,175 69,207 109,207" />
<polygon fill="#3a6e99" fill-opacity="0.501961" points="136,177 133,162 138,169" />
</g>
</svg>