<svg xmlns="http://www.w3.org/2000/svg" version="1.1" width="1024" height="680">
<rect x="0" y="0" width="1024" height="680" fill="#b9bdbf" />
<g transform="scale(4.000000) translate(0.5 0.5)">
<g transform="translate(180 96) rotate(90) scale(227 16)"><rect fill="#232227" fill-opacity="0.501961" x="-0.5" y="-0.5" width="1" height="1" /></g>
<g transform="translate(89 35) rotate(182) scale(168 46)"><rect fill="#ffffff" fill-opacity="0.501961" x="-0.5" y="-0.5" width="1" height="1" /></g>
<g transform="translate(68 56) rotate(69) scale(26 21)"><rect fill="#000000" fill-opacity="0.501961" x="-0.5" y="-0.5" width="1" height="1" /></g>
<g transform="translate(238 38) rotate(270) scale(57 99)"><rect fill="#ffffff" fill-opacity="0.501961" x="-0.5" y="-0.5" width="1" height="1" /></g>
<g transform="translate(64 154) rotate(281) scale(66 23)"><rect fill="#4b4c50" fill-opacity="0.501961" x="-0.5" y="-0.5" width="1" height="1" /></g>
<g transform="translate(171 3) rotate(90) scale(12 169)"><rect fill="#434646" fill-opacity="0.501961" x="-0.5" y="-0.5" width="1" height="1" /></g>
<g transform="translate(205 169) rotate(176) scale(238 45)"><rect fill="#6d6d72" fill-opacity="0.501961" x="-0.5" y="-0.5" width="1" height="1" /></g>
<g transform="translate(34 0) rotate(271) scale(20 105)"><rect fill="#4d5151" fill-opacity="0.501961" x="-0.5" y="-0.5" width="1" height="1" /></g>
<g transform="translate(26 57) rotate(282) scale(82 67)"><rect fill="#ecf0f2" fill-opacity="0.501961" x="-0.5" y="-0.5" width="1" height="1" /></g>
<g transform="translate(125 67) rotate(89) scale(112 79)"><rect fill="#e3e7ea" fill-opacity="0.501961" x="-0.5" y="-0.5" width="1" height="1" /></g>
<g transform="translate(75 65) rotate(30) scale(14 11)"><rect fill="#000000" fill-opacity="0.501961" x="-0.5" y="-0.5" width="1" height="1" /></g>
<g transform="translate(54 75) rotate(148) scale(31 2)"><rect fill="#000102" fill-opacity="0.501961" x="-0.5" y="-0.5" width="1" height="1" /></g>
<g transform="translate(29 169) rotate(290) scale(44 109)"><rect fill="#8e8f94" fill-opacity="0.501961" x="-0.5" y="-0.5" width="1" height="1" /></g>
<g transform="translate(69 48) rotate(13) scale(7 25)"><rect fill="#000000" fill-opacity="0.501961" x="-0.5" y="-0.5" width="1" height="1" /></g>
<g transform="translate(136 161) rotate(352) scale(17 11)"><rect fill="#ffffff" fill-opacity="0.501961" x="-0.5" y="-0.5" width="1" height="1" /></g>
<g transform="translate(79 50) rotate(15) scale(13 14)"><rect fill="#f9feff" fill-opacity="0.501961" x="-0.5" y="-0.5" width="1" height="1" /></g>
<g transform="translate(159 137) rotate(15) scale(15 81)"><rect fill="#8c8f93" fill-opacity="0.501961" x="-0.5" y="-0.5" width="1" height="1" /></g>
<g transform="translate(67 92) rotate(310) scale(38 33)"><rect fill="#dde1e3" fill-opacity="0.501961" x="-0.5" y="-0.5" width="1" height="1" /></g>
<g transform="translate(179 150) rotate(87) scale(47 17)"><rect fill="#404345" fill-opacity="0.501961" x="-0.5" y="-0.5" width="1" height="1" /></g>
<g transform="translate(232 125) rotate(163) scale(54 28)"><rect fill="#97999d" fill-opacity="0.501961" x="-0.5" y="-0.5" width="1" height="1" /></g>
<g transform="translate(74 129) rotate(141) scale(34 12)"><rect fill="#515356" fill-opacity="0.501961" x="-0.5" y="-0.5" width="1" height="1" /></g>
<g transform="translate(8 113) rotate(194) scale(82 10)"><rect fill="#f4f8f8" fill-opacity="0.501961" x="-0.5" y="-0.5" width="1" height="1" /></g>
<g transform="translate(221 69) rotate(152) scale(61 36)"><rect fill="#d4d9db" fill-opacity="0.501961" x="-0.5" y="-0.5" width="1" height="1" /></g>
<g transform="translate(107 135) rotate(193) scale(21 36)"><rect fill="#ebefef" fill-opacity="0.501961" x="-0.5" y="-0.5" width="1" height="1" /></g>
<g transform="translate(236 169) rotate(245) scale(17 14)"><rect fill="#fbffff" fill-opacity="0.501961" x="-0.5" y="-0.5" width="1" height="1" /></g>
<g transform="translate(72 27) rotate(8) scale(105 22)"><rect fill="#f3f7f8" fill-opacity="0.501961" x="-0.5" y="-0.5" width="1" height="1" /></g>
<g transform="translate(122 141) rotate(23) scale(84 9)"><rect fill="#979a9e" fill-opacity="0.501961" x="-0.5" y="-0.5" width="1" height="1" /></g>
<g transform="translate(48 148) rotate(294) scale(13 19)"><rect fill="#f6faf9" fill-opacity="0.501961" x="-0.5" y="-0.5" width="1" height="1" /></g>
<g transform="translate(251 100) rotate(81) scale(7 40)"><rect fill="#ffffff" fill-opacity="0.501961" x="-0.5" y="-0.5" width="1" height="1" /></g>
<g transform="translate(83 139) rotate(76) scale(7 23)"><rect fill="#ffffff" fill-opacity="0.501961" x="-0.5" y="-0.5" width="1" height="1" /></g>
<g transform="translate(114 106) rotate(160) scale(75 13)"><rect fill="#aeb2b4" fill-opacity="0.501961" x="-0.5" y="-0.5" width="1" height="1" /></g>
<g transform="translate(81 80) rotate(201) scale(7 4)"><rect fill="#000000" fill-opacity="0.501961" x="-0.5" y="-0.5" width="1" height="1" /></g>
<g transform="translate(70 61) rotate(162) scale(21 4)"><rect fill="#000000" fill-opacity="0.501961" x="-0.5" y="-0.5" width="1" height="1" /></g>
<g transform="translate(232 31) rotate(61) scale(14 90)"><rect fill="#faffff" fill-opacity="0.501961" x="-0.5" y="-0.5" width="1" height="1" /></g>
<g transform="translate(216 130) rotate(353) scale(35 5)"><rect fill="#eff3f3" fill-opacity="0.501961" x="-0.5" y="-0.5" width="1" height="1" /></g>
<g transform="translate(76 110) rotate(-19) scale(23 6)"><rect fill="#ffffff" fill-opacity="0.501961" x="-0.5" y="-0.5" width="1" height="1" /></g>
<g transform="translate(80 160) rotate(348) scale(27 2)"><rect fill="#ffffff" fill-opacity="0.501961" x="-0.5" y="-0.5" width="1" height="1" /></g>
<g transform="translate(65 57) rotate(22) scale(5 29)"><rect fill="#020101" fill-opacity="0.501961" x="-0.5" y="-0.5" width="1" height="1" /></g>
<g transform="translate(55 53) rotate(128) scale(13 2)"><rect fill="#000000" fill-opacity="0.501961" x="-0.5" y="-0.5" width="1" height="1" /></g>
<g transform="translate(61 124) rotate(119) scale(1 44)"><rect fill="#4d4f52" fill-opacity="0.501961" x="-0.5" y="-0.5" width="1" height="1" /></g>
<g transform="translate(127 114) rotate(224) scale(35 13)"><rect fill="#a3a7a9" fill-opacity="0.501961" x="-0.5" y="-0.5" width="1" height="1" /></g>
<g transform="translate(245 156) rotate(121) scale(14 45)"><rect fill="#737378" fill-opacity="0.501961" x="-0.5" y="-0.5" width="1" height="1" /></g>
<g transform="translate(174 41) rotate(179) scale(6 108)"><rect fill="#989b9e" fill-opacity="0.501961" x="-0.5" y="-0.5" width="1" height="1" /></g>
<g transform="translate(24 164) rotate(30) scale(23 8)"><rect fill="#eaefee" fill-opacity="0.501961" x="-0.5" y="-0.5" width="1" height="1" /></g>
<g transform="translate(143 110) rotate(108) scale(11 23)"><rect fill="#ffffff" fill-opacity="0.501961" x="-0.5" y="-0.5" width="1" height="1" /></g>
<g transform="translate(199 114) rotate(370) scale(21 6)"><rect fill="#ffffff" fill-opacity="0.501961" x="-0.5" y="-0.5" width="1" height="1" /></g>
<g transform="translate(69 73) rotate(305) scale(11 11)"><rect fill="#ffffff" fill-opacity="0.501961" x="-0.5" y="-0.5" width="1" height="1" /></g>
<g transform="translate(65 138) rotate(78) scale(28 7)"><rect fill="#3d4042" fill-opacity="0.501961" x="-0.5" y="-0.5" width="1" height="1" /></g>
<g transform="translate(209 169) rotate(176) scale(31 13)"><rect fill="#616165" fill-opacity="0.501961" x="-0.5" y="-0.5" width="1" height="1" /></g>
<g transform="translate(215 154) rotate(9) scale(19 1)"><rect fill="#ffffff" fill-opacity="0.501961" x="-0.5" y="-0.5" width="1" height="1" /></g>
<g transform="translate(80 61) rotate(71) scale(6 6)"><rect fill="#000000" fill-opacity="0.501961" x="-0.5" y="-0.5" width="1" height="1" /></g>
<g transform="translate(7 169) rotate(221) scale(25 18)"><rect fill="#707074" fill-opacity="0.501961" x="-0.5" y="-0.5" width="1" height="1" /></g>
<g transform="translate(255 133) rotate(40) scale(38 9)"><rect fill="#7d7d82" fill-opacity="0.501961" x="-0.5" y="-0.5" width="1" height="1" /></g>
<g transform="translate(13 133) rotate(71) scale(6 11)"><rect fill="#ffffff" fill-opacity="0.501961" x="-0.5" y="-0.5" width="1" height="1" /></g>
<g transform="translate(255 54) rotate(107) scale(6 118)"><rect fill="#bcc0c4" fill-opacity="0.501961" x="-0.5" y="-0.5" width="1" height="1" /></g>
<g transform="translate(210 67) rotate(178) scale(56 1)"><rect fill="#878a8e" fill-opacity="0.501961" x="-0.5" y="-0.5" width="1" height="1" /></g>
<g transform="translate(38 134) rotate(189) scale(36 12)"><rect fill="#979b9e" fill-opacity="0.501961" x="-0.5" y="-0.5" width="1" height="1" /></g>
<g transform="translate(106 123) rotate(279) scale(10 23)"><rect fill="#ffffff" fill-opacity="0.501961" x="-0.5" y="-0.5" width="1" height="1" /></g>
<g transform="translate(89 144) rotate(233) scale(8 34)"><rect fill="#999ca0" fill-opacity="0.501961" x="-0.5" y="-0.5" width="1" height="1" /></g>
<g transform="translate(136 92) rotate(112) scale(14 71)"><rect fill="#bbbfc2" fill-opacity="0.501961" x="-0.5" y="-0.5" width="1" height="1" /></g>
<g transform="translate(49 35) rotate(151) scale(28 33)"><rect fill="#e8ecec" fill-opacity="0.501961" x="-0.5" y="-0.5" width="1" height="1" /></g>
<g transform="translate(107 146) rotate(87) scale(8 26)"><rect fill="#fafefd" fill-opacity="0.501961" x="-0.5" y="-0.5" width="1" height="1" /></g>
<g transform="translate(85 23) rotate(0) scale(163 26)"><rect fill="#eaeeef" fill-opacity="0.501961" x="-0.5" y="-0.5" width="1" height="1" /></g>
<g transform="translate(43 83) rotate(202) scale(4 10)"><rect fill="#454849" fill-opacity="0.501961" x="-0.5" y="-0.5" width="1" height="1" /></g>
<g transform="translate(216 29) rotate(111) scale(10 50)"><rect fill="#feffff" fill-opacity="0.501961" x="-0.5" y="-0.5" width="1" height="1" /></g>
<g transform="translate(167 146) rotate(239) scale(8 3)"><rect fill="#ffffff" fill-opacity="0.501961" x="-0.5" y="-0.5" width="1" height="1" /></g>
<g transform="translate(57 142) rotate(87) scale(27 7)"><rect fill="#abafb2" fill-opacity="0.501961" x="-0.5" y="-0.5" width="1" height="1" /></g>
<g transform="translate(123 140) rotate(244) scale(24 16)"><rect fill="#989a9e" fill-opacity="0.501961" x="-0.5" y="-0.5" width="1" height="1" /></g>
<g transform="translate(249 64) rotate(106) scale(12 39)"><rect fill="#fafefe" fill-opacity="0.501961" x="-0.5" y="-0.5" width="1" height="1" /></g>
<g transform="translate(126 7) rotate(90) scale(6 82)"><rect fill="#8a8f90" fill-opacity="0.501961" x="-0.5" y="-0.5" width="1" height="1" /></g>
<g transform="translate(77 64) rotate(232) scale(8 15)"><rect fill="#1d1e1f" fill-opacity="0.501961" x="-0.5" y="-0.5" width="1" height="1" /></g>
<g transform="translate(17 49) rotate(208) scale(84 10)"><rect fill="#f3f6f7" fill-opacity="0.501961" x="-0.5" y="-0.5" width="1" height="1" /></g>
<g transform="translate(227 0) rotate(99) scale(15 71)"><rect fill="#636667" fill-opacity="0.501961" x="-0.5" y="-0.5" width="1" height="1" /></g>
<g transform="translate(68 44) rotate(141) scale(15 1)"><rect fill="#040606" fill-opacity="0.501961" x="-0.5" y="-0.5" width="1" height="1" /></g>
<g transform="translate(102 39) rotate(46) scale(31 58)"><rect fill="#e4e7e8" fill-opacity="0.501961" x="-0.5" y="-0.5" width="1" height="1" /></g>
<g transform="translate(138 134) rotate(25) scale(18 13)"><rect fill="#e3e7e7" fill-opacity="0.501961" x="-0.5" y="-0.5" width="1" height="1" /></g>
<g transform="translate(20 122) rotate(173) scale(23 8)"><rect fill="#a0a4a8" fill-opacity="0.501961" x="-0.5" y="-0.5" width="1" height="1" /></g>
<g transform="translate(204 135) rotate(-3) scale(10 7)"><rect fill="#ffffff" fill-opacity="0.501961" x="-0.5" y="-0.5" width="1" height="1" /></g>
<g transform="translate(4 153) rotate(258) scale(4 7)"><rect fill="#ffffff" fill-opacity="0.501961" x="-0.5" y="-0.5" width="1" height="1" /></g>
<g transform="translate(68 121) rotate(137) scale(12 8)"><rect fill="#babfc2" fill-opacity="0.501961" x="-0.5" y="-0.5" width="1" height="1" /></g>
<g transform="translate(247 140) rotate(235) scale(13 8)"><rect fill="#e0e3e4" fill-opacity="0.501961" x="-0.5" y="-0.5" width="1" height="1" /></g>
<g transform="translate(202 141) rotate(27) scale(70 3)"><rect fill="#7c7d81" fill-opacity="0.501961" x="-0.5" y="-0.5" width="1" height="1" /></g>
<g transform="translate(201 147) rotate(129) scale(6 24)"><rect fill="#ccd0d1" fill-opacity="0.501961" x="-0.5" y="-0.5" width="1" height="1" /></g>
<g transform="translate(108 96) rotate(191) scale(22 4)"><rect fill="#ffffff" fill-opacity="0.501961" x="-0.5" y="-0.5" width="1" height="1" /></g>
<g transform="translate(58 58) rotate(111) scale(13 4)"><rect fill="#ffffff" fill-opacity="0.501961" x="-0.5" y="-0.5" width="1" height="1" /></g>
<g transform="translate(202 93) rotate(342) scale(29 4)"><rect fill="#f4f8f8" fill-opacity="0.501961" x="-0.5" y="-0.5" width="1" height="1" /></g>
<g transform="translate(255 35) rotate(209) scale(80 6)"><rect fill="#c5c8cd" fill-opacity="0.501961" x="-0.5" y="-0.5" width="1" height="1" /></g>
<g transform="translate(139 160) rotate(104) scale(5 15)"><rect fill="#ffffff" fill-opacity="0.501961" x="-0.5" y="-0.5" width="1" height="1" /></g>
<g transform="translate(77 68) rotate(163) scale(1 25)"><rect fill="#292a2b" fill-opacity="0.501961" x="-0.5" y="-0.5" width="1" height="1" /></g>
<g transform="translate(147 121) rotate(350) scale(47 10)"><rect fill="#a6aaad" fill-opacity="0.501961" x="-0.5" y="-0.5" width="1" height="1" /></g>
<g transform="translate(12 147) rotate(200) scale(97 10)"><rect fill="#8f9195" fill-opacity="0.501961" x="-0.5" y="-0.5" width="1" height="1" /></g>
<g transform="translate(78 133) rotate(19) scale(8 8)"><rect fill="#57595b" fill-opacity="0.501961" x="-0.5" y="-0.5" width="1" height="1" /></g>
<g transform="translate(86 151) rotate(29) scale(24 9)"><rect fill="#95969a" fill-opacity="0.501961" x="-0.5" y="-0.5" width="1" height="1" /></g>
<g transform="translate(46 91) rotate(16) scale(65 10)"><rect fill="#bdc1c4" fill-opacity="0.501961" x="-0.5" y="-0.5" width="1" height="1" /></g>
<g transform="translate(27 66) rotate(269) scale(1 56)"><rect fill="#878b8e" fill-opacity="0.501961" x="-0.5" y="-0.5" width="1" height="1" /></g>
<g transform="translate(225 74) rotate(202) scale(12 5)"><rect fill="#ffffff" fill-opacity="0.501961" x="-0.5" y="-0.5" width="1" height="1" /></g>
<g transform="translate(94 73) rotate(185) scale(28 12)"><rect fill="#dee1e3" fill-opacity="0.501961" x="-0.5" y="-0.5" width="1" height="1" /></g>
<g transform="translate(60 49) rotate(342) scale(10 1)"><rect fill="#000202" fill-opacity="0.501961" x="-0.5" y="-0.5" width="1" height="1" /></g>
<g transform="translate(245 86) rotate(181) scale(40 17)"><rect fill="#a3a7ab" fill-opacity="0.501961" x="-0.5" y="-0.5" width="1" height="1" /></g>
<g transform="translate(216 109) rotate(220) scale(9 8)"><rect fill="#fdffff" fill-opacity="0.501961" x="-0.5" y="-0.5" width="1" height="1" /></g>
<g transform="translate(52 138) rotate(63) scale(31 2)"><rect fill="#7b7f81" fill-opacity="0.501961" x="-0.5" y="-0.5" width="1" height="1" /></g>
<g transform="translate(158 72) rotate(91) scale(26 29)"><rect fill="#d7dadd" fill-opacity="0.501961" x="-0.5" y="-0.5" width="1" height="1" /></g>
<g transform="translate(221 136) rotate(30) scale(61 6)"><rect fill="#9da0a3" fill-opacity="0.501961" x="-0.5" y="-0.5" width="1" height="1" /></g>
<g transform="translate(142 67) rotate(272) scale(1 81)"><rect fill="#9b9ea1" fill-opacity="0.501961" x="-0.5" y="-0.5" width="1" height="1" /></g>
<g transform="translate(68 146) rotate(70) scale(25 4)"><rect fill="#444649" fill-opacity="0.501961" x="-0.5" y="-0.5" width="1" height="1" /></g>
<g transform="translate(152 149) rotate(84) scale(18 21)"><rect fill="#909195" fill-opacity="0.501961" x="-0.5" y="-0.5" width="1" height="1" /></g>
<g transform="translate(14 169) rotate(60) scale(2 43)"><rect fill="#7c7e82" fill-opacity="0.501961" x="-0.5" y="-0.5" width="1" height="1" /></g>
<g transform="translate(52 77) rotate(240) scale(1 24)"><rect fill="#242527" fill-opacity="0.501961" x="-0.5" y="-0.5" width="1" height="1" /></g>
<g transform="translate(203 99) rotate(245) scale(35 5)"><rect fill="#a3a7ab" fill-opacity="0.501961" x="-0.5" y="-0.5" width="1" height="1" /></g>
<g transform="translate(2 118) rotate(136) scale(36 4)"><rect fill="#a0a4a8" fill-opacity="0.501961" x="-0.5" y="-0.5" width="1" height="1" /></g>
<g transform="translate(75 52) rotate(161) scale(5 8)"><rect fill="#ffffff" fill-opacity="0.501961" x="-0.5" y="-0.5" width="1" height="1" /></g>
<g transform="translate(17 113) rotate(172) scale(14 7)"><rect fill="#ffffff" fill-opacity="0.501961" x="-0.5" y="-0.5" width="1" height="1" /></g>
<g transform="translate(75 139) rotate(259) scale(1 11)"><rect fill="#ffffff" fill-opacity="0.501961" x="-0.5" y="-0.5" width="1" height="1" /></g>
<g transform="translate(249 40) rotate(231) scale(7 46)"><rect fill="#bdc2c5" fill-opacity="0.501961" x="-0.5" y="-0.5" width="1" height="1" /></g>
<g transform="translate(39 122) rotate(264) scale(8 19)"><rect fill="#ffffff" fill-opacity="0.501961" x="-0.5" y="-0.5" width="1" height="1" /></g>
<g transform="translate(209 78) rotate(114) scale(5 17)"><rect fill="#ffffff" fill-opacity="0.501961" x="-0.5" y="-0.5" width="1" height="1" /></g>
<g transform="translate(52 59) rotate(0) scale(2 4)"><rect fill="#2f3232" fill-opacity="0.501961" x="-0.5" y="-0.5" width="1" height="1" /></g>
<g transform="translate(202 145) rotate(356) scale(31 4)"><rect fill="#8a8b8f" fill-opacity="0.501961" x="-0.5" y="-0.5" width="1" height="1" /></g>
<g transform="translate(36 165) rotate(139) scale(11 4)"><rect fill="#eef2f3" fill-opacity="0.501961" x="-0.5" y="-0.5" width="1" height="1" /></g>
<g transform="translate(72 110) rotate(251) scale(7 21)"><rect fill="#fbffff" fill-opacity="0.501961" x="-0.5" y="-0.5" width="1" height="1" /></g>
<g transform="translate(81 94) rotate(365) scale(25 24)"><rect fill="#c0c4c7" fill-opacity="0.501961" x="-0.5" y="-0.5" width="1" height="1" /></g>
<g transform="translate(180 69) rotate(180) scale(16 47)"><rect fill="#818285" fill-opacity="0.501961" x="-0.5" y="-0.5" width="1" height="1" /></g>
<g transform="translate(90 114) rotate(116) scale(29 6)"><rect fill="#b4b8bb" fill-opacity="0.501961" x="-0.5" y="-0.5" width="1" height="1" /></g>
<g transform="translate(181 10) rotate(2) scale(15 23)"><rect fill="#6d6e71" fill-opacity="0.501961" x="-0.5" y="-0.5" width="1" height="1" /></g>
<g transform="translate(48 146) rotate(258) scale(14 11)"><rect fill="#f8fcfc" fill-opacity="0.501961" x="-0.5" y="-0.5" width="1" height="1" /></g>
<g transform="translate(195 19) rotate(266) scale(13 13)"><rect fill="#ffffff" fill-opacity="0.501961" x="-0.5" y="-0.5" width="1" height="1" /></g>
<g transform="translate(41 61) rotate(22) scale(38 10)"><rect fill="#e3e6e8" fill-opacity="0.501961" x="-0.5" y="-0.5" width="1" height="1" /></g>
<g transform="translate(144 95) rotate(268) scale(20 49)"><rect fill="#bcc0c3" fill-opacity="0.501961" x="-0.5" y="-0.5" width="1" height="1" /></g>
<g transform="translate(95 169) rotate(74) scale(21 66)"><rect fill="#8d8e93" fill-opacity="0.501961" x="-0.5" y="-0.5" width="1" height="1" /></g>
<g transform="translate(49 115) rotate(123) scale(1 23)"><rect fill="#6a6e71" fill-opacity="0.501961" x="-0.5" y="-0.5" width="1" height="1" /></g>
<g transform="translate(36 51) rotate(70) scale(6 66)"><rect fill="#dcdee1" fill-opacity="0.501961" x="-0.5" y="-0.5" width="1" height="1" /></g>
<g transform="translate(47 101) rotate(345) scale(12 4)"><rect fill="#ffffff" fill-opacity="0.501961" x="-0.5" y="-0.5" width="1" height="1" /></g>
<g transform="translate(145 59) rotate(-7) scale(25 12)"><rect fill="#f1f4f5" fill-opacity="0.501961" x="-0.5" y="-0.5" width="1" height="1" /></g>
<g transform="translate(222 129) rotate(277) scale(2 17)"><rect fill="#ffffff" fill-opacity="0.501961" x="-0.5" y="-0.5" width="1" height="1" /></g>
<g transform="translate(68 48) rotate(39) scale(3 19)"><rect fill="#1c1d1d" fill-opacity="0.501961" x="-0.5" y="-0.5" width="1" height="1" /></g>
<g transform="translate(35 108) rotate(365) scale(12 21)"><rect fill="#b3b7bb" fill-opacity="0.501961" x="-0.5" y="-0.5" width="1" height="1" /></g>
<g transform="translate(77 124) rotate(110) scale(21 2)"><rect fill="#57595d" fill-opacity="0.501961" x="-0.5" y="-0.5" width="1" height="1" /></g>
<g transform="translate(51 73) rotate(236) scale(3 13)"><rect fill="#dde0e3" fill-opacity="0.501961" x="-0.5" y="-0.5" width="1" height="1" /></g>
<g transform="translate(74 74) rotate(351) scale(6 9)"><rect fill="#f5fafa" fill-opacity="0.501961" x="-0.5" y="-0.5" width="1" height="1" /></g>
<g transform="translate(19 161) rotate(-32) scale(9 5)"><rect fill="#ffffff" fill-opacity="0.501961" x="-0.5" y="-0.5" width="1" height="1" /></g>
<g transform="translate(83 66) rotate(-1) scale(37 1)"><rect fill="#5e6163" fill-opacity="0.501961" x="-0.5" y="-0.5" width="1" height="1" /></g>
<g transform="translate(181 128) rotate(85) scale(22 19)"><rect fill="#646669" fill-opacity="0.501961" x="-0.5" y="-0.5" width="1" height="1" /></g>
<g transform="translate(2 29) rotate(347) scale(41 33)"><rect fill="#dde0e2" fill-opacity="0.501961" x="-0.5" y="-0.5" width="1" height="1" /></g>
<g transform="translate(227 108) rotate(149) scale(8 26)"><rect fill="#a0a4a8" fill-opacity="0.501961" x="-0.5" y="-0.5" width="1" height="1" /></g>
<g transform="translate(85 136) rotate(120) scale(10 6)"><rect fill="#ffffff" fill-opacity="0.501961" x="-0.5" y="-0.5" width="1" height="1" /></g>
<g transform="translate(199 47) rotate(6) scale(20 10)"><rect fill="#ffffff" fill-opacity="0.501961" x="-0.5" y="-0.5" width="1" height="1" /></g>
<g transform="translate(25 169) rotate(359) scale(50 1)"><rect fill="#707276" fill-opacity="0.501961" x="-0.5" y="-0.5" width="1" height="1" /></g>
<g transform="translate(39 84) rotate(172) scale(6 22)"><rect fill="#dcdee1" fill-opacity="0.501961" x="-0.5" y="-0.5" width="1" height="1" /></g>
<g transform="translate(72 41) rotate(245) scale(7 5)"><rect fill="#27272a" fill-opacity="0.501961" x="-0.5" y="-0.5" width="1" height="1" /></g>
<g transform="translate(61 53) rotate(376) scale(1 6)"><rect fill="#ffffff" fill-opacity="0.501961" x="-0.5" y="-0.5" width="1" height="1" /></g>
<g transform="translate(16 48) rotate(157) scale(17 12)"><rect fill="#ffffff" fill-opacity="0.501961" x="-0.5" y="-0.5" width="1" height="1" /></g>
<g transform="translate(87 21) rotate(163) scale(47 9)"><rect fill="#f8fbfb" fill-opacity="0.501961" x="-0.5" y="-0.5" width="1" height="1" /></g>
<g transform="translate(255 160) rotate(81) scale(31 16)"><rect fill="#77777b" fill-opacity="0.501961" x="-0.5" y="-0.5" width="1" height="1" /></g>
<g transform="translate(195 115) rotate(190) scale(7 8)"><rect fill="#ffffff" fill-opacity="0.501961" x="-0.5" y="-0.5" width="1" height="1" /></g>
<g transform="translate(76 64) rotate(56) scale(8 15)"><rect fill="#222223" fill-opacity="0.501961" x="-0.5" y="-0.5" width="1" height="1" /></g>
<g transform="translate(138 137) rotate(319) scale(40 1)"><rect fill="#9b9ea1" fill-opacity="0.501961" x="-0.5" y="-0.5" width="1" height="1" /></g>
<g transform="translate(55 128) rotate(72) scale(2 9)"><rect fill="#ffffff" fill-opacity="0.501961" x="-0.5" y="-0.5" width="1" height="1" /></g>
<g transform="translate(62 86) rotate(90) scale(1 152)"><rect fill="#a1a5a8" fill-opacity="0.501961" x="-0.5" y="-0.5" width="1" height="1" /></g>
<g transform="translate(238 168) rotate(78) scale(2 15)"><rect fill="#e8ecef" fill-opacity="0.501961" x="-0.5" y="-0.5" width="1" height="1" /></g>
<g transform="translate(58 157) rotate(84) scale(9 21)"><rect fill="#9fa1a4" fill-opacity="0.501961" x="-0.5" y="-0.5" width="1" height="1" /></g>
<g transform="translate(148 73) rotate(93) scale(6 17)"><rect fill="#f6f9f8" fill-opacity="0.501961" x="-0.5" y="-0.5" width="1" height="1" /></g>
<g transform="translate(238 108) rotate(178) scale(42 1)"><rect fill="#888a8d" fill-opacity="0.501961" x="-0.5" y="-0.5" width="1" height="1" /></g>
<g transform="translate(66 151) rotate(201) scale(18 1)"><rect fill="#404346" fill-opacity="0.501961" x="-0.5" y="-0.5" width="1" height="1" /></g>
<g transform="translate(157 166) rotate(160) scale(28 9)"><rect fill="#7e7e83" fill-opacity="0.501961" x="-0.5" y="-0.5" width="1" height="1" /></g>
<g transform="translate(195 160) rotate(217) scale(7 1)"><rect fill="#f1f6f6" fill-opacity="0.501961" x="-0.5" y="-0.5" width="1" height="1" /></g>
<g transform="translate(31 95) rotate(0) scale(12 4)"><rect fill="#ffffff" fill-opacity="0.501961" x="-0.5" y="-0.5" width="1" height="1" /></g>
<g transform="translate(81 81) rotate(77) scale(1 10)"><rect fill="#1c1f20" fill-opacity="0.501961" x="-0.5" y="-0.5" width="1" height="1" /></g>
<g transform="translate(17 0) rotate(97) scale(19 36)"><rect fill="#777b7c" fill-opacity="0.501961" x="-0.5" y="-0.5" width="1" height="1" /></g>
<g transform="translate(18 153) rotate(235) scale(6 34)"><rect fill="#989a9d" fill-opacity="0.501961" x="-0.5" y="-0.5" width="1" height="1" /></g>
<g transform="translate(212 154) rotate(265) scale(4 8)"><rect fill="#eff5f6" fill-opacity="0.501961" x="-0.5" y="-0.5" width="1" height="1" /></g>
<g transform="translate(243 101) rotate(91) scale(3 30)"><rect fill="#fcffff" fill-opacity="0.501961" x="-0.5" y="-0.5" width="1" height="1" /></g>
<g transform="translate(81 159) rotate(249) scale(2 23)"><rect fill="#e5eaeb" fill-opacity="0.501961" x="-0.5" y="-0.5" width="1" height="1" /></g>
<g transform="translate(116 60) rotate(280) scale(7 24)"><rect fill="#edf0f1" fill-opacity="0.501961" x="-0.5" y="-0.5" width="1" height="1" /></g>
<g transform="translate(249 19) rotate(183) scale(25 11)"><rect fill="#feffff" fill-opacity="0.501961" x="-0.5" y="-0.5" width="1" height="1" /></g>
<g transform="translate(191 169) rotate(356) scale(6 7)"><rect fill="#dee3e6" fill-opacity="0.501961" x="-0.5" y="-0.5" width="1" height="1" /></g>
<g transform="translate(60 68) rotate(110) scale(14 1)"><rect fill="#252628" fill-opacity="0.501961" x="-0.5" y="-0.5" width="1" height="1" /></g>
<g transform="translate(26 19) rotate(161) scale(21 10)"><rect fill="#feffff" fill-opacity="0.501961" x="-0.5" y="-0.5" width="1" height="1" /></g>
<g transform="translate(5 142) rotate(158) scale(32 1)"><rect fill="#7c7c80" fill-opacity="0.501961" x="-0.5" y="-0.5" width="1" height="1" /></g>
<g transform="translate(249 67) rotate(266) scale(1 71)"><rect fill="#a8acae" fill-opacity="0.501961" x="-0.5" y="-0.5" width="1" height="1" /></g>
<g transform="translate(250 138) rotate(68) scale(1 17)"><rect fill="#808386" fill-opacity="0.501961" x="-0.5" y="-0.5" width="1" height="1" /></g>
<g transform="translate(167 147) rotate(349) scale(5 8)"><rect fill="#fdffff" fill-opacity="0.501961" x="-0.5" y="-0.5" width="1" height="1" /></g>
<g transform="translate(215 90) rotate(253) scale(3 17)"><rect fill="#ffffff" fill-opacity="0.501961" x="-0.5" y="-0.5" width="1" height="1" /></g>
<g transform="translate(214 25) rotate(246) scale(12 51)"><rect fill="#d8dcdf" fill-opacity="0.501961" x="-0.5" y="-0.5" width="1" height="1" /></g>
<g transform="translate(88 85) rotate(128) scale(20 8)"><rect fill="#dfe2e4" fill-opacity="0.501961" x="-0.5" y="-0.5" width="1" height="1" /></g>
<g transform="translate(90 155) rotate(316) scale(5 32)"><rect fill="#929498" fill-opacity="0.501961" x="-0.5" y="-0.5" width="1" height="1" /></g>
<g transform="translate(169 25) rotate(181) scale(4 28)"><rect fill="#f7fcfc" fill-opacity="0.501961" x="-0.5" y="-0.5" width="1" height="1" /></g>
<g transform="translate(128 123) rotate(94) scale(49 3)"><rect fill="#9a9da0" fill-opacity="0.501961" x="-0.5" y="-0.5" width="1" height="1" /></g>
<g transform="translate(167 135) rotate(-169) scale(9 14)"><rect fill="#8e9094" fill-opacity="0.501961" x="-0.5" y="-0.5" width="1" height="1" /></g>
<g transform="translate(192 96) rotate(252) scale(8 4)"><rect fill="#fdffff" fill-opacity="0.501961" x="-0.5" y="-0.5" width="1" height="1" /></g>
<g transform="translate(43 84) rotate(111) scale(4 2)"><rect fill="#1b1e1e" fill-opacity="0.501961" x="-0.5" y="-0.5" width="1" height="1" /></g>
<g transform="translate(232 160) rotate(163) scale(63 1)"><rect fill="#696a6e" fill-opacity="0.501961" x="-0.5" y="-0.5" width="1" height="1" /></g>
<g transform="translate(218 87) rotate(182) scale(66 1)"><rect fill="#a1a5a8" fill-opacity="0.501961" x="-0.5" y="-0.5" width="1" height="1" /></g>
<g transform="translate(102 149) rotate(185) scale(27 4)"><rect fill="#f3f7f6" fill-opacity="0.501961" x="-0.5" y="-0.5" width="1" height="1" /></g>
<g transform="translate(190 128) rotate(275) scale(20 4)"><rect fill="#b0b3b6" fill-opacity="0.501961" x="-0.5" y="-0.5" width="1" height="1" /></g>
<g transform="translate(85 8) rotate(274) scale(1 66)"><rect fill="#95999a" fill-opacity="0.501961" x="-0.5" y="-0.5" width="1" height="1" /></g>
<g transform="translate(249 143) rotate(186) scale(16 1)"><rect fill="#f9fdfe" fill-opacity="0.501961" x="-0.5" y="-0.5" width="1" height="1" /></g>
<g transform="translate(255 116) rotate(239) scale(7 3)"><rect fill="#f0f4f3" fill-opacity="0.501961" x="-0.5" y="-0.5" width="1" height="1" /></g>
<g transform="translate(43 52) rotate(19) scale(20 11)"><rect fill="#dadedf" fill-opacity="0.501961" x="-0.5" y="-0.5" width="1" height="1" /></g>
<g transform="translate(9 98) rotate(155) scale(28 5)"><rect fill="#b3b7ba" fill-opacity="0.501961" x="-0.5" y="-0.5" width="1" height="1" /></g>
<g transform="translate(55 34) rotate(34) scale(15 9)"><rect fill="#ffffff" fill-opacity="0.501961" x="-0.5" y="-0.5" width="1" height="1" /></g>
<g transform="translate(198 129) rotate(235) scale(1 7)"><rect fill="#ffffff" fill-opacity="0.501961" x="-0.5" y="-0.5" width="1" height="1" /></g>
<g transform="translate(214 11) rotate(87) scale(1 29)"><rect fill="#ffffff" fill-opacity="0.501961" x="-0.5" y="-0.5" width="1" height="1" /></g>
<g transform="translate(23 35) rotate(76) scale(10 49)"><rect fill="#d9dcdf" fill-opacity="0.501961" x="-0.5" y="-0.5" width="1" height="1" /></g>
<g transform="translate(84 45) rotate(185) scale(19 20)"><rect fill="#e3e6e8" fill-opacity="0.501961" x="-0.5" y="-0.5" width="1" height="1" /></g>
<g transform="translate(139 166) rotate(28) scale(36 1)"><rect fill="#7f8387" fill-opacity="0.501961" x="-0.5" y="-0.5" width="1" height="1" /></g>
<g transform="translate(247 162) rotate(160) scale(22 1)"><rect fill="#727478" fill-opacity="0.501961" x="-0.5" y="-0.5" width="1" height="1" /></g>
<g transform="translate(39 129) rotate(110) scale(3 41)"><rect fill="#b6bbbd" fill-opacity="0.501961" x="-0.5" y="-0.5" width="1" height="1" /></g>
<g transform="translate(177 160) rotate(87) scale(21 14)"><rect fill="#4d4f52" fill-opacity="0.501961" x="-0.5" y="-0.5" width="1" height="1" /></g>
<g transform="translate(194 142) rotate(98) scale(5 7)"><rect fill="#ffffff" fill-opacity="0.501961" x="-0.5" y="-0.5" width="1" height="1" /></g>
<g transform="translate(133 162) rotate(305) scale(12 8)"><rect fill="#e4eaea" fill-opacity="0.501961" x="-0.5" y="-0.5" width="1" height="1" /></g>
<g transform="translate(144 110) rotate(94) scale(4 24)"><rect fill="#ffffff" fill-opacity="0.501961" x="-0.5" y="-0.5" width="1" height="1" /></g>
<g transform="translate(228 169) rotate(11) scale(21 2)"><rect fill="#818488" fill-opacity="0.501961" x="-0.5" y="-0.5" width="1" height="1" /></g>
<g transform="translate(95 130) rotate(307) scale(8 32)"><rect fill="#b5b9bc" fill-opacity="0.501961" x="-0.5" y="-0.5" width="1" height="1" /></g>
<g transform="translate(63 76) rotate(143) scale(13 3)"><rect fill="#feffff" fill-opacity="0.501961" x="-0.5" y="-0.5" width="1" height="1" /></g>
<g transform="translate(248 11) rotate(3) scale(29 4)"><rect fill="#c5c9cc" fill-opacity="0.501961" x="-0.5" y="-0.5" width="1" height="1" /></g>
<g transform="translate(0 153) rotate(78) scale(1 19)"><rect fill="#f9fefd" fill-opacity="0.501961" x="-0.5" y="-0.5" width="1" height="1" /></g>
<g transform="translate(134 129) rotate(218) scale(42 1)"><rect fill="#a2a5a8" fill-opacity="0.501961" x="-0.5" y="-0.5" width="1" height="1" /></g>
<g transform="translate(99 107) rotate(184) scale(41 1)"><rect fill="#a3a7aa" fill-opacity="0.501961" x="-0.5" y="-0.5" width="1" height="1" /></g>
<g transform="translate(232 163) rotate(162) scale(15 1)"><rect fill="#f9fefe" fill-opacity="0.501961" x="-0.5" y="-0.5" width="1" height="1" /></g>
<g transform="translate(60 124) rotate(65) scale(9 5)"><rect fill="#5b5d60" fill-opacity="0.501961" x="-0.5" y="-0.5" width="1" height="1" /></g>
<g transform="translate(233 129) rotate(255) scale(3 5)"><rect fill="#ffffff" fill-opacity="0.501961" x="-0.5" y="-0.5" width="1" height="1" /></g>
<g transform="translate(192 163) rotate(39) scale(11 4)"><rect fill="#6d6e73" fill-opacity="0.501961" x="-0.5" y="-0.5" width="1" height="1" /></g>
<g transform="translate(10 132) rotate(311) scale(9 6)"><rect fill="#f3f8f7" fill-opacity="0.501961" x="-0.5" y="-0.5" width="1" height="1" /></g>
<g transform="translate(0 110) rotate(169) scale(19 4)"><rect fill="#ffffff" fill-opacity="0.501961" x="-0.5" y="-0.5" width="1" height="1" /></g>
<g transform="translate(241 137) rotate(369) scale(12 2)"><rect fill="#ffffff" fill-opacity="0.501961" x="-0.5" y="-0.5" width="1" height="1" /></g>
<g transform="translate(72 161) rotate(277) scale(1 14)"><rect fill="#f0f6f5" fill-opacity="0.501961" x="-0.5" y="-0.5" width="1" height="1" /></g>
<g transform="translate(240 117) rotate(0) scale(4 3)"><rect fill="#fdffff" fill-opacity="0.501961" x="-0.5" y="-0.5" width="1" height="1" /></g>
<g transform="translate(52 167) rotate(-37) scale(22 15)"><rect fill="#8a8b8f" fill-opacity="0.501961" x="-0.5" y="-0.5" width="1" height="1" /></g>
<g transform="translate(252 63) rotate(-1) scale(92 1)"><rect fill="#c3c6c8" fill-opacity="0.501961" x="-0.5" y="-0.5" width="1" height="1" /></g>
<g transform="translate(252 55) rotate(13) scale(29 4)"><rect fill="#b1b6b9" fill-opacity="0.501961" x="-0.5" y="-0.5" width="1" height="1" /></g>
<g transform="translate(9 123) rotate(176) scale(13 10)"><rect fill="#a2a6a9" fill-opacity="0.501961" x="-0.5" y="-0.5" width="1" height="1" /></g>
<g transform="translate(136 153) rotate(107) scale(4 31)"><rect fill="#9c9fa3" fill-opacity="0.501961" x="-0.5" y="-0.5" width="1" height="1" /></g>
<g transform="translate(73 54) rotate(242) scale(4 4)"><rect fill="#ffffff" fill-opacity="0.501961" x="-0.5" y="-0.5" width="1" height="1" /></g>
<g transform="translate(106 98) rotate(177) scale(19 5)"><rect fill="#fbfffe" fill-opacity="0.501961" x="-0.5" y="-0.5" width="1" height="1" /></g>
<g transform="translate(14 76) rotate(-6) scale(6 4)"><rect fill="#ffffff" fill-opacity="0.501961" x="-0.5" y="-0.5" width="1" height="1" /></g>
<g transform="translate(167 0) rotate(214) scale(9 10)"><rect fill="#57595a" fill-opacity="0.501961" x="-0.5" y="-0.5" width="1" height="1" /></g>
<g transform="translate(44 121) rotate(87) scale(4 14)"><rect fill="#f7fdfc" fill-opacity="0.501961" x="-0.5" y="-0.5" width="1" height="1" /></g>
<g transform="translate(44 114) rotate(250) scale(5 5)"><rect fill="#6f7275" fill-opacity="0.501961" x="-0.5" y="-0.5" width="1" height="1" /></g>
<g transform="translate(34 108) rotate(40) scale(2 58)"><rect fill="#b1b6b9" fill-opacity="0.501961" x="-0.5" y="-0.5" width="1" height="1" /></g>
<g transform="translate(74 60) rotate(65) scale(4 15)"><rect fill="#1e1d1f" fill-opacity="0.501961" x="-0.5" y="-0.5" width="1" height="1" /></g>
<g transform="translate(85 151) rotate(206) scale(28 7)"><rect fill="#9d9fa3" fill-opacity="0.501961" x="-0.5" y="-0.5" width="1" height="1" /></g>
<g transform="translate(207 111) rotate(219) scale(18 5)"><rect fill="#9ea2a5" fill-opacity="0.501961" x="-0.5" y="-0.5" width="1" height="1" /></g>
<g transform="translate(131 133) rotate(176) scale(5 11)"><rect fill="#eff3f3" fill-opacity="0.501961" x="-0.5" y="-0.5" width="1" height="1" /></g>
<g transform="translate(229 136) rotate(184) scale(16 10)"><rect fill="#989a9e" fill-opacity="0.501961" x="-0.5" y="-0.5" width="1" height="1" /></g>
<g transform="translate(37 161) rotate(90) scale(5 16)"><rect fill="#b3b9bb" fill-opacity="0.501961" x="-0.5" y="-0.5" width="1" height="1" /></g>
<g transform="translate(83 73) rotate(330) scale(7 2)"><rect fill="#ffffff" fill-opacity="0.501961" x="-0.5" y="-0.5" width="1" height="1" /></g>
<g transform="translate(70 57) rotate(344) scale(1 8)"><rect fill="#5f6463" fill-opacity="0.501961" x="-0.5" y="-0.5" width="1" height="1" /></g>
<g transform="translate(73 140) rotate(324) scale(3 7)"><rect fill="#f3f9f9" fill-opacity="0.501961" x="-0.5" y="-0.5" width="1" height="1" /></g>
<g transform="translate(75 131) rotate(209) scale(13 10)"><rect fill="#5a5c5f" fill-opacity="0.501961" x="-0.5" y="-0.5" width="1" height="1" /></g>
<g transform="translate(110 40) rotate(176) scale(20 4)"><rect fill="#ffffff" fill-opacity="0.501961" x="-0.5" y="-0.5" width="1" height="1" /></g>
<g transform="translate(56 106) rotate(328) scale(24 7)"><rect fill="#b7bbbf" fill-opacity="0.501961" x="-0.5" y="-0.5" width="1" height="1" /></g>
<g transform="translate(40 41) rotate(196) scale(19 4)"><rect fill="#ffffff" fill-opacity="0.501961" x="-0.5" y="-0.5" width="1" height="1" /></g>
<g transform="translate(108 74) rotate(180) scale(29 14)"><rect fill="#d8dadd" fill-opacity="0.501961" x="-0.5" y="-0.5" width="1" height="1" /></g>
<g transform="translate(210 106) rotate(-10) scale(6 3)"><rect fill="#ffffff" fill-opacity="0.501961" x="-0.5" y="-0.5" width="1" height="1" /></g>
<g transform="translate(111 32) rotate(269) scale(12 38)"><rect fill="#dcdee1" fill-opacity="0.501961" x="-0.5" y="-0.5" width="1" height="1" /></g>
<g transform="translate(172 133) rotate(92) scale(75 1)"><rect fill="#727376" fill-opacity="0.501961" x="-0.5" y="-0.5" width="1" height="1" /></g>
<g transform="translate(68 112) rotate(107) scale(4 19)"><rect fill="#f7fbfb" fill-opacity="0.501961" x="-0.5" y="-0.5" width="1" height="1" /></g>
<g transform="translate(199 8) rotate(265) scale(4 19)"><rect fill="#8f9494" fill-opacity="0.501961" x="-0.5" y="-0.5" width="1" height="1" /></g>
<g transform="translate(197 88) rotate(211) scale(12 15)"><rect fill="#bcc0c4" fill-opacity="0.501961" x="-0.5" y="-0.5" width="1" height="1" /></g>
<g transform="translate(238 123) rotate(2) scale(31 8)"><rect fill="#9b9da1" fill-opacity="0.501961" x="-0.5" y="-0.5" width="1" height="1" /></g>
<g transform="translate(70 120) rotate(86) scale(4 15)"><rect fill="#aaafb2" fill-opacity="0.501961" x="-0.5" y="-0.5" width="1" height="1" /></g>
<g transform="translate(70 43) rotate(11) scale(2 11)"><rect fill="#0f0f10" fill-opacity="0.501961" x="-0.5" y="-0.5" width="1" height="1" /></g>
<g transform="translate(31 166) rotate(167) scale(13 2)"><rect fill="#f2f5f7" fill-opacity="0.501961" x="-0.5" y="-0.5" width="1" height="1" /></g>
<g transform="translate(141 94) rotate(142) scale(29 11)"><rect fill="#caced1" fill-opacity="0.501961" x="-0.5" y="-0.5" width="1" height="1" /></g>
<g transform="translate(55 89) rotate(162) scale(11 22)"><rect fill="#cbced1" fill-opacity="0.501961" x="-0.5" y="-0.5" width="1" height="1" /></g>
<g transform="translate(63 63) rotate(62) scale(9 6)"><rect fill="#2c2c2d" fill-opacity="0.501961" x="-0.5" y="-0.5" width="1" height="1" /></g>
<g transform="translate(7 0) rotate(236) scale(1 16)"><rect fill="#313332" fill-opacity="0.501961" x="-0.5" y="-0.5" width="1" height="1" /></g>
<g transform="translate(202 136) rotate(240) scale(1 9)"><rect fill="#ffffff" fill-opacity="0.501961" x="-0.5" y="-0.5" width="1" height="1" /></g>
<g transform="translate(92 5) rotate(180) scale(2 8)"><rect fill="#505454" fill-opacity="0.501961" x="-0.5" y="-0.5" width="1" height="1" /></g>
<g transform="translate(253 100) rotate(102) scale(7 13)"><rect fill="#f8fdfc" fill-opacity="0.501961" x="-0.5" y="-0.5" width="1" height="1" /></g>
<g transform="translate(210 58) rotate(140) scale(36 6)"><rect fill="#c4c7cb" fill-opacity="0.501961" x="-0.5" y="-0.5" width="1" height="1" /></g>
<g transform="translate(0 80) rotate(280) scale(27 13)"><rect fill="#c1c4c8" fill-opacity="0.501961" x="-0.5" y="-0.5" width="1" height="1" /></g>
<g transform="translate(67 51) rotate(297) scale(5 8)"><rect fill="#020202" fill-opacity="0.501961" x="-0.5" y="-0.5" width="1" height="1" /></g>
<g transform="translate(1 117) rotate(146) scale(52 2)"><rect fill="#b6babd" fill-opacity="0.501961" x="-0.5" y="-0.5" width="1" height="1" /></g>
<g transform="translate(106 123) rotate(277) scale(4 32)"><rect fill="#f2f7f7" fill-opacity="0.501961" x="-0.5" y="-0.5" width="1" height="1" /></g>
<g transform="translate(178 33) rotate(269) scale(69 6)"><rect fill="#737377" fill-opacity="0.501961" x="-0.5" y="-0.5" width="1" height="1" /></g>
<g transform="translate(211 151) rotate(265) scale(1 20)"><rect fill="#818387" fill-opacity="0.501961" x="-0.5" y="-0.5" width="1" height="1" /></g>
<g transform="translate(252 149) rotate(72) scale(5 93)"><rect fill="#8c8d91" fill-opacity="0.501961" x="-0.5" y="-0.5" width="1" height="1" /></g>
<g transform="translate(72 109) rotate(284) scale(20 1)"><rect fill="#b6babc" fill-opacity="0.501961" x="-0.5" y="-0.5" width="1" height="1" /></g>
<g transform="translate(225 33) rotate(183) scale(23 11)"><rect fill="#ffffff" fill-opacity="0.501961" x="-0.5" y="-0.5" width="1" height="1" /></g>
<g transform="translate(135 160) rotate(302) scale(3 17)"><rect fill="#f1f6f6" fill-opacity="0.501961" x="-0.5" y="-0.5" width="1" height="1" /></g>
<g transform="translate(35 153) rotate(19) scale(92 1)"><rect fill="#818286" fill-opacity="0.501961" x="-0.5" y="-0.5" width="1" height="1" /></g>
<g transform="translate(69 73) rotate(184) scale(13 5)"><rect fill="#feffff" fill-opacity="0.501961" x="-0.5" y="-0.5" width="1" height="1" /></g>
<g transform="translate(39 129) rotate(157) scale(38 1)"><rect fill="#9ea2a5" fill-opacity="0.501961" x="-0.5" y="-0.5" width="1" height="1" /></g>
<g transform="translate(40 0) rotate(89) scale(1 52)"><rect fill="#606464" fill-opacity="0.501961" x="-0.5" y="-0.5" width="1" height="1" /></g>
<g transform="translate(0 22) rotate(360) scale(7 25)"><rect fill="#eff2f3" fill-opacity="0.501961" x="-0.5" y="-0.5" width="1" height="1" /></g>
<g transform="translate(228 75) rotate(299) scale(4 13)"><rect fill="#ffffff" fill-opacity="0.501961" x="-0.5" y="-0.5" width="1" height="1" /></g>
<g transform="translate(204 148) rotate(25) scale(3 4)"><rect fill="#fbffff" fill-opacity="0.501961" x="-0.5" y="-0.5" width="1" height="1" /></g>
<g transform="translate(200 132) rotate(59) scale(1 23)"><rect fill="#a0a4a7" fill-opacity="0.501961" x="-0.5" y="-0.5" width="1" height="1" /></g>
<g transform="translate(188 97) rotate(94) scale(31 1)"><rect fill="#9a9fa2" fill-opacity="0.501961" x="-0.5" y="-0.5" width="1" height="1" /></g>
<g transform="translate(173 71) rotate(272) scale(67 1)"><rect fill="#9c9fa3" fill-opacity="0.501961" x="-0.5" y="-0.5" width="1" height="1" /></g>
<g transform="translate(106 149) rotate(10) scale(7 10)"><rect fill="#e4e8e9" fill-opacity="0.501961" x="-0.5" y="-0.5" width="1" height="1" /></g>
<g transform="translate(165 154) rotate(213) scale(5 1)"><rect fill="#e6ecec" fill-opacity="0.501961" x="-0.5" y="-0.5" width="1" height="1" /></g>
<g transform="translate(26 140) rotate(80) scale(1 11)"><rect fill="#eff2f2" fill-opacity="0.501961" x="-0.5" y="-0.5" width="1" height="1" /></g>
<g transform="translate(190 141) rotate(0) scale(4 3)"><rect fill="#ffffff" fill-opacity="0.501961" x="-0.5" y="-0.5" width="1" height="1" /></g>
<g transform="translate(242 59) rotate(9) scale(18 4)"><rect fill="#ffffff" fill-opacity="0.501961" x="-0.5" y="-0.5" width="1" height="1" /></g>
<g transform="translate(38 33) rotate(295) scale(1 58)"><rect fill="#dbdee1" fill-opacity="0.501961" x="-0.5" y="-0.5" width="1" height="1" /></g>
<g transform="translate(70 80) rotate(0) scale(14 6)"><rect fill="#ced1d4" fill-opacity="0.501961" x="-0.5" y="-0.5" width="1" height="1" /></g>
<g transform="translate(70 0) rotate(34) scale(1 20)"><rect fill="#babfc0" fill-opacity="0.501961" x="-0.5" y="-0.5" width="1" height="1" /></g>
<g transform="translate(238 76) rotate(295) scale(1 60)"><rect fill="#aeb2b5" fill-opacity="0.501961" x="-0.5" y="-0.5" width="1" height="1" /></g>
</g>
</svg>