<svg xmlns="http://www.w3.org/2000/svg" version="1.1" width="750" height="498">
<rect x="0" y="0" width="750" height="498" fill="#261b2e" />
<g transform="scale(2.929688) translate(0.5 0.5)">
<path stroke="#fff9ff" stroke-opacity="0.501961" fill="none" d="M 155.575924 106.990656 Q 149.269551 43.656919, 149.580375 27.951048" stroke-width="0.500000" />
<path stroke="#ffffff" stroke-opacity="0.501961" fill="none" d="M 59.226853 84.041831 Q 116.827124 83.247046, 121.441931 99.129631" stroke-width="0.500000" />
<path stroke="#ffffff" stroke-opacity="0.501961" fill="none" d="M 118.792535 95.915372 Q 90.103829 80.119519, 101.135138 49.064858" stroke-width="0.500000" />
<path stroke="#f1bdd1" stroke-opacity="0.501961" fill="none" d="M 113.328997 39.773020 Q 200.443645 30.386488, 204.165179 102.092383" stroke-width="0.500000" />
<path stroke="#ffffff" stroke-opacity="0.501961" fill="none" d="M 181.188315 95.701899 Q 169.036915 84.368778, 208.985759 50.455073" stroke-width="0.500000" />
<path stroke="#ffffff" stroke-opacity="0.501961" fill="none" d="M 186.600651 36.433126 Q 174.076052 57.026779, 206.226636 83.917503" stroke-width="0.500000" />
<path stroke="#eed2eb" stroke-opacity="0.501961" fill="none" d="M 57.910076 120.441006 Q 226.668439 139.081509, 225.455169 92.610096" stroke-width="0.500000" />
<path stroke="#ffffff" stroke-opacity="0.501961" fill="none" d="M 170.111366 43.886273 Q 183.018370 48.160729, 205.073501 85.635982" stroke-width="0.500000" />
<path stroke="#d9a7cb" stroke-opacity="0.501961" fill="none" d="M 62.799950 92.891994 Q 122.723087 -11.639155, 200.988194 74.567627" stroke-width="0.500000" />
<path stroke="#ffe7ff" stroke-opacity="0.501961" fill="none" d="M 106.747849 125.926571 Q 43.243968 110.389002, 33.814178 107.847466" stroke-width="0.500000" />
<path stroke="#ffcfef" stroke-opacity="0.501961" fill="none" d="M 185.171281 32.686977 Q 184.013525 94.279188, 172.330403 97.349917" stroke-width="0.500000" />
<path stroke="#fff8ff" stroke-opacity="0.501961" fill="none" d="M 175.879005 86.448756 Q 192.001628 80.718784, 179.770999 38.867578" stroke-width="0.500000" />
<path stroke="#fff4ff" stroke-opacity="0.501961" fill="none" d="M 166.469245 124.691819 Q 69.764871 128.982943, 34.672116 111.381487" stroke-width="0.500000" />
<path stroke="#ffffff" stroke-opacity="0.501961" fill="none" d="M 122.888656 92.870677 Q 102.900576 98.838013, 95.736596 61.227318" stroke-width="0.500000" />
<path stroke="#fdddf0" stroke-opacity="0.501961" fill="none" d="M 153.099222 109.612734 Q 153.299381 53.755364, 147.076109 20.056819" stroke-width="0.500000" />
<path stroke="#ffddff" stroke-opacity="0.501961" fill="none" d="M 119.890232 35.151331 Q 95.802750 47.972470, 57.696272 89.993951" stroke-width="0.500000" />
<path stroke="#ffffff" stroke-opacity="0.501961" fill="none" d="M 114.467094 94.155972 Q 87.081975 68.202180, 105.140964 45.699573" stroke-width="0.500000" />
<path stroke="#ffffff" stroke-opacity="0.501961" fill="none" d="M 133.029840 43.677752 Q 145.533066 71.958612, 128.767028 90.106245" stroke-width="0.500000" />
<path stroke="#d4adcd" stroke-opacity="0.501961" fill="none" d="M 147.769961 47.357751 Q 70.863400 21.138368, 65.552043 61.538351" stroke-width="0.500000" />
<path stroke="#fff1ff" stroke-opacity="0.501961" fill="none" d="M 153.759093 99.558117 Q 154.102608 45.343600, 146.982566 30.867532" stroke-width="0.500000" />
<path stroke="#ffffff" stroke-opacity="0.501961" fill="none" d="M 202.810405 74.491224 Q 166.085577 56.800878, 194.649225 28.714324" stroke-width="0.500000" />
<path stroke="#ffe8ff" stroke-opacity="0.501961" fill="none" d="M 56.079043 85.870747 Q 82.961813 78.290162, 121.000791 92.736076" stroke-width="0.500000" />
<path stroke="#fbe2ff" stroke-opacity="0.501961" fill="none" d="M 47.454575 116.752122 Q 74.624377 123.903839, 134.254009 125.227658" stroke-width="0.500000" />
<path stroke="#ffffff" stroke-opacity="0.501961" fill="none" d="M 113.406116 97.662904 Q 83.424739 58.236727, 110.409998 39.606636" stroke-width="0.500000" />
<path stroke="#fdd1e7" stroke-opacity="0.501961" fill="none" d="M 150.045425 97.666054 Q 200.847719 72.873721, 200.405550 46.166827" stroke-width="0.500000" />
<path stroke="#ffffff" stroke-opacity="0.501961" fill="none" d="M 198.102345 92.615708 Q 208.000213 72.791269, 172.227635 46.181447" stroke-width="0.500000" />
<path stroke="#fddcff" stroke-opacity="0.501961" fill="none" d="M 118.424574 94.984005 Q 98.059593 92.721585, 88.207913 40.592883" stroke-width="0.500000" />
<path stroke="#fff7ff" stroke-opacity="0.501961" fill="none" d="M 56.257270 88.805245 Q 92.852772 62.790223, 90.523898 42.054399" stroke-width="0.500000" />
<path stroke="#ffe9ff" stroke-opacity="0.501961" fill="none" d="M 86.483663 119.989314 Q 47.111072 111.099704, 33.301646 109.768269" stroke-width="0.500000" />
<path stroke="#fed3e8" stroke-opacity="0.501961" fill="none" d="M 201.510497 50.620592 Q 174.790490 99.056785, 150.131855 94.570586" stroke-width="0.500000" />
<path stroke="#ffe2fa" stroke-opacity="0.501961" fill="none" d="M 173.231260 42.968674 Q 199.859237 65.633741, 175.048247 92.339948" stroke-width="0.500000" />
<path stroke="#ffffff" stroke-opacity="0.501961" fill="none" d="M 120.633499 38.879532 Q 137.356219 43.199459, 139.566606 68.966909" stroke-width="0.500000" />
<path stroke="#ffe6f3" stroke-opacity="0.501961" fill="none" d="M 172.505625 54.948819 Q 213.767675 67.262978, 193.926392 97.572081" stroke-width="0.500000" />
<path stroke="#ffdaf8" stroke-opacity="0.501961" fill="none" d="M 197.225640 63.485990 Q 159.329100 82.975713, 153.893448 97.210538" stroke-width="0.500000" />
<path stroke="#fff7ff" stroke-opacity="0.501961" fill="none" d="M 195.466051 37.724430 Q 209.158966 51.942737, 178.561516 83.669054" stroke-width="0.500000" />
<path stroke="#ffffff" stroke-opacity="0.501961" fill="none" d="M 190.546509 36.444880 Q 175.726330 41.519735, 193.333346 78.565143" stroke-width="0.500000" />
<path stroke="#ffe0ff" stroke-opacity="0.501961" fill="none" d="M 114.326361 94.065894 Q 78.269878 51.366642, 119.676542 37.711943" stroke-width="0.500000" />
<path stroke="#fff5ff" stroke-opacity="0.501961" fill="none" d="M 175.137596 94.535391 Q 196.915088 102.098539, 202.755099 79.615966" stroke-width="0.500000" />
<path stroke="#eec4d8" stroke-opacity="0.501961" fill="none" d="M 145.203922 122.053676 Q 183.815884 131.689652, 209.127647 110.452686" stroke-width="0.500000" />
<path stroke="#fff0ff" stroke-opacity="0.501961" fill="none" d="M 138.879762 46.635475 Q 142.819607 92.495159, 114.517953 92.999280" stroke-width="0.500000" />
<path stroke="#f4dcff" stroke-opacity="0.501961" fill="none" d="M 90.497184 41.469421 Q 58.801592 37.623469, 68.330714 77.427340" stroke-width="0.500000" />
<path stroke="#fde8ff" stroke-opacity="0.501961" fill="none" d="M 34.406282 110.582208 Q 55.444918 110.312518, 88.153117 122.062491" stroke-width="0.500000" />
<path stroke="#f3dcff" stroke-opacity="0.501961" fill="none" d="M 36.245601 110.211858 Q 37.113371 118.756452, 94.288797 122.504365" stroke-width="0.500000" />
<path stroke="#fffdff" stroke-opacity="0.501961" fill="none" d="M 147.410475 29.773012 Q 152.521995 36.357676, 152.970964 99.493297" stroke-width="0.500000" />
<path stroke="#ffe1f8" stroke-opacity="0.501961" fill="none" d="M 127.195852 91.260137 Q 155.866141 58.140609, 116.948092 34.939761" stroke-width="0.500000" />
<path stroke="#f2d0fd" stroke-opacity="0.501961" fill="none" d="M 56.340449 87.682170 Q 94.085006 58.565702, 91.526792 43.714237" stroke-width="0.500000" />
<path stroke="#f0d7fb" stroke-opacity="0.501961" fill="none" d="M 116.569963 99.045849 Q 110.507056 81.297472, 57.024440 84.764504" stroke-width="0.500000" />
<path stroke="#ffd8ec" stroke-opacity="0.501961" fill="none" d="M 175.134602 43.167120 Q 214.764793 80.668207, 194.296432 94.309308" stroke-width="0.500000" />
<path stroke="#e9b0cd" stroke-opacity="0.501961" fill="none" d="M 180.705154 105.617264 Q 173.624676 38.808604, 194.976587 36.839748" stroke-width="0.500000" />
<path stroke="#fedcfc" stroke-opacity="0.501961" fill="none" d="M 130.531858 93.097238 Q 81.477940 88.634123, 105.817869 42.435165" stroke-width="0.500000" />
<path stroke="#ffd0e2" stroke-opacity="0.501961" fill="none" d="M 175.727061 76.249253 Q 215.568352 58.809885, 191.822907 35.853850" stroke-width="0.500000" />
<path stroke="#ffd7ee" stroke-opacity="0.501961" fill="none" d="M 177.063496 93.950287 Q 186.606507 52.005090, 181.176899 38.288978" stroke-width="0.500000" />
<path stroke="#f0cefa" stroke-opacity="0.501961" fill="none" d="M 97.899392 45.763620 Q 64.293331 32.005742, 65.861580 63.903305" stroke-width="0.500000" />
<path stroke="#ddc5fd" stroke-opacity="0.501961" fill="none" d="M 36.573421 111.080711 Q 84.695490 116.785158, 92.139579 127.724738" stroke-width="0.500000" />
<path stroke="#ffffff" stroke-opacity="0.501961" fill="none" d="M 202.550846 79.486862 Q 174.033770 49.514217, 186.434237 37.758803" stroke-width="0.500000" />
<path stroke="#ffd2ea" stroke-opacity="0.501961" fill="none" d="M 135.105164 59.418148 Q 143.119251 31.008007, 149.566798 28.658366" stroke-width="0.500000" />
<path stroke="#ffe8ff" stroke-opacity="0.501961" fill="none" d="M 135.222206 49.097823 Q 119.164833 25.919294, 100.169209 51.351974" stroke-width="0.500000" />
<path stroke="#ddb5d2" stroke-opacity="0.501961" fill="none" d="M 109.572038 97.320422 Q 161.423435 82.022643, 122.423818 33.626400" stroke-width="0.500000" />
<path stroke="#ffe6ff" stroke-opacity="0.501961" fill="none" d="M 89.057072 42.814565 Q 96.513786 57.934046, 66.470738 79.569727" stroke-width="0.500000" />
<path stroke="#f2bade" stroke-opacity="0.501961" fill="none" d="M 148.607055 28.241201 Q 151.716190 99.162884, 156.858924 98.589530" stroke-width="0.500000" />
<path stroke="#f9deff" stroke-opacity="0.501961" fill="none" d="M 109.161143 83.883025 Q 94.503560 88.548950, 64.305557 82.072796" stroke-width="0.500000" />
<path stroke="#e1c0e7" stroke-opacity="0.501961" fill="none" d="M 101.899278 93.039101 Q 96.698766 35.538767, 76.417087 40.633316" stroke-width="0.500000" />
<path stroke="#eab8d9" stroke-opacity="0.501961" fill="none" d="M 201.050770 66.646374 Q 155.950716 81.881988, 154.725992 96.479512" stroke-width="0.500000" />
<path stroke="#ffdaf0" stroke-opacity="0.501961" fill="none" d="M 153.190134 96.109446 Q 151.985097 30.577726, 144.364195 30.958493" stroke-width="0.500000" />
<path stroke="#d4c0f2" stroke-opacity="0.501961" fill="none" d="M 38.300711 107.334742 Q 74.128942 126.933600, 107.256952 124.322027" stroke-width="0.500000" />
<path stroke="#e79fbd" stroke-opacity="0.501961" fill="none" d="M 206.516437 92.377625 Q 173.391933 51.153594, 191.360244 34.948881" stroke-width="0.500000" />
<path stroke="#fdcde4" stroke-opacity="0.501961" fill="none" d="M 176.355188 41.004785 Q 196.078631 61.034378, 174.058168 91.584187" stroke-width="0.500000" />
<path stroke="#ffe8ff" stroke-opacity="0.501961" fill="none" d="M 94.493388 43.993910 Q 76.425577 33.560815, 65.952425 54.183410" stroke-width="0.500000" />
<path stroke="#ffffff" stroke-opacity="0.501961" fill="none" d="M 109.996695 40.422311 Q 82.952453 66.455070, 113.633766 93.894499" stroke-width="0.500000" />
<path stroke="#fff3ff" stroke-opacity="0.501961" fill="none" d="M 175.648191 96.182273 Q 178.537748 78.208923, 197.944979 59.168120" stroke-width="0.500000" />
<path stroke="#ffd8ee" stroke-opacity="0.501961" fill="none" d="M 178.398435 94.739223 Q 196.405679 53.030788, 172.935094 46.119685" stroke-width="0.500000" />
<path stroke="#ffe9fe" stroke-opacity="0.501961" fill="none" d="M 181.377603 95.782275 Q 206.736779 99.440560, 199.446183 72.356967" stroke-width="0.500000" />
<path stroke="#fff3ff" stroke-opacity="0.501961" fill="none" d="M 138.771350 72.942675 Q 125.858219 105.576643, 102.257211 85.340262" stroke-width="0.500000" />
<path stroke="#fde0ff" stroke-opacity="0.501961" fill="none" d="M 130.233448 88.345831 Q 111.243153 103.878912, 97.789715 76.479048" stroke-width="0.500000" />
<path stroke="#ffffff" stroke-opacity="0.501961" fill="none" d="M 186.611747 38.847089 Q 172.000807 49.481896, 200.863943 74.683745" stroke-width="0.500000" />
<path stroke="#d1a8c7" stroke-opacity="0.501961" fill="none" d="M 155.708506 99.876271 Q 159.926546 77.077420, 193.626225 67.225627" stroke-width="0.500000" />
<path stroke="#f5d1e1" stroke-opacity="0.501961" fill="none" d="M 114.956363 124.891134 Q 149.738711 127.261968, 184.767304 122.432969" stroke-width="0.500000" />
<path stroke="#ffecfc" stroke-opacity="0.501961" fill="none" d="M 107.291804 41.171416 Q 127.227843 31.507805, 139.936169 59.494270" stroke-width="0.500000" />
<path stroke="#e6cbf1" stroke-opacity="0.501961" fill="none" d="M 60.758106 87.222281 Q 65.320195 79.901308, 114.807789 88.402443" stroke-width="0.500000" />
<path stroke="#ffffff" stroke-opacity="0.501961" fill="none" d="M 180.355354 55.992560 Q 182.089722 32.174235, 197.055188 38.752184" stroke-width="0.500000" />
<path stroke="#ffccdc" stroke-opacity="0.501961" fill="none" d="M 171.247438 47.110181 Q 213.750088 74.053622, 192.956730 95.854216" stroke-width="0.500000" />
<path stroke="#e6b5d2" stroke-opacity="0.501961" fill="none" d="M 153.532210 120.695784 Q 164.764506 132.751918, 203.544891 115.935945" stroke-width="0.500000" />
<path stroke="#c7b6e6" stroke-opacity="0.501961" fill="none" d="M 95.861920 119.988367 Q 47.025414 125.526087, 35.900286 107.964828" stroke-width="0.500000" />
<path stroke="#dea7cb" stroke-opacity="0.501961" fill="none" d="M 197.322839 69.096731 Q 171.872926 76.828368, 155.321281 93.793484" stroke-width="0.500000" />
<path stroke="#f3c7df" stroke-opacity="0.501961" fill="none" d="M 137.601602 73.905815 Q 144.060148 37.745394, 107.371356 39.076610" stroke-width="0.500000" />
<path stroke="#fff2ff" stroke-opacity="0.501961" fill="none" d="M 77.120418 40.981025 Q 74.622368 39.217687, 63.968740 59.060899" stroke-width="0.500000" />
<path stroke="#f8efff" stroke-opacity="0.501961" fill="none" d="M 34.175322 114.474728 Q 35.484350 108.844307, 54.647525 111.688364" stroke-width="0.500000" />
<path stroke="#fffaff" stroke-opacity="0.501961" fill="none" d="M 108.836181 95.321309 Q 106.259510 76.555660, 109.212319 75.557864" stroke-width="0.500000" />
<path stroke="#ffe2ff" stroke-opacity="0.501961" fill="none" d="M 84.285307 65.421257 Q 96.773752 43.874520, 82.159569 39.314937" stroke-width="0.500000" />
<path stroke="#f1dffa" stroke-opacity="0.501961" fill="none" d="M 103.852458 84.780027 Q 79.216940 84.424148, 60.356976 83.671240" stroke-width="0.500000" />
<path stroke="#ffeaf6" stroke-opacity="0.501961" fill="none" d="M 193.433482 67.865611 Q 212.573197 84.796256, 188.237106 97.507486" stroke-width="0.500000" />
<path stroke="#dfcfef" stroke-opacity="0.501961" fill="none" d="M 35.364488 113.065024 Q 56.388658 120.074396, 97.108196 124.226504" stroke-width="0.500000" />
<path stroke="#ebd4f4" stroke-opacity="0.501961" fill="none" d="M 60.581399 85.922998 Q 93.810232 60.631888, 89.800536 43.683527" stroke-width="0.500000" />
<path stroke="#f6d9f5" stroke-opacity="0.501961" fill="none" d="M 103.191589 90.039715 Q 88.569998 40.569877, 117.095763 39.345545" stroke-width="0.500000" />
<path stroke="#b095d6" stroke-opacity="0.501961" fill="none" d="M 35.178436 112.629860 Q 40.128364 102.710111, 100.880792 126.833764" stroke-width="0.500000" />
<path stroke="#ddabc2" stroke-opacity="0.501961" fill="none" d="M 178.880076 95.628932 Q 172.346062 46.374383, 192.697349 35.523211" stroke-width="0.500000" />
<path stroke="#dcb1c4" stroke-opacity="0.501961" fill="none" d="M 204.056370 116.615926 Q 168.006876 128.469266, 148.344850 123.996151" stroke-width="0.500000" />
<path stroke="#fcc9e5" stroke-opacity="0.501961" fill="none" d="M 147.141019 29.901156 Q 157.001458 64.454187, 150.691997 68.915411" stroke-width="0.500000" />
<path stroke="#fcc2e9" stroke-opacity="0.501961" fill="none" d="M 192.981778 69.479747 Q 174.190698 68.420905, 181.897216 98.659057" stroke-width="0.500000" />
<path stroke="#bda7df" stroke-opacity="0.501961" fill="none" d="M 34.709837 114.218298 Q 43.319811 106.741893, 88.293604 124.605173" stroke-width="0.500000" />
<path stroke="#ba8baf" stroke-opacity="0.501961" fill="none" d="M 155.312528 96.327529 Q 165.248939 83.983876, 141.813327 32.255819" stroke-width="0.500000" />
<path stroke="#fac1d6" stroke-opacity="0.501961" fill="none" d="M 170.637403 50.837032 Q 175.924189 47.037880, 194.442477 37.998465" stroke-width="0.500000" />
<path stroke="#ffe5ff" stroke-opacity="0.501961" fill="none" d="M 87.827771 39.801848 Q 68.913466 42.008108, 65.154102 58.439291" stroke-width="0.500000" />
<path stroke="#cfa9d3" stroke-opacity="0.501961" fill="none" d="M 109.650468 40.789727 Q 85.426521 58.219520, 114.964695 93.031773" stroke-width="0.500000" />
<path stroke="#fec7d8" stroke-opacity="0.501961" fill="none" d="M 175.026138 49.378903 Q 184.396051 33.047089, 198.420700 40.659092" stroke-width="0.500000" />
<path stroke="#ffebf6" stroke-opacity="0.501961" fill="none" d="M 179.094860 93.416986 Q 172.321921 85.817609, 199.660337 55.953619" stroke-width="0.500000" />
<path stroke="#ca9cac" stroke-opacity="0.501961" fill="none" d="M 206.586261 105.857601 Q 205.659800 126.155731, 166.667851 122.999628" stroke-width="0.500000" />
<path stroke="#e4b3c6" stroke-opacity="0.501961" fill="none" d="M 168.287886 44.579693 Q 189.078888 48.447001, 199.580739 94.559592" stroke-width="0.500000" />
<path stroke="#a7739a" stroke-opacity="0.501961" fill="none" d="M 84.229296 61.755191 Q 111.229578 16.337252, 164.133615 67.129491" stroke-width="0.500000" />
<path stroke="#b591c5" stroke-opacity="0.501961" fill="none" d="M 108.186698 92.443404 Q 83.044417 55.435988, 87.714296 34.745378" stroke-width="0.500000" />
<path stroke="#e49fc2" stroke-opacity="0.501961" fill="none" d="M 202.911520 70.283762 Q 200.260458 98.330847, 180.392848 95.703157" stroke-width="0.500000" />
<path stroke="#f9e7f7" stroke-opacity="0.501961" fill="none" d="M 113.728720 94.832625 Q 104.056861 88.950429, 109.794112 73.155224" stroke-width="0.500000" />
<path stroke="#b987ac" stroke-opacity="0.501961" fill="none" d="M 160.037393 98.582579 Q 151.381223 51.068015, 145.441944 30.318752" stroke-width="0.500000" />
<path stroke="#e1b2c6" stroke-opacity="0.501961" fill="none" d="M 153.863641 28.909885 Q 140.887777 31.411853, 136.861075 57.465123" stroke-width="0.500000" />
<path stroke="#d196bb" stroke-opacity="0.501961" fill="none" d="M 147.181589 28.251034 Q 141.698743 47.268778, 113.261959 36.266661" stroke-width="0.500000" />
<path stroke="#ebc4d9" stroke-opacity="0.501961" fill="none" d="M 177.416482 93.654649 Q 200.727905 58.214300, 172.627429 46.422290" stroke-width="0.500000" />
<path stroke="#ffffff" stroke-opacity="0.501961" fill="none" d="M 156.450592 98.081140 Q 154.151777 95.307908, 162.915417 84.030356" stroke-width="0.500000" />
<path stroke="#dfc3e7" stroke-opacity="0.501961" fill="none" d="M 66.580316 62.658149 Q 68.959206 31.760661, 91.887651 43.680057" stroke-width="0.500000" />
<path stroke="#f6d0da" stroke-opacity="0.501961" fill="none" d="M 190.107876 31.835216 Q 171.695394 61.873446, 202.425532 72.237699" stroke-width="0.500000" />
<path stroke="#f0cacc" stroke-opacity="0.501961" fill="none" d="M 191.751877 67.438038 Q 206.506824 47.355737, 194.861448 39.194856" stroke-width="0.500000" />
<path stroke="#e6b4d3" stroke-opacity="0.501961" fill="none" d="M 196.496716 66.854592 Q 169.142970 86.755478, 183.419004 99.765754" stroke-width="0.500000" />
<path stroke="#a578a4" stroke-opacity="0.501961" fill="none" d="M 141.787537 53.854242 Q 106.097093 15.675208, 63.064214 88.527211" stroke-width="0.500000" />
<path stroke="#dcb9ca" stroke-opacity="0.501961" fill="none" d="M 145.829840 124.774828 Q 195.220398 127.583232, 205.272550 111.357634" stroke-width="0.500000" />
<path stroke="#be859f" stroke-opacity="0.501961" fill="none" d="M 201.379008 89.343952 Q 175.884186 62.932301, 192.246580 34.613924" stroke-width="0.500000" />
<path stroke="#ae8dc5" stroke-opacity="0.501961" fill="none" d="M 111.424901 87.074326 Q 79.725331 50.796676, 60.015714 89.212853" stroke-width="0.500000" />
<path stroke="#beaade" stroke-opacity="0.501961" fill="none" d="M 35.283335 110.265472 Q 45.493549 108.493240, 81.662291 124.471810" stroke-width="0.500000" />
<path stroke="#ffe8f1" stroke-opacity="0.501961" fill="none" d="M 147.740057 32.489652 Q 152.785922 56.008534, 152.615128 69.933403" stroke-width="0.500000" />
<path stroke="#040310" stroke-opacity="0.501961" fill="none" d="M 257.890188 -0.760237 Q -15.802890 -2.054248, 3.251804 161.583256" stroke-width="0.500000" />
<path stroke="#ffddf1" stroke-opacity="0.501961" fill="none" d="M 191.755748 96.227113 Q 174.213060 98.437210, 180.631637 79.974920" stroke-width="0.500000" />
<path stroke="#9c78b3" stroke-opacity="0.501961" fill="none" d="M 119.106304 90.140292 Q 114.314935 82.620944, 59.973150 82.164270" stroke-width="0.500000" />
<path stroke="#fcd4de" stroke-opacity="0.501961" fill="none" d="M 191.759704 61.783107 Q 169.941465 50.499185, 189.773370 35.740954" stroke-width="0.500000" />
<path stroke="#e5b6d4" stroke-opacity="0.501961" fill="none" d="M 138.442341 54.076391 Q 125.061234 31.154532, 105.137093 40.736005" stroke-width="0.500000" />
<path stroke="#d3b9d9" stroke-opacity="0.501961" fill="none" d="M 127.774219 88.770638 Q 118.904668 100.313279, 93.868329 76.128337" stroke-width="0.500000" />
<path stroke="#c6a0d0" stroke-opacity="0.501961" fill="none" d="M 62.453386 62.562650 Q 70.681031 31.518825, 96.175544 47.548481" stroke-width="0.500000" />
<path stroke="#af8fbf" stroke-opacity="0.501961" fill="none" d="M 110.664486 75.448797 Q 99.965501 95.719036, 58.340405 77.704168" stroke-width="0.500000" />
<path stroke="#bca6da" stroke-opacity="0.501961" fill="none" d="M 32.535648 112.375052 Q 75.144847 113.187177, 92.888916 125.096440" stroke-width="0.500000" />
<path stroke="#a16293" stroke-opacity="0.501961" fill="none" d="M 152.086244 96.334820 Q 151.501985 83.912429, 147.875079 37.895481" stroke-width="0.500000" />
<path stroke="#c3a5cd" stroke-opacity="0.501961" fill="none" d="M 61.259460 81.439994 Q 89.544599 66.501934, 90.074805 43.027756" stroke-width="0.500000" />
<path stroke="#c08cb2" stroke-opacity="0.501961" fill="none" d="M 149.063198 96.459559 Q 181.583357 73.021259, 199.824401 70.452818" stroke-width="0.500000" />
<path stroke="#060412" stroke-opacity="0.501961" fill="none" d="M 234.059789 0.905163 Q 271.000000 185.000000, 3.436956 159.146293" stroke-width="0.500000" />
<path stroke="#daaac5" stroke-opacity="0.501961" fill="none" d="M 147.248201 30.735256 Q 153.676223 32.830958, 149.660144 66.573474" stroke-width="0.500000" />
<path stroke="#cca7ca" stroke-opacity="0.501961" fill="none" d="M 108.971889 37.161033 Q 87.431229 73.929935, 112.904764 95.326475" stroke-width="0.500000" />
<path stroke="#d7a8b9" stroke-opacity="0.501961" fill="none" d="M 200.958841 95.132644 Q 204.153838 55.796391, 170.374246 46.382562" stroke-width="0.500000" />
<path stroke="#ffe1ea" stroke-opacity="0.501961" fill="none" d="M 179.816022 48.702788 Q 187.749703 33.448158, 198.331139 38.630577" stroke-width="0.500000" />
<path stroke="#d3b5cc" stroke-opacity="0.501961" fill="none" d="M 123.528938 90.545103 Q 144.371398 77.812535, 137.403217 56.595824" stroke-width="0.500000" />
<path stroke="#040310" stroke-opacity="0.501961" fill="none" d="M 0.130866 160.933437 Q -16.000000 -16.000000, 251.185902 4.161188" stroke-width="0.500000" />
<path stroke="#e3afc1" stroke-opacity="0.501961" fill="none" d="M 203.573662 77.799229 Q 168.927911 53.256585, 188.733210 32.038896" stroke-width="0.500000" />
<path stroke="#050311" stroke-opacity="0.501961" fill="none" d="M 216.501592 -6.374974 Q 271.000000 185.000000, 72.698028 161.721647" stroke-width="0.500000" />
<path stroke="#b8a2cf" stroke-opacity="0.501961" fill="none" d="M 90.955246 119.439532 Q 43.484388 122.902482, 37.524295 109.367933" stroke-width="0.500000" />
<path stroke="#f1c7d9" stroke-opacity="0.501961" fill="none" d="M 145.164669 30.252021 Q 143.576347 36.728062, 136.899992 53.276597" stroke-width="0.500000" />
<path stroke="#b4799e" stroke-opacity="0.501961" fill="none" d="M 203.518357 76.634713 Q 206.354595 98.445035, 153.522012 95.195649" stroke-width="0.500000" />
<path stroke="#ebdffa" stroke-opacity="0.501961" fill="none" d="M 78.351330 70.309301 Q 69.204582 74.191681, 62.684276 86.675122" stroke-width="0.500000" />
<path stroke="#040310" stroke-opacity="0.501961" fill="none" d="M 267.703949 6.207117 Q -7.224844 -16.000000, 12.356336 173.246025" stroke-width="0.500000" />
<path stroke="#060410" stroke-opacity="0.501961" fill="none" d="M 257.062669 28.374210 Q -16.000000 -16.000000, 8.355638 168.495591" stroke-width="0.500000" />
<path stroke="#fffaff" stroke-opacity="0.501961" fill="none" d="M 190.829578 68.414750 Q 172.346280 86.394715, 179.700133 93.989390" stroke-width="0.500000" />
<path stroke="#ddc7f7" stroke-opacity="0.501961" fill="none" d="M 64.344060 87.628264 Q 68.344955 79.760961, 74.798311 71.434215" stroke-width="0.500000" />
<path stroke="#c696b7" stroke-opacity="0.501961" fill="none" d="M 152.964347 97.681022 Q 151.257621 70.599499, 155.369635 41.252393" stroke-width="0.500000" />
<path stroke="#bca6e0" stroke-opacity="0.501961" fill="none" d="M 67.661109 125.424257 Q 61.424163 106.879206, 35.335478 111.702576" stroke-width="0.500000" />
<path stroke="#e3adc2" stroke-opacity="0.501961" fill="none" d="M 196.518987 35.564732 Q 177.223537 52.113898, 171.251816 47.630345" stroke-width="0.500000" />
<path stroke="#050411" stroke-opacity="0.501961" fill="none" d="M 252.913977 83.702550 Q 260.556569 185.000000, -16.000000 166.280596" stroke-width="0.500000" />
<path stroke="#ffe9ee" stroke-opacity="0.501961" fill="none" d="M 181.921005 57.548753 Q 210.764965 76.220374, 196.151371 90.612928" stroke-width="0.500000" />
<path stroke="#fff0ff" stroke-opacity="0.501961" fill="none" d="M 150.012306 96.042186 Q 156.921040 95.692329, 160.722899 85.924448" stroke-width="0.500000" />
<path stroke="#b47d9b" stroke-opacity="0.501961" fill="none" d="M 185.123476 98.329746 Q 170.868126 39.155603, 200.619875 37.241805" stroke-width="0.500000" />
<path stroke="#040310" stroke-opacity="0.501961" fill="none" d="M 261.494957 3.572367 Q -16.000000 -15.328020, -0.127724 117.302427" stroke-width="0.500000" />
<path stroke="#060410" stroke-opacity="0.501961" fill="none" d="M 255.063642 97.374447 Q 255.659004 -12.451197, -10.565851 14.358434" stroke-width="0.500000" />
<path stroke="#f1ccf2" stroke-opacity="0.501961" fill="none" d="M 153.147793 97.028438 Q 157.180544 95.772267, 164.407014 83.092725" stroke-width="0.500000" />
<path stroke="#060512" stroke-opacity="0.501961" fill="none" d="M -6.931573 163.085186 Q 271.000000 174.843074, 251.055559 53.974565" stroke-width="0.500000" />
<path stroke="#ffffff" stroke-opacity="0.501961" fill="none" d="M 98.331662 67.650844 Q 101.652371 89.227594, 111.326597 87.891579" stroke-width="0.500000" />
<path stroke="#e6bfd0" stroke-opacity="0.501961" fill="none" d="M 184.257724 122.295140 Q 191.584243 124.135132, 207.571515 112.611506" stroke-width="0.500000" />
<path stroke="#060411" stroke-opacity="0.501961" fill="none" d="M 260.961893 26.556398 Q -16.000000 -16.000000, 5.162970 152.791197" stroke-width="0.500000" />
<path stroke="#cebad4" stroke-opacity="0.501961" fill="none" d="M 166.842640 125.793452 Q 68.128725 125.495897, 65.908869 118.180685" stroke-width="0.500000" />
<path stroke="#9f7ab1" stroke-opacity="0.501961" fill="none" d="M 84.452703 78.927006 Q 86.663132 72.787331, 89.398545 40.538899" stroke-width="0.500000" />
<path stroke="#080513" stroke-opacity="0.501961" fill="none" d="M 233.634392 16.327599 Q 250.875729 185.000000, 42.616790 165.439435" stroke-width="0.500000" />
<path stroke="#070512" stroke-opacity="0.501961" fill="none" d="M 258.752131 8.511777 Q -1.793044 -2.069824, 16.940025 154.658679" stroke-width="0.500000" />
<path stroke="#060412" stroke-opacity="0.501961" fill="none" d="M 244.104606 0.770864 Q 271.000000 185.000000, 64.400312 167.982452" stroke-width="0.500000" />
<path stroke="#d1b2c5" stroke-opacity="0.501961" fill="none" d="M 124.181369 92.542925 Q 154.104154 62.677842, 124.310051 38.039053" stroke-width="0.500000" />
<path stroke="#a86681" stroke-opacity="0.501961" fill="none" d="M 186.535797 37.715360 Q 206.811441 43.588296, 196.422028 87.181842" stroke-width="0.500000" />
<path stroke="#060411" stroke-opacity="0.501961" fill="none" d="M -1.275880 5.253506 Q 271.000000 -16.000000, 254.312916 130.823466" stroke-width="0.500000" />
<path stroke="#070615" stroke-opacity="0.501961" fill="none" d="M -0.448617 -1.102908 Q -16.000000 185.000000, 264.313711 168.363927" stroke-width="0.500000" />
<path stroke="#060411" stroke-opacity="0.501961" fill="none" d="M 23.963079 167.725237 Q -0.322014 -16.000000, 271.000000 8.646325" stroke-width="0.500000" />
<path stroke="#e4c6db" stroke-opacity="0.501961" fill="none" d="M 131.296276 43.486943 Q 109.169266 28.624118, 95.415511 59.227982" stroke-width="0.500000" />
<path stroke="#d8c3ef" stroke-opacity="0.501961" fill="none" d="M 80.424177 86.606483 Q 61.213101 80.681384, 59.024515 84.061296" stroke-width="0.500000" />
<path stroke="#b388c1" stroke-opacity="0.501961" fill="none" d="M 63.259436 63.505834 Q 64.983201 38.475469, 89.121206 39.454517" stroke-width="0.500000" />
<path stroke="#050411" stroke-opacity="0.501961" fill="none" d="M 2.604931 168.994014 Q -13.875315 -16.000000, 185.499663 3.644068" stroke-width="0.500000" />
<path stroke="#ecc4db" stroke-opacity="0.501961" fill="none" d="M 197.434471 66.719025 Q 167.603639 81.477700, 182.965439 96.879182" stroke-width="0.500000" />
<path stroke="#e1b7e4" stroke-opacity="0.501961" fill="none" d="M 162.083751 82.575223 Q 156.545244 92.300013, 157.884277 98.518870" stroke-width="0.500000" />
<path stroke="#070616" stroke-opacity="0.501961" fill="none" d="M 8.878860 8.926664 Q -16.000000 185.000000, 266.461356 160.182217" stroke-width="0.500000" />
<path stroke="#0a0716" stroke-opacity="0.501961" fill="none" d="M 252.753375 12.735720 Q 255.153111 170.618635, 12.837021 157.226231" stroke-width="0.500000" />
<path stroke="#070614" stroke-opacity="0.501961" fill="none" d="M 8.811412 165.953843 Q 271.000000 181.970147, 254.397913 8.311785" stroke-width="0.500000" />
<path stroke="#060411" stroke-opacity="0.501961" fill="none" d="M 239.688853 5.552245 Q -16.000000 -14.965426, 11.499259 182.103652" stroke-width="0.500000" />
<path stroke="#ccacd9" stroke-opacity="0.501961" fill="none" d="M 106.760480 92.114260 Q 99.678956 79.667065, 95.493928 65.594983" stroke-width="0.500000" />
<path stroke="#070512" stroke-opacity="0.501961" fill="none" d="M 271.000000 18.617436 Q -16.000000 -7.462196, 3.175743 131.431916" stroke-width="0.500000" />
<path stroke="#be93af" stroke-opacity="0.501961" fill="none" d="M 154.997708 126.418041 Q 188.709978 125.670169, 205.903797 113.092127" stroke-width="0.500000" />
<path stroke="#cc94ba" stroke-opacity="0.501961" fill="none" d="M 108.894469 40.043041 Q 114.813947 31.934516, 137.396888 51.876806" stroke-width="0.500000" />
<path stroke="#be80a5" stroke-opacity="0.501961" fill="none" d="M 146.642515 31.572746 Q 158.732327 60.910470, 152.952996 67.029555" stroke-width="0.500000" />
<path stroke="#ba759f" stroke-opacity="0.501961" fill="none" d="M 178.049228 94.239190 Q 196.812275 99.685319, 202.406098 72.592208" stroke-width="0.500000" />
<path stroke="#e9d3e2" stroke-opacity="0.501961" fill="none" d="M 135.436204 82.402539 Q 121.866556 95.995230, 112.055601 93.665167" stroke-width="0.500000" />
<path stroke="#dbd1fb" stroke-opacity="0.501961" fill="none" d="M 36.637506 115.288593 Q 41.437680 104.043647, 54.779549 115.072998" stroke-width="0.500000" />
<path stroke="#060513" stroke-opacity="0.501961" fill="none" d="M -1.340085 171.020171 Q 32.595430 102.298442, 266.299842 170.160222" stroke-width="0.500000" />
<path stroke="#d2bbdc" stroke-opacity="0.501961" fill="none" d="M 62.819037 61.926906 Q 75.889541 36.137846, 86.577186 41.169979" stroke-width="0.500000" />
<path stroke="#060411" stroke-opacity="0.501961" fill="none" d="M 16.287386 162.994103 Q -16.000000 -16.000000, 154.312286 3.446373" stroke-width="0.500000" />
<path stroke="#080512" stroke-opacity="0.501961" fill="none" d="M -4.459399 7.985516 Q 271.000000 -15.420447, 248.510581 134.835713" stroke-width="0.500000" />
<path stroke="#090613" stroke-opacity="0.501961" fill="none" d="M 218.968350 25.417815 Q -13.876576 -3.662128, 24.448859 175.221532" stroke-width="0.500000" />
<path stroke="#eac8cf" stroke-opacity="0.501961" fill="none" d="M 192.411129 34.800764 Q 210.861303 53.530540, 184.962953 72.392986" stroke-width="0.500000" />
<path stroke="#070512" stroke-opacity="0.501961" fill="none" d="M 251.594722 10.307416 Q -9.011432 -16.000000, -0.182495 87.101522" stroke-width="0.500000" />
<path stroke="#070614" stroke-opacity="0.501961" fill="none" d="M 2.631792 61.763462 Q 0.717520 185.000000, 266.585650 144.026879" stroke-width="0.500000" />
<path stroke="#9174ab" stroke-opacity="0.501961" fill="none" d="M 109.182609 86.219767 Q 67.163362 70.366352, 56.350565 95.097273" stroke-width="0.500000" />
<path stroke="#8f73a9" stroke-opacity="0.501961" fill="none" d="M 41.320941 107.078627 Q 93.714671 125.962646, 131.970648 126.667804" stroke-width="0.500000" />
<path stroke="#060412" stroke-opacity="0.501961" fill="none" d="M 245.711457 0.292495 Q 271.000000 182.823237, 109.056745 165.996204" stroke-width="0.500000" />
<path stroke="#070512" stroke-opacity="0.501961" fill="none" d="M 250.466880 23.608233 Q -6.346667 -16.000000, 1.333840 110.790261" stroke-width="0.500000" />
<path stroke="#d5a3b8" stroke-opacity="0.501961" fill="none" d="M 174.125303 46.323045 Q 188.824917 49.467239, 200.999081 91.540573" stroke-width="0.500000" />
<path stroke="#070613" stroke-opacity="0.501961" fill="none" d="M 262.803343 172.756155 Q 34.962268 99.232220, -10.114751 185.000000" stroke-width="0.500000" />
<path stroke="#a45e8e" stroke-opacity="0.501961" fill="none" d="M 142.730508 34.351218 Q 151.713078 40.951175, 148.026416 62.825513" stroke-width="0.500000" />
<path stroke="#bea8dd" stroke-opacity="0.501961" fill="none" d="M 87.575177 120.253011 Q 75.679315 121.151352, 65.412802 124.003132" stroke-width="0.500000" />
<path stroke="#090715" stroke-opacity="0.501961" fill="none" d="M 244.059986 -5.494953 Q 259.965244 185.000000, 16.617537 156.616835" stroke-width="0.500000" />
<path stroke="#070613" stroke-opacity="0.501961" fill="none" d="M 5.566508 161.588163 Q 271.000000 182.754055, 254.235183 55.524898" stroke-width="0.500000" />
<path stroke="#eed9ed" stroke-opacity="0.501961" fill="none" d="M 119.741223 94.426984 Q 101.989463 89.771722, 110.098599 75.454067" stroke-width="0.500000" />
<path stroke="#0a0612" stroke-opacity="0.501961" fill="none" d="M 1.244799 113.699028 Q -1.285970 -16.000000, 269.398183 39.929856" stroke-width="0.500000" />
<path stroke="#070512" stroke-opacity="0.501961" fill="none" d="M 90.805594 168.599343 Q 269.681312 184.160473, 212.378900 -0.256486" stroke-width="0.500000" />
<path stroke="#080613" stroke-opacity="0.501961" fill="none" d="M 220.780776 12.824110 Q -13.904731 -14.880377, 5.763960 172.283912" stroke-width="0.500000" />
<path stroke="#96709b" stroke-opacity="0.501961" fill="none" d="M 111.910127 93.116169 Q 100.134348 49.371591, 82.371448 35.920956" stroke-width="0.500000" />
<path stroke="#d2a8d6" stroke-opacity="0.501961" fill="none" d="M 164.540879 83.755947 Q 155.935620 83.939705, 154.360699 101.328349" stroke-width="0.500000" />
<path stroke="#f8e0eb" stroke-opacity="0.501961" fill="none" d="M 148.938662 30.680101 Q 151.286411 53.515969, 151.505568 67.739310" stroke-width="0.500000" />
<path stroke="#814b95" stroke-opacity="0.501961" fill="none" d="M 62.377876 59.184697 Q 63.745327 44.295000, 83.188272 36.771180" stroke-width="0.500000" />
<path stroke="#f5e5f6" stroke-opacity="0.501961" fill="none" d="M 111.174334 88.912632 Q 89.415853 75.938767, 102.660465 47.259034" stroke-width="0.500000" />
<path stroke="#cd9fbd" stroke-opacity="0.501961" fill="none" d="M 148.385145 29.385534 Q 139.013598 43.728038, 116.163519 38.892668" stroke-width="0.500000" />
<path stroke="#c687b4" stroke-opacity="0.501961" fill="none" d="M 184.331141 68.548846 Q 172.972106 77.967272, 183.487913 93.831824" stroke-width="0.500000" />
<path stroke="#090715" stroke-opacity="0.501961" fill="none" d="M 254.435015 62.636017 Q 257.318823 185.000000, 5.480727 138.044900" stroke-width="0.500000" />
<path stroke="#fff6ff" stroke-opacity="0.501961" fill="none" d="M 160.349982 96.432407 Q 152.231198 97.496286, 152.854601 89.502565" stroke-width="0.500000" />
<path stroke="#060512" stroke-opacity="0.501961" fill="none" d="M 250.838768 -16.000000 Q 271.000000 179.479505, 142.912615 169.354855" stroke-width="0.500000" />
<path stroke="#090716" stroke-opacity="0.501961" fill="none" d="M 271.000000 129.635207 Q -4.314898 185.000000, 1.193097 42.160829" stroke-width="0.500000" />
<path stroke="#9077b1" stroke-opacity="0.501961" fill="none" d="M 90.882152 128.033149 Q 52.976659 100.581063, 33.407036 113.554624" stroke-width="0.500000" />
<path stroke="#f4e6f0" stroke-opacity="0.501961" fill="none" d="M 71.774428 45.330150 Q 86.062755 34.778704, 90.143761 47.432998" stroke-width="0.500000" />
<path stroke="#885d97" stroke-opacity="0.501961" fill="none" d="M 84.684844 42.411073 Q 95.563531 47.004048, 101.112523 96.026823" stroke-width="0.500000" />
<path stroke="#070513" stroke-opacity="0.501961" fill="none" d="M 120.310359 167.414388 Q 271.000000 185.000000, 247.767011 -4.768011" stroke-width="0.500000" />
<path stroke="#ffffff" stroke-opacity="0.501961" fill="none" d="M 111.778303 90.563967 Q 101.552307 86.479316, 101.241829 76.264122" stroke-width="0.500000" />
<path stroke="#ffffff" stroke-opacity="0.501961" fill="none" d="M 49.700136 111.748698 Q 39.767386 109.143309, 35.808540 113.524937" stroke-width="0.500000" />
<path stroke="#fffffe" stroke-opacity="0.501961" fill="none" d="M 181.261377 50.749711 Q 183.348170 34.188059, 195.368159 38.314834" stroke-width="0.500000" />
<path stroke="#d3b9f4" stroke-opacity="0.501961" fill="none" d="M 59.257869 89.688939 Q 62.662336 76.064531, 71.726253 83.175706" stroke-width="0.500000" />
<path stroke="#080613" stroke-opacity="0.501961" fill="none" d="M 247.703757 51.752247 Q 245.569156 -16.000000, 6.806546 12.046241" stroke-width="0.500000" />
<path stroke="#0e0917" stroke-opacity="0.501961" fill="none" d="M 271.000000 88.968791 Q 6.461468 142.705235, -1.020226 54.273240" stroke-width="0.500000" />
<path stroke="#efd5db" stroke-opacity="0.501961" fill="none" d="M 189.030752 76.071455 Q 190.674067 61.907904, 177.940005 47.550990" stroke-width="0.500000" />
<path stroke="#d8b7c1" stroke-opacity="0.501961" fill="none" d="M 206.538266 94.111348 Q 197.623562 64.378457, 174.494801 45.846936" stroke-width="0.500000" />
<path stroke="#decbdf" stroke-opacity="0.501961" fill="none" d="M 65.818233 56.735596 Q 73.791399 31.337425, 93.681644 47.136803" stroke-width="0.500000" />
<path stroke="#b98ab4" stroke-opacity="0.501961" fill="none" d="M 85.314350 58.734873 Q 117.916603 29.043426, 132.095673 42.571116" stroke-width="0.500000" />
<path stroke="#080613" stroke-opacity="0.501961" fill="none" d="M 239.387506 -10.919531 Q 271.000000 180.377116, 84.289241 164.426398" stroke-width="0.500000" />
<path stroke="#c08aa1" stroke-opacity="0.501961" fill="none" d="M 177.780554 75.626868 Q 207.251241 56.859252, 195.719411 37.087548" stroke-width="0.500000" />
<path stroke="#080715" stroke-opacity="0.501961" fill="none" d="M 271.000000 152.098825 Q 16.503700 178.908801, 4.986256 91.044995" stroke-width="0.500000" />
<path stroke="#090613" stroke-opacity="0.501961" fill="none" d="M -6.422202 -0.110440 Q 201.086359 45.441615, 252.697498 0.795795" stroke-width="0.500000" />
<path stroke="#090716" stroke-opacity="0.501961" fill="none" d="M 251.751895 163.613333 Q -9.632986 185.000000, 5.799928 22.787412" stroke-width="0.500000" />
<path stroke="#f6d0dd" stroke-opacity="0.501961" fill="none" d="M 201.577123 76.483094 Q 201.171217 97.247191, 186.519502 95.542055" stroke-width="0.500000" />
<path stroke="#cda0b6" stroke-opacity="0.501961" fill="none" d="M 137.665239 60.078274 Q 140.189495 28.710466, 152.485098 30.437800" stroke-width="0.500000" />
<path stroke="#090714" stroke-opacity="0.501961" fill="none" d="M -0.644405 112.290700 Q -9.311489 -2.875074, 259.286897 16.138085" stroke-width="0.500000" />
<path stroke="#070513" stroke-opacity="0.501961" fill="none" d="M 130.454923 6.759249 Q -16.000000 16.934461, 34.651194 171.436637" stroke-width="0.500000" />
<path stroke="#080613" stroke-opacity="0.501961" fill="none" d="M 226.702268 -1.774583 Q 247.943103 145.411143, 100.469200 112.583278" stroke-width="0.500000" />
<path stroke="#e9d0d7" stroke-opacity="0.501961" fill="none" d="M 191.912570 74.198927 Q 182.328769 43.420442, 170.239833 48.288568" stroke-width="0.500000" />
<path stroke="#090714" stroke-opacity="0.501961" fill="none" d="M 17.068678 157.097703 Q -12.725124 -6.816281, 258.110614 19.708843" stroke-width="0.500000" />
<path stroke="#0b0715" stroke-opacity="0.501961" fill="none" d="M 254.996141 83.290011 Q 4.195129 175.747511, 1.835342 -16.000000" stroke-width="0.500000" />
<path stroke="#e4d4e7" stroke-opacity="0.501961" fill="none" d="M 101.195530 48.023848 Q 91.078393 83.139056, 115.068153 94.861826" stroke-width="0.500000" />
<path stroke="#0a0714" stroke-opacity="0.501961" fill="none" d="M 254.977140 151.054373 Q 254.190221 -16.000000, 57.330942 4.293176" stroke-width="0.500000" />
<path stroke="#0c0715" stroke-opacity="0.501961" fill="none" d="M 7.429760 152.281437 Q -1.730815 -16.000000, 271.000000 35.831292" stroke-width="0.500000" />
<path stroke="#fff5ff" stroke-opacity="0.501961" fill="none" d="M 153.619640 96.097375 Q 159.498690 89.779699, 163.357167 84.494862" stroke-width="0.500000" />
<path stroke="#b3a3c5" stroke-opacity="0.501961" fill="none" d="M 130.696375 125.598707 Q 57.384460 124.912552, 37.197030 107.646242" stroke-width="0.500000" />
<path stroke="#0c0714" stroke-opacity="0.501961" fill="none" d="M 244.433624 124.621763 Q 258.838508 -16.000000, -16.000000 17.336701" stroke-width="0.500000" />
<path stroke="#090715" stroke-opacity="0.501961" fill="none" d="M 271.000000 177.627775 Q 202.642931 112.263623, -16.000000 162.779905" stroke-width="0.500000" />
<path stroke="#090715" stroke-opacity="0.501961" fill="none" d="M 259.942855 159.926054 Q 7.964887 103.330452, -4.606453 177.778640" stroke-width="0.500000" />
<path stroke="#b96e97" stroke-opacity="0.501961" fill="none" d="M 180.796224 97.281336 Q 206.919270 97.763919, 201.610456 75.385949" stroke-width="0.500000" />
<path stroke="#f6e5ea" stroke-opacity="0.501961" fill="none" d="M 195.124029 67.528676 Q 173.982719 50.678766, 189.939157 34.220833" stroke-width="0.500000" />
<path stroke="#d2a4c2" stroke-opacity="0.501961" fill="none" d="M 189.127665 99.229284 Q 165.856606 82.066255, 194.949087 65.854441" stroke-width="0.500000" />
<path stroke="#060512" stroke-opacity="0.501961" fill="none" d="M 271.000000 -4.854319 Q 164.150876 39.536549, 264.903029 184.682305" stroke-width="0.500000" />
<path stroke="#090718" stroke-opacity="0.501961" fill="none" d="M -4.668421 -2.315400 Q 94.790100 47.154654, 5.188322 157.225202" stroke-width="0.500000" />
<path stroke="#b996a9" stroke-opacity="0.501961" fill="none" d="M 181.154269 124.991977 Q 164.223954 122.406246, 144.045812 126.152693" stroke-width="0.500000" />
<path stroke="#cfbceb" stroke-opacity="0.501961" fill="none" d="M 75.144148 81.547892 Q 62.196777 79.380742, 61.661254 86.213650" stroke-width="0.500000" />
<path stroke="#0a0817" stroke-opacity="0.501961" fill="none" d="M 258.404843 135.043824 Q 7.580583 177.688793, 5.983938 69.001432" stroke-width="0.500000" />
<path stroke="#0b0817" stroke-opacity="0.501961" fill="none" d="M 246.098246 93.624144 Q 18.347322 174.749693, 10.922741 -7.752718" stroke-width="0.500000" />
<path stroke="#965a88" stroke-opacity="0.501961" fill="none" d="M 135.403147 54.436365 Q 121.131275 27.604552, 95.755102 54.593545" stroke-width="0.500000" />
<path stroke="#9c6086" stroke-opacity="0.501961" fill="none" d="M 173.282645 102.511286 Q 184.035096 56.367405, 192.255404 38.075672" stroke-width="0.500000" />
<path stroke="#0c0714" stroke-opacity="0.501961" fill="none" d="M 249.636324 40.260729 Q 21.902339 -11.430673, 0.619730 37.752072" stroke-width="0.500000" />
<path stroke="#0b0815" stroke-opacity="0.501961" fill="none" d="M 238.003066 28.472974 Q -13.915386 -16.000000, 6.789220 168.668770" stroke-width="0.500000" />
<path stroke="#b77091" stroke-opacity="0.501961" fill="none" d="M 203.892106 76.147793 Q 163.848726 57.708755, 188.845283 33.526151" stroke-width="0.500000" />
<path stroke="#090613" stroke-opacity="0.501961" fill="none" d="M 136.834077 2.606439 Q 233.792326 -16.000000, 231.238629 185.000000" stroke-width="0.500000" />
<path stroke="#090714" stroke-opacity="0.501961" fill="none" d="M 2.905615 84.046489 Q -2.090735 -16.000000, 271.000000 14.364794" stroke-width="0.500000" />
<path stroke="#f8eaff" stroke-opacity="0.501961" fill="none" d="M 63.536590 60.156346 Q 67.614068 57.298113, 67.400321 54.722920" stroke-width="0.500000" />
<path stroke="#0a0715" stroke-opacity="0.501961" fill="none" d="M 228.775491 10.436828 Q 271.000000 185.000000, 69.053895 154.548300" stroke-width="0.500000" />
<path stroke="#a05a86" stroke-opacity="0.501961" fill="none" d="M 146.659175 40.306685 Q 161.686907 50.222792, 151.658924 76.522843" stroke-width="0.500000" />
<path stroke="#0b0815" stroke-opacity="0.501961" fill="none" d="M -7.254463 3.603072 Q 269.800233 -16.000000, 248.048353 116.368816" stroke-width="0.500000" />
<path stroke="#0d0918" stroke-opacity="0.501961" fill="none" d="M 261.189313 82.051011 Q 37.097637 177.626034, 3.122475 6.429976" stroke-width="0.500000" />
<path stroke="#cea1d0" stroke-opacity="0.501961" fill="none" d="M 150.217130 92.226033 Q 154.517609 89.920170, 162.459091 89.570298" stroke-width="0.500000" />
<path stroke="#080614" stroke-opacity="0.501961" fill="none" d="M 21.673116 169.299209 Q -15.139514 -16.000000, 164.386705 16.987691" stroke-width="0.500000" />
<path stroke="#eddfec" stroke-opacity="0.501961" fill="none" d="M 111.363171 90.819462 Q 94.360990 84.124464, 99.395980 47.627952" stroke-width="0.500000" />
<path stroke="#100a1b" stroke-opacity="0.501961" fill="none" d="M 1.037544 154.518478 Q 124.557345 185.000000, 171.837887 75.919198" stroke-width="0.500000" />
<path stroke="#ece3fc" stroke-opacity="0.501961" fill="none" d="M 62.287628 81.693162 Q 69.362914 87.171104, 72.673242 80.850298" stroke-width="0.500000" />
<path stroke="#0b0918" stroke-opacity="0.501961" fill="none" d="M -16.000000 185.000000 Q 7.927212 99.483263, 256.916748 155.560846" stroke-width="0.500000" />
<path stroke="#110716" stroke-opacity="0.501961" fill="none" d="M 197.454258 60.402611 Q 244.515987 20.596635, 259.319239 -7.413202" stroke-width="0.500000" />
<path stroke="#e4dbec" stroke-opacity="0.501961" fill="none" d="M 55.242896 119.045573 Q 86.238682 122.888601, 97.655533 124.686142" stroke-width="0.500000" />
<path stroke="#e2d7ec" stroke-opacity="0.501961" fill="none" d="M 78.128720 68.895983 Q 70.795481 78.307121, 58.748263 86.706530" stroke-width="0.500000" />
<path stroke="#090715" stroke-opacity="0.501961" fill="none" d="M 2.059044 143.985063 Q 246.177057 170.776604, 256.190151 107.820094" stroke-width="0.500000" />
<path stroke="#cba1ca" stroke-opacity="0.501961" fill="none" d="M 165.017803 84.445242 Q 152.468809 88.768059, 155.054278 94.028699" stroke-width="0.500000" />
<path stroke="#0a0816" stroke-opacity="0.501961" fill="none" d="M 238.232565 167.825716 Q -9.179863 185.000000, 3.456356 23.588120" stroke-width="0.500000" />
<path stroke="#0b0816" stroke-opacity="0.501961" fill="none" d="M 271.000000 15.102023 Q 3.314977 -16.000000, 30.947607 145.219426" stroke-width="0.500000" />
</g>
</svg>