<svg xmlns="http://www.w3.org/2000/svg" version="1.1" width="750" height="498">
<rect x="0" y="0" width="750" height="498" fill="#2b452d" />
<g transform="scale(2.929688) translate(0.5 0.5)">
<path stroke="#ffffff" stroke-opacity="0.501961" fill="none" d="M 90.357625 66.623782 Q 119.728031 126.097737, 170.556994 70.809862" stroke-width="0.500000" />
<path stroke="#ffffff" stroke-opacity="0.501961" fill="none" d="M 90.345342 63.031770 Q 116.809914 124.524227, 169.609909 70.066298" stroke-width="0.500000" />
<path stroke="#ffffff" stroke-opacity="0.501961" fill="none" d="M 171.653877 71.208362 Q 140.136226 115.767207, 83.618976 87.333425" stroke-width="0.500000" />
<path stroke="#ffffff" stroke-opacity="0.501961" fill="none" d="M 89.226226 69.411104 Q 120.536594 128.540366, 170.972706 71.637528" stroke-width="0.500000" />
<path stroke="#ffffff" stroke-opacity="0.501961" fill="none" d="M 86.624324 90.512810 Q 132.435129 121.820787, 146.507148 53.936869" stroke-width="0.500000" />
<path stroke="#ffffff" stroke-opacity="0.501961" fill="none" d="M 87.992295 66.317201 Q 130.217839 115.648311, 166.426926 71.153684" stroke-width="0.500000" />
<path stroke="#ffffff" stroke-opacity="0.501961" fill="none" d="M 167.890533 81.564377 Q 103.165954 47.575784, 95.434079 102.971002" stroke-width="0.500000" />
<path stroke="#ffffff" stroke-opacity="0.501961" fill="none" d="M 170.737646 72.114661 Q 132.296414 128.937480, 92.005486 63.695824" stroke-width="0.500000" />
<path stroke="#ffffff" stroke-opacity="0.501961" fill="none" d="M 165.847458 70.706006 Q 127.274307 114.299974, 83.240810 57.582713" stroke-width="0.500000" />
<path stroke="#ffffff" stroke-opacity="0.501961" fill="none" d="M 148.003136 56.917462 Q 145.315669 89.796736, 41.328963 67.298876" stroke-width="0.500000" />
<path stroke="#ffffff" stroke-opacity="0.501961" fill="none" d="M 84.524741 84.288604 Q 133.132279 117.168246, 146.053096 52.357440" stroke-width="0.500000" />
<path stroke="#ffffff" stroke-opacity="0.501961" fill="none" d="M 83.539500 95.312467 Q 148.309000 122.205878, 141.559611 48.817491" stroke-width="0.500000" />
<path stroke="#ffffff" stroke-opacity="0.501961" fill="none" d="M 84.515292 95.355003 Q 125.439618 81.763056, 168.140712 56.140925" stroke-width="0.500000" />
<path stroke="#ffffff" stroke-opacity="0.501961" fill="none" d="M 52.574326 77.129403 Q 145.630507 62.467262, 145.429113 106.750458" stroke-width="0.500000" />
<path stroke="#fef4fe" stroke-opacity="0.501961" fill="none" d="M 55.441757 79.623699 Q 147.424848 53.569073, 147.533460 108.376829" stroke-width="0.500000" />
<path stroke="#ffffff" stroke-opacity="0.501961" fill="none" d="M 87.942088 66.595630 Q 125.262659 117.046496, 169.125347 72.793014" stroke-width="0.500000" />
<path stroke="#fff6ff" stroke-opacity="0.501961" fill="none" d="M 93.358473 99.410177 Q 110.925218 39.135815, 166.155870 84.184238" stroke-width="0.500000" />
<path stroke="#ffffff" stroke-opacity="0.501961" fill="none" d="M 84.960339 79.314357 Q 128.683006 37.669908, 150.139500 103.062131" stroke-width="0.500000" />
<path stroke="#ffffff" stroke-opacity="0.501961" fill="none" d="M 166.772662 58.821281 Q 95.224652 102.922479, 84.557336 94.383357" stroke-width="0.500000" />
<path stroke="#ffffff" stroke-opacity="0.501961" fill="none" d="M 171.117931 59.206120 Q 97.834330 70.391013, 105.699338 104.994107" stroke-width="0.500000" />
<path stroke="#ffffff" stroke-opacity="0.501961" fill="none" d="M 158.061155 89.690252 Q 122.155837 45.410753, 95.586740 99.495939" stroke-width="0.500000" />
<path stroke="#fff5ff" stroke-opacity="0.501961" fill="none" d="M 166.798291 75.644542 Q 150.316674 113.560681, 85.779448 95.452178" stroke-width="0.500000" />
<path stroke="#fff7ff" stroke-opacity="0.501961" fill="none" d="M 164.642823 55.020846 Q 155.079232 62.825986, 83.843233 94.599205" stroke-width="0.500000" />
<path stroke="#fff6ff" stroke-opacity="0.501961" fill="none" d="M 70.354404 79.004768 Q 143.185018 50.466812, 143.686943 109.113413" stroke-width="0.500000" />
<path stroke="#ffe7ff" stroke-opacity="0.501961" fill="none" d="M 79.919294 55.728972 Q 127.872600 117.181967, 162.606411 71.209795" stroke-width="0.500000" />
<path stroke="#ffffff" stroke-opacity="0.501961" fill="none" d="M 99.217476 70.343278 Q 128.612987 105.818391, 164.077584 71.789798" stroke-width="0.500000" />
<path stroke="#ffffff" stroke-opacity="0.501961" fill="none" d="M 92.322442 87.886653 Q 151.523187 111.499330, 147.038032 53.625502" stroke-width="0.500000" />
<path stroke="#ffffff" stroke-opacity="0.501961" fill="none" d="M 166.173110 78.644658 Q 116.522776 115.377592, 94.645514 76.082920" stroke-width="0.500000" />
<path stroke="#fff2fd" stroke-opacity="0.501961" fill="none" d="M 82.435277 97.761671 Q 143.947102 111.479312, 127.360466 51.290267" stroke-width="0.500000" />
<path stroke="#fffaff" stroke-opacity="0.501961" fill="none" d="M 85.331701 88.663759 Q 127.216435 118.249475, 148.295000 60.576358" stroke-width="0.500000" />
<path stroke="#ffffff" stroke-opacity="0.501961" fill="none" d="M 101.851670 58.708370 Q 157.501019 79.024633, 139.391276 109.823839" stroke-width="0.500000" />
<path stroke="#ffffff" stroke-opacity="0.501961" fill="none" d="M 106.499382 54.245403 Q 120.284653 115.710072, 160.077370 87.601440" stroke-width="0.500000" />
<path stroke="#ffffff" stroke-opacity="0.501961" fill="none" d="M 95.026489 81.515908 Q 139.835046 45.275508, 150.102600 102.028250" stroke-width="0.500000" />
<path stroke="#ffe3f3" stroke-opacity="0.501961" fill="none" d="M 145.730170 45.712120 Q 131.559802 120.174273, 83.733892 96.760620" stroke-width="0.500000" />
<path stroke="#ffffff" stroke-opacity="0.501961" fill="none" d="M 84.692375 96.332550 Q 111.117360 90.746784, 159.287772 62.119207" stroke-width="0.500000" />
<path stroke="#fff3ff" stroke-opacity="0.501961" fill="none" d="M 149.261325 104.898534 Q 105.221698 106.966664, 124.875989 54.667171" stroke-width="0.500000" />
<path stroke="#ffe6ff" stroke-opacity="0.501961" fill="none" d="M 169.812119 72.267681 Q 137.803536 119.831368, 85.380463 87.352661" stroke-width="0.500000" />
<path stroke="#fffaff" stroke-opacity="0.501961" fill="none" d="M 161.579225 87.227987 Q 126.716531 47.977540, 96.557257 106.205397" stroke-width="0.500000" />
<path stroke="#ffe7f8" stroke-opacity="0.501961" fill="none" d="M 170.826509 71.926511 Q 119.028483 107.432041, 108.109178 48.517116" stroke-width="0.500000" />
<path stroke="#ffddfd" stroke-opacity="0.501961" fill="none" d="M 94.407493 100.002295 Q 100.033510 43.226369, 164.551516 75.275846" stroke-width="0.500000" />
<path stroke="#ffe8ff" stroke-opacity="0.501961" fill="none" d="M 82.581437 96.402696 Q 94.011836 93.544987, 165.502235 56.870646" stroke-width="0.500000" />
<path stroke="#fff9ff" stroke-opacity="0.501961" fill="none" d="M 92.399228 73.712147 Q 148.713746 64.240517, 135.863582 112.822839" stroke-width="0.500000" />
<path stroke="#fff4ff" stroke-opacity="0.501961" fill="none" d="M 137.003940 112.013833 Q 153.509722 61.196887, 107.968457 60.462241" stroke-width="0.500000" />
<path stroke="#fffdff" stroke-opacity="0.501961" fill="none" d="M 87.281966 85.113446 Q 155.784319 108.743902, 161.016929 73.208375" stroke-width="0.500000" />
<path stroke="#fff3ff" stroke-opacity="0.501961" fill="none" d="M 99.975287 104.431872 Q 137.064431 50.110181, 164.285331 61.763175" stroke-width="0.500000" />
<path stroke="#fffdff" stroke-opacity="0.501961" fill="none" d="M 106.289736 57.587137 Q 145.662293 66.795253, 133.055805 110.861822" stroke-width="0.500000" />
<path stroke="#ffe6ff" stroke-opacity="0.501961" fill="none" d="M 128.430722 50.381015 Q 107.362676 104.570955, 145.816644 108.131025" stroke-width="0.500000" />
<path stroke="#ffedff" stroke-opacity="0.501961" fill="none" d="M 95.774999 68.720816 Q 133.068388 114.619778, 168.408677 70.624077" stroke-width="0.500000" />
<path stroke="#fffeff" stroke-opacity="0.501961" fill="none" d="M 125.563929 55.497463 Q 140.296327 98.267231, 90.916105 96.607939" stroke-width="0.500000" />
<path stroke="#ffdafe" stroke-opacity="0.501961" fill="none" d="M 147.274007 50.109445 Q 144.576561 116.925757, 87.001741 97.031501" stroke-width="0.500000" />
<path stroke="#fff4ff" stroke-opacity="0.501961" fill="none" d="M 167.988691 71.927096 Q 124.551779 112.992013, 108.076202 56.236723" stroke-width="0.500000" />
<path stroke="#fff7f9" stroke-opacity="0.501961" fill="none" d="M 93.339087 76.256471 Q 125.907691 130.347252, 158.109211 75.061416" stroke-width="0.500000" />
<path stroke="#ffedff" stroke-opacity="0.501961" fill="none" d="M 93.680607 66.644344 Q 115.554305 117.928268, 161.513716 71.665886" stroke-width="0.500000" />
<path stroke="#fff2ff" stroke-opacity="0.501961" fill="none" d="M 86.537604 87.254114 Q 130.040688 108.122214, 141.677972 57.647323" stroke-width="0.500000" />
<path stroke="#fff1ff" stroke-opacity="0.501961" fill="none" d="M 97.749090 71.694262 Q 139.270225 46.876522, 148.588570 103.281466" stroke-width="0.500000" />
<path stroke="#ffebff" stroke-opacity="0.501961" fill="none" d="M 159.990326 66.685409 Q 97.265092 63.097788, 97.161724 103.125940" stroke-width="0.500000" />
<path stroke="#ffe8ff" stroke-opacity="0.501961" fill="none" d="M 97.012596 102.858864 Q 140.401264 107.418984, 146.391138 56.168704" stroke-width="0.500000" />
<path stroke="#fff8ff" stroke-opacity="0.501961" fill="none" d="M 161.976609 85.784683 Q 106.662044 102.814581, 107.215414 54.377379" stroke-width="0.500000" />
<path stroke="#ffddf4" stroke-opacity="0.501961" fill="none" d="M 152.346844 100.673546 Q 126.041825 39.748301, 86.453495 90.492839" stroke-width="0.500000" />
<path stroke="#fff8ff" stroke-opacity="0.501961" fill="none" d="M 144.852493 101.976807 Q 144.990847 64.989356, 79.075958 76.564558" stroke-width="0.500000" />
<path stroke="#ffe9ff" stroke-opacity="0.501961" fill="none" d="M 89.546244 99.985388 Q 119.570773 105.009249, 128.182930 51.892420" stroke-width="0.500000" />
<path stroke="#ffffff" stroke-opacity="0.501961" fill="none" d="M 111.388473 56.345501 Q 143.626803 82.958884, 132.035342 107.395625" stroke-width="0.500000" />
<path stroke="#fff2ff" stroke-opacity="0.501961" fill="none" d="M 144.560137 55.829616 Q 135.629119 83.608944, 85.401782 89.544042" stroke-width="0.500000" />
<path stroke="#ffd6f4" stroke-opacity="0.501961" fill="none" d="M 103.967656 64.131471 Q 152.437873 50.856847, 144.210003 108.760719" stroke-width="0.500000" />
<path stroke="#ffecff" stroke-opacity="0.501961" fill="none" d="M 90.010634 68.214923 Q 114.448453 121.661976, 163.039718 79.581794" stroke-width="0.500000" />
<path stroke="#ffffff" stroke-opacity="0.501961" fill="none" d="M 148.697238 103.783477 Q 132.617107 87.114845, 110.458004 56.671847" stroke-width="0.500000" />
<path stroke="#ffd2f5" stroke-opacity="0.501961" fill="none" d="M 128.758717 54.562040 Q 88.364791 84.292574, 137.865597 109.074853" stroke-width="0.500000" />
<path stroke="#ffeaff" stroke-opacity="0.501961" fill="none" d="M 147.036662 56.872450 Q 99.959230 105.837235, 86.110137 97.532831" stroke-width="0.500000" />
<path stroke="#fff2ff" stroke-opacity="0.501961" fill="none" d="M 125.422633 52.867017 Q 150.680322 95.471622, 104.243856 98.260479" stroke-width="0.500000" />
<path stroke="#ffd9fb" stroke-opacity="0.501961" fill="none" d="M 84.733073 95.463522 Q 95.857693 87.883096, 145.863217 58.713632" stroke-width="0.500000" />
<path stroke="#fff9fb" stroke-opacity="0.501961" fill="none" d="M 96.055829 68.825419 Q 149.047952 109.711955, 161.430829 78.911366" stroke-width="0.500000" />
<path stroke="#fff1ff" stroke-opacity="0.501961" fill="none" d="M 125.344040 54.155487 Q 118.937351 93.052411, 88.354866 98.253798" stroke-width="0.500000" />
<path stroke="#ffeee6" stroke-opacity="0.501961" fill="none" d="M 139.941748 111.069831 Q 149.285479 74.158791, 91.003767 74.503079" stroke-width="0.500000" />
<path stroke="#ffebff" stroke-opacity="0.501961" fill="none" d="M 160.503699 86.557377 Q 120.158700 111.062076, 109.844491 58.472472" stroke-width="0.500000" />
<path stroke="#bbcdc5" stroke-opacity="0.501961" fill="none" d="M 163.448108 74.946751 Q 80.307768 88.732559, 38.407064 58.697972" stroke-width="0.500000" />
<path stroke="#ffeefe" stroke-opacity="0.501961" fill="none" d="M 96.357864 85.030266 Q 131.908607 49.658222, 150.646992 101.679813" stroke-width="0.500000" />
<path stroke="#f6d2e4" stroke-opacity="0.501961" fill="none" d="M 167.427809 71.169409 Q 106.116171 123.322049, 85.499099 92.759107" stroke-width="0.500000" />
<path stroke="#ffc6ec" stroke-opacity="0.501961" fill="none" d="M 148.050834 54.229150 Q 151.615925 102.661198, 87.884273 86.728199" stroke-width="0.500000" />
<path stroke="#ffe4ff" stroke-opacity="0.501961" fill="none" d="M 106.858350 58.431546 Q 151.812374 79.429663, 146.499311 107.386901" stroke-width="0.500000" />
<path stroke="#ffd2de" stroke-opacity="0.501961" fill="none" d="M 146.333184 52.343236 Q 134.922327 94.931127, 84.895909 96.947219" stroke-width="0.500000" />
<path stroke="#fff0ff" stroke-opacity="0.501961" fill="none" d="M 110.975757 104.701601 Q 107.122524 60.463526, 133.551501 61.285328" stroke-width="0.500000" />
<path stroke="#fccae9" stroke-opacity="0.501961" fill="none" d="M 84.605386 89.000808 Q 146.962614 113.827603, 148.814194 61.953200" stroke-width="0.500000" />
<path stroke="#ffd7ed" stroke-opacity="0.501961" fill="none" d="M 125.816988 53.902309 Q 131.226415 104.470898, 83.925185 86.699634" stroke-width="0.500000" />
<path stroke="#ffe6e2" stroke-opacity="0.501961" fill="none" d="M 132.586074 110.464455 Q 124.374903 59.225819, 107.218792 56.227771" stroke-width="0.500000" />
<path stroke="#fadaef" stroke-opacity="0.501961" fill="none" d="M 92.003393 71.718236 Q 137.795135 54.692883, 143.318874 108.726442" stroke-width="0.500000" />
<path stroke="#f0d8de" stroke-opacity="0.501961" fill="none" d="M 163.180583 83.168935 Q 129.615763 127.588107, 96.921263 76.776647" stroke-width="0.500000" />
<path stroke="#adcbc0" stroke-opacity="0.501961" fill="none" d="M 146.650401 71.875640 Q 84.286293 88.640824, 36.770779 56.797876" stroke-width="0.500000" />
<path stroke="#ffe6f8" stroke-opacity="0.501961" fill="none" d="M 163.244373 81.273191 Q 139.787479 111.929749, 95.851313 76.510737" stroke-width="0.500000" />
<path stroke="#fdddf0" stroke-opacity="0.501961" fill="none" d="M 135.683529 109.651610 Q 144.916034 55.787186, 110.686769 59.041533" stroke-width="0.500000" />
<path stroke="#ffe1e5" stroke-opacity="0.501961" fill="none" d="M 96.576267 98.509022 Q 150.732511 93.499869, 126.397318 51.530207" stroke-width="0.500000" />
<path stroke="#eed1df" stroke-opacity="0.501961" fill="none" d="M 160.527544 58.110819 Q 159.097538 114.685534, 86.840638 94.172064" stroke-width="0.500000" />
<path stroke="#ffe6f5" stroke-opacity="0.501961" fill="none" d="M 83.658192 86.352514 Q 136.182053 92.998653, 126.843325 54.415958" stroke-width="0.500000" />
<path stroke="#ffe1dd" stroke-opacity="0.501961" fill="none" d="M 89.440082 69.614900 Q 156.941700 102.546159, 166.523100 72.352523" stroke-width="0.500000" />
<path stroke="#ffc3ea" stroke-opacity="0.501961" fill="none" d="M 151.685327 100.024728 Q 122.024142 115.369013, 107.866585 61.569088" stroke-width="0.500000" />
<path stroke="#f3dad8" stroke-opacity="0.501961" fill="none" d="M 163.885271 71.291451 Q 126.687636 102.867133, 111.823012 58.590482" stroke-width="0.500000" />
<path stroke="#f8bae2" stroke-opacity="0.501961" fill="none" d="M 129.582107 55.494229 Q 94.815611 92.385094, 144.507117 110.604528" stroke-width="0.500000" />
<path stroke="#001500" stroke-opacity="0.501961" fill="none" d="M 252.646488 7.386324 Q 238.674351 101.112035, -8.093878 159.108391" stroke-width="0.500000" />
<path stroke="#ffe5ec" stroke-opacity="0.501961" fill="none" d="M 146.640826 58.699415 Q 120.865502 93.204520, 84.783026 93.758627" stroke-width="0.500000" />
<path stroke="#ffdcf5" stroke-opacity="0.501961" fill="none" d="M 145.946494 76.576088 Q 120.186568 52.391912, 100.167084 83.800274" stroke-width="0.500000" />
<path stroke="#fff5fd" stroke-opacity="0.501961" fill="none" d="M 145.335788 69.070366 Q 125.633050 64.317722, 100.443920 101.706048" stroke-width="0.500000" />
<path stroke="#feeced" stroke-opacity="0.501961" fill="none" d="M 148.932920 101.699180 Q 119.213668 66.055820, 106.728791 61.630048" stroke-width="0.500000" />
<path stroke="#ffecdb" stroke-opacity="0.501961" fill="none" d="M 126.741013 51.707771 Q 108.598602 91.847054, 152.933108 98.836420" stroke-width="0.500000" />
<path stroke="#f4dcec" stroke-opacity="0.501961" fill="none" d="M 141.150078 58.245686 Q 126.481783 93.562808, 92.888184 68.653524" stroke-width="0.500000" />
<path stroke="#dcd1ca" stroke-opacity="0.501961" fill="none" d="M 148.089951 65.372168 Q 146.891380 112.363799, 92.401568 101.534546" stroke-width="0.500000" />
<path stroke="#9ebfb1" stroke-opacity="0.501961" fill="none" d="M 150.864228 67.303579 Q 38.502187 98.776651, 36.741459 35.563378" stroke-width="0.500000" />
<path stroke="#001500" stroke-opacity="0.501961" fill="none" d="M 247.429195 18.680249 Q 260.260225 80.859096, 5.112459 165.427729" stroke-width="0.500000" />
<path stroke="#fcd8ef" stroke-opacity="0.501961" fill="none" d="M 90.357093 69.574639 Q 122.257641 119.549407, 165.395808 74.340006" stroke-width="0.500000" />
<path stroke="#99abad" stroke-opacity="0.501961" fill="none" d="M 27.791217 42.330052 Q 62.385716 94.539116, 158.929653 57.226303" stroke-width="0.500000" />
<path stroke="#fdcee3" stroke-opacity="0.501961" fill="none" d="M 94.700015 97.820735 Q 152.131106 90.763693, 147.338223 52.386366" stroke-width="0.500000" />
<path stroke="#001600" stroke-opacity="0.501961" fill="none" d="M 247.763687 14.059372 Q 260.418843 129.252147, -3.472411 167.873376" stroke-width="0.500000" />
<path stroke="#529363" stroke-opacity="0.501961" fill="none" d="M 27.046062 45.558069 Q 76.868284 51.218177, 202.477823 8.635065" stroke-width="0.500000" />
<path stroke="#f5cee9" stroke-opacity="0.501961" fill="none" d="M 150.371543 103.501528 Q 153.382838 77.776414, 107.069350 57.817897" stroke-width="0.500000" />
<path stroke="#529164" stroke-opacity="0.501961" fill="none" d="M 24.445952 50.997400 Q 208.275975 19.151318, 212.789589 -8.806958" stroke-width="0.500000" />
<path stroke="#001900" stroke-opacity="0.501961" fill="none" d="M 270.114581 104.002516 Q 40.736885 104.170486, -14.007996 185.000000" stroke-width="0.500000" />
<path stroke="#f4ddf0" stroke-opacity="0.501961" fill="none" d="M 162.668543 73.479253 Q 126.034913 116.431494, 106.475465 67.318684" stroke-width="0.500000" />
<path stroke="#9dc39e" stroke-opacity="0.501961" fill="none" d="M 31.723803 48.791630 Q 35.280531 77.445385, 159.984118 89.882964" stroke-width="0.500000" />
<path stroke="#000000" stroke-opacity="0.501961" fill="none" d="M 10.016313 -0.705662 Q -16.000000 171.277561, 63.927188 169.651096" stroke-width="0.500000" />
<path stroke="#faead9" stroke-opacity="0.501961" fill="none" d="M 144.549175 54.076302 Q 137.101276 100.887506, 94.590831 76.260253" stroke-width="0.500000" />
<path stroke="#f5e1e2" stroke-opacity="0.501961" fill="none" d="M 111.728418 57.201921 Q 141.261816 70.781488, 131.637505 108.045113" stroke-width="0.500000" />
<path stroke="#001901" stroke-opacity="0.501961" fill="none" d="M -16.000000 155.839442 Q 223.072542 112.458024, 251.187175 6.536492" stroke-width="0.500000" />
<path stroke="#ffe1f5" stroke-opacity="0.501961" fill="none" d="M 130.718464 57.769480 Q 122.867448 65.797838, 98.407695 96.431692" stroke-width="0.500000" />
<path stroke="#000400" stroke-opacity="0.501961" fill="none" d="M 271.000000 4.514332 Q 142.371973 40.659668, 234.731576 135.351993" stroke-width="0.500000" />
<path stroke="#000000" stroke-opacity="0.501961" fill="none" d="M 11.587204 -16.000000 Q -15.296159 136.708872, 26.267135 180.096387" stroke-width="0.500000" />
<path stroke="#000000" stroke-opacity="0.501961" fill="none" d="M 0.409635 169.081275 Q 72.041854 162.350584, 68.283949 48.524590" stroke-width="0.500000" />
<path stroke="#f4d1e6" stroke-opacity="0.501961" fill="none" d="M 146.421992 59.575472 Q 148.807035 76.630628, 83.567338 89.028671" stroke-width="0.500000" />
<path stroke="#e6d4dc" stroke-opacity="0.501961" fill="none" d="M 162.429311 84.560308 Q 128.706870 118.621258, 95.138542 66.210743" stroke-width="0.500000" />
<path stroke="#001b00" stroke-opacity="0.501961" fill="none" d="M -16.000000 156.163952 Q 185.173480 170.714679, 231.425240 -8.340392" stroke-width="0.500000" />
<path stroke="#000500" stroke-opacity="0.501961" fill="none" d="M 2.323858 -16.000000 Q -16.000000 165.014944, 61.217942 166.395398" stroke-width="0.500000" />
<path stroke="#000400" stroke-opacity="0.501961" fill="none" d="M 252.192129 8.002097 Q 149.091543 47.372069, 228.450540 130.403601" stroke-width="0.500000" />
<path stroke="#f5d9d3" stroke-opacity="0.501961" fill="none" d="M 125.850496 54.694143 Q 120.907380 102.586186, 136.230278 111.531003" stroke-width="0.500000" />
<path stroke="#e9cbdd" stroke-opacity="0.501961" fill="none" d="M 104.209251 66.423879 Q 157.563093 62.357721, 137.742672 112.396646" stroke-width="0.500000" />
<path stroke="#f4b9e1" stroke-opacity="0.501961" fill="none" d="M 145.458906 56.277254 Q 139.111401 118.536165, 82.582754 87.437792" stroke-width="0.500000" />
<path stroke="#000000" stroke-opacity="0.501961" fill="none" d="M -3.934040 185.000000 Q 31.066794 37.313175, -5.078501 -16.000000" stroke-width="0.500000" />
<path stroke="#001f00" stroke-opacity="0.501961" fill="none" d="M -16.000000 167.320464 Q 251.612433 76.776247, 262.218403 101.121247" stroke-width="0.500000" />
<path stroke="#000500" stroke-opacity="0.501961" fill="none" d="M 243.376877 129.048318 Q 151.116635 69.577705, 248.755423 12.832965" stroke-width="0.500000" />
<path stroke="#000a00" stroke-opacity="0.501961" fill="none" d="M 246.458468 5.582462 Q 148.093846 77.310507, 257.289171 132.449050" stroke-width="0.500000" />
<path stroke="#001000" stroke-opacity="0.501961" fill="none" d="M 237.910601 -9.149575 Q 135.350708 87.173044, 256.580541 132.107457" stroke-width="0.500000" />
<path stroke="#001f00" stroke-opacity="0.501961" fill="none" d="M 233.312510 -14.652030 Q 213.477197 185.000000, 26.864268 72.312904" stroke-width="0.500000" />
<path stroke="#000600" stroke-opacity="0.501961" fill="none" d="M 10.896978 -3.155617 Q -10.975540 185.000000, 92.751069 169.705996" stroke-width="0.500000" />
<path stroke="#000f00" stroke-opacity="0.501961" fill="none" d="M 271.000000 5.288039 Q 140.600755 14.513233, 199.635073 143.343331" stroke-width="0.500000" />
<path stroke="#929ea3" stroke-opacity="0.501961" fill="none" d="M 166.445947 58.665347 Q 53.803297 87.471943, 31.985534 41.981199" stroke-width="0.500000" />
<path stroke="#000000" stroke-opacity="0.501961" fill="none" d="M -16.000000 174.388847 Q 91.274545 160.102348, 65.412681 61.058392" stroke-width="0.500000" />
<path stroke="#001b00" stroke-opacity="0.501961" fill="none" d="M 0.926960 143.289790 Q 271.000000 129.051079, 243.816668 5.745615" stroke-width="0.500000" />
<path stroke="#629d71" stroke-opacity="0.501961" fill="none" d="M 212.115213 -2.142342 Q 158.513156 37.531823, 114.052778 30.613687" stroke-width="0.500000" />
<path stroke="#001f00" stroke-opacity="0.501961" fill="none" d="M 264.524719 6.386540 Q 219.443570 183.296538, 16.895707 72.482707" stroke-width="0.500000" />
<path stroke="#000300" stroke-opacity="0.501961" fill="none" d="M 17.436718 175.621106 Q 17.219508 52.556801, 1.837948 1.360520" stroke-width="0.500000" />
<path stroke="#dcd5d1" stroke-opacity="0.501961" fill="none" d="M 91.877964 75.102479 Q 123.356504 125.665218, 157.250891 73.312774" stroke-width="0.500000" />
<path stroke="#000500" stroke-opacity="0.501961" fill="none" d="M 210.574431 3.177631 Q 257.247234 1.537142, 244.816580 133.348999" stroke-width="0.500000" />
<path stroke="#fcedf2" stroke-opacity="0.501961" fill="none" d="M 105.600682 104.337873 Q 124.150243 68.862282, 131.271283 60.295440" stroke-width="0.500000" />
<path stroke="#011000" stroke-opacity="0.501961" fill="none" d="M 257.226494 135.403712 Q 219.060875 48.328137, 109.576319 42.482849" stroke-width="0.500000" />
<path stroke="#f0d9e6" stroke-opacity="0.501961" fill="none" d="M 99.482145 104.531068 Q 93.983587 65.433896, 147.576701 73.459741" stroke-width="0.500000" />
<path stroke="#002200" stroke-opacity="0.501961" fill="none" d="M 27.427424 68.334051 Q 210.721903 185.000000, 243.348625 3.217798" stroke-width="0.500000" />
<path stroke="#f2d9de" stroke-opacity="0.501961" fill="none" d="M 106.583745 59.420720 Q 142.070448 74.712311, 134.355465 112.051064" stroke-width="0.500000" />
<path stroke="#4f8c5a" stroke-opacity="0.501961" fill="none" d="M 16.189269 70.595015 Q 43.209830 28.527167, 193.218997 25.112507" stroke-width="0.500000" />
<path stroke="#000700" stroke-opacity="0.501961" fill="none" d="M 15.760501 170.194232 Q -12.234630 162.416014, 20.228302 -3.694290" stroke-width="0.500000" />
<path stroke="#000900" stroke-opacity="0.501961" fill="none" d="M 13.290326 -5.535152 Q -16.000000 161.098056, 67.217803 170.857859" stroke-width="0.500000" />
<path stroke="#020000" stroke-opacity="0.501961" fill="none" d="M -16.000000 160.820668 Q 81.216919 174.588000, 67.479906 62.440362" stroke-width="0.500000" />
<path stroke="#001c00" stroke-opacity="0.501961" fill="none" d="M 254.266176 33.613502 Q 271.000000 86.762259, -3.367157 153.020348" stroke-width="0.500000" />
<path stroke="#002302" stroke-opacity="0.501961" fill="none" d="M -5.280137 155.747669 Q 271.000000 126.441301, 227.111945 -16.000000" stroke-width="0.500000" />
<path stroke="#000c00" stroke-opacity="0.501961" fill="none" d="M 249.592226 8.914472 Q 153.701677 81.150360, 262.631685 134.205490" stroke-width="0.500000" />
<path stroke="#f4d9ca" stroke-opacity="0.501961" fill="none" d="M 89.495034 89.807482 Q 153.369783 86.236426, 147.544505 60.659202" stroke-width="0.500000" />
<path stroke="#002601" stroke-opacity="0.501961" fill="none" d="M 228.277218 -8.421561 Q 244.938599 145.632803, 2.170341 135.065118" stroke-width="0.500000" />
<path stroke="#e3d4d2" stroke-opacity="0.501961" fill="none" d="M 146.180628 65.695332 Q 116.970819 117.290531, 94.254353 100.300047" stroke-width="0.500000" />
<path stroke="#000800" stroke-opacity="0.501961" fill="none" d="M 243.494052 128.112279 Q 271.000000 18.497856, 184.743748 28.841335" stroke-width="0.500000" />
<path stroke="#4e8a5e" stroke-opacity="0.501961" fill="none" d="M 222.994396 -16.000000 Q 194.570460 29.874621, 20.351600 52.773333" stroke-width="0.500000" />
<path stroke="#f4e2f0" stroke-opacity="0.501961" fill="none" d="M 127.109145 98.312319 Q 150.799650 70.682946, 109.380464 57.392831" stroke-width="0.500000" />
<path stroke="#051c00" stroke-opacity="0.501961" fill="none" d="M 271.000000 -10.027773 Q 195.622665 101.628603, 10.404620 -5.273740" stroke-width="0.500000" />
<path stroke="#f5d1ea" stroke-opacity="0.501961" fill="none" d="M 167.285604 73.456236 Q 147.418605 108.999312, 96.694360 75.086729" stroke-width="0.500000" />
<path stroke="#000600" stroke-opacity="0.501961" fill="none" d="M -0.030823 -16.000000 Q 5.874788 64.633739, -1.006492 175.442448" stroke-width="0.500000" />
<path stroke="#ebb0d4" stroke-opacity="0.501961" fill="none" d="M 110.522916 50.297297 Q 118.023136 106.439240, 145.395549 106.181675" stroke-width="0.500000" />
<path stroke="#010e00" stroke-opacity="0.501961" fill="none" d="M 232.552297 135.044281 Q 134.952508 50.760138, 255.354315 5.142815" stroke-width="0.500000" />
<path stroke="#000500" stroke-opacity="0.501961" fill="none" d="M 222.867242 132.070590 Q 154.156213 31.343773, 271.000000 12.612824" stroke-width="0.500000" />
<path stroke="#031d05" stroke-opacity="0.501961" fill="none" d="M 247.227580 2.747797 Q 271.000000 134.212483, -11.127318 169.540750" stroke-width="0.500000" />
<path stroke="#000900" stroke-opacity="0.501961" fill="none" d="M 25.012616 185.000000 Q -9.288304 21.601721, 26.122307 -16.000000" stroke-width="0.500000" />
<path stroke="#4b865d" stroke-opacity="0.501961" fill="none" d="M 24.379925 59.098368 Q 209.069338 6.519950, 235.860065 -11.746160" stroke-width="0.500000" />
<path stroke="#001d03" stroke-opacity="0.501961" fill="none" d="M 222.252056 -2.847295 Q 245.952812 111.551192, -7.518941 162.164416" stroke-width="0.500000" />
<path stroke="#000000" stroke-opacity="0.501961" fill="none" d="M 0.676524 169.026662 Q 93.636079 127.448446, 59.607189 81.702438" stroke-width="0.500000" />
<path stroke="#000900" stroke-opacity="0.501961" fill="none" d="M 238.143621 2.797705 Q 271.000000 123.988443, 232.061497 129.906695" stroke-width="0.500000" />
<path stroke="#fbe9f3" stroke-opacity="0.501961" fill="none" d="M 103.704469 103.048701 Q 109.721099 93.683857, 129.482427 57.813737" stroke-width="0.500000" />
<path stroke="#629975" stroke-opacity="0.501961" fill="none" d="M 210.499428 -16.000000 Q 188.493484 38.917794, 133.070273 21.548323" stroke-width="0.500000" />
<path stroke="#000900" stroke-opacity="0.501961" fill="none" d="M 262.274305 126.100275 Q 196.592349 145.038914, 177.564619 34.558718" stroke-width="0.500000" />
<path stroke="#f7ebda" stroke-opacity="0.501961" fill="none" d="M 147.125799 60.479275 Q 116.370485 101.058854, 94.945546 78.645018" stroke-width="0.500000" />
<path stroke="#002402" stroke-opacity="0.501961" fill="none" d="M 1.683916 134.893410 Q 249.267759 129.346965, 216.163088 2.643054" stroke-width="0.500000" />
<path stroke="#002006" stroke-opacity="0.501961" fill="none" d="M -4.738583 166.978934 Q 194.461971 140.348666, 226.225665 2.211700" stroke-width="0.500000" />
<path stroke="#012003" stroke-opacity="0.501961" fill="none" d="M 268.969421 -10.542157 Q 222.185169 185.000000, 19.936385 77.527382" stroke-width="0.500000" />
<path stroke="#dcd4d4" stroke-opacity="0.501961" fill="none" d="M 147.057304 104.018554 Q 130.318558 57.755302, 114.712946 51.363274" stroke-width="0.500000" />
<path stroke="#001000" stroke-opacity="0.501961" fill="none" d="M 228.608218 4.260171 Q 259.850288 5.235440, 255.385684 185.000000" stroke-width="0.500000" />
<path stroke="#010b00" stroke-opacity="0.501961" fill="none" d="M 92.295158 84.567009 Q -9.789457 105.573354, 5.533370 2.505501" stroke-width="0.500000" />
<path stroke="#071d00" stroke-opacity="0.501961" fill="none" d="M 12.050460 -16.000000 Q 170.482521 113.204895, 266.702476 -5.452505" stroke-width="0.500000" />
<path stroke="#001200" stroke-opacity="0.501961" fill="none" d="M 243.978679 130.675340 Q 147.740404 71.844441, 240.127940 2.978735" stroke-width="0.500000" />
<path stroke="#000e00" stroke-opacity="0.501961" fill="none" d="M 213.052217 9.682207 Q 271.000000 10.268894, 250.340265 133.450483" stroke-width="0.500000" />
<path stroke="#000c00" stroke-opacity="0.501961" fill="none" d="M 3.754660 185.000000 Q 17.714823 90.832665, 14.586898 -16.000000" stroke-width="0.500000" />
<path stroke="#eec6e0" stroke-opacity="0.501961" fill="none" d="M 109.024677 56.962332 Q 101.319078 94.524319, 152.659862 99.466682" stroke-width="0.500000" />
<path stroke="#6c8a7f" stroke-opacity="0.501961" fill="none" d="M 271.000000 133.535528 Q 199.888548 147.197832, 189.751341 155.291943" stroke-width="0.500000" />
<path stroke="#dcb1cf" stroke-opacity="0.501961" fill="none" d="M 159.493854 62.689656 Q 151.524757 109.629829, 135.757237 105.534601" stroke-width="0.500000" />
<path stroke="#000000" stroke-opacity="0.501961" fill="none" d="M -5.023954 167.650906 Q 89.156017 136.480478, 37.237350 71.674938" stroke-width="0.500000" />
<path stroke="#e3b3ca" stroke-opacity="0.501961" fill="none" d="M 83.691000 88.111419 Q 133.453345 124.603819, 146.284988 67.554686" stroke-width="0.500000" />
<path stroke="#001500" stroke-opacity="0.501961" fill="none" d="M 219.580660 -1.937087 Q 146.081059 112.458401, 271.000000 135.071344" stroke-width="0.500000" />
<path stroke="#909d9f" stroke-opacity="0.501961" fill="none" d="M 30.011757 38.593776 Q 69.654574 95.357332, 165.041566 56.253700" stroke-width="0.500000" />
<path stroke="#a2b7af" stroke-opacity="0.501961" fill="none" d="M 164.022851 81.899567 Q 137.206215 105.222597, 33.088923 53.782679" stroke-width="0.500000" />
<path stroke="#010400" stroke-opacity="0.501961" fill="none" d="M 66.569527 71.174139 Q 96.647770 142.974972, -16.000000 151.097764" stroke-width="0.500000" />
<path stroke="#488457" stroke-opacity="0.501961" fill="none" d="M 23.961688 44.601806 Q 229.543433 14.288835, 225.052385 -12.592647" stroke-width="0.500000" />
<path stroke="#011400" stroke-opacity="0.501961" fill="none" d="M 255.666173 130.009270 Q 267.939007 56.160877, 92.681153 42.388520" stroke-width="0.500000" />
<path stroke="#001800" stroke-opacity="0.501961" fill="none" d="M 96.523880 125.758186 Q -7.915869 139.090564, 13.711423 -2.809382" stroke-width="0.500000" />
<path stroke="#efd3e5" stroke-opacity="0.501961" fill="none" d="M 90.077667 95.187588 Q 120.202719 86.937776, 123.952705 54.687827" stroke-width="0.500000" />
<path stroke="#000f00" stroke-opacity="0.501961" fill="none" d="M 256.434187 6.753472 Q 156.022029 75.018719, 258.482841 131.246446" stroke-width="0.500000" />
<path stroke="#ddc3cf" stroke-opacity="0.501961" fill="none" d="M 87.342697 96.372045 Q 139.398877 114.535870, 142.292215 50.300890" stroke-width="0.500000" />
<path stroke="#000c00" stroke-opacity="0.501961" fill="none" d="M -1.784468 50.297437 Q 108.306965 105.679441, 2.686923 185.000000" stroke-width="0.500000" />
<path stroke="#050e00" stroke-opacity="0.501961" fill="none" d="M 264.246048 141.870031 Q 194.941790 36.973237, 147.249876 78.944738" stroke-width="0.500000" />
<path stroke="#040c04" stroke-opacity="0.501961" fill="none" d="M 271.000000 162.584152 Q 82.106033 183.331423, -16.000000 149.610788" stroke-width="0.500000" />
<path stroke="#000c00" stroke-opacity="0.501961" fill="none" d="M 212.691086 -14.738275 Q 268.085568 35.022912, 235.348015 129.550187" stroke-width="0.500000" />
<path stroke="#002105" stroke-opacity="0.501961" fill="none" d="M -16.000000 156.583428 Q 241.098067 116.459543, 227.303236 -13.540984" stroke-width="0.500000" />
<path stroke="#eeccdf" stroke-opacity="0.501961" fill="none" d="M 108.700533 58.008428 Q 119.197476 110.060012, 163.967337 83.245125" stroke-width="0.500000" />
<path stroke="#021000" stroke-opacity="0.501961" fill="none" d="M 170.985697 181.235338 Q 213.649695 119.265983, 219.117250 -5.651544" stroke-width="0.500000" />
<path stroke="#000d00" stroke-opacity="0.501961" fill="none" d="M 22.672123 1.341369 Q -12.260652 156.171280, 24.698285 182.896263" stroke-width="0.500000" />
<path stroke="#001700" stroke-opacity="0.501961" fill="none" d="M -11.097148 92.676463 Q 105.735431 48.250814, 103.886237 173.054950" stroke-width="0.500000" />
<path stroke="#cbbcc4" stroke-opacity="0.501961" fill="none" d="M 164.236389 59.160128 Q 141.867838 120.497079, 87.086128 84.379912" stroke-width="0.500000" />
<path stroke="#83a196" stroke-opacity="0.501961" fill="none" d="M 29.287578 38.421084 Q 60.692694 108.645844, 131.052625 55.507259" stroke-width="0.500000" />
<path stroke="#6f8b80" stroke-opacity="0.501961" fill="none" d="M 190.258207 153.860810 Q 205.381769 143.510090, 245.602420 135.309830" stroke-width="0.500000" />
<path stroke="#d2d1cb" stroke-opacity="0.501961" fill="none" d="M 142.467861 107.791424 Q 128.926709 55.300934, 113.059902 52.555778" stroke-width="0.500000" />
<path stroke="#d3a6c1" stroke-opacity="0.501961" fill="none" d="M 163.661478 62.579551 Q 146.998385 114.140649, 135.483568 110.086833" stroke-width="0.500000" />
<path stroke="#000900" stroke-opacity="0.501961" fill="none" d="M 185.730902 29.503847 Q 271.000000 22.568236, 241.720709 128.123973" stroke-width="0.500000" />
<path stroke="#070800" stroke-opacity="0.501961" fill="none" d="M 147.155883 42.918639 Q 240.527600 55.113508, 186.625851 156.611294" stroke-width="0.500000" />
<path stroke="#000b00" stroke-opacity="0.501961" fill="none" d="M 112.305605 165.999070 Q 70.683022 87.595873, 4.238969 171.064619" stroke-width="0.500000" />
<path stroke="#012607" stroke-opacity="0.501961" fill="none" d="M 235.665763 5.205674 Q 269.471854 123.236547, -0.452473 156.641771" stroke-width="0.500000" />
<path stroke="#478158" stroke-opacity="0.501961" fill="none" d="M 17.902025 61.795872 Q 32.860706 63.957647, 226.498719 -3.427339" stroke-width="0.500000" />
<path stroke="#031800" stroke-opacity="0.501961" fill="none" d="M 237.684540 131.451469 Q 128.289778 62.576864, 242.304395 1.732943" stroke-width="0.500000" />
<path stroke="#000902" stroke-opacity="0.501961" fill="none" d="M 37.880418 1.268999 Q -16.000000 2.555026, 4.810823 185.000000" stroke-width="0.500000" />
<path stroke="#131a0d" stroke-opacity="0.501961" fill="none" d="M 256.213276 75.209579 Q 150.437775 47.530254, 144.940278 92.984360" stroke-width="0.500000" />
<path stroke="#5d9768" stroke-opacity="0.501961" fill="none" d="M 197.691618 -4.425611 Q 204.563715 28.890182, 130.168216 29.600327" stroke-width="0.500000" />
<path stroke="#f6e3ed" stroke-opacity="0.501961" fill="none" d="M 99.335329 77.510361 Q 134.556558 84.223774, 129.709322 56.757690" stroke-width="0.500000" />
<path stroke="#f3d4dd" stroke-opacity="0.501961" fill="none" d="M 96.424824 82.519826 Q 137.824539 105.157430, 144.217129 56.629960" stroke-width="0.500000" />
<path stroke="#000700" stroke-opacity="0.501961" fill="none" d="M 78.794047 82.502136 Q 63.670229 176.753816, -13.469023 169.398187" stroke-width="0.500000" />
<path stroke="#468259" stroke-opacity="0.501961" fill="none" d="M 208.571917 -1.012389 Q 153.639402 21.492418, 20.829773 56.728972" stroke-width="0.500000" />
<path stroke="#001400" stroke-opacity="0.501961" fill="none" d="M 109.734241 172.241545 Q 80.677920 67.595138, -1.382902 90.686916" stroke-width="0.500000" />
<path stroke="#000e00" stroke-opacity="0.501961" fill="none" d="M 245.532966 132.244462 Q 269.805707 18.921461, 197.126306 26.044673" stroke-width="0.500000" />
<path stroke="#061601" stroke-opacity="0.501961" fill="none" d="M 84.198204 4.964408 Q -16.000000 -0.180578, 9.779622 185.000000" stroke-width="0.500000" />
<path stroke="#041b08" stroke-opacity="0.501961" fill="none" d="M 2.098764 -6.584704 Q 0.316850 185.000000, 120.814397 147.566785" stroke-width="0.500000" />
<path stroke="#e0cbdc" stroke-opacity="0.501961" fill="none" d="M 104.469552 104.674973 Q 87.148342 60.429485, 132.886816 65.307094" stroke-width="0.500000" />
<path stroke="#031600" stroke-opacity="0.501961" fill="none" d="M 197.017844 142.820350 Q 144.647662 15.551490, 257.203373 7.150265" stroke-width="0.500000" />
<path stroke="#dfcfde" stroke-opacity="0.501961" fill="none" d="M 132.568883 63.123319 Q 101.980265 55.500171, 103.704974 96.979808" stroke-width="0.500000" />
<path stroke="#001100" stroke-opacity="0.501961" fill="none" d="M 246.923773 10.127245 Q 150.624586 78.705220, 252.478828 130.987217" stroke-width="0.500000" />
<path stroke="#000000" stroke-opacity="0.501961" fill="none" d="M 15.255508 168.544834 Q 46.614507 161.802660, 30.574968 66.930414" stroke-width="0.500000" />
<path stroke="#000300" stroke-opacity="0.501961" fill="none" d="M 62.580412 87.513595 Q 89.069432 163.017256, -7.502232 164.197032" stroke-width="0.500000" />
<path stroke="#001600" stroke-opacity="0.501961" fill="none" d="M 200.930270 -4.803791 Q 271.000000 34.313320, 232.119221 131.568854" stroke-width="0.500000" />
<path stroke="#f4e0f3" stroke-opacity="0.501961" fill="none" d="M 166.472374 73.313982 Q 147.865791 71.961378, 150.864076 100.477653" stroke-width="0.500000" />
<path stroke="#012706" stroke-opacity="0.501961" fill="none" d="M 240.731784 4.545379 Q 226.947769 129.010522, 16.025760 126.653526" stroke-width="0.500000" />
<path stroke="#4b8953" stroke-opacity="0.501961" fill="none" d="M 25.708346 46.495409 Q 79.200413 37.920116, 176.747364 27.600781" stroke-width="0.500000" />
<path stroke="#000e03" stroke-opacity="0.501961" fill="none" d="M 5.227598 -5.318494 Q -16.000000 169.449831, 74.454540 173.291907" stroke-width="0.500000" />
<path stroke="#000e00" stroke-opacity="0.501961" fill="none" d="M 196.209451 21.761108 Q 271.000000 18.665995, 250.618579 108.159004" stroke-width="0.500000" />
<path stroke="#497f56" stroke-opacity="0.501961" fill="none" d="M 20.058675 59.852402 Q 202.320276 23.872665, 222.768745 -11.820456" stroke-width="0.500000" />
<path stroke="#638273" stroke-opacity="0.501961" fill="none" d="M 185.934565 161.491924 Q 189.686192 151.982182, 271.000000 128.933456" stroke-width="0.500000" />
<path stroke="#f5eaec" stroke-opacity="0.501961" fill="none" d="M 109.105256 63.984862 Q 147.215721 74.261490, 127.067998 101.959233" stroke-width="0.500000" />
<path stroke="#e4c5d7" stroke-opacity="0.501961" fill="none" d="M 146.476138 60.672919 Q 155.371223 90.875566, 97.718626 102.295547" stroke-width="0.500000" />
<path stroke="#68877b" stroke-opacity="0.501961" fill="none" d="M 190.127482 158.371220 Q 199.185492 139.162870, 271.000000 144.456377" stroke-width="0.500000" />
<path stroke="#011001" stroke-opacity="0.501961" fill="none" d="M 24.908538 185.000000 Q -9.292037 162.589927, 27.523081 -16.000000" stroke-width="0.500000" />
<path stroke="#080800" stroke-opacity="0.501961" fill="none" d="M 188.968245 152.743374 Q 246.478203 90.405575, 155.501221 47.995001" stroke-width="0.500000" />
<path stroke="#d1b1c3" stroke-opacity="0.501961" fill="none" d="M 113.716982 51.915608 Q 119.963140 114.328304, 142.733189 109.515964" stroke-width="0.500000" />
<path stroke="#001800" stroke-opacity="0.501961" fill="none" d="M 263.618055 131.139358 Q 140.813147 96.818718, 232.715584 -2.746793" stroke-width="0.500000" />
<path stroke="#070c00" stroke-opacity="0.501961" fill="none" d="M 83.205008 169.020120 Q 80.201289 52.493142, -1.061158 86.998356" stroke-width="0.500000" />
<path stroke="#e8cbde" stroke-opacity="0.501961" fill="none" d="M 144.232032 56.327485 Q 117.550716 97.770414, 93.893482 68.751545" stroke-width="0.500000" />
<path stroke="#000900" stroke-opacity="0.501961" fill="none" d="M 168.608490 70.978073 Q 206.034002 -15.111664, 262.169337 59.744261" stroke-width="0.500000" />
<path stroke="#e2d5d9" stroke-opacity="0.501961" fill="none" d="M 165.361737 75.138578 Q 124.657098 128.161638, 94.523040 66.538445" stroke-width="0.500000" />
<path stroke="#061b00" stroke-opacity="0.501961" fill="none" d="M 87.415687 39.085715 Q 260.163598 46.942272, 263.517059 174.554569" stroke-width="0.500000" />
<path stroke="#052406" stroke-opacity="0.501961" fill="none" d="M 251.037588 13.441520 Q 216.015332 185.000000, 0.687785 61.424917" stroke-width="0.500000" />
<path stroke="#010e00" stroke-opacity="0.501961" fill="none" d="M 88.855664 84.780115 Q -13.384415 84.488817, 8.688598 -0.720170" stroke-width="0.500000" />
<path stroke="#030c00" stroke-opacity="0.501961" fill="none" d="M 67.856598 56.217135 Q 68.841009 153.725525, 2.124573 169.056651" stroke-width="0.500000" />
<path stroke="#031300" stroke-opacity="0.501961" fill="none" d="M 265.282724 -9.261001 Q 233.429736 58.014907, 148.527086 74.309920" stroke-width="0.500000" />
<path stroke="#517f70" stroke-opacity="0.501961" fill="none" d="M 112.968486 160.722468 Q 128.256673 131.697492, 189.567744 155.079503" stroke-width="0.500000" />
<path stroke="#032b0b" stroke-opacity="0.501961" fill="none" d="M -16.000000 135.624887 Q 271.000000 151.064306, 255.473270 7.491090" stroke-width="0.500000" />
<path stroke="#55a06a" stroke-opacity="0.501961" fill="none" d="M 73.697885 79.612331 Q 101.505429 37.444340, 55.941764 32.174792" stroke-width="0.500000" />
<path stroke="#0a1b00" stroke-opacity="0.501961" fill="none" d="M 264.206153 13.893449 Q 91.999358 103.971271, 58.790654 -16.000000" stroke-width="0.500000" />
<path stroke="#000a00" stroke-opacity="0.501961" fill="none" d="M 0.177645 161.768869 Q 85.373353 115.162033, 83.103873 94.709215" stroke-width="0.500000" />
<path stroke="#001200" stroke-opacity="0.501961" fill="none" d="M 235.641610 134.235453 Q 271.000000 36.744229, 213.141503 -16.000000" stroke-width="0.500000" />
<path stroke="#071500" stroke-opacity="0.501961" fill="none" d="M 203.237183 144.609606 Q 128.778418 24.845501, 263.506665 11.745606" stroke-width="0.500000" />
<path stroke="#5f976a" stroke-opacity="0.501961" fill="none" d="M 199.917680 -7.445242 Q 201.719652 38.022172, 133.843705 24.051022" stroke-width="0.500000" />
<path stroke="#427f53" stroke-opacity="0.501961" fill="none" d="M 213.443417 -10.984673 Q 204.167373 17.282322, 29.657567 42.187771" stroke-width="0.500000" />
<path stroke="#001d03" stroke-opacity="0.501961" fill="none" d="M 102.727875 176.863888 Q 121.588809 59.979650, -13.504063 88.813555" stroke-width="0.500000" />
<path stroke="#4c8e5a" stroke-opacity="0.501961" fill="none" d="M 24.342602 64.494349 Q 42.270250 7.536769, 120.825736 61.635916" stroke-width="0.500000" />
<path stroke="#598d7b" stroke-opacity="0.501961" fill="none" d="M 173.722023 145.509207 Q 130.408202 141.565467, 115.811554 156.984873" stroke-width="0.500000" />
<path stroke="#f0dce6" stroke-opacity="0.501961" fill="none" d="M 148.604790 70.523941 Q 121.670473 91.887728, 112.394475 61.012383" stroke-width="0.500000" />
<path stroke="#001300" stroke-opacity="0.501961" fill="none" d="M 239.091344 131.167149 Q 146.965119 63.372628, 254.227804 8.271110" stroke-width="0.500000" />
<path stroke="#001600" stroke-opacity="0.501961" fill="none" d="M -5.934680 179.755759 Q 41.323028 80.142450, 113.397611 151.479755" stroke-width="0.500000" />
<path stroke="#c5a5b9" stroke-opacity="0.501961" fill="none" d="M 138.689704 112.858807 Q 160.996128 75.822229, 156.952991 56.050392" stroke-width="0.500000" />
<path stroke="#061301" stroke-opacity="0.501961" fill="none" d="M 148.074267 77.396213 Q 197.884730 42.270736, 267.125515 148.832952" stroke-width="0.500000" />
<path stroke="#d9c9d4" stroke-opacity="0.501961" fill="none" d="M 143.755585 50.833947 Q 137.222502 94.328958, 93.577732 68.158309" stroke-width="0.500000" />
<path stroke="#e9cbda" stroke-opacity="0.501961" fill="none" d="M 94.633436 101.385398 Q 134.149867 79.677839, 127.356197 50.957591" stroke-width="0.500000" />
<path stroke="#001700" stroke-opacity="0.501961" fill="none" d="M 5.651131 90.817348 Q 74.419992 71.521811, 109.026083 169.737973" stroke-width="0.500000" />
<path stroke="#081700" stroke-opacity="0.501961" fill="none" d="M 175.706013 185.000000 Q 221.664226 53.187569, 221.639673 -4.103050" stroke-width="0.500000" />
<path stroke="#091300" stroke-opacity="0.501961" fill="none" d="M 265.062535 17.124916 Q 153.351699 10.821845, 196.183060 136.147419" stroke-width="0.500000" />
<path stroke="#e6d2dc" stroke-opacity="0.501961" fill="none" d="M 93.274006 76.211585 Q 144.299912 118.678770, 160.622968 74.080922" stroke-width="0.500000" />
<path stroke="#000e00" stroke-opacity="0.501961" fill="none" d="M 187.028971 29.097918 Q 271.000000 16.704002, 252.107801 109.407995" stroke-width="0.500000" />
<path stroke="#05290a" stroke-opacity="0.501961" fill="none" d="M 242.042172 17.522846 Q 214.314967 185.000000, 9.973789 73.848233" stroke-width="0.500000" />
<path stroke="#4e8863" stroke-opacity="0.501961" fill="none" d="M 21.179875 62.297277 Q 74.659150 6.246249, 113.208807 89.973302" stroke-width="0.500000" />
<path stroke="#021105" stroke-opacity="0.501961" fill="none" d="M 19.535366 -15.553915 Q -16.000000 175.803321, 87.566712 170.677557" stroke-width="0.500000" />
<path stroke="#000400" stroke-opacity="0.501961" fill="none" d="M 74.346810 84.366846 Q 77.551980 138.321286, -9.492729 171.089690" stroke-width="0.500000" />
<path stroke="#547d69" stroke-opacity="0.501961" fill="none" d="M 143.908866 6.442042 Q 111.800678 107.375207, 33.163407 43.215270" stroke-width="0.500000" />
<path stroke="#0b150d" stroke-opacity="0.501961" fill="none" d="M -16.000000 141.776356 Q 88.618375 184.818653, 251.848437 161.560390" stroke-width="0.500000" />
<path stroke="#0d1e00" stroke-opacity="0.501961" fill="none" d="M 49.624451 -11.142244 Q 145.890655 100.724267, 254.610444 9.694324" stroke-width="0.500000" />
<path stroke="#001300" stroke-opacity="0.501961" fill="none" d="M -5.368923 180.218661 Q 69.048839 82.722474, 113.823587 152.260020" stroke-width="0.500000" />
</g>
</svg>
