<svg xmlns="http://www.w3.org/2000/svg" version="1.1" width="1024" height="768">
<rect x="0" y="0" width="1024" height="768" fill="#4795ab" />
<g transform="scale(4.000000) translate(0.5 0.5)">
<g transform="translate(73.265911 74.173608) rotate(162.378084) scale(45.818223 54.094201)"><ellipse fill="#cc3c00" fill-opacity="0.501961" cx="0" cy="0" rx="1" ry="1" /></g>
<g transform="translate(207.484278 20.216990) rotate(154.412625) scale(102.261864 87.225836)"><ellipse fill="#0089ca" fill-opacity="0.501961" cx="0" cy="0" rx="1" ry="1" /></g>
<g transform="translate(72.670156 170.619406) rotate(102.082631) scale(37.203878 255.000000)"><ellipse fill="#94c9e3" fill-opacity="0.501961" cx="0" cy="0" rx="1" ry="1" /></g>
<g transform="translate(54.177004 97.640032) rotate(237.797266) scale(50.525747 12.178001)"><ellipse fill="#351300" fill-opacity="0.501961" cx="0" cy="0" rx="1" ry="1" /></g>
<g transform="translate(88.154597 49.897352) rotate(77.181895) scale(29.070128 22.306933)"><ellipse fill="#ffad20" fill-opacity="0.501961" cx="0" cy="0" rx="1" ry="1" /></g>
<g transform="translate(130.535806 9.171217) rotate(178.513669) scale(232.068125 15.454504)"><ellipse fill="#008abf" fill-opacity="0.501961" cx="0" cy="0" rx="1" ry="1" /></g>
<g transform="translate(160.738789 125.406888) rotate(171.802149) scale(76.467677 18.970978)"><ellipse fill="#84c0e1" fill-opacity="0.501961" cx="0" cy="0" rx="1" ry="1" /></g>
<g transform="translate(49.659601 56.287777) rotate(99.423451) scale(15.941412 24.183672)"><ellipse fill="#c12f00" fill-opacity="0.501961" cx="0" cy="0" rx="1" ry="1" /></g>
<g transform="translate(215.344612 33.775456) rotate(195.084707) scale(86.822076 68.914526)"><ellipse fill="#0090bb" fill-opacity="0.501961" cx="0" cy="0" rx="1" ry="1" /></g>
<g transform="translate(12.009165 34.167520) rotate(185.880916) scale(16.807071 84.032484)"><ellipse fill="#009ed6" fill-opacity="0.501961" cx="0" cy="0" rx="1" ry="1" /></g>
<g transform="translate(212.487130 143.036608) rotate(263.089369) scale(12.780558 107.646633)"><ellipse fill="#07a4d2" fill-opacity="0.501961" cx="0" cy="0" rx="1" ry="1" /></g>
<g transform="translate(92.373190 111.592355) rotate(114.571640) scale(57.290685 5.865509)"><ellipse fill="#636915" fill-opacity="0.501961" cx="0" cy="0" rx="1" ry="1" /></g>
<g transform="translate(120.441980 65.413063) rotate(352.714301) scale(11.114510 17.216034)"><ellipse fill="#002d88" fill-opacity="0.501961" cx="0" cy="0" rx="1" ry="1" /></g>
<g transform="translate(99.793214 73.082209) rotate(285.297412) scale(32.033880 5.404962)"><ellipse fill="#ffd200" fill-opacity="0.501961" cx="0" cy="0" rx="1" ry="1" /></g>
<g transform="translate(80.880590 98.300474) rotate(371.593739) scale(8.366437 32.390517)"><ellipse fill="#6f9b9a" fill-opacity="0.501961" cx="0" cy="0" rx="1" ry="1" /></g>
<g transform="translate(63.259530 84.332174) rotate(258.033038) scale(25.050902 4.601554)"><ellipse fill="#03002f" fill-opacity="0.501961" cx="0" cy="0" rx="1" ry="1" /></g>
<g transform="translate(37.029542 129.392979) rotate(63.726131) scale(47.945728 19.204852)"><ellipse fill="#6ab9db" fill-opacity="0.501961" cx="0" cy="0" rx="1" ry="1" /></g>
<g transform="translate(76.172863 63.386680) rotate(88.974106) scale(45.922912 5.160328)"><ellipse fill="#e6d05e" fill-opacity="0.501961" cx="0" cy="0" rx="1" ry="1" /></g>
<g transform="translate(89.545690 54.318963) rotate(271.858422) scale(19.259322 6.416639)"><ellipse fill="#b60037" fill-opacity="0.501961" cx="0" cy="0" rx="1" ry="1" /></g>
<g transform="translate(113.092352 91.153071) rotate(212.950496) scale(5.158356 23.182413)"><ellipse fill="#821a0a" fill-opacity="0.501961" cx="0" cy="0" rx="1" ry="1" /></g>
<g transform="translate(107.682974 34.152101) rotate(301.128287) scale(5.966669 17.449259)"><ellipse fill="#c54d48" fill-opacity="0.501961" cx="0" cy="0" rx="1" ry="1" /></g>
<g transform="translate(59.167119 29.369540) rotate(271.691891) scale(9.270072 12.154880)"><ellipse fill="#61abcc" fill-opacity="0.501961" cx="0" cy="0" rx="1" ry="1" /></g>
<g transform="translate(248.756250 169.580171) rotate(90.822895) scale(18.323489 132.580226)"><ellipse fill="#59accb" fill-opacity="0.501961" cx="0" cy="0" rx="1" ry="1" /></g>
<g transform="translate(29.532769 180.957514) rotate(14.732524) scale(38.991637 64.282215)"><ellipse fill="#88bcd2" fill-opacity="0.501961" cx="0" cy="0" rx="1" ry="1" /></g>
<g transform="translate(204.539883 121.178979) rotate(82.052222) scale(7.932318 123.223775)"><ellipse fill="#88b5d0" fill-opacity="0.501961" cx="0" cy="0" rx="1" ry="1" /></g>
<g transform="translate(231.983494 38.032127) rotate(-92.707260) scale(58.268035 88.602636)"><ellipse fill="#008dba" fill-opacity="0.501961" cx="0" cy="0" rx="1" ry="1" /></g>
<g transform="translate(111.125854 118.286946) rotate(225.392413) scale(8.890684 46.419082)"><ellipse fill="#6bb5d6" fill-opacity="0.501961" cx="0" cy="0" rx="1" ry="1" /></g>
<g transform="translate(86.481459 79.486639) rotate(113.741773) scale(12.051715 6.085963)"><ellipse fill="#3a84a1" fill-opacity="0.501961" cx="0" cy="0" rx="1" ry="1" /></g>
<g transform="translate(87.361413 26.908066) rotate(57.538312) scale(16.523045 3.737668)"><ellipse fill="#3ca091" fill-opacity="0.501961" cx="0" cy="0" rx="1" ry="1" /></g>
<g transform="translate(12.761121 96.313761) rotate(84.864521) scale(26.172192 23.455579)"><ellipse fill="#33a5cd" fill-opacity="0.501961" cx="0" cy="0" rx="1" ry="1" /></g>
<g transform="translate(90.904726 100.375547) rotate(108.409287) scale(24.855246 4.106721)"><ellipse fill="#ce9e00" fill-opacity="0.501961" cx="0" cy="0" rx="1" ry="1" /></g>
<g transform="translate(54.800215 82.416081) rotate(343.960271) scale(4.445187 35.760856)"><ellipse fill="#a00f00" fill-opacity="0.501961" cx="0" cy="0" rx="1" ry="1" /></g>
<g transform="translate(39.800434 54.443303) rotate(90.323737) scale(10.209469 3.225711)"><ellipse fill="#f3fc05" fill-opacity="0.501961" cx="0" cy="0" rx="1" ry="1" /></g>
<g transform="translate(75.715814 35.002547) rotate(18.331156) scale(6.387411 14.719512)"><ellipse fill="#ecc014" fill-opacity="0.501961" cx="0" cy="0" rx="1" ry="1" /></g>
<g transform="translate(58.688473 112.271196) rotate(59.405835) scale(35.205825 4.742466)"><ellipse fill="#333108" fill-opacity="0.501961" cx="0" cy="0" rx="1" ry="1" /></g>
<g transform="translate(155.416273 99.341406) rotate(95.426192) scale(15.026619 33.238220)"><ellipse fill="#20a3c9" fill-opacity="0.501961" cx="0" cy="0" rx="1" ry="1" /></g>
<g transform="translate(32.180363 0.000000) rotate(256.257908) scale(31.183566 175.735207)"><ellipse fill="#0690be" fill-opacity="0.501961" cx="0" cy="0" rx="1" ry="1" /></g>
<g transform="translate(103.448889 102.357028) rotate(212.305177) scale(1.000000 34.471160)"><ellipse fill="#f13300" fill-opacity="0.501961" cx="0" cy="0" rx="1" ry="1" /></g>
<g transform="translate(57.588456 51.309662) rotate(117.668820) scale(14.427387 10.958710)"><ellipse fill="#cb192c" fill-opacity="0.501961" cx="0" cy="0" rx="1" ry="1" /></g>
<g transform="translate(102.758104 52.259786) rotate(180.828769) scale(6.353616 13.249288)"><ellipse fill="#ffdb46" fill-opacity="0.501961" cx="0" cy="0" rx="1" ry="1" /></g>
<g transform="translate(120.967341 65.162781) rotate(53.173347) scale(12.892101 9.488828)"><ellipse fill="#005bac" fill-opacity="0.501961" cx="0" cy="0" rx="1" ry="1" /></g>
<g transform="translate(123.011855 44.286596) rotate(134.273846) scale(1.815919 11.038761)"><ellipse fill="#cad5c4" fill-opacity="0.501961" cx="0" cy="0" rx="1" ry="1" /></g>
<g transform="translate(116.138110 80.325450) rotate(389.681696) scale(3.490242 6.913429)"><ellipse fill="#f34b00" fill-opacity="0.501961" cx="0" cy="0" rx="1" ry="1" /></g>
<g transform="translate(108.730082 102.913781) rotate(127.638288) scale(24.914811 1.000000)"><ellipse fill="#082562" fill-opacity="0.501961" cx="0" cy="0" rx="1" ry="1" /></g>
<g transform="translate(42.929297 36.484758) rotate(43.209866) scale(2.833919 6.539473)"><ellipse fill="#08205d" fill-opacity="0.501961" cx="0" cy="0" rx="1" ry="1" /></g>
<g transform="translate(75.432793 155.595949) rotate(270.358479) scale(3.049457 5.392150)"><ellipse fill="#873402" fill-opacity="0.501961" cx="0" cy="0" rx="1" ry="1" /></g>
<g transform="translate(64.788750 79.606016) rotate(80.534146) scale(15.778415 5.553901)"><ellipse fill="#1f1e4c" fill-opacity="0.501961" cx="0" cy="0" rx="1" ry="1" /></g>
<g transform="translate(106.149634 84.265176) rotate(201.347797) scale(3.807267 23.368869)"><ellipse fill="#247653" fill-opacity="0.501961" cx="0" cy="0" rx="1" ry="1" /></g>
<g transform="translate(77.291370 77.089420) rotate(178.711253) scale(4.063948 11.581643)"><ellipse fill="#c5b1bb" fill-opacity="0.501961" cx="0" cy="0" rx="1" ry="1" /></g>
<g transform="translate(60.720410 187.932895) rotate(90.921859) scale(11.006624 106.642096)"><ellipse fill="#8ebdcf" fill-opacity="0.501961" cx="0" cy="0" rx="1" ry="1" /></g>
<g transform="translate(53.624132 33.498566) rotate(45.478437) scale(3.270230 6.849528)"><ellipse fill="#f2cdb8" fill-opacity="0.501961" cx="0" cy="0" rx="1" ry="1" /></g>
<g transform="translate(40.272372 81.463336) rotate(336.533318) scale(9.796653 31.166227)"><ellipse fill="#444a15" fill-opacity="0.501961" cx="0" cy="0" rx="1" ry="1" /></g>
<g transform="translate(114.223391 42.447436) rotate(59.205812) scale(21.208185 2.627239)"><ellipse fill="#064798" fill-opacity="0.501961" cx="0" cy="0" rx="1" ry="1" /></g>
<g transform="translate(76.411246 102.236124) rotate(1.457667) scale(2.422446 26.323855)"><ellipse fill="#c8a59a" fill-opacity="0.501961" cx="0" cy="0" rx="1" ry="1" /></g>
<g transform="translate(193.584073 13.693028) rotate(29.636428) scale(234.212867 40.280569)"><ellipse fill="#008ab7" fill-opacity="0.501961" cx="0" cy="0" rx="1" ry="1" /></g>
<g transform="translate(76.726934 50.682598) rotate(367.198464) scale(7.788335 15.013827)"><ellipse fill="#f4c632" fill-opacity="0.501961" cx="0" cy="0" rx="1" ry="1" /></g>
<g transform="translate(235.486535 166.485094) rotate(360.401629) scale(39.833265 5.009483)"><ellipse fill="#7db2cd" fill-opacity="0.501961" cx="0" cy="0" rx="1" ry="1" /></g>
<g transform="translate(121.241415 89.827905) rotate(120.523285) scale(13.100017 1.000000)"><ellipse fill="#e6a682" fill-opacity="0.501961" cx="0" cy="0" rx="1" ry="1" /></g>
<g transform="translate(50.977411 161.552789) rotate(186.245328) scale(22.452258 15.428729)"><ellipse fill="#61aec8" fill-opacity="0.501961" cx="0" cy="0" rx="1" ry="1" /></g>
<g transform="translate(84.111877 94.690377) rotate(189.104683) scale(4.529590 24.203863)"><ellipse fill="#426c75" fill-opacity="0.501961" cx="0" cy="0" rx="1" ry="1" /></g>
<g transform="translate(183.031267 69.290621) rotate(-32.279946) scale(36.827755 28.664895)"><ellipse fill="#0099c0" fill-opacity="0.501961" cx="0" cy="0" rx="1" ry="1" /></g>
<g transform="translate(100.728864 35.107437) rotate(242.855810) scale(8.691836 5.836244)"><ellipse fill="#ef5b0d" fill-opacity="0.501961" cx="0" cy="0" rx="1" ry="1" /></g>
<g transform="translate(89.689174 32.862869) rotate(37.726438) scale(7.980537 5.424775)"><ellipse fill="#4d9969" fill-opacity="0.501961" cx="0" cy="0" rx="1" ry="1" /></g>
<g transform="translate(41.025316 66.506713) rotate(347.515516) scale(4.286400 5.293486)"><ellipse fill="#b59f00" fill-opacity="0.501961" cx="0" cy="0" rx="1" ry="1" /></g>
<g transform="translate(215.207337 106.649312) rotate(181.642611) scale(42.482002 7.265838)"><ellipse fill="#54a5c8" fill-opacity="0.501961" cx="0" cy="0" rx="1" ry="1" /></g>
<g transform="translate(40.738026 47.108914) rotate(106.560382) scale(7.611905 4.408224)"><ellipse fill="#d3bc20" fill-opacity="0.501961" cx="0" cy="0" rx="1" ry="1" /></g>
<g transform="translate(46.645893 116.222781) rotate(319.943058) scale(4.328294 30.902636)"><ellipse fill="#5caccd" fill-opacity="0.501961" cx="0" cy="0" rx="1" ry="1" /></g>
<g transform="translate(80.835072 133.852145) rotate(130.516689) scale(12.166299 4.367802)"><ellipse fill="#612d22" fill-opacity="0.501961" cx="0" cy="0" rx="1" ry="1" /></g>
<g transform="translate(114.704890 93.846063) rotate(123.894446) scale(21.483317 1.412375)"><ellipse fill="#152961" fill-opacity="0.501961" cx="0" cy="0" rx="1" ry="1" /></g>
<g transform="translate(52.426641 100.923282) rotate(152.896047) scale(1.441987 35.299079)"><ellipse fill="#083725" fill-opacity="0.501961" cx="0" cy="0" rx="1" ry="1" /></g>
<g transform="translate(56.683837 81.523722) rotate(166.112235) scale(1.580438 39.745474)"><ellipse fill="#c9380d" fill-opacity="0.501961" cx="0" cy="0" rx="1" ry="1" /></g>
<g transform="translate(89.283641 108.507583) rotate(203.270725) scale(1.966697 24.436553)"><ellipse fill="#d29a00" fill-opacity="0.501961" cx="0" cy="0" rx="1" ry="1" /></g>
<g transform="translate(118.027083 152.757405) rotate(174.714003) scale(38.484290 10.911446)"><ellipse fill="#44a6c4" fill-opacity="0.501961" cx="0" cy="0" rx="1" ry="1" /></g>
<g transform="translate(110.419919 133.054808) rotate(70.360115) scale(9.944072 32.203340)"><ellipse fill="#89b6ca" fill-opacity="0.501961" cx="0" cy="0" rx="1" ry="1" /></g>
<g transform="translate(109.301095 92.329669) rotate(208.107799) scale(2.109999 19.056362)"><ellipse fill="#de4400" fill-opacity="0.501961" cx="0" cy="0" rx="1" ry="1" /></g>
<g transform="translate(68.589698 111.795305) rotate(77.022545) scale(23.537349 2.117598)"><ellipse fill="#1d193e" fill-opacity="0.501961" cx="0" cy="0" rx="1" ry="1" /></g>
<g transform="translate(62.384798 17.942504) rotate(79.961721) scale(6.924345 36.112519)"><ellipse fill="#3998bf" fill-opacity="0.501961" cx="0" cy="0" rx="1" ry="1" /></g>
<g transform="translate(56.294776 63.094317) rotate(269.939826) scale(6.306669 13.359693)"><ellipse fill="#831a1c" fill-opacity="0.501961" cx="0" cy="0" rx="1" ry="1" /></g>
<g transform="translate(237.341967 140.573531) rotate(355.127112) scale(32.398915 17.243982)"><ellipse fill="#1b9fc7" fill-opacity="0.501961" cx="0" cy="0" rx="1" ry="1" /></g>
<g transform="translate(47.776369 31.099605) rotate(228.888376) scale(1.000000 9.487166)"><ellipse fill="#001159" fill-opacity="0.501961" cx="0" cy="0" rx="1" ry="1" /></g>
<g transform="translate(108.993992 20.978092) rotate(107.801821) scale(7.713243 34.360648)"><ellipse fill="#2997bf" fill-opacity="0.501961" cx="0" cy="0" rx="1" ry="1" /></g>
<g transform="translate(116.481427 59.094606) rotate(34.995656) scale(3.042783 14.049013)"><ellipse fill="#0056b2" fill-opacity="0.501961" cx="0" cy="0" rx="1" ry="1" /></g>
<g transform="translate(125.428590 109.822968) rotate(163.292027) scale(20.700144 13.238084)"><ellipse fill="#55a8c8" fill-opacity="0.501961" cx="0" cy="0" rx="1" ry="1" /></g>
<g transform="translate(73.466895 62.724841) rotate(125.999593) scale(2.847411 8.104330)"><ellipse fill="#c08b00" fill-opacity="0.501961" cx="0" cy="0" rx="1" ry="1" /></g>
<g transform="translate(27.029318 0.000000) rotate(57.871337) scale(15.568616 147.379587)"><ellipse fill="#008bb8" fill-opacity="0.501961" cx="0" cy="0" rx="1" ry="1" /></g>
<g transform="translate(91.481637 44.138247) rotate(250.863711) scale(6.276436 7.097540)"><ellipse fill="#f24434" fill-opacity="0.501961" cx="0" cy="0" rx="1" ry="1" /></g>
<g transform="translate(75.551881 153.069142) rotate(218.594531) scale(5.047562 3.046269)"><ellipse fill="#823200" fill-opacity="0.501961" cx="0" cy="0" rx="1" ry="1" /></g>
<g transform="translate(143.026964 78.429035) rotate(91.370808) scale(29.350983 12.296636)"><ellipse fill="#2ca1c4" fill-opacity="0.501961" cx="0" cy="0" rx="1" ry="1" /></g>
<g transform="translate(81.050247 70.621626) rotate(269.452647) scale(2.653740 15.452562)"><ellipse fill="#8598a0" fill-opacity="0.501961" cx="0" cy="0" rx="1" ry="1" /></g>
<g transform="translate(60.148491 25.782841) rotate(150.254251) scale(6.413829 1.495802)"><ellipse fill="#d4ac99" fill-opacity="0.501961" cx="0" cy="0" rx="1" ry="1" /></g>
<g transform="translate(80.011043 42.534219) rotate(185.856975) scale(3.617171 17.495959)"><ellipse fill="#fad546" fill-opacity="0.501961" cx="0" cy="0" rx="1" ry="1" /></g>
<g transform="translate(109.502164 47.253569) rotate(264.757507) scale(12.751048 1.000000)"><ellipse fill="#d14848" fill-opacity="0.501961" cx="0" cy="0" rx="1" ry="1" /></g>
<g transform="translate(251.741760 132.445122) rotate(85.262558) scale(5.865976 28.787766)"><ellipse fill="#0098bf" fill-opacity="0.501961" cx="0" cy="0" rx="1" ry="1" /></g>
<g transform="translate(31.866256 60.831148) rotate(3.234939) scale(3.531153 19.117288)"><ellipse fill="#771a18" fill-opacity="0.501961" cx="0" cy="0" rx="1" ry="1" /></g>
<g transform="translate(100.370911 101.059231) rotate(30.022659) scale(1.000000 32.939260)"><ellipse fill="#30551d" fill-opacity="0.501961" cx="0" cy="0" rx="1" ry="1" /></g>
<g transform="translate(68.170145 31.256923) rotate(372.057951) scale(3.686642 7.882202)"><ellipse fill="#62969d" fill-opacity="0.501961" cx="0" cy="0" rx="1" ry="1" /></g>
<g transform="translate(117.677571 36.318611) rotate(334.782871) scale(3.232096 10.659669)"><ellipse fill="#8fbfc6" fill-opacity="0.501961" cx="0" cy="0" rx="1" ry="1" /></g>
<g transform="translate(40.852527 61.107063) rotate(353.026201) scale(3.572546 7.794989)"><ellipse fill="#caa007" fill-opacity="0.501961" cx="0" cy="0" rx="1" ry="1" /></g>
<g transform="translate(225.527796 76.763552) rotate(24.949291) scale(50.557709 19.776347)"><ellipse fill="#0096c0" fill-opacity="0.501961" cx="0" cy="0" rx="1" ry="1" /></g>
<g transform="translate(102.631028 76.425606) rotate(195.656374) scale(3.221980 15.375397)"><ellipse fill="#c99e01" fill-opacity="0.501961" cx="0" cy="0" rx="1" ry="1" /></g>
<g transform="translate(103.116188 47.878918) rotate(346.581939) scale(6.624407 8.578824)"><ellipse fill="#ffd34a" fill-opacity="0.501961" cx="0" cy="0" rx="1" ry="1" /></g>
<g transform="translate(236.517759 6.809279) rotate(214.622078) scale(144.646046 20.434487)"><ellipse fill="#007faf" fill-opacity="0.501961" cx="0" cy="0" rx="1" ry="1" /></g>
<g transform="translate(39.519633 87.515117) rotate(329.398012) scale(1.617995 27.883232)"><ellipse fill="#7a5800" fill-opacity="0.501961" cx="0" cy="0" rx="1" ry="1" /></g>
<g transform="translate(15.745227 141.950647) rotate(92.075394) scale(7.345394 54.898270)"><ellipse fill="#8eb9d0" fill-opacity="0.501961" cx="0" cy="0" rx="1" ry="1" /></g>
<g transform="translate(89.165718 61.683409) rotate(73.181202) scale(5.288108 6.402726)"><ellipse fill="#a71111" fill-opacity="0.501961" cx="0" cy="0" rx="1" ry="1" /></g>
<g transform="translate(120.659454 70.038472) rotate(180.797275) scale(12.067795 4.429167)"><ellipse fill="#00529b" fill-opacity="0.501961" cx="0" cy="0" rx="1" ry="1" /></g>
<g transform="translate(74.429444 30.204567) rotate(377.841290) scale(3.174503 5.240139)"><ellipse fill="#c59400" fill-opacity="0.501961" cx="0" cy="0" rx="1" ry="1" /></g>
<g transform="translate(56.615999 43.456695) rotate(71.427825) scale(3.357927 15.467921)"><ellipse fill="#c83129" fill-opacity="0.501961" cx="0" cy="0" rx="1" ry="1" /></g>
<g transform="translate(123.717739 31.504253) rotate(308.326224) scale(6.861526 20.822859)"><ellipse fill="#2898be" fill-opacity="0.501961" cx="0" cy="0" rx="1" ry="1" /></g>
<g transform="translate(255.000000 188.775900) rotate(108.223093) scale(8.166474 59.205924)"><ellipse fill="#54a2bd" fill-opacity="0.501961" cx="0" cy="0" rx="1" ry="1" /></g>
<g transform="translate(110.767163 105.147882) rotate(216.973648) scale(1.141252 29.038370)"><ellipse fill="#9faaa4" fill-opacity="0.501961" cx="0" cy="0" rx="1" ry="1" /></g>
<g transform="translate(205.872558 129.965886) rotate(171.901578) scale(64.034505 3.006936)"><ellipse fill="#52a4c5" fill-opacity="0.501961" cx="0" cy="0" rx="1" ry="1" /></g>
<g transform="translate(32.514132 94.233867) rotate(57.827605) scale(24.372317 3.339404)"><ellipse fill="#3ea1c8" fill-opacity="0.501961" cx="0" cy="0" rx="1" ry="1" /></g>
<g transform="translate(70.906535 98.129391) rotate(91.837373) scale(18.614964 3.580111)"><ellipse fill="#574e63" fill-opacity="0.501961" cx="0" cy="0" rx="1" ry="1" /></g>
<g transform="translate(25.413957 41.619007) rotate(110.600670) scale(35.364058 5.245906)"><ellipse fill="#2f9cc4" fill-opacity="0.501961" cx="0" cy="0" rx="1" ry="1" /></g>
<g transform="translate(169.433213 144.651631) rotate(78.614228) scale(7.387990 44.709506)"><ellipse fill="#25a0c3" fill-opacity="0.501961" cx="0" cy="0" rx="1" ry="1" /></g>
<g transform="translate(230.015350 114.481473) rotate(-2.129650) scale(49.563983 8.045493)"><ellipse fill="#74abc8" fill-opacity="0.501961" cx="0" cy="0" rx="1" ry="1" /></g>
<g transform="translate(37.260452 38.568419) rotate(127.727724) scale(6.808471 1.823381)"><ellipse fill="#bf3e1a" fill-opacity="0.501961" cx="0" cy="0" rx="1" ry="1" /></g>
<g transform="translate(50.724118 82.408469) rotate(76.888631) scale(28.802850 1.596598)"><ellipse fill="#4e1d15" fill-opacity="0.501961" cx="0" cy="0" rx="1" ry="1" /></g>
<g transform="translate(62.590313 110.147273) rotate(250.617567) scale(32.883111 1.863794)"><ellipse fill="#88240d" fill-opacity="0.501961" cx="0" cy="0" rx="1" ry="1" /></g>
<g transform="translate(79.402322 133.235475) rotate(75.797126) scale(2.858352 6.365811)"><ellipse fill="#1e0f20" fill-opacity="0.501961" cx="0" cy="0" rx="1" ry="1" /></g>
<g transform="translate(34.621700 86.443376) rotate(153.667616) scale(1.591449 13.560027)"><ellipse fill="#223d4b" fill-opacity="0.501961" cx="0" cy="0" rx="1" ry="1" /></g>
<g transform="translate(17.082070 124.638274) rotate(88.125682) scale(9.637465 40.479109)"><ellipse fill="#69afcd" fill-opacity="0.501961" cx="0" cy="0" rx="1" ry="1" /></g>
<g transform="translate(17.249700 80.349209) rotate(259.306384) scale(26.656101 11.394846)"><ellipse fill="#33a1c7" fill-opacity="0.501961" cx="0" cy="0" rx="1" ry="1" /></g>
<g transform="translate(49.973164 94.240846) rotate(154.898446) scale(3.742975 25.711172)"><ellipse fill="#233f24" fill-opacity="0.501961" cx="0" cy="0" rx="1" ry="1" /></g>
<g transform="translate(63.489761 30.653900) rotate(304.902869) scale(6.229313 2.687063)"><ellipse fill="#197285" fill-opacity="0.501961" cx="0" cy="0" rx="1" ry="1" /></g>
<g transform="translate(82.704470 24.808349) rotate(88.495196) scale(2.150221 11.441677)"><ellipse fill="#c2a642" fill-opacity="0.501961" cx="0" cy="0" rx="1" ry="1" /></g>
<g transform="translate(90.574636 103.766746) rotate(110.636420) scale(30.592141 2.336407)"><ellipse fill="#c69600" fill-opacity="0.501961" cx="0" cy="0" rx="1" ry="1" /></g>
<g transform="translate(75.106029 147.720309) rotate(384.013780) scale(2.825882 3.939642)"><ellipse fill="#2c4572" fill-opacity="0.501961" cx="0" cy="0" rx="1" ry="1" /></g>
<g transform="translate(100.288394 122.803186) rotate(46.054650) scale(3.345828 22.884291)"><ellipse fill="#79afc6" fill-opacity="0.501961" cx="0" cy="0" rx="1" ry="1" /></g>
<g transform="translate(118.947723 39.894666) rotate(236.027710) scale(8.391436 2.306807)"><ellipse fill="#c4bfb7" fill-opacity="0.501961" cx="0" cy="0" rx="1" ry="1" /></g>
<g transform="translate(83.205720 171.141630) rotate(99.645839) scale(11.748184 81.162592)"><ellipse fill="#6eb3cb" fill-opacity="0.501961" cx="0" cy="0" rx="1" ry="1" /></g>
<g transform="translate(12.341881 191.000000) rotate(269.474799) scale(10.894388 28.057286)"><ellipse fill="#9cc1d4" fill-opacity="0.501961" cx="0" cy="0" rx="1" ry="1" /></g>
<g transform="translate(98.926250 32.567710) rotate(246.663305) scale(7.731145 2.537027)"><ellipse fill="#ff480c" fill-opacity="0.501961" cx="0" cy="0" rx="1" ry="1" /></g>
<g transform="translate(83.578562 86.064160) rotate(90.491036) scale(17.452379 2.454453)"><ellipse fill="#486a71" fill-opacity="0.501961" cx="0" cy="0" rx="1" ry="1" /></g>
<g transform="translate(71.554417 78.068417) rotate(-2.801624) scale(2.633335 11.800396)"><ellipse fill="#978474" fill-opacity="0.501961" cx="0" cy="0" rx="1" ry="1" /></g>
<g transform="translate(32.508427 51.984279) rotate(96.890236) scale(13.040493 1.000000)"><ellipse fill="#bb2028" fill-opacity="0.501961" cx="0" cy="0" rx="1" ry="1" /></g>
<g transform="translate(63.731519 91.201090) rotate(258.584812) scale(23.828676 2.117542)"><ellipse fill="#12152c" fill-opacity="0.501961" cx="0" cy="0" rx="1" ry="1" /></g>
<g transform="translate(120.871292 56.631161) rotate(253.982722) scale(10.111241 9.022801)"><ellipse fill="#0060ac" fill-opacity="0.501961" cx="0" cy="0" rx="1" ry="1" /></g>
<g transform="translate(66.300530 49.395167) rotate(256.119018) scale(7.802250 2.353735)"><ellipse fill="#f05949" fill-opacity="0.501961" cx="0" cy="0" rx="1" ry="1" /></g>
<g transform="translate(119.670975 41.509386) rotate(185.466341) scale(2.136836 3.517810)"><ellipse fill="#ddd3c3" fill-opacity="0.501961" cx="0" cy="0" rx="1" ry="1" /></g>
<g transform="translate(89.683272 48.533796) rotate(121.067141) scale(5.767118 7.338161)"><ellipse fill="#f1473e" fill-opacity="0.501961" cx="0" cy="0" rx="1" ry="1" /></g>
<g transform="translate(213.877023 158.146254) rotate(176.691275) scale(49.958419 2.557520)"><ellipse fill="#3fa5c8" fill-opacity="0.501961" cx="0" cy="0" rx="1" ry="1" /></g>
<g transform="translate(74.806150 125.914222) rotate(157.758878) scale(1.565670 2.742070)"><ellipse fill="#d3a87b" fill-opacity="0.501961" cx="0" cy="0" rx="1" ry="1" /></g>
<g transform="translate(42.353021 56.125860) rotate(273.091368) scale(14.760037 1.000000)"><ellipse fill="#e1bc18" fill-opacity="0.501961" cx="0" cy="0" rx="1" ry="1" /></g>
<g transform="translate(55.051936 136.082660) rotate(335.764084) scale(9.966465 15.818341)"><ellipse fill="#81b0c6" fill-opacity="0.501961" cx="0" cy="0" rx="1" ry="1" /></g>
<g transform="translate(54.626360 41.103967) rotate(267.204713) scale(1.811362 8.896234)"><ellipse fill="#9b0717" fill-opacity="0.501961" cx="0" cy="0" rx="1" ry="1" /></g>
<g transform="translate(49.964400 110.047552) rotate(231.556495) scale(29.402222 2.134442)"><ellipse fill="#434a3b" fill-opacity="0.501961" cx="0" cy="0" rx="1" ry="1" /></g>
<g transform="translate(54.895470 58.569862) rotate(0.584136) scale(1.000000 23.542704)"><ellipse fill="#d85339" fill-opacity="0.501961" cx="0" cy="0" rx="1" ry="1" /></g>
<g transform="translate(113.901048 45.451573) rotate(263.460407) scale(9.634296 3.444018)"><ellipse fill="#144492" fill-opacity="0.501961" cx="0" cy="0" rx="1" ry="1" /></g>
<g transform="translate(125.437069 73.888053) rotate(157.928200) scale(3.320670 7.079090)"><ellipse fill="#004f8d" fill-opacity="0.501961" cx="0" cy="0" rx="1" ry="1" /></g>
<g transform="translate(0.000000 60.917235) rotate(284.618680) scale(32.560487 9.806579)"><ellipse fill="#0e99c3" fill-opacity="0.501961" cx="0" cy="0" rx="1" ry="1" /></g>
<g transform="translate(164.363878 112.145755) rotate(99.843172) scale(9.855690 22.505349)"><ellipse fill="#51a3c4" fill-opacity="0.501961" cx="0" cy="0" rx="1" ry="1" /></g>
<g transform="translate(16.015022 108.832837) rotate(69.380931) scale(10.353716 24.811638)"><ellipse fill="#46a7ca" fill-opacity="0.501961" cx="0" cy="0" rx="1" ry="1" /></g>
<g transform="translate(77.939444 30.111084) rotate(205.703387) scale(3.418406 9.118666)"><ellipse fill="#e6b60a" fill-opacity="0.501961" cx="0" cy="0" rx="1" ry="1" /></g>
<g transform="translate(98.522480 79.819912) rotate(22.857179) scale(3.745790 25.415150)"><ellipse fill="#d49f00" fill-opacity="0.501961" cx="0" cy="0" rx="1" ry="1" /></g>
<g transform="translate(89.166227 72.043698) rotate(189.861629) scale(5.273007 3.993436)"><ellipse fill="#60939b" fill-opacity="0.501961" cx="0" cy="0" rx="1" ry="1" /></g>
<g transform="translate(69.796680 105.847963) rotate(266.824696) scale(35.003423 1.000000)"><ellipse fill="#2b2a50" fill-opacity="0.501961" cx="0" cy="0" rx="1" ry="1" /></g>
<g transform="translate(45.965570 34.728147) rotate(218.866303) scale(1.319318 8.975126)"><ellipse fill="#142f62" fill-opacity="0.501961" cx="0" cy="0" rx="1" ry="1" /></g>
<g transform="translate(72.961800 62.178433) rotate(203.018004) scale(4.402773 6.814103)"><ellipse fill="#c49c15" fill-opacity="0.501961" cx="0" cy="0" rx="1" ry="1" /></g>
<g transform="translate(76.861392 133.809223) rotate(175.271266) scale(8.123035 4.488926)"><ellipse fill="#3a2a2b" fill-opacity="0.501961" cx="0" cy="0" rx="1" ry="1" /></g>
<g transform="translate(75.988650 108.149249) rotate(2.459904) scale(2.253270 21.911916)"><ellipse fill="#ba9e85" fill-opacity="0.501961" cx="0" cy="0" rx="1" ry="1" /></g>
<g transform="translate(114.482288 83.759714) rotate(10.276937) scale(1.545384 10.306486)"><ellipse fill="#ce4306" fill-opacity="0.501961" cx="0" cy="0" rx="1" ry="1" /></g>
<g transform="translate(101.634582 35.371713) rotate(233.955547) scale(14.733320 2.535808)"><ellipse fill="#eb671c" fill-opacity="0.501961" cx="0" cy="0" rx="1" ry="1" /></g>
<g transform="translate(34.540293 25.815184) rotate(60.408838) scale(8.827564 23.421201)"><ellipse fill="#2698c2" fill-opacity="0.501961" cx="0" cy="0" rx="1" ry="1" /></g>
<g transform="translate(90.993669 113.974233) rotate(295.124058) scale(18.140472 1.000000)"><ellipse fill="#3c7c3a" fill-opacity="0.501961" cx="0" cy="0" rx="1" ry="1" /></g>
<g transform="translate(131.087305 31.343881) rotate(192.054623) scale(12.850952 14.081023)"><ellipse fill="#2396bc" fill-opacity="0.501961" cx="0" cy="0" rx="1" ry="1" /></g>
<g transform="translate(125.005670 85.620167) rotate(298.325961) scale(5.088146 1.000000)"><ellipse fill="#cdb8a5" fill-opacity="0.501961" cx="0" cy="0" rx="1" ry="1" /></g>
<g transform="translate(58.772584 61.462786) rotate(168.796195) scale(2.517411 6.532483)"><ellipse fill="#680208" fill-opacity="0.501961" cx="0" cy="0" rx="1" ry="1" /></g>
<g transform="translate(110.910652 4.849477) rotate(286.728463) scale(11.848041 31.315355)"><ellipse fill="#008fbb" fill-opacity="0.501961" cx="0" cy="0" rx="1" ry="1" /></g>
<g transform="translate(88.303569 33.828454) rotate(-5.054758) scale(5.589466 4.833234)"><ellipse fill="#5f9461" fill-opacity="0.501961" cx="0" cy="0" rx="1" ry="1" /></g>
<g transform="translate(212.392240 42.585833) rotate(274.698700) scale(21.320869 66.409814)"><ellipse fill="#008dba" fill-opacity="0.501961" cx="0" cy="0" rx="1" ry="1" /></g>
<g transform="translate(79.465169 87.902321) rotate(275.503009) scale(21.922212 1.000000)"><ellipse fill="#c9b3a3" fill-opacity="0.501961" cx="0" cy="0" rx="1" ry="1" /></g>
<g transform="translate(61.336488 100.063939) rotate(73.128641) scale(32.166414 1.000000)"><ellipse fill="#bb3c08" fill-opacity="0.501961" cx="0" cy="0" rx="1" ry="1" /></g>
<g transform="translate(169.615067 169.714171) rotate(265.421613) scale(6.363110 90.544605)"><ellipse fill="#6daec7" fill-opacity="0.501961" cx="0" cy="0" rx="1" ry="1" /></g>
<g transform="translate(134.061445 89.268575) rotate(203.402505) scale(8.918719 20.840569)"><ellipse fill="#3aa0c4" fill-opacity="0.501961" cx="0" cy="0" rx="1" ry="1" /></g>
<g transform="translate(54.115496 75.748381) rotate(-15.104456) scale(3.447581 6.696346)"><ellipse fill="#c43b01" fill-opacity="0.501961" cx="0" cy="0" rx="1" ry="1" /></g>
<g transform="translate(102.809019 43.850197) rotate(-55.246639) scale(4.507255 7.544954)"><ellipse fill="#f5c53c" fill-opacity="0.501961" cx="0" cy="0" rx="1" ry="1" /></g>
<g transform="translate(51.877988 107.174235) rotate(240.638168) scale(29.278821 1.000000)"><ellipse fill="#624603" fill-opacity="0.501961" cx="0" cy="0" rx="1" ry="1" /></g>
<g transform="translate(110.130711 36.582716) rotate(324.171482) scale(2.113486 7.688481)"><ellipse fill="#4b3563" fill-opacity="0.501961" cx="0" cy="0" rx="1" ry="1" /></g>
<g transform="translate(49.345032 77.066704) rotate(164.552970) scale(1.670962 19.085240)"><ellipse fill="#6a150b" fill-opacity="0.501961" cx="0" cy="0" rx="1" ry="1" /></g>
<g transform="translate(44.565735 33.918722) rotate(217.423212) scale(1.000000 8.218045)"><ellipse fill="#122964" fill-opacity="0.501961" cx="0" cy="0" rx="1" ry="1" /></g>
<g transform="translate(232.447878 99.229765) rotate(1.848720) scale(49.239291 3.754971)"><ellipse fill="#209dc4" fill-opacity="0.501961" cx="0" cy="0" rx="1" ry="1" /></g>
<g transform="translate(52.689368 37.707068) rotate(83.742007) scale(1.000000 6.430874)"><ellipse fill="#bdbab7" fill-opacity="0.501961" cx="0" cy="0" rx="1" ry="1" /></g>
<g transform="translate(75.927308 14.323810) rotate(182.205180) scale(31.723333 7.419814)"><ellipse fill="#2594bf" fill-opacity="0.501961" cx="0" cy="0" rx="1" ry="1" /></g>
<g transform="translate(90.098232 43.638888) rotate(39.490545) scale(8.360420 3.393497)"><ellipse fill="#d13532" fill-opacity="0.501961" cx="0" cy="0" rx="1" ry="1" /></g>
<g transform="translate(28.091426 55.484257) rotate(9.605270) scale(1.000000 10.576051)"><ellipse fill="#645b08" fill-opacity="0.501961" cx="0" cy="0" rx="1" ry="1" /></g>
<g transform="translate(111.766936 131.758841) rotate(347.065405) scale(26.524683 13.297743)"><ellipse fill="#7fb3ca" fill-opacity="0.501961" cx="0" cy="0" rx="1" ry="1" /></g>
<g transform="translate(80.324101 108.682048) rotate(4.107500) scale(1.000000 25.334380)"><ellipse fill="#36565e" fill-opacity="0.501961" cx="0" cy="0" rx="1" ry="1" /></g>
<g transform="translate(85.299269 66.039587) rotate(247.571877) scale(1.670533 3.113661)"><ellipse fill="#880b13" fill-opacity="0.501961" cx="0" cy="0" rx="1" ry="1" /></g>
<g transform="translate(77.847595 74.799867) rotate(89.700098) scale(7.158185 3.834383)"><ellipse fill="#ceb9a5" fill-opacity="0.501961" cx="0" cy="0" rx="1" ry="1" /></g>
<g transform="translate(190.274253 104.505581) rotate(179.095523) scale(53.519659 3.674646)"><ellipse fill="#399ec3" fill-opacity="0.501961" cx="0" cy="0" rx="1" ry="1" /></g>
<g transform="translate(206.191752 177.171199) rotate(261.773725) scale(5.155631 70.050639)"><ellipse fill="#5ca9c3" fill-opacity="0.501961" cx="0" cy="0" rx="1" ry="1" /></g>
<g transform="translate(104.557396 35.590076) rotate(238.423960) scale(5.535975 2.107754)"><ellipse fill="#dd3e15" fill-opacity="0.501961" cx="0" cy="0" rx="1" ry="1" /></g>
<g transform="translate(51.043825 155.292630) rotate(263.015400) scale(2.689176 18.259776)"><ellipse fill="#53aac9" fill-opacity="0.501961" cx="0" cy="0" rx="1" ry="1" /></g>
<g transform="translate(95.516803 116.939672) rotate(124.247515) scale(17.888733 1.000000)"><ellipse fill="#912315" fill-opacity="0.501961" cx="0" cy="0" rx="1" ry="1" /></g>
<g transform="translate(188.543175 191.000000) rotate(86.453922) scale(3.703767 62.368602)"><ellipse fill="#7cafc3" fill-opacity="0.501961" cx="0" cy="0" rx="1" ry="1" /></g>
<g transform="translate(33.086043 67.749518) rotate(330.569061) scale(3.175995 5.680092)"><ellipse fill="#5b0714" fill-opacity="0.501961" cx="0" cy="0" rx="1" ry="1" /></g>
<g transform="translate(64.210148 72.858974) rotate(142.941915) scale(5.621049 2.631891)"><ellipse fill="#272853" fill-opacity="0.501961" cx="0" cy="0" rx="1" ry="1" /></g>
<g transform="translate(69.236024 29.193767) rotate(110.016371) scale(8.952210 1.943512)"><ellipse fill="#74a8b4" fill-opacity="0.501961" cx="0" cy="0" rx="1" ry="1" /></g>
<g transform="translate(109.007958 55.075591) rotate(266.431308) scale(8.457134 1.498376)"><ellipse fill="#ef7440" fill-opacity="0.501961" cx="0" cy="0" rx="1" ry="1" /></g>
<g transform="translate(121.828730 59.512202) rotate(62.023872) scale(14.636503 7.977161)"><ellipse fill="#0060a9" fill-opacity="0.501961" cx="0" cy="0" rx="1" ry="1" /></g>
<g transform="translate(65.157016 59.377254) rotate(87.894780) scale(9.335089 4.084396)"><ellipse fill="#c33734" fill-opacity="0.501961" cx="0" cy="0" rx="1" ry="1" /></g>
<g transform="translate(100.287378 106.761445) rotate(212.017200) scale(1.000000 27.307528)"><ellipse fill="#c64107" fill-opacity="0.501961" cx="0" cy="0" rx="1" ry="1" /></g>
<g transform="translate(75.302204 27.926374) rotate(14.401919) scale(3.441252 4.357828)"><ellipse fill="#cb9e00" fill-opacity="0.501961" cx="0" cy="0" rx="1" ry="1" /></g>
<g transform="translate(36.758915 70.288744) rotate(356.180984) scale(1.198989 18.916637)"><ellipse fill="#735d00" fill-opacity="0.501961" cx="0" cy="0" rx="1" ry="1" /></g>
<g transform="translate(87.312637 30.236317) rotate(257.846175) scale(6.702635 3.380769)"><ellipse fill="#4f9265" fill-opacity="0.501961" cx="0" cy="0" rx="1" ry="1" /></g>
<g transform="translate(43.075439 75.940128) rotate(153.062782) scale(2.968248 6.460238)"><ellipse fill="#1c5332" fill-opacity="0.501961" cx="0" cy="0" rx="1" ry="1" /></g>
<g transform="translate(89.066555 84.511016) rotate(378.454262) scale(2.211017 16.030976)"><ellipse fill="#60898a" fill-opacity="0.501961" cx="0" cy="0" rx="1" ry="1" /></g>
<g transform="translate(55.962990 30.258050) rotate(139.200682) scale(10.514002 1.759328)"><ellipse fill="#b9aa9e" fill-opacity="0.501961" cx="0" cy="0" rx="1" ry="1" /></g>
<g transform="translate(109.677745 181.816328) rotate(90.987374) scale(1.732415 24.228495)"><ellipse fill="#8fb9ca" fill-opacity="0.501961" cx="0" cy="0" rx="1" ry="1" /></g>
<g transform="translate(109.552828 75.409129) rotate(227.249063) scale(3.349543 3.446431)"><ellipse fill="#5e9c57" fill-opacity="0.501961" cx="0" cy="0" rx="1" ry="1" /></g>
<g transform="translate(113.975754 89.554707) rotate(121.883733) scale(14.880313 1.000000)"><ellipse fill="#a0280f" fill-opacity="0.501961" cx="0" cy="0" rx="1" ry="1" /></g>
<g transform="translate(112.898964 67.797957) rotate(233.706056) scale(3.830801 5.394626)"><ellipse fill="#004697" fill-opacity="0.501961" cx="0" cy="0" rx="1" ry="1" /></g>
<g transform="translate(24.850370 0.000000) rotate(259.054566) scale(10.318557 178.672344)"><ellipse fill="#008cba" fill-opacity="0.501961" cx="0" cy="0" rx="1" ry="1" /></g>
<g transform="translate(40.497426 48.337533) rotate(188.481071) scale(3.424028 5.606799)"><ellipse fill="#e5bc21" fill-opacity="0.501961" cx="0" cy="0" rx="1" ry="1" /></g>
<g transform="translate(55.510936 36.630120) rotate(319.353767) scale(2.559568 1.435914)"><ellipse fill="#e2c9b7" fill-opacity="0.501961" cx="0" cy="0" rx="1" ry="1" /></g>
<g transform="translate(72.724967 149.793054) rotate(199.909119) scale(2.600845 1.000000)"><ellipse fill="#032039" fill-opacity="0.501961" cx="0" cy="0" rx="1" ry="1" /></g>
<g transform="translate(115.652800 106.899184) rotate(141.049627) scale(20.046970 2.288792)"><ellipse fill="#4aa5c7" fill-opacity="0.501961" cx="0" cy="0" rx="1" ry="1" /></g>
<g transform="translate(54.571082 48.678950) rotate(284.492609) scale(7.123321 2.500489)"><ellipse fill="#da4b40" fill-opacity="0.501961" cx="0" cy="0" rx="1" ry="1" /></g>
<g transform="translate(120.790442 90.665115) rotate(296.691532) scale(12.492113 1.000000)"><ellipse fill="#b19784" fill-opacity="0.501961" cx="0" cy="0" rx="1" ry="1" /></g>
<g transform="translate(206.755145 156.394284) rotate(265.390307) scale(4.813569 60.368872)"><ellipse fill="#42a3c3" fill-opacity="0.501961" cx="0" cy="0" rx="1" ry="1" /></g>
<g transform="translate(120.825632 74.090581) rotate(106.589582) scale(1.479696 8.134047)"><ellipse fill="#004689" fill-opacity="0.501961" cx="0" cy="0" rx="1" ry="1" /></g>
<g transform="translate(118.072828 32.224906) rotate(27.206894) scale(19.662448 2.134383)"><ellipse fill="#3699bf" fill-opacity="0.501961" cx="0" cy="0" rx="1" ry="1" /></g>
<g transform="translate(77.904789 61.241258) rotate(337.901246) scale(3.289421 7.305533)"><ellipse fill="#e7ba23" fill-opacity="0.501961" cx="0" cy="0" rx="1" ry="1" /></g>
<g transform="translate(152.439214 76.501724) rotate(351.531252) scale(9.970468 29.444155)"><ellipse fill="#179ac0" fill-opacity="0.501961" cx="0" cy="0" rx="1" ry="1" /></g>
<g transform="translate(91.459751 144.902677) rotate(266.024302) scale(1.000000 39.381906)"><ellipse fill="#72acc5" fill-opacity="0.501961" cx="0" cy="0" rx="1" ry="1" /></g>
<g transform="translate(134.867474 54.537615) rotate(252.170060) scale(19.911735 4.213836)"><ellipse fill="#2a9bc0" fill-opacity="0.501961" cx="0" cy="0" rx="1" ry="1" /></g>
<g transform="translate(89.679056 51.894787) rotate(340.851990) scale(3.874572 14.385847)"><ellipse fill="#d43930" fill-opacity="0.501961" cx="0" cy="0" rx="1" ry="1" /></g>
<g transform="translate(55.218471 102.162239) rotate(156.570262) scale(1.000000 21.262394)"><ellipse fill="#355332" fill-opacity="0.501961" cx="0" cy="0" rx="1" ry="1" /></g>
<g transform="translate(48.160344 61.771254) rotate(247.426320) scale(7.786320 3.043336)"><ellipse fill="#700f19" fill-opacity="0.501961" cx="0" cy="0" rx="1" ry="1" /></g>
<g transform="translate(85.464846 100.510638) rotate(287.332675) scale(22.728404 2.170413)"><ellipse fill="#5a7c78" fill-opacity="0.501961" cx="0" cy="0" rx="1" ry="1" /></g>
<g transform="translate(66.040019 45.687100) rotate(283.409451) scale(8.262602 2.338926)"><ellipse fill="#e03939" fill-opacity="0.501961" cx="0" cy="0" rx="1" ry="1" /></g>
<g transform="translate(35.885646 77.996416) rotate(63.764765) scale(7.029857 1.324590)"><ellipse fill="#7f5b00" fill-opacity="0.501961" cx="0" cy="0" rx="1" ry="1" /></g>
<g transform="translate(94.677905 120.240736) rotate(218.171139) scale(1.000000 19.852931)"><ellipse fill="#543442" fill-opacity="0.501961" cx="0" cy="0" rx="1" ry="1" /></g>
<g transform="translate(80.948466 160.815744) rotate(-1.768259) scale(46.829439 3.043851)"><ellipse fill="#61adc9" fill-opacity="0.501961" cx="0" cy="0" rx="1" ry="1" /></g>
<g transform="translate(32.349421 168.233951) rotate(359.608494) scale(102.366641 2.785594)"><ellipse fill="#78b6ce" fill-opacity="0.501961" cx="0" cy="0" rx="1" ry="1" /></g>
<g transform="translate(66.833963 90.809298) rotate(261.330879) scale(20.421206 2.122750)"><ellipse fill="#363257" fill-opacity="0.501961" cx="0" cy="0" rx="1" ry="1" /></g>
<g transform="translate(57.311275 84.731308) rotate(79.485145) scale(9.167375 2.170735)"><ellipse fill="#bc3c08" fill-opacity="0.501961" cx="0" cy="0" rx="1" ry="1" /></g>
<g transform="translate(93.038790 103.079343) rotate(201.670666) scale(1.000000 30.278999)"><ellipse fill="#a6850b" fill-opacity="0.501961" cx="0" cy="0" rx="1" ry="1" /></g>
<g transform="translate(157.487156 143.043400) rotate(269.735760) scale(3.986081 26.085568)"><ellipse fill="#37a2c4" fill-opacity="0.501961" cx="0" cy="0" rx="1" ry="1" /></g>
<g transform="translate(89.846354 104.581658) rotate(23.708273) scale(2.997830 9.314223)"><ellipse fill="#c59400" fill-opacity="0.501961" cx="0" cy="0" rx="1" ry="1" /></g>
<g transform="translate(91.722545 27.387820) rotate(50.854833) scale(6.592511 1.000000)"><ellipse fill="#62a382" fill-opacity="0.501961" cx="0" cy="0" rx="1" ry="1" /></g>
<g transform="translate(100.391175 70.344322) rotate(263.216764) scale(9.578599 5.270122)"><ellipse fill="#dbab0e" fill-opacity="0.501961" cx="0" cy="0" rx="1" ry="1" /></g>
<g transform="translate(79.226456 47.833965) rotate(51.328431) scale(5.435823 2.502057)"><ellipse fill="#fdd25c" fill-opacity="0.501961" cx="0" cy="0" rx="1" ry="1" /></g>
<g transform="translate(197.571878 143.790422) rotate(264.840711) scale(8.823943 45.852712)"><ellipse fill="#23a0c3" fill-opacity="0.501961" cx="0" cy="0" rx="1" ry="1" /></g>
<g transform="translate(91.257982 63.764391) rotate(55.390623) scale(5.941006 3.301990)"><ellipse fill="#a9231f" fill-opacity="0.501961" cx="0" cy="0" rx="1" ry="1" /></g>
<g transform="translate(77.203238 154.188085) rotate(218.144291) scale(2.806761 3.244210)"><ellipse fill="#97662c" fill-opacity="0.501961" cx="0" cy="0" rx="1" ry="1" /></g>
<g transform="translate(91.647410 43.176378) rotate(330.653005) scale(5.131845 3.466397)"><ellipse fill="#d2312b" fill-opacity="0.501961" cx="0" cy="0" rx="1" ry="1" /></g>
<g transform="translate(42.634103 93.598604) rotate(59.323399) scale(33.211305 1.928687)"><ellipse fill="#624c0b" fill-opacity="0.501961" cx="0" cy="0" rx="1" ry="1" /></g>
<g transform="translate(18.266879 132.915762) rotate(180.789214) scale(60.383719 1.000000)"><ellipse fill="#77aac2" fill-opacity="0.501961" cx="0" cy="0" rx="1" ry="1" /></g>
<g transform="translate(202.021868 79.538367) rotate(179.160603) scale(43.604991 17.214472)"><ellipse fill="#0095be" fill-opacity="0.501961" cx="0" cy="0" rx="1" ry="1" /></g>
<g transform="translate(30.991247 46.878777) rotate(112.509820) scale(6.852968 1.209994)"><ellipse fill="#533c27" fill-opacity="0.501961" cx="0" cy="0" rx="1" ry="1" /></g>
<g transform="translate(88.358016 142.797263) rotate(351.890291) scale(10.713027 3.317487)"><ellipse fill="#83b3ca" fill-opacity="0.501961" cx="0" cy="0" rx="1" ry="1" /></g>
<g transform="translate(36.153938 114.079086) rotate(273.386982) scale(6.118297 13.571921)"><ellipse fill="#52a8c8" fill-opacity="0.501961" cx="0" cy="0" rx="1" ry="1" /></g>
<g transform="translate(95.284702 50.173123) rotate(261.571598) scale(6.190164 1.439152)"><ellipse fill="#fb5a4b" fill-opacity="0.501961" cx="0" cy="0" rx="1" ry="1" /></g>
<g transform="translate(102.730356 50.658788) rotate(241.942536) scale(7.211798 6.040219)"><ellipse fill="#f9d04a" fill-opacity="0.501961" cx="0" cy="0" rx="1" ry="1" /></g>
<g transform="translate(116.813193 89.900176) rotate(297.864980) scale(16.699338 1.197003)"><ellipse fill="#292f5e" fill-opacity="0.501961" cx="0" cy="0" rx="1" ry="1" /></g>
<g transform="translate(72.827835 97.535048) rotate(87.812155) scale(32.886476 1.000000)"><ellipse fill="#957a5d" fill-opacity="0.501961" cx="0" cy="0" rx="1" ry="1" /></g>
<g transform="translate(32.570177 52.906001) rotate(89.450414) scale(8.673327 1.057613)"><ellipse fill="#bf2226" fill-opacity="0.501961" cx="0" cy="0" rx="1" ry="1" /></g>
<g transform="translate(185.520407 117.874263) rotate(252.822049) scale(6.082281 24.928764)"><ellipse fill="#72acc6" fill-opacity="0.501961" cx="0" cy="0" rx="1" ry="1" /></g>
<g transform="translate(255.000000 105.016101) rotate(107.830234) scale(3.289988 18.122553)"><ellipse fill="#379bc6" fill-opacity="0.501961" cx="0" cy="0" rx="1" ry="1" /></g>
<g transform="translate(255.000000 178.647406) rotate(183.768158) scale(25.235970 5.742083)"><ellipse fill="#48a2c0" fill-opacity="0.501961" cx="0" cy="0" rx="1" ry="1" /></g>
<g transform="translate(58.841990 74.260068) rotate(171.467737) scale(1.000000 14.636350)"><ellipse fill="#33141f" fill-opacity="0.501961" cx="0" cy="0" rx="1" ry="1" /></g>
<g transform="translate(36.487039 89.347498) rotate(330.406066) scale(1.000000 19.287969)"><ellipse fill="#274046" fill-opacity="0.501961" cx="0" cy="0" rx="1" ry="1" /></g>
<g transform="translate(71.660630 133.794629) rotate(304.251701) scale(2.116345 6.648293)"><ellipse fill="#392622" fill-opacity="0.501961" cx="0" cy="0" rx="1" ry="1" /></g>
<g transform="translate(252.681208 132.763435) rotate(364.203203) scale(12.150861 8.611875)"><ellipse fill="#0699c0" fill-opacity="0.501961" cx="0" cy="0" rx="1" ry="1" /></g>
<g transform="translate(30.988331 18.772528) rotate(56.080867) scale(5.483991 24.631139)"><ellipse fill="#1494be" fill-opacity="0.501961" cx="0" cy="0" rx="1" ry="1" /></g>
<g transform="translate(70.187068 51.097728) rotate(101.675646) scale(6.242483 1.558063)"><ellipse fill="#d8b240" fill-opacity="0.501961" cx="0" cy="0" rx="1" ry="1" /></g>
<g transform="translate(219.501811 121.272514) rotate(352.385527) scale(72.519673 2.265424)"><ellipse fill="#80b1c9" fill-opacity="0.501961" cx="0" cy="0" rx="1" ry="1" /></g>
<g transform="translate(49.529141 29.029188) rotate(240.530600) scale(1.000000 6.310635)"><ellipse fill="#282f5b" fill-opacity="0.501961" cx="0" cy="0" rx="1" ry="1" /></g>
<g transform="translate(19.353964 74.273679) rotate(282.971429) scale(26.293707 3.220136)"><ellipse fill="#3a9fc4" fill-opacity="0.501961" cx="0" cy="0" rx="1" ry="1" /></g>
<g transform="translate(149.462328 35.853721) rotate(19.266050) scale(12.183413 16.969938)"><ellipse fill="#0895be" fill-opacity="0.501961" cx="0" cy="0" rx="1" ry="1" /></g>
<g transform="translate(56.143056 97.030597) rotate(337.471515) scale(1.000000 23.767472)"><ellipse fill="#63140b" fill-opacity="0.501961" cx="0" cy="0" rx="1" ry="1" /></g>
<g transform="translate(27.068121 131.502944) rotate(274.062208) scale(5.015778 41.455807)"><ellipse fill="#78b3cd" fill-opacity="0.501961" cx="0" cy="0" rx="1" ry="1" /></g>
<g transform="translate(75.567396 156.575216) rotate(87.873784) scale(1.000000 3.694560)"><ellipse fill="#593420" fill-opacity="0.501961" cx="0" cy="0" rx="1" ry="1" /></g>
<g transform="translate(60.246946 40.467301) rotate(85.004143) scale(2.401510 9.796715)"><ellipse fill="#ad2929" fill-opacity="0.501961" cx="0" cy="0" rx="1" ry="1" /></g>
<g transform="translate(96.418337 103.820587) rotate(207.665885) scale(1.118718 26.213832)"><ellipse fill="#4a7b3d" fill-opacity="0.501961" cx="0" cy="0" rx="1" ry="1" /></g>
<g transform="translate(71.344025 63.142062) rotate(85.369520) scale(4.438238 1.943426)"><ellipse fill="#b08b00" fill-opacity="0.501961" cx="0" cy="0" rx="1" ry="1" /></g>
<g transform="translate(98.883291 103.332188) rotate(209.267130) scale(1.000000 30.291301)"><ellipse fill="#355725" fill-opacity="0.501961" cx="0" cy="0" rx="1" ry="1" /></g>
<g transform="translate(105.676696 78.970354) rotate(198.272075) scale(1.575567 8.185450)"><ellipse fill="#6e9153" fill-opacity="0.501961" cx="0" cy="0" rx="1" ry="1" /></g>
<g transform="translate(42.714163 44.052731) rotate(117.290822) scale(3.452599 1.750906)"><ellipse fill="#e7c21f" fill-opacity="0.501961" cx="0" cy="0" rx="1" ry="1" /></g>
<g transform="translate(90.831298 41.300333) rotate(95.624181) scale(2.630347 5.637860)"><ellipse fill="#bf2823" fill-opacity="0.501961" cx="0" cy="0" rx="1" ry="1" /></g>
<g transform="translate(4.596845 75.873924) rotate(100.542517) scale(22.004606 8.317256)"><ellipse fill="#229ec6" fill-opacity="0.501961" cx="0" cy="0" rx="1" ry="1" /></g>
<g transform="translate(86.949588 80.424235) rotate(9.184536) scale(2.108505 11.798769)"><ellipse fill="#688b8f" fill-opacity="0.501961" cx="0" cy="0" rx="1" ry="1" /></g>
<g transform="translate(6.128921 152.612772) rotate(88.360580) scale(2.059117 32.550010)"><ellipse fill="#67b2ce" fill-opacity="0.501961" cx="0" cy="0" rx="1" ry="1" /></g>
<g transform="translate(35.905795 51.508250) rotate(187.263261) scale(1.000000 8.233858)"><ellipse fill="#7c630d" fill-opacity="0.501961" cx="0" cy="0" rx="1" ry="1" /></g>
<g transform="translate(114.675594 79.902177) rotate(110.773025) scale(5.169446 1.329323)"><ellipse fill="#e55606" fill-opacity="0.501961" cx="0" cy="0" rx="1" ry="1" /></g>
<g transform="translate(80.746907 102.234584) rotate(185.211032) scale(1.000000 33.169327)"><ellipse fill="#435d61" fill-opacity="0.501961" cx="0" cy="0" rx="1" ry="1" /></g>
<g transform="translate(150.216935 0.000000) rotate(290.048941) scale(16.712509 105.681663)"><ellipse fill="#008ab8" fill-opacity="0.501961" cx="0" cy="0" rx="1" ry="1" /></g>
<g transform="translate(109.001538 56.045750) rotate(95.803554) scale(12.317149 1.241463)"><ellipse fill="#db6539" fill-opacity="0.501961" cx="0" cy="0" rx="1" ry="1" /></g>
<g transform="translate(26.504590 35.538071) rotate(310.016750) scale(15.877258 7.916054)"><ellipse fill="#2d9ac2" fill-opacity="0.501961" cx="0" cy="0" rx="1" ry="1" /></g>
<g transform="translate(79.339956 24.816619) rotate(65.686762) scale(2.663775 3.348830)"><ellipse fill="#eebf2d" fill-opacity="0.501961" cx="0" cy="0" rx="1" ry="1" /></g>
<g transform="translate(60.888546 59.506784) rotate(55.141689) scale(8.969639 1.690612)"><ellipse fill="#90191b" fill-opacity="0.501961" cx="0" cy="0" rx="1" ry="1" /></g>
<g transform="translate(58.262430 30.991991) rotate(109.813642) scale(7.207756 1.305808)"><ellipse fill="#c5bbae" fill-opacity="0.501961" cx="0" cy="0" rx="1" ry="1" /></g>
<g transform="translate(101.713401 13.352627) rotate(14.897122) scale(39.758568 4.640066)"><ellipse fill="#1792bb" fill-opacity="0.501961" cx="0" cy="0" rx="1" ry="1" /></g>
<g transform="translate(121.808182 59.390390) rotate(-114.298212) scale(10.861138 10.269838)"><ellipse fill="#0060a8" fill-opacity="0.501961" cx="0" cy="0" rx="1" ry="1" /></g>
<g transform="translate(102.990465 58.000706) rotate(247.717520) scale(4.775831 6.348659)"><ellipse fill="#eec132" fill-opacity="0.501961" cx="0" cy="0" rx="1" ry="1" /></g>
<g transform="translate(101.103765 23.409914) rotate(193.736057) scale(38.294330 2.054983)"><ellipse fill="#3295be" fill-opacity="0.501961" cx="0" cy="0" rx="1" ry="1" /></g>
<g transform="translate(71.702297 46.289408) rotate(263.539136) scale(8.896808 2.305325)"><ellipse fill="#dcb433" fill-opacity="0.501961" cx="0" cy="0" rx="1" ry="1" /></g>
</g>
</svg>