<svg height="768" width="1024" xmlns="http://www.w3.org/2000/svg"><path d="m0 0h1024v768h-1024z" fill="#4795ab"/><g fill-opacity=".501961"><ellipse fill="#cc3c00" rx="1" ry="1" transform="matrix(-174.67280048 55.48302184 -65.50471712 -206.2233094 295.063644 298.694432)"/><ellipse fill="#0089ca" rx="1" ry="1" transform="matrix(-368.93123676 176.6622874 -150.68682604 -314.68559536 831.937112 82.86796)"/><ellipse fill="#94c9e3" rx="1" ry="1" transform="matrix(-31.15038172 145.5187628 -997.40367164 -213.5085848 292.680624 684.477624)"/><ellipse fill="#351300" rx="1" ry="1" transform="matrix(-107.70404804 -171.01302816 41.21852624 -25.95943816 218.708016 392.560128)"/><ellipse fill="#ffad20" rx="1" ry="1" transform="matrix(25.79760204 113.38272004 -87.00411428 19.79576356 354.618388 201.589408)"/><ellipse fill="#008abf" rx="1" ry="1" transform="matrix(-927.96017488 24.07795936 -1.60346416 -61.7972168 524.143224 38.684868)"/><ellipse fill="#84c0e1" rx="1" ry="1" transform="matrix(-302.7451926 43.61465788 -10.82042436 -75.10849832 644.955156 503.627552)"/><ellipse fill="#c12f00" rx="1" ry="1" transform="matrix(-10.4403336 62.90514524 -95.42927564 -15.83834624 200.638404 227.151108)"/><ellipse fill="#0090bb" rx="1" ry="1" transform="matrix(-335.32148828 -90.38067048 71.73914 -266.15951248 863.378448 137.101824)"/><ellipse fill="#009ed6" rx="1" ry="1" transform="matrix(-66.87446152 -6.8882918 34.44028224 -334.36088412 50.03666 138.67008)"/><ellipse fill="#07a4d2" rx="1" ry="1" transform="matrix(-6.15108008 -50.75083072 427.45833544 -51.80861884 851.94852 574.146432)"/><ellipse fill="#636915" rx="1" ry="1" transform="matrix(-95.29290072 208.41023124 -21.33736204 -9.75623468 371.49276 448.36942)"/><ellipse fill="#002d88" rx="1" ry="1" transform="matrix(44.09909144 -5.63803652 8.73314508 68.30813572 483.76792 263.652252)"/><ellipse fill="#ffd200" rx="1" ry="1" transform="matrix(33.8059278 -123.59559348 20.85384244 5.70395328 401.172856 294.328836)"/><ellipse fill="#6f9b9a" rx="1" ry="1" transform="matrix(32.7829536 6.72564072 -26.0382024 126.9186412 325.52236 395.201896)"/><ellipse fill="#03002f" rx="1" ry="1" transform="matrix(-20.77698112 -98.02591552 18.00619968 -3.81648536 255.03812 339.328696)"/><ellipse fill="#6ab9db" rx="1" ry="1" transform="matrix(84.89506156 171.96951432 -68.88307276 34.00505448 150.118168 519.571916)"/><ellipse fill="#e6d05e" rx="1" ry="1" transform="matrix(3.28886512 183.66220328 -20.63800332 .36956764 306.691452 255.54672)"/><ellipse fill="#b60037" rx="1" ry="1" transform="matrix(2.4983112 -76.99676736 25.65305572 .83236372 360.18276 219.275852)"/><ellipse fill="#821a0a" rx="1" ry="1" transform="matrix(-17.31434848 -11.2228126 50.43697576 -77.81323688 454.369408 366.612284)"/><ellipse fill="#c54d48" rx="1" ry="1" transform="matrix(12.33802152 -20.43016028 59.74709808 36.08199696 432.731896 138.608404)"/><ellipse fill="#61abcc" rx="1" ry="1" transform="matrix(1.09478724 -37.0641228 48.59832424 1.43548052 238.668476 119.47816)"/><ellipse fill="#59accb" rx="1" ry="1" transform="matrix(-1.05262824 73.28639684 -530.26620936 -7.61632744 997.025 680.320684)"/><ellipse fill="#88bcd2" rx="1" ry="1" transform="matrix(150.83892176 39.66338088 -65.38966232 248.67537616 120.131076 725.830056)"/><ellipse fill="#88b5d0" rx="1" ry="1" transform="matrix(4.38722128 31.42449668 -488.16059916 68.15283592 820.159532 486.715916)"/><ellipse fill="#008dba" rx="1" ry="1" transform="matrix(-11.0087012 -232.81200772 354.01498568 -16.73988052 929.933976 154.128508)"/><ellipse fill="#6bb5d6" rx="1" ry="1" transform="matrix(-24.97383648 -25.31828752 132.18911672 -130.39070596 446.503416 475.147784)"/><ellipse fill="#3a84a1" rx="1" ry="1" transform="matrix(-19.40881736 44.12707968 -22.28361476 -9.80120624 347.925836 319.946556)"/><ellipse fill="#3ca091" rx="1" ry="1" transform="matrix(35.47402176 55.76531216 -12.61463748 8.02455696 351.445652 109.632264)"/><ellipse fill="#33a5cd" rx="1" ry="1" transform="matrix(9.37080192 104.26852936 -93.44569716 8.39813436 53.044484 387.255044)"/><ellipse fill="#ce9e00" rx="1" ry="1" transform="matrix(-31.3974286 94.33309884 -15.58623552 -5.18765652 365.618904 403.502188)"/><ellipse fill="#a00f00" rx="1" ry="1" transform="matrix(17.08854948 -4.91288876 39.52344592 137.47479176 221.20086 331.664324)"/><ellipse fill="#f3fc05" rx="1" ry="1" transform="matrix(-.23074408 40.83722412 -12.90263804 -.07290424 161.201736 219.773212)"/><ellipse fill="#ecc014" rx="1" ry="1" transform="matrix(24.253117 8.03558488 -18.51765736 55.89025768 304.863256 142.010188)"/><ellipse fill="#333108" rx="1" ry="1" transform="matrix(71.67254736 121.21983244 -16.32914252 9.65478352 236.753892 451.084784)"/><ellipse fill="#20a3c9" rx="1" ry="1" transform="matrix(-5.6838734 59.83712928 -132.35709692 -12.57247788 623.665092 399.365624)"/><ellipse fill="#0690be" rx="1" ry="1" transform="matrix(-29.63085204 -121.163729 682.81905268 -166.98487644 130.721452 2)"/><ellipse fill="#f13300" rx="1" ry="1" transform="matrix(-3.3808542 -2.13771488 73.68951184 -116.5419658 415.795556 411.428112)"/><ellipse fill="#cb192c" rx="1" ry="1" transform="matrix(-26.79801444 51.11025684 -38.8221708 -20.35515292 232.353824 207.238648)"/><ellipse fill="#ffdb46" rx="1" ry="1" transform="matrix(-25.41180532 -.367601 .76656372 -52.99160784 413.032416 211.039144)"/><ellipse fill="#005bac" rx="1" ry="1" transform="matrix(30.90989612 41.27806456 -30.38142928 22.75026296 485.869364 262.651124)"/><ellipse fill="#cad5c4" rx="1" ry="1" transform="matrix(-5.0706888 5.20087532 -31.61551784 -30.82412924 494.04742 179.146384)"/><ellipse fill="#f34b00" rx="1" ry="1" transform="matrix(12.12914592 6.91320812 -13.69359876 24.02526508 466.55244 323.3018)"/><ellipse fill="#082562" rx="1" ry="1" transform="matrix(-60.85935664 78.91833516 -3.16752696 -2.44269792 436.920328 413.655124)"/><ellipse fill="#08205d" rx="1" ry="1" transform="matrix(8.26201584 7.761227 -17.90959244 19.065199 173.717188 147.939032)"/><ellipse fill="#873402" rx="1" ry="1" transform="matrix(.07631692 -12.19758924 21.56817784 .13494608 303.731172 624.383796)"/><ellipse fill="#1f1e4c" rx="1" ry="1" transform="matrix(10.37965924 62.25429104 -21.91311164 3.65357356 261.155 320.424064)"/><ellipse fill="#247653" rx="1" ry="1" transform="matrix(-14.18416928 -5.54381228 34.02772188 -87.06192484 426.598536 339.060704)"/><ellipse fill="#c5b1bb" rx="1" ry="1" transform="matrix(-16.25168004 .36560872 -1.04193008 -46.31485352 311.16548 310.35768)"/><ellipse fill="#8ebdcf" rx="1" ry="1" transform="matrix(-.70833264 44.02079752 -426.51317204 -6.86296516 244.88164 753.73158)"/><ellipse fill="#f2cdb8" rx="1" ry="1" transform="matrix(9.17204864 9.32652088 -19.53448712 19.2109436 216.496528 135.994264)"/><ellipse fill="#444a15" rx="1" ry="1" transform="matrix(35.94555768 -15.60472504 49.64352648 114.35409728 163.089488 327.853344)"/><ellipse fill="#064798" rx="1" ry="1" transform="matrix(43.4306074 72.87232752 -9.02731756 5.38012024 458.893564 171.789744)"/><ellipse fill="#c8a59a" rx="1" ry="1" transform="matrix(9.68664832 .24649208 -2.67854112 105.26134568 307.644984 410.944496)"/><ellipse fill="#008ab7" rx="1" ry="1" transform="matrix(814.29322524 463.26797472 -79.67409248 140.04437444 776.336292 56.772112)"/><ellipse fill="#f4c632" rx="1" ry="1" transform="matrix(30.90779128 3.90372024 -7.52532864 59.58195572 308.907736 204.730392)"/><ellipse fill="#7db2cd" rx="1" ry="1" transform="matrix(159.32914548 1.11687552 -.14045972 20.03743972 943.94614 667.940376)"/><ellipse fill="#e6a682" rx="1" ry="1" transform="matrix(-26.61339124 45.13861464 -3.44569132 -2.03155396 486.96566 361.31162)"/><ellipse fill="#61aec8" rx="1" ry="1" transform="matrix(-89.27603444 -9.76994896 6.7137076 -61.34865108 205.909644 648.211156)"/><ellipse fill="#426c75" rx="1" ry="1" transform="matrix(-17.89008456 -2.86702704 15.3199582 -95.59566216 338.447508 380.761508)"/><ellipse fill="#0099c0" rx="1" ry="1" transform="matrix(124.54392644 -78.67240304 61.23469032 96.93880536 734.125068 279.162484)"/><ellipse fill="#ef5b0d" rx="1" ry="1" transform="matrix(-15.86195256 -30.93811032 20.77378828 -10.65071012 404.915456 142.429748)"/><ellipse fill="#4d9969" rx="1" ry="1" transform="matrix(25.24854432 19.5329092 -13.2775072 17.16271376 360.756696 133.451476)"/><ellipse fill="#b59f00" rx="1" ry="1" transform="matrix(16.74018516 -3.70645384 4.577282 20.67327728 166.101264 268.026852)"/><ellipse fill="#54a5c8" rx="1" ry="1" transform="matrix(-169.85818004 -4.87099368 .83310224 -29.05140908 862.829348 428.597248)"/><ellipse fill="#d3bc20" rx="1" ry="1" transform="matrix(-8.67835276 29.18464932 -16.90148152 -5.02582768 164.952104 190.435656)"/><ellipse fill="#5caccd" rx="1" ry="1" transform="matrix(13.25159576 -11.14187028 79.54939336 94.61215888 188.583572 466.891124)"/><ellipse fill="#612d22" rx="1" ry="1" transform="matrix(-31.61629404 36.9960978 -13.2819052 -11.35051116 325.340288 537.40858)"/><ellipse fill="#152961" rx="1" ry="1" transform="matrix(-47.92194572 71.3303138 -4.68945984 -3.15052644 460.81956 377.384252)"/><ellipse fill="#083725" rx="1" ry="1" transform="matrix(-5.13451988 2.6279136 -64.32993456 -125.69033044 211.706564 405.693128)"/><ellipse fill="#c9380d" rx="1" ry="1" transform="matrix(-6.136953 1.51735164 -38.1589538 -154.33449876 228.735348 328.094888)"/><ellipse fill="#d29a00" rx="1" ry="1" transform="matrix(-7.22681192 -3.10798052 38.6171996 -89.79439768 359.134564 436.030332)"/><ellipse fill="#44a6c4" rx="1" ry="1" transform="matrix(-153.28250276 14.18180432 -4.02096524 -43.46016912 474.108332 613.02962)"/><ellipse fill="#89b6ca" rx="1" ry="1" transform="matrix(13.36909988 37.46225108 -121.3194764 43.29510776 443.679676 534.219232)"/><ellipse fill="#de4400" rx="1" ry="1" transform="matrix(-7.44460604 -3.97635176 35.912244 -67.23562788 439.20438 371.318676)"/><ellipse fill="#1d193e" rx="1" ry="1" transform="matrix(21.14290744 91.7446796 -8.25404552 1.90217592 276.358792 449.18122)"/><ellipse fill="#3998bf" rx="1" ry="1" transform="matrix(4.82782184 27.2733752 -142.23876488 25.17852704 251.539192 73.770016)"/><ellipse fill="#831a1c" rx="1" ry="1" transform="matrix(-.02649392 -25.22666208 53.43874252 -.05612324 227.179104 254.377268)"/><ellipse fill="#1b9fc7" rx="1" ry="1" transform="matrix(129.12724988 -11.00856156 5.8591912 68.72662164 951.367868 564.294124)"/><ellipse fill="#001159" rx="1" ry="1" transform="matrix(-2.63011244 -3.01372004 28.59166232 -24.95231344 193.105476 126.39842)"/><ellipse fill="#2997bf" rx="1" ry="1" transform="matrix(-9.43254232 29.37572172 -130.86179624 -42.0197142 437.975968 85.912368)"/><ellipse fill="#0056b2" rx="1" ry="1" transform="matrix(9.97053692 6.9803186 -32.22924104 46.03555452 467.925708 238.378424)"/><ellipse fill="#55a8c8" rx="1" ry="1" transform="matrix(-79.30494252 23.80465248 -15.22346844 -50.71682064 503.71436 441.291872)"/><ellipse fill="#c08b00" rx="1" ry="1" transform="matrix(-6.69459932 9.21446312 -26.22629816 -19.05423632 295.86758 252.899364)"/><ellipse fill="#008bb8" rx="1" ry="1" transform="matrix(33.11894852 52.737502 -499.23713596 313.51900216 110.117272 2)"/><ellipse fill="#f24434" rx="1" ry="1" transform="matrix(-8.23007284 -23.7184376 26.82136164 -9.306758 367.926548 178.552988)"/><ellipse fill="#823200" rx="1" ry="1" transform="matrix(-15.78029444 -12.59477756 7.60111128 -9.52361192 304.207524 614.276568)"/><ellipse fill="#2ca1c4" rx="1" ry="1" transform="matrix(-2.80863436 117.37033196 -49.1724672 -1.17668136 574.107856 315.71614)"/><ellipse fill="#8598a0" rx="1" ry="1" transform="matrix(-.10140436 -10.61447564 61.80742756 -.59047124 326.200988 284.486504)"/><ellipse fill="#d4ac99" rx="1" ry="1" transform="matrix(-22.2748594 12.7289386 -2.96858112 -5.19483436 242.593964 105.131364)"/><ellipse fill="#fad546" rx="1" ry="1" transform="matrix(-14.39315352 -1.47646492 7.14153956 -69.61850124 322.044172 172.136876)"/><ellipse fill="#d14848" rx="1" ry="1" transform="matrix(-4.66031144 -50.79083676 3.98326764 -.3654846 440.008656 191.014276)"/><ellipse fill="#0098bf" rx="1" ry="1" transform="matrix(1.93787868 23.3837426 -114.75766516 9.51030104 1008.96704 531.780488)"/><ellipse fill="#771a18" rx="1" ry="1" transform="matrix(14.10210496 .79705672 -4.31518056 76.34730136 129.465024 245.324592)"/><ellipse fill="#30551d" rx="1" ry="1" transform="matrix(3.4633104 2.0013698 -65.9236404 114.0788816 403.483644 406.236924)"/><ellipse fill="#62969d" rx="1" ry="1" transform="matrix(14.42121168 3.0805716 -6.58639692 30.83318196 274.68058 127.027692)"/><ellipse fill="#8fbfc6" rx="1" ry="1" transform="matrix(11.6963054 -5.50813512 18.1661984 38.57519832 472.710284 147.274444)"/><ellipse fill="#caa007" rx="1" ry="1" transform="matrix(14.18446204 -1.73504904 3.78572824 30.94927976 165.410108 246.428252)"/><ellipse fill="#0096c0" rx="1" ry="1" transform="matrix(183.3589508 85.304198 -33.36791664 71.72338912 904.111184 309.054208)"/><ellipse fill="#c99e01" rx="1" ry="1" transform="matrix(-12.40974604 -3.47802892 16.59727104 -59.21972576 412.524112 307.702424)"/><ellipse fill="#ffd34a" rx="1" ry="1" transform="matrix(25.77431636 -6.14889472 7.96302004 33.37858372 414.464752 193.515672)"/><ellipse fill="#007faf" rx="1" ry="1" transform="matrix(-476.12704912 -328.72890212 46.44030488 -67.26358768 948.071036 29.237116)"/><ellipse fill="#7a5800" rx="1" ry="1" transform="matrix(5.57059088 -3.29469916 56.77821052 95.99910856 160.078532 352.060468)"/><ellipse fill="#8eb9d0" rx="1" ry="1" transform="matrix(-1.0640402 29.3623028 -219.4490354 -7.95246196 64.980908 569.802588)"/><ellipse fill="#a71111" rx="1" ry="1" transform="matrix(6.12036876 20.24762864 -24.5153878 7.4104092 358.662872 248.733636)"/><ellipse fill="#00529b" rx="1" ry="1" transform="matrix(-48.26650672 -.67167536 .2465208 -17.7149528 484.637816 282.153888)"/><ellipse fill="#c59400" rx="1" ry="1" transform="matrix(12.08734996 3.89043436 -6.42192396 19.95253872 299.717776 122.818268)"/><ellipse fill="#c83129" rx="1" ry="1" transform="matrix(4.27798556 12.7322276 -58.64960448 19.70606944 228.463996 175.82678)"/><ellipse fill="#2898be" rx="1" ry="1" transform="matrix(17.02037632 -21.531266 65.34151672 51.65219748 496.870956 128.017012)"/><ellipse fill="#54a2bd" rx="1" ry="1" transform="matrix(-10.21520644 31.02757352 -224.94606124 -74.05898008 1022 757.1036)"/><ellipse fill="#9faaa4" rx="1" ry="1" transform="matrix(-3.64704068 -2.74561332 69.86023684 -92.79643432 445.068652 422.591528)"/><ellipse fill="#52a4c5" rx="1" ry="1" transform="matrix(-253.58369332 36.08317856 -1.694396 -11.90779776 825.490232 521.863544)"/><ellipse fill="#3ea1c8" rx="1" ry="1" transform="matrix(51.90996624 82.51977204 -11.30655148 7.11251004 132.056528 378.935468)"/><ellipse fill="#574e63" rx="1" ry="1" transform="matrix(-2.38738496 74.42157316 -14.31308128 -.45915228 285.62614 394.517564)"/><ellipse fill="#2f9cc4" rx="1" ry="1" transform="matrix(-49.77174224 132.41087284 -19.641835 -7.38314256 103.655828 168.476028)"/><ellipse fill="#25a0c3" rx="1" ry="1" transform="matrix(5.83396792 28.97038416 -175.3185324 35.3051132 679.732852 580.606524)"/><ellipse fill="#74abc8" rx="1" ry="1" transform="matrix(198.11899608 -7.36735824 1.19590932 32.15974384 922.0614 459.925892)"/><ellipse fill="#bf3e1a" rx="1" ry="1" transform="matrix(-16.66468112 21.5400288 -5.76864896 -4.46297896 151.041808 156.273676)"/><ellipse fill="#4e1d15" rx="1" ry="1" transform="matrix(26.13508 112.20795108 -6.219905 1.44871832 204.896472 331.633876)"/><ellipse fill="#88240d" rx="1" ry="1" transform="matrix(-43.65192504 -124.07777104 7.03264984 -2.4741636 252.361252 442.589092)"/><ellipse fill="#1e0f20" rx="1" ry="1" transform="matrix(2.8052554 11.08392352 -24.68491012 6.24756004 319.609288 534.9419)"/><ellipse fill="#223d4b" rx="1" ry="1" transform="matrix(-5.70525464 2.82372592 -24.05970892 -48.61192984 140.4868 347.773504)"/><ellipse fill="#69afcd" rx="1" ry="1" transform="matrix(1.26085744 38.52923492 -161.82980696 5.295831 70.32828 500.553096)"/><ellipse fill="#33a1c7" rx="1" ry="1" transform="matrix(-19.78491836 -104.77270892 44.7878286 -8.45757968 70.9988 323.396836)"/><ellipse fill="#233f24" rx="1" ry="1" transform="matrix(-13.55791324 6.35143908 -43.62918324 -93.13175732 201.892656 378.963384)"/><ellipse fill="#197285" rx="1" ry="1" transform="matrix(14.2573262 -20.43521708 8.81489108 6.15000944 255.959044 124.6156)"/><ellipse fill="#c2a642" rx="1" ry="1" transform="matrix(.2258658 8.5979178 -45.75092428 1.20186876 332.81788 101.233396)"/><ellipse fill="#c69600" rx="1" ry="1" transform="matrix(-43.12715852 114.5168706 -8.74597232 -3.2937412 364.298544 417.066984)"/><ellipse fill="#2c4572" rx="1" ry="1" transform="matrix(10.3251806 4.60004244 -6.41304924 14.39462624 302.424116 592.881236)"/><ellipse fill="#79afc6" rx="1" ry="1" transform="matrix(9.28764288 9.63601212 -65.90694608 63.52422256 403.153576 493.212744)"/><ellipse fill="#c4bfb7" rx="1" ry="1" transform="matrix(-18.75626552 -27.83633728 7.65221324 -5.15610016 477.790892 161.578664)"/><ellipse fill="#6eb3cb" rx="1" ry="1" transform="matrix(-7.8739868 46.32836676 -320.06055836 -54.39761408 334.82288 686.56652)"/><ellipse fill="#9cc1d4" rx="1" ry="1" transform="matrix(-.39944744 -43.57572124 112.22442904 -1.02873256 51.367524 766)"/><ellipse fill="#ff480c" rx="1" ry="1" transform="matrix(-12.2502664 -28.39472876 9.31792036 -4.02000696 397.705 132.27084)"/><ellipse fill="#486a71" rx="1" ry="1" transform="matrix(-.59827384 69.80695232 -9.81745144 -.08413952 336.314248 346.25664)"/><ellipse fill="#978474" rx="1" ry="1" transform="matrix(10.52075004 -.51484944 2.3071228 47.1451664 288.217668 314.273668)"/><ellipse fill="#bb2028" rx="1" ry="1" transform="matrix(-6.2577496 51.78524784 -3.9711112 -.47987064 132.033708 209.937116)"/><ellipse fill="#12152c" rx="1" ry="1" transform="matrix(-18.86441784 -93.42925956 8.30261744 -1.6763918 256.926076 366.80436)"/><ellipse fill="#0060ac" rx="1" ry="1" transform="matrix(-11.15986644 -38.87483112 34.69009048 -9.95854556 485.485168 228.524644)"/><ellipse fill="#f05949" rx="1" ry="1" transform="matrix(-7.4872208 -30.29757756 9.13998764 -2.25869892 267.20212 199.580668)"/><ellipse fill="#ddd3c3" rx="1" ry="1" transform="matrix(-8.50847352 -.81422836 1.34044012 -14.00724868 480.6839 168.037544)"/><ellipse fill="#f1473e" rx="1" ry="1" transform="matrix(-11.90430452 19.7596036 -25.14239392 -15.14720232 360.733088 196.135184)"/><ellipse fill="#3fa5c8" rx="1" ry="1" transform="matrix(-199.50056108 11.5336112 -.59043984 -10.21302684 857.508092 634.585016)"/><ellipse fill="#d3a87b" rx="1" ry="1" transform="matrix(-5.79673136 2.37045696 -4.151551 -10.1522308 301.2246 505.656888)"/><ellipse fill="#e1bc18" rx="1" ry="1" transform="matrix(3.18393932 -58.95423316 3.99417924 .21571352 171.412084 226.50344)"/><ellipse fill="#81b0c6" rx="1" ry="1" transform="matrix(36.35220172 -16.36472496 25.97338172 57.696638 222.207744 546.33064)"/><ellipse fill="#9b0717" rx="1" ry="1" transform="matrix(-.3533432 -7.236827 35.54259536 -1.73539228 220.50544 166.415868)"/><ellipse fill="#434a3b" rx="1" ry="1" transform="matrix(-73.12246332 -92.11382032 6.68696424 -5.30829464 201.8576 442.190208)"/><ellipse fill="#d85339" rx="1" ry="1" transform="matrix(3.99979212 .04077968 -.96006392 94.165922 221.58188 236.279448)"/><ellipse fill="#144492" rx="1" ry="1" transform="matrix(-4.38899112 -38.28643764 13.68643648 -1.56895372 457.604192 183.806292)"/><ellipse fill="#004f8d" rx="1" ry="1" transform="matrix(-12.3092414 4.99120872 -10.64038752 -26.24115844 503.748276 297.552212)"/><ellipse fill="#0e99c3" rx="1" ry="1" transform="matrix(32.8710938 -126.02561728 37.95644004 9.90012768 2 245.66894)"/><ellipse fill="#51a3c4" rx="1" ry="1" transform="matrix(-6.73939768 38.842432 -88.69622408 -15.38933312 659.455512 450.58302)"/><ellipse fill="#46a7ca" rx="1" ry="1" transform="matrix(14.58437544 38.7619266 -92.8890546 34.94998744 66.060088 437.331348)"/><ellipse fill="#e6b60a" rx="1" ry="1" transform="matrix(-12.32063784 -5.9304196 15.81951224 -32.86554648 313.757776 122.444336)"/><ellipse fill="#d49f00" rx="1" ry="1" transform="matrix(13.80662184 5.8199894 -39.48857356 93.67779968 396.08992 321.279648)"/><ellipse fill="#60939b" rx="1" ry="1" transform="matrix(-20.7803774 -3.6124176 2.73581248 -15.73771988 358.664908 290.174792)"/><ellipse fill="#2b2a50" rx="1" ry="1" transform="matrix(-7.75551876 -139.79873344 3.99385892 -.2215646 281.18672 425.391852)"/><ellipse fill="#142f62" rx="1" ry="1" transform="matrix(-4.10894908 -3.31151588 22.5277546 -27.9525752 185.86228 140.912588)"/><ellipse fill="#c49c15" rx="1" ry="1" transform="matrix(-16.2089326 -6.88629552 10.657812 -25.08631176 293.8472 250.713732)"/><ellipse fill="#3a2a2b" rx="1" ry="1" transform="matrix(-32.38154224 2.67859728 -1.48023796 -17.8945858 309.445568 537.236892)"/><ellipse fill="#ba9e85" rx="1" ry="1" transform="matrix(9.00477448 .38684352 -3.7618584 87.56689688 305.9546 434.596996)"/><ellipse fill="#ce4306" rx="1" ry="1" transform="matrix(6.0823652 1.10282412 -7.35496244 40.56455332 459.929152 337.038856)"/><ellipse fill="#eb671c" rx="1" ry="1" transform="matrix(-34.67709348 -47.65113512 8.20141892 -5.96840704 408.538328 143.486852)"/><ellipse fill="#2698c2" rx="1" ry="1" transform="matrix(17.43647768 30.70477852 -81.46559908 46.26228128 140.161172 105.260736)"/><ellipse fill="#3c7c3a" rx="1" ry="1" transform="matrix(30.80829924 -65.69685144 3.6215624 1.69831852 365.974676 457.896932)"/><ellipse fill="#2396bc" rx="1" ry="1" transform="matrix(-50.27029972 -10.73538276 11.76295512 -55.08208624 526.34922 127.375524)"/><ellipse fill="#cdb8a5" rx="1" ry="1" transform="matrix(9.65703876 -17.91561548 3.5210498 1.89794844 502.02268 344.480668)"/><ellipse fill="#680208" rx="1" ry="1" transform="matrix(-9.87773928 1.95652676 -5.0770326 -25.6319544 237.090336 247.851144)"/><ellipse fill="#008fbb" rx="1" ry="1" transform="matrix(13.64118536 -45.3865098 119.96030956 36.05478428 445.642608 21.397908)"/><ellipse fill="#5f9461" rx="1" ry="1" transform="matrix(22.27091308 -1.9699016 1.70338196 19.2577492 355.214276 137.313816)"/><ellipse fill="#008dba" rx="1" ry="1" transform="matrix(6.98607232 -84.9968592 264.74650772 21.76007756 851.56896 172.343332)"/><ellipse fill="#c9b3a3" rx="1" ry="1" transform="matrix(8.40918756 -87.28470444 3.98156464 .38359212 319.860676 353.609284)"/><ellipse fill="#bb3c08" rx="1" ry="1" transform="matrix(37.34184404 123.12772928 -3.82783512 1.16089548 247.345952 402.255756)"/><ellipse fill="#6daec7" rx="1" ry="1" transform="matrix(-2.03168796 -25.3712228 361.0227304 -28.91013748 680.460268 680.856684)"/><ellipse fill="#3aa0c4" rx="1" ry="1" transform="matrix(-32.740163 -14.1696332 33.11049692 -76.50466688 538.24578 359.0743)"/><ellipse fill="#c43b01" rx="1" ry="1" transform="matrix(13.31390096 -3.59347704 6.97972452 25.8600124 218.461984 304.993524)"/><ellipse fill="#f5c53c" rx="1" ry="1" transform="matrix(10.277352 -14.81288624 24.79614424 17.203852 413.236076 177.400788)"/><ellipse fill="#624603" rx="1" ry="1" transform="matrix(-57.42435012 -102.0707292 3.48616256 -1.96129312 209.511952 430.69694)"/><ellipse fill="#4b3563" rx="1" ry="1" transform="matrix(6.85422588 -4.9486116 18.0021568 24.93443788 442.522844 148.330864)"/><ellipse fill="#6a150b" rx="1" ry="1" transform="matrix(-6.44240804 1.78022544 -20.33321504 -73.5833034 199.380128 310.266816)"/><ellipse fill="#122964" rx="1" ry="1" transform="matrix(-3.17667396 -2.43079052 19.9763458 -26.1060496 180.26294 137.674888)"/><ellipse fill="#209dc4" rx="1" ry="1" transform="matrix(196.85464576 6.3539666 -.48455124 15.012066 931.791512 398.91906)"/><ellipse fill="#bdbab7" rx="1" ry="1" transform="matrix(.4360222 3.97616456 -25.57021332 2.8040038 212.757472 152.828272)"/><ellipse fill="#2594bf" rx="1" ry="1" transform="matrix(-126.79936008 -4.88262072 1.14200288 -29.6572768 305.709232 59.29524)"/><ellipse fill="#d13532" rx="1" ry="1" transform="matrix(25.80793228 21.26726572 -8.63238956 10.47544752 362.392928 176.555552)"/><ellipse fill="#645b08" rx="1" ry="1" transform="matrix(3.94392276 .66743776 -7.05885564 41.7111284 114.365704 223.937028)"/><ellipse fill="#7fb3ca" rx="1" ry="1" transform="matrix(103.406606 -23.74899512 11.90619444 51.84131592 449.067744 529.035364)"/><ellipse fill="#36565e" rx="1" ry="1" transform="matrix(3.98972568 .28651204 -7.25860472 101.077226 323.296404 436.728192)"/><ellipse fill="#880b13" rx="1" ry="1" transform="matrix(-2.54939464 -6.17668804 11.51256076 -4.75174728 343.197076 266.158348)"/><ellipse fill="#ceb9a5" rx="1" ry="1" transform="matrix(.149871 28.63234776 -15.33732188 .08028052 313.39038 301.199468)"/><ellipse fill="#399ec3" rx="1" ry="1" transform="matrix(-214.05196224 3.37932676 -.23202372 -14.6967526 763.097012 420.022324)"/><ellipse fill="#5ca9c3" rx="1" ry="1" transform="matrix(-2.9507288 -20.41033308 277.31947324 -40.0921706 826.767008 710.684796)"/><ellipse fill="#dd3e15" rx="1" ry="1" transform="matrix(-11.59520336 -18.8654066 7.1827702 -4.41473024 420.229584 144.360304)"/><ellipse fill="#53aac9" rx="1" ry="1" transform="matrix(-1.30804276 -10.67687712 72.49707144 -8.88174216 206.1753 623.17052)"/><ellipse fill="#912315" rx="1" ry="1" transform="matrix(-40.26890304 59.14831988 -3.30645664 -2.25107632 384.067212 469.758688)"/><ellipse fill="#7cafc3" rx="1" ry="1" transform="matrix(.9163302 14.78670276 -248.9967592 15.4302996 756.1727 766)"/><ellipse fill="#5b0714" rx="1" ry="1" transform="matrix(11.06451364 -6.24240708 11.164201 19.78827276 134.344172 272.998072)"/><ellipse fill="#272853" rx="1" ry="1" transform="matrix(-17.9429504 13.549524 -6.3441664 -8.4012592 258.840592 293.435896)"/><ellipse fill="#74a8b4" rx="1" ry="1" transform="matrix(-12.25695864 33.64580192 -7.30445552 -2.6609682 278.944096 118.775068)"/><ellipse fill="#ef7440" rx="1" ry="1" transform="matrix(-2.10566268 -33.76293876 5.98188192 -.3730666 438.031832 222.302364)"/><ellipse fill="#0060a9" rx="1" ry="1" transform="matrix(27.46414772 51.70450764 -28.1798994 14.96846124 489.31492 240.048808)"/><ellipse fill="#c33734" rx="1" ry="1" transform="matrix(1.37168876 37.31515316 -16.32655696 .60015712 262.628064 239.509016)"/><ellipse fill="#c64107" rx="1" ry="1" transform="matrix(-3.39155592 -2.12069528 57.91094592 -92.61500804 403.149512 429.04578)"/><ellipse fill="#cb9e00" rx="1" ry="1" transform="matrix(13.33244032 3.42366484 -4.33555648 16.88353008 303.208816 113.705496)"/><ellipse fill="#735d00" rx="1" ry="1" transform="matrix(4.7853062 -.31943492 5.03977488 75.4985242 149.03566 283.154976)"/><ellipse fill="#4f9265" rx="1" ry="1" transform="matrix(-5.64461128 -26.20960548 13.2199682 -2.84710816 351.250548 122.945268)"/><ellipse fill="#1c5332" rx="1" ry="1" transform="matrix(-10.58481332 5.37863048 -11.70631056 -23.03729788 174.301756 305.760512)"/><ellipse fill="#60898a" rx="1" ry="1" transform="matrix(8.3892764 2.79956788 -20.29826336 60.82643808 358.26622 340.044064)"/><ellipse fill="#b9aa9e" rx="1" ry="1" transform="matrix(-31.8365172 27.4798832 -4.59826124 -5.32726512 225.85196 123.0322)"/><ellipse fill="#8fb9ca" rx="1" ry="1" transform="matrix(-.1194124 6.92863108 -96.89958992 -1.67002892 440.71098 729.265312)"/><ellipse fill="#5e9c57" rx="1" ry="1" transform="matrix(-9.09485004 -9.83843056 10.1230144 -9.35792528 440.211312 303.636516)"/><ellipse fill="#a0280f" rx="1" ry="1" transform="matrix(-31.4389634 50.54078572 -3.39648672 -2.11278912 457.903016 360.218828)"/><ellipse fill="#004697" rx="1" ry="1" transform="matrix(-9.07023336 -12.35036224 17.39207684 -12.77292052 453.595856 273.191828)"/><ellipse fill="#008cba" rx="1" ry="1" transform="matrix(-7.83690484 -40.52338608 701.68807308 -135.7009664 101.40148 2)"/><ellipse fill="#e5bc21" rx="1" ry="1" transform="matrix(-13.54634012 -2.019939 3.30762248 -22.18194656 163.989704 195.350132)"/><ellipse fill="#e2c9b7" rx="1" ry="1" transform="matrix(7.76824728 -6.66907396 3.741341 4.35797568 224.043744 148.52048)"/><ellipse fill="#032039" rx="1" ry="1" transform="matrix(-9.781611 -3.54265464 1.3621168 -3.76093576 292.899868 601.172216)"/><ellipse fill="#4aa5c7" rx="1" ry="1" transform="matrix(-62.36137324 50.40987232 -5.75536916 -7.11988956 464.6112 429.596736)"/><ellipse fill="#da4b40" rx="1" ry="1" transform="matrix(7.13059004 -27.58662572 9.68369308 2.50304064 220.284328 196.7158)"/><ellipse fill="#b19784" rx="1" ry="1" transform="matrix(22.44517696 -44.64370308 3.57375116 1.79674784 485.161768 364.66046)"/><ellipse fill="#42a3c3" rx="1" ry="1" transform="matrix(-1.54741904 -19.19199412 240.6943864 -19.40679408 829.02058 627.577136)"/><ellipse fill="#004689" rx="1" ry="1" transform="matrix(-1.68989636 5.67241168 -31.18185308 -9.28954084 485.302528 298.362324)"/><ellipse fill="#3699bf" rx="1" ry="1" transform="matrix(69.94808656 35.95907352 -3.9034018 7.59295112 474.291312 130.899624)"/><ellipse fill="#e7ba23" rx="1" ry="1" transform="matrix(12.1910786 -4.94997484 10.99348628 27.07538104 313.619156 246.965032)"/><ellipse fill="#179ac0" rx="1" ry="1" transform="matrix(39.4470136 -5.87340052 17.3449546 116.49242364 611.756856 308.006896)"/><ellipse fill="#72acc5" rx="1" ry="1" transform="matrix(-.2773334 -3.9903742 157.14854128 -10.921918 367.839004 581.610708)"/><ellipse fill="#2a9bc0" rx="1" ry="1" transform="matrix(-24.38731956 -75.82145932 16.04577376 -5.16098496 541.469896 220.15046)"/><ellipse fill="#d43930" rx="1" ry="1" transform="matrix(14.64083584 -5.08358704 18.87478296 54.3597652 360.716224 209.579148)"/><ellipse fill="#355332" rx="1" ry="1" transform="matrix(-3.67019348 1.59049672 -33.81776756 -78.0371 222.873884 410.648956)"/><ellipse fill="#700f19" rx="1" ry="1" transform="matrix(-11.9557756 -28.75913588 11.2407034 -4.672996 194.641376 249.085016)"/><ellipse fill="#5a7c78" rx="1" ry="1" transform="matrix(27.084922 -86.78532464 8.28742736 2.5864318 343.859384 404.042552)"/><ellipse fill="#e03939" rx="1" ry="1" transform="matrix(7.66466596 -32.1493758 9.1006454 2.16966596 266.160076 184.7484)"/><ellipse fill="#7f5b00" rx="1" ry="1" transform="matrix(12.43040556 25.2227526 -4.7525584 2.34218004 145.542584 313.985664)"/><ellipse fill="#543442" rx="1" ry="1" transform="matrix(-3.1446732 -2.47204988 49.07743532 -62.43097988 380.71162 482.962944)"/><ellipse fill="#61adc9" rx="1" ry="1" transform="matrix(187.2285568 -5.780072 .37569696 12.16960616 325.793864 645.262976)"/><ellipse fill="#78b6ce" rx="1" ry="1" transform="matrix(409.45700488 -2.7978914 .07613604 11.14211588 131.397684 674.935804)"/><ellipse fill="#363257" rx="1" ry="1" transform="matrix(-12.312195 -80.75159644 8.39399256 -1.27983196 269.335852 365.237192)"/><ellipse fill="#bc3c08" rx="1" ry="1" transform="matrix(6.69183344 36.05373208 -8.53713284 1.5845536 231.2451 340.925232)"/><ellipse fill="#a6850b" rx="1" ry="1" transform="matrix(-3.717287 -1.47708408 44.72462692 -112.55572944 374.15516 414.317372)"/><ellipse fill="#37a2c4" rx="1" ry="1" transform="matrix(-.07353268 -15.94415444 104.34116236 -.48121004 631.948624 574.1736)"/><ellipse fill="#c59400" rx="1" ry="1" transform="matrix(10.97930712 4.82146976 -14.9802506 34.11257968 361.385416 420.326632)"/><ellipse fill="#62a382" rx="1" ry="1" transform="matrix(16.64707596 20.45126116 -3.102196 2.52514952 368.89018 111.55128)"/><ellipse fill="#dbab0e" rx="1" ry="1" transform="matrix(-4.52544492 -38.0461994 20.93292688 -2.48988884 403.5647 283.377288)"/><ellipse fill="#fdd25c" rx="1" ry="1" transform="matrix(13.58641164 16.97587008 -7.8138296 6.25369448 318.905824 193.33586)"/><ellipse fill="#23a0c3" rx="1" ry="1" transform="matrix(-3.1739702 -35.1527728 182.66776728 -16.49320964 792.287512 577.161688)"/><ellipse fill="#a9231f" rx="1" ry="1" transform="matrix(13.49745356 19.55882368 -10.87072464 7.50183668 367.031928 257.057564)"/><ellipse fill="#97662c" rx="1" ry="1" transform="matrix(-8.82959636 -6.93431648 8.01506748 -10.20573708 310.812952 618.75234)"/><ellipse fill="#d2312b" rx="1" ry="1" transform="matrix(17.89305164 -10.06041912 6.79549104 12.08618352 368.58964 174.705512)"/><ellipse fill="#624c0b" rx="1" ry="1" transform="matrix(67.77653136 114.25495296 -6.63515156 3.93600056 172.536412 376.394416)"/><ellipse fill="#77aac2" rx="1" ry="1" transform="matrix(-241.51196272 -3.32688864 .0550958 -3.99962052 75.067516 533.663048)"/><ellipse fill="#0095be" rx="1" ry="1" transform="matrix(-174.40124648 2.55520316 -1.0087486 -68.85049868 810.087472 320.153468)"/><ellipse fill="#533c27" rx="1" ry="1" transform="matrix(-10.49440964 25.3234692 -4.47123724 -1.852945 125.964988 189.515108)"/><ellipse fill="#83b3ca" rx="1" ry="1" transform="matrix(42.42357696 -6.04510376 1.8719782 13.13724544 355.432064 573.189052)"/><ellipse fill="#52a8c8" rx="1" ry="1" transform="matrix(1.44586532 -24.43044012 54.19285844 3.20729276 146.615752 458.316344)"/><ellipse fill="#fb5a4b" rx="1" ry="1" transform="matrix(-3.62925356 -24.49323588 5.69443548 -.8437656 383.138808 202.692492)"/><ellipse fill="#f9d04a" rx="1" ry="1" transform="matrix(-13.56847484 -25.45696324 21.32140044 -11.36423392 412.921424 204.635152)"/><ellipse fill="#292f5e" rx="1" ry="1" transform="matrix(31.22038472 -59.05229724 4.23284904 2.2378668 469.252772 361.600704)"/><ellipse fill="#957a5d" rx="1" ry="1" transform="matrix(5.02187272 131.450012 -3.99708416 .15270328 293.31134 392.140192)"/><ellipse fill="#bf2226" rx="1" ry="1" transform="matrix(.33277608 34.69171196 -4.2302574 .04057824 132.280708 213.624004)"/><ellipse fill="#72acc6" rx="1" ry="1" transform="matrix(-7.18537348 -23.24385256 95.26697556 -29.4498856 744.081628 473.497052)"/><ellipse fill="#379bc6" rx="1" ry="1" transform="matrix(-4.02954684 12.52785252 -69.00835852 -22.19633508 1022 422.064404)"/><ellipse fill="#48a2c0" rx="1" ry="1" transform="matrix(-100.72565404 -6.63396764 1.50946416 -22.9186778 1022 716.589624)"/><ellipse fill="#33141f" rx="1" ry="1" transform="matrix(-3.95572992 .5934652 -8.68616428 -57.89744736 237.36796 299.040272)"/><ellipse fill="#274046" rx="1" ry="1" transform="matrix(3.47818888 -1.97539924 38.10143924 67.08719924 147.948156 359.389992)"/><ellipse fill="#392622" rx="1" ry="1" transform="matrix(4.76456532 -6.99725488 21.98119904 14.96742084 288.64252 537.178516)"/><ellipse fill="#0699c0" rx="1" ry="1" transform="matrix(48.47271928 3.5623384 -2.52479332 34.35484936 1012.724832 533.05374)"/><ellipse fill="#1494be" rx="1" ry="1" transform="matrix(12.24075592 18.203033 -81.75823712 54.97889412 125.953324 77.090112)"/><ellipse fill="#d8b240" rx="1" ry="1" transform="matrix(-5.0531914 24.45327708 -6.10329996 -1.2612274 282.748272 206.390912)"/><ellipse fill="#80b1c9" rx="1" ry="1" transform="matrix(287.52080724 -38.43739012 1.20073604 8.98179088 880.007244 487.090056)"/><ellipse fill="#282f5b" rx="1" ry="1" transform="matrix(-1.96783464 -3.48247424 21.97662384 -12.41828612 200.116564 118.116752)"/><ellipse fill="#3a9fc4" rx="1" ry="1" transform="matrix(23.60808344 -102.49098908 12.5518598 2.89123324 79.415856 299.094716)"/><ellipse fill="#0895be" rx="1" ry="1" transform="matrix(46.0044032 16.0799168 -22.39727004 64.07825704 599.849312 145.414884)"/><ellipse fill="#63140b" rx="1" ry="1" transform="matrix(3.69475664 -1.5325708 36.4253334 87.81502544 226.572224 390.122388)"/><ellipse fill="#78b3cd" rx="1" ry="1" transform="matrix(1.42126128 -20.01270796 165.40663448 11.7468382 110.272484 528.011776)"/><ellipse fill="#593420" rx="1" ry="1" transform="matrix(.1484038 3.99724608 -14.76806552 .5482868 304.269584 628.300864)"/><ellipse fill="#ad2929" rx="1" ry="1" transform="matrix(.8365296 9.56954664 -39.03798904 3.41253712 242.987784 163.869204)"/><ellipse fill="#4a7b3d" rx="1" ry="1" transform="matrix(-3.96326096 -2.07774924 48.68587888 -92.867244 387.673348 417.282348)"/><ellipse fill="#b08b00" rx="1" ry="1" transform="matrix(1.4331812 17.69500768 -7.7483312 .62756472 287.3761 254.568248)"/><ellipse fill="#355725" rx="1" ry="1" transform="matrix(-3.48939952 -1.95552828 59.23549624 -105.69845148 397.533164 415.328752)"/><ellipse fill="#6e9153" rx="1" ry="1" transform="matrix(-5.98449756 -1.97594808 10.26552624 -31.09090604 424.706784 317.881416)"/><ellipse fill="#e7c21f" rx="1" ry="1" transform="matrix(-6.33216604 12.27317036 -6.22405544 -3.21121208 172.856652 178.210924)"/><ellipse fill="#bf2823" rx="1" ry="1" transform="matrix(-1.03112668 10.4707394 -22.44288024 -2.21010684 365.325192 167.201332)"/><ellipse fill="#229ec6" rx="1" ry="1" transform="matrix(-16.10430072 86.5326208 -32.70742316 -6.08707068 20.38738 305.495696)"/><ellipse fill="#688b8f" rx="1" ry="1" transform="matrix(8.32589064 1.34619404 -7.53303056 46.59000588 349.798352 323.69694)"/><ellipse fill="#67b2ce" rx="1" ry="1" transform="matrix(.2356402 8.23309656 -130.14674496 3.72494144 26.515684 612.451088)"/><ellipse fill="#7c630d" rx="1" ry="1" transform="matrix(-3.96790284 -.50571424 4.16397936 -32.67114868 145.62318 208.033)"/><ellipse fill="#e55606" rx="1" ry="1" transform="matrix(-7.3337236 19.33357828 -4.97162952 -1.88586696 460.702376 321.608708)"/><ellipse fill="#435d61" rx="1" ry="1" transform="matrix(-3.98346772 -.36329732 12.05032772 -132.12894332 324.987628 410.938336)"/><ellipse fill="#008ab8" rx="1" ry="1" transform="matrix(22.91770896 -62.79893256 397.10947212 144.92028652 602.86774 2)"/><ellipse fill="#db6539" rx="1" ry="1" transform="matrix(-4.98194232 49.0160668 -4.94039924 -.50213708 438.006152 226.183)"/><ellipse fill="#2d9ac2" rx="1" ry="1" transform="matrix(40.8370398 -48.63880472 24.25024552 20.36045596 108.01836 144.152284)"/><ellipse fill="#eebf2d" rx="1" ry="1" transform="matrix(4.38697024 9.71007972 -12.2072646 5.51518712 319.359824 101.266476)"/><ellipse fill="#90191b" rx="1" ry="1" transform="matrix(20.50635176 29.44079344 -5.54904816 3.8650702 245.554184 240.027136)"/><ellipse fill="#c5bbae" rx="1" ry="1" transform="matrix(-9.7726196 27.12422996 -4.91401712 -1.7704768 235.04972 125.967964)"/><ellipse fill="#1792bb" rx="1" ry="1" transform="matrix(153.68897012 40.88520672 -4.77155156 17.93643484 408.853604 55.410508)"/><ellipse fill="#0060a8" rx="1" ry="1" transform="matrix(-17.87682132 -39.59606492 37.44038352 -16.9035748 489.232728 239.56156)"/><ellipse fill="#eec132" rx="1" ry="1" transform="matrix(-7.24346904 -17.67679676 23.49830948 -9.62896616 413.96186 234.002824)"/><ellipse fill="#3295be" rx="1" ry="1" transform="matrix(-148.7964306 -36.37187928 1.9518188 -7.98484096 406.41506 95.639656)"/><ellipse fill="#dcb433" rx="1" ry="1" transform="matrix(-4.0044364 -35.36121564 9.16273504 -1.0376224 288.809188 187.157632)"/></g></svg>