<svg xmlns="http://www.w3.org/2000/svg" version="1.1" width="1024" height="544">
<rect x="0" y="0" width="1024" height="544" fill="#f6e5dc" />
<g transform="scale(4.000000) translate(0.5 0.5)">
<path stroke="#650000" stroke-opacity="0.501961" fill="none" d="M 66.606403 125.906322 Q 4.467523 151.000000, -1.351335 107.672107" stroke-width="0.500000" />
<path stroke="#5d0000" stroke-opacity="0.501961" fill="none" d="M 67.945263 128.563740 Q 25.134395 151.000000, -16.000000 82.463306" stroke-width="0.500000" />
<path stroke="#600000" stroke-opacity="0.501961" fill="none" d="M 74.410124 130.451557 Q 26.139708 126.847585, -16.000000 131.250452" stroke-width="0.500000" />
<path stroke="#5c0000" stroke-opacity="0.501961" fill="none" d="M -16.000000 132.105933 Q 4.680288 130.542832, 70.537921 131.110300" stroke-width="0.500000" />
<path stroke="#650000" stroke-opacity="0.501961" fill="none" d="M -3.370945 135.318992 Q 17.681372 134.808866, 65.105948 135.991949" stroke-width="0.500000" />
<path stroke="#510000" stroke-opacity="0.501961" fill="none" d="M -16.000000 135.349823 Q -16.000000 132.572367, 65.177185 132.914504" stroke-width="0.500000" />
<path stroke="#820600" stroke-opacity="0.501961" fill="none" d="M -16.000000 131.367278 Q -7.056009 123.346519, 74.651344 129.702720" stroke-width="0.500000" />
<path stroke="#720d00" stroke-opacity="0.501961" fill="none" d="M -16.000000 48.142408 Q -5.421347 148.536221, 66.510563 132.906667" stroke-width="0.500000" />
<path stroke="#710000" stroke-opacity="0.501961" fill="none" d="M -16.000000 130.094515 Q 43.451720 112.717926, 82.456689 151.000000" stroke-width="0.500000" />
<path stroke="#700a00" stroke-opacity="0.501961" fill="none" d="M 65.544033 124.500462 Q 2.447675 146.978312, -3.544234 116.571111" stroke-width="0.500000" />
<path stroke="#930800" stroke-opacity="0.501961" fill="none" d="M -16.000000 125.772526 Q 63.693214 116.748488, 66.245577 145.592180" stroke-width="0.500000" />
<path stroke="#590000" stroke-opacity="0.501961" fill="none" d="M 63.466519 133.014741 Q 44.870437 126.273411, -0.701832 133.253093" stroke-width="0.500000" />
<path stroke="#af1d00" stroke-opacity="0.501961" fill="none" d="M -14.125910 128.404422 Q 5.018880 115.635034, 60.304811 127.649218" stroke-width="0.500000" />
<path stroke="#cc3000" stroke-opacity="0.501961" fill="none" d="M 64.343034 66.213905 Q 69.097666 2.443763, 42.595751 -16.000000" stroke-width="0.500000" />
<path stroke="#620500" stroke-opacity="0.501961" fill="none" d="M 64.754708 129.093434 Q 32.458828 138.326053, -16.000000 132.581430" stroke-width="0.500000" />
<path stroke="#611300" stroke-opacity="0.501961" fill="none" d="M 254.143532 57.910126 Q 256.024130 44.730811, 255.263649 -2.053430" stroke-width="0.500000" />
<path stroke="#7a1700" stroke-opacity="0.501961" fill="none" d="M 63.077415 132.093725 Q 28.690492 143.381504, -16.000000 85.966805" stroke-width="0.500000" />
<path stroke="#a12a06" stroke-opacity="0.501961" fill="none" d="M 69.627189 136.341117 Q 68.112403 120.139870, -16.000000 130.798080" stroke-width="0.500000" />
<path stroke="#cc5824" stroke-opacity="0.501961" fill="none" d="M 66.476497 64.954943 Q 76.423072 32.729732, 2.490349 2.788757" stroke-width="0.500000" />
<path stroke="#802307" stroke-opacity="0.501961" fill="none" d="M -1.263347 80.190640 Q -7.319113 151.000000, 54.865048 125.398239" stroke-width="0.500000" />
<path stroke="#ce622f" stroke-opacity="0.501961" fill="none" d="M 68.237341 71.886576 Q 76.912122 22.924984, 5.226570 5.975317" stroke-width="0.500000" />
<path stroke="#a02100" stroke-opacity="0.501961" fill="none" d="M 62.448418 140.837142 Q 53.719330 114.000699, -16.000000 122.628211" stroke-width="0.500000" />
<path stroke="#73270a" stroke-opacity="0.501961" fill="none" d="M 256.430113 -16.000000 Q 252.906404 -1.911222, 255.802547 65.778935" stroke-width="0.500000" />
<path stroke="#cd623b" stroke-opacity="0.501961" fill="none" d="M 256.603252 10.727146 Q 251.886509 -12.896404, 153.940074 9.970383" stroke-width="0.500000" />
<path stroke="#bf2a00" stroke-opacity="0.501961" fill="none" d="M 66.367280 11.436242 Q 58.936279 42.355044, 64.190823 62.622421" stroke-width="0.500000" />
<path stroke="#6f1802" stroke-opacity="0.501961" fill="none" d="M -12.757845 111.029078 Q 38.835594 136.671783, 62.676044 130.309591" stroke-width="0.500000" />
<path stroke="#c31c00" stroke-opacity="0.501961" fill="none" d="M 181.906327 11.580675 Q 200.480343 -8.181371, 216.174585 13.121338" stroke-width="0.500000" />
<path stroke="#d86635" stroke-opacity="0.501961" fill="none" d="M -8.883840 10.507325 Q 21.222624 -4.032404, 72.319990 61.328810" stroke-width="0.500000" />
<path stroke="#de4710" stroke-opacity="0.501961" fill="none" d="M 54.332687 -7.969762 Q 70.078686 27.516257, 65.376900 64.628140" stroke-width="0.500000" />
<path stroke="#751200" stroke-opacity="0.501961" fill="none" d="M -16.000000 134.356310 Q 44.940049 136.844387, 62.750443 133.899058" stroke-width="0.500000" />
<path stroke="#e56563" stroke-opacity="0.501961" fill="none" d="M 103.582674 60.989817 Q 178.243765 51.516096, 238.842124 66.083894" stroke-width="0.500000" />
<path stroke="#cc5120" stroke-opacity="0.501961" fill="none" d="M 64.490127 127.251666 Q -3.836675 109.989394, -16.000000 127.465935" stroke-width="0.500000" />
<path stroke="#d7623b" stroke-opacity="0.501961" fill="none" d="M 107.272718 -16.000000 Q 189.455298 16.638895, 271.000000 -1.474166" stroke-width="0.500000" />
<path stroke="#711601" stroke-opacity="0.501961" fill="none" d="M -16.000000 116.217295 Q 9.012548 129.519088, 57.542563 128.337178" stroke-width="0.500000" />
<path stroke="#ce5f2f" stroke-opacity="0.501961" fill="none" d="M -0.824477 12.644071 Q 62.442867 -2.523490, 67.652182 67.253671" stroke-width="0.500000" />
<path stroke="#de753d" stroke-opacity="0.501961" fill="none" d="M -16.000000 18.014584 Q 48.490302 -16.000000, 73.342330 59.903189" stroke-width="0.500000" />
<path stroke="#6f0600" stroke-opacity="0.501961" fill="none" d="M 22.224884 112.310317 Q 50.644995 132.429604, 63.847319 145.664056" stroke-width="0.500000" />
<path stroke="#771903" stroke-opacity="0.501961" fill="none" d="M -16.000000 131.319910 Q 43.929079 133.633579, 61.277435 136.354665" stroke-width="0.500000" />
<path stroke="#d3693d" stroke-opacity="0.501961" fill="none" d="M -16.000000 -12.552851 Q 48.883456 28.059883, 73.170866 65.627666" stroke-width="0.500000" />
<path stroke="#b71f00" stroke-opacity="0.501961" fill="none" d="M 68.589655 23.397476 Q 53.680095 37.454031, 67.251733 63.331601" stroke-width="0.500000" />
<path stroke="#834c33" stroke-opacity="0.501961" fill="none" d="M 253.252112 10.221475 Q 254.958856 55.304061, 252.208783 68.194694" stroke-width="0.500000" />
<path stroke="#d55c35" stroke-opacity="0.501961" fill="none" d="M 213.798250 7.667079 Q 175.327885 -6.991678, 162.318395 3.492119" stroke-width="0.500000" />
<path stroke="#d5643f" stroke-opacity="0.501961" fill="none" d="M 258.284020 1.205909 Q 166.290027 3.411224, 162.398558 -1.151952" stroke-width="0.500000" />
<path stroke="#da7243" stroke-opacity="0.501961" fill="none" d="M 75.298428 67.536966 Q 48.039503 -11.531047, -8.859673 19.703927" stroke-width="0.500000" />
<path stroke="#7e220c" stroke-opacity="0.501961" fill="none" d="M 76.400373 146.794171 Q 36.497048 120.756455, -16.000000 134.645276" stroke-width="0.500000" />
<path stroke="#c64c21" stroke-opacity="0.501961" fill="none" d="M 63.785046 131.870743 Q 31.073116 113.303151, -0.895359 118.215953" stroke-width="0.500000" />
<path stroke="#e85d23" stroke-opacity="0.501961" fill="none" d="M 62.074652 6.073935 Q 68.448731 31.532076, 68.727880 66.748317" stroke-width="0.500000" />
<path stroke="#d67344" stroke-opacity="0.501961" fill="none" d="M 71.883656 61.785653 Q 68.827123 39.861460, -8.531404 -8.582279" stroke-width="0.500000" />
<path stroke="#d45042" stroke-opacity="0.501961" fill="none" d="M 249.549753 83.770167 Q 248.832777 42.670732, 251.329794 -16.000000" stroke-width="0.500000" />
<path stroke="#d76944" stroke-opacity="0.501961" fill="none" d="M 159.205617 3.498032 Q 217.038341 2.745347, 259.385724 2.423788" stroke-width="0.500000" />
<path stroke="#d04113" stroke-opacity="0.501961" fill="none" d="M 61.389357 7.928128 Q 71.197571 38.491138, 50.620720 52.288476" stroke-width="0.500000" />
<path stroke="#812911" stroke-opacity="0.501961" fill="none" d="M 55.948234 125.223042 Q 26.351160 134.584792, -16.000000 121.081349" stroke-width="0.500000" />
<path stroke="#ce3c2e" stroke-opacity="0.501961" fill="none" d="M 249.080989 69.425152 Q 250.428948 100.499720, 249.018753 115.586399" stroke-width="0.500000" />
<path stroke="#df724a" stroke-opacity="0.501961" fill="none" d="M 163.537136 3.795351 Q 196.440904 8.790660, 263.069336 2.932933" stroke-width="0.500000" />
<path stroke="#953c20" stroke-opacity="0.501961" fill="none" d="M 62.713603 132.866032 Q 29.836773 135.716983, -8.012312 96.070293" stroke-width="0.500000" />
<path stroke="#d7561f" stroke-opacity="0.501961" fill="none" d="M 44.193081 -16.000000 Q 78.202988 30.545634, 49.439186 50.018293" stroke-width="0.500000" />
<path stroke="#d3491b" stroke-opacity="0.501961" fill="none" d="M 75.603269 64.508692 Q 69.177664 30.077829, 41.039404 40.088263" stroke-width="0.500000" />
<path stroke="#e68b5a" stroke-opacity="0.501961" fill="none" d="M -15.223728 3.423888 Q 11.727798 -16.000000, 57.842243 53.040474" stroke-width="0.500000" />
<path stroke="#c1502a" stroke-opacity="0.501961" fill="none" d="M -2.233694 123.327586 Q 12.224981 101.904894, 61.759554 133.334904" stroke-width="0.500000" />
<path stroke="#771b06" stroke-opacity="0.501961" fill="none" d="M 23.759770 106.273511 Q 34.752778 135.987354, 89.192713 151.000000" stroke-width="0.500000" />
<path stroke="#d97648" stroke-opacity="0.501961" fill="none" d="M -1.297244 16.572032 Q 32.040916 -10.915585, 72.514331 67.444655" stroke-width="0.500000" />
<path stroke="#e45f5b" stroke-opacity="0.501961" fill="none" d="M 111.075993 60.184458 Q 173.691315 59.215866, 201.351242 56.491308" stroke-width="0.500000" />
<path stroke="#e7756c" stroke-opacity="0.501961" fill="none" d="M 215.777093 82.332147 Q 163.977213 71.072715, 114.220631 84.704002" stroke-width="0.500000" />
<path stroke="#ac2b0d" stroke-opacity="0.501961" fill="none" d="M 10.667407 124.596524 Q 40.571334 127.415400, 54.542684 123.970840" stroke-width="0.500000" />
<path stroke="#e5413e" stroke-opacity="0.501961" fill="none" d="M 148.578201 17.164738 Q 209.858298 15.902129, 237.872138 16.499694" stroke-width="0.500000" />
<path stroke="#e47140" stroke-opacity="0.501961" fill="none" d="M 219.977656 10.043533 Q 166.856171 10.529241, 166.076456 8.402854" stroke-width="0.500000" />
<path stroke="#6c1b0b" stroke-opacity="0.501961" fill="none" d="M 62.378284 130.793308 Q 53.836807 130.543301, 6.352199 133.387248" stroke-width="0.500000" />
<path stroke="#de7f4c" stroke-opacity="0.501961" fill="none" d="M 65.062241 59.148635 Q 70.847224 8.534956, -0.681901 -0.182179" stroke-width="0.500000" />
<path stroke="#dd5d2e" stroke-opacity="0.501961" fill="none" d="M 75.616984 63.549348 Q 72.156256 28.070862, 41.851727 38.740261" stroke-width="0.500000" />
<path stroke="#ea8282" stroke-opacity="0.501961" fill="none" d="M 105.424851 59.059635 Q 242.064566 74.019935, 249.586346 61.216903" stroke-width="0.500000" />
<path stroke="#df8661" stroke-opacity="0.501961" fill="none" d="M 166.605466 4.539915 Q 194.250405 12.654232, 266.166193 5.033936" stroke-width="0.500000" />
<path stroke="#c03518" stroke-opacity="0.501961" fill="none" d="M 215.431566 12.166569 Q 201.861966 -13.046394, 180.283940 13.450819" stroke-width="0.500000" />
<path stroke="#a73b1e" stroke-opacity="0.501961" fill="none" d="M -16.000000 125.201356 Q 56.068442 114.610402, 66.627049 146.691778" stroke-width="0.500000" />
<path stroke="#e6844c" stroke-opacity="0.501961" fill="none" d="M -3.061405 14.770390 Q 37.708629 -16.000000, 61.767313 54.223116" stroke-width="0.500000" />
<path stroke="#e4854f" stroke-opacity="0.501961" fill="none" d="M 61.800887 52.500355 Q 26.420195 -14.393923, -2.437459 10.620869" stroke-width="0.500000" />
<path stroke="#e77268" stroke-opacity="0.501961" fill="none" d="M 114.817377 76.326796 Q 139.565807 82.864896, 217.048261 75.547293" stroke-width="0.500000" />
<path stroke="#853e26" stroke-opacity="0.501961" fill="none" d="M 2.086013 104.145683 Q -4.286520 131.544954, 61.702141 132.587751" stroke-width="0.500000" />
<path stroke="#c87659" stroke-opacity="0.501961" fill="none" d="M 180.362037 9.284936 Q 264.502432 -16.000000, 254.022329 61.975866" stroke-width="0.500000" />
<path stroke="#e45d58" stroke-opacity="0.501961" fill="none" d="M 243.160404 62.098846 Q 200.419111 62.015833, 165.327890 56.523578" stroke-width="0.500000" />
<path stroke="#dc582c" stroke-opacity="0.501961" fill="none" d="M 49.867741 52.960721 Q 80.825325 37.051957, 56.599445 7.427375" stroke-width="0.500000" />
<path stroke="#e4615e" stroke-opacity="0.501961" fill="none" d="M 160.074748 56.127301 Q 187.963396 65.051513, 236.561818 56.749455" stroke-width="0.500000" />
<path stroke="#e98c56" stroke-opacity="0.501961" fill="none" d="M 76.667594 129.265791 Q 37.896034 122.207921, -16.000000 97.414450" stroke-width="0.500000" />
<path stroke="#e48251" stroke-opacity="0.501961" fill="none" d="M -4.642302 14.244542 Q 28.804269 -16.000000, 74.485090 62.688747" stroke-width="0.500000" />
<path stroke="#e68555" stroke-opacity="0.501961" fill="none" d="M -16.000000 30.177275 Q 32.101191 -16.000000, 59.067943 54.756245" stroke-width="0.500000" />
<path stroke="#e85d54" stroke-opacity="0.501961" fill="none" d="M 136.021446 115.884633 Q 223.796274 117.668405, 254.682617 115.830875" stroke-width="0.500000" />
<path stroke="#6f2516" stroke-opacity="0.501961" fill="none" d="M 54.355436 128.413419 Q -6.903494 151.000000, -9.320830 103.001745" stroke-width="0.500000" />
<path stroke="#db4441" stroke-opacity="0.501961" fill="none" d="M 241.042141 63.512894 Q 228.664090 51.786650, 191.197018 67.532658" stroke-width="0.500000" />
<path stroke="#e5726e" stroke-opacity="0.501961" fill="none" d="M 98.851206 -13.358634 Q 101.340619 30.062675, 100.577271 94.421131" stroke-width="0.500000" />
<path stroke="#e4733f" stroke-opacity="0.501961" fill="none" d="M 215.244298 11.182542 Q 170.510502 13.031767, 166.855268 5.427616" stroke-width="0.500000" />
<path stroke="#f07f47" stroke-opacity="0.501961" fill="none" d="M 62.266750 4.575873 Q 72.861855 41.144344, 68.787188 67.005568" stroke-width="0.500000" />
<path stroke="#bc5f36" stroke-opacity="0.501961" fill="none" d="M 41.181980 144.536032 Q 43.719730 93.917222, -12.081990 110.359689" stroke-width="0.500000" />
<path stroke="#a25f45" stroke-opacity="0.501961" fill="none" d="M 236.172554 -2.011735 Q 265.148683 6.536512, 251.442657 58.583280" stroke-width="0.500000" />
<path stroke="#df4340" stroke-opacity="0.501961" fill="none" d="M 150.953911 58.318854 Q 140.663541 51.503651, 110.169881 69.272684" stroke-width="0.500000" />
<path stroke="#bf5332" stroke-opacity="0.501961" fill="none" d="M -1.832699 105.728537 Q 7.072476 127.860979, 71.151003 127.589897" stroke-width="0.500000" />
<path stroke="#d40c09" stroke-opacity="0.501961" fill="none" d="M 134.331262 54.099210 Q 131.650480 64.991865, 114.164309 59.854655" stroke-width="0.500000" />
<path stroke="#e24b4a" stroke-opacity="0.501961" fill="none" d="M 170.884747 16.246994 Q 122.502551 16.697259, 106.382305 16.872238" stroke-width="0.500000" />
<path stroke="#ee955f" stroke-opacity="0.501961" fill="none" d="M 63.530681 65.873633 Q 55.187328 -16.000000, -2.122723 6.711847" stroke-width="0.500000" />
<path stroke="#da2523" stroke-opacity="0.501961" fill="none" d="M 176.039203 63.957056 Q 199.214353 72.539992, 202.353904 58.237559" stroke-width="0.500000" />
<path stroke="#cc4221" stroke-opacity="0.501961" fill="none" d="M 66.511919 67.743411 Q 72.509470 32.177426, 42.683900 40.570998" stroke-width="0.500000" />
<path stroke="#e18661" stroke-opacity="0.501961" fill="none" d="M 152.404112 -13.518195 Q 164.082754 20.913088, 271.000000 -0.707159" stroke-width="0.500000" />
<path stroke="#892c18" stroke-opacity="0.501961" fill="none" d="M 63.018143 132.550805 Q 11.515392 115.588495, -12.257172 151.000000" stroke-width="0.500000" />
<path stroke="#d30403" stroke-opacity="0.501961" fill="none" d="M 163.246175 68.465918 Q 170.975981 64.028720, 168.713819 55.877109" stroke-width="0.500000" />
<path stroke="#d75e4e" stroke-opacity="0.501961" fill="none" d="M 248.369381 57.640228 Q 250.931165 50.729929, 248.866695 -4.955603" stroke-width="0.500000" />
<path stroke="#ae4825" stroke-opacity="0.501961" fill="none" d="M 27.239121 102.728290 Q 21.598771 116.571494, 60.052091 135.763722" stroke-width="0.500000" />
<path stroke="#e56863" stroke-opacity="0.501961" fill="none" d="M 194.136880 58.202987 Q 115.525643 55.684155, 111.215651 57.395358" stroke-width="0.500000" />
<path stroke="#c03919" stroke-opacity="0.501961" fill="none" d="M 50.207714 47.505918 Q 68.302997 48.638898, 62.287116 20.922647" stroke-width="0.500000" />
<path stroke="#b54622" stroke-opacity="0.501961" fill="none" d="M 29.711637 105.693241 Q 38.745829 141.951816, 0.790170 132.851409" stroke-width="0.500000" />
<path stroke="#7a3222" stroke-opacity="0.501961" fill="none" d="M 58.626400 125.746009 Q 37.066866 151.000000, 15.678958 112.350053" stroke-width="0.500000" />
<path stroke="#e77d74" stroke-opacity="0.501961" fill="none" d="M 213.552589 81.460189 Q 165.623282 80.277125, 135.048013 77.522412" stroke-width="0.500000" />
<path stroke="#d34623" stroke-opacity="0.501961" fill="none" d="M 184.200896 10.417192 Q 202.621459 -5.759638, 213.439366 12.757514" stroke-width="0.500000" />
<path stroke="#d25e38" stroke-opacity="0.501961" fill="none" d="M 212.536660 1.352843 Q 192.745825 -0.054473, 168.038945 11.612457" stroke-width="0.500000" />
<path stroke="#7e3116" stroke-opacity="0.501961" fill="none" d="M 258.436405 2.111640 Q 247.591383 53.639076, 271.000000 130.736352" stroke-width="0.500000" />
<path stroke="#ffffff" stroke-opacity="0.501961" fill="none" d="M 14.470209 31.997686 Q -0.439915 151.000000, 254.279643 125.307849" stroke-width="0.500000" />
<path stroke="#e87242" stroke-opacity="0.501961" fill="none" d="M 50.076815 51.737824 Q 86.526796 40.625223, 56.867180 5.257066" stroke-width="0.500000" />
<path stroke="#69271a" stroke-opacity="0.501961" fill="none" d="M 12.306042 129.606059 Q 16.191989 134.717248, 55.810452 127.261976" stroke-width="0.500000" />
<path stroke="#ffffff" stroke-opacity="0.501961" fill="none" d="M 7.076786 42.647291 Q 16.480674 151.000000, 252.766389 127.721367" stroke-width="0.500000" />
<path stroke="#da7f55" stroke-opacity="0.501961" fill="none" d="M 59.522278 57.764038 Q 27.916152 -16.000000, -16.000000 23.690808" stroke-width="0.500000" />
<path stroke="#e77a6f" stroke-opacity="0.501961" fill="none" d="M 127.339313 78.401291 Q 201.101482 80.036573, 213.395270 76.058494" stroke-width="0.500000" />
<path stroke="#88422b" stroke-opacity="0.501961" fill="none" d="M 259.339970 5.671954 Q 243.753490 64.725345, 271.000000 66.768658" stroke-width="0.500000" />
<path stroke="#f2a269" stroke-opacity="0.501961" fill="none" d="M 77.805911 62.467255 Q 55.076652 -16.000000, -14.896362 11.721097" stroke-width="0.500000" />
<path stroke="#ef8077" stroke-opacity="0.501961" fill="none" d="M 182.905377 115.894982 Q 115.743414 116.215702, 102.305696 117.217385" stroke-width="0.500000" />
<path stroke="#ffffff" stroke-opacity="0.501961" fill="none" d="M 252.711103 134.929874 Q 1.125973 135.204517, 15.915183 37.600679" stroke-width="0.500000" />
<path stroke="#de7547" stroke-opacity="0.501961" fill="none" d="M 75.392956 144.634463 Q 44.676470 97.366287, -1.312351 137.413769" stroke-width="0.500000" />
<path stroke="#e49570" stroke-opacity="0.501961" fill="none" d="M 158.595440 8.327554 Q 240.373069 23.900303, 271.000000 -15.361380" stroke-width="0.500000" />
<path stroke="#7c2a1a" stroke-opacity="0.501961" fill="none" d="M 24.931223 112.532495 Q 37.830511 131.512055, 68.901054 150.674666" stroke-width="0.500000" />
<path stroke="#e1683a" stroke-opacity="0.501961" fill="none" d="M 41.622918 40.554521 Q 66.206383 21.147648, 75.123222 49.805673" stroke-width="0.500000" />
<path stroke="#de3b37" stroke-opacity="0.501961" fill="none" d="M 176.676811 66.493426 Q 200.512511 65.841334, 204.103024 59.963868" stroke-width="0.500000" />
<path stroke="#ffffff" stroke-opacity="0.501961" fill="none" d="M 247.132172 53.915698 Q 218.919111 151.000000, 3.010277 78.931663" stroke-width="0.500000" />
<path stroke="#ffffff" stroke-opacity="0.501961" fill="none" d="M 246.569985 56.055653 Q 219.965998 132.131241, -16.000000 45.022253" stroke-width="0.500000" />
<path stroke="#cd673d" stroke-opacity="0.501961" fill="none" d="M -6.015070 41.188050 Q -16.000000 6.009505, 83.001394 -16.000000" stroke-width="0.500000" />
<path stroke="#ffffff" stroke-opacity="0.501961" fill="none" d="M 21.085705 33.703651 Q 20.756177 149.487078, 258.452634 121.867036" stroke-width="0.500000" />
<path stroke="#cd0000" stroke-opacity="0.501961" fill="none" d="M 148.271800 58.484837 Q 144.675462 66.451817, 142.949969 67.553162" stroke-width="0.500000" />
<path stroke="#e67d4d" stroke-opacity="0.501961" fill="none" d="M 162.724494 6.150731 Q 210.835635 12.973294, 218.146237 7.438264" stroke-width="0.500000" />
<path stroke="#ffffff" stroke-opacity="0.501961" fill="none" d="M 244.742697 114.604086 Q 5.394213 114.522466, 5.762561 54.675006" stroke-width="0.500000" />
<path stroke="#ffffff" stroke-opacity="0.501961" fill="none" d="M -4.523205 29.298826 Q 2.421119 115.170625, 246.846471 113.108283" stroke-width="0.500000" />
<path stroke="#db2f2d" stroke-opacity="0.501961" fill="none" d="M 221.047192 56.915257 Q 235.283253 57.504567, 239.220052 63.984844" stroke-width="0.500000" />
<path stroke="#d96440" stroke-opacity="0.501961" fill="none" d="M 70.721595 65.707451 Q 52.004327 38.334573, 40.915080 31.537410" stroke-width="0.500000" />
<path stroke="#dd5f32" stroke-opacity="0.501961" fill="none" d="M 49.704036 47.199751 Q 79.002794 38.407867, 55.993167 5.125942" stroke-width="0.500000" />
<path stroke="#d30000" stroke-opacity="0.501961" fill="none" d="M 235.001438 56.397410 Q 231.444973 66.139232, 234.619915 68.530952" stroke-width="0.500000" />
<path stroke="#d31716" stroke-opacity="0.501961" fill="none" d="M 239.200651 63.103220 Q 228.766384 53.546712, 223.011958 68.266390" stroke-width="0.500000" />
<path stroke="#d61713" stroke-opacity="0.501961" fill="none" d="M 165.644732 66.682685 Q 170.864789 64.437835, 171.134235 55.156422" stroke-width="0.500000" />
<path stroke="#ffffff" stroke-opacity="0.501961" fill="none" d="M 246.838751 75.953639 Q 31.133374 54.510301, -16.000000 119.706816" stroke-width="0.500000" />
<path stroke="#af4024" stroke-opacity="0.501961" fill="none" d="M 59.984462 135.736984 Q 26.896623 101.908128, -7.995590 151.000000" stroke-width="0.500000" />
<path stroke="#ffffff" stroke-opacity="0.501961" fill="none" d="M 271.000000 133.430565 Q 10.295659 151.000000, 16.976977 29.177004" stroke-width="0.500000" />
<path stroke="#da3a3e" stroke-opacity="0.501961" fill="none" d="M 208.290401 65.179366 Q 223.280032 72.414434, 227.903394 57.160970" stroke-width="0.500000" />
<path stroke="#a18b77" stroke-opacity="0.501961" fill="none" d="M 255.597093 113.026078 Q 254.891321 74.181047, 252.724518 -16.000000" stroke-width="0.500000" />
<path stroke="#ffffff" stroke-opacity="0.501961" fill="none" d="M 247.405279 100.685447 Q 6.285418 107.130492, 4.437714 42.661373" stroke-width="0.500000" />
<path stroke="#f6a169" stroke-opacity="0.501961" fill="none" d="M 8.254366 5.562812 Q 80.146301 -15.962374, 70.603516 51.429063" stroke-width="0.500000" />
<path stroke="#d8754b" stroke-opacity="0.501961" fill="none" d="M -0.229442 116.257285 Q 48.362341 113.626386, 69.812577 139.526536" stroke-width="0.500000" />
<path stroke="#ffffff" stroke-opacity="0.501961" fill="none" d="M 6.380273 40.591324 Q 26.082885 104.174091, 245.617336 89.763902" stroke-width="0.500000" />
<path stroke="#321513" stroke-opacity="0.501961" fill="none" d="M 19.439081 151.000000 Q 22.948594 119.134288, 49.850814 131.287376" stroke-width="0.500000" />
<path stroke="#d70d0d" stroke-opacity="0.501961" fill="none" d="M 181.730984 56.042293 Q 175.992190 58.507985, 176.862788 67.924523" stroke-width="0.500000" />
<path stroke="#ffffff" stroke-opacity="0.501961" fill="none" d="M 93.637645 -16.000000 Q 38.053852 151.000000, 247.423172 129.491560" stroke-width="0.500000" />
<path stroke="#ffffff" stroke-opacity="0.501961" fill="none" d="M 244.428331 122.304836 Q 34.121092 143.080312, 3.110719 36.670603" stroke-width="0.500000" />
<path stroke="#bc4325" stroke-opacity="0.501961" fill="none" d="M 182.579988 12.272800 Q 193.275907 -10.591896, 211.822121 12.282329" stroke-width="0.500000" />
<path stroke="#7a2d24" stroke-opacity="0.501961" fill="none" d="M 52.696242 136.079119 Q 23.441799 123.811862, 9.675788 119.143053" stroke-width="0.500000" />
<path stroke="#ffffff" stroke-opacity="0.501961" fill="none" d="M 247.591222 60.822522 Q 219.957353 134.342608, -1.564775 75.784725" stroke-width="0.500000" />
<path stroke="#e27547" stroke-opacity="0.501961" fill="none" d="M 51.175527 49.281548 Q 77.569941 45.769024, 63.550631 5.303864" stroke-width="0.500000" />
<path stroke="#ffffff" stroke-opacity="0.501961" fill="none" d="M 253.111938 131.770613 Q 32.534999 151.000000, -16.000000 18.753777" stroke-width="0.500000" />
<path stroke="#ffffff" stroke-opacity="0.501961" fill="none" d="M 85.404654 148.050897 Q 49.924775 -12.604804, 241.327552 27.011215" stroke-width="0.500000" />
<path stroke="#ffffff" stroke-opacity="0.501961" fill="none" d="M 247.511696 40.496569 Q 246.283807 151.000000, 4.353781 93.013698" stroke-width="0.500000" />
<path stroke="#d60000" stroke-opacity="0.501961" fill="none" d="M 114.152868 67.746896 Q 122.882816 61.345093, 117.713883 55.221255" stroke-width="0.500000" />
<path stroke="#c85c38" stroke-opacity="0.501961" fill="none" d="M 46.069643 108.146833 Q 13.315129 146.187222, -16.000000 114.433147" stroke-width="0.500000" />
<path stroke="#ffffff" stroke-opacity="0.501961" fill="none" d="M 268.744482 102.676534 Q 246.608686 135.734223, -1.972725 51.914442" stroke-width="0.500000" />
<path stroke="#ffffff" stroke-opacity="0.501961" fill="none" d="M -13.143881 88.642594 Q 201.314214 90.425259, 248.198602 86.037008" stroke-width="0.500000" />
<path stroke="#d40000" stroke-opacity="0.501961" fill="none" d="M 187.397790 66.368491 Q 185.533887 60.072208, 186.163335 56.589558" stroke-width="0.500000" />
<path stroke="#ffffff" stroke-opacity="0.501961" fill="none" d="M -16.000000 92.550428 Q -16.000000 63.250288, 247.877442 71.517227" stroke-width="0.500000" />
<path stroke="#ffffff" stroke-opacity="0.501961" fill="none" d="M 248.446446 28.630957 Q 142.016188 -12.050362, 34.039135 105.899175" stroke-width="0.500000" />
<path stroke="#9d4b36" stroke-opacity="0.501961" fill="none" d="M 24.911449 102.232002 Q 25.991487 147.131940, 66.167204 130.768920" stroke-width="0.500000" />
<path stroke="#c85233" stroke-opacity="0.501961" fill="none" d="M 43.657911 36.624630 Q 70.787843 28.881288, 68.784649 65.724201" stroke-width="0.500000" />
<path stroke="#d20300" stroke-opacity="0.501961" fill="none" d="M 140.729566 66.724217 Q 150.024830 62.712388, 149.789868 56.328424" stroke-width="0.500000" />
<path stroke="#ffffff" stroke-opacity="0.501961" fill="none" d="M 243.629529 19.616339 Q 53.409635 9.618757, 91.390520 139.154093" stroke-width="0.500000" />
<path stroke="#e88e85" stroke-opacity="0.501961" fill="none" d="M 130.273920 60.340700 Q 132.284718 91.215041, 196.025841 77.948700" stroke-width="0.500000" />
<path stroke="#ffffff" stroke-opacity="0.501961" fill="none" d="M 244.403697 81.657086 Q 106.983120 151.000000, 2.149902 59.118912" stroke-width="0.500000" />
<path stroke="#ffffff" stroke-opacity="0.501961" fill="none" d="M -8.886037 75.353862 Q 228.973493 146.882330, 243.392106 18.929984" stroke-width="0.500000" />
<path stroke="#d66840" stroke-opacity="0.501961" fill="none" d="M 167.060717 2.837019 Q 203.397801 0.522050, 214.287187 12.175709" stroke-width="0.500000" />
<path stroke="#ffffff" stroke-opacity="0.501961" fill="none" d="M 247.663166 30.501023 Q 55.464627 -10.667957, 70.055037 124.080447" stroke-width="0.500000" />
<path stroke="#f19f68" stroke-opacity="0.501961" fill="none" d="M -2.704872 136.432594 Q 24.766548 79.972769, 59.616138 127.387560" stroke-width="0.500000" />
<path stroke="#95391d" stroke-opacity="0.501961" fill="none" d="M 21.074828 11.682936 Q 2.525095 -0.744012, -1.630072 16.596291" stroke-width="0.500000" />
<path stroke="#dd5a36" stroke-opacity="0.501961" fill="none" d="M 181.320228 12.960140 Q 208.645515 -6.066485, 216.449382 7.488656" stroke-width="0.500000" />
<path stroke="#ffffff" stroke-opacity="0.501961" fill="none" d="M 254.280416 122.836919 Q 51.874401 150.574150, -4.231844 55.494512" stroke-width="0.500000" />
<path stroke="#ffffff" stroke-opacity="0.501961" fill="none" d="M 244.506150 130.633462 Q 69.806683 150.815620, 28.369092 86.504659" stroke-width="0.500000" />
<path stroke="#cc0000" stroke-opacity="0.501961" fill="none" d="M 132.865015 57.675744 Q 132.188307 57.441084, 129.597633 67.685390" stroke-width="0.500000" />
<path stroke="#ffffff" stroke-opacity="0.501961" fill="none" d="M 260.509755 73.114615 Q 233.929951 103.567290, -16.000000 67.673683" stroke-width="0.500000" />
<path stroke="#d8623f" stroke-opacity="0.501961" fill="none" d="M 40.171915 39.118315 Q 57.115721 30.900477, 72.595567 63.933476" stroke-width="0.500000" />
<path stroke="#f3a86f" stroke-opacity="0.501961" fill="none" d="M 77.891446 136.390399 Q 14.156299 96.472519, 2.026898 112.264814" stroke-width="0.500000" />
<path stroke="#ffffff" stroke-opacity="0.501961" fill="none" d="M 49.964144 108.600722 Q 100.319671 -8.813111, 244.256888 33.482581" stroke-width="0.500000" />
<path stroke="#ffffff" stroke-opacity="0.501961" fill="none" d="M 20.444080 103.809693 Q 78.061106 33.030725, 248.692039 50.501978" stroke-width="0.500000" />
<path stroke="#ffffff" stroke-opacity="0.501961" fill="none" d="M 271.000000 23.071019 Q 262.455060 137.986501, -11.293789 59.285391" stroke-width="0.500000" />
<path stroke="#ffffff" stroke-opacity="0.501961" fill="none" d="M 249.464236 132.976884 Q 22.393166 151.000000, 3.779313 45.100345" stroke-width="0.500000" />
<path stroke="#ffffff" stroke-opacity="0.501961" fill="none" d="M 246.160537 75.165280 Q 225.997501 115.420510, -16.000000 54.479818" stroke-width="0.500000" />
<path stroke="#a17a66" stroke-opacity="0.501961" fill="none" d="M 248.444235 -14.701876 Q 256.659506 21.387094, 255.438555 93.699567" stroke-width="0.500000" />
<path stroke="#e8847c" stroke-opacity="0.501961" fill="none" d="M 201.893473 77.042476 Q 197.350087 79.739114, 107.005870 75.877401" stroke-width="0.500000" />
<path stroke="#d67c4f" stroke-opacity="0.501961" fill="none" d="M 0.310974 33.185142 Q -2.823508 0.715084, 28.018583 4.140559" stroke-width="0.500000" />
<path stroke="#df544b" stroke-opacity="0.501961" fill="none" d="M 100.856871 39.407189 Q 99.672627 94.797173, 100.962605 115.748287" stroke-width="0.500000" />
<path stroke="#ffffff" stroke-opacity="0.501961" fill="none" d="M 234.602620 121.528385 Q 22.063349 141.305785, 11.493993 27.037097" stroke-width="0.500000" />
<path stroke="#ffffff" stroke-opacity="0.501961" fill="none" d="M -9.959827 84.655775 Q 198.688434 151.000000, 245.951001 69.424717" stroke-width="0.500000" />
<path stroke="#ffffff" stroke-opacity="0.501961" fill="none" d="M -16.000000 15.162780 Q -16.000000 112.746030, 260.894551 97.066988" stroke-width="0.500000" />
<path stroke="#ffffff" stroke-opacity="0.501961" fill="none" d="M 48.097873 107.481028 Q 70.265891 28.156437, 248.739579 38.147891" stroke-width="0.500000" />
<path stroke="#d66043" stroke-opacity="0.501961" fill="none" d="M 66.442432 63.959670 Q 71.064527 54.567201, 40.945806 37.122251" stroke-width="0.500000" />
<path stroke="#793227" stroke-opacity="0.501961" fill="none" d="M 56.130463 129.470242 Q 40.834734 143.066193, 11.163026 119.882126" stroke-width="0.500000" />
<path stroke="#ffffff" stroke-opacity="0.501961" fill="none" d="M 19.434529 28.551643 Q 8.113611 131.538890, 240.178129 107.313648" stroke-width="0.500000" />
<path stroke="#ffffff" stroke-opacity="0.501961" fill="none" d="M 259.626032 131.652807 Q 11.148248 131.263762, 0.039175 48.772415" stroke-width="0.500000" />
<path stroke="#e04241" stroke-opacity="0.501961" fill="none" d="M 206.854883 67.755993 Q 219.424130 67.598720, 221.972608 55.791375" stroke-width="0.500000" />
<path stroke="#ffffff" stroke-opacity="0.501961" fill="none" d="M -16.000000 13.921893 Q 26.280102 127.000225, 246.058379 77.463741" stroke-width="0.500000" />
<path stroke="#ef9f68" stroke-opacity="0.501961" fill="none" d="M 52.326715 128.367569 Q 43.201139 86.357124, 0.885806 116.162675" stroke-width="0.500000" />
<path stroke="#ffffff" stroke-opacity="0.501961" fill="none" d="M 247.893690 54.332410 Q 249.413665 118.674152, 0.734409 96.584798" stroke-width="0.500000" />
<path stroke="#ffffff" stroke-opacity="0.501961" fill="none" d="M 83.891872 151.000000 Q 45.184144 -16.000000, 229.883228 27.004344" stroke-width="0.500000" />
<path stroke="#d50d06" stroke-opacity="0.501961" fill="none" d="M 141.759810 68.268741 Q 151.326178 59.346248, 148.327241 55.446447" stroke-width="0.500000" />
<path stroke="#dd322c" stroke-opacity="0.501961" fill="none" d="M 177.902541 56.089591 Q 174.895636 66.846218, 185.640337 64.963530" stroke-width="0.500000" />
<path stroke="#e9986a" stroke-opacity="0.501961" fill="none" d="M 72.048869 49.222122 Q 44.305592 -16.000000, -5.396346 24.875257" stroke-width="0.500000" />
<path stroke="#ffffff" stroke-opacity="0.501961" fill="none" d="M 69.083463 4.942396 Q 79.311206 17.164546, 252.786298 14.558074" stroke-width="0.500000" />
<path stroke="#e96353" stroke-opacity="0.501961" fill="none" d="M 166.695386 116.292821 Q 117.497581 116.613382, 100.035684 116.318085" stroke-width="0.500000" />
<path stroke="#ffffff" stroke-opacity="0.501961" fill="none" d="M 3.327313 84.795452 Q 247.623831 52.791536, 271.000000 100.625260" stroke-width="0.500000" />
<path stroke="#ffffff" stroke-opacity="0.501961" fill="none" d="M -13.267978 104.356910 Q 232.608159 -15.162125, 271.000000 86.393126" stroke-width="0.500000" />
<path stroke="#67251e" stroke-opacity="0.501961" fill="none" d="M 17.468519 126.453695 Q 19.559017 137.819661, 50.941416 135.003761" stroke-width="0.500000" />
<path stroke="#e09070" stroke-opacity="0.501961" fill="none" d="M 271.000000 9.389845 Q 253.278310 8.080157, 173.452622 11.346481" stroke-width="0.500000" />
<path stroke="#d46c4e" stroke-opacity="0.501961" fill="none" d="M 170.678591 7.777817 Q 238.686555 -8.463368, 243.372745 4.475041" stroke-width="0.500000" />
<path stroke="#c55437" stroke-opacity="0.501961" fill="none" d="M 5.738537 119.657908 Q 23.446263 118.449477, 58.728005 129.626221" stroke-width="0.500000" />
<path stroke="#ffffff" stroke-opacity="0.501961" fill="none" d="M 246.067015 34.821164 Q 56.573711 -14.380137, 87.376770 151.000000" stroke-width="0.500000" />
<path stroke="#e3845a" stroke-opacity="0.501961" fill="none" d="M -2.285298 136.457814 Q 12.540024 94.293603, 64.121802 133.103832" stroke-width="0.500000" />
<path stroke="#cf0506" stroke-opacity="0.501961" fill="none" d="M 220.705499 68.005230 Q 226.724561 67.530600, 227.668949 56.712415" stroke-width="0.500000" />
<path stroke="#ffffff" stroke-opacity="0.501961" fill="none" d="M 18.525538 35.791945 Q 11.781452 151.000000, 240.706847 130.221962" stroke-width="0.500000" />
<path stroke="#ffffff" stroke-opacity="0.501961" fill="none" d="M 72.393590 11.569142 Q 245.838721 -16.000000, 221.035957 151.000000" stroke-width="0.500000" />
<path stroke="#ffffff" stroke-opacity="0.501961" fill="none" d="M 246.770289 89.061178 Q -9.300161 98.300129, -11.494604 9.864612" stroke-width="0.500000" />
<path stroke="#ffffff" stroke-opacity="0.501961" fill="none" d="M -16.000000 96.974658 Q 3.759101 96.900138, 246.233573 96.776421" stroke-width="0.500000" />
<path stroke="#de6641" stroke-opacity="0.501961" fill="none" d="M 55.562990 52.619981 Q 75.757373 45.759048, 55.653392 0.341593" stroke-width="0.500000" />
<path stroke="#ffffff" stroke-opacity="0.501961" fill="none" d="M 245.245570 74.022123 Q 10.501187 74.265583, -3.906680 73.588511" stroke-width="0.500000" />
<path stroke="#faaf78" stroke-opacity="0.501961" fill="none" d="M 70.491071 65.045621 Q 91.930174 -4.899853, 2.344916 1.723010" stroke-width="0.500000" />
<path stroke="#c54225" stroke-opacity="0.501961" fill="none" d="M 56.396813 55.670436 Q 58.424915 39.170892, 66.181937 26.999883" stroke-width="0.500000" />
<path stroke="#ffffff" stroke-opacity="0.501961" fill="none" d="M 65.725271 127.172882 Q 62.320930 18.479565, 248.918501 56.121638" stroke-width="0.500000" />
<path stroke="#ffffff" stroke-opacity="0.501961" fill="none" d="M 7.049072 33.710289 Q 19.710426 106.048742, 241.493222 81.454580" stroke-width="0.500000" />
<path stroke="#ffffff" stroke-opacity="0.501961" fill="none" d="M 6.328355 35.422419 Q 28.000128 139.069800, 248.486704 105.380349" stroke-width="0.500000" />
<path stroke="#d55930" stroke-opacity="0.501961" fill="none" d="M 51.692068 54.023757 Q 47.847385 38.183787, 68.575452 34.798317" stroke-width="0.500000" />
<path stroke="#e59c79" stroke-opacity="0.501961" fill="none" d="M 262.158615 9.123300 Q 171.747170 20.152220, 155.646952 -7.551944" stroke-width="0.500000" />
<path stroke="#e25c58" stroke-opacity="0.501961" fill="none" d="M 256.716703 16.808522 Q 230.192336 15.681384, 166.352423 16.966267" stroke-width="0.500000" />
<path stroke="#ffffff" stroke-opacity="0.501961" fill="none" d="M 245.456691 69.425363 Q -9.723931 66.899426, -13.409848 74.610158" stroke-width="0.500000" />
<path stroke="#ffffff" stroke-opacity="0.501961" fill="none" d="M 4.757788 86.309586 Q 239.064274 151.000000, 245.717743 45.018335" stroke-width="0.500000" />
<path stroke="#ffffff" stroke-opacity="0.501961" fill="none" d="M 249.059031 124.255737 Q 64.883627 151.000000, 85.838351 -16.000000" stroke-width="0.500000" />
<path stroke="#ffffff" stroke-opacity="0.501961" fill="none" d="M 99.149433 -0.250452 Q 48.174521 151.000000, 224.348715 127.876002" stroke-width="0.500000" />
<path stroke="#ffffff" stroke-opacity="0.501961" fill="none" d="M 82.191295 132.735828 Q 271.000000 151.000000, 220.385391 2.877703" stroke-width="0.500000" />
<path stroke="#ea897e" stroke-opacity="0.501961" fill="none" d="M 217.601419 81.781205 Q 164.342805 82.318154, 152.781782 76.334782" stroke-width="0.500000" />
<path stroke="#dd3f36" stroke-opacity="0.501961" fill="none" d="M 134.728224 56.288846 Q 124.589668 69.985906, 110.455493 54.708570" stroke-width="0.500000" />
<path stroke="#e46761" stroke-opacity="0.501961" fill="none" d="M 162.260298 68.343668 Q 181.142643 48.871946, 204.552311 66.583548" stroke-width="0.500000" />
<path stroke="#d1080b" stroke-opacity="0.501961" fill="none" d="M 130.927424 67.836574 Q 127.926240 65.859407, 131.777052 56.259518" stroke-width="0.500000" />
<path stroke="#ffffff" stroke-opacity="0.501961" fill="none" d="M 10.793058 89.947445 Q 211.426779 3.693278, 248.525329 61.091532" stroke-width="0.500000" />
<path stroke="#3e1e1f" stroke-opacity="0.501961" fill="none" d="M -5.664690 151.000000 Q 28.215124 129.053353, 54.532560 129.488315" stroke-width="0.500000" />
<path stroke="#ffffff" stroke-opacity="0.501961" fill="none" d="M 228.119608 28.146086 Q 55.443721 -14.011069, 87.060645 140.031778" stroke-width="0.500000" />
<path stroke="#e1895d" stroke-opacity="0.501961" fill="none" d="M 53.864003 139.431690 Q 44.103362 103.509122, -1.602888 104.243344" stroke-width="0.500000" />
<path stroke="#ffffff" stroke-opacity="0.501961" fill="none" d="M 271.000000 96.730137 Q 36.124998 118.257076, -0.515682 62.241892" stroke-width="0.500000" />
<path stroke="#ffffff" stroke-opacity="0.501961" fill="none" d="M 62.495851 121.547573 Q 61.490049 -2.963335, 249.357018 55.870379" stroke-width="0.500000" />
<path stroke="#a7321b" stroke-opacity="0.501961" fill="none" d="M 185.632321 5.829919 Q 219.472181 -16.000000, 247.561890 5.333857" stroke-width="0.500000" />
<path stroke="#ffffff" stroke-opacity="0.501961" fill="none" d="M 248.289444 121.543457 Q 32.438372 133.108159, 0.845192 67.400303" stroke-width="0.500000" />
<path stroke="#da6240" stroke-opacity="0.501961" fill="none" d="M 39.641167 40.628346 Q 75.398618 37.788749, 69.705289 65.878102" stroke-width="0.500000" />
<path stroke="#ffffff" stroke-opacity="0.501961" fill="none" d="M 251.763725 15.309766 Q 180.080271 74.944752, 70.804953 7.467729" stroke-width="0.500000" />
<path stroke="#cf0000" stroke-opacity="0.501961" fill="none" d="M 233.555900 54.735469 Q 235.417227 65.580218, 232.538197 67.961173" stroke-width="0.500000" />
<path stroke="#db3836" stroke-opacity="0.501961" fill="none" d="M 186.914620 55.283655 Q 188.181786 69.482734, 175.898774 66.500582" stroke-width="0.500000" />
<path stroke="#ffffff" stroke-opacity="0.501961" fill="none" d="M 244.137647 108.201936 Q 4.637995 135.354173, -4.246797 45.417579" stroke-width="0.500000" />
<path stroke="#bf5e2e" stroke-opacity="0.501961" fill="none" d="M 2.597054 21.563196 Q 0.043908 -13.682954, -16.000000 -16.000000" stroke-width="0.500000" />
<path stroke="#ffffff" stroke-opacity="0.501961" fill="none" d="M 164.729275 -1.535392 Q 42.133128 -2.457669, 94.821191 141.898811" stroke-width="0.500000" />
<path stroke="#ffffff" stroke-opacity="0.501961" fill="none" d="M 219.569174 29.309919 Q 54.421646 -16.000000, 77.882524 127.979368" stroke-width="0.500000" />
<path stroke="#ffffff" stroke-opacity="0.501961" fill="none" d="M 243.881459 50.480349 Q 69.013833 39.138906, 45.457741 95.525045" stroke-width="0.500000" />
<path stroke="#ffffff" stroke-opacity="0.501961" fill="none" d="M 246.068247 91.901755 Q 1.787845 99.974773, -16.000000 27.847733" stroke-width="0.500000" />
<path stroke="#ffffff" stroke-opacity="0.501961" fill="none" d="M 248.270563 39.725919 Q 81.213728 55.940591, 74.260182 3.726234" stroke-width="0.500000" />
<path stroke="#f4a06f" stroke-opacity="0.501961" fill="none" d="M 9.349295 5.815628 Q 79.687911 -16.000000, 69.992578 66.758615" stroke-width="0.500000" />
<path stroke="#ffffff" stroke-opacity="0.501961" fill="none" d="M 246.387595 98.158417 Q 21.076368 96.246393, -10.958409 104.097055" stroke-width="0.500000" />
<path stroke="#4e251f" stroke-opacity="0.501961" fill="none" d="M 49.955548 137.731661 Q 42.985033 118.825170, 22.882336 131.616863" stroke-width="0.500000" />
<path stroke="#ca5a37" stroke-opacity="0.501961" fill="none" d="M -1.353886 135.149034 Q 43.125240 132.393025, 29.741413 103.025189" stroke-width="0.500000" />
<path stroke="#ffffff" stroke-opacity="0.501961" fill="none" d="M 266.100220 88.863681 Q 30.175176 76.470817, -16.000000 90.747425" stroke-width="0.500000" />
<path stroke="#ffffff" stroke-opacity="0.501961" fill="none" d="M 72.174418 -1.286158 Q 81.464715 70.345650, 248.608804 47.419276" stroke-width="0.500000" />
<path stroke="#df8e64" stroke-opacity="0.501961" fill="none" d="M 72.279767 63.872642 Q 71.809604 26.300252, -5.064790 -1.087574" stroke-width="0.500000" />
<path stroke="#e46c64" stroke-opacity="0.501961" fill="none" d="M 201.569867 116.792476 Q 204.455537 116.246972, 260.405781 116.330754" stroke-width="0.500000" />
<path stroke="#e05551" stroke-opacity="0.501961" fill="none" d="M 208.614023 67.560460 Q 211.719715 52.355556, 241.480669 63.426624" stroke-width="0.500000" />
<path stroke="#ffffff" stroke-opacity="0.501961" fill="none" d="M 68.387395 6.077691 Q 216.674647 -14.708059, 185.489649 105.542893" stroke-width="0.500000" />
<path stroke="#ffffff" stroke-opacity="0.501961" fill="none" d="M 235.624159 32.816157 Q 215.250568 107.285270, -12.624240 49.381304" stroke-width="0.500000" />
<path stroke="#ffffff" stroke-opacity="0.501961" fill="none" d="M 200.229350 132.313141 Q 13.529911 151.000000, 32.887678 41.191044" stroke-width="0.500000" />
<path stroke="#ffffff" stroke-opacity="0.501961" fill="none" d="M 242.417430 18.248872 Q 125.013281 106.180315, 65.074192 -16.000000" stroke-width="0.500000" />
<path stroke="#ffffff" stroke-opacity="0.501961" fill="none" d="M 87.173970 2.301439 Q 214.993666 -16.000000, 185.491448 139.584721" stroke-width="0.500000" />
<path stroke="#d06f4a" stroke-opacity="0.501961" fill="none" d="M 44.176689 106.908919 Q 18.069143 144.364039, -3.758973 111.478520" stroke-width="0.500000" />
<path stroke="#ec825a" stroke-opacity="0.501961" fill="none" d="M 168.745571 11.774087 Q 203.671158 4.190990, 217.875326 6.678374" stroke-width="0.500000" />
<path stroke="#ffffff" stroke-opacity="0.501961" fill="none" d="M 9.507947 37.888453 Q 5.426616 139.031010, 241.812774 128.974500" stroke-width="0.500000" />
<path stroke="#e37a51" stroke-opacity="0.501961" fill="none" d="M 162.284525 5.839002 Q 196.595492 1.414817, 209.674266 12.163740" stroke-width="0.500000" />
<path stroke="#df714a" stroke-opacity="0.501961" fill="none" d="M 76.169473 50.817112 Q 45.964214 54.449574, 50.079759 28.339477" stroke-width="0.500000" />
<path stroke="#e14d47" stroke-opacity="0.501961" fill="none" d="M 188.347958 63.681377 Q 183.557364 53.906774, 161.755310 58.421432" stroke-width="0.500000" />
<path stroke="#a59880" stroke-opacity="0.501961" fill="none" d="M 255.482094 29.409979 Q 248.187234 151.000000, 265.150547 151.000000" stroke-width="0.500000" />
<path stroke="#ffffff" stroke-opacity="0.501961" fill="none" d="M 241.531025 38.593172 Q 92.911204 -16.000000, 82.946386 139.321179" stroke-width="0.500000" />
<path stroke="#ffffff" stroke-opacity="0.501961" fill="none" d="M 0.230982 68.775677 Q 204.281206 151.000000, 219.002613 13.753230" stroke-width="0.500000" />
<path stroke="#ffffff" stroke-opacity="0.501961" fill="none" d="M -0.581839 76.877730 Q 61.242715 127.239673, 239.254602 98.997126" stroke-width="0.500000" />
<path stroke="#a35339" stroke-opacity="0.501961" fill="none" d="M -2.540307 115.716314 Q 10.384291 151.000000, 50.988668 119.177652" stroke-width="0.500000" />
<path stroke="#e5786f" stroke-opacity="0.501961" fill="none" d="M 101.929379 93.988581 Q 99.282720 84.168904, 100.894780 13.901203" stroke-width="0.500000" />
<path stroke="#eb958c" stroke-opacity="0.501961" fill="none" d="M 191.010653 76.231007 Q 114.864859 84.902598, 110.152353 72.737493" stroke-width="0.500000" />
<path stroke="#f0a26d" stroke-opacity="0.501961" fill="none" d="M 50.737802 51.244000 Q 53.585594 -16.000000, -16.000000 8.221936" stroke-width="0.500000" />
<path stroke="#e88e6c" stroke-opacity="0.501961" fill="none" d="M 162.284938 10.768515 Q 174.090234 6.522820, 271.000000 0.368795" stroke-width="0.500000" />
<path stroke="#c45e41" stroke-opacity="0.501961" fill="none" d="M 67.979708 137.842374 Q 15.166689 97.050083, -2.279738 151.000000" stroke-width="0.500000" />
<path stroke="#e98158" stroke-opacity="0.501961" fill="none" d="M 54.127056 4.599700 Q 78.861331 26.538333, 61.952232 64.592473" stroke-width="0.500000" />
<path stroke="#ffffff" stroke-opacity="0.501961" fill="none" d="M 247.312098 31.280921 Q 101.940129 65.034532, 63.730063 -5.299724" stroke-width="0.500000" />
<path stroke="#ed8f85" stroke-opacity="0.501961" fill="none" d="M 105.784687 116.268415 Q 235.277319 116.059242, 258.160448 117.547156" stroke-width="0.500000" />
<path stroke="#ffffff" stroke-opacity="0.501961" fill="none" d="M 245.791993 32.339598 Q 59.190834 -12.481650, 80.293068 133.569493" stroke-width="0.500000" />
<path stroke="#e9867c" stroke-opacity="0.501961" fill="none" d="M 221.130948 81.782775 Q 177.463174 74.225053, 122.581227 81.282007" stroke-width="0.500000" />
<path stroke="#ffffff" stroke-opacity="0.501961" fill="none" d="M 271.000000 78.025709 Q 184.226706 62.881023, -13.302689 80.373601" stroke-width="0.500000" />
</g>
</svg>
