<svg height="680" width="1024" xmlns="http://www.w3.org/2000/svg"><path d="m0 0h1024v680h-1024z" fill="#8c8988"/><g fill-opacity=".501961" transform="matrix(4 0 0 4 2 2)"><path d="m225 185-163-54 88-96z"/><path d="m-16 9 249-25-64 63z" fill="#fff"/><path d="m-16 145 43-161 57 201z" fill="#fff"/><path d="m216-16 38 201 17-184z"/><path d="m62 33 87 8-86 89z" fill="#2b0000"/><path d="m159 73 70-22 13 89z" fill="#fff"/><path d="m198 185-136-63 127-37z"/><path d="m-16 8 82-24-12 190z" fill="#fafcfc"/><path d="m-10 19 238-35-57 61z" fill="#fff"/><path d="m193 155 78-50-4 37z"/><path d="m229 47-91 27 41-28z"/><path d="m238 134-45 11 30-88z" fill="#fbfdfd"/><path d="m72 67 9 49 29-33z" fill="#ffa067"/><path d="m149 137-32 1 45 13z" fill="#fff"/><path d="m190 166 76 19-30-38z" fill="#fff"/><path d="m150 159-28 26-102-48z" fill="#e5e7e8"/><path d="m219 46 34 66-24-114z"/><path d="m199 153-17-74-43 105z"/><path d="m64 61 90-19-90-8z"/><path d="m181 52 38-38 1 26z" fill="#fff"/><path d="m170 46 30-8 18-35z" fill="#131516"/><path d="m239 143 3-69 25 111z"/><path d="m61 98 84 58-44-7z"/><path d="m110-16h97l-41 73z" fill="#fff"/><path d="m207 55-39 15-6 19z" fill="#fff"/><path d="m-16 130 91 55 25-48z" fill="#cacccc"/><path d="m79-16-53 185-42-166z" fill="#ddddde"/><path d="m221 99-8-5 6 24z" fill="#080808"/><path d="m147 61-87-11 97 75z" fill="#646262"/><path d="m86 134-20 1-2-69z"/><path d="m175 57-21 1-2 37z"/><path d="m232 47-45 13 33-20z"/><path d="m219 139 37 5-66 10z"/><path d="m78 106 12-41 8 46z" fill="#ff8f5d"/><path d="m201 95-2 39-10-36z" fill="#f2f4f5"/><path d="m271-16-33 2 20 72z"/><path d="m163-16-4 73 72-73z" fill="#fff"/><path d="m213 69 17-11 11 66z" fill="#feffff"/><path d="m187 85 6 100-38-95z"/><path d="m189 169 24-16-15 3z" fill="#d7d8d9"/><path d="m62 104-19-50 15-49z" fill="#fff"/><path d="m195 145 45-23-45 6z" fill="#fbfbfb"/><path d="m130 177 22-20-23-3z" fill="#e7e8e8"/><path d="m124 140 28-2-1 8z" fill="#fff"/><path d="m138 185 18-45 62 5z"/><path d="m216 53-49 35 4-23z" fill="#fcfdfe"/><path d="m163 91-7-47-24-9z" fill="#121616"/><path d="m97 104 2 46 25 3z"/><path d="m80 168-41-104-39 98z" fill="#ccc"/><path d="m197 78-7 20 14-7z" fill="#515353"/><path d="m139 137-46-13 96-2z"/><path d="m199 107 7-7-1 29z" fill="#545656"/><path d="m177 54 26-3-43 19z"/><path d="m207 27-32 29 45-17z" fill="#e4e5e5"/><path d="m162 123-34-79-38 75z" fill="#4b4d4e"/><path d="m80-13 84 61 54-50z" fill="#fff"/><path d="m234 79 22 106 15-44z"/><path d="m203 25-32 16 6 13z" fill="#3b3b3c"/><path d="m224 133 4 27-8-16z" fill="#090a0a"/><path d="m234 62-20-16 10-7z"/><path d="m-16 148 111-155-82-9z" fill="#dcdddc"/><path d="m86 151 17 7-14-23z" fill="#fbfcfc"/><path d="m77 37-8 56-9-57z" fill="#141f1f"/><path d="m75 34 34 29 48-19z" fill="#0e1a1a"/><path d="m55 185-66-20h72z" fill="#5e6060"/><path d="m163 74 18 6-18 8z" fill="#fff"/><path d="m94 110 4-48-26 29z" fill="#f67856"/><path d="m249 157-26 28 8-35z" fill="#fbfdfd"/><path d="m62 101 1 21 48-1z" fill="#212728"/><path d="m205 146 6-5 2 27z" fill="#0d0d0e"/><path d="m0 149 34-38-22 14z" fill="#919191"/><path d="m152 142-3-9 4 2z" fill="#fbfbfb"/><path d="m243 154 28 4-31-31z"/><path d="m201 93 28-10-39 29z" fill="#fbfbfb"/><path d="m95 156 1 14-5 6z" fill="#101111"/><path d="m153 147-41-6 32 16z"/><path d="m216 83-7-21-1 14z" fill="#616363"/><path d="m100 135-39 41-2-41z" fill="#afafaf"/><path d="m223 140-14 1 3-50z" fill="#e2e2e2"/><path d="m130 179-33 6 28-24z" fill="#494a4a"/><path d="m201 161-2 24h7z"/><path d="m70 117-6 17 36-1z"/><path d="m66 126-23 28-28-77z" fill="#c9c9c9"/><path d="m214 90-16-20 7-11z" fill="#fbfdfd"/><path d="m205 150 35-15 5 11z"/><path d="m208 55 33 69-12-65z" fill="#e9e9e9"/><path d="m168 72-3-9-14 16z"/><path d="m152 129 9 49 36-69z" fill="#0a0a0a"/><path d="m183 36 29-12 2-19z" fill="#393939"/><path d="m159 56h14l-13-25z" fill="#feffff"/><path d="m211 45 16 6-42 4z"/><path d="m91 43-2 35 57-30z" fill="#494749"/><path d="m200 185h12l-4-30z" fill="#fdfdfe"/><path d="m224 30-11-9 5-20z" fill="#c3c5c6"/><path d="m85 185 3-24-26 24z" fill="#464747"/><path d="m144 138-43-8 60-5z"/><path d="m217-16h16l-10 34z"/><path d="m9-9-4 105-21-84z" fill="#bbbbbc"/><path d="m178 185 21-65-52 47z" fill="#070707"/><path d="m98 109-26-30 8 30z" fill="#ff9b59"/><path d="m9 63h17l-20 54z" fill="#fcfcfc"/><path d="m27 114 11 43-16 1z" fill="#f4f4f4"/><path d="m52 6-16 25 14-47z" fill="#aaa"/><path d="m53 57-9-9 28-26z" fill="#f7f6f7"/><path d="m200 110 5 34-9-1z" fill="#ededed"/><path d="m163 4-25 36 32-1z" fill="#fff"/><path d="m218 110v-17l-4 5z" fill="#434343"/><path d="m176 185 22-30-12-64z" fill="#040404"/><path d="m189 74 1 11-19 1z" fill="#acadad"/><path d="m83 155 9-2 3 26z" fill="#f4f4f4"/><path d="m46 31 99 7-70-41z" fill="#ddddde"/><path d="m33 167 13-2-3-45z" fill="#a8a8a8"/><path d="m119 154-5-29-17 22z"/><path d="m87 53 20 32-37-20z" fill="#965c56"/><path d="m75 157v-18l9 11z" fill="#727272"/><path d="m128 45 11-11 1 10z" fill="#050505"/><path d="m141 112-47-13 58-46z" fill="#555"/><path d="m229 55 21 37-6 30z" fill="#030404"/><path d="m187 50-20 14 53-13z"/><path d="m230 137-10-40 19 24z" fill="#eee"/><path d="m224 151-10 2 14 32z" fill="#e9ebeb"/><path d="m137 156-35 14 18-15z" fill="#e6e7e7"/><path d="m203 31-27 23 18-4z" fill="#a8a8a8"/><path d="m138 138-14 4v-4z" fill="#fefefe"/><path d="m5 142-14 3-4 12z" fill="#2a2c2c"/><path d="m251 17-9-27 29 15z"/><path d="m187 108v-18l-36-4z" fill="#030303"/><path d="m237 125 21-1 3 61z" fill="#050505"/><path d="m59 150 12-9-2-5z" fill="#686868"/><path d="m64 109 72 3-43 12z" fill="#201f20"/><path d="m103 44-23-12-4 8z"/><path d="m69 177 8-38-22 20z" fill="#d8d8d8"/><path d="m220 136 6 4v-7z" fill="#555"/><path d="m189 78 6 1v11z" fill="#f5f6f6"/><path d="m203 57-26 7-4 23z" fill="#efefef"/><path d="m99 151-3 25 11-20z" fill="#f9fafa"/><path d="m161 61-4-16-51 7z" fill="#222223"/><path d="m67 162 5 7-3-18z" fill="#6c6c6c"/><path d="m12 122-7 19 1-34z" fill="#f2f4f4"/><path d="m195 71 6 7-3 9z" fill="#545656"/><path d="m112 77-21 26-3-15z" fill="#d06458"/><path d="m207 58 8-4-7 7z" fill="#737474"/><path d="m113 138 34-14-85-3z"/><path d="m106 18 78 15-56-49z" fill="#fff"/><path d="m162 83v-5l8 1z" fill="#fbfbfc"/><path d="m45 113 22 24-18 14z" fill="#e4e4e4"/><path d="m250 172-25-24 16 2z" fill="#e0e0e1"/><path d="m18 77v33l7-26z" fill="#abacac"/><path d="m186 150-11-3 24-2z" fill="#454545"/><path d="m-7 164 87 10-34 11z" fill="#3d3e3e"/><path d="m192 92-4-16-2 6z" fill="#5a5b5b"/><path d="m22 105 3-57 36 62z" fill="#e6e6e6"/><path d="m24 104 32 10-16 7z" fill="#b2b2b2"/><path d="m217 53-5 3 17 8z" fill="#f8f9f9"/><path d="m214 67-5 1 3 15z" fill="#5f6060"/><path d="m215 54 14 8-20 47z" fill="#e9e9e9"/><path d="m5 156 40 11h-28z" fill="#b5b6b7"/><path d="m106 42-9-8-5 10z" fill="#010202"/><path d="m222 63-2 72 22-13z" fill="#e5e5e5"/><path d="m222 53-11 15 3-14z" fill="#f6f6f6"/><path d="m200 108-10 2v-11z" fill="#f6f6f6"/><path d="m103 136-36-5-5-14z"/><path d="m103 147 31-3 27 15z"/><path d="m207 127-3-9v8z" fill="#202020"/><path d="m148 158-10 21v-23z" fill="#d2d2d2"/><path d="m95 5v-21h-7z" fill="#474848"/><path d="m94 27 4-3 1 3z" fill="#545454"/><path d="m197 77 14 2-5-21z" fill="#efefef"/><path d="m4 138-1-4-9-2z" fill="#545454"/><path d="m225 57-3-22 11 15z"/><path d="m62 15-2-2-1 8z" fill="#7b7b7b"/><path d="m3 153-8-4 6 6z" fill="#1e2021"/><path d="m190 167 7-1 11 18z" fill="#3e3f3f"/><path d="m188 49 27-23-4 17z" fill="#f3f3f3"/><path d="m76 173-27 4 42-23z" fill="#e7e7e7"/><path d="m226 158v-11l-2 4z" fill="#141515"/><path d="m105-16h-8l6 24z" fill="#8c8d8d"/><path d="m144 119 16-5-6-53z" fill="#373737"/><path d="m168 185-3-22-2 11z" fill="#8b8b8b"/><path d="m146 30-15 9-3-15z" fill="#ccc"/><path d="m156 61 13 5 19-13z"/><path d="m31 97-4-15-2 20z" fill="#a8a8a8"/><path d="m65 62-4-11v18z" fill="#555f5f"/><path d="m5 158 12-21-15 12z" fill="#eceded"/><path d="m221 114-6-21h7z" fill="#8f8f8f"/><path d="m11 121 13 4-2-6z" fill="#838383"/><path d="m208 129-5-23h7z" fill="#c1c1c1"/><path d="m238 101 33 63-15 21z" fill="#090909"/><path d="m174 93 16-2-12-6z" fill="#0b0b0b"/><path d="m69 22v-10l4 6z" fill="#949494"/><path d="m106 110 6-54 44 56z" fill="#535454"/><path d="m85 138 7 19-1-21z" fill="#ecebec"/><path d="m200 173-1-17 3 8z" fill="#313131"/><path d="m216 152 8-2v17z" fill="#e2e2e3"/><path d="m111 160-5-8-1 16z" fill="#7f8080"/><path d="m170 43-1 14 8-2z" fill="#737475"/><path d="m263 89-28-93 36 41z" fill="#2b2c2c"/><path d="m168 58 20-15-2-14z" fill="#444"/><path d="m234 133 10 21 27 1z" fill="#060606"/><path d="m187 84 3 16 19-16z" fill="#888"/><path d="m72 108 8 3-7-17z" fill="#515653"/><path d="m248 156-16 11 23 18z" fill="#cbcccc"/><path d="m193 71v3l7-7z" fill="#666868"/><path d="m191 71-26 16 4-20z" fill="#e4e4e4"/><path d="m12 106-2-4 5 1z" fill="#7e7e7e"/><path d="m156 56-9-8-24 2z" fill="#4a4a4a"/><path d="m155 78 11-13 2 6z"/><path d="m78 163 20-26-6 18z" fill="#dbdbdb"/><path d="m137 40-31-1 14 6z"/><path d="m155 43 5 16-16-18z" fill="#010000"/><path d="m90 41-26-1 9-6z"/><path d="m27 44 12-17-11 9z" fill="#afafaf"/><path d="m95 76-22-1 1 13z" fill="#db5a49"/><path d="m127 160-3 9v-5z" fill="#2d2d2d"/><path d="m152 136-10 4 12 8z" fill="#dedede"/><path d="m208 162-1-8-5 3z" fill="#d8d8d8"/><path d="m64 89 8-25-8-15z" fill="#121818"/><path d="m175 151h-24l11-4z" fill="#3a3a3a"/><path d="m17 84 1 29-9-26z" fill="#f5f5f5"/><path d="m60 95 3-1 1 12z" fill="#7b8586"/><path d="m139 39 20-10-9 12z" fill="#fff"/><path d="m21 115-1-11-2 10z" fill="#6e6e6e"/><path d="m224 24-4 11-1-11z" fill="#7f8081"/><path d="m28 113v-6l-19 1z" fill="#f4f5f5"/><path d="m225 139 8-13 2 4z" fill="#ebeaeb"/><path d="m195 34 21-29-3 15z" fill="#3a3b3b"/><path d="m79 77-6-18 6-7z" fill="#4a4a49"/><path d="m48 77 11-29-4 63z" fill="#f6f6f6"/><path d="m89 4-10-14 4-6z" fill="#616162"/><path d="m218 53 10-9h-15z"/><path d="m121 153 26 27-9-24z" fill="#d6d6d6"/><path d="m197 125 40 2-42 12z" fill="#dedede"/><path d="m112-11 53 64 31-65z" fill="#fefefe"/><path d="m141 154-44-5 5-19z"/><path d="m21 128 19-15-3 45z" fill="#e2e2e2"/><path d="m77 27 36-20-49-8z" fill="#e2e2e2"/><path d="m203 119 2 7-2-1z" fill="#040404"/><path d="m198 36 16-16 7 10z" fill="#c3c4c4"/><path d="m81 153 4-16-7 4z" fill="#757575"/><path d="m209 154-30-4 28-4z"/><path d="m159 124-8-15-50 12z" fill="#2e2d2d"/><path d="m105 32 1-7 2 1z" fill="#878787"/><path d="m237 138-27 11 32-2z"/><path d="m219 117 2 19-25 9z" fill="#dedede"/><path d="m85 79 5 7-13 18z" fill="#ffa36b"/><path d="m68 150 12-12h-7z" fill="#e4e4e4"/><path d="m223 44 14-5 9 44z" fill="#101010"/><path d="m51 9 1 42 8-31z" fill="#f9f9f9"/><path d="m2 125 3 3-15 2z" fill="#797a7a"/><path d="m204 106-6 2 6-4z" fill="#383838"/><path d="m162 87 26 11 3 15z" fill="#060606"/><path d="m29 92 12 6-26-4z" fill="#efefef"/><path d="m93-16-7 31 10 20z" fill="#e7e7e7"/><path d="m232 120-10 6-1-16z" fill="#fff"/><path d="m88 97 8-38 2 22z" fill="#c36b5c"/><path d="m97 95-1 17 10-23z" fill="#404648"/><path d="m240 157-21 17 14-26z" fill="#f1f2f2"/><path d="m9 110 5 1-1 2z" fill="#707171"/><path d="m214 21 5-10-2-8z" fill="#dcdcdc"/><path d="m84 32 3 10h-7z" fill="#0e0f0f"/><path d="m97 42 31 13-63-4z" fill="#232626"/><path d="m61 119 41-10 11 13z" fill="#2a2a2a"/><path d="m147 138 6 4-1-8z" fill="#d2d3d3"/><path d="m186 77 4-2-4 4z" fill="#403f3f"/><path d="m198 96-6 6-1 10z" fill="#fff"/><path d="m182 35-6 3 10-11z" fill="#c1c1c1"/><path d="m149 70 7-25 8 61z" fill="#262626"/><path d="m198 159-2 19 8 7z" fill="#bfbfbf"/><path d="m63 142-27-42 29 25z" fill="#d1d1d1"/><path d="m241 17-10-14 9 37z" fill="#5b5c5c"/><path d="m-2 160-14-91 23 10z" fill="#c6c6c6"/><path d="m99 61 23-6-23 28z" fill="#4e5656"/><path d="m67 147v20l-5-3z" fill="#eaeaea"/><path d="m190 84 3-14 2 21z" fill="#e8e9e9"/><path d="m78 6 1 18 10-15z" fill="#c6c6c6"/><path d="m216 169 3-18-9 2z" fill="#b8b9b9"/><path d="m49 112-22-63 22-38z" fill="#d8d8d8"/><path d="m219 111-2-3 1 8z" fill="#030303"/><path d="m93 94 12-12-1 6z" fill="#ff8c5e"/><path d="m228 58 4 16-34 31z" fill="#e8e8e8"/><path d="m79 33-5-21-1 20z" fill="#fbfcfc"/><path d="m238 138 2-4-9 2z" fill="#5a5a5b"/><path d="m7-16-10 61-13-15z" fill="#a7a7a7"/><path d="m194 22 18-18-39-20z" fill="#fff"/><path d="m135 185 20-33h23z"/><path d="m39 110 10 2-9 27z" fill="#b4b4b4"/><path d="m61 9 6 25 1-15z" fill="#f8f8f8"/><path d="m64 82 8-9-1 28z" fill="#1b2222"/><path d="m61 3 48-18-97 7z" fill="#b2b2b2"/><path d="m268 87-26-29 21 95z" fill="#454647"/><path d="m114 37 15-8-26-8z" fill="#f0f0f0"/><path d="m73 91v-30l10 34z" fill="#e76c45"/><path d="m97 150 3 13 3-12z" fill="#e0e0e0"/><path d="m220 98 17 36-10-73z" fill="#e5e5e5"/><path d="m82 34 5-13-5-16z" fill="#f9f9f9"/><path d="m209 86 10-9-13 6z" fill="#aeaeae"/><path d="m219 29 2 11-6 4z" fill="#9e9f9f"/><path d="m212 28 4 11-18 9z" fill="#eaeaea"/><path d="m62 116 49 19h-42z" fill="#030303"/><path d="m62 23-3 4 3 7z" fill="#aeaeae"/></g></svg>