<svg height="680" width="1024" xmlns="http://www.w3.org/2000/svg"><path d="m0 0h1024v680h-1024z" fill="#b3b5b2"/><g fill-opacity=".501961" transform="matrix(4 0 0 4 2 2)"><path d="m119.788837 185 28.55137-40.127095-9.886457-27.918829-9.369983-52.288868z"/><path d="m-16 110.734016 89.079622-.603943 45.845058-113.327945-120.349068 26.337389z" fill="#faffff"/><path d="m130.721072 184.447669 95.197324-76.069435 37.095113-3.695499 2.969592 69.880995z" fill="#56554f"/><path d="m103.945311 37.37327 28.146487 49.998872-46.613508-.430386 75.116511-56.919596z" fill="#423628"/><path d="m184.079549 107.251251-46.753678 6.001364 11.059669-110.058328 101.524604 59.813151z" fill="#eaefef"/><path d="m109.515066 140.390385 26.724078 6.670089 11.089445-7.714632-10.207043-24.091467z"/><path d="m95.638498 65.101128 38.828751 19.772063-34.657947 5.614474-22.614235-15.273035z" fill="#463725"/><path d="m-13.939238 185 16.364242-68.669237 5.997591 35.37647 177.823124 13.118z" fill="#7a766e"/><path d="m120.415206 124.280511 10.863922-28.896173-107.57263-14.809294-3.202034 40.614837z" fill="#eedfd7"/><path d="m168.685505-6.50704 102.314495 2.238805v60.408409l-53.347953-38.555288z" fill="#64869a"/><path d="m123.790881 34.230942-26.857472.161538 57.631592 18.814811-16.427747-23.095088z" fill="#454134"/><path d="m141.896524 175.313053 57.385946-13.854442 71.71753-85.41161-133.731504 70.137445z" fill="#a19e99"/><path d="m116.348733 60.168175-23.688809-21.426999 10.316374 38.105474 13.628157-.655589z" fill="#dfe5e0"/><path d="m139.782116 30.287631-155.782116-14.000017 175.262022-32.287614 111.737978 91.22932z" fill="#b9ccd6"/><path d="m111.404975 142.362251 29.270306.264276-8.984103-77.016799-6.598986 65.665234z" fill="#1b0a00"/><path d="m254.601491 108.946143-22.211887 42.515942-40.097357 27.258192 67.916652-2.207677z" fill="#585b57"/><path d="m133.225131 61.587126-.611935 31.522749 90.866556 14.996444-40.966833-77.712758z" fill="#e0ddd9"/><path d="m-16 86.59761 107.612588-56.707851-13.683984 54.153736 37.758825 20.616791z" fill="#eceeed"/><path d="m135.78444 69.782578-15.286806 16.044793 17.954236 14.719123-11.063536-8.309695z" fill="#1f1107"/><path d="m138.679612 70.046281-10.793029-3.406953-50.148462 10.006035 15.886777-10.166078z" fill="#5c5342"/><path d="m127.036747 79.140025-10.41648-11.673659 53.282408 13.448636 7.137296-57.898351z" fill="#d8e0e0"/><path d="m242.338984 122.983941-72.911251 1.512831-32.90032.651197 88.950915 3.577504z" fill="#5c6160"/><path d="m4.58366 185 19.475287-54.844114 99.171707-5.606594-127.806747-1.025675z" fill="#919189"/><path d="m115.010413 76.870118 6.527959-65.875507-13.755965 75.633864-11.066539.940341z" fill="#b9b7b5"/><path d="m-16 36.529685 123.766961-4.69482 89.827446-9.217489-165.187557-38.312804z" fill="#c3cdd1"/><path d="m141.348221 133.424517-4.679623-27.501695 100.839966 1.419775 6.240976-59.863569z" fill="#c8c0b9"/><path d="m134.611542 26.207691 17.298187 32.492407-8.845632-25.937246-22.04548 11.066727z" fill="#444538"/><path d="m125.565843 185 15.558895-27.269087-11.505092-12.617911-3.049475 39.886998z" fill="#453a2e"/><path d="m262.699551 56.052874-15.1221-26.836335-68.889939-45.216539-24.046182 16.337868z" fill="#99afbc"/><path d="m123.297194 87.4422-5.885114-4.218364-29.079415 3.551338 10.151507 8.546208z" fill="#937a72"/><path d="m87.556127 80.370726-10.339253-2.143397 23.812957-15.368669.815314 6.219663z" fill="#554a37"/><path d="m101.934531 18.629905.891509 30.445321 14.394662 14.110445-130.650379 9.80106z" fill="#dee4e2"/><path d="m118.51553 136.447728-55.117398 14.121354-22.257927-13.318508 82.537272-10.827737z" fill="#c6c5bd"/><path d="m-10.417255 103.338417 130.720527 9.983374-75.95326 9.358324-60.350012 2.116817z" fill="#cbbaaf"/><path d="m117.856987 74.18989 14.272439-16.222382-3.153222-13.356386-24.859404-15.918353z" fill="#887d75"/><path d="m174.004977 88.743889-42.483565-44.103323-2.749496 21.543361 31.251411 21.002528z" fill="#dee0dd"/><path d="m142.222954 142.563909-4.030221 14.535421 81.483579-4.881383-48.657808-26.677925z" fill="#a5a8a3"/><path d="m-16 167.37962 36.05753 17.62038-29.009013-30.107351 74.12063.331438z" fill="#737670"/><path d="m130.54109 76.724417-16.817393 2.559101-.349845-1.457154 16.048326 14.606999z" fill="#201b0d"/><path d="m160.721559 35.402907-69.279761-17.885504 28.042382 20.377529 1.720186-34.701818z" fill="#ced9dc"/><path d="m54.164964 175.432519 72.393252-14.985187.163722-12.435736-43.878145 10.907581z" fill="#a7a19a"/><path d="m81.944051 47.815247-6.485729 63.804999 15.687943-32.532773-57.999465 19.70069z" fill="#eaeae9"/><path d="m148.040086 142.016993-30.912315-5.256334 20.122314-21.631577 5.571511 19.604725z" fill="#12110d"/><path d="m235.186254 128.845933-17.646475-4.125465 40.713604-1.312129-1.197026 2.721016z" fill="#42474a"/><path d="m127.984854 96.05323-3.0718-4.260973-61.784219 10.050321 62.781955 19.776722z" fill="#dbd3cc"/><path d="m210.017163-8.484252 22.934234 15.458558 33.393834 25.002808 1.070906-32.695287z" fill="#70808a"/><path d="m150.431753 50.736009-26.69647-16.205387 13.367174 9.570933 20.171354 2.935896z" fill="#534d43"/><path d="m95.9144 61.354848 9.611962 20.861431-14.66549 2.973894 7.603131-4.352731z" fill="#423b2c"/><path d="m155.929897 25.756275 81.458901 60.096815-70.63343-14.974147-24.984304-41.341911z" fill="#d3dbdb"/><path d="m262.166844 64.048648-5.948672 59.735934-82.920124-11.326968 67.093965-6.759527z" fill="#9c9591"/><path d="m132.091144 131.379704-3.624789-54.122517 7.780401-11.34519-4.201873 16.03453z" fill="#594130"/><path d="m151.607146 152.181601-20.464503-71.628287 43.554748-32.200923-36.791901 55.793714z" fill="#e0ddd9"/><path d="m121.9012 68.891157 7.610845 2.043276-6.233109 7.033289-3.758354-3.319893z" fill="#e7eae6"/><path d="m47.343211 7.712209 169.850046 7.504598-211.411978-31.216807-20.069521 80.360385z" fill="#b4c1c6"/><path d="m161.301758 50.18885-52.955689 11.621403 13.455184-23.696362 1.619442 13.597248z" fill="#999591"/><path d="m135.565895 33.599096 18.111161 9.233219-26.219236-13.883311-3.103455 32.14847z" fill="#51483d"/><path d="m150.764614 148.045874-12.037232-25.811483 121.233552 12.323872-115.252901-6.974951z" fill="#8c928e"/><path d="m117.695967 72.424029-10.369331-21.092942-46.404418-30.186689-13.85756 17.95745z" fill="#d9e0df"/><path d="m129.311996 151.404132-22.76773-17.550874 26.423364 17.627795-1.37928-70.256711z" fill="#675040"/><path d="m-8.704239 148.417625 92.997344 9.710633-100.293105-34.915336 16.006055-3.437576z" fill="#aeaba4"/><path d="m271 146.072698v-11.222497 40.185096l-41.600232-7.300911z" fill="#545450"/><path d="m130.545339 81.920254-9.228982-3.865864-4.162742-17.696464.097141 25.69952z" fill="#373327"/><path d="m141.249257 130.740946-25.851064 6.863922 18.582346 4.223901 13.053713-2.097286z" fill="#060704"/><path d="m138.529876 123.9005 54.739352-1.109753-61.019491-28.238266 125.239117-22.229212z" fill="#d3c7c0"/><path d="m127.68246 107.286019-6.024654 25.958569-19.767001-26.546065-13.914502 9.731852z" fill="#bcb5ae"/><path d="m147.277811 140.00709-11.755411 15.854662 36.500514 7.091905 36.325634-34.755163z" fill="#a6a8a3"/><path d="m132.6307 114.107212.270758 28.030831 4.239444-33.403421-5.884813-23.624078z" fill="#14100b"/><path d="m264.317655 65.134518-54.055943 29.28382 24.145237-14.890509-27.878877-61.754803z" fill="#b4c0c0"/><path d="m101.182381 39.704996 43.085877 6.891437-26.879562-7.942638-11.359748-6.765191z" fill="#6b6052"/><path d="m102.113566 75.248353 20.831664 6.830918-5.379786-7.570153-31.510076 15.68205z" fill="#45402d"/><path d="m131.195669 108.730082.133337-15.999713-2.769006 13.236153-2.471639 25.304514z" fill="#0c0200"/><path d="m121.058028 142.135558-67.815383-10.47464-21.724717 16.999808 75.859971 1.805162z" fill="#c3c0b9"/><path d="m-10.03359 93.722238 117.192821 17.646741 12.569333-27.218625 6.409993 11.119478z" fill="#e0dbd7"/><path d="m2.477268 124.297461-18.477268 1.086138 27.891805 2.335815 39.302471-2.595641z" fill="#7e8179"/><path d="m95.424832 125.034713 23.22555 6.497969 1.743182-1.170746 5.574984-6.496317z" fill="#929992"/><path d="m92.292149 166.235326 19.608337 1.372232 21.698105-4.116417-41.089856 11.260668z" fill="#706c65"/><path d="m151.053038 38.498467-38.089181 12.229447 14.941131 10.103314 2.464677-21.155646z" fill="#78716b"/><path d="m99.912557 53.516514 15.904694-9.384123 5.181956 37.005738.506187-41.489269z" fill="#a8a6a1"/><path d="m115.632024 67.960363 3.633376-8.457909 5.065561-.660739 4.876924-9.287951z" fill="#462c1f"/><path d="m133.234619 20.904676-61.125736-4.443817 42.04849 31.782822-31.431365-7.65426z" fill="#d0d8d9"/><path d="m143.917961 68.352666 1.146928-12.103289-15.963465.358684-2.430817 9.703067z" fill="#dbe4e1"/><path d="m131.834648 71.407294-8.48856-6.45281 10.660944 4.877518-1.857668 10.670526z" fill="#3c3937"/><path d="m133.483766 30.682492 15.938259 19.533699-24.334574-14.366186-1.31645 6.738536z" fill="#3d3a30"/><path d="m99.605314 71.562371 11.275872 5.157175 1.882632-11.026906 6.316969 9.66691z" fill="#d4d6d1"/><path d="m125.583505 121.578523-34.6223 2.837369-60.757132-.239424 20.118851-8.786276z" fill="#d9c6bd"/><path d="m120.366355 9.501797 13.545281 14.309754-16.766857 15.228433-22.177933-26.228132z" fill="#c6d0d3"/><path d="m136.579735 71.564178-4.565308.188995-5.873413 23.213893.464208-11.677496z" fill="#2b2520"/><path d="m143.033357 36.444007-.936342-4.643128-22.89409 9.536141 18.848647-3.618917z" fill="#343227"/><path d="m198.615421 162.546511-41.115723 22.453489 60.605089-52.257678 34.228279 14.735331z" fill="#878984"/><path d="m137.354424 111.973031 74.956738 12.04936 22.965371-4.984033-78.919877-11.276877z" fill="#b8aea8"/><path d="m117.801208 166.678162 25.636955 18.321838-30.471855-29.086415-66.711775 7.104468z" fill="#a2a19b"/><path d="m124.735656 51.782392 23.696094-13.643191.78232 4.055942-14.741979-6.090344z" fill="#767471"/><path d="m107.034652 80.313641.546712 4.082031-10.318146 4.20517-30.14802 19.523948z" fill="#c3bab6"/><path d="m101.562082 72.673798-17.572903-43.100518-29.054169-8.012788 54.06377 54.752141z" fill="#d5dbdb"/><path d="m89.298933 89.01888 25.355393-.116682-31.837214-11.747989 26.888008 8.987639z" fill="#635246"/><path d="m95.829273 67.363195-5.3102-16.91255-67.055292 48.08621 22.681849-41.714062z" fill="#e7e9e6"/><path d="m127.221897 55.70754-9.893701 3.684408-41.667567-25.873201-53.203923 37.578z" fill="#dde2e0"/><path d="m126.219753 157.491404-1.45762 2.333522 19.678182-1.032708-16.555987-7.786759z" fill="#40372e"/><path d="m188.203631 70.1784-27.155973-15.3036-30.846202-9.35609 10.110242 1.19869z" fill="#c9cac8"/><path d="m81.083563 79.354685 10.915898-1.44184.477894 1.548341 5.557016-15.28671z" fill="#534635"/><path d="m185.936206 148.277451-46.536841-22.588853 9.992723 15.516499-10.063434 9.850505z" fill="#acaeaa"/><path d="m191.02703 14.14744 61.476056 52.022426-93.842231-44.668077-130.204792-37.501789z" fill="#b7c6cb"/><path d="m33.645489 82.72441 37.342415-12.28837 15.642276 13.291388 1.562502 13.393455z" fill="#ebebeb"/><path d="m97.006114 73.704639-9.015157 8.023667-.234802 3.281506 10.077248-9.658852z" fill="#baa9a2"/><path d="m34.534584 185-48.462027-68.219319 69.495936-1.780238-63.384702-4.239434z" fill="#a8a49d"/><path d="m122.577384 88.652234 14.056694-5.885755-4.886786 2.195005-14.565099-9.066097z" fill="#21221a"/><path d="m129.846408 107.448155-4.8435 21.729267-7.701146 8.281684 11.837396 11.31444z" fill="#16110c"/><path d="m102.543331 35.611808 20.859455 4.11346-4.892207.936949-7.824036-9.865169z" fill="#6a6659"/><path d="m134.436293 21.2982 23.423078 30.195342 61.330692 5.272006-31.210802-25.226082z" fill="#ccd5d8"/><path d="m138.197321 67.125056 29.157852-28.543297 24.16927 37.376668-59.488387 6.221161z" fill="#dde1df"/><path d="m236.555945 17.362365 34.444055 49.798324-50.457648 31.075116 33.88189-6.458535z" fill="#a6aaaa"/><path d="m38.754584 17.695521 90.553487 5.391726-136.574346 5.845785 7.642643 78.314655z" fill="#d1d6d3"/><path d="m112.2892 65.426616 13.937812-6.688802.00769 4.955067-26.561362-3.99899z" fill="#bcbcb7"/><path d="m128.785878 148.374539-15.827793-9.022233 14.24805 10.723351 92.171299-15.428528z" fill="#93948f"/><path d="m115.536953 67.68967 2.061456-7.318054 3.61985-3.120504-3.52092 5.839245z" fill="#4b3525"/><path d="m93.704374 136.113283 20.705146 2.066196 10.591838-9.205831-91.924201-2.152737z" fill="#b2b6b0"/><path d="m224.839134 164.998582-27.683005 5.840446 10.608398-13.39825 41.010009-25.48385z" fill="#7a7b76"/><path d="m230.439812 110.209298 40.560188 22.004488-22.832072-32.885207 22.832072 11.339369z" fill="#807e7b"/><path d="m132.736378 107.952472-2.268506 45.109886-13.655057 11.261541 9.921454-2.926381z" fill="#614c3d"/><path d="m128.168068 76.317098-5.704514-.885744-1.28457-3.139613 10.358414-2.553845z" fill="#e4e6e1"/><path d="m92.368802-9.738273 70.120313-6.261727 85.495654 50.716303-28.456922-10.264157z" fill="#9eb2bb"/><path d="m238.184204 99.468429-97.929097 1.734995 46.798825 7.104398 51.749524-5.787028z" fill="#d4cac2"/><path d="m11.39099 123.372172 48.334126-6.38951 65.110965-2.277826.817692 9.147525z" fill="#d8c8c0"/><path d="m123.247219 56.532677 29.132053-1.389826-12.914273-1.734609 6.659053-.791707z" fill="#9b9995"/><path d="m127.969607 141.195838 15.660851-4.177601-11.539669-36.021734 4.68022 25.36702z" fill="#0e0e0d"/><path d="m149.007795 157.823004-36.595894 27.176996 68.936456-19.88821-50.476353-2.918853z" fill="#8c8e89"/><path d="m83.986683 112.497318 28.249175-23.405483-13.204729 6.641226-115.031129 8.321322z" fill="#ddd7d2"/><path d="m131.594882 43.08923-5.119753 23.802214-.483126-15.266602-8.205975.185684z" fill="#6c6660"/><path d="m130.869772 98.800538-.182066 13.10266-3.327315 34.845544-.734767-34.684682z" fill="#160e06"/><path d="m139.555993 42.555841 26.985363-25.398675-60.141614-10.803838 43.188602 30.5749z" fill="#c1ced2"/><path d="m85.712311 170.372489 6.517309-16.049062 31.353242-11.821343 2.692371.679642z" fill="#acaaa4"/><path d="m127.018543 169.530423-54.299712 14.084402-3.07513-33.105631-18.182619 17.106948z" fill="#a3a29c"/><path d="m121.963732 84.825181-.575866 6.759738-8.90472-7.527317-37.552178 6.924994z" fill="#aba09a"/><path d="m227.480343 145.476224-23.46119-10.777495-23.243262-8.252317 4.37125 32.712874z" fill="#979894"/><path d="m89.381125 87.740175 17.464308-20.950915.981734-.127874.163417 2.749968z" fill="#6e6352"/><path d="m109.448264 76.959988 9.919127-1.301359-2.685029 6.608838-7.260737-8.009473z" fill="#4d4f41"/><path d="m123.889494 88.857957 6.046164-6.825351-10.369642.783563-3.197227-18.500729z" fill="#1a130a"/><path d="m101.085315 87.858292-2.239697 7.233361-2.346365-15.783487-8.146181 4.507025z" fill="#61523f"/><path d="m220.157891 87.308469 24.392642-12.574318-16.917428-26.221734-42.849668-27.32887z" fill="#c6cdcc"/><path d="m111.542226 71.013484.157697-3.0437-19.586757 3.60915 12.169039-.641191z" fill="#736d60"/><path d="m114.947826 158.375901-13.526709-1.640222-3.315085 8.70825 49.343066-24.321887z" fill="#878882"/><path d="m148.989674 155.013683 21.829295-4.155939-12.379457-22.806385-21.344034 24.094777z" fill="#aeafaa"/><path d="m103.833117 48.780479 4.803538 2.412764 2.523949-22.311473 2.238305 18.970055z" fill="#89817c"/><path d="m130.741853 163.406108-22.203401 8.2525 13.181445-3.877622 14.855349 1.605761z" fill="#5f5851"/><path d="m121.163221 115.05838-130.166664-1.838759 130.451703-4.726087 5.63284 2.668326z" fill="#bebcb7"/><path d="m104.721142 73.475143-2.536575-1.99877 20.205773.163864-15.915668 3.658389z" fill="#d1d0cc"/><path d="m133.165227 84.355077-4.812958-2.441599-17.530223 1.229929-2.499153-1.660179z" fill="#1b1a12"/><path d="m128.69933 53.225907 24.84922-.643767-25.819896-2.915678-17.122478-12.043502z" fill="#a2a9a8"/><path d="m122.124217 86.750375 4.874463 6.683933-5.334597 15.09554-28.029466-.637278z" fill="#dbd3cc"/><path d="m133.285726 30.398162-4.035222-14.986238-3.125094 19.324284-102.326531-19.871481z" fill="#cad2d3"/><path d="m123.397518 140.066546 4.472423-11.914138-5.481767 5.569826-11.343956 6.122112z" fill="#100a05"/><path d="m102.815016 82.99809-3.505653-11.354173-5.540101 15.460948-3.3997.186715z" fill="#3d2f1f"/><path d="m131.783891 109.423729-7.600951 60.373044 6.28506-41.361577 1.043265-1.861094z" fill="#684f3f"/><path d="m140.67073 43.69967-27.937681-3.906263 23.551585-7.973945-10.436289 10.105505z" fill="#473e2e"/><path d="m131.564838 113.799326.310924 26.616242-1.484884-26.688547 70.407949 7.147734z" fill="#a38b7d"/><path d="m112.411292 39.402867 3.374198-3.690012-1.523845 18.463628 3.49595.71456z" fill="#6c5d53"/><path d="m124.980934 38.536072-2.490202-6.053513.80909 17.3687-4.519403-6.452531z" fill="#959591"/><path d="m81.53494 11.836668-85.001188 24.690908-12.533752-18.649089 110.744056-13.745415z" fill="#c4cacb"/><path d="m45.127199 156.332375 6.496447-1.47162-67.623646 10.522849 73.570757-7.964019z" fill="#71746e"/><path d="m10.15719 158.68007 22.737816-30.457148-41.889574 6.263681 45.879816 44.575958z" fill="#a4a5a0"/><path d="m35.921661 166.535896 9.30714-3.096327-22.311074-1.004376-38.917727 12.516622z" fill="#858680"/><path d="m138.083121 78.896292-6.261594 8.481535 28.109263 18.019274 26.318423-25.834682z" fill="#dfd7d3"/><path d="m44.973043 64.050158 39.558546 9.409446 1.879683-20.834109 23.178698 10.824117z" fill="#e3e5e2"/><path d="m133.743861 98.271744-.290594-9.062889-4.129074 12.716225-1.474709-8.560409z" fill="#3b200e"/><path d="m165.747469 21.61245 48.605494 33.687746-49.228736-13.70322-20.881763 2.294787z" fill="#cad3d6"/><path d="m132.855393 168.772982-11.73584-7.74917 7.73976 8.686409-20.306046 5.697283z" fill="#42352c"/><path d="m125.300144 165.365316-14.389083-8.225436-1.183739 2.809984-23.266826 6.088961z" fill="#aca7a1"/><path d="m271 119.580846-22.837616 4.98314-15.456144.088295 29.235542 4.963549z" fill="#474d4e"/><path d="m89.292686 94.873429 13.765552-12.379887 18.316097-2.758766-11.588-1.969709z" fill="#858077"/><path d="m99.991318 63.782083-4.060779 8.051664-8.503576-2.363582-6.778758 7.197131z" fill="#4a4532"/><path d="m131.355109 33.185473-8.016679 27.2516 5.041699-7.862027-.819431 5.489617z" fill="#523f33"/><path d="m236.601485 74.4296 10.094458-24.468476 9.570232 22.580973-41.468461 41.512631z" fill="#b8b8b3"/><path d="m125.601098 82.942841-20.460861-7.881021-12.847837 7.598429 23.431408-6.575351z" fill="#3e3f2d"/><path d="m250.856025 111.439924 20.143975-37.533306-8.622271 8.195731-19.064615 11.442618z" fill="#9e9a95"/><path d="m135.711252 33.160193-1.584015 10.000181-22.523237 4.201301 28.794268-8.24593z" fill="#777673"/><path d="m12.332608 170.143393 78.956331-9.450809 1.238313-13.447994-14.542049 18.082017z" fill="#989993"/><path d="m126.271928 63.93954 3.345338-12.372157-17.500117 18.325787 22.266579-22.855946z" fill="#827a75"/><path d="m137.506002 111.995186-2.954551-23.540981 68.331917 17.157824-28.098936-1.093216z" fill="#d6cdc6"/><path d="m90.253332 32.320921-77.139875 7.605974 71.583343-21.772672 35.714951 43.264864z" fill="#d1d7d9"/><path d="m115.440064 71.700286-23.181689 6.882168 25.029204-24.613227-24.622701 23.396748z" fill="#b8b7b3"/><path d="m80.944679 81.105988 11.73638-4.669589-8.902326-6.540095 10.955607-1.943835z" fill="#5d5341"/><path d="m57.378613 2.850033-73.378613 9.31249 41.858802-28.162523 101.378209 18.131544z" fill="#aebbc0"/><path d="m26.227706 98.814756-42.227706-4.772052 38.206911-44.440944 4.770656 43.388347z" fill="#e1dfdc"/><path d="m255.86608 137.45309-39.696122 6.264522 54.830042-17.436105-56.031072 6.08594z" fill="#787e78"/><path d="m116.662848 34.756865-14.535133 6.2347 4.284219-10.621732 2.081588 1.99256z" fill="#726d60"/><path d="m137.582436 38.319096-2.616221 7.580273 8.369172-8.430555-2.70179-6.785138z" fill="#3d3f36"/><path d="m133.571643 87.353059 3.355143-.420543-10.134313 1.489897 3.825056 3.869687z" fill="#8c6146"/><path d="m125.625121 41.738023 7.254165 1.141999-4.11514-.603598 5.101924-11.874351z" fill="#2e2818"/><path d="m129.809271 89.622431-3.974647-.908298-4.212058-4.200719 9.706799-1.215058z" fill="#130c09"/><path d="m-12.929556 166.959116 5.638094-12.078971-8.708538 8.228302 29.439747-1.22182z" fill="#545652"/><path d="m88.093701 93.314275-104.093701 4.847763 101.645842 8.988657 13.252528-22.129873z" fill="#dfdad6"/><path d="m177.407948 123.988682-17.04135.099638-26.55555.669467 106.619071.970506z" fill="#6e706e"/><path d="m271 149.633788-67.395551 9.006713 35.038894 2.079931-63.110857 24.279568z" fill="#6c6e69"/><path d="m111.278059 82.100521-8.607817-5.958924-6.127011-7.167696 5.265784 13.000465z" fill="#3d3a2d"/><path d="m246.17606 7.351301-46.969418-23.351301 26.593326 24.487794 45.200032 29.142291z" fill="#83949e"/><path d="m100.01981 65.195746-4.952808-.130122 6.77443 18.540568-5.055663-19.582926z" fill="#404132"/><path d="m151.915166 47.038106-32.126668-12.643692 25.924037 13.371757 6.531942 2.017782z" fill="#4f4a3f"/><path d="m117.444286 75.289475-5.836527-16.789695-.054437 18.101907-1.957912-3.729644z" fill="#d5d8d3"/><path d="m120.890023 49.628969 2.254805-5.613458-6.624264-21.860462 4.720202 4.14947z" fill="#a1a5a4"/><path d="m78.053977 153.62923-21.101614-3.868189 8.791604-20.028896 56.08707 3.05269z" fill="#c0bfba"/><path d="m222.187435 110.254198 16.79439 13.473716-38.49271.328458 27.225359-20.513744z" fill="#a19995"/><path d="m124.232192 161.051065 11.383012 6.540953-22.22076-21.611157 17.58374 16.559024z" fill="#8a8780"/><path d="m128.699335 68.026058-4.347133-1.523908-4.743592 2.388186 6.082864-1.076563z" fill="#5c463d"/><path d="m253.451108 29.606279-135.973906-45.606279 83.239669 21.776625 65.360277 52.787368z" fill="#98a8b0"/><path d="m105.885959 161.069981-73.286223-7.826532 5.904837 3.21514-.149977-8.664056z" fill="#a4a49f"/><path d="m253.528239 106.464678-23.213523 2.272546 33.715925-35.405925-39.236554 22.244463z" fill="#b2aaa4"/><path d="m109.418828 81.693804-4.32077 11.650932-16.077222-5.26204 12.121947 7.563238z" fill="#998983"/><path d="m139.910258 153.191101-11.959537 5.627526 5.948957-9.586143 3.224194 2.752629z" fill="#42362c"/><path d="m124.001284 14.275391-10.023255 21.954875-2.170033-5.275923-66.619139-3.74183z" fill="#ced6d9"/><path d="m129.394237 68.507928-6.223644 7.779889 43.42833-24.557443-47.745437 27.15616z" fill="#c5cac6"/><path d="m11.932475 154.559639-14.171117 1.752703-13.609688 8.162025 31.105974-9.690948z" fill="#676b65"/><path d="m120.651694 87.768645-30.602476-.715943-3.17748-4.094165 18.351887 7.23924z" fill="#6c5a4c"/><path d="m12.114177-16 163.518913 22.466805 61.671698 33.621878-86.637568-29.498115z" fill="#afc0c7"/><path d="m-9.721871 78.975669-6.278129 38.415986 44.642148-18.839672-32.498392-1.001191z" fill="#ddcfc5"/><path d="m126.517748 118.375503 3.602517-25.034657-.823123 30.848913-1.146656 13.123197z" fill="#130c06"/><path d="m113.008662 85.596639-5.254576-17.58649-15.797205.642717 17.044436.486608z" fill="#6a655b"/><path d="m117.248145 63.321235-29.373783-29.304525-57.828423 31.88301 9.001292-30.487161z" fill="#dae2df"/><path d="m109.89405 38.983177 21.870554-15.333786-2.896672.58443-8.479539 10.772643z" fill="#b0b6b5"/><path d="m120.652029 76.901266 10.993004-4.654857-11.794188-.452609-.661909-16.683154z" fill="#d2cdc6"/><path d="m123.864774 163.725924-1.072121-1.707301 15.65305-5.303505-7.521889-.621635z" fill="#393027"/><path d="m136.498859 48.526401-4.627848-5.031943 20.089259 11.537985-22.407892-8.258341z" fill="#9d9c9b"/><path d="m41.862879 30.795638 30.017457-.746961 35.788249 4.336538-89.711546 8.849535z" fill="#d5dbdc"/><path d="m127.004976 48.351092-45.678913.857138 44.194728-.598208 1.307086-7.902429z" fill="#adb2ad"/><path d="m88.661529 80.576889-3.180198 9.374483-21.345092 3.387302-31.113635-8.575278z" fill="#e9eaea"/><path d="m121.499999 67.159519-39.925838-35.32122 38.399102 34.197583 12.953942-18.29496z" fill="#c2c4c2"/><path d="m127.628831 67.533133-4.817217.396516 2.144128-3.14839 9.009412 7.115841z" fill="#493c35"/><path d="m106.680469 65.147147-.199635-10.714184-6.990397 17.471889 12.110167-10.493216z" fill="#cdcfcb"/><path d="m86.2861 90.320342 13.809727-5.381707-9.178373-5.493344 7.071626 3.768935z" fill="#7c6656"/><path d="m122.354477 148.033172 8.114538 10.533351-5.844879-9.28246 12.196756-5.842872z" fill="#4a3e34"/><path d="m198.295241 121.914377-15.957108 1.602191-42.939585-.876571-.504683-11.914782z" fill="#c9b9b1"/><path d="m109.048132 50.927609 2.372416-7.380145-8.369395-5.269987 6.450445-4.358321z" fill="#776255"/><path d="m182.641472 129.395988-26.240198 19.507015-13.261862-16.161847-1.748493-5.777924z" fill="#a7aba7"/><path d="m254.8828 10.441758-24.919559-17.837356 33.282549-8.604402-3.329708 41.258721z" fill="#708088"/><path d="m185.8042 50.110259-8.254059 5.582211-46.968245 10.237559-1.693604-8.77026z" fill="#d6dfdd"/><path d="m69.947162 140.588648-9.276686-4.11216 39.144823-.986329 25.687 17.242323z" fill="#c3c2bc"/><path d="m126.32001 109.801731-65.684393 1.838516 65.194135-20.705597 1.910328 14.796012z" fill="#d8d1cb"/><path d="m-4.131473 162.039846-1.538929-8.358215-6.432189 5.920922 33.771378-.657831z" fill="#a29f98"/><path d="m110.878808 93.293932-28.060478 15.413609 28.356512-20.519058-1.672385 31.250679z" fill="#d3cbc6"/><path d="m21.75056 102.631444 70.681698-9.26736 20.343236 2.811272-12.261776 3.327379z" fill="#e2dfdb"/><path d="m121.658971 92.143041 11.036752 13.036321-3.188976-20.823316 2.070329 19.176391z" fill="#866753"/><path d="m123.077396 39.995745 19.479536-6.096143 2.447466 4.125886-10.960834-6.590107z" fill="#2a2b1d"/><path d="m-3.955633 136.51163 8.625894 2.83136 20.645387-13.158063 72.115541.606114z" fill="#a8ada7"/><path d="m102.387988 93.216542 14.797769-1.744373 1.896188-4.293531-9.946694 8.436877z" fill="#b3a29e"/><path d="m97.955105 75.606981-38.671099 19.647893 35.605481-18.338341.701403 3.438149z" fill="#c6c0bd"/><path d="m173.092405 111.124192 78.233152-7.770435-58.654795 2.561293-44.277518 1.393707z" fill="#bfbbb5"/><path d="m195.399113 11.622387 43.754396 42.027806 30.892249 7.943182.954242 1.294012z" fill="#a9b8bf"/><path d="m114.329704 55.98252 2.25527 7.257184.560034-1.294517 2.378981 22.10397z" fill="#453a2d"/><path d="m144.043982 37.083808 65.115644 18.507106-54.88984-6.083536-.801281-28.546908z" fill="#d1d8db"/><path d="m25.91 116.557868-26.038295.655858-7.319587 6.458683 47.669578.233187z" fill="#ceb7ac"/><path d="m125.43083 128.333215-43.649468-2.359349-13.796431-1.845064 43.169112.024695z" fill="#959b94"/><path d="m140.937767 149.80954-6.073554-6.598379.869737-2.946282-18.146389-3.040381z" fill="#2a2721"/><path d="m123.868326 24.423257 69.96077 24.861836-101.175609-39.808305 37.218763 25.911915z" fill="#c6d0d2"/><path d="m139.590606 142.479464 21.851047-4.892916-18.54252 9.407012 28.512633 6.084076z" fill="#a0a39e"/><path d="m132.827864 91.103471-.822504 31.793861.378418 22.799692 8.865505-13.411084z" fill="#151412"/><path d="m121.566519 149.583 22.031659 32.374524-24.47081-35.50699 15.598657 3.548935z" fill="#7b7871"/><path d="m113.573716 168.539347 3.746512-3.253691-21.399384 5.319581-4.805526-3.710919z" fill="#797873"/><path d="m132.880352 122.145371-.217743 16.746714 12.121671-.821967-4.417781-9.629317z" fill="#070807"/><path d="m115.091841 61.608436 18.557219-6.544534-3.574646-.078939 1.609444-1.860105z" fill="#785f51"/><path d="m80.854215 167.331513-48.706949-10.648733 40.489292 7.420599 6.183412-3.477734z" fill="#898c87"/><path d="m87.205337 79.225966 15.805377 10.141258-2.07814.097744-19.369644-13.811332z" fill="#664e3e"/><path d="m139.159084 43.130076-1.600187-8.581094-3.322558-1.467397 2.296281-4.630505z" fill="#5a5c4f"/><path d="m187.416056 152.601381 71.88367-11.380387-155.359582 39.309167 108.317748-15.043069z" fill="#8b8b86"/><path d="m194.566869 161.247786-10.404057-31.634708-31.252994 41.3307 24.787543-10.85746z" fill="#a09f9a"/><path d="m104.42856 37.639571-5.044285-1.950217 37.462238 7.289672-26.466596-5.109107z" fill="#696050"/><path d="m109.736885 66.014118 8.275925-4.60445-32.380941-8.929925 25.943341 4.836047z" fill="#d5dad7"/><path d="m136.850538 50.365328-1.156925 3.416628 16.133701-2.889481.053019 6.958977z" fill="#bbc8c9"/><path d="m114.545466 80.721817-5.417683-.628587-.761147-5.615574 1.898811 6.357905z" fill="#a2a5a2"/><path d="m1.62874 176.265772 5.118989 8.734228 66.742002-30.030271-39.070909 13.023796z" fill="#a5a59e"/><path d="m129.828709 61.731531-.570818-2.637189-6.424219 20.53926-2.109522-3.598157z" fill="#c7cac4"/><path d="m215.380739 82.055088-21.670338 5.684355 1.77607-43.954785 28.638262 25.936724z" fill="#d1d4d0"/><path d="m193.074576 34.979619-55.481539 24.652804-3.623491 37.104495 13.865671-37.950965z" fill="#d7dcda"/><path d="m-16 126.927028v-2.366135l33.866135-.560229 15.524752 1.339324z" fill="#81817a"/><path d="m109.24249 185-61.252219-7.002104 49.355836-12.684924-38.398239 1.578737z" fill="#aca69f"/><path d="m103.917342 77.770003-7.927646 6.22465 6.978626-2.118083.908896 2.77207z" fill="#322316"/><path d="m6.156472 167.394963 32.033405 13.389819-46.913153-15.95318-2.920052 13.073511z" fill="#757670"/><path d="m157.423625 126.959471 88.436806-2.051031-46.960354-.804755 1.98297 4.05086z" fill="#6f7573"/><path d="m125.918189 131.314658 4.172358-34.93703-.096162 29.381043-5.803515 11.926522z" fill="#060706"/><path d="m108.522252 74.014061-5.913763.590212 8.086123-22.711594-20.673431-6.186956z" fill="#d5dad6"/><path d="m104.891802 50.709239-6.395785-6.455214 23.239963 10.7777-13.461111-5.746585z" fill="#9a948f"/><path d="m26.525957 142.903024-21.185396 5.775144 28.005857 7.192681-5.663522 3.18167z" fill="#a9a7a0"/><path d="m131.282138 99.01219.775313 25.535209-1.88249-33.506971.749945.161364z" fill="#895a3c"/><path d="m117.005637 127.721478-15.792873 13.021918 21.724997-9.49535-.416065-5.694365z" fill="#b1b4b1"/><path d="m134.78266 160.85878-15.497983-2.428203 12.06523 3.906008-63.813132 22.663415z" fill="#7e7b74"/><path d="m109.176016 55.881659 12.026855-.507849-12.01909-2.447604-.299549-25.314324z" fill="#877f78"/><path d="m102.566834 89.12117-.417558 14.250685-.583926-11.59385-6.630914.611952z" fill="#c3b8b2"/><path d="m107.704077 67.287753-2.09188.450837-.758177 1.20525 4.409179.388067z" fill="#5c5744"/><path d="m187.779579 78.013445-1.472645-37.381692-40.980916 5.073719 12.723741-9.076914z" fill="#d3d9d9"/><path d="m24.122118 150.981899-12.459159.01909 42.57986-23.274499.449758 10.970277z" fill="#b8b6b0"/><path d="m120.69121 6.189665 5.649246 31.543227 1.695122-26.382998-117.549162 3.792864z" fill="#bfcbce"/><path d="m121.797995 51.156643-19.554841-2.103501 16.027612 1.217992-5.988862-3.362172z" fill="#7a776d"/><path d="m127.366169 81.276759-15.538814-.267745 9.15995 3.194033-4.88837-6.952747z" fill="#2e2f1b"/><path d="m94.208154 93.695893 3.924697-9.501179-.252431 7.897698-5.954108-.606153z" fill="#b09e97"/><path d="m108.884099 48.616355 11.240317 2.739172 3.415158-2.211202.899425 1.817198z" fill="#686157"/><path d="m64.619253 54.145471-31.399899 37.594821 48.437711-14.642443-2.5015 11.124831z" fill="#e8e8e8"/><path d="m99.201406 26.398024.384687 11.266548 11.222356 10.222436-43.617367-13.216496z" fill="#d7dddd"/><path d="m197.720782 96.682342-84.472731-55.91966 17.439405 13.071665-3.719222-4.095788z" fill="#c3c4c1"/><path d="m150.324568 182.881629-55.084342 2.118371 41.073405-17.6825-10.473818-1.204157z" fill="#413c35"/><path d="m120.712731 87.386341-4.11021 4.533578-23.489185 8.785692 32.420039-4.222846z" fill="#e1dad4"/><path d="m135.571939 34.116161-12.45692 9.737683 1.274692-4.380525 7.689356-5.540758z" fill="#342c20"/><path d="m220.535771 102.706688-8.531696-.685413 14.890184 7.292108-58.470194 4.925382z" fill="#b1afaa"/></g></svg>