<svg height="680" width="1024" xmlns="http://www.w3.org/2000/svg"><path d="m0 0h1024v680h-1024z" fill="#8fadcd"/><g transform="matrix(4 0 0 4 2 2)"><g fill-opacity=".501961"><ellipse fill="#4e1900" rx="1" ry="1" transform="matrix(17.11168278 .99591763 -3.58876361 61.66150941 194.974811 94.090241)"/><ellipse fill="#fff6f1" rx="1" ry="1" transform="matrix(-19.60731931 -44.82491649 93.62483837 -40.95338586 80.870535 150.627037)"/><ellipse fill="#3479bc" rx="1" ry="1" transform="matrix(-34.74820495 25.72242293 -36.26404903 -48.98879906 229.64685 31.433863)"/><ellipse fill="#5ba9f9" rx="1" ry="1" transform="matrix(14.8859103 39.8259632 -115.50143413 43.17143515 86.296626 61.399513)"/><ellipse fill="#f1d7c0" rx="1" ry="1" transform="matrix(25.51305083 1.16691402 -1.54581557 33.79723827 232.228858 137.439018)"/><ellipse fill="#3e0900" rx="1" ry="1" transform="matrix(1.97216815 -30.46299487 1.73495699 .11232077 165.610872 128.044974)"/><path d="m194.929602 85.052106-21.500598 88.642123 6.785559-126.023926 40.753617-5.420664z" fill="#88462e"/><path d="m204.523684 174.224435 2.404815-33.34815-6.015326-54.307901-9.893179-11.439734z" fill="#2d1800"/><ellipse fill="#e9e5da" rx="1" ry="1" transform="matrix(-9.36673241 49.61307556 -3.34221393 -.63099542 183.061687 160.559264)"/><path d="m188 180 15-42-12-13z" fill="#423018"/><path d="m162 137h5v33h-5z" fill="#3f0f00"/><ellipse fill="#847060" rx="1" ry="1" transform="matrix(-17.18077279 -52.18225828 3.72268705 -1.22567789 251.786343 168.957404)"/><path d="m-.5-.5h1v1h-1z" fill="#6baee4" transform="matrix(16.92912396 -8.6258195 15.43567699 30.29422182 211 84)"/><path d="m209 101h22v55h-22z" fill="#e1e4ed"/><path d="m-.5-.5h1v1h-1z" fill="#302d23" transform="matrix(-13.30634821 62.60144645 -7.82518081 -1.66329353 185 113)"/><path d="m174 69h23v10h-23z" fill="#ff6834"/><ellipse fill="#6497cb" rx="1" ry="1" transform="matrix(27.87086598 20.18100535 -36.25992412 50.07656795 7.25947 67.300339)"/><ellipse cx="10" cy="158" fill="#dad8da" rx="152" ry="34"/><path d="m43 98h119v55h-119z" fill="#d5dcec"/><ellipse fill="#68401c" rx="1" ry="1" transform="matrix(.9954792 .09497983 -24.21985706 253.84719523 214.307065 39.218438)"/><path d="m195 146h6v24h-6z" fill="#f7f0ec"/><path d="m197 117-12 15 11 3z" fill="#d3dbde"/><path d="m-.5-.5h1v1h-1z" fill="#73ade1" transform="matrix(7.8664633 21.61293028 -11.27631145 4.10424172 196 49)"/><path d="m68 34h98v62h-98z" fill="#6fb7fc"/><path d="m-.5-.5h1v1h-1z" fill="#5f472d" transform="matrix(-8.04337666 65.50804601 -3.97018461 -.48747737 207 16)"/><ellipse cx="168" cy="72" fill="#6e5644" rx="2" ry="31"/><path d="m169 93h9v34h-9z" fill="#dbeeff"/><path d="m182 48-5 34 15-31z" fill="#f64632"/><path d="m168 142h21v28h-21z" fill="#d4c7bb"/><ellipse fill="#9eb3d1" rx="1" ry="1" transform="matrix(-42.12804739 13.03065921 -2.9470051 -9.52765078 48.279734 39.336086)"/><ellipse fill="#7b330e" rx="1" ry="1" transform="matrix(4.28866982 -6.16407587 11.58587566 8.06089936 188.822697 85.864967)"/><path d="m212 50-19 20 19-10z" fill="#640000"/><path d="m169 35h3v23h-3z" fill="#7b4c25"/><path d="m191 100 19 20-5 9z" fill="#0a1e20"/><path d="m-.5-.5h1v1h-1z" fill="#b1b9bf" transform="matrix(-109.94403663 -40.01635677 10.2606043 -28.19077862 6 164)"/><path d="m205 76h2v30h-2z"/><ellipse fill="#452b1c" rx="1" ry="1" transform="matrix(.97535778 -.2206291 5.80984143 25.68416371 245.197284 157.830513)"/><path d="m205 130-13 3 2 17z" fill="#060909"/><ellipse cx="241" cy="30" fill="#5996d1" rx="26" ry="74"/><path d="m226.012807 74.185644 10.216759 47.94793-9.895144-29.875225-3.853756-25.57711z" fill="#6e686f"/><path d="m187 0h3v56h-3z" fill="#7f6256"/><ellipse cx="15" cy="118" fill="#69a5df" rx="45" ry="6"/><ellipse fill="#b4cbee" rx="1" ry="1" transform="matrix(-48.47746718 9.2142656 -1.81476127 -9.5476985 119.186382 101.687796)"/><path d="m180 115h2v55h-2z" fill="#2f312d"/><path d="m190.984511 99.660477-36.378687.682808 19.809375-.503644 26.143259-19.688957z" fill="#b58068"/><path d="m201 68h4v35h-4z" fill="#70c2ff"/><path d="m192 94h2v76h-2z" fill="#2f1d0a"/><path d="m169 69h7v30h-7z" fill="#67baff"/><path d="m188 57 11 12-13-5z" fill="#0e060a"/><path d="m234 108 19 70 14-80z" fill="#beb9b6"/><path d="m138 41 71-4-41-11z" fill="#9ab8dc"/><ellipse fill="#68a2e1" rx="1" ry="1" transform="matrix(-36.10491401 -6.3964605 5.02975179 -28.39050688 152.633879 0)"/><ellipse fill="#797476" rx="1" ry="1" transform="matrix(.98039352 -.19704963 10.82260727 53.846405 234.285226 101.611468)"/><ellipse fill="#e4deda" rx="1" ry="1" transform="matrix(-4.87008669 21.6653626 -2.33981412 -.52595924 171.709564 146.205917)"/><path d="m194 117h4v14h-4z" fill="#f0fbff"/><path d="m178.421182 127.783175-3.806084 50.36713.078112-32.908572 20.513857-52.37011z" fill="#3e3c39"/><path d="m202.039261 144.472922 6.87839-20.937492 1.406291-8.032677-15.797911-28.76966z" fill="#323835"/><ellipse cx="180" cy="71" fill="#ff7450" rx="6" ry="7"/><ellipse cx="33" cy="26" fill="#5896d5" rx="29" ry="7"/><path d="m178 81h15v4h-15z"/><ellipse fill="#5a9fde" rx="1" ry="1" transform="matrix(-55.5613984 -3.080478 1.20086235 -21.65949297 7.802897 72.114566)"/><ellipse fill="#816e5b" rx="1" ry="1" transform="matrix(-5.40133354 62.87958106 -.99633092 -.08558447 166.451755 100.428448)"/><path d="m-.5-.5h1v1h-1z" fill="#4a0000" transform="matrix(.9961947 .08715574 -2.26604931 25.90106215 206 55)"/><ellipse fill="#9eb6d6" rx="1" ry="1" transform="matrix(21.13545489 4.4243724 -1.30385643 6.22858934 33.343837 102.149016)"/><path d="m-.5-.5h1v1h-1z" fill="#807169" transform="matrix(-12.97501169 -66.75064847 .98162718 -.190809 246 107)"/><path d="m172.83473 67.888311 17.322989-9.176287-167.342469 26.852092 115.429669-82.713854z" fill="#6aabec"/><path d="m253.257075 157.954716 4.355505 27.045284h3.99277l-12.049754-51.652851z" fill="#85776b"/><path d="m-.5-.5h1v1h-1z" fill="#68461d" transform="matrix(-5.47520628 34.56909192 -.98768834 -.15643447 214 47)"/><path d="m203 141h2v29h-2z" fill="#4b2108"/><path d="m207.017356 104.737433 4.375015-10.646937 22.053483 21.366226 17.013008 69.543278z" fill="#ced3dc"/><path d="m211.290368 62.662942-3.549464-2.981162-7.679199-19.591884 6.774441 6.878067z" fill="#190f03"/><path d="m195.914498 148.634578-2.229729 7.777384 11.221978-21.435755-5.525546 50.023793z" fill="#b6aaa5"/><path d="m250 102h6v31h-6z" fill="#d6dce6"/><path d="m198 62-4 14-3-8z" fill="#b6af7b"/><path d="m205.270512 126.564078-7.823076 24.047557 2.372-33.76157 6.066168 12.146159z" fill="#0e0c08"/><ellipse fill="#87acdc" rx="1" ry="1" transform="matrix(-.39736274 -9.91981852 40.70211878 -1.6304235 94.515429 15.041789)"/><path d="m170 41h18v2h-18z" fill="#634f4b"/><path d="m177 87h5v9h-5z" fill="#bdd57a"/><ellipse fill="#8a8d90" rx="1" ry="1" transform="matrix(-9.03057063 -58.09016605 .98813113 -.15361271 0 139.73018)"/><ellipse cx="186" cy="55" fill="#e9362c" rx="7" ry="7"/><path d="m195 147h3v17h-3z" fill="#dbe9f7"/><path d="m194 61h16v3h-16z" fill="#df2f24"/><path d="m161 159h4v11h-4z" fill="#653a0c"/><path d="m206 150h7v20h-7z" fill="#c0ad9a"/><ellipse fill="#66a9ea" rx="1" ry="1" transform="matrix(-2.19081214 27.62128991 -4.37508566 -.3470146 219.129972 56.623089)"/><path d="m178.166827 48.035214 17.942458 2.720491-7.17866-18.673698 15.176112 7.479739z" fill="#6aa4df"/><path d="m176 86h3v39h-3z" fill="#a6c9e9"/></g><path d="m257.05837 185q-7.00785 0-33.087136-111.538181" fill="none" stroke="#603c29" stroke-opacity=".501961" stroke-width=".5"/><path d="m188 156h6v14h-6z" fill="#523521" fill-opacity=".501961"/><path d="m250.706931 162.157138-7.901501-41.934813-11.469208-60.940058 12.186998 57.92974z" fill="#846e63" fill-opacity=".501961"/><ellipse fill="#ced8e6" fill-opacity=".501961" rx="1" ry="1" transform="matrix(2.92630183 .31990506 -2.40887757 22.0349841 186.308903 152.097335)"/><ellipse cx="190" cy="64" fill="#060000" fill-opacity=".501961" rx="4" ry="4"/><ellipse cx="109" cy="131" fill="#dddfe5" fill-opacity=".501961" rx="54" ry="20"/><ellipse cx="178" cy="153" fill="#e0eaf2" fill-opacity=".501961" rx="2" ry="12"/><ellipse fill="#4787c5" fill-opacity=".501961" rx="1" ry="1" transform="matrix(-14.15301841 11.19929206 -58.82403125 -74.33841286 248.43235 5.863867)"/><path d="m152.171609 152.347702 6.432609 25.81147-19.519079-52.180276 7.661666 13.895185z" fill="#b4b2b0" fill-opacity=".501961"/><ellipse cx="202" cy="43" fill="#512810" fill-opacity=".501961" rx="12" ry="1"/><path d="m203.416259 33.673593 10.798435-49.673593-4.904975 53.870847 3.472083 19.707578z" fill="#638fb6" fill-opacity=".501961"/><path d="m186 86h2v13h-2z" fill="#e9b277" fill-opacity=".501961"/><ellipse cx="180" cy="139" fill-opacity=".501961" rx="4" ry="4"/><path d="m179 120 4-41 6 24z" fill="#40554e" fill-opacity=".501961"/><ellipse cx="25" cy="143" fill="#d1d4d9" fill-opacity=".501961" rx="22" ry="22"/><path d="m196 147h4l-1-2z" fill="#100000" fill-opacity=".501961"/><path d="m-.5-.5h1v1h-1z" fill="#d2dce4" fill-opacity=".501961" transform="matrix(7.64833585 -33.1285822 .97437006 .22495105 188 128)"/><ellipse cx="3" cy="92" fill="#5a96ce" fill-opacity=".501961" rx="13" ry="35"/><path d="m93 53h75v28h-75z" fill="#6db1f4" fill-opacity=".501961"/><path d="m202 93 5 20-7 6z" fill="#406978" fill-opacity=".501961"/><ellipse cx="26" cy="38" fill="#96abc8" fill-opacity=".501961" rx="40" ry="8"/><path d="m182 108h5v22h-5z" fill="#1c1d15" fill-opacity=".501961"/><path d="m-.5-.5h1v1h-1z" fill="#d8e5f3" fill-opacity=".501961" transform="matrix(-14.39686748 -62.35968415 .97437006 -.22495105 244 138)"/><path d="m142.376651 81.925638-88.5729 37.412631 93.459248-20.543955 19.589726-2.697804z" fill="#b3caec" fill-opacity=".501961"/><ellipse cx="197" cy="104" fill="#000100" fill-opacity=".501961" rx="3" ry="8"/><ellipse cx="192" cy="115" fill="#bfc1bb" fill-opacity=".501961" rx="4" ry="4"/><ellipse cx="192" cy="151" fill="#181513" fill-opacity=".501961" rx="2" ry="13"/><path d="m-.5-.5h1v1h-1z" fill="#817e7e" fill-opacity=".501961" transform="matrix(-.81915204 .57357644 -10.89795229 -15.56388884 100 162)"/><path d="m142.436262 185-18.537733-33.001829 12.62848 33.001829h-9.010847z" fill="#92989d" fill-opacity=".501961"/><path d="m189 88-1 11-3-4z" fill="#e59767" fill-opacity=".501961"/><path d="m229 98h-19l6-46z" fill="#70b0f1" fill-opacity=".501961"/><ellipse cx="168" cy="145" fill="#573a26" fill-opacity=".501961" rx="8" ry="1"/><path d="m166 92h2v45h-2z" fill="#7b5c36" fill-opacity=".501961"/><path d="m172 52h8v1h-8z" fill="#5b230c" fill-opacity=".501961"/><path d="m206 0h2v55h-2z" fill="#6c5238" fill-opacity=".501961"/><path d="m177 77h6v12h-6z" fill="#5d4115" fill-opacity=".501961"/><ellipse cx="210" cy="9" fill="#5ba3ea" fill-opacity=".501961" rx="2" ry="44"/><path d="m157 143h4v27h-4z" fill="#e5e3e1" fill-opacity=".501961"/><path d="m159.300443 139.218461q31.333775-1.846134 34.198571.084586" fill="none" stroke="#5a4735" stroke-opacity=".501961" stroke-width=".5"/><path d="m-.5-.5h1v1h-1z" fill="#696167" fill-opacity=".501961" transform="matrix(-.9612617 .27563736 -6.06402183 -21.14775731 221 64)"/><path d="m-.5-.5h1v1h-1z" fill="#59341e" fill-opacity=".501961" transform="matrix(.97029573 -.2419219 22.98258008 92.178094 240 138)"/><path d="m-.5-.5h1v1h-1z" fill="#c0ccd9" fill-opacity=".501961" transform="matrix(-16.01997627 -37.74069899 23.01262134 -9.76827821 229 166)"/><path d="m-.5-.5h1v1h-1z" fill="#654934" fill-opacity=".501961" transform="matrix(-8.64980274 123.69794223 -1.9951281 -.13951295 204 157)"/><ellipse cx="191" cy="91" fill="#ba0c06" fill-opacity=".501961" rx="3" ry="5"/><path d="m166 150h7v20h-7z" fill="#d1d7db" fill-opacity=".501961"/><path d="m-.5-.5h1v1h-1z" fill="#78bbf7" fill-opacity=".501961" transform="matrix(6.10588785 31.41206987 -.98162718 .190809 202 86)"/><path d="m180 95-2 20 10-16z" fill="#4a6871" fill-opacity=".501961"/><path d="m203.190557 26.392097q-7.193654 78.79412-9.744234 83.79186" fill="none" stroke="#715937" stroke-opacity=".501961" stroke-width=".5"/><path d="m192.991303 99.338785-2.261047 43.720315 17.036236-142.941514-11.970782 75.841057z" fill="#715c46" fill-opacity=".501961"/><path d="m201.076435 70.453502-.634749-4.589994 7.455575-14.472095 5.071677 4.43984z" fill="#6a1612" fill-opacity=".501961"/><path d="m171 46h4v42h-4z" fill="#6cb1f9" fill-opacity=".501961"/><path d="m198.471198 61.822309 1.942256-30.150508 8.375224-42.530816-15.78308 10.348253z" fill="#5ea0e2" fill-opacity=".501961"/><ellipse fill="#95a3bf" fill-opacity=".501961" rx="1" ry="1" transform="matrix(3.23338727 14.7019587 -56.18165731 12.35597646 12.187535 5.054587)"/><path d="m244.929896 97.473056-5.994727-43.149835-2.848531-11.008743 4.073719 31.36156z" fill="#697688" fill-opacity=".501961"/><path d="m-.5-.5h1v1h-1z" fill="#9ba2e7" fill-opacity=".501961" transform="matrix(.95630476 .2923717 -2.33897364 7.65043805 193 58)"/><ellipse cx="179" cy="145" fill="#6d5448" fill-opacity=".501961" rx="12" ry="1"/><ellipse fill="#6c5b4c" fill-opacity=".501961" rx="1" ry="1" transform="matrix(-.99709866 -.07612006 5.45761404 -71.48942928 212.448798 51.068667)"/><path d="m230.395956 51.56164 7.430738 46.926334 5.921872 28.003181-4.632061-28.573691z" fill="#83787b" fill-opacity=".501961"/><path d="m-.5-.5h1v1h-1z" fill="#5ac4ff" fill-opacity=".501961" transform="matrix(-.93969262 -.34202014 2.394141 -6.57784835 209 48)"/><path d="m56.036245 68.631346 15.516008 1.014585-34.627674 21.891591 60.331074 10.961952z" fill="#6cb0f2" fill-opacity=".501961"/><path d="m-.5-.5h1v1h-1z" fill="#71797d" fill-opacity=".501961" transform="matrix(.80901699 -.58778525 6.46563778 8.89918694 91 167)"/><path d="m189.675931-1.795987-.325188 45.48513-2.966618 16.91396-.439136-16.513887z" fill="#787674" fill-opacity=".501961"/><path d="m271 101.290239-26.720918-52.697357.559058 39.009678 7.255691 18.267667z" fill="#6ea7de" fill-opacity=".501961"/><ellipse cx="183" cy="62" fill="#33311a" fill-opacity=".501961" rx="2" ry="3"/><path d="m189 24h6v25h-6z" fill="#6cabea" fill-opacity=".501961"/><ellipse cx="248" cy="90" fill="#aaafc2" fill-opacity=".501961" rx="16" ry="4"/><path d="m-.5-.5h1v1h-1z" fill="#835342" fill-opacity=".501961" transform="matrix(.94228641 -26.98355233 1.99878165 .06979899 196 56)"/><path d="m217 12h23v37h-23z" fill="#589bdd" fill-opacity=".501961"/><path d="m183 139h2v16h-2z" fill="#d9e0e8" fill-opacity=".501961"/><path d="m-.5-.5h1v1h-1z" fill="#2b261c" fill-opacity=".501961" transform="matrix(14.41681763 -9.00862749 2.11967706 3.39219238 194 102)"/><path d="m209 113-5 15 6-5z" fill="#322211" fill-opacity=".501961"/><ellipse fill="#96918f" fill-opacity=".501961" rx="1" ry="1" transform="matrix(-.98251716 .18617205 -5.6620045 -29.88105169 249.872126 155.87004)"/><path d="m36.02953 53.617981 46.380614-37.025201-8.931935 26.686003-17.090898 10.595961z" fill="#96b6dd" fill-opacity=".501961"/><path d="m184 80h12v4h-12z" fill-opacity=".501961"/><path d="m222.360658 64.779198 8.517311 34.179057 2.559215 1.12841-10.454778-48.709031z" fill="#71ade8" fill-opacity=".501961"/><path d="m185.532409 46.942281q.116411 48.189143-14.693068 69.929296" fill="none" stroke="#e2a877" stroke-opacity=".501961" stroke-width=".5"/><path d="m28.752454 101.299195 71.407761-.678168-71.104218 28.860663 33.508195.283342z" fill="#b2c4e1" fill-opacity=".501961"/><path d="m199 93 2-7v12z" fill="#8b7622" fill-opacity=".501961"/><path d="m-.5-.5h1v1h-1z" fill="#ffff5d" fill-opacity=".501961" transform="matrix(-3.28630094 -6.18063315 .88294759 -.46947156 195 74)"/><path d="m186 16-97 9-59 49z" fill="#68a9ea" fill-opacity=".501961"/><ellipse cx="157" cy="39" fill="#88b6ea" fill-opacity=".501961" rx="13" ry="11"/><path d="m191.183799 95.378857 7.828989-26.583632-3.326633.823529 4.343031 14.525368z" fill="#83532f" fill-opacity=".501961"/><path d="m247.08872 104.212326 8.662387 61.648259 8.512136-88.519493-2.611644 25.984119z" fill="#cacfd5" fill-opacity=".501961"/><path d="m181.414702 93.263573 14.56569 1.205685-7.185742-.438262-5.340286-5.978502z" fill="#4e2108" fill-opacity=".501961"/><path d="m-.5-.5h1v1h-1z" fill="#ff4c36" fill-opacity=".501961" transform="matrix(-5.63815572 2.05212086 -2.394141 -6.57784835 191 75)"/><path d="m169 84h8v19h-8z" fill="#96c3f9" fill-opacity=".501961"/><path d="m144 5 40-21v19z" fill="#95afd4" fill-opacity=".501961"/><path d="m-.5-.5h1v1h-1z" fill="#6ea2d7" fill-opacity=".501961" transform="matrix(-.98768834 -.15643447 3.1286893 -19.75376681 206 32)"/><path d="m168.614157 22.607326-11.975509 12.020371 30.753985-1.495596-5.75498-5.745873z" fill="#9ebae0" fill-opacity=".501961"/><path d="m209.559703 185q-47.13866 0-45.224459-46.760379" fill="none" stroke="#5e5748" stroke-opacity=".501961" stroke-width=".5"/><path d="m142 8h46v16h-46z" fill="#60a1e2" fill-opacity=".501961"/><ellipse fill="#75a6dd" fill-opacity=".501961" rx="1" ry="1" transform="matrix(24.92085699 -6.58786581 1.45661705 5.51015249 66.97774 18.681456)"/><path d="m-.5-.5h1v1h-1z" fill="#735238" fill-opacity=".501961" transform="matrix(1.9860408 -18.89591601 .9945219 .10452846 168 83)"/><path d="m174 155h2v15h-2z" fill="#6d4732" fill-opacity=".501961"/><ellipse fill="#7193bb" fill-opacity=".501961" rx="1" ry="1" transform="matrix(21.01260486 11.88896742 -3.26445928 5.76961737 0 22.347138)"/><path d="m167 185-45-68 11 50z" fill="#d7dee7" fill-opacity=".501961"/><path d="m178 114h2v13h-2z" fill="#326fa3" fill-opacity=".501961"/><path d="m209 61 3-6-10-14z" fill="#22140f" fill-opacity=".501961"/><path d="m-.5-.5h1v1h-1z" fill="#443f45" fill-opacity=".501961" transform="matrix(9.03055882 -9.3514174 .7193398 .69465837 170 46)"/><path d="m173.604445 166.566473-2.250824-1.350972-2.138967-54.327615 9.008995-13.485118z" fill="#d8d5dd" fill-opacity=".501961"/><ellipse fill="#d3d7db" fill-opacity=".501961" rx="1" ry="1" transform="matrix(-5.74543548 -15.30036512 14.9555729 -5.61596265 222.039101 135.926425)"/><path d="m181 132h4v3h-4z" fill="#bc8d55" fill-opacity=".501961"/><path d="m173 87h5v13h-5z" fill="#7cb9f7" fill-opacity=".501961"/><path d="m-.5-.5h1v1h-1z" fill="#6bb2fd" fill-opacity=".501961" transform="matrix(4.11449677 5.66311896 -4.04508497 2.93892626 180 47)"/><path d="m176 128h7v4h-7z" fill="#1a4667" fill-opacity=".501961"/><path d="m162 141h5v20h-5z" fill="#52442b" fill-opacity=".501961"/><path d="m-.5-.5h1v1h-1z" fill="#4e0000" fill-opacity=".501961" transform="matrix(3.03201091 10.57387866 -.9612617 .27563736 188 52)"/><ellipse cx="187" cy="138" fill="#4b2e1c" fill-opacity=".501961" rx="17" ry="1"/><path d="m207 0h2v30h-2z" fill="#72583f" fill-opacity=".501961"/><path d="m125.216188 5.230867 2.282377 11.537415-34.220248-3.045054-89.15739-29.723228z" fill="#96afd5" fill-opacity=".501961"/><path d="m1 118 10-27 38 30z" fill="#72a6d8" fill-opacity=".501961"/><path d="m-.5-.5h1v1h-1z" fill="#877d75" fill-opacity=".501961" transform="matrix(-6.02943903 -28.36628042 .9781476 -.20791169 208 169)"/><ellipse fill="#6ea4de" fill-opacity=".501961" rx="1" ry="1" transform="matrix(-4.17002732 6.80320129 -26.37761038 -16.16817603 122.152126 0)"/><path d="m-.5-.5h1v1h-1z" fill="#658392" fill-opacity=".501961" transform="matrix(-.54463904 -.83867057 10.06404682 -6.53566842 196 67)"/><path d="m167 144h3v1h-3z" fill="#40210c" fill-opacity=".501961"/><path d="m171 59h10v6h-10z" fill="#68b5fc" fill-opacity=".501961"/><path d="m92 94h73v13h-73z" fill="#bad0f0" fill-opacity=".501961"/><path d="m197.418781 181.286444 5.332461-33.057425-5.873892 3.468444 1.076599 6.050023z" fill="#cbd4e0" fill-opacity=".501961"/><ellipse fill="#a29e9a" fill-opacity=".501961" rx="1" ry="1" transform="matrix(.92753447 -.37373761 3.17928906 7.89029553 159.78047 140.724101)"/><path d="m191.036583 94.354665q12.192267 41.867999 23.331007 72.673113" fill="none" stroke="#504c49" stroke-opacity=".501961" stroke-width=".5"/><path d="m205 62h3v3h-3z" fill="#ff4741" fill-opacity=".501961"/><path d="m-.5-.5h1v1h-1z" fill="#69584e" fill-opacity=".501961" transform="matrix(-.99026807 .1391731 -2.36594272 -16.83455717 171 44)"/><path d="m-.5-.5h1v1h-1z" fill="#85898b" fill-opacity=".501961" transform="matrix(-5.15038075 -8.57167301 .8571673 -.51503807 62 167)"/><ellipse fill="#d9dbde" fill-opacity=".501961" rx="1" ry="1" transform="matrix(-3.44453247 -14.9334837 35.95680405 -8.29373652 55.904084 142.916506)"/><ellipse fill="#bd5a31" fill-opacity=".501961" rx="1" ry="1" transform="matrix(-.25003182 1.88038265 -.9912752 -.13180846 199.407607 96.745109)"/><path d="m186 46v17l-3-10z" fill="#f97c62" fill-opacity=".501961"/><path d="m178 135h8v4h-8z" fill="#0c0c01" fill-opacity=".501961"/><path d="m204 43h12v2h-12z" fill="#382619" fill-opacity=".501961"/><path d="m230.398989 106.102378-3.737609-3.518202-18.45234 6.411512 3.705418-20.910716z" fill="#aac4e7" fill-opacity=".501961"/><path d="m-.5-.5h1v1h-1z" fill="#2c362e" fill-opacity=".501961" transform="matrix(4.78152378 -1.46185852 .58474341 1.91260951 194 70)"/><path d="m-.5-.5h1v1h-1z" fill="#140000" fill-opacity=".501961" transform="matrix(-.95630476 -.2923717 7.01692091 -22.95131414 184 88)"/><path d="m-.5-.5h1v1h-1z" fill="#ccd8ea" fill-opacity=".501961" transform="matrix(-2.34651698 -14.81532511 2.96306502 -.4693034 244 109)"/><ellipse cx="202" cy="76" fill="#68b2ff" fill-opacity=".501961" rx="3" ry="7"/><path d="m238 75h3v11h-3z" fill="#6eb2f2" fill-opacity=".501961"/><path d="m125.544137 94.629935 10.588202-7.331014-87.007024 17.371198-9.680516-7.974389z" fill="#8ebbeb" fill-opacity=".501961"/><path d="m185 95 3 4-11 4z" fill="#778481" fill-opacity=".501961"/><path d="m-.5-.5h1v1h-1z" fill="#bc7b31" fill-opacity=".501961" transform="matrix(-2.91076367 13.69406641 -.9781476 -.20791169 183 82)"/><ellipse cx="179" cy="68" fill="#fa8d70" fill-opacity=".501961" rx="5" ry="4"/><path d="m134.381627 79.26532 20.421551 13.070355 10.104601-2.462233 3.479029-36.607781z" fill="#74b4f4" fill-opacity=".501961"/><ellipse fill="#cacedc" fill-opacity=".501961" rx="1" ry="1" transform="matrix(3.25054841 -7.88404685 4.78373677 1.97230791 214.296284 106.718696)"/><path d="m178 99h1v7h-1z" fill="#853f14" fill-opacity=".501961"/><ellipse cx="192" cy="51" fill="#47c4ff" fill-opacity=".501961" rx="1" ry="1"/><path d="m186.042729 50.504872q8.98479-65.909311-.9047-66.504872" fill="none" stroke="#71645b" stroke-opacity=".501961" stroke-width=".5"/><path d="m176 75h15v3h-15z" fill="#bc2c28" fill-opacity=".501961"/><path d="m204 139h3v8h-3z" fill="#2b1b10" fill-opacity=".501961"/><path d="m-.5-.5h1v1h-1z" fill="#77b1eb" fill-opacity=".501961" transform="matrix(-.98162718 .190809 -13.35662968 -68.71390284 231 69)"/><path d="m-.5-.5h1v1h-1z" fill="#d1d9e4" fill-opacity=".501961" transform="matrix(-1.04671912 19.9725907 -.99862953 -.05233596 196 124)"/><path d="m31 164h1v6h-1z" fill="#5b5d5b" fill-opacity=".501961"/><path d="m175 104h3v22h-3z" fill="#dfe1eb" fill-opacity=".501961"/><path d="m-.5-.5h1v1h-1z" fill="#dce3e8" fill-opacity=".501961" transform="matrix(-.98162718 .190809 -5.34265187 -27.48556114 247 130)"/><path d="m206 65h1v15h-1z" fill="#765223" fill-opacity=".501961"/><path d="m200 94h2v12h-2z" fill="#191922" fill-opacity=".501961"/><path d="m-.5-.5h1v1h-1z" fill="#949698" fill-opacity=".501961" transform="matrix(-11.63543089 -20.99087297 .87461971 -.48480962 129 162)"/><path d="m155.037391 104.538742 12.238046-13.026243-28.765695 8.762576 18.94163 67.685516z" fill="#d5dce9" fill-opacity=".501961"/><path d="m189 114h2v16h-2z" fill="#d8dfea" fill-opacity=".501961"/><path d="m167 128h9v9h-9z" fill="#dde2e8" fill-opacity=".501961"/><path d="m18 54-34-4 2 71z" fill="#5b93ca" fill-opacity=".501961"/><path d="m-.5-.5h1v1h-1z" fill="#1c0000" fill-opacity=".501961" transform="matrix(1.29409523 4.82962913 -3.86370331 1.03527618 190 85)"/><path d="m215 48 1 13 8-16z" fill="#66a8e7" fill-opacity=".501961"/><path d="m160.698633 140.12178q33.481603-3.014823 29.132357-25.695577" fill="none" stroke="#a99e94" stroke-opacity=".501961" stroke-width=".5"/><path d="m19.552161 74.649504 8.389367-31.200886 26.67539 14.795616-51.555207 4.386709z" fill="#71a4d7" fill-opacity=".501961"/><path d="m4.963628 185q-2.291343-36.911954-4.693187-46.313834" fill="none" stroke="#7e7d7c" stroke-opacity=".501961" stroke-width=".5"/><path d="m190 132h2v15h-2z" fill="#886f59" fill-opacity=".501961"/><path d="m-.5-.5h1v1h-1z" fill="#656d7b" fill-opacity=".501961" transform="matrix(-6.61529654 -23.0702807 .9612617 -.27563736 233 66)"/><path d="m213.013634 55.235565q-9.811687 68.665245-4.595372 101.465618" fill="none" stroke="#826b56" stroke-opacity=".501961" stroke-width=".5"/><ellipse cx="185" cy="42" fill="#574a50" fill-opacity=".501961" rx="9" ry="1"/><path d="m-.5-.5h1v1h-1z" fill="#581a13" fill-opacity=".501961" transform="matrix(-12.52669781 19.28942306 -.83867057 -.54463904 203 63)"/><path d="m208 63h2v10h-2z" fill="#71b7fc" fill-opacity=".501961"/><path d="m-.5-.5h1v1h-1z" fill="#74b0ec" fill-opacity=".501961" transform="matrix(.08726203 4.99923848 -9.99847695 .17452406 181 39)"/><ellipse cx="201" cy="147" fill="#623f19" fill-opacity=".501961" rx="2" ry="2"/><path d="m-.5-.5h1v1h-1z" fill="#979493" fill-opacity=".501961" transform="matrix(10.9404716 25.7741359 -.92050485 .39073113 150 153)"/><path d="m155.304834 130.345047q18.742987 41.074739 1.741853 54.654953" fill="none" stroke="#847566" stroke-opacity=".501961" stroke-width=".5"/><path d="m179 144h2v10h-2z" fill="#d0c9c6" fill-opacity=".501961"/><path d="m244.237715 144.277512 6.52036 38.061625-30.612221-49.535271 30.810745 42.949041z" fill="#bac0c7" fill-opacity=".501961"/><path d="m253 78-38-85 56 55z" fill="#5695d2" fill-opacity=".501961"/><path d="m186 64h5v4h-5z" fill="#0a0000" fill-opacity=".501961"/><path d="m235.712664 78.179248 5.678962 2.65201-10.957363-62.840968 2.631178 44.741457z" fill="#61a1df" fill-opacity=".501961"/><path d="m67.845304 172.467171-28.008495-21.703906 14.233819 34.236735 35.80272-51.847228z" fill="#ced5de" fill-opacity=".501961"/><ellipse cx="180" cy="79" fill="#250000" fill-opacity=".501961" rx="2" ry="2"/><path d="m-.5-.5h1v1h-1z" fill="#5194d6" fill-opacity=".501961" transform="matrix(.60934672 -4.96273076 2.97763845 .36560803 203 52)"/><path d="m252.461051 149.980103q-5.931782-42.667984-13.126294-90.956863" fill="none" stroke="#7d7673" stroke-opacity=".501961" stroke-width=".5"/><path d="m-.5-.5h1v1h-1z" fill="#745840" fill-opacity=".501961" transform="matrix(6.77227893 -38.40750237 .98480775 .17364818 212 66)"/><path d="m190.973783 140.529917 7.194692-10.613729 1.31305-16.158747-.693604 19.383089z" fill="#2f3e4a" fill-opacity=".501961"/><path d="m-.5-.5h1v1h-1z" fill="#ce9c6b" fill-opacity=".501961" transform="matrix(-.39073113 .92050485 -10.12555339 -4.29804241 186 96)"/><path d="m202 162h3v8h-3z" fill="#43291b" fill-opacity=".501961"/><path d="m253.785673 176.55487q-3.049304-19.925271-7.117585-40.206744" fill="none" stroke="#81736a" stroke-opacity=".501961" stroke-width=".5"/><path d="m-.5-.5h1v1h-1z" fill="#45341c" fill-opacity=".501961" transform="matrix(5.29768556 -2.81682938 .46947156 .88294759 202 41)"/><path d="m86.827957 105.882813-7.349932 12.323643-26.495085 17.003729-39.72451 1.56558z" fill="#c8d0df" fill-opacity=".501961"/><path d="m168 55h2v13h-2z" fill="#8f684e" fill-opacity=".501961"/><path d="m-.5-.5h1v1h-1z" fill="#050500" fill-opacity=".501961" transform="matrix(.95871317 10.95814168 -.9961947 .08715574 205 100)"/><path d="m56.659817 174.576726-6.760466 10.423274-5.582259-19.419155 16.183478 19.419155z" fill="#8c9194" fill-opacity=".501961"/><ellipse cx="188" cy="93" fill="#e59761" fill-opacity=".501961" rx="2" ry="6"/><path d="m200 118h4v19h-4z" fill="#100f0b" fill-opacity=".501961"/><path d="m243.058608 151.395009q1.733591-8.034865-9.761782-54.015537" fill="none" stroke="#7e6d60" stroke-opacity=".501961" stroke-width=".5"/><path d="m232.465481 109.279402q12.09367 40.726111 11.933844 44.526016" fill="none" stroke="#68432a" stroke-opacity=".501961" stroke-width=".5"/><ellipse cx="196" cy="33" fill="#6face6" fill-opacity=".501961" rx="5" ry="5"/><path d="m-.5-.5h1v1h-1z" fill="#76b0ea" fill-opacity=".501961" transform="matrix(.99756405 .06975647 -1.46488595 20.94884506 172 55)"/><path d="m188 54 7 3-9-1z" fill="#9c0500" fill-opacity=".501961"/><path d="m194 127h1v8h-1z" fill="#d8e0ea" fill-opacity=".501961"/><path d="m197.662399 119.593653q-6.452239-16.375234 1.521347-38.46259" fill="none" stroke="#807152" stroke-opacity=".501961" stroke-width=".5"/><path d="m-.5-.5h1v1h-1z" fill="#fff" fill-opacity=".501961" transform="matrix(.82903757 .5591929 -1.11838581 1.65807515 202 141)"/><path d="m245.939873 161.567012 1.992891 20.792649-42.331562-22.1998 4.621854 11.698771z" fill="#aeb7c1" fill-opacity=".501961"/><path d="m207 65h2v20h-2z" fill="#63a5e1" fill-opacity=".501961"/><path d="m186.648653 52.23153q-1.567864 16.420331-4.509085 28.461829" fill="none" stroke="#e5a461" stroke-opacity=".501961" stroke-width=".5"/><path d="m197 91h2v25h-2z" fill="#0a0607" fill-opacity=".501961"/><path d="m245.462159 159.397501q.390456-4.515435-3.275877-16.084949" fill="none" stroke="#392312" stroke-opacity=".501961" stroke-width=".5"/><path d="m104.704912 5.755872-44.044275 42.492102 30.844089 5.769646-13.281266-8.57273z" fill="#80aee1" fill-opacity=".501961"/><path d="m-.5-.5h1v1h-1z" fill="#563626" fill-opacity=".501961" transform="matrix(-16.98964406 .59329144 -.0348995 -.99939083 205 53)"/><path d="m-.5-.5h1v1h-1z" fill="#8ba9d2" fill-opacity=".501961" transform="matrix(-36.63991854 -5.14940474 1.94842341 -13.86375296 49 12)"/><ellipse cx="163" cy="138" fill="#7c654f" fill-opacity=".501961" rx="2" ry="2"/><path d="m-.5-.5h1v1h-1z" fill="#cfd5da" fill-opacity=".501961" transform="matrix(-.97029573 .2419219 -7.49957876 -30.07916751 245 142)"/><path d="m175 165h4v5h-4z" fill="#c9d5e3" fill-opacity=".501961"/><path d="m197 45h2v16h-2z" fill="#6ab3f9" fill-opacity=".501961"/></g></svg>