<svg xmlns="http://www.w3.org/2000/svg" version="1.1" width="1024" height="680">
<rect x="0" y="0" width="1024" height="680" fill="#8fadcd" />
<g transform="scale(4.000000) translate(0.5 0.5)">
<g transform="translate(194.974811 94.090241) rotate(363.330916) scale(17.140640 61.765856)"><ellipse fill="#4e1900" fill-opacity="0.501961" cx="0" cy="0" rx="1" ry="1" /></g>
<g transform="translate(80.870535 150.627037) rotate(246.374465) scale(48.925659 102.189971)"><ellipse fill="#fff6f1" fill-opacity="0.501961" cx="0" cy="0" rx="1" ry="1" /></g>
<g transform="translate(229.646850 31.433863) rotate(143.489236) scale(43.232867 60.950666)"><ellipse fill="#3479bc" fill-opacity="0.501961" cx="0" cy="0" rx="1" ry="1" /></g>
<g transform="translate(86.296626 61.399513) rotate(429.505563) scale(42.517028 123.305937)"><ellipse fill="#5ba9f9" fill-opacity="0.501961" cx="0" cy="0" rx="1" ry="1" /></g>
<g transform="translate(232.228858 137.439018) rotate(362.618765) scale(25.539723 33.832571)"><ellipse fill="#f1d7c0" fill-opacity="0.501961" cx="0" cy="0" rx="1" ry="1" /></g>
<g transform="translate(165.610872 128.044974) rotate(273.704148) scale(30.526767 1.738589)"><ellipse fill="#3e0900" fill-opacity="0.501961" cx="0" cy="0" rx="1" ry="1" /></g>
<polygon fill="#88462e" fill-opacity="0.501961" points="194.929602,85.052106,173.429004,173.694229,180.214563,47.670303,220.968180,42.249639" />
<polygon fill="#2d1800" fill-opacity="0.501961" points="204.523684,174.224435,206.928499,140.876285,200.913173,86.568384,191.019994,75.128650" />
<g transform="translate(183.061687 160.559264) rotate(100.691352) scale(50.489533 3.401257)"><ellipse fill="#e9e5da" fill-opacity="0.501961" cx="0" cy="0" rx="1" ry="1" /></g>
<polygon fill="#423018" fill-opacity="0.501961" points="188,180 203,138 191,125" />
<rect fill="#3f0f00" fill-opacity="0.501961" x="162" y="137" width="5" height="33" />
<g transform="translate(251.786343 168.957404) rotate(251.776104) scale(54.937847 3.919271)"><ellipse fill="#847060" fill-opacity="0.501961" cx="0" cy="0" rx="1" ry="1" /></g>
<g transform="translate(211 84) rotate(333) scale(19 34)"><rect fill="#6baee4" fill-opacity="0.501961" x="-0.5" y="-0.5" width="1" height="1" /></g>
<rect fill="#e1e4ed" fill-opacity="0.501961" x="209" y="101" width="22" height="55" />
<g transform="translate(185 113) rotate(102) scale(64 8)"><rect fill="#302d23" fill-opacity="0.501961" x="-0.5" y="-0.5" width="1" height="1" /></g>
<rect fill="#ff6834" fill-opacity="0.501961" x="174" y="69" width="23" height="10" />
<g transform="translate(7.259470 67.300339) rotate(35.907908) scale(34.410146 61.825923)"><ellipse fill="#6497cb" fill-opacity="0.501961" cx="0" cy="0" rx="1" ry="1" /></g>
<ellipse fill="#dad8da" fill-opacity="0.501961" cx="10" cy="158" rx="152" ry="34" />
<rect fill="#d5dcec" fill-opacity="0.501961" x="43" y="98" width="119" height="55" />
<g transform="translate(214.307065 39.218438) rotate(5.450159) scale(1.000000 255.000000)"><ellipse fill="#68401c" fill-opacity="0.501961" cx="0" cy="0" rx="1" ry="1" /></g>
<rect fill="#f7f0ec" fill-opacity="0.501961" x="195" y="146" width="6" height="24" />
<polygon fill="#d3dbde" fill-opacity="0.501961" points="197,117 185,132 196,135" />
<g transform="translate(196 49) rotate(70) scale(23 12)"><rect fill="#73ade1" fill-opacity="0.501961" x="-0.5" y="-0.5" width="1" height="1" /></g>
<rect fill="#6fb7fc" fill-opacity="0.501961" x="68" y="34" width="98" height="62" />
<g transform="translate(207 16) rotate(97) scale(66 4)"><rect fill="#5f472d" fill-opacity="0.501961" x="-0.5" y="-0.5" width="1" height="1" /></g>
<ellipse fill="#6e5644" fill-opacity="0.501961" cx="168" cy="72" rx="2" ry="31" />
<rect fill="#dbeeff" fill-opacity="0.501961" x="169" y="93" width="9" height="34" />
<polygon fill="#f64632" fill-opacity="0.501961" points="182,48 177,82 192,51" />
<rect fill="#d4c7bb" fill-opacity="0.501961" x="168" y="142" width="21" height="28" />
<g transform="translate(48.279734 39.336086) rotate(162.812598) scale(44.097284 9.973012)"><ellipse fill="#9eb3d1" fill-opacity="0.501961" cx="0" cy="0" rx="1" ry="1" /></g>
<g transform="translate(188.822697 85.864967) rotate(304.828354) scale(7.509229 14.114199)"><ellipse fill="#7b330e" fill-opacity="0.501961" cx="0" cy="0" rx="1" ry="1" /></g>
<polygon fill="#640000" fill-opacity="0.501961" points="212,50 193,70 212,60" />
<rect fill="#7b4c25" fill-opacity="0.501961" x="169" y="35" width="3" height="23" />
<polygon fill="#0a1e20" fill-opacity="0.501961" points="191,100 210,120 205,129" />
<g transform="translate(6 164) rotate(200) scale(117 30)"><rect fill="#b1b9bf" fill-opacity="0.501961" x="-0.5" y="-0.5" width="1" height="1" /></g>
<rect fill="#000000" fill-opacity="0.501961" x="205" y="76" width="2" height="30" />
<g transform="translate(245.197284 157.830513) rotate(347.254014) scale(1.000000 26.333069)"><ellipse fill="#452b1c" fill-opacity="0.501961" cx="0" cy="0" rx="1" ry="1" /></g>
<polygon fill="#060909" fill-opacity="0.501961" points="205,130 192,133 194,150" />
<ellipse fill="#5996d1" fill-opacity="0.501961" cx="241" cy="30" rx="26" ry="74" />
<polygon fill="#6e686f" fill-opacity="0.501961" points="226.012807,74.185644,236.229566,122.133574,226.334422,92.258349,222.480666,66.681239" />
<rect fill="#7f6256" fill-opacity="0.501961" x="187" y="0" width="3" height="56" />
<ellipse fill="#69a5df" fill-opacity="0.501961" cx="15" cy="118" rx="45" ry="6" />
<g transform="translate(119.186382 101.687796) rotate(169.237987) scale(49.345390 9.718637)"><ellipse fill="#b4cbee" fill-opacity="0.501961" cx="0" cy="0" rx="1" ry="1" /></g>
<rect fill="#2f312d" fill-opacity="0.501961" x="180" y="115" width="2" height="55" />
<polygon fill="#b58068" fill-opacity="0.501961" points="190.984511,99.660477,154.605824,100.343285,174.415199,99.839641,200.558458,80.150684" />
<rect fill="#70c2ff" fill-opacity="0.501961" x="201" y="68" width="4" height="35" />
<rect fill="#2f1d0a" fill-opacity="0.501961" x="192" y="94" width="2" height="76" />
<rect fill="#67baff" fill-opacity="0.501961" x="169" y="69" width="7" height="30" />
<polygon fill="#0e060a" fill-opacity="0.501961" points="188,57 199,69 186,64" />
<polygon fill="#beb9b6" fill-opacity="0.501961" points="234,108 253,178 267,98" />
<polygon fill="#9ab8dc" fill-opacity="0.501961" points="138,41 209,37 168,26" />
<g transform="translate(152.633879 0.000000) rotate(190.046458) scale(36.667145 28.832608)"><ellipse fill="#68a2e1" fill-opacity="0.501961" cx="0" cy="0" rx="1" ry="1" /></g>
<g transform="translate(234.285226 101.611468) rotate(348.635518) scale(1.000000 54.923257)"><ellipse fill="#797476" fill-opacity="0.501961" cx="0" cy="0" rx="1" ry="1" /></g>
<g transform="translate(171.709564 146.205917) rotate(102.668754) scale(22.205983 2.398200)"><ellipse fill="#e4deda" fill-opacity="0.501961" cx="0" cy="0" rx="1" ry="1" /></g>
<rect fill="#f0fbff" fill-opacity="0.501961" x="194" y="117" width="4" height="14" />
<polygon fill="#3e3c39" fill-opacity="0.501961" points="178.421182,127.783175,174.615098,178.150305,174.693210,145.241733,195.207067,92.871623" />
<polygon fill="#323835" fill-opacity="0.501961" points="202.039261,144.472922,208.917651,123.535430,210.323942,115.502753,194.526031,86.733093" />
<ellipse fill="#ff7450" fill-opacity="0.501961" cx="180" cy="71" rx="6" ry="7" />
<ellipse fill="#5896d5" fill-opacity="0.501961" cx="33" cy="26" rx="29" ry="7" />
<rect fill="#000000" fill-opacity="0.501961" x="178" y="81" width="15" height="4" />
<g transform="translate(7.802897 72.114566) rotate(183.173388) scale(55.646728 21.692757)"><ellipse fill="#5a9fde" fill-opacity="0.501961" cx="0" cy="0" rx="1" ry="1" /></g>
<g transform="translate(166.451755 100.428448) rotate(94.909635) scale(63.111141 1.000000)"><ellipse fill="#816e5b" fill-opacity="0.501961" cx="0" cy="0" rx="1" ry="1" /></g>
<g transform="translate(206 55) rotate(365) scale(1 26)"><rect fill="#4a0000" fill-opacity="0.501961" x="-0.5" y="-0.5" width="1" height="1" /></g>
<g transform="translate(33.343837 102.149016) rotate(11.823235) scale(21.593576 6.363597)"><ellipse fill="#9eb6d6" fill-opacity="0.501961" cx="0" cy="0" rx="1" ry="1" /></g>
<g transform="translate(246 107) rotate(259) scale(68 1)"><rect fill="#807169" fill-opacity="0.501961" x="-0.5" y="-0.5" width="1" height="1" /></g>
<polygon fill="#6aabec" fill-opacity="0.501961" points="172.834730,67.888311,190.157719,58.712024,22.815250,85.564116,138.244919,2.850262" />
<polygon fill="#85776b" fill-opacity="0.501961" points="253.257075,157.954716,257.612580,185.000000,261.605350,185.000000,249.555596,133.347149" />
<g transform="translate(214 47) rotate(99) scale(35 1)"><rect fill="#68461d" fill-opacity="0.501961" x="-0.5" y="-0.5" width="1" height="1" /></g>
<rect fill="#4b2108" fill-opacity="0.501961" x="203" y="141" width="2" height="29" />
<polygon fill="#ced3dc" fill-opacity="0.501961" points="207.017356,104.737433,211.392371,94.090496,233.445854,115.456722,250.458862,185.000000" />
<polygon fill="#190f03" fill-opacity="0.501961" points="211.290368,62.662942,207.740904,59.681780,200.061705,40.089896,206.836146,46.967963" />
<polygon fill="#b6aaa5" fill-opacity="0.501961" points="195.914498,148.634578,193.684769,156.411962,204.906747,134.976207,199.381201,185.000000" />
<rect fill="#d6dce6" fill-opacity="0.501961" x="250" y="102" width="6" height="31" />
<polygon fill="#b6af7b" fill-opacity="0.501961" points="198,62 194,76 191,68" />
<polygon fill="#0e0c08" fill-opacity="0.501961" points="205.270512,126.564078,197.447436,150.611635,199.819436,116.850065,205.885604,128.996224" />
<g transform="translate(94.515429 15.041789) rotate(267.706103) scale(9.927774 40.734761)"><ellipse fill="#87acdc" fill-opacity="0.501961" cx="0" cy="0" rx="1" ry="1" /></g>
<rect fill="#634f4b" fill-opacity="0.501961" x="170" y="41" width="18" height="2" />
<rect fill="#bdd57a" fill-opacity="0.501961" x="177" y="87" width="5" height="9" />
<g transform="translate(0.000000 139.730180) rotate(261.163653) scale(58.787912 1.000000)"><ellipse fill="#8a8d90" fill-opacity="0.501961" cx="0" cy="0" rx="1" ry="1" /></g>
<ellipse fill="#e9362c" fill-opacity="0.501961" cx="186" cy="55" rx="7" ry="7" />
<rect fill="#dbe9f7" fill-opacity="0.501961" x="195" y="147" width="3" height="17" />
<rect fill="#df2f24" fill-opacity="0.501961" x="194" y="61" width="16" height="3" />
<rect fill="#653a0c" fill-opacity="0.501961" x="161" y="159" width="4" height="11" />
<rect fill="#c0ad9a" fill-opacity="0.501961" x="206" y="150" width="7" height="20" />
<g transform="translate(219.129972 56.623089) rotate(94.534982) scale(27.708037 4.388826)"><ellipse fill="#66a9ea" fill-opacity="0.501961" cx="0" cy="0" rx="1" ry="1" /></g>
<polygon fill="#6aa4df" fill-opacity="0.501961" points="178.166827,48.035214,196.109285,50.755705,188.930625,32.082007,204.106737,39.561746" />
<rect fill="#a6c9e9" fill-opacity="0.501961" x="176" y="86" width="3" height="39" />
<path stroke="#603c29" stroke-opacity="0.501961" fill="none" d="M 257.058370 185.000000 Q 250.050520 185.000000, 223.971234 73.461819" stroke-width="0.500000" />
<rect fill="#523521" fill-opacity="0.501961" x="188" y="156" width="6" height="14" />
<polygon fill="#846e63" fill-opacity="0.501961" points="250.706931,162.157138,242.805430,120.222325,231.336222,59.282267,243.523220,117.212007" />
<g transform="translate(186.308903 152.097335) rotate(6.238834) scale(2.943736 22.166263)"><ellipse fill="#ced8e6" fill-opacity="0.501961" cx="0" cy="0" rx="1" ry="1" /></g>
<ellipse fill="#060000" fill-opacity="0.501961" cx="190" cy="64" rx="4" ry="4" />
<ellipse fill="#dddfe5" fill-opacity="0.501961" cx="109" cy="131" rx="54" ry="20" />
<ellipse fill="#e0eaf2" fill-opacity="0.501961" cx="178" cy="153" rx="2" ry="12" />
<g transform="translate(248.432350 5.863867) rotate(141.645410) scale(18.048049 94.796974)"><ellipse fill="#4787c5" fill-opacity="0.501961" cx="0" cy="0" rx="1" ry="1" /></g>
<polygon fill="#b4b2b0" fill-opacity="0.501961" points="152.171609,152.347702,158.604218,178.159172,139.085139,125.978896,146.746805,139.874081" />
<ellipse fill="#512810" fill-opacity="0.501961" cx="202" cy="43" rx="12" ry="1" />
<polygon fill="#638fb6" fill-opacity="0.501961" points="203.416259,33.673593,214.214694,-16.000000,209.309719,37.870847,212.781802,57.578425" />
<rect fill="#e9b277" fill-opacity="0.501961" x="186" y="86" width="2" height="13" />
<ellipse fill="#000000" fill-opacity="0.501961" cx="180" cy="139" rx="4" ry="4" />
<polygon fill="#40554e" fill-opacity="0.501961" points="179,120 183,79 189,103" />
<ellipse fill="#d1d4d9" fill-opacity="0.501961" cx="25" cy="143" rx="22" ry="22" />
<polygon fill="#100000" fill-opacity="0.501961" points="196,147 200,147 199,145" />
<g transform="translate(188 128) rotate(283) scale(34 1)"><rect fill="#d2dce4" fill-opacity="0.501961" x="-0.5" y="-0.5" width="1" height="1" /></g>
<ellipse fill="#5a96ce" fill-opacity="0.501961" cx="3" cy="92" rx="13" ry="35" />
<rect fill="#6db1f4" fill-opacity="0.501961" x="93" y="53" width="75" height="28" />
<polygon fill="#406978" fill-opacity="0.501961" points="202,93 207,113 200,119" />
<ellipse fill="#96abc8" fill-opacity="0.501961" cx="26" cy="38" rx="40" ry="8" />
<rect fill="#1c1d15" fill-opacity="0.501961" x="182" y="108" width="5" height="22" />
<g transform="translate(244 138) rotate(257) scale(64 1)"><rect fill="#d8e5f3" fill-opacity="0.501961" x="-0.5" y="-0.5" width="1" height="1" /></g>
<polygon fill="#b3caec" fill-opacity="0.501961" points="142.376651,81.925638,53.803751,119.338269,147.262999,98.794314,166.852725,96.096510" />
<ellipse fill="#000100" fill-opacity="0.501961" cx="197" cy="104" rx="3" ry="8" />
<ellipse fill="#bfc1bb" fill-opacity="0.501961" cx="192" cy="115" rx="4" ry="4" />
<ellipse fill="#181513" fill-opacity="0.501961" cx="192" cy="151" rx="2" ry="13" />
<g transform="translate(100 162) rotate(145) scale(1 19)"><rect fill="#817e7e" fill-opacity="0.501961" x="-0.5" y="-0.5" width="1" height="1" /></g>
<polygon fill="#92989d" fill-opacity="0.501961" points="142.436262,185.000000,123.898529,151.998171,136.527009,185.000000,127.516162,185.000000" />
<polygon fill="#e59767" fill-opacity="0.501961" points="189,88 188,99 185,95" />
<polygon fill="#70b0f1" fill-opacity="0.501961" points="229,98 210,98 216,52" />
<ellipse fill="#573a26" fill-opacity="0.501961" cx="168" cy="145" rx="8" ry="1" />
<rect fill="#7b5c36" fill-opacity="0.501961" x="166" y="92" width="2" height="45" />
<rect fill="#5b230c" fill-opacity="0.501961" x="172" y="52" width="8" height="1" />
<rect fill="#6c5238" fill-opacity="0.501961" x="206" y="0" width="2" height="55" />
<rect fill="#5d4115" fill-opacity="0.501961" x="177" y="77" width="6" height="12" />
<ellipse fill="#5ba3ea" fill-opacity="0.501961" cx="210" cy="9" rx="2" ry="44" />
<rect fill="#e5e3e1" fill-opacity="0.501961" x="157" y="143" width="4" height="27" />
<path stroke="#5a4735" stroke-opacity="0.501961" fill="none" d="M 159.300443 139.218461 Q 190.634218 137.372327, 193.499014 139.303047" stroke-width="0.500000" />
<g transform="translate(221 64) rotate(164) scale(1 22)"><rect fill="#696167" fill-opacity="0.501961" x="-0.5" y="-0.5" width="1" height="1" /></g>
<g transform="translate(240 138) rotate(-14) scale(1 95)"><rect fill="#59341e" fill-opacity="0.501961" x="-0.5" y="-0.5" width="1" height="1" /></g>
<g transform="translate(229 166) rotate(247) scale(41 25)"><rect fill="#c0ccd9" fill-opacity="0.501961" x="-0.5" y="-0.5" width="1" height="1" /></g>
<g transform="translate(204 157) rotate(94) scale(124 2)"><rect fill="#654934" fill-opacity="0.501961" x="-0.5" y="-0.5" width="1" height="1" /></g>
<ellipse fill="#ba0c06" fill-opacity="0.501961" cx="191" cy="91" rx="3" ry="5" />
<rect fill="#d1d7db" fill-opacity="0.501961" x="166" y="150" width="7" height="20" />
<g transform="translate(202 86) rotate(79) scale(32 1)"><rect fill="#78bbf7" fill-opacity="0.501961" x="-0.5" y="-0.5" width="1" height="1" /></g>
<polygon fill="#4a6871" fill-opacity="0.501961" points="180,95 178,115 188,99" />
<path stroke="#715937" stroke-opacity="0.501961" fill="none" d="M 203.190557 26.392097 Q 195.996903 105.186217, 193.446323 110.183957" stroke-width="0.500000" />
<polygon fill="#715c46" fill-opacity="0.501961" points="192.991303,99.338785,190.730256,143.059100,207.766492,0.117586,195.795710,75.958643" />
<polygon fill="#6a1612" fill-opacity="0.501961" points="201.076435,70.453502,200.441686,65.863508,207.897261,51.391413,212.968938,55.831253" />
<rect fill="#6cb1f9" fill-opacity="0.501961" x="171" y="46" width="4" height="42" />
<polygon fill="#5ea0e2" fill-opacity="0.501961" points="198.471198,61.822309,200.413454,31.671801,208.788678,-10.859015,193.005598,-0.510762" />
<g transform="translate(12.187535 5.054587) rotate(77.596461) scale(15.053318 57.524332)"><ellipse fill="#95a3bf" fill-opacity="0.501961" cx="0" cy="0" rx="1" ry="1" /></g>
<polygon fill="#697688" fill-opacity="0.501961" points="244.929896,97.473056,238.935169,54.323221,236.086638,43.314478,240.160357,74.676038" />
<g transform="translate(193 58) rotate(17) scale(1 8)"><rect fill="#9ba2e7" fill-opacity="0.501961" x="-0.5" y="-0.5" width="1" height="1" /></g>
<ellipse fill="#6d5448" fill-opacity="0.501961" cx="179" cy="145" rx="12" ry="1" />
<g transform="translate(212.448798 51.068667) rotate(184.365581) scale(1.000000 71.697448)"><ellipse fill="#6c5b4c" fill-opacity="0.501961" cx="0" cy="0" rx="1" ry="1" /></g>
<polygon fill="#83787b" fill-opacity="0.501961" points="230.395956,51.561640,237.826694,98.487974,243.748566,126.491155,239.116505,97.917464" />
<g transform="translate(209 48) rotate(200) scale(1 7)"><rect fill="#5ac4ff" fill-opacity="0.501961" x="-0.5" y="-0.5" width="1" height="1" /></g>
<polygon fill="#6cb0f2" fill-opacity="0.501961" points="56.036245,68.631346,71.552253,69.645931,36.924579,91.537522,97.255653,102.499474" />
<g transform="translate(91 167) rotate(324) scale(1 11)"><rect fill="#71797d" fill-opacity="0.501961" x="-0.5" y="-0.5" width="1" height="1" /></g>
<polygon fill="#787674" fill-opacity="0.501961" points="189.675931,-1.795987,189.350743,43.689143,186.384125,60.603103,185.944989,44.089216" />
<polygon fill="#6ea7de" fill-opacity="0.501961" points="271.000000,101.290239,244.279082,48.592882,244.838140,87.602560,252.093831,105.870227" />
<ellipse fill="#33311a" fill-opacity="0.501961" cx="183" cy="62" rx="2" ry="3" />
<rect fill="#6cabea" fill-opacity="0.501961" x="189" y="24" width="6" height="25" />
<ellipse fill="#aaafc2" fill-opacity="0.501961" cx="248" cy="90" rx="16" ry="4" />
<g transform="translate(196 56) rotate(272) scale(27 2)"><rect fill="#835342" fill-opacity="0.501961" x="-0.5" y="-0.5" width="1" height="1" /></g>
<rect fill="#589bdd" fill-opacity="0.501961" x="217" y="12" width="23" height="37" />
<rect fill="#d9e0e8" fill-opacity="0.501961" x="183" y="139" width="2" height="16" />
<g transform="translate(194 102) rotate(328) scale(17 4)"><rect fill="#2b261c" fill-opacity="0.501961" x="-0.5" y="-0.5" width="1" height="1" /></g>
<polygon fill="#322211" fill-opacity="0.501961" points="209,113 204,128 210,123" />
<g transform="translate(249.872126 155.870040) rotate(169.270527) scale(1.000000 30.412753)"><ellipse fill="#96918f" fill-opacity="0.501961" cx="0" cy="0" rx="1" ry="1" /></g>
<polygon fill="#96b6dd" fill-opacity="0.501961" points="36.029530,53.617981,82.410144,16.592780,73.478209,43.278783,56.387311,53.874744" />
<rect fill="#000000" fill-opacity="0.501961" x="184" y="80" width="12" height="4" />
<polygon fill="#71ade8" fill-opacity="0.501961" points="222.360658,64.779198,230.877969,98.958255,233.437184,100.086665,222.982406,51.377634" />
<path stroke="#e2a877" stroke-opacity="0.501961" fill="none" d="M 185.532409 46.942281 Q 185.648820 95.131424, 170.839341 116.871577" stroke-width="0.500000" />
<polygon fill="#b2c4e1" fill-opacity="0.501961" points="28.752454,101.299195,100.160215,100.621027,29.055997,129.481690,62.564192,129.765032" />
<polygon fill="#8b7622" fill-opacity="0.501961" points="199,93 201,86 201,98" />
<g transform="translate(195 74) rotate(242) scale(7 1)"><rect fill="#ffff5d" fill-opacity="0.501961" x="-0.5" y="-0.5" width="1" height="1" /></g>
<polygon fill="#68a9ea" fill-opacity="0.501961" points="186,16 89,25 30,74" />
<ellipse fill="#88b6ea" fill-opacity="0.501961" cx="157" cy="39" rx="13" ry="11" />
<polygon fill="#83532f" fill-opacity="0.501961" points="191.183799,95.378857,199.012788,68.795225,195.686155,69.618754,200.029186,84.144122" />
<polygon fill="#cacfd5" fill-opacity="0.501961" points="247.088720,104.212326,255.751107,165.860585,264.263243,77.341092,261.651599,103.325211" />
<polygon fill="#4e2108" fill-opacity="0.501961" points="181.414702,93.263573,195.980392,94.469258,188.794650,94.030996,183.454364,88.052494" />
<g transform="translate(191 75) rotate(160) scale(6 7)"><rect fill="#ff4c36" fill-opacity="0.501961" x="-0.5" y="-0.5" width="1" height="1" /></g>
<rect fill="#96c3f9" fill-opacity="0.501961" x="169" y="84" width="8" height="19" />
<polygon fill="#95afd4" fill-opacity="0.501961" points="144,5 184,-16 184,3" />
<g transform="translate(206 32) rotate(189) scale(1 20)"><rect fill="#6ea2d7" fill-opacity="0.501961" x="-0.5" y="-0.5" width="1" height="1" /></g>
<polygon fill="#9ebae0" fill-opacity="0.501961" points="168.614157,22.607326,156.638648,34.627697,187.392633,33.132101,181.637653,27.386228" />
<path stroke="#5e5748" stroke-opacity="0.501961" fill="none" d="M 209.559703 185.000000 Q 162.421043 185.000000, 164.335244 138.239621" stroke-width="0.500000" />
<rect fill="#60a1e2" fill-opacity="0.501961" x="142" y="8" width="46" height="16" />
<g transform="translate(66.977740 18.681456) rotate(345.192497) scale(25.776910 5.699431)"><ellipse fill="#75a6dd" fill-opacity="0.501961" cx="0" cy="0" rx="1" ry="1" /></g>
<g transform="translate(168 83) rotate(276) scale(19 1)"><rect fill="#735238" fill-opacity="0.501961" x="-0.5" y="-0.5" width="1" height="1" /></g>
<rect fill="#6d4732" fill-opacity="0.501961" x="174" y="155" width="2" height="15" />
<g transform="translate(0.000000 22.347138) rotate(29.501255) scale(24.142848 6.629116)"><ellipse fill="#7193bb" fill-opacity="0.501961" cx="0" cy="0" rx="1" ry="1" /></g>
<polygon fill="#d7dee7" fill-opacity="0.501961" points="167,185 122,117 133,167" />
<rect fill="#326fa3" fill-opacity="0.501961" x="178" y="114" width="2" height="13" />
<polygon fill="#22140f" fill-opacity="0.501961" points="209,61 212,55 202,41" />
<g transform="translate(170 46) rotate(314) scale(13 1)"><rect fill="#443f45" fill-opacity="0.501961" x="-0.5" y="-0.5" width="1" height="1" /></g>
<polygon fill="#d8d5dd" fill-opacity="0.501961" points="173.604445,166.566473,171.353621,165.215501,169.214654,110.887886,178.223649,97.402768" />
<g transform="translate(222.039101 135.926425) rotate(249.418356) scale(16.343537 15.975237)"><ellipse fill="#d3d7db" fill-opacity="0.501961" cx="0" cy="0" rx="1" ry="1" /></g>
<rect fill="#bc8d55" fill-opacity="0.501961" x="181" y="132" width="4" height="3" />
<rect fill="#7cb9f7" fill-opacity="0.501961" x="173" y="87" width="5" height="13" />
<g transform="translate(180 47) rotate(54) scale(7 5)"><rect fill="#6bb2fd" fill-opacity="0.501961" x="-0.5" y="-0.5" width="1" height="1" /></g>
<rect fill="#1a4667" fill-opacity="0.501961" x="176" y="128" width="7" height="4" />
<rect fill="#52442b" fill-opacity="0.501961" x="162" y="141" width="5" height="20" />
<g transform="translate(188 52) rotate(74) scale(11 1)"><rect fill="#4e0000" fill-opacity="0.501961" x="-0.5" y="-0.5" width="1" height="1" /></g>
<ellipse fill="#4b2e1c" fill-opacity="0.501961" cx="187" cy="138" rx="17" ry="1" />
<rect fill="#72583f" fill-opacity="0.501961" x="207" y="0" width="2" height="30" />
<polygon fill="#96afd5" fill-opacity="0.501961" points="125.216188,5.230867,127.498565,16.768282,93.278317,13.723228,4.120927,-16.000000" />
<polygon fill="#72a6d8" fill-opacity="0.501961" points="1,118 11,91 49,121" />
<g transform="translate(208 169) rotate(258) scale(29 1)"><rect fill="#877d75" fill-opacity="0.501961" x="-0.5" y="-0.5" width="1" height="1" /></g>
<g transform="translate(122.152126 0.000000) rotate(121.506246) scale(7.979516 30.938459)"><ellipse fill="#6ea4de" fill-opacity="0.501961" cx="0" cy="0" rx="1" ry="1" /></g>
<g transform="translate(196 67) rotate(237) scale(1 12)"><rect fill="#658392" fill-opacity="0.501961" x="-0.5" y="-0.5" width="1" height="1" /></g>
<rect fill="#40210c" fill-opacity="0.501961" x="167" y="144" width="3" height="1" />
<rect fill="#68b5fc" fill-opacity="0.501961" x="171" y="59" width="10" height="6" />
<rect fill="#bad0f0" fill-opacity="0.501961" x="92" y="94" width="73" height="13" />
<polygon fill="#cbd4e0" fill-opacity="0.501961" points="197.418781,181.286444,202.751242,148.229019,196.877350,151.697463,197.953949,157.747486" />
<g transform="translate(159.780470 140.724101) rotate(338.053689) scale(1.000000 8.506741)"><ellipse fill="#a29e9a" fill-opacity="0.501961" cx="0" cy="0" rx="1" ry="1" /></g>
<path stroke="#504c49" stroke-opacity="0.501961" fill="none" d="M 191.036583 94.354665 Q 203.228850 136.222664, 214.367590 167.027778" stroke-width="0.500000" />
<rect fill="#ff4741" fill-opacity="0.501961" x="205" y="62" width="3" height="3" />
<g transform="translate(171 44) rotate(172) scale(1 17)"><rect fill="#69584e" fill-opacity="0.501961" x="-0.5" y="-0.5" width="1" height="1" /></g>
<g transform="translate(62 167) rotate(239) scale(10 1)"><rect fill="#85898b" fill-opacity="0.501961" x="-0.5" y="-0.5" width="1" height="1" /></g>
<g transform="translate(55.904084 142.916506) rotate(257.011416) scale(15.325591 36.900919)"><ellipse fill="#d9dbde" fill-opacity="0.501961" cx="0" cy="0" rx="1" ry="1" /></g>
<g transform="translate(199.407607 96.745109) rotate(97.574109) scale(1.896933 1.000000)"><ellipse fill="#bd5a31" fill-opacity="0.501961" cx="0" cy="0" rx="1" ry="1" /></g>
<polygon fill="#f97c62" fill-opacity="0.501961" points="186,46 186,63 183,53" />
<rect fill="#0c0c01" fill-opacity="0.501961" x="178" y="135" width="8" height="4" />
<rect fill="#382619" fill-opacity="0.501961" x="204" y="43" width="12" height="2" />
<polygon fill="#aac4e7" fill-opacity="0.501961" points="230.398989,106.102378,226.661380,102.584176,208.209040,108.995688,211.914458,88.084972" />
<g transform="translate(194 70) rotate(343) scale(5 2)"><rect fill="#2c362e" fill-opacity="0.501961" x="-0.5" y="-0.5" width="1" height="1" /></g>
<g transform="translate(184 88) rotate(197) scale(1 24)"><rect fill="#140000" fill-opacity="0.501961" x="-0.5" y="-0.5" width="1" height="1" /></g>
<g transform="translate(244 109) rotate(261) scale(15 3)"><rect fill="#ccd8ea" fill-opacity="0.501961" x="-0.5" y="-0.5" width="1" height="1" /></g>
<ellipse fill="#68b2ff" fill-opacity="0.501961" cx="202" cy="76" rx="3" ry="7" />
<rect fill="#6eb2f2" fill-opacity="0.501961" x="238" y="75" width="3" height="11" />
<polygon fill="#8ebbeb" fill-opacity="0.501961" points="125.544137,94.629935,136.132339,87.298921,49.125315,104.670119,39.444799,96.695730" />
<polygon fill="#778481" fill-opacity="0.501961" points="185,95 188,99 177,103" />
<g transform="translate(183 82) rotate(102) scale(14 1)"><rect fill="#bc7b31" fill-opacity="0.501961" x="-0.5" y="-0.5" width="1" height="1" /></g>
<ellipse fill="#fa8d70" fill-opacity="0.501961" cx="179" cy="68" rx="5" ry="4" />
<polygon fill="#74b4f4" fill-opacity="0.501961" points="134.381627,79.265320,154.803178,92.335675,164.907779,89.873442,168.386808,53.265661" />
<g transform="translate(214.296284 106.718696) rotate(292.406080) scale(8.527852 5.174373)"><ellipse fill="#cacedc" fill-opacity="0.501961" cx="0" cy="0" rx="1" ry="1" /></g>
<rect fill="#853f14" fill-opacity="0.501961" x="178" y="99" width="1" height="7" />
<ellipse fill="#47c4ff" fill-opacity="0.501961" cx="192" cy="51" rx="1" ry="1" />
<path stroke="#71645b" stroke-opacity="0.501961" fill="none" d="M 186.042729 50.504872 Q 195.027519 -15.404439, 185.138029 -16.000000" stroke-width="0.500000" />
<rect fill="#bc2c28" fill-opacity="0.501961" x="176" y="75" width="15" height="3" />
<rect fill="#2b1b10" fill-opacity="0.501961" x="204" y="139" width="3" height="8" />
<g transform="translate(231 69) rotate(169) scale(1 70)"><rect fill="#77b1eb" fill-opacity="0.501961" x="-0.5" y="-0.5" width="1" height="1" /></g>
<g transform="translate(196 124) rotate(93) scale(20 1)"><rect fill="#d1d9e4" fill-opacity="0.501961" x="-0.5" y="-0.5" width="1" height="1" /></g>
<rect fill="#5b5d5b" fill-opacity="0.501961" x="31" y="164" width="1" height="6" />
<rect fill="#dfe1eb" fill-opacity="0.501961" x="175" y="104" width="3" height="22" />
<g transform="translate(247 130) rotate(169) scale(1 28)"><rect fill="#dce3e8" fill-opacity="0.501961" x="-0.5" y="-0.5" width="1" height="1" /></g>
<rect fill="#765223" fill-opacity="0.501961" x="206" y="65" width="1" height="15" />
<rect fill="#191922" fill-opacity="0.501961" x="200" y="94" width="2" height="12" />
<g transform="translate(129 162) rotate(241) scale(24 1)"><rect fill="#949698" fill-opacity="0.501961" x="-0.5" y="-0.5" width="1" height="1" /></g>
<polygon fill="#d5dce9" fill-opacity="0.501961" points="155.037391,104.538742,167.275437,91.512499,138.509742,100.275075,157.451372,167.960591" />
<rect fill="#d8dfea" fill-opacity="0.501961" x="189" y="114" width="2" height="16" />
<rect fill="#dde2e8" fill-opacity="0.501961" x="167" y="128" width="9" height="9" />
<polygon fill="#5b93ca" fill-opacity="0.501961" points="18,54 -16,50 -14,121" />
<g transform="translate(190 85) rotate(75) scale(5 4)"><rect fill="#1c0000" fill-opacity="0.501961" x="-0.5" y="-0.5" width="1" height="1" /></g>
<polygon fill="#66a8e7" fill-opacity="0.501961" points="215,48 216,61 224,45" />
<path stroke="#a99e94" stroke-opacity="0.501961" fill="none" d="M 160.698633 140.121780 Q 194.180236 137.106957, 189.830990 114.426203" stroke-width="0.500000" />
<polygon fill="#71a4d7" fill-opacity="0.501961" points="19.552161,74.649504,27.941528,43.448618,54.616918,58.244234,3.061711,62.630943" />
<path stroke="#7e7d7c" stroke-opacity="0.501961" fill="none" d="M 4.963628 185.000000 Q 2.672285 148.088046, 0.270441 138.686166" stroke-width="0.500000" />
<rect fill="#886f59" fill-opacity="0.501961" x="190" y="132" width="2" height="15" />
<g transform="translate(233 66) rotate(254) scale(24 1)"><rect fill="#656d7b" fill-opacity="0.501961" x="-0.5" y="-0.5" width="1" height="1" /></g>
<path stroke="#826b56" stroke-opacity="0.501961" fill="none" d="M 213.013634 55.235565 Q 203.201947 123.900810, 208.418262 156.701183" stroke-width="0.500000" />
<ellipse fill="#574a50" fill-opacity="0.501961" cx="185" cy="42" rx="9" ry="1" />
<g transform="translate(203 63) rotate(123) scale(23 1)"><rect fill="#581a13" fill-opacity="0.501961" x="-0.5" y="-0.5" width="1" height="1" /></g>
<rect fill="#71b7fc" fill-opacity="0.501961" x="208" y="63" width="2" height="10" />
<g transform="translate(181 39) rotate(89) scale(5 10)"><rect fill="#74b0ec" fill-opacity="0.501961" x="-0.5" y="-0.5" width="1" height="1" /></g>
<ellipse fill="#623f19" fill-opacity="0.501961" cx="201" cy="147" rx="2" ry="2" />
<g transform="translate(150 153) rotate(67) scale(28 1)"><rect fill="#979493" fill-opacity="0.501961" x="-0.5" y="-0.5" width="1" height="1" /></g>
<path stroke="#847566" stroke-opacity="0.501961" fill="none" d="M 155.304834 130.345047 Q 174.047821 171.419786, 157.046687 185.000000" stroke-width="0.500000" />
<rect fill="#d0c9c6" fill-opacity="0.501961" x="179" y="144" width="2" height="10" />
<polygon fill="#bac0c7" fill-opacity="0.501961" points="244.237715,144.277512,250.758075,182.339137,220.145854,132.803866,250.956599,175.752907" />
<polygon fill="#5695d2" fill-opacity="0.501961" points="253,78 215,-7 271,48" />
<rect fill="#0a0000" fill-opacity="0.501961" x="186" y="64" width="5" height="4" />
<polygon fill="#61a1df" fill-opacity="0.501961" points="235.712664,78.179248,241.391626,80.831258,230.434263,17.990290,233.065441,62.731747" />
<polygon fill="#ced5de" fill-opacity="0.501961" points="67.845304,172.467171,39.836809,150.763265,54.070628,185.000000,89.873348,133.152772" />
<ellipse fill="#250000" fill-opacity="0.501961" cx="180" cy="79" rx="2" ry="2" />
<g transform="translate(203 52) rotate(277) scale(5 3)"><rect fill="#5194d6" fill-opacity="0.501961" x="-0.5" y="-0.5" width="1" height="1" /></g>
<path stroke="#7d7673" stroke-opacity="0.501961" fill="none" d="M 252.461051 149.980103 Q 246.529269 107.312119, 239.334757 59.023240" stroke-width="0.500000" />
<g transform="translate(212 66) rotate(280) scale(39 1)"><rect fill="#745840" fill-opacity="0.501961" x="-0.5" y="-0.5" width="1" height="1" /></g>
<polygon fill="#2f3e4a" fill-opacity="0.501961" points="190.973783,140.529917,198.168475,129.916188,199.481525,113.757441,198.787921,133.140530" />
<g transform="translate(186 96) rotate(113) scale(1 11)"><rect fill="#ce9c6b" fill-opacity="0.501961" x="-0.5" y="-0.5" width="1" height="1" /></g>
<rect fill="#43291b" fill-opacity="0.501961" x="202" y="162" width="3" height="8" />
<path stroke="#81736a" stroke-opacity="0.501961" fill="none" d="M 253.785673 176.554870 Q 250.736369 156.629599, 246.668088 136.348126" stroke-width="0.500000" />
<g transform="translate(202 41) rotate(332) scale(6 1)"><rect fill="#45341c" fill-opacity="0.501961" x="-0.5" y="-0.5" width="1" height="1" /></g>
<polygon fill="#c8d0df" fill-opacity="0.501961" points="86.827957,105.882813,79.478025,118.206456,52.982940,135.210185,13.258430,136.775765" />
<rect fill="#8f684e" fill-opacity="0.501961" x="168" y="55" width="2" height="13" />
<g transform="translate(205 100) rotate(85) scale(11 1)"><rect fill="#050500" fill-opacity="0.501961" x="-0.5" y="-0.5" width="1" height="1" /></g>
<polygon fill="#8c9194" fill-opacity="0.501961" points="56.659817,174.576726,49.899351,185.000000,44.317092,165.580845,60.500570,185.000000" />
<ellipse fill="#e59761" fill-opacity="0.501961" cx="188" cy="93" rx="2" ry="6" />
<rect fill="#100f0b" fill-opacity="0.501961" x="200" y="118" width="4" height="19" />
<path stroke="#7e6d60" stroke-opacity="0.501961" fill="none" d="M 243.058608 151.395009 Q 244.792199 143.360144, 233.296826 97.379472" stroke-width="0.500000" />
<path stroke="#68432a" stroke-opacity="0.501961" fill="none" d="M 232.465481 109.279402 Q 244.559151 150.005513, 244.399325 153.805418" stroke-width="0.500000" />
<ellipse fill="#6face6" fill-opacity="0.501961" cx="196" cy="33" rx="5" ry="5" />
<g transform="translate(172 55) rotate(4) scale(1 21)"><rect fill="#76b0ea" fill-opacity="0.501961" x="-0.5" y="-0.5" width="1" height="1" /></g>
<polygon fill="#9c0500" fill-opacity="0.501961" points="188,54 195,57 186,56" />
<rect fill="#d8e0ea" fill-opacity="0.501961" x="194" y="127" width="1" height="8" />
<path stroke="#807152" stroke-opacity="0.501961" fill="none" d="M 197.662399 119.593653 Q 191.210160 103.218419, 199.183746 81.131063" stroke-width="0.500000" />
<g transform="translate(202 141) rotate(34) scale(1 2)"><rect fill="#ffffff" fill-opacity="0.501961" x="-0.5" y="-0.5" width="1" height="1" /></g>
<polygon fill="#aeb7c1" fill-opacity="0.501961" points="245.939873,161.567012,247.932764,182.359661,205.601202,160.159861,210.223056,171.858632" />
<rect fill="#63a5e1" fill-opacity="0.501961" x="207" y="65" width="2" height="20" />
<path stroke="#e5a461" stroke-opacity="0.501961" fill="none" d="M 186.648653 52.231530 Q 185.080789 68.651861, 182.139568 80.693359" stroke-width="0.500000" />
<rect fill="#0a0607" fill-opacity="0.501961" x="197" y="91" width="2" height="25" />
<path stroke="#392312" stroke-opacity="0.501961" fill="none" d="M 245.462159 159.397501 Q 245.852615 154.882066, 242.186282 143.312552" stroke-width="0.500000" />
<polygon fill="#80aee1" fill-opacity="0.501961" points="104.704912,5.755872,60.660637,48.247974,91.504726,54.017620,78.223460,45.444890" />
<g transform="translate(205 53) rotate(178) scale(17 1)"><rect fill="#563626" fill-opacity="0.501961" x="-0.5" y="-0.5" width="1" height="1" /></g>
<g transform="translate(49 12) rotate(188) scale(37 14)"><rect fill="#8ba9d2" fill-opacity="0.501961" x="-0.5" y="-0.5" width="1" height="1" /></g>
<ellipse fill="#7c654f" fill-opacity="0.501961" cx="163" cy="138" rx="2" ry="2" />
<g transform="translate(245 142) rotate(166) scale(1 31)"><rect fill="#cfd5da" fill-opacity="0.501961" x="-0.5" y="-0.5" width="1" height="1" /></g>
<rect fill="#c9d5e3" fill-opacity="0.501961" x="175" y="165" width="4" height="5" />
<rect fill="#6ab3f9" fill-opacity="0.501961" x="197" y="45" width="2" height="16" />
</g>
</svg>