<svg xmlns="http://www.w3.org/2000/svg" version="1.1" width="1024" height="632">
<rect x="0" y="0" width="1024" height="632" fill="#2c462e" />
<g transform="scale(4.000000) translate(0.5 0.5)">
<path stroke="#ffffff" stroke-opacity="0.501961" fill="none" d="M 168.777134 66.005137 Q 114.095172 121.709736, 90.143852 58.762282" stroke-width="0.500000" />
<path stroke="#ffffff" stroke-opacity="0.501961" fill="none" d="M 91.310996 64.103972 Q 114.419276 121.727658, 168.841449 68.121445" stroke-width="0.500000" />
<path stroke="#ffffff" stroke-opacity="0.501961" fill="none" d="M 91.245031 63.123293 Q 131.050451 120.555762, 170.585201 65.741103" stroke-width="0.500000" />
<path stroke="#fffcff" stroke-opacity="0.501961" fill="none" d="M 78.529280 78.348421 Q 136.754624 119.545605, 146.020477 44.956995" stroke-width="0.500000" />
<path stroke="#ffffff" stroke-opacity="0.501961" fill="none" d="M 169.612997 63.790775 Q 119.065629 117.860410, 90.725940 54.413782" stroke-width="0.500000" />
<path stroke="#ffffff" stroke-opacity="0.501961" fill="none" d="M 158.391194 82.933869 Q 123.880051 33.629925, 88.040952 94.746333" stroke-width="0.500000" />
<path stroke="#fffdff" stroke-opacity="0.501961" fill="none" d="M 147.843072 48.642398 Q 147.497596 114.798306, 81.213088 88.782173" stroke-width="0.500000" />
<path stroke="#f9f0fe" stroke-opacity="0.501961" fill="none" d="M 174.434209 65.730020 Q 125.485774 78.349953, 43.580010 61.259334" stroke-width="0.500000" />
<path stroke="#ffffff" stroke-opacity="0.501961" fill="none" d="M 169.975979 62.385592 Q 116.454337 115.147047, 93.616883 54.732850" stroke-width="0.500000" />
<path stroke="#ffffff" stroke-opacity="0.501961" fill="none" d="M 168.722953 63.694775 Q 157.889722 106.490106, 87.470198 80.410859" stroke-width="0.500000" />
<path stroke="#ffffff" stroke-opacity="0.501961" fill="none" d="M 92.044293 61.631579 Q 139.745857 113.517341, 170.400283 63.651263" stroke-width="0.500000" />
<path stroke="#ffffff" stroke-opacity="0.501961" fill="none" d="M 149.121240 99.467888 Q 149.831042 54.282924, 58.634846 71.848479" stroke-width="0.500000" />
<path stroke="#ffffff" stroke-opacity="0.501961" fill="none" d="M 85.821188 89.424624 Q 136.257960 66.412168, 164.195108 50.258946" stroke-width="0.500000" />
<path stroke="#ffffff" stroke-opacity="0.501961" fill="none" d="M 84.180813 81.185475 Q 138.391126 109.385223, 143.813757 43.395760" stroke-width="0.500000" />
<path stroke="#ffffff" stroke-opacity="0.501961" fill="none" d="M 85.582397 88.704711 Q 140.411641 109.012198, 147.714574 49.029599" stroke-width="0.500000" />
<path stroke="#ffffff" stroke-opacity="0.501961" fill="none" d="M 147.172083 99.951406 Q 148.714893 46.751206, 77.609464 70.379559" stroke-width="0.500000" />
<path stroke="#ffffff" stroke-opacity="0.501961" fill="none" d="M 168.807135 49.335007 Q 106.945749 81.776267, 87.899806 91.294174" stroke-width="0.500000" />
<path stroke="#ffffff" stroke-opacity="0.501961" fill="none" d="M 88.301486 60.377876 Q 127.887556 97.463402, 164.907455 71.162069" stroke-width="0.500000" />
<path stroke="#fffbff" stroke-opacity="0.501961" fill="none" d="M 165.434476 61.436263 Q 124.843272 120.638873, 86.495450 58.761837" stroke-width="0.500000" />
<path stroke="#ffffff" stroke-opacity="0.501961" fill="none" d="M 148.126748 49.463471 Q 129.657247 113.345793, 86.511758 80.495849" stroke-width="0.500000" />
<path stroke="#fffaff" stroke-opacity="0.501961" fill="none" d="M 82.383650 90.076779 Q 122.566519 69.403466, 162.364338 50.509138" stroke-width="0.500000" />
<path stroke="#ffffff" stroke-opacity="0.501961" fill="none" d="M 143.396754 102.409172 Q 145.765387 42.389538, 90.476708 65.487084" stroke-width="0.500000" />
<path stroke="#ffffff" stroke-opacity="0.501961" fill="none" d="M 163.311489 78.323679 Q 106.612548 99.798299, 107.762154 51.050364" stroke-width="0.500000" />
<path stroke="#ffffff" stroke-opacity="0.501961" fill="none" d="M 170.034379 53.113379 Q 126.031605 70.125308, 91.498879 94.444404" stroke-width="0.500000" />
<path stroke="#ffeeff" stroke-opacity="0.501961" fill="none" d="M 159.323853 76.445845 Q 113.454474 32.643623, 90.688072 93.212365" stroke-width="0.500000" />
<path stroke="#fff0ff" stroke-opacity="0.501961" fill="none" d="M 97.523986 96.238963 Q 90.438163 64.832854, 167.040333 52.665286" stroke-width="0.500000" />
<path stroke="#ffffff" stroke-opacity="0.501961" fill="none" d="M 72.538594 72.081924 Q 148.671493 57.591550, 144.886321 103.951946" stroke-width="0.500000" />
<path stroke="#ffeaff" stroke-opacity="0.501961" fill="none" d="M 83.114091 89.462040 Q 148.396737 109.992332, 144.812781 48.382666" stroke-width="0.500000" />
<path stroke="#fffeff" stroke-opacity="0.501961" fill="none" d="M 88.204258 79.872553 Q 125.079613 108.356753, 143.507278 47.452671" stroke-width="0.500000" />
<path stroke="#fff8ff" stroke-opacity="0.501961" fill="none" d="M 103.777564 53.050169 Q 161.521064 61.606606, 137.549993 106.336743" stroke-width="0.500000" />
<path stroke="#ffffff" stroke-opacity="0.501961" fill="none" d="M 84.450065 71.257064 Q 145.458711 47.651944, 141.385864 105.478698" stroke-width="0.500000" />
<path stroke="#fff8ff" stroke-opacity="0.501961" fill="none" d="M 90.922080 59.995581 Q 114.545809 106.822758, 166.587451 65.511555" stroke-width="0.500000" />
<path stroke="#fff1ff" stroke-opacity="0.501961" fill="none" d="M 126.724442 44.904542 Q 146.895381 85.446436, 85.703061 91.910847" stroke-width="0.500000" />
<path stroke="#fff7ff" stroke-opacity="0.501961" fill="none" d="M 163.981436 54.753194 Q 95.018749 66.529752, 101.267413 98.928498" stroke-width="0.500000" />
<path stroke="#ffffff" stroke-opacity="0.501961" fill="none" d="M 163.651777 75.019878 Q 114.374415 100.737081, 110.396074 51.119536" stroke-width="0.500000" />
<path stroke="#ffffff" stroke-opacity="0.501961" fill="none" d="M 93.808509 62.538175 Q 140.757122 94.704355, 165.703212 67.374423" stroke-width="0.500000" />
<path stroke="#ffffff" stroke-opacity="0.501961" fill="none" d="M 128.227775 46.972852 Q 101.202638 88.160790, 151.369713 93.225524" stroke-width="0.500000" />
<path stroke="#ffe4fc" stroke-opacity="0.501961" fill="none" d="M 149.696981 99.120989 Q 150.044556 45.957433, 77.873131 69.441647" stroke-width="0.500000" />
<path stroke="#ffffff" stroke-opacity="0.501961" fill="none" d="M 133.071317 106.528361 Q 142.394952 49.913928, 101.524961 56.701443" stroke-width="0.500000" />
<path stroke="#ffffff" stroke-opacity="0.501961" fill="none" d="M 89.267883 80.544979 Q 142.324573 86.546153, 143.711263 49.313614" stroke-width="0.500000" />
<path stroke="#fffdff" stroke-opacity="0.501961" fill="none" d="M 109.442839 45.016207 Q 105.595830 98.689023, 158.086986 82.335313" stroke-width="0.500000" />
<path stroke="#ffe3fc" stroke-opacity="0.501961" fill="none" d="M 170.855742 67.103351 Q 113.897017 114.632421, 84.754296 87.754792" stroke-width="0.500000" />
<path stroke="#fffdff" stroke-opacity="0.501961" fill="none" d="M 85.290861 89.255288 Q 138.174694 85.812117, 123.459258 46.283113" stroke-width="0.500000" />
<path stroke="#ffefff" stroke-opacity="0.501961" fill="none" d="M 94.154687 67.771250 Q 134.331171 127.186420, 166.770707 67.565029" stroke-width="0.500000" />
<path stroke="#ffeafc" stroke-opacity="0.501961" fill="none" d="M 164.247912 70.176591 Q 115.843883 127.244429, 88.991792 59.310968" stroke-width="0.500000" />
<path stroke="#ffe6ff" stroke-opacity="0.501961" fill="none" d="M 142.913655 44.081521 Q 137.022689 103.228446, 86.444023 87.977022" stroke-width="0.500000" />
<path stroke="#fff2ff" stroke-opacity="0.501961" fill="none" d="M 152.370727 96.554291 Q 120.348545 42.072964, 87.807015 84.778980" stroke-width="0.500000" />
<path stroke="#fff0ff" stroke-opacity="0.501961" fill="none" d="M 106.597878 47.631352 Q 153.431297 85.163856, 135.782402 106.364616" stroke-width="0.500000" />
<path stroke="#ffe7ff" stroke-opacity="0.501961" fill="none" d="M 91.266291 94.086141 Q 132.504211 38.319730, 160.017631 81.804415" stroke-width="0.500000" />
<path stroke="#ffffff" stroke-opacity="0.501961" fill="none" d="M 127.412715 48.724531 Q 137.621841 71.592671, 87.663730 92.725631" stroke-width="0.500000" />
<path stroke="#fff7ff" stroke-opacity="0.501961" fill="none" d="M 94.938712 68.044780 Q 141.362635 110.130271, 161.054091 63.631090" stroke-width="0.500000" />
<path stroke="#fff0f9" stroke-opacity="0.501961" fill="none" d="M 92.445607 94.839243 Q 148.835621 101.688152, 147.730345 60.019786" stroke-width="0.500000" />
<path stroke="#ffe8fd" stroke-opacity="0.501961" fill="none" d="M 135.028080 107.161285 Q 148.374381 51.240389, 106.100848 51.198247" stroke-width="0.500000" />
<path stroke="#ffedff" stroke-opacity="0.501961" fill="none" d="M 164.484891 58.915335 Q 106.078094 61.271209, 101.863273 96.924208" stroke-width="0.500000" />
<path stroke="#ffe8ff" stroke-opacity="0.501961" fill="none" d="M 91.021086 66.434241 Q 144.383476 44.596444, 145.536947 99.878080" stroke-width="0.500000" />
<path stroke="#ffd2f7" stroke-opacity="0.501961" fill="none" d="M 105.128781 51.575213 Q 162.261885 62.465789, 139.945099 105.633494" stroke-width="0.500000" />
<path stroke="#ffdbff" stroke-opacity="0.501961" fill="none" d="M 85.582390 84.479474 Q 138.099949 114.855674, 146.733304 48.639888" stroke-width="0.500000" />
<path stroke="#fffdff" stroke-opacity="0.501961" fill="none" d="M 162.304645 68.186226 Q 123.751501 94.144065, 112.297883 50.821426" stroke-width="0.500000" />
<path stroke="#ffddff" stroke-opacity="0.501961" fill="none" d="M 127.676029 45.386301 Q 101.336831 83.177718, 144.099797 102.296819" stroke-width="0.500000" />
<path stroke="#ffe2f0" stroke-opacity="0.501961" fill="none" d="M 169.067123 68.881183 Q 130.036434 122.267036, 94.122429 59.636423" stroke-width="0.500000" />
<path stroke="#fff8fe" stroke-opacity="0.501961" fill="none" d="M 135.535983 106.286250 Q 111.896088 61.552145, 129.013704 50.675804" stroke-width="0.500000" />
<path stroke="#ffddf9" stroke-opacity="0.501961" fill="none" d="M 147.947708 59.609793 Q 93.927596 43.751138, 98.925686 98.359627" stroke-width="0.500000" />
<path stroke="#fff9fd" stroke-opacity="0.501961" fill="none" d="M 144.831987 50.247530 Q 142.758156 81.876504, 84.354258 82.398328" stroke-width="0.500000" />
<path stroke="#ffffff" stroke-opacity="0.501961" fill="none" d="M 126.383215 49.085843 Q 128.843061 70.285693, 96.679180 98.526754" stroke-width="0.500000" />
<path stroke="#fed8f5" stroke-opacity="0.501961" fill="none" d="M 162.304938 73.037193 Q 110.182031 39.384569, 93.958798 91.621090" stroke-width="0.500000" />
<path stroke="#cad0cf" stroke-opacity="0.501961" fill="none" d="M 43.970244 58.657399 Q 141.031799 83.783068, 165.142036 65.644844" stroke-width="0.500000" />
<path stroke="#ffedff" stroke-opacity="0.501961" fill="none" d="M 105.079474 56.347579 Q 150.562853 61.607315, 136.689191 105.217627" stroke-width="0.500000" />
<path stroke="#fff2f9" stroke-opacity="0.501961" fill="none" d="M 162.915225 79.278315 Q 119.049854 100.011980, 111.267402 50.596525" stroke-width="0.500000" />
<path stroke="#fff6ff" stroke-opacity="0.501961" fill="none" d="M 102.024052 97.914090 Q 119.641839 72.007329, 147.772827 51.763915" stroke-width="0.500000" />
<path stroke="#ffe7ff" stroke-opacity="0.501961" fill="none" d="M 163.320772 65.614279 Q 160.694550 101.284809, 90.603496 82.922794" stroke-width="0.500000" />
<path stroke="#ffe2fc" stroke-opacity="0.501961" fill="none" d="M 108.443879 53.762545 Q 119.826803 110.581869, 159.445373 82.588621" stroke-width="0.500000" />
<path stroke="#ffe7eb" stroke-opacity="0.501961" fill="none" d="M 90.464753 93.220551 Q 145.076764 83.770763, 128.564429 49.795486" stroke-width="0.500000" />
<path stroke="#fff5fd" stroke-opacity="0.501961" fill="none" d="M 94.785032 70.656564 Q 139.364910 52.003204, 135.039450 102.929838" stroke-width="0.500000" />
<path stroke="#ffdefb" stroke-opacity="0.501961" fill="none" d="M 97.684616 62.476749 Q 118.173827 102.740765, 164.320863 65.320770" stroke-width="0.500000" />
<path stroke="#ffe8fd" stroke-opacity="0.501961" fill="none" d="M 147.607769 69.257679 Q 100.583168 52.015809, 99.191834 99.094261" stroke-width="0.500000" />
<path stroke="#ffeff9" stroke-opacity="0.501961" fill="none" d="M 95.774342 96.618981 Q 149.955184 101.346425, 127.873556 51.747366" stroke-width="0.500000" />
<path stroke="#fff1f9" stroke-opacity="0.501961" fill="none" d="M 163.720364 65.514643 Q 133.009747 118.206963, 95.393797 72.034201" stroke-width="0.500000" />
<path stroke="#ffdcdd" stroke-opacity="0.501961" fill="none" d="M 83.770661 88.074476 Q 137.749803 55.418982, 147.116437 99.954720" stroke-width="0.500000" />
<path stroke="#ffdce6" stroke-opacity="0.501961" fill="none" d="M 93.567057 92.013318 Q 137.043687 98.641265, 125.694982 44.782503" stroke-width="0.500000" />
<path stroke="#ffc6f2" stroke-opacity="0.501961" fill="none" d="M 146.487307 54.890393 Q 143.592614 110.047848, 84.335867 80.098257" stroke-width="0.500000" />
<path stroke="#ffc3ef" stroke-opacity="0.501961" fill="none" d="M 114.758982 48.819710 Q 97.202529 77.195000, 138.461499 102.335523" stroke-width="0.500000" />
<path stroke="#f9cfe7" stroke-opacity="0.501961" fill="none" d="M 152.748381 92.780457 Q 119.528811 110.478770, 90.709065 57.748175" stroke-width="0.500000" />
<path stroke="#ffebf9" stroke-opacity="0.501961" fill="none" d="M 103.930135 99.341594 Q 114.620321 79.469517, 125.892339 45.776689" stroke-width="0.500000" />
<path stroke="#f8dced" stroke-opacity="0.501961" fill="none" d="M 99.316731 56.999303 Q 151.143072 64.004108, 141.028176 104.697343" stroke-width="0.500000" />
<path stroke="#ffd3e6" stroke-opacity="0.501961" fill="none" d="M 91.316957 80.577707 Q 134.480540 99.046981, 148.282075 46.715958" stroke-width="0.500000" />
<path stroke="#ffe4fa" stroke-opacity="0.501961" fill="none" d="M 116.664126 52.555970 Q 104.894428 89.562427, 154.335879 91.462668" stroke-width="0.500000" />
<path stroke="#fdf4f6" stroke-opacity="0.501961" fill="none" d="M 148.230227 56.337913 Q 149.515492 78.584532, 89.143436 70.620021" stroke-width="0.500000" />
<path stroke="#f7d5ed" stroke-opacity="0.501961" fill="none" d="M 95.523286 67.520027 Q 144.373564 108.427236, 161.538853 58.890295" stroke-width="0.500000" />
<path stroke="#f8e0f1" stroke-opacity="0.501961" fill="none" d="M 93.247914 61.510906 Q 135.401300 86.438194, 142.099839 46.283716" stroke-width="0.500000" />
<path stroke="#ffe0fd" stroke-opacity="0.501961" fill="none" d="M 124.853362 49.599026 Q 128.617706 83.115395, 84.638602 81.150627" stroke-width="0.500000" />
<path stroke="#fffaea" stroke-opacity="0.501961" fill="none" d="M 117.428068 52.942600 Q 130.077018 98.292971, 165.619291 74.437385" stroke-width="0.500000" />
<path stroke="#efcdde" stroke-opacity="0.501961" fill="none" d="M 149.494984 51.062302 Q 132.697054 104.870610, 87.916170 92.912581" stroke-width="0.500000" />
<path stroke="#fcd4f0" stroke-opacity="0.501961" fill="none" d="M 166.662211 65.831019 Q 112.974275 108.699827, 91.611186 61.547865" stroke-width="0.500000" />
<path stroke="#e5dadc" stroke-opacity="0.501961" fill="none" d="M 131.348824 102.113726 Q 147.303378 50.760034, 110.606325 46.945903" stroke-width="0.500000" />
<path stroke="#e8cfdf" stroke-opacity="0.501961" fill="none" d="M 103.519815 98.511852 Q 103.239610 61.084560, 158.455125 52.260629" stroke-width="0.500000" />
<path stroke="#ffcbea" stroke-opacity="0.501961" fill="none" d="M 83.370876 83.339887 Q 141.368488 100.039585, 143.709079 51.039252" stroke-width="0.500000" />
<path stroke="#f8cbe9" stroke-opacity="0.501961" fill="none" d="M 146.004537 100.576655 Q 153.913965 66.725568, 106.465165 49.860261" stroke-width="0.500000" />
<path stroke="#a6beb5" stroke-opacity="0.501961" fill="none" d="M 169.625147 52.007888 Q 73.931002 96.503904, 35.634312 43.149324" stroke-width="0.500000" />
<path stroke="#fff3f1" stroke-opacity="0.501961" fill="none" d="M 105.145026 54.024605 Q 145.066074 67.011186, 127.591776 96.231572" stroke-width="0.500000" />
<path stroke="#fee1df" stroke-opacity="0.501961" fill="none" d="M 134.024093 104.339423 Q 126.862239 99.327512, 116.046241 52.273877" stroke-width="0.500000" />
<path stroke="#ffdddc" stroke-opacity="0.501961" fill="none" d="M 164.239379 71.463252 Q 128.558084 101.061042, 109.176102 51.138281" stroke-width="0.500000" />
<path stroke="#001400" stroke-opacity="0.501961" fill="none" d="M -5.882770 149.557624 Q 271.000000 90.976636, 248.477547 -16.000000" stroke-width="0.500000" />
<path stroke="#f3dceb" stroke-opacity="0.501961" fill="none" d="M 110.424508 94.746278 Q 108.371474 43.892567, 150.040078 62.726784" stroke-width="0.500000" />
<path stroke="#001a00" stroke-opacity="0.501961" fill="none" d="M -9.138767 171.500001 Q 8.056976 117.383878, 271.000000 86.233188" stroke-width="0.500000" />
<path stroke="#f3d7e7" stroke-opacity="0.501961" fill="none" d="M 91.104574 62.626897 Q 148.015774 100.772076, 158.687891 82.323651" stroke-width="0.500000" />
<path stroke="#001700" stroke-opacity="0.501961" fill="none" d="M 254.303775 -0.524091 Q 190.317830 122.597826, -8.057813 153.344698" stroke-width="0.500000" />
<path stroke="#f8c0e3" stroke-opacity="0.501961" fill="none" d="M 139.965822 104.091377 Q 103.859978 88.799193, 128.898754 48.804644" stroke-width="0.500000" />
<path stroke="#ffdde3" stroke-opacity="0.501961" fill="none" d="M 147.689803 46.547722 Q 132.999813 84.593552, 87.660170 83.559685" stroke-width="0.500000" />
<path stroke="#001b00" stroke-opacity="0.501961" fill="none" d="M -16.000000 130.273801 Q 247.065760 129.780400, 247.793126 21.479148" stroke-width="0.500000" />
<path stroke="#ffd2f0" stroke-opacity="0.501961" fill="none" d="M 128.127376 47.478342 Q 119.753659 88.555529, 84.986029 87.217753" stroke-width="0.500000" />
<path stroke="#001700" stroke-opacity="0.501961" fill="none" d="M 249.255823 9.147100 Q 233.306827 92.750061, -10.292475 155.724565" stroke-width="0.500000" />
<path stroke="#000100" stroke-opacity="0.501961" fill="none" d="M 230.283455 123.580853 Q 146.239822 35.083710, 267.623513 -0.350497" stroke-width="0.500000" />
<path stroke="#001900" stroke-opacity="0.501961" fill="none" d="M -16.000000 161.542696 Q 271.000000 92.277443, 250.564924 -16.000000" stroke-width="0.500000" />
<path stroke="#001b00" stroke-opacity="0.501961" fill="none" d="M 259.458127 21.112605 Q 192.719525 173.000000, -4.059509 51.860141" stroke-width="0.500000" />
<path stroke="#efaad7" stroke-opacity="0.501961" fill="none" d="M 107.573804 47.540923 Q 110.907905 108.146209, 149.210496 96.710567" stroke-width="0.500000" />
<path stroke="#a2beb4" stroke-opacity="0.501961" fill="none" d="M 30.661425 50.356056 Q 109.662942 90.961718, 130.412355 52.047583" stroke-width="0.500000" />
<path stroke="#f9e0f0" stroke-opacity="0.501961" fill="none" d="M 97.232494 68.614758 Q 142.013838 54.305149, 147.446930 95.926834" stroke-width="0.500000" />
<path stroke="#000100" stroke-opacity="0.501961" fill="none" d="M 252.892279 5.159925 Q 144.296990 63.199582, 234.931237 127.298702" stroke-width="0.500000" />
<path stroke="#eecde1" stroke-opacity="0.501961" fill="none" d="M 94.189582 87.806963 Q 153.480988 105.116412, 146.772385 50.447346" stroke-width="0.500000" />
<path stroke="#eadfdf" stroke-opacity="0.501961" fill="none" d="M 160.537181 65.756129 Q 123.609735 119.423581, 93.190555 69.495624" stroke-width="0.500000" />
<path stroke="#000200" stroke-opacity="0.501961" fill="none" d="M 10.656193 -7.904612 Q -16.000000 156.702061, 49.171882 158.045411" stroke-width="0.500000" />
<path stroke="#e9cddc" stroke-opacity="0.501961" fill="none" d="M 85.932939 78.616246 Q 156.168744 102.038063, 165.796601 70.974111" stroke-width="0.500000" />
<path stroke="#f7d8ed" stroke-opacity="0.501961" fill="none" d="M 108.311817 51.980688 Q 153.733484 80.413483, 150.903875 95.363792" stroke-width="0.500000" />
<path stroke="#99b1ac" stroke-opacity="0.501961" fill="none" d="M 157.930268 59.852080 Q 98.082200 86.379185, 26.466971 42.674095" stroke-width="0.500000" />
<path stroke="#000000" stroke-opacity="0.501961" fill="none" d="M 66.642609 47.110425 Q 84.774120 173.000000, -16.000000 154.916677" stroke-width="0.500000" />
<path stroke="#001902" stroke-opacity="0.501961" fill="none" d="M -7.327370 151.866702 Q 143.761962 173.000000, 251.348137 -0.939708" stroke-width="0.500000" />
<path stroke="#95b0a3" stroke-opacity="0.501961" fill="none" d="M 165.252518 51.983283 Q 73.180949 103.258598, 28.795334 36.102330" stroke-width="0.500000" />
<path stroke="#f4cee9" stroke-opacity="0.501961" fill="none" d="M 95.497506 65.969160 Q 119.844057 108.615865, 169.568103 65.430794" stroke-width="0.500000" />
<path stroke="#000700" stroke-opacity="0.501961" fill="none" d="M 255.384343 125.388557 Q 146.705422 67.117343, 245.834017 1.572435" stroke-width="0.500000" />
<path stroke="#ffeff8" stroke-opacity="0.501961" fill="none" d="M 100.100153 90.201559 Q 122.806400 78.612459, 130.693608 52.009367" stroke-width="0.500000" />
<path stroke="#001a00" stroke-opacity="0.501961" fill="none" d="M -1.231597 150.777470 Q 241.246225 100.034345, 246.790174 -9.600738" stroke-width="0.500000" />
<path stroke="#002000" stroke-opacity="0.501961" fill="none" d="M -4.367881 134.160560 Q 246.366371 135.596816, 215.554462 -1.570704" stroke-width="0.500000" />
<path stroke="#508f61" stroke-opacity="0.501961" fill="none" d="M 23.695349 48.619365 Q 37.895776 48.947763, 201.541978 4.297856" stroke-width="0.500000" />
<path stroke="#000900" stroke-opacity="0.501961" fill="none" d="M 248.503314 -1.440513 Q 140.664657 59.577369, 241.778799 126.672244" stroke-width="0.500000" />
<path stroke="#001d00" stroke-opacity="0.501961" fill="none" d="M 265.728318 18.995094 Q 189.908801 173.000000, 33.696451 63.560117" stroke-width="0.500000" />
<path stroke="#f6e1d2" stroke-opacity="0.501961" fill="none" d="M 148.855785 95.524151 Q 113.461577 84.560731, 126.462222 45.282382" stroke-width="0.500000" />
<path stroke="#000300" stroke-opacity="0.501961" fill="none" d="M -6.238422 -16.000000 Q 32.724675 91.327381, -3.028482 162.710352" stroke-width="0.500000" />
<path stroke="#e6d1d6" stroke-opacity="0.501961" fill="none" d="M 162.186019 65.311353 Q 124.453345 125.838663, 88.453988 61.970300" stroke-width="0.500000" />
<path stroke="#508e62" stroke-opacity="0.501961" fill="none" d="M 233.234470 -16.000000 Q 201.578648 11.870391, 22.204823 44.981526" stroke-width="0.500000" />
<path stroke="#000e00" stroke-opacity="0.501961" fill="none" d="M 262.626316 0.844514 Q 139.714696 11.324393, 199.726188 137.999773" stroke-width="0.500000" />
<path stroke="#000000" stroke-opacity="0.501961" fill="none" d="M 19.408435 155.971142 Q -16.000000 141.483038, 9.498886 -16.000000" stroke-width="0.500000" />
<path stroke="#000600" stroke-opacity="0.501961" fill="none" d="M 14.058214 -7.440311 Q -16.000000 154.607816, 52.226294 157.739732" stroke-width="0.500000" />
<path stroke="#001b03" stroke-opacity="0.501961" fill="none" d="M -16.000000 147.193262 Q 236.228566 102.770795, 248.897238 4.956662" stroke-width="0.500000" />
<path stroke="#001e00" stroke-opacity="0.501961" fill="none" d="M 245.349508 -4.950406 Q 271.000000 123.863430, -3.412079 129.097076" stroke-width="0.500000" />
<path stroke="#e9d4cc" stroke-opacity="0.501961" fill="none" d="M 141.107384 53.933658 Q 122.181408 108.908855, 91.611229 94.125803" stroke-width="0.500000" />
<path stroke="#000200" stroke-opacity="0.501961" fill="none" d="M 9.180531 -5.143463 Q -16.000000 157.283106, 35.982839 157.136699" stroke-width="0.500000" />
<path stroke="#000b00" stroke-opacity="0.501961" fill="none" d="M 241.049012 122.626271 Q 141.805562 51.433833, 244.551749 -0.688820" stroke-width="0.500000" />
<path stroke="#000000" stroke-opacity="0.501961" fill="none" d="M 67.235197 45.325309 Q 74.567381 173.000000, -16.000000 152.278263" stroke-width="0.500000" />
<path stroke="#000f01" stroke-opacity="0.501961" fill="none" d="M 15.127983 95.264634 Q -16.000000 -3.181486, 76.285324 -0.799253" stroke-width="0.500000" />
<path stroke="#000b00" stroke-opacity="0.501961" fill="none" d="M 258.282510 125.692387 Q 149.383208 99.800515, 230.483819 -2.112367" stroke-width="0.500000" />
<path stroke="#fcb7da" stroke-opacity="0.501961" fill="none" d="M 109.184478 51.910215 Q 119.804592 87.354481, 140.803828 102.577414" stroke-width="0.500000" />
<path stroke="#4c895e" stroke-opacity="0.501961" fill="none" d="M 219.770839 -11.666308 Q 222.393360 3.449812, 19.772731 44.800970" stroke-width="0.500000" />
<path stroke="#000100" stroke-opacity="0.501961" fill="none" d="M 245.024759 124.671332 Q 262.106183 -16.000000, 178.276164 -2.642729" stroke-width="0.500000" />
<path stroke="#000500" stroke-opacity="0.501961" fill="none" d="M 193.679766 142.603804 Q 184.660629 20.733517, 264.831471 6.118775" stroke-width="0.500000" />
<path stroke="#000800" stroke-opacity="0.501961" fill="none" d="M 13.855838 -0.080337 Q 15.607024 108.758223, -0.638177 173.000000" stroke-width="0.500000" />
<path stroke="#000b00" stroke-opacity="0.501961" fill="none" d="M 260.143748 -5.104174 Q 148.133995 58.612641, 259.309781 126.278437" stroke-width="0.500000" />
<path stroke="#ccb6c6" stroke-opacity="0.501961" fill="none" d="M 163.808199 47.798889 Q 147.223623 110.318647, 98.342901 70.559586" stroke-width="0.500000" />
<path stroke="#001e04" stroke-opacity="0.501961" fill="none" d="M 247.078809 8.631823 Q 271.000000 122.665719, -16.000000 155.700483" stroke-width="0.500000" />
<path stroke="#000500" stroke-opacity="0.501961" fill="none" d="M 188.840876 22.620270 Q 271.000000 8.798741, 251.013201 109.430787" stroke-width="0.500000" />
<path stroke="#001200" stroke-opacity="0.501961" fill="none" d="M 246.794174 123.085407 Q 256.288315 46.272898, 89.951645 34.595920" stroke-width="0.500000" />
<path stroke="#fde6e7" stroke-opacity="0.501961" fill="none" d="M 96.323374 73.952515 Q 121.585808 88.661828, 145.294353 50.690687" stroke-width="0.500000" />
<path stroke="#ffe8f8" stroke-opacity="0.501961" fill="none" d="M 108.608096 54.601618 Q 138.744574 56.737457, 136.895005 90.253702" stroke-width="0.500000" />
<path stroke="#000900" stroke-opacity="0.501961" fill="none" d="M 214.828097 3.514952 Q 271.000000 8.466664, 250.164489 124.506489" stroke-width="0.500000" />
<path stroke="#002206" stroke-opacity="0.501961" fill="none" d="M -1.756286 -16.000000 Q 0.035587 154.203462, 257.343418 88.049747" stroke-width="0.500000" />
<path stroke="#000700" stroke-opacity="0.501961" fill="none" d="M 184.808033 23.404160 Q 271.000000 11.420182, 243.483803 122.645375" stroke-width="0.500000" />
<path stroke="#f3e1e8" stroke-opacity="0.501961" fill="none" d="M 147.257931 70.379825 Q 106.354000 55.307556, 107.236281 99.580094" stroke-width="0.500000" />
<path stroke="#002505" stroke-opacity="0.501961" fill="none" d="M -16.000000 132.088970 Q 260.735649 134.762720, 237.054097 -16.000000" stroke-width="0.500000" />
<path stroke="#5f9b6d" stroke-opacity="0.501961" fill="none" d="M 214.685508 -5.176321 Q 170.187298 20.555536, 116.020513 27.651180" stroke-width="0.500000" />
<path stroke="#001200" stroke-opacity="0.501961" fill="none" d="M 239.615953 -2.600714 Q 139.333144 53.420678, 243.553639 125.852974" stroke-width="0.500000" />
<path stroke="#000000" stroke-opacity="0.501961" fill="none" d="M 6.907204 156.434421 Q 61.261696 168.681789, 77.091990 75.372488" stroke-width="0.500000" />
<path stroke="#002205" stroke-opacity="0.501961" fill="none" d="M 251.620013 -16.000000 Q 255.302270 130.264727, -8.109195 144.985830" stroke-width="0.500000" />
<path stroke="#000900" stroke-opacity="0.501961" fill="none" d="M 19.708482 -10.738935 Q -16.000000 156.511474, 57.577304 157.217281" stroke-width="0.500000" />
<path stroke="#000e00" stroke-opacity="0.501961" fill="none" d="M 242.312631 123.048335 Q 150.485419 47.737247, 259.246989 1.035493" stroke-width="0.500000" />
<path stroke="#000b00" stroke-opacity="0.501961" fill="none" d="M 271.000000 146.228130 Q 200.986561 37.829339, 148.603398 69.983615" stroke-width="0.500000" />
<path stroke="#eadad2" stroke-opacity="0.501961" fill="none" d="M 94.840490 89.492236 Q 141.014296 103.560218, 131.604042 54.458189" stroke-width="0.500000" />
<path stroke="#94a4a6" stroke-opacity="0.501961" fill="none" d="M 29.197819 30.367867 Q 46.329693 67.599820, 145.268814 68.993276" stroke-width="0.500000" />
<path stroke="#001f01" stroke-opacity="0.501961" fill="none" d="M 267.310032 -4.061091 Q 217.920315 173.000000, 20.505576 68.094681" stroke-width="0.500000" />
<path stroke="#000500" stroke-opacity="0.501961" fill="none" d="M 25.483183 171.673478 Q -11.483249 140.299390, 12.187454 -7.210814" stroke-width="0.500000" />
<path stroke="#f5dff1" stroke-opacity="0.501961" fill="none" d="M 148.678256 98.719598 Q 144.476520 76.306351, 160.147717 66.559740" stroke-width="0.500000" />
<path stroke="#000c00" stroke-opacity="0.501961" fill="none" d="M 249.857461 123.835888 Q 150.569308 70.837666, 244.565234 8.472590" stroke-width="0.500000" />
<path stroke="#000f00" stroke-opacity="0.501961" fill="none" d="M 228.122871 124.903954 Q 128.940558 37.316175, 256.949674 -10.221598" stroke-width="0.500000" />
<path stroke="#e4d6c9" stroke-opacity="0.501961" fill="none" d="M 138.870372 105.641145 Q 133.743708 67.571057, 109.510594 48.212632" stroke-width="0.500000" />
<path stroke="#000700" stroke-opacity="0.501961" fill="none" d="M 226.918153 126.010367 Q 271.000000 121.431889, 240.981352 -16.000000" stroke-width="0.500000" />
<path stroke="#4e8958" stroke-opacity="0.501961" fill="none" d="M 195.427774 0.457915 Q 191.879700 24.545530, 31.127860 39.766828" stroke-width="0.500000" />
<path stroke="#001200" stroke-opacity="0.501961" fill="none" d="M 241.052107 0.075936 Q 144.686914 34.685654, 224.028937 118.923223" stroke-width="0.500000" />
<path stroke="#000e00" stroke-opacity="0.501961" fill="none" d="M -2.106901 83.980548 Q 56.042539 40.632913, 111.184659 163.001286" stroke-width="0.500000" />
<path stroke="#000000" stroke-opacity="0.501961" fill="none" d="M 0.091749 147.441764 Q 59.460025 173.000000, 73.603924 78.685065" stroke-width="0.500000" />
<path stroke="#040d00" stroke-opacity="0.501961" fill="none" d="M 201.665396 138.483805 Q 144.360083 12.817652, 255.427156 10.729146" stroke-width="0.500000" />
<path stroke="#f3cae4" stroke-opacity="0.501961" fill="none" d="M 163.120830 77.627325 Q 116.011825 102.867184, 109.095011 51.224042" stroke-width="0.500000" />
<path stroke="#f0d6db" stroke-opacity="0.501961" fill="none" d="M 86.316946 91.886206 Q 92.997383 84.189906, 148.762424 64.723618" stroke-width="0.500000" />
<path stroke="#000d01" stroke-opacity="0.501961" fill="none" d="M 23.963588 -14.102209 Q -16.000000 151.070664, 58.094202 156.062902" stroke-width="0.500000" />
<path stroke="#030b00" stroke-opacity="0.501961" fill="none" d="M 183.304007 141.950843 Q 269.555299 128.867458, 239.802588 -10.429187" stroke-width="0.500000" />
<path stroke="#49875b" stroke-opacity="0.501961" fill="none" d="M 233.271114 -16.000000 Q 224.374787 0.582260, 28.803459 41.641571" stroke-width="0.500000" />
<path stroke="#4d895a" stroke-opacity="0.501961" fill="none" d="M 25.810995 34.077166 Q 191.798495 27.881281, 206.493052 -13.989928" stroke-width="0.500000" />
<path stroke="#e7add2" stroke-opacity="0.501961" fill="none" d="M 151.851738 93.899659 Q 119.749874 111.206573, 106.628339 52.358377" stroke-width="0.500000" />
<path stroke="#000600" stroke-opacity="0.501961" fill="none" d="M 83.339026 74.527529 Q -11.289852 103.849110, 2.952996 0.538343" stroke-width="0.500000" />
<path stroke="#eecfcd" stroke-opacity="0.501961" fill="none" d="M 98.249593 91.762173 Q 140.997480 92.695357, 126.051206 47.025137" stroke-width="0.500000" />
<path stroke="#d9bdcb" stroke-opacity="0.501961" fill="none" d="M 141.949303 103.431646 Q 157.032826 81.479589, 117.740170 45.344097" stroke-width="0.500000" />
<path stroke="#001a00" stroke-opacity="0.501961" fill="none" d="M 14.657239 1.223083 Q -16.000000 103.219065, 117.968138 142.189586" stroke-width="0.500000" />
<path stroke="#000b00" stroke-opacity="0.501961" fill="none" d="M 11.854433 165.870360 Q 105.619570 96.186901, -5.624313 39.490136" stroke-width="0.500000" />
<path stroke="#5d7f72" stroke-opacity="0.501961" fill="none" d="M 242.224842 124.787706 Q 229.648146 151.706490, 134.269331 138.160492" stroke-width="0.500000" />
<path stroke="#030000" stroke-opacity="0.501961" fill="none" d="M 194.171573 141.410572 Q 225.047146 46.918340, 154.255434 45.609391" stroke-width="0.500000" />
<path stroke="#81a297" stroke-opacity="0.501961" fill="none" d="M 129.776155 46.505809 Q 61.387044 97.529866, 31.748080 39.843310" stroke-width="0.500000" />
<path stroke="#000600" stroke-opacity="0.501961" fill="none" d="M -7.964972 -6.352194 Q 18.847875 1.814298, 16.726175 173.000000" stroke-width="0.500000" />
<path stroke="#010d00" stroke-opacity="0.501961" fill="none" d="M 90.420709 78.183889 Q -16.000000 92.063498, 1.273885 3.829707" stroke-width="0.500000" />
<path stroke="#012504" stroke-opacity="0.501961" fill="none" d="M 227.436316 -16.000000 Q 256.643951 123.232675, -16.000000 127.448870" stroke-width="0.500000" />
<path stroke="#021100" stroke-opacity="0.501961" fill="none" d="M 262.455742 122.074584 Q 226.094013 24.961213, 147.754189 71.180732" stroke-width="0.500000" />
<path stroke="#001000" stroke-opacity="0.501961" fill="none" d="M 251.842617 124.142498 Q 156.221493 64.893391, 257.948285 2.519508" stroke-width="0.500000" />
<path stroke="#c6c7bb" stroke-opacity="0.501961" fill="none" d="M 159.110578 55.860300 Q 169.291354 93.828356, 105.381961 98.310407" stroke-width="0.500000" />
<path stroke="#000800" stroke-opacity="0.501961" fill="none" d="M 194.517158 23.854887 Q 261.760999 18.906909, 242.534900 124.182119" stroke-width="0.500000" />
<path stroke="#030500" stroke-opacity="0.501961" fill="none" d="M -16.000000 153.797464 Q 75.202832 171.167736, 67.826037 59.228913" stroke-width="0.500000" />
<path stroke="#98b89d" stroke-opacity="0.501961" fill="none" d="M 164.794864 76.786400 Q 130.076426 93.595084, 26.034178 46.360612" stroke-width="0.500000" />
<path stroke="#000500" stroke-opacity="0.501961" fill="none" d="M -15.265476 166.718694 Q 87.944748 110.735788, 83.135609 86.300650" stroke-width="0.500000" />
<path stroke="#f0d7e8" stroke-opacity="0.501961" fill="none" d="M 113.676471 95.289483 Q 105.304280 54.648175, 131.730074 53.898901" stroke-width="0.500000" />
<path stroke="#022706" stroke-opacity="0.501961" fill="none" d="M 239.483121 -16.000000 Q 262.601902 122.753434, -4.366609 120.597677" stroke-width="0.500000" />
<path stroke="#082101" stroke-opacity="0.501961" fill="none" d="M 262.033311 -16.000000 Q 214.640841 90.313136, 27.694044 1.256470" stroke-width="0.500000" />
<path stroke="#051001" stroke-opacity="0.501961" fill="none" d="M 175.679935 137.066492 Q 270.206363 145.953435, 242.924603 -0.617370" stroke-width="0.500000" />
<path stroke="#041800" stroke-opacity="0.501961" fill="none" d="M 95.748473 41.257572 Q 245.361853 32.648454, 257.817875 132.125489" stroke-width="0.500000" />
<path stroke="#fdcfee" stroke-opacity="0.501961" fill="none" d="M 145.513582 73.456431 Q 146.889614 60.633896, 107.367690 61.733806" stroke-width="0.500000" />
<path stroke="#6f8a7f" stroke-opacity="0.501961" fill="none" d="M 190.674909 154.328039 Q 192.309937 138.027835, 245.047874 130.279162" stroke-width="0.500000" />
<path stroke="#041500" stroke-opacity="0.501961" fill="none" d="M 188.403399 145.047484 Q 193.416218 -16.000000, 271.000000 0.825933" stroke-width="0.500000" />
<path stroke="#052005" stroke-opacity="0.501961" fill="none" d="M 18.492294 70.236361 Q 232.676115 173.000000, 248.701902 10.725195" stroke-width="0.500000" />
<path stroke="#001600" stroke-opacity="0.501961" fill="none" d="M 109.638368 153.290610 Q 54.781739 39.766585, 3.583004 82.654359" stroke-width="0.500000" />
<path stroke="#f7e6ef" stroke-opacity="0.501961" fill="none" d="M 105.749758 98.710454 Q 110.083909 68.791876, 97.448880 63.162004" stroke-width="0.500000" />
<path stroke="#eccee3" stroke-opacity="0.501961" fill="none" d="M 164.796718 65.527980 Q 145.743315 105.570809, 94.974712 71.024583" stroke-width="0.500000" />
<path stroke="#76b380" stroke-opacity="0.501961" fill="none" d="M 175.075073 20.057379 Q 132.502469 20.150667, 132.221180 18.418055" stroke-width="0.500000" />
<path stroke="#001200" stroke-opacity="0.501961" fill="none" d="M 271.000000 130.594642 Q 157.024606 86.369595, 256.180522 -16.000000" stroke-width="0.500000" />
<path stroke="#040b00" stroke-opacity="0.501961" fill="none" d="M 3.471558 -0.048208 Q -5.023537 108.688709, 84.235478 76.858933" stroke-width="0.500000" />
<path stroke="#091300" stroke-opacity="0.501961" fill="none" d="M 207.549629 123.163317 Q 223.469221 15.878262, 90.778525 41.979004" stroke-width="0.500000" />
<path stroke="#14100a" stroke-opacity="0.501961" fill="none" d="M 223.598363 77.376843 Q 160.162056 40.874180, 144.210288 84.412013" stroke-width="0.500000" />
<path stroke="#e8c7d1" stroke-opacity="0.501961" fill="none" d="M 146.819696 46.999015 Q 125.028625 77.919143, 94.473266 95.514579" stroke-width="0.500000" />
<path stroke="#000000" stroke-opacity="0.501961" fill="none" d="M -16.000000 163.222398 Q 83.286227 136.982310, 70.954714 73.464679" stroke-width="0.500000" />
<path stroke="#002909" stroke-opacity="0.501961" fill="none" d="M 253.138658 27.325167 Q 271.000000 125.210234, -1.370999 136.994916" stroke-width="0.500000" />
<path stroke="#010800" stroke-opacity="0.501961" fill="none" d="M 168.699042 66.099640 Q 200.866962 -16.000000, 254.700015 41.564271" stroke-width="0.500000" />
<path stroke="#dbdec1" stroke-opacity="0.501961" fill="none" d="M 101.779992 58.110721 Q 134.703932 55.112930, 128.353583 99.269752" stroke-width="0.500000" />
<path stroke="#001100" stroke-opacity="0.501961" fill="none" d="M 241.185115 2.439820 Q 138.952691 60.673002, 237.328654 125.477707" stroke-width="0.500000" />
<path stroke="#061503" stroke-opacity="0.501961" fill="none" d="M 79.785257 1.797952 Q -16.000000 -0.332723, 8.326058 173.000000" stroke-width="0.500000" />
<path stroke="#022709" stroke-opacity="0.501961" fill="none" d="M 235.574992 0.376659 Q 271.000000 101.704971, -16.000000 157.031463" stroke-width="0.500000" />
<path stroke="#4b8556" stroke-opacity="0.501961" fill="none" d="M 26.051899 45.429066 Q 165.918043 25.255931, 201.352489 2.838778" stroke-width="0.500000" />
<path stroke="#000d00" stroke-opacity="0.501961" fill="none" d="M 79.603269 72.821057 Q 99.564426 132.532576, -16.000000 149.702245" stroke-width="0.500000" />
<path stroke="#eccadf" stroke-opacity="0.501961" fill="none" d="M 110.484293 53.065568 Q 149.424078 65.423975, 139.720321 105.236057" stroke-width="0.500000" />
<path stroke="#061600" stroke-opacity="0.501961" fill="none" d="M 271.000000 -0.111731 Q 123.370862 21.808017, 201.723231 136.404395" stroke-width="0.500000" />
<path stroke="#edebd0" stroke-opacity="0.501961" fill="none" d="M 155.845258 83.377759 Q 132.456940 98.424420, 114.472261 51.595933" stroke-width="0.500000" />
<path stroke="#001300" stroke-opacity="0.501961" fill="none" d="M 195.422415 14.915396 Q 271.000000 8.501354, 245.047515 124.813385" stroke-width="0.500000" />
<path stroke="#5fa771" stroke-opacity="0.501961" fill="none" d="M 71.169865 72.011002 Q 101.129572 39.229788, 64.013196 27.363423" stroke-width="0.500000" />
<path stroke="#668679" stroke-opacity="0.501961" fill="none" d="M 257.136118 136.399486 Q 193.350947 135.878490, 186.428196 158.423649" stroke-width="0.500000" />
<path stroke="#080b00" stroke-opacity="0.501961" fill="none" d="M -1.630310 83.237852 Q 92.706855 67.003906, 79.596089 162.395039" stroke-width="0.500000" />
<path stroke="#022007" stroke-opacity="0.501961" fill="none" d="M -14.178516 155.810136 Q 154.991361 173.000000, 258.167145 -10.973661" stroke-width="0.500000" />
<path stroke="#e3c0d1" stroke-opacity="0.501961" fill="none" d="M 88.855410 92.432072 Q 134.834508 104.182004, 147.069483 45.794290" stroke-width="0.500000" />
<path stroke="#4a835a" stroke-opacity="0.501961" fill="none" d="M 214.024494 -8.183553 Q 217.375557 4.734799, 26.653577 52.104487" stroke-width="0.500000" />
<path stroke="#021b03" stroke-opacity="0.501961" fill="none" d="M -16.000000 87.241334 Q 109.050880 43.993249, 105.923113 164.321621" stroke-width="0.500000" />
<path stroke="#091700" stroke-opacity="0.501961" fill="none" d="M 261.375330 145.073563 Q 241.012267 39.994223, 99.412229 38.853221" stroke-width="0.500000" />
<path stroke="#e8e8c0" stroke-opacity="0.501961" fill="none" d="M 148.742373 64.010029 Q 127.434277 85.536272, 95.069548 75.960057" stroke-width="0.500000" />
<path stroke="#eddce1" stroke-opacity="0.501961" fill="none" d="M 136.787210 92.137490 Q 140.538275 62.362133, 91.549984 65.751877" stroke-width="0.500000" />
<path stroke="#071a08" stroke-opacity="0.501961" fill="none" d="M 24.594515 -7.990167 Q -16.000000 144.441452, 108.685883 154.593993" stroke-width="0.500000" />
<path stroke="#001300" stroke-opacity="0.501961" fill="none" d="M 247.648634 125.501538 Q 271.000000 7.534528, 211.738213 4.546526" stroke-width="0.500000" />
<path stroke="#efdce6" stroke-opacity="0.501961" fill="none" d="M 128.894712 49.530368 Q 134.624979 79.546315, 98.625247 74.168622" stroke-width="0.500000" />
<path stroke="#001800" stroke-opacity="0.501961" fill="none" d="M 107.200036 156.557474 Q 74.507563 80.692114, -5.732113 45.020780" stroke-width="0.500000" />
<path stroke="#cb9dba" stroke-opacity="0.501961" fill="none" d="M 127.210918 100.375436 Q 160.744383 107.330449, 157.221800 49.529591" stroke-width="0.500000" />
<path stroke="#001100" stroke-opacity="0.501961" fill="none" d="M 241.206815 122.536519 Q 271.000000 7.690793, 206.817394 4.915508" stroke-width="0.500000" />
<path stroke="#000a00" stroke-opacity="0.501961" fill="none" d="M 34.130590 63.378935 Q 90.252210 119.677744, 3.414020 151.338018" stroke-width="0.500000" />
<path stroke="#000e03" stroke-opacity="0.501961" fill="none" d="M 58.961349 166.960244 Q -16.000000 148.057785, 15.286924 5.088690" stroke-width="0.500000" />
<path stroke="#0c1200" stroke-opacity="0.501961" fill="none" d="M 172.370317 173.000000 Q 253.737873 49.615066, 112.121894 34.009367" stroke-width="0.500000" />
<path stroke="#69988c" stroke-opacity="0.501961" fill="none" d="M 100.714867 59.411299 Q 50.881942 86.748358, 36.616716 33.850549" stroke-width="0.500000" />
<path stroke="#001800" stroke-opacity="0.501961" fill="none" d="M -14.178168 173.000000 Q 31.476718 80.508648, 118.048809 141.047617" stroke-width="0.500000" />
<path stroke="#071107" stroke-opacity="0.501961" fill="none" d="M 5.545387 158.967255 Q -13.672570 15.214790, 69.967589 -6.314214" stroke-width="0.500000" />
<path stroke="#dcdad8" stroke-opacity="0.501961" fill="none" d="M 116.893701 49.605254 Q 156.065195 68.629389, 125.233027 95.414212" stroke-width="0.500000" />
<path stroke="#051e00" stroke-opacity="0.501961" fill="none" d="M 259.560838 35.739898 Q 78.736725 64.849069, 76.241372 3.363924" stroke-width="0.500000" />
<path stroke="#051900" stroke-opacity="0.501961" fill="none" d="M 197.948839 138.054289 Q 140.961660 19.270354, 248.711366 -2.274524" stroke-width="0.500000" />
<path stroke="#579967" stroke-opacity="0.501961" fill="none" d="M 33.555234 61.391017 Q 35.064755 8.841426, 90.688814 37.140942" stroke-width="0.500000" />
<path stroke="#000d00" stroke-opacity="0.501961" fill="none" d="M 67.648265 65.836388 Q 60.074380 173.000000, -16.000000 150.744828" stroke-width="0.500000" />
<path stroke="#042609" stroke-opacity="0.501961" fill="none" d="M -16.000000 159.580179 Q 265.675341 133.141293, 239.040422 -1.205765" stroke-width="0.500000" />
<path stroke="#6dac78" stroke-opacity="0.501961" fill="none" d="M 175.184724 16.948694 Q 145.941520 29.791878, 135.623163 12.869269" stroke-width="0.500000" />
<path stroke="#001100" stroke-opacity="0.501961" fill="none" d="M 252.117390 125.334824 Q 271.000000 6.831312, 199.527073 17.322732" stroke-width="0.500000" />
<path stroke="#819397" stroke-opacity="0.501961" fill="none" d="M 128.686642 48.193438 Q 99.318125 87.650494, 26.917093 40.097494" stroke-width="0.500000" />
<path stroke="#627d71" stroke-opacity="0.501961" fill="none" d="M 267.792518 137.276850 Q 184.479055 122.863567, 182.408122 173.000000" stroke-width="0.500000" />
<path stroke="#001100" stroke-opacity="0.501961" fill="none" d="M -0.715091 153.771586 Q 88.356438 92.665235, 108.637682 155.010104" stroke-width="0.500000" />
<path stroke="#deb5ce" stroke-opacity="0.501961" fill="none" d="M 148.070822 54.502274 Q 124.197505 119.892934, 83.425687 80.835799" stroke-width="0.500000" />
<path stroke="#447f57" stroke-opacity="0.501961" fill="none" d="M 36.970217 62.575508 Q 42.360421 34.944793, 209.085160 -1.932327" stroke-width="0.500000" />
<path stroke="#051100" stroke-opacity="0.501961" fill="none" d="M 271.000000 114.842263 Q 246.305910 101.034744, 142.098665 26.401138" stroke-width="0.500000" />
<path stroke="#000d01" stroke-opacity="0.501961" fill="none" d="M 120.124602 142.661463 Q 2.597718 173.000000, -0.469896 125.056888" stroke-width="0.500000" />
<path stroke="#0c0901" stroke-opacity="0.501961" fill="none" d="M 176.909924 159.880050 Q 248.073529 75.675509, 154.627502 44.426472" stroke-width="0.500000" />
<path stroke="#041100" stroke-opacity="0.501961" fill="none" d="M 162.017491 65.900746 Q 223.931987 50.728656, 246.381022 -16.000000" stroke-width="0.500000" />
<path stroke="#c7a5bb" stroke-opacity="0.501961" fill="none" d="M 127.336467 99.425888 Q 153.879142 103.269469, 164.955557 49.440094" stroke-width="0.500000" />
<path stroke="#000800" stroke-opacity="0.501961" fill="none" d="M -2.713104 156.402115 Q 94.204231 164.719652, 61.125988 74.316068" stroke-width="0.500000" />
<path stroke="#001100" stroke-opacity="0.501961" fill="none" d="M 189.884619 24.079155 Q 271.000000 22.254509, 237.014196 114.801459" stroke-width="0.500000" />
<path stroke="#e2d9db" stroke-opacity="0.501961" fill="none" d="M 152.230487 93.667314 Q 122.319013 52.695807, 97.117588 77.678243" stroke-width="0.500000" />
<path stroke="#000400" stroke-opacity="0.501961" fill="none" d="M 30.631778 61.954189 Q 48.906112 149.128454, 5.402387 158.610421" stroke-width="0.500000" />
<path stroke="#001100" stroke-opacity="0.501961" fill="none" d="M 227.168810 126.914370 Q 271.000000 109.566640, 231.892799 -2.775592" stroke-width="0.500000" />
<path stroke="#498159" stroke-opacity="0.501961" fill="none" d="M 30.002492 33.907885 Q 37.701848 58.139116, 234.657738 -12.467304" stroke-width="0.500000" />
<path stroke="#031600" stroke-opacity="0.501961" fill="none" d="M 215.442438 -0.863468 Q 156.526189 118.677666, 260.128986 124.531342" stroke-width="0.500000" />
<path stroke="#438457" stroke-opacity="0.501961" fill="none" d="M 110.560729 79.793925 Q 81.933970 0.824584, 31.665827 38.326360" stroke-width="0.500000" />
<path stroke="#e2c3c0" stroke-opacity="0.501961" fill="none" d="M 144.222512 41.248500 Q 150.334604 62.447263, 100.312295 93.738130" stroke-width="0.500000" />
<path stroke="#092202" stroke-opacity="0.501961" fill="none" d="M 255.470153 35.727283 Q 74.063289 52.520839, 75.286088 6.901080" stroke-width="0.500000" />
<path stroke="#e6c2c2" stroke-opacity="0.501961" fill="none" d="M 127.233764 45.462875 Q 116.501201 76.445073, 137.598513 105.124392" stroke-width="0.500000" />
<path stroke="#e7bcdb" stroke-opacity="0.501961" fill="none" d="M 84.682809 88.521936 Q 124.779414 66.453073, 124.626468 48.824493" stroke-width="0.500000" />
<path stroke="#468251" stroke-opacity="0.501961" fill="none" d="M 23.979447 62.589861 Q 24.127293 18.488566, 171.385255 23.962868" stroke-width="0.500000" />
<path stroke="#001800" stroke-opacity="0.501961" fill="none" d="M 247.099958 124.578477 Q 180.948335 112.432861, 229.219275 -7.788140" stroke-width="0.500000" />
<path stroke="#5e9889" stroke-opacity="0.501961" fill="none" d="M 30.638704 30.772518 Q 59.256823 60.919733, 64.886585 70.362144" stroke-width="0.500000" />
<path stroke="#648273" stroke-opacity="0.501961" fill="none" d="M 260.450168 134.616455 Q 247.472919 123.039067, 191.027300 152.393647" stroke-width="0.500000" />
</g>
</svg>