<svg height="632" width="1024" xmlns="http://www.w3.org/2000/svg"><path d="m0 0h1024v632h-1024z" fill="#2c462e"/><g fill="none" stroke-opacity=".501961" stroke-width=".5" transform="matrix(4 0 0 4 2 2)"><path d="m168.777134 66.005137q-54.681962 55.704599-78.633282-7.242855" stroke="#fff"/><path d="m91.310996 64.103972q23.10828 57.623686 77.530453 4.017473" stroke="#fff"/><path d="m91.245031 63.123293q39.80542 57.432469 79.34017 2.61781" stroke="#fff"/><path d="m78.52928 78.348421q58.225344 41.197184 67.491197-33.391426" stroke="#fffcff"/><path d="m169.612997 63.790775q-50.547368 54.069635-78.887057-9.376993" stroke="#fff"/><path d="m158.391194 82.933869q-34.511143-49.303944-70.350242 11.812464" stroke="#fff"/><path d="m147.843072 48.642398q-.345476 66.155908-66.629984 40.139775" stroke="#fffdff"/><path d="m174.434209 65.73002q-48.948435 12.619933-130.854199-4.470686" stroke="#f9f0fe"/><g stroke="#fff"><path d="m169.975979 62.385592q-53.521642 52.761455-76.359096-7.652742"/><path d="m168.722953 63.694775q-10.833231 42.795331-81.252755 16.716084"/><path d="m92.044293 61.631579q47.701564 51.885762 78.35599 2.019684"/><path d="m149.12124 99.467888q.709802-45.184964-90.486394-27.619409"/><path d="m85.821188 89.424624q50.436772-23.012456 78.37392-39.165678"/><path d="m84.180813 81.185475q54.210313 28.199748 59.632944-37.789715"/><path d="m85.582397 88.704711q54.829244 20.307487 62.132177-39.675112"/><path d="m147.172083 99.951406q1.54281-53.2002-69.562619-29.571847"/><path d="m168.807135 49.335007q-61.861386 32.44126-80.907329 41.959167"/><path d="m88.301486 60.377876q39.58607 37.085526 76.605969 10.784193"/></g><path d="m165.434476 61.436263q-40.591204 59.20261-78.939026-2.674426" stroke="#fffbff"/><path d="m148.126748 49.463471q-18.469501 63.882322-61.61499 31.032378" stroke="#fff"/><path d="m82.38365 90.076779q40.182869-20.673313 79.980688-39.567641" stroke="#fffaff"/><path d="m143.396754 102.409172q2.368633-60.019634-52.920046-36.922088" stroke="#fff"/><path d="m163.311489 78.323679q-56.698941 21.47462-55.549335-27.273315" stroke="#fff"/><path d="m170.034379 53.113379q-44.002774 17.011929-78.5355 41.331025" stroke="#fff"/><path d="m159.323853 76.445845q-45.869379-43.802222-68.635781 16.76652" stroke="#fef"/><path d="m97.523986 96.238963q-7.085823-31.406109 69.516347-43.573677" stroke="#fff0ff"/><path d="m72.538594 72.081924q76.132899-14.490374 72.347727 31.870022" stroke="#fff"/><path d="m83.114091 89.46204q65.282646 20.530292 61.69869-41.079374" stroke="#ffeaff"/><path d="m88.204258 79.872553q36.875355 28.4842 55.30302-32.419882" stroke="#fffeff"/><path d="m103.777564 53.050169q57.7435 8.556437 33.772429 53.286574" stroke="#fff8ff"/><path d="m84.450065 71.257064q61.008646-23.60512 56.935799 34.221634" stroke="#fff"/><path d="m90.92208 59.995581q23.623729 46.827177 75.665371 5.515974" stroke="#fff8ff"/><path d="m126.724442 44.904542q20.170939 40.541894-41.021381 47.006305" stroke="#fff1ff"/><path d="m163.981436 54.753194q-68.962687 11.776558-62.714023 44.175304" stroke="#fff7ff"/><path d="m163.651777 75.019878q-49.277362 25.717203-53.255703-23.900342" stroke="#fff"/><path d="m93.808509 62.538175q46.948613 32.16618 71.894703 4.836248" stroke="#fff"/><path d="m128.227775 46.972852q-27.025137 41.187938 23.141938 46.252672" stroke="#fff"/><path d="m149.696981 99.120989q.347575-53.163556-71.82385-29.679342" stroke="#ffe4fc"/><path d="m133.071317 106.528361q9.323635-56.614433-31.546356-49.826918" stroke="#fff"/><path d="m89.267883 80.544979q53.05669 6.001174 54.44338-31.231365" stroke="#fff"/><path d="m109.442839 45.016207q-3.847009 53.672816 48.644147 37.319106" stroke="#fffdff"/><path d="m170.855742 67.103351q-56.958725 47.52907-86.101446 20.651441" stroke="#ffe3fc"/><path d="m85.290861 89.255288q52.883833-3.443171 38.168397-42.972175" stroke="#fffdff"/><path d="m94.154687 67.77125q40.176484 59.41517 72.61602-.206221" stroke="#ffefff"/><path d="m164.247912 70.176591q-48.404029 57.067838-75.25612-10.865623" stroke="#ffeafc"/><path d="m142.913655 44.081521q-5.890966 59.146925-56.469632 43.895501" stroke="#ffe6ff"/><path d="m152.370727 96.554291q-32.022182-54.481327-64.563712-11.775311" stroke="#fff2ff"/><path d="m106.597878 47.631352q46.833419 37.532504 29.184524 58.733264" stroke="#fff0ff"/><path d="m91.266291 94.086141q41.23792-55.766411 68.75134-12.281726" stroke="#ffe7ff"/><path d="m127.412715 48.724531q10.209126 22.86814-39.748985 44.0011" stroke="#fff"/><path d="m94.938712 68.04478q46.423923 42.085491 66.115379-4.41369" stroke="#fff7ff"/><path d="m92.445607 94.839243q56.390014 6.848909 55.284738-34.819457" stroke="#fff0f9"/><path d="m135.02808 107.161285q13.346301-55.920896-28.927232-55.963038" stroke="#ffe8fd"/><path d="m164.484891 58.915335q-58.406797 2.355874-62.621618 38.008873" stroke="#ffedff"/><path d="m91.021086 66.434241q53.36239-21.837797 54.515861 33.443839" stroke="#ffe8ff"/><path d="m105.128781 51.575213q57.133104 10.890576 34.816318 54.058281" stroke="#ffd2f7"/><path d="m85.58239 84.479474q52.517559 30.3762 61.150914-35.839586" stroke="#ffdbff"/><path d="m162.304645 68.186226q-38.553144 25.957839-50.006762-17.3648" stroke="#fffdff"/><path d="m127.676029 45.386301q-26.339198 37.791417 16.423768 56.910518" stroke="#fdf"/><path d="m169.067123 68.881183q-39.030689 53.385853-74.944694-9.24476" stroke="#ffe2f0"/><path d="m135.535983 106.28625q-23.639895-44.734105-6.522279-55.610446" stroke="#fff8fe"/><path d="m147.947708 59.609793q-54.020112-15.858655-49.022022 38.749834" stroke="#ffddf9"/><path d="m144.831987 50.24753q-2.073831 31.628974-60.477729 32.150798" stroke="#fff9fd"/><path d="m126.383215 49.085843q2.459846 21.19985-29.704035 49.440911" stroke="#fff"/><path d="m162.304938 73.037193q-52.122907-33.652624-68.34614 18.583897" stroke="#fed8f5"/><path d="m43.970244 58.657399q97.061555 25.125669 121.171792 6.987445" stroke="#cad0cf"/><path d="m105.079474 56.347579q45.483379 5.259736 31.609717 48.870048" stroke="#ffedff"/><path d="m162.915225 79.278315q-43.865371 20.733665-51.647823-28.68179" stroke="#fff2f9"/><path d="m102.024052 97.91409q17.617787-25.906761 45.748775-46.150175" stroke="#fff6ff"/><path d="m163.320772 65.614279q-2.626222 35.67053-72.717276 17.308515" stroke="#ffe7ff"/><path d="m108.443879 53.762545q11.382924 56.819324 51.001494 28.826076" stroke="#ffe2fc"/><path d="m90.464753 93.220551q54.612011-9.449788 38.099676-43.425065" stroke="#ffe7eb"/><path d="m94.785032 70.656564q44.579878-18.65336 40.254418 32.273274" stroke="#fff5fd"/><path d="m97.684616 62.476749q20.489211 40.264016 66.636247 2.844021" stroke="#ffdefb"/><path d="m147.607769 69.257679q-47.024601-17.24187-48.415935 29.836582" stroke="#ffe8fd"/><path d="m95.774342 96.618981q54.180842 4.727444 32.099214-44.871615" stroke="#ffeff9"/><path d="m163.720364 65.514643q-30.710617 52.69232-68.326567 6.519558" stroke="#fff1f9"/><path d="m83.770661 88.074476q53.979142-32.655494 63.345776 11.880244" stroke="#ffdcdd"/><path d="m93.567057 92.013318q43.47663 6.627947 32.127925-47.230815" stroke="#ffdce6"/><path d="m146.487307 54.890393q-2.894693 55.157455-62.15144 25.207864" stroke="#ffc6f2"/><path d="m114.758982 48.81971q-17.556453 28.37529 23.702517 53.515813" stroke="#ffc3ef"/><path d="m152.748381 92.780457q-33.21957 17.698313-62.039316-35.032282" stroke="#f9cfe7"/><path d="m103.930135 99.341594q10.690186-19.872077 21.962204-53.564905" stroke="#ffebf9"/><path d="m99.316731 56.999303q51.826341 7.004805 41.711445 47.69804" stroke="#f8dced"/><path d="m91.316957 80.577707q43.163583 18.469274 56.965118-33.861749" stroke="#ffd3e6"/><path d="m116.664126 52.55597q-11.769698 37.006457 37.671753 38.906698" stroke="#ffe4fa"/><path d="m148.230227 56.337913q1.285265 22.246619-59.086791 14.282108" stroke="#fdf4f6"/><path d="m95.523286 67.520027q48.850278 40.907209 66.015567-8.629732" stroke="#f7d5ed"/><path d="m93.247914 61.510906q42.153386 24.927288 48.851925-15.22719" stroke="#f8e0f1"/><path d="m124.853362 49.599026q3.764344 33.516369-40.21476 31.551601" stroke="#ffe0fd"/><path d="m117.428068 52.9426q12.64895 45.350371 48.191223 21.494785" stroke="#fffaea"/><path d="m149.494984 51.062302q-16.79793 53.808308-61.578814 41.850279" stroke="#efcdde"/><path d="m166.662211 65.831019q-53.687936 42.868808-75.051025-4.283154" stroke="#fcd4f0"/><path d="m131.348824 102.113726q15.954554-51.353692-20.742499-55.167823" stroke="#e5dadc"/><path d="m103.519815 98.511852q-.280205-37.427292 54.93531-46.251223" stroke="#e8cfdf"/><path d="m83.370876 83.339887q57.997612 16.699698 60.338203-32.300635" stroke="#ffcbea"/><path d="m146.004537 100.576655q7.909428-33.851087-39.539372-50.716394" stroke="#f8cbe9"/><path d="m169.625147 52.007888q-95.694145 44.496016-133.990835-8.858564" stroke="#a6beb5"/><path d="m105.145026 54.024605q39.921048 12.986581 22.44675 42.206967" stroke="#fff3f1"/><path d="m134.024093 104.339423q-7.161854-5.011911-17.977852-52.065546" stroke="#fee1df"/><path d="m164.239379 71.463252q-35.681295 29.59779-55.063277-20.324971" stroke="#ffdddc"/><path d="m-5.88277 149.557624q276.88277-58.580988 254.360317-165.557624" stroke="#001400"/><path d="m110.424508 94.746278q-2.053034-50.853711 39.61557-32.019494" stroke="#f3dceb"/><path d="m-9.138767 171.500001q17.195743-54.116123 280.138767-85.266813" stroke="#001a00"/><path d="m91.104574 62.626897q56.9112 38.145179 67.583317 19.696754" stroke="#f3d7e7"/><path d="m254.303775-.524091q-63.985945 123.121917-262.361588 153.868789" stroke="#001700"/><path d="m139.965822 104.091377q-36.105844-15.292184-11.067068-55.286733" stroke="#f8c0e3"/><path d="m147.689803 46.547722q-14.68999 38.04583-60.029633 37.011963" stroke="#ffdde3"/><path d="m-16 130.273801q263.06576-.493401 263.793126-108.794653" stroke="#001b00"/><path d="m128.127376 47.478342q-8.373717 41.077187-43.141347 39.739411" stroke="#ffd2f0"/><path d="m249.255823 9.1471q-15.948996 83.602961-259.548298 146.577465" stroke="#001700"/><path d="m230.283455 123.580853q-84.043633-88.497143 37.340058-123.93135" stroke="#000100"/><path d="m-16 161.542696q287-69.265253 266.564924-177.542696" stroke="#001900"/><path d="m259.458127 21.112605q-66.738602 151.887395-263.517636 30.747536" stroke="#001b00"/><path d="m107.573804 47.540923q3.334101 60.605286 41.636692 49.169644" stroke="#efaad7"/><path d="m30.661425 50.356056q79.001517 40.605662 99.75093 1.691527" stroke="#a2beb4"/><path d="m97.232494 68.614758q44.781344-14.309609 50.214436 27.312076" stroke="#f9e0f0"/><path d="m252.892279 5.159925q-108.595289 58.039657-17.961042 122.138777" stroke="#000100"/><path d="m94.189582 87.806963q59.291406 17.309449 52.582803-37.359617" stroke="#eecde1"/><path d="m160.537181 65.756129q-36.927446 53.667452-67.346626 3.739495" stroke="#eadfdf"/><path d="m10.656193-7.904612q-26.656193 164.606673 38.515689 165.950023" stroke="#000200"/><path d="m85.932939 78.616246q70.235805 23.421817 79.863662-7.642135" stroke="#e9cddc"/><path d="m108.311817 51.980688q45.421667 28.432795 42.592058 43.383104" stroke="#f7d8ed"/><path d="m157.930268 59.85208q-59.848068 26.527105-131.463297-17.177985" stroke="#99b1ac"/><path d="m66.642609 47.110425q18.131511 125.889575-82.642609 107.806252" stroke="#000"/><path d="m-7.32737 151.866702q151.089332 21.133298 258.675507-152.80641" stroke="#001902"/><path d="m165.252518 51.983283q-92.071569 51.275315-136.457184-15.880953" stroke="#95b0a3"/><path d="m95.497506 65.96916q24.346551 42.646705 74.070597-.538366" stroke="#f4cee9"/><path d="m255.384343 125.388557q-108.678921-58.271214-9.550326-123.816122" stroke="#000700"/><path d="m100.100153 90.201559q22.706247-11.5891 30.593455-38.192192" stroke="#ffeff8"/><path d="m-1.231597 150.77747q242.477822-50.743125 248.021771-160.378208" stroke="#001a00"/><path d="m-4.367881 134.16056q250.734252 1.436256 219.922343-135.731264" stroke="#002000"/><path d="m23.695349 48.619365q14.200427.328398 177.846629-44.321509" stroke="#508f61"/><path d="m248.503314-1.440513q-107.838657 61.017882-6.724515 128.112757" stroke="#000900"/><path d="m265.728318 18.995094q-75.819517 154.004906-232.031867 44.565023" stroke="#001d00"/><path d="m148.855785 95.524151q-35.394208-10.96342-22.393563-50.241769" stroke="#f6e1d2"/><path d="m-6.238422-16q38.963097 107.327381 3.20994 178.710352" stroke="#000300"/><path d="m162.186019 65.311353q-37.732674 60.52731-73.732031-3.341053" stroke="#e6d1d6"/><path d="m233.23447-16q-31.655822 27.870391-211.029647 60.981526" stroke="#508e62"/><path d="m262.626316.844514q-122.91162 10.479879-62.900128 137.155259" stroke="#000e00"/><path d="m19.408435 155.971142q-35.408435-14.488104-9.909549-171.971142" stroke="#000"/><path d="m14.058214-7.440311q-30.058214 162.048127 38.16808 165.180043" stroke="#000600"/><path d="m-16 147.193262q252.228566-44.422467 264.897238-142.2366" stroke="#001b03"/><path d="m245.349508-4.950406q25.650492 128.813836-248.761587 134.047482" stroke="#001e00"/><path d="m141.107384 53.933658q-18.925976 54.975197-49.496155 40.192145" stroke="#e9d4cc"/><path d="m9.180531-5.143463q-25.180531 162.426569 26.802308 162.280162" stroke="#000200"/><path d="m241.049012 122.626271q-99.24345-71.192438 3.502737-123.315091" stroke="#000b00"/><path d="m67.235197 45.325309q7.332184 127.674691-83.235197 106.952954" stroke="#000"/><path d="m15.127983 95.264634q-31.127983-98.44612 61.157341-96.063887" stroke="#000f01"/><path d="m258.28251 125.692387q-108.899302-25.891872-27.798691-127.804754" stroke="#000b00"/><path d="m109.184478 51.910215q10.620114 35.444266 31.61935 50.667199" stroke="#fcb7da"/><path d="m219.770839-11.666308q2.622521 15.11612-199.998108 56.467278" stroke="#4c895e"/><path d="m245.024759 124.671332q17.081424-140.671332-66.748595-127.314061" stroke="#000100"/><path d="m193.679766 142.603804q-9.019137-121.870287 71.151705-136.485029" stroke="#000500"/><path d="m13.855838-.080337q1.751186 108.83856-14.494015 173.080337" stroke="#000800"/><path d="m260.143748-5.104174q-112.009753 63.716815-.833967 131.382611" stroke="#000b00"/><path d="m163.808199 47.798889q-16.584576 62.519758-65.465298 22.760697" stroke="#ccb6c6"/><path d="m247.078809 8.631823q23.921191 114.033896-263.078809 147.06866" stroke="#001e04"/><path d="m188.840876 22.62027q82.159124-13.821529 62.172325 86.810517" stroke="#000500"/><path d="m246.794174 123.085407q9.494141-76.812509-156.842529-88.489487" stroke="#001200"/><path d="m96.323374 73.952515q25.262434 14.709313 48.970979-23.261828" stroke="#fde6e7"/><path d="m108.608096 54.601618q30.136478 2.135839 28.286909 35.652084" stroke="#ffe8f8"/><path d="m214.828097 3.514952q56.171903 4.951712 35.336392 120.991537" stroke="#000900"/><path d="m-1.756286-16q1.791873 170.203462 259.099704 104.049747" stroke="#002206"/><path d="m184.808033 23.40416q86.191967-11.983978 58.67577 99.241215" stroke="#000700"/><path d="m147.257931 70.379825q-40.903931-15.072269-40.02165 29.200269" stroke="#f3e1e8"/><path d="m-16 132.08897q276.735649 2.67375 253.054097-148.08897" stroke="#002505"/><path d="m214.685508-5.176321q-44.49821 25.731857-98.664995 32.827501" stroke="#5f9b6d"/><path d="m239.615953-2.600714q-100.282809 56.021392 3.937686 128.453688" stroke="#001200"/><path d="m6.907204 156.434421q54.354492 12.247368 70.184786-81.061933" stroke="#000"/><path d="m251.620013-16q3.682257 146.264727-259.729208 160.98583" stroke="#002205"/><path d="m19.708482-10.738935q-35.708482 167.250409 37.868822 167.956216" stroke="#000900"/><path d="m242.312631 123.048335q-91.827212-75.311088 16.934358-122.012842" stroke="#000e00"/><path d="m271 146.22813q-70.013439-108.398791-122.396602-76.244515" stroke="#000b00"/><path d="m94.84049 89.492236q46.173806 14.067982 36.763552-35.034047" stroke="#eadad2"/><path d="m29.197819 30.367867q17.131874 37.231953 116.070995 38.625409" stroke="#94a4a6"/><path d="m267.310032-4.061091q-49.389717 177.061091-246.804456 72.155772" stroke="#001f01"/><path d="m25.483183 171.673478q-36.966432-31.374088-13.295729-178.884292" stroke="#000500"/><path d="m148.678256 98.719598q-4.201736-22.413247 11.469461-32.159858" stroke="#f5dff1"/><path d="m249.857461 123.835888q-99.288153-52.998222-5.292227-115.363298" stroke="#000c00"/><path d="m228.122871 124.903954q-99.182313-87.587779 28.826803-135.125552" stroke="#000f00"/><path d="m138.870372 105.641145q-5.126664-38.070088-29.359778-57.428513" stroke="#e4d6c9"/><path d="m226.918153 126.010367q44.081847-4.578478 14.063199-142.010367" stroke="#000700"/><path d="m195.427774.457915q-3.548074 24.087615-164.299914 39.308913" stroke="#4e8958"/><path d="m241.052107.075936q-96.365193 34.609718-17.02317 118.847287" stroke="#001200"/><path d="m-2.106901 83.980548q58.14944-43.347635 113.29156 79.020738" stroke="#000e00"/><path d="m.091749 147.441764q59.368276 25.558236 73.512175-68.756699" stroke="#000"/><path d="m201.665396 138.483805q-57.305313-125.666153 53.76176-127.754659" stroke="#040d00"/><path d="m163.12083 77.627325q-47.109005 25.239859-54.025819-26.403283" stroke="#f3cae4"/><path d="m86.316946 91.886206q6.680437-7.6963 62.445478-27.162588" stroke="#f0d6db"/><path d="m23.963588-14.102209q-39.963588 165.172873 34.130614 170.165111" stroke="#000d01"/><path d="m183.304007 141.950843q86.251292-13.083385 56.498581-152.38003" stroke="#030b00"/><path d="m233.271114-16q-8.896327 16.58226-204.467655 57.641571" stroke="#49875b"/><path d="m25.810995 34.077166q165.9875-6.195885 180.682057-48.067094" stroke="#4d895a"/><path d="m151.851738 93.899659q-32.101864 17.306914-45.223399-41.541282" stroke="#e7add2"/><path d="m83.339026 74.527529q-94.628878 29.321581-80.38603-73.989186" stroke="#000600"/><path d="m98.249593 91.762173q42.747887.933184 27.801613-44.737036" stroke="#eecfcd"/><path d="m141.949303 103.431646q15.083523-21.952057-24.209133-58.087549" stroke="#d9bdcb"/><path d="m14.657239 1.223083q-30.657239 101.995982 103.310899 140.966503" stroke="#001a00"/><path d="m11.854433 165.87036q93.765137-69.683459-17.478746-126.380224" stroke="#000b00"/><path d="m242.224842 124.787706q-12.576696 26.918784-107.955511 13.372786" stroke="#5d7f72"/><path d="m194.171573 141.410572q30.875573-94.492232-39.916139-95.801181" stroke="#030000"/><path d="m129.776155 46.505809q-68.389111 51.024057-98.028075-6.662499" stroke="#81a297"/><path d="m-7.964972-6.352194q26.812847 8.166492 24.691147 179.352194" stroke="#000600"/><path d="m90.420709 78.183889q-106.420709 13.879609-89.146824-74.354182" stroke="#010d00"/><path d="m227.436316-16q29.207635 139.232675-243.436316 143.44887" stroke="#012504"/><path d="m262.455742 122.074584q-36.361729-97.113371-114.701553-50.893852" stroke="#021100"/><path d="m251.842617 124.142498q-95.621124-59.249107 6.105668-121.62299" stroke="#001000"/><path d="m159.110578 55.8603q10.180776 37.968056-53.728617 42.450107" stroke="#c6c7bb"/><path d="m194.517158 23.854887q67.243841-4.947978 48.017742 100.327232" stroke="#000800"/><path d="m-16 153.797464q91.202832 17.370272 83.826037-94.568551" stroke="#030500"/><path d="m164.794864 76.7864q-34.718438 16.808684-138.760686-30.425788" stroke="#98b89d"/><path d="m-15.265476 166.718694q103.210224-55.982906 98.401085-80.418044" stroke="#000500"/><path d="m113.676471 95.289483q-8.372191-40.641308 18.053603-41.390582" stroke="#f0d7e8"/><path d="m239.483121-16q23.118781 138.753434-243.84973 136.597677" stroke="#022706"/><path d="m262.033311-16q-47.39247 106.313136-234.339267 17.25647" stroke="#082101"/><path d="m175.679935 137.066492q94.526428 8.886943 67.244668-137.683862" stroke="#051001"/><path d="m95.748473 41.257572q149.61338-8.609118 162.069402 90.867917" stroke="#041800"/><path d="m145.513582 73.456431q1.376032-12.822535-38.145892-11.722625" stroke="#fdcfee"/><path d="m190.674909 154.328039q1.635028-16.300204 54.372965-24.048877" stroke="#6f8a7f"/><path d="m188.403399 145.047484q5.012819-161.047484 82.596601-144.221551" stroke="#041500"/><path d="m18.492294 70.236361q214.183821 102.763639 230.209608-59.511166" stroke="#052005"/><path d="m109.638368 153.29061q-54.856629-113.524025-106.055364-70.636251" stroke="#001600"/><path d="m105.749758 98.710454q4.334151-29.918578-8.300878-35.54845" stroke="#f7e6ef"/><path d="m164.796718 65.52798q-19.053403 40.042829-69.822006 5.496603" stroke="#eccee3"/><path d="m175.075073 20.057379q-42.572604.093288-42.853893-1.639324" stroke="#76b380"/><path d="m271 130.594642q-113.975394-44.225047-14.819478-146.594642" stroke="#001200"/><path d="m3.471558-.048208q-8.495095 108.736917 80.76392 76.907141" stroke="#040b00"/><path d="m207.549629 123.163317q15.919592-107.285055-116.771104-81.184313" stroke="#091300"/><path d="m223.598363 77.376843q-63.436307-36.502663-79.388075 7.03517" stroke="#14100a"/><path d="m146.819696 46.999015q-21.791071 30.920128-52.34643 48.515564" stroke="#e8c7d1"/><path d="m-16 163.222398q99.286227-26.240088 86.954714-89.757719" stroke="#000"/><path d="m253.138658 27.325167q17.861342 97.885067-254.509657 109.669749" stroke="#002909"/><path d="m168.699042 66.09964q32.16792-82.09964 86.000973-24.535369" stroke="#010800"/><path d="m101.779992 58.110721q32.92394-2.997791 26.573591 41.159031" stroke="#dbdec1"/><path d="m241.185115 2.43982q-102.232424 58.233182-3.856461 123.037887" stroke="#010"/><path d="m79.785257 1.797952q-95.785257-2.130675-71.459199 171.202048" stroke="#061503"/><path d="m235.574992.376659q35.425008 101.328312-251.574992 156.654804" stroke="#022709"/><path d="m26.051899 45.429066q139.866144-20.173135 175.30059-42.590288" stroke="#4b8556"/><path d="m79.603269 72.821057q19.961157 59.711519-95.603269 76.881188" stroke="#000d00"/><path d="m110.484293 53.065568q38.939785 12.358407 29.236028 52.170489" stroke="#eccadf"/><path d="m271-.111731q-147.629138 21.919748-69.276769 136.516126" stroke="#061600"/><path d="m155.845258 83.377759q-23.388318 15.046661-41.372997-31.781826" stroke="#edebd0"/><path d="m195.422415 14.915396q75.577585-6.414042 49.6251 109.897989" stroke="#001300"/><path d="m71.169865 72.011002q29.959707-32.781214-7.156669-44.647579" stroke="#5fa771"/><path d="m257.136118 136.399486q-63.785171-.520996-70.707922 22.024163" stroke="#668679"/><path d="m-1.63031 83.237852q94.337165-16.233946 81.226399 79.157187" stroke="#080b00"/><path d="m-14.178516 155.810136q169.169877 17.189864 272.345661-166.783797" stroke="#022007"/><path d="m88.85541 92.432072q45.979098 11.749932 58.214073-46.637782" stroke="#e3c0d1"/><path d="m214.024494-8.183553q3.351063 12.918352-187.370917 60.28804" stroke="#4a835a"/><path d="m-16 87.241334q125.05088-43.248085 121.923113 77.080287" stroke="#021b03"/><path d="m261.37533 145.073563q-20.363063-105.07934-161.963101-106.220342" stroke="#091700"/><path d="m148.742373 64.010029q-21.308096 21.526243-53.672825 11.950028" stroke="#e8e8c0"/><path d="m136.78721 92.13749q3.751065-29.775357-45.237226-26.385613" stroke="#eddce1"/><path d="m24.594515-7.990167q-40.594515 152.431619 84.091368 162.58416" stroke="#071a08"/><path d="m247.648634 125.501538q23.351366-117.96701-35.910421-120.955012" stroke="#001300"/><path d="m128.894712 49.530368q5.730267 30.015947-30.269465 24.638254" stroke="#efdce6"/><path d="m107.200036 156.557474q-32.692473-75.86536-112.932149-111.536694" stroke="#001800"/><path d="m127.210918 100.375436q33.533465 6.955013 30.010882-50.845845" stroke="#cb9dba"/><path d="m241.206815 122.536519q29.793185-114.845726-34.389421-117.621011" stroke="#010"/><path d="m34.13059 63.378935q56.12162 56.298809-30.71657 87.959083" stroke="#000a00"/><path d="m58.961349 166.960244q-74.961349-18.902459-43.674425-161.871554" stroke="#000e03"/><path d="m172.370317 173q81.367556-123.384934-60.248423-138.990633" stroke="#0c1200"/><path d="m100.714867 59.411299q-49.832925 27.337059-64.098151-25.56075" stroke="#69988c"/><path d="m-14.178168 173q45.654886-92.491352 132.226977-31.952383" stroke="#001800"/><path d="m5.545387 158.967255q-19.217957-143.752465 64.422202-165.281469" stroke="#071107"/><path d="m116.893701 49.605254q39.171494 19.024135 8.339326 45.808958" stroke="#dcdad8"/><path d="m259.560838 35.739898q-180.824113 29.109171-183.319466-32.375974" stroke="#051e00"/><path d="m197.948839 138.054289q-56.987179-118.783935 50.762527-140.328813" stroke="#051900"/><path d="m33.555234 61.391017q1.509521-52.549591 57.13358-24.250075" stroke="#579967"/><path d="m67.648265 65.836388q-7.573885 107.163612-83.648265 84.90844" stroke="#000d00"/><path d="m-16 159.580179q281.675341-26.438886 255.040422-160.785944" stroke="#042609"/><path d="m175.184724 16.948694q-29.243204 12.843184-39.561561-4.079425" stroke="#6dac78"/><path d="m252.11739 125.334824q18.88261-118.503512-52.590317-108.012092" stroke="#010"/><path d="m128.686642 48.193438q-29.368517 39.457056-101.769549-8.095944" stroke="#819397"/><path d="m267.792518 137.27685q-83.313463-14.413283-85.384396 35.72315" stroke="#627d71"/><path d="m-.715091 153.771586q89.071529-61.106351 109.352773 1.238518" stroke="#010"/><path d="m148.070822 54.502274q-23.873317 65.39066-64.645135 26.333525" stroke="#deb5ce"/><path d="m36.970217 62.575508q5.390204-27.630715 172.114943-64.507835" stroke="#447f57"/><path d="m271 114.842263q-24.69409-13.807519-128.901335-88.441125" stroke="#051100"/><path d="m120.124602 142.661463q-117.526884 30.338537-120.594498-17.604575" stroke="#000d01"/><path d="m176.909924 159.88005q71.163605-84.204541-22.282422-115.453578" stroke="#0c0901"/><path d="m162.017491 65.900746q61.914496-15.17209 84.363531-81.900746" stroke="#041100"/><path d="m127.336467 99.425888q26.542675 3.843581 37.61909-49.985794" stroke="#c7a5bb"/><path d="m-2.713104 156.402115q96.917335 8.317537 63.839092-82.086047" stroke="#000800"/><path d="m189.884619 24.079155q81.115381-1.824646 47.129577 90.722304" stroke="#010"/><path d="m152.230487 93.667314q-29.911474-40.971507-55.112899-15.989071" stroke="#e2d9db"/><path d="m30.631778 61.954189q18.274334 87.174265-25.229391 96.656232" stroke="#000400"/><path d="m227.16881 126.91437q43.83119-17.34773 4.723989-129.689962" stroke="#010"/><path d="m30.002492 33.907885q7.699356 24.231231 204.655246-46.375189" stroke="#498159"/><path d="m215.442438-.863468q-58.916249 119.541134 44.686548 125.39481" stroke="#031600"/><path d="m110.560729 79.793925q-28.626759-78.969341-78.894902-41.467565" stroke="#438457"/><path d="m144.222512 41.2485q6.112092 21.198763-43.910217 52.48963" stroke="#e2c3c0"/><path d="m255.470153 35.727283q-181.406864 16.793556-180.184065-28.826203" stroke="#092202"/><path d="m127.233764 45.462875q-10.732563 30.982198 10.364749 59.661517" stroke="#e6c2c2"/><path d="m84.682809 88.521936q40.096605-22.068863 39.943659-39.697443" stroke="#e7bcdb"/><path d="m23.979447 62.589861q.147846-44.101295 147.405808-38.626993" stroke="#468251"/><path d="m247.099958 124.578477q-66.151623-12.145616-17.880683-132.366617" stroke="#001800"/><path d="m30.638704 30.772518q28.618119 30.147215 34.247881 39.589626" stroke="#5e9889"/><path d="m260.450168 134.616455q-12.977249-11.577388-69.422868 17.777192" stroke="#648273"/></g></svg>