<svg height="680" width="1024" xmlns="http://www.w3.org/2000/svg"><path d="m0 0h1024v680h-1024z" fill="#968e7b"/><g fill-opacity=".501961" transform="matrix(4 0 0 4 2 2)"><path d="m-16 15 270-31-10 125z" fill="#fff"/><path d="m6 185 265-40-287-82z"/><path d="m271 2-211-18-6 138z" fill="#fffff1"/><path d="m243 98-259 70 287 2z" fill="#311b00"/><path d="m-16-2 111 59 4-45z" fill="#c88a3c"/><path d="m-16 126 80 17-23 16z" fill="#ffcf4f"/><path d="m240 22 31 51-39-18z" fill="#572600"/><path d="m221 120-80-35 34-72z" fill="#edb267"/><path d="m77 89-27 96 140-77z" fill="#22342a"/><path d="m5-16-21 72 33-13z" fill="#fff"/><path d="m179 139 20 46 72-30z" fill="#c45100"/><path d="m60 127 20-140-54 60z" fill="#b2cccf"/><path d="m98-16-2 110 115-109z" fill="#fff"/><path d="m208-16-24 75 68 42z" fill="#f8ffff"/><path d="m24 99 108 2-138-49z" fill="#738a75"/><path d="m74 81-18 43 21-7z" fill="#ff9110"/><path d="m72 32 12-24 22 29z" fill="#ff8700"/><path d="m15-16v54l45-20z" fill="#a47030"/><path d="m-16 73 78 54-43 11z" fill="#13160d"/><path d="m203 170-87-69-88 74z" fill="#1f2626"/><path d="m198 145 73-45-7 40z" fill="#101918"/><path d="m169 64-30 31 1-27z" fill="#ff9316"/><path d="m44 158 9-13-10-16z" fill="#ffeea8"/><path d="m70 65 10-81-26 7z" fill="#fef7f1"/><path d="m189 55 68 17-11 40z" fill="#d8e7ed"/><path d="m261 52-30-21 40-11z" fill="#ce7107"/><path d="m-12 47 38 28 25-14z" fill="#415b57"/><path d="m103 19 166 5-23-40z" fill="#f7fcff"/><path d="m271 95-24 24-81-16z" fill="#698566"/><path d="m53 150-24-21-1 27z" fill="#fea740"/><path d="m170 81-2 41 81 57z" fill="#634b22"/><path d="m7 181-23-40 19-36z"/><path d="m63 123 6-37-16 20z" fill="#ffdeb4"/><path d="m98 48-18 8-5 36z" fill="#738373"/><path d="m29 149-22-28-3 24z" fill="#ea9935"/><path d="m22 0v13l13 2z" fill="#fff2fc"/><path d="m60 16-22-5 2 14z" fill="#2d4128"/><path d="m55-16h123l-20 78z" fill="#fbfeff"/><path d="m194 121-10-16 9-30z" fill="#ffcd75"/><path d="m175 94-27 19 11-32z" fill="#a1c3c8"/><path d="m182 156 13-18 29 35z" fill="#d47000"/><path d="m81 153-17-2 13-2z" fill="#f8d38a"/><path d="m200 185 71-19-29-26z" fill="#8b3700"/><path d="m174 23-12 6 30 14z" fill="#fd8f2a"/><path d="m17 42 38 53 9-78z" fill="#95a9a4"/><path d="m122 54 3 44-78-25z" fill="#d1e0e9"/><path d="m69 171-85-3 33-23z" fill="#221c15"/><path d="m22 4 51 3-18-23z" fill="#e6b35b"/><path d="m220 115v11l-22-21z" fill="#ffbd34"/><path d="m207 68 24 42-49-37z" fill="#97a08e"/><path d="m74 18 21 25-19-2z" fill="#fe9320"/><path d="m207 154 15-6 14 13z" fill="#000b17"/><path d="m173 75 49-59-17 50z" fill="#f2f8fe"/><path d="m260 45-22-7-2 19z" fill="#523a16"/><path d="m-14-16 34 39-21 24z" fill="#e5f2f7"/><path d="m91 90-13-52-4 90z" fill="#81937f"/><path d="m51 99-34 11 46 36z" fill="#272d20"/><path d="m270 37-3-7-25 7z" fill="#fff"/><path d="m23 55 9 36-38 7z" fill="#39463b"/><path d="m16-11 13-5-14 39z" fill="#ba3f00"/><path d="m21 137h15l-22 8z" fill="#fee1cd"/><path d="m94 60 14-35 71 40z" fill="#ebf3f5"/><path d="m76 80-16 43 17-14z" fill="#bc6800"/><path d="m44 142-13-13-4 30z" fill="#d19132"/><path d="m212 48 8 1 1 5z" fill="#7b5d2e"/><path d="m171 108-100 48 119 23z" fill="#282f2a"/><path d="m150 74 15-4-11 23z" fill="#ff951f"/><path d="m58 13-19-20 19 40z" fill="#699192"/><path d="m138 80v16l-11-21z" fill="#755c20"/><path d="m231 150 2 35 18-40z" fill="#c75f00"/><path d="m83 12-13 20 32-13z" fill="#f4961f"/><path d="m12 26 22-3 22 23z" fill="#c1c7b9"/><path d="m207 135-26 10 5 19z" fill="#c0650c"/><path d="m196 102-11 34 35-3z" fill="#3b4230"/><path d="m170 25-6 31 9-5z" fill="#ec8748"/><path d="m222-16-13 55 53-21z" fill="#e2e5e5"/><path d="m43 14-9 15v-45z" fill="#b16b06"/><path d="m176 30-5 20 16 8z" fill="#f9dfe7"/><path d="m158 94-1-13 17-6z" fill="#cfd8e0"/><path d="m219 162-3 23 18-14z" fill="#001016"/><path d="m28 108-15-18 52-1z" fill="#5a856f"/><path d="m130-3-16 83-25-8z" fill="#f9fcfe"/><path d="m58 35 21 43-9-62z" fill="#e0ecf8"/><path d="m129 94 1-22-26 31z" fill="#98b0ae"/><path d="m271 154-17-36-5 67z" fill="#221509"/><path d="m200 163-58-6 61 28z" fill="#201913"/><path d="m216 145-9 10-2-8z" fill="#ed6b00"/><path d="m45 133 16 13-22 5z" fill="#f5bb79"/><path d="m25 42-17 27 9-34z" fill="#a8bcc1"/><path d="m76 114 48 66 19-84z" fill="#2e332a"/><path d="m233 28 6 37-10-15z" fill="#96a59f"/><path d="m208 156-17 29 30-26z" fill="#ed8603"/><path d="m57 123 21-7v13z" fill="#5a7a5a"/><path d="m82 60 7-51 12 23z" fill="#ffb052"/><path d="m223 47-23 47 25-19z" fill="#f3f2ed"/><path d="m157 115-19-16 31 1z" fill="#6a8d74"/><path d="m-10 108 38 30 6-20z" fill="#201712"/><path d="m166 44-17 30-32-37z" fill="#e4e5d9"/><path d="m185 110 14 9-25 6z" fill="#ad580c"/><path d="m173 86 43 10-13 7z" fill="#ffd488"/><path d="m71 90-19 16 10-17z" fill="#e89040"/><path d="m235 109-36 38 72-16z" fill="#2c332a"/><path d="m215 164-33-20 8-10z" fill="#7c3200"/><path d="m164 82-17-17 16-1z" fill="#e38e25"/><path d="m185 45-1-15-7-5z" fill="#ff9d14"/><path d="m192 35-38-32 48-19z" fill="#f9fcff"/><path d="m65 99-16 11 17-1z" fill="#fff0df"/><path d="m17 149-11-24 2 24z" fill="#ce7f09"/><path d="m6 9 20-7 2-18z" fill="#b55200"/><path d="m66 14 80-25-62-5z" fill="#f8fcff"/><path d="m22 149 23-12-14 2z" fill="#af6000"/><path d="m13 1-29 21 19-28z" fill="#eaf4fe"/><path d="m175 104-3-25 20-4z" fill="#ba9958"/><path d="m138 82-1 14 12-17z" fill="#ff8d14"/><path d="m201 72 8-1-8 13z" fill="#7e7151"/><path d="m152 119-12-2 2-3z" fill="#c0aa7b"/><path d="m53 149 9 1-14-14z" fill="#c16c10"/><path d="m86 18 41-34 87 12z" fill="#fafbff"/><path d="m235 157-6-3-13 11z" fill="#00101e"/><path d="m54 69 44 19-68-9z" fill="#aab7b9"/><path d="m247 100-18 3 18-45z" fill="#d5dbd9"/><path d="m271 113-52-4-4-18z" fill="#749286"/><path d="m62 121-8-2 15-18z" fill="#fbc6aa"/><path d="m97 106v-12l37 2z" fill="#677f6f"/><path d="m153 96-4-15-4 12z" fill="#cdd2ce"/><path d="m271 179-25-16-4 22z" fill="#000612"/><path d="m185 185h27l4-20z" fill="#f6e4b3"/><path d="m253 167-6-25h-15z" fill="#aa4e00"/><path d="m42 10 10-8-3-15z" fill="#bcd2cb"/><path d="m120 146 5-3h-4z" fill="#b4c9c9"/><path d="m240 37 16-11-22 5z" fill="#b65800"/><path d="m17 139 6-37 31 10z" fill="#282822"/><path d="m15 19-1-13-26 33z" fill="#d8e0e9"/><path d="m75 52 9 10 7-8z" fill="#6b7b62"/><path d="m47 110 5-10 3 2z" fill="#0f2e21"/><path d="m183 113-16-13-9 27z" fill="#333b32"/><path d="m15 83-21-28 4 98z" fill="#2e2d25"/><path d="m27 18-6-14 12 12z" fill="#ffcbc4"/><path d="m250 63 21 38-4-78z" fill="#6b7f62"/><path d="m49 148-3-14-2 19z" fill="#f3eece"/><path d="m271 115-2-76-16 62z" fill="#243127"/><path d="m22 36 30 28-19 13z" fill="#7c9386"/><path d="m243 66 4-13-7 9z" fill="#5b5c3f"/><path d="m16 31 14 3-17 2z" fill="#c06500"/><path d="m-6 123 33 61-30 1z" fill="#1e1813"/><path d="m84 147-46-41 27 45z" fill="#2b3024"/><path d="m195 85 5-10-22 13z" fill="#ffe5a0"/><path d="m32 149 1 7-6 1z" fill="#e3c897"/><path d="m86 39-7 13 2-14z" fill="#ffeed9"/><path d="m26 18v7l-9-13z" fill="#975400"/><path d="m22 18-9 3 9 12z" fill="#afbfc9"/><path d="m39 155 37 30-92-19z" fill="#212221"/><path d="m216 114-25-10 8-4z" fill="#a16f18"/><path d="m130 101-50 5 1 62z" fill="#2b2d26"/><path d="m75 156-5-6h11z" fill="#bcab83"/><path d="m165 79 22 8-19-18z" fill="#a8bbc1"/><path d="m88 47 32 3 14-12z" fill="#f0f5f5"/><path d="m180 53-11 5 20 7z" fill="#f09d66"/><path d="m47 4-5 21 11-8z" fill="#3d5043"/><path d="m237 125 31-8-61-11z" fill="#495e4b"/><path d="m34 132-3-3v12z" fill="#e9d9bb"/><path d="m116 96-43-35 15 29z" fill="#b8bfbf"/><path d="m60 18 2 47-21-39z" fill="#9fa79b"/><path d="m257 164-17-10-22 13z" fill="#b65500"/><path d="m187 92-18-5 6 6z" fill="#bd6f00"/><path d="m168 86 4-5 2 15z" fill="#3f594b"/><path d="m141 73-5 7-15-8z" fill="#9bb3bf"/><path d="m22 147-8-7h12z" fill="#f6d2b3"/><path d="m271 14-22 18 22 3z" fill="#bbc9b7"/><path d="m188 94-3 12 9 13z" fill="#f5b761"/><path d="m55 3-7-9 23 12z" fill="#f2a934"/><path d="m71 29-16-25 21 8z" fill="#e5eff8"/><path d="m182 148 20 11h-16z" fill="#e99121"/><path d="m163 50 10-4-9 9z" fill="#de781a"/><path d="m177 108 8-6-5-10z" fill="#68958c"/><path d="m74 84-35 16 3-16z" fill="#7f9f93"/><path d="m218 48-3-5-2 10z" fill="#968661"/><path d="m8 144-1-8-3 4z" fill="#f9c8a3"/><path d="m74 22 14-1-3-10z" fill="#e27f00"/><path d="m21-8 13 14-8-20z" fill="#fffac1"/><path d="m14 158 3-14-7-3z" fill="#934f00"/><path d="m170 70-21-16 19 2z" fill="#e9f0e8"/><path d="m4 132 9-4-6-8z" fill="#b66d00"/><path d="m226 53 25 16-1 25z" fill="#cbd1d6"/><path d="m7 48 11 8-20 2z" fill="#495750"/><path d="m219 121-16-19 1 10z" fill="#f7ae41"/><path d="m171 43-71 3 32 26z" fill="#ebf0eb"/><path d="m198 81-6 9 23-2z" fill="#a2ada6"/><path d="m166 124-28-24-32-1z" fill="#364133"/><path d="m183 43 51 40-25-42z" fill="#f2f6f3"/><path d="m212 135-48-3 51-13z" fill="#2f3730"/><path d="m2 59 11 9h-8z" fill="#b2c6da"/><path d="m191 53-9-6v-8z" fill="#fea64d"/><path d="m28-16-12 5 25 14z" fill="#0b3a4e"/><path d="m163 23 4 11-17 23z" fill="#f4e3c0"/><path d="m97 28-21 8-2 9z" fill="#eb8e2b"/><path d="m200 116-1-15 7 14z" fill="#7b8c6b"/><path d="m201 135 6 1-11 9z" fill="#db7816"/><path d="m22-11-28-5 37 23z" fill="#d26500"/><path d="m146 68 5 4 6-2z" fill="#fff7d1"/><path d="m220 126 2-13-6 13z" fill="#e8c289"/><path d="m34 137v18l-7-9z" fill="#c47400"/><path d="m196 52 36-21-62-47z" fill="#f2f5f5"/><path d="m80 71-6-25-17 23z" fill="#ced6da"/><path d="m32 26 14 1-13-9z" fill="#e69f37"/><path d="m188 73v7l3-4z" fill="#47604f"/><path d="m14 35-30 21 37-12z" fill="#b7c9d0"/><path d="m65 97-9 7 1 19z" fill="#ffdcbe"/><path d="m60 16-3 8-12 3z" fill="#727b5b"/><path d="m122 160 8-2 1 4z" fill="#5d7b77"/><path d="m74 107-7 17v-26z" fill="#d67d01"/><path d="m75 84 1 13 6-26z" fill="#76735a"/><path d="m28 109 14-27-15-12z" fill="#536f5e"/><path d="m239 40-3-19-5 27z" fill="#a89266"/><path d="m44 122-29-5 28 20z" fill="#28251d"/><path d="m107 36-35-6 19-9z" fill="#f8a956"/><path d="m78 111-6 14v-14z" fill="#46776c"/><path d="m173 181 18-23 7 19z" fill="#14171a"/><path d="m261 167 10-12h-23z" fill="#00111c"/><path d="m157 43 22-14-10 11z" fill="#f19e63"/><path d="m191 154 6-1-2 14z" fill="#d26f00"/><path d="m271 122-1 48-28-35z" fill="#201412"/><path d="m192 95 14-2 4-8z" fill="#ffe3a5"/><path d="m118 152-6-1 4-8z" fill="#506d6b"/><path d="m46 25-9 8-5-2z" fill="#f3e7a4"/><path d="m237 147-19-14 5 17z" fill="#2e312c"/><path d="m65 119-16 20 26-8z" fill="#3c5640"/><path d="m37 7 5 5-7-2z" fill="#25585e"/><path d="m132 173-55-20 17-7z" fill="#272823"/><path d="m42 12 3 4-1-12z" fill="#e9dea0"/><path d="m234-16-1 26-6-26z" fill="#e3ce89"/><path d="m168 93-11 3 2-14z" fill="#cacdd4"/><path d="m220 146-7 5-12-5z" fill="#d16c00"/><path d="m60 21 2-9-15-14z" fill="#a7b8be"/><path d="m186 137-73 25 25-46z" fill="#2a2c26"/><path d="m74 46 17 12-4 13z" fill="#8c9988"/><path d="m244 158-22-8 35 1z" fill="#b55b03"/><path d="m161 74-14 4-10 20z" fill="#ffaf55"/><path d="m28 76-11-6 6-2z" fill="#292312"/><path d="m129 91 3-11 4 10z" fill="#3d5548"/><path d="m166 65-2 14-10-14z" fill="#dc831d"/><path d="m135 87h10l-5-9z" fill="#d66e01"/><path d="m94 124-3-6 5 1z" fill="#66726a"/><path d="m210 133-19 7 8-11z" fill="#2a271f"/><path d="m154 40-7-7-24 20z" fill="#e8e5c7"/><path d="m231 99-25-33 3 19z" fill="#c7cfd2"/><path d="m163 123-51 58 72-25z" fill="#272823"/><path d="m42 15-6 3-4-11z" fill="#dc7200"/><path d="m211 24 29 3 31-42z" fill="#e1e4e8"/><path d="m237 98-32 1 3 11z" fill="#84998e"/><path d="m156 92v-8l-5 2z" fill="#fc8b00"/><path d="m99 43 1 14-10 4z" fill="#c2c9cb"/><path d="m23 22v-5l11 4z" fill="#c45d00"/><path d="m106 98-29 12 16-15z" fill="#455e4d"/><path d="m121 68-4 15 14 8z" fill="#bec6ca"/><path d="m31 110-25-42-3 22z" fill="#454f43"/><path d="m52 144 3-5 7 11z" fill="#df9e49"/><path d="m37 99 20 5-2-11z" fill="#57775d"/><path d="m184 130-26-12 4-11z" fill="#404d40"/><path d="m269 42-6-9-29 12z" fill="#9c5210"/><path d="m32 29-3 22-13 10z" fill="#728675"/><path d="m201 33 1-12-5-4z" fill="#e9e19c"/><path d="m94 87-3 6 9 11z" fill="#859c95"/><path d="m14 166 13-10-9-10z" fill="#1d1711"/><path d="m24 33-9-4-2 6z" fill="#cc770b"/><path d="m15 20 5-14-6 8z" fill="#be6700"/><path d="m21 137h6l-1 7z" fill="#ffddb7"/><path d="m24-2-4-6-14 19z" fill="#bb6700"/><path d="m184 35 18 6-8-19z" fill="#f3f7fc"/><path d="m203 96-15-11h-16z" fill="#fad39b"/><path d="m34 20-12-16 9 4z" fill="#f7cecf"/><path d="m29 149-4-4-5 3z" fill="#ad9257"/><path d="m77 32-5 11-6-11z" fill="#e3eaeb"/><path d="m237 29 7-3 5 8z" fill="#d87700"/><path d="m251 36-4 2-5-1z" fill="#f7f8e6"/><path d="m231 67-1-11 13 1z" fill="#b1bdbd"/><path d="m172 29h10l-7-5z" fill="#eb8118"/><path d="m81 25 22-7-31 1z" fill="#f1971a"/><path d="m116 47-19-23 45-40z" fill="#f8fafb"/><path d="m65 10 2 11 13-5z" fill="#f3f5f4"/><path d="m230 166 9 19-18-19z" fill="#04101c"/><path d="m36 65-4-28 17-7z" fill="#a9b2af"/><path d="m3 94 20 10-4 35z" fill="#24231e"/><path d="m200 144 50-4-35-8z" fill="#29201c"/><path d="m92 11h-13l7 2z" fill="#e26c00"/><path d="m51 16-10 4 2 5z" fill="#34392d"/><path d="m19 33 10-11 4 10z" fill="#bdbcb3"/><path d="m161 58h-15l-12 13z" fill="#ccd2d4"/><path d="m196 99 6 11-11 3z" fill="#685c31"/><path d="m41 6-13-9 8 10z" fill="#ff9416"/><path d="m73 4-15-3-5 5z" fill="#e5b15f"/><path d="m132 74-8 4 16 4z" fill="#84988c"/><path d="m187 100-5-5 3-5z" fill="#c18b1c"/><path d="m250 79-10 19-19-36z" fill="#e6ebeb"/><path d="m257 49-9 11 1-6z" fill="#47371b"/><path d="m9 24 2 16-5-4z" fill="#f3e9a3"/><path d="m227 150-30-35 17 3z" fill="#404836"/><path d="m183 89 3-11-19-13z" fill="#bca487"/><path d="m82-6-21 7 2-8z" fill="#fdffff"/><path d="m266 69-16 36 3-23z" fill="#718d89"/></g></svg>