<svg height="680" width="1024" xmlns="http://www.w3.org/2000/svg"><path d="m0 0h1024v680h-1024z" fill="#959177"/><g fill-opacity=".501961" transform="matrix(4 0 0 4 2 2)"><path d="m88.242449 38.634665 93.724668-.292225-17.119057-42.523365-77.468979-6.576019z" fill="#e4d916"/><path d="m248.83698 178.755333.59756-38.23364-38.250898-2.12268 8.086277 46.600987z" fill="#2a0000"/><path d="m110.9835 88.276616 3.68234 75.66744-19.003542 21.055944-40.18226-197.182405z" fill="#bbd7d5"/><path d="m222.924084 12.054183-1.74551-28.054183 20.298591 29.515544-31.579837 131.748872z" fill="#073129"/><path d="m102.431662 60.443028-2.853248-20.874632 56.272618 1.818988-7.65202 24.689139z" fill="#69baff"/><path d="m130.866787 69.689903 2.861335 48.606713 46.247673-5.774983-4.260477-39.043148z" fill="#ceeac0"/><path d="m202.802997 57.786222-1.243847-60.604217-13.699945 2.390132 3.251254 153.082323z" fill="#2a3b43"/><path d="m31.578998 90.23572-47.578998-37.718853 49.267389 128.888858-49.267389 3.305631z" fill="#d7d2d4"/><path d="m62.542201 104.110814 36.144435 78.734752-8.50194 2.154434-38.270179-57.01976z" fill="#88151e"/><path d="m67.793218 6.858577-3.563779 59.941073 24.134852 1.001677-.841376-74.192987z" fill="#3095b3"/><path d="m38.764302 77.37724 80.467367-11.388655 9.858272 48.073578-85.610005 1.479828z" fill="#f0ab74"/><path d="m32.905768 185-8.344586-121.10061 36.597813 5.746108-17.224534-28.553684z" fill="#0b5e85"/><path d="m149.209431 142.808486-31.389201-48.369312-6.529275 44.235265-103.39938.579825z" fill="#6e3e18"/><path d="m149.479185 121.256357 12.219609-7.888513 9.172378 8.227008-26.473646 63.405148z" fill="#1d6e3e"/><path d="m32.631941 137.895401 22.362458-19.144673-47.981425-13.058326 12.256254-17.273129z" fill="#a1feea"/><path d="m199.278575 119.36426 25.261916 27.154643-45.126496-11.229928.69523 49.711025z" fill="#443014"/><path d="m45.173074 142.289201-22.443653-5.073745-16.465999-30.210977-22.263422 33.685732z" fill="#481a3d"/><path d="m216.662211 10.32144 15.878502 173.820174 15.044016-95.796051-44.291447-41.499613z" fill="#e2a67c"/><path d="m5.827674 69.986897 11.175529-31.702515 8.839213-.985308 1.352668 21.714022z" fill="#f61d15"/><path d="m53.054067 154.262399-10.597833-14.144553 34.749723 2.339499-13.954045 13.864125z" fill="#e2f1f3"/><path d="m254.608138 70.862101-27.090714-4.125321 43.482576-2.801597-17.36824 106.571113z" fill="#1f0000"/><path d="m190.66675 18.185507-8.651021 105.015231-7.594396-102.620845 24.585459 66.5324z" fill="#8c2542"/><path d="m113.727672 130.996809 13.723041 54.003191-49.124537-115.949114 22.817452-.855428z" fill="#dfedd9"/><path d="m58.221814 92.663631 8.40167 24.525088 28.695679-3.587578-.684962-24.25347z" fill="#a94e56"/><path d="m193.275861 142.194996 22.716165-1.50108-9.865735 39.353141-11.972265 3.843872z" fill="#d2c8df"/><path d="m212.325178 44.123324 1.907198 112.07356 8.172744 28.803116 9.260523-7.057052z" fill="#572106"/><path d="m41.420768 64.134599 3.362163 74.142754 5.611623-71.764092-5.095994 1.338823z" fill="#faffe5"/><path d="m271 2.793968-27.198799 11.812203-.674367 125.02931-19.958739-20.527388z" fill="#c5cac7"/><path d="m36.494588-16-24.249913 8.968856 8.11923 47.431468 16.539257 2.212175z" fill="#643b64"/><path d="m141.96631 65.09451-10.35229 89.264738 15.226187-36.125488-1.403221-49.869906z" fill="#d2ab29"/><path d="m209.762793 80.151075-53.426891 38.503923 36.228508-26.164251 21.503848 32.820467z" fill="#acd9d4"/><path d="m1.541162 67.279662-13.086182-1.089465 56.279227-2.938523 38.792969 3.199497z" fill="#300901"/><path d="m238.361626 64.797611-1.327256-71.643149-15.910778.743395 2.39485 73.544386z" fill="#00584a"/><path d="m256.400913 141.023359-43.932435-3.91197 2.124831-21.030659 56.406691 5.495575z" fill="#d97c4a"/><path d="m56.653347 54.569405-2.632127-70.569405h6.574658l1.99195 79.238599z" fill="#f1aa1c"/><path d="m43.869459 33.500988 5.977408 14.019052-1.076635-56.322174-7.418422-7.197866z" fill="#00725c"/><path d="m189.799455 67.742505-6.703289-59.846539.480188 46.473216 5.571101 76.516345z" fill="#5da3eb"/><path d="m153.629269 63.384728-17.543134 4.433243 2.745167 2.846656-36.150626-6.389452z" fill="#1c2b3b"/><path d="m87.404914 6.145767-5.351387 151.510039-11.759242-134.621682 3.487997 92.668098z" fill="#87b0d8"/><path d="m31.665172 113.889247 25.904325 2.638583-31.726279 15.894339 3.973339-102.064808z" fill="#59e0d6"/><path d="m41.011222 85.522581-3.775414-64.056281 17.93957 25.849551-.051884-48.249859z" fill="#a2cae4"/><path d="m104.409051 71.974291-.542382 35.340968 15.088016-10.815711-7.910639-27.805745z" fill="#caa20c"/><path d="m30.892072 121.181682-1.903234 46.363233 1.949825 17.455085 6.3163-24.759901z" fill="#14232d"/><path d="m228.982955 50.138681-17.507052 8.427759-5.70361-12.410712 12.812645-8.33802z" fill="#da3321"/><path d="m70.970997 143.522768 7.107894-7.575102 5.095206 41.707355-16.58633-15.058414z" fill="#1f525b"/><path d="m229.820172 184.625393-1.083031-42.656925 11.23858-8.618275 3.885694 51.649807z" fill="#a07400"/><path d="m161.84251 122.119626 2.309857-43.274498-40.246973-27.045078 30.209269-12.180083z" fill="#43b8c6"/><path d="m-16 56.699298 41.356048 14.067336-2.290171 15.126806-18.170532-36.357508z" fill="#fbd7d5"/><path d="m126.188025 135.932344 3.310873 4.302323 3.25336-43.888715-6.38199-19.017522z" fill="#0b4e34"/><path d="m93.608697 126.360747 1.984611 11.613561 10.472849-2.925701-1.550192-26.806552z" fill="#2ad1d2"/><path d="m228.115451 185 1.90251-42.961013-11.90967-2.180297-.381619 45.14131z" fill="#000007"/><path d="m204.614023 111.11995.150625 4.040155-9.601865-4.700109 4.31665 29.640309z" fill="#be0005"/><path d="m26.966956 138.979575-1.416514-29.571721-10.2432 28.726793 4.214075-30.944373z" fill="#b60f0b"/><path d="m220.378463 39.478844-11.748483 4.472297-.13946-36.43059 13.686705 25.816877z" fill="#cadfd1"/><path d="m39.196535 184.638795 8.080627-52.018678 2.640765-7.213867-1.687687 47.150524z" fill="#b70f20"/><path d="m144.169394 141.018138-66.926445 42.976081 7.454492 1.005781 13.58384-43.45561z" fill="#c5ccd2"/><path d="m210.414106 41.985583-6.007369 25.55759-10.896359 8.014649 4.449438-38.52278z" fill="#31b06c"/><path d="m249.042558 64.30361 13.005903 2.362201-5.687692-21.334487-4.769532-9.977662z" fill="#06c3b6"/><path d="m40.743927 108.067936-5.266683-84.731089-4.209405 84.269207 8.857564 11.889628z" fill="#394231"/><path d="m177.524946 141.485521 26.271654-1.35331-41.217036-2.596945-49.228476 3.472166z" fill="#1d2b20"/><path d="m156.226987 145.368286 23.971213-9.752395-7.149308-129.802495-2.862571 172.37489z" fill="#9ab1cf"/><path d="m185.280019 109.508586-5.336747 3.567834-3.170056 9.678031 9.953382 62.245549z" fill="#194f33"/><path d="m101.14592 42.092347 12.496702-7.8816 2.443747 7.022558-15.327247 42.067349z" fill="#eaaed4"/><path d="m90.434873 142.046397-8.953438 16.905156.42388 26.048447 7.554567-7.707935z" fill="#d30614"/><path d="m172.93024 38.558164-16.034303-3.497677-1.030204 27.605178 13.535942 3.691552z" fill="#e9b94c"/><path d="m170.444266 185-4.322745-22.806532-22.171876-23.033964 6.217272 45.840496z" fill="#54344f"/><path d="m238.681541 116.195551 3.393572-32.870163.911427 56.940397-14.507402-3.560585z" fill="#bcdae0"/><path d="m237.569064 101.699524-16.652551-5.615274.418706-27.139356 30.048059-.421186z" fill="#c99a63"/><path d="m28.174317 163.089848.41271-19.47698-.312301-1.001084-14.9268-1.830462z" fill="#e1f2da"/><path d="m117.548057 77.331831-6.263415 16.443948 14.508059 33.368475-.539499-59.923208z" fill="#f57955"/><path d="m51.516232 139.863066 20.153378-4.386682 1.636719-38.915533-4.971776 32.68793z" fill="#a30b00"/><path d="m238.327804 32.21569-4.396373 35.85004-3.693568-23.340058-.516859-60.725672z" fill="#15b18b"/><path d="m26.754241 47.786324 7.084411 25.551078 4.782024-89.337402 4.473208 48.13634z" fill="#a4fa85"/><path d="m51.103963 53.157284-4.709876 9.427188-4.118159-7.219086 2.541398-30.269422z" fill="#0081bf"/><path d="m14.013001 26.019337-7.168511-4.469615 1.355483-3.971659 7.617826-29.411883z" fill="#d0e1fe"/><path d="m-3.252645 108.851408 28.804492-21.348186-18.681652 58.559751 1.195167-80.838157z" fill="#cebcce"/><path d="m100.7913 42.518716 17.397738-6.297725-29.819465-47.15427-.277694 85.434613z" fill="#cabf61"/><path d="m-16 40.404961 24.080636 8.765353 1.996057 58.538663-.708625-123.708977z" fill="#924d60"/><path d="m139.181823 119.987999 10.625314 16.243551 1.113488-57.895593 27.645698 38.391792z" fill="#b6d5c8"/><path d="m118.800687 62.721115 2.199901 2.274192 38.90566.904992-56.841275 2.42709z" fill="#261408"/><path d="m259.798579 161.769396-7.353432 23.230604 9.433023-108.743525-18.238774 14.307973z" fill="#574827"/><path d="m79.207672 37.36338-8.422332 24.721322 16.329115 2.976807 3.971675 3.408349z" fill="#15c5ca"/><path d="m238.602963 102.281292-13.287902-5.009564 3.635465-27.453564 9.113911 41.26119z" fill="#c33739"/><path d="m71.471184 111.24556-17.106278 3.557827-4.850613-49.057167 22.954441 25.610865z" fill="#d5932e"/><path d="m61.463009 86.099841 9.337931-18.440769-18.276638.598295 9.08576 17.569589z" fill="#dcc5d3"/><path d="m102.150592 68.142427-5.895862-33.374404-3.325506 31.73424-18.79677-.014132z" fill="#7d640e"/><path d="m187.423396 104.730607 27.034559 71.518541 3.943302-33.620336-34.675326-6.436605z" fill="#b67b89"/><path d="m196.425442 32.382644 25.175197-48.382644-33.287406 18.475644.941585 42.322864z" fill="#364e3d"/><path d="m78.661604 137.599836 26.908071 1.185709-20.608358-5.327661-6.294276-14.572813z" fill="#f3f4f7"/><path d="m190.444308 66.774204 75.994624.311845-72.67272-2.589296-74.03049 3.160239z" fill="#2b170f"/><path d="m119.656971 67.511781 6.865692 2.097749-50.972808 7.61354 12.999107-8.713447z" fill="#dfe7e5"/><path d="m117.084269 110.803154-3.957482 9.307035.523954 23.431287 11.462293-10.265571z" fill="#681e21"/><path d="m79.804479-16h-5.781486l-2.274725 53.231743 8.055521 2.336454z" fill="#6e545a"/><path d="m112.699723 59.132146 27.450101 7.476052 3.215305-20.222069-35.94797-8.76959z" fill="#7ba5f6"/><path d="m223.67129 113.975059 9.797081 8.272878-4.827878 14.882828-7.255671 5.914383z" fill="#be2f8a"/><path d="m134.155566 183.393954-9.117722 1.606046-4.034323-95.018761 9.966039 67.120133z" fill="#cac871"/><path d="m263.332852 43.013371-23.145474-12.708569-5.753824 21.831572-3.553687-9.692086z" fill="#d9d2b4"/><path d="m171.985049 118.258297-25.205471-4.50633 7.308131 25.193842 15.060701-.639897z" fill="#36b250"/><path d="m138.443405 107.123927-3.433753-37.041157-2.466492 53.746229 5.8411-13.430021z" fill="#dcdfef"/><path d="m64.116047 44.947356 3.879644-18.204863-4.547041-42.742493-.184084 44.335159z" fill="#eff3f4"/><path d="m2.549864 139.440438 1.269369-24.067834 2.701946-14.074621-19.061995 42.488046z" fill="#361302"/><path d="m219.719716 114.216967-7.060191.579171 1.855059 24.150374 8.891374.231399z" fill="#ccb406"/><path d="m41.676545 130.445209 7.584131-1.410872-.750042-42.514674-7.981118-8.495028z" fill="#ccf8bf"/><path d="m55.084874 17.027196-3.492676 54.08981.675418-69.817245 2.668007-17.299761z" fill="#f0dbcf"/><path d="m197.083004 66.746623 33.845074 2.42501-20.792405-1.386454 3.977871 51.609057z" fill="#c5c2bd"/><path d="m212.190485 116.029173 1.651115 29.902499-8.762571-26.496288 1.241748-.609942z" fill="#0d9482"/><path d="m66.370799 65.896161 3.666607 3.213809-9.02665-7.272924-54.007634 5.56615z" fill="#2c1207"/><path d="m65.826008 37.504768 3.52558 35.809659-1.018799 3.41973.746336-92.734157z" fill="#515f34"/><path d="m112.20844 119.602038-7.159704 23.46625.760264-42.896079 7.477547 8.796164z" fill="#effaf2"/><path d="m247.335296 8.028074-7.361257-20.122662-1.986455 32.248542 3.670762 42.146694z" fill="#d2b488"/><path d="m177.683768-2.700301-1.818759 40.202546 1.060301 33.313543 1.0084-9.982405z" fill="#1e2232"/><path d="m224.070763 29.403217-4.295801 93.503064-7.901549-52.70253 18.678717-12.009738z" fill="#3c2334"/><path d="m-6.193361 40.059194-9.806639 4.089066 30.927607-1.766372-.19233 22.81562z" fill="#ff7872"/><path d="m77.497111 122.452739-.788551-63.88492 2.460962 15.21898-.776737-13.231857z" fill="#475656"/><path d="m123.192741 39.431117 14.693625.581428.002044-56.012545-34.447972 2.428696z" fill="#c2af17"/><path d="m179.56634 106.354722 12.441586 34.054696-5.441966-10.059165-2.855258-55.664841z" fill="#cf2f3d"/><path d="m154.990657 184.693494.434273-43.305007 18.648047 2.27946-16.082962 15.992812z" fill="#c7b8ac"/><path d="m20.167706 146.440262.05304-30.843499 5.847104-50.026549-3.072265 64.664048z" fill="#ffb16b"/><path d="m24.831579 123.705876 1.408609 16.309601 8.509852-6.314979-2.479458-15.722181z" fill="#1091ae"/><path d="m242.29489 159.078848 1.875649-41.836423 6.366949 25.304984 4.815073-3.353236z" fill="#771614"/><path d="m15.073566 115.801369-7.308195 19.546242-3.022675-34.251505 2.151257 10.851789z" fill="#463683"/><path d="m134.892965 143.055961.955071 34.390812 6.760961 7.064167-1.904871-43.448379z" fill="#4f5ca4"/><path d="m200.44168 90.492901 3.318445 17.975962-6.145558 3.218762-2.782114-20.001915z" fill="#3ab2c4"/><path d="m124.798496 136.234273-24.330695 4.065605 43.733962 1.838747-29.754085-16.671697z" fill="#4e412b"/><path d="m41.022797 144.730745-3.836899-.532834-1.834003 40.802089 5.397192-22.15656z" fill="#dfdfed"/><path d="m221.36369-4.974835-6.245481 40.14207 1.610398-48.466264 5.591581 85.713892z" fill="#dcbe79"/><path d="m121.506935 85.813621-.893568 28.972048.67664 6.461897-9.689062-18.638826z" fill="#cf2633"/><path d="m86.962797 46.516252-1.21166-36.72931-6.587576 12.212771 3.978719 25.596595z" fill="#99c4e7"/><path d="m52.512557 41.248968 6.211468 33.859878-2.619215 7.147413.730003-41.189105z" fill="#3a382c"/><path d="m95.021376 136.974637-.594534 5.714834-2.234906-10.74155 2.405306-29.601646z" fill="#55462a"/><path d="m83.73806 139.891894-60.348979 1.277676-29.559711-.93654 66.704967-3.403447z" fill="#2b2a1f"/><path d="m187.438251 178.879155-1.014357-18.607505-4.037083-14.336652-1.033017 39.041122z" fill="#13000c"/><path d="m237.740541 110.393853-.771926-22.45048.61006-22.966495 1.681016 59.129142z" fill="#1e3643"/><path d="m78.7804 64.821265.612487 34.132621 1.815079-14.540317 14.861801 3.445585z" fill="#d7defd"/><path d="m221.730438 3.281179 5.252409-19.281179 3.340141 34.455459-7.44579 1.305371z" fill="#300f18"/><path d="m156.779705 151.895339-25.670285-19.714317 14.940855-58.14898-.894078 70.021505z" fill="#c3a038"/><path d="m178.721304 107.664175-1.153036 5.666475-.744958 19.530911 4.44348 6.765969z" fill="#0d9dc4"/><path d="m158.801974 74.017062 17.16498-3.979333-28.995427-5.693578-1.514752-26.929906z" fill="#42cfae"/><path d="m202.114822 25.704875-.080832 18.723935 3.562293-10.11407-3.667874-50.31474z" fill="#97d8b0"/><path d="m59.826258 67.616671-9.246802-2.888914 12.964329-5.36774-1.030058-27.524205z" fill="#61220f"/><path d="m118.547156 173.737354-.872874-8.716001-6.136325-5.885767-1.751169 25.406007z" fill="#9c3627"/><path d="m190.132472 75.320463-1.7087 50.298011-3.193569-20.317513 1.167475-50.761471z" fill="#6ec8d6"/><path d="m241.517191 168.676531 1.426118-24.847182 8.142405-4.913128-4.978402 33.998362z" fill="#182825"/><path d="m67.149056 162.524785-.24444-21.936137-28.21552-.283349 18.75978 7.736z" fill="#d0dcde"/><path d="m215.900658 53.373974 11.482576 9.772435.500006-2.719663-13.047159 5.02671z" fill="#856ad6"/><path d="m181.415234 101.626327-3.878327-61.029408 5.648009.500593.122728-5.012758z" fill="#cb2521"/><path d="m255.070296 120.243753-1.193313-44.167082 12.484356-92.076671-10.280386 146.389256z" fill="#0d0f14"/><path d="m95.038829 87.178376-2.51573 29.272583-7.89208-10.423837 1.457652-14.762697z" fill="#fc5d4e"/><path d="m65.055873 137.582132-9.343151-1.883932 9.218115-45.202221 4.947249 50.790452z" fill="#b9302c"/><path d="m250.600814-16-.0939 32.225171-9.573762-31.932529 4.228272 15.63293z" fill="#b01323"/><path d="m75.703555 154.003291 2.711815-41.14152.653192-16.891856-2.735048-17.355307z" fill="#545650"/><path d="m221.43109 98.21613 1.385933-31.529971 34.495053 6.099684-31.249492-3.678165z" fill="#cade8e"/><path d="m241.663674 42.496979-4.545282 49.21785.61752-48.439922-1.29315-2.181089z" fill="#8c3b21"/><path d="m36.708563 141.036025-3.21191 43.963975.111542-43.014221 4.354048-4.233509z" fill="#1f0404"/><path d="m105.081285 129.160021-10.210083 2.211424-.374935 2.351034 10.864489 4.256781z" fill="#0091f3"/><path d="m42.637966 128.474371-2.595107 1.361499.018515 10.967089 8.229725-4.515428z" fill="#e33619"/><path d="m72.598386 149.668836 4.770022 13.405652-9.666326-.202311.808687-13.445962z" fill="#1c1a20"/><path d="m254.319526 127.159243 6.455276 18.907801-9.977996-.815075-8.232616-41.141306z" fill="#af9a29"/><path d="m208.917355 35.031803-2.256343 9.638058-.386359 22.783858 2.661403-2.655851z" fill="#344710"/><path d="m151.094367 75.520714-.903433-12.666915-.867868 22.664425 1.26628 33.822318z" fill="#748638"/><path d="m181.130033 68.599374-5.496698 52.005317 14.862177-71.487984 7.566659 12.919774z" fill="#ca6d61"/><path d="m8.203081 55.270607-10.710345 67.017391-13.492736-68.369179 25.002339-.477735z" fill="#d9e1c9"/><path d="m212.54147 129.719174-21.293322 7.686484 17.224631 1.413021 5.370153-12.195694z" fill="#72b889"/><path d="m175.468678 62.492326-4.973111-10.164732 6.95337-19.190987-1.485325 30.385236z" fill="#3f69c3"/><path d="m271 151.335456-16.40774-3.417326-.72632 23.169922 16.273379-.317374z" fill="#460000"/><path d="m71.654105 60.528597-1.76796 60.972468-1.971507 2.398422-2.187961-52.210245z" fill="#ecb059"/><path d="m122.1911 115.704367-.941674 16.071629-4.575624-16.167927-6.510077-.929549z" fill="#1f1921"/><path d="m181.471483 40.483937-2.854281-4.900192 2.213014-16.432869 1.845809 14.213103z" fill="#b6ffb0"/><path d="m95.885909 98.904333-.227501 30.954459 7.488533-2.269457.79242-28.756784z" fill="#cbffbd"/><path d="m42.274755 39.926565 1.772629-33.902843 2.194369-21.986513 3.207363 53.929249z" fill="#286f42"/><path d="m81.186426 142.147915 33.592823 20.784396 9.766196-5.700549-40.493603-16.974571z" fill="#c7c8d0"/><path d="m233.677928 38.140891 3.971779 95.458713-13.749531-32.102102 8.524109-1.431675z" fill="#c6d1a7"/><path d="m80.495606 45.141241-4.631234 5.475231-6.922759 14.920779.477355-29.028722z" fill="#93e2e2"/><path d="m163.441806 61.16954-4.36367-24.525739-2.577375-51.515764-.602336 79.939334z" fill="#ade86a"/><path d="m249.044765 47.078369-4.728869 18.669311.225616-18.179515.112965-23.589499z" fill="#e6ece3"/><path d="m8.878033 23.26909-.631706 20.468612 20.110864 3.282613-2.362994 14.338477z" fill="#a86511"/><path d="m252.09788 143.213666 1.174643 36.864217-5.686249-31.125119 23.413726-4.528634z" fill="#bab7cd"/><path d="m78.805209 119.151509 7.403366 43.726605-12.510841-58.46818-.68759 25.880003z" fill="#d6c0b6"/><path d="m48.070652 88.465235-15.726301 52.868367 1.962887-27.953438 9.788425 3.87023z" fill="#bfe6be"/><path d="m228.504242 139.149271-72.170874.849447 8.732099-21.762651-.040319 23.748292z" fill="#243f20"/><path d="m203.725408 69.879845-1.569483 39.337036 4.819761 12.484702-.245765-57.225638z" fill="#d9d6a5"/><path d="m29.363845 150.502823-35.969664-6.369553 23.642491 40.86673h11.59187z" fill="#c4ba89"/><path d="m209.424519 145.782716-2.590514 39.217284-8.03884-40.116326-7.571908-4.892457z" fill="#c6dbd4"/><path d="m42.932856 39.969676-.31781 22.502848-5.361108 2.350512-.410606-30.637235z" fill="#b683e3"/><path d="m170.502842 35.042105.874789 22.880676-8.545656 4.475895-.151897-24.743265z" fill="#e36c42"/><path d="m55.550252 98.885373-3.380799 19.744998-.099021-34.760055 1.034079-23.069722z" fill="#f4dd56"/><path d="m155.056508 11.162288-55.313329 25.440787 54.873094 6.235922 28.905201-58.838997z" fill="#c0bf44"/><path d="m66.819415 63.184049 3.361069 23.75849 4.167582-51.239838-1.717597 65.99073z" fill="#837c4f"/><path d="m224.496694 30.844598 1.515534-24.724825 1.242914 27.554069-19.141211-7.669574z" fill="#a48c89"/><path d="m18.836505 116.956801-.925436-24.712902-1.339371 5.319853-9.33306 10.141157z" fill="#ebf3fd"/><path d="m87.477832 65.520047 29.400591 1.144877-28.84784 2.927693.429213 1.090592z" fill="#5b3c33"/><path d="m188.642164 71.497547-5.362611-12.148679-1.356772-32.929494 7.732022 15.251993z" fill="#49529f"/><path d="m238.734816 91.238869-5.043498-100.679252 7.068209-6.559617-2.769637 21.580418z" fill="#1d6441"/><path d="m171.836532 68.138843-.691535 1.389694 5.817232 35.771245 3.846267-35.135366z" fill="#d6b9a1"/><path d="m271 101.525741-3.429106-35.750859-53.916369-1.269889 57.345475 6.826886z" fill="#2a211f"/><path d="m26.388672 92.778175 1.097923-24.712151 3.898939-1.742948-3.913525 64.717332z" fill="#57cbe1"/><path d="m94.991037 44.669107-.468852-33.639122-6.323575 44.458152 6.794596 10.808901z" fill="#e9db7e"/><path d="m30.19137 65.052214 10.588048 4.794081-.554319 34.536346-6.380686-.877499z" fill="#453847"/><path d="m55.398915 113.34594 6.243733 7.479289-3.70099 22.324687-5.514811-9.98908z" fill="#62242f"/><path d="m42.386291 166.125052-3.382414-94.014614-8.661458 43.924918 8.091199-4.019065z" fill="#4a4e4b"/><path d="m146.920654 95.476839 3.643468 41.46038-5.290287 3.280797.991984-17.74217z" fill="#bae1c5"/><path d="m12.060354 72.480323 1.563991 19.338986 5.712177-8.52891-2.660401-11.181065z" fill="#618f84"/><path d="m131.851722 28.18528-1.446415 83.519816.390429 12.027226 1.940218-69.027438z" fill="#256066"/><path d="m151.485555 151.46248.704065 26.933319 3.31954-6.352603-1.656465-32.320521z" fill="#431710"/><path d="m191.822235 140.636136.475621 42.406929.863709-47.075435 15.280217 7.054448z" fill="#3a3f21"/><path d="m56.406142 40.462807 1.979891 12.627521.848285 4.17496 1.35243-16.065661z" fill="#ffadcd"/><path d="m238.926067 102.123707.67802-21.832127 5.609654-6.620169-4.187208 45.959094z" fill="#d3ead2"/><path d="m221.591335 45.298658 1.367694 23.082805.883001-26.519038.199694-35.065923z" fill="#430508"/><path d="m107.553366 140.106708-28.678101-.89455 1.94551 42.398739-.087144-43.123054z" fill="#1a3032"/><path d="m93.802649 23.472499 5.053398-39.472499 1.783834 85.224947.406201-1.090795z" fill="#988066"/><path d="m42.297118 66.06276-42.684023.977125-3.424763-3.558848 2.498714 1.005517z" fill="#2f1e21"/><path d="m249.181663 184.301663-20.060382-45.746822.163394 19.741501-.963091 26.703658z" fill="#a36b00"/><path d="m242.925996 115.749985 7.24249 6.013843-3.272832 18.476103-3.195566.29295z" fill="#f34643"/><path d="m189.323005 100.456759 1.718084 17.903541 5.800503.603931-3.882729 19.061738z" fill="#9f99ca"/><path d="m163.524558 115.936831 1.663078-20.813487-13.85917 48.584522-.985519-26.170263z" fill="#51b397"/><path d="m105.140612 140.654719-13.813141.846572-.256322 43.498709 1.425383-4.557627z" fill="#c9d8e0"/><path d="m61.420665 16.681044-4.438834-32.681044-1.2192 43.581312 5.20445 10.267439z" fill="#c9d723"/><path d="m10.993979 138.222127 42.750323-4.728605-53.051275 5.263275 13.116989-6.887397z" fill="#b0c0c0"/><path d="m75.800466 104.788377 9.194181 11.157461.439588-42.930502-6.158174 38.776764z" fill="#775da7"/><path d="m12.47769 62.484314 6.251297-74.9413 4.339036 32.41514-7.803036 12.151486z" fill="#b54c5c"/><path d="m59.553033 166.669027 15.201939-4.223664 4.637488-13.197637-1.298245 35.752274z" fill="#7b9398"/><path d="m185.46139 115.898465.037493 24.924526-6.0103-3.430331 2.366473-22.364269z" fill="#4ea62d"/><path d="m113.202648 138.198336 23.63705-23.203387-9.480688 14.713649-1.130023 9.40991z" fill="#b47023"/><path d="m210.493904 71.609393-3.575875 34.268858-11.420104-74.336148 1.789041 58.534973z" fill="#8b947d"/><path d="m203.480485 113.751926-6.179617 19.159528-2.538024-21.764837-1.323171-2.338468z" fill="#ab0c1f"/><path d="m47.027429 118.292467 7.147824 34.922867-1.894365-40.009472-.424481-19.929753z" fill="#86bbaf"/><path d="m241.345194 67.584504-2.792971 1.177649 9.521897 40.992389 1.460255-28.689397z" fill="#bdbd53"/><path d="m27.330491 138.721039-9.270306-24.090424-4.442595 27.089412 11.936755-22.665407z" fill="#9e311a"/><path d="m221.961763 54.744321 1.092281-11.258351-9.631169.329982-3.391702 16.264581z" fill="#e84036"/><path d="m39.949217 35.98399 4.446819-46.279061-7.406433 6.774292 1.01578 52.504987z" fill="#bfe5ac"/><path d="m132.786519 124.334471-6.693681 11.965973 6.971027 6.388669-2.458214-27.147853z" fill="#0b5248"/><path d="m9.499851 142.634632 18.32475.193504-.931375 4.676747-36.872365 1.338344z" fill="#d9d9e9"/><path d="m171.341728 4.37482-1.218021 24.493263-6.576305-44.868083 16.577097 20.584317z" fill="#83931a"/><path d="m213.502642-16h-1.957449l1.809701 52.425975 1.891796-7.782059z" fill="#94715a"/><path d="m55.042967 36.77834-6.080608.532669.417498-11.729312 5.464991.622264z" fill="#dfebe9"/><path d="m49.182642 148.603699 2.725277 36.396301 7.838096-38.128513-18.11352-2.223982z" fill="#c2b58a"/><path d="m192.550869 106.947046-1.963325 13.007944-.34093-4.30112 7.655572 3.473842z" fill="#22061d"/><path d="m194.452107 85.508588 7.522125 3.375778.058274.046431-1.188416-14.69329z" fill="#8d1b34"/><path d="m214.672356 62.646667-5.007631 3.90183.022003-26.811667 2.74777 5.819841z" fill="#e99874"/><path d="m15.22129 42.032686 8.72726-1.984972 1.353467 19.34932-11.18232 2.095722z" fill="#fa3e27"/><path d="m80.96703 148.365709 1.09185 16.465043 4.960156 17.338204 2.847025-35.95941z" fill="#c91f1e"/><path d="m34.590446 125.167546 14.807868-2.613443-30.822196 15.452339 22.826018-.667441z" fill="#5bd1bf"/><path d="m127.303794 92.918955 2.92711-25.005864 2.770851 45.383965 6.656856-39.661003z" fill="#a8c1c7"/><path d="m167.283175 157.242678 14.475799-16.010011-.374466 15.782994 1.347978 27.984339z" fill="#b09c7f"/><path d="m62.601173 34.400246 4.999041 6.852919-.766265-18.732231.223374-35.477892z" fill="#dce0e0"/><path d="m237.414233 69.697159 7.136119-23.888946-.500156-10.460667-4.860012 8.797722z" fill="#d76758"/><path d="m1.502895 15.755254 1.910451-15.010559 30.724923 11.431791 5.107085-28.176486z" fill="#684b55"/><path d="m39.868709 66.801584 4.3734 59.147996-3.606808-23.817073 8.500811-34.885452z" fill="#f3eac4"/><path d="m46.748472 35.353194 2.154449 24.844887 2.040263 2.657994-7.113322-3.764934z" fill="#21b1f5"/><path d="m8.223454 2.751349 3.066622-10.33132 2.560953 34.207817-3.989781.364814z" fill="#c3d4d8"/><path d="m103.907477 66.255548 2.335615-2.614781-.83878 75.002724-.771355-18.042106z" fill="#8f9553"/><path d="m26.981374 133.502736-.236324-40.014841-1.79555-15.082518.304813 45.52557z" fill="#594a3d"/><path d="m23.479086 148.926063-5.922562-81.042717 11.738128-.797939-5.126247.748022z" fill="#e5cb99"/><path d="m213.050861 106.103149-3.7955-16.396275 1.266204-10.563567-1.534444 46.742382z" fill="#cbe8f1"/><path d="m27.842146 59.810931-1.643678 5.040498-.550478-21.891488 2.334633-17.599665z" fill="#4e5d11"/><path d="m200.001018 185-1.374653-15.695753.357935-24.336249-3.147916 7.504001z" fill="#546376"/><path d="m153.973846 54.155638.834339-24.768183 1.005586 13.792493-.67975 26.316233z" fill="#298731"/><path d="m55.945664 106.906331 3.803839-41.050969 1.022345 47.672969 4.355462 13.464128z" fill="#a1ba6e"/><path d="m122.116105 146.235314 2.507863-6.177373-7.235973 2.941582 6.104915 3.190169z" fill="#0b6eb3"/><path d="m57.175111 67.550893-6.021038-.306734-.177768 47.184828-2.175863-42.494536z" fill="#c05b51"/><path d="m164.390524 83.345391.852119 33.394853 6.291817-25.831148-3.392132 17.100405z" fill="#e7e9da"/><path d="m227.492553 95.708017.292142-20.850904 3.29873-.918812 1.927302 23.512952z" fill="#d82331"/><path d="m-4.653825 42.40896-1.057954-18.141033 39.196784 20.00066 1.752631-19.881485z" fill="#607e7f"/><path d="m132.113185 167.583383-.643562-12.11261-7.060215-8.533653-.257825 38.06288z" fill="#d4d8a2"/><path d="m247.638985 147.584557-15.254527-9.867629 38.615542 10.940592v-14.273765z" fill="#2d2f36"/><path d="m117.802653 69.69363-24.75609.586699-2.825823 13.639873-9.146544-16.375718z" fill="#e4e6ed"/><path d="m153.662393 99.986644.98039 15.911273-3.651709 1.661658.490582-47.666366z" fill="#f2f6db"/><path d="m42.274784 163.780489.223512-19.081663 6.492327 10.584343-1.498289 20.08304z" fill="#b4202e"/><path d="m135.289673 110.418992-1.352924 26.346644 3.833933 1.239356.032989-11.585205z" fill="#f2e135"/><path d="m104.608103 131.579983.145067 27.978233 5.211593.447595-6.656127 24.239902z" fill="#828285"/><path d="m227.261882 54.231578-.319486-64.670487 2.825984 31.28851.637891 2.334821z" fill="#051314"/><path d="m191.992119 13.775415-4.290572-21.644583 2.462838 50.145923 9.976151-58.276755z" fill="#1c4231"/><path d="m185.947987 64.502064 2.746891-44.960248-5.70027-30.759036.19534 37.70336z" fill="#8b8dbe"/><path d="m212.448895 116.255288 11.287178-3.255862 7.029475-4.149527-9.16956 10.586924z" fill="#dcc455"/><path d="m214.525137 101.728134-1.323726-4.971626-.208482-35.619444 4.575247 53.504327z" fill="#1b2439"/><path d="m257.049205-13.244618 13.950795 16.234086-23.621231 15.293262.214449 18.748547z" fill="#696676"/><path d="m100.45438 37.392517-.064367.599323 14.895914 22.654274-15.029704 7.551131z" fill="#d499d0"/><path d="m80.215173 40.459465-1.418371 1.258791.75793 27.579421 2.111723-19.205252z" fill="#009295"/><path d="m125.967975 69.525099 4.682569-4.963042-4.186052 20.05875.955904 14.290706z" fill="#454932"/><path d="m94.685997 57.633602 7.370236-23.8123-5.83136 20.615599-2.786606 68.103305z" fill="#9b7d43"/><path d="m137.824914 118.191318.46837-32.309135-2.604183-11.461161-3.536673 28.051199z" fill="#d3d6da"/><path d="m143.012259 166.252752.230127-20.691226-21.890651.959902 16.642941-5.944788z" fill="#b1b3b8"/><path d="m229.408144 40.529885-.050546-30.486269-.236246-26.043616 10.296108 14.245723z" fill="#007652"/><path d="m167.083914 158.631712-.281912-3.945734-9.614689 12.388623 4.629785 17.925399z" fill="#41588a"/><path d="m65.48351 67.491197-5.623617 1.126392 5.71096 15.279875-.496286-4.4745z" fill="#d9ebfb"/><path d="m112.40662 106.425417 8.610052-23.94016-3.686435 37.557287-3.530451-48.652829z" fill="#d84c3f"/><path d="m12.482178 74.418825-21.931694-9.192992 19.361727 10.486894 2.520498 26.172288z" fill="#dadff6"/><path d="m91.387603 117.079771-20.05619-1.187134 34.793619-3.118201-4.635754-4.931827z" fill="#e6dcb7"/><path d="m213.587089 65.990253-3.053495 5.480899-15.780049 1.587843 3.780886-5.013994z" fill="#96cadc"/><path d="m251.055338 44.779404 5.334336 20.582894 14.610326-35.083986v8.613726z" fill="#00a487"/><path d="m53.767867 43.935717-1.316361 18.723991-2.164584-8.387587-.325269-2.074083z" fill="#fea28b"/><path d="m12.096104 114.761856 1.625155-28.508679.310066 48.152997-.892545 24.481247z" fill="#7a6181"/><path d="m29.2531 161.674997 3.378134 3.864674 3.403179 19.460329-.031594-25.99332z" fill="#070000"/><path d="m69.624566 122.708195-5.648321-9.986197-.428572 4.49312 5.225388-6.74699z" fill="#f09eae"/><path d="m104.511748 118.605996 6.98945-16.180105 1.348462 1.673059-.576633 23.551834z" fill="#e8fcfd"/><path d="m178.557906 109.894557 3.713775 6.031646 3.38009-9.225193-1.142649-40.970206z" fill="#b53d46"/><path d="m6.725711 100.412185-.239318 18.456196 1.489568 14.432555-3.170966-14.054989z" fill="#2d3034"/><path d="m106.400508 69.160317 4.433476 1.735362 3.183935 31.697108-8.710029 1.205858z" fill="#cad32b"/><path d="m61.796376 80.310127-.791942-14.411847-2.238815 5.835607-2.462057 8.737998z" fill="#8066b9"/><path d="m191.009732-16 2.578083 31.084422-63.111753 66.556781 59.283206-62.758278z" fill="#8c9e88"/></g></svg>