<svg xmlns="http://www.w3.org/2000/svg" version="1.1" width="1024" height="680">
<rect x="0" y="0" width="1024" height="680" fill="#534d2c" />
<g transform="scale(4.000000) translate(0.5 0.5)">
<g transform="translate(187.330873 127.341290) rotate(276.248000) scale(20.760891 47.239904)"><ellipse fill="#000003" fill-opacity="0.501961" cx="0" cy="0" rx="1" ry="1" /></g>
<g transform="translate(103.360478 100.737943) rotate(37.479366) scale(34.060120 24.873467)"><ellipse fill="#8e7947" fill-opacity="0.501961" cx="0" cy="0" rx="1" ry="1" /></g>
<g transform="translate(216.860322 87.888634) rotate(191.993713) scale(75.043258 23.473376)"><ellipse fill="#797449" fill-opacity="0.501961" cx="0" cy="0" rx="1" ry="1" /></g>
<g transform="translate(131.644782 68.826993) rotate(247.368494) scale(35.776681 6.229551)"><ellipse fill="#080000" fill-opacity="0.501961" cx="0" cy="0" rx="1" ry="1" /></g>
<g transform="translate(8.008737 166.603892) rotate(193.816625) scale(185.036182 14.008293)"><ellipse fill="#000a05" fill-opacity="0.501961" cx="0" cy="0" rx="1" ry="1" /></g>
<g transform="translate(235.401065 169.000000) rotate(157.414317) scale(59.905964 8.829691)"><ellipse fill="#000800" fill-opacity="0.501961" cx="0" cy="0" rx="1" ry="1" /></g>
<g transform="translate(165.549710 163.940582) rotate(354.251304) scale(63.347581 14.384369)"><ellipse fill="#858343" fill-opacity="0.501961" cx="0" cy="0" rx="1" ry="1" /></g>
<g transform="translate(157.564169 98.447139) rotate(205.455986) scale(43.317317 7.048851)"><ellipse fill="#0d0300" fill-opacity="0.501961" cx="0" cy="0" rx="1" ry="1" /></g>
<g transform="translate(133.419854 135.478902) rotate(57.272285) scale(9.057380 17.586306)"><ellipse fill="#000000" fill-opacity="0.501961" cx="0" cy="0" rx="1" ry="1" /></g>
<g transform="translate(0.000000 29.747270) rotate(126.828531) scale(37.365087 54.205572)"><ellipse fill="#393519" fill-opacity="0.501961" cx="0" cy="0" rx="1" ry="1" /></g>
<g transform="translate(182.145909 16.601448) rotate(269.319413) scale(29.093221 108.559165)"><ellipse fill="#635d3d" fill-opacity="0.501961" cx="0" cy="0" rx="1" ry="1" /></g>
<g transform="translate(155.617765 118.088154) rotate(104.438693) scale(6.179882 48.923693)"><ellipse fill="#845428" fill-opacity="0.501961" cx="0" cy="0" rx="1" ry="1" /></g>
<g transform="translate(133.445316 52.355724) rotate(106.796858) scale(11.034762 1.000000)"><ellipse fill="#fff79f" fill-opacity="0.501961" cx="0" cy="0" rx="1" ry="1" /></g>
<g transform="translate(122.333522 96.674389) rotate(248.342023) scale(19.466351 4.553518)"><ellipse fill="#db9047" fill-opacity="0.501961" cx="0" cy="0" rx="1" ry="1" /></g>
<g transform="translate(216.439132 130.499736) rotate(131.001692) scale(16.079607 18.119990)"><ellipse fill="#000d12" fill-opacity="0.501961" cx="0" cy="0" rx="1" ry="1" /></g>
<g transform="translate(74.128698 104.069903) rotate(12.160472) scale(49.857379 30.690557)"><ellipse fill="#64603a" fill-opacity="0.501961" cx="0" cy="0" rx="1" ry="1" /></g>
<g transform="translate(15.260652 146.230277) rotate(367.272394) scale(34.292764 16.304347)"><ellipse fill="#393711" fill-opacity="0.501961" cx="0" cy="0" rx="1" ry="1" /></g>
<g transform="translate(152.486752 167.350568) rotate(260.114984) scale(4.550886 30.119366)"><ellipse fill="#30381f" fill-opacity="0.501961" cx="0" cy="0" rx="1" ry="1" /></g>
<g transform="translate(249.241819 114.337002) rotate(138.342201) scale(21.179874 43.305519)"><ellipse fill="#6e6940" fill-opacity="0.501961" cx="0" cy="0" rx="1" ry="1" /></g>
<g transform="translate(235.710454 152.903653) rotate(158.343152) scale(21.479030 9.335802)"><ellipse fill="#666600" fill-opacity="0.501961" cx="0" cy="0" rx="1" ry="1" /></g>
<g transform="translate(30.407135 169.000000) rotate(-5.285847) scale(44.227077 5.170744)"><ellipse fill="#001c1a" fill-opacity="0.501961" cx="0" cy="0" rx="1" ry="1" /></g>
<g transform="translate(132.884460 52.836679) rotate(194.286307) scale(3.347588 8.054110)"><ellipse fill="#d3a56c" fill-opacity="0.501961" cx="0" cy="0" rx="1" ry="1" /></g>
<g transform="translate(195.430214 123.295789) rotate(199.687043) scale(3.719868 12.275574)"><ellipse fill="#8f6133" fill-opacity="0.501961" cx="0" cy="0" rx="1" ry="1" /></g>
<g transform="translate(209.256056 156.470021) rotate(248.891260) scale(6.741668 22.418534)"><ellipse fill="#8b8147" fill-opacity="0.501961" cx="0" cy="0" rx="1" ry="1" /></g>
<g transform="translate(172.497919 103.388980) rotate(287.164242) scale(3.879505 27.896812)"><ellipse fill="#000706" fill-opacity="0.501961" cx="0" cy="0" rx="1" ry="1" /></g>
<g transform="translate(147.242172 103.318551) rotate(395.079299) scale(32.454175 6.233177)"><ellipse fill="#593618" fill-opacity="0.501961" cx="0" cy="0" rx="1" ry="1" /></g>
<g transform="translate(139.669328 140.110606) rotate(200.312708) scale(7.820972 5.350913)"><ellipse fill="#6e6a3b" fill-opacity="0.501961" cx="0" cy="0" rx="1" ry="1" /></g>
<g transform="translate(253.918551 169.000000) rotate(263.113925) scale(6.899753 81.790845)"><ellipse fill="#001100" fill-opacity="0.501961" cx="0" cy="0" rx="1" ry="1" /></g>
<g transform="translate(128.488003 61.454234) rotate(334.479477) scale(3.774214 20.853291)"><ellipse fill="#010000" fill-opacity="0.501961" cx="0" cy="0" rx="1" ry="1" /></g>
<g transform="translate(124.317354 68.393256) rotate(160.419872) scale(1.746164 18.830710)"><ellipse fill="#84511f" fill-opacity="0.501961" cx="0" cy="0" rx="1" ry="1" /></g>
<g transform="translate(129.048040 142.156339) rotate(79.709937) scale(8.994464 3.572994)"><ellipse fill="#000000" fill-opacity="0.501961" cx="0" cy="0" rx="1" ry="1" /></g>
<g transform="translate(28.571688 55.699064) rotate(271.158149) scale(11.463587 59.163730)"><ellipse fill="#3d3a1c" fill-opacity="0.501961" cx="0" cy="0" rx="1" ry="1" /></g>
<g transform="translate(203.800436 62.443219) rotate(276.017774) scale(10.947293 70.400442)"><ellipse fill="#535133" fill-opacity="0.501961" cx="0" cy="0" rx="1" ry="1" /></g>
<g transform="translate(174.787551 126.690442) rotate(75.690783) scale(18.239003 15.109571)"><ellipse fill="#211f15" fill-opacity="0.501961" cx="0" cy="0" rx="1" ry="1" /></g>
<g transform="translate(154.442143 157.674735) rotate(353.884434) scale(52.283089 4.393170)"><ellipse fill="#7f7945" fill-opacity="0.501961" cx="0" cy="0" rx="1" ry="1" /></g>
<g transform="translate(132.175407 112.132091) rotate(144.641278) scale(5.660692 9.982110)"><ellipse fill="#ab5d20" fill-opacity="0.501961" cx="0" cy="0" rx="1" ry="1" /></g>
<g transform="translate(129.093769 134.061622) rotate(55.912798) scale(3.718042 14.547896)"><ellipse fill="#000000" fill-opacity="0.501961" cx="0" cy="0" rx="1" ry="1" /></g>
<g transform="translate(135.965868 49.531920) rotate(-39.300983) scale(1.297578 4.284618)"><ellipse fill="#fed199" fill-opacity="0.501961" cx="0" cy="0" rx="1" ry="1" /></g>
<g transform="translate(118.891065 94.185325) rotate(235.095662) scale(11.246839 5.043278)"><ellipse fill="#bd9152" fill-opacity="0.501961" cx="0" cy="0" rx="1" ry="1" /></g>
<g transform="translate(182.531447 92.369503) rotate(283.053380) scale(9.613307 24.513856)"><ellipse fill="#756d44" fill-opacity="0.501961" cx="0" cy="0" rx="1" ry="1" /></g>
<g transform="translate(82.006382 93.684201) rotate(324.763513) scale(39.846646 15.805383)"><ellipse fill="#635d38" fill-opacity="0.501961" cx="0" cy="0" rx="1" ry="1" /></g>
<g transform="translate(60.944773 18.315580) rotate(248.346566) scale(25.678773 45.895254)"><ellipse fill="#534d2e" fill-opacity="0.501961" cx="0" cy="0" rx="1" ry="1" /></g>
<g transform="translate(18.382199 169.000000) rotate(284.759859) scale(5.694418 53.043205)"><ellipse fill="#001213" fill-opacity="0.501961" cx="0" cy="0" rx="1" ry="1" /></g>
<g transform="translate(192.244832 110.262887) rotate(101.213144) scale(4.771305 29.140985)"><ellipse fill="#0c0e09" fill-opacity="0.501961" cx="0" cy="0" rx="1" ry="1" /></g>
<g transform="translate(212.531931 141.045275) rotate(89.305252) scale(4.291897 29.448930)"><ellipse fill="#0d1612" fill-opacity="0.501961" cx="0" cy="0" rx="1" ry="1" /></g>
<g transform="translate(237.879871 160.198223) rotate(63.798644) scale(4.481460 31.774152)"><ellipse fill="#343c00" fill-opacity="0.501961" cx="0" cy="0" rx="1" ry="1" /></g>
<g transform="translate(138.396653 75.933273) rotate(260.457389) scale(17.140142 2.607954)"><ellipse fill="#090d0b" fill-opacity="0.501961" cx="0" cy="0" rx="1" ry="1" /></g>
<g transform="translate(120.824487 156.369311) rotate(177.061622) scale(69.299628 1.988973)"><ellipse fill="#737240" fill-opacity="0.501961" cx="0" cy="0" rx="1" ry="1" /></g>
<g transform="translate(109.794280 103.750015) rotate(264.238689) scale(8.203445 14.740006)"><ellipse fill="#74704b" fill-opacity="0.501961" cx="0" cy="0" rx="1" ry="1" /></g>
<g transform="translate(132.748541 54.680824) rotate(197.740245) scale(1.438231 6.440861)"><ellipse fill="#ffd287" fill-opacity="0.501961" cx="0" cy="0" rx="1" ry="1" /></g>
<g transform="translate(46.142401 143.554133) rotate(180.001337) scale(24.486814 22.254604)"><ellipse fill="#4d4a27" fill-opacity="0.501961" cx="0" cy="0" rx="1" ry="1" /></g>
<g transform="translate(154.376466 114.818151) rotate(31.280180) scale(26.091805 7.088911)"><ellipse fill="#63411f" fill-opacity="0.501961" cx="0" cy="0" rx="1" ry="1" /></g>
<g transform="translate(184.261601 36.243128) rotate(1.283514) scale(70.156629 12.111751)"><ellipse fill="#605a36" fill-opacity="0.501961" cx="0" cy="0" rx="1" ry="1" /></g>
<g transform="translate(135.825905 85.402178) rotate(233.311493) scale(4.024637 8.926383)"><ellipse fill="#050500" fill-opacity="0.501961" cx="0" cy="0" rx="1" ry="1" /></g>
<g transform="translate(143.844249 109.127727) rotate(198.185404) scale(4.314945 16.424783)"><ellipse fill="#73481f" fill-opacity="0.501961" cx="0" cy="0" rx="1" ry="1" /></g>
<g transform="translate(145.468373 126.206812) rotate(103.827496) scale(5.793431 13.822986)"><ellipse fill="#221000" fill-opacity="0.501961" cx="0" cy="0" rx="1" ry="1" /></g>
<g transform="translate(124.409076 49.629163) rotate(344.318268) scale(2.887840 9.206503)"><ellipse fill="#000000" fill-opacity="0.501961" cx="0" cy="0" rx="1" ry="1" /></g>
<g transform="translate(155.812819 145.789277) rotate(97.126835) scale(5.281149 22.990793)"><ellipse fill="#55562d" fill-opacity="0.501961" cx="0" cy="0" rx="1" ry="1" /></g>
<g transform="translate(158.720733 96.516633) rotate(207.249190) scale(30.592897 2.980415)"><ellipse fill="#050a08" fill-opacity="0.501961" cx="0" cy="0" rx="1" ry="1" /></g>
<g transform="translate(0.000000 48.796699) rotate(270.665929) scale(57.381615 8.942089)"><ellipse fill="#3c3718" fill-opacity="0.501961" cx="0" cy="0" rx="1" ry="1" /></g>
<g transform="translate(193.744148 125.709873) rotate(9.018237) scale(1.000000 5.285873)"><ellipse fill="#c69253" fill-opacity="0.501961" cx="0" cy="0" rx="1" ry="1" /></g>
<g transform="translate(85.264768 141.181144) rotate(246.518432) scale(11.404542 50.618893)"><ellipse fill="#55542d" fill-opacity="0.501961" cx="0" cy="0" rx="1" ry="1" /></g>
<g transform="translate(128.458260 99.746971) rotate(87.634583) scale(21.466599 2.335199)"><ellipse fill="#95521b" fill-opacity="0.501961" cx="0" cy="0" rx="1" ry="1" /></g>
<g transform="translate(243.885687 169.000000) rotate(361.844568) scale(16.455733 5.898730)"><ellipse fill="#000a00" fill-opacity="0.501961" cx="0" cy="0" rx="1" ry="1" /></g>
<g transform="translate(112.915879 154.503164) rotate(142.923089) scale(17.270731 5.125316)"><ellipse fill="#565829" fill-opacity="0.501961" cx="0" cy="0" rx="1" ry="1" /></g>
<g transform="translate(160.660501 80.015243) rotate(299.094054) scale(10.549318 24.191441)"><ellipse fill="#6b6640" fill-opacity="0.501961" cx="0" cy="0" rx="1" ry="1" /></g>
<g transform="translate(182.294336 138.320609) rotate(62.778702) scale(5.672668 7.588351)"><ellipse fill="#050a05" fill-opacity="0.501961" cx="0" cy="0" rx="1" ry="1" /></g>
<g transform="translate(0.000000 146.506514) rotate(228.068291) scale(21.305482 10.534728)"><ellipse fill="#2f2e0b" fill-opacity="0.501961" cx="0" cy="0" rx="1" ry="1" /></g>
<g transform="translate(138.341608 42.685322) rotate(89.432944) scale(4.626622 1.000000)"><ellipse fill="#050000" fill-opacity="0.501961" cx="0" cy="0" rx="1" ry="1" /></g>
<g transform="translate(125.519300 101.086615) rotate(182.205167) scale(1.409654 7.884486)"><ellipse fill="#f9a344" fill-opacity="0.501961" cx="0" cy="0" rx="1" ry="1" /></g>
<g transform="translate(164.301761 138.080147) rotate(285.687251) scale(4.005774 12.546526)"><ellipse fill="#163236" fill-opacity="0.501961" cx="0" cy="0" rx="1" ry="1" /></g>
<g transform="translate(94.816665 31.518106) rotate(100.556228) scale(14.386156 28.526339)"><ellipse fill="#5d5733" fill-opacity="0.501961" cx="0" cy="0" rx="1" ry="1" /></g>
<g transform="translate(223.821211 106.214085) rotate(210.883203) scale(60.449117 8.931297)"><ellipse fill="#6c673f" fill-opacity="0.501961" cx="0" cy="0" rx="1" ry="1" /></g>
<g transform="translate(106.388600 169.000000) rotate(263.340131) scale(5.001546 9.750179)"><ellipse fill="#87763d" fill-opacity="0.501961" cx="0" cy="0" rx="1" ry="1" /></g>
<g transform="translate(164.017398 166.689732) rotate(155.945841) scale(24.855320 1.562706)"><ellipse fill="#323a26" fill-opacity="0.501961" cx="0" cy="0" rx="1" ry="1" /></g>
<g transform="translate(156.763120 111.041867) rotate(44.113709) scale(4.418917 1.000000)"><ellipse fill="#9e7343" fill-opacity="0.501961" cx="0" cy="0" rx="1" ry="1" /></g>
<g transform="translate(138.300551 56.419810) rotate(84.351581) scale(5.700117 1.000000)"><ellipse fill="#968771" fill-opacity="0.501961" cx="0" cy="0" rx="1" ry="1" /></g>
<g transform="translate(61.893710 166.424637) rotate(163.487018) scale(15.457524 2.841269)"><ellipse fill="#202704" fill-opacity="0.501961" cx="0" cy="0" rx="1" ry="1" /></g>
<g transform="translate(192.801438 148.064755) rotate(95.775060) scale(1.000000 20.438201)"><ellipse fill="#4c5235" fill-opacity="0.501961" cx="0" cy="0" rx="1" ry="1" /></g>
<g transform="translate(140.339781 94.103198) rotate(104.132622) scale(9.062012 3.889589)"><ellipse fill="#2a200f" fill-opacity="0.501961" cx="0" cy="0" rx="1" ry="1" /></g>
<g transform="translate(99.921050 74.354177) rotate(258.794112) scale(8.954837 23.787901)"><ellipse fill="#5f5833" fill-opacity="0.501961" cx="0" cy="0" rx="1" ry="1" /></g>
<g transform="translate(26.528148 97.773176) rotate(82.179231) scale(32.599571 14.567739)"><ellipse fill="#5b532b" fill-opacity="0.501961" cx="0" cy="0" rx="1" ry="1" /></g>
<g transform="translate(218.687238 125.370704) rotate(311.728622) scale(8.771274 20.314979)"><ellipse fill="#061414" fill-opacity="0.501961" cx="0" cy="0" rx="1" ry="1" /></g>
<g transform="translate(165.763409 118.552233) rotate(275.176324) scale(12.150594 4.395487)"><ellipse fill="#2a2415" fill-opacity="0.501961" cx="0" cy="0" rx="1" ry="1" /></g>
<g transform="translate(130.578820 65.096211) rotate(118.236488) scale(14.660606 1.000000)"><ellipse fill="#462a0f" fill-opacity="0.501961" cx="0" cy="0" rx="1" ry="1" /></g>
<g transform="translate(77.530660 169.000000) rotate(303.260699) scale(14.200251 2.331811)"><ellipse fill="#72723e" fill-opacity="0.501961" cx="0" cy="0" rx="1" ry="1" /></g>
<g transform="translate(123.514210 76.611332) rotate(357.767152) scale(7.127984 2.229322)"><ellipse fill="#462612" fill-opacity="0.501961" cx="0" cy="0" rx="1" ry="1" /></g>
<g transform="translate(249.949316 144.502960) rotate(178.458839) scale(27.093040 2.790651)"><ellipse fill="#656423" fill-opacity="0.501961" cx="0" cy="0" rx="1" ry="1" /></g>
<g transform="translate(213.729768 132.839776) rotate(324.043775) scale(14.347388 1.998961)"><ellipse fill="#202c2c" fill-opacity="0.501961" cx="0" cy="0" rx="1" ry="1" /></g>
<g transform="translate(125.214939 106.408327) rotate(263.522534) scale(11.554679 1.000000)"><ellipse fill="#dc9b4a" fill-opacity="0.501961" cx="0" cy="0" rx="1" ry="1" /></g>
<g transform="translate(32.250509 147.466127) rotate(70.341057) scale(12.161183 22.898287)"><ellipse fill="#46411e" fill-opacity="0.501961" cx="0" cy="0" rx="1" ry="1" /></g>
<g transform="translate(131.119745 63.489027) rotate(67.146050) scale(2.934768 2.801387)"><ellipse fill="#64441f" fill-opacity="0.501961" cx="0" cy="0" rx="1" ry="1" /></g>
<g transform="translate(31.068175 10.600826) rotate(139.622973) scale(37.112494 14.788929)"><ellipse fill="#4a4328" fill-opacity="0.501961" cx="0" cy="0" rx="1" ry="1" /></g>
<g transform="translate(138.886973 41.917523) rotate(94.146221) scale(3.804704 1.000000)"><ellipse fill="#0b0000" fill-opacity="0.501961" cx="0" cy="0" rx="1" ry="1" /></g>
<g transform="translate(134.944522 67.560112) rotate(274.313065) scale(15.749322 1.440961)"><ellipse fill="#100d08" fill-opacity="0.501961" cx="0" cy="0" rx="1" ry="1" /></g>
<g transform="translate(95.618299 105.450148) rotate(176.841014) scale(28.182668 12.622162)"><ellipse fill="#6e6641" fill-opacity="0.501961" cx="0" cy="0" rx="1" ry="1" /></g>
<g transform="translate(138.415511 158.503220) rotate(22.876552) scale(1.000000 2.658258)"><ellipse fill="#d2b877" fill-opacity="0.501961" cx="0" cy="0" rx="1" ry="1" /></g>
<g transform="translate(127.121039 169.000000) rotate(120.192705) scale(2.580291 45.889491)"><ellipse fill="#5a5621" fill-opacity="0.501961" cx="0" cy="0" rx="1" ry="1" /></g>
<g transform="translate(212.713163 142.384857) rotate(52.105889) scale(3.217599 10.253275)"><ellipse fill="#050902" fill-opacity="0.501961" cx="0" cy="0" rx="1" ry="1" /></g>
<g transform="translate(149.361441 106.628591) rotate(50.695228) scale(5.705597 1.584871)"><ellipse fill="#2c2213" fill-opacity="0.501961" cx="0" cy="0" rx="1" ry="1" /></g>
<g transform="translate(0.000000 55.053500) rotate(176.896180) scale(21.205594 9.488167)"><ellipse fill="#312f15" fill-opacity="0.501961" cx="0" cy="0" rx="1" ry="1" /></g>
<g transform="translate(202.428367 115.975668) rotate(148.880577) scale(3.196777 7.002123)"><ellipse fill="#472f15" fill-opacity="0.501961" cx="0" cy="0" rx="1" ry="1" /></g>
<g transform="translate(90.661115 166.719870) rotate(30.205467) scale(5.904576 12.586986)"><ellipse fill="#3f481c" fill-opacity="0.501961" cx="0" cy="0" rx="1" ry="1" /></g>
<g transform="translate(136.946734 49.404958) rotate(47.800908) scale(2.604152 1.021756)"><ellipse fill="#e7be89" fill-opacity="0.501961" cx="0" cy="0" rx="1" ry="1" /></g>
<g transform="translate(154.046867 152.826698) rotate(347.667282) scale(3.133242 13.444035)"><ellipse fill="#626027" fill-opacity="0.501961" cx="0" cy="0" rx="1" ry="1" /></g>
<g transform="translate(196.422862 159.029116) rotate(195.121726) scale(8.191085 9.521656)"><ellipse fill="#81794e" fill-opacity="0.501961" cx="0" cy="0" rx="1" ry="1" /></g>
<g transform="translate(129.520911 147.705301) rotate(363.883478) scale(2.423768 3.752437)"><ellipse fill="#000800" fill-opacity="0.501961" cx="0" cy="0" rx="1" ry="1" /></g>
<g transform="translate(142.867928 130.351574) rotate(-8.663387) scale(13.912782 2.725768)"><ellipse fill="#070601" fill-opacity="0.501961" cx="0" cy="0" rx="1" ry="1" /></g>
<g transform="translate(170.459642 157.126955) rotate(335.756421) scale(11.041659 3.944708)"><ellipse fill="#7e7953" fill-opacity="0.501961" cx="0" cy="0" rx="1" ry="1" /></g>
<g transform="translate(192.567726 152.463095) rotate(157.693654) scale(3.063695 12.186949)"><ellipse fill="#5e5c38" fill-opacity="0.501961" cx="0" cy="0" rx="1" ry="1" /></g>
<g transform="translate(135.195107 169.000000) rotate(235.218151) scale(5.071841 3.642441)"><ellipse fill="#3a4115" fill-opacity="0.501961" cx="0" cy="0" rx="1" ry="1" /></g>
<g transform="translate(212.574422 153.885862) rotate(282.329413) scale(5.781847 6.316204)"><ellipse fill="#8b824d" fill-opacity="0.501961" cx="0" cy="0" rx="1" ry="1" /></g>
<g transform="translate(137.009933 92.966437) rotate(227.584772) scale(1.000000 5.288624)"><ellipse fill="#754e23" fill-opacity="0.501961" cx="0" cy="0" rx="1" ry="1" /></g>
<g transform="translate(137.342085 27.022443) rotate(286.687995) scale(28.764095 3.128818)"><ellipse fill="#605938" fill-opacity="0.501961" cx="0" cy="0" rx="1" ry="1" /></g>
<g transform="translate(117.597571 120.161274) rotate(60.502422) scale(13.162617 9.909746)"><ellipse fill="#686540" fill-opacity="0.501961" cx="0" cy="0" rx="1" ry="1" /></g>
<g transform="translate(122.142615 60.350499) rotate(160.154544) scale(1.000000 11.037141)"><ellipse fill="#855c2a" fill-opacity="0.501961" cx="0" cy="0" rx="1" ry="1" /></g>
<g transform="translate(132.197535 120.621374) rotate(296.331163) scale(2.749881 3.964549)"><ellipse fill="#522e14" fill-opacity="0.501961" cx="0" cy="0" rx="1" ry="1" /></g>
<g transform="translate(123.097017 49.408228) rotate(337.248751) scale(4.325942 9.124369)"><ellipse fill="#050600" fill-opacity="0.501961" cx="0" cy="0" rx="1" ry="1" /></g>
<g transform="translate(169.168953 57.096331) rotate(266.397134) scale(15.555205 29.838525)"><ellipse fill="#555234" fill-opacity="0.501961" cx="0" cy="0" rx="1" ry="1" /></g>
<g transform="translate(153.125328 156.313891) rotate(90.012097) scale(1.287747 29.265907)"><ellipse fill="#887e47" fill-opacity="0.501961" cx="0" cy="0" rx="1" ry="1" /></g>
<g transform="translate(242.589316 146.029846) rotate(243.844167) scale(2.738720 34.283670)"><ellipse fill="#6e6818" fill-opacity="0.501961" cx="0" cy="0" rx="1" ry="1" /></g>
<g transform="translate(243.895400 10.562547) rotate(185.156544) scale(74.047353 12.714301)"><ellipse fill="#555033" fill-opacity="0.501961" cx="0" cy="0" rx="1" ry="1" /></g>
<g transform="translate(146.671024 89.238194) rotate(324.882851) scale(1.591679 27.293300)"><ellipse fill="#19170e" fill-opacity="0.501961" cx="0" cy="0" rx="1" ry="1" /></g>
<g transform="translate(145.019345 106.260987) rotate(196.006704) scale(1.000000 13.700352)"><ellipse fill="#7e592f" fill-opacity="0.501961" cx="0" cy="0" rx="1" ry="1" /></g>
<g transform="translate(123.261769 140.142459) rotate(57.265794) scale(2.865354 5.759347)"><ellipse fill="#000401" fill-opacity="0.501961" cx="0" cy="0" rx="1" ry="1" /></g>
<g transform="translate(159.039191 29.263420) rotate(2.733852) scale(49.204429 9.014748)"><ellipse fill="#635b39" fill-opacity="0.501961" cx="0" cy="0" rx="1" ry="1" /></g>
<g transform="translate(171.039928 166.452161) rotate(19.609108) scale(5.582046 5.931494)"><ellipse fill="#374026" fill-opacity="0.501961" cx="0" cy="0" rx="1" ry="1" /></g>
<g transform="translate(171.559842 149.339428) rotate(266.788509) scale(1.000000 52.745600)"><ellipse fill="#444622" fill-opacity="0.501961" cx="0" cy="0" rx="1" ry="1" /></g>
<g transform="translate(202.005610 99.098762) rotate(184.551303) scale(30.674711 6.913682)"><ellipse fill="#716a40" fill-opacity="0.501961" cx="0" cy="0" rx="1" ry="1" /></g>
<g transform="translate(104.790703 130.568782) rotate(340.927753) scale(12.982349 16.210990)"><ellipse fill="#5c5833" fill-opacity="0.501961" cx="0" cy="0" rx="1" ry="1" /></g>
<g transform="translate(120.677978 92.319650) rotate(59.758560) scale(12.212626 1.000000)"><ellipse fill="#d69d5b" fill-opacity="0.501961" cx="0" cy="0" rx="1" ry="1" /></g>
<g transform="translate(243.042863 155.119846) rotate(85.296529) scale(6.065997 13.201656)"><ellipse fill="#464a00" fill-opacity="0.501961" cx="0" cy="0" rx="1" ry="1" /></g>
<g transform="translate(208.914447 137.454852) rotate(242.767969) scale(1.000000 4.891951)"><ellipse fill="#454035" fill-opacity="0.501961" cx="0" cy="0" rx="1" ry="1" /></g>
<g transform="translate(145.011866 141.630212) rotate(211.417344) scale(11.998396 5.578342)"><ellipse fill="#5a5631" fill-opacity="0.501961" cx="0" cy="0" rx="1" ry="1" /></g>
<g transform="translate(148.202577 130.274157) rotate(64.220737) scale(7.795225 4.374148)"><ellipse fill="#13130b" fill-opacity="0.501961" cx="0" cy="0" rx="1" ry="1" /></g>
<g transform="translate(255.000000 55.752052) rotate(356.306754) scale(29.862896 7.719258)"><ellipse fill="#47462a" fill-opacity="0.501961" cx="0" cy="0" rx="1" ry="1" /></g>
<g transform="translate(184.672189 117.556439) rotate(289.073868) scale(6.763750 4.863891)"><ellipse fill="#33230f" fill-opacity="0.501961" cx="0" cy="0" rx="1" ry="1" /></g>
<g transform="translate(3.006580 100.763232) rotate(189.657221) scale(9.421311 32.730939)"><ellipse fill="#504a22" fill-opacity="0.501961" cx="0" cy="0" rx="1" ry="1" /></g>
<g transform="translate(120.781463 107.465020) rotate(243.752985) scale(9.687738 2.399781)"><ellipse fill="#8a8151" fill-opacity="0.501961" cx="0" cy="0" rx="1" ry="1" /></g>
<g transform="translate(79.388999 141.104529) rotate(177.860458) scale(10.157474 17.345983)"><ellipse fill="#4d4b29" fill-opacity="0.501961" cx="0" cy="0" rx="1" ry="1" /></g>
<g transform="translate(171.998985 124.106608) rotate(37.509527) scale(4.581272 2.345445)"><ellipse fill="#674d2d" fill-opacity="0.501961" cx="0" cy="0" rx="1" ry="1" /></g>
<g transform="translate(56.093716 57.755070) rotate(80.330829) scale(14.294411 31.108152)"><ellipse fill="#4b4726" fill-opacity="0.501961" cx="0" cy="0" rx="1" ry="1" /></g>
<g transform="translate(244.182095 78.395519) rotate(93.822826) scale(11.315124 29.716027)"><ellipse fill="#5f5a35" fill-opacity="0.501961" cx="0" cy="0" rx="1" ry="1" /></g>
<g transform="translate(54.575523 93.422152) rotate(57.358525) scale(13.025461 44.393257)"><ellipse fill="#5f5731" fill-opacity="0.501961" cx="0" cy="0" rx="1" ry="1" /></g>
<g transform="translate(162.228370 80.593479) rotate(352.658427) scale(18.018564 8.746105)"><ellipse fill="#6c653e" fill-opacity="0.501961" cx="0" cy="0" rx="1" ry="1" /></g>
<g transform="translate(155.818226 117.520247) rotate(315.124560) scale(1.000000 14.778795)"><ellipse fill="#6f4d27" fill-opacity="0.501961" cx="0" cy="0" rx="1" ry="1" /></g>
<g transform="translate(26.940302 169.000000) rotate(253.741365) scale(6.206323 16.432702)"><ellipse fill="#082728" fill-opacity="0.501961" cx="0" cy="0" rx="1" ry="1" /></g>
<g transform="translate(129.276130 158.958658) rotate(43.695169) scale(6.937657 3.969617)"><ellipse fill="#837a47" fill-opacity="0.501961" cx="0" cy="0" rx="1" ry="1" /></g>
<g transform="translate(132.882764 52.170579) rotate(103.383691) scale(3.863151 1.000000)"><ellipse fill="#ffd38f" fill-opacity="0.501961" cx="0" cy="0" rx="1" ry="1" /></g>
<g transform="translate(130.397008 104.819385) rotate(342.518807) scale(1.000000 14.337329)"><ellipse fill="#b06e32" fill-opacity="0.501961" cx="0" cy="0" rx="1" ry="1" /></g>
<g transform="translate(1.218474 169.000000) rotate(344.830776) scale(10.490412 6.173212)"><ellipse fill="#000c0c" fill-opacity="0.501961" cx="0" cy="0" rx="1" ry="1" /></g>
<g transform="translate(140.753987 121.076375) rotate(180.516130) scale(10.092980 1.255986)"><ellipse fill="#5d340f" fill-opacity="0.501961" cx="0" cy="0" rx="1" ry="1" /></g>
<g transform="translate(212.384761 117.582700) rotate(348.158629) scale(9.799587 2.954299)"><ellipse fill="#080701" fill-opacity="0.501961" cx="0" cy="0" rx="1" ry="1" /></g>
<g transform="translate(196.956783 167.241635) rotate(125.954691) scale(5.719084 1.000000)"><ellipse fill="#9f945b" fill-opacity="0.501961" cx="0" cy="0" rx="1" ry="1" /></g>
<g transform="translate(140.663490 110.145763) rotate(211.784856) scale(2.755411 12.687612)"><ellipse fill="#89592a" fill-opacity="0.501961" cx="0" cy="0" rx="1" ry="1" /></g>
<g transform="translate(211.874575 160.985057) rotate(358.467866) scale(21.298983 2.340369)"><ellipse fill="#766b30" fill-opacity="0.501961" cx="0" cy="0" rx="1" ry="1" /></g>
<g transform="translate(150.782530 163.590753) rotate(168.741328) scale(14.847038 2.873911)"><ellipse fill="#646330" fill-opacity="0.501961" cx="0" cy="0" rx="1" ry="1" /></g>
<g transform="translate(118.185423 74.025681) rotate(164.861819) scale(5.770398 1.000000)"><ellipse fill="#866236" fill-opacity="0.501961" cx="0" cy="0" rx="1" ry="1" /></g>
<g transform="translate(219.515247 146.918493) rotate(73.962791) scale(3.455974 2.253620)"><ellipse fill="#2d2c09" fill-opacity="0.501961" cx="0" cy="0" rx="1" ry="1" /></g>
<g transform="translate(186.770706 121.837953) rotate(509.531185) scale(4.968192 3.729571)"><ellipse fill="#221d10" fill-opacity="0.501961" cx="0" cy="0" rx="1" ry="1" /></g>
<g transform="translate(184.699980 106.009474) rotate(9.813253) scale(22.649961 1.000000)"><ellipse fill="#030d0d" fill-opacity="0.501961" cx="0" cy="0" rx="1" ry="1" /></g>
<g transform="translate(148.773582 146.330305) rotate(253.921893) scale(7.384164 11.986938)"><ellipse fill="#5a582f" fill-opacity="0.501961" cx="0" cy="0" rx="1" ry="1" /></g>
<g transform="translate(113.618043 94.565215) rotate(205.495744) scale(1.924104 9.000786)"><ellipse fill="#846737" fill-opacity="0.501961" cx="0" cy="0" rx="1" ry="1" /></g>
<g transform="translate(131.657718 57.092076) rotate(-1.529670) scale(1.000000 4.750138)"><ellipse fill="#daa254" fill-opacity="0.501961" cx="0" cy="0" rx="1" ry="1" /></g>
<g transform="translate(0.000000 126.509303) rotate(282.898724) scale(5.228873 71.167773)"><ellipse fill="#4a4627" fill-opacity="0.501961" cx="0" cy="0" rx="1" ry="1" /></g>
<g transform="translate(67.578960 169.000000) rotate(82.286911) scale(1.846206 7.384323)"><ellipse fill="#3f4630" fill-opacity="0.501961" cx="0" cy="0" rx="1" ry="1" /></g>
<g transform="translate(191.565290 127.238752) rotate(204.684992) scale(1.454248 4.483873)"><ellipse fill="#9c6f3b" fill-opacity="0.501961" cx="0" cy="0" rx="1" ry="1" /></g>
<g transform="translate(121.713071 61.196818) rotate(345.286199) scale(1.000000 3.010777)"><ellipse fill="#9f773e" fill-opacity="0.501961" cx="0" cy="0" rx="1" ry="1" /></g>
<g transform="translate(210.892325 168.589770) rotate(78.565409) scale(1.402798 20.254749)"><ellipse fill="#474b18" fill-opacity="0.501961" cx="0" cy="0" rx="1" ry="1" /></g>
<g transform="translate(128.500885 77.201656) rotate(423.333693) scale(6.156335 1.614483)"><ellipse fill="#643f15" fill-opacity="0.501961" cx="0" cy="0" rx="1" ry="1" /></g>
<g transform="translate(161.378049 101.574558) rotate(252.099022) scale(1.005951 2.717307)"><ellipse fill="#4c361c" fill-opacity="0.501961" cx="0" cy="0" rx="1" ry="1" /></g>
<g transform="translate(149.149778 127.681237) rotate(95.271213) scale(7.470937 2.174150)"><ellipse fill="#100a00" fill-opacity="0.501961" cx="0" cy="0" rx="1" ry="1" /></g>
<g transform="translate(100.317950 159.847647) rotate(23.541530) scale(7.205254 1.000000)"><ellipse fill="#6e6b3c" fill-opacity="0.501961" cx="0" cy="0" rx="1" ry="1" /></g>
<g transform="translate(138.145887 103.090645) rotate(119.499502) scale(8.901919 1.000000)"><ellipse fill="#412a13" fill-opacity="0.501961" cx="0" cy="0" rx="1" ry="1" /></g>
<g transform="translate(162.268577 88.185547) rotate(136.943956) scale(4.689264 9.732770)"><ellipse fill="#6e6740" fill-opacity="0.501961" cx="0" cy="0" rx="1" ry="1" /></g>
<g transform="translate(161.726914 169.126829) rotate(53.774300) scale(12.519719 4.867872)"><ellipse fill="#515530" fill-opacity="0.501961" cx="0" cy="0" rx="1" ry="1" /></g>
<g transform="translate(179.981604 119.955958) rotate(261.479760) scale(3.018430 8.587756)"><ellipse fill="#46351e" fill-opacity="0.501961" cx="0" cy="0" rx="1" ry="1" /></g>
<g transform="translate(108.803187 38.425641) rotate(114.246580) scale(6.661589 10.670511)"><ellipse fill="#5e5a33" fill-opacity="0.501961" cx="0" cy="0" rx="1" ry="1" /></g>
<g transform="translate(119.641031 163.271316) rotate(203.703249) scale(1.000000 9.561885)"><ellipse fill="#847b44" fill-opacity="0.501961" cx="0" cy="0" rx="1" ry="1" /></g>
<g transform="translate(122.399438 45.804971) rotate(277.357074) scale(6.621081 1.861510)"><ellipse fill="#030602" fill-opacity="0.501961" cx="0" cy="0" rx="1" ry="1" /></g>
<g transform="translate(126.149787 88.038057) rotate(321.401199) scale(1.321113 15.222168)"><ellipse fill="#5c3614" fill-opacity="0.501961" cx="0" cy="0" rx="1" ry="1" /></g>
<g transform="translate(203.153652 41.519500) rotate(176.148396) scale(20.697467 14.023019)"><ellipse fill="#5e5935" fill-opacity="0.501961" cx="0" cy="0" rx="1" ry="1" /></g>
<g transform="translate(123.620033 163.627179) rotate(381.040038) scale(2.461938 3.485213)"><ellipse fill="#58541a" fill-opacity="0.501961" cx="0" cy="0" rx="1" ry="1" /></g>
<g transform="translate(67.695090 163.745976) rotate(298.842546) scale(2.028366 2.853949)"><ellipse fill="#0d1a00" fill-opacity="0.501961" cx="0" cy="0" rx="1" ry="1" /></g>
<g transform="translate(47.223245 163.773422) rotate(226.850271) scale(1.518121 3.278696)"><ellipse fill="#132c2f" fill-opacity="0.501961" cx="0" cy="0" rx="1" ry="1" /></g>
<g transform="translate(132.432867 96.227662) rotate(128.064707) scale(9.799027 1.490914)"><ellipse fill="#844f1e" fill-opacity="0.501961" cx="0" cy="0" rx="1" ry="1" /></g>
<g transform="translate(129.223891 72.376980) rotate(186.247776) scale(5.854588 1.000000)"><ellipse fill="#1f0d00" fill-opacity="0.501961" cx="0" cy="0" rx="1" ry="1" /></g>
<g transform="translate(115.713272 153.605941) rotate(131.821009) scale(7.661207 1.000000)"><ellipse fill="#746e3e" fill-opacity="0.501961" cx="0" cy="0" rx="1" ry="1" /></g>
<g transform="translate(96.766127 55.892336) rotate(89.319938) scale(6.709584 22.067536)"><ellipse fill="#4c4729" fill-opacity="0.501961" cx="0" cy="0" rx="1" ry="1" /></g>
<g transform="translate(246.949638 140.781460) rotate(252.594558) scale(2.298694 10.118541)"><ellipse fill="#4f502d" fill-opacity="0.501961" cx="0" cy="0" rx="1" ry="1" /></g>
<g transform="translate(171.151639 70.545543) rotate(10.117105) scale(31.625481 4.911203)"><ellipse fill="#635e3a" fill-opacity="0.501961" cx="0" cy="0" rx="1" ry="1" /></g>
<g transform="translate(197.057566 130.349064) rotate(24.886544) scale(1.594001 5.755794)"><ellipse fill="#473e31" fill-opacity="0.501961" cx="0" cy="0" rx="1" ry="1" /></g>
<g transform="translate(194.960699 165.364206) rotate(-8.277799) scale(6.873958 1.000000)"><ellipse fill="#9f9059" fill-opacity="0.501961" cx="0" cy="0" rx="1" ry="1" /></g>
<g transform="translate(198.732877 112.317971) rotate(6.637543) scale(2.049945 7.009286)"><ellipse fill="#513f22" fill-opacity="0.501961" cx="0" cy="0" rx="1" ry="1" /></g>
<g transform="translate(181.508974 153.031584) rotate(350.082682) scale(21.449212 1.000000)"><ellipse fill="#867f50" fill-opacity="0.501961" cx="0" cy="0" rx="1" ry="1" /></g>
<g transform="translate(250.027221 144.879940) rotate(360.221729) scale(12.439760 2.532448)"><ellipse fill="#6d6828" fill-opacity="0.501961" cx="0" cy="0" rx="1" ry="1" /></g>
<g transform="translate(110.988458 166.995158) rotate(145.261338) scale(6.014854 1.461556)"><ellipse fill="#977f37" fill-opacity="0.501961" cx="0" cy="0" rx="1" ry="1" /></g>
<g transform="translate(120.087829 94.736248) rotate(180.982583) scale(4.564055 2.308708)"><ellipse fill="#ca9b5b" fill-opacity="0.501961" cx="0" cy="0" rx="1" ry="1" /></g>
<g transform="translate(119.272550 77.882815) rotate(163.044305) scale(1.838081 1.000000)"><ellipse fill="#0c0304" fill-opacity="0.501961" cx="0" cy="0" rx="1" ry="1" /></g>
<g transform="translate(107.825154 79.680843) rotate(131.734481) scale(13.324054 6.744655)"><ellipse fill="#665f37" fill-opacity="0.501961" cx="0" cy="0" rx="1" ry="1" /></g>
<g transform="translate(189.158801 141.857501) rotate(86.155699) scale(3.000128 18.311001)"><ellipse fill="#141d1b" fill-opacity="0.501961" cx="0" cy="0" rx="1" ry="1" /></g>
<g transform="translate(97.515015 5.743509) rotate(243.160019) scale(11.969644 67.417548)"><ellipse fill="#564f32" fill-opacity="0.501961" cx="0" cy="0" rx="1" ry="1" /></g>
<g transform="translate(123.548737 50.315635) rotate(318.797445) scale(3.591129 8.891218)"><ellipse fill="#090802" fill-opacity="0.501961" cx="0" cy="0" rx="1" ry="1" /></g>
<g transform="translate(127.903944 108.341533) rotate(179.835232) scale(1.000000 2.862131)"><ellipse fill="#723c0a" fill-opacity="0.501961" cx="0" cy="0" rx="1" ry="1" /></g>
<g transform="translate(238.680753 150.854159) rotate(77.989921) scale(7.829965 2.893463)"><ellipse fill="#5a5800" fill-opacity="0.501961" cx="0" cy="0" rx="1" ry="1" /></g>
<g transform="translate(159.352201 111.351276) rotate(121.247731) scale(1.000000 5.234218)"><ellipse fill="#845f37" fill-opacity="0.501961" cx="0" cy="0" rx="1" ry="1" /></g>
<g transform="translate(135.899123 62.891996) rotate(203.601756) scale(3.296843 1.916524)"><ellipse fill="#0f0a02" fill-opacity="0.501961" cx="0" cy="0" rx="1" ry="1" /></g>
<g transform="translate(175.878975 129.256753) rotate(295.425275) scale(1.928383 9.753413)"><ellipse fill="#422c16" fill-opacity="0.501961" cx="0" cy="0" rx="1" ry="1" /></g>
<g transform="translate(249.821035 120.612577) rotate(185.584800) scale(21.787201 11.439425)"><ellipse fill="#635f3b" fill-opacity="0.501961" cx="0" cy="0" rx="1" ry="1" /></g>
<g transform="translate(181.983956 159.926746) rotate(225.524567) scale(3.944135 5.543367)"><ellipse fill="#51533b" fill-opacity="0.501961" cx="0" cy="0" rx="1" ry="1" /></g>
<g transform="translate(207.400285 144.273895) rotate(283.621840) scale(4.603914 2.916461)"><ellipse fill="#090c08" fill-opacity="0.501961" cx="0" cy="0" rx="1" ry="1" /></g>
<g transform="translate(135.361952 113.379908) rotate(33.461723) scale(5.758366 1.842356)"><ellipse fill="#ad733a" fill-opacity="0.501961" cx="0" cy="0" rx="1" ry="1" /></g>
<g transform="translate(53.165102 74.274386) rotate(340.401725) scale(31.129630 7.543098)"><ellipse fill="#55502c" fill-opacity="0.501961" cx="0" cy="0" rx="1" ry="1" /></g>
<g transform="translate(62.530431 110.541334) rotate(23.603639) scale(35.307982 10.981392)"><ellipse fill="#615936" fill-opacity="0.501961" cx="0" cy="0" rx="1" ry="1" /></g>
<g transform="translate(121.387866 76.988356) rotate(8.247018) scale(3.390334 1.906292)"><ellipse fill="#23180d" fill-opacity="0.501961" cx="0" cy="0" rx="1" ry="1" /></g>
<g transform="translate(136.276470 48.942347) rotate(122.297880) scale(2.498556 2.065423)"><ellipse fill="#d7ac79" fill-opacity="0.501961" cx="0" cy="0" rx="1" ry="1" /></g>
<g transform="translate(151.636937 108.205431) rotate(67.098295) scale(3.859666 1.000000)"><ellipse fill="#15110a" fill-opacity="0.501961" cx="0" cy="0" rx="1" ry="1" /></g>
<g transform="translate(116.886054 142.656844) rotate(357.531897) scale(1.000000 1.286993)"><ellipse fill="#000e13" fill-opacity="0.501961" cx="0" cy="0" rx="1" ry="1" /></g>
<g transform="translate(79.864282 159.390468) rotate(155.007937) scale(1.000000 6.984446)"><ellipse fill="#6d6f43" fill-opacity="0.501961" cx="0" cy="0" rx="1" ry="1" /></g>
<g transform="translate(144.005905 156.432368) rotate(59.756628) scale(10.771480 1.000000)"><ellipse fill="#7d753c" fill-opacity="0.501961" cx="0" cy="0" rx="1" ry="1" /></g>
<g transform="translate(168.942500 56.025265) rotate(276.863717) scale(10.363886 13.487801)"><ellipse fill="#4f4d2e" fill-opacity="0.501961" cx="0" cy="0" rx="1" ry="1" /></g>
<g transform="translate(167.574519 115.224149) rotate(192.285160) scale(2.178510 5.814697)"><ellipse fill="#1b1a11" fill-opacity="0.501961" cx="0" cy="0" rx="1" ry="1" /></g>
<g transform="translate(155.886616 99.129473) rotate(221.787172) scale(2.018230 5.156255)"><ellipse fill="#090b08" fill-opacity="0.501961" cx="0" cy="0" rx="1" ry="1" /></g>
<g transform="translate(131.128559 70.974135) rotate(61.951569) scale(16.192275 1.352467)"><ellipse fill="#0b0a03" fill-opacity="0.501961" cx="0" cy="0" rx="1" ry="1" /></g>
<g transform="translate(152.903370 97.378402) rotate(-32.320568) scale(1.643036 3.670118)"><ellipse fill="#332716" fill-opacity="0.501961" cx="0" cy="0" rx="1" ry="1" /></g>
<g transform="translate(43.029942 161.408473) rotate(256.159840) scale(5.847793 1.402954)"><ellipse fill="#535639" fill-opacity="0.501961" cx="0" cy="0" rx="1" ry="1" /></g>
<g transform="translate(130.805848 151.318826) rotate(104.853450) scale(2.342264 2.796168)"><ellipse fill="#182a1d" fill-opacity="0.501961" cx="0" cy="0" rx="1" ry="1" /></g>
<g transform="translate(114.143950 91.224442) rotate(329.872658) scale(1.000000 3.589778)"><ellipse fill="#c78636" fill-opacity="0.501961" cx="0" cy="0" rx="1" ry="1" /></g>
<g transform="translate(251.250632 157.200194) rotate(129.962812) scale(4.605548 6.371864)"><ellipse fill="#2a370b" fill-opacity="0.501961" cx="0" cy="0" rx="1" ry="1" /></g>
<g transform="translate(35.817680 154.661555) rotate(166.128221) scale(14.681935 7.295313)"><ellipse fill="#4b4520" fill-opacity="0.501961" cx="0" cy="0" rx="1" ry="1" /></g>
<g transform="translate(153.624360 106.891097) rotate(65.545330) scale(2.771946 1.000000)"><ellipse fill="#93683e" fill-opacity="0.501961" cx="0" cy="0" rx="1" ry="1" /></g>
<g transform="translate(219.993008 153.380945) rotate(301.180828) scale(12.204911 2.540792)"><ellipse fill="#746c24" fill-opacity="0.501961" cx="0" cy="0" rx="1" ry="1" /></g>
<g transform="translate(255.000000 169.000000) rotate(262.780733) scale(4.518429 76.871903)"><ellipse fill="#001006" fill-opacity="0.501961" cx="0" cy="0" rx="1" ry="1" /></g>
<g transform="translate(226.610769 136.835314) rotate(36.944063) scale(1.571540 4.991000)"><ellipse fill="#0c292e" fill-opacity="0.501961" cx="0" cy="0" rx="1" ry="1" /></g>
<g transform="translate(165.011058 7.766932) rotate(104.258747) scale(17.274272 52.999274)"><ellipse fill="#5b5537" fill-opacity="0.501961" cx="0" cy="0" rx="1" ry="1" /></g>
<g transform="translate(170.259847 165.240504) rotate(218.882506) scale(1.000000 3.355811)"><ellipse fill="#1c2612" fill-opacity="0.501961" cx="0" cy="0" rx="1" ry="1" /></g>
<g transform="translate(138.178131 52.882945) rotate(78.199686) scale(4.122951 1.000000)"><ellipse fill="#a18b69" fill-opacity="0.501961" cx="0" cy="0" rx="1" ry="1" /></g>
<g transform="translate(139.396639 95.969779) rotate(216.943886) scale(2.789928 5.995042)"><ellipse fill="#2b1f0f" fill-opacity="0.501961" cx="0" cy="0" rx="1" ry="1" /></g>
<g transform="translate(162.448753 107.889992) rotate(127.487616) scale(1.000000 3.741078)"><ellipse fill="#564227" fill-opacity="0.501961" cx="0" cy="0" rx="1" ry="1" /></g>
<g transform="translate(124.809483 68.676981) rotate(221.312561) scale(1.000000 1.000000)"><ellipse fill="#ac7533" fill-opacity="0.501961" cx="0" cy="0" rx="1" ry="1" /></g>
<g transform="translate(188.776885 127.898754) rotate(138.896340) scale(1.335589 2.208188)"><ellipse fill="#734f28" fill-opacity="0.501961" cx="0" cy="0" rx="1" ry="1" /></g>
<g transform="translate(134.651123 86.599434) rotate(252.853239) scale(2.739240 5.945773)"><ellipse fill="#080802" fill-opacity="0.501961" cx="0" cy="0" rx="1" ry="1" /></g>
<g transform="translate(104.078354 167.181184) rotate(10.723625) scale(2.040245 12.207103)"><ellipse fill="#646134" fill-opacity="0.501961" cx="0" cy="0" rx="1" ry="1" /></g>
<g transform="translate(87.934944 169.000000) rotate(254.527478) scale(23.298727 1.000000)"><ellipse fill="#3b3f20" fill-opacity="0.501961" cx="0" cy="0" rx="1" ry="1" /></g>
<g transform="translate(174.189746 145.530800) rotate(99.729514) scale(1.000000 25.402332)"><ellipse fill="#4a5037" fill-opacity="0.501961" cx="0" cy="0" rx="1" ry="1" /></g>
<g transform="translate(202.536398 129.121574) rotate(320.556319) scale(6.868809 2.550953)"><ellipse fill="#1f2726" fill-opacity="0.501961" cx="0" cy="0" rx="1" ry="1" /></g>
<g transform="translate(172.349368 122.155326) rotate(78.533393) scale(3.211560 1.000000)"><ellipse fill="#7a5b39" fill-opacity="0.501961" cx="0" cy="0" rx="1" ry="1" /></g>
<g transform="translate(189.466540 107.905658) rotate(211.045531) scale(7.734024 2.936006)"><ellipse fill="#09100c" fill-opacity="0.501961" cx="0" cy="0" rx="1" ry="1" /></g>
<g transform="translate(239.306279 163.113503) rotate(261.085217) scale(2.432186 10.187883)"><ellipse fill="#1a2900" fill-opacity="0.501961" cx="0" cy="0" rx="1" ry="1" /></g>
<g transform="translate(47.596731 51.886992) rotate(291.755013) scale(6.218111 30.733375)"><ellipse fill="#474221" fill-opacity="0.501961" cx="0" cy="0" rx="1" ry="1" /></g>
<g transform="translate(150.499811 123.597014) rotate(358.293662) scale(18.262815 1.000000)"><ellipse fill="#37220c" fill-opacity="0.501961" cx="0" cy="0" rx="1" ry="1" /></g>
<g transform="translate(122.491047 136.286007) rotate(227.402244) scale(1.758917 10.164073)"><ellipse fill="#191c16" fill-opacity="0.501961" cx="0" cy="0" rx="1" ry="1" /></g>
<g transform="translate(171.730489 169.000000) rotate(335.962060) scale(19.983319 2.191580)"><ellipse fill="#63633f" fill-opacity="0.501961" cx="0" cy="0" rx="1" ry="1" /></g>
<g transform="translate(129.891159 142.570099) rotate(234.642059) scale(5.015083 3.588339)"><ellipse fill="#07110b" fill-opacity="0.501961" cx="0" cy="0" rx="1" ry="1" /></g>
<g transform="translate(149.364602 169.340270) rotate(272.048423) scale(1.000000 16.918937)"><ellipse fill="#383f1e" fill-opacity="0.501961" cx="0" cy="0" rx="1" ry="1" /></g>
<g transform="translate(138.925409 44.705890) rotate(82.694572) scale(4.772755 1.000000)"><ellipse fill="#291400" fill-opacity="0.501961" cx="0" cy="0" rx="1" ry="1" /></g>
<g transform="translate(207.426092 162.889444) rotate(-67.166920) scale(1.881834 3.155937)"><ellipse fill="#5d5f23" fill-opacity="0.501961" cx="0" cy="0" rx="1" ry="1" /></g>
<g transform="translate(64.544023 153.868747) rotate(103.490639) scale(6.939650 4.713804)"><ellipse fill="#5e5a24" fill-opacity="0.501961" cx="0" cy="0" rx="1" ry="1" /></g>
<g transform="translate(215.615804 142.981274) rotate(276.613006) scale(1.397125 8.032008)"><ellipse fill="#000000" fill-opacity="0.501961" cx="0" cy="0" rx="1" ry="1" /></g>
<g transform="translate(138.526555 41.949205) rotate(18.015128) scale(2.248097 2.406522)"><ellipse fill="#291904" fill-opacity="0.501961" cx="0" cy="0" rx="1" ry="1" /></g>
<g transform="translate(140.369538 162.138458) rotate(107.185400) scale(1.054579 9.658281)"><ellipse fill="#827a3e" fill-opacity="0.501961" cx="0" cy="0" rx="1" ry="1" /></g>
<g transform="translate(142.410623 85.689503) rotate(62.542681) scale(9.239881 1.659758)"><ellipse fill="#0a0c07" fill-opacity="0.501961" cx="0" cy="0" rx="1" ry="1" /></g>
<g transform="translate(115.299708 90.519734) rotate(336.964012) scale(1.000000 3.435957)"><ellipse fill="#9d5410" fill-opacity="0.501961" cx="0" cy="0" rx="1" ry="1" /></g>
<g transform="translate(155.600503 116.121697) rotate(206.312165) scale(3.622267 1.407157)"><ellipse fill="#80592f" fill-opacity="0.501961" cx="0" cy="0" rx="1" ry="1" /></g>
<g transform="translate(128.379516 165.145333) rotate(253.377864) scale(2.536972 1.734077)"><ellipse fill="#8a7c49" fill-opacity="0.501961" cx="0" cy="0" rx="1" ry="1" /></g>
<g transform="translate(99.857061 103.444787) rotate(148.420885) scale(17.203402 11.465768)"><ellipse fill="#6e6640" fill-opacity="0.501961" cx="0" cy="0" rx="1" ry="1" /></g>
<g transform="translate(244.982812 37.705457) rotate(344.885547) scale(33.705260 8.646569)"><ellipse fill="#59552f" fill-opacity="0.501961" cx="0" cy="0" rx="1" ry="1" /></g>
<g transform="translate(180.155186 98.662380) rotate(234.504184) scale(4.625535 3.785487)"><ellipse fill="#726a40" fill-opacity="0.501961" cx="0" cy="0" rx="1" ry="1" /></g>
<g transform="translate(189.482838 155.458213) rotate(260.861720) scale(6.615505 3.981978)"><ellipse fill="#77744c" fill-opacity="0.501961" cx="0" cy="0" rx="1" ry="1" /></g>
<g transform="translate(168.257165 100.666236) rotate(17.023575) scale(4.427786 3.402432)"><ellipse fill="#030c0a" fill-opacity="0.501961" cx="0" cy="0" rx="1" ry="1" /></g>
<g transform="translate(194.849380 124.441138) rotate(285.026918) scale(6.641272 1.000000)"><ellipse fill="#9d7342" fill-opacity="0.501961" cx="0" cy="0" rx="1" ry="1" /></g>
<g transform="translate(123.582715 81.670778) rotate(182.179147) scale(1.532712 6.299334)"><ellipse fill="#422c14" fill-opacity="0.501961" cx="0" cy="0" rx="1" ry="1" /></g>
<g transform="translate(124.755600 110.814531) rotate(153.097943) scale(1.000000 5.410388)"><ellipse fill="#c29250" fill-opacity="0.501961" cx="0" cy="0" rx="1" ry="1" /></g>
<g transform="translate(138.951612 131.859297) rotate(247.852128) scale(2.325253 5.024825)"><ellipse fill="#0d0a01" fill-opacity="0.501961" cx="0" cy="0" rx="1" ry="1" /></g>
<g transform="translate(120.830630 103.198866) rotate(173.857478) scale(1.953403 6.883406)"><ellipse fill="#6c6a44" fill-opacity="0.501961" cx="0" cy="0" rx="1" ry="1" /></g>
<g transform="translate(207.791082 158.570106) rotate(91.814474) scale(1.000000 9.002018)"><ellipse fill="#8c8357" fill-opacity="0.501961" cx="0" cy="0" rx="1" ry="1" /></g>
<g transform="translate(96.230097 163.480331) rotate(254.608459) scale(2.091465 3.703076)"><ellipse fill="#3a3d11" fill-opacity="0.501961" cx="0" cy="0" rx="1" ry="1" /></g>
<g transform="translate(128.061995 125.454228) rotate(187.373306) scale(4.744306 1.457025)"><ellipse fill="#656240" fill-opacity="0.501961" cx="0" cy="0" rx="1" ry="1" /></g>
<g transform="translate(89.065606 160.046033) rotate(97.089131) scale(1.728025 6.415874)"><ellipse fill="#606037" fill-opacity="0.501961" cx="0" cy="0" rx="1" ry="1" /></g>
<g transform="translate(70.876413 101.961839) rotate(28.368989) scale(7.114021 31.692988)"><ellipse fill="#635c37" fill-opacity="0.501961" cx="0" cy="0" rx="1" ry="1" /></g>
<g transform="translate(184.619334 138.163729) rotate(-8.617749) scale(1.000000 8.107601)"><ellipse fill="#0c0900" fill-opacity="0.501961" cx="0" cy="0" rx="1" ry="1" /></g>
<g transform="translate(176.793929 135.486934) rotate(119.429306) scale(1.986776 8.719580)"><ellipse fill="#110e06" fill-opacity="0.501961" cx="0" cy="0" rx="1" ry="1" /></g>
<g transform="translate(114.730994 82.800728) rotate(16.433044) scale(1.018117 8.905101)"><ellipse fill="#a67c42" fill-opacity="0.501961" cx="0" cy="0" rx="1" ry="1" /></g>
<g transform="translate(235.350031 141.493944) rotate(183.928393) scale(5.098407 1.762769)"><ellipse fill="#203423" fill-opacity="0.501961" cx="0" cy="0" rx="1" ry="1" /></g>
<g transform="translate(143.681342 95.745655) rotate(4.538128) scale(1.000000 5.424980)"><ellipse fill="#151409" fill-opacity="0.501961" cx="0" cy="0" rx="1" ry="1" /></g>
<g transform="translate(111.027095 161.210373) rotate(158.488513) scale(3.702502 1.277059)"><ellipse fill="#444512" fill-opacity="0.501961" cx="0" cy="0" rx="1" ry="1" /></g>
<g transform="translate(202.136449 119.609253) rotate(51.265784) scale(1.000000 6.460479)"><ellipse fill="#2d1f0d" fill-opacity="0.501961" cx="0" cy="0" rx="1" ry="1" /></g>
<g transform="translate(148.781933 142.413432) rotate(128.986956) scale(4.166025 13.392545)"><ellipse fill="#58562f" fill-opacity="0.501961" cx="0" cy="0" rx="1" ry="1" /></g>
<g transform="translate(228.247673 132.008762) rotate(238.768033) scale(9.915921 2.014716)"><ellipse fill="#031112" fill-opacity="0.501961" cx="0" cy="0" rx="1" ry="1" /></g>
<g transform="translate(8.455791 139.609803) rotate(138.390222) scale(4.445882 22.553021)"><ellipse fill="#403d1e" fill-opacity="0.501961" cx="0" cy="0" rx="1" ry="1" /></g>
<g transform="translate(199.258904 99.784750) rotate(109.481608) scale(5.834977 28.895202)"><ellipse fill="#716941" fill-opacity="0.501961" cx="0" cy="0" rx="1" ry="1" /></g>
<g transform="translate(209.297636 166.808562) rotate(55.072766) scale(1.000000 14.530247)"><ellipse fill="#7a723b" fill-opacity="0.501961" cx="0" cy="0" rx="1" ry="1" /></g>
<g transform="translate(146.373937 158.045915) rotate(243.494671) scale(7.591051 1.232001)"><ellipse fill="#827a3e" fill-opacity="0.501961" cx="0" cy="0" rx="1" ry="1" /></g>
<g transform="translate(237.419776 150.031182) rotate(131.178525) scale(5.929783 2.118603)"><ellipse fill="#676500" fill-opacity="0.501961" cx="0" cy="0" rx="1" ry="1" /></g>
<g transform="translate(216.138988 119.361116) rotate(321.675145) scale(3.039291 10.438869)"><ellipse fill="#030a08" fill-opacity="0.501961" cx="0" cy="0" rx="1" ry="1" /></g>
<g transform="translate(159.197860 155.281629) rotate(261.484004) scale(3.282173 2.474539)"><ellipse fill="#8d8343" fill-opacity="0.501961" cx="0" cy="0" rx="1" ry="1" /></g>
<g transform="translate(23.218476 114.687913) rotate(294.580196) scale(8.418967 29.509913)"><ellipse fill="#575029" fill-opacity="0.501961" cx="0" cy="0" rx="1" ry="1" /></g>
<g transform="translate(85.681375 169.000000) rotate(31.437478) scale(1.255173 8.011128)"><ellipse fill="#343913" fill-opacity="0.501961" cx="0" cy="0" rx="1" ry="1" /></g>
<g transform="translate(162.602762 104.784823) rotate(359.160763) scale(1.000000 5.532101)"><ellipse fill="#3f301a" fill-opacity="0.501961" cx="0" cy="0" rx="1" ry="1" /></g>
<g transform="translate(210.383778 135.822495) rotate(145.247131) scale(2.722382 1.000000)"><ellipse fill="#4f4a3c" fill-opacity="0.501961" cx="0" cy="0" rx="1" ry="1" /></g>
</g>
</svg>