<svg xmlns="http://www.w3.org/2000/svg" version="1.1" width="1024" height="680">
<rect x="0" y="0" width="1024" height="680" fill="#b1b5b0" />
<g transform="scale(4.000000) translate(0.5 0.5)">
<ellipse fill="#3f1800" fill-opacity="0.501961" cx="189" cy="132" rx="49" ry="49" />
<ellipse fill="#200600" fill-opacity="0.501961" cx="185" cy="72" rx="20" ry="20" />
<ellipse fill="#edf2f0" fill-opacity="0.501961" cx="65" cy="109" rx="85" ry="85" />
<ellipse fill="#2f1200" fill-opacity="0.501961" cx="218" cy="158" rx="19" ry="19" />
<ellipse fill="#3f2a0a" fill-opacity="0.501961" cx="163" cy="157" rx="20" ry="20" />
<ellipse fill="#d4e4e5" fill-opacity="0.501961" cx="255" cy="127" rx="25" ry="25" />
<ellipse fill="#d1dad7" fill-opacity="0.501961" cx="128" cy="60" rx="42" ry="42" />
<ellipse fill="#261d09" fill-opacity="0.501961" cx="182" cy="50" rx="8" ry="8" />
<ellipse fill="#75a7bc" fill-opacity="0.501961" cx="243" cy="0" rx="46" ry="46" />
<ellipse fill="#b3c2c4" fill-opacity="0.501961" cx="29" cy="0" rx="86" ry="86" />
<ellipse fill="#c4cbc1" fill-opacity="0.501961" cx="164" cy="119" rx="10" ry="10" />
<ellipse fill="#b3c9cf" fill-opacity="0.501961" cx="231" cy="64" rx="32" ry="32" />
<ellipse fill="#5a4a2a" fill-opacity="0.501961" cx="185" cy="84" rx="21" ry="21" />
<ellipse fill="#bec5ba" fill-opacity="0.501961" cx="211" cy="120" rx="9" ry="9" />
<ellipse fill="#e1e1de" fill-opacity="0.501961" cx="114" cy="150" rx="32" ry="32" />
<ellipse fill="#bcc9ca" fill-opacity="0.501961" cx="249" cy="95" rx="27" ry="27" />
<ellipse fill="#654b25" fill-opacity="0.501961" cx="189" cy="131" rx="19" ry="19" />
<ellipse fill="#d7b380" fill-opacity="0.501961" cx="189" cy="152" rx="8" ry="8" />
<ellipse fill="#cbccc2" fill-opacity="0.501961" cx="204" cy="111" rx="7" ry="7" />
<ellipse fill="#cbd4cf" fill-opacity="0.501961" cx="255" cy="148" rx="22" ry="22" />
<ellipse fill="#553e1d" fill-opacity="0.501961" cx="216" cy="152" rx="20" ry="20" />
<ellipse fill="#b6c7cc" fill-opacity="0.501961" cx="149" cy="32" rx="32" ry="32" />
<ellipse fill="#e0e0db" fill-opacity="0.501961" cx="54" cy="169" rx="55" ry="55" />
<ellipse fill="#846c4c" fill-opacity="0.501961" cx="181" cy="95" rx="20" ry="20" />
<ellipse fill="#a9895e" fill-opacity="0.501961" cx="192" cy="168" rx="14" ry="14" />
<ellipse fill="#23221c" fill-opacity="0.501961" cx="183" cy="41" rx="4" ry="4" />
<ellipse fill="#a0b2b7" fill-opacity="0.501961" cx="18" cy="24" rx="30" ry="30" />
<ellipse fill="#6e593a" fill-opacity="0.501961" cx="151" cy="117" rx="7" ry="7" />
<ellipse fill="#abbec3" fill-opacity="0.501961" cx="211" cy="38" rx="25" ry="25" />
<ellipse fill="#4f432c" fill-opacity="0.501961" cx="183" cy="65" rx="15" ry="15" />
<ellipse fill="#bec7c4" fill-opacity="0.501961" cx="250" cy="124" rx="20" ry="20" />
<ellipse fill="#4b3822" fill-opacity="0.501961" cx="153" cy="168" rx="10" ry="10" />
<ellipse fill="#c3c8c7" fill-opacity="0.501961" cx="170" cy="110" rx="5" ry="5" />
<ellipse fill="#c9cec9" fill-opacity="0.501961" cx="71" cy="47" rx="39" ry="39" />
<ellipse fill="#a4a9a2" fill-opacity="0.501961" cx="158" cy="129" rx="8" ry="8" />
<ellipse fill="#745833" fill-opacity="0.501961" cx="203" cy="93" rx="11" ry="11" />
<ellipse fill="#d1d4ce" fill-opacity="0.501961" cx="137" cy="70" rx="31" ry="31" />
<ellipse fill="#ced3cc" fill-opacity="0.501961" cx="206" cy="68" rx="7" ry="7" />
<ellipse fill="#b0b3ad" fill-opacity="0.501961" cx="217" cy="128" rx="6" ry="6" />
<ellipse fill="#41311c" fill-opacity="0.501961" cx="162" cy="92" rx="4" ry="4" />
<ellipse fill="#38250f" fill-opacity="0.501961" cx="227" cy="166" rx="9" ry="9" />
<ellipse fill="#d6d8d6" fill-opacity="0.501961" cx="113" cy="136" rx="32" ry="32" />
<ellipse fill="#719daa" fill-opacity="0.501961" cx="250" cy="0" rx="24" ry="24" />
<ellipse fill="#bcc6c5" fill-opacity="0.501961" cx="152" cy="42" rx="25" ry="25" />
<ellipse fill="#403723" fill-opacity="0.501961" cx="227" cy="134" rx="6" ry="6" />
<ellipse fill="#c0c9c7" fill-opacity="0.501961" cx="255" cy="136" rx="23" ry="23" />
<ellipse fill="#9db9c1" fill-opacity="0.501961" cx="173" cy="0" rx="30" ry="30" />
<ellipse fill="#4e4025" fill-opacity="0.501961" cx="222" cy="113" rx="7" ry="7" />
<ellipse fill="#433623" fill-opacity="0.501961" cx="172" cy="144" rx="11" ry="11" />
<ellipse fill="#070701" fill-opacity="0.501961" cx="187" cy="139" rx="4" ry="4" />
<ellipse fill="#a4835c" fill-opacity="0.501961" cx="185" cy="104" rx="9" ry="9" />
<ellipse fill="#4a4336" fill-opacity="0.501961" cx="184" cy="80" rx="17" ry="17" />
<ellipse fill="#d1a36c" fill-opacity="0.501961" cx="184" cy="57" rx="3" ry="3" />
<ellipse fill="#6f5a3f" fill-opacity="0.501961" cx="154" cy="152" rx="11" ry="11" />
<ellipse fill="#bbc6c6" fill-opacity="0.501961" cx="249" cy="102" rx="22" ry="22" />
<ellipse fill="#947d5b" fill-opacity="0.501961" cx="154" cy="109" rx="9" ry="9" />
<ellipse fill="#b5bfbf" fill-opacity="0.501961" cx="44" cy="35" rx="23" ry="23" />
<ellipse fill="#090907" fill-opacity="0.501961" cx="210" cy="119" rx="2" ry="2" />
<ellipse fill="#56544a" fill-opacity="0.501961" cx="181" cy="36" rx="3" ry="3" />
<ellipse fill="#8d7352" fill-opacity="0.501961" cx="184" cy="125" rx="10" ry="10" />
<ellipse fill="#af875a" fill-opacity="0.501961" cx="186" cy="81" rx="5" ry="5" />
<ellipse fill="#97aeb5" fill-opacity="0.501961" cx="250" cy="43" rx="23" ry="23" />
<ellipse fill="#8fa8ae" fill-opacity="0.501961" cx="8" cy="0" rx="21" ry="21" />
<ellipse fill="#81755e" fill-opacity="0.501961" cx="153" cy="134" rx="9" ry="9" />
<ellipse fill="#533e26" fill-opacity="0.501961" cx="205" cy="132" rx="8" ry="8" />
<ellipse fill="#acbfc4" fill-opacity="0.501961" cx="113" cy="0" rx="31" ry="31" />
<ellipse fill="#d4dbd4" fill-opacity="0.501961" cx="246" cy="169" rx="11" ry="11" />
<ellipse fill="#473d29" fill-opacity="0.501961" cx="226" cy="126" rx="5" ry="5" />
<ellipse fill="#dbddd8" fill-opacity="0.501961" cx="118" cy="169" rx="26" ry="26" />
<ellipse fill="#464237" fill-opacity="0.501961" cx="183" cy="50" rx="6" ry="6" />
<ellipse fill="#130d04" fill-opacity="0.501961" cx="200" cy="151" rx="4" ry="4" />
<ellipse fill="#bac4c3" fill-opacity="0.501961" cx="230" cy="79" rx="20" ry="20" />
<ellipse fill="#746654" fill-opacity="0.501961" cx="181" cy="31" rx="3" ry="3" />
<ellipse fill="#81613f" fill-opacity="0.501961" cx="207" cy="166" rx="7" ry="7" />
<ellipse fill="#a47c52" fill-opacity="0.501961" cx="200" cy="90" rx="5" ry="5" />
<ellipse fill="#b8c3c3" fill-opacity="0.501961" cx="163" cy="33" rx="18" ry="18" />
<ellipse fill="#caa06e" fill-opacity="0.501961" cx="194" cy="133" rx="3" ry="3" />
<ellipse fill="#acbfc3" fill-opacity="0.501961" cx="199" cy="33" rx="16" ry="16" />
<ellipse fill="#c1c7c3" fill-opacity="0.501961" cx="0" cy="71" rx="35" ry="35" />
<ellipse fill="#1b2327" fill-opacity="0.501961" cx="202" cy="82" rx="3" ry="3" />
<ellipse fill="#d3d5d4" fill-opacity="0.501961" cx="125" cy="128" rx="20" ry="20" />
<ellipse fill="#312618" fill-opacity="0.501961" cx="166" cy="156" rx="6" ry="6" />
<ellipse fill="#756147" fill-opacity="0.501961" cx="170" cy="88" rx="8" ry="8" />
<ellipse fill="#77664d" fill-opacity="0.501961" cx="150" cy="127" rx="5" ry="5" />
<ellipse fill="#bec7c4" fill-opacity="0.501961" cx="252" cy="123" rx="22" ry="22" />
<ellipse fill="#4a3d27" fill-opacity="0.501961" cx="178" cy="128" rx="5" ry="5" />
<ellipse fill="#d5d6cc" fill-opacity="0.501961" cx="166" cy="73" rx="3" ry="3" />
<ellipse fill="#d9ded6" fill-opacity="0.501961" cx="240" cy="155" rx="5" ry="5" />
<ellipse fill="#302222" fill-opacity="0.501961" cx="231" cy="115" rx="2" ry="2" />
<ellipse fill="#77592f" fill-opacity="0.501961" cx="213" cy="100" rx="8" ry="8" />
<ellipse fill="#b9c4c4" fill-opacity="0.501961" cx="204" cy="49" rx="12" ry="12" />
<ellipse fill="#cdd3d0" fill-opacity="0.501961" cx="133" cy="104" rx="17" ry="17" />
<ellipse fill="#3b2a17" fill-opacity="0.501961" cx="207" cy="158" rx="7" ry="7" />
<ellipse fill="#333433" fill-opacity="0.501961" cx="163" cy="121" rx="2" ry="2" />
<ellipse fill="#0d171c" fill-opacity="0.501961" cx="200" cy="76" rx="3" ry="3" />
<ellipse fill="#ccc8bb" fill-opacity="0.501961" cx="207" cy="121" rx="3" ry="3" />
<ellipse fill="#ba9b75" fill-opacity="0.501961" cx="185" cy="98" rx="4" ry="4" />
<ellipse fill="#c5cdca" fill-opacity="0.501961" cx="211" cy="78" rx="7" ry="7" />
<ellipse fill="#cfd4d2" fill-opacity="0.501961" cx="48" cy="102" rx="37" ry="37" />
<ellipse fill="#251f14" fill-opacity="0.501961" cx="181" cy="91" rx="4" ry="4" />
<ellipse fill="#533d28" fill-opacity="0.501961" cx="205" cy="87" rx="4" ry="4" />
<ellipse fill="#4a4134" fill-opacity="0.501961" cx="158" cy="112" rx="3" ry="3" />
<ellipse fill="#2c1b08" fill-opacity="0.501961" cx="194" cy="140" rx="3" ry="3" />
<ellipse fill="#a78760" fill-opacity="0.501961" cx="181" cy="133" rx="4" ry="4" />
<ellipse fill="#7c5f3d" fill-opacity="0.501961" cx="187" cy="57" rx="7" ry="7" />
<ellipse fill="#b98d59" fill-opacity="0.501961" cx="231" cy="169" rx="3" ry="3" />
<ellipse fill="#6f593d" fill-opacity="0.501961" cx="166" cy="141" rx="7" ry="7" />
<ellipse fill="#75634c" fill-opacity="0.501961" cx="150" cy="119" rx="6" ry="6" />
<ellipse fill="#c6c1b7" fill-opacity="0.501961" cx="157" cy="126" rx="4" ry="4" />
<ellipse fill="#bcbab0" fill-opacity="0.501961" cx="159" cy="119" rx="4" ry="4" />
<ellipse fill="#432400" fill-opacity="0.501961" cx="199" cy="63" rx="2" ry="2" />
<ellipse fill="#252a29" fill-opacity="0.501961" cx="179" cy="68" rx="5" ry="5" />
<ellipse fill="#342715" fill-opacity="0.501961" cx="168" cy="64" rx="2" ry="2" />
<ellipse fill="#080704" fill-opacity="0.501961" cx="216" cy="159" rx="3" ry="3" />
<ellipse fill="#bcc1bb" fill-opacity="0.501961" cx="205" cy="70" rx="6" ry="6" />
<ellipse fill="#bbb6ac" fill-opacity="0.501961" cx="163" cy="114" rx="4" ry="4" />
<ellipse fill="#0e0e0a" fill-opacity="0.501961" cx="186" cy="124" rx="2" ry="2" />
<ellipse fill="#13110c" fill-opacity="0.501961" cx="145" cy="165" rx="2" ry="2" />
<ellipse fill="#dfe0d6" fill-opacity="0.501961" cx="150" cy="88" rx="9" ry="9" />
<ellipse fill="#2a3030" fill-opacity="0.501961" cx="191" cy="70" rx="6" ry="6" />
<ellipse fill="#c1c9c6" fill-opacity="0.501961" cx="248" cy="141" rx="15" ry="15" />
<ellipse fill="#d2ad7f" fill-opacity="0.501961" cx="182" cy="84" rx="2" ry="2" />
<ellipse fill="#a7845f" fill-opacity="0.501961" cx="147" cy="158" rx="4" ry="4" />
<ellipse fill="#c6cec7" fill-opacity="0.501961" cx="55" cy="0" rx="13" ry="13" />
<ellipse fill="#3f413b" fill-opacity="0.501961" cx="171" cy="81" rx="6" ry="6" />
<ellipse fill="#d8dad1" fill-opacity="0.501961" cx="94" cy="37" rx="11" ry="11" />
<ellipse fill="#9b7242" fill-opacity="0.501961" cx="197" cy="85" rx="4" ry="4" />
<ellipse fill="#c3c0b3" fill-opacity="0.501961" cx="167" cy="124" rx="4" ry="4" />
<ellipse fill="#aa8c68" fill-opacity="0.501961" cx="188" cy="119" rx="4" ry="4" />
<ellipse fill="#b28f67" fill-opacity="0.501961" cx="192" cy="146" rx="5" ry="5" />
<ellipse fill="#0c0c08" fill-opacity="0.501961" cx="177" cy="151" rx="3" ry="3" />
<ellipse fill="#3a2d1c" fill-opacity="0.501961" cx="193" cy="92" rx="4" ry="4" />
<ellipse fill="#89765b" fill-opacity="0.501961" cx="170" cy="99" rx="8" ry="8" />
<ellipse fill="#cbb494" fill-opacity="0.501961" cx="145" cy="146" rx="3" ry="3" />
<ellipse fill="#2f2517" fill-opacity="0.501961" cx="233" cy="163" rx="4" ry="4" />
<ellipse fill="#644c30" fill-opacity="0.501961" cx="221" cy="145" rx="12" ry="12" />
<ellipse fill="#362510" fill-opacity="0.501961" cx="196" cy="127" rx="3" ry="3" />
<ellipse fill="#5e5541" fill-opacity="0.501961" cx="197" cy="113" rx="3" ry="3" />
<ellipse fill="#a7b9bd" fill-opacity="0.501961" cx="255" cy="69" rx="20" ry="20" />
<ellipse fill="#493e2a" fill-opacity="0.501961" cx="225" cy="117" rx="5" ry="5" />
<ellipse fill="#b4aca3" fill-opacity="0.501961" cx="216" cy="117" rx="3" ry="3" />
<ellipse fill="#000000" fill-opacity="0.501961" cx="175" cy="133" rx="2" ry="2" />
<ellipse fill="#483824" fill-opacity="0.501961" cx="182" cy="128" rx="4" ry="4" />
<ellipse fill="#c2cdc9" fill-opacity="0.501961" cx="235" cy="107" rx="8" ry="8" />
<ellipse fill="#b8b3a4" fill-opacity="0.501961" cx="207" cy="112" rx="6" ry="6" />
<ellipse fill="#554d3a" fill-opacity="0.501961" cx="170" cy="128" rx="3" ry="3" />
<ellipse fill="#433e33" fill-opacity="0.501961" cx="182" cy="42" rx="3" ry="3" />
<ellipse fill="#979591" fill-opacity="0.501961" cx="218" cy="131" rx="4" ry="4" />
<ellipse fill="#020605" fill-opacity="0.501961" cx="182" cy="140" rx="2" ry="2" />
<ellipse fill="#c6a476" fill-opacity="0.501961" cx="154" cy="105" rx="3" ry="3" />
<ellipse fill="#6c563b" fill-opacity="0.501961" cx="223" cy="109" rx="5" ry="5" />
<ellipse fill="#ab885e" fill-opacity="0.501961" cx="189" cy="129" rx="4" ry="4" />
<ellipse fill="#5e503a" fill-opacity="0.501961" cx="212" cy="107" rx="4" ry="4" />
<ellipse fill="#99744c" fill-opacity="0.501961" cx="188" cy="94" rx="4" ry="4" />
<ellipse fill="#7b5c3b" fill-opacity="0.501961" cx="207" cy="165" rx="7" ry="7" />
<ellipse fill="#65533c" fill-opacity="0.501961" cx="173" cy="165" rx="8" ry="8" />
<ellipse fill="#c2cbc9" fill-opacity="0.501961" cx="211" cy="83" rx="4" ry="4" />
<ellipse fill="#5b534b" fill-opacity="0.501961" cx="216" cy="120" rx="2" ry="2" />
<ellipse fill="#cfaa7c" fill-opacity="0.501961" cx="149" cy="169" rx="2" ry="2" />
<ellipse fill="#d7d9d5" fill-opacity="0.501961" cx="127" cy="168" rx="17" ry="17" />
<ellipse fill="#ffc87d" fill-opacity="0.501961" cx="176" cy="84" rx="1" ry="1" />
<ellipse fill="#c2cac6" fill-opacity="0.501961" cx="157" cy="51" rx="16" ry="16" />
<ellipse fill="#46443e" fill-opacity="0.501961" cx="165" cy="119" rx="2" ry="2" />
<ellipse fill="#4d3e2a" fill-opacity="0.501961" cx="160" cy="153" rx="10" ry="10" />
<ellipse fill="#1c2329" fill-opacity="0.501961" cx="210" cy="88" rx="2" ry="2" />
<ellipse fill="#e1dbc7" fill-opacity="0.501961" cx="214" cy="124" rx="3" ry="3" />
<ellipse fill="#8e7452" fill-opacity="0.501961" cx="209" cy="99" rx="5" ry="5" />
<ellipse fill="#bfc8c5" fill-opacity="0.501961" cx="255" cy="128" rx="24" ry="24" />
<ellipse fill="#6f726f" fill-opacity="0.501961" cx="208" cy="125" rx="3" ry="3" />
<ellipse fill="#443622" fill-opacity="0.501961" cx="223" cy="144" rx="7" ry="7" />
<ellipse fill="#464c4c" fill-opacity="0.501961" cx="188" cy="51" rx="3" ry="3" />
<ellipse fill="#0c0c0b" fill-opacity="0.501961" cx="223" cy="163" rx="3" ry="3" />
<ellipse fill="#362c1e" fill-opacity="0.501961" cx="201" cy="135" rx="4" ry="4" />
<ellipse fill="#d0d5ce" fill-opacity="0.501961" cx="78" cy="24" rx="9" ry="9" />
<ellipse fill="#a0805a" fill-opacity="0.501961" cx="175" cy="88" rx="3" ry="3" />
<ellipse fill="#10171a" fill-opacity="0.501961" cx="204" cy="119" rx="1" ry="1" />
<ellipse fill="#614d33" fill-opacity="0.501961" cx="179" cy="107" rx="3" ry="3" />
<ellipse fill="#7e5f3b" fill-opacity="0.501961" cx="230" cy="164" rx="3" ry="3" />
<ellipse fill="#c2ccc9" fill-opacity="0.501961" cx="160" cy="80" rx="6" ry="6" />
<ellipse fill="#9d7449" fill-opacity="0.501961" cx="205" cy="141" rx="3" ry="3" />
<ellipse fill="#5d5037" fill-opacity="0.501961" cx="160" cy="108" rx="3" ry="3" />
<ellipse fill="#755a3f" fill-opacity="0.501961" cx="146" cy="153" rx="3" ry="3" />
<ellipse fill="#141008" fill-opacity="0.501961" cx="210" cy="138" rx="2" ry="2" />
<ellipse fill="#53442f" fill-opacity="0.501961" cx="228" cy="130" rx="4" ry="4" />
<ellipse fill="#55422c" fill-opacity="0.501961" cx="168" cy="87" rx="4" ry="4" />
<ellipse fill="#caa874" fill-opacity="0.501961" cx="160" cy="101" rx="2" ry="2" />
<ellipse fill="#000e1b" fill-opacity="0.501961" cx="175" cy="73" rx="2" ry="2" />
<ellipse fill="#030704" fill-opacity="0.501961" cx="154" cy="166" rx="2" ry="2" />
<ellipse fill="#564628" fill-opacity="0.501961" cx="159" cy="96" rx="3" ry="3" />
<ellipse fill="#95b0b8" fill-opacity="0.501961" cx="204" cy="2" rx="22" ry="22" />
<ellipse fill="#4e5b5b" fill-opacity="0.501961" cx="185" cy="71" rx="4" ry="4" />
<ellipse fill="#000104" fill-opacity="0.501961" cx="198" cy="148" rx="2" ry="2" />
<ellipse fill="#392a17" fill-opacity="0.501961" cx="179" cy="94" rx="3" ry="3" />
<ellipse fill="#7c674a" fill-opacity="0.501961" cx="150" cy="142" rx="6" ry="6" />
<ellipse fill="#929494" fill-opacity="0.501961" cx="157" cy="132" rx="4" ry="4" />
<ellipse fill="#a49d91" fill-opacity="0.501961" cx="218" cy="122" rx="3" ry="3" />
<ellipse fill="#b5b2a9" fill-opacity="0.501961" cx="212" cy="111" rx="2" ry="2" />
<ellipse fill="#4b3926" fill-opacity="0.501961" cx="189" cy="103" rx="2" ry="2" />
<ellipse fill="#7c6850" fill-opacity="0.501961" cx="151" cy="115" rx="6" ry="6" />
<ellipse fill="#9f7d56" fill-opacity="0.501961" cx="196" cy="133" rx="3" ry="3" />
<ellipse fill="#cbd3cf" fill-opacity="0.501961" cx="93" cy="81" rx="28" ry="28" />
<ellipse fill="#312a1d" fill-opacity="0.501961" cx="174" cy="137" rx="4" ry="4" />
<ellipse fill="#211b10" fill-opacity="0.501961" cx="160" cy="162" rx="3" ry="3" />
<ellipse fill="#a5a198" fill-opacity="0.501961" cx="170" cy="111" rx="6" ry="6" />
<ellipse fill="#211a0f" fill-opacity="0.501961" cx="209" cy="156" rx="4" ry="4" />
<ellipse fill="#000002" fill-opacity="0.501961" cx="179" cy="149" rx="2" ry="2" />
<ellipse fill="#18170f" fill-opacity="0.501961" cx="172" cy="154" rx="3" ry="3" />
<ellipse fill="#37342c" fill-opacity="0.501961" cx="182" cy="37" rx="2" ry="2" />
<ellipse fill="#a1815b" fill-opacity="0.501961" cx="202" cy="93" rx="4" ry="4" />
<ellipse fill="#926b3c" fill-opacity="0.501961" cx="197" cy="64" rx="3" ry="3" />
<ellipse fill="#c4cac5" fill-opacity="0.501961" cx="234" cy="120" rx="5" ry="5" />
<ellipse fill="#dfe0d9" fill-opacity="0.501961" cx="61" cy="169" rx="27" ry="27" />
<ellipse fill="#bbc4c4" fill-opacity="0.501961" cx="115" cy="25" rx="16" ry="16" />
<ellipse fill="#534229" fill-opacity="0.501961" cx="216" cy="110" rx="3" ry="3" />
<ellipse fill="#d5d6d5" fill-opacity="0.501961" cx="123" cy="139" rx="22" ry="22" />
<ellipse fill="#aa7f4c" fill-opacity="0.501961" cx="174" cy="64" rx="2" ry="2" />
<ellipse fill="#b1bfc0" fill-opacity="0.501961" cx="210" cy="49" rx="16" ry="16" />
<ellipse fill="#4f3b24" fill-opacity="0.501961" cx="230" cy="151" rx="5" ry="5" />
<ellipse fill="#e1e2da" fill-opacity="0.501961" cx="139" cy="77" rx="8" ry="8" />
<ellipse fill="#b3bdbe" fill-opacity="0.501961" cx="7" cy="46" rx="17" ry="17" />
<ellipse fill="#b5956a" fill-opacity="0.501961" cx="216" cy="101" rx="2" ry="2" />
<ellipse fill="#8e8982" fill-opacity="0.501961" cx="219" cy="127" rx="4" ry="4" />
<ellipse fill="#d6d8d7" fill-opacity="0.501961" cx="75" cy="125" rx="29" ry="29" />
<ellipse fill="#543618" fill-opacity="0.501961" cx="152" cy="101" rx="2" ry="2" />
<ellipse fill="#8aaab3" fill-opacity="0.501961" cx="227" cy="9" rx="15" ry="15" />
<ellipse fill="#9f8463" fill-opacity="0.501961" cx="190" cy="158" rx="9" ry="9" />
<ellipse fill="#dcdcd3" fill-opacity="0.501961" cx="104" cy="45" rx="9" ry="9" />
<ellipse fill="#1d211f" fill-opacity="0.501961" cx="188" cy="63" rx="2" ry="2" />
<ellipse fill="#201c14" fill-opacity="0.501961" cx="185" cy="86" rx="2" ry="2" />
<ellipse fill="#82644a" fill-opacity="0.501961" cx="181" cy="29" rx="2" ry="2" />
<ellipse fill="#b4c0c2" fill-opacity="0.501961" cx="165" cy="33" rx="16" ry="16" />
<ellipse fill="#8d704c" fill-opacity="0.501961" cx="202" cy="136" rx="2" ry="2" />
<ellipse fill="#d2d8d4" fill-opacity="0.501961" cx="141" cy="113" rx="5" ry="5" />
<ellipse fill="#b5b1a5" fill-opacity="0.501961" cx="167" cy="129" rx="2" ry="2" />
<ellipse fill="#64482a" fill-opacity="0.501961" cx="226" cy="156" rx="6" ry="6" />
<ellipse fill="#ead8b6" fill-opacity="0.501961" cx="168" cy="104" rx="1" ry="1" />
<ellipse fill="#735530" fill-opacity="0.501961" cx="222" cy="139" rx="4" ry="4" />
<ellipse fill="#c5a67a" fill-opacity="0.501961" cx="184" cy="57" rx="2" ry="2" />
<ellipse fill="#2a373b" fill-opacity="0.501961" cx="182" cy="38" rx="2" ry="2" />
<ellipse fill="#493f2f" fill-opacity="0.501961" cx="202" cy="84" rx="4" ry="4" />
<ellipse fill="#4e3716" fill-opacity="0.501961" cx="195" cy="109" rx="2" ry="2" />
<ellipse fill="#bbb3a6" fill-opacity="0.501961" cx="215" cy="116" rx="3" ry="3" />
<ellipse fill="#a77f51" fill-opacity="0.501961" cx="171" cy="67" rx="2" ry="2" />
<ellipse fill="#9a754c" fill-opacity="0.501961" cx="210" cy="144" rx="2" ry="2" />
<ellipse fill="#a28a6b" fill-opacity="0.501961" cx="184" cy="63" rx="2" ry="2" />
<ellipse fill="#c8a77b" fill-opacity="0.501961" cx="188" cy="83" rx="2" ry="2" />
<ellipse fill="#d6d8d1" fill-opacity="0.501961" cx="9" cy="148" rx="23" ry="23" />
<ellipse fill="#c7cfca" fill-opacity="0.501961" cx="26" cy="86" rx="22" ry="22" />
<ellipse fill="#c1bfb1" fill-opacity="0.501961" cx="168" cy="121" rx="3" ry="3" />
<ellipse fill="#a18460" fill-opacity="0.501961" cx="184" cy="120" rx="3" ry="3" />
<ellipse fill="#161109" fill-opacity="0.501961" cx="219" cy="161" rx="3" ry="3" />
<ellipse fill="#8a6641" fill-opacity="0.501961" cx="168" cy="152" rx="2" ry="2" />
<ellipse fill="#775d3f" fill-opacity="0.501961" cx="164" cy="146" rx="4" ry="4" />
<ellipse fill="#68655e" fill-opacity="0.501961" cx="171" cy="120" rx="2" ry="2" />
<ellipse fill="#c5d2cf" fill-opacity="0.501961" cx="226" cy="98" rx="3" ry="3" />
<ellipse fill="#452d15" fill-opacity="0.501961" cx="197" cy="141" rx="3" ry="3" />
<ellipse fill="#a1835c" fill-opacity="0.501961" cx="171" cy="92" rx="3" ry="3" />
<ellipse fill="#573b1b" fill-opacity="0.501961" cx="214" cy="95" rx="3" ry="3" />
<ellipse fill="#4d3215" fill-opacity="0.501961" cx="221" cy="99" rx="2" ry="2" />
<ellipse fill="#493e2b" fill-opacity="0.501961" cx="169" cy="102" rx="2" ry="2" />
<ellipse fill="#a6a195" fill-opacity="0.501961" cx="172" cy="117" rx="3" ry="3" />
<ellipse fill="#b88a51" fill-opacity="0.501961" cx="194" cy="83" rx="2" ry="2" />
<ellipse fill="#1a2223" fill-opacity="0.501961" cx="196" cy="74" rx="3" ry="3" />
<ellipse fill="#c4a173" fill-opacity="0.501961" cx="163" cy="98" rx="2" ry="2" />
<ellipse fill="#91724d" fill-opacity="0.501961" cx="199" cy="90" rx="5" ry="5" />
<ellipse fill="#010a0c" fill-opacity="0.501961" cx="188" cy="68" rx="2" ry="2" />
<ellipse fill="#a47f51" fill-opacity="0.501961" cx="194" cy="63" rx="2" ry="2" />
<ellipse fill="#705944" fill-opacity="0.501961" cx="144" cy="119" rx="2" ry="2" />
<ellipse fill="#abbbbe" fill-opacity="0.501961" cx="200" cy="32" rx="17" ry="17" />
<ellipse fill="#6f573b" fill-opacity="0.501961" cx="164" cy="169" rx="7" ry="7" />
<ellipse fill="#010606" fill-opacity="0.501961" cx="167" cy="157" rx="2" ry="2" />
<ellipse fill="#312f2b" fill-opacity="0.501961" cx="210" cy="118" rx="2" ry="2" />
<ellipse fill="#bdc6c4" fill-opacity="0.501961" cx="213" cy="77" rx="9" ry="9" />
<ellipse fill="#dbd7c4" fill-opacity="0.501961" cx="207" cy="115" rx="3" ry="3" />
<ellipse fill="#000205" fill-opacity="0.501961" cx="186" cy="138" rx="2" ry="2" />
<ellipse fill="#cac6b7" fill-opacity="0.501961" cx="168" cy="112" rx="3" ry="3" />
<ellipse fill="#c0c8c5" fill-opacity="0.501961" cx="75" cy="46" rx="14" ry="14" />
<ellipse fill="#403625" fill-opacity="0.501961" cx="147" cy="167" rx="2" ry="2" />
<ellipse fill="#1b1207" fill-opacity="0.501961" cx="191" cy="138" rx="2" ry="2" />
<ellipse fill="#5d4d30" fill-opacity="0.501961" cx="170" cy="131" rx="3" ry="3" />
<ellipse fill="#797873" fill-opacity="0.501961" cx="210" cy="128" rx="3" ry="3" />
<ellipse fill="#7d512a" fill-opacity="0.501961" cx="212" cy="151" rx="3" ry="3" />
<ellipse fill="#241a12" fill-opacity="0.501961" cx="213" cy="120" rx="1" ry="1" />
<ellipse fill="#a79a8a" fill-opacity="0.501961" cx="204" cy="122" rx="3" ry="3" />
<ellipse fill="#20180d" fill-opacity="0.501961" cx="225" cy="166" rx="3" ry="3" />
<ellipse fill="#63472a" fill-opacity="0.501961" cx="205" cy="160" rx="5" ry="5" />
<ellipse fill="#d3cdbc" fill-opacity="0.501961" cx="160" cy="120" rx="2" ry="2" />
<ellipse fill="#786e5b" fill-opacity="0.501961" cx="162" cy="135" rx="4" ry="4" />
<ellipse fill="#c9c2b5" fill-opacity="0.501961" cx="224" cy="101" rx="2" ry="2" />
<ellipse fill="#dcddcf" fill-opacity="0.501961" cx="166" cy="115" rx="2" ry="2" />
<ellipse fill="#141613" fill-opacity="0.501961" cx="167" cy="139" rx="2" ry="2" />
<ellipse fill="#2d302b" fill-opacity="0.501961" cx="225" cy="133" rx="3" ry="3" />
<ellipse fill="#56554a" fill-opacity="0.501961" cx="151" cy="135" rx="3" ry="3" />
<ellipse fill="#d8dcd7" fill-opacity="0.501961" cx="142" cy="122" rx="3" ry="3" />
<ellipse fill="#1b1c14" fill-opacity="0.501961" cx="226" cy="152" rx="2" ry="2" />
<ellipse fill="#43341b" fill-opacity="0.501961" cx="203" cy="100" rx="2" ry="2" />
<ellipse fill="#b69b78" fill-opacity="0.501961" cx="187" cy="148" rx="4" ry="4" />
<ellipse fill="#78522c" fill-opacity="0.501961" cx="222" cy="155" rx="4" ry="4" />
<ellipse fill="#826341" fill-opacity="0.501961" cx="171" cy="140" rx="3" ry="3" />
<ellipse fill="#29241b" fill-opacity="0.501961" cx="187" cy="123" rx="2" ry="2" />
</g>
</svg>