<svg height="680" width="1024" xmlns="http://www.w3.org/2000/svg"><path d="m0 0h1024v680h-1024z" fill="#eab8d6"/><g fill-opacity=".501961"><path d="m-.5-.5h1v1h-1z" fill="#d5f8f0" transform="matrix(-136.17982084 354.76056208 -328.62031012 -126.14551824 502 366)"/><path d="m-.5-.5h1v1h-1z" fill="#fa79bf" transform="matrix(136 235.55890984 -297.91273892 172 786 74)"/><path d="m-.5-.5h1v1h-1z" fill="#fa74ba" transform="matrix(206.92373548 -129.30030048 137.77900872 220.492505 254 674)"/><path d="m-.5-.5h1v1h-1z" fill="#eb77bc" transform="matrix(-91.5891944 57.23128052 -207.72835156 -332.43485368 830 558)"/><path d="m-.5-.5h1v1h-1z" fill="#f6d9e7" transform="matrix(267.92365624 -209.3249016 381.71011472 488.56666724 2 226)"/><path d="m-.5-.5h1v1h-1z" fill="#f87dc0" transform="matrix(-127.92202584 -4.46713556 6.84030136 -195.88060208 306 178)"/><path d="m-.5-.5h1v1h-1z" fill="#e61e93" transform="matrix(-35.67095164 32.11826912 -50.85392608 -56.47900672 694 678)"/><path d="m-.5-.5h1v1h-1z" fill="#e3e4e8" transform="matrix(-126.2322278 38.59306504 -87.7115114 -286.8914268 410 2)"/><path d="m-.5-.5h1v1h-1z" fill="#ed90c6" transform="matrix(-268.52727548 92.46135588 -59.90454044 -173.97541792 914 646)"/><path d="m-.5-.5h1v1h-1z" fill="#d9cee0" transform="matrix(-167.05827976 130.52023276 -86.19260656 -110.32150552 654 554)"/><path d="m-.5-.5h1v1h-1z" fill="#faa0d0" transform="matrix(-292.25013992 148.90888392 -152.54080792 -299.37819212 990 46)"/><path d="m-.5-.5h1v1h-1z" fill="#f78ec5" transform="matrix(-87.7624442 81.8398032 -73.65582288 -78.98619976 550 50)"/><path d="m-.5-.5h1v1h-1z" fill="#f990c7" transform="matrix(-6.2819094 179.89034888 -551.66373652 -19.26452216 2 666)"/><path d="m-.5-.5h1v1h-1z" fill="#ecc7df" transform="matrix(359.12305808 -25.11233056 9.76590632 139.65896704 766 314)"/><path d="m-.5-.5h1v1h-1z" fill="#dde7e9" transform="matrix(-267.30195724 136.19714992 -103.50983396 -203.14948752 450 422)"/><path d="m-.5-.5h1v1h-1z" fill="#f869b7" transform="matrix(-20.5720152 12.3609138 -92.70685348 -154.29011412 310 10)"/><path d="m-.5-.5h1v1h-1z" fill="#dae6e8" transform="matrix(116.62559152 -91.11789836 71.41673112 91.4092474 566 214)"/><path d="m-.5-.5h1v1h-1z" fill="#f4c4df" transform="matrix(306.34801848 105.48408204 -59.90454044 173.97541792 966 430)"/><path d="m-.5-.5h1v1h-1z" fill="#e85fb1" transform="matrix(3.83485268 -43.83256672 79.69557584 6.9724594 722 178)"/><path d="m-.5-.5h1v1h-1z" fill="#f5a8d2" transform="matrix(48.45065992 114.14260184 -95.73250476 40.63603736 214 434)"/><path d="m-.5-.5h1v1h-1z" fill="#fb87c3" transform="matrix(14.334718 37.34321704 -85.88939924 32.96985136 210 218)"/><path d="m-.5-.5h1v1h-1z" fill="#eeafd1" transform="matrix(-55.78690308 -4.8807216 8.36695132 -95.634691 446 166)"/><path d="m-.5-.5h1v1h-1z" fill="#e8c2da" transform="matrix(-133.50129696 -25.95002336 22.89707944 -117.795262 302 294)"/><path d="m-.5-.5h1v1h-1z" fill="#e0c6dc" transform="matrix(-331.28582204 -76.48335848 23.39490964 -101.33448672 482 586)"/><path d="m-.5-.5h1v1h-1z" fill="#f1e2ea" transform="matrix(-128.30493948 65.37463196 -98.06194796 -192.45740924 2 234)"/><path d="m-.5-.5h1v1h-1z" fill="#f478bb" transform="matrix(48.9787036 -27.14933872 65.93410836 118.94828016 1002 678)"/><path d="m-.5-.5h1v1h-1z" fill="#e1e4e8" transform="matrix(-66.68720356 -69.05662084 25.8962328 -25.00770132 214 58)"/><path d="m-.5-.5h1v1h-1z" fill="#f69ccc" transform="matrix(-42.8243588 47.56126884 -89.17737904 -80.29567276 126 62)"/><path d="m-.5-.5h1v1h-1z" fill="#e68dc3" transform="matrix(180.78648856 151.69787588 -17.99805308 21.4492444 782 614)"/><path d="m-.5-.5h1v1h-1z" fill="#f47cc1" transform="matrix(111.72717364 -7.81272504 3.90636252 55.8635868 862 158)"/><path d="m-.5-.5h1v1h-1z" fill="#eb7abd" transform="matrix(86.38276756 162.46235708 -35.31790372 18.77886252 782 510)"/><path d="m-.5-.5h1v1h-1z" fill="#f062af" transform="matrix(44.1286022 34.4770426 -41.86498032 53.58473124 266 678)"/><path d="m-.5-.5h1v1h-1z" fill="#e5d0e1" transform="matrix(139.9147158 -4.88592952 1.67517584 47.97075968 1022 582)"/><path d="m-.5-.5h1v1h-1z" fill="#eec1dd" transform="matrix(-17.56078184 167.07967844 -222.77290456 -23.41437576 70 490)"/><path d="m-.5-.5h1v1h-1z" fill="#ffa4d2" transform="matrix(81.26731476 -104.01741948 50.43268824 39.40233444 1014 306)"/><path d="m-.5-.5h1v1h-1z" fill="#f1a6d0" transform="matrix(11.69745484 50.66724336 -187.07905244 43.19060244 866 398)"/><path d="m-.5-.5h1v1h-1z" fill="#f79dcc" transform="matrix(59.853843 4.18538844 -22.04304572 315.23023988 278 42)"/><path d="m-.5-.5h1v1h-1z" fill="#e6a1cf" transform="matrix(-9.35589456 30.6017522 -68.85394244 -21.05076276 646 350)"/><path d="m-.5-.5h1v1h-1z" fill="#dea8cc" transform="matrix(209.3899282 33.1641066 -13.14049508 82.9658206 550 678)"/><path d="m-.5-.5h1v1h-1z" fill="#d8e0e6" transform="matrix(-105.06776728 -174.86212936 27.42935364 -16.4812184 666 458)"/><path d="m-.5-.5h1v1h-1z" fill="#e5e3e8" transform="matrix(44.18423296 18.75509416 -25.00679224 58.91231064 198 170)"/><path d="m-.5-.5h1v1h-1z" fill="#f384c2" transform="matrix(-74.07090876 114.05919724 -53.67491636 -34.85689824 322 174)"/><path d="m-.5-.5h1v1h-1z" fill="#da72b6" transform="matrix(-4.38016504 -27.65527352 67.16280716 -10.63754364 698 422)"/><path d="m-.5-.5h1v1h-1z" fill="#f4a5d0" transform="matrix(100.70757204 -97.25217188 225.06931204 233.06609532 962 82)"/><path d="m-.5-.5h1v1h-1z" fill="#dad5e3" transform="matrix(-111.40467804 -78.00639536 16.0601402 -22.93625724 714 626)"/><path d="m-.5-.5h1v1h-1z" fill="#f27dbd" transform="matrix(24.36902056 63.483469 -74.68643412 28.66943596 694 86)"/><path d="m-.5-.5h1v1h-1z" fill="#ebc9df" transform="matrix(23.66662264 -50.75323608 43.50277376 20.28567656 962 130)"/><path d="m-.5-.5h1v1h-1z" fill="#dfd9e4" transform="matrix(18.80912808 -25.8885438 61.48529156 44.67167916 846 470)"/><path d="m-.5-.5h1v1h-1z" fill="#dfb9d6" transform="matrix(14.2561044 -7.263848 108.95771992 213.8415658 674 222)"/><path d="m-.5-.5h1v1h-1z" fill="#daf0ed" transform="matrix(51.5482718 -21.8809432 20.31801868 47.86625236 402 74)"/><path d="m-.5-.5h1v1h-1z" fill="#e2a4ce" transform="matrix(-3.76302468 -35.80278824 83.5398392 -8.78039092 658 538)"/><path d="m-.5-.5h1v1h-1z" fill="#e0dce6" transform="matrix(-42.76831316 21.791544 -27.23943 -53.46039144 426 618)"/><path d="m-.5-.5h1v1h-1z" fill="#f8c7e0" transform="matrix(-97.09673628 111.69701788 -39.24489816 -34.11506952 950 278)"/><path d="m-.5-.5h1v1h-1z" fill="#f3b0d3" transform="matrix(5.8595438 -83.79538024 59.853843 4.18538844 138 130)"/><path d="m-.5-.5h1v1h-1z" fill="#dce0e6" transform="matrix(-21.19677056 33.92192384 -71.23604008 -44.5132182 634 618)"/><path d="m-.5-.5h1v1h-1z" fill="#dad7e4" transform="matrix(-157.67006676 102.3921386 -21.7855614 -33.54682272 642 306)"/><path d="m-.5-.5h1v1h-1z" fill="#e4e2e8" transform="matrix(155.61999184 -10.88200992 1.39512948 19.951281 22 42)"/><path d="m-.5-.5h1v1h-1z" fill="#f0cde1" transform="matrix(40.93203868 133.88266584 -149.18354192 45.60998592 1022 426)"/><path d="m-.5-.5h1v1h-1z" fill="#ed97ca" transform="matrix(12.59725904 -54.56472364 66.2571644 15.29667168 346 250)"/><path d="m-.5-.5h1v1h-1z" fill="#f7a4d1" transform="matrix(-124.7409134 -63.55866996 14.527696 -28.51220876 906 234)"/><path d="m-.5-.5h1v1h-1z" fill="#eca7d0" transform="matrix(71.34190324 -64.2365382 21.4121794 23.7806344 442 2)"/><path d="m-.5-.5h1v1h-1z" fill="#dde3e7" transform="matrix(-26.09432232 113.02692752 -27.2823618 -6.29862952 390 162)"/><path d="m-.5-.5h1v1h-1z" fill="#e6d3e1" transform="matrix(-46.8877354 110.4605824 -69.95836888 -29.69556576 210 10)"/><path d="m-.5-.5h1v1h-1z" fill="#eab5d5" transform="matrix(12.96152944 123.32071504 -31.82470064 3.34491084 442 534)"/><path d="m-.5-.5h1v1h-1z" fill="#daeeeb" transform="matrix(70.63580744 -37.55772504 3.75577252 7.06358076 254 502)"/><path d="m-.5-.5h1v1h-1z" fill="#ebcddf" transform="matrix(29.66988336 11.987411 -44.9527912 111.26206256 494 114)"/><path d="m-.5-.5h1v1h-1z" fill="#dfe8ea" transform="matrix(-6.9724594 79.69557584 -187.28460324 -16.38527964 366 406)"/><path d="m-.5-.5h1v1h-1z" fill="#f596cb" transform="matrix(26.56971672 62.59433004 -187.78299012 79.7091502 986 58)"/><path d="m-.5-.5h1v1h-1z" fill="#ded6e2" transform="matrix(58.2144738 109.48550152 -10.59537112 5.63365876 746 526)"/><path d="m-.5-.5h1v1h-1z" fill="#f470ba" transform="matrix(18.38506664 15.42690264 -28.28265484 33.70595548 314 18)"/><path d="m-.5-.5h1v1h-1z" fill="#e8a4cb" transform="matrix(-40.1478364 44.58868952 -92.14995836 -82.9721952 334 618)"/><path d="m-.5-.5h1v1h-1z" fill="#e0b5d2" transform="matrix(-128.87067948 54.702358 -6.25169804 -14.72807764 674 146)"/><path d="m-.5-.5h1v1h-1z" fill="#f78fc6" transform="matrix(-3.631924 7.1280522 -138.99701776 -70.82251796 194 82)"/><path d="m-.5-.5h1v1h-1z" fill="#f1b2d6" transform="matrix(115.76397288 44.43762576 -14.334718 37.34321704 74 494)"/><path d="m-.5-.5h1v1h-1z" fill="#f1d5e2" transform="matrix(-52.359439 94.45892836 -69.96957656 -38.7847696 234 310)"/><path d="m-.5-.5h1v1h-1z" fill="#e7abd1" transform="matrix(-6.88311648 -43.458287 39.50753364 -6.2573786 350 522)"/><path d="m-.5-.5h1v1h-1z" fill="#f1c8df" transform="matrix(-98.46424436 -231.96722308 33.13817472 -14.06632064 2 514)"/><path d="m-.5-.5h1v1h-1z" fill="#ebcde0" transform="matrix(-140.41991072 130.94368512 -10.91197376 -11.70165924 942 498)"/><path d="m-.5-.5h1v1h-1z" fill="#e150ae" transform="matrix(-23.9415372 1.67415536 -1.39512948 -19.951281 714 230)"/><path d="m-.5-.5h1v1h-1z" fill="#ddd3e1" transform="matrix(-154.59257596 75.39983724 -42.08363008 -86.28422844 610 490)"/><path d="m-.5-.5h1v1h-1z" fill="#f2bad7" transform="matrix(31.02781568 -55.97566124 59.47414008 32.96705416 306 82)"/><path d="m-.5-.5h1v1h-1z" fill="#f199c9" transform="matrix(73.13537016 -68.199836 152.76763264 163.82322916 562 2)"/><path d="m-.5-.5h1v1h-1z" fill="#dec2da" transform="matrix(-38.9748026 8.99804216 -25.19451808 -109.12944724 598 314)"/><path d="m-.5-.5h1v1h-1z" fill="#e763b2" transform="matrix(33.92192384 -21.19677056 46.63289524 74.62823248 686 678)"/><path d="m-.5-.5h1v1h-1z" fill="#f08ac6" transform="matrix(25.55633632 19.25808076 -81.84684316 108.61442936 850 550)"/><path d="m-.5-.5h1v1h-1z" fill="#f496c9" transform="matrix(58.88972744 34 -98 169.74097916 90 678)"/><path d="m-.5-.5h1v1h-1z" fill="#eca6cf" transform="matrix(-47.8830744 3.34831072 -2.51123304 -35.9123058 338 334)"/><path d="m-.5-.5h1v1h-1z" fill="#ee7ebe" transform="matrix(-2.4403608 -27.89345156 135.48247896 -11.853181 298 202)"/><path d="m-.5-.5h1v1h-1z" fill="#f192c9" transform="matrix(-2.783462 19.80536136 -27.72750592 -3.89684684 470 270)"/><path d="m-.5-.5h1v1h-1z" fill="#dae7e8" transform="matrix(15.29667168 66.2571644 -85.74456572 19.7956928 422 242)"/><path d="m-.5-.5h1v1h-1z" fill="#ed92c5" transform="matrix(-19.79898988 -19.79898988 16.97056276 -16.97056276 66 58)"/><path d="m-.5-.5h1v1h-1z" fill="#f1a4ce" transform="matrix(12.77816816 9.62904036 -48.14520184 63.8908408 438 178)"/><path d="m-.5-.5h1v1h-1z" fill="#fe59af" transform="matrix(-10.30076148 -17.143346 3.4286692 -2.06015228 486 558)"/><path d="m-.5-.5h1v1h-1z" fill="#e490c6" transform="matrix(14.12716148 -7.511545 26.29040752 49.4450652 706 454)"/><path d="m-.5-.5h1v1h-1z" fill="#e384bc" transform="matrix(6.18033988 -19.02113032 41.84648672 13.59674776 550 678)"/><path d="m-.5-.5h1v1h-1z" fill="#f7aad0" transform="matrix(-40.57135312 87.00554756 -47.12800492 -21.9761496 810 114)"/><path d="m-.5-.5h1v1h-1z" fill="#eca7d0" transform="matrix(-207.68918344 83.91187692 -19.47954284 -48.21356044 946 558)"/><path d="m-.5-.5h1v1h-1z" fill="#f690c6" transform="matrix(-4.3004154 -11.20296512 97.09236436 -37.27026676 818 398)"/><path d="m-.5-.5h1v1h-1z" fill="#f2aad1" transform="matrix(113.92397276 117.97172724 -14.386796 13.8931674 226 550)"/><path d="m-.5-.5h1v1h-1z" fill="#f3b6d7" transform="matrix(38.95908572 96.42712088 -70.46597296 28.47010108 826 254)"/><path d="m-.5-.5h1v1h-1z" fill="#e5bdda" transform="matrix(-56.56854248 56.56854248 -82.0243866 -82.0243866 734 346)"/><path d="m-.5-.5h1v1h-1z" fill="#f695c9" transform="matrix(-12.57993856 -50.45537776 11.64354872 -2.90306276 194 6)"/><path d="m-.5-.5h1v1h-1z" fill="#eb89c2" transform="matrix(-152.05815216 -61.43548132 14.98426372 -37.0873542 818 626)"/><path d="m-.5-.5h1v1h-1z" fill="#dfdee5" transform="matrix(10.4889846 -25.96114792 148.34941672 59.93705496 418 54)"/><path d="m-.5-.5h1v1h-1z" fill="#f78ec5" transform="matrix(-70.71067812 -70.71067812 84.85281376 -84.85281376 746 38)"/><path d="m-.5-.5h1v1h-1z" fill="#e976bd" transform="matrix(-38.63703304 10.3527618 -4.14110472 -15.45481324 322 258)"/><path d="m-.5-.5h1v1h-1z" fill="#ee7ebe" transform="matrix(-10.70608972 11.8903172 -74.31448256 -66.91306064 866 566)"/><path d="m-.5-.5h1v1h-1z" fill="#f78ec9" transform="matrix(-42.26373648 -36.73930564 20.99388892 -24.15070656 942 170)"/><path d="m-.5-.5h1v1h-1z" fill="#f487c0" transform="matrix(-13.02272616 -37.82074304 18.91037152 -6.51136308 530 134)"/><path d="m-.5-.5h1v1h-1z" fill="#f47fc0" transform="matrix(-2.47213596 7.60845212 -159.77749472 -51.91485504 794 166)"/><path d="m-.5-.5h1v1h-1z" fill="#e19cc5" transform="matrix(22.55262288 -8.20848344 13.68080572 37.58770484 722 666)"/><path d="m-.5-.5h1v1h-1z" fill="#dfdee5" transform="matrix(-67.882251 67.882251 -16.97056276 -16.97056276 526 578)"/><path d="m-.5-.5h1v1h-1z" fill="#e3d8e5" transform="matrix(-159.12350324 16.72455412 -2.09056928 -19.89043792 746 262)"/><path d="m-.5-.5h1v1h-1z" fill="#e4e2e7" transform="matrix(-93.90216968 -19.95952232 4.1582338 -19.562952 62 126)"/><path d="m-.5-.5h1v1h-1z" fill="#e347a8" transform="matrix(30.64177772 -25.7115044 7.71345132 9.19253332 710 182)"/><path d="m-.5-.5h1v1h-1z" fill="#f9c5db" transform="matrix(-32 55.42562584 -173.20508076 -100 138 238)"/><path d="m-.5-.5h1v1h-1z" fill="#e2f2f0" transform="matrix(1.66329352 7.8251808 -74.33921764 15.80128852 158 178)"/><path d="m-.5-.5h1v1h-1z" fill="#e492c4" transform="matrix(39.69177924 138.4216842 -30.76037428 8.8203954 678 174)"/><path d="m-.5-.5h1v1h-1z" fill="#dfcee0" transform="matrix(-45.38489164 15.6272714 -24.74317972 -71.85941176 718 602)"/><path d="m-.5-.5h1v1h-1z" fill="#f3d0e2" transform="matrix(223.6179428 -168.50820648 60.18150232 79.863551 42 366)"/><path d="m-.5-.5h1v1h-1z" fill="#f293c8" transform="matrix(-12.9012462 -33.60889536 104.56100776 -40.13721036 258 538)"/><path d="m-.5-.5h1v1h-1z" fill="#e0c7dc" transform="matrix(35.59674776 25.86255112 -75.23651228 103.55417528 574 598)"/><path d="m-.5-.5h1v1h-1z" fill="#f3c6dc" transform="matrix(-8.09175096 115.71742984 -103.74666124 -7.25467328 866 322)"/><path d="m-.5-.5h1v1h-1z" fill="#dee0e6" transform="matrix(-36.22605984 -31.4908334 81.3513196 -93.58398796 418 490)"/><path d="m-.5-.5h1v1h-1z" fill="#e9a7d0" transform="matrix(16.36796064 -17.55248884 90.687859 84.56779664 342 258)"/><path d="m-.5-.5h1v1h-1z" fill="#f7c1d9" transform="matrix(3.06928484 -43.8928182 63.8440992 4.46441432 438 110)"/><path d="m-.5-.5h1v1h-1z" fill="#e5a7cc" transform="matrix(17.89417292 26.52920232 -36.4776532 24.60448776 542 602)"/><path d="m-.5-.5h1v1h-1z" fill="#f596ca" transform="matrix(97.9574072 54.29867748 -13.57466936 24.4893518 142 62)"/><path d="m-.5-.5h1v1h-1z" fill="#eca9d4" transform="matrix(-22.22696676 126.0553924 -19.69615508 -3.47296356 910 462)"/><path d="m-.5-.5h1v1h-1z" fill="#dce6e8" transform="matrix(-57.73319456 66.41444304 -166.03610764 -144.33298636 486 358)"/><path d="m-.5-.5h1v1h-1z" fill="#e3c4d9" transform="matrix(-1.69047304 -3.62523116 246.51571808 -114.9521672 530 158)"/><path d="m-.5-.5h1v1h-1z" fill="#e6d7e2" transform="matrix(-49.02684436 -41.138407 7.71345132 -9.19253332 306 58)"/><path d="m-.5-.5h1v1h-1z" fill="#f7bcd9" transform="matrix(132.5143288 30.5933434 -8.99804216 38.9748026 134 378)"/><path d="m-.5-.5h1v1h-1z" fill="#dedae3" transform="matrix(5.35304484 -5.9451586 35.67095164 32.11826912 290 238)"/><path d="m-.5-.5h1v1h-1z" fill="#e5b2d5" transform="matrix(13.85640648 -8 68 117.77945492 658 570)"/><path d="m-.5-.5h1v1h-1z" fill="#dcd1e1" transform="matrix(63.30190244 -61.1299366 13.8931674 14.386796 710 378)"/><path d="m-.5-.5h1v1h-1z" fill="#db62ae" transform="matrix(-11.9835544 .62803148 -1.6747506 -31.95614512 710 410)"/><path d="m-.5-.5h1v1h-1z" fill="#f0aed3" transform="matrix(-89.62372096 -34.40332316 20.06860516 -52.28050388 246 450)"/><path d="m-.5-.5h1v1h-1z" fill="#f59ecf" transform="matrix(-52.62278676 19.15312804 -76.61251212 -210.49114704 1014 146)"/><path d="m-.5-.5h1v1h-1z" fill="#ef9ecd" transform="matrix(-50.43268824 -39.40233444 7.38793772 -9.45612904 438 574)"/><path d="m-.5-.5h1v1h-1z" fill="#e7e4e9" transform="matrix(-4.8807216 -55.78690308 67.74123948 -5.92659052 2 50)"/><path d="m-.5-.5h1v1h-1z" fill="#ebc9e0" transform="matrix(-31.82470064 -3.34491084 16.30644028 -155.14541568 154 518)"/><path d="m-.5-.5h1v1h-1z" fill="#e5a3ce" transform="matrix(-73.7424752 18.38606408 -2.90306276 -11.64354872 730 302)"/><path d="m-.5-.5h1v1h-1z" fill="#eb8fc3" transform="matrix(-5.07141916 -10.87569344 94.25600984 -43.95229924 426 670)"/><path d="m-.5-.5h1v1h-1z" fill="#f093c6" transform="matrix(1.4334718 -3.73432172 63.483469 24.36902056 810 446)"/><path d="m-.5-.5h1v1h-1z" fill="#e9bbd7" transform="matrix(-63.99025248 1.116954 -.4886674 -27.99573548 74 18)"/><path d="m-.5-.5h1v1h-1z" fill="#ebe8ec" transform="matrix(-128.59052628 -44.277269 11.72045356 -34.03866872 6 242)"/><path d="m-.5-.5h1v1h-1z" fill="#ee94c9" transform="matrix(7.9441632 -75.58366404 47.73705096 5.01736624 778 506)"/><path d="m-.5-.5h1v1h-1z" fill="#debfdc" transform="matrix(-31.04946324 7.74150064 -12.57993856 -50.45537776 630 470)"/><path d="m-.5-.5h1v1h-1z" fill="#e4add3" transform="matrix(-20.80805512 18.73565696 -61.5600158 -68.36932396 750 626)"/><path d="m-.5-.5h1v1h-1z" fill="#e7b0d3" transform="matrix(-1.36808056 3.75877048 -191.69729464 -69.77210924 930 618)"/><path d="m-.5-.5h1v1h-1z" fill="#f592c8" transform="matrix(-2.77837084 15.75692404 -66.9669272 -11.80807608 262 66)"/><path d="m-.5-.5h1v1h-1z" fill="#f570bc" transform="matrix(-3.78207432 1.3022726 -26.04545236 -75.64148604 266 166)"/><path d="m-.5-.5h1v1h-1z" fill="#ee9ecc" transform="matrix(93.6132738 -87.29579008 2.72799344 2.9254148 826 262)"/><path d="m-.5-.5h1v1h-1z" fill="#f7add2" transform="matrix(-82.73279984 69.42106184 -77.13451316 -91.92533316 870 2)"/><path d="m-.5-.5h1v1h-1z" fill="#f3b7d6" transform="matrix(-101.48680304 36.93817548 -12.31272516 -33.82893436 134 146)"/><path d="m-.5-.5h1v1h-1z" fill="#ded4e2" transform="matrix(-93.90216968 -19.95952232 10.81140792 -50.86367524 694 498)"/><path d="m-.5-.5h1v1h-1z" fill="#f790c8" transform="matrix(34.5283104 -33.3436018 66.68720356 69.05662084 334 142)"/><path d="m-.5-.5h1v1h-1z" fill="#fa8cc5" transform="matrix(-11.95433636 -1.04586892 2.78898376 -31.87823032 178 254)"/><path d="m-.5-.5h1v1h-1z" fill="#e2f1ec" transform="matrix(-6.21165708 -23.18221984 3.86370332 -1.0352762 1022 150)"/><path d="m-.5-.5h1v1h-1z" fill="#f3a0cd" transform="matrix(39.95116396 78.40857412 -21.3841566 10.895772 98 606)"/><path d="m-.5-.5h1v1h-1z" fill="#e990c4" transform="matrix(2.51728156 3.10858384 -24.86867076 20.13825252 570 294)"/><path d="m-.5-.5h1v1h-1z" fill="#decfdf" transform="matrix(.763236 -3.92650872 129.5747882 25.1867874 458 678)"/><path d="m-.5-.5h1v1h-1z" fill="#e1dfe6" transform="matrix(-32.53893144 -73.0836366 21.925091 -9.76167944 226 58)"/><path d="m-.5-.5h1v1h-1z" fill="#f1c4de" transform="matrix(39.26508732 7.6323598 -21.37060748 109.94224456 890 246)"/><path d="m-.5-.5h1v1h-1z" fill="#e5b6d3" transform="matrix(-2.69941264 11.69244076 -89.64204596 -20.695497 630 150)"/><path d="m-.5-.5h1v1h-1z" fill="#e0d8e4" transform="matrix(98.8901304 52.58081504 -7.511545 14.12716148 370 570)"/><path d="m-.5-.5h1v1h-1z" fill="#e6bfd8" transform="matrix(-7.05342304 -9.70820392 22.65247584 -16.45798708 826 534)"/><path d="m-.5-.5h1v1h-1z" fill="#eb67b5" transform="matrix(25.21634412 19.7011672 -19.7011672 25.21634412 754 466)"/><path d="m-.5-.5h1v1h-1z" fill="#f58dc3" transform="matrix(133.88266584 -40.93203868 8.18640772 26.77653316 286 634)"/><path d="m-.5-.5h1v1h-1z" fill="#eb35a6" transform="matrix(-7.75695392 -13.99391532 3.49847884 -1.93923848 674 206)"/><path d="m-.5-.5h1v1h-1z" fill="#ef63b4" transform="matrix(67.71649584 -34.503278 1.815962 3.56402608 834 546)"/><path d="m-.5-.5h1v1h-1z" fill="#f0bdd9" transform="matrix(105.89808048 36.46363328 -11.72045356 34.03866872 198 118)"/><path d="m-.5-.5h1v1h-1z" fill="#ebaed3" transform="matrix(-3.6820194 -1.56292452 23.44386772 -55.2302912 594 258)"/><path d="m-.5-.5h1v1h-1z" fill="#d9eceb" transform="matrix(-12.94427192 -9.40456404 32.91597412 -45.30495168 454 42)"/><path d="m-.5-.5h1v1h-1z" fill="#e2d5e1" transform="matrix(6.55321636 4.58861148 -94.06653556 134.34093528 302 342)"/><path d="m-.5-.5h1v1h-1z" fill="#e4a9d1" transform="matrix(4.35711228 -6.70936456 90.57642132 58.8210158 646 362)"/><path d="m-.5-.5h1v1h-1z" fill="#e1dae4" transform="matrix(107.93420932 3.76914564 -3.35035168 95.9415194 502 502)"/><path d="m-.5-.5h1v1h-1z" fill="#f99aca" transform="matrix(39.20428708 -19.975582 12.711734 24.94818268 970 342)"/><path d="m-.5-.5h1v1h-1z" fill="#e0bfd7" transform="matrix(83.18251776 11.69054048 -2.2267696 15.84428908 390 650)"/><path d="m-.5-.5h1v1h-1z" fill="#f08ec5" transform="matrix(-12.9012462 -33.60889536 104.56100776 -40.13721036 998 622)"/><path d="m-.5-.5h1v1h-1z" fill="#f58ac5" transform="matrix(3.90874364 -111.93177264 15.99025324 .55839196 758 194)"/><path d="m-.5-.5h1v1h-1z" fill="#ddd5e2" transform="matrix(2.82842712 2.82842712 -53.74011536 53.74011536 678 626)"/><path d="m-.5-.5h1v1h-1z" fill="#dcdae3" transform="matrix(-22.94305744 32.76608176 -26.2128654 -18.35444596 710 626)"/><path d="m-.5-.5h1v1h-1z" fill="#f5b7d7" transform="matrix(-14.93728684 5.7338872 -24.36902056 -63.483469 282 154)"/><path d="m-.5-.5h1v1h-1z" fill="#f388c1" transform="matrix(-8 13.85640648 -3.4641016 -2 510 462)"/><path d="m-.5-.5h1v1h-1z" fill="#f062b3" transform="matrix(-6.77381308 27.16828032 -3.88118292 -.9676876 654 134)"/><path d="m-.5-.5h1v1h-1z" fill="#f58fc4" transform="matrix(-.83758792 23.98537984 -207.873292 -7.25909532 2 674)"/><path d="m-.5-.5h1v1h-1z" fill="#e9d5e3" transform="matrix(20.1415144 19.45043436 -58.35130312 60.42454324 42 542)"/><path d="m-.5-.5h1v1h-1z" fill="#efd2e4" transform="matrix(-31.76147684 -3.899819 7.79963796 -63.52295372 990 262)"/><path d="m-.5-.5h1v1h-1z" fill="#f29dcd" transform="matrix(5.34265188 -27.48556112 70.6771572 13.73824768 222 226)"/><path d="m-.5-.5h1v1h-1z" fill="#e5a9cf" transform="matrix(14.527696 -28.51220876 46.33233924 23.607506 786 578)"/><path d="m-.5-.5h1v1h-1z" fill="#f2aed3" transform="matrix(-170.71793808 -20.96152708 5.84972848 -47.64221528 2 602)"/><path d="m-.5-.5h1v1h-1z" fill="#dbe2e5" transform="matrix(100.91075552 25.15987716 -10.6445634 42.69301196 586 198)"/><path d="m-.5-.5h1v1h-1z" fill="#ebc4da" transform="matrix(86.91657396 13.76623292 -8.76033004 55.31054708 78 94)"/><path d="m-.5-.5h1v1h-1z" fill="#ef89c1" transform="matrix(47.33324532 -101.50647216 10.87569344 5.07141916 370 678)"/><path d="m-.5-.5h1v1h-1z" fill="#f666b4" transform="matrix(19.562952 4.1582338 -1.66329352 7.8251808 590 642)"/><path d="m-.5-.5h1v1h-1z" fill="#dfd7e2" transform="matrix(-7.06358076 -3.75577252 116.42894756 -218.97100304 442 222)"/><path d="m-.5-.5h1v1h-1z" fill="#ded9e3" transform="matrix(-221.52077764 -273.55537844 3.10858384 -2.51728156 582 594)"/><path d="m-.5-.5h1v1h-1z" fill="#f28dc4" transform="matrix(77.13451316 -91.92533316 21.4492444 17.99805308 550 2)"/><path d="m-.5-.5h1v1h-1z" fill="#ed99cb" transform="matrix(.34904812 19.99695392 -15.99756312 .27923852 594 578)"/><path d="m-.5-.5h1v1h-1z" fill="#e558aa" transform="matrix(-31.76147684 -3.899819 .48747736 -3.9701846 650 654)"/><path d="m-.5-.5h1v1h-1z" fill="#f4bad8" transform="matrix(-192.41633556 -106.65811644 9.6961924 -17.49239416 906 366)"/><path d="m-.5-.5h1v1h-1z" fill="#e3d7e5" transform="matrix(-53.74011536 53.74011536 -14.14213564 -14.14213564 874 462)"/><path d="m-.5-.5h1v1h-1z" fill="#e37fb9" transform="matrix(5.45598688 -5.8508296 11.70165924 10.91197376 682 526)"/><path d="m-.5-.5h1v1h-1z" fill="#e5b3d2" transform="matrix(20.7055236 77.27406612 -3.86370332 1.0352762 534 558)"/><path d="m-.5-.5h1v1h-1z" fill="#dbd4df" transform="matrix(-16.7911916 86.38319216 -7.85301748 -1.52647196 490 678)"/><path d="m-.5-.5h1v1h-1z" fill="#e9a4cd" transform="matrix(26.32873324 24.55194096 -30.00792784 32.17956288 718 130)"/><path d="m-.5-.5h1v1h-1z" fill="#e9b4d5" transform="matrix(-92.64171916 69.81054268 -19.25808076 -25.55633632 946 578)"/><path d="m-.5-.5h1v1h-1z" fill="#e89bc7" transform="matrix(2 -3.4641016 65.81793068 38 490 626)"/><path d="m-.5-.5h1v1h-1z" fill="#e6eeec" transform="matrix(14.83494168 -5.99370548 4.49527912 11.12620624 962 154)"/><path d="m-.5-.5h1v1h-1z" fill="#f590c7" transform="matrix(106.35923732 -18.7540032 2.08377812 11.81769304 286 18)"/><path d="m-.5-.5h1v1h-1z" fill="#e6cbdb" transform="matrix(16.96096192 10.59838528 -6.35903116 10.17657716 166 678)"/><path d="m-.5-.5h1v1h-1z" fill="#dfd9e2" transform="matrix(-3.10858384 -2.51728156 47.82834972 -59.06309308 898 542)"/><path d="m-.5-.5h1v1h-1z" fill="#dac3da" transform="matrix(33.92192384 -21.19677056 25.43612468 40.7063086 758 678)"/><path d="m-.5-.5h1v1h-1z" fill="#e3d7e2" transform="matrix(-9.19253332 7.71345132 -33.42495572 -39.83431104 154 38)"/><path d="m-.5-.5h1v1h-1z" fill="#dbe5e9" transform="matrix(2.09056928 19.89043792 -75.58366404 7.9441632 586 314)"/><path d="m-.5-.5h1v1h-1z" fill="#dedce5" transform="matrix(-16.18033988 -11.75570504 70.53423028 -97.08203932 674 290)"/><path d="m-.5-.5h1v1h-1z" fill="#e891c1" transform="matrix(-.27919596 -7.9951266 119.92689924 -4.1879396 558 678)"/><path d="m-.5-.5h1v1h-1z" fill="#e2d4e1" transform="matrix(-6.50778628 -14.61672732 40.19600012 -17.89641228 990 590)"/><path d="m-.5-.5h1v1h-1z" fill="#f283c1" transform="matrix(50.55246196 -67.08538284 3.19454204 2.40726008 314 38)"/><path d="m-.5-.5h1v1h-1z" fill="#e4bfd9" transform="matrix(3.25389316 7.30836368 -51.15854564 22.777252 430 482)"/><path d="m-.5-.5h1v1h-1z" fill="#e2dde5" transform="matrix(-7.38793772 9.45612904 -66.19290332 -51.71556392 290 346)"/><path d="m-.5-.5h1v1h-1z" fill="#f4a7d0" transform="matrix(-93.5395262 21.5953012 -3.59921688 -15.58992104 230 554)"/><path d="m-.5-.5h1v1h-1z" fill="#e76bb2" transform="matrix(2.46264592 3.152043 -6.30408604 4.9252918 630 310)"/><path d="m-.5-.5h1v1h-1z" fill="#ed52ad" transform="matrix(1.56292452 -3.6820194 14.72807764 6.25169804 590 74)"/><path d="m-.5-.5h1v1h-1z" fill="#e56bb5" transform="matrix(-3.65418184 1.62694656 -29.28503832 -65.77527296 734 458)"/><path d="m-.5-.5h1v1h-1z" fill="#ecd2e4" transform="matrix(-44.72358856 -33.70164128 38.51616148 -51.11267264 1022 474)"/><path d="m-.5-.5h1v1h-1z" fill="#dae1e6" transform="matrix(57.6842644 -96.00273768 41.14403044 24.7218276 610 422)"/><path d="m-.5-.5h1v1h-1z" fill="#eda6cd" transform="matrix(.62573788 -3.95075336 63.2120538 10.01180576 502 558)"/><path d="m-.5-.5h1v1h-1z" fill="#ded6e4" transform="matrix(-3.35468228 2.17855616 -87.1422456 -134.18729088 674 566)"/><path d="m-.5-.5h1v1h-1z" fill="#e6c4d9" transform="matrix(-36.22605984 31.4908334 -44.61201396 -51.32025144 582 146)"/><path d="m-.5-.5h1v1h-1z" fill="#f892c8" transform="matrix(3.70820392 -11.4126782 22.8253564 7.41640788 206 118)"/><path d="m-.5-.5h1v1h-1z" fill="#f2aacf" transform="matrix(-82.15507752 31.53637956 -1.4334718 -3.73432172 482 158)"/><path d="m-.5-.5h1v1h-1z" fill="#ef66b5" transform="matrix(-2.77863348 -2.8773592 8.6320776 -8.33590044 66 26)"/><path d="m-.5-.5h1v1h-1z" fill="#efb4d7" transform="matrix(42.59590632 29.82597468 -22.94305744 32.76608176 970 110)"/><path d="m-.5-.5h1v1h-1z" fill="#f070b6" transform="matrix(-18.63497124 -69.54665948 3.86370332 -1.0352762 966 654)"/><path d="m-.5-.5h1v1h-1z" fill="#efa6d0" transform="matrix(98.37357916 -61.47063464 6.35903116 10.17657716 726 206)"/><path d="m-.5-.5h1v1h-1z" fill="#e1dae4" transform="matrix(155.42919228 -125.8640782 5.03456312 6.21716768 290 470)"/><path d="m-.5-.5h1v1h-1z" fill="#e3a4cd" transform="matrix(1.7534846 3.5951762 -64.71317132 31.56272256 690 554)"/><path d="m-.5-.5h1v1h-1z" fill="#e3d7e6" transform="matrix(-1.04586892 -11.95433636 87.66513344 -7.66970536 710 326)"/><path d="m-.5-.5h1v1h-1z" fill="#f3acd4" transform="matrix(-.62828664 -35.99451704 27.99573548 -.4886674 14 494)"/><path d="m-.5-.5h1v1h-1z" fill="#f591ca" transform="matrix(67.8343554 4.7434402 -.27902588 3.9902562 966 526)"/><path d="m-.5-.5h1v1h-1z" fill="#e0e9ec" transform="matrix(18.5241402 150.86701504 -7.9403692 .97495476 346 410)"/><path d="m-.5-.5h1v1h-1z" fill="#dee2e7" transform="matrix(-69.00655596 -135.43299168 3.56402608 -1.815962 370 330)"/><path d="m-.5-.5h1v1h-1z" fill="#e3d0df" transform="matrix(5.39882532 23.38488156 -124.71936828 28.79373496 530 166)"/><path d="m-.5-.5h1v1h-1z" fill="#f3c5de" transform="matrix(32.55681544 94.55185756 -60.51318884 20.83636188 74 354)"/><path d="m-.5-.5h1v1h-1z" fill="#e8dde6" transform="matrix(-56.73111452 19.53408928 -3.90681784 -11.34622292 298 286)"/><path d="m-.5-.5h1v1h-1z" fill="#f27bc0" transform="matrix(51.79246564 -50.01540268 16.67180088 17.2641552 826 158)"/><path d="m-.5-.5h1v1h-1z" fill="#f1a9d4" transform="matrix(91.30142556 -29.66563144 4.94427192 15.21690428 874 506)"/><path d="m-.5-.5h1v1h-1z" fill="#f57fc1" transform="matrix(-17.78504744 48.86401628 -18.7938524 -6.84040288 294 546)"/><path d="m-.5-.5h1v1h-1z" fill="#e7dfe8" transform="matrix(5.99370548 14.83494168 -37.0873542 14.98426372 882 302)"/><path d="m-.5-.5h1v1h-1z" fill="#efb6d8" transform="matrix(31.9336902 -128.07903588 31.04946324 7.74150064 126 490)"/><path d="m-.5-.5h1v1h-1z" fill="#e9cce0" transform="matrix(39.7808758 -4.18113852 4.5992524 43.7589634 898 362)"/><path d="m-.5-.5h1v1h-1z" fill="#e6b8d5" transform="matrix(-19.975582 -39.20428708 14.2561044 -7.263848 574 550)"/><path d="m-.5-.5h1v1h-1z" fill="#dcedeb" transform="matrix(-18.27090916 8.13473288 -17.89641228 -40.19600012 394 110)"/><path d="m-.5-.5h1v1h-1z" fill="#e77bbb" transform="matrix(4.47354324 -6.6323006 19.89690176 13.42062968 710 462)"/><path d="m-.5-.5h1v1h-1z" fill="#dbbdd9" transform="matrix(3.5951762 -1.7534846 31.56272256 64.71317132 726 466)"/><path d="m-.5-.5h1v1h-1z" fill="#e8aed1" transform="matrix(-21.2891268 -85.38602392 7.7623658 -1.93537516 374 106)"/><path d="m-.5-.5h1v1h-1z" fill="#ffc0db" transform="matrix(10.4889846 25.96114792 -74.17470836 29.96852748 1022 314)"/><path d="m-.5-.5h1v1h-1z" fill="#f3a3ce" transform="matrix(-33.13817472 14.06632064 -4.68877356 -11.04605824 302 302)"/><path d="m-.5-.5h1v1h-1z" fill="#f179be" transform="matrix(3.50696916 7.19035236 -43.14211424 21.04181504 274 514)"/><path d="m-.5-.5h1v1h-1z" fill="#dce6e7" transform="matrix(30.00792784 -32.17956288 76.06078496 70.92782944 510 234)"/><path d="m-.5-.5h1v1h-1z" fill="#ebb1d2" transform="matrix(-101.33448672 23.39490964 -3.59921688 -15.58992104 306 590)"/><path d="m-.5-.5h1v1h-1z" fill="#f593cb" transform="matrix(7.79496052 -1.79960844 43.19060244 187.07905244 1006 138)"/><path d="m-.5-.5h1v1h-1z" fill="#decede" transform="matrix(21.16026908 29.1246118 -61.48529156 44.67167916 562 626)"/><path d="m-.5-.5h1v1h-1z" fill="#f3afd4" transform="matrix(14.2561044 7.263848 -36.31923996 71.28052192 222 182)"/><path d="m-.5-.5h1v1h-1z" fill="#ebeff0" transform="matrix(-1.38918544 7.87846204 -110.29846832 -19.44859588 2 170)"/><path d="m-.5-.5h1v1h-1z" fill="#f07dbd" transform="matrix(2.2367716 -3.31615028 79.58760696 53.68251872 886 582)"/><path d="m-.5-.5h1v1h-1z" fill="#ee9aca" transform="matrix(-2.77863348 -2.8773592 92.07549444 -88.9162714 806 446)"/><path d="m-.5-.5h1v1h-1z" fill="#f285bd" transform="matrix(-2.40726008 -3.19454204 60.69629876 -45.73794176 374 678)"/><path d="m-.5-.5h1v1h-1z" fill="#dcdde5" transform="matrix(-55.69322616 -5.85359396 .83622772 -7.95617516 822 458)"/><path d="m-.5-.5h1v1h-1z" fill="#f37dc0" transform="matrix(2.77863348 2.8773592 -17.2641552 16.67180088 806 274)"/><path d="m-.5-.5h1v1h-1z" fill="#f2a2ce" transform="matrix(23.70452016 -3.75442716 4.38016504 27.65527352 198 18)"/><path d="m-.5-.5h1v1h-1z" fill="#dfdfe6" transform="matrix(-177.78390132 28.15820372 -2.50295144 -15.80301344 590 254)"/><path d="m-.5-.5h1v1h-1z" fill="#ec69b5" transform="matrix(-17.55248884 16.36796064 -21.82394752 -23.40331844 810 558)"/><path d="m-.5-.5h1v1h-1z" fill="#f0a2cf" transform="matrix(131.67845464 -9.20785452 .83707768 11.9707686 842 230)"/><path d="m-.5-.5h1v1h-1z" fill="#f288c3" transform="matrix(3.55884504 67.90680836 -3.99451812 .20934384 838 478)"/><path d="m-.5-.5h1v1h-1z" fill="#e2ccde" transform="matrix(17.99805308 21.4492444 -88.8611554 74.56336272 390 14)"/><path d="m-.5-.5h1v1h-1z" fill="#ebabd0" transform="matrix(-23.21305204 -15.65740128 46.97220388 -69.63915608 754 390)"/><path d="m-.5-.5h1v1h-1z" fill="#f7d0e2" transform="matrix(-161.62713076 -58.82746464 13.68080572 -37.58770484 42 210)"/><path d="m-.5-.5h1v1h-1z" fill="#f286bf" transform="matrix(-8.71422456 13.41872908 -90.57642132 -58.8210158 286 650)"/><path d="m-.5-.5h1v1h-1z" fill="#dae0e7" transform="matrix(-31.04946324 7.74150064 -.9676876 -3.88118292 598 654)"/><path d="m-.5-.5h1v1h-1z" fill="#f0cbdf" transform="matrix(48.48096204 87.46197072 -87.46197072 48.48096204 206 298)"/><path d="m-.5-.5h1v1h-1z" fill="#e6e3e9" transform="matrix(-55.45501184 -7.79369364 3.89684684 -27.72750592 178 186)"/><path d="m-.5-.5h1v1h-1z" fill="#efd8e5" transform="matrix(14.42106608 -24.0006844 99.43140688 59.74441668 146 322)"/><path d="m-.5-.5h1v1h-1z" fill="#f286c1" transform="matrix(-22.8253564 -7.41640788 3.70820392 -11.4126782 470 662)"/><path d="m-.5-.5h1v1h-1z" fill="#f68fc6" transform="matrix(2.29430576 -3.27660816 160.55380068 112.42098152 150 622)"/><path d="m-.5-.5h1v1h-1z" fill="#f2b0d3" transform="matrix(47.56126884 -42.8243588 18.73565696 20.80805512 522 78)"/><path d="m-.5-.5h1v1h-1z" fill="#f691c7" transform="matrix(-2.47213596 7.60845212 -34.2380346 -11.1246118 934 254)"/><path d="m-.5-.5h1v1h-1z" fill="#ee9dcd" transform="matrix(68.47606916 -22.2492236 1.23606796 3.80422608 462 590)"/><path d="m-.5-.5h1v1h-1z" fill="#f598c9" transform="matrix(106.94895144 15.03069492 -1.1133848 7.92214456 262 102)"/><path d="m-.5-.5h1v1h-1z" fill="#f5bed9" transform="matrix(30.90228448 -51.43003804 96.00273768 57.6842644 826 330)"/><path d="m-.5-.5h1v1h-1z" fill="#e667b4" transform="matrix(57.67570176 16.53824136 -2.20509884 7.69009356 686 182)"/><path d="m-.5-.5h1v1h-1z" fill="#e8c6dc" transform="matrix(23.81135216 88.865176 -3.86370332 1.0352762 486 506)"/><path d="m-.5-.5h1v1h-1z" fill="#ee7ebe" transform="matrix(-116.93381856 52.06229032 -4.88083972 -10.96254548 706 106)"/><path d="m-.5-.5h1v1h-1z" fill="#ebdbe7" transform="matrix(28.75087836 21.66534084 -19.25808076 25.55633632 110 414)"/><path d="m-.5-.5h1v1h-1z" fill="#e0e2e7" transform="matrix(28.72969204 -78.93418016 3.75877048 1.36808056 186 6)"/><path d="m-.5-.5h1v1h-1z" fill="#f591c7" transform="matrix(-3.27660816 -2.29430576 18.35444596 -26.2128654 230 390)"/><path d="m-.5-.5h1v1h-1z" fill="#e5b4d2" transform="matrix(-7.19035236 -3.50696916 54.3580222 -111.45046176 334 562)"/></g></svg>