<svg height="680" width="1024" xmlns="http://www.w3.org/2000/svg"><path d="m0 0h1024v680h-1024z" fill="#a5a39f"/><g fill-opacity=".501961" transform="matrix(4 0 0 4 2 2)"><path d="m48.346672 83.918373-42.261643-16.454301-22.085029 61.42536 285.674793-63.346547z" fill="#584332"/><path d="m-16 3.020038 214.669139 13.892642 72.330861 17.344297-38.625296-50.256977z" fill="#234751"/><path d="m-16 157.451243 118.968906 27.548757-36.23698-71.465461-36.268032-1.277933z" fill="#f6f8f8"/><path d="m213.33679 121.909278 47.014937 22.380376 10.648273 36.43894-77.227782-23.777688z" fill="#f3f4f4"/><path d="m32.582121 8.069507 138.467588 22.322536-94.939974 34.880984-92.109735 1.099065z" fill="#dee4e4"/><path d="m201.98171 120.516976-5.271763 41.931216-19.991221-57.312245-25.512577 19.410385z" fill="#332213"/><path d="m116.72985 128.230542 17.764892 37.350775 34.492186 19.418683 18.988685-44.112772z" fill="#eae9e6"/><path d="m271 142.467113-21.893084-42.724291-100.205625 11.772616 114.857806-49.378059z" fill="#e3e4e1"/><path d="m115.523338 83.420155-29.210472 62.085996-33.626868-51.586589 118.706741 1.606105z" fill="#675241"/><path d="m245.317697 25.840833-13.606604-13.804757 6.858401-11.948632 32.430506 23.879378z"/><path d="m94.293351 76.270586-71.66311 13.473088 25.77328 16.965292 3.680528-30.598447z" fill="#eaeae8"/><path d="m179.813493 74.667936 75.155331-46.564388-51.970208 54.824272-50.803042 22.941753z" fill="#615a52"/><path d="m43.938814 8.177686-38.040776-24.177686-21.898038 30.267731 19.162385 9.814774z" fill="#2e5460"/><path d="m228.495033 53.112222-12.005553 15.200992 54.51052-11.902478v-25.906684z" fill="#f2f4f1"/><path d="m-16 79.318949 19.821431 45.254948 13.423466-36.900657 104.249313-28.752269z" fill="#645549"/><path d="m104.380743 106.160592 78.929266 36.490455-54.17975-33.663866-23.645925-27.729743z" fill="#dedcd8"/><path d="m170.181896 42.710444-26.580466-3.600314 25.124147-9.536996 30.570831 30.210325z" fill="#53514b"/><path d="m225.723001 10.611768-8.898207 15.293919 54.175206 8.343209-113.52098-2.888026z" fill="#d8dddb"/><path d="m138.178272 103.441757 55.062252-26.990298-52.668116-15.553193-21.629265 45.146506z" fill="#685b4f"/><path d="m129.724135 30.076223-69.161683-46.076223 12.219704 48.179869 72.64662-48.179869z" fill="#668890"/><path d="m177.164158 19.110883 45.048546 44.2507-138.642445-38.465922 117.030057 49.309619z" fill="#ccc9c4"/><path d="m212.725863 121.073427 29.532781 1.598413 28.741356 26.800222-9.521799-38.534467z" fill="#655a50"/><path d="m137.783843 136.888355-1.128399 9.552604-86.269255-61.73962 67.568592 64.878074z" fill="#7f6551"/><path d="m196.810568 138.043869-18.666069-13.596111-17.922736 9.312247 21.830693-21.547545z" fill="#32281e"/><path d="m-16 130.240475 16.682737 43.887008 76.840557-49.836353-6.055836-11.327327z" fill="#d6d7d6"/><path d="m122.434057 155.384795-21.875818 29.615205-5.363469-38.404682-10.584425-25.738338z" fill="#d5cec5"/><path d="m-16 119.323433 18.129686 4.714952 31.31651-15.973541 2.376871-15.587991z" fill="#4c3b2e"/><path d="m92.24959 38.312369-41.696954 51.752767 10.996856-18.413752-77.549492-45.521749z" fill="#d5d3d0"/><path d="m177.236236 26.266425 93.763764-30.571668-69.394803 11.528915-129.516424.906224z" fill="#7a989e"/><path d="m118.839029 110.332909 43.851309-17.554548-19.109407 68.516552-1.642189-38.219011z" fill="#d2d1ce"/><path d="m141.007786 45.723061 8.339859 39.353435-13.93756-2.356424-32.067425-1.710986z" fill="#b9b2ab"/><path d="m213.340419 101.249825 49.930895 7.259579-32.339545 10.873493-11.813652-4.028338z" fill="#dbdad8"/><path d="m197.307555 27.294801 5.025577 1.26319 7.546162 25.559255-9.395965 27.916711z" fill="#7b6f64"/><path d="m85.42559 111.809798 31.893266 4.513837-42.87728-18.337932 55.673068-51.520257z" fill="#746356"/><path d="m171.054256 89.959792 58.372033 95.040208-16.71889-61.365894-27.349039-42.863596z" fill="#b6b1aa"/><path d="m184.911296 129.945497-4.913962 42.25075-13.514025-50.915016-6.057638 5.342844z" fill="#e0e2e0"/><path d="m245.336669 8.738879 24.755038 23.926131-51.26613-13.247701 15.033465 9.810845z" fill="#291d16"/><path d="m173.669636 73.809067-49.768228 22.394311 113.587835-31.237516-46.622179 22.482857z" fill="#49423b"/><path d="m174.852946 43.66418-180.048167-15.516128-10.804779 53.795405 53.286798-20.788234z" fill="#cdcbca"/><path d="m127.72223 111.806475-9.715637 3.475559 26.520753 10.963839-26.275121 3.491522z" fill="#7e6b5b"/><path d="m271 43.5079-3.952445-10.345801 3.952445-3.366626-26.498311 6.027711z" fill="#030100"/><path d="m271 185-43.258565-23.430397 18.010497-50.176575 2.333388 27.82549z" fill="#dcdcdd"/><path d="m27.944342 21.911158 38.009627-.428949 1.921053-9.853599-17.879826-7.867317z" fill="#dbdad9"/><path d="m116.172061 65.75054-71.959384 13.22226-2.114639 93.08615-1.739477-80.304931z" fill="#cececb"/><path d="m49.315034 68.812164-5.918669 16.972292-15.234303-21.763282-6.899009 3.034768z" fill="#5c4c42"/><path d="m165.709689 75.656897 2.511642 19.16024 25.97166-8.664505-30.914032 17.575149z" fill="#484c4a"/><path d="m250.986524 32.204024-36.753084 11.41792 19.932802-16.340871 36.833758 7.763448z" fill="#e0e1de"/><path d="m40.500321 146.954722-1.915399-2.358864-9.287539 40.299451 4.674928.104691z" fill="#817366"/><path d="m216.28828 62.054877 54.71172-40.060222-66.138442 45.676191 36.226963 15.569413z" fill="#60564d"/><path d="m213.425426 185-4.758747-43.706101 4.033805 16.443997 2.454608 27.262104z" fill="#5e5042"/><path d="m153.464776 39.347983 35.624805-.782278-24.212783-5.705144-18.721474 6.34569z" fill="#3d4140"/><path d="m228.200619 121.279414-42.81645-21.731481 25.128938 7.193804.534714 16.32377z" fill="#706458"/><path d="m154.184209 139.442626-6.848622-1.024464 23.777894-24.698046-11.583663 4.304176z" fill="#5a4d41"/><path d="m134.109001 145.197481-17.238129-29.694612 18.735468 23.594114 20.228403 45.903017z" fill="#928273"/><path d="m-16 181.053058 41.227319-15.858254 3.928658-22.614763-13.751934 42.419959z" fill="#72675c"/><path d="m132.524754 101.219788-6.000508-44.029477 8.074018 18.966514 10.230973 38.236975z" fill="#685c52"/><path d="m186.39644 104.080289 40.43927 35.643436-38.672726-46.669553 28.635166 12.471023z" fill="#dbdedd"/><path d="m128.6376 185 6.09294-9.453184-12.686388-27.884082 1.69598 12.944232z" fill="#75563d"/><path d="m100.948704 14.600143 89.950651 11.975829-144.155397 5.690884-24.938994-4.693989z" fill="#a4b5b5"/><path d="m197.76448 161.881661-.177175-23.839513 13.263859 20.962259-2.661611 25.995593z" fill="#d8d8d4"/><path d="m32.189982 108.414639-41.733499 23.416313 29.045027-13.366679 42.918855-8.802059z" fill="#a29b94"/><path d="m9.064452 97.667481-25.064452 35.370228 30.3243 11.225422-25.449313-33.112065z" fill="#cfcecc"/><path d="m246.766338 114.517891 2.632437 14.072632 5.537243-14.032924 16.063982-8.80826z" fill="#32271b"/><path d="m131.568772 50.212702-21.458009 3.26569-41.744179 21.160871 54.224729-12.535201z" fill="#7f766e"/><path d="m102.73775 147.135999-20.695156-25.475555 10.547685-84.205133-8.665899 122.39447z" fill="#a6988b"/><path d="m258.558 54.925257-38.071555 30.085962 13.894741-18.502832 23.874718-1.362811z" fill="#67625b"/><path d="m186.936919 169.022335 1.562788 15.977665-7.04004-35.175891 3.643585 3.215817z" fill="#544435"/><path d="m160.018526 178.709848-18.237287-24.510429-9.129012-27.442569 42.089127 29.332204z" fill="#dddfdf"/><path d="m86.621594 77.945324-8.522609 13.46183 35.38099-30.565927-46.482885 21.449909z" fill="#d4d1cc"/><path d="m8.515561 92.899525 57.091647-12.478886-47.073708 16.964158 9.582308 16.021179z" fill="#b4aca3"/><path d="m88.863766 157.73192-5.476209-46.939933-13.479758-10.244723 16.713101 52.885681z" fill="#705c4b"/><path d="m194.445439 185-2.759607-30.606438-3.567398-.749286 11.091756-38.190756z" fill="#705f50"/><path d="m202.54572 78.936283-24.698038-15.652406 22.840079-23.4029-19.194283-19.026037z" fill="#c8c7c3"/><path d="m176.105075 45.086403 70.176153-36.855496-60.075441 31.506207 8.948441 24.431168z" fill="#695c52"/><path d="m232.282136 37.542472-9.038824 12.592289 21.563066-16.02306 26.193622 3.354333z" fill="#5a5048"/><path d="m217.623288 5.223381 6.637854 31.573532-18.13611-1.398459 34.429731-13.651232z" fill="#7c7168"/><path d="m67.257427 35.392916 116.833243-13.472062-60.556724 27.804141-66.092629 22.599764z" fill="#cbcdcc"/><path d="m265.837628 93.866367-18.37184 39.961572 18.895266-23.44495-68.549006-25.347788z" fill="#d4d5d3"/><path d="m174.46006 47.440681 5.006531 31.701385-13.096956-17.326402.703221 41.304201z" fill="#76695d"/><path d="m68.9003 116.815696-20.212306-16.912761-2.960726 6.390209 48.525176-19.203751z" fill="#675547"/><path d="m172.449639 29.82828 11.250614 5.586609 32.966641-14.158747 7.27832-8.660586z" fill="#d7d9d8"/><path d="m107.196862 79.318327 33.852709 14.57645-13.908407-11.247094-4.191729 19.740223z" fill="#433e3a"/><path d="m227.073848 167.567625-4.57341 17.432375 7.820948-4.859274-14.251169-27.507046z" fill="#706255"/><path d="m116.423799 72.909643-10.210637-12.435981 12.87279 45.497516-11.458381 10.062204z" fill="#ced1ce"/><path d="m188.18383 118.644964-14.476499-9.89102-9.126305 10.105132 7.913854 11.421195z" fill="#53483d"/><path d="m219.784379 134.303877-24.774916-8.160926 1.004646-6.468583-38.962271-35.570927z" fill="#8a7e73"/><path d="m160.32631 102.888636 55.542347 16.083645-48.662528-11.852844-16.194565 15.83648z" fill="#dcdedd"/><path d="m143.931329 115.180579-38.478193 10.119292 4.448835-5.54591 6.557427-3.00615z" fill="#dedcd9"/><path d="m241.708013-16 29.291987 27.013394-38.985018-2.08203 38.985018 23.485655z" fill="#1b1917"/><path d="m59.036339 86.196167 8.861761 27.939816-5.91935-36.849465-48.109687 31.985972z" fill="#9a8f85"/><path d="m86.609701 76.421353 7.925732 44.790146 11.038864-43.189242 2.352078 19.334066z" fill="#6f5847"/><path d="m205.938633 89.351272-4.416568-19.466869 46.709564-30.131283-29.35278 14.309927z" fill="#5d5249"/><path d="m186.988752 133.067376-7.994619-9.436832-5.004789 12.034242 14.525553 19.216592z" fill="#d9dad8"/><path d="m159.124097 161.63639 16.860423-16.164552-14.355119-25.977936 10.896398 6.619859z" fill="#aea9a2"/><path d="m233.113246 33.406679-24.425319 5.997654 9.899995 7.420163-13.35709 21.501642z" fill="#cdcac6"/><path d="m118.119306 111.57483-33.990056 2.764992 19.729403-21.046642 2.498401 26.375754z" fill="#6d5c4e"/><path d="m169.40184 89.993463-25.899025 10.801629-17.599309 7.622243 29.790409-5.849653z" fill="#d1d3cf"/><path d="m126.117851 129.375313 13.153232-3.6178-19.5478-5.203636-2.276698.017782z" fill="#655344"/><path d="m215.580911 68.067542-20.595795 18.711885-24.160476-12.529347 32.254452 7.402023z" fill="#332f29"/><path d="m111.893836 175.530623-47.827924-11.350309 43.921742-7.586597-23.908324-14.716958z" fill="#cfcdc9"/><path d="m101.796783 137.220958 22.912761.563838-2.170911-2.216201-42.115431-23.691102z" fill="#806a57"/><path d="m190.25332 125.103094-10.887844-7.128963 11.491805 21.294617 6.083098-6.800892z" fill="#24231f"/><path d="m253.333169 142.753927-3.23667-16.094726 20.903501 18.086296-10.608569-1.388058z" fill="#5c4f44"/><path d="m271 26.502325-56.63207-2.35289 26.654326-18.021822-19.902918 12.907076z" fill="#494039"/><path d="m226.904805 175.610344-30.112985-5.515768 20.941841 14.905424-4.425419-34.359158z" fill="#e5e9e9"/><path d="m220.41962 48.098123-8.75366 2.814536-19.644112-8.118148 31.847068 5.804958z" fill="#736b62"/><path d="m19.578962 115.580887-5.229588-34.82924 12.868318 5.753982-43.217692 35.157653z" fill="#55473c"/><path d="m39.397554 109.666724-21.192855-12.564143 24.388318 15.146147-46.46453 11.791163z" fill="#6b5e53"/><path d="m126.575131 132.379552 19.643128 37.435076-34.416956-27.684296 15.688037 7.234704z" fill="#dadad7"/><path d="m162.792063 39.311267-.151982 33.41177-34.862304-30.783575 46.480487.367496z" fill="#c4bfb7"/><path d="m15.90156 95.86402 44.730692-20.115286-28.251088 43.960212 14.387321-29.400035z" fill="#cacac7"/><path d="m94.085927 20.63136 18.116526 6.889136 1.782058-8.536034-18.670039-4.414717z" fill="#e1dcda"/><path d="m129.56572 108.037206-15.947159-53.219348-25.781402 8.842095 28.318191-11.55538z" fill="#73695f"/><path d="m154.631361 102.536195 1.689887 2.614657 25.651426-27.835372-34.672317 43.511513z" fill="#6f6a63"/><path d="m253.620776 63.232066-15.28737 10.085033 27.126178 14.984077-36.968523 12.357289z" fill="#d3d4d2"/><path d="m123.11817 89.095711 35.045073 72.575704-13.562307-47.71342 21.77506 29.878221z" fill="#cdccc9"/><path d="m-16 27.700838 3.912668-13.699196 64.787921 9.915926-50.090531 6.275427z" fill="#909d9e"/><path d="m96.727512 27.695195-6.11064-11.830756-23.229719-31.864439-1.546746 32.873067z" fill="#6d8388"/><path d="m250.831749 106.709418-41.096543-7.76641 36.037584 2.372546.227574 1.64154z" fill="#857e76"/><path d="m56.608054 64.395199-37.174372 11.362564 4.480345-28.188518-39.914027 3.830829z" fill="#a9a39b"/><path d="m211.75638 132.668291-12.106143 9.660473 71.349763 18.238392-40.718249-36.13099z" fill="#d6d7d6"/><path d="m224.362679 117.186957 18.060321 7.606451-10.586916-.645997-30.190862-2.186474z" fill="#7c7166"/><path d="m131.881686 86.016003 9.535991-32.500924-10.854786 47.214961 24.469697-5.92212z" fill="#615348"/><path d="m148.568503 99.480704-21.089791 13.557581-19.309308-23.750679-.497254 24.816244z" fill="#cfceca"/><path d="m221.052997 58.31926-5.087255 11.563731 31.560343-8.168307 23.473915-3.888078z" fill="#cfcfcc"/><path d="m178.155499 76.872991.375283-31.569452 10.810285 21.548001-16.858195 3.752727z" fill="#cfcfcb"/><path d="m132.029977 41.513424-6.756238 6.273433 3.100189 19.329393-14.38329 11.722332z" fill="#cbccc9"/><path d="m174.050341 152.085853 16.26841 32.914147-4.784029-39.713676 10.166352 39.43623z" fill="#dfe0dc"/><path d="m205.802951 81.312988 9.90958-6.434092 16.627685 9.681404-20.469695 3.647071z" fill="#b0aea9"/><path d="m247.338945 94.248976-66.306367.405649-37.167243 31.416727 46.679705-29.643853z" fill="#d6d7d5"/><path d="m52.693023 152.355863-4.783817 32.644137-15.018407-18.415668 8.338786 5.549923z" fill="#9d968e"/><path d="m70.425233 128.981193 20.738944 9.036541-7.128195 1.988113-6.499215-14.040932z" fill="#68594c"/><path d="m131.315057 109.922448 10.540968-4.195893 31.994885 33.528705-30.663016-27.630312z" fill="#7e756a"/><path d="m85.079038 90.461745 20.854383-49.22158-28.930583 48.835063-1.197367-17.389417z" fill="#c2bcb5"/><path d="m129.769465 133.091369-34.56741-17.471356 5.773202-3.448426 7.33458 16.301907z" fill="#d3cec7"/><path d="m117.373857 13.379704 92.435899 4.530619-36.751089 11.11419 43.218759-19.758617z" fill="#82979c"/><path d="m199.790766 122.72987 23.549672-14.938906-24.164736 11.524241-11.816771-2.446883z" fill="#dddedb"/><path d="m172.432533 96.328888-15.454467-17.986677 9.711679 14.053272-3.595113 8.84927z" fill="#2f2e2a"/><path d="m58.571216 72.181061 28.395392-7.885725-4.13561-.367786 2.691813 8.508446z" fill="#716155"/><path d="m41.955374 5.225021 125.39542-6.045942-167.745889-.502313-4.848489 14.937077z" fill="#52686e"/><path d="m123.662631 165.820342-4.445497 19.179658-4.480937-30.17887-43.843687-30.089868z" fill="#958374"/><path d="m133.084599 69.33624 4.046228-9.733597-10.532315-21.19298 2.499396 16.821978z" fill="#d6d7d5"/><path d="m79.526942 112.844764-51.009539 27.306352 29.621791-32.225584-8.991826 77.074468z" fill="#d4d3d2"/><path d="m182.555699 91.754449 12.760423 2.475275-2.050128-9.224951 36.224659-22.78214z" fill="#6a6863"/><path d="m193.26585 59.115083 7.58858-22.777427-39.73418-4.519166 22.817817-7.040611z" fill="#ced0cd"/><path d="m246.165075 3.54162-4.391748-2.447035 29.226673 5.718458-21.736281 3.137284z" fill="#cec7c2"/><path d="m155.817534 123.559126 25.769452-11.993695-31.406284 11.026609 14.538592 7.197562z" fill="#4a433b"/><path d="m83.845549 118.372584 12.022946 23.334394-13.36572-38.454067 6.337308-11.425635z" fill="#b2aaa2"/><path d="m198.863341 73.777158 72.136659-14.155479-36.385915 10.047641-5.652855-4.098879z" fill="#665f58"/><path d="m224.372361 51.932321-1.471424-.880546 14.36124-10.649706-5.281225 6.569832z" fill="#cecbc5"/><path d="m145.972 68.479703 32.582971 7.596659-15.512827-18.206091-11.129623 39.399295z" fill="#847569"/><path d="m168.452081 137.305449-11.733853-4.181516 7.981878 2.274525 16.759349 49.48216z" fill="#938d84"/><path d="m33.274945 73.671445 23.418754 2.617464-13.191823-11.748122 3.433709 29.721504z" fill="#6b5f56"/><path d="m246.874952 25.484032-18.814066-14.836224 12.33514-7.114431 26.904328 14.928928z" fill="#25231f"/><path d="m235.811903 44.678591 14.069208-1.695472-14.159971-1.118879 16.401872-8.331439z" fill="#544b43"/><path d="m202.361143 28.102798-9.595343 7.535948 11.047102-1.293904.099598 3.77422z" fill="#63584f"/><path d="m-16 109.972779 30.428471.295036-28.726066 25.141156 25.72243-16.035546z" fill="#3a332c"/><path d="m47.440654 90.234255-10.057195 3.891402-.311401 13.961213-27.411368 7.119396z" fill="#645243"/><path d="m91.932244 84.033224 14.227708 32.031533-3.642091-38.46326-23.421441 2.331568z" fill="#89725f"/><path d="m97.8487 77.907089 2.61653-8.499642-34.16727 7.326596-25.243826 3.23268z" fill="#d7d9d8"/><path d="m42.681761 107.835383 10.549529-16.365993-.45107 11.08777 15.299595 6.391757z" fill="#6b5747"/><path d="m179.101498 104.001665-3.446547-1.966753-2.706699-12.484288-7.863002-3.816067z" fill="#b8b7b4"/><path d="m165.028205 97.150308-27.895963-26.789448-13.688953 17.406971 1.383262-19.504059z" fill="#a19992"/><path d="m214.344194 66.820464-8.764509-22.49214-21.832797 16.328111 5.797273-9.65128z" fill="#a69f98"/><path d="m103.597515 75.989324-1.447597-4.353428 29.973379-22.058639-1.873777 2.927156z" fill="#696e6e"/><path d="m240.503991 116.118831-.214607 11.226275-3.750216-7.316912-1.318505-1.913668z" fill="#50483f"/><path d="m86.379111 138.61701-2.963684-33.520469-17.287537 11.096443-12.620489-35.842933z" fill="#746152"/><path d="m84.322752 61.794267-12.502951 12.816455-34.387089 2.576761 61.789513-15.411063z" fill="#7a6b5f"/><path d="m193.065473 100.561639 4.886615-18.060785 19.84627 12.505541-63.432287 5.703776z" fill="#cccecc"/><path d="m95.618369 163.31661 28.138172.219403-4.868484-11.942136-7.767832 31.562958z" fill="#d2d1cd"/><path d="m114.999983 150.89242-11.140591-11.976719-19.441929-21.687584 17.974234 29.017862z" fill="#cccac6"/><path d="m113.915615 80.807932-1.181224 16.894108-3.195501-14.775387 21.174611 24.612081z" fill="#534a41"/><path d="m154.163843 185-56.674487-28.902423 12.409208 17.704002-8.21082-18.041302z" fill="#9e8d7f"/><path d="m140.743467 104.073374 3.01262 5.948973 30.224734 18.139784-34.638683-29.236344z" fill="#c1bdb7"/><path d="m204.973453 110.770017 15.595291-2.4444-16.400556-1.868819.685124 2.875017z" fill="#574b3f"/><path d="m123.219191 130.912884 50.494782-6.652806-33.657698 8.86382 11.309665-9.342393z" fill="#d6d8d6"/><path d="m175.766847 110.581544-1.642393 15.890165-12.387284-10.529029 4.907584-5.271306z" fill="#463d34"/><path d="m214.40804 86.663432 23.952764-30.816335-27.165192 29.570323-44.194301-13.679521z" fill="#837e78"/><path d="m271 89.138685-8.676587 22.681038-51.9876-.355463 23.21291 9.405348z" fill="#cbcac7"/><path d="m193.725607 159.528026-.232666-10.158437-3.638355 5.762191 1.359049-31.951715z" fill="#433d36"/><path d="m174.726681 40.35848 15.291363-17.005612-19.199841 28.022903-37.272675.113081z" fill="#c2bcb5"/><path d="m119.64036 72.251872-7.876806-8.037527 4.499326 17.019702 2.723927 2.494012z" fill="#cbcecc"/><path d="m181.332588 49.332769-7.259153.874179 4.562975 8.540465 19.314071 12.069007z" fill="#d5d7d5"/><path d="m.381324 75.416585-16.381324-53.432513v55.848422l29.134298 30.653317z" fill="#5e4e42"/><path d="m189.799689 111.735583 2.98872 9.892676-24.131548 5.916809 31.571301-11.555138z" fill="#756a5f"/><path d="m47.536059 88.419748-14.341089 5.645333-4.344816.682473 6.334544-9.722039z" fill="#d4d4d1"/><path d="m194.480241 146.601699-3.518012 7.924347 29.750125-26.615412 10.57539 13.495477z" fill="#cccbc8"/><path d="m82.482525 128.45177 3.456003 28.132401 10.264154-.698012-14.560175-14.821972z" fill="#887361"/><path d="m51.25638 80.459721 8.579486-5.803058 7.176901 35.12872-6.72314-23.668875z" fill="#c5c1bb"/><path d="m180.314878 68.838232 3.081888 9.736889 20.163503-24.293556-5.132867 13.061398z" fill="#7e7368"/><path d="m157.279792 74.656646-15.622163-7.279244 17.25658 17.595438-19.801342-44.819076z" fill="#7b6d61"/><path d="m100.543848 120.452403-19.334654-4.16043 15.580947 9.805781 20.287315 23.964498z" fill="#776150"/><path d="m188.431503 110.820838 17.356727-11.781011-15.680358 16.589292-24.597849-10.529389z" fill="#cdcdc9"/><path d="m71.132351 146.781894-27.119361 21.912498 27.680663.15641 35.108734-1.952034z" fill="#d5d5d4"/><path d="m187.995521 50.673487-8.85971-2.8802 1.251983-9.820617 8.220102 22.437544z" fill="#4d4540"/><path d="m109.848127 134.641756 7.14781 14.769621 1.616453-11.828412-64.07452-26.277557z" fill="#aea399"/><path d="m-6.293551 35.104077 33.818418 45.65795-16.045854-32.899522 3.597383-21.666454z" fill="#cdccca"/><path d="m225.563053 72.394285-18.838208 15.659235 7.555296-14.222122 7.078001 9.293497z" fill="#c6c6c2"/><path d="m1.768918 127.078232 25.618871-16.719996-3.956389 4.082234-24.622744 16.061037z" fill="#bebbb6"/><path d="m215.064451 70.644523 9.275633-26.5424 6.45939-3.166443-28.913619 32.891134z" fill="#61544a"/><path d="m247.406869 124.665312 23.593131-26.419442-26.202044 25.65442 26.202044 23.569484z" fill="#544a40"/><path d="m211.263918 155.829525-1.956555 1.438838-.94236-17.60513 2.34255 12.765855z" fill="#72665b"/><path d="m160.617368 46.998219 13.251234 22.754579-1.366025-25.40479-11.27949 30.333766z" fill="#bbb7b0"/><path d="m20.768381 101.086743-13.519771-27.06492 24.455289-12.645525-12.652669 9.893888z" fill="#77695f"/><path d="m60.065407 113.282018-16.795912.071343-18.632468 2.618395-35.346812 59.464917z" fill="#d2d2d2"/><path d="m226.121684 117.441656-17.009287-3.385123 24.893681 9.180957 7.444023 11.296523z" fill="#6a6055"/><path d="m101.868967 46.620264 10.923529 60.206475-1.606838 7.524235-8.718233-67.231587z" fill="#cac9c5"/><path d="m213.578513 113.684708 43.363708 43.545577-8.019269-27.839695-8.022835 4.517567z" fill="#cac9c7"/><path d="m12.233328 91.157391.277517 2.288021-9.817948 3.679601 17.239174-.340096z" fill="#b4a59a"/><path d="m148.44556 112.771051-18.455549.228003 12.067042 12.101697 10.59237 55.990329z" fill="#d5d6d5"/><path d="m210.83555 48.776334-16.192975-4.12431 8.920001-4.515116 18.450019 18.300625z" fill="#70655d"/><path d="m226.355038 34.714865-36.590354 8.500346 63.439137-10.407844-38.396735-9.243008z" fill="#cdcdc9"/><path d="m162.002661 99.681477 8.511796-1.127956 13.953044-6.851517-24.18684 4.912864z" fill="#353f42"/><path d="m181.628609 68.146315 5.102282 16.521618 27.03795-8.695431-34.983406 6.058896z" fill="#3b352f"/><path d="m164.327617 91.988654-9.815873-10.477863-2.523565 2.17931 9.93499-6.924979z" fill="#3f3730"/><path d="m87.407291 182.597325 10.505097-17.234789 3.162248 13.38088-10.236516-13.494342z" fill="#9c8b7c"/><path d="m86.87569 132.094694 21.252053.09993-10.953081-5.645245 7.648663 36.828352z" fill="#afa8a0"/><path d="m123.079961 112.555378 12.045633-4.423915 15.760314-4.729638-38.015684 16.263944z" fill="#908980"/><path d="m183.234239 170.257544-27.373989-37.101179-4.732646 51.843635 30.222691-33.18087z" fill="#d5d6d5"/><path d="m25.551748 114.352442-10.885378 12.223209 1.453313-13.919181-.360316 7.796141z" fill="#5f5347"/><path d="m13.441111 70.40561-13.124756 4.877156 29.13234-20.114024-31.372551 3.120344z" fill="#d2d3cf"/><path d="m251.201018 107.711059-11.062388.925641 30.86137 8.99968-23.033706-3.232378z" fill="#7d766e"/><path d="m9.053707 74.056757 16.514677 21.132337.483538-25.537215 15.354707 15.521762z" fill="#786b61"/><path d="m164.743239 56.12364-10.270023 30.236401 1.949936-31.218722 16.587462 23.997568z" fill="#928880"/><path d="m218.65625 63.363855 22.018282-17.864449 5.84689 20.497622-23.875938-2.467148z" fill="#d3d4d1"/><path d="m29.816804 111.354734 16.480588-.395539 15.240393-.431743-15.510615-1.567341z" fill="#c1bab3"/><path d="m201.557193 129.340032 69.442807 25.58291-54.439574-29.392579 14.318776 46.086979z" fill="#d4d5d4"/><path d="m210.10115 28.903902 12.483992-13.192643-17.918201 15.098601 40.143436-24.428433z" fill="#706b65"/><path d="m95.955771 61.357005 7.131756 13.316286-7.034275-7.727208 10.621147-10.617929z" fill="#675d55"/><path d="m19.795556 99.930186 28.627258-8.772814-64.422814 11.474501 39.775799-5.134436z" fill="#6a5848"/><path d="m39.584837 110.197175 9.856593-24.192428 2.247874 7.424179-17.682083 17.969025z" fill="#c8c6c2"/><path d="m163.188821 37.538525-24.178601 2.507244-4.983157 14.200306-1.06148-12.359352z" fill="#847d75"/><path d="m185.14587 81.930908-.471547 5.861509-14.348845 5.158697-3.346847-.779207z" fill="#c1bdb6"/><path d="m-16 104.518053 37.416813 48.894223-17.153574 25.075718-1.040281-13.246517z" fill="#d5d6d5"/><path d="m240.959843 81.586704-8.258177-3.063923-7.913899 8.35873 11.52485-2.224027z" fill="#99958f"/><path d="m64.238721 28.132214-28.90329-11.755878 11.714284-11.182548 16.033514 4.771022z" fill="#d4d2d0"/><path d="m33.912022 65.257988 24.125288 10.246863-2.16528-9.59569-21.887743 8.087147z" fill="#7d6c5f"/><path d="m189.446234 23.041869-18.651683 2.824932-106.773868 3.753666 99.235009-12.428957z" fill="#9fb1b2"/><path d="m118.041906 90.826831 6.489888 15.427012 1.421047-7.177868-4.073202-23.522516z" fill="#564c42"/><path d="m126.451867 46.741291 10.552984 53.881999 17.363258-18.348474-20.619688 14.788932z" fill="#62564c"/><path d="m164.262476 38.01397-5.139867-3.533458 12.131156-1.40643-4.10989 5.796728z" fill="#252e2e"/><path d="m203.079159 24.826825 23.139365-11.555738-15.482505 5.803537-3.464529 28.529995z" fill="#d1d0cc"/><path d="m164.853338 80.923577 2.12788 9.908312 8.553738-32.631297-.765731 32.511756z" fill="#68594d"/><path d="m214.059539 119.891415-17.661086 8.972871-10.070613 26.080123 14.899605-32.772763z" fill="#837061"/><path d="m84.705738 14.61004 145.844423-7.465815-143.499291-4.738958-50.384251-.089673z" fill="#6c8287"/><path d="m97.451698 79.863813-3.58582 26.965529 11.751954-35.392767 2.888768 33.815z" fill="#826e5f"/><path d="m176.563755 43.945133-.269506-12.303778-4.767789 25.247186 2.622371 3.595544z" fill="#867466"/><path d="m208.891111 60.692893 2.382256 5.376488 4.442577-11.019571-4.360597-5.583871z" fill="#c5c2be"/><path d="m12.134491 165.240062-4.112689 18.708459 12.189342.803252.488179-13.769913z" fill="#6d645c"/><path d="m190.372026 173.22419-10.509883-38.637316-21.49658-2.080025 29.185973-2.424283z" fill="#cbcbc8"/><path d="m30.193524 145.275254-8.825502 28.056418.6851-7.471711 6.230922-20.629233z" fill="#887f76"/><path d="m190.237187 100.970843-5.648143 1.087092 34.313681 7.322417-8.079106 1.297696z" fill="#675b51"/><path d="m64.011177 112.48675 10.048545-19.404783-5.783978-6.885579 1.700754 28.637413z" fill="#5f4c3d"/><path d="m89.211487 144.943858 9.177835 7.909997-7.407241-12.967055-2.060424-2.173716z" fill="#8d7a6b"/><path d="m125.029028 49.1376-6.844043 23.212419-5.107895-11.672263-12.60514 24.344429z" fill="#6e6e6a"/><path d="m7.39337 71.317306-23.39337-9.717332 19.150652-7.110614-9.170643 19.098754z" fill="#908a84"/><path d="m229.318486 173.33772-12.282447-20.773006 13.227521 31.082057-4.327694-5.269124z" fill="#7e7368"/><path d="m199.067861 116.089694-17.192577-13.975122 19.0203 10.759983 29.593105-2.133159z" fill="#d7d9d7"/><path d="m209.572763 149.749175-1.574923-5.564789-27.931041-29.432173 33.584196 33.715592z" fill="#7f7164"/><path d="m40.23009 30.456577-23.972473-4.224702 9.242267-15.448203-35.069333 14.612577z" fill="#7a9296"/><path d="m97.287066 137.908884.925264 18.97186-3.616312-26.100548-10.557948.790024z" fill="#d0d2cf"/><path d="m233.813087 110.372305-16.411551-6.9917-.286592 2.896976 28.031797 4.534146z" fill="#948f88"/><path d="m231.217071 13.676117-4.889858-5.493523 5.475022 10.593664 10.281564 5.181603z" fill="#988b82"/><path d="m181.671494 148.495174 1.818649 15.597679 13.496722 20.907147-11.753736-23.869682z" fill="#6d6156"/><path d="m119.09568 185-3.468713-20.489116 13.095383 2.098564 22.791724 18.390552z" fill="#876d57"/><path d="m271-16-51.012344 30.869623-132.991644-5.568718 116.582933 11.132477z" fill="#7e9599"/><path d="m158.552959 121.261298 7.878216 12.491101-13.467486-11.587503 18.681861-13.243883z" fill="#605952"/><path d="m271 39.451102-27.488956-1.097589 27.488956 19.204871-46.86023 8.563669z" fill="#cdcdca"/><path d="m129.971556 135.690911-4.220755 17.770915-.068003.531804 26.255235 31.00637z" fill="#d1d1ce"/><path d="m198.064971 164.266963-.0364 20.733037-1.597894-30.693024-6.435245 19.816738z" fill="#77695d"/><path d="m200.026678 91.672358.422053 5.290005 35.137762 24.419881-14.500847-13.852024z" fill="#d2d3d2"/><path d="m87.752736 82.231951-6.162822 3.540246-6.887353 19.941499-16.517939 7.637436z" fill="#837365"/><path d="m249.122258 112.303318 17.18243-.122944-19.942998 5.33456.035011 9.341488z" fill="#4c433a"/><path d="m149.356038 131.107904 19.987473-8.721768-5.659846 6.287176-20.395917-.737926z" fill="#cfd0cd"/><path d="m252.743205 37.428492 18.256795 1.402226-19.818277-10.972556 9.063779 1.112052z" fill="#131616"/><path d="m142.229696 73.932549 5.847641 6.936635-1.075843 3.273588-5.4426-8.605885z" fill="#d2d2cd"/><path d="m156.758797 123.56534 10.893313-13.2884-16.529242 24.814514 2.064021 6.749172z" fill="#5c5044"/><path d="m118.079024 94.738513 4.026246 10.900536-14.064827 5.724986 6.991797-16.518807z" fill="#d7d8d7"/><path d="m199.425739 28.41239-2.018163 5.139639 21.84112 22.422891-10.600938-9.757966z" fill="#685d54"/><path d="m117.929263 131.143556-15.644715-7.83955 42.439186 10.905264-1.189089 1.176153z" fill="#d0d0cd"/><path d="m116.369025 123.157467-27.390844-2.957276 52.154374 3.902395-5.243339 1.058932z" fill="#736254"/><path d="m186.120268 121.949431-11.497612-6.251312 31.87457 9.292321 8.342463 8.704561z" fill="#8a7564"/><path d="m106.008139 69.450803-62.834971 10.301931 44.401438-1.965642 28.303437-19.799659z" fill="#d2d5d3"/><path d="m65.460875 63.096104-.774751 23.35843 1.96836 2.960198.360167-.292352z" fill="#b5ada4"/><path d="m52.675867 84.904121 1.309678 19.518056 5.318362-6.332796-2.569363.951157z" fill="#a89e95"/><path d="m2.805867 107.030101-.550674-5.012967-10.496941 9.105835-.36349 1.709717z" fill="#e5e6e3"/><path d="m143.506498 36.253569 27.970685-4.48523-65.073198-.441213 11.883836 23.52817z" fill="#cacdcc"/><path d="m122.647201 59.425927 3.028143 10.495293-.64477 15.791034-3.255729-15.6178z" fill="#ccccc8"/><path d="m38.964256 108.192092 40.693383-11.243461-51.90899 17.203295 20.717098-2.423293z" fill="#6d5b4d"/><path d="m34.37393 109.080602 16.726508 6.626529-53.299594 51.635581 45.511927-57.929697z" fill="#d4d4d4"/><path d="m262.533856 69.370991-43.705826 35.00047 1.734724-21.054298 46.902818 33.391873z" fill="#d2d3d1"/><path d="m141.43635 66.655292 13.841927 26.893467-1.7452-20.568068 13.510602 1.710371z" fill="#766558"/><path d="m128.085657 76.984733-1.151794-19.461793 2.744572-.301465-4.070974 19.577792z" fill="#7f746a"/><path d="m46.768054 98.208446 1.508437 6.43361-10.289309-7.042579 17.001704-7.393647z" fill="#cdcdca"/><path d="m175.41136 110.32541-6.694075 29.676432-1.986863.28684 8.406701-18.205546z" fill="#645a50"/><path d="m215.303517 31.414587-11.164623 23.568163 6.643645-19.864372 20.998141 3.070737z" fill="#898077"/><path d="m56.76256 116.590478-31.156018 55.547119 9.032369 12.862403-7.598288-38.103123z" fill="#d3d3d2"/><path d="m162.926954 98.531869 24.348925 11.814327 4.640232-.822257-28.406329-9.339483z" fill="#827b73"/><path d="m156.124858 56.25522-15.45867.438945-.230302-15.319376 2.560518-.733354z" fill="#cdccc8"/><path d="m127.647607 139.332962-4.718263.849895-30.054911-24.98422 2.530526 9.443782z" fill="#755e4d"/></g></svg>