<svg height="644" width="1024" xmlns="http://www.w3.org/2000/svg"><path d="m0 0h1024v644h-1024z" fill="#dcdddf"/><g fill-opacity=".501961" stroke-width="4"><ellipse cx="478" cy="570" fill="#66675f" rx="120" ry="120"/><ellipse cx="2" cy="158" fill="#aeafb0" rx="228" ry="228"/><ellipse cx="794" cy="342" fill="#f6f9fc" rx="284" ry="284"/><ellipse cx="526" cy="482" fill="#41575f" rx="52" ry="52"/><ellipse cx="350" cy="374" fill="#f4f7f6" rx="156" ry="156"/><ellipse cx="398" cy="642" fill="#8d8784" rx="104" ry="104"/><ellipse cx="698" cy="562" fill="#f6f7f8" rx="128" ry="128"/><ellipse cx="522" cy="238" fill="#f0f2f1" rx="216" ry="216"/><ellipse cx="550" cy="642" fill="#392f20" rx="32" ry="32"/><ellipse cx="2" cy="2" fill="#a4a4a5" rx="144" ry="144"/><ellipse cx="246" cy="226" fill="#dee0e1" rx="144" ry="144"/><ellipse cx="482" cy="642" fill="#282217" rx="32" ry="32"/><ellipse cx="2" cy="406" fill="#bdbfc1" rx="116" ry="116"/><ellipse cx="490" cy="558" fill="#f7f5e7" rx="32" ry="32"/><ellipse cx="542" cy="558" fill="#e5e5db" rx="28" ry="28"/><ellipse cx="286" cy="474" fill="#e9ebec" rx="124" ry="124"/><ellipse cx="1022" cy="70" fill="#d0d2d7" rx="152" ry="152"/><ellipse cx="222" cy="2" fill="#c4c3c5" rx="96" ry="96"/><ellipse cx="134" cy="582" fill="#edf0f0" rx="80" ry="80"/><ellipse cx="506" cy="498" fill="#50646f" rx="36" ry="36"/><ellipse cx="338" cy="614" fill="#b3b3b4" rx="64" ry="64"/><ellipse cx="730" cy="574" fill="#edeff1" rx="152" ry="152"/><ellipse cx="514" cy="642" fill="#5a5650" rx="32" ry="32"/><ellipse cx="474" cy="454" fill="#8a867b" rx="20" ry="20"/><ellipse cx="1022" cy="2" fill="#b6bec0" rx="68" ry="68"/><ellipse cx="430" cy="462" fill="#e5e6e6" rx="44" ry="44"/><ellipse cx="1022" cy="350" fill="#dfe2e6" rx="132" ry="132"/><ellipse cx="22" cy="342" fill="#c6c8ca" rx="124" ry="124"/><ellipse cx="562" cy="518" fill="#41515b" rx="12" ry="12"/><ellipse cx="542" cy="482" fill="#738590" rx="32" ry="32"/><ellipse cx="490" cy="610" fill="#ada99c" rx="20" ry="20"/><ellipse cx="526" cy="306" fill="#eef0f1" rx="132" ry="132"/><ellipse cx="410" cy="546" fill="#aea8a6" rx="36" ry="36"/><ellipse cx="482" cy="466" fill="#3e4e59" rx="12" ry="12"/><ellipse cx="42" cy="2" fill="#a1a1a1" rx="52" ry="52"/><ellipse cx="66" cy="154" fill="#bfbfc0" rx="84" ry="84"/><ellipse cx="818" cy="510" fill="#ebedf0" rx="176" ry="176"/><ellipse cx="558" cy="558" fill="#3e4b60" rx="8" ry="8"/><ellipse cx="486" cy="514" fill="#44535c" rx="16" ry="16"/><ellipse cx="1022" cy="530" fill="#dbe0e5" rx="100" ry="100"/><ellipse cx="542" cy="610" fill="#adaa9e" rx="20" ry="20"/><ellipse cx="742" cy="2" fill="#e0e2e5" rx="152" ry="152"/><ellipse cx="554" cy="486" fill="#b7d1db" rx="12" ry="12"/><ellipse cx="258" cy="642" fill="#bec2c2" rx="32" ry="32"/><ellipse cx="630" cy="270" fill="#edf0f0" rx="192" ry="192"/><ellipse cx="530" cy="562" fill="#d2d0c8" rx="28" ry="28"/><ellipse cx="566" cy="594" fill="#797366" rx="12" ry="12"/><ellipse cx="534" cy="558" fill="#616367" rx="8" ry="8"/><ellipse cx="526" cy="642" fill="#373330" rx="16" ry="16"/><ellipse cx="562" cy="466" fill="#788083" rx="16" ry="16"/><ellipse cx="566" cy="578" fill="#ece8dc" rx="12" ry="12"/><ellipse cx="566" cy="538" fill="#fefdef" rx="8" ry="8"/><ellipse cx="538" cy="594" fill="#574f43" rx="8" ry="8"/><ellipse cx="246" cy="234" fill="#dee0e1" rx="84" ry="84"/><ellipse cx="186" cy="2" fill="#bcbcbe" rx="48" ry="48"/><ellipse cx="458" cy="638" fill="#5d5a54" rx="28" ry="28"/><ellipse cx="526" cy="470" fill="#646f75" rx="20" ry="20"/><ellipse cx="402" cy="642" fill="#969292" rx="52" ry="52"/><ellipse cx="454" cy="506" fill="#c6c2ba" rx="20" ry="20"/><ellipse cx="910" cy="146" fill="#e5e5ea" rx="84" ry="84"/><ellipse cx="230" cy="98" fill="#d5d5d7" rx="64" ry="64"/><ellipse cx="230" cy="498" fill="#e6e9e9" rx="112" ry="112"/><ellipse cx="526" cy="590" fill="#23180f" rx="4" ry="4"/><ellipse cx="478" cy="2" fill="#dcdedf" rx="100" ry="100"/><ellipse cx="478" cy="642" fill="#35312a" rx="16" ry="16"/><ellipse cx="466" cy="478" fill="#98988e" rx="12" ry="12"/><ellipse cx="490" cy="514" fill="#58666d" rx="20" ry="20"/><ellipse cx="354" cy="406" fill="#e9ebec" rx="112" ry="112"/><ellipse cx="570" cy="630" fill="#7a7365" rx="16" ry="16"/><ellipse cx="530" cy="570" fill="#e5e5da" rx="12" ry="12"/><ellipse cx="514" cy="594" fill="#6b604f" rx="8" ry="8"/><ellipse cx="430" cy="538" fill="#a09b96" rx="36" ry="36"/><ellipse cx="550" cy="558" fill="#272d3e" rx="4" ry="4"/><ellipse cx="550" cy="590" fill="#22170e" rx="4" ry="4"/><ellipse cx="558" cy="506" fill="#65757c" rx="16" ry="16"/><ellipse cx="134" cy="318" fill="#d2d3d5" rx="52" ry="52"/><ellipse cx="706" cy="614" fill="#edeef1" rx="124" ry="124"/><ellipse cx="498" cy="594" fill="#73685a" rx="8" ry="8"/><ellipse cx="550" cy="642" fill="#3a3833" rx="12" ry="12"/><ellipse cx="574" cy="446" fill="#c2bcae" rx="12" ry="12"/><ellipse cx="2" cy="410" fill="#c2c5c5" rx="76" ry="76"/><ellipse cx="486" cy="198" fill="#e9ebec" rx="136" ry="136"/><ellipse cx="470" cy="594" fill="#6b624f" rx="8" ry="8"/><ellipse cx="2" cy="614" fill="#cbcecf" rx="36" ry="36"/><ellipse cx="818" cy="338" fill="#eeeef1" rx="140" ry="140"/><ellipse cx="2" cy="546" fill="#cccfcf" rx="36" ry="36"/><ellipse cx="106" cy="470" fill="#d7d9db" rx="52" ry="52"/><ellipse cx="526" cy="626" fill="#b9b4ab" rx="8" ry="8"/><ellipse cx="382" cy="562" fill="#afadae" rx="28" ry="28"/><ellipse cx="530" cy="542" fill="#e3e3d9" rx="12" ry="12"/><ellipse cx="482" cy="606" fill="#d5d4c8" rx="8" ry="8"/><ellipse cx="686" cy="126" fill="#e7e9ea" rx="88" ry="88"/><ellipse cx="562" cy="542" fill="#dedcd3" rx="12" ry="12"/><ellipse cx="522" cy="606" fill="#dcdacc" rx="8" ry="8"/><ellipse cx="562" cy="558" fill="#00113e" rx="4" ry="4"/><ellipse cx="142" cy="94" fill="#c7c7c8" rx="52" ry="52"/><ellipse cx="542" cy="606" fill="#d9dcd3" rx="8" ry="8"/><ellipse cx="558" cy="570" fill="#dddfd7" rx="12" ry="12"/><ellipse cx="486" cy="462" fill="#545d5f" rx="12" ry="12"/><ellipse cx="502" cy="614" fill="#343433" rx="4" ry="4"/><ellipse cx="514" cy="486" fill="#67767c" rx="36" ry="36"/><ellipse cx="578" cy="590" fill="#635e52" rx="4" ry="4"/><ellipse cx="322" cy="6" fill="#d6d5d7" rx="64" ry="64"/><ellipse cx="486" cy="590" fill="#7a6f60" rx="8" ry="8"/><ellipse cx="478" cy="570" fill="#d0cdc3" rx="20" ry="20"/><ellipse cx="546" cy="554" fill="#5c5858" rx="4" ry="4"/><ellipse cx="510" cy="626" fill="#dad5ca" rx="4" ry="4"/><ellipse cx="522" cy="642" fill="#45413d" rx="16" ry="16"/><ellipse cx="658" cy="462" fill="#f0f2f2" rx="84" ry="84"/><ellipse cx="854" cy="2" fill="#d3d3d9" rx="44" ry="44"/><ellipse cx="486" cy="434" fill="#e2e0da" rx="16" ry="16"/><ellipse cx="274" cy="582" fill="#d7d9da" rx="28" ry="28"/><ellipse cx="554" cy="478" fill="#a2bcc8" rx="12" ry="12"/><ellipse cx="554" cy="514" fill="#6b7a81" rx="20" ry="20"/><ellipse cx="542" cy="462" fill="#626d72" rx="12" ry="12"/><ellipse cx="450" cy="598" fill="#7c766e" rx="12" ry="12"/><ellipse cx="378" cy="94" fill="#e0e2e3" rx="60" ry="60"/><ellipse cx="326" cy="546" fill="#dadbdc" rx="24" ry="24"/><ellipse cx="466" cy="530" fill="#e1dfd0" rx="8" ry="8"/><ellipse cx="1022" cy="282" fill="#e0e3e6" rx="96" ry="96"/><ellipse cx="650" cy="562" fill="#eef0f1" rx="68" ry="68"/><ellipse cx="554" cy="606" fill="#d5d8cf" rx="8" ry="8"/><ellipse cx="498" cy="606" fill="#d5d3ca" rx="8" ry="8"/><ellipse cx="478" cy="622" fill="#cecac1" rx="4" ry="4"/><ellipse cx="442" cy="546" fill="#958e89" rx="20" ry="20"/><ellipse cx="330" cy="274" fill="#e3e5e6" rx="84" ry="84"/><ellipse cx="2" cy="202" fill="#bebfc0" rx="80" ry="80"/><ellipse cx="1022" cy="2" fill="#b4bbbc" rx="32" ry="32"/><ellipse cx="466" cy="446" fill="#beb9ad" rx="12" ry="12"/><ellipse cx="214" cy="394" fill="#e2e4e5" rx="52" ry="52"/><ellipse cx="974" cy="74" fill="#d3d6d9" rx="48" ry="48"/><ellipse cx="102" cy="226" fill="#cacbce" rx="44" ry="44"/><ellipse cx="486" cy="618" fill="#575450" rx="8" ry="8"/><ellipse cx="374" cy="610" fill="#a6a3a4" rx="24" ry="24"/><ellipse cx="566" cy="626" fill="#797164" rx="16" ry="16"/><ellipse cx="946" cy="2" fill="#cbccd0" rx="36" ry="36"/><ellipse cx="530" cy="618" fill="#696a66" rx="8" ry="8"/><ellipse cx="482" cy="486" fill="#556169" rx="12" ry="12"/><ellipse cx="514" cy="542" fill="#dbdbd3" rx="12" ry="12"/><ellipse cx="582" cy="610" fill="#dee0db" rx="12" ry="12"/><ellipse cx="866" cy="642" fill="#e6e8ec" rx="100" ry="100"/><ellipse cx="886" cy="226" fill="#e9eaee" rx="88" ry="88"/><ellipse cx="570" cy="618" fill="#6b675c" rx="8" ry="8"/><ellipse cx="470" cy="602" fill="#bdbaaa" rx="8" ry="8"/><ellipse cx="530" cy="474" fill="#778791" rx="16" ry="16"/><ellipse cx="70" cy="534" fill="#dee0e1" rx="48" ry="48"/><ellipse cx="362" cy="518" fill="#dedfe0" rx="20" ry="20"/><ellipse cx="466" cy="642" fill="#3f3a31" rx="12" ry="12"/><ellipse cx="506" cy="458" fill="#525555" rx="8" ry="8"/><ellipse cx="510" cy="606" fill="#cfcdc0" rx="8" ry="8"/><ellipse cx="658" cy="590" fill="#edeef0" rx="76" ry="76"/><ellipse cx="462" cy="482" fill="#c5c3ba" rx="12" ry="12"/><ellipse cx="450" cy="530" fill="#958e87" rx="12" ry="12"/><ellipse cx="526" cy="554" fill="#777574" rx="4" ry="4"/><ellipse cx="866" cy="70" fill="#dfdfe4" rx="48" ry="48"/><ellipse cx="514" cy="622" fill="#d3d0c7" rx="4" ry="4"/><ellipse cx="422" cy="522" fill="#afadab" rx="24" ry="24"/><ellipse cx="210" cy="642" fill="#d1d4d4" rx="28" ry="28"/><ellipse cx="566" cy="66" fill="#e1e3e4" rx="48" ry="48"/><ellipse cx="522" cy="626" fill="#d2cfc6" rx="4" ry="4"/><ellipse cx="298" cy="470" fill="#ebedee" rx="72" ry="72"/><ellipse cx="1022" cy="398" fill="#dae1e3" rx="40" ry="40"/><ellipse cx="442" cy="502" fill="#cbcdce" rx="12" ry="12"/><ellipse cx="550" cy="458" fill="#40474e" rx="4" ry="4"/><ellipse cx="554" cy="438" fill="#dbd7cc" rx="12" ry="12"/><ellipse cx="558" cy="642" fill="#57524a" rx="16" ry="16"/><ellipse cx="542" cy="618" fill="#686764" rx="8" ry="8"/><ellipse cx="526" cy="622" fill="#d2d2c7" rx="4" ry="4"/><ellipse cx="38" cy="66" fill="#b1b1b3" rx="36" ry="36"/><ellipse cx="566" cy="558" fill="#313e51" rx="4" ry="4"/><ellipse cx="522" cy="370" fill="#eef0f0" rx="72" ry="72"/><ellipse cx="566" cy="462" fill="#8a8e8d" rx="12" ry="12"/><ellipse cx="482" cy="626" fill="#999288" rx="8" ry="8"/><ellipse cx="470" cy="606" fill="#c8c5b9" rx="8" ry="8"/><ellipse cx="202" cy="290" fill="#dadcdd" rx="48" ry="48"/><ellipse cx="426" cy="582" fill="#989390" rx="32" ry="32"/><ellipse cx="1022" cy="518" fill="#dadfe4" rx="44" ry="44"/><ellipse cx="538" cy="598" fill="#b6b5ab" rx="4" ry="4"/><ellipse cx="474" cy="614" fill="#494747" rx="4" ry="4"/><ellipse cx="570" cy="570" fill="#d6d5cc" rx="12" ry="12"/><ellipse cx="34" cy="130" fill="#bababc" rx="52" ry="52"/><ellipse cx="558" cy="466" fill="#8caabd" rx="8" ry="8"/><ellipse cx="562" cy="594" fill="#6f6b63" rx="8" ry="8"/><ellipse cx="542" cy="558" fill="#555a5e" rx="4" ry="4"/><ellipse cx="466" cy="514" fill="#e5e0d3" rx="4" ry="4"/><ellipse cx="478" cy="550" fill="#d1cfc6" rx="20" ry="20"/><ellipse cx="222" cy="10" fill="#c8c8ca" rx="48" ry="48"/><ellipse cx="158" cy="2" fill="#b8b8ba" rx="32" ry="32"/><ellipse cx="442" cy="558" fill="#96918c" rx="20" ry="20"/><ellipse cx="562" cy="554" fill="#888177" rx="4" ry="4"/><ellipse cx="130" cy="406" fill="#d6d8d9" rx="32" ry="32"/><ellipse cx="122" cy="62" fill="#bdbdbf" rx="36" ry="36"/><ellipse cx="322" cy="602" fill="#bcbcbc" rx="24" ry="24"/><ellipse cx="458" cy="622" fill="#605849" rx="8" ry="8"/><ellipse cx="466" cy="466" fill="#d8d2c1" rx="4" ry="4"/><ellipse cx="522" cy="458" fill="#575c5d" rx="8" ry="8"/><ellipse cx="430" cy="622" fill="#8b8a87" rx="20" ry="20"/><ellipse cx="186" cy="546" fill="#e6e8e9" rx="80" ry="80"/><ellipse cx="642" cy="626" fill="#ebedef" rx="60" ry="60"/><ellipse cx="530" cy="610" fill="#dcddd6" rx="4" ry="4"/><ellipse cx="506" cy="562" fill="#d5d5ce" rx="20" ry="20"/><ellipse cx="558" cy="626" fill="#c2b391" rx="4" ry="4"/><ellipse cx="130" cy="166" fill="#ccccce" rx="36" ry="36"/><ellipse cx="506" cy="618" fill="#575755" rx="4" ry="4"/><ellipse cx="486" cy="638" fill="#423f3b" rx="12" ry="12"/><ellipse cx="570" cy="590" fill="#504944" rx="4" ry="4"/><ellipse cx="462" cy="462" fill="#b3afa3" rx="8" ry="8"/><ellipse cx="450" cy="518" fill="#9b9790" rx="12" ry="12"/><ellipse cx="1022" cy="74" fill="#c7ced0" rx="28" ry="28"/><ellipse cx="30" cy="2" fill="#a3a3a2" rx="28" ry="28"/><ellipse cx="430" cy="462" fill="#e5e7e8" rx="24" ry="24"/><ellipse cx="1022" cy="626" fill="#d1d5dd" rx="32" ry="32"/><ellipse cx="498" cy="442" fill="#d2cbbb" rx="12" ry="12"/><ellipse cx="62" cy="590" fill="#e2e4e5" rx="44" ry="44"/><ellipse cx="558" cy="510" fill="#68767d" rx="16" ry="16"/><ellipse cx="538" cy="590" fill="#46403b" rx="4" ry="4"/><ellipse cx="526" cy="558" fill="#5c626b" rx="4" ry="4"/><ellipse cx="582" cy="474" fill="#d8d7cd" rx="8" ry="8"/><ellipse cx="282" cy="66" fill="#d9d9db" rx="40" ry="40"/><ellipse cx="554" cy="598" fill="#95948b" rx="8" ry="8"/><ellipse cx="558" cy="486" fill="#dfe7e9" rx="4" ry="4"/><ellipse cx="146" cy="502" fill="#e0e2e2" rx="40" ry="40"/><ellipse cx="886" cy="490" fill="#eaeaef" rx="76" ry="76"/><ellipse cx="546" cy="542" fill="#dcdcd4" rx="12" ry="12"/><ellipse cx="522" cy="598" fill="#949085" rx="8" ry="8"/><ellipse cx="1022" cy="198" fill="#dde1e3" rx="68" ry="68"/><ellipse cx="2" cy="402" fill="#c5c7c9" rx="92" ry="92"/><ellipse cx="390" cy="534" fill="#bbbabb" rx="16" ry="16"/><ellipse cx="418" cy="546" fill="#a49f9d" rx="20" ry="20"/><ellipse cx="474" cy="558" fill="#c09296" rx="4" ry="4"/><ellipse cx="546" cy="506" fill="#738690" rx="16" ry="16"/><ellipse cx="958" cy="626" fill="#dbe1e5" rx="36" ry="36"/><ellipse cx="498" cy="590" fill="#847b6f" rx="8" ry="8"/><ellipse cx="466" cy="590" fill="#645a4c" rx="4" ry="4"/><ellipse cx="778" cy="2" fill="#d8d9dd" rx="36" ry="36"/><ellipse cx="530" cy="442" fill="#e1d4be" rx="8" ry="8"/><ellipse cx="302" cy="566" fill="#d5d6d8" rx="20" ry="20"/><ellipse cx="18" cy="518" fill="#cdd0d0" rx="28" ry="28"/><ellipse cx="502" cy="626" fill="#b4b0a6" rx="4" ry="4"/><ellipse cx="478" cy="482" fill="#4d5a62" rx="4" ry="4"/><ellipse cx="510" cy="642" fill="#504c47" rx="16" ry="16"/><ellipse cx="538" cy="570" fill="#dad9cf" rx="12" ry="12"/><ellipse cx="774" cy="66" fill="#e2e3e6" rx="44" ry="44"/><ellipse cx="318" cy="634" fill="#b3b4b4" rx="32" ry="32"/><ellipse cx="762" cy="190" fill="#ebedef" rx="80" ry="80"/><ellipse cx="566" cy="610" fill="#e1ded3" rx="4" ry="4"/><ellipse cx="554" cy="482" fill="#dce5e8" rx="4" ry="4"/><ellipse cx="462" cy="490" fill="#b8b5ab" rx="8" ry="8"/><ellipse cx="2" cy="342" fill="#c4c6c7" rx="92" ry="92"/><ellipse cx="442" cy="478" fill="#e3e5e7" rx="12" ry="12"/><ellipse cx="926" cy="326" fill="#e9e9ee" rx="60" ry="60"/><ellipse cx="506" cy="622" fill="#aaa7a0" rx="4" ry="4"/><ellipse cx="582" cy="502" fill="#dad8ce" rx="8" ry="8"/><ellipse cx="522" cy="594" fill="#6c685d" rx="4" ry="4"/><ellipse cx="466" cy="522" fill="#dfded2" rx="4" ry="4"/><ellipse cx="654" cy="534" fill="#eef1f1" rx="72" ry="72"/><ellipse cx="338" cy="178" fill="#e4e6e7" rx="52" ry="52"/><ellipse cx="486" cy="382" fill="#eceeef" rx="56" ry="56"/><ellipse cx="474" cy="442" fill="#d8d3c9" rx="8" ry="8"/><ellipse cx="978" cy="130" fill="#dcdde1" rx="32" ry="32"/><ellipse cx="570" cy="486" fill="#969997" rx="8" ry="8"/><ellipse cx="378" cy="514" fill="#dddee0" rx="16" ry="16"/><ellipse cx="466" cy="614" fill="#504f48" rx="4" ry="4"/><ellipse cx="274" cy="606" fill="#d4d7d8" rx="16" ry="16"/><ellipse cx="574" cy="626" fill="#8c8371" rx="8" ry="8"/><ellipse cx="578" cy="598" fill="#d8dad1" rx="4" ry="4"/><ellipse cx="518" cy="614" fill="#565552" rx="4" ry="4"/><ellipse cx="554" cy="594" fill="#716b62" rx="4" ry="4"/><ellipse cx="466" cy="486" fill="#d6d4cb" rx="4" ry="4"/><ellipse cx="518" cy="530" fill="#929896" rx="4" ry="4"/><ellipse cx="366" cy="2" fill="#d7d7d9" rx="52" ry="52"/><ellipse cx="578" cy="582" fill="#c3c2b5" rx="8" ry="8"/><ellipse cx="566" cy="510" fill="#5a5f5f" rx="8" ry="8"/><ellipse cx="550" cy="586" fill="#cfc6b7" rx="4" ry="4"/><ellipse cx="358" cy="538" fill="#d2d2d3" rx="12" ry="12"/><ellipse cx="2" cy="642" fill="#cbcecf" rx="28" ry="28"/><ellipse cx="518" cy="442" fill="#dbd2bc" rx="8" ry="8"/><ellipse cx="1022" cy="310" fill="#dee2e5" rx="52" ry="52"/><ellipse cx="494" cy="610" fill="#cfcfc7" rx="4" ry="4"/><ellipse cx="674" cy="422" fill="#eff1f2" rx="92" ry="92"/><ellipse cx="578" cy="510" fill="#d8d3c3" rx="4" ry="4"/><ellipse cx="90" cy="18" fill="#afafb1" rx="28" ry="28"/><ellipse cx="514" cy="602" fill="#b7b4aa" rx="8" ry="8"/><ellipse cx="562" cy="458" fill="#5d626a" rx="4" ry="4"/><ellipse cx="538" cy="530" fill="#95a0a0" rx="4" ry="4"/><ellipse cx="378" cy="582" fill="#a9a6a7" rx="28" ry="28"/><ellipse cx="650" cy="78" fill="#e3e6e6" rx="44" ry="44"/><ellipse cx="678" cy="2" fill="#dcdede" rx="52" ry="52"/><ellipse cx="258" cy="238" fill="#dee0e1" rx="56" ry="56"/><ellipse cx="506" cy="578" fill="#cfcdc3" rx="12" ry="12"/><ellipse cx="566" cy="454" fill="#706352" rx="4" ry="4"/><ellipse cx="354" cy="430" fill="#eceeef" rx="56" ry="56"/><ellipse cx="498" cy="602" fill="#b4b2a9" rx="8" ry="8"/><ellipse cx="882" cy="2" fill="#d4d4d8" rx="36" ry="36"/><ellipse cx="550" cy="526" fill="#82919a" rx="8" ry="8"/><ellipse cx="574" cy="542" fill="#deddd2" rx="8" ry="8"/><ellipse cx="234" cy="162" fill="#dadbdc" rx="36" ry="36"/><ellipse cx="466" cy="622" fill="#8a7f70" rx="4" ry="4"/><ellipse cx="546" cy="470" fill="#738892" rx="8" ry="8"/><ellipse cx="490" cy="618" fill="#65635c" rx="8" ry="8"/></g></svg>