<svg height="680" width="1024" xmlns="http://www.w3.org/2000/svg"><path d="m0 0h1024v680h-1024z" fill="#476b71"/><g fill-opacity=".501961" stroke-width="4"><ellipse cx="1022" cy="2" fill="#a4ffff" rx="460" ry="412"/><ellipse cx="154" cy="414" fill="#1b150b" rx="612" ry="372"/><ellipse cx="802" cy="2" fill="#5effff" rx="424" ry="192"/><ellipse cx="1022" cy="294" fill="#b2ffff" rx="160" ry="232"/><ellipse cx="482" cy="2" fill="#30eaff" rx="212" ry="68"/><ellipse cx="106" cy="110" fill="#16211c" rx="160" ry="444"/><ellipse cx="882" cy="194" fill="#84e8ff" rx="180" ry="136"/><ellipse cx="718" cy="406" fill="#57483b" rx="132" ry="120"/><ellipse cx="1022" cy="374" fill="#adfcff" rx="84" ry="188"/><ellipse cx="682" cy="622" fill="#5b5d57" rx="328" ry="252"/><ellipse cx="658" cy="38" fill="#4ed4ff" rx="208" ry="112"/><ellipse cx="670" cy="338" fill="#41443d" rx="104" ry="104"/><ellipse cx="910" cy="238" fill="#86e1ff" rx="148" ry="132"/><ellipse cx="402" cy="190" fill="#2d2e28" rx="160" ry="104"/><ellipse cx="274" cy="602" fill="#e6e3dc" rx="20" ry="20"/><ellipse cx="834" cy="2" fill="#73daff" rx="320" ry="248"/><ellipse cx="918" cy="658" fill="#b1b3a8" rx="40" ry="52"/><ellipse cx="402" cy="2" fill="#3ed9ff" rx="168" ry="36"/><ellipse cx="314" cy="514" fill="#e9eae3" rx="20" ry="16"/><ellipse cx="170" cy="558" fill="#83b1ba" rx="20" ry="48"/><ellipse cx="1014" cy="394" fill="#a2eeff" rx="108" ry="108"/><ellipse cx="50" cy="546" fill="#75a9b6" rx="20" ry="44"/><ellipse cx="206" cy="482" fill="#9ec3c9" rx="16" ry="32"/><ellipse cx="90" cy="466" fill="#a8c9d1" rx="16" ry="24"/><ellipse cx="746" cy="406" fill="#494a42" rx="120" ry="84"/><ellipse cx="558" cy="2" fill="#3ad0ff" rx="224" ry="88"/><ellipse cx="482" cy="650" fill="#fffff4" rx="24" ry="12"/><ellipse cx="378" cy="618" fill="#c7d3d0" rx="28" ry="16"/><ellipse cx="538" cy="258" fill="#968a7a" rx="8" ry="136"/><ellipse cx="222" cy="66" fill="#332f28" rx="128" ry="52"/><ellipse cx="414" cy="530" fill="#8db3b8" rx="24" ry="28"/><ellipse cx="506" cy="266" fill="#887d6d" rx="8" ry="156"/><ellipse cx="138" cy="678" fill="#0d3c44" rx="292" ry="80"/><ellipse cx="1022" cy="514" fill="#cbffff" rx="24" ry="68"/><ellipse cx="342" cy="446" fill="#a0c0c7" rx="20" ry="16"/><ellipse cx="442" cy="574" rx="24" ry="32"/><ellipse cx="474" cy="218" fill="#dec0a3" rx="4" ry="92"/><ellipse cx="478" cy="510" rx="24" ry="32"/><ellipse cx="606" cy="582" fill="#688c91" rx="28" ry="56"/><ellipse cx="858" cy="530" fill="#645a4c" rx="96" ry="108"/><ellipse cx="886" cy="546" fill="#d4ba9f" rx="40" ry="16"/><ellipse cx="842" cy="590" fill="#8c9c99" rx="44" ry="36"/><ellipse cx="566" cy="254" fill="#968372" rx="8" ry="120"/><ellipse cx="514" cy="570" fill="#c7d1cd" rx="24" ry="12"/><ellipse cx="2" cy="618" fill="#22afd6" rx="20" ry="32"/><ellipse cx="754" cy="626" rx="16" ry="28"/><ellipse cx="598" cy="254" fill="#a19280" rx="8" ry="80"/><ellipse cx="634" cy="642" rx="24" ry="24"/><ellipse cx="442" cy="198" fill="#b6ac9b" rx="4" ry="140"/><ellipse cx="538" cy="510" fill="#7fb6c2" rx="24" ry="20"/><ellipse cx="62" cy="670" fill="#02140f" rx="36" ry="96"/><ellipse cx="522" cy="446" fill="#080c08" rx="32" ry="32"/><ellipse cx="326" cy="394" fill="#031314" rx="32" ry="60"/><ellipse cx="118" cy="634" fill="#4190a4" rx="16" ry="44"/><ellipse cx="910" cy="270" fill="#8ee3ff" rx="116" ry="116"/><ellipse cx="966" cy="602" fill="#c0a185" rx="40" ry="16"/><ellipse cx="134" cy="394" fill="#7f9b9f" rx="16" ry="24"/><ellipse cx="382" cy="394" fill="#dfe1dd" rx="12" ry="12"/><ellipse cx="570" cy="546" fill="#010502" rx="20" ry="36"/><ellipse cx="530" cy="610" rx="28" ry="16"/><ellipse cx="178" cy="334" fill="#888b86" rx="20" ry="20"/><ellipse cx="242" cy="634" fill="#3995a9" rx="20" ry="28"/><ellipse cx="482" cy="414" fill="#88a2a3" rx="20" ry="24"/><ellipse cx="626" cy="278" fill="#dbbea0" rx="8" ry="28"/><ellipse cx="166" cy="678" fill="#000500" rx="32" ry="68"/><ellipse cx="554" cy="222" fill="#091010" rx="12" ry="88"/><ellipse cx="442" cy="474" fill="#6b9da8" rx="20" ry="32"/><ellipse cx="294" cy="534" fill="#59848c" rx="16" ry="68"/><ellipse cx="270" cy="462" fill="#010c09" rx="24" ry="52"/><ellipse cx="226" cy="558" fill="#051a1d" rx="32" ry="64"/><ellipse cx="258" cy="310" fill="#070e0d" rx="36" ry="52"/><ellipse cx="282" cy="354" fill="#99a4a2" rx="16" ry="20"/><ellipse cx="250" cy="422" fill="#919690" rx="20" ry="20"/><ellipse cx="350" cy="634" fill="#38717e" rx="24" ry="60"/><ellipse cx="110" cy="534" fill="#001314" rx="28" ry="64"/><ellipse cx="1010" cy="678" fill="#efc9ac" rx="28" ry="20"/><ellipse cx="750" cy="194" fill="#99e5ff" rx="96" ry="44"/><ellipse cx="830" cy="678" rx="24" ry="16"/><ellipse cx="658" cy="302" fill="#898075" rx="8" ry="116"/><ellipse cx="170" cy="574" fill="#ffddc8" rx="16" ry="16"/><ellipse cx="502" cy="318" fill="#0f100b" rx="28" ry="40"/><ellipse cx="590" cy="678" fill="#fffffa" rx="20" ry="8"/><ellipse cx="702" cy="310" fill="#1d2321" rx="76" ry="20"/><ellipse cx="154" cy="598" fill="#c6d8d7" rx="12" ry="16"/><ellipse cx="670" cy="490" fill="#738f8e" rx="28" ry="36"/><ellipse cx="946" cy="670" fill="#294c57" rx="32" ry="40"/><ellipse cx="638" cy="582" fill="#00161a" rx="44" ry="16"/><ellipse cx="270" cy="590" fill="#8aadb4" rx="12" ry="44"/><ellipse cx="782" cy="582" fill="#040502" rx="20" ry="24"/><ellipse cx="1022" cy="174" fill="#97e3ff" rx="80" ry="384"/><ellipse cx="626" cy="242" fill="#222421" rx="68" ry="24"/><ellipse cx="562" cy="394" fill="#0e0e07" rx="32" ry="28"/><ellipse cx="574" cy="462" fill="#86a7ab" rx="24" ry="20"/><ellipse cx="730" cy="658" fill="#24211d" rx="20" ry="40"/><ellipse cx="614" cy="490" rx="12" ry="36"/><ellipse cx="338" cy="546" fill="#000101" rx="20" ry="32"/><ellipse cx="714" cy="650" fill="#f8f0e7" rx="16" ry="8"/><ellipse cx="354" cy="422" fill="#668081" rx="28" ry="28"/><ellipse cx="78" cy="494" fill="#8eafae" rx="12" ry="20"/><ellipse cx="866" cy="610" fill="#24383f" rx="40" ry="28"/><ellipse cx="766" cy="414" fill="#92816c" rx="60" ry="16"/><ellipse cx="822" cy="442" fill="#2a312e" rx="84" ry="20"/><ellipse cx="806" cy="626" fill="#86a2a5" rx="20" ry="48"/><ellipse cx="418" cy="438" fill="#001115" rx="16" ry="64"/><ellipse cx="370" cy="326" fill="#0c100d" rx="32" ry="44"/><ellipse cx="418" cy="342" fill="#919c97" rx="20" ry="16"/><ellipse cx="442" cy="382" fill="#130f09" rx="24" ry="44"/><ellipse cx="174" cy="518" fill="#00394d" rx="16" ry="44"/><ellipse cx="410" cy="650" fill="#080a0a" rx="24" ry="32"/><ellipse cx="2" cy="386" fill="#89a6ae" rx="20" ry="16"/><ellipse cx="778" cy="378" fill="#2e2e28" rx="80" ry="24"/><ellipse cx="650" cy="454" fill="#1b1f18" rx="28" ry="36"/><ellipse cx="2" cy="534" fill="#001b27" rx="40" ry="48"/><ellipse cx="930" cy="618" fill="#d6b9a0" rx="28" ry="20"/><ellipse cx="438" cy="362" fill="#8e8777" rx="4" ry="180"/><ellipse cx="502" cy="582" fill="#84a3aa" rx="16" ry="24"/><ellipse cx="626" cy="390" fill="#a6ab9c" rx="8" ry="40"/><ellipse cx="842" cy="530" fill="#2a2923" rx="32" ry="24"/><ellipse cx="206" cy="294" fill="#7e8582" rx="16" ry="20"/><ellipse cx="642" cy="530" fill="#6e8e91" rx="28" ry="36"/><ellipse cx="214" cy="362" fill="#0b1310" rx="44" ry="40"/><ellipse cx="42" cy="566" fill="#a1afad" rx="12" ry="32"/><ellipse cx="1010" cy="382" fill="#9ce8ff" rx="128" ry="80"/><ellipse cx="418" cy="278" fill="#00090c" rx="12" ry="56"/><ellipse cx="846" cy="478" fill="#af9074" rx="56" ry="12"/><ellipse cx="466" cy="662" fill="#829ca1" rx="12" ry="64"/><ellipse cx="954" cy="566" fill="#293332" rx="60" ry="16"/><ellipse cx="410" cy="142" fill="#a4a496" rx="4" ry="84"/><ellipse cx="510" cy="378" fill="#889c9b" rx="20" ry="16"/><ellipse cx="898" cy="502" fill="#2c3231" rx="64" ry="16"/><ellipse cx="142" cy="290" fill="#061514" rx="40" ry="56"/><ellipse cx="382" cy="510" fill="#002530" rx="12" ry="104"/><ellipse cx="366" cy="86" fill="#372f2a" rx="16" ry="40"/><ellipse cx="518" cy="26" fill="#47d7ff" rx="24" ry="104"/><ellipse cx="690" cy="310" fill="#8f816f" rx="8" ry="68"/><ellipse cx="314" cy="2" fill="#52d0fe" rx="112" ry="16"/><ellipse cx="270" cy="678" rx="24" ry="40"/><ellipse cx="310" cy="318" fill="#728383" rx="16" ry="28"/><ellipse cx="298" cy="262" fill="#091817" rx="32" ry="56"/><ellipse cx="770" cy="514" fill="#828980" rx="32" ry="28"/><ellipse cx="694" cy="534" fill="#030400" rx="16" ry="24"/><ellipse cx="762" cy="670" fill="#cbb39a" rx="12" ry="28"/><ellipse cx="694" cy="658" fill="#b8bebd" rx="24" ry="12"/><ellipse cx="714" cy="450" fill="#aaaba1" rx="8" ry="32"/><ellipse cx="542" cy="354" fill="#7f9290" rx="20" ry="20"/><ellipse cx="194" cy="602" fill="#13120e" rx="24" ry="28"/><ellipse cx="70" cy="18" fill="#36352c" rx="172" ry="72"/><ellipse cx="886" cy="678" fill="#dcd2bf" rx="16" ry="36"/><ellipse cx="614" cy="614" fill="#d0c4bb" rx="20" ry="12"/><ellipse cx="470" cy="410" fill="#8b8373" rx="4" ry="192"/><ellipse cx="790" cy="326" rx="12" ry="12"/><ellipse cx="154" cy="438" fill="#07110d" rx="24" ry="48"/><ellipse cx="346" cy="282" fill="#6e8383" rx="16" ry="20"/><ellipse cx="802" cy="558" fill="#1b1a16" rx="20" ry="28"/><ellipse cx="726" cy="346" fill="#9e8972" rx="24" ry="16"/><ellipse cx="230" cy="650" fill="#619ca2" rx="8" ry="48"/><ellipse cx="374" cy="626" fill="#c4b7ad" rx="16" ry="20"/><ellipse cx="306" cy="618" fill="#0c0805" rx="20" ry="28"/><ellipse cx="730" cy="342" fill="#141f1e" rx="8" ry="80"/><ellipse cx="190" cy="486" fill="#709194" rx="8" ry="48"/><ellipse cx="510" cy="678" fill="#030102" rx="20" ry="32"/><ellipse cx="514" cy="510" fill="#003746" rx="8" ry="68"/><ellipse cx="586" cy="186" fill="#0b1113" rx="12" ry="32"/><ellipse cx="454" cy="238" fill="#061111" rx="16" ry="44"/><ellipse cx="738" cy="486" fill="#131713" rx="32" ry="16"/><ellipse cx="546" cy="306" fill="#000b0f" rx="8" ry="48"/><ellipse cx="562" cy="662" fill="#8f9b94" rx="8" ry="68"/><ellipse cx="110" cy="430" fill="#45686f" rx="16" ry="32"/><ellipse cx="418" cy="494" fill="#104f5e" rx="16" ry="44"/><ellipse cx="374" cy="214" fill="#a8a18e" rx="4" ry="48"/><ellipse cx="402" cy="514" fill="#cab59d" rx="4" ry="64"/><ellipse cx="54" cy="326" fill="#808c8b" rx="12" ry="20"/><ellipse cx="546" cy="598" fill="#010603" rx="16" ry="32"/><ellipse cx="2" cy="266" fill="#091816" rx="76" ry="64"/><ellipse cx="730" cy="542" fill="#beaa8e" rx="16" ry="16"/><ellipse cx="26" cy="570" fill="#177187" rx="12" ry="44"/><ellipse cx="830" cy="598" fill="#839491" rx="36" ry="36"/><ellipse cx="90" cy="366" fill="#051311" rx="20" ry="72"/><ellipse cx="734" cy="250" fill="#83ecff" rx="16" ry="20"/><ellipse cx="786" cy="626" fill="#f7d0b0" rx="12" ry="12"/><ellipse cx="486" cy="290" fill="#0b2022" rx="12" ry="136"/><ellipse cx="282" cy="590" fill="#dcc2b1" rx="20" ry="12"/><ellipse cx="506" cy="242" fill="#af9b83" rx="4" ry="104"/><ellipse cx="410" cy="586" rx="12" ry="12"/><ellipse cx="278" cy="534" fill="#004860" rx="12" ry="52"/><ellipse cx="762" cy="314" fill="#00080f" rx="8" ry="28"/><ellipse cx="158" cy="350" fill="#668086" rx="12" ry="28"/><ellipse cx="270" cy="454" fill="#141915" rx="28" ry="40"/><ellipse cx="710" cy="590" fill="#58838a" rx="32" ry="32"/><ellipse cx="10" cy="466" fill="#0a2423" rx="72" ry="52"/><ellipse cx="670" cy="574" fill="#040200" rx="12" ry="28"/><ellipse cx="370" cy="350" fill="#8f8b7e" rx="4" ry="64"/><ellipse cx="210" cy="434" fill="#002636" rx="12" ry="44"/><ellipse cx="678" cy="626" fill="#e1cfb6" rx="8" ry="16"/><ellipse cx="486" cy="566" fill="#006c94" rx="16" ry="16"/><ellipse cx="818" cy="634" fill="#135068" rx="24" ry="20"/><ellipse cx="322" cy="486" fill="#56787a" rx="32" ry="24"/><ellipse cx="674" cy="414" fill="#000707" rx="16" ry="20"/><ellipse cx="750" cy="434" fill="#505853" rx="8" ry="136"/><ellipse cx="446" cy="646" fill="#005570" rx="12" ry="44"/><ellipse cx="610" cy="330" fill="#011c1e" rx="8" ry="88"/><ellipse cx="846" cy="666" rx="12" ry="16"/><ellipse cx="2" cy="678" fill="#72959d" rx="12" ry="56"/><ellipse cx="502" cy="638" fill="#fffaed" rx="12" ry="8"/><ellipse cx="602" cy="422" fill="#809896" rx="16" ry="20"/><ellipse cx="390" cy="374" fill="#6a7f80" rx="24" ry="20"/><ellipse cx="566" cy="410" fill="#969285" rx="4" ry="108"/><ellipse cx="378" cy="678" rx="16" ry="24"/><ellipse cx="242" cy="586" fill="#054150" rx="24" ry="24"/><ellipse cx="318" cy="14" fill="#50eaff" rx="12" ry="32"/><ellipse cx="870" cy="630" fill="#040200" rx="16" ry="16"/><ellipse cx="138" cy="614" fill="#23849c" rx="16" ry="24"/><ellipse cx="514" cy="282" fill="#001c1f" rx="8" ry="104"/><ellipse cx="706" cy="262" fill="#0d1011" rx="12" ry="20"/><ellipse cx="698" cy="638" fill="#001a1f" rx="20" ry="12"/><ellipse cx="450" cy="482" fill="#eee3db" rx="16" ry="8"/><ellipse cx="238" cy="246" fill="#717d79" rx="8" ry="28"/><ellipse cx="342" cy="130" fill="#847b69" rx="8" ry="36"/><ellipse cx="910" cy="90" fill="#70daff" rx="80" ry="104"/><ellipse cx="190" cy="558" fill="#fddfd0" rx="8" ry="8"/><ellipse cx="618" cy="654" fill="#00080a" rx="28" ry="12"/><ellipse cx="578" cy="374" fill="#12130e" rx="16" ry="32"/><ellipse cx="630" cy="246" fill="#c7a88f" rx="4" ry="64"/><ellipse cx="354" cy="210" fill="#001013" rx="16" ry="44"/><ellipse cx="302" cy="562" rx="8" ry="16"/><ellipse cx="778" cy="438" fill="#4d5049" rx="8" ry="116"/><ellipse cx="422" cy="542" fill="#fed9c4" rx="16" ry="8"/><ellipse cx="914" cy="534" fill="#b5a28d" rx="20" ry="24"/><ellipse cx="406" cy="266" fill="#837e6f" rx="4" ry="120"/><ellipse cx="78" cy="602" fill="#142726" rx="36" ry="40"/><ellipse cx="918" cy="486" fill="#233333" rx="8" ry="44"/><ellipse cx="466" cy="474" fill="#fff7ef" rx="8" ry="8"/><ellipse cx="606" cy="566" fill="#0b4d5c" rx="12" ry="44"/><ellipse cx="426" cy="146" fill="#0e191a" rx="12" ry="68"/><ellipse cx="646" cy="230" fill="#041115" rx="12" ry="32"/><ellipse cx="298" cy="490" fill="#9e998b" rx="4" ry="68"/><ellipse cx="338" cy="610" fill="#003443" rx="32" ry="16"/><ellipse cx="578" cy="334" fill="#879c9d" rx="16" ry="12"/><ellipse cx="398" cy="610" fill="#ffe2d1" rx="12" ry="8"/><ellipse cx="534" cy="486" fill="#a8a291" rx="4" ry="56"/><ellipse cx="834" cy="494" fill="#535953" rx="8" ry="140"/><ellipse cx="390" cy="246" fill="#0a1f22" rx="12" ry="132"/><ellipse cx="62" cy="522" fill="#165d72" rx="20" ry="24"/><ellipse cx="206" cy="494" fill="#eccab3" rx="12" ry="12"/><ellipse cx="654" cy="494" fill="#d4c5ae" rx="4" ry="32"/><ellipse cx="482" cy="102" fill="#66f3ff" rx="8" ry="12"/><ellipse cx="458" cy="134" fill="#101415" rx="12" ry="44"/><ellipse cx="266" cy="366" fill="#657b7c" rx="8" ry="44"/><ellipse cx="350" cy="370" fill="#00181c" rx="12" ry="72"/><ellipse cx="902" cy="646" fill="#dbc0a6" rx="24" ry="16"/><ellipse cx="382" cy="562" fill="#2c616c" rx="20" ry="52"/><ellipse cx="90" cy="306" fill="#3f4742" rx="24" ry="52"/><ellipse cx="382" cy="462" fill="#140a01" rx="20" ry="28"/><ellipse cx="570" cy="618" fill="#105a6e" rx="8" ry="52"/><ellipse cx="518" cy="6" fill="#41d0ff" rx="152" ry="88"/><ellipse cx="678" cy="246" fill="#041519" rx="8" ry="32"/><ellipse cx="738" cy="430" fill="#b4afa0" rx="8" ry="24"/><ellipse cx="598" cy="498" fill="#181812" rx="20" ry="28"/><ellipse cx="538" cy="222" fill="#f6d7b9" rx="4" ry="32"/><ellipse cx="630" cy="562" fill="#a2a5a0" rx="12" ry="16"/><ellipse cx="306" cy="530" fill="#beb8b1" rx="12" ry="16"/><ellipse cx="618" cy="234" fill="#1c2220" rx="12" ry="56"/><ellipse cx="590" cy="602" fill="#9c9e95" rx="8" ry="48"/><ellipse cx="658" cy="274" fill="#c1a98f" rx="8" ry="24"/><ellipse cx="2" cy="550" fill="#001c28" rx="40" ry="24"/><ellipse cx="526" cy="170" fill="#131718" rx="12" ry="44"/><ellipse cx="494" cy="158" fill="#1e1f1e" rx="12" ry="56"/><ellipse cx="718" cy="302" fill="#918272" rx="8" ry="48"/><ellipse cx="634" cy="678" fill="#221f18" rx="16" ry="64"/><ellipse cx="570" cy="286" fill="#a5937d" rx="4" ry="116"/><ellipse cx="334" cy="678" fill="#c09f84" rx="4" ry="68"/><ellipse cx="714" cy="298" fill="#1c2525" rx="40" ry="16"/><ellipse cx="910" cy="678" fill="#247695" rx="24" ry="16"/><ellipse cx="434" cy="102" fill="#362927" rx="8" ry="28"/><ellipse cx="498" cy="626" rx="16" ry="8"/><ellipse cx="602" cy="226" fill="#b3a08c" rx="4" ry="60"/><ellipse cx="454" cy="542" rx="12" ry="16"/><ellipse cx="890" cy="482" fill="#4b473d" rx="12" ry="64"/><ellipse cx="906" cy="602" fill="#322f28" rx="24" ry="20"/><ellipse cx="302" cy="86" fill="#46453d" rx="8" ry="76"/><ellipse cx="542" cy="678" fill="#067fa4" rx="12" ry="32"/><ellipse cx="542" cy="562" fill="#f1e2d7" rx="8" ry="8"/><ellipse cx="642" cy="406" fill="#9dacb0" rx="12" ry="12"/><ellipse cx="766" cy="414" fill="#b5a592" rx="8" ry="28"/><ellipse cx="1014" cy="638" fill="#465251" rx="68" ry="32"/><ellipse cx="150" cy="150" fill="#1b2a26" rx="152" ry="76"/><ellipse cx="266" cy="106" fill="#3e3f39" rx="8" ry="112"/><ellipse cx="638" cy="530" fill="#00445e" rx="12" ry="20"/><ellipse cx="790" cy="494" fill="#dcc1a6" rx="8" ry="16"/><ellipse cx="318" cy="306" fill="#95a09b" rx="16" ry="12"/><ellipse cx="990" cy="574" fill="#454b46" rx="8" ry="44"/><ellipse cx="710" cy="582" fill="#b5a692" rx="8" ry="28"/><ellipse cx="230" cy="438" fill="#9aa5a3" rx="8" ry="16"/><ellipse cx="502" cy="378" fill="#bcac98" rx="4" ry="48"/><ellipse cx="762" cy="462" fill="#010806" rx="12" ry="20"/><ellipse cx="750" cy="586" fill="#273c40" rx="40" ry="12"/><ellipse cx="858" cy="494" fill="#5e5f56" rx="8" ry="124"/><ellipse cx="546" cy="490" fill="#175563" rx="16" ry="20"/><ellipse cx="254" cy="314" fill="#16201e" rx="36" ry="56"/><ellipse cx="482" cy="510" fill="#101814" rx="20" ry="36"/></g></svg>