<svg xmlns="http://www.w3.org/2000/svg" version="1.1" width="1024" height="680">
<rect x="0" y="0" width="1024" height="680" fill="#476b71" />
<g transform="scale(4.000000) translate(0.5 0.5)">
<ellipse fill="#a4ffff" fill-opacity="0.501961" cx="255" cy="0" rx="115" ry="103" />
<ellipse fill="#1b150b" fill-opacity="0.501961" cx="38" cy="103" rx="153" ry="93" />
<ellipse fill="#5effff" fill-opacity="0.501961" cx="200" cy="0" rx="106" ry="48" />
<ellipse fill="#b2ffff" fill-opacity="0.501961" cx="255" cy="73" rx="40" ry="58" />
<ellipse fill="#30eaff" fill-opacity="0.501961" cx="120" cy="0" rx="53" ry="17" />
<ellipse fill="#16211c" fill-opacity="0.501961" cx="26" cy="27" rx="40" ry="111" />
<ellipse fill="#84e8ff" fill-opacity="0.501961" cx="220" cy="48" rx="45" ry="34" />
<ellipse fill="#57483b" fill-opacity="0.501961" cx="179" cy="101" rx="33" ry="30" />
<ellipse fill="#adfcff" fill-opacity="0.501961" cx="255" cy="93" rx="21" ry="47" />
<ellipse fill="#5b5d57" fill-opacity="0.501961" cx="170" cy="155" rx="82" ry="63" />
<ellipse fill="#4ed4ff" fill-opacity="0.501961" cx="164" cy="9" rx="52" ry="28" />
<ellipse fill="#41443d" fill-opacity="0.501961" cx="167" cy="84" rx="26" ry="26" />
<ellipse fill="#86e1ff" fill-opacity="0.501961" cx="227" cy="59" rx="37" ry="33" />
<ellipse fill="#2d2e28" fill-opacity="0.501961" cx="100" cy="47" rx="40" ry="26" />
<ellipse fill="#e6e3dc" fill-opacity="0.501961" cx="68" cy="150" rx="5" ry="5" />
<ellipse fill="#73daff" fill-opacity="0.501961" cx="208" cy="0" rx="80" ry="62" />
<ellipse fill="#b1b3a8" fill-opacity="0.501961" cx="229" cy="164" rx="10" ry="13" />
<ellipse fill="#3ed9ff" fill-opacity="0.501961" cx="100" cy="0" rx="42" ry="9" />
<ellipse fill="#e9eae3" fill-opacity="0.501961" cx="78" cy="128" rx="5" ry="4" />
<ellipse fill="#83b1ba" fill-opacity="0.501961" cx="42" cy="139" rx="5" ry="12" />
<ellipse fill="#a2eeff" fill-opacity="0.501961" cx="253" cy="98" rx="27" ry="27" />
<ellipse fill="#75a9b6" fill-opacity="0.501961" cx="12" cy="136" rx="5" ry="11" />
<ellipse fill="#9ec3c9" fill-opacity="0.501961" cx="51" cy="120" rx="4" ry="8" />
<ellipse fill="#a8c9d1" fill-opacity="0.501961" cx="22" cy="116" rx="4" ry="6" />
<ellipse fill="#494a42" fill-opacity="0.501961" cx="186" cy="101" rx="30" ry="21" />
<ellipse fill="#3ad0ff" fill-opacity="0.501961" cx="139" cy="0" rx="56" ry="22" />
<ellipse fill="#fffff4" fill-opacity="0.501961" cx="120" cy="162" rx="6" ry="3" />
<ellipse fill="#c7d3d0" fill-opacity="0.501961" cx="94" cy="154" rx="7" ry="4" />
<ellipse fill="#968a7a" fill-opacity="0.501961" cx="134" cy="64" rx="2" ry="34" />
<ellipse fill="#332f28" fill-opacity="0.501961" cx="55" cy="16" rx="32" ry="13" />
<ellipse fill="#8db3b8" fill-opacity="0.501961" cx="103" cy="132" rx="6" ry="7" />
<ellipse fill="#887d6d" fill-opacity="0.501961" cx="126" cy="66" rx="2" ry="39" />
<ellipse fill="#0d3c44" fill-opacity="0.501961" cx="34" cy="169" rx="73" ry="20" />
<ellipse fill="#cbffff" fill-opacity="0.501961" cx="255" cy="128" rx="6" ry="17" />
<ellipse fill="#a0c0c7" fill-opacity="0.501961" cx="85" cy="111" rx="5" ry="4" />
<ellipse fill="#000000" fill-opacity="0.501961" cx="110" cy="143" rx="6" ry="8" />
<ellipse fill="#dec0a3" fill-opacity="0.501961" cx="118" cy="54" rx="1" ry="23" />
<ellipse fill="#000000" fill-opacity="0.501961" cx="119" cy="127" rx="6" ry="8" />
<ellipse fill="#688c91" fill-opacity="0.501961" cx="151" cy="145" rx="7" ry="14" />
<ellipse fill="#645a4c" fill-opacity="0.501961" cx="214" cy="132" rx="24" ry="27" />
<ellipse fill="#d4ba9f" fill-opacity="0.501961" cx="221" cy="136" rx="10" ry="4" />
<ellipse fill="#8c9c99" fill-opacity="0.501961" cx="210" cy="147" rx="11" ry="9" />
<ellipse fill="#968372" fill-opacity="0.501961" cx="141" cy="63" rx="2" ry="30" />
<ellipse fill="#c7d1cd" fill-opacity="0.501961" cx="128" cy="142" rx="6" ry="3" />
<ellipse fill="#22afd6" fill-opacity="0.501961" cx="0" cy="154" rx="5" ry="8" />
<ellipse fill="#000000" fill-opacity="0.501961" cx="188" cy="156" rx="4" ry="7" />
<ellipse fill="#a19280" fill-opacity="0.501961" cx="149" cy="63" rx="2" ry="20" />
<ellipse fill="#000000" fill-opacity="0.501961" cx="158" cy="160" rx="6" ry="6" />
<ellipse fill="#b6ac9b" fill-opacity="0.501961" cx="110" cy="49" rx="1" ry="35" />
<ellipse fill="#7fb6c2" fill-opacity="0.501961" cx="134" cy="127" rx="6" ry="5" />
<ellipse fill="#02140f" fill-opacity="0.501961" cx="15" cy="167" rx="9" ry="24" />
<ellipse fill="#080c08" fill-opacity="0.501961" cx="130" cy="111" rx="8" ry="8" />
<ellipse fill="#031314" fill-opacity="0.501961" cx="81" cy="98" rx="8" ry="15" />
<ellipse fill="#4190a4" fill-opacity="0.501961" cx="29" cy="158" rx="4" ry="11" />
<ellipse fill="#8ee3ff" fill-opacity="0.501961" cx="227" cy="67" rx="29" ry="29" />
<ellipse fill="#c0a185" fill-opacity="0.501961" cx="241" cy="150" rx="10" ry="4" />
<ellipse fill="#7f9b9f" fill-opacity="0.501961" cx="33" cy="98" rx="4" ry="6" />
<ellipse fill="#dfe1dd" fill-opacity="0.501961" cx="95" cy="98" rx="3" ry="3" />
<ellipse fill="#010502" fill-opacity="0.501961" cx="142" cy="136" rx="5" ry="9" />
<ellipse fill="#000000" fill-opacity="0.501961" cx="132" cy="152" rx="7" ry="4" />
<ellipse fill="#888b86" fill-opacity="0.501961" cx="44" cy="83" rx="5" ry="5" />
<ellipse fill="#3995a9" fill-opacity="0.501961" cx="60" cy="158" rx="5" ry="7" />
<ellipse fill="#88a2a3" fill-opacity="0.501961" cx="120" cy="103" rx="5" ry="6" />
<ellipse fill="#dbbea0" fill-opacity="0.501961" cx="156" cy="69" rx="2" ry="7" />
<ellipse fill="#000500" fill-opacity="0.501961" cx="41" cy="169" rx="8" ry="17" />
<ellipse fill="#091010" fill-opacity="0.501961" cx="138" cy="55" rx="3" ry="22" />
<ellipse fill="#6b9da8" fill-opacity="0.501961" cx="110" cy="118" rx="5" ry="8" />
<ellipse fill="#59848c" fill-opacity="0.501961" cx="73" cy="133" rx="4" ry="17" />
<ellipse fill="#010c09" fill-opacity="0.501961" cx="67" cy="115" rx="6" ry="13" />
<ellipse fill="#051a1d" fill-opacity="0.501961" cx="56" cy="139" rx="8" ry="16" />
<ellipse fill="#070e0d" fill-opacity="0.501961" cx="64" cy="77" rx="9" ry="13" />
<ellipse fill="#99a4a2" fill-opacity="0.501961" cx="70" cy="88" rx="4" ry="5" />
<ellipse fill="#919690" fill-opacity="0.501961" cx="62" cy="105" rx="5" ry="5" />
<ellipse fill="#38717e" fill-opacity="0.501961" cx="87" cy="158" rx="6" ry="15" />
<ellipse fill="#001314" fill-opacity="0.501961" cx="27" cy="133" rx="7" ry="16" />
<ellipse fill="#efc9ac" fill-opacity="0.501961" cx="252" cy="169" rx="7" ry="5" />
<ellipse fill="#99e5ff" fill-opacity="0.501961" cx="187" cy="48" rx="24" ry="11" />
<ellipse fill="#000000" fill-opacity="0.501961" cx="207" cy="169" rx="6" ry="4" />
<ellipse fill="#898075" fill-opacity="0.501961" cx="164" cy="75" rx="2" ry="29" />
<ellipse fill="#ffddc8" fill-opacity="0.501961" cx="42" cy="143" rx="4" ry="4" />
<ellipse fill="#0f100b" fill-opacity="0.501961" cx="125" cy="79" rx="7" ry="10" />
<ellipse fill="#fffffa" fill-opacity="0.501961" cx="147" cy="169" rx="5" ry="2" />
<ellipse fill="#1d2321" fill-opacity="0.501961" cx="175" cy="77" rx="19" ry="5" />
<ellipse fill="#c6d8d7" fill-opacity="0.501961" cx="38" cy="149" rx="3" ry="4" />
<ellipse fill="#738f8e" fill-opacity="0.501961" cx="167" cy="122" rx="7" ry="9" />
<ellipse fill="#294c57" fill-opacity="0.501961" cx="236" cy="167" rx="8" ry="10" />
<ellipse fill="#00161a" fill-opacity="0.501961" cx="159" cy="145" rx="11" ry="4" />
<ellipse fill="#8aadb4" fill-opacity="0.501961" cx="67" cy="147" rx="3" ry="11" />
<ellipse fill="#040502" fill-opacity="0.501961" cx="195" cy="145" rx="5" ry="6" />
<ellipse fill="#97e3ff" fill-opacity="0.501961" cx="255" cy="43" rx="20" ry="96" />
<ellipse fill="#222421" fill-opacity="0.501961" cx="156" cy="60" rx="17" ry="6" />
<ellipse fill="#0e0e07" fill-opacity="0.501961" cx="140" cy="98" rx="8" ry="7" />
<ellipse fill="#86a7ab" fill-opacity="0.501961" cx="143" cy="115" rx="6" ry="5" />
<ellipse fill="#24211d" fill-opacity="0.501961" cx="182" cy="164" rx="5" ry="10" />
<ellipse fill="#000000" fill-opacity="0.501961" cx="153" cy="122" rx="3" ry="9" />
<ellipse fill="#000101" fill-opacity="0.501961" cx="84" cy="136" rx="5" ry="8" />
<ellipse fill="#f8f0e7" fill-opacity="0.501961" cx="178" cy="162" rx="4" ry="2" />
<ellipse fill="#668081" fill-opacity="0.501961" cx="88" cy="105" rx="7" ry="7" />
<ellipse fill="#8eafae" fill-opacity="0.501961" cx="19" cy="123" rx="3" ry="5" />
<ellipse fill="#24383f" fill-opacity="0.501961" cx="216" cy="152" rx="10" ry="7" />
<ellipse fill="#92816c" fill-opacity="0.501961" cx="191" cy="103" rx="15" ry="4" />
<ellipse fill="#2a312e" fill-opacity="0.501961" cx="205" cy="110" rx="21" ry="5" />
<ellipse fill="#86a2a5" fill-opacity="0.501961" cx="201" cy="156" rx="5" ry="12" />
<ellipse fill="#001115" fill-opacity="0.501961" cx="104" cy="109" rx="4" ry="16" />
<ellipse fill="#0c100d" fill-opacity="0.501961" cx="92" cy="81" rx="8" ry="11" />
<ellipse fill="#919c97" fill-opacity="0.501961" cx="104" cy="85" rx="5" ry="4" />
<ellipse fill="#130f09" fill-opacity="0.501961" cx="110" cy="95" rx="6" ry="11" />
<ellipse fill="#00394d" fill-opacity="0.501961" cx="43" cy="129" rx="4" ry="11" />
<ellipse fill="#080a0a" fill-opacity="0.501961" cx="102" cy="162" rx="6" ry="8" />
<ellipse fill="#89a6ae" fill-opacity="0.501961" cx="0" cy="96" rx="5" ry="4" />
<ellipse fill="#2e2e28" fill-opacity="0.501961" cx="194" cy="94" rx="20" ry="6" />
<ellipse fill="#1b1f18" fill-opacity="0.501961" cx="162" cy="113" rx="7" ry="9" />
<ellipse fill="#001b27" fill-opacity="0.501961" cx="0" cy="133" rx="10" ry="12" />
<ellipse fill="#d6b9a0" fill-opacity="0.501961" cx="232" cy="154" rx="7" ry="5" />
<ellipse fill="#8e8777" fill-opacity="0.501961" cx="109" cy="90" rx="1" ry="45" />
<ellipse fill="#84a3aa" fill-opacity="0.501961" cx="125" cy="145" rx="4" ry="6" />
<ellipse fill="#a6ab9c" fill-opacity="0.501961" cx="156" cy="97" rx="2" ry="10" />
<ellipse fill="#2a2923" fill-opacity="0.501961" cx="210" cy="132" rx="8" ry="6" />
<ellipse fill="#7e8582" fill-opacity="0.501961" cx="51" cy="73" rx="4" ry="5" />
<ellipse fill="#6e8e91" fill-opacity="0.501961" cx="160" cy="132" rx="7" ry="9" />
<ellipse fill="#0b1310" fill-opacity="0.501961" cx="53" cy="90" rx="11" ry="10" />
<ellipse fill="#a1afad" fill-opacity="0.501961" cx="10" cy="141" rx="3" ry="8" />
<ellipse fill="#9ce8ff" fill-opacity="0.501961" cx="252" cy="95" rx="32" ry="20" />
<ellipse fill="#00090c" fill-opacity="0.501961" cx="104" cy="69" rx="3" ry="14" />
<ellipse fill="#af9074" fill-opacity="0.501961" cx="211" cy="119" rx="14" ry="3" />
<ellipse fill="#829ca1" fill-opacity="0.501961" cx="116" cy="165" rx="3" ry="16" />
<ellipse fill="#293332" fill-opacity="0.501961" cx="238" cy="141" rx="15" ry="4" />
<ellipse fill="#a4a496" fill-opacity="0.501961" cx="102" cy="35" rx="1" ry="21" />
<ellipse fill="#889c9b" fill-opacity="0.501961" cx="127" cy="94" rx="5" ry="4" />
<ellipse fill="#2c3231" fill-opacity="0.501961" cx="224" cy="125" rx="16" ry="4" />
<ellipse fill="#061514" fill-opacity="0.501961" cx="35" cy="72" rx="10" ry="14" />
<ellipse fill="#002530" fill-opacity="0.501961" cx="95" cy="127" rx="3" ry="26" />
<ellipse fill="#372f2a" fill-opacity="0.501961" cx="91" cy="21" rx="4" ry="10" />
<ellipse fill="#47d7ff" fill-opacity="0.501961" cx="129" cy="6" rx="6" ry="26" />
<ellipse fill="#8f816f" fill-opacity="0.501961" cx="172" cy="77" rx="2" ry="17" />
<ellipse fill="#52d0fe" fill-opacity="0.501961" cx="78" cy="0" rx="28" ry="4" />
<ellipse fill="#000000" fill-opacity="0.501961" cx="67" cy="169" rx="6" ry="10" />
<ellipse fill="#728383" fill-opacity="0.501961" cx="77" cy="79" rx="4" ry="7" />
<ellipse fill="#091817" fill-opacity="0.501961" cx="74" cy="65" rx="8" ry="14" />
<ellipse fill="#828980" fill-opacity="0.501961" cx="192" cy="128" rx="8" ry="7" />
<ellipse fill="#030400" fill-opacity="0.501961" cx="173" cy="133" rx="4" ry="6" />
<ellipse fill="#cbb39a" fill-opacity="0.501961" cx="190" cy="167" rx="3" ry="7" />
<ellipse fill="#b8bebd" fill-opacity="0.501961" cx="173" cy="164" rx="6" ry="3" />
<ellipse fill="#aaaba1" fill-opacity="0.501961" cx="178" cy="112" rx="2" ry="8" />
<ellipse fill="#7f9290" fill-opacity="0.501961" cx="135" cy="88" rx="5" ry="5" />
<ellipse fill="#13120e" fill-opacity="0.501961" cx="48" cy="150" rx="6" ry="7" />
<ellipse fill="#36352c" fill-opacity="0.501961" cx="17" cy="4" rx="43" ry="18" />
<ellipse fill="#dcd2bf" fill-opacity="0.501961" cx="221" cy="169" rx="4" ry="9" />
<ellipse fill="#d0c4bb" fill-opacity="0.501961" cx="153" cy="153" rx="5" ry="3" />
<ellipse fill="#8b8373" fill-opacity="0.501961" cx="117" cy="102" rx="1" ry="48" />
<ellipse fill="#000000" fill-opacity="0.501961" cx="197" cy="81" rx="3" ry="3" />
<ellipse fill="#07110d" fill-opacity="0.501961" cx="38" cy="109" rx="6" ry="12" />
<ellipse fill="#6e8383" fill-opacity="0.501961" cx="86" cy="70" rx="4" ry="5" />
<ellipse fill="#1b1a16" fill-opacity="0.501961" cx="200" cy="139" rx="5" ry="7" />
<ellipse fill="#9e8972" fill-opacity="0.501961" cx="181" cy="86" rx="6" ry="4" />
<ellipse fill="#619ca2" fill-opacity="0.501961" cx="57" cy="162" rx="2" ry="12" />
<ellipse fill="#c4b7ad" fill-opacity="0.501961" cx="93" cy="156" rx="4" ry="5" />
<ellipse fill="#0c0805" fill-opacity="0.501961" cx="76" cy="154" rx="5" ry="7" />
<ellipse fill="#141f1e" fill-opacity="0.501961" cx="182" cy="85" rx="2" ry="20" />
<ellipse fill="#709194" fill-opacity="0.501961" cx="47" cy="121" rx="2" ry="12" />
<ellipse fill="#030102" fill-opacity="0.501961" cx="127" cy="169" rx="5" ry="8" />
<ellipse fill="#003746" fill-opacity="0.501961" cx="128" cy="127" rx="2" ry="17" />
<ellipse fill="#0b1113" fill-opacity="0.501961" cx="146" cy="46" rx="3" ry="8" />
<ellipse fill="#061111" fill-opacity="0.501961" cx="113" cy="59" rx="4" ry="11" />
<ellipse fill="#131713" fill-opacity="0.501961" cx="184" cy="121" rx="8" ry="4" />
<ellipse fill="#000b0f" fill-opacity="0.501961" cx="136" cy="76" rx="2" ry="12" />
<ellipse fill="#8f9b94" fill-opacity="0.501961" cx="140" cy="165" rx="2" ry="17" />
<ellipse fill="#45686f" fill-opacity="0.501961" cx="27" cy="107" rx="4" ry="8" />
<ellipse fill="#104f5e" fill-opacity="0.501961" cx="104" cy="123" rx="4" ry="11" />
<ellipse fill="#a8a18e" fill-opacity="0.501961" cx="93" cy="53" rx="1" ry="12" />
<ellipse fill="#cab59d" fill-opacity="0.501961" cx="100" cy="128" rx="1" ry="16" />
<ellipse fill="#808c8b" fill-opacity="0.501961" cx="13" cy="81" rx="3" ry="5" />
<ellipse fill="#010603" fill-opacity="0.501961" cx="136" cy="149" rx="4" ry="8" />
<ellipse fill="#091816" fill-opacity="0.501961" cx="0" cy="66" rx="19" ry="16" />
<ellipse fill="#beaa8e" fill-opacity="0.501961" cx="182" cy="135" rx="4" ry="4" />
<ellipse fill="#177187" fill-opacity="0.501961" cx="6" cy="142" rx="3" ry="11" />
<ellipse fill="#839491" fill-opacity="0.501961" cx="207" cy="149" rx="9" ry="9" />
<ellipse fill="#051311" fill-opacity="0.501961" cx="22" cy="91" rx="5" ry="18" />
<ellipse fill="#83ecff" fill-opacity="0.501961" cx="183" cy="62" rx="4" ry="5" />
<ellipse fill="#f7d0b0" fill-opacity="0.501961" cx="196" cy="156" rx="3" ry="3" />
<ellipse fill="#0b2022" fill-opacity="0.501961" cx="121" cy="72" rx="3" ry="34" />
<ellipse fill="#dcc2b1" fill-opacity="0.501961" cx="70" cy="147" rx="5" ry="3" />
<ellipse fill="#af9b83" fill-opacity="0.501961" cx="126" cy="60" rx="1" ry="26" />
<ellipse fill="#000000" fill-opacity="0.501961" cx="102" cy="146" rx="3" ry="3" />
<ellipse fill="#004860" fill-opacity="0.501961" cx="69" cy="133" rx="3" ry="13" />
<ellipse fill="#00080f" fill-opacity="0.501961" cx="190" cy="78" rx="2" ry="7" />
<ellipse fill="#668086" fill-opacity="0.501961" cx="39" cy="87" rx="3" ry="7" />
<ellipse fill="#141915" fill-opacity="0.501961" cx="67" cy="113" rx="7" ry="10" />
<ellipse fill="#58838a" fill-opacity="0.501961" cx="177" cy="147" rx="8" ry="8" />
<ellipse fill="#0a2423" fill-opacity="0.501961" cx="2" cy="116" rx="18" ry="13" />
<ellipse fill="#040200" fill-opacity="0.501961" cx="167" cy="143" rx="3" ry="7" />
<ellipse fill="#8f8b7e" fill-opacity="0.501961" cx="92" cy="87" rx="1" ry="16" />
<ellipse fill="#002636" fill-opacity="0.501961" cx="52" cy="108" rx="3" ry="11" />
<ellipse fill="#e1cfb6" fill-opacity="0.501961" cx="169" cy="156" rx="2" ry="4" />
<ellipse fill="#006c94" fill-opacity="0.501961" cx="121" cy="141" rx="4" ry="4" />
<ellipse fill="#135068" fill-opacity="0.501961" cx="204" cy="158" rx="6" ry="5" />
<ellipse fill="#56787a" fill-opacity="0.501961" cx="80" cy="121" rx="8" ry="6" />
<ellipse fill="#000707" fill-opacity="0.501961" cx="168" cy="103" rx="4" ry="5" />
<ellipse fill="#505853" fill-opacity="0.501961" cx="187" cy="108" rx="2" ry="34" />
<ellipse fill="#005570" fill-opacity="0.501961" cx="111" cy="161" rx="3" ry="11" />
<ellipse fill="#011c1e" fill-opacity="0.501961" cx="152" cy="82" rx="2" ry="22" />
<ellipse fill="#000000" fill-opacity="0.501961" cx="211" cy="166" rx="3" ry="4" />
<ellipse fill="#72959d" fill-opacity="0.501961" cx="0" cy="169" rx="3" ry="14" />
<ellipse fill="#fffaed" fill-opacity="0.501961" cx="125" cy="159" rx="3" ry="2" />
<ellipse fill="#809896" fill-opacity="0.501961" cx="150" cy="105" rx="4" ry="5" />
<ellipse fill="#6a7f80" fill-opacity="0.501961" cx="97" cy="93" rx="6" ry="5" />
<ellipse fill="#969285" fill-opacity="0.501961" cx="141" cy="102" rx="1" ry="27" />
<ellipse fill="#000000" fill-opacity="0.501961" cx="94" cy="169" rx="4" ry="6" />
<ellipse fill="#054150" fill-opacity="0.501961" cx="60" cy="146" rx="6" ry="6" />
<ellipse fill="#50eaff" fill-opacity="0.501961" cx="79" cy="3" rx="3" ry="8" />
<ellipse fill="#040200" fill-opacity="0.501961" cx="217" cy="157" rx="4" ry="4" />
<ellipse fill="#23849c" fill-opacity="0.501961" cx="34" cy="153" rx="4" ry="6" />
<ellipse fill="#001c1f" fill-opacity="0.501961" cx="128" cy="70" rx="2" ry="26" />
<ellipse fill="#0d1011" fill-opacity="0.501961" cx="176" cy="65" rx="3" ry="5" />
<ellipse fill="#001a1f" fill-opacity="0.501961" cx="174" cy="159" rx="5" ry="3" />
<ellipse fill="#eee3db" fill-opacity="0.501961" cx="112" cy="120" rx="4" ry="2" />
<ellipse fill="#717d79" fill-opacity="0.501961" cx="59" cy="61" rx="2" ry="7" />
<ellipse fill="#847b69" fill-opacity="0.501961" cx="85" cy="32" rx="2" ry="9" />
<ellipse fill="#70daff" fill-opacity="0.501961" cx="227" cy="22" rx="20" ry="26" />
<ellipse fill="#fddfd0" fill-opacity="0.501961" cx="47" cy="139" rx="2" ry="2" />
<ellipse fill="#00080a" fill-opacity="0.501961" cx="154" cy="163" rx="7" ry="3" />
<ellipse fill="#12130e" fill-opacity="0.501961" cx="144" cy="93" rx="4" ry="8" />
<ellipse fill="#c7a88f" fill-opacity="0.501961" cx="157" cy="61" rx="1" ry="16" />
<ellipse fill="#001013" fill-opacity="0.501961" cx="88" cy="52" rx="4" ry="11" />
<ellipse fill="#000000" fill-opacity="0.501961" cx="75" cy="140" rx="2" ry="4" />
<ellipse fill="#4d5049" fill-opacity="0.501961" cx="194" cy="109" rx="2" ry="29" />
<ellipse fill="#fed9c4" fill-opacity="0.501961" cx="105" cy="135" rx="4" ry="2" />
<ellipse fill="#b5a28d" fill-opacity="0.501961" cx="228" cy="133" rx="5" ry="6" />
<ellipse fill="#837e6f" fill-opacity="0.501961" cx="101" cy="66" rx="1" ry="30" />
<ellipse fill="#142726" fill-opacity="0.501961" cx="19" cy="150" rx="9" ry="10" />
<ellipse fill="#233333" fill-opacity="0.501961" cx="229" cy="121" rx="2" ry="11" />
<ellipse fill="#fff7ef" fill-opacity="0.501961" cx="116" cy="118" rx="2" ry="2" />
<ellipse fill="#0b4d5c" fill-opacity="0.501961" cx="151" cy="141" rx="3" ry="11" />
<ellipse fill="#0e191a" fill-opacity="0.501961" cx="106" cy="36" rx="3" ry="17" />
<ellipse fill="#041115" fill-opacity="0.501961" cx="161" cy="57" rx="3" ry="8" />
<ellipse fill="#9e998b" fill-opacity="0.501961" cx="74" cy="122" rx="1" ry="17" />
<ellipse fill="#003443" fill-opacity="0.501961" cx="84" cy="152" rx="8" ry="4" />
<ellipse fill="#879c9d" fill-opacity="0.501961" cx="144" cy="83" rx="4" ry="3" />
<ellipse fill="#ffe2d1" fill-opacity="0.501961" cx="99" cy="152" rx="3" ry="2" />
<ellipse fill="#a8a291" fill-opacity="0.501961" cx="133" cy="121" rx="1" ry="14" />
<ellipse fill="#535953" fill-opacity="0.501961" cx="208" cy="123" rx="2" ry="35" />
<ellipse fill="#0a1f22" fill-opacity="0.501961" cx="97" cy="61" rx="3" ry="33" />
<ellipse fill="#165d72" fill-opacity="0.501961" cx="15" cy="130" rx="5" ry="6" />
<ellipse fill="#eccab3" fill-opacity="0.501961" cx="51" cy="123" rx="3" ry="3" />
<ellipse fill="#d4c5ae" fill-opacity="0.501961" cx="163" cy="123" rx="1" ry="8" />
<ellipse fill="#66f3ff" fill-opacity="0.501961" cx="120" cy="25" rx="2" ry="3" />
<ellipse fill="#101415" fill-opacity="0.501961" cx="114" cy="33" rx="3" ry="11" />
<ellipse fill="#657b7c" fill-opacity="0.501961" cx="66" cy="91" rx="2" ry="11" />
<ellipse fill="#00181c" fill-opacity="0.501961" cx="87" cy="92" rx="3" ry="18" />
<ellipse fill="#dbc0a6" fill-opacity="0.501961" cx="225" cy="161" rx="6" ry="4" />
<ellipse fill="#2c616c" fill-opacity="0.501961" cx="95" cy="140" rx="5" ry="13" />
<ellipse fill="#3f4742" fill-opacity="0.501961" cx="22" cy="76" rx="6" ry="13" />
<ellipse fill="#140a01" fill-opacity="0.501961" cx="95" cy="115" rx="5" ry="7" />
<ellipse fill="#105a6e" fill-opacity="0.501961" cx="142" cy="154" rx="2" ry="13" />
<ellipse fill="#41d0ff" fill-opacity="0.501961" cx="129" cy="1" rx="38" ry="22" />
<ellipse fill="#041519" fill-opacity="0.501961" cx="169" cy="61" rx="2" ry="8" />
<ellipse fill="#b4afa0" fill-opacity="0.501961" cx="184" cy="107" rx="2" ry="6" />
<ellipse fill="#181812" fill-opacity="0.501961" cx="149" cy="124" rx="5" ry="7" />
<ellipse fill="#f6d7b9" fill-opacity="0.501961" cx="134" cy="55" rx="1" ry="8" />
<ellipse fill="#a2a5a0" fill-opacity="0.501961" cx="157" cy="140" rx="3" ry="4" />
<ellipse fill="#beb8b1" fill-opacity="0.501961" cx="76" cy="132" rx="3" ry="4" />
<ellipse fill="#1c2220" fill-opacity="0.501961" cx="154" cy="58" rx="3" ry="14" />
<ellipse fill="#9c9e95" fill-opacity="0.501961" cx="147" cy="150" rx="2" ry="12" />
<ellipse fill="#c1a98f" fill-opacity="0.501961" cx="164" cy="68" rx="2" ry="6" />
<ellipse fill="#001c28" fill-opacity="0.501961" cx="0" cy="137" rx="10" ry="6" />
<ellipse fill="#131718" fill-opacity="0.501961" cx="131" cy="42" rx="3" ry="11" />
<ellipse fill="#1e1f1e" fill-opacity="0.501961" cx="123" cy="39" rx="3" ry="14" />
<ellipse fill="#918272" fill-opacity="0.501961" cx="179" cy="75" rx="2" ry="12" />
<ellipse fill="#221f18" fill-opacity="0.501961" cx="158" cy="169" rx="4" ry="16" />
<ellipse fill="#a5937d" fill-opacity="0.501961" cx="142" cy="71" rx="1" ry="29" />
<ellipse fill="#c09f84" fill-opacity="0.501961" cx="83" cy="169" rx="1" ry="17" />
<ellipse fill="#1c2525" fill-opacity="0.501961" cx="178" cy="74" rx="10" ry="4" />
<ellipse fill="#247695" fill-opacity="0.501961" cx="227" cy="169" rx="6" ry="4" />
<ellipse fill="#362927" fill-opacity="0.501961" cx="108" cy="25" rx="2" ry="7" />
<ellipse fill="#000000" fill-opacity="0.501961" cx="124" cy="156" rx="4" ry="2" />
<ellipse fill="#b3a08c" fill-opacity="0.501961" cx="150" cy="56" rx="1" ry="15" />
<ellipse fill="#000000" fill-opacity="0.501961" cx="113" cy="135" rx="3" ry="4" />
<ellipse fill="#4b473d" fill-opacity="0.501961" cx="222" cy="120" rx="3" ry="16" />
<ellipse fill="#322f28" fill-opacity="0.501961" cx="226" cy="150" rx="6" ry="5" />
<ellipse fill="#46453d" fill-opacity="0.501961" cx="75" cy="21" rx="2" ry="19" />
<ellipse fill="#067fa4" fill-opacity="0.501961" cx="135" cy="169" rx="3" ry="8" />
<ellipse fill="#f1e2d7" fill-opacity="0.501961" cx="135" cy="140" rx="2" ry="2" />
<ellipse fill="#9dacb0" fill-opacity="0.501961" cx="160" cy="101" rx="3" ry="3" />
<ellipse fill="#b5a592" fill-opacity="0.501961" cx="191" cy="103" rx="2" ry="7" />
<ellipse fill="#465251" fill-opacity="0.501961" cx="253" cy="159" rx="17" ry="8" />
<ellipse fill="#1b2a26" fill-opacity="0.501961" cx="37" cy="37" rx="38" ry="19" />
<ellipse fill="#3e3f39" fill-opacity="0.501961" cx="66" cy="26" rx="2" ry="28" />
<ellipse fill="#00445e" fill-opacity="0.501961" cx="159" cy="132" rx="3" ry="5" />
<ellipse fill="#dcc1a6" fill-opacity="0.501961" cx="197" cy="123" rx="2" ry="4" />
<ellipse fill="#95a09b" fill-opacity="0.501961" cx="79" cy="76" rx="4" ry="3" />
<ellipse fill="#454b46" fill-opacity="0.501961" cx="247" cy="143" rx="2" ry="11" />
<ellipse fill="#b5a692" fill-opacity="0.501961" cx="177" cy="145" rx="2" ry="7" />
<ellipse fill="#9aa5a3" fill-opacity="0.501961" cx="57" cy="109" rx="2" ry="4" />
<ellipse fill="#bcac98" fill-opacity="0.501961" cx="125" cy="94" rx="1" ry="12" />
<ellipse fill="#010806" fill-opacity="0.501961" cx="190" cy="115" rx="3" ry="5" />
<ellipse fill="#273c40" fill-opacity="0.501961" cx="187" cy="146" rx="10" ry="3" />
<ellipse fill="#5e5f56" fill-opacity="0.501961" cx="214" cy="123" rx="2" ry="31" />
<ellipse fill="#175563" fill-opacity="0.501961" cx="136" cy="122" rx="4" ry="5" />
<ellipse fill="#16201e" fill-opacity="0.501961" cx="63" cy="78" rx="9" ry="14" />
<ellipse fill="#101814" fill-opacity="0.501961" cx="120" cy="127" rx="5" ry="9" />
</g>
</svg>