<svg xmlns="http://www.w3.org/2000/svg" version="1.1" width="1024" height="576">
<rect x="0" y="0" width="1024" height="576" fill="#4a5e69" />
<g transform="scale(4.000000) translate(0.5 0.5)">
<g transform="translate(129 17) rotate(6) scale(255 65)"><rect fill="#2bd4ff" fill-opacity="0.501961" x="-0.5" y="-0.5" width="1" height="1" /></g>
<g transform="translate(72 118) rotate(5) scale(239 143)"><rect fill="#5b1800" fill-opacity="0.501961" x="-0.5" y="-0.5" width="1" height="1" /></g>
<g transform="translate(44 88) rotate(276) scale(9 134)"><rect fill="#ffde93" fill-opacity="0.501961" x="-0.5" y="-0.5" width="1" height="1" /></g>
<g transform="translate(34 63) rotate(360) scale(135 34)"><rect fill="#000200" fill-opacity="0.501961" x="-0.5" y="-0.5" width="1" height="1" /></g>
<g transform="translate(130 80) rotate(79) scale(17 74)"><rect fill="#ffb26d" fill-opacity="0.501961" x="-0.5" y="-0.5" width="1" height="1" /></g>
<g transform="translate(140 41) rotate(6) scale(210 22)"><rect fill="#9dc6f4" fill-opacity="0.501961" x="-0.5" y="-0.5" width="1" height="1" /></g>
<g transform="translate(108 15) rotate(91) scale(33 143)"><rect fill="#007ff3" fill-opacity="0.501961" x="-0.5" y="-0.5" width="1" height="1" /></g>
<g transform="translate(57 110) rotate(354) scale(116 15)"><rect fill="#000000" fill-opacity="0.501961" x="-0.5" y="-0.5" width="1" height="1" /></g>
<g transform="translate(255 67) rotate(175) scale(137 18)"><rect fill="#1a0900" fill-opacity="0.501961" x="-0.5" y="-0.5" width="1" height="1" /></g>
<g transform="translate(225 134) rotate(183) scale(69 27)"><rect fill="#46090e" fill-opacity="0.501961" x="-0.5" y="-0.5" width="1" height="1" /></g>
<g transform="translate(201 99) rotate(329) scale(46 24)"><rect fill="#9394ab" fill-opacity="0.501961" x="-0.5" y="-0.5" width="1" height="1" /></g>
<g transform="translate(154 0) rotate(8) scale(169 26)"><rect fill="#005dd2" fill-opacity="0.501961" x="-0.5" y="-0.5" width="1" height="1" /></g>
<g transform="translate(105 117) rotate(347) scale(48 19)"><rect fill="#836c79" fill-opacity="0.501961" x="-0.5" y="-0.5" width="1" height="1" /></g>
<g transform="translate(135 60) rotate(78) scale(12 46)"><rect fill="#0c1600" fill-opacity="0.501961" x="-0.5" y="-0.5" width="1" height="1" /></g>
<g transform="translate(18 118) rotate(180) scale(76 31)"><rect fill="#1a0000" fill-opacity="0.501961" x="-0.5" y="-0.5" width="1" height="1" /></g>
<g transform="translate(255 69) rotate(48) scale(29 45)"><rect fill="#382500" fill-opacity="0.501961" x="-0.5" y="-0.5" width="1" height="1" /></g>
<g transform="translate(17 86) rotate(364) scale(27 13)"><rect fill="#ffd390" fill-opacity="0.501961" x="-0.5" y="-0.5" width="1" height="1" /></g>
<g transform="translate(53 99) rotate(167) scale(47 3)"><rect fill="#ffca76" fill-opacity="0.501961" x="-0.5" y="-0.5" width="1" height="1" /></g>
<g transform="translate(162 96) rotate(357) scale(38 37)"><rect fill="#512600" fill-opacity="0.501961" x="-0.5" y="-0.5" width="1" height="1" /></g>
<g transform="translate(229 50) rotate(273) scale(29 38)"><rect fill="#8ba7cb" fill-opacity="0.501961" x="-0.5" y="-0.5" width="1" height="1" /></g>
<g transform="translate(128 25) rotate(2) scale(255 22)"><rect fill="#22aceb" fill-opacity="0.501961" x="-0.5" y="-0.5" width="1" height="1" /></g>
<g transform="translate(8 49) rotate(251) scale(24 28)"><rect fill="#000000" fill-opacity="0.501961" x="-0.5" y="-0.5" width="1" height="1" /></g>
<g transform="translate(155 74) rotate(88) scale(8 48)"><rect fill="#ffbe86" fill-opacity="0.501961" x="-0.5" y="-0.5" width="1" height="1" /></g>
<g transform="translate(82 0) rotate(1) scale(201 38)"><rect fill="#0575cf" fill-opacity="0.501961" x="-0.5" y="-0.5" width="1" height="1" /></g>
<g transform="translate(144 122) rotate(90) scale(18 123)"><rect fill="#64556e" fill-opacity="0.501961" x="-0.5" y="-0.5" width="1" height="1" /></g>
<g transform="translate(240 103) rotate(93) scale(17 117)"><rect fill="#7a82a9" fill-opacity="0.501961" x="-0.5" y="-0.5" width="1" height="1" /></g>
<g transform="translate(169 48) rotate(378) scale(27 13)"><rect fill="#ddd8e4" fill-opacity="0.501961" x="-0.5" y="-0.5" width="1" height="1" /></g>
<g transform="translate(62 72) rotate(82) scale(43 34)"><rect fill="#230f00" fill-opacity="0.501961" x="-0.5" y="-0.5" width="1" height="1" /></g>
<g transform="translate(57 87) rotate(180) scale(28 5)"><rect fill="#ffca93" fill-opacity="0.501961" x="-0.5" y="-0.5" width="1" height="1" /></g>
<g transform="translate(17 101) rotate(98) scale(6 29)"><rect fill="#ffab51" fill-opacity="0.501961" x="-0.5" y="-0.5" width="1" height="1" /></g>
<g transform="translate(131 83) rotate(84) scale(27 36)"><rect fill="#c28758" fill-opacity="0.501961" x="-0.5" y="-0.5" width="1" height="1" /></g>
<g transform="translate(70 51) rotate(23) scale(30 15)"><rect fill="#141900" fill-opacity="0.501961" x="-0.5" y="-0.5" width="1" height="1" /></g>
<g transform="translate(148 96) rotate(79) scale(4 86)"><rect fill="#000000" fill-opacity="0.501961" x="-0.5" y="-0.5" width="1" height="1" /></g>
<g transform="translate(195 64) rotate(233) scale(22 7)"><rect fill="#000000" fill-opacity="0.501961" x="-0.5" y="-0.5" width="1" height="1" /></g>
<g transform="translate(190 22) rotate(280) scale(7 15)"><rect fill="#ffeaf5" fill-opacity="0.501961" x="-0.5" y="-0.5" width="1" height="1" /></g>
<g transform="translate(240 83) rotate(176) scale(59 15)"><rect fill="#6b6112" fill-opacity="0.501961" x="-0.5" y="-0.5" width="1" height="1" /></g>
<g transform="translate(157 59) rotate(30) scale(32 7)"><rect fill="#181700" fill-opacity="0.501961" x="-0.5" y="-0.5" width="1" height="1" /></g>
<g transform="translate(117 63) rotate(175) scale(81 17)"><rect fill="#2d2d00" fill-opacity="0.501961" x="-0.5" y="-0.5" width="1" height="1" /></g>
<g transform="translate(104 89) rotate(98) scale(1 132)"><rect fill="#1d0000" fill-opacity="0.501961" x="-0.5" y="-0.5" width="1" height="1" /></g>
<g transform="translate(224 71) rotate(184) scale(81 11)"><rect fill="#191900" fill-opacity="0.501961" x="-0.5" y="-0.5" width="1" height="1" /></g>
<g transform="translate(39 42) rotate(339) scale(16 6)"><rect fill="#9ddaff" fill-opacity="0.501961" x="-0.5" y="-0.5" width="1" height="1" /></g>
<g transform="translate(250 46) rotate(236) scale(13 55)"><rect fill="#97add1" fill-opacity="0.501961" x="-0.5" y="-0.5" width="1" height="1" /></g>
<g transform="translate(30 37) rotate(237) scale(5 10)"><rect fill="#1f0000" fill-opacity="0.501961" x="-0.5" y="-0.5" width="1" height="1" /></g>
<g transform="translate(80 94) rotate(98) scale(2 47)"><rect fill="#ffca9d" fill-opacity="0.501961" x="-0.5" y="-0.5" width="1" height="1" /></g>
<g transform="translate(24 34) rotate(254) scale(21 5)"><rect fill="#86bdef" fill-opacity="0.501961" x="-0.5" y="-0.5" width="1" height="1" /></g>
<g transform="translate(133 81) rotate(280) scale(1 23)"><rect fill="#000000" fill-opacity="0.501961" x="-0.5" y="-0.5" width="1" height="1" /></g>
<g transform="translate(255 6) rotate(89) scale(4 31)"><rect fill="#ffe3ff" fill-opacity="0.501961" x="-0.5" y="-0.5" width="1" height="1" /></g>
<g transform="translate(204 54) rotate(255) scale(15 16)"><rect fill="#b0c1e1" fill-opacity="0.501961" x="-0.5" y="-0.5" width="1" height="1" /></g>
<g transform="translate(66 58) rotate(252) scale(20 46)"><rect fill="#1b1b00" fill-opacity="0.501961" x="-0.5" y="-0.5" width="1" height="1" /></g>
<g transform="translate(25 110) rotate(266) scale(13 139)"><rect fill="#000000" fill-opacity="0.501961" x="-0.5" y="-0.5" width="1" height="1" /></g>
<g transform="translate(31 127) rotate(75) scale(12 66)"><rect fill="#5f2a00" fill-opacity="0.501961" x="-0.5" y="-0.5" width="1" height="1" /></g>
<g transform="translate(116 58) rotate(233) scale(5 31)"><rect fill="#171800" fill-opacity="0.501961" x="-0.5" y="-0.5" width="1" height="1" /></g>
<g transform="translate(240 18) rotate(266) scale(16 88)"><rect fill="#0590d9" fill-opacity="0.501961" x="-0.5" y="-0.5" width="1" height="1" /></g>
<g transform="translate(118 44) rotate(261) scale(9 37)"><rect fill="#a3cfe8" fill-opacity="0.501961" x="-0.5" y="-0.5" width="1" height="1" /></g>
<g transform="translate(202 88) rotate(97) scale(22 12)"><rect fill="#909ba7" fill-opacity="0.501961" x="-0.5" y="-0.5" width="1" height="1" /></g>
<g transform="translate(132 109) rotate(10) scale(43 6)"><rect fill="#874000" fill-opacity="0.501961" x="-0.5" y="-0.5" width="1" height="1" /></g>
<g transform="translate(151 142) rotate(180) scale(171 10)"><rect fill="#3d1b05" fill-opacity="0.501961" x="-0.5" y="-0.5" width="1" height="1" /></g>
<g transform="translate(94 65) rotate(239) scale(29 29)"><rect fill="#3f3500" fill-opacity="0.501961" x="-0.5" y="-0.5" width="1" height="1" /></g>
<g transform="translate(255 67) rotate(225) scale(26 20)"><rect fill="#151100" fill-opacity="0.501961" x="-0.5" y="-0.5" width="1" height="1" /></g>
<g transform="translate(146 91) rotate(267) scale(1 37)"><rect fill="#f2ad77" fill-opacity="0.501961" x="-0.5" y="-0.5" width="1" height="1" /></g>
<g transform="translate(33 96) rotate(289) scale(1 42)"><rect fill="#ea9b55" fill-opacity="0.501961" x="-0.5" y="-0.5" width="1" height="1" /></g>
<g transform="translate(41 88) rotate(297) scale(8 17)"><rect fill="#ffb371" fill-opacity="0.501961" x="-0.5" y="-0.5" width="1" height="1" /></g>
<g transform="translate(3 30) rotate(328) scale(15 16)"><rect fill="#7ab2e7" fill-opacity="0.501961" x="-0.5" y="-0.5" width="1" height="1" /></g>
<g transform="translate(33 102) rotate(206) scale(3 25)"><rect fill="#000000" fill-opacity="0.501961" x="-0.5" y="-0.5" width="1" height="1" /></g>
<g transform="translate(24 57) rotate(221) scale(53 15)"><rect fill="#0c0c00" fill-opacity="0.501961" x="-0.5" y="-0.5" width="1" height="1" /></g>
<g transform="translate(224 119) rotate(8) scale(62 22)"><rect fill="#514163" fill-opacity="0.501961" x="-0.5" y="-0.5" width="1" height="1" /></g>
<g transform="translate(3 100) rotate(65) scale(3 12)"><rect fill="#ffdd92" fill-opacity="0.501961" x="-0.5" y="-0.5" width="1" height="1" /></g>
<g transform="translate(13 96) rotate(281) scale(1 42)"><rect fill="#000000" fill-opacity="0.501961" x="-0.5" y="-0.5" width="1" height="1" /></g>
<g transform="translate(66 131) rotate(82) scale(9 82)"><rect fill="#634848" fill-opacity="0.501961" x="-0.5" y="-0.5" width="1" height="1" /></g>
<g transform="translate(119 76) rotate(184) scale(8 13)"><rect fill="#f2b684" fill-opacity="0.501961" x="-0.5" y="-0.5" width="1" height="1" /></g>
<g transform="translate(190 86) rotate(199) scale(8 17)"><rect fill="#070c01" fill-opacity="0.501961" x="-0.5" y="-0.5" width="1" height="1" /></g>
<g transform="translate(226 59) rotate(99) scale(1 22)"><rect fill="#46381c" fill-opacity="0.501961" x="-0.5" y="-0.5" width="1" height="1" /></g>
<g transform="translate(0 85) rotate(270) scale(9 75)"><rect fill="#ffb481" fill-opacity="0.501961" x="-0.5" y="-0.5" width="1" height="1" /></g>
<g transform="translate(184 81) rotate(327) scale(10 4)"><rect fill="#da9f78" fill-opacity="0.501961" x="-0.5" y="-0.5" width="1" height="1" /></g>
<g transform="translate(100 91) rotate(-7) scale(29 2)"><rect fill="#632d17" fill-opacity="0.501961" x="-0.5" y="-0.5" width="1" height="1" /></g>
<g transform="translate(114 80) rotate(164) scale(41 1)"><rect fill="#633820" fill-opacity="0.501961" x="-0.5" y="-0.5" width="1" height="1" /></g>
<g transform="translate(48 101) rotate(101) scale(3 20)"><rect fill="#f1a76c" fill-opacity="0.501961" x="-0.5" y="-0.5" width="1" height="1" /></g>
<g transform="translate(116 0) rotate(360) scale(240 18)"><rect fill="#0c6ac7" fill-opacity="0.501961" x="-0.5" y="-0.5" width="1" height="1" /></g>
<g transform="translate(53 93) rotate(247) scale(8 6)"><rect fill="#000000" fill-opacity="0.501961" x="-0.5" y="-0.5" width="1" height="1" /></g>
<g transform="translate(136 48) rotate(238) scale(7 13)"><rect fill="#bfd1d8" fill-opacity="0.501961" x="-0.5" y="-0.5" width="1" height="1" /></g>
<g transform="translate(163 84) rotate(233) scale(13 22)"><rect fill="#573b23" fill-opacity="0.501961" x="-0.5" y="-0.5" width="1" height="1" /></g>
<g transform="translate(115 95) rotate(188) scale(26 2)"><rect fill="#fab279" fill-opacity="0.501961" x="-0.5" y="-0.5" width="1" height="1" /></g>
<g transform="translate(138 68) rotate(1) scale(214 1)"><rect fill="#090700" fill-opacity="0.501961" x="-0.5" y="-0.5" width="1" height="1" /></g>
<g transform="translate(43 30) rotate(96) scale(9 74)"><rect fill="#61abdb" fill-opacity="0.501961" x="-0.5" y="-0.5" width="1" height="1" /></g>
<g transform="translate(19 94) rotate(354) scale(7 7)"><rect fill="#000000" fill-opacity="0.501961" x="-0.5" y="-0.5" width="1" height="1" /></g>
<g transform="translate(36 102) rotate(225) scale(3 9)"><rect fill="#faa864" fill-opacity="0.501961" x="-0.5" y="-0.5" width="1" height="1" /></g>
<g transform="translate(94 111) rotate(155) scale(24 1)"><rect fill="#bc7625" fill-opacity="0.501961" x="-0.5" y="-0.5" width="1" height="1" /></g>
<g transform="translate(140 88) rotate(366) scale(15 1)"><rect fill="#000000" fill-opacity="0.501961" x="-0.5" y="-0.5" width="1" height="1" /></g>
<g transform="translate(116 77) rotate(188) scale(22 2)"><rect fill="#ffc891" fill-opacity="0.501961" x="-0.5" y="-0.5" width="1" height="1" /></g>
<g transform="translate(177 98) rotate(276) scale(39 3)"><rect fill="#1c0b00" fill-opacity="0.501961" x="-0.5" y="-0.5" width="1" height="1" /></g>
<g transform="translate(171 61) rotate(34) scale(21 6)"><rect fill="#193930" fill-opacity="0.501961" x="-0.5" y="-0.5" width="1" height="1" /></g>
<g transform="translate(214 70) rotate(176) scale(23 16)"><rect fill="#2c2900" fill-opacity="0.501961" x="-0.5" y="-0.5" width="1" height="1" /></g>
<g transform="translate(97 104) rotate(82) scale(4 82)"><rect fill="#000000" fill-opacity="0.501961" x="-0.5" y="-0.5" width="1" height="1" /></g>
<g transform="translate(148 118) rotate(270) scale(8 79)"><rect fill="#6a5f77" fill-opacity="0.501961" x="-0.5" y="-0.5" width="1" height="1" /></g>
<g transform="translate(11 114) rotate(356) scale(26 23)"><rect fill="#030000" fill-opacity="0.501961" x="-0.5" y="-0.5" width="1" height="1" /></g>
<g transform="translate(9 72) rotate(284) scale(1 67)"><rect fill="#85612b" fill-opacity="0.501961" x="-0.5" y="-0.5" width="1" height="1" /></g>
<g transform="translate(48 36) rotate(127) scale(11 19)"><rect fill="#78b9e2" fill-opacity="0.501961" x="-0.5" y="-0.5" width="1" height="1" /></g>
<g transform="translate(57 16) rotate(182) scale(255 19)"><rect fill="#1299d9" fill-opacity="0.501961" x="-0.5" y="-0.5" width="1" height="1" /></g>
<g transform="translate(146 100) rotate(254) scale(1 44)"><rect fill="#b16919" fill-opacity="0.501961" x="-0.5" y="-0.5" width="1" height="1" /></g>
<g transform="translate(12 95) rotate(82) scale(12 6)"><rect fill="#f29c4c" fill-opacity="0.501961" x="-0.5" y="-0.5" width="1" height="1" /></g>
<g transform="translate(140 81) rotate(362) scale(11 4)"><rect fill="#160000" fill-opacity="0.501961" x="-0.5" y="-0.5" width="1" height="1" /></g>
<g transform="translate(180 76) rotate(170) scale(3 15)"><rect fill="#ee934b" fill-opacity="0.501961" x="-0.5" y="-0.5" width="1" height="1" /></g>
<g transform="translate(61 106) rotate(249) scale(10 26)"><rect fill="#080100" fill-opacity="0.501961" x="-0.5" y="-0.5" width="1" height="1" /></g>
<g transform="translate(30 36) rotate(113) scale(8 5)"><rect fill="#0f0100" fill-opacity="0.501961" x="-0.5" y="-0.5" width="1" height="1" /></g>
<g transform="translate(147 75) rotate(324) scale(11 2)"><rect fill="#ffe2c9" fill-opacity="0.501961" x="-0.5" y="-0.5" width="1" height="1" /></g>
<g transform="translate(9 95) rotate(283) scale(1 53)"><rect fill="#000000" fill-opacity="0.501961" x="-0.5" y="-0.5" width="1" height="1" /></g>
<g transform="translate(37 94) rotate(238) scale(7 6)"><rect fill="#000000" fill-opacity="0.501961" x="-0.5" y="-0.5" width="1" height="1" /></g>
<g transform="translate(191 59) rotate(101) scale(7 15)"><rect fill="#081903" fill-opacity="0.501961" x="-0.5" y="-0.5" width="1" height="1" /></g>
<g transform="translate(154 113) rotate(87) scale(3 33)"><rect fill="#b37020" fill-opacity="0.501961" x="-0.5" y="-0.5" width="1" height="1" /></g>
<g transform="translate(236 1) rotate(183) scale(74 5)"><rect fill="#0058c2" fill-opacity="0.501961" x="-0.5" y="-0.5" width="1" height="1" /></g>
<g transform="translate(127 71) rotate(90) scale(3 28)"><rect fill="#fec38a" fill-opacity="0.501961" x="-0.5" y="-0.5" width="1" height="1" /></g>
<g transform="translate(245 41) rotate(89) scale(15 98)"><rect fill="#60a9d9" fill-opacity="0.501961" x="-0.5" y="-0.5" width="1" height="1" /></g>
<g transform="translate(45 56) rotate(6) scale(53 5)"><rect fill="#3d3d06" fill-opacity="0.501961" x="-0.5" y="-0.5" width="1" height="1" /></g>
<g transform="translate(7 134) rotate(68) scale(3 65)"><rect fill="#160000" fill-opacity="0.501961" x="-0.5" y="-0.5" width="1" height="1" /></g>
<g transform="translate(181 62) rotate(364) scale(11 5)"><rect fill="#4078a0" fill-opacity="0.501961" x="-0.5" y="-0.5" width="1" height="1" /></g>
<g transform="translate(52 78) rotate(7) scale(19 14)"><rect fill="#220200" fill-opacity="0.501961" x="-0.5" y="-0.5" width="1" height="1" /></g>
<g transform="translate(68 124) rotate(66) scale(7 16)"><rect fill="#6e5c80" fill-opacity="0.501961" x="-0.5" y="-0.5" width="1" height="1" /></g>
<g transform="translate(172 82) rotate(226) scale(1 23)"><rect fill="#cd8c5a" fill-opacity="0.501961" x="-0.5" y="-0.5" width="1" height="1" /></g>
<g transform="translate(73 38) rotate(269) scale(12 14)"><rect fill="#7fc1ea" fill-opacity="0.501961" x="-0.5" y="-0.5" width="1" height="1" /></g>
<g transform="translate(113 96) rotate(132) scale(6 3)"><rect fill="#0e0905" fill-opacity="0.501961" x="-0.5" y="-0.5" width="1" height="1" /></g>
<g transform="translate(161 43) rotate(260) scale(5 38)"><rect fill="#bcd2e7" fill-opacity="0.501961" x="-0.5" y="-0.5" width="1" height="1" /></g>
<g transform="translate(207 53) rotate(187) scale(21 18)"><rect fill="#93b3d2" fill-opacity="0.501961" x="-0.5" y="-0.5" width="1" height="1" /></g>
<g transform="translate(127 86) rotate(61) scale(4 7)"><rect fill="#ffd2a4" fill-opacity="0.501961" x="-0.5" y="-0.5" width="1" height="1" /></g>
<g transform="translate(126 92) rotate(91) scale(2 17)"><rect fill="#000000" fill-opacity="0.501961" x="-0.5" y="-0.5" width="1" height="1" /></g>
<g transform="translate(168 107) rotate(299) scale(9 26)"><rect fill="#2a1000" fill-opacity="0.501961" x="-0.5" y="-0.5" width="1" height="1" /></g>
<g transform="translate(188 21) rotate(298) scale(4 10)"><rect fill="#ffe9ec" fill-opacity="0.501961" x="-0.5" y="-0.5" width="1" height="1" /></g>
<g transform="translate(20 36) rotate(315) scale(2 24)"><rect fill="#87b7df" fill-opacity="0.501961" x="-0.5" y="-0.5" width="1" height="1" /></g>
<g transform="translate(149 90) rotate(228) scale(1 35)"><rect fill="#1b0c00" fill-opacity="0.501961" x="-0.5" y="-0.5" width="1" height="1" /></g>
<g transform="translate(226 54) rotate(171) scale(3 21)"><rect fill="#9dbfe0" fill-opacity="0.501961" x="-0.5" y="-0.5" width="1" height="1" /></g>
<g transform="translate(44 87) rotate(272) scale(2 52)"><rect fill="#ffc693" fill-opacity="0.501961" x="-0.5" y="-0.5" width="1" height="1" /></g>
<g transform="translate(128 89) rotate(279) scale(1 37)"><rect fill="#f1c2a1" fill-opacity="0.501961" x="-0.5" y="-0.5" width="1" height="1" /></g>
<g transform="translate(62 118) rotate(183) scale(34 4)"><rect fill="#7f4501" fill-opacity="0.501961" x="-0.5" y="-0.5" width="1" height="1" /></g>
<g transform="translate(154 86) rotate(78) scale(1 7)"><rect fill="#ffba6a" fill-opacity="0.501961" x="-0.5" y="-0.5" width="1" height="1" /></g>
<g transform="translate(241 8) rotate(344) scale(11 4)"><rect fill="#cdcdf1" fill-opacity="0.501961" x="-0.5" y="-0.5" width="1" height="1" /></g>
<g transform="translate(53 65) rotate(91) scale(7 69)"><rect fill="#000000" fill-opacity="0.501961" x="-0.5" y="-0.5" width="1" height="1" /></g>
<g transform="translate(90 71) rotate(322) scale(49 13)"><rect fill="#3b2e04" fill-opacity="0.501961" x="-0.5" y="-0.5" width="1" height="1" /></g>
<g transform="translate(143 34) rotate(90) scale(11 103)"><rect fill="#53b9e4" fill-opacity="0.501961" x="-0.5" y="-0.5" width="1" height="1" /></g>
<g transform="translate(92 59) rotate(163) scale(22 3)"><rect fill="#70681b" fill-opacity="0.501961" x="-0.5" y="-0.5" width="1" height="1" /></g>
<g transform="translate(183 51) rotate(252) scale(8 27)"><rect fill="#96b7d6" fill-opacity="0.501961" x="-0.5" y="-0.5" width="1" height="1" /></g>
<g transform="translate(15 71) rotate(269) scale(1 81)"><rect fill="#684713" fill-opacity="0.501961" x="-0.5" y="-0.5" width="1" height="1" /></g>
<g transform="translate(236 75) rotate(180) scale(71 5)"><rect fill="#544a06" fill-opacity="0.501961" x="-0.5" y="-0.5" width="1" height="1" /></g>
<g transform="translate(159 90) rotate(172) scale(16 1)"><rect fill="#e4a474" fill-opacity="0.501961" x="-0.5" y="-0.5" width="1" height="1" /></g>
<g transform="translate(146 71) rotate(343) scale(54 1)"><rect fill="#c48c3f" fill-opacity="0.501961" x="-0.5" y="-0.5" width="1" height="1" /></g>
<g transform="translate(141 106) rotate(279) scale(7 29)"><rect fill="#521f00" fill-opacity="0.501961" x="-0.5" y="-0.5" width="1" height="1" /></g>
<g transform="translate(235 99) rotate(363) scale(32 11)"><rect fill="#7c899f" fill-opacity="0.501961" x="-0.5" y="-0.5" width="1" height="1" /></g>
<g transform="translate(116 74) rotate(183) scale(28 1)"><rect fill="#5f2c01" fill-opacity="0.501961" x="-0.5" y="-0.5" width="1" height="1" /></g>
<g transform="translate(156 59) rotate(150) scale(10 11)"><rect fill="#090700" fill-opacity="0.501961" x="-0.5" y="-0.5" width="1" height="1" /></g>
<g transform="translate(60 97) rotate(169) scale(49 1)"><rect fill="#fcb78b" fill-opacity="0.501961" x="-0.5" y="-0.5" width="1" height="1" /></g>
<g transform="translate(68 98) rotate(23) scale(32 1)"><rect fill="#210700" fill-opacity="0.501961" x="-0.5" y="-0.5" width="1" height="1" /></g>
<g transform="translate(62 53) rotate(259) scale(28 4)"><rect fill="#120f00" fill-opacity="0.501961" x="-0.5" y="-0.5" width="1" height="1" /></g>
<g transform="translate(103 44) rotate(201) scale(25 7)"><rect fill="#99c3dd" fill-opacity="0.501961" x="-0.5" y="-0.5" width="1" height="1" /></g>
<g transform="translate(97 89) rotate(219) scale(4 9)"><rect fill="#f4b689" fill-opacity="0.501961" x="-0.5" y="-0.5" width="1" height="1" /></g>
<g transform="translate(134 57) rotate(135) scale(16 4)"><rect fill="#514900" fill-opacity="0.501961" x="-0.5" y="-0.5" width="1" height="1" /></g>
<g transform="translate(177 76) rotate(208) scale(17 2)"><rect fill="#503518" fill-opacity="0.501961" x="-0.5" y="-0.5" width="1" height="1" /></g>
<g transform="translate(181 88) rotate(53) scale(1 83)"><rect fill="#100700" fill-opacity="0.501961" x="-0.5" y="-0.5" width="1" height="1" /></g>
<g transform="translate(0 38) rotate(293) scale(8 8)"><rect fill="#95b29f" fill-opacity="0.501961" x="-0.5" y="-0.5" width="1" height="1" /></g>
<g transform="translate(51 125) rotate(190) scale(8 11)"><rect fill="#0d0000" fill-opacity="0.501961" x="-0.5" y="-0.5" width="1" height="1" /></g>
<g transform="translate(142 78) rotate(210) scale(19 1)"><rect fill="#f4ae8c" fill-opacity="0.501961" x="-0.5" y="-0.5" width="1" height="1" /></g>
<g transform="translate(50 95) rotate(206) scale(6 8)"><rect fill="#0d0100" fill-opacity="0.501961" x="-0.5" y="-0.5" width="1" height="1" /></g>
<g transform="translate(192 61) rotate(142) scale(11 7)"><rect fill="#000600" fill-opacity="0.501961" x="-0.5" y="-0.5" width="1" height="1" /></g>
<g transform="translate(84 93) rotate(196) scale(11 3)"><rect fill="#ffd9b9" fill-opacity="0.501961" x="-0.5" y="-0.5" width="1" height="1" /></g>
<g transform="translate(126 94) rotate(370) scale(14 1)"><rect fill="#ffc170" fill-opacity="0.501961" x="-0.5" y="-0.5" width="1" height="1" /></g>
<g transform="translate(240 91) rotate(185) scale(32 5)"><rect fill="#535520" fill-opacity="0.501961" x="-0.5" y="-0.5" width="1" height="1" /></g>
<g transform="translate(26 88) rotate(143) scale(1 22)"><rect fill="#ffae65" fill-opacity="0.501961" x="-0.5" y="-0.5" width="1" height="1" /></g>
<g transform="translate(165 71) rotate(239) scale(1 9)"><rect fill="#ffcba1" fill-opacity="0.501961" x="-0.5" y="-0.5" width="1" height="1" /></g>
<g transform="translate(120 58) rotate(337) scale(18 15)"><rect fill="#212000" fill-opacity="0.501961" x="-0.5" y="-0.5" width="1" height="1" /></g>
<g transform="translate(80 109) rotate(196) scale(7 26)"><rect fill="#301200" fill-opacity="0.501961" x="-0.5" y="-0.5" width="1" height="1" /></g>
<g transform="translate(91 89) rotate(100) scale(1 19)"><rect fill="#ffbb8d" fill-opacity="0.501961" x="-0.5" y="-0.5" width="1" height="1" /></g>
<g transform="translate(18 126) rotate(75) scale(2 59)"><rect fill="#7e4e0c" fill-opacity="0.501961" x="-0.5" y="-0.5" width="1" height="1" /></g>
<g transform="translate(106 114) rotate(176) scale(22 5)"><rect fill="#676d90" fill-opacity="0.501961" x="-0.5" y="-0.5" width="1" height="1" /></g>
<g transform="translate(149 132) rotate(-2) scale(123 11)"><rect fill="#4f3433" fill-opacity="0.501961" x="-0.5" y="-0.5" width="1" height="1" /></g>
<g transform="translate(219 86) rotate(98) scale(1 33)"><rect fill="#8c959b" fill-opacity="0.501961" x="-0.5" y="-0.5" width="1" height="1" /></g>
<g transform="translate(101 91) rotate(346) scale(21 1)"><rect fill="#441700" fill-opacity="0.501961" x="-0.5" y="-0.5" width="1" height="1" /></g>
<g transform="translate(68 75) rotate(-1) scale(25 6)"><rect fill="#000000" fill-opacity="0.501961" x="-0.5" y="-0.5" width="1" height="1" /></g>
<g transform="translate(183 106) rotate(89) scale(30 7)"><rect fill="#7e7a84" fill-opacity="0.501961" x="-0.5" y="-0.5" width="1" height="1" /></g>
<g transform="translate(160 81) rotate(152) scale(17 1)"><rect fill="#000000" fill-opacity="0.501961" x="-0.5" y="-0.5" width="1" height="1" /></g>
<g transform="translate(96 98) rotate(101) scale(1 14)"><rect fill="#ef9551" fill-opacity="0.501961" x="-0.5" y="-0.5" width="1" height="1" /></g>
<g transform="translate(35 94) rotate(234) scale(9 2)"><rect fill="#000000" fill-opacity="0.501961" x="-0.5" y="-0.5" width="1" height="1" /></g>
<g transform="translate(56 80) rotate(200) scale(27 1)"><rect fill="#870004" fill-opacity="0.501961" x="-0.5" y="-0.5" width="1" height="1" /></g>
<g transform="translate(142 53) rotate(219) scale(2 16)"><rect fill="#706e2c" fill-opacity="0.501961" x="-0.5" y="-0.5" width="1" height="1" /></g>
<g transform="translate(103 81) rotate(77) scale(1 8)"><rect fill="#ffe2c5" fill-opacity="0.501961" x="-0.5" y="-0.5" width="1" height="1" /></g>
<g transform="translate(0 76) rotate(262) scale(8 10)"><rect fill="#000000" fill-opacity="0.501961" x="-0.5" y="-0.5" width="1" height="1" /></g>
<g transform="translate(110 79) rotate(356) scale(41 1)"><rect fill="#8b4b11" fill-opacity="0.501961" x="-0.5" y="-0.5" width="1" height="1" /></g>
<g transform="translate(11 70) rotate(251) scale(9 16)"><rect fill="#574803" fill-opacity="0.501961" x="-0.5" y="-0.5" width="1" height="1" /></g>
<g transform="translate(145 64) rotate(280) scale(1 64)"><rect fill="#191600" fill-opacity="0.501961" x="-0.5" y="-0.5" width="1" height="1" /></g>
<g transform="translate(109 55) rotate(169) scale(2 14)"><rect fill="#373a00" fill-opacity="0.501961" x="-0.5" y="-0.5" width="1" height="1" /></g>
<g transform="translate(138 85) rotate(274) scale(1 15)"><rect fill="#ffc087" fill-opacity="0.501961" x="-0.5" y="-0.5" width="1" height="1" /></g>
<g transform="translate(176 63) rotate(90) scale(10 7)"><rect fill="#002261" fill-opacity="0.501961" x="-0.5" y="-0.5" width="1" height="1" /></g>
<g transform="translate(20 37) rotate(177) scale(31 1)"><rect fill="#1a1b04" fill-opacity="0.501961" x="-0.5" y="-0.5" width="1" height="1" /></g>
<g transform="translate(221 65) rotate(286) scale(16 1)"><rect fill="#000000" fill-opacity="0.501961" x="-0.5" y="-0.5" width="1" height="1" /></g>
<g transform="translate(42 58) rotate(363) scale(5 4)"><rect fill="#a99525" fill-opacity="0.501961" x="-0.5" y="-0.5" width="1" height="1" /></g>
<g transform="translate(51 105) rotate(265) scale(1 82)"><rect fill="#362412" fill-opacity="0.501961" x="-0.5" y="-0.5" width="1" height="1" /></g>
<g transform="translate(31 53) rotate(240) scale(6 24)"><rect fill="#2d2b00" fill-opacity="0.501961" x="-0.5" y="-0.5" width="1" height="1" /></g>
<g transform="translate(159 55) rotate(199) scale(31 3)"><rect fill="#504406" fill-opacity="0.501961" x="-0.5" y="-0.5" width="1" height="1" /></g>
<g transform="translate(138 96) rotate(301) scale(1 28)"><rect fill="#270f00" fill-opacity="0.501961" x="-0.5" y="-0.5" width="1" height="1" /></g>
<g transform="translate(165 109) rotate(338) scale(32 1)"><rect fill="#8d4e0d" fill-opacity="0.501961" x="-0.5" y="-0.5" width="1" height="1" /></g>
<g transform="translate(34 80) rotate(158) scale(11 1)"><rect fill="#1b0c01" fill-opacity="0.501961" x="-0.5" y="-0.5" width="1" height="1" /></g>
<g transform="translate(22 36) rotate(156) scale(3 10)"><rect fill="#84bdec" fill-opacity="0.501961" x="-0.5" y="-0.5" width="1" height="1" /></g>
<g transform="translate(122 81) rotate(314) scale(10 4)"><rect fill="#f4af70" fill-opacity="0.501961" x="-0.5" y="-0.5" width="1" height="1" /></g>
<g transform="translate(155 83) rotate(156) scale(15 1)"><rect fill="#0d0500" fill-opacity="0.501961" x="-0.5" y="-0.5" width="1" height="1" /></g>
<g transform="translate(153 43) rotate(332) scale(15 12)"><rect fill="#90c1df" fill-opacity="0.501961" x="-0.5" y="-0.5" width="1" height="1" /></g>
<g transform="translate(159 53) rotate(204) scale(8 1)"><rect fill="#d9c58c" fill-opacity="0.501961" x="-0.5" y="-0.5" width="1" height="1" /></g>
<g transform="translate(252 46) rotate(97) scale(12 9)"><rect fill="#8bb0db" fill-opacity="0.501961" x="-0.5" y="-0.5" width="1" height="1" /></g>
<g transform="translate(160 29) rotate(3) scale(118 7)"><rect fill="#1faede" fill-opacity="0.501961" x="-0.5" y="-0.5" width="1" height="1" /></g>
<g transform="translate(76 115) rotate(165) scale(32 2)"><rect fill="#5b2400" fill-opacity="0.501961" x="-0.5" y="-0.5" width="1" height="1" /></g>
<g transform="translate(166 76) rotate(169) scale(13 1)"><rect fill="#f9aa6b" fill-opacity="0.501961" x="-0.5" y="-0.5" width="1" height="1" /></g>
<g transform="translate(33 125) rotate(243) scale(8 8)"><rect fill="#170000" fill-opacity="0.501961" x="-0.5" y="-0.5" width="1" height="1" /></g>
<g transform="translate(85 54) rotate(63) scale(22 6)"><rect fill="#221e00" fill-opacity="0.501961" x="-0.5" y="-0.5" width="1" height="1" /></g>
<g transform="translate(99 54) rotate(190) scale(6 11)"><rect fill="#050f00" fill-opacity="0.501961" x="-0.5" y="-0.5" width="1" height="1" /></g>
<g transform="translate(253 56) rotate(127) scale(8 6)"><rect fill="#000000" fill-opacity="0.501961" x="-0.5" y="-0.5" width="1" height="1" /></g>
<g transform="translate(152 82) rotate(-15) scale(7 1)"><rect fill="#ffba84" fill-opacity="0.501961" x="-0.5" y="-0.5" width="1" height="1" /></g>
<g transform="translate(63 93) rotate(364) scale(5 13)"><rect fill="#de874d" fill-opacity="0.501961" x="-0.5" y="-0.5" width="1" height="1" /></g>
<g transform="translate(69 90) rotate(-4) scale(15 1)"><rect fill="#361207" fill-opacity="0.501961" x="-0.5" y="-0.5" width="1" height="1" /></g>
<g transform="translate(0 84) rotate(347) scale(31 4)"><rect fill="#ffc6a8" fill-opacity="0.501961" x="-0.5" y="-0.5" width="1" height="1" /></g>
<g transform="translate(238 54) rotate(309) scale(1 32)"><rect fill="#8ca8c3" fill-opacity="0.501961" x="-0.5" y="-0.5" width="1" height="1" /></g>
<g transform="translate(44 98) rotate(287) scale(2 7)"><rect fill="#ffd79d" fill-opacity="0.501961" x="-0.5" y="-0.5" width="1" height="1" /></g>
<g transform="translate(111 102) rotate(81) scale(4 73)"><rect fill="#000000" fill-opacity="0.501961" x="-0.5" y="-0.5" width="1" height="1" /></g>
<g transform="translate(43 42) rotate(61) scale(4 10)"><rect fill="#93c0d9" fill-opacity="0.501961" x="-0.5" y="-0.5" width="1" height="1" /></g>
<g transform="translate(42 85) rotate(368) scale(14 1)"><rect fill="#ffd0ab" fill-opacity="0.501961" x="-0.5" y="-0.5" width="1" height="1" /></g>
<g transform="translate(140 71) rotate(254) scale(1 15)"><rect fill="#fdd4bc" fill-opacity="0.501961" x="-0.5" y="-0.5" width="1" height="1" /></g>
<g transform="translate(38 52) rotate(7) scale(39 4)"><rect fill="#0b1000" fill-opacity="0.501961" x="-0.5" y="-0.5" width="1" height="1" /></g>
<g transform="translate(78 99) rotate(307) scale(1 6)"><rect fill="#ef9a47" fill-opacity="0.501961" x="-0.5" y="-0.5" width="1" height="1" /></g>
<g transform="translate(96 96) rotate(189) scale(25 1)"><rect fill="#f9b084" fill-opacity="0.501961" x="-0.5" y="-0.5" width="1" height="1" /></g>
<g transform="translate(152 78) rotate(244) scale(2 7)"><rect fill="#4e250d" fill-opacity="0.501961" x="-0.5" y="-0.5" width="1" height="1" /></g>
<g transform="translate(24 92) rotate(112) scale(1 11)"><rect fill="#ffa965" fill-opacity="0.501961" x="-0.5" y="-0.5" width="1" height="1" /></g>
<g transform="translate(90 77) rotate(248) scale(12 21)"><rect fill="#553e06" fill-opacity="0.501961" x="-0.5" y="-0.5" width="1" height="1" /></g>
<g transform="translate(18 96) rotate(301) scale(6 4)"><rect fill="#000000" fill-opacity="0.501961" x="-0.5" y="-0.5" width="1" height="1" /></g>
<g transform="translate(30 133) rotate(254) scale(2 42)"><rect fill="#76470a" fill-opacity="0.501961" x="-0.5" y="-0.5" width="1" height="1" /></g>
<g transform="translate(147 10) rotate(180) scale(178 9)"><rect fill="#127bd1" fill-opacity="0.501961" x="-0.5" y="-0.5" width="1" height="1" /></g>
<g transform="translate(105 93) rotate(-13) scale(15 1)"><rect fill="#ffcfb6" fill-opacity="0.501961" x="-0.5" y="-0.5" width="1" height="1" /></g>
<g transform="translate(203 77) rotate(187) scale(73 1)"><rect fill="#6c5f27" fill-opacity="0.501961" x="-0.5" y="-0.5" width="1" height="1" /></g>
<g transform="translate(115 38) rotate(184) scale(75 8)"><rect fill="#73bce6" fill-opacity="0.501961" x="-0.5" y="-0.5" width="1" height="1" /></g>
<g transform="translate(164 85) rotate(55) scale(3 7)"><rect fill="#010000" fill-opacity="0.501961" x="-0.5" y="-0.5" width="1" height="1" /></g>
<g transform="translate(201 66) rotate(-3) scale(38 5)"><rect fill="#0d1303" fill-opacity="0.501961" x="-0.5" y="-0.5" width="1" height="1" /></g>
<g transform="translate(30 103) rotate(283) scale(3 11)"><rect fill="#d2823e" fill-opacity="0.501961" x="-0.5" y="-0.5" width="1" height="1" /></g>
<g transform="translate(133 114) rotate(-6) scale(10 6)"><rect fill="#867273" fill-opacity="0.501961" x="-0.5" y="-0.5" width="1" height="1" /></g>
<g transform="translate(31 45) rotate(293) scale(18 2)"><rect fill="#1e2a16" fill-opacity="0.501961" x="-0.5" y="-0.5" width="1" height="1" /></g>
<g transform="translate(243 131) rotate(281) scale(8 17)"><rect fill="#6d4f39" fill-opacity="0.501961" x="-0.5" y="-0.5" width="1" height="1" /></g>
<g transform="translate(53 92) rotate(154) scale(5 7)"><rect fill="#070000" fill-opacity="0.501961" x="-0.5" y="-0.5" width="1" height="1" /></g>
<g transform="translate(179 89) rotate(163) scale(21 6)"><rect fill="#000000" fill-opacity="0.501961" x="-0.5" y="-0.5" width="1" height="1" /></g>
<g transform="translate(214 108) rotate(0) scale(66 10)"><rect fill="#5a6486" fill-opacity="0.501961" x="-0.5" y="-0.5" width="1" height="1" /></g>
<g transform="translate(235 58) rotate(40) scale(2 1)"><rect fill="#211800" fill-opacity="0.501961" x="-0.5" y="-0.5" width="1" height="1" /></g>
<g transform="translate(128 104) rotate(169) scale(45 1)"><rect fill="#975f20" fill-opacity="0.501961" x="-0.5" y="-0.5" width="1" height="1" /></g>
<g transform="translate(126 47) rotate(122) scale(1 21)"><rect fill="#a8cbdf" fill-opacity="0.501961" x="-0.5" y="-0.5" width="1" height="1" /></g>
<g transform="translate(37 120) rotate(276) scale(3 16)"><rect fill="#915a13" fill-opacity="0.501961" x="-0.5" y="-0.5" width="1" height="1" /></g>
<g transform="translate(109 82) rotate(374) scale(6 1)"><rect fill="#1c0000" fill-opacity="0.501961" x="-0.5" y="-0.5" width="1" height="1" /></g>
<g transform="translate(96 84) rotate(174) scale(8 1)"><rect fill="#000000" fill-opacity="0.501961" x="-0.5" y="-0.5" width="1" height="1" /></g>
<g transform="translate(158 76) rotate(288) scale(7 4)"><rect fill="#ffca9e" fill-opacity="0.501961" x="-0.5" y="-0.5" width="1" height="1" /></g>
<g transform="translate(12 100) rotate(176) scale(29 1)"><rect fill="#eba266" fill-opacity="0.501961" x="-0.5" y="-0.5" width="1" height="1" /></g>
<g transform="translate(0 58) rotate(182) scale(27 16)"><rect fill="#040900" fill-opacity="0.501961" x="-0.5" y="-0.5" width="1" height="1" /></g>
<g transform="translate(167 97) rotate(210) scale(7 1)"><rect fill="#b27330" fill-opacity="0.501961" x="-0.5" y="-0.5" width="1" height="1" /></g>
<g transform="translate(76 82) rotate(280) scale(17 4)"><rect fill="#000008" fill-opacity="0.501961" x="-0.5" y="-0.5" width="1" height="1" /></g>
<g transform="translate(166 57) rotate(240) scale(13 1)"><rect fill="#241e00" fill-opacity="0.501961" x="-0.5" y="-0.5" width="1" height="1" /></g>
<g transform="translate(0 95) rotate(58) scale(5 10)"><rect fill="#000000" fill-opacity="0.501961" x="-0.5" y="-0.5" width="1" height="1" /></g>
<g transform="translate(10 34) rotate(177) scale(37 1)"><rect fill="#7ab0db" fill-opacity="0.501961" x="-0.5" y="-0.5" width="1" height="1" /></g>
<g transform="translate(116 76) rotate(171) scale(15 1)"><rect fill="#ffe2c7" fill-opacity="0.501961" x="-0.5" y="-0.5" width="1" height="1" /></g>
<g transform="translate(100 86) rotate(113) scale(1 7)"><rect fill="#ffdcbb" fill-opacity="0.501961" x="-0.5" y="-0.5" width="1" height="1" /></g>
<g transform="translate(72 94) rotate(10) scale(22 1)"><rect fill="#ffc091" fill-opacity="0.501961" x="-0.5" y="-0.5" width="1" height="1" /></g>
<g transform="translate(76 55) rotate(267) scale(21 5)"><rect fill="#000000" fill-opacity="0.501961" x="-0.5" y="-0.5" width="1" height="1" /></g>
<g transform="translate(169 42) rotate(204) scale(10 3)"><rect fill="#f0e3e6" fill-opacity="0.501961" x="-0.5" y="-0.5" width="1" height="1" /></g>
<g transform="translate(97 88) rotate(196) scale(32 1)"><rect fill="#6c4828" fill-opacity="0.501961" x="-0.5" y="-0.5" width="1" height="1" /></g>
<g transform="translate(45 74) rotate(89) scale(4 45)"><rect fill="#000000" fill-opacity="0.501961" x="-0.5" y="-0.5" width="1" height="1" /></g>
<g transform="translate(39 92) rotate(17) scale(19 1)"><rect fill="#b96522" fill-opacity="0.501961" x="-0.5" y="-0.5" width="1" height="1" /></g>
<g transform="translate(155 109) rotate(194) scale(31 1)"><rect fill="#905716" fill-opacity="0.501961" x="-0.5" y="-0.5" width="1" height="1" /></g>
<g transform="translate(46 27) rotate(94) scale(6 124)"><rect fill="#41aadb" fill-opacity="0.501961" x="-0.5" y="-0.5" width="1" height="1" /></g>
<g transform="translate(141 62) rotate(54) scale(18 1)"><rect fill="#776603" fill-opacity="0.501961" x="-0.5" y="-0.5" width="1" height="1" /></g>
<g transform="translate(135 82) rotate(-11) scale(4 3)"><rect fill="#060000" fill-opacity="0.501961" x="-0.5" y="-0.5" width="1" height="1" /></g>
<g transform="translate(55 51) rotate(127) scale(19 1)"><rect fill="#68570a" fill-opacity="0.501961" x="-0.5" y="-0.5" width="1" height="1" /></g>
<g transform="translate(228 143) rotate(183) scale(111 16)"><rect fill="#3f2724" fill-opacity="0.501961" x="-0.5" y="-0.5" width="1" height="1" /></g>
<g transform="translate(107 107) rotate(-8) scale(4 3)"><rect fill="#808aab" fill-opacity="0.501961" x="-0.5" y="-0.5" width="1" height="1" /></g>
<g transform="translate(253 68) rotate(20) scale(10 9)"><rect fill="#020600" fill-opacity="0.501961" x="-0.5" y="-0.5" width="1" height="1" /></g>
<g transform="translate(61 111) rotate(190) scale(27 9)"><rect fill="#080000" fill-opacity="0.501961" x="-0.5" y="-0.5" width="1" height="1" /></g>
<g transform="translate(35 43) rotate(111) scale(6 3)"><rect fill="#96c5ed" fill-opacity="0.501961" x="-0.5" y="-0.5" width="1" height="1" /></g>
<g transform="translate(93 58) rotate(299) scale(9 1)"><rect fill="#aa9319" fill-opacity="0.501961" x="-0.5" y="-0.5" width="1" height="1" /></g>
<g transform="translate(224 87) rotate(83) scale(4 37)"><rect fill="#676d4f" fill-opacity="0.501961" x="-0.5" y="-0.5" width="1" height="1" /></g>
<g transform="translate(98 82) rotate(167) scale(10 1)"><rect fill="#ffcb9e" fill-opacity="0.501961" x="-0.5" y="-0.5" width="1" height="1" /></g>
<g transform="translate(28 130) rotate(319) scale(13 2)"><rect fill="#855300" fill-opacity="0.501961" x="-0.5" y="-0.5" width="1" height="1" /></g>
<g transform="translate(21 110) rotate(241) scale(10 15)"><rect fill="#000100" fill-opacity="0.501961" x="-0.5" y="-0.5" width="1" height="1" /></g>
<g transform="translate(48 132) rotate(78) scale(1 52)"><rect fill="#695152" fill-opacity="0.501961" x="-0.5" y="-0.5" width="1" height="1" /></g>
<g transform="translate(3 98) rotate(287) scale(1 24)"><rect fill="#ed9d59" fill-opacity="0.501961" x="-0.5" y="-0.5" width="1" height="1" /></g>
<g transform="translate(192 78) rotate(120) scale(26 3)"><rect fill="#000500" fill-opacity="0.501961" x="-0.5" y="-0.5" width="1" height="1" /></g>
<g transform="translate(198 52) rotate(181) scale(64 7)"><rect fill="#96b4d3" fill-opacity="0.501961" x="-0.5" y="-0.5" width="1" height="1" /></g>
<g transform="translate(96 70) rotate(271) scale(1 54)"><rect fill="#705c15" fill-opacity="0.501961" x="-0.5" y="-0.5" width="1" height="1" /></g>
<g transform="translate(130 84) rotate(69) scale(5 8)"><rect fill="#fcb37c" fill-opacity="0.501961" x="-0.5" y="-0.5" width="1" height="1" /></g>
<g transform="translate(167 87) rotate(63) scale(1 11)"><rect fill="#ca8f63" fill-opacity="0.501961" x="-0.5" y="-0.5" width="1" height="1" /></g>
<g transform="translate(185 80) rotate(320) scale(15 1)"><rect fill="#a98273" fill-opacity="0.501961" x="-0.5" y="-0.5" width="1" height="1" /></g>
<g transform="translate(148 87) rotate(284) scale(1 8)"><rect fill="#ce8046" fill-opacity="0.501961" x="-0.5" y="-0.5" width="1" height="1" /></g>
<g transform="translate(123 111) rotate(277) scale(3 16)"><rect fill="#6d3c00" fill-opacity="0.501961" x="-0.5" y="-0.5" width="1" height="1" /></g>
<g transform="translate(27 42) rotate(70) scale(1 11)"><rect fill="#7cb0c5" fill-opacity="0.501961" x="-0.5" y="-0.5" width="1" height="1" /></g>
<g transform="translate(38 104) rotate(208) scale(49 1)"><rect fill="#000000" fill-opacity="0.501961" x="-0.5" y="-0.5" width="1" height="1" /></g>
<g transform="translate(242 59) rotate(155) scale(19 1)"><rect fill="#9aa7ba" fill-opacity="0.501961" x="-0.5" y="-0.5" width="1" height="1" /></g>
<g transform="translate(209 59) rotate(201) scale(20 3)"><rect fill="#9fbbda" fill-opacity="0.501961" x="-0.5" y="-0.5" width="1" height="1" /></g>
<g transform="translate(216 124) rotate(95) scale(13 34)"><rect fill="#3f314c" fill-opacity="0.501961" x="-0.5" y="-0.5" width="1" height="1" /></g>
<g transform="translate(14 100) rotate(212) scale(15 1)"><rect fill="#e8a15d" fill-opacity="0.501961" x="-0.5" y="-0.5" width="1" height="1" /></g>
<g transform="translate(140 108) rotate(-11) scale(14 1)"><rect fill="#110000" fill-opacity="0.501961" x="-0.5" y="-0.5" width="1" height="1" /></g>
<g transform="translate(122 120) rotate(361) scale(82 9)"><rect fill="#5e4e64" fill-opacity="0.501961" x="-0.5" y="-0.5" width="1" height="1" /></g>
<g transform="translate(147 98) rotate(72) scale(13 1)"><rect fill="#170000" fill-opacity="0.501961" x="-0.5" y="-0.5" width="1" height="1" /></g>
<g transform="translate(188 117) rotate(90) scale(5 10)"><rect fill="#a37a61" fill-opacity="0.501961" x="-0.5" y="-0.5" width="1" height="1" /></g>
<g transform="translate(234 63) rotate(348) scale(12 2)"><rect fill="#a4bad1" fill-opacity="0.501961" x="-0.5" y="-0.5" width="1" height="1" /></g>
<g transform="translate(170 87) rotate(218) scale(1 14)"><rect fill="#0a0100" fill-opacity="0.501961" x="-0.5" y="-0.5" width="1" height="1" /></g>
</g>
</svg>