<svg height="576" width="1024" xmlns="http://www.w3.org/2000/svg"><path d="m0 0h1024v576h-1024z" fill="#4a5e69"/><g fill-opacity=".501961"><path d="m-.5-.5h1v1h-1z" fill="#2bd4ff" transform="matrix(1014.41233328 106.61903252 -27.17740044 258.5756928 518 70)"/><path d="m-.5-.5h1v1h-1z" fill="#5b1800" transform="matrix(952.36213136 83.32089008 -49.85308484 569.82336732 290 474)"/><path d="m-.5-.5h1v1h-1z" fill="#ffde93" transform="matrix(3.76302468 -35.80278824 533.06373592 56.02725632 178 354)"/><path d="m-.5-.5h1v1h-1z" fill="#000200" transform="matrix(540 0 0 136 138 254)"/><path d="m-.5-.5h1v1h-1z" fill="#ffb26d" transform="matrix(12.97501168 66.75064848 -290.56164632 56.47946264 522 322)"/><path d="m-.5-.5h1v1h-1z" fill="#9dc6f4" transform="matrix(835.39839212 87.80390916 -9.19850476 87.5179268 562 166)"/><path d="m-.5-.5h1v1h-1z" fill="#007ff3" transform="matrix(-2.30371764 131.97989576 -571.91288164 -9.98277648 434 62)"/><path d="m-.5-.5h1v1h-1z" transform="matrix(461.45815944 -48.50120696 6.2717078 59.67131372 230 442)"/><path d="m-.5-.5h1v1h-1z" fill="#1a0900" transform="matrix(-545.91469456 47.76134704 -6.27521348 -71.72601828 1022 270)"/><path d="m-.5-.5h1v1h-1z" fill="#46090e" transform="matrix(-275.6217516 -14.44472392 5.65228328 -107.85198976 902 538)"/><path d="m-.5-.5h1v1h-1z" fill="#9394ab" transform="matrix(157.71878332 -94.7670058 49.4436552 82.28806088 806 398)"/><path d="m-.5-.5h1v1h-1z" fill="#005dd2" transform="matrix(669.42121448 94.08101624 -14.47400248 102.98787916 618 2)"/><path d="m-.5-.5h1v1h-1z" fill="#836c79" transform="matrix(187.07905244 -43.19060244 17.09628012 74.05212492 422 470)"/><path d="m-.5-.5h1v1h-1z" fill="#0c1600" transform="matrix(9.97976116 46.95108484 -179.97915852 38.25575112 542 242)"/><path d="m-.5-.5h1v1h-1z" fill="#1a0000" transform="matrix(-304 0 0 -124 74 474)"/><path d="m-.5-.5h1v1h-1z" fill="#382500" transform="matrix(77.61915032 86.20479976 -133.7660686 120.44350916 1022 278)"/><path d="m-.5-.5h1v1h-1z" fill="#ffd390" transform="matrix(107.73691744 7.53369916 -3.62733664 51.8733306 70 346)"/><path d="m-.5-.5h1v1h-1z" fill="#ffca76" transform="matrix(-183.18157216 42.2907982 -2.69941264 -11.69244076 214 398)"/><path d="m-.5-.5h1v1h-1z" fill="#512600" transform="matrix(151.79168928 -7.95506536 7.74572152 147.79717116 650 386)"/><path d="m-.5-.5h1v1h-1z" fill="#8ba7cb" transform="matrix(6.07097092 -115.84102604 151.79168928 7.95506536 918 202)"/><path d="m-.5-.5h1v1h-1z" fill="#22aceb" transform="matrix(1019.37864356 35.59748664 -3.07115572 87.94639276 514 102)"/><path d="m-.5-.5h1v1h-1z" transform="matrix(-31.25454284 -90.76978324 105.89808048 -36.46363328 34 198)"/><path d="m-.5-.5h1v1h-1z" fill="#ffbe86" transform="matrix(1.11678388 31.98050648 -191.8830388 6.70070336 622 298)"/><path d="m-.5-.5h1v1h-1z" fill="#0575cf" transform="matrix(803.87754692 14.03173476 -2.65276576 151.97684968 330 2)"/><path d="m-.5-.5h1v1h-1z" fill="#64556e" transform="matrix(0 72 -492 0 578 490)"/><path d="m-.5-.5h1v1h-1z" fill="#7a82a9" transform="matrix(-3.55884504 67.90680836 -467.35862228 -24.49322752 962 414)"/><path d="m-.5-.5h1v1h-1z" fill="#ddd8e4" transform="matrix(102.71410376 33.3738354 -16.06888372 49.45493884 678 194)"/><path d="m-.5-.5h1v1h-1z" fill="#230f00" transform="matrix(23.93777336 170.32610784 -134.67645736 18.92754172 250 290)"/><path d="m-.5-.5h1v1h-1z" fill="#ffca93" transform="matrix(-112 0 0 -20 230 350)"/><path d="m-.5-.5h1v1h-1z" fill="#ffab51" transform="matrix(-3.34015444 23.76643364 -114.87109596 -16.14407972 70 406)"/><path d="m-.5-.5h1v1h-1z" fill="#c28758" transform="matrix(11.28907404 107.40836468 -143.21115292 15.05209872 526 334)"/><path d="m-.5-.5h1v1h-1z" fill="#141900" transform="matrix(110.4605824 46.8877354 -23.44386772 55.2302912 282 206)"/><path d="m-.5-.5h1v1h-1z" transform="matrix(3.05294392 15.70603492 -337.67975112 65.6382944 594 386)"/><path d="m-.5-.5h1v1h-1z" transform="matrix(-52.95972204 -70.27992488 22.36179428 -16.85082064 782 258)"/><path d="m-.5-.5h1v1h-1z" fill="#ffeaf5" transform="matrix(4.86214896 -27.57461708 59.0884652 10.41889068 762 90)"/><path d="m-.5-.5h1v1h-1z" fill="#6b6112" transform="matrix(-235.42511588 16.4625278 -4.18538844 -59.853843 962 334)"/><path d="m-.5-.5h1v1h-1z" fill="#181700" transform="matrix(110.85125168 64 -14 24.24871132 630 238)"/><path d="m-.5-.5h1v1h-1z" fill="#2d2d00" transform="matrix(-322.7670822 28.23846064 -5.92659052 -67.74123948 470 254)"/><path d="m-.5-.5h1v1h-1z" fill="#1d0000" transform="matrix(-.5566924 3.96107228 -522.86154028 -73.48339732 418 358)"/><path d="m-.5-.5h1v1h-1z" fill="#191900" transform="matrix(-323.21075228 -22.60109748 3.06928484 -43.8928182 898 286)"/><path d="m-.5-.5h1v1h-1z" fill="#9ddaff" transform="matrix(59.74914728 -22.93554876 8.6008308 22.40593024 158 170)"/><path d="m-.5-.5h1v1h-1z" fill="#97add1" transform="matrix(-29.078031 -43.10995376 182.38826596 -123.02243876 1002 186)"/><path d="m-.5-.5h1v1h-1z" fill="#1f0000" transform="matrix(-10.89278072 -16.77341136 33.54682272 -21.7855614 122 150)"/><path d="m-.5-.5h1v1h-1z" fill="#ffca9d" transform="matrix(-1.1133848 7.92214456 -186.17039692 -26.164543 322 378)"/><path d="m-.5-.5h1v1h-1z" fill="#86bdef" transform="matrix(-23.15353788 -80.74598244 19.22523392 -5.51274712 98 138)"/><path d="m-.5-.5h1v1h-1z" transform="matrix(.69459272 -3.939231 90.60231328 15.97563236 534 326)"/><path d="m-.5-.5h1v1h-1z" fill="#ffe3ff" transform="matrix(.27923852 15.99756312 -123.9811142 2.1640984 1022 26)"/><path d="m-.5-.5h1v1h-1z" fill="#b0c1e1" transform="matrix(-15.52914272 -57.95554956 61.81925288 -16.56441888 818 218)"/><path d="m-.5-.5h1v1h-1z" fill="#1b1b00" transform="matrix(-24.72135956 -76.08452132 174.994399 -56.85912696 266 234)"/><path d="m-.5-.5h1v1h-1z" transform="matrix(-3.62733664 -51.8733306 554.64561196 -38.7845994 102 442)"/><path d="m-.5-.5h1v1h-1z" fill="#5f2a00" transform="matrix(12.42331416 46.36443968 -255.00441816 68.32822792 126 510)"/><path d="m-.5-.5h1v1h-1z" fill="#171800" transform="matrix(-12.03630048 -15.9727102 99.03080324 -74.62506288 466 234)"/><path d="m-.5-.5h1v1h-1z" fill="#0590d9" transform="matrix(-4.46441432 -63.8440992 351.14254568 -24.55427876 962 74)"/><path d="m-.5-.5h1v1h-1z" fill="#a3cfe8" transform="matrix(-5.63164076 -35.55678028 146.1778744 -23.15230084 474 178)"/><path d="m-.5-.5h1v1h-1z" fill="#909ba7" transform="matrix(-10.7245022 87.34406136 -47.64221528 -5.84972848 810 354)"/><path d="m-.5-.5h1v1h-1z" fill="#874000" transform="matrix(169.38693352 29.86748656 -4.16755628 23.63538608 530 438)"/><path d="m-.5-.5h1v1h-1z" fill="#3d1b05" transform="matrix(-684 0 0 -40 606 570)"/><path d="m-.5-.5h1v1h-1z" fill="#3f3500" transform="matrix(-59.74441668 -99.43140688 99.43140688 -59.74441668 378 262)"/><path d="m-.5-.5h1v1h-1z" fill="#151100" transform="matrix(-73.53910524 -73.53910524 56.56854248 -56.56854248 1022 270)"/><path d="m-.5-.5h1v1h-1z" fill="#f2ad77" transform="matrix(-.20934384 -3.99451812 147.79717116 -7.74572152 586 366)"/><path d="m-.5-.5h1v1h-1z" fill="#ea9b55" transform="matrix(1.3022726 -3.78207432 158.84712072 54.69544996 134 386)"/><path d="m-.5-.5h1v1h-1z" fill="#ffb371" transform="matrix(14.527696 -28.51220876 60.58844364 30.871354 166 354)"/><path d="m-.5-.5h1v1h-1z" fill="#7ab2e7" transform="matrix(50.88288576 -31.79515584 33.91483292 54.27507816 14 122)"/><path d="m-.5-.5h1v1h-1z" transform="matrix(-10.78552856 -5.26045376 43.83711468 -89.87940464 134 410)"/><path d="m-.5-.5h1v1h-1z" fill="#0c0c00" transform="matrix(-159.998431 -139.08451416 39.36354172 -45.2825748 98 230)"/><path d="m-.5-.5h1v1h-1z" fill="#514163" transform="matrix(245.58648104 34.51492904 -12.24723288 87.14359004 898 478)"/><path d="m-.5-.5h1v1h-1z" fill="#ffdd92" transform="matrix(5.07141916 10.87569344 -43.50277376 20.28567656 14 402)"/><path d="m-.5-.5h1v1h-1z" transform="matrix(.763236 -3.92650872 164.9133668 32.05591124 54 386)"/><path d="m-.5-.5h1v1h-1z" fill="#634848" transform="matrix(5.01023164 35.64965048 -324.80792656 45.64877712 266 526)"/><path d="m-.5-.5h1v1h-1z" fill="#f2b684" transform="matrix(-31.9220496 -2.23220716 3.62733664 -51.8733306 478 306)"/><path d="m-.5-.5h1v1h-1z" fill="#070c01" transform="matrix(-30.2565944 -10.41818096 22.13863452 -64.29526316 762 346)"/><path d="m-.5-.5h1v1h-1z" fill="#46381c" transform="matrix(-.62573788 3.95075336 -86.91657396 -13.76623292 906 238)"/><path d="m-.5-.5h1v1h-1z" fill="#ffb481" transform="matrix(0 -36 300 0 2 342)"/><path d="m-.5-.5h1v1h-1z" fill="#da9f78" transform="matrix(33.54682272 -21.7855614 8.71422456 13.41872908 738 326)"/><path d="m-.5-.5h1v1h-1z" fill="#632d17" transform="matrix(115.1353536 -14.13684384 .97495476 7.9403692 402 366)"/><path d="m-.5-.5h1v1h-1z" fill="#633820" transform="matrix(-157.64691812 45.20452636 -1.10254944 -3.8450468 458 322)"/><path d="m-.5-.5h1v1h-1z" fill="#f1a76c" transform="matrix(-2.28970796 11.7795262 -78.53017468 -15.26471964 194 406)"/><path d="m-.5-.5h1v1h-1z" fill="#0c6ac7" transform="matrix(960 0 0 72 466 2)"/><path d="m-.5-.5h1v1h-1z" transform="matrix(-12.50339612 -29.45615532 22.09211648 -9.37754708 214 374)"/><path d="m-.5-.5h1v1h-1z" fill="#bfd1d8" transform="matrix(-14.8377394 -23.74534668 44.098501 -27.55580176 546 194)"/><path d="m-.5-.5h1v1h-1z" fill="#573b23" transform="matrix(-31.2943812 -41.52904652 70.27992488 -52.95972204 654 338)"/><path d="m-.5-.5h1v1h-1z" fill="#fab279" transform="matrix(-102.98787916 -14.47400248 1.1133848 -7.92214456 462 382)"/><path d="m-.5-.5h1v1h-1z" fill="#090700" transform="matrix(855.86962704 14.93925992 -.06980964 3.9993908 554 274)"/><path d="m-.5-.5h1v1h-1z" fill="#61abdb" transform="matrix(-3.76302468 35.80278824 -294.37848104 -30.94042512 174 122)"/><path d="m-.5-.5h1v1h-1z" transform="matrix(27.84661308 -2.92679696 2.92679696 27.84661308 78 378)"/><path d="m-.5-.5h1v1h-1z" fill="#faa864" transform="matrix(-8.48528136 -8.48528136 25.45584412 -25.45584412 146 410)"/><path d="m-.5-.5h1v1h-1z" fill="#bc7625" transform="matrix(-87.00554756 40.57135312 -1.69047304 -3.62523116 378 446)"/><path d="m-.5-.5h1v1h-1z" transform="matrix(59.67131372 6.2717078 -.41811384 3.9780876 562 354)"/><path d="m-.5-.5h1v1h-1z" fill="#ffc891" transform="matrix(-87.14359004 -12.24723288 1.1133848 -7.92214456 466 310)"/><path d="m-.5-.5h1v1h-1z" fill="#1c0b00" transform="matrix(16.30644028 -155.14541568 11.93426276 1.25434156 710 394)"/><path d="m-.5-.5h1v1h-1z" fill="#193930" transform="matrix(69.63915608 46.97220388 -13.42062968 19.89690176 686 246)"/><path d="m-.5-.5h1v1h-1z" fill="#2c2900" transform="matrix(-91.77589264 6.4175956 -4.46441432 -63.8440992 858 282)"/><path d="m-.5-.5h1v1h-1z" transform="matrix(2.2267696 15.84428908 -324.80792656 45.64877712 390 418)"/><path d="m-.5-.5h1v1h-1z" fill="#6a5f77" transform="matrix(0 -32 316 0 594 474)"/><path d="m-.5-.5h1v1h-1z" fill="#030000" transform="matrix(103.74666124 -7.25467328 6.4175956 91.77589264 46 458)"/><path d="m-.5-.5h1v1h-1z" fill="#85612b" transform="matrix(.9676876 -3.88118292 260.03925464 64.83506804 38 290)"/><path d="m-.5-.5h1v1h-1z" fill="#78b9e2" transform="matrix(-26.479861 35.13996244 -60.69629876 -45.73794176 194 146)"/><path d="m-.5-.5h1v1h-1z" fill="#1299d9" transform="matrix(-1019.37864356 -35.59748664 2.65236176 -75.95370284 230 66)"/><path d="m-.5-.5h1v1h-1z" fill="#b16919" transform="matrix(-1.10254944 -3.8450468 169.18205848 -48.51217464 586 402)"/><path d="m-.5-.5h1v1h-1z" fill="#f29c4c" transform="matrix(6.68030884 47.53286728 -23.76643364 3.34015444 50 382)"/><path d="m-.5-.5h1v1h-1z" fill="#160000" transform="matrix(43.9731964 1.53557784 -.55839196 15.99025324 562 326)"/><path d="m-.5-.5h1v1h-1z" fill="#ee934b" transform="matrix(-11.81769304 2.08377812 -10.41889068 -59.0884652 722 306)"/><path d="m-.5-.5h1v1h-1z" fill="#080100" transform="matrix(-14.334718 -37.34321704 97.09236436 -37.27026676 246 426)"/><path d="m-.5-.5h1v1h-1z" fill="#0f0100" transform="matrix(-12.50339612 29.45615532 -18.41009708 -7.81462256 122 146)"/><path d="m-.5-.5h1v1h-1z" fill="#ffe2c9" transform="matrix(35.59674776 -25.86255112 4.702282 6.47213596 590 302)"/><path d="m-.5-.5h1v1h-1z" transform="matrix(.8998042 -3.89748024 206.56645372 47.68962352 38 382)"/><path d="m-.5-.5h1v1h-1z" transform="matrix(-14.8377394 -23.74534668 20.35315432 -12.71806236 150 378)"/><path d="m-.5-.5h1v1h-1z" fill="#081903" transform="matrix(-5.34265188 27.48556112 -58.897631 -11.44853972 766 238)"/><path d="m-.5-.5h1v1h-1z" fill="#b37020" transform="matrix(.62803148 11.9835544 -131.8190986 6.90834624 618 454)"/><path d="m-.5-.5h1v1h-1z" fill="#0058c2" transform="matrix(-295.59434228 -15.49144304 1.04671912 -19.97259068 946 6)"/><path d="m-.5-.5h1v1h-1z" fill="#fec38a" transform="matrix(0 12 -112 0 510 286)"/><path d="m-.5-.5h1v1h-1z" fill="#60a9d9" transform="matrix(1.0471444 59.99086172 -391.94029652 6.84134332 982 166)"/><path d="m-.5-.5h1v1h-1z" fill="#3d3d06" transform="matrix(210.8386418 22.1600342 -2.09056928 19.89043792 182 226)"/><path d="m-.5-.5h1v1h-1z" fill="#160000" transform="matrix(4.49527912 11.12620624 -241.0678022 97.39771428 30 538)"/><path d="m-.5-.5h1v1h-1z" fill="#4078a0" transform="matrix(43.8928182 3.06928484 -1.39512948 19.951281 726 250)"/><path d="m-.5-.5h1v1h-1z" fill="#220200" transform="matrix(75.43350752 9.26207008 -6.82468324 55.58258448 210 314)"/><path d="m-.5-.5h1v1h-1z" fill="#6e5c80" transform="matrix(11.388626 25.5792728 -58.46690928 26.03114516 274 498)"/><path d="m-.5-.5h1v1h-1z" fill="#cd8c5a" transform="matrix(-2.77863348 -2.8773592 66.17926164 -63.90857008 690 330)"/><path d="m-.5-.5h1v1h-1z" fill="#7fc1ea" transform="matrix(-.83771552 -47.99268936 55.99147092 -.97733476 294 154)"/><path d="m-.5-.5h1v1h-1z" fill="#0e0905" transform="matrix(-16.05913456 17.8354758 -8.91773792 -8.02956728 454 386)"/><path d="m-.5-.5h1v1h-1z" fill="#bcd2e7" transform="matrix(-3.47296356 -19.69615508 149.69077844 -26.394523 646 174)"/><path d="m-.5-.5h1v1h-1z" fill="#93b3d2" transform="matrix(-83.37387672 -10.23702484 8.77459272 -71.46332292 830 214)"/><path d="m-.5-.5h1v1h-1z" fill="#ffd2a4" transform="matrix(7.75695392 13.99391532 -24.4893518 13.57466936 510 346)"/><path d="m-.5-.5h1v1h-1z" transform="matrix(-.13961924 7.99878156 -67.98964328 -1.18676364 506 370)"/><path d="m-.5-.5h1v1h-1z" fill="#2a1000" transform="matrix(17.45314632 -31.48630944 90.96044956 50.42020052 674 430)"/><path d="m-.5-.5h1v1h-1z" fill="#ffe9ec" transform="matrix(7.511545 -14.12716148 35.31790372 18.77886252 754 86)"/><path d="m-.5-.5h1v1h-1z" fill="#87b7df" transform="matrix(5.65685424 -5.65685424 67.882251 67.882251 82 146)"/><path d="m-.5-.5h1v1h-1z" fill="#1b0c00" transform="matrix(-2.67652244 -2.97257932 104.04027556 -93.67828488 598 362)"/><path d="m-.5-.5h1v1h-1z" fill="#9dbfe0" transform="matrix(-11.85226008 1.8772136 -13.14049508 -82.9658206 906 218)"/><path d="m-.5-.5h1v1h-1z" fill="#ffc693" transform="matrix(.27919596 -7.9951266 207.873292 7.25909532 178 350)"/><path d="m-.5-.5h1v1h-1z" fill="#f1c2a1" transform="matrix(.62573788 -3.95075336 146.1778744 23.15230084 514 358)"/><path d="m-.5-.5h1v1h-1z" fill="#7f4501" transform="matrix(-135.81361672 -7.11769004 .83737528 -15.97807256 250 474)"/><path d="m-.5-.5h1v1h-1z" fill="#ffba6a" transform="matrix(.83164676 3.9125904 -27.38813284 5.82152736 618 346)"/><path d="m-.5-.5h1v1h-1z" fill="#cdcdf1" transform="matrix(42.29551464 -12.12804364 4.41019768 15.38018712 966 34)"/><path d="m-.5-.5h1v1h-1z" transform="matrix(-.4886674 27.99573548 -275.95796388 -4.81686416 214 262)"/><path d="m-.5-.5h1v1h-1z" fill="#3b2e04" transform="matrix(154.45010772 -120.66964916 32.01439672 40.9765592 362 286)"/><path d="m-.5-.5h1v1h-1z" fill="#53b9e4" transform="matrix(0 44 -412 0 574 138)"/><path d="m-.5-.5h1v1h-1z" fill="#70681b" transform="matrix(-84.15481852 25.72871 -3.50846044 -11.47565708 370 238)"/><path d="m-.5-.5h1v1h-1z" fill="#96b7d6" transform="matrix(-9.8885438 -30.43380852 102.71410376 -33.3738354 734 206)"/><path d="m-.5-.5h1v1h-1z" fill="#684713" transform="matrix(-.06980964 -3.9993908 323.95065324 -5.65457968 62 286)"/><path d="m-.5-.5h1v1h-1z" fill="#544a06" transform="matrix(-284 0 0 -20 946 302)"/><path d="m-.5-.5h1v1h-1z" fill="#e4a474" transform="matrix(-63.3771564 8.90707848 -.5566924 -3.96107228 638 362)"/><path d="m-.5-.5h1v1h-1z" fill="#c48c3f" transform="matrix(206.56182728 -63.15228824 1.1694868 3.82521904 586 286)"/><path d="m-.5-.5h1v1h-1z" fill="#521f00" transform="matrix(4.38016504 -27.65527352 114.57184752 18.14639796 566 426)"/><path d="m-.5-.5h1v1h-1z" fill="#7c899f" transform="matrix(127.82458044 6.6990024 -2.30278208 43.93969952 942 398)"/><path d="m-.5-.5h1v1h-1z" fill="#5f2c01" transform="matrix(-111.84650788 -5.86162708 .20934384 -3.99451812 466 298)"/><path d="m-.5-.5h1v1h-1z" fill="#090700" transform="matrix(-34.64101616 20 -22 -38.10511776 626 238)"/><path d="m-.5-.5h1v1h-1z" fill="#fcb78b" transform="matrix(-192.39892796 37.39856308 -.763236 -3.92650872 242 390)"/><path d="m-.5-.5h1v1h-1z" fill="#210700" transform="matrix(117.82462124 50.01358444 -1.56292452 3.6820194 274 394)"/><path d="m-.5-.5h1v1h-1z" fill="#120f00" transform="matrix(-21.37060748 -109.94224456 15.70603492 -3.05294392 250 214)"/><path d="m-.5-.5h1v1h-1z" fill="#99c3dd" transform="matrix(-93.35804264 -35.83679496 10.0343026 -26.14025196 414 178)"/><path d="m-.5-.5h1v1h-1z" fill="#f4b689" transform="matrix(-12.4343354 -10.06912624 22.65553408 -27.9772546 390 358)"/><path d="m-.5-.5h1v1h-1z" fill="#514900" transform="matrix(-45.254834 45.254834 -11.31370848 -11.31370848 538 230)"/><path d="m-.5-.5h1v1h-1z" fill="#503518" transform="matrix(-60.04043632 -31.92406628 3.75577252 -7.06358076 710 306)"/><path d="m-.5-.5h1v1h-1z" fill="#100700" transform="matrix(2.40726008 3.19454204 -265.14698932 199.80258768 726 354)"/><path d="m-.5-.5h1v1h-1z" fill="#95b29f" transform="matrix(12.50339612 -29.45615532 29.45615532 12.50339612 2 154)"/><path d="m-.5-.5h1v1h-1z" fill="#0d0000" transform="matrix(-31.51384808 -5.55674168 7.6405198 -43.33154112 206 502)"/><path d="m-.5-.5h1v1h-1z" fill="#f4ae8c" transform="matrix(-65.81793068 -38 2 -3.4641016 570 314)"/><path d="m-.5-.5h1v1h-1z" fill="#0d0100" transform="matrix(-21.57105712 -10.52090752 14.02787668 -28.76140948 202 382)"/><path d="m-.5-.5h1v1h-1z" fill="#000600" transform="matrix(-34.67247316 27.08910492 -17.23852132 -22.06430112 770 246)"/><path d="m-.5-.5h1v1h-1z" fill="#ffd9b9" transform="matrix(-42.29551464 -12.12804364 3.30764828 -11.53514036 338 374)"/><path d="m-.5-.5h1v1h-1z" fill="#ffc170" transform="matrix(55.14923416 9.72429796 -.69459272 3.939231 506 378)"/><path d="m-.5-.5h1v1h-1z" fill="#535520" transform="matrix(-127.51292136 -11.15593508 1.74311484 -19.92389396 962 366)"/><path d="m-.5-.5h1v1h-1z" fill="#ffae65" transform="matrix(-3.19454204 2.40726008 -52.95972204 -70.27992488 106 354)"/><path d="m-.5-.5h1v1h-1z" fill="#ffcba1" transform="matrix(-2.06015228 -3.4286692 30.85802284 -18.54137068 662 286)"/><path d="m-.5-.5h1v1h-1z" fill="#212000" transform="matrix(66.27634944 -28.13264124 23.44386772 55.2302912 482 234)"/><path d="m-.5-.5h1v1h-1z" fill="#301200" transform="matrix(-26.91532748 -7.71784596 28.666285 -99.97121636 322 438)"/><path d="m-.5-.5h1v1h-1z" fill="#ffbb8d" transform="matrix(-.69459272 3.939231 -74.84538924 -13.19726152 366 358)"/><path d="m-.5-.5h1v1h-1z" fill="#7e4e0c" transform="matrix(2.07055236 7.7274066 -227.958495 61.08129464 74 506)"/><path d="m-.5-.5h1v1h-1z" fill="#676d90" transform="matrix(-87.78563644 6.13856968 -1.39512948 -19.951281 426 458)"/><path d="m-.5-.5h1v1h-1z" fill="#4f3433" transform="matrix(491.70028688 -17.17055236 1.53557784 43.9731964 598 530)"/><path d="m-.5-.5h1v1h-1z" fill="#8c959b" transform="matrix(-.5566924 3.96107228 -130.71538508 -18.37084932 878 346)"/><path d="m-.5-.5h1v1h-1z" fill="#441700" transform="matrix(81.504841 -20.32143924 .9676876 3.88118292 406 366)"/><path d="m-.5-.5h1v1h-1z" transform="matrix(99.98476952 -1.74524064 .41885776 23.99634468 274 302)"/><path d="m-.5-.5h1v1h-1z" fill="#7e7a84" transform="matrix(2.09428876 119.9817234 -27.99573548 .4886674 734 426)"/><path d="m-.5-.5h1v1h-1z" transform="matrix(-60.04043632 31.92406628 -1.87788624 -3.53179036 642 326)"/><path d="m-.5-.5h1v1h-1z" fill="#ef9551" transform="matrix(-.763236 3.92650872 -54.97112228 -10.68530376 386 394)"/><path d="m-.5-.5h1v1h-1z" transform="matrix(-21.16026908 -29.1246118 6.47213596 -4.702282 142 378)"/><path d="m-.5-.5h1v1h-1z" fill="#870004" transform="matrix(-101.48680304 -36.93817548 1.36808056 -3.75877048 226 322)"/><path d="m-.5-.5h1v1h-1z" fill="#706e2c" transform="matrix(-6.21716768 -5.03456312 40.27650504 -49.73734152 570 214)"/><path d="m-.5-.5h1v1h-1z" fill="#ffe2c5" transform="matrix(.8998042 3.89748024 -31.17984208 7.19843372 414 326)"/><path d="m-.5-.5h1v1h-1z" transform="matrix(-4.45353924 -31.6885782 39.61072276 -5.56692404 2 306)"/><path d="m-.5-.5h1v1h-1z" fill="#8b4b11" transform="matrix(163.60050424 -11.44006168 .27902588 3.9902562 442 318)"/><path d="m-.5-.5h1v1h-1z" fill="#574803" transform="matrix(-11.72045356 -34.03866872 60.51318884 -20.83636188 46 282)"/><path d="m-.5-.5h1v1h-1z" fill="#191600" transform="matrix(.69459272 -3.939231 252.11078476 44.45393348 582 258)"/><path d="m-.5-.5h1v1h-1z" fill="#373a00" transform="matrix(-7.85301748 1.52647196 -10.68530376 -54.97112228 438 222)"/><path d="m-.5-.5h1v1h-1z" fill="#ffc087" transform="matrix(.27902588 -3.9902562 59.853843 4.18538844 554 342)"/><path d="m-.5-.5h1v1h-1z" fill="#002261" transform="matrix(0 40 -28 0 706 254)"/><path d="m-.5-.5h1v1h-1z" fill="#1a1b04" transform="matrix(-123.83006232 6.48965856 -.20934384 -3.99451812 82 150)"/><path d="m-.5-.5h1v1h-1z" transform="matrix(17.64079076 -61.52074856 3.8450468 1.10254944 886 262)"/><path d="m-.5-.5h1v1h-1z" fill="#a99525" transform="matrix(19.97259068 1.04671912 -.83737528 15.97807256 170 234)"/><path d="m-.5-.5h1v1h-1z" fill="#362412" transform="matrix(-.34862296 -3.9847788 326.75186096 -28.58708364 206 422)"/><path d="m-.5-.5h1v1h-1z" fill="#2d2b00" transform="matrix(-12 -20.78460968 83.13843876 -48 126 214)"/><path d="m-.5-.5h1v1h-1z" fill="#504406" transform="matrix(-117.24430336 -40.37045116 3.90681784 -11.34622292 638 222)"/><path d="m-.5-.5h1v1h-1z" fill="#270f00" transform="matrix(2.06015228 -3.4286692 96.00273768 57.6842644 554 386)"/><path d="m-.5-.5h1v1h-1z" fill="#8d4e0d" transform="matrix(118.6795334 -47.94964396 1.49842636 3.7087354 662 438)"/><path d="m-.5-.5h1v1h-1z" fill="#1b0c01" transform="matrix(-40.7960896 16.48269012 -1.49842636 -3.7087354 138 322)"/><path d="m-.5-.5h1v1h-1z" fill="#84bdec" transform="matrix(-10.96254548 4.88083972 -16.26946572 -36.54181832 90 146)"/><path d="m-.5-.5h1v1h-1z" fill="#f4af70" transform="matrix(27.7863348 -28.773592 11.5094368 11.11453392 490 326)"/><path d="m-.5-.5h1v1h-1z" fill="#0d0500" transform="matrix(-54.81272744 24.4041986 -1.62694656 -3.65418184 622 334)"/><path d="m-.5-.5h1v1h-1z" fill="#90c1df" transform="matrix(52.97685556 -28.16829376 22.534635 42.38148444 614 174)"/><path d="m-.5-.5h1v1h-1z" fill="#d9c58c" transform="matrix(-29.23345464 -13.01557256 1.62694656 -3.65418184 638 214)"/><path d="m-.5-.5h1v1h-1z" fill="#8bb0db" transform="matrix(-5.84972848 47.64221528 -35.73166144 -4.38729636 1010 186)"/><path d="m-.5-.5h1v1h-1z" fill="#1faede" transform="matrix(471.3531404 24.70257136 -1.46540676 27.96162696 642 118)"/><path d="m-.5-.5h1v1h-1z" fill="#5b2400" transform="matrix(-123.63850576 33.12883776 -2.07055236 -7.7274066 306 462)"/><path d="m-.5-.5h1v1h-1z" fill="#f9aa6b" transform="matrix(-51.04461352 9.92206776 -.763236 -3.92650872 666 306)"/><path d="m-.5-.5h1v1h-1z" fill="#170000" transform="matrix(-14.527696 -28.51220876 28.51220876 -14.527696 134 502)"/><path d="m-.5-.5h1v1h-1z" fill="#221e00" transform="matrix(39.95116396 78.40857412 -21.3841566 10.895772 342 218)"/><path d="m-.5-.5h1v1h-1z" fill="#050f00" transform="matrix(-23.63538608 -4.16755628 7.6405198 -43.33154112 398 218)"/><path d="m-.5-.5h1v1h-1z" transform="matrix(-19.25808076 25.55633632 -19.16725224 -14.44356056 1014 226)"/><path d="m-.5-.5h1v1h-1z" fill="#ffba84" transform="matrix(27.04592312 -7.24693328 1.0352762 3.86370332 610 330)"/><path d="m-.5-.5h1v1h-1z" fill="#de874d" transform="matrix(19.951281 1.39512948 -3.62733664 51.8733306 254 374)"/><path d="m-.5-.5h1v1h-1z" fill="#361207" transform="matrix(59.853843 -4.18538844 .27902588 3.9902562 278 362)"/><path d="m-.5-.5h1v1h-1z" fill="#ffc6a8" transform="matrix(120.82188804 -27.89393072 3.59921688 15.58992104 2 338)"/><path d="m-.5-.5h1v1h-1z" fill="#8ca8c3" transform="matrix(2.51728156 -3.10858384 99.47468308 80.55301004 954 218)"/><path d="m-.5-.5h1v1h-1z" fill="#ffd79d" transform="matrix(2.33897364 -7.65043804 26.77653316 8.18640772 178 394)"/><path d="m-.5-.5h1v1h-1z" transform="matrix(2.50295144 15.80301344 -288.40499544 45.6788638 446 410)"/><path d="m-.5-.5h1v1h-1z" fill="#93c0d9" transform="matrix(7.75695392 13.99391532 -34.98478828 19.3923848 174 170)"/><path d="m-.5-.5h1v1h-1z" fill="#ffd0ab" transform="matrix(55.45501184 7.79369364 -.5566924 3.96107228 170 342)"/><path d="m-.5-.5h1v1h-1z" fill="#fdd4bc" transform="matrix(-1.10254944 -3.8450468 57.67570176 -16.53824136 562 286)"/><path d="m-.5-.5h1v1h-1z" fill="#0b1000" transform="matrix(154.83719964 19.01161756 -1.94990948 15.88073844 154 210)"/><path d="m-.5-.5h1v1h-1z" fill="#ef9a47" transform="matrix(2.40726008 -3.19454204 19.16725224 14.44356056 314 398)"/><path d="m-.5-.5h1v1h-1z" fill="#f9b084" transform="matrix(-98.76883404 -15.64344652 .62573788 -3.95075336 386 386)"/><path d="m-.5-.5h1v1h-1z" fill="#4e250d" transform="matrix(-3.50696916 -7.19035236 25.16623328 -12.27439212 610 314)"/><path d="m-.5-.5h1v1h-1z" fill="#ffa965" transform="matrix(-1.49842636 3.7087354 -40.7960896 -16.48269012 98 370)"/><path d="m-.5-.5h1v1h-1z" fill="#553e06" transform="matrix(-17.98111648 -44.504825 77.8834438 -31.46695384 362 310)"/><path d="m-.5-.5h1v1h-1z" transform="matrix(12.3609138 -20.5720152 13.7146768 8.2406092 74 386)"/><path d="m-.5-.5h1v1h-1z" fill="#76470a" transform="matrix(-2.20509884 -7.69009356 161.49196492 -46.30707576 122 534)"/><path d="m-.5-.5h1v1h-1z" fill="#127bd1" transform="matrix(-712 0 0 -36 590 42)"/><path d="m-.5-.5h1v1h-1z" fill="#ffcfb6" transform="matrix(58.46220388 -13.49706328 .8998042 3.89748024 422 374)"/><path d="m-.5-.5h1v1h-1z" fill="#6c5f27" transform="matrix(-289.82347628 -35.58584828 .48747736 -3.9701846 814 310)"/><path d="m-.5-.5h1v1h-1z" fill="#73bce6" transform="matrix(-299.26921508 -20.92694212 2.23220716 -31.9220496 462 154)"/><path d="m-.5-.5h1v1h-1z" fill="#010000" transform="matrix(6.88291724 9.82982452 -22.93625724 16.0601402 658 342)"/><path d="m-.5-.5h1v1h-1z" fill="#0d1303" transform="matrix(151.79168928 -7.95506536 1.04671912 19.97259068 806 266)"/><path d="m-.5-.5h1v1h-1z" fill="#d2823e" transform="matrix(2.69941264 -11.69244076 42.87228284 9.8978464 122 414)"/><path d="m-.5-.5h1v1h-1z" fill="#867273" transform="matrix(39.7808758 -4.18113852 2.50868312 23.86852548 534 458)"/><path d="m-.5-.5h1v1h-1z" fill="#1e2a16" transform="matrix(28.13264124 -66.27634944 7.36403884 3.12584904 126 182)"/><path d="m-.5-.5h1v1h-1z" fill="#6d4f39" transform="matrix(6.10588784 -31.41206988 66.75064848 12.97501168 974 526)"/><path d="m-.5-.5h1v1h-1z" fill="#070000" transform="matrix(-17.97588092 8.76742292 -12.27439212 -25.16623328 214 370)"/><path d="m-.5-.5h1v1h-1z" transform="matrix(-80.32959952 24.5592232 -7.01692092 -22.95131416 718 358)"/><path d="m-.5-.5h1v1h-1z" fill="#5a6486" transform="matrix(264 0 0 40 858 434)"/><path d="m-.5-.5h1v1h-1z" fill="#211800" transform="matrix(6.12835556 5.14230088 -2.57115044 3.06417776 942 234)"/><path d="m-.5-.5h1v1h-1z" fill="#975f20" transform="matrix(-176.69289304 34.34561916 -.763236 -3.92650872 514 418)"/><path d="m-.5-.5h1v1h-1z" fill="#a8cbdf" transform="matrix(-2.11967704 3.3921924 -71.23604008 -44.5132182 506 190)"/><path d="m-.5-.5h1v1h-1z" fill="#915a13" transform="matrix(1.25434156 -11.93426276 63.64940132 6.68982164 150 482)"/><path d="m-.5-.5h1v1h-1z" fill="#1c0000" transform="matrix(23.28709744 5.80612548 -.9676876 3.88118292 438 330)"/><path d="m-.5-.5h1v1h-1z" transform="matrix(-31.82470064 3.34491084 -.41811384 -3.9780876 386 338)"/><path d="m-.5-.5h1v1h-1z" fill="#ffca9e" transform="matrix(8.65247584 -26.62958244 15.21690428 4.94427192 634 306)"/><path d="m-.5-.5h1v1h-1z" fill="#eba266" transform="matrix(-115.71742984 8.09175096 -.27902588 -3.9902562 50 402)"/><path d="m-.5-.5h1v1h-1z" fill="#040900" transform="matrix(-107.93420932 -3.76914564 2.2335678 -63.96101292 2 234)"/><path d="m-.5-.5h1v1h-1z" fill="#b27330" transform="matrix(-24.24871132 -14 2 -3.4641016 670 390)"/><path d="m-.5-.5h1v1h-1z" fill="#000008" transform="matrix(11.80807608 -66.9669272 15.75692404 2.77837084 306 330)"/><path d="m-.5-.5h1v1h-1z" fill="#241e00" transform="matrix(-26 -45.033321 3.4641016 -2 666 230)"/><path d="m-.5-.5h1v1h-1z" transform="matrix(10.59838528 16.96096192 -33.92192384 21.19677056 2 382)"/><path d="m-.5-.5h1v1h-1z" fill="#7ab0db" transform="matrix(-147.79717116 7.74572152 -.20934384 -3.99451812 42 138)"/><path d="m-.5-.5h1v1h-1z" fill="#ffe2c7" transform="matrix(-59.26130044 9.38606792 -.62573788 -3.95075336 466 306)"/><path d="m-.5-.5h1v1h-1z" fill="#ffdcbb" transform="matrix(-1.56292452 3.6820194 -25.77413588 -10.9404716 402 346)"/><path d="m-.5-.5h1v1h-1z" fill="#ffc091" transform="matrix(86.66308228 15.28103964 -.69459272 3.939231 290 378)"/><path d="m-.5-.5h1v1h-1z" transform="matrix(-4.39622032 -83.88488092 19.97259068 -1.04671912 306 222)"/><path d="m-.5-.5h1v1h-1z" fill="#f0e3e6" transform="matrix(-36.54181832 -16.26946572 4.88083972 -10.96254548 678 170)"/><path d="m-.5-.5h1v1h-1z" fill="#6c4828" transform="matrix(-123.04149708 -35.28158156 1.10254944 -3.8450468 390 354)"/><path d="m-.5-.5h1v1h-1z" transform="matrix(.27923852 15.99756312 -179.97258512 3.14143316 182 298)"/><path d="m-.5-.5h1v1h-1z" fill="#b96522" transform="matrix(72.67916144 22.22024956 -1.1694868 3.82521904 158 370)"/><path d="m-.5-.5h1v1h-1z" fill="#905716" transform="matrix(-120.31667004 -29.99831504 .9676876 -3.88118292 622 438)"/><path d="m-.5-.5h1v1h-1z" fill="#41aadb" transform="matrix(-1.67415536 23.9415372 -494.79176892 -34.59921096 186 110)"/><path d="m-.5-.5h1v1h-1z" fill="#776603" transform="matrix(42.32053816 58.2492236 -3.23606796 2.351141 566 250)"/><path d="m-.5-.5h1v1h-1z" fill="#060000" transform="matrix(15.70603492 -3.05294392 2.28970796 11.7795262 542 330)"/><path d="m-.5-.5h1v1h-1z" fill="#68570a" transform="matrix(-45.73794176 60.69629876 -3.19454204 -2.40726008 222 206)"/><path d="m-.5-.5h1v1h-1z" fill="#3f2724" transform="matrix(-443.39151344 -23.23716456 3.3495012 -63.91229024 914 574)"/><path d="m-.5-.5h1v1h-1z" fill="#808aab" transform="matrix(15.84428908 -2.2267696 1.6700772 11.88321684 430 430)"/><path d="m-.5-.5h1v1h-1z" fill="#020600" transform="matrix(37.58770484 13.68080572 -12.31272516 33.82893436 1014 274)"/><path d="m-.5-.5h1v1h-1z" fill="#080000" transform="matrix(-106.35923732 -18.7540032 6.2513344 -35.45307912 246 446)"/><path d="m-.5-.5h1v1h-1z" fill="#96c5ed" transform="matrix(-8.6008308 22.40593024 -11.20296512 -4.3004154 142 174)"/><path d="m-.5-.5h1v1h-1z" fill="#aa9319" transform="matrix(17.45314632 -31.48630944 3.49847884 1.93923848 374 234)"/><path d="m-.5-.5h1v1h-1z" fill="#676d4f" transform="matrix(1.94990948 15.88073844 -146.89683044 18.03666284 898 350)"/><path d="m-.5-.5h1v1h-1z" fill="#ffcb9e" transform="matrix(-38.9748026 8.99804216 -.8998042 -3.89748024 394 330)"/><path d="m-.5-.5h1v1h-1z" fill="#855300" transform="matrix(39.24489816 -34.11506952 5.24847224 6.03767664 114 522)"/><path d="m-.5-.5h1v1h-1z" fill="#000100" transform="matrix(-19.3923848 -34.98478828 52.47718244 -29.0885772 86 442)"/><path d="m-.5-.5h1v1h-1z" fill="#695152" transform="matrix(.83164676 3.9125904 -203.45470096 43.24563168 194 530)"/><path d="m-.5-.5h1v1h-1z" fill="#ed9d59" transform="matrix(1.1694868 -3.82521904 91.80525656 28.06768364 14 394)"/><path d="m-.5-.5h1v1h-1z" fill="#000500" transform="matrix(-52 90.066642 -10.39230484 -6 770 314)"/><path d="m-.5-.5h1v1h-1z" fill="#96b4d3" transform="matrix(-255.96100996 -4.46781604 .4886674 -27.99573548 794 210)"/><path d="m-.5-.5h1v1h-1z" fill="#705c15" transform="matrix(.06980964 -3.9993908 215.96710216 3.7697198 386 282)"/><path d="m-.5-.5h1v1h-1z" fill="#fcb37c" transform="matrix(7.167359 18.67160852 -29.87457364 11.4677744 522 338)"/><path d="m-.5-.5h1v1h-1z" fill="#ca8f63" transform="matrix(1.815962 3.56402608 -39.20428708 19.975582 670 350)"/><path d="m-.5-.5h1v1h-1z" fill="#a98273" transform="matrix(45.9626666 -38.5672566 2.57115044 3.06417776 742 322)"/><path d="m-.5-.5h1v1h-1z" fill="#ce8046" transform="matrix(.9676876 -3.88118292 31.04946324 7.74150064 594 350)"/><path d="m-.5-.5h1v1h-1z" fill="#6d3c00" transform="matrix(1.46243212 -11.9105538 63.52295372 7.79963796 494 446)"/><path d="m-.5-.5h1v1h-1z" fill="#7cb0c5" transform="matrix(1.36808056 3.75877048 -41.34647532 15.04888632 110 170)"/><path d="m-.5-.5h1v1h-1z" transform="matrix(-173.0577282 -92.01642632 1.87788624 -3.53179036 154 418)"/><path d="m-.5-.5h1v1h-1z" fill="#9aa7ba" transform="matrix(-68.8793918 32.11898788 -1.69047304 -3.62523116 970 238)"/><path d="m-.5-.5h1v1h-1z" fill="#9fbbda" transform="matrix(-74.68643412 -28.66943596 4.3004154 -11.20296512 838 238)"/><path d="m-.5-.5h1v1h-1z" fill="#3f314c" transform="matrix(-4.53209864 51.80212432 -135.48247896 -11.853181 866 498)"/><path d="m-.5-.5h1v1h-1z" fill="#e8a15d" transform="matrix(-50.88288576 -31.79515584 2.11967704 -3.3921924 58 402)"/><path d="m-.5-.5h1v1h-1z" fill="#100" transform="matrix(54.97112228 -10.68530376 .763236 3.92650872 562 434)"/><path d="m-.5-.5h1v1h-1z" fill="#5e4e64" transform="matrix(327.950044 5.72438932 -.62828664 35.99451704 490 482)"/><path d="m-.5-.5h1v1h-1z" fill="#170000" transform="matrix(16.06888372 49.45493884 -3.80422608 1.23606796 590 394)"/><path d="m-.5-.5h1v1h-1z" fill="#a37a61" transform="matrix(0 20 -40 0 754 470)"/><path d="m-.5-.5h1v1h-1z" fill="#a4bad1" transform="matrix(46.95108484 -9.97976116 1.66329352 7.8251808 938 254)"/><path d="m-.5-.5h1v1h-1z" fill="#0a0100" transform="matrix(-3.152043 -2.46264592 34.4770426 -44.1286022 682 350)"/></g></svg>