<svg height="680" width="1024" xmlns="http://www.w3.org/2000/svg"><path d="m0 0h1024v680h-1024z" fill="#e3ad90"/><g fill-opacity=".501961"><ellipse fill="#001645" rx="1" ry="1" transform="matrix(25.94445576 152.19206988 -127.66109208 21.76261588 726.631376 332.07292)"/><ellipse fill="#fedac5" rx="1" ry="1" transform="matrix(-566.35538588 50.00913292 -17.42180944 -197.30267332 477.476892 111.357004)"/><ellipse fill="#000823" rx="1" ry="1" transform="matrix(79.11779528 -.4104592 .42291132 81.517995 741.121444 396.300408)"/><ellipse fill="#ffd5bd" rx="1" ry="1" transform="matrix(-132.90388888 153.45194776 -50.76529692 -43.96754472 961.818368 274.443716)"/><ellipse fill="#fca671" rx="1" ry="1" transform="matrix(-21.64772968 114.18187272 -525.7468384 -99.67628984 515.457848 539.931276)"/><ellipse fill="#e8a88f" rx="1" ry="1" transform="matrix(23.69496576 -22.16069916 56.21201276 60.10377688 687.47302 305.036992)"/><ellipse fill="#561c14" rx="1" ry="1" transform="matrix(-43.0187174 56.91445568 -24.07172544 -18.1945824 620.703928 376.39294)"/><ellipse fill="#f59761" rx="1" ry="1" transform="matrix(946.82318412 279.98358768 -36.17989844 122.34990964 121.278924 678)"/><ellipse fill="#00094b" rx="1" ry="1" transform="matrix(-17.77004804 5.4050082 -19.73316508 -64.87673604 818.965108 290.125368)"/><ellipse fill="#f6b68d" rx="1" ry="1" transform="matrix(73.514147 -151.29846116 296.90356532 144.26195868 227.433596 327.43252)"/><ellipse fill="#054fbc" rx="1" ry="1" transform="matrix(42.2185716 -17.30815704 5.35034076 13.0507104 675.022192 196.0416)"/><ellipse fill="#e28f71" rx="1" ry="1" transform="matrix(-7.42017116 -119.70653384 65.18762064 -4.04074268 868.896552 463.608688)"/><ellipse fill="#000a2c" rx="1" ry="1" transform="matrix(-11.2720554 11.82683464 -44.3014574 -42.2233418 649.7093 340.859712)"/><ellipse fill="#00173d" rx="1" ry="1" transform="matrix(22.62629612 26.61028 -67.79950836 57.64883924 754.9984 404.221404)"/><ellipse fill="#c36949" rx="1" ry="1" transform="matrix(-70.17044876 19.13894552 -9.86916032 -36.18398968 605.463552 415.689656)"/><ellipse fill="#f4d3bf" rx="1" ry="1" transform="matrix(413.53903732 137.75276508 -25.71997128 77.21233144 888.459304 145.04646)"/><ellipse fill="#212032" rx="1" ry="1" transform="matrix(-4.78721056 8.23475168 -77.45032388 -45.02515964 650.642156 423.799176)"/><ellipse fill="#0036b1" rx="1" ry="1" transform="matrix(49.0190154 6.9396818 -.9077904 6.41225228 721.491932 187.320008)"/><ellipse fill="#a27567" rx="1" ry="1" transform="matrix(-33.00823156 24.67895412 -39.32645504 -52.59934148 760.2785 290.224332)"/><ellipse fill="#002452" rx="1" ry="1" transform="matrix(-23.09914888 1.30409748 -3.09629776 -54.84393844 828.268124 297.649052)"/><ellipse fill="#542614" rx="1" ry="1" transform="matrix(13.71036216 9.09900772 -26.31299024 39.64834812 754.735652 334.980452)"/><ellipse fill="#f9aa8f" rx="1" ry="1" transform="matrix(4.187389 -6.75068628 41.39761624 25.67856296 633.704008 389.97072)"/><ellipse fill="#f6c0a5" rx="1" ry="1" transform="matrix(-2.82086128 50.1912932 -118.6987776 -6.67113288 941.801212 374.951244)"/><ellipse fill="#cdaca9" rx="1" ry="1" transform="matrix(-7.35506388 66.65131532 -34.94367384 -3.85608224 670.8391 265.034172)"/><ellipse fill="#676f8d" rx="1" ry="1" transform="matrix(-17.83145928 29.32840204 -23.08799012 -14.03733336 633.451552 246.514432)"/><ellipse fill="#ef8953" rx="1" ry="1" transform="matrix(-80.62311576 -34.08201232 9.85683572 -23.31695672 640.336344 460.62622)"/><ellipse fill="#fbc8a8" rx="1" ry="1" transform="matrix(96.34624528 47.87508348 -6.3229146 12.72455392 525.753684 291.895164)"/><ellipse fill="#062844" rx="1" ry="1" transform="matrix(-82.99323084 -32.63422592 4.64723612 -11.8185472 665.287496 376.292512)"/><ellipse fill="#b4604a" rx="1" ry="1" transform="matrix(37.51367476 -26.89814228 13.85216536 19.31901544 820.777116 460.720792)"/><ellipse fill="#00194f" rx="1" ry="1" transform="matrix(-20.20440856 33.12701024 -31.06729036 -18.9481702 768.163196 435.715524)"/><ellipse fill="#e3cdb8" rx="1" ry="1" transform="matrix(.2945644 14.07830672 -16.96991384 .35506632 653.051044 393.072268)"/><ellipse fill="#b99984" rx="1" ry="1" transform="matrix(17.98135044 4.4074826 -1.93306888 7.8864042 707.318176 411.884888)"/><ellipse fill="#cda6a5" rx="1" ry="1" transform="matrix(6.39335096 11.12174988 -49.33307124 28.3591738 716.437924 303.116088)"/><ellipse fill="#f2c1a4" rx="1" ry="1" transform="matrix(-79.75840704 35.4463606 -11.10575536 -24.98923284 541.213648 314.023956)"/><ellipse fill="#231e22" rx="1" ry="1" transform="matrix(3.9439332 .66737608 -11.28241492 66.67468744 778.771012 292.711672)"/><ellipse fill="#001242" rx="1" ry="1" transform="matrix(13.30208152 59.67358764 -3.9041754 .87029556 625.174776 307.947008)"/><ellipse fill="#f3c9b1" rx="1" ry="1" transform="matrix(-109.39243204 -30.48622908 34.0998798 -122.3591404 958.556936 255.195452)"/><ellipse fill="#e1a769" rx="1" ry="1" transform="matrix(-4.82374452 -13.08558588 15.08710844 -5.56156656 794.310036 335.834768)"/><ellipse fill="#f5cfb7" rx="1" ry="1" transform="matrix(-85.0306506 68.72899884 -142.85494284 -176.73833364 472.540444 63.651148)"/><ellipse fill="#000e23" rx="1" ry="1" transform="matrix(58.95888884 -37.04244696 7.56392388 12.03917624 774.981696 373.766556)"/><ellipse fill="#d2b0b3" rx="1" ry="1" transform="matrix(31.23239764 10.64536388 -15.08528248 44.25865996 696.629988 233.27944)"/><ellipse fill="#eaa07c" rx="1" ry="1" transform="matrix(251.37676592 15.55688172 -7.473538 120.76159264 961.79042 580.579544)"/><ellipse fill="#f4c0a3" rx="1" ry="1" transform="matrix(-502.59215924 -249.43597704 26.3419222 -53.0767202 100.234212 86.266704)"/><ellipse fill="#ffd5a7" rx="1" ry="1" transform="matrix(-7.36344328 13.9169258 -7.44957468 -3.9415688 794.374792 307.48814)"/><ellipse fill="#e69177" rx="1" ry="1" transform="matrix(50.55289 -42.2371246 13.52059976 16.18257396 553.107976 395.251664)"/><ellipse fill="#91686c" rx="1" ry="1" transform="matrix(5.97537176 15.43507016 -70.30970728 27.21896536 733.23342 265.5886)"/><ellipse fill="#af9fb6" rx="1" ry="1" transform="matrix(-.22967568 19.23332072 -48.67271776 -.5812278 786.742204 223.77328)"/><ellipse fill="#d7b4ab" rx="1" ry="1" transform="matrix(-22.215127 .49098276 -.65657544 -29.70757332 648.990756 283.903296)"/><ellipse fill="#000c23" rx="1" ry="1" transform="matrix(13.91598516 22.68518852 -14.99244664 9.19695532 648.821324 352.226968)"/><ellipse fill="#002555" rx="1" ry="1" transform="matrix(.73450812 14.89937812 -34.80057804 1.71559556 811.517712 275.346184)"/><ellipse fill="#00225b" rx="1" ry="1" transform="matrix(2.471522 -23.00735548 50.35757308 5.40956784 731.95704 446.908524)"/><ellipse fill="#ed9c70" rx="1" ry="1" transform="matrix(-205.17059648 -31.20255432 4.15681308 -27.33288464 639.568508 484.50842)"/><ellipse fill="#f2b694" rx="1" ry="1" transform="matrix(-219.52374736 -233.20433056 62.13035944 -58.48557484 66.429804 204.150192)"/><ellipse fill="#efaa82" rx="1" ry="1" transform="matrix(-343.10827908 -204.59746516 43.53459572 -73.00716168 73.634404 454.903992)"/><ellipse fill="#001d37" rx="1" ry="1" transform="matrix(11.72950108 -12.50626748 49.48746764 46.41379264 656.75278 350.312092)"/><ellipse fill="#044397" rx="1" ry="1" transform="matrix(-3.40071336 -2.10597924 21.119198 -34.10306096 631.421292 225.709024)"/><ellipse fill="#f7edd7" rx="1" ry="1" transform="matrix(16.17483616 7.39089112 -4.02610868 8.81106848 601.548916 333.588272)"/><ellipse fill="#e46e56" rx="1" ry="1" transform="matrix(.14906908 19.61063744 -15.87461336 .12066992 631.362464 389.997448)"/><ellipse fill="#001e42" rx="1" ry="1" transform="matrix(-33.58569288 53.01296544 -28.19617288 -17.86332824 769.896468 421.925564)"/><ellipse fill="#275fa3" rx="1" ry="1" transform="matrix(-1.44083692 -3.73148616 10.05213864 -3.88142732 562.5254 368.617028)"/><ellipse fill="#f5c09e" rx="1" ry="1" transform="matrix(146.96833572 -42.40435844 30.84249976 106.89634332 461.058356 277.218696)"/><ellipse fill="#c7926f" rx="1" ry="1" transform="matrix(.45382556 3.97417192 -27.32608412 3.1204678 700.996552 416.49796)"/><ellipse fill="#f1ab81" rx="1" ry="1" transform="matrix(145.89379692 -56.4456336 116.36132148 300.75656752 529.17898 670.82334)"/><ellipse fill="#0042ae" rx="1" ry="1" transform="matrix(17.09239676 7.33311388 -1.57709448 3.6759724 770.73536 197.76098)"/><ellipse fill="#ebb096" rx="1" ry="1" transform="matrix(99.22313452 8.55801564 -5.55129772 64.36271932 917.055388 388.416844)"/><ellipse fill="#e4e4e3" rx="1" ry="1" transform="matrix(12.71583424 .32158312 -.29818636 11.79069404 600.44666 295.46494)"/><ellipse fill="#c4613c" rx="1" ry="1" transform="matrix(-4.3023448 13.54086164 -54.11032352 -17.19250036 605.974168 427.867728)"/><ellipse fill="#ce836b" rx="1" ry="1" transform="matrix(32.40401012 48.18308648 -23.48891088 15.79672376 849.982104 447.917728)"/><ellipse fill="#0053b6" rx="1" ry="1" transform="matrix(.87287328 -3.90359992 23.42907872 5.23891216 725.40962 180.602508)"/><ellipse fill="#002662" rx="1" ry="1" transform="matrix(-15.75086356 8.44430232 -8.22291668 -15.33792064 685.056072 394.586108)"/><ellipse fill="#824e3d" rx="1" ry="1" transform="matrix(32.57021596 -32.59103956 14.43947588 14.43025 737.533292 343.335568)"/><ellipse fill="#3a3130" rx="1" ry="1" transform="matrix(-23.78025028 83.46306048 -3.84690244 -1.09605736 769.176684 308.67938)"/><ellipse fill="#4e3b40" rx="1" ry="1" transform="matrix(-3.07166768 -2.5621978 20.27734364 -24.30931016 741.180876 268.450996)"/><ellipse fill="#d8c3c4" rx="1" ry="1" transform="matrix(-4.96892156 -19.14129248 30.34277136 -7.87673304 696.84594 229.834868)"/><ellipse fill="#e7966b" rx="1" ry="1" transform="matrix(24.548118 -60.7366752 370.27033888 149.65323564 64.140268 678)"/><ellipse fill="#004db1" rx="1" ry="1" transform="matrix(-24.6281104 10.14887116 -2.75101604 -6.67584852 676.396384 187.008812)"/><ellipse fill="#f3ccb6" rx="1" ry="1" transform="matrix(28.1424582 48.8583566 -92.47791816 53.26736572 935.802804 212.781308)"/><ellipse fill="#09172a" rx="1" ry="1" transform="matrix(-42.80647828 -27.743155 2.17548328 -3.3566758 641.757128 421.597284)"/><ellipse fill="#001838" rx="1" ry="1" transform="matrix(-11.1465224 1.36224832 -3.47811488 -28.45948456 820.129992 326.199488)"/><ellipse fill="#bb9ba2" rx="1" ry="1" transform="matrix(24.396 -57.48625332 6.47867952 2.7494202 768.457504 252.431476)"/><ellipse fill="#6a5052" rx="1" ry="1" transform="matrix(3.94895464 .63699068 -5.38118388 33.360066 656.1176 250.12708)"/><ellipse fill="#ffc892" rx="1" ry="1" transform="matrix(-3.12345724 -2.49880268 10.23950872 -12.79919688 799.022488 314.95886)"/><ellipse fill="#051723" rx="1" ry="1" transform="matrix(8.70930216 5.23641784 -13.59266828 22.60756476 658.15148 364.895992)"/><ellipse fill="#e6d6b9" rx="1" ry="1" transform="matrix(.94224852 -16.39299472 7.48998148 .43051464 660.773272 399.628512)"/><ellipse fill="#001c36" rx="1" ry="1" transform="matrix(.44578608 -54.37004052 35.81842008 .29367924 777.83528 398.427844)"/><ellipse fill="#0042a1" rx="1" ry="1" transform="matrix(-13.34485796 1.76810912 -.52538328 -3.96534644 601.456632 317.62344)"/><ellipse fill="#00245e" rx="1" ry="1" transform="matrix(21.37759168 24.32127396 -13.40552976 11.78301524 819.392352 282.901596)"/><ellipse fill="#823837" rx="1" ry="1" transform="matrix(-40.24081068 31.07986964 -5.10283944 -6.60692588 599.725576 389.339172)"/><ellipse fill="#c59378" rx="1" ry="1" transform="matrix(19.9677536 4.88317028 -3.49133544 14.27640696 675.242308 324.28734)"/><ellipse fill="#001c3b" rx="1" ry="1" transform="matrix(92.59822164 2.5446786 -.10988196 3.99849044 719.872384 427.311452)"/><ellipse fill="#f3c1a6" rx="1" ry="1" transform="matrix(95.19701936 38.09117124 -31.30648624 78.24081216 949.844444 323.327492)"/><ellipse fill="#00255e" rx="1" ry="1" transform="matrix(8.98780212 -6.66592288 16.85968052 22.73225704 827.027632 265.172224)"/><ellipse fill="#00307a" rx="1" ry="1" transform="matrix(30.77345692 -1.5275848 .68733928 13.84656684 747.764792 440.926344)"/><ellipse fill="#e3bda7" rx="1" ry="1" transform="matrix(-.94266568 3.88964504 -39.52398812 -9.57874212 591.2713 325.724228)"/><ellipse fill="#d2b1b2" rx="1" ry="1" transform="matrix(31.2250052 -13.51607044 3.51542536 8.12138232 716.585288 305.404704)"/><ellipse fill="#b1765a" rx="1" ry="1" transform="matrix(-15.52976356 4.71161916 -7.08124704 -23.34019128 705.39618 338.371376)"/><ellipse fill="#f4c4aa" rx="1" ry="1" transform="matrix(-14.88801072 65.59818308 -679.77032556 -154.27908848 940.716372 38.969368)"/><ellipse fill="#9d7f82" rx="1" ry="1" transform="matrix(1.29020752 3.78620716 -42.1669966 14.3690436 695.969236 212.290924)"/><ellipse fill="#efa881" rx="1" ry="1" transform="matrix(8.55945364 66.82267944 -326.83278672 41.86467988 791.084324 606.281436)"/><ellipse fill="#0047ae" rx="1" ry="1" transform="matrix(21.6825738 -14.4365688 2.21683576 3.32951036 660.507412 195.88018)"/><ellipse fill="#c1b1be" rx="1" ry="1" transform="matrix(23.49193328 14.28506084 -8.55243024 14.0645618 811.18964 221.09252)"/><ellipse fill="#001624" rx="1" ry="1" transform="matrix(-25.3053556 35.75564068 -19.58092328 -13.8580156 769.996472 384.024748)"/><ellipse fill="#563532" rx="1" ry="1" transform="matrix(36.17566724 -1.23517792 .23770888 6.96197504 734.43754 330.519188)"/><ellipse fill="#f2cdb8" rx="1" ry="1" transform="matrix(342.44834136 160.81619232 -34.34067212 73.1263814 376.60142 2)"/><ellipse fill="#003a88" rx="1" ry="1" transform="matrix(-3.98534172 .34212788 -2.14475936 -24.98363688 617.184264 270.310956)"/><ellipse fill="#d7b9b6" rx="1" ry="1" transform="matrix(5.31575924 3.51882872 -18.6487388 28.17193272 641.581564 235.726328)"/><ellipse fill="#c6785d" rx="1" ry="1" transform="matrix(-25.0705124 -24.59075852 19.80983204 -20.19631236 816.971476 476.34568)"/><ellipse fill="#efb18e" rx="1" ry="1" transform="matrix(-99.30419416 -14.30145044 .57018364 -3.95915276 511.028572 342.023636)"/><ellipse fill="#d8a481" rx="1" ry="1" transform="matrix(-3.6054686 22.87436744 -13.07851404 -2.06144156 796.400604 312.802464)"/><ellipse fill="#002147" rx="1" ry="1" transform="matrix(49.04335928 11.40047812 -3.5144102 15.11853104 737.954936 401.185792)"/><ellipse fill="#372b2d" rx="1" ry="1" transform="matrix(-1.06240708 11.5337366 -19.18520056 -1.7672064 765.32902 317.34544)"/><ellipse fill="#ea9668" rx="1" ry="1" transform="matrix(-85.26476844 -35.989808 10.28300716 -24.3618478 659.828452 473.19584)"/><ellipse fill="#00152c" rx="1" ry="1" transform="matrix(9.85092672 -20.87046728 4.57604788 2.15990912 837.239968 333.901568)"/><ellipse fill="#764c4a" rx="1" ry="1" transform="matrix(-.31646384 3.98746168 -20.41716752 -1.62040312 701.165008 289.135504)"/><ellipse fill="#0045a4" rx="1" ry="1" transform="matrix(37.32573076 7.41451136 -.77934632 3.92334288 741.05226 188.43736)"/><ellipse fill="#0d100d" rx="1" ry="1" transform="matrix(5.32930328 -3.89733352 2.36118888 3.22874388 786.534472 243.264168)"/><ellipse fill="#021625" rx="1" ry="1" transform="matrix(28.0548012 -8.2855008 3.05984904 10.36068408 670.041472 368.980164)"/><ellipse fill="#e9d3cd" rx="1" ry="1" transform="matrix(14.96584244 3.61750824 -5.62857656 23.28574928 688.089444 237.668148)"/><ellipse fill="#ec996e" rx="1" ry="1" transform="matrix(1.31492476 -14.9502052 164.56506572 14.47409436 744.089364 491.33766)"/><ellipse fill="#e9a577" rx="1" ry="1" transform="matrix(9.85572024 5.60554164 -4.36738684 7.67878384 704.522556 348.421016)"/><ellipse fill="#022e5f" rx="1" ry="1" transform="matrix(1.16223276 -11.11312696 15.96859412 1.67002712 614.06488 314.080888)"/><ellipse fill="#f5c7ac" rx="1" ry="1" transform="matrix(-23.29745564 67.80532564 -233.01877772 -80.06369096 387.710848 154.084472)"/><ellipse fill="#d4bbb8" rx="1" ry="1" transform="matrix(-.93984792 -7.2317518 23.8451714 -3.09894964 701.50902 198.143836)"/><ellipse fill="#bb7d53" rx="1" ry="1" transform="matrix(2.30561708 -12.08277764 7.50123472 1.43137408 617.743944 337.740676)"/><ellipse fill="#f1bea3" rx="1" ry="1" transform="matrix(262.6869234 140.57288096 -39.68721648 74.16304428 56.67044 87.614904)"/><ellipse fill="#fdb398" rx="1" ry="1" transform="matrix(5.18969284 -8.30480468 11.92311088 7.45078124 640.433376 390.600528)"/><ellipse fill="#00254e" rx="1" ry="1" transform="matrix(-1.67919888 -12.65080676 41.91011624 -5.56291952 708.229972 390.151092)"/><ellipse fill="#12212a" rx="1" ry="1" transform="matrix(-8.75240384 26.6066294 -3.79969372 -1.24993112 681.417888 356.6355)"/><ellipse fill="#f3b894" rx="1" ry="1" transform="matrix(-270.68136232 -32.90376904 6.8049822 -55.98087716 307.461032 314.8031)"/><ellipse fill="#e29167" rx="1" ry="1" transform="matrix(1.29400972 3.78490936 -84.0408502 28.73243924 461.601204 462.044548)"/><ellipse fill="#eca179" rx="1" ry="1" transform="matrix(127.5873016 119.38565244 -37.20235312 39.75810952 60.390268 541.743172)"/><ellipse fill="#f1b28b" rx="1" ry="1" transform="matrix(33.974184 -46.16900036 328.42673044 241.6779674 109.426456 339.969696)"/><ellipse fill="#001a30" rx="1" ry="1" transform="matrix(39.31798572 41.09930448 -10.10603572 9.66802172 659.532988 349.078424)"/><ellipse fill="#0e3f85" rx="1" ry="1" transform="matrix(11.13705216 -27.85860144 3.7142004 1.48482844 622.139564 249.087032)"/><ellipse fill="#000910" rx="1" ry="1" transform="matrix(-31.95922388 -1.50260824 .18785816 -3.99558624 682.584604 426.829576)"/><ellipse fill="#e29d83" rx="1" ry="1" transform="matrix(-15.24170668 20.35438584 -89.72090308 -67.18452228 917.230868 456.387556)"/><ellipse fill="#e2926a" rx="1" ry="1" transform="matrix(.5955518 -3.95541628 207.27673224 31.20885888 483.17056 422.160708)"/><ellipse fill="#5d77ab" rx="1" ry="1" transform="matrix(-8.80858812 6.6886764 -2.41899164 -3.1856678 570.422204 365.797472)"/><ellipse fill="#755d67" rx="1" ry="1" transform="matrix(4.6230822 26.45404348 -6.794624 1.18742168 746.914644 250.284492)"/><ellipse fill="#0b1d33" rx="1" ry="1" transform="matrix(-8.11856856 -12.82553256 3.37978468 -2.1394054 609.744164 394.588736)"/><ellipse fill="#eae6e1" rx="1" ry="1" transform="matrix(2.83929284 -2.81751952 9.76749488 9.84297648 607.921184 282.19782)"/><ellipse fill="#002254" rx="1" ry="1" transform="matrix(16.62417548 -4.7440118 13.72265928 48.08754804 826.455212 289.755188)"/><ellipse fill="#ea9a5c" rx="1" ry="1" transform="matrix(-17.4666692 14.23589648 -2.52709672 -3.10060996 788.358736 330.7197)"/><ellipse fill="#001a3a" rx="1" ry="1" transform="matrix(.52653272 -9.4648978 30.52132928 1.69790296 694.384712 435.465564)"/><ellipse fill="#a68184" rx="1" ry="1" transform="matrix(-21.85724544 -13.47577352 3.34431572 -5.42436612 725.005724 213.5502)"/><ellipse fill="#eec4b5" rx="1" ry="1" transform="matrix(3.38267416 -2.13483384 10.34724084 16.39534804 756.323676 232.137072)"/><ellipse fill="#ddb597" rx="1" ry="1" transform="matrix(-5.20995532 -5.88172256 9.630642 -8.53070068 678.002684 329.827472)"/><ellipse fill="#9f3e35" rx="1" ry="1" transform="matrix(6.91787824 -14.84741248 3.62575328 1.68935292 602.422304 369.885308)"/><ellipse fill="#d2aeaf" rx="1" ry="1" transform="matrix(3.80181968 -1.24344972 11.4277144 34.9399812 765.225588 241.865824)"/><ellipse fill="#f1ad89" rx="1" ry="1" transform="matrix(-107.53728852 24.71766968 -2.744925 -11.94213672 484.855404 403.0783)"/><ellipse fill="#967270" rx="1" ry="1" transform="matrix(-5.57839216 45.42050252 -3.9701692 -.48760272 792.210224 264.998796)"/><ellipse fill="#7f4a3a" rx="1" ry="1" transform="matrix(5.4230606 8.74370936 -37.92280272 23.520642 748.28152 347.369512)"/><ellipse fill="#00172f" rx="1" ry="1" transform="matrix(15.3762184 -28.07878948 9.481511 5.19216772 806.904348 365.538864)"/><ellipse fill="#eea57a" rx="1" ry="1" transform="matrix(2.33011036 -35.0390288 296.75263824 19.73417692 602.641724 675.115752)"/><ellipse fill="#001f3f" rx="1" ry="1" transform="matrix(-12.87326244 -12.30529812 9.98426432 -10.4450988 822.321576 322.32594)"/><ellipse fill="#092755" rx="1" ry="1" transform="matrix(-18.15676672 -8.99900584 13.69577584 -27.63316432 788.043528 429.840384)"/><ellipse fill="#d7b6b4" rx="1" ry="1" transform="matrix(.6748686 -7.43368884 35.81073976 3.25108356 662.615424 296.004604)"/><ellipse fill="#c16444" rx="1" ry="1" transform="matrix(48.44774848 13.827694 -4.43736344 15.54708016 594.066896 419.58348)"/><ellipse fill="#0d335e" rx="1" ry="1" transform="matrix(-16.70449968 12.21109228 -7.57648152 -10.36445636 685.87798 399.947908)"/><ellipse fill="#eeb499" rx="1" ry="1" transform="matrix(-17.739821 23.95388132 -134.92781976 -99.92515788 983.727516 428.861444)"/><ellipse fill="#c8a3ad" rx="1" ry="1" transform="matrix(8.8934626 15.93083812 -17.00410624 9.49261936 722.824488 244.538316)"/><ellipse fill="#eca882" rx="1" ry="1" transform="matrix(-46.94783136 -26.16597676 12.58973924 -22.58891236 333.229436 398.2759)"/><ellipse fill="#012b5f" rx="1" ry="1" transform="matrix(22.53947792 -11.81118256 6.87042128 13.1109402 711.809516 447.08406)"/><ellipse fill="#09428f" rx="1" ry="1" transform="matrix(13.7521584 -19.71948312 3.2809466 2.28809736 640.169204 214.980664)"/><ellipse fill="#ffca98" rx="1" ry="1" transform="matrix(10.10882872 -3.35449788 1.8898544 5.69510408 796.940632 334.779428)"/><ellipse fill="#614c50" rx="1" ry="1" transform="matrix(-3.62466272 -1.69169152 8.47552672 -18.15988644 660.737968 236.67544)"/><ellipse fill="#f1cdb7" rx="1" ry="1" transform="matrix(26.8446254 87.33830172 -16.78059748 5.15774688 644.301936 99.160212)"/><ellipse fill="#f4ae84" rx="1" ry="1" transform="matrix(34.15152884 18.65961876 -12.09235008 22.13186924 522.62628 378.943312)"/><ellipse fill="#0750b4" rx="1" ry="1" transform="matrix(1.92519172 3.50622832 -27.63361256 15.17299992 663.96508 198.042152)"/><ellipse fill="#d86550" rx="1" ry="1" transform="matrix(-4.96748528 -.027966 .0635378 -11.28595316 633.986128 373.309552)"/><ellipse fill="#041b29" rx="1" ry="1" transform="matrix(3.9929884 -.23673536 1.30138708 21.95034768 628.979556 319.452576)"/><ellipse fill="#efd7c7" rx="1" ry="1" transform="matrix(.569184 5.60795712 -28.42220096 2.88473352 589.311676 329.617124)"/><ellipse fill="#e5cfc7" rx="1" ry="1" transform="matrix(9.44318352 -17.69928104 9.42241964 5.0271894 674.839216 246.05858)"/><ellipse fill="#f2b491" rx="1" ry="1" transform="matrix(29.01703456 -48.61903216 13.60783668 8.12149172 561.309536 332.82666)"/><ellipse fill="#7f524e" rx="1" ry="1" transform="matrix(-1.70191012 -7.11076212 19.34720436 -4.63061512 712.708952 284.785236)"/><ellipse fill="#c8bcb6" rx="1" ry="1" transform="matrix(-3.75633452 5.7144008 -3.34251132 -2.19718412 805.665124 300.190892)"/><ellipse fill="#2a2525" rx="1" ry="1" transform="matrix(9.6152754 6.16074252 -2.15794556 3.36797728 776.038888 320.529396)"/><ellipse fill="#894e3e" rx="1" ry="1" transform="matrix(-11.86008868 20.59334732 -8.40008276 -4.83776264 744.912604 353.90694)"/><ellipse fill="#faa9a0" rx="1" ry="1" transform="matrix(17.47919832 -17.63700472 4.6744964 4.63267152 587.019332 368.356412)"/><ellipse fill="#f0b180" rx="1" ry="1" transform="matrix(1.133576 5.9839808 -12.27964248 2.32619528 788.338104 336.444524)"/><ellipse fill="#f1d5c2" rx="1" ry="1" transform="matrix(3.4080936 -6.05676904 18.37689196 10.34052436 597.689744 288.92888)"/><ellipse fill="#f2cfba" rx="1" ry="1" transform="matrix(320.84262144 81.86521244 -7.54396408 29.56597968 753.767492 113.447144)"/><ellipse fill="#f2c2a8" rx="1" ry="1" transform="matrix(-11.83660284 -25.7151678 105.72127996 -48.66313976 937.77498 314.864272)"/><ellipse fill="#0045a7" rx="1" ry="1" transform="matrix(2.19015972 -4.52252832 10.8317498 5.24557512 704.18082 183.017784)"/><ellipse fill="#1a2123" rx="1" ry="1" transform="matrix(44.66164828 10.93677636 -.95141172 3.88520472 621.361968 353.788604)"/><ellipse fill="#c07764" rx="1" ry="1" transform="matrix(17.04152964 22.63477232 -10.87519424 8.18784224 827.610044 419.218812)"/><ellipse fill="#dd7d4d" rx="1" ry="1" transform="matrix(-.54473848 14.7752376 -18.71474108 -.68998144 665.207348 458.871812)"/><ellipse fill="#f3cbb3" rx="1" ry="1" transform="matrix(42.398161 79.18116476 -49.11982916 26.30158868 587.305092 135.573168)"/><ellipse fill="#9f493a" rx="1" ry="1" transform="matrix(-6.41900888 -3.79986492 15.8351376 -26.74986888 583.083592 410.008708)"/><ellipse fill="#705e6c" rx="1" ry="1" transform="matrix(-15.77629152 7.71687584 -1.75757988 -3.59317588 724.798516 201.340532)"/><ellipse fill="#f1b28c" rx="1" ry="1" transform="matrix(163.21802136 -14.61364228 1.8843628 21.04622264 345.354244 450.741728)"/><ellipse fill="#d87a51" rx="1" ry="1" transform="matrix(.46632092 5.62937468 -35.5995232 2.94896028 571.723 420.166252)"/><ellipse fill="#031929" rx="1" ry="1" transform="matrix(-1.78547752 41.38104272 -21.59364108 -.93170588 771.160768 383.75396)"/><ellipse fill="#b28d92" rx="1" ry="1" transform="matrix(-16.11394588 24.01808512 -11.25075044 -7.54822804 756.892356 282.8635)"/><ellipse fill="#d2ada5" rx="1" ry="1" transform="matrix(7.0109108 -17.91522148 21.4733028 8.403324 652.9102 296.611012)"/><ellipse fill="#e9a481" rx="1" ry="1" transform="matrix(-82.93793684 61.462407 -70.92554192 -95.70757804 984.151424 580.235264)"/><ellipse fill="#001d44" rx="1" ry="1" transform="matrix(10.4782702 5.89893516 -5.01812816 8.91369396 770.008148 464.436456)"/><ellipse fill="#011930" rx="1" ry="1" transform="matrix(3.92797704 -.75564304 1.87592536 9.75141904 604.27042 392.962852)"/><ellipse fill="#553731" rx="1" ry="1" transform="matrix(7.9038074 7.65270456 -12.66301268 13.07851528 745.312588 331.831044)"/><ellipse fill="#ebd0a5" rx="1" ry="1" transform="matrix(-2.66292452 -14.8077684 5.14368472 -.92500396 651.84986 402.389836)"/><ellipse fill="#b17866" rx="1" ry="1" transform="matrix(3.46462956 1.99908528 -11.41361556 19.78102184 715.088828 355.063544)"/><ellipse fill="#b48a8d" rx="1" ry="1" transform="matrix(.50260064 18.75807592 -11.0105924 .29501592 746.471128 298.463212)"/><ellipse fill="#40393b" rx="1" ry="1" transform="matrix(-4.87732492 -4.94294712 5.76732972 -5.69076308 786.423408 247.732508)"/><ellipse fill="#2d2b2e" rx="1" ry="1" transform="matrix(7.66508056 -6.241364 4.02838396 4.94729796 773.351448 297.335956)"/><ellipse fill="#cd935f" rx="1" ry="1" transform="matrix(-5.85158852 -5.44022128 2.72357912 -2.929525 666.6956 415.457236)"/><ellipse fill="#c18579" rx="1" ry="1" transform="matrix(3.38009672 9.00638008 -30.02363256 11.26787688 698.043108 269.320848)"/><ellipse fill="#ebac9a" rx="1" ry="1" transform="matrix(-2.8162788 -7.26636832 12.76090896 -4.94583756 589.63496 358.968908)"/><ellipse fill="#eea277" rx="1" ry="1" transform="matrix(150.82465196 55.78951536 -7.20652852 19.4825524 662.289592 496.419496)"/><ellipse fill="#41312c" rx="1" ry="1" transform="matrix(2.74528068 -5.96725676 16.32254668 7.50930852 771.232504 320.419368)"/><ellipse fill="#e6bbb7" rx="1" ry="1" transform="matrix(18.78766104 -18.0233592 2.76910408 2.88653124 578.911392 369.075592)"/><ellipse fill="#e8a990" rx="1" ry="1" transform="matrix(-5.654331 11.88343092 -123.04160728 -58.54521128 942.29888 432.508624)"/><ellipse fill="#f2c6ae" rx="1" ry="1" transform="matrix(-3.73474556 47.02849256 -129.9101498 -10.31675332 967.212204 261.025584)"/><ellipse fill="#f0b697" rx="1" ry="1" transform="matrix(30.99182468 -26.12110668 126.9191928 150.58540292 42.7722 185.94378)"/><ellipse fill="#dca47d" rx="1" ry="1" transform="matrix(-2.48277608 3.13621156 -7.96676772 -6.30687688 701.698372 412.929744)"/><ellipse fill="#f3bd9e" rx="1" ry="1" transform="matrix(5.0327744 -32.79673036 203.09251948 31.16526616 335.772308 277.840152)"/><ellipse fill="#021a2f" rx="1" ry="1" transform="matrix(-2.00115324 5.5560254 -28.52887304 -10.27544748 733.279856 464.859628)"/><ellipse fill="#f1ae85" rx="1" ry="1" transform="matrix(-280.6616096 -69.70105736 10.35704724 -41.70418152 402.895052 539.056392)"/><ellipse fill="#e1987b" rx="1" ry="1" transform="matrix(-55.95622708 9.2409788 -2.67900788 -16.2220016 911.87874 481.69308)"/><ellipse fill="#202220" rx="1" ry="1" transform="matrix(-3.07468616 10.29166204 -3.83261584 -1.1450134 643.858324 413.260588)"/><ellipse fill="#002767" rx="1" ry="1" transform="matrix(15.29451048 17.69116012 -4.54598504 3.9301332 814.526164 262.836628)"/><ellipse fill="#004b9f" rx="1" ry="1" transform="matrix(-10.84323504 -6.05968684 1.95134236 -3.49174212 774.00982 198.59086)"/><ellipse fill="#001f43" rx="1" ry="1" transform="matrix(1.18247764 6.22950484 -62.80367416 11.9213232 731.89926 387.293456)"/><ellipse fill="#624f53" rx="1" ry="1" transform="matrix(-12.05665352 22.88711244 -3.53898404 -1.86429392 742.330504 269.122592)"/><ellipse fill="#e5ebea" rx="1" ry="1" transform="matrix(1.5038362 9.450177 -9.851926 1.5677678 594.515268 330.448952)"/><ellipse fill="#9c3f38" rx="1" ry="1" transform="matrix(-20.72085688 34.28818752 -3.4234378 -2.06883388 589.891964 387.702692)"/><ellipse fill="#001c3a" rx="1" ry="1" transform="matrix(32.78232072 -57.9840932 8.07157992 4.5634088 813.786836 354.092556)"/><ellipse fill="#fd9375" rx="1" ry="1" transform="matrix(-4.9967442 -16.64079576 3.83101956 -1.15034312 634.608688 392.943616)"/><ellipse fill="#bd5644" rx="1" ry="1" transform="matrix(-2.61678888 15.08412672 -4.16055376 -.72177136 560.995284 409.32656)"/><ellipse fill="#ddbbb0" rx="1" ry="1" transform="matrix(-2.801273 -2.855323 6.20599604 -6.08851928 647.887704 239.816512)"/><ellipse fill="#034293" rx="1" ry="1" transform="matrix(.58242 -3.9573712 17.11350144 2.51865316 743.011764 191.829332)"/><ellipse fill="#e6bfa7" rx="1" ry="1" transform="matrix(4.55995828 -2.19824584 5.76008776 11.94850884 797.353488 302.727128)"/><ellipse fill="#dabab4" rx="1" ry="1" transform="matrix(4.347148 -1.63019156 7.29239552 19.44625612 630.533208 280.85818)"/><ellipse fill="#071e36" rx="1" ry="1" transform="matrix(13.05209632 11.63521456 -2.66171468 2.98584576 650.440768 425.911436)"/><ellipse fill="#5e4040" rx="1" ry="1" transform="matrix(-1.13075752 3.83684604 -7.740998 -2.28135076 698.86568 330.84696)"/><ellipse fill="#f3c6ac" rx="1" ry="1" transform="matrix(-22.04166996 -43.16466736 39.30962688 -20.07312636 584.600072 205.22738)"/><ellipse fill="#000d17" rx="1" ry="1" transform="matrix(3.47436032 9.50969612 -4.12192844 1.50594344 616.225348 361.427024)"/><ellipse fill="#9f7c7b" rx="1" ry="1" transform="matrix(-1.54763752 3.68847096 -9.99767068 -4.19490088 659.951356 280.088424)"/><ellipse fill="#392d2b" rx="1" ry="1" transform="matrix(3.13860696 2.47974724 -21.81091188 27.60599104 760.15536 313.68424)"/><ellipse fill="#b7a5b3" rx="1" ry="1" transform="matrix(4.18800052 -11.21474352 31.55806412 11.7849498 808.711888 225.777588)"/><ellipse fill="#90726d" rx="1" ry="1" transform="matrix(.88513788 6.44899996 -12.57751252 1.72628824 641.857024 252.747696)"/><ellipse fill="#ead0ca" rx="1" ry="1" transform="matrix(3.11963548 -2.50357236 6.48049956 8.07517952 757.5623 227.376852)"/><ellipse fill="#f0b18c" rx="1" ry="1" transform="matrix(5.89107448 24.60060032 -49.76010672 11.91598944 518.069756 361.240524)"/><ellipse fill="#b76242" rx="1" ry="1" transform="matrix(.8934426 3.89894348 -16.09884684 3.68904944 777.005316 477.578148)"/><ellipse fill="#925e56" rx="1" ry="1" transform="matrix(1.310052 -3.77938668 35.47945364 12.29827296 694.981156 327.9295)"/><ellipse fill="#00255c" rx="1" ry="1" transform="matrix(2.3474996 -21.71337496 20.70694764 2.23869164 816.397824 269.40002)"/><ellipse fill="#f3c9b1" rx="1" ry="1" transform="matrix(-283.30156304 -131.108616 19.12970588 -41.33576988 362.55702 63.12718)"/><ellipse fill="#e6d5cc" rx="1" ry="1" transform="matrix(-3.84018156 -1.11937732 9.50758572 -32.61711204 598.271416 289.319156)"/><ellipse fill="#011b34" rx="1" ry="1" transform="matrix(-3.6799342 -9.43582924 7.53900024 -2.94017876 730.637716 462.589144)"/><ellipse fill="#1a3467" rx="1" ry="1" transform="matrix(24.53706872 -4.10081612 .6593644 3.94528056 821.030884 253.549004)"/><ellipse fill="#fce6ce" rx="1" ry="1" transform="matrix(3.99077408 .27151852 -.70562664 10.37128752 654.277088 392.8052)"/><ellipse fill="#e5976d" rx="1" ry="1" transform="matrix(-1.9862434 -9.166027 32.31998412 -7.00361836 528.240368 445.06474)"/><ellipse fill="#5a4c4d" rx="1" ry="1" transform="matrix(2.206127 3.3366156 -6.15016664 4.06641052 649.931064 248.273016)"/><ellipse fill="#b46d5a" rx="1" ry="1" transform="matrix(14.4819502 1.300608 -1.69910996 18.91917164 822.31582 447.584168)"/><ellipse fill="#d7c1c2" rx="1" ry="1" transform="matrix(-25.86772876 1.61983352 -.24998976 -3.99218048 698.1457 197.993408)"/><ellipse fill="#001526" rx="1" ry="1" transform="matrix(-26.85913264 -6.45252068 .93435832 -3.88934116 675.586016 431.12142)"/><ellipse fill="#00172a" rx="1" ry="1" transform="matrix(-.25654088 -10.94935908 27.66819076 -.64825916 672.838832 361.898804)"/><ellipse fill="#012559" rx="1" ry="1" transform="matrix(6.84314588 -2.17244188 14.888824 46.89948004 819.88212 288.278388)"/><ellipse fill="#e99c73" rx="1" ry="1" transform="matrix(82.23267364 -25.61473548 3.0182866 9.6898044 461.799764 468.607692)"/><ellipse fill="#844b3c" rx="1" ry="1" transform="matrix(10.39537556 5.2033488 -7.78107016 15.5452094 745.561648 354.630196)"/><ellipse fill="#f3b995" rx="1" ry="1" transform="matrix(5.87969676 -36.68983172 174.849279 28.02031756 311.004148 329.100592)"/><ellipse fill="#d9947c" rx="1" ry="1" transform="matrix(-8.12589388 6.35095784 -35.98269744 -46.03897388 856.4363 438.84232)"/><ellipse fill="#67433d" rx="1" ry="1" transform="matrix(25.775713 -8.71100288 1.28065864 3.78944764 721.793188 328.21846)"/><ellipse fill="#eb9669" rx="1" ry="1" transform="matrix(177.81894888 42.92426084 -.93861268 3.88831664 725.710536 478.332228)"/><ellipse fill="#c7a2a3" rx="1" ry="1" transform="matrix(5.11080996 -21.05661364 3.8871392 .94347696 742.395368 295.350004)"/><ellipse fill="#152037" rx="1" ry="1" transform="matrix(-.01571964 -5.43345328 10.81568672 -.03129108 773.200604 469.229564)"/><ellipse fill="#b38770" rx="1" ry="1" transform="matrix(1.0988198 -3.84611428 16.64457876 4.75529104 702.6752 414.84848)"/><ellipse fill="#534446" rx="1" ry="1" transform="matrix(3.98681836 .324468 -1.15425636 14.18263184 750.892588 259.699096)"/><ellipse fill="#a6a2bb" rx="1" ry="1" transform="matrix(4.79972252 -9.56471768 3.57510892 1.79404468 752.077132 201.477932)"/><ellipse fill="#a16c5a" rx="1" ry="1" transform="matrix(-1.80480132 -3.56969076 22.21815516 -11.23328556 722.407064 336.863108)"/><ellipse fill="#f1c6b0" rx="1" ry="1" transform="matrix(-3.01268052 21.39634292 -190.24640596 -26.78736464 666.66814 25.151328)"/><ellipse fill="#e4946b" rx="1" ry="1" transform="matrix(-9.12765476 28.1776648 -121.86487628 -39.47596536 23.246612 678)"/><ellipse fill="#eaa47e" rx="1" ry="1" transform="matrix(-57.19775544 6.0799122 -1.00067308 -9.41399344 342.860532 401.591524)"/><ellipse fill="#ffecc1" rx="1" ry="1" transform="matrix(5.09953556 6.20648728 -3.09057536 2.53935896 675.471844 334.588668)"/><ellipse fill="#001725" rx="1" ry="1" transform="matrix(-32.08037524 23.22537204 -4.6247612 -6.38801712 767.988244 368.69864)"/><ellipse fill="#0047aa" rx="1" ry="1" transform="matrix(31.07640692 1.50292304 -.19322292 3.9953304 710.7412 183.214536)"/><ellipse fill="#061d30" rx="1" ry="1" transform="matrix(-38.93994588 -36.09300272 3.13139532 -3.37839344 676.219412 352.866108)"/><ellipse fill="#937076" rx="1" ry="1" transform="matrix(.3268226 4.254325 -10.8514392 .83362124 781.394908 234.364892)"/><ellipse fill="#d9d7d8" rx="1" ry="1" transform="matrix(-3.72035908 -2.65709188 12.96512864 -18.1532806 601.438024 298.220572)"/><ellipse fill="#e6cac4" rx="1" ry="1" transform="matrix(3.07903592 2.5533386 -5.04856572 6.08799604 649.873448 236.72984)"/><ellipse fill="#e5a070" rx="1" ry="1" transform="matrix(1.11693984 3.84089124 -13.03272392 3.78994552 699.268824 346.474956)"/><ellipse fill="#9d7572" rx="1" ry="1" transform="matrix(.0757302 3.99928304 -31.10567572 .58901532 718.76264 205.99086)"/><ellipse fill="#c7c5d3" rx="1" ry="1" transform="matrix(-13.19915396 3.61700008 -1.770241 -6.4599622 804.276112 216.98306)"/><ellipse fill="#f4c2a5" rx="1" ry="1" transform="matrix(-10.20313412 31.58657836 -230.41308532 -74.42830904 365.633816 207.75592)"/><ellipse fill="#edaa83" rx="1" ry="1" transform="matrix(175.19818392 99.09561056 -19.76396896 34.9421276 8.714644 412.996064)"/><ellipse fill="#f4c5a8" rx="1" ry="1" transform="matrix(-27.08746256 80.01355276 -8.97256576 -3.03753592 603.963304 242.065856)"/><ellipse fill="#b18d96" rx="1" ry="1" transform="matrix(6.65834408 10.99514016 -5.30784096 3.21427748 833.0046 236.391148)"/><ellipse fill="#f2b790" rx="1" ry="1" transform="matrix(47.68557996 -.98402972 .87928468 42.6096886 430.850696 367.855844)"/><ellipse fill="#0b2033" rx="1" ry="1" transform="matrix(11.82320124 -18.9810406 3.39520092 2.11485476 623.53412 354.709724)"/><ellipse fill="#f4c6a9" rx="1" ry="1" transform="matrix(185.79853644 166.16713076 -46.19878816 51.65683 956.0254 8.544632)"/><ellipse fill="#debdb4" rx="1" ry="1" transform="matrix(.87840536 16.4621452 -3.99431776 .21313324 751.09086 218.786952)"/><ellipse fill="#00234d" rx="1" ry="1" transform="matrix(-6.694972 -3.1371994 7.43088056 -15.85794544 680.54476 399.620964)"/><ellipse fill="#032c5b" rx="1" ry="1" transform="matrix(-1.33487156 -8.41109824 16.54998724 -2.62654252 724.415956 401.344156)"/><ellipse fill="#072f71" rx="1" ry="1" transform="matrix(3.97339572 -.46057192 2.8129232 24.26734348 822.865008 263.553504)"/><ellipse fill="#e79e76" rx="1" ry="1" transform="matrix(.35439388 -3.98426968 139.23738448 12.38492336 429.061704 414.531268)"/><ellipse fill="#60473d" rx="1" ry="1" transform="matrix(5.16958128 4.75268496 -5.39069592 5.86355728 721.43354 373.754324)"/><ellipse fill="#455f92" rx="1" ry="1" transform="matrix(3.98910868 -.2949778 .2949778 3.98910868 561.599016 372.87118)"/><ellipse fill="#553b33" rx="1" ry="1" transform="matrix(2.09843164 -7.74773432 11.78878596 3.19292848 776.193328 307.80406)"/><ellipse fill="#f3c3a9" rx="1" ry="1" transform="matrix(-7.39361776 -17.89793976 27.39018172 -11.31485172 874.654484 278.24558)"/><ellipse fill="#e0856d" rx="1" ry="1" transform="matrix(1.50033956 -14.88291088 4.55834032 .45952424 639.778836 386.830676)"/><ellipse fill="#eba277" rx="1" ry="1" transform="matrix(72.1572628 -16.12194532 3.6327938 16.25935648 996.953172 678)"/></g></svg>