<svg xmlns="http://www.w3.org/2000/svg" version="1.1" width="1024" height="680">
<rect x="0" y="0" width="1024" height="680" fill="#b3b5b2" />
<g transform="scale(4.000000) translate(0.5 0.5)">
<polygon fill="#000000" fill-opacity="0.501961" points="119.788837,185.000000,148.340207,144.872905,138.453750,116.954076,129.083767,64.665208" />
<polygon fill="#faffff" fill-opacity="0.501961" points="-16.000000,110.734016,73.079622,110.130073,118.924680,-3.197872,-1.424388,23.139517" />
<polygon fill="#56554f" fill-opacity="0.501961" points="130.721072,184.447669,225.918396,108.378234,263.013509,104.682735,265.983101,174.563730" />
<polygon fill="#423628" fill-opacity="0.501961" points="103.945311,37.373270,132.091798,87.372142,85.478290,86.941756,160.594801,30.022160" />
<polygon fill="#eaefef" fill-opacity="0.501961" points="184.079549,107.251251,137.325871,113.252615,148.385540,3.194287,249.910144,63.007438" />
<polygon fill="#000000" fill-opacity="0.501961" points="109.515066,140.390385,136.239144,147.060474,147.328589,139.345842,137.121546,115.254375" />
<polygon fill="#463725" fill-opacity="0.501961" points="95.638498,65.101128,134.467249,84.873191,99.809302,90.487665,77.195067,75.214630" />
<polygon fill="#7a766e" fill-opacity="0.501961" points="-13.939238,185.000000,2.425004,116.330763,8.422595,151.707233,186.245719,164.825233" />
<polygon fill="#eedfd7" fill-opacity="0.501961" points="120.415206,124.280511,131.279128,95.384338,23.706498,80.575044,20.504464,121.189881" />
<polygon fill="#64869a" fill-opacity="0.501961" points="168.685505,-6.507040,271.000000,-4.268235,271.000000,56.140174,217.652047,17.584886" />
<polygon fill="#454134" fill-opacity="0.501961" points="123.790881,34.230942,96.933409,34.392480,154.565001,53.207291,138.137254,30.112203" />
<polygon fill="#a19e99" fill-opacity="0.501961" points="141.896524,175.313053,199.282470,161.458611,271.000000,76.047001,137.268496,146.184446" />
<polygon fill="#dfe5e0" fill-opacity="0.501961" points="116.348733,60.168175,92.659924,38.741176,102.976298,76.846650,116.604455,76.191061" />
<polygon fill="#b9ccd6" fill-opacity="0.501961" points="139.782116,30.287631,-16.000000,16.287614,159.262022,-16.000000,271.000000,75.229320" />
<polygon fill="#1b0a00" fill-opacity="0.501961" points="111.404975,142.362251,140.675281,142.626527,131.691178,65.609728,125.092192,131.274962" />
<polygon fill="#585b57" fill-opacity="0.501961" points="254.601491,108.946143,232.389604,151.462085,192.292247,178.720277,260.208899,176.512600" />
<polygon fill="#e0ddd9" fill-opacity="0.501961" points="133.225131,61.587126,132.613196,93.109875,223.479752,108.106319,182.512919,30.393561" />
<polygon fill="#eceeed" fill-opacity="0.501961" points="-16.000000,86.597610,91.612588,29.889759,77.928604,84.043495,115.687429,104.660286" />
<polygon fill="#1f1107" fill-opacity="0.501961" points="135.784440,69.782578,120.497634,85.827371,138.451870,100.546494,127.388334,92.236799" />
<polygon fill="#5c5342" fill-opacity="0.501961" points="138.679612,70.046281,127.886583,66.639328,77.738121,76.645363,93.624898,66.479285" />
<polygon fill="#d8e0e0" fill-opacity="0.501961" points="127.036747,79.140025,116.620267,67.466366,169.902675,80.915002,177.039971,23.016651" />
<polygon fill="#5c6160" fill-opacity="0.501961" points="242.338984,122.983941,169.427733,124.496772,136.527413,125.147969,225.478328,128.725473" />
<polygon fill="#919189" fill-opacity="0.501961" points="4.583660,185.000000,24.058947,130.155886,123.230654,124.549292,-4.576093,123.523617" />
<polygon fill="#b9b7b5" fill-opacity="0.501961" points="115.010413,76.870118,121.538372,10.994611,107.782407,86.628475,96.715868,87.568816" />
<polygon fill="#c3cdd1" fill-opacity="0.501961" points="-16.000000,36.529685,107.766961,31.834865,197.594407,22.617376,32.406850,-15.695428" />
<polygon fill="#c8c0b9" fill-opacity="0.501961" points="141.348221,133.424517,136.668598,105.922822,237.508564,107.342597,243.749540,47.479028" />
<polygon fill="#444538" fill-opacity="0.501961" points="134.611542,26.207691,151.909729,58.700098,143.064097,32.762852,121.018617,43.829579" />
<polygon fill="#453a2e" fill-opacity="0.501961" points="125.565843,185.000000,141.124738,157.730913,129.619646,145.113002,126.570171,185.000000" />
<polygon fill="#99afbc" fill-opacity="0.501961" points="262.699551,56.052874,247.577451,29.216539,178.687512,-16.000000,154.641330,0.337868" />
<polygon fill="#937a72" fill-opacity="0.501961" points="123.297194,87.442200,117.412080,83.223836,88.332665,86.775174,98.484172,95.321382" />
<polygon fill="#554a37" fill-opacity="0.501961" points="87.556127,80.370726,77.216874,78.227329,101.029831,62.858660,101.845145,69.078323" />
<polygon fill="#dee4e2" fill-opacity="0.501961" points="101.934531,18.629905,102.826040,49.075226,117.220702,63.185671,-13.429677,72.986731" />
<polygon fill="#c6c5bd" fill-opacity="0.501961" points="118.515530,136.447728,63.398132,150.569082,41.140205,137.250574,123.677477,126.422837" />
<polygon fill="#cbbaaf" fill-opacity="0.501961" points="-10.417255,103.338417,120.303272,113.321791,44.350012,122.680115,-16.000000,124.796932" />
<polygon fill="#887d75" fill-opacity="0.501961" points="117.856987,74.189890,132.129426,57.967508,128.976204,44.611122,104.116800,28.692769" />
<polygon fill="#dee0dd" fill-opacity="0.501961" points="174.004977,88.743889,131.521412,44.640566,128.771916,66.183927,160.023327,87.186455" />
<polygon fill="#a5a8a3" fill-opacity="0.501961" points="142.222954,142.563909,138.192733,157.099330,219.676312,152.217947,171.018504,125.540022" />
<polygon fill="#737670" fill-opacity="0.501961" points="-16.000000,167.379620,20.057530,185.000000,-8.951483,154.892649,65.169147,155.224087" />
<polygon fill="#201b0d" fill-opacity="0.501961" points="130.541090,76.724417,113.723697,79.283518,113.373852,77.826364,129.422178,92.433363" />
<polygon fill="#ced9dc" fill-opacity="0.501961" points="160.721559,35.402907,91.441798,17.517403,119.484180,37.894932,121.204366,3.193114" />
<polygon fill="#a7a19a" fill-opacity="0.501961" points="54.164964,175.432519,126.558216,160.447332,126.721938,148.011596,82.843793,158.919177" />
<polygon fill="#eaeae9" fill-opacity="0.501961" points="81.944051,47.815247,75.458322,111.620246,91.146265,79.087473,33.146800,98.788163" />
<polygon fill="#12110d" fill-opacity="0.501961" points="148.040086,142.016993,117.127771,136.760659,137.250085,115.129082,142.821596,134.733807" />
<polygon fill="#42474a" fill-opacity="0.501961" points="235.186254,128.845933,217.539779,124.720468,258.253383,123.408339,257.056357,126.129355" />
<polygon fill="#dbd3cc" fill-opacity="0.501961" points="127.984854,96.053230,124.913054,91.792257,63.128835,101.842578,125.910790,121.619300" />
<polygon fill="#70808a" fill-opacity="0.501961" points="210.017163,-8.484252,232.951397,6.974306,266.345231,31.977114,267.416137,-0.718173" />
<polygon fill="#534d43" fill-opacity="0.501961" points="150.431753,50.736009,123.735283,34.530622,137.102457,44.101555,157.273811,47.037451" />
<polygon fill="#423b2c" fill-opacity="0.501961" points="95.914400,61.354848,105.526362,82.216279,90.860872,85.190173,98.464003,80.837442" />
<polygon fill="#d3dbdb" fill-opacity="0.501961" points="155.929897,25.756275,237.388798,85.853090,166.755368,70.878943,141.771064,29.537032" />
<polygon fill="#9c9591" fill-opacity="0.501961" points="262.166844,64.048648,256.218172,123.784582,173.298048,112.457614,240.392013,105.698087" />
<polygon fill="#594130" fill-opacity="0.501961" points="132.091144,131.379704,128.466355,77.257187,136.246756,65.911997,132.044883,81.946527" />
<polygon fill="#e0ddd9" fill-opacity="0.501961" points="151.607146,152.181601,131.142643,80.553314,174.697391,48.352391,137.905490,104.146105" />
<polygon fill="#e7eae6" fill-opacity="0.501961" points="121.901200,68.891157,129.512045,70.934433,123.278936,77.967722,119.520582,74.647829" />
<polygon fill="#b4c1c6" fill-opacity="0.501961" points="47.343211,7.712209,217.193257,15.216807,5.781279,-16.000000,-14.288242,64.360385" />
<polygon fill="#999591" fill-opacity="0.501961" points="161.301758,50.188850,108.346069,61.810253,121.801253,38.113891,123.420695,51.711139" />
<polygon fill="#51483d" fill-opacity="0.501961" points="135.565895,33.599096,153.677056,42.832315,127.457820,28.949004,124.354365,61.097474" />
<polygon fill="#8c928e" fill-opacity="0.501961" points="150.764614,148.045874,138.727382,122.234391,259.960934,134.558263,144.708033,127.583312" />
<polygon fill="#d9e0df" fill-opacity="0.501961" points="117.695967,72.424029,107.326636,51.331087,60.922218,21.144398,47.064658,39.101848" />
<polygon fill="#675040" fill-opacity="0.501961" points="129.311996,151.404132,106.544266,133.853258,132.967630,151.481053,131.588350,81.224342" />
<polygon fill="#aeaba4" fill-opacity="0.501961" points="-8.704239,148.417625,84.293105,158.128258,-16.000000,123.212922,0.006055,119.775346" />
<polygon fill="#545450" fill-opacity="0.501961" points="271.000000,146.072698,271.000000,134.850201,271.000000,175.035297,229.399768,167.734386" />
<polygon fill="#373327" fill-opacity="0.501961" points="130.545339,81.920254,121.316357,78.054390,117.153615,60.357926,117.250756,86.057446" />
<polygon fill="#060704" fill-opacity="0.501961" points="141.249257,130.740946,115.398193,137.604868,133.980539,141.828769,147.034252,139.731483" />
<polygon fill="#d3c7c0" fill-opacity="0.501961" points="138.529876,123.900500,193.269228,122.790747,132.249737,94.552481,257.488854,72.323269" />
<polygon fill="#bcb5ae" fill-opacity="0.501961" points="127.682460,107.286019,121.657806,133.244588,101.890805,106.698523,87.976303,116.430375" />
<polygon fill="#a6a8a3" fill-opacity="0.501961" points="147.277811,140.007090,135.522400,155.861752,172.022914,162.953657,208.348548,128.198494" />
<polygon fill="#14100b" fill-opacity="0.501961" points="132.630700,114.107212,132.901458,142.138043,137.140902,108.734622,131.256089,85.110544" />
<polygon fill="#b4c0c0" fill-opacity="0.501961" points="264.317655,65.134518,210.261712,94.418338,234.406949,79.527829,206.528072,17.773026" />
<polygon fill="#6b6052" fill-opacity="0.501961" points="101.182381,39.704996,144.268258,46.596433,117.388696,38.653795,106.028948,31.888604" />
<polygon fill="#45402d" fill-opacity="0.501961" points="102.113566,75.248353,122.945230,82.079271,117.565444,74.509118,86.055368,90.191168" />
<polygon fill="#0c0200" fill-opacity="0.501961" points="131.195669,108.730082,131.329006,92.730369,128.560000,105.966522,126.088361,131.271036" />
<polygon fill="#c3c0b9" fill-opacity="0.501961" points="121.058028,142.135558,53.242645,131.660918,31.517928,148.660726,107.377899,150.465888" />
<polygon fill="#e0dbd7" fill-opacity="0.501961" points="-10.033590,93.722238,107.159231,111.368979,119.728564,84.150354,126.138557,95.269832" />
<polygon fill="#7e8179" fill-opacity="0.501961" points="2.477268,124.297461,-16.000000,125.383599,11.891805,127.719414,51.194276,125.123773" />
<polygon fill="#929992" fill-opacity="0.501961" points="95.424832,125.034713,118.650382,131.532682,120.393564,130.361936,125.968548,123.865619" />
<polygon fill="#706c65" fill-opacity="0.501961" points="92.292149,166.235326,111.900486,167.607558,133.598591,163.491141,92.508735,174.751809" />
<polygon fill="#78716b" fill-opacity="0.501961" points="151.053038,38.498467,112.963857,50.727914,127.904988,60.831228,130.369665,39.675582" />
<polygon fill="#a8a6a1" fill-opacity="0.501961" points="99.912557,53.516514,115.817251,44.132391,120.999207,81.138129,121.505394,39.648860" />
<polygon fill="#462c1f" fill-opacity="0.501961" points="115.632024,67.960363,119.265400,59.502454,124.330961,58.841715,129.207885,49.553764" />
<polygon fill="#d0d8d9" fill-opacity="0.501961" points="133.234619,20.904676,72.108883,16.460859,114.157373,48.243681,82.726008,40.589421" />
<polygon fill="#dbe4e1" fill-opacity="0.501961" points="143.917961,68.352666,145.064889,56.249377,129.101424,56.608061,126.670607,66.311128" />
<polygon fill="#3c3937" fill-opacity="0.501961" points="131.834648,71.407294,123.346088,64.954484,134.007032,69.832002,132.149364,80.502528" />
<polygon fill="#3d3a30" fill-opacity="0.501961" points="133.483766,30.682492,149.422025,50.216191,125.087451,35.850005,123.771001,42.588541" />
<polygon fill="#d4d6d1" fill-opacity="0.501961" points="99.605314,71.562371,110.881186,76.719546,112.763818,65.692640,119.080787,75.359550" />
<polygon fill="#d9c6bd" fill-opacity="0.501961" points="125.583505,121.578523,90.961205,124.415892,30.204073,124.176468,50.322924,115.390192" />
<polygon fill="#c6d0d3" fill-opacity="0.501961" points="120.366355,9.501797,133.911636,23.811551,117.144779,39.039984,94.966846,12.811852" />
<polygon fill="#2b2520" fill-opacity="0.501961" points="136.579735,71.564178,132.014427,71.753173,126.141014,94.967066,126.605222,83.289570" />
<polygon fill="#343227" fill-opacity="0.501961" points="143.033357,36.444007,142.097015,31.800879,119.202925,41.337020,138.051572,37.718103" />
<polygon fill="#878984" fill-opacity="0.501961" points="198.615421,162.546511,157.499698,185.000000,218.104787,132.742322,252.333066,147.477653" />
<polygon fill="#b8aea8" fill-opacity="0.501961" points="137.354424,111.973031,212.311162,124.022391,235.276533,119.038358,156.356656,107.761481" />
<polygon fill="#a2a19b" fill-opacity="0.501961" points="117.801208,166.678162,143.438163,185.000000,112.966308,155.913585,46.254533,163.018053" />
<polygon fill="#767471" fill-opacity="0.501961" points="124.735656,51.782392,148.431750,38.139201,149.214070,42.195143,134.472091,36.104799" />
<polygon fill="#c3bab6" fill-opacity="0.501961" points="107.034652,80.313641,107.581364,84.395672,97.263218,88.600842,67.115198,108.124790" />
<polygon fill="#d5dbdb" fill-opacity="0.501961" points="101.562082,72.673798,83.989179,29.573280,54.935010,21.560492,108.998780,76.312633" />
<polygon fill="#635246" fill-opacity="0.501961" points="89.298933,89.018880,114.654326,88.902198,82.817112,77.154209,109.705120,86.141848" />
<polygon fill="#e7e9e6" fill-opacity="0.501961" points="95.829273,67.363195,90.519073,50.450645,23.463781,98.536855,46.145630,56.822793" />
<polygon fill="#dde2e0" fill-opacity="0.501961" points="127.221897,55.707540,117.328196,59.391948,75.660629,33.518747,22.456706,71.096747" />
<polygon fill="#40372e" fill-opacity="0.501961" points="126.219753,157.491404,124.762133,159.824926,144.440315,158.792218,127.884328,151.005459" />
<polygon fill="#c9cac8" fill-opacity="0.501961" points="188.203631,70.178400,161.047658,54.874800,130.201456,45.518710,140.311698,46.717400" />
<polygon fill="#534635" fill-opacity="0.501961" points="81.083563,79.354685,91.999461,77.912845,92.477355,79.461186,98.034371,64.174476" />
<polygon fill="#acaeaa" fill-opacity="0.501961" points="185.936206,148.277451,139.399365,125.688598,149.392088,141.205097,139.328654,151.055602" />
<polygon fill="#b7c6cb" fill-opacity="0.501961" points="191.027030,14.147440,252.503086,66.169866,158.660855,21.501789,28.456063,-16.000000" />
<polygon fill="#ebebeb" fill-opacity="0.501961" points="33.645489,82.724410,70.987904,70.436040,86.630180,83.727428,88.192682,97.120883" />
<polygon fill="#baa9a2" fill-opacity="0.501961" points="97.006114,73.704639,87.990957,81.728306,87.756155,85.009812,97.833403,75.350960" />
<polygon fill="#a8a49d" fill-opacity="0.501961" points="34.534584,185.000000,-13.927443,116.780681,55.568493,115.000443,-7.816209,110.761009" />
<polygon fill="#21221a" fill-opacity="0.501961" points="122.577384,88.652234,136.634078,82.766479,131.747292,84.961484,117.182193,75.895387" />
<polygon fill="#16110c" fill-opacity="0.501961" points="129.846408,107.448155,125.002908,129.177422,117.301762,137.459106,129.139158,148.773546" />
<polygon fill="#6a6659" fill-opacity="0.501961" points="102.543331,35.611808,123.402786,39.725268,118.510579,40.662217,110.686543,30.797048" />
<polygon fill="#ccd5d8" fill-opacity="0.501961" points="134.436293,21.298200,157.859371,51.493542,219.190063,56.765548,187.979261,31.539466" />
<polygon fill="#dde1df" fill-opacity="0.501961" points="138.197321,67.125056,167.355173,38.581759,191.524443,75.958427,132.036056,82.179588" />
<polygon fill="#a6aaaa" fill-opacity="0.501961" points="236.555945,17.362365,271.000000,67.160689,220.542352,98.235805,254.424242,91.777270" />
<polygon fill="#d1d6d3" fill-opacity="0.501961" points="38.754584,17.695521,129.308071,23.087247,-7.266275,28.933032,0.376368,107.247687" />
<polygon fill="#bcbcb7" fill-opacity="0.501961" points="112.289200,65.426616,126.227012,58.737814,126.234702,63.692881,99.673340,59.693891" />
<polygon fill="#93948f" fill-opacity="0.501961" points="128.785878,148.374539,112.958085,139.352306,127.206135,150.075657,219.377434,134.647129" />
<polygon fill="#4b3525" fill-opacity="0.501961" points="115.536953,67.689670,117.598409,60.371616,121.218259,57.251112,117.697339,63.090357" />
<polygon fill="#b2b6b0" fill-opacity="0.501961" points="93.704374,136.113283,114.409520,138.179479,125.001358,128.973648,33.077157,126.820911" />
<polygon fill="#7a7b76" fill-opacity="0.501961" points="224.839134,164.998582,197.156129,170.839028,207.764527,157.440778,248.774536,131.956928" />
<polygon fill="#807e7b" fill-opacity="0.501961" points="230.439812,110.209298,271.000000,132.213786,248.167928,99.328579,271.000000,110.667948" />
<polygon fill="#614c3d" fill-opacity="0.501961" points="132.736378,107.952472,130.467872,153.062358,116.812815,164.323899,126.734269,161.397518" />
<polygon fill="#e4e6e1" fill-opacity="0.501961" points="128.168068,76.317098,122.463554,75.431354,121.178984,72.291741,131.537398,69.737896" />
<polygon fill="#9eb2bb" fill-opacity="0.501961" points="92.368802,-9.738273,162.489115,-16.000000,247.984769,34.716303,219.527847,24.452146" />
<polygon fill="#d4cac2" fill-opacity="0.501961" points="238.184204,99.468429,140.255107,101.203424,187.053932,108.307822,238.803456,102.520794" />
<polygon fill="#d8c8c0" fill-opacity="0.501961" points="11.390990,123.372172,59.725116,116.982662,124.836081,114.704836,125.653773,123.852361" />
<polygon fill="#9b9995" fill-opacity="0.501961" points="123.247219,56.532677,152.379272,55.142851,139.464999,53.408242,146.124052,52.616535" />
<polygon fill="#0e0e0d" fill-opacity="0.501961" points="127.969607,141.195838,143.630458,137.018237,132.090789,100.996503,136.771009,126.363523" />
<polygon fill="#8c8e89" fill-opacity="0.501961" points="149.007795,157.823004,112.411901,185.000000,181.348357,165.111790,130.872004,162.192937" />
<polygon fill="#ddd7d2" fill-opacity="0.501961" points="83.986683,112.497318,112.235858,89.091835,99.031129,95.733061,-16.000000,104.054383" />
<polygon fill="#6c6660" fill-opacity="0.501961" points="131.594882,43.089230,126.475129,66.891444,125.992003,51.624842,117.786028,51.810526" />
<polygon fill="#160e06" fill-opacity="0.501961" points="130.869772,98.800538,130.687706,111.903198,127.360391,146.748742,126.625624,112.064060" />
<polygon fill="#c1ced2" fill-opacity="0.501961" points="139.555993,42.555841,166.541356,17.157166,106.399742,6.353328,149.588344,36.928228" />
<polygon fill="#acaaa4" fill-opacity="0.501961" points="85.712311,170.372489,92.229620,154.323427,123.582862,142.502084,126.275233,143.181726" />
<polygon fill="#a3a29c" fill-opacity="0.501961" points="127.018543,169.530423,72.718831,183.614825,69.643701,150.509194,51.461082,167.616142" />
<polygon fill="#aba09a" fill-opacity="0.501961" points="121.963732,84.825181,121.387866,91.584919,112.483146,84.057602,74.930968,90.982596" />
<polygon fill="#979894" fill-opacity="0.501961" points="227.480343,145.476224,204.019153,134.698729,180.775891,126.446412,185.147141,159.159286" />
<polygon fill="#6e6352" fill-opacity="0.501961" points="89.381125,87.740175,106.845433,66.789260,107.827167,66.661386,107.990584,69.411354" />
<polygon fill="#4d4f41" fill-opacity="0.501961" points="109.448264,76.959988,119.367391,75.658629,116.682362,82.267467,109.421625,74.257994" />
<polygon fill="#1a130a" fill-opacity="0.501961" points="123.889494,88.857957,129.935658,82.032606,119.566016,82.816169,116.368789,64.315440" />
<polygon fill="#61523f" fill-opacity="0.501961" points="101.085315,87.858292,98.845618,95.091653,96.499253,79.308166,88.353072,83.815191" />
<polygon fill="#c6cdcc" fill-opacity="0.501961" points="220.157891,87.308469,244.550533,74.734151,227.633105,48.512417,184.783437,21.183547" />
<polygon fill="#736d60" fill-opacity="0.501961" points="111.542226,71.013484,111.699923,67.969784,92.113166,71.578934,104.282205,70.937743" />
<polygon fill="#878882" fill-opacity="0.501961" points="114.947826,158.375901,101.421117,156.735679,98.106032,165.443929,147.449098,141.122042" />
<polygon fill="#aeafaa" fill-opacity="0.501961" points="148.989674,155.013683,170.818969,150.857744,158.439512,128.051359,137.095478,152.146136" />
<polygon fill="#89817c" fill-opacity="0.501961" points="103.833117,48.780479,108.636655,51.193243,111.160604,28.881770,113.398909,47.851825" />
<polygon fill="#5f5851" fill-opacity="0.501961" points="130.741853,163.406108,108.538452,171.658608,121.719897,167.780986,136.575246,169.386747" />
<polygon fill="#bebcb7" fill-opacity="0.501961" points="121.163221,115.058380,-9.003443,113.219621,121.448260,108.493534,127.081100,111.161860" />
<polygon fill="#d1d0cc" fill-opacity="0.501961" points="104.721142,73.475143,102.184567,71.476373,122.390340,71.640237,106.474672,75.298626" />
<polygon fill="#1b1a12" fill-opacity="0.501961" points="133.165227,84.355077,128.352269,81.913478,110.822046,83.143407,108.322893,81.483228" />
<polygon fill="#a2a9a8" fill-opacity="0.501961" points="128.699330,53.225907,153.548550,52.582140,127.728654,49.666462,110.606176,37.622960" />
<polygon fill="#dbd3cc" fill-opacity="0.501961" points="122.124217,86.750375,126.998680,93.434308,121.664083,108.529848,93.634617,107.892570" />
<polygon fill="#cad2d3" fill-opacity="0.501961" points="133.285726,30.398162,129.250504,15.411924,126.125410,34.736208,23.798879,14.864727" />
<polygon fill="#100a05" fill-opacity="0.501961" points="123.397518,140.066546,127.869941,128.152408,122.388174,133.722234,111.044218,139.844346" />
<polygon fill="#3d2f1f" fill-opacity="0.501961" points="102.815016,82.998090,99.309363,71.643917,93.769262,87.104865,90.369562,87.291580" />
<polygon fill="#684f3f" fill-opacity="0.501961" points="131.783891,109.423729,124.182940,169.796773,130.468000,128.435196,131.511265,126.574102" />
<polygon fill="#473e2e" fill-opacity="0.501961" points="140.670730,43.699670,112.733049,39.793407,136.284634,31.819462,125.848345,41.924967" />
<polygon fill="#a38b7d" fill-opacity="0.501961" points="131.564838,113.799326,131.875762,140.415568,130.390878,113.727021,200.798827,120.874755" />
<polygon fill="#6c5d53" fill-opacity="0.501961" points="112.411292,39.402867,115.785490,35.712855,114.261645,54.176483,117.757595,54.891043" />
<polygon fill="#959591" fill-opacity="0.501961" points="124.980934,38.536072,122.490732,32.482559,123.299822,49.851259,118.780419,43.398728" />
<polygon fill="#c4cacb" fill-opacity="0.501961" points="81.534940,11.836668,-3.466248,36.527576,-16.000000,17.878487,94.744056,4.133072" />
<polygon fill="#71746e" fill-opacity="0.501961" points="45.127199,156.332375,51.623646,154.860755,-16.000000,165.383604,57.570757,157.419585" />
<polygon fill="#a4a5a0" fill-opacity="0.501961" points="10.157190,158.680070,32.895006,128.222922,-8.994568,134.486603,36.885248,179.062561" />
<polygon fill="#858680" fill-opacity="0.501961" points="35.921661,166.535896,45.228801,163.439569,22.917727,162.435193,-16.000000,174.951815" />
<polygon fill="#dfd7d3" fill-opacity="0.501961" points="138.083121,78.896292,131.821527,87.377827,159.930790,105.397101,186.249213,79.562419" />
<polygon fill="#e3e5e2" fill-opacity="0.501961" points="44.973043,64.050158,84.531589,73.459604,86.411272,52.625495,109.589970,63.449612" />
<polygon fill="#3b200e" fill-opacity="0.501961" points="133.743861,98.271744,133.453267,89.208855,129.324193,101.925080,127.849484,93.364671" />
<polygon fill="#cad3d6" fill-opacity="0.501961" points="165.747469,21.612450,214.352963,55.300196,165.124227,41.596976,144.242464,43.891763" />
<polygon fill="#42352c" fill-opacity="0.501961" points="132.855393,168.772982,121.119553,161.023812,128.859313,169.710221,108.553267,175.407504" />
<polygon fill="#aca7a1" fill-opacity="0.501961" points="125.300144,165.365316,110.911061,157.139880,109.727322,159.949864,86.460496,166.038825" />
<polygon fill="#474d4e" fill-opacity="0.501961" points="271.000000,119.580846,248.162384,124.563986,232.706240,124.652281,261.941782,129.615830" />
<polygon fill="#858077" fill-opacity="0.501961" points="89.292686,94.873429,103.058238,82.493542,121.374335,79.734776,109.786335,77.765067" />
<polygon fill="#4a4532" fill-opacity="0.501961" points="99.991318,63.782083,95.930539,71.833747,87.426963,69.470165,80.648205,76.667296" />
<polygon fill="#523f33" fill-opacity="0.501961" points="131.355109,33.185473,123.338430,60.437073,128.380129,52.575046,127.560698,58.064663" />
<polygon fill="#b8b8b3" fill-opacity="0.501961" points="236.601485,74.429600,246.695943,49.961124,256.266175,72.542097,214.797714,114.054728" />
<polygon fill="#3e3f2d" fill-opacity="0.501961" points="125.601098,82.942841,105.140237,75.061820,92.292400,82.660249,115.723808,76.084898" />
<polygon fill="#9e9a95" fill-opacity="0.501961" points="250.856025,111.439924,271.000000,73.906618,262.377729,82.102349,243.313114,93.544967" />
<polygon fill="#777673" fill-opacity="0.501961" points="135.711252,33.160193,134.127237,43.160374,111.604000,47.361675,140.398268,39.115745" />
<polygon fill="#989993" fill-opacity="0.501961" points="12.332608,170.143393,91.288939,160.692584,92.527252,147.244590,77.985203,165.326607" />
<polygon fill="#827a75" fill-opacity="0.501961" points="126.271928,63.939540,129.617266,51.567383,112.117149,69.893170,134.383728,47.037224" />
<polygon fill="#d6cdc6" fill-opacity="0.501961" points="137.506002,111.995186,134.551451,88.454205,202.883368,105.612029,174.784432,104.518813" />
<polygon fill="#d1d7d9" fill-opacity="0.501961" points="90.253332,32.320921,13.113457,39.926895,84.696800,18.154223,120.411751,61.419087" />
<polygon fill="#b8b7b3" fill-opacity="0.501961" points="115.440064,71.700286,92.258375,78.582454,117.287579,53.969227,92.664878,77.365975" />
<polygon fill="#5d5341" fill-opacity="0.501961" points="80.944679,81.105988,92.681059,76.436399,83.778733,69.896304,94.734340,67.952469" />
<polygon fill="#aebbc0" fill-opacity="0.501961" points="57.378613,2.850033,-16.000000,12.162523,25.858802,-16.000000,127.237011,2.131544" />
<polygon fill="#e1dfdc" fill-opacity="0.501961" points="26.227706,98.814756,-16.000000,94.042704,22.206911,49.601760,26.977567,92.990107" />
<polygon fill="#787e78" fill-opacity="0.501961" points="255.866080,137.453090,216.169958,143.717612,271.000000,126.281507,214.968928,132.367447" />
<polygon fill="#726d60" fill-opacity="0.501961" points="116.662848,34.756865,102.127715,40.991565,106.411934,30.369833,108.493522,32.362393" />
<polygon fill="#3d3f36" fill-opacity="0.501961" points="137.582436,38.319096,134.966215,45.899369,143.335387,37.468814,140.633597,30.683676" />
<polygon fill="#8c6146" fill-opacity="0.501961" points="133.571643,87.353059,136.926786,86.932516,126.792473,88.422413,130.617529,92.292100" />
<polygon fill="#2e2818" fill-opacity="0.501961" points="125.625121,41.738023,132.879286,42.880022,128.764146,42.276424,133.866070,30.402073" />
<polygon fill="#130c09" fill-opacity="0.501961" points="129.809271,89.622431,125.834624,88.714133,121.622566,84.513414,131.329365,83.298356" />
<polygon fill="#545652" fill-opacity="0.501961" points="-12.929556,166.959116,-7.291462,154.880145,-16.000000,163.108447,13.439747,161.886627" />
<polygon fill="#dfdad6" fill-opacity="0.501961" points="88.093701,93.314275,-16.000000,98.162038,85.645842,107.150695,98.898370,85.020822" />
<polygon fill="#6e706e" fill-opacity="0.501961" points="177.407948,123.988682,160.366598,124.088320,133.811048,124.757787,240.430119,125.728293" />
<polygon fill="#6c6e69" fill-opacity="0.501961" points="271.000000,149.633788,203.604449,158.640501,238.643343,160.720432,175.532486,185.000000" />
<polygon fill="#3d3a2d" fill-opacity="0.501961" points="111.278059,82.100521,102.670242,76.141597,96.543231,68.973901,101.809015,81.974366" />
<polygon fill="#83949e" fill-opacity="0.501961" points="246.176060,7.351301,199.206642,-16.000000,225.799968,8.487794,271.000000,37.630085" />
<polygon fill="#404132" fill-opacity="0.501961" points="100.019810,65.195746,95.067002,65.065624,101.841432,83.606192,96.785769,64.023266" />
<polygon fill="#4f4a3f" fill-opacity="0.501961" points="151.915166,47.038106,119.788498,34.394414,145.712535,47.766171,152.244477,49.783953" />
<polygon fill="#d5d8d3" fill-opacity="0.501961" points="117.444286,75.289475,111.607759,58.499780,111.553322,76.601687,109.595410,72.872043" />
<polygon fill="#a1a5a4" fill-opacity="0.501961" points="120.890023,49.628969,123.144828,44.015511,116.520564,22.155049,121.240766,26.304519" />
<polygon fill="#c0bfba" fill-opacity="0.501961" points="78.053977,153.629230,56.952363,149.761041,65.743967,129.732145,121.831037,132.784835" />
<polygon fill="#a19995" fill-opacity="0.501961" points="222.187435,110.254198,238.981825,123.727914,200.489115,124.056372,227.714474,103.542628" />
<polygon fill="#8a8780" fill-opacity="0.501961" points="124.232192,161.051065,135.615204,167.592018,113.394444,145.980861,130.978184,162.539885" />
<polygon fill="#5c463d" fill-opacity="0.501961" points="128.699335,68.026058,124.352202,66.502150,119.608610,68.890336,125.691474,67.813773" />
<polygon fill="#98a8b0" fill-opacity="0.501961" points="253.451108,29.606279,117.477202,-16.000000,200.716871,5.776625,266.077148,58.563993" />
<polygon fill="#a4a49f" fill-opacity="0.501961" points="105.885959,161.069981,32.599736,153.243449,38.504573,156.458589,38.354596,147.794533" />
<polygon fill="#b2aaa4" fill-opacity="0.501961" points="253.528239,106.464678,230.314716,108.737224,264.030641,73.331299,224.794087,95.575762" />
<polygon fill="#998983" fill-opacity="0.501961" points="109.418828,81.693804,105.098058,93.344736,89.020836,88.082696,101.142783,95.645934" />
<polygon fill="#42362c" fill-opacity="0.501961" points="139.910258,153.191101,127.950721,158.818627,133.899678,149.232484,137.123872,151.985113" />
<polygon fill="#ced6d9" fill-opacity="0.501961" points="124.001284,14.275391,113.978029,36.230266,111.807996,30.954343,45.188857,27.212513" />
<polygon fill="#c5cac6" fill-opacity="0.501961" points="129.394237,68.507928,123.170593,76.287817,166.598923,51.730374,118.853486,78.886534" />
<polygon fill="#676b65" fill-opacity="0.501961" points="11.932475,154.559639,-2.238642,156.312342,-15.848330,164.474367,15.257644,154.783419" />
<polygon fill="#6c5a4c" fill-opacity="0.501961" points="120.651694,87.768645,90.049218,87.052702,86.871738,82.958537,105.223625,90.197777" />
<polygon fill="#afc0c7" fill-opacity="0.501961" points="12.114177,-16.000000,175.633090,6.466805,237.304788,40.088683,150.667220,10.590568" />
<polygon fill="#ddcfc5" fill-opacity="0.501961" points="-9.721871,78.975669,-16.000000,117.391655,28.642148,98.551983,-3.856244,97.550792" />
<polygon fill="#130c06" fill-opacity="0.501961" points="126.517748,118.375503,130.120265,93.340846,129.297142,124.189759,128.150486,137.312956" />
<polygon fill="#6a655b" fill-opacity="0.501961" points="113.008662,85.596639,107.754086,68.010149,91.956881,68.652866,109.001317,69.139474" />
<polygon fill="#dae2df" fill-opacity="0.501961" points="117.248145,63.321235,87.874362,34.016710,30.045939,65.899720,39.047231,35.412559" />
<polygon fill="#b0b6b5" fill-opacity="0.501961" points="109.894050,38.983177,131.764604,23.649391,128.867932,24.233821,120.388393,35.006464" />
<polygon fill="#d2cdc6" fill-opacity="0.501961" points="120.652029,76.901266,131.645033,72.246409,119.850845,71.793800,119.188936,55.110646" />
<polygon fill="#393027" fill-opacity="0.501961" points="123.864774,163.725924,122.792653,162.018623,138.445703,156.715118,130.923814,156.093483" />
<polygon fill="#9d9c9b" fill-opacity="0.501961" points="136.498859,48.526401,131.871011,43.494458,151.960270,55.032443,129.552378,46.774102" />
<polygon fill="#d5dbdc" fill-opacity="0.501961" points="41.862879,30.795638,71.880336,30.048677,107.668585,34.385215,17.957039,43.234750" />
<polygon fill="#adb2ad" fill-opacity="0.501961" points="127.004976,48.351092,81.326063,49.208230,125.520791,48.610022,126.827877,40.707593" />
<polygon fill="#e9eaea" fill-opacity="0.501961" points="88.661529,80.576889,85.481331,89.951372,64.136239,93.338674,33.022604,84.763396" />
<polygon fill="#c2c4c2" fill-opacity="0.501961" points="121.499999,67.159519,81.574161,31.838299,119.973263,66.035882,132.927205,47.740922" />
<polygon fill="#493c35" fill-opacity="0.501961" points="127.628831,67.533133,122.811614,67.929649,124.955742,64.781259,133.965154,71.897100" />
<polygon fill="#cdcfcb" fill-opacity="0.501961" points="106.680469,65.147147,106.480834,54.432963,99.490437,71.904852,111.600604,61.411636" />
<polygon fill="#7c6656" fill-opacity="0.501961" points="86.286100,90.320342,100.095827,84.938635,90.917454,79.445291,97.989080,83.214226" />
<polygon fill="#4a3e34" fill-opacity="0.501961" points="122.354477,148.033172,130.469015,158.566523,124.624136,149.284063,136.820892,143.441191" />
<polygon fill="#c9b9b1" fill-opacity="0.501961" points="198.295241,121.914377,182.338133,123.516568,139.398548,122.639997,138.893865,110.725215" />
<polygon fill="#776255" fill-opacity="0.501961" points="109.048132,50.927609,111.420548,43.547464,103.051153,38.277477,109.501598,33.919156" />
<polygon fill="#a7aba7" fill-opacity="0.501961" points="182.641472,129.395988,156.401274,148.903003,143.139412,132.741156,141.390919,126.963232" />
<polygon fill="#708088" fill-opacity="0.501961" points="254.882800,10.441758,229.963241,-7.395598,263.245790,-16.000000,259.916082,25.258721" />
<polygon fill="#d6dfdd" fill-opacity="0.501961" points="185.804200,50.110259,177.550141,55.692470,130.581896,65.930029,128.888292,57.159769" />
<polygon fill="#c3c2bc" fill-opacity="0.501961" points="69.947162,140.588648,60.670476,136.476488,99.815299,135.490159,125.502299,152.732482" />
<polygon fill="#d8d1cb" fill-opacity="0.501961" points="126.320010,109.801731,60.635617,111.640247,125.829752,90.934650,127.740080,105.730662" />
<polygon fill="#a29f98" fill-opacity="0.501961" points="-4.131473,162.039846,-5.670402,153.681631,-12.102591,159.602553,21.668787,158.944722" />
<polygon fill="#d3cbc6" fill-opacity="0.501961" points="110.878808,93.293932,82.818330,108.707541,111.174842,88.188483,109.502457,119.439162" />
<polygon fill="#e2dfdb" fill-opacity="0.501961" points="21.750560,102.631444,92.432258,93.364084,112.775494,96.175356,100.513718,99.502735" />
<polygon fill="#866753" fill-opacity="0.501961" points="121.658971,92.143041,132.695723,105.179362,129.506747,84.356046,131.577076,103.532437" />
<polygon fill="#2a2b1d" fill-opacity="0.501961" points="123.077396,39.995745,142.556932,33.899602,145.004398,38.025488,134.043564,31.435381" />
<polygon fill="#a8ada7" fill-opacity="0.501961" points="-3.955633,136.511630,4.670261,139.342990,25.315648,126.184927,97.431189,126.791041" />
<polygon fill="#b3a29e" fill-opacity="0.501961" points="102.387988,93.216542,117.185757,91.472169,119.081945,87.178638,109.135251,95.615515" />
<polygon fill="#c6c0bd" fill-opacity="0.501961" points="97.955105,75.606981,59.284006,95.254874,94.889487,76.916533,95.590890,80.354682" />
<polygon fill="#bfbbb5" fill-opacity="0.501961" points="173.092405,111.124192,251.325557,103.353757,192.670762,105.915050,148.393244,107.308757" />
<polygon fill="#a9b8bf" fill-opacity="0.501961" points="195.399113,11.622387,239.153509,53.650193,270.045758,61.593375,271.000000,62.887387" />
<polygon fill="#453a2d" fill-opacity="0.501961" points="114.329704,55.982520,116.584974,63.239704,117.145008,61.945187,119.523989,84.049157" />
<polygon fill="#d1d8db" fill-opacity="0.501961" points="144.043982,37.083808,209.159626,55.590914,154.269786,49.507378,153.468505,20.960470" />
<polygon fill="#ceb7ac" fill-opacity="0.501961" points="25.910000,116.557868,-0.128295,117.213726,-7.447882,123.672409,40.221696,123.905596" />
<polygon fill="#959b94" fill-opacity="0.501961" points="125.430830,128.333215,81.781362,125.973866,67.984931,124.128802,111.154043,124.153497" />
<polygon fill="#2a2721" fill-opacity="0.501961" points="140.937767,149.809540,134.864213,143.211161,135.733950,140.264879,117.587561,137.224498" />
<polygon fill="#c6d0d2" fill-opacity="0.501961" points="123.868326,24.423257,193.829096,49.285093,92.653487,9.476788,129.872250,35.388703" />
<polygon fill="#a0a39e" fill-opacity="0.501961" points="139.590606,142.479464,161.441653,137.586548,142.899133,146.993560,171.411766,153.077636" />
<polygon fill="#151412" fill-opacity="0.501961" points="132.827864,91.103471,132.005360,122.897332,132.383778,145.697024,141.249283,132.285940" />
<polygon fill="#7b7871" fill-opacity="0.501961" points="121.566519,149.583000,143.598178,181.957524,119.127368,146.450534,134.726025,149.999469" />
<polygon fill="#797873" fill-opacity="0.501961" points="113.573716,168.539347,117.320228,165.285656,95.920844,170.605237,91.115318,166.894318" />
<polygon fill="#070807" fill-opacity="0.501961" points="132.880352,122.145371,132.662609,138.892085,144.784280,138.070118,140.366499,128.440801" />
<polygon fill="#785f51" fill-opacity="0.501961" points="115.091841,61.608436,133.649060,55.063902,130.074414,54.984963,131.683858,53.124858" />
<polygon fill="#898c87" fill-opacity="0.501961" points="80.854215,167.331513,32.147266,156.682780,72.636558,164.103379,78.819970,160.625645" />
<polygon fill="#664e3e" fill-opacity="0.501961" points="87.205337,79.225966,103.010714,89.367224,100.932574,89.464968,81.562930,75.653636" />
<polygon fill="#5a5c4f" fill-opacity="0.501961" points="139.159084,43.130076,137.558897,34.548982,134.236339,33.081585,136.532620,28.451080" />
<polygon fill="#8b8b86" fill-opacity="0.501961" points="187.416056,152.601381,259.299726,141.220994,103.940144,180.530161,212.257892,165.487092" />
<polygon fill="#a09f9a" fill-opacity="0.501961" points="194.566869,161.247786,184.162812,129.613078,152.909818,170.943778,177.697361,160.086318" />
<polygon fill="#696050" fill-opacity="0.501961" points="104.428560,37.639571,99.384275,35.689354,136.846513,42.979026,110.379917,37.869919" />
<polygon fill="#d5dad7" fill-opacity="0.501961" points="109.736885,66.014118,118.012810,61.409668,85.631869,52.479743,111.575210,57.315790" />
<polygon fill="#bbc8c9" fill-opacity="0.501961" points="136.850538,50.365328,135.693613,53.781956,151.827314,50.892475,151.880333,57.851452" />
<polygon fill="#a2a5a2" fill-opacity="0.501961" points="114.545466,80.721817,109.127783,80.093230,108.366636,74.477656,110.265447,80.835561" />
<polygon fill="#a5a59e" fill-opacity="0.501961" points="1.628740,176.265772,6.747729,185.000000,73.489731,154.969729,34.418822,167.993525" />
<polygon fill="#c7cac4" fill-opacity="0.501961" points="129.828709,61.731531,129.257891,59.094342,122.833672,79.633602,120.724150,76.035445" />
<polygon fill="#d1d4d0" fill-opacity="0.501961" points="215.380739,82.055088,193.710401,87.739443,195.486471,43.784658,224.124733,69.721382" />
<polygon fill="#d7dcda" fill-opacity="0.501961" points="193.074576,34.979619,137.593037,59.632423,133.969546,96.736918,147.835217,58.785953" />
<polygon fill="#81817a" fill-opacity="0.501961" points="-16.000000,126.927028,-16.000000,124.560893,17.866135,124.000664,33.390887,125.339988" />
<polygon fill="#aca69f" fill-opacity="0.501961" points="109.242490,185.000000,47.990271,177.997896,97.346107,165.312972,58.947868,166.891709" />
<polygon fill="#322316" fill-opacity="0.501961" points="103.917342,77.770003,95.989696,83.994653,102.968322,81.876570,103.877218,84.648640" />
<polygon fill="#757670" fill-opacity="0.501961" points="6.156472,167.394963,38.189877,180.784782,-8.723276,164.831602,-11.643328,177.905113" />
<polygon fill="#6f7573" fill-opacity="0.501961" points="157.423625,126.959471,245.860431,124.908440,198.900077,124.103685,200.883047,128.154545" />
<polygon fill="#060706" fill-opacity="0.501961" points="125.918189,131.314658,130.090547,96.377628,129.994385,125.758671,124.190870,137.685193" />
<polygon fill="#d5dad6" fill-opacity="0.501961" points="108.522252,74.014061,102.608489,74.604273,110.694612,51.892679,90.021181,45.705723" />
<polygon fill="#9a948f" fill-opacity="0.501961" points="104.891802,50.709239,98.496017,44.254025,121.735980,55.031725,108.274869,49.285140" />
<polygon fill="#a9a7a0" fill-opacity="0.501961" points="26.525957,142.903024,5.340561,148.678168,33.346418,155.870849,27.682896,159.052519" />
<polygon fill="#895a3c" fill-opacity="0.501961" points="131.282138,99.012190,132.057451,124.547399,130.174961,91.040428,130.924906,91.201792" />
<polygon fill="#b1b4b1" fill-opacity="0.501961" points="117.005637,127.721478,101.212764,140.743396,122.937761,131.248046,122.521696,125.553681" />
<polygon fill="#7e7b74" fill-opacity="0.501961" points="134.782660,160.858780,119.284677,158.430577,131.349907,162.336585,67.536775,185.000000" />
<polygon fill="#877f78" fill-opacity="0.501961" points="109.176016,55.881659,121.202871,55.373810,109.183781,52.926206,108.884232,27.611882" />
<polygon fill="#c3b8b2" fill-opacity="0.501961" points="102.566834,89.121170,102.149276,103.371855,101.565350,91.778005,94.934436,92.389957" />
<polygon fill="#5c5744" fill-opacity="0.501961" points="107.704077,67.287753,105.612197,67.738590,104.854020,68.943840,109.263199,69.331907" />
<polygon fill="#d3d9d9" fill-opacity="0.501961" points="187.779579,78.013445,186.306934,40.631753,145.326018,45.705472,158.049759,36.628558" />
<polygon fill="#b8b6b0" fill-opacity="0.501961" points="24.122118,150.981899,11.662959,151.000989,54.242819,127.726490,54.692577,138.696767" />
<polygon fill="#bfcbce" fill-opacity="0.501961" points="120.691210,6.189665,126.340456,37.732892,128.035578,11.349894,10.486416,15.142758" />
<polygon fill="#7a776d" fill-opacity="0.501961" points="121.797995,51.156643,102.243154,49.053142,118.270766,50.271134,112.281904,46.908962" />
<polygon fill="#2e2f1b" fill-opacity="0.501961" points="127.366169,81.276759,111.827355,81.009014,120.987305,84.203047,116.098935,77.250300" />
<polygon fill="#b09e97" fill-opacity="0.501961" points="94.208154,93.695893,98.132851,84.194714,97.880420,92.092412,91.926312,91.486259" />
<polygon fill="#686157" fill-opacity="0.501961" points="108.884099,48.616355,120.124416,51.355527,123.539574,49.144325,124.438999,50.961523" />
<polygon fill="#e8e8e8" fill-opacity="0.501961" points="64.619253,54.145471,33.219354,91.740292,81.657065,77.097849,79.155565,88.222680" />
<polygon fill="#d7dddd" fill-opacity="0.501961" points="99.201406,26.398024,99.586093,37.664572,110.808449,47.887008,67.191082,34.670512" />
<polygon fill="#c3c4c1" fill-opacity="0.501961" points="197.720782,96.682342,113.248051,40.762682,130.687456,53.834347,126.968234,49.738559" />
<polygon fill="#413c35" fill-opacity="0.501961" points="150.324568,182.881629,95.240226,185.000000,136.313631,167.317500,125.839813,166.113343" />
<polygon fill="#e1dad4" fill-opacity="0.501961" points="120.712731,87.386341,116.602521,91.919919,93.113336,100.705611,125.533375,96.482765" />
<polygon fill="#342c20" fill-opacity="0.501961" points="135.571939,34.116161,123.115019,43.853844,124.389711,39.473319,132.079067,33.932561" />
<polygon fill="#b1afaa" fill-opacity="0.501961" points="220.535771,102.706688,212.004075,102.021275,226.894259,109.313383,168.424065,114.238765" />
</g>
</svg>