<svg xmlns="http://www.w3.org/2000/svg" version="1.1" width="1024" height="684">
<rect x="0" y="0" width="1024" height="684" fill="#a6aba4" />
<g transform="scale(4.000000) translate(0.5 0.5)">
<g transform="translate(75 47) rotate(278) scale(119 170)"><rect fill="#ffffff" fill-opacity="0.501961" x="-0.5" y="-0.5" width="1" height="1" /></g>
<g transform="translate(194 113) rotate(-54) scale(255 124)"><rect fill="#414c43" fill-opacity="0.501961" x="-0.5" y="-0.5" width="1" height="1" /></g>
<g transform="translate(42 167) rotate(363) scale(98 81)"><rect fill="#181e21" fill-opacity="0.501961" x="-0.5" y="-0.5" width="1" height="1" /></g>
<g transform="translate(73 52) rotate(179) scale(184 105)"><rect fill="#ffffff" fill-opacity="0.501961" x="-0.5" y="-0.5" width="1" height="1" /></g>
<g transform="translate(206 169) rotate(219) scale(98 65)"><rect fill="#2a3a38" fill-opacity="0.501961" x="-0.5" y="-0.5" width="1" height="1" /></g>
<g transform="translate(142 151) rotate(298) scale(38 10)"><rect fill="#ffffff" fill-opacity="0.501961" x="-0.5" y="-0.5" width="1" height="1" /></g>
<g transform="translate(174 79) rotate(153) scale(70 53)"><rect fill="#a29b97" fill-opacity="0.501961" x="-0.5" y="-0.5" width="1" height="1" /></g>
<g transform="translate(238 105) rotate(364) scale(64 21)"><rect fill="#1c1a27" fill-opacity="0.501961" x="-0.5" y="-0.5" width="1" height="1" /></g>
<g transform="translate(247 146) rotate(232) scale(36 11)"><rect fill="#ffffff" fill-opacity="0.501961" x="-0.5" y="-0.5" width="1" height="1" /></g>
<g transform="translate(194 16) rotate(310) scale(34 52)"><rect fill="#464d4c" fill-opacity="0.501961" x="-0.5" y="-0.5" width="1" height="1" /></g>
<g transform="translate(126 119) rotate(130) scale(57 28)"><rect fill="#cdc9bb" fill-opacity="0.501961" x="-0.5" y="-0.5" width="1" height="1" /></g>
<g transform="translate(58 39) rotate(95) scale(104 165)"><rect fill="#ffffff" fill-opacity="0.501961" x="-0.5" y="-0.5" width="1" height="1" /></g>
<g transform="translate(199 83) rotate(262) scale(23 71)"><rect fill="#c2b6b3" fill-opacity="0.501961" x="-0.5" y="-0.5" width="1" height="1" /></g>
<g transform="translate(56 132) rotate(183) scale(127 20)"><rect fill="#838f81" fill-opacity="0.501961" x="-0.5" y="-0.5" width="1" height="1" /></g>
<g transform="translate(157 71) rotate(-12) scale(34 15)"><rect fill="#4e4f56" fill-opacity="0.501961" x="-0.5" y="-0.5" width="1" height="1" /></g>
<g transform="translate(59 170) rotate(369) scale(131 38)"><rect fill="#414447" fill-opacity="0.501961" x="-0.5" y="-0.5" width="1" height="1" /></g>
<g transform="translate(141 155) rotate(357) scale(15 15)"><rect fill="#ffffff" fill-opacity="0.501961" x="-0.5" y="-0.5" width="1" height="1" /></g>
<g transform="translate(50 105) rotate(178) scale(119 17)"><rect fill="#c5cbba" fill-opacity="0.501961" x="-0.5" y="-0.5" width="1" height="1" /></g>
<g transform="translate(181 126) rotate(154) scale(62 49)"><rect fill="#546e59" fill-opacity="0.501961" x="-0.5" y="-0.5" width="1" height="1" /></g>
<g transform="translate(250 31) rotate(329) scale(4 19)"><rect fill="#fbf6ee" fill-opacity="0.501961" x="-0.5" y="-0.5" width="1" height="1" /></g>
<g transform="translate(238 0) rotate(81) scale(12 22)"><rect fill="#eeefde" fill-opacity="0.501961" x="-0.5" y="-0.5" width="1" height="1" /></g>
<g transform="translate(142 148) rotate(213) scale(5 43)"><rect fill="#ffffff" fill-opacity="0.501961" x="-0.5" y="-0.5" width="1" height="1" /></g>
<g transform="translate(172 42) rotate(287) scale(60 17)"><rect fill="#9e999c" fill-opacity="0.501961" x="-0.5" y="-0.5" width="1" height="1" /></g>
<g transform="translate(212 14) rotate(145) scale(38 52)"><rect fill="#4d5f53" fill-opacity="0.501961" x="-0.5" y="-0.5" width="1" height="1" /></g>
<g transform="translate(146 29) rotate(98) scale(66 30)"><rect fill="#fffffd" fill-opacity="0.501961" x="-0.5" y="-0.5" width="1" height="1" /></g>
<g transform="translate(121 106) rotate(169) scale(12 27)"><rect fill="#fffff8" fill-opacity="0.501961" x="-0.5" y="-0.5" width="1" height="1" /></g>
<g transform="translate(255 62) rotate(31) scale(45 30)"><rect fill="#45604c" fill-opacity="0.501961" x="-0.5" y="-0.5" width="1" height="1" /></g>
<g transform="translate(171 69) rotate(347) scale(51 4)"><rect fill="#dddad1" fill-opacity="0.501961" x="-0.5" y="-0.5" width="1" height="1" /></g>
<g transform="translate(70 34) rotate(89) scale(96 129)"><rect fill="#fffffd" fill-opacity="0.501961" x="-0.5" y="-0.5" width="1" height="1" /></g>
<g transform="translate(254 152) rotate(204) scale(29 17)"><rect fill="#fffff2" fill-opacity="0.501961" x="-0.5" y="-0.5" width="1" height="1" /></g>
<g transform="translate(229 162) rotate(59) scale(82 29)"><rect fill="#474f4e" fill-opacity="0.501961" x="-0.5" y="-0.5" width="1" height="1" /></g>
<g transform="translate(255 127) rotate(326) scale(10 28)"><rect fill="#24202d" fill-opacity="0.501961" x="-0.5" y="-0.5" width="1" height="1" /></g>
<g transform="translate(140 136) rotate(130) scale(45 9)"><rect fill="#43414f" fill-opacity="0.501961" x="-0.5" y="-0.5" width="1" height="1" /></g>
<g transform="translate(163 0) rotate(73) scale(16 24)"><rect fill="#ffffff" fill-opacity="0.501961" x="-0.5" y="-0.5" width="1" height="1" /></g>
<g transform="translate(192 59) rotate(258) scale(2 86)"><rect fill="#32483b" fill-opacity="0.501961" x="-0.5" y="-0.5" width="1" height="1" /></g>
<g transform="translate(49 136) rotate(177) scale(11 44)"><rect fill="#979a96" fill-opacity="0.501961" x="-0.5" y="-0.5" width="1" height="1" /></g>
<g transform="translate(207 90) rotate(76) scale(4 101)"><rect fill="#c4c0b6" fill-opacity="0.501961" x="-0.5" y="-0.5" width="1" height="1" /></g>
<g transform="translate(193 17) rotate(342) scale(33 3)"><rect fill="#d1c7c3" fill-opacity="0.501961" x="-0.5" y="-0.5" width="1" height="1" /></g>
<g transform="translate(151 77) rotate(79) scale(2 35)"><rect fill="#3a3b3d" fill-opacity="0.501961" x="-0.5" y="-0.5" width="1" height="1" /></g>
<g transform="translate(88 150) rotate(-38) scale(29 54)"><rect fill="#606d61" fill-opacity="0.501961" x="-0.5" y="-0.5" width="1" height="1" /></g>
<g transform="translate(238 90) rotate(277) scale(6 48)"><rect fill="#cbbeba" fill-opacity="0.501961" x="-0.5" y="-0.5" width="1" height="1" /></g>
<g transform="translate(184 108) rotate(174) scale(32 5)"><rect fill="#a4d18e" fill-opacity="0.501961" x="-0.5" y="-0.5" width="1" height="1" /></g>
<g transform="translate(161 98) rotate(331) scale(10 4)"><rect fill="#2c2e31" fill-opacity="0.501961" x="-0.5" y="-0.5" width="1" height="1" /></g>
<g transform="translate(143 119) rotate(52) scale(1 41)"><rect fill="#ebddd7" fill-opacity="0.501961" x="-0.5" y="-0.5" width="1" height="1" /></g>
<g transform="translate(212 79) rotate(-11) scale(33 6)"><rect fill="#696869" fill-opacity="0.501961" x="-0.5" y="-0.5" width="1" height="1" /></g>
<g transform="translate(138 106) rotate(45) scale(12 19)"><rect fill="#757179" fill-opacity="0.501961" x="-0.5" y="-0.5" width="1" height="1" /></g>
<g transform="translate(197 48) rotate(98) scale(27 5)"><rect fill="#b9d7aa" fill-opacity="0.501961" x="-0.5" y="-0.5" width="1" height="1" /></g>
<g transform="translate(188 90) rotate(82) scale(1 67)"><rect fill="#fffbeb" fill-opacity="0.501961" x="-0.5" y="-0.5" width="1" height="1" /></g>
<g transform="translate(187 71) rotate(347) scale(61 3)"><rect fill="#455e4b" fill-opacity="0.501961" x="-0.5" y="-0.5" width="1" height="1" /></g>
<g transform="translate(180 41) rotate(16) scale(1 32)"><rect fill="#ffffeb" fill-opacity="0.501961" x="-0.5" y="-0.5" width="1" height="1" /></g>
<g transform="translate(169 134) rotate(44) scale(23 36)"><rect fill="#4b6056" fill-opacity="0.501961" x="-0.5" y="-0.5" width="1" height="1" /></g>
<g transform="translate(117 150) rotate(296) scale(23 6)"><rect fill="#d3ccbe" fill-opacity="0.501961" x="-0.5" y="-0.5" width="1" height="1" /></g>
<g transform="translate(143 114) rotate(217) scale(1 97)"><rect fill="#efe3d8" fill-opacity="0.501961" x="-0.5" y="-0.5" width="1" height="1" /></g>
<g transform="translate(240 140) rotate(122) scale(2 20)"><rect fill="#ffffff" fill-opacity="0.501961" x="-0.5" y="-0.5" width="1" height="1" /></g>
<g transform="translate(250 134) rotate(118) scale(11 26)"><rect fill="#757176" fill-opacity="0.501961" x="-0.5" y="-0.5" width="1" height="1" /></g>
<g transform="translate(236 11) rotate(110) scale(35 5)"><rect fill="#7e8d79" fill-opacity="0.501961" x="-0.5" y="-0.5" width="1" height="1" /></g>
<g transform="translate(128 27) rotate(201) scale(72 41)"><rect fill="#fffff7" fill-opacity="0.501961" x="-0.5" y="-0.5" width="1" height="1" /></g>
<g transform="translate(175 27) rotate(9) scale(12 27)"><rect fill="#6a696f" fill-opacity="0.501961" x="-0.5" y="-0.5" width="1" height="1" /></g>
<g transform="translate(179 103) rotate(69) scale(3 30)"><rect fill="#2e2636" fill-opacity="0.501961" x="-0.5" y="-0.5" width="1" height="1" /></g>
<g transform="translate(181 6) rotate(71) scale(4 37)"><rect fill="#2e2b38" fill-opacity="0.501961" x="-0.5" y="-0.5" width="1" height="1" /></g>
<g transform="translate(147 168) rotate(-22) scale(25 13)"><rect fill="#5b6d5b" fill-opacity="0.501961" x="-0.5" y="-0.5" width="1" height="1" /></g>
<g transform="translate(193 30) rotate(169) scale(19 13)"><rect fill="#373642" fill-opacity="0.501961" x="-0.5" y="-0.5" width="1" height="1" /></g>
<g transform="translate(245 15) rotate(56) scale(6 15)"><rect fill="#282d32" fill-opacity="0.501961" x="-0.5" y="-0.5" width="1" height="1" /></g>
<g transform="translate(64 118) rotate(229) scale(8 18)"><rect fill="#e1e0d8" fill-opacity="0.501961" x="-0.5" y="-0.5" width="1" height="1" /></g>
<g transform="translate(249 21) rotate(323) scale(16 5)"><rect fill="#cfd2c7" fill-opacity="0.501961" x="-0.5" y="-0.5" width="1" height="1" /></g>
<g transform="translate(216 59) rotate(164) scale(23 1)"><rect fill="#d7f0cc" fill-opacity="0.501961" x="-0.5" y="-0.5" width="1" height="1" /></g>
<g transform="translate(112 135) rotate(42) scale(17 26)"><rect fill="#76856e" fill-opacity="0.501961" x="-0.5" y="-0.5" width="1" height="1" /></g>
<g transform="translate(204 50) rotate(5) scale(12 38)"><rect fill="#629464" fill-opacity="0.501961" x="-0.5" y="-0.5" width="1" height="1" /></g>
<g transform="translate(167 51) rotate(343) scale(15 21)"><rect fill="#b7b5b2" fill-opacity="0.501961" x="-0.5" y="-0.5" width="1" height="1" /></g>
<g transform="translate(144 154) rotate(339) scale(10 18)"><rect fill="#fffff4" fill-opacity="0.501961" x="-0.5" y="-0.5" width="1" height="1" /></g>
<g transform="translate(226 118) rotate(255) scale(2 14)"><rect fill="#d4cec5" fill-opacity="0.501961" x="-0.5" y="-0.5" width="1" height="1" /></g>
<g transform="translate(255 38) rotate(109) scale(8 10)"><rect fill="#eee5e0" fill-opacity="0.501961" x="-0.5" y="-0.5" width="1" height="1" /></g>
<g transform="translate(243 29) rotate(298) scale(6 14)"><rect fill="#495850" fill-opacity="0.501961" x="-0.5" y="-0.5" width="1" height="1" /></g>
<g transform="translate(231 148) rotate(39) scale(13 18)"><rect fill="#47524f" fill-opacity="0.501961" x="-0.5" y="-0.5" width="1" height="1" /></g>
<g transform="translate(232 0) rotate(26) scale(6 9)"><rect fill="#ffffff" fill-opacity="0.501961" x="-0.5" y="-0.5" width="1" height="1" /></g>
<g transform="translate(9 154) rotate(265) scale(37 29)"><rect fill="#404448" fill-opacity="0.501961" x="-0.5" y="-0.5" width="1" height="1" /></g>
<g transform="translate(28 152) rotate(0) scale(8 8)"><rect fill="#939793" fill-opacity="0.501961" x="-0.5" y="-0.5" width="1" height="1" /></g>
<g transform="translate(10 104) rotate(4) scale(49 12)"><rect fill="#dbdcd7" fill-opacity="0.501961" x="-0.5" y="-0.5" width="1" height="1" /></g>
<g transform="translate(251 75) rotate(173) scale(58 11)"><rect fill="#617962" fill-opacity="0.501961" x="-0.5" y="-0.5" width="1" height="1" /></g>
<g transform="translate(201 123) rotate(290) scale(32 16)"><rect fill="#688a6b" fill-opacity="0.501961" x="-0.5" y="-0.5" width="1" height="1" /></g>
<g transform="translate(165 98) rotate(244) scale(1 27)"><rect fill="#46494c" fill-opacity="0.501961" x="-0.5" y="-0.5" width="1" height="1" /></g>
<g transform="translate(164 104) rotate(332) scale(66 4)"><rect fill="#c2bcb7" fill-opacity="0.501961" x="-0.5" y="-0.5" width="1" height="1" /></g>
<g transform="translate(222 170) rotate(3) scale(109 16)"><rect fill="#424648" fill-opacity="0.501961" x="-0.5" y="-0.5" width="1" height="1" /></g>
<g transform="translate(146 89) rotate(173) scale(19 4)"><rect fill="#7a7673" fill-opacity="0.501961" x="-0.5" y="-0.5" width="1" height="1" /></g>
<g transform="translate(143 71) rotate(244) scale(7 8)"><rect fill="#3c424f" fill-opacity="0.501961" x="-0.5" y="-0.5" width="1" height="1" /></g>
<g transform="translate(182 84) rotate(170) scale(34 7)"><rect fill="#7d7d7c" fill-opacity="0.501961" x="-0.5" y="-0.5" width="1" height="1" /></g>
<g transform="translate(207 101) rotate(371) scale(27 8)"><rect fill="#403d46" fill-opacity="0.501961" x="-0.5" y="-0.5" width="1" height="1" /></g>
<g transform="translate(255 7) rotate(56) scale(5 3)"><rect fill="#ffffff" fill-opacity="0.501961" x="-0.5" y="-0.5" width="1" height="1" /></g>
<g transform="translate(59 170) rotate(256) scale(48 56)"><rect fill="#484d4e" fill-opacity="0.501961" x="-0.5" y="-0.5" width="1" height="1" /></g>
<g transform="translate(188 45) rotate(14) scale(12 19)"><rect fill="#54715d" fill-opacity="0.501961" x="-0.5" y="-0.5" width="1" height="1" /></g>
<g transform="translate(98 116) rotate(85) scale(36 23)"><rect fill="#abb49e" fill-opacity="0.501961" x="-0.5" y="-0.5" width="1" height="1" /></g>
<g transform="translate(49 133) rotate(-92) scale(9 9)"><rect fill="#c7c7c1" fill-opacity="0.501961" x="-0.5" y="-0.5" width="1" height="1" /></g>
<g transform="translate(105 161) rotate(202) scale(47 22)"><rect fill="#616a63" fill-opacity="0.501961" x="-0.5" y="-0.5" width="1" height="1" /></g>
<g transform="translate(120 92) rotate(202) scale(21 37)"><rect fill="#fffff4" fill-opacity="0.501961" x="-0.5" y="-0.5" width="1" height="1" /></g>
<g transform="translate(140 154) rotate(309) scale(38 1)"><rect fill="#fffffe" fill-opacity="0.501961" x="-0.5" y="-0.5" width="1" height="1" /></g>
<g transform="translate(128 106) rotate(191) scale(10 1)"><rect fill="#303138" fill-opacity="0.501961" x="-0.5" y="-0.5" width="1" height="1" /></g>
<g transform="translate(219 7) rotate(256) scale(38 14)"><rect fill="#435549" fill-opacity="0.501961" x="-0.5" y="-0.5" width="1" height="1" /></g>
<g transform="translate(153 20) rotate(351) scale(25 32)"><rect fill="#fffff5" fill-opacity="0.501961" x="-0.5" y="-0.5" width="1" height="1" /></g>
<g transform="translate(225 43) rotate(153) scale(1 8)"><rect fill="#fffff8" fill-opacity="0.501961" x="-0.5" y="-0.5" width="1" height="1" /></g>
<g transform="translate(160 155) rotate(188) scale(17 40)"><rect fill="#52665b" fill-opacity="0.501961" x="-0.5" y="-0.5" width="1" height="1" /></g>
<g transform="translate(148 68) rotate(267) scale(1 23)"><rect fill="#454a56" fill-opacity="0.501961" x="-0.5" y="-0.5" width="1" height="1" /></g>
<g transform="translate(253 158) rotate(191) scale(21 6)"><rect fill="#fef9eb" fill-opacity="0.501961" x="-0.5" y="-0.5" width="1" height="1" /></g>
<g transform="translate(207 12) rotate(336) scale(1 24)"><rect fill="#9bae91" fill-opacity="0.501961" x="-0.5" y="-0.5" width="1" height="1" /></g>
<g transform="translate(216 42) rotate(174) scale(13 30)"><rect fill="#4c7151" fill-opacity="0.501961" x="-0.5" y="-0.5" width="1" height="1" /></g>
<g transform="translate(83 92) rotate(182) scale(48 13)"><rect fill="#e4e8d5" fill-opacity="0.501961" x="-0.5" y="-0.5" width="1" height="1" /></g>
<g transform="translate(81 125) rotate(334) scale(36 10)"><rect fill="#849080" fill-opacity="0.501961" x="-0.5" y="-0.5" width="1" height="1" /></g>
<g transform="translate(27 129) rotate(298) scale(12 46)"><rect fill="#838887" fill-opacity="0.501961" x="-0.5" y="-0.5" width="1" height="1" /></g>
<g transform="translate(255 27) rotate(148) scale(1 95)"><rect fill="#4a524f" fill-opacity="0.501961" x="-0.5" y="-0.5" width="1" height="1" /></g>
<g transform="translate(116 118) rotate(47) scale(24 8)"><rect fill="#a3b091" fill-opacity="0.501961" x="-0.5" y="-0.5" width="1" height="1" /></g>
<g transform="translate(195 54) rotate(252) scale(2 7)"><rect fill="#ffffff" fill-opacity="0.501961" x="-0.5" y="-0.5" width="1" height="1" /></g>
<g transform="translate(251 84) rotate(299) scale(6 4)"><rect fill="#251e2c" fill-opacity="0.501961" x="-0.5" y="-0.5" width="1" height="1" /></g>
<g transform="translate(43 41) rotate(163) scale(141 80)"><rect fill="#fefff9" fill-opacity="0.501961" x="-0.5" y="-0.5" width="1" height="1" /></g>
<g transform="translate(159 121) rotate(312) scale(18 7)"><rect fill="#7fa777" fill-opacity="0.501961" x="-0.5" y="-0.5" width="1" height="1" /></g>
<g transform="translate(155 96) rotate(350) scale(13 4)"><rect fill="#ebe4d9" fill-opacity="0.501961" x="-0.5" y="-0.5" width="1" height="1" /></g>
<g transform="translate(246 24) rotate(280) scale(5 9)"><rect fill="#eaecdf" fill-opacity="0.501961" x="-0.5" y="-0.5" width="1" height="1" /></g>
<g transform="translate(167 67) rotate(80) scale(3 21)"><rect fill="#6a6b71" fill-opacity="0.501961" x="-0.5" y="-0.5" width="1" height="1" /></g>
<g transform="translate(242 139) rotate(206) scale(14 3)"><rect fill="#fffff8" fill-opacity="0.501961" x="-0.5" y="-0.5" width="1" height="1" /></g>
<g transform="translate(183 11) rotate(162) scale(30 1)"><rect fill="#b3a3aa" fill-opacity="0.501961" x="-0.5" y="-0.5" width="1" height="1" /></g>
<g transform="translate(181 58) rotate(260) scale(1 42)"><rect fill="#cdc6bb" fill-opacity="0.501961" x="-0.5" y="-0.5" width="1" height="1" /></g>
<g transform="translate(203 75) rotate(350) scale(69 1)"><rect fill="#d1c2b9" fill-opacity="0.501961" x="-0.5" y="-0.5" width="1" height="1" /></g>
<g transform="translate(176 21) rotate(260) scale(4 16)"><rect fill="#c8c3bc" fill-opacity="0.501961" x="-0.5" y="-0.5" width="1" height="1" /></g>
<g transform="translate(166 48) rotate(52) scale(5 17)"><rect fill="#88868a" fill-opacity="0.501961" x="-0.5" y="-0.5" width="1" height="1" /></g>
<g transform="translate(235 32) rotate(55) scale(4 25)"><rect fill="#547356" fill-opacity="0.501961" x="-0.5" y="-0.5" width="1" height="1" /></g>
<g transform="translate(143 148) rotate(304) scale(21 7)"><rect fill="#fffffe" fill-opacity="0.501961" x="-0.5" y="-0.5" width="1" height="1" /></g>
<g transform="translate(235 38) rotate(224) scale(14 1)"><rect fill="#c7cab9" fill-opacity="0.501961" x="-0.5" y="-0.5" width="1" height="1" /></g>
<g transform="translate(215 137) rotate(104) scale(35 31)"><rect fill="#56635d" fill-opacity="0.501961" x="-0.5" y="-0.5" width="1" height="1" /></g>
<g transform="translate(62 106) rotate(272) scale(9 60)"><rect fill="#bfc5ba" fill-opacity="0.501961" x="-0.5" y="-0.5" width="1" height="1" /></g>
<g transform="translate(137 145) rotate(303) scale(65 3)"><rect fill="#4f5056" fill-opacity="0.501961" x="-0.5" y="-0.5" width="1" height="1" /></g>
<g transform="translate(218 65) rotate(356) scale(45 9)"><rect fill="#5a7b5d" fill-opacity="0.501961" x="-0.5" y="-0.5" width="1" height="1" /></g>
<g transform="translate(152 117) rotate(326) scale(31 1)"><rect fill="#444249" fill-opacity="0.501961" x="-0.5" y="-0.5" width="1" height="1" /></g>
<g transform="translate(169 148) rotate(158) scale(13 3)"><rect fill="#87b783" fill-opacity="0.501961" x="-0.5" y="-0.5" width="1" height="1" /></g>
<g transform="translate(242 56) rotate(265) scale(5 12)"><rect fill="#a39ca2" fill-opacity="0.501961" x="-0.5" y="-0.5" width="1" height="1" /></g>
<g transform="translate(236 10) rotate(328) scale(6 1)"><rect fill="#fff6f5" fill-opacity="0.501961" x="-0.5" y="-0.5" width="1" height="1" /></g>
<g transform="translate(248 136) rotate(205) scale(30 1)"><rect fill="#c2c1bc" fill-opacity="0.501961" x="-0.5" y="-0.5" width="1" height="1" /></g>
<g transform="translate(180 0) rotate(258) scale(7 16)"><rect fill="#afa3a3" fill-opacity="0.501961" x="-0.5" y="-0.5" width="1" height="1" /></g>
<g transform="translate(246 10) rotate(111) scale(3 24)"><rect fill="#424d49" fill-opacity="0.501961" x="-0.5" y="-0.5" width="1" height="1" /></g>
<g transform="translate(251 0) rotate(329) scale(32 1)"><rect fill="#e7e2da" fill-opacity="0.501961" x="-0.5" y="-0.5" width="1" height="1" /></g>
<g transform="translate(140 168) rotate(9) scale(7 13)"><rect fill="#737968" fill-opacity="0.501961" x="-0.5" y="-0.5" width="1" height="1" /></g>
<g transform="translate(194 23) rotate(84) scale(6 21)"><rect fill="#393641" fill-opacity="0.501961" x="-0.5" y="-0.5" width="1" height="1" /></g>
<g transform="translate(165 50) rotate(131) scale(1 28)"><rect fill="#e9e5dd" fill-opacity="0.501961" x="-0.5" y="-0.5" width="1" height="1" /></g>
<g transform="translate(241 129) rotate(110) scale(1 21)"><rect fill="#b3acad" fill-opacity="0.501961" x="-0.5" y="-0.5" width="1" height="1" /></g>
<g transform="translate(185 65) rotate(81) scale(3 14)"><rect fill="#f0f2f2" fill-opacity="0.501961" x="-0.5" y="-0.5" width="1" height="1" /></g>
<g transform="translate(197 45) rotate(345) scale(6 1)"><rect fill="#fffffa" fill-opacity="0.501961" x="-0.5" y="-0.5" width="1" height="1" /></g>
<g transform="translate(142 97) rotate(173) scale(20 9)"><rect fill="#c9c3bb" fill-opacity="0.501961" x="-0.5" y="-0.5" width="1" height="1" /></g>
<g transform="translate(120 147) rotate(224) scale(6 20)"><rect fill="#b5adaa" fill-opacity="0.501961" x="-0.5" y="-0.5" width="1" height="1" /></g>
<g transform="translate(180 62) rotate(75) scale(4 28)"><rect fill="#4e4c55" fill-opacity="0.501961" x="-0.5" y="-0.5" width="1" height="1" /></g>
<g transform="translate(236 83) rotate(172) scale(47 1)"><rect fill="#d5ccbf" fill-opacity="0.501961" x="-0.5" y="-0.5" width="1" height="1" /></g>
<g transform="translate(255 27) rotate(240) scale(4 10)"><rect fill="#46504c" fill-opacity="0.501961" x="-0.5" y="-0.5" width="1" height="1" /></g>
<g transform="translate(253 65) rotate(223) scale(2 60)"><rect fill="#73946c" fill-opacity="0.501961" x="-0.5" y="-0.5" width="1" height="1" /></g>
<g transform="translate(136 115) rotate(36) scale(5 32)"><rect fill="#7e7c82" fill-opacity="0.501961" x="-0.5" y="-0.5" width="1" height="1" /></g>
<g transform="translate(140 75) rotate(271) scale(3 12)"><rect fill="#e7e0d2" fill-opacity="0.501961" x="-0.5" y="-0.5" width="1" height="1" /></g>
<g transform="translate(47 141) rotate(219) scale(41 1)"><rect fill="#515554" fill-opacity="0.501961" x="-0.5" y="-0.5" width="1" height="1" /></g>
<g transform="translate(255 0) rotate(39) scale(1 54)"><rect fill="#3a3d41" fill-opacity="0.501961" x="-0.5" y="-0.5" width="1" height="1" /></g>
<g transform="translate(141 53) rotate(90) scale(23 20)"><rect fill="#fffff6" fill-opacity="0.501961" x="-0.5" y="-0.5" width="1" height="1" /></g>
<g transform="translate(125 123) rotate(286) scale(8 3)"><rect fill="#ebe3dc" fill-opacity="0.501961" x="-0.5" y="-0.5" width="1" height="1" /></g>
<g transform="translate(240 37) rotate(210) scale(4 9)"><rect fill="#b5b9b0" fill-opacity="0.501961" x="-0.5" y="-0.5" width="1" height="1" /></g>
<g transform="translate(134 138) rotate(40) scale(9 26)"><rect fill="#6b6c74" fill-opacity="0.501961" x="-0.5" y="-0.5" width="1" height="1" /></g>
<g transform="translate(165 62) rotate(300) scale(29 1)"><rect fill="#6c6c70" fill-opacity="0.501961" x="-0.5" y="-0.5" width="1" height="1" /></g>
<g transform="translate(64 120) rotate(187) scale(4 5)"><rect fill="#6f7d72" fill-opacity="0.501961" x="-0.5" y="-0.5" width="1" height="1" /></g>
<g transform="translate(128 102) rotate(131) scale(29 1)"><rect fill="#aaa29e" fill-opacity="0.501961" x="-0.5" y="-0.5" width="1" height="1" /></g>
<g transform="translate(233 94) rotate(184) scale(22 1)"><rect fill="#3b3941" fill-opacity="0.501961" x="-0.5" y="-0.5" width="1" height="1" /></g>
<g transform="translate(158 0) rotate(308) scale(29 23)"><rect fill="#fffff9" fill-opacity="0.501961" x="-0.5" y="-0.5" width="1" height="1" /></g>
<g transform="translate(248 21) rotate(245) scale(1 5)"><rect fill="#354433" fill-opacity="0.501961" x="-0.5" y="-0.5" width="1" height="1" /></g>
<g transform="translate(250 46) rotate(-21) scale(48 4)"><rect fill="#445b4d" fill-opacity="0.501961" x="-0.5" y="-0.5" width="1" height="1" /></g>
<g transform="translate(203 40) rotate(2) scale(29 6)"><rect fill="#6e9868" fill-opacity="0.501961" x="-0.5" y="-0.5" width="1" height="1" /></g>
<g transform="translate(50 137) rotate(53) scale(20 1)"><rect fill="#b5b5ae" fill-opacity="0.501961" x="-0.5" y="-0.5" width="1" height="1" /></g>
<g transform="translate(213 92) rotate(82) scale(1 69)"><rect fill="#b7b0aa" fill-opacity="0.501961" x="-0.5" y="-0.5" width="1" height="1" /></g>
<g transform="translate(255 125) rotate(58) scale(45 12)"><rect fill="#44454a" fill-opacity="0.501961" x="-0.5" y="-0.5" width="1" height="1" /></g>
<g transform="translate(174 110) rotate(71) scale(1 44)"><rect fill="#9fc18a" fill-opacity="0.501961" x="-0.5" y="-0.5" width="1" height="1" /></g>
<g transform="translate(171 67) rotate(240) scale(2 9)"><rect fill="#bebbb7" fill-opacity="0.501961" x="-0.5" y="-0.5" width="1" height="1" /></g>
<g transform="translate(224 38) rotate(216) scale(17 3)"><rect fill="#3f4747" fill-opacity="0.501961" x="-0.5" y="-0.5" width="1" height="1" /></g>
<g transform="translate(236 85) rotate(347) scale(19 1)"><rect fill="#524c55" fill-opacity="0.501961" x="-0.5" y="-0.5" width="1" height="1" /></g>
<g transform="translate(196 147) rotate(108) scale(8 1)"><rect fill="#bcb4bb" fill-opacity="0.501961" x="-0.5" y="-0.5" width="1" height="1" /></g>
<g transform="translate(165 120) rotate(90) scale(3 15)"><rect fill="#333a42" fill-opacity="0.501961" x="-0.5" y="-0.5" width="1" height="1" /></g>
<g transform="translate(222 80) rotate(204) scale(1 4)"><rect fill="#ffede4" fill-opacity="0.501961" x="-0.5" y="-0.5" width="1" height="1" /></g>
<g transform="translate(50 154) rotate(281) scale(7 5)"><rect fill="#9d9f9c" fill-opacity="0.501961" x="-0.5" y="-0.5" width="1" height="1" /></g>
<g transform="translate(156 91) rotate(-9) scale(29 4)"><rect fill="#928f8b" fill-opacity="0.501961" x="-0.5" y="-0.5" width="1" height="1" /></g>
<g transform="translate(174 93) rotate(211) scale(1 4)"><rect fill="#fffffa" fill-opacity="0.501961" x="-0.5" y="-0.5" width="1" height="1" /></g>
<g transform="translate(233 21) rotate(80) scale(6 5)"><rect fill="#b6b4b1" fill-opacity="0.501961" x="-0.5" y="-0.5" width="1" height="1" /></g>
<g transform="translate(183 22) rotate(181) scale(2 13)"><rect fill="#f0e6d8" fill-opacity="0.501961" x="-0.5" y="-0.5" width="1" height="1" /></g>
<g transform="translate(34 170) rotate(181) scale(72 15)"><rect fill="#3e3f45" fill-opacity="0.501961" x="-0.5" y="-0.5" width="1" height="1" /></g>
<g transform="translate(187 85) rotate(184) scale(1 10)"><rect fill="#fffff4" fill-opacity="0.501961" x="-0.5" y="-0.5" width="1" height="1" /></g>
<g transform="translate(234 7) rotate(53) scale(1 21)"><rect fill="#3d4742" fill-opacity="0.501961" x="-0.5" y="-0.5" width="1" height="1" /></g>
<g transform="translate(141 150) rotate(301) scale(48 1)"><rect fill="#fffef0" fill-opacity="0.501961" x="-0.5" y="-0.5" width="1" height="1" /></g>
<g transform="translate(231 81) rotate(72) scale(15 1)"><rect fill="#dccdc8" fill-opacity="0.501961" x="-0.5" y="-0.5" width="1" height="1" /></g>
<g transform="translate(174 114) rotate(250) scale(6 13)"><rect fill="#68956c" fill-opacity="0.501961" x="-0.5" y="-0.5" width="1" height="1" /></g>
<g transform="translate(253 58) rotate(75) scale(2 64)"><rect fill="#434e48" fill-opacity="0.501961" x="-0.5" y="-0.5" width="1" height="1" /></g>
<g transform="translate(226 126) rotate(109) scale(1 86)"><rect fill="#5c7260" fill-opacity="0.501961" x="-0.5" y="-0.5" width="1" height="1" /></g>
<g transform="translate(207 51) rotate(435) scale(3 4)"><rect fill="#ebfbd5" fill-opacity="0.501961" x="-0.5" y="-0.5" width="1" height="1" /></g>
<g transform="translate(170 74) rotate(258) scale(2 47)"><rect fill="#504854" fill-opacity="0.501961" x="-0.5" y="-0.5" width="1" height="1" /></g>
<g transform="translate(152 71) rotate(158) scale(6 2)"><rect fill="#fffdf5" fill-opacity="0.501961" x="-0.5" y="-0.5" width="1" height="1" /></g>
<g transform="translate(161 60) rotate(247) scale(1 16)"><rect fill="#6c6c6e" fill-opacity="0.501961" x="-0.5" y="-0.5" width="1" height="1" /></g>
<g transform="translate(254 40) rotate(96) scale(4 14)"><rect fill="#cac7c6" fill-opacity="0.501961" x="-0.5" y="-0.5" width="1" height="1" /></g>
<g transform="translate(8 139) rotate(279) scale(12 44)"><rect fill="#5e6464" fill-opacity="0.501961" x="-0.5" y="-0.5" width="1" height="1" /></g>
<g transform="translate(237 125) rotate(273) scale(1 24)"><rect fill="#424249" fill-opacity="0.501961" x="-0.5" y="-0.5" width="1" height="1" /></g>
<g transform="translate(211 122) rotate(174) scale(11 2)"><rect fill="#9ac689" fill-opacity="0.501961" x="-0.5" y="-0.5" width="1" height="1" /></g>
<g transform="translate(201 112) rotate(109) scale(1 41)"><rect fill="#98bc88" fill-opacity="0.501961" x="-0.5" y="-0.5" width="1" height="1" /></g>
<g transform="translate(255 17) rotate(0) scale(7 2)"><rect fill="#fffdf8" fill-opacity="0.501961" x="-0.5" y="-0.5" width="1" height="1" /></g>
<g transform="translate(176 39) rotate(276) scale(31 1)"><rect fill="#60626a" fill-opacity="0.501961" x="-0.5" y="-0.5" width="1" height="1" /></g>
<g transform="translate(239 119) rotate(171) scale(23 1)"><rect fill="#433f48" fill-opacity="0.501961" x="-0.5" y="-0.5" width="1" height="1" /></g>
<g transform="translate(181 43) rotate(243) scale(2 9)"><rect fill="#b5e28b" fill-opacity="0.501961" x="-0.5" y="-0.5" width="1" height="1" /></g>
<g transform="translate(216 129) rotate(15) scale(63 1)"><rect fill="#4b5153" fill-opacity="0.501961" x="-0.5" y="-0.5" width="1" height="1" /></g>
<g transform="translate(239 90) rotate(9) scale(29 1)"><rect fill="#7c7a79" fill-opacity="0.501961" x="-0.5" y="-0.5" width="1" height="1" /></g>
<g transform="translate(159 143) rotate(117) scale(30 10)"><rect fill="#4c5b55" fill-opacity="0.501961" x="-0.5" y="-0.5" width="1" height="1" /></g>
<g transform="translate(246 0) rotate(132) scale(1 2)"><rect fill="#0e1b09" fill-opacity="0.501961" x="-0.5" y="-0.5" width="1" height="1" /></g>
<g transform="translate(171 95) rotate(211) scale(5 2)"><rect fill="#2e3439" fill-opacity="0.501961" x="-0.5" y="-0.5" width="1" height="1" /></g>
<g transform="translate(112 164) rotate(-12) scale(5 72)"><rect fill="#72816c" fill-opacity="0.501961" x="-0.5" y="-0.5" width="1" height="1" /></g>
<g transform="translate(130 111) rotate(136) scale(1 19)"><rect fill="#d5cec8" fill-opacity="0.501961" x="-0.5" y="-0.5" width="1" height="1" /></g>
<g transform="translate(236 39) rotate(186) scale(24 1)"><rect fill="#4a624d" fill-opacity="0.501961" x="-0.5" y="-0.5" width="1" height="1" /></g>
<g transform="translate(42 120) rotate(123) scale(10 3)"><rect fill="#d2d5cb" fill-opacity="0.501961" x="-0.5" y="-0.5" width="1" height="1" /></g>
<g transform="translate(217 112) rotate(277) scale(7 11)"><rect fill="#404046" fill-opacity="0.501961" x="-0.5" y="-0.5" width="1" height="1" /></g>
<g transform="translate(157 56) rotate(52) scale(4 6)"><rect fill="#e5e0d3" fill-opacity="0.501961" x="-0.5" y="-0.5" width="1" height="1" /></g>
<g transform="translate(119 142) rotate(66) scale(3 4)"><rect fill="#fffff4" fill-opacity="0.501961" x="-0.5" y="-0.5" width="1" height="1" /></g>
<g transform="translate(131 56) rotate(53) scale(20 71)"><rect fill="#fffef4" fill-opacity="0.501961" x="-0.5" y="-0.5" width="1" height="1" /></g>
<g transform="translate(161 97) rotate(320) scale(1 17)"><rect fill="#f8efe2" fill-opacity="0.501961" x="-0.5" y="-0.5" width="1" height="1" /></g>
<g transform="translate(172 36) rotate(191) scale(1 37)"><rect fill="#acaaa7" fill-opacity="0.501961" x="-0.5" y="-0.5" width="1" height="1" /></g>
<g transform="translate(195 84) rotate(316) scale(13 1)"><rect fill="#d3ccc4" fill-opacity="0.501961" x="-0.5" y="-0.5" width="1" height="1" /></g>
<g transform="translate(153 99) rotate(309) scale(1 19)"><rect fill="#e0dcd2" fill-opacity="0.501961" x="-0.5" y="-0.5" width="1" height="1" /></g>
<g transform="translate(192 5) rotate(253) scale(1 48)"><rect fill="#454a4e" fill-opacity="0.501961" x="-0.5" y="-0.5" width="1" height="1" /></g>
<g transform="translate(226 117) rotate(81) scale(2 23)"><rect fill="#b2aead" fill-opacity="0.501961" x="-0.5" y="-0.5" width="1" height="1" /></g>
<g transform="translate(224 42) rotate(151) scale(1 9)"><rect fill="#ebe0d3" fill-opacity="0.501961" x="-0.5" y="-0.5" width="1" height="1" /></g>
<g transform="translate(204 82) rotate(-4) scale(4 3)"><rect fill="#e6e1d5" fill-opacity="0.501961" x="-0.5" y="-0.5" width="1" height="1" /></g>
<g transform="translate(196 63) rotate(111) scale(19 1)"><rect fill="#9bc382" fill-opacity="0.501961" x="-0.5" y="-0.5" width="1" height="1" /></g>
<g transform="translate(75 130) rotate(345) scale(1 31)"><rect fill="#5d5e5f" fill-opacity="0.501961" x="-0.5" y="-0.5" width="1" height="1" /></g>
<g transform="translate(69 119) rotate(203) scale(1 10)"><rect fill="#f7f6e6" fill-opacity="0.501961" x="-0.5" y="-0.5" width="1" height="1" /></g>
<g transform="translate(60 130) rotate(212) scale(32 8)"><rect fill="#808a81" fill-opacity="0.501961" x="-0.5" y="-0.5" width="1" height="1" /></g>
<g transform="translate(255 33) rotate(16) scale(10 1)"><rect fill="#fffff2" fill-opacity="0.501961" x="-0.5" y="-0.5" width="1" height="1" /></g>
<g transform="translate(134 140) rotate(126) scale(58 1)"><rect fill="#41434a" fill-opacity="0.501961" x="-0.5" y="-0.5" width="1" height="1" /></g>
<g transform="translate(166 42) rotate(24) scale(1 24)"><rect fill="#7f7e82" fill-opacity="0.501961" x="-0.5" y="-0.5" width="1" height="1" /></g>
<g transform="translate(237 122) rotate(1) scale(17 2)"><rect fill="#a79ba1" fill-opacity="0.501961" x="-0.5" y="-0.5" width="1" height="1" /></g>
<g transform="translate(166 14) rotate(331) scale(1 9)"><rect fill="#424253" fill-opacity="0.501961" x="-0.5" y="-0.5" width="1" height="1" /></g>
<g transform="translate(233 69) rotate(77) scale(7 10)"><rect fill="#98868f" fill-opacity="0.501961" x="-0.5" y="-0.5" width="1" height="1" /></g>
<g transform="translate(198 132) rotate(281) scale(4 23)"><rect fill="#709072" fill-opacity="0.501961" x="-0.5" y="-0.5" width="1" height="1" /></g>
<g transform="translate(212 22) rotate(180) scale(1 5)"><rect fill="#e5e7d0" fill-opacity="0.501961" x="-0.5" y="-0.5" width="1" height="1" /></g>
<g transform="translate(242 36) rotate(326) scale(1 3)"><rect fill="#ffffff" fill-opacity="0.501961" x="-0.5" y="-0.5" width="1" height="1" /></g>
<g transform="translate(179 87) rotate(278) scale(7 1)"><rect fill="#fffffa" fill-opacity="0.501961" x="-0.5" y="-0.5" width="1" height="1" /></g>
<g transform="translate(142 116) rotate(217) scale(1 75)"><rect fill="#e7dfd0" fill-opacity="0.501961" x="-0.5" y="-0.5" width="1" height="1" /></g>
<g transform="translate(120 91) rotate(130) scale(28 21)"><rect fill="#fffff8" fill-opacity="0.501961" x="-0.5" y="-0.5" width="1" height="1" /></g>
<g transform="translate(186 51) rotate(276) scale(8 13)"><rect fill="#605b73" fill-opacity="0.501961" x="-0.5" y="-0.5" width="1" height="1" /></g>
<g transform="translate(208 100) rotate(174) scale(17 12)"><rect fill="#4f5254" fill-opacity="0.501961" x="-0.5" y="-0.5" width="1" height="1" /></g>
<g transform="translate(247 145) rotate(216) scale(33 4)"><rect fill="#fdfae6" fill-opacity="0.501961" x="-0.5" y="-0.5" width="1" height="1" /></g>
<g transform="translate(58 122) rotate(40) scale(8 5)"><rect fill="#e1ded9" fill-opacity="0.501961" x="-0.5" y="-0.5" width="1" height="1" /></g>
<g transform="translate(118 128) rotate(343) scale(5 25)"><rect fill="#80897b" fill-opacity="0.501961" x="-0.5" y="-0.5" width="1" height="1" /></g>
<g transform="translate(212 79) rotate(361) scale(1 6)"><rect fill="#fffcea" fill-opacity="0.501961" x="-0.5" y="-0.5" width="1" height="1" /></g>
<g transform="translate(255 77) rotate(91) scale(4 36)"><rect fill="#4b6754" fill-opacity="0.501961" x="-0.5" y="-0.5" width="1" height="1" /></g>
<g transform="translate(183 85) rotate(321) scale(3 1)"><rect fill="#000911" fill-opacity="0.501961" x="-0.5" y="-0.5" width="1" height="1" /></g>
<g transform="translate(178 15) rotate(344) scale(11 4)"><rect fill="#555759" fill-opacity="0.501961" x="-0.5" y="-0.5" width="1" height="1" /></g>
<g transform="translate(200 60) rotate(31) scale(3 17)"><rect fill="#486c51" fill-opacity="0.501961" x="-0.5" y="-0.5" width="1" height="1" /></g>
<g transform="translate(200 150) rotate(250) scale(15 1)"><rect fill="#8b858c" fill-opacity="0.501961" x="-0.5" y="-0.5" width="1" height="1" /></g>
<g transform="translate(215 140) rotate(330) scale(2 5)"><rect fill="#9a9d9b" fill-opacity="0.501961" x="-0.5" y="-0.5" width="1" height="1" /></g>
<g transform="translate(230 2) rotate(170) scale(1 10)"><rect fill="#fffff6" fill-opacity="0.501961" x="-0.5" y="-0.5" width="1" height="1" /></g>
<g transform="translate(229 150) rotate(60) scale(7 24)"><rect fill="#4d5453" fill-opacity="0.501961" x="-0.5" y="-0.5" width="1" height="1" /></g>
<g transform="translate(255 51) rotate(-26) scale(5 2)"><rect fill="#cccdcd" fill-opacity="0.501961" x="-0.5" y="-0.5" width="1" height="1" /></g>
<g transform="translate(207 56) rotate(83) scale(20 4)"><rect fill="#88a67f" fill-opacity="0.501961" x="-0.5" y="-0.5" width="1" height="1" /></g>
<g transform="translate(114 112) rotate(220) scale(31 4)"><rect fill="#c2c7ae" fill-opacity="0.501961" x="-0.5" y="-0.5" width="1" height="1" /></g>
<g transform="translate(219 60) rotate(353) scale(26 1)"><rect fill="#86ac7d" fill-opacity="0.501961" x="-0.5" y="-0.5" width="1" height="1" /></g>
<g transform="translate(158 79) rotate(350) scale(46 2)"><rect fill="#b5a1a1" fill-opacity="0.501961" x="-0.5" y="-0.5" width="1" height="1" /></g>
<g transform="translate(173 51) rotate(285) scale(9 1)"><rect fill="#e8e7e2" fill-opacity="0.501961" x="-0.5" y="-0.5" width="1" height="1" /></g>
<g transform="translate(239 84) rotate(289) scale(2 1)"><rect fill="#ffffff" fill-opacity="0.501961" x="-0.5" y="-0.5" width="1" height="1" /></g>
<g transform="translate(29 101) rotate(178) scale(26 16)"><rect fill="#d1d5cb" fill-opacity="0.501961" x="-0.5" y="-0.5" width="1" height="1" /></g>
<g transform="translate(176 87) rotate(279) scale(2 5)"><rect fill="#3b4045" fill-opacity="0.501961" x="-0.5" y="-0.5" width="1" height="1" /></g>
<g transform="translate(215 84) rotate(172) scale(47 1)"><rect fill="#878684" fill-opacity="0.501961" x="-0.5" y="-0.5" width="1" height="1" /></g>
<g transform="translate(196 89) rotate(166) scale(24 1)"><rect fill="#ede9db" fill-opacity="0.501961" x="-0.5" y="-0.5" width="1" height="1" /></g>
<g transform="translate(98 166) rotate(81) scale(50 3)"><rect fill="#49554f" fill-opacity="0.501961" x="-0.5" y="-0.5" width="1" height="1" /></g>
<g transform="translate(135 132) rotate(126) scale(19 1)"><rect fill="#abaaad" fill-opacity="0.501961" x="-0.5" y="-0.5" width="1" height="1" /></g>
<g transform="translate(27 151) rotate(59) scale(9 1)"><rect fill="#aaaba7" fill-opacity="0.501961" x="-0.5" y="-0.5" width="1" height="1" /></g>
<g transform="translate(245 3) rotate(163) scale(5 2)"><rect fill="#ffffff" fill-opacity="0.501961" x="-0.5" y="-0.5" width="1" height="1" /></g>
<g transform="translate(187 101) rotate(341) scale(23 5)"><rect fill="#49494f" fill-opacity="0.501961" x="-0.5" y="-0.5" width="1" height="1" /></g>
<g transform="translate(198 169) rotate(242) scale(82 9)"><rect fill="#47474f" fill-opacity="0.501961" x="-0.5" y="-0.5" width="1" height="1" /></g>
<g transform="translate(178 61) rotate(113) scale(19 1)"><rect fill="#6c6c75" fill-opacity="0.501961" x="-0.5" y="-0.5" width="1" height="1" /></g>
<g transform="translate(251 35) rotate(39) scale(42 1)"><rect fill="#687067" fill-opacity="0.501961" x="-0.5" y="-0.5" width="1" height="1" /></g>
<g transform="translate(247 47) rotate(66) scale(17 4)"><rect fill="#3e4447" fill-opacity="0.501961" x="-0.5" y="-0.5" width="1" height="1" /></g>
<g transform="translate(160 47) rotate(204) scale(1 37)"><rect fill="#bdb7b1" fill-opacity="0.501961" x="-0.5" y="-0.5" width="1" height="1" /></g>
<g transform="translate(249 164) rotate(128) scale(8 5)"><rect fill="#73766d" fill-opacity="0.501961" x="-0.5" y="-0.5" width="1" height="1" /></g>
<g transform="translate(140 159) rotate(244) scale(3 21)"><rect fill="#fdfcf0" fill-opacity="0.501961" x="-0.5" y="-0.5" width="1" height="1" /></g>
<g transform="translate(128 170) rotate(70) scale(1 68)"><rect fill="#7e9275" fill-opacity="0.501961" x="-0.5" y="-0.5" width="1" height="1" /></g>
<g transform="translate(184 147) rotate(185) scale(6 73)"><rect fill="#54645d" fill-opacity="0.501961" x="-0.5" y="-0.5" width="1" height="1" /></g>
<g transform="translate(234 43) rotate(270) scale(2 9)"><rect fill="#b4bfab" fill-opacity="0.501961" x="-0.5" y="-0.5" width="1" height="1" /></g>
<g transform="translate(154 134) rotate(368) scale(1 29)"><rect fill="#7e9a77" fill-opacity="0.501961" x="-0.5" y="-0.5" width="1" height="1" /></g>
<g transform="translate(243 23) rotate(186) scale(5 2)"><rect fill="#ffffff" fill-opacity="0.501961" x="-0.5" y="-0.5" width="1" height="1" /></g>
<g transform="translate(240 12) rotate(268) scale(1 2)"><rect fill="#ffffff" fill-opacity="0.501961" x="-0.5" y="-0.5" width="1" height="1" /></g>
<g transform="translate(105 122) rotate(4) scale(5 3)"><rect fill="#f6f5ef" fill-opacity="0.501961" x="-0.5" y="-0.5" width="1" height="1" /></g>
<g transform="translate(4 123) rotate(64) scale(11 41)"><rect fill="#8f9794" fill-opacity="0.501961" x="-0.5" y="-0.5" width="1" height="1" /></g>
<g transform="translate(198 26) rotate(157) scale(22 12)"><rect fill="#45464c" fill-opacity="0.501961" x="-0.5" y="-0.5" width="1" height="1" /></g>
<g transform="translate(179 34) rotate(13) scale(1 19)"><rect fill="#4b4f57" fill-opacity="0.501961" x="-0.5" y="-0.5" width="1" height="1" /></g>
<g transform="translate(151 21) rotate(164) scale(29 17)"><rect fill="#fefcf3" fill-opacity="0.501961" x="-0.5" y="-0.5" width="1" height="1" /></g>
<g transform="translate(34 138) rotate(260) scale(1 8)"><rect fill="#c1bebc" fill-opacity="0.501961" x="-0.5" y="-0.5" width="1" height="1" /></g>
<g transform="translate(218 58) rotate(345) scale(18 1)"><rect fill="#c8cac4" fill-opacity="0.501961" x="-0.5" y="-0.5" width="1" height="1" /></g>
<g transform="translate(171 116) rotate(160) scale(15 1)"><rect fill="#94b886" fill-opacity="0.501961" x="-0.5" y="-0.5" width="1" height="1" /></g>
<g transform="translate(255 22) rotate(37) scale(1 32)"><rect fill="#5a645f" fill-opacity="0.501961" x="-0.5" y="-0.5" width="1" height="1" /></g>
<g transform="translate(242 85) rotate(276) scale(3 5)"><rect fill="#2d2932" fill-opacity="0.501961" x="-0.5" y="-0.5" width="1" height="1" /></g>
<g transform="translate(216 119) rotate(102) scale(1 28)"><rect fill="#709c6c" fill-opacity="0.501961" x="-0.5" y="-0.5" width="1" height="1" /></g>
<g transform="translate(177 93) rotate(149) scale(3 1)"><rect fill="#252d33" fill-opacity="0.501961" x="-0.5" y="-0.5" width="1" height="1" /></g>
<g transform="translate(204 122) rotate(236) scale(22 1)"><rect fill="#3f4d4c" fill-opacity="0.501961" x="-0.5" y="-0.5" width="1" height="1" /></g>
<g transform="translate(193 94) rotate(257) scale(3 43)"><rect fill="#b9b4ae" fill-opacity="0.501961" x="-0.5" y="-0.5" width="1" height="1" /></g>
<g transform="translate(188 88) rotate(350) scale(27 1)"><rect fill="#8c8a89" fill-opacity="0.501961" x="-0.5" y="-0.5" width="1" height="1" /></g>
<g transform="translate(138 79) rotate(-17) scale(4 1)"><rect fill="#373a44" fill-opacity="0.501961" x="-0.5" y="-0.5" width="1" height="1" /></g>
<g transform="translate(101 139) rotate(202) scale(32 4)"><rect fill="#848d7e" fill-opacity="0.501961" x="-0.5" y="-0.5" width="1" height="1" /></g>
<g transform="translate(183 94) rotate(289) scale(8 1)"><rect fill="#82817e" fill-opacity="0.501961" x="-0.5" y="-0.5" width="1" height="1" /></g>
<g transform="translate(173 51) rotate(347) scale(6 1)"><rect fill="#5a5e68" fill-opacity="0.501961" x="-0.5" y="-0.5" width="1" height="1" /></g>
</g>
</svg>