<svg height="684" width="1024" xmlns="http://www.w3.org/2000/svg"><path d="m0 0h1024v684h-1024z" fill="#a6aba4"/><g fill-opacity=".501961"><path d="m-.5-.5h1v1h-1z" fill="#fff" transform="matrix(66.24639604 -471.36760072 673.38228676 94.63770864 302 190)"/><path d="m-.5-.5h1v1h-1z" fill="#414c43" transform="matrix(599.54095732 -825.19733428 401.2724292 291.54148512 778 454)"/><path d="m-.5-.5h1v1h-1z" fill="#181e21" transform="matrix(391.46277764 20.51569484 -16.95684984 323.55596928 170 670)"/><path d="m-.5-.5h1v1h-1z" fill="#fff" transform="matrix(-735.88790364 12.84497112 -7.33001072 -419.93603196 294 210)"/><path d="m-.5-.5h1v1h-1z" fill="#2a3a38" transform="matrix(-304.64121688 -246.69359328 163.62330168 -202.05794996 826 678)"/><path d="m-.5-.5h1v1h-1z" fill="#fff" transform="matrix(71.35967756 -134.20803412 35.31790372 18.77886252 570 606)"/><path d="m-.5-.5h1v1h-1z" fill="#a29b97" transform="matrix(-249.48182676 127.11733992 -96.24598596 -188.89338312 698 318)"/><path d="m-.5-.5h1v1h-1z" fill="#1c1a27" transform="matrix(255.37639688 17.85765728 -5.8595438 83.79538024 954 422)"/><path d="m-.5-.5h1v1h-1z" fill="#fff" transform="matrix(-88.65525244 -113.47354852 34.67247316 -27.08910492 990 586)"/><path d="m-.5-.5h1v1h-1z" fill="#464d4c" transform="matrix(87.41911492 -104.18204428 159.33724416 133.6998228 778 66)"/><path d="m-.5-.5h1v1h-1z" fill="#cdc9bb" transform="matrix(-146.555575 174.65813304 -85.79697764 -71.99221228 506 478)"/><path d="m-.5-.5h1v1h-1z" fill="#fff" transform="matrix(-36.256789 414.4169944 -657.48850076 -57.5227902 234 158)"/><path d="m-.5-.5h1v1h-1z" fill="#c2b6b3" transform="matrix(-12.80392528 -91.10466232 281.23613152 -39.52516068 798 334)"/><path d="m-.5-.5h1v1h-1z" fill="#838f81" transform="matrix(-507.30380364 -26.58666576 4.18687648 -79.8903628 226 530)"/><path d="m-.5-.5h1v1h-1z" fill="#4e4f56" transform="matrix(133.02807368 -28.27598996 12.47470144 58.68885604 630 286)"/><path d="m-.5-.5h1v1h-1z" fill="#414447" transform="matrix(517.54869048 81.97165968 -23.77803868 150.12862776 238 682)"/><path d="m-.5-.5h1v1h-1z" fill="#fff" transform="matrix(59.91777208 -3.14015736 3.14015736 59.91777208 566 622)"/><path d="m-.5-.5h1v1h-1z" fill="#c5cbba" transform="matrix(-475.71003368 16.61216044 -2.37316576 -67.95857624 202 422)"/><path d="m-.5-.5h1v1h-1z" fill="#546e59" transform="matrix(-222.90092348 108.7160444 -85.92074476 -176.16363308 726 506)"/><path d="m-.5-.5h1v1h-1z" fill="#fbf6ee" transform="matrix(13.7146768 -8.2406092 39.14289368 65.14471484 1002 126)"/><path d="m-.5-.5h1v1h-1z" fill="#eeefde" transform="matrix(7.50885432 47.40904036 -86.91657396 13.76623292 954 2)"/><path d="m-.5-.5h1v1h-1z" fill="#fff" transform="matrix(-16.77341136 -10.89278072 93.67791404 -144.25133768 570 594)"/><path d="m-.5-.5h1v1h-1z" fill="#9e999c" transform="matrix(70.16920912 -229.51314144 65.0287234 19.88127592 690 170)"/><path d="m-.5-.5h1v1h-1z" fill="#4d5f53" transform="matrix(-124.51111072 87.18361832 -119.30389876 -170.3836252 850 58)"/><path d="m-.5-.5h1v1h-1z" fill="#fffffd" transform="matrix(-36.74169864 261.43077016 -118.83216824 -16.70077212 586 118)"/><path d="m-.5-.5h1v1h-1z" fill="#fffff8" transform="matrix(-47.1181048 9.15883176 -20.60737152 -106.0157358 486 426)"/><path d="m-.5-.5h1v1h-1z" fill="#45604c" transform="matrix(154.29011412 92.70685348 -61.804569 102.86007608 1022 250)"/><path d="m-.5-.5h1v1h-1z" fill="#dddad1" transform="matrix(198.7714932 -45.89001508 3.59921688 15.58992104 686 278)"/><path d="m-.5-.5h1v1h-1z" fill="#fffffd" transform="matrix(6.70172408 383.94151496 -515.92141072 9.00544172 282 138)"/><path d="m-.5-.5h1v1h-1z" fill="#fffff2" transform="matrix(-105.97127308 -47.1814506 27.65809172 -62.12109112 1018 610)"/><path d="m-.5-.5h1v1h-1z" fill="#474f4e" transform="matrix(168.93248856 281.15087464 -99.43140688 59.74441668 918 650)"/><path d="m-.5-.5h1v1h-1z" fill="#24202d" transform="matrix(33.16150292 -22.36771612 62.6296052 92.85220812 1022 510)"/><path d="m-.5-.5h1v1h-1z" fill="#43414f" transform="matrix(-115.70176976 137.88799976 -27.57759996 -23.14035396 562 546)"/><path d="m-.5-.5h1v1h-1z" fill="#fff" transform="matrix(18.71178912 61.2035044 -91.80525656 28.06768364 654 2)"/><path d="m-.5-.5h1v1h-1z" fill="#32483b" transform="matrix(-1.66329352 -7.8251808 336.48277464 -71.52162164 770 238)"/><path d="m-.5-.5h1v1h-1z" fill="#979a96" transform="matrix(-43.93969952 2.30278208 -9.21112828 -175.75879812 198 546)"/><path d="m-.5-.5h1v1h-1z" fill="#c4c0b6" transform="matrix(3.87075032 15.52473164 -391.9994734 97.73644584 830 362)"/><path d="m-.5-.5h1v1h-1z" fill="#d1c7c3" transform="matrix(125.53946016 -40.79024324 3.70820392 11.4126782 774 70)"/><path d="m-.5-.5h1v1h-1z" fill="#3a3b3d" transform="matrix(1.52647196 7.85301748 -137.42780568 26.71325936 606 310)"/><path d="m-.5-.5h1v1h-1z" fill="#606d61" transform="matrix(91.4092474 -71.41673112 132.98287868 170.21032276 354 602)"/><path d="m-.5-.5h1v1h-1z" fill="#cbbeba" transform="matrix(2.92486424 -23.82110764 190.56886112 23.39891392 954 362)"/><path d="m-.5-.5h1v1h-1z" fill="#a4d18e" transform="matrix(-127.2988026 13.37964328 -2.09056928 -19.89043792 738 434)"/><path d="m-.5-.5h1v1h-1z" fill="#2c2e31" transform="matrix(34.98478828 -19.3923848 7.75695392 13.99391532 646 394)"/><path d="m-.5-.5h1v1h-1z" fill="#ebddd7" transform="matrix(2.46264592 3.152043 -129.2337636 100.96848196 574 478)"/><path d="m-.5-.5h1v1h-1z" fill="#696869" transform="matrix(129.5747882 -25.1867874 4.57941588 23.5590524 850 318)"/><path d="m-.5-.5h1v1h-1z" fill="#757179" transform="matrix(33.94112548 33.94112548 -53.74011536 53.74011536 554 426)"/><path d="m-.5-.5h1v1h-1z" fill="#b9d7aa" transform="matrix(-15.03069492 106.94895144 -19.80536136 -2.783462 790 194)"/><path d="m-.5-.5h1v1h-1z" fill="#fffbeb" transform="matrix(.5566924 3.96107228 -265.39184244 37.29839104 754 362)"/><path d="m-.5-.5h1v1h-1z" fill="#455e4b" transform="matrix(237.7462958 -54.88805724 2.69941264 11.69244076 750 286)"/><path d="m-.5-.5h1v1h-1z" fill="#ffffeb" transform="matrix(3.8450468 1.10254944 -35.28158156 123.04149708 722 166)"/><path d="m-.5-.5h1v1h-1z" fill="#4b6056" transform="matrix(66.17926164 63.90857008 -100.03080536 103.58493124 678 538)"/><path d="m-.5-.5h1v1h-1z" fill="#d3ccbe" transform="matrix(40.33014552 -82.68905224 21.57105712 10.52090752 470 602)"/><path d="m-.5-.5h1v1h-1z" fill="#efe3d8" transform="matrix(-3.19454204 -2.40726008 233.504229 -309.87057788 574 458)"/><path d="m-.5-.5h1v1h-1z" fill="#fff" transform="matrix(-4.23935412 6.78438476 -67.84384768 -42.39354112 962 562)"/><path d="m-.5-.5h1v1h-1z" fill="#757176" transform="matrix(-20.65674876 38.84969408 -91.82654964 -48.82504252 1002 538)"/><path d="m-.5-.5h1v1h-1z" fill="#7e8d79" transform="matrix(-47.88282008 131.55696692 -18.7938524 -6.84040288 946 46)"/><path d="m-.5-.5h1v1h-1z" fill="#fffff7" transform="matrix(-268.87116284 -103.20996948 58.77234372 -153.10718996 514 110)"/><path d="m-.5-.5h1v1h-1z" fill="#6a696f" transform="matrix(47.40904036 7.50885432 -16.89492224 106.6703408 702 110)"/><path d="m-.5-.5h1v1h-1z" fill="#2e2636" transform="matrix(4.3004154 11.20296512 -112.02965116 43.00415396 718 414)"/><path d="m-.5-.5h1v1h-1z" fill="#2e2b38" transform="matrix(5.20909048 15.1282972 -139.9367492 48.18408684 726 26)"/><path d="m-.5-.5h1v1h-1z" fill="#5b6d5b" transform="matrix(92.71838544 -37.46065936 19.47954284 48.21356044 590 674)"/><path d="m-.5-.5h1v1h-1z" fill="#373642" transform="matrix(-74.60366596 14.50148364 -9.92206776 -51.04461352 774 122)"/><path d="m-.5-.5h1v1h-1z" fill="#282d32" transform="matrix(13.42062968 19.89690176 -49.74225436 33.5515742 982 62)"/><path d="m-.5-.5h1v1h-1z" fill="#e1e0d8" transform="matrix(-20.99388892 -24.15070656 54.33908976 -47.23625008 258 474)"/><path d="m-.5-.5h1v1h-1z" fill="#cfd2c7" transform="matrix(51.11267264 -38.51616148 12.03630048 15.9727102 998 86)"/><path d="m-.5-.5h1v1h-1z" fill="#d7f0cc" transform="matrix(-88.43607604 25.35863672 -1.10254944 -3.8450468 866 238)"/><path d="m-.5-.5h1v1h-1z" fill="#76856e" transform="matrix(50.53384812 45.50088124 -69.58958308 77.28706184 450 542)"/><path d="m-.5-.5h1v1h-1z" fill="#629464" transform="matrix(47.81734552 4.18347564 -13.24767288 151.42159412 818 202)"/><path d="m-.5-.5h1v1h-1z" fill="#b7b5b2" transform="matrix(57.37828536 -17.54230228 24.5592232 80.32959952 670 206)"/><path d="m-.5-.5h1v1h-1z" fill="#fffff4" transform="matrix(37.34321704 -14.334718 25.80249236 67.21779072 578 618)"/><path d="m-.5-.5h1v1h-1z" fill="#d4cec5" transform="matrix(-2.07055236 -7.7274066 54.09184628 -14.49386652 906 474)"/><path d="m-.5-.5h1v1h-1z" fill="#eee5e0" transform="matrix(-10.41818096 30.2565944 -37.82074304 -13.02272616 1022 154)"/><path d="m-.5-.5h1v1h-1z" fill="#495850" transform="matrix(11.26731752 -21.19074224 49.4450652 26.29040752 974 118)"/><path d="m-.5-.5h1v1h-1z" fill="#47524f" transform="matrix(40.41159 32.72466032 -45.31106816 55.95450924 926 594)"/><path d="m-.5-.5h1v1h-1z" fill="#fff" transform="matrix(21.57105712 10.52090752 -15.78136128 32.35658568 930 2)"/><path d="m-.5-.5h1v1h-1z" fill="#404448" transform="matrix(-12.89904992 -147.43681532 115.55858496 -10.11006616 38 618)"/><path d="m98 594h32v32h-32z" fill="#939793" stroke-width="32"/><path d="m-.5-.5h1v1h-1z" fill="#dbdcd7" transform="matrix(195.52255384 13.67226884 -3.34831072 47.8830744 42 418)"/><path d="m-.5-.5h1v1h-1z" fill="#617962" transform="matrix(-230.2707072 28.27368768 -5.36225112 -43.67203068 1006 302)"/><path d="m-.5-.5h1v1h-1z" fill="#688a6b" transform="matrix(43.77857836 -120.28065548 60.14032772 21.88928916 806 494)"/><path d="m-.5-.5h1v1h-1z" fill="#46494c" transform="matrix(-1.7534846 -3.5951762 97.069757 -47.34408384 662 394)"/><path d="m-.5-.5h1v1h-1z" fill="#c2bcb7" transform="matrix(233.09816452 -123.94049256 7.511545 14.12716148 658 418)"/><path d="m-.5-.5h1v1h-1z" fill="#424648" transform="matrix(435.40247716 22.81847692 -3.3495012 63.91229024 890 682)"/><path d="m-.5-.5h1v1h-1z" fill="#7a7673" transform="matrix(-75.43350752 9.26207008 -1.94990948 -15.88073844 586 358)"/><path d="m-.5-.5h1v1h-1z" fill="#3c424f" transform="matrix(-12.27439212 -25.16623328 28.76140948 -14.02787668 574 286)"/><path d="m-.5-.5h1v1h-1z" fill="#7d7d7c" transform="matrix(-133.9338544 23.61615216 -4.86214896 -27.57461708 730 338)"/><path d="m-.5-.5h1v1h-1z" fill="#403d46" transform="matrix(106.0157358 20.60737152 -6.10588784 31.41206988 830 406)"/><path d="m-.5-.5h1v1h-1z" fill="#fff" transform="matrix(11.18385808 16.58075144 -9.94845088 6.71031484 1022 30)"/><path d="m-.5-.5h1v1h-1z" fill="#484d4e" transform="matrix(-46.44900396 -186.29677944 217.34624268 -54.1905046 238 682)"/><path d="m-.5-.5h1v1h-1z" fill="#54715d" transform="matrix(46.57419488 11.612251 -18.38606408 73.7424752 754 182)"/><path d="m-.5-.5h1v1h-1z" fill="#abb49e" transform="matrix(12.55042696 143.45203652 -91.64991224 8.01832832 394 466)"/><path d="m-.5-.5h1v1h-1z" fill="#c7c7c1" transform="matrix(-1.25638188 -35.97806976 35.97806976 -1.25638188 198 534)"/><path d="m-.5-.5h1v1h-1z" fill="#616a63" transform="matrix(-174.31056464 -70.42603956 32.96538024 -81.5921792 422 646)"/><path d="m-.5-.5h1v1h-1z" fill="#fffff4" transform="matrix(-77.8834438 -31.46695384 55.44177584 -137.22321048 482 370)"/><path d="m-.5-.5h1v1h-1z" fill="#fffffe" transform="matrix(95.65669944 -118.12618616 3.10858384 2.51728156 562 618)"/><path d="m-.5-.5h1v1h-1z" fill="#303138" transform="matrix(-39.26508732 -7.6323598 .763236 -3.92650872 514 426)"/><path d="m-.5-.5h1v1h-1z" fill="#435549" transform="matrix(-36.77212812 -147.4849504 54.33656068 -13.54762616 878 30)"/><path d="m-.5-.5h1v1h-1z" fill="#fffff5" transform="matrix(98.76883404 -15.64344652 20.02361152 126.4241076 614 82)"/><path d="m-.5-.5h1v1h-1z" fill="#fffff8" transform="matrix(-3.56402608 1.815962 -14.527696 -28.51220876 902 174)"/><path d="m-.5-.5h1v1h-1z" fill="#52665b" transform="matrix(-67.33822868 -9.46377088 22.26769616 -158.442891 642 622)"/><path d="m-.5-.5h1v1h-1z" fill="#454a56" transform="matrix(-.20934384 -3.99451812 91.8739172 -4.81490796 594 274)"/><path d="m-.5-.5h1v1h-1z" fill="#fef9eb" transform="matrix(-82.4566834 -16.0279556 4.57941588 -23.5590524 1014 634)"/><path d="m-.5-.5h1v1h-1z" fill="#9bae91" transform="matrix(3.65418184 -1.62694656 39.04671772 87.70036392 830 50)"/><path d="m-.5-.5h1v1h-1z" fill="#4c7151" transform="matrix(-51.71513856 5.43548008 -12.5434156 -119.34262744 866 170)"/><path d="m-.5-.5h1v1h-1z" fill="#e4e8d5" transform="matrix(-191.8830388 -6.70070336 1.81477384 -51.968323 334 370)"/><path d="m-.5-.5h1v1h-1z" fill="#849080" transform="matrix(129.42634268 -63.12544512 17.53484588 35.95176184 326 502)"/><path d="m-.5-.5h1v1h-1z" fill="#838887" transform="matrix(22.534635 -42.38148444 162.46235708 86.38276756 110 518)"/><path d="m-.5-.5h1v1h-1z" fill="#4a524f" transform="matrix(-3.3921924 2.11967704 -201.3693204 -322.25827652 1022 110)"/><path d="m-.5-.5h1v1h-1z" fill="#a3b091" transform="matrix(65.47184256 70.20995536 -23.40331844 21.82394752 466 474)"/><path d="m-.5-.5h1v1h-1z" fill="#fff" transform="matrix(-2.47213596 -7.60845212 26.62958244 -8.65247584 782 218)"/><path d="m-.5-.5h1v1h-1z" fill="#251e2c" transform="matrix(11.63543088 -20.99087296 13.99391532 7.75695392 1006 338)"/><path d="m-.5-.5h1v1h-1z" fill="#fefff9" transform="matrix(-539.35588236 164.89764148 -93.55894552 -306.01752192 174 166)"/><path d="m-.5-.5h1v1h-1z" fill="#7fa777" transform="matrix(48.17740364 -53.50642744 20.80805512 18.73565696 638 486)"/><path d="m-.5-.5h1v1h-1z" fill="#ebe4d9" transform="matrix(51.21000316 -9.02970524 2.77837084 15.75692404 622 386)"/><path d="m-.5-.5h1v1h-1z" fill="#eaecdf" transform="matrix(3.47296356 -19.69615508 35.45307912 6.2513344 986 98)"/><path d="m-.5-.5h1v1h-1z" fill="#6a6b71" transform="matrix(2.08377812 11.81769304 -82.72385124 14.58644692 670 270)"/><path d="m-.5-.5h1v1h-1z" fill="#fffff8" transform="matrix(-50.3324666 -24.54878424 5.26045376 -10.78552856 970 558)"/><path d="m-.5-.5h1v1h-1z" fill="#b3a3aa" transform="matrix(-114.12678196 37.08203932 -1.23606796 -3.80422608 734 46)"/><path d="m-.5-.5h1v1h-1z" fill="#cdc6bb" transform="matrix(-.69459272 -3.939231 165.44770252 -29.17289384 726 234)"/><path d="m-.5-.5h1v1h-1z" fill="#d1c2b9" transform="matrix(271.80693984 -47.92689704 .69459272 3.939231 814 302)"/><path d="m-.5-.5h1v1h-1z" fill="#c8c3bc" transform="matrix(-2.77837084 -15.75692404 63.0276962 -11.11348336 706 86)"/><path d="m-.5-.5h1v1h-1z" fill="#88868a" transform="matrix(12.31322952 15.76021508 -53.58473124 41.86498032 666 194)"/><path d="m-.5-.5h1v1h-1z" fill="#547356" transform="matrix(9.177223 13.10643272 -81.91520444 57.35764364 942 130)"/><path d="m-.5-.5h1v1h-1z" fill="#fffffe" transform="matrix(46.97220388 -69.63915608 23.21305204 15.65740128 574 594)"/><path d="m-.5-.5h1v1h-1z" fill="#c7cab9" transform="matrix(-40.2830288 -38.90086876 2.77863348 -2.8773592 942 154)"/><path d="m-.5-.5h1v1h-1z" fill="#56635d" transform="matrix(-33.8690654 135.84140168 -120.31667004 -29.99831504 862 550)"/><path d="m-.5-.5h1v1h-1z" fill="#bfc5ba" transform="matrix(1.25638188 -35.97806976 239.85379848 8.3758792 250 426)"/><path d="m-.5-.5h1v1h-1z" fill="#4f5056" transform="matrix(141.60614912 -218.05434768 10.0640468 6.53566844 550 582)"/><path d="m-.5-.5h1v1h-1z" fill="#5a7b5d" transform="matrix(179.56152904 -12.55616528 2.51123304 35.9123058 874 262)"/><path d="m-.5-.5h1v1h-1z" fill="#444249" transform="matrix(102.800659 -69.33992004 2.2367716 3.31615028 610 470)"/><path d="m-.5-.5h1v1h-1z" fill="#87b783" transform="matrix(-48.21356044 19.47954284 -4.49527912 -11.12620624 678 594)"/><path d="m-.5-.5h1v1h-1z" fill="#a39ca2" transform="matrix(-1.74311484 -19.92389396 47.81734552 -4.18347564 970 226)"/><path d="m-.5-.5h1v1h-1z" fill="#fff6f5" transform="matrix(20.35315432 -12.71806236 2.11967704 3.3921924 946 42)"/><path d="m-.5-.5h1v1h-1z" fill="#c2c1bc" transform="matrix(-108.75693444 -50.7141914 1.69047304 -3.62523116 994 546)"/><path d="m-.5-.5h1v1h-1z" fill="#afa3a3" transform="matrix(-5.82152736 -27.38813284 62.60144644 -13.3063482 722 2)"/><path d="m-.5-.5h1v1h-1z" fill="#424d49" transform="matrix(-4.3004154 11.20296512 -89.62372096 -34.40332316 986 42)"/><path d="m-.5-.5h1v1h-1z" fill="#e7e2da" transform="matrix(109.71741448 -65.9248736 2.06015228 3.4286692 1006 2)"/><path d="m-.5-.5h1v1h-1z" fill="#737968" transform="matrix(27.65527352 4.38016504 -8.1345922 51.35979372 562 674)"/><path d="m-.5-.5h1v1h-1z" fill="#393641" transform="matrix(2.50868312 23.86852548 -83.5398392 8.78039092 778 94)"/><path d="m-.5-.5h1v1h-1z" fill="#e9e5dd" transform="matrix(-2.62423612 3.01883832 -84.527473 -73.47861124 662 202)"/><path d="m-.5-.5h1v1h-1z" fill="#b3acad" transform="matrix(-1.36808056 3.75877048 -78.93418016 -28.72969204 966 518)"/><path d="m-.5-.5h1v1h-1z" fill="#f0f2f2" transform="matrix(1.8772136 11.85226008 -55.31054708 8.76033004 742 262)"/><path d="m-.5-.5h1v1h-1z" fill="#fffffa" transform="matrix(23.18221984 -6.21165708 1.0352762 3.86370332 790 182)"/><path d="m-.5-.5h1v1h-1z" fill="#c9c3bb" transform="matrix(-79.40369212 9.74954748 -4.38729636 -35.73166144 570 390)"/><path d="m-.5-.5h1v1h-1z" fill="#b5adaa" transform="matrix(-17.2641552 -16.67180088 55.57266964 -57.54718404 482 590)"/><path d="m-.5-.5h1v1h-1z" fill="#4e4c55" transform="matrix(4.14110472 15.45481324 -108.18369256 28.98773304 722 250)"/><path d="m-.5-.5h1v1h-1z" fill="#d5ccbf" transform="matrix(-186.17039692 26.164543 -.5566924 -3.96107228 946 334)"/><path d="m-.5-.5h1v1h-1z" fill="#46504c" transform="matrix(-8 -13.85640648 34.64101616 -20 1022 110)"/><path d="m-.5-.5h1v1h-1z" fill="#73946c" transform="matrix(-5.8508296 -5.45598688 163.6796064 -175.5248884 1014 262)"/><path d="m-.5-.5h1v1h-1z" fill="#7e7c82" transform="matrix(16.18033988 11.75570504 -75.23651228 103.55417528 546 462)"/><path d="m-.5-.5h1v1h-1z" fill="#e7e0d2" transform="matrix(.20942888 -11.99817236 47.99268936 .83771552 562 302)"/><path d="m-.5-.5h1v1h-1z" fill="#515554" transform="matrix(-127.45193768 -103.20854412 2.51728156 -3.10858384 190 566)"/><path d="m-.5-.5h1v1h-1z" fill="#3a3d41" transform="matrix(3.10858384 2.51728156 -135.93320448 167.86352768 1022 2)"/><path d="m-.5-.5h1v1h-1z" fill="#fffff6" transform="matrix(0 92 -80 0 566 214)"/><path d="m-.5-.5h1v1h-1z" fill="#ebe3dc" transform="matrix(8.8203954 -30.76037428 11.53514036 3.30764828 502 494)"/><path d="m-.5-.5h1v1h-1z" fill="#b5b9b0" transform="matrix(-13.85640648 -8 18 -31.17691452 962 150)"/><path d="m-.5-.5h1v1h-1z" fill="#6b6c74" transform="matrix(27.57759996 23.14035396 -66.8499114 79.66862208 538 554)"/><path d="m-.5-.5h1v1h-1z" fill="#6c6c70" transform="matrix(58 -100.45894684 3.4641016 2 662 250)"/><path d="m-.5-.5h1v1h-1z" fill="#6f7d72" transform="matrix(-15.88073844 -1.94990948 2.43738688 -19.85092304 258 482)"/><path d="m-.5-.5h1v1h-1z" fill="#aaa29e" transform="matrix(-76.10284736 87.54631132 -3.01883832 -2.62423612 514 410)"/><path d="m-.5-.5h1v1h-1z" fill="#3b3941" transform="matrix(-87.78563644 -6.13856968 .27902588 -3.9902562 934 378)"/><path d="m-.5-.5h1v1h-1z" fill="#fffff9" transform="matrix(71.41673112 -91.4092474 72.49698932 56.64085572 634 2)"/><path d="m-.5-.5h1v1h-1z" fill="#354433" transform="matrix(-1.69047304 -3.62523116 18.12615576 -8.45236524 994 86)"/><path d="m-.5-.5h1v1h-1z" fill="#445b4d" transform="matrix(179.24744188 -68.80664632 5.7338872 14.93728684 1002 186)"/><path d="m-.5-.5h1v1h-1z" fill="#6e9868" transform="matrix(115.92933592 4.0483416 -.83758792 23.98537984 814 162)"/><path d="m-.5-.5h1v1h-1z" fill="#b5b5ae" transform="matrix(48.14520184 63.8908408 -3.19454204 2.40726008 202 550)"/><path d="m-.5-.5h1v1h-1z" fill="#b7b0aa" transform="matrix(.5566924 3.96107228 -273.31398696 38.41177588 854 370)"/><path d="m-.5-.5h1v1h-1z" fill="#44454a" transform="matrix(95.38546756 152.64865732 -40.7063086 25.43612468 1022 502)"/><path d="m-.5-.5h1v1h-1z" fill="#9fc18a" transform="matrix(1.3022726 3.78207432 -166.41126932 57.2999952 698 442)"/><path d="m-.5-.5h1v1h-1z" fill="#bebbb7" transform="matrix(-4 -6.92820324 31.17691452 -18 686 270)"/><path d="m-.5-.5h1v1h-1z" fill="#3f4747" transform="matrix(-55.0131556 -39.96939716 7.05342304 -9.70820392 898 154)"/><path d="m-.5-.5h1v1h-1z" fill="#524c55" transform="matrix(74.05212492 -17.09628012 .8998042 3.89748024 946 342)"/><path d="m-.5-.5h1v1h-1z" fill="#bcb4bb" transform="matrix(-9.8885438 30.43380852 -3.80422608 -1.23606796 786 590)"/><path d="m-.5-.5h1v1h-1z" fill="#333a42" transform="matrix(0 12 -60 0 662 482)"/><path d="m-.5-.5h1v1h-1z" fill="#ffede4" transform="matrix(-3.65418184 -1.62694656 6.50778628 -14.61672732 890 322)"/><path d="m-.5-.5h1v1h-1z" fill="#9d9f9c" transform="matrix(5.34265188 -27.48556112 19.63254368 3.81617992 202 618)"/><path d="m-.5-.5h1v1h-1z" fill="#928f8b" transform="matrix(114.57184752 -18.14639796 2.50295144 15.80301344 626 366)"/><path d="m-.5-.5h1v1h-1z" fill="#fffffa" transform="matrix(-3.4286692 -2.06015228 8.2406092 -13.7146768 698 374)"/><path d="m-.5-.5h1v1h-1z" fill="#b6b4b1" transform="matrix(4.16755628 23.63538608 -19.69615508 3.47296356 934 86)"/><path d="m-.5-.5h1v1h-1z" fill="#f0e6d8" transform="matrix(-7.99878156 -.13961924 .90752512 -51.99208016 734 90)"/><path d="m-.5-.5h1v1h-1z" fill="#3e3f45" transform="matrix(-287.9561362 -5.02629304 1.0471444 -59.99086172 138 682)"/><path d="m-.5-.5h1v1h-1z" fill="#fffff4" transform="matrix(-3.9902562 -.27902588 2.79025896 -39.902562 750 342)"/><path d="m-.5-.5h1v1h-1z" fill="#3d4742" transform="matrix(2.40726008 3.19454204 -67.08538284 50.55246196 938 30)"/><path d="m-.5-.5h1v1h-1z" fill="#fffef0" transform="matrix(98.8873104 -164.57612172 3.4286692 2.06015228 566 602)"/><path d="m-.5-.5h1v1h-1z" fill="#dccdc8" transform="matrix(18.54101968 57.06339096 -3.80422608 1.23606796 926 326)"/><path d="m-.5-.5h1v1h-1z" fill="#68956c" transform="matrix(-8.20848344 -22.55262288 48.86401628 -17.78504744 698 458)"/><path d="m-.5-.5h1v1h-1z" fill="#434e48" transform="matrix(2.07055236 7.7274066 -247.27701152 66.25767556 1014 234)"/><path d="m-.5-.5h1v1h-1z" fill="#5c7260" transform="matrix(-1.3022726 3.78207432 -325.25839 -111.99544512 906 506)"/><path d="m-.5-.5h1v1h-1z" fill="#ebfbd5" transform="matrix(3.10582856 11.59110992 -15.45481324 4.14110472 830 206)"/><path d="m-.5-.5h1v1h-1z" fill="#504854" transform="matrix(-1.66329352 -7.8251808 183.89174892 -39.08739788 682 298)"/><path d="m-.5-.5h1v1h-1z" fill="#fffdf5" transform="matrix(-22.25241252 8.99055824 -2.99685276 -7.41747084 610 286)"/><path d="m-.5-.5h1v1h-1z" fill="#6c6c6e" transform="matrix(-1.56292452 -3.6820194 58.91231064 -25.00679224 646 242)"/><path d="m-.5-.5h1v1h-1z" fill="#cac7c6" transform="matrix(-1.6724554 15.91235032 -55.69322616 -5.85359396 1018 162)"/><path d="m-.5-.5h1v1h-1z" fill="#5e6464" transform="matrix(7.50885432 -47.40904036 173.83314796 27.53246584 34 558)"/><path d="m-.5-.5h1v1h-1z" fill="#424249" transform="matrix(.20934384 -3.99451812 95.86843532 5.0242518 950 502)"/><path d="m-.5-.5h1v1h-1z" fill="#9ac689" transform="matrix(-43.7589634 4.5992524 -.83622772 -7.95617516 846 490)"/><path d="m-.5-.5h1v1h-1z" fill="#98bc88" transform="matrix(-1.3022726 3.78207432 -155.0650464 -53.39317732 806 450)"/><path d="m-.5-.5h1v1h-1z" fill="#fffdf8" transform="matrix(28 0 0 8 1022 70)"/><path d="m-.5-.5h1v1h-1z" fill="#60626a" transform="matrix(12.96152944 -123.32071504 3.9780876 .41811384 706 158)"/><path d="m-.5-.5h1v1h-1z" fill="#433f48" transform="matrix(-90.86732732 14.3919708 -.62573788 -3.95075336 958 478)"/><path d="m-.5-.5h1v1h-1z" fill="#b5e28b" transform="matrix(-3.631924 -7.1280522 32.07623488 -16.343658 726 174)"/><path d="m-.5-.5h1v1h-1z" fill="#4b5153" transform="matrix(243.41330824 65.22239936 -1.0352762 3.86370332 866 518)"/><path d="m-.5-.5h1v1h-1z" fill="#7c7a79" transform="matrix(114.57184752 18.14639796 -.62573788 3.95075336 958 362)"/><path d="m-.5-.5h1v1h-1z" fill="#4c5b55" transform="matrix(-54.47885996 106.92078292 -35.64026096 -18.15962 638 574)"/><path d="m-.5-.5h1v1h-1z" fill="#0e1b09" transform="matrix(-2.67652244 2.97257932 -5.9451586 -5.35304484 986 2)"/><path d="m-.5-.5h1v1h-1z" fill="#2e3439" transform="matrix(-17.143346 -10.30076148 4.1203046 -6.8573384 686 382)"/><path d="m-.5-.5h1v1h-1z" fill="#72816c" transform="matrix(19.562952 -4.1582338 59.87856696 281.706509 450 658)"/><path d="m-.5-.5h1v1h-1z" fill="#d5cec8" transform="matrix(-2.8773592 2.77863348 -52.79403616 -54.66982484 522 446)"/><path d="m-.5-.5h1v1h-1z" fill="#4a624d" transform="matrix(-95.47410196 -10.03473248 .41811384 -3.9780876 946 158)"/><path d="m-.5-.5h1v1h-1z" fill="#d2d5cb" transform="matrix(-21.7855614 33.54682272 -10.0640468 -6.53566844 170 482)"/><path d="m-.5-.5h1v1h-1z" fill="#404046" transform="matrix(3.4123416 -27.79129224 43.67203068 5.36225112 870 450)"/><path d="m-.5-.5h1v1h-1z" fill="#e5e0d3" transform="matrix(9.8505836 12.60817204 -18.91225808 14.7758754 630 226)"/><path d="m-.5-.5h1v1h-1z" fill="#fffff4" transform="matrix(4.88083972 10.96254548 -14.61672732 6.50778628 478 570)"/><path d="m-.5-.5h1v1h-1z" fill="#fffef4" transform="matrix(48.14520184 63.8908408 -226.81248484 170.91546656 526 226)"/><path d="m-.5-.5h1v1h-1z" fill="#f8efe2" transform="matrix(3.06417776 -2.57115044 43.70955744 52.09102212 646 390)"/><path d="m-.5-.5h1v1h-1z" fill="#acaaa7" transform="matrix(-3.92650872 -.763236 28.23973132 -145.28082316 690 146)"/><path d="m-.5-.5h1v1h-1z" fill="#d3ccc4" transform="matrix(37.4056696 -36.12223528 2.77863348 2.8773592 782 338)"/><path d="m-.5-.5h1v1h-1z" fill="#e0dcd2" transform="matrix(2.51728156 -3.10858384 59.06309308 47.82834972 614 398)"/><path d="m-.5-.5h1v1h-1z" fill="#454a4e" transform="matrix(-1.1694868 -3.82521904 183.61051316 -56.13536732 770 22)"/><path d="m-.5-.5h1v1h-1z" fill="#b2aead" transform="matrix(1.25147572 7.90150672 -90.86732732 14.3919708 906 470)"/><path d="m-.5-.5h1v1h-1z" fill="#ebe0d3" transform="matrix(-3.49847884 1.93923848 -17.45314632 -31.48630944 898 170)"/><path d="m-.5-.5h1v1h-1z" fill="#e6e1d5" transform="matrix(15.9610248 -1.11610356 .83707768 11.9707686 818 330)"/><path d="m-.5-.5h1v1h-1z" fill="#9bc382" transform="matrix(-27.23596416 70.9521124 -3.73432172 -1.4334718 786 254)"/><path d="m-.5-.5h1v1h-1z" fill="#5d5e5f" transform="matrix(3.86370332 -1.0352762 32.0935616 119.77480244 302 522)"/><path d="m-.5-.5h1v1h-1z" fill="#f7f6e6" transform="matrix(-3.6820194 -1.56292452 15.62924512 -36.82019412 278 478)"/><path d="m-.5-.5h1v1h-1z" fill="#808a81" transform="matrix(-108.55015632 -67.82966584 16.95741644 -27.13753908 242 522)"/><path d="m-.5-.5h1v1h-1z" fill="#fffff2" transform="matrix(38.45046784 11.02549424 -1.10254944 3.8450468 1022 134)"/><path d="m-.5-.5h1v1h-1z" fill="#41434a" transform="matrix(-136.36617852 187.69194268 -3.23606796 -2.351141 538 562)"/><path d="m-.5-.5h1v1h-1z" fill="#7f7e82" transform="matrix(3.65418184 1.62694656 -39.04671772 87.70036392 666 170)"/><path d="m-.5-.5h1v1h-1z" fill="#a79ba1" transform="matrix(67.98964328 1.18676364 -.13961924 7.99878156 950 490)"/><path d="m-.5-.5h1v1h-1z" fill="#424253" transform="matrix(3.49847884 -1.93923848 17.45314632 31.48630944 666 58)"/><path d="m-.5-.5h1v1h-1z" fill="#98868f" transform="matrix(6.29862952 27.2823618 -38.9748026 8.99804216 934 278)"/><path d="m-.5-.5h1v1h-1z" fill="#709072" transform="matrix(3.05294392 -15.70603492 90.30970088 17.55442756 794 530)"/><path d="m-.5-.5h1v1h-1z" fill="#e5e7d0" transform="matrix(-4 0 0 -20 850 90)"/><path d="m-.5-.5h1v1h-1z" fill="#fff" transform="matrix(3.31615028 -2.2367716 6.71031484 9.94845088 970 146)"/><path d="m-.5-.5h1v1h-1z" fill="#fffffa" transform="matrix(3.89684684 -27.72750592 3.96107228 .5566924 718 350)"/><path d="m-.5-.5h1v1h-1z" fill="#e7dfd0" transform="matrix(-3.19454204 -2.40726008 180.54450696 -239.590653 570 466)"/><path d="m-.5-.5h1v1h-1z" fill="#fffff8" transform="matrix(-71.99221228 85.79697764 -64.34773324 -53.9941592 482 366)"/><path d="m-.5-.5h1v1h-1z" fill="#605b73" transform="matrix(3.34491084 -31.82470064 51.71513856 5.43548008 746 206)"/><path d="m-.5-.5h1v1h-1z" fill="#4f5254" transform="matrix(-67.62748888 7.10793552 -5.01736624 -47.73705096 834 402)"/><path d="m-.5-.5h1v1h-1z" fill="#fdfae6" transform="matrix(-106.79024324 -77.58765332 9.40456404 -12.94427192 990 582)"/><path d="m-.5-.5h1v1h-1z" fill="#e1ded9" transform="matrix(24.51342216 20.56920352 -12.8557522 15.32088888 234 490)"/><path d="m-.5-.5h1v1h-1z" fill="#80897b" transform="matrix(19.12609512 -5.84743408 29.23717048 95.6304756 474 514)"/><path d="m-.5-.5h1v1h-1z" fill="#fffcea" transform="matrix(3.9993908 .06980964 -.41885776 23.99634468 850 318)"/><path d="m-.5-.5h1v1h-1z" fill="#4b6754" transform="matrix(-.27923852 15.99756312 -143.97806812 -2.51314652 1022 310)"/><path d="m-.5-.5h1v1h-1z" fill="#000911" transform="matrix(9.32575152 -7.55184468 2.51728156 3.10858384 734 342)"/><path d="m-.5-.5h1v1h-1z" fill="#555759" transform="matrix(42.29551464 -12.12804364 4.41019768 15.38018712 714 62)"/><path d="m-.5-.5h1v1h-1z" fill="#486c51" transform="matrix(10.2860076 6.18045688 -35.02258908 58.28737644 802 242)"/><path d="m-.5-.5h1v1h-1z" fill="#8b858c" transform="matrix(-20.5212086 -56.38155724 3.75877048 -1.36808056 802 602)"/><path d="m-.5-.5h1v1h-1z" fill="#9a9d9b" transform="matrix(6.92820324 -4 10 17.32050808 862 562)"/><path d="m-.5-.5h1v1h-1z" fill="#fffff6" transform="matrix(-3.939231 .69459272 -6.94592712 -39.39231012 922 10)"/><path d="m-.5-.5h1v1h-1z" fill="#4d5453" transform="matrix(14 24.24871132 -83.13843876 48 918 602)"/><path d="m-.5-.5h1v1h-1z" fill="#cccdcd" transform="matrix(17.97588092 -8.76742292 3.50696916 7.19035236 1022 206)"/><path d="m-.5-.5h1v1h-1z" fill="#88a67f" transform="matrix(9.74954748 79.40369212 -15.88073844 1.94990948 830 226)"/><path d="m-.5-.5h1v1h-1z" fill="#c2c7ae" transform="matrix(-94.98951096 -79.7056636 10.28460176 -12.25671108 458 450)"/><path d="m-.5-.5h1v1h-1z" fill="#86ac7d" transform="matrix(103.22479976 -12.67441172 .48747736 3.9701846 878 242)"/><path d="m-.5-.5h1v1h-1z" fill="#b5a1a1" transform="matrix(181.20462656 -31.95126468 1.38918544 7.87846204 634 318)"/><path d="m-.5-.5h1v1h-1z" fill="#e8e7e2" transform="matrix(9.31748564 -34.77332976 3.86370332 1.0352762 694 206)"/><path d="m-.5-.5h1v1h-1z" fill="#fff" transform="matrix(2.60454524 -7.5641486 3.78207432 1.3022726 958 338)"/><path d="m-.5-.5h1v1h-1z" fill="#d1d5cb" transform="matrix(-103.936646 3.62954764 -2.2335678 -63.96101292 118 406)"/><path d="m-.5-.5h1v1h-1z" fill="#3b4045" transform="matrix(1.25147572 -7.90150672 19.7537668 3.12868932 706 350)"/><path d="m-.5-.5h1v1h-1z" fill="#878684" transform="matrix(-186.17039692 26.164543 -.5566924 -3.96107228 862 338)"/><path d="m-.5-.5h1v1h-1z" fill="#ede9db" transform="matrix(-93.14838972 23.22450196 -.9676876 -3.88118292 786 358)"/><path d="m-.5-.5h1v1h-1z" fill="#49554f" transform="matrix(31.286893 197.53766812 -11.85226008 1.8772136 394 666)"/><path d="m-.5-.5h1v1h-1z" fill="#abaaad" transform="matrix(-44.67167916 61.48529156 -3.23606796 -2.351141 542 530)"/><path d="m-.5-.5h1v1h-1z" fill="#aaaba7" transform="matrix(18.54137068 30.85802284 -3.4286692 2.06015228 110 606)"/><path d="m-.5-.5h1v1h-1z" fill="#fff" transform="matrix(-19.12609512 5.84743408 -2.33897364 -7.65043804 982 14)"/><path d="m-.5-.5h1v1h-1z" fill="#49494f" transform="matrix(86.98770896 -29.9522702 6.51136308 18.91037152 750 406)"/><path d="m-.5-.5h1v1h-1z" fill="#47474f" transform="matrix(-153.9866726 -289.60681044 31.78611336 -16.90097628 794 678)"/><path d="m-.5-.5h1v1h-1z" fill="#6c6c75" transform="matrix(-29.69556576 69.95836888 -3.6820194 -1.56292452 714 246)"/><path d="m-.5-.5h1v1h-1z" fill="#687067" transform="matrix(130.56052152 105.72582568 -2.51728156 3.10858384 1006 142)"/><path d="m-.5-.5h1v1h-1z" fill="#3e4447" transform="matrix(27.65809172 62.12109112 -14.61672732 6.50778628 990 190)"/><path d="m-.5-.5h1v1h-1z" fill="#bdb7b1" transform="matrix(-3.65418184 -1.62694656 60.19702316 -135.20472772 642 190)"/><path d="m-.5-.5h1v1h-1z" fill="#73766d" transform="matrix(-19.7011672 25.21634412 -15.76021508 -12.31322952 998 658)"/><path d="m-.5-.5h1v1h-1z" fill="#fdfcf0" transform="matrix(-5.26045376 -10.78552856 75.49869988 -36.82317632 562 638)"/><path d="m-.5-.5h1v1h-1z" fill="#7e9275" transform="matrix(1.36808056 3.75877048 -255.59639284 93.029479 514 682)"/><path d="m-.5-.5h1v1h-1z" fill="#54645d" transform="matrix(-23.90867276 -2.09173784 25.44947688 -290.88885184 738 590)"/><path d="m-.5-.5h1v1h-1z" fill="#b4bfab" transform="matrix(0 -8 36 0 938 174)"/><path d="m-.5-.5h1v1h-1z" fill="#7e9a77" transform="matrix(3.96107228 .5566924 -16.14407972 114.87109596 618 538)"/><path d="m-.5-.5h1v1h-1z" fill="#fff" transform="matrix(-19.89043792 -2.09056928 .83622772 -7.95617516 974 94)"/><path d="m-.5-.5h1v1h-1z" fill="#fff" transform="matrix(-.139598 -3.99756332 7.9951266 -.27919596 962 50)"/><path d="m-.5-.5h1v1h-1z" fill="#f6f5ef" transform="matrix(19.951281 1.39512948 -.83707768 11.9707686 422 490)"/><path d="m-.5-.5h1v1h-1z" fill="#8f9794" transform="matrix(19.28833044 39.54693804 -147.4022236 71.89286808 18 494)"/><path d="m-.5-.5h1v1h-1z" fill="#45464c" transform="matrix(-81.00442712 34.38433932 -18.75509416 -44.18423296 794 106)"/><path d="m-.5-.5h1v1h-1z" fill="#4b4f57" transform="matrix(3.89748024 .8998042 -17.09628012 74.05212492 718 138)"/><path d="m-.5-.5h1v1h-1z" fill="#fefcf3" transform="matrix(-111.50635672 31.97393328 -18.7433402 -65.36579532 606 86)"/><path d="m-.5-.5h1v1h-1z" fill="#c1bebc" transform="matrix(-.69459272 -3.939231 31.51384808 -5.55674168 138 554)"/><path d="m-.5-.5h1v1h-1z" fill="#c8cac4" transform="matrix(69.54665948 -18.63497124 1.0352762 3.86370332 874 234)"/><path d="m-.5-.5h1v1h-1z" fill="#94b886" transform="matrix(-56.38155724 20.5212086 -1.36808056 -3.75877048 686 466)"/><path d="m-.5-.5h1v1h-1z" fill="#5a645f" transform="matrix(3.19454204 2.40726008 -77.03232296 102.22534528 1022 90)"/><path d="m-.5-.5h1v1h-1z" fill="#2d2932" transform="matrix(1.25434156 -11.93426276 19.89043792 2.09056928 970 342)"/><path d="m-.5-.5h1v1h-1z" fill="#709c6c" transform="matrix(-.83164676 3.9125904 -109.55253128 -23.28610936 866 478)"/><path d="m-.5-.5h1v1h-1z" fill="#252d33" transform="matrix(-10.2860076 6.18045688 -2.06015228 -3.4286692 710 374)"/><path d="m-.5-.5h1v1h-1z" fill="#3f4d4c" transform="matrix(-49.20897552 -72.9553064 3.31615028 -2.2367716 818 490)"/><path d="m-.5-.5h1v1h-1z" fill="#b9b4ae" transform="matrix(-2.69941264 -11.69244076 167.59165116 -38.69158136 774 378)"/><path d="m-.5-.5h1v1h-1z" fill="#8c8a89" transform="matrix(106.35923732 -18.7540032 .69459272 3.939231 754 354)"/><path d="m-.5-.5h1v1h-1z" fill="#373a44" transform="matrix(15.30087608 -4.67794728 1.1694868 3.82521904 554 318)"/><path d="m-.5-.5h1v1h-1z" fill="#848d7e" transform="matrix(-118.6795334 -47.94964396 5.99370548 -14.83494168 406 558)"/><path d="m-.5-.5h1v1h-1z" fill="#82817e" transform="matrix(10.41818096 -30.2565944 3.78207432 1.3022726 734 378)"/><path d="m-.5-.5h1v1h-1z" fill="#5a5e68" transform="matrix(23.38488156 -5.39882532 .8998042 3.89748024 694 206)"/></g></svg>