<svg xmlns="http://www.w3.org/2000/svg" version="1.1" width="1024" height="680">
<rect x="0" y="0" width="1024" height="680" fill="#6e543d" />
<g transform="scale(4.000000) translate(0.5 0.5)">
<polygon fill="#21140a" fill-opacity="0.501961" points="186.552614,152.779375,183.378130,64.307691,154.592677,65.129385,144.464672,131.311783" />
<polygon fill="#a5876d" fill-opacity="0.501961" points="145.917701,184.403687,110.366966,117.493395,217.019089,168.319829,271.000000,78.757214" />
<polygon fill="#bd9f86" fill-opacity="0.501961" points="240.709147,137.363569,214.654827,-16.000000,256.790713,40.593876,216.366585,54.669025" />
<polygon fill="#d0ad8d" fill-opacity="0.501961" points="95.112305,110.058274,68.621391,119.858862,62.236106,109.020371,136.660091,65.142934" />
<polygon fill="#c9a781" fill-opacity="0.501961" points="-16.000000,58.179102,-16.000000,2.589137,53.807967,104.945596,-9.841390,46.527635" />
<polygon fill="#bea793" fill-opacity="0.501961" points="136.997323,22.037117,164.261872,-1.533241,134.382093,-16.000000,191.284522,35.980479" />
<polygon fill="#130601" fill-opacity="0.501961" points="180.793738,-16.000000,135.380622,15.820992,138.263813,51.764287,94.753485,33.150313" />
<polygon fill="#2c1d10" fill-opacity="0.501961" points="-8.840384,182.947491,39.801293,54.840806,17.134619,83.467786,-16.000000,28.615476" />
<polygon fill="#25160c" fill-opacity="0.501961" points="171.811640,37.665545,230.660823,27.202133,212.928936,42.563232,213.083429,88.504225" />
<polygon fill="#17110b" fill-opacity="0.501961" points="39.826588,37.717230,43.985872,1.723355,63.284630,-1.505786,57.851845,56.307235" />
<polygon fill="#251509" fill-opacity="0.501961" points="268.571113,100.181297,239.666755,-13.222215,271.000000,-2.667048,233.946264,98.918806" />
<polygon fill="#b28b69" fill-opacity="0.501961" points="86.819314,34.392540,81.799626,39.098048,25.844144,56.665883,167.748836,63.472254" />
<polygon fill="#c7ac93" fill-opacity="0.501961" points="214.910697,83.077562,195.795143,102.278035,271.000000,113.600790,204.062819,83.109034" />
<polygon fill="#050503" fill-opacity="0.501961" points="231.845082,104.442491,212.456936,127.709649,203.757947,168.561113,203.176281,122.307203" />
<polygon fill="#c0a184" fill-opacity="0.501961" points="-16.000000,159.236678,104.302649,155.052888,4.601962,147.291282,-0.568724,161.911895" />
<polygon fill="#1b0f07" fill-opacity="0.501961" points="93.944775,85.068093,58.050053,55.791959,50.615435,76.404428,136.442391,54.789607" />
<polygon fill="#d5bda9" fill-opacity="0.501961" points="46.799212,14.679599,27.635179,-16.000000,21.835056,-12.546271,26.607550,18.900257" />
<polygon fill="#b18d6a" fill-opacity="0.501961" points="172.498881,113.769499,125.503481,112.471338,151.313625,185.000000,137.810248,89.181297" />
<polygon fill="#040300" fill-opacity="0.501961" points="126.644360,68.112746,158.116120,86.981278,129.661446,94.064067,133.533959,39.464434" />
<polygon fill="#dacabb" fill-opacity="0.501961" points="152.016448,131.398438,130.166849,158.073521,134.788490,159.205467,157.734703,158.203318" />
<polygon fill="#191511" fill-opacity="0.501961" points="33.109005,-16.000000,-16.000000,22.417725,46.050731,17.994522,12.828909,37.053361" />
<polygon fill="#ae8760" fill-opacity="0.501961" points="14.431278,97.977330,58.924335,52.606459,24.744519,31.123360,62.824325,99.936294" />
<polygon fill="#452915" fill-opacity="0.501961" points="25.945342,125.567234,70.432989,94.246268,63.901236,120.872501,78.650627,181.021295" />
<polygon fill="#2a1e12" fill-opacity="0.501961" points="192.098742,152.372442,220.005754,136.678142,192.215383,185.000000,157.466930,98.730703" />
<polygon fill="#19110c" fill-opacity="0.501961" points="194.388953,98.678676,211.587030,149.863512,203.364302,109.425176,125.795566,149.533623" />
<polygon fill="#110c06" fill-opacity="0.501961" points="88.551931,173.684911,136.872720,164.087209,102.127083,117.331439,133.643975,185.000000" />
<polygon fill="#b18b6b" fill-opacity="0.501961" points="93.766522,85.797766,146.703755,52.282459,186.366727,55.339781,148.621903,67.857276" />
<polygon fill="#d6bea5" fill-opacity="0.501961" points="198.647564,147.689491,188.413295,148.134800,193.315062,126.185247,208.971526,147.514204" />
<polygon fill="#c4b3a4" fill-opacity="0.501961" points="50.209962,174.104478,-1.520883,160.823149,31.491928,185.000000,47.065606,149.196777" />
<polygon fill="#200a00" fill-opacity="0.501961" points="218.428801,105.998214,265.031704,128.060718,223.841509,101.680389,215.053587,86.933240" />
<polygon fill="#492913" fill-opacity="0.501961" points="236.510257,135.162891,238.230208,118.698085,265.589379,171.955043,216.934455,155.322860" />
<polygon fill="#c8b9ad" fill-opacity="0.501961" points="228.187026,2.955094,239.867377,14.559028,226.597698,30.949109,214.269064,7.613439" />
<polygon fill="#b89980" fill-opacity="0.501961" points="86.225801,25.791913,103.358927,29.676709,99.819237,-10.227437,81.391478,14.243261" />
<polygon fill="#e5b188" fill-opacity="0.501961" points="101.005335,114.614787,77.886615,126.318678,85.231047,131.917833,102.649250,123.187416" />
<polygon fill="#140d06" fill-opacity="0.501961" points="32.553380,37.509179,23.262186,89.879808,40.345117,56.125398,11.658263,58.038158" />
<polygon fill="#210c00" fill-opacity="0.501961" points="99.121638,164.150135,82.687691,131.463928,71.279532,148.635164,117.262532,141.305385" />
<polygon fill="#281309" fill-opacity="0.501961" points="104.258640,111.549600,92.282950,99.955905,115.514517,97.532893,107.379584,137.161423" />
<polygon fill="#35190d" fill-opacity="0.501961" points="100.032919,-16.000000,137.038164,-16.000000,81.911997,67.318162,108.227364,39.959891" />
<polygon fill="#010000" fill-opacity="0.501961" points="25.631334,74.554535,45.023292,102.373376,29.878376,106.848933,37.554141,99.052776" />
<polygon fill="#18140f" fill-opacity="0.501961" points="162.095000,23.766237,123.280179,62.181483,141.451930,33.742262,161.632589,50.077401" />
<polygon fill="#a37c58" fill-opacity="0.501961" points="29.735879,155.785696,95.272599,162.668792,-16.000000,122.635513,4.936841,113.223013" />
<polygon fill="#130c06" fill-opacity="0.501961" points="52.717763,149.305150,49.889236,174.241796,85.502727,164.952455,48.013053,156.866539" />
<polygon fill="#0a0905" fill-opacity="0.501961" points="67.513611,43.355455,74.272665,40.839720,87.362433,30.945580,77.655503,16.532670" />
<polygon fill="#000000" fill-opacity="0.501961" points="26.983360,146.154815,20.287252,154.353422,2.232983,130.463097,-16.000000,145.182657" />
<polygon fill="#af805c" fill-opacity="0.501961" points="180.028274,109.600607,187.597686,101.728399,233.063405,118.440959,173.568634,87.060197" />
<polygon fill="#af876b" fill-opacity="0.501961" points="188.215424,37.128578,217.105226,27.516135,138.234729,-16.000000,191.528553,20.999659" />
<polygon fill="#cc9d6a" fill-opacity="0.501961" points="138.776384,140.849056,124.311489,153.374083,117.021155,139.276257,142.635182,120.627705" />
<polygon fill="#3f2c1c" fill-opacity="0.501961" points="151.381883,185.000000,157.502052,147.342801,135.771847,109.009338,178.098493,118.605689" />
<polygon fill="#020001" fill-opacity="0.501961" points="82.280616,123.826256,111.652484,102.121348,95.332778,112.363245,69.295877,118.384057" />
<polygon fill="#d6ae8d" fill-opacity="0.501961" points="156.968017,159.565822,190.330762,185.000000,174.709660,166.516073,173.864427,142.764239" />
<polygon fill="#c9b5a1" fill-opacity="0.501961" points="62.953708,118.770999,68.410242,103.476342,87.259442,94.311219,95.638641,108.955934" />
<polygon fill="#2e1b0d" fill-opacity="0.501961" points="271.000000,-7.629533,169.516850,-16.000000,202.288599,22.531174,215.301922,2.250168" />
<polygon fill="#cfbfb0" fill-opacity="0.501961" points="231.718709,101.964354,258.077683,99.065690,251.739839,116.475687,229.600693,105.934553" />
<polygon fill="#a26d3f" fill-opacity="0.501961" points="228.506422,85.850392,271.000000,65.582919,218.609677,54.490200,223.181518,127.718683" />
<polygon fill="#312317" fill-opacity="0.501961" points="59.757751,74.786701,101.455318,99.636291,25.620809,71.423397,65.535030,74.769852" />
<polygon fill="#0f0c09" fill-opacity="0.501961" points="33.182560,160.847295,42.366134,170.968924,-11.368675,154.333171,-9.754549,167.587998" />
<polygon fill="#ba9b83" fill-opacity="0.501961" points="158.002379,35.670460,174.617146,36.443684,172.378554,73.094760,182.598067,55.204841" />
<polygon fill="#000000" fill-opacity="0.501961" points="18.931755,78.694272,6.489527,65.065830,-16.000000,55.952050,19.229674,87.463930" />
<polygon fill="#ccb9a1" fill-opacity="0.501961" points="-13.828079,62.790410,-1.589930,30.892320,18.718135,45.186197,18.257664,50.478650" />
<polygon fill="#0c0f0c" fill-opacity="0.501961" points="264.281343,21.039961,236.279230,26.193696,234.700637,27.964809,255.391130,-5.181743" />
<polygon fill="#cdc1b6" fill-opacity="0.501961" points="18.573359,158.769205,3.887425,159.653710,5.780466,144.389923,17.778860,148.411419" />
<polygon fill="#352315" fill-opacity="0.501961" points="139.968087,73.168395,188.628834,55.688154,181.781067,85.903378,113.594945,97.981900" />
<polygon fill="#ac8d70" fill-opacity="0.501961" points="180.263445,21.105134,123.471027,41.752741,140.611289,29.072300,187.793795,35.416659" />
<polygon fill="#b08a67" fill-opacity="0.501961" points="86.928294,85.966500,51.601630,105.340147,16.365047,67.335932,58.024709,87.186034" />
<polygon fill="#432d1c" fill-opacity="0.501961" points="109.060198,90.324618,237.553269,77.423180,121.549626,93.230451,62.270433,26.241761" />
<polygon fill="#392a1e" fill-opacity="0.501961" points="195.050073,-16.000000,238.372955,45.156958,182.007762,-16.000000,153.975216,35.942764" />
<polygon fill="#d7ab7b" fill-opacity="0.501961" points="253.089005,177.561887,209.646465,185.000000,228.983844,163.477746,244.050990,163.277299" />
<polygon fill="#c0692f" fill-opacity="0.501961" points="185.488931,82.022446,186.720929,62.199880,194.645296,59.501424,207.714257,79.720502" />
<polygon fill="#af8057" fill-opacity="0.501961" points="106.761855,185.000000,67.588040,119.328039,66.243498,140.997574,135.476200,185.000000" />
<polygon fill="#14110d" fill-opacity="0.501961" points="44.969734,185.000000,70.539655,149.291950,84.246670,130.262574,94.158936,128.521960" />
<polygon fill="#b17a4e" fill-opacity="0.501961" points="76.989210,71.528244,66.120879,70.150576,61.192829,76.195298,138.286085,112.134024" />
<polygon fill="#070807" fill-opacity="0.501961" points="68.732250,95.597718,90.301568,96.387868,86.966410,91.207640,55.443450,111.459849" />
<polygon fill="#b7aba1" fill-opacity="0.501961" points="89.132206,64.278023,101.871769,43.252907,104.577413,63.203005,110.661144,61.483861" />
<polygon fill="#0f0400" fill-opacity="0.501961" points="128.888300,154.027194,142.457682,134.146798,151.342569,125.570239,139.330696,145.811210" />
<polygon fill="#caa27c" fill-opacity="0.501961" points="245.297103,141.110136,271.000000,135.288109,263.295866,128.239514,251.206705,124.210304" />
<polygon fill="#cbbcae" fill-opacity="0.501961" points="216.727210,92.957436,204.539433,93.810414,196.556779,109.420997,217.015531,104.456489" />
<polygon fill="#d69861" fill-opacity="0.501961" points="106.376220,164.295065,119.903299,164.801957,120.649288,157.117840,112.808287,148.403694" />
<polygon fill="#b99f89" fill-opacity="0.501961" points="252.319898,25.248518,251.697749,33.984384,223.530215,49.615493,229.944651,28.496647" />
<polygon fill="#2f1d10" fill-opacity="0.501961" points="250.059809,66.526897,227.735931,51.071685,247.031264,76.454211,203.183929,141.437914" />
<polygon fill="#1a1610" fill-opacity="0.501961" points="65.947155,70.094183,26.886187,53.361096,29.235938,77.327553,33.061208,63.505246" />
<polygon fill="#1a1811" fill-opacity="0.501961" points="153.489998,5.234167,171.120675,15.132338,146.882563,-6.040287,133.866751,17.939809" />
<polygon fill="#926542" fill-opacity="0.501961" points="61.558536,132.501286,31.140279,166.301676,51.818506,106.711251,23.875494,110.432161" />
<polygon fill="#010506" fill-opacity="0.501961" points="65.753757,141.067577,54.484774,152.448988,49.255449,149.035862,68.012102,130.573854" />
<polygon fill="#c89f72" fill-opacity="0.501961" points="39.703899,161.657268,25.046014,160.066779,30.064355,139.454496,35.485545,136.882341" />
<polygon fill="#613a21" fill-opacity="0.501961" points="218.495184,58.086569,238.886492,36.441490,265.637665,57.370830,148.295339,43.455589" />
<polygon fill="#11110d" fill-opacity="0.501961" points="49.680695,15.489120,39.331880,-16.000000,86.070864,31.646532,80.220866,13.862257" />
<polygon fill="#000000" fill-opacity="0.501961" points="158.867471,182.918554,153.447200,159.033077,164.444636,168.730697,175.091919,171.054189" />
<polygon fill="#c49f7f" fill-opacity="0.501961" points="111.657157,80.609881,129.667061,84.029196,110.090215,47.274914,125.222675,49.665742" />
<polygon fill="#322719" fill-opacity="0.501961" points="122.749201,67.145729,130.873197,14.462002,132.777703,80.951418,127.063739,75.578794" />
<polygon fill="#17130e" fill-opacity="0.501961" points="218.349581,71.992144,169.734069,35.838348,173.979235,32.163218,212.659407,79.533075" />
<polygon fill="#1f150c" fill-opacity="0.501961" points="76.422100,38.959343,50.878943,44.729426,28.023617,39.779715,38.965731,32.832792" />
<polygon fill="#c69d78" fill-opacity="0.501961" points="48.582181,64.349018,55.461019,58.577557,39.088036,42.610525,28.546914,49.211266" />
<polygon fill="#25180c" fill-opacity="0.501961" points="27.548791,165.668195,17.867025,148.759130,52.700049,102.572354,14.941927,161.606364" />
<polygon fill="#21150b" fill-opacity="0.501961" points="236.935775,141.807099,203.784069,185.000000,229.702780,161.958065,224.486415,137.993808" />
<polygon fill="#c8915a" fill-opacity="0.501961" points="34.766828,98.051341,21.031802,83.277990,18.678140,99.730531,25.194471,103.021338" />
<polygon fill="#352516" fill-opacity="0.501961" points="98.346238,125.826565,136.719647,111.978963,121.727432,81.841858,138.388415,104.471135" />
<polygon fill="#1b1610" fill-opacity="0.501961" points="82.634170,96.639413,22.967304,109.479777,12.936726,78.511961,14.860001,105.816003" />
<polygon fill="#a47c5a" fill-opacity="0.501961" points="59.227773,55.791791,83.112504,66.041572,51.550910,12.440872,70.801650,29.622061" />
<polygon fill="#000000" fill-opacity="0.501961" points="259.322607,182.335117,243.390521,159.506292,271.000000,158.582329,256.738911,170.864191" />
<polygon fill="#110d07" fill-opacity="0.501961" points="31.290938,18.648137,14.248783,17.730326,20.701702,46.493803,8.420925,35.921312" />
<polygon fill="#ab8b6d" fill-opacity="0.501961" points="164.293208,55.307911,175.329321,71.242602,180.854209,57.095755,136.797875,73.201889" />
<polygon fill="#b5855b" fill-opacity="0.501961" points="116.441794,115.721125,154.153946,89.890540,153.950228,113.961429,119.133951,95.349356" />
<polygon fill="#bf845a" fill-opacity="0.501961" points="97.117919,145.127619,85.260570,143.919690,97.860984,131.786630,110.036172,137.994788" />
<polygon fill="#030708" fill-opacity="0.501961" points="171.265012,97.083333,154.708383,108.021572,206.349243,109.849841,177.810642,118.161855" />
<polygon fill="#19150f" fill-opacity="0.501961" points="52.069635,75.380557,70.351640,85.620909,46.550878,36.367554,62.287040,55.754764" />
<polygon fill="#af9989" fill-opacity="0.501961" points="146.460667,11.408785,133.918608,19.272783,155.359238,30.147050,165.653636,18.106131" />
<polygon fill="#c09a7c" fill-opacity="0.501961" points="210.495173,137.117647,240.249211,139.405560,229.745561,124.937595,211.073787,130.732303" />
<polygon fill="#ceac8b" fill-opacity="0.501961" points="188.517340,185.000000,162.947746,185.000000,206.138739,185.000000,220.682220,150.303774" />
<polygon fill="#332516" fill-opacity="0.501961" points="271.000000,76.863640,197.198559,114.342418,244.718448,95.062748,225.118641,83.533392" />
<polygon fill="#c18b5a" fill-opacity="0.501961" points="97.650499,151.567592,71.719714,151.432333,81.549494,185.000000,41.846066,185.000000" />
<polygon fill="#241a13" fill-opacity="0.501961" points="174.268318,76.877695,161.015351,31.618975,111.926090,12.049087,151.142050,30.267355" />
<polygon fill="#9f6f4c" fill-opacity="0.501961" points="31.213841,36.365913,56.356506,31.757363,25.849381,25.174873,21.944687,54.583488" />
<polygon fill="#281a10" fill-opacity="0.501961" points="67.744812,66.917284,100.546082,79.992402,83.715185,85.553182,98.385127,62.990975" />
<polygon fill="#aa6e3f" fill-opacity="0.501961" points="179.449297,127.158158,189.151490,135.666583,196.090770,129.382814,219.552092,110.410614" />
<polygon fill="#ca9e6d" fill-opacity="0.501961" points="21.375838,81.933064,4.573925,58.472444,11.542167,61.502834,27.810213,70.514822" />
<polygon fill="#945131" fill-opacity="0.501961" points="106.442403,34.913403,115.964560,31.374244,108.350223,12.008506,165.413147,-16.000000" />
<polygon fill="#b7865f" fill-opacity="0.501961" points="59.969999,160.038513,43.318033,159.258797,32.078139,185.000000,73.910784,128.838084" />
<polygon fill="#251b12" fill-opacity="0.501961" points="163.739021,94.203224,236.451460,72.080427,179.845916,84.558363,191.702043,41.158672" />
<polygon fill="#c3ab97" fill-opacity="0.501961" points="147.509413,162.249271,146.930911,130.448082,151.329706,135.972567,127.601247,157.221063" />
<polygon fill="#2a1a0e" fill-opacity="0.501961" points="157.737649,158.334549,156.840199,160.977942,124.058759,161.312292,94.294759,185.000000" />
<polygon fill="#aa7f5d" fill-opacity="0.501961" points="132.218007,77.346895,184.429647,49.062301,161.103687,58.568204,140.911793,37.545922" />
<polygon fill="#472d1a" fill-opacity="0.501961" points="104.983267,160.899757,127.542409,123.676249,59.244506,185.000000,77.248565,169.118982" />
<polygon fill="#0a0905" fill-opacity="0.501961" points="141.102024,123.346371,160.317436,141.931001,131.121175,100.596860,153.081856,118.400920" />
<polygon fill="#0b0a08" fill-opacity="0.501961" points="221.856510,123.623863,196.222339,134.597954,199.732606,127.591990,217.308787,115.906877" />
<polygon fill="#2b1e12" fill-opacity="0.501961" points="44.155422,123.743544,41.904831,119.503733,31.015438,118.601886,40.437279,158.194826" />
<polygon fill="#140f09" fill-opacity="0.501961" points="64.672760,116.807792,49.427713,105.606654,50.128800,99.194785,67.183622,135.148451" />
<polygon fill="#c6af98" fill-opacity="0.501961" points="-8.352984,169.807455,22.144192,164.229209,32.527077,169.953185,-8.902701,185.000000" />
<polygon fill="#cca683" fill-opacity="0.501961" points="122.735483,119.613163,120.375561,130.218220,113.066531,131.152963,110.347649,120.826237" />
<polygon fill="#070a09" fill-opacity="0.501961" points="247.045516,127.725656,241.116094,139.902104,243.833131,141.274533,234.740520,124.703776" />
<polygon fill="#927f6c" fill-opacity="0.501961" points="18.780465,12.795946,19.715331,18.516672,12.585734,19.175232,12.764981,6.783598" />
<polygon fill="#b9aba0" fill-opacity="0.501961" points="190.865156,15.217292,184.401321,7.752436,177.090723,4.188961,172.211622,9.650579" />
<polygon fill="#bfa186" fill-opacity="0.501961" points="174.901708,35.010235,183.571186,25.015749,176.272547,14.348038,164.087544,25.275126" />
<polygon fill="#ab7c50" fill-opacity="0.501961" points="28.107790,111.199908,47.361975,114.872684,6.147724,124.329064,17.810401,141.835372" />
<polygon fill="#bf9b7f" fill-opacity="0.501961" points="75.496186,40.324182,92.238576,36.883202,107.657826,65.336880,96.548908,55.101935" />
<polygon fill="#b19b88" fill-opacity="0.501961" points="211.518108,4.359887,226.121969,0.563245,248.046642,18.313229,228.071516,24.306873" />
<polygon fill="#af8864" fill-opacity="0.501961" points="216.601580,37.310419,241.084530,81.248774,213.270534,65.212414,235.396659,41.859345" />
<polygon fill="#3d3024" fill-opacity="0.501961" points="75.500767,31.947215,84.938589,-5.317603,114.514516,-16.000000,58.478772,25.121576" />
<polygon fill="#0f0c09" fill-opacity="0.501961" points="28.077280,81.847696,44.068377,97.895995,22.463501,82.476891,10.118235,99.774003" />
<polygon fill="#0a0b09" fill-opacity="0.501961" points="196.466067,97.250328,160.548388,130.061895,189.257288,111.100004,202.364764,90.792229" />
<polygon fill="#070809" fill-opacity="0.501961" points="171.364715,138.151645,182.434111,159.898616,187.649587,135.384877,178.518452,138.930069" />
<polygon fill="#000200" fill-opacity="0.501961" points="223.544180,108.182921,242.877796,112.546253,251.130892,122.371907,271.000000,123.892580" />
<polygon fill="#9e5f34" fill-opacity="0.501961" points="236.719850,157.170940,271.000000,161.003396,230.493695,146.210461,264.994285,146.626913" />
<polygon fill="#0c0a06" fill-opacity="0.501961" points="-15.453866,21.922876,14.976075,7.911718,27.244290,27.477243,19.634900,0.396131" />
<polygon fill="#0c0702" fill-opacity="0.501961" points="217.890898,51.614263,209.852757,71.034575,222.013582,50.302162,219.995451,42.188830" />
<polygon fill="#ad8762" fill-opacity="0.501961" points="51.408698,68.929059,53.989313,74.591466,34.026494,72.528040,38.148970,64.410169" />
<polygon fill="#af9884" fill-opacity="0.501961" points="22.712452,17.959464,22.312660,-1.779650,31.066449,-16.000000,41.439393,5.036871" />
<polygon fill="#13100a" fill-opacity="0.501961" points="110.457536,64.416211,105.026314,48.549805,115.478704,66.058353,105.770777,80.087008" />
<polygon fill="#8c5836" fill-opacity="0.501961" points="158.207751,74.459569,176.911492,105.801280,193.066158,98.146184,141.224368,79.900118" />
<polygon fill="#76543c" fill-opacity="0.501961" points="154.830045,140.298080,143.256049,140.140981,186.834327,139.761007,171.253131,127.703880" />
<polygon fill="#0d0e0b" fill-opacity="0.501961" points="149.220642,28.018706,126.845509,16.089832,127.736854,31.359830,143.006991,27.165307" />
<polygon fill="#251f18" fill-opacity="0.501961" points="224.671569,30.890412,238.695355,24.963140,206.422333,44.488238,196.257691,33.799152" />
<polygon fill="#02090a" fill-opacity="0.501961" points="2.510571,129.463236,2.321353,146.320591,9.573227,146.086724,6.432328,125.945232" />
<polygon fill="#b19684" fill-opacity="0.501961" points="171.049626,56.819981,171.448120,49.817910,160.137245,36.706431,177.993564,39.456780" />
<polygon fill="#231910" fill-opacity="0.501961" points="127.874346,113.151069,98.877187,121.573454,119.894898,135.358637,93.064853,129.839944" />
<polygon fill="#b49275" fill-opacity="0.501961" points="61.911862,14.209275,58.808219,18.669008,74.042261,35.125862,62.132517,34.404006" />
<polygon fill="#b48b69" fill-opacity="0.501961" points="69.312677,128.973763,67.633896,115.144146,87.011806,131.697499,110.713480,108.292247" />
<polygon fill="#7d5236" fill-opacity="0.501961" points="12.348991,108.374139,-16.000000,137.546855,13.898889,80.107632,-16.000000,79.074250" />
<polygon fill="#ba8957" fill-opacity="0.501961" points="217.450015,86.924214,225.981844,109.995608,235.675200,88.234101,196.886677,85.497430" />
<polygon fill="#c0af9a" fill-opacity="0.501961" points="200.448116,133.067486,187.176283,140.414862,188.986528,147.882558,204.349324,139.976461" />
<polygon fill="#1a1810" fill-opacity="0.501961" points="113.421881,-6.315080,105.012232,42.213313,105.315207,6.452035,80.479373,-16.000000" />
<polygon fill="#2c2115" fill-opacity="0.501961" points="244.512620,87.240207,223.227609,82.733255,194.363250,95.415281,271.000000,70.811269" />
<polygon fill="#8d6342" fill-opacity="0.501961" points="206.434934,59.401026,247.500720,80.672687,217.946148,79.964827,211.774581,34.230075" />
<polygon fill="#9e6840" fill-opacity="0.501961" points="123.256672,185.000000,92.482486,150.537782,107.765198,147.819579,72.619145,185.000000" />
<polygon fill="#aa7647" fill-opacity="0.501961" points="91.393658,89.945993,96.001145,79.091078,119.519827,90.406555,100.350804,103.961048" />
<polygon fill="#302925" fill-opacity="0.501961" points="38.411343,152.534897,74.267100,181.049045,45.971737,157.454468,30.104709,173.758379" />
<polygon fill="#3a291b" fill-opacity="0.501961" points="128.933028,123.155097,149.784905,128.235856,160.718013,112.997771,113.712946,135.778173" />
<polygon fill="#130c06" fill-opacity="0.501961" points="180.295147,49.284925,201.068309,55.935749,184.572346,61.566205,185.419884,66.711492" />
<polygon fill="#674327" fill-opacity="0.501961" points="170.933189,185.000000,219.994416,152.751374,204.080716,141.832078,225.412602,136.410516" />
<polygon fill="#29170b" fill-opacity="0.501961" points="104.250882,143.392054,95.024220,152.623303,77.059614,144.318600,63.321903,146.698298" />
<polygon fill="#18100c" fill-opacity="0.501961" points="137.251508,84.658570,76.536081,124.966646,80.776527,124.603918,111.108675,97.790969" />
<polygon fill="#b09c8e" fill-opacity="0.501961" points="40.089513,140.411456,43.091105,161.485544,50.912454,149.303827,37.172498,145.633215" />
<polygon fill="#1e1a14" fill-opacity="0.501961" points="-16.000000,162.997966,-3.068917,149.096193,5.968688,159.935359,43.150568,164.676325" />
<polygon fill="#8c623f" fill-opacity="0.501961" points="205.986902,24.189043,184.739043,19.395004,203.549407,3.336874,186.262886,-3.048931" />
<polygon fill="#251b12" fill-opacity="0.501961" points="6.651323,22.825522,38.376204,26.059176,47.225089,24.867118,10.021435,15.250420" />
<polygon fill="#513825" fill-opacity="0.501961" points="73.492876,50.808410,36.767321,75.205864,77.979195,50.770535,78.443557,40.750184" />
<polygon fill="#b69d88" fill-opacity="0.501961" points="251.633061,23.021658,251.401240,44.279295,232.003291,34.612243,230.974469,32.888175" />
<polygon fill="#b88f65" fill-opacity="0.501961" points="28.260516,160.623764,19.927259,158.411215,34.747288,131.142608,37.513704,128.522053" />
<polygon fill="#bd9879" fill-opacity="0.501961" points="178.411644,150.422453,151.247290,165.956516,166.334205,160.302679,181.264463,163.352469" />
<polygon fill="#9c7959" fill-opacity="0.501961" points="204.473654,109.540834,211.527180,123.756644,216.141785,112.615206,242.477735,102.025688" />
<polygon fill="#a97853" fill-opacity="0.501961" points="61.746610,67.184595,86.668990,76.215105,76.661080,108.453254,80.433005,93.271696" />
<polygon fill="#a1846c" fill-opacity="0.501961" points="170.398634,118.199258,107.244329,78.198762,122.997820,61.175800,122.638523,84.757905" />
<polygon fill="#b88453" fill-opacity="0.501961" points="204.242581,91.113153,200.761685,84.746384,243.777989,79.672537,228.957696,76.616984" />
<polygon fill="#1e170f" fill-opacity="0.501961" points="179.766764,-7.097535,172.663247,-0.617392,161.564865,27.812684,168.471438,16.841871" />
<polygon fill="#aa8c6d" fill-opacity="0.501961" points="137.743483,28.800904,142.431472,28.037780,147.436486,37.430479,130.672535,34.762997" />
<polygon fill="#1a150f" fill-opacity="0.501961" points="198.631080,65.369087,201.849310,44.374601,212.001253,73.886670,228.088856,73.968907" />
<polygon fill="#1e1913" fill-opacity="0.501961" points="187.191466,82.277929,214.459467,82.942834,212.550094,60.247949,197.322259,91.096738" />
<polygon fill="#1f1811" fill-opacity="0.501961" points="188.345594,27.468560,189.101801,39.058143,164.421341,31.497750,183.017409,43.755692" />
<polygon fill="#c0a68d" fill-opacity="0.501961" points="98.323147,108.253184,93.163223,96.584955,56.666431,117.575295,89.459841,112.876043" />
<polygon fill="#251b11" fill-opacity="0.501961" points="45.872693,106.027381,79.051941,96.058291,76.917201,91.563151,64.040374,111.450209" />
<polygon fill="#201b12" fill-opacity="0.501961" points="229.611260,-16.000000,181.250337,18.907569,233.963169,-5.908050,271.000000,17.348806" />
<polygon fill="#a27353" fill-opacity="0.501961" points="-0.632996,34.230690,34.004349,26.609973,34.429685,37.311108,1.237954,22.258514" />
<polygon fill="#030809" fill-opacity="0.501961" points="-1.157637,59.616666,-16.000000,43.667738,18.438439,77.367966,-16.000000,74.365655" />
<polygon fill="#2d2419" fill-opacity="0.501961" points="70.396480,118.508508,53.620493,138.364082,70.104269,131.843433,54.527156,115.111965" />
<polygon fill="#26180d" fill-opacity="0.501961" points="99.714280,140.373442,131.019046,153.900381,154.712566,124.097728,125.798015,154.864841" />
<polygon fill="#110f0b" fill-opacity="0.501961" points="212.820376,123.494863,217.781737,111.575458,242.690224,112.799220,231.203244,107.289625" />
<polygon fill="#9d572d" fill-opacity="0.501961" points="250.801443,70.612769,271.000000,97.847737,241.207018,43.827742,232.265769,48.565178" />
<polygon fill="#ad8159" fill-opacity="0.501961" points="135.261086,101.488662,157.602912,119.163169,147.704045,95.284378,133.122762,94.306515" />
<polygon fill="#0f0903" fill-opacity="0.501961" points="206.384799,144.096468,206.882646,140.406137,218.188544,139.194414,226.769937,138.398501" />
<polygon fill="#453425" fill-opacity="0.501961" points="191.579026,169.448739,188.437190,148.876144,208.341568,149.438876,169.572027,165.362614" />
<polygon fill="#322519" fill-opacity="0.501961" points="22.239653,50.256612,36.467370,68.710688,29.920244,53.098839,-16.000000,65.168048" />
<polygon fill="#201710" fill-opacity="0.501961" points="222.626403,125.762635,194.144504,112.650828,206.259162,108.215278,207.749301,122.323397" />
<polygon fill="#000006" fill-opacity="0.501961" points="142.929126,86.851574,159.029006,89.963089,132.662916,78.437110,132.789387,86.675237" />
<polygon fill="#050805" fill-opacity="0.501961" points="232.231609,-16.000000,261.630847,22.010842,251.504248,42.459927,262.292558,-16.000000" />
<polygon fill="#3a2719" fill-opacity="0.501961" points="106.447973,79.479381,129.090485,93.980865,72.739392,67.770379,122.451035,60.956340" />
<polygon fill="#c4ac96" fill-opacity="0.501961" points="40.117965,159.562437,38.109009,168.085630,53.220000,185.000000,47.442697,164.453135" />
<polygon fill="#b18965" fill-opacity="0.501961" points="46.049972,103.290622,59.022421,102.337899,60.895920,99.683665,33.981545,75.654952" />
<polygon fill="#b4916d" fill-opacity="0.501961" points="154.132505,0.495113,166.128470,8.725534,177.705490,-6.623958,167.936122,2.246574" />
<polygon fill="#160f09" fill-opacity="0.501961" points="92.275241,94.378772,101.081723,107.360200,110.607177,97.568366,104.083427,105.699457" />
<polygon fill="#0a0a05" fill-opacity="0.501961" points="40.919380,94.207617,29.498050,106.463287,19.131348,106.818278,45.162165,104.355984" />
<polygon fill="#13100b" fill-opacity="0.501961" points="109.403098,145.179099,133.114010,166.581103,114.860722,140.739625,87.323687,147.806828" />
<polygon fill="#b99474" fill-opacity="0.501961" points="88.796168,123.690793,105.483919,105.578147,103.305770,114.962714,90.227386,130.800212" />
<polygon fill="#020709" fill-opacity="0.501961" points="176.350848,118.242544,181.243165,116.747315,172.267159,98.472641,161.372462,95.916725" />
<polygon fill="#ba8857" fill-opacity="0.501961" points="36.204817,88.975807,34.687474,103.099834,26.092157,104.211593,21.297172,88.440298" />
<polygon fill="#443225" fill-opacity="0.501961" points="60.448009,82.601068,39.118987,117.507584,66.952143,81.561430,42.213277,72.770901" />
<polygon fill="#030b09" fill-opacity="0.501961" points="125.690330,5.523249,83.259135,-10.823809,82.512522,5.470941,125.562705,-16.000000" />
<polygon fill="#000202" fill-opacity="0.501961" points="131.122076,38.647411,160.717819,34.419470,127.475449,43.603229,138.421225,43.257954" />
<polygon fill="#bc986f" fill-opacity="0.501961" points="136.900607,138.823695,121.727354,133.128322,144.216590,116.871855,128.866842,114.912142" />
<polygon fill="#b99168" fill-opacity="0.501961" points="222.748122,56.355269,229.022340,73.169636,240.386413,65.728935,237.969091,62.725080" />
<polygon fill="#1d1a16" fill-opacity="0.501961" points="65.113579,140.855762,46.454102,143.884404,71.082387,185.000000,46.364153,158.185747" />
<polygon fill="#17120d" fill-opacity="0.501961" points="54.724918,106.533873,85.389545,94.521736,91.503444,96.430774,87.481489,87.967872" />
<polygon fill="#b98a62" fill-opacity="0.501961" points="105.782455,46.073813,114.133043,63.115861,125.756394,54.603049,87.434787,34.932439" />
<polygon fill="#a78c76" fill-opacity="0.501961" points="37.706853,-11.131612,37.189627,33.958792,18.860737,-16.000000,-5.233083,7.224524" />
<polygon fill="#110c06" fill-opacity="0.501961" points="21.152454,106.821546,-8.375208,96.848371,30.912305,110.341139,9.789210,92.874250" />
<polygon fill="#815331" fill-opacity="0.501961" points="33.994375,105.457823,60.426686,106.865272,36.202863,146.003818,61.669440,135.059861" />
<polygon fill="#0c0b09" fill-opacity="0.501961" points="76.042472,121.898351,86.798027,114.356378,77.093857,129.209840,85.120990,139.995002" />
<polygon fill="#281e14" fill-opacity="0.501961" points="2.375890,124.300949,19.724472,118.368908,17.430876,89.119972,10.094047,117.417252" />
<polygon fill="#151512" fill-opacity="0.501961" points="168.211132,58.330877,171.963422,75.237673,148.822850,68.250075,162.583627,66.539912" />
<polygon fill="#221b11" fill-opacity="0.501961" points="90.040775,30.581546,53.543251,45.512103,51.489849,17.337180,62.383938,37.372186" />
<polygon fill="#917561" fill-opacity="0.501961" points="49.240647,-16.000000,72.519636,13.544053,85.369891,-16.000000,82.614352,6.234939" />
<polygon fill="#c0af9e" fill-opacity="0.501961" points="17.505189,149.769419,11.626255,163.321558,1.063567,153.100399,6.020526,146.371422" />
<polygon fill="#ac9885" fill-opacity="0.501961" points="23.263315,15.428599,11.785715,10.308039,18.231515,18.346186,53.008569,-16.000000" />
<polygon fill="#1f1610" fill-opacity="0.501961" points="221.252609,49.981095,211.946447,64.616655,221.205817,41.969252,210.290820,30.507151" />
<polygon fill="#7e736e" fill-opacity="0.501961" points="163.855303,117.695867,154.829501,110.898097,174.752227,111.844557,164.307830,106.362225" />
<polygon fill="#533a26" fill-opacity="0.501961" points="210.843127,119.997583,169.809761,125.346510,186.942914,114.313146,233.218948,127.540740" />
<polygon fill="#7f573d" fill-opacity="0.501961" points="260.174185,98.995771,236.721914,93.991342,241.002445,91.687636,241.687474,87.950145" />
<polygon fill="#010303" fill-opacity="0.501961" points="249.656312,65.872921,242.302939,67.477249,237.278060,71.350117,248.912784,70.486223" />
<polygon fill="#ab6a3b" fill-opacity="0.501961" points="203.585931,70.458833,196.950363,62.938782,181.365482,75.120021,182.818512,81.071079" />
<polygon fill="#090a0a" fill-opacity="0.501961" points="30.475507,72.614781,24.317542,75.604867,43.131465,61.223607,32.698847,55.545228" />
<polygon fill="#a77a57" fill-opacity="0.501961" points="67.888851,59.609021,68.889178,65.139360,80.291141,66.363756,91.948665,50.112506" />
<polygon fill="#61432e" fill-opacity="0.501961" points="200.392884,54.142201,166.354009,47.181826,207.964986,37.397227,196.384133,50.726591" />
<polygon fill="#281e15" fill-opacity="0.501961" points="189.853295,139.057794,218.137622,119.720642,183.630157,139.857490,148.816880,92.622492" />
<polygon fill="#0d0c09" fill-opacity="0.501961" points="42.910939,124.657096,24.419140,118.175211,31.200090,118.571876,42.787835,137.770074" />
<polygon fill="#613b22" fill-opacity="0.501961" points="151.566118,90.449311,171.299160,75.023745,150.396063,122.630396,159.531313,128.574960" />
<polygon fill="#1b1711" fill-opacity="0.501961" points="92.629090,176.231854,111.131602,185.000000,80.333024,162.373679,89.992127,160.626060" />
<polygon fill="#2e251b" fill-opacity="0.501961" points="22.197838,146.606093,21.572792,159.040652,42.536441,164.774353,14.654817,165.530215" />
<polygon fill="#ab6c3a" fill-opacity="0.501961" points="205.104996,154.642000,218.016406,151.546104,230.303857,148.173196,218.224554,140.028353" />
<polygon fill="#ae7754" fill-opacity="0.501961" points="204.867864,23.592480,208.113525,16.119920,217.712571,30.083439,182.034980,35.691370" />
<polygon fill="#1d120b" fill-opacity="0.501961" points="101.121314,159.494057,139.176365,185.000000,109.406414,167.920166,103.764505,147.099016" />
<polygon fill="#100d07" fill-opacity="0.501961" points="-2.187916,0.440911,9.986389,7.673371,3.861986,13.191518,16.024702,19.226347" />
<polygon fill="#7c4f31" fill-opacity="0.501961" points="99.636634,40.321681,119.792470,40.262037,140.892575,51.755351,141.527625,53.019341" />
<polygon fill="#1b1811" fill-opacity="0.501961" points="76.550932,86.288184,54.103567,74.523481,36.337332,71.913197,79.496138,87.931530" />
<polygon fill="#7c4f31" fill-opacity="0.501961" points="219.388456,31.637462,271.000000,52.027454,251.895751,76.273010,254.357381,51.559097" />
<polygon fill="#080a07" fill-opacity="0.501961" points="152.612281,-9.561761,153.057556,2.430313,142.744115,11.049283,130.005947,24.033903" />
<polygon fill="#b5855a" fill-opacity="0.501961" points="109.150020,149.131883,116.783309,151.622864,115.807532,166.749496,106.748478,162.129599" />
<polygon fill="#b6895f" fill-opacity="0.501961" points="67.307302,161.226756,81.952522,149.072646,90.340073,153.167132,87.406498,161.980459" />
<polygon fill="#100d09" fill-opacity="0.501961" points="232.102180,152.715237,220.123214,153.521482,236.655620,143.040481,226.061444,141.254021" />
<polygon fill="#8f7351" fill-opacity="0.501961" points="136.181868,13.727282,153.594646,-16.000000,108.617637,-16.000000,134.081724,10.229122" />
<polygon fill="#413324" fill-opacity="0.501961" points="224.714959,-13.445872,203.686436,19.405949,180.390816,38.633461,211.510630,5.260926" />
<polygon fill="#0f0f0c" fill-opacity="0.501961" points="214.172961,37.490706,227.734561,32.067969,224.712094,29.519734,198.191308,35.141510" />
<polygon fill="#93735a" fill-opacity="0.501961" points="66.332073,14.695896,53.226630,17.922768,66.609388,32.846987,61.795117,33.324820" />
<polygon fill="#ad7d56" fill-opacity="0.501961" points="78.272709,140.854175,59.007865,151.101723,67.093610,150.335367,71.555875,118.129404" />
<polygon fill="#ac7a56" fill-opacity="0.501961" points="223.679324,111.878198,224.005208,122.832578,245.880171,126.416501,247.989922,123.254946" />
<polygon fill="#7e5c3b" fill-opacity="0.501961" points="34.497679,60.417549,0.889503,62.153502,2.816219,54.635480,24.720311,56.716719" />
<polygon fill="#ab8b6a" fill-opacity="0.501961" points="1.044683,130.592331,6.623600,118.025879,-16.000000,118.513906,-16.000000,144.355786" />
<polygon fill="#a2724d" fill-opacity="0.501961" points="58.615360,73.782666,57.275272,77.949037,84.687393,77.901117,86.597190,85.105214" />
<polygon fill="#050807" fill-opacity="0.501961" points="138.783734,37.376207,127.857620,56.753905,124.700950,56.236673,130.646898,62.688878" />
<polygon fill="#5e3827" fill-opacity="0.501961" points="123.754322,37.626412,116.430154,-4.482358,116.734672,22.128708,92.527666,14.938515" />
<polygon fill="#b89e89" fill-opacity="0.501961" points="189.980820,8.741644,176.174726,9.286829,189.941202,18.481041,183.990398,25.096487" />
<polygon fill="#190f08" fill-opacity="0.501961" points="245.948516,49.908992,251.164236,61.800775,254.393916,50.143225,261.072618,50.904695" />
<polygon fill="#372f27" fill-opacity="0.501961" points="164.369216,6.068699,181.097581,19.003301,192.882385,10.572337,187.311564,16.302043" />
<polygon fill="#2d2115" fill-opacity="0.501961" points="131.616219,127.669539,125.863727,126.673219,117.622634,116.659006,121.704603,116.984983" />
<polygon fill="#17130d" fill-opacity="0.501961" points="66.868641,167.616723,70.122498,144.132871,74.748042,151.188950,51.160171,165.679201" />
<polygon fill="#1c1510" fill-opacity="0.501961" points="29.779301,85.032057,22.904012,84.384709,40.595439,91.328408,42.813869,100.707955" />
<polygon fill="#a78d78" fill-opacity="0.501961" points="106.585446,22.445791,101.244792,30.724144,86.219268,16.154706,89.367876,16.362441" />
<polygon fill="#10110e" fill-opacity="0.501961" points="102.050582,43.373528,116.235725,37.623887,96.589709,33.321487,110.649378,22.766010" />
<polygon fill="#957150" fill-opacity="0.501961" points="207.052227,7.302035,195.056923,5.676046,196.995869,11.429431,173.091019,32.710452" />
<polygon fill="#211c14" fill-opacity="0.501961" points="8.712285,115.373731,0.482372,163.147029,19.205657,158.863208,-16.000000,176.405956" />
<polygon fill="#020607" fill-opacity="0.501961" points="206.812429,142.570369,206.731214,148.569883,210.339417,120.778812,201.839333,126.801139" />
<polygon fill="#2b2015" fill-opacity="0.501961" points="37.819955,34.197789,42.813951,20.464503,36.278417,23.640667,62.252594,55.109373" />
<polygon fill="#b09277" fill-opacity="0.501961" points="219.781406,34.391629,236.788151,39.839258,230.885278,48.011328,217.790212,35.921273" />
<polygon fill="#beb4aa" fill-opacity="0.501961" points="99.379419,61.838709,92.400936,60.760384,93.718733,55.938476,104.665417,44.445526" />
<polygon fill="#b9a48f" fill-opacity="0.501961" points="148.984123,129.705730,154.913702,141.925459,157.229084,152.831254,139.249208,160.015434" />
<polygon fill="#22180f" fill-opacity="0.501961" points="241.359527,132.884392,253.762817,122.053882,268.070649,144.296397,258.914979,111.679795" />
<polygon fill="#2f241a" fill-opacity="0.501961" points="55.767077,128.872534,92.724283,134.687687,46.658976,125.186480,65.283696,115.480283" />
<polygon fill="#6c4c35" fill-opacity="0.501961" points="51.824553,33.822880,43.902604,36.144788,42.756079,19.018508,41.951133,-8.698951" />
<polygon fill="#8e492a" fill-opacity="0.501961" points="110.063357,24.518894,113.022180,16.221580,113.841863,1.438364,134.275419,14.283498" />
<polygon fill="#b18d6b" fill-opacity="0.501961" points="51.101797,65.841850,71.871255,39.217013,56.823116,61.279269,32.075474,49.509525" />
<polygon fill="#15130f" fill-opacity="0.501961" points="144.031515,124.453342,146.650438,110.019795,151.313609,118.644398,157.642449,143.316790" />
<polygon fill="#2f2315" fill-opacity="0.501961" points="127.913865,95.758703,139.926419,113.579336,129.484061,83.385424,130.629532,82.621589" />
<polygon fill="#b79775" fill-opacity="0.501961" points="117.228718,116.413741,112.293720,131.719868,140.833767,131.650035,127.342553,145.248838" />
<polygon fill="#221b13" fill-opacity="0.501961" points="146.861885,23.848002,166.651100,46.130344,149.052499,52.978187,162.280906,49.419622" />
<polygon fill="#93633d" fill-opacity="0.501961" points="57.296408,141.057931,56.008817,127.236109,39.129577,137.874391,35.292345,146.103489" />
<polygon fill="#2c1e12" fill-opacity="0.501961" points="221.744217,118.879392,218.453595,87.855942,196.948102,56.084670,216.115290,87.499466" />
<polygon fill="#100e09" fill-opacity="0.501961" points="209.236587,185.000000,254.833748,168.077251,196.458846,185.000000,228.575038,156.882865" />
<polygon fill="#a5744e" fill-opacity="0.501961" points="189.901229,133.553493,174.462564,122.239636,198.073897,127.753659,186.308441,151.654773" />
<polygon fill="#19140e" fill-opacity="0.501961" points="246.522383,81.892630,231.691492,97.882006,239.903986,99.756064,231.598620,81.919712" />
<polygon fill="#b2a28f" fill-opacity="0.501961" points="205.946013,144.164249,204.094284,133.873725,185.541168,144.806484,197.213444,148.581668" />
<polygon fill="#302214" fill-opacity="0.501961" points="192.569967,8.780548,212.677370,18.265518,190.149988,-16.000000,217.389846,13.038260" />
<polygon fill="#ac8e79" fill-opacity="0.501961" points="119.800036,86.231075,120.031390,64.081172,107.953120,78.637814,107.509756,81.768262" />
<polygon fill="#bb946f" fill-opacity="0.501961" points="40.250236,71.638838,37.145789,65.367986,45.999640,65.786054,51.426490,73.697177" />
</g>
</svg>