<svg height="680" width="1024" xmlns="http://www.w3.org/2000/svg"><path d="m0 0h1024v680h-1024z" fill="#cacaca"/><g fill="none" stroke-opacity=".501961" stroke-width=".5" transform="matrix(4 0 0 4 2 2)"><path d="m-11.935883 165.288997q31.525694-136.710652 168.749786-62.301979" stroke="#000"/><path d="m152.473104 108.39852q-113.879017-69.859158-144.773405 13.720353" stroke="#000"/><path d="m-16 136.849105q189.239014-65.855784 218.609515-61.496215" stroke="#000"/><path d="m23.99464 148.105316q158.628656-113.903937 217.772617-45.855352" stroke="#040404"/><path d="m13.359342 87.213902q138.890168-39.571692 150.269378 91.136083" stroke="#000"/><path d="m232.643314 86.731867q-72.123938-34.410904-128.020436 35.29914" stroke="#000"/><path d="m271 125.051467q-46.708472-93.879333-215.723033-4.308078" stroke="#000"/><path d="m129.603158 107.076694q-68.118278-78.374815-143.287724 36.787392" stroke="#000"/><path d="m237.254894 83.8367q-71.549805-23.099329-102.466931 11.926495" stroke="#000"/><path d="m129.874144 90.792263q-109.800763-37.947813-108.103125 41.448609" stroke="#000"/><path d="m153.928575 98.734236q-107.654517-45.84746-124.154707 6.663446" stroke="#000"/><path d="m-6.810494 130.82932q98.526342-34.026539 192.75847-56.30739" stroke="#000"/><path d="m33.502625 130.687227q172.695853-95.480259 197.680171-24.699236" stroke="#000"/><path d="m177.104848 75.085357q-139.395359 54.358932-154.111234 4.777258" stroke="#000"/><path d="m150.666792 129.412629q-16.033929-65.301122-121.624983-48.207131" stroke="#000"/><path d="m-4.525438 120.62948q61.30891-79.49266 126.844552-20.85599" stroke="#000"/><path d="m-16 119.333817q12.459311 32.117692 189.313573-43.051368" stroke="#131313"/><path d="m18.661002 114.476791q24.33566-71.755459 125.42535-8.854198" stroke="#000"/><path d="m-16 139.099124q120.434098-62.372306 232.457386-62.495589" stroke="#161616"/><path d="m49.773175 72.467284q-34.054192 33.442087 7.559535 68.905529" stroke="#000"/><path d="m-7.969949 135.552731q203.4734-70.358554 208.539087-59.10106" stroke="#0c0c0c"/><path d="m207.253849 76.890168q31.362856 30.822894-7.964247 62.598405" stroke="#000"/><path d="m136.553351 101.732871q19.755405-41.343835 96.427058-13.22721" stroke="#000"/><path d="m-16 113.398624q100.816984-82.486855 166.811164 14.48883" stroke="#000"/><path d="m88.487768 109.447017q-50.533225 38.67345-63.505488-30.167418" stroke="#000"/><path d="m150.362388 94.012639q-125.113927-50.457681-155.078504 44.350428" stroke="#000"/><path d="m208.748675 132.013983q29.226195-31.111498-3.30475-56.740101" stroke="#000"/><path d="m29.862539 129.482162q162.745753-87.737993 202.471061-32.51257" stroke="#0b0b0b"/><path d="m130.146449 85.390829q-86.585527 60.039366-105.013444-4.958987" stroke="#010101"/><path d="m177.192657 149.041647q70.673083-28.026328 33.351805-77.265922" stroke="#000"/><path d="m18.930328 86.65874q101.615635-27.232383 131.454306 41.518437" stroke="#000"/><path d="m114.173394 93.104644q4.588888 22.388036-22.991049 47.795674" stroke="#000"/><path d="m40.060416 76.159917q-21.522866 45.657419 24.440342 66.570106" stroke="#000"/><path d="m-15.614985 134.865004q123.682321-59.271085 167.482216-45.537697" stroke="#181818"/><path d="m146.845609 101.416751q-19.385974-40.700757-121.86798 25.558515" stroke="#0f0f0f"/><path d="m59.247039 76.359304q-41.640676 10.764345-10.531272 58.792645" stroke="#000"/><path d="m185.667059 79.132039q48.062161-7.499485 35.919564 34.409594" stroke="#000"/><path d="m150.482274 79.618737q-18.287618 26.249613 11.332519 59.932078" stroke="#000"/><path d="m103.567158 128.741422q27.303758-48.047746-22.147308-52.529603" stroke="#000"/><path d="m31.132198 76.045824q-6.009403 61.230347 46.394366 44.69079" stroke="#000"/><path d="m164.865335 139.558679q-38.912031-30.191071-13.802126-54.261071" stroke="#000"/><path d="m3.809792 126.086292q49.288801-79.109071 112.781897-30.555545" stroke="#000"/><path d="m97.215355 79.633285q39.140676 24.901411-9.003731 63.120235" stroke="#000"/><path d="m22.793241 83.025181q84.412132-20.128435 90.033367 20.932905" stroke="#000"/><path d="m133.689518 92.157253q69.123165-30.008826 97.753098-1.289526" stroke="#000"/><path d="m153.185191 132.015734q-32.048237-40.729123 16.368115-55.857068" stroke="#000"/><path d="m79.909544 115.496301q-49.837455 22.424497-50.341525-37.495139" stroke="#000"/><path d="m139.066061 71.861153q-2.535277 95.371366 80.506543 60.499761" stroke="#141414"/><path d="m205.084739 76.012114q29.202127 5.827527 7.216271 51.247091" stroke="#000"/><path d="m179.114963 143.19021q46.781285-4.012795 43.847706-66.313187" stroke="#000"/><path d="m146.544328 102.517869q-19.643884-41.440188-118.415161 27.393188" stroke="#151515"/><path d="m57.286015 70.858518q-53.651335 33.921248 7.106865 71.749857" stroke="#000"/><path d="m123.96194 97.659147q-80.687845-57.610825-101.146983 34.327793" stroke="#000"/><path d="m143.713647 95.229854q-106.636814-33.43141-120.318154-3.58809" stroke="#000"/><path d="m21.871737 90.070445q15.433429-14.29763 45.215305 35.250592" stroke="#000"/><path d="m174.561326 141.170346q48.861157 8.335235 52.710838-66.402982" stroke="#030303"/><path d="m87.117728 114.036788q-53.884344 19.125257-62.848425-32.374629" stroke="#000"/><path d="m86.467367 76.300023q45.3183 20.277627 16.883303 55.22394" stroke="#000"/><path d="m233.287776 92.375184q-20.491159-43.406317-170.515113 25.194499" stroke="#000"/><path d="m51.711593 137.350203q-24.089951-17.020522-10.740545-57.290151" stroke="#000"/><path d="m156.242473 135.955352q-27.606605-45.172842 8.656239-57.425222" stroke="#000"/><path d="m32.983471 81.019226q-6.450163 45.345898 47.780738 33.763374" stroke="#000"/><path d="m92.308343 138.695384q35.597176-20.733234 7.782746-61.397985" stroke="#000"/><path d="m23.923501 85.14036q34.088029 17.898585 42.671076 44.400242" stroke="#000"/><path d="m219.710968 118.447505q8.935197-47.130605-32.515157-43.29281" stroke="#000"/><path d="m142.800244 93.987456q-98.499537-44.620129-131.528053 28.150747" stroke="#080808"/><path d="m142.104429 86.203348q-4.100674 53.534373 47.000612 57.956283" stroke="#000"/><path d="m219.763099 76.761881q18.288988 14.823107-13.127787 58.30554" stroke="#000"/><path d="m-16 136.320084q201.21585-81.028553 249.747618-51.291496" stroke="#161616"/><g stroke="#000"><path d="m153.442615 133.183736q-21.729853-26.288022.601809-52.054981"/><path d="m15.315603 93.879508q38.243045-29.600861 130.945794-2.431174"/><path d="m78.135692 122.707101q-58.789033 13.340119-42.592988-43.069837"/><path d="m67.917465 128.986688q3.733883-15.203294-44.114211-45.848049"/><path d="m22.908748 91.881765q43.091207 21.325355 39.990417 36.730627"/><path d="m145.945943 93.562004q-34.548168-16.250776-35.702903 24.587717"/><path d="m218.917882 106.648979q8.1632-33.411755-49.101939-31.022797"/><path d="m232.835621 92.389699q-32.346419-24.345116-68.466766-15.667054"/><path d="m195.831598 73.935857q49.182515 17.846728 8.064865 60.294618"/><path d="m44.360878 130.94355q-24.367194-25.937637 7.635653-55.819619"/><path d="m113.855783 86.822463q7.058809 19.755842-8.745655 43.864443"/><path d="m221.86311 79.156352q8.818097 49.656189-28.149924 59.735376"/><path d="m36.457849 79.239979q-12.797471 45.553978 36.482295 41.817787"/><path d="m30.127054 81.590196q-8.67091 27.760346 41.387962 38.576671"/><path d="m131.871923 84.975911q-20.090907-3.545635-25.228518 43.429046"/><path d="m110.979576 121.395915q-5.623668-42.826661 34.464417-31.607908"/><path d="m69.902557 123.899155q-24.986978-37.772024-45.952219-42.113431"/><path d="m231.646609 95.8553q-16.659425-17.034133-47.623028-19.485736"/><path d="m53.819784 136.875097q-37.191077-37.894509-.691943-60.321496"/><path d="m213.973801 126.67216q23.123546-36.990606-2.247655-49.903179"/><path d="m41.780983 78.016233q-16.764546 30.600168 4.260397 52.79464"/><path d="m94.499687 139.597686q28.569768-35.537755 15.603405-50.33694"/><path d="m159.8131 137.692057q-17.985843-18.735069-18.643103-49.610915"/><path d="m22.51538 84.992218q42.565977 25.853625 39.052963 44.073133"/></g><path d="m146.166585 97.771614q-25.49103-31.456959-138.410365 24.743119" stroke="#353535"/><path d="m251.150729 131.69571q19.849271-147.69571-265.341992-128.538921" stroke="#fff"/><path d="m255.294541 129.589095q12.822464-145.589095-261.134417-129.194622" stroke="#fff"/><path d="m195.532867 125.404856q6.673543-22.736268 35.140525-45.227868" stroke="#0c0c0c"/><path d="m17.726164 103.153419q30.448384-38.58655 93.319214-18.177393" stroke="#000"/><path d="m225.094112 98.961085q12.140578-19.179984-12.014944-21.791536" stroke="#000"/><path d="m-4.136 5.142228q147.192646-17.853878 260.312898 98.464241" stroke="#fff"/><path d="m232.99328 86.731094q-34.782319-14.410957-78.55142-6.47124" stroke="#000"/><path d="m218.113291 125.408491q-4.535381-16.662064 14.474302-42.674507" stroke="#000"/><path d="m146.59364 124.315331q-14.851525-52.438579 41.492601-48.113972" stroke="#000"/><path d="m148.745737 85.416313q-16.216625 6.170675 10.046228 54.254471" stroke="#000"/><path d="m65.642075 126.269658q-10.856097-37.6881-43.712635-34.978086" stroke="#000"/><path d="m234.175258 83.668917q-54.629334-18.217641-101.08959 7.851739" stroke="#000"/><path d="m259.846555 97.288553q-160.903265-107.600547-255.130395-97.346078" stroke="#fff"/><path d="m73.33467 120.262624q-44.211425 20.475791-46.259119-38.644838" stroke="#0e0e0e"/><path d="m-16 8.21068q287-22.612557 264.837725 123.573041" stroke="#fff"/><path d="m105.235705 128.772951q17.90845-27.909392-2.858355-46.02544" stroke="#000"/><path d="m247.037921 132.81372q23.962079-136.81467-233.707168-124.837034" stroke="#fff"/><path d="m78.747089 110.9825q-54.595298 35.616499-92.048011-6.452292" stroke="#383838"/><path d="m2.755781 15.091993q253.433838-31.091993 237.268 125.823229" stroke="#fff"/><path d="m14.674964 124.566549q9.041176-77.127146 106.06126-31.820917" stroke="#0f0f0f"/><path d="m54.069337 136.419198q-22.483757-5.696348-15.837634-61.782702" stroke="#000"/><path d="m148.700446 91.975333q-36.574278-17.085484-39.753757 29.681203" stroke="#000"/><path d="m66.177769 122.188083q-38.84819 4.46809-37.696328-40.199408" stroke="#000"/><path d="m203.71379 74.062182q24.658407 9.948944 14.015301 39.618173" stroke="#000"/><path d="m158.127677 133.230847q-29.200312-32.045362-12.636757-44.783989" stroke="#000"/><path d="m177.488149 74.972567q-165.150403 62.898575-174.313232 50.64722" stroke="#353535"/><path d="m218.689051 104.673114q19.468098-16.241982 8.073029-25.73664" stroke="#000"/><path d="m3.681347 7.13228q254.742424-23.13228 243.968426 126.155349" stroke="#fff"/><path d="m-13.030613 9.141817q284.030613.411979 256.989193 125.370189" stroke="#fff"/><path d="m231.492618 82.239378q-35.176881 24.866042-34.393923 39.894548" stroke="#141414"/><path d="m-3.588189 11.949558q247.013186-3.716663 259.873893 130.022276" stroke="#fff"/><path d="m108.976908 85.123448q16.098491 21.101386-4.233547 40.599219" stroke="#000"/><path d="m254.246397 124.175019q16.753603-140.175019-242.044852-119.362191" stroke="#fff"/><path d="m230.890366 92.498089q-6.328856-19.6026-49.052877-17.487654" stroke="#000"/><path d="m88.136923 78.413592q-62.616419-13.540419-63.697892 50.707136" stroke="#000"/><path d="m145.798127 124.78555q3.481811-47.307464-30.064924-39.310096" stroke="#000"/><path d="m241.478201 135.350231q21.459874-138.012958-257.478201-125.967344" stroke="#fff"/><path d="m23.929428 84.11999q10.659869-4.085393 44.171104 40.550991" stroke="#000"/><path d="m-16-4.896384q283.405376 74.332877 270.414577 114.41637" stroke="#fff"/><path d="m93.849736 78.050116q48.838978 25.08087 60.530869 4.798766" stroke="#000"/><path d="m26.298485 78.901482q4.976853 30.628741 44.163815 39.470907" stroke="#080808"/><path d="m255.208802 103.266996q7.5166-36.84865-271.208802-109.78393" stroke="#fff"/><path d="m-16 25.307938q286.991763-31.816829 268.840422 115.070986" stroke="#fff"/><path d="m70.72325 119.86318q-51.719986-1.747439-36.000627-42.96562" stroke="#040404"/><path d="m230.964607 93.942419q-21.896834-20.291666-67.093988-16.594014" stroke="#000"/><path d="m212.622187 77.819854q21.994416 8.601238 8.37885 30.127131" stroke="#000"/><path d="m143.555781 112.076491q-.252031-37.118767-43.271979-20.035956" stroke="#000"/><path d="m-11.048987 13.820441q282.048987 7.090133 261.059127 114.052567" stroke="#fff"/><path d="m271 96.973783q-244.804751-108.494568-263.000176-69.852529" stroke="#fff"/><path d="m103.523804 84.784192q-96.551142 42.556629-112.334898 44.622682" stroke="#5b5b5b"/><path d="m94.56819 76.869236q-65.616678-5.975317-71.47468 18.680318" stroke="#000"/><path d="m231.112944 80.076949q4.381179 8.345516-11.761096 22.208423" stroke="#000"/><path d="m67.791616 126.906239q-26.651715-32.021297-45.286972-39.627277" stroke="#080808"/><path d="m140.253263 98.632137q21.33455-39.453427 98.613673-8.709962" stroke="#000"/><path d="m265.500716 86.783421q-28.857347.539176-270.05379-87.883089" stroke="#fff"/><path d="m9.839483 21.444368q52.976143-31.654369 261.160517 70.602294" stroke="#fff"/><path d="m109.890773 84.668345q6.921696 47.74693-16.397397 53.133038" stroke="#000"/><path d="m146.560068 88.221354q-11.211828 43.97126 27.279679 52.472682" stroke="#000"/><path d="m231.752105 92.329265q-33.289781.100936-34.34983 35.438358" stroke="#2d2d2d"/><path d="m118.834141 86.50444q-100.82731 43.22568-134.834141 43.707526" stroke="#4b4b4b"/><path d="m203.90943 76.629575q33.542845 4.700845 13.586631 47.076566" stroke="#000"/><path d="m53.111052 137.493623q-30.705891-16.146408-8.153941-59.296275" stroke="#050505"/><path d="m138.052726 86.351557q-32.972151-5.804199-26.164713 25.803614" stroke="#000"/><path d="m248.777033 67.122163q-6.27897-79.374789-264.354101-63.316723" stroke="#fff"/><path d="m-1.577372 10.358679q267.64258-7.834255 237.27046 128.671488" stroke="#fff"/><path d="m29.059267 85.370055q88.039254-22.028359 88.876116 28.229666" stroke="#000"/><path d="m23.941623 83.371901q19.406554-6.456735 44.675111 40.867107" stroke="#161616"/><path d="m144.534068 91.645874q-12.454299 12.144996 8.635513 41.430292" stroke="#000"/><path d="m241.269349 138.279186q29.730651-129.66501-211.081177-131.285893" stroke="#fff"/><path d="m1.585193.855533q48.010364-.835886 261.404789 74.26583" stroke="#fff"/><path d="m240.096759 123.611842q21.030273-97.308851-235.913574-103.697741" stroke="#fff"/><path d="m-16 18.829732q278.165197-1.221593 265.333023 106.358786" stroke="#fff"/><path d="m28.294747 127.431027q7.330957-25.281138 6.728632-47.871999" stroke="#000"/><path d="m-16 34.444156q275.205628-29.853055 259.998926 100.583171" stroke="#fff"/><path d="m-1.564496 139.823037q135.723802 44.130691 138.047994-39.080519" stroke="#fff"/><path d="m231.802145 82.412702q-15.842379 11.112412-11.655939 30.482088" stroke="#000"/><path d="m212.32512 77.352274q26.024794 9.935656 8.32832 27.657204" stroke="#000"/><path d="m230.497624 80.273671q-18.219188-.074091-9.66054 24.673612" stroke="#000"/><path d="m8.192376 21.391708q248.649715 7.933282 247.309237 114.319123" stroke="#fff"/><path d="m254.037997 111.439964q16.962003-117.403625-240.494923-108.230044" stroke="#fff"/><path d="m1.478255 154.370051q247.913354.275641 254.181776-100.992945" stroke="#fcfcfc"/><path d="m159.497576 138.484287q-138.845692-27.052149-164.607146 46.515713" stroke="#fff"/><path d="m256.868842 88.036541q-187.17258-63.689344-272.868842-94.060904" stroke="#fff"/><path d="m144.025484 95.091736q-40.060812-16.805932-149.746056 37.043193" stroke="#464646"/><path d="m254.368026 81.581471q9.757175-97.581471-237.427751-76.073471" stroke="#fff"/><path d="m138.27155 97.619229q-31.100785 87.380771-137.271775 66.613169" stroke="#fff"/><path d="m31.884563 78.403542q4.792408 43.650563 16.740143 54.865029" stroke="#000"/><path d="m40.006884 120.216298q-21.505168-31.766217 6.598893-40.658595" stroke="#000"/><path d="m10.718343 12.841831q260.281657-28.841831 241.881435 121.376706" stroke="#fff"/><path d="m237.72099 131.540167q26.803468-116.482312-228.862366-117.858545" stroke="#fff"/><path d="m103.614548 3.070864q167.385452-17.110362 120.200232 129.110779" stroke="#fff"/><path d="m183.997201 75.974428q37.92482.504008 48.966767 6.505564" stroke="#000"/><path d="m136.16119 93.501993q-27.011793-23.568003-134.590767 30.351026" stroke="#515151"/><path d="m195.393257 76.819901q38.737637 6.788512 23.87756 31.828998" stroke="#000"/><path d="m-6.283692 119.252427q19.228296 65.747573 168.945536 20.524866" stroke="#fff"/><path d="m115.231285 90.963136q-4.429004 36.804664-24.054933 47.306731" stroke="#020202"/><path d="m183.469371 9.817417q9.01856 63.599563-43.656687 74.63478" stroke="#fefefe"/><path d="m147.627334 85.37476q-16.398518 11.011098 7.278975 49.799543" stroke="#000"/><path d="m111.381809 117.963028q14.334131-27.257737-19.44279-40.283312" stroke="#000"/><path d="m-7.484342-2.11465q246.108713 102.845696 278.373135 77.047392" stroke="#fefefe"/><path d="m107.355973 82.614559q95.608423 11.032271 60.542923-85.287424" stroke="#f4f4f4"/><path d="m67.15319 76.419225q-52.612149 4.052253-28.360766 50.707307" stroke="#000"/><path d="m-9.067193 127.413221q114.12859 57.586779 141.975429-26.660167" stroke="#fff"/><path d="m17.166712 8.087618q222.995409-24.087618 239.206078 79.255547" stroke="#fff"/><path d="m111.000075 91.894655q35.500854-.210638 44.915952-8.073436" stroke="#000"/><path d="m213.657818 124.013555q9.520972-22.556746 16.646928-45.976072" stroke="#000"/><path d="m137.532183 99.002896q4.654847 85.997104-153.532183 66.923648" stroke="#fff"/><path d="m131.101184 92.963108q-10.957844 86.759175-144.742489 69.299808" stroke="#fff"/><path d="m16.685948 3.132304q244.682232 89.283192 254.314052 80.634519" stroke="#fff"/><path d="m-16 132.478863q145.637422 51.674893 151.236511-30.59853" stroke="#fff"/><path d="m140.993047 114.6084q-115.33123 70.3916-141.367391 25.618695" stroke="#fff"/><path d="m269.871051 112.4082q-218.370945 59.978054-275.556711 41.65629" stroke="#f9f9f9"/><path d="m139.471353 84.916254q2.823595 53.188654 27.221035 52.269693" stroke="#000"/><path d="m71.584405 113.923856q-34.797122 32.496595-82.052915-14.582995" stroke="#474747"/><path d="m245.777786 114.094859q25.222214-128.720024-180.946313-107.284814" stroke="#fff"/><path d="m252.783174 125.08223q-11.067186-133.601905-235.544283-116.610257" stroke="#fff"/><path d="m-1.106516 116.775659q9.225898 26.518356 100.089046-10.7048" stroke="#535353"/><path d="m24.219832 87.709909q11.219846 30.854904 46.52776 27.614033" stroke="#111"/><path d="m-5.581845 155.257361q148.841874 29.742639 143.781183-50.646801" stroke="#fff"/><path d="m-16 159.732592q139.977062 15.097528 133.341036-55.892866" stroke="#fff"/><path d="m102.485874 85.527724q13.900386 4.817421 8.219351 36.803268" stroke="#000"/><path d="m255.418654 128.752059q-.750838-139.511649-248.951507-111.377862" stroke="#fff"/><path d="m228.946888 94.865372q-24.654795-22.902763-61.468247-18.113255" stroke="#000"/><path d="m-12.737402 131.163795q98.798788 23.880977 158.706494 1.64852" stroke="#fff"/><path d="m41.600781 76.597436q-18.447275 22.001181 3.486591 53.715627" stroke="#000"/><path d="m143.046962 89.318755q-27.231469-14.037279-31.880214 12.631958" stroke="#000"/><path d="m-4.095653 157.702916q236.445276-25.189313 275.095653-45.880082" stroke="#f9f9f9"/><path d="m8.896611 11.606943q257.184721-26.145799 245.920949 95.812057" stroke="#fff"/><path d="m246.951921 135.49202q1.037193-151.49202-243.328832-106.381359" stroke="#fdfdfd"/><path d="m134.67992 96.803108q-20.115107 87.229782-138.795254 44.348425" stroke="#fff"/><path d="m-1.041003 15.497546q264.244497-18.90717 248.096816 107.240401" stroke="#fff"/><path d="m9.803676 36.369033q41.617194-31.8651 261.196324 42.716314" stroke="#fcfcfc"/><path d="m65.018098 128.394748q-3.668898-19.214826-38.034381-45.020451" stroke="#080808"/><path d="m-4.845083 118.195808q13.881309 19.362561 96.405521-14.450988" stroke="#4f4f4f"/><path d="m88.150677 76.455657q-46.250229 1.334578-65.268942 7.546419" stroke="#000"/><path d="m1.718206 11.008114q248.132824-27.008114 243.911802 76.227214" stroke="#fefefe"/><path d="m160.032531 141.714019q-127.284134 41.482642-160.565483-4.709643" stroke="#fff"/><path d="m220.573697 103.305728q-3.113731-23.906454 11.195241-21.929085" stroke="#000"/><path d="m-2.416981 135.430818q122.564076 38.907118 131.894918-41.970689" stroke="#fff"/><path d="m-9.767579 35.223938q270.237371-12.733378 258.936869 89.924456" stroke="#fcfcfc"/><path d="m195.642706 139.991639q4.823164-32.964068 9.496981-32.748157" stroke="#454545"/><path d="m25.470647 2.978636q245.444702-2.512674 225.328269 132.175875" stroke="#fff"/><path d="m141.256218 124.838644q-12.245067 60.161356-148.705509 32.572316" stroke="#fff"/><path d="m174.704283 75.658662q54.21104-1.289833 57.875303 15.310218" stroke="#000"/><path d="m255.845146 97.731743q-4.058594-75.856771-258.358042-80.49686" stroke="#fdfdfd"/><path d="m116.491987 109.546663q-3.48674-44.651723-90.16-27.72293" stroke="#000"/><path d="m117.492372 85.153896q-2.167216 43.863264-33.245772 57.160625" stroke="#080808"/><path d="m210.157487 6.910767q60.842513 16.173749 5.954792 123.793263" stroke="#fff"/><path d="m232.424198 81.512196q1.507379 17.870957-13.939455 14.323607" stroke="#000"/><path d="m-16 136.130619q35.83492-22.70421 112.404889-47.109836" stroke="#676767"/><path d="m149.03372 89.680982q-4.91204 8.676929-52.860387-7.154881" stroke="#000"/><path d="m264.650858 62.456341q-28.698785 46.535439-273.607086-64.470869" stroke="#fafafa"/><path d="m98.245651 79.413517q-76.166415-18.772771-63.032142 48.063287" stroke="#030303"/><path d="m171.062774 76.363237q54.40114-10.769325 51.204309 31.002074" stroke="#000"/><path d="m108.899567 171.222629q-86.223917-59.183764-109.218121-16.538472" stroke="#fff"/><path d="m271 84.625447q-123.69359-32.429382-258.815906-85.320179" stroke="#fff"/><path d="m146.722403 115.33917q-9.103876-41.225265-36.52396-25.271514" stroke="#000"/><path d="m122.003594 182.65163q-89.886358-86.797035-128.383656-3.071137" stroke="#fff"/><path d="m10.889838 130.518842q78.972658-28.085116 93.289974-28.078407" stroke="#5b5b5b"/><path d="m10.979626 7.587855q244.223138-23.587855 244.681878 53.128189" stroke="#fff"/><path d="m26.949358 80.324829q-8.825374 22.522998 43.778828 34.414658" stroke="#171717"/><path d="m271 83.759007q-166.513894-62.681904-269.313832-56.974614" stroke="#fafafa"/><path d="m-.544403 166.099372q148.95623 18.900628 136.258065-67.741869" stroke="#fff"/><path d="m164.370327 144.533396q-21.809342-33.595021-167.800569 7.989238" stroke="#fff"/><path d="m49.526091 134.298993q-28.928579-41.191047-15.378216-53.975581" stroke="#000"/><path d="m159.543465 137.084265q-27.073468-23.628363-13.288801-46.758306" stroke="#000"/><path d="m144.614989 123.592182q-82.629101 61.407818-141.196639 36.391722" stroke="#fff"/><path d="m43.18085 127.152771q-11.304345-6.734164-1.952038-46.828297" stroke="#000"/><path d="m143.067561 117.735626q-100.994249 63.354244-154.941873 34.798202" stroke="#fff"/><path d="m218.774049 120.78991q-4.053385-14.834781 13.227321-41.080061" stroke="#000"/><path d="m11.848299 5.757178q82.899881 31.355885 181.899004 64.116946" stroke="#fefefe"/><path d="m227.723764 124.608392q41.864179-133.522422-83.84059-122.53426" stroke="#fefefe"/><path d="m-.509902 131.550377q53.540155 44.092069 142.816775-16.515026" stroke="#fff"/><path d="m180.209922 4.676035q90.790078.652078 44.496633 134.434071" stroke="#fff"/><path d="m218.202675 99.134951q19.704922-7.166944 5.993475-21.6478" stroke="#000"/><path d="m258.28693 29.923476q-8.020484 28.859869-242.503294-31.13895" stroke="#fff"/><path d="m.116168 2.29906q218.992428 117.676033 254.964392 25.56796" stroke="#f5f5f5"/><path d="m-.357801 147.199454q105.055122 35.741931 143.665353-28.200966" stroke="#fff"/><path d="m270.185094 61.121526q-252.967894-72.317445-284.513705-60.811318" stroke="#fefefe"/><path d="m101.228369 77.799621q11.375193 26.56893 67.812974-.623849" stroke="#000"/><path d="m-16 19.226217q261.362339-35.226217 269.669097 77.650708" stroke="#fdfdfd"/><path d="m30.592926 80.131867q9.99516 9.036089 1.710128 48.796214" stroke="#000"/><path d="m243.224822 129.415307q27.775178-92.322699-224.924312-121.964426" stroke="#fefefe"/><path d="m-16 132.583122q246.534441 52.416878 258.291681-41.174304" stroke="#f5f5f5"/><path d="m185.557904 68.85679q-25.048184-54.410877-201.557904-32.166037" stroke="#fbfbfb"/><path d="m113.610282 169.934029q-94.829375-57.107921-114.973838-21.660435" stroke="#fff"/><path d="m147.654005 122.908475q-2.631935-44.003686-36.443748-32.216067" stroke="#000"/><path d="m-2.914232 134.369735q53.382604 50.630265 133.590544 28.772421" stroke="#fff"/><path d="m209.496555 82.413213q21.094334-7.925892 22.396316 11.838249" stroke="#000"/><path d="m65.04334 124.616938q-6.498651 1.012926-11.191241-27.815324" stroke="#080808"/><path d="m115.96402 85.481172q29.271027-3.208205 28.580371 27.404795" stroke="#000"/><path d="m-3.590259 151.053655q107.958286 33.946345 129.627121-58.641503" stroke="#fff"/><path d="m131.586146 93.682436q-2.042403 91.317564-137.172545 51.156581" stroke="#fff"/><path d="m216.917088 95.262088q19.731896 3.911901 13.951876-15.726809" stroke="#000"/><path d="m107.305055 86.815664q12.920637 23.643756-1.028359 40.146872" stroke="#000"/><path d="m-5.482845 185q55.851261-92.20133 142.146152-37.249464" stroke="#fafafa"/><path d="m145.107282 96.889739q4.392166-28.649328 87.223147-16.24991" stroke="#000"/><path d="m-11.949489 159.066448q155.2835 25.933552 144.012907-63.457864" stroke="#fff"/><path d="m228.965448 136.845832q11.002887-.70122-1.381783-146.560459" stroke="#fff"/><path d="m195.19474 126.971977q11.709469-22.864997 10.045175-25.982028" stroke="#3e3e3e"/><path d="m.003598 164.078154q143.638392 20.921846 141.103708-40.342642" stroke="#fff"/><path d="m215.094307 135.258774q41.117671-64.004092 11.70074-142.066436" stroke="#fff"/><path d="m231.916226 89.228555q-10.795006 5.250667-25.19133-10.979397" stroke="#000"/><path d="m224.011732 144.028016q46.988268-126.730754-9.991235-138.314595" stroke="#fff"/><path d="m271 1.673141q-47.059246 108.352868-262.181462 15.626592" stroke="#f2f2f2"/><path d="m-5.094916 1.994497q6.448551-17.994497 207.265806 64.127107" stroke="#fefefe"/></g></svg>