<svg xmlns="http://www.w3.org/2000/svg" version="1.1" width="1024" height="644">
<rect x="0" y="0" width="1024" height="644" fill="#dcdddf" />
<g transform="scale(4.000000) translate(0.5 0.5)">
<ellipse fill="#66675f" fill-opacity="0.501961" cx="119" cy="142" rx="30" ry="30" />
<ellipse fill="#aeafb0" fill-opacity="0.501961" cx="0" cy="39" rx="57" ry="57" />
<ellipse fill="#f6f9fc" fill-opacity="0.501961" cx="198" cy="85" rx="71" ry="71" />
<ellipse fill="#41575f" fill-opacity="0.501961" cx="131" cy="120" rx="13" ry="13" />
<ellipse fill="#f4f7f6" fill-opacity="0.501961" cx="87" cy="93" rx="39" ry="39" />
<ellipse fill="#8d8784" fill-opacity="0.501961" cx="99" cy="160" rx="26" ry="26" />
<ellipse fill="#f6f7f8" fill-opacity="0.501961" cx="174" cy="140" rx="32" ry="32" />
<ellipse fill="#f0f2f1" fill-opacity="0.501961" cx="130" cy="59" rx="54" ry="54" />
<ellipse fill="#392f20" fill-opacity="0.501961" cx="137" cy="160" rx="8" ry="8" />
<ellipse fill="#a4a4a5" fill-opacity="0.501961" cx="0" cy="0" rx="36" ry="36" />
<ellipse fill="#dee0e1" fill-opacity="0.501961" cx="61" cy="56" rx="36" ry="36" />
<ellipse fill="#282217" fill-opacity="0.501961" cx="120" cy="160" rx="8" ry="8" />
<ellipse fill="#bdbfc1" fill-opacity="0.501961" cx="0" cy="101" rx="29" ry="29" />
<ellipse fill="#f7f5e7" fill-opacity="0.501961" cx="122" cy="139" rx="8" ry="8" />
<ellipse fill="#e5e5db" fill-opacity="0.501961" cx="135" cy="139" rx="7" ry="7" />
<ellipse fill="#e9ebec" fill-opacity="0.501961" cx="71" cy="118" rx="31" ry="31" />
<ellipse fill="#d0d2d7" fill-opacity="0.501961" cx="255" cy="17" rx="38" ry="38" />
<ellipse fill="#c4c3c5" fill-opacity="0.501961" cx="55" cy="0" rx="24" ry="24" />
<ellipse fill="#edf0f0" fill-opacity="0.501961" cx="33" cy="145" rx="20" ry="20" />
<ellipse fill="#50646f" fill-opacity="0.501961" cx="126" cy="124" rx="9" ry="9" />
<ellipse fill="#b3b3b4" fill-opacity="0.501961" cx="84" cy="153" rx="16" ry="16" />
<ellipse fill="#edeff1" fill-opacity="0.501961" cx="182" cy="143" rx="38" ry="38" />
<ellipse fill="#5a5650" fill-opacity="0.501961" cx="128" cy="160" rx="8" ry="8" />
<ellipse fill="#8a867b" fill-opacity="0.501961" cx="118" cy="113" rx="5" ry="5" />
<ellipse fill="#b6bec0" fill-opacity="0.501961" cx="255" cy="0" rx="17" ry="17" />
<ellipse fill="#e5e6e6" fill-opacity="0.501961" cx="107" cy="115" rx="11" ry="11" />
<ellipse fill="#dfe2e6" fill-opacity="0.501961" cx="255" cy="87" rx="33" ry="33" />
<ellipse fill="#c6c8ca" fill-opacity="0.501961" cx="5" cy="85" rx="31" ry="31" />
<ellipse fill="#41515b" fill-opacity="0.501961" cx="140" cy="129" rx="3" ry="3" />
<ellipse fill="#738590" fill-opacity="0.501961" cx="135" cy="120" rx="8" ry="8" />
<ellipse fill="#ada99c" fill-opacity="0.501961" cx="122" cy="152" rx="5" ry="5" />
<ellipse fill="#eef0f1" fill-opacity="0.501961" cx="131" cy="76" rx="33" ry="33" />
<ellipse fill="#aea8a6" fill-opacity="0.501961" cx="102" cy="136" rx="9" ry="9" />
<ellipse fill="#3e4e59" fill-opacity="0.501961" cx="120" cy="116" rx="3" ry="3" />
<ellipse fill="#a1a1a1" fill-opacity="0.501961" cx="10" cy="0" rx="13" ry="13" />
<ellipse fill="#bfbfc0" fill-opacity="0.501961" cx="16" cy="38" rx="21" ry="21" />
<ellipse fill="#ebedf0" fill-opacity="0.501961" cx="204" cy="127" rx="44" ry="44" />
<ellipse fill="#3e4b60" fill-opacity="0.501961" cx="139" cy="139" rx="2" ry="2" />
<ellipse fill="#44535c" fill-opacity="0.501961" cx="121" cy="128" rx="4" ry="4" />
<ellipse fill="#dbe0e5" fill-opacity="0.501961" cx="255" cy="132" rx="25" ry="25" />
<ellipse fill="#adaa9e" fill-opacity="0.501961" cx="135" cy="152" rx="5" ry="5" />
<ellipse fill="#e0e2e5" fill-opacity="0.501961" cx="185" cy="0" rx="38" ry="38" />
<ellipse fill="#b7d1db" fill-opacity="0.501961" cx="138" cy="121" rx="3" ry="3" />
<ellipse fill="#bec2c2" fill-opacity="0.501961" cx="64" cy="160" rx="8" ry="8" />
<ellipse fill="#edf0f0" fill-opacity="0.501961" cx="157" cy="67" rx="48" ry="48" />
<ellipse fill="#d2d0c8" fill-opacity="0.501961" cx="132" cy="140" rx="7" ry="7" />
<ellipse fill="#797366" fill-opacity="0.501961" cx="141" cy="148" rx="3" ry="3" />
<ellipse fill="#616367" fill-opacity="0.501961" cx="133" cy="139" rx="2" ry="2" />
<ellipse fill="#373330" fill-opacity="0.501961" cx="131" cy="160" rx="4" ry="4" />
<ellipse fill="#788083" fill-opacity="0.501961" cx="140" cy="116" rx="4" ry="4" />
<ellipse fill="#ece8dc" fill-opacity="0.501961" cx="141" cy="144" rx="3" ry="3" />
<ellipse fill="#fefdef" fill-opacity="0.501961" cx="141" cy="134" rx="2" ry="2" />
<ellipse fill="#574f43" fill-opacity="0.501961" cx="134" cy="148" rx="2" ry="2" />
<ellipse fill="#dee0e1" fill-opacity="0.501961" cx="61" cy="58" rx="21" ry="21" />
<ellipse fill="#bcbcbe" fill-opacity="0.501961" cx="46" cy="0" rx="12" ry="12" />
<ellipse fill="#5d5a54" fill-opacity="0.501961" cx="114" cy="159" rx="7" ry="7" />
<ellipse fill="#646f75" fill-opacity="0.501961" cx="131" cy="117" rx="5" ry="5" />
<ellipse fill="#969292" fill-opacity="0.501961" cx="100" cy="160" rx="13" ry="13" />
<ellipse fill="#c6c2ba" fill-opacity="0.501961" cx="113" cy="126" rx="5" ry="5" />
<ellipse fill="#e5e5ea" fill-opacity="0.501961" cx="227" cy="36" rx="21" ry="21" />
<ellipse fill="#d5d5d7" fill-opacity="0.501961" cx="57" cy="24" rx="16" ry="16" />
<ellipse fill="#e6e9e9" fill-opacity="0.501961" cx="57" cy="124" rx="28" ry="28" />
<ellipse fill="#23180f" fill-opacity="0.501961" cx="131" cy="147" rx="1" ry="1" />
<ellipse fill="#dcdedf" fill-opacity="0.501961" cx="119" cy="0" rx="25" ry="25" />
<ellipse fill="#35312a" fill-opacity="0.501961" cx="119" cy="160" rx="4" ry="4" />
<ellipse fill="#98988e" fill-opacity="0.501961" cx="116" cy="119" rx="3" ry="3" />
<ellipse fill="#58666d" fill-opacity="0.501961" cx="122" cy="128" rx="5" ry="5" />
<ellipse fill="#e9ebec" fill-opacity="0.501961" cx="88" cy="101" rx="28" ry="28" />
<ellipse fill="#7a7365" fill-opacity="0.501961" cx="142" cy="157" rx="4" ry="4" />
<ellipse fill="#e5e5da" fill-opacity="0.501961" cx="132" cy="142" rx="3" ry="3" />
<ellipse fill="#6b604f" fill-opacity="0.501961" cx="128" cy="148" rx="2" ry="2" />
<ellipse fill="#a09b96" fill-opacity="0.501961" cx="107" cy="134" rx="9" ry="9" />
<ellipse fill="#272d3e" fill-opacity="0.501961" cx="137" cy="139" rx="1" ry="1" />
<ellipse fill="#22170e" fill-opacity="0.501961" cx="137" cy="147" rx="1" ry="1" />
<ellipse fill="#65757c" fill-opacity="0.501961" cx="139" cy="126" rx="4" ry="4" />
<ellipse fill="#d2d3d5" fill-opacity="0.501961" cx="33" cy="79" rx="13" ry="13" />
<ellipse fill="#edeef1" fill-opacity="0.501961" cx="176" cy="153" rx="31" ry="31" />
<ellipse fill="#73685a" fill-opacity="0.501961" cx="124" cy="148" rx="2" ry="2" />
<ellipse fill="#3a3833" fill-opacity="0.501961" cx="137" cy="160" rx="3" ry="3" />
<ellipse fill="#c2bcae" fill-opacity="0.501961" cx="143" cy="111" rx="3" ry="3" />
<ellipse fill="#c2c5c5" fill-opacity="0.501961" cx="0" cy="102" rx="19" ry="19" />
<ellipse fill="#e9ebec" fill-opacity="0.501961" cx="121" cy="49" rx="34" ry="34" />
<ellipse fill="#6b624f" fill-opacity="0.501961" cx="117" cy="148" rx="2" ry="2" />
<ellipse fill="#cbcecf" fill-opacity="0.501961" cx="0" cy="153" rx="9" ry="9" />
<ellipse fill="#eeeef1" fill-opacity="0.501961" cx="204" cy="84" rx="35" ry="35" />
<ellipse fill="#cccfcf" fill-opacity="0.501961" cx="0" cy="136" rx="9" ry="9" />
<ellipse fill="#d7d9db" fill-opacity="0.501961" cx="26" cy="117" rx="13" ry="13" />
<ellipse fill="#b9b4ab" fill-opacity="0.501961" cx="131" cy="156" rx="2" ry="2" />
<ellipse fill="#afadae" fill-opacity="0.501961" cx="95" cy="140" rx="7" ry="7" />
<ellipse fill="#e3e3d9" fill-opacity="0.501961" cx="132" cy="135" rx="3" ry="3" />
<ellipse fill="#d5d4c8" fill-opacity="0.501961" cx="120" cy="151" rx="2" ry="2" />
<ellipse fill="#e7e9ea" fill-opacity="0.501961" cx="171" cy="31" rx="22" ry="22" />
<ellipse fill="#dedcd3" fill-opacity="0.501961" cx="140" cy="135" rx="3" ry="3" />
<ellipse fill="#dcdacc" fill-opacity="0.501961" cx="130" cy="151" rx="2" ry="2" />
<ellipse fill="#00113e" fill-opacity="0.501961" cx="140" cy="139" rx="1" ry="1" />
<ellipse fill="#c7c7c8" fill-opacity="0.501961" cx="35" cy="23" rx="13" ry="13" />
<ellipse fill="#d9dcd3" fill-opacity="0.501961" cx="135" cy="151" rx="2" ry="2" />
<ellipse fill="#dddfd7" fill-opacity="0.501961" cx="139" cy="142" rx="3" ry="3" />
<ellipse fill="#545d5f" fill-opacity="0.501961" cx="121" cy="115" rx="3" ry="3" />
<ellipse fill="#343433" fill-opacity="0.501961" cx="125" cy="153" rx="1" ry="1" />
<ellipse fill="#67767c" fill-opacity="0.501961" cx="128" cy="121" rx="9" ry="9" />
<ellipse fill="#635e52" fill-opacity="0.501961" cx="144" cy="147" rx="1" ry="1" />
<ellipse fill="#d6d5d7" fill-opacity="0.501961" cx="80" cy="1" rx="16" ry="16" />
<ellipse fill="#7a6f60" fill-opacity="0.501961" cx="121" cy="147" rx="2" ry="2" />
<ellipse fill="#d0cdc3" fill-opacity="0.501961" cx="119" cy="142" rx="5" ry="5" />
<ellipse fill="#5c5858" fill-opacity="0.501961" cx="136" cy="138" rx="1" ry="1" />
<ellipse fill="#dad5ca" fill-opacity="0.501961" cx="127" cy="156" rx="1" ry="1" />
<ellipse fill="#45413d" fill-opacity="0.501961" cx="130" cy="160" rx="4" ry="4" />
<ellipse fill="#f0f2f2" fill-opacity="0.501961" cx="164" cy="115" rx="21" ry="21" />
<ellipse fill="#d3d3d9" fill-opacity="0.501961" cx="213" cy="0" rx="11" ry="11" />
<ellipse fill="#e2e0da" fill-opacity="0.501961" cx="121" cy="108" rx="4" ry="4" />
<ellipse fill="#d7d9da" fill-opacity="0.501961" cx="68" cy="145" rx="7" ry="7" />
<ellipse fill="#a2bcc8" fill-opacity="0.501961" cx="138" cy="119" rx="3" ry="3" />
<ellipse fill="#6b7a81" fill-opacity="0.501961" cx="138" cy="128" rx="5" ry="5" />
<ellipse fill="#626d72" fill-opacity="0.501961" cx="135" cy="115" rx="3" ry="3" />
<ellipse fill="#7c766e" fill-opacity="0.501961" cx="112" cy="149" rx="3" ry="3" />
<ellipse fill="#e0e2e3" fill-opacity="0.501961" cx="94" cy="23" rx="15" ry="15" />
<ellipse fill="#dadbdc" fill-opacity="0.501961" cx="81" cy="136" rx="6" ry="6" />
<ellipse fill="#e1dfd0" fill-opacity="0.501961" cx="116" cy="132" rx="2" ry="2" />
<ellipse fill="#e0e3e6" fill-opacity="0.501961" cx="255" cy="70" rx="24" ry="24" />
<ellipse fill="#eef0f1" fill-opacity="0.501961" cx="162" cy="140" rx="17" ry="17" />
<ellipse fill="#d5d8cf" fill-opacity="0.501961" cx="138" cy="151" rx="2" ry="2" />
<ellipse fill="#d5d3ca" fill-opacity="0.501961" cx="124" cy="151" rx="2" ry="2" />
<ellipse fill="#cecac1" fill-opacity="0.501961" cx="119" cy="155" rx="1" ry="1" />
<ellipse fill="#958e89" fill-opacity="0.501961" cx="110" cy="136" rx="5" ry="5" />
<ellipse fill="#e3e5e6" fill-opacity="0.501961" cx="82" cy="68" rx="21" ry="21" />
<ellipse fill="#bebfc0" fill-opacity="0.501961" cx="0" cy="50" rx="20" ry="20" />
<ellipse fill="#b4bbbc" fill-opacity="0.501961" cx="255" cy="0" rx="8" ry="8" />
<ellipse fill="#beb9ad" fill-opacity="0.501961" cx="116" cy="111" rx="3" ry="3" />
<ellipse fill="#e2e4e5" fill-opacity="0.501961" cx="53" cy="98" rx="13" ry="13" />
<ellipse fill="#d3d6d9" fill-opacity="0.501961" cx="243" cy="18" rx="12" ry="12" />
<ellipse fill="#cacbce" fill-opacity="0.501961" cx="25" cy="56" rx="11" ry="11" />
<ellipse fill="#575450" fill-opacity="0.501961" cx="121" cy="154" rx="2" ry="2" />
<ellipse fill="#a6a3a4" fill-opacity="0.501961" cx="93" cy="152" rx="6" ry="6" />
<ellipse fill="#797164" fill-opacity="0.501961" cx="141" cy="156" rx="4" ry="4" />
<ellipse fill="#cbccd0" fill-opacity="0.501961" cx="236" cy="0" rx="9" ry="9" />
<ellipse fill="#696a66" fill-opacity="0.501961" cx="132" cy="154" rx="2" ry="2" />
<ellipse fill="#556169" fill-opacity="0.501961" cx="120" cy="121" rx="3" ry="3" />
<ellipse fill="#dbdbd3" fill-opacity="0.501961" cx="128" cy="135" rx="3" ry="3" />
<ellipse fill="#dee0db" fill-opacity="0.501961" cx="145" cy="152" rx="3" ry="3" />
<ellipse fill="#e6e8ec" fill-opacity="0.501961" cx="216" cy="160" rx="25" ry="25" />
<ellipse fill="#e9eaee" fill-opacity="0.501961" cx="221" cy="56" rx="22" ry="22" />
<ellipse fill="#6b675c" fill-opacity="0.501961" cx="142" cy="154" rx="2" ry="2" />
<ellipse fill="#bdbaaa" fill-opacity="0.501961" cx="117" cy="150" rx="2" ry="2" />
<ellipse fill="#778791" fill-opacity="0.501961" cx="132" cy="118" rx="4" ry="4" />
<ellipse fill="#dee0e1" fill-opacity="0.501961" cx="17" cy="133" rx="12" ry="12" />
<ellipse fill="#dedfe0" fill-opacity="0.501961" cx="90" cy="129" rx="5" ry="5" />
<ellipse fill="#3f3a31" fill-opacity="0.501961" cx="116" cy="160" rx="3" ry="3" />
<ellipse fill="#525555" fill-opacity="0.501961" cx="126" cy="114" rx="2" ry="2" />
<ellipse fill="#cfcdc0" fill-opacity="0.501961" cx="127" cy="151" rx="2" ry="2" />
<ellipse fill="#edeef0" fill-opacity="0.501961" cx="164" cy="147" rx="19" ry="19" />
<ellipse fill="#c5c3ba" fill-opacity="0.501961" cx="115" cy="120" rx="3" ry="3" />
<ellipse fill="#958e87" fill-opacity="0.501961" cx="112" cy="132" rx="3" ry="3" />
<ellipse fill="#777574" fill-opacity="0.501961" cx="131" cy="138" rx="1" ry="1" />
<ellipse fill="#dfdfe4" fill-opacity="0.501961" cx="216" cy="17" rx="12" ry="12" />
<ellipse fill="#d3d0c7" fill-opacity="0.501961" cx="128" cy="155" rx="1" ry="1" />
<ellipse fill="#afadab" fill-opacity="0.501961" cx="105" cy="130" rx="6" ry="6" />
<ellipse fill="#d1d4d4" fill-opacity="0.501961" cx="52" cy="160" rx="7" ry="7" />
<ellipse fill="#e1e3e4" fill-opacity="0.501961" cx="141" cy="16" rx="12" ry="12" />
<ellipse fill="#d2cfc6" fill-opacity="0.501961" cx="130" cy="156" rx="1" ry="1" />
<ellipse fill="#ebedee" fill-opacity="0.501961" cx="74" cy="117" rx="18" ry="18" />
<ellipse fill="#dae1e3" fill-opacity="0.501961" cx="255" cy="99" rx="10" ry="10" />
<ellipse fill="#cbcdce" fill-opacity="0.501961" cx="110" cy="125" rx="3" ry="3" />
<ellipse fill="#40474e" fill-opacity="0.501961" cx="137" cy="114" rx="1" ry="1" />
<ellipse fill="#dbd7cc" fill-opacity="0.501961" cx="138" cy="109" rx="3" ry="3" />
<ellipse fill="#57524a" fill-opacity="0.501961" cx="139" cy="160" rx="4" ry="4" />
<ellipse fill="#686764" fill-opacity="0.501961" cx="135" cy="154" rx="2" ry="2" />
<ellipse fill="#d2d2c7" fill-opacity="0.501961" cx="131" cy="155" rx="1" ry="1" />
<ellipse fill="#b1b1b3" fill-opacity="0.501961" cx="9" cy="16" rx="9" ry="9" />
<ellipse fill="#313e51" fill-opacity="0.501961" cx="141" cy="139" rx="1" ry="1" />
<ellipse fill="#eef0f0" fill-opacity="0.501961" cx="130" cy="92" rx="18" ry="18" />
<ellipse fill="#8a8e8d" fill-opacity="0.501961" cx="141" cy="115" rx="3" ry="3" />
<ellipse fill="#999288" fill-opacity="0.501961" cx="120" cy="156" rx="2" ry="2" />
<ellipse fill="#c8c5b9" fill-opacity="0.501961" cx="117" cy="151" rx="2" ry="2" />
<ellipse fill="#dadcdd" fill-opacity="0.501961" cx="50" cy="72" rx="12" ry="12" />
<ellipse fill="#989390" fill-opacity="0.501961" cx="106" cy="145" rx="8" ry="8" />
<ellipse fill="#dadfe4" fill-opacity="0.501961" cx="255" cy="129" rx="11" ry="11" />
<ellipse fill="#b6b5ab" fill-opacity="0.501961" cx="134" cy="149" rx="1" ry="1" />
<ellipse fill="#494747" fill-opacity="0.501961" cx="118" cy="153" rx="1" ry="1" />
<ellipse fill="#d6d5cc" fill-opacity="0.501961" cx="142" cy="142" rx="3" ry="3" />
<ellipse fill="#bababc" fill-opacity="0.501961" cx="8" cy="32" rx="13" ry="13" />
<ellipse fill="#8caabd" fill-opacity="0.501961" cx="139" cy="116" rx="2" ry="2" />
<ellipse fill="#6f6b63" fill-opacity="0.501961" cx="140" cy="148" rx="2" ry="2" />
<ellipse fill="#555a5e" fill-opacity="0.501961" cx="135" cy="139" rx="1" ry="1" />
<ellipse fill="#e5e0d3" fill-opacity="0.501961" cx="116" cy="128" rx="1" ry="1" />
<ellipse fill="#d1cfc6" fill-opacity="0.501961" cx="119" cy="137" rx="5" ry="5" />
<ellipse fill="#c8c8ca" fill-opacity="0.501961" cx="55" cy="2" rx="12" ry="12" />
<ellipse fill="#b8b8ba" fill-opacity="0.501961" cx="39" cy="0" rx="8" ry="8" />
<ellipse fill="#96918c" fill-opacity="0.501961" cx="110" cy="139" rx="5" ry="5" />
<ellipse fill="#888177" fill-opacity="0.501961" cx="140" cy="138" rx="1" ry="1" />
<ellipse fill="#d6d8d9" fill-opacity="0.501961" cx="32" cy="101" rx="8" ry="8" />
<ellipse fill="#bdbdbf" fill-opacity="0.501961" cx="30" cy="15" rx="9" ry="9" />
<ellipse fill="#bcbcbc" fill-opacity="0.501961" cx="80" cy="150" rx="6" ry="6" />
<ellipse fill="#605849" fill-opacity="0.501961" cx="114" cy="155" rx="2" ry="2" />
<ellipse fill="#d8d2c1" fill-opacity="0.501961" cx="116" cy="116" rx="1" ry="1" />
<ellipse fill="#575c5d" fill-opacity="0.501961" cx="130" cy="114" rx="2" ry="2" />
<ellipse fill="#8b8a87" fill-opacity="0.501961" cx="107" cy="155" rx="5" ry="5" />
<ellipse fill="#e6e8e9" fill-opacity="0.501961" cx="46" cy="136" rx="20" ry="20" />
<ellipse fill="#ebedef" fill-opacity="0.501961" cx="160" cy="156" rx="15" ry="15" />
<ellipse fill="#dcddd6" fill-opacity="0.501961" cx="132" cy="152" rx="1" ry="1" />
<ellipse fill="#d5d5ce" fill-opacity="0.501961" cx="126" cy="140" rx="5" ry="5" />
<ellipse fill="#c2b391" fill-opacity="0.501961" cx="139" cy="156" rx="1" ry="1" />
<ellipse fill="#ccccce" fill-opacity="0.501961" cx="32" cy="41" rx="9" ry="9" />
<ellipse fill="#575755" fill-opacity="0.501961" cx="126" cy="154" rx="1" ry="1" />
<ellipse fill="#423f3b" fill-opacity="0.501961" cx="121" cy="159" rx="3" ry="3" />
<ellipse fill="#504944" fill-opacity="0.501961" cx="142" cy="147" rx="1" ry="1" />
<ellipse fill="#b3afa3" fill-opacity="0.501961" cx="115" cy="115" rx="2" ry="2" />
<ellipse fill="#9b9790" fill-opacity="0.501961" cx="112" cy="129" rx="3" ry="3" />
<ellipse fill="#c7ced0" fill-opacity="0.501961" cx="255" cy="18" rx="7" ry="7" />
<ellipse fill="#a3a3a2" fill-opacity="0.501961" cx="7" cy="0" rx="7" ry="7" />
<ellipse fill="#e5e7e8" fill-opacity="0.501961" cx="107" cy="115" rx="6" ry="6" />
<ellipse fill="#d1d5dd" fill-opacity="0.501961" cx="255" cy="156" rx="8" ry="8" />
<ellipse fill="#d2cbbb" fill-opacity="0.501961" cx="124" cy="110" rx="3" ry="3" />
<ellipse fill="#e2e4e5" fill-opacity="0.501961" cx="15" cy="147" rx="11" ry="11" />
<ellipse fill="#68767d" fill-opacity="0.501961" cx="139" cy="127" rx="4" ry="4" />
<ellipse fill="#46403b" fill-opacity="0.501961" cx="134" cy="147" rx="1" ry="1" />
<ellipse fill="#5c626b" fill-opacity="0.501961" cx="131" cy="139" rx="1" ry="1" />
<ellipse fill="#d8d7cd" fill-opacity="0.501961" cx="145" cy="118" rx="2" ry="2" />
<ellipse fill="#d9d9db" fill-opacity="0.501961" cx="70" cy="16" rx="10" ry="10" />
<ellipse fill="#95948b" fill-opacity="0.501961" cx="138" cy="149" rx="2" ry="2" />
<ellipse fill="#dfe7e9" fill-opacity="0.501961" cx="139" cy="121" rx="1" ry="1" />
<ellipse fill="#e0e2e2" fill-opacity="0.501961" cx="36" cy="125" rx="10" ry="10" />
<ellipse fill="#eaeaef" fill-opacity="0.501961" cx="221" cy="122" rx="19" ry="19" />
<ellipse fill="#dcdcd4" fill-opacity="0.501961" cx="136" cy="135" rx="3" ry="3" />
<ellipse fill="#949085" fill-opacity="0.501961" cx="130" cy="149" rx="2" ry="2" />
<ellipse fill="#dde1e3" fill-opacity="0.501961" cx="255" cy="49" rx="17" ry="17" />
<ellipse fill="#c5c7c9" fill-opacity="0.501961" cx="0" cy="100" rx="23" ry="23" />
<ellipse fill="#bbbabb" fill-opacity="0.501961" cx="97" cy="133" rx="4" ry="4" />
<ellipse fill="#a49f9d" fill-opacity="0.501961" cx="104" cy="136" rx="5" ry="5" />
<ellipse fill="#c09296" fill-opacity="0.501961" cx="118" cy="139" rx="1" ry="1" />
<ellipse fill="#738690" fill-opacity="0.501961" cx="136" cy="126" rx="4" ry="4" />
<ellipse fill="#dbe1e5" fill-opacity="0.501961" cx="239" cy="156" rx="9" ry="9" />
<ellipse fill="#847b6f" fill-opacity="0.501961" cx="124" cy="147" rx="2" ry="2" />
<ellipse fill="#645a4c" fill-opacity="0.501961" cx="116" cy="147" rx="1" ry="1" />
<ellipse fill="#d8d9dd" fill-opacity="0.501961" cx="194" cy="0" rx="9" ry="9" />
<ellipse fill="#e1d4be" fill-opacity="0.501961" cx="132" cy="110" rx="2" ry="2" />
<ellipse fill="#d5d6d8" fill-opacity="0.501961" cx="75" cy="141" rx="5" ry="5" />
<ellipse fill="#cdd0d0" fill-opacity="0.501961" cx="4" cy="129" rx="7" ry="7" />
<ellipse fill="#b4b0a6" fill-opacity="0.501961" cx="125" cy="156" rx="1" ry="1" />
<ellipse fill="#4d5a62" fill-opacity="0.501961" cx="119" cy="120" rx="1" ry="1" />
<ellipse fill="#504c47" fill-opacity="0.501961" cx="127" cy="160" rx="4" ry="4" />
<ellipse fill="#dad9cf" fill-opacity="0.501961" cx="134" cy="142" rx="3" ry="3" />
<ellipse fill="#e2e3e6" fill-opacity="0.501961" cx="193" cy="16" rx="11" ry="11" />
<ellipse fill="#b3b4b4" fill-opacity="0.501961" cx="79" cy="158" rx="8" ry="8" />
<ellipse fill="#ebedef" fill-opacity="0.501961" cx="190" cy="47" rx="20" ry="20" />
<ellipse fill="#e1ded3" fill-opacity="0.501961" cx="141" cy="152" rx="1" ry="1" />
<ellipse fill="#dce5e8" fill-opacity="0.501961" cx="138" cy="120" rx="1" ry="1" />
<ellipse fill="#b8b5ab" fill-opacity="0.501961" cx="115" cy="122" rx="2" ry="2" />
<ellipse fill="#c4c6c7" fill-opacity="0.501961" cx="0" cy="85" rx="23" ry="23" />
<ellipse fill="#e3e5e7" fill-opacity="0.501961" cx="110" cy="119" rx="3" ry="3" />
<ellipse fill="#e9e9ee" fill-opacity="0.501961" cx="231" cy="81" rx="15" ry="15" />
<ellipse fill="#aaa7a0" fill-opacity="0.501961" cx="126" cy="155" rx="1" ry="1" />
<ellipse fill="#dad8ce" fill-opacity="0.501961" cx="145" cy="125" rx="2" ry="2" />
<ellipse fill="#6c685d" fill-opacity="0.501961" cx="130" cy="148" rx="1" ry="1" />
<ellipse fill="#dfded2" fill-opacity="0.501961" cx="116" cy="130" rx="1" ry="1" />
<ellipse fill="#eef1f1" fill-opacity="0.501961" cx="163" cy="133" rx="18" ry="18" />
<ellipse fill="#e4e6e7" fill-opacity="0.501961" cx="84" cy="44" rx="13" ry="13" />
<ellipse fill="#eceeef" fill-opacity="0.501961" cx="121" cy="95" rx="14" ry="14" />
<ellipse fill="#d8d3c9" fill-opacity="0.501961" cx="118" cy="110" rx="2" ry="2" />
<ellipse fill="#dcdde1" fill-opacity="0.501961" cx="244" cy="32" rx="8" ry="8" />
<ellipse fill="#969997" fill-opacity="0.501961" cx="142" cy="121" rx="2" ry="2" />
<ellipse fill="#dddee0" fill-opacity="0.501961" cx="94" cy="128" rx="4" ry="4" />
<ellipse fill="#504f48" fill-opacity="0.501961" cx="116" cy="153" rx="1" ry="1" />
<ellipse fill="#d4d7d8" fill-opacity="0.501961" cx="68" cy="151" rx="4" ry="4" />
<ellipse fill="#8c8371" fill-opacity="0.501961" cx="143" cy="156" rx="2" ry="2" />
<ellipse fill="#d8dad1" fill-opacity="0.501961" cx="144" cy="149" rx="1" ry="1" />
<ellipse fill="#565552" fill-opacity="0.501961" cx="129" cy="153" rx="1" ry="1" />
<ellipse fill="#716b62" fill-opacity="0.501961" cx="138" cy="148" rx="1" ry="1" />
<ellipse fill="#d6d4cb" fill-opacity="0.501961" cx="116" cy="121" rx="1" ry="1" />
<ellipse fill="#929896" fill-opacity="0.501961" cx="129" cy="132" rx="1" ry="1" />
<ellipse fill="#d7d7d9" fill-opacity="0.501961" cx="91" cy="0" rx="13" ry="13" />
<ellipse fill="#c3c2b5" fill-opacity="0.501961" cx="144" cy="145" rx="2" ry="2" />
<ellipse fill="#5a5f5f" fill-opacity="0.501961" cx="141" cy="127" rx="2" ry="2" />
<ellipse fill="#cfc6b7" fill-opacity="0.501961" cx="137" cy="146" rx="1" ry="1" />
<ellipse fill="#d2d2d3" fill-opacity="0.501961" cx="89" cy="134" rx="3" ry="3" />
<ellipse fill="#cbcecf" fill-opacity="0.501961" cx="0" cy="160" rx="7" ry="7" />
<ellipse fill="#dbd2bc" fill-opacity="0.501961" cx="129" cy="110" rx="2" ry="2" />
<ellipse fill="#dee2e5" fill-opacity="0.501961" cx="255" cy="77" rx="13" ry="13" />
<ellipse fill="#cfcfc7" fill-opacity="0.501961" cx="123" cy="152" rx="1" ry="1" />
<ellipse fill="#eff1f2" fill-opacity="0.501961" cx="168" cy="105" rx="23" ry="23" />
<ellipse fill="#d8d3c3" fill-opacity="0.501961" cx="144" cy="127" rx="1" ry="1" />
<ellipse fill="#afafb1" fill-opacity="0.501961" cx="22" cy="4" rx="7" ry="7" />
<ellipse fill="#b7b4aa" fill-opacity="0.501961" cx="128" cy="150" rx="2" ry="2" />
<ellipse fill="#5d626a" fill-opacity="0.501961" cx="140" cy="114" rx="1" ry="1" />
<ellipse fill="#95a0a0" fill-opacity="0.501961" cx="134" cy="132" rx="1" ry="1" />
<ellipse fill="#a9a6a7" fill-opacity="0.501961" cx="94" cy="145" rx="7" ry="7" />
<ellipse fill="#e3e6e6" fill-opacity="0.501961" cx="162" cy="19" rx="11" ry="11" />
<ellipse fill="#dcdede" fill-opacity="0.501961" cx="169" cy="0" rx="13" ry="13" />
<ellipse fill="#dee0e1" fill-opacity="0.501961" cx="64" cy="59" rx="14" ry="14" />
<ellipse fill="#cfcdc3" fill-opacity="0.501961" cx="126" cy="144" rx="3" ry="3" />
<ellipse fill="#706352" fill-opacity="0.501961" cx="141" cy="113" rx="1" ry="1" />
<ellipse fill="#eceeef" fill-opacity="0.501961" cx="88" cy="107" rx="14" ry="14" />
<ellipse fill="#b4b2a9" fill-opacity="0.501961" cx="124" cy="150" rx="2" ry="2" />
<ellipse fill="#d4d4d8" fill-opacity="0.501961" cx="220" cy="0" rx="9" ry="9" />
<ellipse fill="#82919a" fill-opacity="0.501961" cx="137" cy="131" rx="2" ry="2" />
<ellipse fill="#deddd2" fill-opacity="0.501961" cx="143" cy="135" rx="2" ry="2" />
<ellipse fill="#dadbdc" fill-opacity="0.501961" cx="58" cy="40" rx="9" ry="9" />
<ellipse fill="#8a7f70" fill-opacity="0.501961" cx="116" cy="155" rx="1" ry="1" />
<ellipse fill="#738892" fill-opacity="0.501961" cx="136" cy="117" rx="2" ry="2" />
<ellipse fill="#65635c" fill-opacity="0.501961" cx="122" cy="154" rx="2" ry="2" />
</g>
</svg>