<svg xmlns="http://www.w3.org/2000/svg" version="1.1" width="1024" height="680">
<rect x="0" y="0" width="1024" height="680" fill="#54594c" />
<g transform="scale(4.000000) translate(0.5 0.5)">
<g transform="translate(92.955343 13.284772) rotate(253.731430) scale(197.572740 40.057374)"><ellipse fill="#c4b093" fill-opacity="0.501961" cx="0" cy="0" rx="1" ry="1" /></g>
<g transform="translate(248.640495 63.706553) rotate(324.167788) scale(85.490580 82.049992)"><ellipse fill="#000d13" fill-opacity="0.501961" cx="0" cy="0" rx="1" ry="1" /></g>
<g transform="translate(140.401311 9.848366) rotate(287.885043) scale(11.132595 48.521770)"><ellipse fill="#e4caa8" fill-opacity="0.501961" cx="0" cy="0" rx="1" ry="1" /></g>
<g transform="translate(18.592233 102.960460) rotate(90.380610) scale(92.268233 7.228049)"><ellipse fill="#000000" fill-opacity="0.501961" cx="0" cy="0" rx="1" ry="1" /></g>
<g transform="translate(107.280299 156.207914) rotate(-5.850533) scale(162.116957 5.548236)"><ellipse fill="#000300" fill-opacity="0.501961" cx="0" cy="0" rx="1" ry="1" /></g>
<g transform="translate(146.957283 169.000000) rotate(187.637459) scale(23.068835 10.546214)"><ellipse fill="#ffffff" fill-opacity="0.501961" cx="0" cy="0" rx="1" ry="1" /></g>
<g transform="translate(109.751843 77.385473) rotate(270.213741) scale(36.958276 22.330187)"><ellipse fill="#d6c1a5" fill-opacity="0.501961" cx="0" cy="0" rx="1" ry="1" /></g>
<g transform="translate(232.868103 14.308977) rotate(224.312957) scale(173.228949 28.285898)"><ellipse fill="#000e07" fill-opacity="0.501961" cx="0" cy="0" rx="1" ry="1" /></g>
<g transform="translate(84.358158 0.000000) rotate(362.638053) scale(79.010922 17.275318)"><ellipse fill="#bfac8e" fill-opacity="0.501961" cx="0" cy="0" rx="1" ry="1" /></g>
<g transform="translate(87.839332 166.820344) rotate(266.879846) scale(4.060106 14.338939)"><ellipse fill="#ffffe3" fill-opacity="0.501961" cx="0" cy="0" rx="1" ry="1" /></g>
<g transform="translate(64.031475 57.079823) rotate(215.008450) scale(20.555480 46.356738)"><ellipse fill="#4f4e3a" fill-opacity="0.501961" cx="0" cy="0" rx="1" ry="1" /></g>
<g transform="translate(207.011018 169.000000) rotate(79.454929) scale(6.284259 65.218349)"><ellipse fill="#000a00" fill-opacity="0.501961" cx="0" cy="0" rx="1" ry="1" /></g>
<g transform="translate(87.704288 120.286525) rotate(103.096902) scale(36.034413 24.678709)"><ellipse fill="#99896d" fill-opacity="0.501961" cx="0" cy="0" rx="1" ry="1" /></g>
<g transform="translate(196.633634 136.768932) rotate(176.174951) scale(28.513891 3.768866)"><ellipse fill="#a9afba" fill-opacity="0.501961" cx="0" cy="0" rx="1" ry="1" /></g>
<g transform="translate(25.257768 154.745519) rotate(399.831488) scale(23.560891 46.308980)"><ellipse fill="#182716" fill-opacity="0.501961" cx="0" cy="0" rx="1" ry="1" /></g>
<g transform="translate(192.137538 107.929713) rotate(252.718923) scale(23.260166 52.625097)"><ellipse fill="#1e3d41" fill-opacity="0.501961" cx="0" cy="0" rx="1" ry="1" /></g>
<g transform="translate(71.408095 169.000000) rotate(176.520006) scale(21.523573 3.000387)"><ellipse fill="#fff5c7" fill-opacity="0.501961" cx="0" cy="0" rx="1" ry="1" /></g>
<g transform="translate(158.595732 45.756719) rotate(115.972014) scale(12.132659 48.734284)"><ellipse fill="#3a483d" fill-opacity="0.501961" cx="0" cy="0" rx="1" ry="1" /></g>
<g transform="translate(110.761732 161.100060) rotate(340.379825) scale(12.195250 21.612623)"><ellipse fill="#354641" fill-opacity="0.501961" cx="0" cy="0" rx="1" ry="1" /></g>
<g transform="translate(251.437279 82.624429) rotate(359.887268) scale(5.171079 66.943676)"><ellipse fill="#000400" fill-opacity="0.501961" cx="0" cy="0" rx="1" ry="1" /></g>
<g transform="translate(141.171564 150.359212) rotate(270.364689) scale(6.743313 33.330141)"><ellipse fill="#0a211b" fill-opacity="0.501961" cx="0" cy="0" rx="1" ry="1" /></g>
<g transform="translate(211.837749 154.529059) rotate(175.254131) scale(36.097374 4.537280)"><ellipse fill="#a49988" fill-opacity="0.501961" cx="0" cy="0" rx="1" ry="1" /></g>
<g transform="translate(141.872235 139.356233) rotate(356.315164) scale(43.669089 2.784185)"><ellipse fill="#b9bbbf" fill-opacity="0.501961" cx="0" cy="0" rx="1" ry="1" /></g>
<g transform="translate(222.065130 79.096034) rotate(179.162427) scale(10.373810 66.037289)"><ellipse fill="#32525b" fill-opacity="0.501961" cx="0" cy="0" rx="1" ry="1" /></g>
<g transform="translate(155.051746 163.625028) rotate(330.301249) scale(10.481899 5.944470)"><ellipse fill="#ffedcf" fill-opacity="0.501961" cx="0" cy="0" rx="1" ry="1" /></g>
<g transform="translate(145.454259 116.733323) rotate(46.596701) scale(15.322310 26.512707)"><ellipse fill="#6b6859" fill-opacity="0.501961" cx="0" cy="0" rx="1" ry="1" /></g>
<g transform="translate(169.744286 66.698530) rotate(108.265908) scale(40.078711 24.090055)"><ellipse fill="#3e4e48" fill-opacity="0.501961" cx="0" cy="0" rx="1" ry="1" /></g>
<g transform="translate(148.313469 19.710020) rotate(274.303067) scale(5.419710 25.464913)"><ellipse fill="#c4b49d" fill-opacity="0.501961" cx="0" cy="0" rx="1" ry="1" /></g>
<g transform="translate(201.265114 86.540579) rotate(177.981067) scale(3.890812 41.020740)"><ellipse fill="#000803" fill-opacity="0.501961" cx="0" cy="0" rx="1" ry="1" /></g>
<g transform="translate(48.552982 34.245359) rotate(-30.904352) scale(28.220467 22.905487)"><ellipse fill="#706c59" fill-opacity="0.501961" cx="0" cy="0" rx="1" ry="1" /></g>
<g transform="translate(55.264520 162.104422) rotate(173.807890) scale(27.781269 5.041243)"><ellipse fill="#000400" fill-opacity="0.501961" cx="0" cy="0" rx="1" ry="1" /></g>
<g transform="translate(176.344313 169.000000) rotate(104.732563) scale(6.625887 14.307066)"><ellipse fill="#2f3323" fill-opacity="0.501961" cx="0" cy="0" rx="1" ry="1" /></g>
<g transform="translate(14.233323 61.940313) rotate(89.745779) scale(53.243634 3.114535)"><ellipse fill="#001b0c" fill-opacity="0.501961" cx="0" cy="0" rx="1" ry="1" /></g>
<g transform="translate(208.763361 9.175148) rotate(107.951607) scale(32.392189 22.954886)"><ellipse fill="#03241b" fill-opacity="0.501961" cx="0" cy="0" rx="1" ry="1" /></g>
<g transform="translate(136.023701 166.773920) rotate(97.942240) scale(8.059164 12.388397)"><ellipse fill="#fff7d6" fill-opacity="0.501961" cx="0" cy="0" rx="1" ry="1" /></g>
<g transform="translate(115.874825 64.300733) rotate(33.032283) scale(16.403496 18.046056)"><ellipse fill="#cebca2" fill-opacity="0.501961" cx="0" cy="0" rx="1" ry="1" /></g>
<g transform="translate(23.486268 9.034657) rotate(175.129027) scale(22.906054 3.565808)"><ellipse fill="#9e9177" fill-opacity="0.501961" cx="0" cy="0" rx="1" ry="1" /></g>
<g transform="translate(108.186845 150.168278) rotate(30.051520) scale(12.972807 7.970490)"><ellipse fill="#696d64" fill-opacity="0.501961" cx="0" cy="0" rx="1" ry="1" /></g>
<g transform="translate(81.655062 152.897905) rotate(350.763849) scale(3.079077 10.834392)"><ellipse fill="#90815d" fill-opacity="0.501961" cx="0" cy="0" rx="1" ry="1" /></g>
<g transform="translate(16.163144 111.125419) rotate(1.675368) scale(5.362396 55.884687)"><ellipse fill="#001c10" fill-opacity="0.501961" cx="0" cy="0" rx="1" ry="1" /></g>
<g transform="translate(54.111649 91.510984) rotate(91.505668) scale(32.021500 3.872644)"><ellipse fill="#273123" fill-opacity="0.501961" cx="0" cy="0" rx="1" ry="1" /></g>
<g transform="translate(183.825023 142.416530) rotate(175.574031) scale(50.936595 3.559926)"><ellipse fill="#50574f" fill-opacity="0.501961" cx="0" cy="0" rx="1" ry="1" /></g>
<g transform="translate(90.734991 169.085882) rotate(345.469535) scale(9.702376 5.052051)"><ellipse fill="#fff1d2" fill-opacity="0.501961" cx="0" cy="0" rx="1" ry="1" /></g>
<g transform="translate(112.026634 167.719934) rotate(36.953548) scale(12.159436 13.193404)"><ellipse fill="#353e33" fill-opacity="0.501961" cx="0" cy="0" rx="1" ry="1" /></g>
<g transform="translate(111.724083 27.659063) rotate(190.997409) scale(23.038445 6.913540)"><ellipse fill="#686045" fill-opacity="0.501961" cx="0" cy="0" rx="1" ry="1" /></g>
<g transform="translate(255.000000 28.616257) rotate(162.080854) scale(21.924882 44.918302)"><ellipse fill="#00130d" fill-opacity="0.501961" cx="0" cy="0" rx="1" ry="1" /></g>
<g transform="translate(138.516969 6.411771) rotate(186.243350) scale(47.453748 5.108664)"><ellipse fill="#90866e" fill-opacity="0.501961" cx="0" cy="0" rx="1" ry="1" /></g>
<g transform="translate(183.881338 124.383925) rotate(189.337780) scale(20.652793 8.157906)"><ellipse fill="#132827" fill-opacity="0.501961" cx="0" cy="0" rx="1" ry="1" /></g>
<g transform="translate(140.378041 153.940032) rotate(260.785107) scale(4.375909 13.441262)"><ellipse fill="#000500" fill-opacity="0.501961" cx="0" cy="0" rx="1" ry="1" /></g>
<g transform="translate(100.713105 12.434565) rotate(283.787360) scale(5.590800 33.728039)"><ellipse fill="#c3b396" fill-opacity="0.501961" cx="0" cy="0" rx="1" ry="1" /></g>
<g transform="translate(255.000000 122.559197) rotate(398.040722) scale(19.349438 25.823793)"><ellipse fill="#001813" fill-opacity="0.501961" cx="0" cy="0" rx="1" ry="1" /></g>
<g transform="translate(96.855400 103.040126) rotate(286.224942) scale(9.379436 29.004515)"><ellipse fill="#a1957e" fill-opacity="0.501961" cx="0" cy="0" rx="1" ry="1" /></g>
<g transform="translate(40.540185 83.197963) rotate(230.418547) scale(15.226972 4.621819)"><ellipse fill="#243129" fill-opacity="0.501961" cx="0" cy="0" rx="1" ry="1" /></g>
<g transform="translate(46.226712 121.617386) rotate(220.561900) scale(27.385264 19.366388)"><ellipse fill="#4e4d3a" fill-opacity="0.501961" cx="0" cy="0" rx="1" ry="1" /></g>
<g transform="translate(71.485092 92.463866) rotate(12.235843) scale(14.229934 32.252956)"><ellipse fill="#776f57" fill-opacity="0.501961" cx="0" cy="0" rx="1" ry="1" /></g>
<g transform="translate(5.029840 158.152648) rotate(173.415125) scale(6.347871 33.698625)"><ellipse fill="#3f4a42" fill-opacity="0.501961" cx="0" cy="0" rx="1" ry="1" /></g>
<g transform="translate(64.568600 3.345282) rotate(188.074452) scale(110.910289 1.000000)"><ellipse fill="#d4c6b0" fill-opacity="0.501961" cx="0" cy="0" rx="1" ry="1" /></g>
<g transform="translate(185.981903 148.025156) rotate(169.320190) scale(21.648118 1.889374)"><ellipse fill="#000200" fill-opacity="0.501961" cx="0" cy="0" rx="1" ry="1" /></g>
<g transform="translate(203.582507 77.124965) rotate(88.762414) scale(50.474442 5.946672)"><ellipse fill="#00201f" fill-opacity="0.501961" cx="0" cy="0" rx="1" ry="1" /></g>
<g transform="translate(16.937021 40.511024) rotate(88.216838) scale(25.854557 5.336597)"><ellipse fill="#011b0d" fill-opacity="0.501961" cx="0" cy="0" rx="1" ry="1" /></g>
<g transform="translate(124.930546 129.478327) rotate(272.925854) scale(5.018905 44.759177)"><ellipse fill="#666553" fill-opacity="0.501961" cx="0" cy="0" rx="1" ry="1" /></g>
<g transform="translate(78.646152 163.823040) rotate(269.470189) scale(2.010668 9.827884)"><ellipse fill="#2b3521" fill-opacity="0.501961" cx="0" cy="0" rx="1" ry="1" /></g>
<g transform="translate(26.843112 76.055977) rotate(356.228388) scale(3.187438 55.656191)"><ellipse fill="#5f5d48" fill-opacity="0.501961" cx="0" cy="0" rx="1" ry="1" /></g>
<g transform="translate(178.234507 10.779480) rotate(48.983686) scale(9.802100 6.626834)"><ellipse fill="#5b5e51" fill-opacity="0.501961" cx="0" cy="0" rx="1" ry="1" /></g>
<g transform="translate(167.440312 38.950152) rotate(16.184025) scale(21.822746 11.573675)"><ellipse fill="#2f3c2f" fill-opacity="0.501961" cx="0" cy="0" rx="1" ry="1" /></g>
<g transform="translate(38.616432 22.550511) rotate(87.987523) scale(10.776426 12.240796)"><ellipse fill="#7f7a6a" fill-opacity="0.501961" cx="0" cy="0" rx="1" ry="1" /></g>
<g transform="translate(168.597418 137.586944) rotate(84.256911) scale(2.209024 47.250527)"><ellipse fill="#a3a6aa" fill-opacity="0.501961" cx="0" cy="0" rx="1" ry="1" /></g>
<g transform="translate(59.850177 153.682718) rotate(177.116910) scale(21.269506 2.376574)"><ellipse fill="#887653" fill-opacity="0.501961" cx="0" cy="0" rx="1" ry="1" /></g>
<g transform="translate(134.614980 70.373303) rotate(270.078762) scale(53.416434 1.304019)"><ellipse fill="#535646" fill-opacity="0.501961" cx="0" cy="0" rx="1" ry="1" /></g>
<g transform="translate(130.031086 91.456491) rotate(180.843824) scale(2.833285 38.671899)"><ellipse fill="#afa390" fill-opacity="0.501961" cx="0" cy="0" rx="1" ry="1" /></g>
<g transform="translate(146.459448 65.054845) rotate(167.777887) scale(4.429114 44.680620)"><ellipse fill="#6e6a57" fill-opacity="0.501961" cx="0" cy="0" rx="1" ry="1" /></g>
<g transform="translate(151.150632 169.711228) rotate(342.502054) scale(12.387144 12.763941)"><ellipse fill="#f1e0c8" fill-opacity="0.501961" cx="0" cy="0" rx="1" ry="1" /></g>
<g transform="translate(223.136654 135.162798) rotate(181.544280) scale(12.295958 1.535545)"><ellipse fill="#8a8f8e" fill-opacity="0.501961" cx="0" cy="0" rx="1" ry="1" /></g>
<g transform="translate(98.044030 103.962045) rotate(109.820757) scale(23.609504 12.120947)"><ellipse fill="#a69983" fill-opacity="0.501961" cx="0" cy="0" rx="1" ry="1" /></g>
<g transform="translate(178.348389 169.000000) rotate(266.965916) scale(8.435778 14.985888)"><ellipse fill="#393e2f" fill-opacity="0.501961" cx="0" cy="0" rx="1" ry="1" /></g>
<g transform="translate(47.499844 169.665212) rotate(354.927333) scale(39.150595 1.000000)"><ellipse fill="#e7c29a" fill-opacity="0.501961" cx="0" cy="0" rx="1" ry="1" /></g>
<g transform="translate(240.973326 149.172238) rotate(354.277207) scale(85.515256 2.166454)"><ellipse fill="#858374" fill-opacity="0.501961" cx="0" cy="0" rx="1" ry="1" /></g>
<g transform="translate(7.001014 89.619554) rotate(3.736230) scale(3.541527 35.134078)"><ellipse fill="#6d7066" fill-opacity="0.501961" cx="0" cy="0" rx="1" ry="1" /></g>
<g transform="translate(109.801618 83.552575) rotate(271.210365) scale(1.986127 34.667218)"><ellipse fill="#7e7b68" fill-opacity="0.501961" cx="0" cy="0" rx="1" ry="1" /></g>
<g transform="translate(9.216141 8.408306) rotate(49.446808) scale(9.132140 43.535745)"><ellipse fill="#777057" fill-opacity="0.501961" cx="0" cy="0" rx="1" ry="1" /></g>
<g transform="translate(176.270402 24.663493) rotate(18.297524) scale(11.158151 3.535105)"><ellipse fill="#8c8268" fill-opacity="0.501961" cx="0" cy="0" rx="1" ry="1" /></g>
<g transform="translate(234.067118 163.281831) rotate(171.852932) scale(28.226225 3.980460)"><ellipse fill="#0e1f0b" fill-opacity="0.501961" cx="0" cy="0" rx="1" ry="1" /></g>
<g transform="translate(120.220341 41.162710) rotate(280.990248) scale(9.868367 11.749756)"><ellipse fill="#9c8b6c" fill-opacity="0.501961" cx="0" cy="0" rx="1" ry="1" /></g>
<g transform="translate(193.522515 2.772298) rotate(100.174120) scale(25.386886 6.088785)"><ellipse fill="#000e08" fill-opacity="0.501961" cx="0" cy="0" rx="1" ry="1" /></g>
<g transform="translate(183.405058 149.314392) rotate(87.261473) scale(3.117722 27.932784)"><ellipse fill="#00150f" fill-opacity="0.501961" cx="0" cy="0" rx="1" ry="1" /></g>
<g transform="translate(89.006144 58.342045) rotate(9.169497) scale(2.526229 22.264521)"><ellipse fill="#a79375" fill-opacity="0.501961" cx="0" cy="0" rx="1" ry="1" /></g>
<g transform="translate(66.611296 38.459204) rotate(93.227208) scale(3.594187 36.236748)"><ellipse fill="#535544" fill-opacity="0.501961" cx="0" cy="0" rx="1" ry="1" /></g>
<g transform="translate(0.000000 48.879231) rotate(-7.074562) scale(8.756761 7.296709)"><ellipse fill="#25342c" fill-opacity="0.501961" cx="0" cy="0" rx="1" ry="1" /></g>
<g transform="translate(101.019870 124.301708) rotate(206.506436) scale(10.562342 27.700503)"><ellipse fill="#8f866f" fill-opacity="0.501961" cx="0" cy="0" rx="1" ry="1" /></g>
<g transform="translate(55.238320 38.323611) rotate(359.757808) scale(2.580088 21.073494)"><ellipse fill="#3e4638" fill-opacity="0.501961" cx="0" cy="0" rx="1" ry="1" /></g>
<g transform="translate(150.247497 28.922251) rotate(99.119670) scale(2.009528 61.419072)"><ellipse fill="#414736" fill-opacity="0.501961" cx="0" cy="0" rx="1" ry="1" /></g>
<g transform="translate(93.280280 159.958906) rotate(160.288948) scale(5.913365 3.781763)"><ellipse fill="#000800" fill-opacity="0.501961" cx="0" cy="0" rx="1" ry="1" /></g>
<g transform="translate(156.425681 152.908517) rotate(185.595150) scale(2.311641 5.940421)"><ellipse fill="#6b6f60" fill-opacity="0.501961" cx="0" cy="0" rx="1" ry="1" /></g>
<g transform="translate(143.862079 112.461254) rotate(261.096563) scale(6.201554 8.286227)"><ellipse fill="#948d79" fill-opacity="0.501961" cx="0" cy="0" rx="1" ry="1" /></g>
<g transform="translate(34.457622 64.898914) rotate(92.542396) scale(1.000000 10.195347)"><ellipse fill="#a7957c" fill-opacity="0.501961" cx="0" cy="0" rx="1" ry="1" /></g>
<g transform="translate(238.359697 126.318409) rotate(366.268806) scale(8.341554 21.334113)"><ellipse fill="#183934" fill-opacity="0.501961" cx="0" cy="0" rx="1" ry="1" /></g>
<g transform="translate(53.146846 8.546184) rotate(355.741184) scale(14.315487 5.972489)"><ellipse fill="#a09378" fill-opacity="0.501961" cx="0" cy="0" rx="1" ry="1" /></g>
<g transform="translate(106.722993 152.607069) rotate(321.102159) scale(6.964834 15.433477)"><ellipse fill="#5c6258" fill-opacity="0.501961" cx="0" cy="0" rx="1" ry="1" /></g>
<g transform="translate(146.893598 105.584410) rotate(87.796077) scale(1.000000 32.208005)"><ellipse fill="#464e41" fill-opacity="0.501961" cx="0" cy="0" rx="1" ry="1" /></g>
<g transform="translate(217.168049 26.718840) rotate(-55.754157) scale(15.684009 12.970501)"><ellipse fill="#213831" fill-opacity="0.501961" cx="0" cy="0" rx="1" ry="1" /></g>
<g transform="translate(118.921698 164.854549) rotate(107.229278) scale(20.599284 3.850055)"><ellipse fill="#2c3528" fill-opacity="0.501961" cx="0" cy="0" rx="1" ry="1" /></g>
<g transform="translate(253.393799 125.634821) rotate(269.447698) scale(19.400458 7.455820)"><ellipse fill="#000300" fill-opacity="0.501961" cx="0" cy="0" rx="1" ry="1" /></g>
<g transform="translate(181.179492 87.944155) rotate(189.638944) scale(16.701119 31.222634)"><ellipse fill="#2c403f" fill-opacity="0.501961" cx="0" cy="0" rx="1" ry="1" /></g>
<g transform="translate(116.083816 19.231657) rotate(96.231068) scale(2.041450 49.939301)"><ellipse fill="#b5a68c" fill-opacity="0.501961" cx="0" cy="0" rx="1" ry="1" /></g>
<g transform="translate(83.129289 132.795296) rotate(92.464285) scale(31.752504 2.315170)"><ellipse fill="#6c654b" fill-opacity="0.501961" cx="0" cy="0" rx="1" ry="1" /></g>
<g transform="translate(105.052955 66.158247) rotate(175.615326) scale(9.586935 20.027420)"><ellipse fill="#c2b29a" fill-opacity="0.501961" cx="0" cy="0" rx="1" ry="1" /></g>
<g transform="translate(130.510352 149.060233) rotate(264.857528) scale(1.000000 98.058739)"><ellipse fill="#636351" fill-opacity="0.501961" cx="0" cy="0" rx="1" ry="1" /></g>
<g transform="translate(242.939498 43.167981) rotate(289.439371) scale(27.412234 9.967562)"><ellipse fill="#02211b" fill-opacity="0.501961" cx="0" cy="0" rx="1" ry="1" /></g>
<g transform="translate(33.940528 142.018199) rotate(298.225212) scale(24.169186 5.352845)"><ellipse fill="#283225" fill-opacity="0.501961" cx="0" cy="0" rx="1" ry="1" /></g>
<g transform="translate(134.961835 105.409991) rotate(91.963255) scale(22.541964 1.804150)"><ellipse fill="#595f52" fill-opacity="0.501961" cx="0" cy="0" rx="1" ry="1" /></g>
<g transform="translate(130.563087 154.889681) rotate(79.296875) scale(4.363861 6.575202)"><ellipse fill="#001308" fill-opacity="0.501961" cx="0" cy="0" rx="1" ry="1" /></g>
<g transform="translate(204.469878 157.219411) rotate(89.333860) scale(4.324750 26.818894)"><ellipse fill="#867f6e" fill-opacity="0.501961" cx="0" cy="0" rx="1" ry="1" /></g>
<g transform="translate(70.420692 113.492625) rotate(176.411137) scale(12.797445 2.359046)"><ellipse fill="#9a927b" fill-opacity="0.501961" cx="0" cy="0" rx="1" ry="1" /></g>
<g transform="translate(80.055171 169.000000) rotate(75.297797) scale(2.365009 19.571724)"><ellipse fill="#fde0c2" fill-opacity="0.501961" cx="0" cy="0" rx="1" ry="1" /></g>
<g transform="translate(36.936260 162.828156) rotate(269.603630) scale(4.583588 26.263032)"><ellipse fill="#001208" fill-opacity="0.501961" cx="0" cy="0" rx="1" ry="1" /></g>
<g transform="translate(200.396673 120.428935) rotate(-3.757249) scale(3.299778 11.928397)"><ellipse fill="#000d08" fill-opacity="0.501961" cx="0" cy="0" rx="1" ry="1" /></g>
<g transform="translate(139.522228 1.060317) rotate(278.058178) scale(1.000000 32.958781)"><ellipse fill="#c0b095" fill-opacity="0.501961" cx="0" cy="0" rx="1" ry="1" /></g>
<g transform="translate(3.018453 103.105822) rotate(88.359106) scale(1.000000 8.932622)"><ellipse fill="#b8ac9d" fill-opacity="0.501961" cx="0" cy="0" rx="1" ry="1" /></g>
<g transform="translate(65.060180 57.790022) rotate(194.008615) scale(8.166703 23.515098)"><ellipse fill="#5e5e4c" fill-opacity="0.501961" cx="0" cy="0" rx="1" ry="1" /></g>
<g transform="translate(224.180900 54.248750) rotate(188.373388) scale(4.812866 28.140639)"><ellipse fill="#374d4f" fill-opacity="0.501961" cx="0" cy="0" rx="1" ry="1" /></g>
<g transform="translate(150.986879 169.000000) rotate(52.050155) scale(8.032597 14.773337)"><ellipse fill="#e4d5c1" fill-opacity="0.501961" cx="0" cy="0" rx="1" ry="1" /></g>
<g transform="translate(53.349408 119.016300) rotate(361.040422) scale(2.131101 25.200226)"><ellipse fill="#222e22" fill-opacity="0.501961" cx="0" cy="0" rx="1" ry="1" /></g>
<g transform="translate(33.917048 83.515736) rotate(370.391683) scale(12.873480 3.520132)"><ellipse fill="#2b3628" fill-opacity="0.501961" cx="0" cy="0" rx="1" ry="1" /></g>
<g transform="translate(0.000000 34.947357) rotate(329.025942) scale(12.158791 5.363218)"><ellipse fill="#2f3c34" fill-opacity="0.501961" cx="0" cy="0" rx="1" ry="1" /></g>
<g transform="translate(201.372783 77.834613) rotate(181.466938) scale(2.975045 49.258992)"><ellipse fill="#001711" fill-opacity="0.501961" cx="0" cy="0" rx="1" ry="1" /></g>
<g transform="translate(209.649451 91.127359) rotate(86.621071) scale(39.342592 6.862123)"><ellipse fill="#133740" fill-opacity="0.501961" cx="0" cy="0" rx="1" ry="1" /></g>
<g transform="translate(12.200222 169.000000) rotate(292.620689) scale(3.482519 11.166670)"><ellipse fill="#4f523f" fill-opacity="0.501961" cx="0" cy="0" rx="1" ry="1" /></g>
<g transform="translate(36.792752 106.499165) rotate(290.989882) scale(4.861663 8.437686)"><ellipse fill="#333b2f" fill-opacity="0.501961" cx="0" cy="0" rx="1" ry="1" /></g>
<g transform="translate(181.523581 19.951643) rotate(217.565531) scale(2.994424 6.055842)"><ellipse fill="#8d8775" fill-opacity="0.501961" cx="0" cy="0" rx="1" ry="1" /></g>
<g transform="translate(141.950162 169.000000) rotate(204.485664) scale(18.912067 5.143559)"><ellipse fill="#f8e6ce" fill-opacity="0.501961" cx="0" cy="0" rx="1" ry="1" /></g>
<g transform="translate(91.943522 156.510322) rotate(278.193696) scale(2.410816 8.257523)"><ellipse fill="#001508" fill-opacity="0.501961" cx="0" cy="0" rx="1" ry="1" /></g>
<g transform="translate(70.316826 26.077930) rotate(243.050162) scale(10.320750 10.386989)"><ellipse fill="#81785e" fill-opacity="0.501961" cx="0" cy="0" rx="1" ry="1" /></g>
<g transform="translate(4.284139 88.199718) rotate(275.758549) scale(1.000000 5.965697)"><ellipse fill="#a79f91" fill-opacity="0.501961" cx="0" cy="0" rx="1" ry="1" /></g>
<g transform="translate(251.572016 12.239231) rotate(3.066810) scale(19.599078 14.931682)"><ellipse fill="#000d08" fill-opacity="0.501961" cx="0" cy="0" rx="1" ry="1" /></g>
<g transform="translate(62.481636 85.002904) rotate(91.809653) scale(24.186769 6.609589)"><ellipse fill="#525444" fill-opacity="0.501961" cx="0" cy="0" rx="1" ry="1" /></g>
<g transform="translate(21.437368 14.531631) rotate(91.476978) scale(3.721618 1.349603)"><ellipse fill="#001302" fill-opacity="0.501961" cx="0" cy="0" rx="1" ry="1" /></g>
<g transform="translate(171.934769 59.802237) rotate(66.654271) scale(4.813247 7.069905)"><ellipse fill="#455b65" fill-opacity="0.501961" cx="0" cy="0" rx="1" ry="1" /></g>
<g transform="translate(116.967626 69.238563) rotate(89.454246) scale(29.715766 2.378768)"><ellipse fill="#cabaa2" fill-opacity="0.501961" cx="0" cy="0" rx="1" ry="1" /></g>
<g transform="translate(152.265158 143.531901) rotate(177.652847) scale(50.651706 1.000000)"><ellipse fill="#4a504a" fill-opacity="0.501961" cx="0" cy="0" rx="1" ry="1" /></g>
<g transform="translate(143.147036 74.592017) rotate(354.880048) scale(6.666237 8.322045)"><ellipse fill="#998f7a" fill-opacity="0.501961" cx="0" cy="0" rx="1" ry="1" /></g>
<g transform="translate(17.239857 144.068140) rotate(96.345706) scale(22.857505 5.714728)"><ellipse fill="#031a11" fill-opacity="0.501961" cx="0" cy="0" rx="1" ry="1" /></g>
<g transform="translate(185.915459 135.165708) rotate(88.451609) scale(1.000000 43.566297)"><ellipse fill="#8c9296" fill-opacity="0.501961" cx="0" cy="0" rx="1" ry="1" /></g>
<g transform="translate(0.000000 65.080083) rotate(271.368756) scale(6.529993 8.041514)"><ellipse fill="#344037" fill-opacity="0.501961" cx="0" cy="0" rx="1" ry="1" /></g>
<g transform="translate(78.015311 97.952358) rotate(1.124759) scale(2.899142 42.769932)"><ellipse fill="#8f8269" fill-opacity="0.501961" cx="0" cy="0" rx="1" ry="1" /></g>
<g transform="translate(8.593005 118.053237) rotate(177.039809) scale(3.219966 1.000000)"><ellipse fill="#afa498" fill-opacity="0.501961" cx="0" cy="0" rx="1" ry="1" /></g>
<g transform="translate(83.380649 158.850479) rotate(379.195777) scale(1.000000 5.872747)"><ellipse fill="#a8916c" fill-opacity="0.501961" cx="0" cy="0" rx="1" ry="1" /></g>
<g transform="translate(194.211244 154.751859) rotate(356.206261) scale(24.828054 2.237290)"><ellipse fill="#918b7c" fill-opacity="0.501961" cx="0" cy="0" rx="1" ry="1" /></g>
<g transform="translate(65.024264 133.081968) rotate(192.552598) scale(8.361767 17.933405)"><ellipse fill="#615c46" fill-opacity="0.501961" cx="0" cy="0" rx="1" ry="1" /></g>
<g transform="translate(136.284409 125.789638) rotate(260.808694) scale(4.752317 3.190634)"><ellipse fill="#444c3f" fill-opacity="0.501961" cx="0" cy="0" rx="1" ry="1" /></g>
<g transform="translate(11.548158 11.151842) rotate(184.074586) scale(8.292581 1.000000)"><ellipse fill="#b7a88d" fill-opacity="0.501961" cx="0" cy="0" rx="1" ry="1" /></g>
<g transform="translate(96.231168 100.175015) rotate(263.501584) scale(14.669984 10.165421)"><ellipse fill="#b0a188" fill-opacity="0.501961" cx="0" cy="0" rx="1" ry="1" /></g>
<g transform="translate(77.566373 67.930231) rotate(3.795818) scale(26.677021 1.000000)"><ellipse fill="#7b7765" fill-opacity="0.501961" cx="0" cy="0" rx="1" ry="1" /></g>
<g transform="translate(180.916521 75.087081) rotate(180.743172) scale(1.000000 27.836965)"><ellipse fill="#4d5c5c" fill-opacity="0.501961" cx="0" cy="0" rx="1" ry="1" /></g>
<g transform="translate(168.725962 163.990078) rotate(74.132071) scale(7.335815 5.358729)"><ellipse fill="#414536" fill-opacity="0.501961" cx="0" cy="0" rx="1" ry="1" /></g>
<g transform="translate(171.628423 143.060911) rotate(356.382054) scale(47.209168 3.319943)"><ellipse fill="#515850" fill-opacity="0.501961" cx="0" cy="0" rx="1" ry="1" /></g>
<g transform="translate(113.605577 41.007567) rotate(249.308020) scale(1.938375 1.000000)"><ellipse fill="#0c221a" fill-opacity="0.501961" cx="0" cy="0" rx="1" ry="1" /></g>
<g transform="translate(130.095812 72.722278) rotate(177.665178) scale(1.596715 34.987371)"><ellipse fill="#b9a991" fill-opacity="0.501961" cx="0" cy="0" rx="1" ry="1" /></g>
<g transform="translate(3.913899 148.691337) rotate(177.175696) scale(8.156175 1.000000)"><ellipse fill="#767569" fill-opacity="0.501961" cx="0" cy="0" rx="1" ry="1" /></g>
<g transform="translate(35.907525 2.861522) rotate(357.988550) scale(1.000000 9.270482)"><ellipse fill="#dbcbb5" fill-opacity="0.501961" cx="0" cy="0" rx="1" ry="1" /></g>
<g transform="translate(180.808743 30.567480) rotate(187.737460) scale(55.208255 1.000000)"><ellipse fill="#2a392c" fill-opacity="0.501961" cx="0" cy="0" rx="1" ry="1" /></g>
<g transform="translate(153.720088 82.216751) rotate(158.106352) scale(5.344575 26.179703)"><ellipse fill="#5f6155" fill-opacity="0.501961" cx="0" cy="0" rx="1" ry="1" /></g>
<g transform="translate(82.355016 150.094751) rotate(175.888206) scale(19.460275 4.605314)"><ellipse fill="#847659" fill-opacity="0.501961" cx="0" cy="0" rx="1" ry="1" /></g>
<g transform="translate(105.326079 43.532703) rotate(257.217657) scale(9.137957 4.035717)"><ellipse fill="#b8a07c" fill-opacity="0.501961" cx="0" cy="0" rx="1" ry="1" /></g>
<g transform="translate(231.608754 143.315415) rotate(87.045357) scale(4.145219 3.387659)"><ellipse fill="#45554b" fill-opacity="0.501961" cx="0" cy="0" rx="1" ry="1" /></g>
<g transform="translate(29.523218 64.864857) rotate(211.886927) scale(3.551025 6.257693)"><ellipse fill="#857b66" fill-opacity="0.501961" cx="0" cy="0" rx="1" ry="1" /></g>
<g transform="translate(235.617596 82.760490) rotate(72.983360) scale(9.217647 11.044006)"><ellipse fill="#354b43" fill-opacity="0.501961" cx="0" cy="0" rx="1" ry="1" /></g>
<g transform="translate(178.162576 66.723512) rotate(275.041700) scale(1.000000 22.725634)"><ellipse fill="#172d26" fill-opacity="0.501961" cx="0" cy="0" rx="1" ry="1" /></g>
<g transform="translate(143.148965 6.510043) rotate(270.627806) scale(8.775188 1.000000)"><ellipse fill="#d7c6ac" fill-opacity="0.501961" cx="0" cy="0" rx="1" ry="1" /></g>
<g transform="translate(36.116336 114.049556) rotate(86.556719) scale(2.876767 6.821486)"><ellipse fill="#76725f" fill-opacity="0.501961" cx="0" cy="0" rx="1" ry="1" /></g>
<g transform="translate(57.253588 161.979680) rotate(256.399543) scale(3.247784 26.366743)"><ellipse fill="#001309" fill-opacity="0.501961" cx="0" cy="0" rx="1" ry="1" /></g>
<g transform="translate(246.237051 151.778593) rotate(163.480099) scale(30.334766 3.285776)"><ellipse fill="#666554" fill-opacity="0.501961" cx="0" cy="0" rx="1" ry="1" /></g>
<g transform="translate(83.855247 11.023670) rotate(185.863518) scale(36.972836 3.042117)"><ellipse fill="#a29478" fill-opacity="0.501961" cx="0" cy="0" rx="1" ry="1" /></g>
<g transform="translate(159.940759 124.972153) rotate(109.544814) scale(11.764076 5.122509)"><ellipse fill="#515449" fill-opacity="0.501961" cx="0" cy="0" rx="1" ry="1" /></g>
<g transform="translate(254.567191 78.535174) rotate(186.927294) scale(8.073999 25.030614)"><ellipse fill="#002519" fill-opacity="0.501961" cx="0" cy="0" rx="1" ry="1" /></g>
<g transform="translate(149.432690 161.554640) rotate(356.118717) scale(13.106327 3.362491)"><ellipse fill="#fbedd6" fill-opacity="0.501961" cx="0" cy="0" rx="1" ry="1" /></g>
<g transform="translate(115.851787 0.000000) rotate(356.803126) scale(1.000000 10.748721)"><ellipse fill="#e9dcc6" fill-opacity="0.501961" cx="0" cy="0" rx="1" ry="1" /></g>
<g transform="translate(1.891592 25.000329) rotate(279.783448) scale(1.000000 9.685076)"><ellipse fill="#a59a86" fill-opacity="0.501961" cx="0" cy="0" rx="1" ry="1" /></g>
<g transform="translate(82.413217 157.046102) rotate(253.850910) scale(10.456928 1.311886)"><ellipse fill="#9b8b6a" fill-opacity="0.501961" cx="0" cy="0" rx="1" ry="1" /></g>
<g transform="translate(2.418296 96.218442) rotate(78.371040) scale(5.467383 9.507641)"><ellipse fill="#39443c" fill-opacity="0.501961" cx="0" cy="0" rx="1" ry="1" /></g>
<g transform="translate(23.282487 149.257280) rotate(269.804705) scale(145.773416 1.000000)"><ellipse fill="#3f4833" fill-opacity="0.501961" cx="0" cy="0" rx="1" ry="1" /></g>
<g transform="translate(96.595246 83.644205) rotate(130.154269) scale(2.817308 4.044328)"><ellipse fill="#6e6c58" fill-opacity="0.501961" cx="0" cy="0" rx="1" ry="1" /></g>
<g transform="translate(178.639946 0.000000) rotate(110.239193) scale(16.918637 7.519540)"><ellipse fill="#575a4d" fill-opacity="0.501961" cx="0" cy="0" rx="1" ry="1" /></g>
<g transform="translate(185.640162 136.419217) rotate(269.506304) scale(2.415788 27.107530)"><ellipse fill="#919598" fill-opacity="0.501961" cx="0" cy="0" rx="1" ry="1" /></g>
<g transform="translate(0.000000 72.376518) rotate(176.592420) scale(12.955145 1.000000)"><ellipse fill="#a0998b" fill-opacity="0.501961" cx="0" cy="0" rx="1" ry="1" /></g>
<g transform="translate(222.204646 145.336154) rotate(173.549198) scale(8.668007 3.351791)"><ellipse fill="#0a2313" fill-opacity="0.501961" cx="0" cy="0" rx="1" ry="1" /></g>
<g transform="translate(14.221908 19.339500) rotate(326.503254) scale(9.248862 2.247074)"><ellipse fill="#0c2014" fill-opacity="0.501961" cx="0" cy="0" rx="1" ry="1" /></g>
<g transform="translate(247.889404 169.000000) rotate(94.806372) scale(1.696046 13.293973)"><ellipse fill="#726544" fill-opacity="0.501961" cx="0" cy="0" rx="1" ry="1" /></g>
<g transform="translate(162.686093 8.285052) rotate(280.894015) scale(2.666415 10.402748)"><ellipse fill="#81765a" fill-opacity="0.501961" cx="0" cy="0" rx="1" ry="1" /></g>
<g transform="translate(47.772442 38.315856) rotate(185.726133) scale(3.164898 10.542146)"><ellipse fill="#737264" fill-opacity="0.501961" cx="0" cy="0" rx="1" ry="1" /></g>
<g transform="translate(113.152738 84.059296) rotate(177.149076) scale(1.000000 2.900082)"><ellipse fill="#21342f" fill-opacity="0.501961" cx="0" cy="0" rx="1" ry="1" /></g>
<g transform="translate(192.849666 42.298224) rotate(272.136238) scale(10.188348 4.340663)"><ellipse fill="#414b3d" fill-opacity="0.501961" cx="0" cy="0" rx="1" ry="1" /></g>
<g transform="translate(180.148202 149.376179) rotate(80.476958) scale(3.158623 20.805097)"><ellipse fill="#00100a" fill-opacity="0.501961" cx="0" cy="0" rx="1" ry="1" /></g>
<g transform="translate(152.380404 46.303841) rotate(125.044789) scale(15.633630 5.666257)"><ellipse fill="#50564a" fill-opacity="0.501961" cx="0" cy="0" rx="1" ry="1" /></g>
<g transform="translate(100.818746 11.341571) rotate(84.745750) scale(7.302049 1.000000)"><ellipse fill="#e0d1bc" fill-opacity="0.501961" cx="0" cy="0" rx="1" ry="1" /></g>
<g transform="translate(61.923640 12.347796) rotate(2.639578) scale(25.049644 3.331859)"><ellipse fill="#a89a80" fill-opacity="0.501961" cx="0" cy="0" rx="1" ry="1" /></g>
<g transform="translate(139.395148 153.497990) rotate(274.403126) scale(2.426701 16.631721)"><ellipse fill="#00140b" fill-opacity="0.501961" cx="0" cy="0" rx="1" ry="1" /></g>
<g transform="translate(0.000000 134.495407) rotate(263.381915) scale(1.000000 11.200267)"><ellipse fill="#838073" fill-opacity="0.501961" cx="0" cy="0" rx="1" ry="1" /></g>
<g transform="translate(181.575706 119.294393) rotate(149.695963) scale(16.895335 13.885056)"><ellipse fill="#263a38" fill-opacity="0.501961" cx="0" cy="0" rx="1" ry="1" /></g>
<g transform="translate(72.408611 160.933672) rotate(293.903755) scale(1.403432 11.778308)"><ellipse fill="#001109" fill-opacity="0.501961" cx="0" cy="0" rx="1" ry="1" /></g>
<g transform="translate(99.860926 21.873663) rotate(187.362490) scale(79.260685 1.000000)"><ellipse fill="#5a5842" fill-opacity="0.501961" cx="0" cy="0" rx="1" ry="1" /></g>
<g transform="translate(54.428046 75.535285) rotate(268.227252) scale(32.091462 3.326882)"><ellipse fill="#373f33" fill-opacity="0.501961" cx="0" cy="0" rx="1" ry="1" /></g>
<g transform="translate(94.665781 31.542350) rotate(177.915016) scale(7.045193 13.115398)"><ellipse fill="#796f54" fill-opacity="0.501961" cx="0" cy="0" rx="1" ry="1" /></g>
<g transform="translate(25.083818 32.150108) rotate(61.243610) scale(6.120768 1.912542)"><ellipse fill="#354031" fill-opacity="0.501961" cx="0" cy="0" rx="1" ry="1" /></g>
<g transform="translate(69.555144 167.826382) rotate(349.157009) scale(9.609448 1.594369)"><ellipse fill="#dfc39f" fill-opacity="0.501961" cx="0" cy="0" rx="1" ry="1" /></g>
<g transform="translate(0.000000 142.187273) rotate(92.042053) scale(6.500576 6.800968)"><ellipse fill="#27362c" fill-opacity="0.501961" cx="0" cy="0" rx="1" ry="1" /></g>
<g transform="translate(75.863848 1.674680) rotate(189.688662) scale(11.011758 1.911019)"><ellipse fill="#968561" fill-opacity="0.501961" cx="0" cy="0" rx="1" ry="1" /></g>
<g transform="translate(31.707997 92.636037) rotate(160.846618) scale(7.632404 7.874609)"><ellipse fill="#68634f" fill-opacity="0.501961" cx="0" cy="0" rx="1" ry="1" /></g>
<g transform="translate(94.501226 168.513722) rotate(259.538210) scale(5.198649 4.947101)"><ellipse fill="#fae5c8" fill-opacity="0.501961" cx="0" cy="0" rx="1" ry="1" /></g>
<g transform="translate(81.660124 115.287352) rotate(270.138752) scale(35.672204 1.000000)"><ellipse fill="#605c47" fill-opacity="0.501961" cx="0" cy="0" rx="1" ry="1" /></g>
<g transform="translate(137.702877 65.803671) rotate(359.607805) scale(1.733928 15.369146)"><ellipse fill="#a89a82" fill-opacity="0.501961" cx="0" cy="0" rx="1" ry="1" /></g>
<g transform="translate(124.531375 140.561622) rotate(264.254128) scale(3.342834 8.343618)"><ellipse fill="#bfb7a8" fill-opacity="0.501961" cx="0" cy="0" rx="1" ry="1" /></g>
<g transform="translate(121.452991 113.786767) rotate(279.396926) scale(10.343931 8.980192)"><ellipse fill="#99917f" fill-opacity="0.501961" cx="0" cy="0" rx="1" ry="1" /></g>
<g transform="translate(204.092227 139.722422) rotate(266.282720) scale(2.045038 26.919576)"><ellipse fill="#545851" fill-opacity="0.501961" cx="0" cy="0" rx="1" ry="1" /></g>
<g transform="translate(180.386683 44.045416) rotate(230.381877) scale(20.841488 8.394655)"><ellipse fill="#2f3e34" fill-opacity="0.501961" cx="0" cy="0" rx="1" ry="1" /></g>
<g transform="translate(1.077128 56.895494) rotate(182.648279) scale(11.434200 1.000000)"><ellipse fill="#958f81" fill-opacity="0.501961" cx="0" cy="0" rx="1" ry="1" /></g>
<g transform="translate(202.302897 0.000000) rotate(32.489737) scale(13.682956 21.836314)"><ellipse fill="#001913" fill-opacity="0.501961" cx="0" cy="0" rx="1" ry="1" /></g>
<g transform="translate(199.450263 43.028205) rotate(180.483450) scale(1.000000 89.908656)"><ellipse fill="#00130b" fill-opacity="0.501961" cx="0" cy="0" rx="1" ry="1" /></g>
<g transform="translate(158.607193 160.310182) rotate(229.894843) scale(1.230017 6.125736)"><ellipse fill="#e8d8c3" fill-opacity="0.501961" cx="0" cy="0" rx="1" ry="1" /></g>
<g transform="translate(212.174254 169.000000) rotate(191.265733) scale(31.919382 2.024235)"><ellipse fill="#222c18" fill-opacity="0.501961" cx="0" cy="0" rx="1" ry="1" /></g>
<g transform="translate(121.848349 72.526156) rotate(182.680533) scale(4.789919 1.000000)"><ellipse fill="#949384" fill-opacity="0.501961" cx="0" cy="0" rx="1" ry="1" /></g>
<g transform="translate(139.998974 105.220227) rotate(84.020765) scale(1.000000 4.367807)"><ellipse fill="#2a382d" fill-opacity="0.501961" cx="0" cy="0" rx="1" ry="1" /></g>
<g transform="translate(3.200457 40.427819) rotate(7.156740) scale(9.510398 1.395310)"><ellipse fill="#7f7d71" fill-opacity="0.501961" cx="0" cy="0" rx="1" ry="1" /></g>
<g transform="translate(97.384252 130.001184) rotate(38.736429) scale(3.944222 5.721459)"><ellipse fill="#6b6955" fill-opacity="0.501961" cx="0" cy="0" rx="1" ry="1" /></g>
<g transform="translate(56.370728 6.378192) rotate(101.379846) scale(2.687809 10.160547)"><ellipse fill="#8b8269" fill-opacity="0.501961" cx="0" cy="0" rx="1" ry="1" /></g>
<g transform="translate(111.062434 115.261899) rotate(1.191710) scale(1.000000 41.120807)"><ellipse fill="#827c69" fill-opacity="0.501961" cx="0" cy="0" rx="1" ry="1" /></g>
<g transform="translate(134.315848 31.913004) rotate(176.923353) scale(1.000000 7.839047)"><ellipse fill="#2c372a" fill-opacity="0.501961" cx="0" cy="0" rx="1" ry="1" /></g>
<g transform="translate(85.131304 83.241115) rotate(333.425426) scale(3.192256 1.000000)"><ellipse fill="#3d4535" fill-opacity="0.501961" cx="0" cy="0" rx="1" ry="1" /></g>
<g transform="translate(70.189117 8.964464) rotate(91.722553) scale(6.262226 1.000000)"><ellipse fill="#d9cbb7" fill-opacity="0.501961" cx="0" cy="0" rx="1" ry="1" /></g>
<g transform="translate(209.211455 12.861728) rotate(233.673896) scale(9.242825 28.256105)"><ellipse fill="#0a241d" fill-opacity="0.501961" cx="0" cy="0" rx="1" ry="1" /></g>
<g transform="translate(125.070839 85.570581) rotate(99.893661) scale(4.224592 3.240376)"><ellipse fill="#7b7a68" fill-opacity="0.501961" cx="0" cy="0" rx="1" ry="1" /></g>
<g transform="translate(221.781716 69.991709) rotate(78.998344) scale(38.100533 8.894305)"><ellipse fill="#30474c" fill-opacity="0.501961" cx="0" cy="0" rx="1" ry="1" /></g>
<g transform="translate(105.696720 147.040073) rotate(198.850397) scale(6.432056 5.519083)"><ellipse fill="#4b5753" fill-opacity="0.501961" cx="0" cy="0" rx="1" ry="1" /></g>
<g transform="translate(125.442188 133.413998) rotate(84.463370) scale(4.262874 24.166032)"><ellipse fill="#787360" fill-opacity="0.501961" cx="0" cy="0" rx="1" ry="1" /></g>
<g transform="translate(123.828505 41.032862) rotate(-4.175635) scale(3.287732 6.333459)"><ellipse fill="#79735e" fill-opacity="0.501961" cx="0" cy="0" rx="1" ry="1" /></g>
<g transform="translate(134.718292 130.922665) rotate(83.227177) scale(5.938783 1.000000)"><ellipse fill="#323c2e" fill-opacity="0.501961" cx="0" cy="0" rx="1" ry="1" /></g>
<g transform="translate(216.861875 101.261946) rotate(351.949032) scale(7.146653 30.241799)"><ellipse fill="#243e4a" fill-opacity="0.501961" cx="0" cy="0" rx="1" ry="1" /></g>
<g transform="translate(93.113682 143.941081) rotate(65.813962) scale(9.587675 6.165959)"><ellipse fill="#8e8167" fill-opacity="0.501961" cx="0" cy="0" rx="1" ry="1" /></g>
<g transform="translate(153.251655 169.000000) rotate(89.582216) scale(1.000000 10.322297)"><ellipse fill="#c5b8a5" fill-opacity="0.501961" cx="0" cy="0" rx="1" ry="1" /></g>
<g transform="translate(159.737729 0.000000) rotate(125.072316) scale(3.222389 5.017490)"><ellipse fill="#66624e" fill-opacity="0.501961" cx="0" cy="0" rx="1" ry="1" /></g>
<g transform="translate(178.709809 105.266180) rotate(88.510650) scale(1.000000 17.628658)"><ellipse fill="#102520" fill-opacity="0.501961" cx="0" cy="0" rx="1" ry="1" /></g>
<g transform="translate(114.607325 141.048837) rotate(185.050945) scale(13.870547 1.570164)"><ellipse fill="#bcb3a5" fill-opacity="0.501961" cx="0" cy="0" rx="1" ry="1" /></g>
<g transform="translate(64.962037 111.597173) rotate(6.811655) scale(8.557489 1.000000)"><ellipse fill="#ab9e83" fill-opacity="0.501961" cx="0" cy="0" rx="1" ry="1" /></g>
<g transform="translate(0.000000 13.981784) rotate(-7.709613) scale(4.934301 2.863600)"><ellipse fill="#3b412f" fill-opacity="0.501961" cx="0" cy="0" rx="1" ry="1" /></g>
<g transform="translate(134.128505 0.289133) rotate(193.109800) scale(13.148984 1.000000)"><ellipse fill="#d3c2a8" fill-opacity="0.501961" cx="0" cy="0" rx="1" ry="1" /></g>
<g transform="translate(108.245838 87.579800) rotate(358.868068) scale(1.000000 36.600627)"><ellipse fill="#9b8f78" fill-opacity="0.501961" cx="0" cy="0" rx="1" ry="1" /></g>
<g transform="translate(89.166736 63.366779) rotate(105.511553) scale(19.181437 3.939901)"><ellipse fill="#a7967a" fill-opacity="0.501961" cx="0" cy="0" rx="1" ry="1" /></g>
<g transform="translate(158.871673 156.017779) rotate(-24.866943) scale(3.862243 1.000000)"><ellipse fill="#323b2d" fill-opacity="0.501961" cx="0" cy="0" rx="1" ry="1" /></g>
<g transform="translate(205.390668 127.416155) rotate(43.197097) scale(4.084334 5.250892)"><ellipse fill="#002229" fill-opacity="0.501961" cx="0" cy="0" rx="1" ry="1" /></g>
<g transform="translate(147.714049 94.756995) rotate(58.124975) scale(9.144382 4.494428)"><ellipse fill="#817b6c" fill-opacity="0.501961" cx="0" cy="0" rx="1" ry="1" /></g>
<g transform="translate(121.063623 160.621418) rotate(-6.019782) scale(2.014312 15.000436)"><ellipse fill="#2e3527" fill-opacity="0.501961" cx="0" cy="0" rx="1" ry="1" /></g>
<g transform="translate(123.062673 110.387924) rotate(179.620612) scale(32.445390 1.000000)"><ellipse fill="#a79e8c" fill-opacity="0.501961" cx="0" cy="0" rx="1" ry="1" /></g>
<g transform="translate(34.655014 67.616994) rotate(185.460259) scale(8.789255 1.000000)"><ellipse fill="#7d7762" fill-opacity="0.501961" cx="0" cy="0" rx="1" ry="1" /></g>
<g transform="translate(84.337695 34.602991) rotate(256.447420) scale(8.471933 3.302735)"><ellipse fill="#4f513e" fill-opacity="0.501961" cx="0" cy="0" rx="1" ry="1" /></g>
<g transform="translate(238.328656 50.748709) rotate(260.009565) scale(20.080427 7.775124)"><ellipse fill="#0c2c25" fill-opacity="0.501961" cx="0" cy="0" rx="1" ry="1" /></g>
<g transform="translate(2.718475 158.698569) rotate(374.048310) scale(4.322190 4.483934)"><ellipse fill="#1d2f26" fill-opacity="0.501961" cx="0" cy="0" rx="1" ry="1" /></g>
<g transform="translate(151.828028 152.563101) rotate(58.675815) scale(2.975616 3.279384)"><ellipse fill="#000a03" fill-opacity="0.501961" cx="0" cy="0" rx="1" ry="1" /></g>
<g transform="translate(87.322360 4.651847) rotate(169.387331) scale(1.218077 5.097177)"><ellipse fill="#d8c8b0" fill-opacity="0.501961" cx="0" cy="0" rx="1" ry="1" /></g>
<g transform="translate(0.000000 118.248567) rotate(-0.666218) scale(10.282870 1.000000)"><ellipse fill="#9e9688" fill-opacity="0.501961" cx="0" cy="0" rx="1" ry="1" /></g>
<g transform="translate(168.920226 16.946399) rotate(125.937749) scale(3.191919 20.909682)"><ellipse fill="#95886f" fill-opacity="0.501961" cx="0" cy="0" rx="1" ry="1" /></g>
<g transform="translate(67.103524 129.787472) rotate(181.512151) scale(8.097218 3.230811)"><ellipse fill="#4d503e" fill-opacity="0.501961" cx="0" cy="0" rx="1" ry="1" /></g>
<g transform="translate(159.247703 138.868726) rotate(358.601261) scale(24.897311 2.168221)"><ellipse fill="#9d9f9d" fill-opacity="0.501961" cx="0" cy="0" rx="1" ry="1" /></g>
<g transform="translate(77.967756 70.058028) rotate(94.764507) scale(1.000000 26.344990)"><ellipse fill="#777462" fill-opacity="0.501961" cx="0" cy="0" rx="1" ry="1" /></g>
<g transform="translate(132.955125 65.760786) rotate(266.350769) scale(32.770289 1.000000)"><ellipse fill="#8d836d" fill-opacity="0.501961" cx="0" cy="0" rx="1" ry="1" /></g>
<g transform="translate(124.340904 0.346987) rotate(118.860175) scale(6.189722 7.369648)"><ellipse fill="#90866b" fill-opacity="0.501961" cx="0" cy="0" rx="1" ry="1" /></g>
<g transform="translate(155.016831 21.023361) rotate(178.601997) scale(1.133306 4.435083)"><ellipse fill="#d6cab5" fill-opacity="0.501961" cx="0" cy="0" rx="1" ry="1" /></g>
<g transform="translate(88.995600 159.685585) rotate(297.016310) scale(4.180106 3.906299)"><ellipse fill="#001209" fill-opacity="0.501961" cx="0" cy="0" rx="1" ry="1" /></g>
<g transform="translate(118.984214 51.450374) rotate(271.851596) scale(5.332972 11.901802)"><ellipse fill="#c5af8f" fill-opacity="0.501961" cx="0" cy="0" rx="1" ry="1" /></g>
<g transform="translate(195.625061 60.032073) rotate(178.501012) scale(2.082174 29.423259)"><ellipse fill="#3d4b42" fill-opacity="0.501961" cx="0" cy="0" rx="1" ry="1" /></g>
<g transform="translate(104.370473 66.782792) rotate(175.797322) scale(18.388682 1.000000)"><ellipse fill="#cabca6" fill-opacity="0.501961" cx="0" cy="0" rx="1" ry="1" /></g>
<g transform="translate(3.376435 87.924435) rotate(263.519373) scale(1.510231 9.103139)"><ellipse fill="#8c897b" fill-opacity="0.501961" cx="0" cy="0" rx="1" ry="1" /></g>
<g transform="translate(151.260694 123.308213) rotate(190.949105) scale(8.045977 13.367382)"><ellipse fill="#606154" fill-opacity="0.501961" cx="0" cy="0" rx="1" ry="1" /></g>
<g transform="translate(18.452405 74.505863) rotate(180.054133) scale(3.287050 52.341025)"><ellipse fill="#0b2114" fill-opacity="0.501961" cx="0" cy="0" rx="1" ry="1" /></g>
<g transform="translate(131.407145 167.604125) rotate(317.177798) scale(3.895144 10.034863)"><ellipse fill="#f5e6ce" fill-opacity="0.501961" cx="0" cy="0" rx="1" ry="1" /></g>
<g transform="translate(237.310691 90.278626) rotate(83.225458) scale(31.441925 6.619871)"><ellipse fill="#263c33" fill-opacity="0.501961" cx="0" cy="0" rx="1" ry="1" /></g>
<g transform="translate(83.295505 142.655417) rotate(173.742713) scale(2.601975 7.809713)"><ellipse fill="#595743" fill-opacity="0.501961" cx="0" cy="0" rx="1" ry="1" /></g>
<g transform="translate(45.628052 152.130038) rotate(346.143946) scale(14.521794 4.572645)"><ellipse fill="#4f4b36" fill-opacity="0.501961" cx="0" cy="0" rx="1" ry="1" /></g>
<g transform="translate(114.767655 30.339455) rotate(219.158886) scale(2.053895 7.278020)"><ellipse fill="#887d64" fill-opacity="0.501961" cx="0" cy="0" rx="1" ry="1" /></g>
<g transform="translate(30.236646 121.153781) rotate(226.465712) scale(5.736361 5.790608)"><ellipse fill="#5f5b48" fill-opacity="0.501961" cx="0" cy="0" rx="1" ry="1" /></g>
<g transform="translate(160.455081 16.098028) rotate(8.026186) scale(20.189694 1.000000)"><ellipse fill="#c1b199" fill-opacity="0.501961" cx="0" cy="0" rx="1" ry="1" /></g>
<g transform="translate(88.551349 86.929360) rotate(228.965823) scale(1.000000 1.739196)"><ellipse fill="#f0e8d5" fill-opacity="0.501961" cx="0" cy="0" rx="1" ry="1" /></g>
<g transform="translate(142.863592 139.116882) rotate(174.695843) scale(28.377564 2.262641)"><ellipse fill="#adaba5" fill-opacity="0.501961" cx="0" cy="0" rx="1" ry="1" /></g>
<g transform="translate(107.429272 167.026509) rotate(243.031780) scale(6.780494 8.755965)"><ellipse fill="#3d473d" fill-opacity="0.501961" cx="0" cy="0" rx="1" ry="1" /></g>
<g transform="translate(180.753449 83.488438) rotate(178.738144) scale(1.000000 16.165515)"><ellipse fill="#515f5f" fill-opacity="0.501961" cx="0" cy="0" rx="1" ry="1" /></g>
<g transform="translate(137.498515 82.915035) rotate(126.638648) scale(1.000000 2.744829)"><ellipse fill="#243934" fill-opacity="0.501961" cx="0" cy="0" rx="1" ry="1" /></g>
<g transform="translate(216.180138 134.642297) rotate(272.519446) scale(1.000000 16.047824)"><ellipse fill="#8d9095" fill-opacity="0.501961" cx="0" cy="0" rx="1" ry="1" /></g>
<g transform="translate(96.736991 97.767131) rotate(253.596308) scale(40.624742 2.956710)"><ellipse fill="#9f927c" fill-opacity="0.501961" cx="0" cy="0" rx="1" ry="1" /></g>
<g transform="translate(172.576856 156.900234) rotate(191.001366) scale(7.916870 1.000000)"><ellipse fill="#928a75" fill-opacity="0.501961" cx="0" cy="0" rx="1" ry="1" /></g>
<g transform="translate(252.134670 28.120749) rotate(183.973098) scale(6.451023 1.000000)"><ellipse fill="#2a4139" fill-opacity="0.501961" cx="0" cy="0" rx="1" ry="1" /></g>
<g transform="translate(54.751201 128.118837) rotate(359.200179) scale(1.224455 26.671436)"><ellipse fill="#2c3527" fill-opacity="0.501961" cx="0" cy="0" rx="1" ry="1" /></g>
<g transform="translate(87.648839 90.312267) rotate(134.691338) scale(1.000000 1.445829)"><ellipse fill="#333e31" fill-opacity="0.501961" cx="0" cy="0" rx="1" ry="1" /></g>
<g transform="translate(95.446643 155.558577) rotate(-20.994966) scale(5.178505 1.876887)"><ellipse fill="#001409" fill-opacity="0.501961" cx="0" cy="0" rx="1" ry="1" /></g>
<g transform="translate(24.806220 12.001887) rotate(362.414015) scale(4.397765 1.000000)"><ellipse fill="#293120" fill-opacity="0.501961" cx="0" cy="0" rx="1" ry="1" /></g>
<g transform="translate(198.921198 153.141527) rotate(175.659031) scale(37.311853 1.000000)"><ellipse fill="#888577" fill-opacity="0.501961" cx="0" cy="0" rx="1" ry="1" /></g>
<g transform="translate(161.578910 46.502797) rotate(99.561498) scale(1.000000 29.882046)"><ellipse fill="#2e3d34" fill-opacity="0.501961" cx="0" cy="0" rx="1" ry="1" /></g>
<g transform="translate(16.336048 12.321728) rotate(182.205248) scale(2.396566 1.720154)"><ellipse fill="#aa9e86" fill-opacity="0.501961" cx="0" cy="0" rx="1" ry="1" /></g>
<g transform="translate(6.557934 2.105276) rotate(258.664930) scale(6.219554 12.416515)"><ellipse fill="#605e48" fill-opacity="0.501961" cx="0" cy="0" rx="1" ry="1" /></g>
<g transform="translate(88.285166 97.005026) rotate(250.497721) scale(6.257060 2.619409)"><ellipse fill="#c5b194" fill-opacity="0.501961" cx="0" cy="0" rx="1" ry="1" /></g>
<g transform="translate(105.298372 82.369303) rotate(92.066078) scale(9.699070 2.319037)"><ellipse fill="#c2b4a0" fill-opacity="0.501961" cx="0" cy="0" rx="1" ry="1" /></g>
<g transform="translate(134.236819 63.990414) rotate(0.357937) scale(13.553473 1.000000)"><ellipse fill="#888169" fill-opacity="0.501961" cx="0" cy="0" rx="1" ry="1" /></g>
<g transform="translate(115.585301 107.643244) rotate(89.524061) scale(1.000000 39.993121)"><ellipse fill="#88816c" fill-opacity="0.501961" cx="0" cy="0" rx="1" ry="1" /></g>
</g>
</svg>