<svg xmlns="http://www.w3.org/2000/svg" version="1.1" width="1024" height="680">
<rect x="0" y="0" width="1024" height="680" fill="#eab8d6" />
<g transform="scale(4.000000) translate(0.5 0.5)">
<g transform="translate(125 91) rotate(111) scale(95 88)"><rect fill="#d5f8f0" fill-opacity="0.501961" x="-0.5" y="-0.5" width="1" height="1" /></g>
<g transform="translate(196 18) rotate(60) scale(68 86)"><rect fill="#fa79bf" fill-opacity="0.501961" x="-0.5" y="-0.5" width="1" height="1" /></g>
<g transform="translate(63 168) rotate(328) scale(61 65)"><rect fill="#fa74ba" fill-opacity="0.501961" x="-0.5" y="-0.5" width="1" height="1" /></g>
<g transform="translate(207 139) rotate(148) scale(27 98)"><rect fill="#eb77bc" fill-opacity="0.501961" x="-0.5" y="-0.5" width="1" height="1" /></g>
<g transform="translate(0 56) rotate(322) scale(85 155)"><rect fill="#f6d9e7" fill-opacity="0.501961" x="-0.5" y="-0.5" width="1" height="1" /></g>
<g transform="translate(76 44) rotate(182) scale(32 49)"><rect fill="#f87dc0" fill-opacity="0.501961" x="-0.5" y="-0.5" width="1" height="1" /></g>
<g transform="translate(173 169) rotate(138) scale(12 19)"><rect fill="#e61e93" fill-opacity="0.501961" x="-0.5" y="-0.5" width="1" height="1" /></g>
<g transform="translate(102 0) rotate(163) scale(33 75)"><rect fill="#e3e4e8" fill-opacity="0.501961" x="-0.5" y="-0.5" width="1" height="1" /></g>
<g transform="translate(228 161) rotate(161) scale(71 46)"><rect fill="#ed90c6" fill-opacity="0.501961" x="-0.5" y="-0.5" width="1" height="1" /></g>
<g transform="translate(163 138) rotate(142) scale(53 35)"><rect fill="#d9cee0" fill-opacity="0.501961" x="-0.5" y="-0.5" width="1" height="1" /></g>
<g transform="translate(247 11) rotate(153) scale(82 84)"><rect fill="#faa0d0" fill-opacity="0.501961" x="-0.5" y="-0.5" width="1" height="1" /></g>
<g transform="translate(137 12) rotate(137) scale(30 27)"><rect fill="#f78ec5" fill-opacity="0.501961" x="-0.5" y="-0.5" width="1" height="1" /></g>
<g transform="translate(0 166) rotate(92) scale(45 138)"><rect fill="#f990c7" fill-opacity="0.501961" x="-0.5" y="-0.5" width="1" height="1" /></g>
<g transform="translate(191 78) rotate(356) scale(90 35)"><rect fill="#ecc7df" fill-opacity="0.501961" x="-0.5" y="-0.5" width="1" height="1" /></g>
<g transform="translate(112 105) rotate(153) scale(75 57)"><rect fill="#dde7e9" fill-opacity="0.501961" x="-0.5" y="-0.5" width="1" height="1" /></g>
<g transform="translate(77 2) rotate(149) scale(6 45)"><rect fill="#f869b7" fill-opacity="0.501961" x="-0.5" y="-0.5" width="1" height="1" /></g>
<g transform="translate(141 53) rotate(322) scale(37 29)"><rect fill="#dae6e8" fill-opacity="0.501961" x="-0.5" y="-0.5" width="1" height="1" /></g>
<g transform="translate(241 107) rotate(19) scale(81 46)"><rect fill="#f4c4df" fill-opacity="0.501961" x="-0.5" y="-0.5" width="1" height="1" /></g>
<g transform="translate(180 44) rotate(275) scale(11 20)"><rect fill="#e85fb1" fill-opacity="0.501961" x="-0.5" y="-0.5" width="1" height="1" /></g>
<g transform="translate(53 108) rotate(67) scale(31 26)"><rect fill="#f5a8d2" fill-opacity="0.501961" x="-0.5" y="-0.5" width="1" height="1" /></g>
<g transform="translate(52 54) rotate(69) scale(10 23)"><rect fill="#fb87c3" fill-opacity="0.501961" x="-0.5" y="-0.5" width="1" height="1" /></g>
<g transform="translate(111 41) rotate(185) scale(14 24)"><rect fill="#eeafd1" fill-opacity="0.501961" x="-0.5" y="-0.5" width="1" height="1" /></g>
<g transform="translate(75 73) rotate(191) scale(34 30)"><rect fill="#e8c2da" fill-opacity="0.501961" x="-0.5" y="-0.5" width="1" height="1" /></g>
<g transform="translate(120 146) rotate(193) scale(85 26)"><rect fill="#e0c6dc" fill-opacity="0.501961" x="-0.5" y="-0.5" width="1" height="1" /></g>
<g transform="translate(0 58) rotate(153) scale(36 54)"><rect fill="#f1e2ea" fill-opacity="0.501961" x="-0.5" y="-0.5" width="1" height="1" /></g>
<g transform="translate(250 169) rotate(331) scale(14 34)"><rect fill="#f478bb" fill-opacity="0.501961" x="-0.5" y="-0.5" width="1" height="1" /></g>
<g transform="translate(53 14) rotate(226) scale(24 9)"><rect fill="#e1e4e8" fill-opacity="0.501961" x="-0.5" y="-0.5" width="1" height="1" /></g>
<g transform="translate(31 15) rotate(132) scale(16 30)"><rect fill="#f69ccc" fill-opacity="0.501961" x="-0.5" y="-0.5" width="1" height="1" /></g>
<g transform="translate(195 153) rotate(40) scale(59 7)"><rect fill="#e68dc3" fill-opacity="0.501961" x="-0.5" y="-0.5" width="1" height="1" /></g>
<g transform="translate(215 39) rotate(356) scale(28 14)"><rect fill="#f47cc1" fill-opacity="0.501961" x="-0.5" y="-0.5" width="1" height="1" /></g>
<g transform="translate(195 127) rotate(62) scale(46 10)"><rect fill="#eb7abd" fill-opacity="0.501961" x="-0.5" y="-0.5" width="1" height="1" /></g>
<g transform="translate(66 169) rotate(38) scale(14 17)"><rect fill="#f062af" fill-opacity="0.501961" x="-0.5" y="-0.5" width="1" height="1" /></g>
<g transform="translate(255 145) rotate(358) scale(35 12)"><rect fill="#e5d0e1" fill-opacity="0.501961" x="-0.5" y="-0.5" width="1" height="1" /></g>
<g transform="translate(17 122) rotate(96) scale(42 56)"><rect fill="#eec1dd" fill-opacity="0.501961" x="-0.5" y="-0.5" width="1" height="1" /></g>
<g transform="translate(253 76) rotate(308) scale(33 16)"><rect fill="#ffa4d2" fill-opacity="0.501961" x="-0.5" y="-0.5" width="1" height="1" /></g>
<g transform="translate(216 99) rotate(77) scale(13 48)"><rect fill="#f1a6d0" fill-opacity="0.501961" x="-0.5" y="-0.5" width="1" height="1" /></g>
<g transform="translate(69 10) rotate(364) scale(15 79)"><rect fill="#f79dcc" fill-opacity="0.501961" x="-0.5" y="-0.5" width="1" height="1" /></g>
<g transform="translate(161 87) rotate(107) scale(8 18)"><rect fill="#e6a1cf" fill-opacity="0.501961" x="-0.5" y="-0.5" width="1" height="1" /></g>
<g transform="translate(137 169) rotate(9) scale(53 21)"><rect fill="#dea8cc" fill-opacity="0.501961" x="-0.5" y="-0.5" width="1" height="1" /></g>
<g transform="translate(166 114) rotate(239) scale(51 8)"><rect fill="#d8e0e6" fill-opacity="0.501961" x="-0.5" y="-0.5" width="1" height="1" /></g>
<g transform="translate(49 42) rotate(23) scale(12 16)"><rect fill="#e5e3e8" fill-opacity="0.501961" x="-0.5" y="-0.5" width="1" height="1" /></g>
<g transform="translate(80 43) rotate(123) scale(34 16)"><rect fill="#f384c2" fill-opacity="0.501961" x="-0.5" y="-0.5" width="1" height="1" /></g>
<g transform="translate(174 105) rotate(261) scale(7 17)"><rect fill="#da72b6" fill-opacity="0.501961" x="-0.5" y="-0.5" width="1" height="1" /></g>
<g transform="translate(240 20) rotate(316) scale(35 81)"><rect fill="#f4a5d0" fill-opacity="0.501961" x="-0.5" y="-0.5" width="1" height="1" /></g>
<g transform="translate(178 156) rotate(215) scale(34 7)"><rect fill="#dad5e3" fill-opacity="0.501961" x="-0.5" y="-0.5" width="1" height="1" /></g>
<g transform="translate(173 21) rotate(69) scale(17 20)"><rect fill="#f27dbd" fill-opacity="0.501961" x="-0.5" y="-0.5" width="1" height="1" /></g>
<g transform="translate(240 32) rotate(295) scale(14 12)"><rect fill="#ebc9df" fill-opacity="0.501961" x="-0.5" y="-0.5" width="1" height="1" /></g>
<g transform="translate(211 117) rotate(306) scale(8 19)"><rect fill="#dfd9e4" fill-opacity="0.501961" x="-0.5" y="-0.5" width="1" height="1" /></g>
<g transform="translate(168 55) rotate(333) scale(4 60)"><rect fill="#dfb9d6" fill-opacity="0.501961" x="-0.5" y="-0.5" width="1" height="1" /></g>
<g transform="translate(100 18) rotate(-23) scale(14 13)"><rect fill="#daf0ed" fill-opacity="0.501961" x="-0.5" y="-0.5" width="1" height="1" /></g>
<g transform="translate(164 134) rotate(264) scale(9 21)"><rect fill="#e2a4ce" fill-opacity="0.501961" x="-0.5" y="-0.5" width="1" height="1" /></g>
<g transform="translate(106 154) rotate(153) scale(12 15)"><rect fill="#e0dce6" fill-opacity="0.501961" x="-0.5" y="-0.5" width="1" height="1" /></g>
<g transform="translate(237 69) rotate(131) scale(37 13)"><rect fill="#f8c7e0" fill-opacity="0.501961" x="-0.5" y="-0.5" width="1" height="1" /></g>
<g transform="translate(34 32) rotate(274) scale(21 15)"><rect fill="#f3b0d3" fill-opacity="0.501961" x="-0.5" y="-0.5" width="1" height="1" /></g>
<g transform="translate(158 154) rotate(122) scale(10 21)"><rect fill="#dce0e6" fill-opacity="0.501961" x="-0.5" y="-0.5" width="1" height="1" /></g>
<g transform="translate(160 76) rotate(147) scale(47 10)"><rect fill="#dad7e4" fill-opacity="0.501961" x="-0.5" y="-0.5" width="1" height="1" /></g>
<g transform="translate(5 10) rotate(-4) scale(39 5)"><rect fill="#e4e2e8" fill-opacity="0.501961" x="-0.5" y="-0.5" width="1" height="1" /></g>
<g transform="translate(255 106) rotate(73) scale(35 39)"><rect fill="#f0cde1" fill-opacity="0.501961" x="-0.5" y="-0.5" width="1" height="1" /></g>
<g transform="translate(86 62) rotate(283) scale(14 17)"><rect fill="#ed97ca" fill-opacity="0.501961" x="-0.5" y="-0.5" width="1" height="1" /></g>
<g transform="translate(226 58) rotate(207) scale(35 8)"><rect fill="#f7a4d1" fill-opacity="0.501961" x="-0.5" y="-0.5" width="1" height="1" /></g>
<g transform="translate(110 0) rotate(318) scale(24 8)"><rect fill="#eca7d0" fill-opacity="0.501961" x="-0.5" y="-0.5" width="1" height="1" /></g>
<g transform="translate(97 40) rotate(103) scale(29 7)"><rect fill="#dde3e7" fill-opacity="0.501961" x="-0.5" y="-0.5" width="1" height="1" /></g>
<g transform="translate(52 2) rotate(113) scale(30 19)"><rect fill="#e6d3e1" fill-opacity="0.501961" x="-0.5" y="-0.5" width="1" height="1" /></g>
<g transform="translate(110 133) rotate(84) scale(31 8)"><rect fill="#eab5d5" fill-opacity="0.501961" x="-0.5" y="-0.5" width="1" height="1" /></g>
<g transform="translate(63 125) rotate(332) scale(20 2)"><rect fill="#daeeeb" fill-opacity="0.501961" x="-0.5" y="-0.5" width="1" height="1" /></g>
<g transform="translate(123 28) rotate(382) scale(8 30)"><rect fill="#ebcddf" fill-opacity="0.501961" x="-0.5" y="-0.5" width="1" height="1" /></g>
<g transform="translate(91 101) rotate(95) scale(20 47)"><rect fill="#dfe8ea" fill-opacity="0.501961" x="-0.5" y="-0.5" width="1" height="1" /></g>
<g transform="translate(246 14) rotate(67) scale(17 51)"><rect fill="#f596cb" fill-opacity="0.501961" x="-0.5" y="-0.5" width="1" height="1" /></g>
<g transform="translate(186 131) rotate(62) scale(31 3)"><rect fill="#ded6e2" fill-opacity="0.501961" x="-0.5" y="-0.5" width="1" height="1" /></g>
<g transform="translate(78 4) rotate(40) scale(6 11)"><rect fill="#f470ba" fill-opacity="0.501961" x="-0.5" y="-0.5" width="1" height="1" /></g>
<g transform="translate(83 154) rotate(132) scale(15 31)"><rect fill="#e8a4cb" fill-opacity="0.501961" x="-0.5" y="-0.5" width="1" height="1" /></g>
<g transform="translate(168 36) rotate(157) scale(35 4)"><rect fill="#e0b5d2" fill-opacity="0.501961" x="-0.5" y="-0.5" width="1" height="1" /></g>
<g transform="translate(48 20) rotate(117) scale(2 39)"><rect fill="#f78fc6" fill-opacity="0.501961" x="-0.5" y="-0.5" width="1" height="1" /></g>
<g transform="translate(18 123) rotate(21) scale(31 10)"><rect fill="#f1b2d6" fill-opacity="0.501961" x="-0.5" y="-0.5" width="1" height="1" /></g>
<g transform="translate(58 77) rotate(119) scale(27 20)"><rect fill="#f1d5e2" fill-opacity="0.501961" x="-0.5" y="-0.5" width="1" height="1" /></g>
<g transform="translate(87 130) rotate(261) scale(11 10)"><rect fill="#e7abd1" fill-opacity="0.501961" x="-0.5" y="-0.5" width="1" height="1" /></g>
<g transform="translate(0 128) rotate(247) scale(63 9)"><rect fill="#f1c8df" fill-opacity="0.501961" x="-0.5" y="-0.5" width="1" height="1" /></g>
<g transform="translate(235 124) rotate(137) scale(48 4)"><rect fill="#ebcde0" fill-opacity="0.501961" x="-0.5" y="-0.5" width="1" height="1" /></g>
<g transform="translate(178 57) rotate(176) scale(6 5)"><rect fill="#e150ae" fill-opacity="0.501961" x="-0.5" y="-0.5" width="1" height="1" /></g>
<g transform="translate(152 122) rotate(154) scale(43 24)"><rect fill="#ddd3e1" fill-opacity="0.501961" x="-0.5" y="-0.5" width="1" height="1" /></g>
<g transform="translate(76 20) rotate(299) scale(16 17)"><rect fill="#f2bad7" fill-opacity="0.501961" x="-0.5" y="-0.5" width="1" height="1" /></g>
<g transform="translate(140 0) rotate(-43) scale(25 56)"><rect fill="#f199c9" fill-opacity="0.501961" x="-0.5" y="-0.5" width="1" height="1" /></g>
<g transform="translate(149 78) rotate(167) scale(10 28)"><rect fill="#dec2da" fill-opacity="0.501961" x="-0.5" y="-0.5" width="1" height="1" /></g>
<g transform="translate(171 169) rotate(328) scale(10 22)"><rect fill="#e763b2" fill-opacity="0.501961" x="-0.5" y="-0.5" width="1" height="1" /></g>
<g transform="translate(212 137) rotate(37) scale(8 34)"><rect fill="#f08ac6" fill-opacity="0.501961" x="-0.5" y="-0.5" width="1" height="1" /></g>
<g transform="translate(22 169) rotate(30) scale(17 49)"><rect fill="#f496c9" fill-opacity="0.501961" x="-0.5" y="-0.5" width="1" height="1" /></g>
<g transform="translate(84 83) rotate(176) scale(12 9)"><rect fill="#eca6cf" fill-opacity="0.501961" x="-0.5" y="-0.5" width="1" height="1" /></g>
<g transform="translate(74 50) rotate(265) scale(7 34)"><rect fill="#ee7ebe" fill-opacity="0.501961" x="-0.5" y="-0.5" width="1" height="1" /></g>
<g transform="translate(117 67) rotate(98) scale(5 7)"><rect fill="#f192c9" fill-opacity="0.501961" x="-0.5" y="-0.5" width="1" height="1" /></g>
<g transform="translate(105 60) rotate(77) scale(17 22)"><rect fill="#dae7e8" fill-opacity="0.501961" x="-0.5" y="-0.5" width="1" height="1" /></g>
<g transform="translate(16 14) rotate(225) scale(7 6)"><rect fill="#ed92c5" fill-opacity="0.501961" x="-0.5" y="-0.5" width="1" height="1" /></g>
<g transform="translate(109 44) rotate(37) scale(4 20)"><rect fill="#f1a4ce" fill-opacity="0.501961" x="-0.5" y="-0.5" width="1" height="1" /></g>
<g transform="translate(121 139) rotate(239) scale(5 1)"><rect fill="#fe59af" fill-opacity="0.501961" x="-0.5" y="-0.5" width="1" height="1" /></g>
<g transform="translate(176 113) rotate(332) scale(4 14)"><rect fill="#e490c6" fill-opacity="0.501961" x="-0.5" y="-0.5" width="1" height="1" /></g>
<g transform="translate(137 169) rotate(288) scale(5 11)"><rect fill="#e384bc" fill-opacity="0.501961" x="-0.5" y="-0.5" width="1" height="1" /></g>
<g transform="translate(202 28) rotate(115) scale(24 13)"><rect fill="#f7aad0" fill-opacity="0.501961" x="-0.5" y="-0.5" width="1" height="1" /></g>
<g transform="translate(236 139) rotate(158) scale(56 13)"><rect fill="#eca7d0" fill-opacity="0.501961" x="-0.5" y="-0.5" width="1" height="1" /></g>
<g transform="translate(204 99) rotate(249) scale(3 26)"><rect fill="#f690c6" fill-opacity="0.501961" x="-0.5" y="-0.5" width="1" height="1" /></g>
<g transform="translate(56 137) rotate(46) scale(41 5)"><rect fill="#f2aad1" fill-opacity="0.501961" x="-0.5" y="-0.5" width="1" height="1" /></g>
<g transform="translate(206 63) rotate(68) scale(26 19)"><rect fill="#f3b6d7" fill-opacity="0.501961" x="-0.5" y="-0.5" width="1" height="1" /></g>
<g transform="translate(183 86) rotate(135) scale(20 29)"><rect fill="#e5bdda" fill-opacity="0.501961" x="-0.5" y="-0.5" width="1" height="1" /></g>
<g transform="translate(48 1) rotate(256) scale(13 3)"><rect fill="#f695c9" fill-opacity="0.501961" x="-0.5" y="-0.5" width="1" height="1" /></g>
<g transform="translate(204 156) rotate(202) scale(41 10)"><rect fill="#eb89c2" fill-opacity="0.501961" x="-0.5" y="-0.5" width="1" height="1" /></g>
<g transform="translate(104 13) rotate(292) scale(7 40)"><rect fill="#dfdee5" fill-opacity="0.501961" x="-0.5" y="-0.5" width="1" height="1" /></g>
<g transform="translate(186 9) rotate(225) scale(25 30)"><rect fill="#f78ec5" fill-opacity="0.501961" x="-0.5" y="-0.5" width="1" height="1" /></g>
<g transform="translate(80 64) rotate(165) scale(10 4)"><rect fill="#e976bd" fill-opacity="0.501961" x="-0.5" y="-0.5" width="1" height="1" /></g>
<g transform="translate(216 141) rotate(132) scale(4 25)"><rect fill="#ee7ebe" fill-opacity="0.501961" x="-0.5" y="-0.5" width="1" height="1" /></g>
<g transform="translate(235 42) rotate(221) scale(14 8)"><rect fill="#f78ec9" fill-opacity="0.501961" x="-0.5" y="-0.5" width="1" height="1" /></g>
<g transform="translate(132 33) rotate(251) scale(10 5)"><rect fill="#f487c0" fill-opacity="0.501961" x="-0.5" y="-0.5" width="1" height="1" /></g>
<g transform="translate(198 41) rotate(108) scale(2 42)"><rect fill="#f47fc0" fill-opacity="0.501961" x="-0.5" y="-0.5" width="1" height="1" /></g>
<g transform="translate(180 166) rotate(340) scale(6 10)"><rect fill="#e19cc5" fill-opacity="0.501961" x="-0.5" y="-0.5" width="1" height="1" /></g>
<g transform="translate(131 144) rotate(135) scale(24 6)"><rect fill="#dfdee5" fill-opacity="0.501961" x="-0.5" y="-0.5" width="1" height="1" /></g>
<g transform="translate(186 65) rotate(174) scale(40 5)"><rect fill="#e3d8e5" fill-opacity="0.501961" x="-0.5" y="-0.5" width="1" height="1" /></g>
<g transform="translate(15 31) rotate(192) scale(24 5)"><rect fill="#e4e2e7" fill-opacity="0.501961" x="-0.5" y="-0.5" width="1" height="1" /></g>
<g transform="translate(177 45) rotate(320) scale(10 3)"><rect fill="#e347a8" fill-opacity="0.501961" x="-0.5" y="-0.5" width="1" height="1" /></g>
<g transform="translate(34 59) rotate(120) scale(16 50)"><rect fill="#f9c5db" fill-opacity="0.501961" x="-0.5" y="-0.5" width="1" height="1" /></g>
<g transform="translate(39 44) rotate(78) scale(2 19)"><rect fill="#e2f2f0" fill-opacity="0.501961" x="-0.5" y="-0.5" width="1" height="1" /></g>
<g transform="translate(169 43) rotate(74) scale(36 8)"><rect fill="#e492c4" fill-opacity="0.501961" x="-0.5" y="-0.5" width="1" height="1" /></g>
<g transform="translate(179 150) rotate(161) scale(12 19)"><rect fill="#dfcee0" fill-opacity="0.501961" x="-0.5" y="-0.5" width="1" height="1" /></g>
<g transform="translate(10 91) rotate(323) scale(70 25)"><rect fill="#f3d0e2" fill-opacity="0.501961" x="-0.5" y="-0.5" width="1" height="1" /></g>
<g transform="translate(64 134) rotate(249) scale(9 28)"><rect fill="#f293c8" fill-opacity="0.501961" x="-0.5" y="-0.5" width="1" height="1" /></g>
<g transform="translate(143 149) rotate(36) scale(11 32)"><rect fill="#e0c7dc" fill-opacity="0.501961" x="-0.5" y="-0.5" width="1" height="1" /></g>
<g transform="translate(216 80) rotate(94) scale(29 26)"><rect fill="#f3c6dc" fill-opacity="0.501961" x="-0.5" y="-0.5" width="1" height="1" /></g>
<g transform="translate(104 122) rotate(221) scale(12 31)"><rect fill="#dee0e6" fill-opacity="0.501961" x="-0.5" y="-0.5" width="1" height="1" /></g>
<g transform="translate(85 64) rotate(313) scale(6 31)"><rect fill="#e9a7d0" fill-opacity="0.501961" x="-0.5" y="-0.5" width="1" height="1" /></g>
<g transform="translate(109 27) rotate(274) scale(11 16)"><rect fill="#f7c1d9" fill-opacity="0.501961" x="-0.5" y="-0.5" width="1" height="1" /></g>
<g transform="translate(135 150) rotate(56) scale(8 11)"><rect fill="#e5a7cc" fill-opacity="0.501961" x="-0.5" y="-0.5" width="1" height="1" /></g>
<g transform="translate(35 15) rotate(29) scale(28 7)"><rect fill="#f596ca" fill-opacity="0.501961" x="-0.5" y="-0.5" width="1" height="1" /></g>
<g transform="translate(227 115) rotate(100) scale(32 5)"><rect fill="#eca9d4" fill-opacity="0.501961" x="-0.5" y="-0.5" width="1" height="1" /></g>
<g transform="translate(121 89) rotate(131) scale(22 55)"><rect fill="#dce6e8" fill-opacity="0.501961" x="-0.5" y="-0.5" width="1" height="1" /></g>
<g transform="translate(132 39) rotate(245) scale(1 68)"><rect fill="#e3c4d9" fill-opacity="0.501961" x="-0.5" y="-0.5" width="1" height="1" /></g>
<g transform="translate(76 14) rotate(220) scale(16 3)"><rect fill="#e6d7e2" fill-opacity="0.501961" x="-0.5" y="-0.5" width="1" height="1" /></g>
<g transform="translate(33 94) rotate(13) scale(34 10)"><rect fill="#f7bcd9" fill-opacity="0.501961" x="-0.5" y="-0.5" width="1" height="1" /></g>
<g transform="translate(72 59) rotate(312) scale(2 12)"><rect fill="#dedae3" fill-opacity="0.501961" x="-0.5" y="-0.5" width="1" height="1" /></g>
<g transform="translate(164 142) rotate(330) scale(4 34)"><rect fill="#e5b2d5" fill-opacity="0.501961" x="-0.5" y="-0.5" width="1" height="1" /></g>
<g transform="translate(177 94) rotate(316) scale(22 5)"><rect fill="#dcd1e1" fill-opacity="0.501961" x="-0.5" y="-0.5" width="1" height="1" /></g>
<g transform="translate(177 102) rotate(177) scale(3 8)"><rect fill="#db62ae" fill-opacity="0.501961" x="-0.5" y="-0.5" width="1" height="1" /></g>
<g transform="translate(61 112) rotate(201) scale(24 14)"><rect fill="#f0aed3" fill-opacity="0.501961" x="-0.5" y="-0.5" width="1" height="1" /></g>
<g transform="translate(253 36) rotate(160) scale(14 56)"><rect fill="#f59ecf" fill-opacity="0.501961" x="-0.5" y="-0.5" width="1" height="1" /></g>
<g transform="translate(109 143) rotate(218) scale(16 3)"><rect fill="#ef9ecd" fill-opacity="0.501961" x="-0.5" y="-0.5" width="1" height="1" /></g>
<g transform="translate(0 12) rotate(265) scale(14 17)"><rect fill="#e7e4e9" fill-opacity="0.501961" x="-0.5" y="-0.5" width="1" height="1" /></g>
<g transform="translate(38 129) rotate(186) scale(8 39)"><rect fill="#ebc9e0" fill-opacity="0.501961" x="-0.5" y="-0.5" width="1" height="1" /></g>
<g transform="translate(182 75) rotate(166) scale(19 3)"><rect fill="#e5a3ce" fill-opacity="0.501961" x="-0.5" y="-0.5" width="1" height="1" /></g>
<g transform="translate(106 167) rotate(245) scale(3 26)"><rect fill="#eb8fc3" fill-opacity="0.501961" x="-0.5" y="-0.5" width="1" height="1" /></g>
<g transform="translate(202 111) rotate(291) scale(1 17)"><rect fill="#f093c6" fill-opacity="0.501961" x="-0.5" y="-0.5" width="1" height="1" /></g>
<g transform="translate(18 4) rotate(179) scale(16 7)"><rect fill="#e9bbd7" fill-opacity="0.501961" x="-0.5" y="-0.5" width="1" height="1" /></g>
<g transform="translate(1 60) rotate(199) scale(34 9)"><rect fill="#ebe8ec" fill-opacity="0.501961" x="-0.5" y="-0.5" width="1" height="1" /></g>
<g transform="translate(194 126) rotate(276) scale(19 12)"><rect fill="#ee94c9" fill-opacity="0.501961" x="-0.5" y="-0.5" width="1" height="1" /></g>
<g transform="translate(157 117) rotate(166) scale(8 13)"><rect fill="#debfdc" fill-opacity="0.501961" x="-0.5" y="-0.5" width="1" height="1" /></g>
<g transform="translate(187 156) rotate(138) scale(7 23)"><rect fill="#e4add3" fill-opacity="0.501961" x="-0.5" y="-0.5" width="1" height="1" /></g>
<g transform="translate(232 154) rotate(110) scale(1 51)"><rect fill="#e7b0d3" fill-opacity="0.501961" x="-0.5" y="-0.5" width="1" height="1" /></g>
<g transform="translate(65 16) rotate(100) scale(4 17)"><rect fill="#f592c8" fill-opacity="0.501961" x="-0.5" y="-0.5" width="1" height="1" /></g>
<g transform="translate(66 41) rotate(161) scale(1 20)"><rect fill="#f570bc" fill-opacity="0.501961" x="-0.5" y="-0.5" width="1" height="1" /></g>
<g transform="translate(206 65) rotate(317) scale(32 1)"><rect fill="#ee9ecc" fill-opacity="0.501961" x="-0.5" y="-0.5" width="1" height="1" /></g>
<g transform="translate(217 0) rotate(140) scale(27 30)"><rect fill="#f7add2" fill-opacity="0.501961" x="-0.5" y="-0.5" width="1" height="1" /></g>
<g transform="translate(33 36) rotate(160) scale(27 9)"><rect fill="#f3b7d6" fill-opacity="0.501961" x="-0.5" y="-0.5" width="1" height="1" /></g>
<g transform="translate(173 124) rotate(192) scale(24 13)"><rect fill="#ded4e2" fill-opacity="0.501961" x="-0.5" y="-0.5" width="1" height="1" /></g>
<g transform="translate(83 35) rotate(316) scale(12 24)"><rect fill="#f790c8" fill-opacity="0.501961" x="-0.5" y="-0.5" width="1" height="1" /></g>
<g transform="translate(44 63) rotate(185) scale(3 8)"><rect fill="#fa8cc5" fill-opacity="0.501961" x="-0.5" y="-0.5" width="1" height="1" /></g>
<g transform="translate(255 37) rotate(255) scale(6 1)"><rect fill="#e2f1ec" fill-opacity="0.501961" x="-0.5" y="-0.5" width="1" height="1" /></g>
<g transform="translate(24 151) rotate(63) scale(22 6)"><rect fill="#f3a0cd" fill-opacity="0.501961" x="-0.5" y="-0.5" width="1" height="1" /></g>
<g transform="translate(142 73) rotate(51) scale(1 8)"><rect fill="#e990c4" fill-opacity="0.501961" x="-0.5" y="-0.5" width="1" height="1" /></g>
<g transform="translate(114 169) rotate(281) scale(1 33)"><rect fill="#decfdf" fill-opacity="0.501961" x="-0.5" y="-0.5" width="1" height="1" /></g>
<g transform="translate(56 14) rotate(246) scale(20 6)"><rect fill="#e1dfe6" fill-opacity="0.501961" x="-0.5" y="-0.5" width="1" height="1" /></g>
<g transform="translate(222 61) rotate(11) scale(10 28)"><rect fill="#f1c4de" fill-opacity="0.501961" x="-0.5" y="-0.5" width="1" height="1" /></g>
<g transform="translate(157 37) rotate(103) scale(3 23)"><rect fill="#e5b6d3" fill-opacity="0.501961" x="-0.5" y="-0.5" width="1" height="1" /></g>
<g transform="translate(92 142) rotate(28) scale(28 4)"><rect fill="#e0d8e4" fill-opacity="0.501961" x="-0.5" y="-0.5" width="1" height="1" /></g>
<g transform="translate(206 133) rotate(234) scale(3 7)"><rect fill="#e6bfd8" fill-opacity="0.501961" x="-0.5" y="-0.5" width="1" height="1" /></g>
<g transform="translate(188 116) rotate(38) scale(8 8)"><rect fill="#eb67b5" fill-opacity="0.501961" x="-0.5" y="-0.5" width="1" height="1" /></g>
<g transform="translate(71 158) rotate(-17) scale(35 7)"><rect fill="#f58dc3" fill-opacity="0.501961" x="-0.5" y="-0.5" width="1" height="1" /></g>
<g transform="translate(168 51) rotate(241) scale(4 1)"><rect fill="#eb35a6" fill-opacity="0.501961" x="-0.5" y="-0.5" width="1" height="1" /></g>
<g transform="translate(208 136) rotate(333) scale(19 1)"><rect fill="#ef63b4" fill-opacity="0.501961" x="-0.5" y="-0.5" width="1" height="1" /></g>
<g transform="translate(49 29) rotate(19) scale(28 9)"><rect fill="#f0bdd9" fill-opacity="0.501961" x="-0.5" y="-0.5" width="1" height="1" /></g>
<g transform="translate(148 64) rotate(203) scale(1 15)"><rect fill="#ebaed3" fill-opacity="0.501961" x="-0.5" y="-0.5" width="1" height="1" /></g>
<g transform="translate(113 10) rotate(216) scale(4 14)"><rect fill="#d9eceb" fill-opacity="0.501961" x="-0.5" y="-0.5" width="1" height="1" /></g>
<g transform="translate(75 85) rotate(35) scale(2 41)"><rect fill="#e2d5e1" fill-opacity="0.501961" x="-0.5" y="-0.5" width="1" height="1" /></g>
<g transform="translate(161 90) rotate(303) scale(2 27)"><rect fill="#e4a9d1" fill-opacity="0.501961" x="-0.5" y="-0.5" width="1" height="1" /></g>
<g transform="translate(125 125) rotate(362) scale(27 24)"><rect fill="#e1dae4" fill-opacity="0.501961" x="-0.5" y="-0.5" width="1" height="1" /></g>
<g transform="translate(242 85) rotate(-27) scale(11 7)"><rect fill="#f99aca" fill-opacity="0.501961" x="-0.5" y="-0.5" width="1" height="1" /></g>
<g transform="translate(97 162) rotate(8) scale(21 4)"><rect fill="#e0bfd7" fill-opacity="0.501961" x="-0.5" y="-0.5" width="1" height="1" /></g>
<g transform="translate(249 155) rotate(249) scale(9 28)"><rect fill="#f08ec5" fill-opacity="0.501961" x="-0.5" y="-0.5" width="1" height="1" /></g>
<g transform="translate(189 48) rotate(272) scale(28 4)"><rect fill="#f58ac5" fill-opacity="0.501961" x="-0.5" y="-0.5" width="1" height="1" /></g>
<g transform="translate(169 156) rotate(45) scale(1 19)"><rect fill="#ddd5e2" fill-opacity="0.501961" x="-0.5" y="-0.5" width="1" height="1" /></g>
<g transform="translate(177 156) rotate(125) scale(10 8)"><rect fill="#dcdae3" fill-opacity="0.501961" x="-0.5" y="-0.5" width="1" height="1" /></g>
<g transform="translate(70 38) rotate(159) scale(4 17)"><rect fill="#f5b7d7" fill-opacity="0.501961" x="-0.5" y="-0.5" width="1" height="1" /></g>
<g transform="translate(127 115) rotate(120) scale(4 1)"><rect fill="#f388c1" fill-opacity="0.501961" x="-0.5" y="-0.5" width="1" height="1" /></g>
<g transform="translate(163 33) rotate(104) scale(7 1)"><rect fill="#f062b3" fill-opacity="0.501961" x="-0.5" y="-0.5" width="1" height="1" /></g>
<g transform="translate(0 168) rotate(92) scale(6 52)"><rect fill="#f58fc4" fill-opacity="0.501961" x="-0.5" y="-0.5" width="1" height="1" /></g>
<g transform="translate(10 135) rotate(44) scale(7 21)"><rect fill="#e9d5e3" fill-opacity="0.501961" x="-0.5" y="-0.5" width="1" height="1" /></g>
<g transform="translate(247 65) rotate(187) scale(8 16)"><rect fill="#efd2e4" fill-opacity="0.501961" x="-0.5" y="-0.5" width="1" height="1" /></g>
<g transform="translate(55 56) rotate(281) scale(7 18)"><rect fill="#f29dcd" fill-opacity="0.501961" x="-0.5" y="-0.5" width="1" height="1" /></g>
<g transform="translate(196 144) rotate(297) scale(8 13)"><rect fill="#e5a9cf" fill-opacity="0.501961" x="-0.5" y="-0.5" width="1" height="1" /></g>
<g transform="translate(0 150) rotate(187) scale(43 12)"><rect fill="#f2aed3" fill-opacity="0.501961" x="-0.5" y="-0.5" width="1" height="1" /></g>
<g transform="translate(146 49) rotate(14) scale(26 11)"><rect fill="#dbe2e5" fill-opacity="0.501961" x="-0.5" y="-0.5" width="1" height="1" /></g>
<g transform="translate(19 23) rotate(9) scale(22 14)"><rect fill="#ebc4da" fill-opacity="0.501961" x="-0.5" y="-0.5" width="1" height="1" /></g>
<g transform="translate(92 169) rotate(295) scale(28 3)"><rect fill="#ef89c1" fill-opacity="0.501961" x="-0.5" y="-0.5" width="1" height="1" /></g>
<g transform="translate(147 160) rotate(12) scale(5 2)"><rect fill="#f666b4" fill-opacity="0.501961" x="-0.5" y="-0.5" width="1" height="1" /></g>
<g transform="translate(110 55) rotate(208) scale(2 62)"><rect fill="#dfd7e2" fill-opacity="0.501961" x="-0.5" y="-0.5" width="1" height="1" /></g>
<g transform="translate(145 148) rotate(231) scale(88 1)"><rect fill="#ded9e3" fill-opacity="0.501961" x="-0.5" y="-0.5" width="1" height="1" /></g>
<g transform="translate(137 0) rotate(310) scale(30 7)"><rect fill="#f28dc4" fill-opacity="0.501961" x="-0.5" y="-0.5" width="1" height="1" /></g>
<g transform="translate(148 144) rotate(89) scale(5 4)"><rect fill="#ed99cb" fill-opacity="0.501961" x="-0.5" y="-0.5" width="1" height="1" /></g>
<g transform="translate(162 163) rotate(187) scale(8 1)"><rect fill="#e558aa" fill-opacity="0.501961" x="-0.5" y="-0.5" width="1" height="1" /></g>
<g transform="translate(226 91) rotate(209) scale(55 5)"><rect fill="#f4bad8" fill-opacity="0.501961" x="-0.5" y="-0.5" width="1" height="1" /></g>
<g transform="translate(218 115) rotate(135) scale(19 5)"><rect fill="#e3d7e5" fill-opacity="0.501961" x="-0.5" y="-0.5" width="1" height="1" /></g>
<g transform="translate(170 131) rotate(313) scale(2 4)"><rect fill="#e37fb9" fill-opacity="0.501961" x="-0.5" y="-0.5" width="1" height="1" /></g>
<g transform="translate(133 139) rotate(75) scale(20 1)"><rect fill="#e5b3d2" fill-opacity="0.501961" x="-0.5" y="-0.5" width="1" height="1" /></g>
<g transform="translate(122 169) rotate(101) scale(22 2)"><rect fill="#dbd4df" fill-opacity="0.501961" x="-0.5" y="-0.5" width="1" height="1" /></g>
<g transform="translate(179 32) rotate(43) scale(9 11)"><rect fill="#e9a4cd" fill-opacity="0.501961" x="-0.5" y="-0.5" width="1" height="1" /></g>
<g transform="translate(236 144) rotate(143) scale(29 8)"><rect fill="#e9b4d5" fill-opacity="0.501961" x="-0.5" y="-0.5" width="1" height="1" /></g>
<g transform="translate(122 156) rotate(300) scale(1 19)"><rect fill="#e89bc7" fill-opacity="0.501961" x="-0.5" y="-0.5" width="1" height="1" /></g>
<g transform="translate(240 38) rotate(338) scale(4 3)"><rect fill="#e6eeec" fill-opacity="0.501961" x="-0.5" y="-0.5" width="1" height="1" /></g>
<g transform="translate(71 4) rotate(350) scale(27 3)"><rect fill="#f590c7" fill-opacity="0.501961" x="-0.5" y="-0.5" width="1" height="1" /></g>
<g transform="translate(41 169) rotate(32) scale(5 3)"><rect fill="#e6cbdb" fill-opacity="0.501961" x="-0.5" y="-0.5" width="1" height="1" /></g>
<g transform="translate(224 135) rotate(219) scale(1 19)"><rect fill="#dfd9e2" fill-opacity="0.501961" x="-0.5" y="-0.5" width="1" height="1" /></g>
<g transform="translate(189 169) rotate(328) scale(10 12)"><rect fill="#dac3da" fill-opacity="0.501961" x="-0.5" y="-0.5" width="1" height="1" /></g>
<g transform="translate(38 9) rotate(140) scale(3 13)"><rect fill="#e3d7e2" fill-opacity="0.501961" x="-0.5" y="-0.5" width="1" height="1" /></g>
<g transform="translate(146 78) rotate(84) scale(5 19)"><rect fill="#dbe5e9" fill-opacity="0.501961" x="-0.5" y="-0.5" width="1" height="1" /></g>
<g transform="translate(168 72) rotate(216) scale(5 30)"><rect fill="#dedce5" fill-opacity="0.501961" x="-0.5" y="-0.5" width="1" height="1" /></g>
<g transform="translate(139 169) rotate(268) scale(2 30)"><rect fill="#e891c1" fill-opacity="0.501961" x="-0.5" y="-0.5" width="1" height="1" /></g>
<g transform="translate(247 147) rotate(246) scale(4 11)"><rect fill="#e2d4e1" fill-opacity="0.501961" x="-0.5" y="-0.5" width="1" height="1" /></g>
<g transform="translate(78 9) rotate(307) scale(21 1)"><rect fill="#f283c1" fill-opacity="0.501961" x="-0.5" y="-0.5" width="1" height="1" /></g>
<g transform="translate(107 120) rotate(66) scale(2 14)"><rect fill="#e4bfd9" fill-opacity="0.501961" x="-0.5" y="-0.5" width="1" height="1" /></g>
<g transform="translate(72 86) rotate(128) scale(3 21)"><rect fill="#e2dde5" fill-opacity="0.501961" x="-0.5" y="-0.5" width="1" height="1" /></g>
<g transform="translate(57 138) rotate(167) scale(24 4)"><rect fill="#f4a7d0" fill-opacity="0.501961" x="-0.5" y="-0.5" width="1" height="1" /></g>
<g transform="translate(157 77) rotate(52) scale(1 2)"><rect fill="#e76bb2" fill-opacity="0.501961" x="-0.5" y="-0.5" width="1" height="1" /></g>
<g transform="translate(147 18) rotate(293) scale(1 4)"><rect fill="#ed52ad" fill-opacity="0.501961" x="-0.5" y="-0.5" width="1" height="1" /></g>
<g transform="translate(183 114) rotate(156) scale(1 18)"><rect fill="#e56bb5" fill-opacity="0.501961" x="-0.5" y="-0.5" width="1" height="1" /></g>
<g transform="translate(255 118) rotate(217) scale(14 16)"><rect fill="#ecd2e4" fill-opacity="0.501961" x="-0.5" y="-0.5" width="1" height="1" /></g>
<g transform="translate(152 105) rotate(301) scale(28 12)"><rect fill="#dae1e6" fill-opacity="0.501961" x="-0.5" y="-0.5" width="1" height="1" /></g>
<g transform="translate(125 139) rotate(279) scale(1 16)"><rect fill="#eda6cd" fill-opacity="0.501961" x="-0.5" y="-0.5" width="1" height="1" /></g>
<g transform="translate(168 141) rotate(147) scale(1 40)"><rect fill="#ded6e4" fill-opacity="0.501961" x="-0.5" y="-0.5" width="1" height="1" /></g>
<g transform="translate(145 36) rotate(139) scale(12 17)"><rect fill="#e6c4d9" fill-opacity="0.501961" x="-0.5" y="-0.5" width="1" height="1" /></g>
<g transform="translate(51 29) rotate(288) scale(3 6)"><rect fill="#f892c8" fill-opacity="0.501961" x="-0.5" y="-0.5" width="1" height="1" /></g>
<g transform="translate(120 39) rotate(159) scale(22 1)"><rect fill="#f2aacf" fill-opacity="0.501961" x="-0.5" y="-0.5" width="1" height="1" /></g>
<g transform="translate(16 6) rotate(226) scale(1 3)"><rect fill="#ef66b5" fill-opacity="0.501961" x="-0.5" y="-0.5" width="1" height="1" /></g>
<g transform="translate(242 27) rotate(35) scale(13 10)"><rect fill="#efb4d7" fill-opacity="0.501961" x="-0.5" y="-0.5" width="1" height="1" /></g>
<g transform="translate(241 163) rotate(255) scale(18 1)"><rect fill="#f070b6" fill-opacity="0.501961" x="-0.5" y="-0.5" width="1" height="1" /></g>
<g transform="translate(181 51) rotate(-32) scale(29 3)"><rect fill="#efa6d0" fill-opacity="0.501961" x="-0.5" y="-0.5" width="1" height="1" /></g>
<g transform="translate(72 117) rotate(321) scale(50 2)"><rect fill="#e1dae4" fill-opacity="0.501961" x="-0.5" y="-0.5" width="1" height="1" /></g>
<g transform="translate(172 138) rotate(64) scale(1 18)"><rect fill="#e3a4cd" fill-opacity="0.501961" x="-0.5" y="-0.5" width="1" height="1" /></g>
<g transform="translate(177 81) rotate(265) scale(3 22)"><rect fill="#e3d7e6" fill-opacity="0.501961" x="-0.5" y="-0.5" width="1" height="1" /></g>
<g transform="translate(3 123) rotate(269) scale(9 7)"><rect fill="#f3acd4" fill-opacity="0.501961" x="-0.5" y="-0.5" width="1" height="1" /></g>
<g transform="translate(241 131) rotate(4) scale(17 1)"><rect fill="#f591ca" fill-opacity="0.501961" x="-0.5" y="-0.5" width="1" height="1" /></g>
<g transform="translate(86 102) rotate(83) scale(38 2)"><rect fill="#e0e9ec" fill-opacity="0.501961" x="-0.5" y="-0.5" width="1" height="1" /></g>
<g transform="translate(92 82) rotate(243) scale(38 1)"><rect fill="#dee2e7" fill-opacity="0.501961" x="-0.5" y="-0.5" width="1" height="1" /></g>
<g transform="translate(132 41) rotate(77) scale(6 32)"><rect fill="#e3d0df" fill-opacity="0.501961" x="-0.5" y="-0.5" width="1" height="1" /></g>
<g transform="translate(18 88) rotate(71) scale(25 16)"><rect fill="#f3c5de" fill-opacity="0.501961" x="-0.5" y="-0.5" width="1" height="1" /></g>
<g transform="translate(74 71) rotate(161) scale(15 3)"><rect fill="#e8dde6" fill-opacity="0.501961" x="-0.5" y="-0.5" width="1" height="1" /></g>
<g transform="translate(206 39) rotate(316) scale(18 6)"><rect fill="#f27bc0" fill-opacity="0.501961" x="-0.5" y="-0.5" width="1" height="1" /></g>
<g transform="translate(218 126) rotate(-18) scale(24 4)"><rect fill="#f1a9d4" fill-opacity="0.501961" x="-0.5" y="-0.5" width="1" height="1" /></g>
<g transform="translate(73 136) rotate(110) scale(13 5)"><rect fill="#f57fc1" fill-opacity="0.501961" x="-0.5" y="-0.5" width="1" height="1" /></g>
<g transform="translate(220 75) rotate(68) scale(4 10)"><rect fill="#e7dfe8" fill-opacity="0.501961" x="-0.5" y="-0.5" width="1" height="1" /></g>
<g transform="translate(31 122) rotate(284) scale(33 8)"><rect fill="#efb6d8" fill-opacity="0.501961" x="-0.5" y="-0.5" width="1" height="1" /></g>
<g transform="translate(224 90) rotate(-6) scale(10 11)"><rect fill="#e9cce0" fill-opacity="0.501961" x="-0.5" y="-0.5" width="1" height="1" /></g>
<g transform="translate(143 137) rotate(243) scale(11 4)"><rect fill="#e6b8d5" fill-opacity="0.501961" x="-0.5" y="-0.5" width="1" height="1" /></g>
<g transform="translate(98 27) rotate(156) scale(5 11)"><rect fill="#dcedeb" fill-opacity="0.501961" x="-0.5" y="-0.5" width="1" height="1" /></g>
<g transform="translate(177 115) rotate(304) scale(2 6)"><rect fill="#e77bbb" fill-opacity="0.501961" x="-0.5" y="-0.5" width="1" height="1" /></g>
<g transform="translate(181 116) rotate(-26) scale(1 18)"><rect fill="#dbbdd9" fill-opacity="0.501961" x="-0.5" y="-0.5" width="1" height="1" /></g>
<g transform="translate(93 26) rotate(256) scale(22 2)"><rect fill="#e8aed1" fill-opacity="0.501961" x="-0.5" y="-0.5" width="1" height="1" /></g>
<g transform="translate(255 78) rotate(68) scale(7 20)"><rect fill="#ffc0db" fill-opacity="0.501961" x="-0.5" y="-0.5" width="1" height="1" /></g>
<g transform="translate(75 75) rotate(157) scale(9 3)"><rect fill="#f3a3ce" fill-opacity="0.501961" x="-0.5" y="-0.5" width="1" height="1" /></g>
<g transform="translate(68 128) rotate(64) scale(2 12)"><rect fill="#f179be" fill-opacity="0.501961" x="-0.5" y="-0.5" width="1" height="1" /></g>
<g transform="translate(127 58) rotate(313) scale(11 26)"><rect fill="#dce6e7" fill-opacity="0.501961" x="-0.5" y="-0.5" width="1" height="1" /></g>
<g transform="translate(76 147) rotate(167) scale(26 4)"><rect fill="#ebb1d2" fill-opacity="0.501961" x="-0.5" y="-0.5" width="1" height="1" /></g>
<g transform="translate(251 34) rotate(347) scale(2 48)"><rect fill="#f593cb" fill-opacity="0.501961" x="-0.5" y="-0.5" width="1" height="1" /></g>
<g transform="translate(140 156) rotate(54) scale(9 19)"><rect fill="#decede" fill-opacity="0.501961" x="-0.5" y="-0.5" width="1" height="1" /></g>
<g transform="translate(55 45) rotate(27) scale(4 20)"><rect fill="#f3afd4" fill-opacity="0.501961" x="-0.5" y="-0.5" width="1" height="1" /></g>
<g transform="translate(0 42) rotate(100) scale(2 28)"><rect fill="#ebeff0" fill-opacity="0.501961" x="-0.5" y="-0.5" width="1" height="1" /></g>
<g transform="translate(221 145) rotate(304) scale(1 24)"><rect fill="#f07dbd" fill-opacity="0.501961" x="-0.5" y="-0.5" width="1" height="1" /></g>
<g transform="translate(201 111) rotate(226) scale(1 32)"><rect fill="#ee9aca" fill-opacity="0.501961" x="-0.5" y="-0.5" width="1" height="1" /></g>
<g transform="translate(93 169) rotate(233) scale(1 19)"><rect fill="#f285bd" fill-opacity="0.501961" x="-0.5" y="-0.5" width="1" height="1" /></g>
<g transform="translate(205 114) rotate(186) scale(14 2)"><rect fill="#dcdde5" fill-opacity="0.501961" x="-0.5" y="-0.5" width="1" height="1" /></g>
<g transform="translate(201 68) rotate(46) scale(1 6)"><rect fill="#f37dc0" fill-opacity="0.501961" x="-0.5" y="-0.5" width="1" height="1" /></g>
<g transform="translate(49 4) rotate(-9) scale(6 7)"><rect fill="#f2a2ce" fill-opacity="0.501961" x="-0.5" y="-0.5" width="1" height="1" /></g>
<g transform="translate(147 63) rotate(171) scale(45 4)"><rect fill="#dfdfe6" fill-opacity="0.501961" x="-0.5" y="-0.5" width="1" height="1" /></g>
<g transform="translate(202 139) rotate(137) scale(6 8)"><rect fill="#ec69b5" fill-opacity="0.501961" x="-0.5" y="-0.5" width="1" height="1" /></g>
<g transform="translate(210 57) rotate(356) scale(33 3)"><rect fill="#f0a2cf" fill-opacity="0.501961" x="-0.5" y="-0.5" width="1" height="1" /></g>
<g transform="translate(209 119) rotate(87) scale(17 1)"><rect fill="#f288c3" fill-opacity="0.501961" x="-0.5" y="-0.5" width="1" height="1" /></g>
<g transform="translate(97 3) rotate(50) scale(7 29)"><rect fill="#e2ccde" fill-opacity="0.501961" x="-0.5" y="-0.5" width="1" height="1" /></g>
<g transform="translate(188 97) rotate(214) scale(7 21)"><rect fill="#ebabd0" fill-opacity="0.501961" x="-0.5" y="-0.5" width="1" height="1" /></g>
<g transform="translate(10 52) rotate(200) scale(43 10)"><rect fill="#f7d0e2" fill-opacity="0.501961" x="-0.5" y="-0.5" width="1" height="1" /></g>
<g transform="translate(71 162) rotate(123) scale(4 27)"><rect fill="#f286bf" fill-opacity="0.501961" x="-0.5" y="-0.5" width="1" height="1" /></g>
<g transform="translate(149 163) rotate(166) scale(8 1)"><rect fill="#dae0e7" fill-opacity="0.501961" x="-0.5" y="-0.5" width="1" height="1" /></g>
<g transform="translate(51 74) rotate(61) scale(25 25)"><rect fill="#f0cbdf" fill-opacity="0.501961" x="-0.5" y="-0.5" width="1" height="1" /></g>
<g transform="translate(44 46) rotate(188) scale(14 7)"><rect fill="#e6e3e9" fill-opacity="0.501961" x="-0.5" y="-0.5" width="1" height="1" /></g>
<g transform="translate(36 80) rotate(301) scale(7 29)"><rect fill="#efd8e5" fill-opacity="0.501961" x="-0.5" y="-0.5" width="1" height="1" /></g>
<g transform="translate(117 165) rotate(198) scale(6 3)"><rect fill="#f286c1" fill-opacity="0.501961" x="-0.5" y="-0.5" width="1" height="1" /></g>
<g transform="translate(37 155) rotate(305) scale(1 49)"><rect fill="#f68fc6" fill-opacity="0.501961" x="-0.5" y="-0.5" width="1" height="1" /></g>
<g transform="translate(130 19) rotate(318) scale(16 7)"><rect fill="#f2b0d3" fill-opacity="0.501961" x="-0.5" y="-0.5" width="1" height="1" /></g>
<g transform="translate(233 63) rotate(108) scale(2 9)"><rect fill="#f691c7" fill-opacity="0.501961" x="-0.5" y="-0.5" width="1" height="1" /></g>
<g transform="translate(115 147) rotate(342) scale(18 1)"><rect fill="#ee9dcd" fill-opacity="0.501961" x="-0.5" y="-0.5" width="1" height="1" /></g>
<g transform="translate(65 25) rotate(368) scale(27 2)"><rect fill="#f598c9" fill-opacity="0.501961" x="-0.5" y="-0.5" width="1" height="1" /></g>
<g transform="translate(206 82) rotate(301) scale(15 28)"><rect fill="#f5bed9" fill-opacity="0.501961" x="-0.5" y="-0.5" width="1" height="1" /></g>
<g transform="translate(171 45) rotate(16) scale(15 2)"><rect fill="#e667b4" fill-opacity="0.501961" x="-0.5" y="-0.5" width="1" height="1" /></g>
<g transform="translate(121 126) rotate(75) scale(23 1)"><rect fill="#e8c6dc" fill-opacity="0.501961" x="-0.5" y="-0.5" width="1" height="1" /></g>
<g transform="translate(176 26) rotate(156) scale(32 3)"><rect fill="#ee7ebe" fill-opacity="0.501961" x="-0.5" y="-0.5" width="1" height="1" /></g>
<g transform="translate(27 103) rotate(37) scale(9 8)"><rect fill="#ebdbe7" fill-opacity="0.501961" x="-0.5" y="-0.5" width="1" height="1" /></g>
<g transform="translate(46 1) rotate(290) scale(21 1)"><rect fill="#e0e2e7" fill-opacity="0.501961" x="-0.5" y="-0.5" width="1" height="1" /></g>
<g transform="translate(57 97) rotate(215) scale(1 8)"><rect fill="#f591c7" fill-opacity="0.501961" x="-0.5" y="-0.5" width="1" height="1" /></g>
<g transform="translate(83 140) rotate(206) scale(2 31)"><rect fill="#e5b4d2" fill-opacity="0.501961" x="-0.5" y="-0.5" width="1" height="1" /></g>
</g>
</svg>