<svg height="680" width="1024" xmlns="http://www.w3.org/2000/svg"><path d="m0 0h1024v680h-1024z" fill="#2d5938"/><g fill="none" stroke-opacity=".501961" stroke-width=".5" transform="matrix(4 0 0 4 2 2)"><g stroke="#fff"><path d="m156.806164-4.748844q-41.661486 122.887798-78.258102 189.748844"/><path d="m156.871699-4.31417q-55.902316 132.613108-65.570731 181.14307"/><path d="m82.023762 185q27.96262-52.347808 80.186855-201"/><path d="m89.315953 185q36.034347-119.773089 68.098925-184.196212"/><path d="m51.778352 83.428611q62.514903 101.571389 147.252927 14.294697"/><path d="m89.104347 185q62.327726-177.494048 70.081331-201"/><path d="m155.443742-6.741724q-63.427969 164.358428-72.651803 190.613753"/><path d="m91.745199 131.756441q116.209831 16.793388 113.133022-70.775628"/><path d="m145.508582 136.140309q-111.97306-8.58899-82.881846-82.40592"/><path d="m187.708628 116.373628q-117.459202 49.954093-132.47395-47.355422"/><path d="m217.504382 99.11916q-32.20517-115.11916-147.522908-54.204754"/><path d="m89.339059 169.694404q14.394473-43.709659 69.441804-170.588939"/><path d="m97.169744 138.833652q124.823539-7.854174 103.128774-85.448062"/><path d="m88.932771 130.978961q-76.520923-66.045696 23.733443-106.27751"/><path d="m69.613931 116.302704q124.3287 53.855428 135.910575-55.20322"/><path d="m92.958269 173.27749q2.747239-22.638352 60.882667-173.93277"/><path d="m52.999235 65.515208q24.677082 113.080816 137.556314 44.498238"/><path d="m160.821182-12.089416q-16.638049 42.957681-67.333318 185.764125"/><path d="m65.406485 46.868177q-33.219138 93.3853 82.12177 83.501889"/><path d="m203.587759 94.762084q6.438654-91.072565-117.141228-62.588724"/><path d="m162.208696-16q-66.13075 158.85075-80.551525 199.55291"/><path d="m209.231928 75.743912q-50.251791 92.646913-120.154263 47.608529"/><path d="m161.623232-16q-29.328947 73.418844-73.815122 201"/><path d="m64.427942 107.682012q85.495316 58.363036 142.357531-15.410368"/><path d="m189.638022 39.286572q49.406328 73.362347-54.628396 97.799554"/><path d="m57.467369 86.567384q49.237315 90.101516 133.2938 19.533884"/><path d="m195.522383 109.7969q20.283265-53.77401-20.545888-74.236637"/><path d="m165.422677 30.58568q-63.038853-21.949054-105.698475 28.785597"/></g><path d="m48.55178 74.463505q67.941266-86.767962 146.559427-26.348409" stroke="#f9fefc"/><path d="m89.264183 177.708963q27.037501-100.03703 75.299206-193.708963" stroke="#fff"/><path d="m82.671344 30.53963q-66.75014 78.808724 30.900798 105.008627" stroke="#edfbe8"/><path d="m50.264498 83.545773q70.190716 98.334981 155.261134 5.918763" stroke="#f3fef6"/><path d="m200.545133 103.058325q27.14481-61.566098-60.061651-80.571591" stroke="#fffff7"/><path d="m85.927344 181.741735q10.957548-34.63659 78.636513-197.741735" stroke="#fff"/><path d="m53.981267 81.435382q12.202083 56.298814 82.778844 57.590835" stroke="#fafffa"/><path d="m149.81128-13.865009q18.382701 7.792232-58.511672 177.269431" stroke="#f7fcfe"/><path d="m116.580279 139.091032q-89.395238-41.222841-40.449114-96.845589" stroke="#f8fffe"/><path d="m141.056445 23.270118q-95.579438 8.609318-84.669116 70.131012" stroke="#fff"/><path d="m205.727248 70.733183q-2.692383 55.078218-61.936257 65.374226" stroke="#f7fff4"/><path d="m145.785617 22.39313q85.074577 23.832723 42.905319 85.29133" stroke="#fff"/><path d="m111.234177 133.836986q61.076944 13.9794 92.883231-47.851167" stroke="#fafff9"/><path d="m158.718367-16q-19.439143 63.173092-73.043757 186.162499" stroke="#fefff5"/><path d="m91.457074 168.644751q33.012173-65.350618 55.253712-159.96198" stroke="#ebf3ee"/><path d="m93.1532 131.857862q-53.263963-36.13315-24.434876-82.152113" stroke="#f6fffb"/><path d="m201.855421 90.306001q-64.769468 83.765888-141.582904 12.945486" stroke="#e7f4e9"/><path d="m93.451568 30.679415q115.559565-28.822539 110.864856 71.953916" stroke="#f2f9e9"/><path d="m202.276509 57.748577q17.399679 48.270371-48.440607 75.888629" stroke="#fafffb"/><path d="m86.282914 173.373079q16.81146-43.702843 56.608977-132.913954" stroke="#f6fff9"/><path d="m88.413426 129.558037q126.879735 16.27287 112.543611-81.829113" stroke="#d7e6da"/><path d="m91.704578 129.593429q-69.670197-41.132741-10.609735-89.61237" stroke="#f3fff6"/><path d="m155.978528 132.550373q89.644148-58.389389 13.293953-106.136671" stroke="#dcead8"/><path d="m81.867909 182.686866q53.999527-102.579211 72.085662-195.019342" stroke="#dfe8e3"/><path d="m93.76389 30.845269q-55.347373 30.560062-26.428083 78.495272" stroke="#fcfffc"/><path d="m123.558073 137.560463q75.05021-22.653422 80.771526-48.080264" stroke="#d8e4e1"/><path d="m89.799084 185q45.198076-143.916957 71.042373-192.840144" stroke="#fffff9"/><path d="m197.290538 98.769649q19.717584-50.44792-46.774234-77.48043" stroke="#cbd7d3"/><path d="m90.572113 169.114178q17.237619-16.053999 38.360943-110.660501" stroke="#d8e5e0"/><path d="m190.197215 19.988181q-137.018802-2.194222-136.149465 63.18615" stroke="#bdcfaa"/><path d="m160.444292-16q-79.241397 195.555746-76.507248 201" stroke="#e7eeea"/><path d="m146.891288 136.67536q-90.338479 11.629715-88.407593-76.704047" stroke="#dae9dd"/><path d="m116.960772 24.818038q-69.178724 22.437849-62.602046 62.413846" stroke="#e4f0e9"/><path d="m142.272926 37.103103q-53.831534 147.896897-61.26274 147.896897" stroke="#effaed"/><path d="m167.52275 27.103468q81.133355 54.613958-3.988978 101.018059" stroke="#ddebdc"/><path d="m67.767216 102.656016q40.039614 49.069927 98.524812 28.280719" stroke="#d1e0d6"/><path d="m131.594055 137.789485q-84.545951-19.26428-70.095717-78.475144" stroke="#d7e5e1"/><path d="m122.385435 135.585075q109.701366-21.524824 73.616201-88.593642" stroke="#dae8dd"/><path d="m47.291084 57.563928q32.48571 127.436072 151.124414 48.087192" stroke="#c2d8c1"/><path d="m201.075376 68.213985q-66.032894 116.786015-136.509568 1.817776" stroke="#00016f"/><path d="m156.237057 2.169894q-1.287212-.662183-68.218614 165.286859" stroke="#f2fbed"/><path d="m199.001777 74.609564q-66.221809 110.390436-134.310025-2.784803" stroke="#00006c"/><path d="m144.511452 131.516359q-50.749702 6.52268-86.457418-34.032274" stroke="#dbeade"/><path d="m59.273398 99.817574q-19.29878-72.908779 94.269313-78.415114" stroke="#deead9"/><path d="m200.005782 65.802314q-65.36192 112.993422-136.665556.159967" stroke="#000472"/><path d="m198.267416 68.688069q-75.805689 102.528143-129.485336-10.30234" stroke="#000674"/><path d="m200.306824 60.967508q21.543098 61.278183-72.631852 77.972446" stroke="#d4e4d4"/><path d="m195.213927 69.685115q-78.79296 90.511416-126.393812-15.81293" stroke="#000877"/><path d="m97.596003 131.122947q-76.873894-39.171553-13.988414-92.731089" stroke="#d6e5e2"/><path d="m192.37028 71.449743q-56.843216 97.26397-127.482169-3.394251" stroke="#00056f"/><path d="m196.817214 63.938687q-78.658963 95.653115-126.978529-11.361859" stroke="#000a79"/><path d="m177.646753 38.972579q42.24422 85.479751-64.805166 86.595135" stroke="#000068"/><path d="m63.318116 71.952996q49.973868 101.647169 129.567133 26.138632" stroke="#00016a"/><path d="m62.805609 90.372961q81.450148 80.627779 125.704862-42.707178" stroke="#00076e"/><path d="m193.750586 54.054672q-67.419126 103.945934-123.531082-3.484085" stroke="#03107d"/><path d="m253.195028 5.262105q17.090558 179.737895-155.236875 161.297677" stroke="#064a00"/><path d="m158.474089-2.836002q-43.871898 104.027434-71.598391 187.175627" stroke="#f3fbeb"/><path d="m192.946042 51.595185q-61.252452 101.417113-119.671159 3.524542" stroke="#04127c"/><path d="m101.686439 163.898694q169.313561 21.101306 148.168375-168.59084" stroke="#084c00"/><path d="m110.748125 107.624223q35.63149-66.366625 50.657386-123.624223" stroke="#e1e9e0"/><path d="m82.965614 185q28.918962-73.455543 50.664156-134.652341" stroke="#e7f5e7"/><path d="m197.432361 65.66496q-67.588324 119.33504-136.727712 18.206631" stroke="#000568"/><path d="m124.227009 137.394583q-97.262533-24.759108-59.276138-84.090041" stroke="#cfe1d1"/><path d="m-4.258217 179.263697q17.375083-80.044371 275.258217-6.195141" stroke="#064a00"/><path d="m253.152479 70.130384q17.847521 114.869616-152.684992 95.172707" stroke="#024700"/><path d="m194.129314 60.526708q-51.046127 102.007871-125.523379 9.802919" stroke="#000871"/><path d="m-.408147 71.025188q-15.591853 105.673593 261.249347 96.491497" stroke="#074c00"/><path d="m72.210329 117.819262q-49.003938-76.930386 66.264513-99.70903" stroke="#c5d7bd"/><path d="m73.624421 48.971642q49.720276 98.562808 114.647774 7.244818" stroke="#071682"/><path d="m-.517615 20.803232q-15.482385 164.196768 271.517615 142.813019" stroke="#0b5000"/><path d="m90.850196 177.813031q55.157131-149.653476 68.751956-193.813031" stroke="#eff8e8"/><path d="m261.232301 153.12601q-265.755814 31.87399-260.120594-82.687771" stroke="#0a4e00"/><path d="m174.6143 125.326918q-44.126299 24.534142-78.274198 5.378629" stroke="#bcd1b8"/><path d="m139.365209 35.632448q-49.341636 120.686035-51.895221 139.904242" stroke="#bcc9d2"/><path d="m200.950062 73.375154q-103.353222-89.375154-139.384045 10.066701" stroke="#122688"/><path d="m271 164.399601q-265.310077 20.600399-272.34326-39.095192" stroke="#054900"/><path d="m68.427652 57.177585q64.957573 100.006459 127.233227-1.197959" stroke="#010e77"/><path d="m199.152286 81.787604q-96.338757-94.548661-136.301945 10.222232" stroke="#0f2182"/><path d="m199.277492 84.818583q-55.269332 83.844987-140.037312-8.996109" stroke="#000467"/><path d="m132.438839 137.383881q109.205219-27.670485 53.265243-100.340409" stroke="#d6e6d8"/><path d="m269.416535 160.106663q-284.799993 24.893337-265.048823-158.067511" stroke="#0f5200"/><path d="m253.31775 147.079416q-240.665119 37.920584-253.454977-84.586495" stroke="#0c5000"/><path d="m196.881488 48.897249q28.169079 41.070237-23.263099 68.515643" stroke="#d7e5db"/><path d="m248.994666 1.430525q14.695352 183.569475-149.777684 160.531545" stroke="#0b4f00"/><path d="m186.080213 48.736934q-48.573949 90.471414-111.481008-1.075653" stroke="#0a1b85"/><path d="m165.158014 31.765033q53.759032 82.45912-51.62636 97.735268" stroke="#000568"/><path d="m99.033927 133.790562q-84.531077-55.989606 1.642229-107.502773" stroke="#d3e3d4"/><path d="m1.434334 97.93241q4.146666 79.248118 265.663215 70.709071" stroke="#0a4d00"/><path d="m254.987023 131.493684q-246.409349 53.506316-248.759095-79.251878" stroke="#0e5000"/><path d="m60.654933 83.634156q37.395492 80.538571 135.722873 3.381461" stroke="#000365"/><path d="m254.941252 4.474002q16.058748 180.525998-252.863791 156.258654" stroke="#0e5000"/><path d="m88.148846 185q44.028545-139.120015 70.167218-191.34346" stroke="#ecf5e6"/><path d="m190.391722 51.04379q-58.202128 85.183515-108.620542 9.359398" stroke="#071781"/><path d="m186.175674 38.865964q-41.797591-20.394094-80.354442-10.914964" stroke="#e3e8e5"/><path d="m65.32403 14.782979q80.39792-26.375662 129.91852-9.576743" stroke="#759646"/><path d="m253.218732 40.628422q17.781268 140.983198-148.292057 106.919762" stroke="#084c00"/><path d="m164.980037 34.963058q43.776101 65.929952-50.72162 84.858216" stroke="#00056b"/><path d="m198.325912 86.400863q-68.120834 78.143494-133.086009-28.080188" stroke="#000c6c"/><path d="m80.636686 45.529511q47.785067 87.954856 104.524901 2.909402" stroke="#0d1f88"/><path d="m-14.047071 142.593103q270.295046 41.965964 269.062362-134.071447" stroke="#115000"/><path d="m69.533938 108.685217q-43.162497-50.644055 40.1536-82.982823" stroke="#d2e3d6"/><path d="m69.962166 103.702181q34.685012-102.600161 129.554956-19.491865" stroke="#0c1e7f"/><path d="m253.914662 47.296568q17.085338 135.11195-148.992277 117.668097" stroke="#074a00"/><path d="m191.617397 53.597716q-46.182013-27.868508-79.071837 76.728373" stroke="#011175"/><path d="m53.195547 2.419361q137.982404-.994462 153.601099.172501" stroke="#7a9a4d"/><path d="m246.171521-10.006484q24.828479 191.391932-248.020368 149.30097" stroke="#0f4f00"/><path d="m199.894209 71.7698q-50.152338-87.7698-138.47286-.481347" stroke="#162b89"/><path d="m156.73129-.447415q-13.326645 36.592427-62.43555 170.64274" stroke="#d9e4db"/><path d="m-3.291297 161.330083q257.202982 23.068025 255.184376-86.943699" stroke="#0e5100"/><path d="m85.792092 175.854022q26.352214-64.032889 37.492211-101.406896" stroke="#dbebde"/><path d="m58.511559 92.615931q38.774492 47.976255 79.212073 42.031744" stroke="#bdcdc9"/><path d="m7.600859-16q-20.101648 174.084885 261.007129 180.244796" stroke="#135300"/><path d="m113.325428 19.273458q73.086905 10.732781 79.626083 26.39954" stroke="#cad6b9"/><path d="m192.072336 99.377341q-53.291025-110.732213-128.728145-8.191584" stroke="#0b1d7c"/><path d="m61.689579 78.019489q48.712457 84.570592 130.057946-16.831144" stroke="#00096b"/><path d="m253.674912 29.481453q3.749124 136.552012-253.326694 130.246307" stroke="#105100"/><path d="m3.527558 37.927537q-19.527558 115.356902 260.595625 118.948608" stroke="#105100"/><path d="m185.420708 45.513183q-55.93047 85.968233-102.177995-4.790601" stroke="#102287"/><path d="m198.580463 78.151954q-101.949081-93.804589-137.012554 11.329152" stroke="#102380"/><path d="m82.732943 168.881558q-93.384544 8.497582-79.519484-159.345425" stroke="#064b00"/><path d="m190.791802 64.772593q-69.951868 101.256748-125.058665-4.404054" stroke="#020f6e"/><path d="m86.498673 161.430571q-94.132616 15.020382-79.671246-177.430571" stroke="#094e00"/><path d="m87.715188 175.955949q9.092641-24.801671 43.778581-108.89418" stroke="#e2f2e1"/><path d="m8.395025 15.076432q-22.597072 169.923568 262.31711 146.159876" stroke="#115300"/><path d="m39.905626 168.30243q231.094374 16.69757 212.55055-107.110591" stroke="#0b4d00"/><path d="m75.500774 110.304388q52.842431-5.480712 53.809228-82.307391" stroke="#001175"/><path d="m263.32549 185q-61.324301-108.451296-53.191099-117.315693" stroke="#034700"/><path d="m271 156.117275q-226.841495 28.882725-263.211124-100.093654" stroke="#105200"/><path d="m206.410889 73.405118q-15.169879 44.947588-62.650121 63.801527" stroke="#cfded5"/><path d="m185.401828 43.268984q-76.665549 7.711236-49.491029 87.073281" stroke="#001173"/><path d="m73.061879 102.197634q27.080045-92.843467 123.239053-14.719297" stroke="#0e207f"/><path d="m-1.890044 154.221636q233.519335 20.864385 247.324154-137.168913" stroke="#125100"/><path d="m179.145306 33.167317q-35.23138-13.505784-66.593379-8.607376" stroke="#dfe5cb"/><path d="m6.22504-7.98138q-15.445769 192.98138 253.607687 151.967928" stroke="#125300"/><path d="m74.817079 108.220026q38.378515-99.573847 117.0667-12.469834" stroke="#0a1b7a"/><path d="m157.535341-5.396574q-64.405356 151.174462-65.460387 174.836646" stroke="#e7f0e2"/><path d="m192.718423 55.908211q-50.420048-24.918626-76.691609 73.272198" stroke="#011273"/><path d="m158.237297 27.759975q27.912811 5.475795 47.277731 42.169608" stroke="#ccd7da"/><path d="m207.963848 4.531542q-91.727662-.994238-155.242628-.081041" stroke="#77974a"/><path d="m103.163682 150.46832q167.836318 28.191231 132.055706-148.833453" stroke="#115200"/><path d="m137.880269 27.35188q-96.103652 31.433124-36.528501 98.334051" stroke="#031574"/><path d="m200.417735 80.8756q-90.747967 84.364691-136.52543 12.821413" stroke="#010c67"/><path d="m113.465795 124.644735q78.598847-65.476687 39.551438-94.207234" stroke="#000e6f"/><path d="m114.103541 117.556009q76.328066 20.93244 84.797759-48.00651" stroke="#00035f"/><path d="m85.326138 185q26.59855-55.122762 41.136496-117.341762" stroke="#deeedf"/><path d="m251.930742-16q13.24606 201-246.946279 179.557093" stroke="#135300"/><path d="m117.663267 129.550065q18.947689-81.074278 77.564457-73.271339" stroke="#011273"/><path d="m255.881652 117.639003q-2.664945 67.360997-270.994579 48.616975" stroke="#044700"/><path d="m3.623778 68.444185q-19.623778 116.555815 85.361322 88.63606" stroke="#004600"/><path d="m118.769563 91.1447q-6.832722 59.610802-45.521488 93.540962" stroke="#ceded4"/><path d="m168.217753 128.25476q-68.316289 10.623889-86.159939-3.630766" stroke="#d0e1d1"/><path d="m156.577037 11.960585q-15.21442 11.331577-58.837469 147.451871" stroke="#ddead5"/><path d="m9.953362-4.881788q-25.953362 181.560437 75.487409 172.445857" stroke="#094d00"/><path d="m106.145751 140.848117q164.854249 26.917263 138.470687-144.6167" stroke="#115000"/><path d="m53.260879 77.594615q5.616607 42.521845 40.049502 51.629427" stroke="#b7cdb8"/><path d="m70.397483 57.585021q69.44296 100.638514 126.635822 32.777567" stroke="#010f67"/><path d="m271 146.965066q-239.641061 38.034934-269.76988-56.277291" stroke="#0d4f00"/><path d="m196.488741 46.540615q24.305289 78.553111-64.244312 88.906638" stroke="#cdded0"/><path d="m127.746357 140.044869q107.67626-24.333623 62.781905-95.076779" stroke="#c4d5c9"/><path d="m185.40475 116.113257q46.497967-71.787044-42.545536-92.857938" stroke="#c2cfce"/><path d="m198.298054 59.548573q-66.479334 82.665791-126.7771-7.49935" stroke="#0b1d79"/><path d="m93.065652 35.300236q-60.167302 44.838748 7.371645 86.658772" stroke="#000c6f"/><path d="m113.718684 147.52924q157.281316 36.182615 127.507877-162.125162" stroke="#105100"/><path d="m119.216877 120.7956q95.325076-9.534837 39.829485-89.902721" stroke="#000d68"/><path d="m97.726132 165.920236q167.086267 19.079764 157.371818-75.377057" stroke="#064800"/><path d="m88.68801 185q12.703906-57.80018 38.961475-106.510033" stroke="#daeada"/><path d="m67.029366 97.053492q59.034272 18.034003 58.241116-69.048688" stroke="#001172"/><path d="m268.262861 108.08878q-242.781349 76.91122-260.466797-14.712753" stroke="#125000"/><path d="m187.896655 101.18982q-53.29979-109.842536-123.522297-8.877271" stroke="#0d2178"/><path d="m151.015673 129.10755q92.096654-35.887855 31.202802-94.565514" stroke="#c9dacc"/><path d="m108.033115 162.63638q91.062645 10.509585 134.636811-178.63638" stroke="#175400"/><path d="m118.320051 130.61618q13.377666-38.520942 63.754631-88.86513" stroke="#00106f"/><path d="m167.006176-16q-29.699568 47.535135-85.401344 201" stroke="#ccd7cf"/><path d="m271 152.430815q-12.86861 32.569185-287-7.815424" stroke="#0c4d00"/><path d="m236.920311 23.166331q5.978771 142.825381-252.920311 128.823587" stroke="#135100"/><path d="m97.291893 130.553653q-51.488289-33.978474-33.43226-71.151321" stroke="#cad9d6"/><path d="m240.202433-1.494957q30.02141 116.206898-134.75398 162.944997" stroke="#125000"/><path d="m200.262265 80.301542q-42.253702-96.301542-130.532444-2.163216" stroke="#122882"/><path d="m118.606967 28.112351q5.238417 88.790284-38.319538 85.961787" stroke="#021472"/><path d="m63.250303 83.787215q68.552984 94.055876 136.542467-14.9915" stroke="#000d62"/><path d="m10.842403 171.141q88.45485-94.483983-10.257777-167.326381" stroke="#165700"/><path d="m114.311116 139.290809q140.929484 45.709191 123.705293-137.058319" stroke="#135200"/><path d="m179.033044 45.51868q-35.761147 78.942978-103.051685 1.258819" stroke="#112582"/><path d="m115.9594 159.706027q153.728554 20.270669 138.227601-97.351425" stroke="#084a00"/><path d="m158.440063 32.590311q50.08984 77.165194-45.300586 88.804347" stroke="#000f65"/><path d="m60.200537 5.220323q77.340242 1.533305 153.690708.169039" stroke="#729446"/><path d="m270.346956 137.655092q-278.25674 44.737814-258.379443-138.613911" stroke="#145300"/><path d="m-1.9659 82.873828q3.024303 100.41884 258.187862 72.814397" stroke="#0f4f00"/><path d="m98.779275 169.538544q172.220725-1.33976 148.838996-159.129206" stroke="#104f00"/><path d="m149.433042 24.701605q-21.433619 33.586352-66.266964 160.298395" stroke="#dfecdd"/><path d="m82.726174 165.554999q-98.726174 18.199036-78.855458-88.71925" stroke="#014600"/><path d="m6.281996 79.679616q-22.281996 83.278607 76.175233 79.783203" stroke="#004500"/><path d="m183.663764 43.869954q-29.009545 100.485684-121.870724 27.27172" stroke="#081a70"/><path d="m2.612385 29.497515q1.732647 151.852034 84.052898 130.250686" stroke="#084c00"/><path d="m60.777958 69.082921q46.368121-78.572437 138.657772-.513266" stroke="#213990"/><path d="m182.382673 54.115398q-51.710855 82.297882-108.207076-5.517775" stroke="#0d217e"/><path d="m241.492951-2.980242q-.56106 187.980242-129.833994 147.435614" stroke="#145300"/><path d="m141.849592 28.616264q-69.950608 61.103547-38.153937 92.852242" stroke="#051874"/><path d="m179.632324 37.971657q-72.72167 9.75519-32.848584 90.81714" stroke="#091e78"/><path d="m56.412207 82.18703q6.549158-47.23573 71.054475-59.834421" stroke="#c7d5ce"/><path d="m132.522574-16q35.054619 20.303764-44.738366 191.099888" stroke="#c1d1c1"/><path d="m92.456045 120.581489q-47.0078-76.273018 40.856073-80.721164" stroke="#051872"/><path d="m155.831267-4.217061q-66.431624 183.607894-63.910133 189.217061" stroke="#e1ecda"/><path d="m-16 112.79039q256.355569 67.498631 268.40357-21.333046" stroke="#135000"/><path d="m189.060453 48.226851q-82.102489 23.885472-48.82723 79.374977" stroke="#031670"/><path d="m7.794851 180.520337q-23.794851-29.764738 47.46933-114.326285" stroke="#094d00"/><path d="m61.430761 66.264859q20.433069 80.842889 126.359722 14.813182" stroke="#010e68"/><path d="m190.510378 99.462387q-70.486254-77.524358-123.713238-4.147679" stroke="#0d2178"/><path d="m138.685659 27.456361q-23.556002 83.760438-77.687029 48.808596" stroke="#081e78"/><path d="m271 136.250459q-264.441192 44.367044-261.07202-132.940393" stroke="#185500"/><path d="m8.828573 12.112273q-6.690262 162.081973 81.1247 147.740158" stroke="#0c5000"/><path d="m63.798772 59.801793q60.491157 118.421813 129.399014 30.258903" stroke="#041163"/><path d="m244.922125 3.371762q-80.194293 45.55673 22.520986 181.628238" stroke="#165400"/><path d="m184.169123 52.128216q-55.747839 81.188372-106.376713-5.47827" stroke="#10247d"/><path d="m106.692406 148.909852q77.431396 36.090148 149.815835-164.909852" stroke="#185300"/><path d="m254.09605 3.046551q16.90395 181.953449-141.050212 147.089936" stroke="#0e4e00"/><path d="m85.165202 169.345818q-101.165202.286501-74.366622-101.371384" stroke="#044800"/><path d="m63.149079 24.950566q14.835191-26.818708 197.549809-26.217421" stroke="#65893f"/><path d="m102.322184 161.987165q162.826803 2.853709 129.53808-164.384151" stroke="#155400"/><path d="m127.474153 25.903992q-.141094 82.625722-54.298652 79.19832" stroke="#03166f"/><path d="m250.627219 29.343414q20.372781 155.656586-121.613049 124.736193" stroke="#0d4e00"/><path d="m86.562251 180.947411q62.215651-171.281955 75.388986-196.947411" stroke="#e5efde"/><path d="m80.44532 49.641342q68.962103 70.788328 98.214928-11.831533" stroke="#12267e"/><path d="m64.421465 71.576775q53.661664 105.364795 124.67817 3.842101" stroke="#011061"/><path d="m58.588961 69.674836q-10.148776 38.393688 38.407886 56.886481" stroke="#cee1d3"/><path d="m78.587667 158.33119q-90.199411-2.117677-53.526193-174.33119" stroke="#0f5200"/><path d="m264.123746 126.371596q-241.072315 41.408468-268.583111-8.768749" stroke="#125000"/><path d="m234.687511-16q-32.024876 200.363489-136.326222 183.026311" stroke="#1a5400"/><path d="m-.56559 9.897549q116.550732 110.989085-15.43441 167.361961" stroke="#155600"/><path d="m90.01156 177.256305q30.051049-86.967286 71.031642-188.882814" stroke="#e4eedf"/><path d="m92.45031 118.83057q-64.715635-39.00271 4.673046-81.056137" stroke="#000f69"/><path d="m194.433003 56.670351q-56.272225-31.976937-77.886584 67.442934" stroke="#05196e"/><path d="m17.862001 17.537654q5.98408 167.462346 234.861298 122.938999" stroke="#185500"/><path d="m126.117772 115.276835q72.298798-19.129383 21.590163-83.666939" stroke="#03156c"/><path d="m148.666681 30.111365q-29.984294 85.627347 17.7221 90.3973" stroke="#051971"/><path d="m84.102138 164.386193q-100.102138-4.758487-62.966012-170.934241" stroke="#0f5100"/><path d="m100.664462 120.577079q-47.302428-65.935207 39.71175-92.428238" stroke="#081c73"/><path d="m249.978664-5.535106q-79.897129 152.155378 12.85965 177.539347" stroke="#135200"/><path d="m192.790615 164.727418q78.209385 13.049962 57.481188-92.108159" stroke="#024700"/><path d="m150.143299 29.235944q41.430888 69.50045-32.428673 84.921033" stroke="#03156a"/><path d="m103.304541 164.968262q156.112566 20.031738 149.509594-51.808501" stroke="#084800"/><path d="m82.673793 35.148385q-52.58278 50.250136 13.716167 97.268566" stroke="#bccec6"/><path d="m71.08362 102.695615q53.554241 8.135948 41.800653-71.310612" stroke="#03156f"/><path d="m151.572147 137.145747q-53.882003-22.17715-66.720269 42.434242" stroke="#c7d9ca"/><path d="m78.715198 42.175739q-60.401094 49.575765 26.431926 96.043708" stroke="#c2d5c7"/><path d="m257.0423 172.092481q-24.071778-89.823265-160.000675-4.099481" stroke="#0b4900"/><path d="m10.937074 56.935866q-26.937074 119.485832 59.745329 109.278474" stroke="#054900"/><path d="m188.558684 46.661688q33.484514 43.325011-31.880965 78.827747" stroke="#03116a"/><path d="m117.511118 126.384096q39.521106-82.933216 68.182517-81.403245" stroke="#03156c"/><path d="m66.552298 92.507041q62.906247 9.911859 54.903185-62.24428" stroke="#041871"/><path d="m71.175603 118.154228q-80.466341-32.175302-71.528251 57.794049" stroke="#074a00"/><path d="m112.04427 148.233139q143.261925 36.766861 139.192814-91.734308" stroke="#0e4e00"/><path d="m-8.132474-16q84.236899 170.095228-7.867526 193.363464" stroke="#115300"/><path d="m15.091735-.167517q-2.148774 170.427987 72.393807 162.14346" stroke="#115300"/><path d="m171.923055 30.029381q-10.481668-4.93332-53.217062-4.889511" stroke="#dfe3d3"/><path d="m155.322897-6.168372q-123.484381 60.806282-96.686594 98.996939" stroke="#9db68a"/><path d="m106.87149 143.695035q123.489448 41.304965 131.935697-157.468541" stroke="#175400"/><path d="m256.608784 171.210358q-94.427296-22.911074-19.878897-153.174644" stroke="#155300"/><path d="m72.976067 52.793183q48.7509 85.154664 114.372587 10.805296" stroke="#0c2074"/><path d="m136.264821 26.997865q-66.311159 1.048288-33.009787 90.631335" stroke="#0c2379"/><path d="m34.458214-8.446359q-50.458214 160.906462 52.619639 168.077548" stroke="#135400"/><path d="m122.837244 154.863678q148.162756-49.704269 114.482643-162.237962" stroke="#155100"/><path d="m81.388823 43.537645q62.140371 20.558631 16.44688 76.858752" stroke="#051a72"/><path d="m145.446803 30.537262q-9.683018 29.175979-60.163559 144.071341" stroke="#d5e4d5"/><path d="m12.943974 74.606582q-28.943974 94.313219 78.74725 76.293569" stroke="#064a00"/><path d="m151.936556 29.304852q51.359985 71.475317-24.251875 88.829721" stroke="#031469"/><path d="m-16 177.67413q128.568987-78.424496 12.970441-193.67413" stroke="#195700"/><path d="m105.119359 145.893588q158.041631-19.126424 139.284474-141.391915" stroke="#165100"/><path d="m150.279237 29.867823q-26.665964 73.385959 31.294952 73.763671" stroke="#071c74"/><path d="m64.241343 7.202887q82.121279 4.891307 139.02224-1.597351" stroke="#6e8f43"/><path d="m104.373379 164.241156q166.626621 12.20151 145.321927-84.119328" stroke="#0b4a00"/><path d="m1.561697 106.053626q-9.003138 78.946374 79.403578 57.565813" stroke="#024600"/></g></svg>