<svg xmlns="http://www.w3.org/2000/svg" version="1.1" width="1024" height="680">
<rect x="0" y="0" width="1024" height="680" fill="#cccfd1" />
<g transform="scale(4.000000) translate(0.5 0.5)">
<path stroke="#090000" stroke-opacity="0.501961" fill="none" d="M 193.715855 139.683923 Q 188.882984 36.145718, 192.327042 33.522205" stroke-width="0.500000" />
<path stroke="#140000" stroke-opacity="0.501961" fill="none" d="M 187.243164 127.879996 Q 188.610443 116.502532, 187.793851 21.412377" stroke-width="0.500000" />
<path stroke="#030000" stroke-opacity="0.501961" fill="none" d="M 154.817133 95.983167 Q 215.308441 75.054944, 216.855659 38.569689" stroke-width="0.500000" />
<path stroke="#0f0000" stroke-opacity="0.501961" fill="none" d="M 185.168364 110.319938 Q 212.522165 68.173763, 148.139971 35.719117" stroke-width="0.500000" />
<path stroke="#000000" stroke-opacity="0.501961" fill="none" d="M 174.578668 36.095785 Q 212.227470 43.693838, 189.477887 106.856307" stroke-width="0.500000" />
<path stroke="#050000" stroke-opacity="0.501961" fill="none" d="M 157.656705 103.371712 Q 205.920883 56.811857, 222.445733 40.069831" stroke-width="0.500000" />
<path stroke="#090000" stroke-opacity="0.501961" fill="none" d="M 189.521535 25.223575 Q 188.479862 47.334261, 189.766411 122.477768" stroke-width="0.500000" />
<path stroke="#040000" stroke-opacity="0.501961" fill="none" d="M 223.528525 99.562625 Q 183.466182 93.835502, 186.139333 28.547851" stroke-width="0.500000" />
<path stroke="#1c0700" stroke-opacity="0.501961" fill="none" d="M 192.276155 122.045667 Q 157.763373 52.290870, 220.869986 49.697082" stroke-width="0.500000" />
<path stroke="#2b0100" stroke-opacity="0.501961" fill="none" d="M 219.222880 100.543808 Q 189.387211 16.779958, 148.475379 41.503476" stroke-width="0.500000" />
<path stroke="#380700" stroke-opacity="0.501961" fill="none" d="M 145.862647 27.529509 Q 173.538024 96.975751, 224.149082 45.057107" stroke-width="0.500000" />
<path stroke="#040000" stroke-opacity="0.501961" fill="none" d="M 163.472818 89.432431 Q 214.110102 107.640135, 211.249987 38.872455" stroke-width="0.500000" />
<path stroke="#2d0e00" stroke-opacity="0.501961" fill="none" d="M 219.796115 91.665783 Q 160.030025 93.398708, 149.444781 29.003890" stroke-width="0.500000" />
<path stroke="#130000" stroke-opacity="0.501961" fill="none" d="M 178.427355 33.762633 Q 223.204461 60.138593, 174.907756 103.447127" stroke-width="0.500000" />
<path stroke="#3b1200" stroke-opacity="0.501961" fill="none" d="M 222.736213 104.413044 Q 155.211732 36.775386, 148.206801 29.729396" stroke-width="0.500000" />
<path stroke="#080000" stroke-opacity="0.501961" fill="none" d="M 181.245972 99.666147 Q 217.325264 86.625231, 178.611903 27.241923" stroke-width="0.500000" />
<path stroke="#080000" stroke-opacity="0.501961" fill="none" d="M 218.083596 52.331140 Q 154.331239 59.983613, 191.375836 110.704187" stroke-width="0.500000" />
<path stroke="#2a0a00" stroke-opacity="0.501961" fill="none" d="M 179.428271 106.139693 Q 218.276532 70.836013, 149.830661 35.069748" stroke-width="0.500000" />
<path stroke="#2f0000" stroke-opacity="0.501961" fill="none" d="M 147.623370 29.594647 Q 156.758913 92.186273, 215.612009 53.048660" stroke-width="0.500000" />
<path stroke="#0b0200" stroke-opacity="0.501961" fill="none" d="M 159.875728 94.917746 Q 204.741119 83.026905, 218.339752 45.130403" stroke-width="0.500000" />
<path stroke="#2b0b00" stroke-opacity="0.501961" fill="none" d="M 146.326508 42.974051 Q 216.903775 64.238086, 213.813310 96.858338" stroke-width="0.500000" />
<path stroke="#3c2700" stroke-opacity="0.501961" fill="none" d="M 197.855654 32.723332 Q 172.546737 39.802254, 196.768423 147.007543" stroke-width="0.500000" />
<path stroke="#371c00" stroke-opacity="0.501961" fill="none" d="M 156.766966 27.127237 Q 135.623781 60.201126, 215.837391 91.091268" stroke-width="0.500000" />
<path stroke="#190800" stroke-opacity="0.501961" fill="none" d="M 222.177616 55.831128 Q 164.769704 54.756453, 187.333369 103.789295" stroke-width="0.500000" />
<path stroke="#190d00" stroke-opacity="0.501961" fill="none" d="M 173.970417 42.282903 Q 156.362757 67.980253, 220.969957 96.092959" stroke-width="0.500000" />
<path stroke="#511600" stroke-opacity="0.501961" fill="none" d="M 211.811640 99.427003 Q 220.313383 40.222264, 149.770313 42.911413" stroke-width="0.500000" />
<path stroke="#573b00" stroke-opacity="0.501961" fill="none" d="M 197.251445 169.011393 Q 194.147073 57.628884, 153.560404 32.944941" stroke-width="0.500000" />
<path stroke="#130c00" stroke-opacity="0.501961" fill="none" d="M 180.318602 33.823838 Q 213.276281 80.490280, 155.620693 93.599358" stroke-width="0.500000" />
<path stroke="#181100" stroke-opacity="0.501961" fill="none" d="M 162.486563 95.182945 Q 218.045840 79.629887, 212.468813 40.520697" stroke-width="0.500000" />
<path stroke="#412800" stroke-opacity="0.501961" fill="none" d="M 222.862433 96.269936 Q 145.680945 85.380287, 154.872738 28.279017" stroke-width="0.500000" />
<path stroke="#1f0a00" stroke-opacity="0.501961" fill="none" d="M 199.538800 31.684683 Q 164.508290 73.253646, 219.604800 93.846269" stroke-width="0.500000" />
<path stroke="#2f1000" stroke-opacity="0.501961" fill="none" d="M 199.372279 32.610451 Q 143.178568 61.096038, 192.138848 102.921379" stroke-width="0.500000" />
<path stroke="#421000" stroke-opacity="0.501961" fill="none" d="M 220.265054 100.153625 Q 191.084464 28.390832, 179.027793 32.734447" stroke-width="0.500000" />
<path stroke="#3a2100" stroke-opacity="0.501961" fill="none" d="M 186.336924 30.980131 Q 150.089356 76.038065, 216.281138 94.430694" stroke-width="0.500000" />
<path stroke="#3d3200" stroke-opacity="0.501961" fill="none" d="M 220.239711 40.026103 Q 161.573011 99.732624, 155.197524 102.600588" stroke-width="0.500000" />
<path stroke="#382e00" stroke-opacity="0.501961" fill="none" d="M 158.756224 96.423500 Q 218.373673 96.308699, 213.869291 34.892797" stroke-width="0.500000" />
<path stroke="#512500" stroke-opacity="0.501961" fill="none" d="M 208.173196 99.537664 Q 223.164929 62.775259, 146.864980 37.085590" stroke-width="0.500000" />
<path stroke="#241300" stroke-opacity="0.501961" fill="none" d="M 161.746728 83.745534 Q 167.210140 63.254351, 220.613407 48.495064" stroke-width="0.500000" />
<path stroke="#231300" stroke-opacity="0.501961" fill="none" d="M 222.317193 55.467545 Q 161.313383 75.151461, 189.072698 113.753093" stroke-width="0.500000" />
<path stroke="#0b0000" stroke-opacity="0.501961" fill="none" d="M 186.625765 34.547958 Q 190.783506 34.678626, 190.509347 107.792046" stroke-width="0.500000" />
<path stroke="#584200" stroke-opacity="0.501961" fill="none" d="M 225.575769 98.979014 Q 141.981588 76.186674, 158.592415 28.242168" stroke-width="0.500000" />
<path stroke="#3e2d00" stroke-opacity="0.501961" fill="none" d="M 215.611718 37.855622 Q 215.421366 105.589982, 160.779369 95.593079" stroke-width="0.500000" />
<path stroke="#573600" stroke-opacity="0.501961" fill="none" d="M 186.421527 124.030032 Q 191.072891 50.900987, 145.997425 41.237983" stroke-width="0.500000" />
<path stroke="#4f2d00" stroke-opacity="0.501961" fill="none" d="M 215.453596 95.942275 Q 214.382274 66.235553, 143.808223 43.820430" stroke-width="0.500000" />
<path stroke="#241d00" stroke-opacity="0.501961" fill="none" d="M 162.520962 100.896638 Q 189.239468 73.449704, 220.392099 44.240155" stroke-width="0.500000" />
<path stroke="#270b00" stroke-opacity="0.501961" fill="none" d="M 183.682939 104.318638 Q 206.244306 41.031878, 177.374510 32.165148" stroke-width="0.500000" />
<path stroke="#293100" stroke-opacity="0.501961" fill="none" d="M 221.678012 56.983303 Q 159.263451 67.348020, 158.260855 89.758673" stroke-width="0.500000" />
<path stroke="#322500" stroke-opacity="0.501961" fill="none" d="M 219.707783 94.507820 Q 159.191507 78.917875, 198.100002 31.819044" stroke-width="0.500000" />
<path stroke="#260f00" stroke-opacity="0.501961" fill="none" d="M 219.476742 46.145174 Q 196.320286 96.851907, 164.003802 74.319964" stroke-width="0.500000" />
<path stroke="#571f00" stroke-opacity="0.501961" fill="none" d="M 145.714549 42.439363 Q 219.819628 30.294938, 210.644387 99.392190" stroke-width="0.500000" />
<path stroke="#5a3100" stroke-opacity="0.501961" fill="none" d="M 147.554180 32.548348 Q 193.885225 43.567559, 188.103295 122.908633" stroke-width="0.500000" />
<path stroke="#3a3200" stroke-opacity="0.501961" fill="none" d="M 219.234428 54.066983 Q 157.928702 55.058133, 189.372435 117.647808" stroke-width="0.500000" />
<path stroke="#240e00" stroke-opacity="0.501961" fill="none" d="M 186.369050 105.240102 Q 211.440067 54.276095, 176.739816 33.621854" stroke-width="0.500000" />
<path stroke="#462d00" stroke-opacity="0.501961" fill="none" d="M 145.255281 41.303068 Q 163.105452 31.490114, 211.626332 97.615816" stroke-width="0.500000" />
<path stroke="#261a00" stroke-opacity="0.501961" fill="none" d="M 209.936192 45.853619 Q 213.943185 83.307639, 162.858991 76.018010" stroke-width="0.500000" />
<path stroke="#4a1700" stroke-opacity="0.501961" fill="none" d="M 158.456576 64.179910 Q 193.801708 19.340539, 217.003204 65.552737" stroke-width="0.500000" />
<path stroke="#351e00" stroke-opacity="0.501961" fill="none" d="M 187.779441 98.389319 Q 217.622493 74.563466, 174.644792 31.523562" stroke-width="0.500000" />
<path stroke="#673300" stroke-opacity="0.501961" fill="none" d="M 148.859149 52.889623 Q 206.149438 30.203204, 216.725099 96.905095" stroke-width="0.500000" />
<path stroke="#413400" stroke-opacity="0.501961" fill="none" d="M 215.673918 42.458869 Q 174.203879 85.931851, 160.079663 97.292790" stroke-width="0.500000" />
<path stroke="#685a08" stroke-opacity="0.501961" fill="none" d="M 192.360059 28.876882 Q 191.751923 84.270486, 196.205860 169.674241" stroke-width="0.500000" />
<path stroke="#662e00" stroke-opacity="0.501961" fill="none" d="M 146.662562 45.006582 Q 214.341740 20.431581, 209.763807 91.890701" stroke-width="0.500000" />
<path stroke="#4e3b00" stroke-opacity="0.501961" fill="none" d="M 153.948714 55.759324 Q 189.779340 95.758037, 220.406223 42.835566" stroke-width="0.500000" />
<path stroke="#785f14" stroke-opacity="0.501961" fill="none" d="M 195.173795 172.502549 Q 209.692786 108.014764, 147.535915 29.767037" stroke-width="0.500000" />
<path stroke="#5e4700" stroke-opacity="0.501961" fill="none" d="M 150.927570 30.575170 Q 139.625989 65.036211, 220.976656 96.762611" stroke-width="0.500000" />
<path stroke="#745300" stroke-opacity="0.501961" fill="none" d="M 152.817781 29.368084 Q 173.277833 53.893885, 192.263594 129.137430" stroke-width="0.500000" />
<path stroke="#4d2400" stroke-opacity="0.501961" fill="none" d="M 180.689395 97.084276 Q 214.055724 40.805817, 180.211285 30.683185" stroke-width="0.500000" />
<path stroke="#440b00" stroke-opacity="0.501961" fill="none" d="M 215.165372 66.673697 Q 185.702744 25.731623, 163.419735 58.584844" stroke-width="0.500000" />
<path stroke="#2e1a00" stroke-opacity="0.501961" fill="none" d="M 161.782018 81.925660 Q 204.357880 52.389284, 186.286359 33.033706" stroke-width="0.500000" />
<path stroke="#392f00" stroke-opacity="0.501961" fill="none" d="M 180.582775 99.684610 Q 165.127698 47.795418, 217.745293 53.894605" stroke-width="0.500000" />
<path stroke="#5a2e00" stroke-opacity="0.501961" fill="none" d="M 149.049108 28.413888 Q 154.381748 91.136963, 218.782169 57.139061" stroke-width="0.500000" />
<path stroke="#443f00" stroke-opacity="0.501961" fill="none" d="M 217.479611 89.202787 Q 158.260530 102.110735, 170.303141 41.309397" stroke-width="0.500000" />
<path stroke="#453e00" stroke-opacity="0.501961" fill="none" d="M 217.940216 90.524086 Q 159.720118 71.889863, 173.498624 36.385274" stroke-width="0.500000" />
<path stroke="#383200" stroke-opacity="0.501961" fill="none" d="M 167.342672 95.123903 Q 225.835775 87.731626, 207.889630 40.242387" stroke-width="0.500000" />
<path stroke="#755d04" stroke-opacity="0.501961" fill="none" d="M 165.325323 103.435226 Q 155.225183 29.685057, 223.358828 54.790464" stroke-width="0.500000" />
<path stroke="#423000" stroke-opacity="0.501961" fill="none" d="M 220.433555 47.127390 Q 191.481261 49.678054, 191.289633 125.751664" stroke-width="0.500000" />
<path stroke="#322900" stroke-opacity="0.501961" fill="none" d="M 184.612250 32.602915 Q 193.115227 104.756781, 222.539204 96.657388" stroke-width="0.500000" />
<path stroke="#595500" stroke-opacity="0.501961" fill="none" d="M 217.987251 47.800157 Q 209.583849 112.500267, 156.461474 88.269769" stroke-width="0.500000" />
<path stroke="#5b3c00" stroke-opacity="0.501961" fill="none" d="M 193.259561 106.948661 Q 149.260422 48.888793, 194.626257 31.864594" stroke-width="0.500000" />
<path stroke="#604300" stroke-opacity="0.501961" fill="none" d="M 162.105122 51.980865 Q 195.065919 34.286526, 221.669001 101.323402" stroke-width="0.500000" />
<path stroke="#444400" stroke-opacity="0.501961" fill="none" d="M 162.839046 98.469987 Q 217.390256 79.796575, 213.200602 43.274421" stroke-width="0.500000" />
<path stroke="#582f00" stroke-opacity="0.501961" fill="none" d="M 214.541300 80.199237 Q 216.045483 75.773890, 146.162515 32.939537" stroke-width="0.500000" />
<path stroke="#505700" stroke-opacity="0.501961" fill="none" d="M 156.089497 96.050139 Q 168.880578 55.400883, 219.347120 57.963232" stroke-width="0.500000" />
<path stroke="#483300" stroke-opacity="0.501961" fill="none" d="M 179.961627 30.346720 Q 189.562800 40.832317, 185.722303 106.037307" stroke-width="0.500000" />
<path stroke="#574e00" stroke-opacity="0.501961" fill="none" d="M 190.407140 29.472481 Q 208.501141 83.526175, 157.125628 96.426152" stroke-width="0.500000" />
<path stroke="#713d00" stroke-opacity="0.501961" fill="none" d="M 146.499159 25.916183 Q 170.114051 78.483585, 221.842209 53.618227" stroke-width="0.500000" />
<path stroke="#594600" stroke-opacity="0.501961" fill="none" d="M 156.834666 29.448748 Q 141.711387 79.632754, 213.087594 93.589024" stroke-width="0.500000" />
<path stroke="#481700" stroke-opacity="0.501961" fill="none" d="M 217.684327 63.008382 Q 200.590385 26.363887, 165.702962 56.654297" stroke-width="0.500000" />
<path stroke="#452b00" stroke-opacity="0.501961" fill="none" d="M 178.655248 29.199029 Q 212.801207 55.111683, 189.783168 100.283571" stroke-width="0.500000" />
<path stroke="#4b3800" stroke-opacity="0.501961" fill="none" d="M 179.340488 100.559154 Q 225.060932 67.324725, 172.271439 31.774746" stroke-width="0.500000" />
<path stroke="#635a00" stroke-opacity="0.501961" fill="none" d="M 184.308035 29.467963 Q 226.637981 74.192463, 158.663297 97.956040" stroke-width="0.500000" />
<path stroke="#393800" stroke-opacity="0.501961" fill="none" d="M 166.917612 99.111494 Q 168.192429 74.160584, 217.309357 60.676437" stroke-width="0.500000" />
<path stroke="#874a00" stroke-opacity="0.501961" fill="none" d="M 154.593855 65.889187 Q 187.285477 17.469921, 218.017021 54.199180" stroke-width="0.500000" />
<path stroke="#5b5300" stroke-opacity="0.501961" fill="none" d="M 220.541830 43.785672 Q 183.362604 63.356495, 156.917854 84.746926" stroke-width="0.500000" />
<path stroke="#4f3700" stroke-opacity="0.501961" fill="none" d="M 213.485721 80.283516 Q 213.137222 73.840625, 145.441571 37.461704" stroke-width="0.500000" />
<path stroke="#4b5100" stroke-opacity="0.501961" fill="none" d="M 157.289647 87.814293 Q 220.333095 103.996898, 208.742476 46.735154" stroke-width="0.500000" />
<path stroke="#3a3200" stroke-opacity="0.501961" fill="none" d="M 164.760626 91.374102 Q 209.860841 85.855279, 180.874017 29.943246" stroke-width="0.500000" />
<path stroke="#674b01" stroke-opacity="0.501961" fill="none" d="M 150.192600 28.914222 Q 178.005106 62.713633, 222.589076 99.189914" stroke-width="0.500000" />
<path stroke="#594600" stroke-opacity="0.501961" fill="none" d="M 146.295840 36.205164 Q 194.558841 92.222787, 218.753464 90.185061" stroke-width="0.500000" />
<path stroke="#454700" stroke-opacity="0.501961" fill="none" d="M 175.084828 42.896755 Q 162.759783 88.984491, 213.056381 89.265775" stroke-width="0.500000" />
<path stroke="#392900" stroke-opacity="0.501961" fill="none" d="M 188.244725 31.296790 Q 187.748861 65.877013, 187.737920 110.076529" stroke-width="0.500000" />
<path stroke="#4f3f00" stroke-opacity="0.501961" fill="none" d="M 217.315651 47.925679 Q 156.345431 57.898429, 192.773103 104.673987" stroke-width="0.500000" />
<path stroke="#4d5300" stroke-opacity="0.501961" fill="none" d="M 169.265276 105.956080 Q 155.720270 78.861018, 220.260934 55.414850" stroke-width="0.500000" />
<path stroke="#272600" stroke-opacity="0.501961" fill="none" d="M 212.956907 49.183911 Q 199.230530 99.817673, 164.549487 71.826819" stroke-width="0.500000" />
<path stroke="#363700" stroke-opacity="0.501961" fill="none" d="M 215.086140 83.727707 Q 205.139191 49.926337, 172.896661 69.577077" stroke-width="0.500000" />
<path stroke="#494200" stroke-opacity="0.501961" fill="none" d="M 217.357361 61.689641 Q 186.528735 46.142397, 159.718509 82.438185" stroke-width="0.500000" />
<path stroke="#522e00" stroke-opacity="0.501961" fill="none" d="M 177.518092 36.135173 Q 194.150368 31.019765, 213.350373 98.369577" stroke-width="0.500000" />
<path stroke="#6c1e01" stroke-opacity="0.501961" fill="none" d="M 196.954294 36.876800 Q 179.534916 62.433892, 146.071694 44.427595" stroke-width="0.500000" />
<path stroke="#675b01" stroke-opacity="0.501961" fill="none" d="M 151.620081 30.346801 Q 168.647244 95.366296, 214.588499 89.506836" stroke-width="0.500000" />
<path stroke="#605409" stroke-opacity="0.501961" fill="none" d="M 219.889905 50.769093 Q 164.488439 62.125284, 193.174041 135.382524" stroke-width="0.500000" />
<path stroke="#461e00" stroke-opacity="0.501961" fill="none" d="M 216.127368 69.521711 Q 205.963648 24.252395, 168.488129 52.976784" stroke-width="0.500000" />
<path stroke="#7c756d" stroke-opacity="0.501961" fill="none" d="M 271.000000 165.053261 Q 220.579467 165.247163, 173.325755 167.875836" stroke-width="0.500000" />
<path stroke="#e8f1ff" stroke-opacity="0.501961" fill="none" d="M 116.424598 148.749754 Q 61.605110 -15.776848, 271.000000 0.099785" stroke-width="0.500000" />
<path stroke="#5b4a00" stroke-opacity="0.501961" fill="none" d="M 197.708542 34.690566 Q 176.840525 95.205771, 223.116608 97.935306" stroke-width="0.500000" />
<path stroke="#6c4c00" stroke-opacity="0.501961" fill="none" d="M 144.365969 34.328652 Q 204.066149 48.614406, 188.268335 109.534502" stroke-width="0.500000" />
<path stroke="#525f00" stroke-opacity="0.501961" fill="none" d="M 155.613690 61.285930 Q 207.783639 83.779313, 220.656846 96.307315" stroke-width="0.500000" />
<path stroke="#626200" stroke-opacity="0.501961" fill="none" d="M 213.121866 40.794697 Q 207.725441 69.198023, 164.364373 105.375343" stroke-width="0.500000" />
<path stroke="#6b5300" stroke-opacity="0.501961" fill="none" d="M 193.159758 28.994779 Q 202.990355 57.177776, 159.539336 84.079377" stroke-width="0.500000" />
<path stroke="#3f3500" stroke-opacity="0.501961" fill="none" d="M 191.585766 30.927197 Q 179.140581 81.147331, 219.343165 97.649185" stroke-width="0.500000" />
<path stroke="#584d00" stroke-opacity="0.501961" fill="none" d="M 191.722593 137.061339 Q 195.413464 105.290853, 182.979003 30.294308" stroke-width="0.500000" />
<path stroke="#775601" stroke-opacity="0.501961" fill="none" d="M 150.192360 33.095222 Q 185.031516 34.855279, 184.428252 98.362389" stroke-width="0.500000" />
<path stroke="#494400" stroke-opacity="0.501961" fill="none" d="M 219.391827 40.641263 Q 212.491327 54.007101, 158.831445 101.003014" stroke-width="0.500000" />
<path stroke="#4e3200" stroke-opacity="0.501961" fill="none" d="M 217.087353 50.438526 Q 211.144236 79.570208, 166.158759 82.270400" stroke-width="0.500000" />
<path stroke="#403200" stroke-opacity="0.501961" fill="none" d="M 181.461405 37.866670 Q 192.393613 65.926135, 214.158888 81.878465" stroke-width="0.500000" />
<path stroke="#634500" stroke-opacity="0.501961" fill="none" d="M 212.744955 84.640819 Q 207.522535 62.393320, 143.644974 42.864101" stroke-width="0.500000" />
<path stroke="#474800" stroke-opacity="0.501961" fill="none" d="M 203.456018 85.103393 Q 156.095337 91.213746, 169.548019 47.703080" stroke-width="0.500000" />
<path stroke="#3d3500" stroke-opacity="0.501961" fill="none" d="M 184.357566 102.469306 Q 167.891376 68.679067, 218.612371 63.142711" stroke-width="0.500000" />
<path stroke="#eff2f2" stroke-opacity="0.501961" fill="none" d="M 49.092119 3.633714 Q 63.525744 125.809595, 187.847851 52.864780" stroke-width="0.500000" />
<path stroke="#403300" stroke-opacity="0.501961" fill="none" d="M 181.932234 101.155656 Q 167.950171 74.200617, 217.616301 50.015655" stroke-width="0.500000" />
<path stroke="#4c3400" stroke-opacity="0.501961" fill="none" d="M 208.962942 41.626685 Q 210.556769 74.574988, 168.981084 64.861324" stroke-width="0.500000" />
<path stroke="#623406" stroke-opacity="0.501961" fill="none" d="M 224.405185 60.849840 Q 177.687373 30.549480, 165.159265 54.989140" stroke-width="0.500000" />
<path stroke="#592200" stroke-opacity="0.501961" fill="none" d="M 147.602556 30.989810 Q 161.159268 48.770124, 154.170304 67.988868" stroke-width="0.500000" />
<path stroke="#4a2900" stroke-opacity="0.501961" fill="none" d="M 215.428826 82.453450 Q 185.290598 49.401656, 185.654390 29.495571" stroke-width="0.500000" />
<path stroke="#637501" stroke-opacity="0.501961" fill="none" d="M 157.945172 104.970370 Q 155.321167 59.741948, 218.677267 60.992303" stroke-width="0.500000" />
<path stroke="#695901" stroke-opacity="0.501961" fill="none" d="M 164.805513 97.291412 Q 199.816333 102.080098, 193.133993 31.000820" stroke-width="0.500000" />
<path stroke="#491f00" stroke-opacity="0.501961" fill="none" d="M 201.899283 42.133755 Q 187.359315 32.791158, 168.287266 56.212133" stroke-width="0.500000" />
<path stroke="#837e77" stroke-opacity="0.501961" fill="none" d="M 170.032438 166.432280 Q 267.947702 171.951121, 271.000000 141.414349" stroke-width="0.500000" />
<path stroke="#e8f0fe" stroke-opacity="0.501961" fill="none" d="M 73.845103 146.893982 Q 26.582809 -16.000000, 244.409800 6.872369" stroke-width="0.500000" />
<path stroke="#5a5100" stroke-opacity="0.501961" fill="none" d="M 171.416482 42.124812 Q 157.786296 64.125004, 219.338760 92.794296" stroke-width="0.500000" />
<path stroke="#630c0f" stroke-opacity="0.501961" fill="none" d="M 161.823276 31.305653 Q 157.203832 43.234553, 149.519098 53.161113" stroke-width="0.500000" />
<path stroke="#e7effd" stroke-opacity="0.501961" fill="none" d="M 78.667644 159.276075 Q 25.766547 -16.000000, 245.768261 8.479244" stroke-width="0.500000" />
<path stroke="#2a0d00" stroke-opacity="0.501961" fill="none" d="M 215.540303 79.473430 Q 197.968401 68.503736, 216.774349 53.110188" stroke-width="0.500000" />
<path stroke="#747700" stroke-opacity="0.501961" fill="none" d="M 158.897050 96.474095 Q 210.712634 86.850000, 207.322219 40.865157" stroke-width="0.500000" />
<path stroke="#e8ebf0" stroke-opacity="0.501961" fill="none" d="M 185.357851 51.023979 Q 32.799984 166.830494, 5.779059 -15.065586" stroke-width="0.500000" />
<path stroke="#830413" stroke-opacity="0.501961" fill="none" d="M 160.770190 31.107274 Q 141.653453 35.684302, 151.524557 50.872551" stroke-width="0.500000" />
<path stroke="#4a3700" stroke-opacity="0.501961" fill="none" d="M 192.339593 30.098334 Q 185.475438 79.155400, 191.590122 107.533091" stroke-width="0.500000" />
<path stroke="#e6effe" stroke-opacity="0.501961" fill="none" d="M 10.481031 6.237727 Q 172.338197 -16.000000, 155.994582 158.734777" stroke-width="0.500000" />
<path stroke="#e7f1ff" stroke-opacity="0.501961" fill="none" d="M 4.964112 8.721902 Q 178.870144 -16.000000, 117.662796 158.055953" stroke-width="0.500000" />
<path stroke="#e6effd" stroke-opacity="0.501961" fill="none" d="M 253.264519 17.317387 Q 43.860237 -16.000000, 88.740596 158.120917" stroke-width="0.500000" />
<path stroke="#e6eefd" stroke-opacity="0.501961" fill="none" d="M 254.535905 10.751741 Q 39.323953 -16.000000, 74.853051 140.306544" stroke-width="0.500000" />
<path stroke="#505300" stroke-opacity="0.501961" fill="none" d="M 214.827717 79.081596 Q 189.030101 41.264175, 167.387191 78.079208" stroke-width="0.500000" />
<path stroke="#e8eaec" stroke-opacity="0.501961" fill="none" d="M 25.583094 113.612029 Q 170.364148 162.995693, 165.264640 -6.381542" stroke-width="0.500000" />
<path stroke="#e5eefd" stroke-opacity="0.501961" fill="none" d="M 266.258350 22.269329 Q 51.031352 -16.000000, 92.626248 160.941297" stroke-width="0.500000" />
<path stroke="#3b4a00" stroke-opacity="0.501961" fill="none" d="M 214.748831 83.027141 Q 196.429896 58.874203, 165.774686 68.268877" stroke-width="0.500000" />
<path stroke="#4e3c00" stroke-opacity="0.501961" fill="none" d="M 186.082720 30.572233 Q 209.170925 81.065902, 187.612986 102.238574" stroke-width="0.500000" />
<path stroke="#493d00" stroke-opacity="0.501961" fill="none" d="M 193.080430 32.823099 Q 175.710151 73.546618, 185.410031 103.946071" stroke-width="0.500000" />
<path stroke="#e8f0fe" stroke-opacity="0.501961" fill="none" d="M 225.323780 3.673053 Q 26.662924 -16.000000, 68.333586 136.609720" stroke-width="0.500000" />
<path stroke="#e8e9ec" stroke-opacity="0.501961" fill="none" d="M 180.539536 17.854501 Q 94.400800 167.989099, -0.037406 24.558735" stroke-width="0.500000" />
<path stroke="#443200" stroke-opacity="0.501961" fill="none" d="M 191.454154 105.783451 Q 197.055283 57.615044, 179.835806 31.372283" stroke-width="0.500000" />
<path stroke="#e5effd" stroke-opacity="0.501961" fill="none" d="M 133.208717 157.216743 Q 196.358950 -16.000000, 3.140974 3.366164" stroke-width="0.500000" />
<path stroke="#723110" stroke-opacity="0.501961" fill="none" d="M 199.175175 40.779010 Q 156.882221 69.784929, 147.883481 33.100674" stroke-width="0.500000" />
<path stroke="#e8f1ff" stroke-opacity="0.501961" fill="none" d="M 116.971770 154.658212 Q 172.028025 -2.015155, 17.309910 8.460795" stroke-width="0.500000" />
<path stroke="#435600" stroke-opacity="0.501961" fill="none" d="M 221.965755 98.561897 Q 195.740475 79.119118, 166.318836 77.179762" stroke-width="0.500000" />
<path stroke="#e7f0fd" stroke-opacity="0.501961" fill="none" d="M 205.743048 7.899769 Q 25.368105 16.132581, 88.087711 158.612629" stroke-width="0.500000" />
<path stroke="#1a0c00" stroke-opacity="0.501961" fill="none" d="M 213.666763 85.045372 Q 203.406704 75.468089, 213.771046 46.870749" stroke-width="0.500000" />
<path stroke="#e6effe" stroke-opacity="0.501961" fill="none" d="M 112.575691 157.248928 Q 59.336307 -9.289420, 239.221332 22.807176" stroke-width="0.500000" />
<path stroke="#8f8a84" stroke-opacity="0.501961" fill="none" d="M 164.927098 160.316107 Q 174.520869 173.653808, 259.778722 159.558639" stroke-width="0.500000" />
<path stroke="#802e15" stroke-opacity="0.501961" fill="none" d="M 176.341356 34.383663 Q 221.535548 36.736925, 212.766285 66.168101" stroke-width="0.500000" />
<path stroke="#680005" stroke-opacity="0.501961" fill="none" d="M 150.394355 53.121799 Q 163.206704 36.768309, 153.873992 30.097368" stroke-width="0.500000" />
<path stroke="#ebf0f3" stroke-opacity="0.501961" fill="none" d="M 185.254441 55.395576 Q 56.419334 134.569131, 44.565528 -16.000000" stroke-width="0.500000" />
<path stroke="#504d01" stroke-opacity="0.501961" fill="none" d="M 184.903801 33.342066 Q 189.413152 101.827168, 221.893970 98.061106" stroke-width="0.500000" />
<path stroke="#4a4d00" stroke-opacity="0.501961" fill="none" d="M 169.912006 48.888366 Q 171.664901 82.529955, 218.031968 92.127615" stroke-width="0.500000" />
<path stroke="#494600" stroke-opacity="0.501961" fill="none" d="M 218.671292 45.517928 Q 163.950728 90.713536, 166.398246 104.900485" stroke-width="0.500000" />
<path stroke="#e5eefc" stroke-opacity="0.501961" fill="none" d="M 76.690370 152.704632 Q 52.072571 -16.000000, 271.000000 20.653041" stroke-width="0.500000" />
<path stroke="#e7effd" stroke-opacity="0.501961" fill="none" d="M 67.241942 150.556155 Q 20.386442 -16.000000, 188.514966 3.950039" stroke-width="0.500000" />
<path stroke="#8f7116" stroke-opacity="0.501961" fill="none" d="M 158.909442 87.017260 Q 161.891633 80.230313, 186.755815 30.777999" stroke-width="0.500000" />
<path stroke="#e7f1fe" stroke-opacity="0.501961" fill="none" d="M 9.145889 13.391666 Q 177.648058 1.027151, 105.588597 156.976776" stroke-width="0.500000" />
<path stroke="#edece4" stroke-opacity="0.501961" fill="none" d="M 187.565091 54.664155 Q 107.925265 75.630022, 25.573366 94.297739" stroke-width="0.500000" />
<path stroke="#692203" stroke-opacity="0.501961" fill="none" d="M 155.608830 30.794447 Q 158.826563 57.963132, 191.335662 46.333464" stroke-width="0.500000" />
<path stroke="#e4ecf9" stroke-opacity="0.501961" fill="none" d="M 55.838811 156.062416 Q 34.368310 -16.000000, 254.946105 36.168540" stroke-width="0.500000" />
<path stroke="#e6effd" stroke-opacity="0.501961" fill="none" d="M -5.856643 17.809310 Q 130.773921 -4.556609, 152.670944 154.203727" stroke-width="0.500000" />
<path stroke="#e6effc" stroke-opacity="0.501961" fill="none" d="M 4.659458 12.635413 Q 177.399591 -7.786849, 110.486292 159.035984" stroke-width="0.500000" />
<path stroke="#e4ecfa" stroke-opacity="0.501961" fill="none" d="M 85.094349 185.000000 Q 2.982267 -16.000000, 233.799386 4.655788" stroke-width="0.500000" />
<path stroke="#4f6500" stroke-opacity="0.501961" fill="none" d="M 214.085263 90.247774 Q 202.711397 76.958724, 160.366852 91.887967" stroke-width="0.500000" />
<path stroke="#e7effd" stroke-opacity="0.501961" fill="none" d="M 147.151781 155.103223 Q 176.854967 -16.000000, 35.653313 3.698020" stroke-width="0.500000" />
<path stroke="#e7f0fd" stroke-opacity="0.501961" fill="none" d="M 183.750114 8.084555 Q 37.083681 14.725869, 110.312141 158.296839" stroke-width="0.500000" />
<path stroke="#948f88" stroke-opacity="0.501961" fill="none" d="M 109.119994 185.000000 Q 244.521875 148.384940, 271.000000 166.102519" stroke-width="0.500000" />
<path stroke="#672e00" stroke-opacity="0.501961" fill="none" d="M 205.612611 76.800930 Q 210.323297 51.667075, 172.475665 33.956235" stroke-width="0.500000" />
<path stroke="#8f8b85" stroke-opacity="0.501961" fill="none" d="M 169.024947 166.587697 Q 191.346633 167.311923, 261.865771 167.075742" stroke-width="0.500000" />
<path stroke="#540001" stroke-opacity="0.501961" fill="none" d="M 151.092729 50.352579 Q 145.925964 37.860733, 158.041028 33.792856" stroke-width="0.500000" />
<path stroke="#727805" stroke-opacity="0.501961" fill="none" d="M 156.906637 84.302124 Q 187.479721 66.332438, 216.107280 40.592003" stroke-width="0.500000" />
<path stroke="#e6ebec" stroke-opacity="0.501961" fill="none" d="M 6.948683 21.967455 Q 121.456005 158.210062, 184.152010 46.365016" stroke-width="0.500000" />
<path stroke="#726c3a" stroke-opacity="0.501961" fill="none" d="M 173.945056 143.899431 Q 172.290114 156.838787, 176.606210 185.000000" stroke-width="0.500000" />
<path stroke="#e4eefb" stroke-opacity="0.501961" fill="none" d="M -16.000000 19.489284 Q 142.715986 -16.000000, 168.178586 156.079184" stroke-width="0.500000" />
<path stroke="#4a4700" stroke-opacity="0.501961" fill="none" d="M 201.375650 91.388171 Q 153.957461 87.378794, 174.131451 45.024944" stroke-width="0.500000" />
<path stroke="#e5e7e5" stroke-opacity="0.501961" fill="none" d="M 13.438439 149.460938 Q 190.419415 60.555233, 183.027321 44.355406" stroke-width="0.500000" />
<path stroke="#e6eefc" stroke-opacity="0.501961" fill="none" d="M -3.702956 20.457089 Q 133.875290 -5.255711, 130.290275 158.773433" stroke-width="0.500000" />
<path stroke="#e5edfb" stroke-opacity="0.501961" fill="none" d="M 257.152750 30.203975 Q 67.683878 -16.000000, 94.051030 147.144802" stroke-width="0.500000" />
<path stroke="#5a4800" stroke-opacity="0.501961" fill="none" d="M 188.935877 98.184960 Q 218.076800 42.477498, 173.559871 35.463535" stroke-width="0.500000" />
<path stroke="#e3ebf8" stroke-opacity="0.501961" fill="none" d="M 257.121888 15.439891 Q 37.800711 -13.220251, 96.621619 185.000000" stroke-width="0.500000" />
<path stroke="#e5eefc" stroke-opacity="0.501961" fill="none" d="M 29.197353 5.765135 Q 186.917859 6.074766, 130.429735 159.214563" stroke-width="0.500000" />
<path stroke="#e0e8f6" stroke-opacity="0.501961" fill="none" d="M 264.169117 90.458719 Q 50.524219 160.069055, 40.205598 -7.179528" stroke-width="0.500000" />
<path stroke="#a75210" stroke-opacity="0.501961" fill="none" d="M 162.886222 65.045933 Q 173.502659 26.686465, 195.880042 39.550536" stroke-width="0.500000" />
<path stroke="#e6effc" stroke-opacity="0.501961" fill="none" d="M 126.242365 154.501629 Q 124.065059 -10.276161, -8.375052 24.713150" stroke-width="0.500000" />
<path stroke="#e5edfa" stroke-opacity="0.501961" fill="none" d="M 104.227661 148.166214 Q 78.340326 -16.000000, 250.678989 27.645554" stroke-width="0.500000" />
<path stroke="#2a0700" stroke-opacity="0.501961" fill="none" d="M 214.693521 78.582942 Q 202.889983 72.612418, 217.643484 45.762330" stroke-width="0.500000" />
<path stroke="#d89d3d" stroke-opacity="0.501961" fill="none" d="M 153.960447 68.107691 Q 175.790631 23.411445, 197.957791 32.607773" stroke-width="0.500000" />
<path stroke="#ebe9e8" stroke-opacity="0.501961" fill="none" d="M 184.308308 12.006503 Q 138.300943 119.572844, 17.911636 21.668549" stroke-width="0.500000" />
<path stroke="#e4ecf8" stroke-opacity="0.501961" fill="none" d="M 202.374299 4.381643 Q 6.921150 -16.000000, 79.711896 178.057781" stroke-width="0.500000" />
<path stroke="#863f14" stroke-opacity="0.501961" fill="none" d="M 177.999857 37.409977 Q 194.509209 32.203396, 215.586154 69.070581" stroke-width="0.500000" />
<path stroke="#5b3e01" stroke-opacity="0.501961" fill="none" d="M 189.684368 103.942442 Q 185.614115 76.431585, 196.073313 29.690914" stroke-width="0.500000" />
<path stroke="#e4eefb" stroke-opacity="0.501961" fill="none" d="M 3.365915 23.996777 Q 175.353302 26.619065, 152.600212 157.399485" stroke-width="0.500000" />
<path stroke="#516900" stroke-opacity="0.501961" fill="none" d="M 218.949286 98.761984 Q 186.697114 83.778177, 166.271330 64.447260" stroke-width="0.500000" />
<path stroke="#3d4c00" stroke-opacity="0.501961" fill="none" d="M 208.833779 85.734332 Q 185.449509 96.584383, 168.653371 73.128675" stroke-width="0.500000" />
<path stroke="#e5edfb" stroke-opacity="0.501961" fill="none" d="M 151.616451 160.908375 Q 165.727383 -15.550463, 27.761958 5.839580" stroke-width="0.500000" />
<path stroke="#e4ebf9" stroke-opacity="0.501961" fill="none" d="M 269.290756 0.498959 Q 43.647384 -2.095480, 103.406165 158.120867" stroke-width="0.500000" />
<path stroke="#e3edfa" stroke-opacity="0.501961" fill="none" d="M 159.155006 3.816455 Q 23.728812 -16.000000, 54.582031 155.744682" stroke-width="0.500000" />
<path stroke="#e7e7e8" stroke-opacity="0.501961" fill="none" d="M 29.201239 119.447494 Q 198.813982 121.648076, 152.736917 -5.722998" stroke-width="0.500000" />
<path stroke="#e5eefb" stroke-opacity="0.501961" fill="none" d="M 181.768787 139.484208 Q 91.883912 18.596410, -6.977268 25.699541" stroke-width="0.500000" />
<path stroke="#e4edfb" stroke-opacity="0.501961" fill="none" d="M -10.473971 23.884196 Q 140.989821 -16.000000, 133.778191 149.150634" stroke-width="0.500000" />
<path stroke="#e6effb" stroke-opacity="0.501961" fill="none" d="M 104.745069 151.154673 Q 16.373010 25.425563, 172.668722 3.744945" stroke-width="0.500000" />
<path stroke="#481901" stroke-opacity="0.501961" fill="none" d="M 177.536764 50.397686 Q 151.734464 58.005845, 150.258834 35.467497" stroke-width="0.500000" />
<path stroke="#3d3d00" stroke-opacity="0.501961" fill="none" d="M 164.209585 69.466763 Q 195.291958 66.702594, 220.819718 53.336652" stroke-width="0.500000" />
<path stroke="#311100" stroke-opacity="0.501961" fill="none" d="M 210.662480 81.049119 Q 199.377316 72.985952, 218.317736 43.373487" stroke-width="0.500000" />
<path stroke="#e4ecf9" stroke-opacity="0.501961" fill="none" d="M 234.186322 31.179730 Q 45.582493 -15.199606, 81.747756 152.930679" stroke-width="0.500000" />
<path stroke="#5b5300" stroke-opacity="0.501961" fill="none" d="M 215.477139 40.402235 Q 196.639960 88.236355, 163.187510 91.213066" stroke-width="0.500000" />
<path stroke="#e1e9f8" stroke-opacity="0.501961" fill="none" d="M 50.088895 5.483209 Q 245.378819 -16.000000, 248.035535 120.053392" stroke-width="0.500000" />
<path stroke="#5c7a01" stroke-opacity="0.501961" fill="none" d="M 167.223036 106.179033 Q 178.893459 65.920904, 213.935799 92.221778" stroke-width="0.500000" />
<path stroke="#e5eefb" stroke-opacity="0.501961" fill="none" d="M 2.561380 26.805517 Q 91.344225 28.605206, 181.526407 140.572546" stroke-width="0.500000" />
<path stroke="#413d00" stroke-opacity="0.501961" fill="none" d="M 217.634642 62.707871 Q 177.832536 57.992263, 174.959150 72.121644" stroke-width="0.500000" />
<path stroke="#e0ebfc" stroke-opacity="0.501961" fill="none" d="M 238.312095 95.871564 Q 198.685794 83.782426, 200.777059 72.331397" stroke-width="0.500000" />
<path stroke="#e5edfa" stroke-opacity="0.501961" fill="none" d="M 12.033867 8.529487 Q 172.330795 -5.985217, 125.358074 151.580819" stroke-width="0.500000" />
<path stroke="#e4eaec" stroke-opacity="0.501961" fill="none" d="M 13.373316 8.362818 Q 106.742224 148.479562, 185.146171 52.105238" stroke-width="0.500000" />
<path stroke="#8d8985" stroke-opacity="0.501961" fill="none" d="M 262.482117 157.344123 Q 179.777953 172.169980, 176.829381 164.993802" stroke-width="0.500000" />
<path stroke="#fff9b7" stroke-opacity="0.501961" fill="none" d="M 166.814833 62.026774 Q 189.735340 59.955928, 177.507453 40.633769" stroke-width="0.500000" />
<path stroke="#5d0b12" stroke-opacity="0.501961" fill="none" d="M 160.924255 32.372381 Q 145.965671 32.385794, 152.713845 52.296066" stroke-width="0.500000" />
<path stroke="#aca8ab" stroke-opacity="0.501961" fill="none" d="M -16.000000 160.560040 Q 243.577039 164.188580, 268.427533 156.137922" stroke-width="0.500000" />
<path stroke="#8a8870" stroke-opacity="0.501961" fill="none" d="M 186.142432 98.471559 Q 208.699325 137.715648, 193.332206 174.708173" stroke-width="0.500000" />
<path stroke="#e2ebf7" stroke-opacity="0.501961" fill="none" d="M 162.097143 158.356412 Q 163.876616 -14.795875, -11.673328 38.432018" stroke-width="0.500000" />
<path stroke="#e1eaf7" stroke-opacity="0.501961" fill="none" d="M 268.386148 14.321771 Q 44.464953 -16.000000, 91.194592 157.391680" stroke-width="0.500000" />
<path stroke="#505c00" stroke-opacity="0.501961" fill="none" d="M 195.665988 94.296841 Q 160.524266 83.950920, 186.252598 56.568259" stroke-width="0.500000" />
<path stroke="#e5edfa" stroke-opacity="0.501961" fill="none" d="M 58.890306 147.799048 Q 33.432826 -16.000000, 183.963995 6.738057" stroke-width="0.500000" />
<path stroke="#e2e9f5" stroke-opacity="0.501961" fill="none" d="M 271.000000 42.307228 Q 36.693448 -16.000000, 35.013290 121.453997" stroke-width="0.500000" />
<path stroke="#e7effb" stroke-opacity="0.501961" fill="none" d="M 181.826691 140.861264 Q 32.763457 65.186405, 88.076194 -8.113732" stroke-width="0.500000" />
<path stroke="#565700" stroke-opacity="0.501961" fill="none" d="M 217.503284 49.974322 Q 165.857609 65.461224, 158.891811 84.466558" stroke-width="0.500000" />
<path stroke="#913a19" stroke-opacity="0.501961" fill="none" d="M 197.445768 31.217684 Q 156.111151 62.712316, 146.200363 40.225496" stroke-width="0.500000" />
<path stroke="#e3ecf9" stroke-opacity="0.501961" fill="none" d="M 151.881696 149.247673 Q 153.043386 0.810039, -5.079609 50.418314" stroke-width="0.500000" />
<path stroke="#383900" stroke-opacity="0.501961" fill="none" d="M 181.407705 102.628785 Q 180.864129 58.675779, 219.464765 58.251764" stroke-width="0.500000" />
<path stroke="#e0e7f6" stroke-opacity="0.501961" fill="none" d="M 49.443066 16.461691 Q 263.815777 -12.260050, 250.682013 134.682504" stroke-width="0.500000" />
<path stroke="#dfe7f5" stroke-opacity="0.501961" fill="none" d="M 33.354455 151.234612 Q 7.183691 -16.000000, 271.000000 23.679304" stroke-width="0.500000" />
<path stroke="#e4ecf9" stroke-opacity="0.501961" fill="none" d="M 177.676021 100.206096 Q 116.540266 157.514779, 19.026099 -7.018677" stroke-width="0.500000" />
<path stroke="#e4ecfa" stroke-opacity="0.501961" fill="none" d="M -3.597181 44.894171 Q 139.715790 28.050092, 127.068511 159.146623" stroke-width="0.500000" />
<path stroke="#dfe7f6" stroke-opacity="0.501961" fill="none" d="M 11.335352 3.691722 Q 271.000000 -8.998585, 255.076331 127.061270" stroke-width="0.500000" />
<path stroke="#f9c685" stroke-opacity="0.501961" fill="none" d="M 189.057267 27.728274 Q 150.322705 41.509781, 161.878007 65.476547" stroke-width="0.500000" />
<path stroke="#e5edfa" stroke-opacity="0.501961" fill="none" d="M 94.219759 151.636538 Q 179.002152 32.216033, 32.019709 13.203730" stroke-width="0.500000" />
<path stroke="#e5eaf2" stroke-opacity="0.501961" fill="none" d="M 2.270249 34.547665 Q 87.102429 163.948382, 171.141043 57.297978" stroke-width="0.500000" />
<path stroke="#5e1f00" stroke-opacity="0.501961" fill="none" d="M 147.688635 37.173051 Q 176.527112 43.102022, 174.291933 55.816042" stroke-width="0.500000" />
<path stroke="#e3ecf8" stroke-opacity="0.501961" fill="none" d="M 5.896726 40.680629 Q 126.818315 -12.869990, 143.548650 153.898152" stroke-width="0.500000" />
<path stroke="#aca8a8" stroke-opacity="0.501961" fill="none" d="M 271.000000 163.641097 Q 247.493169 159.954866, 51.757004 160.509755" stroke-width="0.500000" />
<path stroke="#e4edfa" stroke-opacity="0.501961" fill="none" d="M 10.798894 21.716417 Q 129.301612 4.539677, 107.969859 150.930706" stroke-width="0.500000" />
<path stroke="#641900" stroke-opacity="0.501961" fill="none" d="M 220.334376 47.574440 Q 214.589805 62.069456, 201.727958 70.785146" stroke-width="0.500000" />
<path stroke="#e1eaf7" stroke-opacity="0.501961" fill="none" d="M 3.439113 5.716796 Q 197.968674 13.621505, 136.353592 155.794705" stroke-width="0.500000" />
<path stroke="#e4ecf9" stroke-opacity="0.501961" fill="none" d="M 132.045226 147.225795 Q 139.056151 0.266872, -1.559698 55.079582" stroke-width="0.500000" />
<path stroke="#e0e8f4" stroke-opacity="0.501961" fill="none" d="M 265.980004 34.543074 Q 31.215056 -16.000000, 44.518069 153.896378" stroke-width="0.500000" />
<path stroke="#d5a251" stroke-opacity="0.501961" fill="none" d="M 153.456796 70.887099 Q 172.445827 18.517523, 197.888220 34.512370" stroke-width="0.500000" />
<path stroke="#e4ecf8" stroke-opacity="0.501961" fill="none" d="M 221.628738 9.034338 Q 38.163658 -2.235439, 113.165393 160.593756" stroke-width="0.500000" />
<path stroke="#e3ebf8" stroke-opacity="0.501961" fill="none" d="M 117.987337 159.533947 Q 196.393849 21.694401, 26.462807 8.753946" stroke-width="0.500000" />
<path stroke="#e2eaf8" stroke-opacity="0.501961" fill="none" d="M 157.468996 158.671954 Q 185.428457 90.884828, -16.000000 24.200401" stroke-width="0.500000" />
<path stroke="#8a7b40" stroke-opacity="0.501961" fill="none" d="M 195.135116 27.108026 Q 157.877730 185.000000, 270.325276 184.326344" stroke-width="0.500000" />
<path stroke="#fec76a" stroke-opacity="0.501961" fill="none" d="M 178.895843 40.337222 Q 186.379538 55.123428, 161.271526 62.620769" stroke-width="0.500000" />
<path stroke="#451d06" stroke-opacity="0.501961" fill="none" d="M 200.488589 32.782769 Q 186.174357 43.857563, 167.759646 51.357273" stroke-width="0.500000" />
<path stroke="#4d4900" stroke-opacity="0.501961" fill="none" d="M 193.640686 96.524011 Q 206.768493 66.797517, 183.525593 48.487521" stroke-width="0.500000" />
<path stroke="#e3ebf7" stroke-opacity="0.501961" fill="none" d="M 174.283647 0.619621 Q 10.255018 -6.288152, 67.577171 155.945563" stroke-width="0.500000" />
<path stroke="#847d4d" stroke-opacity="0.501961" fill="none" d="M 163.060357 185.000000 Q 176.159466 185.000000, 174.102481 143.823588" stroke-width="0.500000" />
<path stroke="#e6eef9" stroke-opacity="0.501961" fill="none" d="M 76.885720 -2.631989 Q 38.691060 132.540967, 183.359245 113.548556" stroke-width="0.500000" />
<path stroke="#dfe7f4" stroke-opacity="0.501961" fill="none" d="M 249.250774 129.071467 Q 33.009978 165.807717, 52.861633 12.756886" stroke-width="0.500000" />
<path stroke="#dee6f4" stroke-opacity="0.501961" fill="none" d="M 258.827057 3.859111 Q 18.662074 -16.000000, 15.990683 134.492061" stroke-width="0.500000" />
<path stroke="#56730a" stroke-opacity="0.501961" fill="none" d="M 201.342952 82.422516 Q 171.684960 108.505142, 160.660049 84.254571" stroke-width="0.500000" />
<path stroke="#dbe8f4" stroke-opacity="0.501961" fill="none" d="M 224.316267 87.581404 Q 208.076442 88.817697, 199.690903 69.338910" stroke-width="0.500000" />
<path stroke="#475600" stroke-opacity="0.501961" fill="none" d="M 164.286535 73.520754 Q 198.207576 80.266751, 220.177820 95.650626" stroke-width="0.500000" />
<path stroke="#e4ecf8" stroke-opacity="0.501961" fill="none" d="M 183.052575 134.910667 Q 9.371265 132.916885, 83.889162 -10.677367" stroke-width="0.500000" />
<path stroke="#4b3b00" stroke-opacity="0.501961" fill="none" d="M 216.779954 45.501002 Q 205.250516 49.439900, 185.558703 102.737312" stroke-width="0.500000" />
<path stroke="#e3ebf8" stroke-opacity="0.501961" fill="none" d="M 108.419452 148.404944 Q 145.210098 9.253091, -11.564243 30.530808" stroke-width="0.500000" />
<path stroke="#642510" stroke-opacity="0.501961" fill="none" d="M 151.604184 30.837650 Q 157.656840 47.272555, 156.110748 63.499230" stroke-width="0.500000" />
<path stroke="#4f1500" stroke-opacity="0.501961" fill="none" d="M 207.292008 44.605636 Q 212.483854 46.694324, 215.495617 66.714055" stroke-width="0.500000" />
<path stroke="#dbe3f0" stroke-opacity="0.501961" fill="none" d="M 255.223705 56.526582 Q 196.495004 185.000000, -16.000000 51.876806" stroke-width="0.500000" />
<path stroke="#e7e6e9" stroke-opacity="0.501961" fill="none" d="M 182.778494 -16.000000 Q 163.498978 127.190007, 14.842056 34.714972" stroke-width="0.500000" />
<path stroke="#273f00" stroke-opacity="0.501961" fill="none" d="M 180.761956 61.664760 Q 183.245251 72.118327, 192.174356 96.682278" stroke-width="0.500000" />
<path stroke="#e3ebf7" stroke-opacity="0.501961" fill="none" d="M 162.109492 154.023260 Q 13.660453 99.149514, 132.492948 -1.106473" stroke-width="0.500000" />
<path stroke="#dfe8f3" stroke-opacity="0.501961" fill="none" d="M 9.993180 78.881019 Q 124.770113 185.000000, 165.685089 63.334591" stroke-width="0.500000" />
<path stroke="#e4ecf8" stroke-opacity="0.501961" fill="none" d="M 124.842303 159.679880 Q 127.455755 23.314368, 12.036805 56.789183" stroke-width="0.500000" />
<path stroke="#565115" stroke-opacity="0.501961" fill="none" d="M 193.239704 145.892078 Q 195.133742 117.495385, 187.167912 34.953618" stroke-width="0.500000" />
<path stroke="#330200" stroke-opacity="0.501961" fill="none" d="M 167.779858 54.628984 Q 178.406811 57.829276, 176.958152 46.376965" stroke-width="0.500000" />
<path stroke="#dee5f0" stroke-opacity="0.501961" fill="none" d="M 66.164418 -16.000000 Q 59.424574 166.087382, 269.286617 83.113944" stroke-width="0.500000" />
<path stroke="#e0eaef" stroke-opacity="0.501961" fill="none" d="M 178.905223 89.518867 Q 77.956156 21.487560, 46.576528 135.709395" stroke-width="0.500000" />
<path stroke="#dde5f1" stroke-opacity="0.501961" fill="none" d="M 245.495423 95.647351 Q 103.612420 185.000000, 23.430897 20.713572" stroke-width="0.500000" />
<path stroke="#502700" stroke-opacity="0.501961" fill="none" d="M 217.017770 42.196255 Q 199.549275 73.784207, 208.075565 79.409407" stroke-width="0.500000" />
<path stroke="#e4e8f2" stroke-opacity="0.501961" fill="none" d="M 89.020866 144.166633 Q 98.280989 -16.000000, 240.457127 39.597391" stroke-width="0.500000" />
<path stroke="#483c00" stroke-opacity="0.501961" fill="none" d="M 218.177016 48.603173 Q 199.918522 51.897228, 180.459894 95.911043" stroke-width="0.500000" />
<path stroke="#e3ebf7" stroke-opacity="0.501961" fill="none" d="M 107.397514 143.829611 Q 60.182523 -16.000000, 223.093707 19.384926" stroke-width="0.500000" />
<path stroke="#2b1d00" stroke-opacity="0.501961" fill="none" d="M 215.173617 47.754136 Q 199.969196 79.599441, 212.952268 82.956147" stroke-width="0.500000" />
</g>
</svg>