<svg height="680" width="1024" xmlns="http://www.w3.org/2000/svg"><path d="m0 0h1024v680h-1024z" fill="#cccfd1"/><g fill="none" stroke-opacity=".501961" stroke-width=".5" transform="matrix(4 0 0 4 2 2)"><path d="m193.715855 139.683923q-4.832871-103.538205-1.388813-106.161718" stroke="#090000"/><path d="m187.243164 127.879996q1.367279-11.377464.550687-106.467619" stroke="#140000"/><path d="m154.817133 95.983167q60.491308-20.928223 62.038526-57.413478" stroke="#030000"/><path d="m185.168364 110.319938q27.353801-42.146175-37.028393-74.600821" stroke="#0f0000"/><path d="m174.578668 36.095785q37.648802 7.598053 14.899219 70.760522" stroke="#000"/><path d="m157.656705 103.371712q48.264178-46.559855 64.789028-63.301881" stroke="#050000"/><path d="m189.521535 25.223575q-1.041673 22.110686.244876 97.254193" stroke="#090000"/><path d="m223.528525 99.562625q-40.062343-5.727123-37.389192-71.014774" stroke="#040000"/><path d="m192.276155 122.045667q-34.512782-69.754797 28.593831-72.348585" stroke="#1c0700"/><path d="m219.22288 100.543808q-29.835669-83.76385-70.747501-59.040332" stroke="#2b0100"/><path d="m145.862647 27.529509q27.675377 69.446242 78.286435 17.527598" stroke="#380700"/><path d="m163.472818 89.432431q50.637284 18.207704 47.777169-50.559976" stroke="#040000"/><path d="m219.796115 91.665783q-59.76609 1.732925-70.351334-62.661893" stroke="#2d0e00"/><path d="m178.427355 33.762633q44.777106 26.37596-3.519599 69.684494" stroke="#130000"/><path d="m222.736213 104.413044q-67.524481-67.637658-74.529412-74.683648" stroke="#3b1200"/><path d="m181.245972 99.666147q36.079292-13.040916-2.634069-72.424224" stroke="#080000"/><path d="m218.083596 52.33114q-63.752357 7.652473-26.70776 58.373047" stroke="#080000"/><path d="m179.428271 106.139693q38.848261-35.30368-29.59761-71.069945" stroke="#2a0a00"/><path d="m147.62337 29.594647q9.135543 62.591626 67.988639 23.454013" stroke="#2f0000"/><path d="m159.875728 94.917746q44.865391-11.890841 58.464024-49.787343" stroke="#0b0200"/><path d="m146.326508 42.974051q70.577267 21.264035 67.486802 53.884287" stroke="#2b0b00"/><path d="m197.855654 32.723332q-25.308917 7.078922-1.087231 114.284211" stroke="#3c2700"/><path d="m156.766966 27.127237q-21.143185 33.073889 59.070425 63.964031" stroke="#371c00"/><path d="m222.177616 55.831128q-57.407912-1.074675-34.844247 47.958167" stroke="#190800"/><path d="m173.970417 42.282903q-17.60766 25.69735 46.99954 53.810056" stroke="#190d00"/><path d="m211.81164 99.427003q8.501743-59.204739-62.041327-56.51559" stroke="#511600"/><path d="m197.251445 169.011393q-3.104372-111.382509-43.691041-136.066452" stroke="#573b00"/><path d="m180.318602 33.823838q32.957679 46.666442-24.697909 59.77552" stroke="#130c00"/><path d="m162.486563 95.182945q55.559277-15.553058 49.98225-54.662248" stroke="#181100"/><path d="m222.862433 96.269936q-77.181488-10.889649-67.989695-67.990919" stroke="#412800"/><path d="m199.5388 31.684683q-35.03051 41.568963 20.066 62.161586" stroke="#1f0a00"/><path d="m199.372279 32.610451q-56.193711 28.485587-7.233431 70.310928" stroke="#2f1000"/><path d="m220.265054 100.153625q-29.18059-71.762793-41.237261-67.419178" stroke="#421000"/><path d="m186.336924 30.980131q-36.247568 45.057934 29.944214 63.450563" stroke="#3a2100"/><path d="m220.239711 40.026103q-58.6667 59.706521-65.042187 62.574485" stroke="#3d3200"/><path d="m158.756224 96.4235q59.617449-.114801 55.113067-61.530703" stroke="#382e00"/><path d="m208.173196 99.537664q14.991733-36.762405-61.308216-62.452074" stroke="#512500"/><path d="m161.746728 83.745534q5.463412-20.491183 58.866679-35.25047" stroke="#241300"/><path d="m222.317193 55.467545q-61.00381 19.683916-33.244495 58.285548" stroke="#231300"/><path d="m186.625765 34.547958q4.157741.130668 3.883582 73.244088" stroke="#0b0000"/><path d="m225.575769 98.979014q-83.594181-22.79234-66.983354-70.736846" stroke="#584200"/><path d="m215.611718 37.855622q-.190352 67.73436-54.832349 57.737457" stroke="#3e2d00"/><path d="m186.421527 124.030032q4.651364-73.129045-40.424102-82.792049" stroke="#573600"/><path d="m215.453596 95.942275q-1.071322-29.706722-71.645373-52.121845" stroke="#4f2d00"/><path d="m162.520962 100.896638q26.718506-27.446934 57.871137-56.656483" stroke="#241d00"/><path d="m183.682939 104.318638q22.561367-63.28676-6.308429-72.15349" stroke="#270b00"/><path d="m221.678012 56.983303q-62.414561 10.364717-63.417157 32.77537" stroke="#293100"/><path d="m219.707783 94.50782q-60.516276-15.589945-21.607781-62.688776" stroke="#322500"/><path d="m219.476742 46.145174q-23.156456 50.706733-55.47294 28.17479" stroke="#260f00"/><path d="m145.714549 42.439363q74.105079-12.144425 64.929838 56.952827" stroke="#571f00"/><path d="m147.55418 32.548348q46.331045 11.019211 40.549115 90.360285" stroke="#5a3100"/><path d="m219.234428 54.066983q-61.305726.99115-29.861993 63.580825" stroke="#3a3200"/><path d="m186.36905 105.240102q25.071017-50.964007-9.629234-71.618248" stroke="#240e00"/><path d="m145.255281 41.303068q17.850171-9.812954 66.371051 56.312748" stroke="#462d00"/><path d="m209.936192 45.853619q4.006993 37.45402-47.077201 30.164391" stroke="#261a00"/><path d="m158.456576 64.17991q35.345132-44.839371 58.546628 1.372827" stroke="#4a1700"/><path d="m187.779441 98.389319q29.843052-23.825853-13.134649-66.865757" stroke="#351e00"/><path d="m148.859149 52.889623q57.290289-22.686419 67.86595 44.015472" stroke="#673300"/><path d="m215.673918 42.458869q-41.470039 43.472982-55.594255 54.833921" stroke="#413400"/><path d="m192.360059 28.876882q-.608136 55.393604 3.845801 140.797359" stroke="#685a08"/><path d="m146.662562 45.006582q67.679178-24.575001 63.101245 46.884119" stroke="#662e00"/><path d="m153.948714 55.759324q35.830626 39.998713 66.457509-12.923758" stroke="#4e3b00"/><path d="m195.173795 172.502549q14.518991-64.487785-47.63788-142.735512" stroke="#785f14"/><path d="m150.92757 30.57517q-11.301581 34.461041 70.049086 66.187441" stroke="#5e4700"/><path d="m152.817781 29.368084q20.460052 24.525801 39.445813 99.769346" stroke="#745300"/><path d="m180.689395 97.084276q33.366329-56.278459-.47811-66.401091" stroke="#4d2400"/><path d="m215.165372 66.673697q-29.462628-40.942074-51.745637-8.088853" stroke="#440b00"/><path d="m161.782018 81.92566q42.575862-29.536376 24.504341-48.891954" stroke="#2e1a00"/><path d="m180.582775 99.68461q-15.455077-51.889192 37.162518-45.790005" stroke="#392f00"/><path d="m149.049108 28.413888q5.33264 62.723075 69.733061 28.725173" stroke="#5a2e00"/><path d="m217.479611 89.202787q-59.219081 12.907948-47.17647-47.89339" stroke="#443f00"/><path d="m217.940216 90.524086q-58.220098-18.634223-44.441592-54.138812" stroke="#453e00"/><path d="m167.342672 95.123903q58.493103-7.392277 40.546958-54.881516" stroke="#383200"/><path d="m165.325323 103.435226q-10.10014-73.750169 58.033505-48.644762" stroke="#755d04"/><path d="m220.433555 47.12739q-28.952294 2.550664-29.143922 78.624274" stroke="#423000"/><path d="m184.61225 32.602915q8.502977 72.153866 37.926954 64.054473" stroke="#322900"/><path d="m217.987251 47.800157q-8.403402 64.70011-61.525777 40.469612" stroke="#595500"/><path d="m193.259561 106.948661q-43.999139-58.059868 1.366696-75.084067" stroke="#5b3c00"/><path d="m162.105122 51.980865q32.960797-17.694339 59.563879 49.342537" stroke="#604300"/><path d="m162.839046 98.469987q54.55121-18.673412 50.361556-55.195566" stroke="#440"/><path d="m214.5413 80.199237q1.504183-4.425347-68.378785-47.2597" stroke="#582f00"/><path d="m156.089497 96.050139q12.791081-40.649256 63.257623-38.086907" stroke="#505700"/><path d="m179.961627 30.34672q9.601173 10.485597 5.760676 75.690587" stroke="#483300"/><path d="m190.40714 29.472481q18.094001 54.053694-33.281512 66.953671" stroke="#574e00"/><path d="m146.499159 25.916183q23.614892 52.567402 75.34305 27.702044" stroke="#713d00"/><path d="m156.834666 29.448748q-15.123279 50.184006 56.252928 64.140276" stroke="#594600"/><path d="m217.684327 63.008382q-17.093942-36.644495-51.981365-6.354085" stroke="#481700"/><path d="m178.655248 29.199029q34.145959 25.912654 11.12792 71.084542" stroke="#452b00"/><path d="m179.340488 100.559154q45.720444-33.234429-7.069049-68.784408" stroke="#4b3800"/><path d="m184.308035 29.467963q42.329946 44.7245-25.644738 68.488077" stroke="#635a00"/><path d="m166.917612 99.111494q1.274817-24.95091 50.391745-38.435057" stroke="#393800"/><path d="m154.593855 65.889187q32.691622-48.419266 63.423166-11.690007" stroke="#874a00"/><path d="m220.54183 43.785672q-37.179226 19.570823-63.623976 40.961254" stroke="#5b5300"/><path d="m213.485721 80.283516q-.348499-6.442891-68.04415-42.821812" stroke="#4f3700"/><path d="m157.289647 87.814293q63.043448 16.182605 51.452829-41.079139" stroke="#4b5100"/><path d="m164.760626 91.374102q45.100215-5.518823 16.113391-61.430856" stroke="#3a3200"/><path d="m150.1926 28.914222q27.812506 33.799411 72.396476 70.275692" stroke="#674b01"/><path d="m146.29584 36.205164q48.263001 56.017623 72.457624 53.979897" stroke="#594600"/><path d="m175.084828 42.896755q-12.325045 46.087736 37.971553 46.36902" stroke="#454700"/><path d="m188.244725 31.29679q-.495864 34.580223-.506805 78.779739" stroke="#392900"/><path d="m217.315651 47.925679q-60.97022 9.97275-24.542548 56.748308" stroke="#4f3f00"/><path d="m169.265276 105.95608q-13.545006-27.095062 50.995658-50.54123" stroke="#4d5300"/><path d="m212.956907 49.183911q-13.726377 50.633762-48.40742 22.642908" stroke="#272600"/><path d="m215.08614 83.727707q-9.946949-33.80137-42.189479-14.15063" stroke="#363700"/><path d="m217.357361 61.689641q-30.828626-15.547244-57.638852 20.748544" stroke="#494200"/><path d="m177.518092 36.135173q16.632276-5.115408 35.832281 62.234404" stroke="#522e00"/><path d="m196.954294 36.8768q-17.419378 25.557092-50.8826 7.550795" stroke="#6c1e01"/><path d="m151.620081 30.346801q17.027163 65.019495 62.968418 59.160035" stroke="#675b01"/><path d="m219.889905 50.769093q-55.401466 11.356191-26.715864 84.613431" stroke="#605409"/><path d="m216.127368 69.521711q-10.16372-45.269316-47.639239-16.544927" stroke="#461e00"/><path d="m271 165.053261q-50.420533.193902-97.674245 2.822575" stroke="#7c756d"/><path d="m116.424598 148.749754q-54.819488-164.526602 154.575402-148.649969" stroke="#e8f1ff"/><path d="m197.708542 34.690566q-20.868017 60.515205 25.408066 63.24474" stroke="#5b4a00"/><path d="m144.365969 34.328652q59.70018 14.285754 43.902366 75.20585" stroke="#6c4c00"/><path d="m155.61369 61.28593q52.169949 22.493383 65.043156 35.021385" stroke="#525f00"/><path d="m213.121866 40.794697q-5.396425 28.403326-48.757493 64.580646" stroke="#626200"/><path d="m193.159758 28.994779q9.830597 28.182997-33.620422 55.084598" stroke="#6b5300"/><path d="m191.585766 30.927197q-12.445185 50.220134 27.757399 66.721988" stroke="#3f3500"/><path d="m191.722593 137.061339q3.690871-31.770486-8.74359-106.767031" stroke="#584d00"/><path d="m150.19236 33.095222q34.839156 1.760057 34.235892 65.267167" stroke="#775601"/><path d="m219.391827 40.641263q-6.9005 13.365838-60.560382 60.361751" stroke="#494400"/><path d="m217.087353 50.438526q-5.943117 29.131682-50.928594 31.831874" stroke="#4e3200"/><path d="m181.461405 37.86667q10.932208 28.059465 32.697483 44.011795" stroke="#403200"/><path d="m212.744955 84.640819q-5.22242-22.247499-69.099981-41.776718" stroke="#634500"/><path d="m203.456018 85.103393q-47.360681 6.110353-33.907999-37.400313" stroke="#474800"/><path d="m184.357566 102.469306q-16.46619-33.790239 34.254805-39.326595" stroke="#3d3500"/><path d="m49.092119 3.633714q14.433625 122.175881 138.755732 49.231066" stroke="#eff2f2"/><path d="m181.932234 101.155656q-13.982063-26.955039 35.684067-51.140001" stroke="#403300"/><path d="m208.962942 41.626685q1.593827 32.948303-39.981858 23.234639" stroke="#4c3400"/><path d="m224.405185 60.84984q-46.717812-30.30036-59.24592-5.8607" stroke="#623406"/><path d="m147.602556 30.98981q13.556712 17.780314 6.567748 36.999058" stroke="#592200"/><path d="m215.428826 82.45345q-30.138228-33.051794-29.774436-52.957879" stroke="#4a2900"/><path d="m157.945172 104.97037q-2.624005-45.228422 60.732095-43.978067" stroke="#637501"/><path d="m164.805513 97.291412q35.01082 4.788686 28.32848-66.290592" stroke="#695901"/><path d="m201.899283 42.133755q-14.539968-9.342597-33.612017 14.078378" stroke="#491f00"/><path d="m170.032438 166.43228q97.915264 5.518841 100.967562-25.017931" stroke="#837e77"/><path d="m73.845103 146.893982q-47.262294-162.893982 170.564697-140.021613" stroke="#e8f0fe"/><path d="m171.416482 42.124812q-13.630186 22.000192 47.922278 50.669484" stroke="#5a5100"/><path d="m161.823276 31.305653q-4.619444 11.9289-12.304178 21.85546" stroke="#630c0f"/><path d="m78.667644 159.276075q-52.901097-175.276075 167.100617-150.796831" stroke="#e7effd"/><path d="m215.540303 79.47343q-17.571902-10.969694 1.234046-26.363242" stroke="#2a0d00"/><path d="m158.89705 96.474095q51.815584-9.624095 48.425169-55.608938" stroke="#747700"/><path d="m185.357851 51.023979q-152.557867 115.806515-179.578792-66.089565" stroke="#e8ebf0"/><path d="m160.77019 31.107274q-19.116737 4.577028-9.245633 19.765277" stroke="#830413"/><path d="m192.339593 30.098334q-6.864155 49.057066-.749471 77.434757" stroke="#4a3700"/><path d="m10.481031 6.237727q161.857166-22.237727 145.513551 152.49705" stroke="#e6effe"/><path d="m4.964112 8.721902q173.906032-24.721902 112.698684 149.334051" stroke="#e7f1ff"/><path d="m253.264519 17.317387q-209.404282-33.317387-164.523923 140.80353" stroke="#e6effd"/><path d="m254.535905 10.751741q-215.211952-26.751741-179.682854 129.554803" stroke="#e6eefd"/><path d="m214.827717 79.081596q-25.797616-37.817421-47.440526-1.002388" stroke="#505300"/><path d="m25.583094 113.612029q144.781054 49.383664 139.681546-119.993571" stroke="#e8eaec"/><path d="m266.25835 22.269329q-215.226998-38.269329-173.632102 138.671968" stroke="#e5eefd"/><path d="m214.748831 83.027141q-18.318935-24.152938-48.974145-14.758264" stroke="#3b4a00"/><path d="m186.08272 30.572233q23.088205 50.493669 1.530266 71.666341" stroke="#4e3c00"/><path d="m193.08043 32.823099q-17.370279 40.723519-7.670399 71.122972" stroke="#493d00"/><path d="m225.32378 3.673053q-198.660856-19.673053-156.990194 132.936667" stroke="#e8f0fe"/><path d="m180.539536 17.854501q-86.138736 150.134598-180.576942 6.704234" stroke="#e8e9ec"/><path d="m191.454154 105.783451q5.601129-48.168407-11.618348-74.411168" stroke="#443200"/><path d="m133.208717 157.216743q63.150233-173.216743-130.067743-153.850579" stroke="#e5effd"/><path d="m199.175175 40.77901q-42.292954 29.005919-51.291694-7.678336" stroke="#723110"/><path d="m116.97177 154.658212q55.056255-156.673367-99.66186-146.197417" stroke="#e8f1ff"/><path d="m221.965755 98.561897q-26.22528-19.442779-55.646919-21.382135" stroke="#435600"/><path d="m205.743048 7.899769q-180.374943 8.232812-117.655337 150.71286" stroke="#e7f0fd"/><path d="m213.666763 85.045372q-10.260059-9.577283.104283-38.174623" stroke="#1a0c00"/><path d="m112.575691 157.248928q-53.239384-166.538348 126.645641-134.441752" stroke="#e6effe"/><path d="m164.927098 160.316107q9.593771 13.337701 94.851624-.757468" stroke="#8f8a84"/><path d="m176.341356 34.383663q45.194192 2.353262 36.424929 31.784438" stroke="#802e15"/><path d="m150.394355 53.121799q12.812349-16.35349 3.479637-23.024431" stroke="#680005"/><path d="m185.254441 55.395576q-128.835107 79.173555-140.688913-71.395576" stroke="#ebf0f3"/><path d="m184.903801 33.342066q4.509351 68.485102 36.990169 64.71904" stroke="#504d01"/><path d="m169.912006 48.888366q1.752895 33.641589 48.119962 43.239249" stroke="#4a4d00"/><path d="m218.671292 45.517928q-54.720564 45.195608-52.273046 59.382557" stroke="#494600"/><path d="m76.69037 152.704632q-24.617799-168.704632 194.30963-132.051591" stroke="#e5eefc"/><path d="m67.241942 150.556155q-46.8555-166.556155 121.273024-146.606116" stroke="#e7effd"/><path d="m158.909442 87.01726q2.982191-6.786947 27.846373-56.239261" stroke="#8f7116"/><path d="m9.145889 13.391666q168.502169-12.364515 96.442708 143.58511" stroke="#e7f1fe"/><path d="m187.565091 54.664155q-79.639826 20.965867-161.991725 39.633584" stroke="#edece4"/><path d="m155.60883 30.794447q3.217733 27.168685 35.726832 15.539017" stroke="#692203"/><path d="m55.838811 156.062416q-21.470501-172.062416 199.107294-119.893876" stroke="#e4ecf9"/><path d="m-5.856643 17.80931q136.630564-22.365919 158.527587 136.394417" stroke="#e6effd"/><path d="m4.659458 12.635413q172.740133-20.422262 105.826834 146.400571" stroke="#e6effc"/><path d="m85.094349 185q-82.112082-201 148.705037-180.344212" stroke="#e4ecfa"/><path d="m214.085263 90.247774q-11.373866-13.28905-53.718411 1.640193" stroke="#4f6500"/><path d="m147.151781 155.103223q29.703186-171.103223-111.498468-151.405203" stroke="#e7effd"/><path d="m183.750114 8.084555q-146.666433 6.641314-73.437973 150.212284" stroke="#e7f0fd"/><path d="m109.119994 185q135.401881-36.61506 161.880006-18.897481" stroke="#948f88"/><path d="m205.612611 76.80093q4.710686-25.133855-33.136946-42.844695" stroke="#672e00"/><path d="m169.024947 166.587697q22.321686.724226 92.840824.488045" stroke="#8f8b85"/><path d="m151.092729 50.352579q-5.166765-12.491846 6.948299-16.559723" stroke="#540001"/><path d="m156.906637 84.302124q30.573084-17.969686 59.200643-43.710121" stroke="#727805"/><path d="m6.948683 21.967455q114.507322 136.242607 177.203327 24.397561" stroke="#e6ebec"/><path d="m173.945056 143.899431q-1.654942 12.939356 2.661154 41.100569" stroke="#726c3a"/><path d="m-16 19.489284q158.715986-35.489284 184.178586 136.5899" stroke="#e4eefb"/><path d="m201.37565 91.388171q-47.418189-4.009377-27.244199-46.363227" stroke="#4a4700"/><path d="m13.438439 149.460938q176.980976-88.905705 169.588882-105.105532" stroke="#e5e7e5"/><path d="m-3.702956 20.457089q137.578246-25.7128 133.993231 138.316344" stroke="#e6eefc"/><path d="m257.15275 30.203975q-189.468872-46.203975-163.10172 116.940827" stroke="#e5edfb"/><path d="m188.935877 98.18496q29.140923-55.707462-15.376006-62.721425" stroke="#5a4800"/><path d="m257.121888 15.439891q-219.321177-28.660142-160.500269 169.560109" stroke="#e3ebf8"/><path d="m29.197353 5.765135q157.720506.309631 101.232382 153.449428" stroke="#e5eefc"/><path d="m264.169117 90.458719q-213.644898 69.610336-223.963519-97.638247" stroke="#e0e8f6"/><path d="m162.886222 65.045933q10.616437-38.359468 32.99382-25.495397" stroke="#a75210"/><path d="m126.242365 154.501629q-2.177306-164.77779-134.617417-129.788479" stroke="#e6effc"/><path d="m104.227661 148.166214q-25.887335-164.166214 146.451328-120.52066" stroke="#e5edfa"/><path d="m214.693521 78.582942q-11.803538-5.970524 2.949963-32.820612" stroke="#2a0700"/><path d="m153.960447 68.107691q21.830184-44.696246 43.997344-35.499918" stroke="#d89d3d"/><path d="m184.308308 12.006503q-46.007365 107.566341-166.396672 9.662046" stroke="#ebe9e8"/><path d="m202.374299 4.381643q-195.453149-20.381643-122.662403 173.676138" stroke="#e4ecf8"/><path d="m177.999857 37.409977q16.509352-5.206581 37.586297 31.660604" stroke="#863f14"/><path d="m189.684368 103.942442q-4.070253-27.510857 6.388945-74.251528" stroke="#5b3e01"/><path d="m3.365915 23.996777q171.987387 2.622288 149.234297 133.402708" stroke="#e4eefb"/><path d="m218.949286 98.761984q-32.252172-14.983807-52.677956-34.314724" stroke="#516900"/><path d="m208.833779 85.734332q-23.38427 10.850051-40.180408-12.605657" stroke="#3d4c00"/><path d="m151.616451 160.908375q14.110932-176.458838-123.854493-155.068795" stroke="#e5edfb"/><path d="m269.290756.498959q-225.643372-2.594439-165.884591 157.621908" stroke="#e4ebf9"/><path d="m159.155006 3.816455q-135.426194-19.816455-104.572975 151.928227" stroke="#e3edfa"/><path d="m29.201239 119.447494q169.612743 2.200582 123.535678-125.170492" stroke="#e7e7e8"/><path d="m181.768787 139.484208q-89.884875-120.887798-188.746055-113.784667" stroke="#e5eefb"/><path d="m-10.473971 23.884196q151.463792-39.884196 144.252162 125.266438" stroke="#e4edfb"/><path d="m104.745069 151.154673q-88.372059-125.72911 67.923653-147.409728" stroke="#e6effb"/><path d="m177.536764 50.397686q-25.8023 7.608159-27.27793-14.930189" stroke="#481901"/><path d="m164.209585 69.466763q31.082373-2.764169 56.610133-16.130111" stroke="#3d3d00"/><path d="m210.66248 81.049119q-11.285164-8.063167 7.655256-37.675632" stroke="#311100"/><path d="m234.186322 31.17973q-188.603829-46.379336-152.438566 121.750949" stroke="#e4ecf9"/><path d="m215.477139 40.402235q-18.837179 47.83412-52.289629 50.810831" stroke="#5b5300"/><path d="m50.088895 5.483209q195.289924-21.483209 197.94664 114.570183" stroke="#e1e9f8"/><path d="m167.223036 106.179033q11.670423-40.258129 46.712763-13.957255" stroke="#5c7a01"/><path d="m2.56138 26.805517q88.782845 1.799689 178.965027 113.767029" stroke="#e5eefb"/><path d="m217.634642 62.707871q-39.802106-4.715608-42.675492 9.413773" stroke="#413d00"/><path d="m238.312095 95.871564q-39.626301-12.089138-37.535036-23.540167" stroke="#e0ebfc"/><path d="m12.033867 8.529487q160.296928-14.514704 113.324207 143.051332" stroke="#e5edfa"/><path d="m13.373316 8.362818q93.368908 140.116744 171.772855 43.74242" stroke="#e4eaec"/><path d="m262.482117 157.344123q-82.704164 14.825857-85.652736 7.649679" stroke="#8d8985"/><path d="m166.814833 62.026774q22.920507-2.070846 10.69262-21.393005" stroke="#fff9b7"/><path d="m160.924255 32.372381q-14.958584.013413-8.21041 19.923685" stroke="#5d0b12"/><path d="m-16 160.56004q259.577039 3.62854 284.427533-4.422118" stroke="#aca8ab"/><path d="m186.142432 98.471559q22.556893 39.244089 7.189774 76.236614" stroke="#8a8870"/><path d="m162.097143 158.356412q1.779473-173.152287-173.770471-119.924394" stroke="#e2ebf7"/><path d="m268.386148 14.321771q-223.921195-30.321771-177.191556 143.069909" stroke="#e1eaf7"/><path d="m195.665988 94.296841q-35.141722-10.345921-9.41339-37.728582" stroke="#505c00"/><path d="m58.890306 147.799048q-25.45748-163.799048 125.073689-141.060991" stroke="#e5edfa"/><path d="m271 42.307228q-234.306552-58.307228-235.98671 79.146769" stroke="#e2e9f5"/><path d="m181.826691 140.861264q-149.063234-75.674859-93.750497-148.974996" stroke="#e7effb"/><path d="m217.503284 49.974322q-51.645675 15.486902-58.611473 34.492236" stroke="#565700"/><path d="m197.445768 31.217684q-41.334617 31.494632-51.245405 9.007812" stroke="#913a19"/><path d="m151.881696 149.247673q1.16169-148.437634-156.961305-98.829359" stroke="#e3ecf9"/><path d="m181.407705 102.628785q-.543576-43.953006 38.05706-44.377021" stroke="#383900"/><path d="m49.443066 16.461691q214.372711-28.721741 201.238947 118.220813" stroke="#e0e7f6"/><path d="m33.354455 151.234612q-26.170764-167.234612 237.645545-127.555308" stroke="#dfe7f5"/><path d="m177.676021 100.206096q-61.135755 57.308683-158.649922-107.224773" stroke="#e4ecf9"/><path d="m-3.597181 44.894171q143.312971-16.844079 130.665692 114.252452" stroke="#e4ecfa"/><path d="m11.335352 3.691722q259.664648-12.690307 243.740979 123.369548" stroke="#dfe7f6"/><path d="m189.057267 27.728274q-38.734562 13.781507-27.17926 37.748273" stroke="#f9c685"/><path d="m94.219759 151.636538q84.782393-119.420505-62.20005-138.432808" stroke="#e5edfa"/><path d="m2.270249 34.547665q84.83218 129.400717 168.870794 22.750313" stroke="#e5eaf2"/><path d="m147.688635 37.173051q28.838477 5.928971 26.603298 18.642991" stroke="#5e1f00"/><path d="m5.896726 40.680629q120.921589-53.550619 137.651924 113.217523" stroke="#e3ecf8"/><path d="m271 163.641097q-23.506831-3.686231-219.242996-3.131342" stroke="#aca8a8"/><path d="m10.798894 21.716417q118.502718-17.17674 97.170965 129.214289" stroke="#e4edfa"/><path d="m220.334376 47.57444q-5.744571 14.495016-18.606418 23.210706" stroke="#641900"/><path d="m3.439113 5.716796q194.529561 7.904709 132.914479 150.077909" stroke="#e1eaf7"/><path d="m132.045226 147.225795q7.010925-146.958923-133.604924-92.146213" stroke="#e4ecf9"/><path d="m265.980004 34.543074q-234.764948-50.543074-221.461935 119.353304" stroke="#e0e8f4"/><path d="m153.456796 70.887099q18.989031-52.369576 44.431424-36.374729" stroke="#d5a251"/><path d="m221.628738 9.034338q-183.46508-11.269777-108.463345 151.559418" stroke="#e4ecf8"/><path d="m117.987337 159.533947q78.406512-137.839546-91.52453-150.780001" stroke="#e3ebf8"/><path d="m157.468996 158.671954q27.959461-67.787126-173.468996-134.471553" stroke="#e2eaf8"/><path d="m195.135116 27.108026q-37.257386 157.891974 75.19016 157.218318" stroke="#8a7b40"/><path d="m178.895843 40.337222q7.483695 14.786206-17.624317 22.283547" stroke="#fec76a"/><path d="m200.488589 32.782769q-14.314232 11.074794-32.728943 18.574504" stroke="#451d06"/><path d="m193.640686 96.524011q13.127807-29.726494-10.115093-48.03649" stroke="#4d4900"/><path d="m174.283647.619621q-164.028629-6.907773-106.706476 155.325942" stroke="#e3ebf7"/><path d="m163.060357 185q13.099109 0 11.042124-41.176412" stroke="#847d4d"/><path d="m76.88572-2.631989q-38.19466 135.172956 106.473525 116.180545" stroke="#e6eef9"/><path d="m249.250774 129.071467q-216.240796 36.73625-196.389141-116.314581" stroke="#dfe7f4"/><path d="m258.827057 3.859111q-240.164983-19.859111-242.836374 130.63295" stroke="#dee6f4"/><path d="m201.342952 82.422516q-29.657992 26.082626-40.682903 1.832055" stroke="#56730a"/><path d="m224.316267 87.581404q-16.239825 1.236293-24.625364-18.242494" stroke="#dbe8f4"/><path d="m164.286535 73.520754q33.921041 6.745997 55.891285 22.129872" stroke="#475600"/><path d="m183.052575 134.910667q-173.68131-1.993782-99.163413-145.588034" stroke="#e4ecf8"/><path d="m216.779954 45.501002q-11.529438 3.938898-31.221251 57.23631" stroke="#4b3b00"/><path d="m108.419452 148.404944q36.790646-139.151853-119.983695-117.874136" stroke="#e3ebf8"/><path d="m151.604184 30.83765q6.052656 16.434905 4.506564 32.66158" stroke="#642510"/><path d="m207.292008 44.605636q5.191846 2.088688 8.203609 22.108419" stroke="#4f1500"/><path d="m255.223705 56.526582q-58.728701 128.473418-271.223705-4.649776" stroke="#dbe3f0"/><path d="m182.778494-16q-19.279516 143.190007-167.936438 50.714972" stroke="#e7e6e9"/><path d="m180.761956 61.66476q2.483295 10.453567 11.4124 35.017518" stroke="#273f00"/><path d="m162.109492 154.02326q-148.449039-54.873746-29.616544-155.129733" stroke="#e3ebf7"/><path d="m9.99318 78.881019q114.776933 106.118981 155.691909-15.546428" stroke="#dfe8f3"/><path d="m124.842303 159.67988q2.613452-136.365512-112.805498-102.890697" stroke="#e4ecf8"/><path d="m193.239704 145.892078q1.894038-28.396693-6.071792-110.93846" stroke="#565115"/><path d="m167.779858 54.628984q10.626953 3.200292 9.178294-8.252019" stroke="#330200"/><path d="m66.164418-16q-6.739844 182.087382 203.122199 99.113944" stroke="#dee5f0"/><path d="m178.905223 89.518867q-100.949067-68.031307-132.328695 46.190528" stroke="#e0eaef"/><path d="m245.495423 95.647351q-141.883003 89.352649-222.064526-74.933779" stroke="#dde5f1"/><path d="m217.01777 42.196255q-17.468495 31.587952-8.942205 37.213152" stroke="#502700"/><path d="m89.020866 144.166633q9.260123-160.166633 151.436261-104.569242" stroke="#e4e8f2"/><path d="m218.177016 48.603173q-18.258494 3.294055-37.717122 47.30787" stroke="#483c00"/><path d="m107.397514 143.829611q-47.214991-159.829611 115.696193-124.444685" stroke="#e3ebf7"/><path d="m215.173617 47.754136q-15.204421 31.845305-2.221349 35.202011" stroke="#2b1d00"/></g></svg>